<svg width="36" height="24" viewBox="0 0 36 24" fill="none" xmlns="http://www.w3.org/2000/svg">
<g clip-path="url(#clip0_11930_67671)">
<path d="M25 0H36V24H25V0Z" fill="#D0103A"/>
<path d="M11 0H25V24H11V0Z" fill="#FEDF00"/>
<path d="M0 0H11V24H0V0Z" fill="#0018A8"/>
<path d="M16.7937 6.99341C17.1787 6.99341 17.3387 7.32341 17.7237 7.32341C17.9587 7.32341 18.0987 7.24841 18.3087 7.12841C18.4537 7.04841 18.5437 7.00341 18.7087 7.00341C18.8787 7.00341 18.9837 7.05341 19.0737 7.20341C19.1237 7.28341 19.1637 7.44841 19.1387 7.53841C19.109 7.68125 19.0637 7.82041 19.0037 7.95341C18.9687 8.03341 18.9387 8.07841 18.9387 8.16341C18.9387 8.36841 19.2187 8.43841 19.4087 8.44341C19.4487 8.44341 19.7937 8.44341 20.0087 8.23341C19.8937 8.22841 19.7637 8.13341 19.7637 8.01841C19.7637 7.88841 19.8537 7.80341 19.9787 7.76341C20.0037 7.75841 20.0437 7.77841 20.0637 7.76341C20.0987 7.74841 20.0837 7.71341 20.1137 7.69341C20.1737 7.64341 20.2137 7.61341 20.2937 7.61341C20.3437 7.61341 20.3737 7.61841 20.4187 7.64841C20.4387 7.66841 20.4487 7.68841 20.4687 7.68841C20.5287 7.68841 20.5587 7.64841 20.6187 7.64841C20.6589 7.64902 20.6983 7.65931 20.7337 7.67841C20.7637 7.69341 20.7637 7.75341 20.8037 7.75341C20.8237 7.75341 20.9237 7.70841 20.9787 7.70841C21.0887 7.70841 21.1487 7.74841 21.2187 7.83341C21.2387 7.85841 21.2487 7.90341 21.2687 7.90341C21.3177 7.90756 21.3651 7.92334 21.4068 7.94942C21.4485 7.9755 21.4835 8.01115 21.5087 8.05341C21.5237 8.07341 21.5437 8.12341 21.5637 8.12841C21.5937 8.14341 21.6137 8.13841 21.6487 8.16341C21.6897 8.18916 21.7238 8.22443 21.7482 8.26622C21.7725 8.30801 21.7864 8.35508 21.7887 8.40341C21.7887 8.43841 21.7737 8.48341 21.7637 8.51341C21.6737 8.83841 21.4487 8.94341 21.2237 9.22841C21.1237 9.34841 21.0487 9.44341 21.0487 9.59841C21.0487 9.63341 21.0987 9.70341 21.1137 9.73341C21.1037 9.66341 21.1387 9.57341 21.2137 9.56841C21.2634 9.56816 21.3115 9.58646 21.3485 9.61975C21.3855 9.65303 21.4087 9.6989 21.4137 9.74841C21.4149 9.77912 21.4098 9.80975 21.3987 9.83841C21.4593 9.80047 21.5276 9.77655 21.5987 9.76841H21.6937C21.8587 9.76841 22.0437 9.86341 22.1587 9.95841C22.279 10.0618 22.3744 10.191 22.4376 10.3365C22.5008 10.482 22.5303 10.6399 22.5237 10.7984C22.4837 11.0584 22.5087 11.5384 21.8337 11.7284C21.9587 11.7784 22.0437 11.8784 22.0437 11.9884C22.045 12.0184 22.0404 12.0483 22.03 12.0764C22.0196 12.1046 22.0037 12.1303 21.9832 12.1522C21.9627 12.1741 21.938 12.1917 21.9106 12.2039C21.8832 12.2161 21.8537 12.2228 21.8237 12.2234C21.7912 12.2254 21.7586 12.2202 21.7283 12.2081C21.6981 12.196 21.6709 12.1773 21.6487 12.1534C21.5087 12.2934 21.4837 12.4384 21.4837 12.6384C21.4837 12.7584 21.5037 12.8284 21.5537 12.9384C21.6037 13.0484 21.6437 13.1134 21.7387 13.1934C21.7887 13.1184 21.8437 13.0634 21.9387 13.0634C22.0237 13.0634 22.0987 13.0934 22.1337 13.1734C22.1437 13.1984 22.1337 13.2184 22.1487 13.2434C22.1637 13.2734 22.1887 13.2784 22.2037 13.3084C22.2287 13.3584 22.2037 13.3984 22.2287 13.4434C22.2437 13.4784 22.2737 13.4834 22.2887 13.5134C22.3087 13.5634 22.3137 13.5934 22.3137 13.6484C22.3137 13.7984 22.1787 13.9084 22.0287 13.9084C21.9787 13.9084 21.9587 13.8884 21.9137 13.8934C21.9987 13.9784 22.0637 14.0184 22.1287 14.1184C22.2308 14.2704 22.2832 14.4504 22.2787 14.6334C22.2827 14.8292 22.2344 15.0225 22.1387 15.1934C22.0641 15.365 21.9428 15.5123 21.7887 15.6184C21.5529 15.7901 21.2779 15.9001 20.9887 15.9384C20.8074 15.9754 20.6235 15.9988 20.4387 16.0084L19.7337 16.0484C19.3737 16.0684 19.1237 16.1234 18.8687 16.3784C18.9887 16.4634 19.0687 16.5534 19.0687 16.6984C19.0687 16.8484 18.9787 16.9634 18.8337 17.0084C18.7987 17.0184 18.7737 17.0084 18.7387 17.0284C18.7037 17.0484 18.7037 17.0934 18.6687 17.1134C18.6125 17.1502 18.5458 17.1678 18.4787 17.1634C18.4194 17.1677 18.3599 17.1586 18.3046 17.137C18.2492 17.1154 18.1994 17.0817 18.1587 17.0384C18.0487 17.1284 18.0087 17.2084 17.8837 17.2834C17.8437 17.3034 17.8237 17.3334 17.7787 17.3334C17.7037 17.3334 17.6687 17.2834 17.6087 17.2434C17.527 17.1865 17.4531 17.1193 17.3887 17.0434C17.2737 17.1084 17.2087 17.1634 17.0737 17.1634C17.0035 17.1672 16.9338 17.1498 16.8737 17.1134C16.8437 17.0884 16.8337 17.0534 16.7987 17.0334C16.7637 17.0084 16.7337 17.0184 16.6937 16.9984C16.5437 16.9334 16.4437 16.8234 16.4437 16.6584C16.4437 16.5134 16.5337 16.4234 16.6637 16.3584C16.4137 16.1084 16.1637 16.0684 15.8137 16.0484L15.1137 16.0084C14.8937 15.9934 14.7737 15.9734 14.5637 15.9384C14.3987 15.9134 14.3037 15.9034 14.1537 15.8334C13.6437 15.5934 13.3137 15.2684 13.2537 14.7084C13.2437 14.6584 13.2437 14.6334 13.2437 14.5834C13.2437 14.2934 13.3587 14.1134 13.5637 13.9084C13.5137 13.8934 13.4787 13.9084 13.4237 13.8934C13.2987 13.8434 13.2037 13.7584 13.2037 13.6184C13.2037 13.5684 13.2037 13.5334 13.2287 13.4884C13.2487 13.4584 13.2787 13.4534 13.2887 13.4184C13.2987 13.3684 13.2887 13.3384 13.3087 13.2934C13.3237 13.2684 13.3487 13.2634 13.3587 13.2334C13.4087 13.1384 13.4587 13.0634 13.5637 13.0634C13.6537 13.0634 13.7137 13.1134 13.7537 13.1884C13.8437 13.1484 13.8637 13.0834 13.9137 13.0034C13.9743 12.9048 14.012 12.7939 14.0241 12.6788C14.0362 12.5638 14.0224 12.4474 13.9837 12.3384C13.9637 12.2634 13.9537 12.2134 13.8937 12.1534C13.8437 12.2034 13.7937 12.2234 13.7237 12.2234C13.5787 12.2234 13.4737 12.0984 13.4737 11.9584C13.4722 11.9093 13.4857 11.861 13.5126 11.8198C13.5394 11.7787 13.5782 11.7468 13.6237 11.7284C13.5437 11.6584 13.4737 11.6534 13.3887 11.5984C13.2587 11.5184 13.2137 11.4284 13.1287 11.2984C13.0687 11.2184 13.0537 11.1584 13.0287 11.0634C12.985 10.9383 12.968 10.8055 12.9787 10.6734C13.0087 10.4234 13.0537 10.2734 13.2087 10.0784C13.2987 9.96341 13.3587 9.89341 13.4987 9.83341C13.6137 9.78341 13.6837 9.74841 13.8087 9.74841L13.9087 9.75341C13.9577 9.75663 14.0054 9.77027 14.0487 9.79341C14.0687 9.80341 14.1037 9.83841 14.1037 9.81341C14.1037 9.78841 14.0887 9.77341 14.0887 9.74841C14.0887 9.64841 14.1637 9.54841 14.2687 9.54841C14.3437 9.54841 14.3737 9.61841 14.4137 9.68341C14.4337 9.64341 14.4487 9.61341 14.4487 9.56841C14.4487 9.39841 14.3537 9.30841 14.2487 9.17341C14.0137 8.88341 13.7237 8.74841 13.7237 8.37341C13.7237 8.26341 13.7737 8.18841 13.8737 8.12841C13.8987 8.11341 13.9387 8.12841 13.9637 8.11341C13.9887 8.09841 13.9837 8.06341 13.9987 8.04341C14.0237 8.00841 14.0487 7.99341 14.0787 7.96341C14.1287 7.91341 14.1787 7.93341 14.2337 7.88841C14.2637 7.86841 14.2737 7.83841 14.2937 7.81841C14.3587 7.73841 14.4187 7.69841 14.5237 7.69841C14.5737 7.69841 14.6037 7.69841 14.6487 7.71841L14.6987 7.74341C14.7137 7.73341 14.7387 7.70341 14.7737 7.68841C14.8067 7.66795 14.8449 7.65752 14.8837 7.65841C14.9387 7.65841 14.9737 7.68841 15.0337 7.68841C15.0487 7.68841 15.0537 7.66841 15.0737 7.65841C15.1237 7.62341 15.1487 7.60841 15.2087 7.60841C15.2687 7.60841 15.2987 7.62341 15.3487 7.65841C15.3987 7.68341 15.3987 7.72341 15.4487 7.74841C15.4737 7.76341 15.4987 7.75841 15.5237 7.76841C15.6537 7.81341 15.7487 7.89841 15.7487 8.03341C15.7487 8.10841 15.7337 8.15841 15.6787 8.20841C15.6337 8.24341 15.5937 8.23841 15.5387 8.25841C15.6978 8.38678 15.8999 8.4494 16.1037 8.43341C16.3137 8.43341 16.5687 8.34841 16.5687 8.13841C16.5687 8.03841 16.5187 7.98841 16.4787 7.89841C16.4107 7.76698 16.3748 7.62136 16.3737 7.47341C16.3737 7.33341 16.3887 7.24841 16.4687 7.13841C16.5487 7.02341 16.6487 6.99341 16.7937 6.99341Z" fill="#C7B37F"/>
<path d="M15.3938 8.11339C15.4024 8.14172 15.4178 8.16749 15.4388 8.18842C15.4597 8.20935 15.4855 8.2248 15.5138 8.23339C15.5538 8.24839 15.6488 8.24339 15.7038 8.16339C15.7538 8.10339 15.7538 8.02339 15.7338 7.96339C15.7172 7.91899 15.6876 7.88065 15.6488 7.85339L15.3938 8.11339Z" stroke="#703D29" stroke-width="0.035" stroke-linejoin="round"/>
<path d="M21.8236 11.9684C21.7636 11.8234 21.6087 11.8884 21.6037 11.9684C21.5787 12.1534 21.7387 12.2084 21.8537 12.1784C21.8802 12.1712 21.9051 12.1586 21.9266 12.1414C21.9481 12.1242 21.9658 12.1028 21.9787 12.0784C22.0087 12.0284 22.0186 11.9584 21.9986 11.8934C21.9903 11.8645 21.9768 11.8374 21.9587 11.8134C21.9407 11.7897 21.9187 11.7694 21.8936 11.7534C21.8486 11.7234 21.7986 11.7234 21.7236 11.7234C21.4486 11.7234 21.2036 12.0484 21.1236 12.3934C21.0936 12.5034 21.0587 12.7584 21.1087 12.9934C21.1502 13.2063 21.2527 13.4026 21.4037 13.5584C21.5447 13.6911 21.7139 13.7903 21.8986 13.8484C21.9638 13.8672 22.0327 13.8689 22.0986 13.8534C22.2586 13.8184 22.3336 13.6634 22.2486 13.5034C22.1836 13.3784 21.9836 13.3034 21.8886 13.4734C21.8836 13.4884 21.8686 13.5184 21.8686 13.5484C21.8686 13.5934 21.8886 13.6484 21.9186 13.6684C21.9936 13.7134 22.1087 13.6984 22.1037 13.5684" stroke="#703D29" stroke-width="0.035" stroke-linecap="round"/>
<path d="M20.9636 13.8633C21.0491 13.7656 21.1656 13.7002 21.2936 13.6783C21.4436 13.6583 21.5736 13.7033 21.7036 13.7783C21.8661 13.8527 22.0036 13.9726 22.0994 14.1234C22.1952 14.2743 22.2453 14.4496 22.2436 14.6283C22.2436 14.8083 22.1936 15.0033 22.1436 15.0983C22.1036 15.1833 21.9936 15.5483 21.3786 15.7983C21.0236 15.9483 20.4786 15.9783 20.0936 15.9983C19.5736 16.0133 19.0936 16.0333 18.8186 16.3783" stroke="#703D29" stroke-width="0.04"/>
<path d="M21.0924 14.4483C21.0774 14.3983 21.0924 14.3433 21.1324 14.2833C21.1924 14.2033 21.3174 14.1783 21.4324 14.2333C21.4819 14.26 21.5247 14.2976 21.5574 14.3433L21.6124 14.4233C21.6474 14.4783 21.6624 14.5233 21.6624 14.5483C21.7874 14.8983 21.5924 15.2733 21.3374 15.4283C21.1374 15.5483 20.9024 15.5983 20.6174 15.6283C20.4924 15.6483 20.4174 15.6433 20.2924 15.6533H19.8124C19.6925 15.6472 19.5723 15.6472 19.4524 15.6533C19.3074 15.6683 19.2024 15.6733 19.0724 15.6933C18.9924 15.7033 18.9024 15.7183 18.8024 15.7433C18.7724 15.7433 18.7424 15.7533 18.7124 15.7633L18.6524 15.7783C18.4724 15.8333 18.3024 15.8983 18.1624 15.9883C18.1224 16.0133 18.0724 16.0383 18.0374 16.0733L17.9724 16.1333C17.8724 16.2333 17.7774 16.3333 17.7524 16.4683V16.5483C17.7524 16.6383 17.8224 16.7633 18.0224 16.7983M18.2974 8.29834C18.3374 8.36834 18.3624 8.41334 18.3374 8.49334C18.3074 8.57834 18.2474 8.63334 18.1574 8.63334C17.9574 8.63334 17.8424 8.39334 17.9324 8.24334C18.0924 7.97834 18.3974 8.12834 18.6824 8.25834C18.6674 8.19334 18.6424 8.16834 18.6474 8.08334C18.6524 7.87334 18.8074 7.78334 18.8724 7.58334C18.9074 7.46834 18.9224 7.36834 18.8374 7.28334C18.7624 7.21834 18.6774 7.21834 18.5824 7.25334C18.3924 7.32834 18.1574 7.54834 17.7524 7.55334C17.3424 7.54834 17.1124 7.32834 16.9174 7.25334C16.8174 7.21834 16.7374 7.21834 16.6624 7.28834C16.5774 7.36834 16.5924 7.46834 16.6274 7.58834C16.6924 7.77834 16.8474 7.87334 16.8524 8.08834C16.8524 8.16834 16.8324 8.18834 16.8174 8.25834C17.1024 8.12834 17.4174 7.96334 17.5674 8.24334C17.6524 8.40334 17.5424 8.62834 17.3424 8.62834C17.2524 8.62834 17.1924 8.57834 17.1624 8.49334C17.1424 8.41834 17.1624 8.35334 17.2024 8.29334" stroke="#703D29" stroke-width="0.035"/>
<path d="M17.5024 8.15845C17.5436 8.18497 17.5766 8.22237 17.5977 8.2665C17.6189 8.31063 17.6275 8.35976 17.6224 8.40845C17.6124 8.53345 17.5824 8.56345 17.4824 8.63345M17.6024 8.44345C17.5974 8.51845 17.5674 8.56845 17.4874 8.59845" stroke="#703D29" stroke-width="0.035" stroke-linecap="round"/>
<path d="M15.6087 7.82837L15.6437 7.85337L15.6837 7.89337L15.7087 7.94337L15.7187 7.98337V8.07837L15.7087 8.11837L15.6837 8.14837L15.6537 8.17837L15.6087 8.20337L15.5587 8.21337L15.5087 8.22337L15.4587 8.19837L15.4137 8.16837L15.3887 8.12837L15.3687 8.07837V8.05837L15.6087 7.82837Z" fill="#C7B37F"/>
<path d="M15.5337 8.02343C15.5187 7.93843 15.4237 7.92343 15.3837 7.97343C15.3287 8.04843 15.3687 8.17343 15.4837 8.20843C15.5195 8.21568 15.5566 8.21298 15.591 8.20064C15.6254 8.1883 15.6557 8.16679 15.6787 8.13843C15.7287 8.07343 15.7237 7.99843 15.7037 7.93843C15.6877 7.89371 15.658 7.8552 15.6187 7.82843C15.4837 7.72843 15.2637 7.74843 15.1887 7.92843C15.0987 8.14843 15.2987 8.31843 15.4887 8.44343C15.7187 8.60343 15.9887 8.63343 16.1887 8.63343C16.6487 8.62843 16.9987 8.40843 17.2237 8.28343C17.2737 8.25343 17.3287 8.25843 17.3587 8.29343C17.3737 8.31368 17.3805 8.33884 17.3777 8.36386C17.3749 8.38889 17.3628 8.41195 17.3437 8.42843" stroke="#703D29" stroke-width="0.035" stroke-linecap="round"/>
<path d="M14.1737 14.2234L14.0737 14.2584L13.9737 14.3384L13.9237 14.4034L13.8687 14.5034L13.8437 14.5784L13.8237 14.6684L13.8137 14.7384M14.7637 14.2334L14.7587 14.3234L14.7437 14.3834L14.6937 14.4934L14.6287 14.5834L14.5537 14.6434L14.4987 14.6684L14.4187 14.6884" stroke="#703D29" stroke-width="0.035"/>
<path d="M17.7586 16.6184C17.7436 16.7034 17.6636 16.7984 17.4936 16.8284L17.4636 16.8384" stroke="#703D29" stroke-width="0.04"/>
<path d="M21.9836 13.9734C22.0742 14.0606 22.1458 14.1656 22.1939 14.2817C22.2421 14.3979 22.2658 14.5227 22.2636 14.6484C22.2636 14.8284 22.2136 15.0234 22.1636 15.1184C22.1236 15.2034 22.0136 15.5684 21.3986 15.8184C20.9847 15.9501 20.553 16.0175 20.1186 16.0184C19.6036 16.0334 19.1286 16.0534 18.8486 16.3834" stroke="#703D29" stroke-width="0.045"/>
<path d="M21.1487 14.3083C21.1887 14.2583 21.3237 14.1883 21.4387 14.2533C21.4847 14.2766 21.5243 14.3109 21.5537 14.3533" stroke="#703D29" stroke-width="0.03"/>
<path d="M21.8538 13.8533L21.9238 13.8783C21.989 13.8978 22.0585 13.8978 22.1238 13.8783C22.2638 13.8383 22.3538 13.7083 22.2838 13.5333C22.2623 13.4918 22.2315 13.4559 22.1938 13.4283" stroke="#703D29" stroke-width="0.045"/>
<path d="M13.7887 10.1534C13.6887 10.2084 13.6237 10.2234 13.5487 10.3084C13.4908 10.4156 13.4471 10.5299 13.4187 10.6484M15.7187 8.06335C15.7187 8.15335 15.6587 8.20335 15.5687 8.22335" stroke="#703D29" stroke-width="0.035" stroke-linecap="round"/>
<path d="M21.6287 9.76343C21.7552 9.76598 21.8799 9.79377 21.9955 9.84518C22.1111 9.89659 22.2153 9.97057 22.3019 10.0628C22.3885 10.155 22.4559 10.2636 22.5 10.3822C22.5441 10.5008 22.564 10.627 22.5587 10.7534C22.5587 11.5534 22.0637 11.6784 21.8687 11.7334" stroke="#703D29" stroke-width="0.03"/>
<path d="M21.6936 9.76335C22.0986 9.74835 22.5186 10.0484 22.5386 10.7984C22.5536 11.3834 22.1386 11.6484 21.9386 11.6984" stroke="#703D29" stroke-width="0.035"/>
<path d="M21.4636 12.5833L21.4686 12.5033L21.4986 12.3783L21.5336 12.2783L21.5786 12.1983L21.6286 12.1333M22.0186 11.9633V12.0383L21.9936 12.0883L21.9586 12.1433L21.9186 12.1733L21.8586 12.1983H21.8036L21.7636 12.1933M21.0486 9.55334L21.0636 9.46834L21.1036 9.38834L21.1536 9.31334L21.2336 9.20334L21.3036 9.13334L21.4036 9.02334L21.5036 8.92834L21.5586 8.86334L21.6336 8.76834L21.7036 8.66834L21.7436 8.58334L21.7686 8.47334L21.7736 8.33834L21.7636 8.29834M21.1486 14.7083L21.2286 14.6883L21.2886 14.6583L21.3236 14.6233L21.3486 14.5833L21.3636 14.5233V14.4783M13.4536 13.8733H13.5886L13.6686 13.8433M13.9186 12.0183L13.9086 12.0883L13.8886 12.1183L13.8686 12.1483L13.8336 12.1733L13.7986 12.1883L13.7486 12.1933H13.7186M14.2136 11.4183L14.1986 11.5233L14.1736 11.5733L14.1336 11.6333L14.0736 11.6783L14.0136 11.7083L13.8986 11.7333M14.6636 9.74834L14.6386 9.81334L14.6136 9.86334L14.5736 9.91334L14.5236 9.96334L14.4636 9.98834L14.4086 10.0033L14.3786 9.99834M14.3936 9.68834V9.73834" stroke="#703D29" stroke-width="0.03"/>
<path d="M14.4888 11.3634C14.4584 11.393 14.4228 11.4167 14.3838 11.4334M21.9088 13.6734L21.9338 13.6834C22.0038 13.7234 22.1438 13.6734 22.1038 13.5634" stroke="#703D29" stroke-width="0.03" stroke-linecap="round"/>
<path d="M21.6638 12.1434C21.7138 12.2084 21.8088 12.2284 21.8838 12.2084C21.9104 12.2013 21.9352 12.1887 21.9567 12.1715C21.9782 12.1543 21.996 12.1328 22.0088 12.1084C22.0388 12.0584 22.0488 11.9884 22.0288 11.9234C22.019 11.8942 22.0037 11.867 21.9838 11.8434C21.9659 11.8154 21.944 11.7901 21.9188 11.7684L21.8988 11.7584M22.2188 13.4584C22.2215 13.4469 22.2232 13.4352 22.2238 13.4234C22.2241 13.3953 22.2185 13.3673 22.2073 13.3415C22.1961 13.3156 22.1796 13.2924 22.1588 13.2734L22.1188 13.2334M22.1388 13.2584C22.1388 13.1684 22.0638 13.0984 21.9688 13.0834M21.7588 13.2234L21.6938 13.1734C21.5569 13.0288 21.48 12.8376 21.4788 12.6384C21.4788 12.4284 21.5588 12.2184 21.6588 12.1384M18.8338 16.3634L18.9238 16.2834L18.9838 16.2334L19.0988 16.1634L19.2088 16.1134L19.2888 16.0884L19.4388 16.0584L19.6188 16.0284M18.1438 16.9984C18.0496 17.135 17.9175 17.241 17.7638 17.3034C17.6111 17.2393 17.4794 17.1336 17.3838 16.9984" stroke="#703D29" stroke-width="0.03"/>
<path d="M17.4938 16.7933C17.4745 16.8711 17.4368 16.9432 17.3838 17.0033" stroke="#703D29" stroke-width="0.03" stroke-linecap="round"/>
<path d="M17.5087 16.6884L17.4887 16.7984M17.3737 17.0134L17.3237 17.0634L17.2387 17.1084L17.1387 17.1384M16.8587 8.24836C16.8737 8.20836 16.8837 8.17836 16.8837 8.11836C16.8787 7.90836 16.7237 7.81336 16.6587 7.61836M16.6587 7.61836C16.6237 7.50336 16.6087 7.40336 16.6937 7.31836C16.7637 7.24836 16.8537 7.24836 16.9437 7.28836C17.1437 7.36336 17.3737 7.57836 17.7787 7.58836C17.3737 7.57836 17.1387 7.36336 16.9487 7.28836C16.8487 7.24836 16.7587 7.23836 16.6837 7.31336C16.5987 7.39336 16.6237 7.50336 16.6587 7.61836ZM16.6587 7.61836C16.7237 7.81336 16.8687 7.90836 16.8737 8.11836C16.8737 8.17836 16.8587 8.20836 16.8487 8.24836M17.7737 7.56336C18.1737 7.54336 18.5187 7.27336 18.6287 7.24836C18.7287 7.22836 18.7787 7.23836 18.8537 7.30336C18.7837 7.23836 18.7037 7.24336 18.6037 7.27836C18.4137 7.35336 18.1837 7.56836 17.7737 7.57836M21.7537 13.2234C21.6575 13.1512 21.5793 13.0576 21.5255 12.95C21.4717 12.8423 21.4437 12.7237 21.4437 12.6034C21.4437 12.3984 21.5287 12.1834 21.6237 12.1034M18.1237 16.9834C18.0587 17.0834 17.9087 17.2334 17.7437 17.2934C17.5904 17.2279 17.4587 17.1204 17.3637 16.9834" stroke="#703D29" stroke-width="0.03"/>
<path d="M17.1086 8.34837L17.2236 8.28337C17.2736 8.25337 17.3386 8.25837 17.3686 8.29337C17.3986 8.32837 17.4036 8.39337 17.3586 8.43337" stroke="#703D29" stroke-width="0.03" stroke-linecap="round"/>
<path d="M16.5088 8.62838C16.7838 8.56838 17.0088 8.44838 17.1788 8.35338M18.7888 16.5634C18.8138 16.5784 18.8288 16.6134 18.8288 16.6134C18.8338 16.6234 18.8438 16.6384 18.8438 16.6534C18.8588 16.7284 18.8088 16.7734 18.7438 16.7834C18.6588 16.7934 18.5938 16.7434 18.5688 16.6834M16.4938 8.61338C16.7688 8.55838 16.9938 8.43338 17.1638 8.33838M22.0438 13.6834C21.9938 13.7034 21.9638 13.6984 21.8938 13.6734L21.8038 13.6234C21.6214 13.5194 21.4749 13.3625 21.3838 13.1734C21.3456 13.1008 21.317 13.0234 21.2988 12.9434C21.2828 12.8898 21.2744 12.8343 21.2738 12.7784C21.2684 12.5048 21.3507 12.2367 21.5088 12.0134C21.5638 11.9334 21.6138 11.8884 21.7188 11.8834M14.5338 9.91838C14.5767 9.95227 14.6113 9.99563 14.6347 10.0451C14.6581 10.0945 14.6698 10.1487 14.6688 10.2034C14.6688 10.3584 14.5388 10.6134 14.2188 10.7034C14.1127 10.7323 13.9994 10.7179 13.9038 10.6634" stroke="#703D29" stroke-width="0.03"/>
<path d="M14.5888 10.4434C14.6438 10.4834 14.6688 10.5284 14.6688 10.6084C14.6688 10.6584 14.6338 10.7284 14.5738 10.7934C14.5176 10.8545 14.4497 10.9036 14.3741 10.938C14.2985 10.9724 14.2168 10.9912 14.1338 10.9934C14.0338 10.9934 13.9338 10.9734 13.8338 10.9084C13.7385 10.8457 13.6706 10.7492 13.6438 10.6384" stroke="#703D29" stroke-width="0.03"/>
<path d="M14.5839 10.7784C14.6489 10.8384 14.6689 10.9134 14.6689 11.0084C14.6689 11.1434 14.6139 11.2484 14.4839 11.3584C14.4539 11.3884 14.4239 11.4084 14.3839 11.4334M20.8589 10.3284V10.5034M20.8439 10.2834V10.5334M20.8589 9.74337V10.0734M20.8439 9.67337V10.1184M20.7489 14.2184C20.6971 14.3241 20.6259 14.4191 20.5389 14.4984C20.4555 14.5838 20.3572 14.6533 20.2489 14.7034C20.1446 14.7555 20.0335 14.7925 19.9189 14.8134C19.8074 14.8401 19.6935 14.8552 19.5789 14.8584C19.4539 14.8584 19.3839 14.8584 19.2589 14.8484C19.1289 14.8384 19.0589 14.8184 18.9239 14.8084C18.8139 14.7984 18.7539 14.7884 18.6439 14.7934C18.4564 14.7866 18.2694 14.8172 18.0939 14.8834C17.9639 14.9334 17.8089 15.0334 17.7789 15.0734C17.6838 14.9923 17.5756 14.9281 17.4589 14.8834C17.377 14.8499 17.2914 14.8264 17.2039 14.8134C17.0889 14.7934 17.0289 14.7934 16.9139 14.7934C16.8039 14.7934 16.7439 14.7984 16.6339 14.8084C16.5039 14.8234 16.4339 14.8384 16.2989 14.8484C16.1739 14.8584 16.1039 14.8634 15.9789 14.8584C15.7475 14.8559 15.5192 14.8048 15.3089 14.7084C15.1868 14.6513 15.0778 14.5696 14.9889 14.4684M17.0939 17.1384L17.1839 17.1284M18.6989 17.0084L18.7889 17.0034L18.8739 16.9684L18.9339 16.9284L19.0189 16.8284L19.0339 16.7984L19.0489 16.7134V16.6734M21.3989 9.83837C21.4339 9.70837 21.3889 9.56837 21.2589 9.57337M14.6589 11.8984C14.6315 11.9956 14.5692 12.0793 14.4839 12.1334M14.6639 9.79837C14.6499 9.84263 14.6266 9.88338 14.5955 9.91788C14.5645 9.95237 14.5264 9.97982 14.4839 9.99837C14.3889 10.0384 14.2839 9.99837 14.2239 9.95837" stroke="#703D29" stroke-width="0.03"/>
<path d="M13.9639 10.2833C14.0389 10.3233 14.1189 10.2633 14.1039 10.1633C14.0969 10.1344 14.0811 10.1083 14.0587 10.0886C14.0364 10.0689 14.0085 10.0566 13.9789 10.0533" stroke="#703D29" stroke-width="0.03" stroke-linecap="round"/>
<path d="M14.2838 14.4934C14.2988 14.5084 14.3038 14.5284 14.3238 14.5334C14.3588 14.5434 14.3838 14.5534 14.4188 14.5084C14.4588 14.4534 14.4338 14.3684 14.3938 14.3134C14.357 14.2754 14.3091 14.2502 14.2569 14.2412C14.2048 14.2322 14.1512 14.24 14.1038 14.2634C14.0638 14.2884 14.0188 14.3134 13.9738 14.3734L13.9188 14.4534C13.8838 14.5084 13.8688 14.5534 13.8638 14.5734C13.7638 14.8684 13.8838 15.1734 14.0688 15.3584" stroke="#703D29" stroke-width="0.03"/>
<path d="M18.7837 16.5533L18.8187 16.5933L18.8287 16.6383C18.8437 16.7133 18.7937 16.7583 18.7287 16.7683C18.6487 16.7783 18.5887 16.7283 18.5637 16.6683" stroke="#703D29" stroke-width="0.03" stroke-linecap="round"/>
<path d="M21.2437 7.90332C21.3287 7.91601 21.4066 7.95788 21.4641 8.02174C21.5216 8.08561 21.555 8.16748 21.5587 8.25332C21.5587 8.47332 21.4837 8.55332 21.3687 8.71332C21.2437 8.88332 20.8337 9.19332 20.8337 9.54832C20.8337 9.76332 20.8937 9.89832 21.0487 9.96832C21.1487 10.0183 21.2637 9.96832 21.3187 9.91832C21.4487 9.79832 21.3937 9.59332 21.2587 9.56832C21.0987 9.53832 21.0637 9.79832 21.2237 9.78332M22.1187 13.2333C22.1107 13.1914 22.0883 13.1535 22.0555 13.1262C22.0227 13.0989 21.9814 13.0837 21.9387 13.0833C21.8897 13.0833 21.8426 13.1028 21.8079 13.1375C21.7732 13.1722 21.7537 13.2193 21.7537 13.2683C21.7537 13.3183 21.7737 13.3683 21.8037 13.3983" stroke="#703D29" stroke-width="0.03"/>
<path d="M20.9687 9.91833C20.9257 9.95223 20.8912 9.99558 20.8678 10.045C20.8444 10.0945 20.8327 10.1486 20.8337 10.2033C20.8337 10.3583 20.9637 10.6133 21.2837 10.7033C21.4037 10.7383 21.5237 10.7333 21.5937 10.6883M13.7937 10.1733C13.6968 10.2042 13.6126 10.2656 13.5537 10.3483C13.4345 10.5372 13.395 10.7654 13.4437 10.9833C13.4636 11.0832 13.5026 11.1783 13.5587 11.2633C13.5733 11.2849 13.5901 11.305 13.6087 11.3233L13.6687 11.3733M16.8687 15.9733C17.1137 16.0783 17.2887 16.1583 17.4387 16.3983C17.4793 16.4735 17.4999 16.5579 17.4987 16.6433C17.4987 16.7783 17.4487 16.9283 17.3337 17.0233C17.2885 17.0634 17.2351 17.0931 17.1772 17.1103C17.1193 17.1276 17.0584 17.132 16.9987 17.1233C16.9037 17.1133 16.8137 17.0433 16.7987 16.9933M14.4737 11.3683C14.6087 11.4783 14.6687 11.5783 14.6687 11.7433C14.6717 11.818 14.6547 11.8921 14.6196 11.958C14.5844 12.0239 14.5323 12.0793 14.4687 12.1183" stroke="#703D29" stroke-width="0.03"/>
<path d="M14.3489 11.9834C14.5489 12.2384 14.6639 12.3884 14.6689 12.6884C14.6739 12.9734 14.5839 13.1684 14.4189 13.3734" stroke="#703D29" stroke-width="0.03" stroke-linecap="round"/>
<path d="M18.2637 8.62836C18.3002 8.60106 18.3266 8.56235 18.3387 8.51836C18.3637 8.44336 18.3637 8.37836 18.3287 8.31836C18.3787 8.38836 18.3787 8.44336 18.3637 8.51836C18.3587 8.56836 18.3237 8.59336 18.2837 8.63336M20.8587 12.9384V13.7484L20.8537 13.8734C20.8494 13.9018 20.8444 13.9302 20.8387 13.9584" stroke="#703D29" stroke-width="0.03"/>
<path d="M20.8438 12.8633V13.8583L20.8188 13.9883M20.8438 11.8383V12.5683M20.8588 11.8983V12.4883M20.8588 11.1483V11.5883M20.8438 11.0933V11.6433M20.8588 10.6933V10.8683M20.8438 10.6583V10.9083M20.7538 14.1683L20.7338 14.2033C20.6841 14.3104 20.6145 14.4071 20.5288 14.4883C20.4435 14.5725 20.3436 14.6403 20.2338 14.6883C20.1312 14.74 20.0218 14.777 19.9088 14.7983C19.7738 14.8283 19.6988 14.8383 19.5638 14.8433C19.4388 14.8433 19.3688 14.8433 19.2488 14.8333C19.1138 14.8233 19.0438 14.8083 18.9088 14.7933C18.7988 14.7833 18.7388 14.7783 18.6288 14.7783C18.5188 14.7783 18.4538 14.7783 18.3438 14.7983C18.2546 14.8109 18.1673 14.8344 18.0838 14.8683C17.9488 14.9233 17.7988 15.0183 17.7638 15.0583C17.7338 15.0183 17.5788 14.9233 17.4488 14.8683C17.3653 14.8344 17.278 14.8109 17.1888 14.7983C17.0788 14.7783 17.0138 14.7783 16.8988 14.7783C16.7888 14.7783 16.7288 14.7833 16.6188 14.7933C16.4888 14.8083 16.4188 14.8233 16.2838 14.8333C16.1588 14.8433 16.0888 14.8483 15.9688 14.8433C15.7357 14.8416 15.5057 14.7904 15.2938 14.6933C15.1854 14.6433 15.0871 14.5738 15.0038 14.4883C14.9582 14.4453 14.9164 14.3985 14.8788 14.3483M14.7788 14.1883C14.787 14.257 14.781 14.3265 14.7613 14.3928C14.7415 14.459 14.7083 14.5204 14.6638 14.5733C14.6238 14.6183 14.5338 14.7033 14.4138 14.7033C14.2288 14.7033 14.1738 14.5783 14.1638 14.5433" stroke="#703D29" stroke-width="0.03"/>
<path d="M14.5538 14.1084C14.5888 14.1434 14.6188 14.1834 14.6488 14.2334C14.6988 14.3234 14.6788 14.4734 14.6438 14.5434C14.6392 14.5503 14.6341 14.557 14.6288 14.5634M13.6138 15.4634C13.7288 15.5834 13.8988 15.7134 14.1588 15.8184C14.5138 15.9684 15.0638 15.9984 15.4438 16.0184C15.9438 16.0334 16.4088 16.0534 16.6938 16.3684M17.5588 16.1684C17.6506 16.2389 17.72 16.3344 17.7588 16.4434M17.3938 17.0184C17.3828 17.0308 17.3711 17.0424 17.3588 17.0534C17.3141 17.0927 17.2616 17.122 17.2046 17.1393C17.1477 17.1565 17.0877 17.1614 17.0288 17.1534C16.9288 17.1434 16.8388 17.0734 16.8138 17.0234M16.5438 16.8784L16.5588 16.8984C16.6252 16.9696 16.7165 17.0126 16.8138 17.0184M18.1638 17.0184C18.0662 17.1538 17.9329 17.2594 17.7788 17.3234C17.6261 17.2593 17.4944 17.1536 17.3988 17.0184L17.3838 16.9934M18.1638 17.0134L18.1988 17.0484C18.244 17.0884 18.2974 17.1181 18.3552 17.1354C18.4131 17.1527 18.474 17.1571 18.5338 17.1484C18.5743 17.1437 18.6133 17.13 18.6479 17.1084C18.6824 17.0868 18.7118 17.0578 18.7338 17.0234L18.7588 16.9884" stroke="#703D29" stroke-width="0.03"/>
<path d="M18.7238 16.9934L18.6887 17.0534L18.6338 17.1034L18.5488 17.1384H18.4688" stroke="#703D29" stroke-width="0.03"/>
<path d="M18.9239 16.4284C18.9752 16.466 19.0165 16.5158 19.0439 16.5734C19.0589 16.6084 19.0639 16.6484 19.0689 16.6884C19.0708 16.7266 19.0652 16.7648 19.0523 16.8009C19.0395 16.8369 19.0196 16.87 18.9939 16.8984C18.9593 16.9356 18.9176 16.9654 18.8712 16.9861C18.8248 17.0067 18.7746 17.0177 18.7239 17.0184C18.7172 17.0186 18.7105 17.0186 18.7039 17.0184M18.7139 17.0084C18.6652 17.0097 18.6168 17.0006 18.5719 16.9816C18.527 16.9626 18.4868 16.9342 18.4539 16.8984M21.6389 13.5034C21.5414 13.411 21.4602 13.3028 21.3989 13.1834C21.361 13.1123 21.3324 13.0367 21.3139 12.9584C21.2979 12.9048 21.2895 12.8493 21.2889 12.7934C21.2833 12.5205 21.3638 12.2529 21.5189 12.0284C21.5539 11.9884 21.5889 11.9384 21.6239 11.9184M21.5589 8.12335C21.6839 8.13335 21.7989 8.27335 21.7989 8.40835C21.7989 8.59835 21.7339 8.68335 21.5789 8.87335C21.4489 9.03335 21.0489 9.32335 21.0639 9.59835C21.0639 9.64835 21.0889 9.69835 21.1189 9.73835M20.9589 9.91335C20.9878 9.94237 21.0217 9.96606 21.0589 9.98335C21.0935 9.99705 21.1309 10.0028 21.1681 10.0002C21.2053 9.99762 21.2414 9.98673 21.2739 9.96835M20.2239 7.81335C20.2723 7.84515 20.3105 7.89031 20.3339 7.94335C20.4239 8.16835 20.2239 8.33835 20.0339 8.46335C19.9087 8.54707 19.7673 8.6033 19.6189 8.62835" stroke="#703D29" stroke-width="0.03"/>
<path d="M20.0037 8.24333C19.974 8.24249 19.9448 8.23537 19.9181 8.22245C19.8914 8.20952 19.8677 8.19108 19.8487 8.16833C19.8341 8.15391 19.8222 8.13697 19.8137 8.11833M19.0637 8.36333C19.041 8.35021 19.0207 8.3333 19.0037 8.31333C18.9537 8.26333 18.9287 8.19833 18.9637 8.09333C18.9937 7.99833 19.1487 7.73333 19.1537 7.54833C19.1637 7.26833 19.0537 7.09833 18.8887 7.03833" stroke="#703D29" stroke-width="0.03"/>
<path d="M19.1388 7.4884L19.1338 7.5884L19.1038 7.6984L19.0538 7.8484L19.0038 7.9434L18.9638 8.0384L18.9438 8.1034L18.9338 8.1534L18.9388 8.1984M20.8388 14.5134L20.8688 14.5534C20.9038 14.6034 21.0288 14.7034 21.1438 14.7034C21.3288 14.7034 21.3738 14.5734 21.3788 14.5434C21.4038 14.3984 21.3538 14.3634 21.2788 14.3184C21.2788 14.3184 21.2388 14.2984 21.1838 14.3084" stroke="#703D29" stroke-width="0.03" stroke-linecap="round"/>
<path d="M13.6237 13.8834C13.5631 13.9002 13.4992 13.9002 13.4387 13.8834C13.2937 13.8384 13.1787 13.7034 13.2387 13.5334M13.9087 11.9434C13.9237 11.9584 13.9287 11.9784 13.9287 11.9934C13.9487 12.1834 13.7887 12.2334 13.6787 12.2034C13.6168 12.1836 13.5638 12.1429 13.5287 12.0884C13.5072 12.0537 13.4952 12.0141 13.4937 11.9734M14.5937 10.7934C14.6237 10.8184 14.6437 10.8434 14.6587 10.8784M14.6037 10.4534C14.6287 10.4734 14.6487 10.4984 14.6587 10.5184" stroke="#703D29" stroke-width="0.03"/>
<path d="M14.6687 10.6884C14.649 10.7327 14.622 10.7733 14.5887 10.8084C14.5325 10.8695 14.4646 10.9187 14.389 10.9531C14.3134 10.9874 14.2317 11.0063 14.1487 11.0084C14.0487 11.0084 13.9487 10.9884 13.8487 10.9234C13.7494 10.8584 13.678 10.7585 13.6487 10.6434" stroke="#703D29" stroke-width="0.03" stroke-linecap="round"/>
<path d="M14.5437 9.92834C14.5984 9.9731 14.6398 10.0319 14.6637 10.0983" stroke="#703D29" stroke-width="0.03"/>
<path d="M14.6638 10.3234C14.6188 10.4734 14.4888 10.6534 14.2338 10.7184C14.1138 10.7484 13.9538 10.7084 13.9038 10.6684" stroke="#703D29" stroke-width="0.03" stroke-linecap="round"/>
<path d="M13.7737 10.2934C13.7887 10.4234 13.8737 10.5234 14.0437 10.5234C14.2787 10.5284 14.4237 10.1884 14.2137 9.94836" stroke="#703D29" stroke-width="0.03"/>
<path d="M13.2437 11.4384C13.2787 11.4834 13.3187 11.5234 13.3637 11.5584C13.4513 11.6334 13.5534 11.6896 13.6637 11.7234M13.9237 11.7484C14.1337 11.7234 14.2537 11.5634 14.2237 11.3834C14.2087 11.2434 14.0837 11.1334 13.9937 11.1284" stroke="#703D29" stroke-width="0.03" stroke-linecap="round"/>
<path d="M14.2637 9.56836C14.3587 9.56836 14.4137 9.64836 14.4087 9.71836" stroke="#703D29" stroke-width="0.03"/>
<path d="M14.2437 8.31335C14.2904 8.4376 14.3788 8.54183 14.4937 8.60835M21.7037 10.1584C21.7887 10.2734 21.7337 10.5084 21.5037 10.5084C21.4585 10.5088 21.414 10.4976 21.3746 10.4756C21.3351 10.4537 21.3021 10.4219 21.2787 10.3834" stroke="#703D29" stroke-width="0.03" stroke-linecap="round"/>
<path d="M20.8586 8.61841V9.41341" stroke="#703D29" stroke-width="0.03"/>
<path d="M13.9638 10.2783C14.0338 10.3283 14.1288 10.2433 14.0888 10.1483C14.0638 10.0883 13.9788 10.0183 13.8538 10.1033C13.7138 10.1983 13.7538 10.4933 14.0138 10.4983C14.2488 10.4983 14.3938 10.1583 14.1838 9.91833C13.9838 9.68833 13.6188 9.73833 13.3838 9.92833C13.2027 10.0785 13.0762 10.2841 13.0238 10.5133C12.9921 10.665 12.9921 10.8216 13.0238 10.9733C13.0489 11.1069 13.0999 11.2343 13.1738 11.3483L13.2388 11.4333C13.2788 11.4733 13.2888 11.4933 13.3388 11.5333C13.4823 11.6588 13.6682 11.725 13.8588 11.7183C14.0888 11.7083 14.2238 11.5483 14.1988 11.3533C14.1788 11.1633 13.9888 11.0683 13.8638 11.1583C13.7788 11.2183 13.7488 11.4033 13.8988 11.4483C13.9788 11.4733 14.0538 11.3633 13.9988 11.2983M20.4738 7.70833C20.6088 7.63833 20.7138 7.64833 20.7888 7.75833C20.8608 7.86354 20.8895 7.9925 20.8688 8.11833C20.8494 8.23373 20.7869 8.33744 20.6938 8.40833" stroke="#703D29" stroke-width="0.03" stroke-linecap="round"/>
<path d="M20.7988 7.76334C20.9538 7.66334 21.1238 7.70834 21.2138 7.84334C21.2788 7.94334 21.2988 8.02334 21.2938 8.14834C21.2891 8.24285 21.2604 8.33461 21.2106 8.41505C21.1607 8.49549 21.0913 8.56199 21.0088 8.60834" stroke="#703D29" stroke-width="0.03" stroke-linecap="round"/>
<path d="M21.5239 8.12341C21.6539 8.13341 21.7539 8.24841 21.7539 8.37841C21.7539 8.56841 21.7039 8.65341 21.5539 8.84341C21.4189 9.00841 21.0239 9.29341 21.0339 9.57341C21.0339 9.67841 21.1239 9.77341 21.1989 9.78341" stroke="#703D29" stroke-width="0.03"/>
<path d="M21.5436 10.2784C21.4686 10.3284 21.3786 10.2484 21.4186 10.1584C21.4436 10.0984 21.5286 10.0184 21.6536 10.1034C21.7886 10.1984 21.7536 10.4934 21.4886 10.4984C21.2536 10.4984 21.0886 10.1684 21.3186 9.91837C21.5186 9.68837 21.9036 9.73337 22.1436 9.92337C22.2436 10.0034 22.4486 10.2234 22.4936 10.5234C22.5436 10.8734 22.5386 11.3034 22.1736 11.5734C22.0236 11.6784 21.8236 11.7284 21.6436 11.7234C21.4136 11.7134 21.2786 11.5484 21.3036 11.3534C21.3286 11.1634 21.5036 11.0834 21.6386 11.1584C21.7786 11.2334 21.7536 11.4284 21.6036 11.4484C21.5186 11.4584 21.4486 11.3634 21.5036 11.2984" stroke="#703D29" stroke-width="0.03" stroke-linecap="round"/>
<path d="M21.4187 10.1584C21.4587 9.98338 21.6037 9.96838 21.7287 9.96838C22.0537 9.97338 22.2837 10.3684 22.2887 10.7434C22.2887 11.2184 22.0887 11.5034 21.7387 11.5184C21.6437 11.5184 21.4887 11.4784 21.4887 11.3684" stroke="#703D29" stroke-width="0.03"/>
<path d="M21.6239 10.0784C21.9689 10.1584 22.0889 10.4684 22.0889 10.7684C22.0889 11.0134 22.0639 11.3484 21.5889 11.4634" stroke="#703D29" stroke-width="0.03" stroke-linecap="square"/>
<path d="M22.1938 13.4284C22.1994 13.3946 22.1959 13.3599 22.1838 13.3278C22.1717 13.2958 22.1513 13.2675 22.1248 13.2458C22.0982 13.2241 22.0664 13.2098 22.0326 13.2043C21.9987 13.1988 21.964 13.2024 21.932 13.2146C21.8999 13.2268 21.8717 13.2472 21.8501 13.2738C21.8284 13.3004 21.8142 13.3323 21.8088 13.3661C21.8034 13.4 21.8071 13.4347 21.8193 13.4667C21.8316 13.4987 21.8521 13.5269 21.8788 13.5484" stroke="#703D29" stroke-width="0.03"/>
<path d="M21.4937 13.1334C21.5637 13.2334 21.6437 13.3384 21.8087 13.4334M21.7437 13.9584C21.5837 13.8484 21.2687 13.7084 20.9937 13.8484C20.9436 13.8675 20.8981 13.897 20.8602 13.9349C20.8223 13.9728 20.7928 14.0183 20.7737 14.0684C20.7474 14.1487 20.7418 14.2345 20.7575 14.3175C20.7733 14.4006 20.8098 14.4783 20.8637 14.5434C20.9087 14.5934 20.9987 14.6734 21.1137 14.6784C21.3037 14.6784 21.3487 14.5484 21.3537 14.5184C21.3737 14.3784 21.2937 14.3234 21.2537 14.3134C21.2187 14.2984 21.1137 14.3034 21.0937 14.3784C21.0837 14.4034 21.0837 14.4434 21.1037 14.4784" stroke="#703D29" stroke-width="0.03" stroke-linecap="round"/>
<path d="M18.7987 16.5833C18.8487 16.6933 18.7887 16.7433 18.7187 16.7533C18.6087 16.7683 18.5537 16.6833 18.5487 16.6033C18.5467 16.5736 18.5507 16.5438 18.5605 16.5157C18.5704 16.4876 18.5858 16.4618 18.6059 16.4398C18.626 16.4178 18.6504 16.4002 18.6775 16.3879C18.7046 16.3756 18.734 16.3689 18.7637 16.3683C18.8787 16.3683 18.9687 16.4433 19.0137 16.5433C19.0287 16.5783 19.0387 16.6183 19.0387 16.6633C19.0428 16.7382 19.0177 16.8116 18.9687 16.8683C18.9346 16.9065 18.8931 16.9373 18.8467 16.9588C18.8002 16.9803 18.7499 16.992 18.6987 16.9933C18.4887 16.9983 18.3237 16.8033 18.3237 16.6033C18.3237 16.2183 18.8937 16.0033 19.1237 15.9533C19.4169 15.8813 19.717 15.8411 20.0187 15.8333C20.1937 15.8283 20.3287 15.8333 20.5237 15.8083C20.6987 15.7933 20.7937 15.7833 20.9737 15.7433C21.2083 15.694 21.4256 15.5837 21.6037 15.4233C21.7487 15.2883 21.8287 15.1983 21.8987 15.0133C21.9377 14.8995 21.9521 14.7787 21.9409 14.6589C21.9297 14.5391 21.8931 14.423 21.8337 14.3183C21.7787 14.2268 21.7039 14.1488 21.6148 14.0899C21.5257 14.0311 21.4245 13.993 21.3187 13.9783C21.1337 13.9533 20.9687 14.0333 20.8687 14.2183C20.8187 14.3083 20.8387 14.4583 20.8737 14.5283C20.8983 14.5712 20.9331 14.6073 20.9749 14.6334C21.0168 14.6596 21.0645 14.675 21.1137 14.6783C21.3037 14.6783 21.3487 14.5483 21.3537 14.5183C21.3737 14.3783 21.2937 14.3233 21.2537 14.3083C21.2187 14.2983 21.1137 14.3033 21.0937 14.3783C21.0837 14.4033 21.0837 14.4433 21.1037 14.4783" stroke="#703D29" stroke-width="0.03" stroke-linecap="round"/>
<path d="M18.6337 15.9734C18.3937 16.0784 18.2137 16.1584 18.0637 16.3984C18.0229 16.4735 18.0022 16.5579 18.0037 16.6434C18.0037 16.7784 18.0587 16.9284 18.1687 17.0234C18.2139 17.0634 18.2673 17.0931 18.3252 17.1104C18.3831 17.1277 18.444 17.1321 18.5037 17.1234C18.6037 17.1134 18.6887 17.0434 18.7037 16.9934" stroke="#703D29" stroke-width="0.03" stroke-linecap="round"/>
<path d="M21.0288 11.3684C20.9138 11.4084 20.8338 11.5784 20.8338 11.7434C20.8308 11.8181 20.8478 11.8922 20.8829 11.9581C20.9181 12.024 20.9702 12.0793 21.0338 12.1184" stroke="#703D29" stroke-width="0.03"/>
<path d="M21.1537 11.9834C20.9537 12.2384 20.8387 12.3884 20.8337 12.6884C20.8337 12.9734 20.9187 13.1684 21.0887 13.3734" stroke="#703D29" stroke-width="0.03" stroke-linecap="round"/>
<path d="M20.0688 7.76334L20.0838 7.73834C20.1688 7.61834 20.3188 7.58334 20.4288 7.66334C20.5588 7.76334 20.5938 7.93334 20.5588 8.11334C20.5338 8.22334 20.4588 8.31834 20.3588 8.38834" stroke="#703D29" stroke-width="0.03"/>
<path d="M15.0287 7.70339C14.8987 7.64339 14.7937 7.65339 14.7137 7.75339C14.6748 7.80387 14.6475 7.86228 14.6336 7.92449C14.6198 7.9867 14.6198 8.05118 14.6337 8.11339C14.6637 8.24839 14.7037 8.30339 14.8087 8.40339" stroke="#703D29" stroke-width="0.03" stroke-linecap="round"/>
<path d="M14.7037 7.76336C14.6716 7.74016 14.6351 7.72378 14.5964 7.71522C14.5578 7.70667 14.5178 7.70612 14.4789 7.71362C14.44 7.72111 14.4031 7.73649 14.3704 7.7588C14.3377 7.78112 14.3099 7.80989 14.2887 7.84336C14.2265 7.93224 14.1982 8.04041 14.2087 8.14836C14.2187 8.35836 14.3487 8.52836 14.4987 8.60836" stroke="#703D29" stroke-width="0.03"/>
<path d="M14.2587 7.90332C14.1774 7.91294 14.1022 7.95163 14.0471 8.01226C13.992 8.07289 13.9606 8.1514 13.9587 8.23332C13.9587 8.45832 14.0087 8.54832 14.1337 8.71332C14.2587 8.88332 14.6687 9.19332 14.6687 9.54832C14.6687 9.76332 14.6087 9.89832 14.4537 9.96832C14.3537 10.0183 14.2387 9.96832 14.1837 9.91832C14.0537 9.79832 14.1087 9.59332 14.2437 9.56832C14.4087 9.53832 14.4387 9.79832 14.2787 9.78332" stroke="#703D29" stroke-width="0.03"/>
<path d="M13.9739 8.12341C13.8489 8.13341 13.7239 8.23841 13.7239 8.37341C13.7239 8.56341 13.7989 8.65341 13.9539 8.84341C14.0839 9.00841 14.4589 9.29341 14.4489 9.56841C14.4489 9.66841 14.3739 9.79841 14.3039 9.78341" stroke="#703D29" stroke-width="0.03"/>
<path d="M13.6736 11.9684C13.7386 11.8234 13.8936 11.8884 13.9036 11.9684C13.9236 12.1534 13.7636 12.2084 13.6486 12.1784C13.622 12.1712 13.5972 12.1586 13.5757 12.1414C13.5542 12.1242 13.5365 12.1028 13.5236 12.0784C13.5082 12.0504 13.4984 12.0197 13.495 11.9879C13.4915 11.9561 13.4945 11.924 13.5036 11.8934C13.5135 11.8641 13.5287 11.837 13.5486 11.8134C13.5651 11.7901 13.5854 11.7698 13.6086 11.7534C13.6586 11.7234 13.7036 11.7234 13.7786 11.7234C14.0536 11.7234 14.2986 12.0484 14.3786 12.3934C14.4086 12.5034 14.4436 12.7584 14.3936 12.9934C14.3535 13.2058 14.2528 13.402 14.1036 13.5584C13.9611 13.6916 13.7901 13.7908 13.6036 13.8484C13.5404 13.8685 13.4728 13.8702 13.4086 13.8534C13.2686 13.8084 13.1786 13.6784 13.2486 13.5034C13.3086 13.3734 13.5186 13.3034 13.6136 13.4734C13.6236 13.4884 13.6336 13.5184 13.6336 13.5484C13.6336 13.5934 13.6136 13.6484 13.5836 13.6684C13.5136 13.7134 13.3986 13.6984 13.4036 13.5684" stroke="#703D29" stroke-width="0.03" stroke-linecap="round"/>
<path d="M13.4638 13.6834C13.5138 13.7034 13.5438 13.6984 13.6088 13.6734L13.6988 13.6234C13.8288 13.5484 13.9788 13.4334 14.1188 13.1684C14.1566 13.0974 14.1852 13.0218 14.2038 12.9434C14.2188 12.8934 14.2288 12.8334 14.2338 12.7784C14.2378 12.5043 14.1536 12.2361 13.9938 12.0134C13.9388 11.9334 13.8938 11.8884 13.7838 11.8834M13.3088 13.4334C13.3024 13.3996 13.3051 13.3647 13.3166 13.3322C13.3281 13.2998 13.348 13.2709 13.3743 13.2487C13.4006 13.2264 13.4323 13.2115 13.4662 13.2054C13.5001 13.1994 13.5349 13.2024 13.5673 13.2142C13.5996 13.226 13.6283 13.2462 13.6503 13.2727C13.6723 13.2991 13.687 13.331 13.6927 13.3649C13.6984 13.3989 13.6951 13.4337 13.683 13.466C13.6709 13.4982 13.6504 13.5266 13.6238 13.5484" stroke="#703D29" stroke-width="0.03"/>
<path d="M13.3838 13.2334C13.392 13.1906 13.4151 13.1521 13.4489 13.1247C13.4828 13.0972 13.5252 13.0826 13.5688 13.0834C13.617 13.0847 13.6628 13.1048 13.6964 13.1393C13.73 13.1739 13.7488 13.2202 13.7488 13.2684C13.7492 13.3165 13.7313 13.363 13.6988 13.3984" stroke="#703D29" stroke-width="0.03"/>
<path d="M13.7437 13.2284C13.8399 13.1562 13.918 13.0626 13.9718 12.955C14.0256 12.8474 14.0537 12.7287 14.0537 12.6084C14.0537 12.4034 13.9737 12.1884 13.8737 12.1084" stroke="#703D29" stroke-width="0.03"/>
<path d="M14.0088 13.1334C13.9326 13.2598 13.8238 13.3634 13.6938 13.4334" stroke="#703D29" stroke-width="0.03" stroke-linecap="round"/>
<path d="M14.5037 13.8484C14.4537 13.7384 14.3637 13.6884 14.2137 13.6734C14.0637 13.6584 13.9387 13.6984 13.8037 13.7684C13.6416 13.8433 13.5044 13.9633 13.4087 14.114C13.3129 14.2647 13.2626 14.4399 13.2637 14.6184C13.2657 14.7818 13.2996 14.9431 13.3637 15.0934C13.4087 15.1734 13.5137 15.5434 14.1287 15.7934C14.5447 15.9231 14.978 15.9888 15.4137 15.9884C15.9337 16.0084 16.4137 16.0284 16.6937 16.3684" stroke="#703D29" stroke-width="0.03"/>
<path d="M13.7588 13.9583C13.9238 13.8483 14.2338 13.7083 14.5138 13.8483C14.5624 13.869 14.6064 13.8991 14.6433 13.9368C14.6802 13.9746 14.7092 14.0193 14.7288 14.0683C14.7552 14.1486 14.7608 14.2344 14.745 14.3174C14.7293 14.4005 14.6927 14.4782 14.6388 14.5433C14.5938 14.5933 14.5038 14.6733 14.3888 14.6783C14.1988 14.6783 14.1538 14.5483 14.1488 14.5183C14.1288 14.3783 14.2088 14.3233 14.2488 14.3083C14.2838 14.2983 14.3888 14.3033 14.4088 14.3783C14.4188 14.4033 14.4188 14.4433 14.3988 14.4783" stroke="#703D29" stroke-width="0.03" stroke-linecap="round"/>
<path d="M14.4088 14.4484C14.4238 14.3984 14.4188 14.3384 14.3688 14.2834C14.3308 14.244 14.2811 14.2178 14.2271 14.2088C14.1731 14.1998 14.1176 14.2084 14.0688 14.2334C14.0338 14.2584 13.9888 14.2834 13.9488 14.3434C13.9288 14.3634 13.8988 14.3984 13.8888 14.4234C13.8538 14.4784 13.8388 14.5234 13.8388 14.5484C13.7138 14.8984 13.9138 15.2684 14.1638 15.4284C14.3838 15.5684 14.6038 15.6084 14.8838 15.6284C15.0088 15.6434 15.0838 15.6434 15.2088 15.6534H15.6888C15.8088 15.6472 15.9289 15.6472 16.0488 15.6534C16.1988 15.6684 16.3038 15.6734 16.4288 15.6934C16.5088 15.7034 16.6038 15.7184 16.6988 15.7434C16.7288 15.7434 16.7588 15.7534 16.7888 15.7634L16.8488 15.7784C17.0288 15.8334 17.1988 15.8984 17.3388 15.9884C17.3788 16.0134 17.4288 16.0384 17.4638 16.0734L17.5288 16.1334C17.6288 16.2334 17.7288 16.3334 17.7488 16.4684V16.5484C17.7488 16.6384 17.6788 16.7634 17.4838 16.7984" stroke="#703D29" stroke-width="0.03"/>
<path d="M16.7038 16.5833C16.6538 16.6933 16.7138 16.7433 16.7838 16.7533C16.8938 16.7683 16.9488 16.6833 16.9588 16.6033C16.9609 16.5732 16.9567 16.543 16.9466 16.5145C16.9364 16.4861 16.9206 16.46 16.8999 16.438C16.8793 16.4159 16.8543 16.3984 16.8266 16.3864C16.7989 16.3744 16.769 16.3683 16.7388 16.3683C16.6845 16.3696 16.6318 16.3868 16.5873 16.418C16.5428 16.4491 16.5085 16.4927 16.4888 16.5433C16.4734 16.5815 16.4649 16.6222 16.4638 16.6633C16.4598 16.7382 16.4849 16.8116 16.5338 16.8683C16.5679 16.9065 16.6094 16.9373 16.6559 16.9588C16.7023 16.9803 16.7527 16.992 16.8038 16.9933C17.0138 16.9983 17.1788 16.8033 17.1788 16.6033C17.1788 16.2183 16.6088 16.0033 16.3788 15.9533C16.0856 15.8813 15.7856 15.8411 15.4838 15.8333C15.3088 15.8283 15.1738 15.8333 14.9788 15.8083C14.8038 15.7933 14.7088 15.7833 14.5288 15.7433C14.2961 15.6932 14.0805 15.5829 13.9038 15.4233C13.7373 15.3001 13.6216 15.1203 13.5783 14.9178C13.5351 14.7152 13.5672 14.5038 13.6688 14.3233C13.7233 14.2309 13.7978 14.1519 13.887 14.0921C13.9761 14.0324 14.0776 13.9935 14.1838 13.9783C14.3738 13.9533 14.5338 14.0333 14.6338 14.2183C14.6838 14.3083 14.6638 14.4583 14.6288 14.5283C14.6042 14.5712 14.5695 14.6073 14.5276 14.6334C14.4857 14.6596 14.4381 14.675 14.3888 14.6783C14.1988 14.6783 14.1538 14.5483 14.1488 14.5183C14.1288 14.3783 14.2088 14.3233 14.2488 14.3083C14.2838 14.2983 14.3888 14.3033 14.4088 14.3783C14.4188 14.4033 14.4188 14.4433 14.3988 14.4783" stroke="#703D29" stroke-width="0.03"/>
<path d="M15.4387 7.76334L15.4187 7.73834C15.3337 7.61834 15.1837 7.58334 15.0737 7.66334C14.9437 7.76334 14.9087 7.93334 14.9487 8.11334C14.9769 8.22763 15.0487 8.32635 15.1487 8.38834" stroke="#703D29" stroke-width="0.03" stroke-linecap="round"/>
<path d="M20.1138 8.14338C19.9138 8.36338 19.7088 8.43338 19.4088 8.44338C19.3088 8.44338 19.1338 8.41338 19.0288 8.33838C18.9638 8.28838 18.8888 8.20838 18.9338 8.06338C18.9638 7.96838 19.1188 7.70338 19.1238 7.51838C19.1388 7.23838 19.0288 7.08338 18.8588 7.02338C18.5488 6.91338 18.2088 7.22338 18.0088 7.29338C17.9038 7.32838 17.8488 7.33338 17.7538 7.33338C17.6538 7.33338 17.6038 7.32838 17.4938 7.29338C17.2938 7.22338 16.9588 6.91338 16.6438 7.02338C16.4738 7.08338 16.3688 7.23838 16.3788 7.52338C16.3838 7.70338 16.5388 7.97338 16.5688 8.06338C16.6188 8.20838 16.5438 8.28838 16.4738 8.33838C16.3738 8.41338 16.1888 8.44338 16.0988 8.43838C15.7988 8.43338 15.5938 8.36338 15.3938 8.14338" stroke="#703D29" stroke-width="0.03"/>
<path d="M16.6387 15.8834C16.6787 15.8984 16.6487 15.8734 16.9037 15.9834C17.1365 16.0643 17.3355 16.221 17.4687 16.4284C17.5272 16.5407 17.5432 16.6703 17.5137 16.7934" stroke="#703D29" stroke-width="0.03" stroke-linecap="round"/>
<path d="M16.6587 16.9634C16.7083 16.9895 16.7628 17.0048 16.8187 17.0084C17.0287 17.0134 17.1937 16.8184 17.1937 16.6184C17.1937 16.4784 17.1187 16.3584 17.0137 16.2684" stroke="#703D29" stroke-width="0.03"/>
<path d="M16.7037 16.5833C16.6537 16.6983 16.7237 16.7583 16.7937 16.7683C16.9037 16.7783 16.9637 16.6983 16.9737 16.6183C16.9767 16.5766 16.968 16.5348 16.9486 16.4977C16.9292 16.4606 16.8998 16.4296 16.8637 16.4083" stroke="#703D29" stroke-width="0.03" stroke-linecap="round"/>
<path d="M21.2788 7.90332C21.4388 7.90332 21.5788 8.08332 21.5788 8.26332C21.5788 8.47832 21.4688 8.60832 21.3838 8.70332C21.3188 8.78332 21.2488 8.85332 21.1638 8.93832" stroke="#703D29" stroke-width="0.03"/>
<path d="M21.0887 7.73334C21.1431 7.76325 21.1908 7.80411 21.2287 7.85334C21.2937 7.95334 21.3137 8.03834 21.3087 8.16334C21.2987 8.37334 21.1487 8.51834 21.0087 8.61334M20.7737 7.73334L20.8037 7.76834C20.8987 7.87834 20.9037 8.03834 20.8837 8.12834C20.8725 8.18406 20.8498 8.23683 20.8171 8.28331C20.7844 8.3298 20.7423 8.36897 20.6937 8.39834M20.4437 7.67834C20.5737 7.77834 20.6137 7.94834 20.5687 8.12834C20.5387 8.25334 20.4587 8.32834 20.3587 8.38834M20.9137 10.4433C20.9287 10.4933 20.9587 10.5083 20.9887 10.5433C21.0745 10.6284 21.1816 10.6888 21.2987 10.7183C21.4187 10.7533 21.5287 10.7283 21.6137 10.6733M13.4637 13.3733C13.5237 13.3733 13.5887 13.4183 13.6287 13.4883C13.6337 13.4983 13.6487 13.5283 13.6487 13.5633C13.6487 13.6083 13.6287 13.6533 13.5987 13.6733C13.5237 13.7233 13.3987 13.6983 13.3987 13.5733" stroke="#703D29" stroke-width="0.03" stroke-linecap="round"/>
<path d="M13.8488 11.7284C14.0988 11.7784 14.3338 12.0734 14.4088 12.3934C14.4388 12.5084 14.4738 12.7584 14.4238 12.9934C14.3818 13.2087 14.2775 13.4069 14.1238 13.5634C14.0916 13.598 14.0565 13.6298 14.0188 13.6584L13.9688 13.6934M13.5688 13.0884C13.6688 13.0884 13.7588 13.1834 13.7588 13.2884C13.7592 13.3365 13.7414 13.383 13.7088 13.4184" stroke="#703D29" stroke-width="0.03"/>
<path d="M13.5037 13.1984C13.6087 13.1984 13.7087 13.2984 13.7087 13.4084C13.7087 13.437 13.7025 13.4652 13.6904 13.4912C13.6783 13.5171 13.6606 13.54 13.6387 13.5584" stroke="#703D29" stroke-width="0.03"/>
<path d="M14.4737 12.1384C14.5672 12.2496 14.6323 12.3816 14.6637 12.5234M14.6637 12.9484C14.647 13.0179 14.6219 13.0851 14.5887 13.1484C14.5422 13.2363 14.4814 13.3157 14.4087 13.3834" stroke="#703D29" stroke-width="0.03" stroke-linecap="round"/>
<path d="M14.4888 11.3784C14.5788 11.4534 14.6388 11.5284 14.6638 11.6184" stroke="#703D29" stroke-width="0.03"/>
<path d="M14.6688 11.1384C14.6358 11.23 14.5767 11.3099 14.4988 11.3684M14.0388 10.5084L14.1488 10.4784L14.2138 10.4284L14.2538 10.3734L14.2888 10.2834L14.3038 10.2084" stroke="#703D29" stroke-width="0.03" stroke-linecap="round"/>
<path d="M13.8238 10.1284C13.7888 10.1384 13.7438 10.1484 13.6988 10.1684C13.6284 10.2024 13.5681 10.2541 13.5238 10.3184C13.4052 10.5074 13.3657 10.7355 13.4138 10.9534C13.4337 11.0533 13.4728 11.1484 13.5288 11.2334L13.5788 11.3034C13.6488 11.3684 13.7088 11.4034 13.8088 11.3884" stroke="#703D29" stroke-width="0.03"/>
<path d="M14.4237 9.65332C14.4087 9.71832 14.3737 9.79832 14.2737 9.78832" stroke="#703D29" stroke-width="0.03" stroke-linecap="round"/>
<path d="M14.0588 10.0884C13.9588 9.99338 13.7588 9.96838 13.5538 10.0984L13.4738 10.1634C13.4474 10.1871 13.4238 10.214 13.4038 10.2434C13.3508 10.3198 13.3103 10.4042 13.2838 10.4934C13.2488 10.6434 13.2488 10.7734 13.2538 10.8084C13.2538 10.8584 13.2638 10.9034 13.2688 10.9434C13.2988 11.0834 13.3388 11.1834 13.3838 11.2534C13.4288 11.3284 13.5338 11.5034 13.7688 11.5234C13.8588 11.5284 14.0088 11.4884 14.0188 11.3734" stroke="#703D29" stroke-width="0.03"/>
<path d="M19.9638 8.01343C19.9788 7.93343 20.0788 7.91843 20.1138 7.96343C20.1738 8.04343 20.1338 8.17343 20.0138 8.20843C19.9788 8.21472 19.9427 8.21155 19.9093 8.19925C19.8759 8.18694 19.8464 8.16595 19.8238 8.13843C19.7738 8.07343 19.7788 7.99843 19.7988 7.93843C19.8088 7.89843 19.8438 7.86343 19.8838 7.82843C20.0188 7.72843 20.2388 7.74843 20.3138 7.92843C20.4038 8.14843 20.2038 8.31843 20.0138 8.44343C19.7838 8.60343 19.5138 8.63343 19.3138 8.62843C18.8538 8.62843 18.5088 8.40843 18.2788 8.27843C18.2288 8.25343 18.1738 8.25843 18.1438 8.29343C18.1289 8.31368 18.1221 8.33884 18.1249 8.36386C18.1277 8.38889 18.1398 8.41195 18.1588 8.42843" stroke="#703D29" stroke-width="0.03" stroke-linecap="round"/>
<path d="M20.0538 7.93835C20.1038 7.93835 20.1138 7.95835 20.1288 7.97835C20.1888 8.05335 20.1438 8.18335 20.0288 8.22335M20.9188 10.7984C20.7438 10.9884 20.9088 11.3134 21.0388 11.3884C21.0838 11.4234 21.1038 11.4034 21.1388 11.4234" stroke="#703D29" stroke-width="0.03" stroke-linecap="round"/>
<path d="M20.9287 10.4334C20.8737 10.4734 20.8537 10.5184 20.8487 10.5984C20.846 10.6348 20.8508 10.6713 20.8628 10.7057C20.8749 10.7401 20.8939 10.7717 20.9187 10.7984C21.0456 10.9153 21.2112 10.9812 21.3837 10.9834C21.4837 10.9834 21.5837 10.9634 21.6837 10.8984C21.779 10.8357 21.8469 10.7392 21.8737 10.6284M20.8337 13.7184L20.8237 13.8434C20.8134 13.9655 20.7794 14.0843 20.7237 14.1934C20.6719 14.2991 20.6007 14.3941 20.5137 14.4734C20.4284 14.5576 20.3284 14.6253 20.2187 14.6734C20.1163 14.7268 20.0069 14.7655 19.8937 14.7884C19.6765 14.8317 19.454 14.8419 19.2337 14.8184C19.0987 14.8084 19.0287 14.7934 18.8937 14.7784C18.7837 14.7734 18.7237 14.7634 18.6137 14.7634C18.4276 14.7589 18.2423 14.7912 18.0687 14.8584C17.9337 14.9084 17.7837 15.0084 17.7487 15.0484C17.7187 15.0034 17.5637 14.9084 17.4337 14.8584C17.3505 14.8228 17.2631 14.7976 17.1737 14.7834C17.0637 14.7634 16.9987 14.7634 16.8837 14.7634C16.7737 14.7634 16.7137 14.7734 16.6037 14.7834C16.4737 14.7934 16.4037 14.8134 16.2687 14.8184C16.1437 14.8284 16.0737 14.8334 15.9537 14.8284C15.8359 14.8276 15.7186 14.8142 15.6037 14.7884C15.4908 14.7671 15.3814 14.7301 15.2787 14.6784C15.1704 14.6283 15.0721 14.5588 14.9887 14.4734C14.9012 14.3927 14.8299 14.2959 14.7787 14.1884C14.7237 14.0808 14.6898 13.9637 14.6787 13.8434C14.6687 13.7934 14.6687 13.7184 14.6687 13.7184V8.62842H20.8287L20.8337 13.7184Z" stroke="#703D29" stroke-width="0.03"/>
<path d="M14.1737 14.4434C14.1737 14.4102 14.1869 14.3784 14.2103 14.355C14.2337 14.3315 14.2655 14.3184 14.2987 14.3184C14.3318 14.3184 14.3636 14.3315 14.3871 14.355C14.4105 14.3784 14.4237 14.4102 14.4237 14.4434C14.4237 14.4765 14.4105 14.5083 14.3871 14.5318C14.3636 14.5552 14.3318 14.5684 14.2987 14.5684C14.2655 14.5684 14.2337 14.5552 14.2103 14.5318C14.1869 14.5083 14.1737 14.4765 14.1737 14.4434ZM13.3987 13.5634C13.3987 13.4984 13.4387 13.4484 13.4887 13.4484C13.5387 13.4484 13.5737 13.4984 13.5737 13.5634C13.5737 13.6234 13.5337 13.6734 13.4887 13.6734C13.4387 13.6734 13.3987 13.6234 13.3987 13.5634Z" fill="#C7B37F" stroke="#C7B37F" stroke-width="0.015"/>
<path d="M13.8386 11.3434C13.8386 11.2934 13.8786 11.2534 13.9236 11.2534C13.9736 11.2534 14.0086 11.2934 14.0086 11.3434C14.0086 11.3934 13.9736 11.4334 13.9236 11.4334C13.8736 11.4334 13.8386 11.3934 13.8386 11.3434ZM15.3736 8.06337C15.3736 8.01337 15.3986 7.96337 15.4436 7.96337C15.4886 7.95837 15.5286 7.99337 15.5336 8.04337C15.5336 8.09337 15.5086 8.14337 15.4636 8.14337C15.4186 8.14837 15.3836 8.11337 15.3736 8.06337Z" fill="#C7B37F"/>
<path d="M13.7419 11.8634C13.7219 11.8684 13.7119 11.8734 13.7019 11.8884C13.6869 11.9034 13.6819 11.9084 13.6719 11.9334L13.6619 11.9934M13.8969 13.3284L13.9469 13.2784L13.9769 13.2284L14.0019 13.1784L14.0369 13.1134M13.9719 13.8134L13.8969 13.8484L13.8419 13.8784C13.8196 13.8908 13.7979 13.9041 13.7769 13.9184L13.7169 13.9684M14.4669 12.0734L14.4269 12.0334L14.3769 11.9934L14.3319 11.9534" stroke="#C7B37F" stroke-width="0.03" stroke-linecap="round"/>
<path d="M14.4871 11.4132L14.4271 11.4382C14.4029 11.447 14.3777 11.452 14.3521 11.4532" stroke="#C7B37F" stroke-width="0.03"/>
<path d="M13.647 10.5833C13.657 10.6133 13.657 10.6333 13.672 10.6583C13.682 10.6933 13.697 10.7133 13.717 10.7433C13.7494 10.7976 13.7939 10.8438 13.847 10.8783L13.922 10.9183M13.872 10.6283L13.937 10.6583C13.9843 10.6787 14.0354 10.6889 14.087 10.6883L14.177 10.6833M14.537 8.64832L14.437 8.58832C14.392 8.56332 14.372 8.54332 14.337 8.51332C14.3167 8.49338 14.2983 8.47162 14.282 8.44832L14.242 8.38332M14.617 8.15332L14.647 8.23832C14.6649 8.27512 14.6885 8.30886 14.717 8.33832C14.767 8.38832 14.802 8.40332 14.857 8.44832M14.927 8.14832C14.942 8.18332 14.942 8.19832 14.962 8.22832C14.972 8.25332 14.982 8.26832 15.002 8.28832L15.067 8.35332C15.102 8.38332 15.127 8.38832 15.167 8.40832" stroke="#C7B37F" stroke-width="0.03" stroke-linecap="round"/>
<path d="M18.4387 7.74332C18.4387 7.65832 18.3537 7.65332 18.3187 7.65332C18.2287 7.65332 18.2037 7.70832 18.0887 7.76832C17.9896 7.83445 17.8729 7.86929 17.7537 7.86832C17.6346 7.86898 17.518 7.83417 17.4187 7.76832C17.3037 7.70832 17.2837 7.65332 17.1887 7.65332C17.1736 7.65396 17.1588 7.65758 17.1451 7.66396C17.1314 7.67034 17.1191 7.67936 17.1088 7.69051C17.0986 7.70165 17.0907 7.71471 17.0855 7.72892C17.0804 7.74313 17.0781 7.75821 17.0787 7.77332V7.81832L17.0937 7.82832C17.0937 7.78832 17.0987 7.76832 17.1187 7.74332C17.1285 7.73142 17.1407 7.72171 17.1545 7.71482C17.1683 7.70793 17.1833 7.70401 17.1987 7.70332C17.2887 7.70332 17.3237 7.76332 17.4387 7.82332C17.5887 7.90332 17.6487 7.91832 17.7737 7.92332C17.8945 7.92498 18.013 7.89013 18.1137 7.82332C18.2287 7.76332 18.2637 7.69832 18.3537 7.69832C18.3837 7.69832 18.4037 7.71832 18.4187 7.74832V7.79332L18.4287 7.79832C18.4287 7.78332 18.4387 7.77832 18.4387 7.74832V7.74332Z" fill="#703D29" stroke="#703D29" stroke-width="0.01"/>
<path d="M14.9905 14.8635C15.0155 14.8385 15.0355 14.8485 15.0405 14.8335C15.0405 14.8235 15.0405 14.8235 15.0255 14.8185L14.9805 14.8085L14.9405 14.7885C14.9355 14.7885 14.9205 14.7785 14.9155 14.7885C14.9105 14.8085 14.9655 14.8085 14.9455 14.8585C14.9363 14.881 14.9227 14.9013 14.9055 14.9185L14.7755 15.0685L14.7655 15.0735V14.8585L14.7705 14.7685C14.7805 14.7485 14.8105 14.7685 14.8155 14.7485C14.8155 14.7435 14.8155 14.7385 14.8005 14.7335C14.7905 14.7335 14.7755 14.7335 14.7455 14.7185L14.6955 14.6935C14.6855 14.6935 14.6705 14.6835 14.6655 14.6935L14.6705 14.7085C14.6905 14.7185 14.6955 14.7285 14.6955 14.7585V15.1285C14.6955 15.1535 14.7005 15.1585 14.7055 15.1635C14.7105 15.1635 14.7155 15.1635 14.7255 15.1485L14.9905 14.8635Z" fill="#703D29"/>
<path d="M15.1454 14.9235C15.1604 14.8685 15.1954 14.9035 15.1954 14.8835C15.2004 14.8735 15.1954 14.8735 15.1854 14.8685L15.1204 14.8485C15.1004 14.8485 15.0804 14.8335 15.0604 14.8285C15.0604 14.8285 15.0454 14.8235 15.0404 14.8285C15.0354 14.8535 15.0954 14.8535 15.0804 14.9035L14.9954 15.1785C14.9804 15.2285 14.9454 15.2085 14.9404 15.2285V15.2335L15.0004 15.2535L15.0804 15.2785H15.0954C15.1054 15.2585 15.0354 15.2635 15.0604 15.1935L15.1454 14.9235ZM15.3304 14.9735C15.3404 14.9435 15.3554 14.9485 15.3754 14.9535C15.4254 14.9685 15.4454 15.0185 15.4254 15.0785C15.4154 15.1085 15.4054 15.1385 15.3254 15.1185C15.3104 15.1135 15.2904 15.1085 15.2954 15.0935L15.3304 14.9785V14.9735ZM15.1904 15.2235C15.1654 15.2935 15.1304 15.2635 15.1254 15.2835C15.1254 15.2935 15.1354 15.2935 15.1404 15.2985L15.2204 15.3185L15.2604 15.3335H15.2804C15.2854 15.3085 15.2304 15.3185 15.2454 15.2585L15.2754 15.1585C15.2804 15.1385 15.2804 15.1335 15.3054 15.1435C15.3354 15.1485 15.3404 15.1585 15.3454 15.1835L15.3604 15.2835C15.3704 15.3285 15.3754 15.3685 15.4104 15.3835C15.4354 15.3835 15.4704 15.3835 15.4804 15.3635L15.4704 15.3535H15.4554C15.4554 15.3535 15.4404 15.3535 15.4404 15.3385L15.4054 15.1585C15.4054 15.1485 15.4254 15.1485 15.4454 15.1435C15.4579 15.1368 15.4688 15.1276 15.4774 15.1164C15.486 15.1052 15.4922 15.0923 15.4954 15.0785C15.5004 15.0535 15.5154 14.9685 15.4054 14.9335L15.3004 14.9085L15.2404 14.8885H15.2254C15.2204 14.9135 15.2804 14.9085 15.2604 14.9735L15.1904 15.2235ZM15.6104 15.3485C15.5904 15.4185 15.5404 15.3735 15.5354 15.3985C15.5354 15.4085 15.5404 15.4135 15.5504 15.4135L15.6254 15.4285L15.6954 15.4485C15.7104 15.4485 15.7204 15.4585 15.7254 15.4435C15.7254 15.4285 15.6604 15.4285 15.6754 15.3535L15.7404 15.0935C15.7404 15.0635 15.7504 15.0635 15.7704 15.0685L15.8204 15.0785C15.8754 15.0935 15.8454 15.1535 15.8704 15.1585C15.8804 15.1585 15.8804 15.1385 15.8804 15.1285L15.8854 15.0785V15.0585L15.7204 15.0235L15.5604 14.9835C15.5554 14.9835 15.5504 14.9835 15.5504 14.9935L15.5254 15.0685C15.5204 15.0735 15.5154 15.0885 15.5254 15.0885C15.5504 15.0935 15.5504 15.0135 15.6104 15.0285L15.6554 15.0385C15.6754 15.0435 15.6804 15.0485 15.6754 15.0785L15.6104 15.3485ZM16.2454 15.1835C16.2654 15.1535 16.2854 15.1585 16.2904 15.1485C16.2904 15.1385 16.2804 15.1385 16.2704 15.1335H16.2254L16.1804 15.1185C16.1754 15.1185 16.1604 15.1135 16.1604 15.1235C16.1554 15.1435 16.2104 15.1335 16.2004 15.1885C16.2004 15.1985 16.1954 15.2185 16.1704 15.2535L16.0704 15.4185L16.0554 15.4285V15.4185L16.0204 15.2185C16.0137 15.189 16.012 15.1586 16.0154 15.1285C16.0154 15.1035 16.0504 15.1185 16.0504 15.1035C16.0504 15.0935 16.0504 15.0935 16.0304 15.0885L15.9754 15.0835C15.9554 15.0835 15.9404 15.0735 15.9254 15.0685C15.9154 15.0685 15.9004 15.0635 15.8954 15.0735L15.9004 15.0835C15.9254 15.0935 15.9304 15.1035 15.9354 15.1285L16.0004 15.4935C16.0054 15.5185 16.0104 15.5285 16.0154 15.5285C16.0204 15.5285 16.0254 15.5285 16.0354 15.5135L16.2454 15.1835ZM16.2754 15.5235C16.2754 15.5385 16.2754 15.5385 16.2854 15.5485C16.3154 15.5585 16.3354 15.5785 16.3704 15.5835C16.4404 15.5935 16.5004 15.5485 16.5104 15.4735C16.5254 15.3985 16.4954 15.3685 16.4404 15.3285C16.3754 15.2835 16.3504 15.2735 16.3554 15.2285C16.3604 15.1935 16.3904 15.1785 16.4254 15.1785C16.5154 15.1935 16.5054 15.3085 16.5154 15.3085C16.5304 15.3085 16.5304 15.3035 16.5304 15.2885L16.5404 15.2085V15.1885H16.5104C16.4904 15.1885 16.4754 15.1635 16.4304 15.1535C16.3704 15.1435 16.3154 15.1885 16.3054 15.2535C16.2954 15.3135 16.3254 15.3435 16.3654 15.3735C16.4454 15.4285 16.4754 15.4435 16.4654 15.4935C16.4604 15.5435 16.4204 15.5635 16.3804 15.5585C16.3204 15.5485 16.3004 15.4885 16.2904 15.4285C16.2904 15.4185 16.2904 15.4135 16.2804 15.4135C16.2704 15.4135 16.2704 15.4285 16.2704 15.4385V15.5235H16.2754ZM17.0654 15.2985C17.0804 15.2635 17.1054 15.2685 17.1054 15.2535C17.1054 15.2435 17.1004 15.2485 17.0854 15.2435H17.0404L16.9954 15.2385C16.9904 15.2385 16.9754 15.2385 16.9754 15.2485C16.9754 15.2685 17.0254 15.2485 17.0254 15.3035C17.0254 15.3135 17.0204 15.3335 17.0004 15.3735L16.9104 15.5485L16.9054 15.5635L16.9004 15.5485L16.8454 15.3485C16.8364 15.3228 16.8314 15.2958 16.8304 15.2685C16.8304 15.2435 16.8654 15.2535 16.8654 15.2385C16.8654 15.2285 16.8654 15.2285 16.8454 15.2285H16.7854L16.7354 15.2185C16.7254 15.2185 16.7104 15.2135 16.7054 15.2235L16.7154 15.2335C16.7354 15.2435 16.7454 15.2485 16.7504 15.2735L16.8554 15.6285L16.8754 15.6635C16.8804 15.6635 16.8854 15.6635 16.8904 15.6435L17.0654 15.2985Z" fill="#703D29"/>
<path d="M17.1506 15.5884C17.1506 15.6484 17.1006 15.6384 17.1006 15.6634C17.1006 15.6734 17.1056 15.6684 17.1156 15.6684H17.2256L17.2456 15.6634C17.2456 15.6334 17.1756 15.6734 17.1756 15.5634V15.3534L17.1806 15.3484L17.1906 15.3534L17.4456 15.6684L17.4606 15.6734L17.4706 15.6584V15.3234C17.4706 15.2584 17.5206 15.2734 17.5206 15.2584C17.5206 15.2584 17.5206 15.2484 17.5056 15.2484H17.3906C17.3806 15.2484 17.3806 15.2534 17.3806 15.2584C17.3806 15.2784 17.4456 15.2684 17.4456 15.3234V15.5234L17.4406 15.5434L17.4206 15.5284L17.2106 15.2634C17.2006 15.2484 17.2056 15.2484 17.1906 15.2484H17.1006L17.0906 15.2534C17.0906 15.2834 17.1506 15.2434 17.1506 15.3584V15.5884ZM17.6706 15.3134C17.6706 15.2584 17.7106 15.2784 17.7106 15.2584C17.7106 15.2534 17.7106 15.2484 17.6906 15.2484H17.5606C17.5606 15.2484 17.5456 15.2484 17.5456 15.2584C17.5456 15.2784 17.6006 15.2584 17.6006 15.3184V15.6034C17.6006 15.6584 17.5606 15.6434 17.5606 15.6634C17.5606 15.6634 17.5606 15.6734 17.5706 15.6734H17.7106C17.7206 15.6734 17.7256 15.6734 17.7256 15.6634C17.7256 15.6434 17.6656 15.6734 17.6656 15.5984L17.6706 15.3134ZM17.8956 15.5884C17.8956 15.6634 17.8356 15.6384 17.8356 15.6584C17.8356 15.6684 17.8456 15.6684 17.8556 15.6684H18.0056C18.0206 15.6684 18.0306 15.6684 18.0306 15.6534C18.0306 15.6384 17.9606 15.6534 17.9606 15.5834V15.3134C17.9606 15.2834 17.9606 15.2834 17.9856 15.2834H18.0356C18.0956 15.2784 18.0756 15.3434 18.1006 15.3434C18.1106 15.3434 18.1056 15.3234 18.1056 15.3134L18.1006 15.2634C18.1006 15.2534 18.1006 15.2434 18.0906 15.2434L17.9256 15.2484H17.7606L17.7506 15.2634L17.7456 15.3434L17.7506 15.3634C17.7756 15.3634 17.7606 15.2834 17.8206 15.2834H17.8656C17.8856 15.2834 17.8906 15.2834 17.8956 15.3134V15.5934V15.5884ZM18.2106 15.4784H18.1906L18.1956 15.4534L18.2306 15.3434V15.3334L18.2406 15.3384L18.2906 15.4434L18.3006 15.4634C18.3006 15.4734 18.2906 15.4734 18.2806 15.4734L18.2106 15.4784ZM18.3006 15.5034C18.3156 15.5034 18.3156 15.5034 18.3406 15.5534L18.3506 15.5934C18.3506 15.6284 18.3156 15.6234 18.3156 15.6434C18.3156 15.6484 18.3256 15.6484 18.3356 15.6434H18.3956L18.4606 15.6384C18.4756 15.6384 18.4806 15.6384 18.4806 15.6284C18.4806 15.6084 18.4506 15.6284 18.4306 15.5934L18.2606 15.2434L18.2456 15.2234C18.2356 15.2234 18.2356 15.2334 18.2306 15.2434L18.1206 15.6134C18.1106 15.6484 18.0806 15.6484 18.0856 15.6634H18.2006C18.2106 15.6584 18.2256 15.6634 18.2256 15.6484C18.2256 15.6334 18.1656 15.6484 18.1606 15.6034L18.1706 15.5534C18.1806 15.5134 18.1906 15.5134 18.2006 15.5134L18.3056 15.5034H18.3006ZM18.7156 15.2534C18.7106 15.2134 18.7156 15.2134 18.7756 15.2034C18.8756 15.1934 18.8456 15.2684 18.8756 15.2634C18.8856 15.2634 18.8756 15.2434 18.8756 15.2334L18.8706 15.1784C18.8706 15.1734 18.8656 15.1684 18.8556 15.1684C18.8056 15.1684 18.7706 15.1784 18.7356 15.1834L18.5956 15.2034C18.5856 15.2034 18.5806 15.2034 18.5806 15.2134C18.5856 15.2384 18.6456 15.2134 18.6506 15.2634L18.6856 15.5384C18.6956 15.6134 18.6506 15.5884 18.6556 15.6134C18.6556 15.6134 18.6556 15.6184 18.6656 15.6134L18.7356 15.6084L18.7956 15.6034C18.8106 15.6034 18.8206 15.6034 18.8206 15.5884C18.8206 15.5734 18.7606 15.5934 18.7506 15.5284L18.7406 15.4434C18.7356 15.4084 18.7356 15.3984 18.7556 15.3934H18.7956C18.8506 15.3834 18.8456 15.4484 18.8606 15.4434C18.8756 15.4434 18.8706 15.4234 18.8656 15.4184L18.8506 15.3134C18.8506 15.2984 18.8406 15.2984 18.8406 15.2984C18.8256 15.2984 18.8356 15.3534 18.7906 15.3584L18.7556 15.3634C18.7306 15.3684 18.7306 15.3634 18.7256 15.3384L18.7156 15.2534ZM18.9156 15.3934C18.9356 15.5084 19.0206 15.5784 19.1256 15.5584C19.2956 15.5234 19.3006 15.3784 19.2856 15.2934C19.2606 15.1684 19.1706 15.1084 19.0656 15.1284C18.9406 15.1534 18.8906 15.2634 18.9156 15.3934ZM18.9706 15.3434C18.9556 15.2634 18.9706 15.1734 19.0556 15.1584C19.1256 15.1434 19.2056 15.1984 19.2256 15.3284C19.2406 15.4284 19.2256 15.5084 19.1356 15.5284C19.0406 15.5484 18.9856 15.4284 18.9706 15.3484V15.3434ZM19.3856 15.1384C19.3806 15.1034 19.3956 15.0984 19.4156 15.0934C19.4656 15.0834 19.5056 15.1184 19.5206 15.1734C19.5306 15.2084 19.5356 15.2434 19.4556 15.2634C19.4406 15.2634 19.4206 15.2684 19.4156 15.2534L19.3906 15.1384H19.3856ZM19.3856 15.4234C19.4056 15.4934 19.3606 15.4884 19.3606 15.5034C19.3656 15.5184 19.3756 15.5134 19.3806 15.5084C19.4106 15.5084 19.4306 15.4934 19.4606 15.4884L19.5106 15.4784C19.5206 15.4784 19.5206 15.4734 19.5206 15.4684C19.5206 15.4484 19.4706 15.4834 19.4556 15.4184L19.4306 15.3184C19.4306 15.2984 19.4206 15.2984 19.4506 15.2934C19.4756 15.2834 19.4856 15.2884 19.5056 15.3084L19.5706 15.3884C19.5956 15.4184 19.6206 15.4534 19.6606 15.4434C19.6856 15.4384 19.7106 15.4184 19.7106 15.3984L19.7006 15.3934L19.6856 15.3984C19.6856 15.3984 19.6706 15.4034 19.6656 15.3984L19.5456 15.2534L19.5706 15.2234C19.5806 15.2034 19.5906 15.1784 19.5806 15.1434C19.5756 15.1184 19.5456 15.0384 19.4306 15.0634L19.3256 15.0934L19.2656 15.1034C19.2556 15.1034 19.2506 15.1084 19.2556 15.1134C19.2556 15.1384 19.3106 15.1034 19.3256 15.1634L19.3856 15.4234ZM19.8206 15.3234C19.8356 15.3934 19.7706 15.3834 19.7756 15.4034C19.7756 15.4184 19.7906 15.4134 19.8006 15.4134L19.8706 15.3884L19.9456 15.3734C19.9606 15.3734 19.9706 15.3734 19.9656 15.3534C19.9656 15.3384 19.9006 15.3734 19.8806 15.3034L19.8156 15.0384C19.8056 15.0134 19.8156 15.0084 19.8306 15.0034L19.8806 14.9934C19.9356 14.9734 19.9356 15.0434 19.9556 15.0384C19.9706 15.0384 19.9556 15.0134 19.9556 15.0034L19.9356 14.9534C19.9356 14.9534 19.9356 14.9384 19.9256 14.9434L19.7656 14.9884L19.6056 15.0234V15.0384L19.6106 15.1184C19.6106 15.1284 19.6106 15.1384 19.6256 15.1384C19.6506 15.1334 19.6106 15.0584 19.6756 15.0434L19.7156 15.0334C19.7356 15.0284 19.7456 15.0334 19.7506 15.0584L19.8206 15.3234ZM20.0956 14.9584C20.0806 14.9084 20.1256 14.9134 20.1156 14.8934H20.1006L20.0306 14.9134L19.9706 14.9284C19.9706 14.9284 19.9556 14.9284 19.9556 14.9384C19.9606 14.9584 20.0156 14.9284 20.0306 14.9784L20.1106 15.2584C20.1206 15.3084 20.0806 15.3084 20.0856 15.3234C20.0856 15.3284 20.0856 15.3334 20.0956 15.3284L20.1506 15.3134L20.2306 15.2934C20.2456 15.2934 20.2456 15.2884 20.2456 15.2784C20.2406 15.2634 20.1906 15.3034 20.1706 15.2334L20.0956 14.9584ZM20.2106 15.0934C20.2456 15.2084 20.3406 15.2634 20.4456 15.2284C20.6056 15.1734 20.5956 15.0234 20.5656 14.9434C20.5256 14.8234 20.4256 14.7784 20.3256 14.8084C20.2056 14.8534 20.1656 14.9684 20.2106 15.0934ZM20.2606 15.0434C20.2306 14.9584 20.2306 14.8684 20.3156 14.8434C20.3806 14.8184 20.4656 14.8634 20.5106 14.9884C20.5406 15.0784 20.5356 15.1684 20.4506 15.1984C20.3606 15.2284 20.2906 15.1234 20.2606 15.0384V15.0434ZM20.6406 14.7684C20.6306 14.7334 20.6406 14.7284 20.6606 14.7184C20.7106 14.7034 20.7606 14.7334 20.7806 14.7884C20.7906 14.8184 20.8006 14.8534 20.7256 14.8834C20.7106 14.8834 20.6906 14.8934 20.6856 14.8834L20.6406 14.7684ZM20.6806 15.0484C20.7106 15.1184 20.6606 15.1184 20.6706 15.1334C20.6706 15.1484 20.6806 15.1384 20.6906 15.1384L20.7656 15.1034L20.8106 15.0934C20.8206 15.0884 20.8206 15.0834 20.8206 15.0784C20.8106 15.0584 20.7706 15.0984 20.7506 15.0384L20.7106 14.9434C20.7006 14.9234 20.7006 14.9184 20.7256 14.9084C20.7506 14.8984 20.7606 14.9034 20.7806 14.9234L20.8606 14.9934C20.8856 15.0184 20.9156 15.0484 20.9606 15.0334C20.9756 15.0234 21.0056 14.9984 20.9956 14.9834L20.9856 14.9784L20.9756 14.9884H20.9506L20.8106 14.8634L20.8306 14.8284C20.8361 14.8158 20.8389 14.8022 20.8389 14.7884C20.8389 14.7747 20.8361 14.761 20.8306 14.7484C20.8256 14.7184 20.7806 14.6484 20.6756 14.6884L20.5756 14.7334L20.5156 14.7534L20.5056 14.7634C20.5156 14.7834 20.5606 14.7434 20.5856 14.8034L20.6856 15.0534L20.6806 15.0484Z" fill="#703D29"/>
<path d="M14.9836 8.94104H17.6108V11.565H14.9836V8.94104Z" fill="#D52B1E"/>
<path d="M16.2157 11.0051C16.2157 11.0051 16.2157 11.1011 16.1901 11.1747C16.1581 11.2611 16.1581 11.2611 16.1293 11.3027C16.0982 11.3535 16.0568 11.3971 16.0077 11.4307C15.9437 11.4691 15.8797 11.4883 15.8157 11.4819C15.6429 11.4691 15.5597 11.2771 15.5213 11.1235C15.4797 10.9603 15.3613 10.8675 15.2813 10.9315C15.2365 10.9635 15.2365 11.0211 15.2717 11.0787C15.3061 11.1203 15.3516 11.1513 15.4029 11.1683L15.3101 11.2867C15.3101 11.2867 15.1085 11.2611 15.0701 11.0499C15.0541 10.9699 15.0925 10.8227 15.2269 10.7779C15.3965 10.7203 15.5021 10.8419 15.5565 10.9443C15.6269 11.0851 15.6589 11.3411 15.8573 11.3027C15.9661 11.2803 16.0173 11.1235 16.0173 11.0499L16.0941 10.9667L16.2125 11.0051H16.2157Z" fill="white"/>
<path d="M16.3788 11.0051C16.3788 11.0051 16.3788 11.1011 16.4044 11.1747C16.4364 11.2611 16.4364 11.2611 16.4652 11.3027C16.4963 11.3535 16.5377 11.3971 16.5868 11.4307C16.6508 11.4691 16.7148 11.4883 16.7788 11.4819C16.9516 11.4691 17.0348 11.2771 17.0732 11.1235C17.1148 10.9603 17.2332 10.8675 17.3132 10.9315C17.358 10.9635 17.358 11.0211 17.3228 11.0787C17.2884 11.1203 17.2429 11.1513 17.1916 11.1683L17.2844 11.2867C17.2844 11.2867 17.486 11.2611 17.5244 11.0499C17.5404 10.9699 17.502 10.8227 17.3676 10.7779C17.198 10.7203 17.0924 10.8419 17.038 10.9443C16.9676 11.0851 16.9356 11.3411 16.7372 11.3027C16.6284 11.2803 16.5772 11.1235 16.5772 11.0499L16.5004 10.9667L16.382 11.0051H16.3788Z" fill="white"/>
<path d="M16.5325 9.89139L16.8781 9.51699C16.8781 9.51699 16.9293 9.47539 16.9293 9.40819L16.8589 9.42099L16.8429 9.38259L16.8397 9.34739L16.9357 9.32499V9.28339L16.9453 9.24179L16.8429 9.24819L16.8525 9.20339L16.8685 9.17139L16.9293 9.15859H16.9901C17.0477 9.04979 17.2845 8.95379 17.4509 9.12659C17.5725 9.25459 17.5469 9.48499 17.3869 9.54899C17.3512 9.56488 17.3116 9.57001 17.2729 9.56376C17.2343 9.55751 17.1983 9.54015 17.1693 9.51379L17.2333 9.38579C17.3197 9.44019 17.3933 9.37619 17.3869 9.30899C17.3805 9.22259 17.3229 9.17139 17.2493 9.16499C17.1757 9.15859 17.1213 9.19699 17.0893 9.26099C17.0701 9.30259 17.0797 9.33139 17.0733 9.37619C17.0669 9.42419 17.0733 9.44979 17.0573 9.49779C17.0417 9.54198 17.0153 9.58158 16.9805 9.61299L16.6285 9.99699L15.2525 11.4818L15.1501 11.3858L16.5325 9.89139Z" fill="#FEDF00"/>
<path d="M15.5212 10.0195C15.5212 10.0195 15.6076 10.4483 15.902 11.0915C16.0524 11.0371 16.1388 11.0019 16.2988 11.0019C16.4556 11.0019 16.542 11.0339 16.6924 11.0915C16.8563 10.7483 16.9839 10.3891 17.0732 10.0195L16.2988 9.02747L15.5212 10.0195Z" fill="white"/>
<path d="M16.3726 9.36023L16.9102 10.0546C16.9102 10.0546 16.8398 10.3906 16.6222 10.8962C16.5358 10.877 16.4622 10.861 16.3726 10.8546V9.36023ZM16.2222 9.36023L15.6846 10.0546C15.6846 10.0546 15.755 10.3906 15.9726 10.8962C16.059 10.877 16.1326 10.861 16.2222 10.8546V9.36023Z" fill="#FEDF00"/>
<path d="M17.8867 8.93835H20.5167V11.5634H17.8867V8.93835Z" fill="#FEDF00"/>
<path d="M18.2568 8.93835H18.6468V11.5634H18.2568V8.93835ZM19.0068 8.93835H19.3968V11.5634H19.0068V8.93835ZM19.7568 8.93835H20.1518V11.5634H19.7568V8.93835Z" fill="#D52B1E"/>
<path d="M14.9905 13.8383C14.9955 13.8883 15.0155 13.9683 15.0605 14.0533C15.1105 14.1283 15.0905 14.1233 15.1955 14.2433C15.2538 14.3021 15.3214 14.3511 15.3955 14.3883C15.6318 14.49 15.8887 14.5345 16.1455 14.5183C16.2805 14.5133 16.3855 14.4983 16.4755 14.4833C16.6577 14.459 16.8416 14.449 17.0255 14.4533C17.1005 14.4533 17.1755 14.4683 17.2605 14.4833C17.4355 14.5183 17.6105 14.5833 17.6105 14.5833V11.8483H14.9805V13.7133L14.9905 13.8333V13.8383Z" fill="#FEDF00"/>
<path d="M15.2954 14.3184L15.4204 14.3934L15.5904 14.4534V11.8434H15.2954V14.3184ZM16.7554 14.4384V11.8434H16.4654V14.4834L16.7554 14.4484V14.4384ZM17.3404 11.8434H17.0504V14.4484C17.1454 14.4584 17.2404 14.4784 17.3404 14.4984V11.8434ZM16.1704 11.8434V14.5134C16.1704 14.5134 15.9804 14.5234 15.8804 14.5134V11.8434H16.1704Z" fill="#D52B1E" stroke="#D52B1E" stroke-width="0.015"/>
<path d="M20.5075 13.8402C20.4961 13.914 20.4723 13.9854 20.4371 14.0514C20.3891 14.125 20.4051 14.125 20.2995 14.2434C20.1851 14.3562 20.0407 14.434 19.8835 14.4674C19.7104 14.513 19.531 14.5303 19.3523 14.5186C19.2147 14.5122 19.1123 14.4962 19.0227 14.4866C18.9011 14.4674 18.8083 14.4578 18.6707 14.4546C18.6046 14.4513 18.5384 14.4513 18.4723 14.4546C18.2727 14.4772 18.0762 14.5223 17.8867 14.589V11.8434H20.5171V13.7154L20.5075 13.8402Z" fill="#FEDF00"/>
<path d="M18.5587 12.0674L18.5395 12.0738L18.5139 12.0994C18.5011 12.1122 18.4915 12.1154 18.4755 12.125L18.4563 12.141C18.4467 12.1506 18.4563 12.1602 18.4467 12.173C18.4435 12.1858 18.4371 12.1922 18.4275 12.205C18.4147 12.2178 18.4051 12.221 18.3955 12.237L18.3571 12.269L18.3475 12.2722H18.3283C18.3155 12.2786 18.3123 12.2914 18.3027 12.2978L18.3123 12.317L18.3379 12.3618C18.3443 12.3714 18.3443 12.3842 18.3539 12.3874C18.3699 12.3938 18.3827 12.3938 18.3955 12.3906C18.4211 12.397 18.4371 12.397 18.4595 12.4066L18.5075 12.4322C18.5235 12.4418 18.5331 12.445 18.5491 12.4482H18.6067V12.4578L18.6707 12.4898C18.6692 12.494 18.6681 12.4983 18.6675 12.5026C18.6643 12.5122 18.6611 12.525 18.6643 12.5282C18.6835 12.589 18.7027 12.6242 18.7123 12.6306C18.7315 12.637 18.7379 12.6594 18.7475 12.6786L18.7379 12.6882C18.7187 12.7074 18.6995 12.7202 18.6835 12.7458C18.6611 12.7842 18.6451 12.7842 18.6739 12.8354L18.7219 12.9122C18.7347 12.9346 18.7411 12.9506 18.7475 12.9762C18.7539 12.9986 18.7571 13.0146 18.7571 13.0402L18.7891 13.0498L18.8115 13.0306L18.8307 12.9922V12.9602C18.8243 12.957 18.8211 12.9474 18.8243 12.9378C18.8243 12.925 18.8403 12.9282 18.8467 12.9186C18.8563 12.9026 18.8339 12.893 18.8243 12.8834C18.8051 12.861 18.7795 12.8546 18.7731 12.8226C18.7731 12.8162 18.7731 12.8098 18.7859 12.8002L18.8499 12.7426C18.8563 12.7458 18.8691 12.749 18.8819 12.7458L18.9235 12.7586C18.9427 12.765 18.9523 12.7586 18.9619 12.7586H18.9747L18.9779 12.7778C18.9811 12.8098 18.9747 12.8738 18.9843 12.8898L18.9939 12.909L19.0003 12.9282V12.9922L18.9939 13.0466C18.9939 13.0594 18.9875 13.069 18.9779 13.0786C18.9715 13.0914 18.9587 13.0914 18.9459 13.101V13.133L18.9811 13.149L19.0227 13.1586L19.0451 13.149L19.0483 13.1298L19.0643 13.1138C19.0771 13.1074 19.0899 13.1138 19.0931 13.1106C19.0995 13.101 19.0931 13.0978 19.0931 13.085C19.0931 13.0658 19.0867 13.053 19.0835 13.0338C19.0789 13.0042 19.0778 12.9741 19.0803 12.9442C19.0803 12.925 19.0803 12.9122 19.0867 12.8962C19.0899 12.8642 19.0995 12.8514 19.1059 12.8258C19.1155 12.7938 19.1155 12.7746 19.1187 12.7458C19.2266 12.7621 19.3367 12.7555 19.4419 12.7266C19.4675 12.749 19.4963 12.765 19.5283 12.7778V12.8098C19.5283 12.8194 19.5283 12.8226 19.5347 12.8322L19.5443 12.8418C19.5539 12.8418 19.5603 12.8418 19.5667 12.8354C19.5731 12.829 19.5731 12.8226 19.5731 12.813V12.7906H19.6307V12.8258C19.6339 12.8354 19.6403 12.8386 19.6467 12.8386C19.6497 12.8401 19.653 12.8408 19.6563 12.8408C19.6597 12.8408 19.6629 12.8401 19.6659 12.8386C19.6755 12.8322 19.6723 12.8194 19.6755 12.8066V12.7842L19.7075 12.7714C19.7084 12.781 19.7084 12.7907 19.7075 12.8002L19.6979 12.829C19.6915 12.8482 19.6819 12.8546 19.6723 12.8738C19.6595 12.893 19.6563 12.9058 19.6403 12.9218L19.6211 12.9442L19.6019 12.973L19.5731 13.005C19.5507 13.0242 19.5347 13.0114 19.5091 13.0338L19.4995 13.0658L19.5443 13.085L19.5859 13.0914L19.5987 13.085C19.5987 13.0754 19.5987 13.0658 19.6083 13.0594C19.6147 13.0498 19.6211 13.0498 19.6307 13.0466C19.6435 13.0466 19.6563 13.0466 19.6627 13.0402C19.6755 13.0306 19.6755 13.0082 19.6851 12.9922C19.7087 12.9448 19.7413 12.9024 19.7811 12.8674L19.8355 12.8226C19.8419 12.8098 19.8515 12.8066 19.8515 12.7906L19.8451 12.7714L19.8387 12.7394C19.8867 12.7618 19.8707 12.7618 19.8771 12.7842C19.8867 12.8034 19.8771 12.8162 19.8803 12.8386C19.8835 12.8642 19.8963 12.8738 19.8963 12.8994C19.8995 12.9282 19.8931 12.9442 19.8867 12.973C19.8835 12.9986 19.8835 13.0146 19.8707 13.037C19.8632 13.0557 19.8511 13.0722 19.8355 13.085L19.8163 13.101L19.8131 13.133L19.8483 13.1458L19.8995 13.1586L19.9123 13.149C19.9187 13.1266 19.9123 13.0946 19.9251 13.0946C19.9379 13.0914 19.9475 13.0946 19.9507 13.085V13.0626L19.9731 12.9186L19.9859 12.8578L19.9987 12.8034C20.0211 12.7394 19.9923 12.7298 19.9667 12.6882C19.9507 12.6658 19.9443 12.6562 19.9443 12.6402V12.5474C19.9434 12.5176 19.9434 12.4877 19.9443 12.4578L19.9571 12.4514C19.9955 12.429 20.0115 12.4226 20.0339 12.3714C20.0407 12.3564 20.044 12.34 20.0435 12.3234V12.2914L20.0307 12.2594C20.0257 12.2499 20.0192 12.2413 20.0115 12.2338C19.9891 12.2018 19.9571 12.1986 19.9251 12.1858C19.8771 12.1698 19.8451 12.173 19.7971 12.1698C19.7395 12.1634 19.7107 12.1634 19.6563 12.1698C19.5923 12.1698 19.5571 12.1826 19.4931 12.1922L19.3363 12.205C19.2627 12.205 19.1955 12.189 19.1507 12.1922C19.0739 12.1986 19.0707 12.2178 18.9523 12.2274C18.9119 12.2307 18.8713 12.2329 18.8307 12.2338L18.7603 12.2114C18.7891 12.2018 18.7955 12.1954 18.8083 12.1794C18.8179 12.1666 18.8147 12.157 18.8275 12.1442L18.8499 12.1122C18.8414 12.1058 18.8316 12.1015 18.8211 12.0994H18.7891C18.7758 12.0999 18.7627 12.1032 18.7507 12.109L18.7251 12.1282L18.6547 12.0898C18.6247 12.0746 18.5922 12.0648 18.5587 12.061V12.0674Z" fill="#D52B1E"/>
<path d="M19.9691 12.4675L19.9435 12.4771C19.9147 12.4899 19.8923 12.4899 19.8603 12.4931C19.7771 12.4995 19.7227 12.4579 19.6363 12.4643C19.5915 12.4675 19.5723 12.5027 19.5243 12.5155C19.5064 12.5193 19.4882 12.5214 19.4699 12.5219L19.4859 12.4899C19.4859 12.4899 19.4475 12.4995 19.4219 12.4995C19.4047 12.4992 19.3875 12.497 19.3707 12.4931L19.4027 12.4611L19.3611 12.4547C19.3494 12.4489 19.3386 12.4413 19.3291 12.4323C19.3474 12.4298 19.3655 12.4266 19.3835 12.4227C19.4315 12.4099 19.4475 12.3843 19.5083 12.3779C19.5435 12.3779 19.6043 12.3779 19.7515 12.4035C19.8475 12.4195 19.8923 12.4099 19.9275 12.3939C19.9531 12.3843 19.9595 12.3619 19.9627 12.3363C19.9659 12.3107 19.9499 12.2915 19.9371 12.2787C19.9339 12.2787 19.9211 12.2691 19.9019 12.2659" stroke="#FEDF00" stroke-width="0.032" stroke-linecap="round"/>
<path d="M18.5611 12.1826C18.5451 12.1826 18.5323 12.1826 18.5195 12.1922C18.5035 12.2018 18.5003 12.2146 18.4875 12.2274C18.5035 12.2306 18.5131 12.2402 18.5259 12.237C18.5387 12.237 18.5419 12.2306 18.5515 12.221C18.5611 12.2082 18.5643 12.1986 18.5643 12.1826H18.5611Z" fill="#FCD900" stroke="#FEDF00" stroke-width="0.016"/>
<path d="M18.9196 12.605C18.928 12.6305 18.9387 12.6551 18.9516 12.6786C18.958 12.7042 18.9516 12.717 18.958 12.7426V12.7938M19.1756 12.5698L19.166 12.6114L19.134 12.7234V12.7458M18.782 12.6178C18.8108 12.6242 18.8012 12.7234 18.8428 12.7458" stroke="#FEDF00" stroke-width="0.032" stroke-linecap="round"/>
<path d="M19.6907 12.7969L19.7035 12.7873C19.7358 12.7741 19.7652 12.7545 19.7899 12.7297" stroke="#FEDF00" stroke-width="0.032"/>
<path d="M19.4443 12.7394C19.5563 12.7106 19.6331 12.6562 19.6875 12.6466M19.5595 12.5986H19.5851C19.6331 12.589 19.6395 12.6178 19.6715 12.637C19.7323 12.669 19.7387 12.7106 19.8091 12.7458L19.8219 12.749L19.8475 12.7618" stroke="#FEDF00" stroke-width="0.032" stroke-linecap="round"/>
<path d="M18.334 12.3074H18.3564L18.382 12.301C18.3916 12.301 18.398 12.301 18.4044 12.3074C18.4108 12.3074 18.4108 12.3106 18.414 12.317C18.414 12.3234 18.4204 12.3266 18.4172 12.333C18.4172 12.3394 18.4076 12.3458 18.398 12.3458C18.3916 12.3458 18.3852 12.3458 18.382 12.3362C18.3811 12.3342 18.3806 12.332 18.3806 12.3298C18.3806 12.3276 18.3811 12.3254 18.382 12.3234C18.3775 12.3257 18.3726 12.3268 18.3676 12.3268C18.3626 12.3268 18.3577 12.3257 18.3532 12.3234C18.3491 12.3222 18.3453 12.3201 18.342 12.3174C18.3387 12.3146 18.3359 12.3112 18.334 12.3074Z" fill="#FCD900" stroke="#FEDF00" stroke-width="0.016"/>
<path d="M18.5746 12.6179L18.5106 12.5891C18.5234 12.5827 18.533 12.5827 18.5426 12.5731C18.5522 12.5603 18.5522 12.5475 18.5586 12.5315C18.565 12.5155 18.565 12.4995 18.581 12.4867C18.5906 12.4803 18.6066 12.4803 18.6162 12.4835C18.629 12.4835 18.6418 12.4963 18.645 12.5059C18.645 12.5251 18.6386 12.5379 18.6354 12.5539C18.6354 12.5731 18.6258 12.5827 18.629 12.5987C18.629 12.6115 18.6354 12.6179 18.6418 12.6307L18.5778 12.6179H18.5746ZM18.5426 12.6499C18.5421 12.6461 18.5426 12.6423 18.5442 12.6389C18.5458 12.6355 18.5484 12.6326 18.5516 12.6306C18.5548 12.6286 18.5585 12.6276 18.5623 12.6278C18.5661 12.6279 18.5697 12.6292 18.5728 12.6313C18.5758 12.6335 18.5782 12.6366 18.5796 12.6401C18.5809 12.6436 18.5812 12.6475 18.5804 12.6512C18.5795 12.6549 18.5776 12.6582 18.5749 12.6608C18.5722 12.6634 18.5688 12.6652 18.565 12.6659C18.5623 12.6663 18.5594 12.6662 18.5567 12.6654C18.554 12.6647 18.5515 12.6633 18.5493 12.6615C18.5472 12.6597 18.5455 12.6574 18.5443 12.6548C18.5432 12.6523 18.5426 12.6495 18.5426 12.6467V12.6499ZM18.4882 12.1187H18.4818C18.469 12.1059 18.469 12.0931 18.4626 12.0803C18.4575 12.068 18.4542 12.0551 18.453 12.0419V11.9779C18.453 11.9683 18.453 11.9587 18.4466 11.9491C18.4466 11.9427 18.4338 11.9395 18.437 11.9363C18.437 11.9331 18.4466 11.9363 18.4498 11.9363C18.4626 11.9363 18.469 11.9395 18.4818 11.9491C18.4914 11.9587 18.4978 11.9683 18.501 11.9811L18.5138 12.0291L18.5234 12.0547L18.5394 12.0739L18.517 12.0995L18.4882 12.1187ZM18.6034 12.4579L18.6738 12.4899C18.722 12.4609 18.7609 12.4187 18.7858 12.3683C18.8146 12.3107 18.8178 12.2819 18.8306 12.2275L18.773 12.2115H18.7602C18.7442 12.2691 18.7378 12.2979 18.709 12.3459C18.6834 12.3875 18.6546 12.4195 18.6258 12.4419L18.6034 12.4579ZM18.7634 13.0403L18.789 12.9987L18.8338 12.9635H18.8466C18.8463 12.994 18.8408 13.0243 18.8306 13.0531L18.8178 13.0851L18.8018 13.1011C18.7858 13.0755 18.7602 13.0595 18.7602 13.0371L18.7634 13.0403ZM19.8194 13.0979L19.8642 13.1171L19.9122 13.1459V13.1619L19.8642 13.1683C19.8504 13.1693 19.8365 13.1693 19.8226 13.1683H19.7906L19.7714 13.1555C19.7874 13.1331 19.797 13.1043 19.8162 13.0979H19.8194ZM19.5058 13.0339L19.5506 13.0499L19.5986 13.0819C19.5986 13.0851 19.6018 13.0915 19.5986 13.0947C19.5705 13.1022 19.5414 13.1055 19.5122 13.1043L19.4802 13.1011L19.4578 13.0915C19.477 13.0691 19.4866 13.0371 19.5058 13.0339ZM18.949 13.1011L18.997 13.1171L19.045 13.1491V13.1651C19.0157 13.1719 18.9855 13.174 18.9554 13.1715H18.9234L18.9042 13.1587C18.9202 13.1363 18.9298 13.1075 18.949 13.1011ZM18.661 12.1475C18.6418 12.1379 18.629 12.1155 18.6418 12.0963C18.645 12.0899 18.6546 12.0899 18.661 12.0835C18.6674 12.0739 18.6642 12.0675 18.661 12.0579L18.6578 12.0259L18.6514 11.9939C18.6514 11.9747 18.6514 11.9619 18.6642 11.9427C18.6706 11.9331 18.6866 11.9235 18.6898 11.9235C18.6962 11.9267 18.6898 11.9395 18.6898 11.9491C18.6898 11.9651 18.693 11.9715 18.6994 11.9875L18.7218 12.0291C18.7282 12.0483 18.7346 12.0547 18.7346 12.0739C18.7346 12.0899 18.7346 12.0963 18.7282 12.1123C18.7241 12.1223 18.7175 12.1311 18.709 12.1379C18.7016 12.144 18.6928 12.1484 18.6834 12.1507C18.6772 12.1524 18.6705 12.1524 18.6642 12.1507L18.661 12.1475Z" fill="#0065BD"/>
<path d="M18.5587 13.2386L18.5395 13.245L18.5139 13.2706C18.5011 13.2834 18.4915 13.2866 18.4755 13.2962L18.4563 13.3122C18.4467 13.3218 18.4563 13.3314 18.4467 13.3442C18.4435 13.357 18.4371 13.3634 18.4275 13.3762C18.4147 13.389 18.4051 13.3922 18.3955 13.4082L18.3571 13.4402L18.3475 13.4434H18.3283C18.3155 13.4498 18.3123 13.4626 18.3027 13.469L18.3123 13.4882L18.3379 13.533C18.3443 13.5426 18.3443 13.5554 18.3539 13.5586C18.3699 13.565 18.3827 13.565 18.3955 13.5618C18.4211 13.5682 18.4371 13.5682 18.4595 13.5778L18.5075 13.6034C18.5235 13.613 18.5331 13.6162 18.5491 13.6194H18.6067V13.629L18.6707 13.661C18.6692 13.6651 18.6681 13.6694 18.6675 13.6738C18.6643 13.6834 18.6611 13.6962 18.6643 13.6994C18.6835 13.7602 18.7027 13.7954 18.7123 13.8018C18.7315 13.8082 18.7379 13.8306 18.7475 13.8498L18.7379 13.8594C18.7187 13.8786 18.6995 13.8914 18.6835 13.917C18.6611 13.9554 18.6451 13.9554 18.6739 14.0066L18.7219 14.0834C18.7347 14.1058 18.7411 14.1218 18.7475 14.1474C18.7539 14.1698 18.7571 14.1858 18.7571 14.2114L18.7891 14.221L18.8115 14.2018L18.8307 14.1634V14.1314C18.8243 14.1282 18.8211 14.1186 18.8243 14.109C18.8243 14.0962 18.8403 14.0994 18.8467 14.0898C18.8563 14.0738 18.8339 14.0642 18.8243 14.0546C18.8051 14.0322 18.7795 14.0258 18.7731 13.9938C18.7731 13.9874 18.7731 13.981 18.7859 13.9714L18.8499 13.9138C18.8563 13.917 18.8691 13.9202 18.8819 13.917L18.9235 13.9298C18.9427 13.9362 18.9523 13.9298 18.9619 13.9298H18.9747L18.9779 13.949C18.9811 13.981 18.9747 14.045 18.9843 14.061L18.9939 14.0802L19.0003 14.0994V14.1634L18.9939 14.2178C18.9939 14.2306 18.9875 14.2402 18.9779 14.2498C18.9715 14.2626 18.9587 14.2626 18.9459 14.2722V14.3042L18.9811 14.3202L19.0227 14.3298L19.0451 14.3202L19.0483 14.301L19.0643 14.285C19.0771 14.2786 19.0899 14.285 19.0931 14.2818C19.0995 14.2722 19.0931 14.269 19.0931 14.2562C19.0931 14.237 19.0867 14.2242 19.0835 14.205C19.0789 14.1753 19.0778 14.1453 19.0803 14.1154C19.0803 14.0962 19.0803 14.0834 19.0867 14.0674C19.0899 14.0354 19.0995 14.0226 19.1059 13.997C19.1155 13.965 19.1155 13.9458 19.1187 13.917C19.2266 13.9332 19.3367 13.9267 19.4419 13.8978C19.4675 13.9202 19.4963 13.9362 19.5283 13.949V13.981C19.5283 13.9906 19.5283 13.9938 19.5347 14.0034L19.5443 14.013C19.5539 14.013 19.5603 14.013 19.5667 14.0066C19.5731 14.0002 19.5731 13.9938 19.5731 13.9842V13.9618H19.6307V13.997C19.6339 14.0066 19.6403 14.0098 19.6467 14.0098C19.6497 14.0112 19.653 14.0119 19.6563 14.0119C19.6597 14.0119 19.6629 14.0112 19.6659 14.0098C19.6755 14.0034 19.6723 13.9906 19.6755 13.9778V13.9554L19.7075 13.9426C19.7084 13.9522 19.7084 13.9618 19.7075 13.9714L19.6979 14.0002C19.6915 14.0194 19.6819 14.0258 19.6723 14.045C19.6595 14.0642 19.6563 14.077 19.6403 14.093L19.6211 14.1154L19.6019 14.1442L19.5731 14.1762C19.5507 14.1954 19.5347 14.1826 19.5091 14.205L19.4995 14.237L19.5443 14.2562L19.5859 14.2626L19.5987 14.2562C19.5987 14.2466 19.5987 14.237 19.6083 14.2306C19.6147 14.221 19.6211 14.221 19.6307 14.2178C19.6435 14.2178 19.6563 14.2178 19.6627 14.2114C19.6755 14.2018 19.6755 14.1794 19.6851 14.1634C19.7087 14.1159 19.7413 14.0735 19.7811 14.0386L19.8355 13.9938C19.8419 13.981 19.8515 13.9778 19.8515 13.9618L19.8451 13.9426L19.8387 13.9106C19.8867 13.933 19.8707 13.933 19.8771 13.9554C19.8867 13.9746 19.8771 13.9874 19.8803 14.0098C19.8835 14.0354 19.8963 14.045 19.8963 14.0706C19.8995 14.0994 19.8931 14.1154 19.8867 14.1442C19.8835 14.1698 19.8835 14.1858 19.8707 14.2082C19.8632 14.2268 19.8511 14.2433 19.8355 14.2562L19.8163 14.2722L19.8131 14.3042L19.8483 14.317L19.8995 14.3298L19.9123 14.3202C19.9187 14.2978 19.9123 14.2658 19.9251 14.2658C19.9379 14.2626 19.9475 14.2658 19.9507 14.2562V14.2338L19.9731 14.0898L19.9859 14.029L19.9987 13.9746C20.0211 13.9106 19.9923 13.901 19.9667 13.8594C19.9507 13.837 19.9443 13.8274 19.9443 13.8114V13.7186C19.9434 13.6887 19.9434 13.6588 19.9443 13.629L19.9571 13.6226C19.9955 13.6002 20.0115 13.5938 20.0339 13.5426C20.0407 13.5275 20.044 13.5111 20.0435 13.4946V13.4626L20.0307 13.4306C20.0257 13.4211 20.0192 13.4125 20.0115 13.405C19.9891 13.373 19.9571 13.3698 19.9251 13.357C19.8771 13.341 19.8451 13.3442 19.7971 13.341C19.7395 13.3346 19.7107 13.3346 19.6563 13.341C19.5923 13.341 19.5571 13.3538 19.4931 13.3634L19.3363 13.3762C19.2627 13.3762 19.1955 13.3602 19.1507 13.3634C19.0739 13.3698 19.0707 13.389 18.9523 13.3986C18.9119 13.4019 18.8713 13.404 18.8307 13.405L18.7603 13.3826C18.7891 13.373 18.7955 13.3666 18.8083 13.3506C18.8179 13.3378 18.8147 13.3282 18.8275 13.3154L18.8499 13.2834C18.8414 13.277 18.8316 13.2726 18.8211 13.2706H18.7891C18.7758 13.2711 18.7627 13.2743 18.7507 13.2802L18.7251 13.2994L18.6547 13.261C18.6247 13.2457 18.5922 13.236 18.5587 13.2322V13.2386Z" fill="#D52B1E"/>
<path d="M19.9691 13.6386L19.9435 13.6482C19.9147 13.661 19.8923 13.661 19.8603 13.6642C19.7771 13.6706 19.7227 13.629 19.6363 13.6354C19.5915 13.6386 19.5723 13.6738 19.5243 13.6866C19.5064 13.6904 19.4882 13.6926 19.4699 13.693L19.4859 13.661C19.4859 13.661 19.4475 13.6706 19.4219 13.6706C19.4047 13.6703 19.3875 13.6682 19.3707 13.6642L19.4027 13.6322L19.3611 13.6258C19.3494 13.62 19.3386 13.6125 19.3291 13.6034C19.3474 13.601 19.3655 13.5978 19.3835 13.5938C19.4315 13.581 19.4475 13.5554 19.5083 13.549C19.5435 13.549 19.6043 13.549 19.7515 13.5746C19.8475 13.5906 19.8923 13.581 19.9275 13.565C19.9531 13.5554 19.9595 13.533 19.9627 13.5074C19.9659 13.4818 19.9499 13.4626 19.9371 13.4498C19.9339 13.4498 19.9211 13.4402 19.9019 13.437" stroke="#FEDF00" stroke-width="0.032" stroke-linecap="round"/>
<path d="M18.5611 13.3538C18.5451 13.3538 18.5323 13.3538 18.5195 13.3634C18.5035 13.373 18.5003 13.3858 18.4875 13.3986C18.5035 13.4018 18.5131 13.4114 18.5259 13.4082C18.5387 13.4082 18.5419 13.4018 18.5515 13.3922C18.5611 13.3794 18.5643 13.3698 18.5643 13.3538H18.5611Z" fill="#FCD900" stroke="#FEDF00" stroke-width="0.016"/>
<path d="M18.9196 13.7762C18.928 13.8016 18.9387 13.8263 18.9516 13.8498C18.958 13.8754 18.9516 13.8882 18.958 13.9138V13.965M19.1756 13.741L19.166 13.7826L19.134 13.8946V13.917M18.782 13.789C18.8108 13.7954 18.8012 13.8946 18.8428 13.917" stroke="#FEDF00" stroke-width="0.032" stroke-linecap="round"/>
<path d="M19.6907 13.9681L19.7035 13.9585C19.7358 13.9452 19.7652 13.9256 19.7899 13.9009" stroke="#FEDF00" stroke-width="0.032"/>
<path d="M19.4443 13.9105C19.5563 13.8817 19.6331 13.8273 19.6875 13.8177M19.5595 13.7697H19.5851C19.6331 13.7601 19.6395 13.7889 19.6715 13.8081C19.7323 13.8401 19.7387 13.8817 19.8091 13.9169L19.8219 13.9201L19.8475 13.9329" stroke="#FEDF00" stroke-width="0.032" stroke-linecap="round"/>
<path d="M18.334 13.4786H18.3564L18.382 13.4722C18.3916 13.4722 18.398 13.4722 18.4044 13.4786C18.4108 13.4786 18.4108 13.4818 18.414 13.4882C18.414 13.4946 18.4204 13.4978 18.4172 13.5042C18.4172 13.5106 18.4076 13.517 18.398 13.517C18.3916 13.517 18.3852 13.517 18.382 13.5074C18.3811 13.5053 18.3806 13.5032 18.3806 13.501C18.3806 13.4988 18.3811 13.4966 18.382 13.4946C18.3775 13.4968 18.3726 13.498 18.3676 13.498C18.3626 13.498 18.3577 13.4968 18.3532 13.4946C18.3491 13.4933 18.3453 13.4913 18.342 13.4885C18.3387 13.4858 18.3359 13.4824 18.334 13.4786Z" fill="#FCD900" stroke="#FEDF00" stroke-width="0.016"/>
<path d="M18.5746 13.789L18.5106 13.7602C18.5234 13.7538 18.533 13.7538 18.5426 13.7442C18.5522 13.7314 18.5522 13.7186 18.5586 13.7026C18.565 13.6866 18.565 13.6706 18.581 13.6578C18.5906 13.6514 18.6066 13.6514 18.6162 13.6546C18.629 13.6546 18.6418 13.6674 18.645 13.677C18.645 13.6962 18.6386 13.709 18.6354 13.725C18.6354 13.7442 18.6258 13.7538 18.629 13.7698C18.629 13.7826 18.6354 13.789 18.6418 13.8018L18.5778 13.789H18.5746ZM18.5426 13.821C18.5421 13.8173 18.5426 13.8135 18.5442 13.81C18.5458 13.8066 18.5484 13.8037 18.5516 13.8018C18.5548 13.7998 18.5585 13.7988 18.5623 13.7989C18.5661 13.7991 18.5697 13.8003 18.5728 13.8025C18.5758 13.8047 18.5782 13.8077 18.5796 13.8113C18.5809 13.8148 18.5812 13.8186 18.5804 13.8223C18.5795 13.826 18.5776 13.8294 18.5749 13.832C18.5722 13.8346 18.5688 13.8363 18.565 13.837C18.5623 13.8375 18.5594 13.8373 18.5567 13.8366C18.554 13.8358 18.5515 13.8345 18.5493 13.8327C18.5472 13.8308 18.5455 13.8285 18.5443 13.826C18.5432 13.8234 18.5426 13.8206 18.5426 13.8178V13.821ZM18.4882 13.2898H18.4818C18.469 13.277 18.469 13.2642 18.4626 13.2514C18.4575 13.2392 18.4542 13.2262 18.453 13.213V13.149C18.453 13.1394 18.453 13.1298 18.4466 13.1202C18.4466 13.1138 18.4338 13.1106 18.437 13.1074C18.437 13.1042 18.4466 13.1074 18.4498 13.1074C18.4626 13.1074 18.469 13.1106 18.4818 13.1202C18.4914 13.1298 18.4978 13.1394 18.501 13.1522L18.5138 13.2002L18.5234 13.2258L18.5394 13.245L18.517 13.2706L18.4882 13.2898ZM18.6034 13.629L18.6738 13.661C18.722 13.632 18.7609 13.5898 18.7858 13.5394C18.8146 13.4818 18.8178 13.453 18.8306 13.3986L18.773 13.3826H18.7602C18.7442 13.4402 18.7378 13.469 18.709 13.517C18.6834 13.5586 18.6546 13.5906 18.6258 13.613L18.6034 13.629ZM18.7634 14.2114L18.789 14.1698L18.8338 14.1346H18.8466C18.8463 14.1651 18.8408 14.1954 18.8306 14.2242L18.8178 14.2562L18.8018 14.2722C18.7858 14.2466 18.7602 14.2306 18.7602 14.2082L18.7634 14.2114ZM19.8194 14.269L19.8642 14.2882L19.9122 14.317V14.333L19.8642 14.3394C19.8504 14.3405 19.8365 14.3405 19.8226 14.3394H19.7906L19.7714 14.3266C19.7874 14.3042 19.797 14.2754 19.8162 14.269H19.8194ZM19.5058 14.205L19.5506 14.221L19.5986 14.253C19.5986 14.2562 19.6018 14.2626 19.5986 14.2658C19.5705 14.2734 19.5414 14.2766 19.5122 14.2754L19.4802 14.2722L19.4578 14.2626C19.477 14.2402 19.4866 14.2082 19.5058 14.205ZM18.949 14.2722L18.997 14.2882L19.045 14.3202V14.3362C19.0157 14.343 18.9855 14.3452 18.9554 14.3426H18.9234L18.9042 14.3298C18.9202 14.3074 18.9298 14.2786 18.949 14.2722ZM18.661 13.3186C18.6418 13.309 18.629 13.2866 18.6418 13.2674C18.645 13.261 18.6546 13.261 18.661 13.2546C18.6674 13.245 18.6642 13.2386 18.661 13.229L18.6578 13.197L18.6514 13.165C18.6514 13.1458 18.6514 13.133 18.6642 13.1138C18.6706 13.1042 18.6866 13.0946 18.6898 13.0946C18.6962 13.0978 18.6898 13.1106 18.6898 13.1202C18.6898 13.1362 18.693 13.1426 18.6994 13.1586L18.7218 13.2002C18.7282 13.2194 18.7346 13.2258 18.7346 13.245C18.7346 13.261 18.7346 13.2674 18.7282 13.2834C18.7241 13.2934 18.7175 13.3022 18.709 13.309C18.7016 13.3151 18.6928 13.3195 18.6834 13.3218C18.6772 13.3236 18.6705 13.3236 18.6642 13.3218L18.661 13.3186Z" fill="#0065BD"/>
<path d="M14.9785 8.93835H17.6085V11.5634H14.9785V8.93835ZM17.8885 8.93835H20.5185V11.5634H17.8885V8.93835ZM14.9885 13.8384C14.9935 13.8884 15.0135 13.9684 15.0585 14.0534C15.1085 14.1284 15.0885 14.1234 15.1935 14.2434C15.2519 14.3022 15.3194 14.3512 15.3935 14.3884C15.6298 14.4901 15.8868 14.5346 16.1435 14.5184C16.2785 14.5134 16.3835 14.4984 16.4735 14.4834C16.6558 14.4591 16.8397 14.4491 17.0235 14.4534C17.0985 14.4534 17.1735 14.4684 17.2585 14.4834C17.4335 14.5184 17.6085 14.5834 17.6085 14.5834V11.8484H14.9785V13.7134L14.9885 13.8334V13.8384ZM20.5085 13.8384C20.4979 13.9136 20.4742 13.9863 20.4385 14.0534C20.3885 14.1284 20.4085 14.1234 20.3035 14.2434C20.2451 14.3021 20.1776 14.3511 20.1035 14.3884C20.0385 14.4234 19.9885 14.4384 19.8835 14.4684C19.7108 14.514 19.5317 14.5308 19.3535 14.5184C19.2185 14.5134 19.1135 14.4934 19.0285 14.4834C18.9091 14.4673 18.7889 14.4572 18.6685 14.4534C18.6036 14.4502 18.5385 14.4502 18.4735 14.4534C18.3985 14.4534 18.3235 14.4684 18.2385 14.4834C18.0635 14.5184 17.8885 14.5834 17.8885 14.5834V11.8434H20.5235V13.7184L20.5135 13.8384H20.5085Z" stroke="#703D29" stroke-width="0.025"/>
</g>
<defs>
<clipPath id="clip0_11930_67671">
<rect width="36" height="24" rx="2" fill="white"/>
</clipPath>
</defs>
</svg>
