<svg width="36" height="24" viewBox="0 0 36 24" fill="none" xmlns="http://www.w3.org/2000/svg">
<g clip-path="url(#clip0_11930_67678)">
<path fill-rule="evenodd" clip-rule="evenodd" d="M0 0H36V24H0V0Z" fill="#000001"/>
<path fill-rule="evenodd" clip-rule="evenodd" d="M24.002 0H36.0001V24H24.002V0Z" fill="#009900"/>
<path fill-rule="evenodd" clip-rule="evenodd" d="M11.998 0H24.0018V24H11.998V0Z" fill="#BF0000"/>
<path fill-rule="evenodd" clip-rule="evenodd" d="M18.9219 13.3715H19.3632C19.3632 13.5416 19.4695 13.7224 19.6025 13.8234H18.7517C18.8846 13.7064 18.9219 13.5576 18.9219 13.3715Z" fill="white" stroke="#BD6B00" stroke-width="0.0265865"/>
<path fill-rule="evenodd" clip-rule="evenodd" d="M16.1143 10.8563L16.3589 11.1221L19.3897 11.1328L19.6343 10.8669L18.858 10.8509L18.4858 10.5851H17.2628L16.9119 10.8563H16.1143Z" fill="white"/>
<path fill-rule="evenodd" clip-rule="evenodd" d="M17.3532 10.5479H18.4008C18.539 10.4734 18.5869 10.2342 18.5869 10.1012C18.5869 9.70774 18.305 9.51632 18.0285 9.50568C17.986 9.50568 17.9381 9.47378 17.9275 9.43656C17.9009 9.35148 17.9062 9.29299 17.8743 9.29831C17.8531 9.29831 17.8584 9.35148 17.8371 9.42592C17.8212 9.46846 17.7786 9.50568 17.7308 9.511C17.3905 9.52695 17.1671 9.77687 17.1725 10.1012C17.1778 10.3139 17.2044 10.4415 17.3532 10.5479Z" fill="white" stroke="#BD6B00" stroke-width="0.0265865"/>
<path fill-rule="evenodd" clip-rule="evenodd" d="M15.6357 14.2754H20.1182L19.7194 13.951H16.0292L15.6357 14.2754Z" fill="white"/>
<path fill-rule="evenodd" clip-rule="evenodd" d="M17.6936 13.0469L17.7734 13.2915H17.9595L17.8106 13.0469H17.6936ZM17.5873 13.2915L17.6404 13.5361H17.8531L17.7734 13.2915H17.5873ZM17.9595 13.2915L18.1084 13.5361H18.4221L18.1775 13.2915H17.9595ZM16.125 13.8445C16.2898 13.6903 16.3962 13.5627 16.3962 13.3766H16.8003C16.8003 13.483 16.8375 13.5414 16.896 13.5361H17.3054V13.2969H17.0077V11.9835C16.997 11.5156 17.5713 11.2497 17.8053 11.2497H16.4068V11.2072H19.3473V11.2497H17.9382C18.3583 11.2497 18.7624 11.6485 18.7677 11.9835V12.3557H18.7145L18.7092 11.9888C18.7092 11.6219 18.2466 11.2816 17.8744 11.2922C17.5554 11.2975 17.0555 11.606 17.0608 11.9835V12.1005L17.8212 12.1058L17.8159 12.2387L17.9329 12.3132L18.1722 12.3876V12.5897L18.3423 12.6375V12.8342L18.5444 12.9246V13.1267L18.6773 13.2065L18.672 13.4138L18.8475 13.5361H18.4327L18.6933 13.8286H18.3051L18.1137 13.5361H17.8638L17.9754 13.8233H17.7096L17.6404 13.5361H17.3108V13.8445H16.1303H16.125ZM17.3054 13.0469V13.2915H17.5873L17.5341 13.0469H17.3001H17.3054Z" fill="white"/>
<path d="M17.7734 13.2915L17.6936 13.0469H17.8106L17.9595 13.2915M17.7734 13.2915H17.9595M17.7734 13.2915L17.8531 13.5361H17.6404M17.7734 13.2915H17.5873M17.9595 13.2915L18.1084 13.5361H18.4221L18.1775 13.2915H17.9595ZM17.5873 13.2915L17.6404 13.5361M17.5873 13.2915H17.3054V13.0469H17.3001H17.5341L17.5873 13.2915ZM17.6404 13.5361L17.7096 13.8233H17.9754L17.8638 13.5361H18.1137L18.3051 13.8286H18.6933L18.4327 13.5361H18.8475L18.672 13.4138L18.6773 13.2065L18.5444 13.1267V12.9246L18.3423 12.8342V12.6375L18.1722 12.5897V12.3876L17.9329 12.3132L17.8159 12.2387L17.8212 12.1058L17.0608 12.1005V11.9835C17.0555 11.606 17.5554 11.2975 17.8744 11.2922C18.2466 11.2816 18.7092 11.6219 18.7092 11.9888L18.7145 12.3557H18.7677V11.9835C18.7624 11.6485 18.3583 11.2497 17.9382 11.2497H19.3473V11.2072H16.4068V11.2497H17.8053C17.5713 11.2497 16.997 11.5156 17.0077 11.9835V13.2969H17.3054V13.5361H16.896C16.8375 13.5414 16.8003 13.483 16.8003 13.3766H16.3962C16.3962 13.5627 16.2898 13.6903 16.125 13.8445H16.1303H17.3108V13.5361H17.6404Z" stroke="#BD6B00" stroke-width="0.0265865"/>
<path fill-rule="evenodd" clip-rule="evenodd" d="M17.3213 12.6217H17.4968V13.0258H17.3213V12.6217Z" stroke="#BD6B00" stroke-width="0.0265865"/>
<path fill-rule="evenodd" clip-rule="evenodd" d="M17.0713 13.0524H17.2414V12.7547C17.2414 12.6271 17.3584 12.4941 17.4116 12.4888C17.4754 12.4888 17.5658 12.6111 17.5711 12.744V13.0524H17.7519V12.2867H17.0713V13.0524ZM18.4325 13.2279H18.6452V13.3981H18.4325V13.2279ZM18.3049 12.9461H18.5176V13.1109H18.3049V12.9461ZM18.0975 12.659H18.3102V12.8238H18.0975V12.659ZM17.9221 12.4197H18.1347V12.5845H17.9221V12.4197Z" stroke="#BD6B00" stroke-width="0.0265865"/>
<path fill-rule="evenodd" clip-rule="evenodd" d="M17.7786 13.0522L18.0019 13.0629L18.3901 13.4032V13.2011L18.2571 13.1054V12.9459L18.0657 12.8396V12.6641L17.8796 12.6003V12.3716L17.7892 12.2919L17.7786 13.0522Z" stroke="#BD6B00" stroke-width="0.0265865"/>
<path fill-rule="evenodd" clip-rule="evenodd" d="M18.7039 12.5472H18.757V12.9248H18.7039V12.5472Z" fill="white" stroke="#BD6B00" stroke-width="0.0265865"/>
<path fill-rule="evenodd" clip-rule="evenodd" d="M15.6105 11.2818C15.5467 11.1754 15.4669 11.4306 15.1958 11.6168C15.0735 11.7018 14.9831 11.9305 14.9831 12.0794C14.9831 12.1857 14.9937 12.2867 14.9831 12.3878C14.9778 12.4463 14.9086 12.5898 14.9565 12.627C15.0735 12.7121 15.2277 12.9142 15.2968 12.9833C15.3606 13.0365 15.4138 12.7015 15.4563 12.5579C15.5095 12.3984 15.4882 12.2017 15.6265 12.0581C15.7222 11.9517 15.9668 11.856 15.9455 11.8135L15.6105 11.2818Z" fill="white" stroke="#BD6B00" stroke-width="0.0265865"/>
<path fill-rule="evenodd" clip-rule="evenodd" d="M15.5947 12.1005C15.5735 12.0504 15.5448 12.0037 15.5096 11.9623C15.4757 11.9203 15.4318 11.8874 15.382 11.8666C15.333 11.852 15.2889 11.8245 15.2544 11.7868C15.234 11.764 15.2194 11.7367 15.2118 11.7071C15.2058 11.6719 15.2058 11.6359 15.2118 11.6007L15.1959 11.6167C15.0736 11.7017 14.9832 11.9304 14.9832 12.0793C14.9815 12.12 14.9815 12.1608 14.9832 12.2016C14.9938 12.2281 14.9991 12.2547 15.0151 12.2707L15.0736 12.3132L15.2171 12.3504C15.2709 12.3746 15.3182 12.411 15.3554 12.4568C15.3941 12.4978 15.4263 12.5444 15.4511 12.595L15.4617 12.5525C15.5043 12.4089 15.4989 12.2388 15.6 12.1005H15.5947Z" fill="#BF0000" stroke="#BD6B00" stroke-width="0.0265865"/>
<path d="M15.2119 11.5956C15.1853 11.7711 15.2864 11.8349 15.3821 11.8668C15.4778 11.904 15.5576 12.005 15.5948 12.1007M14.9727 12.1805C15.0152 12.34 15.1215 12.3187 15.2173 12.3506C15.313 12.3879 15.414 12.5102 15.4565 12.6059" stroke="#BD6B00" stroke-width="0.0265865"/>
<path fill-rule="evenodd" clip-rule="evenodd" d="M15.5203 11.1753L15.5734 11.1434L16.5146 12.7333L16.4614 12.7652L15.5203 11.1753Z" fill="white" stroke="#BD6B00" stroke-width="0.0265865"/>
<path fill-rule="evenodd" clip-rule="evenodd" d="M15.6211 11.1116C15.6211 11.1398 15.6099 11.1668 15.59 11.1868C15.57 11.2067 15.543 11.2179 15.5148 11.2179C15.4866 11.2179 15.4595 11.2067 15.4396 11.1868C15.4197 11.1668 15.4084 11.1398 15.4084 11.1116C15.4084 11.0834 15.4197 11.0563 15.4396 11.0364C15.4595 11.0165 15.4866 11.0052 15.5148 11.0052C15.543 11.0052 15.57 11.0165 15.59 11.0364C15.6099 11.0563 15.6211 11.0834 15.6211 11.1116ZM16.4294 9.83544H16.8122V9.92052H16.4294V9.83544ZM16.4294 10.0003H16.8122V10.7341H16.4294V10.0003ZM16.4081 9.73441H16.8335C16.8441 9.59085 16.7006 9.43665 16.6208 9.43665C16.5357 9.44196 16.4028 9.59616 16.4081 9.73441Z" fill="white" stroke="#BD6B00" stroke-width="0.0265865"/>
<path fill-rule="evenodd" clip-rule="evenodd" d="M17.4876 9.6494C17.4078 9.68131 17.344 9.7717 17.3068 9.87805C17.2696 9.98439 17.2536 10.1067 17.2749 10.2024C17.2749 10.2396 17.2909 10.2609 17.3015 10.2822C17.3121 10.2981 17.3228 10.3087 17.3334 10.3087C17.3493 10.3087 17.3653 10.3087 17.3706 10.2928L17.3813 10.2503C17.3759 10.1439 17.3759 10.0482 17.3972 9.96312C17.4209 9.86865 17.4774 9.78569 17.5567 9.72916C17.5727 9.71853 17.578 9.70258 17.5833 9.69194C17.5831 9.67792 17.5774 9.66454 17.5674 9.65472C17.5461 9.63877 17.5142 9.63345 17.4876 9.6494ZM17.4982 9.67067C17.5195 9.66004 17.5408 9.67067 17.5514 9.67599L17.5567 9.68662C17.5567 9.69194 17.5567 9.69726 17.5408 9.70789C17.4591 9.7678 17.4008 9.85428 17.3759 9.95249C17.3539 10.0501 17.3485 10.1508 17.36 10.2503C17.36 10.2618 17.3563 10.273 17.3493 10.2822C17.3493 10.2822 17.3493 10.2875 17.3387 10.2822C17.3387 10.2822 17.3281 10.2822 17.3174 10.2662C17.3069 10.2462 17.2997 10.2247 17.2962 10.2024C17.2802 10.1067 17.2962 9.98971 17.3334 9.88336C17.3706 9.78765 17.4291 9.70258 17.4929 9.67067H17.4982Z" fill="#BD6B00"/>
<path fill-rule="evenodd" clip-rule="evenodd" d="M17.6259 9.75028C17.5461 9.7875 17.4929 9.87258 17.4663 9.97361C17.4381 10.0758 17.4326 10.1829 17.4504 10.2873C17.461 10.3565 17.5036 10.3937 17.5355 10.3937C17.5514 10.399 17.5674 10.3937 17.578 10.3777C17.5886 10.3618 17.5939 10.3458 17.5886 10.3246C17.5674 10.2395 17.562 10.1438 17.5727 10.0534C17.5886 9.96298 17.6259 9.88322 17.6897 9.83536C17.7056 9.81941 17.7162 9.80877 17.7162 9.79282C17.7167 9.78706 17.716 9.78126 17.7142 9.77577C17.7124 9.77029 17.7095 9.76523 17.7056 9.76092C17.6843 9.74497 17.6524 9.73965 17.6259 9.75028ZM17.6365 9.77687C17.6578 9.76624 17.679 9.77155 17.6897 9.77687L17.695 9.79282L17.679 9.81409C17.6433 9.8427 17.6137 9.87812 17.5918 9.91828C17.5699 9.95844 17.5561 10.0026 17.5514 10.0481C17.5355 10.1438 17.5461 10.2448 17.562 10.3246C17.5674 10.3458 17.562 10.3565 17.562 10.3671L17.5355 10.3724C17.5195 10.3724 17.4823 10.3458 17.4717 10.282C17.4557 10.1916 17.461 10.0746 17.4876 9.97893C17.5142 9.88322 17.5674 9.80346 17.6365 9.77687Z" fill="#BD6B00"/>
<path fill-rule="evenodd" clip-rule="evenodd" d="M16.4082 11.3297H16.8336V11.9146H16.4082V11.3297ZM16.4348 12.2549H16.8443V12.3825H16.4348V12.2549ZM16.4242 12.4729H16.8496V12.9355H16.4242V12.4729ZM16.3923 13.0312H16.8549V13.2918H16.3923V13.0312ZM16.4508 12.1486H16.823L16.8974 12.021H16.387L16.4508 12.1486ZM16.9506 11.6913L16.9559 11.3723H17.2111C17.1014 11.4577 17.0124 11.5667 16.9506 11.6913Z" fill="white" stroke="#BD6B00" stroke-width="0.0265865"/>
<path fill-rule="evenodd" clip-rule="evenodd" d="M16.4773 11.8242C16.4773 11.8933 16.5571 11.8667 16.5571 11.8295V11.5317C16.5571 11.4786 16.6847 11.4892 16.6847 11.5264V11.8455C16.6847 11.8986 16.7751 11.8933 16.7697 11.8455V11.4732C16.7697 11.3563 16.4773 11.3616 16.4773 11.4679V11.8242ZM16.4773 12.5314H16.7804V12.9036H16.4773V12.5314Z" stroke="#BD6B00" stroke-width="0.0265865"/>
<path fill-rule="evenodd" clip-rule="evenodd" d="M16.6687 12.6909H16.7751V12.744H16.6687V12.6909ZM16.4826 12.6909H16.589V12.744H16.4826V12.6909ZM16.589 12.5313H16.6687V12.6909H16.589V12.5313ZM16.589 12.744H16.6687V12.9089H16.589V12.744ZM14.9034 8.75605C14.9247 9.0485 14.829 9.21334 14.6747 9.18675C14.6322 9.02723 14.7279 8.91557 14.9034 8.75605ZM14.5578 9.41008C14.4195 9.34095 14.5205 8.79859 14.5737 8.56995C14.6109 8.8624 14.6801 9.27715 14.5578 9.41008Z" fill="white"/>
<path d="M16.6687 12.6909H16.7751V12.744H16.6687M16.6687 12.6909V12.744M16.6687 12.6909V12.5313H16.589V12.6909M16.6687 12.6909H16.589M16.6687 12.744H16.589M16.6687 12.744V12.9089H16.589V12.744M16.589 12.6909H16.4826V12.744H16.589M16.589 12.6909V12.744M14.9034 8.75605C14.9247 9.0485 14.829 9.21334 14.6747 9.18675C14.6322 9.02723 14.7279 8.91557 14.9034 8.75605ZM14.5578 9.41008C14.4195 9.34095 14.5205 8.79859 14.5737 8.56995C14.6109 8.8624 14.6801 9.27715 14.5578 9.41008Z" stroke="#BD6B00" stroke-width="0.0265865"/>
<path fill-rule="evenodd" clip-rule="evenodd" d="M14.6056 9.43664C14.8396 9.5164 15.031 9.26649 15.0895 8.97404C14.8981 9.2399 14.5844 9.2399 14.611 9.43664H14.6056ZM14.4302 9.70782C14.2494 9.65997 14.3557 9.0857 14.3929 8.85706C14.4302 9.09633 14.5578 9.62806 14.4302 9.70782ZM14.494 9.69187C14.5046 9.49513 14.7013 9.5483 14.8396 9.44196C14.813 9.5483 14.7333 9.71846 14.494 9.69187ZM14.2706 9.95774C14.0899 9.90456 14.1962 9.28776 14.1856 9.03253C14.2387 9.25585 14.4089 9.89925 14.2706 9.95774ZM14.3557 9.93115C14.5046 9.97901 14.7013 9.87798 14.7173 9.70251C14.5844 9.7929 14.3823 9.72378 14.3557 9.93115Z" fill="white" stroke="#BD6B00" stroke-width="0.0265865"/>
<path fill-rule="evenodd" clip-rule="evenodd" d="M14.1324 10.229C13.9623 10.245 14.0367 9.71856 14.0367 9.22937C14.1005 9.68666 14.276 10.1067 14.1324 10.229Z" fill="white" stroke="#BD6B00" stroke-width="0.0265865"/>
<path fill-rule="evenodd" clip-rule="evenodd" d="M14.1963 10.2077C14.3133 10.2608 14.5206 10.1704 14.5791 9.9737C14.3664 10.0641 14.2282 9.9737 14.1963 10.2077ZM15.5575 9.02722C15.5256 9.28777 15.4193 9.43665 15.2651 9.41007C15.2225 9.25055 15.3501 9.1442 15.5575 9.02722ZM15.1428 9.68657C15.4033 9.72379 15.4937 9.52705 15.6745 9.2665C15.4246 9.44729 15.1321 9.47919 15.1428 9.69188V9.68657Z" fill="white" stroke="#BD6B00" stroke-width="0.0265865"/>
<path fill-rule="evenodd" clip-rule="evenodd" d="M15.0629 9.65989C14.9246 9.48974 15.0629 9.27173 15.1692 9.09094C15.148 9.36212 15.2384 9.51633 15.0629 9.65989ZM15.0097 9.94171C14.9884 9.77156 15.2756 9.73434 15.4032 9.64394C15.3553 9.73965 15.2968 10.0002 15.0044 9.94171H15.0097Z" fill="white" stroke="#BD6B00" stroke-width="0.0265865"/>
<path fill-rule="evenodd" clip-rule="evenodd" d="M14.946 9.94171C14.7492 9.92044 14.829 9.58545 14.9725 9.40466C14.9141 9.65989 15.0789 9.83536 14.946 9.94171Z" fill="white" stroke="#BD6B00" stroke-width="0.0265865"/>
<path fill-rule="evenodd" clip-rule="evenodd" d="M14.7969 10.2236C14.5736 10.1172 14.7172 9.84074 14.7969 9.6759C14.765 9.89391 14.9458 10.0587 14.7969 10.2183V10.2236Z" fill="white" stroke="#BD6B00" stroke-width="0.0265865"/>
<path fill-rule="evenodd" clip-rule="evenodd" d="M14.8396 10.1917C14.9566 10.3512 15.1852 10.1491 15.2331 9.91516C15.0364 10.08 14.8875 10.0534 14.8396 10.197V10.1917ZM14.3292 11.2711C14.3079 11.0424 14.478 10.633 14.3557 10.4097C14.3398 10.3778 14.393 10.298 14.4302 10.3459C14.4834 10.4256 14.5365 10.6489 14.5631 10.5639C14.5844 10.4735 14.5897 10.3193 14.6695 10.2874C14.7226 10.2714 14.7918 10.2555 14.7705 10.3405C14.7492 10.415 14.7067 10.5213 14.7545 10.5267C14.7811 10.5267 14.8609 10.4203 14.93 10.3671C14.9832 10.3246 15.0683 10.399 14.9832 10.4628C14.728 10.6755 14.478 10.7766 14.3292 11.2711ZM13.8666 14.7007C13.8346 14.7007 13.7974 14.6848 13.8346 14.7326C14.1377 15.1048 14.2228 15.2112 14.6641 15.158C15.1055 15.0995 15.2118 14.9772 15.5255 14.8018C15.6164 14.754 15.7158 14.7247 15.818 14.7155C15.9202 14.7064 16.0232 14.7176 16.1211 14.7486C16.2062 14.7752 16.2593 14.7752 16.1955 14.7114C16.1317 14.6529 16.0626 14.5678 15.9828 14.5093C15.7845 14.3766 15.5427 14.3252 15.3075 14.3657C14.9885 14.4189 14.7173 14.6263 14.393 14.706C14.2192 14.7411 14.0403 14.7411 13.8666 14.706V14.7007ZM16.4082 15.3654C16.4614 15.376 16.4986 15.4824 16.5305 15.4132C16.5731 15.291 16.5412 15.2006 16.488 15.2059C16.4242 15.2218 16.3231 15.3654 16.4082 15.3654Z" fill="white" stroke="#BD6B00" stroke-width="0.0265865"/>
<path fill-rule="evenodd" clip-rule="evenodd" d="M13.659 11.0956C13.5952 11.0212 13.6112 10.9999 13.7122 10.9946C13.7867 10.9946 13.9355 11.0478 13.994 10.9999C14.0472 10.9627 14.0206 10.8032 14.0472 10.734C14.0578 10.6862 14.0844 10.6277 14.1536 10.7234C14.345 11.0318 14.5789 11.404 14.6853 11.7656C14.7385 11.9676 14.6853 12.2867 14.5045 12.4994C14.5045 12.3186 14.4407 12.1963 14.3609 12.0421C14.2546 11.8453 13.8771 11.2977 13.659 11.0903V11.0956Z" fill="white"/>
<path fill-rule="evenodd" clip-rule="evenodd" d="M14.4514 12.712C14.6641 12.712 14.7013 12.4302 14.7013 12.3505C14.595 12.3717 14.4142 12.5472 14.4514 12.712ZM16.2859 15.4717C16.4348 15.5036 16.4294 15.142 16.2752 14.9878C16.3444 15.2218 16.1689 15.4345 16.2806 15.4664L16.2859 15.4717ZM16.2221 15.4664C16.2327 15.6366 15.7967 15.4451 15.6903 15.3069C15.9456 15.4185 16.2114 15.3282 16.2221 15.4664ZM16.036 15.2218C16.0519 15.3866 15.6638 15.2378 15.5415 15.1101C15.802 15.1952 16.02 15.0836 16.036 15.2165V15.2218ZM16.1051 15.2431C16.2593 15.2803 16.2327 14.9028 16.0838 14.7752C16.1583 15.0251 15.9881 15.2059 16.1051 15.2431ZM15.9456 15.0144C16.0998 15.0517 16.0094 14.7273 15.8977 14.5997C15.919 14.8336 15.8445 14.9985 15.9509 15.0144H15.9456ZM15.8658 15.0144C15.8818 15.1846 15.5787 15.057 15.4617 14.8921C15.7169 14.9719 15.8499 14.8762 15.8658 15.0144ZM15.7861 14.8815C15.8818 14.8124 15.7807 14.6263 15.5893 14.6369C15.6106 14.7486 15.6744 14.9506 15.7861 14.8815ZM16.5305 15.6631C16.5358 15.8333 16.1051 15.7482 15.9668 15.5674C16.2433 15.6206 16.5145 15.5249 16.5252 15.6631H16.5305ZM14.8077 15.3547C14.8236 15.5249 14.3504 15.3335 14.2334 15.174C14.4833 15.259 14.7917 15.2165 14.8077 15.3547ZM15.0948 15.4239C15.1958 15.3547 14.9938 15.1739 14.8289 15.1314C14.8502 15.2431 14.9885 15.493 15.0948 15.4292V15.4239ZM15.1267 15.5462C15.1373 15.7004 14.6216 15.6153 14.4886 15.4717C14.93 15.5515 15.1108 15.4132 15.1267 15.5462Z" fill="white" stroke="#BD6B00" stroke-width="0.0265865"/>
<path fill-rule="evenodd" clip-rule="evenodd" d="M15.3714 15.6472C15.4246 15.7908 14.9301 15.7535 14.7546 15.6738C15.0365 15.6738 15.3289 15.5462 15.3714 15.6472Z" fill="white" stroke="#BD6B00" stroke-width="0.0265865"/>
<path fill-rule="evenodd" clip-rule="evenodd" d="M15.6001 15.7535C15.6533 15.8812 15.196 15.8812 14.9727 15.8067C15.2704 15.8067 15.5469 15.6259 15.6001 15.7535ZM15.9351 15.8227C16.0202 15.9769 15.531 15.9875 15.3768 15.9131C15.6533 15.8758 15.866 15.7004 15.9351 15.8227ZM15.3661 15.5621C15.2119 15.6578 15.2226 15.3707 15.1003 15.174C15.2917 15.3494 15.4725 15.4717 15.3661 15.5621Z" fill="white" stroke="#BD6B00" stroke-width="0.0265865"/>
<path fill-rule="evenodd" clip-rule="evenodd" d="M15.6426 15.6686C15.515 15.7802 15.4086 15.3868 15.2916 15.1634C15.483 15.3761 15.7595 15.5729 15.6426 15.6633V15.6686ZM16.0041 15.7749C15.8978 15.9025 15.5788 15.4027 15.4618 15.1368C15.6372 15.3442 16.0892 15.6686 16.0041 15.7749ZM15.6957 16.1578C15.6426 16.3492 14.8343 15.977 14.7386 15.7802C15.2065 16.0248 15.7064 15.9717 15.6957 16.1524V16.1578ZM13.1062 12.2336C13.0849 12.207 13.0318 12.2336 13.0424 12.2921C13.0584 12.3718 13.1753 12.7813 13.3774 12.9195C13.521 13.0259 14.2813 13.1907 14.6216 13.2652C14.8131 13.3024 14.9673 13.3981 15.0949 13.547C15.0512 13.3705 14.9979 13.1966 14.9354 13.0259C14.8716 12.8664 14.7014 12.6962 14.5206 12.6909C14.1963 12.6749 13.7709 12.6483 13.4572 12.5154C13.3151 12.4555 13.1919 12.3581 13.1009 12.2336H13.1062Z" fill="white" stroke="#BD6B00" stroke-width="0.0265865"/>
<path fill-rule="evenodd" clip-rule="evenodd" d="M14.9832 13.8554C15.0896 13.9298 15.2012 13.6586 15.0736 13.3981C15.0683 13.648 14.8716 13.7331 14.9832 13.8554Z" fill="white" stroke="#BD6B00" stroke-width="0.0265865"/>
<path fill-rule="evenodd" clip-rule="evenodd" d="M15.0842 14.1053C15.2277 14.1478 15.2703 13.8926 15.1799 13.6906C15.1958 13.9086 14.9512 14.0415 15.0842 14.1053Z" fill="white" stroke="#BD6B00" stroke-width="0.0265865"/>
<path fill-rule="evenodd" clip-rule="evenodd" d="M15.196 14.3073C15.3342 14.3765 15.3821 14.1159 15.2864 13.9298C15.297 14.1691 15.0896 14.2435 15.196 14.302V14.3073Z" fill="white" stroke="#BD6B00" stroke-width="0.0265865"/>
<path fill-rule="evenodd" clip-rule="evenodd" d="M15.1373 14.3232C15.0841 14.4827 14.7651 14.1796 14.7119 14.0148C14.9087 14.2115 15.1745 14.1849 15.1373 14.3179V14.3232Z" fill="white" stroke="#BD6B00" stroke-width="0.0265865"/>
<path fill-rule="evenodd" clip-rule="evenodd" d="M14.9939 14.0733C14.9301 14.2328 14.5313 13.8075 14.4409 13.6107C14.6377 13.8075 15.0365 13.9563 14.9939 14.068V14.0733Z" fill="white" stroke="#BD6B00" stroke-width="0.0265865"/>
<path fill-rule="evenodd" clip-rule="evenodd" d="M14.9141 13.8234C14.8503 14.0095 14.4196 13.515 14.292 13.3396C14.5047 13.531 14.962 13.6905 14.9141 13.8234ZM14.8982 13.6427C15.0577 13.6107 14.8928 13.4831 14.7014 13.2758C14.6961 13.4938 14.728 13.648 14.8982 13.6427Z" fill="white" stroke="#BD6B00" stroke-width="0.0265865"/>
<path fill-rule="evenodd" clip-rule="evenodd" d="M14.6376 13.5151C14.7067 13.446 14.5791 13.4141 14.4196 13.2333C14.393 13.3556 14.5684 13.5789 14.6429 13.5151H14.6376ZM15.382 14.3233C15.4671 14.3765 15.5202 14.201 15.4192 14.0468C15.3926 14.217 15.3075 14.2595 15.382 14.3233ZM13.5635 13.2439C13.388 13.3502 13.1062 12.9249 13.0317 12.7494C13.1859 12.9514 13.5954 13.1322 13.5635 13.2439Z" fill="white" stroke="#BD6B00" stroke-width="0.0265865"/>
<path fill-rule="evenodd" clip-rule="evenodd" d="M13.7177 13.4884C13.6167 13.5948 13.3083 13.3023 13.2019 13.1534C13.3614 13.297 13.7602 13.313 13.7177 13.4884Z" fill="white" stroke="#BD6B00" stroke-width="0.0265865"/>
<path fill-rule="evenodd" clip-rule="evenodd" d="M13.8825 13.7117C13.8506 13.8606 13.404 13.5256 13.2976 13.3661C13.489 13.5522 13.9144 13.5362 13.8825 13.7117Z" fill="white" stroke="#BD6B00" stroke-width="0.0265865"/>
<path fill-rule="evenodd" clip-rule="evenodd" d="M13.8133 13.8767C13.7442 14.0096 13.3773 13.6746 13.2869 13.5045C13.5155 13.6959 13.8718 13.7438 13.8186 13.8767H13.8133ZM13.6272 13.2227C13.7388 13.1004 13.691 13.0419 13.6059 12.8505C13.5634 13.0472 13.4942 13.127 13.6272 13.2227ZM13.7814 13.4513C13.9941 13.462 13.7814 13.2067 13.7282 12.9887C13.7495 13.2333 13.675 13.43 13.7814 13.4513Z" fill="white" stroke="#BD6B00" stroke-width="0.0265865"/>
<path fill-rule="evenodd" clip-rule="evenodd" d="M13.9145 13.6534C14.0581 13.6215 14.0208 13.4141 13.9039 13.1642C13.9304 13.4354 13.7816 13.5896 13.9145 13.6534ZM13.8613 14.0628C13.8081 14.2223 13.3934 13.8501 13.3296 13.7012C13.5423 13.882 13.8985 13.9405 13.8613 14.0628Z" fill="white" stroke="#BD6B00" stroke-width="0.0265865"/>
<path fill-rule="evenodd" clip-rule="evenodd" d="M14.1111 14.3179C14.0526 14.4774 13.6166 14.1477 13.4836 13.9669C13.7442 14.1796 14.143 14.1583 14.1111 14.3179Z" fill="white" stroke="#BD6B00" stroke-width="0.0265865"/>
<path fill-rule="evenodd" clip-rule="evenodd" d="M14.3664 14.5784C14.2973 14.807 13.84 14.4401 13.707 14.2593C13.9942 14.4827 14.3983 14.4189 14.3664 14.5784ZM13.941 13.9935C14.0633 14.052 14.1111 13.7063 14.042 13.4564C14.042 13.7223 13.7921 13.9243 13.9357 13.9882L13.941 13.9935Z" fill="white" stroke="#BD6B00" stroke-width="0.0265865"/>
<path fill-rule="evenodd" clip-rule="evenodd" d="M14.1483 14.27C14.2972 14.3125 14.2547 13.935 14.1217 13.6851C14.1058 13.935 13.9994 14.1636 14.1483 14.27ZM14.4142 14.5305C14.5737 14.5359 14.4673 14.2062 14.3291 14.0201C14.3504 14.2594 14.2759 14.4986 14.4142 14.5305ZM14.1217 14.6688C14.0685 14.7539 13.9516 14.5997 13.7495 14.4827C13.9303 14.5359 14.143 14.589 14.1217 14.6688ZM14.026 11.8666C14.1855 11.7496 14.0632 11.5369 14.026 11.3348C13.9728 11.5263 13.8452 11.7815 14.026 11.8666ZM14.026 12.1484C13.7867 12.1218 13.824 11.824 13.8133 11.6326C13.8878 11.8932 14.0792 11.9357 14.026 12.1537V12.1484ZM14.0579 12.1112C14.2547 12.1005 14.244 11.8772 14.2547 11.6539C14.1536 11.8613 14.042 11.8932 14.0579 12.1112Z" fill="white" stroke="#BD6B00" stroke-width="0.0265865"/>
<path fill-rule="evenodd" clip-rule="evenodd" d="M14.0527 12.3878C13.8932 12.4037 13.8188 12.2495 13.7869 12.0156C13.9304 12.2336 14.058 12.1645 14.0527 12.3878ZM14.1059 12.3718C14.3026 12.3984 14.2654 12.1698 14.2654 11.9996C14.2016 12.1592 14.0421 12.2123 14.1059 12.3718Z" fill="white" stroke="#BD6B00" stroke-width="0.0265865"/>
<path fill-rule="evenodd" clip-rule="evenodd" d="M13.7974 12.276C13.8133 12.4249 13.909 12.6801 14.0632 12.6216C14.1217 12.4408 13.925 12.4036 13.7974 12.276Z" fill="white" stroke="#BD6B00" stroke-width="0.0265865"/>
<path fill-rule="evenodd" clip-rule="evenodd" d="M14.1059 12.6376C14.0421 12.51 14.2654 12.4409 14.3079 12.2707C14.3345 12.5153 14.3132 12.6748 14.1059 12.6429V12.6376ZM13.4731 11.085C13.5954 10.9574 13.4891 10.7447 13.4518 10.5426C13.3987 10.734 13.3189 10.9893 13.4731 11.085ZM13.4731 11.3296C13.2604 11.3561 13.2073 10.9201 13.1807 10.7287C13.2551 10.9893 13.4997 11.1009 13.4731 11.3349V11.3296ZM13.5157 11.3296C13.6645 11.2498 13.6326 11.0796 13.6752 10.9574C13.5795 11.1116 13.4837 11.1328 13.5157 11.3296Z" fill="white" stroke="#BD6B00" stroke-width="0.0265865"/>
<path fill-rule="evenodd" clip-rule="evenodd" d="M13.4678 11.6167C13.2498 11.6327 13.1168 11.1488 13.1062 10.9574C13.1753 11.2179 13.4997 11.3562 13.4731 11.6167H13.4678ZM13.5156 11.6061C13.7283 11.5583 13.7017 11.42 13.6698 11.202C13.6007 11.4253 13.4837 11.3775 13.5156 11.6061Z" fill="white" stroke="#BD6B00" stroke-width="0.0265865"/>
<path fill-rule="evenodd" clip-rule="evenodd" d="M13.4676 11.8931C13.223 11.9357 13.239 11.5422 13.0422 11.2604C13.2124 11.4731 13.5208 11.7389 13.4676 11.8931ZM13.5208 11.8772C13.7122 11.8878 13.7335 11.606 13.7229 11.489C13.675 11.606 13.457 11.7123 13.5261 11.8825L13.5208 11.8772Z" fill="white" stroke="#BD6B00" stroke-width="0.0265865"/>
<path fill-rule="evenodd" clip-rule="evenodd" d="M13.085 11.5902C13.1754 11.8933 13.3083 12.1964 13.4678 12.1751C13.5476 11.9996 13.3136 11.9784 13.085 11.5902Z" fill="white" stroke="#BD6B00" stroke-width="0.0265865"/>
<path fill-rule="evenodd" clip-rule="evenodd" d="M13.5262 12.1273C13.4624 11.9943 13.6857 11.9305 13.7283 11.7604C13.7549 12.005 13.7336 12.1645 13.5262 12.1273ZM13.1487 11.9358C13.2816 12.207 13.3401 12.5207 13.5209 12.4729C13.59 12.2602 13.3188 12.2177 13.1487 11.9358Z" fill="white" stroke="#BD6B00" stroke-width="0.0265865"/>
<path fill-rule="evenodd" clip-rule="evenodd" d="M13.5581 12.4251C13.4784 12.2762 13.7017 12.2283 13.7602 12.0316C13.7868 12.2868 13.7602 12.4729 13.5581 12.4197V12.4251ZM13.941 10.5906C14.0686 10.6225 14.2068 10.4789 14.159 10.2609C14.0101 10.2928 13.9463 10.4311 13.941 10.5906ZM13.5209 10.4789C13.5316 10.5427 13.6113 10.548 13.5847 10.4576C13.5649 10.399 13.5649 10.3355 13.5847 10.2769C13.6103 10.1973 13.6103 10.1118 13.5847 10.0323C13.5635 9.97909 13.489 10.011 13.5209 10.0535C13.5528 10.1014 13.5581 10.2024 13.5316 10.2503C13.4996 10.3194 13.5103 10.4098 13.5209 10.4789ZM14.7386 11.3297C14.6854 11.3988 14.5844 11.351 14.6641 11.2499C14.7279 11.1702 14.8237 11.101 14.8237 11.016C14.8343 10.9096 14.8928 10.7501 14.9513 10.6916C15.0098 10.6331 15.0789 10.7129 15.0151 10.7554C14.946 10.798 14.8981 10.9894 14.9034 11.0638C14.8981 11.1702 14.7971 11.2499 14.7386 11.3297ZM14.5791 11.2074C14.5259 11.2818 14.4514 11.234 14.494 11.117C14.5312 11.0372 14.5365 10.9309 14.5791 10.8724C14.6429 10.782 14.7386 10.7076 14.7971 10.6491C14.8609 10.5959 14.9034 10.6491 14.8502 10.7022C14.7851 10.7673 14.7263 10.8386 14.6748 10.9149C14.6003 11.0319 14.6322 11.1276 14.5791 11.2074ZM13.7442 10.8245C13.7389 10.9309 13.824 10.9522 13.8187 10.8033C13.8187 10.6438 13.7017 10.4949 13.7655 10.2556C13.8081 10.1386 13.8081 9.9206 13.7868 9.80894C13.7655 9.69196 13.6804 9.7664 13.7177 9.85679C13.7496 9.96314 13.7123 10.1546 13.6858 10.2556C13.606 10.5427 13.7496 10.681 13.7389 10.8245H13.7442ZM13.9729 10.2396C13.9623 10.3407 13.8772 10.346 13.9038 10.2131C13.925 10.1067 13.925 10.0216 13.9038 9.93124C13.8719 9.81957 13.8825 9.62815 13.9038 9.54839C13.9303 9.46331 14.0101 9.51117 13.9782 9.57498C13.9411 9.67549 13.9355 9.78494 13.9623 9.8887C13.9942 9.99504 13.9888 10.1439 13.9729 10.245V10.2396ZM13.1434 12.2124C13.1859 12.2602 13.2497 12.2283 13.1966 12.1592C13.1434 12.106 13.1593 12.0954 13.1274 12.0316C13.0955 11.9571 13.1008 11.9199 13.0636 11.8721C13.0264 11.8189 12.9786 11.8721 13.0105 11.9093C13.053 11.9624 13.0424 11.9943 13.0636 12.0422C13.1168 12.122 13.1008 12.1645 13.1434 12.2124ZM14.2281 13.5204C14.2931 13.5563 14.3484 13.6075 14.3891 13.6696C14.4299 13.7317 14.4549 13.8028 14.4621 13.8767C14.4676 14.0091 14.5041 14.1384 14.5684 14.2542C14.4621 14.2276 14.4089 14.0575 14.393 13.8926C14.377 13.7225 14.2866 13.6533 14.2334 13.5204H14.2281ZM14.4993 13.8341C14.5897 13.999 14.712 14.0628 14.7226 14.1851C14.7333 14.3286 14.7439 14.334 14.7811 14.4722C14.6748 14.4456 14.6482 14.435 14.6216 14.2223C14.6056 14.0734 14.4833 13.9724 14.4993 13.8341Z" fill="white" stroke="#BD6B00" stroke-width="0.0265865"/>
<path fill-rule="evenodd" clip-rule="evenodd" d="M17.2962 15.3654C17.3493 15.4612 17.4025 15.6047 17.5089 15.5781C17.5089 15.509 17.3972 15.4558 17.2962 15.3654ZM17.4557 15.3973C17.6524 15.4824 17.8279 15.4612 17.8545 15.5888C17.6631 15.61 17.5886 15.5356 17.4504 15.3973H17.4557ZM16.5996 14.722C16.7317 14.8248 16.8254 14.969 16.8655 15.1315C16.9083 15.2785 16.9729 15.4182 17.0569 15.5462C16.9186 15.4533 16.8185 15.3136 16.7751 15.1527C16.7379 14.9932 16.69 14.8709 16.5996 14.7274V14.722ZM16.7644 14.722C16.9133 14.839 17.0516 14.9773 17.0941 15.1421C17.1367 15.2963 17.1632 15.4133 17.2643 15.5675C17.1048 15.4665 17.0463 15.3176 16.9984 15.1527C16.9612 14.9932 16.8655 14.8762 16.7644 14.7274V14.722ZM17.2536 15.1102C17.2516 15.0969 17.2541 15.0833 17.2609 15.0717C17.2677 15.0601 17.2783 15.0511 17.2909 15.0464C17.3363 15.0303 17.3825 15.0162 17.4291 15.0039C17.4823 14.9879 17.5142 15.0251 17.5142 15.0517V15.1581C17.5142 15.1953 17.5036 15.2006 17.477 15.2059C17.4397 15.2112 17.3866 15.2166 17.3493 15.2431C17.3174 15.2644 17.2855 15.2485 17.2696 15.2166L17.2536 15.1102ZM17.8173 15.1102C17.8173 15.0783 17.8066 15.0517 17.7854 15.0464C17.745 15.0297 17.7014 15.0224 17.6578 15.0251C17.6046 15.0251 17.5993 15.0358 17.5993 15.057V15.1687C17.5993 15.2112 17.5993 15.2112 17.6205 15.2219C17.6578 15.2219 17.7162 15.2219 17.7535 15.2538C17.7801 15.2697 17.8066 15.2538 17.812 15.2219L17.8173 15.1102Z" fill="white"/>
<path fill-rule="evenodd" clip-rule="evenodd" d="M20.1561 11.2818C20.2199 11.1754 20.2997 11.4306 20.5708 11.6168C20.6931 11.7018 20.7835 11.9305 20.7835 12.0794C20.7835 12.1857 20.7729 12.2867 20.7835 12.3878C20.7888 12.4463 20.858 12.5898 20.8101 12.627C20.6931 12.7121 20.5389 12.9142 20.4698 12.9833C20.406 13.0365 20.3528 12.7015 20.3103 12.5579C20.2571 12.3984 20.2784 12.2017 20.1401 12.0581C20.0444 11.9517 19.7998 11.856 19.8211 11.8135L20.1561 11.2818Z" fill="white" stroke="#BD6B00" stroke-width="0.0265865"/>
<path fill-rule="evenodd" clip-rule="evenodd" d="M20.1719 12.1005C20.1931 12.0504 20.2218 12.0037 20.257 11.9623C20.2909 11.9203 20.3348 11.8874 20.3846 11.8666C20.4336 11.852 20.4777 11.8245 20.5123 11.7868C20.5326 11.764 20.5472 11.7367 20.5548 11.7071C20.5608 11.6719 20.5608 11.6359 20.5548 11.6007L20.5707 11.6167C20.693 11.7017 20.7834 11.9304 20.7834 12.0793C20.7851 12.12 20.7851 12.1608 20.7834 12.2016C20.7728 12.2281 20.7675 12.2547 20.7515 12.2707L20.693 12.3132L20.5495 12.3504C20.4957 12.3746 20.4484 12.411 20.4112 12.4568C20.3725 12.4978 20.3403 12.5444 20.3155 12.595L20.3049 12.5525C20.2623 12.4089 20.2677 12.2388 20.1666 12.1005H20.1719Z" fill="#BF0000" stroke="#BD6B00" stroke-width="0.0265865"/>
<path d="M20.5547 11.5956C20.5813 11.7711 20.4802 11.8349 20.3845 11.8668C20.2888 11.904 20.209 12.005 20.1718 12.1007M20.7939 12.1805C20.7514 12.34 20.6451 12.3187 20.5493 12.3506C20.4536 12.3879 20.3526 12.5102 20.3101 12.6059" stroke="#BD6B00" stroke-width="0.0265865"/>
<path fill-rule="evenodd" clip-rule="evenodd" d="M20.2463 11.1753L20.1932 11.1434L19.252 12.7333L19.3052 12.7652L20.2463 11.1753Z" fill="white" stroke="#BD6B00" stroke-width="0.0265865"/>
<path fill-rule="evenodd" clip-rule="evenodd" d="M20.1455 11.1116C20.1455 11.1398 20.1567 11.1668 20.1766 11.1868C20.1966 11.2067 20.2236 11.2179 20.2518 11.2179C20.28 11.2179 20.3071 11.2067 20.327 11.1868C20.347 11.1668 20.3582 11.1398 20.3582 11.1116C20.3582 11.0834 20.347 11.0563 20.327 11.0364C20.3071 11.0165 20.28 11.0052 20.2518 11.0052C20.2236 11.0052 20.1966 11.0165 20.1766 11.0364C20.1567 11.0563 20.1455 11.0834 20.1455 11.1116ZM19.3372 9.83544H18.9544V9.92052H19.3372V9.83544ZM19.3372 10.0003H18.9544V10.7341H19.3372V10.0003ZM19.3585 9.73441H18.9331C18.9225 9.59085 19.0661 9.43665 19.1458 9.43665C19.2309 9.44196 19.3638 9.59616 19.3585 9.73441Z" fill="white" stroke="#BD6B00" stroke-width="0.0265865"/>
<path fill-rule="evenodd" clip-rule="evenodd" d="M18.279 9.6494C18.3588 9.68131 18.4226 9.7717 18.4598 9.87805C18.497 9.98439 18.513 10.1067 18.4917 10.2024C18.4917 10.2396 18.4757 10.2609 18.4651 10.2822C18.4545 10.2981 18.4438 10.3087 18.4332 10.3087C18.4173 10.3087 18.4013 10.3087 18.396 10.2928L18.3853 10.2503C18.3907 10.1439 18.3907 10.0482 18.3694 9.96312C18.3457 9.86865 18.2892 9.78569 18.2099 9.72916C18.1939 9.71853 18.1886 9.70258 18.1833 9.69194C18.1835 9.67792 18.1892 9.66454 18.1992 9.65472C18.2205 9.63877 18.2524 9.63345 18.279 9.6494ZM18.2684 9.67067C18.2471 9.66004 18.2258 9.67067 18.2152 9.67599L18.2099 9.68662C18.2099 9.69194 18.2099 9.69726 18.2258 9.70789C18.3075 9.7678 18.3658 9.85428 18.3907 9.95249C18.4127 10.0501 18.4181 10.1508 18.4066 10.2503C18.4066 10.2618 18.4103 10.273 18.4173 10.2822C18.4173 10.2822 18.4173 10.2875 18.4279 10.2822C18.4279 10.2822 18.4385 10.2822 18.4492 10.2662C18.4597 10.2462 18.4669 10.2247 18.4704 10.2024C18.4864 10.1067 18.4704 9.98971 18.4332 9.88336C18.396 9.78765 18.3375 9.70258 18.2737 9.67067H18.2684Z" fill="#BD6B00"/>
<path fill-rule="evenodd" clip-rule="evenodd" d="M18.1407 9.75028C18.2205 9.7875 18.2737 9.87258 18.3003 9.97361C18.3285 10.0758 18.334 10.1829 18.3162 10.2873C18.3056 10.3565 18.263 10.3937 18.2311 10.3937C18.2152 10.399 18.1992 10.3937 18.1886 10.3777C18.178 10.3618 18.1727 10.3458 18.178 10.3246C18.1992 10.2395 18.2046 10.1438 18.1939 10.0534C18.178 9.96298 18.1407 9.88322 18.0769 9.83536C18.061 9.81941 18.0504 9.80877 18.0504 9.79282C18.0499 9.78706 18.0506 9.78126 18.0524 9.77577C18.0542 9.77029 18.0571 9.76523 18.061 9.76092C18.0823 9.74497 18.1142 9.73965 18.1407 9.75028ZM18.1301 9.77687C18.1088 9.76624 18.0876 9.77155 18.0769 9.77687L18.0716 9.79282L18.0876 9.81409C18.1233 9.8427 18.1529 9.87812 18.1748 9.91828C18.1967 9.95844 18.2105 10.0026 18.2152 10.0481C18.2311 10.1438 18.2205 10.2448 18.2046 10.3246C18.1992 10.3458 18.2046 10.3565 18.2046 10.3671L18.2311 10.3724C18.2471 10.3724 18.2843 10.3458 18.295 10.282C18.3109 10.1916 18.3056 10.0746 18.279 9.97893C18.2524 9.88322 18.1992 9.80346 18.1301 9.77687Z" fill="#BD6B00"/>
<path fill-rule="evenodd" clip-rule="evenodd" d="M19.3584 11.3297H18.933V11.9146H19.3584V11.3297ZM19.3318 12.2549H18.9224V12.3825H19.3318V12.2549ZM19.3424 12.4729H18.917V12.9355H19.3424V12.4729ZM19.3743 13.0312H18.9117V13.2918H19.3743V13.0312ZM19.3158 12.1486H18.9436L18.8692 12.021H19.3796L19.3158 12.1486ZM18.816 11.6913L18.8107 11.3723H18.5555C18.6652 11.4577 18.7542 11.5667 18.816 11.6913Z" fill="white" stroke="#BD6B00" stroke-width="0.0265865"/>
<path fill-rule="evenodd" clip-rule="evenodd" d="M19.2893 11.8242C19.2893 11.8933 19.2095 11.8667 19.2095 11.8295V11.5317C19.2095 11.4786 19.0819 11.4892 19.0819 11.5264V11.8455C19.0819 11.8986 18.9915 11.8933 18.9969 11.8455V11.4732C18.9969 11.3563 19.2893 11.3616 19.2893 11.4679V11.8242ZM19.2893 12.5314H18.9862V12.9036H19.2893V12.5314Z" stroke="#BD6B00" stroke-width="0.0265865"/>
<path fill-rule="evenodd" clip-rule="evenodd" d="M19.0979 12.6909H18.9915V12.744H19.0979V12.6909ZM19.284 12.6909H19.1776V12.744H19.284V12.6909ZM19.1776 12.5313H19.0979V12.6909H19.1776V12.5313ZM19.1776 12.744H19.0979V12.9089H19.1776V12.744ZM20.8632 8.75605C20.8419 9.0485 20.9377 9.21334 21.0919 9.18675C21.1344 9.02723 21.0387 8.91557 20.8632 8.75605ZM21.2088 9.41008C21.3471 9.34095 21.2461 8.79859 21.1929 8.56995C21.1557 8.8624 21.0865 9.27715 21.2088 9.41008Z" fill="white"/>
<path d="M19.0979 12.6909H18.9915V12.744H19.0979M19.0979 12.6909V12.744M19.0979 12.6909V12.5313H19.1776V12.6909M19.0979 12.6909H19.1776M19.0979 12.744H19.1776M19.0979 12.744V12.9089H19.1776V12.744M19.1776 12.6909H19.284V12.744H19.1776M19.1776 12.6909V12.744M20.8632 8.75605C20.8419 9.0485 20.9377 9.21334 21.0919 9.18675C21.1344 9.02723 21.0387 8.91557 20.8632 8.75605ZM21.2088 9.41008C21.3471 9.34095 21.2461 8.79859 21.1929 8.56995C21.1557 8.8624 21.0865 9.27715 21.2088 9.41008Z" stroke="#BD6B00" stroke-width="0.0265865"/>
<path fill-rule="evenodd" clip-rule="evenodd" d="M21.161 9.43664C20.927 9.5164 20.7356 9.26649 20.6771 8.97404C20.8685 9.2399 21.1822 9.2399 21.1556 9.43664H21.161ZM21.3364 9.70782C21.5172 9.65997 21.4109 9.0857 21.3737 8.85706C21.3364 9.09633 21.2088 9.62806 21.3364 9.70782ZM21.2726 9.69187C21.262 9.49513 21.0653 9.5483 20.927 9.44196C20.9536 9.5483 21.0333 9.71846 21.2726 9.69187ZM21.496 9.95774C21.6767 9.90456 21.5704 9.28776 21.581 9.03253C21.5279 9.25585 21.3577 9.89925 21.496 9.95774ZM21.4109 9.93115C21.262 9.97901 21.0653 9.87798 21.0493 9.70251C21.1822 9.7929 21.3843 9.72378 21.4109 9.93115Z" fill="white" stroke="#BD6B00" stroke-width="0.0265865"/>
<path fill-rule="evenodd" clip-rule="evenodd" d="M21.6342 10.229C21.8043 10.245 21.7299 9.71856 21.7299 9.22937C21.6661 9.68666 21.4906 10.1067 21.6342 10.229Z" fill="white" stroke="#BD6B00" stroke-width="0.0265865"/>
<path fill-rule="evenodd" clip-rule="evenodd" d="M21.5703 10.2077C21.4533 10.2608 21.246 10.1704 21.1875 9.9737C21.4002 10.0641 21.5384 9.9737 21.5703 10.2077ZM20.2091 9.02722C20.241 9.28777 20.3473 9.43665 20.5015 9.41007C20.5441 9.25055 20.4165 9.1442 20.2091 9.02722ZM20.6238 9.68657C20.3633 9.72379 20.2729 9.52705 20.0921 9.2665C20.342 9.44729 20.6345 9.47919 20.6238 9.69188V9.68657Z" fill="white" stroke="#BD6B00" stroke-width="0.0265865"/>
<path fill-rule="evenodd" clip-rule="evenodd" d="M20.7037 9.65989C20.842 9.48974 20.7037 9.27173 20.5974 9.09094C20.6186 9.36212 20.5282 9.51633 20.7037 9.65989ZM20.7569 9.94171C20.7782 9.77156 20.491 9.73434 20.3634 9.64394C20.4113 9.73965 20.4698 10.0002 20.7622 9.94171H20.7569Z" fill="white" stroke="#BD6B00" stroke-width="0.0265865"/>
<path fill-rule="evenodd" clip-rule="evenodd" d="M20.8206 9.94171C21.0174 9.92044 20.9376 9.58545 20.7941 9.40466C20.8525 9.65989 20.6877 9.83536 20.8206 9.94171Z" fill="white" stroke="#BD6B00" stroke-width="0.0265865"/>
<path fill-rule="evenodd" clip-rule="evenodd" d="M20.9697 10.2236C21.193 10.1172 21.0494 9.84074 20.9697 9.6759C21.0016 9.89391 20.8208 10.0587 20.9697 10.2183V10.2236Z" fill="white" stroke="#BD6B00" stroke-width="0.0265865"/>
<path fill-rule="evenodd" clip-rule="evenodd" d="M20.927 10.1917C20.81 10.3512 20.5814 10.1491 20.5335 9.91516C20.7302 10.08 20.8791 10.0534 20.927 10.197V10.1917ZM21.4374 11.2711C21.4587 11.0424 21.2886 10.633 21.4109 10.4097C21.4268 10.3778 21.3736 10.298 21.3364 10.3459C21.2832 10.4256 21.2301 10.6489 21.2035 10.5639C21.1822 10.4735 21.1769 10.3193 21.0971 10.2874C21.044 10.2714 20.9748 10.2555 20.9961 10.3405C21.0174 10.415 21.0599 10.5213 21.0121 10.5267C20.9855 10.5267 20.9057 10.4203 20.8366 10.3671C20.7834 10.3246 20.6983 10.399 20.7834 10.4628C21.0386 10.6755 21.2886 10.7766 21.4374 11.2711ZM21.9001 14.7007C21.932 14.7007 21.9692 14.6848 21.932 14.7326C21.6289 15.1048 21.5438 15.2112 21.1025 15.158C20.6611 15.0995 20.5548 14.9772 20.2411 14.8018C20.1502 14.754 20.0508 14.7247 19.9486 14.7155C19.8464 14.7064 19.7434 14.7176 19.6455 14.7486C19.5604 14.7752 19.5073 14.7752 19.5711 14.7114C19.6349 14.6529 19.704 14.5678 19.7838 14.5093C19.9821 14.3766 20.2239 14.3252 20.4591 14.3657C20.7781 14.4189 21.0493 14.6263 21.3736 14.706C21.5474 14.7411 21.7263 14.7411 21.9001 14.706V14.7007ZM19.3584 15.3654C19.3052 15.376 19.268 15.4824 19.2361 15.4132C19.1935 15.291 19.2255 15.2006 19.2786 15.2059C19.3424 15.2218 19.4435 15.3654 19.3584 15.3654Z" fill="white" stroke="#BD6B00" stroke-width="0.0265865"/>
<path fill-rule="evenodd" clip-rule="evenodd" d="M22.1076 11.0956C22.1714 11.0212 22.1554 10.9999 22.0544 10.9946C21.9799 10.9946 21.8311 11.0478 21.7726 10.9999C21.7194 10.9627 21.746 10.8032 21.7194 10.734C21.7088 10.6862 21.6822 10.6277 21.613 10.7234C21.4216 11.0318 21.1877 11.404 21.0813 11.7656C21.0281 11.9676 21.0813 12.2867 21.2621 12.4994C21.2621 12.3186 21.3259 12.1963 21.4057 12.0421C21.512 11.8453 21.8895 11.2977 22.1076 11.0903V11.0956Z" fill="white"/>
<path fill-rule="evenodd" clip-rule="evenodd" d="M21.3152 12.712C21.1025 12.712 21.0653 12.4302 21.0653 12.3505C21.1716 12.3717 21.3524 12.5472 21.3152 12.712ZM19.4807 15.4717C19.3318 15.5036 19.3372 15.142 19.4914 14.9878C19.4222 15.2218 19.5977 15.4345 19.486 15.4664L19.4807 15.4717ZM19.5445 15.4664C19.5339 15.6366 19.9699 15.4451 20.0763 15.3069C19.821 15.4185 19.5552 15.3282 19.5445 15.4664ZM19.7306 15.2218C19.7147 15.3866 20.1028 15.2378 20.2251 15.1101C19.9646 15.1952 19.7466 15.0836 19.7306 15.2165V15.2218ZM19.6615 15.2431C19.5073 15.2803 19.5339 14.9028 19.6828 14.7752C19.6083 15.0251 19.7785 15.2059 19.6615 15.2431ZM19.821 15.0144C19.6668 15.0517 19.7572 14.7273 19.8689 14.5997C19.8476 14.8336 19.9221 14.9985 19.8157 15.0144H19.821ZM19.9008 15.0144C19.8848 15.1846 20.1879 15.057 20.3049 14.8921C20.0497 14.9719 19.9167 14.8762 19.9008 15.0144ZM19.9806 14.8815C19.8848 14.8124 19.9859 14.6263 20.1773 14.6369C20.156 14.7486 20.0922 14.9506 19.9806 14.8815ZM19.2361 15.6631C19.2308 15.8333 19.6615 15.7482 19.7998 15.5674C19.5233 15.6206 19.2521 15.5249 19.2414 15.6631H19.2361ZM20.9589 15.3547C20.943 15.5249 21.4162 15.3335 21.5332 15.174C21.2833 15.259 20.9749 15.2165 20.9589 15.3547ZM20.6718 15.4239C20.5708 15.3547 20.7728 15.1739 20.9377 15.1314C20.9164 15.2431 20.7781 15.493 20.6718 15.4292V15.4239ZM20.6399 15.5462C20.6293 15.7004 21.145 15.6153 21.278 15.4717C20.8366 15.5515 20.6558 15.4132 20.6399 15.5462Z" fill="white" stroke="#BD6B00" stroke-width="0.0265865"/>
<path fill-rule="evenodd" clip-rule="evenodd" d="M20.3952 15.6472C20.342 15.7908 20.8365 15.7535 21.012 15.6738C20.7301 15.6738 20.4377 15.5462 20.3952 15.6472Z" fill="white" stroke="#BD6B00" stroke-width="0.0265865"/>
<path fill-rule="evenodd" clip-rule="evenodd" d="M20.1665 15.7535C20.1133 15.8812 20.5706 15.8812 20.7939 15.8067C20.4962 15.8067 20.2197 15.6259 20.1665 15.7535ZM19.8315 15.8227C19.7464 15.9769 20.2356 15.9875 20.3898 15.9131C20.1133 15.8758 19.9006 15.7004 19.8315 15.8227ZM20.4005 15.5621C20.5547 15.6578 20.544 15.3707 20.6663 15.174C20.4749 15.3494 20.2941 15.4717 20.4005 15.5621Z" fill="white" stroke="#BD6B00" stroke-width="0.0265865"/>
<path fill-rule="evenodd" clip-rule="evenodd" d="M20.124 15.6686C20.2517 15.7802 20.358 15.3868 20.475 15.1634C20.2836 15.3761 20.0071 15.5729 20.124 15.6633V15.6686ZM19.7625 15.7749C19.8688 15.9025 20.1878 15.4027 20.3048 15.1368C20.1294 15.3442 19.6774 15.6686 19.7625 15.7749ZM20.0709 16.1578C20.124 16.3492 20.9323 15.977 21.028 15.7802C20.5601 16.0248 20.0602 15.9717 20.0709 16.1524V16.1578ZM22.6604 12.2336C22.6817 12.207 22.7348 12.2336 22.7242 12.2921C22.7082 12.3718 22.5913 12.7813 22.3892 12.9195C22.2456 13.0259 21.4853 13.1907 21.145 13.2652C20.9535 13.3024 20.7993 13.3981 20.6717 13.547C20.7154 13.3705 20.7687 13.1966 20.8312 13.0259C20.895 12.8664 21.0652 12.6962 21.246 12.6909C21.5703 12.6749 21.9957 12.6483 22.3094 12.5154C22.4515 12.4555 22.5747 12.3581 22.6657 12.2336H22.6604Z" fill="white" stroke="#BD6B00" stroke-width="0.0265865"/>
<path fill-rule="evenodd" clip-rule="evenodd" d="M20.7834 13.8554C20.677 13.9298 20.5654 13.6586 20.693 13.3981C20.6983 13.648 20.8951 13.7331 20.7834 13.8554Z" fill="white" stroke="#BD6B00" stroke-width="0.0265865"/>
<path fill-rule="evenodd" clip-rule="evenodd" d="M20.6824 14.1053C20.5389 14.1478 20.4963 13.8926 20.5867 13.6906C20.5708 13.9086 20.8154 14.0415 20.6824 14.1053Z" fill="white" stroke="#BD6B00" stroke-width="0.0265865"/>
<path fill-rule="evenodd" clip-rule="evenodd" d="M20.5706 14.3073C20.4324 14.3765 20.3845 14.1159 20.4802 13.9298C20.4696 14.1691 20.677 14.2435 20.5706 14.302V14.3073Z" fill="white" stroke="#BD6B00" stroke-width="0.0265865"/>
<path fill-rule="evenodd" clip-rule="evenodd" d="M20.6293 14.3232C20.6825 14.4827 21.0015 14.1796 21.0547 14.0148C20.8579 14.2115 20.5921 14.1849 20.6293 14.3179V14.3232Z" fill="white" stroke="#BD6B00" stroke-width="0.0265865"/>
<path fill-rule="evenodd" clip-rule="evenodd" d="M20.7727 14.0733C20.8365 14.2328 21.2353 13.8075 21.3257 13.6107C21.1289 13.8075 20.7301 13.9563 20.7727 14.068V14.0733Z" fill="white" stroke="#BD6B00" stroke-width="0.0265865"/>
<path fill-rule="evenodd" clip-rule="evenodd" d="M20.8525 13.8234C20.9163 14.0095 21.347 13.515 21.4746 13.3396C21.2619 13.531 20.8046 13.6905 20.8525 13.8234ZM20.8684 13.6427C20.7089 13.6107 20.8738 13.4831 21.0652 13.2758C21.0705 13.4938 21.0386 13.648 20.8684 13.6427Z" fill="white" stroke="#BD6B00" stroke-width="0.0265865"/>
<path fill-rule="evenodd" clip-rule="evenodd" d="M21.129 13.5151C21.0599 13.446 21.1875 13.4141 21.347 13.2333C21.3736 13.3556 21.1982 13.5789 21.1237 13.5151H21.129ZM20.3846 14.3233C20.2995 14.3765 20.2464 14.201 20.3474 14.0468C20.374 14.217 20.4591 14.2595 20.3846 14.3233ZM22.2031 13.2439C22.3786 13.3502 22.6604 12.9249 22.7349 12.7494C22.5807 12.9514 22.1712 13.1322 22.2031 13.2439Z" fill="white" stroke="#BD6B00" stroke-width="0.0265865"/>
<path fill-rule="evenodd" clip-rule="evenodd" d="M22.0489 13.4884C22.1499 13.5948 22.4584 13.3023 22.5647 13.1534C22.4052 13.297 22.0064 13.313 22.0489 13.4884Z" fill="white" stroke="#BD6B00" stroke-width="0.0265865"/>
<path fill-rule="evenodd" clip-rule="evenodd" d="M21.8841 13.7117C21.916 13.8606 22.3626 13.5256 22.469 13.3661C22.2776 13.5522 21.8522 13.5362 21.8841 13.7117Z" fill="white" stroke="#BD6B00" stroke-width="0.0265865"/>
<path fill-rule="evenodd" clip-rule="evenodd" d="M21.9533 13.8767C22.0224 14.0096 22.3893 13.6746 22.4797 13.5045C22.2511 13.6959 21.8948 13.7438 21.948 13.8767H21.9533ZM22.1394 13.2227C22.0278 13.1004 22.0756 13.0419 22.1607 12.8505C22.2032 13.0472 22.2724 13.127 22.1394 13.2227ZM21.9852 13.4513C21.7725 13.462 21.9852 13.2067 22.0384 12.9887C22.0171 13.2333 22.0916 13.43 21.9852 13.4513Z" fill="white" stroke="#BD6B00" stroke-width="0.0265865"/>
<path fill-rule="evenodd" clip-rule="evenodd" d="M21.8521 13.6534C21.7085 13.6215 21.7458 13.4141 21.8627 13.1642C21.8362 13.4354 21.985 13.5896 21.8521 13.6534ZM21.9053 14.0628C21.9585 14.2223 22.3732 13.8501 22.437 13.7012C22.2243 13.882 21.8681 13.9405 21.9053 14.0628Z" fill="white" stroke="#BD6B00" stroke-width="0.0265865"/>
<path fill-rule="evenodd" clip-rule="evenodd" d="M21.6555 14.3179C21.714 14.4774 22.15 14.1477 22.283 13.9669C22.0224 14.1796 21.6236 14.1583 21.6555 14.3179Z" fill="white" stroke="#BD6B00" stroke-width="0.0265865"/>
<path fill-rule="evenodd" clip-rule="evenodd" d="M21.4002 14.5784C21.4694 14.807 21.9266 14.4401 22.0596 14.2593C21.7724 14.4827 21.3683 14.4189 21.4002 14.5784ZM21.8256 13.9935C21.7033 14.052 21.6555 13.7063 21.7246 13.4564C21.7246 13.7223 21.9745 13.9243 21.8309 13.9882L21.8256 13.9935Z" fill="white" stroke="#BD6B00" stroke-width="0.0265865"/>
<path fill-rule="evenodd" clip-rule="evenodd" d="M21.6183 14.27C21.4694 14.3125 21.5119 13.935 21.6449 13.6851C21.6608 13.935 21.7672 14.1636 21.6183 14.27ZM21.3524 14.5305C21.1929 14.5359 21.2993 14.2062 21.4375 14.0201C21.4162 14.2594 21.4907 14.4986 21.3524 14.5305ZM21.6449 14.6688C21.6981 14.7539 21.815 14.5997 22.0171 14.4827C21.8363 14.5359 21.6236 14.589 21.6449 14.6688ZM21.7406 11.8666C21.5811 11.7496 21.7034 11.5369 21.7406 11.3348C21.7938 11.5263 21.9214 11.7815 21.7406 11.8666ZM21.7406 12.1484C21.9799 12.1218 21.9426 11.824 21.9533 11.6326C21.8788 11.8932 21.6874 11.9357 21.7406 12.1537V12.1484ZM21.7087 12.1112C21.5119 12.1005 21.5226 11.8772 21.5119 11.6539C21.613 11.8613 21.7246 11.8932 21.7087 12.1112Z" fill="white" stroke="#BD6B00" stroke-width="0.0265865"/>
<path fill-rule="evenodd" clip-rule="evenodd" d="M21.7139 12.3878C21.8734 12.4037 21.9478 12.2495 21.9797 12.0156C21.8362 12.2336 21.7086 12.1645 21.7139 12.3878ZM21.6607 12.3718C21.464 12.3984 21.5012 12.1698 21.5012 11.9996C21.565 12.1592 21.7245 12.2123 21.6607 12.3718Z" fill="white" stroke="#BD6B00" stroke-width="0.0265865"/>
<path fill-rule="evenodd" clip-rule="evenodd" d="M21.9692 12.276C21.9533 12.4249 21.8576 12.6801 21.7034 12.6216C21.6449 12.4408 21.8416 12.4036 21.9692 12.276Z" fill="white" stroke="#BD6B00" stroke-width="0.0265865"/>
<path fill-rule="evenodd" clip-rule="evenodd" d="M21.6607 12.6376C21.7245 12.51 21.5012 12.4409 21.4587 12.2707C21.4321 12.5153 21.4534 12.6748 21.6607 12.6429V12.6376ZM22.2935 11.085C22.1712 10.9574 22.2775 10.7447 22.3148 10.5426C22.3679 10.734 22.4477 10.9893 22.2935 11.085ZM22.2935 11.3296C22.5062 11.3561 22.5594 10.9201 22.5859 10.7287C22.5115 10.9893 22.2669 11.1009 22.2935 11.3349V11.3296ZM22.2509 11.3296C22.1021 11.2498 22.134 11.0796 22.0914 10.9574C22.1871 11.1116 22.2829 11.1328 22.2509 11.3296Z" fill="white" stroke="#BD6B00" stroke-width="0.0265865"/>
<path fill-rule="evenodd" clip-rule="evenodd" d="M22.2988 11.6167C22.5168 11.6327 22.6498 11.1488 22.6604 10.9574C22.5913 11.2179 22.2669 11.3562 22.2935 11.6167H22.2988ZM22.251 11.6061C22.0383 11.5583 22.0649 11.42 22.0968 11.202C22.1659 11.4253 22.2829 11.3775 22.251 11.6061Z" fill="white" stroke="#BD6B00" stroke-width="0.0265865"/>
<path fill-rule="evenodd" clip-rule="evenodd" d="M22.299 11.8931C22.5436 11.9357 22.5276 11.5422 22.7244 11.2604C22.5542 11.4731 22.2458 11.7389 22.299 11.8931ZM22.2458 11.8772C22.0544 11.8878 22.0331 11.606 22.0438 11.489C22.0916 11.606 22.3096 11.7123 22.2405 11.8825L22.2458 11.8772Z" fill="white" stroke="#BD6B00" stroke-width="0.0265865"/>
<path fill-rule="evenodd" clip-rule="evenodd" d="M22.6816 11.5902C22.5912 11.8933 22.4583 12.1964 22.2988 12.1751C22.219 11.9996 22.453 11.9784 22.6816 11.5902Z" fill="white" stroke="#BD6B00" stroke-width="0.0265865"/>
<path fill-rule="evenodd" clip-rule="evenodd" d="M22.2404 12.1273C22.3042 11.9943 22.0809 11.9305 22.0383 11.7604C22.0117 12.005 22.033 12.1645 22.2404 12.1273ZM22.6179 11.9358C22.485 12.207 22.4265 12.5207 22.2457 12.4729C22.1766 12.2602 22.4478 12.2177 22.6179 11.9358Z" fill="white" stroke="#BD6B00" stroke-width="0.0265865"/>
<path fill-rule="evenodd" clip-rule="evenodd" d="M22.2085 12.4251C22.2882 12.2762 22.0649 12.2283 22.0064 12.0316C21.9798 12.2868 22.0064 12.4729 22.2085 12.4197V12.4251ZM21.8256 10.5906C21.698 10.6225 21.5598 10.4789 21.6076 10.2609C21.7565 10.2928 21.8203 10.4311 21.8256 10.5906ZM22.2457 10.4789C22.2351 10.5427 22.1553 10.548 22.1819 10.4576C22.2017 10.399 22.2017 10.3355 22.1819 10.2769C22.1563 10.1973 22.1563 10.1118 22.1819 10.0323C22.2031 9.97909 22.2776 10.011 22.2457 10.0535C22.2138 10.1014 22.2085 10.2024 22.2351 10.2503C22.267 10.3194 22.2563 10.4098 22.2457 10.4789ZM21.028 11.3297C21.0812 11.3988 21.1822 11.351 21.1025 11.2499C21.0387 11.1702 20.9429 11.101 20.9429 11.016C20.9323 10.9096 20.8738 10.7501 20.8153 10.6916C20.7568 10.6331 20.6877 10.7129 20.7515 10.7554C20.8206 10.798 20.8685 10.9894 20.8632 11.0638C20.8685 11.1702 20.9695 11.2499 21.028 11.3297ZM21.1875 11.2074C21.2407 11.2818 21.3152 11.234 21.2726 11.117C21.2354 11.0372 21.2301 10.9309 21.1875 10.8724C21.1237 10.782 21.028 10.7076 20.9695 10.6491C20.9057 10.5959 20.8632 10.6491 20.9164 10.7022C20.9815 10.7673 21.0403 10.8386 21.0918 10.9149C21.1663 11.0319 21.1344 11.1276 21.1875 11.2074ZM22.0224 10.8245C22.0277 10.9309 21.9426 10.9522 21.9479 10.8033C21.9479 10.6438 22.0649 10.4949 22.0011 10.2556C21.9586 10.1386 21.9586 9.9206 21.9798 9.80894C22.0011 9.69196 22.0862 9.7664 22.0489 9.85679C22.017 9.96314 22.0543 10.1546 22.0808 10.2556C22.1606 10.5427 22.017 10.681 22.0277 10.8245H22.0224ZM21.7937 10.2396C21.8043 10.3407 21.8894 10.346 21.8628 10.2131C21.8416 10.1067 21.8416 10.0216 21.8628 9.93124C21.8947 9.81957 21.8841 9.62815 21.8628 9.54839C21.8363 9.46331 21.7565 9.51117 21.7884 9.57498C21.8255 9.67549 21.8311 9.78494 21.8043 9.8887C21.7724 9.99504 21.7778 10.1439 21.7937 10.245V10.2396ZM22.6232 12.2124C22.5807 12.2602 22.5169 12.2283 22.57 12.1592C22.6232 12.106 22.6073 12.0954 22.6392 12.0316C22.6711 11.9571 22.6658 11.9199 22.703 11.8721C22.7402 11.8189 22.788 11.8721 22.7561 11.9093C22.7136 11.9624 22.7242 11.9943 22.703 12.0422C22.6498 12.122 22.6658 12.1645 22.6232 12.2124ZM21.5385 13.5204C21.4735 13.5563 21.4182 13.6075 21.3775 13.6696C21.3367 13.7317 21.3117 13.8028 21.3045 13.8767C21.299 14.0091 21.2625 14.1384 21.1982 14.2542C21.3045 14.2276 21.3577 14.0575 21.3736 13.8926C21.3896 13.7225 21.48 13.6533 21.5332 13.5204H21.5385ZM21.2673 13.8341C21.1769 13.999 21.0546 14.0628 21.044 14.1851C21.0333 14.3286 21.0227 14.334 20.9855 14.4722C21.0918 14.4456 21.1184 14.435 21.145 14.2223C21.161 14.0734 21.2833 13.9724 21.2673 13.8341Z" fill="white" stroke="#BD6B00" stroke-width="0.0265865"/>
<path fill-rule="evenodd" clip-rule="evenodd" d="M18.4704 15.3654C18.4173 15.4612 18.3641 15.6047 18.2577 15.5781C18.2577 15.509 18.3694 15.4558 18.4704 15.3654ZM18.3109 15.3973C18.1142 15.4824 17.9387 15.4612 17.9121 15.5888C18.1035 15.61 18.178 15.5356 18.3162 15.3973H18.3109ZM19.167 14.722C19.0349 14.8248 18.9412 14.969 18.9011 15.1315C18.8583 15.2785 18.7937 15.4182 18.7097 15.5462C18.848 15.4533 18.9481 15.3136 18.9915 15.1527C19.0287 14.9932 19.0766 14.8709 19.167 14.7274V14.722ZM19.0022 14.722C18.8533 14.839 18.715 14.9773 18.6725 15.1421C18.6299 15.2963 18.6034 15.4133 18.5023 15.5675C18.6618 15.4665 18.7203 15.3176 18.7682 15.1527C18.8054 14.9932 18.9011 14.8762 19.0022 14.7274V14.722ZM18.513 15.1102C18.515 15.0969 18.5125 15.0833 18.5057 15.0717C18.4989 15.0601 18.4883 15.0511 18.4757 15.0464C18.4303 15.0303 18.3841 15.0162 18.3375 15.0039C18.2843 14.9879 18.2524 15.0251 18.2524 15.0517V15.1581C18.2524 15.1953 18.2631 15.2006 18.2896 15.2059C18.3269 15.2112 18.38 15.2166 18.4173 15.2431C18.4492 15.2644 18.4811 15.2485 18.497 15.2166L18.513 15.1102ZM17.9493 15.1102C17.9493 15.0783 17.96 15.0517 17.9812 15.0464C18.0216 15.0297 18.0652 15.0224 18.1088 15.0251C18.162 15.0251 18.1673 15.0358 18.1673 15.057V15.1687C18.1673 15.2112 18.1673 15.2112 18.1461 15.2219C18.1088 15.2219 18.0504 15.2219 18.0131 15.2538C17.9866 15.2697 17.96 15.2538 17.9546 15.2219L17.9493 15.1102Z" fill="white"/>
<path fill-rule="evenodd" clip-rule="evenodd" d="M19.3977 16.6043C19.3977 16.6681 19.4083 16.7213 19.4508 16.7691C19.2076 16.6956 18.9456 16.7165 18.7171 16.8276C18.6213 16.8701 18.5044 16.7744 18.616 16.684C18.7755 16.5617 19.1318 16.6309 19.3977 16.6043ZM16.3402 16.6043C16.3448 16.6584 16.3376 16.7128 16.3189 16.7638C16.5529 16.6734 16.8028 16.7532 17.0421 16.8489C17.2016 16.918 17.2176 16.7957 17.191 16.7585C17.1616 16.714 17.1223 16.6769 17.0761 16.6502C17.03 16.6234 16.9783 16.6077 16.9251 16.6043H16.3402ZM16.5423 15.4504C16.4731 15.4238 16.3987 15.4504 16.3296 15.5249C16.1009 15.7482 15.8298 15.9662 15.6117 16.1417C15.532 16.2108 15.4522 16.3384 15.7925 16.4607C15.8085 16.4713 16.0584 16.567 16.2179 16.567C16.287 16.567 16.287 16.6628 16.2711 16.6893C16.2445 16.7425 16.2658 16.7638 16.2126 16.8116C16.1541 16.8648 16.2126 16.9233 16.2658 16.8808C16.4572 16.7106 16.7762 16.8223 17.0793 16.918C17.1538 16.9393 17.2814 16.9339 17.2814 16.8329C17.2814 16.7266 17.3611 16.6521 17.409 16.6468C17.5366 16.6681 18.1534 16.6734 18.3395 16.6521C18.4459 16.6362 18.4565 16.8063 18.515 16.8648C18.5575 16.9127 18.7117 16.9233 18.8234 16.8755C19.0361 16.7797 19.3551 16.7797 19.4881 16.8755C19.5412 16.9127 19.5891 16.8755 19.5572 16.8382C19.5146 16.7851 19.52 16.7532 19.4987 16.7106C19.4455 16.6043 19.4881 16.583 19.5412 16.5777C20.1261 16.4979 20.3176 16.3012 20.1368 16.1363C19.9028 15.9343 19.6476 15.7269 19.4243 15.4876C19.3604 15.4238 19.3179 15.3972 19.1956 15.4504C18.7722 15.6424 18.315 15.749 17.8503 15.7641C17.4002 15.7351 16.958 15.6308 16.5423 15.4557V15.4504Z" fill="white"/>
<path fill-rule="evenodd" clip-rule="evenodd" d="M19.2968 15.4823L19.2117 15.5036C18.7331 15.6737 18.2971 15.7907 17.8451 15.7907C17.4038 15.7907 16.9412 15.6631 16.5211 15.4929C16.4953 15.484 16.4672 15.484 16.4414 15.4929C16.4148 15.4983 16.3882 15.5142 16.3722 15.5302C16.1757 15.7267 15.9661 15.9097 15.7448 16.0778C15.7076 16.1044 15.7129 16.1735 15.7714 16.1948C16.2127 16.3543 16.6434 16.6468 17.877 16.6362C19.1266 16.6255 19.5679 16.3384 19.9614 16.2055C19.988 16.1948 20.0146 16.1789 20.0305 16.1523C20.0343 16.1459 20.0368 16.1389 20.0377 16.1316C20.0386 16.1242 20.038 16.1168 20.0359 16.1097C20.029 16.0931 20.018 16.0785 20.004 16.0672C19.7753 15.8811 19.536 15.7322 19.3765 15.5142C19.3606 15.4876 19.3287 15.4823 19.2968 15.4876V15.4823ZM19.2968 15.5089C19.3233 15.5089 19.3499 15.5089 19.3552 15.5248C19.5148 15.7535 19.7647 15.897 19.988 16.0832L20.0093 16.1204C20.0107 16.1237 20.0115 16.1274 20.0115 16.131C20.0115 16.1347 20.0107 16.1383 20.0093 16.1416C20.004 16.1576 19.9774 16.1735 19.9561 16.1789C19.552 16.3171 19.1213 16.6042 17.8823 16.6149C16.6487 16.6255 16.2234 16.3331 15.782 16.1735C15.7395 16.1523 15.7448 16.1097 15.7607 16.0991C15.9841 15.929 16.1968 15.7375 16.3882 15.5461C16.4047 15.5307 16.4248 15.5197 16.4467 15.5142H16.5105C16.9307 15.6968 17.3818 15.7978 17.8398 15.812C18.3024 15.812 18.7438 15.695 19.2223 15.5302C19.248 15.52 19.2747 15.5129 19.3021 15.5089H19.2968Z" fill="#BD6B00"/>
<path fill-rule="evenodd" clip-rule="evenodd" d="M16.2711 7.45854C16.2711 7.3841 16.3775 7.37878 16.3668 7.47981C16.3509 7.60211 16.6061 7.92114 16.6274 8.11788C16.6433 8.25082 16.5476 8.36248 16.4572 8.43692C16.4051 8.47385 16.3439 8.49584 16.2802 8.50052C16.2164 8.50521 16.1526 8.49241 16.0957 8.46351C16.0478 8.42097 16.0053 8.28804 16.0425 8.23487C16.0531 8.21891 16.1116 8.43161 16.2392 8.43161C16.4147 8.43161 16.5583 8.29867 16.5583 8.18169C16.5689 7.97963 16.2765 7.6606 16.2711 7.45854ZM16.7763 7.95837C16.8082 7.9371 16.8507 8.02749 16.8188 8.04876C16.7922 8.06471 16.7391 7.97964 16.7763 7.95305V7.95837ZM16.856 7.77226C16.8401 7.78289 16.8135 7.77226 16.8188 7.76163C16.8699 7.69063 16.9351 7.63091 17.0102 7.58615C17.0315 7.57552 17.0634 7.60742 17.0528 7.62338C16.9985 7.68643 16.9315 7.73719 16.856 7.77226ZM17.526 7.24053C17.542 7.20863 17.6377 7.17141 17.6643 7.15014C17.6855 7.12355 17.6962 7.17141 17.6855 7.18736C17.6696 7.22458 17.5845 7.27775 17.5473 7.28307C17.5313 7.28307 17.5154 7.2618 17.526 7.24585V7.24053ZM17.7547 7.25648C17.7827 7.18577 17.8285 7.1235 17.8876 7.07569C17.9142 7.05974 17.9567 7.07569 17.9461 7.09696C17.91 7.16729 17.857 7.22758 17.7919 7.27243C17.7759 7.28839 17.7493 7.27243 17.7547 7.25648ZM17.5579 7.40005C17.542 7.41068 17.5526 7.43727 17.5632 7.44259C17.5951 7.45322 17.643 7.45322 17.6696 7.44259C17.7015 7.42132 17.6855 7.28839 17.643 7.35751C17.6111 7.40005 17.5898 7.38941 17.5579 7.40005ZM17.1698 7.69782C17.1006 7.64465 17.191 7.5702 17.2602 7.62338C17.4037 7.72972 17.0475 8.14447 16.856 8.33589C16.8188 8.37312 16.7869 8.28272 16.8348 8.23487C16.9732 8.11888 17.0933 7.98264 17.191 7.83075C17.2123 7.80416 17.2283 7.74567 17.1698 7.69782ZM17.9833 7.34688C17.9886 7.2937 17.8982 7.34688 17.8982 7.27775C17.8982 7.24053 17.9993 7.21394 18.0418 7.25648C18.1109 7.33092 18.0578 7.45322 17.9355 7.46386C17.8397 7.46386 17.6696 7.60742 17.6962 7.63401C17.7228 7.67123 17.9833 7.6925 18.1375 7.67123C18.2332 7.65528 18.212 7.74036 18.1162 7.75099C18.0205 7.76163 17.9461 7.75099 17.861 7.78289C17.7547 7.80948 17.7121 7.94241 17.6536 7.99559C17.643 8.00622 17.6111 7.95305 17.6217 7.93178C17.6643 7.86797 17.7281 7.77226 17.8025 7.74036C17.8451 7.7244 17.6749 7.71909 17.6217 7.70314C17.5792 7.6925 17.5898 7.63401 17.6058 7.60211C17.627 7.55957 17.7866 7.39473 17.8557 7.40005C17.9142 7.40005 17.978 7.3841 17.9833 7.34688ZM18.2492 7.35751C18.2811 7.33092 18.3023 7.28839 18.3289 7.2618C18.3449 7.24585 18.3768 7.2618 18.3715 7.30434C18.3662 7.34156 18.3183 7.36815 18.2917 7.39473C18.2651 7.41068 18.2385 7.37346 18.2545 7.35751H18.2492ZM18.5948 7.23521C18.6427 7.23521 18.648 7.32029 18.6054 7.33092C18.5735 7.34156 18.5523 7.24053 18.5948 7.23521ZM18.4831 7.50108C18.4831 7.58084 18.5204 7.57552 18.5895 7.5702C18.6586 7.5702 18.7171 7.5702 18.7171 7.5064C18.7171 7.43727 18.6799 7.37346 18.6639 7.42132C18.6586 7.46386 18.648 7.5383 18.6214 7.5064C18.6001 7.47981 18.6107 7.47449 18.5682 7.51703C18.5416 7.54362 18.5416 7.5064 18.5257 7.48513C18.515 7.46917 18.4831 7.49576 18.4831 7.5064V7.50108ZM17.9939 7.88392C17.978 7.98495 17.9939 8.1232 18.0418 8.1232C18.1056 8.1232 18.2332 7.91051 18.297 7.79353C18.3342 7.72972 18.3927 7.71909 18.3662 7.78821C18.3289 7.88924 18.3343 8.10725 18.3662 8.17106C18.3874 8.20296 18.5257 8.13915 18.5469 8.0913C18.5895 8.0009 18.5523 7.83607 18.5682 7.73504C18.5735 7.67123 18.6373 7.65528 18.632 7.71909C18.6236 7.85185 18.6219 7.98495 18.6267 8.11788C18.6267 8.17106 18.7809 8.2455 18.8022 8.08598C18.8128 7.99027 18.866 7.88924 18.8022 7.78289C18.7596 7.71377 18.8607 7.71909 18.9138 7.8148C18.9511 7.87861 18.8819 7.98495 18.8872 8.06471C18.8872 8.19233 18.7915 8.26677 18.7224 8.26677C18.6586 8.26677 18.6161 8.18701 18.5629 8.18701C18.5097 8.18701 18.4459 8.2774 18.4034 8.27209C18.212 8.26145 18.313 7.99027 18.2545 7.98495C18.1907 7.98495 18.1216 8.25082 18.0418 8.2455C17.9674 8.23487 17.8823 8.02217 17.9195 7.9371C17.9461 7.85202 17.9993 7.83075 17.9939 7.88392ZM18.8926 7.45854C18.8022 7.40537 18.8926 7.2618 18.9404 7.30966C19.0255 7.416 19.1106 7.65528 19.1744 7.67655C19.2116 7.68718 19.2063 7.49576 19.2329 7.41068C19.2541 7.34156 19.3286 7.36283 19.318 7.44791C19.3126 7.47449 19.2116 7.78821 19.2222 7.79885C19.2931 7.93155 19.3518 8.07036 19.3977 8.2136C19.4137 8.2774 19.3392 8.23487 19.3286 8.22423C19.2807 8.14979 19.201 7.87861 19.201 7.89456L19.1106 8.30399C19.0999 8.35716 19.0202 8.34653 19.0415 8.25082C19.0574 8.17638 19.1637 7.80948 19.1584 7.79353C19.0975 7.66242 19.0064 7.54762 18.8926 7.45854Z" fill="white"/>
<path fill-rule="evenodd" clip-rule="evenodd" d="M19.0521 8.3412C19.0308 8.3412 18.9882 8.39437 19.1159 8.42096C19.2807 8.45286 19.4668 8.39437 19.52 8.22953C19.5891 8.03279 19.6263 7.84669 19.6635 7.77756C19.7061 7.6978 19.7593 7.70312 19.7167 7.58614C19.6901 7.49575 19.637 7.52233 19.6263 7.57019C19.5997 7.69249 19.4881 8.10192 19.4509 8.17104C19.387 8.30929 19.2541 8.36247 19.0521 8.3412Z" fill="white"/>
<path fill-rule="evenodd" clip-rule="evenodd" d="M19.3925 7.69258C19.3712 7.65535 19.3287 7.69258 19.3393 7.7298C19.3419 7.74482 19.3497 7.75843 19.3614 7.76819C19.3731 7.77794 19.3879 7.78318 19.4031 7.78297C19.4404 7.78297 19.5201 7.78829 19.5201 7.7298C19.5201 7.68726 19.4829 7.65004 19.4616 7.69789C19.435 7.74043 19.4085 7.73511 19.3925 7.69789V7.69258ZM19.4297 7.53306C19.4191 7.54369 19.4297 7.59155 19.4457 7.58623C19.5068 7.58667 19.567 7.57206 19.6211 7.54369C19.6318 7.53306 19.6265 7.50647 19.6105 7.50647C19.5573 7.50647 19.4723 7.50647 19.4297 7.53306ZM19.8976 7.65535C19.9402 7.59155 20.0465 7.58623 20.004 7.67662C19.8948 7.89588 19.7831 8.1139 19.669 8.33065C19.6265 8.40509 19.5946 8.36787 19.6265 8.30938C19.6637 8.23494 19.887 7.67131 19.8976 7.65535Z" fill="white"/>
<path fill-rule="evenodd" clip-rule="evenodd" d="M19.4882 8.43705C19.4776 8.39451 19.4084 8.3307 19.4191 8.44768C19.4297 8.64974 19.7115 8.58593 19.7913 8.51681C19.871 8.44768 19.8072 8.74545 19.9083 8.77735C19.9614 8.7933 20.0678 8.71886 20.121 8.64974C20.2645 8.46363 20.3602 8.19245 20.4932 8.01166C20.5463 7.93722 20.4666 7.88405 20.44 7.94254C20.3124 8.14459 20.1635 8.55934 19.9987 8.66569C19.8657 8.75077 19.9083 8.55934 19.903 8.49554C19.8976 8.453 19.8445 8.38919 19.7753 8.44768C19.7197 8.4922 19.6498 8.51489 19.5786 8.51149C19.5414 8.51149 19.5042 8.51149 19.4882 8.43705Z" fill="white"/>
<path fill-rule="evenodd" clip-rule="evenodd" d="M19.9879 8.06482C19.9879 8.04887 19.9294 8.04355 19.9347 8.10204C19.9347 8.14458 19.9879 8.15522 19.9932 8.15522C20.073 8.09141 19.9773 8.12331 19.9879 8.0595V8.06482ZM19.8656 8.29878C19.8497 8.29878 19.8337 8.35196 19.8763 8.35727L20.0836 8.34664C20.1049 8.34664 20.1155 8.29878 20.0624 8.3041C19.9986 8.3041 19.9188 8.28815 19.8656 8.3041V8.29878ZM16.5689 7.41611C16.5955 7.41611 16.654 7.49055 16.6487 7.51714C16.6487 7.52777 16.5848 7.51714 16.5689 7.50119C16.5529 7.48524 16.5583 7.41611 16.5689 7.41611ZM16.2871 7.96911C16.2339 8.00101 16.2977 8.0595 16.3403 8.03292C16.4891 7.93189 16.7125 7.83086 16.7656 7.63412C16.7816 7.57031 16.8401 7.46928 16.8986 7.44802C16.9517 7.42143 17.0368 7.54904 17.09 7.44802C17.1219 7.39484 17.2336 7.48524 17.2601 7.42675C17.292 7.35762 17.2761 7.3204 17.2761 7.24596C17.2761 7.20342 17.2389 7.19278 17.2123 7.26191C17.2017 7.29381 17.2123 7.32572 17.207 7.34699C17.1963 7.35762 17.1751 7.36826 17.1538 7.35762C17.1432 7.34699 17.1538 7.3204 17.1219 7.30445C17.1113 7.30445 17.09 7.29913 17.0794 7.31508C17.0421 7.38421 17.0262 7.44802 16.9677 7.36826C16.9198 7.31508 16.8933 7.20342 16.8613 7.3523C16.8507 7.40548 16.771 7.47992 16.7231 7.47992C16.6646 7.47992 16.6806 7.3204 16.5529 7.34699C16.4838 7.36294 16.4891 7.49055 16.4998 7.53309C16.5157 7.60222 16.7125 7.55436 16.6965 7.5969C16.6646 7.74047 16.4626 7.88403 16.2871 7.96911ZM15.0801 8.67099C15.0747 8.69758 15.1066 8.76139 15.1385 8.76671C15.1704 8.76671 15.1917 8.69758 15.1811 8.67099C15.1704 8.65504 15.0854 8.65504 15.0801 8.67099ZM15.2555 8.93154C15.2343 8.91027 15.1704 8.96876 15.2236 9.0113C15.2502 9.03789 15.3566 9.06979 15.3831 9.02194C15.4257 8.95813 15.3459 8.72948 15.3831 8.7029C15.4097 8.67631 15.532 8.85178 15.5958 8.86242C15.7394 8.88369 15.7022 8.61782 15.8617 8.63909C15.9627 8.64973 15.9734 8.52211 15.9574 8.43703C15.9468 8.35727 15.8192 8.24561 15.7607 8.19244C15.6862 8.12863 15.649 8.24561 15.6969 8.27751C15.7607 8.33069 15.8723 8.43172 15.8883 8.49552C15.8936 8.52743 15.8138 8.59124 15.7819 8.57528C15.7075 8.53274 15.6437 8.36259 15.5799 8.32537C15.5586 8.31473 15.5054 8.34132 15.5267 8.39449C15.5586 8.45298 15.6862 8.53806 15.6915 8.60187C15.6969 8.65504 15.6384 8.77202 15.5958 8.77202C15.548 8.77202 15.4363 8.62846 15.3991 8.55933C15.3778 8.53274 15.3193 8.53274 15.3087 8.5806C15.3052 8.67881 15.3142 8.77707 15.3353 8.87305C15.3459 8.95813 15.2874 8.96345 15.2555 8.93154ZM15.0428 8.47425C15.0216 8.49552 15.0854 8.53806 15.096 8.52743C15.1173 8.50616 15.2077 8.40513 15.1917 8.36791C15.1758 8.336 15.0535 8.26156 15.0322 8.29878C14.995 8.35727 15.1492 8.38918 15.1226 8.40513C15.0929 8.42426 15.066 8.44754 15.0428 8.47425ZM15.2608 8.0276C15.2608 8.0276 15.3034 8.16053 15.3353 8.10204C15.3566 8.06482 15.2608 8.0276 15.2608 8.0276ZM15.3246 8.24029C15.314 8.24029 15.2715 8.27751 15.2981 8.29347C15.3406 8.31474 15.4523 8.336 15.4257 8.25625C15.4097 8.20839 15.5958 8.25624 15.548 8.12863C15.5287 8.08928 15.4969 8.05746 15.4576 8.03824C15.4363 8.03824 15.3778 8.06482 15.415 8.08609C15.4416 8.09673 15.5214 8.14458 15.4948 8.17649C15.4576 8.20839 15.4363 8.16053 15.3938 8.17117C15.3725 8.17117 15.3885 8.23498 15.3725 8.25093C15.3725 8.26156 15.3353 8.22966 15.3246 8.23498V8.24029ZM15.6171 7.73515C15.5843 7.76226 15.5618 7.79979 15.5533 7.8415C15.5533 7.85213 15.5692 7.8734 15.5799 7.86808C15.6127 7.84323 15.6353 7.80734 15.6437 7.76705C15.6437 7.7511 15.6331 7.72451 15.6171 7.73515ZM15.766 7.7192C15.7234 7.66602 15.8192 7.58095 15.8564 7.69261C15.883 7.76174 16.1488 8.11268 16.202 8.22966C16.2445 8.30942 16.202 8.34132 16.1541 8.28283C16.0212 8.11268 15.9096 7.89999 15.766 7.7192ZM16.0425 7.72451C16.0903 7.67134 16.1861 7.565 16.1595 7.51182C16.1382 7.45865 16.0797 7.45865 16.0691 7.4746C16.0159 7.54373 16.1116 7.52777 16.0957 7.54904C16.0691 7.60222 16.0425 7.63412 16.0265 7.68729C16.0212 7.70325 16.0319 7.73515 16.0425 7.72451ZM20.1793 7.89467C20.1421 7.86808 20.2112 7.73515 20.2591 7.78832C20.3814 7.93189 20.4399 8.40513 20.4771 8.76139C20.4771 8.76139 20.4239 8.80924 20.4239 8.79861C20.4239 8.6125 20.3442 8.03292 20.1793 7.89467ZM17.3559 7.43738C17.3133 7.34167 17.4143 7.30977 17.4303 7.37357C17.4994 7.68198 17.6696 7.91594 17.8025 8.12331C17.8397 8.18712 17.8025 8.22966 17.7121 8.16585C17.6483 8.12331 17.5792 7.95848 17.5526 7.95316C17.4888 7.94252 17.3505 8.21902 17.0687 8.13926C16.9943 8.118 16.9996 7.89999 16.9943 7.80427C16.9943 7.75642 17.0475 7.7511 17.0475 7.80427C17.0475 7.89467 17.0475 8.08077 17.1591 8.09141C17.2548 8.09141 17.4569 7.96379 17.4994 7.85745C17.542 7.7511 17.3984 7.54373 17.3559 7.43206V7.43738Z" fill="white"/>
<path fill-rule="evenodd" clip-rule="evenodd" d="M20.2537 8.72412C20.275 8.66031 20.5781 8.14985 20.6206 8.03819C20.6419 7.98502 20.7269 8.1339 20.6419 8.21366C20.5674 8.27747 20.3494 8.63904 20.3069 8.76666C20.2856 8.81983 20.2324 8.79325 20.2537 8.72412Z" fill="white"/>
<path fill-rule="evenodd" clip-rule="evenodd" d="M20.7696 8.24009C20.8228 8.0274 20.961 8.27199 20.8387 8.38898C20.6579 8.56976 20.5995 8.91539 20.307 8.96856C20.2326 8.98451 20.0943 8.93134 20.0518 8.89944C20.0358 8.8888 20.0624 8.81436 20.1103 8.85158C20.1794 8.90475 20.3283 8.9207 20.408 8.8569C20.5818 8.68751 20.7067 8.47444 20.7696 8.24009ZM17.7387 8.91539C17.7228 8.93134 17.6856 8.93134 17.6803 8.95261C17.6643 9.02705 17.6803 9.06959 17.6643 9.14403C17.6484 9.21847 17.5952 9.21847 17.6005 9.15998C17.6005 9.08554 17.6696 8.97388 17.6218 8.96856C17.5899 8.96324 17.5686 8.9207 17.6005 8.89944C17.659 8.86221 17.6909 8.86753 17.7281 8.87817C17.7441 8.88348 17.7494 8.90475 17.7387 8.91539Z" fill="white"/>
<path fill-rule="evenodd" clip-rule="evenodd" d="M17.6961 8.80926C17.6216 8.8837 17.5472 8.91029 17.4781 8.99536C17.4462 9.02727 17.4515 9.07512 17.4302 9.12298C17.4143 9.17083 17.3558 9.17615 17.3398 9.17083C17.3132 9.14956 17.3186 9.06449 17.2867 9.10703C17.2547 9.15488 17.2388 9.21337 17.1963 9.21337C17.159 9.21337 17.0899 9.13361 17.1271 9.13361C17.2494 9.11766 17.2441 9.02727 17.2867 9.01663C17.3398 9.01131 17.3398 9.09639 17.377 9.08044C17.3983 9.0698 17.4143 8.96878 17.4409 8.94219C17.5206 8.85711 17.5844 8.81457 17.6695 8.75077C17.7067 8.71886 17.7386 8.77735 17.6961 8.81457V8.80926ZM17.9779 9.07512C17.9141 9.08576 17.9247 9.16552 17.946 9.17083C17.9726 9.18678 18.0204 9.1921 18.0364 9.10171C18.047 9.06449 18.0523 9.28781 18.1321 9.20274C18.1853 9.14956 18.2969 9.21337 18.3448 9.14956C18.382 9.10171 18.398 9.0698 18.3661 9.006C18.3554 8.99004 18.3129 8.99536 18.3129 9.04322C18.3129 9.08576 18.2863 9.13361 18.2438 9.12829C18.2225 9.12298 18.2544 9.02727 18.2331 9.00068C18.2282 8.99581 18.2215 8.99308 18.2145 8.99308C18.2076 8.99308 18.2009 8.99581 18.1959 9.00068C18.18 9.02195 18.2119 9.11766 18.164 9.12829C18.1002 9.13893 18.1321 9.06449 18.1108 9.05385C18.0204 9.01131 18.0151 9.06449 17.9779 9.0698V9.07512ZM18.4565 8.9156C18.5043 8.90497 18.4884 8.90497 18.5628 8.84648C18.5894 8.82521 18.5947 8.88902 18.5894 8.9156C18.5894 8.95282 18.5362 8.92624 18.5203 8.96346C18.499 9.01131 18.5096 9.12298 18.499 9.16552C18.499 9.18678 18.4565 9.18678 18.4565 9.16552C18.4458 9.11234 18.4618 9.05917 18.4565 8.99004C18.4565 8.96878 18.4299 8.93155 18.4565 8.92092V8.9156ZM18.1906 8.78267C18.18 8.83053 18.18 8.86775 18.18 8.90497C18.18 8.93155 18.2331 8.9156 18.2331 8.91028C18.2331 8.86775 18.2438 8.80394 18.2331 8.78799C18.2225 8.78267 18.1959 8.77204 18.1906 8.78267Z" fill="white"/>
<path fill-rule="evenodd" clip-rule="evenodd" d="M17.8557 8.28796L17.7813 8.58573L17.6749 8.38368V8.59105L17.441 8.31455L17.5207 8.61232L17.308 8.43153L17.425 8.63359L17.0528 8.39431L17.2868 8.67081L16.989 8.52193L17.2017 8.70271L16.7231 8.52193L17.1857 8.75057C17.3959 8.6549 17.6249 8.60766 17.8557 8.61232C18.1163 8.61232 18.3502 8.66549 18.5204 8.75057L18.9883 8.52193L18.5098 8.70271L18.7224 8.52193L18.43 8.67081L18.6586 8.39431L18.2864 8.63359L18.4034 8.43153L18.1907 8.607L18.2705 8.31455L18.0418 8.59105V8.38368L17.9355 8.58573L17.8557 8.28796Z" fill="white"/>
<path d="M15.565 14.75L15.55 14.88H15.53L15.525 14.79C15.5191 14.7626 15.5108 14.7358 15.5 14.71C15.4938 14.6876 15.4854 14.6658 15.475 14.645L15.425 14.575L15.465 14.465C15.4984 14.4991 15.524 14.54 15.54 14.585C15.5576 14.6365 15.566 14.6906 15.565 14.745M15.915 14.535C15.915 14.57 15.905 14.595 15.89 14.61C15.88 14.625 15.86 14.64 15.825 14.645L15.845 14.72C15.8501 14.7531 15.8501 14.7868 15.845 14.82C15.844 14.8417 15.8423 14.8634 15.84 14.885H15.82C15.8201 14.8632 15.8184 14.8415 15.815 14.82C15.8133 14.803 15.8099 14.7863 15.805 14.77L15.785 14.72C15.7751 14.6958 15.7634 14.6724 15.75 14.65L15.7 14.565L15.73 14.465L15.78 14.515C15.795 14.525 15.81 14.53 15.83 14.53C15.87 14.53 15.89 14.51 15.89 14.465H15.91V14.535M16.23 14.775L16.205 14.88C16.185 14.88 16.175 14.865 16.165 14.845L16.145 14.78C16.1414 14.7518 16.1398 14.7234 16.14 14.695C16.1239 14.7004 16.1071 14.7038 16.09 14.705C16.0667 14.7061 16.0437 14.699 16.025 14.685C16.0174 14.679 16.0112 14.6714 16.0069 14.6628C16.0026 14.6541 16.0002 14.6446 16 14.635C16 14.59 16.015 14.55 16.035 14.52C16.06 14.485 16.085 14.47 16.11 14.465C16.135 14.465 16.15 14.47 16.16 14.485C16.1686 14.4985 16.1737 14.514 16.175 14.53V14.63C16.175 14.675 16.18 14.705 16.19 14.725C16.19 14.74 16.205 14.755 16.23 14.775ZM16.13 14.6C16.13 14.57 16.115 14.56 16.09 14.56C16.0798 14.5585 16.0693 14.5602 16.06 14.565C16.05 14.57 16.05 14.575 16.05 14.58C16.05 14.595 16.065 14.605 16.1 14.605L16.13 14.6ZM16.565 14.75L16.55 14.88C16.525 14.86 16.5 14.83 16.48 14.78C16.4526 14.7136 16.4309 14.645 16.415 14.575C16.3901 14.6682 16.3601 14.76 16.325 14.85C16.314 14.864 16.3004 14.8759 16.285 14.885V14.76C16.315 14.725 16.33 14.705 16.335 14.685C16.3518 14.6584 16.3653 14.6298 16.375 14.6L16.4 14.465H16.42L16.465 14.6C16.475 14.63 16.49 14.66 16.51 14.68L16.56 14.75" fill="white"/>
<path d="M17.54 15.9699C17.56 15.9899 17.57 16.0099 17.575 16.0299L17.595 16.1099L17.555 16.1149C17.5413 16.0881 17.5245 16.0629 17.505 16.0399C17.4876 16.0191 17.4692 15.9991 17.45 15.9799C17.4223 15.9542 17.394 15.9292 17.365 15.9049C17.3328 15.8753 17.2994 15.847 17.265 15.8199C17.245 15.8099 17.235 15.7999 17.235 15.7949C17.227 15.7829 17.2219 15.7692 17.22 15.7549C17.2148 15.7285 17.2114 15.7018 17.21 15.6749L17.345 15.7849C17.388 15.82 17.4297 15.8567 17.47 15.8949L17.54 15.9699ZM17.065 15.6799L17.055 15.7799H16.9L16.915 15.6799H17.065ZM17.485 16.1249L17.105 16.2399L17.04 16.1399L17.365 16.0399L17.33 15.9999C17.3171 15.9871 17.3018 15.9769 17.285 15.9699C17.2852 15.9792 17.2835 15.9883 17.28 15.9969C17.2766 16.0055 17.2715 16.0133 17.265 16.0199C17.2517 16.0347 17.2343 16.0451 17.215 16.0499C17.1856 16.058 17.1545 16.058 17.125 16.0499C17.0997 16.047 17.0764 16.0345 17.06 16.0149C17.0378 15.9825 17.0256 15.9442 17.025 15.9049C17.025 15.8549 17.04 15.8249 17.07 15.8149C17.105 15.8049 17.16 15.8149 17.22 15.8499C17.2789 15.8773 17.3304 15.9185 17.37 15.9699L17.485 16.1249ZM17.195 15.9249C17.1823 15.9184 17.1689 15.9134 17.155 15.9099C17.1452 15.9071 17.1348 15.9071 17.125 15.9099C17.12 15.9105 17.1152 15.9121 17.1109 15.9147C17.1066 15.9173 17.1029 15.9208 17.1 15.9249C17.0968 15.9293 17.095 15.9345 17.095 15.9399C17.095 15.9453 17.0968 15.9506 17.1 15.9549L17.125 15.9649H17.155L17.175 15.9499L17.195 15.9249ZM16.795 15.8449L16.77 15.9449L16.61 15.9299L16.635 15.8299L16.795 15.8449ZM17.17 16.2299L17.085 16.2499C17.0569 16.2545 17.0282 16.2545 17 16.2499C16.9739 16.2488 16.9483 16.242 16.925 16.2299C16.91 16.2549 16.885 16.2799 16.85 16.2899C16.8246 16.303 16.7978 16.313 16.77 16.3199L16.71 16.3349L16.66 16.2349L16.715 16.2199C16.7372 16.2149 16.7589 16.2082 16.78 16.1999L16.825 16.1749L16.775 16.1499H16.74C16.7367 16.1491 16.7333 16.1491 16.73 16.1499C16.7252 16.1538 16.7217 16.159 16.72 16.1649H16.695C16.67 16.1249 16.665 16.0899 16.68 16.0649C16.695 16.0399 16.725 16.0249 16.78 16.0149C16.8223 16.0032 16.8664 15.9998 16.91 16.0049C16.95 16.0099 16.975 16.0249 16.985 16.0499C16.995 16.0599 16.995 16.0749 16.995 16.0849L16.975 16.1449H17C17.01 16.1464 17.0201 16.1464 17.03 16.1449L17.115 16.1299L17.17 16.2299ZM16.77 16.3199L16.69 16.3349C16.6521 16.3427 16.6127 16.3355 16.58 16.3149C16.5398 16.2807 16.5103 16.2355 16.495 16.1849L16.455 16.0749C16.4475 16.0543 16.4335 16.0368 16.415 16.0249C16.401 16.0149 16.3859 16.0065 16.37 15.9999L16.4 15.8949C16.43 15.9099 16.45 15.9249 16.47 15.9449L16.52 16.0299L16.545 16.1049L16.6 16.2149C16.615 16.2299 16.635 16.2349 16.65 16.2299L16.735 16.2199L16.77 16.3199ZM16.42 15.9449L16.37 16.0399L16.22 16.0049L16.27 15.9099L16.42 15.9449ZM16.51 16.3649L16.135 16.3999L16.115 16.2999L16.425 16.2649C16.4181 16.2496 16.4078 16.2359 16.395 16.2249C16.3791 16.2138 16.3624 16.2037 16.345 16.1949L16.37 16.0949C16.405 16.1149 16.43 16.1399 16.45 16.1599C16.465 16.1849 16.48 16.2199 16.49 16.2649L16.51 16.3649ZM16.21 16.4149C16.1732 16.414 16.1364 16.4106 16.1 16.4049C16.071 16.399 16.0426 16.3906 16.015 16.3799C15.9942 16.3892 15.9724 16.3959 15.95 16.3999C15.9217 16.4024 15.8933 16.4024 15.865 16.3999H15.765C15.7441 16.4 15.7234 16.3949 15.705 16.3849C15.69 16.3749 15.68 16.3599 15.665 16.3349C15.644 16.357 15.6184 16.374 15.59 16.3849L15.505 16.3899H15.42L15.43 16.2849H15.515C15.555 16.2849 15.59 16.2849 15.62 16.2649C15.6385 16.258 15.6546 16.2458 15.6662 16.2298C15.6777 16.2138 15.6843 16.1947 15.685 16.1749L15.72 16.1799C15.7179 16.2016 15.7162 16.2232 15.715 16.2449C15.715 16.2599 15.715 16.2699 15.73 16.2799C15.745 16.2899 15.76 16.2949 15.78 16.2949H15.855C15.905 16.2949 15.935 16.2949 15.955 16.2849C15.985 16.2749 16 16.2599 16.005 16.2299L16.01 16.2099C16.01 16.2099 16.025 16.2099 16.035 16.1999L16.06 16.1899V16.2099C16.0601 16.2149 16.0601 16.2199 16.06 16.2249L16.045 16.2799C16.0776 16.291 16.111 16.2994 16.145 16.3049C16.15 16.2949 16.145 16.2849 16.14 16.2699L16.125 16.2399C16.125 16.2345 16.1268 16.2293 16.13 16.2249L16.145 16.2149L16.195 16.1699L16.22 16.2199V16.2699L16.21 16.4149ZM15.645 15.9799L15.545 16.0449L15.48 15.9999L15.41 16.0499L15.315 15.9999L15.405 15.9349L15.48 15.9749L15.555 15.9249L15.645 15.9749M15.495 16.3849L15.13 16.3249L15.17 16.2249L15.48 16.2749C15.48 16.2549 15.48 16.2399 15.47 16.2249C15.4629 16.2109 15.4545 16.1975 15.445 16.1849L15.525 16.0999C15.545 16.1299 15.555 16.1499 15.56 16.1799C15.56 16.2049 15.55 16.2399 15.535 16.2849L15.495 16.3849ZM15.19 16.3349L15.11 16.3199C15.065 16.3099 15.04 16.2899 15.035 16.2599C15.025 16.2299 15.04 16.1849 15.075 16.1199L15.135 16.0199C15.15 15.9949 15.155 15.9749 15.15 15.9599C15.1471 15.9475 15.142 15.9356 15.135 15.9249L15.245 15.8449C15.26 15.8699 15.26 15.8949 15.26 15.9149C15.26 15.9399 15.245 15.9699 15.225 16.0049L15.185 16.0749C15.1626 16.1081 15.1473 16.1455 15.14 16.1849C15.14 16.2049 15.15 16.2149 15.165 16.2199L15.245 16.2399L15.19 16.3349ZM15 15.9349L14.875 15.9899L14.785 15.9049L14.915 15.8549L15 15.9349ZM14.95 16.2649C14.9272 16.2923 14.9002 16.3159 14.87 16.3349C14.8442 16.351 14.8152 16.3612 14.785 16.3649L14.665 16.3599C14.6173 16.3528 14.5704 16.3411 14.525 16.3249C14.4606 16.3069 14.402 16.2725 14.355 16.2249C14.325 16.1849 14.325 16.1499 14.355 16.1149C14.3831 16.0823 14.417 16.0552 14.455 16.0349C14.495 16.0099 14.555 15.9849 14.645 15.9549L14.665 15.9799L14.525 16.0399C14.5 16.0549 14.475 16.0699 14.46 16.0899C14.44 16.1099 14.445 16.1399 14.47 16.1699C14.5603 16.2399 14.6709 16.2785 14.785 16.2799C14.845 16.2799 14.885 16.2649 14.9 16.2449C14.915 16.2299 14.92 16.2149 14.925 16.1949L14.935 16.1149L15.06 16.0399C15.0607 16.065 15.059 16.0901 15.055 16.1149C15.0443 16.1449 15.0273 16.1722 15.005 16.1949L14.95 16.2649Z" fill="#BF0000"/>
</g>
<defs>
<clipPath id="clip0_11930_67678">
<rect width="36" height="24" rx="2" fill="white"/>
</clipPath>
</defs>
</svg>
