<svg width="36" height="24" viewBox="0 0 36 24" fill="none" xmlns="http://www.w3.org/2000/svg">
<g clip-path="url(#clip0_11930_67684)">
<path d="M0 0H36V24H0V0Z" fill="#012169"/>
<path d="M0 0L16 12L0 0ZM16 0L0 12L16 0Z" fill="black"/>
<path d="M0 0L16 12M16 0L0 12" stroke="white" stroke-width="2.5"/>
<mask id="mask0_11930_67684" style="mask-type:luminance" maskUnits="userSpaceOnUse" x="0" y="0" width="19" height="14">
<path d="M0 0V6H18.665V12H16L0 0ZM16 0H8V14H0V12L16 0Z" fill="white"/>
</mask>
<g mask="url(#mask0_11930_67684)">
<path d="M0 0L16 12L0 0ZM16 0L0 12L16 0Z" fill="black"/>
<path d="M0 0L16 12M16 0L0 12" stroke="#C8102E" stroke-width="1.5"/>
</g>
<path d="M8 0V14V0ZM0 6H18.665H0Z" fill="black"/>
<path d="M8 0V14M0 6H18.665" stroke="white" stroke-width="3.75"/>
<path d="M8 0V14V0ZM0 6H18.665H0Z" fill="black"/>
<path d="M8 0V14M0 6H18.665" stroke="#C8102E" stroke-width="2.5"/>
<path d="M0 12H16V0H21.335V16H0V12Z" fill="#012169"/>
<path d="M24.2002 9.58997C24.2002 14.11 24.6852 15.665 25.6652 16.715C26.1816 17.2881 26.7698 17.7923 27.4152 18.215C28.0605 17.7922 28.6487 17.288 29.1652 16.715C30.1402 15.665 30.6302 14.11 30.6302 9.58997C29.9202 9.91497 29.5152 10.075 28.9302 10.065C28.3981 10.0116 27.8825 9.84998 27.4152 9.58997C26.9479 9.84998 26.4323 10.0116 25.9002 10.065C25.3152 10.075 24.9102 9.91497 24.2002 9.58997Z" fill="white"/>
<path d="M27.5197 11.8536C27.6667 12.214 28.1566 12.6144 28.284 12.8146C28.1174 13.0148 28.0881 12.9948 28.1077 13.3551C28.4017 13.0448 28.4017 13.0048 28.5977 13.0548C29.0093 13.4753 28.6761 14.3862 28.3233 14.5864C27.9901 14.7966 28.0489 14.5864 27.5393 14.8466C27.7647 15.0468 28.0391 14.8166 28.2645 14.8767C28.3821 15.0268 28.2057 15.2871 28.3037 15.5473C28.4997 15.5273 28.4801 15.1169 28.5193 14.9667C28.6663 14.4262 29.5385 14.0558 29.5777 13.5553C29.7639 13.4652 29.9403 13.5253 30.1657 13.6554C30.0579 13.195 29.6855 13.195 29.5875 13.0548C29.3523 12.6845 29.1465 12.2741 28.6467 12.1539C28.2743 12.0839 28.3037 12.184 28.0587 12.0138C27.9019 11.8937 27.4413 11.6735 27.5197 11.8536Z" fill="#FF9900"/>
<path d="M28.5291 12.344C28.5724 12.344 28.6075 12.3081 28.6075 12.2639C28.6075 12.2197 28.5724 12.1838 28.5291 12.1838C28.4858 12.1838 28.4507 12.2197 28.4507 12.2639C28.4507 12.3081 28.4858 12.344 28.5291 12.344Z" fill="white"/>
<path d="M26.2968 13.3992C26.5401 13.0981 26.6577 12.4686 26.7714 12.2601C27.0226 12.317 27.019 12.3529 27.3218 12.1669C26.9158 12.0464 26.8811 12.0651 26.8328 11.8647C27.0044 11.2966 27.9486 11.1721 28.2868 11.3972C28.6245 11.5999 28.4151 11.645 28.8785 11.9837C28.9465 11.6866 28.6189 11.5463 28.5656 11.3147C28.6406 11.1384 28.9483 11.1762 29.1278 10.9661C29.0189 10.7985 28.6728 11.0078 28.5245 11.0426C27.9879 11.1623 27.2597 10.5476 26.8081 10.7459C26.6431 10.6199 26.6126 10.4325 26.6199 10.1682C26.2717 10.4806 26.4458 10.8169 26.3703 10.9708C26.1596 11.3562 25.9005 11.7337 26.0301 12.2412C26.1435 12.6102 26.2164 12.5369 26.1836 12.8376C26.1529 13.0353 26.1775 13.5541 26.2968 13.3992Z" fill="#FF9900"/>
<path d="M26.2497 12.2586C26.2295 12.2195 26.182 12.2045 26.1437 12.2252C26.1055 12.2458 26.0908 12.2943 26.1111 12.3334C26.1313 12.3725 26.1787 12.3874 26.217 12.3668C26.2553 12.3461 26.2699 12.2977 26.2497 12.2586Z" fill="white"/>
<path d="M28.2795 13.6069C27.9013 13.5501 27.3128 13.7729 27.0792 13.7813C26.997 13.5323 27.029 13.5169 26.7165 13.3485C26.8254 13.7657 26.859 13.7863 26.716 13.9321C26.1511 14.076 25.5584 13.3152 25.5722 12.9032C25.5675 12.5032 25.7136 12.6629 25.7578 12.0828C25.4736 12.177 25.5254 12.5358 25.3589 12.7022C25.1723 12.7278 25.0448 12.4394 24.7759 12.3911C24.6917 12.5731 25.0462 12.7673 25.152 12.8789C25.5298 13.286 25.3912 14.2403 25.791 14.5324C25.7706 14.7418 25.6293 14.8653 25.404 14.9956C25.8459 15.1384 26.0378 14.8123 26.2059 14.7987C26.6379 14.7835 27.0884 14.8147 27.4467 14.439C27.6974 14.149 27.5983 14.1232 27.8673 13.9964C28.0489 13.9209 28.4711 13.6311 28.2795 13.6069Z" fill="#FF9900"/>
<path d="M27.3477 14.2381C27.3253 14.276 27.3373 14.3252 27.3745 14.348C27.4116 14.3708 27.4597 14.3585 27.4821 14.3206C27.5044 14.2827 27.4924 14.2335 27.4553 14.2107C27.4181 14.1879 27.37 14.2002 27.3477 14.2381Z" fill="white"/>
<path d="M25 15.755C25.1722 16.1066 25.3964 16.4302 25.665 16.715C26.1814 17.2882 26.7696 17.7923 27.415 18.215C28.0602 17.7921 28.6484 17.2879 29.165 16.715C29.4318 16.4299 29.6543 16.1062 29.825 15.755H25Z" fill="#99CCFF"/>
<path d="M24.0601 9.40991C24.0601 14.1199 24.5701 15.7399 25.5901 16.8349C26.1291 17.4294 26.7425 17.952 27.4151 18.3899C28.0861 17.952 28.6978 17.4294 29.2351 16.8349C30.2551 15.7399 30.7651 14.1199 30.7651 9.40991C30.0251 9.74991 29.6001 9.91491 28.9901 9.90991C28.4401 9.89491 27.8601 9.62491 27.4151 9.40991C26.9651 9.62491 26.3851 9.89491 25.8401 9.90991C25.2251 9.91491 24.8051 9.74991 24.0601 9.40991ZM24.2601 9.65991C24.9601 9.98491 25.3601 10.1399 25.9351 10.1299C26.4554 10.0762 26.9591 9.91625 27.4151 9.65991C27.8351 9.85991 28.3801 10.1199 28.8951 10.1299C29.4701 10.1399 29.8651 9.97991 30.5651 9.65991C30.5651 14.1099 30.0851 15.6399 29.1251 16.6699C28.6205 17.2312 28.0457 17.7253 27.4151 18.1399C26.7825 17.7258 26.206 17.2317 25.7001 16.6699C24.7401 15.6399 24.2651 14.1049 24.2651 9.65991H24.2601Z" fill="#FDC301"/>
</g>
<defs>
<clipPath id="clip0_11930_67684">
<rect width="36" height="24" rx="2" fill="white"/>
</clipPath>
</defs>
</svg>
