<svg width="36" height="24" viewBox="0 0 36 24" fill="none" xmlns="http://www.w3.org/2000/svg">
<g clip-path="url(#clip0_11930_67687)">
<path d="M0 0H36V24H0V0Z" fill="#FF0000"/>
<path fill-rule="evenodd" clip-rule="evenodd" d="M14.85 4.91492C14.845 4.73992 15.23 4.66492 15.46 4.66492H15.465C15.6731 4.6876 15.8759 4.74507 16.065 4.83492C16.3816 4.93557 16.7088 4.99933 17.04 5.02492C16.9005 5.1412 16.836 5.18463 16.7468 5.24469C16.7018 5.27502 16.6505 5.30959 16.58 5.35992C16.849 5.46213 17.0832 5.63907 17.255 5.86992C17.1617 5.87325 17.0894 5.87325 17.0311 5.87325C16.9144 5.87325 16.8533 5.87325 16.79 5.89992C17.175 6.00992 17.355 6.07492 17.555 6.27992C17.48 6.28992 17.375 6.30992 17.33 6.32992C17.285 6.34992 17.3 6.36992 17.335 6.39992C17.3829 6.43376 17.512 6.57577 17.6334 6.70931C17.7272 6.81251 17.8164 6.91066 17.86 6.9499C17.9036 6.91066 17.9928 6.81251 18.0866 6.70931C18.208 6.57577 18.337 6.43376 18.385 6.39992C18.42 6.36992 18.435 6.34992 18.39 6.32992C18.345 6.30992 18.24 6.28992 18.165 6.27992C18.365 6.07492 18.545 6.00992 18.93 5.89992C18.8666 5.87325 18.8055 5.87325 18.6889 5.87325C18.6305 5.87325 18.5583 5.87325 18.465 5.86992C18.6368 5.63907 18.871 5.46213 19.14 5.35992C19.0695 5.30959 19.0182 5.27502 18.9732 5.24469C18.884 5.18463 18.8195 5.1412 18.68 5.02492C19.0112 4.99933 19.3384 4.93557 19.655 4.83492C19.844 4.74507 20.0469 4.6876 20.255 4.66492H20.26C20.49 4.66492 20.875 4.73992 20.87 4.91492C21.52 4.80992 21.585 5.07492 21.545 5.31492C21.485 5.21992 21.41 5.16492 21.35 5.15992C21.265 5.14492 21.175 5.17492 21.08 5.22992C20.9904 5.28613 20.9095 5.3552 20.84 5.43492C21.0588 5.48726 21.2324 5.45809 21.4039 5.42929C21.4126 5.42783 21.4213 5.42637 21.43 5.42492C21.5317 5.40324 21.6284 5.36252 21.715 5.30492C21.7607 5.27446 21.7878 5.24401 21.828 5.19887C21.8538 5.1699 21.885 5.13487 21.93 5.08992C22.065 4.94992 22.21 4.98992 22.165 5.20492C22.06 5.40492 21.885 5.49492 21.665 5.53492C21.6417 5.53823 21.6158 5.54253 21.5876 5.54721C21.4882 5.56369 21.3602 5.58492 21.22 5.58492C21.158 5.58492 21.0936 5.58195 21.0314 5.57909C20.9129 5.57363 20.8021 5.56852 20.73 5.58492C20.7438 5.59345 20.7582 5.60357 20.7736 5.61446C20.8304 5.65463 20.902 5.70525 21.02 5.72492C21.121 5.74512 21.256 5.69732 21.3761 5.65477C21.4344 5.63413 21.4892 5.61472 21.535 5.60492C21.52 5.71992 21.37 5.82992 21.08 5.88992L21.045 5.8972C20.5808 5.99386 20.1985 6.07345 19.94 6.21492C19.7304 6.33176 19.5454 6.48795 19.395 6.67492C19.1817 6.92447 19.1496 7.12462 19.138 7.19688C19.1369 7.20425 19.1359 7.21029 19.135 7.21492C19.085 7.65492 19.24 7.90492 19.53 7.98492C19.67 8.01992 19.93 7.94992 20.02 7.83992C20.12 7.72992 20.205 7.53992 20.18 7.23992C20.1747 7.21655 20.1646 7.18439 20.1531 7.14765C20.1106 7.0114 20.0483 6.81217 20.135 6.76492C20.6563 6.47842 21.1958 6.22621 21.75 6.00992C21.875 5.95992 21.975 6.12992 22.015 6.19992C22.3842 6.14845 22.7373 6.0154 23.0486 5.81043C23.36 5.60545 23.6218 5.3337 23.815 5.01492C24.025 4.63492 24.38 5.01492 24.32 5.37992C24.225 5.77992 23.92 6.06992 23.55 6.27992C23.175 6.48492 22.7 6.68992 22.225 6.67992C21.965 6.72992 21.97 7.05992 22.275 7.12492C22.88 7.12492 23.365 7.11492 23.82 6.67492C24.165 6.35992 24.355 6.73492 24.26 6.94492C24.09 7.59992 23.155 7.78492 22.21 7.57492C21.84 7.51492 22.06 7.90492 22.16 7.90992C22.56 8.19492 23.265 8.46992 23.89 7.90992C24.175 7.68992 24.37 7.86992 24.26 8.18492C23.985 9.00992 22.925 8.83492 22.2 8.43492C22.015 8.32992 21.845 8.56992 22.07 8.75492C22.975 9.38492 23.425 9.39492 23.835 9.15492C24.345 8.94992 24.385 9.51492 24.085 9.70492C23.75 9.90492 22.895 9.75492 22.265 9.35492C21.995 9.15492 21.985 9.46992 22.155 9.59492C22.9 10.2399 23.195 10.4099 23.97 10.3049C24.355 10.2749 24.35 10.7499 24.05 10.9349C23.635 11.1899 22.825 10.7699 22.2 10.2449C21.935 10.1049 21.89 10.3349 22.02 10.6099C22.2968 11.0016 22.673 11.3122 23.11 11.5099C23.46 11.6449 23.79 11.6249 24.025 11.5449C24.315 11.4449 24.35 11.7449 24.19 12.0149C24.095 12.1799 23.7 12.2299 23.27 12.0799C22.84 11.9299 22.38 11.5699 22.065 11.1549C21.79 10.9099 21.82 11.2349 21.95 11.4649C22.58 12.4649 23.16 12.8349 23.925 12.7749C24.26 12.7149 24.34 12.9749 24.125 13.2249C23.745 13.5349 23.275 13.5249 22.855 13.2149C22.49 12.8649 21.785 12.0949 21.415 11.6849C21.155 11.4799 21.07 11.6849 21.15 12.1049C21.22 12.3449 21.39 12.6049 21.865 12.7849C22.19 12.9699 21.945 13.2249 21.705 13.2349C21.57 13.2349 21.3 13.0749 21.09 12.8449C20.8695 12.5918 20.8157 12.4087 20.7217 12.0887C20.7006 12.0168 20.6775 11.938 20.65 11.8499C20.51 11.6199 20.255 11.7299 20.255 11.9699C20.38 12.4499 20.48 12.5349 20.73 12.7299C20.965 12.9549 20.565 13.0299 20.43 12.9349C20.0435 12.6773 19.9025 12.341 19.7735 12.0333L19.77 12.0249C19.67 11.8049 19.4 11.9099 19.53 12.2749C19.83 13.1449 20.33 13.4849 21.195 13.6649C21.28 13.6799 21.335 13.7299 21.305 13.8299L20.955 14.1799C21.2608 14.2714 21.534 14.34 21.8128 14.41C22.0216 14.4624 22.2337 14.5157 22.465 14.5799L23.205 14.0899C23.2121 14.0724 23.2189 14.0538 23.2258 14.0347C23.2819 13.8802 23.3477 13.6991 23.695 13.8549C23.955 13.7349 24.08 13.7799 24.225 13.9049C24.015 13.9049 23.925 13.9649 23.84 14.0599C23.73 14.3449 23.48 14.3749 23.225 14.2949C23.1424 14.3625 23.0799 14.4238 23.0167 14.4857C22.9536 14.5475 22.8899 14.61 22.805 14.6799L23.64 14.6549C23.94 14.3399 24.17 14.3549 24.38 14.6049C24.3884 14.6062 24.3966 14.6074 24.4046 14.6086C24.5517 14.6304 24.6156 14.6399 24.72 14.8249C24.55 14.7549 24.44 14.7349 24.365 14.8099C24.05 14.9949 23.845 14.9549 23.69 14.8099L22.815 14.8649C22.8753 14.9198 22.9477 14.9596 23.0197 14.9992C23.079 15.0318 23.1381 15.0643 23.19 15.1049C23.64 14.9749 23.88 15.1549 23.96 15.5199C24.0232 15.6662 24.044 15.8274 24.02 15.9849C23.98 15.8349 23.905 15.7099 23.775 15.6349C23.375 15.7349 23.225 15.5699 23.2 15.3299C23.1006 15.2504 22.979 15.2018 22.8579 15.1533C22.7352 15.1043 22.6131 15.0554 22.515 14.9749C22.3796 15.0161 22.2858 15.0486 22.1847 15.0837C22.1139 15.1083 22.0396 15.1341 21.945 15.1649C21.865 15.4149 21.68 15.5099 21.38 15.4449C21.0932 15.4531 21.0817 15.5553 21.0704 15.6552C21.0679 15.6772 21.0654 15.6991 21.06 15.7199C20.96 15.5549 20.965 15.3899 21.185 15.2399C21.265 15.0249 21.445 14.9249 21.675 15.0499C21.7873 15.0193 21.8566 14.9808 21.9268 14.9419C21.9941 14.9045 22.0623 14.8667 22.17 14.8349C21.895 14.7474 21.66 14.6937 21.425 14.6399C21.19 14.5862 20.955 14.5324 20.68 14.4449L20.295 14.7849C20.22 14.8299 20.15 14.8399 20.105 14.7849C19.963 14.5791 19.8531 14.3843 19.7511 14.2033C19.6053 13.9446 19.4753 13.7141 19.29 13.5199C19.285 13.5143 19.2799 13.5086 19.2748 13.5029C19.1525 13.3657 19.0032 13.1981 18.84 13.1549C18.755 13.1299 18.65 13.1449 18.58 13.2199C18.515 13.2899 18.46 13.4249 18.48 13.6299C18.5089 13.8652 18.5616 13.971 18.6242 14.0964C18.6374 14.1229 18.651 14.1503 18.665 14.1799C18.7352 14.3244 18.8122 14.4212 18.896 14.5265C18.9137 14.5488 18.9317 14.5714 18.95 14.5949C19.1266 14.8289 19.3577 14.9771 19.5195 15.0809C19.541 15.0946 19.5612 15.1076 19.58 15.1199C19.8288 15.2793 19.9628 15.2604 20.1276 15.237C20.1748 15.2303 20.2244 15.2233 20.28 15.2199C20.6 15.2549 20.68 15.4099 20.42 15.6249C20.18 15.7549 19.96 15.7699 19.78 15.7349C19.667 15.7123 19.537 15.5962 19.4242 15.4953C19.3872 15.4623 19.3521 15.4308 19.32 15.4049C19.18 15.2399 18.94 15.4349 19.105 15.6299C19.4 15.9799 19.69 16.2099 20.055 16.2049C20.44 16.2549 20.365 16.4699 20.115 16.5749C19.655 16.7599 19.245 16.4099 19.035 16.1749C18.875 15.9999 18.76 15.9949 18.785 16.2699C18.95 16.7649 19.165 16.9549 19.525 16.9799C19.815 16.9499 19.82 17.1799 19.605 17.3299C19.125 17.6599 18.775 17.0899 18.61 16.7499C18.495 16.4399 18.315 16.5849 18.295 16.8399C18.295 17.1849 18.445 17.4599 18.86 17.8099C18.7025 18.0624 18.5312 18.3174 18.36 18.5724C18.1887 18.8274 18.0175 19.0824 17.86 19.3349C17.7025 19.0824 17.5312 18.8274 17.36 18.5724C17.1888 18.3174 17.0175 18.0624 16.86 17.8099C17.275 17.4599 17.425 17.1849 17.425 16.8399C17.405 16.5849 17.225 16.4399 17.11 16.7499C16.945 17.0899 16.595 17.6599 16.115 17.3299C15.9 17.1799 15.905 16.9499 16.195 16.9799C16.555 16.9549 16.77 16.7649 16.935 16.2699C16.96 15.9949 16.845 15.9999 16.685 16.1749C16.475 16.4099 16.065 16.7599 15.605 16.5749C15.355 16.4699 15.28 16.2549 15.665 16.2049C16.03 16.2099 16.32 15.9799 16.615 15.6299C16.78 15.4349 16.54 15.2399 16.4 15.4049C16.3679 15.4308 16.3327 15.4623 16.2958 15.4953C16.1829 15.5962 16.053 15.7123 15.94 15.7349C15.76 15.7699 15.54 15.7549 15.3 15.6249C15.04 15.4099 15.12 15.2549 15.44 15.2199C15.4956 15.2233 15.5452 15.2303 15.5923 15.237C15.7572 15.2604 15.8911 15.2793 16.14 15.1199C16.1587 15.1076 16.179 15.0946 16.2004 15.0809C16.3623 14.9771 16.5934 14.8289 16.77 14.5949C16.7883 14.5714 16.8063 14.5488 16.824 14.5265C16.9078 14.4212 16.9848 14.3244 17.055 14.1799C17.0689 14.1503 17.0826 14.1229 17.0958 14.0964C17.1583 13.971 17.2111 13.8652 17.24 13.6299C17.26 13.4249 17.205 13.2899 17.14 13.2199C17.07 13.1449 16.965 13.1299 16.88 13.1549C16.7168 13.1981 16.5674 13.3657 16.4452 13.5029C16.4401 13.5086 16.435 13.5143 16.43 13.5199C16.2447 13.7141 16.1147 13.9446 15.9689 14.2033C15.8668 14.3843 15.757 14.5791 15.615 14.7849C15.57 14.8399 15.5 14.8299 15.425 14.7849L15.04 14.4449C14.765 14.5324 14.53 14.5862 14.295 14.6399C14.06 14.6937 13.825 14.7474 13.55 14.8349C13.6577 14.8667 13.7258 14.9045 13.7932 14.9419C13.8634 14.9808 13.9327 15.0193 14.045 15.0499C14.275 14.9249 14.455 15.0249 14.535 15.2399C14.755 15.3899 14.76 15.5549 14.66 15.7199C14.6546 15.6991 14.6521 15.6772 14.6496 15.6552C14.6383 15.5553 14.6267 15.4531 14.34 15.4449C14.04 15.5099 13.855 15.4149 13.775 15.1649C13.6804 15.1341 13.606 15.1083 13.5353 15.0837C13.4341 15.0486 13.3404 15.0161 13.205 14.9749C13.1069 15.0554 12.9848 15.1043 12.8621 15.1533C12.741 15.2018 12.6194 15.2504 12.52 15.3299C12.495 15.5699 12.345 15.7349 11.945 15.6349C11.815 15.7099 11.74 15.8349 11.7 15.9849C11.676 15.8274 11.6968 15.6662 11.76 15.5199C11.84 15.1549 12.08 14.9749 12.53 15.1049C12.5819 15.0643 12.641 15.0318 12.7002 14.9992C12.7723 14.9596 12.8447 14.9198 12.905 14.8649L12.03 14.8099C11.875 14.9549 11.67 14.9949 11.355 14.8099C11.28 14.7349 11.17 14.7549 11 14.8249C11.1044 14.6399 11.1682 14.6304 11.3154 14.6086C11.3234 14.6074 11.3316 14.6062 11.34 14.6049C11.55 14.3549 11.78 14.3399 12.08 14.6549L12.915 14.6799C12.8301 14.61 12.7664 14.5475 12.7033 14.4857C12.6401 14.4238 12.5776 14.3625 12.495 14.2949C12.24 14.3749 11.99 14.3449 11.88 14.0599C11.795 13.9649 11.705 13.9049 11.495 13.9049C11.64 13.7799 11.765 13.7349 12.025 13.8549C12.3723 13.6991 12.4381 13.8802 12.4942 14.0347C12.5011 14.0538 12.5079 14.0724 12.515 14.0899L13.255 14.5799C13.4863 14.5157 13.6983 14.4624 13.9072 14.41C14.186 14.34 14.4592 14.2714 14.765 14.1799L14.415 13.8299C14.385 13.7299 14.44 13.6799 14.525 13.6649C15.39 13.4849 15.89 13.1449 16.19 12.2749C16.32 11.9099 16.05 11.8049 15.95 12.0249L15.9465 12.0333C15.8175 12.341 15.6765 12.6773 15.29 12.9349C15.155 13.0299 14.755 12.9549 14.99 12.7299C15.24 12.5349 15.34 12.4499 15.465 11.9699C15.465 11.7299 15.21 11.6199 15.07 11.8499C15.0425 11.938 15.0193 12.0168 14.9982 12.0887C14.9042 12.4087 14.8505 12.5918 14.63 12.8449C14.42 13.0749 14.15 13.2349 14.015 13.2349C13.775 13.2249 13.53 12.9699 13.855 12.7849C14.33 12.6049 14.5 12.3449 14.57 12.1049C14.65 11.6849 14.565 11.4799 14.305 11.6849C13.935 12.0949 13.23 12.8649 12.865 13.2149C12.445 13.5249 11.975 13.5349 11.595 13.2249C11.38 12.9749 11.46 12.7149 11.795 12.7749C12.56 12.8349 13.14 12.4649 13.77 11.4649C13.9 11.2349 13.93 10.9099 13.655 11.1549C13.34 11.5699 12.88 11.9299 12.45 12.0799C12.02 12.2299 11.625 12.1799 11.53 12.0149C11.37 11.7449 11.405 11.4449 11.695 11.5449C11.93 11.6249 12.26 11.6449 12.61 11.5099C13.0469 11.3122 13.4232 11.0016 13.7 10.6099C13.83 10.3349 13.785 10.1049 13.52 10.2449C12.895 10.7699 12.085 11.1899 11.67 10.9349C11.37 10.7499 11.365 10.2749 11.75 10.3049C12.525 10.4099 12.82 10.2399 13.565 9.59492C13.735 9.46992 13.725 9.15492 13.455 9.35492C12.825 9.75492 11.97 9.90492 11.635 9.70492C11.335 9.51492 11.375 8.94992 11.885 9.15492C12.295 9.39492 12.745 9.38492 13.65 8.75492C13.875 8.56992 13.705 8.32992 13.52 8.43492C12.795 8.83492 11.735 9.00992 11.46 8.18492C11.35 7.86992 11.545 7.68992 11.83 7.90992C12.455 8.46992 13.16 8.19492 13.56 7.90992C13.66 7.90492 13.88 7.51492 13.51 7.57492C12.565 7.78492 11.63 7.59992 11.46 6.94492C11.365 6.73492 11.555 6.35992 11.9 6.67492C12.355 7.11492 12.84 7.12492 13.445 7.12492C13.75 7.05992 13.755 6.72992 13.495 6.67992C13.02 6.68992 12.545 6.48492 12.17 6.27992C11.8 6.06992 11.495 5.77992 11.4 5.37992C11.34 5.01492 11.695 4.63492 11.905 5.01492C12.0982 5.3337 12.36 5.60545 12.6714 5.81043C12.9827 6.0154 13.3358 6.14845 13.705 6.19992C13.745 6.12992 13.845 5.95992 13.97 6.00992C14.5242 6.22621 15.0636 6.47842 15.585 6.76492C15.6716 6.81217 15.6094 7.0114 15.5668 7.14765C15.5554 7.18439 15.5453 7.21655 15.54 7.23992C15.515 7.53992 15.6 7.72992 15.7 7.83992C15.79 7.94992 16.05 8.01992 16.19 7.98492C16.48 7.90492 16.635 7.65492 16.585 7.21492C16.5841 7.21029 16.5831 7.20425 16.5819 7.19688C16.5703 7.12462 16.5383 6.92447 16.325 6.67492C16.1746 6.48795 15.9896 6.33176 15.78 6.21492C15.5215 6.07345 15.1392 5.99386 14.675 5.8972C14.6634 5.89478 14.6517 5.89236 14.64 5.88992C14.35 5.82992 14.2 5.71992 14.185 5.60492C14.2307 5.61472 14.2856 5.63413 14.3439 5.65477C14.464 5.69732 14.599 5.74512 14.7 5.72492C14.818 5.70525 14.8896 5.65463 14.9464 5.61446C14.9618 5.60357 14.9761 5.59345 14.99 5.58492C14.9179 5.56852 14.8071 5.57363 14.6886 5.57909C14.6263 5.58195 14.562 5.58492 14.5 5.58492C14.3598 5.58492 14.2318 5.56369 14.1324 5.54721C14.1041 5.54253 14.0782 5.53823 14.055 5.53492C13.835 5.49492 13.66 5.40492 13.555 5.20492C13.51 4.98992 13.655 4.94992 13.79 5.08992C13.835 5.13487 13.8662 5.1699 13.892 5.19887C13.9322 5.24401 13.9593 5.27446 14.005 5.30492C14.0916 5.36252 14.1883 5.40324 14.29 5.42492C14.2987 5.42637 14.3074 5.42783 14.3161 5.42929C14.4875 5.45809 14.6611 5.48726 14.88 5.43492C14.8105 5.3552 14.7296 5.28613 14.64 5.22992C14.545 5.17492 14.455 5.14492 14.37 5.15992C14.31 5.16492 14.235 5.21992 14.175 5.31492C14.135 5.07492 14.2 4.80992 14.85 4.91492ZM15.805 5.22992C15.805 5.14992 15.69 5.08492 15.5 5.08492C15.31 5.08492 15.19 5.14492 15.19 5.22492C15.19 5.29992 15.31 5.37492 15.5 5.37492C15.69 5.37492 15.805 5.30992 15.805 5.22992ZM19.915 5.22992C19.915 5.14992 20.03 5.08492 20.22 5.08492C20.41 5.08492 20.53 5.14492 20.53 5.22492C20.53 5.29992 20.41 5.37492 20.22 5.37492C20.03 5.37492 19.915 5.30992 19.915 5.22992Z" fill="#000001"/>
</g>
<defs>
<clipPath id="clip0_11930_67687">
<rect width="36" height="24" rx="2" fill="white"/>
</clipPath>
</defs>
</svg>
