<svg width="36" height="24" viewBox="0 0 36 24" fill="none" xmlns="http://www.w3.org/2000/svg">
<g clip-path="url(#clip0_11930_67693)">
<path fill-rule="evenodd" clip-rule="evenodd" d="M0 0H36V12H0V0Z" fill="#FF0000"/>
<path fill-rule="evenodd" clip-rule="evenodd" d="M0 12H36V24H0V12Z" fill="#000001"/>
<path fill-rule="evenodd" clip-rule="evenodd" d="M11.4352 7.41C19.6952 9.575 14.3852 20.19 7.87018 15.77L7.43018 16.45C11.2652 19.18 15.0602 16.98 16.1302 14.13C17.2402 11.19 15.7502 7.055 11.5002 6.63L11.4352 7.41Z" fill="#FFEC00"/>
<path fill-rule="evenodd" clip-rule="evenodd" d="M8.49999 16.5399L9.58499 17.0449L9.07499 18.1349L7.98999 17.6249L8.49999 16.5399ZM15.95 11.5649H17.15V12.7649H15.95V11.5649ZM15.365 9.61993L16.48 9.18993L16.915 10.3049L15.8 10.7399L15.365 9.61993ZM14.065 8.16493L14.92 7.31993L15.765 8.16993L14.915 9.01493L14.065 8.16493ZM12.755 6.17493L13.875 6.59493L13.45 7.71493L12.33 7.29493L12.755 6.17493ZM15.8 13.4999L16.915 13.9449L16.465 15.0549L15.355 14.6099L15.8 13.4999ZM12.305 16.9999L13.405 16.5349L13.88 17.6349L12.78 18.1049L12.305 16.9999ZM10.33 17.1399H11.53V18.3399H10.33V17.1399ZM12.395 11.3399L11.38 10.5899L10.365 11.3199L10.765 10.1699L9.74999 9.41993H10.975L11.4 8.28993L11.79 9.42493L13.025 9.40993L12.045 10.1749L12.395 11.3399Z" fill="#FFEC00"/>
<path fill-rule="evenodd" clip-rule="evenodd" d="M16.8 17.3199C16.74 17.3399 16.49 17.9399 16.315 18.2299L16.5 18.2799C17.18 18.5199 17.52 18.7399 17.81 19.1549C17.8771 19.2203 17.9652 19.2596 18.0586 19.266C18.152 19.2725 18.2446 19.2455 18.32 19.1899C18.32 19.1899 18.46 19.1399 18.64 18.9399C18.79 18.7149 18.75 18.5399 18.57 18.3849C18.02 17.9849 17.425 17.6849 16.8 17.3199Z" fill="#FFEE00"/>
<path fill-rule="evenodd" clip-rule="evenodd" d="M18.265 18.6399C18.265 18.6976 18.2421 18.7529 18.2013 18.7937C18.1605 18.8345 18.1052 18.8574 18.0475 18.8574C17.9898 18.8574 17.9345 18.8345 17.8937 18.7937C17.8529 18.7529 17.83 18.6976 17.83 18.6399C17.83 18.5829 17.8526 18.5282 17.893 18.4879C17.9333 18.4476 17.988 18.4249 18.045 18.4249C18.102 18.4249 18.1567 18.4476 18.197 18.4879C18.2373 18.5282 18.26 18.5829 18.26 18.6399H18.265ZM17.195 17.9599C17.195 18.0176 17.1721 18.0729 17.1313 18.1137C17.0905 18.1545 17.0352 18.1774 16.9775 18.1774C16.9198 18.1774 16.8645 18.1545 16.8237 18.1137C16.7829 18.0729 16.76 18.0176 16.76 17.9599C16.76 17.9022 16.7829 17.8469 16.8237 17.8061C16.8645 17.7653 16.9198 17.7424 16.9775 17.7424C17.0352 17.7424 17.0905 17.7653 17.1313 17.8061C17.1721 17.8469 17.195 17.9022 17.195 17.9599ZM17.74 18.3099C17.74 18.3676 17.7171 18.4229 17.6763 18.4637C17.6355 18.5045 17.5802 18.5274 17.5225 18.5274C17.4648 18.5274 17.4095 18.5045 17.3687 18.4637C17.3279 18.4229 17.305 18.3676 17.305 18.3099C17.305 18.2522 17.3279 18.1969 17.3687 18.1561C17.4095 18.1153 17.4648 18.0924 17.5225 18.0924C17.5802 18.0924 17.6355 18.1153 17.6763 18.1561C17.7171 18.1969 17.74 18.2522 17.74 18.3099Z" fill="#000001"/>
<path fill-rule="evenodd" clip-rule="evenodd" d="M16.225 18.1849C14.095 16.9699 11.86 15.6599 9.72499 14.4449C8.78999 13.8599 8.74499 12.7749 9.37499 11.9499C9.43499 11.8349 9.51499 11.8599 9.54499 11.9249C9.61999 12.3249 9.84499 12.7399 10.115 12.9999C12.3311 14.3939 14.5263 15.8207 16.7 17.2799C16.53 17.5699 16.4 17.8949 16.225 18.1799V18.1849Z" fill="#FFEE00"/>
<path fill-rule="evenodd" clip-rule="evenodd" d="M14.86 15.2749L15.75 16.0749L14.95 16.9649L14.06 16.1649L14.86 15.2749Z" fill="#FFEC00"/>
<path fill-rule="evenodd" clip-rule="evenodd" d="M10.3638 13.6007L16.6138 17.3757L16.5362 17.5041L10.2862 13.7291L10.3638 13.6007ZM13.7408 15.142L15.8458 16.507L15.7642 16.6329L13.6592 15.2679L13.7408 15.142ZM12.5025 16.035L14.6475 17.275L14.5725 17.4049L12.4275 16.1649L12.5025 16.035Z" fill="black"/>
</g>
<defs>
<clipPath id="clip0_11930_67693">
<rect width="36" height="24" rx="2" fill="white"/>
</clipPath>
</defs>
</svg>
