<svg width="36" height="24" viewBox="0 0 36 24" fill="none" xmlns="http://www.w3.org/2000/svg">
<g clip-path="url(#clip0_11930_67696)">
<path d="M0 0H36V24H0V0Z" fill="#3A7DCE"/>
<path d="M10.705 11.54C10.53 11.15 10.53 11.15 10.53 10.76C10.44 10.76 10.43 10.775 10.38 10.76C10.325 10.745 10.305 11.12 10.14 11.05C10.115 11.01 10.26 10.74 10.105 10.625C10.055 10.59 10.115 10.365 10.095 10.265C10.095 10.265 9.895 10.385 9.745 9.97501C9.67 9.86501 9.57 10.075 9.57 10.075C9.57 10.075 9.615 10.195 9.535 10.225C9.425 10.135 9.34 10.185 9.2 10.055C9.06 9.93002 9.23 9.78502 8.96 9.68002C9.135 9.19001 9.135 9.28501 9.57 9.09001C9.31 8.89001 9.31 8.89002 9.135 8.60002C8.875 8.50001 8.785 8.40001 8.525 8.21001C8.175 7.71501 8 6.73501 8 6.05001C8.22 5.82001 8.525 6.83502 8.96 7.13002L9.57 7.42501C9.92 7.62002 10.005 7.81501 10.27 8.01002L11.05 8.31001C11.4 8.60001 11.575 8.99001 11.835 9.09001C12.12 9.09001 12.175 8.90501 12.265 8.89501C12.78 8.86501 13.04 8.79501 13.14 8.62001C13.245 8.48001 13.49 8.70002 14.19 8.40502L14.105 8.01002C14.105 8.01002 14.29 7.84001 14.54 7.91001C14.535 7.73501 14.515 7.26002 14.765 7.04002C14.615 6.86502 14.855 6.59002 14.865 6.50502C14.795 6.07502 14.935 6.07002 14.965 5.94002C14.995 5.81502 14.845 5.85501 14.885 5.68001C14.93 5.50501 15.185 5.46501 15.215 5.32001C15.25 5.17501 15.16 4.60501 15.15 4.48001C15.62 4.34001 15.77 3.91001 15.935 4.09001C16.02 3.50001 16.11 3.30001 16.635 3.30001C16.705 3.12001 16.44 2.96501 16.545 2.90501C16.72 2.88001 16.85 2.89501 17.055 3.19001C17.12 3.29001 17.135 3.05501 17.2 3.03001C17.265 3.00501 17.42 3.00501 17.445 2.89001C17.47 2.77001 17.505 2.61001 17.595 2.41501C17.665 2.25501 17.72 2.48001 17.785 2.79001C18.155 2.80501 18.985 2.89501 19.335 3.00501C19.595 3.08001 19.77 2.93001 20.02 2.89501C20.205 3.10501 20.38 2.94501 20.48 3.39501C20.615 3.63501 20.845 3.41501 20.895 3.48501C21.185 4.39001 22.185 3.78001 22.265 3.79501C22.39 3.79501 22.545 4.19501 22.65 4.19001C22.81 4.16001 22.765 4.03501 22.91 4.08501C22.87 4.42501 23.19 4.81501 23.19 5.07001C23.19 5.07001 23.265 5.11501 23.34 5.04001C23.41 4.96001 23.475 4.77001 23.54 4.77501C23.69 4.80001 24.64 5.07501 24.83 5.17001C24.915 5.34501 24.995 5.43501 25.17 5.40501C25.31 5.51001 25.21 5.65501 25.29 5.66001C25.465 5.56001 25.525 5.46001 25.7 5.55501C25.875 5.65501 26.05 5.85001 26.135 6.04502C26.135 6.14502 26.045 6.53502 26.135 7.12501C26.18 7.32001 26.62 8.74001 26.62 8.88501C26.62 9.08501 26.485 9.18501 26.395 9.38001C26.745 9.67501 26.395 10.165 26.22 10.46C27.53 10.755 26.92 11.34 27.965 11.045C27.705 11.735 27.795 11.68 28.055 12.365C27.535 12.755 28.045 12.875 27.7 13.365C27.675 13.4 27.905 13.795 28.225 13.795C28.14 14.575 27.875 14.285 27.965 15.46C27.28 15.445 27.555 16.34 27.095 16.245C27.12 16.805 27.355 16.855 27.265 17.42C26.915 17.52 26.915 17.52 26.745 17.815L26.485 17.715C26.395 18.205 26.22 18.305 26.485 18.795C26.485 18.795 26.145 18.805 26.045 18.795C26.04 18.965 26.195 19.01 26.22 19.185C26.21 19.255 25.725 19.565 25.35 19.58C25.25 19.82 25.61 20.08 25.59 20.2C25.18 20.29 25 20.85 25 20.85C25 20.85 25.21 20.95 25.175 21.05C25.065 20.96 25 20.95 24.825 20.95C24.74 20.975 24.525 20.95 24.325 21.335C24.1 21.415 23.995 21.385 23.825 21.635C23.75 21.4 23.64 21.64 23.51 21.735C23.375 21.825 23.2 22.06 23.175 22.05C23.18 21.98 23.255 21.735 23.255 21.735L22.77 21.85C22.735 21.855 22.745 21.565 22.66 21.575C22.575 21.585 22.34 21.94 22.26 21.95C22.18 21.96 22.155 21.84 22.085 21.85C22.015 21.86 21.885 22.225 21.835 22.235C21.785 22.24 21.585 22.01 21.42 22.045C20.565 22.385 20.425 21.375 20.295 21.945C20.115 21.835 20.145 21.895 19.96 21.95C19.845 21.985 19.835 21.78 19.73 21.78C19.525 21.79 19.53 22.01 19.42 21.945C19.33 21.485 18.77 21.565 18.72 21.37C18.67 21.17 18.96 21.17 19.05 21.03C19.12 20.83 18.975 20.75 19.265 20.56C19.64 20.275 19.605 19.57 19.51 19.295C19.51 19.295 19.215 18.41 19.16 18.41C18.985 18.36 18.985 18.735 18.73 18.84C18.205 19.04 17.28 18.345 17.12 18.345C16.975 18.345 16.295 18.525 16.32 18.145C16.22 18.515 15.845 18.23 15.82 18.23C15.47 18.23 15.605 18.535 15.37 18.525C15.265 18.485 14.19 18.41 14.19 18.41V18.61L12.885 18.02C12.36 17.82 12.62 17.335 11.75 17.63V17.04H11.315C11.49 15.86 11.315 16.45 11.225 15.37L10.875 15.47C10.525 14.94 11.365 15.04 10.615 14.685C10.615 14.685 10.63 14.1 10.44 14.295C10.405 14.32 10.53 14.585 10.53 14.585C9.83 14.485 9.66 14.295 9.66 13.51C9.66 13.51 10.23 13.6 10.18 13.51C10.1 13.36 9.995 12.41 10.01 12.34C10.005 12.21 10.545 11.89 10.44 11.58C10.51 11.55 10.705 11.545 10.705 11.545" fill="white"/>
<path d="M25.613 14.3999C25.5871 14.4628 25.5914 14.5257 25.6173 14.5741C25.6646 14.4919 25.6259 14.458 25.6173 14.3999H25.613ZM5.13996 7.17092C5.13996 7.17092 5.01093 7.15157 5.03673 7.28221C5.07974 7.18544 5.13566 7.17576 5.13996 7.17092ZM5.12705 6.86125C5.05394 6.86125 4.96361 6.85157 4.99802 6.98221C5.04103 6.8806 5.12705 6.86608 5.12705 6.86125ZM5.67329 8.61769C5.67329 8.61769 5.78511 8.60802 5.75931 8.73866C5.7163 8.64189 5.67329 8.62253 5.67329 8.61769Z" stroke="white" stroke-width="0.114049" stroke-linejoin="round"/>
</g>
<defs>
<clipPath id="clip0_11930_67696">
<rect width="36" height="24" rx="2" fill="white"/>
</clipPath>
</defs>
</svg>
