<svg width="36" height="24" viewBox="0 0 36 24" fill="none" xmlns="http://www.w3.org/2000/svg">
<rect width="36" height="24" rx="2" fill="#006233"/>
<path fill-rule="evenodd" clip-rule="evenodd" d="M14.9711 12.4202C14.5003 13.0636 14.8402 13.482 15.3255 13.5118C15.6455 13.5333 16.3108 13.1 16.3089 12.5905L16.1272 12.4979C16.229 12.7592 16.1235 12.8419 15.9072 13.0206C15.48 13.3729 14.6075 13.3977 14.9711 12.4202Z" fill="white" stroke="white" stroke-width="0.00693577"/>
<path fill-rule="evenodd" clip-rule="evenodd" d="M18.7029 14.1073C21.3532 14.1751 22.1966 11.8413 20.5606 9.84326L20.3988 10.0632C20.5043 10.9944 20.657 11.9124 20.6715 12.8668C20.3516 13.2092 19.8862 13.0818 19.7935 12.7014C19.799 12.1853 19.6136 11.7487 19.3791 11.3319L19.2482 11.5518C19.4009 11.8942 19.5663 12.2796 19.6009 12.7014C18.8447 13.5267 18.0085 13.6938 18.3193 12.6088C17.7213 13.5598 18.6265 14.2297 19.6518 12.7659C19.8717 13.7649 20.7224 13.1446 20.7733 12.9296C20.866 12.2746 20.8187 11.2194 20.6315 10.3858C21.3695 11.5485 21.395 12.3871 21.0023 12.9478C20.5661 13.5714 19.6172 13.8625 18.7029 14.1073Z" fill="white" stroke="white" stroke-width="0.0173394"/>
<path fill-rule="evenodd" clip-rule="evenodd" d="M20.2062 11.469C19.639 11.507 19.3482 11.4012 19.6554 11.0191C19.959 10.6453 20.2425 10.943 20.3189 11.4425C20.3898 11.9106 19.3228 12.5077 18.9537 12.5077C18.3957 12.5077 18.1376 11.8544 18.652 11.2672C17.9903 12.9808 20.0808 11.9867 20.2062 11.469ZM19.8135 11.072C19.7445 11.0687 19.6936 11.1796 19.7281 11.2011C19.8281 11.2639 19.9862 11.2259 20.0026 11.1944C20.0371 11.125 19.9099 11.0753 19.8135 11.072Z" fill="white" stroke="white" stroke-width="0.0173394"/>
<path fill-rule="evenodd" clip-rule="evenodd" d="M17.1268 12.2777C16.5815 13.2536 17.125 13.6572 17.8248 13.5447C18.232 13.4769 18.7482 13.2139 19.0464 12.855C19.0518 12.0644 19.0391 11.2804 18.9627 10.5146C19.2354 10.2185 18.9391 10.2202 18.8355 9.90259C18.7882 10.0878 18.6737 10.288 18.7846 10.4319C18.8628 11.2043 18.9064 11.9866 18.9046 12.7839C18.3556 13.1858 17.943 13.3346 17.6485 13.3313C17.0396 13.3264 16.9087 12.8599 17.1268 12.2777Z" fill="white" stroke="white" stroke-width="0.0173394"/>
<path fill-rule="evenodd" clip-rule="evenodd" d="M18.2413 12.5358C18.2322 11.7997 18.2194 10.9645 18.1467 10.4501C18.4303 10.1639 18.1322 10.1573 18.0395 9.83643C17.985 10.0184 17.865 10.2168 17.9704 10.3641C18.0177 11.1514 18.0631 11.9387 18.0722 12.726C18.1377 12.6879 18.2122 12.673 18.2413 12.5358Z" fill="white" stroke="white" stroke-width="0.0173394"/>
<path fill-rule="evenodd" clip-rule="evenodd" d="M16.1254 12.5011C16.0563 12.4217 16.0072 12.3324 15.9509 12.2547C15.9418 12.1439 16.0236 12.0413 16.0345 11.9851C16.1272 12.1157 16.1817 12.215 16.2563 12.2795M16.3544 12.3308C16.4908 12.3804 16.658 12.3804 16.8125 12.3837C17.4087 12.3936 18.0359 12.3043 17.9686 13.0387C17.9489 13.3137 17.816 13.5719 17.5963 13.7617C17.3766 13.9515 17.0863 14.0589 16.7834 14.0625C16.0254 14.0559 15.3783 13.295 16.5471 11.8941C16.6598 11.8776 16.8071 11.9057 16.9288 11.9156C17.1379 11.9305 17.3524 11.9123 17.5978 11.7337C17.5687 11.2722 17.5687 10.8355 17.5069 10.4187C17.4015 10.2715 17.5214 10.0747 17.576 9.89111C17.6687 10.212 17.965 10.2186 17.6832 10.5064C17.7505 10.9695 17.7577 11.4409 17.7577 11.7221C17.616 11.9189 17.5051 12.1273 17.0906 12.2067C16.6671 12.1505 16.4762 11.6113 16.0345 11.7899C16.1563 11.3036 17.2779 11.1928 17.3906 11.5765C17.316 11.9768 16.269 11.8164 15.9909 13.1098C15.9055 13.5084 16.3672 13.8756 16.8416 13.8458C17.3051 13.8177 17.7995 13.5249 17.8486 13.0321C17.8868 12.6202 17.2488 12.6682 16.9816 12.6731C16.5926 12.6814 16.3472 12.6268 16.1999 12.5491M16.598 11.6576C16.6671 11.598 16.9088 11.5567 16.9961 11.6526C16.9307 11.6923 16.867 11.7353 16.8143 11.7866C16.7234 11.7436 16.6635 11.7006 16.598 11.6576Z" fill="white"/>
<path d="M16.1254 12.5011C16.0563 12.4217 16.0072 12.3324 15.9509 12.2547C15.9418 12.1439 16.0236 12.0413 16.0345 11.9851C16.1272 12.1157 16.1817 12.215 16.2563 12.2795M16.3544 12.3308C16.4908 12.3804 16.658 12.3804 16.8125 12.3837C17.4087 12.3936 18.0359 12.3043 17.9686 13.0387C17.9489 13.3137 17.816 13.5719 17.5963 13.7617C17.3766 13.9515 17.0863 14.0589 16.7834 14.0625C16.0254 14.0559 15.3783 13.295 16.5471 11.8941C16.6598 11.8776 16.8071 11.9057 16.9288 11.9156C17.1379 11.9305 17.3524 11.9123 17.5978 11.7337C17.5687 11.2722 17.5687 10.8355 17.5069 10.4187C17.4015 10.2715 17.5214 10.0747 17.576 9.89111C17.6687 10.212 17.965 10.2186 17.6832 10.5064C17.7505 10.9695 17.7577 11.4409 17.7577 11.7221C17.616 11.9189 17.5051 12.1273 17.0906 12.2067C16.6671 12.1505 16.4762 11.6113 16.0345 11.7899C16.1563 11.3036 17.2779 11.1928 17.3906 11.5765C17.316 11.9768 16.269 11.8164 15.9909 13.1098C15.9055 13.5084 16.3672 13.8756 16.8416 13.8458C17.3051 13.8177 17.7995 13.5249 17.8486 13.0321C17.8868 12.6202 17.2488 12.6682 16.9816 12.6731C16.5926 12.6814 16.3472 12.6268 16.1999 12.5491M16.598 11.6576C16.6671 11.598 16.9088 11.5567 16.9961 11.6526C16.9307 11.6923 16.867 11.7353 16.8143 11.7866C16.7234 11.7436 16.6635 11.7006 16.598 11.6576Z" stroke="white" stroke-width="0.00693577"/>
<path fill-rule="evenodd" clip-rule="evenodd" d="M17.1905 10.2898C17.2507 10.3976 17.2836 10.5163 17.2868 10.6371C17.2468 10.8092 17.085 10.9696 16.9178 10.9746C16.8142 10.9779 16.6979 10.9514 16.6161 10.8042C16.607 10.786 16.5634 10.743 16.5215 10.7628C16.3379 11.0374 16.2016 11.1532 16.0362 11.1515C15.7054 11.1466 15.8035 10.8786 15.4982 10.7959C15.3709 10.7926 15.1619 10.91 15.0546 11.14C14.6474 12.1902 14.2766 11.1366 14.4348 10.6471C14.4584 11.1151 14.582 11.393 14.7092 11.3847C14.802 11.3765 14.8838 11.1813 15.0019 10.9762C15.0928 10.8191 15.3109 10.5362 15.5418 10.5362C15.7526 10.5412 15.6199 10.8935 16.0417 10.8885C16.2452 10.8852 16.4325 10.743 16.6215 10.4585C16.6633 10.4519 16.6742 10.5197 16.6833 10.5429C16.7124 10.6404 16.8978 10.9084 17.1487 10.6636C17.1359 10.6107 17.1414 10.523 17.0778 10.5048L17.1905 10.2898Z" fill="white" stroke="white" stroke-width="0.0173394"/>
<path fill-rule="evenodd" clip-rule="evenodd" d="M18.5156 9.41973C18.2921 9.52062 18.1285 9.428 18.0358 9.33868C18.1975 9.30891 18.323 9.25598 18.3593 9.1402C18.2866 8.99134 18.1139 8.92683 17.8703 8.92518C17.545 8.93345 17.3777 9.05254 17.3577 9.21629C17.5086 9.22125 17.6449 9.18321 17.7031 9.31553C17.4359 9.43461 17.1214 9.47762 16.7797 9.47596C16.2198 9.50243 16.138 9.27252 15.9908 9.07073C15.9799 9.0575 15.9308 9.036 15.9054 9.03931C15.7327 9.03931 15.6054 9.58843 15.4109 9.58678C15.2164 9.56362 15.2601 9.23283 15.2037 9.04427C15.1564 9.34034 15.2637 10.4419 15.8654 9.24606C15.8835 9.20636 15.909 9.21794 15.9254 9.25102C16.0871 9.58513 16.4161 9.70091 16.7706 9.71745C17.0669 9.73233 17.445 9.6149 17.8504 9.4065C17.9576 9.51401 18.043 9.6364 18.2684 9.65956C18.532 9.67114 18.8138 9.49747 18.8774 9.28245C18.9101 9.17163 18.9156 8.9533 18.7865 8.94999C18.6065 8.94503 18.4757 9.34199 18.5175 9.69925C18.5211 9.69429 18.5411 9.60994 18.5411 9.60994M17.7449 9.13359C17.8631 9.08397 17.9776 9.06081 18.0685 9.16997C18.0138 9.18394 17.9622 9.20632 17.9158 9.23613C17.8649 9.19974 17.7958 9.18155 17.7449 9.13359ZM18.6138 9.38003C18.6429 9.2626 18.6592 9.16832 18.7647 9.10712C18.7865 9.23117 18.7901 9.30064 18.6138 9.38003ZM19.3227 9.56197C19.2882 9.46108 19.2537 9.37341 19.2427 9.26425C19.2173 9.04261 19.4263 8.91691 19.6154 8.93511C19.8099 8.9533 19.9389 9.01946 20.1244 9.07735C20.2698 9.12201 20.4661 9.15674 20.6533 9.20471C20.7588 9.24771 20.6533 9.36018 20.6261 9.37507C20.1571 9.54212 19.8244 9.80676 19.5263 9.81834C19.3482 9.82661 19.19 9.72075 19.0464 9.50408C19.0373 9.08396 19.021 8.59107 18.9755 8.28178C19.0446 8.21892 19.0592 8.17261 19.0919 8.12134C19.1282 8.52988 19.1428 8.95991 19.1519 9.39326C19.19 9.46769 19.2373 9.53054 19.3227 9.56197ZM19.6227 9.59505C19.3718 9.65956 19.4027 9.46604 19.3791 9.34695C19.3518 9.20801 19.37 9.05088 19.5645 9.09058C19.8172 9.15178 20.048 9.23282 20.2716 9.31883L19.6227 9.59505Z" fill="white"/>
<path d="M18.5156 9.41973C18.2921 9.52062 18.1285 9.428 18.0358 9.33868C18.1975 9.30891 18.323 9.25598 18.3593 9.1402C18.2866 8.99134 18.1139 8.92683 17.8703 8.92518C17.545 8.93345 17.3777 9.05254 17.3577 9.21629C17.5086 9.22125 17.6449 9.18321 17.7031 9.31553C17.4359 9.43461 17.1214 9.47762 16.7797 9.47596C16.2198 9.50243 16.138 9.27252 15.9908 9.07073C15.9799 9.0575 15.9308 9.036 15.9054 9.03931C15.7327 9.03931 15.6054 9.58843 15.4109 9.58678C15.2164 9.56362 15.2601 9.23283 15.2037 9.04427C15.1564 9.34034 15.2637 10.4419 15.8654 9.24606C15.8835 9.20636 15.909 9.21794 15.9254 9.25102C16.0871 9.58513 16.4161 9.70091 16.7706 9.71745C17.0669 9.73233 17.445 9.6149 17.8504 9.4065C17.9576 9.51401 18.043 9.6364 18.2684 9.65956C18.532 9.67114 18.8138 9.49747 18.8774 9.28245C18.9101 9.17163 18.9156 8.9533 18.7865 8.94999C18.6065 8.94503 18.4757 9.34199 18.5175 9.69925C18.5211 9.69429 18.5411 9.60994 18.5411 9.60994M17.7449 9.13359C17.8631 9.08397 17.9776 9.06081 18.0685 9.16997C18.0138 9.18394 17.9622 9.20632 17.9158 9.23613C17.8649 9.19974 17.7958 9.18155 17.7449 9.13359ZM18.6138 9.38003C18.6429 9.2626 18.6592 9.16832 18.7647 9.10712C18.7865 9.23117 18.7901 9.30064 18.6138 9.38003ZM19.3227 9.56197C19.2882 9.46108 19.2537 9.37341 19.2427 9.26425C19.2173 9.04261 19.4263 8.91691 19.6154 8.93511C19.8099 8.9533 19.9389 9.01946 20.1244 9.07735C20.2698 9.12201 20.4661 9.15674 20.6533 9.20471C20.7588 9.24771 20.6533 9.36018 20.6261 9.37507C20.1571 9.54212 19.8244 9.80676 19.5263 9.81834C19.3482 9.82661 19.19 9.72075 19.0464 9.50408C19.0373 9.08396 19.021 8.59107 18.9755 8.28178C19.0446 8.21892 19.0592 8.17261 19.0919 8.12134C19.1282 8.52988 19.1428 8.95991 19.1519 9.39326C19.19 9.46769 19.2373 9.53054 19.3227 9.56197ZM19.6227 9.59505C19.3718 9.65956 19.4027 9.46604 19.3791 9.34695C19.3518 9.20801 19.37 9.05088 19.5645 9.09058C19.8172 9.15178 20.048 9.23282 20.2716 9.31883L19.6227 9.59505Z" stroke="white" stroke-width="0.00693577"/>
<path fill-rule="evenodd" clip-rule="evenodd" d="M19.3772 9.80005L19.4117 9.95387H19.439L19.4281 9.80997" fill="white"/>
<path d="M19.3772 9.80005L19.4117 9.95387H19.439L19.4281 9.80997" stroke="white" stroke-width="0.00693577"/>
<path fill-rule="evenodd" clip-rule="evenodd" d="M15.3763 11.4078L15.5035 11.2887L15.6508 11.4029L15.5144 11.5137L15.3763 11.4078ZM15.6998 11.3681L15.8289 11.249L15.9761 11.3632L15.8398 11.474L15.6998 11.3681ZM14.8 10.1343L14.9291 10.0152L15.0763 10.1293L14.94 10.2401L14.8 10.1343ZM14.8582 10.4849L14.9873 10.3658L15.1327 10.4799L14.9964 10.5908L14.8582 10.4849ZM17.194 11.0721L17.3122 10.9844L17.4212 11.0919L17.2976 11.1713L17.194 11.0721ZM15.6344 8.82759L15.718 8.74985L15.8144 8.82428L15.7253 8.89706L15.6344 8.82759ZM15.8471 8.80278L15.9307 8.72339L16.027 8.79947L15.938 8.8706L15.8471 8.80278ZM20.3115 9.69098L20.2315 9.75218L20.1551 9.68106L20.2388 9.62482L20.3115 9.69098Z" fill="white" stroke="white" stroke-width="0.0693577" stroke-linecap="round" stroke-linejoin="round"/>
<path fill-rule="evenodd" clip-rule="evenodd" d="M16.5489 11.8857L16.5398 12.0164L16.7688 12.0363L16.9524 11.9106L16.5489 11.8857Z" fill="white" stroke="white" stroke-width="0.00693577"/>
<path fill-rule="evenodd" clip-rule="evenodd" d="M18.4846 9.44463L18.5519 9.4314L18.5446 9.60176L18.5028 9.61664L18.4846 9.44463Z" fill="white" stroke="white" stroke-width="0.0173394"/>
<path d="M17.9898 16.3038C20.5698 16.3038 22.6698 14.3938 22.6698 12.0438C22.6621 11.4183 22.5112 10.8028 22.2287 10.2446C21.9461 9.68641 21.5394 9.2004 21.0398 8.82385C21.6535 9.4726 21.9968 10.3309 21.9998 11.2238C21.9998 13.2638 20.2048 14.9188 17.9898 14.9188C15.7748 14.9188 13.9798 13.2638 13.9798 11.2188C13.9798 10.3038 14.3398 9.46385 14.9398 8.81885C14.4386 9.19616 14.0309 9.68372 13.7482 10.2438C13.4656 10.8039 13.3156 11.4215 13.3098 12.0488C13.3098 14.3938 15.4098 16.3038 17.9898 16.3038Z" fill="white"/>
<path d="M17.3542 18.6752C16.3221 19.1448 15.0319 19.0168 13.9411 18.3764C13.8942 18.3551 13.8707 18.3871 13.9176 18.5045C14.0349 18.814 14.1288 19.0594 13.7769 19.5184C13.6244 19.7211 13.8003 19.7532 14.0584 19.7318C15.372 19.6144 16.6622 19.3476 17.2839 19.1235L17.3542 18.6752ZM17.3308 19.2302C16.9203 19.3796 16.2165 19.5611 15.4307 19.6891C15.114 19.7318 15.1257 19.9132 15.6887 19.9773C16.2634 20.0306 17.0024 19.6571 17.4481 19.3263L17.3308 19.2302Z" fill="white" stroke="black" stroke-width="0.0895063"/>
<path d="M17.9877 18.2058C18.1284 18.2058 18.3865 18.1524 18.6445 18.1204C19.1254 18.0457 18.7735 18.718 17.9877 18.718V18.9422C18.7852 18.9422 19.618 18.1524 19.4421 17.8002C19.1958 17.2879 18.5155 17.7255 17.9877 17.7255C17.4599 17.7255 16.7796 17.2879 16.5333 17.8002C16.3573 18.1524 17.1901 18.9422 17.9877 18.9422V18.718C17.2018 18.718 16.85 18.0457 17.3309 18.1204C17.5889 18.1524 17.8469 18.2058 17.9877 18.2058Z" fill="white"/>
<path d="M17.9877 18.718C18.7735 18.718 19.1254 18.0457 18.6445 18.1204C18.3865 18.1524 18.1284 18.2058 17.9877 18.2058C17.8469 18.2058 17.5889 18.1524 17.3309 18.1204C16.85 18.0457 17.2018 18.718 17.9877 18.718ZM17.9877 18.718V18.9422M17.9877 18.9422C18.7852 18.9422 19.618 18.1524 19.4421 17.8002C19.1958 17.2879 18.5155 17.7255 17.9877 17.7255C17.4599 17.7255 16.7796 17.2879 16.5333 17.8002C16.3573 18.1524 17.1901 18.9422 17.9877 18.9422Z" stroke="black" stroke-width="0.0895063"/>
<path d="M18.6209 18.6752C19.6531 19.1448 20.9433 19.0168 22.0341 18.3764C22.081 18.3551 22.1044 18.3871 22.0575 18.5045C21.9402 18.814 21.8464 19.0594 22.1983 19.5184C22.3508 19.7211 22.1748 19.7532 21.9168 19.7318C20.6031 19.6144 19.3129 19.3476 18.6913 19.1235L18.6209 18.6752ZM18.6444 19.2302C19.0549 19.3796 19.7469 19.5611 20.5445 19.6891C20.8612 19.7318 20.8494 19.9132 20.2864 19.9773C19.7117 20.0306 18.9728 19.6571 18.5271 19.3263L18.6444 19.2302Z" fill="white" stroke="black" stroke-width="0.0895063"/>
<path d="M18.0227 19.1235C18.0462 19.3049 18.0814 19.6998 18.3511 19.529C18.7147 19.3049 18.7968 19.1342 18.7968 18.814C18.7968 18.6112 18.5271 18.3124 17.9875 18.3124C17.448 18.3124 17.1782 18.6112 17.1782 18.814C17.1782 19.1342 17.2603 19.3049 17.6239 19.529C17.8937 19.6998 17.9171 19.3049 17.9523 19.1235C17.9641 19.0595 18.0227 19.0808 18.0227 19.1235Z" fill="white" stroke="black" stroke-width="0.0895063"/>
<path d="M17.6506 5.45198C17.4981 4.66221 16.2197 4.60885 16.0203 4.48078C15.7857 4.34204 15.8209 4.48078 15.903 4.69423C16.1376 5.2492 16.9351 5.47332 17.2987 5.53736C17.592 5.58005 17.6858 5.60139 17.6506 5.45198Z" fill="white" stroke="black" stroke-width="0.0895063"/>
<path d="M18.0376 5.47341C18.1667 4.6623 16.8999 4.27809 16.7474 4.09666C16.5715 3.90456 16.5481 4.02195 16.6302 4.24608C16.7826 4.72634 17.3339 5.29198 17.6623 5.4414C17.9321 5.56947 18.0142 5.62283 18.0376 5.47341Z" fill="white" stroke="black" stroke-width="0.0895063"/>
<path d="M19.0817 5.94295C19.199 4.97176 18.1668 4.82234 17.8971 4.51284C17.7211 4.32073 17.7094 4.42746 17.7681 4.65158C17.8853 5.14252 18.4014 5.71883 18.7181 5.90026C18.9644 6.03901 19.07 6.09237 19.0817 5.94295Z" fill="white" stroke="black" stroke-width="0.0895063"/>
<path d="M18.7648 5.72948C17.6975 5.0998 16.9468 5.452 16.6419 5.41998C16.3487 5.38796 16.2548 5.55872 16.7592 5.81486C17.3808 6.12436 18.2487 6.08167 18.5889 5.96428C18.9408 5.83621 18.8352 5.77217 18.7648 5.72948ZM20.3717 6.15638C20.0433 5.11048 19.2809 5.28124 19.0581 5.15317C18.8352 5.0251 18.8117 5.05711 18.8587 5.29191C18.9525 5.70814 19.7383 6.16705 20.1254 6.30579C20.2661 6.34848 20.4421 6.41252 20.3717 6.15638Z" fill="white" stroke="black" stroke-width="0.0895063"/>
<path d="M20.2194 6.33778C19.3045 5.66541 18.5891 6.16702 18.3076 6.09231C18.0964 6.03895 18.1903 6.16702 18.2724 6.22038C18.8588 6.59392 19.586 6.7967 20.149 6.5619C20.3719 6.47652 20.3836 6.45518 20.2194 6.33778ZM22.2016 7.02082C22.2133 6.35913 20.712 6.08164 20.3953 5.67609C20.2077 5.43062 20.0435 5.55869 20.1373 5.95357C20.278 6.46585 21.3102 7.03149 21.8732 7.13822C22.2133 7.20225 22.2016 7.09553 22.2016 7.02082Z" fill="white" stroke="black" stroke-width="0.0895063"/>
<path d="M22.1547 7.13843C21.2047 6.35934 20.4071 6.61548 20.1139 6.54077C19.8207 6.47673 19.7034 6.63682 20.1608 6.957C20.7238 7.34121 21.5917 7.41591 21.9553 7.34121C22.3189 7.2665 22.2251 7.19179 22.1547 7.13843ZM23.8554 8.28039C23.5857 7.1491 22.7294 6.91431 22.5183 6.70086C22.3189 6.48741 22.1078 6.55144 22.2837 7.06372C22.4949 7.67205 23.1869 8.20568 23.5505 8.33375C23.9023 8.47249 23.8789 8.36577 23.8554 8.28039Z" fill="white" stroke="black" stroke-width="0.0895063"/>
<path d="M23.8436 8.42961C23.1516 7.41572 22.2485 7.44774 21.967 7.309C21.6972 7.15958 21.5095 7.28765 21.8731 7.72523C22.2954 8.25885 23.1633 8.55768 23.5621 8.57903C23.9609 8.60037 23.8905 8.50432 23.8436 8.42961Z" fill="white" stroke="black" stroke-width="0.0895063"/>
<path d="M24.7351 9.6356C25.1339 8.48297 24.219 8.05607 24.1252 7.86396C24.0197 7.67186 23.9141 7.67186 23.8554 7.87464C23.5974 8.69642 24.4302 9.49686 24.5592 9.65694C24.6882 9.80636 24.7117 9.73165 24.7351 9.6356Z" fill="white" stroke="black" stroke-width="0.0895063"/>
<path d="M24.5474 9.95581C24.2307 8.66444 23.3979 8.73915 23.2103 8.55772C23.0109 8.37628 22.9874 8.50435 23.0226 8.73915C23.1164 9.36883 23.9492 9.79573 24.3245 10.0092C24.4418 10.0732 24.5826 10.1479 24.5474 9.95581ZM25.345 11.4713C25.9197 10.2546 25.2394 9.43286 25.0283 9.25143C24.8172 9.08067 24.6881 9.00596 24.7585 9.25143C24.8523 9.62497 24.5239 10.5855 25.0283 11.2899C25.1925 11.5247 25.2159 11.7488 25.345 11.4713Z" fill="white" stroke="black" stroke-width="0.0895063"/>
<path d="M25.0401 11.7169C25.1691 10.9698 24.6999 10.2868 24.1956 10.02C23.9024 9.85988 23.8906 9.90257 23.8906 10.1267C23.9141 10.8204 24.6296 11.3967 24.8407 11.7169C25.0401 12.0157 25.0283 11.7916 25.0401 11.7169Z" fill="white" stroke="black" stroke-width="0.0895063"/>
<path d="M24.9109 13.6591C24.4887 12.2504 25.3683 11.4392 25.6381 11.2792C25.8961 11.1084 26.0603 11.0444 25.9431 11.3112C25.7671 11.7061 25.9548 12.8053 25.2862 13.499C25.0751 13.7338 24.993 13.9793 24.9109 13.6591Z" fill="white" stroke="black" stroke-width="0.0895063"/>
<path d="M25.0048 13.3497C25.3567 12.1223 24.5943 11.4286 24.3597 11.2899C24.1369 11.1511 23.9961 11.0978 24.1017 11.3219C24.2424 11.6634 24.0899 12.6239 24.6764 13.2216C24.8641 13.4244 24.9344 13.6271 25.0048 13.3497Z" fill="white" stroke="black" stroke-width="0.0895063"/>
<path d="M24.5707 12.7734C23.9373 13.3924 23.9256 14.2996 24.2071 14.8332C24.383 15.1427 24.4065 15.1213 24.5707 14.8972C25.0164 14.2462 24.7466 13.307 24.7701 12.8908C24.7818 12.4959 24.6411 12.7094 24.5707 12.7734Z" fill="white" stroke="black" stroke-width="0.0895063"/>
<path d="M25.6146 13.7553C25.6146 14.6091 25.0399 15.3029 24.43 15.5163C24.0781 15.6337 24.0781 15.6017 24.125 15.3456C24.2892 14.385 25.0985 14.0328 25.3917 13.7233C25.6732 13.4245 25.6146 13.67 25.6146 13.7553Z" fill="white" stroke="black" stroke-width="0.0895063"/>
<path d="M23.4331 16.2953C24.4653 15.4415 23.914 14.8438 23.9609 14.2888C23.9844 13.99 23.8554 14.0647 23.7381 14.1714C23.0813 14.7584 23.0461 15.8043 23.1868 16.2099C23.2455 16.3913 23.3393 16.37 23.4331 16.2953Z" fill="white" stroke="black" stroke-width="0.0895063"/>
<path d="M24.8172 15.7404C24.4771 16.6795 23.5739 17.2558 22.8115 17.2879C22.3658 17.3092 22.3776 17.2772 22.53 16.9997C23.1048 15.9965 24.1252 15.8791 24.5826 15.623C25.0049 15.3882 24.8524 15.6443 24.8172 15.7404Z" fill="white" stroke="black" stroke-width="0.0895063"/>
<path d="M22.0139 17.5014C23.351 16.893 23.0812 15.8791 23.3275 15.623C23.5035 15.4416 23.2924 15.4629 23.1868 15.5269C22.401 15.9432 21.7676 16.6049 21.7559 17.3093C21.7559 17.5761 21.7793 17.6081 22.0139 17.5014Z" fill="white" stroke="black" stroke-width="0.0895063"/>
<path d="M20.1843 18.6327C21.8732 18.8781 22.6591 17.7148 23.1517 17.6081C23.4097 17.5547 23.2221 17.4587 23.0931 17.448C21.9671 17.3306 20.5361 17.8109 20.1022 18.3445C19.9262 18.558 19.9262 18.6007 20.1843 18.6327Z" fill="white" stroke="black" stroke-width="0.0895063"/>
<path d="M21.8966 16.8075C21.5565 17.8214 20.2897 18.6539 19.3397 18.7179C18.894 18.7499 18.894 18.7072 19.0582 18.4404C19.8206 17.1811 21.146 16.9676 21.6151 16.6474C22.0139 16.3699 21.9318 16.7115 21.8966 16.8075ZM18.331 5.45198C18.4835 4.66221 19.7619 4.60885 19.9613 4.48078C20.1959 4.34204 20.1607 4.48078 20.0786 4.69423C19.844 5.2492 19.0465 5.47332 18.6829 5.53736C18.3896 5.58005 18.2958 5.60139 18.331 5.45198Z" fill="white" stroke="black" stroke-width="0.0895063"/>
<path d="M17.944 5.47341C17.815 4.6623 19.0817 4.27809 19.2342 4.09666C19.4101 3.90456 19.4336 4.02195 19.3515 4.24608C19.199 4.72634 18.6478 5.29198 18.3194 5.4414C18.0496 5.56947 17.9675 5.62283 17.944 5.47341Z" fill="white" stroke="black" stroke-width="0.0895063"/>
<path d="M16.9001 5.94295C16.7828 4.97176 17.815 4.82234 18.0847 4.51284C18.2607 4.32073 18.2724 4.42746 18.2138 4.65158C18.0965 5.14252 17.5804 5.71883 17.2637 5.90026C17.0174 6.03901 16.9118 6.09237 16.9001 5.94295Z" fill="white" stroke="black" stroke-width="0.0895063"/>
<path d="M17.2166 5.72948C18.284 5.0998 19.0346 5.452 19.3396 5.41998C19.6328 5.38796 19.7267 5.55872 19.2223 5.81486C18.6007 6.12436 17.7327 6.08167 17.3926 5.96428C17.0407 5.83621 17.1463 5.77217 17.2166 5.72948ZM15.6098 6.15638C15.9382 5.11048 16.7006 5.28124 16.9234 5.15317C17.1463 5.0251 17.1697 5.05711 17.1228 5.29191C17.029 5.70814 16.2431 6.16705 15.8561 6.30579C15.7153 6.34848 15.5394 6.41252 15.6098 6.15638Z" fill="white" stroke="black" stroke-width="0.0895063"/>
<path d="M15.7623 6.33778C16.6772 5.66541 17.3926 6.16702 17.6741 6.09231C17.8852 6.03895 17.7914 6.16702 17.7093 6.22038C17.1229 6.59392 16.3957 6.7967 15.8327 6.5619C15.6098 6.47652 15.5981 6.45518 15.7623 6.33778ZM13.7801 7.02082C13.7684 6.35913 15.2697 6.08164 15.5864 5.67609C15.774 5.43062 15.9382 5.55869 15.8444 5.95357C15.7037 6.46585 14.6715 7.03149 14.1085 7.13822C13.7684 7.20225 13.7801 7.09553 13.7801 7.02082Z" fill="white" stroke="black" stroke-width="0.0895063"/>
<path d="M13.8269 7.13843C14.777 6.35934 15.5746 6.61548 15.8678 6.54077C16.161 6.47673 16.2783 6.63682 15.8209 6.957C15.2579 7.34121 14.3899 7.41591 14.0263 7.34121C13.6627 7.2665 13.7566 7.19179 13.8269 7.13843ZM12.1262 8.28039C12.396 7.1491 13.2522 6.91431 13.4633 6.70086C13.6627 6.48741 13.8739 6.55144 13.6979 7.06372C13.4868 7.67205 12.7948 8.20568 12.4312 8.33375C12.0793 8.47249 12.1028 8.36577 12.1262 8.28039Z" fill="white" stroke="black" stroke-width="0.0895063"/>
<path d="M12.1381 8.42961C12.8301 7.41572 13.7333 7.44774 14.0148 7.309C14.2845 7.15958 14.4722 7.28765 14.1086 7.72523C13.6864 8.25885 12.8184 8.55768 12.4196 8.57903C12.0208 8.60037 12.0912 8.50432 12.1381 8.42961Z" fill="white" stroke="black" stroke-width="0.0895063"/>
<path d="M11.2466 9.6356C10.8478 8.48297 11.7627 8.05607 11.8565 7.86396C11.9621 7.67186 12.0676 7.67186 12.1263 7.87464C12.3843 8.69642 11.5516 9.49686 11.4225 9.65694C11.2935 9.80636 11.2701 9.73165 11.2466 9.6356Z" fill="white" stroke="black" stroke-width="0.0895063"/>
<path d="M11.4342 9.95581C11.7509 8.66444 12.5836 8.73915 12.7713 8.55772C12.9707 8.37628 12.9941 8.50435 12.959 8.73915C12.8651 9.36883 12.0324 9.79573 11.657 10.0092C11.5398 10.0732 11.399 10.1479 11.4342 9.95581ZM10.6366 11.4713C10.0619 10.2546 10.7422 9.43286 10.9533 9.25143C11.1644 9.08067 11.2934 9.00596 11.2231 9.25143C11.1292 9.62497 11.4576 10.5855 10.9533 11.2899C10.7891 11.5247 10.7656 11.7488 10.6366 11.4713Z" fill="white" stroke="black" stroke-width="0.0895063"/>
<path d="M10.9418 11.7169C10.8128 10.9698 11.2819 10.2868 11.7863 10.02C12.0795 9.85988 12.0912 9.90257 12.0912 10.1267C12.0678 10.8204 11.3523 11.3967 11.1412 11.7169C10.9418 12.0157 10.9535 11.7916 10.9418 11.7169Z" fill="white" stroke="black" stroke-width="0.0895063"/>
<path d="M11.0707 13.6591C11.493 12.2504 10.6133 11.4392 10.3435 11.2792C10.0855 11.1084 9.92127 11.0444 10.0386 11.3112C10.2145 11.7061 10.0268 12.8053 10.6954 13.499C10.9065 13.7338 10.9769 13.9793 11.0707 13.6591Z" fill="white" stroke="black" stroke-width="0.0895063"/>
<path d="M10.9768 13.3497C10.6249 12.1223 11.3873 11.4286 11.6219 11.2899C11.8447 11.1511 11.9855 11.0978 11.8799 11.3219C11.7392 11.6634 11.8917 12.6239 11.3052 13.2216C11.1175 13.4244 11.0472 13.6271 10.9768 13.3497Z" fill="white" stroke="black" stroke-width="0.0895063"/>
<path d="M11.4109 12.7734C12.0443 13.3924 12.056 14.2996 11.7745 14.8332C11.5986 15.1427 11.5751 15.1213 11.4109 14.8972C10.9652 14.2462 11.235 13.307 11.2115 12.8908C11.1998 12.4959 11.3406 12.7094 11.4109 12.7734Z" fill="white" stroke="black" stroke-width="0.0895063"/>
<path d="M10.3669 13.7553C10.3669 14.6091 10.9416 15.3029 11.5515 15.5163C11.9034 15.6337 11.9034 15.6017 11.8565 15.3456C11.6923 14.385 10.883 14.0328 10.5897 13.7233C10.3082 13.4245 10.3669 13.67 10.3669 13.7553Z" fill="white" stroke="black" stroke-width="0.0895063"/>
<path d="M12.5485 16.2953C11.5163 15.4415 12.0676 14.8438 12.0207 14.2888C11.9972 13.99 12.1262 14.0647 12.2435 14.1714C12.9003 14.7584 12.9355 15.8043 12.7948 16.2099C12.7361 16.3913 12.6423 16.37 12.5485 16.2953Z" fill="white" stroke="black" stroke-width="0.0895063"/>
<path d="M11.1646 15.7404C11.5047 16.6795 12.4079 17.2558 13.1702 17.2879C13.6159 17.3092 13.6042 17.2772 13.4517 16.9997C12.877 15.9965 11.8566 15.8791 11.3992 15.623C10.9769 15.3882 11.1294 15.6443 11.1646 15.7404Z" fill="white" stroke="black" stroke-width="0.0895063"/>
<path d="M13.9679 17.5014C12.6308 16.893 12.9006 15.8791 12.6542 15.623C12.4783 15.4416 12.6894 15.4629 12.795 15.5269C13.5808 15.9432 14.2142 16.6049 14.2259 17.3093C14.2259 17.5761 14.2025 17.6081 13.9679 17.5014Z" fill="white" stroke="black" stroke-width="0.0895063"/>
<path d="M15.7975 18.6327C14.1086 18.8781 13.3227 17.7148 12.8301 17.6081C12.5721 17.5547 12.7597 17.4587 12.8888 17.448C14.0147 17.3306 15.4457 17.8109 15.8797 18.3445C16.0556 18.558 16.0556 18.6007 15.7975 18.6327Z" fill="white" stroke="black" stroke-width="0.0895063"/>
<path d="M14.0851 16.8076C14.4252 17.8215 15.692 18.6539 16.642 18.718C17.0877 18.75 17.0877 18.7073 16.9235 18.4405C16.1611 17.1811 14.8357 16.9677 14.3666 16.6475C13.9678 16.37 14.0499 16.7115 14.0851 16.8076Z" fill="white" stroke="black" stroke-width="0.0895063"/>
<path d="M19.9699 6.43389C19.7499 6.28389 18.9299 6.36889 18.7749 6.26889C19.0699 6.49389 19.7249 6.33389 19.9749 6.43389H19.9699ZM21.9549 6.81389C21.7799 6.52889 20.7349 6.33389 20.5799 6.07889C20.8549 6.56889 21.6599 6.50389 21.9549 6.81389ZM21.8049 7.14389C21.4149 6.80389 20.5149 6.94389 20.2399 6.74389C20.8749 7.26389 21.2249 6.85889 21.7999 7.14389H21.8049ZM19.5399 5.62889C19.7849 5.74889 20.0899 5.86389 20.2399 6.14389C20.0649 5.92889 19.7499 5.84389 19.4899 5.66389C19.5049 5.66389 19.5249 5.64389 19.5399 5.62889ZM23.3899 7.82889C23.2349 7.50889 22.6899 7.15889 22.6449 7.03889C22.7949 7.45389 23.2449 7.55389 23.3849 7.82889H23.3899ZM23.5249 8.39389C23.0549 7.72389 22.3199 7.79389 22.0249 7.54389C22.2499 7.78889 23.0949 7.94389 23.5249 8.39389ZM24.6149 9.42889C24.6499 8.71389 24.0649 8.44889 24.0449 8.04389C24.0299 8.52389 24.6449 9.17389 24.6149 9.42889ZM24.3249 9.81389C24.2049 9.19389 23.4099 9.15389 23.2699 8.78889C23.2699 9.12889 24.2049 9.48389 24.3199 9.81389H24.3249ZM24.9799 9.46389C25.4049 9.93389 25.1099 10.6489 25.2849 11.1689C25.0749 10.7839 25.1799 9.82389 24.9849 9.46389H24.9799ZM24.2899 11.4639C24.9199 12.0889 24.6649 12.7789 24.9199 13.0789C24.6049 12.6639 24.6499 11.8539 24.2899 11.4689V11.4639ZM25.6049 11.5539C25.0599 12.0989 25.3899 12.9189 25.1049 13.3039C25.4249 12.9739 25.3799 11.9539 25.6049 11.5539ZM24.9199 11.5539C24.8499 10.9239 24.2049 10.5939 24.1499 10.2539C24.0749 10.5939 24.7699 11.1289 24.9199 11.5539ZM24.5949 13.0539C24.6949 13.4939 24.3099 14.4339 24.4299 14.7239C24.1699 14.2239 24.6499 13.2739 24.5949 13.0589V13.0539ZM25.4249 14.0589C25.1699 14.8389 24.6499 14.7889 24.4899 15.2589C24.6049 14.8089 25.2899 14.4039 25.4249 14.0589ZM23.7499 14.4239C23.4099 14.9489 23.6899 15.5439 23.4099 15.9189C23.8099 15.5439 23.5949 14.8489 23.7499 14.4239ZM24.5699 15.8539C24.1599 16.5489 23.3149 16.4839 22.9749 16.9839C23.3149 16.3539 24.3599 16.2489 24.5749 15.8539H24.5699ZM23.0799 15.7689C22.3549 16.2289 22.5799 16.7089 22.0249 17.2189C22.7149 16.7089 22.6599 16.1439 23.0799 15.7689ZM22.7399 17.6289C22.0399 17.6039 21.0299 18.4389 20.4199 18.3739C21.0299 18.4939 22.1549 17.7439 22.7399 17.6239V17.6289ZM21.6049 16.8789C21.5549 17.5289 19.7249 17.9489 19.5299 18.3839C19.7499 17.8089 21.3599 17.3839 21.6049 16.8839V16.8789ZM17.4649 4.87889C17.2299 4.69389 16.9449 4.54389 16.8649 4.36389C16.9249 4.59889 17.1549 4.76389 17.3899 4.92889C17.4149 4.91889 17.4399 4.88389 17.4649 4.87389V4.87889ZM17.0649 5.06389C16.6999 4.90389 16.2799 4.91389 16.0899 4.69389C16.2099 4.91389 16.6049 4.99889 16.9449 5.11889C16.9799 5.09889 17.0299 5.07389 17.0649 5.06889V5.06389ZM16.0099 6.42889C16.2299 6.27889 17.0499 6.36889 17.2049 6.26889C16.9099 6.49389 16.2549 6.33389 16.0049 6.42889H16.0099ZM14.0249 6.81389C14.1999 6.52889 15.2449 6.33389 15.3999 6.07889C15.1299 6.56889 14.3199 6.50389 14.0249 6.81389ZM14.1749 7.14389C14.5649 6.80389 15.4699 6.94389 15.7399 6.74389C15.1049 7.26389 14.7549 6.85889 14.1799 7.14389H14.1749ZM15.7399 6.14389C15.9599 5.71389 16.5899 5.66389 16.7599 5.40389C16.5099 5.78889 15.9749 5.85389 15.7399 6.14389ZM17.5399 5.76889C18.1899 5.49389 18.8249 5.72889 19.1299 5.59889C18.7549 5.77889 17.8599 5.69389 17.5449 5.76889H17.5399ZM12.5949 7.82889C12.7449 7.50889 13.2849 7.15389 13.3349 7.03889C13.1849 7.45389 12.7349 7.55389 12.5949 7.82889ZM12.4549 8.39389C12.9249 7.72389 13.6599 7.79389 13.9549 7.54389C13.7349 7.78889 12.8899 7.94389 12.4549 8.39389ZM11.3649 9.42889C11.3299 8.71389 11.9149 8.44889 11.9399 8.04389C11.9499 8.52389 11.3399 9.17389 11.3649 9.42889ZM11.6549 9.81389C11.7749 9.19389 12.5699 9.15389 12.7099 8.78889C12.7099 9.12889 11.7749 9.48389 11.6599 9.81389H11.6549ZM10.9999 9.46389C10.5799 9.93389 10.8699 10.6439 10.6999 11.1689C10.9049 10.7839 10.7999 9.82389 10.9999 9.46389ZM11.6899 11.4639C11.0599 12.0889 11.3149 12.7789 11.0599 13.0789C11.3749 12.6639 11.3299 11.8539 11.6899 11.4689V11.4639ZM10.3799 11.5539C10.9199 12.0989 10.5899 12.9189 10.8699 13.3039C10.5549 12.9739 10.5999 11.9539 10.3799 11.5539ZM11.0599 11.5539C11.1299 10.9239 11.7749 10.5939 11.8299 10.2539C11.9049 10.5939 11.2099 11.1289 11.0599 11.5539ZM11.3849 13.0539C11.2849 13.4939 11.6699 14.4339 11.5499 14.7239C11.8099 14.2239 11.3299 13.2739 11.3849 13.0589V13.0539ZM10.5549 14.0589C10.8149 14.8389 11.3299 14.7889 11.4949 15.2589C11.3749 14.8089 10.6949 14.4039 10.5549 14.0589ZM12.2299 14.4239C12.5699 14.9489 12.2899 15.5439 12.5699 15.9189C12.1699 15.5439 12.3849 14.8489 12.2299 14.4239ZM11.4099 15.8539C11.8199 16.5489 12.6649 16.4839 13.0099 16.9839C12.6649 16.3539 11.6199 16.2489 11.4099 15.8539ZM12.8999 15.7689C13.6249 16.2289 13.4049 16.7089 13.9549 17.2189C13.2649 16.7089 13.3249 16.1439 12.8999 15.7689ZM13.2399 17.6239C13.9399 17.6039 14.9549 18.4389 15.5599 18.3739C14.9549 18.4889 13.8249 17.7439 13.2399 17.6239ZM14.3799 16.8739C14.4249 17.5289 16.2549 17.9439 16.4549 18.3839C16.2299 17.8089 14.6249 17.3839 14.3749 16.8789L14.3799 16.8739ZM17.0399 5.78889C17.1799 5.21389 17.8899 5.10889 17.9799 4.76389C17.9449 5.12889 17.1099 5.53389 17.0399 5.78889ZM19.1149 4.35889C19.0149 4.79889 18.2499 5.04389 18.1449 5.37389C18.1799 4.92389 18.9649 4.67389 19.1149 4.35889ZM18.5149 5.39889C18.8799 4.86389 19.6299 4.99889 19.8899 4.69389C19.6999 5.05389 18.7749 5.06389 18.5149 5.39389V5.39889Z" fill="#006233"/>
<path d="M23.48 11.9889C23.48 14.7639 21.015 17.0089 17.965 17.0089C14.92 17.0089 12.45 14.7639 12.45 11.9939C12.45 9.21888 14.92 6.97388 17.965 6.97388C21.015 6.97388 23.48 9.22388 23.48 11.9939V11.9889Z" stroke="#F7C608" stroke-width="0.09" stroke-linecap="round" stroke-linejoin="round"/>
<path fill-rule="evenodd" clip-rule="evenodd" d="M17.4897 6.89889V6.83389C17.4897 6.79389 17.5297 6.75889 17.5747 6.74889L17.9847 6.73889C18.1247 6.73889 18.2697 6.73889 18.3947 6.74889C18.4447 6.75889 18.4797 6.83389 18.4797 6.87889V7.02889V7.08889C18.4797 7.13389 18.4447 7.16389 18.3947 7.16389C18.2585 7.15099 18.1216 7.14432 17.9847 7.14389C17.8478 7.14387 17.711 7.15055 17.5747 7.16389C17.5247 7.16389 17.4947 7.13389 17.4947 7.08889V7.03889L17.4897 6.89889ZM15.9149 7.16888L15.9399 7.23388L15.9799 7.36888L15.9949 7.41888C16.0099 7.45888 16.0499 7.47888 16.0949 7.46888C16.2227 7.41909 16.3528 7.37571 16.4849 7.33888C16.6185 7.30428 16.7537 7.27591 16.8899 7.25388C16.9299 7.24388 16.9549 7.20388 16.9399 7.16388L16.9199 7.09888L16.8749 6.95388C16.8599 6.91888 16.8049 6.85388 16.7599 6.85388C16.625 6.88072 16.4915 6.9141 16.3599 6.95388L15.9649 7.06888C15.9249 7.08888 15.9049 7.12888 15.9149 7.16888ZM14.5399 7.94886L14.5049 7.89886C14.4799 7.85886 14.4899 7.81886 14.5249 7.78386C14.5782 7.75451 14.6373 7.71661 14.699 7.67701L14.699 7.67701C14.7529 7.6424 14.8089 7.6065 14.8649 7.57386C14.9799 7.50386 15.0999 7.43386 15.2149 7.37886C15.2649 7.36886 15.3349 7.41386 15.3599 7.44886L15.4499 7.57386L15.4849 7.62386C15.5149 7.66386 15.4999 7.70886 15.4649 7.72886C15.3549 7.77886 15.2349 7.83886 15.1049 7.91386C14.9895 7.9814 14.8777 8.05483 14.7699 8.13386C14.7522 8.14439 14.7313 8.14817 14.7111 8.14449C14.6909 8.14081 14.6727 8.12993 14.6599 8.11386L14.6249 8.06386L14.5399 7.94886ZM13.3798 8.95379L13.4348 8.99879L13.5448 9.08879L13.5898 9.11879C13.6058 9.13467 13.6273 9.14358 13.6498 9.14358C13.6723 9.14358 13.6939 9.13467 13.7098 9.11879C13.7877 9.01434 13.8711 8.91419 13.9598 8.81879C14.0504 8.72579 14.1455 8.63735 14.2448 8.55379C14.2748 8.51879 14.2748 8.47379 14.2348 8.44379L14.1848 8.40379L14.0598 8.30379C14.0248 8.27879 13.9398 8.25379 13.8998 8.27879C13.8061 8.35776 13.7172 8.45134 13.6235 8.54993L13.6235 8.54993L13.6235 8.54993L13.6235 8.54993L13.6235 8.54993L13.6235 8.54993L13.6235 8.54994L13.6235 8.54994L13.6198 8.55379C13.5784 8.59755 13.5369 8.64555 13.4965 8.69242C13.4491 8.7473 13.403 8.80064 13.3598 8.84379C13.3398 8.88379 13.3448 8.92879 13.3798 8.95379ZM12.6897 10.2888L12.6247 10.2588C12.5797 10.2438 12.5647 10.2038 12.5747 10.1588C12.5969 10.1145 12.6191 10.0643 12.6421 10.012C12.671 9.9465 12.7013 9.87784 12.7347 9.81383L13.1347 9.98383C13.0784 10.0977 13.0283 10.2145 12.9847 10.3338C12.9697 10.3688 12.9247 10.3838 12.8847 10.3688L12.8247 10.3438L12.6897 10.2888ZM12.7347 9.81383C12.7897 9.69883 12.8497 9.57883 12.9147 9.47883C12.9447 9.44383 13.0347 9.44383 13.0747 9.46383L13.2247 9.52383L13.2897 9.55383C13.3297 9.56883 13.3497 9.61383 13.3297 9.65383C13.2607 9.76043 13.1972 9.87058 13.1397 9.98383L12.7347 9.81383ZM12.2249 11.6188C12.2299 11.6638 12.2549 11.7038 12.3049 11.7038L12.3749 11.7138L12.5249 11.7338L12.5849 11.7438C12.6299 11.7488 12.6699 11.7238 12.6749 11.6788C12.6794 11.5549 12.6911 11.4314 12.7099 11.3088C12.7313 11.184 12.7597 11.0605 12.7949 10.9388C12.7999 10.8988 12.7699 10.8638 12.7249 10.8538L12.6549 10.8488L12.4899 10.8288C12.4449 10.8188 12.3599 10.8388 12.3399 10.8788C12.3099 10.9988 12.2899 11.1238 12.2699 11.2488L12.2747 11.2495C12.2591 11.3309 12.2494 11.4162 12.2406 11.4931C12.2353 11.5388 12.2304 11.5816 12.2249 11.6188ZM12.5147 13.1639L12.4447 13.1739C12.4239 13.1756 12.403 13.1707 12.3851 13.16C12.3671 13.1492 12.353 13.1331 12.3447 13.1139L12.2697 12.7439C12.2469 12.6215 12.2302 12.498 12.2197 12.3739C12.2297 12.3289 12.3047 12.2889 12.3497 12.2839L12.5147 12.2639L12.5847 12.2539C12.6297 12.2439 12.6697 12.2739 12.6747 12.3139C12.6797 12.4239 12.6897 12.5489 12.7097 12.6889C12.7309 12.8121 12.7593 12.934 12.7947 13.0539C12.7997 13.0989 12.7697 13.1339 12.7247 13.1389L12.6647 13.1489L12.5147 13.1639ZM13.0348 14.5489L13.0998 14.5239L13.2398 14.4639L13.2898 14.4439C13.3298 14.4239 13.3498 14.3839 13.3298 14.3439C13.2748 14.2639 13.2048 14.1389 13.1398 14.0139C13.0836 13.9 13.0335 13.7831 12.9898 13.6639C12.9698 13.6239 12.9248 13.6089 12.8798 13.6239L12.8198 13.6539L12.6698 13.7139C12.6248 13.7339 12.5648 13.7889 12.5748 13.8389C12.6224 13.955 12.6772 14.068 12.7389 14.1772L12.7348 14.1789L12.9148 14.5189C12.9448 14.5489 12.9948 14.5689 13.0348 14.5489ZM14.0797 15.6739L14.0297 15.7139C13.9897 15.7439 13.9397 15.7389 13.8997 15.7139C13.8672 15.6791 13.828 15.6415 13.7867 15.6019L13.7867 15.6019C13.733 15.5504 13.6756 15.4954 13.6247 15.4389C13.5297 15.3389 13.4397 15.2439 13.3647 15.1489C13.3397 15.1089 13.3797 15.0389 13.4147 15.0089L13.5447 14.9139L13.5947 14.8689C13.6297 14.8439 13.6797 14.8439 13.7097 14.8789C13.7869 14.9822 13.8694 15.0814 13.9571 15.176L13.9597 15.1739C14.0334 15.2512 14.1125 15.3231 14.179 15.3836C14.2028 15.4052 14.225 15.4254 14.2447 15.4439C14.2797 15.4739 14.2747 15.5189 14.2397 15.5439L14.1947 15.5839L14.0797 15.6739ZM15.3398 16.5788L15.3748 16.5288L15.4598 16.4138L15.4898 16.3638C15.5148 16.3288 15.5048 16.2838 15.4648 16.2638C15.3434 16.2081 15.225 16.1464 15.1098 16.0788C14.9798 16.0038 14.8648 15.9238 14.7748 15.8588C14.7348 15.8338 14.6848 15.8438 14.6598 15.8838L14.6248 15.9338L14.5298 16.0588C14.5098 16.0938 14.4948 16.1738 14.5298 16.2088C14.6384 16.2837 14.7501 16.3537 14.8648 16.4188L15.1098 16.0788L14.8698 16.4188C14.9311 16.4562 14.9981 16.4921 15.0625 16.5266C15.1188 16.5568 15.1731 16.5858 15.2198 16.6138C15.2648 16.6288 15.3148 16.6188 15.3398 16.5788ZM16.8648 17.0739L16.8898 17.0139L16.9298 16.8788L16.9398 16.8289C16.9598 16.7889 16.9348 16.7489 16.8898 16.7389L16.4898 16.6539C16.3581 16.6178 16.228 16.5761 16.0998 16.5289C16.0548 16.5139 16.0098 16.5339 15.9998 16.5789L15.9798 16.6389L15.9348 16.7789C15.9198 16.8239 15.9298 16.9039 15.9698 16.9239C16.0935 16.9684 16.222 17.0031 16.3602 17.0377L16.3598 17.0389L16.7598 17.1339C16.8098 17.1389 16.8498 17.1139 16.8648 17.0739ZM19.0049 6.90888L18.9899 6.96888L18.9449 7.10388L18.9299 7.15388C18.9149 7.19888 18.9399 7.23388 18.9849 7.24888C19.1194 7.26909 19.2529 7.29579 19.3849 7.32888C19.5167 7.36279 19.6468 7.40283 19.7749 7.44888C19.8199 7.46388 19.8649 7.44388 19.8749 7.39888L19.8949 7.33888L19.9399 7.19388C19.9499 7.15388 19.9399 7.07388 19.8999 7.05388C19.7799 7.00888 19.6449 6.97388 19.5099 6.93888L19.1099 6.84888C19.0599 6.84888 19.0199 6.86888 19.0049 6.90888ZM20.4997 7.44379L20.5347 7.39379C20.5597 7.35379 20.6097 7.34379 20.6547 7.35879C20.6936 7.3802 20.7379 7.40311 20.7844 7.42725L20.7845 7.42727C20.8575 7.46515 20.9364 7.50604 21.0097 7.54879C21.0321 7.56183 21.0544 7.57469 21.0766 7.58748L21.077 7.58768L21.0772 7.5878L21.0773 7.58788L21.0774 7.58793L21.0775 7.58797C21.1743 7.64367 21.2686 7.69794 21.3497 7.75879C21.3847 7.78879 21.3697 7.86879 21.3447 7.90879L21.2597 8.03379L21.2197 8.08379C21.2076 8.10069 21.1897 8.11256 21.1695 8.11717C21.1492 8.12178 21.1279 8.1188 21.1097 8.10879C21.0016 8.03176 20.8898 7.96001 20.7747 7.89379C20.6562 7.82769 20.5343 7.76761 20.4097 7.71379C20.3747 7.68879 20.3597 7.64379 20.3847 7.60879L20.4197 7.55879L20.4997 7.44379ZM21.8548 8.24385L21.8048 8.28885L21.6898 8.37885L21.6448 8.41885C21.6098 8.44385 21.6098 8.48885 21.6398 8.51885C21.7411 8.60203 21.8379 8.69049 21.9298 8.78385C22.0184 8.87763 22.1018 8.97611 22.1798 9.07885C22.187 9.0874 22.1959 9.09444 22.2058 9.09958C22.2158 9.10471 22.2266 9.10783 22.2378 9.10876C22.2489 9.10969 22.2601 9.10841 22.2708 9.10499C22.2814 9.10157 22.2913 9.09609 22.2998 9.08885L22.3498 9.04385L22.4748 8.94385C22.5098 8.91885 22.5448 8.84385 22.5248 8.80385C22.4776 8.74398 22.4224 8.68611 22.3655 8.62646C22.3321 8.59145 22.2981 8.55583 22.2648 8.51885L21.9298 8.78385L22.2598 8.51885L21.9798 8.24385C21.9398 8.21885 21.8898 8.21885 21.8548 8.24385ZM22.7948 9.43386L22.8598 9.40386C22.8998 9.38886 22.9498 9.40386 22.9798 9.43886L23.1648 9.76886L23.1608 9.77062C23.2208 9.8824 23.2755 9.99694 23.3248 10.1139C23.3348 10.1589 23.2748 10.2139 23.2348 10.2339L23.0848 10.2989L23.0198 10.3239C22.9798 10.3439 22.9298 10.3239 22.9148 10.2889C22.8701 10.1709 22.819 10.0555 22.7619 9.94296L22.7598 9.94386C22.6948 9.81386 22.6198 9.69386 22.5598 9.61386C22.5448 9.57386 22.5598 9.53386 22.6048 9.51386L22.6548 9.48886L22.7948 9.43386ZM23.4599 10.7738L23.3899 10.7838L23.2399 10.8038L23.1849 10.8138C23.1349 10.8188 23.1099 10.8538 23.1149 10.8988C23.1502 11.0187 23.1786 11.1406 23.1999 11.2638C23.2197 11.3863 23.233 11.5098 23.2399 11.6338C23.2449 11.6788 23.2849 11.7038 23.3299 11.6988L23.3999 11.6888L23.5649 11.6638C23.6099 11.6588 23.6899 11.6188 23.6899 11.5738C23.6807 11.4631 23.6629 11.3481 23.6445 11.2289L23.6445 11.2288L23.6399 11.1988L23.5649 10.8338C23.5563 10.8137 23.5414 10.797 23.5225 10.7861C23.5035 10.7753 23.4815 10.771 23.4599 10.7738ZM23.5449 12.2338L23.6149 12.2388C23.6649 12.2438 23.6949 12.2838 23.6999 12.3288L23.6549 12.6988L23.6542 12.6988C23.6344 12.8271 23.6146 12.9552 23.5899 13.0638C23.5699 13.1088 23.4849 13.1288 23.4399 13.1238L23.2749 13.1038L23.2049 13.0938C23.1549 13.0938 23.1299 13.0538 23.1349 13.0088C23.1649 12.9088 23.1949 12.7788 23.2149 12.6438C23.2349 12.5088 23.2449 12.3688 23.2449 12.2688C23.2499 12.2288 23.2949 12.1988 23.3399 12.2088L23.3949 12.2138L23.5449 12.2338ZM23.3098 13.6888L23.2448 13.6638L23.1098 13.6038L23.0498 13.5838C23.0098 13.5688 22.9648 13.5838 22.9498 13.6238C22.9066 13.7433 22.8565 13.8601 22.7998 13.9738C22.7398 14.0988 22.6698 14.2138 22.6098 14.3038C22.5898 14.3438 22.6098 14.3838 22.6548 14.4038L22.7148 14.4288L22.8648 14.4888C22.9098 14.5088 22.9998 14.5088 23.0298 14.4738C23.0935 14.365 23.1519 14.2532 23.2048 14.1388L22.7998 13.9738L23.2098 14.1388L23.3598 13.7888C23.3698 13.7488 23.3548 13.7088 23.3098 13.6888ZM22.5148 14.9588L22.5698 14.9988C22.6048 15.0288 22.6098 15.0738 22.5898 15.1138C22.5379 15.1658 22.4818 15.2303 22.4242 15.2966L22.4241 15.2966C22.393 15.3324 22.3614 15.3688 22.3298 15.4038C22.2424 15.5012 22.1506 15.5946 22.0548 15.6838C22.0148 15.7088 21.9298 15.6838 21.8948 15.6538L21.7698 15.5588L21.7198 15.5188C21.6798 15.4888 21.6748 15.4438 21.7048 15.4138C21.7898 15.3388 21.8898 15.2488 21.9898 15.1388C22.0898 15.0388 22.1798 14.9238 22.2398 14.8388C22.2698 14.8088 22.3198 14.8088 22.3548 14.8338L22.3998 14.8688L22.5148 14.9588ZM21.45 16.0639L21.415 16.0139L21.33 15.8989L21.295 15.8539C21.2821 15.8378 21.2639 15.8269 21.2437 15.8233C21.2235 15.8196 21.2026 15.8234 21.185 15.8339C21.0771 15.9129 20.9653 15.9864 20.85 16.0539L20.8514 16.0559C20.7356 16.1225 20.6166 16.1836 20.495 16.2389C20.455 16.2639 20.445 16.3089 20.475 16.3489L20.51 16.3989L20.6 16.5239C20.63 16.5589 20.7 16.6039 20.745 16.5939L21.095 16.3939L20.9749 16.2239L21.1 16.3939L21.435 16.1789C21.465 16.1489 21.475 16.1039 21.45 16.0639ZM20.0299 16.7439L20.0499 16.8039C20.0649 16.8439 20.0399 16.8889 19.9999 16.9039L19.6099 17.0289L19.4799 16.6389C19.6105 16.6025 19.739 16.5591 19.8649 16.5089C19.9099 16.4989 19.9549 16.5189 19.9649 16.5589L19.9849 16.6089L20.0299 16.7439ZM19.4749 16.6389L19.6099 17.0289C19.5737 17.0383 19.5375 17.048 19.5015 17.0577C19.4029 17.0843 19.3051 17.1106 19.2099 17.1289C19.1599 17.1289 19.1099 17.0639 19.0949 17.0289L19.0449 16.8839L19.0249 16.8189C19.0099 16.7789 19.0349 16.7389 19.0749 16.7289C19.1949 16.7089 19.3299 16.6789 19.4749 16.6389ZM18.4747 17.1539V17.0889L18.4697 16.9489V16.8989C18.4697 16.8539 18.4397 16.8239 18.3897 16.8239C18.2536 16.839 18.1167 16.8474 17.9797 16.8489C17.8644 16.8489 17.7574 16.8433 17.6628 16.8384C17.6303 16.8367 17.5992 16.8351 17.5697 16.8339C17.5197 16.8339 17.4897 16.8639 17.4897 16.9089V16.9689V17.1189C17.4897 17.1639 17.5247 17.2389 17.5697 17.2489L17.9797 17.2539V16.8489L17.9847 17.2539C18.0574 17.2539 18.1328 17.2498 18.2053 17.2459C18.2724 17.2423 18.3371 17.2389 18.3947 17.2389C18.4397 17.2289 18.4747 17.1989 18.4747 17.1539Z" fill="#F7C608"/>
<path d="M17.5798 6.86383C17.5798 6.83383 17.6048 6.81383 17.6448 6.80383L17.9898 6.79883L18.3298 6.80383C18.3698 6.81383 18.3948 6.86383 18.3948 6.89883V7.04883C18.3948 7.07883 18.3698 7.09883 18.3298 7.09883C18.2167 7.09082 18.1033 7.08748 17.9898 7.08883C17.8598 7.08883 17.7348 7.09383 17.6448 7.10383C17.6098 7.10383 17.5798 7.07883 17.5798 7.05383V6.86383Z" fill="#006233"/>
<path d="M16.0049 7.17385L16.0199 7.22385L16.0499 7.31885L16.0649 7.35385C16.0749 7.38385 16.1099 7.39885 16.1449 7.38385C16.2518 7.34599 16.3602 7.31263 16.4699 7.28385C16.5899 7.25385 16.7049 7.22885 16.7999 7.21385C16.8399 7.20385 16.8599 7.17385 16.8499 7.14385L16.8349 7.09885L16.7999 6.99885C16.7899 6.96885 16.7499 6.92385 16.7099 6.92885C16.5994 6.95125 16.4899 6.9778 16.3814 7.00843L16.3799 7.00385L16.0549 7.10385C16.0199 7.12385 15.9999 7.14885 16.0049 7.17385Z" fill="#006233"/>
<path d="M14.6249 7.91888L14.5949 7.88388C14.5799 7.85388 14.5899 7.82388 14.6149 7.79888C14.6498 7.77838 14.6872 7.75452 14.726 7.72972C14.7819 7.69401 14.8409 7.65633 14.8999 7.62388L15.1899 7.45888C15.2299 7.44888 15.2849 7.47888 15.3049 7.50388L15.3649 7.59388L15.3949 7.63388C15.4099 7.65888 15.3999 7.69388 15.3699 7.70888C15.2679 7.75647 15.1678 7.80818 15.0699 7.86388C14.9762 7.9224 14.8845 7.9841 14.7949 8.04888C14.7599 8.06888 14.7249 8.06388 14.7049 8.03388L14.6799 8.00388L14.6249 7.91888Z" fill="#006233"/>
<path d="M13.4599 8.9188L13.4999 8.9488L13.5799 9.0138L13.6099 9.0388C13.6399 9.0588 13.6749 9.0538 13.6999 9.0288C13.7652 8.94335 13.8344 8.86089 13.9072 8.7817L13.9099 8.7838C13.9866 8.70384 14.0667 8.62711 14.1499 8.5538C14.1749 8.5288 14.1749 8.4938 14.1499 8.4738L14.1099 8.4438L14.0199 8.3738C13.9999 8.3538 13.9349 8.3388 13.8999 8.3638C13.8345 8.41693 13.7758 8.48008 13.7128 8.54778L13.6726 8.59094L13.6699 8.5888L13.4549 8.8338C13.4349 8.8638 13.4349 8.8988 13.4599 8.9188Z" fill="#006233"/>
<path d="M12.7398 10.2238L12.6898 10.2038C12.6598 10.1938 12.6498 10.1538 12.6598 10.1238L12.7898 9.83883L13.0798 9.95883C13.0335 10.0535 12.9918 10.1502 12.9548 10.2488C12.9398 10.2788 12.9048 10.2938 12.8748 10.2788L12.8348 10.2638L12.7398 10.2238Z" fill="#006233"/>
<path d="M13.0798 9.95883L12.7948 9.83883C12.8048 9.81867 12.8147 9.79852 12.8245 9.77853C12.8633 9.69934 12.9008 9.6227 12.9448 9.55883C12.9648 9.52883 13.0298 9.52383 13.0598 9.53883L13.1698 9.58383L13.2148 9.60383C13.2448 9.61383 13.2548 9.64883 13.2398 9.68383C13.1824 9.77307 13.129 9.86483 13.0798 9.95883Z" fill="#006233"/>
<path d="M12.3499 11.6388H12.3999L12.5099 11.6588H12.5499C12.5849 11.6638 12.6149 11.6438 12.6199 11.6088C12.625 11.5051 12.635 11.4016 12.6499 11.2988L12.3349 11.2588L12.6499 11.2938C12.6614 11.2098 12.6816 11.1286 12.6994 11.0571C12.7049 11.035 12.7102 11.0139 12.7149 10.9938C12.7199 10.9588 12.6999 10.9238 12.6649 10.9238L12.6149 10.9138L12.4999 10.8988C12.4649 10.8988 12.4049 10.9138 12.3899 10.9488L12.3349 11.2588L12.2949 11.5638C12.2999 11.5988 12.3149 11.6288 12.3499 11.6388Z" fill="#006233"/>
<path d="M12.5149 13.0889L12.4649 13.0939C12.4349 13.0989 12.4049 13.0789 12.3899 13.0439L12.3349 12.7339C12.3149 12.6339 12.2999 12.5239 12.2949 12.4289C12.2949 12.3939 12.3499 12.3589 12.3849 12.3539L12.4999 12.3389L12.5499 12.3289C12.5849 12.3289 12.6149 12.3489 12.6149 12.3839C12.618 12.4118 12.6207 12.4417 12.6234 12.4729C12.6295 12.5422 12.6361 12.618 12.6499 12.6939C12.6666 12.7965 12.6883 12.8983 12.7149 12.9989C12.7199 13.0339 12.6999 13.0639 12.6649 13.0689L12.6249 13.0739L12.5149 13.0889Z" fill="#006233"/>
<path d="M13.0298 14.4639L13.0748 14.4489L13.1748 14.4039L13.2148 14.3889C13.2448 14.3789 13.2548 14.3439 13.2398 14.3089C13.1822 14.2198 13.1288 14.128 13.0798 14.0339C13.0342 13.939 12.9925 13.8422 12.9548 13.7439C12.9398 13.7139 12.9048 13.6989 12.8748 13.7139L12.8248 13.7289L12.7198 13.7739C12.6898 13.7889 12.6498 13.8339 12.6598 13.8689C12.6993 13.9657 12.7441 14.0603 12.7939 14.1522L12.7898 14.1539L12.9398 14.4339C12.9648 14.4639 12.9998 14.4789 13.0298 14.4639Z" fill="#006233"/>
<path d="M14.0348 15.6089L13.9948 15.6389C13.9698 15.6589 13.9348 15.6539 13.8998 15.6289L13.6698 15.3989L13.4548 15.1589C13.4348 15.1289 13.4598 15.0739 13.4848 15.0539L13.5748 14.9839L13.6098 14.9539C13.6398 14.9339 13.6748 14.9389 13.6998 14.9639C13.7591 15.0381 13.8283 15.1221 13.9121 15.211L13.9148 15.2089C13.9899 15.2871 14.0683 15.3622 14.1498 15.4339C14.1748 15.4639 14.1748 15.4989 14.1498 15.5189L14.1148 15.5439L14.0348 15.6089Z" fill="#006233"/>
<path d="M15.2849 16.5139L15.3149 16.4739L15.3699 16.3889L15.3949 16.3589C15.4149 16.3289 15.3999 16.2989 15.3699 16.2789C15.2899 16.2439 15.1749 16.1889 15.0749 16.1239C14.9794 16.0674 14.886 16.0073 14.7949 15.9439C14.7599 15.9239 14.7249 15.9289 14.7049 15.9539L14.6799 15.9939L14.6149 16.0839C14.5949 16.1089 14.5899 16.1689 14.6199 16.1939C14.6815 16.2401 14.755 16.2833 14.8312 16.3282C14.8539 16.3415 14.877 16.3551 14.8999 16.3689C14.9491 16.3984 15.0007 16.4255 15.05 16.4513C15.1008 16.478 15.1493 16.5035 15.1899 16.5289C15.2299 16.5439 15.2699 16.5389 15.2849 16.5139Z" fill="#006233"/>
<path d="M16.795 17.0238L16.81 16.9788L16.84 16.8838L16.85 16.8488C16.86 16.8188 16.84 16.7888 16.8 16.7788C16.715 16.7638 16.59 16.7388 16.47 16.7038C16.3805 16.6824 16.3013 16.6558 16.2287 16.6314C16.1999 16.6218 16.1718 16.6123 16.145 16.6038C16.11 16.5938 16.075 16.6088 16.065 16.6338L16.02 16.7838C16.005 16.8138 16.02 16.8688 16.055 16.8888C16.1622 16.9242 16.2706 16.9559 16.38 16.9838L16.71 17.0638C16.745 17.0688 16.785 17.0538 16.795 17.0238Z" fill="#006233"/>
<path d="M19.0748 6.95879L19.0648 7.00379L19.0348 7.09879L19.0198 7.13379C19.0148 7.16379 19.0348 7.19379 19.0698 7.20379C19.1824 7.22254 19.2941 7.24589 19.4048 7.27379C19.5144 7.30286 19.6228 7.33622 19.7298 7.37379C19.7648 7.38879 19.7998 7.36879 19.8098 7.33879L19.8248 7.29879L19.8548 7.18879C19.8698 7.16379 19.8548 7.10379 19.8198 7.08879C19.7198 7.0538 19.6048 7.0238 19.4898 6.9938L19.1598 6.91879C19.1248 6.91379 19.0848 6.92879 19.0748 6.95879Z" fill="#006233"/>
<path d="M20.5648 7.49879L20.5898 7.45879C20.6098 7.43379 20.6448 7.42879 20.6848 7.43879C20.7254 7.46419 20.7738 7.48959 20.8247 7.51631C20.874 7.54217 20.9256 7.56927 20.9748 7.59879L21.2598 7.76879C21.2898 7.79879 21.2848 7.85379 21.2648 7.88379L21.2048 7.97379L21.1748 8.01379C21.1548 8.03879 21.1248 8.04379 21.0848 8.02379C20.9947 7.96054 20.9021 7.90097 20.8072 7.84522L20.8048 7.84879C20.707 7.79289 20.6069 7.74117 20.5048 7.69379C20.4748 7.67379 20.4648 7.64379 20.4848 7.61379L20.5048 7.57879L20.5648 7.49879Z" fill="#006233"/>
<path d="M21.8848 8.32389L21.8498 8.35389L21.7698 8.41889L21.7348 8.44389C21.7098 8.46389 21.7098 8.49889 21.7348 8.52389C21.8181 8.59527 21.8982 8.67035 21.9748 8.74889C22.05 8.82741 22.1217 8.90915 22.1898 8.99389C22.2148 9.01889 22.2548 9.02389 22.2798 9.00389L22.3198 8.96889L22.4048 8.90389C22.4298 8.88389 22.4548 8.82889 22.4348 8.79389L22.2148 8.55889C22.1878 8.53184 22.1596 8.50479 22.1318 8.47813C22.0774 8.42594 22.0245 8.37522 21.9848 8.32889C21.9498 8.30889 21.9098 8.30389 21.8848 8.32389Z" fill="#006233"/>
<path d="M22.8198 9.50879L22.8648 9.48879C22.8948 9.47379 22.9298 9.4888 22.9548 9.5188L23.1048 9.7938L23.2448 10.0788C23.2498 10.1188 23.2098 10.1638 23.1798 10.1788L23.0698 10.2238L23.0298 10.2388C22.9948 10.2538 22.9648 10.2388 22.9448 10.2088L22.9361 10.1875C22.9032 10.1073 22.8653 10.0152 22.8148 9.91879C22.7655 9.82489 22.7121 9.73314 22.6548 9.6438C22.6398 9.6138 22.6498 9.57879 22.6798 9.56379L22.7198 9.54879L22.8198 9.50879Z" fill="#006233"/>
<path d="M23.4398 10.8538L23.3898 10.8588L23.2848 10.8738L23.2448 10.8838C23.2048 10.8838 23.1898 10.9138 23.1948 10.9488C23.2215 11.051 23.2432 11.1545 23.2598 11.2588C23.276 11.3616 23.2882 11.4649 23.2948 11.5688C23.2998 11.5988 23.3298 11.6188 23.3648 11.6188L23.4148 11.6088L23.5298 11.5938C23.5648 11.5888 23.6198 11.5538 23.6198 11.5188C23.6151 11.4299 23.5973 11.3323 23.5787 11.2301L23.5748 11.2088C23.5663 11.1493 23.553 11.0882 23.5403 11.03C23.5306 10.9856 23.5213 10.9428 23.5148 10.9038C23.5048 10.8738 23.4748 10.8488 23.4398 10.8538Z" fill="#006233"/>
<path d="M23.5199 12.3088H23.5699C23.6049 12.3188 23.6249 12.3488 23.6299 12.3838L23.5899 12.6938C23.5772 12.7945 23.5605 12.8945 23.5399 12.9938C23.5249 13.0338 23.4599 13.0538 23.4299 13.0438L23.3149 13.0338L23.2649 13.0288C23.2299 13.0238 23.2099 12.9938 23.2149 12.9588L23.2254 12.9123C23.243 12.8346 23.2624 12.7494 23.2749 12.6538L23.3049 12.3438C23.3049 12.3088 23.3349 12.2838 23.3699 12.2888H23.4149L23.5199 12.3088Z" fill="#006233"/>
<path d="M23.2497 13.7438L23.1997 13.7288L23.0997 13.6888L23.0597 13.6688C23.0297 13.6588 22.9947 13.6738 22.9797 13.7088C22.9427 13.8074 22.901 13.9042 22.8547 13.9988C22.8088 14.0926 22.7588 14.1844 22.7047 14.2738C22.6847 14.3038 22.6947 14.3388 22.7247 14.3538L22.7747 14.3688L22.8797 14.4138C22.9097 14.4288 22.9747 14.4238 22.9997 14.3938C23.0534 14.3025 23.1034 14.2091 23.1497 14.1138L23.2797 13.8288C23.2847 13.7938 23.2747 13.7588 23.2497 13.7438Z" fill="#006233"/>
<path d="M22.4499 15.0088L22.4899 15.0388C22.5149 15.0588 22.5149 15.0888 22.4949 15.1238L22.2819 15.3616L22.2849 15.3638L22.2801 15.3689C22.2019 15.452 22.1283 15.5302 22.0499 15.5988C22.0199 15.6188 21.9599 15.6038 21.9299 15.5838L21.8449 15.5188L21.8049 15.4888C21.7799 15.4688 21.7799 15.4338 21.8049 15.4038C21.8847 15.3321 21.9614 15.257 22.0349 15.1788C22.1199 15.0888 22.1949 14.9988 22.2449 14.9288C22.2699 14.9038 22.3099 14.8988 22.3349 14.9188L22.3649 14.9438L22.4499 15.0088Z" fill="#006233"/>
<path d="M21.3598 16.0838L21.3348 16.0438L21.2748 15.9638L21.2498 15.9288C21.2348 15.9038 21.1948 15.8988 21.1648 15.9188L20.8848 16.1038L20.8862 16.1058C20.7895 16.1608 20.6906 16.2118 20.5898 16.2588C20.5598 16.2788 20.5498 16.3138 20.5648 16.3388L20.5948 16.3788L20.6598 16.4688C20.6748 16.4938 20.7348 16.5238 20.7698 16.5088C20.8597 16.4638 20.9597 16.4038 21.0597 16.3438L21.3398 16.1688C21.3698 16.1438 21.3798 16.1088 21.3598 16.0838Z" fill="#006233"/>
<path d="M19.9399 16.7539L19.9599 16.7989C19.9699 16.8289 19.9449 16.8589 19.9099 16.8739L19.5899 16.9739C19.4808 17.0043 19.3707 17.031 19.2599 17.0539C19.2199 17.0539 19.1749 17.0139 19.1599 16.9839L19.1299 16.8839L19.1149 16.8389C19.1049 16.8089 19.1249 16.7789 19.1649 16.7689C19.2758 16.7484 19.3859 16.7234 19.4949 16.6939C19.6028 16.6649 19.7096 16.6316 19.8149 16.5939C19.8549 16.5789 19.8899 16.5939 19.8999 16.6239L19.9099 16.6589L19.9399 16.7539Z" fill="#006233"/>
<path d="M18.3898 17.1238V16.9388C18.3848 16.9088 18.3598 16.8888 18.3198 16.8888C18.2908 16.8904 18.258 16.8931 18.2228 16.8959C18.1491 16.9019 18.0644 16.9088 17.9798 16.9088V16.9038C17.8766 16.9078 17.7829 16.9023 17.6986 16.8973C17.6767 16.8961 17.6554 16.8948 17.6348 16.8938C17.5948 16.8938 17.5698 16.9188 17.5698 16.9438V17.0988C17.5698 17.1288 17.5998 17.1838 17.6398 17.1938H17.9798L18.3198 17.1838C18.3598 17.1738 18.3898 17.1538 18.3898 17.1238Z" fill="#006233"/>
</svg>
