<svg width="36" height="24" viewBox="0 0 36 24" fill="none" xmlns="http://www.w3.org/2000/svg">
<g clip-path="url(#clip0_11930_67699)">
<path d="M0 0H36V24H0V0Z" fill="#74ACDF"/>
<path d="M0 8H36V16H0V8Z" fill="white"/>
<path d="M17.3591 12.0622L18.7271 15.0382C18.7271 15.0382 18.7511 15.0958 18.7895 15.0814C18.8279 15.0622 18.8039 15.0046 18.8039 15.0046L17.6663 11.9326M17.6327 13.0942C17.6135 13.5454 17.8919 13.795 17.8583 14.1982C17.8199 14.6062 18.0407 14.8318 18.0983 14.9902C18.1463 15.1486 18.0407 15.2398 18.0839 15.2638C18.1319 15.2878 18.2279 15.163 18.1991 14.9374C18.1655 14.7166 17.9975 14.6494 18.0359 14.155C18.0743 13.6606 17.8343 13.5454 17.8919 13.099" fill="#F6B40E"/>
<path d="M17.3591 12.0622L18.7271 15.0382C18.7271 15.0382 18.7511 15.0958 18.7895 15.0814C18.8279 15.0622 18.8039 15.0046 18.8039 15.0046L17.6663 11.9326M17.6327 13.0942C17.6135 13.5454 17.8919 13.795 17.8583 14.1982C17.8199 14.6062 18.0407 14.8318 18.0983 14.9902C18.1463 15.1486 18.0407 15.2398 18.0839 15.2638C18.1319 15.2878 18.2279 15.163 18.1991 14.9374C18.1655 14.7166 17.9975 14.6494 18.0359 14.155C18.0743 13.6606 17.8343 13.5454 17.8919 13.099" stroke="#85340A" stroke-width="0.0528"/>
<path d="M17.3471 11.9989L17.4721 15.2719C17.4721 15.2719 17.4723 15.3343 17.5133 15.3357C17.5561 15.3326 17.5559 15.2702 17.5559 15.2702L17.6805 11.9967M17.205 13.057C17.0146 13.4665 17.1763 13.8037 16.9909 14.1633C16.7993 14.5256 16.917 14.8185 16.9096 14.9869C16.8933 15.1516 16.7608 15.1954 16.7916 15.2341C16.8267 15.2747 16.9632 15.1961 17.0229 14.9767C17.0764 14.7598 16.9469 14.6335 17.1715 14.1914C17.3962 13.7493 17.2186 13.551 17.4426 13.1607" fill="#F6B40E"/>
<path d="M17.3471 11.9989L17.4721 15.2719C17.4721 15.2719 17.4723 15.3343 17.5133 15.3357C17.5561 15.3326 17.5559 15.2702 17.5559 15.2702L17.6805 11.9967M17.205 13.057C17.0146 13.4665 17.1763 13.8037 16.9909 14.1633C16.7993 14.5256 16.917 14.8185 16.9096 14.9869C16.8933 15.1516 16.7608 15.1954 16.7916 15.2341C16.8267 15.2747 16.9632 15.1961 17.0229 14.9767C17.0764 14.7598 16.9469 14.6335 17.1715 14.1914C17.3962 13.7493 17.2186 13.551 17.4426 13.1607" stroke="#85340A" stroke-width="0.0528"/>
<path d="M17.36 11.9354L16.223 15.0071C16.223 15.0071 16.1992 15.0648 16.2366 15.0817C16.2773 15.0953 16.3011 15.0376 16.3011 15.0376L17.6689 12.061M16.8238 12.8586C16.4911 13.1641 16.5115 13.5374 16.2026 13.7988C15.887 14.0601 15.8836 14.3758 15.8123 14.5285C15.7342 14.6744 15.5951 14.6643 15.6087 14.7118C15.6256 14.7627 15.7818 14.7423 15.9209 14.5624C16.0533 14.3825 15.982 14.2162 16.3588 13.8938C16.7355 13.5714 16.6473 13.3202 17.0036 13.0453" fill="#F6B40E"/>
<path d="M17.36 11.9354L16.223 15.0071C16.223 15.0071 16.1992 15.0648 16.2366 15.0817C16.2773 15.0953 16.3011 15.0376 16.3011 15.0376L17.6689 12.061M16.8238 12.8586C16.4911 13.1641 16.5115 13.5374 16.2026 13.7988C15.887 14.0601 15.8836 14.3758 15.8123 14.5285C15.7342 14.6744 15.5951 14.6643 15.6087 14.7118C15.6256 14.7627 15.7818 14.7423 15.9209 14.5624C16.0533 14.3825 15.982 14.2162 16.3588 13.8938C16.7355 13.5714 16.6473 13.3202 17.0036 13.0453" stroke="#85340A" stroke-width="0.0528"/>
<path d="M17.3964 11.8819L15.1704 14.2846C15.1704 14.2846 15.1264 14.3288 15.1544 14.3588C15.1868 14.3869 15.2309 14.3427 15.2309 14.3427L17.6337 12.1161M16.5476 12.5296C16.1234 12.6845 15.9994 13.0372 15.614 13.1605C15.2224 13.2811 15.0984 13.5715 14.9741 13.6853C14.8462 13.7903 14.7215 13.7276 14.7159 13.7767C14.7121 13.8302 14.8641 13.8712 15.0615 13.7582C15.2526 13.6427 15.2504 13.4618 15.7219 13.308C16.1933 13.1543 16.2079 12.8885 16.6424 12.7709" fill="#F6B40E"/>
<path d="M17.3964 11.8819L15.1704 14.2846C15.1704 14.2846 15.1264 14.3288 15.1544 14.3588C15.1868 14.3869 15.2309 14.3427 15.2309 14.3427L17.6337 12.1161M16.5476 12.5296C16.1234 12.6845 15.9994 13.0372 15.614 13.1605C15.2224 13.2811 15.0984 13.5715 14.9741 13.6853C14.8462 13.7903 14.7215 13.7276 14.7159 13.7767C14.7121 13.8302 14.8641 13.8712 15.0615 13.7582C15.2526 13.6427 15.2504 13.4618 15.7219 13.308C16.1933 13.1543 16.2079 12.8885 16.6424 12.7709" stroke="#85340A" stroke-width="0.0528"/>
<path d="M17.4529 11.8463L14.4769 13.2143C14.4769 13.2143 14.4193 13.2383 14.4337 13.2767C14.4529 13.3151 14.5105 13.2911 14.5105 13.2911L17.5825 12.1535M16.4209 12.1199C15.9697 12.1007 15.7201 12.3791 15.3169 12.3455C14.9089 12.3071 14.6833 12.5279 14.5249 12.5855C14.3665 12.6335 14.2753 12.5279 14.2513 12.5711C14.2273 12.6191 14.3521 12.7151 14.5777 12.6863C14.7985 12.6527 14.8657 12.4847 15.3601 12.5231C15.8545 12.5615 15.9697 12.3215 16.4161 12.3791" fill="#F6B40E"/>
<path d="M17.4529 11.8463L14.4769 13.2143C14.4769 13.2143 14.4193 13.2383 14.4337 13.2767C14.4529 13.3151 14.5105 13.2911 14.5105 13.2911L17.5825 12.1535M16.4209 12.1199C15.9697 12.1007 15.7201 12.3791 15.3169 12.3455C14.9089 12.3071 14.6833 12.5279 14.5249 12.5855C14.3665 12.6335 14.2753 12.5279 14.2513 12.5711C14.2273 12.6191 14.3521 12.7151 14.5777 12.6863C14.7985 12.6527 14.8657 12.4847 15.3601 12.5231C15.8545 12.5615 15.9697 12.3215 16.4161 12.3791" stroke="#85340A" stroke-width="0.0528"/>
<path d="M17.5163 11.8343L14.2433 11.9593C14.2433 11.9593 14.1809 11.9594 14.1795 12.0004C14.1825 12.0433 14.2449 12.0431 14.2449 12.0431L17.5184 12.1677M16.4581 11.6922C16.0486 11.5018 15.7115 11.6634 15.3518 11.4781C14.9896 11.2865 14.6966 11.4042 14.5283 11.3968C14.3635 11.3805 14.3197 11.248 14.281 11.2787C14.2404 11.3139 14.319 11.4504 14.5385 11.5101C14.7553 11.5635 14.8817 11.434 15.3238 11.6587C15.7658 11.8834 15.9641 11.7057 16.3545 11.9298" fill="#F6B40E"/>
<path d="M17.5163 11.8343L14.2433 11.9593C14.2433 11.9593 14.1809 11.9594 14.1795 12.0004C14.1825 12.0433 14.2449 12.0431 14.2449 12.0431L17.5184 12.1677M16.4581 11.6922C16.0486 11.5018 15.7115 11.6634 15.3518 11.4781C14.9896 11.2865 14.6966 11.4042 14.5283 11.3968C14.3635 11.3805 14.3197 11.248 14.281 11.2787C14.2404 11.3139 14.319 11.4504 14.5385 11.5101C14.7553 11.5635 14.8817 11.434 15.3238 11.6587C15.7658 11.8834 15.9641 11.7057 16.3545 11.9298" stroke="#85340A" stroke-width="0.0528"/>
<path d="M17.5797 11.8472L14.5081 10.7102C14.5081 10.7102 14.4504 10.6864 14.4334 10.7238C14.4198 10.7645 14.4775 10.7882 14.4775 10.7882L17.4542 12.1561M16.6565 11.3109C16.3511 10.9783 15.9777 10.9987 15.7164 10.6898C15.455 10.3742 15.1394 10.3708 14.9866 10.2995C14.8407 10.2214 14.8509 10.0823 14.8034 10.0958C14.7524 10.1128 14.7728 10.2689 14.9527 10.4081C15.1326 10.5405 15.2989 10.4692 15.6213 10.8459C15.9438 11.2227 16.1949 11.1344 16.4699 11.4908" fill="#F6B40E"/>
<path d="M17.5797 11.8472L14.5081 10.7102C14.5081 10.7102 14.4504 10.6864 14.4334 10.7238C14.4198 10.7645 14.4775 10.7882 14.4775 10.7882L17.4542 12.1561M16.6565 11.3109C16.3511 10.9783 15.9777 10.9987 15.7164 10.6898C15.455 10.3742 15.1394 10.3708 14.9866 10.2995C14.8407 10.2214 14.8509 10.0823 14.8034 10.0958C14.7524 10.1128 14.7728 10.2689 14.9527 10.4081C15.1326 10.5405 15.2989 10.4692 15.6213 10.8459C15.9438 11.2227 16.1949 11.1344 16.4699 11.4908" stroke="#85340A" stroke-width="0.0528"/>
<path d="M17.6333 11.8836L15.2305 9.65761C15.2305 9.65761 15.1863 9.61358 15.1563 9.64157C15.1282 9.67401 15.1724 9.71804 15.1724 9.71804L17.399 12.1209M16.9856 11.0348C16.8306 10.6106 16.4779 10.4866 16.3547 10.1012C16.234 9.70955 15.9437 9.58562 15.8298 9.46132C15.7249 9.33335 15.7875 9.20868 15.7384 9.20304C15.6849 9.19923 15.644 9.35127 15.7569 9.54868C15.8725 9.73981 16.0534 9.73761 16.2071 10.2091C16.3608 10.6805 16.6266 10.6951 16.7443 11.1296" fill="#F6B40E"/>
<path d="M17.6333 11.8836L15.2305 9.65761C15.2305 9.65761 15.1863 9.61358 15.1563 9.64157C15.1282 9.67401 15.1724 9.71804 15.1724 9.71804L17.399 12.1209M16.9856 11.0348C16.8306 10.6106 16.4779 10.4866 16.3547 10.1012C16.234 9.70955 15.9437 9.58562 15.8298 9.46132C15.7249 9.33335 15.7875 9.20868 15.7384 9.20304C15.6849 9.19923 15.644 9.35127 15.7569 9.54868C15.8725 9.73981 16.0534 9.73761 16.2071 10.2091C16.3608 10.6805 16.6266 10.6951 16.7443 11.1296" stroke="#85340A" stroke-width="0.0528"/>
<path d="M17.6643 11.9377L16.2963 8.96166C16.2963 8.96166 16.2723 8.90406 16.2339 8.91846C16.1955 8.93766 16.2195 8.99526 16.2195 8.99526L17.3571 12.0673M17.3907 10.9057C17.4099 10.4545 17.1315 10.2049 17.1651 9.80166C17.2035 9.39366 16.9827 9.16806 16.9251 9.00966C16.8771 8.85126 16.9827 8.76006 16.9395 8.73606C16.8915 8.71206 16.7955 8.83686 16.8243 9.06246C16.8579 9.28326 17.0259 9.35046 16.9875 9.84486C16.9491 10.3393 17.1891 10.4545 17.1315 10.9009" fill="#F6B40E"/>
<path d="M17.6643 11.9377L16.2963 8.96166C16.2963 8.96166 16.2723 8.90406 16.2339 8.91846C16.1955 8.93766 16.2195 8.99526 16.2195 8.99526L17.3571 12.0673M17.3907 10.9057C17.4099 10.4545 17.1315 10.2049 17.1651 9.80166C17.2035 9.39366 16.9827 9.16806 16.9251 9.00966C16.8771 8.85126 16.9827 8.76006 16.9395 8.73606C16.8915 8.71206 16.7955 8.83686 16.8243 9.06246C16.8579 9.28326 17.0259 9.35046 16.9875 9.84486C16.9491 10.3393 17.1891 10.4545 17.1315 10.9009" stroke="#85340A" stroke-width="0.0528"/>
<path d="M17.6763 12.001L17.5513 8.72802C17.5513 8.72802 17.5512 8.66562 17.5102 8.66422C17.4674 8.66727 17.4675 8.72967 17.4675 8.72967L17.3429 12.0032M17.8185 10.9428C18.0089 10.5333 17.8472 10.1962 18.0325 9.83655C18.2241 9.4743 18.1065 9.18138 18.1139 9.01299C18.1301 8.84828 18.2626 8.80444 18.2319 8.76573C18.1967 8.72519 18.0603 8.80375 18.0005 9.0232C17.9471 9.24005 18.0766 9.36643 17.8519 9.8085C17.6272 10.2506 17.8049 10.4488 17.5808 10.8392" fill="#F6B40E"/>
<path d="M17.6763 12.001L17.5513 8.72802C17.5513 8.72802 17.5512 8.66562 17.5102 8.66422C17.4674 8.66727 17.4675 8.72967 17.4675 8.72967L17.3429 12.0032M17.8185 10.9428C18.0089 10.5333 17.8472 10.1962 18.0325 9.83655C18.2241 9.4743 18.1065 9.18138 18.1139 9.01299C18.1301 8.84828 18.2626 8.80444 18.2319 8.76573C18.1967 8.72519 18.0603 8.80375 18.0005 9.0232C17.9471 9.24005 18.0766 9.36643 17.8519 9.8085C17.6272 10.2506 17.8049 10.4488 17.5808 10.8392" stroke="#85340A" stroke-width="0.0528"/>
<path d="M17.6634 12.0645L18.8004 8.99282C18.8004 8.99282 18.8242 8.93511 18.7869 8.91814C18.7461 8.90457 18.7224 8.96227 18.7224 8.96227L17.3546 11.9389M18.1997 11.1413C18.5323 10.8358 18.5119 10.4625 18.8208 10.2011C19.1365 9.93977 19.1399 9.62412 19.2111 9.47138C19.2892 9.32544 19.4284 9.33562 19.4148 9.2881C19.3978 9.23719 19.2417 9.25756 19.1025 9.43744C18.9702 9.61733 19.0414 9.78364 18.6647 10.1061C18.2879 10.4285 18.3762 10.6797 18.0198 10.9546" fill="#F6B40E"/>
<path d="M17.6634 12.0645L18.8004 8.99282C18.8004 8.99282 18.8242 8.93511 18.7869 8.91814C18.7461 8.90457 18.7224 8.96227 18.7224 8.96227L17.3546 11.9389M18.1997 11.1413C18.5323 10.8358 18.5119 10.4625 18.8208 10.2011C19.1365 9.93977 19.1399 9.62412 19.2111 9.47138C19.2892 9.32544 19.4284 9.33562 19.4148 9.2881C19.3978 9.23719 19.2417 9.25756 19.1025 9.43744C18.9702 9.61733 19.0414 9.78364 18.6647 10.1061C18.2879 10.4285 18.3762 10.6797 18.0198 10.9546" stroke="#85340A" stroke-width="0.0528"/>
<path d="M17.6271 12.118L19.853 9.71527C19.853 9.71527 19.897 9.67106 19.869 9.64109C19.8366 9.61296 19.7926 9.65718 19.7926 9.65718L17.3898 11.8838M18.4758 11.4703C18.9 11.3154 19.0241 10.9626 19.4094 10.8394C19.8011 10.7187 19.925 10.4284 20.0493 10.3146C20.1773 10.2096 20.3019 10.2723 20.3076 10.2232C20.3114 10.1696 20.1593 10.1287 19.9619 10.2417C19.7708 10.3572 19.773 10.5381 19.3016 10.6918C18.8301 10.8456 18.8155 11.1114 18.381 11.229" fill="#F6B40E"/>
<path d="M17.6271 12.118L19.853 9.71527C19.853 9.71527 19.897 9.67106 19.869 9.64109C19.8366 9.61296 19.7926 9.65718 19.7926 9.65718L17.3898 11.8838M18.4758 11.4703C18.9 11.3154 19.0241 10.9626 19.4094 10.8394C19.8011 10.7187 19.925 10.4284 20.0493 10.3146C20.1773 10.2096 20.3019 10.2723 20.3076 10.2232C20.3114 10.1696 20.1593 10.1287 19.9619 10.2417C19.7708 10.3572 19.773 10.5381 19.3016 10.6918C18.8301 10.8456 18.8155 11.1114 18.381 11.229" stroke="#85340A" stroke-width="0.0528"/>
<path d="M17.5705 12.1537L20.5465 10.7857C20.5465 10.7857 20.6041 10.7617 20.5897 10.7233C20.5705 10.6849 20.5129 10.7089 20.5129 10.7089L17.4409 11.8465M18.6025 11.8801C19.0537 11.8993 19.3033 11.6209 19.7065 11.6545C20.1145 11.6929 20.3401 11.4721 20.4985 11.4145C20.6569 11.3665 20.7481 11.4721 20.7721 11.4289C20.7961 11.3809 20.6713 11.2849 20.4457 11.3137C20.2249 11.3473 20.1577 11.5153 19.6633 11.4769C19.1689 11.4385 19.0537 11.6785 18.6073 11.6209" fill="#F6B40E"/>
<path d="M17.5705 12.1537L20.5465 10.7857C20.5465 10.7857 20.6041 10.7617 20.5897 10.7233C20.5705 10.6849 20.5129 10.7089 20.5129 10.7089L17.4409 11.8465M18.6025 11.8801C19.0537 11.8993 19.3033 11.6209 19.7065 11.6545C20.1145 11.6929 20.3401 11.4721 20.4985 11.4145C20.6569 11.3665 20.7481 11.4721 20.7721 11.4289C20.7961 11.3809 20.6713 11.2849 20.4457 11.3137C20.2249 11.3473 20.1577 11.5153 19.6633 11.4769C19.1689 11.4385 19.0537 11.6785 18.6073 11.6209" stroke="#85340A" stroke-width="0.0528"/>
<path d="M17.5072 12.1657L20.7802 12.0407C20.7802 12.0407 20.8426 12.0406 20.844 11.9996C20.8409 11.9567 20.7785 11.9569 20.7785 11.9569L17.505 11.8323M18.5653 12.3078C18.9748 12.4982 19.312 12.3366 19.6716 12.5219C20.0339 12.7135 20.3268 12.5958 20.4952 12.6032C20.6599 12.6195 20.7037 12.752 20.7424 12.7213C20.783 12.6861 20.7044 12.5496 20.485 12.4899C20.2681 12.4365 20.1418 12.566 19.6997 12.3413C19.2576 12.1166 19.0593 12.2943 18.669 12.0702" fill="#F6B40E"/>
<path d="M17.5072 12.1657L20.7802 12.0407C20.7802 12.0407 20.8426 12.0406 20.844 11.9996C20.8409 11.9567 20.7785 11.9569 20.7785 11.9569L17.505 11.8323M18.5653 12.3078C18.9748 12.4982 19.312 12.3366 19.6716 12.5219C20.0339 12.7135 20.3268 12.5958 20.4952 12.6032C20.6599 12.6195 20.7037 12.752 20.7424 12.7213C20.783 12.6861 20.7044 12.5496 20.485 12.4899C20.2681 12.4365 20.1418 12.566 19.6997 12.3413C19.2576 12.1166 19.0593 12.2943 18.669 12.0702" stroke="#85340A" stroke-width="0.0528"/>
<path d="M17.4437 12.1528L20.5154 13.2898C20.5154 13.2898 20.5731 13.3136 20.59 13.2762C20.6036 13.2355 20.5459 13.2118 20.5459 13.2118L17.5693 11.8439M18.3669 12.6891C18.6724 13.0217 19.0457 13.0013 19.3071 13.3102C19.5684 13.6258 19.8841 13.6292 20.0368 13.7005C20.1827 13.7786 20.1726 13.9177 20.2201 13.9042C20.271 13.8872 20.2506 13.7311 20.0707 13.5919C19.8908 13.4595 19.7245 13.5308 19.4021 13.1541C19.0797 12.7773 18.8285 12.8656 18.5536 12.5092" fill="#F6B40E"/>
<path d="M17.4437 12.1528L20.5154 13.2898C20.5154 13.2898 20.5731 13.3136 20.59 13.2762C20.6036 13.2355 20.5459 13.2118 20.5459 13.2118L17.5693 11.8439M18.3669 12.6891C18.6724 13.0217 19.0457 13.0013 19.3071 13.3102C19.5684 13.6258 19.8841 13.6292 20.0368 13.7005C20.1827 13.7786 20.1726 13.9177 20.2201 13.9042C20.271 13.8872 20.2506 13.7311 20.0707 13.5919C19.8908 13.4595 19.7245 13.5308 19.4021 13.1541C19.0797 12.7773 18.8285 12.8656 18.5536 12.5092" stroke="#85340A" stroke-width="0.0528"/>
<path d="M17.3902 12.1164L19.7929 14.3424C19.7929 14.3424 19.8371 14.3864 19.8671 14.3584C19.8952 14.326 19.851 14.282 19.851 14.282L17.6244 11.8791M18.0379 12.9652C18.1928 13.3894 18.5455 13.5134 18.6688 13.8988C18.7894 14.2904 19.0798 14.4144 19.1936 14.5387C19.2986 14.6667 19.2359 14.7913 19.285 14.797C19.3385 14.8008 19.3795 14.6487 19.2665 14.4513C19.151 14.2602 18.9701 14.2624 18.8163 13.7909C18.6626 13.3195 18.3968 13.3049 18.2792 12.8704" fill="#F6B40E"/>
<path d="M17.3902 12.1164L19.7929 14.3424C19.7929 14.3424 19.8371 14.3864 19.8671 14.3584C19.8952 14.326 19.851 14.282 19.851 14.282L17.6244 11.8791M18.0379 12.9652C18.1928 13.3894 18.5455 13.5134 18.6688 13.8988C18.7894 14.2904 19.0798 14.4144 19.1936 14.5387C19.2986 14.6667 19.2359 14.7913 19.285 14.797C19.3385 14.8008 19.3795 14.6487 19.2665 14.4513C19.151 14.2602 18.9701 14.2624 18.8163 13.7909C18.6626 13.3195 18.3968 13.3049 18.2792 12.8704" stroke="#85340A" stroke-width="0.0528"/>
<path d="M15.9261 10.4086L17.3097 11.6945L16.6514 9.92155L17.4416 11.6479L17.5122 9.7511L17.5816 11.6485L18.3728 9.92278L17.7109 11.7021L19.102 10.4108L17.8108 11.8002L19.5867 11.1407L17.8604 11.931L19.7572 12.0015L17.8602 12.071L19.5855 12.8619L17.8058 12.1999L19.0975 13.5914L17.7137 12.3053L18.372 14.0784L17.5818 12.3521L17.5112 14.2489L17.4418 12.3515L16.6506 14.0772L17.3125 12.2978L15.9214 13.5892L17.2126 12.1999L15.4368 12.8592L17.1632 12.069L15.2664 11.9984L17.1638 11.929L15.438 11.1378L17.2174 11.7997L15.9261 10.4086Z" fill="#85340A"/>
<path d="M16.578 10.596C16.6815 10.7045 16.7907 10.8187 16.8764 10.9969L16.7947 11.0255C16.7183 10.8235 16.6055 10.6878 16.505 10.5669C16.391 10.4297 16.2927 10.3115 16.2811 10.1368C16.3398 10.3467 16.455 10.4672 16.578 10.596Z" fill="#85340A"/>
<path d="M16.1121 11.0615C16.2492 11.122 16.3937 11.1858 16.5411 11.3177L16.4766 11.3754C16.3287 11.2179 16.1726 11.1357 16.0335 11.0625C15.8756 10.9794 15.7396 10.9078 15.662 10.7509C15.7966 10.9222 15.9491 10.9896 16.1121 11.0615Z" fill="#85340A"/>
<path d="M15.8595 12.3287C15.9992 12.2745 16.1466 12.2174 16.344 12.2064L16.3392 12.2928C16.1233 12.2861 15.9548 12.3383 15.8046 12.3849C15.6342 12.4378 15.4874 12.4833 15.3216 12.4272C15.5379 12.4533 15.6934 12.393 15.8595 12.3287Z" fill="#85340A"/>
<path d="M16.3543 11.7425C16.1677 11.6771 16.0098 11.6734 15.8599 11.67C15.6818 11.6659 15.5151 11.6621 15.3252 11.5552C15.457 11.6705 15.61 11.6846 15.7876 11.701C15.9442 11.7154 16.1199 11.7316 16.3168 11.8205L16.3543 11.7425Z" fill="#85340A"/>
<path d="M16.1088 12.9372C16.2173 12.8337 16.3315 12.7246 16.5097 12.6389L16.5384 12.7205C16.3363 12.7969 16.2006 12.9097 16.0797 13.0102C15.9425 13.1243 15.8243 13.2225 15.6497 13.2341C15.8595 13.1754 15.98 13.0603 16.1088 12.9372Z" fill="#85340A"/>
<path d="M16.5743 13.4032C16.6348 13.266 16.6986 13.1215 16.8305 12.9741L16.8882 13.0386C16.7307 13.1865 16.6486 13.3426 16.5753 13.4818C16.4922 13.6396 16.4206 13.7756 16.2637 13.8532C16.4351 13.7187 16.5024 13.5661 16.5743 13.4032Z" fill="#85340A"/>
<path d="M17.8415 13.6558C17.7873 13.516 17.7302 13.3687 17.7192 13.1712L17.8056 13.176C17.7989 13.392 17.8512 13.5605 17.8978 13.7107C17.9506 13.881 17.9962 14.0278 17.94 14.1936C17.9661 13.9773 17.9058 13.8219 17.8415 13.6558Z" fill="#85340A"/>
<path d="M17.2553 13.1609C17.1899 13.3475 17.1863 13.5055 17.1828 13.6554C17.1787 13.8334 17.1749 14.0001 17.068 14.19C17.1833 14.0583 17.1974 13.9052 17.2138 13.7276C17.2282 13.571 17.2444 13.3953 17.3333 13.1984L17.2553 13.1609Z" fill="#85340A"/>
<path d="M18.5137 11.3611C18.6919 11.2754 18.8061 11.1663 18.9146 11.0627C19.0434 10.9397 19.1639 10.8246 19.3738 10.7659C19.1991 10.7775 19.0809 10.8757 18.9437 10.9897C18.8228 11.0903 18.6871 11.203 18.485 11.2794L18.5137 11.3611Z" fill="#85340A"/>
<path d="M18.1929 11.0259C18.3248 10.8785 18.3886 10.734 18.4491 10.5968C18.521 10.4339 18.5884 10.2813 18.7597 10.1468C18.6028 10.2243 18.5312 10.3604 18.4481 10.5182C18.3749 10.6574 18.2927 10.8135 18.1352 10.9614L18.1929 11.0259Z" fill="#85340A"/>
<path d="M17.3042 10.8287C17.2932 10.6313 17.2361 10.484 17.1819 10.3442C17.1176 10.1781 17.0573 10.0227 17.0834 9.80634C17.0272 9.97215 17.0728 10.119 17.1256 10.2893C17.1722 10.4395 17.2245 10.608 17.2178 10.8239L17.3042 10.8287Z" fill="#85340A"/>
<path d="M17.8406 10.3446C17.8372 10.4945 17.8335 10.6524 17.7681 10.8391L17.6901 10.8016C17.779 10.6047 17.7952 10.429 17.8096 10.2724C17.826 10.0948 17.8401 9.94169 17.9554 9.80999C17.8485 9.99986 17.8447 10.1665 17.8406 10.3446Z" fill="#85340A"/>
<path d="M18.4455 13.4039C18.342 13.2955 18.2329 13.1813 18.1472 13.0031L18.2288 12.9744C18.3052 13.1765 18.418 13.3122 18.5185 13.4331C18.6326 13.5703 18.7308 13.6885 18.7424 13.8631C18.6837 13.6533 18.5686 13.5327 18.4455 13.4039Z" fill="#85340A"/>
<path d="M18.9115 12.9382C18.7743 12.8777 18.6298 12.8139 18.4824 12.6821L18.5469 12.6244C18.6948 12.7818 18.8509 12.864 18.9901 12.9372C19.1479 13.0203 19.2839 13.0919 19.3615 13.2489C19.227 13.0775 19.0744 13.0102 18.9115 12.9382Z" fill="#85340A"/>
<path d="M19.1641 11.6713C19.0243 11.7255 18.877 11.7826 18.6795 11.7935L18.6843 11.7071C18.9003 11.7139 19.0688 11.6616 19.219 11.615C19.3893 11.5622 19.5361 11.5166 19.7019 11.5727C19.4856 11.5467 19.3302 11.6069 19.1641 11.6713Z" fill="#85340A"/>
<path d="M18.6692 12.2575C18.8558 12.3229 19.0138 12.3265 19.1637 12.33C19.3417 12.3341 19.5084 12.3379 19.6983 12.4447C19.5666 12.3294 19.4135 12.3153 19.2359 12.299C19.0793 12.2845 18.9036 12.2684 18.7067 12.1795L18.6692 12.2575Z" fill="#85340A"/>
<path d="M17.5115 13.3349C18.2488 13.3349 18.8465 12.7372 18.8465 11.9999C18.8465 11.2626 18.2488 10.6649 17.5115 10.6649C16.7742 10.6649 16.1765 11.2626 16.1765 11.9999C16.1765 12.7372 16.7742 13.3349 17.5115 13.3349Z" fill="#F6B40E"/>
<path d="M17.3816 11.63C17.2166 11.475 16.9166 11.51 16.6816 11.715V11.71C16.9066 11.41 17.2166 11.425 17.4416 11.61L17.4716 11.725C17.5016 11.88 17.4716 12.04 17.3916 12.195L17.3516 12.175C17.4416 12.045 17.4766 11.92 17.4566 11.8C17.4453 11.7382 17.4196 11.68 17.3816 11.63Z" fill="#85340A"/>
<path d="M18.3516 11.715C18.1166 11.51 17.8166 11.475 17.6516 11.63C17.6136 11.68 17.5879 11.7382 17.5766 11.8C17.5566 11.92 17.5916 12.045 17.6816 12.175L17.6416 12.195C17.5616 12.04 17.5316 11.88 17.5616 11.725L17.5916 11.61C17.8166 11.425 18.1266 11.41 18.3516 11.71V11.715Z" fill="#85340A"/>
<path d="M17.7601 11.7317C17.8178 11.6787 17.8493 11.6499 17.9816 11.6499C18.1866 11.6499 18.3116 11.8149 18.2866 11.8249C18.2808 11.8278 18.268 11.817 18.2483 11.8003C18.2007 11.7599 18.1124 11.6849 17.9816 11.6849C17.9216 11.6849 17.8566 11.6849 17.7966 11.7349C17.7366 11.7849 17.6966 11.8049 17.6716 11.8149C17.6566 11.8249 17.6416 11.7949 17.6566 11.7849C17.6583 11.7816 17.6632 11.7805 17.6712 11.7787C17.6875 11.775 17.7165 11.7684 17.7566 11.7349L17.7601 11.7317Z" fill="#85340A"/>
<path fill-rule="evenodd" clip-rule="evenodd" d="M17.7366 11.835C17.7866 11.755 17.8766 11.715 17.9616 11.715H17.9666C18.0143 11.7149 18.0616 11.7247 18.1054 11.7436C18.1493 11.7625 18.1888 11.7902 18.2216 11.825C18.0666 11.935 17.8366 11.93 17.7366 11.835ZM17.9088 11.7421C17.8593 11.7547 17.8127 11.7844 17.7766 11.835C17.8179 11.8665 17.8686 11.8879 17.9209 11.8953C17.8916 11.8804 17.8716 11.85 17.8716 11.815C17.8716 11.785 17.8862 11.7585 17.9088 11.7421ZM18.0092 11.7386C18.0347 11.7545 18.0516 11.7828 18.0516 11.815C18.0516 11.8496 18.032 11.8797 18.0033 11.8947C18.0561 11.8862 18.1066 11.861 18.1466 11.815C18.1384 11.7822 18.0797 11.7494 18.0092 11.7386Z" fill="#85340A"/>
<path d="M18.2266 11.875C18.0516 12.01 17.8766 12 17.7766 11.94C17.6766 11.875 17.6766 11.855 17.6966 11.855C17.709 11.855 17.7214 11.8627 17.7481 11.8793C17.7645 11.8894 17.7862 11.9029 17.8166 11.92C17.9016 11.96 18.0216 11.96 18.2266 11.875Z" fill="#85340A"/>
<path d="M17.2958 12.1903C17.3009 12.188 17.3062 12.1862 17.3116 12.1849H17.3066C17.3028 12.1865 17.2992 12.1882 17.2958 12.1903Z" fill="#85340A"/>
<path d="M17.2958 12.1903C17.2879 12.1938 17.2806 12.1984 17.274 12.204C17.2631 12.2133 17.2546 12.225 17.2491 12.2382C17.2437 12.2514 17.2415 12.2657 17.2426 12.2799C17.2438 12.2941 17.2483 12.3079 17.2559 12.32C17.2634 12.3321 17.2737 12.3423 17.2859 12.3496C17.2981 12.357 17.312 12.3613 17.3262 12.3623C17.3404 12.3633 17.3547 12.3609 17.3678 12.3552C17.3809 12.3496 17.3925 12.3409 17.4016 12.3299C17.4346 12.3504 17.4728 12.3608 17.5116 12.3599H17.5216C17.5516 12.3599 17.6016 12.3549 17.6366 12.3299C17.6516 12.3549 17.6816 12.3649 17.7116 12.3649C17.7355 12.3669 17.7592 12.3594 17.7775 12.3439C17.7958 12.3284 17.8071 12.3063 17.8091 12.2824C17.8111 12.2586 17.8035 12.2349 17.7881 12.2166C17.7726 12.1983 17.7505 12.1869 17.7266 12.1849C17.7516 12.1949 17.7666 12.2149 17.7666 12.2449C17.7666 12.2608 17.7603 12.2761 17.7491 12.2874C17.7378 12.2986 17.7225 12.3049 17.7066 12.3049C17.6907 12.3049 17.6755 12.2986 17.6642 12.2874C17.653 12.2761 17.6466 12.2608 17.6466 12.2449C17.6348 12.2696 17.6164 12.2906 17.5935 12.3056C17.5706 12.3206 17.544 12.329 17.5166 12.3299C17.4901 12.3281 17.4646 12.3193 17.4426 12.3043C17.4207 12.2894 17.4031 12.2689 17.3916 12.2449C17.3916 12.2799 17.3616 12.3049 17.3266 12.3049C17.2966 12.3049 17.2666 12.2749 17.2666 12.2449C17.2666 12.2195 17.2774 12.2013 17.2958 12.1903Z" fill="#85340A"/>
<path d="M17.256 12.54C17.3017 12.496 17.3443 12.4549 17.4116 12.4549L17.5116 12.4899C17.5516 12.4699 17.5916 12.4599 17.6116 12.4599C17.6798 12.4599 17.7206 12.4979 17.7669 12.541C17.7918 12.5642 17.8183 12.5889 17.8516 12.6099C17.8225 12.5983 17.7951 12.5799 17.7635 12.5587C17.7408 12.5434 17.7159 12.5267 17.6866 12.5099C17.6351 12.4824 17.5906 12.4975 17.5549 12.5096C17.5386 12.515 17.5241 12.5199 17.5116 12.5199C17.497 12.5199 17.4807 12.5146 17.463 12.5088C17.4265 12.4969 17.3838 12.483 17.3366 12.5099C17.3013 12.5288 17.2737 12.5476 17.2492 12.5644C17.2217 12.5832 17.1981 12.5994 17.1716 12.6099C17.2039 12.5902 17.2304 12.5647 17.256 12.54Z" fill="#85340A"/>
<path fill-rule="evenodd" clip-rule="evenodd" d="M17.5116 12.7599C17.3949 12.7599 17.3656 12.7263 17.3345 12.6904C17.3056 12.6571 17.2751 12.622 17.1716 12.6099L17.2018 12.6099C17.2817 12.59 17.3317 12.58 17.3717 12.58C17.4146 12.5769 17.4425 12.5814 17.4669 12.5853C17.4823 12.5877 17.4962 12.59 17.5117 12.59C17.5267 12.59 17.5408 12.5875 17.5566 12.5846C17.6032 12.5763 17.6648 12.5653 17.8098 12.6079C17.8225 12.6079 17.8364 12.6086 17.8516 12.6099C17.7482 12.622 17.7177 12.6571 17.6888 12.6904C17.6576 12.7263 17.6284 12.7599 17.5116 12.7599ZM17.2018 12.6099L17.2116 12.6099C17.3023 12.6099 17.3333 12.6391 17.3642 12.668C17.3946 12.6966 17.4247 12.7249 17.5116 12.7249C17.5975 12.7249 17.6285 12.6958 17.6595 12.6667C17.6904 12.6375 17.7214 12.6084 17.8071 12.6079C17.6945 12.5846 17.6364 12.6034 17.5876 12.6192C17.5619 12.6275 17.5388 12.635 17.5117 12.635C17.4824 12.635 17.4585 12.6273 17.4322 12.6188C17.382 12.6027 17.3231 12.5837 17.2018 12.6099Z" fill="#85340A"/>
<path d="M17.5116 12.7599C17.5607 12.7599 17.6078 12.7795 17.6425 12.8142C17.6772 12.8489 17.6967 12.8959 17.6967 12.945C17.6869 12.9033 17.6633 12.8661 17.6297 12.8394C17.5961 12.8128 17.5545 12.7983 17.5117 12.7983C17.4688 12.7983 17.4272 12.8128 17.3936 12.8394C17.36 12.8661 17.3364 12.9033 17.3267 12.945C17.3267 12.8959 17.3462 12.8489 17.3808 12.8142C17.4155 12.7795 17.4626 12.7599 17.5116 12.7599Z" fill="#85340A"/>
<path d="M17.0516 11.6499C17.1839 11.6499 17.2154 11.6787 17.2731 11.7317L17.2766 11.7349C17.3167 11.7684 17.3457 11.775 17.362 11.7787C17.37 11.7805 17.3749 11.7816 17.3766 11.7849C17.3916 11.7949 17.3766 11.8249 17.3616 11.8149C17.3366 11.8049 17.2966 11.7849 17.2366 11.7349C17.1766 11.6849 17.1116 11.6849 17.0516 11.6849C16.9208 11.6849 16.8325 11.7599 16.7849 11.8003C16.7652 11.817 16.7524 11.8278 16.7466 11.8249C16.7216 11.8149 16.8466 11.6499 17.0516 11.6499Z" fill="#85340A"/>
<path fill-rule="evenodd" clip-rule="evenodd" d="M16.8167 11.835C16.8667 11.755 16.9567 11.715 17.0417 11.715H17.0467C17.0944 11.7149 17.1417 11.7247 17.1855 11.7436C17.2294 11.7625 17.2689 11.7902 17.3017 11.825C17.1467 11.935 16.9167 11.93 16.8167 11.835ZM16.9666 11.815C16.9666 11.7822 16.9841 11.7534 17.0104 11.7377C16.953 11.7466 16.898 11.7771 16.8566 11.835C16.903 11.8703 16.9612 11.893 17.0202 11.8973C16.9886 11.8834 16.9666 11.8517 16.9666 11.815ZM17.1466 11.815C17.1466 11.8462 17.1306 11.8737 17.1065 11.8899C17.1508 11.8783 17.1925 11.8542 17.2267 11.815C17.2193 11.7854 17.1709 11.7558 17.1098 11.7424C17.1321 11.7588 17.1466 11.7852 17.1466 11.815Z" fill="#85340A"/>
<path d="M17.2566 11.94C17.1566 12 16.9816 12.01 16.8066 11.875C17.0116 11.96 17.1316 11.96 17.2166 11.92C17.247 11.9029 17.2687 11.8894 17.2851 11.8793C17.3118 11.8627 17.3242 11.855 17.3366 11.855C17.3566 11.855 17.3566 11.875 17.2566 11.94Z" fill="#85340A"/>
<path fill-rule="evenodd" clip-rule="evenodd" d="M17.5116 10.6299C16.755 10.6299 16.1416 11.2433 16.1416 11.9999C16.1416 12.7565 16.755 13.3699 17.5116 13.3699C18.2682 13.3699 18.8816 12.7565 18.8816 11.9999C18.8816 11.2433 18.2682 10.6299 17.5116 10.6299ZM16.2116 11.9999C16.2116 11.2819 16.7936 10.6999 17.5116 10.6999C18.2296 10.6999 18.8116 11.2819 18.8116 11.9999C18.8116 12.7179 18.2296 13.2999 17.5116 13.2999C16.7936 13.2999 16.2116 12.7179 16.2116 11.9999Z" fill="#85340A"/>
</g>
<defs>
<clipPath id="clip0_11930_67699">
<rect width="36" height="24" rx="2" fill="white"/>
</clipPath>
</defs>
</svg>
