<svg width="36" height="24" viewBox="0 0 36 24" fill="none" xmlns="http://www.w3.org/2000/svg">
<g clip-path="url(#clip0_11930_67717)">
<rect width="36" height="24" rx="2" fill="#000066"/>
<path d="M3 12L36 -0.5V24.5L3 12Z" fill="#BD1021"/>
<path d="M6.01489 11.9999L36 0.5V23.5" fill="white"/>
<path d="M26.7299 13.5199C26.9849 13.5349 26.9799 13.7899 26.9799 13.7899L27.8799 13.8099C27.9949 13.4949 28.1199 13.5299 28.3399 13.6899C28.4737 13.7809 28.6203 13.8517 28.7749 13.8999C28.8599 13.4499 29.4999 13.5399 29.4999 13.5399C29.7799 12.8899 29.7999 12.8949 29.6349 12.8149C29.5369 12.7653 29.4566 12.6867 29.4049 12.5899C29.2549 12.4049 29.1749 12.1349 29.1549 11.9699C29.1349 11.8049 28.9449 12.0499 28.9049 11.9999C28.8749 11.9499 28.5899 11.9799 28.5899 11.9799C28.6599 12.0549 28.4199 12.0099 28.4199 12.0099C28.4449 12.0299 28.4199 12.0949 28.4199 12.0949C28.3999 12.0649 28.2149 12.0349 28.2149 12.0349C28.2009 12.0643 28.1824 12.0913 28.1599 12.1149C28.0599 12.0749 27.8599 12.0799 27.8599 12.0799C27.6685 12.0734 27.4794 12.122 27.3149 12.2199C27.2349 12.2649 26.9449 12.4099 26.6999 12.6449C26.4649 12.8749 26.3299 12.8449 26.3299 12.8449C26.2599 13.1049 25.6899 13.4199 25.6899 13.4199C25.5999 13.4999 25.3099 13.5399 25.1649 13.4199C25.0199 13.2999 25.1649 13.0749 25.1649 13.0749C25.2249 12.9749 25.2749 12.9799 25.2799 12.6249C25.2849 12.3899 25.5299 12.1999 25.7799 11.9249C26.0949 11.5849 26.5299 11.0249 26.5299 11.0249C26.5299 11.1949 26.6199 11.2249 26.6199 11.2249C26.7049 11.0499 26.8299 10.9099 26.8299 10.9099C26.8349 10.9249 26.8549 10.9299 26.8549 10.9299C26.9549 10.7999 27.0049 10.7499 27.0049 10.7499C26.9799 10.7349 26.7049 10.7499 26.4549 10.9699C26.2049 11.1899 26.0349 11.1199 26.0349 11.1199C25.8599 11.0599 25.8449 10.9199 25.8449 10.9199C25.7199 10.3749 26.2149 9.98491 26.2149 9.98491C25.5449 9.82491 26.0299 8.96991 26.8649 8.60991C27.6949 8.24991 27.6849 8.08491 27.6849 8.08491C27.7215 8.13062 27.7518 8.18108 27.7749 8.23491C27.7799 8.23491 27.8449 8.13991 28.3249 7.92991C28.8049 7.71491 29.0349 7.52991 29.0349 7.52991C29.0949 7.64991 29.0849 7.72991 29.0849 7.72991C30.3999 7.27491 31.6849 6.21991 31.6849 6.21991C31.7249 6.30491 31.7099 6.43991 31.7099 6.43991C31.9199 6.23991 32.6949 5.77991 32.6949 5.77991C32.7005 5.8632 32.6817 5.94632 32.6409 6.01912C32.6 6.09193 32.5389 6.15127 32.4649 6.18991C32.4842 6.22588 32.4977 6.26469 32.5049 6.30491C32.7486 6.15235 32.9887 5.99397 33.2249 5.82991C33.4399 6.01491 33.2449 6.31991 33.2449 6.31991C33.3249 6.30491 33.3749 6.23991 33.3749 6.23991C33.4349 6.55991 33.0799 6.83991 33.0799 6.83991C33.1449 6.83991 33.2449 6.77491 33.2449 6.77491C33.1799 7.12491 32.5249 7.50491 32.5249 7.50491C32.6199 7.59491 32.5249 7.70491 32.4449 7.75491C32.3699 7.80491 32.2299 7.91991 32.2749 7.96491C32.3149 8.01491 32.6099 7.80491 32.6099 7.80491C32.6599 7.94991 32.2849 8.23491 32.2849 8.23491C32.5449 8.26991 33.2649 7.93991 33.2649 7.93991C33.2099 8.21991 32.9349 8.43991 32.5999 8.56491C32.2649 8.68991 32.2799 8.71491 32.2799 8.71491C32.3399 8.75491 32.8049 8.62491 32.8049 8.62491C32.6649 8.93491 32.1799 9.14991 32.1799 9.14991C32.3149 9.26491 32.4949 9.12991 32.6799 9.00491C32.898 8.86772 33.1334 8.76011 33.3799 8.68491C33.6449 8.58991 33.8399 8.65991 33.8399 8.65991C33.9789 8.61884 34.1281 8.6295 34.2599 8.68991C34.6949 8.72491 34.7399 8.88491 34.7399 8.88491C34.7899 8.89491 34.8249 8.91491 34.9399 8.99991C35.0449 9.07991 35.0399 9.32991 35.0399 9.45991C35.0299 9.57991 34.9949 9.57991 34.9749 9.60991C34.9549 9.64991 34.9499 9.68991 34.9499 9.73491C34.9499 9.78491 34.8399 10.0799 34.1649 10.0799H33.1499C33.0899 10.0799 33.0249 10.1149 33.0249 10.1149C32.7399 10.2549 32.8899 10.0149 32.5549 10.2949C32.2149 10.5699 32.0449 10.5249 32.0449 10.5249C31.856 10.718 31.6502 10.8937 31.4299 11.0499C31.2299 11.1799 31.2649 11.1649 31.4449 11.2399C31.6249 11.3149 31.8849 11.2399 31.8849 11.2399C31.7149 11.3549 31.8349 11.4099 31.8349 11.4099C32.0549 11.2749 32.1949 11.3249 32.1949 11.3249C32.2649 11.5199 32.0049 11.8249 32.0049 11.8249C32.1049 11.8399 32.2949 11.8249 32.2949 11.8249C32.2449 11.9599 32.0649 12.1049 31.9249 12.1449C31.7899 12.1949 31.8099 12.2099 31.8549 12.2949C31.8899 12.3749 31.8599 12.4599 31.8599 12.4599C31.6199 12.2949 31.6099 12.4399 31.6099 12.4399C31.5849 12.6399 31.5899 12.9199 31.5899 12.9199C31.4199 12.8349 31.4149 12.9449 31.4149 12.9449C31.3649 13.1249 31.1599 13.3299 31.1599 13.3299C31.1499 13.2199 31.0499 13.1899 31.0499 13.1899C30.9399 13.3999 30.7449 13.5249 30.7449 13.5249C30.7199 13.6999 30.7699 13.9549 30.7699 13.9549C30.6399 13.9249 30.5949 13.9249 30.5699 13.9549C30.5549 13.9899 30.5999 14.0049 30.5999 14.0049L32.2699 14.0449C32.2949 14.0449 32.3949 14.0599 32.3949 14.2349C32.3949 14.4199 32.2449 14.4299 32.2449 14.4299L30.4249 14.3849C30.4249 14.3849 30.4299 14.4349 30.3349 14.4849C30.2399 14.5349 30.2749 14.4299 30.2499 14.6549C30.2199 14.8749 29.8599 14.6349 29.8599 14.6349C29.7999 14.7249 29.6599 14.8349 29.6599 14.8349C29.5749 14.5849 29.4899 14.5149 29.3599 14.7249C29.2299 14.9399 29.5999 14.9049 29.5999 14.9049C29.5999 14.9049 31.7399 14.5899 31.8549 14.5799C31.9699 14.5649 32.0999 14.5749 32.1549 14.7349C32.2049 14.8999 31.8899 14.9249 31.8899 14.9249L29.6899 15.1649C29.6449 15.2949 29.4649 15.2849 29.4649 15.2849C29.4799 15.4099 29.3499 15.4849 29.2849 15.5349C29.2149 15.5749 29.0049 15.5599 29.0049 15.5599C28.7549 15.7299 28.6249 15.5949 28.6249 15.5949C28.4599 15.6649 28.3549 15.6349 28.2199 15.5749C28.0799 15.5149 28.0949 15.3499 28.0949 15.3499L26.7049 15.4999C26.6647 15.5128 26.6274 15.5332 26.5949 15.5599C26.6449 15.6249 26.4949 15.7749 26.4949 15.7749C26.5399 15.7999 26.6199 15.8799 26.6299 16.0499C26.6399 16.2349 26.4049 16.2649 26.5199 16.3999C26.6349 16.5249 26.8549 16.4149 27.0949 16.2999C27.3349 16.1849 27.5699 16.1999 27.6699 16.1999C27.7699 16.1999 28.0599 16.2799 28.2399 16.3399C28.4199 16.3999 28.4799 16.3599 28.4899 16.2699C28.4999 16.1849 28.5849 16.1549 28.5849 16.1549C28.5599 16.2449 28.6099 16.2849 28.6099 16.2849C28.6749 16.2745 28.7376 16.2525 28.7949 16.2199C28.7849 16.2899 28.6949 16.3299 28.6949 16.3299C28.5249 16.4449 28.7649 16.4049 28.7649 16.4049C29.0151 16.3346 29.2758 16.3092 29.5349 16.3299C29.7784 16.4017 30.0171 16.4885 30.2499 16.5899C30.2699 16.5299 30.2549 16.3899 30.2549 16.3899C30.4049 16.4299 30.4649 16.5149 30.4649 16.5149C30.5249 16.4549 30.4849 16.3449 30.4849 16.3449C30.9699 16.6199 30.3849 16.7449 30.2299 16.7949C30.0799 16.8449 30.0799 16.9099 30.0799 16.9099C30.1836 16.8758 30.291 16.854 30.3999 16.8449C30.5099 16.8349 30.4699 16.8449 30.7249 16.7949C30.9849 16.7449 31.1149 16.8549 31.1149 16.8549C30.8999 16.8649 30.8399 16.9299 30.8399 16.9299C30.9699 17.0149 30.8399 17.0999 30.8399 17.0999C30.6499 16.8499 30.4799 17.1049 30.4799 17.1049C30.5903 17.1049 30.6995 17.1287 30.7999 17.1749L31.0699 17.3099C31.2499 17.3899 31.2149 17.3399 31.3499 17.3899C31.4899 17.4399 31.4349 17.5749 31.4349 17.5749C31.3933 17.5042 31.3276 17.451 31.2499 17.4249C31.2399 17.5749 31.0949 17.5999 31.0949 17.5999C31.2749 17.3999 30.8899 17.3099 30.7049 17.3149C30.5249 17.3149 30.3899 17.4349 30.3899 17.4349C30.7549 17.7799 31.0049 17.6649 31.0049 17.6649C30.9599 17.7899 30.6599 17.7399 30.6599 17.7399C30.7999 17.8499 30.7849 17.9199 30.7849 17.9199C30.7099 17.8499 30.5849 17.8849 30.3249 17.7199C30.0649 17.5449 29.8299 17.6049 29.8299 17.6049C30.0899 17.8699 29.7399 18.0349 29.7399 18.0349C29.6099 18.1149 29.7899 18.2099 29.7899 18.2099C29.6299 18.2399 29.6099 18.0799 29.6099 18.0799C29.5249 18.0599 29.3999 18.1599 29.3999 18.1599C29.4099 17.9999 29.6299 18.0799 29.6299 17.9099C29.6399 17.7349 29.4299 17.5999 28.8149 17.6849C28.1949 17.7699 28.0149 17.5749 28.0149 17.5749C27.9649 17.5749 27.9549 17.6249 27.9549 17.6249C28.0549 17.7249 28.0999 17.7649 28.0849 17.8349C28.0649 17.8999 28.1149 17.9249 28.1149 17.9249C27.9999 17.9149 27.9949 17.7849 27.9949 17.7849C27.9949 17.8399 27.9699 17.8449 27.9299 17.8999C27.8899 17.9549 27.9299 18.0349 27.9299 18.0349C27.8799 17.9949 27.7949 17.9449 27.8799 17.8199C27.9399 17.7299 27.7449 17.6099 27.7449 17.6099C27.6699 17.5349 27.4649 17.6099 27.4649 17.6099C27.3473 17.635 27.2254 17.6313 27.1096 17.5991C26.9938 17.5669 26.8876 17.5071 26.7999 17.4249C26.7499 17.4249 26.6549 17.3949 26.6549 17.3949C26.2099 17.5949 25.8199 17.1649 25.8199 17.1649C25.4849 17.2299 25.3299 17.0649 25.2299 16.9049C25.1723 16.7958 25.0811 16.7082 24.9699 16.6549C24.8399 16.5749 24.7099 16.3449 24.8399 16.2199C24.9399 16.1149 24.9149 16.0899 24.9149 16.0899C24.7399 15.7949 25.2199 15.7049 25.2299 15.6299C25.2449 15.5299 25.3449 15.4649 25.4549 15.4599C25.5649 15.4499 25.5649 15.4599 25.6399 15.3899C25.7049 15.3149 25.8399 15.4049 25.8399 15.4049C25.8749 15.3849 26.1149 15.1999 26.3249 15.2949C26.5399 15.3899 26.7199 15.3249 26.7199 15.3249C26.8699 15.2899 28.1199 15.1249 28.1199 15.1249C28.1949 14.9999 28.2549 14.8549 28.5999 14.7749C28.9449 14.6949 29.1999 14.4749 29.1999 14.4749C29.1399 14.4149 29.0399 14.4149 28.9899 14.4099C28.9349 14.4099 28.8299 14.3099 28.8299 14.3099C28.7649 14.3399 28.7299 14.3249 28.2799 14.5999C27.8749 14.8499 27.8649 14.3599 27.8649 14.3599H26.9799C26.9649 14.5449 26.8299 14.6199 26.8299 14.6199L26.5049 14.6349C26.3249 14.5449 26.3249 14.2249 26.3249 14.2249C25.3549 14.2399 24.8199 14.5849 24.8199 14.5849C23.7199 14.0249 22.8599 13.8949 22.8599 13.8949C23.5642 13.8439 24.2544 13.6713 24.8999 13.3849C25.3321 13.6465 25.8208 13.8008 26.3249 13.8349C26.3499 13.5649 26.5299 13.4999 26.5299 13.4999L26.7299 13.5199Z" fill="black"/>
<path d="M25.1448 15.7299C24.8698 15.8899 24.9198 15.9799 24.9448 16.0299C24.9698 16.0799 24.9698 16.1299 24.8948 16.2099C24.8198 16.2849 24.8248 16.3099 24.8248 16.3099C24.8398 16.5799 25.0248 16.6399 25.1098 16.7099C25.1798 16.7599 25.2898 16.9349 25.2898 16.9349C25.4348 17.1399 25.5848 17.1449 25.6948 17.1449C25.8098 17.1449 25.7948 17.1299 25.7448 17.0799L25.5748 16.9449C25.6862 16.9922 25.7866 17.062 25.8698 17.1499C26.1498 17.4599 26.4098 17.4199 26.5248 17.4099C26.6398 17.3949 26.6248 17.3249 26.6248 17.3249C26.5859 17.3128 26.5455 17.3061 26.5048 17.3049C26.0798 17.2649 25.9548 16.9849 25.9548 16.9849C26.1707 17.1748 26.4473 17.2812 26.7348 17.2849C26.8548 17.2799 26.8498 17.3149 26.8198 17.3249L26.6998 17.3149C26.6448 17.3149 26.6448 17.3299 26.6548 17.3549C26.6698 17.3749 26.7248 17.3749 26.7898 17.3749C26.8598 17.3749 26.8048 17.3799 26.9798 17.5149C27.1598 17.6549 27.5948 17.5399 27.5948 17.5399C27.3098 17.4749 27.2748 17.3399 27.2748 17.3399C26.8898 17.3899 26.7348 17.1599 26.7348 17.1599C26.6476 17.0922 26.5538 17.0336 26.4548 16.9849C26.3941 16.9582 26.3402 16.9183 26.297 16.8682C26.2537 16.818 26.2222 16.7588 26.2048 16.6949C26.2698 16.7849 26.3898 16.8849 26.5398 16.9249C26.6898 16.9649 26.7298 16.9849 26.7298 16.9849C26.6913 16.9936 26.6511 16.9901 26.6148 16.9749C26.4648 16.9249 26.5498 16.9899 26.5498 16.9899C26.7198 17.1249 26.7648 17.1149 26.7648 17.1149C27.1948 17.1599 26.9798 16.9849 26.9798 16.9849C27.2898 17.0599 27.3398 16.9449 27.3398 16.9449C27.4048 17.0799 27.6398 17.0299 27.6398 17.0299C27.3298 17.1799 27.5648 17.1349 27.5648 17.1349C27.8798 17.0799 27.9448 17.1599 27.9448 17.1599C28.0248 17.2349 28.1148 17.2299 28.1148 17.2299C28.1148 17.2299 28.1748 17.2299 28.2898 17.2499C28.4098 17.2749 28.5998 17.3749 28.7698 17.3599C28.9448 17.3349 28.9698 17.3899 28.9698 17.3899C28.9398 17.3749 28.8598 17.3649 28.7298 17.4249C28.5948 17.4899 28.3598 17.5049 28.0198 17.4249C27.6798 17.3449 27.6498 17.3599 27.6498 17.3599C27.7257 17.4075 27.7851 17.4773 27.8198 17.5599C27.8348 17.6199 27.8948 17.6199 27.8948 17.6199C27.9198 17.5449 28.0198 17.5149 28.0198 17.5149C28.0979 17.5703 28.1817 17.6172 28.2698 17.6549C28.2898 17.6199 28.2698 17.5899 28.2698 17.5899C28.3998 17.7149 28.5498 17.6749 28.5498 17.6749C28.5898 17.6499 28.5798 17.5749 28.5798 17.5749C28.6298 17.5749 28.6398 17.6049 28.6798 17.6349C28.7148 17.6549 28.8298 17.6399 28.8298 17.6399C28.7898 17.6199 28.7548 17.5549 28.7548 17.5549C28.9298 17.4399 29.3048 17.4899 29.3048 17.4899C29.5698 17.5399 29.5398 17.7149 29.5398 17.7149C29.5869 17.7428 29.6291 17.7783 29.6648 17.8199C29.6898 17.7599 29.6648 17.6949 29.6648 17.6949C29.7948 17.7549 29.8148 17.8949 29.8148 17.8949C29.9648 17.7349 29.6798 17.5549 29.6798 17.5549C29.8148 17.5349 29.9648 17.5449 30.0548 17.5549C30.1767 17.5761 30.2907 17.6296 30.3848 17.7099C30.4898 17.7949 30.6798 17.8349 30.6798 17.8349C30.6748 17.7999 30.5698 17.7349 30.5448 17.7249C30.5248 17.7149 30.5148 17.6799 30.5148 17.6799C30.6098 17.6999 30.6698 17.6899 30.6698 17.6899C30.3498 17.4899 30.2648 17.3949 30.2648 17.3949C30.3848 17.4099 30.4548 17.3349 30.4548 17.3349C30.1998 17.3349 30.1848 17.2749 30.1848 17.2749C30.2198 17.2799 30.3398 17.3099 30.4948 17.2799C30.6498 17.2499 30.8548 17.2799 30.8548 17.2799C30.7448 17.0999 30.3198 17.1299 30.1798 17.1399C30.0398 17.1499 29.9898 17.1299 29.9898 17.1299C30.0098 17.1199 30.0348 17.0999 30.1398 17.0949C30.2498 17.0949 30.3548 17.1049 30.4798 17.0149C30.5948 16.9349 30.7648 16.9649 30.7648 16.9649C30.7248 16.8849 30.5298 16.8549 30.3648 16.9649C30.1898 17.0699 30.0398 17.0399 30.0398 17.0399C30.3048 16.9999 30.3848 16.9049 30.3848 16.9049C30.3048 16.8849 30.2598 16.9099 30.0948 16.9449C29.9348 16.9749 29.8948 16.9199 29.8948 16.9199C30.0698 16.8149 30.1948 16.7699 30.1948 16.7699C30.0448 16.7399 29.9048 16.6699 29.9048 16.6699C29.7448 16.8199 29.6248 16.8999 29.3198 16.7499C29.0198 16.5899 28.8598 16.6099 28.8598 16.6099C28.9739 16.5463 29.1034 16.5155 29.234 16.5208C29.3646 16.5261 29.4911 16.5673 29.5998 16.6399C29.7998 16.7549 29.8498 16.6599 29.8498 16.6599C29.7898 16.6249 29.7998 16.5849 29.7998 16.5849C30.2798 16.8299 30.4898 16.6849 30.5948 16.6099C30.6998 16.5349 30.5448 16.4399 30.5448 16.4399C30.5348 16.5899 30.3448 16.6699 30.1848 16.6149C30.0348 16.5649 29.8848 16.4949 29.6648 16.3999C29.4448 16.3099 29.1648 16.3599 28.9098 16.4099C28.6498 16.4649 28.6148 16.4399 28.5898 16.4199C28.5648 16.3999 28.5548 16.3349 28.4198 16.3899C28.2898 16.4449 27.9798 16.2999 27.7898 16.2549C27.5998 16.2049 27.2848 16.2299 27.0148 16.3799C26.7448 16.5349 26.6048 16.4949 26.5248 16.4599C26.4448 16.4199 26.3898 16.3199 26.4798 16.2299C26.5698 16.1399 26.5798 16.1149 26.5698 15.9799C26.5598 15.8499 26.4298 15.7699 26.4298 15.7699C26.5498 15.6449 26.5798 15.6199 26.5398 15.5699C26.4998 15.5099 26.5598 15.5099 26.6298 15.4799C26.6998 15.4499 26.6698 15.4449 26.6548 15.4049C26.6348 15.3649 26.5948 15.3749 26.5948 15.3749C26.4398 15.3799 26.3498 15.3349 26.3498 15.3349C26.0898 15.2149 25.8448 15.4499 25.8448 15.4499C25.6948 15.3349 25.6598 15.4149 25.6348 15.4399C25.6098 15.4649 25.5548 15.4899 25.4848 15.4899C25.4248 15.4999 25.3298 15.5249 25.2948 15.5849C25.2948 15.5849 25.2648 15.6349 25.2998 15.6849C25.2998 15.6849 25.3398 15.7449 25.2698 15.8199C25.1948 15.8949 25.1698 15.9099 25.1948 15.9849C25.2148 16.0499 25.2098 16.1049 25.1798 16.1499C25.1798 16.1499 25.1448 16.1149 25.1548 16.0649C25.1648 16.0149 25.1648 15.9849 25.1548 15.9649C25.1548 15.9649 25.0798 16.0349 25.0648 16.0849C25.0648 16.0849 25.0348 16.0049 25.1448 15.8999C25.2448 15.7999 25.2948 15.7399 25.2648 15.6999C25.2448 15.6699 25.1648 15.7199 25.1498 15.7299H25.1448Z" fill="#FFC221"/>
<path d="M25.4499 16.8999C25.4499 16.8999 25.3149 16.7999 25.3299 16.6549C25.3449 16.5199 25.3449 16.5049 25.3299 16.4699C25.3299 16.4699 25.3049 16.4849 25.3099 16.5399C25.3099 16.5899 25.2999 16.6449 25.2949 16.6549C25.2949 16.6549 25.2299 16.5399 25.1949 16.5149C25.1949 16.5149 25.2249 16.3949 25.1849 16.3449C25.1499 16.2899 25.1099 16.2849 25.0649 16.3049C25.0049 16.3249 24.9599 16.3799 25.1649 16.5449C25.1649 16.5449 25.2399 16.6099 25.2899 16.7399C25.3399 16.8699 25.4299 16.8899 25.4449 16.8999H25.4499ZM26.0999 16.5099C26.0999 16.5099 26.0949 16.4349 26.1649 16.2949C26.1896 16.2528 26.2039 16.2055 26.2065 16.1567C26.2091 16.108 26.2 16.0594 26.1799 16.0149C26.1649 15.9749 26.1499 15.9899 26.2249 15.9299C26.3099 15.8549 26.1899 15.7599 26.3399 15.6299C26.3399 15.6299 26.4299 15.5499 26.4549 15.5149C26.4549 15.5149 26.3049 15.5949 26.1949 15.6399C26.0949 15.6799 25.7149 15.8699 25.7949 15.9949C25.8849 16.1199 25.8749 16.1299 25.8599 16.1849C25.8599 16.1849 25.6299 16.0599 25.7099 15.8649C25.7099 15.8649 25.7499 15.7899 25.8449 15.6949C25.9349 15.6149 25.8849 15.7149 26.0599 15.6099C26.0599 15.6099 26.1949 15.5299 26.2749 15.4149C26.2749 15.4149 26.1749 15.4749 26.1449 15.4849C26.1449 15.4849 25.9449 15.5249 25.8549 15.6099C25.7749 15.6949 25.5999 15.8449 25.6549 16.0099C25.6549 16.0099 25.4549 15.9899 25.4049 15.7749C25.4049 15.7749 25.0249 16.2449 25.8249 16.4649C25.8249 16.4649 25.9749 16.5049 26.1049 16.5149L26.0999 16.5099Z" fill="black"/>
<path d="M29.6099 14.95C29.9099 14.9 31.6299 14.64 31.7899 14.625C31.9599 14.61 32.0249 14.585 32.0849 14.725C32.1499 14.875 31.8449 14.88 31.8449 14.88L29.7899 15.115C29.6899 15.125 29.6649 15.085 29.6649 15.085L29.5899 14.985C29.5899 14.985 29.5649 14.955 29.6099 14.945V14.95Z" fill="#FFC221"/>
<path d="M25.3949 15.8849C25.3949 15.8849 25.1749 16.3499 26.0449 16.4649C26.0449 16.4649 26.0499 16.4149 26.0849 16.3399C26.1249 16.2649 26.1999 16.1149 26.1249 16.0199C26.0549 15.9249 26.1849 15.9749 26.1999 15.8499C26.2249 15.7249 26.1899 15.7399 26.2499 15.6599C26.2499 15.6599 25.9799 15.7599 25.8699 15.8849C25.7699 16.0049 26.0149 16.0949 25.8699 16.2299C25.8699 16.2299 25.7449 16.1799 25.6699 16.0499C25.6699 16.0499 25.5049 16.0499 25.3949 15.8849Z" fill="#5A3719"/>
<path d="M26.2548 16.46C26.2548 16.46 26.4698 16.645 26.7248 16.64C26.9798 16.625 27.0948 16.56 27.1598 16.46C27.1598 16.46 27.2098 16.535 27.2098 16.59C27.2098 16.59 27.4298 16.405 27.8098 16.565C28.1898 16.725 28.0798 16.68 28.1648 16.69C28.1648 16.69 27.9998 16.665 27.6298 16.835C27.2448 17.01 26.2448 16.95 26.2498 16.46H26.2548Z" fill="black"/>
<path d="M25.8948 15.6299C25.8948 15.6299 25.9898 15.6449 26.0848 15.5349C26.0848 15.5349 25.9548 15.5599 25.8948 15.6349V15.6299ZM25.1598 16.4999C25.1598 16.4999 24.9798 16.3599 25.0948 16.3299C25.0948 16.3299 25.1798 16.3149 25.1598 16.4999Z" fill="#5A3719"/>
<path d="M29.0898 17.39C29.0898 17.39 29.1898 17.215 29.4648 17.215C29.7398 17.215 29.7698 17.345 30.1198 17.365C30.1198 17.365 29.6998 17.485 29.4098 17.38C29.2598 17.325 29.1198 17.37 29.0898 17.39Z" fill="black"/>
<path d="M26.345 16.5849C26.345 16.5849 26.765 16.8349 27.13 16.5599C27.13 16.5599 27.16 16.5899 27.19 16.6599C27.19 16.6599 27.47 16.3899 27.965 16.6799C27.965 16.6799 27.905 16.6749 27.67 16.7699C27.365 16.9049 26.6 16.9949 26.345 16.5799V16.5849Z" fill="#5A3719"/>
<path d="M27.9448 16.835C27.9448 16.835 28.3448 16.885 28.6798 16.865C28.8848 16.855 29.1098 16.815 28.9998 16.885C28.8848 16.95 28.9448 16.96 29.4198 16.92C29.8898 16.87 29.4148 17.005 29.7398 17.05C29.7398 17.05 28.9448 17.45 27.9448 16.835Z" fill="black"/>
<path d="M28.99 16.585C28.99 16.585 29.22 16.5 29.44 16.6C29.655 16.7 29.62 16.71 29.765 16.725C29.765 16.725 29.665 16.87 29.43 16.755C29.19 16.64 29.13 16.615 28.99 16.585ZM29.25 17.3C29.25 17.3 29.48 17.185 29.73 17.3C29.76 17.32 29.83 17.35 29.895 17.36C29.895 17.36 29.705 17.425 29.505 17.36C29.42 17.335 29.355 17.315 29.25 17.3ZM28.115 16.89C28.115 16.89 28.63 16.94 28.905 16.885C28.905 16.885 28.585 17.035 29.39 16.97C29.39 16.97 29.565 16.95 29.54 16.975C29.525 17 29.51 17.025 29.6 17.05C29.6 17.05 29 17.32 28.115 16.89Z" fill="#5A3719"/>
<path d="M25.5648 16.46C25.5648 16.46 25.5748 16.495 25.6848 16.545C25.7711 16.5862 25.8414 16.6547 25.8848 16.74C25.9022 16.775 25.9268 16.806 25.957 16.831C25.9871 16.856 26.0221 16.8744 26.0598 16.885C26.0598 16.885 25.6598 16.97 25.4798 16.755C25.4798 16.755 25.3448 16.605 25.5598 16.455" fill="black"/>
<path d="M28.7148 17.3799C28.7148 17.3799 28.5598 17.3699 28.3398 17.2949C28.1248 17.2199 28.0698 17.2849 27.9448 17.1949C27.8248 17.0999 27.5798 17.1599 27.5348 17.1649C27.4848 17.1699 27.3548 17.1649 27.5198 17.0599C27.5198 17.0599 27.3898 17.0599 27.3398 16.9899C27.3398 16.9899 27.2798 17.0499 27.0598 17.0299C27.0598 17.0299 27.1598 17.1799 26.7598 17.1349C26.8269 17.2123 26.9156 17.2678 27.0144 17.2946C27.1133 17.3213 27.2179 17.3179 27.3148 17.2849C27.3148 17.2949 27.2898 17.4099 27.4648 17.4599C27.6548 17.5049 27.6898 17.5399 27.7848 17.5749C27.7848 17.5749 27.7998 17.4999 27.5548 17.3249C27.5548 17.3249 27.6848 17.3149 27.8748 17.3599C28.0648 17.4049 28.4848 17.5149 28.7148 17.3799ZM28.8148 17.5649C28.8148 17.5649 28.8548 17.6549 28.9748 17.6349C29.1449 17.5956 29.3229 17.6095 29.4848 17.6749C29.4848 17.6749 29.5198 17.5149 29.1348 17.5049C29.1348 17.5049 28.8948 17.5149 28.8148 17.5649ZM25.5548 16.5149C25.5548 16.5149 25.4048 16.6399 25.5398 16.7649C25.6598 16.8799 25.8498 16.8699 25.9398 16.8649C25.9398 16.8649 25.8898 16.8349 25.8398 16.7649C25.7898 16.6899 25.7898 16.6399 25.6898 16.5949C25.5848 16.5499 25.5748 16.5399 25.5548 16.5149ZM25.4048 15.8849C25.4048 15.8849 25.1748 16.3499 26.0548 16.4649C26.0548 16.4649 26.0548 16.4149 26.0898 16.3399C26.1198 16.2649 26.1948 16.1149 26.1298 16.0199C26.0498 15.9249 26.1848 15.9749 26.2048 15.8499C26.2248 15.7249 26.1898 15.7399 26.2548 15.6599C26.2548 15.6599 25.9798 15.7599 25.8698 15.8849C25.7698 16.0049 26.0148 16.0949 25.8698 16.2299C25.8698 16.2299 25.7448 16.1799 25.6698 16.0499C25.6698 16.0499 25.5048 16.0499 25.3948 15.8849H25.4048Z" fill="#5A3719"/>
<path d="M27.6948 16.965C27.6948 16.965 27.8798 16.935 28.3448 17.11C28.8148 17.28 29.0098 17.24 29.0748 17.235C29.0748 17.235 28.8148 17.375 28.4048 17.195C28.0448 17.035 28.0248 17.095 27.6948 16.965Z" fill="black"/>
<path d="M30.6199 16.86C30.6199 16.86 30.7199 16.86 30.7899 16.885C30.7899 16.885 30.8249 16.85 30.9249 16.835C30.9249 16.835 30.8599 16.775 30.6199 16.86ZM30.2999 16.6C30.2999 16.6 30.4049 16.6 30.4399 16.54C30.4399 16.54 30.3849 16.475 30.2999 16.44C30.2999 16.44 30.3199 16.52 30.2999 16.6ZM26.7149 15.41C26.7149 15.41 26.6899 15.36 26.8049 15.34L28.3699 15.115C28.3699 15.115 28.4449 15.115 28.4549 15.165C28.4699 15.22 28.4499 15.26 28.0949 15.3L26.8149 15.46C26.8149 15.46 26.7199 15.475 26.7149 15.41Z" fill="#FFC221"/>
<path d="M28.1299 15.3449C28.1299 15.3449 28.1299 15.5499 28.3399 15.5799C28.5399 15.6099 28.6149 15.5699 28.6649 15.4649C28.6799 15.4299 28.7449 15.2149 28.6549 15.1999C28.6149 15.1949 28.5549 15.1999 28.5099 15.2149C28.4399 15.2499 28.3749 15.2849 28.3949 15.3149C28.4449 15.3949 28.4549 15.4149 28.4449 15.4149C28.3849 15.4299 28.3549 15.3849 28.3449 15.3549C28.3299 15.3149 28.3699 15.2949 28.2349 15.3149C28.1749 15.3199 28.1349 15.3199 28.1349 15.3449H28.1299ZM29.0049 15.1849C29.1049 15.1999 29.0999 15.4249 28.9749 15.5299C28.8349 15.6399 28.7049 15.5949 28.7049 15.5949C28.6349 15.5699 28.6449 15.5749 28.6999 15.4949C28.7499 15.4199 28.7749 15.3149 28.7449 15.2449C28.7349 15.2199 28.7599 15.1999 28.7949 15.1949C28.7949 15.1949 28.8949 15.1749 29.0049 15.1849Z" fill="#FFC221"/>
<path d="M29.0948 15.205C29.0948 15.205 29.1748 15.305 29.0748 15.48C29.0748 15.48 29.0348 15.53 29.1298 15.525C29.2198 15.515 29.4348 15.415 29.4148 15.285C29.4148 15.285 29.4048 15.255 29.3498 15.255C29.2948 15.255 29.3398 15.23 29.3648 15.215C29.3848 15.215 29.4598 15.185 29.2698 15.065C29.2698 15.065 29.2398 15.035 29.2048 15.05C29.1748 15.06 29.0748 15.1 29.0748 15.16C29.0748 15.185 29.0948 15.21 29.0948 15.21V15.205Z" fill="#FFC221"/>
<path d="M29.2998 15.045C29.2998 15.045 29.4498 15.15 29.4498 15.185C29.4498 15.215 29.4348 15.26 29.4748 15.25C29.5148 15.25 29.6748 15.215 29.6248 15.11C29.5848 15.005 29.5398 14.96 29.4648 14.94C29.3898 14.91 29.3698 14.945 29.3048 14.995C29.3048 14.995 29.2598 15.025 29.2998 15.045ZM28.4948 15.195C28.4948 15.195 28.5198 15.12 28.3848 15.085C28.3848 15.085 28.4398 15.035 28.5548 15.065C28.6648 15.085 28.6548 15.165 28.6548 15.17C28.6548 15.17 28.5648 15.17 28.4948 15.195ZM28.7848 15.175C28.7848 15.175 28.9348 15.15 29.0098 15.155C29.0098 15.155 28.9298 14.99 28.7248 15.04C28.7248 15.04 28.7998 15.13 28.7848 15.175ZM29.0498 15.135C29.0498 15.135 29.0498 15.08 29.1798 15.03C29.1798 15.03 29.1198 14.97 29.0298 14.98C28.9298 14.98 28.9048 15.015 28.9048 15.015C28.9048 15.015 29.0198 15.055 29.0498 15.135ZM29.0998 14.955C29.0998 14.955 29.1848 14.975 29.2348 15.02C29.2348 15.02 29.3098 14.935 29.3748 14.92C29.3748 14.92 29.2498 14.85 29.0998 14.955Z" fill="#FFC221"/>
<path d="M24.8198 14.545C24.8198 14.545 25.1798 14.235 25.3798 14.275C25.5798 14.315 25.4798 14.285 25.6998 14.25C25.9198 14.22 26.1498 14.195 26.2398 14.205C26.2398 14.205 25.9698 14.015 25.4948 14.02C25.4948 14.02 25.1648 14.135 24.9298 14.285C24.9298 14.285 24.4848 14.04 24.0298 14.185C24.0298 14.185 24.5248 14.37 24.8198 14.545Z" fill="#5A3719"/>
<path d="M28.64 15.0699L28.7 15.0599C28.7 15.0599 28.8 15.1849 28.73 15.1849C28.67 15.1849 28.69 15.1699 28.68 15.1349C28.6745 15.1094 28.6603 15.0864 28.64 15.0699ZM28.19 15.0799C28.19 15.0799 28.15 15.1299 28.22 15.1199C28.305 15.1049 28.29 15.1199 28.375 15.0549C28.375 15.0549 28.435 14.9999 28.535 15.0349C28.535 15.0349 28.625 15.0649 28.695 15.0299C28.765 14.9899 28.78 14.9949 28.82 14.9999C28.86 14.9999 28.86 15.0099 28.905 14.9699C28.955 14.9349 29.045 14.9649 29.1 14.9199C29.155 14.8699 29.225 14.9099 29.1 14.8199C29.1 14.8199 29.075 14.7949 29.075 14.7699C29.075 14.7699 29.125 14.7899 29.165 14.8199C29.205 14.8599 29.265 14.8449 29.275 14.8399C29.275 14.8399 29.285 14.7249 29.39 14.6249C29.505 14.5249 29.505 14.5149 29.44 14.5149C29.375 14.5149 29.265 14.4849 29.225 14.5149C29.185 14.5449 28.865 14.7549 28.675 14.7899C28.485 14.8249 28.31 14.8799 28.19 15.0799ZM23.125 13.9099C23.125 13.9099 23.71 14.0599 23.84 14.1199C23.84 14.1199 23.87 14.0249 23.605 13.9499C23.605 13.9499 24.25 13.9299 24.925 14.2399C24.925 14.2399 25.255 13.9599 26.31 14.0449C26.31 14.0449 26.31 13.9549 26.32 13.8799C26.32 13.8799 25.58 13.8599 24.9 13.4449C24.9 13.4449 24.285 13.7449 23.125 13.9099ZM26.36 14.1899C26.325 13.5999 26.55 13.5399 26.55 13.5399C26.55 13.5399 26.655 13.5399 26.77 13.5649C26.77 13.5649 26.59 13.7799 26.64 14.2049C26.64 14.2049 26.66 14.2699 26.505 14.2699C26.35 14.2699 26.36 14.1949 26.36 14.1949V14.1899Z" fill="#FFC221"/>
<path d="M26.5198 14.585C26.5198 14.585 26.4048 14.47 26.3948 14.34C26.3948 14.34 26.3948 14.31 26.5048 14.31C26.6198 14.31 26.6298 14.3 26.6548 14.365C26.6848 14.43 26.7548 14.565 26.7698 14.58L26.5198 14.585Z" fill="#5A3719"/>
<path d="M26.7549 14.2849C26.7456 14.2103 26.7423 14.1351 26.7449 14.0599C26.7499 13.7299 26.8049 13.7599 26.8299 13.7999H26.9449C26.9449 13.7999 26.8599 13.4299 26.7599 13.6499C26.6865 13.8128 26.6605 13.993 26.6849 14.1699C26.6899 14.2699 26.6999 14.3349 26.7149 14.3699L26.7549 14.2849Z" fill="#FFC221"/>
<path d="M28.04 14.2849C28.04 14.2849 28.255 14.3249 27.925 14.3999C27.925 14.3999 27.94 14.8099 28.335 14.5249C28.335 14.5249 28.57 14.3749 28.735 14.3149C28.735 14.3149 28.815 14.2849 28.805 14.2249C28.805 14.2249 28.815 14.1499 28.73 14.1699C28.73 14.1699 28.66 14.1699 28.615 14.1549C28.615 14.1549 28.565 14.0949 28.535 14.1149C28.505 14.1399 28.43 14.1249 28.49 14.1999C28.55 14.2699 28.565 14.2499 28.59 14.2299C28.62 14.2099 28.745 14.1599 28.635 14.2649C28.525 14.3699 28.425 14.2049 28.385 14.1749L28.04 14.2849ZM26.94 14.3349H26.84C26.84 14.3349 26.79 14.4149 26.755 14.2849L26.72 14.3649C26.72 14.3649 26.835 14.8049 26.94 14.3349Z" fill="#5A3719"/>
<path d="M26.7999 13.8299C26.7999 13.8299 26.7499 14.1199 26.8149 14.2899L27.8699 14.3149C27.8699 14.3149 27.8599 14.1149 27.8699 13.8299H27.7299C27.7299 13.8299 27.7049 14.0599 27.7299 14.2049H27.7049C27.7049 14.2049 27.6849 14.0049 27.7049 13.8299H27.5799C27.5799 13.8299 27.5599 14.0449 27.5799 14.2049H27.5549C27.5549 14.2049 27.5349 14.0199 27.5549 13.8299H27.4299C27.4299 13.8299 27.4049 14.0249 27.4299 14.2049H27.3999C27.3999 14.2049 27.3749 14.0099 27.3999 13.8299H27.2649C27.2649 13.8299 27.2349 14.0099 27.2649 14.2049H27.2399C27.2399 14.2049 27.2099 14.0249 27.2399 13.8299H27.1049C27.1049 13.8299 27.0749 14.0399 27.1049 14.2049H27.0749C27.0749 14.2049 27.0549 14.0049 27.0799 13.8299H26.9549C26.9549 13.8299 26.9199 14.0049 26.9549 14.2049H26.9199C26.9199 14.2049 26.8999 14.0549 26.9299 13.8299H26.7999ZM27.9149 14.3499C27.9149 14.3499 27.8899 13.8399 27.9849 13.6999C28.0849 13.5699 28.1099 13.5999 28.2749 13.6999C28.4449 13.8099 28.6599 13.9249 28.6999 13.9399C28.7299 13.9549 28.7799 13.9649 28.7799 14.0599C28.7799 14.1549 28.7949 14.1799 28.6499 14.0599C28.6107 14.022 28.5649 13.9915 28.5149 13.9699C28.3849 13.9249 28.5449 13.9949 28.5899 14.0649C28.6299 14.1149 28.6649 14.1149 28.5599 14.1399C28.3427 14.2032 28.1276 14.2733 27.9149 14.3499Z" fill="#FFC221"/>
<path d="M28.2798 13.9799C28.2798 13.9799 28.2048 13.8899 28.3048 13.8649C28.4048 13.8449 28.4098 14.0149 28.4298 14.1199C28.4448 14.2299 28.3048 14.0149 28.2898 13.9849L28.2798 13.9799ZM28.1448 14.4299C28.1448 14.4299 28.0298 14.4749 28.1098 14.5099C28.1798 14.5449 28.3848 14.3749 28.3198 14.3849C28.2398 14.3999 28.1448 14.4349 28.1448 14.4349V14.4299ZM28.2948 14.2799C28.2948 14.2799 28.3948 14.2649 28.3748 14.3049C28.3598 14.3549 28.3248 14.3249 28.3048 14.3149C28.2898 14.3049 28.2248 14.2799 28.2998 14.2749L28.2948 14.2799Z" fill="black"/>
<path d="M28.8298 14.14C28.8298 14.14 28.8598 14.34 29.0298 14.39C29.0298 14.39 29.1298 14.41 29.1048 14.325C29.1048 14.325 29.0898 14.25 29.0748 14.225C29.0598 14.19 28.9948 14.175 28.9848 14.17C28.9748 14.17 28.9698 14.145 29.0148 14.16C29.0648 14.175 29.0648 14.18 29.0648 14.145C29.0648 14.11 29.0348 14.125 28.9948 14.105C28.9748 14.095 28.9948 14.085 29.0098 14.09C29.0298 14.09 29.0748 14.105 29.0748 14.04C29.0748 14.04 29.0798 14 29.0298 14C28.9748 14 28.9798 13.97 28.9948 13.965C29.0098 13.965 29.0698 14.005 29.0898 13.935C29.1048 13.87 29.0098 13.91 29.0198 13.875C29.0348 13.835 29.1048 13.89 29.1048 13.85C29.1148 13.81 29.1698 13.795 29.0748 13.78C29.0298 13.775 29.0748 13.75 29.1248 13.76C29.1748 13.765 29.2048 13.7 29.2398 13.68C29.2698 13.655 29.4498 13.55 29.2098 13.585C28.9748 13.62 28.9048 13.735 28.8948 13.76C28.8352 13.8771 28.8126 14.0096 28.8298 14.14Z" fill="#FFC221"/>
<path d="M29.38 14.2899C29.415 14.2899 29.44 14.2899 29.45 14.3149C29.49 14.3949 29.4 14.3649 29.35 14.4249C29.3 14.4849 29.3 14.4749 29.23 14.4499C29.16 14.4299 29.13 14.3249 29.13 14.3249C29.13 14.2899 29.155 14.2849 29.19 14.2949C29.19 14.2949 29.305 14.3049 29.385 14.2949L29.38 14.2899ZM29.13 14.2499C29.13 14.2499 29.13 14.2699 29.175 14.2749C29.21 14.2749 29.325 14.2899 29.4 14.2699C29.4 14.2699 29.42 14.2649 29.41 14.2199C29.41 14.2199 29.41 14.1849 29.35 14.1999C29.285 14.2099 29.2 14.1999 29.165 14.1949C29.135 14.1849 29.115 14.1949 29.125 14.2449L29.13 14.2499ZM29.12 14.1049C29.12 14.1049 29.115 14.1699 29.175 14.1749C29.24 14.1849 29.32 14.1849 29.35 14.1749C29.375 14.1749 29.42 14.1649 29.425 14.1249C29.425 14.0899 29.435 14.0649 29.36 14.0849C29.285 14.1049 29.19 14.0849 29.18 14.0849C29.175 14.0849 29.12 14.0699 29.12 14.1049ZM29.145 13.9799C29.145 13.9799 29.13 14.0099 29.135 14.0399C29.135 14.0649 29.18 14.0749 29.26 14.0749C29.34 14.0749 29.41 14.0649 29.42 14.0399C29.425 14.0049 29.445 13.9749 29.385 13.9899C29.32 13.9949 29.235 13.9999 29.205 13.9899C29.175 13.9749 29.15 13.9699 29.145 13.9799Z" fill="#FFC221"/>
<path d="M32.1349 14.3C32.1349 14.3 32.1349 14.35 32.1799 14.41L29.9199 14.345C29.9199 14.345 29.9499 14.325 29.9599 14.235L32.1349 14.3Z" fill="#5A3719"/>
<path d="M29.1649 13.8899C29.1649 13.8899 29.1449 13.9449 29.1849 13.9599C29.2199 13.9699 29.2949 13.9799 29.3849 13.9649C29.3849 13.9649 29.4349 13.9649 29.4499 13.9149C29.4649 13.8649 29.4649 13.8949 29.3349 13.8749C29.3349 13.8749 29.2949 13.8599 29.4099 13.8599C29.4099 13.8599 29.4799 13.8599 29.4849 13.8499C29.4999 13.8399 29.5849 13.7649 29.4699 13.7749C29.3549 13.7749 29.4149 13.7499 29.4699 13.7499C29.5299 13.7499 29.5499 13.7649 29.5699 13.7499C29.5899 13.7349 29.5699 13.7399 29.5349 13.7099C29.4999 13.6799 29.5299 13.6849 29.5499 13.7049C29.5749 13.7199 29.5899 13.7299 29.6149 13.7049C29.6399 13.6799 29.5949 13.6449 29.6149 13.6549C29.6299 13.6549 29.6449 13.6949 29.7149 13.6549C29.7949 13.6199 29.8899 13.6399 29.9149 13.6549C29.9449 13.6799 30.0249 13.7049 30.0699 13.6549C30.1199 13.6149 30.0149 13.5699 30.0549 13.5649C30.1049 13.5599 30.1349 13.5749 30.1499 13.5399C30.1699 13.4999 30.0799 13.4699 30.1649 13.4499C30.2449 13.4249 30.1749 13.1999 30.1499 13.1749C30.1499 13.1749 30.0549 13.2299 29.9599 13.3899C29.8549 13.5549 29.7949 13.6499 29.6599 13.5999C29.4649 13.5249 29.3599 13.6299 29.3349 13.6499C29.2849 13.6799 29.4349 13.6899 29.3449 13.6949C29.2599 13.6949 29.2599 13.7049 29.2549 13.7149C29.2449 13.7299 29.2549 13.7399 29.2699 13.7449C29.2849 13.7449 29.3149 13.7749 29.2649 13.7749C29.2149 13.7749 29.1749 13.7599 29.1899 13.8199C29.1899 13.8199 29.1899 13.8299 29.2199 13.8349C29.2499 13.8349 29.2599 13.8749 29.2049 13.8749C29.1649 13.8749 29.1649 13.8849 29.1649 13.8899ZM29.3699 14.4549C29.3699 14.4549 29.3349 14.4799 29.3849 14.4849C29.4449 14.4849 29.4699 14.4999 29.4899 14.4699C29.5099 14.4399 29.5799 14.4499 29.5299 14.4099C29.4799 14.3699 29.4499 14.3949 29.3699 14.4599V14.4549Z" fill="#FFC221"/>
<path d="M29.6048 13.7749C29.6048 13.7749 29.7948 13.5999 29.9498 13.7149C30.1098 13.8399 30.1198 13.8549 30.1248 13.8599C30.1248 13.8599 30.1448 13.8749 30.1048 13.9099C30.0598 13.9499 30.1048 13.9499 30.1498 13.9249C30.1948 13.8999 30.1998 13.9249 30.2198 13.9499C30.2448 13.9749 30.2748 13.9899 30.2048 13.9899H29.9748C29.9748 13.9899 29.8698 13.9999 29.9248 13.9549C29.9748 13.9099 29.9648 13.8599 29.9398 13.8549C29.9098 13.8549 29.9398 13.8849 29.9248 13.9049C29.9048 13.9249 29.8698 13.9399 29.8298 13.9399C29.7898 13.9399 29.7598 13.9699 29.8198 13.9899C29.8748 14.0099 29.8098 14.0249 29.7798 14.0249C29.7498 14.0249 29.6048 14.0349 29.7548 14.0549C29.9048 14.0699 29.7398 14.0699 29.8548 14.1299C29.9748 14.1999 29.8848 14.3449 29.8398 14.3599C29.8398 14.3599 29.7898 14.3849 29.8498 14.3799C29.9148 14.3699 29.9498 14.3649 29.8998 14.3999C29.8598 14.4299 29.7698 14.5449 29.6498 14.4599C29.6498 14.4599 29.5898 14.4299 29.6898 14.4249C29.7898 14.4249 29.6098 14.3999 29.5748 14.3749C29.5498 14.3599 29.4248 14.2399 29.4998 14.2499C29.5798 14.2699 29.5498 14.2249 29.5048 14.2099C29.4648 14.1949 29.4548 14.1299 29.5048 14.1399C29.5548 14.1549 29.6048 14.1849 29.6548 14.1799C29.6898 14.1799 29.6798 14.1649 29.5948 14.1399C29.5098 14.1099 29.4748 14.1049 29.4948 14.0399C29.5148 13.9649 29.6098 14.0649 29.5848 14.0099C29.5648 13.9599 29.4848 13.9849 29.5248 13.9149C29.5648 13.8449 29.5748 13.8749 29.5998 13.8849C29.6148 13.8899 29.6498 13.8849 29.5948 13.8449C29.5548 13.8199 29.5948 13.7799 29.6048 13.7749Z" fill="#FFC221"/>
<path d="M29.74 13.8249C29.74 13.8249 29.74 13.7999 29.78 13.8049C29.81 13.8049 29.8 13.7949 29.81 13.7849C29.82 13.7849 29.905 13.8099 29.825 13.8349C29.795 13.8499 29.745 13.8449 29.745 13.8249H29.74Z" fill="black"/>
<path d="M29.9249 14.0249C29.9249 14.0249 29.8599 14.0549 29.9149 14.1249C29.9649 14.1749 29.9649 14.1999 29.9649 14.2349C29.9599 14.2749 32.1349 14.2999 32.1349 14.2999C32.1349 14.2999 32.1349 14.1549 32.2249 14.0749L29.9249 14.0249Z" fill="#FFC221"/>
<path d="M32.1699 14.26C32.1699 14.26 32.1799 14.14 32.2499 14.105C32.2849 14.08 32.3299 14.09 32.3499 14.185C32.3799 14.32 32.2649 14.44 32.2149 14.385C32.1649 14.335 32.1749 14.26 32.1749 14.26H32.1699Z" fill="#5A3719"/>
<path d="M29.6749 14.7699C29.6749 14.7699 29.8199 14.6449 29.8449 14.5899C29.8449 14.5899 30.2349 14.8699 30.2099 14.6099L30.2199 14.4799C30.2199 14.4799 30.3649 14.4949 30.3849 14.3799L30.0199 14.3649C30.0199 14.3649 29.9799 14.3599 29.9199 14.4199C29.8699 14.4799 29.7499 14.5449 29.6449 14.4899C29.6449 14.4899 29.5949 14.4499 29.5499 14.4899C29.4999 14.5149 29.4999 14.5249 29.5399 14.5649C29.5799 14.6049 29.6599 14.7099 29.6749 14.7649V14.7699ZM30.5149 13.9999L30.2999 13.9899C30.2999 13.9899 30.2249 13.8799 30.0699 13.7599C30.0699 13.7599 30.0249 13.7399 30.1099 13.6699C30.1999 13.5999 30.2249 13.5299 30.2249 13.4949C30.2249 13.4649 30.2249 13.4099 30.2549 13.4449C30.2849 13.4849 30.5049 13.6899 30.5449 13.6299C30.5749 13.5699 30.5799 13.5449 30.5799 13.5249C30.5899 13.5049 30.5949 13.4499 30.6299 13.5099C30.6599 13.5649 30.6799 13.5499 30.6849 13.6999C30.6849 13.6999 30.6849 13.8499 30.7099 13.8999C30.7099 13.8999 30.4299 13.8149 30.5199 13.9999H30.5149ZM29.5849 13.5399C29.5849 13.5399 29.7499 13.6399 29.8349 13.5099C29.9099 13.3849 29.9649 13.3699 29.9049 13.2449C29.8449 13.1299 29.9049 13.0749 29.9499 13.0249C29.9999 12.9749 30.0399 12.9849 30.0399 12.7949C30.0499 12.5999 30.1799 12.5449 30.2399 12.4799C30.2999 12.4199 30.4499 12.3299 30.2199 12.2949C29.9999 12.2549 29.5499 12.1449 29.4349 11.9699C29.3199 11.7949 29.2699 11.8949 29.2699 11.9049C29.2699 11.9149 29.2299 12.0399 29.3449 12.2699C29.4599 12.4999 29.5549 12.6499 29.6699 12.7199C29.7799 12.7949 29.8799 12.8349 29.8199 12.9899C29.7599 13.1449 29.6699 13.4199 29.5849 13.5399Z" fill="#7B3C20"/>
<path d="M30.1899 13.05C30.1899 13.05 30.2199 13.45 30.5049 13.59C30.5049 13.59 30.5699 13.44 30.5449 13.285C30.5449 13.285 30.6399 13.29 30.6649 13.335C30.6649 13.335 30.6649 13.22 30.5349 13.175C30.3999 13.14 30.4649 12.875 30.5149 12.85C30.5599 12.82 30.5449 12.765 30.5149 12.72C30.4799 12.67 30.4749 12.605 30.5849 12.635C30.6999 12.665 30.6849 12.605 30.6099 12.55C30.5449 12.495 30.5449 12.425 30.6449 12.425C30.7449 12.425 30.8949 12.33 30.8049 12.305C30.7049 12.275 30.6799 12.24 30.8049 12.205C30.9399 12.165 31.0049 12.12 30.9049 12.105C30.8049 12.095 30.7399 12.06 30.8349 12.045C30.9299 12.03 30.8199 11.93 30.7099 11.93C30.5949 11.92 30.3599 11.965 30.5449 11.815C30.7349 11.665 30.2749 11.775 30.4649 11.675C30.6549 11.575 30.3999 11.62 30.3649 11.62C30.3299 11.62 30.3299 11.62 30.3449 11.57C30.3549 11.52 30.3199 11.49 30.2599 11.525C30.2099 11.555 30.2099 11.555 30.2099 11.49C30.2099 11.415 30.1449 11.47 30.1049 11.49C30.0599 11.505 29.9549 11.585 29.9099 11.54C29.8749 11.495 29.8499 11.455 29.7199 11.53C29.5899 11.605 29.6199 11.54 29.6199 11.505C29.6199 11.47 29.6699 11.335 29.4999 11.48C29.3299 11.625 29.4649 11.33 29.3249 11.43C29.1899 11.53 29.1749 11.55 29.1499 11.505C29.1249 11.455 29.0999 11.42 28.9499 11.52C28.7949 11.615 28.9099 11.455 28.9249 11.42C28.9499 11.39 29.0149 11.17 28.8799 11.34C28.8799 11.34 28.8149 11.46 28.6699 11.245C28.6699 11.245 28.5199 11.46 28.4749 11.365C28.4349 11.265 28.3999 11.265 28.3449 11.325C28.2949 11.385 28.3349 11.32 28.3099 11.265C28.2899 11.215 28.2749 11.12 28.0199 11.305C27.7649 11.495 28.1099 11.355 27.9149 11.44C27.7199 11.525 27.2399 11.79 27.6749 11.735C28.1099 11.67 27.4649 11.9 27.6149 11.945C27.7649 11.985 27.7149 12.12 28.2849 11.96C28.8449 11.81 28.7549 11.94 29.0449 11.81C29.3349 11.69 28.9749 11.855 29.3649 11.85C29.7499 11.84 29.4299 11.85 29.5049 11.93C29.5799 12.01 29.9049 12.195 30.2099 12.23C30.5149 12.26 30.5949 12.145 30.5049 12.28C30.4149 12.41 30.3849 12.46 30.3349 12.51C30.2849 12.55 30.1349 12.66 30.1349 12.84C30.1349 13.025 29.8949 13.055 29.9849 13.255L30.1899 13.055V13.05Z" fill="#5A3719"/>
<path d="M30.695 13.4949C30.695 13.4949 30.625 13.4449 30.625 13.3549C30.625 13.3549 30.675 13.3649 30.695 13.3949C30.695 13.3949 30.87 13.1949 30.655 13.1249C30.45 13.0549 30.555 12.8599 30.625 12.8599C30.695 12.8599 30.71 12.8449 30.645 12.7599C30.585 12.6849 30.595 12.6799 30.71 12.6599C30.825 12.6399 30.815 12.6099 30.76 12.5849C30.7242 12.5636 30.6921 12.5365 30.665 12.5049C30.665 12.5049 31.005 12.3599 30.895 12.2899C30.785 12.2249 30.895 12.2399 30.995 12.1749C31.095 12.1049 31.105 12.0899 31.12 12.0599C31.12 12.0599 31.02 12.0749 30.95 12.0599C30.95 12.0599 31.035 12.0149 30.95 11.9449C30.865 11.8749 30.835 11.8149 30.7 11.8449C30.565 11.8799 30.61 11.8349 30.66 11.7799C30.71 11.7249 30.69 11.6949 30.595 11.6799C30.595 11.6799 30.605 11.6199 30.68 11.5549C30.68 11.5549 30.495 11.5649 30.43 11.5349C30.43 11.5349 30.51 11.4849 30.51 11.4199C30.51 11.4199 30.41 11.4549 30.285 11.4449C30.285 11.4449 30.36 11.3799 30.36 11.3249C30.36 11.3249 30.14 11.3749 30.04 11.4499C30.04 11.4499 30.015 11.4499 30 11.4199C29.98 11.3999 29.97 11.3699 29.725 11.4499C29.725 11.4499 29.75 11.3399 29.81 11.2999C29.87 11.2599 29.86 11.1699 29.485 11.4049C29.485 11.4049 29.435 11.3749 29.39 11.2599C29.39 11.2599 29.305 11.3749 29.245 11.4149C29.245 11.4149 29.195 11.4399 29.195 11.3649C29.205 11.2899 29.16 11.3399 29.125 11.3649C29.085 11.3849 29.06 11.4399 29.075 11.2899C29.09 11.1399 29.025 11.1099 29.025 11.1099C29.025 11.1099 28.91 11.2749 28.84 11.2949C28.84 11.2949 28.715 11.1749 28.67 11.0949C28.63 11.0149 28.63 10.9849 28.585 11.1249C28.54 11.2599 28.485 11.2749 28.485 11.2749C28.485 11.2749 28.41 11.2099 28.405 11.1749C28.405 11.1749 28.39 11.2099 28.365 11.2249C28.365 11.2249 28.3 11.1499 28.305 11.0399C28.305 11.0399 27.895 11.2649 27.845 11.3999C27.845 11.3999 27.46 11.3749 27.305 11.4049C27.305 11.4049 27.34 11.2849 27.44 11.2199C27.44 11.2199 27.34 11.2099 27.34 11.1049C27.34 11.1049 27.42 11.1149 27.47 11.1049C27.52 11.0949 27.4 10.9499 27.525 10.9449C27.65 10.9399 27.735 11.0049 27.675 10.8349C27.625 10.6699 27.645 10.6699 27.645 10.6699C27.645 10.6699 27.865 10.7999 27.9 10.7649C27.94 10.7349 27.875 10.6649 28.07 10.6949C28.265 10.7299 28.21 10.6199 28.29 10.6099C28.365 10.6099 28.405 10.6599 28.355 10.3049C28.305 9.94991 28.595 10.4799 28.4 9.94491C28.4 9.94491 28.35 9.77991 28.235 9.70991C28.235 9.70991 28.205 9.82491 28.075 9.72491C27.945 9.62491 27.685 9.58491 27.795 9.50491C27.905 9.41991 27.955 9.30991 27.925 9.24491C27.925 9.24491 27.795 9.37491 27.575 9.27991C27.395 9.20491 27.355 9.34491 27.175 9.30491C27.175 9.30491 27.175 9.25491 27.33 9.13491C27.48 9.01991 27.24 9.17491 27.15 9.19991C27.055 9.21991 27.03 9.19991 27.225 9.04491C27.425 8.89491 27.825 8.61991 27.775 8.39491C27.775 8.39491 27.865 8.50991 28.11 8.42491C28.36 8.33991 28.54 8.30991 28.61 8.17491C28.6983 8.0625 28.8068 7.96754 28.93 7.89491C28.985 7.86991 29.05 7.84491 28.975 7.96991C28.895 8.08991 28.775 8.29991 28.435 8.43991C28.095 8.57991 27.96 8.67991 27.9 8.75491C27.84 8.82991 27.53 8.99491 27.735 8.96991C27.935 8.93491 28.28 8.96991 28.115 8.91991C27.955 8.87491 27.77 8.94991 27.92 8.81491C28.07 8.67991 28.095 8.63491 28.315 8.54491C28.535 8.44991 28.775 8.23991 28.75 8.46491C28.725 8.68491 28.32 8.91991 28.22 8.99491C28.12 9.06491 28.16 9.05491 28.16 9.08491C28.16 9.11491 28.14 9.17491 28.1 9.19991C28.06 9.22991 28.075 9.25991 28.085 9.31991C28.095 9.38491 28.075 9.40991 28.105 9.41991C28.135 9.42491 28.165 9.42991 28.175 9.47491C28.185 9.52491 28.205 9.52491 28.265 9.52491C28.32 9.51491 28.365 9.52491 28.365 9.55491C28.365 9.58991 28.425 9.63991 28.43 9.53491C28.435 9.42491 28.48 9.40991 28.37 9.45991C28.26 9.50491 28.24 9.48991 28.24 9.43991C28.24 9.38991 28.23 9.39991 28.19 9.39491C28.14 9.39491 28.125 9.32991 28.205 9.28491C28.285 9.24491 28.285 9.28491 28.385 9.20491C28.485 9.11991 28.485 9.10491 28.5 9.05491C28.515 9.01991 28.355 9.17491 28.28 9.20491C28.205 9.24491 28.23 9.17991 28.24 9.09991C28.255 9.01491 28.44 8.89991 28.525 8.89991C28.615 8.89991 28.805 8.94991 28.725 9.06491C28.64 9.17991 28.405 9.32491 28.5 9.33491C28.605 9.34491 28.62 9.30491 28.68 9.35491C28.74 9.40491 28.68 9.51491 28.66 9.57491C28.6331 9.6271 28.5956 9.67309 28.55 9.70991C28.55 9.70991 28.44 9.51991 28.445 9.66991C28.445 9.82491 28.42 9.87991 28.445 9.88491C28.47 9.88991 28.585 9.96991 28.625 9.96991C28.665 9.96991 28.42 10.0849 28.525 10.0949C28.625 10.0999 28.79 10.0449 28.845 9.94491C28.845 9.94491 28.635 9.89491 28.55 9.81491C28.55 9.81491 28.795 9.75491 28.725 9.52491C28.725 9.52491 28.97 9.58991 28.86 9.69991C28.76 9.80491 28.695 9.78991 28.785 9.81991C28.88 9.84991 28.92 9.87991 28.92 9.87991C28.92 9.87991 28.985 9.90991 28.945 9.95991C28.91 10.0099 28.91 10.0899 28.945 10.0849C28.97 10.0849 29.075 10.0349 28.99 9.98491C28.9 9.93491 29.085 9.94491 29.01 9.89991C28.93 9.84991 28.91 9.84491 28.89 9.81991C28.865 9.80491 29.875 9.20991 29.365 9.42991C29.365 9.42991 29.47 9.19991 29.62 9.19991C29.77 9.19991 29.78 9.31491 29.695 9.40991C29.61 9.49491 29.555 9.63991 29.36 9.66991C29.36 9.66991 29.64 9.80491 29.31 10.0299C29.31 10.0299 29.235 10.0649 29.26 10.0899C29.285 10.1149 29.485 10.0049 29.51 9.93991C29.5238 9.90622 29.5442 9.87561 29.5699 9.84986C29.5957 9.82411 29.6263 9.80373 29.66 9.78991C29.8762 9.66802 30.0664 9.50495 30.22 9.30991C30.335 9.11491 30.36 9.10991 30.58 8.93491C30.8 8.75991 30.76 8.79491 30.79 8.75491C30.815 8.70991 30.825 8.63991 30.925 8.58491C31.025 8.52491 31.415 8.31491 31.54 8.22491C31.66 8.13491 31.91 7.97491 32.02 7.83491C32.125 7.69991 32.42 7.52491 32.49 7.55491C32.56 7.58991 32.48 7.69491 32.315 7.82491C32.14 7.94991 31.715 8.28991 31.65 8.34491C31.4804 8.48161 31.2917 8.59279 31.09 8.67491C30.955 8.68991 30.97 8.73991 30.89 8.82491C30.81 8.90991 30.625 9.09491 30.565 9.14491C30.5 9.19491 30.35 9.29491 30.345 9.36991C30.335 9.44491 30.37 9.44991 30.25 9.55991C30.0722 9.7229 29.8718 9.85932 29.655 9.96491C29.655 9.96491 29.88 10.0449 29.745 10.1949C29.615 10.3449 29.62 10.3249 29.615 10.3349C29.615 10.3349 29.95 10.2849 29.715 10.5499C29.715 10.5499 29.665 10.6249 29.77 10.5499C29.885 10.4549 29.84 10.3449 29.82 10.3249C29.82 10.3249 30.005 10.2099 30.215 10.2099C30.42 10.2099 30.415 10.1949 30.225 10.1399C30.225 10.1399 30.36 9.97991 30.475 10.0599C30.585 10.1349 30.545 10.1849 30.43 10.2499C30.31 10.3099 30.14 10.3349 30.005 10.4099C30.005 10.4099 30.255 10.4599 30.385 10.3549C30.515 10.2549 30.525 10.3049 30.535 10.3249C30.56 10.3449 30.575 10.3749 30.515 10.4549C30.455 10.5399 30.45 10.5449 30.455 10.5649C30.455 10.5849 30.45 10.6399 30.33 10.6649C30.215 10.6799 30.155 10.7299 30.2 10.7849C30.235 10.8449 30.235 10.9849 30.14 10.9699C30.04 10.9549 30.06 10.8749 30.025 10.8449C29.985 10.8149 29.93 10.7699 29.755 10.8549C29.575 10.9499 29.565 10.8399 29.57 10.7799C29.57 10.7799 29.455 10.8799 29.36 10.7899C29.26 10.6949 29.35 10.6599 29.41 10.6149C29.46 10.5649 29.685 10.4649 29.55 10.4899C29.415 10.5049 29.215 10.5099 29.17 10.4099C29.12 10.3049 29.27 10.3149 29.29 10.3249C29.315 10.3349 29.405 10.4099 29.415 10.3099C29.415 10.2099 29.565 10.1949 29.515 10.1799C29.465 10.1599 29.39 10.2249 29.37 10.2449C29.37 10.2449 29.27 10.0999 29.1 10.1449C28.93 10.1949 29.15 10.1799 29.2 10.1849C29.24 10.1949 29.215 10.2749 29.065 10.4149C28.915 10.5499 28.98 10.5049 29.09 10.5049C29.205 10.5049 29.485 10.5049 29.32 10.6349C29.16 10.7699 29.095 10.8349 29.02 10.8149C28.93 10.7899 29.02 10.7349 29.06 10.7099C29.1 10.6849 29.12 10.6499 29.04 10.6799C28.96 10.7049 28.935 10.7149 28.87 10.6049C28.81 10.4899 28.83 10.5249 28.86 10.4499C28.89 10.3749 28.95 10.2999 28.88 10.3249C28.8 10.3549 28.81 10.3599 28.815 10.2749C28.82 10.1899 28.73 10.1699 28.73 10.1699C28.73 10.1699 28.77 10.2549 28.735 10.3099C28.705 10.3599 28.7 10.3799 28.755 10.3899C28.805 10.4099 28.855 10.4549 28.785 10.5049C28.715 10.5499 28.725 10.5399 28.765 10.5699C28.815 10.6049 28.88 10.6349 28.81 10.7049C28.74 10.7749 28.795 10.7549 28.83 10.7549C28.87 10.7549 28.945 10.7849 28.945 10.8549C28.945 10.9149 28.945 10.9299 29.06 10.8699C29.175 10.8049 29.395 10.8149 29.395 10.8999C29.395 10.9899 29.365 11.0149 29.485 10.9399C29.605 10.8649 29.66 11.0099 29.745 10.9399C29.825 10.8649 29.875 10.7999 29.975 10.9199C30.07 11.0399 30.04 11.0699 29.925 11.1599C29.81 11.2449 29.98 11.1799 30.07 11.1349C30.16 11.0899 30.405 11.0599 30.545 11.1249C30.69 11.1849 30.73 11.1749 30.835 11.1249C30.94 11.0849 30.995 11.0749 31.15 11.1799C31.315 11.2899 31.435 11.3099 31.52 11.3049C31.52 11.3049 31.345 11.3749 31.145 11.3849C30.945 11.3999 30.845 11.4349 30.81 11.4649C30.81 11.4649 30.925 11.5399 30.95 11.6249C30.95 11.6249 31.08 11.6099 31.14 11.6349C31.14 11.6349 31.11 11.7299 31.19 11.7799C31.27 11.8299 31.325 11.8499 31.265 11.9149C31.205 11.9849 31.36 11.9549 31.27 12.0499C31.185 12.1499 31.165 12.1999 31.16 12.2749C31.16 12.3549 31.18 12.3649 31.105 12.3749C31.025 12.3799 31.115 12.4699 31.08 12.5749C31.045 12.6749 30.83 12.6599 30.84 12.9349C30.84 12.9349 30.9 12.7999 31.03 12.6849C31.155 12.5649 31.16 12.5549 31.155 12.4849C31.155 12.4149 31.15 12.4299 31.215 12.3749C31.285 12.3249 31.185 12.2749 31.255 12.1949C31.32 12.1199 31.265 12.1349 31.345 12.0599C31.42 11.9799 31.27 11.9749 31.355 11.8949C31.43 11.8149 31.155 11.7199 31.24 11.6699C31.315 11.6199 31.455 11.5499 30.99 11.5549C30.99 11.5549 31.105 11.3749 31.49 11.4099C31.49 11.4099 31.39 11.4899 31.38 11.5599L31.46 11.5849C31.46 11.5849 31.44 11.6399 31.365 11.6999C31.365 11.6999 31.575 11.8149 31.61 11.8899C31.61 11.8899 31.48 11.9299 31.445 11.9799C31.445 11.9799 31.505 12.0449 31.525 12.1299C31.525 12.1299 31.38 12.1099 31.365 12.2149C31.345 12.3199 31.3 12.2499 31.3 12.3149C31.3 12.3799 31.305 12.3999 31.255 12.4149C31.205 12.4149 31.25 12.4699 31.255 12.5049C31.265 12.5399 31.285 12.6199 31.275 12.6449C31.275 12.6449 31.2 12.6449 31.17 12.6549C31.17 12.6549 31.19 12.8049 31.105 12.8299C31.02 12.8499 31.155 12.8799 31.06 12.8949C30.97 12.9099 30.985 12.9199 30.875 13.1199C30.875 13.1199 30.97 13.0699 31.065 12.9999C31.165 12.9349 31.055 12.9499 31.215 12.7999C31.38 12.6349 31.35 12.6249 31.335 12.5449C31.325 12.4649 31.32 12.3949 31.38 12.3199C31.44 12.2449 31.455 12.1599 31.665 12.1699C31.665 12.1699 31.605 12.0299 31.53 11.9949C31.53 11.9949 31.63 11.9299 31.73 11.9199C31.73 11.9199 31.64 11.8049 31.45 11.6999C31.45 11.6999 31.6 11.5699 31.645 11.5049C31.645 11.5049 31.57 11.5199 31.51 11.5049C31.51 11.5049 31.54 11.4399 31.68 11.3499C31.68 11.3499 31.755 11.4199 31.75 11.4949C31.75 11.4949 31.99 11.3599 32.125 11.3749C32.125 11.3749 32.195 11.5449 31.86 11.8749C31.86 11.8749 32.07 11.8899 32.16 11.8749C32.16 11.8749 32.11 12.0349 31.86 12.1249C31.61 12.2249 31.91 12.3349 31.655 12.3149C31.405 12.2949 31.48 12.3799 31.485 12.5099C31.495 12.6399 31.5 12.7749 31.495 12.8099C31.495 12.8099 31.295 12.7449 31.295 12.9399C31.3 13.1399 31.195 13.1799 31.17 13.1949C31.17 13.1949 31.11 13.1449 31.02 13.1099C31.02 13.1099 30.895 13.3549 30.695 13.4949Z" fill="#5A3719"/>
<path d="M30.3999 11.025C30.3999 11.025 30.4699 11.015 30.5899 11.085C30.7049 11.16 30.8199 11.01 30.6899 10.97C30.5599 10.93 30.6899 10.88 30.8099 10.98C30.9299 11.075 30.9749 11.025 31.0199 10.995C31.0599 10.96 31.1149 10.94 31.0349 10.885C30.9549 10.83 31.0849 10.855 31.1499 10.9C31.2099 10.935 31.1849 10.975 31.1799 10.985C31.1699 10.995 31.1649 11.13 31.2799 11.01C31.3999 10.885 31.4649 10.77 31.4599 10.71C31.4599 10.71 31.5249 10.75 31.5349 10.825C31.5449 10.9 31.6349 10.785 31.6649 10.745C31.6949 10.705 31.7449 10.595 31.7399 10.525C31.7399 10.525 31.8199 10.65 31.9399 10.525C32.0599 10.4 32.0099 10.475 32.1499 10.44C32.3137 10.3961 32.4613 10.3058 32.5749 10.18C32.6749 10.055 32.6799 10.14 32.8049 10.11C32.9299 10.08 33.1899 9.89998 33.2149 9.80498C33.2349 9.70998 33.2299 9.64998 33.1949 9.68498C33.1599 9.71498 33.1749 9.68498 33.1199 9.65498C33.0649 9.61998 32.9849 9.69998 32.9849 9.69998C32.9849 9.69998 33.0649 9.75998 32.9999 9.78498C32.9399 9.81498 32.8849 9.89998 32.7699 9.86498C32.6549 9.83498 32.5299 9.97498 32.5299 9.97498C32.5299 9.97498 32.6299 10.055 32.4949 10.11C32.3599 10.16 32.3799 10.18 32.2999 10.12C32.2999 10.12 32.1549 10.305 32.0699 10.345C32.0699 10.345 32.0349 10.345 32.0099 10.305C32.0099 10.305 31.9099 10.41 31.8699 10.43C31.8699 10.43 31.8049 10.38 31.7549 10.355C31.7549 10.355 31.6399 10.5 31.5449 10.54C31.5449 10.54 31.5149 10.49 31.4549 10.455C31.4549 10.455 31.4249 10.635 31.2249 10.745C31.2249 10.745 31.2349 10.695 31.1349 10.63C31.1349 10.63 30.8849 10.845 30.7899 10.865C30.6899 10.885 30.7799 10.82 30.7899 10.79C30.8099 10.765 30.8699 10.675 30.7499 10.64C30.6299 10.605 30.6499 10.665 30.6249 10.675C30.5949 10.685 30.5949 10.655 30.5149 10.665C30.4349 10.675 30.4499 10.71 30.4149 10.725C30.3749 10.735 30.2349 10.7 30.2449 10.795C30.2499 10.885 30.3199 10.95 30.1949 11.005C30.0699 11.055 30.2449 11.045 30.3999 11.025Z" fill="#7B3C20"/>
<path d="M30.9048 10.7649C30.9048 10.7649 30.9348 10.6399 30.8298 10.5899C30.8298 10.5899 31.4898 10.4849 30.9898 10.2299C30.9898 10.2299 31.5848 10.1149 31.4398 9.92491C31.3048 9.73491 31.1698 9.77491 31.1498 9.77491C31.1298 9.77491 31.2748 9.66991 31.3148 9.68491C31.3498 9.69991 31.8248 9.87991 31.7048 9.71991C31.5848 9.56991 31.5948 9.57491 31.5748 9.52991C31.5748 9.52991 31.7298 9.52991 31.9698 9.75991C31.9698 9.75991 32.0198 9.70991 32.0148 9.61491C32.0148 9.61491 32.1798 9.66491 32.2348 9.71491C32.2348 9.71491 32.2648 9.65491 32.2498 9.62491C32.2498 9.62491 32.3998 9.69991 32.4498 9.78491C32.4498 9.78491 32.5148 9.72491 32.5248 9.65491C32.5248 9.65491 32.6748 9.71991 32.7098 9.76491C32.7098 9.76491 32.7598 9.69991 32.7398 9.61491C32.7398 9.61491 32.9848 9.67991 33.0148 9.53491C33.0148 9.53491 33.2598 9.58491 33.0998 9.67991C32.8998 9.80491 33.0798 9.64991 32.8698 9.79491C32.7098 9.90991 32.6198 10.0399 32.5398 10.0149C32.4848 9.98991 32.4148 10.1599 32.3398 10.0799C32.2648 9.99491 32.2648 10.0299 32.2048 10.1149C32.1636 10.1774 32.1168 10.236 32.0648 10.2899C32.0648 10.2899 32.0248 10.2649 31.9848 10.2299C31.9848 10.2299 31.9448 10.3099 31.8848 10.3699C31.8848 10.3699 31.8348 10.3049 31.7548 10.2699C31.7548 10.2699 31.6398 10.4049 31.5648 10.4549C31.5648 10.4549 31.4948 10.3849 31.4198 10.3599C31.4198 10.3599 31.4098 10.5499 31.2648 10.6449C31.2648 10.6449 31.2348 10.5849 31.1348 10.5449C31.1348 10.5449 31.0648 10.6599 30.9048 10.7599V10.7649Z" fill="#5A3719"/>
<path d="M30.5599 10.475C30.5599 10.475 30.4799 10.535 30.5299 10.6C30.5799 10.67 30.5849 10.59 30.6499 10.585C30.7149 10.575 31.5249 10.435 30.7899 10.22C30.7899 10.22 30.8249 10.19 30.9449 10.18C31.0749 10.165 31.5349 10.045 31.3199 9.88001C31.1049 9.72001 30.9249 9.93501 31.1049 9.74001C31.2549 9.58501 31.1349 9.51001 31.1349 9.51001C31.1349 9.51001 30.7099 9.79001 30.6149 9.84501C30.5249 9.89501 30.3849 9.99501 30.5449 10.045C30.7099 10.095 30.8149 9.87501 30.8299 9.92501C30.8449 9.97501 30.5099 10.165 30.5599 10.245C30.6049 10.335 30.5949 10.41 30.6799 10.39C30.7599 10.375 30.9799 10.43 30.8049 10.425C30.6199 10.42 30.5549 10.475 30.5549 10.475H30.5599Z" fill="#5A3719"/>
<path d="M30.8498 10.0649C30.8498 10.0649 30.7748 10.1199 30.8748 10.0949C30.9748 10.0699 31.1698 10.0249 31.1348 9.97495C31.0948 9.92495 30.9648 9.98495 30.8498 10.0649Z" fill="black"/>
<path d="M32.1499 9.22493C32.1499 9.22493 32.5249 9.21493 32.6749 9.31993C32.8249 9.41993 32.9049 9.48993 32.9499 9.50993C32.9499 9.50993 32.9449 9.64993 32.6999 9.54493C32.6999 9.54493 32.7199 9.61493 32.6899 9.68493C32.6899 9.68493 32.6049 9.62493 32.4999 9.59993C32.4999 9.59993 32.4799 9.64993 32.4499 9.68493C32.4499 9.68493 32.3449 9.57493 32.2199 9.53993C32.2199 9.53993 32.1999 9.59493 32.1799 9.61993C32.1799 9.61993 32.0499 9.53993 31.9499 9.53993C31.9499 9.53993 31.9699 9.62493 31.9499 9.65493C31.9499 9.65493 31.6799 9.43993 31.4349 9.46493C31.4349 9.46493 31.5499 9.63993 31.6249 9.71993C31.6249 9.71993 31.1349 9.68493 31.2249 9.41993C31.2999 9.15493 31.2149 9.21993 31.5349 9.21993L32.1499 9.22493Z" fill="#7B3C20"/>
<path d="M29.8448 9.95495C29.8448 9.95495 29.7898 10.005 29.8448 10.04C29.8998 10.08 30.0948 9.93995 30.1198 9.91995C30.1498 9.89995 30.2198 9.89995 30.1198 9.97495C30.0198 10.05 29.9298 10.125 29.8698 10.205C29.8698 10.205 30.1898 10.115 30.3998 9.93495C30.6148 9.74995 30.3948 9.86995 30.7498 9.69495C31.1148 9.51995 31.3048 9.23995 31.1098 9.26995C30.9198 9.29995 30.7448 9.51995 30.5898 9.60495C30.4398 9.68995 30.3548 9.70495 30.3798 9.65495C30.3998 9.60495 30.5148 9.62495 30.7248 9.45495C30.9298 9.28995 30.8848 9.30495 30.8848 9.24495C30.8848 9.18495 30.8098 9.04495 31.1198 8.87495C31.4298 8.70995 32.3998 8.14995 32.4848 7.94995C32.4848 7.94995 32.1998 7.97995 31.8248 8.25495C31.6191 8.4269 31.3943 8.57454 31.1548 8.69495C31.0548 8.73495 31.0648 8.70495 30.9998 8.78995C30.8382 8.96011 30.6697 9.12358 30.4948 9.27995C30.4298 9.32995 30.4048 9.35995 30.3998 9.46995C30.3998 9.51995 29.9798 9.83495 29.8498 9.95495H29.8448Z" fill="#5A3719"/>
<path d="M31.1299 9.21495C31.1299 9.21495 31.0549 9.24495 30.9799 9.21495C30.9149 9.17995 30.9399 9.03495 31.1049 8.93995C31.3031 8.83187 31.5151 8.75114 31.7349 8.69995C31.7349 8.69995 31.7099 8.88995 31.2299 9.05495C31.2299 9.05495 31.2599 9.15495 31.1299 9.21495Z" fill="#5A3719"/>
<path d="M31.2998 9.08996C31.2998 9.08996 31.3148 9.13996 31.2998 9.17996C31.2998 9.17996 32.1948 9.26496 32.6548 8.71996C32.6548 8.71996 32.0198 8.77996 31.7698 8.93496C31.7698 8.93496 31.9298 8.73496 32.4048 8.56996C32.8798 8.40496 33.0748 8.19996 33.1148 8.08496C33.1148 8.08496 32.5148 8.29996 32.2298 8.29996C32.2298 8.29996 32.1698 8.29996 32.1148 8.32496C32.0598 8.35996 31.6748 8.63496 31.5748 8.68496C31.5748 8.68496 31.7898 8.66496 31.8698 8.59496C31.8698 8.59496 31.7198 8.99496 31.2998 9.09496V9.08996Z" fill="#AA5323"/>
<path d="M29.58 9.60001C29.58 9.60001 29.465 9.68501 29.515 9.72001C29.565 9.76501 29.645 9.77001 29.815 9.62501C29.995 9.47501 30.42 9.11501 30.155 9.10001C30.155 9.10001 29.805 9.08001 29.82 9.29001C29.83 9.50001 29.6 9.59001 29.58 9.60001ZM28.785 9.47501C28.785 9.47501 29.015 9.61001 28.925 9.72001C28.925 9.72001 29.625 9.13001 29.425 9.00001C29.235 8.87001 29.08 9.11501 29.125 9.13501C29.175 9.16501 29.275 9.11501 29.24 9.16501C29.0975 9.27882 28.9471 9.38241 28.79 9.47501H28.785ZM28.605 9.28501C28.605 9.28501 28.755 9.33501 28.765 9.40001C28.77 9.46001 29.225 9.08001 29.105 8.91501C29.05 8.84001 28.805 8.81501 28.785 8.95501C28.775 9.10501 29.015 8.94001 28.935 9.04501C28.825 9.18001 28.64 9.26501 28.605 9.28501ZM30.235 8.96501C30.235 8.96501 30.14 9.03501 30.23 9.08001C30.32 9.11501 30.37 9.05001 30.415 9.01501C30.46 8.97501 30.68 8.81501 30.725 8.71501C30.775 8.61501 30.85 8.58001 30.93 8.53001C31.005 8.48001 31.56 8.20001 31.905 7.89501C32.245 7.59001 32.105 7.67001 32.455 7.47501C32.805 7.28001 33.04 7.10001 33.115 6.88501C33.115 6.88501 32.95 6.93501 32.805 7.03501C32.6295 7.14792 32.4511 7.25629 32.27 7.36001C32.205 7.38501 32.12 7.39001 32.07 7.44001C32.02 7.49001 32.02 7.55501 31.855 7.69001C31.68 7.83501 30.805 8.45501 30.695 8.54001C30.539 8.67879 30.3856 8.82049 30.235 8.96501Z" fill="#5A3719"/>
<path d="M29.5298 9.16999C29.5298 9.16999 29.6298 9.11999 29.8098 9.12999C29.9898 9.13999 30.6998 8.44999 30.9098 8.31499C31.2292 8.09566 31.541 7.86552 31.8448 7.62499C31.9348 7.53499 31.9448 7.44499 32.0248 7.39499C32.0998 7.34499 32.1748 7.34999 32.3448 7.24999C32.5198 7.14999 33.3598 6.64999 33.3098 6.35999C33.3098 6.35999 32.0598 7.10999 31.7748 7.34999C31.3752 7.66155 30.9632 7.95679 30.5398 8.23499C30.3998 8.32999 30.2898 8.48499 30.0448 8.67499C29.8098 8.86999 29.5698 9.03499 29.5298 9.17499V9.16999Z" fill="#AA5323"/>
<path d="M29.2698 8.89993C29.2698 8.89993 29.4998 8.87993 29.5298 8.99493C29.5298 8.99493 30.0298 8.65493 30.1398 8.51493C30.2498 8.37493 30.0998 8.45493 30.3848 8.26993C30.8435 7.96418 31.2937 7.64573 31.7348 7.31493C31.8698 7.19993 32.1248 7.03993 32.3298 6.90493C32.5298 6.76493 33.3248 6.37493 33.2348 6.05493L32.5248 6.52993C32.3898 6.61993 32.3298 6.56993 32.1998 6.67493C32.0698 6.77993 31.7748 6.98993 31.7248 7.05493C31.4953 7.25161 31.2549 7.43524 31.0048 7.60493C30.7848 7.75493 30.2998 8.03493 30.0598 8.24493C29.8002 8.46941 29.5368 8.68945 29.2698 8.90493V8.89993Z" fill="#AA5323"/>
<path d="M28.5498 8.83998C28.5498 8.83998 28.6648 8.83998 28.7048 8.88498C28.7048 8.88498 28.9198 8.68998 29.1498 8.88498C29.1498 8.88498 29.9898 8.30998 30.0748 8.16498C30.1598 8.02498 30.2998 8.01998 30.6248 7.78498C30.9548 7.54498 31.1598 7.43998 31.3748 7.27498C31.5948 7.10498 31.7798 6.90998 31.9348 6.80998C32.0898 6.70998 32.4848 6.44998 32.4248 6.22498C32.4248 6.22498 32.0998 6.40498 31.8948 6.63498C31.6848 6.86498 31.7048 6.66998 31.4898 6.85998C31.2429 7.08733 30.9692 7.28378 30.6748 7.44498C30.3998 7.57998 30.5648 7.56498 30.3648 7.69498C30.1698 7.81998 30.1848 7.79498 30.1148 7.81998C30.0166 7.84311 29.9277 7.8954 29.8598 7.96998C29.7798 8.05498 29.5898 8.16998 29.3798 8.29498C29.0868 8.45039 28.8089 8.63285 28.5498 8.83998Z" fill="#AA5323"/>
<path d="M28.8049 8.39993C28.8049 8.39993 28.7549 8.30493 28.8399 8.23493C28.9199 8.16993 29.0699 7.99493 29.0899 7.88493C29.1149 7.76993 29.0949 7.78993 29.3299 7.69493C30.0065 7.41065 30.6475 7.04818 31.2399 6.61493C31.3299 6.53993 31.5599 6.38493 31.6549 6.30493C31.6549 6.30493 31.6949 6.42993 31.5949 6.51493C31.2515 6.78417 30.8926 7.03293 30.5199 7.25993C30.3535 7.33991 30.1931 7.43181 30.0399 7.53493C29.9449 7.61493 29.9599 7.63493 29.5299 7.84993C29.1049 8.05493 29.0799 8.07993 29.0949 8.09493C29.1099 8.11493 29.3049 8.02993 29.3949 7.97493C29.4849 7.92493 29.8349 7.75993 29.9449 7.67493C30.0562 7.5844 30.1731 7.5009 30.2949 7.42493C30.6015 7.24907 30.9017 7.06229 31.1949 6.86493C31.3699 6.72993 31.4199 6.68993 31.4599 6.71493C31.4949 6.73493 31.5599 6.73493 31.4799 6.81493C31.3999 6.89493 31.1449 7.11493 31.0449 7.17993C30.9449 7.24493 30.6399 7.42993 30.5549 7.46993C30.4699 7.51993 30.4349 7.59493 30.3849 7.62993C30.3399 7.66993 30.1999 7.76493 30.0349 7.80493C29.8699 7.84493 29.8349 7.96993 29.7199 8.04493C29.6049 8.11493 28.8199 8.54493 28.7949 8.55993C28.7949 8.55993 28.8399 8.50993 28.8049 8.39993Z" fill="#AA5323"/>
<path d="M31.5449 6.61991C31.5449 6.61991 31.4999 6.65991 31.5249 6.67991C31.5549 6.70991 31.6649 6.78991 31.8049 6.64991C32.0004 6.4678 32.2093 6.30066 32.4299 6.14991C32.5449 6.07491 32.6099 6.00991 32.6049 5.91491C32.6049 5.91491 32.0349 6.21491 31.5449 6.61991ZM32.3249 6.56991C32.3249 6.56991 32.4099 6.42491 32.6249 6.28491C32.8399 6.14991 33.1649 5.94991 33.1999 5.90491C33.1999 5.90491 33.2799 5.98991 33.1149 6.09491C32.9325 6.20785 32.7525 6.32454 32.5749 6.44491C32.5399 6.47991 32.4749 6.52491 32.3249 6.56991Z" fill="#AA5323"/>
<path d="M27.98 8.14993C27.98 8.14993 27.74 8.27993 27.825 8.35993C27.91 8.43493 28.035 8.40993 28.095 8.38993L28.255 8.33993C28.275 8.33993 28.48 8.27493 28.535 8.17993C28.585 8.07993 28.725 7.96993 28.835 7.88993C28.945 7.81493 28.985 7.72993 28.97 7.67493L27.98 8.14993ZM26.56 9.24993C26.56 9.24993 26.73 9.14993 26.96 9.21493C26.96 9.21493 26.95 9.15993 26.91 9.12993C26.91 9.12993 27.195 9.05493 27.255 8.92993C27.315 8.80493 27.33 8.82993 27.38 8.79993C27.44 8.75993 27.815 8.45993 27.77 8.39493C27.725 8.32993 27.72 8.23993 27.685 8.20993C27.685 8.20993 27.61 8.31493 27.235 8.49493C26.875 8.67493 26.465 8.80493 26.165 9.20493C25.87 9.60493 25.9 9.83493 26.265 9.93993C26.265 9.93993 26.515 9.77993 27.145 9.83493C27.765 9.88993 27.975 10.1249 28.015 10.1649C28.055 10.2099 28.18 10.3649 28.06 10.6199C28.06 10.6199 28.185 10.6749 28.19 10.5549C28.205 10.4399 28.21 10.4649 28.24 10.4799C28.27 10.4999 28.305 10.5049 28.29 10.4099C28.2776 10.2831 28.2384 10.1604 28.175 10.0499C28.12 9.97493 28.185 10.0099 28.22 10.0199C28.255 10.0349 28.385 10.1449 28.31 9.94493C28.235 9.75493 28.21 9.84493 28.21 9.85493C28.21 9.86993 28.19 9.91493 28.02 9.78493C27.8882 9.68507 27.739 9.61048 27.58 9.56493C27.465 9.53493 27.545 9.53493 27.615 9.51493C27.685 9.48493 27.77 9.47493 27.805 9.39493C27.805 9.39493 27.735 9.40993 27.615 9.36493C27.5179 9.3364 27.4155 9.33058 27.3158 9.34792C27.2161 9.36526 27.1218 9.40529 27.04 9.46493C27.04 9.46493 27.1 9.23993 26.915 9.24993C26.735 9.26493 26.605 9.25993 26.415 9.40993C26.415 9.40993 26.4 9.17993 26.585 9.05993C26.77 8.93493 26.745 9.00993 26.845 8.97993C26.945 8.94993 26.96 8.84493 26.915 8.80993C26.915 8.80993 27.155 8.85493 27.555 8.51993C27.555 8.51993 27.34 8.80493 27.08 8.85993C27.08 8.85993 27.035 9.00993 26.795 9.04493C26.555 9.07993 26.565 9.21493 26.565 9.24993H26.56Z" fill="#7B3C20"/>
<path d="M25.8799 10.6349C25.8799 10.6349 25.9899 9.9299 26.6549 9.8799C27.2249 9.8299 27.4099 9.9049 27.5249 9.9449C27.6399 9.9849 27.9249 10.0649 27.8149 10.1549C27.7049 10.2449 27.6399 10.2299 27.6399 10.2299C27.6399 10.2299 27.7649 10.0849 27.6499 10.0649C27.5349 10.0399 27.5299 10.1099 27.5149 10.1649C27.4949 10.2299 27.4899 10.2949 27.4349 10.3449C27.4349 10.3449 27.3749 10.2749 27.2899 10.3349C27.2049 10.3949 27.2799 10.3949 27.3149 10.3849C27.3449 10.3749 27.3899 10.3599 27.3799 10.4099C27.3749 10.4599 27.3299 10.5499 27.1899 10.6199C27.0549 10.6899 27.0599 10.6849 26.8999 10.7149C26.7349 10.7399 26.5849 10.8049 26.3749 10.9799C26.1649 11.1599 25.9399 11.0999 25.8949 10.9049C25.8549 10.7349 25.8749 10.6349 25.8749 10.6349H25.8799Z" fill="#5A3719"/>
<path d="M26.6299 10.6099C26.6299 10.6099 26.6899 10.4749 26.5799 10.4099C26.5799 10.4099 26.2349 10.4699 26.1299 10.3649C26.1299 10.3649 26.5049 10.3449 26.7399 10.2499C26.9699 10.1649 26.9049 10.0999 26.8249 10.0799C26.7449 10.0649 26.5949 10.1049 26.5799 10.1799C26.5799 10.1799 26.5299 10.0999 26.5899 10.0499C26.6226 10.0242 26.6613 10.0071 26.7023 10.0001C26.7433 9.99313 26.7855 9.99651 26.8249 10.0099C26.9099 10.0299 26.9799 10.0699 27.2549 9.92993C27.2549 9.92993 27.4099 9.96493 27.4199 10.0699C27.4199 10.1799 27.4049 10.2199 27.3899 10.2349C27.3799 10.2549 27.3599 10.2849 27.3249 10.2849C27.2949 10.2749 27.2499 10.2699 27.2099 10.3449C27.1832 10.4168 27.1384 10.4805 27.0799 10.5299C27.0799 10.5299 27.1549 10.2999 26.9549 10.2449C26.9549 10.2449 26.7899 10.3449 26.6649 10.3499C26.6649 10.3499 26.8249 10.4999 26.6249 10.6099H26.6299Z" fill="black"/>
<path d="M26.9949 10.19C26.9949 10.19 26.9149 10.11 27.0149 10.095C27.1149 10.09 27.2449 10.165 27.2249 10.23C27.1949 10.29 27.0749 10.285 26.9949 10.19Z" fill="#5A3719"/>
<path d="M32.66 9.0799C32.66 9.0799 32.475 9.1299 32.65 9.2449C32.82 9.3599 32.9 9.4549 33.025 9.4849C33.15 9.5199 33.275 9.5599 33.275 9.6849C33.275 9.8099 33.25 9.8599 33.18 9.9449C33.115 10.0299 33.22 10.0649 33.31 10.0199C33.4 9.9699 33.475 9.9449 33.535 9.9099C33.59 9.8749 33.685 9.8799 33.605 9.9249C33.51 9.9749 33.42 9.9999 33.535 9.9999C33.65 10.0049 34.345 10.0199 34.49 9.9699C34.64 9.9249 34.83 9.9099 34.84 9.7199C34.84 9.7199 34.85 9.6399 34.905 9.5999C34.955 9.5649 34.995 9.4849 34.915 9.5399C34.84 9.5949 34.78 9.6249 34.765 9.6049C34.75 9.5899 34.74 9.5749 34.8 9.5499C34.86 9.5249 34.89 9.5499 34.945 9.4749C34.995 9.3949 34.995 9.4049 34.965 9.3749C34.935 9.3449 34.875 9.3249 34.905 9.2849C34.935 9.2449 34.965 9.1349 34.835 9.1999C34.71 9.2649 34.455 9.4399 34.335 9.4649C34.225 9.4899 34.135 9.5249 33.98 9.5549C33.83 9.5899 33.73 9.6249 33.555 9.7199C33.39 9.8099 33.405 9.6649 33.43 9.6449C33.43 9.6449 33.495 9.7599 33.665 9.6099C33.835 9.4649 33.78 9.6049 34.195 9.4649C34.61 9.3299 34.51 9.3099 34.67 9.2249C34.835 9.1399 34.99 9.1349 34.87 9.0249C34.76 8.9049 34.75 8.8999 34.605 9.0249C34.3697 9.19752 34.0944 9.30762 33.805 9.3449C33.805 9.3449 34.745 8.9449 34.65 8.8849C34.568 8.83094 34.4788 8.78885 34.385 8.7599C34.32 8.7449 34.3 8.7299 34.15 8.7999C34 8.8649 33.975 8.8799 33.935 8.8849C33.885 8.8849 33.76 8.9149 33.585 9.0049C33.405 9.0999 33.31 9.1349 33.185 9.2049C33.185 9.2049 33.27 9.0399 33.64 8.9299C34.01 8.8199 34.195 8.7199 34.16 8.6999C34.125 8.6799 34.025 8.6599 33.96 8.6749C33.885 8.6899 33.91 8.6699 33.68 8.7599C33.455 8.8499 33.55 8.8299 33.37 8.8699C33.185 8.9049 33.115 8.9449 33.025 8.9849C33.025 8.9849 33.065 8.9349 33.18 8.8899C33.245 8.8699 33.115 8.8449 33.29 8.8399H33.34C33.4905 8.80579 33.6353 8.75022 33.77 8.6749C33.735 8.6699 33.515 8.6449 33.295 8.7549C33.07 8.8549 33.17 8.8199 33.095 8.8299C33.015 8.8499 32.845 8.9499 32.795 8.9999C32.74 9.0449 32.66 9.0749 32.66 9.0749V9.0799Z" fill="white"/>
<path d="M27.1649 10.09C27.1649 10.09 27.2549 10.115 27.2749 10.18C27.2999 10.24 27.3549 10.15 27.3549 10.125C27.3499 10.095 27.2949 9.97498 27.2049 10.03C27.1049 10.085 27.1549 10.085 27.1649 10.09Z" fill="#5A3719"/>
<path d="M26.9249 11.2999C26.9249 11.2999 27.1099 11.2099 27.2699 11.2249C27.2699 11.2249 27.2049 11.0049 27.3149 11.0399C27.4199 11.0799 27.3899 11.0599 27.4149 11.0599C27.4149 11.0599 27.4199 10.9149 27.3899 10.8599C27.3899 10.8599 27.5049 10.8849 27.6199 10.8849C27.6199 10.8849 27.5099 10.6799 27.6299 10.5349C27.6516 10.5759 27.6814 10.6121 27.7175 10.6413C27.7536 10.6705 27.7952 10.6921 27.8399 10.7049V10.5899C27.8399 10.5899 27.9249 10.5749 27.9899 10.6099C28.0599 10.6499 28.1149 10.2299 27.9149 10.1449C27.9149 10.1449 27.8649 10.2199 27.6799 10.2599C27.4949 10.2999 27.4949 10.3349 27.4199 10.4749C27.3449 10.6149 27.2699 10.6199 27.1099 10.7249C26.9599 10.8249 26.8599 11.0249 26.8599 11.0449C26.8599 11.0449 26.9349 11.1449 26.9249 11.2999Z" fill="#7B3C20"/>
<path d="M33.185 8.89C33.25 8.88 33.115 8.845 33.285 8.84H33.335C33.4872 8.80635 33.6337 8.75077 33.77 8.675C33.735 8.67 33.515 8.645 33.295 8.75C33.075 8.855 33.17 8.82 33.095 8.835C33.015 8.85 32.845 8.95 32.795 9C32.74 9.045 32.66 9.075 32.66 9.075C32.66 9.075 32.475 9.125 32.65 9.245C32.82 9.36 32.9 9.455 33.025 9.485C33.15 9.52 33.275 9.56 33.275 9.685C33.2777 9.73252 33.2706 9.78009 33.2543 9.82479C33.2379 9.8695 33.2127 9.9104 33.18 9.945C33.115 10.03 33.22 10.065 33.31 10.02C33.4 9.97 33.475 9.945 33.535 9.91C33.59 9.875 33.685 9.88 33.6 9.925C33.51 9.975 33.42 10 33.535 10C33.65 10.005 34.345 10.02 34.49 9.97C34.64 9.925 34.83 9.91 34.84 9.72C34.84 9.72 34.85 9.64 34.905 9.6C34.955 9.565 34.995 9.485 34.915 9.54C34.84 9.595 34.775 9.625 34.765 9.605C34.75 9.59 34.74 9.575 34.8 9.55C34.86 9.525 34.89 9.55 34.945 9.475C34.995 9.395 34.995 9.405 34.965 9.375L34.915 9.33C34.915 9.33 34.87 9.295 34.82 9.325C34.71 9.38572 34.5922 9.43114 34.47 9.46C34.39 9.465 34.295 9.505 34.145 9.58C33.995 9.655 33.735 9.81 33.695 9.665L33.555 9.715C33.385 9.805 33.405 9.68 33.43 9.645C33.43 9.645 33.34 9.745 33.345 9.655C33.345 9.565 33.405 9.58 33.51 9.55C33.61 9.52 33.76 9.45 33.7 9.4C33.635 9.35 33.565 9.45 33.49 9.49C33.42 9.525 33.275 9.55 33.25 9.445C33.23 9.34 33.23 9.265 33.035 9.255C32.835 9.245 32.84 9.12 32.895 9.065C32.95 9.015 32.995 8.925 33.18 8.89H33.185Z" fill="#999999"/>
<path d="M33.8099 9.84501C33.8099 9.84501 34.1149 9.70501 34.3949 9.64001C34.6799 9.57501 34.4549 9.65001 34.4099 9.66001C34.3599 9.67501 33.9249 9.82001 33.8199 9.87001C33.7199 9.92001 33.7349 9.88001 33.8099 9.85001V9.84501ZM33.8799 9.91001C33.8799 9.91001 34.2249 9.79501 34.2899 9.84001C34.3549 9.89001 34.2999 9.87001 34.2249 9.88001C34.1449 9.88501 33.9399 9.92001 33.8849 9.92001C33.8299 9.92001 33.8799 9.91001 33.8799 9.91001ZM34.4299 9.78501C34.4299 9.78501 34.4999 9.77501 34.5049 9.80501C34.5099 9.82501 34.4749 9.83001 34.4399 9.82501C34.4049 9.82001 34.3749 9.80001 34.4349 9.78501H34.4299Z" fill="black"/>
<path d="M25.33 12.795C25.33 12.795 25.315 12.485 25.47 12.335C25.625 12.185 26.36 11.41 26.475 11.195C26.475 11.195 26.575 11.26 26.575 11.385C26.575 11.385 26.7 11.17 26.8 11.085C26.8 11.085 26.885 11.175 26.875 11.355C26.875 11.355 27.05 11.26 27.325 11.26C27.325 11.26 27.225 11.38 27.22 11.455C27.22 11.455 27.6 11.405 27.805 11.44C27.805 11.44 27.275 11.74 27.42 11.765C27.575 11.79 27.73 11.765 27.73 11.765C27.73 11.765 27.56 11.93 27.29 11.965C27.29 11.965 27.635 11.965 27.7 12.04C27.7 12.04 27.37 12.09 27.1 12.29C27.1 12.29 27.08 12.28 27.08 12.205C27.08 12.205 27.065 12.275 26.99 12.34C26.915 12.4 26.735 12.54 26.665 12.605C26.595 12.67 26.475 12.805 26.335 12.805C26.335 12.805 26.365 12.7 26.265 12.665C26.2131 12.6473 26.1571 12.6449 26.1039 12.6582C26.0507 12.6715 26.0025 12.6999 25.965 12.74C25.965 12.74 25.615 12.745 25.495 12.765C25.495 12.765 25.575 12.635 25.645 12.635C25.725 12.635 26.025 12.685 26.05 12.475C26.08 12.275 25.86 12.325 25.94 12.205C26.025 12.085 26.005 12.095 26.01 12.075C26.01 12.075 25.94 12.115 25.9 12.225C25.8675 12.3466 25.7931 12.4528 25.69 12.525C25.5916 12.5884 25.5094 12.674 25.45 12.775C25.45 12.775 25.385 12.775 25.33 12.795Z" fill="white"/>
<path d="M25.6699 12.6099C25.6699 12.6099 25.6849 12.5699 25.7849 12.5499C25.8949 12.5349 25.8999 12.4849 25.8849 12.4599C25.8699 12.4399 25.8099 12.4399 25.9099 12.3199C25.9099 12.3199 25.9499 12.3349 25.9699 12.3599C25.9999 12.3899 26.1149 12.6349 25.6699 12.6099Z" fill="white"/>
<path d="M25.4249 12.395C25.4249 12.595 25.6899 12.52 25.6899 12.52C25.6194 12.572 25.5556 12.6324 25.4999 12.7C25.5199 12.6 25.3499 12.575 25.3499 12.575C25.3651 12.5114 25.3904 12.4506 25.4249 12.395ZM26.3899 11.32L26.4749 11.195C26.4749 11.195 26.5749 11.26 26.5749 11.385C26.5749 11.385 26.6999 11.17 26.7999 11.085C26.7999 11.085 26.8849 11.175 26.8749 11.355C26.8749 11.355 27.0499 11.26 27.3249 11.26C27.3249 11.26 27.2249 11.38 27.2199 11.455C27.2199 11.455 27.5999 11.405 27.8049 11.44C27.8049 11.44 27.2749 11.74 27.4199 11.765C27.5749 11.79 27.7299 11.765 27.7299 11.765C27.7299 11.765 27.5599 11.93 27.2899 11.965C27.2899 11.965 27.6349 11.965 27.6999 12.04C27.6999 12.04 27.5999 12.055 27.4699 12.1C27.4699 12.1 27.3749 12.01 27.0899 12.025C27.0899 12.025 27.3099 11.895 27.4899 11.855C27.4899 11.855 27.4099 11.755 27.2899 11.85C27.2899 11.85 27.0449 11.685 27.2499 11.54C27.2499 11.54 27.1099 11.515 27.0149 11.58C27.0149 11.58 27.0149 11.465 27.1199 11.415C27.1199 11.415 26.8499 11.365 26.7849 11.565C26.7849 11.565 26.7349 11.49 26.7599 11.395C26.7599 11.395 26.5949 11.49 26.5199 11.595C26.5199 11.595 26.4949 11.395 26.3899 11.32ZM25.8699 12.6C25.8249 12.61 25.7549 12.615 25.6699 12.61C25.6699 12.61 25.6799 12.585 25.7349 12.56C25.7349 12.56 25.7549 12.6 25.8699 12.6Z" fill="#999999"/>
<path d="M26.3599 11.8349C26.3599 11.8349 26.4849 11.9349 26.5249 11.9849C26.5249 11.9849 26.6399 11.9149 26.6749 11.8499C26.6749 11.8499 26.7699 11.9049 26.7949 11.9899C26.7949 11.9899 26.8599 11.9499 26.8699 11.8899C26.8699 11.8899 27.0199 11.9199 27.0799 11.9699C27.0799 11.9699 27.0999 11.8199 27.0799 11.7299C27.0799 11.7299 27.1849 11.7399 27.2499 11.7649C27.2499 11.7649 27.1899 11.6649 27.4999 11.5399C27.4999 11.5399 27.2649 11.5949 27.1749 11.6899C27.1749 11.6899 27.0749 11.6999 27.0299 11.6699V11.8949C27.0299 11.8949 26.9699 11.8649 26.8549 11.8399C26.8549 11.8399 26.8249 11.8899 26.8049 11.8999C26.8049 11.8999 26.7299 11.8399 26.6999 11.7649C26.6999 11.7649 26.5849 11.8699 26.5499 11.9149C26.5499 11.9149 26.4349 11.8349 26.3599 11.8349Z" fill="black"/>
<path d="M25.6548 13.3649C25.6548 13.3649 25.7048 13.3849 25.8198 13.2949C25.9348 13.2049 26.2548 12.9999 26.2798 12.8349C26.3148 12.6699 26.1798 12.6649 26.0798 12.7099C25.9698 12.7599 26.0148 12.8449 26.0198 12.8799C26.0198 12.9099 26.0298 13.0249 25.8548 13.1799L25.6548 13.3649Z" fill="#FFC221"/>
<path d="M25.6249 13.415C25.6249 13.415 25.3649 13.305 25.5949 13.19C25.8249 13.075 25.9299 13.045 25.9549 12.945C25.9849 12.85 25.9649 12.87 25.8799 12.91C25.7949 12.945 25.4699 13.1 25.4199 12.96C25.4199 12.96 25.5549 13.01 25.7199 12.93C25.8899 12.845 26.0299 12.825 25.9199 12.79C25.7364 12.7709 25.551 12.7793 25.3699 12.815C25.2999 12.835 25.3199 12.83 25.3049 12.895C25.2949 12.96 25.2249 13.095 25.1949 13.13C25.1699 13.17 25.1049 13.33 25.2249 13.405C25.2858 13.439 25.354 13.4576 25.4237 13.4594C25.4934 13.4611 25.5624 13.4459 25.6249 13.415Z" fill="#FFC221"/>
<path d="M25.5249 12.85C25.5249 12.85 25.4599 12.86 25.4749 12.885C25.4849 12.91 25.4999 12.905 25.5249 12.905C25.5399 12.905 25.5749 12.895 25.5799 12.88C25.5799 12.865 25.5399 12.845 25.5249 12.855V12.85Z" fill="black"/>
<path d="M25.605 13.3549C25.605 13.3549 25.485 13.2999 25.625 13.2249C25.76 13.1499 25.905 13.0749 25.925 13.0449C25.925 13.0449 25.86 13.1399 25.605 13.3549Z" fill="white"/>
</g>
<defs>
<clipPath id="clip0_11930_67717">
<rect width="36" height="24" rx="2" fill="white"/>
</clipPath>
</defs>
</svg>
