<svg width="36" height="24" viewBox="0 0 36 24" fill="none" xmlns="http://www.w3.org/2000/svg">
<rect width="36" height="24" rx="2" fill="#00008B"/>
<path d="M1.875 0L7.975 4.525L14.05 0H16V1.55L10 6.025L16 10.475V12H14L8 7.525L2.025 12H0V10.5L5.975 6.05L0 1.6V0H1.875Z" fill="white"/>
<path d="M10.6 7.025L16 11V12L9.225 7.025H10.6ZM6 7.525L6.15 8.4L1.35 12H0L6 7.525ZM16 0V0.075L9.775 4.775L9.825 3.675L14.75 0H16ZM0 0L5.975 4.4H4.475L0 1.05V0Z" fill="#FF0000"/>
<path d="M6.025 0V12H10.025V0H6.025ZM0 4V8H16V4H0Z" fill="white"/>
<path d="M0 4.825V7.225H16V4.825H0ZM6.825 0V12H9.225V0H6.825Z" fill="#FF0000"/>
<path d="M26.3502 19.8349L25.3252 19.9649L25.4352 20.9899L24.6952 20.2699L23.9602 20.9949L24.0602 19.9699L23.0352 19.8499L23.9002 19.2899L23.3552 18.4149L24.3352 18.7399L24.6802 17.7649L25.0352 18.7349L26.0102 18.3999L25.4752 19.2799L26.3502 19.8349ZM26.1652 13.9749L26.3002 13.3249L25.8102 12.8749L26.4702 12.7999L26.7452 12.1949L27.0202 12.7999L27.6802 12.8749L27.1902 13.3249L27.3252 13.9749L26.7452 13.6449L26.1652 13.9749ZM20.9602 10.9749L19.9452 11.0849L20.0352 12.0999L19.3152 11.3749L18.5752 12.0799L18.6952 11.0649L17.6852 10.9299L18.5502 10.3899L18.0252 9.51492L18.9902 9.85492L19.3502 8.89992L19.6852 9.86492L20.6552 9.54992L20.1102 10.4149L20.9652 10.9749H20.9602ZM31.1502 9.33492L30.1052 9.46992L30.2202 10.5149L29.4652 9.77992L28.7152 10.5199L28.8202 9.46992L27.7752 9.34992L28.6602 8.77492L28.1052 7.87992L29.1052 8.21492L29.4552 7.22492L29.8152 8.21492L30.8102 7.86992L30.2602 8.76992L31.1502 9.33492ZM26.3452 5.15992L25.3102 5.27492L25.4052 6.31492L24.6702 5.57492L23.9152 6.29492L24.0352 5.25992L23.0002 5.11992L23.8852 4.56992L23.3502 3.67492L24.3352 4.01992L24.7002 3.04492L25.0402 4.02992L26.0302 3.70492L25.4752 4.58492L26.3452 5.15992ZM11.7002 19.2849L9.41018 19.5549L9.64018 21.8499L8.00018 20.2299L6.35018 21.8399L6.59518 19.5449L4.30518 19.2549L6.25018 18.0149L5.05018 16.0449L7.23018 16.7949L8.02018 14.6249L8.79518 16.7999L10.9802 16.0649L9.76518 18.0249L11.7052 19.2799L11.7002 19.2849Z" fill="white"/>
</svg>
