<svg width="36" height="24" viewBox="0 0 36 24" fill="none" xmlns="http://www.w3.org/2000/svg">
<g clip-path="url(#clip0_11930_67726)">
<path d="M0 0H36V24H0V0Z" fill="#3F9C35"/>
<path d="M0 0H36V16H0V0Z" fill="#ED2939"/>
<path d="M0 0H36V8H0V0Z" fill="#00B9E4"/>
<path d="M17.6 15.5999C18.7752 15.5999 19.8188 15.0368 20.4759 14.1657C19.937 14.6825 19.2055 15 18.3999 15C16.743 15 15.3999 13.6569 15.3999 12C15.3999 10.3431 16.743 9 18.3999 9C19.2058 9 19.9374 9.31775 20.4764 9.83481C19.8194 8.9633 18.7755 8.3999 17.6 8.3999C15.6118 8.3999 14 10.0117 14 11.9999C14 13.9881 15.6118 15.5999 17.6 15.5999Z" fill="white"/>
<path d="M21.9851 11.075L21.6001 10L21.2151 11.075L20.1851 10.585L20.6751 11.615L19.6001 12L20.6751 12.385L20.1851 13.415L21.2151 12.925L21.6001 14L21.9851 12.925L23.0151 13.415L22.5251 12.385L23.6001 12L22.5251 11.62L23.0151 10.585L21.9851 11.075Z" fill="white"/>
</g>
<defs>
<clipPath id="clip0_11930_67726">
<rect width="36" height="24" rx="2" fill="white"/>
</clipPath>
</defs>
</svg>
