<svg width="36" height="24" viewBox="0 0 36 24" fill="none" xmlns="http://www.w3.org/2000/svg">
<g clip-path="url(#clip0_11930_67729)">
<rect width="36" height="24" rx="2" fill="#000099"/>
<path fill-rule="evenodd" clip-rule="evenodd" d="M9.65186 0L33.605 24.0141V0.0140625L9.65186 0Z" fill="#FFCC00"/>
<path fill-rule="evenodd" clip-rule="evenodd" d="M27.6237 22.5704L26.3159 21.6188L24.9753 22.5657L25.4815 21.0094L24.1597 20.0485H25.8003L26.3065 18.4922L26.8081 20.0532H28.4487L27.1362 21.0235L27.6237 22.5704ZM31.4347 23.0579L29.794 23.0532L29.2925 21.4922L28.7862 23.0485H27.1456L28.4675 24.0094L27.9612 25.5657L29.3019 24.6188L30.6144 25.5704L30.1222 24.0235L31.4347 23.0579ZM24.1409 18.0329L25.4534 17.0626L23.8128 17.0579L23.3112 15.5016L22.805 17.0579L21.1644 17.0532L22.4862 18.0141L21.98 19.5751L23.3206 18.6235L24.6331 19.5797L24.1409 18.0329ZM21.1269 15.0094L22.4394 14.0438L20.7987 14.0391L20.2972 12.4782L19.7862 14.0344H18.1503L19.4722 14.9954L18.9659 16.5516L20.3065 15.6047L21.6144 16.5563L21.1269 15.0094ZM18.1409 12.0282L19.4534 11.0579H17.8128L17.3159 9.49224L16.8097 11.0485H15.169L16.4909 12.0047L15.9847 13.5657L17.3253 12.6141L18.6378 13.5704L18.1456 12.0235L18.1409 12.0282ZM15.1222 9.01411L16.4347 8.04849L14.794 8.0438L14.2925 6.48286L13.7815 8.03911H12.1456L13.4722 9.00005L12.9659 10.5563L14.3065 9.60943L15.6144 10.561L15.1269 9.01411H15.1222ZM12.1409 6.0188L13.4487 5.04849H11.8081L11.3112 3.48286L10.8003 5.0438H9.15967L10.4909 6.00005L9.97998 7.5563L11.3206 6.60942L12.6237 7.56567L12.1409 6.0188ZM9.14092 3.0188L10.4487 2.04849H8.80811L8.31123 0.482862L7.80029 2.0438H6.15967L7.49092 3.00005L6.97529 4.56099L8.32061 3.60942L9.62373 4.56567L9.14092 3.0188ZM6.14092 0.0187991L7.44404 -0.951514H5.80342L5.30186 -2.51245L4.80029 -0.956201H3.15967L4.48623 4.88758e-05L3.97998 1.5563L5.32061 0.609424L6.62373 1.56567L6.14092 0.0187991Z" fill="white"/>
</g>
<defs>
<clipPath id="clip0_11930_67729">
<rect width="36" height="24" rx="2" fill="white"/>
</clipPath>
</defs>
</svg>
