<svg width="36" height="24" viewBox="0 0 36 24" fill="none" xmlns="http://www.w3.org/2000/svg">
<rect width="36" height="24" rx="2" fill="#00267F"/>
<path d="M12 0H24V24H12V0Z" fill="#FFC726"/>
<path d="M22.325 8.428C21.508 8.555 20.667 8.984 20.091 9.58C20.024 9.662 20.447 9.49 20.485 9.485C20.801 9.39 20.391 9.929 20.368 10.071C20.044 11.105 19.763 12.104 19.659 13.294C19.659 13.376 19.646 13.437 19.608 13.44L18.527 13.279V9.449C18.781 9.443 19.177 9.509 19.403 9.584C18.675 8.858 18.334 7.91 18 7C17.666 7.911 17.326 8.859 16.597 9.584C16.823 9.51 17.219 9.443 17.473 9.449V13.279L16.392 13.44C16.353 13.436 16.341 13.376 16.341 13.294C16.237 12.105 15.956 11.105 15.632 10.071C15.609 9.93 15.199 9.39 15.515 9.485C15.554 9.49 15.976 9.662 15.909 9.58C15.334 8.984 14.492 8.555 13.675 8.428C13.603 8.41 13.561 8.446 13.625 8.529C14.709 10.197 15.616 12.166 15.608 14.503C16.029 14.503 17.05 14.254 17.473 14.254V16.956H18.526V14.254C18.949 14.254 19.97 14.503 20.391 14.503C20.383 12.167 21.29 10.198 22.374 8.529C22.438 8.446 22.396 8.41 22.324 8.428H22.325Z" fill="black"/>
</svg>
