<svg width="36" height="24" viewBox="0 0 36 24" fill="none" xmlns="http://www.w3.org/2000/svg">
<g clip-path="url(#clip0_6903_4723)">
<path d="M31 0H36V24H0L31 0Z" fill="#003087"/>
<path d="M0 9V0H13L0 9Z" fill="#FFD700"/>
<path d="M9 4.33337L12.4641 10.3334L9 16.3334L5.5359 10.3334L9 4.33337ZM15 10.3334L9 13.7975L3 10.3334L9 6.86927L15 10.3334Z" fill="#101820"/>
<path d="M9.00011 15.5295C11.8699 15.5295 14.1963 13.2031 14.1963 10.3334C14.1963 7.4636 11.8699 5.13721 9.00011 5.13721C6.13035 5.13721 3.80396 7.4636 3.80396 10.3334C3.80396 13.2031 6.13035 15.5295 9.00011 15.5295Z" fill="#101820"/>
<path d="M9 14.8334C11.4853 14.8334 13.5 12.8187 13.5 10.3334C13.5 7.84809 11.4853 5.83337 9 5.83337C6.51472 5.83337 4.5 7.84809 4.5 10.3334C4.5 12.8187 6.51472 14.8334 9 14.8334Z" fill="white"/>
<path d="M8.99993 13.3334L6.40186 8.83337H11.598L8.99993 13.3334ZM8.99993 7.33337L11.598 11.8334H6.40186L8.99993 7.33337Z" fill="#E90029"/>
</g>
<defs>
<clipPath id="clip0_6903_4723">
<rect width="36" height="24" rx="2" fill="white"/>
</clipPath>
</defs>
</svg>
