<svg width="36" height="24" viewBox="0 0 36 24" fill="none" xmlns="http://www.w3.org/2000/svg">
<g clip-path="url(#clip0_11930_67746)">
<path fill-rule="evenodd" clip-rule="evenodd" d="M-2 0L18.1 12L-2 24V0ZM38.2 0L18.1 12L38.2 24V0Z" fill="#18B637"/>
<path fill-rule="evenodd" clip-rule="evenodd" d="M-2 0L18.1 12L38.2 0H-2ZM-2 24L18.1 12L38.2 24H-2Z" fill="#CF0921"/>
<path fill-rule="evenodd" clip-rule="evenodd" d="M38.2 0H34.4547L-2 21.7641V24H1.74531L38.2 2.23594V0Z" fill="white"/>
<path fill-rule="evenodd" clip-rule="evenodd" d="M25.0423 12C25.0423 13.8406 24.3111 15.6057 23.0097 16.9072C21.7082 18.2087 19.943 18.9398 18.1024 18.9398C16.2619 18.9398 14.4967 18.2087 13.1952 16.9072C11.8938 15.6057 11.1626 13.8406 11.1626 12C11.1626 10.1601 11.8935 8.39548 13.1945 7.09445C14.4956 5.79341 16.2602 5.0625 18.1001 5.0625C19.94 5.0625 21.7046 5.79341 23.0057 7.09445C24.3067 8.39548 25.0376 10.1601 25.0376 12H25.0423Z" fill="white"/>
<path fill-rule="evenodd" clip-rule="evenodd" d="M-2 0V2.23594L34.4547 24H38.2V21.7641L1.74531 0H-2Z" fill="white"/>
<path fill-rule="evenodd" clip-rule="evenodd" d="M19.4687 9.38433L18.564 9.39839L18.0953 10.1671L17.6312 9.39839L16.7312 9.37964L17.1671 8.58745L16.7359 7.79995L17.6359 7.7812L18.1046 7.01245L18.5687 7.78589L19.4687 7.80464L19.0328 8.59214L19.4687 9.38433ZM16.4406 14.6156L15.5406 14.6296L15.0718 15.3984L14.6078 14.6296L13.7078 14.6109L14.1437 13.8187L13.7125 13.0312L14.6125 13.0125L15.0812 12.2437L15.5453 13.0171L16.4453 13.0359L16.0093 13.8234L16.4406 14.6156ZM22.5625 14.6156L21.6625 14.6296L21.1937 15.3984L20.725 14.6296L19.8296 14.6109L20.2656 13.8187L19.8296 13.0312L20.7296 13.0125L21.1984 12.2437L21.6671 13.0171L22.5671 13.0359L22.1265 13.8234L22.5625 14.6156Z" fill="#CF0921" stroke="#18B637" stroke-width="0.182812"/>
</g>
<defs>
<clipPath id="clip0_11930_67746">
<rect width="36" height="24" rx="2" fill="white"/>
</clipPath>
</defs>
</svg>
