<svg width="36" height="24" viewBox="0 0 36 24" fill="none" xmlns="http://www.w3.org/2000/svg">
<rect width="36" height="24" rx="2" fill="#CF142B"/>
<path d="M27.985 6.52991V14.6099C27.985 16.7649 23.675 17.4699 23.675 17.4699C23.675 17.4699 19.355 16.7699 19.355 14.5999V6.52991H27.98H27.985Z" fill="white"/>
<path d="M27.985 14.6099C27.985 16.7649 23.675 17.4699 23.675 17.4699C23.675 17.4699 19.355 16.7699 19.355 14.5999C19.355 14.5999 19.355 14.4249 19.445 14.3299C19.445 14.3299 19.395 14.6849 19.67 14.9599C19.67 14.9599 19.455 14.5699 19.67 14.1949C19.67 14.1949 19.585 14.6849 19.89 14.9599C19.89 14.9599 19.725 14.5649 19.91 14.1249C19.91 14.1249 19.82 14.8399 20.145 14.9899C20.145 14.9899 20.235 14.5699 20.105 14.3099C20.105 14.3099 20.33 14.3999 20.32 14.9999C20.32 14.9999 20.39 14.9099 20.41 14.4749C20.41 14.4749 20.42 14.9749 20.585 15.0899C20.585 15.0899 20.645 15.0399 20.57 14.8149C20.49 14.5949 20.6 14.5149 20.62 14.5149C20.62 14.5149 20.58 14.7649 20.79 14.9549C20.79 14.9549 20.7 14.5599 20.825 14.5049C20.825 14.5049 20.795 14.8399 21.065 14.9099C21.065 14.9099 21.08 14.8149 21.025 14.7099C21.025 14.7099 20.975 14.5849 21.01 14.4849C21.01 14.4849 21.095 14.7849 21.21 14.8349C21.21 14.8349 21.14 14.6549 21.21 14.4849C21.21 14.4849 21.22 14.7349 21.445 14.8399C21.445 14.8399 21.295 14.6399 21.35 14.4299L22.785 14.4999L23.535 14.5349L25.77 14.3849L26.15 14.0499C26.15 14.0499 26.305 14.2549 26.06 14.5899C26.06 14.5899 26.3 14.5499 26.375 14.1749C26.375 14.1749 26.475 14.3799 26.34 14.6149C26.34 14.6149 26.605 14.3449 26.64 14.0499C26.64 14.0499 26.745 14.3399 26.495 14.6499C26.495 14.6499 26.715 14.5699 26.81 14.2449C26.81 14.2449 26.89 14.4449 26.675 14.7199C26.675 14.7199 27.08 14.5149 27.07 14.0699C27.07 14.0699 27.235 14.3099 27.045 14.6499C27.045 14.6499 27.245 14.4649 27.27 14.1849C27.27 14.1849 27.385 14.3099 27.26 14.6549C27.26 14.6549 27.51 14.4149 27.55 14.1599C27.55 14.1599 27.6 14.3999 27.39 14.6999C27.39 14.6999 27.535 14.6599 27.675 14.3699C27.675 14.3699 27.71 14.4899 27.585 14.6999C27.585 14.6999 27.725 14.6749 27.815 14.4049C27.815 14.4049 27.83 14.5649 27.79 14.7049C27.79 14.7049 27.895 14.6399 27.92 14.3399C27.9208 14.4172 27.9414 14.493 27.98 14.5599V14.5999L27.985 14.6099Z" fill="#2F8F22"/>
<path d="M25.77 9.935C25.77 9.935 25.62 9.965 25.42 9.905C25.23 9.84501 25.155 9.87 25.095 9.905C25.095 9.905 25.17 9.75 24.98 9.625C24.98 9.625 25.04 9.785 24.955 9.85501C24.955 9.85501 24.92 9.89 24.875 9.84C24.875 9.84 24.81 9.765 24.735 9.72C24.735 9.72 24.9 9.66 24.87 9.495C24.84 9.33 24.75 9.315 24.705 9.29C24.6969 9.3296 24.6969 9.37041 24.705 9.41C24.705 9.41 24.53 9.31 24.765 9.175C25.005 9.04 24.965 8.955 24.92 8.885C24.8738 8.81428 24.8144 8.75316 24.745 8.705C24.745 8.705 24.795 8.785 24.78 8.85C24.775 8.91 24.66 8.95 24.68 8.845C24.705 8.725 24.68 8.745 24.68 8.63C24.68 8.63 24.89 8.7 24.98 8.49C24.98 8.49 25.06 8.275 24.79 8.17C24.79 8.17 24.855 8.26 24.825 8.32C24.825 8.32 24.765 8.43 24.7 8.35C24.635 8.265 24.59 8.24 24.595 8.14C24.595 8.14 24.84 8.175 24.775 7.905C24.775 7.905 24.73 8.085 24.415 7.845C24.415 7.845 24.625 7.635 24.54 7.465C24.54 7.465 24.515 7.39 24.295 7.43C24.295 7.43 24.485 7.31 24.41 7.205C24.41 7.205 24.365 7.14 24.18 7.225C24.18 7.225 24.255 7.11 24.075 6.975C24.075 6.975 23.955 7.035 23.895 7.095C23.895 7.095 23.775 6.945 23.695 6.88C23.695 6.88 23.555 6.935 23.52 7.095C23.52 7.095 23.455 7.02 23.305 6.975C23.305 6.975 23.235 7.115 23.33 7.225C23.33 7.225 23.26 7.225 23.13 7.17C23.13 7.17 22.99 7.11 23.015 7.225C23.03 7.345 23.045 7.375 23.075 7.435C23.075 7.435 22.75 7.36 22.765 7.535C22.7679 7.59411 22.7826 7.65202 22.8084 7.70529C22.8342 7.75855 22.8704 7.80607 22.915 7.845C22.915 7.845 22.74 8.085 22.585 7.905C22.585 7.905 22.525 7.965 22.645 8.115C22.645 8.115 22.765 8.24 22.66 8.325C22.66 8.325 22.535 8.425 22.475 8.225C22.475 8.225 22.27 8.43 22.515 8.585C22.515 8.585 22.665 8.675 22.83 8.535C22.83 8.535 22.78 8.935 22.63 8.855C22.63 8.855 22.535 8.795 22.7 8.71C22.7 8.71 22.46 8.68 22.425 8.91C22.425 8.91 22.395 9.085 22.6 9.16C22.6 9.16 22.755 9.22 22.6 9.34C22.6 9.34 22.475 9.425 22.555 9.56C22.555 9.56 22.645 9.7 22.41 9.72C22.41 9.72 22.29 9.72 22.245 9.7C22.245 9.7 22.195 9.8 22.225 9.9C22.225 9.9 22.11 9.815 21.85 9.91C21.59 10.01 21.605 9.94 21.59 9.97L21.51 10.09C21.51 10.09 21.65 10.27 21.655 10.255L21.625 10.455L21.695 10.485L22.235 10.245L22.785 9.96L23.23 9.98001L23.51 10.045L23.87 10.075L24.14 9.935H24.52L24.94 10.145L25.415 10.43L25.665 10.48L25.86 10.465V10.075L25.77 9.935Z" fill="#D40000" stroke="black" stroke-width="0.06" stroke-linejoin="round"/>
<path d="M21.41 10.3849C21.41 10.3849 21.62 10.4949 21.71 10.3699C21.71 10.3699 21.82 10.1499 21.57 10.0699C21.57 10.0699 21.71 9.90991 21.56 9.75991C21.56 9.75991 21.48 9.67991 21.35 9.73491C21.35 9.73491 21.29 9.61991 21.165 9.62491C21.165 9.62491 21.045 9.62491 21.015 9.74991C21.015 9.74991 20.855 9.68991 20.77 9.77991C20.77 9.77991 20.62 9.93991 20.825 10.0699L20.97 10.0849L21.11 10.0149L21.275 10.0599C21.275 10.0599 21.23 10.2199 21.41 10.3849Z" fill="#D40000" stroke="black" stroke-width="0.06" stroke-linejoin="round"/>
<path d="M26.0801 10.0049C26.1503 9.99612 26.2215 10.0098 26.2835 10.0439C26.3455 10.078 26.3951 10.1309 26.4251 10.1949C26.5551 10.5049 26.2751 10.6749 26.2751 10.6749C26.2951 10.7399 26.3001 10.8349 26.3001 10.8349C26.6901 10.8849 26.6201 11.3249 26.6201 11.3249L26.4901 11.2149C26.2651 11.1249 26.0251 11.3249 25.8601 11.6449C25.6901 11.9749 25.7701 12.1199 25.8001 12.5099C25.8301 12.8949 26.4501 13.1299 26.4501 13.1299L25.9651 14.3799C25.7751 14.8799 25.3651 14.6749 25.2501 14.5649C25.1351 14.4649 25.1051 14.5249 25.0501 14.5649C24.9951 14.6149 25.3151 14.8649 24.7251 15.1049C24.1401 15.3399 24.0401 15.5199 23.9401 15.5799C23.8401 15.6399 23.4401 15.6049 23.4001 15.5499C23.3501 15.4999 23.3801 15.4999 23.2251 15.4049C23.0751 15.3199 22.8151 15.2299 22.5351 15.0949C22.2551 14.9599 22.2651 14.7849 22.2701 14.7499C22.2701 14.7149 22.3651 14.4249 22.0351 14.6549C21.7101 14.8899 21.4301 14.5449 21.4301 14.5449C21.3701 14.4599 21.0901 13.7249 21.0901 13.7249C21.0324 13.5202 20.9605 13.3198 20.8751 13.1249C20.8751 13.1249 20.8551 13.1649 21.1001 13.0249C21.3401 12.8899 21.4501 12.6599 21.5351 12.4299C21.6201 12.1999 21.5351 11.8049 21.5051 11.7299C21.4751 11.6499 21.2951 11.2849 21.0701 11.2099C20.8501 11.1299 20.6951 11.3299 20.6951 11.3299C20.6951 11.3299 20.6301 10.8799 21.0251 10.8299C21.0251 10.8299 21.0251 10.7399 21.0451 10.6749C21.0451 10.6749 20.7651 10.5049 20.8951 10.1949C20.8951 10.1949 20.9851 9.97994 21.2351 10.0049L21.1801 10.1249C21.1801 10.1249 21.1201 10.7549 22.0401 10.3349C22.9651 9.90494 22.9401 9.82494 23.4751 10.0949L23.8551 10.0899C23.8551 10.0899 24.4051 9.82494 24.5901 9.93994C24.7651 10.0549 25.4051 10.4099 25.4051 10.4099C25.4051 10.4099 26.0251 10.6449 26.1501 10.2099L26.0801 10.0049Z" fill="#64B4D1" stroke="black" stroke-width="0.06"/>
<path d="M23.2902 12.75C23.2902 12.75 23.2602 12.555 23.2302 12.43C23.2302 12.43 23.1552 12.235 23.2802 12.09L23.4202 11.925C23.4202 11.925 23.5102 11.805 23.6202 11.79C23.6202 11.79 23.7352 11.79 23.7402 11.765C23.7552 11.74 23.8802 11.54 24.1702 11.765C24.1702 11.765 24.2602 11.615 24.4102 11.585C24.4102 11.585 24.5602 11.545 24.6352 11.655C24.6352 11.655 24.8102 11.525 24.9552 11.74C24.9552 11.74 25.1602 11.62 25.3152 11.855C25.3152 11.855 25.5152 11.755 25.6352 11.96C25.7602 12.175 25.7352 12.26 25.7352 12.26L25.8352 12.6L26.1602 13L25.4002 13.29H25.0502L24.3652 13.47L23.1502 13.565L22.8152 13.165L23.2952 12.75H23.2902Z" fill="white" stroke="#00247D" stroke-width="0.06" stroke-miterlimit="10"/>
<path d="M22.2651 14.7749C22.2651 14.7749 22.0851 14.7799 21.9901 14.8349C21.9001 14.8749 21.8251 14.9249 21.7201 14.9949C21.7201 14.9949 21.6701 15.0599 21.4601 15.0199C21.4601 15.0199 21.1001 14.9349 21.1001 15.2199C21.1001 15.2199 20.6601 15.2499 20.8401 15.6349C20.8401 15.6349 20.9551 15.9349 21.2051 15.7249C21.2051 15.7249 21.0451 15.9499 21.3551 16.0399C21.3551 16.0399 21.5751 16.0999 21.6451 15.8649C21.6451 15.8649 21.6801 15.7749 21.5951 15.6649C21.5951 15.6649 21.7001 15.6449 21.7751 15.5299C21.7751 15.5299 21.5451 15.8199 21.8001 15.9299C21.8001 15.9299 22.1151 16.0049 22.1301 15.6799C22.1301 15.6799 22.1001 15.5199 22.2301 15.4649C22.2301 15.4649 22.4801 15.4049 22.5801 15.1349C22.5801 15.1349 22.2301 14.9399 22.2651 14.7749ZM21.5301 11.8999C21.5301 11.8999 21.2501 11.7749 21.1101 11.8999C21.1101 11.8999 20.9351 11.7899 20.7351 11.8999C20.7351 11.8999 20.5501 12.0199 20.4201 12.1599C20.4201 12.1599 20.3301 12.2349 20.3601 12.4799C20.3601 12.4799 20.4101 12.6549 20.3851 12.7349C20.3851 12.7349 20.3251 12.7249 20.2001 12.8749C20.2001 12.8749 20.0451 13.0499 19.9001 12.8899C19.9001 12.8899 19.9501 13.1199 20.2051 13.0799C20.2051 13.0799 20.0801 13.1799 20.1901 13.4299C20.1901 13.4299 20.2701 13.6099 20.1401 13.8399C20.1401 13.8399 20.3651 13.7499 20.3601 13.4799C20.3601 13.4799 20.3351 13.2999 20.4101 13.1799C20.4101 13.1799 20.3351 13.2899 20.4901 13.5349C20.4901 13.5349 20.6101 13.7149 20.5151 13.8949C20.5151 13.8949 20.7351 13.8149 20.7151 13.5449C20.6951 13.2749 20.5651 13.3849 20.6451 13.1349C20.6451 13.1349 20.6701 13.2649 20.7351 13.3349C20.785 13.3769 20.8224 13.4317 20.8436 13.4933C20.8647 13.555 20.8687 13.6212 20.8551 13.6849C20.8551 13.6849 20.9851 13.5149 20.9551 13.3449C20.9466 13.2683 20.9246 13.1939 20.8901 13.1249L21.3101 12.8849L21.5251 12.5099L21.5301 11.8999Z" fill="#D40000" stroke="black" stroke-width="0.06" stroke-linejoin="round"/>
<path d="M20.89 12.975C20.89 12.975 20.715 12.965 20.69 12.825M20.385 12.735C20.385 12.735 20.445 12.735 20.505 12.795C20.505 12.795 20.54 12.855 20.6 12.845" stroke="black" stroke-width="0.06" stroke-miterlimit="10"/>
<path d="M21.15 12.4599C21.15 12.4599 21.06 12.4599 21 12.4199C21 12.4199 20.955 12.3849 20.925 12.4399C20.925 12.4399 20.875 12.5199 20.965 12.5549C20.965 12.5549 21.075 12.6149 20.905 12.7249C20.905 12.7249 21.105 12.6449 21.025 12.5449C21.025 12.5449 20.935 12.4849 20.965 12.4599C20.965 12.4599 20.975 12.4399 21.015 12.4599C21.045 12.4899 21.115 12.4799 21.15 12.4599Z" fill="black"/>
<path d="M23.8801 12.9499L23.9851 12.9199L23.2851 10.5199H23.2651L23.8801 12.9499Z" fill="#784421" stroke="black" stroke-width="0.06"/>
<path d="M21.56 15.6149C21.56 15.6149 21.4 15.5199 21.26 15.6299C21.26 15.6299 21.28 15.5699 21.38 15.5449C21.38 15.5449 21.44 15.3849 21.595 15.3999C21.595 15.3999 21.53 15.4799 21.445 15.5399C21.445 15.5399 21.535 15.5499 21.565 15.6149H21.56Z" fill="black"/>
<path d="M20.9852 15.9899C20.9852 15.9899 20.7251 15.8299 20.8701 15.5549C20.8701 15.5549 20.9102 15.4799 20.9852 15.4949C20.9852 15.4949 21.1501 15.5449 21.0251 15.7699C21.0251 15.7699 20.9552 15.9149 20.9852 15.9949V15.9899ZM21.5102 16.2549C21.5102 16.2549 21.1402 16.0849 21.2552 15.7949C21.2552 15.7949 21.2901 15.6949 21.3751 15.7049C21.3751 15.7049 21.5151 15.7149 21.4901 15.9049C21.4901 15.9049 21.4452 16.0849 21.5102 16.2549Z" fill="#64B4D1" stroke="#00247D" stroke-width="0.06" stroke-miterlimit="2.6"/>
<path d="M21.4352 15.1799C21.4352 15.1799 21.3202 15.2649 21.2802 15.3199C21.2802 15.3199 21.2302 15.2599 21.1702 15.2299C21.1702 15.2299 21.2452 15.2149 21.2802 15.2449C21.2802 15.2449 21.3402 15.1949 21.4302 15.1799H21.4352Z" fill="black"/>
<path d="M21.76 16.18C21.76 16.18 22.06 16.11 22 15.805C22 15.805 21.97 15.675 21.85 15.695C21.85 15.695 21.7 15.735 21.8 15.925C21.8 15.925 21.855 16.055 21.76 16.18Z" fill="#64B4D1" stroke="#00247D" stroke-width="0.06" stroke-miterlimit="2.6"/>
<path d="M23.0801 9.83495L23.3651 9.92995C23.3651 9.92995 23.6351 10.045 23.9801 9.92995L24.2401 9.82995L24.0651 10.1V10.245L24.1701 10.405C24.1701 10.405 24.1051 10.435 23.9001 10.305C23.9001 10.305 23.6801 10.135 23.4201 10.305C23.4201 10.305 23.2701 10.405 23.1501 10.405L23.3251 10.215L23.2601 10.04L23.0801 9.82495V9.83495Z" fill="#F5CE00" stroke="black" stroke-width="0.06" stroke-miterlimit="2.6"/>
<path d="M21.875 15.8249C21.875 15.8249 21.885 15.8049 21.875 15.7999L21.85 15.8099C21.85 15.8099 21.82 15.8599 21.85 15.9299C21.85 15.9299 21.875 15.9749 21.865 16.0199V16.0399C21.865 16.0399 21.88 16.0349 21.88 16.0199C21.88 16.0199 21.9 15.9799 21.87 15.9299C21.87 15.9299 21.84 15.8599 21.875 15.8249Z" fill="white"/>
<path d="M25.9 10.3849C25.9 10.3849 25.69 10.4949 25.6 10.3699C25.6 10.3699 25.495 10.1499 25.745 10.0699C25.745 10.0699 25.605 9.90991 25.75 9.75991C25.75 9.75991 25.83 9.67991 25.96 9.73491C25.96 9.73491 26.02 9.61991 26.145 9.62491C26.145 9.62491 26.265 9.62491 26.295 9.74991C26.295 9.74991 26.46 9.68991 26.545 9.77991C26.545 9.77991 26.685 9.93991 26.485 10.0699L26.34 10.0849L26.195 10.0149L26.045 10.0599C26.045 10.0599 26.085 10.2199 25.895 10.3849H25.9Z" fill="#D40000" stroke="black" stroke-width="0.06" stroke-linejoin="round"/>
<path d="M24.2402 10.2199C24.2402 10.2199 24.2402 10.2599 24.2002 10.2699C24.2002 10.2699 24.1502 10.2849 24.1252 10.2249V10.2099C24.1252 10.1849 24.1102 10.1099 24.1952 10.0449C24.1952 10.0449 24.3252 9.93991 24.5752 10.0699C24.8163 10.2055 25.0632 10.3306 25.3152 10.4449C25.3152 10.4449 25.4702 10.5249 25.7102 10.5349C25.7102 10.5349 26.0352 10.5599 26.1752 10.3299C26.1752 10.3299 26.2802 10.1549 26.1752 10.0399C26.1752 10.0399 26.1302 9.98991 26.0602 9.99991C26.0238 10.008 25.9917 10.0294 25.9702 10.0599C25.9702 10.0599 25.9202 10.1299 25.9752 10.1849C25.9752 10.1849 26.0552 10.2349 26.0852 10.1349C26.0852 10.1449 26.1102 10.2199 26.0652 10.2799C26.0652 10.2799 25.8652 10.5799 25.3202 10.2749L24.6052 9.86991C24.6052 9.86991 24.2502 9.68491 24.0252 9.97491C24.0252 9.97491 23.8552 10.2149 24.0802 10.3699C24.0802 10.3699 24.2502 10.4699 24.3502 10.3099C24.3502 10.3099 24.4402 10.1549 24.3002 10.0899C24.3002 10.0899 24.1802 10.0299 24.1352 10.1499C24.0852 10.2699 24.2252 10.2999 24.2352 10.2149C24.2352 10.2149 24.2352 10.1949 24.2502 10.2149L24.2402 10.2199Z" fill="#F5CE00" stroke="black" stroke-width="0.06" stroke-miterlimit="2.6"/>
<path d="M21.4 11.4599V11.0099C21.4 10.9699 21.4 10.9499 21.46 10.8999C21.51 10.8599 21.565 10.7849 21.645 10.9849C21.645 10.9849 21.805 10.8099 21.855 10.7849C21.855 10.7849 21.955 10.7099 22.02 10.8199C22.02 10.8199 22.1 10.6899 22.17 10.6599C22.17 10.6599 22.33 10.5599 22.335 10.8699L22.46 10.7499C22.46 10.7499 22.56 10.6749 22.67 10.7849C22.67 10.7849 22.845 10.9649 22.87 11.0149C22.87 11.0149 22.91 11.0649 22.92 11.1499C22.92 11.1499 22.92 11.2499 22.97 11.2999C22.97 11.2999 23.025 11.3499 23.08 11.3599C23.08 11.3599 23.205 11.3649 23.26 11.4899C23.26 11.4899 23.275 11.4649 23.34 12.0499V13.1249L22.62 13.9799L21.465 13.6499L21.005 13.4549L20.895 13.1249L21.345 12.8299L21.585 12.1799L21.51 11.7149L21.4 11.4549V11.4599Z" fill="#E4CB5E" stroke="black" stroke-width="0.06" stroke-miterlimit="2.6"/>
<path d="M24.5801 12.02L24.6401 11.945L24.7651 11.845C24.7651 11.845 24.9651 12.365 24.9751 12.48V12.64C24.9751 12.64 25.2751 12.72 25.3351 13.175L25.0851 13.635L24.6951 13.415L24.5801 13.34V12.02Z" fill="#784421" stroke="black" stroke-width="0.06"/>
<path d="M20.915 15.62C20.915 15.62 20.925 15.605 20.915 15.59L20.89 15.61C20.89 15.61 20.815 15.695 20.88 15.83C20.88 15.83 20.88 15.85 20.895 15.84C20.895 15.84 20.91 15.84 20.895 15.825C20.895 15.825 20.84 15.705 20.915 15.625V15.62Z" fill="white"/>
<path d="M22.0852 15.53C22.0852 15.53 22.0902 15.49 22.0652 15.45C22.0652 15.45 22.0502 15.42 22.0552 15.375M22.3352 10.87C22.3352 10.87 22.3352 10.985 22.3702 11.07C22.4002 11.15 22.5152 11.295 22.5202 11.365" stroke="black" stroke-width="0.06" stroke-miterlimit="10"/>
<path d="M25.05 14.7749C25.05 14.7749 25.23 14.7799 25.325 14.8349C25.425 14.8749 25.495 14.9249 25.6 14.9949C25.6 14.9949 25.65 15.0599 25.86 15.0199C25.86 15.0199 26.22 14.9349 26.22 15.2199C26.22 15.2199 26.655 15.2499 26.48 15.6349C26.48 15.6349 26.36 15.9349 26.11 15.7249C26.11 15.7249 26.27 15.9499 25.96 16.0399C25.96 16.0399 25.74 16.0999 25.675 15.8649C25.675 15.8649 25.635 15.7749 25.725 15.6649C25.725 15.6649 25.62 15.6449 25.55 15.5299C25.55 15.5299 25.775 15.8199 25.525 15.9299C25.525 15.9299 25.21 16.0049 25.19 15.6799C25.19 15.6799 25.215 15.5199 25.09 15.4649C25.09 15.4649 24.84 15.4049 24.73 15.1349C24.73 15.1349 25.09 14.9399 25.055 14.7749H25.05Z" fill="#D40000" stroke="black" stroke-width="0.06" stroke-linejoin="round"/>
<path d="M22.1902 11.37L22.4902 13.76M22.2652 11.365L22.5952 13.595M22.3202 11.355L22.7102 13.565" stroke="black" stroke-width="0.06" stroke-miterlimit="10"/>
<path d="M22.9302 13.3749L23.0402 13.3399L22.3402 10.9399H22.3152L22.9302 13.3749Z" fill="#784421" stroke="black" stroke-width="0.06"/>
<path d="M22.535 11.2649L23.24 13.0399M22.49 11.2899L23.17 13.1399" stroke="black" stroke-width="0.06" stroke-miterlimit="10"/>
<path d="M21.3801 16.08C21.3801 16.08 21.2951 16.005 21.3101 15.865C21.3101 15.865 21.3101 15.835 21.2951 15.83C21.2951 15.83 21.2801 15.825 21.2801 15.86C21.2801 15.86 21.2551 16.005 21.3551 16.085C21.3551 16.085 21.3601 16.1 21.3751 16.095C21.3751 16.095 21.3851 16.095 21.3751 16.08H21.3801Z" fill="white"/>
<path d="M22.575 11.24L23.29 12.86M22.375 11.34L22.825 13.525" stroke="black" stroke-width="0.06" stroke-miterlimit="10"/>
<path d="M26.0001 12.9499C25.6851 12.7699 25.6151 12.3799 25.6151 12.3799C25.5699 12.1389 25.5977 11.8899 25.6951 11.6649C25.8951 11.2349 26.2501 11.1499 26.2501 11.1499C26.2501 11.1499 25.9051 11.3899 25.8101 11.7099C25.8101 11.7099 25.7401 11.9849 25.7801 12.2449C25.8201 12.5199 25.8051 12.4499 25.8701 12.6599L26.0001 12.9599V12.9499Z" fill="#F5CE00" stroke="black" stroke-width="0.06" stroke-miterlimit="2.6"/>
<path d="M24.6351 11.9349L23.3051 12.3599L23.2351 12.9599C22.9201 13.4149 22.2751 13.4949 22.2751 13.4949L22.7751 14.0299L23.7251 14.2299L24.2351 13.8399L24.6951 13.4199C24.6451 13.1949 24.6701 12.8599 24.6701 12.8599C24.6701 12.7999 24.6951 12.6699 24.6951 12.6699C24.6951 12.6699 24.6201 12.1349 24.6351 11.9449V11.9349Z" fill="#784421" stroke="black" stroke-width="0.06"/>
<path d="M23.2501 12.8099C23.2501 12.8099 24.1301 12.5349 24.6501 12.3099M22.8301 13.3099C22.8301 13.3099 23.9301 13.1099 24.6951 12.6699L24.9751 12.4799" stroke="black" stroke-width="0.06" stroke-miterlimit="10"/>
<path d="M24.9751 12.6399L24.6751 12.8599C24.6751 12.8599 23.4501 13.4199 22.5151 13.4399M24.6701 13.2599C24.6701 13.2599 23.7301 13.7499 23.2001 13.7499" stroke="black" stroke-width="0.06" stroke-miterlimit="10"/>
<path d="M25.79 11.8999C25.79 11.8999 26.07 11.7749 26.21 11.8999C26.21 11.8999 26.39 11.7899 26.59 11.8999C26.59 11.8999 26.77 12.0199 26.9 12.1599C26.9 12.1599 26.99 12.2349 26.96 12.4799C26.96 12.4799 26.91 12.6549 26.945 12.7349C26.945 12.7349 27 12.7249 27.12 12.8749C27.12 12.8749 27.285 13.0499 27.42 12.8899C27.42 12.8899 27.38 13.1199 27.12 13.0799C27.12 13.0799 27.24 13.1799 27.135 13.4299C27.135 13.4299 27.055 13.6099 27.185 13.8399C27.185 13.8399 26.955 13.7499 26.965 13.4799C26.965 13.4799 26.985 13.2999 26.915 13.1799C26.915 13.1799 26.985 13.2899 26.83 13.5349C26.83 13.5349 26.71 13.7149 26.81 13.8949C26.81 13.8949 26.585 13.8149 26.61 13.5449C26.625 13.2749 26.76 13.3849 26.675 13.1349C26.675 13.1349 26.655 13.2649 26.59 13.3349C26.5402 13.3769 26.5028 13.4317 26.4816 13.4933C26.4605 13.555 26.4565 13.6212 26.47 13.6849C26.47 13.6849 26.34 13.5149 26.37 13.3449C26.4 13.1699 26.43 13.1249 26.43 13.1249L26.015 12.8849L25.805 12.5099L25.79 11.8999Z" fill="#D40000" stroke="black" stroke-width="0.06" stroke-linejoin="round"/>
<path d="M21.0301 13.42C21.0301 13.42 21.0701 13.235 21.2451 13.3C21.2451 13.3 21.3051 13 21.6301 12.99C21.9551 12.98 21.9701 13.31 21.9701 13.33C21.9701 13.33 22.0701 13.19 22.2251 13.205C22.2251 13.205 22.5001 13.19 22.4051 13.63L22.4551 13.69C22.4551 13.69 22.6601 13.195 23.0901 13.32C23.0901 13.32 23.5101 13.45 23.2401 13.855C23.2401 13.855 23.4501 14.13 23.6201 14.105C23.8001 14.08 23.9551 14.025 24.1301 13.715C24.3101 13.405 24.7151 13.355 24.8151 13.375C24.9151 13.39 25.0001 13.465 25.0151 13.535C25.0151 13.535 25.2301 12.82 26.0051 12.925L26.3151 13.09L26.4351 13.14L26.2551 13.64L25.8351 14.6L25.5051 14.7L25.1651 14.505L25.0451 14.565V14.86L24.5951 15.18L24.2851 15.305L23.9451 15.545L23.8601 15.755C23.8601 15.755 23.6751 15.67 23.4601 15.755L23.3901 15.575L23.1901 15.39L22.4101 15.02L22.2751 14.57L22.1301 14.505L21.9701 14.685L21.7451 14.715L21.3951 14.475L21.0251 13.425L21.0301 13.42Z" fill="white" stroke="#00247D" stroke-width="0.06" stroke-miterlimit="10"/>
<path d="M24.4101 9.89994C24.4101 9.89994 24.1101 9.88994 24.1251 10.1999" stroke="black" stroke-width="0.06" stroke-miterlimit="2.6"/>
<path d="M26.3502 13.165C25.8402 13.005 25.7002 12.45 25.7002 12.45C25.639 12.1917 25.66 11.9208 25.7602 11.675C26.0002 11.125 26.3952 11.125 26.3952 11.125C26.446 11.1176 26.4978 11.1301 26.5397 11.1599C26.5816 11.1897 26.6104 11.2345 26.6202 11.285C26.6402 11.405 26.5551 11.45 26.5551 11.45C26.4201 11.525 26.3301 11.425 26.3301 11.425C26.2701 11.345 26.3151 11.28 26.3151 11.28C26.3501 11.23 26.4151 11.26 26.4151 11.26C26.4801 11.27 26.4651 11.34 26.4651 11.34C26.4651 11.34 26.4851 11.26 26.4051 11.25C26.4051 11.25 26.2451 11.215 26.0651 11.44C26.0651 11.44 25.8301 11.745 25.8301 12.145C25.8301 12.145 25.8001 12.885 26.5651 13.075C26.5651 13.075 26.4852 13.195 26.3352 13.63C26.3352 13.63 26.1701 14.19 26.0151 14.495C26.0151 14.495 25.8002 14.925 25.3202 14.75C25.3202 14.75 25.0401 14.625 25.0401 14.425C25.0401 14.425 25.0251 14.235 25.1901 14.225C25.1901 14.225 25.3552 14.21 25.3552 14.35C25.3552 14.35 25.3552 14.5 25.1802 14.47C25.1802 14.47 25.1202 14.455 25.1252 14.395C25.1252 14.395 25.1351 14.335 25.2151 14.365C25.2901 14.395 25.2151 14.365 25.2151 14.36C25.2151 14.36 25.1852 14.345 25.1552 14.36C25.1552 14.36 25.1252 14.36 25.1252 14.41C25.1252 14.41 25.1252 14.44 25.1602 14.465L25.2452 14.475C25.2452 14.475 25.2952 14.575 25.3952 14.61C25.4549 14.6284 25.5181 14.6326 25.5798 14.6222C25.6414 14.6118 25.6998 14.587 25.7502 14.55C25.8172 14.4919 25.8688 14.418 25.9002 14.335C26.0011 14.1158 26.088 13.8903 26.1602 13.66C26.1602 13.66 26.2501 13.375 26.3301 13.225L26.3502 13.165Z" fill="#F5CE00" stroke="black" stroke-width="0.06" stroke-miterlimit="2.6"/>
<path d="M24.9 14.5699C24.9 14.5699 25 14.5599 25 14.6449C25 14.6449 24.995 14.7649 24.84 14.7399C24.84 14.7399 24.69 14.7099 24.74 14.5399C24.74 14.5399 24.78 14.4249 24.92 14.4399C24.92 14.4399 25.06 14.4399 25.12 14.6299C25.12 14.6299 25.17 14.7949 25.085 14.9299C24.995 15.0799 24.775 15.1799 24.665 15.2299C24.665 15.2299 24.23 15.3949 24.1 15.4949C24.1 15.4949 23.9 15.6399 23.99 15.7749C23.99 15.7749 24.025 15.8299 24.075 15.8299C24.075 15.8299 24.135 15.8299 24.14 15.7699C24.14 15.7699 24.14 15.8049 24.105 15.8199C24.105 15.8199 24.065 15.8399 24.02 15.8049C24.02 15.8049 23.97 15.7549 24.01 15.6849C24.01 15.6849 24.06 15.6049 24.19 15.6549C24.19 15.6549 24.29 15.7099 24.25 15.8199C24.25 15.8199 24.205 15.9249 24.08 15.9199C24.08 15.9199 23.985 15.9199 23.92 15.8599C23.82 15.7549 23.82 15.5599 23.91 15.4599C23.91 15.4599 23.985 15.3549 24.145 15.2799L24.595 15.1049C24.725 15.0499 24.84 14.9899 24.915 14.8999C24.915 14.8999 24.98 14.8299 25.005 14.6999C25.005 14.6999 25.025 14.5999 24.965 14.5799L24.905 14.5649L24.9 14.5699Z" fill="#F5CE00" stroke="black" stroke-width="0.06" stroke-miterlimit="2.6"/>
<path d="M24.9102 14.57C24.9102 14.57 25.0152 14.55 25.0852 14.68C25.0852 14.68 25.1202 14.755 25.1252 14.805M25.1602 14.355C25.1602 14.355 25.0552 14.37 25.1102 14.525C25.1652 14.67 25.2602 14.71 25.2852 14.735" stroke="black" stroke-width="0.06" stroke-miterlimit="2.6"/>
<path d="M23.0802 10.22C23.0802 10.22 23.0802 10.26 23.1302 10.27C23.1302 10.27 23.1702 10.28 23.1952 10.225V10.21C23.1952 10.185 23.2102 10.11 23.1352 10.045C23.1352 10.045 22.9952 9.93995 22.7452 10.07C22.7452 10.07 22.5452 10.17 22.4102 10.25C22.4102 10.25 22.0552 10.44 22.0102 10.45C22.0102 10.45 21.8502 10.53 21.6102 10.54C21.6102 10.54 21.2852 10.565 21.1502 10.335C21.1502 10.335 21.0402 10.16 21.1502 10.045C21.1502 10.045 21.1902 9.99495 21.2602 10.005C21.2902 10.01 21.3202 10.025 21.3502 10.065C21.3502 10.065 21.4002 10.135 21.3452 10.19C21.3452 10.19 21.2652 10.24 21.2352 10.14C21.2352 10.15 21.2202 10.22 21.2602 10.29C21.2602 10.29 21.4602 10.585 22.0002 10.275L22.7152 9.87495C22.7152 9.87495 23.0752 9.68995 23.2952 9.97495C23.2952 9.97495 23.4652 10.215 23.2452 10.375C23.2452 10.375 23.0802 10.475 22.9702 10.315C22.9702 10.315 22.8902 10.165 23.0202 10.095C23.0202 10.095 23.1402 10.035 23.1952 10.155C23.2452 10.275 23.0952 10.305 23.0852 10.22C23.0852 10.22 23.0852 10.2 23.0802 10.22ZM21.3202 12.955C21.6352 12.78 21.7102 12.38 21.7102 12.38C21.7802 11.98 21.6252 11.665 21.6252 11.665C21.4252 11.235 21.0752 11.15 21.0752 11.15C21.0752 11.15 21.4152 11.39 21.5102 11.71C21.5102 11.71 21.5902 11.985 21.5402 12.245C21.5002 12.52 21.5152 12.45 21.4502 12.66L21.3202 12.955Z" fill="#F5CE00" stroke="black" stroke-width="0.06" stroke-miterlimit="2.6"/>
<path d="M22.9202 9.89994C22.9202 9.89994 23.2202 9.88994 23.2002 10.1999" stroke="black" stroke-width="0.06" stroke-miterlimit="2.6"/>
<path d="M20.9651 13.165C21.4801 13.005 21.6151 12.45 21.6151 12.45C21.6779 12.1922 21.6586 11.9213 21.5601 11.675C21.3201 11.125 20.9251 11.125 20.9251 11.125C20.8742 11.1176 20.8225 11.1301 20.7806 11.1599C20.7387 11.1897 20.7099 11.2345 20.7001 11.285C20.6851 11.405 20.7651 11.45 20.7651 11.45C20.9051 11.525 20.9951 11.425 20.9951 11.425C21.0501 11.345 21.0051 11.28 21.0051 11.28C20.9701 11.23 20.9051 11.26 20.9051 11.26C20.8451 11.27 20.8551 11.34 20.8551 11.34C20.8551 11.34 20.8401 11.26 20.9151 11.25C20.9151 11.25 21.0751 11.215 21.2551 11.44C21.2551 11.44 21.4951 11.745 21.4951 12.145C21.4951 12.145 21.5251 12.885 20.7551 13.075C20.7551 13.075 20.8401 13.195 20.9851 13.63C20.9851 13.63 21.1551 14.19 21.3151 14.495C21.3151 14.495 21.5251 14.925 22.0001 14.75C22.0001 14.75 22.2801 14.625 22.2801 14.425C22.2801 14.425 22.3001 14.235 22.1301 14.225C22.1301 14.225 21.9651 14.21 21.9651 14.35C21.9651 14.35 21.9651 14.5 22.1451 14.47C22.1451 14.47 22.2051 14.455 22.1951 14.395C22.1951 14.395 22.1851 14.335 22.1101 14.365C22.0301 14.395 22.1101 14.365 22.1101 14.36C22.1101 14.36 22.1351 14.345 22.1651 14.36C22.1651 14.36 22.1951 14.36 22.1951 14.41C22.1951 14.41 22.1951 14.44 22.1601 14.465L22.0851 14.475C22.0851 14.475 22.0351 14.575 21.9251 14.61C21.8664 14.6297 21.8036 14.6345 21.7426 14.624C21.6815 14.6136 21.624 14.5881 21.5751 14.55C21.5081 14.4919 21.4565 14.418 21.4251 14.335C21.3225 14.1159 21.234 13.8904 21.1601 13.66C21.1601 13.66 21.0701 13.375 21.0001 13.225L20.9701 13.165H20.9651Z" fill="#F5CE00" stroke="black" stroke-width="0.06" stroke-miterlimit="2.6"/>
<path d="M22.4251 14.5699C22.4251 14.5699 22.3251 14.5599 22.3251 14.6449C22.3251 14.6449 22.3251 14.7649 22.4851 14.7399C22.4851 14.7399 22.6351 14.7099 22.5801 14.5399C22.5801 14.5399 22.5451 14.4249 22.4001 14.4399C22.4001 14.4399 22.2651 14.4399 22.2001 14.6299C22.2001 14.6299 22.1551 14.7949 22.2401 14.9299C22.3301 15.0799 22.5501 15.1799 22.6551 15.2299C22.6551 15.2299 23.0901 15.3949 23.2251 15.4949C23.2251 15.4949 23.4201 15.6399 23.3301 15.7749C23.3301 15.7749 23.3001 15.8299 23.2451 15.8299C23.2451 15.8299 23.1851 15.8299 23.1801 15.7699C23.1801 15.7699 23.1801 15.8049 23.2151 15.8199C23.2151 15.8199 23.2601 15.8399 23.3001 15.8049C23.3001 15.8049 23.3501 15.7549 23.3101 15.6849C23.3101 15.6849 23.2601 15.6049 23.1401 15.6549C23.1401 15.6549 23.0301 15.7099 23.0801 15.8199C23.0801 15.8199 23.1151 15.9249 23.2401 15.9199C23.2401 15.9199 23.3401 15.9199 23.4001 15.8599C23.5001 15.7549 23.5001 15.5599 23.4201 15.4599C23.4201 15.4599 23.3351 15.3549 23.1801 15.2799C23.0851 15.2499 22.9051 15.1749 22.7301 15.1049C22.5951 15.0499 22.4801 14.9899 22.4051 14.8999C22.4051 14.8999 22.3401 14.8299 22.3151 14.6999C22.3151 14.6999 22.3001 14.5999 22.3601 14.5799L22.4201 14.5649L22.4251 14.5699Z" fill="#F5CE00" stroke="black" stroke-width="0.06" stroke-miterlimit="2.6"/>
<path d="M22.4101 14.5699C22.4101 14.5699 22.3051 14.5499 22.2401 14.6799C22.2401 14.6799 22.2051 14.7549 22.1951 14.8049M22.1601 14.3549C22.1601 14.3549 22.2701 14.3699 22.2151 14.5249C22.1551 14.6699 22.0651 14.7099 22.0351 14.7349M23.4051 10.1799C23.4051 10.1799 23.6651 10.0149 23.9251 10.1949M21.9401 11.7599C21.9401 11.7599 21.9751 11.6099 21.8101 11.3599C21.8101 11.3599 21.7001 11.1249 21.6501 10.9849M22.0201 10.8199L22.1351 11.1499L22.2851 11.4899" stroke="black" stroke-width="0.06" stroke-miterlimit="2.6"/>
<path d="M22.0601 11.915C22.0601 11.915 22.1601 12.02 22.1501 12.195M21.7451 11.8C21.7451 11.8 21.8501 11.85 21.8401 12.14C21.8401 12.14 21.8351 12.34 21.9901 12.45M21.7251 12.52C21.7251 12.52 22.0601 12.485 22.0851 12.695C22.0851 12.695 22.0851 12.895 22.2051 12.91C22.2051 12.91 22.3701 12.925 22.4051 13.09M21.8351 12.75C21.8351 12.75 21.8951 12.835 21.9551 12.88M22.2651 12.53C22.2651 12.53 22.3451 12.665 22.3651 12.735M22.6301 10.985C22.6301 10.985 22.7101 11.09 22.7851 11.135M22.9401 11.615C22.9401 11.615 23.1101 11.695 23.0901 12.115C23.0901 12.115 23.0601 12.365 23.1351 12.5" stroke="black" stroke-width="0.06" stroke-miterlimit="10"/>
<path d="M22.155 11.3299L22.175 11.3699C22.175 11.3699 22.475 11.3849 22.63 11.1799L22.615 11.1399C22.615 11.1399 22.35 11.1249 22.165 11.3299H22.155Z" fill="#784421" stroke="black" stroke-width="0.06"/>
<path d="M23.2351 12.9249C23.2351 12.9249 24.2651 12.6249 24.6651 12.4449" stroke="black" stroke-width="0.06" stroke-miterlimit="10"/>
<path d="M23.125 11.0249L23.115 10.9949L23.62 10.7949L23.635 10.8349L23.125 11.0249Z" fill="#784421" stroke="black" stroke-width="0.06"/>
<path d="M23.1702 11.005L23.5102 12.67M23.2302 10.99L23.6152 12.64M23.2952 10.96L23.7152 12.605M23.4652 10.9L24.0402 12.13M23.5402 10.88L24.1552 12.09M23.5902 10.85L24.2602 12.065M23.4852 12.685L23.7452 12.605M23.2902 12.525C23.2902 12.525 24.0502 12.3 24.6402 12.065M23.2702 12.6C23.2702 12.6 24.2452 12.35 24.6302 12.16M23.5702 13.39L23.6202 13.555L23.7602 13.505L23.7102 13.35M23.9602 13.285L24.0102 13.435L24.1502 13.39L24.1002 13.24M23.3002 12.36L23.2902 12.15L24.5652 11.765L24.6302 11.945M23.8302 11.985L23.8952 12.175M24.2752 11.855L24.3552 12.035M24.3802 11.82L24.4602 11.985M24.4802 11.785L24.5602 11.965M24.5602 11.765L24.7002 11.685L24.7602 11.84M24.6302 11.725L24.7002 11.89" stroke="black" stroke-width="0.06" stroke-miterlimit="10"/>
<path d="M21.4752 14.1549C21.4752 14.1549 21.2252 13.8999 21.4752 13.6549C21.4752 13.6549 21.2002 13.5249 21.2452 13.3049M21.9252 14.3549C21.9252 14.3549 21.6602 14.3899 21.7402 13.8849C21.7402 13.8849 21.6302 14.0849 21.5952 14.1849C21.5796 14.2347 21.5809 14.2882 21.599 14.337C21.6171 14.3859 21.651 14.4274 21.6952 14.4549C21.7402 14.4849 21.9702 14.5449 22.0452 14.3949M21.6302 13.5849C21.6302 13.5849 21.5252 13.6799 21.6002 13.8549M21.7402 13.6049C21.7402 13.6049 21.7502 13.7799 21.8402 13.8749M21.8152 13.5399C21.8152 13.5399 21.8152 13.7399 21.9602 13.8699M21.8852 13.4699C21.8852 13.4699 21.8852 13.6949 22.0552 13.8399M22.7302 13.8049C22.7302 13.8049 22.8102 13.6099 22.9902 13.6249C22.9902 13.6249 22.9052 13.6649 22.9052 13.7499C22.9052 13.7499 22.8952 13.8999 23.0502 13.9099C23.0502 13.9099 23.1752 13.9299 23.2402 13.8599" stroke="#00247D" stroke-width="0.06" stroke-miterlimit="10"/>
<path d="M23.1551 14.6549C23.1551 14.6549 22.7101 14.4449 22.7551 14.1499C22.7551 14.1499 22.7751 13.9699 22.9551 13.8799M22.8551 14.0699C22.8551 14.0699 22.8151 14.1949 22.9051 14.2849M22.9601 13.9849C22.9601 13.9849 22.9001 14.1249 22.9951 14.2249M23.0701 13.9099C23.0701 13.9099 23.0001 14.0299 23.0801 14.1349M22.6601 14.6849C22.6601 14.6849 22.9001 14.8999 23.0901 14.8999M22.5851 14.7549C22.5851 14.7549 22.8101 14.9349 22.9551 14.9649M22.5051 14.8049C22.5051 14.8049 22.7801 15.0499 22.9551 15.0649M23.6401 15.2949C23.6401 15.2949 23.3651 15.4449 23.5801 15.6049M23.4601 15.1349L23.9101 14.9049M23.5751 15.2149C23.5751 15.2149 24.0251 14.9399 24.1601 14.8799M23.8101 15.2399C23.8101 15.2399 24.1951 14.9799 24.4051 14.8649M24.0651 15.2199C24.0651 15.2199 24.3301 15.0199 24.5901 14.8649M24.6751 14.6099C24.6751 14.6099 24.5451 14.4149 24.1151 14.6099C24.1151 14.6099 24.2801 14.4649 24.5901 14.3499M25.0151 13.5349C25.0151 13.5349 25.0551 13.6899 25.0151 13.7849" stroke="#00247D" stroke-width="0.06" stroke-miterlimit="10"/>
<path d="M24.325 14.2849C24.325 14.2849 24.415 14.1549 24.64 14.0849C24.64 14.0849 24.7 14.2349 24.88 14.2099C24.88 14.2099 25.14 14.1549 25.06 13.8599C25.06 13.8599 25.005 13.6499 24.7 13.6249M25.605 13.2599C25.605 13.2599 25.91 13.3199 25.905 13.5649C25.905 13.5649 25.935 13.9449 25.535 14.0149M25.865 13.4149C25.865 13.4149 25.945 13.2299 26.14 13.1549M25.91 13.0449C25.91 13.0449 25.995 13.1849 26.05 13.1999M25.87 13.1499C25.87 13.1499 25.945 13.2549 25.97 13.2749M25.84 13.2499C25.8612 13.2799 25.8864 13.3068 25.915 13.3299M24.25 11.7899C24.25 11.7899 24.31 11.6899 24.465 11.7299M25.07 12.5199C25.07 12.5199 25.17 12.1299 25.495 12.2699M25.365 12.2399C25.365 12.2399 25.395 12.0599 25.315 11.9649M25.135 12.2249C25.135 12.2249 25.18 12.2999 25.14 12.3599" stroke="#00247D" stroke-width="0.06" stroke-miterlimit="10"/>
<path d="M25.8102 16.2499C25.8102 16.2499 26.1802 16.0849 26.0652 15.7949C26.0652 15.7949 26.0302 15.6949 25.9452 15.7049C25.9452 15.7049 25.8052 15.7099 25.8302 15.9049C25.8302 15.9049 25.8802 16.0949 25.8052 16.2549L25.8102 16.2499Z" fill="#64B4D1" stroke="#00247D" stroke-width="0.06" stroke-miterlimit="2.6"/>
<path d="M25.9402 16.08C25.9402 16.08 26.0252 16.005 26.0152 15.865C26.0152 15.865 26.0052 15.835 26.0152 15.83C26.0152 15.83 26.0352 15.825 26.0352 15.86C26.0352 15.86 26.0602 16.005 25.9652 16.085C25.9652 16.085 25.9602 16.1 25.9452 16.095C25.9452 16.095 25.9352 16.095 25.9452 16.08H25.9402Z" fill="white"/>
<path d="M26.3352 15.9899C26.3352 15.9899 26.5952 15.8299 26.4552 15.5549C26.4552 15.5549 26.4102 15.4799 26.3352 15.4949C26.3352 15.4949 26.1752 15.5449 26.3002 15.7699C26.3002 15.7699 26.3602 15.9149 26.3352 15.9949V15.9899Z" fill="#64B4D1" stroke="#00247D" stroke-width="0.06" stroke-miterlimit="2.6"/>
<path d="M26.4002 15.62C26.4002 15.62 26.3902 15.605 26.4002 15.59L26.4202 15.61C26.4202 15.61 26.4952 15.695 26.4352 15.83C26.4352 15.83 26.4302 15.85 26.4102 15.84V15.825C26.4102 15.825 26.4702 15.705 26.4002 15.625V15.62Z" fill="white"/>
<path d="M25.55 16.18C25.55 16.18 25.26 16.11 25.315 15.805C25.315 15.805 25.345 15.675 25.47 15.695C25.47 15.695 25.62 15.735 25.52 15.925C25.52 15.925 25.465 16.055 25.555 16.18H25.55Z" fill="#64B4D1" stroke="#00247D" stroke-width="0.06" stroke-miterlimit="2.6"/>
<path d="M25.4401 15.8249V15.7999C25.4401 15.7999 25.4601 15.7999 25.4651 15.8099C25.4651 15.8099 25.4951 15.8599 25.4701 15.9299C25.4701 15.9299 25.4451 15.9749 25.4601 16.0199C25.4601 16.0199 25.4601 16.0349 25.4451 16.0399L25.4351 16.0199C25.4351 16.0199 25.4201 15.9799 25.4451 15.9299C25.4451 15.9299 25.4751 15.8599 25.4451 15.8249H25.4401Z" fill="white"/>
<path d="M25.76 15.6149C25.76 15.6149 25.93 15.5199 26.06 15.6299C26.06 15.6299 26.05 15.5699 25.94 15.5449C25.94 15.5449 25.89 15.3849 25.73 15.3999C25.73 15.3999 25.79 15.4799 25.88 15.5399C25.88 15.5399 25.79 15.5499 25.76 15.6149ZM25.88 15.1799C25.88 15.1799 26 15.2649 26.04 15.3199C26.04 15.3199 26.085 15.2599 26.14 15.2299C26.14 15.2299 26.08 15.2149 26.04 15.2449C26.04 15.2449 25.985 15.1949 25.89 15.1799H25.88Z" fill="black"/>
<path d="M25.2401 15.53C25.2401 15.53 25.2251 15.49 25.2551 15.45C25.2551 15.45 25.2751 15.42 25.2651 15.375M26.4351 12.975C26.4351 12.975 26.6101 12.965 26.6351 12.825M26.9351 12.735C26.9351 12.735 26.8751 12.735 26.8251 12.795C26.8251 12.795 26.7801 12.855 26.7251 12.845" stroke="black" stroke-width="0.06" stroke-miterlimit="10"/>
<path d="M26.1802 12.4599C26.1802 12.4599 26.2702 12.4599 26.3152 12.4199C26.3152 12.4199 26.3702 12.3849 26.4002 12.4399C26.4002 12.4399 26.4502 12.5199 26.3602 12.5549C26.3602 12.5549 26.2502 12.6149 26.4252 12.7249C26.4252 12.7249 26.2152 12.6449 26.3052 12.5449C26.3052 12.5449 26.3952 12.4849 26.3552 12.4599C26.3552 12.4599 26.3452 12.4399 26.3102 12.4599C26.2752 12.4899 26.2052 12.4799 26.1802 12.4599Z" fill="black"/>
<path d="M26.3 10.2799C26.3 10.2799 26.34 10.2199 26.325 10.0599C26.305 9.89994 26.455 9.87494 26.505 9.91994C26.505 9.91994 26.565 9.96994 26.505 10.0749C26.4636 10.1657 26.3908 10.2385 26.3 10.2799Z" fill="#64B4D1" stroke="#00247D" stroke-width="0.06" stroke-miterlimit="2.6"/>
<path d="M26.3501 10.15C26.3501 10.15 26.4101 10.095 26.3801 9.96996L26.3901 9.95996H26.4051C26.4051 9.95996 26.4351 10.1 26.3751 10.17C26.3751 10.17 26.3651 10.185 26.3501 10.17V10.15Z" fill="white"/>
<path d="M26.2551 10.2199C26.2551 10.2199 26.2551 10.1499 26.1401 10.0399C26.0201 9.91995 26.1151 9.81995 26.1901 9.81995C26.1901 9.81995 26.2551 9.81995 26.2901 9.93495C26.3127 10.0311 26.3003 10.1321 26.2551 10.2199Z" fill="#64B4D1" stroke="#00247D" stroke-width="0.06" stroke-miterlimit="2.6"/>
<path d="M26.2401 10.07C26.2401 10.07 26.2401 9.99001 26.1301 9.90501V9.88501H26.1501C26.1501 9.88501 26.2651 9.97501 26.2651 10.075C26.2651 10.075 26.2651 10.09 26.2501 10.09C26.2501 10.09 26.2401 10.09 26.2401 10.07Z" fill="white"/>
<path d="M26.1002 10.1649C26.1002 10.1649 26.0652 10.1149 25.9252 10.0599C25.7802 10.0099 25.8152 9.8849 25.8752 9.8599C25.8752 9.8599 25.9402 9.8349 26.0052 9.9149C26.0643 9.98469 26.0963 10.0735 26.0952 10.1649H26.1002Z" fill="#64B4D1" stroke="#00247D" stroke-width="0.06" stroke-miterlimit="2.6"/>
<path d="M26.0301 10.065C26.0301 10.065 26.0001 9.995 25.8701 9.96C25.8701 9.96 25.8601 9.96 25.8601 9.945C25.8601 9.945 25.8601 9.935 25.8751 9.94C25.8751 9.94 26.0201 9.97 26.0601 10.06L26.0551 10.075C26.0551 10.075 26.0401 10.075 26.0351 10.065H26.0301Z" fill="white"/>
<path d="M26.1852 10.2199C26.1852 10.2199 26.1202 10.2449 25.9652 10.1699C25.8102 10.0949 25.7452 10.2249 25.7752 10.2849C25.7752 10.2849 25.8002 10.3649 25.9152 10.3449C26.0169 10.3394 26.113 10.2967 26.1852 10.2249V10.2199Z" fill="#64B4D1" stroke="#00247D" stroke-width="0.06" stroke-miterlimit="2.6"/>
<path d="M25.8301 10.2699C25.8301 10.2699 25.9001 10.3199 26.0251 10.2699H26.0401C26.0401 10.2699 26.0401 10.2799 26.0301 10.2849C26.0301 10.2849 25.9001 10.3449 25.8101 10.2899C25.8101 10.2899 25.8001 10.2899 25.8101 10.2749L25.8301 10.2699Z" fill="white"/>
<path d="M25.9651 9.73499C25.9651 9.73499 26.0351 9.77499 26.0251 9.85999" stroke="black" stroke-width="0.06" stroke-miterlimit="2.6"/>
<path d="M26.3 9.75C26.3 9.75 26.33 9.845 26.3 9.9" stroke="black" stroke-width="0.06" stroke-miterlimit="10"/>
<path d="M21.0102 10.2799C21.0102 10.2799 20.9702 10.2199 20.9852 10.0599C21.0052 9.88993 20.8602 9.87493 20.8102 9.91993C20.8102 9.91993 20.7502 9.96993 20.8002 10.0749C20.8429 10.1666 20.9175 10.2395 21.0102 10.2799Z" fill="#64B4D1" stroke="#00247D" stroke-width="0.06" stroke-miterlimit="2.6"/>
<path d="M20.9551 10.15C20.9551 10.15 20.9051 10.095 20.9251 9.96996V9.95996H20.9051C20.9051 9.95996 20.8801 10.1 20.9401 10.17C20.9401 10.17 20.9501 10.185 20.9551 10.17V10.15Z" fill="white"/>
<path d="M21.06 10.2199C21.06 10.2199 21.06 10.1499 21.18 10.0399C21.295 9.91995 21.2 9.81995 21.13 9.81995C21.13 9.81995 21.05 9.81995 21.03 9.93495C21.0058 10.0305 21.0165 10.1315 21.06 10.2199Z" fill="#64B4D1" stroke="#00247D" stroke-width="0.06" stroke-miterlimit="2.6"/>
<path d="M21.0752 10.07C21.0752 10.07 21.0752 9.99001 21.1752 9.90501C21.1752 9.90501 21.1902 9.89001 21.1752 9.88501H21.1652C21.1652 9.88501 21.0452 9.97501 21.0452 10.075C21.0452 10.075 21.0452 10.09 21.0652 10.09C21.0652 10.09 21.0752 10.09 21.0752 10.07Z" fill="white"/>
<path d="M21.2151 10.1649C21.2151 10.1649 21.2451 10.1149 21.3901 10.0599C21.5301 10.0099 21.4901 9.8849 21.4351 9.8599C21.4351 9.8599 21.3751 9.8349 21.3051 9.9149C21.246 9.98469 21.2141 10.0735 21.2151 10.1649Z" fill="#64B4D1" stroke="#00247D" stroke-width="0.06" stroke-miterlimit="2.6"/>
<path d="M21.2801 10.065C21.2801 10.065 21.3101 9.995 21.4401 9.96C21.4401 9.96 21.4501 9.96 21.4501 9.945C21.4501 9.945 21.4501 9.935 21.4401 9.94C21.4401 9.94 21.2951 9.97 21.2551 10.06V10.075C21.2551 10.075 21.2751 10.075 21.2801 10.065Z" fill="white"/>
<path d="M21.125 10.2199C21.125 10.2199 21.195 10.2449 21.345 10.1699C21.495 10.0949 21.565 10.2249 21.545 10.2849C21.545 10.2849 21.51 10.3649 21.395 10.3449C21.2933 10.3394 21.1972 10.2967 21.125 10.2249V10.2199Z" fill="#64B4D1" stroke="#00247D" stroke-width="0.06" stroke-miterlimit="2.6"/>
<path d="M21.4801 10.2699C21.4801 10.2699 21.4151 10.3199 21.2851 10.2699H21.2751V10.2849C21.2751 10.2849 21.4151 10.3449 21.5001 10.2899C21.5001 10.2899 21.5101 10.2899 21.5001 10.2749L21.4801 10.2699Z" fill="white"/>
<path d="M21.3501 9.73499C21.3501 9.73499 21.2751 9.77499 21.2901 9.85999" stroke="black" stroke-width="0.06" stroke-miterlimit="2.6"/>
<path d="M21.0102 9.75C21.0102 9.75 20.9802 9.845 21.0102 9.9" stroke="black" stroke-width="0.06" stroke-miterlimit="10"/>
<path d="M24.3351 8.88C24.3351 8.88 24.3851 9.015 24.3651 9.14C24.3501 9.26 24.3751 9.285 24.4151 9.31C24.4501 9.325 24.5351 9.29 24.5401 9.2C24.5401 9.2 24.6401 9.39 24.4501 9.515C24.4501 9.515 24.3151 9.6 24.2001 9.495C24.1601 9.45 24.1401 9.345 24.1651 9.245C24.1651 9.245 24.1951 9.11 24.1401 8.97C24.1401 8.97 24.2201 9.05 24.2001 9.215C24.2001 9.215 24.1601 9.515 24.3801 9.495C24.3801 9.495 24.5301 9.495 24.5301 9.315C24.5301 9.315 24.4751 9.375 24.4101 9.355C24.3799 9.34783 24.3537 9.32924 24.3369 9.30314C24.3201 9.27704 24.3141 9.24545 24.3201 9.215C24.3251 9.135 24.3501 9 24.3351 8.88ZM24.1001 9.35C24.1001 9.35 24.0801 9.59 23.8701 9.645C23.8701 9.645 23.9001 9.6 23.8551 9.48C23.8551 9.48 23.8051 9.42 23.8051 9.315C23.8051 9.315 23.7451 9.365 23.8201 9.505C23.8701 9.59 23.8201 9.685 23.8151 9.69C23.7951 9.695 24.1601 9.64 24.0951 9.355L24.1001 9.35ZM23.8201 9.125C23.8201 9.125 23.7651 9.065 23.7601 8.935C23.7601 8.8 23.7351 8.765 23.7151 8.755C23.7151 8.755 23.7401 8.87 23.7351 8.935C23.7307 8.98586 23.7376 9.03706 23.7551 9.085C23.7551 9.085 23.6351 9.1 23.5601 8.935C23.4951 8.77 23.4251 8.785 23.3901 8.785C23.3901 8.785 23.4301 8.79 23.5101 8.935C23.5901 9.085 23.6151 9.12 23.8201 9.12V9.125ZM23.2801 8.775C23.2801 8.775 23.3401 8.935 23.3501 9.015C23.3501 9.015 23.1951 8.965 23.1501 8.84C23.1501 8.84 22.9901 8.89 23.0501 9.075C23.0501 9.075 22.9051 9.025 22.8401 8.915C22.8401 8.915 22.9201 8.975 22.9951 9C22.9951 9 22.9851 8.845 23.1751 8.79C23.1751 8.79 23.2051 8.925 23.3051 8.955L23.2801 8.775ZM23.5301 8.505C23.5301 8.505 23.5901 8.58 23.7001 8.58C23.731 8.58231 23.7619 8.57663 23.7899 8.56349C23.818 8.55035 23.8421 8.53021 23.8601 8.505C23.8601 8.505 23.8551 8.635 23.7001 8.64C23.7001 8.64 23.5351 8.64 23.5351 8.505H23.5301ZM22.8601 9.43L22.9601 9.525C22.9601 9.525 23.0201 9.585 23.0601 9.51C23.0601 9.51 23.1251 9.39 23.2051 9.4C23.2051 9.4 23.1451 9.435 23.0851 9.55C23.0851 9.55 23.0751 9.585 23.0251 9.59C23.0001 9.59 22.9751 9.6 22.9351 9.555C22.9351 9.555 22.9001 9.51 22.8601 9.435V9.43ZM23.6951 7.96C23.5351 7.96 23.6701 8.08 23.6701 8.08C23.6701 8.28 23.5151 8.35 23.4051 8.29C23.2951 8.23 23.3851 8.09 23.3851 8.09C23.3851 8.09 23.2651 8.165 23.3351 8.285C23.4151 8.405 23.6201 8.345 23.6951 8.24C23.7701 8.35 23.9801 8.405 24.0501 8.285C24.1351 8.165 24.0101 8.085 24.0101 8.085C24.0101 8.085 24.1001 8.23 23.9851 8.285C23.8801 8.35 23.7151 8.285 23.7251 8.085C23.7251 8.085 23.8601 7.96 23.7001 7.96H23.6951ZM23.7951 7.74C23.7951 7.74 23.8551 7.84 23.8451 7.99C23.8451 7.99 23.8901 7.84 23.7951 7.745V7.74ZM23.2951 7.975C23.2951 7.975 23.2801 7.865 23.1751 7.855C23.1751 7.855 23.2701 7.92 23.2951 7.975ZM24.0951 7.975C24.0951 7.975 24.1101 7.865 24.2201 7.855C24.2201 7.855 24.1301 7.92 24.1001 7.975H24.0951ZM23.1351 8.135C23.1351 8.135 23.2151 8.16 23.2651 8.1L23.1351 8.135ZM22.8651 7.48C22.8651 7.48 22.9601 7.475 23.0551 7.615C23.0551 7.615 22.9601 7.665 22.9351 7.695C22.9351 7.695 22.9351 7.645 22.9851 7.61C22.9851 7.61 22.9651 7.54 22.8651 7.485V7.48ZM24.4651 7.48C24.4651 7.48 24.3651 7.475 24.2701 7.615C24.2701 7.615 24.3701 7.665 24.3901 7.695C24.3901 7.695 24.3901 7.645 24.3401 7.61C24.3401 7.61 24.3601 7.54 24.4651 7.485V7.48ZM23.7301 7.59C23.7301 7.59 23.8151 7.615 23.9201 7.555C23.9201 7.555 24.0501 7.485 24.1351 7.555C24.1351 7.555 24.0651 7.52 23.9201 7.59C23.9201 7.59 23.7851 7.67 23.7301 7.59Z" fill="black"/>
<path d="M23.8201 7.67997C23.8201 7.67997 23.8901 7.55497 24.1201 7.57997C24.1201 7.57997 24.0551 7.75997 23.8201 7.67997Z" fill="white"/>
<path d="M23.9702 7.69496C23.9923 7.69496 24.0102 7.67034 24.0102 7.63996C24.0102 7.60959 23.9923 7.58496 23.9702 7.58496C23.9481 7.58496 23.9302 7.60959 23.9302 7.63996C23.9302 7.67034 23.9481 7.69496 23.9702 7.69496Z" fill="#784421"/>
<path d="M23.9701 7.67498C23.9839 7.67498 23.9951 7.65931 23.9951 7.63998C23.9951 7.62065 23.9839 7.60498 23.9701 7.60498C23.9563 7.60498 23.9451 7.62065 23.9451 7.63998C23.9451 7.65931 23.9563 7.67498 23.9701 7.67498Z" fill="black"/>
<path d="M23.3401 7.40493C23.3401 7.40493 23.4801 7.41993 23.5701 7.46493C23.5701 7.46493 23.6601 7.52493 23.7601 7.44993C23.7601 7.44993 23.8701 7.37993 23.9451 7.29493C23.9451 7.29493 23.7701 7.40993 23.7051 7.42993C23.7051 7.42993 23.6451 7.37993 23.6301 7.31493C23.6301 7.31493 23.6301 7.26493 23.7301 7.17993C23.7301 7.17993 23.6051 7.21993 23.5801 7.32493C23.596 7.36733 23.6197 7.40634 23.6501 7.43993C23.6501 7.43993 23.6301 7.45493 23.5701 7.40993C23.5701 7.40993 23.4301 7.36993 23.3401 7.40993V7.40493ZM23.7001 8.25493C23.5801 8.35993 23.7001 8.34993 23.7001 8.34993C23.7001 8.34993 23.8201 8.35993 23.7001 8.24993V8.25493ZM23.6301 7.59493C23.6301 7.59493 23.5401 7.61993 23.4301 7.55993C23.4301 7.55993 23.3001 7.48993 23.2151 7.55993C23.2151 7.55993 23.2901 7.52493 23.4301 7.59493C23.4301 7.59493 23.5751 7.67493 23.6301 7.59493Z" fill="black"/>
<path d="M23.54 7.67997C23.54 7.67997 23.465 7.55497 23.24 7.57997C23.24 7.57997 23.3 7.75997 23.54 7.67997Z" fill="white"/>
<path d="M23.3852 7.69496C23.4073 7.69496 23.4252 7.67034 23.4252 7.63996C23.4252 7.60959 23.4073 7.58496 23.3852 7.58496C23.3631 7.58496 23.3452 7.60959 23.3452 7.63996C23.3452 7.67034 23.3631 7.69496 23.3852 7.69496Z" fill="#784421"/>
<path d="M23.3851 7.67498C23.3989 7.67498 23.4101 7.65931 23.4101 7.63998C23.4101 7.62065 23.3989 7.60498 23.3851 7.60498C23.3713 7.60498 23.3601 7.62065 23.3601 7.63998C23.3601 7.65931 23.3713 7.67498 23.3851 7.67498Z" fill="black"/>
<path d="M28.0001 6.52991V14.6099C28.0001 16.7649 23.6901 17.4699 23.6901 17.4699C23.6901 17.4699 19.3701 16.7699 19.3701 14.6099V6.52991H28.0001Z" stroke="black" stroke-width="0.06"/>
<path d="M0 0H16V12H0V0Z" fill="#000066"/>
<path d="M1.875 0L7.975 4.525L14.05 0H16V1.55L10 6.025L16 10.475V12H14L8 7.525L2.025 12H0V10.5L5.975 6.05L0 1.6V0H1.875Z" fill="white"/>
<path d="M10.6 7.025L16 11V12L9.225 7.025H10.6ZM6 7.525L6.15 8.4L1.35 12H0L6 7.525ZM16 0V0.075L9.775 4.775L9.825 3.675L14.75 0H16ZM0 0L5.975 4.4H4.475L0 1.05V0Z" fill="#C8102E"/>
<path d="M6.025 0V12H10.025V0H6.025ZM0 4V8H16V4H0Z" fill="white"/>
<path d="M0 4.825V7.225H16V4.825H0ZM6.825 0V12H9.225V0H6.825Z" fill="#C8102E"/>
</svg>
