<svg width="36" height="24" viewBox="0 0 36 24" fill="none" xmlns="http://www.w3.org/2000/svg">
<g clip-path="url(#clip0_11930_67752)">
<rect width="36" height="24" rx="2" fill="#F7E017"/>
<path d="M0 1.66492V12.3349L36 23V12.3349L0 1.66492Z" fill="white"/>
<path d="M0 7.33496V12.335L37.5 24V19L0 7.33496Z" fill="#000001"/>
<path d="M18.1673 6.03334L18.8956 6.39001L18.4856 5.84L19.0456 5.65667L18.1656 5.20333L18.1656 5.19091C18.2404 5.1748 18.289 5.1392 18.289 5.1C18.289 5.04667 18.199 5 18.0756 5C17.9523 5 17.8623 5.04667 17.8623 5.1C17.8623 5.13365 17.8981 5.16465 17.9556 5.18295V6.81H18.1689L18.1673 6.03334Z" fill="#CF1126"/>
<path d="M17.4556 6.64995C17.5956 6.61995 17.7522 6.61661 17.9022 6.61661V6.84995H18.2222V6.61328C18.2515 6.61464 18.2812 6.61573 18.311 6.61682C18.4274 6.62106 18.5461 6.62539 18.6522 6.64661C18.7504 6.66244 18.8438 6.70002 18.9256 6.75662C18.5622 7.15328 17.2056 7.03662 17.1956 6.74995C17.2743 6.69877 17.3628 6.6647 17.4556 6.64995Z" fill="#CF1126"/>
<path d="M17.1657 6.83991C17.1354 7.21467 17.0336 7.58015 16.8657 7.91658L17.2357 7.57325L17.4924 7.87991L17.7724 7.56658L18.0557 7.83325L18.3291 7.55658L18.6124 7.88991L18.8591 7.61658L19.2791 7.91658C19.2505 7.85444 19.2202 7.79392 19.1899 7.73351C19.0578 7.46989 18.9267 7.20833 18.9457 6.82324C18.5424 7.12324 17.5791 7.17658 17.1657 6.83658V6.83991Z" fill="#CF1126"/>
<path d="M18.0523 7.92996L18.2256 7.79663V8.56575C18.2331 8.55575 18.2399 8.54367 18.2456 8.53005C18.2789 8.44672 18.4122 8.33005 18.5522 8.25672C18.8522 8.10672 19.3756 8.10005 19.7956 8.24672C19.9964 8.3229 20.1842 8.42973 20.3522 8.56339C20.5975 8.73586 20.8671 8.87069 21.1523 8.96339C21.3789 9.03006 21.7856 9.04672 21.9889 8.99672C22.0484 8.98295 22.1085 8.97183 22.1689 8.96339C22.2456 8.96339 22.1156 9.21672 21.9623 9.36672C21.6823 9.64006 21.3189 9.63673 20.8089 9.36339C20.4889 9.19006 20.1089 9.09672 20.1089 9.19006C20.1089 9.21006 20.1289 9.22339 20.1589 9.22339C20.2689 9.22339 20.4823 9.29672 20.7823 9.44006C20.9707 9.54875 21.1774 9.62218 21.3923 9.65673C21.4689 9.65673 21.4723 9.70673 21.3989 9.81339C21.3223 9.92673 21.1923 9.98006 21.0089 9.98006C20.8323 9.98006 20.7323 9.94339 20.5756 9.81339C20.3089 9.59339 19.6556 9.34672 19.6789 9.48006C19.6856 9.50339 19.7156 9.52006 19.7856 9.53006C20.0671 9.59123 20.3306 9.71672 20.5556 9.89673L20.7523 10.0401C20.7889 10.0601 20.7889 10.0667 20.7589 10.1234C20.7123 10.2167 20.5856 10.2867 20.4522 10.3001C20.2789 10.3201 20.1256 10.2667 19.9689 10.1334C19.6356 9.85673 19.3256 9.65673 19.2256 9.65673C19.1422 9.65673 19.1789 9.70339 19.3256 9.78006C19.5153 9.88055 19.6922 10.0037 19.8522 10.1467C19.9189 10.2101 19.9956 10.2701 20.0189 10.2834C20.0822 10.3167 20.0789 10.3634 20.0122 10.4501C19.9456 10.5367 19.8322 10.5767 19.6889 10.5601C19.4022 10.5301 19.1756 10.3934 18.8222 10.0267C18.7382 9.9329 18.6468 9.84595 18.5489 9.76673C18.5022 9.76673 18.5322 9.83006 18.6222 9.93339C18.7356 10.0567 18.7556 10.1267 18.7122 10.2334C18.6756 10.3201 18.6122 10.3434 18.4856 10.3067C18.3522 10.2734 18.3322 10.3067 18.4189 10.4101C18.5456 10.5734 18.5289 10.7667 18.3689 10.9034C18.3358 10.9353 18.2975 10.9612 18.2556 10.9801C18.2422 10.9801 18.2089 10.9467 18.1789 10.9001C18.0789 10.7467 17.9889 10.7467 17.8889 10.9001C17.8678 10.9341 17.8456 10.9675 17.8222 11.0001C17.7885 10.9762 17.7552 10.9517 17.7222 10.9267C17.6089 10.8434 17.5722 10.7667 17.5722 10.6101C17.5722 10.5334 17.5889 10.4901 17.6389 10.4167C17.7189 10.3101 17.7056 10.2767 17.5956 10.3067C17.4189 10.3567 17.3356 10.3134 17.3289 10.1634C17.3289 10.0901 17.3422 10.0601 17.4389 9.94006C17.5189 9.84673 17.5489 9.79673 17.5322 9.78006C17.5156 9.76673 17.4222 9.84673 17.2322 10.0401C17.1131 10.1657 16.9862 10.2837 16.8522 10.3934C16.5256 10.6134 16.2122 10.6467 16.0689 10.4767C15.9956 10.3901 15.9989 10.3434 16.0822 10.2901C16.1353 10.2542 16.1845 10.2129 16.2289 10.1667C16.3923 10.0176 16.5724 9.88781 16.7656 9.78006C16.8856 9.72006 16.9122 9.68006 16.8356 9.68006C16.7356 9.68006 16.4189 9.88673 16.1756 10.1067C16.1056 10.1734 16.0022 10.2467 15.9489 10.2734C15.8006 10.3275 15.6401 10.339 15.4856 10.3067C15.4122 10.2834 15.2756 10.1567 15.2756 10.1101C15.2756 10.1001 15.3089 10.0734 15.3422 10.0501C15.3966 10.0194 15.4479 9.98366 15.4956 9.94339C15.6889 9.77673 16.0556 9.60006 16.3456 9.53673C16.4389 9.52006 16.4022 9.47006 16.2989 9.47673C15.9929 9.53516 15.7064 9.66923 15.4656 9.86673C15.1889 10.0967 14.7722 10.0734 14.6389 9.82339C14.6156 9.78006 14.5989 9.74006 14.6056 9.73339C14.8417 9.67379 15.0699 9.58652 15.2856 9.47339C15.4713 9.36393 15.676 9.29042 15.8889 9.25672C15.9822 9.24006 15.9889 9.19339 15.8989 9.18339C15.7789 9.17006 15.5989 9.23006 15.2822 9.38339C14.8722 9.58673 14.7556 9.62339 14.5422 9.61006C14.3422 9.59673 14.2322 9.54673 14.0756 9.39672C13.9689 9.29672 13.8222 9.04672 13.8489 9.01672C14.0219 9.05311 14.1989 9.06767 14.3756 9.06006C14.6522 9.06006 14.7289 9.05339 14.8756 9.01006C15.1621 8.91926 15.4322 8.78309 15.6756 8.60672C16.0187 8.31647 16.4528 8.15602 16.9022 8.15339C17.3156 8.15339 17.5756 8.24672 17.8089 8.48339C17.8423 8.51676 17.8733 8.54492 17.8989 8.56567V7.81663L18.0523 7.92996Z" fill="#CF1126"/>
<path d="M17.5456 17.5366C16.9008 17.4774 16.2761 17.2811 15.7133 16.9609C15.1505 16.6407 14.6626 16.204 14.2822 15.68C13.4689 14.5733 13.2155 13.11 13.4622 11.7733C13.5955 11.1633 13.8622 10.5533 14.3122 10.1199C13.9412 10.8898 13.8391 11.7619 14.0222 12.5966C14.3222 14.2566 15.7222 15.66 17.3989 15.9033C18.0656 16.0933 18.7489 15.89 19.3822 15.6866C20.7822 15.1933 21.8489 13.8666 21.9756 12.3833C22.0856 11.5833 21.9656 10.7466 21.6023 10.0166C21.8089 10.1266 22.0689 10.5566 22.2223 10.8433C22.7556 11.8766 22.7789 13.1133 22.4656 14.2166C22.0389 15.62 20.9656 16.85 19.5489 17.2966C18.9026 17.4986 18.2246 17.5799 17.5489 17.5366H17.5456Z" fill="#CF1126"/>
<path d="M17.1924 19.02C16.6073 18.9554 16.0444 18.7594 15.5457 18.4467C15.4657 18.3934 15.3924 18.3467 15.379 18.3467C15.3657 18.3467 15.359 18.41 15.359 18.4834C15.359 18.6967 15.2724 18.8034 15.059 18.86C14.8524 18.9134 14.539 18.8067 14.2857 18.5934C14.0455 18.3878 13.7651 18.2346 13.4624 18.1434C13.147 18.0683 12.8151 18.1109 12.529 18.2634C12.5007 18.2832 12.4691 18.2979 12.4357 18.3067C12.399 18.3067 12.4024 18.0767 12.4424 18.0067C12.4924 17.9067 12.6124 17.8133 12.7557 17.7633C12.829 17.7367 12.889 17.7033 12.889 17.6867C12.889 17.6733 12.8624 17.62 12.8324 17.5667C12.7357 17.3967 12.7757 17.2333 12.9457 17.1033C13.119 16.97 13.4124 16.95 13.669 17.0467C13.7124 17.0652 13.7569 17.0808 13.8024 17.0933C13.8357 17.0933 13.8157 17.0433 13.7224 16.9067C13.6157 16.75 13.5924 16.6733 13.6057 16.4833C13.6149 16.367 13.6652 16.2578 13.7477 16.1753C13.8302 16.0929 13.9394 16.0425 14.0557 16.0333C14.249 16.02 14.369 16.0867 14.6557 16.3567C15.4256 17.1316 16.4369 17.6208 17.5224 17.7433C17.7991 17.7767 18.3491 17.76 18.6724 17.71C19.6967 17.5391 20.6464 17.0654 21.3991 16.35C21.6124 16.15 21.7124 16.0967 21.8891 16.0967C22.0391 16.0967 22.1457 16.1433 22.2557 16.2633C22.3557 16.3733 22.3891 16.4767 22.3757 16.6467C22.3691 16.7533 22.3524 16.8033 22.2891 16.91C22.1957 17.06 22.2124 17.0767 22.3957 17.0033C22.6491 16.9033 22.9591 16.95 23.1257 17.11C23.2724 17.25 23.2857 17.39 23.1724 17.5767C23.1291 17.6467 23.0957 17.71 23.0957 17.7233C23.0957 17.7433 23.1291 17.75 23.2791 17.7767C23.4791 17.81 23.5958 17.9567 23.5958 18.1833C23.5958 18.25 23.5858 18.3067 23.5758 18.3067C23.5658 18.3067 23.4891 18.2767 23.4091 18.2434C23.1757 18.1467 23.0424 18.1234 22.7691 18.1267C22.5624 18.1267 22.4924 18.1367 22.3491 18.1833C22.1091 18.2668 21.8882 18.3971 21.6991 18.5667C21.4857 18.7567 21.3524 18.8167 21.1457 18.8134C20.9524 18.8134 20.8224 18.7567 20.7524 18.6467C20.7157 18.5867 20.7091 18.5534 20.7191 18.42C20.7257 18.3334 20.7224 18.2634 20.7191 18.2634C20.7091 18.2634 20.6357 18.31 20.5524 18.3667C20.3621 18.5031 20.1548 18.6141 19.9357 18.6967C19.0584 19.0145 18.1195 19.1251 17.1924 19.02Z" fill="#CF1126"/>
<path d="M10.9282 15.8502C10.8949 15.7636 10.9882 15.6802 11.0715 15.6936C11.1154 15.6984 11.1539 15.7175 11.1922 15.7366C11.2063 15.7436 11.2205 15.7506 11.2349 15.7569C11.3876 15.8257 11.5491 15.8728 11.7149 15.8969C11.9426 15.915 12.1717 15.8925 12.3915 15.8302C12.4315 15.8182 12.4715 15.8041 12.5115 15.79C12.5715 15.7688 12.6315 15.7475 12.6915 15.7336C12.7615 15.7202 12.8382 15.7936 12.7949 15.8636C12.7578 15.9684 12.6466 16.0048 12.5509 16.0361L12.5282 16.0436C12.3466 16.1098 12.1548 16.1436 11.9615 16.1436C11.6981 16.1605 11.4341 16.1196 11.1882 16.0236C11.0949 15.9836 10.9882 15.9369 10.9282 15.8502Z" fill="#CF1126"/>
<path d="M11.1649 15.3469C11.0816 15.3336 11.0082 15.4336 11.0416 15.5136C11.1082 15.6069 11.2182 15.6569 11.3216 15.7002C11.5018 15.7709 11.6947 15.8038 11.8882 15.7969H11.9382C12.1028 15.7976 12.2659 15.7659 12.4182 15.7036L12.4434 15.6935C12.5283 15.6597 12.6252 15.6211 12.6616 15.5302C12.6916 15.4736 12.6682 15.3936 12.5949 15.3869C12.5573 15.3869 12.5211 15.4026 12.4845 15.4184C12.4627 15.4278 12.4407 15.4373 12.4182 15.4436C12.2011 15.5332 11.9657 15.5698 11.7316 15.5502C11.5849 15.5336 11.4482 15.4802 11.3149 15.4169C11.2992 15.4096 11.2842 15.401 11.2693 15.3924C11.2364 15.3736 11.2038 15.3548 11.1649 15.3502V15.3469Z" fill="#CF1126"/>
<path d="M11.1716 15.1534C11.1583 15.09 11.2083 15.0067 11.2816 15.0167C11.3143 15.0228 11.3419 15.0415 11.37 15.0604C11.3877 15.0723 11.4056 15.0843 11.4249 15.0934C11.5566 15.1746 11.707 15.2205 11.8616 15.2267C12.0417 15.225 12.2188 15.1805 12.3783 15.0967C12.3903 15.0924 12.4026 15.0863 12.4152 15.0801C12.451 15.0623 12.4887 15.0436 12.5283 15.0634C12.5783 15.09 12.5716 15.1534 12.5583 15.1967C12.5283 15.2934 12.4316 15.3367 12.3483 15.37C12.2235 15.4305 12.0869 15.4623 11.9483 15.4634H11.8949C11.6744 15.4745 11.4564 15.4124 11.2749 15.2867C11.2316 15.2534 11.1816 15.2134 11.1716 15.1534Z" fill="#CF1126"/>
<path d="M10.0549 10.1201C9.98286 10.1944 9.99753 10.3099 10.0115 10.4201C10.0183 10.473 10.0248 10.5247 10.0216 10.5701C10.0816 11.0101 10.1516 11.4535 10.3149 11.8701C10.4288 12.0979 10.6161 12.2662 10.8037 12.4347C10.9457 12.5622 11.0877 12.6899 11.1983 12.8435C11.2639 12.9631 11.2669 13.1008 11.2699 13.2382C11.2711 13.296 11.2723 13.3538 11.2783 13.4101C11.2916 13.9201 11.2883 14.4335 11.2783 14.9435C11.5116 15.0635 11.7616 15.1768 12.0283 15.1335C12.056 15.127 12.088 15.1209 12.1221 15.1145C12.2806 15.0844 12.4842 15.0458 12.5116 14.9168L12.4783 12.2668C12.4105 12.0633 12.2366 11.9337 12.0681 11.808C12.0129 11.7669 11.9584 11.7262 11.9083 11.6835C11.7383 11.5157 11.5802 11.3364 11.4349 11.1468C11.3483 10.9968 11.0049 10.9468 11.1283 11.2001C11.1613 11.3006 11.2165 11.3889 11.2716 11.4769C11.3389 11.5846 11.4059 11.6917 11.4316 11.8201C11.4348 11.8617 11.453 11.9142 11.4719 11.9687C11.5121 12.0848 11.5556 12.2102 11.4649 12.2601C11.3828 12.1152 11.2584 11.9989 11.1083 11.9268C11.0619 11.892 11.0059 11.8636 10.9492 11.8348C10.8267 11.7726 10.7014 11.709 10.6649 11.5768C10.6169 11.3018 10.4894 11.0469 10.2983 10.8435C10.3483 10.5968 10.2983 10.2868 10.0849 10.1268L10.0549 10.1201Z" fill="#CF1126"/>
<path d="M10.3349 10.3768C10.2916 10.3102 10.2849 10.1868 10.3849 10.1702C10.4449 10.1735 10.4849 10.2302 10.5116 10.2768C10.5983 10.4668 10.5983 10.6802 10.5983 10.8835C10.7109 10.9563 10.7807 11.0786 10.847 11.1945L10.8483 11.1968L10.8573 11.2148C10.9148 11.3295 10.9754 11.4505 10.9849 11.5835C11.1183 11.6102 11.2316 11.6968 11.3249 11.7968C11.379 11.8482 11.3958 11.9192 11.4126 11.9904C11.4166 12.0071 11.4205 12.0237 11.4249 12.0402C11.4423 12.0981 11.427 12.0805 11.403 12.0531L11.3916 12.0402C11.2938 11.9535 11.1812 11.8905 11.0686 11.8276C11.0124 11.7961 10.9561 11.7646 10.9016 11.7302C10.8856 11.7188 10.8678 11.7082 10.8497 11.6976C10.7885 11.6615 10.7249 11.624 10.7249 11.5468C10.6768 11.2775 10.5544 11.027 10.3716 10.8235C10.397 10.6739 10.3843 10.5203 10.3349 10.3768Z" fill="#CF1126"/>
<path d="M10.6616 10.25C10.5949 10.27 10.6082 10.3567 10.6282 10.4067C10.6573 10.5514 10.6685 10.6992 10.6616 10.8467C10.7913 10.9465 10.8679 11.0927 10.9411 11.2325C10.9878 11.3258 11.0282 11.4267 11.0449 11.53C11.1482 11.5633 11.2382 11.63 11.3182 11.6967C11.2973 11.6382 11.2634 11.5875 11.2286 11.5357C11.2079 11.5049 11.1869 11.4736 11.1682 11.44C11.1182 11.35 11.0682 11.2533 11.0449 11.15C10.9449 11.0467 10.8916 10.8967 10.9116 10.75C10.9182 10.5933 10.8682 10.43 10.7616 10.31C10.7349 10.2833 10.7016 10.2533 10.6616 10.25Z" fill="#CF1126"/>
<path d="M10.9015 10.3618C10.9205 10.3332 10.9404 10.3031 10.9782 10.2968H10.9749C10.9882 10.2935 11.0015 10.3001 11.0082 10.3068C11.0528 10.347 11.0851 10.399 11.1015 10.4568C11.1582 10.6035 11.1815 10.7635 11.1949 10.9235C11.2062 10.949 11.1861 10.948 11.1696 10.9471L11.1615 10.9468C11.1349 10.9485 11.1093 10.9583 11.0885 10.975C11.0676 10.9917 11.0524 11.0145 11.0449 11.0401C11.0049 10.9735 10.9749 10.8901 10.9782 10.8068C10.9911 10.6892 10.9751 10.5702 10.9315 10.4601C10.9288 10.4466 10.9212 10.4336 10.9137 10.4209C10.9028 10.4024 10.8923 10.3846 10.8982 10.3668L10.9015 10.3618Z" fill="#CF1126"/>
<path d="M24.9327 15.6936C25.0161 15.6802 25.1094 15.7636 25.0761 15.8502C25.0161 15.9369 24.9094 15.9836 24.8161 16.0236C24.5702 16.1196 24.3062 16.1605 24.0427 16.1436C23.8495 16.1436 23.6577 16.1098 23.4761 16.0436L23.4533 16.0361C23.3577 16.0048 23.2464 15.9684 23.2094 15.8636C23.1661 15.7936 23.2427 15.7202 23.3127 15.7336C23.3727 15.7476 23.4327 15.7687 23.4927 15.7899C23.5327 15.8041 23.5727 15.8182 23.6127 15.8302C23.8325 15.8925 24.0617 15.915 24.2894 15.8969C24.4551 15.8728 24.6167 15.8257 24.7694 15.7569C24.7838 15.7506 24.7979 15.7436 24.812 15.7366C24.8504 15.7175 24.8889 15.6984 24.9327 15.6936Z" fill="#CF1126"/>
<path d="M24.9627 15.5136C24.9961 15.4336 24.9227 15.3336 24.8394 15.3469V15.3502C24.8005 15.3548 24.7678 15.3736 24.735 15.3924C24.72 15.401 24.705 15.4096 24.6894 15.4169C24.5561 15.4802 24.4194 15.5336 24.2727 15.5502C24.0386 15.5698 23.8032 15.5332 23.586 15.4436C23.5636 15.4373 23.5416 15.4278 23.5198 15.4184C23.4832 15.4026 23.4469 15.3869 23.4094 15.3869C23.336 15.3936 23.3127 15.4736 23.3427 15.5302C23.3791 15.6211 23.476 15.6597 23.5609 15.6935L23.586 15.7036C23.7384 15.7659 23.9015 15.7976 24.066 15.7969H24.116C24.3096 15.8038 24.5024 15.7709 24.6827 15.7002C24.7861 15.6569 24.8961 15.6069 24.9627 15.5136Z" fill="#CF1126"/>
<path d="M24.7228 15.0167C24.7961 15.0067 24.8461 15.09 24.8328 15.1534C24.8228 15.2134 24.7728 15.2534 24.7295 15.2867C24.548 15.4124 24.33 15.4745 24.1095 15.4634H24.0561C23.9175 15.4623 23.7809 15.4305 23.6561 15.37C23.5728 15.3367 23.4761 15.2934 23.4461 15.1967C23.4328 15.1534 23.4261 15.09 23.4761 15.0634C23.5157 15.0436 23.5534 15.0623 23.5892 15.0801C23.6018 15.0863 23.6141 15.0924 23.6261 15.0967C23.7856 15.1805 23.9627 15.225 24.1428 15.2267C24.2974 15.2205 24.4478 15.1746 24.5795 15.0934C24.5988 15.0843 24.6167 15.0723 24.6344 15.0604C24.6624 15.0415 24.6901 15.0228 24.7228 15.0167Z" fill="#CF1126"/>
<path d="M25.9929 10.4201C26.0069 10.3099 26.0215 10.1944 25.9495 10.1201L25.9195 10.1268C25.7061 10.2868 25.6561 10.5968 25.7061 10.8435C25.5149 11.0469 25.3875 11.3018 25.3395 11.5768C25.303 11.709 25.1777 11.7726 25.0552 11.8348C24.9985 11.8636 24.9425 11.892 24.8961 11.9268C24.746 11.9989 24.6216 12.1152 24.5395 12.2601C24.4488 12.2102 24.4923 12.0848 24.5325 11.9687C24.5514 11.9142 24.5696 11.8617 24.5728 11.8201C24.5985 11.6917 24.6655 11.5846 24.7328 11.4769C24.7879 11.3889 24.8431 11.3006 24.8761 11.2001C24.9995 10.9468 24.6561 10.9968 24.5695 11.1468C24.4242 11.3364 24.2661 11.5157 24.0961 11.6835C24.046 11.7262 23.9915 11.7669 23.9363 11.808C23.7678 11.9337 23.5939 12.0633 23.5261 12.2668L23.4928 14.9168C23.5202 15.0458 23.7238 15.0844 23.8823 15.1145C23.9164 15.1209 23.9484 15.127 23.9761 15.1335C24.2428 15.1768 24.4928 15.0635 24.7261 14.9435C24.7161 14.4335 24.7128 13.9201 24.7261 13.4101C24.732 13.3539 24.7333 13.2961 24.7345 13.2383C24.7375 13.101 24.7405 12.9631 24.8061 12.8435C24.9167 12.6899 25.0587 12.5622 25.2007 12.4347C25.3883 12.2662 25.5756 12.0979 25.6895 11.8701C25.8528 11.4535 25.9228 11.0101 25.9828 10.5701C25.9796 10.5247 25.9861 10.473 25.9929 10.4201Z" fill="#CF1126"/>
<path d="M25.6195 10.1702C25.7195 10.1868 25.7128 10.3102 25.6695 10.3768C25.62 10.5203 25.6074 10.6739 25.6328 10.8235C25.45 11.027 25.3276 11.2775 25.2795 11.5468C25.2795 11.624 25.2159 11.6615 25.1547 11.6976C25.1366 11.7082 25.1188 11.7188 25.1028 11.7302C25.0483 11.7646 24.992 11.7961 24.9357 11.8276C24.8232 11.8905 24.7106 11.9535 24.6128 12.0402L24.6014 12.0531C24.5774 12.0805 24.5621 12.0981 24.5794 12.0402C24.5839 12.0237 24.5878 12.0071 24.5918 11.9904C24.6086 11.9192 24.6254 11.8482 24.6794 11.7968C24.7728 11.6968 24.8861 11.6102 25.0194 11.5835C25.029 11.4505 25.0896 11.3295 25.1471 11.2148L25.1561 11.1968L25.1574 11.1945C25.2237 11.0785 25.2935 10.9564 25.4061 10.8835C25.4061 10.6802 25.4061 10.4668 25.4928 10.2768C25.5195 10.2302 25.5595 10.1735 25.6195 10.1702Z" fill="#CF1126"/>
<path d="M25.3761 10.4067C25.3961 10.3567 25.4094 10.27 25.3427 10.25C25.3027 10.2533 25.2694 10.2833 25.2427 10.31C25.1361 10.43 25.0861 10.5933 25.0927 10.75C25.1127 10.8967 25.0594 11.0467 24.9594 11.15C24.9361 11.2533 24.8861 11.35 24.8361 11.44C24.8174 11.4736 24.7964 11.5048 24.7757 11.5357C24.741 11.5875 24.7069 11.6382 24.686 11.6967C24.766 11.63 24.8561 11.5633 24.9594 11.53C24.9761 11.4267 25.0161 11.3267 25.0627 11.2333C25.1359 11.0936 25.213 10.9465 25.3427 10.8467C25.3357 10.6992 25.3469 10.5514 25.3761 10.4067Z" fill="#CF1126"/>
<path d="M25.0261 10.2968C25.0639 10.3031 25.0838 10.3332 25.1027 10.3618L25.1061 10.3668C25.112 10.3846 25.1015 10.4024 25.0906 10.4209C25.0831 10.4336 25.0754 10.4466 25.0727 10.4601C25.0292 10.5702 25.0132 10.6892 25.0261 10.8068C25.0294 10.8901 24.9994 10.9735 24.9594 11.0401C24.9519 11.0145 24.9367 10.9917 24.9158 10.975C24.8949 10.9583 24.8694 10.9485 24.8427 10.9468L24.8347 10.9471C24.8181 10.948 24.798 10.949 24.8094 10.9235C24.8227 10.7635 24.8461 10.6035 24.9027 10.4568C24.9192 10.399 24.9515 10.347 24.9961 10.3068C25.0027 10.3001 25.0161 10.2935 25.0294 10.2968H25.0261Z" fill="#CF1126"/>
<path d="M17.2437 15.6424C17.4203 15.7842 17.6338 15.8724 17.859 15.8968C18.0056 15.9101 18.1523 15.9035 18.299 15.8768C18.5438 15.8322 18.7654 15.7037 18.9256 15.5135C19.0293 15.3909 19.1126 15.2525 19.1723 15.1035C19.1596 15.0716 19.1156 15.098 19.0725 15.1239C19.048 15.1386 19.0238 15.1532 19.0056 15.1568C18.9569 15.1877 18.9025 15.2043 18.848 15.221C18.7909 15.2385 18.7335 15.256 18.6823 15.2901L18.6493 15.3183C18.5501 15.4031 18.449 15.4895 18.329 15.5435C18.219 15.5901 18.2456 15.4401 18.2856 15.3901C18.3284 15.2586 18.2447 15.1271 18.1752 15.018L18.1723 15.0135C18.1559 14.9981 18.1395 14.9724 18.1224 14.9456C18.0874 14.8907 18.0493 14.8311 18.0023 14.8468C17.9023 14.9635 17.8056 15.0835 17.7456 15.2201C17.7056 15.3001 17.7356 15.3868 17.779 15.4535C17.8156 15.5835 17.629 15.5035 17.5756 15.4635C17.5237 15.4344 17.4802 15.3942 17.437 15.3543C17.386 15.3072 17.3355 15.2605 17.2723 15.2335C17.1781 15.2249 17.0869 15.1952 17.0056 15.1468C16.9905 15.1433 16.9696 15.1271 16.9484 15.1107C16.9091 15.0803 16.8688 15.0491 16.8623 15.0968C16.9348 15.3113 17.0671 15.5007 17.2437 15.6424Z" fill="#CF1126"/>
<path d="M18.3857 15.37C18.3957 15.28 18.3757 15.19 18.329 15.1034C18.259 14.9634 18.1624 14.8367 18.0624 14.7067C17.9991 14.6706 17.9558 14.7399 17.9158 14.804C17.8967 14.8345 17.8784 14.8639 17.859 14.88C17.8459 14.8994 17.8324 14.9189 17.8188 14.9385C17.7319 15.0636 17.6414 15.194 17.6357 15.3467C17.59 15.4181 17.51 15.3181 17.4608 15.2566C17.4526 15.2464 17.4452 15.2372 17.439 15.23C17.3502 15.1158 17.3031 14.9747 17.3057 14.83C17.2976 14.5953 17.3385 14.3614 17.4257 14.1434C17.442 14.0977 17.4605 14.0524 17.479 14.0071C17.5361 13.8674 17.5932 13.7277 17.5857 13.5767C17.5924 13.42 17.5624 13.2533 17.439 13.15C17.319 13.0567 17.5157 13.0367 17.5757 13.0833C17.6241 13.0879 17.6622 13.1261 17.6985 13.1624C17.742 13.2061 17.7829 13.247 17.8357 13.2233C17.8461 13.1977 17.8544 13.1704 17.8628 13.1429C17.8837 13.0739 17.9052 13.0034 17.9624 12.9533C18.039 12.8467 18.119 12.9967 18.1457 13.07C18.1705 13.0963 18.1736 13.1411 18.1765 13.1835C18.1802 13.2379 18.1837 13.2881 18.2324 13.29C18.2679 13.2645 18.3001 13.2337 18.3324 13.203C18.3968 13.1415 18.4612 13.08 18.5524 13.06C18.609 13.0267 18.7024 13.06 18.629 13.12C18.529 13.2167 18.4424 13.3333 18.4224 13.4767C18.3924 13.6533 18.4357 13.8334 18.5124 13.99C18.6624 14.3034 18.779 14.6567 18.7024 15.0067C18.669 15.16 18.5624 15.2934 18.4357 15.3834C18.419 15.3934 18.3924 15.3934 18.3857 15.37Z" fill="#CF1126"/>
<path d="M18.039 12.7835C18.1172 12.8471 18.1808 12.9266 18.2257 13.0168L18.2295 13.0238L18.2361 13.0365C18.2487 13.0607 18.2614 13.0852 18.2824 13.1035C18.3824 13.0568 18.479 12.9835 18.509 12.8702C18.556 12.6825 18.5617 12.4869 18.5257 12.2968C18.5081 12.199 18.4733 12.1069 18.4381 12.0139C18.4133 11.9484 18.3883 11.8823 18.369 11.8135C18.3417 11.7105 18.3389 11.6026 18.3609 11.4984C18.3829 11.3942 18.4291 11.2966 18.4957 11.2135C18.5077 11.1895 18.5305 11.1663 18.5534 11.1431C18.594 11.1019 18.6349 11.0604 18.6157 11.0135C18.5745 10.9938 18.529 10.985 18.4835 10.9879C18.438 10.9908 18.394 11.0054 18.3557 11.0302C18.3225 11.0483 18.2961 11.076 18.2698 11.1036C18.2379 11.137 18.2061 11.1704 18.1624 11.1868C18.1181 11.1638 18.1162 11.1127 18.1141 11.0587C18.1122 11.0111 18.1103 10.9612 18.079 10.9268C18.0357 10.8135 17.929 10.9168 17.929 10.9968C17.9172 11.0192 17.9142 11.0514 17.9112 11.0835C17.9066 11.1326 17.902 11.1814 17.8657 11.1935C17.844 11.1744 17.8233 11.1536 17.8028 11.1329C17.7444 11.0743 17.6861 11.0157 17.6024 10.9935C17.5524 10.9835 17.419 10.9568 17.4124 11.0068C17.4383 11.0403 17.4664 11.073 17.4946 11.1058C17.5785 11.2034 17.6632 11.302 17.6957 11.4268C17.7324 11.5735 17.7457 11.7368 17.689 11.8802L17.6667 11.9368C17.5829 12.149 17.4965 12.3676 17.5057 12.6002C17.5057 12.7568 17.529 12.9468 17.679 13.0335C17.7646 13.116 17.811 13.0247 17.8464 12.955L17.8557 12.9368C17.8701 12.9224 17.8842 12.9047 17.8988 12.8864C17.9382 12.8368 17.9806 12.7835 18.039 12.7835Z" fill="#CF1126"/>
<path d="M16.3811 15.9C16.3905 15.8484 16.4749 15.8437 16.4749 15.8906C16.4749 15.9094 16.4514 15.9281 16.428 15.9328C16.3811 15.9375 16.3764 15.9281 16.3811 15.9Z" fill="#F7E017"/>
<path d="M20.1217 15.5156C20.1546 15.4875 20.2202 15.5156 20.2108 15.5625C20.2061 15.5812 20.1874 15.6 20.1686 15.6094C20.1217 15.614 20.0889 15.5531 20.1217 15.5156Z" fill="#F7E017"/>
<path d="M14.4311 14.939C14.4546 15.0515 14.4546 15.0562 14.3983 15.1031C14.3186 15.1687 14.2671 15.1687 14.1311 15.089C13.878 14.9437 13.7327 14.6578 13.7936 14.4234C13.8546 14.2172 13.9999 14.0953 14.1827 14.1234C14.2999 14.1422 14.3046 14.1703 14.1827 14.189C14.0092 14.2078 13.9296 14.3109 13.9296 14.5172C13.9225 14.5972 13.934 14.6778 13.9633 14.7526C13.9926 14.8274 14.0388 14.8944 14.0983 14.9484C14.2717 15.1031 14.3327 15.075 14.2858 14.8687C14.2483 14.6906 14.2671 14.6578 14.4217 14.6578C14.5024 14.6555 14.5825 14.6715 14.6561 14.7047C14.7733 14.7609 14.928 14.9156 14.928 14.9765C14.928 15.0234 14.7874 15.1547 14.7405 15.1547C14.6796 15.1547 14.6796 15.089 14.7405 15.0328C14.769 15.0066 14.7831 14.9937 14.7857 14.9788C14.7883 14.9643 14.7801 14.9479 14.7639 14.9156C14.7217 14.8359 14.5296 14.7328 14.4546 14.7515C14.3983 14.7656 14.3936 14.7844 14.4311 14.939Z" fill="#F7E017"/>
<path d="M21.3827 14.775C21.3827 14.7984 21.3733 14.8312 21.3592 14.8453C21.3077 14.8969 21.2749 14.8687 21.2889 14.7844C21.2983 14.7422 21.2889 14.7234 21.2327 14.6906C21.1717 14.6578 21.1671 14.6437 21.1717 14.564C21.1811 14.4469 21.2655 14.3765 21.3546 14.414C21.4202 14.4469 21.4155 14.4844 21.3358 14.5219C21.303 14.5359 21.2796 14.5594 21.2796 14.5687C21.2796 14.6109 21.3171 14.6109 21.3733 14.564C21.4249 14.5265 21.4952 14.5219 21.4952 14.564C21.4817 14.5981 21.4627 14.6298 21.4389 14.6578C21.4108 14.6953 21.3827 14.7515 21.3827 14.775Z" fill="#F7E017"/>
<path d="M22.0999 14.6625C22.0999 14.6765 22.0624 14.7281 22.0155 14.7703H22.0108C21.9639 14.8172 21.9171 14.8547 21.9124 14.8547C21.903 14.8547 21.8608 14.8078 21.8186 14.7609C21.6733 14.5828 21.5233 14.4328 21.4671 14.4047C21.4202 14.3812 21.4061 14.3578 21.4061 14.2969C21.4061 14.2453 21.4155 14.2265 21.4389 14.2265C21.6192 14.3606 21.7707 14.5296 21.8842 14.7234C21.89 14.7234 21.903 14.7145 21.9209 14.7021C21.932 14.6944 21.9449 14.6855 21.9592 14.6765C22.0436 14.6062 22.0296 14.5312 21.9124 14.4C21.8421 14.3203 21.8186 14.2734 21.8186 14.2265C21.8186 14.1844 21.828 14.1609 21.8467 14.1609C21.8608 14.1609 21.9311 14.2219 22.0014 14.3015C22.1421 14.4422 22.1936 14.4656 22.2264 14.3953C22.2686 14.325 22.1983 14.1937 22.0389 14.0531C21.9077 13.9312 21.8561 13.8937 21.7671 13.8656C21.7202 13.8515 21.7155 13.6781 21.7624 13.6781C21.8583 13.741 21.9478 13.8132 22.0296 13.8937C22.1983 14.0484 22.278 14.1375 22.3014 14.1984C22.3671 14.3625 22.3342 14.4656 22.1936 14.5687C22.1421 14.6062 22.0999 14.6484 22.0999 14.6625Z" fill="#F7E017"/>
<path d="M21.8467 13.4672C21.8842 13.4672 22.2874 13.875 22.3061 13.9359L22.3108 14.0015C22.3014 14.0062 22.2171 13.9406 22.1233 13.8469C22.0296 13.7531 21.9264 13.6734 21.8889 13.6594C21.8374 13.65 21.8233 13.6359 21.8233 13.5562C21.8186 13.4906 21.8233 13.4672 21.8467 13.4672Z" fill="#F7E017"/>
<path d="M19.9199 18.5895C19.9209 18.5803 19.9194 18.571 19.9155 18.5625H19.9202C19.9228 18.5541 19.9232 18.5453 19.9215 18.5367C19.9198 18.5282 19.9159 18.5201 19.9102 18.5132C19.9046 18.5062 19.8972 18.5006 19.8888 18.4967C19.8803 18.4928 19.871 18.4908 19.8616 18.4908C19.8522 18.4908 19.8429 18.4928 19.8344 18.4967C19.826 18.5006 19.8186 18.5062 19.8129 18.5132C19.8073 18.5201 19.8034 18.5282 19.8017 18.5367C19.8 18.5453 19.8004 18.5541 19.803 18.5625C19.7991 18.571 19.7976 18.5803 19.7986 18.5895C19.7996 18.5988 19.803 18.6076 19.8085 18.6153C19.8141 18.623 19.8216 18.6293 19.8305 18.6337C19.8393 18.6381 19.8492 18.6404 19.8592 18.6404C19.8693 18.6404 19.8792 18.6381 19.888 18.6337C19.8968 18.6293 19.9044 18.623 19.91 18.6153C19.9155 18.6076 19.9189 18.5988 19.9199 18.5895Z" fill="#F7E017"/>
<path d="M20.1133 18.5319C20.1247 18.5214 20.1311 18.5071 20.1311 18.4922C20.1311 18.4772 20.1247 18.4629 20.1133 18.4524C20.1018 18.4418 20.0863 18.4359 20.0702 18.4359C20.054 18.4359 20.0385 18.4418 20.0271 18.4524C20.0157 18.4629 20.0092 18.4772 20.0092 18.4922C20.0092 18.5071 20.0157 18.5214 20.0271 18.5319C20.0385 18.5425 20.054 18.5484 20.0702 18.5484C20.0863 18.5484 20.1018 18.5425 20.1133 18.5319Z" fill="#F7E017"/>
<path d="M16.4092 16.5186L16.4236 16.5091C16.5218 16.444 16.5224 16.4436 16.5358 16.2421C16.5499 16.1014 16.5499 16.0874 16.5077 16.0874C16.4514 16.0874 16.4186 16.1483 16.4186 16.2702C16.4186 16.3452 16.4092 16.3827 16.3717 16.4249C16.2686 16.5186 16.0249 16.4764 15.9967 16.3546C15.9874 16.3124 15.9967 16.2749 16.0483 16.2046C16.1561 16.0546 16.1327 16.0171 16.0014 16.1296C15.9077 16.2093 15.8936 16.2093 15.9124 16.1436C15.9264 16.0827 15.8936 16.0546 15.8186 16.0733C15.7858 16.0827 15.7671 16.1061 15.7577 16.153C15.7483 16.1999 15.7249 16.2233 15.6921 16.228C15.6311 16.2468 15.5327 16.1905 15.5327 16.1389C15.5327 16.1061 15.6827 15.9233 15.8749 15.7171C15.926 15.6709 15.9716 15.619 16.0108 15.5624C16.0108 15.553 15.9686 15.5436 15.9217 15.5436C15.8514 15.5436 15.8374 15.553 15.8374 15.5858C15.8374 15.6046 15.7389 15.7358 15.6171 15.8671C15.3686 16.1483 15.3499 16.2093 15.4764 16.2796C15.5256 16.3091 15.5822 16.3239 15.6395 16.3222C15.6968 16.3206 15.7525 16.3025 15.7999 16.2702L15.8796 16.2139V16.3171C15.8796 16.4436 15.903 16.4858 16.0061 16.5421C16.0687 16.5735 16.1385 16.5879 16.2085 16.5838C16.2784 16.5797 16.3461 16.5572 16.4046 16.5186H16.4092Z" fill="#F7E017"/>
<path fill-rule="evenodd" clip-rule="evenodd" d="M21.6264 14.7889C21.5541 14.8323 21.5794 14.912 21.6012 14.9806C21.6077 15.0009 21.6138 15.0202 21.6171 15.0374C21.5807 15.1373 21.4563 15.1668 21.3591 15.1899L21.3499 15.1921C21.2092 15.2108 21.1108 15.3327 21.0592 15.4546C21.0311 15.5343 20.9608 15.6561 20.8858 15.5343C20.8202 15.4686 20.6983 15.4171 20.6233 15.4921C20.5733 15.5382 20.5549 15.6032 20.5369 15.6665C20.533 15.6804 20.5291 15.6942 20.5249 15.7077C20.5164 15.6932 20.5092 15.6769 20.5019 15.6603C20.4808 15.6124 20.4587 15.5622 20.403 15.5483C20.2858 15.5624 20.328 15.7124 20.3796 15.7733C20.4311 15.8436 20.478 15.9374 20.4264 16.0218C20.3889 16.1249 20.2389 16.1905 20.1452 16.1061C20.106 16.0831 20.0997 16.0339 20.0939 15.9888C20.0879 15.9422 20.0825 15.9 20.0421 15.8952C20.0267 15.9071 20.0164 15.9357 20.0065 15.963C19.9891 16.011 19.9731 16.055 19.9342 15.9983C19.9124 15.9634 19.9058 15.9223 19.8993 15.8818C19.8919 15.8353 19.8846 15.7896 19.8546 15.7546C19.7889 15.7639 19.7327 15.8764 19.7561 15.9421C19.8372 16.0671 19.8914 16.2075 19.9155 16.3546C19.9245 16.3779 19.9266 16.4089 19.9286 16.4394C19.932 16.4887 19.9353 16.537 19.9671 16.5514C19.9864 16.5031 19.9858 16.4522 19.9852 16.4014C19.9846 16.3537 19.984 16.3062 19.9999 16.2608C20.0378 16.2566 20.0795 16.2619 20.1221 16.2672C20.1741 16.2738 20.2274 16.2805 20.2764 16.2702C20.4077 16.2514 20.5108 16.1436 20.553 16.0264C20.5635 15.9564 20.5583 15.8915 20.553 15.826C20.5513 15.8039 20.5495 15.7817 20.5483 15.7593C20.5793 15.7635 20.6108 15.7664 20.6423 15.7694C20.7155 15.7763 20.7889 15.7832 20.8577 15.8061C20.8914 15.8601 20.8693 15.931 20.8491 15.9962C20.8412 16.0216 20.8335 16.0462 20.8296 16.0686C20.778 16.2374 20.6421 16.3593 20.5155 16.4718C20.4639 16.5046 20.4546 16.5889 20.5342 16.5468C20.7077 16.4718 20.8342 16.3124 20.9092 16.1436C20.9402 16.074 20.9399 15.9987 20.9397 15.9232C20.9395 15.8615 20.9392 15.7996 20.9561 15.7405C20.9998 15.6531 21.0974 15.6566 21.1833 15.6597C21.1987 15.6603 21.2137 15.6608 21.228 15.6608C21.3217 15.6561 21.4061 15.5436 21.3686 15.4499C21.3419 15.3475 21.4462 15.2959 21.521 15.2588L21.5327 15.253C21.6358 15.2014 21.7202 15.0936 21.7108 14.9718C21.7103 14.9647 21.7098 14.957 21.7094 14.9487C21.706 14.8853 21.7011 14.7931 21.6264 14.7889ZM21.2561 15.4124C21.3686 15.4452 21.2374 15.6561 21.1764 15.5202C21.1624 15.4733 21.2046 15.4124 21.2561 15.4124ZM20.7405 15.5671C20.8858 15.5577 20.8342 15.7686 20.7124 15.6749C20.6467 15.6421 20.6655 15.5624 20.7405 15.5671Z" fill="#F7E017"/>
<path d="M15.5046 16.3827C15.5092 16.3593 15.4999 16.3452 15.4811 16.3452C15.4389 16.3452 15.4155 16.3827 15.4342 16.4108C15.453 16.4436 15.4999 16.4249 15.5046 16.3827Z" fill="#F7E017"/>
<path d="M17.2014 16.1952L17.2014 16.1928L17.2014 16.1905V16.1952Z" fill="#F7E017"/>
<path d="M17.2014 16.1928C17.2007 16.1617 17.1868 16.1485 17.1639 16.1577C17.1077 16.1671 17.0983 16.2374 17.1546 16.2374C17.1866 16.2374 17.2007 16.224 17.2014 16.1928Z" fill="#F7E017"/>
<path fill-rule="evenodd" clip-rule="evenodd" d="M15.1061 15.178C15.0358 15.1639 14.9936 15.2202 14.9702 15.2718C14.9233 15.3608 14.8577 15.4452 14.7686 15.4921C14.703 15.5108 14.628 15.4827 14.5764 15.4499C14.5317 15.429 14.523 15.3891 14.5141 15.3484C14.5091 15.3251 14.504 15.3016 14.4921 15.2811C14.4452 15.2436 14.3608 15.2952 14.3608 15.3561C14.3561 15.4358 14.4311 15.4827 14.4921 15.5108C14.5056 15.5194 14.5207 15.527 14.5361 15.5348C14.5794 15.5567 14.6248 15.5796 14.6421 15.628C14.6421 15.6843 14.6608 15.7452 14.7311 15.7218C14.8061 15.7218 14.8249 15.8155 14.7921 15.8718C14.7577 15.933 14.7445 16.0038 14.7546 16.0733C14.7824 16.0977 14.8103 16.0599 14.8343 16.0274C14.8426 16.0162 14.8505 16.0055 14.8577 15.9983L14.9092 15.928C14.9342 15.9298 14.9594 15.9317 14.9846 15.9337C15.0921 15.9421 15.2014 15.9505 15.3077 15.9468C15.4014 15.9468 15.4858 15.8858 15.5421 15.8202C15.5723 15.7884 15.6003 15.7555 15.628 15.723C15.682 15.6597 15.7348 15.5979 15.7999 15.5483C15.8702 15.5296 15.8327 15.3983 15.7577 15.4358C15.7162 15.4536 15.6935 15.4882 15.6705 15.523C15.6572 15.5434 15.6437 15.5639 15.6264 15.5811C15.5514 15.6749 15.4717 15.7686 15.3733 15.8436C15.303 15.8718 15.2233 15.8624 15.1483 15.8436C15.1318 15.8299 15.1555 15.8162 15.1808 15.8015C15.1987 15.7912 15.2175 15.7803 15.2233 15.7686C15.2346 15.7561 15.2465 15.7443 15.2583 15.7326C15.2907 15.7004 15.3221 15.6692 15.3358 15.628C15.3124 15.5811 15.2421 15.5764 15.1952 15.5764C15.1326 15.5834 15.078 15.6122 15.024 15.6406C14.9689 15.6696 14.9146 15.6983 14.853 15.703C14.7592 15.703 14.8061 15.6046 14.853 15.5718C14.9136 15.4968 14.9797 15.4246 15.0471 15.351C15.0682 15.3279 15.0895 15.3046 15.1108 15.2811C15.1176 15.2729 15.13 15.2647 15.1428 15.2563C15.1738 15.2358 15.2069 15.2139 15.1671 15.1874C15.1483 15.178 15.1249 15.178 15.1061 15.178ZM15.1671 15.6749C15.228 15.7077 15.1249 15.7686 15.0827 15.7593C15.0264 15.7733 15.0264 15.7171 15.0733 15.7077L15.0827 15.7029C15.1086 15.6898 15.1378 15.6749 15.1671 15.6749ZM14.9749 15.8061C15.0077 15.8061 15.0827 15.8389 15.0124 15.8577C14.9655 15.8952 14.9092 15.8202 14.9749 15.8061Z" fill="#F7E017"/>
<path d="M15.1436 17.5171C15.1764 17.4702 15.2326 17.3764 15.2654 17.3061C15.291 17.2445 15.3241 17.1862 15.3639 17.1327C15.4248 17.0671 15.392 17.0296 15.2936 17.053C15.2467 17.0624 15.2233 17.0811 15.2186 17.1233C15.1904 17.2639 15.1389 17.4093 15.092 17.4749C15.0076 17.5968 15.0076 17.6014 15.0451 17.6014C15.0592 17.6014 15.1014 17.5639 15.1389 17.5171H15.1436Z" fill="#F7E017"/>
<path fill-rule="evenodd" clip-rule="evenodd" d="M13.8873 16.7343C13.7936 16.7343 13.7936 16.7952 13.8826 16.828C13.9248 16.8421 13.9623 16.8749 13.9904 16.9405C14.0842 17.1139 14.1311 17.1468 14.3654 17.1655L14.5201 17.1796L14.5248 17.2733C14.5295 17.3202 14.5436 17.3671 14.5529 17.3671C14.5641 17.3671 14.6016 17.3495 14.647 17.3282L14.6842 17.3108C14.792 17.2546 14.8998 17.1233 14.8998 17.0436C14.8998 16.9921 14.8061 16.9311 14.7311 16.9311C14.6726 16.9398 14.6175 16.9641 14.5717 17.0014C14.4029 17.1233 14.2248 17.0952 14.1264 16.9405C14.0467 16.8093 13.9623 16.7343 13.8873 16.7343ZM14.7029 17.0624C14.7498 17.0624 14.7592 17.0952 14.7358 17.1561C14.717 17.203 14.6608 17.203 14.642 17.1561C14.6279 17.1093 14.6561 17.0624 14.7029 17.0624Z" fill="#F7E017"/>
<path fill-rule="evenodd" clip-rule="evenodd" d="M21.0264 16.8561C20.9654 16.8561 20.9467 16.8702 20.9092 16.9311C20.8436 17.0249 20.8389 17.2264 20.8998 17.2968C20.9326 17.3436 20.9373 17.3436 21.017 17.3108C21.1248 17.2639 21.1436 17.2686 21.1389 17.3249C21.1389 17.4749 20.9279 17.7561 20.7076 17.9108C20.6626 17.9357 20.6228 17.9692 20.5904 18.0093C20.5717 18.0561 20.6561 18.0421 20.7545 17.9905C20.8951 17.9202 21.0733 17.7374 21.1483 17.5921C21.2045 17.4749 21.2139 17.4374 21.2233 17.2358C21.2233 17.0483 21.2233 16.9968 21.1904 16.9311C21.1576 16.8608 21.1436 16.8561 21.0545 16.8561H21.0264ZM21.0358 16.9874C21.0826 16.9874 21.0873 16.9968 21.092 17.0624C21.0967 17.1186 21.092 17.1514 21.0592 17.1796C21.0123 17.2171 21.0123 17.2171 20.9748 17.1608C20.9279 17.0811 20.9561 16.9874 21.0358 16.9874Z" fill="#F7E017"/>
<path d="M20.0233 18.4077C20.1908 18.3379 20.3274 18.2096 20.4076 18.0468C20.4323 17.997 20.4527 17.9453 20.4686 17.8921C20.4686 17.8639 20.3748 17.8218 20.3139 17.8218C20.2529 17.8218 20.2483 17.7796 20.267 17.6718C20.2951 17.5639 20.267 17.4327 20.2201 17.4327C20.2014 17.4327 20.1733 17.4561 20.1545 17.4843C20.1217 17.5311 20.1217 17.5546 20.1451 17.6249C20.1779 17.7186 20.1498 17.7983 20.0608 17.8593C20.0139 17.8921 19.9904 17.9296 19.9904 17.9624C19.9904 17.9905 19.9951 18.0139 19.9998 18.0139L20.1076 17.9624L20.2014 17.9061L20.2623 17.953C20.2904 17.9764 20.3186 18.0186 20.3186 18.0421C20.3186 18.1593 19.9811 18.3608 19.7467 18.3796C19.6248 18.3889 19.6061 18.3796 19.5592 18.3421C19.5264 18.3046 19.5123 18.2764 19.5217 18.2343L19.5498 18.1077C19.5733 18.0046 19.5264 18.0186 19.4514 18.1405C19.3858 18.2343 19.367 18.3468 19.4045 18.403C19.4326 18.4499 19.6248 18.4921 19.7608 18.4827C19.8451 18.478 19.9342 18.4546 20.0233 18.4077Z" fill="#F7E017"/>
<path d="M21.3217 17.6811C21.4436 17.5593 21.4998 17.4093 21.4998 17.1796V17.0061L21.5983 16.9593C21.7295 16.8983 21.8561 16.7718 21.8561 16.7061C21.8561 16.6311 21.8233 16.6358 21.767 16.7155C21.7248 16.7718 21.6733 16.8046 21.467 16.8983C21.4154 16.9218 21.4108 16.9358 21.4014 17.1514C21.3873 17.3999 21.3545 17.4889 21.2139 17.6624C21.1295 17.7608 21.1248 17.7749 21.1858 17.7749C21.2092 17.7749 21.2701 17.7374 21.3264 17.6811H21.3217Z" fill="#F7E017"/>
<path d="M19.9858 17.5405C19.9998 17.5077 19.9295 17.4843 19.9014 17.5124C19.8873 17.5264 19.8873 17.5452 19.8967 17.5593C19.9154 17.5921 19.9764 17.5827 19.9904 17.5452L19.9858 17.5405Z" fill="#F7E017"/>
<path d="M21.8279 17.0671C21.842 17.0296 21.7717 17.0061 21.7436 17.0343C21.7295 17.0483 21.7295 17.0718 21.7389 17.0811C21.7576 17.1139 21.8186 17.1046 21.8326 17.0671H21.8279Z" fill="#F7E017"/>
<path fill-rule="evenodd" clip-rule="evenodd" d="M19.6108 15.7733C19.5765 15.7904 19.5548 15.8225 19.5328 15.855C19.5247 15.867 19.5165 15.8791 19.5076 15.8905C19.4881 15.9022 19.4978 15.9139 19.5097 15.9283C19.5121 15.9312 19.5146 15.9342 19.517 15.9374C19.5888 16.0132 19.6233 16.1128 19.658 16.213C19.664 16.2305 19.6701 16.2481 19.6764 16.2655L19.6876 16.3041C19.723 16.4249 19.7613 16.5557 19.7233 16.6827C19.7045 16.7343 19.6623 16.7905 19.6014 16.7764C19.5616 16.7728 19.5224 16.7671 19.4837 16.7614C19.4222 16.7525 19.3618 16.7436 19.3014 16.7436C19.2562 16.7436 19.2164 16.7633 19.1774 16.7825C19.1355 16.8032 19.0944 16.8235 19.0483 16.8186C19.0189 16.8209 19.0048 16.7938 18.9917 16.7687C18.9777 16.7418 18.9649 16.7172 18.9358 16.7343C18.9163 16.7797 18.917 16.8273 18.9178 16.8757C18.9181 16.8972 18.9184 16.9188 18.917 16.9405C18.9268 16.947 18.9434 16.9445 18.9574 16.9423C18.9634 16.9414 18.969 16.9405 18.9733 16.9405H19.1608C19.1628 16.9547 19.1641 16.9693 19.1655 16.984C19.1705 17.0372 19.1756 17.0913 19.2123 17.128C19.2779 17.1514 19.3483 17.128 19.4045 17.1046C19.458 17.0816 19.4741 17.0243 19.4884 16.9735C19.4917 16.962 19.4948 16.9509 19.4983 16.9405C19.5104 16.8981 19.5498 16.8909 19.5902 16.8836C19.6123 16.8795 19.6347 16.8755 19.6529 16.8655C19.7117 16.8452 19.7623 16.8063 19.7969 16.7547C19.8316 16.7031 19.8485 16.6416 19.8451 16.5796C19.8413 16.4238 19.7914 16.2742 19.7426 16.1283C19.7312 16.0942 19.7199 16.0602 19.7092 16.0264C19.6979 15.9946 19.6882 15.9627 19.6784 15.9308C19.6638 15.883 19.6492 15.8352 19.6295 15.7874C19.6295 15.7827 19.6201 15.7733 19.6108 15.778V15.7733ZM19.3108 16.8655C19.3764 16.8655 19.4045 16.9452 19.3951 17.0014C19.367 17.0764 19.2733 17.0296 19.2545 16.9733C19.2217 16.9264 19.2451 16.8608 19.3108 16.8655Z" fill="#F7E017"/>
<path d="M17.6655 18.1968C17.6608 18.2812 17.6468 18.3937 17.6327 18.4499V18.4452C17.6199 18.5062 17.5944 18.5637 17.5577 18.614C17.5202 18.6562 17.5062 18.6656 17.5108 18.6327C17.5483 18.5249 17.5718 18.2484 17.5577 18.0984L17.5437 17.9343L17.6093 17.8874C17.703 17.8218 17.7405 17.8499 17.703 17.9624C17.689 18.0093 17.6749 18.1171 17.6655 18.1968Z" fill="#F7E017"/>
<path d="M17.2515 18.2156C17.2378 18.3307 17.2233 18.4516 17.1312 18.5296L17.0937 18.5531C17.0046 18.5999 16.864 18.614 16.789 18.5296C16.7637 18.4199 16.67 18.4355 16.5832 18.45C16.5736 18.4516 16.5639 18.4532 16.5546 18.4546C16.4796 18.4781 16.2921 18.4781 16.3858 18.3609C16.3828 18.3115 16.3187 18.3129 16.2566 18.3143C16.2243 18.315 16.1926 18.3157 16.1702 18.3093C16.1067 18.3271 16.0928 18.2884 16.0784 18.2485C16.0662 18.2148 16.0538 18.1802 16.0108 18.1781C15.7905 18.164 15.5608 18.1359 15.3546 18.0421C15.3049 18.0297 15.2762 17.9888 15.2483 17.9492C15.2132 17.8991 15.1794 17.8509 15.1062 17.864C14.9726 17.8286 14.8469 17.7681 14.7358 17.6859C14.6796 17.6437 14.6187 17.4468 14.7265 17.4702C14.7588 17.4989 14.7899 17.5315 14.8214 17.5645C14.9084 17.6559 14.9988 17.7508 15.1296 17.7749C15.2468 17.789 15.3171 17.6718 15.3733 17.5781C15.413 17.5384 15.4123 17.4832 15.4116 17.4299C15.4107 17.37 15.41 17.3125 15.4671 17.2827C15.5187 17.2452 15.7343 17.1984 15.6218 17.3062C15.5509 17.3652 15.5172 17.4485 15.4833 17.5325C15.4633 17.5818 15.4433 17.6314 15.4155 17.6765C15.3593 17.7702 15.3405 17.9062 15.453 17.9577C15.6057 18.0668 15.7921 18.0772 15.9731 18.0873C16.0255 18.0902 16.0775 18.0931 16.128 18.0984C16.1952 18.0803 16.2026 18.1249 16.2098 18.1685C16.2156 18.2041 16.2214 18.239 16.2593 18.239C16.2832 18.239 16.3125 18.2329 16.3432 18.2265C16.4267 18.2092 16.52 18.1899 16.5405 18.2859C16.4983 18.3843 16.6155 18.3796 16.6718 18.3421C16.7468 18.2999 16.9296 18.2249 16.8874 18.3796C16.878 18.4781 17.0468 18.5015 17.0983 18.4312C17.1593 18.3187 17.164 18.1827 17.1593 18.0562C17.0983 17.9484 17.1733 17.8406 17.2858 17.8218C17.3123 17.8718 17.2982 17.9348 17.2839 17.998C17.2755 18.0354 17.2671 18.0729 17.2671 18.1077C17.2602 18.142 17.2559 18.1785 17.2515 18.2156Z" fill="#F7E017"/>
<path d="M17.9656 18.5158C17.9141 18.6705 17.8391 18.7502 17.7031 18.7971V18.7924C17.6047 18.8299 17.2578 18.8439 17.1641 18.8205C17.1273 18.811 17.0924 18.7951 17.061 18.7736C17 18.7267 17.0563 18.708 17.225 18.7267C17.3141 18.7408 17.4172 18.7408 17.45 18.7408C17.8063 18.7033 17.8719 18.6564 17.8391 18.4689C17.8297 18.3939 17.8297 18.3752 17.8766 18.3424C17.9375 18.2861 17.9985 18.2861 18.0125 18.333C18.0038 18.3955 17.9881 18.4568 17.9656 18.5158Z" fill="#F7E017"/>
<path d="M18.5891 18.6939C18.5235 18.7174 18.4578 18.7455 18.4391 18.7642C18.3969 18.8017 18.35 18.8064 18.35 18.7736C18.3553 18.7398 18.3648 18.7067 18.3781 18.6752C18.411 18.6002 18.4438 18.5814 18.5656 18.5814C18.6969 18.5814 18.725 18.4877 18.636 18.333C18.6125 18.2955 18.575 18.258 18.5281 18.2486C18.4438 18.2252 18.4438 18.2252 18.5 18.1314C18.5656 18.0189 18.6031 18.0189 18.6875 18.1127C18.8375 18.2955 18.8563 18.4267 18.7531 18.5814C18.7203 18.6377 18.6735 18.6658 18.5891 18.6939Z" fill="#F7E017"/>
<path d="M18.2235 18.1924C18.2281 18.4174 18.2188 18.5252 18.1953 18.5861C18.1344 18.7549 18.1156 18.708 18.1297 18.4127C18.1391 18.1783 18.1344 18.1221 18.1016 18.0611C18.0828 18.0236 18.0735 17.9767 18.0781 17.9533C18.0922 17.9111 18.1906 17.8502 18.2094 17.8642C18.2188 17.8736 18.2235 18.0189 18.2235 18.1924Z" fill="#F7E017"/>
<path fill-rule="evenodd" clip-rule="evenodd" d="M16.7046 16.2749C16.7332 16.2539 16.7676 16.2424 16.8031 16.2421C16.8687 16.2421 16.9203 16.2936 16.9203 16.3874C16.9203 16.5374 16.9765 16.5655 17.1687 16.5139C17.2437 16.4952 17.2718 16.4952 17.2906 16.5139C17.314 16.5374 17.314 16.5514 17.2906 16.5843C17.2671 16.6264 17.2671 16.6405 17.3 16.678C17.3375 16.7155 17.3562 16.7202 17.5531 16.7061C17.7312 16.6968 17.764 16.6968 17.764 16.7249C17.764 16.7811 17.8062 16.7811 17.9281 16.7343L18.05 16.6874L18.0968 16.7343C18.1296 16.7671 18.1578 16.7764 18.1625 16.7577C18.1859 16.7249 18.2984 16.7343 18.3781 16.7718C18.4246 16.7944 18.4774 16.801 18.5281 16.7905C18.6171 16.7764 18.814 16.6874 18.8328 16.6499C18.8421 16.6405 18.8234 16.6124 18.7859 16.5843C18.739 16.5421 18.7109 16.5374 18.6171 16.5514C18.514 16.5608 18.5 16.5561 18.5 16.5186C18.5 16.4624 18.5843 16.4108 18.6687 16.4108C18.7283 16.4163 18.7867 16.4305 18.8421 16.453C18.9165 16.4797 18.9935 16.4985 19.0718 16.5093C19.2312 16.528 19.2218 16.5655 19.0531 16.5983C18.9828 16.6124 18.9218 16.6358 18.9171 16.6452C18.8843 16.7483 18.6546 16.8843 18.4859 16.903C18.425 16.9124 18.35 16.903 18.2796 16.8796C18.1812 16.8421 18.1343 16.8421 17.9187 16.8608C17.6843 16.8843 17.6656 16.8796 17.6375 16.8468C17.6187 16.8139 17.5812 16.7999 17.5156 16.7999L17.2812 16.7858C17.1359 16.7764 17.1359 16.7718 17.1359 16.7108C17.1359 16.6405 17.1312 16.6358 16.9765 16.6171L16.85 16.603L16.7421 16.7202C16.6821 16.7901 16.6088 16.8475 16.5265 16.8889C16.3859 16.9499 16.1703 16.9593 15.9875 16.9218C15.8234 16.8796 15.7531 16.8421 15.7343 16.7671C15.7156 16.6921 15.739 16.678 15.8234 16.7155C16.1515 16.8514 16.3296 16.8608 16.5265 16.7671C16.6671 16.6968 16.6906 16.6452 16.6015 16.603C16.4796 16.5468 16.5265 16.4014 16.7046 16.2749ZM16.7843 16.4014C16.7703 16.3827 16.7656 16.3827 16.7562 16.3827L16.714 16.3968C16.6859 16.4155 16.6812 16.4389 16.6859 16.4624C16.7046 16.5093 16.789 16.5139 16.8031 16.4671C16.8125 16.4483 16.8031 16.4155 16.7843 16.4014Z" fill="#F7E017"/>
</g>
<defs>
<clipPath id="clip0_11930_67752">
<rect width="36" height="24" rx="2" fill="white"/>
</clipPath>
</defs>
</svg>
