<svg width="36" height="24" viewBox="0 0 36 24" fill="none" xmlns="http://www.w3.org/2000/svg">
<rect width="36" height="24" rx="2" fill="#229E45"/>
<path fill-rule="evenodd" clip-rule="evenodd" d="M18.215 22.8L35.29 12.015L18.125 1.19995L1 12.035L18.215 22.8Z" fill="#F8E509"/>
<path fill-rule="evenodd" clip-rule="evenodd" d="M24.7849 12C24.7849 15.515 21.9299 18.365 18.4049 18.365C17.1453 18.363 15.9145 17.9876 14.8682 17.2863C13.8218 16.5849 13.0069 15.589 12.5265 14.4246C12.046 13.2602 11.9216 11.9794 12.1689 10.7443C12.4162 9.50918 13.0242 8.37509 13.916 7.48543C14.8077 6.59577 15.9432 5.99048 17.1789 5.74606C18.4147 5.50165 19.6951 5.62909 20.8584 6.11228C22.0217 6.59547 23.0156 7.41271 23.7145 8.46069C24.4134 9.50867 24.7859 10.7403 24.7849 12Z" fill="#2B49A3"/>
<path d="M16.1101 15.7L16.3101 15.815L16.2801 15.58L16.4451 15.43L16.2251 15.39L16.1301 15.18L16.0201 15.38L15.7951 15.405L15.9551 15.575L15.9101 15.8L16.1101 15.7Z" fill="#FFFFEF"/>
<path d="M20.3851 16.78L20.5801 16.895L20.5501 16.665L20.7201 16.51L20.5001 16.47L20.4001 16.26L20.2951 16.465L20.0701 16.49L20.2251 16.655L20.1851 16.88L20.3851 16.78Z" fill="#FFFFEF"/>
<path d="M18.5701 15.065L18.7401 15.165L18.7101 14.97L18.8601 14.835L18.6651 14.8L18.5851 14.615L18.4951 14.795L18.2951 14.815L18.4351 14.96L18.3951 15.155L18.5701 15.065Z" fill="#FFFFEF"/>
<path d="M22.8901 14.445L23.0601 14.545L23.0301 14.35L23.1751 14.22L22.9851 14.185L22.9051 14.005L22.8151 14.18L22.6201 14.2L22.7551 14.34L22.7151 14.535L22.8901 14.445Z" fill="#FFFFEF"/>
<path d="M18.4651 13.14L18.6651 13.25L18.6301 13.025L18.8001 12.865L18.5801 12.825L18.4801 12.615L18.3751 12.82L18.1501 12.845L18.3051 13.01L18.2651 13.24L18.4651 13.14Z" fill="#FFFFEF"/>
<path d="M13.2001 11.165L13.4001 11.275L13.3701 11.045L13.5351 10.89L13.3151 10.85L13.2151 10.64L13.1151 10.845L12.8851 10.87L13.0501 11.035L13.0001 11.265L13.2001 11.165Z" fill="#FFFFEF"/>
<path d="M13.8351 13.79L14.0351 13.905L14.0051 13.675L14.1701 13.52L13.9501 13.48L13.8501 13.27L13.7451 13.47L13.5201 13.5L13.6801 13.665L13.6351 13.89L13.8351 13.79Z" fill="#FFFFEF"/>
<path d="M20.4251 10.21L20.6051 10.31L20.5751 10.105L20.7251 9.97L20.5251 9.935L20.4401 9.745L20.3451 9.925L20.1451 9.95L20.2851 10.1L20.2451 10.3L20.4251 10.21Z" fill="#FFFFEF"/>
<path d="M20.1051 11.94L20.2401 12.02L20.2201 11.86L20.3301 11.75L20.1801 11.725L20.1151 11.575L20.0401 11.715L19.8801 11.735L19.9901 11.85L19.9601 12.01L20.1051 11.94Z" fill="#FFFFEF"/>
<path d="M12.9751 14.305L13.1101 14.38L13.0851 14.225L13.2001 14.125L13.0501 14.095L12.9851 13.955L12.9151 14.09L12.7651 14.11L12.8701 14.22L12.8401 14.37L12.9751 14.305Z" fill="#FFFFEF"/>
<path d="M22.9851 14.935L23.0951 14.99L23.0751 14.875L23.1701 14.8L23.0451 14.775L22.9951 14.675L22.9351 14.775L22.8151 14.79L22.9001 14.87L22.8751 14.985L22.9851 14.935Z" fill="#FFFFEF"/>
<path d="M15.0701 14.305L15.2001 14.375L15.1801 14.225L15.2951 14.12L15.1451 14.095L15.0801 13.955L15.0101 14.09L14.8601 14.11L14.9651 14.22L14.9351 14.37L15.0701 14.305Z" fill="#FFFFEF"/>
<path d="M14.8101 15L14.9401 15.075L14.9201 14.92L15.0351 14.82L14.8851 14.79L14.8201 14.65L14.7501 14.785L14.6001 14.805L14.7051 14.92L14.6751 15.07L14.8101 15Z" fill="#FFFFEF"/>
<path d="M19.1601 13.73L19.2901 13.81L19.2701 13.655L19.3801 13.55L19.2301 13.525L19.1701 13.385L19.1001 13.52L18.9501 13.535L19.0501 13.65L19.0201 13.8L19.1601 13.73Z" fill="#FFFFEF"/>
<path d="M17.8801 13.73L18.0151 13.805L17.9951 13.655L18.1051 13.55L17.9551 13.525L17.8951 13.38L17.8251 13.52L17.6751 13.535L17.7751 13.65L17.7451 13.8L17.8801 13.73Z" fill="#FFFFEF"/>
<path d="M14.4701 13.315L14.5551 13.365L14.5401 13.265L14.6101 13.2L14.5151 13.185L14.4751 13.095L14.4351 13.18L14.3401 13.19L14.4051 13.26L14.3851 13.355L14.4701 13.315Z" fill="#FFFFEF"/>
<path d="M22.8001 15.46L22.9301 15.535L22.9101 15.38L23.0251 15.28L22.8751 15.25L22.8101 15.11L22.7401 15.245L22.5901 15.265L22.6951 15.38L22.6651 15.53L22.8001 15.46Z" fill="#FFFFEF"/>
<path d="M21.7601 15.61L21.8701 15.68L21.8501 15.55L21.9451 15.46L21.8201 15.44L21.7701 15.32L21.7101 15.435L21.5851 15.45L21.6701 15.54L21.6451 15.67L21.7601 15.61Z" fill="#FFFFEF"/>
<path d="M22.2701 15.605L22.3701 15.665L22.3551 15.545L22.4401 15.465L22.3251 15.44L22.2751 15.34L22.2201 15.44L22.1051 15.455L22.1851 15.54L22.1651 15.655L22.2701 15.605Z" fill="#FFFFEF"/>
<path d="M23.7101 14.355L23.8101 14.405L23.7951 14.295L23.8751 14.215L23.7701 14.195L23.7201 14.09L23.6701 14.19L23.5551 14.205L23.6351 14.29L23.6101 14.405L23.7101 14.355Z" fill="#FFFFEF"/>
<path d="M21.7301 16.315L21.8551 16.385L21.8351 16.245L21.9501 16.15L21.8001 16.125L21.7401 15.995L21.6751 16.12L21.5251 16.135L21.6251 16.235L21.5951 16.375L21.7301 16.315Z" fill="#FFFFEF"/>
<path d="M21.7451 16.885L21.8651 16.955L21.8451 16.82L21.9451 16.72L21.8101 16.695L21.7551 16.565L21.6951 16.69L21.5601 16.71L21.6551 16.81L21.6251 16.95L21.7451 16.885Z" fill="#FFFFEF"/>
<path d="M20.8001 15.605L20.8951 15.665L20.8851 15.55L20.9651 15.47L20.8551 15.45L20.8051 15.35L20.7551 15.45L20.6451 15.46L20.7201 15.545L20.7001 15.655L20.8001 15.605Z" fill="#FFFFEF"/>
<path d="M19.8951 15.605L19.9951 15.665L19.9801 15.55L20.0601 15.47L19.9551 15.45L19.9051 15.35L19.8551 15.45L19.7401 15.46L19.8201 15.545L19.7951 15.655L19.8951 15.605Z" fill="#FFFFEF"/>
<path d="M18.3601 14.265L18.4601 14.32L18.4451 14.205L18.5251 14.13L18.4151 14.105L18.3651 14.005L18.3151 14.105L18.2051 14.12L18.2851 14.2L18.2601 14.315L18.3601 14.265Z" fill="#FFFFEF"/>
<path d="M18.5501 17.01L18.6301 17.055L18.6201 16.96L18.6901 16.895L18.5951 16.88L18.5551 16.79L18.5101 16.875L18.4151 16.885L18.4801 16.955L18.4601 17.055L18.5501 17.01Z" fill="#FFFFEF"/>
<path d="M16.1101 12.515L16.3101 12.63L16.2801 12.4L16.4451 12.245L16.2251 12.205L16.1301 11.995L16.0201 12.195L15.7951 12.225L15.9551 12.39L15.9101 12.615L16.1101 12.515Z" fill="#FFFFEF"/>
<path fill-rule="evenodd" clip-rule="evenodd" d="M24.3649 14.2899C24.4888 13.9685 24.5858 13.6374 24.6549 13.2999C21.2649 10.3249 17.4899 8.79991 12.7199 9.11491C12.5469 9.44966 12.4047 9.79943 12.2949 10.1599C17.9449 9.61991 22.0949 12.1199 24.3649 14.2899Z" fill="white"/>
<path d="M22.8452 12.62L22.9602 12.685C22.943 12.7189 22.9377 12.7576 22.9452 12.795C22.9569 12.8311 22.9819 12.8615 23.0152 12.88C23.0502 12.905 23.0852 12.92 23.1152 12.915C23.1452 12.915 23.1652 12.9 23.1802 12.88C23.1889 12.8667 23.1925 12.8507 23.1902 12.835C23.1861 12.8165 23.1775 12.7993 23.1652 12.785C23.1552 12.77 23.1302 12.735 23.0902 12.695C23.0491 12.6525 23.0183 12.6012 23.0002 12.545C22.9877 12.5024 22.9909 12.4568 23.0093 12.4164C23.0277 12.376 23.0599 12.3435 23.1002 12.325C23.1366 12.3098 23.1767 12.3063 23.2152 12.315C23.2622 12.3258 23.3065 12.3462 23.3452 12.375C23.4152 12.425 23.4602 12.475 23.4752 12.535C23.4821 12.563 23.483 12.5922 23.4778 12.6207C23.4727 12.6491 23.4615 12.6761 23.4452 12.7L23.3252 12.625C23.3402 12.595 23.3452 12.565 23.3352 12.54C23.3302 12.515 23.3102 12.49 23.2752 12.47C23.2495 12.4493 23.2181 12.4371 23.1852 12.435C23.1761 12.4346 23.1671 12.4368 23.1592 12.4412C23.1513 12.4456 23.1447 12.4521 23.1402 12.46C23.1302 12.475 23.1302 12.49 23.1352 12.51C23.1402 12.53 23.1652 12.57 23.2152 12.62C23.2652 12.67 23.2952 12.715 23.3152 12.745C23.333 12.7777 23.3411 12.8149 23.3385 12.8522C23.3358 12.8894 23.3225 12.9251 23.3002 12.955C23.2768 12.9889 23.2437 13.0151 23.2052 13.03C23.1677 13.0472 23.1258 13.0525 23.0852 13.045C23.0402 13.035 22.9952 13.015 22.9452 12.98C22.8702 12.93 22.8252 12.875 22.8102 12.815C22.7939 12.7469 22.8047 12.6752 22.8402 12.615L22.8452 12.62ZM22.2652 12.24L22.3902 12.305C22.3747 12.3395 22.3712 12.3782 22.3802 12.415C22.393 12.4493 22.4179 12.4777 22.4502 12.495C22.4902 12.52 22.5202 12.53 22.5502 12.525C22.5802 12.525 22.6002 12.51 22.6152 12.485C22.6228 12.4731 22.6263 12.459 22.6252 12.445C22.6252 12.43 22.6152 12.41 22.6002 12.395C22.5746 12.364 22.5479 12.334 22.5202 12.305C22.4652 12.25 22.4302 12.205 22.4202 12.165C22.412 12.1392 22.4096 12.112 22.413 12.0852C22.4165 12.0585 22.4257 12.0328 22.4402 12.01C22.4592 11.9791 22.4871 11.9547 22.5202 11.94C22.5545 11.9241 22.5928 11.9189 22.6302 11.925C22.6764 11.9327 22.7206 11.9497 22.7602 11.975C22.8352 12.025 22.8802 12.075 22.8952 12.13C22.9043 12.1581 22.9072 12.1878 22.9038 12.2171C22.9003 12.2465 22.8906 12.2747 22.8752 12.3L22.7502 12.23C22.7652 12.195 22.7702 12.17 22.7602 12.145C22.7502 12.12 22.7302 12.095 22.6952 12.075C22.6675 12.0551 22.6342 12.0446 22.6002 12.045C22.592 12.0455 22.584 12.0481 22.5771 12.0524C22.5701 12.0568 22.5643 12.0628 22.5602 12.07C22.5502 12.085 22.5502 12.1 22.5552 12.12C22.5602 12.14 22.5902 12.18 22.6402 12.23C22.6902 12.28 22.7252 12.32 22.7402 12.35C22.7602 12.3813 22.7709 12.4177 22.7709 12.455C22.7709 12.4922 22.7602 12.5286 22.7402 12.56C22.7186 12.5948 22.6874 12.6226 22.6502 12.64C22.6127 12.6572 22.5708 12.6625 22.5302 12.655C22.4787 12.6463 22.4295 12.6276 22.3852 12.6C22.3206 12.5655 22.2708 12.5086 22.2452 12.44C22.2259 12.3732 22.233 12.3016 22.2652 12.24ZM21.5552 12.05L21.9202 11.45L22.3602 11.725L22.3002 11.825L21.9802 11.625L21.9002 11.76L22.2002 11.945L22.1352 12.045L21.8352 11.86L21.7352 12.025L22.0702 12.225L22.0102 12.325L21.5552 12.05ZM20.5202 11.2L20.5752 11.1L20.8452 11.235L20.7202 11.485C20.6802 11.495 20.6302 11.5 20.5702 11.495C20.5126 11.4886 20.4566 11.4716 20.4052 11.445C20.3447 11.4155 20.293 11.3707 20.2552 11.315C20.2208 11.2632 20.2033 11.2021 20.2052 11.14C20.2077 11.0753 20.2248 11.0121 20.2552 10.955C20.2852 10.8948 20.3299 10.8432 20.3852 10.805C20.438 10.7684 20.5009 10.7492 20.5652 10.75C20.6152 10.75 20.6652 10.765 20.7252 10.8C20.8052 10.835 20.8552 10.885 20.8802 10.94C20.9062 10.9946 20.9115 11.0567 20.8952 11.115L20.7602 11.075C20.7685 11.0415 20.7649 11.0061 20.7502 10.975C20.7352 10.945 20.7102 10.925 20.6702 10.905C20.6469 10.8916 20.621 10.8834 20.5943 10.8808C20.5676 10.8783 20.5406 10.8814 20.5152 10.89C20.4652 10.905 20.4202 10.95 20.3852 11.02C20.3502 11.09 20.3352 11.155 20.3502 11.21C20.3571 11.236 20.3696 11.2603 20.3869 11.281C20.4042 11.3018 20.4258 11.3185 20.4502 11.33C20.4752 11.345 20.5052 11.355 20.5352 11.355C20.565 11.3595 20.5954 11.3595 20.6252 11.355L20.6652 11.275L20.5202 11.2ZM16.0102 10.085L16.1102 9.38495L16.3202 9.41995L16.3752 9.90995L16.5702 9.45995L16.7802 9.48995L16.6802 10.18L16.5452 10.16L16.6302 9.61495L16.4102 10.14L16.2752 10.12L16.2202 9.55495L16.1402 10.105L16.0102 10.085ZM15.3052 9.99995L15.3702 9.29995L15.8852 9.34995L15.8752 9.46995L15.5002 9.43495L15.4852 9.58495L15.8352 9.61995L15.8202 9.73995L15.4702 9.70495L15.4552 9.89495L15.8452 9.92995L15.8352 10.05L15.3052 9.99995Z" fill="#309E3A"/>
<path fill-rule="evenodd" clip-rule="evenodd" d="M13.0088 9.38496C12.9888 9.43496 12.9738 9.48996 12.9738 9.56496C12.9661 9.66105 12.9966 9.75631 13.0588 9.82996C13.09 9.86201 13.1273 9.8874 13.1686 9.90459C13.2098 9.92178 13.2542 9.93041 13.2988 9.92996C13.3441 9.93407 13.3898 9.92863 13.4329 9.91399C13.4759 9.89935 13.5154 9.87583 13.5488 9.84496C13.6138 9.77996 13.6488 9.68996 13.6488 9.57996C13.6545 9.5311 13.6503 9.48162 13.6365 9.4344C13.6228 9.38718 13.5998 9.34318 13.5688 9.30496C13.5038 9.24496 13.4238 9.20496 13.3188 9.20496C13.2688 9.20496 13.2188 9.21496 13.1688 9.22996C13.1351 9.24368 13.1045 9.26409 13.0788 9.28996C13.0501 9.31723 13.0264 9.3494 13.0088 9.38496ZM13.1689 9.74492C13.1339 9.69992 13.1189 9.63992 13.1189 9.56492C13.1239 9.48492 13.1389 9.42492 13.1789 9.38492C13.1964 9.36529 13.218 9.34975 13.2422 9.33938C13.2664 9.32902 13.2926 9.32408 13.3189 9.32492C13.3448 9.32509 13.3704 9.331 13.3937 9.34224C13.4171 9.35348 13.4376 9.36977 13.4539 9.38992C13.4939 9.42992 13.5039 9.48992 13.5039 9.56992C13.4989 9.65492 13.4839 9.71492 13.4489 9.75492C13.4311 9.77392 13.4093 9.78872 13.3851 9.79823C13.3609 9.80774 13.3349 9.81174 13.3089 9.80992C13.2489 9.80992 13.2039 9.78492 13.1689 9.74492Z" fill="#309E3A"/>
<path fill-rule="evenodd" clip-rule="evenodd" d="M13.8069 9.22495L13.7969 9.92495H13.9419V9.63495H13.9719C13.9956 9.63495 14.0191 9.63832 14.0419 9.64495C14.0592 9.65085 14.0748 9.66119 14.0869 9.67495L14.1569 9.77495L14.2569 9.93495H14.4269L14.3419 9.79495C14.3119 9.73995 14.2869 9.69995 14.2669 9.67995L14.1919 9.61995C14.2423 9.61571 14.2899 9.59457 14.3269 9.55995C14.3594 9.52451 14.3773 9.47805 14.3769 9.42995C14.3769 9.38495 14.3669 9.34495 14.3469 9.31495C14.3269 9.28495 14.3019 9.25995 14.2669 9.24995C14.2319 9.23495 14.1819 9.22495 14.1069 9.22495H13.8069ZM14.047 9.52507H13.947V9.34507L14.062 9.35007H14.162C14.182 9.35507 14.202 9.36507 14.212 9.38007C14.227 9.39007 14.232 9.41007 14.232 9.44007C14.232 9.45507 14.227 9.48007 14.217 9.49007C14.207 9.50007 14.192 9.51507 14.177 9.51507C14.162 9.52507 14.117 9.52507 14.047 9.52507Z" fill="#309E3A"/>
<path fill-rule="evenodd" clip-rule="evenodd" d="M14.8567 9.27495L14.5967 9.25995L14.5617 9.95995L14.8267 9.97495C14.8767 9.97495 14.9217 9.97495 14.9517 9.96495C14.9884 9.95605 15.0226 9.93895 15.0517 9.91495C15.0867 9.88495 15.1167 9.84495 15.1367 9.79495C15.1533 9.74666 15.1617 9.69598 15.1617 9.64495C15.1667 9.57995 15.1617 9.52495 15.1467 9.47995C15.1361 9.43593 15.1155 9.39491 15.0867 9.35995C15.0602 9.32821 15.0257 9.30407 14.9867 9.28995C14.9567 9.27995 14.9117 9.27495 14.8567 9.27495ZM14.7068 9.84995L14.7318 9.38495H14.7968C14.8355 9.38651 14.874 9.39153 14.9118 9.39995C14.9345 9.40618 14.9552 9.41825 14.9718 9.43495C14.9909 9.45449 15.0046 9.47858 15.0118 9.50495L15.0168 9.62995C15.0168 9.68495 15.0068 9.72995 14.9968 9.75995C14.9868 9.78995 14.9718 9.80995 14.9568 9.82495C14.9418 9.83995 14.9218 9.84995 14.8968 9.84995H14.7068Z" fill="#309E3A"/>
<path fill-rule="evenodd" clip-rule="evenodd" d="M18.1873 9.82996L18.0223 10.51L18.1623 10.545L18.2223 10.285L18.3073 10.31C18.3723 10.325 18.4223 10.335 18.4573 10.335C18.4859 10.335 18.5142 10.3288 18.5401 10.3167C18.566 10.3046 18.589 10.2869 18.6073 10.265C18.6323 10.24 18.6473 10.205 18.6573 10.165C18.6673 10.11 18.6673 10.065 18.6473 10.025C18.6323 9.97996 18.6023 9.94996 18.5673 9.92996L18.4073 9.87996L18.1873 9.82996ZM18.2523 10.1699L18.2923 9.97986H18.2973L18.3623 9.99486L18.4573 10.0199C18.4786 10.0286 18.4963 10.0445 18.5073 10.0649C18.5173 10.0849 18.5173 10.1049 18.5173 10.1299C18.5133 10.1491 18.5035 10.1666 18.4892 10.1801C18.4749 10.1935 18.4567 10.2022 18.4373 10.2049C18.4205 10.2091 18.3896 10.2027 18.3504 10.1946C18.343 10.1931 18.3353 10.1915 18.3273 10.1899L18.2523 10.1699Z" fill="#309E3A"/>
<path fill-rule="evenodd" clip-rule="evenodd" d="M18.9088 10.0449L18.6738 10.7049L18.8038 10.7549L18.9038 10.4749L18.9288 10.4849C18.9638 10.4949 18.9838 10.5049 18.9938 10.5199C19.0069 10.5307 19.0172 10.5444 19.0238 10.5599C19.038 10.5992 19.0497 10.6392 19.0588 10.6799L19.1088 10.8599L19.2638 10.9149L19.2338 10.7599L19.1938 10.6249C19.1838 10.5949 19.1638 10.5699 19.1438 10.5449C19.2038 10.5549 19.2538 10.5499 19.2938 10.5299C19.3338 10.5049 19.3638 10.4699 19.3838 10.4199C19.3934 10.3815 19.3892 10.3477 19.3844 10.3096C19.3842 10.308 19.384 10.3065 19.3838 10.3049C19.3788 10.2649 19.3588 10.2399 19.3338 10.2149C19.3038 10.1949 19.2588 10.1699 19.1838 10.1449L18.9088 10.0449ZM19.039 10.4049L18.944 10.3699H18.939L18.999 10.2049L19.199 10.2749C19.2173 10.2845 19.2316 10.3005 19.239 10.3199C19.249 10.3399 19.249 10.3599 19.239 10.3799C19.234 10.3999 19.224 10.4149 19.209 10.4249C19.194 10.4399 19.179 10.4399 19.164 10.4399C19.144 10.4399 19.104 10.4299 19.039 10.4049Z" fill="#309E3A"/>
<path fill-rule="evenodd" clip-rule="evenodd" d="M19.5789 10.5199C19.54 10.567 19.5111 10.6214 19.4939 10.6799C19.477 10.725 19.4692 10.7729 19.4709 10.8209C19.4727 10.869 19.4838 10.9162 19.5039 10.9599C19.5254 11.0006 19.5553 11.0362 19.5914 11.0646C19.6276 11.0931 19.6693 11.1136 19.7139 11.1249C19.8089 11.1549 19.8989 11.1499 19.9739 11.1049C20.058 11.0553 20.1191 10.9744 20.1439 10.8799C20.1739 10.7699 20.1739 10.6749 20.1339 10.5949C20.1126 10.5541 20.0828 10.5183 20.0466 10.4899C20.0104 10.4614 19.9686 10.441 19.9239 10.4299C19.8689 10.4099 19.8189 10.4099 19.7689 10.4099C19.7337 10.4156 19.6999 10.4274 19.6689 10.4449C19.6346 10.4644 19.6042 10.4898 19.5789 10.5199ZM19.6339 10.91C19.6089 10.86 19.6139 10.795 19.6339 10.72C19.6589 10.64 19.6939 10.59 19.7439 10.56C19.7663 10.5468 19.7913 10.5387 19.8172 10.5361C19.8431 10.5335 19.8693 10.5366 19.8939 10.545C19.9184 10.5526 19.941 10.5655 19.96 10.5828C19.979 10.6001 19.994 10.6213 20.0039 10.645C20.0289 10.695 20.0289 10.755 20.0039 10.83C19.9789 10.91 19.9489 10.965 19.8989 10.99C19.8489 11.02 19.7989 11.025 19.7489 11.01C19.6939 10.99 19.6589 10.96 19.6339 10.91Z" fill="#309E3A"/>
<path fill-rule="evenodd" clip-rule="evenodd" d="M21.177 11.0349L20.857 11.6549L20.982 11.7199L21.117 11.4599L21.142 11.4749L21.202 11.5099C21.215 11.5239 21.2236 11.5412 21.227 11.5599C21.2347 11.6013 21.2397 11.643 21.242 11.6849L21.262 11.8699L21.412 11.9449L21.402 11.7849C21.397 11.7199 21.392 11.6749 21.382 11.6449C21.3804 11.6409 21.3788 11.6367 21.3771 11.6324C21.3685 11.6102 21.3588 11.5851 21.342 11.5599C21.397 11.5799 21.447 11.5799 21.497 11.5699C21.542 11.5507 21.5778 11.5149 21.597 11.4699C21.617 11.4349 21.617 11.3999 21.617 11.36C21.617 11.32 21.602 11.2899 21.577 11.2649C21.5376 11.226 21.492 11.1939 21.442 11.1699L21.177 11.0349ZM21.2621 11.41L21.1671 11.36L21.2471 11.2L21.3471 11.25C21.3778 11.2653 21.4078 11.282 21.4371 11.3C21.4537 11.3126 21.4659 11.3301 21.4721 11.35C21.4771 11.37 21.4721 11.39 21.4621 11.41C21.4521 11.43 21.4421 11.445 21.4271 11.45C21.4121 11.46 21.3921 11.46 21.3771 11.46C21.3621 11.46 21.3221 11.44 21.2621 11.41Z" fill="#309E3A"/>
<path fill-rule="evenodd" clip-rule="evenodd" d="M23.5715 12.805C23.5214 12.8393 23.4789 12.8835 23.4465 12.935C23.3865 13.025 23.3615 13.115 23.3765 13.205C23.3849 13.25 23.4025 13.2929 23.4284 13.3308C23.4542 13.3686 23.4876 13.4007 23.5265 13.425C23.5636 13.4519 23.6059 13.4708 23.6507 13.4802C23.6955 13.4897 23.7418 13.4896 23.7865 13.48C23.8804 13.4569 23.9614 13.3976 24.0115 13.3149C24.0715 13.22 24.0965 13.125 24.0815 13.04C24.0732 12.9949 24.0555 12.952 24.0297 12.9142C24.0039 12.8763 23.9705 12.8442 23.9315 12.82C23.8865 12.79 23.8415 12.77 23.7915 12.76C23.7552 12.7525 23.7178 12.7525 23.6815 12.76C23.6425 12.7682 23.6052 12.7834 23.5715 12.805ZM23.5166 13.1949C23.5066 13.1399 23.5216 13.0799 23.5716 13.0149H23.5666C23.6166 12.9449 23.6666 12.9049 23.7166 12.8949C23.7666 12.8799 23.8216 12.8849 23.8666 12.9199C23.9116 12.9549 23.9416 12.9999 23.9466 13.0499C23.9566 13.0999 23.9366 13.1599 23.8916 13.2299C23.8466 13.2999 23.7966 13.3349 23.7466 13.3499C23.6966 13.3649 23.6466 13.3549 23.5966 13.3199C23.5751 13.306 23.5569 13.2876 23.5431 13.2661C23.5293 13.2445 23.5203 13.2203 23.5166 13.1949Z" fill="#309E3A"/>
<path d="M17.2353 10.2249L17.3503 9.73495L17.7103 9.81995L17.6953 9.89995L17.4303 9.83995L17.4053 9.94995L17.6503 10.0049L17.6303 10.0899L17.3853 10.0299L17.3553 10.1649L17.6303 10.2299L17.6103 10.3099L17.2353 10.2249Z" fill="#309E3A"/>
</svg>
