<svg width="36" height="24" viewBox="0 0 36 24" fill="none" xmlns="http://www.w3.org/2000/svg">
<g clip-path="url(#clip0_11930_67773)">
<path d="M0 0H36V24H0V0Z" fill="#FFD520"/>
<path d="M0 24H36V0L0 24Z" fill="#FF4E12"/>
<path d="M19.1301 7.49996C18.9301 7.43496 18.8001 7.53496 18.8101 7.79496C18.8101 8.04996 18.9501 8.19496 19.1501 8.09996L19.1301 7.49996Z" fill="white" stroke="black" stroke-width="0.02"/>
<path d="M19.3049 7.01996C19.1399 6.88996 18.9849 6.94496 18.9049 7.18996C18.8299 7.43996 18.9099 7.61996 19.1299 7.58996L19.3049 7.01996Z" fill="white" stroke="black" stroke-width="0.02"/>
<path d="M19.58 6.54999C19.44 6.39999 19.28 6.42999 19.16 6.65999C19.045 6.88999 19.095 7.08499 19.32 7.09499L19.58 6.54999ZM19.4 8.82499C19.155 8.91499 19.13 9.24999 19.285 9.45499C19.435 9.65999 19.72 9.69999 19.875 9.45499L19.4 8.82499Z" fill="white" stroke="black" stroke-width="0.02"/>
<path d="M19.115 8.11501C18.885 8.04001 18.675 8.35001 18.64 8.63001C18.595 8.98001 18.09 9.10001 18.37 9.63501C18.43 9.29501 18.655 9.10501 18.835 9.09501C19.015 9.08001 19.285 9.04501 19.4 8.82501L19.115 8.11501ZM19.85 9.49501C19.58 9.56001 19.54 9.92001 19.735 10.175C19.9 10.395 20.42 10.345 20.405 10.125L19.85 9.49501ZM20.615 11.665C20.63 11.43 20.255 11.34 20.075 11.385C19.895 11.435 19.55 11.38 19.475 11.185C19.405 11.34 19.5 11.51 19.76 11.595C19.96 11.655 19.955 11.795 19.895 11.865C20.045 11.89 20.48 11.89 20.615 11.665Z" fill="white" stroke="black" stroke-width="0.02"/>
<path d="M20.405 10.185C20.14 10.065 19.985 10.245 19.885 10.415C19.735 10.665 19.28 10.345 19.125 10.68C19.335 10.59 19.545 10.78 19.645 10.845C19.93 11.03 20.475 10.975 20.555 10.535L20.405 10.185Z" fill="white" stroke="black" stroke-width="0.02"/>
<path d="M20.5601 10.49C20.2951 10.69 20.1901 10.93 20.2001 11.09C20.2051 11.25 20.4301 11.605 20.6751 11.625C20.8151 11.335 20.8901 10.725 20.5601 10.49ZM19.4601 11.735C19.4601 11.635 19.6001 11.6 19.7001 11.635C19.7951 11.665 19.9451 11.76 19.8901 11.865L19.4601 11.735ZM18.0101 11.2C17.9851 11.085 18.1701 10.885 18.4201 10.995C18.6701 11.105 18.7051 11.315 18.6001 11.4L18.0101 11.2Z" fill="white" stroke="black" stroke-width="0.02"/>
<path d="M18.6201 11.42C18.6001 11.355 18.7851 11.225 19.0901 11.3C19.4001 11.38 19.4751 11.58 19.4651 11.735L18.6201 11.42ZM17.9751 11.205C18.1401 11.085 18.0751 10.855 17.9301 10.78C17.6701 10.65 17.7651 10.32 17.5951 10.255C17.4301 10.19 17.2701 10.075 17.2601 9.95496C17.1801 10.12 17.2301 10.265 17.3451 10.37C17.4601 10.47 17.2551 10.89 17.4051 11L17.9751 11.205ZM14.5251 11.115C14.3901 10.905 14.0701 10.94 13.9351 11.09C13.8001 11.24 13.8201 11.455 13.9451 11.555L14.5251 11.115ZM15.3001 10.8C15.2501 10.515 14.9051 10.485 14.7201 10.555C14.5301 10.625 14.4051 10.91 14.5251 11.115L15.3001 10.8Z" fill="white"/>
<path d="M14.5251 11.115C14.3901 10.905 14.0701 10.94 13.9351 11.09C13.8001 11.24 13.8201 11.455 13.9451 11.555L14.5251 11.115ZM14.5251 11.115C14.4051 10.91 14.5301 10.625 14.7201 10.555C14.9051 10.485 15.2501 10.515 15.3001 10.8L14.5251 11.115ZM18.6201 11.42C18.6001 11.355 18.7851 11.225 19.0901 11.3C19.4001 11.38 19.4751 11.58 19.4651 11.735L18.6201 11.42ZM17.9751 11.205C18.1401 11.085 18.0751 10.855 17.9301 10.78C17.6701 10.65 17.7651 10.32 17.5951 10.255C17.4301 10.19 17.2701 10.075 17.2601 9.95496C17.1801 10.12 17.2301 10.265 17.3451 10.37C17.4601 10.47 17.2551 10.89 17.4051 11L17.9751 11.205Z" stroke="black" stroke-width="0.02"/>
<path d="M15.81 10.76C15.935 10.525 15.695 10.17 15.425 10.12C15.2 10.07 14.935 10.075 14.845 9.85498C14.795 10.045 14.935 10.17 15.105 10.28C15.27 10.39 15.075 10.67 15.345 10.83L15.81 10.76Z" fill="white" stroke="black" stroke-width="0.02"/>
<path d="M15.7899 10.77C15.7299 10.6 15.8449 10.37 16.0749 10.39C16.3099 10.405 16.4399 10.57 16.3399 10.785L15.7899 10.77Z" fill="white" stroke="black" stroke-width="0.02"/>
<path d="M16.305 10.785C16.27 10.605 16.415 10.395 16.645 10.445C16.87 10.495 16.975 10.68 16.845 10.87L16.305 10.78V10.785Z" fill="white" stroke="black" stroke-width="0.02"/>
<path d="M16.8099 10.865C16.7899 10.685 16.9449 10.485 17.1699 10.545C17.3949 10.605 17.4899 10.795 17.3499 10.98L16.8149 10.865H16.8099ZM12.9299 13.815C12.4949 13.815 12.3899 13.915 12.3299 14.365C12.2499 14.915 13.0049 14.98 12.9299 13.815Z" fill="white" stroke="black" stroke-width="0.02"/>
<path d="M13.12 13.235C12.46 12.985 12.1 14.035 11.44 13.845C11.675 14.22 12.245 13.845 12.46 13.885C12.82 13.95 13.6 13.815 13.12 13.235ZM12.69 14.67C12.36 14.52 12.01 15.02 12.07 15.245C12.155 15.52 12.905 15.295 12.69 14.67ZM11.16 16.835C11.34 16.885 11.56 16.985 11.52 17.335C11.48 17.685 10.82 18.39 10.23 18.435C9.64 18.47 9.43 19.185 8.915 18.985C9.395 18.895 9.395 18.355 9.765 18.185C9.495 18.085 9.355 18.7 9.005 18.7C8.655 18.7 8.49 19.255 8.065 19.215C7.64 19.18 7.6 19.89 6.745 19.9C6.095 19.905 5.295 20.665 5 20.335C5.635 20.245 5.89 19.895 6.265 19.51C6.865 18.895 7.55 19.17 7.785 18.625C7.51511 18.8071 7.19553 18.9014 6.87 18.895C6.47 18.885 6.04 19.525 5.595 19.245C5.85 19.21 6.02 19.1 6.29 18.815C6.565 18.525 6.975 18.715 7.295 18.415C7.795 17.955 8.23 18.34 8.71 17.765C8.575 17.695 8.285 17.74 8.015 17.885C7.745 18.025 7.4 17.785 7.09 17.955C7.125 17.575 7.85 17.79 8.3 17.53C8.81 17.23 9.23 17.32 9.63 17.355C9.07 17.355 8.855 16.82 8.08 16.975C7.745 17.045 7.475 16.51 7.14 16.78C7.15 16.58 7.5 16.42 7.86 16.615C8.22 16.81 8.365 16.445 9.085 16.9C9.385 17.085 9.89 16.78 10.21 16.98C10.17 16.86 9.985 16.78 9.77 16.8C9.905 16.52 10.78 16.555 11.16 16.835Z" fill="white" stroke="black" stroke-width="0.02"/>
<path d="M11.73 16.415C11.45 16.195 11.055 16.46 10.78 16.355C10.78 16.535 10.875 16.805 11.17 16.91C11.26 16.845 11.67 16.49 11.73 16.415Z" fill="white" stroke="black" stroke-width="0.02"/>
<path d="M12.1749 15.7899C11.7299 15.5649 11.6549 16.1249 11.3049 16.0099C11.3199 16.1699 11.4499 16.3699 11.7299 16.4149L12.1749 15.7899Z" fill="white" stroke="black" stroke-width="0.02"/>
<path d="M12.4399 15.28C11.7849 15.025 11.6999 15.655 11.3149 15.53C11.4049 15.75 11.9549 15.87 12.2399 15.79L12.4399 15.28ZM13.3399 12.52C13.1649 12.27 12.7999 12.47 12.7399 12.765C12.6849 13.055 12.8249 13.46 13.0699 13.365L13.3399 12.52Z" fill="white" stroke="black" stroke-width="0.02"/>
<path d="M13.785 11.75C13.485 11.675 13.135 11.71 13.175 12C13.055 12.055 13.025 12.435 13.34 12.52L13.785 11.75Z" fill="white" stroke="black" stroke-width="0.02"/>
<path d="M13.985 11.55C13.685 11.2 13.36 11.205 13.175 11.35C12.83 11.625 12.5 11.47 12.49 11.74C12.695 11.58 12.88 11.77 13.04 11.715C13.21 11.655 13.335 11.98 13.8 11.845L13.985 11.55ZM13.27 16.745C13.315 16.83 13.59 16.865 13.725 16.725C13.905 16.535 13.71 16.015 13.425 15.975C13.14 15.94 13.115 16.565 13.27 16.745Z" fill="white" stroke="black" stroke-width="0.02"/>
<path d="M12.95 16.755C13.35 16.905 13.525 16.57 13.31 16.355C13.1991 16.4962 13.0788 16.6299 12.95 16.755Z" fill="white" stroke="black" stroke-width="0.02"/>
<path d="M11.43 17.31C11.35 17.545 10.95 17.58 10.5 18.3C10.05 19.025 9.62001 18.72 9.51001 19.215C10.05 18.78 10.475 19.065 10.8 18.635C11.285 17.98 11.69 18.075 11.88 17.635C12.15 17 13.33 17.015 13.4 16.02C13 15.945 11.735 17.015 11.43 17.31ZM21.59 7.57498C22.105 7.74498 22.115 8.40998 22.71 8.62998C23.3 8.84998 23.36 9.37998 23.845 9.24998C23.395 9.12498 23.425 8.60498 22.955 8.47498C22.405 8.32498 22.195 7.48498 21.755 7.35498M23.955 11.07C24.045 11.28 24.03 11.645 23.705 11.74C23.88 11.85 24.14 11.75 24.28 11.51C24.07 11.98 24.21 12.405 24.545 12.49C24.385 12.16 24.745 12.005 24.63 11.79C24.84 11.885 25.03 12.175 25.02 12.355C25.3 12.045 24.82 11.63 24.905 11.34L23.955 11.07ZM20.61 14.38C20.295 14.105 20.16 14.455 20.01 14.33C19.86 14.22 19.67 14.205 19.595 14.315C19.865 14.325 19.735 14.535 20.26 14.585C19.735 14.62 19.83 15.21 19.48 15.18C19.85 15.53 20.045 14.865 20.35 14.975C20.26 15 20.49 15.21 20.33 15.495C20.59 15.49 20.695 15.13 20.73 14.945L20.61 14.38ZM13.66 17.39C13.55 17.29 13.21 17.245 13.085 17.325C12.955 17.4 13 17.425 13.155 17.435C13.31 17.445 13.505 17.695 13.175 17.71C13.02 17.715 13.075 18.09 12.75 18.115C12.88 18.275 13.26 18.17 13.395 17.995C13.37 18.14 13.56 18.27 13.485 18.445C13.72 18.47 13.585 17.96 13.96 17.985C13.81 18.005 13.87 18.355 14.14 18.265C13.98 18.34 14.065 18.53 14.24 18.485C14.13 18.52 14.09 18.67 14.25 18.755C14.405 18.54 14.23 17.78 13.665 17.39H13.66ZM27.69 10.285C27.8128 10.2942 27.9362 10.2779 28.0525 10.2372C28.1687 10.1966 28.2753 10.1323 28.3656 10.0485C28.4559 9.96477 28.5279 9.86326 28.5772 9.75038C28.6264 9.63749 28.6519 9.51565 28.6519 9.39248C28.6519 9.26931 28.6264 9.14747 28.5772 9.03458C28.5279 8.9217 28.4559 8.82019 28.3656 8.73641C28.2753 8.65263 28.1687 8.5884 28.0525 8.54771C27.9362 8.50703 27.8128 8.49078 27.69 8.49998C27.4648 8.51685 27.2544 8.61819 27.1008 8.78371C26.9472 8.94923 26.8619 9.16668 26.8619 9.39248C26.8619 9.61828 26.9472 9.83573 27.1008 10.0012C27.2544 10.1668 27.4648 10.2681 27.69 10.285Z" fill="white"/>
<path d="M21.59 7.57498C22.105 7.74498 22.115 8.40998 22.71 8.62998C23.3 8.84998 23.36 9.37998 23.845 9.24998C23.395 9.12498 23.425 8.60498 22.955 8.47498C22.405 8.32498 22.195 7.48498 21.755 7.35498M11.43 17.31C11.35 17.545 10.95 17.58 10.5 18.3C10.05 19.025 9.62001 18.72 9.51001 19.215C10.05 18.78 10.475 19.065 10.8 18.635C11.285 17.98 11.69 18.075 11.88 17.635C12.15 17 13.33 17.015 13.4 16.02C13 15.945 11.735 17.015 11.43 17.31ZM23.955 11.07C24.045 11.28 24.03 11.645 23.705 11.74C23.88 11.85 24.14 11.75 24.28 11.51C24.07 11.98 24.21 12.405 24.545 12.49C24.385 12.16 24.745 12.005 24.63 11.79C24.84 11.885 25.03 12.175 25.02 12.355C25.3 12.045 24.82 11.63 24.905 11.34L23.955 11.07ZM20.61 14.38C20.295 14.105 20.16 14.455 20.01 14.33C19.86 14.22 19.67 14.205 19.595 14.315C19.865 14.325 19.735 14.535 20.26 14.585C19.735 14.62 19.83 15.21 19.48 15.18C19.85 15.53 20.045 14.865 20.35 14.975C20.26 15 20.49 15.21 20.33 15.495C20.59 15.49 20.695 15.13 20.73 14.945L20.61 14.38ZM13.66 17.39C13.55 17.29 13.21 17.245 13.085 17.325C12.955 17.4 13 17.425 13.155 17.435C13.31 17.445 13.505 17.695 13.175 17.71C13.02 17.715 13.075 18.09 12.75 18.115C12.88 18.275 13.26 18.17 13.395 17.995C13.37 18.14 13.56 18.27 13.485 18.445C13.72 18.47 13.585 17.96 13.96 17.985C13.81 18.005 13.87 18.355 14.14 18.265C13.98 18.34 14.065 18.53 14.24 18.485C14.13 18.52 14.09 18.67 14.25 18.755C14.405 18.54 14.23 17.78 13.665 17.39H13.66ZM27.69 10.285C27.8128 10.2942 27.9362 10.2779 28.0525 10.2372C28.1687 10.1966 28.2753 10.1323 28.3656 10.0485C28.4559 9.96477 28.5279 9.86326 28.5772 9.75038C28.6264 9.63749 28.6519 9.51565 28.6519 9.39248C28.6519 9.26931 28.6264 9.14747 28.5772 9.03458C28.5279 8.9217 28.4559 8.82019 28.3656 8.73641C28.2753 8.65263 28.1687 8.5884 28.0525 8.54771C27.9362 8.50703 27.8128 8.49078 27.69 8.49998C27.4648 8.51685 27.2544 8.61819 27.1008 8.78371C26.9472 8.94923 26.8619 9.16668 26.8619 9.39248C26.8619 9.61828 26.9472 9.83573 27.1008 10.0012C27.2544 10.1668 27.4648 10.2681 27.69 10.285Z" stroke="black" stroke-width="0.02"/>
<path d="M23.03 11.36C23.305 11.105 23.715 10.975 24 11.17C24.28 11.36 25.22 11.59 25.685 11.27C26.15 10.95 26.37 10.78 26.575 10.82C26.725 11.05 26.915 11.16 27.145 11.18C27.215 11.26 27.47 11.32 27.61 11.305C27.815 11.355 28.065 11.29 28.265 11.07C28.575 11.12 28.865 10.885 28.975 10.535C29.305 10.5 29.325 10.135 29.115 9.88499C28.925 9.84999 29.07 9.19499 28.37 9.32499C28.67 9.50499 28.44 9.86499 28.685 10.035C28.52 10.035 28.3 10.105 28.25 10.355C28.315 10.185 28.24 10.065 28.2 10.03C28.2 9.87999 27.875 9.51499 27.565 9.64999C27.785 9.69999 27.665 10.05 27.825 10.19C27.7642 10.1925 27.7048 10.2086 27.6512 10.2371C27.5975 10.2657 27.551 10.306 27.515 10.355C27.43 10.205 27.135 10.055 26.955 10.04C26.955 9.98999 26.945 9.88999 26.92 9.83499C26.84 9.67999 26.77 9.49499 26.805 9.25999C26.6588 9.4321 26.5376 9.62399 26.445 9.82999C26.2 9.65999 25.595 9.90499 25.31 9.96999C25.03 10.035 24.075 9.87999 23.86 9.64999C23.554 9.40538 23.194 9.23738 22.81 9.15999C22.26 8.99999 22.26 8.39999 21.655 7.98499C21.64 8.73499 22.775 11.105 23.03 11.36ZM16.72 17.055C16.9494 17.055 17.1694 16.9639 17.3316 16.8016C17.4938 16.6394 17.585 16.4194 17.585 16.19C17.585 15.9606 17.4938 15.7406 17.3316 15.5783C17.1694 15.4161 16.9494 15.325 16.72 15.325C16.4906 15.325 16.2706 15.4161 16.1083 15.5783C15.9461 15.7406 15.855 15.9606 15.855 16.19C15.855 16.4194 15.9461 16.6394 16.1083 16.8016C16.2706 16.9639 16.4906 17.055 16.72 17.055Z" fill="white" stroke="black" stroke-width="0.02"/>
<path d="M14.6599 16.39C14.8349 16.615 15.1299 16.6 15.2549 16.585C15.3549 16.855 15.6849 16.845 15.8249 16.995C15.9699 17.145 16.4499 17.13 16.5899 17.045C16.4649 17.035 16.2949 16.955 16.1399 16.82C15.9399 16.66 16.0299 16.33 15.8799 16.22C15.9271 16.1599 15.9613 16.0906 15.9802 16.0166C15.9992 15.9425 16.0025 15.8654 15.9899 15.79C16.1099 15.72 16.1999 15.605 16.2099 15.545C16.3893 15.5363 16.5596 15.4636 16.6899 15.34C16.7999 15.44 17.0749 15.31 17.2249 15.48C17.2549 15.055 16.8499 14.83 16.5749 14.975C16.4699 14.915 16.1799 14.955 16.1249 15.03C16.0399 14.99 15.7849 15.12 15.6749 15.205C15.7999 15.135 15.8199 14.92 15.7699 14.845C15.8799 14.795 15.9999 14.65 16.0149 14.545C16.1649 14.57 16.3999 14.465 16.4999 14.49C16.3349 14.27 16.0599 14.19 15.7749 14.215C15.4799 14.23 15.3549 14.435 15.3149 14.655C15.1449 14.76 15.0849 15.105 15.1499 15.23C15.0499 15.23 14.9549 15.325 14.9199 15.38C14.7706 15.3185 14.6114 15.2846 14.4499 15.28M14.5149 14.93C14.4549 14.76 14.5299 14.61 14.5699 14.48C14.6699 14.14 14.6099 14.05 14.3049 14.095C14.3229 14.3839 14.3941 14.667 14.5149 14.93Z" fill="white"/>
<path d="M14.6599 16.39C14.8349 16.615 15.1299 16.6 15.2549 16.585C15.3549 16.855 15.6849 16.845 15.8249 16.995C15.9699 17.145 16.4499 17.13 16.5899 17.045C16.4649 17.035 16.2949 16.955 16.1399 16.82C15.9399 16.66 16.0299 16.33 15.8799 16.22C15.9271 16.1599 15.9613 16.0906 15.9802 16.0166C15.9992 15.9425 16.0025 15.8654 15.9899 15.79C16.1099 15.72 16.1999 15.605 16.2099 15.545C16.3893 15.5363 16.5596 15.4636 16.6899 15.34C16.7999 15.44 17.0749 15.31 17.2249 15.48C17.2549 15.055 16.8499 14.83 16.5749 14.975C16.4699 14.915 16.1799 14.955 16.1249 15.03C16.0399 14.99 15.7849 15.12 15.6749 15.205C15.7999 15.135 15.8199 14.92 15.7699 14.845C15.8799 14.795 15.9999 14.65 16.0149 14.545C16.1649 14.57 16.3999 14.465 16.4999 14.49C16.3349 14.27 16.0599 14.19 15.7749 14.215C15.4799 14.23 15.3549 14.435 15.3149 14.655C15.1449 14.76 15.0849 15.105 15.1499 15.23C15.0499 15.23 14.9549 15.325 14.9199 15.38C14.7706 15.3185 14.6114 15.2846 14.4499 15.28M14.5149 14.93C14.4549 14.76 14.5299 14.61 14.5699 14.48C14.6699 14.14 14.6099 14.05 14.3049 14.095C14.3229 14.3839 14.3941 14.667 14.5149 14.93Z" stroke="black" stroke-width="0.02"/>
<path d="M14.29 14.115C14.37 14.195 14.64 14.23 14.67 13.985C14.705 13.705 14.59 13.595 14.345 13.705C14.325 13.77 14.305 14.03 14.295 14.115H14.29Z" fill="white" stroke="black" stroke-width="0.02"/>
<path d="M14.3501 13.695C14.4501 13.735 14.6751 13.82 14.8001 13.58C14.9001 13.38 14.7651 13.23 14.5501 13.24C14.5001 13.3 14.4001 13.505 14.3501 13.695Z" fill="white" stroke="black" stroke-width="0.02"/>
<path d="M14.54 13.2199C14.565 13.2999 14.83 13.5549 15.02 13.3699C15.215 13.1849 15.215 12.9049 14.925 12.8049C14.85 12.8149 14.615 13.0849 14.54 13.2199Z" fill="white" stroke="black" stroke-width="0.02"/>
<path d="M14.925 12.8C14.98 12.965 15.165 13.24 15.5 13.115C15.835 12.985 15.69 12.565 15.535 12.48C15.3111 12.544 15.1032 12.6548 14.925 12.805V12.8Z" fill="white" stroke="black" stroke-width="0.02"/>
<path d="M15.5349 12.48C15.5099 12.625 15.5349 13.01 15.9949 13.005C16.4499 12.995 16.3249 12.46 16.2049 12.385C16.0199 12.385 15.7049 12.39 15.5349 12.485V12.48Z" fill="white" stroke="black" stroke-width="0.02"/>
<path d="M16.2251 12.4C16.1751 12.515 16.0601 13.235 16.9551 13.035C17.0701 13.01 17.3701 12.345 16.2251 12.405V12.4Z" fill="white" stroke="black" stroke-width="0.02"/>
<path d="M16.7151 12.47C16.6251 12.56 16.8551 13.285 17.4651 13.165C18.0651 13.04 17.5601 12.35 16.7151 12.465V12.47Z" fill="white" stroke="black" stroke-width="0.02"/>
<path d="M17.2301 12.58C17.1301 12.78 17.2801 13.37 18.0251 13.37C18.7001 13.37 17.9901 12.59 17.2301 12.58Z" fill="white" stroke="black" stroke-width="0.02"/>
<path d="M17.8149 12.75C17.7649 12.865 17.7099 13.49 18.5899 13.545C19.2249 13.585 19.0699 12.68 17.8149 12.75Z" fill="white" stroke="black" stroke-width="0.02"/>
<path d="M18.76 13.015C18.655 13.21 18.54 13.69 19.505 13.73C20.12 13.755 19.74 13.03 18.765 13.015H18.76Z" fill="white" stroke="black" stroke-width="0.02"/>
<path d="M19.5651 13.165C19.4251 13.355 19.5301 13.735 19.8901 13.805C20.3401 13.895 20.4051 13.47 20.0951 13.265C19.7851 13.065 19.5651 13.165 19.5651 13.165Z" fill="white" stroke="black" stroke-width="0.02"/>
<path d="M20.0101 13.25C19.9051 13.435 19.9651 13.87 20.6501 13.87C20.7901 13.87 21.3301 13.32 20.0051 13.255L20.0101 13.25ZM14.7151 21.65C14.9803 21.65 15.2347 21.5446 15.4222 21.3571C15.6097 21.1696 15.7151 20.9152 15.7151 20.65C15.7151 20.3848 15.6097 20.1304 15.4222 19.9429C15.2347 19.7554 14.9803 19.65 14.7151 19.65C14.4499 19.65 14.1955 19.7554 14.008 19.9429C13.8204 20.1304 13.7151 20.3848 13.7151 20.65C13.7151 20.9152 13.8204 21.1696 14.008 21.3571C14.1955 21.5446 14.4499 21.65 14.7151 21.65Z" fill="white" stroke="black" stroke-width="0.02"/>
<path d="M22.065 7.08498C21.957 7.20528 21.8662 7.33988 21.795 7.48498C21.46 8.48498 22.355 9.23498 22.875 10.32C23.0889 10.8082 23.1754 11.3428 23.1265 11.8736C23.0775 12.4044 22.8946 12.9141 22.595 13.355C22.375 13.645 22.44 13.73 22.155 14.025C22.045 14.14 21.925 14.285 21.965 14.695C22.145 14.63 22.4 14.795 22.45 14.945C22.58 14.875 22.76 14.9 22.825 14.98C23.045 14.88 23.225 14.93 23.42 15.13C23.585 15.11 23.77 15.13 23.935 15.315C24.025 15.135 24.205 15.065 24.335 15.11C24.32 14.875 24.55 14.71 24.755 14.8C24.7389 14.734 24.7409 14.6649 24.7606 14.5999C24.7804 14.5349 24.8172 14.4764 24.8672 14.4304C24.9172 14.3845 24.9787 14.3528 25.0451 14.3386C25.1115 14.3245 25.1806 14.3284 25.245 14.35C25.48 14.17 25.945 14.155 26.175 14.425C25.76 14.31 25.775 14.75 25.425 14.71C25.515 14.965 25.285 15.115 25.055 15.2C25.205 15.13 25.365 15.045 25.415 15.135C25.545 15.02 25.8 15.065 25.865 15.12C26.035 15.07 26.2 15.11 26.275 15.315C26.51 15.455 26.665 15.815 26.495 16.085C26.445 15.805 26.25 15.815 26.175 15.7C25.995 15.765 25.815 15.765 25.76 15.65C25.66 15.75 25.31 15.845 25.16 15.69C25.1 15.92 24.9 16.115 24.665 16.115C24.73 16.295 24.55 16.6 24.41 16.755C24.63 16.87 24.56 17.13 24.51 17.285C24.85 17.335 24.56 17.635 25.145 17.825C24.86 17.915 24.305 17.825 24.23 17.475C23.945 17.465 23.755 17.18 23.765 16.885C23.545 16.68 23.515 16.385 23.815 16.175C23.56 16.255 23.415 15.84 23.045 16.01C22.86 16.095 22.37 15.95 22.375 15.78C22.3 15.905 21.825 15.855 21.765 15.635C21.61 15.72 21.25 15.58 21.255 15.365C21.055 15.455 20.785 15.295 20.8 15.09C20.61 15.065 20.59 14.895 20.6 14.755C20.435 14.675 20.48 14.515 20.55 14.325C20.43 14.195 20.48 14.015 20.57 13.845C20.445 13.715 20.47 13.565 20.505 13.38C19.89 13.33 19.115 13.18 17.34 12.635C14.66 11.81 13.94 13.745 14.53 14.955C15.215 16.355 14.455 16.655 14.685 17.695C14.935 17.745 15.06 17.955 15.045 18.175C15.195 18.18 15.295 18.315 15.245 18.575C15.3129 18.5638 15.3825 18.5684 15.4483 18.5883C15.5142 18.6082 15.5746 18.643 15.625 18.69C15.715 18.52 16.015 18.48 16.165 18.675C16.5 18.65 16.67 18.925 16.655 19.255C16.7357 19.4063 16.7715 19.5775 16.7582 19.7484C16.7449 19.9194 16.6831 20.083 16.58 20.22C16.6 20.085 16.58 19.895 16.575 19.775C16.56 19.565 16.265 19.52 16.295 19.345C16.145 19.36 15.995 19.275 15.945 19.16C15.9003 19.1985 15.8464 19.2247 15.7886 19.2361C15.7307 19.2475 15.6709 19.2437 15.615 19.225C15.785 19.3 15.925 19.61 15.87 19.815C15.96 19.97 15.94 20.255 15.835 20.375C15.785 20.625 15.585 20.715 15.335 20.605C15.48 20.515 15.53 20.355 15.525 20.22C15.4406 20.1356 15.3892 20.0239 15.38 19.905C15.13 19.945 14.78 19.73 14.72 19.645C14.5882 19.645 14.4578 19.671 14.3361 19.7216C14.2145 19.7721 14.104 19.8463 14.0111 19.9396C13.9182 20.033 13.8446 20.1439 13.7946 20.2658C13.7447 20.3877 13.7193 20.5182 13.72 20.65C13.69 20.445 13.43 20.24 13.465 20.065C13.31 19.59 13.53 19.145 14.16 19.055C14.08 18.875 14.35 18.69 14.25 18.485C14.0492 18.1198 13.8021 17.782 13.515 17.48C13.735 17.105 13.665 16.605 13.54 16.295C13.355 15.85 13.18 15.96 12.525 16.68C11.455 17.855 10.025 17.53 8.76497 18.305C8.42997 18.505 8.09497 18.585 8.45497 18.225C8.81497 17.865 9.76497 17.505 10.385 17.195C11.545 16.615 12.525 15.65 12.91 13.77C13.815 9.34998 17.16 10.81 19.27 11.63C21.255 12.405 20.895 10.655 19.89 9.59498C18.68 8.32998 18.925 7.32998 19.49 6.52998C20.505 6.38998 22.46 6.74498 22.065 7.08498Z" fill="white" stroke="black" stroke-width="0.02"/>
<path d="M25.6549 17.94C25.7997 17.94 25.9431 17.9115 26.0768 17.8561C26.2106 17.8007 26.3321 17.7194 26.4345 17.6171C26.5369 17.5147 26.6181 17.3932 26.6735 17.2594C26.7289 17.1256 26.7574 16.9823 26.7574 16.8375C26.7574 16.6927 26.7289 16.5493 26.6735 16.4156C26.6181 16.2818 26.5369 16.1603 26.4345 16.0579C26.3321 15.9555 26.2106 15.8743 26.0768 15.8189C25.9431 15.7635 25.7997 15.735 25.6549 15.735C25.3632 15.735 25.0834 15.8509 24.8771 16.0572C24.6708 16.2635 24.5549 16.5432 24.5549 16.835C24.5549 17.1267 24.6708 17.4065 24.8771 17.6128C25.0834 17.8191 25.3632 17.935 25.6549 17.935V17.94Z" fill="white" stroke="black" stroke-width="0.02"/>
<path d="M21.4461 7.13501C21.1961 8.22001 21.4061 8.71001 21.7661 9.18501C22.5111 10.17 23.1061 12.415 22.2561 13.885" stroke="black" stroke-width="0.02"/>
<path d="M22.7349 12.615C22.8349 12.58 23.0349 12.455 23.0749 12.245M22.8149 12.145C22.8449 11.96 23.1349 11.88 23.1399 11.68M22.8199 11.42C22.7999 11.225 23.1099 11.05 23.0649 10.86M22.6499 10.725C22.6249 10.615 22.9099 10.41 22.8299 10.235M22.4399 10.045C22.3799 9.925 22.5749 9.785 22.4899 9.655M22.1299 9.505C22.1099 9.425 22.2299 9.24 22.1649 9.13M21.8199 8.87C21.8449 8.835 21.9499 8.76 21.9099 8.665M21.6099 8.4C21.6499 8.38 21.7749 8.34 21.7599 8.25" stroke="black" stroke-width="0.02" stroke-linecap="round"/>
<path d="M15.1595 20.545C14.9095 20.455 14.5845 20.58 14.5195 20.8M14.7145 21C14.7445 20.78 15.0795 20.685 15.1795 20.785C14.9695 20.67 14.8645 21.085 15.0545 21.095M16.7845 15.905C16.6345 15.985 16.5845 16.265 16.7845 16.48M17.0145 15.97C16.9095 16.06 16.9145 16.33 17.0745 16.395C16.9395 16.295 17.0745 16.13 17.1745 16.125C17.2695 16.12 17.3345 16.235 17.2145 16.35M26.0645 16.61C25.7045 16.51 25.4145 16.93 25.7445 17.305C25.7345 16.945 25.9945 16.705 26.3095 16.77M26.1595 17.02C26.1237 17.02 26.0894 17.0343 26.0641 17.0596C26.0388 17.0849 26.0245 17.1192 26.0245 17.155C26.0245 17.225 26.0845 17.295 26.1845 17.295C26.2495 17.295 26.3045 17.22 26.3045 17.16M27.4345 9.11004C27.4945 9.33004 27.7945 9.42504 28.0345 9.37004M28.0345 9.23004C27.8495 9.23504 27.6945 9.06004 27.7045 8.91504C27.7045 9.02504 27.9545 9.07504 28.0345 9.00504" stroke="black" stroke-width="0.02" stroke-linecap="round" stroke-linejoin="round"/>
<path d="M15.2548 16.585C15.2048 16.455 15.4048 16.325 15.4148 16.205C15.4198 16.08 15.6448 15.985 15.8798 16.215M15.7698 14.845L15.6448 14.905M16.2148 15.545C16.1598 15.545 16.0448 15.545 15.9848 15.5M15.9848 15.79C15.9448 15.815 15.8448 15.85 15.7848 15.865M13.7798 19.68C13.7698 19.795 13.8898 19.965 13.9498 20.015M14.2798 19.405C14.2444 19.4608 14.2204 19.5232 14.2092 19.5884C14.1981 19.6537 14.2 19.7205 14.2148 19.785M15.2398 19.785C15.1248 19.71 15.1998 19.515 15.1898 19.385C15.1748 19.255 15.3248 19.05 15.6148 19.225M14.1598 19.05C14.2748 19.03 14.3948 19.035 14.4748 19.07M15.6248 18.685C15.5846 18.7444 15.5605 18.8134 15.5548 18.885M16.1698 18.67C16.0798 18.67 15.9998 18.735 15.9598 18.8M14.9198 15.375C15.0198 15.41 15.2898 15.575 15.2998 15.745M16.0148 14.535C15.6998 14.53 15.5748 14.21 15.8148 14.21M16.5798 14.97C16.4598 15.02 16.5148 15.23 16.6898 15.335M15.8248 16.99C15.7648 16.91 15.8448 16.69 16.0448 16.755M16.2948 19.34C16.3098 19.14 16.5548 19.03 16.6548 19.25M15.3798 19.9C15.3648 19.685 15.4798 19.615 15.5698 19.6C15.6698 19.59 15.8048 19.67 15.8698 19.81M13.4648 20.06C13.4748 19.93 13.5848 19.795 13.6998 19.815M25.2498 14.345C25.1648 14.405 25.1098 14.68 25.4248 14.705M24.7598 14.8C24.7598 14.83 24.7998 14.875 24.8248 14.9M26.2748 15.315C26.1948 15.25 25.9748 15.515 26.1748 15.7M24.2248 17.48C24.1798 17.295 24.3498 17.245 24.5148 17.285M23.8148 16.175C23.9148 16.115 24.0148 16.04 24.1348 16.01M23.7648 16.885C23.7648 16.735 23.8448 16.6 23.9148 16.565M24.3348 15.11C24.3273 15.2719 24.3692 15.4323 24.4548 15.57M25.8648 15.12C25.7698 15.15 25.6898 15.185 25.6548 15.265M25.7598 15.65C25.8098 15.61 25.8598 15.565 25.8798 15.535M28.1948 10.025C28.1948 10.205 27.9698 10.305 27.8198 10.19M28.6848 10.035C28.7848 10.11 29.1298 10.035 29.0498 9.83496M28.2598 11.07C28.1663 11.0425 28.0818 10.9908 28.0148 10.92M28.9698 10.535C28.8548 10.56 28.7748 10.535 28.7198 10.51M27.1398 11.18C27.2524 11.1751 27.3629 11.1479 27.4648 11.1M26.9598 10.04C26.8748 10.03 26.8098 10.045 26.7648 10.08M28.2548 10.355C28.2299 10.4539 28.178 10.5439 28.1048 10.615" stroke="black" stroke-width="0.02" stroke-linecap="round"/>
<path d="M26.7349 10.64C26.8949 10.57 27.0949 11.115 27.4849 10.925M27.5149 10.355C27.4607 10.4387 27.4296 10.5353 27.4249 10.635" stroke="black" stroke-width="0.02" stroke-linecap="round" stroke-linejoin="round"/>
<path d="M19.8062 9.51991C19.8562 9.50991 19.9512 9.49491 19.9712 9.42991M13.1812 15.5149C13.3762 15.6249 13.5112 15.8099 13.4312 16.0849M22.0362 8.92491C22.0962 8.96491 22.3112 8.96491 22.4362 8.92491M22.5862 9.05491C22.5862 9.14491 22.6112 9.48491 22.4362 9.55491M22.5012 9.51491C22.6612 9.56491 22.9812 9.54491 23.0862 9.24991M22.8612 9.49991C22.9462 9.62991 22.9712 9.87991 22.7212 10.0149M22.9212 9.71491C23.1112 9.77491 23.5412 9.78491 23.4962 9.41491M23.3462 9.71491C23.4812 9.88991 24.0462 10.1049 23.9562 9.72991M22.8312 10.2299C23.0462 10.2849 23.3562 10.1349 23.2312 9.74991M23.8462 9.94491C23.8762 10.0949 24.5962 10.2449 24.5012 9.90991M24.3662 10.1049C24.5012 10.4149 25.2162 10.3899 24.9912 9.97491M24.8762 10.2999C25.0162 10.4699 25.6512 10.3699 25.3962 9.94991M25.3912 10.2899C25.7862 10.5899 26.2412 10.1649 25.7412 9.85491M25.9712 10.1949C26.3212 10.4699 26.7462 9.96991 26.4412 9.82991M23.2212 10.0799C23.3312 10.1099 23.5612 10.0999 23.6162 9.89991M23.5262 10.0349C23.5162 10.3249 24.0062 10.4349 24.1312 10.0999M23.9662 10.2849C24.0562 10.4799 24.4912 10.5549 24.5612 10.2799M24.4912 10.4099C24.5612 10.5999 24.9362 10.5799 25.0412 10.3799M24.9012 10.5099C25.0162 10.7599 25.4962 10.7599 25.6012 10.3949M25.5212 10.5549C25.7062 10.6699 26.1062 10.6249 26.0712 10.2649M25.9962 10.5249C26.2762 10.7499 26.6662 10.5299 26.4712 10.1499M26.4562 10.8199C26.6062 10.7949 26.6812 10.4999 26.5262 10.4199M23.0262 10.8699C23.3262 10.7049 23.3912 10.4199 23.1762 10.1449M23.2862 10.5899C23.4812 10.7049 23.8462 10.5799 23.9112 10.2999M23.5512 10.6199C23.6612 10.7599 23.6812 10.9349 23.5362 11.0949M23.6362 10.7999C23.9812 10.5899 24.4062 10.9799 24.0862 11.2199M24.0362 10.7799C24.1112 10.7599 24.2462 10.6199 24.2562 10.4599M24.1862 10.9299C24.3312 10.7799 25.2962 11.0799 24.6862 11.3949M24.6362 10.5249C24.8262 10.5949 24.9212 10.8599 24.6362 10.9499M24.8862 11.1699C25.0862 10.9549 25.7362 11.0899 25.5012 11.3599M25.3462 11.0849C25.4612 10.6899 26.1512 10.9349 25.9262 11.0949M25.2062 10.6949C25.2262 10.7699 25.2312 10.9599 25.1062 11.0649M25.7862 10.6149C25.8001 10.6592 25.8038 10.7061 25.7968 10.752C25.7899 10.798 25.7726 10.8417 25.7462 10.8799M26.2212 10.6199C26.2612 10.6899 26.3212 10.8249 26.1812 10.9349M20.7112 7.65991C20.7162 8.02491 20.8462 8.26991 21.3412 8.03991M20.8662 8.09491C20.6162 8.42491 20.8962 8.77991 21.3812 8.42491M20.1062 8.24991C20.4412 8.60991 21.0412 8.34991 20.6562 7.79991M21.0562 8.55991C20.9962 8.91491 21.2862 8.98491 21.5212 8.82491M19.8112 8.30991C19.8712 8.66491 20.2362 8.94491 20.5912 8.72991M20.2462 8.79991C20.2462 9.30991 20.9462 9.36491 21.1112 8.83991M20.8612 9.15991C21.0862 9.62491 21.5762 9.43491 21.7362 9.15491M20.3662 8.41991C20.4562 8.64491 20.6362 8.89491 21.0512 8.70991M19.0762 8.30991C19.1362 8.49491 19.4712 8.71991 19.8562 8.45991M19.3162 8.54991C19.1062 8.84991 19.5162 9.13491 20.0162 8.68491M19.5612 8.91991C19.6412 9.34491 19.8112 9.68991 20.4112 9.13991M20.1112 9.35991C20.3312 9.62991 20.6662 9.79491 20.9812 9.33991" stroke="black" stroke-width="0.02"/>
<path d="M21.2212 9.43994C21.2012 9.76494 21.2612 9.92494 21.5162 9.90994C21.7162 9.89994 21.9012 9.74494 22.0112 9.57494M21.4712 9.90994C21.4612 10.2799 21.7512 10.5699 22.2962 10.1949M21.6962 10.3449C21.5962 10.6199 21.9012 11.0699 22.5062 10.8399M20.4112 9.60994C20.3762 9.95994 20.7012 10.1999 21.2312 9.74494M20.6712 9.99994C20.6912 10.2899 21.0212 10.6399 21.5012 10.1349M20.9012 10.3699C20.8662 10.8649 21.3212 11.0049 21.7062 10.6249M20.2162 9.99994C20.3162 10.0099 20.4012 9.91994 20.4512 9.84994M20.4312 10.3599C20.5212 10.3799 20.6812 10.2999 20.7312 10.1949M20.6612 10.9449C20.7612 11.0599 21.1112 10.9799 21.1562 10.8299M21.0462 10.9399C21.2362 11.3899 21.7512 11.3749 21.9662 10.8649M21.8662 11.0449C21.9662 11.3099 22.2112 11.4749 22.6112 11.3849M22.0612 11.3149C21.8362 11.6799 22.1312 12.1149 22.6362 11.6899M22.1862 11.8649C22.1612 12.0949 22.3712 12.3599 22.6612 12.3899M21.2312 11.1899C21.1562 11.7099 21.5312 11.9599 21.9962 11.6799M20.6862 11.4399C20.8062 11.5349 21.0262 11.5449 21.2362 11.4699M21.4862 11.7699C21.3662 12.2099 21.8162 12.5249 22.2012 12.0349M20.8562 11.5099C20.8662 11.7349 21.0812 11.9799 21.4612 11.9099M22.5262 12.3599C22.2662 12.5299 22.2162 12.8399 22.5762 13.0399M21.8962 12.2699C21.9062 12.5299 22.0312 12.6799 22.3212 12.7049M21.5162 12.1349C21.1262 12.4849 21.5062 12.8999 21.9662 12.5499M21.7862 12.6599C21.6562 13.0649 22.1362 13.3099 22.3962 12.8999M20.9862 11.7999C20.8462 12.1999 21.0262 12.4599 21.3562 12.4349M20.4762 11.7199C20.4962 11.9599 20.7012 12.0449 20.9362 11.9899M20.6262 11.9699C20.4512 12.3049 20.7162 12.4849 21.0662 12.3599M22.1162 13.1099C22.0662 13.3199 22.0962 13.4699 22.4112 13.5449M22.1412 13.4099C21.7612 13.5799 21.7262 13.9499 22.0212 14.1849M21.8312 12.9999C21.7857 13.0397 21.7504 13.0898 21.7281 13.1459C21.7059 13.2021 21.6973 13.2627 21.7032 13.3229C21.7091 13.383 21.7292 13.4408 21.7619 13.4916C21.7946 13.5424 21.8389 13.5847 21.8912 13.6149M20.1412 11.8249C19.9262 12.0399 20.1312 12.6349 20.6162 12.3099M21.4012 12.5749C21.1012 12.8249 21.2362 13.2649 21.7262 13.1449M20.9112 12.3949C20.7562 12.8299 20.9012 12.9849 21.2512 12.9899" stroke="black" stroke-width="0.02"/>
<path d="M19.8211 11.8051C19.7731 11.838 19.7328 11.8807 19.7026 11.9303C19.6724 11.98 19.6531 12.0355 19.646 12.0932C19.6389 12.1509 19.6442 12.2094 19.6614 12.2649C19.6787 12.3204 19.7075 12.3716 19.7461 12.4151C19.8611 12.5451 20.0811 12.4851 20.1461 12.3201M19.2661 11.6301C18.9711 12.0101 19.2661 12.4601 19.6861 12.3301M20.8511 12.7601C20.5511 12.8651 20.3161 13.1401 20.5011 13.3851C20.6161 13.5251 21.0911 13.5451 21.2261 12.9951M20.3061 12.4051C20.1311 12.6551 20.1861 12.8951 20.5061 13.0151M20.2861 12.8751C20.0961 12.9751 19.9761 13.1001 20.0211 13.3251M19.8661 12.4801C19.7961 12.7801 19.8811 12.9701 20.0661 13.0601M19.8611 12.8401C19.5711 12.8201 19.4211 12.9401 19.5211 13.2301M19.5461 12.9101C19.2611 12.8101 19.2161 12.5601 19.3411 12.3101M19.3011 12.6901C18.9911 12.7001 18.8511 12.8551 18.8511 13.0651" stroke="black" stroke-width="0.02"/>
<path d="M18.8811 11.485C18.6561 11.58 18.5811 11.885 18.6661 12.05C18.7511 12.215 19.0161 12.23 19.1761 12.12M18.2561 11.245C18.0511 11.475 18.2861 11.93 18.6561 11.82M17.7261 11.065C17.5361 11.335 17.7461 11.785 18.2411 11.655M18.2661 12.91C18.2161 12.59 18.5511 12.38 18.9661 12.795M18.7661 12.145C18.7072 12.198 18.6616 12.264 18.6329 12.3379C18.6043 12.4117 18.5934 12.4912 18.6011 12.57M17.2011 10.91C16.9861 11.27 17.2461 11.6 17.7011 11.47M18.3911 11.805C18.0911 12.105 18.1911 12.41 18.4161 12.585M18.1961 12.16C17.7411 12.165 17.7161 12.695 18.0861 12.86M17.8511 11.63C17.6611 11.76 17.6011 12.115 17.9261 12.255M17.8361 12.425C17.6411 12.335 17.4111 12.445 17.4311 12.67M17.5461 12.43C17.3711 12.02 16.8661 12.09 16.9111 12.515M17.6861 11.92C17.5811 11.94 17.3611 12.005 17.2761 12.17M17.3061 11.455C17.2659 11.4965 17.2366 11.5474 17.2208 11.6029C17.205 11.6585 17.2032 11.7172 17.2156 11.7736C17.228 11.8301 17.2541 11.8826 17.2917 11.9264C17.3293 11.9703 17.3772 12.0042 17.4311 12.025M16.6911 10.8C16.6511 11.08 16.7611 11.215 17.1111 11.19M16.8111 11.155C16.6811 11.49 16.8611 11.64 17.2111 11.62M16.8911 11.57C16.6861 11.815 16.8261 12.075 17.0261 12.185M16.7961 11.88C16.4261 11.83 16.3711 12.26 16.4961 12.455" stroke="black" stroke-width="0.02"/>
<path d="M16.5011 10.7749C16.2761 10.8749 16.1461 11.1549 16.2661 11.3249C16.3911 11.4999 16.6361 11.4449 16.7661 11.3549M16.3461 11.4049C16.1561 11.6899 16.3261 11.9049 16.5261 11.9849" stroke="black" stroke-width="0.02"/>
<path d="M15.6212 10.74C15.4712 10.895 15.5662 11.21 15.9212 11.22C16.2162 11.22 16.3612 10.95 16.2712 10.755M15.8712 11.22C15.7562 11.475 15.8312 11.755 16.2712 11.71M16.4512 12.11C16.1862 11.99 15.8212 12.11 15.9762 12.435M15.9412 11.655C15.8312 11.81 15.8662 12.03 15.9912 12.165M15.9212 12.065C15.7412 12.1 15.5662 12.195 15.6712 12.48M15.6462 12.25C15.4162 12.18 15.1212 12.35 15.2962 12.585M15.2612 12.36C15.0612 12.325 14.8262 12.54 15.0162 12.75M14.9412 12.575C14.7612 12.625 14.5462 12.825 14.7362 12.99M15.8512 11.565C15.5912 11.68 15.5662 11.97 15.6862 12.185M15.5762 11.035C15.1912 11.185 15.1962 11.695 15.6262 11.855M15.4412 11.74C15.2112 11.875 15.1662 12.135 15.3212 12.3M15.0362 10.84C14.8862 10.89 14.8962 11.365 15.3062 11.355M14.6112 11C14.3012 11.205 14.6762 11.725 15.1762 11.35M14.9012 11.485C14.8562 11.695 14.9162 11.925 15.2562 11.955M14.9212 11.765C14.6762 11.855 14.6312 12.36 15.0712 12.4M14.1412 11.31C13.8262 11.6 14.4012 11.85 14.6112 11.43M13.7062 11.79C13.5512 11.98 14.0912 12.47 14.3312 11.65M14.3862 11.635C14.4012 11.835 14.5162 11.945 14.7512 11.96M14.7512 12.145C14.3662 12.205 14.2462 12.68 14.6712 12.785M14.0462 12.085C14.0312 12.26 14.2212 12.41 14.4312 12.38M14.6262 12.77C14.2762 12.85 14.2312 13.3 14.5412 13.27M14.3812 13.69C14.0912 13.605 14.0812 13.26 14.3412 13.13" stroke="black" stroke-width="0.02"/>
<path d="M14.1412 13.39C13.8962 13.54 13.9913 13.89 14.1213 13.94C14.2513 13.99 14.3563 13.93 14.3713 13.82M14.3463 14.32C14.3763 14.485 13.7513 14.42 14.0713 13.9M14.0713 14.345C13.8613 14.675 14.2012 14.945 14.4162 14.66M14.0963 14.74C14.0113 15.005 14.3313 15.195 14.5363 14.99M13.4063 12.27C13.2913 12.505 13.8713 12.595 13.9063 12.105M13.2463 12.62C13.1313 13.085 14.0063 12.99 13.7813 12.39M13.8012 12.7C13.8594 12.7272 13.9232 12.7404 13.9873 12.7385C14.0515 12.7366 14.1144 12.7196 14.1708 12.689C14.2272 12.6583 14.2757 12.6148 14.3122 12.562C14.3488 12.5092 14.3724 12.4486 14.3813 12.385M14.1162 12.715C14.1321 12.7806 14.1611 12.8424 14.2015 12.8965C14.2419 12.9507 14.2928 12.9961 14.3512 13.03M13.6963 12.835C13.6563 13.085 13.9113 13.295 14.1963 13.275M13.7412 13.08C13.6012 13.275 13.5562 13.645 14.0012 13.67M13.0563 13.15C12.9863 13.35 13.4063 13.555 13.6463 13.225M12.9262 13.66C12.8912 13.81 13.2662 14.01 13.4762 13.37M13.3113 13.695C13.4013 13.855 13.7062 13.985 13.8912 13.67M13.5912 13.865C13.5112 14.09 13.7263 14.3 13.9813 14.24M13.1063 13.815C13.0563 14.135 13.4313 14.32 13.6563 14.155M12.8613 13.955C12.7513 14.365 13.2813 14.52 13.4813 14.21M13.3463 14.335C13.3663 14.565 13.7263 14.765 14.0063 14.575M12.7012 14.525C12.6762 14.63 13.1063 14.735 13.1713 14.375M12.9512 14.62C13.0512 14.88 13.4012 14.945 13.6012 14.62M13.4863 14.75C13.5363 15 13.8462 15.135 14.1262 14.965M14.2412 15.065C14.1712 15.39 14.5112 15.655 14.7212 15.475M13.6912 15.005C13.5912 15.365 14.0412 15.57 14.2912 15.37M13.1512 14.82C13.1262 15.16 13.3912 15.36 13.6912 15.21M12.5762 14.86C12.4862 15.075 12.9662 15.255 13.1912 15.07M12.2812 15.455C12.4063 15.595 12.8312 15.455 12.8662 15.14M12.7512 15.37C12.9062 15.55 13.2763 15.65 13.4213 15.26M13.2912 15.46C13.2912 15.74 13.7812 15.94 13.9412 15.43M14.5262 15.53C14.4762 15.665 14.5863 15.88 14.8113 15.905M14.1162 15.445C14.0862 15.595 14.3112 15.815 14.5512 15.73M14.5963 15.795C14.5313 15.96 14.5863 16.2 14.8113 16.195M14.6162 16.105C14.4462 16.245 14.5163 16.5 14.7613 16.505M14.5313 16.345C14.2913 16.505 14.3763 16.86 14.6913 16.84M13.8063 15.65C13.8063 16 14.2413 16.05 14.3213 15.73M14.1563 15.93C14.0913 16.14 14.2563 16.34 14.5213 16.28M14.2063 18.42C14.2663 18.505 14.5062 18.36 14.4412 18.22C14.3762 18.08 14.1212 18.155 14.1512 18.305M14.3813 18.16C14.4113 17.88 14.0813 17.835 13.9963 18.08M14.1162 17.935C14.2012 17.795 13.9162 17.6 13.8012 17.81M13.9012 17.725C13.9812 17.52 13.6613 17.425 13.6363 17.615M13.5613 17.345C13.6013 17.245 13.9613 17.305 13.8113 17.52M14.0863 17.775C14.2263 17.645 13.9863 17.385 13.8363 17.475M15.0363 18.17C14.9263 18.18 14.8113 18.255 14.8913 18.495C14.9513 18.66 15.1963 18.665 15.2363 18.57" stroke="black" stroke-width="0.02"/>
<path d="M14.8812 18.295C14.7712 18.22 14.5312 18.345 14.6412 18.575M14.6412 18.575C14.7212 18.75 14.9312 18.675 14.9612 18.585M14.6412 18.575C14.5912 18.675 14.3212 18.725 14.2612 18.625M14.4512 18.305C14.5112 18.265 14.6162 18.315 14.6362 18.365M14.4362 16.715C14.2462 16.84 14.3612 17.215 14.6512 17.115M14.3712 17.02C14.2212 17.135 14.3612 17.5 14.6362 17.36M14.4212 17.36C14.3162 17.465 14.4162 17.75 14.6812 17.695M14.3812 17.505C14.3212 17.48 14.1712 17.495 14.1062 17.595M14.2112 16.195C14.0712 16.335 14.1412 16.61 14.4012 16.635M14.1612 16.485C13.9612 16.585 13.9612 16.985 14.3612 17M14.1462 16.935C14.0312 17.025 14.0862 17.375 14.3762 17.33M14.2362 17.315C14.1962 17.36 14.1862 17.465 14.2262 17.51M14.1112 17.185C14.0112 17.185 13.8712 17.26 13.8362 17.37M13.6512 16.995C13.6862 16.895 14.0062 16.895 14.0312 17.2M14.0612 16.84C14.0162 16.85 13.9312 16.89 13.9112 16.98M13.9212 15.895C13.7862 16.025 13.7212 16.42 14.1362 16.495M13.6412 16.715C13.6412 16.61 13.9312 16.515 14.0312 16.675M13.4562 16.14C13.4962 16.22 13.6962 16.33 13.8162 16.24M12.4162 15.51C12.4142 15.5563 12.4225 15.6024 12.4404 15.6451C12.4583 15.6878 12.4854 15.7261 12.5198 15.7571C12.5542 15.7881 12.595 15.8112 12.6393 15.8247C12.6836 15.8381 12.7303 15.8417 12.7762 15.835C12.9912 15.81 13.0362 15.625 12.9712 15.5M12.8112 15.845C12.6662 16.015 12.8412 16.26 13.0012 16.19M12.9712 15.72C13.0562 15.69 13.3312 15.65 13.4162 15.78M12.0762 15.77C12.0112 15.87 12.4112 15.965 12.5462 15.78M12.4112 15.875C12.3962 16.005 12.4612 16.225 12.7912 16.13" stroke="black" stroke-width="0.02"/>
<path d="M12.8462 16.3299C12.8962 16.2199 12.6562 16.0399 12.4662 16.2399C12.2812 16.4399 12.4962 16.6649 12.6112 16.5899M11.9912 15.8999C11.8912 16.0699 12.2662 16.3749 12.4812 16.0899" stroke="black" stroke-width="0.02"/>
<path d="M11.7412 16.1899C11.6062 16.3299 11.7762 16.5849 11.9762 16.5049C12.1812 16.4299 12.1612 16.2149 12.1112 16.1599" stroke="black" stroke-width="0.02"/>
<path d="M11.4812 16.45C11.3712 16.55 11.4812 16.78 11.6312 16.78C11.7812 16.78 11.8762 16.665 11.8462 16.51M12.0962 16.43C12.0762 16.58 12.2962 16.68 12.4412 16.54M12.4412 16.27C12.4662 16.24 12.4512 16.185 12.4162 16.155M11.2462 16.645C11.1212 16.745 11.3962 17.025 11.5612 16.77M12.2162 16.595C12.1362 16.67 12.2662 16.87 12.3962 16.81M11.7762 16.735C11.7962 16.87 12.0662 16.975 12.2362 16.765M11.9212 16.87C11.8812 16.96 11.9662 17.095 12.0712 17.08M14.4862 17.67C14.3862 17.865 14.7062 18.095 14.9362 17.855M14.7162 17.96C14.6662 18.065 14.7262 18.215 14.8162 18.27M14.4162 18.185C14.4362 18.085 14.5762 17.995 14.7012 18.04M14.2512 17.93C14.2662 17.84 14.3812 17.755 14.4712 17.78M21.9612 14.505C21.5662 14.65 21.3712 13.915 21.8312 13.91C21.5562 13.97 21.3412 13.855 21.3212 13.705M21.6812 14.455C21.5912 14.6 21.7662 14.835 21.9612 14.695M21.9112 14.725C21.7712 14.95 22.2562 15.295 22.4512 14.94M22.2962 15.075C22.2962 15.29 22.9212 15.425 22.8312 15M22.7712 15.23C22.9212 15.48 23.4712 15.505 23.4162 15.13M23.2912 15.39C23.4062 15.56 23.9512 15.66 23.9312 15.315M21.0962 13.275C21.1712 13.475 21.4362 13.545 21.7262 13.425M20.9262 13.415C21.1112 13.53 20.8462 14.06 20.5712 13.845M20.9312 13.745C21.1312 13.84 21.3762 13.77 21.4462 13.485M20.8262 13.86C21.0862 14.08 20.7112 14.53 20.5412 14.325M20.9212 14.025C21.0462 14.115 21.3612 14.065 21.3912 13.825M21.2512 14.025C21.2762 14.18 21.4012 14.24 21.5712 14.245M20.8512 14.24C20.9812 14.42 21.3012 14.47 21.4462 14.235M21.3012 14.37C21.2912 14.54 21.4812 14.685 21.6812 14.645M20.6062 14.75C20.7712 14.835 20.9562 14.515 20.8112 14.3M20.8012 15.085C21.0012 15.095 21.0262 14.795 20.8362 14.625M21.2562 15.36C21.4262 15.32 21.3712 14.955 20.9662 14.925M21.7662 15.63C21.9262 15.585 21.7962 15.18 21.3512 15.205M22.3762 15.775C22.4862 15.605 22.1262 15.325 21.8262 15.475M22.6762 16.005C22.8762 16.065 23.0162 15.535 22.3812 15.62M23.0462 16.005C23.2212 15.955 23.3462 15.645 22.8362 15.745M23.4362 16.03C23.5862 16.11 23.6562 15.655 23.1862 15.78M20.8362 14.63C21.0312 14.735 21.3362 14.61 21.3062 14.365M21.2312 14.575C21.2962 14.69 21.2712 14.915 21.1462 14.975M21.2462 14.845C21.3762 14.895 21.5512 14.85 21.6562 14.645M21.4762 14.845C21.5112 14.935 21.5262 15.115 21.4412 15.205M21.5062 15C21.6512 15.08 21.8162 14.975 21.8862 14.825M21.7962 14.955C21.8962 15.02 21.9912 15.32 21.8162 15.445M21.9162 15.305C22.0362 15.305 22.2162 15.305 22.3312 15.155M22.2462 15.24C22.3562 15.27 22.4862 15.45 22.4412 15.61M22.4462 15.555C22.5712 15.54 22.7812 15.455 22.8412 15.305M22.7812 15.405C22.8366 15.4377 22.8813 15.4858 22.9097 15.5436C22.9382 15.6013 22.9491 15.6661 22.9412 15.73M22.9412 15.625C23.0662 15.62 23.1762 15.555 23.2062 15.42M23.1762 15.51C23.2662 15.54 23.3762 15.645 23.3812 15.765M23.3662 15.69C23.4562 15.675 23.5212 15.62 23.5812 15.53M23.8262 15.515C23.9412 15.63 23.7862 16.015 23.5462 15.945M21.3512 7.71001C21.1162 7.85501 20.4362 7.81001 20.7712 7.25001M21.4212 7.33001C20.9462 7.52001 20.3712 7.15501 20.9712 6.76501M20.8112 6.63501C20.4212 6.63501 20.1562 7.26501 20.6812 7.48501M19.2862 6.90001C19.1862 7.10001 19.5512 7.32001 19.8012 7.12001C19.9962 6.96501 19.9812 6.54501 19.8662 6.38501M19.0862 7.37501C18.9562 7.80001 19.9062 7.82501 19.7562 7.15001M19.0362 8.01001C19.0662 8.33001 19.9412 8.22501 19.6612 7.57501M19.7612 7.39501C19.8312 7.49501 20.0262 7.66001 20.3562 7.62501M19.9062 6.95001C19.9362 7.06501 20.1312 7.15001 20.3812 7.06501M11.1262 16.74C10.9012 16.895 11.2462 17.145 11.3712 16.87M10.9512 16.86C10.7312 17.02 11.0712 17.27 11.1962 16.995M10.7662 16.98C10.5462 17.14 10.8862 17.385 11.0162 17.115M10.5762 17.09C10.3612 17.205 10.6112 17.48 10.8262 17.24M10.3662 17.195C10.1512 17.31 10.4012 17.585 10.6162 17.345M11.4462 16.865C11.4412 17.03 11.7512 17.095 11.8662 16.85M11.6412 17.015C11.5412 17.14 11.7212 17.29 11.8162 17.235M11.2262 16.995C11.2162 17.135 11.4862 17.215 11.6162 17.06M11.3712 17.14C11.2862 17.25 11.4562 17.405 11.5712 17.36M11.0462 17.12C11.0562 17.23 11.2112 17.355 11.3762 17.285M11.1462 17.27C11.0812 17.325 11.1112 17.46 11.2012 17.505M10.8112 17.255C10.7862 17.355 10.9562 17.535 11.1312 17.42M10.8462 17.37C10.7462 17.455 10.7562 17.575 10.8862 17.595M10.5962 17.36C10.5862 17.43 10.6712 17.54 10.7812 17.525M10.0462 17.355C9.94616 17.41 10.2062 17.69 10.3712 17.43M9.79116 17.47C9.66116 17.53 9.98116 17.84 10.1262 17.525M10.6262 17.46C10.5262 17.48 10.4612 17.625 10.5462 17.685M10.2962 17.51C10.2862 17.57 10.4112 17.66 10.5112 17.63M10.2162 17.535C10.1162 17.595 10.1712 17.765 10.2862 17.74M9.87116 17.65C9.78116 17.715 9.84616 17.85 9.97116 17.82M10.0362 17.64C10.0362 17.675 10.1212 17.73 10.1862 17.705M9.56116 17.58C9.44616 17.63 9.45616 17.91 9.83616 17.76M9.30616 17.695C9.14616 17.77 9.20116 17.985 9.54616 17.78M9.57116 17.795C9.53116 17.83 9.48616 17.97 9.64616 17.915M9.28616 17.865C9.22116 17.92 9.26116 18.04 9.40116 17.995M8.95116 17.885C8.83616 17.95 9.09116 18.04 9.26116 17.86M9.03116 17.965C8.98116 18.015 8.98116 18.17 9.11116 18.115M8.70116 18.03C8.62616 18.085 8.75116 18.165 9.00116 18.055M8.80116 18.11C8.70616 18.185 8.71616 18.28 8.85116 18.25M8.53116 18.15C8.43116 18.245 8.57616 18.305 8.75116 18.23M8.53116 18.255C8.36116 18.33 8.43616 18.475 8.54116 18.42M14.2312 18.745C14.1912 18.83 14.3212 18.9 14.4462 18.88C14.5612 18.865 14.6762 18.765 14.5862 18.63M14.5912 18.8C14.7112 18.89 14.9162 18.785 14.9162 18.65" stroke="black" stroke-width="0.02"/>
<path d="M21.6969 5.15C21.1819 4.9 20.1119 4.42 19.8069 4.805C20.0869 4.69 20.8969 4.81 21.5669 5.43L21.6969 5.15Z" fill="white" stroke="black" stroke-width="0.02"/>
<path d="M22.0066 5.12509C21.4116 4.43009 21.0566 4.58509 20.6316 4.35009C20.2316 4.12509 19.5916 4.08009 19.4666 4.43509C20.0516 4.15009 20.5916 4.58509 20.9266 4.64509C21.3766 4.71509 21.6366 5.07009 21.7716 5.23009L22.0066 5.13009V5.12509ZM24.2516 5.03509C23.9416 4.33009 23.2816 4.51509 22.9916 4.21509C22.5666 3.77509 21.4916 3.36509 21.0416 3.67009C22.0216 3.62009 22.4416 4.34509 22.9616 4.60009C23.3366 4.78009 23.7366 5.16509 24.2516 5.03509Z" fill="white" stroke="black" stroke-width="0.02"/>
<path d="M23.0919 4.95998C22.5669 4.30498 21.7519 3.72498 21.3819 3.93998C21.8719 3.96998 22.0269 4.30998 22.3719 4.52998C22.7219 4.74498 22.5669 5.06498 23.0919 4.95998ZM20.5819 6.11998C20.0319 5.91498 18.9469 5.80998 18.4419 6.43998C19.2819 6.58498 20.5419 6.50498 20.5819 6.11998Z" fill="white" stroke="black" stroke-width="0.02"/>
<path d="M20.4769 6.36508C19.9269 6.10508 19.4919 6.46508 18.9719 6.41508C17.9819 6.31508 17.2719 6.37508 17.1819 6.85508C17.7469 6.34508 18.7019 6.76508 19.0869 6.66008C19.4719 6.56008 20.9019 6.64508 21.3519 6.84008C21.1219 6.55508 20.7619 6.48008 20.4769 6.36508ZM22.2169 4.89008C22.0869 4.46508 22.0969 4.01508 22.7319 4.04508C22.5719 3.84508 21.9819 3.74508 21.8819 4.49008C21.1819 3.97508 20.4119 3.88508 20.2719 4.33008C20.6319 4.02008 21.1919 4.24508 21.8619 5.00508C21.9734 4.94831 22.0932 4.9095 22.2169 4.89008Z" fill="white" stroke="black" stroke-width="0.02"/>
<path d="M21.2518 5.47504C20.8518 5.21504 20.3118 4.80004 21.2568 4.63004C20.8568 4.41504 20.2568 4.51004 20.3218 5.25504C19.2418 4.82004 18.4668 4.96504 18.3018 5.40004C18.1218 5.87504 18.7918 6.14004 18.9068 5.83504C18.7868 5.88504 18.3668 5.74504 18.5868 5.47504C18.8068 5.20504 19.9268 5.41004 20.9918 5.96504C21.2918 6.11504 22.3068 6.09504 21.2518 5.47504Z" fill="white" stroke="black" stroke-width="0.02"/>
<path d="M20.9668 6.18498C20.6618 5.55498 19.6618 6.12498 19.4618 5.51498C19.1818 6.40998 20.8818 5.91498 20.9668 6.18498ZM27.3218 6.86498C27.5318 6.96998 27.7118 6.80498 27.3918 6.67998C27.6018 6.77998 27.7868 6.62497 27.4668 6.49498C27.6768 6.59497 27.8568 6.43998 27.5368 6.30998C27.4518 6.39498 27.3318 6.70998 27.3218 6.86498ZM27.4318 5.65498C27.8968 5.16498 27.3968 4.99998 27.9618 4.49498C28.4268 4.08498 28.0518 3.80998 28.4868 3.49498C28.6318 3.38998 28.9368 3.18498 28.9668 2.97498C29.1518 3.43998 28.3868 3.50498 28.4368 4.24998C28.4718 4.72498 28.1468 4.68498 28.0268 5.48998C28.0018 5.65498 27.8818 6.02998 27.4318 5.65498Z" fill="white" stroke="black" stroke-width="0.02"/>
<path d="M27.6367 5.87506C27.8967 5.32506 28.1917 5.33006 28.3367 5.11506C28.6067 4.70006 29.1767 5.18506 29.6617 4.81506C29.5767 5.34006 28.9267 5.15506 28.6417 5.49006C28.3617 5.82506 28.1267 5.97506 27.6417 5.87506H27.6367Z" fill="white" stroke="black" stroke-width="0.02"/>
<path d="M27.7068 6.05496C28.1568 5.69496 28.4868 5.93496 28.7968 5.74496C29.5818 5.26996 29.8968 5.84496 30.5968 5.61496C30.4168 6.06496 29.3768 5.67996 28.9268 6.01496C28.4768 6.34996 26.8918 6.67496 27.7018 6.05496H27.7068ZM26.3918 8.62496C26.3818 8.41996 26.1918 8.15496 25.9218 8.12496C25.6518 8.08996 25.5318 7.80496 25.3268 7.79496C25.1218 7.77996 24.9868 7.36996 24.7018 7.37496C24.4218 7.37996 24.3018 7.74996 24.9668 8.08496C25.6318 8.41996 26.3668 8.80496 26.3918 8.62496ZM25.5518 8.79996C25.2718 8.80996 25.2318 9.22496 24.9618 9.23496C25.3318 9.43496 25.6068 9.14496 25.7968 8.88496L25.5568 8.79996H25.5518Z" fill="white" stroke="black" stroke-width="0.02"/>
<path d="M25.7867 8.84998C25.5367 9.05498 25.4667 9.48498 25.8217 9.60998C25.6117 9.31498 26.1967 9.18498 26.0167 8.90998L25.7867 8.84998Z" fill="white" stroke="black" stroke-width="0.02"/>
<path d="M26.0269 8.86507C25.8369 9.23507 26.3319 9.28007 26.2019 9.56507C26.4869 9.50007 26.5319 8.96507 26.2719 8.82507L26.0269 8.86007V8.86507Z" fill="white" stroke="black" stroke-width="0.02"/>
<path d="M24.1367 8.06487C24.6017 8.03987 25.0217 8.28987 25.3067 8.69487C25.4867 8.94987 26.0917 9.05487 26.3017 8.84487C26.5017 8.64487 26.3917 8.20487 25.8767 8.34487C25.7467 8.12987 25.3767 8.20487 25.1917 8.02487C25.0117 7.84487 24.3167 7.32987 24.1367 8.06487Z" fill="white" stroke="black" stroke-width="0.02"/>
<path d="M25.8768 8.35008C25.7518 8.37508 25.7118 8.58508 25.7918 8.69508L25.8768 8.35008ZM26.1418 8.47508C26.1768 8.54008 26.1518 8.63008 26.1318 8.67508L26.1418 8.47508ZM24.8718 8.08508C25.1068 8.09508 25.1518 8.27008 25.4118 8.33508L24.8718 8.08508Z" fill="white"/>
<path d="M25.8768 8.35008C25.7518 8.37508 25.7118 8.58508 25.7918 8.69508M26.1418 8.47508C26.1768 8.54008 26.1518 8.63008 26.1318 8.67508M24.8718 8.08508C25.1068 8.09508 25.1518 8.27008 25.4118 8.33508" stroke="black" stroke-width="0.02" stroke-linecap="round"/>
<path d="M24.7121 7.50001C25.3617 7.62695 25.9931 7.83351 26.5921 8.11501C26.9971 8.34501 27.6271 8.41501 28.1721 8.25501C28.7221 8.10501 29.7821 7.96001 29.7271 8.64501C30.0171 8.30001 29.6521 7.93501 28.9171 7.87001C28.9321 7.53501 28.5721 7.23501 28.3171 7.43501C28.5521 7.40001 28.7571 7.84501 28.2871 8.02501C28.3082 7.94752 28.3067 7.86561 28.2827 7.78897C28.2586 7.71233 28.2132 7.64419 28.1516 7.59262C28.09 7.54105 28.0149 7.50821 27.9353 7.498C27.8556 7.48779 27.7747 7.50064 27.7021 7.53501C27.9221 7.60001 28.1521 7.97501 27.6521 8.11501C27.3371 8.20501 26.8821 8.09001 26.5421 7.88501C26.2021 7.68001 24.2921 6.93501 24.7121 7.49501V7.50001Z" fill="white" stroke="black" stroke-width="0.02"/>
<path d="M26.7867 7.16503C26.5317 7.28003 26.6967 7.55003 26.3017 7.70503C25.9017 7.85503 25.6217 8.21003 25.7117 8.51503C25.9817 7.92003 26.4617 7.95003 26.6267 7.71503C26.7967 7.48503 27.0417 7.14503 26.7867 7.16503Z" fill="white" stroke="black" stroke-width="0.02"/>
<path d="M26.8566 7.19988C26.8466 7.66988 26.4766 7.49988 26.6216 8.15988C26.6666 8.36488 26.7516 8.69988 26.6066 9.03488C27.0216 8.73488 26.7566 8.09988 26.9416 7.85988C27.0316 7.73988 27.1516 7.55988 27.1916 7.40988C27.0966 7.67488 27.1066 8.17988 27.3666 8.30988C27.1566 7.80988 27.9416 7.39488 27.4016 6.80988C27.3216 6.95988 27.0766 7.20988 26.8616 7.19988H26.8566ZM25.5466 6.72988C25.6116 6.82988 25.6766 7.06988 25.6166 7.20988C25.7466 7.12988 25.9316 6.92988 25.9916 6.79488C26.2566 6.83488 26.3566 7.15988 26.1066 7.30488C26.2566 7.30488 26.5266 7.30488 26.6716 7.12988C26.4916 6.92988 25.9316 6.61988 25.5466 6.72988Z" fill="white" stroke="black" stroke-width="0.02"/>
<path d="M21.5418 5.80509C21.472 5.75117 21.3892 5.71667 21.3018 5.70509C20.9118 5.62509 21.1168 5.27509 21.4468 5.28009C22.1568 4.50509 22.5518 5.10009 23.4168 4.86009C23.7168 4.77009 23.9268 4.79509 24.0868 4.87009C24.4768 4.61009 24.9268 4.68009 25.2568 4.98509C25.29 4.92773 25.3435 4.88492 25.4068 4.86509C25.7118 4.78009 25.9568 5.03509 26.0418 5.37009C26.2768 5.33009 26.5468 5.44509 26.7268 5.60509C26.9718 5.48009 27.1368 5.47509 27.2018 5.60509C27.4218 5.50509 27.7018 5.43509 27.8468 5.78509C27.9918 6.13509 27.5118 6.03009 27.4318 6.76509C27.3818 7.21509 26.8818 7.39509 26.4818 7.12509C25.8418 6.69009 25.2168 6.62509 24.9068 7.27509C24.6018 7.93509 24.3568 8.31509 23.6068 8.10009C23.4511 8.06474 23.2883 8.0768 23.1395 8.13472C22.9907 8.19264 22.8626 8.29377 22.7718 8.42509C22.5518 8.72509 22.2218 8.44509 21.8218 8.47509C22.3218 8.40009 22.1268 8.27509 22.5668 8.24509C22.9668 8.22009 22.8618 7.84509 23.1168 7.79509C22.1168 8.05009 22.1518 7.67509 21.3268 7.93509C21.6868 7.47009 22.2568 7.73009 22.5368 7.46009C21.7918 7.44509 21.4568 6.96009 21.1218 7.16009C20.5968 7.48509 20.8218 8.40009 19.4468 8.32009C18.7768 8.28509 18.3518 8.37009 17.9568 8.77009C18.6518 7.33009 19.5968 8.12009 20.0568 7.66509C20.2955 7.45035 20.5025 7.20289 20.6718 6.93009C20.6915 6.89051 20.7196 6.8557 20.7542 6.82807C20.7887 6.80045 20.8288 6.78066 20.8718 6.77009C19.7268 6.41009 20.4218 5.84509 21.5418 5.80509Z" fill="white" stroke="black" stroke-width="0.02"/>
<path d="M27.2019 5.59998C27.2169 5.63998 27.2269 5.68998 27.2269 5.74998C27.2269 6.02998 26.8019 6.03998 26.7769 6.45998C26.7619 6.67998 26.7369 6.79998 26.5919 6.77498C26.4419 6.74998 26.3119 6.51998 26.4519 6.24998" fill="white"/>
<path d="M27.2019 5.59998C27.2169 5.63998 27.2269 5.68998 27.2269 5.74998C27.2269 6.02998 26.8019 6.03998 26.7769 6.45998C26.7619 6.67998 26.7369 6.79998 26.5919 6.77498C26.4419 6.74998 26.3119 6.51998 26.4519 6.24998" stroke="black" stroke-width="0.02" stroke-linecap="round"/>
<path d="M21.7568 5.38487C21.6666 5.31893 21.5584 5.28228 21.4468 5.27987L21.7568 5.38487ZM24.0868 4.86487C24.4268 5.01487 24.5918 5.36487 25.0868 5.38487C25.5668 5.39987 25.8618 6.09487 26.6618 5.63987C26.6816 5.62952 26.7016 5.61951 26.7218 5.60987M25.2568 4.98487C25.1881 5.1098 25.1634 5.25422 25.1868 5.39487L25.2568 4.98487ZM23.6968 6.44487C23.0968 6.44487 22.9368 6.74987 22.9368 7.04487C22.9368 7.34487 23.2218 7.72987 23.7218 7.72987C24.2218 7.72987 24.4968 7.41987 24.4968 7.08487C24.4968 6.74987 24.1868 6.43987 23.6968 6.43987V6.44487Z" fill="white"/>
<path d="M21.7568 5.38487C21.6666 5.31893 21.5584 5.28228 21.4468 5.27987M24.0868 4.86487C24.4268 5.01487 24.5918 5.36487 25.0868 5.38487C25.5668 5.39987 25.8618 6.09487 26.6618 5.63987C26.6816 5.62952 26.7016 5.61951 26.7218 5.60987M25.2568 4.98487C25.1881 5.1098 25.1634 5.25422 25.1868 5.39487M23.6968 6.44487C23.0968 6.44487 22.9368 6.74987 22.9368 7.04487C22.9368 7.34487 23.2218 7.72987 23.7218 7.72987C24.2218 7.72987 24.4968 7.41987 24.4968 7.08487C24.4968 6.74987 24.1868 6.43987 23.6968 6.43987V6.44487Z" stroke="black" stroke-width="0.02"/>
<path d="M23.8071 7.71498C23.7971 7.54998 23.4921 7.57498 23.5071 7.44498C23.5171 7.31498 23.6721 7.26498 23.6721 7.08498C23.6721 6.90498 23.9421 6.88998 24.0321 7.03498C24.1221 7.17498 24.3921 7.44998 24.4521 7.30998M24.0321 7.03498C23.9495 7.12296 23.9019 7.23808 23.8982 7.3587C23.8945 7.47932 23.935 7.59713 24.0121 7.68998M24.2271 7.24998C24.1771 7.34998 24.1671 7.49998 24.2221 7.58998L24.2271 7.24998Z" fill="white"/>
<path d="M23.8071 7.71498C23.7971 7.54998 23.4921 7.57498 23.5071 7.44498C23.5171 7.31498 23.6721 7.26498 23.6721 7.08498C23.6721 6.90498 23.9421 6.88998 24.0321 7.03498M24.0321 7.03498C24.1221 7.17498 24.3921 7.44998 24.4521 7.30998M24.0321 7.03498C23.9495 7.12296 23.9019 7.23808 23.8982 7.3587C23.8945 7.47932 23.935 7.59713 24.0121 7.68998M24.2271 7.24998C24.1771 7.34998 24.1671 7.49998 24.2221 7.58998" stroke="black" stroke-width="0.02"/>
<path d="M26.6318 6.78002C27.1068 6.82002 27.1818 6.29502 26.8318 6.26502M26.0468 5.37502C25.8868 5.16502 25.5068 5.09502 25.4968 5.53502" stroke="black" stroke-width="0.02"/>
<path d="M25.4569 6.03996C25.2969 5.63996 24.8819 5.58496 24.6669 5.78496C24.4819 5.94996 24.4769 6.38496 24.8669 6.47496C25.0069 6.30996 25.2669 6.09996 25.4569 6.03996ZM25.2819 5.78996C25.0469 5.58496 24.7069 5.97496 25.0169 6.32996L25.2819 5.78996ZM20.8669 6.76496C21.0269 6.72996 21.2519 6.80496 21.6019 6.96496C21.8169 7.06996 22.4769 7.28996 22.8869 7.06996C22.4619 7.22496 22.1369 6.58496 21.8169 6.65996C21.4969 6.73996 20.9069 6.85996 20.6619 6.61996C21.2619 6.65996 21.5869 6.17996 22.2819 6.59496C22.4783 6.71679 22.7058 6.77929 22.9369 6.77496C22.3719 6.09496 21.6269 6.52996 21.5469 5.97496C21.8869 6.34496 22.7219 5.89496 23.1469 6.57996M21.6719 6.07996C21.5919 5.97996 21.6219 5.87996 21.5419 5.80496L21.6719 6.07996Z" fill="white"/>
<path d="M25.2819 5.78996C25.0469 5.58496 24.7069 5.97496 25.0169 6.32996M20.8669 6.76496C21.0269 6.72996 21.2519 6.80496 21.6019 6.96496C21.8169 7.06996 22.4769 7.28996 22.8869 7.06996C22.4619 7.22496 22.1369 6.58496 21.8169 6.65996C21.4969 6.73996 20.9069 6.85996 20.6619 6.61996C21.2619 6.65996 21.5869 6.17996 22.2819 6.59496C22.4783 6.71679 22.7058 6.77929 22.9369 6.77496C22.3719 6.09496 21.6269 6.52996 21.5469 5.97496C21.8869 6.34496 22.7219 5.89496 23.1469 6.57996M21.6719 6.07996C21.5919 5.97996 21.6219 5.87996 21.5419 5.80496M25.4569 6.03996C25.2969 5.63996 24.8819 5.58496 24.6669 5.78496C24.4819 5.94996 24.4769 6.38496 24.8669 6.47496C25.0069 6.30996 25.2669 6.09996 25.4569 6.03996Z" stroke="black" stroke-width="0.02"/>
<path d="M26.0499 5.37494C25.9099 5.22494 25.5999 5.33994 25.6899 5.64494C25.7226 5.57301 25.7726 5.51027 25.8354 5.4623C25.8982 5.41432 25.9719 5.3826 26.0499 5.36994V5.37494ZM25.1749 6.19994C25.261 6.13212 25.3571 6.07814 25.4599 6.03994C25.4205 5.93805 25.355 5.84836 25.2699 5.77994C25.1949 5.72994 24.9849 6.01494 25.1749 6.19494V6.19994Z" fill="black"/>
<path d="M24.7948 5.67499C24.5648 5.51999 24.3498 5.53499 24.2798 5.65999C24.1148 5.65999 23.9748 5.77999 23.9698 6.01999M24.3248 6.12499C24.0498 5.93499 23.6698 6.00499 23.6948 6.42999M23.5248 6.67499C23.6598 6.56499 23.8548 6.48499 24.0048 6.67499M25.5948 6.25499C25.5448 6.32499 25.5048 6.43499 25.5898 6.60499C25.4898 6.46499 25.2298 6.46499 24.9498 6.82499M26.2048 6.23499C25.8698 6.27499 25.8798 6.49499 26.1498 6.58499M23.8248 5.41499C23.5398 5.35999 23.3348 5.52499 23.7248 5.66499M24.3648 5.22499C23.9648 5.12499 23.8048 5.22999 23.9848 5.32499M23.2098 6.82499C23.1998 6.96999 23.2748 7.15498 23.5098 6.94498M23.2898 7.24999C23.2898 7.28999 23.2848 7.33498 23.2548 7.36998M22.3598 5.36999C22.1148 5.29499 22.0698 5.06999 22.3598 5.08999M22.2798 5.88999C22.0098 5.79499 22.0098 5.53499 22.2298 5.55999M22.7798 5.74999C22.4648 5.67499 22.4548 5.45499 22.6898 5.48999M22.8198 5.07999C22.6498 5.06999 22.3948 5.25499 22.8248 5.36499M23.2898 5.45499C22.8948 5.39999 22.9048 5.55499 23.1348 5.65999M23.5848 5.07999C23.2848 5.02499 23.1798 5.20499 23.3848 5.27999M22.6348 6.19499C22.5598 6.13499 22.4998 5.84499 22.8498 5.92999M23.3648 6.10499C23.1298 6.03999 22.9048 6.27499 23.1198 6.40499M23.6798 5.82999C23.4298 5.77999 23.2198 5.85499 23.3548 5.94499" stroke="black" stroke-width="0.02" stroke-linecap="round"/>
<path d="M26.0399 5.375C25.9642 5.38866 25.8929 5.42032 25.832 5.46731C25.7711 5.5143 25.7224 5.57524 25.6899 5.645" fill="white"/>
<path d="M26.0399 5.375C25.9642 5.38866 25.8929 5.42032 25.832 5.46731C25.7711 5.5143 25.7224 5.57524 25.6899 5.645" stroke="black" stroke-width="0.02"/>
</g>
<defs>
<clipPath id="clip0_11930_67773">
<rect width="36" height="24" rx="2" fill="white"/>
</clipPath>
</defs>
</svg>
