<svg width="36" height="24" viewBox="0 0 36 24" fill="none" xmlns="http://www.w3.org/2000/svg">
<g clip-path="url(#clip0_11930_67789)">
<path d="M0 0H36V24H0V0Z" fill="#CE1720"/>
<path d="M1.45664 0V0.373331H1.16658V0.746662H0.812066V1.17333H0.554235V1.51999H0.0385742V0.639996H0.554235V0.159999H0.0385742V0H1.45664Z" fill="white"/>
<path fill-rule="evenodd" clip-rule="evenodd" d="M2.29459 2.05332V2.45332H2.03676V2.77332H1.77893V2.45332H1.5211V2.05332H1.26327V1.51999H1.5211V1.11999H1.77893V0.799995H2.03676V1.11999H2.29459V1.51999H2.55242V2.05332H2.29459ZM1.7467 2.02665H2.06899V1.54666H1.7467V2.02665Z" fill="white"/>
<path d="M0.908753 4.87997H1.16658V4.39997H0.908753V4.87997Z" fill="white"/>
<path d="M0.0385742 8.13328H0.489778V8.47995H0.683151V8.90661H0.97321V9.30661H1.35996V8.90661H1.65002V8.47995H1.90785V8.13328H1.5211V7.73328H2.19791V7.99995H2.61688V8.45328H2.9714V8.95994H2.71357V9.33327H2.48797V9.67994H2.29459V10.0533H2.00453V10.3733H1.77893V10.6666H1.48887V11.0399H1.0699V10.6399H0.779837V10.2666H0.554235V10.0266H0.0385742V9.41327H0.554235V8.87994H0.0385742V8.13328Z" fill="white"/>
<path d="M5.58174 0V0.373331H5.8718V0.746662H6.22632V1.17333H6.48415V1.51999H6.99981V0.639996H6.48415V0.159999H6.99981V0H5.58174Z" fill="white"/>
<path fill-rule="evenodd" clip-rule="evenodd" d="M4.74379 2.05332V2.45332H5.00163V2.77332H5.25946V2.45332H5.51729V2.05332H5.77512V1.51999H5.51729V1.11999H5.25946V0.799995H5.00163V1.11999H4.74379V1.51999H4.48596V2.05332H4.74379ZM5.29168 2.02665H4.9694V1.54666H5.29168V2.02665Z" fill="white"/>
<path d="M6.12963 4.87997H5.8718V4.39997H6.12963V4.87997Z" fill="white"/>
<path d="M6.99981 8.13328H6.54861V8.47995H6.35524V8.90661H6.06518V9.30661H5.67843V8.90661H5.38837V8.47995H5.13054V8.13328H5.51729V7.73328H4.84048V7.99995H4.42151V8.45328H4.06699V8.95994H4.32482V9.33327H4.55042V9.67994H4.74379V10.0533H5.03385V10.3733H5.25946V10.6666H5.54951V11.0399H5.96849V10.6399H6.25855V10.2666H6.48415V10.0266H6.99981V9.41327H6.48415V8.87994H6.99981V8.13328Z" fill="white"/>
<path d="M3.39037 0.853328V0H2.35905V0.373331H2.61688V0.746662H3.00363V1.17333H3.26146V1.51999H3.77712V1.17333H4.03495V0.746662H4.42169V0.373331H4.67952V0H3.6482V0.853328H3.39037Z" fill="white"/>
<path d="M2.64911 4.87997H2.90694V4.39997H2.64911V4.87997Z" fill="white"/>
<path d="M4.38928 4.87997H4.13145V4.39997H4.38928V4.87997Z" fill="white"/>
<path fill-rule="evenodd" clip-rule="evenodd" d="M3.32591 7.01329V7.30662H3.71266V7.01329H3.90603V6.66663H4.13163V6.29329H4.38947V5.91996H4.6473V5.6533H4.93736V5.27997H5.3241V5.6533H5.61416V5.91996H5.83976V6.29329H6.09759V6.66663H6.29097V7.01329H6.48434V7.46662H7V6.29329H6.48434V5.75996H7V4.87997H6.48434V5.2533H6.16205V5.62663H5.83976V5.2533H5.51747V4.87997H5.25964V4.39997H5.51747V4.02664H5.83976V3.65331H6.16205V4.02664H6.48434V4.39997H7V3.30665H6.48434V2.79998H7V2.05332H6.48434V2.39999H6.22651V2.82665H5.87199V3.17331H5.58193V3.57331H5.35633V3.89331H4.90513V3.57331H4.67952V3.17331H4.38947V2.82665H4.03495V2.39999H3.77712V2.05332H3.26146V2.39999H3.00363V2.82665H2.64911V3.17331H2.35905V3.57331H2.13345V3.89331H1.68224V3.57331H1.45664V3.17331H1.16658V2.82665H0.812066V2.39999H0.554235V2.05332H0.0385742V2.79998H0.554235V3.30665H0.0385742V4.39997H0.554235V4.02664H0.876524V3.65331H1.19881V4.02664H1.5211V4.39997H1.77893V4.87997H1.5211V5.2533H1.19881V5.62663H0.876524V5.2533H0.554235V4.87997H0.0385742V5.75996H0.554235V6.29329H0.0385742V7.46662H0.554235V7.01329H0.747608V6.66663H0.940981V6.29329H1.19881V5.91996H1.42441V5.6533H1.71447V5.27997H2.10122V5.6533H2.39128V5.91996H2.64911V6.29329H2.90694V6.66663H3.13254V7.01329H3.32591ZM3.39037 3.57331V2.85332H3.6482V3.57331H3.39037ZM3.26146 4.02664V4.39997H3.77712V4.02664H4.09941V3.65331H4.42169V4.02664H4.74398V4.39997H5.00181V4.87997H4.74398V5.2533H4.42169V5.62663H4.09941V5.2533H3.77712V4.87997H3.26146V5.2533H2.93917V5.62663H2.61688V5.2533H2.29459V4.87997H2.03676V4.39997H2.29459V4.02664H2.61688V3.65331H2.93917V4.02664H3.26146ZM3.39037 6.34663V5.62663H3.6482V6.34663H3.39037Z" fill="white"/>
<path d="M1.45664 23.9998V23.6264H1.16658V23.2531H0.812066V22.8264H0.554235V22.4798H0.0385742V23.3598H0.554235V23.8398H0.0385742V23.9998H1.45664Z" fill="white"/>
<path fill-rule="evenodd" clip-rule="evenodd" d="M2.29459 21.9464V21.5464H2.03676V21.2264H1.77893V21.5464H1.5211V21.9464H1.26327V22.4798H1.5211V22.8798H1.77893V23.1998H2.03676V22.8798H2.29459V22.4798H2.55242V21.9464H2.29459ZM2.06899 21.9731V22.4531H1.7467V21.9731H2.06899Z" fill="white"/>
<path d="M0.908753 19.1198H1.16658V19.5998H0.908753V19.1198Z" fill="white"/>
<path d="M0.0385742 15.8665H0.489778V15.5198H0.683151V15.0931H0.97321V14.6931H1.35996V15.0931H1.65002V15.5198H1.90785V15.8665H1.5211V16.2665H2.19791V15.9998H2.61688V15.5465H2.9714V15.0398H2.71357V14.6665H2.48797V14.3198H2.29459V13.9465H2.00453V13.6265H1.77893V13.3332H1.48887V12.9598H1.0699V13.3598H0.779837V13.7332H0.554235V13.9732H0.0385742V14.5865H0.554235V15.1198H0.0385742V15.8665Z" fill="white"/>
<path d="M5.58174 23.6264V23.9998H6.99981V23.8398H6.48415V23.3598H6.99981V22.4798H6.48415V22.8264H6.22632V23.2531H5.8718V23.6264H5.58174Z" fill="white"/>
<path fill-rule="evenodd" clip-rule="evenodd" d="M4.74379 21.5464V21.9464H4.48596V22.4798H4.74379V22.8798H5.00163V23.1998H5.25946V22.8798H5.51729V22.4798H5.77512V21.9464H5.51729V21.5464H5.25946V21.2264H5.00163V21.5464H4.74379ZM4.9694 22.4531V21.9731H5.29168V22.4531H4.9694Z" fill="white"/>
<path d="M5.8718 19.1198H6.12963V19.5998H5.8718V19.1198Z" fill="white"/>
<path d="M6.54861 15.8665H6.99981V15.1198H6.48415V14.5865H6.99981V13.9732H6.48415V13.7332H6.25855V13.3598H5.96849V12.9598H5.54951V13.3332H5.25946V13.6265H5.03385V13.9465H4.74379V14.3198H4.55042V14.6665H4.32482V15.0398H4.06699V15.5465H4.42151V15.9998H4.84048V16.2665H5.51729V15.8665H5.13054V15.5198H5.38837V15.0931H5.67843V14.6931H6.06518V15.0931H6.35524V15.5198H6.54861V15.8665Z" fill="white"/>
<path d="M3.39037 23.9998V23.1464H3.6482V23.9998H4.67952V23.6264H4.42169V23.2531H4.03495V22.8264H3.77712V22.4798H3.26146V22.8264H3.00363V23.2531H2.61688V23.6264H2.35905V23.9998H3.39037Z" fill="white"/>
<path d="M2.64911 19.1198H2.90694V19.5998H2.64911V19.1198Z" fill="white"/>
<path d="M4.13145 19.1198H4.38928V19.5998H4.13145V19.1198Z" fill="white"/>
<path fill-rule="evenodd" clip-rule="evenodd" d="M3.32591 16.6931V16.9865H3.13254V17.3331H2.90694V17.7065H2.64911V18.0798H2.39128V18.3465H2.10122V18.7198H1.71447V18.3465H1.42441V18.0798H1.19881V17.7065H0.940981V17.3331H0.747608V16.9865H0.554235V16.5331H0.0385742V17.7065H0.554235V18.2398H0.0385742V19.1198H0.554235V18.7465H0.876524V18.3731H1.19881V18.7465H1.5211V19.1198H1.77893V19.5998H1.5211V19.9731H1.19881V20.3464H0.876524V19.9731H0.554235V19.5998H0.0385742V20.6931H0.554235V21.1998H0.0385742V21.9464H0.554235V21.5998H0.812066V21.1731H1.16658V20.8264H1.45664V20.4264H1.68224V20.1064H2.13345V20.4264H2.35905V20.8264H2.64911V21.1731H3.00363V21.5998H3.26146V21.9464H3.77712V21.5998H4.03495V21.1731H4.38947V20.8264H4.67952V20.4264H4.90513V20.1064H5.35633V20.4264H5.58193V20.8264H5.87199V21.1731H6.22651V21.5998H6.48434V21.9464H7V21.1998H6.48434V20.6931H7V19.5998H6.48434V19.9731H6.16205V20.3464H5.83976V19.9731H5.51747V19.5998H5.25964V19.1198H5.51747V18.7465H5.83976V18.3731H6.16205V18.7465H6.48434V19.1198H7V18.2398H6.48434V17.7065H7V16.5331H6.48434V16.9865H6.29097V17.3331H6.09759V17.7065H5.83976V18.0798H5.61416V18.3465H5.3241V18.7198H4.93736V18.3465H4.6473V18.0798H4.38947V17.7065H4.13163V17.3331H3.90603V16.9865H3.71266V16.6931H3.32591ZM3.39037 21.1464V20.4264H3.6482V21.1464H3.39037ZM3.26146 19.5998V19.9731H2.93917V20.3464H2.61688V19.9731H2.29459V19.5998H2.03676V19.1198H2.29459V18.7465H2.61688V18.3731H2.93917V18.7465H3.26146V19.1198H3.77712V18.7465H4.09941V18.3731H4.42169V18.7465H4.74398V19.1198H5.00181V19.5998H4.74398V19.9731H4.42169V20.3464H4.09941V19.9731H3.77712V19.5998H3.26146ZM3.39037 18.3731V17.6531H3.6482V18.3731H3.39037Z" fill="white"/>
<path d="M0.554235 10.88H0.0385742V13.12H0.554235V12.7466H0.779837V12.5333H1.03767V12.16H1.26327V11.84H1.03767V11.4667H0.779837V11.2533H0.554235V10.88Z" fill="white"/>
<path d="M7 13.12V10.88H6.48434V11.2533H6.25874V11.4667H6.00091V11.84H5.7753V12.16H6.00091V12.5333H6.25874V12.7466H6.48434V13.12H7Z" fill="white"/>
<path fill-rule="evenodd" clip-rule="evenodd" d="M2.23013 11.3333H1.77893V12.6666H2.23013V12.96H2.55242V13.2266H2.71357V13.4933H2.90694V13.8666H3.16477V14.24H3.29369V14.5866H3.74489V14.24H3.8738V13.8666H4.13163V13.4933H4.32501V13.2266H4.48615V12.96H4.80844V12.6666H5.25964V11.3333H4.80844V11.04H4.48615V10.7733H4.32501V10.5067H4.13163V10.1333H3.8738V9.75999H3.74489V9.41333H3.29369V9.75999H3.16477V10.1333H2.90694V10.5067H2.71357V10.7733H2.55242V11.04H2.23013V11.3333ZM2.55242 12.24H2.29459V11.76H2.55242V12.24ZM4.74398 11.76V12.24H4.48615V11.76H4.74398ZM3.6482 10.6667H3.39037V10.1867H3.6482V10.6667ZM3.39037 13.8133V13.3333H3.6482V13.8133H3.39037ZM3.39037 11.1733V11.5733H3.6482V11.1733H3.90603V10.9067H4.16386V11.5733H3.90603V11.8133H3.74489V12.1866H3.90603V12.4266H4.16386V13.0933H3.90603V12.8266H3.6482V12.4266H3.39037V12.8266H3.13254V13.0933H2.87471V12.4266H3.13254V12.1866H3.29369V11.8133H3.13254V11.5733H2.87471V10.9067H3.13254V11.1733H3.39037Z" fill="white"/>
<path d="M7 16H36V24H7V16Z" fill="#007C30"/>
</g>
<defs>
<clipPath id="clip0_11930_67789">
<rect width="36" height="24" rx="2" fill="white"/>
</clipPath>
</defs>
</svg>
