<svg width="36" height="24" viewBox="0 0 36 24" fill="none" xmlns="http://www.w3.org/2000/svg">
<g clip-path="url(#clip0_11930_67783)">
<path d="M9.0053 0H27V24H9L9.0053 0Z" fill="white"/>
<path d="M12 11.5885L12.6244 11.3835C13 11.0061 12.3991 9.85054 12.2019 9.16093C12.77 9.27742 13.6197 9.59427 13.8732 9.4871C14.1268 9.37527 14.2582 8.88136 14.446 8.57849L15.9108 10.2233C16.0516 10.2978 16.1737 10.2606 16.2254 10.1208L15.5822 6.6681L16.6573 7.25986C16.723 7.31577 16.8075 7.30645 16.892 7.22724L18 5L19.0798 7.14337C19.1362 7.25054 19.23 7.28781 19.3239 7.24588L20.4413 6.62151L19.7371 10.1068C19.7793 10.2466 19.8498 10.3118 20.0141 10.2699L21.5446 8.60179L21.9765 9.4172C22.0845 9.72007 23.7606 9.14695 23.7606 9.14695C23.6761 9.90645 23.0845 11.1086 23.4977 11.4254L24 11.6118L21.1221 13.9882C20.9437 14.6358 21.1174 14.8502 21.3099 15.2556L18.1784 14.8828L18.3239 17.986L17.6714 18L17.7465 14.8781L14.6197 15.2695C14.8075 14.934 15.1033 14.743 14.8826 14.1047L12 11.5885Z" fill="#D52B1E"/>
<path d="M0 0H9V24H0V0Z" fill="#D52B1E"/>
<path d="M27 0H36V24H27V0Z" fill="#D52B1E"/>
</g>
<defs>
<clipPath id="clip0_11930_67783">
<rect width="36" height="24" rx="2" fill="white"/>
</clipPath>
</defs>
</svg>
