<svg width="36" height="24" viewBox="0 0 36 24" fill="none" xmlns="http://www.w3.org/2000/svg">
<g clip-path="url(#clip0_11930_67779)">
<path d="M0 0H36V24H0V0Z" fill="#008000"/>
<path d="M5.49 12.1549C7.41747 12.1549 8.98 10.5924 8.98 8.66493C8.98 6.73745 7.41747 5.17493 5.49 5.17493C3.56253 5.17493 2 6.73745 2 8.66493C2 10.5924 3.56253 12.1549 5.49 12.1549Z" fill="#FFE000"/>
<path d="M5.25 11.3H6.125C6.125 11.3 6.16 11.22 6.115 11.18C6.065 11.14 5.88 11.13 5.93 10.99C6.03 10.7 6.05 10.79 6.115 10.1C6.16256 9.50917 6.19591 8.91733 6.215 8.32495H6.085C6.085 8.32495 6.11 8.65995 6.035 9.09995C5.965 9.53995 5.94 9.57495 5.86 9.91495C5.82231 10.1063 5.76708 10.2937 5.695 10.475C5.625 10.675 5.615 10.68 5.505 10.865C5.39 11.045 5.43 10.975 5.37 11.085C5.335 11.14 5.3 11.125 5.275 11.165C5.255 11.205 5.25 11.3 5.25 11.3Z" fill="#802000" stroke="#7B3100" stroke-width="0.075"/>
<path d="M5.91519 6.125C5.92664 6.28082 5.90623 6.43733 5.85519 6.585C5.7859 6.73949 5.74686 6.90582 5.74019 7.075C5.65019 7.105 5.55519 6.88 5.46519 7.015C5.53019 7.2 5.68519 7.345 5.78519 7.51C5.80519 7.56 5.95519 7.695 5.86519 7.725C5.65019 7.65 5.59519 7.375 5.46519 7.21C5.3891 7.0677 5.27803 6.94712 5.14243 6.85964C5.00684 6.77216 4.8512 6.72066 4.69019 6.71C4.56519 6.715 4.17019 6.685 4.27019 6.895C4.42019 6.995 4.61019 7.065 4.76019 7.18C4.87519 7.19 5.07519 7.38 5.06519 7.45C4.86519 7.37 4.77519 7.275 4.56519 7.19C4.27519 7.08 3.88019 7.145 3.71519 7.43C3.69019 7.505 3.64519 7.72 3.74019 7.745C3.85019 7.575 4.00519 7.38 4.23519 7.435C4.41519 7.45 4.03519 7.77 4.18019 7.705C4.23019 7.685 4.33019 7.615 4.41019 7.605C4.48519 7.605 4.52519 7.655 4.58019 7.665C4.69519 7.68 4.73019 7.725 4.71519 7.755C4.70519 7.785 4.66519 7.755 4.55019 7.795C4.49519 7.815 4.46519 7.865 4.40019 7.89C4.33019 7.91 4.19019 7.915 4.14019 7.89C3.95519 7.815 3.65519 7.825 3.60019 8.055C3.60019 8.155 3.51019 8.045 3.47019 8.09C3.43519 8.2 3.43019 8.31 3.27019 8.3C3.17019 8.4 3.07019 8.51 2.94019 8.585C3.01519 8.755 3.30519 8.415 3.29019 8.56C3.16519 8.735 3.36019 8.77 3.44019 8.635C3.58519 8.485 3.76519 8.3 3.97519 8.455C4.07519 8.55 4.13519 8.405 4.21019 8.405C4.26019 8.53 4.31519 8.415 4.37019 8.38C4.45519 8.37 4.43019 8.49 4.53019 8.415C4.73519 8.28 4.98519 8.395 5.18519 8.265C5.40019 8.165 5.21519 8.34 5.16019 8.41C5.06519 8.59 5.14519 8.83 4.94519 8.94C4.86019 9.155 5.04019 9.44 4.86019 9.6C4.83519 9.7 5.09019 9.69 5.16019 9.73C5.29019 9.73 5.16019 9.44 5.28519 9.4C5.45519 9.5 5.44519 9.21 5.41019 9.12C5.43019 8.92 5.44019 8.69 5.54019 8.505C5.65019 8.28 5.75019 8.6 5.63019 8.69C5.56019 8.895 5.46019 9.16 5.61519 9.355C5.66519 9.365 5.70019 9.475 5.75519 9.505C5.81519 9.54 5.89519 9.5 5.90519 9.4C5.98519 9.1 5.94519 8.78 6.05519 8.485C6.13019 8.395 6.23519 8.47 6.28019 8.555C6.43019 8.73 6.53519 8.945 6.71519 9.09C6.88557 9.15968 7.02439 9.28959 7.10519 9.455C7.10519 9.585 7.47519 9.605 7.36519 9.455C7.26019 9.32 7.33018 9.175 7.43518 9.08C7.49518 9.095 7.48019 8.99 7.43518 9.03C7.36019 9.015 7.35519 8.88 7.45519 8.945C7.63019 9 7.44519 8.82 7.38019 8.815C7.23519 8.725 7.07019 8.625 7.00019 8.465C7.19019 8.465 7.38519 8.57 7.57519 8.51C7.73019 8.43 7.88519 8.51 7.94019 8.65C8.06019 8.63 8.01019 8.51 7.94019 8.47C8.02519 8.435 8.09019 8.36 7.98019 8.295C7.93019 8.225 8.05518 8.095 7.89518 8.105C7.90018 7.98 7.85519 7.87 7.72018 7.825C7.58518 7.715 7.19019 7.995 7.20519 7.74C7.16519 7.6 7.36518 7.72 7.42018 7.65C7.47518 7.5 7.14519 7.52 7.25519 7.4C7.32519 7.36 7.66019 7.295 7.40019 7.245C7.3414 7.26223 7.27953 7.26624 7.21902 7.25673C7.15851 7.24722 7.10085 7.22443 7.05019 7.19C6.95518 7.345 6.69019 7.1 6.73518 7.38C6.70019 7.485 6.46019 7.76 6.39519 7.55C6.44519 7.385 6.73518 7.335 6.64518 7.11C6.63018 6.975 6.51519 7.135 6.46519 7.125C6.43519 7.04 6.54519 6.935 6.62519 6.915C6.77519 7.035 6.77519 6.765 6.92519 6.79C7.03019 6.765 6.89019 6.72 6.86018 6.7C6.89019 6.625 7.05518 6.585 6.89518 6.515C6.75018 6.415 6.64519 6.62 6.53019 6.63C6.42019 6.505 6.63019 6.445 6.69019 6.38C6.69519 6.33 6.57019 6.365 6.60519 6.32C6.64019 6.265 6.86519 6.26 6.75519 6.17C6.58707 6.1187 6.40613 6.12934 6.24519 6.2C6.14519 6.23 6.12019 6.45 6.03519 6.44C6.00019 6.34 6.05019 6.15 5.91519 6.125ZM6.66519 8.24C6.78519 8.22 6.66519 8.425 6.61519 8.42C6.61519 8.35 6.43519 8.355 6.55019 8.29C6.58535 8.26682 6.62425 8.24991 6.66519 8.24Z" fill="#008000"/>
<path d="M25.3355 5.52393L25.5558 6.20909L26.2289 5.95414L25.8308 6.5539L26.4499 6.92124L25.7324 6.98379L25.8311 7.6969L25.3355 7.17493L24.8396 7.69658L24.9383 6.98379L24.2211 6.92093L24.8402 6.55358L24.4417 5.95382L25.1148 6.20877L25.3355 5.52393Z" fill="#FFE000"/>
<path d="M21.5554 10.5431L21.335 9.85791L21.1143 10.5428L20.4412 10.2878L20.8397 10.8876L20.2206 11.2549L20.9378 11.3178L20.8391 12.0306L21.335 11.5089L21.8306 12.0309L21.7319 11.3178L22.4494 11.2552L21.8303 10.8879L22.2285 10.2881L21.5554 10.5431Z" fill="#FFE000"/>
<path d="M25.5558 16.8771L25.3355 16.1919L25.1148 16.8767L24.4417 16.6218L24.8402 17.2215L24.2211 17.5889L24.9383 17.6518L24.8396 18.3645L25.3355 17.8429L25.8311 18.3649L25.7324 17.6518L26.4499 17.5892L25.8308 17.2219L26.2289 16.6221L25.5558 16.8771Z" fill="#FFE000"/>
<path d="M29.1119 9.47618L28.8915 8.79102L28.6709 9.47586L27.9978 9.22091L28.3962 9.82067L27.7771 10.188L28.4943 10.2509L28.3956 10.9637L28.8915 10.442L29.3871 10.964L29.2884 10.2509L30.0059 10.1883L29.3868 9.82099L29.785 9.22123L29.1119 9.47618Z" fill="#FFE000"/>
<path d="M26.9358 12.001L27.1101 12.428L27.5698 12.4617L27.2174 12.7595L27.3276 13.2072L26.9358 12.964L26.544 13.2075L26.6538 12.7598L26.3014 12.462L26.7618 12.4283L26.9358 12.001Z" fill="#FFE000"/>
<path d="M17.335 15.3349C18.1986 15.3349 18.9855 15.0067 19.5778 14.4681C19.2146 14.6455 18.8064 14.745 18.375 14.745C16.859 14.745 15.63 13.516 15.63 12C15.63 10.484 16.859 9.255 18.375 9.255C18.8066 9.255 19.2149 9.35461 19.5783 9.53209C18.9859 8.99332 18.1988 8.66492 17.335 8.66492C15.4931 8.66492 14 10.158 14 11.9999C14 13.8418 15.4931 15.3349 17.335 15.3349Z" fill="#FFE000"/>
</g>
<defs>
<clipPath id="clip0_11930_67779">
<rect width="36" height="24" rx="2" fill="white"/>
</clipPath>
</defs>
</svg>
