<svg width="36" height="24" viewBox="0 0 36 24" fill="none" xmlns="http://www.w3.org/2000/svg">
<g clip-path="url(#clip0_11930_67798)">
<path d="M0 0H36V24H0V0Z" fill="#003399"/>
<path fill-rule="evenodd" clip-rule="evenodd" d="M18.4702 11.6575C18.0104 11.6575 17.6377 12.0302 17.6377 12.49C17.6377 12.9497 18.0104 13.3225 18.4702 13.3225C18.93 13.3225 19.3027 12.9497 19.3027 12.49C19.3027 12.0302 18.93 11.6575 18.4702 11.6575ZM16.2627 12.49C16.2627 11.2708 17.251 10.2825 18.4702 10.2825C19.6894 10.2825 20.6777 11.2708 20.6777 12.49C20.6777 13.7091 19.6894 14.6975 18.4702 14.6975C17.251 14.6975 16.2627 13.7091 16.2627 12.49Z" fill="#FFCC00"/>
<path fill-rule="evenodd" clip-rule="evenodd" d="M18.4702 8.76245C16.4115 8.76245 14.7427 10.4313 14.7427 12.49C14.7427 14.5486 16.4115 16.2175 18.4702 16.2175C20.5288 16.2175 22.1977 14.5486 22.1977 12.49C22.1977 10.4313 20.5288 8.76245 18.4702 8.76245ZM13.3677 12.49C13.3677 9.67192 15.6521 7.38745 18.4702 7.38745C21.2882 7.38745 23.5727 9.67192 23.5727 12.49C23.5727 15.308 21.2882 17.5925 18.4702 17.5925C15.6521 17.5925 13.3677 15.308 13.3677 12.49Z" fill="#FFCC00"/>
<path d="M22.7052 8.255L26.9402 12.49L22.7052 16.725L18.4702 12.49L22.7052 8.255Z" fill="#003399"/>
<path d="M11.2549 11.8049H14.2149V13.1799H11.2549V11.8049ZM20.6199 9.36993L22.5599 7.42993L23.5299 8.40493L21.5949 10.3399L20.6199 9.36993ZM17.7849 2.42993H19.1599V7.78493H17.7849V2.42993Z" fill="#FFCC00"/>
<path d="M28.625 11.8049H24.21V13.1799H28.625V11.8049Z" fill="#FFCC00"/>
<path d="M13.725 8.66492C14.1034 8.66492 14.41 8.35824 14.41 7.97992C14.41 7.60161 14.1034 7.29492 13.725 7.29492C13.3467 7.29492 13.04 7.60161 13.04 7.97992C13.04 8.35824 13.3467 8.66492 13.725 8.66492Z" fill="#FFCC00"/>
<path d="M9.685 13.1749C10.0633 13.1749 10.37 12.8682 10.37 12.4899C10.37 12.1116 10.0633 11.8049 9.685 11.8049C9.30668 11.8049 9 12.1116 9 12.4899C9 12.8682 9.30668 13.1749 9.685 13.1749Z" fill="#FFCC00"/>
<path d="M18.4702 19.755C18.8485 19.755 19.1552 19.4483 19.1552 19.07C19.1552 18.6917 18.8485 18.385 18.4702 18.385C18.0918 18.385 17.7852 18.6917 17.7852 19.07C17.7852 19.4483 18.0918 19.755 18.4702 19.755Z" fill="#FFCC00"/>
<path d="M18.4702 21.96C18.8485 21.96 19.1552 21.6533 19.1552 21.275C19.1552 20.8967 18.8485 20.59 18.4702 20.59C18.0918 20.59 17.7852 20.8967 17.7852 21.275C17.7852 21.6533 18.0918 21.96 18.4702 21.96Z" fill="#FFCC00"/>
<path d="M22.8852 13.1749C23.2635 13.1749 23.5702 12.8682 23.5702 12.4899C23.5702 12.1116 23.2635 11.8049 22.8852 11.8049C22.5069 11.8049 22.2002 12.1116 22.2002 12.4899C22.2002 12.8682 22.5069 13.1749 22.8852 13.1749Z" fill="#FFCC00"/>
<path d="M12.8853 17.075L13.8603 16.105L14.8303 17.075L13.8603 18.05L12.8853 17.075ZM23.1203 18.125L24.0953 17.15L25.0703 18.125L24.0953 19.095L23.1203 18.125Z" fill="#FFCC00"/>
</g>
<defs>
<clipPath id="clip0_11930_67798">
<rect width="36" height="24" rx="2" fill="white"/>
</clipPath>
</defs>
</svg>
