<svg width="36" height="24" viewBox="0 0 36 24" fill="none" xmlns="http://www.w3.org/2000/svg">
<g clip-path="url(#clip0_11930_67808)">
<path d="M0 0H36V24H0V0Z" fill="#000066"/>
<path fill-rule="evenodd" clip-rule="evenodd" d="M25.5801 10.65L25.8401 9.81495L25.1401 9.28495L26.0201 9.27495L26.3201 8.44995L26.6001 9.27495L27.4851 9.29995L26.7801 9.82495L27.0301 10.66L26.3051 10.16M27.6601 10.81L28.1801 10.115L27.6951 9.37495L28.5301 9.66495L29.0801 8.98995V9.86995L29.9001 10.19L29.0601 10.44L29.0201 11.315L28.5101 10.595M23.5901 11.345L23.5551 10.47L22.7151 10.21L23.5501 9.89995V9.02995L24.0951 9.70495L24.9351 9.42495L24.4451 10.16L24.9601 10.86L24.1101 10.635M22.1301 12.68L21.7601 11.89L20.8901 11.98L21.5301 11.365L21.2001 10.55L21.9601 10.96L22.6251 10.37L22.4551 11.24L23.2001 11.685L22.3351 11.81M21.4501 14.59L20.7851 14.035L20.0351 14.495L20.3551 13.66L19.7101 13.08L20.5751 13.115L20.9251 12.295L21.1401 13.155L22.0001 13.23L21.2701 13.72M21.4301 16.74L20.6051 16.5L20.1001 17.225L20.0651 16.33L19.2451 16.055L20.0501 15.745V14.845L20.5851 15.55L21.4051 15.27L20.9251 16.02M22.4001 18.56L21.5501 18.68L21.3751 19.55L20.9851 18.75L20.1301 18.83L20.7401 18.2149L20.3851 17.3949L21.1501 17.82L21.7901 17.23L21.6501 18.1M23.9001 20L23.1451 20.41L23.2751 21.2899L22.6401 20.67L21.8601 21.05L22.2251 20.255L21.6101 19.61L22.4751 19.74L22.8751 18.9649L23.0451 19.835M25.7351 20.285L25.3201 21.05L25.9051 21.71L25.0351 21.545L24.5901 22.295L24.4701 21.43L23.6101 21.23L24.4001 20.86L24.3151 19.985L24.9251 20.625M27.7951 19.9699L27.7701 20.8399L28.5851 21.16L27.7351 21.41L27.6751 22.285L27.1751 21.57L26.3251 21.7899L26.8651 21.0949L26.3951 20.36L27.2251 20.6449M29.9501 10.49L30.5501 11.12L31.3451 10.75L30.9301 11.54L31.5051 12.195L30.6551 12.055L30.2051 12.83L30.1001 11.95L29.2501 11.775L30.0351 11.375M31.7451 12.425L32.0201 13.255L32.8951 13.27L32.1851 13.805L32.4201 14.645L31.7151 14.145L30.9851 14.65L31.2551 13.81L30.5651 13.28L31.4451 13.26M32.4201 14.92L32.3201 15.7899L33.1051 16.175L32.2401 16.355L32.1051 17.22L31.6701 16.4649L30.8001 16.61L31.4001 15.96L30.9951 15.185L31.7951 15.545M31.9451 17.535L31.5551 18.3149L32.1501 18.95L31.2801 18.8149L30.8601 19.58L30.7101 18.7149L29.8401 18.55L30.6201 18.15L30.5051 17.28L31.1351 17.8949M30.6451 19.85L29.9101 20.31L30.1001 21.175L29.4251 20.6L28.6751 21.03L28.9901 20.2149L28.3351 19.61L29.2051 19.685L29.5551 18.885L29.7751 19.745" fill="white"/>
<path d="M0 0H16V12H0V0Z" fill="#000066"/>
<path d="M1.875 0L7.975 4.525L14.05 0H16V1.55L10 6.025L16 10.475V12H14L8 7.525L2.025 12H0V10.5L5.975 6.05L0 1.6V0H1.875Z" fill="white"/>
<path d="M10.6 7.025L16 11V12L9.225 7.025H10.6ZM6 7.525L6.15 8.4L1.35 12H0L6 7.525ZM16 0V0.075L9.775 4.775L9.825 3.675L14.75 0H16ZM0 0L5.975 4.4H4.475L0 1.05V0Z" fill="#C8102E"/>
<path d="M6.025 0V12H10.025V0H6.025ZM0 4V8H16V4H0Z" fill="white"/>
<path d="M0 4.825V7.225H16V4.825H0ZM6.825 0V12H9.225V0H6.825Z" fill="#C8102E"/>
</g>
<defs>
<clipPath id="clip0_11930_67808">
<rect width="36" height="24" rx="2" fill="white"/>
</clipPath>
</defs>
</svg>
