<svg width="36" height="24" viewBox="0 0 36 24" fill="none" xmlns="http://www.w3.org/2000/svg">
<rect width="36" height="24" rx="2" fill="#EE1C25"/>
<path d="M3.84013 8.8799L6.0001 2.3999L8.16007 8.8799L2.40015 4.9199H9.60006L3.84013 8.8799Z" fill="#FFFF00"/>
<path d="M13.2086 2.52418L10.9858 3.01679L12.4685 1.28896L12.3231 3.61439L11.0895 1.55568L13.2086 2.52418Z" fill="#FFFF00"/>
<path d="M15.452 5.3673L13.2121 4.95922L15.2489 3.9417L14.2129 6.02871L13.8744 3.65272L15.452 5.3673Z" fill="#FFFF00"/>
<path d="M15.1252 9.35618L13.2465 8.07001L15.5211 7.97169L13.7241 9.45473L14.384 7.14724L15.1252 9.35618Z" fill="#FFFF00"/>
<path d="M12.2996 11.962L11.0634 10.05L13.1996 10.8379L10.9692 11.5118L12.4691 9.63823L12.2996 11.962Z" fill="#FFFF00"/>
</svg>
