<svg width="36" height="24" viewBox="0 0 36 24" fill="none" xmlns="http://www.w3.org/2000/svg">
<rect width="36" height="24" rx="2" fill="#0C49AE"/>
<path fill-rule="evenodd" clip-rule="evenodd" d="M0.00425274 12H36V18H0L0.00425274 12Z" fill="white"/>
<path fill-rule="evenodd" clip-rule="evenodd" d="M0 14H36V16H0V14Z" fill="#DE3929"/>
<path fill-rule="evenodd" clip-rule="evenodd" d="M11.9391 18.7623L12.2493 19.7211H13.2551L12.4373 20.318L12.7475 21.2815L11.9391 20.6799L11.1213 21.2768L11.4362 20.3133L10.6184 19.7164H11.6289M20.6811 11.7687L20.996 12.7322H21.9971L21.1793 13.3244L21.4895 14.2879L20.6717 13.691L19.8539 14.2879L20.1641 13.3244L19.3463 12.7322H20.3615M9.92746 15.759L10.2377 16.7225H11.2482L10.4351 17.3241L10.75 18.2829L9.93216 17.6907L9.11436 18.2829L9.42456 17.3241L8.60676 16.7272H9.61726M20.6811 15.4864L20.996 16.4452H21.9971L21.1793 17.0421L21.4895 18.0009L20.6717 17.4087L19.8539 18.0056L20.1641 17.0421L19.3463 16.4452H20.3615M18.458 8.84529L18.7729 9.80409H19.7881L18.9703 10.401L19.2805 11.3645L18.4627 10.7676L17.6449 11.3645L17.9598 10.401L17.1373 9.80409H18.1525M15.121 7.67969L15.4359 8.64319H16.4464L15.6286 9.23539L15.9388 10.1989L15.121 9.60669L14.3032 10.1989L14.6181 9.23539L13.8003 8.64319H14.8061M11.7746 8.77949L12.0895 9.74299H13.1L12.2822 10.3352L12.5971 11.2987L11.7746 10.7018L10.9568 11.2987L11.2717 10.3352L10.4539 9.74299H11.4691M9.83346 11.7734L10.1437 12.7369H11.1589L10.3364 13.3291L10.6513 14.2926L9.83346 13.6957L9.01566 14.2926L9.32586 13.3291L8.50806 12.7369H9.51856M15.121 19.7587L15.4359 20.7222H16.4464L15.6286 21.3144L15.9435 22.2779L15.121 21.681L14.3032 22.2779L14.6181 21.3144L13.8003 20.7222H14.8061M18.6695 18.7623L18.9797 19.7211H19.9902L19.1771 20.318L19.492 21.2815L18.6742 20.6846L17.8517 21.2815L18.1666 20.318L17.3488 19.7211H18.3593" fill="#FFCE08"/>
</svg>
