<svg width="36" height="24" viewBox="0 0 36 24" fill="none" xmlns="http://www.w3.org/2000/svg">
<g clip-path="url(#clip0_11930_67844)">
<path d="M0 0H36V24H0V0Z" fill="#0021AD"/>
<path d="M0 0H36V24L0 0Z" fill="#1C8A42"/>
<path d="M33.1089 10.21C33.1043 10.2212 33.0959 10.2313 33.0842 10.2396C33.0724 10.2479 33.0574 10.2542 33.0401 10.2582C33.0228 10.2623 33.0035 10.2639 32.9834 10.2631C32.9632 10.2622 32.9426 10.2589 32.9226 10.2533C32.9027 10.2478 32.8838 10.24 32.8671 10.2305C32.8504 10.2211 32.8362 10.2101 32.8253 10.1981C32.8144 10.1862 32.807 10.1736 32.8035 10.1611C32.8001 10.1485 32.8006 10.1362 32.8051 10.125C32.8142 10.1022 32.8389 10.0848 32.8739 10.0767C32.9088 10.0686 32.951 10.0703 32.9913 10.0816C33.0316 10.0929 33.0666 10.1127 33.0886 10.1368C33.1107 10.1609 33.118 10.1872 33.1089 10.21Z" fill="#1C8A42"/>
<path d="M17.8937 14.89C19.4898 14.89 20.7837 13.5961 20.7837 12C20.7837 10.4039 19.4898 9.10999 17.8937 9.10999C16.2976 9.10999 15.0037 10.4039 15.0037 12C15.0037 13.5961 16.2976 14.89 17.8937 14.89Z" fill="#FFC639"/>
<path d="M16.1287 10.7C16.3287 10.975 16.6287 11.43 16.8687 11.31C17.0537 11.31 17.1537 11.325 17.1787 11.45C17.4918 11.481 17.8077 11.4316 18.0964 11.3065C18.3852 11.1813 18.6372 10.9847 18.8287 10.735C18.8287 10.735 18.8687 10.735 18.8537 10.51C18.8537 10.41 18.9937 10.43 18.9937 10.46C19.0137 10.51 19.0137 10.545 19.0387 10.55C19.0887 10.53 19.1737 10.4 19.2387 10.32C19.2537 10.285 19.2437 10.245 19.2487 10.2C19.2837 10.115 19.3687 10.135 19.3887 10.18L19.4187 10.26C19.5087 10.32 19.6687 10.26 19.6787 10.26C19.6937 10.19 19.7387 10.2 19.7387 10.2C19.7987 10.185 19.7737 10.19 19.8137 10.21C19.7787 10.595 19.8887 10.61 19.8787 10.81C19.8837 11.03 19.8137 11.09 19.8137 11.175C19.8337 11.275 20.1637 11.28 20.0437 11.37C19.9437 11.42 20.0437 11.52 19.8937 11.56C19.4537 11.785 19.3737 11.975 19.3737 11.975C19.3737 11.975 19.2637 12.185 19.2487 12.185C19.1737 12.325 19.0837 12.245 19.0287 12.315C19.0037 12.4 18.9787 12.59 19.0287 12.685C19.0537 12.82 19.0287 12.895 18.9937 13.03C18.9637 13.31 18.8537 13.355 18.8387 13.45C18.7887 13.56 18.8487 14.05 18.7987 14.05C18.4737 14.06 18.2237 13.99 18.0937 13.965C18.2187 13.42 18.1687 12.945 18.1687 12.895C18.1387 12.505 17.5887 12.6 17.5037 12.545C17.4337 12.535 17.3887 12.48 17.3687 12.455C17.2887 12.445 17.2587 12.425 17.1837 12.42C17.1437 12.44 17.1687 12.46 17.0837 12.485C16.8587 12.51 16.7637 12.295 16.7637 12.295C16.7737 12.22 16.2687 12.31 15.9987 12.245C15.8837 12.31 15.8337 12.495 15.7437 12.515C15.7437 12.57 15.5937 12.465 15.5637 12.415C15.5537 12.245 15.7037 12.175 15.7037 12.175C15.8237 12.09 15.8937 12.075 15.9537 12.02C15.9787 11.875 15.9637 11.77 16.0287 11.665C16.0787 11.58 16.1537 11.615 16.2037 11.585C16.2587 11.545 16.2837 11.305 16.2337 11.235L15.9987 11.025C15.9287 10.82 16.0837 10.685 16.1287 10.7Z" fill="#1C8A42"/>
<path d="M29.9887 7.11995C29.8587 6.60495 28.6887 5.48495 27.8036 4.77495C27.5936 4.63495 27.4536 4.71995 27.4836 4.92495C27.5936 5.10495 27.6736 5.30495 27.7836 5.48995C27.8136 5.61495 27.8737 5.69995 27.9036 5.81995C27.9036 5.81995 27.9136 6.02995 27.9336 6.04995C28.2036 6.34995 28.2436 6.60495 28.2436 6.60495C28.3815 6.90064 28.577 7.16583 28.8186 7.38495C29.1286 7.57995 28.8986 8.18495 28.9086 8.50995C28.9086 8.70995 28.7636 8.68995 28.6336 8.65995C27.6286 7.73495 26.6286 7.73495 25.7436 7.46495C25.4036 7.42995 25.3936 7.59495 25.5086 7.68495C26.0597 8.29876 26.7233 8.80117 27.4636 9.16495L27.8486 9.40495L28.2887 9.76995C28.6287 9.98995 28.6537 10.19 28.6537 10.21C28.6637 10.62 28.4437 10.94 28.3787 11.07C28.2637 11.505 28.0286 11.58 28.0286 11.58C26.1487 12.85 25.1586 13.18 22.1086 12.785C22.0586 12.765 21.7686 12.81 22.1086 12.935C22.8836 13.195 24.7936 13.61 26.6386 12.735C27.0886 12.425 27.3787 12.525 27.7036 12.335C28.1605 12.052 28.633 11.795 29.1186 11.565C29.5336 11.34 30.6836 11.095 30.9486 10.875C31.2536 10.85 31.5687 10.81 31.5887 10.55C31.6887 10.485 31.8386 10.535 31.9486 10.32C32.1886 10.275 32.1486 10.19 32.1486 10.19C32.0886 10.02 31.8586 9.94995 31.6986 9.82495C31.4586 9.74495 31.2986 9.72496 31.1236 9.80496L30.9586 9.87995C30.9586 9.87995 30.7037 9.84495 30.7037 9.82495C30.1336 9.79495 30.1887 7.90995 29.9887 7.12495V7.11995Z" fill="#FFC639"/>
<path d="M7.91836 10.1119L7.50876 9.7279L7.09596 10.1055L7.14076 9.5487L6.58716 9.4591L7.05116 9.1455L6.77596 8.6591L7.31036 8.8287L7.51836 8.3103L7.71996 8.8319L8.25436 8.6719L7.97276 9.1519L8.43356 9.4719L7.87996 9.5519L7.91836 10.1119Z" fill="white"/>
<path d="M9.36489 14.7359L8.92329 14.4447L8.49449 14.7519L8.64809 14.2559L8.21289 13.9519L8.74409 13.9391L8.90409 13.4431L9.08329 13.9327L9.61769 13.9295L9.19209 14.2399L9.36169 14.7327L9.36489 14.7359Z" fill="white"/>
<path d="M7.99844 18.7232L7.58884 18.3392L7.17604 18.7168L7.22084 18.16L6.66724 18.0704L7.13124 17.7568L6.85604 17.2704L7.39044 17.44L7.59844 16.9216L7.80004 17.4432L8.33444 17.2832L8.05284 17.7632L8.51364 18.0832L7.96004 18.1632L7.99844 18.7232Z" fill="white"/>
<path d="M4.3312 14.0543L3.9216 13.6703L3.5088 14.0479L3.5536 13.4911L3 13.4015L3.464 13.0879L3.1888 12.6015L3.7232 12.7711L3.9312 12.2527L4.1328 12.7743L4.6672 12.6143L4.3856 13.0943L4.8464 13.4143L4.2928 13.4943L4.3312 14.0543Z" fill="white"/>
<path d="M11.3874 12.8319L10.9778 12.4479L10.565 12.8255L10.6098 12.2687L10.0562 12.1791L10.5202 11.8655L10.245 11.3791L10.7794 11.5487L10.9874 11.0303L11.189 11.5519L11.7234 11.3919L11.4418 11.8719L11.9026 12.1919L11.349 12.2719L11.3874 12.8319Z" fill="white"/>
</g>
<defs>
<clipPath id="clip0_11930_67844">
<rect width="36" height="24" rx="2" fill="white"/>
</clipPath>
</defs>
</svg>
