<svg width="36" height="24" viewBox="0 0 36 24" fill="none" xmlns="http://www.w3.org/2000/svg">
<rect x="0.25" y="0.25" width="35.5" height="23.5" rx="1.75" fill="white"/>
<rect x="0.25" y="0.25" width="35.5" height="23.5" rx="1.75" stroke="#EFEFEF" stroke-width="0.5"/>
<path d="M18.1 19.9299C18.0961 19.9272 18.0927 19.9238 18.09 19.9199H18.085L18.02 19.8499L17.83 19.6249L17.585 19.3099L17.555 19.2649L17.245 19.1699L17.015 19.0649L17.135 18.9299L17.555 19.1049L17.865 19.1699L18.44 19.5949L18.275 19.7399C18.2162 19.7946 18.1611 19.8531 18.11 19.9149L18.145 19.8899L18.185 19.9199L18.1 19.9299ZM15.97 19.2899C15.688 19.2874 15.4119 19.2097 15.17 19.0649C15.17 19.0649 15.205 18.9999 15.285 18.9449C15.365 18.8849 15.505 18.8199 15.735 18.8149C16.005 18.8149 16.335 18.9099 16.71 19.0849C16.4859 19.2172 16.2302 19.2863 15.97 19.2849V19.2899ZM14.795 19.0299C14.745 19.0299 14.695 19.0099 14.665 18.9799C14.6366 18.9453 14.6177 18.904 14.61 18.8599C14.5967 18.8043 14.5916 18.747 14.595 18.6899C14.6158 18.6825 14.6379 18.6791 14.66 18.6799C14.76 18.6799 14.84 18.7649 14.875 18.8499C14.895 18.8999 14.9 18.9399 14.885 18.9749C14.875 19.0049 14.835 19.0249 14.795 19.0249V19.0299ZM16.86 18.7899C16.165 18.6899 15.87 18.4399 15.745 18.2449C15.615 18.0399 15.645 17.8449 15.645 17.8449C15.645 17.8449 15.685 17.8349 15.745 17.8349C15.935 17.8349 16.405 17.9299 16.86 18.7849V18.7899ZM15.435 18.6499C15.14 18.6499 14.915 18.5999 14.765 18.4999C14.7008 18.4596 14.649 18.4025 14.615 18.3349C14.6042 18.3094 14.5975 18.2824 14.595 18.2549C14.709 18.2074 14.8315 18.1836 14.955 18.1849C15.1334 18.1913 15.3088 18.233 15.471 18.3077C15.6333 18.3824 15.779 18.4885 15.9 18.6199C15.73 18.6399 15.575 18.6499 15.435 18.6499ZM14 18.5999C13.69 18.5999 13.26 18.4999 12.99 18.2349C12.99 18.2349 13.285 18.1599 13.61 18.1499H13.67C13.965 18.1499 14.19 18.2049 14.34 18.3199C14.39 18.3599 14.42 18.3949 14.425 18.4299C14.43 18.4599 14.415 18.4899 14.385 18.5149C14.315 18.5649 14.195 18.5949 14.025 18.5949H14V18.5999ZM12.985 18.0749C12.9656 18.0745 12.9466 18.0698 12.9293 18.0612C12.912 18.0525 12.8969 18.0401 12.885 18.0249C12.8641 17.9951 12.8504 17.9609 12.845 17.9249C12.83 17.8549 12.835 17.7849 12.835 17.7799C12.8507 17.773 12.8678 17.7696 12.885 17.7699C12.93 17.7699 12.965 17.7949 12.985 17.8199C13.0154 17.8477 13.0393 17.8818 13.055 17.9199C13.065 17.9649 13.07 17.9999 13.055 18.0299C13.055 18.0499 13.025 18.0799 12.99 18.0799L12.985 18.0749ZM15.33 18.0249C15.28 18.0249 15.23 18.0049 15.2 17.9749C15.1716 17.9403 15.1527 17.899 15.145 17.8549C15.1317 17.7993 15.1266 17.742 15.13 17.6849C15.1508 17.6775 15.1729 17.6741 15.195 17.6749C15.295 17.6749 15.38 17.7599 15.41 17.8449C15.43 17.8949 15.435 17.9349 15.425 17.9699C15.41 17.9999 15.375 18.0199 15.325 18.0199L15.33 18.0249ZM14.19 17.9749C13.56 17.9549 13.23 17.7749 13.07 17.6249C13.0002 17.5646 12.9425 17.4916 12.9 17.4099C12.875 17.3599 12.865 17.3199 12.865 17.3099C12.865 17.2999 12.925 17.2899 13.015 17.2899H13.035C13.245 17.2899 13.68 17.3799 14.185 17.9749H14.19ZM14.87 17.9149C14.5101 17.8758 14.1755 17.7111 13.925 17.4499C13.8327 17.349 13.7629 17.2297 13.72 17.0999C13.72 17.0999 13.78 17.0849 13.87 17.0799C13.8866 17.0793 13.9033 17.0793 13.92 17.0799C14.17 17.0849 14.635 17.1999 14.87 17.9149ZM12.27 17.6649C12.1102 17.6663 11.9509 17.6496 11.795 17.6149C11.53 17.5449 11.415 17.4449 11.365 17.3699C11.3445 17.3399 11.3309 17.3057 11.325 17.2699C11.3234 17.2566 11.3234 17.2432 11.325 17.2299C11.325 17.2299 11.5 17.1799 11.745 17.1749C11.869 17.1717 11.993 17.1818 12.115 17.2049C12.37 17.2586 12.5972 17.4024 12.755 17.6099C12.755 17.6099 12.555 17.6699 12.27 17.6699V17.6649ZM13.445 17.2449C13.4218 17.2455 13.3988 17.2414 13.3773 17.2328C13.3558 17.2242 13.3363 17.2113 13.32 17.1949C13.2916 17.1603 13.2727 17.119 13.265 17.0749C13.245 16.9949 13.25 16.9149 13.25 16.9049C13.2689 16.8964 13.2892 16.8913 13.31 16.8899H13.315C13.415 16.8899 13.495 16.9799 13.53 17.0649C13.55 17.1149 13.55 17.1549 13.54 17.1849C13.525 17.2199 13.49 17.2399 13.445 17.2399V17.2449ZM12.565 17.1199C12.3962 17.072 12.2347 17.0014 12.085 16.9099C11.865 16.7749 11.59 16.5349 11.56 16.1599L11.61 16.1549H11.625C11.69 16.1549 11.825 16.1699 11.99 16.2949C12.2 16.4549 12.39 16.7349 12.565 17.1199ZM13.14 17.0999C13.0021 17.0371 12.8741 16.9546 12.76 16.8549C12.4673 16.6023 12.2393 16.2835 12.095 15.9249C12.095 15.9249 12.14 15.8999 12.21 15.8949C12.2133 15.8948 12.2166 15.8948 12.22 15.8949H12.24C12.34 15.8949 12.485 15.9399 12.645 16.1149C12.835 16.3149 13 16.6449 13.145 17.0999H13.14ZM11.645 17.0549C11.45 17.0549 11.385 16.9549 11.365 16.9049C11.3456 16.8574 11.3387 16.8058 11.345 16.7549C11.3778 16.7476 11.4114 16.7443 11.445 16.7449C11.5071 16.7429 11.5688 16.7555 11.6252 16.7815C11.6816 16.8075 11.7312 16.8464 11.77 16.8949C11.78 16.9149 11.81 16.9649 11.785 17.0099C11.765 17.0399 11.72 17.0599 11.645 17.0599V17.0549ZM11.22 16.5149C11.0692 16.5165 10.9186 16.5048 10.77 16.4799C10.6 16.4499 10.505 16.3049 10.45 16.1849C10.4 16.0599 10.38 15.9349 10.38 15.9349C10.91 15.9499 11.165 16.1049 11.28 16.2349C11.3526 16.3096 11.3983 16.4063 11.41 16.5099C11.41 16.5099 11.33 16.5199 11.22 16.5199V16.5149ZM11.77 15.9649C11.7272 15.9102 11.6872 15.8535 11.65 15.7949C11.585 15.6949 11.53 15.5949 11.53 15.5149C11.53 15.4299 11.51 15.2649 11.5 15.1649L11.47 14.9399C11.485 14.9399 11.8 15.0599 11.8 15.3599C11.8 15.6599 11.77 15.9599 11.77 15.9599V15.9649ZM11.36 15.9349H11.35C11.007 15.8322 10.6945 15.6467 10.44 15.3949C10.355 15.2949 10.3 15.1349 10.285 14.9249C10.275 14.7749 10.285 14.6499 10.285 14.6349C10.3029 14.6301 10.3215 14.6285 10.34 14.6299C10.41 14.6299 10.49 14.6599 10.59 14.7299C10.6828 14.7956 10.7698 14.8692 10.85 14.9499C11.01 15.1099 11.135 15.2699 11.135 15.2699C11.15 15.2899 11.235 15.4549 11.31 15.6149C11.3451 15.6884 11.3719 15.7655 11.39 15.8449C11.395 15.8749 11.4 15.8949 11.39 15.9149C11.3876 15.9232 11.3823 15.9303 11.375 15.9349C11.3684 15.9364 11.3615 15.9364 11.355 15.9349H11.36Z" fill="#435125"/>
<path d="M17.005 19.9299C17.0089 19.9272 17.0123 19.9238 17.015 19.9199H17.02L17.085 19.8499L17.275 19.6249L17.52 19.3099L17.55 19.2649L17.86 19.1699L18.09 19.0649L17.97 18.9299L17.55 19.1049L17.24 19.1699L16.665 19.5949L16.83 19.7399C16.8887 19.7946 16.9439 19.8531 16.995 19.9149L16.96 19.8899L16.92 19.9199L17.005 19.9299ZM19.135 19.2899C19.4169 19.2874 19.6931 19.2097 19.935 19.0649C19.935 19.0649 19.9 18.9999 19.82 18.9449C19.74 18.8849 19.6 18.8199 19.37 18.8149C19.1 18.8149 18.77 18.9099 18.395 19.0849C18.6191 19.2172 18.8748 19.2863 19.135 19.2849V19.2899ZM20.31 19.0299C20.36 19.0299 20.41 19.0099 20.44 18.9799C20.4684 18.9453 20.4873 18.904 20.495 18.8599C20.5083 18.8043 20.5134 18.747 20.51 18.6899C20.4892 18.6825 20.4671 18.6791 20.445 18.6799C20.345 18.6799 20.265 18.7649 20.23 18.8499C20.21 18.8999 20.205 18.9399 20.22 18.9749C20.23 19.0049 20.27 19.0249 20.31 19.0249V19.0299ZM18.245 18.7899C18.94 18.6899 19.235 18.4399 19.36 18.2449C19.49 18.0399 19.46 17.8449 19.46 17.8449C19.46 17.8449 19.42 17.8349 19.36 17.8349C19.17 17.8349 18.7 17.9299 18.245 18.7849V18.7899ZM19.67 18.6499C19.965 18.6499 20.19 18.5999 20.34 18.4999C20.4041 18.4596 20.456 18.4025 20.49 18.3349C20.5007 18.3094 20.5075 18.2824 20.51 18.2549C20.396 18.2074 20.2735 18.1836 20.15 18.1849C19.9716 18.1913 19.7961 18.233 19.6339 18.3077C19.4717 18.3824 19.3259 18.4885 19.205 18.6199C19.375 18.6399 19.53 18.6499 19.67 18.6499ZM21.105 18.5999C21.415 18.5999 21.845 18.4999 22.115 18.2349C22.115 18.2349 21.82 18.1599 21.495 18.1499H21.435C21.14 18.1499 20.915 18.2049 20.765 18.3199C20.715 18.3599 20.685 18.3949 20.68 18.4299C20.675 18.4599 20.69 18.4899 20.72 18.5149C20.79 18.5649 20.91 18.5949 21.08 18.5949H21.105V18.5999ZM22.12 18.0749C22.1394 18.0745 22.1584 18.0698 22.1757 18.0612C22.193 18.0525 22.2081 18.0401 22.22 18.0249C22.2409 17.9951 22.2546 17.9609 22.26 17.9249C22.275 17.8549 22.27 17.7849 22.27 17.7799C22.2543 17.773 22.2372 17.7696 22.22 17.7699C22.175 17.7699 22.14 17.7949 22.12 17.8199C22.0896 17.8477 22.0657 17.8818 22.05 17.9199C22.04 17.9649 22.035 17.9999 22.05 18.0299C22.05 18.0499 22.08 18.0799 22.115 18.0799L22.12 18.0749ZM19.775 18.0249C19.825 18.0249 19.875 18.0049 19.905 17.9749C19.9334 17.9403 19.9523 17.899 19.96 17.8549C19.9733 17.7993 19.9784 17.742 19.975 17.6849C19.9542 17.6775 19.9321 17.6741 19.91 17.6749C19.81 17.6749 19.725 17.7599 19.695 17.8449C19.675 17.8949 19.67 17.9349 19.68 17.9699C19.695 17.9999 19.73 18.0199 19.78 18.0199L19.775 18.0249ZM20.915 17.9749C21.545 17.9549 21.875 17.7749 22.035 17.6249C22.1048 17.5646 22.1624 17.4916 22.205 17.4099C22.23 17.3599 22.24 17.3199 22.24 17.3099C22.24 17.2999 22.18 17.2899 22.09 17.2899H22.07C21.86 17.2899 21.425 17.3799 20.92 17.9749H20.915ZM20.235 17.9149C20.5949 17.8758 20.9295 17.7111 21.18 17.4499C21.2723 17.349 21.3421 17.2297 21.385 17.0999C21.385 17.0999 21.325 17.0849 21.235 17.0799C21.2184 17.0793 21.2017 17.0793 21.185 17.0799C20.935 17.0849 20.47 17.1999 20.235 17.9149ZM22.835 17.6649C22.9947 17.6663 23.1541 17.6496 23.31 17.6149C23.575 17.5449 23.69 17.4449 23.74 17.3699C23.7605 17.3399 23.7741 17.3057 23.78 17.2699C23.7816 17.2566 23.7816 17.2432 23.78 17.2299C23.78 17.2299 23.605 17.1799 23.36 17.1749C23.236 17.1717 23.1119 17.1818 22.99 17.2049C22.735 17.2586 22.5078 17.4024 22.35 17.6099C22.35 17.6099 22.55 17.6699 22.835 17.6699V17.6649ZM21.66 17.2449C21.6832 17.2455 21.7062 17.2414 21.7277 17.2328C21.7492 17.2242 21.7687 17.2113 21.785 17.1949C21.8134 17.1603 21.8323 17.119 21.84 17.0749C21.86 16.9949 21.855 16.9149 21.855 16.9049C21.8361 16.8964 21.8158 16.8913 21.795 16.8899H21.79C21.69 16.8899 21.61 16.9799 21.575 17.0649C21.555 17.1149 21.555 17.1549 21.565 17.1849C21.58 17.2199 21.615 17.2399 21.66 17.2399V17.2449ZM22.54 17.1199C22.7088 17.072 22.8703 17.0014 23.02 16.9099C23.24 16.7749 23.515 16.5349 23.545 16.1599L23.495 16.1549H23.48C23.415 16.1549 23.28 16.1699 23.115 16.2949C22.905 16.4549 22.715 16.7349 22.54 17.1199ZM21.965 17.0999C22.1029 17.0371 22.2309 16.9546 22.345 16.8549C22.6376 16.6023 22.8656 16.2835 23.01 15.9249C23.01 15.9249 22.965 15.8999 22.895 15.8949C22.8917 15.8948 22.8884 15.8948 22.885 15.8949H22.865C22.765 15.8949 22.62 15.9399 22.46 16.1149C22.27 16.3149 22.105 16.6449 21.96 17.0999H21.965ZM23.46 17.0549C23.655 17.0549 23.72 16.9549 23.74 16.9049C23.7594 16.8574 23.7663 16.8058 23.76 16.7549C23.7272 16.7476 23.6936 16.7443 23.66 16.7449C23.5979 16.7429 23.5362 16.7555 23.4798 16.7815C23.4234 16.8075 23.3738 16.8464 23.335 16.8949C23.325 16.9149 23.295 16.9649 23.32 17.0099C23.34 17.0399 23.385 17.0599 23.46 17.0599V17.0549ZM23.885 16.5149C24.0358 16.5165 24.1863 16.5048 24.335 16.4799C24.505 16.4499 24.6 16.3049 24.655 16.1849C24.705 16.0599 24.725 15.9349 24.725 15.9349C24.195 15.9499 23.94 16.1049 23.825 16.2349C23.7524 16.3096 23.7067 16.4063 23.695 16.5099C23.695 16.5099 23.775 16.5199 23.885 16.5199V16.5149ZM23.335 15.9649C23.3778 15.9102 23.4178 15.8535 23.455 15.7949C23.52 15.6949 23.575 15.5949 23.575 15.5149C23.575 15.4299 23.595 15.2649 23.605 15.1649L23.635 14.9399C23.62 14.9399 23.305 15.0599 23.305 15.3599C23.305 15.6599 23.335 15.9599 23.335 15.9599V15.9649ZM23.745 15.9349H23.755C24.098 15.8322 24.4105 15.6467 24.665 15.3949C24.75 15.2949 24.805 15.1349 24.82 14.9249C24.83 14.7749 24.82 14.6499 24.82 14.6349C24.8021 14.6301 24.7835 14.6285 24.765 14.6299C24.695 14.6299 24.615 14.6599 24.515 14.7299C24.4222 14.7956 24.3352 14.8692 24.255 14.9499C24.095 15.1099 23.97 15.2699 23.97 15.2699C23.955 15.2899 23.87 15.4549 23.795 15.6149C23.7599 15.6884 23.7331 15.7655 23.715 15.8449C23.71 15.8749 23.705 15.8949 23.715 15.9149C23.7174 15.9232 23.7227 15.9303 23.73 15.9349C23.7366 15.9364 23.7434 15.9364 23.75 15.9349H23.745Z" fill="#435125"/>
<path d="M28.66 3.81995L28.57 3.85495L28.53 3.86995L28.42 3.86495L28.31 3.91495L28.12 4.04495L28.115 4.04995L28.04 4.06995L27.975 4.03995L27.94 4.05995L27.925 4.13495L27.89 4.18995L27.845 4.21995L27.695 4.23495L27.57 4.30495L27.4 4.25495L27.325 4.28995L27.16 4.43995L27.075 4.47495H27.05L26.935 4.46995L26.89 4.48495L26.82 4.54995L26.69 4.55995L26.645 4.58995L26.58 4.71995L26.51 4.79995L26.47 4.80495L26.43 4.78995L26.395 4.79495L26.38 4.87995L26.35 4.91495L26.26 4.94495L26.19 5.00495L26.125 5.03495H26.025L25.94 5.08495L25.785 5.09495L25.72 5.15495L25.705 5.16995L25.675 5.18495L25.625 5.21495L25.615 5.22495L25.555 5.21495L25.485 5.23995L25.455 5.19995L25.405 5.22495L25.345 5.22995L25.265 5.19495L25.2 5.16495L25.155 5.17495L25.14 5.24995V5.25995L25.09 5.31995L25.005 5.37495L24.995 5.38995L24.895 5.51995L24.705 5.71995L24.545 5.79995L24.38 5.84995L24.265 5.94495L23.965 6.09495L23.48 6.33495L23.38 6.36495L23.24 6.38495L22.99 6.47995L22.77 6.54495L22.755 6.54995L22.715 6.56495L22.4 6.65995L22.255 6.63995L22.17 6.67495L21.945 6.64995H21.79L21.69 6.66995L21.505 6.75995L21.19 6.90995L21.09 7.00995L20.93 7.08995L20.74 7.14995V7.06995L20.675 7.08995L20.625 7.10495L20.475 7.12495H20.39L20.335 7.10995H20.325L20.015 7.21495L19.665 7.24995L19.49 7.30495H19.36L19.28 7.32995L19.12 7.34995L19.06 7.33495L19.05 7.32995L18.58 7.34995L18.365 7.32495L18.265 7.34995L18.09 7.28995L17.84 7.25995L17.78 7.24495L17.65 7.20495L17.59 7.23995L17.54 7.24495L17.44 7.20495H17.4L17.31 7.23495L17.26 7.22495L17.21 7.18495L17.105 7.16995L17.035 7.11495L16.66 7.16495L16.56 7.13495L16.215 7.03495H16.165L16.095 7.08495L15.995 7.12495L15.9 7.14495L15.78 7.14995L15.64 7.11495L15.5 7.04495L15.445 7.02995L15.325 7.04495H15.29L15.07 6.92995L14.79 6.75495L14.6 6.65995L14.525 6.64995L14.515 6.68495L14.55 6.79495L14.565 6.90995V7.00995L14.56 7.07495L14.575 7.12995L14.645 7.20995L14.675 7.28495L14.695 7.49495V7.70995L14.66 8.04995L14.65 8.09995L14.61 8.27995L14.575 8.44495L14.43 8.87995L14.395 8.92995L14.295 8.99495L14.08 9.14495L13.92 9.23495L13.87 9.25495L13.74 9.26495H13.66L13.56 9.20995L13.46 9.18495L13.33 9.08995L13.19 9.05995L13.03 8.96995L12.99 8.91995L12.905 8.90995L12.785 8.87495L12.74 8.85995L12.71 8.85495L12.56 8.84995L12.415 8.78495L12.34 8.76495H12.24L12.135 8.81495L12.08 8.83495L12.01 8.80995H11.96L11.91 8.89495L11.9 8.90995L11.86 8.92995H11.775L11.735 8.94495L11.68 8.96995L11.63 8.98995L11.605 8.99995H11.59L11.565 9.00995H11.535L11.475 8.97995L11.445 8.96495L11.395 8.95495L11.37 8.96995L11.365 9.06495L11.34 9.11995L11.26 9.18995L11.18 9.25995L11.13 9.33995L10.98 9.67495L10.885 9.80995L10.86 9.84495L10.76 9.94995L10.675 10.0149L10.48 10.1649L10.295 10.2399L10.135 10.2699H10.055L9.905 10.2499L9.775 10.2099L9.625 10.1199L9.47 9.98995L9.235 9.76495L9.205 9.74495L9.195 9.73995L9.125 9.68995H9.07L9.05 9.72995L9.035 9.77995L9.025 9.82495L9 10.0749V10.0899L9.015 10.1949L9.195 10.4449L9.245 10.5749L9.255 10.5899L9.29 10.6499L9.32 10.6999L9.385 10.8799L9.34 10.9799L9.36 11.0499L9.31 11.0899L9.3 11.1499L9.455 11.3499L9.49 11.4349L9.455 11.5549L9.39 11.6249L9.375 11.6399L9.385 11.6899L9.455 11.7599L9.58 11.8699L9.645 12.0299L9.695 12.0799L9.755 12.0649L9.785 12.0899H9.835L9.885 12.1399L9.915 12.1499L9.965 12.1749L10.005 12.2249L10.01 12.3849L10.085 12.5749V12.6999L10.135 12.7749L10.145 12.8349L10.12 12.9999L10.18 13.0499L10.24 13.0399L10.28 13.0449L10.345 13.0999L10.425 13.2199L10.505 13.2099L10.555 13.2299L10.79 13.4449L10.84 13.4749L10.885 13.4949L10.935 13.5449L11.005 13.4949H11.015L11.095 13.4849L11.13 13.5099L11.2 13.5549H11.285L11.485 13.6149L11.565 13.6349L11.735 13.7399L11.81 13.7849L11.85 13.8199L11.91 13.8699L12.02 13.9199L12.12 13.9399L12.17 13.9499L12.215 13.9649L12.425 14.0499L12.54 14.0749L12.64 14.1149L12.72 14.1399H12.78L12.86 14.0749H12.935L13 14.0849L13.065 14.0749L13.165 14.0149L13.18 13.9849L13.25 13.9549L13.49 13.9249L13.56 13.9449L13.74 13.8699L13.86 13.8999L13.96 13.8649L14.195 13.9149L14.255 13.9599L14.325 14.0349H14.41L14.375 14.0899L14.475 14.1999L14.57 14.3349L14.575 14.3549L14.64 14.5499L14.69 14.6199L14.725 14.7149V14.7749L14.675 14.8199L14.665 14.8399V14.8499L14.675 14.8749L14.695 14.8649L14.73 14.8449L14.78 14.8349L14.86 14.8449L14.915 14.8499L15 14.8099L15.06 14.7799L15.15 14.8199H15.25L15.295 14.8349L15.415 14.8899L15.475 14.8949L15.495 14.8799L15.51 14.8499L15.505 14.8099L15.455 14.7549L15.355 14.6349L15.315 14.5749L15.285 14.4899L15.275 14.3799L15.265 14.3049L15.28 14.2049L15.305 14.1699L15.325 14.0899L15.33 14.0699L15.39 13.9949L15.54 13.8949L15.7 13.7549L15.825 13.6699L15.955 13.6149V13.5999L15.975 13.6049L16.305 13.4899L16.455 13.4649L17.455 13.5349L17.49 13.5249L17.525 13.4299L17.54 13.4149L17.555 13.4049L17.665 13.3549L17.715 13.3449L17.855 13.3799L17.915 13.3949L18.01 13.3449H18.075L18.21 13.2699H18.295L18.33 13.2599L18.495 13.1399L18.65 13.0949L18.69 13.0749L18.705 13.0649L18.87 12.9799L18.97 12.8999L19.06 12.8499L19.16 12.8299L19.41 12.8099L19.465 12.7249L19.575 12.7099L19.64 12.6349L19.715 12.6049L19.77 12.5249L19.82 12.4599L19.88 12.4249L20.085 12.4099L20.325 12.4399L20.36 12.4199L20.41 12.2249L20.47 12.1899L20.62 11.9649V11.8849L20.625 11.8149L20.65 11.7149L20.635 11.5449L20.655 11.3649L20.75 11.1399L20.835 11.0499L20.97 10.9549L21.04 10.9249L21.14 10.9099H21.15L21.175 10.8999H21.635L21.75 10.8949L22.035 10.9449H22.055L22.15 10.9799L22.26 11.0649L22.38 11.1799L22.4 11.1999L22.475 11.2349L22.5 11.2449L22.56 11.2349L22.65 11.1849L22.72 11.1349L22.81 11.0849V11.0749L22.865 10.9999L22.885 10.9649L23.065 10.8949L23.275 10.8849L23.3 10.8699H23.31L23.365 10.7999H23.415L23.545 10.8499L23.63 10.8299L23.7 10.8549L23.755 10.8499L23.855 10.8349L23.97 10.9149L24.035 10.9249L24.26 11.0549H24.28L24.29 11.0599L24.315 11.0499L24.355 11.0399H24.36L24.365 11.0449L24.395 11.0799L24.43 11.0849L24.47 11.0349L24.455 11.0049L24.45 10.9949L24.365 10.9799L24.295 10.8549L24.365 10.7799L24.255 10.6499L24.235 10.6249V10.6199L24.195 10.5599L24.005 10.2699L23.755 10.0699L23.67 10.0049L23.64 9.97995L23.505 9.84495L23.41 9.71995L23.4 9.69495L23.38 9.64995L23.325 9.52995L23.225 9.45495L23.145 9.36495L22.975 9.13495L22.95 9.09995L22.91 9.07495H22.825L22.82 9.06495H22.815V9.05995L22.855 9.01995L22.905 9.00995L22.92 8.96495L22.835 8.71995V8.70995L22.83 8.63495L22.895 8.27995L22.905 8.23495L23.025 7.99995L23.095 7.93995L23.175 7.78495L23.245 7.68495L23.31 7.61995L23.32 7.61495L23.435 7.54495L23.535 7.52995L23.63 7.51495L23.795 7.56495H23.945L23.98 7.55995L24.05 7.54995L24.165 7.51495L24.22 7.47995L24.25 7.43995L24.31 7.23995L24.33 7.17495L24.365 7.10495L24.58 6.85995L24.74 6.70995L25.1 6.44995L25.275 6.34495L25.365 6.28995L26.17 5.92995L26.38 5.71995L26.49 5.60995L26.68 5.47995L26.905 5.38495L27.105 5.23495L27.145 5.17995L27.195 5.00495L27.245 4.99495L27.28 4.90995L27.295 4.88495L27.45 4.77495L27.47 4.76495L28.085 4.45495L28.175 4.46995L28.225 4.39495L28.4 4.36495H28.435L28.48 4.33995L28.515 4.27495V4.25995L28.52 4.08995L28.56 4.04495L28.58 3.93495L28.6 3.90495L28.62 3.87995L28.67 3.84495L28.66 3.81995Z" fill="#D47600"/>
</svg>
