<svg width="36" height="24" viewBox="0 0 36 24" fill="none" xmlns="http://www.w3.org/2000/svg">
<g clip-path="url(#clip0_11930_67871)">
<path d="M0 0H32V24H0V0Z" fill="white"/>
<path fill-rule="evenodd" clip-rule="evenodd" d="M36 20.81C35.595 21.145 35.2519 21.91 34.1775 21.91C32.0344 21.91 31.5 20.285 29.8913 20.285C28.8225 20.285 28.2881 21.91 27.2138 21.91C25.0706 21.91 24.5363 20.285 22.9275 20.285C21.8588 20.285 21.3244 21.91 20.2556 21.91C18.1069 21.91 17.5725 20.285 15.9637 20.285C14.895 20.285 14.355 21.91 13.2863 21.91C11.1431 21.91 10.6088 20.285 9 20.285C7.93125 20.285 7.39125 21.91 6.3225 21.91C4.17375 21.91 3.63938 20.285 2.03625 20.285C0.9675 20.285 0.64125 21.445 0 21.445V23.53C0.64125 23.53 0.961875 22.38 2.04187 22.38C3.645 22.38 4.17938 24 6.31688 24C7.39125 24 7.92562 22.375 9 22.375C10.6088 22.375 11.1431 24 13.2919 24C14.3606 24 14.8894 22.375 15.9637 22.375C17.5725 22.375 18.1069 24 20.25 24C21.3188 24 21.8588 22.375 22.9275 22.375C24.5363 22.375 25.0706 24 27.2138 24C28.2825 24 28.8225 22.375 29.8913 22.375C31.5 22.375 32.04 24 34.1775 24C35.2463 24 35.595 23.54 36 23.21V20.81ZM36 16.75C35.595 17.085 35.2519 17.85 34.1775 17.85C32.0344 17.85 31.5 16.225 29.8913 16.225C28.8225 16.225 28.2881 17.85 27.2138 17.85C25.0706 17.85 24.5363 16.225 22.9275 16.225C21.8588 16.225 21.3244 17.85 20.2556 17.85C18.1069 17.85 17.5725 16.225 15.9637 16.225C14.895 16.225 14.355 17.85 13.2863 17.85C11.1431 17.85 10.6088 16.225 9 16.225C7.93125 16.225 7.39125 17.85 6.3225 17.85C4.17375 17.85 3.63938 16.225 2.03625 16.225C0.9675 16.225 0.64125 17.385 0 17.385V19.475C0.64125 19.475 0.961875 18.32 2.04187 18.32C3.645 18.32 4.17938 19.945 6.31688 19.945C7.39125 19.945 7.92562 18.32 9 18.32C10.6088 18.32 11.1431 19.945 13.2919 19.945C14.3606 19.945 14.8894 18.32 15.9637 18.32C17.5725 18.32 18.1069 19.945 20.2556 19.945C21.3244 19.945 21.8588 18.32 22.9275 18.32C24.5363 18.32 25.0706 19.945 27.2138 19.945C28.2825 19.945 28.8225 18.32 29.8913 18.32C31.5 18.32 32.04 19.945 34.1775 19.945C35.2463 19.945 35.595 19.485 36 19.155V16.75ZM36 12.695C35.595 13.03 35.2519 13.795 34.1775 13.795C32.0344 13.795 31.5 12.17 29.8913 12.17C28.8225 12.17 28.2881 13.795 27.2138 13.795C25.0706 13.795 24.5363 12.17 22.9275 12.17C21.8588 12.17 21.3244 13.795 20.2556 13.795C18.1069 13.795 17.5725 12.17 15.9637 12.17C14.895 12.17 14.355 13.795 13.2863 13.795C11.1431 13.795 10.6088 12.17 9 12.17C7.93125 12.17 7.39125 13.795 6.3225 13.795C4.17375 13.795 3.63938 12.17 2.03625 12.17C0.9675 12.17 0.64125 13.33 0 13.33V15.42C0.64125 15.42 0.961875 14.26 2.04187 14.26C3.645 14.26 4.17938 15.885 6.31688 15.885C7.39125 15.885 7.92562 14.26 9 14.26C10.6088 14.26 11.1431 15.885 13.2919 15.885C14.3606 15.885 14.8894 14.26 15.9637 14.26C17.5725 14.26 18.1069 15.885 20.2556 15.885C21.3244 15.885 21.8588 14.26 22.9275 14.26C24.5363 14.26 25.0706 15.885 27.2138 15.885C28.2825 15.885 28.8225 14.26 29.8913 14.26C31.5 14.26 32.04 15.885 34.1775 15.885C35.2463 15.885 35.595 15.425 36 15.095V12.695ZM36 8.64C35.595 8.97 35.2519 9.74 34.1775 9.74C32.0344 9.74 31.5 8.115 29.8913 8.115C28.8225 8.115 28.2881 9.74 27.2138 9.74C25.0706 9.74 24.5363 8.115 22.9275 8.115C21.8588 8.115 21.3244 9.74 20.2556 9.74C18.1069 9.74 17.5725 8.115 15.9637 8.115C14.895 8.115 14.355 9.74 13.2863 9.74C11.1431 9.74 10.6088 8.115 9 8.115C7.93125 8.115 7.39125 9.74 6.3225 9.74C4.17375 9.74 3.63938 8.115 2.03625 8.115C0.9675 8.115 0.64125 9.275 0 9.275V11.36C0.64125 11.36 0.961875 10.21 2.04187 10.21C3.645 10.21 4.17938 11.83 6.31688 11.83C7.39125 11.83 7.92562 10.205 9 10.205C10.6088 10.205 11.1431 11.83 13.2919 11.83C14.3606 11.83 14.8894 10.205 15.9637 10.205C17.5725 10.205 18.1069 11.83 20.2556 11.83C21.3244 11.83 21.8588 10.205 22.9275 10.205C24.5363 10.205 25.0706 11.83 27.2138 11.83C28.2825 11.83 28.8225 10.205 29.8913 10.205C31.5 10.205 32.04 11.83 34.1775 11.83C35.2463 11.83 35.595 11.365 36 11.035V8.64ZM36 4.575C35.595 4.91 35.2519 5.68 34.1775 5.68C32.0344 5.68 31.5 4.055 29.8913 4.055C28.8225 4.055 28.2881 5.68 27.2138 5.68C25.0706 5.68 24.5363 4.055 22.9275 4.055C21.8588 4.055 21.3244 5.68 20.2556 5.68C18.1069 5.68 17.5725 4.055 15.9637 4.055C14.895 4.055 14.355 5.68 13.2863 5.68C11.1431 5.68 10.6088 4.055 9 4.055C7.93125 4.055 7.39125 5.68 6.3225 5.68C4.17375 5.68 3.63938 4.055 2.03625 4.055C0.9675 4.06 0.64125 5.22 0 5.22V7.31C0.64125 7.31 0.961875 6.155 2.03625 6.155C3.63938 6.155 4.17938 7.78 6.3225 7.78C7.39125 7.78 7.92562 6.155 9 6.155C10.6088 6.155 11.1431 7.78 13.2919 7.78C14.3606 7.78 14.8894 6.155 15.9581 6.155C17.5725 6.155 18.1069 7.78 20.25 7.78C21.3188 7.78 21.8588 6.155 22.9275 6.155C24.5363 6.155 25.0706 7.78 27.2138 7.78C28.2825 7.78 28.8225 6.155 29.8913 6.155C31.5 6.155 32.04 7.78 34.1775 7.78C35.2463 7.78 35.595 7.315 36 6.985V4.585V4.575ZM36 0.525C35.595 0.855 35.2519 1.625 34.1775 1.625C32.0344 1.625 31.5 0 29.8913 0C28.8225 0 28.2881 1.625 27.2138 1.625C25.0706 1.625 24.5363 0 22.9275 0C21.8588 0 21.3244 1.625 20.2556 1.625C18.1069 1.625 17.5725 0 15.9637 0C14.895 0 14.355 1.625 13.2863 1.625C11.1375 1.625 10.6088 0 9 0C7.93125 0 7.39125 1.625 6.3225 1.625C4.17375 1.625 3.63938 0 2.03625 0C0.9675 0 0.64125 1.16 0 1.16V3.255C0.64125 3.25 0.961875 2.1 2.03625 2.1C3.63938 2.1 4.17938 3.72 6.3225 3.72C7.39125 3.72 7.92562 2.1 9 2.1C10.6088 2.1 11.1431 3.72 13.2919 3.72C14.3606 3.72 14.8894 2.1 15.9581 2.1C17.5725 2.1 18.1069 3.72 20.25 3.72C21.3188 3.72 21.8588 2.1 22.9275 2.1C24.5363 2.1 25.0706 3.72 27.2138 3.72C28.2825 3.72 28.8225 2.1 29.8913 2.1C31.5 2.1 32.04 3.72 34.1775 3.72C35.2463 3.72 35.595 3.26 36 2.93V0.525Z" fill="#000063"/>
<path fill-rule="evenodd" clip-rule="evenodd" d="M25.7402 6.58496L25.5652 23.035C25.5652 23.9 26.3502 23.9 26.4352 23.035L26.2602 6.58496H25.7402Z" fill="#A24300" stroke="white" stroke-width="0.105"/>
<path fill-rule="evenodd" clip-rule="evenodd" d="M27.5351 12.7L26.9851 12.105L26.8551 12.71L26.6201 11.835L26.3951 12.275L26.3551 11.345L26.1351 11.785L26.0951 10.855L25.8751 11.295L25.7501 10.2L25.5301 10.64L25.4001 9.55L25.1751 9.99L25.0501 8.895L24.9851 8.345L25.0951 8.13L25.3851 8.235L25.8401 8.67L26.7551 9.54L26.1901 9.325L27.1051 10.195L26.5351 9.98L27.4501 10.845L26.8801 10.635L27.7101 11.335L27.1451 11.125L27.9701 11.825L27.4051 11.615L28.0351 12.375L27.3801 11.995L27.5301 12.71L27.5351 12.7Z" fill="#006D00" stroke="white" stroke-width="0.09"/>
<path d="M27.5351 12.7L25.1001 8.13M26.7551 9.54L25.4501 8.78L25.1801 9.985" stroke="black" stroke-width="0.015"/>
<path d="M27.1103 10.1899L25.7953 9.43494L25.5303 10.6399" stroke="black" stroke-width="0.015"/>
<path d="M27.455 10.84L26.145 10.09L25.875 11.29" stroke="black" stroke-width="0.015"/>
<path d="M27.7151 11.335L26.4901 10.74L26.1401 11.79" stroke="black" stroke-width="0.015"/>
<path d="M27.9751 11.825L26.7501 11.23L26.4001 12.28" stroke="black" stroke-width="0.015"/>
<path d="M28.0402 12.3699L26.9252 11.5599L26.8552 12.7099" stroke="black" stroke-width="0.015"/>
<path fill-rule="evenodd" clip-rule="evenodd" d="M21.1501 4.89494L22.0401 5.23494L21.7801 4.55994L22.5601 5.32494L22.4851 4.77494L23.1151 5.69494L23.0401 5.14494L23.6701 6.06494L23.5951 5.51494L24.4101 6.55494L24.3351 6.00494L25.1501 7.04494L25.0801 6.49494L25.8901 7.53494L26.3001 8.05494L26.3351 8.32994L26.0001 8.35994L25.3001 8.14494L23.8901 7.70994L24.5551 7.65494L23.1501 7.21994L23.8151 7.16494L22.4101 6.72994L23.0751 6.66994L21.8551 6.35994L22.5201 6.30494L21.3001 5.99494L21.9651 5.93494L20.8901 5.46994L21.7451 5.53494L21.1551 4.89994L21.1501 4.89494Z" fill="#006D00" stroke="white" stroke-width="0.1"/>
<path d="M21.1501 4.8949L26.3351 8.3299M23.8901 7.7099L25.5951 7.8399L25.0801 6.4949" stroke="black" stroke-width="0.015"/>
<path d="M23.1501 7.22L24.8501 7.35L24.3351 6" stroke="black" stroke-width="0.015"/>
<path d="M22.4102 6.73001L24.1102 6.86001L23.5952 5.51001" stroke="black" stroke-width="0.015"/>
<path d="M21.8501 6.3599L23.3751 6.3649L23.0401 5.1449" stroke="black" stroke-width="0.015"/>
<path d="M21.3 5.9899L22.82 5.9999L22.485 4.7749" stroke="black" stroke-width="0.015"/>
<path d="M20.8901 5.46994L22.4451 5.75494L21.7851 4.55994" stroke="black" stroke-width="0.015"/>
<path fill-rule="evenodd" clip-rule="evenodd" d="M31.4901 6.03997L30.7501 6.58497L31.5701 6.67497L30.4251 6.94497L31.0351 7.12497L29.8001 7.21497L30.4101 7.39497L29.1751 7.48497L29.7801 7.66997L28.3351 7.84997L28.9451 8.02997L27.5001 8.20997L28.1101 8.38997L26.6651 8.56997L25.9401 8.65997L25.6401 8.56997L25.7501 8.29997L26.2851 7.84997L27.3501 6.94497L27.1201 7.48497L28.1851 6.58497L27.9551 7.12497L29.0201 6.22497L28.7901 6.76497L29.6501 5.94997L29.4251 6.49497L30.2751 5.67997L30.0501 6.21997L31.0001 5.58997L30.5651 6.22497L31.4951 6.04497L31.4901 6.03997Z" fill="#006D00" stroke="white" stroke-width="0.1"/>
<path d="M31.4901 6.03992L25.6401 8.56992M27.3451 6.94492L26.4751 8.20992L28.1101 8.38992" stroke="black" stroke-width="0.015"/>
<path d="M28.1851 6.58496L27.3101 7.84996L28.9451 8.02996" stroke="black" stroke-width="0.015"/>
<path d="M29.02 6.21997L28.145 7.48497L29.78 7.66997" stroke="black" stroke-width="0.015"/>
<path d="M29.6501 5.94995L28.9851 7.12495L30.4101 7.39495" stroke="black" stroke-width="0.015"/>
<path d="M30.2751 5.67993L29.6101 6.85493L31.0351 7.12493" stroke="black" stroke-width="0.015"/>
<path d="M31.0003 5.58997L30.0303 6.67497H31.5653" stroke="black" stroke-width="0.015"/>
<path fill-rule="evenodd" clip-rule="evenodd" d="M31.3701 11.5149L30.4501 11.2499L30.7801 11.8999L29.9251 11.1999L30.0551 11.7349L29.3301 10.8749L29.4651 11.4149L28.7401 10.5499L28.8701 11.0899L27.9451 10.1199L28.0801 10.6599L27.1551 9.68995L27.2901 10.2299L26.3651 9.25995L25.9051 8.77495L25.8401 8.50495L26.1701 8.44495L26.8951 8.60495L28.3451 8.92495L27.6851 9.03495L29.1351 9.35495L28.4751 9.46495L29.9251 9.78495L29.2651 9.89995L30.5151 10.1099L29.8551 10.2199L31.1051 10.4299L30.4501 10.5499L31.5651 10.9249H30.7151L31.3651 11.5249L31.3701 11.5149Z" fill="#006D00" stroke="white" stroke-width="0.1"/>
<path d="M31.3701 11.515L25.8401 8.505M28.3401 8.925L26.6301 8.935L27.2901 10.235" stroke="black" stroke-width="0.015"/>
<path d="M29.1299 9.35498L27.4199 9.36498L28.0799 10.665" stroke="black" stroke-width="0.015"/>
<path d="M29.92 9.78491L28.21 9.79491L28.87 11.0949" stroke="black" stroke-width="0.015"/>
<path d="M30.515 10.11L29 10.225L29.465 11.415" stroke="black" stroke-width="0.015"/>
<path d="M31.11 10.4349L29.595 10.5449L30.055 11.7349" stroke="black" stroke-width="0.015"/>
<path d="M31.5652 10.92L29.9902 10.76L30.7802 11.9" stroke="black" stroke-width="0.015"/>
<path fill-rule="evenodd" clip-rule="evenodd" d="M21.76 11.8299L22.225 11.1799L21.52 11.2849L22.39 10.7899L21.835 10.7649L22.835 10.4149L22.28 10.3849L23.28 10.0349L22.725 10.0049L23.875 9.52489L23.315 9.49989L24.465 9.01489L23.91 8.98989L25.06 8.50989L25.635 8.26489L25.915 8.27989L25.895 8.54489L25.58 9.06489L24.95 10.1049L24.99 9.57489L24.36 10.6149L24.395 10.0799L23.765 11.1199L23.8 10.5899L23.32 11.4999L23.355 10.9699L22.875 11.8799L22.91 11.3499L22.3 12.1199L22.485 11.4599L21.76 11.8299Z" fill="#006D00" stroke="white" stroke-width="0.09"/>
<path d="M21.76 11.8299L25.91 8.27991M24.955 10.1049L25.32 8.78491L23.91 8.98991" stroke="black" stroke-width="0.015"/>
<path d="M24.3602 10.6149L24.7252 9.29492L23.3152 9.49492" stroke="black" stroke-width="0.015"/>
<path d="M23.7651 11.1199L24.1351 9.79993L22.7251 10.0049" stroke="black" stroke-width="0.015"/>
<path d="M23.3203 11.4999L23.5403 10.3099L22.2803 10.3849" stroke="black" stroke-width="0.015"/>
<path d="M22.875 11.8799L23.095 10.6899L21.835 10.7649" stroke="black" stroke-width="0.015"/>
<path d="M22.3 12.1199L22.8 10.9449L21.52 11.2849" stroke="black" stroke-width="0.015"/>
<path fill-rule="evenodd" clip-rule="evenodd" d="M30.15 3.30989L29.255 3.90989L29.11 3.26489L28.585 4.15489L28.485 3.72989L28.055 4.63989L27.995 4.21989L27.66 5.15489L27.47 4.70489L27.135 5.83989L26.945 5.38989L26.61 6.52489L26.415 6.07489L26.08 7.20989L25.915 7.77989L26.01 8.00489L26.37 7.88489L26.99 7.42489L28.24 6.50489L27.52 6.73989L28.765 5.81489L28.045 6.05489L29.29 5.12989L28.57 5.36989L29.82 4.64989L28.97 4.84989L30.3 4.16489L29.485 4.37489L30.47 3.59489L29.62 3.99989L30.15 3.30989Z" fill="#006D00" stroke="white" stroke-width="0.1"/>
<path d="M29.8 3.63501L28.51 4.74501L26.01 8.00501" stroke="black" stroke-width="0.015"/>
<path d="M27.965 6.6399L26.535 7.3149L26.415 6.2749" stroke="black" stroke-width="0.015"/>
<path d="M28.5101 5.95997L27.0601 6.62997L26.9451 5.58997" stroke="black" stroke-width="0.015"/>
<path d="M29.0252 5.27491L27.5902 5.94491L27.4802 4.90991" stroke="black" stroke-width="0.015"/>
<path d="M29.4551 4.76491L28.1151 5.25991L27.9651 4.40991" stroke="black" stroke-width="0.015"/>
<path d="M29.95 4.27493L28.51 4.74993L28.46 3.92993" stroke="black" stroke-width="0.015"/>
<path d="M30.1401 3.80996L28.8101 4.48996L29.0701 3.45996" stroke="black" stroke-width="0.015"/>
<path fill-rule="evenodd" clip-rule="evenodd" d="M25.3053 2.18994L25.7053 3.09994L26.2203 2.61994L26.1353 3.60994L26.4753 3.28994L26.2903 4.25994L26.5903 3.92994L26.3153 4.87994L26.7503 4.57994L26.3503 5.69494L26.7803 5.39494L26.3803 6.51994L26.8153 6.21994L26.4153 7.33994L26.2153 7.89994L25.9953 8.04994L25.7553 7.78494L25.5053 7.11494L25.0053 5.76994L25.4753 6.29494L24.9703 4.94494L25.4403 5.47494L24.9403 4.12494L25.4003 4.64994L24.7753 3.47994L25.3753 4.03494L24.6553 2.83994L25.2203 3.38994L24.8553 2.27994L25.3353 3.00994L25.3053 2.18994Z" fill="#006D00" stroke="white" stroke-width="0.1"/>
<path d="M25.4102 2.62L25.8352 4.145L25.9952 8.04499" stroke="black" stroke-width="0.015"/>
<path d="M25.1501 6.01001L25.9601 7.22501L26.6951 6.39001" stroke="black" stroke-width="0.015"/>
<path d="M25.1001 5.18494L25.9251 6.40494L26.6601 5.56994" stroke="black" stroke-width="0.015"/>
<path d="M25.0752 4.36499L25.8952 5.58499L26.6152 4.74999" stroke="black" stroke-width="0.015"/>
<path d="M25.02 3.745L25.86 4.765L26.51 4.115" stroke="black" stroke-width="0.015"/>
<path d="M24.9001 3.09998L25.8351 4.14998L26.3851 3.46998" stroke="black" stroke-width="0.015"/>
<path d="M25.0151 2.62L25.7351 3.795L26.1401 2.8" stroke="black" stroke-width="0.015"/>
<path fill-rule="evenodd" clip-rule="evenodd" d="M19.9502 8.9L21.1152 8.09L20.5302 7.79L21.5552 7.96L21.2052 7.495L22.1952 7.87L21.8452 7.405L22.8402 7.775L22.4902 7.315L23.6902 7.72L23.3402 7.255L24.5052 7.86L24.1552 7.395L25.3552 7.805L25.9402 8.105L26.1152 8.335L25.8802 8.5L25.2352 8.59L24.2002 9.02L24.3902 8.65L23.1052 8.83L23.5702 8.51L22.2552 8.89L22.7252 8.565L21.6152 8.98L22.1102 8.46L20.9702 9.07L21.4702 8.55L20.5302 9.2L21.0552 8.48L19.9502 8.9Z" fill="#006D00" stroke="white" stroke-width="0.095"/>
<path d="M20.3152 8.67993L21.5252 8.15493L22.1702 8.06493L22.7052 8.05493L23.6302 8.11493L24.4652 8.14993L26.1152 8.33493" stroke="black" stroke-width="0.015"/>
<path d="M24.36 8.84492L25.285 8.27492L24.345 7.53992" stroke="black" stroke-width="0.015"/>
<path d="M23.3252 8.75991L24.4602 8.14991L23.5252 7.40991" stroke="black" stroke-width="0.015"/>
<path d="M22.5851 8.73993L23.6301 8.11493L22.6801 7.42993M21.2051 8.90993L22.1701 8.06493L21.3901 7.63993" stroke="black" stroke-width="0.015"/>
<path d="M20.7751 8.96492L21.5251 8.15992L20.9251 7.93492M21.8451 8.81992L22.7951 8.05992L22.0351 7.53992" stroke="black" stroke-width="0.015"/>
<path fill-rule="evenodd" clip-rule="evenodd" d="M23.8758 17.7596L23.8648 16.3958L23.4697 15.7588C23.3707 15.4457 23.4192 15.2945 23.5796 15.2837C23.7394 15.2742 23.8978 15.3647 24.128 15.3748C24.3583 15.3849 24.3149 15.0212 24.6551 15.0313C24.9953 15.0415 25.5883 15.2236 26.0927 15.254C26.5978 15.2837 26.861 15.0921 27.443 15.0718C28.025 15.0516 28.1783 15.3242 28.2113 15.3242C28.2443 15.3242 28.4092 15.2135 28.5734 15.1933C28.7384 15.173 28.7933 15.254 28.7933 15.254C28.7933 15.254 28.7823 15.5975 28.7054 15.7993C28.6284 16.0017 28.3542 16.335 28.3432 16.335C28.3322 16.335 28.2443 17.8203 28.2443 17.8304C28.2443 17.8406 23.8758 17.79 23.8758 17.7596Z" fill="#CC0000" stroke="black" stroke-width="0.00827291"/>
<path fill-rule="evenodd" clip-rule="evenodd" d="M28.3917 16.3601C28.3917 16.3601 28.8315 16.0505 28.8431 15.3058C28.8496 14.8772 28.6207 14.5676 28.0477 14.5676C27.2458 14.5676 26.1005 14.8837 26.1005 14.8837V14.9891C26.1005 14.9891 27.0168 14.673 28.0483 14.673C28.5062 14.673 28.7358 14.9826 28.7358 15.2993C28.7358 15.8267 28.2766 16.3607 28.2766 16.3607V17.2042H28.3917V16.3601Z" fill="#FFF100" stroke="black" stroke-width="0.00827291"/>
<path fill-rule="evenodd" clip-rule="evenodd" d="M28.63 16.1394C28.6288 16.154 28.6309 16.1686 28.6361 16.1823C28.6413 16.1961 28.6496 16.2087 28.6604 16.2194C28.6711 16.2301 28.6842 16.2386 28.6987 16.2445C28.7132 16.2503 28.7289 16.2533 28.7448 16.2533C28.7606 16.2533 28.7763 16.2503 28.7908 16.2445C28.8053 16.2386 28.8184 16.2301 28.8291 16.2194C28.8399 16.2087 28.8482 16.1961 28.8534 16.1823C28.8586 16.1686 28.8607 16.154 28.8595 16.1394C28.8574 16.1128 28.8443 16.0878 28.823 16.0697C28.8018 16.0515 28.7738 16.0414 28.7448 16.0414C28.7157 16.0414 28.6877 16.0515 28.6665 16.0697C28.6452 16.0878 28.6321 16.1128 28.63 16.1394Z" fill="white" stroke="black" stroke-width="0.00827291"/>
<path fill-rule="evenodd" clip-rule="evenodd" d="M28.7452 15.8994C28.744 15.914 28.7461 15.9286 28.7513 15.9423C28.7566 15.9561 28.7648 15.9687 28.7756 15.9794C28.7864 15.9901 28.7994 15.9986 28.8139 16.0045C28.8285 16.0103 28.8441 16.0133 28.86 16.0133C28.8758 16.0133 28.8915 16.0103 28.906 16.0045C28.9205 15.9986 28.9336 15.9901 28.9444 15.9794C28.9552 15.9687 28.9634 15.9561 28.9686 15.9423C28.9739 15.9286 28.976 15.914 28.9748 15.8994C28.9726 15.8728 28.9596 15.8479 28.9383 15.8297C28.917 15.8115 28.889 15.8014 28.86 15.8014C28.8309 15.8014 28.803 15.8115 28.7817 15.8297C28.7604 15.8479 28.7474 15.8728 28.7452 15.8994Z" fill="white" stroke="black" stroke-width="0.00827291"/>
<path fill-rule="evenodd" clip-rule="evenodd" d="M28.805 15.6494C28.8038 15.664 28.8059 15.6786 28.8111 15.6923C28.8164 15.7061 28.8246 15.7187 28.8354 15.7294C28.8462 15.7401 28.8592 15.7486 28.8738 15.7545C28.8883 15.7603 28.904 15.7633 28.9198 15.7633C28.9356 15.7633 28.9513 15.7603 28.9658 15.7545C28.9804 15.7486 28.9934 15.7401 29.0042 15.7294C29.015 15.7187 29.0232 15.7061 29.0285 15.6923C29.0337 15.6786 29.0358 15.664 29.0346 15.6494C29.0324 15.6228 29.0194 15.5979 28.9981 15.5797C28.9768 15.5615 28.9488 15.5514 28.9198 15.5514C28.8908 15.5514 28.8628 15.5615 28.8415 15.5797C28.8202 15.5979 28.8072 15.6228 28.805 15.6494Z" fill="white" stroke="black" stroke-width="0.00827291"/>
<path fill-rule="evenodd" clip-rule="evenodd" d="M28.8499 15.3894C28.8487 15.404 28.8508 15.4186 28.8561 15.4323C28.8613 15.4461 28.8696 15.4587 28.8803 15.4694C28.8911 15.4801 28.9042 15.4886 28.9187 15.4945C28.9332 15.5003 28.9489 15.5033 28.9647 15.5033C28.9806 15.5033 28.9962 15.5003 29.0108 15.4945C29.0253 15.4886 29.0383 15.4801 29.0491 15.4694C29.0599 15.4587 29.0681 15.4461 29.0734 15.4323C29.0786 15.4186 29.0807 15.404 29.0795 15.3894C29.0773 15.3628 29.0643 15.3378 29.043 15.3197C29.0217 15.3015 28.9938 15.2914 28.9647 15.2914C28.9357 15.2914 28.9077 15.3015 28.8864 15.3197C28.8651 15.3378 28.8521 15.3628 28.8499 15.3894Z" fill="white" stroke="black" stroke-width="0.00827291"/>
<path fill-rule="evenodd" clip-rule="evenodd" d="M28.8399 15.1094C28.8387 15.1239 28.8408 15.1385 28.8461 15.1523C28.8513 15.1661 28.8595 15.1787 28.8703 15.1894C28.8811 15.2001 28.8942 15.2086 28.9087 15.2144C28.9232 15.2203 28.9389 15.2233 28.9547 15.2233C28.9706 15.2233 28.9862 15.2203 29.0007 15.2144C29.0153 15.2086 29.0283 15.2001 29.0391 15.1894C29.0499 15.1787 29.0581 15.1661 29.0634 15.1523C29.0686 15.1385 29.0707 15.1239 29.0695 15.1094C29.0673 15.0827 29.0543 15.0578 29.033 15.0396C29.0117 15.0215 28.9837 15.0114 28.9547 15.0114C28.9257 15.0114 28.8977 15.0215 28.8764 15.0396C28.8551 15.0578 28.8421 15.0827 28.8399 15.1094Z" fill="white" stroke="black" stroke-width="0.00827291"/>
<path fill-rule="evenodd" clip-rule="evenodd" d="M28.4649 16.3544C28.4637 16.3689 28.4658 16.3835 28.4711 16.3973C28.4763 16.4111 28.4845 16.4237 28.4953 16.4344C28.5061 16.4451 28.5192 16.4536 28.5337 16.4594C28.5482 16.4653 28.5639 16.4683 28.5797 16.4683C28.5956 16.4683 28.6112 16.4653 28.6257 16.4594C28.6403 16.4536 28.6533 16.4451 28.6641 16.4344C28.6749 16.4237 28.6831 16.4111 28.6884 16.3973C28.6936 16.3835 28.6957 16.3689 28.6945 16.3544C28.6923 16.3277 28.6793 16.3028 28.658 16.2846C28.6367 16.2664 28.6087 16.2563 28.5797 16.2563C28.5507 16.2563 28.5227 16.2664 28.5014 16.2846C28.4801 16.3028 28.4671 16.3277 28.4649 16.3544Z" fill="white" stroke="black" stroke-width="0.00827291"/>
<path fill-rule="evenodd" clip-rule="evenodd" d="M28.7401 14.8394C28.7389 14.8539 28.741 14.8685 28.7462 14.8823C28.7514 14.896 28.7597 14.9087 28.7705 14.9194C28.7812 14.9301 28.7943 14.9386 28.8088 14.9444C28.8233 14.9502 28.839 14.9533 28.8549 14.9533C28.8707 14.9533 28.8864 14.9502 28.9009 14.9444C28.9154 14.9386 28.9285 14.9301 28.9392 14.9194C28.95 14.9087 28.9583 14.896 28.9635 14.8823C28.9687 14.8685 28.9708 14.8539 28.9696 14.8394C28.9675 14.8127 28.9544 14.7878 28.9331 14.7696C28.9119 14.7514 28.8839 14.7413 28.8549 14.7413C28.8258 14.7413 28.7979 14.7514 28.7766 14.7696C28.7553 14.7878 28.7422 14.8127 28.7401 14.8394Z" fill="white" stroke="black" stroke-width="0.00827291"/>
<path fill-rule="evenodd" clip-rule="evenodd" d="M28.5301 14.6244C28.5289 14.6389 28.531 14.6535 28.5362 14.6673C28.5415 14.6811 28.5497 14.6937 28.5605 14.7044C28.5713 14.7151 28.5843 14.7236 28.5989 14.7295C28.6134 14.7353 28.6291 14.7383 28.6449 14.7383C28.6607 14.7383 28.6764 14.7353 28.6909 14.7295C28.7055 14.7236 28.7185 14.7151 28.7293 14.7044C28.7401 14.6937 28.7483 14.6811 28.7536 14.6673C28.7588 14.6535 28.7609 14.6389 28.7597 14.6244C28.7575 14.5977 28.7445 14.5728 28.7232 14.5546C28.7019 14.5365 28.6739 14.5264 28.6449 14.5264C28.6159 14.5264 28.5879 14.5365 28.5666 14.5546C28.5453 14.5728 28.5323 14.5977 28.5301 14.6244Z" fill="white" stroke="black" stroke-width="0.00827291"/>
<path fill-rule="evenodd" clip-rule="evenodd" d="M28.2452 14.4844C28.244 14.4989 28.2461 14.5135 28.2513 14.5273C28.2566 14.5411 28.2648 14.5537 28.2756 14.5644C28.2864 14.5751 28.2994 14.5836 28.3139 14.5894C28.3285 14.5953 28.3441 14.5983 28.36 14.5983C28.3758 14.5983 28.3915 14.5953 28.406 14.5894C28.4205 14.5836 28.4336 14.5751 28.4444 14.5644C28.4552 14.5537 28.4634 14.5411 28.4686 14.5273C28.4739 14.5135 28.476 14.4989 28.4748 14.4844C28.4726 14.4577 28.4596 14.4328 28.4383 14.4146C28.417 14.3965 28.389 14.3864 28.36 14.3864C28.3309 14.3864 28.303 14.3965 28.2817 14.4146C28.2604 14.4328 28.2474 14.4577 28.2452 14.4844Z" fill="white" stroke="black" stroke-width="0.00827291"/>
<path fill-rule="evenodd" clip-rule="evenodd" d="M27.9552 14.4644C27.954 14.4789 27.9561 14.4935 27.9613 14.5073C27.9665 14.521 27.9748 14.5337 27.9856 14.5444C27.9963 14.5551 28.0094 14.5636 28.0239 14.5694C28.0384 14.5752 28.0541 14.5783 28.0699 14.5783C28.0858 14.5783 28.1015 14.5752 28.116 14.5694C28.1305 14.5636 28.1436 14.5551 28.1543 14.5444C28.1651 14.5337 28.1734 14.521 28.1786 14.5073C28.1838 14.4935 28.1859 14.4789 28.1847 14.4644C28.1826 14.4377 28.1695 14.4128 28.1482 14.3946C28.1269 14.3764 28.099 14.3663 28.0699 14.3663C28.0409 14.3663 28.0129 14.3764 27.9917 14.3946C27.9704 14.4128 27.9573 14.4377 27.9552 14.4644Z" fill="white" stroke="black" stroke-width="0.00827291"/>
<path fill-rule="evenodd" clip-rule="evenodd" d="M27.6551 14.4694C27.6539 14.4839 27.656 14.4985 27.6612 14.5123C27.6665 14.5261 27.6747 14.5387 27.6855 14.5494C27.6963 14.5601 27.7093 14.5686 27.7239 14.5744C27.7384 14.5803 27.7541 14.5833 27.7699 14.5833C27.7857 14.5833 27.8014 14.5803 27.8159 14.5744C27.8305 14.5686 27.8435 14.5601 27.8543 14.5494C27.8651 14.5387 27.8733 14.5261 27.8786 14.5123C27.8838 14.4985 27.8859 14.4839 27.8847 14.4694C27.8825 14.4427 27.8695 14.4178 27.8482 14.3996C27.8269 14.3814 27.7989 14.3713 27.7699 14.3713C27.7409 14.3713 27.7129 14.3814 27.6916 14.3996C27.6703 14.4178 27.6573 14.4427 27.6551 14.4694Z" fill="white" stroke="black" stroke-width="0.00827291"/>
<path fill-rule="evenodd" clip-rule="evenodd" d="M27.345 14.5194C27.3439 14.534 27.346 14.5486 27.3512 14.5623C27.3564 14.5761 27.3647 14.5887 27.3754 14.5994C27.3862 14.6101 27.3993 14.6186 27.4138 14.6245C27.4283 14.6303 27.444 14.6333 27.4598 14.6333C27.4757 14.6333 27.4914 14.6303 27.5059 14.6245C27.5204 14.6186 27.5335 14.6101 27.5442 14.5994C27.555 14.5887 27.5633 14.5761 27.5685 14.5623C27.5737 14.5486 27.5758 14.534 27.5746 14.5194C27.5725 14.4928 27.5594 14.4678 27.5381 14.4497C27.5168 14.4315 27.4889 14.4214 27.4598 14.4214C27.4308 14.4214 27.4028 14.4315 27.3815 14.4497C27.3603 14.4678 27.3472 14.4928 27.345 14.5194Z" fill="white" stroke="black" stroke-width="0.00827291"/>
<path fill-rule="evenodd" clip-rule="evenodd" d="M27.0401 14.5543C27.0389 14.5689 27.041 14.5835 27.0462 14.5972C27.0515 14.611 27.0597 14.6236 27.0705 14.6343C27.0813 14.645 27.0943 14.6535 27.1089 14.6594C27.1234 14.6652 27.1391 14.6682 27.1549 14.6682C27.1708 14.6682 27.1864 14.6652 27.2009 14.6594C27.2155 14.6535 27.2285 14.645 27.2393 14.6343C27.2501 14.6236 27.2583 14.611 27.2636 14.5972C27.2688 14.5835 27.2709 14.5689 27.2697 14.5543C27.2675 14.5277 27.2545 14.5028 27.2332 14.4846C27.2119 14.4664 27.1839 14.4563 27.1549 14.4563C27.1259 14.4563 27.0979 14.4664 27.0766 14.4846C27.0553 14.5028 27.0423 14.5277 27.0401 14.5543Z" fill="white" stroke="black" stroke-width="0.00827291"/>
<path fill-rule="evenodd" clip-rule="evenodd" d="M26.7052 14.5994C26.704 14.6139 26.7061 14.6285 26.7113 14.6423C26.7165 14.6561 26.7248 14.6687 26.7356 14.6794C26.7463 14.6901 26.7594 14.6986 26.7739 14.7044C26.7884 14.7103 26.8041 14.7133 26.8199 14.7133C26.8358 14.7133 26.8515 14.7103 26.866 14.7044C26.8805 14.6986 26.8936 14.6901 26.9043 14.6794C26.9151 14.6687 26.9234 14.6561 26.9286 14.6423C26.9338 14.6285 26.9359 14.6139 26.9347 14.5994C26.9326 14.5727 26.9195 14.5478 26.8982 14.5296C26.8769 14.5114 26.849 14.5013 26.8199 14.5013C26.7909 14.5013 26.7629 14.5114 26.7417 14.5296C26.7204 14.5478 26.7073 14.5727 26.7052 14.5994Z" fill="white" stroke="black" stroke-width="0.00827291"/>
<path fill-rule="evenodd" clip-rule="evenodd" d="M26.4249 14.6743C26.4237 14.6889 26.4258 14.7035 26.431 14.7172C26.4362 14.731 26.4445 14.7436 26.4553 14.7543C26.4661 14.765 26.4791 14.7735 26.4936 14.7794C26.5082 14.7852 26.5238 14.7882 26.5397 14.7882C26.5555 14.7882 26.5712 14.7852 26.5857 14.7794C26.6002 14.7735 26.6133 14.765 26.6241 14.7543C26.6348 14.7436 26.6431 14.731 26.6483 14.7172C26.6536 14.7035 26.6556 14.6889 26.6545 14.6743C26.6523 14.6477 26.6392 14.6228 26.618 14.6046C26.5967 14.5864 26.5687 14.5763 26.5397 14.5763C26.5106 14.5763 26.4827 14.5864 26.4614 14.6046C26.4401 14.6228 26.4271 14.6477 26.4249 14.6743Z" fill="white" stroke="black" stroke-width="0.00827291"/>
<path fill-rule="evenodd" clip-rule="evenodd" d="M23.5678 16.1394C23.569 16.154 23.5669 16.1686 23.5617 16.1823C23.5564 16.1961 23.5482 16.2087 23.5374 16.2194C23.5266 16.2301 23.5136 16.2386 23.499 16.2445C23.4845 16.2503 23.4688 16.2533 23.453 16.2533C23.4372 16.2533 23.4215 16.2503 23.407 16.2445C23.3924 16.2386 23.3794 16.2301 23.3686 16.2194C23.3578 16.2087 23.3496 16.1961 23.3443 16.1823C23.3391 16.1686 23.337 16.154 23.3382 16.1394C23.3404 16.1128 23.3534 16.0878 23.3747 16.0697C23.396 16.0515 23.424 16.0414 23.453 16.0414C23.482 16.0414 23.51 16.0515 23.5313 16.0697C23.5526 16.0878 23.5656 16.1128 23.5678 16.1394Z" fill="white" stroke="black" stroke-width="0.00827291"/>
<path fill-rule="evenodd" clip-rule="evenodd" d="M23.4526 15.8994C23.4537 15.914 23.4517 15.9286 23.4464 15.9423C23.4412 15.9561 23.4329 15.9687 23.4222 15.9794C23.4114 15.9901 23.3983 15.9986 23.3838 16.0045C23.3693 16.0103 23.3536 16.0133 23.3378 16.0133C23.3219 16.0133 23.3063 16.0103 23.2917 16.0045C23.2772 15.9986 23.2642 15.9901 23.2534 15.9794C23.2426 15.9687 23.2343 15.9561 23.2291 15.9423C23.2239 15.9286 23.2218 15.914 23.223 15.8994C23.2252 15.8728 23.2382 15.8479 23.2595 15.8297C23.2808 15.8115 23.3087 15.8014 23.3378 15.8014C23.3668 15.8014 23.3948 15.8115 23.4161 15.8297C23.4373 15.8479 23.4504 15.8728 23.4526 15.8994Z" fill="white" stroke="black" stroke-width="0.00827291"/>
<path fill-rule="evenodd" clip-rule="evenodd" d="M23.3927 15.6494C23.3939 15.664 23.3918 15.6786 23.3866 15.6923C23.3814 15.7061 23.3731 15.7187 23.3623 15.7294C23.3516 15.7401 23.3385 15.7486 23.324 15.7545C23.3095 15.7603 23.2938 15.7633 23.278 15.7633C23.2621 15.7633 23.2464 15.7603 23.2319 15.7545C23.2174 15.7486 23.2043 15.7401 23.1936 15.7294C23.1828 15.7187 23.1745 15.7061 23.1693 15.6923C23.1641 15.6786 23.162 15.664 23.1632 15.6494C23.1653 15.6228 23.1784 15.5979 23.1997 15.5797C23.221 15.5615 23.2489 15.5514 23.278 15.5514C23.307 15.5514 23.335 15.5615 23.3562 15.5797C23.3775 15.5979 23.3906 15.6228 23.3927 15.6494Z" fill="white" stroke="black" stroke-width="0.00827291"/>
<path fill-rule="evenodd" clip-rule="evenodd" d="M23.3527 15.3894C23.3539 15.404 23.3518 15.4186 23.3466 15.4323C23.3413 15.4461 23.3331 15.4587 23.3223 15.4694C23.3115 15.4801 23.2985 15.4886 23.284 15.4945C23.2694 15.5003 23.2538 15.5033 23.2379 15.5033C23.2221 15.5033 23.2064 15.5003 23.1919 15.4945C23.1774 15.4886 23.1643 15.4801 23.1535 15.4694C23.1428 15.4587 23.1345 15.4461 23.1293 15.4323C23.124 15.4186 23.1219 15.404 23.1231 15.3894C23.1253 15.3628 23.1383 15.3378 23.1596 15.3197C23.1809 15.3015 23.2089 15.2914 23.2379 15.2914C23.267 15.2914 23.2949 15.3015 23.3162 15.3197C23.3375 15.3378 23.3505 15.3628 23.3527 15.3894Z" fill="white" stroke="black" stroke-width="0.00827291"/>
<path fill-rule="evenodd" clip-rule="evenodd" d="M23.3627 15.1094C23.3639 15.1239 23.3618 15.1385 23.3566 15.1523C23.3514 15.1661 23.3431 15.1787 23.3323 15.1894C23.3215 15.2001 23.3085 15.2086 23.294 15.2144C23.2794 15.2203 23.2638 15.2233 23.2479 15.2233C23.2321 15.2233 23.2164 15.2203 23.2019 15.2144C23.1874 15.2086 23.1743 15.2001 23.1635 15.1894C23.1528 15.1787 23.1445 15.1661 23.1393 15.1523C23.134 15.1385 23.1319 15.1239 23.1331 15.1094C23.1353 15.0827 23.1483 15.0578 23.1696 15.0396C23.1909 15.0215 23.2189 15.0114 23.2479 15.0114C23.277 15.0114 23.3049 15.0215 23.3262 15.0396C23.3475 15.0578 23.3605 15.0827 23.3627 15.1094Z" fill="white" stroke="black" stroke-width="0.00827291"/>
<path fill-rule="evenodd" clip-rule="evenodd" d="M23.4579 14.8394C23.4591 14.8539 23.457 14.8685 23.4518 14.8823C23.4466 14.896 23.4383 14.9087 23.4275 14.9194C23.4168 14.9301 23.4037 14.9386 23.3892 14.9444C23.3747 14.9502 23.359 14.9533 23.3431 14.9533C23.3273 14.9533 23.3116 14.9502 23.2971 14.9444C23.2826 14.9386 23.2695 14.9301 23.2587 14.9194C23.248 14.9087 23.2397 14.896 23.2345 14.8823C23.2293 14.8685 23.2272 14.8539 23.2284 14.8394C23.2305 14.8127 23.2436 14.7878 23.2649 14.7696C23.2861 14.7514 23.3141 14.7413 23.3431 14.7413C23.3722 14.7413 23.4001 14.7514 23.4214 14.7696C23.4427 14.7878 23.4558 14.8127 23.4579 14.8394Z" fill="white" stroke="black" stroke-width="0.00827291"/>
<path fill-rule="evenodd" clip-rule="evenodd" d="M23.6625 14.6243C23.6637 14.6388 23.6616 14.6534 23.6564 14.6672C23.6512 14.681 23.6429 14.6936 23.6321 14.7043C23.6213 14.715 23.6083 14.7235 23.5938 14.7293C23.5792 14.7352 23.5636 14.7382 23.5477 14.7382C23.5319 14.7382 23.5162 14.7352 23.5017 14.7293C23.4872 14.7235 23.4741 14.715 23.4633 14.7043C23.4526 14.6936 23.4443 14.681 23.4391 14.6672C23.4338 14.6534 23.4318 14.6388 23.4329 14.6243C23.4351 14.5976 23.4482 14.5727 23.4694 14.5545C23.4907 14.5363 23.5187 14.5262 23.5477 14.5262C23.5768 14.5262 23.6047 14.5363 23.626 14.5545C23.6473 14.5727 23.6603 14.5976 23.6625 14.6243Z" fill="white" stroke="black" stroke-width="0.00827291"/>
<path fill-rule="evenodd" clip-rule="evenodd" d="M23.9526 14.4844C23.9537 14.4989 23.9517 14.5135 23.9464 14.5273C23.9412 14.5411 23.9329 14.5537 23.9222 14.5644C23.9114 14.5751 23.8983 14.5836 23.8838 14.5894C23.8693 14.5953 23.8536 14.5983 23.8378 14.5983C23.8219 14.5983 23.8063 14.5953 23.7917 14.5894C23.7772 14.5836 23.7642 14.5751 23.7534 14.5644C23.7426 14.5537 23.7343 14.5411 23.7291 14.5273C23.7239 14.5135 23.7218 14.4989 23.723 14.4844C23.7252 14.4577 23.7382 14.4328 23.7595 14.4146C23.7808 14.3965 23.8087 14.3864 23.8378 14.3864C23.8668 14.3864 23.8948 14.3965 23.9161 14.4146C23.9373 14.4328 23.9504 14.4577 23.9526 14.4844Z" fill="white" stroke="black" stroke-width="0.00827291"/>
<path fill-rule="evenodd" clip-rule="evenodd" d="M24.2377 14.4644C24.2389 14.4789 24.2368 14.4935 24.2316 14.5073C24.2264 14.521 24.2181 14.5337 24.2073 14.5444C24.1965 14.5551 24.1835 14.5636 24.169 14.5694C24.1544 14.5752 24.1388 14.5783 24.1229 14.5783C24.1071 14.5783 24.0914 14.5752 24.0769 14.5694C24.0624 14.5636 24.0493 14.5551 24.0385 14.5444C24.0278 14.5337 24.0195 14.521 24.0143 14.5073C24.009 14.4935 24.0069 14.4789 24.0081 14.4644C24.0103 14.4377 24.0233 14.4128 24.0446 14.3946C24.0659 14.3764 24.0939 14.3663 24.1229 14.3663C24.152 14.3663 24.1799 14.3764 24.2012 14.3946C24.2225 14.4128 24.2355 14.4377 24.2377 14.4644Z" fill="white" stroke="black" stroke-width="0.00827291"/>
<path fill-rule="evenodd" clip-rule="evenodd" d="M24.5429 14.4692C24.5441 14.4838 24.542 14.4984 24.5368 14.5122C24.5315 14.5259 24.5233 14.5386 24.5125 14.5492C24.5017 14.5599 24.4887 14.5685 24.4741 14.5743C24.4596 14.5801 24.4439 14.5831 24.4281 14.5831C24.4123 14.5831 24.3966 14.5801 24.3821 14.5743C24.3675 14.5685 24.3545 14.5599 24.3437 14.5492C24.3329 14.5386 24.3247 14.5259 24.3194 14.5122C24.3142 14.4984 24.3121 14.4838 24.3133 14.4692C24.3155 14.4426 24.3285 14.4177 24.3498 14.3995C24.3711 14.3813 24.3991 14.3712 24.4281 14.3712C24.4571 14.3712 24.4851 14.3813 24.5064 14.3995C24.5277 14.4177 24.5407 14.4426 24.5429 14.4692Z" fill="white" stroke="black" stroke-width="0.00827291"/>
<path fill-rule="evenodd" clip-rule="evenodd" d="M24.8527 14.5193C24.8539 14.5338 24.8518 14.5484 24.8466 14.5622C24.8413 14.576 24.8331 14.5886 24.8223 14.5993C24.8115 14.61 24.7985 14.6185 24.784 14.6243C24.7694 14.6302 24.7538 14.6332 24.7379 14.6332C24.7221 14.6332 24.7064 14.6302 24.6919 14.6243C24.6774 14.6185 24.6643 14.61 24.6535 14.5993C24.6428 14.5886 24.6345 14.576 24.6293 14.5622C24.624 14.5484 24.6219 14.5338 24.6231 14.5193C24.6253 14.4926 24.6383 14.4677 24.6596 14.4495C24.6809 14.4314 24.7089 14.4213 24.7379 14.4213C24.767 14.4213 24.7949 14.4314 24.8162 14.4495C24.8375 14.4677 24.8505 14.4926 24.8527 14.5193Z" fill="white" stroke="black" stroke-width="0.00827291"/>
<path fill-rule="evenodd" clip-rule="evenodd" d="M25.1625 14.5542C25.1637 14.5687 25.1616 14.5834 25.1564 14.5971C25.1512 14.6109 25.1429 14.6235 25.1321 14.6342C25.1213 14.6449 25.1083 14.6534 25.0938 14.6593C25.0792 14.6651 25.0636 14.6681 25.0477 14.6681C25.0319 14.6681 25.0162 14.6651 25.0017 14.6593C24.9872 14.6534 24.9741 14.6449 24.9633 14.6342C24.9526 14.6235 24.9443 14.6109 24.9391 14.5971C24.9338 14.5834 24.9318 14.5687 24.9329 14.5542C24.9351 14.5275 24.9482 14.5026 24.9694 14.4845C24.9907 14.4663 25.0187 14.4562 25.0477 14.4562C25.0768 14.4562 25.1047 14.4663 25.126 14.4845C25.1473 14.5026 25.1603 14.5275 25.1625 14.5542Z" fill="white" stroke="black" stroke-width="0.00827291"/>
<path fill-rule="evenodd" clip-rule="evenodd" d="M25.4877 14.5994C25.4889 14.6139 25.4868 14.6285 25.4816 14.6423C25.4764 14.6561 25.4681 14.6687 25.4573 14.6794C25.4465 14.6901 25.4335 14.6986 25.419 14.7044C25.4044 14.7103 25.3888 14.7133 25.3729 14.7133C25.3571 14.7133 25.3414 14.7103 25.3269 14.7044C25.3124 14.6986 25.2993 14.6901 25.2885 14.6794C25.2778 14.6687 25.2695 14.6561 25.2643 14.6423C25.259 14.6285 25.2569 14.6139 25.2581 14.5994C25.2603 14.5727 25.2733 14.5478 25.2946 14.5296C25.3159 14.5114 25.3439 14.5013 25.3729 14.5013C25.402 14.5013 25.4299 14.5114 25.4512 14.5296C25.4725 14.5478 25.4855 14.5727 25.4877 14.5994Z" fill="white" stroke="black" stroke-width="0.00827291"/>
<path fill-rule="evenodd" clip-rule="evenodd" d="M25.7726 14.6743C25.7738 14.6889 25.7717 14.7035 25.7665 14.7172C25.7613 14.731 25.753 14.7436 25.7422 14.7543C25.7315 14.765 25.7184 14.7735 25.7039 14.7794C25.6894 14.7852 25.6737 14.7882 25.6578 14.7882C25.642 14.7882 25.6263 14.7852 25.6118 14.7794C25.5973 14.7735 25.5842 14.765 25.5734 14.7543C25.5627 14.7436 25.5544 14.731 25.5492 14.7172C25.5439 14.7035 25.5419 14.6889 25.543 14.6743C25.5452 14.6477 25.5583 14.6228 25.5795 14.6046C25.6008 14.5864 25.6288 14.5763 25.6578 14.5763C25.6869 14.5763 25.7148 14.5864 25.7361 14.6046C25.7574 14.6228 25.7705 14.6477 25.7726 14.6743Z" fill="white" stroke="black" stroke-width="0.00827291"/>
<path fill-rule="evenodd" clip-rule="evenodd" d="M23.7328 16.3543C23.734 16.3688 23.7319 16.3834 23.7267 16.3972C23.7215 16.4109 23.7132 16.4236 23.7024 16.4343C23.6917 16.4449 23.6786 16.4535 23.6641 16.4593C23.6496 16.4651 23.6339 16.4682 23.618 16.4682C23.6022 16.4682 23.5865 16.4651 23.572 16.4593C23.5575 16.4535 23.5444 16.4449 23.5337 16.4343C23.5229 16.4236 23.5146 16.4109 23.5094 16.3972C23.5042 16.3834 23.5021 16.3688 23.5033 16.3543C23.5054 16.3276 23.5185 16.3027 23.5398 16.2845C23.561 16.2663 23.589 16.2562 23.618 16.2562C23.6471 16.2562 23.675 16.2663 23.6963 16.2845C23.7176 16.3027 23.7307 16.3276 23.7328 16.3543Z" fill="white" stroke="black" stroke-width="0.00827291"/>
<path fill-rule="evenodd" clip-rule="evenodd" d="M23.8109 16.36C23.8109 16.36 23.3711 16.0504 23.3595 15.3057C23.353 14.8771 23.582 14.5675 24.1549 14.5675C24.9569 14.5675 26.1022 14.8836 26.1022 14.8836V14.989C26.1022 14.989 25.1858 14.6729 24.1543 14.6729C23.6964 14.6729 23.4669 14.9824 23.4669 15.2991C23.4669 15.8266 23.926 16.3605 23.926 16.3605V17.2041H23.8109V16.36Z" fill="#FFF100" stroke="black" stroke-width="0.00827291"/>
<path fill-rule="evenodd" clip-rule="evenodd" d="M24.6072 16.7504C24.6072 16.7504 24.6402 16.6701 24.76 16.6701C24.8415 16.6701 24.9126 16.7504 24.9126 16.8307V16.9915H24.9891V16.8307C24.9891 16.7504 25.0654 16.6701 25.1417 16.6701C25.2564 16.6701 25.2946 16.7504 25.2946 16.7504C25.2946 16.7504 25.2946 16.5093 25.1417 16.5093C25.0273 16.5093 24.9891 16.5896 24.9891 16.5896C24.9891 16.5896 25.0273 16.4692 25.0273 16.3485C25.0273 16.2279 24.951 16.1476 24.951 16.1476C24.951 16.163 24.8745 16.2281 24.8745 16.3485C24.8745 16.469 24.9126 16.5896 24.9126 16.5896C24.9126 16.5896 24.8745 16.5093 24.76 16.5093C24.6072 16.5093 24.6072 16.7504 24.6072 16.7504Z" fill="#FFF100" stroke="black" stroke-width="0.0066331"/>
<path fill-rule="evenodd" clip-rule="evenodd" d="M26.8972 16.7504C26.8972 16.7504 26.9302 16.6701 27.05 16.6701C27.1315 16.6701 27.2027 16.7504 27.2027 16.8307V16.9915H27.2792V16.8307C27.2792 16.7504 27.3555 16.6701 27.4318 16.6701C27.5465 16.6701 27.5846 16.7504 27.5846 16.7504C27.5846 16.7504 27.5846 16.5093 27.4318 16.5093C27.3173 16.5093 27.2792 16.5896 27.2792 16.5896C27.2792 16.5896 27.3173 16.4692 27.3173 16.3485C27.3173 16.2279 27.241 16.1476 27.241 16.1476C27.241 16.163 27.1645 16.2281 27.1645 16.3485C27.1645 16.469 27.2027 16.5896 27.2027 16.5896C27.2027 16.5896 27.1645 16.5093 27.05 16.5093C26.8972 16.5093 26.8972 16.7504 26.8972 16.7504Z" fill="#FFF100" stroke="black" stroke-width="0.0066331"/>
<path fill-rule="evenodd" clip-rule="evenodd" d="M23.811 17.8371V16.8876C23.811 16.8876 24.04 17.2043 24.384 17.2043C24.6653 17.2043 24.957 16.7822 24.957 16.7822C24.957 16.7822 25.2254 17.0989 25.53 17.0989C25.8016 17.0989 26.1023 16.6906 26.1023 16.6906C26.1023 16.6906 26.3817 17.0989 26.6753 17.0989C26.9695 17.0989 27.2482 16.7822 27.2482 16.7822C27.2482 16.7822 27.5477 17.2043 27.9357 17.2043C28.2791 17.2043 28.3942 16.8876 28.3942 16.8876V17.8371H23.811Z" fill="#FFF100" stroke="black" stroke-width="0.00827291"/>
<path fill-rule="evenodd" clip-rule="evenodd" d="M23.8071 17.8369V17.0988C23.8071 17.0988 24.4946 17.3089 24.4946 17.8369H23.8071Z" fill="#FFF100" stroke="black" stroke-width="0.00827291"/>
<path fill-rule="evenodd" clip-rule="evenodd" d="M28.3857 17.8369V17.0988C28.3857 17.0988 27.6983 17.3089 27.6983 17.8369H28.3857Z" fill="#FFF100" stroke="black" stroke-width="0.00827291"/>
<path fill-rule="evenodd" clip-rule="evenodd" d="M24.2695 17.8369C24.2695 17.3088 24.957 16.9755 24.957 16.9755C24.957 16.9755 25.6444 17.3088 25.6444 17.8369H24.2695Z" fill="#FFF100" stroke="black" stroke-width="0.00827291"/>
<path fill-rule="evenodd" clip-rule="evenodd" d="M26.5596 17.8369C26.5596 17.3088 27.247 16.9755 27.247 16.9755C27.247 16.9755 27.9345 17.3088 27.9345 17.8369H26.5596Z" fill="#FFF100" stroke="black" stroke-width="0.00827291"/>
<path fill-rule="evenodd" clip-rule="evenodd" d="M25.2996 17.8401C25.2996 17.3127 26.1021 16.8912 26.1021 16.8912C26.1021 16.8912 26.904 17.3127 26.904 17.8401H25.3002H25.2996Z" fill="#FFF100" stroke="black" stroke-width="0.00827291"/>
<path fill-rule="evenodd" clip-rule="evenodd" d="M28.5051 17.8371C28.2787 17.7317 27.4437 17.6263 26.099 17.6263C24.7543 17.6263 23.8611 17.7317 23.6341 17.8371C23.4078 17.9424 23.4078 18.1538 23.6341 18.2591C23.8605 18.3645 24.755 18.4699 26.099 18.4699C27.443 18.4699 28.2787 18.3645 28.5051 18.2591C28.7314 18.1538 28.7314 17.9424 28.5051 17.8371Z" fill="white" stroke="black" stroke-width="0.00822608"/>
<path fill-rule="evenodd" clip-rule="evenodd" d="M28.3941 18.2599C28.3941 18.4699 26.4841 18.4699 26.0991 18.4699C25.6841 18.4699 23.8091 18.5299 23.8091 18.2599C23.8091 18.0499 25.6991 18.0499 26.0991 18.0499C26.4991 18.0499 28.3941 18.0899 28.3941 18.2599Z" fill="#808080"/>
<path fill-rule="evenodd" clip-rule="evenodd" d="M24.0391 17.4999C24.0391 17.5699 23.9891 17.6299 23.9241 17.6299C23.8591 17.6299 23.8091 17.5699 23.8091 17.4999C23.8091 17.4299 23.8591 17.3749 23.9241 17.3749C23.9841 17.3749 24.0391 17.4349 24.0391 17.4999ZM28.3891 17.4999C28.3891 17.5699 28.3391 17.6299 28.2741 17.6299C28.2141 17.6299 28.1591 17.5699 28.1591 17.4999C28.1591 17.4299 28.2091 17.3749 28.2741 17.3749C28.3391 17.3749 28.3891 17.4349 28.3891 17.4999Z" fill="#CC0000"/>
<path fill-rule="evenodd" clip-rule="evenodd" d="M26.3289 17.4399C26.3289 17.5049 26.2239 17.5599 26.0989 17.5599C25.9789 17.5599 25.8689 17.5049 25.8689 17.4349C25.8689 17.3649 25.9689 17.3099 26.0989 17.3099C26.2289 17.3099 26.3289 17.3699 26.3289 17.4349V17.4399Z" fill="black"/>
<path fill-rule="evenodd" clip-rule="evenodd" d="M27.4291 17.4399C27.4291 17.5049 27.3491 17.5599 27.2541 17.5599C27.1591 17.5599 27.0841 17.5049 27.0841 17.4349C27.0841 17.3649 27.1641 17.3099 27.2541 17.3099C27.3441 17.3099 27.4291 17.3699 27.4291 17.4349V17.4399ZM25.0691 17.4399C25.0691 17.5049 24.9941 17.5599 24.8991 17.5599C24.8041 17.5599 24.7241 17.5049 24.7241 17.4349C24.7241 17.3649 24.7991 17.3099 24.8991 17.3099C24.9941 17.3099 25.0691 17.3699 25.0691 17.4349V17.4399Z" fill="#006300"/>
<path fill-rule="evenodd" clip-rule="evenodd" d="M25.642 16.7124C25.642 16.7124 25.7728 16.5321 25.9039 16.5321H26.0347V16.6522C26.0347 16.8332 25.8385 16.8937 25.8385 16.8937H26.3621C26.3621 16.8937 26.1656 16.8332 26.1656 16.6522V16.5321H26.2967C26.4275 16.5321 26.5583 16.7131 26.5583 16.7131V16.2303C26.5583 16.2303 26.4275 16.4113 26.2967 16.4113H26.1656V16.2905C26.1656 16.1099 26.3621 16.0497 26.3621 16.0497H25.8382C25.8382 16.0497 26.0344 16.1099 26.0344 16.2905V16.4113H25.9036C25.7724 16.4113 25.6416 16.2303 25.6416 16.2303V16.7127L25.642 16.7124Z" fill="#FFF100" stroke="black" stroke-width="0.00780004"/>
<path fill-rule="evenodd" clip-rule="evenodd" d="M23.8027 17.0996H23.9338C23.9338 17.0996 23.8354 17.0469 23.8354 16.8886V16.7835H23.9009C23.9665 16.7835 24.0321 16.9419 24.0321 16.9419V16.5195C24.0321 16.5195 23.9665 16.6779 23.9009 16.6779H23.8354V16.5722C23.8354 16.4141 23.9338 16.3615 23.9338 16.3615H23.8027V17.0996Z" fill="#FFF100" stroke="black" stroke-width="0.00773959"/>
<path fill-rule="evenodd" clip-rule="evenodd" d="M28.395 17.0996H28.264C28.264 17.0996 28.3623 17.0469 28.3623 16.8886V16.7835H28.2969C28.2313 16.7835 28.1657 16.9419 28.1657 16.9419V16.5195C28.1657 16.5195 28.2313 16.6779 28.2969 16.6779H28.3623V16.5722C28.3623 16.4141 28.264 16.3615 28.264 16.3615H28.395V17.0996Z" fill="#FFF100" stroke="black" stroke-width="0.00773959"/>
<path fill-rule="evenodd" clip-rule="evenodd" d="M26.2167 16.4661C26.2167 16.494 26.2047 16.5208 26.1832 16.5406C26.1617 16.5604 26.1326 16.5715 26.1023 16.5715C26.0719 16.5715 26.0428 16.5604 26.0213 16.5406C25.9999 16.5208 25.9878 16.494 25.9878 16.4661C25.9878 16.4381 25.9999 16.4113 26.0213 16.3916C26.0428 16.3718 26.0719 16.3607 26.1023 16.3607C26.1326 16.3607 26.1617 16.3718 26.1832 16.3916C26.2047 16.4113 26.2167 16.4381 26.2167 16.4661Z" fill="white" stroke="black" stroke-width="0.00827291"/>
<path fill-rule="evenodd" clip-rule="evenodd" d="M25.642 14.4973C25.642 14.4973 25.7728 14.317 25.9039 14.317H26.0347V14.4371C26.0347 14.6181 25.8385 14.6786 25.8385 14.6786H26.3621C26.3621 14.6786 26.1656 14.6181 26.1656 14.4371V14.317H26.2967C26.4275 14.317 26.5583 14.498 26.5583 14.498V14.0152C26.5583 14.0152 26.4275 14.1962 26.2967 14.1962H26.1656V14.0755C26.1656 13.8948 26.3621 13.8346 26.3621 13.8346H25.8382C25.8382 13.8346 26.0344 13.8948 26.0344 14.0755V14.1962H25.9036C25.7724 14.1962 25.6416 14.0152 25.6416 14.0152V14.4976L25.642 14.4973Z" fill="#FFF100" stroke="black" stroke-width="0.00780004"/>
<path fill-rule="evenodd" clip-rule="evenodd" d="M26.2267 14.271C26.2267 14.299 26.2147 14.3258 26.1932 14.3455C26.1717 14.3653 26.1426 14.3764 26.1123 14.3764C26.0819 14.3764 26.0528 14.3653 26.0313 14.3455C26.0099 14.3258 25.9978 14.299 25.9978 14.271C25.9978 14.2431 26.0099 14.2163 26.0313 14.1965C26.0528 14.1768 26.0819 14.1656 26.1123 14.1656C26.1426 14.1656 26.1717 14.1768 26.1932 14.1965C26.2147 14.2163 26.2267 14.2431 26.2267 14.271Z" fill="white" stroke="black" stroke-width="0.00827291"/>
<path fill-rule="evenodd" clip-rule="evenodd" d="M25.8734 14.6771H26.332V14.9938H25.8728L25.8734 14.6771Z" fill="#FFF100" stroke="black" stroke-width="0.00827291"/>
<path fill-rule="evenodd" clip-rule="evenodd" d="M25.8734 14.8427H26.332V16.0481H25.8728L25.8734 14.8427Z" fill="#FFF100" stroke="black" stroke-width="0.00827291"/>
<path fill-rule="evenodd" clip-rule="evenodd" d="M26.2128 15.8294C26.214 15.8439 26.2119 15.8585 26.2067 15.8723C26.2014 15.886 26.1932 15.8987 26.1824 15.9094C26.1716 15.92 26.1586 15.9286 26.1441 15.9344C26.1295 15.9402 26.1139 15.9433 26.098 15.9433C26.0822 15.9433 26.0665 15.9402 26.052 15.9344C26.0375 15.9286 26.0244 15.92 26.0136 15.9094C26.0029 15.8987 25.9946 15.886 25.9894 15.8723C25.9841 15.8585 25.982 15.8439 25.9832 15.8294C25.9854 15.8027 25.9984 15.7778 26.0197 15.7596C26.041 15.7414 26.069 15.7313 26.098 15.7313C26.1271 15.7313 26.155 15.7414 26.1763 15.7596C26.1976 15.7778 26.2106 15.8027 26.2128 15.8294Z" fill="white" stroke="black" stroke-width="0.00827291"/>
<path fill-rule="evenodd" clip-rule="evenodd" d="M26.2128 15.5593C26.214 15.5739 26.2119 15.5885 26.2067 15.6023C26.2014 15.616 26.1932 15.6286 26.1824 15.6393C26.1716 15.65 26.1586 15.6586 26.1441 15.6644C26.1295 15.6702 26.1139 15.6732 26.098 15.6732C26.0822 15.6732 26.0665 15.6702 26.052 15.6644C26.0375 15.6586 26.0244 15.65 26.0136 15.6393C26.0029 15.6286 25.9946 15.616 25.9894 15.6023C25.9841 15.5885 25.982 15.5739 25.9832 15.5593C25.9854 15.5327 25.9984 15.5078 26.0197 15.4896C26.041 15.4714 26.069 15.4613 26.098 15.4613C26.1271 15.4613 26.155 15.4714 26.1763 15.4896C26.1976 15.5078 26.2106 15.5327 26.2128 15.5593Z" fill="white" stroke="black" stroke-width="0.00827291"/>
<path fill-rule="evenodd" clip-rule="evenodd" d="M26.2128 15.3093C26.214 15.3239 26.2119 15.3385 26.2067 15.3523C26.2014 15.366 26.1932 15.3786 26.1824 15.3893C26.1716 15.4 26.1586 15.4086 26.1441 15.4144C26.1295 15.4202 26.1139 15.4232 26.098 15.4232C26.0822 15.4232 26.0665 15.4202 26.052 15.4144C26.0375 15.4086 26.0244 15.4 26.0136 15.3893C26.0029 15.3786 25.9946 15.366 25.9894 15.3523C25.9841 15.3385 25.982 15.3239 25.9832 15.3093C25.9854 15.2827 25.9984 15.2578 26.0197 15.2396C26.041 15.2214 26.069 15.2113 26.098 15.2113C26.1271 15.2113 26.155 15.2214 26.1763 15.2396C26.1976 15.2578 26.2106 15.2827 26.2128 15.3093Z" fill="white" stroke="black" stroke-width="0.00827291"/>
<path fill-rule="evenodd" clip-rule="evenodd" d="M26.2128 15.0442C26.214 15.0587 26.2119 15.0733 26.2067 15.0871C26.2014 15.1009 26.1932 15.1135 26.1824 15.1242C26.1716 15.1349 26.1586 15.1434 26.1441 15.1493C26.1295 15.1551 26.1139 15.1581 26.098 15.1581C26.0822 15.1581 26.0665 15.1551 26.052 15.1493C26.0375 15.1434 26.0244 15.1349 26.0136 15.1242C26.0029 15.1135 25.9946 15.1009 25.9894 15.0871C25.9841 15.0733 25.982 15.0587 25.9832 15.0442C25.9854 15.0175 25.9984 14.9926 26.0197 14.9744C26.041 14.9563 26.069 14.9462 26.098 14.9462C26.1271 14.9462 26.155 14.9563 26.1763 14.9744C26.1976 14.9926 26.2106 15.0175 26.2128 15.0442Z" fill="white" stroke="black" stroke-width="0.00827291"/>
<path fill-rule="evenodd" clip-rule="evenodd" d="M26.3437 17.84C26.3437 17.89 26.2387 17.925 26.1037 17.925C25.9687 17.925 25.8787 17.89 25.8787 17.84C25.8787 17.79 25.9787 17.755 26.1087 17.755C26.2387 17.755 26.3437 17.795 26.3437 17.84ZM28.4487 18.05C28.4337 18.085 28.3187 18.09 28.1937 18.05C28.0637 18.025 27.9737 17.98 27.9837 17.95C27.9987 17.91 28.1137 17.91 28.2387 17.94C28.3687 17.97 28.4587 18.015 28.4487 18.05ZM27.5637 17.91C27.5637 17.95 27.4487 17.975 27.3137 17.97C27.1887 17.96 27.0837 17.92 27.0887 17.87C27.0937 17.83 27.2087 17.81 27.3387 17.82C27.4687 17.825 27.5737 17.865 27.5637 17.91ZM23.6887 18.05C23.6987 18.085 23.8137 18.09 23.9387 18.05C24.0687 18.025 24.1637 17.98 24.1487 17.95C24.1337 17.91 24.0237 17.91 23.8987 17.94C23.7687 17.97 23.6787 18.015 23.6887 18.05ZM24.6137 17.89C24.6187 17.93 24.7337 17.955 24.8637 17.945C24.9937 17.935 25.0987 17.895 25.0887 17.85C25.0887 17.815 24.9737 17.785 24.8387 17.795C24.7137 17.805 24.6087 17.845 24.6137 17.89Z" fill="black"/>
<path d="M0 0H16V12H0V0Z" fill="#012169"/>
<path d="M1.875 0L7.975 4.525L14.05 0H16V1.55L10 6.025L16 10.475V12H14L8 7.525L2.025 12H0V10.5L5.975 6.05L0 1.6V0H1.875Z" fill="white"/>
<path d="M10.6 7.025L16 11V12L9.225 7.025H10.6ZM6 7.525L6.15 8.4L1.35 12H0L6 7.525ZM16 0V0.075L9.775 4.775L9.825 3.675L14.75 0H16ZM0 0L5.975 4.4H4.475L0 1.05V0Z" fill="#C8102E"/>
<path d="M6.025 0V12H10.025V0H6.025ZM0 4V8H16V4H0Z" fill="white"/>
<path d="M0 4.825V7.225H16V4.825H0ZM6.825 0V12H9.225V0H6.825Z" fill="#C8102E"/>
</g>
<defs>
<clipPath id="clip0_11930_67871">
<rect width="36" height="24" rx="2" fill="white"/>
</clipPath>
</defs>
</svg>
