<svg width="36" height="24" viewBox="0 0 36 24" fill="none" xmlns="http://www.w3.org/2000/svg">
<g clip-path="url(#clip0_11930_67859)">
<rect width="36" height="24" rx="2" fill="#108753"/>
<path fill-rule="evenodd" clip-rule="evenodd" d="M0 9H36V11H0V9Z" fill="#FFD600"/>
<path fill-rule="evenodd" clip-rule="evenodd" d="M14.4895 0H16.769V24.064H14.4942L14.4895 0Z" fill="#FFD600"/>
<path fill-rule="evenodd" clip-rule="evenodd" d="M16.689 0H18.9638V24.064H16.689V0Z" fill="#000001"/>
<path fill-rule="evenodd" clip-rule="evenodd" d="M0 11H36V13H0V11Z" fill="#000001"/>
<path fill-rule="evenodd" clip-rule="evenodd" d="M0 13H36V15H0V13Z" fill="white"/>
<path fill-rule="evenodd" clip-rule="evenodd" d="M18.9639 0H21.2434V24.064H18.9639V0Z" fill="white"/>
<path d="M11.6602 12.0507C11.6602 15.6198 14.5409 18.5132 18.0945 18.5132C21.6481 18.5132 24.5288 15.6198 24.5288 12.0507C24.5288 8.48154 21.6481 5.58818 18.0945 5.58818C14.5409 5.58818 11.6602 8.48154 11.6602 12.0507Z" fill="#E72910"/>
<path fill-rule="evenodd" clip-rule="evenodd" d="M17.7577 6.43901L18.0209 5.68701L18.2606 6.42491C18.2606 6.42491 19.0643 6.44841 19.0643 6.43431C19.0643 6.42021 18.4298 6.91841 18.4298 6.91841L18.7165 7.74561C18.7071 7.72211 18.0209 7.23331 18.0209 7.23331C18.0209 7.23331 17.3253 7.72211 17.3394 7.72211C17.3535 7.72211 17.6026 6.92311 17.6026 6.92311L16.9775 6.44841L17.7577 6.43431V6.43901Z" fill="black"/>
<path fill-rule="evenodd" clip-rule="evenodd" d="M17.7953 6.47202L18.0162 5.82812L18.223 6.46733C18.223 6.46733 18.9233 6.48613 18.9233 6.47673C18.9233 6.46733 18.3734 6.89973 18.3734 6.89973L18.6178 7.61413C18.6084 7.59063 18.0162 7.17233 18.0162 7.17233C18.0162 7.17233 17.4146 7.59533 17.424 7.59533C17.4334 7.59533 17.659 6.89973 17.659 6.89973L17.1138 6.48613L17.7906 6.47673L17.7953 6.47202Z" fill="#FFE700"/>
<path fill-rule="evenodd" clip-rule="evenodd" d="M17.8893 6.5801L18.0209 6.2041L18.1431 6.5754C18.1431 6.5754 18.5426 6.5848 18.5426 6.5754C18.5426 6.566 18.2277 6.8198 18.2277 6.8198L18.3687 7.2334C18.364 7.2193 18.0209 6.9796 18.0209 6.9796L17.6825 7.224C17.6919 7.224 17.8141 6.8245 17.8141 6.8245L17.5039 6.5895L17.8893 6.5801Z" fill="#108C00"/>
<path fill-rule="evenodd" clip-rule="evenodd" d="M22.7597 9.95464L23.0229 9.20264L23.2579 9.94054C23.2579 9.94054 24.0663 9.96874 24.0663 9.95464C24.0663 9.94054 23.4318 10.4387 23.4318 10.4387L23.7138 11.2659C23.7044 11.2424 23.0229 10.7536 23.0229 10.7536C23.0229 10.7536 22.3273 11.2424 22.3414 11.2424C22.3555 11.2424 22.6046 10.4434 22.6046 10.4434L21.9795 9.96404L22.7597 9.94994V9.95464Z" fill="black"/>
<path fill-rule="evenodd" clip-rule="evenodd" d="M22.7927 9.99217L23.023 9.33887L23.2298 9.98277C23.2298 9.98277 23.9254 10.0016 23.9254 9.99217C23.9254 9.98277 23.3755 10.4152 23.3755 10.4152L23.6246 11.1249C23.6152 11.1061 23.023 10.6831 23.023 10.6831C23.023 10.6831 22.4214 11.1061 22.4308 11.1061C22.4402 11.1061 22.6611 10.4105 22.6611 10.4105L22.1206 10.0016L22.7927 9.99217Z" fill="#FFE700"/>
<path fill-rule="evenodd" clip-rule="evenodd" d="M22.8911 10.1004L23.0227 9.72437L23.1402 10.091L23.5444 10.1004L23.2248 10.3401C23.2248 10.3401 23.3752 10.7631 23.3658 10.7537C23.3658 10.7396 23.0227 10.4999 23.0227 10.4999L22.6796 10.7396L22.8112 10.3401L22.501 10.1051L22.8911 10.1004Z" fill="#108C00"/>
<path fill-rule="evenodd" clip-rule="evenodd" d="M21.2988 15.5381L21.562 14.7861L21.797 15.5287C21.797 15.5287 22.6054 15.5522 22.6054 15.5428C22.6054 15.5334 21.9709 16.0269 21.9709 16.0269L22.2529 16.8494C22.2435 16.8259 21.562 16.3418 21.562 16.3418C21.562 16.3418 20.8664 16.8259 20.8758 16.8259C20.8852 16.8259 21.1437 16.0269 21.1437 16.0269L20.5186 15.5569L21.2988 15.5381Z" fill="black"/>
<path fill-rule="evenodd" clip-rule="evenodd" d="M21.3318 15.5758L21.5621 14.9272L21.7689 15.5664C21.7689 15.5664 22.4645 15.5899 22.4645 15.5758C22.4645 15.5617 21.9146 15.9988 21.9146 15.9988L22.1637 16.7132C22.1543 16.6897 21.5621 16.2714 21.5621 16.2714C21.5621 16.2714 20.9605 16.6944 20.9699 16.6944C20.9793 16.6944 21.2002 15.9988 21.2002 15.9988L20.6597 15.5899L21.3318 15.5758Z" fill="#FFE700"/>
<path fill-rule="evenodd" clip-rule="evenodd" d="M21.4301 15.6839L21.5617 15.3079L21.6792 15.6792C21.6792 15.6792 22.0834 15.6933 22.0834 15.6839C22.0834 15.6745 21.7638 15.9283 21.7638 15.9283L21.9048 16.3372C21.9048 16.3278 21.5617 16.0834 21.5617 16.0834L21.2186 16.3278L21.3502 15.9283L21.04 15.6933L21.4301 15.6839Z" fill="#108C00"/>
<path fill-rule="evenodd" clip-rule="evenodd" d="M14.3129 15.5381L14.5761 14.7861L14.8111 15.5287C14.8111 15.5287 15.6148 15.5522 15.6148 15.5428C15.6148 15.5334 14.9803 16.0269 14.9803 16.0269L15.2717 16.8494C15.2576 16.8259 14.5761 16.3418 14.5761 16.3418C14.5761 16.3418 13.8805 16.8259 13.8899 16.8259C13.8993 16.8259 14.1578 16.0269 14.1578 16.0269L13.5327 15.5569L14.3129 15.5381Z" fill="black"/>
<path fill-rule="evenodd" clip-rule="evenodd" d="M14.3506 15.5758L14.5762 14.9272L14.783 15.5664C14.783 15.5664 15.4786 15.5899 15.4786 15.5758C15.4786 15.5617 14.9287 15.9988 14.9287 15.9988L15.1778 16.7132C15.1684 16.6897 14.5762 16.2714 14.5762 16.2714C14.5762 16.2714 13.9746 16.6944 13.984 16.6944C13.9934 16.6944 14.2143 15.9988 14.2143 15.9988L13.6738 15.5899L14.3506 15.5758Z" fill="#FFE700"/>
<path fill-rule="evenodd" clip-rule="evenodd" d="M14.4443 15.6839L14.5759 15.3079L14.6934 15.6792C14.6934 15.6792 15.0976 15.6933 15.0976 15.6839C15.0976 15.6745 14.778 15.9283 14.778 15.9283L14.919 16.3372C14.919 16.3278 14.5759 16.0834 14.5759 16.0834L14.2328 16.3278L14.3644 15.9283L14.0542 15.6933L14.4443 15.6839Z" fill="#108C00"/>
<path fill-rule="evenodd" clip-rule="evenodd" d="M13.0297 9.80888L13.2929 9.05688L13.5326 9.79949C13.5326 9.79949 14.3363 9.82298 14.3363 9.80888C14.3363 9.79478 13.7018 10.2977 13.7018 10.2977L13.9885 11.1202C13.9744 11.0967 13.2929 10.6126 13.2929 10.6126C13.2929 10.6126 12.5973 11.092 12.6114 11.092C12.6255 11.092 12.8746 10.293 12.8746 10.293L12.2495 9.82298L13.0297 9.80888Z" fill="black"/>
<path fill-rule="evenodd" clip-rule="evenodd" d="M13.0674 9.8466L13.293 9.198L13.5045 9.8372C13.5045 9.8372 14.1954 9.8607 14.1954 9.8466C14.1954 9.8325 13.6455 10.2696 13.6455 10.2696L13.8946 10.984C13.8852 10.9605 13.293 10.5422 13.293 10.5422C13.293 10.5422 12.6914 10.9652 12.7055 10.9652C12.7196 10.9652 12.9311 10.2696 12.9311 10.2696L12.3906 9.8607L13.0674 9.8466Z" fill="#FFE700"/>
<path fill-rule="evenodd" clip-rule="evenodd" d="M13.1613 9.95461L13.2929 9.57861L13.4151 9.94991L13.8146 9.95461L13.4997 10.199L13.6407 10.6079C13.636 10.5985 13.2929 10.3541 13.2929 10.3541L12.9545 10.5985C12.9639 10.5985 13.0861 10.199 13.0861 10.199L12.7759 9.96401L13.1613 9.95461Z" fill="#108C00"/>
<path fill-rule="evenodd" clip-rule="evenodd" d="M21.2358 8.18258L20.9726 8.93458L20.7376 8.19668C20.7376 8.19668 19.9292 8.17318 19.9292 8.18258C19.9292 8.19198 20.5637 7.69848 20.5637 7.69848L20.2817 6.87598C20.2911 6.89948 20.9726 7.38358 20.9726 7.38358C20.9726 7.38358 21.6682 6.89948 21.6541 6.89948C21.64 6.89948 21.3909 7.69848 21.3909 7.69848L22.016 8.16848L21.2358 8.18258Z" fill="black"/>
<path fill-rule="evenodd" clip-rule="evenodd" d="M21.203 8.14491C21.203 8.15901 20.968 8.79821 20.968 8.79821L20.7659 8.15901C20.7659 8.15901 20.0703 8.13551 20.0703 8.14491C20.0703 8.15431 20.6202 7.72661 20.6202 7.72661L20.3711 7.01221C20.3805 7.03571 20.9727 7.45401 20.9727 7.45401C20.9727 7.45401 21.5743 7.03101 21.5649 7.03101C21.5555 7.03101 21.3346 7.72661 21.3346 7.72661L21.8751 8.13551L21.203 8.14491Z" fill="#FFE700"/>
<path fill-rule="evenodd" clip-rule="evenodd" d="M21.104 8.03678L20.9724 8.41278L20.8549 8.04618C20.8549 8.04618 20.4507 8.03208 20.4507 8.04148C20.4507 8.05088 20.7703 7.79708 20.7703 7.79708L20.6293 7.38818C20.6293 7.39758 20.9724 7.64198 20.9724 7.64198L21.3155 7.39758C21.3061 7.39758 21.1792 7.79708 21.1792 7.79708L21.4941 8.03208L21.104 8.04148V8.03678Z" fill="#108C00"/>
<path fill-rule="evenodd" clip-rule="evenodd" d="M23.2421 13.6441L22.9789 14.3961L22.7439 13.6535C22.7439 13.6535 21.9355 13.63 21.9355 13.6441C21.9355 13.6582 22.57 13.16 22.57 13.16L22.288 12.3328C22.2974 12.3563 22.9789 12.8404 22.9789 12.8404C22.9789 12.8404 23.6745 12.3563 23.6604 12.3563C23.6463 12.3563 23.3972 13.1553 23.3972 13.1553L24.027 13.63L23.2421 13.6441Z" fill="black"/>
<path fill-rule="evenodd" clip-rule="evenodd" d="M23.2094 13.6064L22.9791 14.255L22.7723 13.6158C22.7723 13.6158 22.0767 13.597 22.0767 13.6064C22.0767 13.6158 22.6266 13.1834 22.6266 13.1834L22.3775 12.469C22.3869 12.4925 22.9791 12.9108 22.9791 12.9108C22.9791 12.9108 23.5807 12.4878 23.5713 12.4878C23.5619 12.4878 23.341 13.1834 23.341 13.1834L23.8815 13.597L23.2094 13.6064Z" fill="#FFE700"/>
<path fill-rule="evenodd" clip-rule="evenodd" d="M23.1106 13.4983L22.979 13.8743L22.8615 13.503C22.8615 13.503 22.4573 13.4936 22.4573 13.503C22.4573 13.5124 22.7769 13.2586 22.7769 13.2586L22.6359 12.845C22.6359 12.8591 22.979 13.0988 22.979 13.0988L23.3221 12.8544C23.3127 12.8544 23.1858 13.2586 23.1858 13.2586L23.5007 13.4936L23.1106 13.4983Z" fill="#108C00"/>
<path fill-rule="evenodd" clip-rule="evenodd" d="M18.2719 17.6392L18.0087 18.3912L17.7737 17.6486C17.7737 17.6486 16.9653 17.6251 16.9653 17.6345C16.9653 17.6439 17.5998 17.1504 17.5998 17.1504L17.3178 16.3279C17.3272 16.3514 18.0087 16.8355 18.0087 16.8355C18.0087 16.8355 18.7043 16.3514 18.6902 16.3514C18.6761 16.3514 18.427 17.1504 18.427 17.1504L19.0521 17.6251L18.2719 17.6392Z" fill="black"/>
<path fill-rule="evenodd" clip-rule="evenodd" d="M18.2391 17.5968L18.0088 18.2548L17.802 17.6109C17.802 17.6109 17.1064 17.5874 17.1064 17.6015C17.1064 17.6156 17.6563 17.1785 17.6563 17.1785L17.4072 16.4641C17.4166 16.4876 18.0088 16.9059 18.0088 16.9059C18.0088 16.9059 18.6104 16.4829 18.601 16.4829C18.5916 16.4829 18.3707 17.1785 18.3707 17.1785L18.9112 17.5874L18.2391 17.6015V17.5968Z" fill="#FFE700"/>
<path fill-rule="evenodd" clip-rule="evenodd" d="M18.1404 17.4934L18.0088 17.8694L17.8913 17.4981C17.8913 17.4981 17.4871 17.484 17.4871 17.4934C17.4871 17.5028 17.8067 17.249 17.8067 17.249L17.6657 16.8401C17.6657 16.8495 18.0088 17.0939 18.0088 17.0939L18.3519 16.8495L18.2203 17.249L18.5305 17.484L18.1404 17.4934Z" fill="#108C00"/>
<path fill-rule="evenodd" clip-rule="evenodd" d="M13.5955 13.6441L13.3276 14.3961L13.0926 13.6535C13.0926 13.6535 12.2842 13.63 12.2842 13.6441C12.2842 13.6582 12.9187 13.16 12.9187 13.16L12.6367 12.3328C12.6461 12.3563 13.3276 12.8404 13.3276 12.8404L14.0185 12.361L13.7506 13.16L14.3757 13.6347L13.5955 13.6488V13.6441Z" fill="black"/>
<path fill-rule="evenodd" clip-rule="evenodd" d="M13.558 13.6064L13.3277 14.255L13.1209 13.6158C13.1209 13.6158 12.4253 13.597 12.4253 13.6064C12.4253 13.6158 12.9752 13.1834 12.9752 13.1834L12.7261 12.469C12.7355 12.4925 13.3277 12.9108 13.3277 12.9108C13.3277 12.9108 13.9293 12.4878 13.9199 12.4878C13.9105 12.4878 13.6896 13.1834 13.6896 13.1834L14.2301 13.597L13.558 13.6064Z" fill="#FFE700"/>
<path fill-rule="evenodd" clip-rule="evenodd" d="M13.459 13.4983L13.3274 13.8743L13.2099 13.503C13.2099 13.503 12.8057 13.4936 12.8057 13.503C12.8057 13.5124 13.1253 13.2586 13.1253 13.2586L12.9843 12.845C12.9843 12.8591 13.3274 13.0988 13.3274 13.0988L13.6705 12.8544L13.5389 13.2586L13.8491 13.4936L13.459 13.4983Z" fill="#108C00"/>
<path fill-rule="evenodd" clip-rule="evenodd" d="M15.3232 8.26265L15.06 9.01465L14.8156 8.27675C14.8156 8.27675 14.0166 8.25325 14.0166 8.26265C14.0166 8.27205 14.6511 7.77855 14.6511 7.77855L14.3644 6.95605C14.3738 6.97955 15.0553 7.46365 15.0553 7.46365C15.0553 7.46365 15.7509 6.97955 15.7415 6.97955C15.7321 6.97955 15.4783 7.77855 15.4783 7.77855L16.0987 8.24855L15.3232 8.26265Z" fill="black"/>
<path fill-rule="evenodd" clip-rule="evenodd" d="M15.2855 8.22499L15.0552 8.88299L14.8484 8.23909C14.8484 8.23909 14.1528 8.21559 14.1528 8.22969C14.1528 8.24379 14.7027 7.80669 14.7027 7.80669L14.4536 7.09229C14.463 7.11579 15.0552 7.53409 15.0552 7.53409C15.0552 7.53409 15.6568 7.11109 15.6474 7.11109C15.638 7.11109 15.4218 7.80669 15.4218 7.80669L15.9576 8.21559L15.2855 8.22969V8.22499Z" fill="#FFE700"/>
<path fill-rule="evenodd" clip-rule="evenodd" d="M15.1869 8.12156L15.0553 8.49756L14.9378 8.12626C14.9378 8.12626 14.5383 8.11216 14.5383 8.12156C14.5383 8.13096 14.8532 7.87716 14.8532 7.87716L14.7122 7.46826C14.7122 7.47766 15.0553 7.72206 15.0553 7.72206L15.3984 7.47766L15.2668 7.87716L15.577 8.11216L15.1869 8.12156Z" fill="#108C00"/>
<path d="M18.4835 15.0914C18.6697 15.0681 18.8207 14.3016 18.8207 13.3793C18.8207 12.457 18.6697 11.7283 18.4835 11.7515C18.2972 11.7748 18.1462 12.5414 18.1462 13.4636C18.1462 14.3859 18.2972 15.1147 18.4835 15.0914Z" fill="#009200" stroke="black" stroke-width="0.0246329"/>
<path d="M18.9148 15.0667C19.1143 15.0417 19.2761 14.2739 19.2761 13.3516C19.2761 12.4293 19.1143 11.7019 18.9148 11.7268C18.7152 11.7518 18.5535 12.5196 18.5535 13.4419C18.5535 14.3642 18.7152 15.0916 18.9148 15.0667Z" fill="#009200" stroke="black" stroke-width="0.0254974"/>
<path d="M18.7436 15.3052C18.9033 15.2853 19.0327 14.4467 19.0327 13.4321C19.0327 12.4176 18.9033 11.6114 18.7436 11.6313C18.584 11.6513 18.4546 12.4899 18.4546 13.5044C18.4546 14.5189 18.584 15.3252 18.7436 15.3052Z" fill="#009200" stroke="black" stroke-width="0.0239187"/>
<path fill-rule="evenodd" clip-rule="evenodd" d="M16.7627 13.822C17.056 13.8073 16.9289 13.6607 17.0755 13.5776C17.2222 13.4994 17.4324 13.5483 17.4959 13.646C17.5594 13.7438 17.5106 13.8415 17.5937 13.8415C17.6768 13.8415 19.891 13.7193 19.9692 13.7976C20.0474 13.8807 20.067 14.042 19.9839 14.1055C19.9057 14.1739 17.1049 14.2521 17.0071 14.1837C16.9093 14.1153 16.7627 13.8415 16.7627 13.822Z" fill="#A95600" stroke="black" stroke-width="0.02444"/>
<path fill-rule="evenodd" clip-rule="evenodd" d="M18.2947 14.4011C18.2947 14.5967 18.629 14.537 18.6378 14.7003C18.6327 14.8733 18.0755 14.7174 18.0615 14.4011C18.0755 14.0844 18.6114 13.9221 18.6239 14.103C18.6327 14.2525 18.2939 14.2056 18.2939 14.4011H18.2947Z" fill="#FFFF00" stroke="black" stroke-width="0.0233476"/>
<path fill-rule="evenodd" clip-rule="evenodd" d="M18.4902 14.406C18.4902 14.6015 18.8246 14.5419 18.8334 14.7052C18.8282 14.8782 18.271 14.7223 18.2571 14.406C18.271 14.0893 18.807 13.927 18.8194 14.1079C18.8282 14.2574 18.4895 14.2105 18.4895 14.406H18.4902Z" fill="#FFFF00" stroke="black" stroke-width="0.0233476"/>
<path fill-rule="evenodd" clip-rule="evenodd" d="M18.7004 14.3963C18.7004 14.5918 19.0348 14.5321 19.0436 14.6954C19.0384 14.8684 18.4812 14.7125 18.4673 14.3963C18.4812 14.0795 19.0172 13.9172 19.0296 14.0981C19.0384 14.2477 18.6997 14.2007 18.6997 14.3963H18.7004Z" fill="#FFFF00" stroke="black" stroke-width="0.0233476"/>
<path fill-rule="evenodd" clip-rule="evenodd" d="M18.8958 14.3963C18.8958 14.5918 19.2301 14.5321 19.2389 14.6954C19.2338 14.8684 18.6765 14.7125 18.6626 14.3963C18.6765 14.0795 19.2125 13.9172 19.225 14.0981C19.2338 14.2477 18.895 14.2007 18.895 14.3963H18.8958Z" fill="#FFFF00" stroke="black" stroke-width="0.0233476"/>
<path d="M19.8371 14.9909C19.941 14.9928 20.0267 14.9087 20.0286 14.8032C20.0304 14.6976 19.9476 14.6105 19.8437 14.6086C19.7398 14.6068 19.654 14.6908 19.6522 14.7963C19.6504 14.9019 19.7331 14.989 19.8371 14.9909Z" fill="#A95600" stroke="black" stroke-width="0.021994"/>
<path d="M18.6607 14.8242C18.7557 14.8145 18.8156 14.6388 18.7946 14.4317C18.7736 14.2245 18.6795 14.0644 18.5846 14.0741C18.4896 14.0837 18.4297 14.2595 18.4507 14.4666C18.4717 14.6737 18.5658 14.8338 18.6607 14.8242Z" fill="#009200" stroke="black" stroke-width="0.0285017"/>
<path d="M18.3734 14.7992C18.4684 14.7896 18.5283 14.6139 18.5072 14.4067C18.4862 14.1996 18.3922 14.0395 18.2972 14.0492C18.2022 14.0588 18.1423 14.2346 18.1633 14.4417C18.1844 14.6488 18.2784 14.8089 18.3734 14.7992Z" fill="#009200" stroke="black" stroke-width="0.0285017"/>
<path d="M18.1688 14.4318C18.2638 14.4222 18.3237 14.2464 18.3027 14.0393C18.2816 13.8322 18.1876 13.6721 18.0926 13.6818C17.9976 13.6914 17.9377 13.8671 17.9587 14.0743C17.9798 14.2814 18.0738 14.4415 18.1688 14.4318Z" fill="#009200" stroke="black" stroke-width="0.0285017"/>
<path d="M18.3797 14.365C18.4691 14.3559 18.5229 14.1649 18.4999 13.9383C18.4769 13.7118 18.3857 13.5355 18.2964 13.5446C18.207 13.5537 18.1532 13.7447 18.1762 13.9712C18.1992 14.1978 18.2903 14.3741 18.3797 14.365Z" fill="#009200" stroke="black" stroke-width="0.0289178"/>
<path d="M18.7826 14.4133C18.872 14.4042 18.9269 14.2237 18.9052 14.0101C18.8835 13.7965 18.7935 13.6307 18.7041 13.6398C18.6147 13.6489 18.5598 13.8294 18.5815 14.043C18.6032 14.2566 18.6933 14.4224 18.7826 14.4133Z" fill="#009200" stroke="black" stroke-width="0.0280794"/>
<path d="M18.5624 14.2785C18.6518 14.2695 18.7067 14.089 18.685 13.8754C18.6633 13.6618 18.5732 13.496 18.4839 13.505C18.3945 13.5141 18.3396 13.6946 18.3613 13.9082C18.383 14.1218 18.473 14.2876 18.5624 14.2785Z" fill="#009200" stroke="black" stroke-width="0.0280794"/>
<path d="M18.2875 14.0854C18.3769 14.0764 18.4318 13.8958 18.4101 13.6822C18.3884 13.4686 18.2983 13.3029 18.209 13.3119C18.1196 13.321 18.0647 13.5015 18.0864 13.7151C18.1081 13.9287 18.1981 14.0945 18.2875 14.0854Z" fill="#009200" stroke="black" stroke-width="0.0280794"/>
<path d="M18.0304 13.9739C18.1198 13.9648 18.1747 13.7843 18.153 13.5707C18.1313 13.3571 18.0413 13.1913 17.9519 13.2004C17.8625 13.2094 17.8076 13.39 17.8293 13.6035C17.851 13.8171 17.9411 13.9829 18.0304 13.9739Z" fill="#009200" stroke="black" stroke-width="0.0280794"/>
<path fill-rule="evenodd" clip-rule="evenodd" d="M17.7964 9.99976C17.7964 9.99976 17.2245 10.4886 17.3028 11.8034C17.3907 13.1232 18.5981 13.7342 18.5981 13.7342C18.5981 13.7342 18.9011 13.3578 18.8523 12.2922C18.7545 10.7378 18.1777 10.0584 18.1777 10.0584L17.7964 9.99487V9.99976Z" fill="#804BFF" stroke="black" stroke-width="0.02444"/>
<path d="M18.9921 14.8775C19.0872 14.885 19.1776 14.7228 19.1939 14.5152C19.2103 14.3077 19.1464 14.1334 19.0512 14.1259C18.9561 14.1184 18.8657 14.2806 18.8493 14.4881C18.833 14.6957 18.8969 14.87 18.9921 14.8775Z" fill="#009200" stroke="black" stroke-width="0.0285017"/>
<path d="M18.7137 14.8015C18.8089 14.809 18.8993 14.6468 18.9156 14.4393C18.932 14.2317 18.8681 14.0574 18.7729 14.0499C18.6777 14.0424 18.5873 14.2046 18.571 14.4122C18.5547 14.6197 18.6186 14.794 18.7137 14.8015Z" fill="#009200" stroke="black" stroke-width="0.0285017"/>
<path d="M18.5782 14.4036C18.6734 14.4111 18.7638 14.2489 18.7801 14.0413C18.7965 13.8338 18.7326 13.6595 18.6374 13.652C18.5422 13.6445 18.4518 13.8067 18.4355 14.0142C18.4192 14.2218 18.4831 14.3961 18.5782 14.4036Z" fill="#009200" stroke="black" stroke-width="0.0285017"/>
<path d="M18.7977 14.3754C18.8872 14.3824 18.9743 14.2041 18.9922 13.9771C19.0101 13.7501 18.9519 13.5603 18.8624 13.5533C18.7728 13.5462 18.6857 13.7246 18.6678 13.9516C18.65 14.1786 18.7081 14.3683 18.7977 14.3754Z" fill="#009200" stroke="black" stroke-width="0.0289178"/>
<path d="M19.1854 14.4951C19.275 14.5022 19.3612 14.3344 19.3781 14.1203C19.3949 13.9063 19.336 13.7271 19.2464 13.72C19.1568 13.713 19.0706 13.8808 19.0537 14.0948C19.0369 14.3089 19.0958 14.4881 19.1854 14.4951Z" fill="#009200" stroke="black" stroke-width="0.0280794"/>
<path d="M18.9933 14.323C19.0828 14.3301 19.1691 14.1623 19.1859 13.9482C19.2028 13.7342 19.1438 13.555 19.0543 13.5479C18.9647 13.5409 18.8784 13.7087 18.8616 13.9227C18.8447 14.1367 18.9037 14.316 18.9933 14.323Z" fill="#009200" stroke="black" stroke-width="0.0280794"/>
<path d="M18.7567 14.0837C18.8463 14.0908 18.9325 13.923 18.9494 13.709C18.9662 13.4949 18.9073 13.3157 18.8177 13.3087C18.7281 13.3016 18.6419 13.4694 18.625 13.6834C18.6082 13.8975 18.6671 14.0767 18.7567 14.0837Z" fill="#009200" stroke="black" stroke-width="0.0280794"/>
<path d="M18.524 13.9282C18.6136 13.9353 18.6998 13.7675 18.7167 13.5535C18.7335 13.3394 18.6746 13.1602 18.585 13.1531C18.4955 13.1461 18.4092 13.3139 18.3924 13.5279C18.3755 13.742 18.4345 13.9212 18.524 13.9282Z" fill="#009200" stroke="black" stroke-width="0.0280794"/>
<path d="M19.4808 13.7843C19.7326 13.6899 19.6919 13.0011 19.3898 12.2459C19.0877 11.4907 18.6387 10.955 18.3869 11.0495C18.135 11.1439 18.1758 11.8327 18.4779 12.5879C18.78 13.3431 19.229 13.8787 19.4808 13.7843Z" fill="#C90000" stroke="black" stroke-width="0.0108287"/>
<path d="M18.6557 11.2797C18.7723 11.2817 18.8683 11.1987 18.8701 11.0942C18.872 10.9898 18.7789 10.9034 18.6623 10.9014C18.5457 10.8994 18.4497 10.9824 18.4479 11.0868C18.446 11.1913 18.5391 11.2776 18.6557 11.2797Z" fill="#009200" stroke="black" stroke-width="0.0253988"/>
<path d="M18.7235 11.0119C18.8256 11.0137 18.9098 10.9304 18.9116 10.826C18.9134 10.7215 18.8322 10.6354 18.7301 10.6336C18.6281 10.6318 18.5439 10.7151 18.5421 10.8195C18.5403 10.924 18.6215 11.0101 18.7235 11.0119Z" fill="#009200" stroke="black" stroke-width="0.0253423"/>
<path d="M18.4694 11.0075C18.5714 11.0093 18.6556 10.926 18.6574 10.8216C18.6593 10.7171 18.578 10.631 18.476 10.6292C18.374 10.6274 18.2898 10.7107 18.288 10.8151C18.2861 10.9196 18.3674 11.0057 18.4694 11.0075Z" fill="#009200" stroke="black" stroke-width="0.0253423"/>
<path d="M18.5678 10.5892C18.6756 10.5911 18.7644 10.5164 18.766 10.4224C18.7677 10.3284 18.6816 10.2507 18.5737 10.2488C18.4659 10.2469 18.3771 10.3216 18.3754 10.4156C18.3738 10.5096 18.4599 10.5873 18.5678 10.5892Z" fill="#009200" stroke="black" stroke-width="0.0247192"/>
<path d="M18.547 10.369C18.6549 10.3709 18.7436 10.2962 18.7453 10.2022C18.7469 10.1082 18.6608 10.0304 18.553 10.0286C18.4451 10.0267 18.3563 10.1014 18.3547 10.1954C18.3531 10.2894 18.4392 10.3671 18.547 10.369Z" fill="#009200" stroke="black" stroke-width="0.0247192"/>
<path d="M18.2275 10.8664C18.3295 10.8681 18.4137 10.7849 18.4155 10.6804C18.4173 10.576 18.3361 10.4899 18.2341 10.4881C18.132 10.4863 18.0478 10.5695 18.046 10.674C18.0442 10.7785 18.1254 10.8646 18.2275 10.8664Z" fill="#009200" stroke="black" stroke-width="0.0253423"/>
<path d="M18.2787 10.7304C18.3807 10.7322 18.4649 10.6489 18.4668 10.5445C18.4686 10.44 18.3874 10.3539 18.2853 10.3521C18.1833 10.3503 18.0991 10.4336 18.0973 10.538C18.0955 10.6425 18.1767 10.7286 18.2787 10.7304Z" fill="#009200" stroke="black" stroke-width="0.0253423"/>
<path d="M18.0705 10.6339C18.1871 10.6359 18.2831 10.5529 18.2849 10.4485C18.2867 10.344 18.1937 10.2577 18.0771 10.2556C17.9605 10.2536 17.8645 10.3366 17.8627 10.4411C17.8608 10.5455 17.9539 10.6319 18.0705 10.6339Z" fill="#009200" stroke="black" stroke-width="0.0253988"/>
<path d="M18.4054 10.0975C18.5133 10.0994 18.602 10.0247 18.6037 9.9307C18.6053 9.83669 18.5192 9.75895 18.4114 9.75707C18.3035 9.75519 18.2147 9.82987 18.2131 9.92389C18.2115 10.0179 18.2976 10.0956 18.4054 10.0975Z" fill="#009200" stroke="black" stroke-width="0.0247192"/>
<path d="M18.0976 10.4633C18.1996 10.4651 18.2838 10.3818 18.2856 10.2774C18.2874 10.1729 18.2062 10.0868 18.1042 10.085C18.0021 10.0832 17.918 10.1665 17.9161 10.2709C17.9143 10.3754 17.9955 10.4615 18.0976 10.4633Z" fill="#009200" stroke="black" stroke-width="0.0253423"/>
<path d="M17.6986 10.642C17.8007 10.6438 17.8849 10.5605 17.8867 10.4561C17.8885 10.3516 17.8073 10.2655 17.7052 10.2637C17.6032 10.2619 17.519 10.3452 17.5172 10.4496C17.5154 10.5541 17.5966 10.6402 17.6986 10.642Z" fill="#009200" stroke="black" stroke-width="0.0253423"/>
<path d="M17.7626 10.609C17.8646 10.6108 17.9488 10.5276 17.9506 10.4231C17.9525 10.3187 17.8712 10.2325 17.7692 10.2308C17.6672 10.229 17.583 10.3122 17.5812 10.4167C17.5793 10.5211 17.6606 10.6073 17.7626 10.609Z" fill="#009200" stroke="black" stroke-width="0.0253423"/>
<path d="M17.8434 10.4589C17.9454 10.4607 18.0296 10.3774 18.0315 10.273C18.0333 10.1685 17.952 10.0824 17.85 10.0806C17.748 10.0788 17.6638 10.1621 17.662 10.2665C17.6602 10.371 17.7414 10.4571 17.8434 10.4589Z" fill="#009200" stroke="black" stroke-width="0.0253423"/>
<path d="M19.6236 14.4652C19.9445 14.356 19.9132 13.4846 19.5535 12.5188C19.1939 11.5531 18.6421 10.8587 18.3211 10.9679C18.0002 11.077 18.0316 11.9484 18.3912 12.9142C18.7509 13.8799 19.3026 14.5743 19.6236 14.4652Z" fill="#009200" stroke="black" stroke-width="0.0227291"/>
<path d="M19.6044 13.3841C19.6638 13.3556 19.648 13.1686 19.5693 12.9664C19.4905 12.7642 19.3786 12.6235 19.3193 12.652C19.26 12.6805 19.2757 12.8675 19.3545 13.0697C19.4332 13.2718 19.5451 13.4126 19.6044 13.3841Z" fill="#009200" stroke="black" stroke-width="0.0232201"/>
<path fill-rule="evenodd" clip-rule="evenodd" d="M19.3856 12.9969C19.8679 13.6625 19.7951 14.0758 19.7352 14.4249C19.5876 14.0162 19.5106 13.7596 19.0283 13.094C18.546 12.4284 18.8033 11.9774 18.8423 11.7361C18.9124 11.9477 18.9033 12.3313 19.3856 12.9969Z" fill="#009200" stroke="black" stroke-width="0.0234398"/>
<path fill-rule="evenodd" clip-rule="evenodd" d="M19.42 13.5247C19.9023 14.1903 19.8295 14.6036 19.7696 14.9527C19.622 14.5441 19.545 14.2874 19.0627 13.6218C18.5804 12.9562 18.8377 12.5052 18.8768 12.264C18.9469 12.4755 18.9377 12.8591 19.42 13.5247Z" fill="#009200" stroke="black" stroke-width="0.0234398"/>
<path fill-rule="evenodd" clip-rule="evenodd" d="M19.458 13.9483C19.9556 14.6026 19.892 15.0177 19.8398 15.3682C19.683 14.963 19.6002 14.7082 19.1027 14.0538C18.6051 13.3995 18.8525 12.9423 18.8862 12.7002C18.9611 12.9101 18.9605 13.2939 19.458 13.9483Z" fill="#009200" stroke="black" stroke-width="0.0234554"/>
<path d="M19.3362 13.0795C19.4526 13.0508 19.4344 12.7346 19.2956 12.3734C19.1568 12.0121 18.95 11.7425 18.8337 11.7712C18.7174 11.8 18.7355 12.1161 18.8743 12.4774C19.0131 12.8386 19.2199 13.1082 19.3362 13.0795Z" fill="#009200" stroke="black" stroke-width="0.0234336"/>
<path d="M19.1277 13.2738C19.2331 13.2573 19.2317 13.0028 19.1246 12.7055C19.0176 12.4081 18.8454 12.1804 18.7401 12.1969C18.6347 12.2134 18.6361 12.4679 18.7432 12.7653C18.8502 13.0627 19.0224 13.2903 19.1277 13.2738Z" fill="#009200" stroke="black" stroke-width="0.0228313"/>
<path d="M18.7885 13.4962C18.8938 13.4818 18.8989 13.2273 18.7997 12.9277C18.7006 12.6281 18.5349 12.3969 18.4295 12.4113C18.3242 12.4256 18.3191 12.6801 18.4183 12.9797C18.5174 13.2793 18.6831 13.5105 18.7885 13.4962Z" fill="#009200" stroke="black" stroke-width="0.0227796"/>
<path d="M19.0042 12.4414C19.0882 12.427 19.0808 12.2368 18.9876 12.0165C18.8944 11.7962 18.7508 11.6293 18.6668 11.6437C18.5828 11.658 18.5902 11.8483 18.6834 12.0685C18.7765 12.2888 18.9202 12.4558 19.0042 12.4414Z" fill="#009200" stroke="black" stroke-width="0.0233063"/>
<path d="M18.8359 12.6585C18.9218 12.6492 18.9272 12.4577 18.8479 12.2308C18.7686 12.0039 18.6347 11.8275 18.5487 11.8369C18.4627 11.8462 18.4574 12.0377 18.5367 12.2646C18.616 12.4915 18.7499 12.6678 18.8359 12.6585Z" fill="#009200" stroke="black" stroke-width="0.0235306"/>
<path fill-rule="evenodd" clip-rule="evenodd" d="M18.5263 12.0103C18.6639 12.4026 18.7149 12.7537 18.6396 12.7943C18.5644 12.8348 18.392 12.5492 18.2544 12.157" fill="#009200"/>
<path d="M18.5263 12.0103C18.6639 12.4026 18.7149 12.7537 18.6396 12.7943C18.5644 12.8348 18.392 12.5492 18.2544 12.157" stroke="black" stroke-width="0.0235608"/>
<path d="M18.8217 12.2029C18.9077 12.1936 18.9131 12.0021 18.8338 11.7752C18.7545 11.5483 18.6205 11.372 18.5345 11.3813C18.4486 11.3906 18.4432 11.5821 18.5225 11.809C18.6018 12.0359 18.7358 12.2123 18.8217 12.2029Z" fill="#009200" stroke="black" stroke-width="0.0235306"/>
<path d="M18.5735 12.3696C18.6594 12.3624 18.668 12.1709 18.5927 11.9418C18.5174 11.7127 18.3866 11.5328 18.3007 11.54C18.2147 11.5472 18.2061 11.7387 18.2814 11.9678C18.3568 12.1969 18.4875 12.3768 18.5735 12.3696Z" fill="#009200" stroke="black" stroke-width="0.0235423"/>
<path fill-rule="evenodd" clip-rule="evenodd" d="M18.2997 11.4801C18.4373 11.746 18.5095 11.9926 18.4605 12.0308C18.4116 12.0689 18.2604 11.8838 18.1228 11.6179" fill="#009200"/>
<path d="M18.2997 11.4801C18.4373 11.746 18.5095 11.9926 18.4605 12.0308C18.4116 12.0689 18.2604 11.8838 18.1228 11.6179" stroke="black" stroke-width="0.0235269"/>
<path fill-rule="evenodd" clip-rule="evenodd" d="M18.4019 11.3089C18.5396 11.5748 18.6118 11.8215 18.5628 11.8596C18.5139 11.8978 18.3627 11.7127 18.2251 11.4468" fill="#009200"/>
<path d="M18.4019 11.3089C18.5396 11.5748 18.6118 11.8215 18.5628 11.8596C18.5139 11.8978 18.3627 11.7127 18.2251 11.4468" stroke="black" stroke-width="0.0235269"/>
<path fill-rule="evenodd" clip-rule="evenodd" d="M18.8465 11.4026C19.038 11.7683 19.138 12.107 19.0693 12.1589C19.0007 12.2108 18.7898 11.956 18.5984 11.5903" fill="#009200"/>
<path d="M18.8465 11.4026C19.038 11.7683 19.138 12.107 19.0693 12.1589C19.0007 12.2108 18.7898 11.956 18.5984 11.5903" stroke="black" stroke-width="0.0235616"/>
<path fill-rule="evenodd" clip-rule="evenodd" d="M18.5558 11.1495C18.6934 11.442 18.7656 11.7135 18.7166 11.7557C18.6677 11.7979 18.5165 11.5945 18.3789 11.302" fill="#009200"/>
<path d="M18.5558 11.1495C18.6934 11.442 18.7656 11.7135 18.7166 11.7557C18.6677 11.7979 18.5165 11.5945 18.3789 11.302" stroke="black" stroke-width="0.0232273"/>
<path fill-rule="evenodd" clip-rule="evenodd" d="M18.7566 10.1312C18.6604 10.2302 18.7598 10.4022 18.8505 10.4614C18.9521 10.5442 19.5278 11.0872 19.9164 10.5904C19.5974 10.599 18.9881 9.91077 18.7566 10.1312Z" fill="#804BFF" stroke="black" stroke-width="0.0229268"/>
<path fill-rule="evenodd" clip-rule="evenodd" d="M18.6883 9.84289C18.5921 9.94182 18.6914 10.1139 18.7821 10.173C18.8838 10.2558 19.4594 10.7989 19.8481 10.3021C19.529 10.3107 18.9198 9.62244 18.6883 9.84289Z" fill="#804BFF" stroke="black" stroke-width="0.0229268"/>
<path fill-rule="evenodd" clip-rule="evenodd" d="M18.6001 9.56896C18.5039 9.66789 18.6033 9.83995 18.694 9.8991C18.7957 9.9819 19.3713 10.525 19.76 10.0281C19.4409 10.0367 18.8316 9.34851 18.6001 9.56896Z" fill="#804BFF" stroke="black" stroke-width="0.0229268"/>
<path fill-rule="evenodd" clip-rule="evenodd" d="M18.4095 9.25622C18.3133 9.35515 18.4126 9.52721 18.5033 9.58635C18.605 9.66916 19.1806 10.2122 19.5693 9.7154C19.2502 9.724 18.641 9.03577 18.4095 9.25622Z" fill="#804BFF" stroke="black" stroke-width="0.0229268"/>
<path fill-rule="evenodd" clip-rule="evenodd" d="M17.5378 9.11771C17.7231 8.97292 18.0705 8.9301 18.3452 9.07451C18.5744 9.19017 18.9617 9.65843 19.2472 9.7694C19.1727 9.78677 19.0946 9.79049 19.0176 9.78034C18.9405 9.7702 18.866 9.74639 18.7985 9.71034C18.5515 9.89874 18.463 9.92594 18.2067 9.96331C17.8523 10.0148 17.5541 9.91819 17.4467 9.72575C17.335 9.54429 17.3736 9.2531 17.5378 9.11771Z" fill="#804BFF" stroke="black" stroke-width="0.0238534"/>
<path d="M18.0798 9.43387C18.1757 9.43554 18.2541 9.39423 18.255 9.34159C18.2559 9.28896 18.179 9.24494 18.0832 9.24326C17.9873 9.24159 17.9089 9.2829 17.908 9.33554C17.9071 9.38817 17.984 9.43219 18.0798 9.43387Z" fill="#FF0000" stroke="black" stroke-width="0.0220299"/>
<path d="M17.6575 9.85696C17.7841 9.80884 17.8635 9.71027 17.8347 9.63678C17.806 9.5633 17.68 9.54274 17.5533 9.59086C17.4267 9.63897 17.3473 9.73755 17.3761 9.81103C17.4048 9.88451 17.5308 9.90508 17.6575 9.85696Z" fill="#FFFF00" stroke="black" stroke-width="0.0243181"/>
<path d="M17.8052 9.69811C17.8365 9.69866 17.8623 9.67372 17.8629 9.64241C17.8634 9.6111 17.8385 9.58528 17.8072 9.58473C17.7759 9.58418 17.75 9.60912 17.7495 9.64043C17.749 9.67174 17.7739 9.69757 17.8052 9.69811Z" fill="black"/>
<path fill-rule="evenodd" clip-rule="evenodd" d="M17.8828 9.45897C17.903 9.52972 17.8471 9.62652 17.7174 9.6618C17.5855 9.71112 17.4892 9.8213 17.4392 10.0011C17.2155 9.59359 17.3369 9.41933 17.5508 9.37613C17.7346 9.32302 17.8469 9.32889 17.8828 9.45897Z" fill="#FFFF00" stroke="black" stroke-width="0.0288549"/>
<path d="M17.3334 9.8942C17.3588 9.89464 17.3797 9.87443 17.3801 9.84906C17.3806 9.82369 17.3604 9.80276 17.335 9.80232C17.3096 9.80187 17.2887 9.82208 17.2883 9.84745C17.2878 9.87283 17.308 9.89375 17.3334 9.8942Z" fill="black"/>
</g>
<defs>
<clipPath id="clip0_11930_67859">
<rect width="36" height="24" rx="2" fill="white"/>
</clipPath>
</defs>
</svg>
