<svg width="36" height="24" viewBox="0 0 36 24" fill="none" xmlns="http://www.w3.org/2000/svg">
<g clip-path="url(#clip0_11930_67874)">
<path d="M18 0H36V24H18V0Z" fill="white"/>
<path d="M0 0H18V24H0V0Z" fill="#006233"/>
<path d="M23.1962 9C22.5358 7.85615 21.5164 6.96218 20.2961 6.45673C19.0758 5.95127 17.7229 5.8626 16.4471 6.20445C15.1713 6.5463 14.0439 7.29957 13.2399 8.34743C12.4358 9.3953 12 10.6792 12 12C12 13.3208 12.4358 14.6047 13.2399 15.6526C14.0439 16.7004 15.1713 17.4537 16.4471 17.7956C17.7229 18.1374 19.0758 18.0487 20.2961 17.5433C21.5164 17.0378 22.5358 16.1439 23.1962 15C22.5746 15.7763 21.7273 16.3404 20.7713 16.6143C19.8153 16.8882 18.7978 16.8585 17.8594 16.5291C16.9211 16.1997 16.1082 15.5871 15.5331 14.7757C14.958 13.9644 14.6492 12.9945 14.6492 12C14.6492 11.0055 14.958 10.0356 15.5331 9.22427C16.1082 8.41294 16.9211 7.80026 17.8594 7.4709C18.7978 7.14154 19.8153 7.11176 20.7713 7.38568C21.7273 7.6596 22.5746 8.22369 23.1962 9ZM23.3962 12L17.9962 10.24L21.3562 14.84V9.16L17.9962 13.76L23.3962 12Z" fill="#D21034"/>
</g>
<defs>
<clipPath id="clip0_11930_67874">
<rect width="36" height="24" rx="2" fill="white"/>
</clipPath>
</defs>
</svg>
