<svg width="36" height="24" viewBox="0 0 36 24" fill="none" xmlns="http://www.w3.org/2000/svg">
<g clip-path="url(#clip0_11930_67877)">
<rect width="36" height="24" rx="2" fill="#0087FF"/>
<path d="M0 17H36V18H0V17Z" fill="white"/>
<path d="M0 6H36V7H0V6Z" fill="white"/>
<path d="M0 15H36V17H0V15Z" fill="#FF0000"/>
<path d="M0 7H36V9H0V7Z" fill="#000001"/>
<path d="M0 10H36V14H0V10Z" fill="#FFFF00"/>
<path d="M0 14H36V15H0V14Z" fill="#008300"/>
<path d="M0 9H36V10H0V9Z" fill="#008300"/>
<path d="M18.3113 8.00623C17.6228 8.00739 16.95 8.21214 16.3775 8.59472C15.805 8.9773 15.3585 9.52061 15.0941 10.1563C14.8296 10.792 14.759 11.4918 14.8913 12.1675C15.0235 12.8432 15.3525 13.4647 15.8371 13.9539L14.3447 14.4339L14.48 14.7742L14 14.879L14.3491 15.9961H22.2735L22.6182 14.879L22.1382 14.7742L22.2735 14.4295L20.7811 13.9539C21.2654 13.465 21.5944 12.8439 21.7268 12.1685C21.8591 11.4932 21.7889 10.7939 21.525 10.1583C21.2611 9.52279 20.8152 8.97943 20.2434 8.59653C19.6716 8.21362 18.9994 8.00825 18.3113 8.00623Z" fill="white" stroke="black" stroke-width="0.087273"/>
<path d="M14.4233 14.8964L14.7288 15.8825H21.8939L22.195 14.8964H14.4233Z" fill="#008300"/>
<path d="M14.6152 15.0231L14.8378 15.7562H21.7803L22.0029 15.0231H16.3825H14.6152Z" fill="white"/>
<path d="M15.1046 15.4547C15.1046 15.4707 15.103 15.4861 15.0997 15.5009C15.0964 15.5151 15.0906 15.5274 15.0823 15.5378C15.0741 15.5489 15.0631 15.5575 15.0494 15.5637C15.0356 15.5699 15.018 15.5729 14.9966 15.5729C14.9773 15.5729 14.9608 15.5705 14.9471 15.5655C14.9328 15.56 14.921 15.5539 14.9116 15.5471L14.9339 15.4889C14.9421 15.4944 14.9512 15.4991 14.9611 15.5028C14.9705 15.5071 14.9806 15.5092 14.9916 15.5092C15.0081 15.5092 15.0199 15.5046 15.0271 15.4954C15.0342 15.4867 15.0378 15.4717 15.0378 15.4501V15.2331H15.1046V15.4547ZM15.2861 15.5729C15.2646 15.5729 15.2465 15.5699 15.2316 15.5637C15.2162 15.5569 15.2036 15.5477 15.1937 15.536C15.1838 15.5243 15.1764 15.5104 15.1714 15.4944C15.167 15.4778 15.1648 15.46 15.1648 15.4409V15.2331H15.2316V15.4335C15.2316 15.447 15.233 15.4584 15.2358 15.4677C15.2385 15.4769 15.2424 15.4846 15.2473 15.4907C15.2517 15.4969 15.2572 15.5012 15.2638 15.5037C15.2709 15.5061 15.2786 15.5074 15.2869 15.5074C15.3034 15.5074 15.3166 15.5018 15.3265 15.4907C15.3364 15.4797 15.3413 15.4606 15.3413 15.4335V15.2322H15.409V15.44C15.409 15.459 15.4062 15.4769 15.4007 15.4935C15.3963 15.5095 15.3892 15.5237 15.3793 15.536C15.3688 15.5477 15.3559 15.5566 15.3405 15.5628C15.3251 15.5689 15.307 15.572 15.2861 15.572V15.5729ZM15.5516 15.2331C15.5571 15.2436 15.5632 15.2568 15.5698 15.2728L15.5912 15.3227L15.6127 15.3781L15.6333 15.4316L15.6531 15.3781L15.6745 15.3227L15.696 15.2728C15.7026 15.2568 15.7086 15.2436 15.7141 15.2331H15.7752L15.7834 15.307L15.7892 15.3929C15.7914 15.4224 15.793 15.4523 15.7941 15.4824L15.7983 15.5665H15.7331L15.7298 15.4603L15.7232 15.3448L15.7067 15.3901L15.6869 15.439C15.6814 15.4557 15.6756 15.4714 15.6696 15.4861L15.6547 15.524H15.6077L15.5937 15.4861L15.5756 15.439L15.5566 15.3901L15.5401 15.3448C15.5368 15.3836 15.5346 15.4221 15.5335 15.4603L15.5302 15.5665H15.4642L15.4683 15.4824L15.4733 15.3929L15.4799 15.3079L15.4881 15.2331H15.5516ZM15.9756 15.5729C15.9547 15.5729 15.9365 15.5699 15.9211 15.5637C15.9057 15.5569 15.8931 15.5477 15.8832 15.536C15.8733 15.5243 15.8659 15.5104 15.8609 15.4944C15.8565 15.4778 15.8543 15.46 15.8543 15.4409V15.2331H15.9211V15.4335C15.9211 15.447 15.9225 15.4584 15.9253 15.4677C15.928 15.4769 15.9319 15.4846 15.9368 15.4907C15.9418 15.4969 15.9473 15.5012 15.9533 15.5037C15.9605 15.5061 15.9682 15.5074 15.9764 15.5074C15.9929 15.5074 16.0061 15.5018 16.016 15.4907C16.0259 15.4797 16.0308 15.4606 16.0308 15.4335V15.2322H16.0985V15.44C16.0985 15.459 16.0957 15.4769 16.0902 15.4935C16.0858 15.5095 16.0787 15.5237 16.0688 15.536C16.0583 15.5477 16.0454 15.5566 16.03 15.5628C16.0146 15.5689 15.9965 15.572 15.9756 15.572V15.5729ZM16.162 15.2331H16.2296V15.5665H16.1628L16.162 15.2331ZM16.4078 15.3698L16.4424 15.3014C16.4534 15.2787 16.4633 15.2559 16.4721 15.2331H16.5463C16.5298 15.2688 16.5128 15.3036 16.4952 15.3374C16.4776 15.3713 16.4592 15.4052 16.4399 15.439V15.5665H16.3731V15.44C16.3533 15.4061 16.3346 15.3722 16.317 15.3384C16.2994 15.3039 16.2824 15.2688 16.2659 15.2331H16.3443C16.3531 15.2559 16.3629 15.2787 16.3739 15.3014L16.4078 15.3698ZM16.7393 15.5665L16.7286 15.5314L16.7171 15.4944H16.6016L16.5892 15.5314L16.5793 15.5665H16.5084L16.5405 15.4667L16.5694 15.3809L16.5983 15.3042C16.6076 15.2796 16.6173 15.2559 16.6271 15.2331H16.6915C16.7014 15.2559 16.711 15.2796 16.7203 15.3042L16.7484 15.3809L16.7781 15.4667L16.8102 15.5665H16.7393ZM16.6585 15.3079C16.6574 15.3134 16.6552 15.3202 16.6519 15.3282L16.642 15.3568L16.6296 15.3938L16.6164 15.4344H16.7014L16.6882 15.3929L16.6758 15.3568L16.6659 15.3291L16.6585 15.3079ZM17.0618 15.3698L17.0964 15.3014C17.1074 15.2787 17.1173 15.2559 17.1261 15.2331H17.2004C17.1839 15.2688 17.1671 15.3036 17.1501 15.3374C17.1325 15.3713 17.1138 15.4052 17.094 15.439V15.5665H17.028V15.44L16.9719 15.3384C16.9543 15.3039 16.9375 15.2688 16.9216 15.2331H16.9991L17.0288 15.3014L17.0618 15.3698ZM17.3934 15.5665L17.3826 15.5314L17.3711 15.4944H17.2556L17.2441 15.5314L17.2334 15.5665H17.1641L17.1954 15.4667L17.2251 15.3809L17.2532 15.3042C17.2625 15.2796 17.2724 15.2559 17.2828 15.2331H17.3464C17.3562 15.2559 17.3659 15.2796 17.3752 15.3042L17.4041 15.3809L17.4338 15.4667L17.4651 15.5665H17.3934ZM17.3134 15.3079L17.3068 15.3282L17.2969 15.3568L17.2845 15.3938L17.2713 15.4344H17.3554L17.3422 15.3929L17.3299 15.3568L17.32 15.3291L17.3134 15.3079ZM17.8066 15.5665L17.7959 15.5314L17.7843 15.4944H17.6688L17.6573 15.5314L17.6466 15.5665H17.5773L17.6086 15.4667C17.6185 15.436 17.6284 15.4073 17.6383 15.3809L17.6664 15.3042C17.6757 15.2796 17.6853 15.2559 17.6952 15.2331H17.7596C17.7695 15.2559 17.7791 15.2796 17.7884 15.3042L17.8165 15.3809L17.8462 15.4667L17.8783 15.5665H17.8066ZM17.7257 15.3079L17.72 15.3282L17.7101 15.3568L17.6977 15.3938L17.6837 15.4344H17.7686L17.7554 15.3929L17.7431 15.3568L17.7332 15.3291L17.7257 15.3079ZM17.9171 15.5665V15.2331H18.1167V15.2959H17.9847V15.3661H18.1018V15.4289H17.9839V15.5674L17.9171 15.5665ZM18.2511 15.2294C18.2957 15.2294 18.3298 15.2383 18.3534 15.2562C18.3776 15.274 18.3897 15.3017 18.3897 15.3393C18.3897 15.3627 18.3847 15.3818 18.3748 15.3966C18.3655 15.4107 18.3518 15.4221 18.3336 15.4307L18.3526 15.4584L18.3715 15.4926L18.3905 15.5295L18.407 15.5665H18.3328L18.3155 15.5332L18.299 15.5009L18.2808 15.4704L18.2643 15.4446H18.2313V15.5665H18.1637V15.2377C18.1785 15.2346 18.1937 15.2325 18.2091 15.2312L18.2503 15.2294H18.2511ZM18.2553 15.2931H18.2404L18.2297 15.295V15.3855H18.2487C18.2739 15.3855 18.2921 15.3818 18.3031 15.3744C18.3141 15.3676 18.3196 15.3556 18.3196 15.3384C18.3196 15.3217 18.3141 15.3104 18.3031 15.3042C18.2921 15.2968 18.2756 15.2931 18.2536 15.2931H18.2553ZM18.4507 15.2331H18.5175V15.5665H18.4507V15.2331ZM18.7625 15.5665C18.7564 15.5554 18.7493 15.5437 18.741 15.5314L18.7138 15.4935C18.7045 15.4806 18.6946 15.4683 18.6841 15.4566C18.6737 15.4449 18.6635 15.4344 18.6536 15.4252V15.5665H18.586V15.2331H18.6536V15.3587C18.6712 15.3384 18.6885 15.3171 18.7056 15.295L18.7551 15.2331H18.8351C18.8147 15.2602 18.7941 15.286 18.7732 15.3107C18.7529 15.3359 18.7314 15.3612 18.7089 15.3864C18.7325 15.4086 18.7553 15.435 18.7773 15.4658C18.7999 15.4966 18.8213 15.5305 18.8417 15.5674L18.7625 15.5665ZM19.0899 15.5665L19.08 15.5314L19.0685 15.4944H18.953L18.9406 15.5314L18.9307 15.5665H18.8606L18.8928 15.4667L18.9217 15.3809L18.9505 15.3042C18.9599 15.2796 18.9695 15.2559 18.9794 15.2331H19.0437C19.0536 15.2559 19.0633 15.2796 19.0726 15.3042L19.1006 15.3809L19.1303 15.4667L19.1625 15.5665H19.0899ZM19.0099 15.3079L19.0041 15.3282L18.9943 15.3568L18.9811 15.3938L18.9679 15.4344H19.0528L19.0396 15.3929L19.0272 15.3568L19.0173 15.3291L19.0099 15.3079ZM19.3835 15.2331C19.389 15.2436 19.3948 15.2568 19.4009 15.2728L19.4223 15.3227L19.4438 15.3781L19.4644 15.4316L19.4842 15.3781L19.5056 15.3227L19.5271 15.2728C19.5337 15.2568 19.5397 15.2436 19.5452 15.2331H19.6062L19.6145 15.307L19.6203 15.3929C19.6225 15.4224 19.6241 15.4523 19.6252 15.4824L19.6293 15.5665H19.5642L19.5609 15.4603L19.5543 15.3448L19.5378 15.3901L19.518 15.439C19.5125 15.4557 19.5067 15.4714 19.5007 15.4861L19.4858 15.524H19.4388L19.4248 15.4861L19.4066 15.439L19.3877 15.3901L19.3712 15.3448C19.3679 15.3836 19.3657 15.4221 19.3646 15.4603L19.3613 15.5665H19.2953L19.2994 15.4824L19.3044 15.3929L19.311 15.3079L19.3192 15.2331H19.3835ZM19.89 15.5665L19.8784 15.5314L19.8677 15.4944H19.7514L19.7398 15.5314L19.7291 15.5665H19.6598L19.6912 15.4667L19.7209 15.3809L19.7489 15.3042C19.7583 15.2796 19.7682 15.2559 19.7786 15.2331H19.8421C19.852 15.2559 19.8616 15.2796 19.871 15.3042C19.8809 15.3288 19.8905 15.3544 19.8999 15.3809L19.9295 15.4667L19.9609 15.5665H19.89ZM19.8091 15.3079L19.8025 15.3282L19.7926 15.3568L19.7803 15.3938L19.7671 15.4344H19.8512L19.838 15.3929L19.8256 15.3568L19.8157 15.3291L19.8091 15.3079ZM20.0895 15.5092C20.0989 15.5092 20.1066 15.5083 20.1126 15.5064C20.1187 15.5046 20.1236 15.5024 20.1275 15.5C20.1313 15.4963 20.1341 15.4926 20.1357 15.4889C20.1368 15.4846 20.1374 15.48 20.1374 15.475C20.1374 15.464 20.1327 15.4547 20.1234 15.4473C20.1146 15.44 20.0989 15.4323 20.0764 15.4243L20.0467 15.4113C20.0373 15.4058 20.0288 15.3996 20.0211 15.3929C20.0134 15.3849 20.0071 15.3756 20.0021 15.3652C19.9966 15.3541 19.9939 15.3408 19.9939 15.3254C19.9939 15.3101 19.9966 15.2962 20.0021 15.2839C20.0076 15.2716 20.015 15.2611 20.0244 15.2525C20.0337 15.2439 20.0453 15.2371 20.059 15.2322C20.0722 15.2279 20.0873 15.2257 20.1044 15.2257C20.1242 15.2257 20.1415 15.2279 20.1564 15.2322C20.1707 15.2371 20.1827 15.2426 20.1926 15.2488L20.1729 15.3079C20.1646 15.303 20.1553 15.2987 20.1448 15.295C20.1349 15.2913 20.1228 15.2894 20.1085 15.2894C20.092 15.2894 20.0805 15.2919 20.0739 15.2968C20.0667 15.3017 20.0632 15.3094 20.0632 15.3199C20.0632 15.3261 20.0645 15.331 20.0673 15.3347C20.07 15.339 20.0736 15.343 20.078 15.3467L20.0945 15.3559L20.1151 15.3642C20.1305 15.3704 20.144 15.3765 20.1555 15.3827C20.1665 15.3889 20.1759 15.3962 20.1836 15.4049C20.1913 15.4135 20.197 15.4233 20.2009 15.4344C20.2047 15.4455 20.2067 15.459 20.2067 15.475C20.2067 15.5058 20.1968 15.5301 20.177 15.548C20.1577 15.5646 20.1286 15.5729 20.0895 15.5729C20.0764 15.5729 20.0643 15.572 20.0533 15.5702C20.0428 15.5689 20.0335 15.5668 20.0252 15.5637L20.0038 15.5563L19.9898 15.5471L20.0087 15.488C20.0175 15.4935 20.0285 15.4984 20.0417 15.5028C20.0544 15.5071 20.0703 15.5092 20.0895 15.5092ZM20.4376 15.2331H20.5052V15.5665H20.4376V15.4252H20.3254V15.5665H20.2578V15.2331H20.3254V15.3596H20.4376V15.2331ZM20.7725 15.5665L20.7626 15.5314L20.751 15.4944H20.6355L20.6232 15.5314L20.6133 15.5665H20.5432C20.5542 15.5308 20.5652 15.4975 20.5762 15.4667C20.5855 15.436 20.5951 15.4073 20.605 15.3809L20.6331 15.3042C20.6424 15.2796 20.652 15.2559 20.6619 15.2331H20.7263C20.7362 15.2559 20.7458 15.2796 20.7551 15.3042L20.7832 15.3809L20.8129 15.4667L20.845 15.5665H20.7725ZM20.6925 15.3079L20.6867 15.3282L20.6768 15.3568L20.6636 15.3938L20.6504 15.4344H20.7353L20.7222 15.3929L20.7098 15.3568L20.6999 15.3291L20.6925 15.3079ZM20.9704 15.2294C21.0155 15.2294 21.0499 15.2383 21.0735 15.2562C21.0971 15.274 21.109 15.3017 21.109 15.3393C21.109 15.3627 21.1043 15.3818 21.0949 15.3966C21.0851 15.4107 21.0713 15.4221 21.0537 15.4307L21.0727 15.4584L21.0916 15.4926L21.1106 15.5295L21.1271 15.5665H21.0529L21.0356 15.5332L21.0182 15.5009L21.0017 15.4704L20.9836 15.4446H20.9506V15.5665H20.8838V15.2377C20.8981 15.2346 20.9129 15.2325 20.9283 15.2312L20.9704 15.2294ZM20.9745 15.2931H20.9622L20.9514 15.295V15.3855H20.9704C20.9957 15.3855 21.0138 15.3818 21.0248 15.3744C21.0358 15.3676 21.0413 15.3556 21.0413 15.3384C21.0413 15.3217 21.0358 15.3104 21.0248 15.3042C21.0138 15.2968 20.9973 15.2931 20.9754 15.2931H20.9745ZM21.17 15.2331H21.2376V15.5665H21.17V15.2331ZM21.4818 15.5665C21.4763 15.5554 21.4691 15.5437 21.4603 15.5314C21.4526 15.5191 21.4438 15.5064 21.4339 15.4935C21.4246 15.4806 21.4147 15.4683 21.4042 15.4566C21.3938 15.4449 21.3833 15.4344 21.3729 15.4252V15.5665H21.3069V15.2331H21.3729V15.3587C21.3905 15.3384 21.4081 15.3171 21.4257 15.295L21.4752 15.2331H21.5543C21.534 15.2602 21.5137 15.286 21.4933 15.3107C21.473 15.3359 21.4515 15.3612 21.429 15.3864C21.4526 15.4086 21.4754 15.435 21.4974 15.4658C21.5194 15.4966 21.5409 15.5305 21.5618 15.5674L21.4818 15.5665ZM21.6005 15.2331H21.6665V15.5665H21.6005V15.2331Z" fill="black"/>
<path fill-rule="evenodd" clip-rule="evenodd" d="M14.427 14.8963L14.8808 14.7741L14.7412 14.5254L15.5223 14.233V14.4992H15.7623V14.905H14.4532L14.427 14.8963Z" fill="#008300"/>
<path fill-rule="evenodd" clip-rule="evenodd" d="M15.6485 14.905H14.6973L15.6485 14.6476V14.905ZM15.4391 14.5036H15.0158L15.4522 14.3378L15.4391 14.5036ZM14.8849 14.5734L14.9809 14.748L15.6136 14.5734H14.8849Z" fill="white"/>
<path fill-rule="evenodd" clip-rule="evenodd" d="M22.197 14.8963L21.7432 14.7741L21.8828 14.5254L21.1017 14.233V14.4992H20.8617V14.905H22.1708L22.197 14.8963Z" fill="#008300"/>
<path fill-rule="evenodd" clip-rule="evenodd" d="M20.9755 14.905H21.9268L20.9755 14.6476V14.905ZM21.1849 14.5036H21.6082L21.1718 14.3378L21.1849 14.5036ZM21.7391 14.5734L21.6431 14.748L21.0104 14.5734H21.7391Z" fill="white"/>
<path d="M18.2282 8.42078C17.5183 8.44422 16.8382 8.71156 16.3023 9.17777C15.7665 9.64399 15.4076 10.2806 15.2862 10.9804C15.1648 11.6803 15.2882 12.4005 15.6357 13.02C15.9832 13.6395 16.5335 14.1203 17.194 14.3815V14.0412C16.6138 13.7853 16.1389 13.3382 15.8486 12.7744C15.5583 12.2107 15.4701 11.5644 15.5988 10.9435C15.7275 10.3226 16.0652 9.76462 16.5557 9.36268C17.0461 8.96074 17.6596 8.73917 18.2937 8.73496H18.3155C18.9511 8.73521 19.5672 8.95395 20.0607 9.35451C20.5542 9.75507 20.8949 10.3131 21.0259 10.935C21.1568 11.557 21.07 12.205 20.7799 12.7706C20.4898 13.3361 20.0141 13.7847 19.4326 14.0412V14.3815C20.1037 14.1208 20.6624 13.6335 21.0121 13.0042C21.3617 12.3748 21.4802 11.643 21.3471 10.9355C21.214 10.2279 20.8376 9.5892 20.2832 9.12995C19.7287 8.67069 19.0311 8.41982 18.3111 8.42078H18.2282Z" fill="#FFFF00" stroke="black" stroke-width="0.0523638"/>
<path fill-rule="evenodd" clip-rule="evenodd" d="M19.158 13.7313L19.1624 14.1939C18.8831 14.2375 18.5733 14.5255 18.4904 14.5779C18.4075 14.6346 18.2722 14.7437 18.198 14.735C18.0715 14.7175 18.1631 14.6171 18.1631 14.6171C18.1631 14.6171 18.0758 14.7219 18.0147 14.6739C17.9537 14.6346 18.0497 14.556 18.0497 14.556C18.0497 14.556 18.0191 14.5997 17.9537 14.5779C17.8926 14.5604 17.9362 14.4906 17.9362 14.4906C17.9362 14.4906 17.7704 14.5779 17.7398 14.5473C17.6962 14.4906 17.7573 14.4382 17.7573 14.4382L18.1457 14.1109C18.3595 14.0237 18.4206 14.1459 18.5166 14.1371C18.6786 14.0943 18.8301 14.0185 18.9617 13.9146C19.0358 13.8404 19.014 13.7619 19.0707 13.74C19.1275 13.7182 19.158 13.7313 19.158 13.7313Z" fill="white" stroke="black" stroke-width="0.0392729"/>
<path fill-rule="evenodd" clip-rule="evenodd" d="M17.456 13.7662L17.4517 14.1938C17.7135 14.2288 18.0058 14.508 18.0844 14.5604C18.1586 14.6084 18.2895 14.6913 18.3593 14.6826C18.4728 14.6695 18.4466 14.6258 18.4466 14.6258C18.4466 14.6258 18.4989 14.652 18.5688 14.6258C18.6386 14.5997 18.6037 14.5517 18.6037 14.5517C18.6037 14.5517 18.7084 14.5822 18.752 14.5255C18.7957 14.4775 18.7084 14.4251 18.7084 14.4251C18.7084 14.4251 18.752 14.3946 18.6822 14.4338C18.6124 14.4688 18.4728 14.3117 18.3331 14.3029C18.1891 14.3029 18.176 14.4426 18.0888 14.3771C17.9971 14.3073 18.1586 14.1938 18.2153 14.1764C18.4378 14.1022 18.6473 14.1938 18.3768 14.0891C18.2371 14.0368 18.128 14.1371 18.0364 14.1328C17.9404 14.1284 17.7048 14.0018 17.6437 13.932C17.5738 13.8622 17.5913 13.7924 17.5389 13.7706C17.4866 13.7531 17.456 13.7618 17.4517 13.7662H17.456Z" fill="white" stroke="black" stroke-width="0.0349092"/>
<path d="M18.6081 14.5518L18.4204 14.4733M18.4684 14.6347L18.2502 14.5038" stroke="black" stroke-width="0.0349092"/>
<path fill-rule="evenodd" clip-rule="evenodd" d="M17.1017 13.5436C16.5606 13.8054 16.5344 13.1159 16.29 13.1247C16.7482 12.8192 16.674 13.3865 17.1017 13.5436ZM16.8922 12.7843C16.6217 13.2774 17.2544 13.3428 17.2326 13.5828C17.5424 13.1639 17.0144 13.1988 16.8922 12.7843Z" fill="#008300" stroke="black" stroke-width="0.0174546"/>
<path fill-rule="evenodd" clip-rule="evenodd" d="M16.6303 12.9763C15.9627 13.0897 16.146 12.5137 15.8667 12.4657C16.4558 12.2912 16.2027 12.7363 16.6303 12.9763Z" fill="#008300" stroke="black" stroke-width="0.0174546"/>
<path fill-rule="evenodd" clip-rule="evenodd" d="M16.5605 12.2957C16.194 12.7277 16.722 12.7495 16.6609 12.9764C17.0405 12.6273 16.6478 12.6404 16.5605 12.2957ZM16.1765 12.3743C15.5133 12.2783 15.9322 11.6019 15.7314 11.4579C16.2769 11.4972 15.9234 12.0906 16.1765 12.3743Z" fill="#008300" stroke="black" stroke-width="0.0174546"/>
<path fill-rule="evenodd" clip-rule="evenodd" d="M16.4296 11.5189C15.8187 11.8113 16.434 12.1255 16.194 12.3917C16.7962 12.3611 16.2638 11.9684 16.4296 11.5277V11.5189ZM16.0893 11.5408C15.378 11.2179 16.1198 10.6069 15.9933 10.3844C16.4776 10.8775 15.7402 11.0608 16.0893 11.5408Z" fill="#008300" stroke="black" stroke-width="0.0174546"/>
<path fill-rule="evenodd" clip-rule="evenodd" d="M16.5433 10.7203C15.9324 10.7988 16.2379 11.3617 16.1113 11.5625C16.5913 11.4534 16.2073 11.1697 16.5477 10.7203H16.5433ZM16.2466 10.5501C15.9019 10.0265 16.4779 9.90864 16.5171 9.64246C16.683 10.3319 16.2902 10.1094 16.2466 10.5501Z" fill="#008300" stroke="black" stroke-width="0.0174546"/>
<path fill-rule="evenodd" clip-rule="evenodd" d="M16.9358 10.1138C16.3685 9.95235 16.4733 10.524 16.2812 10.6593C16.7613 10.7378 16.6609 10.2796 16.9358 10.1138ZM16.674 9.86944C16.5605 9.41562 16.7874 9.4898 17.0449 9.28907C17.1845 9.65562 16.8398 9.61198 16.674 9.86944ZM17.3983 9.79962C16.962 9.47671 16.914 9.91307 16.6871 9.97416C17.106 10.2229 17.1234 9.85198 17.3983 9.80398V9.79962ZM17.1365 9.58144C17.1496 9.38507 17.4114 9.12762 17.682 9.21489C17.6689 9.54216 17.3547 9.62507 17.1365 9.5858V9.58144Z" fill="#008300" stroke="black" stroke-width="0.0174546"/>
<path fill-rule="evenodd" clip-rule="evenodd" d="M19.5223 13.5436C20.0634 13.8054 20.0896 13.1159 20.334 13.1247C19.8758 12.8192 19.95 13.3865 19.5223 13.5436ZM19.7318 12.7843C20.0023 13.2774 19.3696 13.3428 19.3914 13.5828C19.0816 13.1639 19.6096 13.1988 19.7318 12.7843Z" fill="#008300" stroke="black" stroke-width="0.0174546"/>
<path fill-rule="evenodd" clip-rule="evenodd" d="M19.9937 12.9763C20.6613 13.0897 20.4781 12.5137 20.7573 12.4657C20.1682 12.2912 20.4213 12.7363 19.9937 12.9763Z" fill="#008300" stroke="black" stroke-width="0.0174546"/>
<path fill-rule="evenodd" clip-rule="evenodd" d="M20.0635 12.2957C20.43 12.7277 19.902 12.7495 19.9631 12.9764C19.5835 12.6273 19.9762 12.6404 20.0635 12.2957ZM20.4475 12.3743C21.1108 12.2783 20.6919 11.6019 20.8926 11.4579C20.3471 11.4972 20.7006 12.0906 20.4475 12.3743Z" fill="#008300" stroke="black" stroke-width="0.0174546"/>
<path fill-rule="evenodd" clip-rule="evenodd" d="M20.1944 11.5189C20.8053 11.8113 20.19 12.1255 20.43 12.3917C19.8279 12.3611 20.3602 11.9684 20.1944 11.5277V11.5189ZM20.5348 11.5408C21.246 11.2179 20.5042 10.6069 20.6308 10.3844C20.1464 10.8775 20.8839 11.0608 20.5348 11.5408Z" fill="#008300" stroke="black" stroke-width="0.0174546"/>
<path fill-rule="evenodd" clip-rule="evenodd" d="M20.0807 10.7203C20.6916 10.7988 20.3861 11.3617 20.5127 11.5625C20.0327 11.4534 20.4167 11.1697 20.0763 10.7203H20.0807ZM20.3774 10.5501C20.7222 10.0265 20.1461 9.90864 20.1069 9.64246C19.9411 10.3319 20.3338 10.1094 20.3774 10.5501Z" fill="#008300" stroke="black" stroke-width="0.0174546"/>
<path fill-rule="evenodd" clip-rule="evenodd" d="M19.6882 10.1138C20.2555 9.95235 20.1508 10.524 20.3428 10.6593C19.8628 10.7378 19.9631 10.2796 19.6882 10.1138ZM19.95 9.86944C20.0635 9.41562 19.8366 9.4898 19.5791 9.28907C19.4395 9.65562 19.7842 9.61198 19.95 9.86944ZM19.2257 9.79962C19.662 9.47671 19.71 9.91307 19.937 9.97416C19.518 10.2229 19.5006 9.85198 19.2257 9.80398V9.79962ZM19.4875 9.58144C19.4744 9.38507 19.2126 9.12762 18.942 9.21489C18.9551 9.54216 19.2693 9.62507 19.4875 9.5858V9.58144Z" fill="#008300" stroke="black" stroke-width="0.0174546"/>
<path d="M17.7752 9.01407L17.8012 9.16698L17.8825 9.15071C17.9053 9.15071 17.9183 9.14095 17.9248 9.13445C17.9346 9.12469 17.9378 9.10842 17.9346 9.08565H17.9443L17.9671 9.21578H17.9574L17.9443 9.18325L17.9248 9.17023H17.889L17.8044 9.1865L17.824 9.31338L17.8337 9.34592L17.8435 9.34917H17.863L17.9281 9.33941L17.9736 9.3264L17.9996 9.30362C18.0094 9.29061 18.0192 9.27109 18.0257 9.24506H18.0387L18.0224 9.34266L17.7296 9.39472L17.7264 9.38496H17.7394L17.7622 9.37194C17.7687 9.36544 17.7719 9.36218 17.7719 9.35568V9.31664L17.7264 9.06938C17.7264 9.04661 17.7199 9.03034 17.7134 9.02709C17.7036 9.02058 17.6938 9.01733 17.6776 9.02058H17.6646V9.01407L17.9574 8.96202L17.9736 9.04661H17.9639C17.9596 9.03259 17.953 9.01939 17.9443 9.00757L17.9183 8.99455C17.9054 8.99259 17.8922 8.99259 17.8793 8.99455L17.7752 9.01407ZM18.3347 9.19951H18.1851L18.1591 9.26133C18.1539 9.27152 18.1506 9.28253 18.1493 9.29386C18.1493 9.30037 18.1526 9.30688 18.1591 9.31013C18.1656 9.31664 18.1753 9.31664 18.1948 9.31989V9.32965H18.0745V9.31989C18.0907 9.31989 18.1005 9.31338 18.107 9.31013L18.1395 9.25157L18.2697 8.93274H18.2827L18.4193 9.25482C18.4291 9.28085 18.4389 9.29712 18.4486 9.30362C18.4584 9.31338 18.4681 9.31664 18.4844 9.31664V9.32965H18.3315V9.31989C18.3478 9.31989 18.3575 9.31664 18.364 9.31013C18.3705 9.30688 18.3705 9.30037 18.3705 9.29386C18.3705 9.28736 18.3705 9.27434 18.3608 9.25482L18.3347 9.19951ZM18.3282 9.17674L18.2632 9.02058L18.1948 9.17999L18.3282 9.17674ZM18.9073 8.99781L18.8943 9.12794H18.8846C18.883 9.09502 18.8717 9.06331 18.852 9.03685C18.8321 9.01588 18.8058 9.00215 18.7772 8.99781C18.7532 8.99321 18.7284 8.99547 18.7056 9.00431C18.68 9.01467 18.6584 9.0329 18.6438 9.05637C18.6275 9.08239 18.6178 9.11818 18.6113 9.16047C18.6051 9.19053 18.6051 9.22151 18.6113 9.25157C18.6178 9.28085 18.6308 9.30362 18.6503 9.31664C18.6698 9.33616 18.6959 9.34917 18.7251 9.35242C18.7479 9.35568 18.7707 9.35568 18.7902 9.34917C18.813 9.34266 18.8358 9.32314 18.865 9.29712L18.8748 9.30362C18.8488 9.33616 18.8227 9.35568 18.7935 9.36869C18.7642 9.37845 18.7349 9.3817 18.6959 9.3752C18.6341 9.36218 18.5885 9.3329 18.5657 9.2776C18.5451 9.23754 18.5382 9.19181 18.5462 9.14746C18.5527 9.11167 18.5657 9.07589 18.5885 9.04986C18.6113 9.01733 18.6406 8.99781 18.6731 8.98479C18.703 8.97257 18.7357 8.96854 18.7677 8.97311C18.7997 8.97768 18.83 8.9907 18.8553 9.01082L18.8683 9.02058L18.8846 9.01733L18.8976 8.99781H18.9073Z" fill="black"/>
<path d="M18.2066 9.71673C18.1629 9.71673 18.1193 9.72546 18.08 9.73418C18.012 9.85256 17.9035 9.94242 17.7746 9.98728L17.7484 9.996C17.6139 10.0531 17.4629 10.0578 17.3251 10.0091C17.2035 10.0899 17.0922 10.1852 16.9935 10.2927C17.0185 10.437 16.9873 10.5854 16.9062 10.7073C16.8397 10.8361 16.7277 10.9356 16.592 10.9866C16.5484 11.1262 16.5222 11.2746 16.5178 11.4229C16.6051 11.4884 16.6793 11.6149 16.7098 11.7676L16.7186 11.7982C16.7491 11.964 16.7186 12.1211 16.6575 12.2127C16.7142 12.348 16.7884 12.4746 16.8756 12.5924C16.9804 12.5836 17.12 12.636 17.2422 12.7276L17.264 12.7495C17.3949 12.8586 17.4735 12.9938 17.4822 13.1073C17.6175 13.1771 17.7571 13.2295 17.9055 13.26C17.984 13.1858 18.1236 13.1291 18.2807 13.1291H18.3113C18.4815 13.1291 18.6298 13.1815 18.7127 13.26C18.8611 13.2295 19.0007 13.1727 19.1316 13.1073C19.1558 12.9633 19.2338 12.8338 19.3498 12.7451C19.4577 12.6479 19.5974 12.5935 19.7426 12.5924C19.8298 12.4789 19.904 12.3524 19.9607 12.2215C19.8932 12.104 19.87 11.9662 19.8953 11.8331V11.8069C19.9302 11.6367 20.0087 11.5015 20.1004 11.4316C20.0938 11.2837 20.0689 11.1371 20.0262 10.9953C19.8998 10.9475 19.7946 10.8562 19.7295 10.7378L19.712 10.7116C19.6247 10.5633 19.5986 10.4062 19.6247 10.2971C19.5233 10.1847 19.4074 10.0864 19.28 10.0047C19.1533 10.0515 19.014 10.0515 18.8873 10.0047L18.8567 9.99164C18.7176 9.94838 18.5995 9.8551 18.5251 9.72982C18.4553 9.72109 18.3811 9.71673 18.3069 9.71673H18.2284C18.2269 9.71666 18.2255 9.71666 18.224 9.71673H18.2022H18.2066Z" fill="#FF0000"/>
<path d="M19.8428 11.5015C19.8428 11.9083 19.6812 12.2984 19.3935 12.5861C19.1059 12.8737 18.7158 13.0353 18.309 13.0353C17.9022 13.0353 17.512 12.8737 17.2244 12.5861C16.9367 12.2984 16.7751 11.9083 16.7751 11.5015C16.7751 11.0947 16.9367 10.7045 17.2244 10.4169C17.512 10.1292 17.9022 9.96765 18.309 9.96765C18.7158 9.96765 19.1059 10.1292 19.3935 10.4169C19.6812 10.7045 19.8428 11.0947 19.8428 11.5015Z" fill="#FBF014" stroke="black" stroke-width="0.0174546"/>
<path d="M19.712 11.5014C19.712 11.8741 19.564 12.2315 19.3005 12.495C19.037 12.7585 18.6796 12.9065 18.307 12.9065C17.9343 12.9065 17.5769 12.7585 17.3134 12.495C17.0499 12.2315 16.9019 11.8741 16.9019 11.5014C16.9019 11.1288 17.0499 10.7714 17.3134 10.5079C17.5769 10.2443 17.9343 10.0963 18.307 10.0963C18.6796 10.0963 19.037 10.2443 19.3005 10.5079C19.564 10.7714 19.712 11.1288 19.712 11.5014Z" fill="#FBF014" stroke="black" stroke-width="0.0174546"/>
<path fill-rule="evenodd" clip-rule="evenodd" d="M17.893 10.8119L18.3556 10.8948L18.2945 11.3573L17.9018 11.6279L17.6836 11.3879L17.6967 11.0083L17.893 10.8119Z" fill="#0087FF" stroke="black" stroke-width="0.0174546"/>
<path fill-rule="evenodd" clip-rule="evenodd" d="M17.762 11.1523L17.5787 11.1611H17.5612V11.1698H17.5569L17.5525 11.1829L17.5351 11.1916V11.2003L17.522 11.2091L17.5045 11.2178H17.5001L17.4958 11.2003H17.4696L17.4565 11.2047V11.1829L17.4521 11.1785V11.1349H17.4609V11.0956L17.4652 11.0869V11.0782L17.4783 11.0651L17.4914 11.0607V11.0476L17.4958 11.0345L17.5001 11.0302L17.4958 11.0214L17.4827 11.0302L17.4696 11.0214V10.9953L17.4827 10.9865L17.4871 10.9909L17.4958 10.956L17.5089 10.9429L17.5001 10.9211L17.5089 10.908L17.5045 10.8905L17.5438 10.8774V10.8643L17.5481 10.8469L17.5656 10.8425L17.5787 10.8338L17.5874 10.8556V10.8687H17.5961L17.6049 10.8513L17.6136 10.8469V10.8338L17.6398 10.8033L17.6485 10.7945L17.666 10.7858H17.6834L17.6965 10.7683V10.7509H17.7052L17.714 10.7422L17.7096 10.7291V10.6985H17.7009V10.6898L17.6921 10.7029L17.6834 10.6985V10.6854H17.6572L17.6485 10.668L17.6398 10.6723V10.6854L17.6311 10.6811V10.6636H17.6136L17.618 10.6462L17.6354 10.6156V10.5982L17.618 10.5807L17.6311 10.5458L17.6485 10.5283V10.5065L17.6354 10.5109L17.6529 10.4891L17.6834 10.476H17.7009L17.7271 10.4934L17.7358 10.4891H17.7489L17.7707 10.4716L17.7925 10.4891V10.5022H17.81L17.8143 10.5109H17.8274V10.4978L17.858 10.4847L17.9016 10.4803L17.9409 10.4585L17.9627 10.476H18.0107L18.0849 10.4105L18.3118 10.4629L18.2987 10.8556L18.0631 10.9865L18.05 10.9778L18.0456 10.9822H18.0412V10.9603H18.0282V10.9865H18.0107L17.9932 10.9778V10.9691H18.0107V10.9647L17.9976 10.9603H17.9845V10.9516L17.9976 10.9429V10.9385L17.9845 10.9473L17.9758 10.9429L17.9671 10.9473L17.9758 10.9603L17.9627 10.9691V10.9778L17.9452 10.9734V10.9822H17.954L17.9278 10.9996L17.9191 10.9909V10.9865L17.906 10.9953H17.8885V10.9909L17.906 10.9865L17.9016 10.9822H17.8885V10.9691L17.8841 10.9822H17.8754V11.004H17.858L17.8536 10.9953C17.8536 10.9953 17.8405 10.9953 17.8449 11.004V11.0171L17.8318 11.0083H17.8231V11.0214H17.8143L17.7969 11.0127L17.8056 11.0258H17.7882L17.7794 11.0302L17.7882 11.0389L17.7925 11.0476L17.8012 11.0563L17.7969 11.0607H17.7925L17.7794 11.0738H17.7707L17.7663 11.0869L17.7576 11.0913L17.762 11.1H17.7663V11.1087H17.762L17.7445 11.1262V11.1305H17.7576L17.762 11.1523Z" fill="white" stroke="black" stroke-width="0.0174546"/>
<path fill-rule="evenodd" clip-rule="evenodd" d="M18.0761 11.1567L18.5779 11.4316L18.5823 11.4709L18.5648 11.4796L18.5692 11.4971L18.5866 11.5014L18.591 11.5189L18.7874 11.6585L18.8004 11.6498L18.8179 11.6585L18.8223 11.6411L18.8354 11.628L18.8572 11.58L18.8441 11.5756L18.8528 11.5582H18.8615L18.879 11.5363V11.5189L18.8703 11.5058L18.8834 11.5102L18.9008 11.4709L18.9183 11.4665L18.9226 11.436L18.9314 11.4273C18.9314 11.4273 18.9226 11.3923 18.9314 11.3792C18.9444 11.3662 18.9881 11.3662 18.9881 11.3662L19.0143 11.3356V11.3269L19.0317 11.3138L19.0143 11.2832L19.0492 11.292L19.0754 11.2832H19.0928L19.119 11.2483V11.2352L19.0361 11.1305V10.62L19.0841 10.5763L19.1626 10.4672L19.1408 10.4585L19.0623 10.4672L19.0404 10.4411H19.0317L19.0274 10.4236L19.0099 10.4149L18.879 10.476L18.8746 10.4978L18.8441 10.524V10.5414H18.8354L18.8266 10.5371L18.6914 10.5065L18.6826 10.5152H18.639L18.4775 10.3974H18.3597L18.3335 10.3887V10.3756H18.1154L18.0717 10.4192L18.0804 10.476H18.1023L18.111 10.5022H18.1328L18.1284 10.5283H18.1241V10.5589L18.1328 10.572L18.1459 10.5807V10.6025L18.1721 10.6156L18.1764 10.6462L18.1939 10.6549V10.668L18.1852 10.6854L18.2026 10.7116L18.1983 10.7291L18.207 10.7509V10.7596L18.2026 10.7858L18.1895 10.7945L18.1852 10.812H18.1764V10.8469H18.1546L18.1459 10.86L18.1328 10.8556V10.8862L18.1197 10.9036H18.1066V10.9167L18.0892 10.9254L18.0848 10.9473V10.9691L18.063 10.9778V11.0171L18.0761 11.0214H18.0848L18.0804 11.0345L18.0935 11.0389L18.1023 11.0607L18.1197 11.0476V11.0345H18.1415L18.1677 11.0214L18.1764 11.0389L18.1852 11.052H18.1677L18.1634 11.0607H18.1503L18.1284 11.0563V11.0651L18.1372 11.0738L18.1241 11.0825L18.1197 11.0738L18.1066 11.0782H18.0979L18.0848 11.0694V11.0869H18.0761L18.0674 11.1087L18.0804 11.1218L18.0935 11.1305L18.0804 11.148L18.0761 11.1567ZM18.8441 12.108L18.8615 12.0949V12.0862H18.879L18.8877 12.0643V12.0862L18.879 12.0949V12.108H18.8703V12.1211L18.8659 12.1123L18.8441 12.108ZM18.7917 11.8636V11.8331L18.7874 11.8287L18.8048 11.8156V11.7982L18.8266 11.7894V11.8069H18.8135V11.8331L18.8223 11.8462V11.8593L18.8354 11.868L18.8484 11.8854V11.8985L18.8354 11.9029L18.8179 11.8811L18.8004 11.8854L18.7917 11.8636ZM18.8572 11.7502V11.7327L18.8659 11.7153L18.8528 11.6803H18.8703L18.8746 11.6978H18.8834V11.6847C18.8834 11.6847 18.8921 11.6803 18.8921 11.6847L18.8877 11.724L18.8921 11.7414L18.8834 11.7545L18.8703 11.7676L18.8572 11.7502Z" fill="white" stroke="black" stroke-width="0.0174546"/>
<path fill-rule="evenodd" clip-rule="evenodd" d="M18.9577 12.4572L18.9009 12.5008L18.8224 12.5357L18.8006 12.5488H18.7613L18.7308 12.5575L18.7133 12.5663L18.6915 12.5881L18.6566 12.5663H18.6129L18.5999 12.5793V12.6012L18.5693 12.6143H18.5562L18.5431 12.623L18.4995 12.6186L18.482 12.6012L18.4602 12.6055L18.4253 12.6317L18.4078 12.6273V12.6186H18.3948L18.386 12.6273L18.3642 12.623V12.6055H18.3511L18.3337 12.5793H18.3118L18.3075 12.5924L18.29 12.6055L18.2726 12.6012H18.2071L18.1897 12.5706H18.1722L18.1548 12.527V12.5052L18.1635 12.4964V12.4703L18.146 12.4572L18.1504 12.4135L18.146 12.4048L18.1417 12.3873L18.1111 12.3568V12.3437L18.0762 12.3175H18.0631V12.3437L18.0457 12.3393L18.0369 12.3263L17.9933 12.335L17.9758 12.3132L17.954 12.3175L17.9366 12.3044H17.9148L17.8973 12.287H17.858L17.8493 12.2608H17.8231L17.8144 12.2564H17.7838V12.2433L17.7489 12.239L17.7315 12.2259V12.2041L17.7053 12.191L17.6835 12.1953L17.6748 12.1692L17.6529 12.1517L17.6486 12.1255L17.618 12.0819V12.0644L17.6006 12.047V12.0121L17.5875 11.9946V11.9772H17.5962V11.9641L17.5744 11.9466L17.5657 11.9292L17.5308 11.903H17.5046L17.474 11.8681V11.8506L17.4871 11.8332H17.5046L17.5089 11.8201V11.807L17.4784 11.7633V11.7415L17.4915 11.7328L17.4871 11.7066L17.4609 11.6804V11.6543L17.4653 11.6324V11.6237L17.4915 11.615L17.5046 11.6063L17.5177 11.5932V11.5801L17.5438 11.5713V11.5583L17.5657 11.5321V11.519L17.5788 11.4972L17.6093 11.4841V11.4753L17.6311 11.4623V11.4186L17.6224 11.4143H17.6093L17.5962 11.4099H17.5744V11.3968L17.5875 11.3793L17.5788 11.3706L17.5918 11.3444L17.6355 11.3401V11.3095L17.6398 11.2964L17.6224 11.2746V11.231L17.6137 11.2179V11.2048L17.5918 11.1917L17.5744 11.1612H17.6006L17.6137 11.1481H17.7664L17.7708 11.1612V11.1786L17.762 11.2004L17.7577 11.2135V11.2223L17.7533 11.2397V11.2572L17.7446 11.2659V11.279L17.7358 11.2877H17.7489V11.3095L17.7402 11.327H17.7751L17.762 11.3532L17.7577 11.3706L17.762 11.3968L17.7795 11.3793L17.7926 11.3924V11.3706L17.7969 11.3532L17.8144 11.3619L17.8188 11.3532L17.81 11.3357L17.8275 11.3183L17.8449 11.3401L17.858 11.3444L17.8668 11.3663L17.8798 11.3401L17.8842 11.3575H17.9017V11.375L17.9148 11.3924L17.8973 11.4012V11.423H17.9104V11.4012H17.9278L17.9191 11.3793L17.9148 11.3619L17.9322 11.3357H17.9497L17.9584 11.3575H17.9889L18.0151 11.3313L18.05 11.3183L18.0413 11.2964H18.0326L18.0195 11.3095L17.9802 11.3052L17.9671 11.2964L17.9584 11.3052H17.9453L17.9104 11.2921V11.279L17.9017 11.2746L17.9191 11.2659L17.9278 11.279H17.9366L17.9497 11.2746L17.9671 11.2877L17.9933 11.2833V11.2703L17.9758 11.2659V11.2528H18.0064L18.0108 11.2441L18.0326 11.2353L18.0195 11.2179V11.2092L18.0631 11.2179L18.0413 11.2004L18.0457 11.183L18.0718 11.2004V11.1917L18.0544 11.1786L18.0806 11.1524L18.5868 11.4273L18.5911 11.4666L18.5737 11.4797V11.4972H18.5955V11.5146L18.7919 11.6455L18.8049 11.6673L18.7919 11.6804L18.7831 11.6979L18.7788 11.7284L18.77 11.7459V11.7721L18.7526 11.7895L18.7395 11.8201V11.8419L18.7526 11.8593L18.7439 11.8855L18.7657 11.903H18.7788L18.818 11.9466L18.8355 11.9641L18.8442 11.9859L18.8355 12.0077L18.8224 12.0121L18.8093 12.0557V12.0819L18.8268 12.0993L18.8224 12.1168L18.8137 12.143L18.8049 12.1692L18.8137 12.1953L18.8224 12.2172L18.8311 12.2259V12.2433H18.8224L18.8355 12.2652L18.8529 12.2739V12.3088H18.8486V12.3175L18.866 12.3306L18.8748 12.3743L18.866 12.3873V12.3961H18.8922L18.9009 12.4179L18.9184 12.4135L18.9489 12.4266L18.962 12.4484L18.9577 12.4572Z" fill="white" stroke="black" stroke-width="0.0174546"/>
<path fill-rule="evenodd" clip-rule="evenodd" d="M17.3731 11.3487C17.36 11.3356 17.4167 11.3051 17.408 11.2833C17.408 11.2396 17.4298 11.2265 17.4778 11.2091L17.504 11.1916C17.5171 11.2004 17.5171 11.2222 17.5302 11.2091C17.5432 11.2004 17.5738 11.1524 17.5956 11.1611C17.5825 11.1785 17.6087 11.2135 17.6262 11.2265L17.6523 11.3095C17.6436 11.34 17.6262 11.34 17.5912 11.3356C17.5563 11.3225 17.5476 11.3487 17.5214 11.3269C17.5171 11.3575 17.5214 11.3836 17.4822 11.3967C17.4603 11.3967 17.4385 11.3967 17.4385 11.3836C17.4211 11.3618 17.3949 11.3618 17.3862 11.3836C17.3818 11.3749 17.3731 11.3705 17.3731 11.3487Z" fill="white" stroke="black" stroke-width="0.0218183"/>
<path fill-rule="evenodd" clip-rule="evenodd" d="M17.3862 11.3837C17.408 11.3357 17.4342 11.3881 17.443 11.3881C17.5084 11.3968 17.5084 11.3837 17.5215 11.3226C17.5564 11.3488 17.5433 11.3226 17.6175 11.3401C17.6044 11.3401 17.5739 11.375 17.5957 11.375C17.5782 11.423 17.6175 11.423 17.6437 11.4186C17.6306 11.4361 17.6655 11.4448 17.6306 11.4623C17.6088 11.4754 17.6088 11.4623 17.6088 11.4928L17.5826 11.4972C17.5782 11.5059 17.5957 11.5234 17.5913 11.5234C17.5913 11.5234 17.5826 11.5452 17.5651 11.5583C17.5433 11.5714 17.5346 11.5932 17.5084 11.6019L17.4779 11.6106L17.4342 11.5321C17.4299 11.5103 17.4342 11.4841 17.4211 11.4623V11.423C17.408 11.4099 17.395 11.4012 17.3862 11.3794" fill="white"/>
<path d="M17.3862 11.3837C17.408 11.3357 17.4342 11.3881 17.443 11.3881C17.5084 11.3968 17.5084 11.3837 17.5215 11.3226C17.5564 11.3488 17.5433 11.3226 17.6175 11.3401C17.6044 11.3401 17.5739 11.375 17.5957 11.375C17.5782 11.423 17.6175 11.423 17.6437 11.4186C17.6306 11.4361 17.6655 11.4448 17.6306 11.4623C17.6088 11.4754 17.6088 11.4623 17.6088 11.4928L17.5826 11.4972C17.5782 11.5059 17.5957 11.5234 17.5913 11.5234C17.5913 11.5234 17.5826 11.5452 17.5651 11.5583C17.5433 11.5714 17.5346 11.5932 17.5084 11.6019L17.4779 11.6106L17.4342 11.5321C17.4299 11.5103 17.4342 11.4841 17.4211 11.4623V11.423C17.408 11.4099 17.395 11.4012 17.3862 11.3794" stroke="black" stroke-width="0.0218183"/>
</g>
<defs>
<clipPath id="clip0_11930_67877">
<rect width="36" height="24" rx="2" fill="white"/>
</clipPath>
</defs>
</svg>
