<svg width="36" height="24" viewBox="0 0 36 24" fill="none" xmlns="http://www.w3.org/2000/svg">
<g clip-path="url(#clip0_11930_67880)">
<path fill-rule="evenodd" clip-rule="evenodd" d="M0 0H36V24H0V0Z" fill="#FFD935"/>
<path fill-rule="evenodd" clip-rule="evenodd" d="M0 12H36V24H0V12Z" fill="#0748AE"/>
<path fill-rule="evenodd" clip-rule="evenodd" d="M0 18H36V24H0V18Z" fill="#DE2035"/>
<path fill-rule="evenodd" clip-rule="evenodd" d="M15.4781 14.54L11.8481 18.365L11.7881 18.285L15.4081 14.46L15.4681 14.54H15.4781ZM17.9981 15.165L13.2581 20.165L13.1781 20.085L17.9131 15.085L17.9981 15.165Z" fill="black"/>
<path fill-rule="evenodd" clip-rule="evenodd" d="M13.2725 20.1064L12.8295 20.5494L12.3245 20.9305L12.7056 20.4255L13.1486 19.9825L13.2725 20.1064Z" fill="#808080" stroke="black" stroke-width="0.0242559"/>
<path fill-rule="evenodd" clip-rule="evenodd" d="M12.0527 18.1516L11.6097 18.5946L11.1048 18.9757L11.4858 18.4707L11.9288 18.0277L12.0527 18.1516Z" fill="#808080" stroke="black" stroke-width="0.0242559"/>
<path fill-rule="evenodd" clip-rule="evenodd" d="M12.397 5.7395C12.397 5.7395 11.9988 16.5107 13.5918 16.5107C15.1848 16.5107 15.9835 15.3779 15.9835 15.3779L15.9655 9.4579L12.397 5.7395Z" fill="#FFDF00" stroke="black" stroke-width="0.0357771"/>
<path fill-rule="evenodd" clip-rule="evenodd" d="M13.3714 6.74438C13.3714 7.31078 13.1937 15.378 13.9902 15.378C14.7867 15.378 15.9837 14.8116 15.9837 14.8116L15.9657 9.45798L13.3714 6.74438Z" fill="#0000C4" stroke="black" stroke-width="0.0357771"/>
<path fill-rule="evenodd" clip-rule="evenodd" d="M13.8887 7.28833C13.8887 7.85473 13.9899 14.2451 14.7887 14.2451H15.9834L15.9654 9.45793L13.8887 7.28833Z" fill="#E10000" stroke="black" stroke-width="0.0357771"/>
<path fill-rule="evenodd" clip-rule="evenodd" d="M12.3101 5.79997L15.9301 9.62497L15.9951 9.54497L12.3751 5.71997L12.3101 5.79997Z" fill="black"/>
<path fill-rule="evenodd" clip-rule="evenodd" d="M11.215 7.94678C11.215 7.94678 10.1884 18.3814 13.2682 18.3814C15.8347 18.3814 15.8347 16.7353 16.348 16.7353L15.8347 12.8913L11.215 7.94678Z" fill="#FFDF00" stroke="black" stroke-width="0.0399778"/>
<path d="M13.7594 9.68147C13.7814 9.67982 14.5604 7.99402 16.5074 6.92697" stroke="black" stroke-width="0.0433076"/>
<path fill-rule="evenodd" clip-rule="evenodd" d="M13.4409 8.09233C13.7124 8.21903 13.8842 8.36483 14.0406 8.53483C13.7299 8.46973 13.5696 8.44343 13.2981 8.31673C13.0266 8.19003 12.8192 7.99623 12.6544 7.83943C12.8565 7.90093 13.1679 7.96493 13.4409 8.09233Z" fill="#005B00" stroke="black" stroke-width="0.0195879"/>
<path fill-rule="evenodd" clip-rule="evenodd" d="M14.1219 9.12476C14.1419 9.15876 14.1247 9.20666 14.0824 9.23016C14.0401 9.25366 13.9894 9.24461 13.9689 9.20976C13.9484 9.17491 13.9666 9.12871 14.0089 9.10521C14.0512 9.08171 14.1019 9.09076 14.1219 9.12476Z" fill="#FF0000" stroke="black" stroke-width="0.013435"/>
<path fill-rule="evenodd" clip-rule="evenodd" d="M14.975 7.01335C14.8573 7.312 14.7275 7.5088 14.5779 7.6924C14.6452 7.36015 14.6737 7.1896 14.7914 6.89095C14.909 6.5923 15.0807 6.3526 15.2195 6.1618C15.1596 6.3802 15.0933 6.71305 14.975 7.01335Z" fill="#005B00" stroke="black" stroke-width="0.0184667"/>
<path fill-rule="evenodd" clip-rule="evenodd" d="M14.5779 6.9978C14.5507 7.29645 14.4912 7.52775 14.413 7.76235C14.3926 7.4721 14.3773 7.32705 14.4045 7.0284C14.4316 6.72975 14.5149 6.43905 14.5829 6.20625C14.5839 6.4074 14.6052 6.6975 14.5779 6.9978Z" fill="#005B00" stroke="black" stroke-width="0.0159446"/>
<path fill-rule="evenodd" clip-rule="evenodd" d="M14.8372 7.33941C14.6833 7.52041 14.5539 7.59891 14.4179 7.64991C14.555 7.39891 14.6221 7.26541 14.776 7.08441C14.9298 6.90341 15.0947 6.81841 15.2271 6.75241C15.1286 6.90516 14.9919 7.15741 14.8372 7.33941Z" fill="#005B00" stroke="black" stroke-width="0.0173186"/>
<path fill-rule="evenodd" clip-rule="evenodd" d="M13.5264 7.59231C13.7074 7.80951 13.7974 8.01871 13.8654 8.24991C13.6284 8.08871 13.5034 8.01351 13.3224 7.79631C13.1414 7.57911 13.0394 7.30711 12.9594 7.08791C13.1064 7.21371 13.3444 7.37391 13.5264 7.59231Z" fill="#005B00" stroke="black" stroke-width="0.0198173"/>
<path fill-rule="evenodd" clip-rule="evenodd" d="M13.1623 9.26651C13.3885 9.44751 13.5079 9.63411 13.6031 9.84491C13.3153 9.72551 13.1641 9.67191 12.9379 9.49091C12.7116 9.30991 12.5739 9.06511 12.4655 8.86751C12.6458 8.96621 12.9348 9.08451 13.1623 9.26651Z" fill="#005B00" stroke="black" stroke-width="0.0210406"/>
<path fill-rule="evenodd" clip-rule="evenodd" d="M14.2218 9.16709C14.0408 9.45669 13.845 9.65129 13.6206 9.83489C13.7288 9.51729 13.7756 9.35469 13.9566 9.06509C14.1376 8.77549 14.396 8.53749 14.6048 8.34789C14.5107 8.55779 14.4038 8.87589 14.2218 9.16709Z" fill="#005B00" stroke="black" stroke-width="0.0216148"/>
<path fill-rule="evenodd" clip-rule="evenodd" d="M14.4109 9.15572C14.1213 9.35482 13.8692 9.45842 13.6006 9.54002C13.8482 9.28492 13.9683 9.15082 14.2579 8.95172C14.5475 8.75262 14.8705 8.63362 15.1301 8.54002C14.949 8.69942 14.7021 8.95552 14.4109 9.15572Z" fill="#005B00" stroke="black" stroke-width="0.020772"/>
<path fill-rule="evenodd" clip-rule="evenodd" d="M16.3633 7.07461C16.2366 7.21941 16.123 7.30521 16.0006 7.38001C16.1049 7.20721 16.155 7.11741 16.2817 6.97261C16.4084 6.82781 16.5546 6.72581 16.6722 6.64501C16.5946 6.75571 16.4907 6.92901 16.3633 7.07461Z" fill="#005B00" stroke="black" stroke-width="0.0110003"/>
<path fill-rule="evenodd" clip-rule="evenodd" d="M16.0888 6.64735C16.0164 6.8012 15.939 6.9168 15.8506 7.0324C15.895 6.87855 15.9144 6.8012 15.9868 6.64735C16.0592 6.4935 16.1612 6.349 16.2436 6.2334C16.2055 6.3388 16.1616 6.49265 16.0888 6.64735Z" fill="#005B00" stroke="black" stroke-width="0.00913803"/>
<path fill-rule="evenodd" clip-rule="evenodd" d="M16.5126 6.92354C16.3859 6.99594 16.2907 7.01814 16.1955 7.02494C16.3222 6.91334 16.3859 6.85314 16.5126 6.78074C16.6393 6.70834 16.7583 6.68794 16.8535 6.67274C16.7667 6.73844 16.64 6.85074 16.5126 6.92354Z" fill="#005B00" stroke="black" stroke-width="0.0100165"/>
<path fill-rule="evenodd" clip-rule="evenodd" d="M14.7642 7.73458C14.5379 7.87033 14.3518 7.94933 14.158 8.01733C14.3647 7.85358 14.4665 7.76833 14.6928 7.63258C14.919 7.49683 15.1553 7.40333 15.3449 7.32933C15.198 7.43383 14.9917 7.59808 14.7642 7.73458Z" fill="#005B00" stroke="black" stroke-width="0.0125765"/>
<path fill-rule="evenodd" clip-rule="evenodd" d="M15.4245 7.93723C15.1259 8.11823 14.8716 8.20363 14.603 8.26483C14.8652 8.02223 14.9933 7.89383 15.2919 7.71283C15.5906 7.53183 15.9153 7.43663 16.1761 7.36223C15.9864 7.51153 15.7248 7.75523 15.4245 7.93723Z" fill="#005B00" stroke="black" stroke-width="0.0209344"/>
<path d="M13.3951 10.8667C13.4144 10.8557 13.2324 9.26771 14.4472 7.61591" stroke="black" stroke-width="0.0426286"/>
<path fill-rule="evenodd" clip-rule="evenodd" d="M15.2569 7.51977C15.2769 7.55377 15.2597 7.60167 15.2174 7.62517C15.1751 7.64867 15.1244 7.63962 15.1039 7.60477C15.0834 7.56992 15.1016 7.52372 15.1439 7.50022C15.1862 7.47672 15.2369 7.48577 15.2569 7.51977Z" fill="#FF0000" stroke="black" stroke-width="0.013435"/>
<path fill-rule="evenodd" clip-rule="evenodd" d="M15.7969 7.20483C15.8169 7.23883 15.7997 7.28673 15.7574 7.31023C15.7151 7.33373 15.6644 7.32468 15.6439 7.28983C15.6234 7.25498 15.6416 7.20878 15.6839 7.18528C15.7262 7.16178 15.7769 7.17083 15.7969 7.20483Z" fill="#FF0000" stroke="black" stroke-width="0.013435"/>
<path fill-rule="evenodd" clip-rule="evenodd" d="M14.29 8.26348C14.304 8.28948 14.2779 8.33058 14.2309 8.35408C14.1839 8.37758 14.1344 8.37513 14.12 8.34848C14.1057 8.32183 14.1325 8.28203 14.1795 8.25853C14.2265 8.23503 14.276 8.23748 14.29 8.26348Z" fill="#FF0000" stroke="black" stroke-width="0.0121134"/>
<path fill-rule="evenodd" clip-rule="evenodd" d="M14.4499 8.19341C14.4639 8.21941 14.4378 8.26051 14.3908 8.28401C14.3438 8.30751 14.2943 8.30506 14.2799 8.27841C14.2656 8.25176 14.2924 8.21196 14.3394 8.18846C14.3864 8.16496 14.4359 8.16741 14.4499 8.19341Z" fill="#FF0000" stroke="black" stroke-width="0.0121134"/>
<path fill-rule="evenodd" clip-rule="evenodd" d="M14.3552 8.34355C14.3692 8.36955 14.3431 8.41065 14.2961 8.43415C14.2491 8.45765 14.1996 8.4552 14.1852 8.42855C14.1709 8.4019 14.1977 8.3621 14.2447 8.3386C14.2917 8.3151 14.3412 8.31755 14.3552 8.34355Z" fill="#FF0000" stroke="black" stroke-width="0.0121134"/>
<path fill-rule="evenodd" clip-rule="evenodd" d="M14.6357 8.36491C14.6557 8.40491 14.6357 8.45491 14.5857 8.47991C14.5357 8.50491 14.4857 8.48991 14.4657 8.44491C14.4457 8.39991 14.4657 8.35491 14.5157 8.32991C14.5657 8.30491 14.6157 8.31991 14.6307 8.36491H14.6357Z" fill="#FF0000" stroke="black" stroke-width="0.015"/>
<path fill-rule="evenodd" clip-rule="evenodd" d="M14.7507 8.245C14.7657 8.285 14.7507 8.335 14.7007 8.36C14.6507 8.385 14.6007 8.37 14.5757 8.33C14.5507 8.29 14.5757 8.235 14.6257 8.21C14.6757 8.185 14.7257 8.205 14.7457 8.245H14.7507Z" fill="#FF0000" stroke="black" stroke-width="0.015"/>
<path fill-rule="evenodd" clip-rule="evenodd" d="M14.7756 8.29979C14.7956 8.33979 14.7756 8.39479 14.7256 8.41479C14.6756 8.43479 14.6256 8.42479 14.6056 8.38479C14.5856 8.34479 14.6056 8.29479 14.6556 8.26979C14.7056 8.24479 14.7556 8.25979 14.7756 8.29979Z" fill="#FF0000" stroke="black" stroke-width="0.015"/>
<path fill-rule="evenodd" clip-rule="evenodd" d="M12.2416 9.04724C12.2416 9.59594 11.215 15.6378 13.7844 17.2839C14.811 17.8326 16.3509 16.7352 16.3509 17.2839L15.8376 12.8912L12.2416 9.04724Z" fill="#0000C4" stroke="black" stroke-width="0.0399778"/>
<path fill-rule="evenodd" clip-rule="evenodd" d="M13.2682 10.1447C13.2682 10.6934 12.7549 15.0861 14.2977 16.1866C15.3243 17.284 17.8937 16.9864 17.8937 16.9864L15.8376 12.8913L13.2682 10.1447Z" fill="#E10000" stroke="black" stroke-width="0.0399778"/>
<path fill-rule="evenodd" clip-rule="evenodd" d="M11.1902 7.89995L15.9302 12.9L16.0152 12.82L11.2752 7.82495L11.1902 7.89995Z" fill="black"/>
<path fill-rule="evenodd" clip-rule="evenodd" d="M10.4609 7.30723L10.7618 7.36033L10.8503 7.44883C10.8382 7.44793 10.9388 7.53733 10.8149 7.66123C10.691 7.78513 10.5147 7.60743 10.5147 7.60743C10.5147 7.60743 10.5678 7.90833 10.7453 8.08583C10.9228 8.26333 11.1347 8.22743 11.1347 8.22743C11.1347 8.22743 10.933 8.06213 11.0816 7.92653C11.2304 7.78973 11.294 7.89113 11.294 7.89113L11.471 8.06813L11.5956 7.94353L10.8871 7.23503L10.834 6.93413L10.3776 6.85853L10.4611 7.30603L10.4609 7.30723Z" fill="#CECECC" stroke="black" stroke-width="0.0111555"/>
<path fill-rule="evenodd" clip-rule="evenodd" d="M11.1592 5.20612L11.5233 5.77052L11.9842 5.89492L11.6833 6.08962L12.232 6.07192L12.4805 6.24942L12.5695 6.10702L12.3203 5.92902L12.1261 5.37952L12.0725 5.75202L11.7891 5.34362L11.159 5.20482L11.1592 5.20612Z" fill="#CECECC" stroke="black" stroke-width="0.0120114"/>
<path fill-rule="evenodd" clip-rule="evenodd" d="M12.64 5.54498C12.64 5.57498 12.6 5.60048 12.554 5.60048C12.508 5.60048 12.466 5.57498 12.466 5.54498C12.466 5.51498 12.506 5.48798 12.554 5.48798C12.602 5.48798 12.64 5.51348 12.64 5.54498ZM12.516 5.66348C12.516 6.20048 12.934 8.48048 12.968 8.53598C12.97 8.60348 12.872 8.63198 12.826 8.54948C12.694 8.28848 12.41 6.14948 12.4 5.64998C12.394 5.44448 12.474 5.42798 12.566 5.43248C12.64 5.43548 12.732 5.48798 12.732 5.55098C12.732 5.62598 12.616 5.68148 12.516 5.66348Z" fill="#E10000" stroke="black" stroke-width="0.023094"/>
<path fill-rule="evenodd" clip-rule="evenodd" d="M12.8002 6.07747C12.7852 6.10747 12.7344 6.12297 12.6907 6.11147C12.647 6.09997 12.6199 6.06397 12.6349 6.03397C12.6499 6.00397 12.7014 5.98697 12.747 5.99897C12.7926 6.01097 12.8159 6.04597 12.8002 6.07747ZM12.6231 6.16497C12.7611 7.24347 12.2982 8.90897 12.302 8.97447C12.2709 9.04097 12.1628 9.04647 12.1611 8.95097C12.1383 8.88897 12.6713 7.38447 12.5197 6.12247C12.6167 5.91547 12.701 5.91897 12.7861 5.94647C12.8549 5.96797 12.9161 6.04347 12.8846 6.10647C12.8471 6.18147 12.7091 6.20797 12.6231 6.16497Z" fill="#0000C4" stroke="black" stroke-width="0.0242024"/>
<path fill-rule="evenodd" clip-rule="evenodd" d="M11.3352 7.57492C11.3352 7.62492 11.2852 7.67492 11.2252 7.67492C11.1652 7.67492 11.1152 7.62492 11.1152 7.57492C11.1152 7.52492 11.1652 7.48492 11.2252 7.48492C11.2852 7.48492 11.3302 7.52492 11.3302 7.57492H11.3352ZM11.1752 7.77492C11.1752 8.66992 11.7002 12.4699 11.7402 12.5649C11.7402 12.6749 11.6252 12.7249 11.5652 12.5849C11.4002 12.1499 11.0452 8.58492 11.0302 7.75492C11.0252 7.40992 11.1252 7.38492 11.2402 7.38992C11.3352 7.39492 11.4452 7.48492 11.4452 7.58992C11.4452 7.70992 11.3002 7.80492 11.1752 7.77492Z" fill="#E10000" stroke="black" stroke-width="0.035"/>
<path fill-rule="evenodd" clip-rule="evenodd" d="M11.6051 8.03669C11.5851 8.08469 11.5201 8.11049 11.4649 8.09324C11.4097 8.07599 11.3763 8.01944 11.3963 7.97144C11.4163 7.92344 11.4823 7.89524 11.5399 7.91324C11.5975 7.93124 11.6261 7.98629 11.6051 8.03669ZM11.3773 8.17979C11.5193 9.88964 10.8791 12.5458 10.8819 12.6498C10.8403 12.7561 10.7027 12.7674 10.7035 12.6157C10.6765 12.5178 11.4007 10.1157 11.2471 8.11469C11.3769 7.78364 11.4839 7.78724 11.5913 7.82894C11.6781 7.86149 11.7535 7.97999 11.7115 8.08079C11.6615 8.20079 11.4853 8.24609 11.3773 8.17979Z" fill="#0000C4" stroke="black" stroke-width="0.0340916"/>
<path fill-rule="evenodd" clip-rule="evenodd" d="M20.52 14.54L24.145 18.365L24.21 18.285L20.585 14.46L20.52 14.54ZM18 15.165L22.74 20.165L22.82 20.085L18.085 15.085L18 15.165Z" fill="black"/>
<path fill-rule="evenodd" clip-rule="evenodd" d="M22.7256 20.1066L23.1686 20.5496L23.6735 20.9306L23.2925 20.4257L22.8495 19.9827L22.7256 20.1066Z" fill="#808080" stroke="black" stroke-width="0.0242559"/>
<path fill-rule="evenodd" clip-rule="evenodd" d="M23.9453 18.1516L24.3883 18.5946L24.8933 18.9757L24.5122 18.4707L24.0692 18.0277L23.9453 18.1516Z" fill="#808080" stroke="black" stroke-width="0.0242559"/>
<path fill-rule="evenodd" clip-rule="evenodd" d="M23.6003 5.7395C23.6003 5.7395 23.9985 16.5107 22.4055 16.5107C20.8125 16.5107 20.0138 15.3779 20.0138 15.3779L20.0318 9.4579L23.6003 5.7395Z" fill="#FFDF00" stroke="black" stroke-width="0.0357771"/>
<path fill-rule="evenodd" clip-rule="evenodd" d="M22.6261 6.74438C22.6261 7.31078 22.8039 15.378 22.0074 15.378C21.2109 15.378 20.0139 14.8116 20.0139 14.8116L20.0319 9.45798L22.6261 6.74438Z" fill="#0000C4" stroke="black" stroke-width="0.0357771"/>
<path fill-rule="evenodd" clip-rule="evenodd" d="M22.1084 7.28833C22.1084 7.85473 22.0071 14.2451 21.2084 14.2451H20.0136L20.0316 9.45793L22.1084 7.28833Z" fill="#E10000" stroke="black" stroke-width="0.0357771"/>
<path fill-rule="evenodd" clip-rule="evenodd" d="M23.6872 5.79997L20.0672 9.62497L20.0022 9.54497L23.6222 5.71997L23.6872 5.79997Z" fill="black"/>
<path fill-rule="evenodd" clip-rule="evenodd" d="M20.8305 8.75373C20.8305 8.75373 21.8453 10.0557 22.3349 11.062C22.8241 12.0703 23.3953 13.6068 23.3953 13.6068C23.3953 13.6068 23.0689 12.0941 22.4529 10.8814C21.6457 9.35574 20.8301 8.84053 20.8305 8.75373Z" fill="#005B00" stroke="black" stroke-width="0.0166935"/>
<path fill-rule="evenodd" clip-rule="evenodd" d="M20.7954 7.71936C20.7954 7.71936 21.9279 9.32961 22.4448 10.5239C22.961 11.7204 23.5358 13.5139 23.5358 13.5139C23.5358 13.5139 23.2568 11.7884 22.6023 10.3446C21.7397 8.52286 20.7882 7.81511 20.7954 7.71936Z" fill="#005B00" stroke="black" stroke-width="0.0192891"/>
<path fill-rule="evenodd" clip-rule="evenodd" d="M21.7725 6.1273C21.7725 6.1273 22.5737 8.5118 22.8179 9.9863C23.0607 11.4621 23.209 13.4931 23.209 13.4931C23.209 13.4931 23.3633 11.7885 23.0361 9.979C22.5833 7.6623 21.7393 6.2012 21.7725 6.1273Z" fill="#005B00" stroke="black" stroke-width="0.0219095"/>
<path fill-rule="evenodd" clip-rule="evenodd" d="M21.0533 6.01814C21.0533 6.01814 22.1628 8.13579 22.5949 9.57484C23.0259 11.0159 23.4312 13.095 23.4312 13.095C23.4312 13.095 23.3727 11.2063 22.8145 9.45459C22.0656 7.22924 21.0291 6.11369 21.0533 6.01814Z" fill="#005B00" stroke="black" stroke-width="0.0222015"/>
<path fill-rule="evenodd" clip-rule="evenodd" d="M22.3857 6.69207C22.3857 6.69207 22.9378 8.97207 23.0765 10.3323C23.2141 11.6935 23.2535 13.53 23.2535 13.53C23.2535 13.53 23.4453 12.0437 23.2528 10.3689C22.9791 8.21807 22.356 6.75127 22.3857 6.69207Z" fill="#005B00" stroke="black" stroke-width="0.0196887"/>
<path fill-rule="evenodd" clip-rule="evenodd" d="M20.9266 6.75488C20.9266 6.75488 21.9999 8.56888 22.4342 9.83688C22.8676 11.1069 23.2943 12.9629 23.2943 12.9629C23.2943 12.9629 23.1906 11.2429 22.6323 9.70288C21.8868 7.75088 20.9069 6.84488 20.9266 6.75488Z" fill="#005B00" stroke="black" stroke-width="0.0202494"/>
<path fill-rule="evenodd" clip-rule="evenodd" d="M20.7253 8.01814C20.7253 8.01814 21.8578 9.45619 22.3747 10.5575C22.8909 11.6611 23.4657 13.3368 23.4657 13.3368C23.4657 13.3368 23.1867 11.6951 22.5322 10.3669C21.6696 8.69484 20.7181 8.11169 20.7253 8.01814Z" fill="#005B00" stroke="black" stroke-width="0.0190759"/>
<path fill-rule="evenodd" clip-rule="evenodd" d="M20.8726 7.35759C20.8726 7.35759 21.9143 9.04934 22.3678 10.2731C22.8206 11.499 23.3026 13.3175 23.3026 13.3175C23.3026 13.3175 23.1096 11.5942 22.5321 10.1119C21.7671 8.23809 20.8608 7.45104 20.8726 7.35759Z" fill="#005B00" stroke="black" stroke-width="0.019035"/>
<path fill-rule="evenodd" clip-rule="evenodd" d="M22.0005 6.16345C22.0005 6.16345 22.6703 8.498 22.8363 9.92385C23.0009 11.3509 23.0439 13.3016 23.0439 13.3016C23.0439 13.3016 23.2831 11.6841 23.0521 9.9323C22.723 7.68715 21.964 6.2317 22.0005 6.16345Z" fill="#005B00" stroke="black" stroke-width="0.0212974"/>
<path fill-rule="evenodd" clip-rule="evenodd" d="M21.0812 5.58142C21.0812 5.58142 22.0592 7.78057 22.4132 9.24912C22.766 10.7196 23.066 12.8237 23.066 12.8237C23.066 12.8237 23.0924 10.9372 22.6304 9.14697C22.0052 6.86952 21.0536 5.67467 21.0812 5.58142Z" fill="#005B00" stroke="black" stroke-width="0.0218954"/>
<path fill-rule="evenodd" clip-rule="evenodd" d="M22.6386 6.85906C22.6386 6.85906 23.0592 9.04836 23.1198 10.3452C23.1792 11.6429 23.1133 13.3866 23.1133 13.3866C23.1133 13.3866 23.39 11.9863 23.2937 10.3885C23.1437 8.33526 22.6055 6.91376 22.6386 6.85906Z" fill="#005B00" stroke="black" stroke-width="0.0189312"/>
<path fill-rule="evenodd" clip-rule="evenodd" d="M20.9562 6.48809C20.9562 6.48809 21.9342 8.38359 22.2882 9.68109C22.641 10.9805 22.941 12.8615 22.941 12.8615C22.941 12.8615 22.9674 11.1437 22.5054 9.56519C21.8802 7.56109 20.9286 6.57579 20.9562 6.48809Z" fill="#005B00" stroke="black" stroke-width="0.0206917"/>
<path fill-rule="evenodd" clip-rule="evenodd" d="M24.7825 7.94678C24.7825 7.94678 25.8091 18.3814 22.7293 18.3814C20.1628 18.3814 20.1628 16.7353 19.6495 16.7353L20.1628 12.8913L24.7825 7.94678Z" fill="#FFDF00" stroke="black" stroke-width="0.0399778"/>
<path fill-rule="evenodd" clip-rule="evenodd" d="M23.756 9.04712C23.756 9.59582 24.7826 15.6377 22.2132 17.2838C21.1866 17.8325 19.6467 16.7351 19.6467 17.2838L20.16 12.8911L23.756 9.04712Z" fill="#0000C4" stroke="black" stroke-width="0.0399778"/>
<path fill-rule="evenodd" clip-rule="evenodd" d="M22.7293 10.1445C22.7293 10.6932 23.2426 15.0859 21.6998 16.1864C20.6732 17.2838 18.1038 16.9862 18.1038 16.9862L20.1599 12.8911L22.7293 10.1445Z" fill="#E10000" stroke="black" stroke-width="0.0399778"/>
<path fill-rule="evenodd" clip-rule="evenodd" d="M24.8074 7.89995L20.0674 12.9L19.9824 12.82L24.7224 7.82495L24.8074 7.89995Z" fill="black"/>
<path fill-rule="evenodd" clip-rule="evenodd" d="M25.5367 7.30723L25.2358 7.36033L25.1473 7.44883C25.1594 7.44793 25.0588 7.53733 25.1827 7.66123C25.3066 7.78513 25.4829 7.60743 25.4829 7.60743C25.4829 7.60743 25.4298 7.90833 25.2523 8.08583C25.0748 8.26333 24.8629 8.22743 24.8629 8.22743C24.8629 8.22743 25.0646 8.06213 24.916 7.92653C24.7672 7.78973 24.7036 7.89113 24.7036 7.89113L24.5266 8.06813L24.402 7.94353L25.1105 7.23503L25.1636 6.93413L25.62 6.85853L25.5365 7.30603L25.5367 7.30723Z" fill="#CECECC" stroke="black" stroke-width="0.0111555"/>
<path fill-rule="evenodd" clip-rule="evenodd" d="M24.8384 5.20612L24.4743 5.77052L24.0134 5.89492L24.3143 6.08962L23.7656 6.07192L23.5171 6.24942L23.4281 6.10702L23.6773 5.92902L23.8715 5.37952L23.9251 5.75202L24.2085 5.34362L24.8386 5.20482L24.8384 5.20612Z" fill="#CECECC" stroke="black" stroke-width="0.0120114"/>
<path fill-rule="evenodd" clip-rule="evenodd" d="M23.3622 5.54498C23.3622 5.57498 23.4022 5.60048 23.4482 5.60048C23.4942 5.60048 23.5362 5.57498 23.5362 5.54498C23.5362 5.51498 23.4962 5.48798 23.4482 5.48798C23.4002 5.48798 23.3622 5.51348 23.3622 5.54498ZM23.4862 5.66348C23.4862 6.20048 23.0682 8.48048 23.0342 8.53598C23.0322 8.60348 23.1302 8.63198 23.1762 8.54948C23.3082 8.28848 23.5922 6.14948 23.6022 5.64998C23.6082 5.44448 23.5282 5.42798 23.4362 5.43248C23.3622 5.43548 23.2702 5.48798 23.2702 5.55098C23.2702 5.62598 23.3862 5.68148 23.4862 5.66348Z" fill="#E10000" stroke="black" stroke-width="0.023094"/>
<path fill-rule="evenodd" clip-rule="evenodd" d="M23.1974 6.07747C23.2124 6.10747 23.2631 6.12297 23.3068 6.11147C23.3505 6.09997 23.3777 6.06397 23.3627 6.03397C23.3477 6.00397 23.2962 5.98697 23.2506 5.99897C23.205 6.01097 23.1816 6.04597 23.1974 6.07747ZM23.3744 6.16497C23.2364 7.24347 23.6994 8.90897 23.6956 8.97447C23.7267 9.04097 23.8348 9.04647 23.8365 8.95097C23.8592 8.88897 23.3263 7.38447 23.4779 6.12247C23.3808 5.91547 23.2966 5.91897 23.2114 5.94647C23.1426 5.96797 23.0815 6.04347 23.113 6.10647C23.1505 6.18147 23.2884 6.20797 23.3744 6.16497Z" fill="#0000C4" stroke="black" stroke-width="0.0242024"/>
<path fill-rule="evenodd" clip-rule="evenodd" d="M24.6673 7.57492C24.6673 7.62492 24.7173 7.67492 24.7723 7.67492C24.8323 7.67492 24.8823 7.62492 24.8823 7.57492C24.8823 7.52492 24.8323 7.48492 24.7723 7.48492C24.7123 7.48492 24.6673 7.52492 24.6673 7.57492ZM24.8173 7.77492C24.6976 9.3787 24.5108 10.9768 24.2573 12.5649C24.2573 12.6749 24.3723 12.7249 24.4323 12.5849C24.5973 12.1499 24.9523 8.58492 24.9673 7.75492C24.9723 7.40992 24.8723 7.38492 24.7573 7.38992C24.6623 7.39492 24.5523 7.48492 24.5523 7.58992C24.5523 7.70992 24.6973 7.80492 24.8223 7.77492H24.8173Z" fill="#E10000" stroke="black" stroke-width="0.035"/>
<path fill-rule="evenodd" clip-rule="evenodd" d="M24.3925 8.03669C24.4125 8.08469 24.4775 8.11049 24.5327 8.09324C24.5879 8.07599 24.6213 8.01944 24.6013 7.97144C24.5813 7.92344 24.5153 7.89524 24.4577 7.91324C24.4001 7.93124 24.3715 7.98629 24.3925 8.03669ZM24.6203 8.17979C24.4783 9.88964 25.1185 12.5458 25.1157 12.6498C25.1573 12.7561 25.2949 12.7674 25.2941 12.6157C25.3211 12.5178 24.5969 10.1157 24.7505 8.11469C24.6207 7.78364 24.5137 7.78724 24.4063 7.82894C24.3195 7.86149 24.2441 7.97999 24.2861 8.08079C24.3361 8.20079 24.5123 8.24609 24.6203 8.17979Z" fill="#0000C4" stroke="black" stroke-width="0.0340916"/>
<path fill-rule="evenodd" clip-rule="evenodd" d="M16.3515 21.1281C16.5858 21.2719 16.8513 21.3476 17.1215 21.3476C17.3917 21.3476 17.6571 21.2719 17.8914 21.1281V16.7354H16.8648C17.3781 18.3815 17.3781 20.0307 16.3486 21.1281H16.3515Z" fill="#E10000" stroke="black" stroke-width="0.0399778"/>
<path fill-rule="evenodd" clip-rule="evenodd" d="M17.1642 16.8326C17.1642 19.9301 16.4204 20.6196 16.4204 21.2426C16.7302 21.2426 16.9367 20.9521 17.1642 20.5531C17.4739 19.9301 17.5037 16.7836 17.4739 16.8326H17.1642Z" fill="#0000C4" stroke="black" stroke-width="0.0329983"/>
<path fill-rule="evenodd" clip-rule="evenodd" d="M16.5447 16.8326C16.529 18.6421 15.7607 20.3186 15.906 20.6896C16.0705 21.0221 16.5447 19.9301 17.1642 20.5496C17.474 19.9301 17.5037 16.7836 17.474 16.8291L16.5447 16.8326Z" fill="#0000C4" stroke="black" stroke-width="0.0329983"/>
<path fill-rule="evenodd" clip-rule="evenodd" d="M16.6141 16.5685C16.6141 18.604 15.9019 18.7397 15.9019 19.2825C16.2116 19.2825 16.6124 18.9858 16.6141 19.0134C16.9239 18.604 16.9536 16.5363 16.9239 16.5685H16.6141Z" fill="#FFDF00" stroke="black" stroke-width="0.0267499"/>
<path fill-rule="evenodd" clip-rule="evenodd" d="M15.9949 16.5685C15.9791 17.7576 15.2284 18.7696 15.3736 19.0134C15.5399 19.2296 15.9949 18.604 16.6144 19.0134C16.9241 18.604 16.9539 16.5363 16.9241 16.5685H15.9949Z" fill="#FFDF00" stroke="black" stroke-width="0.0267499"/>
<path fill-rule="evenodd" clip-rule="evenodd" d="M19.6441 21.1281C19.4098 21.2719 19.1443 21.3476 18.8741 21.3476C18.6039 21.3476 18.3385 21.2719 18.1042 21.1281V16.7354H19.1308C18.6175 18.3815 18.6175 20.0307 19.647 21.1281H19.6441Z" fill="#E10000" stroke="black" stroke-width="0.0399778"/>
<path fill-rule="evenodd" clip-rule="evenodd" d="M18.8314 16.8326C18.8314 19.9301 19.5752 20.6196 19.5752 21.2426C19.2654 21.2426 19.0589 20.9521 18.8314 20.5531C18.5217 19.9301 18.4919 16.7836 18.5217 16.8326H18.8314Z" fill="#0000C4" stroke="black" stroke-width="0.0329983"/>
<path fill-rule="evenodd" clip-rule="evenodd" d="M19.4509 16.8326C19.4666 18.6421 20.2349 20.3186 20.0896 20.6896C19.9251 21.0221 19.4509 19.9301 18.8314 20.5496C18.5216 19.9301 18.4919 16.7836 18.5216 16.8291L19.4509 16.8326Z" fill="#0000C4" stroke="black" stroke-width="0.0329983"/>
<path fill-rule="evenodd" clip-rule="evenodd" d="M19.3815 16.5685C19.3815 18.604 20.0938 18.7397 20.0938 19.2825C19.784 19.2825 19.3833 18.9858 19.3815 19.0134C19.0718 18.604 19.042 16.5363 19.0718 16.5685H19.3815Z" fill="#FFDF00" stroke="black" stroke-width="0.0267499"/>
<path fill-rule="evenodd" clip-rule="evenodd" d="M20.0007 16.5685C20.0165 17.7576 20.7672 18.7696 20.622 19.0134C20.4557 19.2296 20.0007 18.604 19.3812 19.0134C19.0715 18.604 19.0417 16.5363 19.0715 16.5685H20.0007Z" fill="#FFDF00" stroke="black" stroke-width="0.0267499"/>
<path fill-rule="evenodd" clip-rule="evenodd" d="M14.0782 17.078L13.54 17.4674L14.0782 17.8568L14.347 17.6621L14.4814 17.8568L14.6158 18.2462L14.7508 17.8568L14.8852 17.6621H22.0966V17.2727H14.8846L14.7502 17.0769C14.7502 16.8822 14.7784 16.6875 14.8852 16.6875H15.4228C15.4228 16.4928 15.154 16.1034 14.6158 16.1034C14.0782 16.1034 13.8088 16.4928 13.8088 16.6875H14.347C14.4532 16.6875 14.4814 16.8822 14.4814 17.078L14.347 17.2727L14.0782 17.078Z" fill="#908F8A" stroke="black" stroke-width="0.0365582"/>
<path fill-rule="evenodd" clip-rule="evenodd" d="M15.6567 18.0218H20.3705V18.2608H15.6581L15.6567 18.0218ZM15.6567 17.7815H20.3705V18.0218H15.6581L15.6567 17.7815ZM15.6567 17.5426H20.3705V17.7829H15.6581L15.6567 17.5426ZM15.6567 17.3036H20.3705V17.5426H15.6581L15.6567 17.3036ZM15.6567 17.0647H20.3705V17.3036H15.6581L15.6567 17.0647ZM15.6567 16.8244H20.3705V17.0647H15.6581L15.6567 16.8244ZM15.6567 16.5868H20.3705V16.8244H15.6581L15.6567 16.5868Z" fill="#B74D00"/>
<path d="M20.3705 18.0218H15.6567L15.6581 18.2608H20.3705V18.0218ZM20.3705 18.0218V17.7815H15.6567L15.6581 18.0218H20.3705ZM20.3705 17.5426H15.6567L15.6581 17.7829H20.3705V17.5426ZM20.3705 17.5426V17.3036M20.3705 17.5426H15.6581L15.6567 17.3036H20.3705M20.3705 17.3036V17.0647M20.3705 17.3036H15.6581L15.6567 17.0647H20.3705M20.3705 17.0647V16.8244M20.3705 17.0647H15.6581L15.6567 16.8244H20.3705M20.3705 16.8244V16.5868H15.6567L15.6581 16.8244H20.3705Z" stroke="black" stroke-width="0.0247459"/>
<path fill-rule="evenodd" clip-rule="evenodd" d="M15.8816 16.5726L17.6041 18.2466H17.8503L16.1291 16.574H15.8828L15.8816 16.5726Z" fill="#908F8A" stroke="black" stroke-width="0.0428683"/>
<path fill-rule="evenodd" clip-rule="evenodd" d="M15.8816 18.2972L17.6041 16.6232H17.8503L16.1291 18.2959H15.8828L15.8816 18.2972Z" fill="#908F8A" stroke="black" stroke-width="0.0428683"/>
<path fill-rule="evenodd" clip-rule="evenodd" d="M15.9294 16.5726V18.2466H16.1772V16.5726H15.9294Z" fill="#908F8A" stroke="black" stroke-width="0.042618"/>
<path fill-rule="evenodd" clip-rule="evenodd" d="M18.0967 16.5726L19.8192 18.2466H20.0654L18.3442 16.574H18.0979L18.0967 16.5726Z" fill="#908F8A" stroke="black" stroke-width="0.0428683"/>
<path fill-rule="evenodd" clip-rule="evenodd" d="M18.0967 18.2972L19.8192 16.6232H20.0654L18.3442 18.2959H18.0979L18.0967 18.2972Z" fill="#908F8A" stroke="black" stroke-width="0.0428683"/>
<path fill-rule="evenodd" clip-rule="evenodd" d="M19.8696 16.5726V18.2466H20.1174V16.5726H19.8696Z" fill="#908F8A" stroke="black" stroke-width="0.042618"/>
<path fill-rule="evenodd" clip-rule="evenodd" d="M18.1494 16.5726V18.2466H18.3972V16.5726H18.1494Z" fill="#908F8A" stroke="black" stroke-width="0.042618"/>
<path fill-rule="evenodd" clip-rule="evenodd" d="M17.6494 16.5726V18.2466H17.8972V16.5726H17.6494Z" fill="#908F8A" stroke="black" stroke-width="0.042618"/>
<path fill-rule="evenodd" clip-rule="evenodd" d="M21.4903 11.7939C21.4903 14.5219 19.8779 16.7353 17.8943 16.7353C15.9107 16.7353 14.2983 14.5219 14.2983 11.7939C14.2983 9.06587 15.9078 6.84937 17.8943 6.84937C19.8808 6.84937 21.4903 9.06277 21.4903 11.7908V11.7939ZM20.977 11.7939C20.977 14.2181 19.5966 16.1866 17.8943 16.1866C16.192 16.1866 14.8116 14.2181 14.8116 11.7939C14.8116 9.36657 16.192 7.39807 17.8943 7.39807C19.5966 7.39807 20.977 9.36657 20.977 11.7939Z" fill="#FFDF00" stroke="black" stroke-width="0.0399778"/>
<path fill-rule="evenodd" clip-rule="evenodd" d="M19.2951 7.23997C18.863 6.98887 18.3903 6.84937 17.8944 6.84937C17.3985 6.84937 16.9258 6.98887 16.4937 7.23687L16.6967 7.74527C17.0613 7.52056 17.4749 7.40227 17.8958 7.40227C18.3167 7.40227 18.7303 7.52056 19.095 7.74527L19.2951 7.23997Z" fill="#FFDF00" stroke="black" stroke-width="0.0399778"/>
<path fill-rule="evenodd" clip-rule="evenodd" d="M19.3048 16.2149C18.8727 16.466 18.4 16.6055 17.9041 16.6055C17.4082 16.6055 16.9355 16.466 16.5034 16.218L16.7064 15.7096C17.0711 15.9343 17.4846 16.0526 17.9056 16.0526C18.3265 16.0526 18.74 15.9343 19.1047 15.7096L19.3048 16.2149Z" fill="#FFDF00" stroke="black" stroke-width="0.0399778"/>
<path fill-rule="evenodd" clip-rule="evenodd" d="M20.9802 11.7949C20.9802 14.2199 19.5952 16.1849 17.8952 16.1849C16.1952 16.1849 14.8152 14.2199 14.8152 11.7949C14.8152 9.3699 16.1952 7.3949 17.8952 7.3949C19.5952 7.3949 20.9802 9.3649 20.9802 11.7949Z" fill="#A7CFFF"/>
<path fill-rule="evenodd" clip-rule="evenodd" d="M20.9764 11.7939C21.0083 12.6185 20.843 13.0215 20.6313 13.8802C20.5762 13.9732 20.3123 13.6787 20.1557 13.533C19.9991 13.3873 19.9295 13.6632 19.7323 13.44C19.538 13.2106 19.4133 13.502 19.2683 13.3098C19.1233 13.1176 17.7806 13.0928 17.7806 13.0742C17.914 13.006 18.5984 13.0804 18.4882 12.7301C18.3635 12.3643 17.5892 12.7177 17.4848 12.2527C17.4123 11.7877 15.9304 11.7691 15.8231 11.6575C15.8666 11.8311 16.9773 11.9055 16.9512 12.355C16.9251 12.541 15.8579 12.5937 15.7535 12.7487C15.6665 12.944 16.5945 12.696 16.6264 12.9347C16.6264 13.0339 16.4901 12.9347 16.0087 13.0897C15.7651 13.1672 16.4553 13.409 16.1943 13.5423C15.9333 13.6756 15.3736 13.7345 15.3968 13.7903C15.4838 14.0693 16.6931 14.3979 16.5742 14.4444C16.145 14.649 15.9188 14.7823 15.7129 14.9001C15.1096 13.9943 14.7935 12.9057 14.811 11.7939C15.7303 11.4405 15.536 11.3661 17.2354 11.3661C18.9348 11.3661 19.4974 11.4374 20.9764 11.7939Z" fill="#AFFF7B" stroke="black" stroke-width="0.0399778"/>
<path fill-rule="evenodd" clip-rule="evenodd" d="M20.9762 11.7939C20.7442 11.7939 20.5006 11.8993 20.2512 11.8993C19.9989 11.8993 19.7437 11.7908 19.4827 11.7908C19.2217 11.7908 18.923 11.9334 18.6562 11.9334C18.3865 11.9334 18.1516 11.7939 17.8819 11.7939C17.6122 11.7939 17.3425 11.8993 17.0757 11.8993C16.8089 11.8993 16.545 11.7908 16.2869 11.7908C16.0288 11.7908 15.7736 11.8993 15.5271 11.8993C15.2806 11.8993 15.0399 11.7908 14.8108 11.7908C14.8108 11.1863 14.8978 10.6097 15.0544 10.0827C15.8374 10.1447 15.3734 9.59596 15.8374 9.59596C15.9728 9.58812 16.1083 9.61115 16.2348 9.66353C16.3613 9.7159 16.4759 9.79643 16.5711 9.89976C16.6407 9.89976 16.9887 9.54636 17.3802 9.59596C17.7688 9.64556 17.6267 10.4423 18.1458 10.4826C18.4068 10.6934 18.5605 10.8267 18.9201 10.9135C19.4334 10.9631 20.9037 10.836 20.9124 10.9073C20.9547 11.2006 20.9761 11.497 20.9762 11.7939Z" fill="white" stroke="black" stroke-width="0.0399778"/>
<path fill-rule="evenodd" clip-rule="evenodd" d="M18.3592 14.351C18.3592 14.2142 18.4942 14.123 18.4942 13.9046C18.4942 13.6862 18.3742 13.6814 18.3702 13.4774C18.3682 13.3934 18.4732 13.3094 18.5192 13.2998C18.5652 13.2902 18.6042 13.4774 18.6042 13.5182C18.6042 13.559 18.5572 13.4174 18.5182 13.415C18.4792 13.4126 18.3952 13.4294 18.3952 13.4702C18.3952 13.5518 18.5432 13.6526 18.5322 13.9262C18.5212 14.195 18.4052 14.2766 18.4052 14.3582C18.4052 14.4398 18.4552 14.6654 18.4552 14.6654C18.4552 14.6654 18.3582 14.4854 18.3582 14.3486L18.3592 14.351Z" fill="black" stroke="black" stroke-width="0.0206559"/>
<path fill-rule="evenodd" clip-rule="evenodd" d="M18.791 14.3309C18.791 14.1941 18.656 14.1029 18.656 13.8845C18.656 13.6661 18.776 13.6613 18.78 13.4573C18.79 13.3613 18.662 13.2989 18.616 13.2917C18.57 13.2845 18.516 13.4837 18.516 13.5221C18.516 13.5605 18.57 13.3973 18.609 13.3949C18.648 13.3925 18.755 13.4093 18.755 13.4501C18.755 13.5317 18.607 13.6325 18.618 13.9061C18.629 14.1749 18.745 14.2565 18.745 14.3381C18.745 14.4197 18.695 14.6453 18.695 14.6453C18.695 14.6453 18.792 14.4653 18.792 14.3285L18.791 14.3309Z" fill="black" stroke="black" stroke-width="0.0206559"/>
<path fill-rule="evenodd" clip-rule="evenodd" d="M18.6501 13.245C18.6501 13.31 18.6151 13.365 18.5751 13.365C18.5351 13.365 18.5051 13.31 18.5051 13.24C18.5051 13.17 18.5351 13.12 18.5751 13.12C18.6151 13.12 18.6501 13.175 18.6501 13.245ZM19.5001 13.695H19.5201V14.67H19.4951L19.5001 13.695ZM19.7051 13.615H19.7301V14.6H19.7051V13.615Z" fill="black"/>
<path fill-rule="evenodd" clip-rule="evenodd" d="M19.6301 14.0599V14.0349L19.8301 14.0699V14.0949L19.6301 14.0599Z" fill="black"/>
<path fill-rule="evenodd" clip-rule="evenodd" d="M16.7717 14.3429C16.7717 14.3429 17.5257 14.6963 17.691 14.9071C17.8534 15.1179 17.7896 15.1179 17.7896 15.1179L19.4629 15.1892C19.4629 15.0838 19.7587 15.0838 19.8254 14.8358C19.8921 14.5909 19.8921 14.5196 19.8921 14.5196L19.3672 14.6963L19.3962 14.3801H18.938L18.8713 14.6963L17.8853 14.6622L17.952 13.8159L17.7548 13.85L17.7258 14.656C17.691 14.656 16.8036 14.4111 16.7688 14.3429H16.7717Z" fill="#B74D00" stroke="black" stroke-width="0.0399778"/>
<path fill-rule="evenodd" clip-rule="evenodd" d="M15.2546 9.29528C15.2546 9.29528 16.3479 8.94808 17.9255 8.97288C19.5031 8.99768 20.5964 9.36968 20.5732 9.36968C20.55 9.36968 20.2716 8.79928 20.2716 8.79928C20.2716 8.79928 19.158 8.47378 17.9023 8.44898C16.6495 8.42418 15.5562 8.69698 15.5823 8.72178L15.2546 9.29528Z" fill="#FEDE00" stroke="#FEDE00" stroke-width="0.0399778"/>
<path fill-rule="evenodd" clip-rule="evenodd" d="M17.3 8.48997L17.98 8.47997L17.99 8.87497L17.31 8.88997L17.3 8.48997ZM15.74 8.70497L15.5 9.09997L16.31 8.99997L16.245 8.61497L15.74 8.71497V8.70497ZM16.425 8.55497L17.105 8.49997L17.135 8.88997L16.46 8.94997L16.425 8.55497ZM18.87 8.51997L18.195 8.46997L18.17 8.86997L18.845 8.90997L18.87 8.51997ZM20.33 8.76997L20.575 9.24997L19.845 9.06997L19.925 8.68497L20.325 8.76497L20.33 8.76997ZM19.74 8.61997L19.07 8.53497L19.02 8.92497L19.695 9.01497L19.74 8.61997Z" fill="#38A9F9"/>
<path fill-rule="evenodd" clip-rule="evenodd" d="M17.9255 9.51844L17.853 9.09994L17.6326 9.45644L17.7138 9.03794L17.3861 9.27664L17.6065 8.92634L17.2179 9.01314L17.5514 8.77754L17.1599 8.70004L17.5514 8.61944L17.2179 8.38384L17.6065 8.47064L17.3832 8.12034L17.7138 8.35904L17.6326 7.94054L17.853 8.29704L17.9255 7.87854L18.0009 8.29704L18.2184 7.94054L18.1401 8.35904L18.4678 8.12034L18.2445 8.47064L18.636 8.38384L18.3025 8.61944L18.694 8.70004L18.3025 8.77754L18.636 9.01314L18.2445 8.92634L18.4678 9.27664L18.1401 9.03794L18.2213 9.45644L18.0009 9.09994L17.9255 9.51844Z" fill="#FFDF00" stroke="black" stroke-width="0.0399778"/>
<path fill-rule="evenodd" clip-rule="evenodd" d="M18.5047 8.43739C18.5047 8.66989 18.3166 8.85739 18.0829 8.85739C17.8492 8.85739 17.6611 8.66989 17.6611 8.43739C17.6611 8.20489 17.8492 8.01489 18.0829 8.01489C18.3166 8.01489 18.5047 8.20489 18.5047 8.43989V8.43739Z" fill="#FFDF00" stroke="black" stroke-width="0.0355903"/>
<path fill-rule="evenodd" clip-rule="evenodd" d="M18.0351 8.52998C18.0351 8.55498 17.9701 8.57998 17.8951 8.57998C17.8201 8.57998 17.7551 8.55498 17.7551 8.52998C17.7551 8.50498 17.8151 8.47998 17.8951 8.47998C17.9751 8.47998 18.0351 8.49998 18.0351 8.52998ZM18.3351 8.52998C18.3351 8.55498 18.2901 8.57998 18.2351 8.57998C18.1801 8.57998 18.1251 8.55498 18.1251 8.52998C18.1251 8.49998 18.1751 8.47998 18.2301 8.47998C18.2851 8.47998 18.3351 8.49998 18.3351 8.52998Z" fill="black"/>
<path d="M18.0205 8.70233L18.0497 8.71914C17.9795 8.67624 18.0115 8.69213 18.1217 8.80073C18.1846 8.76413 18.1966 8.73084 18.2357 8.68554" stroke="black" stroke-width="0.0403773"/>
<path d="M17.7414 8.92326L17.7646 8.94806C17.7095 8.88606 17.7356 8.91706 17.8574 8.99766C17.9734 9.01316 18.0923 8.96046 18.1619 8.87366" stroke="black" stroke-width="0.0399778"/>
<path fill-rule="evenodd" clip-rule="evenodd" d="M16.0701 9.73999C16.0701 9.73999 16.1201 10.14 15.8151 10.64C15.5151 11.135 15.5601 10.96 15.5601 10.96C15.5601 10.96 15.7001 11.235 15.6751 11.235C15.6501 11.235 15.4401 10.985 15.4401 10.985L15.1901 11.26C15.1901 11.26 15.4201 10.835 15.3951 10.835C15.3701 10.835 15.3251 10.685 15.3251 10.685L15.5101 10.61C15.5101 10.61 15.7901 10.09 15.7901 10.115C15.7901 10.14 14.9551 10.685 14.9551 10.685L16.0701 9.73999ZM16.2551 9.88999C16.2301 9.88999 16.3701 10.29 16.4901 10.49C16.6051 10.69 16.6051 10.935 16.6051 10.935L17.0001 11.135L16.4901 10.365L16.8151 10.485L16.2551 9.88999ZM16.2551 10.935C16.2551 10.935 16.5351 11.235 16.5551 11.335C16.5751 11.435 16.5801 11.655 16.5801 11.655L16.4651 11.405L16.3001 11.63C16.3001 11.63 16.4201 11.28 16.3951 11.255C16.3701 11.23 16.2101 11.38 16.2101 11.38C16.2101 11.38 16.2801 11.18 16.2801 11.16C16.2801 11.14 16.2801 11.01 16.2551 10.935ZM14.8601 11.63C14.9551 11.555 15.1401 11.505 15.1401 11.505C15.1401 11.505 15.0251 11.705 15.0001 11.705C14.9751 11.705 14.9101 11.705 14.8601 11.63ZM18.0651 10.54C18.0651 10.54 18.6701 10.91 18.6701 10.935C18.6701 10.96 18.2751 10.76 18.2751 10.76L18.0651 10.54ZM16.9751 9.76499C17.0251 9.78999 17.8601 10.485 17.8351 10.485C17.8101 10.485 17.4651 10.285 17.4651 10.315V10.485L17.2751 10.09L17.2301 10.24L16.9751 9.76499ZM17.1851 10.885L17.4151 11.355L17.6501 11.305C17.6501 11.305 17.2101 10.885 17.1851 10.885ZM17.9051 10.585L17.9301 11.035C17.9301 11.035 18.0651 11.16 18.0651 11.135C18.0651 11.11 17.9301 10.61 17.9051 10.585Z" fill="#B7E1FF"/>
<path fill-rule="evenodd" clip-rule="evenodd" d="M11.1301 4.475C11.1301 4.475 12.1801 3.895 13.3751 3.465C14.2543 3.14195 15.1615 2.90093 16.0851 2.745C16.4351 2.745 17.0451 3.63499 17.1451 3.63499C17.2451 3.63499 17.6501 3.38499 18.1601 3.38499C18.6701 3.38499 18.9651 3.78499 19.0701 3.78499H19.9801C20.0801 3.78499 19.6751 2.795 19.9801 2.845C20.1301 2.87 21.4201 3.06999 22.6201 3.45499C23.8201 3.845 25.5201 4.53499 25.5201 4.53499C25.5201 4.53499 22.7451 4.9 22.0001 4.795C21.9001 4.845 22.0001 5.44499 21.8501 5.18C21.6201 5.13 20.7651 4.995 20.6151 4.995C20.4651 4.995 20.1801 5.165 19.7751 5.265C19.3751 5.365 18.8651 5.515 18.8651 5.515L19.5251 6.55L18.7151 6.95C18.7151 6.95 18.2101 5.75999 18.0051 5.75999C17.8001 5.75999 17.7051 6.6 17.4501 6.55C17.2001 6.49999 17.1001 5.75999 16.8951 5.55999C16.6951 5.365 15.6251 5.29 15.2201 5.195C14.8201 5.095 14.1651 5.02 13.8101 4.92C13.4601 4.82 13.1001 5.17 12.9501 5.17C12.8001 5.17 13.1501 4.87 13.0001 4.82C12.8501 4.77 12.7501 4.97 12.6501 4.97C12.5501 4.97 11.4851 4.77 11.3851 4.72C11.2851 4.67 11.6351 4.475 11.5351 4.475H11.1301Z" fill="#984000"/>
<path fill-rule="evenodd" clip-rule="evenodd" d="M18.673 3.97996C18.673 4.25556 18.4464 4.47916 18.1681 4.47916C17.8898 4.47916 17.6643 4.25556 17.6643 3.97996C17.6643 3.70436 17.8898 3.48206 18.1681 3.48206C18.4464 3.48206 18.673 3.70566 18.673 3.97996Z" fill="#808080" stroke="#772600" stroke-width="0.0442456"/>
<path fill-rule="evenodd" clip-rule="evenodd" d="M16.1135 4.07499C16.204 3.96939 16.316 3.80939 16.609 3.80939C16.6765 3.78219 16.6765 3.62219 16.8331 3.62219C16.991 3.62219 16.9451 3.78219 17.0585 3.83659C17.1706 3.88939 18.0926 3.78219 18.0926 3.78219C18.0926 3.78219 18.1817 3.86219 18.1817 3.96939C18.1817 4.07659 18.1142 4.15499 18.0926 4.15499C18.071 4.15499 17.1706 4.07499 17.1031 4.10219C17.0356 4.12939 16.991 4.15499 16.8331 4.15499C16.6765 4.15499 16.6306 3.96939 16.5185 3.96939C16.4065 3.96939 16.2944 3.94219 16.1135 4.07659V4.07499Z" fill="#984000" stroke="#772600" stroke-width="0.0778938"/>
<path d="M18.8567 4.01931H19.2158C19.3454 4.02091 19.39 4.06731 19.5088 4.07211H19.8233C19.9381 4.06731 19.9988 4.03531 20.1149 4.01931C20.3107 4.01611 20.2445 3.99851 20.2054 3.85931C20.1703 3.75531 20.1649 3.70571 20.1149 3.64651C20.096 3.51851 20.0528 3.47371 20.0474 3.32651C20.0272 3.21451 19.9894 3.13931 20.0258 3.00651C20.0771 3.09771 20.0974 3.13451 20.2283 3.14091C20.3633 3.14091 20.416 3.13611 20.4983 3.19371C20.5604 3.27211 20.6441 3.24651 20.7683 3.24651C20.8709 3.26891 20.8885 3.33131 20.9695 3.37931C21.0653 3.44331 21.1274 3.45931 21.2611 3.45931C21.3691 3.48331 21.4636 3.50091 21.5311 3.53931C21.5891 3.62091 21.6796 3.64171 21.8011 3.64651C21.8686 3.64651 21.9226 3.63851 21.9806 3.61931C22.0846 3.62571 22.1899 3.61931 22.3181 3.61931C22.4018 3.73451 22.4207 3.77771 22.5652 3.77931C22.6651 3.86251 22.7488 3.87531 22.8352 3.91211H23.1727C23.2942 3.92331 23.332 3.98251 23.4427 4.01931C23.5377 4.07018 23.635 4.11452 23.7343 4.15211C23.8309 4.17285 23.9291 4.18196 24.0272 4.17931C24.1096 4.23051 24.2108 4.23371 24.2743 4.28491C24.3674 4.30891 24.4943 4.33771 24.5659 4.36491C24.6847 4.38411 24.7306 4.42891 24.8359 4.44491C24.9263 4.47691 24.8062 4.50251 24.7454 4.52491C24.6131 4.52011 24.6037 4.46091 24.4754 4.44491C24.4079 4.39851 24.3053 4.40491 24.2054 4.36491H24.1838C24.2729 4.42891 24.3593 4.46891 24.3188 4.57931C24.2041 4.57931 24.1109 4.56171 24.0043 4.55211C23.8909 4.52651 23.8396 4.49931 23.7127 4.49931C23.8396 4.46251 23.872 4.50251 23.9597 4.55211C23.9921 4.68011 23.9219 4.63211 23.8018 4.63211C23.6992 4.58891 23.6371 4.53611 23.5102 4.52491H23.2402C23.3738 4.53131 23.4022 4.59051 23.4872 4.65931C23.494 4.70091 23.4859 4.69771 23.4197 4.71211C23.3495 4.64011 23.2591 4.61611 23.1497 4.57931C23.0431 4.57451 22.931 4.56331 22.8352 4.52491C22.769 4.52011 22.7798 4.42731 22.9256 4.57931C23.0134 4.64011 23.0444 4.69131 23.0377 4.73931C22.9216 4.70411 22.8649 4.64971 22.7906 4.60491C22.6896 4.5634 22.5828 4.54547 22.4761 4.55211C22.36 4.51531 22.4882 4.49451 22.5652 4.63211C22.7326 4.77291 22.5436 4.71211 22.4761 4.68491C22.3748 4.65131 22.2695 4.60171 22.1831 4.57931C22.1156 4.55531 22.0562 4.53291 21.9806 4.52491C22.0981 4.53771 22.1372 4.58731 22.1831 4.68491C22.3019 4.78091 22.1777 4.73451 22.0711 4.71211C22.0036 4.64171 21.9158 4.60491 21.8686 4.52491C21.7565 4.45931 21.7525 4.38091 21.824 4.55211C21.8416 4.60651 21.8375 4.72491 21.8456 4.73931C21.7633 4.63211 21.7808 4.60491 21.689 4.60491C21.6256 4.55371 21.5338 4.51371 21.4865 4.44491C21.4001 4.43531 21.3947 4.39851 21.307 4.36491C21.3785 4.46571 21.4744 4.56491 21.5311 4.65931C21.6337 4.72651 21.662 4.78731 21.7336 4.84491C21.7619 4.90411 21.8416 4.95211 21.7565 4.87211C21.6593 4.76011 21.5878 4.73291 21.442 4.65931C21.3583 4.57931 21.3286 4.54731 21.2395 4.47211C21.118 4.42571 21.1652 4.40011 21.2395 4.55211C21.3245 4.64491 21.3893 4.74731 21.4636 4.81931C21.5218 4.90174 21.5901 4.97346 21.6661 5.03211C21.6863 5.06731 21.7471 5.07371 21.6661 5.08491C21.5986 5.01131 21.4987 4.96491 21.419 4.89771C21.307 4.86091 21.2543 4.79211 21.172 4.71211C21.118 4.61771 21.0316 4.54571 20.9695 4.47211C20.8399 4.41131 20.9951 4.52971 21.037 4.60491C21.0653 4.70251 21.1018 4.78091 21.1261 4.87211C21.1639 4.96011 21.0127 4.85131 20.9695 4.81931C20.8807 4.75111 20.7809 4.70536 20.6765 4.68491C20.5871 4.66369 20.497 4.64608 20.4065 4.63211C20.3053 4.60011 20.4619 4.70891 20.5199 4.81931C20.6333 4.94571 20.4079 4.84171 20.3404 4.81931C20.2289 4.79687 20.1159 4.78776 20.0029 4.79211C19.8584 4.80171 19.9624 4.82411 20.0029 4.89771C20.0474 4.93931 20.0785 5.02571 20.0704 5.05771C19.9759 5.04171 19.8949 5.00971 19.7774 5.00491C19.6829 5.04171 19.5709 5.03211 19.4629 5.03211C19.4588 5.09931 19.4831 5.04171 19.5304 5.11211C19.6087 5.14891 19.66 5.19371 19.6438 5.24491H18.9917C18.9202 5.26731 19.0066 5.25611 19.0592 5.35211C19.0295 5.43851 18.9917 5.40491 18.9013 5.40491C18.8405 5.37611 18.7177 5.36331 18.6542 5.32491C18.5908 5.32491 18.5962 5.30571 18.5422 5.29771C18.7312 5.45771 18.6367 5.41771 18.7447 5.53771C18.7622 5.54571 18.8054 5.56491 18.7663 5.56491M17.2826 6.41771C17.2691 6.41771 17.2394 6.33131 17.1935 6.25771C17.1611 6.16171 17.1206 6.21611 17.0801 6.07051C17.0855 5.92011 17.0896 5.89451 17.0801 5.75051C16.9883 5.67371 16.9492 5.65131 16.8776 5.51051C16.7642 5.39851 16.8952 5.20651 16.9168 5.06571C16.8169 5.04011 16.7683 5.24971 16.6157 5.32491C16.505 5.41291 16.6022 5.14251 16.5482 4.98571C16.5118 4.76331 16.4024 5.09771 16.3619 5.19211C16.2877 5.25131 16.2647 5.32811 16.1594 5.21771C16.1594 5.13611 16.2256 4.90571 16.1972 4.86091C16.0919 4.92331 15.9542 5.10891 15.8449 5.13771C15.7342 5.11051 15.8678 4.90091 15.8678 4.74571C15.8273 4.72971 15.6694 5.15851 15.6046 5.16171C15.5398 5.16491 15.5681 4.74571 15.5371 4.75531C15.4898 4.83531 15.394 5.00171 15.3278 5.05931C15.1996 5.03851 15.3467 4.77931 15.3656 4.68331C15.3872 4.56811 15.2455 4.90411 15.1699 4.92491C15.1145 4.98251 15.0052 5.02091 14.9674 5.03211C15.0106 4.93291 15.2239 4.73291 15.2104 4.67531C15.0848 4.68011 14.8945 4.87531 14.7878 4.89931C14.7176 4.89931 14.6204 4.92651 14.6083 4.92491C14.6137 4.79691 14.8702 4.69131 14.9107 4.61291C14.7851 4.63691 14.5435 4.76811 14.4733 4.87211C14.3896 4.89291 14.2843 4.92011 14.2033 4.87211C14.2154 4.75211 14.4044 4.52011 14.4463 4.44331C14.3315 4.50251 14.2748 4.54891 14.1533 4.57611C14.1304 4.60331 14.0656 4.66091 14.0858 4.60331C14.1223 4.49131 14.1763 4.44331 14.2208 4.36331C14.1196 4.38571 14.0818 4.45451 13.9738 4.52331C13.9049 4.52651 13.7078 4.76171 13.6417 4.76491C13.5297 4.86951 13.399 4.94231 13.2596 4.97771C13.157 5.00011 13.1071 5.02571 13.0571 5.08491C13.1084 4.97771 13.1867 4.87691 13.2596 4.81931C13.3041 4.72219 13.3757 4.6464 13.4621 4.60491C13.4878 4.56811 13.558 4.55851 13.4837 4.55211C13.4203 4.61931 13.3123 4.69611 13.2596 4.73931C13.1908 4.79051 13.1111 4.84171 13.0787 4.81931C13.1152 4.70411 13.18 4.67531 13.2367 4.57931C13.3555 4.48971 13.2367 4.54731 13.1462 4.57931C13.0882 4.64011 12.9842 4.68651 12.8992 4.73931C12.8047 4.76811 12.7412 4.83531 12.6292 4.87211C12.6292 4.91051 12.6616 4.80331 12.6751 4.76491C12.7669 4.64651 12.7912 4.61291 12.8992 4.57931C12.9262 4.53291 12.9586 4.55211 12.8776 4.55211C12.8155 4.61611 12.7318 4.65131 12.6521 4.71211C12.5725 4.73291 12.4685 4.73931 12.3605 4.73931C12.2201 4.75851 12.2323 4.77131 12.3605 4.68491C12.4321 4.60491 12.4915 4.62571 12.4955 4.52491C12.4105 4.59851 12.3065 4.65291 12.2026 4.71211C12.1162 4.71531 12.0932 4.73931 12.0001 4.73931C12.0446 4.68491 12.0716 4.61611 12.1351 4.57931C12.2296 4.45611 12.0757 4.55531 12.0446 4.57931H11.7071C11.6477 4.66891 11.7044 4.57931 11.753 4.52491C11.8111 4.48971 11.8718 4.44331 11.8651 4.41931C11.7976 4.48811 11.7206 4.52011 11.6626 4.57931C11.6005 4.60171 11.5276 4.61131 11.5276 4.63211C11.5775 4.54731 11.6572 4.49451 11.7085 4.41931C11.7841 4.40011 11.8489 4.37131 11.8651 4.33931H11.5505H11.7746C11.8894 4.33931 11.9866 4.32651 12.0905 4.31211C12.2687 4.27691 12.0743 4.25931 11.9771 4.25931C11.9596 4.21771 12.0338 4.19531 12.1121 4.17931C12.1796 4.14091 12.2647 4.10731 12.3376 4.07211C12.4019 4.04888 12.4626 4.0132 12.5171 3.96651C12.4496 3.96971 12.4496 3.98891 12.3821 3.99211C12.4834 3.98411 12.5549 3.96651 12.6751 3.96651C12.774 3.92785 12.8714 3.88353 12.9667 3.83371C13.0072 3.77611 13.0234 3.77931 12.9221 3.77931C13.0126 3.74571 13.1408 3.72811 13.2137 3.69931C13.3068 3.67621 13.3974 3.64079 13.4837 3.59371C13.5499 3.54091 13.5877 3.47851 13.6633 3.43371C13.751 3.50411 13.7524 3.51371 13.9103 3.51371C14.0372 3.51211 14.1155 3.47531 14.1803 3.40651C14.2775 3.37451 14.2951 3.32011 14.4058 3.30091C14.5098 3.32028 14.6151 3.32884 14.7203 3.32651C14.8283 3.29291 14.9323 3.23051 15.0119 3.16651C15.0808 3.12651 15.1631 3.06891 15.2374 3.03371C15.3184 3.08331 15.3832 3.12331 15.4844 3.14091C15.5884 3.12171 15.6437 3.06091 15.7315 3.03371C15.7856 2.96544 15.8564 2.919 15.934 2.90091C16.0649 2.82411 16.0555 2.92491 16.1135 3.00651C16.181 3.08971 16.2674 3.04971 16.3606 3.08651C16.4132 3.18251 16.451 3.24651 16.5185 3.29931C16.5712 3.37611 16.6333 3.39531 16.744 3.40651C16.7845 3.47051 16.7521 3.51531 16.8331 3.53931C16.8655 3.58091 16.9208 3.59691 16.9681 3.61931" stroke="#772600" stroke-width="0.0514393"/>
<path d="M18.5977 5.73771V5.75051C18.5977 5.71371 18.5977 5.73451 18.6206 5.80491C18.6287 5.86251 18.6098 5.85611 18.5869 5.89771C18.5828 5.95691 18.5761 6.00011 18.5761 6.07051C18.568 6.12811 18.541 6.18251 18.5194 6.23051C18.4978 6.28011 18.4046 6.30891 18.4073 6.37771C18.3533 6.39531 18.352 6.35371 18.3506 6.28331C18.3182 6.24011 18.3074 6.18091 18.2831 6.12331C18.2696 6.06891 18.2372 6.02731 18.2156 5.96331C18.1832 5.90411 18.1549 5.88651 18.1265 5.81771C18.1144 5.78571 18.1171 5.74411 18.0928 5.72491C18.0563 5.66891 18.032 5.66091 17.9686 5.65771C17.92 5.67051 17.9011 5.69611 17.8565 5.71051C17.8214 5.72491 17.7539 5.72011 17.7107 5.73771C17.6999 5.75851 17.7323 5.76971 17.7445 5.81771C17.7148 5.84651 17.704 5.89611 17.6878 5.93771C17.6608 5.97771 17.6432 5.99691 17.6311 6.05771C17.65 6.09451 17.6338 6.14411 17.6095 6.17771C17.6014 6.23851 17.5757 6.27211 17.5636 6.32331C17.5285 6.35371 17.515 6.38091 17.4853 6.43051C17.4596 6.47371 17.4367 6.47051 17.3732 6.47051C17.3233 6.45451 17.3165 6.42251 17.272 6.40331C17.2679 6.38731 17.2639 6.38251 17.249 6.37771" stroke="#782600" stroke-width="0.0455605"/>
<path fill-rule="evenodd" clip-rule="evenodd" d="M17.38 6.275C17.38 6.275 17.36 6.525 17.2 6.69C17.04 6.855 16.71 7.045 16.71 7.045C16.71 7.045 17.155 6.835 17.2 6.88C17.25 6.93 16.915 7.295 16.915 7.295C16.915 7.295 17.35 6.91 17.405 6.91C17.46 6.91 17.585 7.285 17.635 7.275C17.68 7.265 17.535 6.8 17.555 6.725C17.575 6.655 17.555 6.26 17.555 6.26L17.385 6.275H17.38ZM18.405 6.245C18.405 6.245 18.385 6.51 18.225 6.685C18.065 6.86 17.735 7.065 17.735 7.065C17.735 7.065 18.18 6.84 18.225 6.89C18.275 6.94 17.94 7.33 17.94 7.33C17.94 7.33 18.375 6.92 18.43 6.92C18.485 6.92 18.61 7.32 18.66 7.31C18.705 7.3 18.56 6.8 18.58 6.725C18.6 6.645 18.58 6.225 18.58 6.225L18.405 6.245ZM16.97 3.845C16.97 3.89 16.92 3.93 16.865 3.93C16.81 3.93 16.755 3.89 16.755 3.84C16.755 3.79 16.805 3.75 16.865 3.75C16.925 3.75 16.97 3.79 16.97 3.84V3.845Z" fill="#812E00"/>
</g>
<defs>
<clipPath id="clip0_11930_67880">
<rect width="36" height="24" rx="2" fill="white"/>
</clipPath>
</defs>
</svg>
