<svg width="36" height="24" viewBox="0 0 36 24" fill="none" xmlns="http://www.w3.org/2000/svg">
<g clip-path="url(#clip0_11930_67886)">
<path d="M0 16H36V24H0V16Z" fill="#000001"/>
<path d="M0 8H36V16H0V8Z" fill="white"/>
<path d="M0 0H36V8H0V0Z" fill="#CE1126"/>
<path d="M17.804 12.0959L20.544 14.6399L20.348 10.0199C20.32 9.31986 19.712 9.47986 19.268 9.73186C18.824 10.0199 18.308 10.0199 17.772 9.83186C17.232 10.0199 16.72 10.0199 16.276 9.73186C15.836 9.47986 15.224 9.31986 15.196 10.0199L15 14.6399L17.804 12.0959Z" fill="white" stroke="#C09300" stroke-width="0.052" stroke-linejoin="round"/>
<path d="M15.512 9.85999L15.32 14.352L15 14.64L15.196 10.02C15.2905 9.94751 15.3977 9.89326 15.512 9.85999ZM15.896 10.18L15.736 13.94L15.416 14.268L15.608 9.92799C15.672 9.99199 15.86 10.148 15.896 10.18ZM16.244 10.468L16.12 13.604L15.86 13.856L16.02 10.28C16.084 10.34 16.212 10.432 16.244 10.468ZM16.624 10.628L16.5 13.3L16.248 13.504L16.372 10.532C16.436 10.56 16.56 10.628 16.624 10.628ZM16.976 10.628L16.884 12.856L16.624 13.108L16.724 10.656C16.784 10.656 16.948 10.656 16.976 10.628Z" fill="#C09300"/>
<path d="M20.0319 9.85999L20.2239 14.352L20.5439 14.64L20.3479 10.02C20.2534 9.94751 20.1463 9.89326 20.0319 9.85999ZM19.6479 10.18L19.8079 13.94L20.1279 14.268L19.9359 9.92799C19.8719 9.99199 19.6839 10.148 19.6479 10.18ZM19.2999 10.468L19.4239 13.604L19.6839 13.856L19.5239 10.28C19.4599 10.34 19.3319 10.432 19.2999 10.468ZM18.9199 10.628L19.0439 13.3L19.2959 13.504L19.1719 10.532C19.1079 10.56 18.9839 10.628 18.9199 10.628ZM18.5679 10.628L18.6599 12.856L18.9199 13.108L18.8199 10.656C18.7599 10.656 18.5959 10.656 18.5679 10.628Z" fill="#C09300"/>
<path d="M17.9 12.6L18.284 14.352L18.156 14.48L18.024 14.38L17.808 12.82L17.9 14.38L17.772 14.54L17.648 14.38L17.74 12.82L17.52 14.38L17.388 14.48L17.26 14.352L17.644 12.604H17.9V12.6Z" fill="#C09300" stroke="#C09300" stroke-width="0.044"/>
<path d="M16.9132 11.8319L16.1492 14.5399L17.2012 14.6999L17.6452 12.6639L16.9132 11.8319Z" fill="white" stroke="#C09300" stroke-width="0.048" stroke-linejoin="round"/>
<path d="M16.6611 12.7599L16.7531 12.9799L17.2491 12.5079" stroke="#C09300" stroke-width="0.052" stroke-linejoin="round"/>
<path d="M17.0053 12.1998L17.1093 13.1718L17.4253 12.7558M17.2973 12.9158L17.4693 13.5158M17.5373 13.2958L17.1893 13.8238M17.2973 14.3518L17.1853 13.8238M17.1853 13.8238L17.0893 13.2878L16.8533 13.6038L16.7533 13.2398L16.4253 13.5758L16.5893 14.1838L16.8213 13.8078L16.9453 14.1918L17.1853 13.8238Z" stroke="#C09300" stroke-width="0.052" stroke-linejoin="round"/>
<path d="M16.3733 14.4798L16.5853 14.1798L16.7213 14.6398L16.9133 14.3198L17.0373 14.7038" stroke="#C09300" stroke-width="0.052" stroke-linejoin="round"/>
<path d="M18.6313 11.8319L19.3953 14.5399L18.3433 14.6999L17.8993 12.6639L18.6313 11.8319Z" fill="white" stroke="#C09300" stroke-width="0.048" stroke-linejoin="round"/>
<path d="M18.8833 12.7599L18.7913 12.9799L18.2953 12.5079" stroke="#C09300" stroke-width="0.052" stroke-linejoin="round"/>
<path d="M18.5394 12.1998L18.4354 13.1718L18.1194 12.7558M18.2474 12.9158L18.0754 13.5158M18.0074 13.2958L18.3554 13.8238M18.2474 14.3518L18.3594 13.8238M18.3594 13.8238L18.4554 13.2878L18.6914 13.6038L18.7914 13.2398L19.1194 13.5758L18.9554 14.1838L18.7234 13.8078L18.5994 14.1918L18.3594 13.8238Z" stroke="#C09300" stroke-width="0.052" stroke-linejoin="round"/>
<path d="M19.1714 14.4798L18.9594 14.1798L18.8234 14.6398L18.6314 14.3198L18.5074 14.7038" stroke="#C09300" stroke-width="0.052" stroke-linejoin="round"/>
<path d="M17.7735 15.7519C18.5735 15.7519 19.3335 15.6879 19.7815 15.5639C19.9695 15.5279 19.9695 15.4319 19.9695 15.3039C20.1615 15.2399 20.0655 15.0159 20.1975 15.0159C20.0615 15.0559 20.0375 14.7959 19.8775 14.8279C19.8775 14.6039 19.6495 14.5759 19.4615 14.6399C19.0815 14.7639 18.4095 14.7959 17.7735 14.7959C17.1335 14.7639 16.4695 14.7639 16.0855 14.6359C15.8975 14.5759 15.6735 14.6039 15.6735 14.8279C15.5135 14.7959 15.4855 15.0519 15.3535 15.0159C15.4855 15.0159 15.3855 15.2439 15.5775 15.3039C15.5775 15.4319 15.5775 15.5279 15.7695 15.5639C16.2095 15.6879 16.9775 15.7519 17.7735 15.7519Z" fill="white" stroke="#C09300" stroke-width="0.096" stroke-linecap="round" stroke-linejoin="round"/>
<path d="M16.6895 14.5399C16.9455 14.5759 17.2335 14.6039 17.4575 14.5759C17.5855 14.5759 17.6775 14.7959 17.4215 14.8279C17.2015 14.8559 16.8495 14.8279 16.6615 14.7959C16.4141 14.7526 16.1686 14.6993 15.9255 14.6359C15.7015 14.5399 15.8615 14.3559 15.9895 14.3799C16.2179 14.4531 16.4521 14.5066 16.6895 14.5399ZM18.8575 14.5399C18.6015 14.5759 18.3135 14.6039 18.0975 14.5759C17.9615 14.5759 17.8695 14.7959 18.1255 14.8279C18.3495 14.8559 18.6975 14.8279 18.8855 14.7959C19.0455 14.7639 19.3975 14.7039 19.6215 14.6359C19.8455 14.5399 19.6855 14.3559 19.5575 14.3799C19.3292 14.4531 19.095 14.5067 18.8575 14.5399Z" fill="white" stroke="#C09300" stroke-width="0.052" stroke-linecap="round" stroke-linejoin="round"/>
<path d="M15.8934 14.4159C15.7014 14.3799 15.6134 14.6039 15.6734 14.7319C15.7014 14.6679 15.8334 14.6679 15.8614 14.6039C15.8974 14.5079 15.8334 14.5079 15.8974 14.4159H15.8934ZM16.6614 15.0039C16.6614 14.8759 16.7854 14.8919 16.7854 14.7639C16.7854 14.7039 16.7534 14.6039 16.6894 14.6039C16.6561 14.6058 16.6246 14.6199 16.601 14.6435C16.5774 14.6671 16.5633 14.6985 16.5614 14.7319C16.5334 14.8559 16.6614 14.8759 16.6614 15.0039ZM17.5694 14.6399C17.7574 14.6399 17.7374 14.8919 17.6494 15.0199C17.6494 14.9279 17.4894 14.8919 17.4894 14.8279C17.4894 14.7319 17.6334 14.7319 17.5694 14.6399ZM19.6494 14.4159C19.8454 14.3799 19.9374 14.6039 19.8734 14.7319C19.8454 14.6679 19.7134 14.6679 19.6854 14.6039C19.6494 14.5079 19.7134 14.5079 19.6494 14.4159ZM18.8934 14.9999C18.8934 14.8719 18.7654 14.8879 18.7654 14.7599C18.7654 14.6999 18.7974 14.5999 18.8614 14.5999C18.8947 14.6018 18.9262 14.6159 18.9498 14.6395C18.9734 14.6631 18.9875 14.6945 18.9894 14.7279C19.0174 14.8519 18.8894 14.8719 18.8894 14.9999H18.8934ZM17.9734 14.6399C17.7854 14.6399 17.8054 14.8919 17.8934 15.0199C17.8934 14.9279 18.0534 14.8919 18.0534 14.8279C18.0534 14.7319 17.9094 14.7319 17.9734 14.6399Z" fill="white" stroke="#C09300" stroke-width="0.052" stroke-linecap="round" stroke-linejoin="round"/>
<path d="M15.9614 14.4799C16.0254 14.4799 16.1214 14.5079 16.1494 14.5439L15.9614 14.4799ZM16.2774 14.5759C16.3094 14.5759 16.4374 14.6039 16.4974 14.6399L16.2774 14.5759ZM17.4214 14.7039C17.3614 14.7039 17.2334 14.7039 17.2014 14.7319L17.4214 14.6999V14.7039ZM17.0734 14.7039C17.0374 14.6679 16.9134 14.6679 16.8494 14.7039H17.0734ZM19.5854 14.4799C19.5176 14.4807 19.4517 14.5031 19.3974 14.5439L19.5854 14.4799ZM19.2734 14.5759C19.2334 14.5759 19.1134 14.6039 19.0494 14.6399L19.2734 14.5759ZM18.1254 14.7039C18.1854 14.7039 18.3134 14.7039 18.3494 14.7319L18.1254 14.6999V14.7039ZM18.4734 14.7039C18.5094 14.6679 18.6334 14.6679 18.6974 14.7039H18.4734Z" fill="white" stroke="#C09300" stroke-width="0.036" stroke-linecap="round" stroke-linejoin="round"/>
<path d="M15.9064 14.984C15.8864 14.98 15.8744 14.96 15.8824 14.944C15.8864 14.916 15.9064 14.904 15.9224 14.912C15.9384 14.912 15.9584 14.936 15.9584 14.944L15.9424 14.972L15.9344 14.976C15.9344 14.984 15.9184 14.984 15.9064 14.984ZM18.1064 15.14C18.0984 15.14 18.0824 15.12 18.0824 15.112C18.0824 15.096 18.1064 15.072 18.1224 15.072L18.1544 15.088C18.1664 15.1 18.1664 15.124 18.1504 15.136C18.1424 15.144 18.1184 15.144 18.1064 15.136V15.14ZM18.1184 15.24C18.1024 15.232 18.0984 15.224 18.0944 15.208C18.0944 15.188 18.0944 15.184 18.1144 15.172L18.1304 15.164L18.1464 15.172C18.1624 15.18 18.1744 15.188 18.1744 15.204C18.1744 15.216 18.1624 15.228 18.1464 15.236C18.1344 15.244 18.1304 15.244 18.1184 15.236V15.24Z" fill="#C09300"/>
<path d="M16.0865 14.7999C16.0705 14.7999 16.0505 14.8159 16.0385 14.8239C16.0145 14.8279 15.9825 14.8439 15.9585 14.8239C15.9345 14.8199 15.9025 14.8239 15.8985 14.8559C15.9025 14.8839 15.9385 14.8959 15.9625 14.8799C15.9785 14.8599 16.0225 14.8439 16.0305 14.8799C16.0105 14.9119 16.0145 14.9479 15.9985 14.9759C15.9985 14.9959 15.9865 15.0119 15.9785 15.0279C15.9585 15.0279 15.9385 15.0279 15.9225 15.0399C15.9101 15.0399 15.8978 15.0428 15.8867 15.0484C15.8756 15.0539 15.866 15.062 15.8585 15.0719C15.8425 15.0959 15.8265 15.1199 15.8225 15.1519C15.8265 15.1759 15.8625 15.1839 15.8865 15.1879L15.9665 15.2119L16.0945 15.2479C16.1585 15.2679 16.2225 15.2759 16.2865 15.2919L16.3065 15.2959C16.3345 15.3039 16.3465 15.2759 16.3465 15.2559L16.3865 15.1119C16.3945 15.0919 16.4065 15.0519 16.3705 15.0599C16.3505 15.0719 16.3305 15.0919 16.3065 15.0919C16.2705 15.0919 16.2905 15.1319 16.3065 15.1439C16.3065 15.1679 16.2985 15.1959 16.2865 15.2159C16.2625 15.2279 16.2385 15.2159 16.2145 15.2079C16.1945 15.2079 16.1465 15.1959 16.1665 15.1679L16.1865 15.0959C16.1985 15.0719 16.1985 15.0439 16.2065 15.0159C16.1905 14.9879 16.1665 15.0279 16.1465 15.0319C16.1305 15.0399 16.0825 15.0439 16.1065 15.0719C16.1305 15.0879 16.1145 15.1159 16.1065 15.1399C16.1065 15.1679 16.0745 15.1799 16.0505 15.1679C16.0265 15.1679 15.9905 15.1479 16.0105 15.1239L16.0305 15.0519L16.0585 14.9719C16.0585 14.9439 16.0705 14.9239 16.0825 14.8999C16.0825 14.8719 16.1025 14.8479 16.1025 14.8199C16.1025 14.8079 16.0945 14.8039 16.0865 14.8039V14.7999ZM15.9385 15.0919C15.9403 15.0909 15.9424 15.0903 15.9445 15.0903C15.9466 15.0903 15.9487 15.0909 15.9505 15.0919C15.9585 15.0999 15.9585 15.1079 15.9505 15.1159L15.9385 15.1239C15.9185 15.1239 15.9145 15.1199 15.9145 15.1119C15.9145 15.1079 15.9145 15.1039 15.9265 15.0999C15.9314 15.0964 15.9368 15.0937 15.9425 15.0919H15.9385ZM15.8985 15.2919C15.8785 15.2759 15.8825 15.2639 15.9105 15.2399C15.9265 15.2319 15.9305 15.2319 15.9465 15.2439C15.9705 15.2639 15.9705 15.2759 15.9465 15.2959C15.9385 15.3039 15.9345 15.3039 15.9265 15.3039C15.9145 15.3039 15.9105 15.3039 15.8985 15.2959V15.2919ZM16.0185 15.3319C16.0096 15.3291 16.0021 15.323 15.9976 15.3148C15.9931 15.3066 15.992 15.2969 15.9945 15.2879C16.0025 15.2719 16.0065 15.2679 16.0305 15.2679C16.0585 15.2679 16.0625 15.2719 16.0665 15.2959C16.0665 15.3119 16.0665 15.3159 16.0545 15.3239C16.0501 15.3275 16.0449 15.33 16.0394 15.3314C16.0339 15.3328 16.0281 15.3329 16.0225 15.3319H16.0185ZM19.5865 15.3319C19.5785 15.3279 19.5745 15.3239 19.5745 15.3119C19.5745 15.2959 19.5825 15.2839 19.6065 15.2759C19.6305 15.2639 19.6465 15.2639 19.6545 15.2839C19.6665 15.3079 19.6665 15.3159 19.6505 15.3319C19.6425 15.3439 19.6385 15.3439 19.6185 15.3439C19.5985 15.3439 19.5945 15.3439 19.5865 15.3359V15.3319ZM16.1865 15.3799C16.1705 15.3799 16.1625 15.3639 16.1625 15.3479C16.1625 15.3359 16.1625 15.3319 16.1705 15.3239L16.1945 15.3159L16.2185 15.3199C16.2385 15.3359 16.2425 15.3519 16.2305 15.3679C16.2185 15.3839 16.2065 15.3839 16.1825 15.3799H16.1865ZM17.0585 15.4199L17.0505 15.4079C17.0505 15.3839 17.0505 15.3639 17.0585 15.3399C17.0625 15.3199 17.0585 15.2999 17.0665 15.2799L17.0825 15.1679C17.0825 15.1479 17.0825 15.1279 17.0905 15.1119C17.0945 15.0799 17.0905 15.0519 17.0985 15.0239C17.0985 15.0119 17.1105 14.9839 17.1225 14.9999C17.1385 15.0239 17.1585 15.0399 17.1785 15.0599C17.1945 15.0719 17.1785 15.0879 17.1665 15.0919C17.1505 15.0959 17.1465 15.1159 17.1465 15.1319L17.1385 15.1799C17.1385 15.2079 17.1385 15.2319 17.1305 15.2599L17.1265 15.3319L17.1185 15.3799C17.1185 15.3959 17.1185 15.4159 17.1025 15.4239C17.0905 15.4319 17.0705 15.4319 17.0625 15.4199H17.0585ZM18.2465 15.0279L18.1945 15.0759C18.1705 15.0959 18.2145 15.1039 18.2185 15.1199C18.2265 15.1439 18.2265 15.1679 18.2265 15.1919C18.2345 15.2159 18.2385 15.2359 18.2345 15.2599C18.2345 15.2879 18.2025 15.2799 18.1865 15.2959C18.1665 15.3039 18.1585 15.3239 18.1465 15.3359C18.137 15.356 18.1316 15.3777 18.1305 15.3999C18.1305 15.4199 18.1185 15.4399 18.1305 15.4559L18.1345 15.4639H18.1545L18.2145 15.4599C18.2625 15.4519 18.3145 15.4519 18.3625 15.4479L18.4505 15.4399C18.4745 15.4439 18.4865 15.4199 18.4865 15.3999C18.4705 15.3719 18.4825 15.3439 18.4705 15.3199C18.4625 15.2879 18.4665 15.2599 18.4625 15.2319C18.4625 15.2079 18.4345 15.1999 18.4225 15.2159C18.4065 15.2319 18.3825 15.2359 18.3745 15.2519C18.3625 15.2759 18.3985 15.2759 18.4065 15.2919L18.4105 15.3519C18.4145 15.3759 18.3905 15.3759 18.3705 15.3799C18.3505 15.3879 18.3225 15.3919 18.3105 15.3679C18.3025 15.3479 18.3025 15.3279 18.3025 15.3079C18.3025 15.2679 18.2905 15.2359 18.2905 15.1999C18.2905 15.1599 18.2785 15.1159 18.2785 15.0719C18.2785 15.0519 18.2745 15.0239 18.2465 15.0279ZM18.2225 15.3559H18.2345V15.3879L18.2225 15.3919C18.2173 15.3936 18.2119 15.3949 18.2065 15.3959C18.2038 15.396 18.2012 15.396 18.1985 15.3959C18.1905 15.3879 18.1905 15.3759 18.2025 15.3639L18.2225 15.3559ZM17.0225 14.9879C17.0105 14.9879 16.9905 15.0159 16.9745 15.0119C16.9385 15.0159 16.9425 15.0519 16.9705 15.0639V15.0959C16.9745 15.1279 16.9545 15.1559 16.9585 15.1879C16.9585 15.2199 16.9465 15.2559 16.9465 15.2919C16.9345 15.3279 16.9345 15.3639 16.9305 15.3999C16.9265 15.4319 16.9025 15.4199 16.8825 15.4119V15.3719C16.8865 15.3359 16.8625 15.3279 16.8345 15.3239C16.8065 15.3239 16.7945 15.3039 16.8025 15.2799C16.8145 15.2639 16.8425 15.2679 16.8625 15.2679C16.9025 15.2759 16.8985 15.2239 16.8785 15.2039C16.8625 15.1799 16.8305 15.1639 16.8225 15.1399C16.8225 15.1079 16.8025 15.0719 16.7745 15.0559C16.7305 15.0519 16.6945 15.0879 16.6825 15.1279C16.6625 15.1279 16.6425 15.1359 16.6265 15.1439C16.5985 15.1519 16.5585 15.1999 16.5985 15.2199C16.6185 15.2239 16.6865 15.2399 16.6545 15.2679C16.6385 15.2999 16.6065 15.2999 16.5785 15.2919C16.5505 15.2919 16.5185 15.2759 16.5185 15.2439C16.5145 15.2119 16.5145 15.1799 16.5025 15.1519C16.4945 15.1199 16.4585 15.1279 16.4545 15.1599C16.4265 15.1799 16.4305 15.2159 16.4505 15.2399C16.4625 15.2679 16.4505 15.3039 16.4385 15.3279C16.4305 15.3679 16.3905 15.3679 16.3625 15.3759C16.3505 15.3839 16.2985 15.3759 16.3185 15.4039C16.3485 15.4177 16.382 15.4219 16.4145 15.4159C16.4465 15.4159 16.4745 15.3879 16.4945 15.3599C16.5145 15.3399 16.5505 15.3519 16.5825 15.3519C16.6105 15.3519 16.6425 15.3719 16.6745 15.3559C16.6825 15.3359 16.7225 15.2959 16.7345 15.3359C16.7345 15.3719 16.7625 15.3879 16.7945 15.3839C16.8305 15.3839 16.8145 15.4079 16.8145 15.4319C16.8145 15.4679 16.8425 15.4879 16.8745 15.5039H16.9065C16.9345 15.4919 16.9665 15.4799 16.9785 15.4479C16.9905 15.4199 16.9905 15.3879 16.9985 15.3599C17.0065 15.3159 17.0145 15.2679 17.0145 15.2239C17.0265 15.1839 17.0225 15.1399 17.0305 15.0959L17.0425 15.0039C17.0425 14.9839 17.0345 14.9839 17.0225 14.9879ZM16.7545 15.1519C16.7585 15.1519 16.7625 15.1599 16.7625 15.1719C16.7625 15.1879 16.7705 15.1999 16.7825 15.2039V15.2159L16.7505 15.2239C16.7305 15.2239 16.7145 15.2159 16.7025 15.2039L16.6945 15.1959L16.7065 15.1879L16.7265 15.1679C16.7385 15.1559 16.7465 15.1519 16.7545 15.1519ZM19.3945 14.8359C19.3715 14.8376 19.3487 14.8416 19.3265 14.8479C19.2865 14.8479 19.2665 14.8879 19.3065 14.9119C19.3305 14.9719 19.3665 14.8959 19.4065 14.9039C19.4625 14.9119 19.4665 14.9759 19.4785 15.0239C19.4785 15.0679 19.4945 15.1119 19.5065 15.1559C19.5465 15.1999 19.4785 15.2279 19.4505 15.1959C19.4265 15.1679 19.3705 15.1359 19.3425 15.1719C19.3065 15.1879 19.3025 15.2359 19.2745 15.2519C19.2265 15.2639 19.2225 15.2039 19.1945 15.1799C19.1705 15.1439 19.1265 15.1399 19.0905 15.1319C19.0745 15.0959 19.0825 15.0359 19.0505 15.0119C19.0185 15.0239 18.9625 15.0799 19.0105 15.1079C19.0505 15.1479 18.9905 15.1639 18.9705 15.1879C18.9385 15.2239 18.9305 15.2679 18.9305 15.3079C18.8785 15.3359 18.8705 15.2759 18.8625 15.2399C18.8625 15.1959 18.8225 15.2079 18.7945 15.2239C18.7545 15.2399 18.7385 15.2759 18.7145 15.3039V15.3839C18.7225 15.4199 18.7625 15.4039 18.7865 15.3999C18.8265 15.3839 18.8425 15.4279 18.8105 15.4519C18.7865 15.4759 18.7225 15.4639 18.7305 15.5079H18.7945C18.8345 15.4959 18.8825 15.4639 18.8865 15.4159C18.8945 15.3759 18.9545 15.3799 18.9865 15.3719C19.0265 15.3599 19.0785 15.3559 19.0905 15.4119C19.1185 15.4399 19.1785 15.4719 19.2105 15.4319C19.2257 15.4223 19.238 15.4085 19.2457 15.3923C19.2535 15.376 19.2566 15.3578 19.2545 15.3399C19.2505 15.3079 19.3065 15.3079 19.3225 15.3279C19.3425 15.3599 19.4065 15.3519 19.4385 15.3279C19.4705 15.3079 19.4785 15.2639 19.5265 15.2639L19.7425 15.2039C19.7985 15.1919 19.7345 15.1559 19.7185 15.1319C19.6785 15.1119 19.6385 15.1999 19.5905 15.1559C19.5505 15.1279 19.5545 15.0759 19.5425 15.0319C19.5305 14.9759 19.5345 14.9119 19.4945 14.8719C19.4705 14.8439 19.4305 14.8359 19.3945 14.8359ZM19.1225 15.2159C19.1265 15.2159 19.1345 15.2159 19.1425 15.2239C19.1585 15.2319 19.1705 15.2479 19.1705 15.2639C19.1705 15.2719 19.1705 15.2719 19.1585 15.2759L19.1385 15.2839C19.1305 15.2839 19.1105 15.2719 19.1105 15.2639V15.2479C19.1025 15.2319 19.1025 15.2319 19.1105 15.2239L19.1225 15.2159ZM19.3825 15.2319C19.3985 15.2319 19.4065 15.2319 19.4145 15.2439C19.4185 15.2599 19.4145 15.2679 19.3985 15.2759L19.3785 15.2839L19.3625 15.2719C19.3545 15.2679 19.3505 15.2639 19.3505 15.2559C19.3505 15.2439 19.3665 15.2319 19.3825 15.2279V15.2319ZM19.0225 15.2319C19.0305 15.2319 19.0345 15.2319 19.0385 15.2399C19.0465 15.2479 19.0505 15.2519 19.0505 15.2639V15.2879C19.0505 15.2999 19.0505 15.2959 19.0265 15.2959C19.0025 15.2959 18.9985 15.2959 18.9985 15.2719C18.9985 15.2559 18.9985 15.2519 19.0105 15.2439C19.0145 15.2359 19.0225 15.2359 19.0265 15.2359L19.0225 15.2319ZM18.8065 15.2919C18.8103 15.2931 18.8137 15.2951 18.8165 15.2979C18.8193 15.3007 18.8214 15.3042 18.8225 15.3079C18.8225 15.3199 18.8225 15.3279 18.8145 15.3319C18.8025 15.3359 18.7825 15.3399 18.7745 15.3319C18.7744 15.3306 18.7744 15.3293 18.7745 15.3279C18.7665 15.3239 18.7665 15.3199 18.7745 15.3159V15.3119L18.7825 15.2999C18.785 15.296 18.7887 15.2931 18.7931 15.2917C18.7975 15.2902 18.8022 15.2903 18.8065 15.2919ZM19.1745 15.3399L19.1945 15.3439V15.3679H19.1465L19.1425 15.3599C19.1425 15.3519 19.1425 15.3479 19.1505 15.3439L19.1745 15.3399ZM18.4905 15.5319C18.4865 15.5319 18.4785 15.5279 18.4865 15.5239C18.4905 15.5119 18.5065 15.5079 18.5185 15.4999C18.5403 15.4916 18.5596 15.4778 18.5745 15.4599C18.5745 15.4439 18.5905 15.4359 18.5905 15.4199L18.5865 15.3639C18.5811 15.3471 18.5697 15.3329 18.5545 15.3239C18.5425 15.3199 18.5265 15.3159 18.5225 15.2999C18.5225 15.2879 18.5345 15.2759 18.5385 15.2639L18.5625 15.2159C18.5745 15.2039 18.5905 15.2159 18.5945 15.2239L18.6145 15.2639C18.6265 15.2759 18.6345 15.2879 18.6385 15.3039C18.6465 15.3199 18.6545 15.3319 18.6545 15.3439L18.6625 15.3959C18.6625 15.4159 18.6625 15.4399 18.6545 15.4599L18.6305 15.4919C18.6185 15.5039 18.6065 15.5159 18.5905 15.5199C18.5785 15.5239 18.5705 15.5359 18.5545 15.5359H18.4945L18.4905 15.5319ZM18.2145 15.5479C18.2065 15.5399 18.2025 15.5359 18.2025 15.5239C18.2025 15.5119 18.2025 15.5119 18.2145 15.4999C18.2305 15.4839 18.2385 15.4839 18.2705 15.4999C18.2985 15.5159 18.3105 15.5159 18.3105 15.5039C18.3145 15.4959 18.3305 15.4839 18.3505 15.4839C18.3579 15.4842 18.365 15.487 18.3705 15.4919C18.3785 15.4999 18.3825 15.5039 18.3825 15.5199C18.3825 15.5399 18.3825 15.5399 18.3705 15.5519C18.3585 15.5599 18.3585 15.5599 18.3425 15.5599C18.3354 15.5595 18.3286 15.5571 18.3229 15.5528C18.3172 15.5485 18.3129 15.5426 18.3105 15.5359C18.3105 15.5279 18.3105 15.5239 18.3025 15.5319L18.2945 15.5359C18.2865 15.5359 18.2705 15.5479 18.2625 15.5559L18.2425 15.5599C18.2265 15.5599 18.2265 15.5599 18.2145 15.5479ZM17.4225 15.1919C17.3945 15.1919 17.3665 15.2159 17.3625 15.2439C17.3705 15.2719 17.3945 15.3039 17.3785 15.3319C17.3905 15.3719 17.3465 15.3879 17.3185 15.3679C17.3025 15.3279 17.2945 15.2879 17.2665 15.2479C17.2345 15.2399 17.2225 15.2919 17.1985 15.3119C17.2105 15.3399 17.2425 15.3679 17.2465 15.4039C17.2545 15.4439 17.2305 15.4839 17.2025 15.4999C17.1745 15.5279 17.1345 15.5199 17.1025 15.5239C17.0625 15.5479 17.1305 15.5559 17.1505 15.5559C17.1905 15.5599 17.2345 15.5559 17.2705 15.5239C17.2985 15.5119 17.2945 15.4559 17.3305 15.4519L17.5225 15.4639C17.5545 15.4719 17.6065 15.4599 17.6305 15.4839C17.6305 15.5239 17.6705 15.5559 17.7065 15.5719C17.7265 15.5799 17.7465 15.5519 17.7665 15.5479C17.8065 15.5359 17.7945 15.4879 17.8185 15.4679H18.0185C18.0265 15.4679 18.0305 15.4479 18.0425 15.4399L18.0345 15.3639C18.0225 15.3319 18.0345 15.2919 18.0145 15.2639C17.9785 15.2559 17.9505 15.2839 17.9185 15.2879C17.8785 15.3039 17.8505 15.3399 17.8465 15.3799C17.8265 15.4159 17.7905 15.3719 17.8065 15.3399L17.8025 15.2999C17.7825 15.2799 17.7465 15.2879 17.7185 15.2839L17.5985 15.2759C17.5585 15.2759 17.5225 15.2799 17.4905 15.2719C17.4505 15.2719 17.4505 15.2319 17.4505 15.1999C17.4425 15.1938 17.4325 15.191 17.4225 15.1919ZM17.5025 15.3399L17.5425 15.3439H17.5945C17.6345 15.3519 17.6745 15.3519 17.7145 15.3519C17.7225 15.3519 17.7305 15.3599 17.7385 15.3679V15.4479C17.7385 15.4599 17.7385 15.4759 17.7305 15.4799C17.7284 15.4831 17.7257 15.4858 17.7225 15.4879C17.7166 15.4869 17.7111 15.4846 17.7062 15.4811C17.7014 15.4776 17.6974 15.4731 17.6945 15.4679V15.4119C17.6866 15.4052 17.6768 15.401 17.6665 15.3999L17.5625 15.3959L17.4825 15.3919C17.4705 15.3879 17.4545 15.3919 17.4465 15.3759C17.4385 15.3679 17.4505 15.3519 17.4625 15.3479C17.4751 15.3423 17.4887 15.3396 17.5025 15.3399ZM17.9545 15.3519C17.9585 15.3519 17.9625 15.3519 17.9625 15.3639L17.9705 15.3839C17.9705 15.3879 17.9705 15.3919 17.9625 15.3919C17.9425 15.3999 17.9225 15.3999 17.9145 15.3919C17.9145 15.3879 17.9145 15.3719 17.9225 15.3679L17.9545 15.3519Z" fill="#C09300"/>
<path d="M17.772 13.0879C19.076 12.0879 18.964 10.6159 18.964 10.6159L18.864 10.6239C18.588 10.6239 17.936 10.4639 17.784 10.2679C17.624 10.4479 16.952 10.6279 16.68 10.6279L16.58 10.6159C16.58 10.6159 16.464 12.0839 17.772 13.0879Z" fill="white" stroke="#C09300" stroke-width="0.044"/>
<path d="M18.8601 10.7199H18.8281C18.5801 10.7199 18.0041 10.5959 17.7801 10.4039C17.5481 10.5799 16.9601 10.7239 16.7161 10.7239C16.7053 10.7235 16.6946 10.7222 16.6841 10.7199C16.6863 10.9727 16.7212 11.2241 16.7881 11.4679C16.9485 12.0553 17.2935 12.5755 17.7721 12.9519C18.251 12.5741 18.5959 12.0525 18.7561 11.4639C18.8226 11.2214 18.8576 10.9714 18.8601 10.7199Z" fill="white" stroke="#C09300" stroke-width="0.036"/>
<path d="M17.3481 10.5998C17.1332 10.6698 16.9098 10.7102 16.6841 10.7198L16.6881 10.8838C16.7017 11.08 16.7352 11.2744 16.7881 11.4638C16.8956 11.8572 17.0866 12.2228 17.3481 12.5358V10.5998ZM18.1721 10.5998V12.5678C18.4461 12.2476 18.6456 11.8706 18.7561 11.4638C18.8089 11.2744 18.8424 11.08 18.8561 10.8838L18.8601 10.7238H18.8281C18.6761 10.7238 18.4121 10.6758 18.1721 10.5958V10.5998Z" fill="#C09300"/>
<path d="M18.2648 10.1199C18.2928 10.1239 18.2288 9.97991 18.2288 9.97991C18.3008 10.0519 18.5648 10.0719 18.5648 10.0719C18.4048 9.99991 18.2448 9.46791 18.2648 9.03991C18.2808 8.61591 18.2048 8.44791 18.1448 8.38391C18.0648 8.30391 17.8048 8.23191 17.6368 8.22391C17.5368 8.21991 17.5568 8.29591 17.5568 8.29591C17.3768 8.25191 17.1968 8.23191 17.1168 8.28791C17.0448 8.33591 17.0288 8.58791 17.0848 8.54391C17.2168 8.43591 17.3328 8.53591 17.4128 8.65191C17.4848 8.75191 17.4808 9.03991 17.3768 9.37991C17.2847 9.63694 17.1494 9.87638 16.9768 10.0879C17.1368 10.0879 17.3608 9.94791 17.3608 9.94791L17.3088 10.1679C17.4768 10.0879 17.6088 9.96391 17.6088 9.96391L17.7688 10.1319C17.8208 10.0599 17.9288 9.96391 17.9288 9.96391C17.9288 9.96391 18.0608 10.1039 18.2648 10.1239V10.1199Z" fill="white" stroke="#C09300" stroke-width="0.048"/>
<path d="M17.6168 9.10386C17.6168 9.10386 17.5288 9.75986 17.3608 9.94386M17.7608 9.08386C17.7608 9.08386 17.7208 9.75186 17.6088 9.96386M17.8848 9.11186C17.8848 9.11186 17.8848 9.83986 17.9248 9.96386M18.0448 9.14786C18.0448 9.14786 18.0768 9.75986 18.2288 9.97986" stroke="#C09300" stroke-width="0.052"/>
<path d="M17.4527 8.78396C17.4491 8.73758 17.4355 8.69253 17.4127 8.65196C17.3327 8.53196 17.2167 8.43596 17.0847 8.54396C17.0847 8.54396 17.1287 8.40396 17.2287 8.39996C17.3007 8.39596 17.4727 8.45596 17.6247 8.71196C17.6247 8.71196 17.5127 8.68796 17.4847 8.71196C17.4367 8.75196 17.4567 8.78396 17.4567 8.78396H17.4527Z" fill="#C09300" stroke="#C09300" stroke-width="0.012"/>
<path d="M17.0688 8.37191C17.0808 8.33191 17.0968 8.29991 17.1208 8.28791C17.2008 8.23191 17.3768 8.24791 17.5568 8.29591C17.5568 8.29591 17.5408 8.21991 17.6368 8.22391C17.8048 8.23191 18.0608 8.30391 18.1408 8.38391C18.1665 8.41203 18.1868 8.44456 18.2008 8.47991C18.1608 8.42391 18.0488 8.42791 18.0208 8.43191C17.9808 8.43591 17.9528 8.43191 17.8968 8.44791C17.8688 8.45591 17.8288 8.46391 17.8048 8.47991C17.7888 8.49591 17.7728 8.54391 17.7488 8.54391C17.7088 8.54391 17.7088 8.53591 17.6968 8.52391C17.6848 8.50391 17.6768 8.47991 17.6608 8.48391C17.6208 8.48791 17.5488 8.45591 17.4608 8.38391C17.3688 8.31191 17.3328 8.29591 17.2208 8.30391C17.1008 8.31191 17.0688 8.37991 17.0688 8.37991V8.37191Z" fill="#C09300" stroke="#C09300" stroke-width="0.012"/>
<path d="M17.7248 8.476C17.7513 8.476 17.7728 8.45451 17.7728 8.428C17.7728 8.4015 17.7513 8.38 17.7248 8.38C17.6982 8.38 17.6768 8.4015 17.6768 8.428C17.6768 8.45451 17.6982 8.476 17.7248 8.476Z" fill="white"/>
</g>
<defs>
<clipPath id="clip0_11930_67886">
<rect width="36" height="24" rx="2" fill="white"/>
</clipPath>
</defs>
</svg>
