<svg width="36" height="24" viewBox="0 0 36 24" fill="none" xmlns="http://www.w3.org/2000/svg">
<g clip-path="url(#clip0_11930_67898)">
<path fill-rule="evenodd" clip-rule="evenodd" d="M0 0H36V24H0V0Z" fill="#BE0027"/>
<path fill-rule="evenodd" clip-rule="evenodd" d="M0 24L36 23.985V12L0 24Z" fill="#B4D7F4"/>
<path fill-rule="evenodd" clip-rule="evenodd" d="M0 0L36 0.015V12L0 0Z" fill="#239E46"/>
<path fill-rule="evenodd" clip-rule="evenodd" d="M9.31012 18.0199C8.77512 18.1699 8.47012 18.5849 8.47512 18.9749L11.1151 18.9649C11.1351 18.5449 10.7901 18.1549 10.2651 17.9999C12.8451 17.9499 15.0851 16.9799 15.4951 16.3599C15.0951 16.1849 14.6251 16.4649 14.2951 16.3999C15.0801 16.0349 17.4451 14.5049 17.0601 12.8649C16.7601 13.7749 15.8601 14.5299 15.4701 14.7349C16.3551 13.3949 17.5601 11.9949 16.5151 10.9149C16.5651 11.5399 16.1151 12.2299 15.9151 12.2849C16.4301 10.8649 16.9151 9.0849 15.8101 7.9149C15.9551 8.3399 15.8951 9.5349 15.6951 9.5899C15.6351 8.6249 15.4701 6.5999 14.4551 6.6249C14.7751 6.9149 14.9151 7.6949 14.9251 8.4849C14.7188 7.93814 14.3508 7.46722 13.8701 7.1349C13.3684 6.26711 12.6544 5.54105 11.7951 5.0249C11.8851 5.6599 11.9601 6.1599 12.8451 6.8199C12.3851 6.7899 11.9251 5.9149 11.4301 5.8899C11.0351 5.8699 10.7301 6.2449 10.0851 6.0299C10.1551 6.2399 10.4551 6.3349 10.5201 6.4899C10.3801 6.5899 10.0551 6.4749 9.78512 6.3399C10.1601 6.8399 10.7351 7.1399 11.2251 7.0399C11.8101 6.9299 12.4351 6.9899 13.0351 7.3299C12.665 7.40735 12.2839 7.41751 11.9101 7.3599C12.2551 7.7099 12.4851 7.9449 13.0901 7.9399C13.6251 7.9399 13.9101 7.6499 14.0451 7.8299C14.3851 8.2299 14.6101 8.6299 14.8951 9.0999C14.2701 9.1649 14.4601 8.3949 13.7651 7.9999C13.3701 8.7999 14.2151 9.7599 14.7801 10.1599C14.7641 10.7064 14.8862 11.2481 15.1351 11.7349C15.3101 12.0599 15.5351 12.3949 15.4501 13.1299C15.1051 12.8799 14.7751 12.0399 14.9001 11.3749C14.4701 11.4899 14.3001 12.2449 14.5001 12.6249C14.6501 12.9099 14.7501 13.4649 14.5801 13.7099C14.4101 13.9399 14.3951 13.9099 14.3951 14.4099C14.4001 14.6999 14.2351 15.0499 13.9701 15.2949C14.0477 15.0391 14.0665 14.769 14.0251 14.5049C13.8151 14.8649 13.2801 15.2349 13.1151 15.6249C12.9501 16.0099 12.9101 16.6849 12.1151 16.8399C11.0851 17.0399 10.7301 17.2199 10.0751 17.4899C10.0001 16.9899 10.2201 15.9399 10.6401 16.0049C11.0451 16.0749 12.2901 15.5749 11.8401 14.5299C11.7551 14.8599 11.4651 15.1799 11.1451 15.1949C11.4901 14.7549 12.0951 14.2949 11.8001 13.5549C11.6215 13.9276 11.3383 14.2403 10.9851 14.4549C11.4051 13.6549 11.0351 13.4049 10.5351 14.0749C10.3451 14.3299 10.2301 14.8449 10.1101 15.4999C9.91012 14.9699 9.92512 14.2699 9.69012 13.6999C9.45012 13.0849 10.0151 12.9249 10.2801 12.9749C10.9301 13.1499 12.0251 13.1499 11.9451 12.0699C11.6601 12.4349 11.1701 12.5449 10.6351 12.4199C11.2351 11.9799 11.7051 11.1549 11.0351 10.7199C11.0052 10.9751 10.9123 11.2188 10.7648 11.4291C10.6173 11.6394 10.4198 11.8098 10.1901 11.9249C10.0827 11.5192 10.0776 11.0931 10.1751 10.6849C9.91512 10.9649 9.72512 11.5349 9.57012 12.1949C9.55512 11.5449 9.68012 11.0799 9.77012 10.7299C9.91012 10.2249 10.2501 10.5549 10.7701 10.5899C11.2801 10.6199 11.9701 10.3399 11.8401 9.6549C11.6701 9.9299 11.3151 10.0349 10.9551 10.0049C11.3901 9.7399 12.1451 9.2749 11.7301 8.5549C11.5551 8.8249 11.5001 9.0549 10.9951 9.1399C11.1251 8.8399 11.1451 8.4049 11.5451 8.2399C10.8451 8.0949 10.4451 8.5549 10.2351 9.2749C10.1551 8.7749 10.0551 8.5949 10.0351 8.2249C10.4151 7.8099 10.4551 6.9849 9.63512 6.8049C9.58138 7.09532 9.60202 7.39461 9.69512 7.6749C9.31012 7.4449 8.77012 7.3199 8.40512 7.6399C8.65512 7.9049 9.03012 8.1399 9.61512 7.8499C9.47512 8.2999 9.11512 8.2249 8.62512 8.0499C8.92512 8.6149 9.30512 8.7149 9.72512 8.6499C9.94512 9.2299 9.95512 9.6699 9.31012 10.5099C9.34012 9.9899 9.30512 9.5999 8.89012 9.1749C8.53012 8.8249 8.24012 9.1899 8.80012 9.9649C8.46012 9.7149 8.08012 9.2149 7.96512 8.7099C7.85512 9.3299 7.95512 10.0649 8.30012 10.4799C8.13512 10.6549 7.95012 10.4599 7.67512 10.0299C7.77512 11.3999 8.36012 11.6649 9.14512 11.3599C9.16512 12.1099 9.16512 12.8049 9.21012 13.7099C8.75512 13.0499 8.17512 12.5599 7.85512 12.4399C7.75512 12.8049 8.13012 13.2899 8.34512 13.5549C8.02012 13.4849 7.32012 12.9549 7.32012 12.9549C7.25012 13.5599 8.03512 14.1249 8.54512 14.3749C7.94512 14.3499 7.68012 14.1249 7.29512 13.7549C7.30512 15.4449 9.12512 15.1499 9.47012 14.8899L9.62012 17.5149C9.10512 17.4249 9.14512 17.2649 8.70512 17.2299C7.48012 17.1799 6.51012 15.7599 6.19012 14.7149C6.09512 14.8849 6.17012 15.0649 6.08512 15.2799C5.88512 14.7649 5.63512 14.0999 5.29012 13.7899C5.38012 14.0899 5.39012 14.3949 5.36012 14.9549C5.24012 14.5949 5.13512 14.4799 5.12512 14.0549C5.13012 13.7299 5.44012 13.4899 5.42512 13.0299C5.41012 12.6949 5.10512 11.9649 5.06012 11.4049C4.91012 11.9849 4.82012 12.5949 4.59012 12.9549C4.70512 12.3349 4.67012 11.9049 4.86012 11.4899C5.08012 11.0549 5.26512 10.6599 5.12012 10.2199C4.98012 10.3899 5.02512 10.5449 4.67012 10.9599C4.59512 10.5099 5.13012 9.7849 5.65012 9.4949C6.01512 9.3049 6.47512 8.6149 6.17512 8.1449C5.83012 8.3949 5.67512 8.7249 5.19012 9.2949C5.54012 7.9449 6.44012 7.5849 7.51512 7.5799C7.75012 7.5799 8.23012 7.4949 8.36512 7.1799C8.06512 7.2949 7.70512 7.3099 7.38512 7.2499C7.62012 6.9049 8.10512 6.9499 8.56512 6.9499C8.92012 6.9499 9.48012 6.8999 9.70512 6.3899C9.21104 6.58261 8.66903 6.61583 8.15512 6.4849C8.84012 6.1349 9.90512 6.0949 10.4551 5.6299C9.83012 5.1649 8.27012 5.7399 7.28512 6.4149C7.56012 6.1649 7.99512 5.7149 8.23512 5.3549C7.69512 5.0949 6.33512 6.6049 5.86512 7.5049C5.41512 7.7549 5.24012 8.1549 5.06512 8.4299C5.30012 7.6249 5.32512 7.0399 5.52512 6.3799C4.00012 6.8999 4.63012 9.7299 4.30012 10.4099C4.34012 9.6599 4.30512 8.7049 4.00012 8.2099C3.53012 8.5699 3.49012 10.6849 3.93012 12.4449C3.77012 11.9749 3.47012 11.5349 3.37512 10.9599C2.67512 12.2299 3.78512 13.7349 4.71012 14.9199C4.01012 14.5549 3.32512 13.7749 2.87012 13.1199C2.99512 15.3999 5.37012 15.8699 5.74012 16.4299C5.24012 16.1949 4.28512 15.7349 3.87512 16.2199C4.4447 16.3255 4.99133 16.5303 5.49012 16.8249C6.11012 17.5949 7.27512 17.9349 9.31012 18.0199Z" fill="#F3E295"/>
</g>
<defs>
<clipPath id="clip0_11930_67898">
<rect width="36" height="24" rx="2" fill="white"/>
</clipPath>
</defs>
</svg>
