<svg width="36" height="24" viewBox="0 0 36 24" fill="none" xmlns="http://www.w3.org/2000/svg">
<g clip-path="url(#clip0_11930_67892)">
<path fill-rule="evenodd" clip-rule="evenodd" d="M0 0H36V24H0V0Z" fill="white"/>
<path d="M36 20.505L5.15812 -0.00500488H0V3.415L30.96 24H36V20.505Z" fill="#0099CC"/>
<path d="M18.1311 17.6148C14.9311 17.6148 15.0311 14.5998 15.0311 14.5998V9.95984H21.2311V14.5998C21.2311 14.5998 21.3411 17.6148 18.1311 17.6148Z" fill="#005BBF"/>
<path d="M18.1298 17.6156C14.9298 17.6156 15.0311 14.5997 15.0311 14.5997V9.96106H21.2338V14.5997C21.2338 14.5997 21.3405 17.6156 18.1298 17.6156Z" stroke="black" stroke-width="0.0533562"/>
<path d="M18.101 7.05002C18.101 7.05002 17.441 6.72502 16.816 7.20002C16.816 7.20002 15.691 7.03502 15.606 8.11502C15.606 8.15502 15.596 8.23502 15.616 8.26502C15.641 8.28502 15.661 8.33002 15.661 8.36002C15.661 8.39002 15.676 8.41002 15.686 8.42002C15.686 8.43502 15.706 8.45502 15.716 8.51002C15.716 8.57002 15.701 8.59502 15.766 8.65502C15.816 8.70502 15.816 8.87002 15.816 8.92002C15.816 8.97002 15.846 9.09502 15.866 9.12002C15.896 9.15002 15.936 9.22002 15.936 9.28002C15.936 9.33002 15.961 9.49002 15.946 9.53002C15.936 9.57002 16.011 9.62002 16.076 9.64002C16.141 9.66002 16.926 9.92002 18.081 9.89502C19.231 9.88002 19.651 9.81502 20.131 9.64502C20.156 9.63714 20.1776 9.62095 20.1922 9.59912C20.2067 9.57729 20.2134 9.55115 20.211 9.52502C20.2027 9.46961 20.2079 9.41303 20.226 9.36002C20.246 9.33002 20.386 9.11002 20.356 9.07502C20.326 9.03002 20.326 8.94502 20.356 8.91502C20.381 8.88002 20.466 8.71502 20.481 8.65002C20.496 8.58502 20.501 8.50002 20.531 8.48502C20.561 8.46002 20.571 8.38502 20.581 8.36502C20.5938 8.3322 20.6144 8.30302 20.641 8.28002C20.641 8.28002 20.691 8.00502 20.661 7.87502C20.626 7.74002 20.421 7.16502 19.611 7.28502C19.611 7.28502 19.001 6.82002 18.101 7.04502" fill="#D81126"/>
<path d="M18.1032 7.04666C18.1032 7.04666 17.4418 6.72639 16.8178 7.19612C16.8178 7.19612 15.6925 7.03599 15.6072 8.11424C15.6072 8.15695 15.5965 8.23702 15.6178 8.2637C15.6392 8.28506 15.6605 8.32776 15.6605 8.35979C15.6605 8.39181 15.6765 8.40783 15.6872 8.4185C15.6872 8.43452 15.7085 8.45587 15.7138 8.50925C15.7138 8.56797 15.7032 8.59465 15.7618 8.65337C15.8152 8.70675 15.8152 8.87223 15.8152 8.92027C15.8152 8.96831 15.8472 9.09642 15.8685 9.12311C15.8952 9.1498 15.9378 9.21919 15.9378 9.27791C15.9378 9.33128 15.9592 9.49142 15.9485 9.52879C15.9378 9.57149 16.0125 9.61953 16.0765 9.64088C16.1405 9.66223 16.9298 9.91845 18.0818 9.8971C19.2338 9.88109 19.6498 9.81703 20.1298 9.64622C20.1551 9.63787 20.1768 9.62117 20.1913 9.59886C20.2059 9.57655 20.2124 9.54996 20.2098 9.52345C20.1992 9.49142 20.2098 9.38466 20.2258 9.35797C20.2472 9.33128 20.3858 9.11243 20.3538 9.07507C20.3272 9.03236 20.3272 8.94696 20.3538 8.91493C20.3805 8.87756 20.4658 8.71743 20.4818 8.64803C20.4978 8.58398 20.5032 8.50391 20.5352 8.48256C20.5618 8.46121 20.5725 8.38114 20.5778 8.36512C20.5916 8.33169 20.6136 8.3023 20.6418 8.27972C20.6418 8.27972 20.6952 8.00749 20.6632 7.87404C20.6258 7.74059 20.4232 7.1641 19.6072 7.28687C19.6072 7.28687 18.9992 6.82247 18.1032 7.04666Z" stroke="black" stroke-width="0.0800344"/>
<path d="M20.316 9.05C17.811 8.26 15.866 9.015 15.866 9.015C15.866 9.015 15.891 9.1 15.911 9.13C15.931 9.16 15.961 9.22 15.961 9.265V9.415C15.961 9.455 15.941 9.615 16.081 9.61C16.081 9.61 17.831 8.925 20.101 9.645C20.101 9.645 20.166 9.595 20.166 9.515C20.1634 9.44018 20.1807 9.36601 20.216 9.3C20.246 9.255 20.316 9.12 20.316 9.05Z" fill="#BCAC0B"/>
<path d="M17.991 13.245H16.896C16.896 13.245 16.791 14.22 17.636 14.52V14.605H17.811V14.725C17.811 14.725 17.501 15 17.771 15.325V15.415H17.816V15.575H17.866V15.825C17.866 15.825 17.826 16.735 16.931 17.175V17.225H19.311V17.175C18.416 16.74 18.376 15.825 18.376 15.825V15.575H18.426V15.415H18.476V15.32C18.736 15 18.426 14.72 18.426 14.72V14.605H18.611V14.52C19.446 14.22 19.341 13.245 19.341 13.245H17.986" fill="#C8B100" fill-opacity="0.9"/>
<path d="M17.991 13.2438H16.8977C16.8977 13.2438 16.791 14.2206 17.6337 14.5195V14.6049H17.8097V14.7224C17.8097 14.7224 17.5003 14.9999 17.7723 15.3202V15.4163H17.815V15.5764H17.8683V15.8273C17.8683 15.8273 17.8257 16.7348 16.9297 17.1725V17.2258H19.3137V17.1725C18.423 16.7401 18.3803 15.8273 18.3803 15.8273V15.5764H18.4337V15.4163H18.4763V15.3202C18.743 14.9999 18.4337 14.7224 18.4337 14.7224V14.6049H18.615V14.5195C19.4523 14.2206 19.3457 13.2438 19.3457 13.2438H17.991Z" stroke="black" stroke-width="0.0533562"/>
<path d="M17.5964 14.5035H18.6471M17.6337 14.5836H18.6151M17.8151 14.7171H18.4284M17.7724 15.3309H18.4711M17.8097 15.4056H18.4284M17.8097 15.5551H18.4231M17.4364 16.7935H18.7964M17.0524 17.1084H19.1858M16.9724 17.1565H19.2658" stroke="black" stroke-width="0.0160069"/>
<path d="M18.131 13.1899C18.2276 13.198 18.3248 13.1861 18.4165 13.1547C18.5082 13.1234 18.5924 13.0734 18.6638 13.0078C18.7351 12.9422 18.7921 12.8626 18.8311 12.7738C18.87 12.6851 18.8901 12.5893 18.8901 12.4924C18.8901 12.3955 18.87 12.2996 18.8311 12.2109C18.7921 12.1221 18.7351 12.0425 18.6638 11.9769C18.5924 11.9113 18.5082 11.8613 18.4165 11.83C18.3248 11.7986 18.2276 11.7867 18.131 11.7949C17.9467 11.7949 17.7699 11.8681 17.6396 11.9984C17.5093 12.1288 17.436 12.3055 17.436 12.4899C17.436 12.6742 17.5093 12.851 17.6396 12.9813C17.7699 13.1116 17.9467 13.1849 18.131 13.1849" fill="#CCCCCC"/>
<path d="M18.1296 13.1904C18.3142 13.1904 18.4912 13.117 18.6218 12.9864C18.7523 12.8558 18.8256 12.6786 18.8256 12.4938C18.8256 12.3091 18.7523 12.1319 18.6218 12.0013C18.4912 11.8706 18.3142 11.7972 18.1296 11.7972C17.9457 11.7972 17.7694 11.8703 17.6394 12.0005C17.5093 12.1306 17.4363 12.3071 17.4363 12.4912C17.4363 12.6752 17.5093 12.8517 17.6394 12.9818C17.7694 13.112 17.9457 13.1851 18.1296 13.1851V13.1904Z" stroke="black" stroke-width="0.0533562"/>
<path d="M16.5112 11.1498H16.0812V10.7098H15.6962V11.1448H15.2612V11.5298H15.6962V11.9548H16.0812V11.5298H16.5062V11.1498" fill="#CCCCCC"/>
<path d="M16.5136 11.1461H16.0816V10.7084H15.6976V11.1461H15.2603V11.5304H15.6976V11.9574H16.0816V11.5304H16.5083V11.1461" stroke="black" stroke-width="0.0533562"/>
<path d="M21.0212 11.1498H20.5862V10.7098H20.2112V11.1448H19.7612V11.5298H20.2012V11.9548H20.5812V11.5298H21.0162L21.0212 11.1498Z" fill="#CCCCCC"/>
<path d="M21.0204 11.1461H20.5884V10.7084H20.2044V11.1461H19.7671V11.5304H20.2044V11.9574H20.5884V11.5304H21.0204V11.1461Z" stroke="black" stroke-width="0.0533562"/>
<path d="M18.7361 10.6H18.3011V10.17H17.9111V10.595H17.4861V10.98H17.9111V11.42H18.2961V10.98H18.7311V10.6" fill="#CCCCCC"/>
<path d="M18.7377 10.5963H18.3004V10.1693H17.9164V10.5963H17.4897V10.9807H17.9164V11.4184H18.3004V10.9807H18.7377V10.5963Z" stroke="black" stroke-width="0.0533562"/>
<path d="M16.5112 13.0248H16.0812V12.5848H15.6962V13.0248H15.2612V13.4098H15.6962V13.8348H16.0812V13.4098H16.5062V13.0248" fill="#CCCCCC"/>
<path d="M16.5136 13.025H16.0816V12.5873H15.6976V13.025H15.2603V13.4093H15.6976V13.8363H16.0816V13.4093H16.5083V13.025" stroke="black" stroke-width="0.0533562"/>
<path d="M21.0212 13.0248H20.5862V12.5848H20.2112V13.0248H19.7612V13.4098H20.2012V13.8348H20.5812V13.4098H21.0162L21.0212 13.0248Z" fill="#CCCCCC"/>
<path d="M21.0204 13.025H20.5884V12.5873H20.2044V13.025H19.7671V13.4093H20.2044V13.8363H20.5884V13.4093H21.0204V13.025Z" stroke="black" stroke-width="0.0533562"/>
<path d="M16.5112 14.9199H16.0812V14.4899H15.6962V14.9199H15.2612V15.3049H15.6962V15.7349H16.0812V15.3099H16.5062V14.9199" fill="#CCCCCC"/>
<path d="M16.5136 14.92H16.0816V14.4877H15.6976V14.92H15.2603V15.3044H15.6976V15.7367H16.0816V15.3097H16.5083V14.92" stroke="black" stroke-width="0.0533562"/>
<path d="M21.0212 14.9199H20.5862V14.4899H20.2112V14.9199H19.7612V15.3049H20.2012V15.7349H20.5812V15.3099H21.0162L21.0212 14.9199Z" fill="#CCCCCC"/>
<path d="M21.0204 14.92H20.5884V14.4877H20.2044V14.92H19.7671V15.3044H20.2044V15.7367H20.5884V15.3097H21.0204V14.92Z" stroke="black" stroke-width="0.0533562"/>
<path d="M18.1261 6.11991C18.2374 6.11991 18.3443 6.07566 18.423 5.99689C18.5018 5.91813 18.5461 5.8113 18.5461 5.69991C18.5461 5.58852 18.5018 5.48169 18.423 5.40292C18.3443 5.32416 18.2374 5.27991 18.1261 5.27991C18.0147 5.27991 17.9078 5.32416 17.8291 5.40292C17.7503 5.48169 17.7061 5.58852 17.7061 5.69991C17.7061 5.8113 17.7503 5.91813 17.8291 5.99689C17.9078 6.07566 18.0147 6.11991 18.1261 6.11991Z" fill="#005BBF"/>
<path d="M18.1242 6.11771C18.2353 6.11771 18.3418 6.07357 18.4203 5.99498C18.4988 5.9164 18.5429 5.80982 18.5429 5.69869C18.5429 5.58756 18.4988 5.48098 18.4203 5.40239C18.3418 5.32381 18.2353 5.27966 18.1242 5.27966C18.0132 5.27966 17.9067 5.32381 17.8282 5.40239C17.7497 5.48098 17.7056 5.58756 17.7056 5.69869C17.7056 5.80982 17.7497 5.9164 17.8282 5.99498C17.9067 6.07357 18.0132 6.11771 18.1242 6.11771Z" stroke="black" stroke-width="0.0533562"/>
<path d="M18.511 5.62496H18.171V5.07496H18.306V4.96496H18.171V4.82996H18.066V4.95996H17.931V5.06996H18.061V5.62496H17.741V5.69996H18.511V5.62496Z" fill="#FFCC00"/>
<path d="M18.5138 5.62677H18.1725V5.07163H18.3058V4.96487H18.1725V4.83142H18.0658V4.95953H17.9325V5.07163H18.0605V5.62677H17.7405V5.7015H18.5138V5.62677Z" fill="#BCAC0B" stroke="black" stroke-width="0.0266781"/>
<path d="M16.4562 6.61497C16.4562 6.61497 16.7662 6.57997 16.9412 6.64997C16.9412 6.64997 16.7412 6.88497 16.7812 7.18997C16.79 7.30281 16.8241 7.41221 16.8812 7.50997C16.9411 7.6162 16.9639 7.73932 16.9462 7.85997H17.0062C17.0062 7.85997 17.0612 7.60997 16.9662 7.46997C16.9086 7.39151 16.8735 7.29883 16.8647 7.20192C16.8559 7.105 16.8737 7.00752 16.9162 6.91997C17.0162 6.71997 17.1612 6.63497 17.1612 6.63497C17.3649 6.68265 17.5788 6.6579 17.7662 6.56497C17.8662 6.49497 17.9162 6.39497 17.7362 6.38997C17.5462 6.37997 17.2362 6.38497 17.0262 6.54497C17.0262 6.54497 16.9162 6.41497 16.3562 6.47497C15.7962 6.53997 15.3962 6.77497 15.2662 7.27997C15.2012 7.53997 15.4412 8.07997 15.6612 8.20497C15.6612 8.20497 15.6562 8.11997 15.6762 8.05497C15.6762 8.05497 15.3012 7.63497 15.4112 7.24497C15.5262 6.85997 15.9762 6.60497 16.4562 6.61497Z" fill="#FFCC00"/>
<path d="M16.4552 6.61419C16.4552 6.61419 16.7646 6.58216 16.9406 6.65156C16.9406 6.65156 16.7379 6.88642 16.7806 7.19068C16.8019 7.35082 16.8339 7.43089 16.8819 7.51096C16.9246 7.58035 16.9726 7.74049 16.9459 7.86326H17.0046C17.0046 7.86326 17.0632 7.60704 16.9672 7.46826C16.9091 7.3902 16.8734 7.2977 16.864 7.20079C16.8546 7.10389 16.8718 7.00625 16.9139 6.91845C17.0152 6.71561 17.1592 6.63554 17.1592 6.63554C17.3192 6.6996 17.6712 6.63554 17.7672 6.56615C17.8686 6.49676 17.9166 6.39534 17.7352 6.39C17.5486 6.37932 17.2392 6.38466 17.0259 6.5448C17.0259 6.5448 16.9139 6.41669 16.3539 6.47541C15.7939 6.53946 15.3939 6.77967 15.2659 7.28143C15.2019 7.53765 15.4419 8.07678 15.6606 8.20488C15.6606 8.20488 15.6552 8.11948 15.6766 8.05542C15.6766 8.05542 15.3032 7.63373 15.4099 7.24406C15.5272 6.85973 15.9752 6.60352 16.4552 6.61419Z" fill="#BCAC0B" stroke="black" stroke-width="0.0373494"/>
<path d="M17.5061 6.53993C17.6061 6.52993 17.6811 6.51493 17.6761 6.49993C17.6761 6.48493 17.5961 6.48493 17.5011 6.48993C17.4011 6.49493 17.3311 6.51993 17.3311 6.52993C17.3311 6.54493 17.4111 6.54493 17.5061 6.53993Z" fill="white"/>
<path d="M17.1539 6.63028C17.2605 6.52352 17.4952 6.45946 17.6285 6.48615C17.7565 6.51818 17.6019 6.53419 17.5592 6.53953C17.5165 6.53953 17.4312 6.55555 17.3032 6.53953" stroke="black" stroke-width="0.0373494"/>
<path d="M19.786 6.64985C19.786 6.64985 19.486 6.61485 19.301 6.68485C19.3931 6.80494 19.4483 6.94925 19.4599 7.10018C19.4714 7.25111 19.4388 7.40214 19.366 7.53485C19.316 7.61985 19.271 7.77485 19.296 7.89485H19.246C19.246 7.89485 19.181 7.64485 19.281 7.49985C19.3376 7.42192 19.3722 7.33015 19.381 7.23422C19.3898 7.1383 19.3725 7.04178 19.331 6.95485C19.2792 6.83898 19.196 6.7402 19.091 6.66985C18.926 6.73485 18.571 6.66985 18.476 6.59985C18.376 6.52985 18.326 6.43485 18.516 6.41985C18.696 6.40985 19.011 6.41985 19.221 6.57985C19.221 6.57985 19.331 6.44985 19.896 6.51485C20.446 6.56985 20.856 6.81485 20.976 7.31485C21.041 7.56485 20.806 8.10985 20.586 8.23485C20.586 8.23485 20.586 8.14985 20.571 8.08485C20.571 8.08485 20.946 7.66985 20.836 7.28485C20.721 6.88985 20.276 6.63985 19.786 6.64985Z" fill="#FFCC00"/>
<path d="M19.7886 6.65148C19.7886 6.65148 19.4846 6.61411 19.3032 6.6835C19.3961 6.80406 19.4516 6.94918 19.463 7.10095C19.4743 7.25272 19.4411 7.40451 19.3672 7.53757C19.3192 7.61764 19.2712 7.77244 19.2979 7.89521H19.2446C19.2446 7.89521 19.1806 7.64433 19.2819 7.5002C19.3382 7.4222 19.3724 7.33043 19.3808 7.23459C19.3893 7.13874 19.3717 7.0424 19.3299 6.95574C19.2789 6.83881 19.1956 6.73884 19.0899 6.66749C18.9246 6.73688 18.5726 6.66749 18.4766 6.5981C18.3806 6.52871 18.3272 6.43262 18.5139 6.42195C18.6952 6.41127 19.0099 6.41661 19.2232 6.58209C19.2232 6.58209 19.3299 6.44864 19.8953 6.51269C20.4499 6.57141 20.8553 6.81161 20.9779 7.31338C21.0419 7.5696 20.8073 8.10872 20.5886 8.23683C20.5886 8.23683 20.5886 8.15143 20.5726 8.08737C20.5726 8.08737 20.9459 7.67102 20.8339 7.28135C20.7219 6.89168 20.2739 6.6408 19.7886 6.65148Z" fill="#BCAC0B" stroke="black" stroke-width="0.0373494"/>
<path d="M18.7359 6.57003C18.6409 6.57003 18.5659 6.55003 18.5659 6.53503C18.5659 6.52503 18.6459 6.52003 18.7409 6.52503C18.8409 6.53503 18.9209 6.55003 18.9209 6.56003C18.9209 6.57503 18.8409 6.58003 18.7359 6.57003Z" fill="white"/>
<path d="M19.0898 6.66217C18.9831 6.56075 18.7485 6.49136 18.6205 6.52339C18.4871 6.55008 18.6418 6.56609 18.6845 6.57143C18.7325 6.57143 18.8178 6.59278 18.9458 6.57143" stroke="black" stroke-width="0.0373494"/>
<path d="M17.8359 6.29988V7.49988C17.8259 7.61488 17.9809 7.78488 18.0909 7.82988C18.0909 7.82988 18.3609 7.74488 18.3759 7.49988V6.24988H18.2859V7.33488C18.2859 7.43988 18.2109 7.64488 18.1059 7.67488C18.1059 7.67488 17.9159 7.64488 17.9059 7.33488V6.27988L17.8359 6.30988" fill="#FFCC00"/>
<path d="M17.8365 6.30466V7.49501C17.8258 7.61244 17.9805 7.77792 18.0925 7.82596C18.0925 7.82596 18.3591 7.74055 18.3751 7.49501V6.2406H18.2845V7.32953C18.2845 7.43629 18.2098 7.63913 18.1085 7.67116C18.1085 7.67116 17.9165 7.63913 17.9058 7.32953V6.27263L17.8365 6.30466Z" fill="#BCAC0B" stroke="black" stroke-width="0.0373494"/>
<path d="M15.211 7.93484C15.2319 7.93878 15.2535 7.93805 15.2741 7.93271C15.2947 7.92738 15.3139 7.91755 15.3303 7.90395C15.3467 7.89034 15.36 7.87328 15.369 7.85399C15.3781 7.8347 15.3828 7.81365 15.3828 7.79234C15.3828 7.77103 15.3781 7.74997 15.369 7.73068C15.36 7.71139 15.3467 7.69434 15.3303 7.68073C15.3139 7.66713 15.2947 7.6573 15.2741 7.65196C15.2535 7.64662 15.2319 7.6459 15.211 7.64984C15.1777 7.65609 15.1477 7.67375 15.1262 7.69977C15.1046 7.72579 15.0928 7.75853 15.0928 7.79234C15.0928 7.82614 15.1046 7.85889 15.1262 7.88491C15.1477 7.91093 15.1777 7.92859 15.211 7.93484Z" fill="white"/>
<path d="M15.207 7.93267C15.2278 7.93675 15.2493 7.93615 15.2699 7.93093C15.2905 7.9257 15.3097 7.91598 15.3261 7.90246C15.3425 7.88894 15.3557 7.87195 15.3648 7.85272C15.3739 7.83349 15.3786 7.81248 15.3786 7.79122C15.3786 7.76995 15.3739 7.74895 15.3648 7.72971C15.3557 7.71048 15.3425 7.6935 15.3261 7.67997C15.3097 7.66645 15.2905 7.65673 15.2699 7.65151C15.2493 7.64629 15.2278 7.64569 15.207 7.64976C15.1742 7.65617 15.1447 7.67378 15.1234 7.69959C15.1022 7.72539 15.0906 7.75778 15.0906 7.79122C15.0906 7.82465 15.1022 7.85704 15.1234 7.88285C15.1447 7.90866 15.1742 7.92627 15.207 7.93267Z" stroke="black" stroke-width="0.0533562"/>
<path d="M15.116 7.60495C15.1375 7.61074 15.1601 7.61151 15.1819 7.60719C15.2037 7.60288 15.2243 7.59359 15.242 7.58005C15.2596 7.56651 15.274 7.54909 15.2838 7.52913C15.2937 7.50917 15.2988 7.48721 15.2988 7.46495C15.2988 7.44269 15.2937 7.42072 15.2838 7.40076C15.274 7.3808 15.2596 7.36338 15.242 7.34984C15.2243 7.3363 15.2037 7.32702 15.1819 7.3227C15.1601 7.31838 15.1375 7.31915 15.116 7.32495C15.0853 7.33325 15.0581 7.35146 15.0387 7.37677C15.0193 7.40207 15.0088 7.43307 15.0088 7.46495C15.0088 7.49683 15.0193 7.52782 15.0387 7.55313C15.0581 7.57843 15.0853 7.59665 15.116 7.60495Z" fill="white"/>
<path d="M15.1164 7.60699C15.1373 7.61106 15.1588 7.61047 15.1794 7.60524C15.2 7.60002 15.2192 7.5903 15.2356 7.57678C15.252 7.56326 15.2652 7.54627 15.2742 7.52704C15.2833 7.5078 15.288 7.4868 15.288 7.46553C15.288 7.44427 15.2833 7.42326 15.2742 7.40403C15.2652 7.3848 15.252 7.36781 15.2356 7.35429C15.2192 7.34077 15.2 7.33105 15.1794 7.32583C15.1588 7.3206 15.1373 7.32001 15.1164 7.32408C15.0836 7.33048 15.0541 7.3481 15.0329 7.3739C15.0116 7.39971 15 7.4321 15 7.46553C15 7.49897 15.0116 7.53136 15.0329 7.55717C15.0541 7.58297 15.0836 7.60058 15.1164 7.60699Z" stroke="black" stroke-width="0.0533562"/>
<path d="M15.161 7.20993C15.1825 7.21572 15.205 7.21649 15.2268 7.21217C15.2487 7.20786 15.2692 7.19857 15.2869 7.18503C15.3046 7.1715 15.3189 7.15407 15.3287 7.13411C15.3386 7.11415 15.3437 7.09219 15.3437 7.06993C15.3437 7.04767 15.3386 7.0257 15.3287 7.00574C15.3189 6.98578 15.3046 6.96836 15.2869 6.95482C15.2692 6.94128 15.2487 6.932 15.2268 6.92768C15.205 6.92336 15.1825 6.92413 15.161 6.92993C15.1302 6.93823 15.103 6.95644 15.0836 6.98175C15.0642 7.00705 15.0537 7.03805 15.0537 7.06993C15.0537 7.10181 15.0642 7.1328 15.0836 7.15811C15.103 7.18341 15.1302 7.20163 15.161 7.20993Z" fill="white"/>
<path d="M15.1645 7.21197C15.1854 7.21604 15.2069 7.21545 15.2275 7.21022C15.2481 7.205 15.2672 7.19528 15.2836 7.18176C15.3001 7.16824 15.3133 7.15125 15.3223 7.13202C15.3314 7.11278 15.3361 7.09178 15.3361 7.07051C15.3361 7.04925 15.3314 7.02824 15.3223 7.00901C15.3133 6.98978 15.3001 6.97279 15.2836 6.95927C15.2672 6.94575 15.2481 6.93603 15.2275 6.93081C15.2069 6.92558 15.1854 6.92499 15.1645 6.92906C15.1317 6.93546 15.1022 6.95308 15.0809 6.97888C15.0597 7.00469 15.0481 7.03708 15.0481 7.07051C15.0481 7.10395 15.0597 7.13634 15.0809 7.16215C15.1022 7.18795 15.1317 7.20557 15.1645 7.21197Z" stroke="black" stroke-width="0.0533562"/>
<path d="M15.3812 6.87985C15.4027 6.88564 15.4252 6.88641 15.447 6.8821C15.4689 6.87778 15.4894 6.86849 15.5071 6.85495C15.5248 6.84142 15.5391 6.82399 15.5489 6.80403C15.5588 6.78407 15.5639 6.76211 15.5639 6.73985C15.5639 6.71759 15.5588 6.69563 15.5489 6.67567C15.5391 6.6557 15.5248 6.63828 15.5071 6.62474C15.4894 6.6112 15.4689 6.60192 15.447 6.5976C15.4252 6.59328 15.4027 6.59405 15.3812 6.59985C15.3504 6.60815 15.3232 6.62636 15.3038 6.65167C15.2844 6.67698 15.2739 6.70797 15.2739 6.73985C15.2739 6.77173 15.2844 6.80272 15.3038 6.82803C15.3232 6.85334 15.3504 6.87155 15.3812 6.87985Z" fill="white"/>
<path d="M15.383 6.88116C15.4039 6.88523 15.4254 6.88464 15.446 6.87941C15.4666 6.87419 15.4858 6.86447 15.5022 6.85095C15.5186 6.83743 15.5318 6.82044 15.5408 6.80121C15.5499 6.78197 15.5546 6.76097 15.5546 6.7397C15.5546 6.71844 15.5499 6.69743 15.5408 6.6782C15.5318 6.65897 15.5186 6.64198 15.5022 6.62846C15.4858 6.61494 15.4666 6.60522 15.446 6.6C15.4254 6.59477 15.4039 6.59418 15.383 6.59825C15.3502 6.60465 15.3207 6.62227 15.2995 6.64807C15.2782 6.67388 15.2666 6.70627 15.2666 6.7397C15.2666 6.77314 15.2782 6.80553 15.2995 6.83134C15.3207 6.85714 15.3502 6.87475 15.383 6.88116Z" stroke="black" stroke-width="0.0533562"/>
<path d="M15.6461 6.63986C15.6676 6.64565 15.6901 6.64642 15.7119 6.64211C15.7338 6.63779 15.7543 6.6285 15.772 6.61496C15.7897 6.60143 15.804 6.584 15.8138 6.56404C15.8237 6.54408 15.8288 6.52212 15.8288 6.49986C15.8288 6.4776 15.8237 6.45564 15.8138 6.43568C15.804 6.41571 15.7897 6.39829 15.772 6.38475C15.7543 6.37122 15.7338 6.36193 15.7119 6.35761C15.6901 6.35329 15.6676 6.35406 15.6461 6.35986C15.6153 6.36816 15.5881 6.38637 15.5687 6.41168C15.5493 6.43699 15.5388 6.46798 15.5388 6.49986C15.5388 6.53174 15.5493 6.56273 15.5687 6.58804C15.5881 6.61335 15.6153 6.63156 15.6461 6.63986Z" fill="white"/>
<path d="M15.6442 6.64092C15.6651 6.645 15.6866 6.6444 15.7072 6.63918C15.7278 6.63396 15.747 6.62423 15.7634 6.61071C15.7798 6.59719 15.793 6.58021 15.8021 6.56097C15.8111 6.54174 15.8158 6.52074 15.8158 6.49947C15.8158 6.4782 15.8111 6.4572 15.8021 6.43797C15.793 6.41873 15.7798 6.40175 15.7634 6.38823C15.747 6.37471 15.7278 6.36498 15.7072 6.35976C15.6866 6.35454 15.6651 6.35394 15.6442 6.35802C15.6115 6.36442 15.5819 6.38203 15.5607 6.40784C15.5394 6.43364 15.5278 6.46604 15.5278 6.49947C15.5278 6.5329 15.5394 6.5653 15.5607 6.5911C15.5819 6.61691 15.6115 6.63452 15.6442 6.64092Z" stroke="black" stroke-width="0.0533562"/>
<path d="M15.9859 6.50485C16.0074 6.51064 16.0299 6.51141 16.0518 6.5071C16.0736 6.50278 16.0942 6.49349 16.1118 6.47995C16.1295 6.46642 16.1438 6.44899 16.1537 6.42903C16.1635 6.40907 16.1687 6.38711 16.1687 6.36485C16.1687 6.34259 16.1635 6.32063 16.1537 6.30067C16.1438 6.2807 16.1295 6.26328 16.1118 6.24974C16.0942 6.23621 16.0736 6.22692 16.0518 6.2226C16.0299 6.21828 16.0074 6.21905 15.9859 6.22485C15.9551 6.23315 15.9279 6.25136 15.9086 6.27667C15.8892 6.30198 15.8787 6.33297 15.8787 6.36485C15.8787 6.39673 15.8892 6.42772 15.9086 6.45303C15.9279 6.47834 15.9551 6.49655 15.9859 6.50485Z" fill="white"/>
<path d="M15.9858 6.50738C16.0067 6.51145 16.0282 6.51086 16.0488 6.50563C16.0693 6.50041 16.0885 6.49069 16.1049 6.47717C16.1213 6.46365 16.1345 6.44666 16.1436 6.42743C16.1527 6.4082 16.1574 6.38719 16.1574 6.36592C16.1574 6.34466 16.1527 6.32366 16.1436 6.30442C16.1345 6.28519 16.1213 6.2682 16.1049 6.25468C16.0885 6.24116 16.0693 6.23144 16.0488 6.22622C16.0282 6.22099 16.0067 6.2204 15.9858 6.22447C15.953 6.23087 15.9235 6.24849 15.9022 6.27429C15.881 6.3001 15.8694 6.33249 15.8694 6.36592C15.8694 6.39936 15.881 6.43175 15.9022 6.45756C15.9235 6.48336 15.953 6.50098 15.9858 6.50738Z" stroke="black" stroke-width="0.0533562"/>
<path d="M16.336 6.45003C16.3744 6.45003 16.4113 6.43476 16.4385 6.40756C16.4657 6.38037 16.481 6.34349 16.481 6.30503C16.481 6.26658 16.4657 6.2297 16.4385 6.2025C16.4113 6.17531 16.3744 6.16003 16.336 6.16003C16.3027 6.16628 16.2727 6.18395 16.2512 6.20997C16.2296 6.23599 16.2178 6.26873 16.2178 6.30253C16.2178 6.33634 16.2296 6.36908 16.2512 6.3951C16.2727 6.42112 16.3027 6.43878 16.336 6.44503" fill="white"/>
<path d="M16.3376 6.44877C16.3758 6.44877 16.4124 6.43358 16.4394 6.40656C16.4664 6.37953 16.4816 6.34287 16.4816 6.30465C16.4816 6.26642 16.4664 6.22976 16.4394 6.20273C16.4124 6.17571 16.3758 6.16052 16.3376 6.16052C16.3048 6.16693 16.2753 6.18454 16.254 6.21035C16.2328 6.23615 16.2212 6.26854 16.2212 6.30198C16.2212 6.33541 16.2328 6.3678 16.254 6.39361C16.2753 6.41941 16.3048 6.43703 16.3376 6.44343V6.44877Z" stroke="black" stroke-width="0.0533562"/>
<path d="M16.6761 6.42507C16.697 6.42901 16.7186 6.42829 16.7392 6.42295C16.7598 6.41761 16.779 6.40779 16.7954 6.39418C16.8118 6.38057 16.825 6.36352 16.8341 6.34423C16.8432 6.32494 16.8479 6.30389 16.8479 6.28257C16.8479 6.26126 16.8432 6.24021 16.8341 6.22092C16.825 6.20163 16.8118 6.18457 16.7954 6.17097C16.779 6.15736 16.7598 6.14754 16.7392 6.1422C16.7186 6.13686 16.697 6.13613 16.6761 6.14007C16.6428 6.14632 16.6128 6.16399 16.5913 6.19001C16.5697 6.21603 16.5579 6.24877 16.5579 6.28257C16.5579 6.31638 16.5697 6.34912 16.5913 6.37514C16.6128 6.40116 16.6428 6.41882 16.6761 6.42507Z" fill="white"/>
<path d="M16.6738 6.42729C16.712 6.42729 16.7486 6.4121 16.7756 6.38507C16.8026 6.35804 16.8178 6.32139 16.8178 6.28316C16.8178 6.24494 16.8026 6.20828 16.7756 6.18125C16.7486 6.15422 16.712 6.13904 16.6738 6.13904C16.6356 6.13904 16.599 6.15422 16.572 6.18125C16.545 6.20828 16.5298 6.24494 16.5298 6.28316C16.5298 6.32139 16.545 6.35804 16.572 6.38507C16.599 6.4121 16.6356 6.42729 16.6738 6.42729Z" stroke="black" stroke-width="0.0533562"/>
<path d="M16.9761 6.44998C16.997 6.45392 17.0186 6.45319 17.0392 6.44785C17.0598 6.44251 17.079 6.43269 17.0954 6.41908C17.1118 6.40548 17.125 6.38842 17.1341 6.36913C17.1432 6.34984 17.1479 6.32879 17.1479 6.30748C17.1479 6.28616 17.1432 6.26511 17.1341 6.24582C17.125 6.22653 17.1118 6.20947 17.0954 6.19587C17.079 6.18226 17.0598 6.17244 17.0392 6.1671C17.0186 6.16176 16.997 6.16103 16.9761 6.16498C16.9376 6.16498 16.9007 6.18025 16.8735 6.20745C16.8463 6.23464 16.8311 6.27152 16.8311 6.30998C16.8311 6.34843 16.8463 6.38531 16.8735 6.41251C16.9007 6.4397 16.9376 6.45498 16.9761 6.45498" fill="white"/>
<path d="M16.9777 6.44879C16.9986 6.45286 17.0201 6.45226 17.0407 6.44704C17.0613 6.44182 17.0805 6.4321 17.0969 6.41858C17.1133 6.40505 17.1265 6.38807 17.1356 6.36883C17.1446 6.3496 17.1493 6.3286 17.1493 6.30733C17.1493 6.28606 17.1446 6.26506 17.1356 6.24583C17.1265 6.22659 17.1133 6.20961 17.0969 6.19609C17.0805 6.18257 17.0613 6.17285 17.0407 6.16762C17.0201 6.1624 16.9986 6.1618 16.9777 6.16588C16.9396 6.16588 16.9029 6.18106 16.8759 6.20809C16.8489 6.23512 16.8337 6.27178 16.8337 6.31C16.8337 6.34822 16.8489 6.38488 16.8759 6.41191C16.9029 6.43894 16.9396 6.45412 16.9777 6.45412V6.44879Z" stroke="black" stroke-width="0.0533562"/>
<path d="M17.8311 6.34005C17.8526 6.34585 17.8752 6.34662 17.897 6.3423C17.9188 6.33798 17.9394 6.3287 17.9571 6.31516C17.9747 6.30162 17.989 6.2842 17.9989 6.26424C18.0088 6.24428 18.0139 6.22231 18.0139 6.20005C18.0139 6.17779 18.0088 6.15583 17.9989 6.13587C17.989 6.11591 17.9747 6.09849 17.9571 6.08495C17.9394 6.07141 17.9188 6.06212 17.897 6.05781C17.8752 6.05349 17.8526 6.05426 17.8311 6.06005C17.8003 6.06835 17.7732 6.08657 17.7538 6.11187C17.7344 6.13718 17.7239 6.16817 17.7239 6.20005C17.7239 6.23193 17.7344 6.26293 17.7538 6.28823C17.7732 6.31354 17.8003 6.33175 17.8311 6.34005Z" fill="white"/>
<path d="M17.831 6.34185C17.8519 6.34593 17.8734 6.34533 17.894 6.34011C17.9146 6.33488 17.9338 6.32516 17.9502 6.31164C17.9666 6.29812 17.9798 6.28113 17.9888 6.2619C17.9979 6.24267 18.0026 6.22166 18.0026 6.2004C18.0026 6.17913 17.9979 6.15813 17.9888 6.13889C17.9798 6.11966 17.9666 6.10268 17.9502 6.08915C17.9338 6.07563 17.9146 6.06591 17.894 6.06069C17.8734 6.05547 17.8519 6.05487 17.831 6.05894C17.7982 6.06535 17.7687 6.08296 17.7475 6.10877C17.7262 6.13457 17.7146 6.16697 17.7146 6.2004C17.7146 6.23383 17.7262 6.26622 17.7475 6.29203C17.7687 6.31783 17.7982 6.33545 17.831 6.34185Z" stroke="black" stroke-width="0.0533562"/>
<path d="M18.1109 6.41501C18.1324 6.4208 18.1549 6.42157 18.1768 6.41725C18.1986 6.41293 18.2192 6.40365 18.2368 6.39011C18.2545 6.37657 18.2688 6.35915 18.2787 6.33919C18.2885 6.31923 18.2937 6.29727 18.2937 6.275C18.2937 6.25274 18.2885 6.23078 18.2787 6.21082C18.2688 6.19086 18.2545 6.17344 18.2368 6.1599C18.2192 6.14636 18.1986 6.13707 18.1768 6.13276C18.1549 6.12844 18.1324 6.12921 18.1109 6.135C18.0801 6.1433 18.0529 6.16152 18.0336 6.18683C18.0142 6.21213 18.0037 6.24312 18.0037 6.275C18.0037 6.30689 18.0142 6.33788 18.0336 6.36318C18.0529 6.38849 18.0801 6.40671 18.1109 6.41501Z" fill="white"/>
<path d="M18.1084 6.4168C18.1292 6.42088 18.1507 6.42028 18.1713 6.41506C18.1919 6.40984 18.2111 6.40011 18.2275 6.38659C18.2439 6.37307 18.2571 6.35609 18.2662 6.33685C18.2752 6.31762 18.2799 6.29662 18.2799 6.27535C18.2799 6.25408 18.2752 6.23308 18.2662 6.21385C18.2571 6.19461 18.2439 6.17763 18.2275 6.1641C18.2111 6.15058 18.1919 6.14086 18.1713 6.13564C18.1507 6.13042 18.1292 6.12982 18.1084 6.13389C18.0756 6.1403 18.046 6.15791 18.0248 6.18372C18.0036 6.20952 17.9919 6.24192 17.9919 6.27535C17.9919 6.30878 18.0036 6.34117 18.0248 6.36698C18.046 6.39279 18.0756 6.4104 18.1084 6.4168Z" stroke="black" stroke-width="0.0533562"/>
<path d="M18.1111 7.47494C18.1495 7.47494 18.1864 7.45966 18.2136 7.43247C18.2408 7.40527 18.2561 7.36839 18.2561 7.32994C18.2561 7.29148 18.2408 7.2546 18.2136 7.22741C18.1864 7.20021 18.1495 7.18494 18.1111 7.18494C18.0726 7.18494 18.0357 7.20021 18.0085 7.22741C17.9813 7.2546 17.9661 7.29148 17.9661 7.32994C17.9661 7.36839 17.9813 7.40527 18.0085 7.43247C18.0357 7.45966 18.0726 7.47494 18.1111 7.47494Z" fill="white"/>
<path d="M18.1084 7.47367C18.1465 7.47367 18.1832 7.45849 18.2102 7.43146C18.2372 7.40443 18.2524 7.36777 18.2524 7.32955C18.2524 7.29132 18.2372 7.25467 18.2102 7.22764C18.1832 7.20061 18.1465 7.18542 18.1084 7.18542C18.0702 7.18542 18.0335 7.20061 18.0065 7.22764C17.9795 7.25467 17.9644 7.29132 17.9644 7.32955C17.9644 7.36777 17.9795 7.40443 18.0065 7.43146C18.0335 7.45849 18.0702 7.47367 18.1084 7.47367Z" stroke="black" stroke-width="0.0533562"/>
<path d="M21.0462 8.02493C21.0671 8.02887 21.0887 8.02814 21.1093 8.0228C21.1299 8.01746 21.1491 8.00764 21.1655 7.99403C21.182 7.98043 21.1952 7.96337 21.2042 7.94408C21.2133 7.92479 21.218 7.90374 21.218 7.88243C21.218 7.86111 21.2133 7.84006 21.2042 7.82077C21.1952 7.80148 21.182 7.78443 21.1655 7.77082C21.1491 7.75721 21.1299 7.74739 21.1093 7.74205C21.0887 7.73671 21.0671 7.73599 21.0462 7.73993C21.0129 7.74618 20.983 7.76384 20.9614 7.78986C20.9398 7.81588 20.928 7.84862 20.928 7.88243C20.928 7.91623 20.9398 7.94897 20.9614 7.97499C20.983 8.00101 21.0129 8.01868 21.0462 8.02493Z" fill="white"/>
<path d="M21.0471 8.02349C21.0679 8.02757 21.0894 8.02697 21.11 8.02175C21.1306 8.01652 21.1498 8.0068 21.1662 7.99328C21.1826 7.97976 21.1958 7.96277 21.2049 7.94354C21.214 7.92431 21.2187 7.90331 21.2187 7.88204C21.2187 7.86077 21.214 7.83977 21.2049 7.82054C21.1958 7.8013 21.1826 7.78432 21.1662 7.77079C21.1498 7.75727 21.1306 7.74755 21.11 7.74233C21.0894 7.73711 21.0679 7.73651 21.0471 7.74058C21.0143 7.74699 20.9848 7.7646 20.9635 7.79041C20.9423 7.81621 20.9307 7.84861 20.9307 7.88204C20.9307 7.91547 20.9423 7.94786 20.9635 7.97367C20.9848 7.99948 21.0143 8.01709 21.0471 8.02349Z" stroke="black" stroke-width="0.0533562"/>
<path d="M21.1212 7.67507C21.1421 7.67901 21.1637 7.67829 21.1843 7.67295C21.2049 7.66761 21.2241 7.65779 21.2405 7.64418C21.2569 7.63057 21.2702 7.61352 21.2792 7.59423C21.2883 7.57494 21.293 7.55389 21.293 7.53257C21.293 7.51126 21.2883 7.49021 21.2792 7.47092C21.2702 7.45163 21.2569 7.43457 21.2405 7.42097C21.2241 7.40736 21.2049 7.39754 21.1843 7.3922C21.1637 7.38686 21.1421 7.38613 21.1212 7.39007C21.0904 7.39837 21.0632 7.41659 21.0438 7.44189C21.0244 7.4672 21.0139 7.49819 21.0139 7.53007C21.0139 7.56195 21.0244 7.59295 21.0438 7.61825C21.0632 7.64356 21.0904 7.66177 21.1212 7.67007" fill="white"/>
<path d="M21.1218 7.67655C21.16 7.67655 21.1966 7.66137 21.2236 7.63434C21.2506 7.60731 21.2658 7.57065 21.2658 7.53243C21.2658 7.4942 21.2506 7.45755 21.2236 7.43052C21.1966 7.40349 21.16 7.38831 21.1218 7.38831C21.089 7.39471 21.0595 7.41232 21.0382 7.43813C21.017 7.46393 21.0054 7.49633 21.0054 7.52976C21.0054 7.56319 21.017 7.59559 21.0382 7.62139C21.0595 7.6472 21.089 7.66481 21.1218 7.67121V7.67655Z" stroke="black" stroke-width="0.0533562"/>
<path d="M21.0611 7.30001C21.0826 7.30581 21.1051 7.30658 21.1269 7.30226C21.1488 7.29794 21.1693 7.28866 21.187 7.27512C21.2047 7.26158 21.219 7.24416 21.2288 7.2242C21.2387 7.20424 21.2438 7.18228 21.2438 7.16001C21.2438 7.13775 21.2387 7.11579 21.2288 7.09583C21.219 7.07587 21.2047 7.05845 21.187 7.04491C21.1693 7.03137 21.1488 7.02208 21.1269 7.01777C21.1051 7.01345 21.0826 7.01422 21.0611 7.02001C21.0278 7.02626 20.9978 7.04393 20.9763 7.06995C20.9547 7.09597 20.9429 7.12871 20.9429 7.16251C20.9429 7.19632 20.9547 7.22906 20.9763 7.25508C20.9978 7.2811 21.0278 7.29876 21.0611 7.30502" fill="white"/>
<path d="M21.0632 7.30279C21.084 7.30686 21.1055 7.30627 21.1261 7.30104C21.1467 7.29582 21.1659 7.2861 21.1823 7.27258C21.1987 7.25906 21.2119 7.24207 21.221 7.22284C21.2301 7.20361 21.2348 7.1826 21.2348 7.16134C21.2348 7.14007 21.2301 7.11907 21.221 7.09983C21.2119 7.0806 21.1987 7.06361 21.1823 7.05009C21.1659 7.03657 21.1467 7.02685 21.1261 7.02163C21.1055 7.0164 21.084 7.01581 21.0632 7.01988C21.0304 7.02629 21.0009 7.0439 20.9796 7.0697C20.9584 7.09551 20.9468 7.1279 20.9468 7.16134C20.9468 7.19477 20.9584 7.22716 20.9796 7.25297C21.0009 7.27877 21.0304 7.29639 21.0632 7.30279Z" stroke="black" stroke-width="0.0533562"/>
<path d="M20.9109 6.95486C20.9319 6.9588 20.9534 6.95807 20.9741 6.95273C20.9947 6.94739 21.0139 6.93757 21.0303 6.92397C21.0467 6.91036 21.0599 6.8933 21.069 6.87401C21.078 6.85472 21.0827 6.83367 21.0827 6.81236C21.0827 6.79105 21.078 6.76999 21.069 6.7507C21.0599 6.73141 21.0467 6.71436 21.0303 6.70075C21.0139 6.68714 20.9947 6.67732 20.9741 6.67198C20.9534 6.66664 20.9319 6.66592 20.9109 6.66986C20.8777 6.67611 20.8477 6.69377 20.8261 6.71979C20.8045 6.74581 20.7927 6.77855 20.7927 6.81236C20.7927 6.84616 20.8045 6.87891 20.8261 6.90493C20.8477 6.93095 20.8777 6.94861 20.9109 6.95486Z" fill="white"/>
<path d="M20.9084 6.95585C20.9466 6.95585 20.9832 6.94066 21.0102 6.91364C21.0372 6.88661 21.0524 6.84995 21.0524 6.81173C21.0524 6.7735 21.0372 6.73684 21.0102 6.70981C20.9832 6.68279 20.9466 6.6676 20.9084 6.6676C20.8702 6.6676 20.8336 6.68279 20.8066 6.70981C20.7796 6.73684 20.7644 6.7735 20.7644 6.81173C20.7644 6.84995 20.7796 6.88661 20.8066 6.91364C20.8336 6.94066 20.8702 6.95585 20.9084 6.95585Z" stroke="black" stroke-width="0.0533562"/>
<path d="M20.646 6.71493C20.6845 6.71493 20.7214 6.69965 20.7486 6.67246C20.7757 6.64526 20.791 6.60838 20.791 6.56993C20.791 6.53147 20.7757 6.49459 20.7486 6.4674C20.7214 6.4402 20.6845 6.42493 20.646 6.42493C20.6128 6.43118 20.5828 6.44884 20.5612 6.47486C20.5396 6.50088 20.5278 6.53362 20.5278 6.56743C20.5278 6.60123 20.5396 6.63397 20.5612 6.65999C20.5828 6.68601 20.6128 6.70368 20.646 6.70993" fill="white"/>
<path d="M20.6472 6.71561C20.6854 6.71561 20.722 6.70043 20.749 6.6734C20.776 6.64637 20.7912 6.60972 20.7912 6.57149C20.7912 6.53327 20.776 6.49661 20.749 6.46958C20.722 6.44255 20.6854 6.42737 20.6472 6.42737C20.6144 6.43377 20.5848 6.45139 20.5636 6.47719C20.5424 6.503 20.5308 6.53539 20.5308 6.56882C20.5308 6.60225 20.5424 6.63465 20.5636 6.66045C20.5848 6.68626 20.6144 6.70387 20.6472 6.71028V6.71561Z" stroke="black" stroke-width="0.0533562"/>
<path d="M20.3311 6.5549C20.3526 6.56069 20.3752 6.56146 20.397 6.55714C20.4188 6.55283 20.4394 6.54354 20.4571 6.53C20.4747 6.51647 20.489 6.49904 20.4989 6.47908C20.5088 6.45912 20.5139 6.43716 20.5139 6.4149C20.5139 6.39264 20.5088 6.37068 20.4989 6.35071C20.489 6.33075 20.4747 6.31333 20.4571 6.29979C20.4394 6.28625 20.4188 6.27697 20.397 6.27265C20.3752 6.26833 20.3526 6.2691 20.3311 6.2749C20.3003 6.2832 20.2732 6.30141 20.2538 6.32672C20.2344 6.35203 20.2239 6.38302 20.2239 6.4149C20.2239 6.44678 20.2344 6.47777 20.2538 6.50308C20.2732 6.52839 20.3003 6.5466 20.3311 6.5549Z" fill="white"/>
<path d="M20.3325 6.55548C20.3533 6.55955 20.3748 6.55895 20.3954 6.55373C20.416 6.54851 20.4352 6.53879 20.4516 6.52526C20.468 6.51174 20.4812 6.49476 20.4903 6.47552C20.4994 6.45629 20.5041 6.43529 20.5041 6.41402C20.5041 6.39275 20.4994 6.37175 20.4903 6.35252C20.4812 6.33328 20.468 6.3163 20.4516 6.30278C20.4352 6.28926 20.416 6.27953 20.3954 6.27431C20.3748 6.26909 20.3533 6.26849 20.3325 6.27257C20.2997 6.27897 20.2702 6.29658 20.2489 6.32239C20.2277 6.34819 20.2161 6.38059 20.2161 6.41402C20.2161 6.44745 20.2277 6.47985 20.2489 6.50565C20.2702 6.53146 20.2997 6.54907 20.3325 6.55548Z" stroke="black" stroke-width="0.0533562"/>
<path d="M19.971 6.47506C19.9925 6.48086 20.0151 6.48163 20.0369 6.47731C20.0587 6.47299 20.0793 6.46371 20.0969 6.45017C20.1146 6.43663 20.1289 6.41921 20.1388 6.39925C20.1486 6.37929 20.1538 6.35732 20.1538 6.33506C20.1538 6.3128 20.1486 6.29084 20.1388 6.27088C20.1289 6.25092 20.1146 6.2335 20.0969 6.21996C20.0793 6.20642 20.0587 6.19713 20.0369 6.19282C20.0151 6.1885 19.9925 6.18927 19.971 6.19506C19.9402 6.20336 19.9131 6.22158 19.8937 6.24688C19.8743 6.27219 19.8638 6.30318 19.8638 6.33506C19.8638 6.36694 19.8743 6.39794 19.8937 6.42324C19.9131 6.44855 19.9402 6.46676 19.971 6.47506Z" fill="white"/>
<path d="M19.9697 6.4754C19.9905 6.47947 20.012 6.47887 20.0326 6.47365C20.0532 6.46843 20.0724 6.45871 20.0888 6.44519C20.1052 6.43167 20.1184 6.41468 20.1275 6.39545C20.1366 6.37621 20.1413 6.35521 20.1413 6.33394C20.1413 6.31268 20.1366 6.29167 20.1275 6.27244C20.1184 6.25321 20.1052 6.23622 20.0888 6.2227C20.0724 6.20918 20.0532 6.19946 20.0326 6.19423C20.012 6.18901 19.9905 6.18841 19.9697 6.19249C19.9369 6.19889 19.9074 6.21651 19.8861 6.24231C19.8649 6.26812 19.8533 6.30051 19.8533 6.33394C19.8533 6.36738 19.8649 6.39977 19.8861 6.42557C19.9074 6.45138 19.9369 6.46899 19.9697 6.4754Z" stroke="black" stroke-width="0.0533562"/>
<path d="M19.646 6.44998C19.667 6.45392 19.6885 6.45319 19.7092 6.44785C19.7298 6.44251 19.749 6.43269 19.7654 6.41908C19.7818 6.40548 19.795 6.38842 19.8041 6.36913C19.8131 6.34984 19.8178 6.32879 19.8178 6.30748C19.8178 6.28616 19.8131 6.26511 19.8041 6.24582C19.795 6.22653 19.7818 6.20947 19.7654 6.19587C19.749 6.18226 19.7298 6.17244 19.7092 6.1671C19.6885 6.16176 19.667 6.16103 19.646 6.16498C19.6128 6.17123 19.5828 6.18889 19.5612 6.21491C19.5396 6.24093 19.5278 6.27367 19.5278 6.30748C19.5278 6.34128 19.5396 6.37402 19.5612 6.40004C19.5828 6.42606 19.6128 6.44373 19.646 6.44998Z" fill="white"/>
<path d="M19.6442 6.44879C19.6651 6.45286 19.6866 6.45226 19.7072 6.44704C19.7278 6.44182 19.747 6.4321 19.7634 6.41858C19.7798 6.40505 19.793 6.38807 19.8021 6.36883C19.8111 6.3496 19.8158 6.3286 19.8158 6.30733C19.8158 6.28606 19.8111 6.26506 19.8021 6.24583C19.793 6.22659 19.7798 6.20961 19.7634 6.19609C19.747 6.18257 19.7278 6.17285 19.7072 6.16762C19.6866 6.1624 19.6651 6.1618 19.6442 6.16588C19.6115 6.17228 19.5819 6.18989 19.5607 6.2157C19.5394 6.24151 19.5278 6.2739 19.5278 6.30733C19.5278 6.34076 19.5394 6.37316 19.5607 6.39896C19.5819 6.42477 19.6115 6.44238 19.6442 6.44879Z" stroke="black" stroke-width="0.0533562"/>
<path d="M19.3462 6.40994C19.3672 6.41388 19.3887 6.41315 19.4094 6.40781C19.43 6.40247 19.4492 6.39265 19.4656 6.37904C19.482 6.36544 19.4952 6.34838 19.5043 6.32909C19.5133 6.3098 19.518 6.28875 19.518 6.26744C19.518 6.24612 19.5133 6.22507 19.5043 6.20578C19.4952 6.18649 19.482 6.16944 19.4656 6.15583C19.4492 6.14222 19.43 6.1324 19.4094 6.12706C19.3887 6.12172 19.3672 6.121 19.3462 6.12494C19.313 6.13119 19.283 6.14885 19.2614 6.17487C19.2398 6.20089 19.228 6.23363 19.228 6.26744C19.228 6.30124 19.2398 6.33398 19.2614 6.36C19.283 6.38602 19.313 6.40369 19.3462 6.40994Z" fill="white"/>
<path d="M19.3457 6.41142C19.3839 6.41142 19.4205 6.39623 19.4475 6.3692C19.4745 6.34217 19.4897 6.30552 19.4897 6.26729C19.4897 6.22907 19.4745 6.19241 19.4475 6.16538C19.4205 6.13835 19.3839 6.12317 19.3457 6.12317C19.3075 6.12317 19.2708 6.13835 19.2438 6.16538C19.2168 6.19241 19.2017 6.22907 19.2017 6.26729C19.2017 6.30552 19.2168 6.34217 19.2438 6.3692C19.2708 6.39623 19.3075 6.41142 19.3457 6.41142Z" stroke="black" stroke-width="0.0533562"/>
<path d="M19.5361 7.56985C19.5571 7.57379 19.5786 7.57306 19.5992 7.56772C19.6199 7.56238 19.6391 7.55256 19.6555 7.53896C19.6719 7.52535 19.6851 7.50829 19.6942 7.489C19.7032 7.46971 19.7079 7.44866 19.7079 7.42735C19.7079 7.40604 19.7032 7.38498 19.6942 7.36569C19.6851 7.3464 19.6719 7.32935 19.6555 7.31574C19.6391 7.30214 19.6199 7.29231 19.5992 7.28697C19.5786 7.28163 19.5571 7.28091 19.5361 7.28485C19.4977 7.28485 19.4608 7.30013 19.4336 7.32732C19.4064 7.35451 19.3911 7.39139 19.3911 7.42985C19.3911 7.46831 19.4064 7.50519 19.4336 7.53238C19.4608 7.55957 19.4977 7.57485 19.5361 7.57485" fill="white"/>
<path d="M19.5378 7.56964C19.5587 7.57371 19.5802 7.57311 19.6008 7.56789C19.6213 7.56267 19.6405 7.55295 19.6569 7.53942C19.6733 7.5259 19.6865 7.50892 19.6956 7.48968C19.7047 7.47045 19.7094 7.44945 19.7094 7.42818C19.7094 7.40691 19.7047 7.38591 19.6956 7.36668C19.6865 7.34744 19.6733 7.33046 19.6569 7.31694C19.6405 7.30342 19.6213 7.2937 19.6008 7.28847C19.5802 7.28325 19.5587 7.28265 19.5378 7.28673C19.4996 7.28673 19.463 7.30191 19.436 7.32894C19.409 7.35597 19.3938 7.39263 19.3938 7.43085C19.3938 7.46907 19.409 7.50573 19.436 7.53276C19.463 7.55979 19.4996 7.57497 19.5378 7.57497V7.56964Z" stroke="black" stroke-width="0.0533562"/>
<path d="M19.6109 7.30007C19.6319 7.30401 19.6534 7.30329 19.674 7.29795C19.6947 7.29261 19.7139 7.28279 19.7303 7.26918C19.7467 7.25557 19.7599 7.23852 19.769 7.21923C19.778 7.19994 19.7827 7.17889 19.7827 7.15757C19.7827 7.13626 19.778 7.11521 19.769 7.09592C19.7599 7.07663 19.7467 7.05957 19.7303 7.04597C19.7139 7.03236 19.6947 7.02254 19.674 7.0172C19.6534 7.01186 19.6319 7.01113 19.6109 7.01507C19.5801 7.02337 19.5529 7.04159 19.5336 7.06689C19.5142 7.0922 19.5037 7.12319 19.5037 7.15507C19.5037 7.18695 19.5142 7.21795 19.5336 7.24325C19.5529 7.26856 19.5801 7.28677 19.6109 7.29507" fill="white"/>
<path d="M19.6125 7.30277C19.6507 7.30277 19.6873 7.28759 19.7143 7.26056C19.7413 7.23353 19.7565 7.19687 19.7565 7.15865C19.7565 7.12043 19.7413 7.08377 19.7143 7.05674C19.6873 7.02971 19.6507 7.01453 19.6125 7.01453C19.5797 7.02093 19.5502 7.03854 19.5289 7.06435C19.5077 7.09015 19.4961 7.12255 19.4961 7.15598C19.4961 7.18941 19.5077 7.22181 19.5289 7.24761C19.5502 7.27342 19.5797 7.29103 19.6125 7.29743V7.30277Z" stroke="black" stroke-width="0.0533562"/>
<path d="M18.416 6.38998C18.4545 6.38998 18.4913 6.3747 18.5185 6.34751C18.5457 6.32031 18.561 6.28343 18.561 6.24498C18.561 6.20652 18.5457 6.16964 18.5185 6.14244C18.4913 6.11525 18.4545 6.09998 18.416 6.09998C18.3775 6.09998 18.3407 6.11525 18.3135 6.14244C18.2863 6.16964 18.271 6.20652 18.271 6.24498C18.271 6.28343 18.2863 6.32031 18.3135 6.34751C18.3407 6.3747 18.3775 6.38998 18.416 6.38998Z" fill="white"/>
<path d="M18.4179 6.38993C18.4561 6.38993 18.4927 6.37475 18.5198 6.34772C18.5468 6.32069 18.5619 6.28403 18.5619 6.24581C18.5619 6.20758 18.5468 6.17093 18.5198 6.1439C18.4927 6.11687 18.4561 6.10168 18.4179 6.10168C18.3797 6.10168 18.3431 6.11687 18.3161 6.1439C18.2891 6.17093 18.2739 6.20758 18.2739 6.24581C18.2739 6.28403 18.2891 6.32069 18.3161 6.34772C18.3431 6.37475 18.3797 6.38993 18.4179 6.38993Z" stroke="black" stroke-width="0.0533562"/>
<path d="M17.7259 6.34988C17.7468 6.35382 17.7684 6.35309 17.789 6.34775C17.8097 6.34241 17.8289 6.33259 17.8453 6.31899C17.8617 6.30538 17.8749 6.28832 17.884 6.26903C17.893 6.24974 17.8977 6.22869 17.8977 6.20738C17.8977 6.18606 17.893 6.16501 17.884 6.14572C17.8749 6.12643 17.8617 6.10938 17.8453 6.09577C17.8289 6.08216 17.8097 6.07234 17.789 6.067C17.7684 6.06166 17.7468 6.06094 17.7259 6.06488C17.6951 6.07318 17.6679 6.09139 17.6485 6.1167C17.6292 6.14201 17.6187 6.173 17.6187 6.20488C17.6187 6.23676 17.6292 6.26775 17.6485 6.29306C17.6679 6.31837 17.6951 6.33658 17.7259 6.34488" fill="white"/>
<path d="M17.7243 6.34722C17.7452 6.3513 17.7667 6.3507 17.7873 6.34548C17.8079 6.34025 17.8271 6.33053 17.8435 6.31701C17.8599 6.30349 17.8731 6.28651 17.8821 6.26727C17.8912 6.24804 17.8959 6.22704 17.8959 6.20577C17.8959 6.1845 17.8912 6.1635 17.8821 6.14427C17.8731 6.12503 17.8599 6.10805 17.8435 6.09452C17.8271 6.081 17.8079 6.07128 17.7873 6.06606C17.7667 6.06084 17.7452 6.06024 17.7243 6.06431C17.6915 6.07072 17.662 6.08833 17.6408 6.11414C17.6195 6.13994 17.6079 6.17234 17.6079 6.20577C17.6079 6.2392 17.6195 6.27159 17.6408 6.2974C17.662 6.32321 17.6915 6.34082 17.7243 6.34722Z" stroke="black" stroke-width="0.0533562"/>
<path d="M17.556 6.34005C17.5775 6.34585 17.6 6.34662 17.6219 6.3423C17.6437 6.33798 17.6642 6.3287 17.6819 6.31516C17.6996 6.30162 17.7139 6.2842 17.7238 6.26424C17.7336 6.24428 17.7387 6.22231 17.7387 6.20005C17.7387 6.17779 17.7336 6.15583 17.7238 6.13587C17.7139 6.11591 17.6996 6.09849 17.6819 6.08495C17.6642 6.07141 17.6437 6.06212 17.6219 6.05781C17.6 6.05349 17.5775 6.05426 17.556 6.06005C17.5252 6.06835 17.498 6.08657 17.4786 6.11187C17.4592 6.13718 17.4487 6.16817 17.4487 6.20005C17.4487 6.23193 17.4592 6.26293 17.4786 6.28823C17.498 6.31354 17.5252 6.33175 17.556 6.34005Z" fill="white"/>
<path d="M17.5537 6.34185C17.5745 6.34593 17.596 6.34533 17.6166 6.34011C17.6372 6.33488 17.6564 6.32516 17.6728 6.31164C17.6892 6.29812 17.7024 6.28113 17.7115 6.2619C17.7206 6.24267 17.7253 6.22166 17.7253 6.2004C17.7253 6.17913 17.7206 6.15813 17.7115 6.13889C17.7024 6.11966 17.6892 6.10268 17.6728 6.08915C17.6564 6.07563 17.6372 6.06591 17.6166 6.06069C17.596 6.05547 17.5745 6.05487 17.5537 6.05894C17.5209 6.06535 17.4913 6.08296 17.4701 6.10877C17.4489 6.13457 17.4373 6.16697 17.4373 6.2004C17.4373 6.23383 17.4489 6.26622 17.4701 6.29203C17.4913 6.31783 17.5209 6.33545 17.5537 6.34185Z" stroke="black" stroke-width="0.0533562"/>
<path d="M16.646 7.57498C16.667 7.57892 16.6885 7.57819 16.7092 7.57285C16.7298 7.56751 16.749 7.55769 16.7654 7.54408C16.7818 7.53048 16.795 7.51342 16.8041 7.49413C16.8131 7.47484 16.8178 7.45379 16.8178 7.43248C16.8178 7.41116 16.8131 7.39011 16.8041 7.37082C16.795 7.35153 16.7818 7.33447 16.7654 7.32087C16.749 7.30726 16.7298 7.29744 16.7092 7.2921C16.6885 7.28676 16.667 7.28603 16.646 7.28998C16.6128 7.29623 16.5828 7.31389 16.5612 7.33991C16.5396 7.36593 16.5278 7.39867 16.5278 7.43248C16.5278 7.46628 16.5396 7.49902 16.5612 7.52504C16.5828 7.55106 16.6128 7.56873 16.646 7.57498Z" fill="white"/>
<path d="M16.6472 7.57501C16.668 7.57908 16.6895 7.57848 16.7101 7.57326C16.7307 7.56804 16.7499 7.55832 16.7663 7.5448C16.7827 7.53127 16.7959 7.51429 16.805 7.49506C16.8141 7.47582 16.8188 7.45482 16.8188 7.43355C16.8188 7.41228 16.8141 7.39128 16.805 7.37205C16.7959 7.35282 16.7827 7.33583 16.7663 7.32231C16.7499 7.30879 16.7307 7.29907 16.7101 7.29384C16.6895 7.28862 16.668 7.28802 16.6472 7.2921C16.6144 7.2985 16.5848 7.31611 16.5636 7.34192C16.5424 7.36773 16.5308 7.40012 16.5308 7.43355C16.5308 7.46698 16.5424 7.49938 16.5636 7.52518C16.5848 7.55099 16.6144 7.5686 16.6472 7.57501Z" stroke="black" stroke-width="0.0533562"/>
<path d="M16.6062 7.24007C16.6446 7.24007 16.6815 7.2248 16.7087 7.1976C16.7359 7.17041 16.7512 7.13353 16.7512 7.09507C16.7512 7.05662 16.7359 7.01974 16.7087 6.99254C16.6815 6.96535 16.6446 6.95007 16.6062 6.95007C16.5677 6.95007 16.5308 6.96535 16.5037 6.99254C16.4765 7.01974 16.4612 7.05662 16.4612 7.09507C16.4612 7.13353 16.4765 7.17041 16.5037 7.1976C16.5308 7.2248 16.5677 7.24007 16.6062 7.24007Z" fill="white"/>
<path d="M16.6045 7.23881C16.6426 7.23881 16.6793 7.22362 16.7063 7.1966C16.7333 7.16957 16.7485 7.13291 16.7485 7.09469C16.7485 7.05646 16.7333 7.0198 16.7063 6.99277C16.6793 6.96575 16.6426 6.95056 16.6045 6.95056C16.5663 6.95056 16.5296 6.96575 16.5026 6.99277C16.4756 7.0198 16.4604 7.05646 16.4604 7.09469C16.4604 7.13291 16.4756 7.16957 16.5026 7.1966C16.5296 7.22362 16.5663 7.23881 16.6045 7.23881Z" stroke="black" stroke-width="0.0533562"/>
<path d="M16.711 6.90994C16.7319 6.91388 16.7535 6.91315 16.7741 6.90781C16.7947 6.90247 16.8139 6.89265 16.8303 6.87904C16.8467 6.86544 16.8599 6.84838 16.869 6.82909C16.8781 6.8098 16.8828 6.78875 16.8828 6.76744C16.8828 6.74612 16.8781 6.72507 16.869 6.70578C16.8599 6.68649 16.8467 6.66944 16.8303 6.65583C16.8139 6.64222 16.7947 6.6324 16.7741 6.62706C16.7535 6.62172 16.7319 6.621 16.711 6.62494C16.6777 6.63119 16.6477 6.64885 16.6262 6.67487C16.6046 6.70089 16.5928 6.73363 16.5928 6.76744C16.5928 6.80124 16.6046 6.83398 16.6262 6.86C16.6477 6.88602 16.6777 6.90369 16.711 6.90994Z" fill="white"/>
<path d="M16.7111 6.90777C16.732 6.91184 16.7535 6.91125 16.7741 6.90602C16.7947 6.9008 16.8139 6.89108 16.8303 6.87756C16.8467 6.86404 16.8599 6.84705 16.869 6.82782C16.878 6.80859 16.8827 6.78758 16.8827 6.76632C16.8827 6.74505 16.878 6.72405 16.869 6.70481C16.8599 6.68558 16.8467 6.66859 16.8303 6.65507C16.8139 6.64155 16.7947 6.63183 16.7741 6.62661C16.7535 6.62138 16.732 6.62079 16.7111 6.62486C16.6784 6.63127 16.6488 6.64888 16.6276 6.67468C16.6063 6.70049 16.5947 6.73288 16.5947 6.76632C16.5947 6.79975 16.6063 6.83214 16.6276 6.85795C16.6488 6.88375 16.6784 6.90137 16.7111 6.90777Z" stroke="black" stroke-width="0.0533562"/>
<path d="M17.336 6.37502C17.3569 6.37896 17.3785 6.37824 17.3991 6.3729C17.4197 6.36756 17.4389 6.35774 17.4553 6.34413C17.4717 6.33053 17.4849 6.31347 17.494 6.29418C17.5031 6.27489 17.5078 6.25384 17.5078 6.23252C17.5078 6.21121 17.5031 6.19016 17.494 6.17087C17.4849 6.15158 17.4717 6.13452 17.4553 6.12092C17.4389 6.10731 17.4197 6.09749 17.3991 6.09215C17.3785 6.08681 17.3569 6.08608 17.336 6.09002C17.3027 6.09627 17.2727 6.11394 17.2512 6.13996C17.2296 6.16598 17.2178 6.19872 17.2178 6.23252C17.2178 6.26633 17.2296 6.29907 17.2512 6.32509C17.2727 6.35111 17.3027 6.36877 17.336 6.37502Z" fill="white"/>
<path d="M17.3352 6.37408C17.356 6.37815 17.3775 6.37756 17.3981 6.37233C17.4187 6.36711 17.4379 6.35739 17.4543 6.34387C17.4707 6.33035 17.4839 6.31336 17.493 6.29413C17.502 6.27489 17.5068 6.25389 17.5068 6.23262C17.5068 6.21136 17.502 6.19035 17.493 6.17112C17.4839 6.15189 17.4707 6.1349 17.4543 6.12138C17.4379 6.10786 17.4187 6.09814 17.3981 6.09292C17.3775 6.08769 17.356 6.0871 17.3352 6.09117C17.3024 6.09757 17.2728 6.11519 17.2516 6.14099C17.2304 6.1668 17.2188 6.19919 17.2188 6.23262C17.2188 6.26606 17.2304 6.29845 17.2516 6.32426C17.2728 6.35006 17.3024 6.36767 17.3352 6.37408Z" stroke="black" stroke-width="0.0533562"/>
<path d="M17.0962 6.46999C17.1172 6.47394 17.1387 6.47321 17.1594 6.46787C17.18 6.46253 17.1992 6.45271 17.2156 6.4391C17.232 6.4255 17.2452 6.40844 17.2543 6.38915C17.2633 6.36986 17.268 6.34881 17.268 6.3275C17.268 6.30618 17.2633 6.28513 17.2543 6.26584C17.2452 6.24655 17.232 6.22949 17.2156 6.21589C17.1992 6.20228 17.18 6.19246 17.1594 6.18712C17.1387 6.18178 17.1172 6.18105 17.0962 6.185C17.063 6.19125 17.033 6.20891 17.0114 6.23493C16.9898 6.26095 16.978 6.29369 16.978 6.3275C16.978 6.3613 16.9898 6.39404 17.0114 6.42006C17.033 6.44608 17.063 6.46374 17.0962 6.46999Z" fill="white"/>
<path d="M17.0952 6.47003C17.116 6.4741 17.1375 6.4735 17.1581 6.46828C17.1787 6.46306 17.1979 6.45334 17.2143 6.43982C17.2307 6.42629 17.2439 6.40931 17.253 6.39008C17.2621 6.37084 17.2668 6.34984 17.2668 6.32857C17.2668 6.3073 17.2621 6.2863 17.253 6.26707C17.2439 6.24783 17.2307 6.23085 17.2143 6.21733C17.1979 6.20381 17.1787 6.19409 17.1581 6.18886C17.1375 6.18364 17.116 6.18304 17.0952 6.18712C17.0624 6.19352 17.0328 6.21113 17.0116 6.23694C16.9904 6.26275 16.9788 6.29514 16.9788 6.32857C16.9788 6.362 16.9904 6.3944 17.0116 6.4202C17.0328 6.44601 17.0624 6.46362 17.0952 6.47003Z" stroke="black" stroke-width="0.0533562"/>
<path d="M16.8712 6.65988C16.8927 6.66567 16.9152 6.66644 16.937 6.66213C16.9589 6.65781 16.9794 6.64852 16.9971 6.63498C17.0148 6.62145 17.0291 6.60402 17.0389 6.58406C17.0488 6.5641 17.0539 6.54214 17.0539 6.51988C17.0539 6.49762 17.0488 6.47566 17.0389 6.45569C17.0291 6.43573 17.0148 6.41831 16.9971 6.40477C16.9794 6.39123 16.9589 6.38195 16.937 6.37763C16.9152 6.37331 16.8927 6.37408 16.8712 6.37988C16.8404 6.38818 16.8132 6.40639 16.7938 6.4317C16.7744 6.45701 16.7639 6.488 16.7639 6.51988C16.7639 6.55176 16.7744 6.58275 16.7938 6.60806C16.8132 6.63337 16.8404 6.65158 16.8712 6.65988Z" fill="white"/>
<path d="M16.8711 6.66216C16.8919 6.66624 16.9134 6.66564 16.934 6.66042C16.9546 6.6552 16.9738 6.64548 16.9902 6.63195C17.0066 6.61843 17.0198 6.60145 17.0289 6.58221C17.0379 6.56298 17.0426 6.54198 17.0426 6.52071C17.0426 6.49944 17.0379 6.47844 17.0289 6.45921C17.0198 6.43997 17.0066 6.42299 16.9902 6.40947C16.9738 6.39595 16.9546 6.38622 16.934 6.381C16.9134 6.37578 16.8919 6.37518 16.8711 6.37926C16.8383 6.38566 16.8087 6.40327 16.7875 6.42908C16.7663 6.45488 16.7546 6.48728 16.7546 6.52071C16.7546 6.55414 16.7663 6.58654 16.7875 6.61234C16.8087 6.63815 16.8383 6.65576 16.8711 6.66216Z" stroke="black" stroke-width="0.0533562"/>
<path d="M18.1109 6.57492C18.1324 6.58071 18.1549 6.58148 18.1768 6.57716C18.1986 6.57285 18.2192 6.56356 18.2368 6.55002C18.2545 6.53649 18.2688 6.51906 18.2787 6.4991C18.2885 6.47914 18.2937 6.45718 18.2937 6.43492C18.2937 6.41266 18.2885 6.39069 18.2787 6.37073C18.2688 6.35077 18.2545 6.33335 18.2368 6.31981C18.2192 6.30627 18.1986 6.29699 18.1768 6.29267C18.1549 6.28835 18.1324 6.28912 18.1109 6.29492C18.0801 6.30322 18.0529 6.32143 18.0336 6.34674C18.0142 6.37204 18.0037 6.40304 18.0037 6.43492C18.0037 6.4668 18.0142 6.49779 18.0336 6.5231C18.0529 6.5484 18.0801 6.56662 18.1109 6.57492Z" fill="white"/>
<path d="M18.1084 6.57696C18.1292 6.58103 18.1507 6.58044 18.1713 6.57521C18.1919 6.56999 18.2111 6.56027 18.2275 6.54675C18.2439 6.53323 18.2571 6.51624 18.2662 6.49701C18.2752 6.47778 18.2799 6.45677 18.2799 6.43551C18.2799 6.41424 18.2752 6.39323 18.2662 6.374C18.2571 6.35477 18.2439 6.33778 18.2275 6.32426C18.2111 6.31074 18.1919 6.30102 18.1713 6.2958C18.1507 6.29057 18.1292 6.28998 18.1084 6.29405C18.0756 6.30046 18.046 6.31807 18.0248 6.34387C18.0036 6.36968 17.9919 6.40207 17.9919 6.43551C17.9919 6.46894 18.0036 6.50133 18.0248 6.52714C18.046 6.55294 18.0756 6.57055 18.1084 6.57696Z" stroke="black" stroke-width="0.0533562"/>
<path d="M18.1111 6.84994C18.1495 6.84994 18.1864 6.83466 18.2136 6.80747C18.2408 6.78027 18.2561 6.74339 18.2561 6.70494C18.2561 6.66648 18.2408 6.6296 18.2136 6.60241C18.1864 6.57521 18.1495 6.55994 18.1111 6.55994C18.0726 6.55994 18.0357 6.57521 18.0085 6.60241C17.9813 6.6296 17.9661 6.66648 17.9661 6.70494C17.9661 6.74339 17.9813 6.78027 18.0085 6.80747C18.0357 6.83466 18.0726 6.84994 18.1111 6.84994Z" fill="white"/>
<path d="M18.1084 6.84916C18.1465 6.84916 18.1832 6.83397 18.2102 6.80695C18.2372 6.77992 18.2524 6.74326 18.2524 6.70504C18.2524 6.66681 18.2372 6.63015 18.2102 6.60313C18.1832 6.5761 18.1465 6.56091 18.1084 6.56091C18.0702 6.56091 18.0335 6.5761 18.0065 6.60313C17.9795 6.63015 17.9644 6.66681 17.9644 6.70504C17.9644 6.74326 17.9795 6.77992 18.0065 6.80695C18.0335 6.83397 18.0702 6.84916 18.1084 6.84916Z" stroke="black" stroke-width="0.0533562"/>
<path d="M18.1109 7.13503C18.1318 7.13897 18.1534 7.13825 18.174 7.13291C18.1946 7.12757 18.2138 7.11775 18.2302 7.10414C18.2466 7.09054 18.2599 7.07348 18.2689 7.05419C18.278 7.0349 18.2827 7.01385 18.2827 6.99253C18.2827 6.97122 18.278 6.95017 18.2689 6.93088C18.2599 6.91159 18.2466 6.89453 18.2302 6.88093C18.2138 6.86732 18.1946 6.8575 18.174 6.85216C18.1534 6.84682 18.1318 6.84609 18.1109 6.85003C18.0776 6.85628 18.0476 6.87395 18.0261 6.89997C18.0045 6.92599 17.9927 6.95873 17.9927 6.99253C17.9927 7.02634 18.0045 7.05908 18.0261 7.0851C18.0476 7.11112 18.0776 7.12878 18.1109 7.13503Z" fill="white"/>
<path d="M18.1084 7.13725C18.1465 7.13725 18.1832 7.12206 18.2102 7.09503C18.2372 7.068 18.2524 7.03135 18.2524 6.99312C18.2524 6.9549 18.2372 6.91824 18.2102 6.89121C18.1832 6.86418 18.1465 6.849 18.1084 6.849C18.0702 6.849 18.0335 6.86418 18.0065 6.89121C17.9795 6.91824 17.9644 6.9549 17.9644 6.99312C17.9644 7.03135 17.9795 7.068 18.0065 7.09503C18.0335 7.12206 18.0702 7.13725 18.1084 7.13725Z" stroke="black" stroke-width="0.0533562"/>
<path d="M18.6011 6.34988C18.622 6.35382 18.6436 6.35309 18.6642 6.34775C18.6848 6.34241 18.704 6.33259 18.7204 6.31899C18.7368 6.30538 18.75 6.28832 18.7591 6.26903C18.7682 6.24974 18.7729 6.22869 18.7729 6.20738C18.7729 6.18606 18.7682 6.16501 18.7591 6.14572C18.75 6.12643 18.7368 6.10938 18.7204 6.09577C18.704 6.08216 18.6848 6.07234 18.6642 6.067C18.6436 6.06166 18.622 6.06094 18.6011 6.06488C18.5626 6.06488 18.5257 6.08015 18.4985 6.10735C18.4713 6.13454 18.4561 6.17142 18.4561 6.20988C18.4561 6.24833 18.4713 6.28522 18.4985 6.31241C18.5257 6.3396 18.5626 6.35488 18.6011 6.35488" fill="white"/>
<path d="M18.5991 6.35258C18.6373 6.35258 18.6739 6.33739 18.7009 6.31037C18.7279 6.28334 18.7431 6.24668 18.7431 6.20845C18.7431 6.17023 18.7279 6.13357 18.7009 6.10654C18.6739 6.07951 18.6373 6.06433 18.5991 6.06433C18.5609 6.06433 18.5243 6.07951 18.4973 6.10654C18.4702 6.13357 18.4551 6.17023 18.4551 6.20845C18.4551 6.24668 18.4702 6.28334 18.4973 6.31037C18.5243 6.33739 18.5609 6.35258 18.5991 6.35258Z" stroke="black" stroke-width="0.0533562"/>
<path d="M18.791 6.30984C18.812 6.31378 18.8335 6.31305 18.8542 6.30771C18.8748 6.30238 18.894 6.29255 18.9104 6.27895C18.9268 6.26534 18.94 6.24828 18.9491 6.22899C18.9582 6.2097 18.9629 6.18865 18.9629 6.16734C18.9629 6.14603 18.9582 6.12497 18.9491 6.10568C18.94 6.08639 18.9268 6.06934 18.9104 6.05573C18.894 6.04213 18.8748 6.0323 18.8542 6.02696C18.8335 6.02162 18.812 6.0209 18.791 6.02484C18.7578 6.03109 18.7278 6.04875 18.7062 6.07477C18.6847 6.10079 18.6729 6.13353 18.6729 6.16734C18.6729 6.20114 18.6847 6.23389 18.7062 6.25991C18.7278 6.28593 18.7578 6.30359 18.791 6.30984Z" fill="white"/>
<path d="M18.791 6.30987C18.8118 6.31394 18.8333 6.31335 18.8539 6.30812C18.8745 6.3029 18.8937 6.29318 18.9101 6.27966C18.9265 6.26614 18.9397 6.24915 18.9488 6.22992C18.9579 6.21069 18.9626 6.18968 18.9626 6.16842C18.9626 6.14715 18.9579 6.12614 18.9488 6.10691C18.9397 6.08768 18.9265 6.07069 18.9101 6.05717C18.8937 6.04365 18.8745 6.03393 18.8539 6.02871C18.8333 6.02348 18.8118 6.02289 18.791 6.02696C18.7582 6.03337 18.7287 6.05098 18.7074 6.07678C18.6862 6.10259 18.6746 6.13498 18.6746 6.16842C18.6746 6.20185 18.6862 6.23424 18.7074 6.26005C18.7287 6.28585 18.7582 6.30347 18.791 6.30987Z" stroke="black" stroke-width="0.0533562"/>
<path d="M19.011 6.34005C19.0325 6.34585 19.055 6.34662 19.0769 6.3423C19.0987 6.33798 19.1193 6.3287 19.1369 6.31516C19.1546 6.30162 19.1689 6.2842 19.1788 6.26424C19.1886 6.24428 19.1938 6.22231 19.1938 6.20005C19.1938 6.17779 19.1886 6.15583 19.1788 6.13587C19.1689 6.11591 19.1546 6.09849 19.1369 6.08495C19.1193 6.07141 19.0987 6.06212 19.0769 6.05781C19.055 6.05349 19.0325 6.05426 19.011 6.06005C18.9778 6.0663 18.9478 6.08397 18.9262 6.10999C18.9046 6.13601 18.8928 6.16875 18.8928 6.20255C18.8928 6.23636 18.9046 6.2691 18.9262 6.29512C18.9478 6.32114 18.9778 6.3388 19.011 6.34505" fill="white"/>
<path d="M19.0151 6.34185C19.036 6.34593 19.0574 6.34533 19.078 6.34011C19.0986 6.33488 19.1178 6.32516 19.1342 6.31164C19.1506 6.29812 19.1638 6.28113 19.1729 6.2619C19.182 6.24267 19.1867 6.22166 19.1867 6.2004C19.1867 6.17913 19.182 6.15813 19.1729 6.13889C19.1638 6.11966 19.1506 6.10268 19.1342 6.08915C19.1178 6.07563 19.0986 6.06591 19.078 6.06069C19.0574 6.05547 19.036 6.05487 19.0151 6.05894C18.9769 6.05894 18.9403 6.07413 18.9133 6.10116C18.8863 6.12818 18.8711 6.16484 18.8711 6.20307C18.8711 6.24129 18.8863 6.27795 18.9133 6.30498C18.9403 6.33201 18.9769 6.34719 19.0151 6.34719V6.34185Z" stroke="black" stroke-width="0.0533562"/>
<path d="M19.5609 6.94992C19.5824 6.95571 19.6049 6.95648 19.6267 6.95216C19.6486 6.94785 19.6691 6.93856 19.6868 6.92502C19.7045 6.91149 19.7188 6.89406 19.7286 6.8741C19.7385 6.85414 19.7436 6.83218 19.7436 6.80992C19.7436 6.78766 19.7385 6.76569 19.7286 6.74573C19.7188 6.72577 19.7045 6.70835 19.6868 6.69481C19.6691 6.68127 19.6486 6.67199 19.6267 6.66767C19.6049 6.66335 19.5824 6.66412 19.5609 6.66992C19.5301 6.67822 19.5029 6.69643 19.4835 6.72174C19.4641 6.74704 19.4536 6.77804 19.4536 6.80992C19.4536 6.8418 19.4641 6.87279 19.4835 6.8981C19.5029 6.9234 19.5301 6.94162 19.5609 6.94992Z" fill="white"/>
<path d="M19.5644 6.95049C19.5853 6.95457 19.6068 6.95397 19.6274 6.94875C19.648 6.94353 19.6672 6.93381 19.6836 6.92028C19.7 6.90676 19.7132 6.88978 19.7222 6.87054C19.7313 6.85131 19.736 6.83031 19.736 6.80904C19.736 6.78777 19.7313 6.76677 19.7222 6.74754C19.7132 6.7283 19.7 6.71132 19.6836 6.6978C19.6672 6.68427 19.648 6.67455 19.6274 6.66933C19.6068 6.66411 19.5853 6.66351 19.5644 6.66759C19.5316 6.67399 19.5021 6.6916 19.4808 6.71741C19.4596 6.74321 19.448 6.77561 19.448 6.80904C19.448 6.84247 19.4596 6.87487 19.4808 6.90067C19.5021 6.92648 19.5316 6.94409 19.5644 6.95049Z" stroke="black" stroke-width="0.0533562"/>
<path d="M19.2361 6.47494C19.2551 6.47494 19.274 6.47119 19.2916 6.4639C19.3091 6.45661 19.3251 6.44593 19.3386 6.43247C19.3521 6.419 19.3627 6.40302 19.37 6.38543C19.3773 6.36783 19.3811 6.34898 19.3811 6.32994C19.3811 6.31089 19.3773 6.29204 19.37 6.27445C19.3627 6.25686 19.3521 6.24087 19.3386 6.22741C19.3251 6.21394 19.3091 6.20326 19.2916 6.19597C19.274 6.18869 19.2551 6.18494 19.2361 6.18494C19.1976 6.18494 19.1607 6.20021 19.1335 6.22741C19.1063 6.2546 19.0911 6.29148 19.0911 6.32994C19.0911 6.36839 19.1063 6.40527 19.1335 6.43247C19.1607 6.45966 19.1976 6.47494 19.2361 6.47494Z" fill="white"/>
<path d="M19.2338 6.47538C19.272 6.47538 19.3087 6.4602 19.3357 6.43317C19.3627 6.40614 19.3778 6.36948 19.3778 6.33126C19.3778 6.29303 19.3627 6.25637 19.3357 6.22935C19.3087 6.20232 19.272 6.18713 19.2338 6.18713C19.1957 6.18713 19.159 6.20232 19.132 6.22935C19.105 6.25637 19.0898 6.29303 19.0898 6.33126C19.0898 6.36948 19.105 6.40614 19.132 6.43317C19.159 6.4602 19.1957 6.47538 19.2338 6.47538Z" stroke="black" stroke-width="0.0533562"/>
<path d="M19.4361 6.66995C19.457 6.67389 19.4786 6.67316 19.4992 6.66782C19.5198 6.66248 19.539 6.65266 19.5554 6.63905C19.5718 6.62545 19.585 6.60839 19.5941 6.5891C19.6032 6.56981 19.6079 6.54876 19.6079 6.52745C19.6079 6.50613 19.6032 6.48508 19.5941 6.46579C19.585 6.4465 19.5718 6.42945 19.5554 6.41584C19.539 6.40223 19.5198 6.39241 19.4992 6.38707C19.4786 6.38173 19.457 6.38101 19.4361 6.38495C19.4028 6.3912 19.3728 6.40886 19.3513 6.43488C19.3297 6.4609 19.3179 6.49364 19.3179 6.52745C19.3179 6.56125 19.3297 6.59399 19.3513 6.62001C19.3728 6.64603 19.4028 6.6637 19.4361 6.66995Z" fill="white"/>
<path d="M19.4362 6.66754C19.4571 6.67161 19.4786 6.67101 19.4992 6.66579C19.5198 6.66057 19.539 6.65085 19.5554 6.63733C19.5718 6.6238 19.585 6.60682 19.5941 6.58758C19.6031 6.56835 19.6078 6.54735 19.6078 6.52608C19.6078 6.50481 19.6031 6.48381 19.5941 6.46458C19.585 6.44534 19.5718 6.42836 19.5554 6.41484C19.539 6.40132 19.5198 6.3916 19.4992 6.38637C19.4786 6.38115 19.4571 6.38055 19.4362 6.38463C19.4035 6.39103 19.3739 6.40864 19.3527 6.43445C19.3314 6.46026 19.3198 6.49265 19.3198 6.52608C19.3198 6.55951 19.3314 6.59191 19.3527 6.61771C19.3739 6.64352 19.4035 6.66113 19.4362 6.66754Z" stroke="black" stroke-width="0.0533562"/>
<path d="M18.0961 8.79993L17.7261 8.98993L18.0611 9.20493L18.4611 9.00493L18.0961 8.79993Z" fill="white"/>
<path d="M18.0977 8.79749L17.7244 8.98965L18.0604 9.20317L18.4604 9.00033L18.0977 8.79749Z" stroke="black" stroke-width="0.0266781"/>
<path d="M17.2761 8.83997L16.7161 8.92497C16.7161 8.92497 16.7061 9.22997 16.7311 9.29997L17.3161 9.22497C17.3161 9.22497 17.3411 8.93997 17.2761 8.83997Z" fill="white"/>
<path d="M17.2765 8.84021L16.7165 8.92562C16.7165 8.92562 16.7058 9.22988 16.7325 9.29927L17.3138 9.22454C17.3138 9.22454 17.3405 8.94163 17.2765 8.84021Z" stroke="black" stroke-width="0.0266781"/>
<path d="M17.216 8.95007C17.216 8.95007 16.876 8.98007 16.791 9.01007V9.21007C16.791 9.21007 17.021 9.17507 17.221 9.16007V8.95007" fill="#058E6E" fill-opacity="0.9"/>
<path d="M17.2177 8.9469C17.2177 8.9469 16.8763 8.97893 16.791 9.01095V9.21379C16.791 9.21379 17.0204 9.17643 17.223 9.16042L17.2177 8.9469Z" stroke="black" stroke-width="0.0266781"/>
<path d="M18.881 8.84998L19.446 8.93998C19.446 8.93998 19.451 9.24498 19.426 9.31498L18.851 9.23998C18.851 9.23998 18.821 8.95998 18.881 8.85498" fill="white"/>
<path d="M18.8818 8.85071L19.4471 8.94145C19.4471 8.94145 19.4525 9.24571 19.4258 9.31511L18.8498 9.24037C18.8498 9.24037 18.8231 8.95747 18.8818 8.85605V8.85071Z" stroke="black" stroke-width="0.0266781"/>
<path d="M18.9509 8.96497C18.9509 8.96497 19.2859 8.99497 19.3709 9.02497V9.22997C19.3709 9.22997 19.1409 9.18997 18.9409 9.17997V8.96497" fill="#058E6E" fill-opacity="0.9"/>
<path d="M18.9511 8.96277C18.9511 8.96277 19.2871 8.9948 19.3724 9.02682L19.3671 9.22966C19.3671 9.22966 19.1431 9.1923 18.9404 9.17628L18.9458 8.96277" stroke="black" stroke-width="0.0266781"/>
<path d="M15.8684 9.10701C15.8684 9.10701 17.8417 8.37572 20.3591 9.17107M15.9484 9.5287C15.9484 9.5287 17.8631 8.81343 20.2151 9.56073M15.9591 9.08032L16.3431 9.19242L16.0764 9.48066" stroke="black" stroke-width="0.0266781"/>
<path d="M15.961 9.42506L16.186 9.24006L15.936 9.19006C15.936 9.19006 15.971 9.23006 15.966 9.26506V9.42506" fill="#FF0000"/>
<path d="M20.3164 9.15515L19.9058 9.22988L20.1831 9.55016M15.9644 9.42738L16.1884 9.24056L15.9377 9.19252C15.9377 9.19252 15.9697 9.22988 15.9644 9.26725V9.42738Z" stroke="black" stroke-width="0.0266781"/>
<path d="M20.196 9.44L20.041 9.28L20.261 9.255C20.261 9.255 20.201 9.295 20.201 9.33C20.201 9.365 20.211 9.41 20.201 9.44" fill="#FF0000"/>
<path d="M20.1938 9.43783L20.0392 9.27769L20.2632 9.25634C20.2632 9.25634 20.1992 9.29371 20.1992 9.33107C20.1992 9.3631 20.2098 9.41114 20.1992 9.43783H20.1938ZM16.4605 9.10688C16.4925 9.10688 16.5245 9.08553 16.5245 9.0535C16.5245 9.03215 16.4925 9.00546 16.4605 9.00546C16.4232 9.00546 16.3965 9.03215 16.3965 9.05884C16.3965 9.08553 16.4232 9.11222 16.4605 9.11222V9.10688ZM17.5592 8.98411C17.5965 8.98411 17.6232 8.96276 17.6232 8.93073C17.6232 8.90404 17.5965 8.88269 17.5592 8.88269C17.5218 8.88269 17.4952 8.90404 17.4952 8.93607C17.4952 8.96276 17.5218 8.98411 17.5592 8.98411ZM17.5592 9.16026C17.5965 9.16026 17.6232 9.13891 17.6232 9.11222C17.6232 9.08553 17.5965 9.05884 17.5592 9.05884C17.5218 9.05884 17.4952 9.08553 17.4952 9.11222C17.4952 9.13891 17.5218 9.1656 17.5592 9.1656V9.16026ZM18.6418 8.99479C18.6738 8.99479 18.7058 8.9681 18.7058 8.94141C18.7058 8.91472 18.6738 8.88803 18.6418 8.88803C18.6045 8.88803 18.5778 8.91472 18.5778 8.94141C18.5778 8.9681 18.6045 8.99479 18.6418 8.99479ZM19.7138 9.19229C19.7512 9.19229 19.7778 9.1656 19.7778 9.13891C19.7778 9.11222 19.7512 9.08553 19.7138 9.08553C19.6765 9.08553 19.6498 9.11222 19.6498 9.13891C19.6498 9.1656 19.6765 9.19229 19.7138 9.19229ZM19.6978 9.33107C19.7298 9.33107 19.7618 9.30972 19.7618 9.27769C19.7618 9.25634 19.7298 9.22965 19.6978 9.22965C19.6605 9.22965 19.6338 9.25634 19.6338 9.28303C19.6338 9.30972 19.6605 9.33641 19.6978 9.33641V9.33107ZM18.6418 9.17094C18.6738 9.17094 18.7058 9.14959 18.7058 9.11756C18.7058 9.09087 18.6738 9.06952 18.6418 9.06952C18.6045 9.06952 18.5778 9.09087 18.5778 9.1229C18.5778 9.14959 18.6045 9.17627 18.6418 9.17627V9.17094ZM16.5085 9.33107C16.5458 9.33107 16.5778 9.30972 16.5778 9.27769C16.5778 9.25634 16.5458 9.22965 16.5138 9.22965C16.4765 9.22965 16.4498 9.25634 16.4498 9.28303C16.4498 9.30972 16.4765 9.33641 16.5138 9.33641L16.5085 9.33107Z" stroke="black" stroke-width="0.0266781"/>
<path d="M15.8361 8.52989C15.8361 8.52989 15.8411 8.91489 16.0911 8.85989C16.3411 8.80489 16.3161 8.49489 16.3311 8.47489C16.3561 8.45989 16.3811 8.45989 16.3811 8.45989C16.3811 8.45989 16.4111 8.76489 16.6461 8.72989C16.8811 8.68989 16.8711 8.31489 16.8461 8.25489L16.8961 8.23489C16.8961 8.23489 16.9861 8.67489 17.2561 8.60989C17.5211 8.54489 17.4961 8.26989 17.4961 8.26989H17.5161C17.5161 8.26989 17.5761 8.56989 17.7961 8.54489C18.0061 8.52989 18.0461 8.45989 18.0211 8.15989L18.1711 8.13489C18.1711 8.13489 18.1161 8.56489 18.3711 8.56489C18.6311 8.54489 18.6411 8.34489 18.6561 8.30489H18.7011C18.7011 8.30489 18.7111 8.60989 18.9311 8.60989C19.1411 8.60989 19.1811 8.35489 19.1811 8.25489L19.4011 8.26489C19.4011 8.26489 19.1761 8.66489 19.5011 8.71489C19.8211 8.76989 19.8311 8.46489 19.8311 8.46489H19.8961C19.8961 8.46489 19.8861 8.86489 20.0611 8.86989C20.2411 8.87989 20.3461 8.81989 20.3611 8.51989L20.4611 8.55489C20.4611 8.55489 20.3811 9.03989 20.0461 8.95489C19.8661 8.90489 19.8111 8.70489 19.8211 8.64989C19.8211 8.64989 19.6961 8.86989 19.4511 8.79989C19.2111 8.72989 19.2411 8.55489 19.2411 8.49989C19.2411 8.49989 19.0911 8.76989 18.8911 8.70989C18.7111 8.65989 18.6411 8.59489 18.6411 8.46489C18.6411 8.46489 18.5511 8.67489 18.3761 8.66489C18.1961 8.65989 18.1061 8.54489 18.0961 8.44989C18.0961 8.44989 18.0611 8.64489 17.8211 8.65989C17.6611 8.65989 17.5711 8.58489 17.5311 8.47489C17.5311 8.47489 17.4811 8.66989 17.2561 8.69989C17.1111 8.71489 16.9661 8.63489 16.9361 8.49989C16.9361 8.49989 16.8961 8.76489 16.6661 8.79989C16.4361 8.83489 16.3811 8.67489 16.3811 8.67489C16.3811 8.67489 16.3311 8.87489 16.1461 8.92489C15.9611 8.96989 15.8361 8.88989 15.7861 8.69989C15.7461 8.51489 15.7611 8.43489 15.7611 8.43489L15.8361 8.52989Z" fill="#FFCC00"/>
<path d="M15.8364 8.53062C15.8364 8.53062 15.8417 8.91495 16.0924 8.86157C16.3431 8.80819 16.3164 8.49326 16.3324 8.47725C16.3537 8.46123 16.3804 8.46123 16.3804 8.46123C16.3804 8.46123 16.4124 8.76549 16.6471 8.72813C16.8817 8.69076 16.8711 8.31711 16.8444 8.25305L16.8977 8.23704C16.8977 8.23704 16.9884 8.67475 17.2551 8.61069C17.5217 8.54664 17.4951 8.26907 17.4951 8.26907H17.5164C17.5164 8.26907 17.5751 8.56799 17.7937 8.54664C18.0071 8.53062 18.0497 8.46123 18.0231 8.16231L18.1671 8.13562C18.1671 8.13562 18.1137 8.56265 18.3751 8.56265C18.6311 8.54664 18.6417 8.3438 18.6577 8.30643H18.7004C18.7004 8.30643 18.7111 8.61069 18.9297 8.61069C19.1431 8.61069 19.1857 8.35447 19.1857 8.25305L19.3991 8.26373C19.3991 8.26373 19.1751 8.66407 19.5004 8.71745C19.8204 8.77083 19.8311 8.46123 19.8311 8.46123H19.8951C19.8951 8.46123 19.8844 8.86157 20.0604 8.87225C20.2417 8.87759 20.3484 8.81887 20.3644 8.51995L20.4657 8.55731C20.4657 8.55731 20.3804 9.03772 20.0444 8.95232C19.8684 8.90428 19.8097 8.70144 19.8204 8.64806C19.8204 8.64806 19.6977 8.87225 19.4524 8.79752C19.2124 8.72813 19.2391 8.55731 19.2391 8.50393C19.2391 8.50393 19.0951 8.77083 18.8924 8.71211C18.7111 8.65873 18.6417 8.59468 18.6417 8.46657C18.6417 8.46657 18.5511 8.67475 18.3751 8.66407C18.1937 8.65873 18.1084 8.54664 18.0977 8.45056C18.0977 8.45056 18.0604 8.64272 17.8204 8.65873C17.6604 8.66407 17.5697 8.584 17.5324 8.47725C17.5324 8.47725 17.4844 8.66941 17.2551 8.70144C17.1111 8.71745 16.9671 8.63738 16.9351 8.50393C16.9351 8.50393 16.8977 8.76549 16.6684 8.79752C16.4337 8.83488 16.3804 8.67475 16.3804 8.67475C16.3804 8.67475 16.3324 8.87759 16.1457 8.92563C15.9591 8.96833 15.8364 8.88826 15.7884 8.70144C15.7457 8.51461 15.7617 8.43454 15.7617 8.43454L15.8364 8.53062Z" fill="#BCAC0B" stroke="black" stroke-width="0.0373494"/>
<path d="M16.356 8.55C16.3679 8.55 16.3796 8.54767 16.3905 8.54314C16.4014 8.53862 16.4113 8.53199 16.4197 8.52364C16.428 8.51528 16.4347 8.50536 16.4392 8.49444C16.4437 8.48352 16.446 8.47181 16.446 8.46C16.446 8.44818 16.4437 8.43647 16.4392 8.42555C16.4347 8.41463 16.428 8.40471 16.4197 8.39636C16.4113 8.388 16.4014 8.38137 16.3905 8.37685C16.3796 8.37232 16.3679 8.37 16.356 8.37C16.3364 8.37472 16.3189 8.38593 16.3064 8.4018C16.2939 8.41767 16.2871 8.43729 16.2871 8.4575C16.2871 8.4777 16.2939 8.49732 16.3064 8.51319C16.3189 8.52906 16.3364 8.54027 16.356 8.545" fill="#FFCC00"/>
<path d="M16.3538 8.54662C16.3671 8.54993 16.381 8.55016 16.3945 8.54729C16.408 8.54441 16.4206 8.5385 16.4314 8.53002C16.4423 8.52153 16.4511 8.51068 16.4571 8.4983C16.4631 8.48591 16.4662 8.47232 16.4662 8.45854C16.4662 8.44477 16.4631 8.43117 16.4571 8.41879C16.4511 8.4064 16.4423 8.39556 16.4314 8.38707C16.4206 8.37858 16.408 8.37267 16.3945 8.3698C16.381 8.36692 16.3671 8.36715 16.3538 8.37047C16.3341 8.37535 16.3166 8.38667 16.3042 8.40263C16.2917 8.41859 16.2849 8.43828 16.2849 8.45854C16.2849 8.47881 16.2917 8.49849 16.3042 8.51445C16.3166 8.53042 16.3341 8.54174 16.3538 8.54662Z" fill="#BCAC0B" stroke="black" stroke-width="0.0373494"/>
<path d="M17.516 8.36C17.5292 8.36318 17.543 8.36332 17.5563 8.36041C17.5696 8.3575 17.582 8.35161 17.5927 8.34319C17.6034 8.33477 17.612 8.32403 17.618 8.31178C17.6239 8.29954 17.627 8.28611 17.627 8.2725C17.627 8.25888 17.6239 8.24545 17.618 8.23321C17.612 8.22096 17.6034 8.21022 17.5927 8.2018C17.582 8.19338 17.5696 8.18749 17.5563 8.18458C17.543 8.18167 17.5292 8.18181 17.516 8.185C17.4963 8.18972 17.4788 8.20093 17.4663 8.2168C17.4538 8.23267 17.447 8.25229 17.447 8.2725C17.447 8.2927 17.4538 8.31232 17.4663 8.32819C17.4788 8.34406 17.4963 8.35527 17.516 8.36Z" fill="#FFCC00"/>
<path d="M17.5166 8.35961C17.53 8.36292 17.5439 8.36315 17.5574 8.36027C17.5708 8.3574 17.5834 8.35149 17.5943 8.343C17.6051 8.33452 17.6139 8.32367 17.6199 8.31129C17.626 8.2989 17.6291 8.28531 17.6291 8.27153C17.6291 8.25775 17.626 8.24416 17.6199 8.23178C17.6139 8.21939 17.6051 8.20854 17.5943 8.20006C17.5834 8.19157 17.5708 8.18566 17.5574 8.18279C17.5439 8.17991 17.53 8.18014 17.5166 8.18346C17.4969 8.18833 17.4795 8.19966 17.467 8.21562C17.4545 8.23158 17.4478 8.25126 17.4478 8.27153C17.4478 8.2918 17.4545 8.31148 17.467 8.32744C17.4795 8.3434 17.4969 8.35473 17.5166 8.35961Z" fill="#BCAC0B" stroke="black" stroke-width="0.0373494"/>
<path d="M18.701 8.39985C18.7249 8.39985 18.7478 8.39037 18.7647 8.37349C18.7815 8.35661 18.791 8.33372 18.791 8.30985C18.791 8.28598 18.7815 8.26309 18.7647 8.24621C18.7478 8.22933 18.7249 8.21985 18.701 8.21985C18.6814 8.22458 18.6639 8.23578 18.6514 8.25165C18.6389 8.26752 18.6321 8.28714 18.6321 8.30735C18.6321 8.32755 18.6389 8.34717 18.6514 8.36304C18.6639 8.37892 18.6814 8.39012 18.701 8.39485" fill="#FFCC00"/>
<path d="M18.7004 8.39696C18.7138 8.40028 18.7277 8.4005 18.7412 8.39763C18.7547 8.39475 18.7673 8.38885 18.7781 8.38036C18.789 8.37187 18.7977 8.36102 18.8038 8.34864C18.8098 8.33626 18.8129 8.32266 18.8129 8.30888C18.8129 8.29511 18.8098 8.28151 18.8038 8.26913C18.7977 8.25675 18.789 8.2459 18.7781 8.23741C18.7673 8.22892 18.7547 8.22302 18.7412 8.22014C18.7277 8.21726 18.7138 8.21749 18.7004 8.22081C18.6808 8.22569 18.6633 8.23701 18.6508 8.25297C18.6384 8.26894 18.6316 8.28862 18.6316 8.30888C18.6316 8.32915 18.6384 8.34883 18.6508 8.36479C18.6633 8.38076 18.6808 8.39208 18.7004 8.39696Z" fill="#BCAC0B" stroke="black" stroke-width="0.0373494"/>
<path d="M19.8661 8.58485C19.8793 8.58803 19.8931 8.58818 19.9064 8.58527C19.9197 8.58236 19.9321 8.57647 19.9428 8.56804C19.9535 8.55962 19.9621 8.54888 19.9681 8.53664C19.974 8.52439 19.9771 8.51096 19.9771 8.49735C19.9771 8.48374 19.974 8.4703 19.9681 8.45806C19.9621 8.44581 19.9535 8.43508 19.9428 8.42665C19.9321 8.41823 19.9197 8.41234 19.9064 8.40943C19.8931 8.40652 19.8793 8.40666 19.8661 8.40985C19.8464 8.41458 19.8289 8.42578 19.8164 8.44165C19.8039 8.45752 19.7971 8.47714 19.7971 8.49735C19.7971 8.51755 19.8039 8.53717 19.8164 8.55304C19.8289 8.56892 19.8464 8.58012 19.8661 8.58485Z" fill="#FFCC00"/>
<path d="M19.8684 8.58397C19.8818 8.58729 19.8957 8.58752 19.9092 8.58464C19.9226 8.58176 19.9352 8.57586 19.9461 8.56737C19.9569 8.55888 19.9657 8.54803 19.9717 8.53565C19.9778 8.52327 19.9809 8.50967 19.9809 8.4959C19.9809 8.48212 19.9778 8.46852 19.9717 8.45614C19.9657 8.44376 19.9569 8.43291 19.9461 8.42442C19.9352 8.41593 19.9226 8.41003 19.9092 8.40715C19.8957 8.40428 19.8818 8.4045 19.8684 8.40782C19.8487 8.4127 19.8313 8.42402 19.8188 8.43998C19.8063 8.45595 19.7996 8.47563 19.7996 8.4959C19.7996 8.51616 19.8063 8.53584 19.8188 8.55181C19.8313 8.56777 19.8487 8.57909 19.8684 8.58397Z" fill="#BCAC0B" stroke="black" stroke-width="0.0373494"/>
<path d="M18.0561 8.26501H17.9761C17.9561 8.34501 17.7811 8.39001 17.7811 8.39001C17.7611 8.33001 17.8111 8.24001 17.8111 8.24001C17.6111 8.18501 17.6111 8.12001 17.6111 8.12001C17.6411 8.05001 17.8261 8.04001 17.8261 8.04001C17.7761 7.98001 17.7811 7.88001 17.7811 7.88001C17.9061 7.89001 18.0061 8.01501 18.0061 8.01501C18.0061 8.01501 17.8861 7.95001 17.9011 7.73501C17.9011 7.73501 17.9661 7.73501 18.0061 7.78001C18.0061 7.78001 18.0061 7.54501 18.1061 7.51501H18.1161C18.2111 7.54501 18.2111 7.78001 18.2111 7.78001C18.2511 7.73001 18.3161 7.73501 18.3161 7.73501C18.3311 7.95001 18.2111 8.01501 18.2111 8.01501C18.2111 8.01501 18.3111 7.89001 18.4361 7.88501C18.4361 7.88501 18.4361 7.98501 18.3961 8.04501C18.3961 8.04501 18.5761 8.05001 18.6111 8.12001C18.6111 8.12001 18.6111 8.19001 18.4111 8.23501C18.4111 8.23501 18.4511 8.33001 18.4361 8.39501C18.4361 8.39501 18.2561 8.34501 18.2411 8.26501H18.0611" fill="#FFCC00"/>
<path d="M18.0552 8.26354H17.9752C17.9539 8.34361 17.7832 8.39165 17.7832 8.39165C17.7619 8.3276 17.8099 8.23685 17.8099 8.23685C17.6125 8.18347 17.6125 8.11942 17.6125 8.11942C17.6392 8.05003 17.8259 8.03935 17.8259 8.03935C17.7725 7.98063 17.7832 7.87921 17.7832 7.87921C17.9059 7.88989 18.0072 8.01266 18.0072 8.01266C18.0072 8.01266 17.8845 7.94861 17.9005 7.73509C17.9005 7.73509 17.9645 7.73509 18.0072 7.77779C18.0072 7.77779 18.0072 7.54292 18.1032 7.51624H18.1139C18.2099 7.54292 18.2099 7.77779 18.2099 7.77779C18.2526 7.72975 18.3166 7.73509 18.3166 7.73509C18.3326 7.94861 18.2099 8.01266 18.2099 8.01266C18.2099 8.01266 18.3112 7.88989 18.4339 7.88455C18.4339 7.88455 18.4392 7.98063 18.3966 8.04469C18.3966 8.04469 18.5779 8.05003 18.6099 8.11942C18.6099 8.11942 18.6099 8.18881 18.4072 8.23685C18.4072 8.23685 18.4499 8.3276 18.4339 8.39699C18.4339 8.39699 18.2579 8.34361 18.2419 8.26354H18.0552Z" fill="#BCAC0B" stroke="black" stroke-width="0.0373494"/>
<path d="M18.096 8.30499C18.1385 8.30499 18.1792 8.28813 18.2092 8.25812C18.2392 8.22812 18.256 8.18742 18.256 8.14499C18.256 8.10255 18.2392 8.06185 18.2092 8.03185C18.1792 8.00184 18.1385 7.98499 18.096 7.98499C18.0536 7.98499 18.0129 8.00184 17.9829 8.03185C17.9529 8.06185 17.936 8.10255 17.936 8.14499C17.936 8.18742 17.9529 8.22812 17.9829 8.25812C18.0129 8.28813 18.0536 8.30499 18.096 8.30499Z" fill="white"/>
<path d="M18.0977 8.30624C18.1402 8.30624 18.1809 8.28936 18.2109 8.25933C18.2409 8.2293 18.2577 8.18857 18.2577 8.1461C18.2577 8.10363 18.2409 8.0629 18.2109 8.03286C18.1809 8.00283 18.1402 7.98596 18.0977 7.98596C18.0553 7.98596 18.0146 8.00283 17.9846 8.03286C17.9546 8.0629 17.9377 8.10363 17.9377 8.1461C17.9377 8.18857 17.9546 8.2293 17.9846 8.25933C18.0146 8.28936 18.0553 8.30624 18.0977 8.30624Z" stroke="black" stroke-width="0.0213425"/>
<path d="M18.0961 8.23505C18.12 8.23505 18.1429 8.22557 18.1597 8.20869C18.1766 8.19181 18.1861 8.16892 18.1861 8.14505C18.1861 8.12118 18.1766 8.09829 18.1597 8.08141C18.1429 8.06454 18.12 8.05505 18.0961 8.05505C18.0722 8.05505 18.0493 8.06454 18.0325 8.08141C18.0156 8.09829 18.0061 8.12118 18.0061 8.14505C18.0061 8.16892 18.0156 8.19181 18.0325 8.20869C18.0493 8.22557 18.0722 8.23505 18.0961 8.23505Z" fill="white"/>
<path d="M18.0977 8.23703C18.1218 8.23703 18.1449 8.22747 18.1619 8.21045C18.1789 8.19343 18.1884 8.17035 18.1884 8.14629C18.1884 8.12222 18.1789 8.09914 18.1619 8.08212C18.1449 8.0651 18.1218 8.05554 18.0977 8.05554C18.0737 8.05554 18.0506 8.0651 18.0336 8.08212C18.0166 8.09914 18.0071 8.12222 18.0071 8.14629C18.0071 8.17035 18.0166 8.19343 18.0336 8.21045C18.0506 8.22747 18.0737 8.23703 18.0977 8.23703Z" stroke="black" stroke-width="0.0160069"/>
<path d="M19.3311 8.37L19.4111 8.385C19.4111 8.465 19.5711 8.55 19.5711 8.55C19.6011 8.5 19.5711 8.4 19.5711 8.4C19.7811 8.39 19.7961 8.32 19.7961 8.32C19.7811 8.25 19.6061 8.2 19.6061 8.2C19.6561 8.15 19.6761 8.055 19.6761 8.055C19.5561 8.035 19.4311 8.13 19.4311 8.13C19.4311 8.13 19.5661 8.1 19.5911 7.88C19.5911 7.88 19.5311 7.87 19.4861 7.9C19.4861 7.9 19.5361 7.675 19.4411 7.635L19.4311 7.63C19.3311 7.63 19.2811 7.86 19.2811 7.86C19.2511 7.805 19.1811 7.8 19.1811 7.8C19.1311 8 19.2311 8.09 19.2311 8.09C19.2311 8.09 19.1611 7.95 19.0411 7.915C19.0411 7.915 19.0161 8.015 19.0411 8.075C19.0411 8.075 18.8661 8.05 18.8211 8.11C18.8211 8.11 18.8061 8.18 18.9861 8.27C18.9861 8.27 18.9311 8.35 18.9361 8.42C18.9361 8.42 19.1111 8.4 19.1461 8.33L19.2261 8.345L19.3361 8.365" fill="#FFCC00"/>
<path d="M19.3298 8.37026L19.4098 8.38628C19.4098 8.46635 19.5698 8.55175 19.5698 8.55175C19.6018 8.49837 19.5751 8.39695 19.5751 8.39695C19.7831 8.39162 19.7938 8.32222 19.7938 8.32222C19.7831 8.24749 19.6071 8.19945 19.6071 8.19945C19.6604 8.15141 19.6764 8.05533 19.6764 8.05533C19.5538 8.03398 19.4311 8.13006 19.4311 8.13006C19.4311 8.13006 19.5644 8.09803 19.5911 7.88451C19.5911 7.88451 19.5324 7.8685 19.4844 7.90053C19.4844 7.90053 19.5324 7.67634 19.4418 7.63363L19.4311 7.6283C19.3298 7.6283 19.2818 7.85782 19.2818 7.85782C19.2498 7.80445 19.1858 7.79911 19.1858 7.79911C19.1271 8.00195 19.2338 8.08735 19.2338 8.08735C19.2338 8.08735 19.1591 7.94857 19.0418 7.91654C19.0418 7.91654 19.0151 8.01262 19.0418 8.07668C19.0418 8.07668 18.8658 8.04999 18.8231 8.10871C18.8231 8.10871 18.8071 8.1781 18.9884 8.26884C18.9884 8.26884 18.9298 8.34891 18.9351 8.4183C18.9351 8.4183 19.1111 8.40229 19.1484 8.32756L19.2284 8.34357L19.3351 8.36493" fill="#BCAC0B"/>
<path d="M19.3298 8.37026L19.4098 8.38628C19.4098 8.46635 19.5698 8.55175 19.5698 8.55175C19.6018 8.49837 19.5751 8.39695 19.5751 8.39695C19.7831 8.39162 19.7938 8.32222 19.7938 8.32222C19.7831 8.24749 19.6071 8.19945 19.6071 8.19945C19.6604 8.15141 19.6764 8.05533 19.6764 8.05533C19.5538 8.03398 19.4311 8.13006 19.4311 8.13006C19.4311 8.13006 19.5644 8.09803 19.5911 7.88451C19.5911 7.88451 19.5324 7.8685 19.4844 7.90053C19.4844 7.90053 19.5324 7.67634 19.4418 7.63363L19.4311 7.6283C19.3298 7.6283 19.2818 7.85782 19.2818 7.85782C19.2498 7.80445 19.1858 7.79911 19.1858 7.79911C19.1271 8.00195 19.2338 8.08735 19.2338 8.08735C19.2338 8.08735 19.1591 7.94857 19.0418 7.91654C19.0418 7.91654 19.0151 8.01262 19.0418 8.07668C19.0418 8.07668 18.8658 8.04999 18.8231 8.10871C18.8231 8.10871 18.8071 8.1781 18.9884 8.26884C18.9884 8.26884 18.9298 8.34891 18.9351 8.4183C18.9351 8.4183 19.1111 8.40229 19.1484 8.32756L19.2284 8.34357L19.3351 8.36493" stroke="black" stroke-width="0.0373494"/>
<path d="M19.2711 8.40003C19.2484 8.39682 19.2266 8.38892 19.2071 8.37684C19.1877 8.36475 19.1709 8.34874 19.158 8.32983C19.145 8.31092 19.1362 8.28952 19.132 8.26699C19.1278 8.24447 19.1283 8.22131 19.1335 8.199C19.1387 8.17669 19.1486 8.15572 19.1623 8.13741C19.1761 8.1191 19.1936 8.10387 19.2136 8.09268C19.2336 8.08148 19.2557 8.07458 19.2785 8.0724C19.3013 8.07022 19.3243 8.07282 19.3461 8.08003C19.3841 8.09335 19.4159 8.12013 19.4356 8.15531C19.4552 8.19049 19.4613 8.23165 19.4527 8.27102C19.4441 8.31038 19.4214 8.34524 19.3888 8.369C19.3563 8.39277 19.3162 8.40381 19.276 8.40003" fill="white"/>
<path d="M19.271 8.40233C19.25 8.39743 19.2302 8.38843 19.2126 8.37585C19.1951 8.36326 19.1802 8.34735 19.1688 8.32901C19.1574 8.31067 19.1497 8.29026 19.1462 8.26896C19.1427 8.24765 19.1434 8.22586 19.1483 8.20483C19.1532 8.1838 19.1622 8.16395 19.1748 8.14639C19.1874 8.12884 19.2033 8.11394 19.2216 8.10254C19.2399 8.09114 19.2603 8.08347 19.2816 8.07995C19.3029 8.07644 19.3247 8.07715 19.3457 8.08206C19.3881 8.09126 19.4252 8.11696 19.4487 8.1535C19.4722 8.19004 19.4802 8.23442 19.471 8.27689C19.4618 8.31936 19.4361 8.35644 19.3996 8.37997C19.3631 8.40349 19.3188 8.41154 19.2763 8.40233H19.271Z" stroke="black" stroke-width="0.0213425"/>
<path d="M19.2912 8.33491C19.2794 8.33228 19.2682 8.32735 19.2583 8.3204C19.2484 8.31345 19.2399 8.30462 19.2334 8.2944C19.2269 8.28419 19.2225 8.27279 19.2204 8.26087C19.2183 8.24895 19.2186 8.23672 19.2212 8.22491C19.2238 8.21309 19.2287 8.2019 19.2357 8.19199C19.2426 8.18207 19.2515 8.17362 19.2617 8.16712C19.2719 8.16062 19.2833 8.1562 19.2952 8.1541C19.3072 8.15201 19.3194 8.15228 19.3312 8.15491C19.3551 8.16021 19.3758 8.17478 19.389 8.19541C19.4021 8.21604 19.4065 8.24104 19.4012 8.26491C19.3959 8.28878 19.3813 8.30956 19.3607 8.32269C19.3401 8.33581 19.3151 8.34021 19.2912 8.33491Z" fill="white"/>
<path d="M19.2925 8.3329C19.2797 8.33182 19.2673 8.32803 19.256 8.32177C19.2448 8.31551 19.235 8.30692 19.2274 8.29659C19.2197 8.28626 19.2143 8.27441 19.2116 8.26183C19.2088 8.24926 19.2088 8.23624 19.2114 8.22365C19.2141 8.21105 19.2194 8.19918 19.227 8.1888C19.2346 8.17842 19.2444 8.16978 19.2556 8.16345C19.2668 8.15712 19.2792 8.15325 19.292 8.1521C19.3048 8.15094 19.3177 8.15253 19.3299 8.15675C19.3507 8.164 19.3682 8.17862 19.3791 8.19788C19.39 8.21713 19.3934 8.23968 19.3888 8.26131C19.3842 8.28293 19.3719 8.30214 19.3542 8.31532C19.3365 8.3285 19.3145 8.33476 19.2925 8.3329Z" stroke="black" stroke-width="0.0160069"/>
<path d="M16.8361 8.34986L16.7561 8.35986C16.7411 8.44486 16.5761 8.51986 16.5761 8.51986C16.5511 8.45486 16.5761 8.35986 16.5761 8.35986C16.3761 8.33986 16.3711 8.26986 16.3711 8.26986C16.3911 8.19986 16.5711 8.15986 16.5711 8.15986C16.5211 8.10986 16.5161 8.00986 16.5161 8.00986C16.6311 7.99986 16.7461 8.10986 16.7461 8.10986C16.7461 8.10986 16.6211 8.06486 16.6061 7.85486C16.6061 7.85486 16.6761 7.83486 16.7161 7.87486C16.7161 7.87486 16.6911 7.64486 16.7811 7.60486H16.7911C16.8911 7.61986 16.9211 7.84486 16.9211 7.84486C16.9561 7.79486 17.0211 7.79486 17.0211 7.79486C17.0611 8.00486 16.9511 8.07986 16.9511 8.07986C16.9511 8.07986 17.0361 7.94986 17.1511 7.91986C17.1511 7.91986 17.1761 8.01986 17.1361 8.08986C17.1361 8.08986 17.3211 8.06986 17.3561 8.13986C17.3561 8.13986 17.3661 8.20486 17.1761 8.27986C17.1761 8.27986 17.2261 8.36486 17.2261 8.42986C17.2261 8.42986 17.0461 8.39986 17.0111 8.31986L16.9361 8.33986L16.8261 8.34986" fill="#FFCC00"/>
<path d="M16.8336 8.34902L16.7536 8.3597C16.743 8.44511 16.5776 8.51984 16.5776 8.51984C16.551 8.45578 16.5776 8.3597 16.5776 8.3597C16.3803 8.33835 16.3696 8.26896 16.3696 8.26896C16.391 8.19956 16.5723 8.1622 16.5723 8.1622C16.519 8.10882 16.5136 8.01274 16.5136 8.01274C16.631 8.00206 16.7483 8.10882 16.7483 8.10882C16.7483 8.10882 16.6203 8.06612 16.6043 7.8526C16.6043 7.8526 16.6736 7.83659 16.7163 7.87395C16.7163 7.87395 16.6896 7.64442 16.7803 7.60706H16.791C16.8923 7.61773 16.919 7.84726 16.919 7.84726C16.9563 7.79922 17.0256 7.79388 17.0256 7.79388C17.063 8.0074 16.951 8.08213 16.951 8.08213C16.951 8.08213 17.0363 7.94868 17.1536 7.92199C17.1536 7.92199 17.175 8.02341 17.1376 8.08747C17.1376 8.08747 17.319 8.07145 17.3563 8.14085C17.3563 8.14085 17.367 8.2049 17.175 8.27963C17.175 8.27963 17.2283 8.36504 17.223 8.42909C17.223 8.42909 17.047 8.4024 17.0096 8.32233L16.935 8.33835L16.8283 8.34902" fill="#BCAC0B"/>
<path d="M16.8336 8.34902L16.7536 8.3597C16.743 8.44511 16.5776 8.51984 16.5776 8.51984C16.551 8.45578 16.5776 8.3597 16.5776 8.3597C16.3803 8.33835 16.3696 8.26896 16.3696 8.26896C16.391 8.19956 16.5723 8.1622 16.5723 8.1622C16.519 8.10882 16.5136 8.01274 16.5136 8.01274C16.631 8.00206 16.7483 8.10882 16.7483 8.10882C16.7483 8.10882 16.6203 8.06612 16.6043 7.8526C16.6043 7.8526 16.6736 7.83659 16.7163 7.87395C16.7163 7.87395 16.6896 7.64442 16.7803 7.60706H16.791C16.8923 7.61773 16.919 7.84726 16.919 7.84726C16.9563 7.79922 17.0256 7.79388 17.0256 7.79388C17.063 8.0074 16.951 8.08213 16.951 8.08213C16.951 8.08213 17.0363 7.94868 17.1536 7.92199C17.1536 7.92199 17.175 8.02341 17.1376 8.08747C17.1376 8.08747 17.319 8.07145 17.3563 8.14085C17.3563 8.14085 17.367 8.2049 17.175 8.27963C17.175 8.27963 17.2283 8.36504 17.223 8.42909C17.223 8.42909 17.047 8.4024 17.0096 8.32233L16.935 8.33835L16.8283 8.34902" stroke="black" stroke-width="0.0373494"/>
<path d="M16.881 8.38997C16.9234 8.38467 16.962 8.36272 16.9882 8.32897C17.0145 8.29521 17.0263 8.25241 17.021 8.20997C17.0156 8.16754 16.9937 8.12895 16.9599 8.10269C16.9262 8.07644 16.8834 8.06467 16.841 8.06997C16.8199 8.0726 16.7997 8.07934 16.7812 8.0898C16.7628 8.10027 16.7467 8.11426 16.7337 8.13098C16.7207 8.14769 16.7111 8.1668 16.7055 8.18722C16.6999 8.20764 16.6983 8.22896 16.701 8.24997C16.7036 8.27098 16.7103 8.29127 16.7208 8.30968C16.7313 8.32809 16.7452 8.34425 16.762 8.35725C16.7957 8.38351 16.8385 8.39528 16.881 8.38997Z" fill="white"/>
<path d="M16.8817 8.39164C16.9027 8.38883 16.923 8.38192 16.9413 8.37128C16.9597 8.36064 16.9757 8.34649 16.9886 8.32964C17.0015 8.31278 17.0109 8.29356 17.0164 8.27306C17.0218 8.25255 17.0232 8.23118 17.0204 8.21015C17.0176 8.18912 17.0107 8.16885 17.0001 8.15049C16.9894 8.13214 16.9753 8.11606 16.9584 8.10317C16.9416 8.09028 16.9224 8.08084 16.9019 8.07538C16.8814 8.06993 16.8601 8.06856 16.8391 8.07136C16.7966 8.07703 16.7582 8.09933 16.7322 8.13336C16.7062 8.1674 16.6947 8.21038 16.7004 8.25285C16.706 8.29532 16.7283 8.33381 16.7623 8.35983C16.7963 8.38586 16.8393 8.3973 16.8817 8.39164Z" stroke="black" stroke-width="0.0213425"/>
<path d="M16.8711 8.31498C16.8845 8.31623 16.8979 8.3145 16.9105 8.30989C16.9231 8.30529 16.9345 8.29794 16.9438 8.28837C16.9532 8.27881 16.9603 8.26727 16.9647 8.25461C16.969 8.24194 16.9705 8.22846 16.969 8.21516C16.9674 8.20185 16.963 8.18905 16.9559 8.17769C16.9488 8.16634 16.9392 8.1567 16.928 8.1495C16.9167 8.1423 16.9039 8.13771 16.8906 8.13606C16.8773 8.13441 16.8638 8.13575 16.8511 8.13998C16.8315 8.1465 16.8148 8.15956 16.8037 8.17697C16.7926 8.19438 16.7878 8.21508 16.7901 8.2356C16.7925 8.25611 16.8018 8.2752 16.8166 8.28965C16.8313 8.30411 16.8506 8.31305 16.8711 8.31498Z" fill="white"/>
<path d="M16.871 8.31698C16.8845 8.31821 16.898 8.31641 16.9107 8.31171C16.9234 8.30701 16.9349 8.29953 16.9443 8.28982C16.9537 8.28011 16.9608 8.26841 16.9652 8.25558C16.9695 8.24276 16.9709 8.22912 16.9693 8.21569C16.9676 8.20225 16.963 8.18935 16.9558 8.17793C16.9485 8.16651 16.9388 8.15685 16.9273 8.14968C16.9159 8.1425 16.9029 8.13798 16.8895 8.13645C16.8761 8.13492 16.8625 8.13641 16.8497 8.14083C16.8301 8.1476 16.8134 8.16089 16.8024 8.17849C16.7914 8.19608 16.7867 8.21692 16.7892 8.23753C16.7917 8.25813 16.8012 8.27726 16.8161 8.29172C16.831 8.30618 16.8503 8.31509 16.871 8.31698Z" stroke="black" stroke-width="0.0160069"/>
<path d="M20.4562 8.70001C20.4562 8.70001 20.4112 8.59001 20.3212 8.62501C20.2312 8.66001 20.2412 8.68001 20.1612 8.68001C20.1612 8.68001 20.1312 8.58001 20.1712 8.53501C20.1712 8.53501 20.0462 8.48501 20.0112 8.37501C20.0112 8.37501 20.0812 8.29501 20.2462 8.32501C20.2462 8.32501 20.2462 8.25001 20.2612 8.21001C20.2612 8.21001 20.4412 8.26001 20.4412 8.36501C20.4412 8.36501 20.3862 8.17501 20.4812 8.03501C20.4812 8.03501 20.5612 8.06501 20.5562 8.15501C20.5562 8.15501 20.5962 7.97501 20.8362 8.02501C20.8362 8.02501 20.7062 8.14001 20.7012 8.19501C20.6912 8.24501 20.5812 8.34001 20.5762 8.37001C20.5752 8.41157 20.5612 8.45177 20.5362 8.48501C20.5012 8.51501 20.4962 8.57001 20.4962 8.58501C20.4962 8.60001 20.4962 8.67501 20.4562 8.69501" fill="#FFCC00"/>
<path d="M20.4551 8.69593C20.4551 8.69593 20.4125 8.58917 20.3218 8.62654C20.2311 8.6639 20.2418 8.67992 20.1618 8.67992C20.1618 8.67992 20.1298 8.5785 20.1725 8.53579C20.1725 8.53579 20.0445 8.48775 20.0125 8.37566C20.0125 8.37566 20.0818 8.29559 20.2471 8.32761C20.2471 8.32761 20.2418 8.24755 20.2631 8.21018C20.2631 8.21018 20.4391 8.26356 20.4391 8.36498C20.4391 8.36498 20.3858 8.17281 20.4818 8.03403C20.4818 8.03403 20.5618 8.06606 20.5565 8.1568C20.5565 8.1568 20.5938 7.97531 20.8338 8.02335C20.8338 8.02335 20.7058 8.14079 20.7005 8.19417C20.6898 8.24755 20.5831 8.33829 20.5778 8.37032C20.5778 8.39701 20.5671 8.45039 20.5351 8.48241C20.5031 8.51444 20.4978 8.56782 20.4978 8.58917C20.4978 8.59985 20.4978 8.67458 20.4551 8.69593Z" fill="#BCAC0B" stroke="black" stroke-width="0.0373494"/>
<path d="M20.3212 8.48491C20.3258 8.45776 20.3374 8.43227 20.3548 8.4109C20.3722 8.38954 20.3948 8.37303 20.4204 8.36297C20.4461 8.35292 20.4739 8.34965 20.5012 8.35349C20.5285 8.35734 20.5543 8.36816 20.5762 8.38491C20.5762 8.41491 20.5612 8.45491 20.5362 8.48491C20.5012 8.51491 20.4962 8.56991 20.4962 8.58491C20.4985 8.61622 20.4915 8.64752 20.4762 8.67491H20.4512C20.43 8.67132 20.4097 8.66351 20.3916 8.65193C20.3735 8.64035 20.358 8.62524 20.3458 8.60751C20.3337 8.58978 20.3253 8.56978 20.321 8.54872C20.3168 8.52766 20.3168 8.50596 20.3212 8.48491Z" fill="white"/>
<path d="M20.3216 8.48244C20.3268 8.45543 20.3387 8.4302 20.3564 8.40917C20.3741 8.38814 20.3969 8.37202 20.4226 8.36237C20.4484 8.35272 20.4761 8.34985 20.5033 8.35405C20.5304 8.35826 20.556 8.36938 20.5776 8.38636C20.5776 8.41305 20.5616 8.45575 20.535 8.48244C20.503 8.51447 20.4976 8.56785 20.4976 8.5892C20.4986 8.6191 20.4912 8.64869 20.4763 8.6746H20.4496C20.4284 8.6708 20.4082 8.66274 20.3902 8.65092C20.3721 8.6391 20.3567 8.62375 20.3447 8.60581C20.3328 8.58786 20.3246 8.56768 20.3206 8.54648C20.3166 8.52528 20.317 8.5035 20.3216 8.48244Z" stroke="black" stroke-width="0.0213425"/>
<path d="M20.3911 8.49995C20.394 8.48269 20.4019 8.46666 20.4138 8.45381C20.4257 8.44096 20.4411 8.43186 20.458 8.42761C20.475 8.42337 20.4929 8.42417 20.5094 8.42991C20.5259 8.43565 20.5404 8.44609 20.5511 8.45995L20.5361 8.48495C20.5011 8.51495 20.4961 8.56995 20.4961 8.58495V8.59995H20.4661C20.4161 8.59495 20.3861 8.54995 20.3961 8.49495" fill="white"/>
<path d="M20.3911 8.49842C20.3947 8.48153 20.403 8.466 20.415 8.45366C20.4271 8.44133 20.4424 8.43269 20.4592 8.42877C20.476 8.42484 20.4936 8.4258 20.5099 8.43152C20.5261 8.43724 20.5405 8.44748 20.5511 8.46106L20.5351 8.48241C20.5031 8.51444 20.4978 8.56782 20.4978 8.58917V8.59984H20.4658C20.4124 8.59451 20.3858 8.54646 20.3964 8.49309L20.3911 8.49842Z" stroke="black" stroke-width="0.0160069"/>
<path d="M15.7611 8.64997C15.7611 8.64997 15.8061 8.54997 15.8961 8.58997C15.9811 8.63997 15.9711 8.64997 16.0561 8.64997C16.0561 8.64997 16.0861 8.54997 16.0561 8.50997C16.0561 8.50997 16.1811 8.46997 16.2161 8.35997C16.2161 8.35997 16.1511 8.27497 15.9861 8.29497C15.9861 8.29497 15.9961 8.21497 15.9761 8.17997C15.9761 8.17997 15.8011 8.21997 15.7961 8.31497C15.7961 8.31497 15.8561 8.12997 15.7711 7.98497C15.7711 7.98497 15.6861 8.01997 15.6861 8.10497C15.6861 8.10497 15.6611 7.91997 15.4211 7.95497C15.4211 7.95497 15.5411 8.07997 15.5411 8.13497C15.5411 8.18997 15.6511 8.28497 15.6511 8.31497C15.6511 8.34497 15.6611 8.39997 15.6911 8.43497C15.7261 8.46497 15.7261 8.51997 15.7211 8.53997C15.7211 8.54997 15.7211 8.62497 15.7611 8.64997Z" fill="#FFCC00"/>
<path d="M15.7617 8.65322C15.7617 8.65322 15.8044 8.54646 15.8951 8.58916C15.9804 8.63721 15.9697 8.64788 16.0551 8.64788C16.0551 8.64788 16.0871 8.5518 16.0551 8.5091C16.0551 8.5091 16.1831 8.47173 16.2151 8.35963C16.2151 8.35963 16.1511 8.27423 15.9857 8.29558C15.9857 8.29558 15.9964 8.21551 15.9751 8.17815C15.9751 8.17815 15.7991 8.22085 15.7937 8.31693C15.7937 8.31693 15.8577 8.1301 15.7724 7.98598C15.7724 7.98598 15.6871 8.01801 15.6871 8.10342C15.6871 8.10342 15.6604 7.92193 15.4204 7.95929C15.4204 7.95929 15.5431 8.08206 15.5431 8.13544C15.5431 8.18882 15.6497 8.2849 15.6497 8.31693C15.6497 8.34362 15.6604 8.40234 15.6924 8.43436C15.7244 8.46639 15.7244 8.51977 15.7191 8.54112C15.7191 8.5518 15.7191 8.62653 15.7617 8.64788V8.65322Z" fill="#BCAC0B" stroke="black" stroke-width="0.0373494"/>
<path d="M15.9009 8.44508C15.8965 8.41833 15.8854 8.39313 15.8686 8.37185C15.8518 8.35056 15.8299 8.33389 15.8049 8.3234C15.7799 8.3129 15.7527 8.30893 15.7258 8.31184C15.6988 8.31476 15.673 8.32448 15.6509 8.34008C15.6509 8.36508 15.6659 8.41008 15.6909 8.43508C15.7259 8.46508 15.7259 8.52008 15.7209 8.54008C15.7209 8.55008 15.7209 8.59008 15.7409 8.63008H15.7609C15.7824 8.62765 15.8033 8.62087 15.8222 8.61013C15.841 8.5994 15.8575 8.58494 15.8706 8.56763C15.8837 8.55033 15.8931 8.53054 15.8983 8.50947C15.9035 8.4884 15.9044 8.46649 15.9009 8.44508Z" fill="white"/>
<path d="M15.9004 8.44506C15.8959 8.41889 15.8849 8.39426 15.8685 8.37337C15.8521 8.35248 15.8308 8.336 15.8065 8.32541C15.7822 8.31482 15.7556 8.31046 15.7291 8.31271C15.7027 8.31496 15.6772 8.32376 15.655 8.33831C15.655 8.365 15.6657 8.4077 15.6924 8.43439C15.7244 8.46642 15.7244 8.51979 15.719 8.54115C15.719 8.55182 15.719 8.59452 15.7404 8.63189H15.7617C15.7833 8.62932 15.8042 8.62236 15.823 8.61143C15.8418 8.60051 15.8583 8.58586 15.8712 8.56837C15.8842 8.55088 15.8935 8.53092 15.8985 8.50972C15.9035 8.48852 15.9041 8.46652 15.9004 8.44506Z" stroke="black" stroke-width="0.0213425"/>
<path d="M15.8311 8.45492C15.8299 8.43686 15.8232 8.4196 15.812 8.4054C15.8007 8.3912 15.7855 8.38071 15.7682 8.37531C15.7509 8.36991 15.7324 8.36985 15.7151 8.37513C15.6978 8.38041 15.6825 8.3908 15.6711 8.40492L15.6911 8.43492C15.7261 8.46492 15.7261 8.51992 15.7211 8.53992V8.54992H15.7561C15.8061 8.54992 15.8361 8.49992 15.8311 8.45492Z" fill="white"/>
<path d="M15.8311 8.45583C15.8292 8.43809 15.8221 8.42131 15.8107 8.4076C15.7993 8.39388 15.7841 8.38383 15.7671 8.37871C15.75 8.37358 15.7318 8.3736 15.7147 8.37877C15.6977 8.38395 15.6825 8.39404 15.6711 8.40778L15.6925 8.43447C15.7245 8.4665 15.7245 8.51988 15.7191 8.54123V8.55191H15.7565C15.8045 8.55191 15.8365 8.50387 15.8311 8.45583Z" stroke="black" stroke-width="0.0160069"/>
<path d="M16.0286 9.63012C16.0286 9.63012 17.8312 8.92552 20.1032 9.64613" stroke="black" stroke-width="0.0800344"/>
<path d="M20.3591 9.06955C17.8471 8.26886 15.8418 9.02685 15.8418 9.02685" stroke="black" stroke-width="0.0266781"/>
<path d="M18.096 8.8949L17.896 8.9949L18.076 9.1049L18.291 9.0049L18.096 8.8949Z" fill="#FF0000"/>
<path d="M18.0977 8.89343L17.895 8.99485L18.0764 9.10695L18.2897 9.00019L18.0977 8.89343Z" stroke="black" stroke-width="0.0266781"/>
</g>
<defs>
<clipPath id="clip0_11930_67892">
<rect width="36" height="24" rx="2" fill="white"/>
</clipPath>
</defs>
</svg>
