<svg width="36" height="24" viewBox="0 0 36 24" fill="none" xmlns="http://www.w3.org/2000/svg">
<g clip-path="url(#clip0_11930_67908)">
<path fill-rule="evenodd" clip-rule="evenodd" d="M0 0H36V24H0V0Z" fill="#FFC621"/>
<path fill-rule="evenodd" clip-rule="evenodd" d="M0 16H36V24H0V16Z" fill="#EF2118"/>
<path fill-rule="evenodd" clip-rule="evenodd" d="M0 0H36V8H0V0Z" fill="#20AA46"/>
<path d="M19.0684 17.5054C21.8676 17.5054 24.1368 15.2362 24.1368 12.437C24.1368 9.63785 21.8676 7.36865 19.0684 7.36865C16.2692 7.36865 14 9.63785 14 12.437C14 15.2362 16.2692 17.5054 19.0684 17.5054Z" fill="#006BC6"/>
<path fill-rule="evenodd" clip-rule="evenodd" d="M16.795 8.84544L16.4895 9.05694L17.594 10.6079L17.8901 10.4199L16.795 8.84544ZM18.1768 12.5114L17.7209 12.1918L17.9089 11.5949L15.6482 11.6278L14.9902 11.1249L18.0781 11.092L18.6515 9.35774L18.9617 10.0627L18.1768 12.5114ZM21.7723 9.18854L21.4762 8.96294L20.3341 10.4857L20.5973 10.7066L21.7723 9.18854ZM18.6985 11.609L18.863 11.0826H19.4881L18.7737 8.93004L19.0557 8.15454L20.0192 11.0873L21.8428 11.1108L21.2694 11.6137L18.6985 11.609ZM22.9567 14.0154L23.0836 13.6676L21.2835 13.0425L21.1519 13.3715L22.9567 14.0154ZM19.709 11.8346L20.2589 11.8299L20.4516 12.4221L22.2752 11.0826L23.1024 11.1108L20.6067 12.9297L21.1472 14.6781L20.4892 14.2833L19.709 11.8346ZM18.7784 16.6286L19.1497 16.638L19.1638 14.7345L18.816 14.711L18.7784 16.6286ZM19.8124 12.8545L19.991 13.3762L19.4881 13.7522L21.3399 15.0541L21.5749 15.8437L19.0557 14.0577L17.5752 15.1246L17.7397 14.3726L19.8077 12.8545H19.8124ZM14.9573 13.4655L15.0654 13.818L16.8843 13.2446L16.7903 12.9062L14.9573 13.4655ZM18.8677 13.2775L18.4259 13.6112L17.9183 13.2493L17.2509 15.4113L16.5741 15.8813L17.4906 12.9344L16.0148 11.8534L16.7809 11.7782L18.8677 13.2775Z" fill="#FFC621"/>
</g>
<defs>
<clipPath id="clip0_11930_67908">
<rect width="36" height="24" rx="2" fill="white"/>
</clipPath>
</defs>
</svg>
