<svg width="36" height="24" viewBox="0 0 36 24" fill="none" xmlns="http://www.w3.org/2000/svg">
<g clip-path="url(#clip0_11930_67911)">
<path d="M0 0H36V24H0V0Z" fill="#003399"/>
<path d="M18.3499 3.82007L18.601 4.65736L19.4766 4.63748L18.7552 5.13718L19.0443 5.96265L18.3457 5.43057L17.6473 5.96264L17.9363 5.13704L17.2151 4.63765L18.0979 4.65752L18.3499 3.82007Z" fill="#FFCC00"/>
<path d="M18.3492 18.0422L18.0979 18.8797L17.2151 18.8596L17.9363 19.3592L17.6472 20.1848L18.3457 19.6527L19.0441 20.1848L18.7552 19.3593L19.4766 18.8598L18.601 18.8795L18.3492 18.0422Z" fill="#FFCC00"/>
<path d="M11.2458 10.9297L10.9942 11.7686L10.1101 11.7486L10.8315 12.2483L10.5424 13.0737L11.2407 12.5419L11.9381 13.0732L11.6496 12.2484L12.3715 11.7485L11.4975 11.7684L11.2458 10.9297Z" fill="#FFCC00"/>
<path d="M14.1847 6.96911L14.8846 6.43587L15.5844 6.96899L15.2951 6.1425L16.0147 5.64424L15.1319 5.66411L14.8802 4.82507L14.6285 5.66378L13.7549 5.64395L14.4741 6.14215L14.1847 6.96911Z" fill="#FFCC00"/>
<path d="M12.9395 9.60523L12.65 8.77846L13.3692 8.28047L12.4956 8.30014L12.244 7.46118L11.9922 8.30015L11.1179 8.2803L11.8376 8.77878L11.548 9.60547L12.244 9.07541L12.9395 9.60523Z" fill="#FFCC00"/>
<path d="M13.3763 15.4085L12.4997 15.4284L12.2485 14.5911L11.9966 15.4285L11.1157 15.4085L11.8455 15.914L11.5585 16.7334L12.2528 16.2046L12.9464 16.733L12.6573 15.9065L13.3763 15.4085Z" fill="#FFCC00"/>
<path d="M15.9524 17.794L15.0701 17.814L14.8189 16.9766L14.567 17.8138L13.6939 17.794L14.4111 18.2908L14.121 19.1189L14.8192 18.5871L15.5167 19.1184L15.2287 18.2953L15.9524 17.794Z" fill="#FFCC00"/>
<path d="M25.4507 10.9297L25.7024 11.7686L26.5865 11.7486L25.8651 12.2483L26.1541 13.0737L25.4559 12.5419L24.7585 13.0732L25.047 12.2484L24.3251 11.7485L25.1991 11.7684L25.4507 10.9297Z" fill="#FFCC00"/>
<path d="M22.5119 6.96911L21.812 6.43587L21.1122 6.96899L21.4015 6.1425L20.6819 5.64424L21.5647 5.66411L21.8164 4.82507L22.0681 5.66378L22.9417 5.64395L22.2224 6.14215L22.5119 6.96911Z" fill="#FFCC00"/>
<path d="M23.757 9.60523L24.0466 8.77846L23.3274 8.28047L24.2009 8.30014L24.4526 7.46118L24.7044 8.30015L25.5787 8.2803L24.859 8.77878L25.1485 9.60547L24.4526 9.07541L23.757 9.60523Z" fill="#FFCC00"/>
<path d="M23.3203 15.4085L24.1968 15.4284L24.448 14.5911L24.7 15.4285L25.5808 15.4085L24.8511 15.914L25.138 16.7334L24.4437 16.2046L23.7502 16.733L24.0393 15.9065L23.3203 15.4085Z" fill="#FFCC00"/>
<path d="M20.7441 17.794L21.6265 17.814L21.8777 16.9766L22.1296 17.8138L23.0027 17.794L22.2855 18.2908L22.5755 19.1189L21.8773 18.5871L21.1799 19.1185L21.4678 18.2953L20.7441 17.794Z" fill="#FFCC00"/>
</g>
<defs>
<clipPath id="clip0_11930_67911">
<rect width="36" height="24" rx="2" fill="white"/>
</clipPath>
</defs>
</svg>
