<svg width="36" height="24" viewBox="0 0 36 24" fill="none" xmlns="http://www.w3.org/2000/svg">
<g clip-path="url(#clip0_11930_67917)">
<rect width="36" height="24" rx="2" fill="#68BFE5"/>
<path d="M23.0461 10.6599V17.4799C23.0461 19.7099 27.0761 21.0299 27.0761 21.0299C27.0761 21.0299 31.1011 19.7099 31.1011 17.4799V10.6599H23.0461Z" fill="white"/>
<path d="M26.5161 13.0598V16.1298H23.0461V17.2448H26.5161V20.8198L27.0761 21.0348L27.6311 20.8198V17.2498H31.1011V16.1298H27.6311V13.0598H26.5161Z" fill="#D21034"/>
<path d="M23.046 10.6599H31.101V13.2999H23.041L23.046 10.6599Z" fill="#D21034"/>
<path d="M23.697 12.63C23.9467 12.63 24.1491 12.4663 24.1491 12.2644C24.1491 12.0624 23.9467 11.8987 23.697 11.8987C23.4473 11.8987 23.2449 12.0624 23.2449 12.2644C23.2449 12.4663 23.4473 12.63 23.697 12.63Z" fill="white" stroke="black" stroke-width="0.0265944" stroke-miterlimit="3"/>
<path d="M23.6969 12.2776C23.9191 12.2776 24.0992 12.1868 24.0992 12.0749C24.0992 11.9629 23.9191 11.8721 23.6969 11.8721C23.4748 11.8721 23.2947 11.9629 23.2947 12.0749C23.2947 12.1868 23.4748 12.2776 23.6969 12.2776Z" fill="white" stroke="black" stroke-width="0.0265944" stroke-miterlimit="3"/>
<path d="M23.6969 12.6866C23.9191 12.6866 24.0992 12.5958 24.0992 12.4838C24.0992 12.3718 23.9191 12.281 23.6969 12.281C23.4748 12.281 23.2947 12.3718 23.2947 12.4838C23.2947 12.5958 23.4748 12.6866 23.6969 12.6866Z" fill="white" stroke="black" stroke-width="0.0265944" stroke-miterlimit="3"/>
<path d="M23.6969 12.4671C23.9191 12.4671 24.0992 12.3763 24.0992 12.2643C24.0992 12.1523 23.9191 12.0615 23.6969 12.0615C23.4748 12.0615 23.2947 12.1523 23.2947 12.2643C23.2947 12.3763 23.4748 12.4671 23.6969 12.4671Z" fill="white" stroke="black" stroke-width="0.0265944" stroke-miterlimit="3"/>
<path d="M30.9044 12.77L30.8394 12.59C30.8394 12.59 30.6594 12.515 30.6444 12.42C30.6144 12.165 30.5244 12.07 30.3844 12.03C30.309 12.0086 30.2283 12.0176 30.1594 12.055C30.1194 12.115 29.9094 12.115 29.7994 12.12C29.6844 12.12 29.6794 12.07 29.6794 12.07C29.5944 12.07 29.5544 12.005 29.5544 12.005C29.4994 11.89 29.4544 11.845 29.4244 11.83C29.5744 11.83 29.6844 11.765 29.8544 11.59C30.0344 11.4 30.1644 11.47 30.1644 11.47C30.0744 11.65 30.1944 11.635 30.1944 11.635C30.4344 11.51 30.2244 11.2 30.1544 11.215C30.0794 11.23 30.0594 11.18 30.0594 11.18C30.0594 11.235 29.9794 11.26 29.9794 11.26C30.0394 10.905 29.8294 10.81 29.8294 10.81C29.7994 10.84 29.7794 10.905 29.7794 10.905C29.7194 11.12 29.5244 11.085 29.3044 10.98C29.0844 10.88 28.5044 11.09 28.3194 11.165C28.1344 11.24 27.7994 11.35 27.4994 11.185C27.1994 11.015 27.1244 11.045 27.0044 11.08C26.8894 11.11 26.6794 11.16 26.6044 11.12C26.5515 11.0933 26.4936 11.078 26.4344 11.075C26.4544 11.065 26.4244 11.015 26.4244 11.015C26.3294 10.89 26.4344 10.815 26.4344 10.815C26.4344 10.815 26.2644 10.865 26.3344 11.155L26.3644 11.195C26.3644 11.195 26.3844 11.29 26.4344 11.315V11.335C26.4344 11.335 26.4794 11.315 26.4894 11.375C26.5044 11.435 26.5694 11.375 26.5944 11.325C26.5944 11.325 26.5494 11.595 26.8794 11.66C26.8794 11.66 26.8444 11.615 26.8544 11.59C26.8694 11.56 26.8144 11.54 26.8194 11.5C26.8244 11.455 26.7394 11.44 26.8044 11.405C26.8744 11.375 26.9044 11.31 27.0544 11.4C27.1994 11.485 27.3144 11.465 27.3144 11.465C27.3144 11.465 27.2244 11.285 27.2744 11.285C27.3244 11.285 27.5444 11.555 27.6494 11.545C27.7594 11.53 27.9694 11.405 28.0744 11.45C28.0744 11.45 28.0844 11.4 28.4844 11.33C28.8844 11.26 29.3844 11.06 29.5694 11.235C29.5694 11.235 29.5894 11.375 29.6694 11.41C29.6694 11.41 29.6544 11.7 29.1594 11.54L28.9794 11.49C28.9794 11.49 28.9494 11.405 28.0044 11.65C28.0044 11.65 27.9494 11.67 27.9094 11.695C27.8744 11.72 27.8244 11.68 27.6344 11.745C27.4494 11.82 26.7494 12.045 26.3194 11.965C26.2244 11.935 26.1394 11.95 26.1344 11.935C26.1344 11.92 26.1844 11.94 26.1844 11.94C26.1544 11.905 26.1394 11.9 26.1394 11.9C25.7794 11.86 25.8394 11.7 25.8394 11.7L25.8594 11.75C25.9194 11.67 25.8394 11.49 25.8394 11.49H25.8344C25.8346 11.485 25.8346 11.48 25.8344 11.475L25.8594 11.455C26.0344 11.305 26.2344 11.28 26.2344 11.28C26.1144 11.13 25.8644 11.21 25.8644 11.21C25.8694 11.035 25.7944 10.825 25.7944 10.825C25.6404 10.8503 25.5023 10.9346 25.4094 11.06C25.3994 10.875 25.1644 10.77 25.1644 10.77C25.2544 10.875 25.1994 11.13 25.1994 11.13H25.2094H25.1844L25.1794 11.185H25.1694C25.1694 11.185 25.0844 11.215 24.9844 11.445C24.9844 11.445 24.9744 11.495 24.9344 11.545V11.525C24.9344 11.525 24.8194 11.675 24.5644 11.525C24.5644 11.525 24.2144 11.32 24.0844 11.325C23.9644 11.335 23.8844 11.39 23.8894 11.425C23.8894 11.425 23.6044 11.405 23.5094 11.565C23.5094 11.565 23.2944 11.645 23.4794 11.815C23.4794 11.815 23.5044 11.895 23.5544 11.935C23.5544 11.935 23.5494 11.775 23.5894 11.82L23.6144 11.85C23.6194 11.87 23.6394 11.93 23.6744 11.965L23.7044 11.955C23.7044 11.915 23.7144 11.865 23.7244 11.845H23.7344L23.7844 11.925L23.8344 11.895C23.8644 11.895 23.8994 11.92 23.8994 11.92L23.9644 11.865C24.0294 11.875 24.0494 11.745 24.0494 11.745C24.0756 11.7515 24.1028 11.7527 24.1295 11.7484C24.1561 11.7441 24.1816 11.7344 24.2044 11.72C24.2344 11.82 24.4644 11.935 24.4644 11.935H24.4744L24.4444 11.955C24.5494 12.03 24.7444 12.01 24.7444 12.01C24.6644 12.04 24.6744 12.195 24.6744 12.195C24.6244 12.215 24.6244 12.26 24.6244 12.26C24.7844 12.325 24.8894 12.27 24.8894 12.27C24.8994 12.32 24.8894 12.33 24.8894 12.33C24.8244 12.465 24.7944 12.6 24.7944 12.6H24.7994V12.61C24.7994 12.61 24.5144 12.71 24.3944 12.845C24.3944 12.845 24.3794 12.805 24.3444 12.805C24.3094 12.805 24.2044 12.715 24.1544 12.7C24.1044 12.685 24.0294 12.715 24.0044 12.69C23.9894 12.67 23.9994 12.51 23.9644 12.49L23.9294 12.39C23.9094 12.44 23.8094 12.43 23.8094 12.43L23.7694 12.46L23.7294 12.455C23.7194 12.455 23.7094 12.48 23.7044 12.505L23.6894 12.52V12.49C23.6744 12.505 23.6344 12.485 23.6194 12.485C23.6094 12.485 23.5994 12.505 23.5944 12.53L23.4994 12.535C23.4844 12.545 23.4994 12.665 23.4994 12.665C23.3844 12.725 23.4394 12.82 23.4394 12.82C23.4994 13.12 24.0144 12.985 24.0544 13.025C24.0944 13.065 24.1844 13.075 24.2294 13.075C24.2794 13.075 24.3344 13.185 24.3994 13.195C24.4644 13.205 24.3994 13.105 24.7044 13.035C25.0094 12.96 25.1144 12.835 25.1144 12.835C25.2094 12.815 25.2344 12.7 25.2394 12.655L25.2494 12.725C25.2644 12.83 25.1894 12.875 25.1894 12.875L25.4544 12.79C25.5594 12.765 25.5444 12.67 25.5444 12.67C25.6444 12.96 25.8294 12.98 25.8294 12.98C25.8644 12.87 25.8594 12.835 25.8594 12.835H25.9444C25.9444 12.77 25.8944 12.725 25.8594 12.705L25.9894 12.78L26.0394 12.775C26.0394 12.82 26.1044 12.86 26.1044 12.86L26.1144 12.8C26.1744 12.88 26.2844 12.85 26.2844 12.85C26.2818 12.8365 26.2785 12.8232 26.2744 12.81C26.5094 12.955 26.8844 12.77 26.8844 12.77C26.9844 12.79 26.9994 12.73 26.9994 12.73C27.1094 12.745 27.1394 12.665 27.1394 12.665C27.4044 12.645 27.5944 12.455 27.5944 12.455C27.7294 12.445 27.7344 12.35 27.7344 12.35C27.7344 12.35 27.8644 12.375 27.9944 12.215C28.2944 11.79 28.7344 12.015 28.7344 12.015L28.4794 12.03C27.8044 12.025 28.0844 12.48 28.0844 12.48H28.1244C28.1894 12.49 28.4094 12.665 28.3244 12.79V12.8C28.1844 12.985 27.9344 12.81 27.8594 12.65C27.7894 12.49 27.6394 12.525 27.6394 12.525C27.6394 12.525 27.2644 12.59 27.4194 12.89C27.4244 12.965 27.4694 13.05 27.6094 13.13C27.6844 13.24 27.9344 13.25 28.1144 13.21C28.2044 13.2 28.6544 13 28.6544 13C28.6894 12.9 28.8044 12.925 28.9044 12.78C29.0044 12.64 28.7594 12.59 28.7044 12.51C28.6544 12.435 28.7194 12.45 28.7194 12.45C28.9394 12.565 28.9594 12.19 28.9594 12.19C28.9659 12.2514 28.9896 12.3097 29.0276 12.3583C29.0656 12.4069 29.1164 12.4439 29.1744 12.465C29.2894 12.35 29.2044 12.105 29.2044 12.105C29.4894 12.615 29.6594 12.53 29.6594 12.53C29.5094 12.44 29.5844 12.31 29.5844 12.31C29.7194 12.85 30.2844 12.38 30.2844 12.38C30.2544 12.46 30.2844 12.505 30.3344 12.555C30.3844 12.605 30.4444 12.625 30.4144 12.72C30.3894 12.81 30.1244 12.79 30.1244 12.79C30.1244 12.79 29.8744 12.78 29.8944 12.99C29.9094 13.04 30.0744 13.06 30.1444 13.045C30.1444 13.045 30.1144 13.055 30.2094 13.065H30.3194C30.4244 13.065 30.5444 13.045 30.5444 13.045C30.6894 13.015 30.6644 12.965 30.6644 12.965C30.8894 12.925 30.9144 12.775 30.9144 12.775L30.9044 12.77Z" fill="#FFD100" stroke="black" stroke-width="0.04" stroke-miterlimit="3"/>
<path d="M23.4842 11.835C23.4842 11.835 23.4992 11.81 23.5192 11.805C23.5392 11.805 23.5592 11.815 23.5792 11.845L23.5942 11.835C23.5942 11.835 23.5342 11.745 23.5542 11.685C23.5692 11.655 23.5942 11.635 23.6342 11.63V11.615C23.5842 11.625 23.5542 11.645 23.5442 11.68C23.5388 11.6909 23.5354 11.7028 23.5342 11.715C23.5342 11.745 23.5442 11.775 23.5592 11.8C23.5477 11.7916 23.5334 11.788 23.5192 11.79C23.5105 11.791 23.5023 11.7944 23.4952 11.7996C23.4882 11.8049 23.4827 11.8119 23.4792 11.82L23.4842 11.835ZM30.5342 13.035C30.3842 13.06 30.1592 13.07 30.1392 13.025C30.1392 13.015 30.1392 12.985 30.2592 12.905L30.2492 12.88C30.1442 12.95 30.0992 12.995 30.1142 13.03C30.1492 13.12 30.4742 13.07 30.5392 13.06L30.5342 13.035ZM27.6142 13.12C27.5792 13.07 27.5992 12.995 27.6642 12.905L27.6392 12.89C27.5692 12.99 27.5542 13.07 27.5892 13.14L27.6142 13.12Z" fill="black"/>
<path d="M27.4095 12.89C27.4095 12.985 27.4795 13.07 27.6045 13.145L27.6195 13.12C27.4995 13.05 27.4395 12.97 27.4395 12.89C27.4295 12.765 27.5645 12.665 27.5695 12.665L27.5545 12.645C27.5445 12.645 27.4045 12.75 27.4095 12.895V12.89ZM30.0095 12.925C29.9695 12.99 29.9845 13.065 29.9845 13.065H30.0095C30.0095 13.06 29.9995 12.995 30.0345 12.94C30.0463 12.9238 30.0612 12.9102 30.0784 12.8999C30.0956 12.8895 30.1146 12.8828 30.1345 12.88V12.855C30.0795 12.865 30.0345 12.89 30.0145 12.925H30.0095ZM24.0545 11.755H24.0445V11.765C24.0445 11.765 24.0345 11.845 23.9945 11.865C23.9848 11.8689 23.9741 11.8689 23.9645 11.865L23.8995 11.83C23.8895 11.82 23.8795 11.815 23.8595 11.82C23.8514 11.8103 23.8455 11.7991 23.8421 11.7871C23.8386 11.775 23.8377 11.7624 23.8395 11.75C23.8445 11.715 23.8695 11.68 23.9195 11.65L23.9095 11.635C23.8595 11.67 23.8295 11.71 23.8245 11.75C23.8245 11.8 23.8495 11.83 23.8495 11.83V11.835H23.8595C23.8745 11.83 23.8745 11.835 23.8895 11.845L23.9595 11.885H24.0095C24.0445 11.86 24.0595 11.79 24.0595 11.775C24.2195 11.81 24.3495 11.61 24.3595 11.605L24.3445 11.595C24.3445 11.595 24.2095 11.795 24.0545 11.755Z" fill="black"/>
<path d="M23.6593 11.7251C23.6541 11.7597 23.6612 11.7951 23.6793 11.8251C23.6943 11.8501 23.7143 11.8651 23.7293 11.8701C23.7543 11.8701 23.7693 11.8551 23.7893 11.8401C23.7993 11.8301 23.8093 11.8201 23.8193 11.8201L23.8343 11.8301L23.8443 11.8201L23.8193 11.8051C23.8043 11.8051 23.7893 11.8151 23.7793 11.8301C23.7693 11.8451 23.7493 11.8551 23.7293 11.8551C23.7193 11.8551 23.7043 11.8401 23.6893 11.8151C23.6812 11.8027 23.6757 11.7887 23.6731 11.7741C23.6706 11.7595 23.671 11.7445 23.6743 11.7301C23.6943 11.6601 23.7793 11.6051 23.7793 11.6051L23.7743 11.5901C23.7693 11.5901 23.6793 11.6501 23.6593 11.7251ZM23.4393 12.7601C23.4443 12.7301 23.4693 12.7101 23.5043 12.6901C23.4943 12.6901 23.5343 12.7201 23.5693 12.7201L23.5943 12.7051C23.6043 12.7151 23.6643 12.7701 23.6643 12.8401C23.6643 12.8551 23.6643 12.8701 23.6543 12.8851L23.6693 12.8901C23.7143 12.7851 23.5993 12.6901 23.5993 12.6901H23.5893L23.5693 12.7051C23.5393 12.7051 23.5043 12.6751 23.5043 12.6751C23.4543 12.6951 23.4343 12.7251 23.4243 12.7551L23.4393 12.7601ZM23.9543 12.4901C23.9193 12.4951 23.8293 12.5101 23.7993 12.5601C23.7893 12.5801 23.7843 12.6001 23.7943 12.6201L23.8043 12.6501C23.8343 12.7301 23.8643 12.8101 23.8993 12.8301L23.9043 12.8151C23.8743 12.8001 23.8443 12.7151 23.8193 12.6451L23.8093 12.6151C23.8049 12.6075 23.8026 12.5989 23.8026 12.5901C23.8026 12.5813 23.8049 12.5727 23.8093 12.5651C23.8343 12.5301 23.9193 12.5151 23.9593 12.5101C23.9793 12.5101 23.9843 12.5851 23.9893 12.6301H24.0043C23.9993 12.5601 23.9893 12.4901 23.9543 12.4901Z" fill="black"/>
<path d="M23.6994 12.5701C23.6794 12.5851 23.6844 12.6101 23.6844 12.6151C23.6844 12.6201 23.6944 12.8151 23.7844 12.8551L23.7894 12.8401C23.7094 12.8051 23.6994 12.6151 23.6994 12.6101C23.6994 12.6101 23.6994 12.5901 23.7094 12.5801C23.7244 12.5701 23.7494 12.5651 23.7894 12.5801L23.7944 12.5651C23.7494 12.5501 23.7194 12.5551 23.6994 12.5651V12.5701Z" fill="black"/>
<path d="M23.6243 12.585C23.5843 12.615 23.5893 12.695 23.5893 12.7H23.6043C23.6043 12.7 23.6043 12.62 23.6343 12.6C23.6493 12.59 23.6643 12.59 23.6843 12.6L23.6893 12.58C23.6643 12.57 23.6393 12.57 23.6243 12.58V12.585Z" fill="black"/>
<path d="M25.8284 11.5097C25.8284 11.5097 25.8716 11.6095 25.8716 11.6859C25.8716 11.6992 25.865 11.7092 25.8616 11.7192L25.845 11.6759L25.835 11.7092C25.835 11.7092 25.8151 11.7557 25.845 11.8056C25.8849 11.8721 25.9846 11.912 26.1442 11.9286V11.9319C26.1396 11.9318 26.135 11.933 26.1309 11.9352L26.1243 11.9419V11.9552C26.1309 11.9718 26.1475 11.9718 26.1841 11.9718L26.2074 11.9751L26.2273 11.9818L26.224 11.9785C26.2572 11.9785 26.3004 11.9884 26.3437 12.005L26.3104 12.0117L26.347 12.0283C26.3503 12.0283 26.6362 12.1447 26.7525 12.2378C26.7193 12.2677 26.5764 12.3707 26.3304 12.3109L26.2905 12.3009L26.3171 12.3342C26.3171 12.3342 26.48 12.5203 26.5132 12.6333C26.4567 12.6333 26.2406 12.6333 26.1641 12.5669L26.1475 12.5835C26.1475 12.5835 26.2473 12.7364 26.2738 12.8527C26.2406 12.8594 26.1741 12.8627 26.1309 12.8062L26.111 12.7829L26.101 12.8494C26.081 12.8328 26.0544 12.8129 26.0544 12.7863V12.773L25.9946 12.7829L25.8683 12.7065C25.8618 12.7017 25.8552 12.6973 25.8483 12.6932L25.835 12.7164L25.855 12.7264C25.8816 12.7464 25.9281 12.7829 25.9314 12.8361H25.8517V12.8527C25.8517 12.8627 25.8517 12.8993 25.8217 12.9757C25.7852 12.9691 25.6456 12.9192 25.5624 12.6832L25.5359 12.6899V12.6965C25.5359 12.7198 25.5292 12.773 25.4561 12.7929L25.24 12.8594C25.2589 12.8322 25.2683 12.7994 25.2666 12.7663V12.7397C25.2625 12.7111 25.2603 12.6822 25.2599 12.6533C25.2599 12.6034 25.2699 12.5735 25.3065 12.5536L25.2932 12.527C25.2899 12.527 24.974 12.6566 24.8178 12.6034C24.8245 12.5702 24.851 12.4638 24.9042 12.3508L24.8976 12.3574C24.9076 12.3508 24.9175 12.3375 24.9076 12.2843V12.2677L24.8909 12.2743C24.8909 12.2743 24.7912 12.3209 24.6449 12.2677C24.6449 12.2544 24.6549 12.2344 24.6848 12.2211L24.6948 12.2178V12.1912C24.6948 12.1513 24.6981 12.0582 24.7546 12.0383L24.748 12.0117C24.748 12.0117 24.5785 12.025 24.4754 11.9685C24.5199 11.9365 24.571 11.9149 24.625 11.9053H24.635V11.892C24.6345 11.8657 24.6289 11.8397 24.6183 11.8156C24.6582 11.8289 24.7048 11.8388 24.7214 11.8255L24.728 11.8222L24.7214 11.7192H24.6948L24.6981 11.8056L24.5984 11.7823L24.5585 11.769L24.5851 11.8023C24.6012 11.8257 24.6093 11.8537 24.6084 11.8821C24.548 11.8951 24.4913 11.9212 24.4422 11.9585L24.4255 11.9718L24.4422 11.9818C24.5219 12.035 24.6449 12.0416 24.7081 12.0383C24.6798 12.0831 24.6648 12.1349 24.6649 12.1879V12.2012C24.6517 12.2089 24.6403 12.2195 24.6317 12.2321C24.6231 12.2448 24.6174 12.2592 24.615 12.2743V12.2843L24.6217 12.2876C24.7041 12.3256 24.7977 12.3315 24.8843 12.3042V12.3342C24.8178 12.4738 24.7846 12.6101 24.7846 12.6101V12.6234H24.7945C24.9242 12.6766 25.1502 12.6067 25.2533 12.5702C25.24 12.5935 25.23 12.62 25.23 12.6533C25.2304 12.6912 25.2338 12.729 25.24 12.7663C25.24 12.8428 25.1901 12.8727 25.1868 12.8727L25.1968 12.8993L25.4627 12.8195C25.5226 12.8029 25.5458 12.7663 25.5558 12.7364C25.6589 12.9824 25.8217 13.0023 25.8317 13.0057H25.8417L25.845 12.9957C25.8626 12.9533 25.8738 12.9084 25.8783 12.8627C25.9049 12.8617 25.9314 12.8606 25.958 12.8594V12.8428C25.958 12.8195 25.9547 12.7996 25.9447 12.7829L25.9913 12.8095L26.0345 12.8029C26.0445 12.8461 26.0977 12.8827 26.1043 12.886L26.1209 12.896L26.1309 12.8394C26.1974 12.896 26.2871 12.8793 26.2938 12.8793L26.3038 12.876V12.8627C26.2905 12.773 26.2306 12.6666 26.1941 12.6101C26.3104 12.6633 26.5232 12.6599 26.5331 12.6599H26.5464V12.6433C26.5026 12.5333 26.4396 12.432 26.3603 12.3441C26.6329 12.394 26.7791 12.251 26.7858 12.2444L26.7958 12.2344L26.7825 12.2278C26.663 12.1424 26.5335 12.0721 26.3968 12.0183L26.4268 12.0117L26.3935 11.9951C26.3338 11.9646 26.2678 11.9486 26.2007 11.9485C26.1675 11.9086 26.1509 11.9053 26.1475 11.902C25.9614 11.8821 25.8949 11.8322 25.8683 11.7923V11.7823L25.8749 11.7723C25.8916 11.7491 25.8982 11.7192 25.8982 11.6859C25.8982 11.5995 25.855 11.5031 25.855 11.4998L25.8284 11.5097Z" fill="black"/>
<path d="M24.9807 11.4566C24.9807 11.4566 24.9608 11.5563 24.8743 11.6062C24.8079 11.6395 24.7247 11.6395 24.6217 11.5962L24.6084 11.5929V11.6062C24.6158 11.649 24.6397 11.6872 24.6749 11.7126C24.7181 11.7458 24.7846 11.7591 24.871 11.7525C24.8411 11.7857 24.7513 11.8988 24.7513 12.0118V12.0284C24.7646 12.035 24.9043 12.0749 24.9707 11.9918C24.9707 12.0251 24.984 12.1414 25.0273 12.1846C25.0539 12.2112 25.0605 12.2445 25.0605 12.2744C25.0605 12.301 25.0539 12.3209 25.0539 12.3209L25.0472 12.3409L25.0638 12.3276C25.0705 12.3243 25.2001 12.2279 25.24 12.1049C25.24 12.1049 25.2633 12.0716 25.3032 12.0616V12.0783C25.3032 12.1281 25.3231 12.2146 25.4627 12.2677L25.4727 12.2711V12.2611C25.4723 12.2533 25.4723 12.2456 25.4727 12.2378C25.4727 12.2013 25.4727 12.1381 25.5093 12.1049C25.524 12.0912 25.5339 12.0731 25.5375 12.0533C25.5411 12.0335 25.5382 12.0131 25.5292 11.9952C25.5591 12.0018 25.6256 12.0251 25.6522 12.0749C25.6921 12.1481 25.8284 12.0882 25.8351 12.0882L25.8317 12.0716C25.8317 12.0716 25.7719 12.0849 25.7353 12.0616C25.7277 12.0556 25.7213 12.0481 25.7168 12.0395C25.7122 12.0309 25.7095 12.0215 25.7087 12.0118L25.7021 11.932C25.7021 11.8987 25.6954 11.8755 25.6788 11.8589C25.6954 11.8589 25.732 11.8589 25.7453 11.8921C25.7719 11.9453 25.855 11.9486 25.8583 11.9486L25.8883 11.9519L25.865 11.9353C25.865 11.9353 25.7918 11.8888 25.8051 11.8256L25.8151 11.7791C25.8351 11.696 25.8683 11.5597 25.8384 11.4732L25.8251 11.4799C25.8317 11.4998 25.8351 11.5264 25.8351 11.553C25.8351 11.6262 25.8118 11.7192 25.8018 11.7758L25.7885 11.8223C25.788 11.8278 25.788 11.8334 25.7885 11.8389C25.7885 11.8821 25.8118 11.912 25.8317 11.9287C25.8085 11.9253 25.7752 11.912 25.7653 11.8855C25.742 11.8389 25.6888 11.8389 25.6655 11.8422L25.6456 11.8456L25.6589 11.8589C25.6821 11.8722 25.6855 11.8921 25.6855 11.9353L25.6921 12.0118C25.6954 12.0384 25.7087 12.0583 25.7254 12.0716C25.7453 12.0849 25.7653 12.0849 25.7819 12.0882C25.742 12.0982 25.6855 12.1049 25.6655 12.0683C25.629 11.9952 25.5226 11.9785 25.5193 11.9752H25.5026L25.5093 11.9885C25.5093 11.9885 25.5226 12.0085 25.5226 12.035C25.5226 12.0517 25.5159 12.0749 25.4993 12.0916C25.4627 12.1281 25.4561 12.1979 25.4561 12.2345V12.2478C25.3364 12.1979 25.3165 12.1248 25.3165 12.0816V12.0483L25.3231 12.0384H25.3098C25.2923 12.0413 25.2757 12.0483 25.2613 12.0587C25.2469 12.069 25.2351 12.0826 25.2267 12.0982C25.1937 12.1795 25.1398 12.2505 25.0705 12.3043C25.0724 12.2933 25.0735 12.2822 25.0738 12.2711C25.0738 12.2412 25.0672 12.2046 25.0406 12.1747C24.9907 12.1281 24.984 11.9752 24.984 11.9752V11.9486L24.9707 11.9719C24.9176 12.065 24.7646 12.0184 24.7613 12.0184C24.7547 11.9021 24.8943 11.7492 24.8943 11.7458L24.9076 11.7325H24.8876C24.7979 11.7458 24.7281 11.7325 24.6815 11.6993C24.6551 11.6782 24.6364 11.649 24.6283 11.6162C24.7281 11.6528 24.8145 11.6561 24.881 11.6195C24.9097 11.6021 24.9346 11.5789 24.954 11.5514C24.9735 11.524 24.9871 11.4929 24.994 11.4599C25.0937 11.2405 25.1769 11.204 25.1769 11.204L25.1735 11.1907C25.1669 11.1907 25.0804 11.2239 24.9807 11.4566Z" fill="black"/>
<path d="M25.2034 11.1275H25.1967L25.1169 11.2372H25.1402C25.3883 11.2567 25.6209 11.3653 25.7951 11.543L25.8051 11.553L25.8815 11.4699L25.8749 11.4599C25.6588 11.1208 25.2067 11.1275 25.2001 11.1275H25.2034ZM25.21 11.1574C25.2632 11.1574 25.6488 11.1673 25.8483 11.4665L25.8051 11.5131C25.6297 11.3464 25.4041 11.2424 25.1635 11.2172C25.179 11.1972 25.1945 11.1773 25.21 11.1574Z" fill="black"/>
<path d="M25.1403 11.3536C25.1045 11.4004 25.0806 11.4551 25.0705 11.5132L25.0738 11.5265C25.0507 11.5507 25.0329 11.5795 25.0214 11.6109C25.01 11.6424 25.0052 11.6759 25.0073 11.7093C25.0073 11.7525 25.014 11.7957 25.0273 11.8356L25.0372 11.8589C25.0771 11.9719 25.1137 12.0716 25.2965 12.0118C25.4694 11.9586 25.4761 11.9453 25.5193 11.8722L25.5326 11.8556C25.5558 11.8157 25.5824 11.809 25.609 11.7991C25.6423 11.7891 25.6755 11.7791 25.7088 11.7193L25.7354 11.6761C25.7686 11.6328 25.8085 11.5763 25.8118 11.5098H25.7985C25.7886 11.5675 25.7634 11.6215 25.7254 11.6661L25.6921 11.7126C25.6849 11.731 25.6732 11.7473 25.6581 11.7601C25.643 11.7728 25.625 11.7816 25.6057 11.7858C25.5879 11.7891 25.571 11.7962 25.5561 11.8065C25.5413 11.8168 25.5287 11.8301 25.5193 11.8456L25.506 11.8655C25.4661 11.9354 25.4594 11.9453 25.2899 11.9985C25.1237 12.0517 25.0904 11.9686 25.0505 11.8522L25.0406 11.829C24.994 11.7027 25.0306 11.5763 25.0938 11.5298L25.1137 11.5132L25.0838 11.5165V11.5132C25.0838 11.4899 25.1071 11.4267 25.1503 11.3636C25.1902 11.3104 25.2832 11.2605 25.2832 11.2572L25.2766 11.2439C25.2699 11.2472 25.1802 11.3004 25.1403 11.3536Z" fill="black"/>
<path d="M25.0602 11.8156C25.0902 11.8356 25.1301 11.8323 25.1832 11.8156C25.1832 11.8323 25.1832 11.8722 25.2165 11.8988C25.2564 11.932 25.3162 11.9386 25.3993 11.9187V11.9021C25.3195 11.922 25.2597 11.9154 25.2265 11.8855C25.2159 11.8752 25.2077 11.8627 25.2026 11.8489C25.1974 11.8351 25.1953 11.8204 25.1965 11.8057V11.7924L25.1866 11.799C25.1367 11.819 25.0968 11.8223 25.0669 11.799C25.017 11.7658 25.0204 11.676 25.0204 11.676H25.0071C25.0071 11.676 25.0004 11.7758 25.0602 11.8156Z" fill="black"/>
<path d="M25.1535 11.6925C25.1335 11.6991 25.1269 11.7158 25.1269 11.7291V11.739C25.1335 11.7789 25.1767 11.8055 25.2133 11.8155C25.2532 11.8255 25.2997 11.8288 25.3163 11.8055C25.323 11.7956 25.3296 11.7789 25.3163 11.749C25.302 11.721 25.2775 11.6995 25.2478 11.6889C25.2181 11.6784 25.1856 11.6797 25.1568 11.6925H25.1535ZM25.2199 11.8022C25.1867 11.7922 25.1468 11.769 25.1435 11.7357C25.1435 11.7357 25.1402 11.7124 25.1601 11.7058C25.1858 11.6954 25.2145 11.6951 25.2404 11.7049C25.2663 11.7148 25.2875 11.7341 25.2997 11.759C25.3097 11.7723 25.3097 11.7856 25.3031 11.7922C25.2931 11.8089 25.2565 11.8122 25.2199 11.8022ZM25.2066 11.892C25.1967 11.9751 25.2066 11.9784 25.21 11.9784H25.2166L25.2233 11.9751L25.2698 11.9086L25.21 11.882V11.892H25.2066ZM25.2233 11.9053L25.2465 11.9152L25.2199 11.9518L25.2233 11.9053ZM25.0836 11.8255L25.0803 11.9019L25.1468 11.8221L25.0803 11.8155L25.0836 11.8255ZM25.0969 11.8321H25.1169L25.0969 11.8587V11.8321Z" fill="black"/>
<path d="M25.0372 11.799C25.0372 11.799 25.0871 11.8954 25.0971 11.932C25.1004 11.952 25.1303 11.9785 25.1635 11.9885C25.1968 12.0018 25.23 12.0018 25.2533 11.9852L25.2965 11.9486C25.3098 11.932 25.3165 11.9287 25.3298 11.932V11.9154C25.3098 11.9154 25.2998 11.922 25.2865 11.9353L25.2433 11.9686C25.2167 11.9885 25.1868 11.9819 25.1702 11.9752C25.137 11.9653 25.1137 11.942 25.1104 11.9254C25.1004 11.8921 25.0538 11.7957 25.0505 11.7924L25.0372 11.799ZM25.1037 11.5131C25.0662 11.5329 25.0377 11.5662 25.0239 11.6062L25.0372 11.6096C25.0372 11.6096 25.0605 11.5497 25.107 11.5264C25.1196 11.5207 25.1332 11.5178 25.1469 11.5178C25.1607 11.5178 25.1743 11.5207 25.1868 11.5264L25.1901 11.5131C25.1569 11.4998 25.1303 11.4998 25.1004 11.5131H25.1037ZM25.4627 11.686C25.4694 11.686 25.5691 11.7658 25.5126 11.8589L25.5226 11.8688C25.5891 11.7591 25.4727 11.6727 25.4727 11.6694L25.4627 11.686ZM25.1569 11.6993C25.1569 11.6993 25.1403 11.7558 25.2234 11.7758C25.2234 11.7758 25.1469 11.7758 25.1403 11.7558C25.137 11.7359 25.1403 11.6927 25.1569 11.6993ZM25.4062 11.7658C25.4062 11.7724 25.3996 11.7758 25.3962 11.7758C25.3941 11.7759 25.3919 11.7753 25.3902 11.7741C25.3884 11.7729 25.387 11.7712 25.3863 11.7691C25.3863 11.7625 25.3896 11.7591 25.3962 11.7591C25.3996 11.7591 25.4062 11.7625 25.4062 11.7691V11.7658ZM25.4129 11.8057C25.4129 11.809 25.4129 11.8123 25.4062 11.8123C25.4041 11.8125 25.4019 11.8119 25.4001 11.8107C25.3983 11.8095 25.397 11.8077 25.3962 11.8057C25.3962 11.803 25.3973 11.8005 25.3992 11.7986C25.401 11.7968 25.4036 11.7957 25.4062 11.7957C25.4095 11.7957 25.4129 11.799 25.4129 11.8057Z" fill="black"/>
<path d="M25.353 11.7956C25.3585 11.7956 25.363 11.7911 25.363 11.7856C25.363 11.7801 25.3585 11.7756 25.353 11.7756C25.3475 11.7756 25.343 11.7801 25.343 11.7856C25.343 11.7911 25.3475 11.7956 25.353 11.7956Z" fill="black"/>
<path d="M25.3795 11.8389C25.3795 11.8416 25.3785 11.8441 25.3766 11.846C25.3747 11.8479 25.3722 11.8489 25.3695 11.8489C25.3669 11.8489 25.3644 11.8479 25.3625 11.846C25.3606 11.8441 25.3596 11.8416 25.3596 11.8389C25.3596 11.8356 25.3629 11.8323 25.3695 11.8323L25.3795 11.8389ZM25.1435 11.5963C25.1435 11.5989 25.1424 11.6014 25.1406 11.6033C25.1387 11.6052 25.1362 11.6062 25.1335 11.6062C25.1309 11.6062 25.1283 11.6052 25.1265 11.6033C25.1246 11.6014 25.1235 11.5989 25.1235 11.5963C25.1244 11.5949 25.1257 11.5938 25.1271 11.593C25.1286 11.5922 25.1302 11.5918 25.1318 11.5918C25.1335 11.5918 25.1351 11.5922 25.1366 11.593C25.138 11.5938 25.1392 11.5949 25.1402 11.5963H25.1435Z" fill="black"/>
<path d="M25.1401 11.6427C25.1456 11.6427 25.1501 11.6383 25.1501 11.6328C25.1501 11.6273 25.1456 11.6228 25.1401 11.6228C25.1346 11.6228 25.1301 11.6273 25.1301 11.6328C25.1301 11.6383 25.1346 11.6427 25.1401 11.6427Z" fill="black"/>
<path d="M25.0903 11.6261C25.0958 11.6261 25.1003 11.6217 25.1003 11.6162C25.1003 11.6107 25.0958 11.6062 25.0903 11.6062C25.0848 11.6062 25.0803 11.6107 25.0803 11.6162C25.0803 11.6217 25.0848 11.6261 25.0903 11.6261Z" fill="black"/>
<path d="M25.1135 11.6694C25.1137 11.6715 25.1131 11.6737 25.1119 11.6755C25.1107 11.6773 25.1089 11.6786 25.1069 11.6793C25.1043 11.6793 25.1017 11.6783 25.0998 11.6764C25.098 11.6746 25.0969 11.672 25.0969 11.6694C25.0969 11.6667 25.098 11.6642 25.0998 11.6623C25.1017 11.6604 25.1043 11.6594 25.1069 11.6594C25.1089 11.6601 25.1107 11.6615 25.1119 11.6633C25.1131 11.6651 25.1137 11.6672 25.1135 11.6694ZM25.2731 11.3502C25.2731 11.3502 25.3895 11.4234 25.2764 11.5597C25.2764 11.5597 25.3329 11.5165 25.3363 11.4466C25.3429 11.3768 25.2964 11.3203 25.2698 11.3502H25.2731ZM25.7219 11.5464C25.682 11.5663 25.6288 11.5297 25.6022 11.4965C25.5756 11.4633 25.5191 11.4533 25.4825 11.5165C25.4493 11.5763 25.3994 11.5996 25.3994 11.5996C25.3994 11.5996 25.4493 11.573 25.4992 11.5165C25.549 11.4633 25.5789 11.5065 25.6288 11.5331C25.6754 11.5597 25.6853 11.5663 25.7186 11.5497V11.5464H25.7219Z" fill="black"/>
<path d="M25.712 11.5564C25.7013 11.5646 25.6882 11.5688 25.6748 11.5682C25.6614 11.5676 25.6486 11.5622 25.6388 11.5531C25.6056 11.5265 25.5823 11.4932 25.5457 11.5132C25.5058 11.5331 25.436 11.5863 25.436 11.5863C25.436 11.5863 25.5524 11.5065 25.5757 11.5265C25.5956 11.5431 25.6488 11.5863 25.6787 11.573L25.712 11.5564Z" fill="black"/>
<path d="M25.6222 11.6028C25.5856 11.5762 25.5491 11.6361 25.5192 11.6294C25.4859 11.6228 25.4626 11.5696 25.4626 11.5696C25.4626 11.5696 25.4892 11.6228 25.5291 11.6128C25.5723 11.5995 25.5989 11.5729 25.6255 11.5929C25.6488 11.6128 25.6222 11.6028 25.6222 11.6028Z" fill="black"/>
<path d="M25.5659 11.6127C25.5564 11.6147 25.5466 11.6145 25.5371 11.6123C25.5277 11.61 25.5189 11.6057 25.5113 11.5997C25.5037 11.5937 25.4975 11.5861 25.4931 11.5774C25.4888 11.5688 25.4864 11.5593 25.4861 11.5496C25.4861 11.5496 25.5094 11.6094 25.5725 11.5994L25.5659 11.6127Z" fill="black"/>
<path d="M25.5624 11.5664C25.5657 11.583 25.5657 11.593 25.5457 11.593C25.5258 11.593 25.5125 11.5863 25.5125 11.5664C25.5125 11.5497 25.559 11.5531 25.5624 11.5664ZM25.3031 11.4666C25.3023 11.4722 25.2995 11.4773 25.2952 11.481C25.2909 11.4846 25.2854 11.4866 25.2798 11.4866C25.2665 11.4866 25.2632 11.4799 25.2632 11.4666C25.2632 11.4533 25.2632 11.4434 25.2798 11.4434C25.2964 11.4434 25.3031 11.4533 25.3031 11.4666Z" fill="black"/>
<path d="M25.2199 11.3833C25.2199 11.3833 25.3462 11.3833 25.2864 11.5396C25.2864 11.5396 25.3329 11.4631 25.303 11.4066C25.2697 11.3534 25.2265 11.3667 25.2265 11.3667C25.2265 11.3667 25.2132 11.3767 25.2199 11.3833Z" fill="black"/>
<path d="M25.2201 11.4465C25.2201 11.4797 25.2401 11.5097 25.28 11.5429L25.2899 11.5296C25.2534 11.4997 25.2334 11.4731 25.2334 11.4465C25.2334 11.4199 25.2534 11.4033 25.2534 11.4033L25.2434 11.3933C25.2434 11.3933 25.2201 11.4133 25.2168 11.4465H25.2201Z" fill="black"/>
<path d="M25.2466 11.4733C25.2499 11.4899 25.2666 11.5065 25.2865 11.5132L25.2932 11.4999C25.2765 11.4932 25.2632 11.4799 25.2599 11.4666C25.2533 11.44 25.2732 11.4101 25.2732 11.4101L25.2599 11.4001C25.2599 11.4001 25.2367 11.44 25.2466 11.4733ZM25.4162 11.5597C25.4162 11.5597 25.4394 11.6096 25.4062 11.6628L25.3729 11.716C25.3729 11.716 25.4128 11.6395 25.3962 11.6096C25.3829 11.5763 25.4162 11.5597 25.4162 11.5597ZM25.9015 12.085C26.0278 12.1082 26.3171 12.3343 26.3171 12.3343L26.3337 12.3143C26.3237 12.3044 26.0378 12.0816 25.9048 12.0584L25.9015 12.085ZM26.0145 12.4008C26.0212 12.5171 26.1475 12.5869 26.1475 12.5902L26.1641 12.567C26.1641 12.567 26.0478 12.5005 26.0411 12.4008H26.0145ZM25.7054 12.4274C25.7054 12.5537 25.8251 12.7066 25.8317 12.7132L25.8516 12.6966C25.8516 12.6966 25.732 12.5437 25.732 12.4274H25.7054ZM25.3031 12.4407C25.3231 12.4839 25.3231 12.5038 25.3164 12.5138C25.3098 12.5271 25.2965 12.5271 25.2965 12.5271L25.2998 12.5537C25.3098 12.5537 25.3297 12.547 25.3397 12.5271C25.353 12.5038 25.3497 12.4706 25.3264 12.4274L25.3031 12.4407Z" fill="black"/>
<path d="M23.488 11.8151C23.488 11.8151 23.493 11.9001 23.558 11.9501C23.558 11.9501 23.553 11.8601 23.573 11.8201C23.573 11.8201 23.538 11.7801 23.488 11.8151ZM23.618 11.8651C23.618 11.8651 23.633 11.9451 23.678 11.9801L23.708 11.9751C23.708 11.9751 23.718 11.8751 23.733 11.8651C23.748 11.8551 23.668 11.9001 23.618 11.8651Z" fill="white" stroke="black" stroke-width="0.01" stroke-miterlimit="3"/>
<path d="M23.733 11.8651L23.783 11.9451L23.843 11.9101L23.833 11.8201C23.833 11.8201 23.798 11.8101 23.733 11.8651ZM23.968 11.8801L23.903 11.9351C23.903 11.9351 23.868 11.9101 23.843 11.9101L23.853 11.8251C23.853 11.8251 23.903 11.7901 23.968 11.8801ZM23.503 12.6801C23.503 12.6801 23.493 12.5601 23.503 12.5551C23.503 12.5551 23.553 12.5701 23.573 12.5551C23.573 12.5551 23.598 12.6451 23.593 12.6851C23.583 12.7251 23.538 12.7101 23.503 12.6851V12.6801ZM23.803 12.5601C23.803 12.5601 23.798 12.4601 23.813 12.4451C23.813 12.4451 23.913 12.4601 23.933 12.4051L23.968 12.5051C23.968 12.5051 23.863 12.4901 23.798 12.5551L23.803 12.5601Z" fill="white"/>
<path d="M23.843 11.9101L23.783 11.9451L23.733 11.8651C23.798 11.8101 23.833 11.8201 23.833 11.8201L23.843 11.9101ZM23.843 11.9101C23.868 11.9101 23.903 11.9351 23.903 11.9351L23.968 11.8801C23.903 11.7901 23.853 11.8251 23.853 11.8251L23.843 11.9101ZM23.503 12.6801C23.503 12.6801 23.493 12.5601 23.503 12.5551C23.503 12.5551 23.553 12.5701 23.573 12.5551C23.573 12.5551 23.598 12.6451 23.593 12.6851C23.583 12.7251 23.538 12.7101 23.503 12.6851V12.6801ZM23.803 12.5601C23.803 12.5601 23.798 12.4601 23.813 12.4451C23.813 12.4451 23.913 12.4601 23.933 12.4051L23.968 12.5051C23.968 12.5051 23.863 12.4901 23.798 12.5551L23.803 12.5601Z" stroke="black" stroke-width="0.01" stroke-miterlimit="3"/>
<path d="M23.698 12.5801C23.698 12.5801 23.713 12.4751 23.733 12.4701C23.733 12.4701 23.783 12.4851 23.798 12.4651V12.5951C23.798 12.5951 23.798 12.5401 23.698 12.5801ZM23.583 12.5951C23.583 12.5951 23.608 12.5001 23.623 12.5001C23.638 12.5001 23.673 12.5251 23.693 12.5101V12.5801C23.693 12.5801 23.613 12.5601 23.598 12.6751L23.583 12.5951Z" fill="white" stroke="black" stroke-width="0.01" stroke-miterlimit="3"/>
<path d="M25.086 14.52C25.086 14.52 25.346 14.765 25.281 14.98C25.281 14.98 25.446 14.615 25.266 14.505C25.086 14.405 25.081 14.48 25.086 14.52Z" fill="#00A651" stroke="black" stroke-width="0.025" stroke-miterlimit="4.8"/>
<path d="M24.7512 14.755C24.7512 14.755 24.6862 14.855 24.7612 14.92C24.7612 14.92 24.6762 15.04 24.7412 15.14C24.7412 15.14 24.6912 15.245 24.7012 15.36C24.7012 15.36 24.6612 15.535 24.7512 15.615C24.7512 15.615 24.8512 15.665 24.9012 15.62C24.9012 15.62 24.9862 15.49 24.9312 15.355C24.9312 15.355 24.9912 15.24 24.9212 15.095C24.9212 15.095 24.9412 15.015 24.8862 14.92C24.8862 14.92 24.9212 14.86 24.8912 14.81C24.8912 14.81 24.7662 14.675 24.7512 14.76V14.755Z" fill="#964B36" stroke="black" stroke-width="0.025" stroke-miterlimit="4.8"/>
<path d="M24.8262 14.45C24.8262 14.45 24.5162 13.85 24.2962 13.825C24.0762 13.8 24.0662 13.585 24.0662 13.585C24.0662 13.585 24.0912 13.685 24.2662 13.685C24.4412 13.685 24.7762 13.935 24.8162 14.12C24.8512 14.305 24.8912 14.28 24.8912 14.28L24.8262 14.45Z" fill="#00A651" stroke="black" stroke-width="0.025" stroke-miterlimit="4.8"/>
<path d="M24.8261 14.405C24.8261 14.405 24.9411 13.65 25.4361 13.635C25.9311 13.625 25.7661 13.675 25.8861 13.595C25.8861 13.595 25.5561 13.765 25.3511 13.795C25.1411 13.815 24.9711 14.22 24.9811 14.295C24.9811 14.37 24.8661 14.515 24.8111 14.465C24.7511 14.415 24.8261 14.405 24.8261 14.405Z" fill="#00A651" stroke="black" stroke-width="0.025" stroke-miterlimit="4.8"/>
<path d="M24.9411 14.69C24.9411 14.69 25.0561 14.39 25.2461 14.49C25.2461 14.49 25.0961 14.2 24.8261 14.45C24.8261 14.45 24.9461 14.615 24.9411 14.69ZM24.5661 14.39C24.5661 14.39 24.7261 15.06 24.4761 15.265C24.4761 15.265 24.4861 14.92 24.3311 14.715C24.1811 14.505 24.4811 14.28 24.5661 14.39Z" fill="#00A651" stroke="black" stroke-width="0.025" stroke-miterlimit="4.8"/>
<path d="M24.5863 14.505C24.5863 14.505 24.8813 14.79 24.8963 14.885C24.9163 14.975 24.9863 14.6 24.8463 14.495C24.7063 14.39 24.5613 14.37 24.5613 14.37L24.5863 14.51V14.505Z" fill="#00A651" stroke="black" stroke-width="0.025" stroke-miterlimit="4.8"/>
<path d="M24.041 15.25C24.041 15.25 24.066 15.365 24.141 15.39C24.141 15.39 24.141 15.475 24.211 15.5C24.211 15.5 24.176 15.575 24.231 15.62C24.231 15.62 24.221 15.77 24.271 15.795C24.271 15.795 24.406 15.79 24.451 15.75C24.451 15.75 24.476 15.655 24.401 15.56C24.401 15.56 24.416 15.47 24.341 15.42C24.341 15.42 24.366 15.295 24.271 15.25C24.271 15.25 24.256 15.15 24.201 15.1C24.201 15.1 24.091 15.255 24.041 15.25Z" fill="#964B36" stroke="black" stroke-width="0.025" stroke-miterlimit="4.8"/>
<path d="M24.1862 15.1C24.1862 15.1 23.8012 14.96 23.5862 15.16C23.5862 15.16 23.9162 15.21 23.9562 15.275C23.9962 15.34 24.2012 15.165 24.1862 15.1Z" fill="#00A651" stroke="black" stroke-width="0.025" stroke-miterlimit="4.8"/>
<path d="M24.0662 15.3399L23.9962 15.2899C23.9612 15.2599 23.6362 15.1749 23.5912 15.4899C23.5912 15.4899 23.4712 15.1749 23.6412 15.1399C23.8162 15.0899 23.9512 15.1899 24.0662 15.3399ZM23.8162 14.6999C23.8162 14.6999 23.9312 14.9599 23.9762 14.9699C24.0212 14.9849 24.0512 14.9399 24.0512 14.9399C24.0512 14.9399 23.8962 14.7099 23.8112 14.6999H23.8162ZM23.7262 14.3049C23.7262 14.3049 23.6262 13.9749 23.5062 14.0649C23.3862 14.1499 23.4162 14.3899 23.4162 14.3899C23.4162 14.3899 23.1812 14.1399 23.3162 13.9499C23.4562 13.7549 23.7262 13.9699 23.7262 14.3049Z" fill="#00A651" stroke="black" stroke-width="0.025" stroke-miterlimit="4.8"/>
<path d="M23.9961 14.9899C23.9961 14.9899 23.9961 15.0549 24.0411 15.0699C24.0811 15.0899 24.1661 15.1199 24.1661 15.0849C24.1661 15.0499 24.1011 14.8999 24.0761 14.9199C24.0511 14.9399 24.0061 14.9399 23.9961 14.9899Z" fill="#964B36" stroke="black" stroke-width="0.025" stroke-miterlimit="4.8"/>
<path d="M23.9212 14.5999C23.9212 14.5999 23.9062 14.3149 24.0962 14.2049C24.0962 14.2049 24.1312 14.2149 24.1512 14.1549C24.1512 14.1549 24.0012 14.5199 24.0462 14.7049L24.0412 14.7249" fill="#00A651"/>
<path d="M23.9212 14.5999C23.9212 14.5999 23.9062 14.3149 24.0962 14.2049C24.0962 14.2049 24.1312 14.2149 24.1512 14.1549C24.1512 14.1549 24.0012 14.5199 24.0462 14.7049L24.0412 14.7249" stroke="black" stroke-width="0.025" stroke-miterlimit="4.8"/>
<path d="M23.9561 14.2499C23.9561 14.2499 24.2961 13.5499 24.7061 13.7949C24.7061 13.7949 24.2761 13.8799 24.1211 14.1899L23.9661 14.4199L23.9561 14.2499Z" fill="#00A651" stroke="black" stroke-width="0.025" stroke-miterlimit="4.8"/>
<path d="M23.7762 14.5049C23.7762 14.5049 23.6762 14.0349 23.6112 13.9749C23.5512 13.9099 23.4462 13.8449 23.3162 13.9499C23.3162 13.9499 23.5362 13.7549 23.7662 13.9199C24.0012 14.0799 23.9512 14.3399 23.9512 14.3399L23.9262 14.6649L23.7712 14.5199" fill="#00A651"/>
<path d="M23.7762 14.5049C23.7762 14.5049 23.6762 14.0349 23.6112 13.9749C23.5512 13.9099 23.4462 13.8449 23.3162 13.9499C23.3162 13.9499 23.5362 13.7549 23.7662 13.9199C24.0012 14.0799 23.9512 14.3399 23.9512 14.3399L23.9262 14.6649L23.7712 14.5199" stroke="black" stroke-width="0.025" stroke-miterlimit="4.8"/>
<path d="M24.1412 15.065C24.1412 15.065 23.7262 14.28 23.4562 14.84C23.4562 14.84 23.4062 14.985 23.4612 15.04C23.4612 15.04 23.3112 14.925 23.3812 14.65C23.4512 14.375 23.9062 14.5 24.0412 14.725C24.1712 14.95 24.2062 15.065 24.1912 15.075C24.1712 15.09 24.1412 15.065 24.1412 15.065ZM25.3062 15.29C25.3062 15.29 25.6062 14.67 25.7812 14.95C25.7812 14.95 25.8312 15.09 25.7562 15.15C25.7562 15.15 25.6362 15 25.5312 15.18C25.4212 15.355 25.4662 15.34 25.4662 15.34C25.4662 15.34 25.3562 15.37 25.3062 15.29Z" fill="#00A651" stroke="black" stroke-width="0.025" stroke-miterlimit="4.8"/>
<path d="M25.751 15.15C25.751 15.15 25.916 15.235 25.861 15.41C25.861 15.41 26.081 14.99 25.781 14.95C25.781 14.95 25.836 15.085 25.756 15.15H25.751ZM25.776 14.72C25.776 14.72 26.171 14.835 26.181 15.005C26.181 15.005 26.251 14.675 26.026 14.575C26.026 14.575 25.756 14.625 25.776 14.725V14.72Z" fill="#00A651" stroke="black" stroke-width="0.025" stroke-miterlimit="4.8"/>
<path d="M25.9512 14.2C26.1212 13.87 26.3312 14.305 26.3312 14.305C26.3312 14.305 26.4062 13.96 26.1962 13.9C25.9812 13.835 25.8462 14.635 25.8462 14.635L25.5962 14.685C25.5962 14.685 25.6612 13.995 26.0362 13.935H26.0862" fill="#00A651"/>
<path d="M25.9512 14.2C26.1212 13.87 26.3312 14.305 26.3312 14.305C26.3312 14.305 26.4062 13.96 26.1962 13.9C25.9812 13.835 25.8462 14.635 25.8462 14.635L25.5962 14.685C25.5962 14.685 25.6612 13.995 26.0362 13.935H26.0862" stroke="black" stroke-width="0.025" stroke-miterlimit="4.8"/>
<path d="M25.6511 14.3999C25.6511 14.3999 25.4111 13.9099 25.2511 13.8599C25.0911 13.8099 25.3361 13.7349 25.4361 13.8299C25.5361 13.9249 25.7261 14.0449 25.7061 14.2949L25.6511 14.3999ZM25.4011 15.0699C25.4011 15.0699 25.4711 14.7399 25.6611 14.6399C25.8511 14.5399 26.0261 14.5749 26.0261 14.5749C26.0261 14.5749 25.8011 14.6249 25.7611 14.7399C25.7261 14.8499 25.6611 14.8599 25.6611 14.8599L25.4011 15.0699Z" fill="#00A651" stroke="black" stroke-width="0.025" stroke-miterlimit="4.8"/>
<path d="M25.3013 15.2899C25.3013 15.2899 25.2013 15.4899 25.2213 15.5199C25.2213 15.5199 25.1113 15.6849 25.1563 15.7699C25.1563 15.7699 25.2663 15.8549 25.3163 15.8199C25.3163 15.8199 25.4463 15.6349 25.4113 15.5349C25.4113 15.5349 25.5013 15.4149 25.4663 15.3399C25.4663 15.3399 25.3363 15.3449 25.3063 15.2899H25.3013Z" fill="#964B36" stroke="black" stroke-width="0.025" stroke-miterlimit="4.8"/>
<path d="M24.7512 14.9299C24.7612 14.9349 24.8262 14.9649 24.8662 14.9499L24.8962 14.9249L24.8712 14.9149C24.8562 14.9449 24.7862 14.9199 24.7662 14.9099L24.7562 14.9299H24.7512ZM24.7462 15.1299L24.7362 15.1549C24.7412 15.1549 24.8712 15.1799 24.9312 15.1249L24.9112 15.1049C24.8612 15.1499 24.7462 15.1249 24.7412 15.1249L24.7462 15.1299ZM24.7112 15.3499L24.6962 15.3699C24.6962 15.3699 24.8462 15.4749 24.9412 15.3599L24.9162 15.3449C24.8412 15.4399 24.7162 15.3549 24.7112 15.3449V15.3499ZM24.1362 15.3799L24.1412 15.3949C24.1462 15.3949 24.2712 15.3449 24.2812 15.2499H24.2662C24.2612 15.3299 24.1412 15.3799 24.1362 15.3799ZM24.2062 15.4949V15.5099C24.2162 15.5099 24.3312 15.4999 24.3512 15.4199H24.3362C24.3162 15.4849 24.2112 15.4949 24.2062 15.4949ZM24.2312 15.6149V15.6299C24.2362 15.6299 24.3662 15.6349 24.4112 15.5649L24.3962 15.5549C24.3562 15.6199 24.2312 15.6149 24.2312 15.6149ZM25.2162 15.5299C25.2162 15.5299 25.2712 15.5899 25.3362 15.5849C25.3524 15.5846 25.3684 15.5809 25.383 15.574C25.3976 15.5671 25.4107 15.5572 25.4212 15.5449L25.4012 15.5249C25.3812 15.5499 25.3612 15.5599 25.3362 15.5599C25.2862 15.5599 25.2362 15.5099 25.2362 15.5099L25.2162 15.5299Z" fill="#000001"/>
<path d="M29.1022 15.9898C29.0962 15.9938 29.0911 15.9989 29.0872 16.0048L29.1072 15.9898H29.1022ZM29.5672 15.8748C29.5622 15.8648 29.5572 15.8698 29.5522 15.8648L29.5322 15.8248H29.5172L29.4822 15.7548C29.4841 15.75 29.4841 15.7446 29.4822 15.7398C29.4823 15.7332 29.4823 15.7265 29.4822 15.7198C29.4822 15.7198 29.4722 15.7198 29.4672 15.7098V15.6298L29.4622 15.6048C29.4519 15.5883 29.4467 15.5692 29.4472 15.5498V15.4998C29.4522 15.4798 29.4422 15.4698 29.4422 15.4498L29.4472 15.4048V15.1348L29.4422 15.0848L29.4372 15.0648V14.9848V15.1148L29.4272 14.8998L29.2572 14.8198C29.2572 14.8198 29.2422 15.1298 29.2472 15.1698C29.2472 15.2148 29.2672 15.5048 29.2572 15.5398L29.2322 15.7548C29.2322 15.7548 29.1522 15.8148 29.1222 15.8748C29.0872 15.9398 29.0972 15.9598 29.0872 15.9598L29.1622 15.9498L29.1072 15.9898C29.1129 15.9875 29.1192 15.9867 29.1253 15.9876C29.1315 15.9885 29.1373 15.991 29.1422 15.9948L29.1522 16.0048L29.1622 15.9948C29.1772 15.9948 29.1872 16.0148 29.1972 16.0098L29.2172 15.9998L29.2272 15.9798C29.2322 15.9748 29.2422 15.9798 29.2472 15.9798H29.2822C29.2972 15.9798 29.3122 15.9548 29.3272 15.9448C29.3372 15.9348 29.3472 15.9298 29.3622 15.9298C29.3772 15.9298 29.3922 15.9448 29.4122 15.9448C29.4222 15.9448 29.4272 15.9448 29.4372 15.9348L29.4572 15.9048L29.4972 15.8998L29.5172 15.9048H29.5472L29.5622 15.9148L29.5722 15.8948L29.5672 15.8748Z" fill="#964B36"/>
<path d="M29.1072 15.9898L29.0872 16.0048C29.0911 15.9989 29.0962 15.9938 29.1022 15.9898H29.1072ZM29.1072 15.9898L29.1622 15.9498L29.0872 15.9598C29.0972 15.9598 29.0872 15.9398 29.1222 15.8748C29.1522 15.8148 29.2322 15.7548 29.2322 15.7548L29.2572 15.5398C29.2672 15.5048 29.2472 15.2148 29.2472 15.1698C29.2422 15.1298 29.2572 14.8198 29.2572 14.8198L29.4272 14.8998L29.4372 15.1148V14.9848V15.0648L29.4422 15.0848L29.4472 15.1348V15.4048L29.4422 15.4498C29.4422 15.4698 29.4522 15.4798 29.4472 15.4998V15.5498C29.4467 15.5692 29.4519 15.5883 29.4622 15.6048L29.4672 15.6298V15.7098C29.4722 15.7198 29.4822 15.7198 29.4822 15.7198C29.4823 15.7265 29.4823 15.7332 29.4822 15.7398C29.4841 15.7446 29.4841 15.75 29.4822 15.7548L29.5172 15.8248H29.5322L29.5522 15.8648C29.5572 15.8698 29.5622 15.8648 29.5672 15.8748L29.5722 15.8948L29.5622 15.9148L29.5472 15.9048H29.5172L29.4972 15.8998L29.4572 15.9048L29.4372 15.9348C29.4272 15.9448 29.4222 15.9448 29.4122 15.9448C29.3922 15.9448 29.3772 15.9298 29.3622 15.9298C29.3472 15.9298 29.3372 15.9348 29.3272 15.9448C29.3122 15.9548 29.2972 15.9798 29.2822 15.9798H29.2472C29.2422 15.9798 29.2322 15.9748 29.2272 15.9798L29.2172 15.9998L29.1972 16.0098C29.1872 16.0148 29.1772 15.9948 29.1622 15.9948L29.1522 16.0048L29.1422 15.9948C29.1373 15.991 29.1315 15.9885 29.1253 15.9876C29.1192 15.9867 29.1129 15.9875 29.1072 15.9898Z" stroke="black" stroke-width="0.015" stroke-miterlimit="4.8"/>
<path d="M29.2272 15.9848H29.2572V15.9948C29.2587 15.9956 29.2605 15.9961 29.2622 15.9961C29.264 15.9961 29.2657 15.9956 29.2672 15.9948L29.2822 16.0048H29.2972L29.3172 16.0098C29.3272 16.0148 29.3372 16.0098 29.3472 16.0048C29.3572 15.9948 29.3622 16.0048 29.3772 16.0148C29.3822 16.0198 29.3822 16.0198 29.3872 16.0148L29.3922 16.0098L29.4072 16.0048L29.4222 15.9998L29.4422 15.9898L29.4622 15.9998C29.4655 15.9993 29.4689 15.9993 29.4722 15.9998L29.5072 15.9748C29.5222 15.9648 29.5322 15.9748 29.5422 15.9748H29.5572C29.5622 15.9698 29.5672 15.9748 29.5772 15.9748C29.5772 15.9698 29.5772 15.9648 29.5872 15.9598L29.6222 15.9798C29.6272 15.9848 29.6572 15.9898 29.6522 15.9698C29.6522 15.9498 29.6322 15.9648 29.6272 15.9498V15.9198C29.6249 15.9115 29.6195 15.9044 29.6122 15.8998C29.6022 15.8998 29.6022 15.9048 29.5922 15.8998L29.5822 15.8698L29.5672 15.8798C29.5572 15.8798 29.5572 15.8748 29.5522 15.8648C29.5372 15.8498 29.5322 15.8748 29.5172 15.8698C29.5072 15.8698 29.4972 15.8448 29.4922 15.8348C29.4872 15.8298 29.4772 15.8098 29.4672 15.8148C29.4572 15.8198 29.4672 15.8398 29.4672 15.8498H29.4422C29.4322 15.8498 29.4322 15.8498 29.4272 15.8598C29.4172 15.8798 29.4122 15.8948 29.3922 15.8898C29.3872 15.8898 29.3772 15.8848 29.3722 15.8898L29.3472 15.8998C29.3406 15.9011 29.3338 15.9011 29.3272 15.8998L29.3072 15.8798C29.3072 15.8784 29.3067 15.8772 29.3058 15.8762C29.3048 15.8753 29.3035 15.8748 29.3022 15.8748C29.3009 15.8748 29.2996 15.8753 29.2987 15.8762C29.2977 15.8772 29.2972 15.8784 29.2972 15.8798C29.2956 15.8764 29.2939 15.8731 29.2922 15.8698C29.2822 15.8698 29.2822 15.8698 29.2772 15.8848L29.2722 15.9098L29.2572 15.9298L29.2372 15.9348C29.2272 15.9348 29.2172 15.9498 29.2172 15.9348C29.2072 15.9148 29.2322 15.8798 29.2072 15.8848C29.2022 15.8848 29.1972 15.8848 29.1922 15.8948V15.9298C29.1872 15.9448 29.1572 15.9698 29.1622 15.9798C29.1622 15.9948 29.1822 15.9798 29.1822 15.9798L29.1922 15.9998C29.2022 16.0148 29.2272 15.9798 29.2272 15.9998M29.1222 15.8648V15.8548L29.1022 15.8498C29.0922 15.8498 29.0822 15.8648 29.0772 15.8698C29.0672 15.8898 29.0672 15.9198 29.0472 15.9198H29.0222V15.9698C29.0222 15.9698 29.0122 15.9698 29.0122 15.9798C29.0072 15.9998 29.0222 15.9898 29.0322 15.9898H29.0822L29.1072 15.9848C29.1172 15.9848 29.1272 15.9848 29.1322 15.9748C29.1362 15.9685 29.1396 15.9618 29.1422 15.9548V15.9348C29.1422 15.9248 29.1572 15.9298 29.1572 15.9148C29.1622 15.8798 29.1272 15.9048 29.1322 15.8698" fill="#964B36"/>
<path d="M29.2272 15.9848H29.2572V15.9948C29.2587 15.9956 29.2605 15.9961 29.2622 15.9961C29.264 15.9961 29.2657 15.9956 29.2672 15.9948L29.2822 16.0048H29.2972L29.3172 16.0098C29.3272 16.0148 29.3372 16.0098 29.3472 16.0048C29.3572 15.9948 29.3622 16.0048 29.3772 16.0148C29.3822 16.0198 29.3822 16.0198 29.3872 16.0148L29.3922 16.0098L29.4072 16.0048L29.4222 15.9998L29.4422 15.9898L29.4622 15.9998C29.4655 15.9993 29.4689 15.9993 29.4722 15.9998L29.5072 15.9748C29.5222 15.9648 29.5322 15.9748 29.5422 15.9748H29.5572C29.5622 15.9698 29.5672 15.9748 29.5772 15.9748C29.5772 15.9698 29.5772 15.9648 29.5872 15.9598L29.6222 15.9798C29.6272 15.9848 29.6572 15.9898 29.6522 15.9698C29.6522 15.9498 29.6322 15.9648 29.6272 15.9498V15.9198C29.6249 15.9115 29.6195 15.9044 29.6122 15.8998C29.6022 15.8998 29.6022 15.9048 29.5922 15.8998L29.5822 15.8698L29.5672 15.8798C29.5572 15.8798 29.5572 15.8748 29.5522 15.8648C29.5372 15.8498 29.5322 15.8748 29.5172 15.8698C29.5072 15.8698 29.4972 15.8448 29.4922 15.8348C29.4872 15.8298 29.4772 15.8098 29.4672 15.8148C29.4572 15.8198 29.4672 15.8398 29.4672 15.8498H29.4422C29.4322 15.8498 29.4322 15.8498 29.4272 15.8598C29.4172 15.8798 29.4122 15.8948 29.3922 15.8898C29.3872 15.8898 29.3772 15.8848 29.3722 15.8898L29.3472 15.8998C29.3406 15.9011 29.3338 15.9011 29.3272 15.8998L29.3072 15.8798C29.3072 15.8784 29.3067 15.8772 29.3058 15.8762C29.3048 15.8753 29.3035 15.8748 29.3022 15.8748C29.3009 15.8748 29.2996 15.8753 29.2987 15.8762C29.2977 15.8772 29.2972 15.8784 29.2972 15.8798C29.2956 15.8764 29.2939 15.8731 29.2922 15.8698C29.2822 15.8698 29.2822 15.8698 29.2772 15.8848L29.2722 15.9098L29.2572 15.9298L29.2372 15.9348C29.2272 15.9348 29.2172 15.9498 29.2172 15.9348C29.2072 15.9148 29.2322 15.8798 29.2072 15.8848C29.2022 15.8848 29.1972 15.8848 29.1922 15.8948V15.9298C29.1872 15.9448 29.1572 15.9698 29.1622 15.9798C29.1622 15.9948 29.1822 15.9798 29.1822 15.9798L29.1922 15.9998C29.2022 16.0148 29.2272 15.9798 29.2272 15.9998M29.1222 15.8648V15.8548L29.1022 15.8498C29.0922 15.8498 29.0822 15.8648 29.0772 15.8698C29.0672 15.8898 29.0672 15.9198 29.0472 15.9198H29.0222V15.9698C29.0222 15.9698 29.0122 15.9698 29.0122 15.9798C29.0072 15.9998 29.0222 15.9898 29.0322 15.9898H29.0822L29.1072 15.9848C29.1172 15.9848 29.1272 15.9848 29.1322 15.9748C29.1362 15.9685 29.1396 15.9618 29.1422 15.9548V15.9348C29.1422 15.9248 29.1572 15.9298 29.1572 15.9148C29.1622 15.8798 29.1272 15.9048 29.1322 15.8698" stroke="black" stroke-width="0.015" stroke-miterlimit="4.8"/>
<path d="M29.5442 14.8948C29.5442 14.9398 29.5142 14.9748 29.4742 14.9748C29.4392 14.9748 29.4042 14.9398 29.4042 14.8948C29.4042 14.8498 29.4392 14.8148 29.4742 14.8148C29.5142 14.8148 29.5442 14.8498 29.5442 14.8948ZM29.3192 14.7948C29.3192 14.8398 29.2892 14.8748 29.2492 14.8748C29.2092 14.8748 29.1792 14.8398 29.1792 14.7948C29.1792 14.7448 29.2142 14.7148 29.2492 14.7148C29.2842 14.7148 29.3192 14.7498 29.3192 14.7948Z" fill="black" stroke="black" stroke-width="0.025" stroke-miterlimit="4.8"/>
<path d="M29.4391 14.8249C29.4391 14.8749 29.4091 14.9049 29.3691 14.9049C29.3291 14.9049 29.2991 14.8699 29.2991 14.8249C29.2991 14.7799 29.3291 14.7449 29.3691 14.7449C29.4091 14.7449 29.4391 14.7799 29.4391 14.8249Z" fill="black" stroke="black" stroke-width="0.025" stroke-miterlimit="4.8"/>
<path d="M29.3243 14.8998C29.3243 14.9448 29.2943 14.9798 29.2543 14.9798C29.2143 14.9798 29.1843 14.9448 29.1843 14.8998C29.1843 14.8548 29.2143 14.8198 29.2543 14.8198C29.2943 14.8198 29.3243 14.8548 29.3243 14.8998Z" fill="black" stroke="black" stroke-width="0.025" stroke-miterlimit="4.8"/>
<path d="M29.4293 14.9649C29.4293 15.0049 29.3993 15.0449 29.3593 15.0449C29.3243 15.0449 29.2893 15.0099 29.2893 14.9649C29.2893 14.9149 29.3243 14.8799 29.3593 14.8799C29.3993 14.8799 29.4293 14.9149 29.4293 14.9599V14.9649Z" fill="black" stroke="black" stroke-width="0.025" stroke-miterlimit="4.8"/>
<path d="M29.4611 14.075C29.4611 14.075 30.1561 13.105 30.9011 14.11C30.9011 14.11 30.9061 14.21 30.8361 14.32L30.8211 14.235L30.7711 14.25L30.7611 14.2L30.6811 14.195L30.7061 14.085L30.6211 14.155L30.6311 14.08L30.5311 14.18L30.5461 13.965L30.4361 14.15L30.4511 14.025L30.4111 14.08L30.3911 14.005L30.3561 14.08L30.3061 14.045V14.095L30.2161 14.02L30.1861 14.12L30.1411 14.01L30.1311 14.085L30.0861 14L30.0811 14.095L29.9361 14.03L29.9661 14.12L29.9011 14.07L29.9111 14.12L29.8161 14.1L29.8261 14.155L29.7261 14.135L29.7411 14.185L29.6061 14.17L29.6561 14.22L29.6411 14.25C29.6411 14.25 30.3911 14 30.4411 14.94L30.3061 15.005L30.3461 14.93L30.3061 14.905L30.1911 14.82L30.2261 14.7L30.1861 14.715L30.1811 14.645L30.1611 14.655L30.1161 14.59L30.1061 14.615L30.0761 14.53L30.0411 14.59L30.0261 14.45L29.9761 14.54L29.9661 14.49L29.9511 14.52L29.8861 14.445L29.8661 14.495L29.8411 14.455L29.8261 14.505L29.7561 14.435V14.485L29.7061 14.45L29.6911 14.475L29.5861 14.42L29.5811 14.47L29.5211 14.42L29.5061 14.47C29.5061 14.47 30.1861 14.86 29.9761 15.49L29.9361 15.57L29.9261 15.36L29.8611 15.47L29.9061 15.225L29.8611 15.275L29.8561 15.175L29.8011 15.275L29.7811 15.165L29.7561 15.195L29.7161 15.035L29.6861 15.1L29.6361 14.92L29.5961 14.995L29.5711 14.84L29.5461 14.935L29.4711 14.795L29.4611 14.85L29.4161 14.74L29.3911 14.775C29.3911 14.775 29.2661 14.77 29.2261 14.74C29.1911 14.705 29.0861 14.925 29.0861 14.925L29.0961 14.795L29.0511 14.885V14.795L28.9711 15.06L28.9511 14.87L28.9111 15.035L28.8911 14.985L28.8761 15.05L28.8511 15.025L28.8311 15.1L28.7911 15.07V15.17L28.7511 15.12L28.7211 15.27L28.7011 15.21V15.275L28.6711 15.24L28.6411 15.39L28.5911 15.325V15.435L28.6061 15.515L28.5561 15.49L28.5761 15.62C28.5761 15.62 28.3811 15.26 28.6161 14.91C28.8461 14.56 29.1611 14.46 29.1611 14.46L29.1261 14.43V14.4L28.9361 14.495V14.44L28.8861 14.48L28.8761 14.42L28.8461 14.475L28.8411 14.45L28.7911 14.52L28.7711 14.42L28.7411 14.54L28.7111 14.455L28.6461 14.63V14.5L28.5961 14.64L28.5761 14.49L28.5411 14.66V14.51L28.4811 14.66L28.4461 14.51L28.4211 14.66L28.3811 14.545L28.3461 14.715L28.2861 14.565L28.2561 14.79L28.2211 14.7L28.2111 14.865L28.1711 14.765L28.2111 14.975L28.1611 14.895L28.1761 15.025L28.0961 14.88V15.05L28.0561 14.995L28.0361 15.06C28.0361 15.06 28.0211 14.41 28.4661 14.28C28.9111 14.155 29.1961 14.32 29.1961 14.32L29.0261 14.18L29.0461 14.135H28.9861L29.0111 14.085L28.8761 14.09L28.9161 14.04L28.8161 14.055V14.025L28.7511 14.075L28.7761 14.015L28.6911 14.075L28.6861 13.99L28.6361 14.06L28.6161 13.985L28.4161 14.185L28.4661 13.98L28.4311 14.025L28.4261 13.975L28.3711 14.065L28.3561 14.005L28.3311 14.08L28.3111 13.99L28.2711 14.08L28.2211 14L28.2061 14.105L28.1761 14.05L28.1361 14.13L28.0861 14.08V14.13L27.9861 14.085L28.0061 14.16L27.9311 14.1L27.9111 14.2L27.8711 14.15L27.8361 14.275L27.8061 14.155L27.7761 14.25C27.7761 14.25 28.1661 13.24 29.1561 13.9C29.1561 13.9 29.2661 14.005 29.2911 14.08C29.3161 14.155 29.2961 14.09 29.2961 14.09L29.2761 13.395L29.3161 13.695L29.3411 13.595L29.3361 13.745L29.4361 13.53C29.4361 13.53 29.3161 13.89 29.3611 14.025C29.3611 14.025 29.4061 13.605 29.5561 13.555L29.4161 13.855L29.4611 13.85L29.4311 13.91H29.4661L29.4211 14.01L29.3961 14.06L29.4211 14.11L29.4611 14.075Z" fill="#00A651" stroke="black" stroke-width="0.025" stroke-miterlimit="4.8"/>
<path d="M29.3563 14.4799L29.3763 14.4999C29.3763 14.4999 29.4413 14.4299 29.5463 14.5199L29.5613 14.4999C29.4363 14.3949 29.3613 14.4799 29.3613 14.4799H29.3563ZM29.3263 14.1399V14.1649L29.3713 14.1449L29.3363 14.2049L29.4113 14.1799L29.3213 14.2949L29.3413 14.3099L29.4863 14.1249L29.3963 14.1549L29.4363 14.0899L29.3563 14.1199L29.3713 14.0249H29.3463L29.3263 14.1399Z" fill="black"/>
<path d="M29.1961 14.1499L29.2261 14.2149L29.1761 14.1949L29.3211 14.4549L29.3411 14.4299L29.3111 14.5049L29.3361 14.5149L29.3961 14.3549L29.3761 14.3399L29.3261 14.4049L29.2361 14.2499L29.2761 14.2649L29.2361 14.1799L29.2911 14.2099V14.1149H29.2661V14.1649L29.1761 14.1099L29.1961 14.1499ZM29.1011 14.4699L29.1111 14.4949C29.1511 14.4799 29.1861 14.4749 29.2111 14.4849C29.2361 14.4999 29.2461 14.5299 29.2461 14.5349L29.2711 14.5249C29.2711 14.5249 29.2611 14.4799 29.2211 14.4649C29.1911 14.4499 29.1511 14.4499 29.1011 14.4699ZM29.2161 14.7399L29.1911 14.5999H29.2211L29.2411 14.7349L29.2161 14.7399ZM29.4061 14.7199L29.3711 14.6099L29.3961 14.6049L29.4311 14.7049L29.4061 14.7199ZM29.4761 14.7949L29.4511 14.6899L29.4761 14.6849L29.5061 14.7899L29.4761 14.7949Z" fill="black"/>
<path d="M24.1311 18.0098C24.1311 18.0098 24.0111 17.9598 23.9561 17.9998C23.9061 18.0348 23.9111 18.0948 23.8661 18.0898C23.8661 18.0898 24.0461 18.1298 24.0811 18.0848L24.1311 18.0248M24.1511 18.0598C24.1511 18.0598 24.0711 18.1598 24.1011 18.2248C24.1261 18.2848 24.1861 18.2898 24.1711 18.3348C24.1711 18.3348 24.2461 18.1698 24.2111 18.1198C24.1761 18.0698 24.1611 18.0648 24.1611 18.0648M24.0211 17.7748C24.0211 17.7748 23.8961 17.8148 23.8811 17.8748C23.8711 17.9448 23.9111 17.9798 23.8761 18.0098C23.8761 18.0098 24.0361 17.9198 24.0311 17.8598V17.7848M24.0911 17.8198C24.0911 17.8198 24.1511 17.7048 24.1161 17.6498C24.0761 17.5898 24.0161 17.5998 24.0261 17.5498C24.0261 17.5498 23.9761 17.7248 24.0261 17.7698L24.0811 17.8198M23.9711 17.7748C23.9711 17.7748 23.9711 17.6448 23.9211 17.6148C23.8611 17.5798 23.8111 17.6098 23.7961 17.5648C23.7961 17.5648 23.8311 17.7448 23.8861 17.7648L23.9611 17.7798M24.1811 17.9898C24.1811 17.9898 24.3161 17.9398 24.3311 18.0898C24.3411 18.2398 24.3211 18.1898 24.3211 18.1898C24.3211 18.1898 24.2511 18.0298 24.1711 18.0048L24.1811 17.9898Z" fill="#00A651"/>
<path d="M24.1311 18.0098C24.1311 18.0098 24.0111 17.9598 23.9561 17.9998C23.9061 18.0348 23.9111 18.0948 23.8661 18.0898C23.8661 18.0898 24.0461 18.1298 24.0811 18.0848L24.1311 18.0248M24.1511 18.0598C24.1511 18.0598 24.0711 18.1598 24.1011 18.2248C24.1261 18.2848 24.1861 18.2898 24.1711 18.3348C24.1711 18.3348 24.2461 18.1698 24.2111 18.1198C24.1761 18.0698 24.1611 18.0648 24.1611 18.0648M24.0211 17.7748C24.0211 17.7748 23.8961 17.8148 23.8811 17.8748C23.8711 17.9448 23.9111 17.9798 23.8761 18.0098C23.8761 18.0098 24.0361 17.9198 24.0311 17.8598V17.7848M24.0911 17.8198C24.0911 17.8198 24.1511 17.7048 24.1161 17.6498C24.0761 17.5898 24.0161 17.5998 24.0261 17.5498C24.0261 17.5498 23.9761 17.7248 24.0261 17.7698L24.0811 17.8198M23.9711 17.7748C23.9711 17.7748 23.9711 17.6448 23.9211 17.6148C23.8611 17.5798 23.8111 17.6098 23.7961 17.5648C23.7961 17.5648 23.8311 17.7448 23.8861 17.7648L23.9611 17.7798M24.1811 17.9898C24.1811 17.9898 24.3161 17.9398 24.3311 18.0898C24.3411 18.2398 24.3211 18.1898 24.3211 18.1898C24.3211 18.1898 24.2511 18.0298 24.1711 18.0048L24.1811 17.9898Z" stroke="black" stroke-width="0.025" stroke-miterlimit="4.8"/>
<path d="M24.1512 18.0648L24.1612 18.1748H24.1812L24.1662 18.0648L24.2162 17.8198H24.1962L24.1462 18.0648H24.1512Z" fill="black"/>
<path d="M24.0262 18.03L24.0212 18.045C24.0862 18.07 24.1712 17.995 24.1762 17.995L24.1662 17.98C24.1662 17.98 24.0812 18.045 24.0262 18.03ZM24.1962 17.885L23.8962 17.735L23.9062 17.71L24.2062 17.86L24.1962 17.885Z" fill="black"/>
<path d="M23.9761 17.8499L23.9561 17.8299L24.0161 17.7699L24.0361 17.7899L23.9761 17.8499ZM24.0811 17.8199L24.0161 17.6799L24.0411 17.6699L24.1061 17.8099L24.0811 17.8199ZM24.1711 17.9899V18.0199C24.2561 18.0149 24.2711 18.0699 24.2711 18.0699L24.3011 18.0599C24.3011 18.0449 24.2661 17.9849 24.1711 17.9899Z" fill="black"/>
<path d="M25.5611 18.0499C25.6611 17.9999 25.6811 17.7999 25.6811 17.7999C25.6561 17.8699 25.4711 17.9449 25.4711 17.9449C25.6061 17.8599 25.7711 17.4749 25.7711 17.4749C25.7311 17.6099 25.3711 17.7249 25.1411 17.8549C24.9111 17.9849 25.0311 18.3549 25.0311 18.3549C24.9661 18.3099 24.8411 18.1149 24.8161 17.9399C24.7911 17.7649 24.7261 17.6949 24.5661 17.6749C24.4111 17.6549 24.3161 17.8349 24.3161 17.8349L24.0811 17.9549L24.3211 17.9649C24.3211 17.9649 24.4911 18.0199 24.4911 18.1549C24.4911 18.2849 24.3411 18.8199 24.5911 19.1199C24.7561 19.3249 25.3911 19.4449 25.3911 19.4449" fill="white"/>
<path d="M25.5611 18.0499C25.6611 17.9999 25.6811 17.7999 25.6811 17.7999C25.6561 17.8699 25.4711 17.9449 25.4711 17.9449C25.6061 17.8599 25.7711 17.4749 25.7711 17.4749C25.7311 17.6099 25.3711 17.7249 25.1411 17.8549C24.9111 17.9849 25.0311 18.3549 25.0311 18.3549C24.9661 18.3099 24.8411 18.1149 24.8161 17.9399C24.7911 17.7649 24.7261 17.6949 24.5661 17.6749C24.4111 17.6549 24.3161 17.8349 24.3161 17.8349L24.0811 17.9549L24.3211 17.9649C24.3211 17.9649 24.4911 18.0199 24.4911 18.1549C24.4911 18.2849 24.3411 18.8199 24.5911 19.1199C24.7561 19.3249 25.3911 19.4449 25.3911 19.4449" stroke="black" stroke-width="0.035" stroke-miterlimit="4.8"/>
<path d="M25.0962 18.4649C25.0962 18.4649 25.1462 18.2249 25.3012 18.2349C25.4562 18.2449 25.5012 18.0549 25.5962 18.0299C25.6912 17.9999 26.1712 17.8699 26.2212 17.6399C26.2212 17.6399 26.1762 18.0199 25.7362 18.2099C25.7362 18.2099 26.0912 18.0949 26.1362 18.0149C26.1362 18.0149 25.9762 18.3549 25.5912 18.4099C25.5912 18.4099 25.9512 18.3799 26.0012 18.2849C26.0012 18.2849 25.8412 18.4949 25.5762 18.5249C25.5762 18.5249 25.8262 18.6249 25.8862 18.5399C25.8862 18.5399 25.7512 18.6999 25.5862 18.7099L25.6362 18.7199C25.6362 18.7199 25.4762 18.9099 25.3012 18.7849C25.1262 18.6599 25.1212 18.8149 25.1212 18.8149" fill="white"/>
<path d="M25.0962 18.4649C25.0962 18.4649 25.1462 18.2249 25.3012 18.2349C25.4562 18.2449 25.5012 18.0549 25.5962 18.0299C25.6912 17.9999 26.1712 17.8699 26.2212 17.6399C26.2212 17.6399 26.1762 18.0199 25.7362 18.2099C25.7362 18.2099 26.0912 18.0949 26.1362 18.0149C26.1362 18.0149 25.9762 18.3549 25.5912 18.4099C25.5912 18.4099 25.9512 18.3799 26.0012 18.2849C26.0012 18.2849 25.8412 18.4949 25.5762 18.5249C25.5762 18.5249 25.8262 18.6249 25.8862 18.5399C25.8862 18.5399 25.7512 18.6999 25.5862 18.7099L25.6362 18.7199C25.6362 18.7199 25.4762 18.9099 25.3012 18.7849C25.1262 18.6599 25.1212 18.8149 25.1212 18.8149" stroke="black" stroke-width="0.035" stroke-miterlimit="4.8"/>
<path d="M25.4512 18.825C25.4512 18.825 25.6562 19.165 25.6762 19.345C25.6762 19.345 26.0662 19.77 26.2112 19.795C26.2112 19.795 26.1412 19.825 26.0112 19.72C26.0112 19.72 26.1212 19.83 26.1412 19.835C26.1612 19.835 26.0562 19.825 26.0412 19.795C26.0601 19.8238 26.0837 19.8492 26.1112 19.87L26.0862 19.86C26.0862 19.86 26.0362 19.855 26.0062 19.835C25.9812 19.815 26.0012 19.885 26.0012 19.885C26.0012 19.885 25.9412 19.87 25.9212 19.85C25.9012 19.83 25.9262 19.895 25.9262 19.895L25.8762 19.88L25.8362 19.905C25.8362 19.905 25.8362 19.93 25.8112 19.905C25.7862 19.89 25.7412 19.905 25.7412 19.905C25.7412 19.905 25.7112 19.935 25.6912 19.915C25.6762 19.895 25.6162 19.995 25.6162 19.995L25.3662 19.38" fill="white"/>
<path d="M25.4512 18.825C25.4512 18.825 25.6562 19.165 25.6762 19.345C25.6762 19.345 26.0662 19.77 26.2112 19.795C26.2112 19.795 26.1412 19.825 26.0112 19.72C26.0112 19.72 26.1212 19.83 26.1412 19.835C26.1612 19.835 26.0562 19.825 26.0412 19.795C26.0601 19.8238 26.0837 19.8492 26.1112 19.87L26.0862 19.86C26.0862 19.86 26.0362 19.855 26.0062 19.835C25.9812 19.815 26.0012 19.885 26.0012 19.885C26.0012 19.885 25.9412 19.87 25.9212 19.85C25.9012 19.83 25.9262 19.895 25.9262 19.895L25.8762 19.88L25.8362 19.905C25.8362 19.905 25.8362 19.93 25.8112 19.905C25.7862 19.89 25.7412 19.905 25.7412 19.905C25.7412 19.905 25.7112 19.935 25.6912 19.915C25.6762 19.895 25.6162 19.995 25.6162 19.995L25.3662 19.38" stroke="black" stroke-width="0.035" stroke-miterlimit="4.8"/>
<path d="M25.696 19.9349L25.376 19.3249L25.406 19.3049L25.726 19.9199L25.696 19.9349ZM25.976 19.8949L25.426 19.2799L25.456 19.2549L26.006 19.8699L25.976 19.8949ZM26.101 19.8449L25.476 19.2499L25.501 19.2249L26.126 19.8099L26.101 19.8449Z" fill="black"/>
<path d="M24.5284 17.869C24.5284 17.869 24.4885 17.7959 24.4519 17.8258C24.4187 17.8524 24.3987 17.859 24.3921 17.8557C24.3921 17.8557 24.4253 17.8557 24.4486 17.8391C24.4686 17.8191 24.5018 17.8291 24.5284 17.8723V17.869ZM24.309 17.8358L24.3323 17.8823L24.3057 17.9588L24.3256 17.9654L24.3489 17.8823L24.3256 17.8291L24.309 17.8358Z" fill="black"/>
<path d="M24.5219 17.859C24.5219 17.859 24.4886 17.8923 24.4487 17.8856L24.4055 17.8756H24.4654C24.4886 17.8756 24.5185 17.8657 24.5219 17.859Z" fill="black"/>
<path d="M24.5118 17.8657C24.5118 17.8657 24.4719 17.8258 24.4453 17.8391C24.4453 17.8391 24.4919 17.8225 24.5184 17.8624L24.5118 17.8657Z" fill="black"/>
<path d="M24.5052 17.8591C24.5052 17.8591 24.462 17.889 24.4154 17.8591L24.4121 17.8524H24.4188C24.4188 17.8524 24.4753 17.8757 24.5052 17.8591Z" fill="black"/>
<path d="M24.4686 17.8657C24.476 17.8657 24.4819 17.8598 24.4819 17.8524C24.4819 17.8451 24.476 17.8391 24.4686 17.8391C24.4613 17.8391 24.4553 17.8451 24.4553 17.8524C24.4553 17.8598 24.4613 17.8657 24.4686 17.8657Z" fill="black"/>
<path d="M24.5012 18.98C24.5012 18.98 24.4662 19.04 24.4862 19.08C24.5012 19.115 24.5862 19.13 24.5912 19.18C24.6012 19.23 24.6312 19.23 24.6662 19.23L24.7112 19.215C24.7112 19.215 24.5562 19.135 24.5112 19L24.5012 18.98Z" fill="black"/>
<path d="M29.4745 17.7398C29.4745 17.7398 29.7545 17.3698 30.0045 17.4648C30.2545 17.5648 30.4095 17.6148 30.4095 17.6148C30.4095 17.6148 30.4145 17.8598 30.2845 17.8598C30.1545 17.8598 30.0245 17.6098 29.9045 17.6848C29.8138 17.7358 29.7366 17.8078 29.6795 17.8948C29.6745 17.9298 29.3645 17.9348 29.4745 17.7398Z" fill="#964B36" stroke="black" stroke-width="0.015" stroke-miterlimit="4.8"/>
<path d="M28.4147 19.5199C28.4147 19.5199 28.3347 19.5999 28.3697 19.6199C28.4047 19.6399 28.4747 19.6199 28.4747 19.5899C28.4747 19.5599 28.4247 19.5099 28.4147 19.5199Z" fill="#964B36" stroke="black" stroke-width="0.025" stroke-miterlimit="4.8"/>
<path d="M28.3545 19.5997C28.3545 19.5997 28.2045 19.5147 28.0945 19.7097C27.9795 19.8997 27.8895 20.2147 27.8245 20.2597C27.7595 20.2997 28.4645 19.9497 28.4745 19.7997C28.4745 19.7997 28.5195 19.6097 28.4445 19.6147C28.3695 19.6147 28.3645 19.6247 28.3495 19.5947L28.3545 19.5997Z" fill="#964B36" stroke="black" stroke-width="0.025" stroke-miterlimit="4.8"/>
<path d="M28.3695 19.6199C28.3695 19.6199 28.2195 19.6549 28.1895 19.8649C28.1595 20.0749 27.9545 20.1799 27.9395 20.1899M30.4095 17.6099C30.4095 17.6099 30.1895 17.6899 30.2245 17.8449L30.4095 17.6099Z" fill="#964B36"/>
<path d="M28.3695 19.6199C28.3695 19.6199 28.2195 19.6549 28.1895 19.8649C28.1595 20.0749 27.9545 20.1799 27.9395 20.1899M30.4095 17.6099C30.4095 17.6099 30.1895 17.6899 30.2245 17.8449" stroke="black" stroke-width="0.015" stroke-miterlimit="4.8"/>
<path d="M28.686 18.065C28.686 18.065 28.696 17.535 29.131 17.555C29.211 17.565 29.171 17.66 29.171 17.66C29.171 17.66 29.271 17.595 29.311 17.7C29.311 17.7 29.446 17.64 29.461 17.775C29.461 17.775 29.611 17.755 29.591 17.875C29.591 17.875 29.691 17.85 29.691 17.935C29.691 17.935 29.806 17.89 29.791 18.01C29.791 18.01 29.921 17.925 29.906 18.08C29.906 18.08 30.036 17.985 30.081 18.14C30.131 18.3 29.951 18.63 29.776 18.715" fill="#FFF200"/>
<path d="M28.686 18.065C28.686 18.065 28.696 17.535 29.131 17.555C29.211 17.565 29.171 17.66 29.171 17.66C29.171 17.66 29.271 17.595 29.311 17.7C29.311 17.7 29.446 17.64 29.461 17.775C29.461 17.775 29.611 17.755 29.591 17.875C29.591 17.875 29.691 17.85 29.691 17.935C29.691 17.935 29.806 17.89 29.791 18.01C29.791 18.01 29.921 17.925 29.906 18.08C29.906 18.08 30.036 17.985 30.081 18.14C30.131 18.3 29.951 18.63 29.776 18.715" stroke="black" stroke-width="0.015" stroke-miterlimit="4.8"/>
<path d="M29.8962 18.1C29.8962 18.1 29.9512 18.51 29.7212 18.665L29.7262 18.675C29.9712 18.525 29.9112 18.1 29.9112 18.095H29.8962V18.1ZM29.6112 18.55L29.6212 18.56C29.7712 18.415 29.8062 18.03 29.8062 18.01H29.7912C29.7912 18.01 29.7562 18.41 29.6112 18.55ZM29.4762 18.455H29.4912C29.5217 18.2706 29.5916 18.095 29.6962 17.94L29.6862 17.935C29.6862 17.935 29.4962 18.21 29.4762 18.455ZM29.3662 18.385H29.3812C29.4062 18.1 29.6012 17.885 29.6012 17.88L29.5912 17.87C29.5912 17.87 29.3912 18.095 29.3662 18.385ZM29.2162 18.285H29.2312C29.2462 17.95 29.4712 17.785 29.4712 17.785L29.4612 17.77C29.4612 17.77 29.2312 17.94 29.2112 18.29L29.2162 18.285ZM29.0762 18.205H29.0912C29.0812 17.895 29.3162 17.705 29.3212 17.705L29.3112 17.695C29.3112 17.695 29.0612 17.885 29.0762 18.205ZM28.8262 18.09H28.8412C28.8528 17.9952 28.8909 17.9056 28.951 17.8313C29.0111 17.757 29.0908 17.7012 29.1812 17.67V17.655C29.0869 17.6865 29.0035 17.7441 28.9406 17.8211C28.8778 17.8981 28.8381 17.9914 28.8262 18.09Z" fill="black"/>
<path d="M28.4311 18.7098C28.4311 18.7098 28.3561 18.2148 28.6511 18.0598C28.6511 18.0598 28.7061 18.0498 28.7361 18.1198C28.7361 18.1198 28.8911 18.0548 28.8961 18.1848C28.8961 18.1848 28.9761 18.1248 28.9961 18.2098C28.9961 18.2098 29.1611 18.1748 29.1311 18.2998C29.1311 18.2998 29.2711 18.2598 29.2561 18.3798C29.2561 18.3798 29.3961 18.3298 29.3761 18.4298C29.3761 18.4298 29.5261 18.3998 29.4861 18.5198C29.4861 18.5198 29.6711 18.4998 29.6161 18.6248C29.6161 18.6248 29.7511 18.5898 29.7161 18.6948C29.7161 18.6948 29.8961 18.7298 29.8161 18.8448C29.685 19.0011 29.5165 19.1215 29.3261 19.1948" fill="#00A651"/>
<path d="M28.4311 18.7098C28.4311 18.7098 28.3561 18.2148 28.6511 18.0598C28.6511 18.0598 28.7061 18.0498 28.7361 18.1198C28.7361 18.1198 28.8911 18.0548 28.8961 18.1848C28.8961 18.1848 28.9761 18.1248 28.9961 18.2098C28.9961 18.2098 29.1611 18.1748 29.1311 18.2998C29.1311 18.2998 29.2711 18.2598 29.2561 18.3798C29.2561 18.3798 29.3961 18.3298 29.3761 18.4298C29.3761 18.4298 29.5261 18.3998 29.4861 18.5198C29.4861 18.5198 29.6711 18.4998 29.6161 18.6248C29.6161 18.6248 29.7511 18.5898 29.7161 18.6948C29.7161 18.6948 29.8961 18.7298 29.8161 18.8448C29.685 19.0011 29.5165 19.1215 29.3261 19.1948" stroke="black" stroke-width="0.015" stroke-miterlimit="4.8"/>
<path d="M28.271 19.2048C28.271 19.2048 28.151 18.7948 28.381 18.6898C28.381 18.6898 28.426 18.6798 28.431 18.7198C28.431 18.7198 28.481 18.6548 28.521 18.7148C28.521 18.7148 28.636 18.6598 28.666 18.7448C28.666 18.7448 28.741 18.6798 28.781 18.7748C28.781 18.7748 28.856 18.7448 28.856 18.8248C28.856 18.8248 28.956 18.7748 28.956 18.8748C28.956 18.8748 29.056 18.8348 29.031 18.9348C29.031 18.9348 29.181 18.9598 29.136 19.0298C29.136 19.0298 29.271 19.0648 29.221 19.1198C29.221 19.1198 29.361 19.1048 29.286 19.1998C29.286 19.1998 29.396 19.1648 29.336 19.2848C29.271 19.4048 29.076 19.5348 28.936 19.5548" fill="#00A651"/>
<path d="M28.271 19.2048C28.271 19.2048 28.151 18.7948 28.381 18.6898C28.381 18.6898 28.426 18.6798 28.431 18.7198C28.431 18.7198 28.481 18.6548 28.521 18.7148C28.521 18.7148 28.636 18.6598 28.666 18.7448C28.666 18.7448 28.741 18.6798 28.781 18.7748C28.781 18.7748 28.856 18.7448 28.856 18.8248C28.856 18.8248 28.956 18.7748 28.956 18.8748C28.956 18.8748 29.056 18.8348 29.031 18.9348C29.031 18.9348 29.181 18.9598 29.136 19.0298C29.136 19.0298 29.271 19.0648 29.221 19.1198C29.221 19.1198 29.361 19.1048 29.286 19.1998C29.286 19.1998 29.396 19.1648 29.336 19.2848C29.271 19.4048 29.076 19.5348 28.936 19.5548" stroke="black" stroke-width="0.015" stroke-miterlimit="4.8"/>
<path d="M28.4161 19.53C28.4161 19.53 28.1611 19.28 28.2811 19.21C28.2811 19.21 28.3311 19.225 28.3561 19.28C28.3561 19.28 28.4161 19.19 28.4561 19.28C28.4561 19.28 28.5461 19.25 28.5461 19.315L28.6161 19.365C28.6161 19.365 28.7011 19.36 28.6861 19.415C28.6861 19.415 28.7811 19.4 28.7761 19.45C28.7761 19.45 28.8561 19.455 28.8511 19.51C28.8511 19.51 28.9911 19.535 28.9261 19.605C28.9261 19.605 28.6861 19.655 28.5111 19.585C28.5111 19.585 28.4261 19.555 28.4161 19.53Z" fill="#00A651" stroke="black" stroke-width="0.015" stroke-miterlimit="4.8"/>
<path d="M29.2961 19.12V19.135C29.4632 19.0156 29.6086 18.8685 29.7261 18.7L29.7111 18.69C29.7111 18.695 29.4411 19.065 29.2961 19.12ZM29.2061 19.055L29.2161 19.07C29.3461 18.995 29.6111 18.645 29.6161 18.63L29.6111 18.62C29.6061 18.625 29.3361 18.98 29.2111 19.055H29.2061ZM29.1311 19.025L29.1411 19.035C29.2796 18.8793 29.3973 18.7061 29.4911 18.52L29.4811 18.515C29.4811 18.515 29.2711 18.91 29.1311 19.025ZM29.0661 18.935H29.0811C29.1061 18.745 29.3811 18.44 29.3811 18.435L29.3661 18.43C29.3561 18.44 29.0911 18.74 29.0661 18.935ZM28.5211 18.7H28.5361C28.5161 18.425 28.7411 18.125 28.7461 18.125L28.7311 18.115C28.7311 18.115 28.4961 18.425 28.5211 18.7ZM28.6661 18.725H28.6811C28.6411 18.505 28.9011 18.195 28.9011 18.19L28.8911 18.18C28.8811 18.195 28.6261 18.5 28.6661 18.725ZM28.8861 18.805H28.9011C28.8911 18.555 29.1311 18.305 29.1361 18.305L29.1261 18.29C29.1261 18.295 28.8761 18.55 28.8861 18.805ZM28.3611 19.255H28.3761C28.2861 19.02 28.4361 18.725 28.4411 18.725L28.4261 18.715C28.4261 18.715 28.2711 19.02 28.3611 19.26V19.255ZM28.4611 19.275L28.4761 19.27C28.3961 19.035 28.5261 18.72 28.5261 18.72L28.5161 18.71C28.5161 18.71 28.3811 19.035 28.4611 19.275ZM28.8761 19.51V19.52C29.1261 19.435 29.2911 19.205 29.2911 19.205L29.2761 19.195C29.2761 19.195 29.1161 19.42 28.8761 19.51ZM28.8261 19.455V19.47C29.0261 19.38 29.2111 19.13 29.2111 19.13L29.2011 19.12C29.2011 19.12 29.0161 19.37 28.8261 19.455ZM28.7761 19.435L28.7861 19.45C28.9361 19.335 29.1361 19.05 29.1361 19.05L29.1261 19.04C29.1261 19.04 28.9261 19.325 28.7761 19.435ZM28.5261 19.29H28.5461C28.5377 19.1004 28.5809 18.912 28.6711 18.745L28.6561 18.74C28.6561 18.74 28.4961 19.04 28.5311 19.29H28.5261ZM28.6361 19.36L28.6461 19.37C28.8061 19.225 28.8611 18.84 28.8611 18.82H28.8461C28.8461 18.82 28.7961 19.22 28.6361 19.36ZM28.7461 19.4L28.7561 19.415C28.9015 19.2929 29.0018 19.1257 29.0411 18.94H29.0261C29.0261 18.94 28.9661 19.24 28.7461 19.405V19.4ZM28.7711 18.73V18.775L28.6011 19.325L28.6161 19.33L28.7861 18.78C28.7611 18.51 28.9961 18.215 29.0011 18.215L28.9861 18.205C28.9861 18.205 28.7711 18.47 28.7711 18.73Z" fill="black"/>
<path d="M28.9512 18.865C28.9512 18.875 28.8962 19.25 28.6912 19.39L28.7012 19.405C28.9112 19.26 28.9612 18.89 28.9612 18.87C29.0512 18.765 29.2612 18.385 29.2612 18.385L29.2512 18.375C29.2512 18.375 29.0412 18.755 28.9512 18.865ZM28.3512 19.28C28.3512 19.285 28.3812 19.48 28.4212 19.54L28.4362 19.535C28.3962 19.47 28.3612 19.28 28.3612 19.275L28.3462 19.28H28.3512ZM28.4462 19.28L28.4412 19.545H28.4562V19.28H28.4462Z" fill="black"/>
<path d="M28.4512 19.5499L28.4662 19.5549C28.5312 19.4149 28.5512 19.3149 28.5512 19.3149H28.5362C28.5362 19.3149 28.5162 19.4099 28.4512 19.5499ZM28.4662 19.5549L28.4762 19.5699C28.5505 19.5255 28.6043 19.4537 28.6262 19.3699H28.6112C28.6112 19.3699 28.5812 19.4899 28.4662 19.5549ZM28.4912 19.5649V19.5799C28.6112 19.5699 28.6912 19.4249 28.6912 19.4149H28.6812C28.6812 19.4149 28.6012 19.5549 28.4912 19.5649Z" fill="black"/>
<path d="M28.501 19.575V19.59C28.696 19.575 28.781 19.46 28.781 19.455L28.771 19.45C28.771 19.45 28.686 19.56 28.501 19.575Z" fill="black"/>
<path d="M28.5161 19.575V19.59C28.5211 19.59 28.7661 19.645 28.8511 19.52L28.8361 19.51C28.7611 19.63 28.5161 19.58 28.5161 19.575Z" fill="black"/>
<path d="M23.0461 10.6599V17.4799C23.0461 19.7099 27.0761 21.0299 27.0761 21.0299C27.0761 21.0299 31.1011 19.7099 31.1011 17.4799V10.6599H23.0461Z" stroke="black" stroke-width="0.14" stroke-miterlimit="4.8"/>
<path d="M0 0H16V12H0V0Z" fill="#012169"/>
<path d="M1.875 0L7.975 4.525L14.05 0H16V1.55L10 6.025L16 10.475V12H14L8 7.525L2.025 12H0V10.5L5.975 6.05L0 1.6V0H1.875Z" fill="white"/>
<path d="M10.6 7.025L16 11V12L9.225 7.025H10.6ZM6 7.525L6.15 8.4L1.35 12H0L6 7.525ZM16 0V0.075L9.775 4.775L9.825 3.675L14.75 0H16ZM0 0L5.975 4.4H4.475L0 1.05V0Z" fill="#C8102E"/>
<path d="M6.025 0V12H10.025V0H6.025ZM0 4V8H16V4H0Z" fill="white"/>
<path d="M0 4.825V7.225H16V4.825H0ZM6.825 0V12H9.225V0H6.825Z" fill="#C8102E"/>
</g>
<defs>
<clipPath id="clip0_11930_67917">
<rect width="36" height="24" rx="2" fill="white"/>
</clipPath>
</defs>
</svg>
