<svg width="36" height="24" viewBox="0 0 36 24" fill="none" xmlns="http://www.w3.org/2000/svg">
<rect width="36" height="24" rx="2" fill="#012169"/>
<path fill-rule="evenodd" clip-rule="evenodd" d="M0 0H20V10H0V0Z" fill="#012169"/>
<path fill-rule="evenodd" clip-rule="evenodd" d="M20.6452 15.445C20.6169 15.4426 20.5884 15.4426 20.5602 15.445C20.4102 15.475 20.1802 16.01 20.0602 16.325C19.8552 16.595 19.7502 16.805 19.6702 16.96C19.6352 17.02 19.5852 17.09 19.6002 17.17C19.3002 17.25 19.2852 17.54 19.2852 17.65C19.2852 17.775 19.3202 17.835 19.3202 17.835L19.5002 18.21V18.215C19.6902 18.665 19.9702 19.26 20.1352 19.305C20.3552 19.38 20.9352 19.14 21.3752 18.72C22.2184 19.1136 23.1219 19.3191 24.0352 19.325C25.0552 19.325 25.9702 19.05 26.6852 18.72C27.1252 19.14 27.7052 19.38 27.9352 19.305C28.0852 19.255 28.3702 18.655 28.5652 18.215L28.7402 17.835C28.7402 17.835 28.7752 17.775 28.7752 17.655C28.7752 17.545 28.7602 17.255 28.4602 17.175C28.4752 17.095 28.4302 17.025 28.3952 16.96C28.3102 16.8 28.2052 16.59 28.0102 16.31C27.8802 16 27.6502 15.475 27.5102 15.45C27.3002 15.41 26.8602 15.525 26.8602 15.57V15.59L25.9752 16.52C25.9752 16.545 26.0202 17.22 26.1902 17.82C25.4954 18.0979 24.7626 18.2367 24.0252 18.23C23.1752 18.23 22.4502 18.06 21.8652 17.815C21.9757 17.3909 22.0478 16.9553 22.0802 16.515L21.2002 15.59V15.57C21.2002 15.535 20.8602 15.445 20.6452 15.445ZM20.8652 16.595C20.9802 16.595 21.0952 16.705 21.1902 16.815L21.1852 16.88C21.1492 17.0534 21.1025 17.2239 21.0452 17.39C20.8273 17.2488 20.6229 17.0829 20.4352 16.895C20.5302 16.78 20.6852 16.625 20.8452 16.605H20.8652V16.595ZM27.1952 16.595H27.2152C27.3802 16.625 27.5302 16.78 27.6302 16.895C27.4411 17.0851 27.235 17.2526 27.0152 17.395C26.9576 17.2273 26.9108 17.0552 26.8752 16.88C26.871 16.8585 26.8677 16.8368 26.8652 16.815C26.9652 16.7 27.0802 16.6 27.1952 16.6V16.595ZM20.0752 17.915C20.1952 18.015 20.3452 18.135 20.5302 18.255C20.4812 18.2915 20.4271 18.3185 20.3702 18.335C20.2902 18.355 20.2152 18.35 20.1352 18.335C20.1043 18.2455 20.0874 18.1508 20.0852 18.055C20.081 18.0084 20.0776 17.9617 20.0752 17.915ZM27.9852 17.915L27.9802 18.055C27.9771 18.1491 27.9602 18.2421 27.9302 18.33C27.8624 18.3483 27.792 18.3512 27.7233 18.3383C27.6545 18.3254 27.5888 18.297 27.5302 18.255C27.7152 18.135 27.8702 18.015 27.9852 17.915Z" fill="url(#paint0_linear_11930_67932)" stroke="white" stroke-width="0.5"/>
<path fill-rule="evenodd" clip-rule="evenodd" d="M21.3101 16.98C21.3101 16.98 21.0051 16.425 20.7551 16.47C20.5001 16.505 20.2551 16.86 20.2451 16.88C20.1037 16.7405 19.9777 16.5809 19.8701 16.405C19.8851 16.385 20.2601 15.36 20.4701 15.315C20.6701 15.27 21.1051 15.39 21.1051 15.43L21.3101 16.98Z" fill="url(#paint1_linear_11930_67932)" stroke="black" stroke-width="0.06"/>
<path fill-rule="evenodd" clip-rule="evenodd" d="M21.99 16.385C21.99 16.425 21.88 17.895 21.445 18.405C21.015 18.92 20.295 19.235 20.035 19.16C19.785 19.08 19.21 17.595 19.21 17.595C19.21 17.595 19.82 18.305 20.275 18.185C20.73 18.07 21.005 17.18 21.09 16.74C21.175 16.31 21.105 15.455 21.105 15.455L21.995 16.385H21.99Z" fill="url(#paint2_linear_11930_67932)" stroke="black" stroke-width="0.06"/>
<path fill-rule="evenodd" clip-rule="evenodd" d="M26.645 16.98C26.645 16.98 26.955 16.425 27.205 16.47C27.455 16.505 27.695 16.86 27.715 16.88C27.8564 16.7405 27.9824 16.5809 28.09 16.405C28.07 16.385 27.695 15.36 27.49 15.315C27.285 15.27 26.85 15.39 26.85 15.43L26.645 16.98Z" fill="url(#paint3_linear_11930_67932)" stroke="black" stroke-width="0.06"/>
<path fill-rule="evenodd" clip-rule="evenodd" d="M25.9651 16.385C25.9651 16.425 26.0751 17.895 26.5101 18.405C26.9451 18.92 27.6601 19.235 27.9201 19.16C28.1701 19.08 28.7501 17.595 28.7501 17.595C28.7501 17.595 28.1351 18.305 27.6801 18.185C27.2301 18.07 26.9551 17.18 26.8701 16.74C26.7801 16.31 26.8501 15.455 26.8501 15.455L25.9651 16.385Z" fill="url(#paint4_linear_11930_67932)" stroke="black" stroke-width="0.06"/>
<path fill-rule="evenodd" clip-rule="evenodd" d="M20.0601 16.3099C19.8601 16.5849 19.7551 16.7999 19.6651 16.9599C19.5801 17.1199 19.6351 17.3449 19.8251 17.6599C20.0401 17.9949 21.7751 19.3299 24.0301 19.3299C26.2901 19.3299 28.0201 17.9999 28.2301 17.6599C28.4301 17.3399 28.4801 17.1199 28.3951 16.9599C28.3101 16.7999 28.2001 16.5849 28.0001 16.3099C28.0001 16.7249 26.5651 18.2349 24.0301 18.2349C21.4951 18.2349 20.0601 16.7249 20.0601 16.3099Z" fill="url(#paint5_linear_11930_67932)" stroke="black" stroke-width="0.075"/>
<path fill-rule="evenodd" clip-rule="evenodd" d="M27.8852 18.9399L28.2752 18.1849L28.0802 18.0249C28.0302 18.2149 27.8052 18.2799 27.7652 18.5249C27.7302 18.7599 27.9152 18.9949 27.8852 18.9399Z" fill="url(#paint6_linear_11930_67932)" stroke="black" stroke-width="0.06"/>
<path fill-rule="evenodd" clip-rule="evenodd" d="M28.2401 18.725C28.2401 18.725 28.3101 18.385 28.0901 18.345C27.8701 18.305 27.7501 18.535 27.7851 18.445C27.8151 18.345 27.9451 18.245 27.9701 17.91C27.9851 17.575 27.9501 17.395 27.9501 17.395C27.9501 17.395 28.0401 16.96 28.3901 17.02C28.7501 17.085 28.7651 17.4 28.7651 17.515C28.7668 17.5747 28.7566 17.6342 28.7351 17.69L28.2401 18.725Z" fill="url(#paint7_linear_11930_67932)" stroke="black" stroke-width="0.06"/>
<path d="M26.96 17.5849L27.035 17.7249L27.085 17.6949L27.05 17.5949L27.055 17.5799L27.14 17.5199L27.36 17.9549V17.9799L27.31 18.0149L27.335 18.0549L27.545 17.9049L27.525 17.8649L27.475 17.8949H27.46L27.24 17.4549L27.32 17.3949H27.34L27.39 17.4749L27.44 17.4399L27.365 17.2999L26.965 17.5849H26.96ZM26.435 17.9199L26.455 17.9599L26.5 17.9399L26.515 17.9449L26.71 18.3899L26.705 18.4099L26.665 18.4399L26.68 18.4799L26.885 18.3549L26.87 18.3149L26.825 18.3349H26.805L26.715 18.1199L26.93 17.9999L27.02 18.1999V18.2249L26.97 18.2549L26.99 18.2999L27.2 18.1749L27.18 18.1349L27.135 18.1549L27.12 18.1449L26.93 17.7049V17.6849L26.97 17.6549L26.955 17.6149L26.75 17.7399L26.765 17.7799L26.815 17.7549L26.83 17.7649L26.905 17.9449L26.695 18.0699L26.615 17.8849L26.625 17.8649L26.665 17.8399L26.645 17.7949L26.435 17.9199ZM26.315 18.2999L26.325 18.3399L26.385 18.3249L26.405 18.3299L26.45 18.5149L26.41 18.5349C26.285 18.5749 26.19 18.5099 26.145 18.3499C26.105 18.1899 26.155 18.0699 26.27 18.0299C26.2928 18.0229 26.3166 18.0212 26.34 18.0249L26.355 18.0349L26.395 18.1199L26.455 18.0999L26.42 17.9499C26.355 17.9499 26.295 17.9599 26.245 17.9799C26.065 18.0449 25.985 18.2049 26.03 18.3899C26.08 18.5749 26.225 18.6599 26.39 18.6049C26.4514 18.5827 26.5089 18.5489 26.56 18.5049L26.5 18.2999L26.51 18.2799L26.555 18.2599L26.54 18.2149L26.315 18.2999ZM25.83 18.8149L26.065 18.7299L26.05 18.6849L26 18.6949L25.985 18.6899L25.855 18.2099L25.86 18.1949L25.91 18.1699L25.9 18.1299L25.665 18.2099L25.68 18.2549L25.73 18.2399L25.75 18.2499L25.875 18.7249L25.865 18.7449L25.815 18.7649L25.83 18.8099V18.8149ZM24.555 19.0449L24.97 19.0049L24.955 18.8349L24.905 18.8399L24.895 18.9399L24.885 18.9549L24.71 18.9749L24.69 18.7299L24.79 18.7199L24.805 18.7349L24.815 18.7999H24.865L24.845 18.5799H24.795V18.6499L24.785 18.6699L24.685 18.6749L24.665 18.4549L24.82 18.4399L24.83 18.4499L24.85 18.5349L24.905 18.5299L24.895 18.3799L24.505 18.4199V18.4649H24.555L24.57 18.4799L24.605 18.9749L24.6 18.9899L24.55 18.9999V19.0499L24.555 19.0449ZM23.935 18.4299V18.4799H23.985L23.995 18.4949L24 18.9899L23.99 19.0049L23.945 19.0149V19.0549H24.165V19.0099H24.115L24.105 18.9899V18.7499H24.325V18.9799L24.315 18.9949L24.27 18.9999V19.0499H24.49V18.9999H24.44L24.435 18.9799L24.425 18.4799L24.435 18.4649H24.485V18.4149H24.26V18.4649L24.31 18.4699L24.32 18.4849V18.6849L24.105 18.6899L24.095 18.4899L24.11 18.4749H24.155V18.4249L23.935 18.4299ZM23.465 18.4149V18.5799H23.515L23.53 18.4799L23.54 18.4649H23.635V18.9749L23.62 18.9949H23.57V19.0449H23.8V18.9999L23.75 18.9949L23.735 18.9749L23.74 18.4749H23.83L23.845 18.4849L23.86 18.5849H23.91V18.4199L23.465 18.4149ZM22.75 18.9449L23.15 18.9649L23.16 18.7999H23.11L23.095 18.8949L23.085 18.9049L22.91 18.8999L22.92 18.6499L23.015 18.6599L23.025 18.6749L23.035 18.7449H23.075L23.085 18.5299H23.04L23.03 18.5899L23.02 18.6049H22.92L22.93 18.3749L23.08 18.3849L23.09 18.3949L23.095 18.4799H23.15V18.3349L22.775 18.3149V18.3599L22.825 18.3699L22.83 18.3849L22.81 18.8799L22.8 18.8949H22.75V18.9399V18.9449ZM21.82 18.6749L22.04 18.7549L22.05 18.7149L22 18.6899V18.6699L22.125 18.1949L22.14 18.1849L22.19 18.1999L22.2 18.1599L21.985 18.0749L21.975 18.1199L22.02 18.1399L22.03 18.1599L21.895 18.6299L21.885 18.6449L21.835 18.6299L21.82 18.6749ZM21.44 18.5099C21.4788 18.545 21.5228 18.5721 21.57 18.5899C21.69 18.6299 21.785 18.5799 21.81 18.4799C21.8173 18.4529 21.8188 18.4242 21.8144 18.3963C21.8101 18.3685 21.8 18.3422 21.785 18.3199L21.695 18.2199C21.665 18.1749 21.655 18.1399 21.665 18.0949C21.68 18.0499 21.72 18.0249 21.775 18.0449C21.795 18.0549 21.815 18.0649 21.825 18.0799V18.0949L21.815 18.1949L21.865 18.2099L21.905 18.0699C21.8684 18.0332 21.826 18.0044 21.78 17.9849C21.68 17.9449 21.59 17.9999 21.56 18.0949C21.5543 18.1185 21.5531 18.1431 21.5565 18.1672C21.5599 18.1913 21.568 18.2144 21.58 18.2349C21.6 18.2849 21.63 18.3099 21.655 18.3349C21.7 18.3849 21.715 18.4349 21.705 18.4799C21.69 18.5299 21.645 18.5549 21.585 18.5299C21.5631 18.5207 21.5428 18.5071 21.525 18.4899L21.52 18.4749L21.54 18.3649L21.485 18.3449L21.44 18.5099ZM20.95 18.2799L21.32 18.4799L21.38 18.3299L21.33 18.3049L21.285 18.3899L21.27 18.3949L21.115 18.3049L21.205 18.0899L21.295 18.1399V18.1549L21.28 18.2199L21.32 18.2449L21.4 18.0449L21.36 18.0249L21.325 18.0799L21.31 18.0899L21.225 18.0399L21.305 17.8399L21.44 17.9149L21.445 17.9299L21.425 18.0099L21.475 18.0349L21.525 17.9049L21.185 17.7099L21.165 17.7499L21.205 17.7799L21.21 17.7999L21.03 18.2499H21.015L20.97 18.2349L20.95 18.2799ZM20.895 17.5299L20.71 17.3849L20.685 17.4249L20.72 17.4599L20.725 17.4799L20.495 17.8899L20.475 17.8949L20.44 17.8699L20.415 17.9099L20.595 18.0499C20.665 18.0999 20.72 18.1249 20.775 18.1199C20.855 18.1099 20.925 18.0599 20.975 17.9699C21.065 17.7999 21.04 17.6399 20.895 17.5299ZM20.815 17.5299L20.855 17.5599C20.955 17.6349 20.965 17.7449 20.88 17.8899C20.795 18.0399 20.705 18.0699 20.61 17.9899L20.57 17.9699L20.82 17.5349L20.815 17.5299ZM22.28 18.1799L22.275 18.2199L22.32 18.2349L22.325 18.2549L22.24 18.7399L22.225 18.7499H22.175V18.7899L22.38 18.8399L22.39 18.7999L22.34 18.7799L22.335 18.7649L22.37 18.5599H22.385C22.46 18.5799 22.475 18.6249 22.475 18.7199C22.48 18.7649 22.48 18.8049 22.515 18.8549C22.53 18.8749 22.55 18.8949 22.585 18.8999C22.6098 18.9054 22.6349 18.9087 22.66 18.9099L22.665 18.8699H22.66C22.61 18.8549 22.585 18.8349 22.585 18.7799C22.575 18.7299 22.585 18.6799 22.565 18.6299C22.5516 18.5987 22.5285 18.5738 22.5 18.5599C22.585 18.5599 22.635 18.5149 22.65 18.4349C22.67 18.3349 22.625 18.2599 22.505 18.2349L22.28 18.1799ZM22.43 18.2649L22.46 18.2749C22.53 18.2949 22.56 18.3449 22.545 18.4199C22.53 18.5049 22.485 18.5349 22.405 18.5099L22.38 18.5049L22.425 18.2649H22.43ZM25.14 18.3149L25.145 18.3649H25.195L25.21 18.3749L25.28 18.8649L25.27 18.8799L25.22 18.8949L25.23 18.9349L25.455 18.8949V18.8449L25.4 18.8549L25.385 18.8399L25.355 18.6399H25.37C25.45 18.6149 25.48 18.6499 25.52 18.7349C25.535 18.7749 25.545 18.8149 25.595 18.8449C25.615 18.8599 25.645 18.8649 25.685 18.8599C25.7122 18.8537 25.7389 18.8453 25.765 18.8349L25.76 18.7899H25.75C25.695 18.8049 25.665 18.7899 25.64 18.7449C25.62 18.7049 25.605 18.6549 25.575 18.6199C25.555 18.5949 25.525 18.5799 25.485 18.5799C25.57 18.5399 25.61 18.4799 25.6 18.3949C25.585 18.2949 25.515 18.2449 25.39 18.2699L25.14 18.3149ZM25.315 18.3399H25.35C25.43 18.3199 25.475 18.3499 25.49 18.4299C25.5 18.5099 25.465 18.5599 25.38 18.5799H25.35L25.31 18.3399H25.315Z" fill="black"/>
<path fill-rule="evenodd" clip-rule="evenodd" d="M20.0751 18.9399L19.6851 18.1849L19.8801 18.0249C19.9301 18.2149 20.1551 18.2799 20.1951 18.5249C20.2301 18.7599 20.0451 18.9949 20.0751 18.9399Z" fill="url(#paint8_linear_11930_67932)" stroke="black" stroke-width="0.06"/>
<path fill-rule="evenodd" clip-rule="evenodd" d="M19.7152 18.725C19.7152 18.725 19.6452 18.385 19.8652 18.345C20.0852 18.305 20.2052 18.535 20.1752 18.445C20.1402 18.345 20.0102 18.245 19.9902 17.91C19.9702 17.575 20.0052 17.395 20.0052 17.395C20.0052 17.395 19.9202 16.96 19.5652 17.02C19.2102 17.085 19.1902 17.4 19.1902 17.515C19.1902 17.625 19.2252 17.69 19.2252 17.69L19.7152 18.725Z" fill="url(#paint9_linear_11930_67932)" stroke="black" stroke-width="0.06"/>
<path fill-rule="evenodd" clip-rule="evenodd" d="M24.0252 17.8049C24.0252 17.8049 19.9252 16.4549 19.9552 11.3349L19.9852 4.55493H28.0502L28.0802 11.2949C28.1052 16.4149 24.0102 17.7999 24.0102 17.7999L24.0252 17.8049Z" fill="#0072C4" stroke="white" stroke-width="0.195"/>
<path fill-rule="evenodd" clip-rule="evenodd" d="M20.5148 6.17991L20.6148 6.07991C20.6798 6.03991 20.7348 5.99491 20.7998 5.95991C20.8498 5.92991 20.9498 5.90491 20.9848 5.87991C21.0432 5.8458 21.0944 5.79806 21.1348 5.73991C21.1448 5.65491 21.1598 5.58991 21.1598 5.48991C21.2136 5.44646 21.2745 5.41262 21.3398 5.38991C21.4248 5.35991 21.4398 5.31991 21.5298 5.30491C21.5798 5.28491 21.6698 5.28491 21.7498 5.28491C21.8298 5.28491 21.8848 5.35491 21.9598 5.36491C22.0498 5.40491 22.0898 5.43491 22.1648 5.50491C22.1939 5.56568 22.2388 5.6175 22.2948 5.65491C22.3498 5.68491 22.4048 5.73491 22.4648 5.75491C22.5398 5.79991 22.5998 5.82491 22.6548 5.89491C22.7048 5.93491 22.7248 5.99491 22.7698 6.02991C22.8231 6.08157 22.8799 6.12838 22.9398 6.16991C23.0148 6.22491 23.0898 6.26991 23.1998 6.25491C23.2648 6.25491 23.3298 6.23991 23.3998 6.25491C23.4898 6.25491 23.5698 6.25491 23.6398 6.27991C23.7298 6.27991 23.7998 6.28991 23.8798 6.29991C23.9548 6.30991 24.0298 6.31491 24.1148 6.31491C24.1898 6.33991 24.2648 6.33491 24.3548 6.33491H24.8298C24.9148 6.33491 24.9998 6.33991 25.0648 6.35491C25.1435 6.3538 25.2219 6.34712 25.2998 6.33491C25.3948 6.33491 25.4648 6.31991 25.5498 6.31491H25.8398C25.9148 6.33991 26.0098 6.35491 26.0598 6.39991C26.1298 6.41991 26.1598 6.45491 26.2298 6.47491C26.2953 6.50964 26.3532 6.55726 26.3998 6.61491C26.4533 6.68126 26.4987 6.75523 26.5348 6.83491C26.5848 6.90991 26.5998 6.99991 26.6348 7.09491C26.6548 7.18491 26.6698 7.26991 26.6698 7.36991C26.6898 7.45491 26.6848 7.54991 26.6848 7.64991C26.6698 7.73991 26.6648 7.83991 26.6348 7.92491C26.6348 8.02491 26.6148 8.10991 26.5998 8.18491C26.5898 8.26491 26.5698 8.31991 26.5648 8.41991V8.69991C26.5648 8.78991 26.5448 8.85991 26.5348 8.95491C26.4898 9.0523 26.4498 9.15246 26.4148 9.25491C26.3614 9.29858 26.3156 9.35282 26.2798 9.41491C26.2448 9.43991 26.2248 9.47991 26.2298 9.49491C26.2998 9.51991 26.2798 9.57491 26.2798 9.66991L26.3148 9.92991C26.3198 10.0299 26.3398 10.0799 26.3648 10.1499C26.3948 10.1899 26.3998 10.1699 26.3298 10.1699C26.2798 10.2099 26.2298 10.1899 26.2148 10.1099C26.1762 10.0439 26.1522 9.96848 26.1448 9.88991C26.1348 9.79991 26.1198 9.70991 26.0948 9.64991C26.0848 9.53991 26.0598 9.53991 25.9598 9.52991C25.9098 9.48491 25.8498 9.47491 25.7598 9.47491C25.6598 9.47491 25.6598 9.46491 25.6598 9.57491V9.85491C25.6398 9.93491 25.6098 9.99491 25.5848 10.0699C25.5348 10.1099 25.5148 10.1799 25.4498 10.2299C25.4248 10.3199 25.3798 10.3299 25.2998 10.3499L25.1998 10.2099C25.2498 10.1199 25.2848 10.1099 25.3148 10.0099C25.3548 9.92991 25.3748 9.87991 25.3998 9.80991C25.3648 9.74991 25.3348 9.71991 25.2998 9.63491C25.2643 9.56534 25.2358 9.49155 25.2148 9.41491C25.1598 9.39491 25.0698 9.38991 25.0298 9.35491C24.9448 9.33491 24.9248 9.43991 24.8298 9.43991H24.5898C24.4848 9.43991 24.4598 9.49991 24.3698 9.49491C24.3448 9.50491 24.2798 9.49491 24.1848 9.49491C24.1098 9.52491 24.0248 9.51491 23.9448 9.51491C23.8598 9.51491 23.7948 9.48991 23.7248 9.47491C23.6498 9.44991 23.5748 9.42491 23.4898 9.41491C23.3898 9.41491 23.3548 9.42491 23.2898 9.47491C23.2398 9.50991 23.1598 9.58991 23.1048 9.63491C23.0798 9.69991 23.0648 9.80991 23.0298 9.88991C23.0148 9.97491 22.9848 10.0199 22.9698 10.0899C22.9415 10.1663 22.9246 10.2474 22.9198 10.3299C22.9098 10.4599 22.8848 10.4449 22.8148 10.4099C22.7848 10.3499 22.7398 10.2949 22.7148 10.2299C22.7248 10.1299 22.7498 10.0799 22.7498 9.97491C22.7298 9.88991 22.6948 9.89991 22.6498 9.94991C22.6498 10.0549 22.6498 10.1349 22.6098 10.1899C22.603 10.222 22.5906 10.2522 22.5735 10.2788C22.5563 10.3054 22.5347 10.3278 22.5098 10.3449C22.4986 10.3765 22.4808 10.4054 22.4575 10.4295C22.4342 10.4537 22.406 10.4726 22.3748 10.4849C22.3648 10.4849 22.3748 10.4599 22.3748 10.4049C22.3348 10.3199 22.3748 10.2399 22.3748 10.1299C22.3748 10.0299 22.3648 9.96491 22.3948 9.87491C22.3948 9.77491 22.3548 9.68491 22.3448 9.61491C22.3098 9.53991 22.2898 9.50491 22.2048 9.47491C22.1448 9.44491 22.0548 9.41491 22.0198 9.34991C21.9806 9.28919 21.9268 9.24235 21.8648 9.21491C21.7898 9.18491 21.7498 9.15491 21.6948 9.11491C21.6448 9.04991 21.5998 9.02491 21.5798 8.93991C21.5448 8.87991 21.5398 8.76491 21.5148 8.67991C21.5078 8.5994 21.491 8.52034 21.4648 8.44491C21.457 8.3629 21.4402 8.28229 21.4148 8.20491L21.3598 7.94491C21.3598 7.84991 21.3598 7.75491 21.3398 7.66991V7.38991C21.3298 7.30491 21.3248 7.18991 21.3098 7.12991C21.3098 7.02491 21.2948 6.96491 21.2698 6.88991C21.2348 6.81991 21.2348 6.78991 21.1698 6.77491C21.1298 6.83491 21.0598 6.86491 20.9698 6.87491C20.9098 6.85991 20.8198 6.84491 20.7498 6.81491C20.6798 6.79491 20.6398 6.76491 20.5848 6.72991C20.5522 6.67784 20.5172 6.62777 20.4798 6.57991C20.4698 6.47491 20.4498 6.41991 20.4448 6.31491C20.4448 6.23991 20.4448 6.28491 20.5148 6.17991Z" fill="#BCBCBC"/>
<path fill-rule="evenodd" clip-rule="evenodd" d="M21.5148 6.89991L21.5298 6.87991C21.4998 6.91491 21.5098 6.89491 21.5798 6.86491C21.6098 6.84491 21.6798 6.79491 21.7048 6.76491C21.7348 6.74991 21.7898 6.72991 21.8148 6.69991C21.8448 6.65991 21.8798 6.62491 21.9248 6.58991C21.9698 6.53991 22.0098 6.52491 22.0648 6.48991C22.1298 6.47991 22.1598 6.44991 22.2198 6.47491C22.2798 6.48991 22.3048 6.48991 22.3498 6.42991C22.3998 6.39991 22.4548 6.35991 22.4748 6.30991V6.21991C22.4748 6.30991 22.4548 6.34491 22.3998 6.36991C22.3648 6.42491 22.3098 6.47991 22.2898 6.52991C22.2548 6.58991 22.2448 6.62491 22.2098 6.65491C22.1748 6.69991 22.1248 6.72491 22.1098 6.79491C22.1298 6.82991 22.1098 6.84491 22.1498 6.84991C22.1848 6.88491 22.2198 6.86991 22.2698 6.84991C22.3095 6.80133 22.3417 6.74555 22.3648 6.68491L22.4498 6.53991C22.4898 6.50991 22.5148 6.48491 22.5298 6.42991C22.5798 6.39991 22.6198 6.36491 22.6548 6.32991C22.6898 6.30991 22.7048 6.28491 22.7548 6.27491C22.7584 6.32954 22.7461 6.384 22.7198 6.42991C22.7098 6.50991 22.7148 6.54491 22.7348 6.59491C22.7698 6.62491 22.7648 6.64491 22.7848 6.69491C22.8048 6.64491 22.8148 6.55991 22.8198 6.49991V6.48991C22.8198 6.54491 22.8198 6.62991 22.8048 6.66991C22.8048 6.74991 22.8248 6.78991 22.8448 6.84991C22.8598 6.88491 22.8798 6.89991 22.8998 6.91991C22.8998 6.83991 22.9248 6.78991 22.9298 6.71491L22.9498 6.90991C22.9498 6.97491 22.9748 7.02491 22.9998 7.07491C23.0248 7.09491 23.0348 7.14991 23.0448 7.10491C23.0748 7.00491 23.0748 6.90491 23.0948 6.79491C23.0948 6.74491 23.0948 6.66491 23.1198 6.62991L23.0898 6.79491C23.0948 6.74491 23.0998 6.66991 23.1198 6.62991V6.60991C23.1331 6.6858 23.1415 6.76267 23.1448 6.83991C23.1448 6.89991 23.1398 6.95991 23.1548 7.01991C23.1898 6.99991 23.2148 6.94991 23.2398 6.89491C23.2656 6.83895 23.2975 6.78687 23.3348 6.73991L23.2348 6.88991C23.2625 6.83539 23.2961 6.78499 23.3348 6.73991V6.72991C23.3282 6.79298 23.3249 6.85642 23.3248 6.91991C23.3248 6.98491 23.3248 7.05991 23.3348 7.10491C23.3498 7.17991 23.3648 7.18991 23.3698 7.26991C23.3698 7.30991 23.3648 7.35491 23.3798 7.36991C23.4298 7.38491 23.4298 7.35491 23.4398 7.26991C23.4398 7.18491 23.4598 7.11991 23.4648 7.03491C23.4648 6.92991 23.4748 7.04991 23.4898 7.08491C23.5117 7.14531 23.5235 7.20971 23.5248 7.27491C23.5248 7.31491 23.5248 7.35491 23.5348 7.37491C23.5848 7.34991 23.5998 7.28991 23.6348 7.25991C23.6548 7.18991 23.6848 7.15991 23.7048 7.11991C23.7648 7.10491 23.7648 7.07491 23.7648 6.99491C23.7648 6.92491 23.7598 6.85491 23.7798 6.79491C23.7979 6.73425 23.813 6.67249 23.8248 6.60991C23.8448 6.59991 23.8698 6.63491 23.8848 6.66991C23.9098 6.71491 23.9048 6.77991 23.9048 6.84991C23.919 6.90917 23.9409 6.96632 23.9698 7.01991C23.9907 7.07041 24.0176 7.11751 24.0498 7.15991C24.0648 7.20491 24.0648 7.28491 24.0648 7.34491C24.1148 7.28491 24.1148 7.19491 24.1198 7.10491C24.1148 7.04491 24.1148 6.96491 24.0998 6.90491C24.0998 6.84491 24.0848 6.78491 24.0748 6.73991C24.0398 6.71991 24.0248 6.69991 24.0648 6.63991C24.0998 6.60491 24.1448 6.61991 24.2048 6.62991C24.2398 6.66491 24.2498 6.68491 24.2548 6.76991C24.2548 6.84491 24.2548 6.89991 24.2798 6.94991C24.2998 6.98991 24.3248 7.01991 24.3398 7.08991C24.3548 7.10991 24.3698 7.13991 24.3948 7.10491C24.4098 7.06491 24.4198 6.98491 24.4348 6.93491C24.4448 6.88491 24.4648 6.85491 24.4898 6.83491C24.4898 6.91491 24.4898 6.95991 24.5198 7.01991L24.5748 7.17491C24.5998 7.19491 24.6048 7.23991 24.6398 7.25991L24.6498 7.03491V6.83491C24.6498 6.77491 24.6698 6.73491 24.6848 6.68491C24.7248 6.73991 24.7248 6.75991 24.7248 6.83491C24.7598 6.81991 24.7648 6.78491 24.7798 6.73991C24.8048 6.70991 24.8198 6.69991 24.8298 6.76991C24.8348 6.84491 24.8498 6.90991 24.8648 6.97991C24.8898 7.00991 24.9148 7.08991 24.9448 7.11991C24.9661 7.16112 24.9913 7.19967 25.0198 7.23491C25.0398 7.27491 25.0398 7.30491 25.0948 7.31491C25.0948 7.21991 25.0948 7.12491 25.0798 7.03491C25.0798 6.95491 25.0648 6.92491 25.0548 6.84991C25.0348 6.80491 25.0248 6.72991 25.0298 6.70991C25.0779 6.75601 25.1156 6.81427 25.1398 6.87991L25.2148 7.06491C25.2491 7.10792 25.2793 7.15484 25.3048 7.20491C25.3498 7.24491 25.3698 7.28991 25.4148 7.32991C25.4348 7.35491 25.4898 7.36991 25.4998 7.35491C25.4998 7.27491 25.4848 7.20491 25.4648 7.13491C25.4639 7.07546 25.4501 7.01715 25.4248 6.96491C25.3748 6.91991 25.3398 6.88991 25.3148 6.82491C25.2998 6.80491 25.2998 6.79491 25.2948 6.75491C25.3586 6.81162 25.4157 6.87714 25.4648 6.94991C25.4884 6.99198 25.5211 7.02643 25.5598 7.04991C25.5798 7.07991 25.6498 7.11991 25.6998 7.12991C25.7295 7.17337 25.7721 7.20351 25.8198 7.21491L25.6998 7.13491C25.7303 7.17651 25.7727 7.20482 25.8198 7.21491V7.23491C25.8125 7.15321 25.7885 7.07451 25.7498 7.00491C25.7261 6.94451 25.688 6.89261 25.6398 6.85491C25.6096 6.80292 25.5684 6.76001 25.5198 6.72991C25.4898 6.68491 25.4398 6.60991 25.4098 6.58991C25.4648 6.54491 25.5248 6.60991 25.5798 6.63991C25.6298 6.69991 25.6698 6.77491 25.6998 6.80991C25.728 6.87744 25.7651 6.93981 25.8098 6.99491C25.8598 7.02991 25.8948 7.05991 25.9398 7.10491C26.0098 7.12491 25.9848 7.09991 25.9648 7.03491C25.9398 6.95491 25.9648 6.95491 26.0148 7.00491C26.0448 7.03491 26.0848 7.07491 26.1348 7.10491C26.1498 7.13491 26.1848 7.15491 26.2148 7.13491C26.2298 7.11491 26.2298 7.11491 26.2298 7.09491C26.2048 7.00491 26.1798 6.93491 26.1198 6.90991C26.0948 6.86491 26.0448 6.82491 26.0098 6.78491C25.9848 6.74491 25.9598 6.71991 25.9398 6.66991L26.0098 6.77991C25.9848 6.73991 25.9598 6.71991 25.9398 6.66991H25.9298C25.9998 6.66991 26.0298 6.69491 26.0798 6.72991C26.1243 6.75067 26.1625 6.7854 26.1898 6.82991C26.2148 6.85991 26.2498 6.89491 26.2748 6.93491L26.3948 7.03491C26.4348 7.09491 26.4448 7.13491 26.4448 7.21491C26.4648 7.25991 26.4698 7.33991 26.4798 7.38491C26.4698 7.46491 26.4448 7.39991 26.4398 7.35491C26.4348 7.29491 26.4098 7.29991 26.3698 7.31491C26.3698 7.39991 26.3798 7.42491 26.4048 7.48491C26.3995 7.5348 26.3842 7.58269 26.3598 7.62491C26.3298 7.64491 26.3248 7.58491 26.2998 7.55491C26.2998 7.46991 26.2748 7.45491 26.2248 7.41491V7.46991C26.2548 7.52991 26.2848 7.58491 26.2848 7.66491C26.3052 7.72386 26.3154 7.78666 26.3148 7.84991C26.3148 7.91991 26.3148 7.98491 26.2998 8.04991C26.2998 8.11991 26.2848 8.14991 26.2848 8.22991V8.62491C26.2765 8.68442 26.2731 8.74469 26.2748 8.80491L26.2848 8.62491C26.2748 8.67491 26.2748 8.73491 26.2748 8.80491V8.81491C26.2548 8.74491 26.2248 8.68491 26.2148 8.61491C26.1793 8.57175 26.152 8.52067 26.1348 8.46491C26.1198 8.40491 26.1198 8.33491 26.1098 8.28491C26.0898 8.23491 26.0698 8.18491 26.0348 8.21491C26.0198 8.31491 26.0348 8.37991 26.0698 8.47991C26.0898 8.54491 26.0898 8.60491 26.1098 8.66491C26.1348 8.73991 26.1598 8.74491 26.1098 8.82991C26.0798 8.87991 26.0698 8.88991 26.0598 8.94491C26.0148 8.96991 26.0048 8.98491 25.9998 9.04491C25.9848 8.98991 25.9498 8.92491 25.9298 8.85991C25.9048 8.78991 25.8798 8.71991 25.8698 8.65991C25.8398 8.61491 25.8048 8.53991 25.7698 8.50991L25.6798 8.34491C25.6298 8.27991 25.6198 8.24491 25.5798 8.21491C25.5748 8.18991 25.5598 8.14991 25.5298 8.17491C25.5298 8.23991 25.5298 8.30991 25.5448 8.36991C25.5598 8.44991 25.5798 8.49491 25.5848 8.57991V8.72991C25.5548 8.64991 25.5198 8.58491 25.4998 8.50991C25.4698 8.46491 25.4448 8.38491 25.4148 8.35991C25.3948 8.29991 25.3798 8.25491 25.3548 8.21491C25.3498 8.17491 25.3298 8.17491 25.3148 8.14491C25.3148 8.22491 25.3398 8.25491 25.3548 8.30991C25.3798 8.36991 25.3848 8.45491 25.3798 8.48491C25.3498 8.38491 25.3198 8.27991 25.2798 8.18491C25.245 8.12572 25.2149 8.06386 25.1898 7.99991C25.1498 7.95491 25.1148 7.94991 25.0798 7.91991C25.0469 7.90493 25.0177 7.88088 24.9948 7.84991C25.0048 7.92491 25.0298 7.97491 25.0448 8.02991C25.0548 8.09991 25.0798 8.15991 25.0898 8.21491C25.0798 8.31491 25.0598 8.18991 25.0398 8.14491C25.0298 8.06491 25.0048 8.02491 24.9848 7.97991C24.9498 7.94991 24.9198 7.90491 24.8848 7.87991C24.8498 7.86491 24.8648 7.87991 24.8648 7.92991C24.8648 8.01991 24.8648 8.07991 24.8898 8.12991C24.9148 8.16991 24.9148 8.22491 24.9148 8.29991C24.9098 8.36991 24.8998 8.41991 24.8998 8.49991V8.60491C24.8748 8.54991 24.8498 8.50991 24.8248 8.43991C24.7898 8.37491 24.7748 8.32491 24.7448 8.25491C24.7198 8.24491 24.6698 8.23491 24.6448 8.25491C24.6548 8.32491 24.6798 8.35491 24.6848 8.43991C24.6348 8.48991 24.6448 8.50991 24.6148 8.42491C24.5848 8.35991 24.5548 8.36491 24.5148 8.32491C24.4548 8.31991 24.4748 8.27491 24.4598 8.20991C24.4598 8.15991 24.4598 8.10991 24.4448 8.05991C24.3798 8.05991 24.3448 8.05991 24.2998 8.09991C24.2848 8.13991 24.2898 8.22491 24.2998 8.28491V8.47991C24.2848 8.52991 24.2648 8.52991 24.2498 8.59491C24.2298 8.64991 24.2248 8.71991 24.2048 8.75991C24.1598 8.80491 24.1798 8.80991 24.1548 8.73491V8.28491C24.1548 8.20991 24.1698 8.16991 24.1698 8.09991C24.1448 8.04491 24.1398 8.02991 24.0598 8.02991C24.0488 8.07593 24.0488 8.1239 24.0598 8.16991C24.0598 8.23991 24.0648 8.30491 24.0748 8.35491L24.0848 8.53491C24.0848 8.60991 24.0698 8.66991 24.0348 8.69991C23.9948 8.71991 24.0348 8.74991 23.9898 8.76491C23.9424 8.73874 23.8986 8.70506 23.8598 8.66491C23.8098 8.64991 23.7698 8.63491 23.7048 8.63491C23.6248 8.63491 23.6248 8.62491 23.5948 8.55491C23.5719 8.48013 23.5552 8.40314 23.5448 8.32491C23.5198 8.25991 23.5148 8.21491 23.4948 8.13991C23.4793 8.10039 23.4553 8.06598 23.4248 8.03991C23.4098 8.11991 23.3948 8.17491 23.3948 8.25491C23.3798 8.28991 23.3748 8.37491 23.3648 8.40491C23.3448 8.36991 23.3348 8.28491 23.3148 8.22991C23.2998 8.14491 23.2798 8.08991 23.1998 8.11991C23.1198 8.11991 23.1198 8.11991 23.1198 8.21991L23.2148 8.37991V8.57991C23.2148 8.65991 23.2148 8.68491 23.1648 8.69991C23.1448 8.61991 23.1048 8.53491 23.0548 8.46491C23.0548 8.40991 23.0348 8.42491 22.9848 8.42491C22.9548 8.42491 22.9198 8.41991 22.8998 8.43991V8.55991C22.8748 8.56991 22.8648 8.55991 22.8448 8.53491C22.8198 8.57991 22.8348 8.63491 22.8448 8.68491C22.8342 8.74129 22.8139 8.79542 22.7848 8.84491C22.7748 8.82491 22.7648 8.83491 22.7848 8.83491C22.6998 8.79491 22.6348 8.77491 22.5648 8.74991C22.5298 8.74991 22.4948 8.79991 22.4748 8.83491C22.4098 8.85491 22.3848 8.87491 22.3148 8.87491L22.1648 8.88491C22.1148 8.89991 22.0648 8.90491 22.0048 8.90491C21.9748 8.88991 21.9148 8.88991 21.8998 8.87491C21.9248 8.83491 21.9498 8.81491 21.9698 8.74991C22.0058 8.72006 22.0393 8.68659 22.0698 8.64991L22.1598 8.53491C22.1798 8.46491 22.2098 8.45491 22.2448 8.42491C22.3198 8.42491 22.3298 8.45491 22.3998 8.46491C22.4698 8.49491 22.5098 8.50991 22.5498 8.44991C22.5998 8.42491 22.6498 8.37991 22.7098 8.36991L22.8298 8.28491C22.8798 8.24991 22.9048 8.20991 22.9498 8.16991C22.9648 8.11491 22.9998 8.06991 22.9848 8.00491C22.9198 7.98491 22.8798 7.98991 22.8348 8.02991C22.7898 8.07991 22.7848 8.09991 22.7198 8.13991C22.6698 8.15991 22.6498 8.18491 22.5898 8.19991C22.5398 8.21991 22.4798 8.20991 22.4248 8.20991C22.3698 8.20991 22.2998 8.20991 22.2698 8.22991C22.3198 8.18991 22.3848 8.14491 22.4348 8.12991C22.4848 8.09491 22.5048 8.07991 22.5698 8.06991C22.5998 8.02991 22.6248 8.02991 22.6398 7.95991C22.6598 7.87991 22.5898 7.90491 22.5398 7.93491C22.4948 7.94491 22.4398 7.98491 22.3998 7.99991C22.3514 8.01806 22.3009 8.02816 22.2498 8.02991C22.2298 8.00491 22.2548 7.98491 22.2698 7.94991C22.3198 7.92491 22.3348 7.91491 22.3398 7.84991C22.2748 7.85991 22.2548 7.88491 22.1948 7.88991C22.1327 7.90667 22.069 7.91673 22.0048 7.91991H21.8398C21.7798 7.91991 21.7498 7.90491 21.6798 7.90491C21.6298 7.87491 21.6298 7.86491 21.6298 7.77991C21.6698 7.72991 21.7048 7.73991 21.7798 7.73991L21.9098 7.66491C21.9548 7.65491 21.9798 7.63491 21.9698 7.61491H21.8048C21.7348 7.57991 21.8048 7.56491 21.8398 7.53991C21.8898 7.53991 21.9548 7.53991 21.9898 7.56491C22.0648 7.56491 22.0898 7.53991 22.1448 7.48491C22.1948 7.44491 22.2198 7.41491 22.2698 7.38491C22.3048 7.33991 22.3398 7.31491 22.3648 7.27491C22.4148 7.22491 22.4498 7.18991 22.4748 7.14491C22.5048 7.12491 22.5248 7.10491 22.5098 7.07491C22.4348 7.08491 22.3998 7.11991 22.3498 7.15991C22.3223 7.19222 22.2902 7.21925 22.2548 7.23991C22.2096 7.27739 22.1559 7.29991 22.0998 7.30491C22.0398 7.30491 21.9898 7.28991 21.9348 7.28491C21.8698 7.27991 21.9248 7.25991 21.9448 7.22991C21.9698 7.21491 21.9898 7.16991 21.9698 7.12991C21.9198 7.11491 21.8598 7.11991 21.8048 7.11991H21.6348C21.5698 7.11991 21.5448 7.09991 21.4998 7.07491C21.4898 7.03491 21.4998 7.04991 21.5498 7.04991C21.6024 7.04688 21.6544 7.0368 21.7048 7.01991C21.7598 7.00491 21.7698 6.97991 21.7798 6.90991C21.7198 6.90991 21.6598 6.90991 21.6248 6.89491L21.5148 6.89991ZM20.4798 6.57491C20.4698 6.47491 20.4448 6.41991 20.4448 6.31491C20.4448 6.23991 20.4448 6.28491 20.5148 6.17991L20.6148 6.07991C20.6798 6.03991 20.7348 5.99491 20.7998 5.95991C20.8498 5.92991 20.9498 5.90491 20.9848 5.87991C21.0432 5.8458 21.0944 5.79806 21.1348 5.73991C21.1448 5.65491 21.1548 5.58991 21.1548 5.48991C21.2248 5.43991 21.2798 5.40991 21.3398 5.38991C21.4248 5.35991 21.4398 5.31991 21.5298 5.30491C21.5798 5.28491 21.6698 5.28491 21.7498 5.28491C21.8298 5.28491 21.8848 5.35491 21.9598 5.36491C22.0498 5.40491 22.0898 5.43491 22.1598 5.50491C22.1998 5.56491 22.2298 5.61491 22.2948 5.65491C22.3498 5.68491 22.4048 5.73491 22.4648 5.75491C22.4648 5.82491 22.4798 5.81491 22.4348 5.81491C22.4298 5.88991 22.4148 5.87991 22.3498 5.88491C22.3049 5.85787 22.267 5.81824 22.2398 5.76991C22.2698 5.69991 22.2548 5.82991 22.2398 5.85491C22.2148 5.88491 22.1948 5.91491 22.1598 5.88491C22.1398 5.81491 22.1248 5.76991 22.1248 5.68491C22.1148 5.59991 22.0898 5.65991 22.0748 5.69991C22.0598 5.77491 22.0648 5.79991 22.0898 5.85491C22.0248 5.85491 21.9798 5.84491 21.9348 5.83991C21.8898 5.82491 21.8348 5.83991 21.7848 5.86991C21.7248 5.91491 21.7498 5.91491 21.7748 5.96991C21.8298 5.98491 21.8748 6.01991 21.9248 6.04991L22.0898 6.00991C22.1448 5.98491 22.1998 5.99991 22.2548 6.00991C22.2848 6.02991 22.3248 6.02991 22.3398 6.04991C22.3398 6.09491 22.3398 6.13991 22.3248 6.16491C22.3048 6.18491 22.2748 6.23491 22.2398 6.24491C22.1901 6.27859 22.1362 6.30387 22.0798 6.31991C22.0048 6.31991 21.9748 6.33991 21.9198 6.36991C21.9148 6.44991 21.8948 6.46491 21.8348 6.48991C21.7832 6.51728 21.7268 6.53096 21.6698 6.52991C21.6348 6.52991 21.5998 6.52991 21.5848 6.51491C21.6273 6.46755 21.6612 6.41154 21.6848 6.34991C21.6948 6.31491 21.7148 6.29991 21.6948 6.27491C21.6248 6.27491 21.6048 6.27491 21.5948 6.35491C21.5898 6.43491 21.5648 6.44991 21.5148 6.47491C21.5298 6.40491 21.5298 6.34991 21.5498 6.28991C21.5003 6.29954 21.4501 6.30456 21.3998 6.30491C21.3598 6.32991 21.3448 6.33991 21.3598 6.38491C21.3098 6.40491 21.2498 6.39491 21.1898 6.38491C21.1398 6.38491 21.1698 6.35991 21.1298 6.33491C21.1048 6.27991 21.0798 6.26491 21.0198 6.26491C20.9948 6.30491 20.9498 6.31491 20.9198 6.34491C20.8648 6.36491 20.8298 6.34491 20.7848 6.31991C20.7248 6.31991 20.7348 6.33991 20.7498 6.38991C20.7748 6.40491 20.7498 6.42491 20.7848 6.42991C20.8198 6.46491 20.8498 6.47491 20.9148 6.47491C20.9648 6.45491 21.0248 6.45991 21.0848 6.45991C21.1448 6.45991 21.1348 6.47491 21.1348 6.53991C21.0948 6.57491 21.0348 6.56991 20.9748 6.56991C20.9252 6.5633 20.8765 6.54986 20.8298 6.52991C20.7798 6.52991 20.7298 6.51491 20.6898 6.52991C20.6698 6.55491 20.6148 6.56491 20.6798 6.56991C20.7048 6.59991 20.8448 6.58491 20.8498 6.63491C20.8848 6.67491 20.8748 6.72991 20.8198 6.72991C20.8071 6.72093 20.7924 6.71616 20.7773 6.71616C20.7623 6.71616 20.7476 6.72093 20.7348 6.72991L20.5798 6.73491C20.6698 6.74491 20.5148 6.62491 20.4798 6.57491Z" fill="#FEFEFE"/>
<path fill-rule="evenodd" clip-rule="evenodd" d="M20.8547 6.10992L20.7847 6.15992L20.6397 6.27492C20.6147 6.29992 20.6147 6.31492 20.5847 6.31492C20.6347 6.30992 20.6647 6.28992 20.7147 6.26492C20.7747 6.25492 20.8347 6.23992 20.8647 6.20492C20.8997 6.19492 20.8647 6.13992 20.8547 6.10492V6.10992ZM21.4047 5.44992C21.4147 5.44992 21.4297 5.48992 21.4547 5.51992C21.4747 5.56992 21.4897 5.60992 21.4897 5.66992C21.5047 5.60492 21.5297 5.54992 21.5397 5.47492C21.5197 5.43492 21.5197 5.42492 21.4647 5.41992C21.4647 5.45992 21.4747 5.42992 21.4047 5.44992Z" fill="#BCBCBC"/>
<path fill-rule="evenodd" clip-rule="evenodd" d="M21.0757 5.94571C21.0486 5.94571 21.1191 5.91404 21.1462 5.90771C21.1679 5.85704 21.1787 5.82537 21.2167 5.7937C21.2763 5.7937 21.3088 5.81904 21.336 5.86337C21.3902 5.88237 21.4064 5.90771 21.4661 5.92038C21.4932 5.94571 21.5203 5.94571 21.4661 5.96471C21.4336 5.98371 21.3848 5.99005 21.3251 5.99005C21.2761 5.99434 21.2283 6.00938 21.1841 6.03438C21.1028 6.03438 21.1136 6.03438 21.0757 5.94571Z" fill="#C4C4C2" stroke="black" stroke-width="0.0527433"/>
<path fill-rule="evenodd" clip-rule="evenodd" d="M21.6248 5.45983V5.47483C21.6248 5.43483 21.6248 5.45483 21.6348 5.53483C21.6542 5.58697 21.6628 5.64342 21.6598 5.69983C21.6948 5.6666 21.7208 5.62333 21.7348 5.57483C21.7348 5.46483 21.7148 5.46983 21.6248 5.45983ZM22.0648 7.07483H22.0798C22.0398 7.07483 22.0648 7.07483 22.1248 7.03483C22.1648 7.00483 22.1998 6.95483 22.2548 6.93483C22.3003 6.89076 22.3529 6.85683 22.4098 6.83483C22.4398 6.81983 22.4648 6.79483 22.4948 6.82483C22.4898 6.88983 22.4748 6.92483 22.4198 6.94983C22.3948 6.98983 22.3548 7.01483 22.3198 7.02983C22.2798 7.05483 22.2348 7.05483 22.2198 7.10483C22.1548 7.13983 22.1448 7.12983 22.0698 7.07483H22.0648ZM22.2948 7.48483C22.3098 7.46483 22.3898 7.37483 22.4248 7.34483C22.4579 7.29136 22.4984 7.24411 22.5448 7.20483C22.5798 7.14483 22.6248 7.10483 22.6548 7.04983L22.7498 6.90983C22.7498 6.96983 22.7398 7.04983 22.7598 7.08983C22.7622 7.14984 22.7483 7.20925 22.7198 7.25983C22.6948 7.30983 22.6698 7.33983 22.6098 7.37483C22.5598 7.40483 22.5298 7.41483 22.4848 7.45483C22.4495 7.48089 22.4128 7.50428 22.3748 7.52483C22.3398 7.53983 22.3548 7.53983 22.2948 7.48483ZM21.9198 7.80483H21.9348C21.8998 7.80483 21.9148 7.80483 21.9848 7.76483C22.0348 7.70483 22.0748 7.67983 22.1348 7.65483C22.187 7.65185 22.2381 7.63652 22.2848 7.60983C22.3098 7.60483 22.3348 7.58483 22.3498 7.60983C22.3898 7.66983 22.3998 7.68483 22.3398 7.72483C22.3043 7.75678 22.2635 7.78058 22.2198 7.79483C22.1898 7.81983 22.1298 7.81983 22.0698 7.83483C22.0298 7.83483 21.9998 7.83983 21.9798 7.80483L22.0798 7.83483C22.0298 7.83483 22.0048 7.83983 21.9198 7.80483ZM22.4348 7.80483V7.79483C22.4348 7.83483 22.4348 7.81483 22.4598 7.73483C22.5098 7.65483 22.5198 7.60983 22.5798 7.59483C22.6048 7.55483 22.6548 7.54483 22.7098 7.52483C22.7348 7.56483 22.7148 7.61483 22.7098 7.66483C22.6948 7.71483 22.6548 7.75483 22.6248 7.79483C22.5898 7.81983 22.5748 7.84983 22.5148 7.86483C22.4748 7.86483 22.4998 7.86483 22.4348 7.80483Z" fill="#BCBCBC"/>
<path fill-rule="evenodd" clip-rule="evenodd" d="M21.2648 5.98504C21.2648 6.02004 21.2398 6.05504 21.2048 6.05504C21.1698 6.05504 21.1448 6.02004 21.1448 5.98504C21.1448 5.94504 21.1748 5.91504 21.2048 5.91504C21.2398 5.91504 21.2648 5.94004 21.2648 5.98504Z" fill="black"/>
<path fill-rule="evenodd" clip-rule="evenodd" d="M21.4429 9.80639H21.4917C21.3399 9.80639 21.432 9.79373 21.6815 10.0281C21.7899 9.92674 21.7899 9.91407 21.8712 10.0914C21.9255 10.1864 21.9363 10.0787 22.0177 9.9774C22.0556 10.1801 22.0773 10.3891 22.2074 10.1991C22.3593 10.1991 22.5111 10.1864 22.5924 10.2561C22.69 10.4651 22.6575 10.2181 22.7334 10.3131C22.9503 10.3384 22.9449 10.0977 23.1726 10.0344C23.3136 10.2434 23.3787 10.0851 23.5522 9.98374C23.6878 10.0217 23.8125 10.2561 23.8396 10.0281C23.948 9.8254 23.9534 9.83806 24.0294 10.0281C24.1378 10.1421 24.1812 9.9774 24.2679 9.9204C24.4306 10.0281 24.6096 10.0471 24.8427 9.9774C24.8861 10.1611 24.9837 10.0787 25.0867 10.0281C25.2982 10.1357 25.3687 10.1674 25.6127 10.0281C25.732 9.8634 25.6669 10.0344 25.7537 10.1421C25.9326 10.0787 25.8838 10.0661 26.0899 10.0851C26.3013 10.0851 26.3176 10.0851 26.3773 9.9204C26.4857 10.0407 26.5182 10.1294 26.6646 9.9774C26.8924 9.9774 26.8219 10.0091 26.952 9.91407C27.0551 10.1674 27.0767 9.99007 27.196 10.0851C27.129 10.2722 27.0108 10.4281 26.8599 10.5284C26.7677 10.7184 26.708 10.9085 26.5237 10.9845C26.3881 11.1428 26.2417 11.2378 26.0899 11.3772C25.8838 11.4405 25.6561 11.4278 25.4229 11.4278H23.4058C23.2648 11.5165 23.0262 11.5545 22.831 11.5988C22.6141 11.5988 22.3593 11.5988 22.2074 11.5418C22.1044 11.4215 21.9255 11.2885 21.8279 11.1491C21.7194 11.0541 21.7194 10.8705 21.6327 10.7565C21.5567 10.5981 21.5242 10.3448 21.4429 10.1991V9.80639Z" fill="#005120" stroke="#002B0D" stroke-width="0.0781382"/>
<path fill-rule="evenodd" clip-rule="evenodd" d="M26.0901 10.3131V10.3638C26.0901 10.2118 26.0955 10.2941 25.9925 10.5918C25.9762 10.6615 25.9274 10.6805 25.8515 10.7058M25.6617 10.5348H25.7105C25.5316 10.7248 25.4123 10.8198 25.3743 11.0415L25.7105 10.5348C25.5316 10.7248 25.4123 10.8198 25.3743 11.0415M24.9893 10.2561C24.9893 10.2561 24.9839 10.4524 24.9405 10.5348L24.9893 10.2561ZM24.4146 10.3131H24.4634H24.4091C24.4308 10.3131 24.4471 10.3131 24.4091 10.3131H24.4146ZM21.7305 10.3131C21.7522 10.3131 21.8498 10.4904 21.9691 10.5918C21.9419 10.7565 21.8931 10.9465 21.9691 11.0985M22.1155 10.6488C22.1371 10.6488 22.2293 10.8261 22.354 10.9275L22.1155 10.6488C22.1371 10.6488 22.2293 10.8261 22.354 10.9275V10.9845C22.354 10.8071 22.3432 10.6298 22.4028 10.5348C22.4571 10.6425 22.5221 10.8071 22.5438 10.6488C22.8149 10.6361 22.9451 10.5475 23.1186 10.4778C23.1186 10.5601 23.1078 10.5221 23.1728 10.5918M26.4263 10.3638H26.4751C26.3829 10.4524 26.3124 10.6361 26.2365 10.7565M24.4634 10.1991H24.8429H24.4634Z" fill="#005120"/>
<path d="M26.0901 10.3131V10.3638C26.0901 10.2118 26.0955 10.2941 25.9925 10.5918C25.9762 10.6615 25.9274 10.6805 25.8515 10.7058M25.6617 10.5348H25.7105M25.7105 10.5348C25.5316 10.7248 25.4123 10.8198 25.3743 11.0415L25.7105 10.5348ZM24.9893 10.2561C24.9893 10.2561 24.9839 10.4524 24.9405 10.5348M24.7995 10.6488V10.6995M24.4091 10.3131H24.4634H24.4146H24.4091ZM24.4091 10.3131C24.4308 10.3131 24.4471 10.3131 24.4091 10.3131ZM21.7305 10.3131C21.7522 10.3131 21.8498 10.4904 21.9691 10.5918C21.9419 10.7565 21.8931 10.9465 21.9691 11.0985M22.354 10.9275C22.2293 10.8261 22.1371 10.6488 22.1155 10.6488L22.354 10.9275ZM22.354 10.9275V10.9845C22.354 10.8071 22.3432 10.6298 22.4028 10.5348C22.4571 10.6425 22.5221 10.8071 22.5438 10.6488C22.8149 10.6361 22.9451 10.5475 23.1186 10.4778C23.1186 10.5601 23.1078 10.5221 23.1728 10.5918M26.4263 10.3638H26.4751C26.3829 10.4524 26.3124 10.6361 26.2365 10.7565M24.4634 10.1991H24.8429" stroke="#002B0D" stroke-width="0.0781382"/>
<path fill-rule="evenodd" clip-rule="evenodd" d="M21.2949 10.715C20.7199 10.715 20.5249 11.39 19.9499 11.39H19.9199V11.43C19.9199 11.9 19.9499 12.335 20.0099 12.74C20.5399 12.7 20.7349 12.07 21.2949 12.07C21.8699 12.07 22.0599 12.74 22.6349 12.74C23.2149 12.74 23.4049 12.07 23.9799 12.07C24.5549 12.07 24.7499 12.74 25.3249 12.74C25.8999 12.74 26.0899 12.07 26.6649 12.07C27.2149 12.07 27.4149 12.695 27.9449 12.74C28.0114 12.2939 28.0431 11.8422 28.0399 11.39H28.0049C27.4299 11.39 27.2399 10.72 26.6649 10.72C26.0899 10.72 25.8949 11.395 25.3249 11.395C24.7499 11.395 24.5549 10.72 23.9749 10.72C23.4049 10.72 23.2099 11.395 22.6349 11.395C22.0649 11.395 21.8699 10.72 21.2949 10.72V10.715ZM21.2949 13.35C20.8449 13.35 20.6349 13.76 20.2849 13.94C20.4002 14.2956 20.5441 14.6387 20.7149 14.965C20.8799 14.825 21.0499 14.705 21.2949 14.705C21.8699 14.705 22.0599 15.38 22.6349 15.38C23.2149 15.38 23.4049 14.705 23.9799 14.705C24.5549 14.705 24.7499 15.38 25.3199 15.38C25.8899 15.38 26.0899 14.705 26.6649 14.705C26.873 14.7135 27.0723 14.8017 27.2299 14.955C27.4002 14.6301 27.5441 14.2887 27.6599 13.935C27.3249 13.75 27.1099 13.35 26.6599 13.35C26.0899 13.35 25.8949 14.025 25.3199 14.025C24.7449 14.025 24.5499 13.35 23.9799 13.35C23.4099 13.35 23.2099 14.025 22.6349 14.025C22.0649 14.025 21.8699 13.35 21.2949 13.35ZM23.9799 15.985C23.4049 15.985 23.2099 16.66 22.6349 16.66C22.0899 16.66 21.8899 16.06 21.3849 15.99C21.9257 16.6632 22.5933 17.2238 23.3499 17.64C23.5299 17.48 23.7149 17.82 23.9749 17.82C24.2399 17.82 24.4249 17.475 24.5999 17.63C25.3363 17.2287 25.9981 16.6739 26.5499 15.995C26.0599 16.08 25.8499 16.66 25.3199 16.66C24.7449 16.66 24.5549 15.985 23.9799 15.985Z" fill="white"/>
<path d="M20.4158 13.4136C20.6021 13.3396 20.7915 13.2764 20.9832 13.2244L21.8641 14.2149L21.1399 14.3852L20.4158 13.4136Z" stroke="#512007" stroke-width="0.0291952"/>
<path d="M22.1533 15.0303C22.1671 14.8004 22.5566 13.4807 22.5566 13.4807M22.2862 15.0453L22.5933 13.4907M22.3916 15.0503L22.6482 13.4907M22.1671 14.8404C22.2358 14.8004 22.4329 14.7404 22.4329 14.7404M22.2633 14.6104C22.3275 14.6104 22.4604 14.5504 22.4604 14.5504M22.3 14.4355C22.3653 14.4085 22.4328 14.3884 22.5016 14.3755M22.3275 14.2155L22.5428 14.1755M22.4237 14.0256C22.4237 14.0406 22.5703 14.0406 22.5703 14.0406M22.4604 13.8556L22.607 13.8806" stroke="#512007" stroke-width="0.0287169"/>
<path d="M24.6687 15.9926C24.6525 15.5997 24.1931 13.3447 24.1931 13.3447M24.512 15.9157L24.1499 13.3533M24.3499 15.7193C24.3391 15.574 24.0851 13.3618 24.0851 13.3618M24.6525 15.668C24.5714 15.5997 24.3391 15.4972 24.3391 15.4972M24.539 15.2751C24.4633 15.2751 24.3066 15.1726 24.3066 15.1726M24.4958 14.9761C24.4188 14.9301 24.3391 14.8958 24.258 14.8736M24.4633 14.6003L24.2094 14.532M24.3499 14.2757C24.3499 14.3014 24.1769 14.3014 24.1769 14.3014M24.3066 13.9853L24.1337 14.028" stroke="#512007" stroke-width="0.027176"/>
<path d="M26.0046 15.1841C25.9884 14.8939 25.5291 13.2283 25.5291 13.2283M25.8479 15.1273L25.4858 13.2346M25.6858 14.9822C25.675 14.8749 25.421 13.2409 25.421 13.2409M25.9884 14.9443C25.9074 14.8939 25.675 14.8181 25.675 14.8181M25.8749 14.6541C25.7993 14.6541 25.6426 14.5784 25.6426 14.5784M25.8317 14.4333C25.7547 14.3993 25.6751 14.374 25.5939 14.3576M25.7993 14.1557L25.5453 14.1052M25.6858 13.916C25.6858 13.9349 25.5129 13.9349 25.5129 13.9349M25.6426 13.7014L25.4696 13.733" stroke="#512007" stroke-width="0.0291952"/>
<path fill-rule="evenodd" clip-rule="evenodd" d="M23.8095 15.3569L23.8582 10.7513C23.8582 10.7513 23.9987 10.7324 23.9987 10.7513C23.9987 10.7703 23.9825 15.338 23.9662 15.3569C23.95 15.3759 23.7933 15.3885 23.8095 15.3569ZM25.3497 10.9532L25.3173 14.8207L25.2092 14.9721L25.2416 10.9532H25.3497Z" fill="#DD8B59" stroke="#512007" stroke-width="0.0291952"/>
<path fill-rule="evenodd" clip-rule="evenodd" d="M22.0641 14.5998C22.0641 14.5998 22.2262 16.4925 24.0312 16.4357C25.8361 16.379 26.3387 14.5304 26.3387 14.5304L25.5551 14.4926C25.5389 14.4926 24.9282 15.3758 24.1392 15.3569C23.3502 15.338 23.1017 15.1172 22.9287 14.9342C22.7558 14.7449 22.6045 14.4736 22.6045 14.4736L21.6858 14.0509L21.7398 14.4547L22.0641 14.5998ZM26.9439 14.4105L26.8899 14.1582V13.9437L26.9764 13.7166C26.9764 13.7166 25.6091 13.95 25.6091 13.9689L25.6037 14.3979L26.9439 14.4042V14.4105Z" fill="#DD8B59" stroke="#512007" stroke-width="0.0291952"/>
<path d="M22.0046 14.5808C22.0533 14.5808 22.4153 14.6755 22.4153 14.6755L22.7936 15.2622M26.6846 13.9436L26.6521 14.3221H26.8737L26.8575 13.9436H26.6846ZM26.4522 13.9625L26.436 14.3663L26.5765 14.3474L26.5927 13.9625H26.4522ZM26.2144 14.3663V14.0509L26.3549 13.9941L26.3711 14.3095L26.2144 14.3663ZM25.9442 14.3474L25.9766 14.0698L26.1387 14.0887L26.1496 14.3852L25.9442 14.3474ZM25.647 14.3474L25.6632 14.1076L25.8253 14.0887V14.3663L25.647 14.3474Z" stroke="#512007" stroke-width="0.0291952"/>
<path d="M22.2693 14.6566C22.2855 14.6755 22.5989 15.9058 24.1067 15.9058C25.6144 15.9058 25.9765 14.5115 25.9765 14.5115" stroke="#512007" stroke-width="0.0291952"/>
<path d="M26.2143 14.5493C26.2143 14.5493 25.4901 16.3789 24.1067 16.2528C22.7287 16.1266 22.5071 15.5209 22.399 15.2055C22.2909 14.89 22.2261 14.6376 22.2261 14.6376" stroke="#512007" stroke-width="0.0291952"/>
<path fill-rule="evenodd" clip-rule="evenodd" d="M22.6152 14.4735C22.6315 14.3663 22.6315 11.0414 22.6315 11.0414L22.5396 11.0288L22.5234 14.4168L22.6152 14.4798V14.4735ZM20.3726 13.3947L21.5615 14.0698L21.5344 14.1644C21.5344 14.1644 20.3888 13.5335 20.3888 13.5146C20.3888 13.4956 20.3996 13.4199 20.3726 13.3884V13.3947Z" fill="#DD8B59" stroke="#512007" stroke-width="0.0291952"/>
<path fill-rule="evenodd" clip-rule="evenodd" d="M20.9185 13.1928C20.9185 13.2433 21.0914 14.3663 21.0914 14.3663C21.0914 14.3663 21.1995 14.3852 21.1995 14.3663L21.0157 13.2117L20.9185 13.1928ZM22.0209 13.2244C22.0803 13.2244 23.1557 13.0225 23.1557 13.0225L23.1341 13.2244L22.0803 13.3505L22.0209 13.2244Z" fill="#DD8B59" stroke="#512007" stroke-width="0.0291952"/>
<path fill-rule="evenodd" clip-rule="evenodd" d="M22.1721 11.704C22.2099 11.704 22.5504 11.9058 22.6963 11.8554C22.8422 11.8049 22.745 11.6661 22.772 11.6661C22.8044 11.6661 22.9125 11.7607 22.9773 11.685C23.0422 11.6156 23.0854 11.3948 23.0584 11.4137C23.026 11.4327 22.1937 11.7797 22.1775 11.704H22.1721Z" fill="#FECF3E" stroke="#512007" stroke-width="0.0291952"/>
<path fill-rule="evenodd" clip-rule="evenodd" d="M22.0369 12.1646C22.0963 12.1836 23.323 11.7798 23.323 11.7798C23.323 11.7798 23.323 11.906 23.3068 11.906L22.0369 12.2908V12.1646Z" fill="#DD8B59" stroke="#512007" stroke-width="0.0291952"/>
<path fill-rule="evenodd" clip-rule="evenodd" d="M24.8742 11.5967C24.8742 11.5967 24.9552 11.8175 25.0363 11.7797C25.1174 11.7418 25.193 11.6661 25.193 11.6661C25.193 11.6661 25.2579 11.8554 25.3659 11.8175C25.474 11.7797 25.5389 11.5778 25.5389 11.5778C25.5389 11.5778 25.647 11.6156 25.6956 11.5967C25.7442 11.5778 25.8037 11.2812 25.8037 11.2812L24.8742 11.5967ZM24.7823 13.3758C24.7661 13.4137 24.8634 13.502 24.9444 13.502C25.0255 13.502 25.0525 13.3758 25.0687 13.4137C25.0849 13.4452 25.0849 13.6156 25.2849 13.5588C25.4848 13.502 25.4902 13.338 25.4902 13.338C25.4902 13.338 25.4308 13.3948 25.5713 13.4137C25.7118 13.4326 25.8523 13.174 25.8415 13.174C25.8199 13.174 24.8147 13.3948 24.7823 13.3758Z" fill="#FECF3E" stroke="#512007" stroke-width="0.0291952"/>
<path fill-rule="evenodd" clip-rule="evenodd" d="M22.0856 11.6282C22.0757 11.685 22.0794 11.744 22.0964 11.7985L23.1231 11.3947C23.1231 11.3947 23.1664 11.3001 23.1231 11.3001C23.0799 11.3001 22.0694 11.666 22.0802 11.6345L22.0856 11.6282ZM23.4366 11.3758C23.4636 11.3758 24.485 10.991 24.485 10.991C24.485 10.991 24.5012 11.155 24.485 11.155L23.5285 11.4831L23.4312 11.3758H23.4366Z" fill="#DD8B59" stroke="#512007" stroke-width="0.0291952"/>
<path fill-rule="evenodd" clip-rule="evenodd" d="M24.7822 12.1834C24.7822 12.1834 24.6255 12.3853 24.6742 12.6566C24.7228 12.9342 24.7822 13.174 24.7985 13.174C24.8147 13.174 24.9876 12.808 25.1767 12.7891C25.3659 12.7702 25.7117 12.991 25.7117 12.991C25.7117 12.991 25.6631 12.5494 25.6793 12.3475C25.6955 12.1456 25.9603 11.7986 25.9603 11.7986L24.7822 12.1771V12.1834Z" fill="#FECF3E" stroke="#512007" stroke-width="0.0291952"/>
<path fill-rule="evenodd" clip-rule="evenodd" d="M23.3555 11.8492C23.3555 11.8492 23.323 12.0195 23.3393 12.0195L24.6741 11.6157V11.4958L23.3555 11.8428V11.8492Z" fill="#DD8B59" stroke="#512007" stroke-width="0.0291952"/>
<path fill-rule="evenodd" clip-rule="evenodd" d="M21.6587 14.0698C21.6587 14.0698 21.3452 14.0193 21.3614 14.1076C21.3777 14.2023 21.5182 14.2906 21.5344 14.3474C21.5506 14.4042 21.4857 14.5997 21.583 14.5871C21.6749 14.5682 21.7668 14.4925 21.7668 14.4357L21.7505 14.1202L21.6587 14.0698Z" fill="#B6B6B4" stroke="#512007" stroke-width="0.0291952"/>
<path fill-rule="evenodd" clip-rule="evenodd" d="M23.4041 13.1551V13.2813L24.5335 13.0983L24.5011 13.0037L23.4041 13.1551Z" fill="#DD8B59" stroke="#512007" stroke-width="0.0291952"/>
<path fill-rule="evenodd" clip-rule="evenodd" d="M22.064 13.376C22.0856 13.376 22.064 13.54 22.1937 13.5022C22.318 13.4643 22.3504 13.376 22.3504 13.376C22.3504 13.376 22.3829 13.5779 22.5558 13.559C22.7287 13.54 22.826 13.3192 22.826 13.3192C22.826 13.3192 22.8368 13.4833 22.9449 13.4265C23.053 13.3697 23.0854 13.2435 23.0854 13.2435L22.0964 13.4075L22.064 13.376ZM22.064 12.2908C22.064 12.2908 21.9235 12.3476 21.9721 12.6757C22.0208 13.0038 22.1343 13.193 22.1451 13.193C22.1613 13.193 22.2856 12.8776 22.4747 12.8271C22.6639 12.764 22.9935 12.9911 22.9935 12.9911C22.9935 12.9911 22.9611 12.6946 23.0097 12.4233C23.0444 12.2467 23.1148 12.0823 23.2151 11.9438C23.2151 11.9438 22.1127 12.2908 22.0694 12.2908H22.064Z" fill="#FECF3E" stroke="#512007" stroke-width="0.0291952"/>
<path fill-rule="evenodd" clip-rule="evenodd" d="M24.7064 13.2433L24.7226 13.3568C24.7226 13.3568 25.8575 13.1928 25.8575 13.1676C25.8575 13.1549 25.8575 13.0414 25.8358 13.0414C25.8196 13.0414 24.7226 13.2622 24.701 13.2433H24.7064ZM24.6902 12.0698L24.7064 12.196L26.0412 11.7796C26.0412 11.7796 26.0736 11.666 26.0574 11.666C26.0412 11.666 24.7226 12.1266 24.6902 12.0698Z" fill="#DD8B59" stroke="#512007" stroke-width="0.0291952"/>
<path d="M26.9223 13.6093L25.9496 11.8175M25.8199 13.0604C25.8361 13.0099 25.8847 11.9058 25.8847 11.9058M24.8309 11.4831C24.8309 11.4831 24.8147 11.5967 24.8309 11.5967C24.8471 11.5967 25.8199 11.3191 25.8199 11.3002C25.8199 11.2812 25.9172 11.174 25.8361 11.1929C25.7604 11.2118 24.8634 11.5399 24.8309 11.4831Z" stroke="#512007" stroke-width="0.0291952"/>
<path fill-rule="evenodd" clip-rule="evenodd" d="M23.4689 11.4326C23.523 11.4453 23.6364 11.6345 23.7013 11.5967C23.7661 11.5588 23.858 11.4453 23.858 11.4453C23.858 11.4453 23.8418 11.6661 23.9661 11.6345C24.0958 11.5967 24.112 11.4453 24.112 11.4453C24.112 11.4453 24.2039 11.5083 24.2849 11.4453C24.3606 11.3948 24.4362 11.1172 24.4092 11.1172C24.3822 11.1172 23.4959 11.4453 23.4635 11.4326H23.4689ZM23.4365 11.9626C23.4365 12.0005 23.2744 12.2907 23.3284 12.5683C23.3825 12.8459 23.4635 13.0982 23.4797 13.0982C23.4959 13.0982 23.7337 12.808 23.9391 12.7512C24.139 12.6944 24.4416 12.9342 24.4254 12.9342C24.4092 12.9342 24.3444 12.6566 24.3444 12.4547C24.3444 12.2528 24.5822 11.6345 24.5822 11.6345L23.4365 11.9626ZM23.4365 13.2875C23.4365 13.3001 23.4797 13.4263 23.5932 13.4263C23.7013 13.4263 23.7175 13.3001 23.7175 13.3001C23.7175 13.3001 23.7013 13.5209 23.8742 13.502C24.0472 13.4831 24.1066 13.2812 24.1066 13.2812C24.1066 13.2812 24.1228 13.3947 24.2687 13.338C24.4092 13.2812 24.593 13.0982 24.5822 13.0982C24.5659 13.0982 23.4473 13.338 23.4311 13.2875H23.4365Z" fill="#FECF3E" stroke="#512007" stroke-width="0.0291952"/>
<path fill-rule="evenodd" clip-rule="evenodd" d="M23.5664 12.5854C23.5887 12.5864 23.6096 12.5977 23.6247 12.6169C23.6398 12.6361 23.6478 12.6616 23.6469 12.6878C23.6461 12.7139 23.6364 12.7386 23.6201 12.7565C23.6037 12.7743 23.5821 12.7837 23.5599 12.7827C23.5376 12.7818 23.5167 12.7704 23.5016 12.7512C23.4865 12.732 23.4785 12.7066 23.4794 12.6804C23.4802 12.6542 23.4899 12.6295 23.5062 12.6117C23.5226 12.5939 23.5442 12.5844 23.5664 12.5854Z" fill="#BE0F17" stroke="#512007" stroke-width="0.0287335"/>
<path fill-rule="evenodd" clip-rule="evenodd" d="M24.137 12.4155C24.1592 12.4165 24.1802 12.4278 24.1953 12.447C24.2104 12.4662 24.2184 12.4917 24.2175 12.5178C24.2166 12.544 24.207 12.5687 24.1906 12.5865C24.1743 12.6043 24.1526 12.6138 24.1304 12.6128C24.1082 12.6118 24.0872 12.6005 24.0721 12.5813C24.057 12.5621 24.049 12.5366 24.0499 12.5105C24.0508 12.4843 24.0605 12.4596 24.0768 12.4418C24.0931 12.424 24.1148 12.4145 24.137 12.4155Z" fill="#BE0F17" stroke="#512007" stroke-width="0.0287335"/>
<path fill-rule="evenodd" clip-rule="evenodd" d="M23.8518 12.7649C23.8741 12.7658 23.895 12.7772 23.9101 12.7964C23.9252 12.8156 23.9332 12.841 23.9323 12.8672C23.9315 12.8934 23.9218 12.9181 23.9055 12.9359C23.8891 12.9537 23.8675 12.9632 23.8453 12.9622C23.823 12.9612 23.8021 12.9499 23.787 12.9307C23.7719 12.9115 23.7639 12.886 23.7648 12.8598C23.7656 12.8337 23.7753 12.809 23.7916 12.7911C23.808 12.7733 23.8296 12.7639 23.8518 12.7649Z" fill="#BE0F17" stroke="#512007" stroke-width="0.0287335"/>
<path fill-rule="evenodd" clip-rule="evenodd" d="M23.8518 12.2309C23.8741 12.2319 23.895 12.2432 23.9101 12.2624C23.9252 12.2816 23.9332 12.3071 23.9323 12.3333C23.9315 12.3594 23.9218 12.3841 23.9055 12.402C23.8891 12.4198 23.8675 12.4292 23.8453 12.4282C23.823 12.4273 23.8021 12.4159 23.787 12.3967C23.7719 12.3775 23.7639 12.3521 23.7648 12.3259C23.7656 12.2997 23.7753 12.275 23.7916 12.2572C23.808 12.2394 23.8296 12.2299 23.8518 12.2309Z" fill="#BE0F17" stroke="#512007" stroke-width="0.0287335"/>
<path d="M23.9661 10.8017C23.9661 10.7891 24.4525 11.0415 24.4525 11.0604C24.4525 11.0793 26.1818 13.7607 26.198 13.7607M25.3333 11.0604L25.7765 11.2812L25.917 11.685M22.5989 11.0289C22.5826 11.0289 23.0852 11.4705 23.0852 11.4705L23.1501 11.8301M20.8912 13.7039C21.1073 13.5966 22.6313 12.0383 22.6313 12.0383M20.4805 13.4074L22.1936 11.7228M23.3392 11.9752L24.9604 15.1171M24.7659 13.2749C24.7659 13.2749 24.955 14.013 25.1442 14.1266C25.2853 14.215 25.4224 14.3119 25.5549 14.4168" stroke="#512007" stroke-width="0.0291952"/>
<path d="M24.7444 13.2939C24.7444 13.2939 24.8795 14.1646 25.0686 14.3286C25.2578 14.4927 25.4469 14.6756 25.4469 14.6756" stroke="#512007" stroke-width="0.0291952"/>
<path d="M23.4431 13.2866C23.4431 13.2866 23.6269 14.498 24.0051 14.7756C24.2369 14.9437 24.4675 15.1141 24.6969 15.2866" stroke="#512007" stroke-width="0.0291952"/>
<path d="M23.4267 13.2676C23.4267 13.2676 23.8321 14.2265 24.1833 14.5168C24.5238 14.8133 24.9939 15.0846 24.9939 15.0846M22.1082 13.3496C22.2162 13.5704 22.2 13.9931 22.3243 14.1382C22.4386 14.289 22.5433 14.4492 22.6378 14.6177M22.1352 13.3622C22.2 13.4695 22.373 14.0184 22.481 14.1824C22.5621 14.3338 23.3619 15.2675 23.3619 15.2675" stroke="#512007" stroke-width="0.0291952"/>
<path fill-rule="evenodd" clip-rule="evenodd" d="M23.0972 15.3117C23.0972 15.3299 23.0941 15.348 23.0881 15.3648C23.0821 15.3816 23.0734 15.3969 23.0623 15.4098C23.0513 15.4227 23.0382 15.4329 23.0238 15.4399C23.0093 15.4469 22.9939 15.4505 22.9783 15.4505C22.9627 15.4505 22.9472 15.4469 22.9328 15.4399C22.9183 15.4329 22.9052 15.4227 22.8942 15.4098C22.8832 15.3969 22.8744 15.3816 22.8684 15.3648C22.8624 15.348 22.8594 15.3299 22.8594 15.3117C22.8594 15.2749 22.8719 15.2396 22.8942 15.2135C22.9165 15.1875 22.9467 15.1729 22.9783 15.1729C23.0098 15.1729 23.04 15.1875 23.0623 15.2135C23.0846 15.2396 23.0972 15.2749 23.0972 15.3117ZM23.6754 15.6082C23.6754 15.64 23.6646 15.6705 23.6453 15.693C23.6261 15.7155 23.5999 15.7281 23.5727 15.7281C23.5455 15.7281 23.5194 15.7155 23.5001 15.693C23.4809 15.6705 23.47 15.64 23.47 15.6082C23.47 15.5764 23.4809 15.5459 23.5001 15.5234C23.5194 15.501 23.5455 15.4883 23.5727 15.4883C23.5999 15.4883 23.6261 15.501 23.6453 15.5234C23.6646 15.5459 23.6754 15.5764 23.6754 15.6082ZM24.4157 15.6839C24.4157 15.7157 24.4049 15.7462 24.3857 15.7687C24.3664 15.7912 24.3403 15.8038 24.3131 15.8038C24.2858 15.8038 24.2597 15.7912 24.2405 15.7687C24.2212 15.7462 24.2104 15.7157 24.2104 15.6839C24.2104 15.6521 24.2212 15.6216 24.2405 15.5992C24.2597 15.5767 24.2858 15.564 24.3131 15.564C24.3403 15.564 24.3664 15.5767 24.3857 15.5992C24.4049 15.6216 24.4157 15.6521 24.4157 15.6839ZM25.0588 15.4C25.0588 15.4631 25.021 15.5073 24.9724 15.5073C24.9237 15.5073 24.8859 15.4568 24.8859 15.4C24.8859 15.3432 24.9237 15.2864 24.9724 15.2864C25.021 15.2864 25.0588 15.3369 25.0588 15.4ZM25.5776 15.0404C25.5776 15.0972 25.529 15.1413 25.4749 15.1413C25.4209 15.1413 25.3723 15.0972 25.3723 15.0404C25.3723 14.9836 25.4209 14.9395 25.4749 14.9395C25.529 14.9395 25.5776 14.9836 25.5776 15.0404Z" fill="black" stroke="#512007" stroke-width="0.0291952"/>
<path fill-rule="evenodd" clip-rule="evenodd" d="M22.5298 11.1036C22.4811 11.1414 21.6976 11.3622 21.8056 11.3433C21.9137 11.3244 22.546 11.5326 22.5298 11.4695C22.5136 11.4064 22.5298 11.1414 22.5298 11.1036ZM23.8646 10.8323C23.8322 10.8323 23.3782 11.0342 23.3944 11.0342C23.4106 11.0342 23.9132 11.1982 23.897 11.1603C23.8808 11.1225 23.8808 10.8827 23.8646 10.8323ZM25.2318 11.0152C25.1994 11.0342 24.6644 11.1793 24.7617 11.1982C24.8589 11.2171 25.2156 11.3622 25.2156 11.3244C25.2156 11.2928 25.2156 11.0342 25.2318 11.0089V11.0152Z" fill="#FF0000" stroke="#512007" stroke-width="0.0291952"/>
<path d="M24.6646 15.3054C24.6808 15.0152 25.1401 13.3496 25.1401 13.3496M24.8213 15.2486L25.1833 13.3559M24.9834 15.1035C24.9942 14.9963 25.2482 13.3622 25.2482 13.3622M24.6808 15.0657C24.7618 15.0152 24.9942 14.9395 24.9942 14.9395M24.7942 14.7755C24.8699 14.7755 25.0266 14.6997 25.0266 14.6997M24.8375 14.5546C24.9145 14.5206 24.9941 14.4953 25.0753 14.4789M24.8699 14.277L25.1239 14.2266M24.9834 14.0373C24.9834 14.0562 25.1563 14.0562 25.1563 14.0562M25.0266 13.8228L25.1996 13.8543" stroke="#512007" stroke-width="0.0291952"/>
<path d="M23.3242 15.517C23.3404 15.2134 23.7998 13.4709 23.7998 13.4709M23.4809 15.5368L23.843 13.4841M23.6052 15.5434L23.9079 13.4841M23.3404 15.2662C23.4215 15.2134 23.6539 15.1342 23.6539 15.1342M23.4539 14.9626C23.5296 14.9626 23.6863 14.8834 23.6863 14.8834M23.4971 14.7316C23.5742 14.696 23.6538 14.6695 23.7349 14.6524M23.5296 14.4412L23.7836 14.3884M23.6431 14.1904C23.6431 14.2102 23.816 14.2102 23.816 14.2102M23.6863 13.966L23.8592 13.999" stroke="#512007" stroke-width="0.0298613"/>
<path d="M23.3201 15.3841C23.3039 15.0894 22.8445 13.3982 22.8445 13.3982M23.1634 15.3264L22.8013 13.4046M23.0012 15.1791C22.9904 15.0702 22.7364 13.411 22.7364 13.411M23.3039 15.1407C23.2228 15.0894 22.9904 15.0125 22.9904 15.0125M23.1904 14.846C23.1147 14.846 22.958 14.7691 22.958 14.7691M23.1471 14.6218C23.0701 14.5872 22.9905 14.5615 22.9094 14.5449M23.1147 14.3399L22.8607 14.2886M23.0012 14.0965C23.0012 14.1157 22.8283 14.1157 22.8283 14.1157M22.958 13.8787L22.7851 13.9107" stroke="#512007" stroke-width="0.0294189"/>
<path fill-rule="evenodd" clip-rule="evenodd" d="M25.4902 14.4925L26.9817 14.5304L26.9979 14.4042L25.4578 14.3853L25.4902 14.4925ZM25.555 14.032C25.728 14.032 27.0303 13.7418 27.0303 13.7418C27.0303 13.7418 27.079 13.5525 27.0303 13.5525C26.9817 13.5525 25.555 13.9058 25.555 13.9058V14.032Z" fill="#DD8B59" stroke="#512007" stroke-width="0.0291952"/>
<path fill-rule="evenodd" clip-rule="evenodd" d="M23.8518 12.498C23.8741 12.499 23.895 12.5103 23.9101 12.5295C23.9252 12.5487 23.9332 12.5742 23.9323 12.6004C23.9315 12.6265 23.9218 12.6512 23.9055 12.669C23.8891 12.6869 23.8675 12.6963 23.8453 12.6953C23.823 12.6944 23.8021 12.683 23.787 12.6638C23.7719 12.6446 23.7639 12.6192 23.7648 12.593C23.7656 12.5668 23.7753 12.5421 23.7916 12.5243C23.808 12.5065 23.8296 12.497 23.8518 12.498Z" fill="#BE0F17" stroke="#512007" stroke-width="0.0287335"/>
<path d="M0 0H16V12H0V0Z" fill="#012169"/>
<path d="M1.875 0L7.975 4.525L14.05 0H16V1.55L10 6.025L16 10.475V12H14L8 7.525L2.025 12H0V10.5L5.975 6.05L0 1.6V0H1.875Z" fill="white"/>
<path d="M10.6 7.025L16 11V12L9.225 7.025H10.6ZM6 7.525L6.15 8.4L1.35 12H0L6 7.525ZM16 0V0.075L9.775 4.775L9.825 3.675L14.75 0H16ZM0 0L5.975 4.4H4.475L0 1.05V0Z" fill="#C8102E"/>
<path d="M6.025 0V12H10.025V0H6.025ZM0 4V8H16V4H0Z" fill="white"/>
<path d="M0 4.825V7.225H16V4.825H0ZM6.825 0V12H9.225V0H6.825Z" fill="#C8102E"/>
<defs>
<linearGradient id="paint0_linear_11930_67932" x1="10.93" y1="28.4666" x2="12.1265" y2="27.8593" gradientUnits="userSpaceOnUse">
<stop stop-color="#A43907"/>
<stop offset="1" stop-color="white"/>
</linearGradient>
<linearGradient id="paint1_linear_11930_67932" x1="21.378" y1="16.7732" x2="19.8404" y2="16.0231" gradientUnits="userSpaceOnUse">
<stop stop-color="#A43907"/>
<stop offset="1" stop-color="white"/>
</linearGradient>
<linearGradient id="paint2_linear_11930_67932" x1="22.1203" y1="17.3856" x2="18.9118" y2="17.0099" gradientUnits="userSpaceOnUse">
<stop stop-color="#A43907"/>
<stop offset="1" stop-color="white"/>
</linearGradient>
<linearGradient id="paint3_linear_11930_67932" x1="28.1004" y1="15.9181" x2="26.6298" y2="15.9878" gradientUnits="userSpaceOnUse">
<stop stop-color="#A43907"/>
<stop offset="1" stop-color="white"/>
</linearGradient>
<linearGradient id="paint4_linear_11930_67932" x1="28.8878" y1="16.7892" x2="25.7411" y2="16.9583" gradientUnits="userSpaceOnUse">
<stop stop-color="#A43907"/>
<stop offset="1" stop-color="white"/>
</linearGradient>
<linearGradient id="paint5_linear_11930_67932" x1="28.4388" y1="17.8145" x2="19.6254" y2="17.8145" gradientUnits="userSpaceOnUse">
<stop stop-color="#A43907"/>
<stop offset="1" stop-color="white"/>
</linearGradient>
<linearGradient id="paint6_linear_11930_67932" x1="19.7942" y1="18.5118" x2="32.64" y2="18.5527" gradientUnits="userSpaceOnUse">
<stop stop-color="#A43907"/>
<stop offset="1" stop-color="white"/>
</linearGradient>
<linearGradient id="paint7_linear_11930_67932" x1="28.8938" y1="17.6394" x2="27.8449" y2="17.6667" gradientUnits="userSpaceOnUse">
<stop stop-color="#A43907"/>
<stop offset="1" stop-color="white"/>
</linearGradient>
<linearGradient id="paint8_linear_11930_67932" x1="19.589" y1="18.8827" x2="20.5964" y2="18.9419" gradientUnits="userSpaceOnUse">
<stop stop-color="#A43907"/>
<stop offset="1" stop-color="white"/>
</linearGradient>
<linearGradient id="paint9_linear_11930_67932" x1="20.3327" y1="18.6274" x2="18.4667" y2="18.2133" gradientUnits="userSpaceOnUse">
<stop stop-color="#A43907"/>
<stop offset="1" stop-color="white"/>
</linearGradient>
</defs>
</svg>
