<svg width="36" height="24" viewBox="0 0 36 24" fill="none" xmlns="http://www.w3.org/2000/svg">
<rect width="36" height="24" rx="2" fill="#6797D6"/>
<path fill-rule="evenodd" clip-rule="evenodd" d="M18.1802 5.78109L16.6574 6.82449L17.2402 5.13719L15.7127 4.09379H17.5974L18.1802 2.40649L18.763 4.09849H20.643L19.1202 5.13719L19.703 6.82449M18.1802 18.3301L16.6574 17.2867L17.2402 18.9787L15.7127 20.0174H17.5974L18.1802 21.7047L18.763 20.0127L20.643 20.0174L19.1202 18.974L19.703 17.2867M10.8482 12.9439L9.6967 14.3821L9.7625 12.5961L8 12.0462L9.8048 11.4963L9.8659 9.71029L10.914 11.1579L12.7188 10.6033L11.5626 12.0462L12.6154 13.4891M25.5028 12.9392L26.659 14.3821L26.5932 12.5961L28.3557 12.0462L26.5509 11.4963L26.4898 9.71029L25.4417 11.1579L23.6369 10.6033L24.7931 12.0462L23.7403 13.4891" fill="white"/>
</svg>
