<svg width="36" height="24" viewBox="0 0 36 24" fill="none" xmlns="http://www.w3.org/2000/svg">
<g clip-path="url(#clip0_11930_67938)">
<rect width="36" height="24" rx="2" fill="white"/>
<path d="M36 10H0V14H36V10Z" fill="#CC0000"/>
<path d="M20 24V0H16V24H20Z" fill="#CC0000"/>
<path fill-rule="evenodd" clip-rule="evenodd" d="M19.8499 7.33001C19.9999 7.09001 19.9099 6.93001 19.6799 6.88501C19.6799 6.88501 18.9349 7.12501 18.1299 7.15001C17.3299 7.17501 16.3799 6.95001 16.3799 6.95001C16.2049 7.05501 16.2449 7.31001 16.3299 7.47001C16.3299 7.47001 17.1699 7.75001 18.1299 7.72001C18.6418 7.69826 19.1483 7.60571 19.6349 7.44501C19.8199 7.38501 19.8499 7.33501 19.8499 7.33001Z" fill="#EBEAE3" stroke="black" stroke-width="0.025"/>
<path d="M18.09 17.88L16.545 14.67L13 14.94L15 12L13 9.06L16.55 9.33L18.09 6.125L19.635 9.325L23.18 9.06L21.18 12L23.18 14.94L19.63 14.67L18.09 17.88Z" fill="white" stroke="#161111" stroke-width="0.08"/>
<path fill-rule="evenodd" clip-rule="evenodd" d="M18.0649 6.10997C20.0049 6.42997 19.9349 6.51997 19.9349 6.51997L20.4399 5.00997C20.4399 5.00997 20.4949 4.70997 20.3549 4.52997C20.2149 4.34997 19.8299 4.44997 19.8299 4.44997C19.8299 4.44997 19.7799 4.20497 19.6049 4.14997C19.4349 4.08997 18.8049 4.37497 18.6049 4.43997C18.4049 4.50497 18.3049 4.56497 18.0299 4.55997C17.7549 4.55997 17.2599 4.30997 17.1649 4.25997C17.0799 4.21497 16.9449 4.16997 16.8199 4.17497C16.6999 4.17497 16.5699 4.20997 16.5049 4.29497C16.4449 4.37997 16.4449 4.48997 16.4449 4.48997C16.4449 4.48997 16.3449 4.42497 16.1849 4.42497C16.0249 4.42497 15.9349 4.44497 15.8599 4.52997C15.7849 4.61497 15.6899 4.85497 15.6899 4.85497L15.8699 5.26497L15.8799 5.82997L16.2549 6.42997L18.0649 6.10997Z" fill="#B02320" stroke="black" stroke-width="0.065"/>
<path fill-rule="evenodd" clip-rule="evenodd" d="M19.8751 6.96491C19.8751 6.96491 19.9751 7.07991 19.9701 7.12491C19.9651 7.16491 19.9201 7.19991 19.9201 7.19991C19.9201 7.19991 19.9551 7.22991 19.9451 7.27491C19.9401 7.32491 19.8751 7.32491 19.8751 7.32491C19.8751 7.32491 19.8901 7.36491 19.8501 7.38491C19.8151 7.40491 19.6601 7.43491 19.6601 7.43491C19.6601 7.43491 18.9101 7.22491 18.1101 7.22491C17.3101 7.22491 16.3601 7.48491 16.3601 7.48491C16.3601 7.48491 16.2601 7.44991 16.2601 7.38491C16.2501 7.32491 16.2651 7.27991 16.2651 7.27991C16.2651 7.27991 16.2151 7.27991 16.2001 7.23491C16.1801 7.16991 16.2051 7.11991 16.2051 7.11991C16.2051 7.11991 16.1701 7.12991 16.2101 7.04491C16.2401 6.97991 16.2851 6.95991 16.2851 6.95991C16.2851 6.95991 17.1251 6.65991 18.0851 6.65491C19.0401 6.65491 19.8751 6.95491 19.8751 6.96491Z" fill="#EBEAE3" stroke="black" stroke-width="0.025"/>
<path d="M15.8999 5.07492C15.8999 5.07492 15.8699 4.96492 15.9399 4.86992C15.9673 4.83569 16.0045 4.81064 16.0465 4.79813C16.0885 4.78562 16.1333 4.78624 16.1749 4.79992C16.2149 4.81992 16.2099 4.86492 16.2599 4.87492C16.3099 4.88992 16.3499 4.84992 16.3499 4.84992" stroke="black" stroke-width="0.055"/>
<path fill-rule="evenodd" clip-rule="evenodd" d="M20.5802 5.3299L20.2902 5.9299L20.1752 5.9499C20.1752 5.9499 20.1052 5.9099 19.9052 5.9249C19.7652 5.9349 19.7202 5.9749 19.7202 5.9749L19.9802 5.3749C19.9802 5.3749 20.0002 5.4999 20.0302 5.5749C20.0702 5.6749 20.2152 5.7599 20.2152 5.7599C20.2152 5.7599 20.2352 5.6449 20.1952 5.5099C20.1571 5.38511 20.1103 5.26315 20.0552 5.1449L20.5802 5.3299Z" fill="#FFCC00" fill-opacity="0.9" stroke="black" stroke-width="0.06"/>
<path d="M17.915 3.45996H18.24V4.84496H17.915V3.45996Z" fill="#121116" stroke="#121116" stroke-width="0.06" stroke-linejoin="round"/>
<path fill-rule="evenodd" clip-rule="evenodd" d="M15.9202 6.00995L16.1252 6.45995C16.1252 6.45995 17.0202 6.10995 18.0702 6.11995C19.6452 6.12995 20.0952 6.44495 20.0952 6.44495L20.3252 5.88995L20.1502 5.98995L19.9702 6.10495L19.7702 6.17995L19.5202 6.16495L19.3002 6.00495L19.1902 5.76995L19.0052 5.93995L18.6752 6.00995L18.3552 5.92995L18.0752 5.57495C18.0752 5.57495 17.8652 5.96995 17.5952 5.99495C17.2102 6.02495 16.9902 5.80995 16.9902 5.80995C16.9902 5.80995 16.8452 6.12995 16.6102 6.18495C16.2352 6.27995 15.9252 6.00995 15.9202 6.00995Z" fill="#F6CA1F" stroke="black" stroke-width="0.05"/>
<path d="M19.5106 3.28486C19.5106 3.37486 19.4406 3.45486 19.3456 3.45486C19.3233 3.45486 19.3012 3.45047 19.2806 3.44192C19.2599 3.43338 19.2412 3.42086 19.2254 3.40507C19.2096 3.38929 19.1971 3.37054 19.1886 3.34992C19.18 3.32929 19.1756 3.30719 19.1756 3.28486C19.1749 3.26212 19.1788 3.23948 19.1871 3.21827C19.1953 3.19706 19.2077 3.17773 19.2236 3.16141C19.2395 3.14509 19.2584 3.13212 19.2794 3.12326C19.3003 3.11441 19.3229 3.10985 19.3456 3.10986C19.3898 3.11116 19.4318 3.12965 19.4626 3.16139C19.4934 3.19313 19.5106 3.23563 19.5106 3.27986" fill="#EEEEEE"/>
<path d="M19.5106 3.28486C19.5106 3.37486 19.4406 3.45486 19.3456 3.45486C19.3233 3.45486 19.3012 3.45047 19.2806 3.44192C19.2599 3.43338 19.2412 3.42086 19.2254 3.40507C19.2096 3.38929 19.1971 3.37054 19.1886 3.34992C19.18 3.32929 19.1756 3.30719 19.1756 3.28486C19.1749 3.26212 19.1788 3.23948 19.1871 3.21827C19.1953 3.19706 19.2077 3.17773 19.2236 3.16141C19.2395 3.14509 19.2584 3.13212 19.2794 3.12326C19.3003 3.11441 19.3229 3.10985 19.3456 3.10986C19.3898 3.11116 19.4318 3.12965 19.4626 3.16139C19.4934 3.19313 19.5106 3.23563 19.5106 3.27986" stroke="#1E1E1E" stroke-width="0.06" stroke-linejoin="round"/>
<path fill-rule="evenodd" clip-rule="evenodd" d="M19.2656 3.37006C19.2656 3.37006 19.4006 3.37006 19.4156 3.31506C19.4306 3.25506 19.4056 3.18506 19.4056 3.18506C19.4056 3.18506 19.4706 3.25506 19.4556 3.31006C19.4356 3.36506 19.4156 3.38006 19.3706 3.39506C19.3354 3.3988 19.3 3.38994 19.2706 3.37006H19.2656Z" fill="#A3AFB8"/>
<path d="M19.1055 3.47488C19.1055 3.56488 19.0305 3.64488 18.9355 3.64488C18.9131 3.64488 18.891 3.64048 18.8704 3.63194C18.8498 3.6234 18.831 3.61087 18.8152 3.59509C18.7995 3.5793 18.7869 3.56056 18.7784 3.53994C18.7699 3.51931 18.7655 3.49721 18.7655 3.47488C18.7648 3.45171 18.7688 3.42865 18.7774 3.4071C18.7859 3.38556 18.7988 3.36599 18.8152 3.3496C18.8316 3.33321 18.8511 3.32034 18.8727 3.31179C18.8942 3.30324 18.9173 3.29919 18.9405 3.29988C18.9847 3.29986 19.0272 3.31708 19.0589 3.34789C19.0907 3.3787 19.1092 3.42067 19.1105 3.46488" fill="#EEEEEE"/>
<path d="M19.1055 3.47488C19.1055 3.56488 19.0305 3.64488 18.9355 3.64488C18.9131 3.64488 18.891 3.64048 18.8704 3.63194C18.8498 3.6234 18.831 3.61087 18.8152 3.59509C18.7995 3.5793 18.7869 3.56056 18.7784 3.53994C18.7699 3.51931 18.7655 3.49721 18.7655 3.47488C18.7648 3.45171 18.7688 3.42865 18.7774 3.4071C18.7859 3.38556 18.7988 3.36599 18.8152 3.3496C18.8316 3.33321 18.8511 3.32034 18.8727 3.31179C18.8942 3.30324 18.9173 3.29919 18.9405 3.29988C18.9847 3.29986 19.0272 3.31708 19.0589 3.34789C19.0907 3.3787 19.1092 3.42067 19.1105 3.46488" stroke="#1E1E1E" stroke-width="0.06" stroke-linejoin="round"/>
<path fill-rule="evenodd" clip-rule="evenodd" d="M18.8557 3.56C18.8557 3.56 18.9957 3.56 19.0057 3.505C19.0207 3.45 18.9957 3.375 18.9957 3.375C18.9957 3.375 19.0607 3.45 19.0457 3.505C19.0257 3.555 19.0057 3.575 18.9607 3.585C18.9255 3.58874 18.89 3.57988 18.8607 3.56H18.8557Z" fill="#A3AFB8"/>
<path d="M19.9906 3.17C19.9906 3.265 19.9106 3.34 19.8206 3.34C19.7755 3.34 19.7323 3.32209 19.7004 3.29021C19.6685 3.25833 19.6506 3.21509 19.6506 3.17C19.6506 3.12577 19.6678 3.08327 19.6986 3.05153C19.7295 3.01978 19.7714 3.0013 19.8156 3C19.8607 3 19.904 3.01791 19.9358 3.04979C19.9677 3.08167 19.9856 3.12491 19.9856 3.17" fill="#EEEEEE"/>
<path d="M19.9906 3.17C19.9906 3.265 19.9106 3.34 19.8206 3.34C19.7755 3.34 19.7323 3.32209 19.7004 3.29021C19.6685 3.25833 19.6506 3.21509 19.6506 3.17C19.6506 3.12577 19.6678 3.08327 19.6986 3.05153C19.7295 3.01978 19.7714 3.0013 19.8156 3C19.8607 3 19.904 3.01791 19.9358 3.04979C19.9677 3.08167 19.9856 3.12491 19.9856 3.17" stroke="#1E1E1E" stroke-width="0.06" stroke-linejoin="round"/>
<path fill-rule="evenodd" clip-rule="evenodd" d="M19.7407 3.25995C19.7407 3.25995 19.8757 3.25995 19.8907 3.19995C19.9057 3.14495 19.8807 3.07495 19.8807 3.07495C19.8807 3.07495 19.9457 3.14495 19.9307 3.19995C19.9107 3.25495 19.8907 3.26995 19.8457 3.27995C19.8111 3.28517 19.7757 3.27809 19.7457 3.25995H19.7407Z" fill="#A3AFB8"/>
<path d="M20.5205 3.27986C20.5205 3.36986 20.4455 3.44986 20.3555 3.44986C20.3105 3.44986 20.2672 3.43195 20.2353 3.40007C20.2035 3.36819 20.1855 3.32495 20.1855 3.27986C20.1855 3.23478 20.2035 3.19154 20.2353 3.15966C20.2672 3.12777 20.3105 3.10986 20.3555 3.10986C20.3989 3.11112 20.4402 3.12891 20.4708 3.15958C20.5015 3.19026 20.5193 3.2315 20.5205 3.27486" fill="#EEEEEE"/>
<path d="M20.5205 3.27986C20.5205 3.36986 20.4455 3.44986 20.3555 3.44986C20.3105 3.44986 20.2672 3.43195 20.2353 3.40007C20.2035 3.36819 20.1855 3.32495 20.1855 3.27986C20.1855 3.23478 20.2035 3.19154 20.2353 3.15965C20.2672 3.12777 20.3105 3.10986 20.3555 3.10986C20.3989 3.11112 20.4402 3.12891 20.4708 3.15958C20.5015 3.19026 20.5193 3.2315 20.5205 3.27486" stroke="#1E1E1E" stroke-width="0.06" stroke-linejoin="round"/>
<path fill-rule="evenodd" clip-rule="evenodd" d="M20.2756 3.36493C20.2756 3.36493 20.4106 3.36493 20.4256 3.30993C20.4406 3.24993 20.4156 3.17993 20.4156 3.17993C20.4156 3.17993 20.4806 3.24993 20.4656 3.30993C20.4456 3.35993 20.4256 3.37493 20.3806 3.38993C20.3437 3.39492 20.3063 3.38601 20.2756 3.36493Z" fill="#A3AFB8"/>
<path d="M20.9306 3.61507C20.9306 3.70507 20.8556 3.78507 20.7606 3.78507C20.7155 3.78507 20.6722 3.76716 20.6404 3.73528C20.6085 3.7034 20.5906 3.66016 20.5906 3.61507C20.5906 3.56998 20.6085 3.52674 20.6404 3.49486C20.6722 3.46298 20.7155 3.44507 20.7606 3.44507C20.8048 3.44505 20.8473 3.46227 20.8791 3.49308C20.9108 3.52389 20.9293 3.56585 20.9306 3.61007" fill="#EEEEEE"/>
<path d="M20.9306 3.61507C20.9306 3.70507 20.8556 3.78507 20.7606 3.78507C20.7155 3.78507 20.6722 3.76716 20.6404 3.73528C20.6085 3.7034 20.5906 3.66016 20.5906 3.61507C20.5906 3.56998 20.6085 3.52674 20.6404 3.49486C20.6722 3.46298 20.7155 3.44507 20.7606 3.44507C20.8048 3.44505 20.8473 3.46227 20.8791 3.49308C20.9108 3.52389 20.9293 3.56585 20.9306 3.61007" stroke="#1E1E1E" stroke-width="0.06" stroke-linejoin="round"/>
<path fill-rule="evenodd" clip-rule="evenodd" d="M20.6855 3.69989C20.6855 3.69989 20.8205 3.69989 20.8355 3.64489C20.8455 3.58989 20.8255 3.51489 20.8255 3.51489C20.8255 3.51489 20.8905 3.58989 20.8705 3.64489C20.8505 3.69489 20.8355 3.71489 20.7855 3.72489C20.7555 3.72989 20.7105 3.71989 20.6855 3.69989Z" fill="#A3AFB8"/>
<path d="M21.1055 4.16487C21.1055 4.25987 21.0305 4.33487 20.9355 4.33487C20.8913 4.33357 20.8493 4.31509 20.8185 4.28335C20.7877 4.25161 20.7705 4.20911 20.7705 4.16487C20.7705 4.12064 20.7877 4.07814 20.8185 4.0464C20.8493 4.01466 20.8913 3.99617 20.9355 3.99487C20.9806 3.99487 21.0238 4.01278 21.0557 4.04466C21.0876 4.07655 21.1055 4.11979 21.1055 4.16487Z" fill="#EEEEEE" stroke="#1E1E1E" stroke-width="0.06" stroke-linejoin="round"/>
<path fill-rule="evenodd" clip-rule="evenodd" d="M20.8606 4.24994C20.8606 4.24994 20.9956 4.24994 21.0106 4.19494C21.0206 4.13994 21.0006 4.06494 21.0006 4.06494C21.0006 4.06494 21.0656 4.13994 21.0456 4.19494C21.0256 4.24494 21.0106 4.26494 20.9606 4.27494C20.9254 4.27868 20.8899 4.26983 20.8606 4.24994Z" fill="#A3AFB8"/>
<path d="M21.0406 4.72005C21.0406 4.82005 20.9656 4.89005 20.8706 4.89005C20.8273 4.88879 20.786 4.871 20.7554 4.84033C20.7247 4.80965 20.7069 4.76841 20.7056 4.72505C20.705 4.70272 20.7087 4.68048 20.7166 4.6596C20.7246 4.63872 20.7366 4.61961 20.7519 4.60336C20.7672 4.5871 20.7856 4.57403 20.806 4.56488C20.8263 4.55574 20.8483 4.5507 20.8706 4.55005C20.9157 4.55005 20.959 4.56796 20.9909 4.59984C21.0227 4.63172 21.0406 4.67496 21.0406 4.72005Z" fill="#EEEEEE" stroke="#1E1E1E" stroke-width="0.06" stroke-linejoin="round"/>
<path fill-rule="evenodd" clip-rule="evenodd" d="M20.7908 4.81C20.7908 4.81 20.9308 4.81 20.9408 4.75C20.9558 4.7 20.9358 4.625 20.9358 4.625C20.9358 4.625 21.0008 4.695 20.9808 4.75C20.9608 4.805 20.9458 4.82 20.8958 4.83C20.8611 4.83522 20.8257 4.82814 20.7958 4.81H20.7908Z" fill="#A3AFB8"/>
<path d="M20.7908 5.21004C20.7908 5.30504 20.7158 5.38004 20.6258 5.38004C20.5807 5.38004 20.5375 5.36213 20.5056 5.33025C20.4737 5.29837 20.4558 5.25513 20.4558 5.21004C20.4558 5.16495 20.4737 5.12171 20.5056 5.08983C20.5375 5.05795 20.5807 5.04004 20.6258 5.04004C20.67 5.04134 20.712 5.05982 20.7428 5.09156C20.7736 5.12331 20.7908 5.16581 20.7908 5.21004Z" fill="#EEEEEE" stroke="#1E1E1E" stroke-width="0.06" stroke-linejoin="round"/>
<path fill-rule="evenodd" clip-rule="evenodd" d="M20.5457 5.29999C20.5457 5.29999 20.6807 5.29999 20.6957 5.23999C20.7107 5.18999 20.6857 5.11499 20.6857 5.11499C20.6857 5.11499 20.7507 5.18499 20.7357 5.23999C20.7157 5.29499 20.6957 5.30999 20.6507 5.31999C20.616 5.32521 20.5806 5.31813 20.5507 5.29999H20.5457Z" fill="#A3AFB8"/>
<path d="M18.7056 3.61995C18.7056 3.71495 18.6306 3.78995 18.5406 3.78995C18.4955 3.78995 18.4523 3.77204 18.4204 3.74016C18.3885 3.70828 18.3706 3.66504 18.3706 3.61995C18.3706 3.57572 18.3878 3.53322 18.4186 3.50148C18.4494 3.46974 18.4914 3.45125 18.5356 3.44995C18.5807 3.44995 18.6239 3.46786 18.6558 3.49974C18.6877 3.53162 18.7056 3.57486 18.7056 3.61995Z" fill="#EEEEEE" stroke="#1E1E1E" stroke-width="0.06" stroke-linejoin="round"/>
<path fill-rule="evenodd" clip-rule="evenodd" d="M18.4607 3.7099C18.4607 3.7099 18.5957 3.7099 18.6107 3.6499C18.6257 3.5949 18.6007 3.5249 18.6007 3.5249C18.6007 3.5249 18.6657 3.5949 18.6507 3.6499C18.6307 3.7049 18.6107 3.7199 18.5657 3.7299C18.5307 3.7399 18.4857 3.7299 18.4607 3.7099Z" fill="#A3AFB8"/>
<path d="M18.1924 3.57506C18.1931 3.59386 18.19 3.6126 18.1833 3.63017C18.1765 3.64774 18.1663 3.66377 18.1532 3.6773C18.1402 3.69084 18.1245 3.7016 18.1072 3.70894C18.0899 3.71629 18.0713 3.72007 18.0524 3.72006C18.0336 3.72007 18.015 3.71629 17.9977 3.70894C17.9804 3.7016 17.9647 3.69084 17.9516 3.6773C17.9386 3.66377 17.9284 3.64774 17.9216 3.63017C17.9149 3.6126 17.9118 3.59386 17.9124 3.57506C17.9124 3.53793 17.9272 3.50232 17.9534 3.47606C17.9797 3.44981 18.0153 3.43506 18.0524 3.43506C18.0896 3.43506 18.1252 3.44981 18.1514 3.47606C18.1777 3.50232 18.1924 3.53793 18.1924 3.57506Z" fill="#EEEEEE" stroke="#1E1E1E" stroke-width="0.06" stroke-linejoin="round"/>
<path fill-rule="evenodd" clip-rule="evenodd" d="M17.9873 3.65C17.9873 3.65 18.1023 3.65 18.1123 3.6C18.1273 3.555 18.1073 3.5 18.1073 3.5C18.1073 3.5 18.1573 3.555 18.1473 3.6C18.1273 3.65 18.1123 3.66 18.0773 3.67C18.0459 3.67504 18.0137 3.66789 17.9873 3.65Z" fill="#A3AFB8"/>
<path d="M18.2025 3.74986C18.2039 3.76907 18.2012 3.78836 18.1948 3.80651C18.1884 3.82467 18.1783 3.84131 18.1652 3.85539C18.152 3.86947 18.1361 3.88068 18.1185 3.88834C18.1008 3.89599 18.0817 3.89991 18.0625 3.89986C18.0432 3.89991 18.0242 3.89599 18.0065 3.88834C17.9888 3.88068 17.9729 3.86947 17.9598 3.85539C17.9466 3.84131 17.9365 3.82467 17.9301 3.80651C17.9237 3.78836 17.9211 3.76907 17.9225 3.74986C17.9225 3.73148 17.9261 3.71327 17.9331 3.69629C17.9402 3.6793 17.9505 3.66387 17.9635 3.65087C17.9765 3.63787 17.9919 3.62756 18.0089 3.62052C18.0259 3.61348 18.0441 3.60986 18.0625 3.60986C18.0996 3.60986 18.1352 3.62461 18.1615 3.65087C18.1877 3.67712 18.2025 3.71273 18.2025 3.74986Z" fill="#EEEEEE" stroke="#1E1E1E" stroke-width="0.06" stroke-linejoin="round"/>
<path fill-rule="evenodd" clip-rule="evenodd" d="M17.9924 3.8248C17.9924 3.8248 18.1074 3.8248 18.1224 3.7748C18.1324 3.7348 18.1124 3.6748 18.1124 3.6748C18.1124 3.6748 18.1624 3.7348 18.1524 3.7748C18.1374 3.8248 18.1224 3.8348 18.0824 3.8448C18.0526 3.84857 18.0224 3.84147 17.9974 3.8248H17.9924Z" fill="#A3AFB8"/>
<path d="M18.2097 4.01497C18.2097 4.0521 18.1949 4.08771 18.1686 4.11396C18.1424 4.14022 18.1068 4.15497 18.0697 4.15497C18.0509 4.15564 18.0321 4.15251 18.0145 4.14578C17.997 4.13904 17.9809 4.12884 17.9674 4.11577C17.9539 4.1027 17.9431 4.08704 17.9358 4.06972C17.9284 4.0524 17.9246 4.03378 17.9247 4.01497C17.924 3.99574 17.9272 3.97657 17.9343 3.95866C17.9413 3.94075 17.952 3.92448 17.9656 3.91088C17.9792 3.89727 17.9954 3.88662 18.0133 3.87958C18.0313 3.87254 18.0504 3.86927 18.0697 3.86997C18.0885 3.86995 18.1071 3.87373 18.1244 3.88108C18.1417 3.88843 18.1574 3.89919 18.1705 3.91272C18.1835 3.92626 18.1937 3.94229 18.2005 3.95985C18.2072 3.97742 18.2103 3.99616 18.2097 4.01497Z" fill="#EEEEEE" stroke="#1E1E1E" stroke-width="0.06" stroke-linejoin="round"/>
<path fill-rule="evenodd" clip-rule="evenodd" d="M18.0046 4.09006C18.0046 4.09006 18.1146 4.09006 18.1296 4.04006C18.1396 3.99006 18.1196 3.93506 18.1196 3.93506C18.1196 3.93506 18.1696 3.99506 18.1596 4.03506C18.1446 4.08506 18.1296 4.10006 18.0896 4.10506C18.0604 4.11031 18.0303 4.10499 18.0046 4.09006Z" fill="#A3AFB8"/>
<path d="M18.2275 4.29001C18.2281 4.31013 18.2247 4.33017 18.2175 4.34895C18.2103 4.36773 18.1993 4.38486 18.1853 4.39932C18.1713 4.41379 18.1546 4.42528 18.136 4.43313C18.1175 4.44098 18.0976 4.44502 18.0775 4.44501C18.0573 4.44568 18.0373 4.4423 18.0185 4.43506C17.9997 4.42782 17.9826 4.41688 17.9681 4.40288C17.9537 4.38889 17.9422 4.37212 17.9343 4.35359C17.9265 4.33506 17.9224 4.31514 17.9225 4.29501C17.9211 4.27449 17.9239 4.2539 17.9309 4.23453C17.9378 4.21516 17.9486 4.19742 17.9627 4.18242C17.9768 4.16741 17.9938 4.15546 18.0126 4.14731C18.0315 4.13915 18.0519 4.13496 18.0725 4.13501C18.0926 4.135 18.1125 4.13904 18.131 4.14689C18.1496 4.15474 18.1663 4.16623 18.1803 4.1807C18.1943 4.19516 18.2053 4.21229 18.2125 4.23107C18.2197 4.24985 18.2231 4.2699 18.2225 4.29001" fill="#EEEEEE"/>
<path d="M18.2275 4.29001C18.2281 4.31013 18.2247 4.33017 18.2175 4.34895C18.2103 4.36773 18.1993 4.38486 18.1853 4.39932C18.1713 4.41379 18.1546 4.42528 18.136 4.43313C18.1175 4.44098 18.0976 4.44502 18.0775 4.44501C18.0573 4.44568 18.0373 4.4423 18.0185 4.43506C17.9997 4.42782 17.9826 4.41688 17.9681 4.40288C17.9537 4.38889 17.9422 4.37212 17.9343 4.35359C17.9265 4.33506 17.9224 4.31514 17.9225 4.29501C17.9211 4.27449 17.9239 4.2539 17.9309 4.23453C17.9378 4.21516 17.9486 4.19742 17.9627 4.18242C17.9768 4.16741 17.9938 4.15546 18.0126 4.14731C18.0315 4.13915 18.0519 4.13496 18.0725 4.13501C18.0926 4.135 18.1125 4.13904 18.131 4.14689C18.1496 4.15474 18.1663 4.16623 18.1803 4.1807C18.1943 4.19516 18.2053 4.21229 18.2125 4.23107C18.2197 4.24985 18.2231 4.2699 18.2225 4.29001" stroke="#1E1E1E" stroke-width="0.06" stroke-linejoin="round"/>
<path fill-rule="evenodd" clip-rule="evenodd" d="M18.0024 4.37008C18.0024 4.37008 18.1274 4.37008 18.1374 4.32008C18.1474 4.27008 18.1274 4.20508 18.1274 4.20508C18.1274 4.20508 18.1874 4.27008 18.1724 4.32008C18.1524 4.37008 18.1374 4.38008 18.0974 4.39008C18.0644 4.39593 18.0303 4.38876 18.0024 4.37008Z" fill="#A3AFB8"/>
<path d="M18.2406 4.66499C18.2406 4.75499 18.1656 4.83499 18.0706 4.83499C18.0264 4.83369 17.9844 4.81521 17.9536 4.78346C17.9228 4.75172 17.9056 4.70922 17.9056 4.66499C17.9049 4.64266 17.9087 4.62042 17.9166 4.59954C17.9245 4.57866 17.9365 4.55955 17.9518 4.5433C17.9672 4.52704 17.9855 4.51397 18.0059 4.50482C18.0263 4.49568 18.0483 4.49064 18.0706 4.48999C18.1157 4.48999 18.1589 4.5079 18.1908 4.53978C18.2227 4.57166 18.2406 4.6149 18.2406 4.65999" fill="#EEEEEE"/>
<path d="M18.2406 4.66499C18.2406 4.75499 18.1656 4.83499 18.0706 4.83499C18.0264 4.83369 17.9844 4.81521 17.9536 4.78346C17.9228 4.75172 17.9056 4.70922 17.9056 4.66499C17.9049 4.64266 17.9087 4.62042 17.9166 4.59954C17.9245 4.57866 17.9365 4.55955 17.9518 4.5433C17.9672 4.52704 17.9855 4.51397 18.0059 4.50482C18.0263 4.49568 18.0483 4.49064 18.0706 4.48999C18.1157 4.48999 18.1589 4.5079 18.1908 4.53978C18.2227 4.57166 18.2406 4.6149 18.2406 4.65999" stroke="#1E1E1E" stroke-width="0.06" stroke-linejoin="round"/>
<path fill-rule="evenodd" clip-rule="evenodd" d="M17.9907 4.74994C17.9907 4.74994 18.1307 4.74994 18.1407 4.69494C18.1557 4.63994 18.1357 4.56494 18.1357 4.56494C18.1357 4.56494 18.2007 4.63994 18.1807 4.69494C18.1607 4.74494 18.1457 4.76494 18.0957 4.77494C18.0605 4.77868 18.0251 4.76983 17.9957 4.74994H17.9907Z" fill="#A3AFB8"/>
<path d="M18.2284 5.42489C18.2284 5.51489 18.1584 5.58489 18.0684 5.58489C18.026 5.58489 17.9853 5.56804 17.9553 5.53803C17.9253 5.50802 17.9084 5.46733 17.9084 5.42489C17.9084 5.33989 17.9784 5.26489 18.0684 5.26489C18.1109 5.26489 18.1516 5.28175 18.1816 5.31176C18.2116 5.34176 18.2284 5.38246 18.2284 5.42489Z" fill="#EEEEEE" stroke="#1E1E1E" stroke-width="0.06" stroke-linejoin="round"/>
<path fill-rule="evenodd" clip-rule="evenodd" d="M17.9934 5.50996C17.9934 5.50996 18.1234 5.50996 18.1334 5.45496C18.1484 5.40496 18.1284 5.33496 18.1284 5.33496C18.1284 5.33496 18.1884 5.39996 18.1684 5.45496C18.1534 5.50496 18.1334 5.51996 18.0934 5.52996C18.0634 5.53496 18.0184 5.52496 17.9934 5.50996Z" fill="#A3AFB8"/>
<path d="M17.7707 3.61507C17.7707 3.71007 17.6907 3.78507 17.6007 3.78507C17.5556 3.78507 17.5123 3.76716 17.4805 3.73528C17.4486 3.7034 17.4307 3.66016 17.4307 3.61507C17.4307 3.56998 17.4486 3.52674 17.4805 3.49486C17.5123 3.46298 17.5556 3.44507 17.6007 3.44507C17.6458 3.44507 17.689 3.46298 17.7209 3.49486C17.7528 3.52674 17.7707 3.56998 17.7707 3.61507Z" fill="#EEEEEE" stroke="#1E1E1E" stroke-width="0.06" stroke-linejoin="round"/>
<path fill-rule="evenodd" clip-rule="evenodd" d="M17.5205 3.70002C17.5205 3.70002 17.6555 3.70002 17.6705 3.65002C17.6855 3.59002 17.6605 3.52002 17.6605 3.52002C17.6605 3.52002 17.7255 3.59002 17.7105 3.64502C17.6905 3.70002 17.6705 3.71502 17.6255 3.72502C17.5909 3.73024 17.5555 3.72316 17.5255 3.70502L17.5205 3.70002Z" fill="#A3AFB8"/>
<path d="M17.3506 3.45003C17.3506 3.54503 17.2756 3.62003 17.1806 3.62003C17.1364 3.61873 17.0944 3.60024 17.0636 3.5685C17.0328 3.53676 17.0156 3.49426 17.0156 3.45003C17.0156 3.4058 17.0328 3.3633 17.0636 3.33156C17.0944 3.29981 17.1364 3.28133 17.1806 3.28003C17.2257 3.28003 17.269 3.29794 17.3008 3.32982C17.3327 3.3617 17.3506 3.40494 17.3506 3.45003Z" fill="#EEEEEE" stroke="#1E1E1E" stroke-width="0.06" stroke-linejoin="round"/>
<path fill-rule="evenodd" clip-rule="evenodd" d="M17.1057 3.53998C17.1057 3.53998 17.2407 3.53998 17.2557 3.47998C17.2657 3.42998 17.2457 3.35498 17.2457 3.35498C17.2457 3.35498 17.3107 3.42498 17.2957 3.47998C17.2707 3.53498 17.2557 3.54998 17.2057 3.55998C17.1757 3.56998 17.1307 3.55998 17.1057 3.53998Z" fill="#A3AFB8"/>
<path d="M16.9506 3.26509C16.9506 3.35509 16.8756 3.43509 16.7856 3.43509C16.7405 3.43509 16.6972 3.41718 16.6653 3.3853C16.6335 3.35341 16.6156 3.31017 16.6156 3.26509C16.6149 3.24276 16.6186 3.22052 16.6266 3.19964C16.6345 3.17876 16.6465 3.15965 16.6618 3.14339C16.6771 3.12714 16.6955 3.11407 16.7159 3.10492C16.7362 3.09578 16.7582 3.09073 16.7806 3.09009C16.8256 3.09009 16.8689 3.108 16.9008 3.13988C16.9326 3.17176 16.9506 3.215 16.9506 3.26009" fill="#EEEEEE"/>
<path d="M16.9506 3.26509C16.9506 3.35509 16.8756 3.43509 16.7856 3.43509C16.7405 3.43509 16.6972 3.41718 16.6653 3.3853C16.6335 3.35341 16.6156 3.31017 16.6156 3.26509C16.6149 3.24276 16.6186 3.22052 16.6266 3.19964C16.6345 3.17876 16.6465 3.15965 16.6618 3.14339C16.6771 3.12714 16.6955 3.11407 16.7159 3.10492C16.7362 3.09578 16.7582 3.09073 16.7806 3.09009C16.8256 3.09009 16.8689 3.108 16.9008 3.13988C16.9326 3.17176 16.9506 3.215 16.9506 3.26009" stroke="#1E1E1E" stroke-width="0.06" stroke-linejoin="round"/>
<path fill-rule="evenodd" clip-rule="evenodd" d="M16.7058 3.35004C16.7058 3.35004 16.8408 3.35004 16.8558 3.29504C16.8708 3.24004 16.8458 3.16504 16.8458 3.16504C16.8458 3.16504 16.9108 3.24004 16.8958 3.29504C16.8758 3.34504 16.8558 3.36504 16.8108 3.37504C16.7739 3.38002 16.7365 3.37111 16.7058 3.35004Z" fill="#A3AFB8"/>
<path d="M16.4906 3.16499C16.4906 3.25999 16.4206 3.33499 16.3256 3.33499C16.2805 3.33499 16.2373 3.31708 16.2054 3.2852C16.1735 3.25332 16.1556 3.21008 16.1556 3.16499C16.1549 3.14225 16.1588 3.1196 16.1671 3.0984C16.1753 3.07719 16.1877 3.05786 16.2036 3.04154C16.2194 3.02522 16.2384 3.01225 16.2594 3.00339C16.2803 2.99454 16.3028 2.98998 16.3256 2.98999C16.3707 2.98999 16.4139 3.0079 16.4458 3.03978C16.4777 3.07166 16.4956 3.1149 16.4956 3.15999" fill="#EEEEEE"/>
<path d="M16.4906 3.16499C16.4906 3.25999 16.4206 3.33499 16.3256 3.33499C16.2805 3.33499 16.2373 3.31708 16.2054 3.2852C16.1735 3.25332 16.1556 3.21008 16.1556 3.16499C16.1549 3.14225 16.1588 3.1196 16.1671 3.0984C16.1753 3.07719 16.1877 3.05786 16.2036 3.04154C16.2194 3.02522 16.2384 3.01225 16.2594 3.00339C16.2803 2.99454 16.3028 2.98998 16.3256 2.98999C16.3707 2.98999 16.4139 3.0079 16.4458 3.03978C16.4777 3.07166 16.4956 3.1149 16.4956 3.15999" stroke="#1E1E1E" stroke-width="0.06" stroke-linejoin="round"/>
<path fill-rule="evenodd" clip-rule="evenodd" d="M16.2456 3.24994C16.2456 3.24994 16.3806 3.24994 16.3956 3.19494C16.4106 3.13994 16.3856 3.06494 16.3856 3.06494C16.3856 3.06494 16.4506 3.13994 16.4356 3.19494C16.4156 3.24494 16.3956 3.26494 16.3506 3.27494C16.3154 3.27868 16.2799 3.26983 16.2506 3.24994H16.2456Z" fill="#A3AFB8"/>
<path d="M15.9506 3.28987C15.9506 3.38987 15.8756 3.45987 15.7856 3.46487C15.7405 3.46487 15.6972 3.44696 15.6653 3.41508C15.6335 3.3832 15.6156 3.33996 15.6156 3.29487C15.6149 3.27213 15.6188 3.24949 15.627 3.22828C15.6353 3.20707 15.6477 3.18774 15.6635 3.17142C15.6794 3.1551 15.6984 3.14213 15.7193 3.13327C15.7403 3.12442 15.7628 3.11986 15.7856 3.11987C15.8298 3.12117 15.8717 3.13966 15.9025 3.1714C15.9333 3.20314 15.9506 3.24564 15.9506 3.28987Z" fill="#EEEEEE" stroke="#1E1E1E" stroke-width="0.06" stroke-linejoin="round"/>
<path fill-rule="evenodd" clip-rule="evenodd" d="M15.7058 3.38007C15.7058 3.38007 15.8408 3.38007 15.8558 3.32507C15.8708 3.26507 15.8458 3.19507 15.8458 3.19507C15.8458 3.19507 15.9108 3.26507 15.8958 3.32007C15.8758 3.37507 15.8558 3.39007 15.8108 3.40507C15.7756 3.40881 15.7401 3.39995 15.7108 3.38007H15.7058Z" fill="#A3AFB8"/>
<path d="M15.5706 3.67488C15.5706 3.76988 15.4956 3.84488 15.4006 3.84488C15.3564 3.84358 15.3144 3.8251 15.2836 3.79336C15.2528 3.76162 15.2356 3.71912 15.2356 3.67488C15.2356 3.63065 15.2528 3.58815 15.2836 3.55641C15.3144 3.52467 15.3564 3.50618 15.4006 3.50488C15.4457 3.50488 15.4889 3.52279 15.5208 3.55467C15.5527 3.58656 15.5706 3.6298 15.5706 3.67488Z" fill="#EEEEEE" stroke="#1E1E1E" stroke-width="0.06" stroke-linejoin="round"/>
<path fill-rule="evenodd" clip-rule="evenodd" d="M15.3257 3.75995C15.3257 3.75995 15.4607 3.75995 15.4757 3.70495C15.4857 3.64995 15.4657 3.57495 15.4657 3.57495C15.4657 3.57495 15.5307 3.64995 15.5107 3.70495C15.4907 3.75495 15.4757 3.77495 15.4257 3.78495C15.3904 3.78869 15.355 3.77984 15.3257 3.75995Z" fill="#A3AFB8"/>
<path d="M15.4107 4.21004C15.4107 4.30504 15.3357 4.38004 15.2457 4.38004C15.2006 4.38004 15.1574 4.36213 15.1255 4.33025C15.0936 4.29837 15.0757 4.25513 15.0757 4.21004C15.0757 4.16581 15.0929 4.12331 15.1237 4.09156C15.1545 4.05982 15.1965 4.04134 15.2407 4.04004C15.2849 4.04002 15.3274 4.05724 15.3592 4.08805C15.3909 4.11886 15.4094 4.16082 15.4107 4.20504" fill="#EEEEEE"/>
<path d="M15.4107 4.21004C15.4107 4.30504 15.3357 4.38004 15.2457 4.38004C15.2006 4.38004 15.1574 4.36213 15.1255 4.33025C15.0936 4.29837 15.0757 4.25513 15.0757 4.21004C15.0757 4.16581 15.0929 4.12331 15.1237 4.09156C15.1545 4.05982 15.1965 4.04134 15.2407 4.04004C15.2849 4.04002 15.3274 4.05724 15.3592 4.08805C15.3909 4.11886 15.4094 4.16082 15.4107 4.20504" stroke="#1E1E1E" stroke-width="0.06" stroke-linejoin="round"/>
<path fill-rule="evenodd" clip-rule="evenodd" d="M15.1658 4.29986C15.1658 4.29986 15.3008 4.29486 15.3158 4.23986C15.3308 4.18486 15.3058 4.10986 15.3058 4.10986C15.3058 4.10986 15.3708 4.18486 15.3558 4.23986C15.3358 4.28986 15.3158 4.30986 15.2708 4.31986C15.2339 4.32485 15.1965 4.31594 15.1658 4.29486V4.29986Z" fill="#A3AFB8"/>
<path d="M15.4806 4.76497C15.4806 4.86497 15.4056 4.93997 15.3156 4.93997C15.2705 4.93997 15.2273 4.92206 15.1954 4.89018C15.1635 4.8583 15.1456 4.81506 15.1456 4.76997C15.1449 4.74764 15.1487 4.7254 15.1566 4.70452C15.1645 4.68364 15.1765 4.66453 15.1918 4.64828C15.2071 4.63203 15.2255 4.61895 15.2459 4.60981C15.2663 4.60066 15.2883 4.59562 15.3106 4.59497C15.3557 4.59497 15.3989 4.61288 15.4308 4.64476C15.4627 4.67664 15.4806 4.71988 15.4806 4.76497Z" fill="#EEEEEE" stroke="#1E1E1E" stroke-width="0.06" stroke-linejoin="round"/>
<path fill-rule="evenodd" clip-rule="evenodd" d="M15.2356 4.85492C15.2356 4.85492 15.3706 4.85492 15.3856 4.79492C15.4006 4.74492 15.3756 4.66992 15.3756 4.66992C15.3756 4.66992 15.4406 4.73992 15.4256 4.79492C15.4056 4.84992 15.3856 4.86492 15.3406 4.87992C15.3054 4.88366 15.2699 4.87481 15.2406 4.85492H15.2356Z" fill="#A3AFB8"/>
<path d="M15.7406 5.2751C15.7406 5.3651 15.6656 5.4451 15.5706 5.4451C15.5264 5.4438 15.4844 5.42531 15.4536 5.39357C15.4228 5.36183 15.4056 5.31933 15.4056 5.2751C15.4049 5.25277 15.4087 5.23053 15.4166 5.20965C15.4245 5.18877 15.4365 5.16966 15.4518 5.1534C15.4672 5.13715 15.4855 5.12408 15.5059 5.11493C15.5263 5.10579 15.5483 5.10074 15.5706 5.1001C15.5929 5.1001 15.615 5.10449 15.6356 5.11304C15.6563 5.12158 15.675 5.1341 15.6908 5.14989C15.7066 5.16568 15.7191 5.18442 15.7277 5.20504C15.7362 5.22567 15.7406 5.24777 15.7406 5.2701" fill="#EEEEEE"/>
<path d="M15.7406 5.2751C15.7406 5.3651 15.6656 5.4451 15.5706 5.4451C15.5264 5.4438 15.4844 5.42531 15.4536 5.39357C15.4228 5.36183 15.4056 5.31933 15.4056 5.2751C15.4049 5.25277 15.4087 5.23053 15.4166 5.20965C15.4245 5.18877 15.4365 5.16966 15.4518 5.1534C15.4672 5.13715 15.4855 5.12408 15.5059 5.11493C15.5263 5.10579 15.5483 5.10074 15.5706 5.1001C15.5929 5.1001 15.615 5.10449 15.6356 5.11304C15.6563 5.12158 15.675 5.1341 15.6908 5.14989C15.7066 5.16568 15.7191 5.18442 15.7277 5.20504C15.7362 5.22567 15.7406 5.24777 15.7406 5.2701" stroke="#1E1E1E" stroke-width="0.06" stroke-linejoin="round"/>
<path fill-rule="evenodd" clip-rule="evenodd" d="M15.4907 5.36005C15.4907 5.36005 15.6307 5.36005 15.6407 5.30505C15.6557 5.25005 15.6357 5.17505 15.6357 5.17505C15.6357 5.17505 15.7007 5.24505 15.6857 5.30005C15.6607 5.35505 15.6457 5.37005 15.6007 5.38505C15.5638 5.39003 15.5264 5.38112 15.4957 5.36005H15.4907Z" fill="#A3AFB8"/>
<path d="M16.0333 5.90905C16.0448 5.95204 16.0453 5.99615 16.0346 6.03185C16.0239 6.06755 16.0029 6.09198 15.9761 6.09987C15.9488 6.10717 15.9181 6.09692 15.8906 6.07137C15.8631 6.04583 15.8412 6.00708 15.8295 5.96366C15.818 5.92067 15.8175 5.87656 15.8282 5.84085C15.839 5.80515 15.86 5.78072 15.8868 5.77284C15.914 5.76554 15.9447 5.77579 15.9722 5.80133C15.9997 5.82688 16.0217 5.86563 16.0333 5.90905Z" fill="#EEEEEE" stroke="#1E1E1E" stroke-width="0.0578265" stroke-linejoin="round"/>
<path fill-rule="evenodd" clip-rule="evenodd" d="M15.9053 6.03496C15.9053 6.03496 15.9853 6.00996 15.9803 5.95496C15.9803 5.89996 15.9453 5.83496 15.9453 5.83496C15.9453 5.83496 16.0003 5.88996 16.0053 5.94996C16.0053 5.99996 16.0003 6.01996 15.9753 6.03996C15.9603 6.04996 15.9253 6.04996 15.9053 6.03496Z" fill="#A3AFB8"/>
<path d="M20.3808 5.9417C20.3701 5.98491 20.3492 6.02376 20.3226 6.04985C20.296 6.07595 20.2658 6.0872 20.2385 6.08118C20.2111 6.07442 20.1892 6.0506 20.1774 6.01496C20.1657 5.97932 20.1652 5.93478 20.1759 5.89113C20.1866 5.84792 20.2075 5.80907 20.2341 5.78297C20.2607 5.75688 20.2909 5.74563 20.3182 5.75165C20.3456 5.75841 20.3675 5.78223 20.3793 5.81787C20.391 5.85351 20.3915 5.89805 20.3808 5.9417Z" fill="#EEEEEE" stroke="#1E1E1E" stroke-width="0.0578269" stroke-linejoin="round"/>
<path fill-rule="evenodd" clip-rule="evenodd" d="M20.2046 5.99008C20.2046 5.99008 20.2896 6.01008 20.3096 5.95508C20.3346 5.90508 20.3346 5.83008 20.3346 5.83008C20.3346 5.83008 20.3596 5.91008 20.3346 5.96008C20.3096 6.01008 20.2946 6.02508 20.2646 6.02508C20.2446 6.03008 20.2146 6.01008 20.2046 5.99008Z" fill="#A3AFB8"/>
<path fill-rule="evenodd" clip-rule="evenodd" d="M17.9249 2.68994L17.9399 2.97494C17.9399 2.97494 17.5999 3.00494 17.5899 3.03494C17.5199 3.18494 17.6649 3.38494 17.6649 3.38494C17.6649 3.38494 17.7799 3.29494 18.0649 3.29494C18.3399 3.29494 18.4799 3.36494 18.4799 3.36494C18.4799 3.36494 18.5499 3.24994 18.5499 3.16494C18.5499 3.07994 18.5199 2.99494 18.5199 2.99494L18.3399 2.97494H18.2149L18.2049 2.68494L17.9249 2.68994Z" fill="#B3A192" stroke="black" stroke-width="0.06"/>
<path d="M18.4102 3.12994C18.4102 3.16494 18.3802 3.18994 18.3502 3.18994C18.3152 3.18994 18.2852 3.16494 18.2852 3.13494C18.2852 3.09994 18.3152 3.07494 18.3452 3.07494C18.3802 3.07494 18.4052 3.09994 18.4102 3.12994ZM18.5452 3.16494C18.5452 3.19494 18.5202 3.22494 18.4852 3.22494C18.4502 3.22494 18.4202 3.19494 18.4202 3.16494C18.4202 3.12994 18.4502 3.10494 18.4852 3.10494C18.5202 3.10494 18.5452 3.12994 18.5452 3.16494ZM18.2702 3.12994C18.2702 3.15994 18.2402 3.18994 18.2102 3.18994C18.1752 3.18994 18.1502 3.15994 18.1502 3.12994C18.1502 3.09994 18.1752 3.06994 18.2052 3.06994C18.2402 3.06994 18.2702 3.09994 18.2702 3.12994ZM17.9902 3.12994C17.9902 3.16494 17.9602 3.19494 17.9252 3.19494C17.8902 3.19494 17.8652 3.16494 17.8652 3.13494C17.8652 3.09994 17.8902 3.07494 17.9252 3.07494C17.9602 3.07494 17.9902 3.09994 17.9902 3.13494M17.8352 3.14494C17.8352 3.17494 17.8052 3.20494 17.7702 3.20494C17.7352 3.20494 17.7102 3.17994 17.7102 3.14494C17.7102 3.10994 17.7352 3.08494 17.7702 3.08494C17.8052 3.08494 17.8352 3.10994 17.8352 3.14494ZM18.1202 2.96994C18.1202 2.99994 18.0952 3.01994 18.0702 3.01994C18.0628 3.02144 18.0552 3.02127 18.048 3.01944C18.0407 3.01761 18.0339 3.01416 18.0282 3.00936C18.0224 3.00456 18.0178 2.99852 18.0147 2.9917C18.0116 2.98487 18.01 2.97744 18.0102 2.96994C18.0102 2.93994 18.0352 2.91994 18.0652 2.91994C18.0952 2.91994 18.1152 2.93994 18.1152 2.96994M18.1152 2.73494C18.1152 2.75994 18.0952 2.78494 18.0652 2.78494C18.0519 2.78494 18.0392 2.77967 18.0298 2.77029C18.0204 2.76092 18.0152 2.7482 18.0152 2.73494C18.0152 2.70494 18.0352 2.68494 18.0652 2.68494C18.0952 2.68494 18.1152 2.70494 18.1152 2.73494ZM18.1152 2.85994C18.1152 2.88994 18.0952 2.90994 18.0652 2.90994C18.0352 2.90994 18.0152 2.88994 18.0152 2.85994C18.0152 2.83494 18.0352 2.80994 18.0652 2.80994C18.0952 2.80994 18.1152 2.82994 18.1152 2.85994ZM17.6752 3.18494C17.6752 3.21994 17.6502 3.24494 17.6152 3.24494C17.5852 3.24494 17.5552 3.21994 17.5552 3.18494C17.5552 3.15494 17.5802 3.12994 17.6152 3.12994C17.6502 3.12994 17.6752 3.15494 17.6752 3.18494Z" fill="#F0DDCB"/>
<path d="M17.9902 3.12994C17.9902 3.16494 17.9602 3.19494 17.9252 3.19494C17.8902 3.19494 17.8652 3.16494 17.8652 3.13494C17.8652 3.09994 17.8902 3.07494 17.9252 3.07494C17.9602 3.07494 17.9902 3.09994 17.9902 3.13494M18.1202 2.96994C18.1202 2.99994 18.0952 3.01994 18.0702 3.01994C18.0628 3.02144 18.0552 3.02127 18.048 3.01944C18.0407 3.01761 18.0339 3.01416 18.0282 3.00936C18.0224 3.00456 18.0178 2.99852 18.0147 2.9917C18.0116 2.98487 18.01 2.97744 18.0102 2.96994C18.0102 2.93994 18.0352 2.91994 18.0652 2.91994C18.0952 2.91994 18.1152 2.93994 18.1152 2.96994M18.4102 3.12994C18.4102 3.16494 18.3802 3.18994 18.3502 3.18994C18.3152 3.18994 18.2852 3.16494 18.2852 3.13494C18.2852 3.09994 18.3152 3.07494 18.3452 3.07494C18.3802 3.07494 18.4052 3.09994 18.4102 3.12994ZM18.5452 3.16494C18.5452 3.19494 18.5202 3.22494 18.4852 3.22494C18.4502 3.22494 18.4202 3.19494 18.4202 3.16494C18.4202 3.12994 18.4502 3.10494 18.4852 3.10494C18.5202 3.10494 18.5452 3.12994 18.5452 3.16494ZM18.2702 3.12994C18.2702 3.15994 18.2402 3.18994 18.2102 3.18994C18.1752 3.18994 18.1502 3.15994 18.1502 3.12994C18.1502 3.09994 18.1752 3.06994 18.2052 3.06994C18.2402 3.06994 18.2702 3.09994 18.2702 3.12994ZM17.8352 3.14494C17.8352 3.17494 17.8052 3.20494 17.7702 3.20494C17.7352 3.20494 17.7102 3.17994 17.7102 3.14494C17.7102 3.10994 17.7352 3.08494 17.7702 3.08494C17.8052 3.08494 17.8352 3.10994 17.8352 3.14494ZM18.1152 2.73494C18.1152 2.75994 18.0952 2.78494 18.0652 2.78494C18.0519 2.78494 18.0392 2.77967 18.0298 2.77029C18.0204 2.76092 18.0152 2.7482 18.0152 2.73494C18.0152 2.70494 18.0352 2.68494 18.0652 2.68494C18.0952 2.68494 18.1152 2.70494 18.1152 2.73494ZM18.1152 2.85994C18.1152 2.88994 18.0952 2.90994 18.0652 2.90994C18.0352 2.90994 18.0152 2.88994 18.0152 2.85994C18.0152 2.83494 18.0352 2.80994 18.0652 2.80994C18.0952 2.80994 18.1152 2.82994 18.1152 2.85994ZM17.6752 3.18494C17.6752 3.21994 17.6502 3.24494 17.6152 3.24494C17.5852 3.24494 17.5552 3.21994 17.5552 3.18494C17.5552 3.15494 17.5802 3.12994 17.6152 3.12994C17.6502 3.12994 17.6752 3.15494 17.6752 3.18494Z" stroke="#121116" stroke-width="0.03" stroke-linejoin="round"/>
<path d="M18.135 3.11993C18.135 3.15493 18.105 3.17993 18.065 3.17993C18.0486 3.17998 18.0328 3.17382 18.0207 3.16269C18.0087 3.15157 18.0013 3.13629 18 3.11993C18 3.08493 18.03 3.05493 18.065 3.05493C18.1 3.05493 18.13 3.08493 18.13 3.11993" fill="#916C68"/>
<path d="M18.135 3.11993C18.135 3.15493 18.105 3.17993 18.065 3.17993C18.0486 3.17998 18.0328 3.17382 18.0207 3.16269C18.0087 3.15157 18.0013 3.13629 18 3.11993C18 3.08493 18.03 3.05493 18.065 3.05493C18.1 3.05493 18.13 3.08493 18.13 3.11993" stroke="#4D3126" stroke-width="0.03" stroke-linejoin="round"/>
<path d="M18.1933 2.2749C18.1934 2.3072 18.1809 2.33826 18.1585 2.36156C18.1361 2.38487 18.1056 2.39861 18.0733 2.3999C18.0569 2.3999 18.0407 2.39666 18.0255 2.39038C18.0103 2.3841 17.9966 2.37489 17.985 2.36329C17.9733 2.35168 17.9641 2.3379 17.9579 2.32273C17.9516 2.30757 17.9483 2.29131 17.9483 2.2749C17.9477 2.25807 17.9504 2.24127 17.9564 2.22553C17.9624 2.20978 17.9715 2.1954 17.9831 2.18326C17.9948 2.17112 18.0088 2.16146 18.0243 2.15487C18.0398 2.14828 18.0565 2.14488 18.0733 2.1449C18.1065 2.1449 18.1383 2.15807 18.1617 2.18151C18.1852 2.20495 18.1983 2.23675 18.1983 2.2699" fill="#EEEEEE"/>
<path d="M18.1933 2.2749C18.1934 2.3072 18.1809 2.33826 18.1585 2.36156C18.1361 2.38487 18.1056 2.39861 18.0733 2.3999C18.0569 2.3999 18.0407 2.39666 18.0255 2.39038C18.0103 2.3841 17.9966 2.37489 17.985 2.36329C17.9733 2.35168 17.9641 2.3379 17.9579 2.32273C17.9516 2.30757 17.9483 2.29131 17.9483 2.2749C17.9477 2.25807 17.9504 2.24127 17.9564 2.22553C17.9624 2.20978 17.9715 2.1954 17.9831 2.18326C17.9948 2.17112 18.0088 2.16146 18.0243 2.15487C18.0398 2.14828 18.0565 2.14488 18.0733 2.1449C18.1065 2.1449 18.1383 2.15807 18.1617 2.18151C18.1852 2.20495 18.1983 2.23675 18.1983 2.2699" stroke="#1E1E1E" stroke-width="0.06" stroke-linejoin="round"/>
<path fill-rule="evenodd" clip-rule="evenodd" d="M18.0132 2.33983C18.0132 2.33983 18.1132 2.33983 18.1232 2.28983C18.1332 2.25483 18.1182 2.19983 18.1182 2.19983C18.1182 2.19983 18.1682 2.24983 18.1532 2.29483C18.1382 2.33483 18.1232 2.34483 18.0932 2.35483C18.0656 2.36024 18.037 2.35487 18.0132 2.33983Z" fill="#A3AFB8"/>
<path fill-rule="evenodd" clip-rule="evenodd" d="M16.0901 6.50494C16.0901 6.50494 16.2001 6.60994 16.2301 6.70494C16.2601 6.79494 16.3051 7.04493 16.3051 7.04493C16.3051 7.04493 17.4651 6.71993 18.0351 6.74493C18.6051 6.77493 19.9201 7.05993 19.9201 7.05993L19.9701 6.77494C19.9951 6.62494 20.1051 6.45993 20.1051 6.45993C20.1051 6.45993 18.8501 6.06993 18.0551 6.10993C17.5948 6.11389 17.1365 6.17264 16.6901 6.28493C16.4883 6.35331 16.2882 6.42667 16.0901 6.50494Z" fill="#FFCC00" stroke="black" stroke-width="0.025"/>
<path fill-rule="evenodd" clip-rule="evenodd" d="M17.825 1.79993H18.325C18.325 1.79993 18.2 1.88493 18.175 1.96993C18.155 2.03993 18.16 2.15493 18.16 2.15493C18.16 2.15493 18.295 2.15493 18.36 2.10493C18.4202 2.05476 18.4819 2.00641 18.545 1.95993V2.59493C18.545 2.59493 18.42 2.47993 18.345 2.43993C18.2897 2.41076 18.2309 2.38891 18.17 2.37493C18.17 2.37493 18.17 2.47493 18.21 2.53993C18.25 2.60493 18.425 2.82993 18.425 2.82993L17.71 2.85493C17.71 2.85493 17.88 2.67993 17.95 2.54993C17.995 2.46493 17.975 2.37493 17.975 2.37493C17.975 2.37493 17.855 2.37493 17.795 2.41993C17.73 2.45993 17.625 2.58493 17.625 2.58493V1.97493C17.625 1.97493 17.675 2.09493 17.775 2.13993C17.875 2.18493 17.965 2.15993 17.965 2.15993C17.965 2.15993 17.985 2.03993 17.945 1.95993C17.905 1.88493 17.815 1.79993 17.825 1.80493V1.79993Z" fill="#FFCC00" stroke="black" stroke-width="0.06"/>
<path fill-rule="evenodd" clip-rule="evenodd" d="M17.7852 3.82501C17.7852 3.82501 17.4302 3.82001 17.1252 3.64001C16.8202 3.46001 16.5102 3.27001 16.0602 3.37501C15.9702 3.40001 15.6302 3.55001 15.4802 4.03501C15.4018 4.35072 15.4446 4.68434 15.6002 4.97001C15.6819 5.10173 15.7756 5.22559 15.8802 5.34001L16.0652 5.21501C16.0652 5.21501 15.6002 4.81501 15.6552 4.30501C15.7052 3.79001 15.9652 3.67001 15.9652 3.67001C15.9652 3.67001 16.2852 3.42001 16.7102 3.65501C17.1045 3.86999 17.5321 4.01705 17.9752 4.09001C18.0052 4.08501 17.7752 3.82001 17.7852 3.82501Z" fill="#FFCC00" stroke="#121116" stroke-width="0.06"/>
<path fill-rule="evenodd" clip-rule="evenodd" d="M15.815 5.74991L15.625 5.37991L16.195 5.15991C16.195 5.15991 16.055 5.33991 16.025 5.46991C15.985 5.62991 16 5.76491 16 5.76491C16 5.76491 16.05 5.72491 16.115 5.61991C16.165 5.54491 16.245 5.25491 16.245 5.25491L16.5 6.06991C16.5 6.06991 16.37 5.93991 16.275 5.92491C16.175 5.90491 16.045 5.93991 16.045 5.93991L15.895 5.98991L15.815 5.74991Z" fill="#FFCC00" stroke="black" stroke-width="0.06"/>
<path fill-rule="evenodd" clip-rule="evenodd" d="M18.425 3.81492C18.425 3.81492 18.78 3.81492 19.085 3.62992C19.39 3.44992 19.695 3.26492 20.15 3.36992C20.24 3.38992 20.58 3.53992 20.73 4.02492C20.8069 4.34124 20.7623 4.67489 20.605 4.95992C20.5479 5.06001 20.4879 5.15838 20.425 5.25492L20.205 5.17492C20.205 5.17492 20.61 4.80992 20.555 4.29492C20.5 3.77992 20.245 3.65992 20.245 3.65992C20.245 3.65992 19.925 3.40992 19.5 3.64992C19.075 3.88492 18.66 3.98992 18.66 3.98992C18.66 3.98992 18.27 4.08992 18.235 4.07992C18.2 4.07992 18.435 3.80992 18.425 3.81492Z" fill="#FFCC00" stroke="#121116" stroke-width="0.06"/>
<path d="M18.2402 3.46496H18.3902V4.84996H18.2402V3.46496ZM17.7402 3.45496H17.9152V4.83996H17.7402V3.45496Z" fill="#FFCC00" stroke="#121116" stroke-width="0.06" stroke-linejoin="round"/>
<path d="M18.5501 3.13494C18.5501 3.38494 18.3351 3.58494 18.0651 3.58494C17.8001 3.58494 17.5801 3.38494 17.5801 3.13494C17.5801 2.88994 17.7951 2.68994 18.0601 2.68994C18.3301 2.68994 18.5501 2.88994 18.5501 3.13494Z" fill="#FFCC00" stroke="#121116" stroke-width="0.06" stroke-linejoin="round"/>
<path fill-rule="evenodd" clip-rule="evenodd" d="M17.6352 4.83996L18.4702 4.82996C18.4702 4.82996 18.3702 4.88996 18.2852 5.03996C18.2052 5.18996 18.2152 5.27996 18.2152 5.27996C18.2152 5.27996 18.3402 5.27996 18.4302 5.21496C18.4997 5.15995 18.5633 5.09796 18.6202 5.02996V5.79496C18.6202 5.79496 18.5552 5.69496 18.4552 5.64496C18.3552 5.57996 18.2152 5.57996 18.2152 5.57996H17.9302C17.9302 5.57996 17.8002 5.58996 17.7452 5.62996C17.6791 5.67798 17.6172 5.73151 17.5602 5.78996L17.5452 5.05996C17.5452 5.05996 17.5852 5.18996 17.7202 5.23996C17.8552 5.28996 17.9302 5.28996 17.9302 5.28996C17.9302 5.28996 17.9302 5.11996 17.8602 5.03996C17.7914 4.96657 17.7161 4.89963 17.6352 4.83996Z" fill="#FFCC00" stroke="black" stroke-width="0.05"/>
<path fill-rule="evenodd" clip-rule="evenodd" d="M18.1003 5.43993C18.1003 5.43993 18.2203 5.72493 18.3653 5.84993C18.4453 5.92493 18.6953 5.97993 18.8053 5.94993C19.0553 5.88493 19.2353 5.68493 19.2353 5.68493C19.2353 5.68493 19.2253 5.90493 19.3853 6.02993C19.5403 6.14993 19.6653 6.17993 19.7953 6.14493C19.9303 6.10993 20.2953 5.83493 20.2953 5.83493L20.3753 5.89993C20.3753 5.89993 20.1603 6.10993 19.9403 6.21493C19.8253 6.27493 19.4753 6.23993 19.3653 6.14993C19.2503 6.05993 19.1853 5.84493 19.1853 5.84493C19.1853 5.84493 19.1153 5.98493 18.9653 6.03493C18.8153 6.08493 18.6153 6.08493 18.4203 6.02493C18.2953 5.98493 18.1253 5.80993 18.0953 5.74993C18.0653 5.69493 18.0753 5.65993 18.0753 5.65993C18.0753 5.65993 17.9753 5.92993 17.7853 6.00493C17.6005 6.07187 17.3993 6.07887 17.2103 6.02493C17.0303 5.97493 17.0153 5.86993 17.0153 5.86993C17.0153 5.86993 17.0053 6.15493 16.6153 6.23493C16.2153 6.31493 15.9053 6.02993 15.9053 6.02993L15.9603 5.94493C15.9603 5.94493 16.1803 6.19493 16.5203 6.17493C16.8603 6.14993 16.9703 5.71493 16.9703 5.71493C16.9703 5.71493 17.1203 5.93993 17.5203 5.94493C17.9153 5.94993 18.0303 5.42993 18.0303 5.42993L18.1003 5.43993Z" fill="#F6CA1F" stroke="black" stroke-width="0.045"/>
<path fill-rule="evenodd" clip-rule="evenodd" d="M17.1189 5.60507C17.1189 5.60507 17.1189 5.47007 17.1539 5.42507C17.1939 5.37007 17.2539 5.36507 17.2839 5.37507C17.3189 5.38507 17.3539 5.41507 17.3489 5.51507C17.3439 5.61007 17.3139 5.65507 17.3489 5.69507C17.3739 5.73007 17.3789 5.75507 17.4339 5.74507C17.4839 5.73507 17.5139 5.72007 17.4989 5.67007C17.4839 5.62007 17.4739 5.67007 17.4639 5.63007C17.4539 5.58507 17.5139 5.40007 17.5039 5.28507C17.4939 5.17507 17.4539 5.08507 17.3639 5.06007C17.2839 5.04007 17.2139 5.04007 17.1389 5.09507C17.0689 5.14507 16.9739 5.32007 16.9739 5.32007V5.69507L17.1239 5.68507V5.60507H17.1189Z" fill="#FFCC00" stroke="black" stroke-width="0.055"/>
<path fill-rule="evenodd" clip-rule="evenodd" d="M16.8391 5.70503C16.8391 5.70503 16.7791 5.58003 16.7391 5.55503C16.7184 5.54106 16.6941 5.5336 16.6691 5.5336C16.6442 5.5336 16.6198 5.54106 16.5991 5.55503C16.5691 5.58003 16.5491 5.62503 16.5941 5.71003C16.6341 5.79503 16.6791 5.83003 16.6641 5.87503C16.6541 5.92003 16.6641 5.94503 16.6091 5.96003C16.5541 5.97503 16.5241 5.96503 16.5141 5.91003C16.5041 5.86003 16.5441 5.91003 16.5341 5.86003C16.5291 5.82003 16.3941 5.67503 16.3591 5.56503C16.3241 5.46003 16.3291 5.36003 16.3991 5.30503C16.4641 5.25503 16.5241 5.22503 16.6141 5.24503C16.7041 5.26503 16.8591 5.39003 16.8591 5.39003L17.0091 5.73003L16.8691 5.78003L16.8391 5.70503Z" fill="#FFCC00" stroke="black" stroke-width="0.055"/>
<path fill-rule="evenodd" clip-rule="evenodd" d="M16.8091 4.60498C16.8091 4.60498 16.6591 4.85498 16.6941 5.04498C16.7291 5.23498 16.9241 5.64498 16.9241 5.64498V5.69498L17.0341 5.68498L17.0091 5.62998C17.0091 5.62998 17.0591 5.13998 17.0291 4.98498C16.973 4.84908 16.899 4.72128 16.8091 4.60498ZM17.0441 5.73998C17.0441 5.73998 17.1191 5.82498 17.2041 5.86998C17.3041 5.91498 17.3441 5.91998 17.3791 5.88498C17.4091 5.86498 17.3991 5.77498 17.3641 5.74998C17.3341 5.72498 17.2941 5.73998 17.2891 5.76498C17.2791 5.80498 17.2691 5.80498 17.2391 5.78498C17.1891 5.76498 17.0891 5.69998 17.0891 5.69998L17.0441 5.73998ZM16.9291 5.75998C16.9291 5.75998 16.8991 5.86998 16.8391 5.94498C16.7691 6.02498 16.7341 6.04498 16.6891 6.02998C16.6541 6.02498 16.6241 5.93998 16.6441 5.89998C16.6641 5.86498 16.7041 5.85998 16.7191 5.87998C16.7441 5.91498 16.7541 5.90998 16.7741 5.87998L16.8741 5.74498L16.9291 5.75998Z" fill="#FFCC00" stroke="black" stroke-width="0.055"/>
<path d="M17.2089 5.66996C17.2189 5.69996 17.1189 5.74496 16.9939 5.76496C16.8689 5.78496 16.7639 5.77996 16.7539 5.74496C16.7539 5.71496 16.8489 5.66996 16.9739 5.64496C17.0989 5.62496 17.2039 5.63496 17.2089 5.66996Z" fill="#FFCC00" stroke="black" stroke-width="0.055" stroke-linejoin="round"/>
<path fill-rule="evenodd" clip-rule="evenodd" d="M19.3691 5.65996C19.3691 5.65996 19.4191 5.53496 19.4691 5.50496C19.5241 5.46496 19.5791 5.47996 19.6041 5.50496C19.6341 5.51996 19.6541 5.56496 19.6191 5.65496C19.5791 5.73996 19.5391 5.77496 19.5491 5.81996C19.5641 5.86996 19.5591 5.88996 19.6141 5.89996C19.6691 5.91496 19.6991 5.90496 19.7041 5.84996C19.7091 5.79996 19.6791 5.84996 19.6841 5.79996C19.6841 5.75996 19.8141 5.60496 19.8441 5.49996C19.8741 5.38496 19.8641 5.28996 19.7941 5.23496C19.7241 5.18496 19.6591 5.16496 19.5691 5.18996C19.4841 5.21496 19.3341 5.34496 19.3341 5.34496L19.2041 5.69496L19.3491 5.73996L19.3691 5.65996Z" fill="#FFCC00" stroke="black" stroke-width="0.055"/>
<path fill-rule="evenodd" clip-rule="evenodd" d="M19.0741 5.65491C19.0741 5.65491 19.0641 5.51991 19.0291 5.47991C18.9841 5.42491 18.9291 5.42491 18.8991 5.42991C18.8641 5.44491 18.8291 5.47991 18.8391 5.57491C18.8491 5.67491 18.8791 5.71491 18.8541 5.75491C18.8241 5.79491 18.8241 5.81491 18.7691 5.80991C18.7141 5.80991 18.6841 5.78991 18.6941 5.73991C18.7041 5.68991 18.7241 5.73991 18.7341 5.69491C18.7391 5.65491 18.6691 5.46991 18.6741 5.35491C18.6741 5.24491 18.7141 5.15491 18.7991 5.12491C18.8791 5.09991 18.9491 5.09491 19.0241 5.14991C19.0991 5.19991 19.2041 5.36491 19.2041 5.36491L19.2241 5.73491H19.0741V5.65491Z" fill="#FFCC00" stroke="black" stroke-width="0.055"/>
<path fill-rule="evenodd" clip-rule="evenodd" d="M19.4291 4.61499C19.4291 4.61499 19.2041 4.79499 19.1691 4.98499C19.1341 5.17499 19.1741 5.62499 19.1741 5.62499L19.1591 5.67499L19.2591 5.70499V5.64499C19.2591 5.64499 19.4791 5.20499 19.5041 5.04499C19.4989 4.8989 19.4736 4.75422 19.4291 4.61499ZM19.2541 5.75999C19.2541 5.75999 19.2941 5.86499 19.3591 5.93499C19.4341 6.01499 19.4691 6.02999 19.5141 6.01499C19.5491 6.00499 19.5691 5.91499 19.5491 5.88499C19.5291 5.84999 19.4891 5.84999 19.4741 5.86999C19.4491 5.90499 19.4391 5.89499 19.4191 5.86999C19.3815 5.82747 19.3448 5.78412 19.3091 5.73999L19.2541 5.75999ZM19.1391 5.73499C19.1391 5.73499 19.0741 5.82999 18.9891 5.87499C18.8941 5.92999 18.8541 5.93499 18.8141 5.90499C18.7841 5.88999 18.7891 5.79999 18.8191 5.76999C18.8541 5.74499 18.8891 5.75499 18.8991 5.77999C18.9091 5.81999 18.9241 5.81499 18.9491 5.79999L19.0891 5.69999L19.1391 5.73499Z" fill="#FFCC00" stroke="black" stroke-width="0.055"/>
<path d="M19.4339 5.7499C19.4289 5.7849 19.3189 5.7899 19.1939 5.7649C19.0689 5.7399 18.9739 5.6949 18.9789 5.6649C18.9839 5.6299 19.0939 5.6249 19.2189 5.6499C19.3439 5.6749 19.4389 5.7199 19.4339 5.7499Z" fill="#FFCC00" stroke="black" stroke-width="0.055" stroke-linejoin="round"/>
<path fill-rule="evenodd" clip-rule="evenodd" d="M16.0401 6.49499C16.0401 6.49499 16.0702 6.59499 16.1252 6.54499C16.1852 6.48999 16.9902 6.16999 18.1252 6.16999C19.2602 6.16999 20.0001 6.48499 20.0451 6.50499C20.0901 6.51999 20.1101 6.54499 20.1451 6.50499C20.1851 6.45499 20.1101 6.38999 20.1101 6.38999C20.1101 6.38999 19.3201 6.05499 18.0901 6.05999C16.8551 6.06499 16.0601 6.41499 16.0601 6.41499C16.0601 6.41499 16.0101 6.45499 16.0451 6.49499H16.0401Z" fill="#CCA715" stroke="black" stroke-width="0.025"/>
<path fill-rule="evenodd" clip-rule="evenodd" d="M17.485 6.96497C17.485 6.96497 17.52 6.86497 17.585 6.84497C17.635 6.82997 17.71 6.87997 17.71 6.87997C17.71 6.87997 17.615 6.86997 17.585 6.88997C17.56 6.90497 17.55 6.94997 17.55 6.94997C17.55 6.94997 17.57 6.90997 17.645 6.91497H17.725C17.725 6.91497 17.6 6.92997 17.575 6.96497C17.545 6.99997 17.69 7.01497 17.69 7.01497C17.69 7.01497 17.465 7.01497 17.44 7.00497C17.41 6.98997 17.39 6.94497 17.34 6.95497C17.29 6.97497 17.24 7.01997 17.24 7.01997C17.24 7.01997 17.295 6.91997 17.33 6.91997C17.365 6.91997 17.39 6.91997 17.42 6.93497L17.485 6.96497ZM16.645 7.14497C16.645 7.14497 16.66 7.04497 16.72 7.00997C16.77 6.98497 16.855 7.01997 16.855 7.01997C16.855 7.01997 16.755 7.02997 16.73 7.04997C16.71 7.06997 16.71 7.11997 16.71 7.11997C16.71 7.11997 16.725 7.07997 16.795 7.06997C16.8218 7.06529 16.8484 7.06029 16.875 7.05497C16.875 7.05497 16.755 7.08997 16.735 7.12997C16.71 7.16997 16.86 7.15997 16.86 7.15997C16.86 7.15997 16.64 7.19997 16.61 7.19497C16.575 7.18497 16.55 7.14497 16.505 7.16997C16.455 7.18997 16.415 7.24497 16.415 7.24497C16.415 7.24497 16.455 7.13997 16.49 7.12997C16.525 7.12497 16.54 7.11997 16.58 7.12997L16.645 7.14497ZM18.19 6.92997C18.19 6.92997 18.23 6.82997 18.29 6.81497C18.345 6.79997 18.425 6.85497 18.425 6.85497C18.425 6.85497 18.325 6.83997 18.295 6.85497C18.27 6.86997 18.26 6.91497 18.26 6.91497C18.26 6.91497 18.28 6.87997 18.355 6.88997L18.435 6.89497C18.435 6.89497 18.31 6.89497 18.28 6.93497C18.25 6.96497 18.395 6.98997 18.395 6.98997C18.395 6.98997 18.17 6.97997 18.145 6.96497C18.115 6.94997 18.095 6.90497 18.045 6.91497C17.995 6.92497 17.945 6.96497 17.945 6.96497C17.945 6.96497 18.005 6.87497 18.04 6.87497C18.075 6.87497 18.095 6.87497 18.13 6.89497L18.19 6.92997ZM18.895 7.00997C18.895 7.00997 18.945 6.91497 19.015 6.90997C19.065 6.89997 19.135 6.95997 19.135 6.95997C19.135 6.95997 19.045 6.93997 19.01 6.94997C18.98 6.95997 18.965 6.99997 18.965 6.99997C18.965 6.99997 18.99 6.96997 19.065 6.98497L19.145 7.00497C19.145 7.00497 19.02 6.99497 18.985 7.02497C18.95 7.05497 19.09 7.09497 19.09 7.09497C19.09 7.09497 18.87 7.05497 18.84 7.03997C18.82 7.01997 18.805 6.96997 18.755 6.97497C18.705 6.97997 18.645 7.01497 18.645 7.01497C18.645 7.01497 18.72 6.93497 18.755 6.93997C18.79 6.93997 18.81 6.94497 18.84 6.96497L18.895 7.00997ZM19.595 7.13497C19.595 7.13497 19.645 7.06497 19.7 7.05997C19.745 7.05997 19.795 7.11497 19.795 7.11497C19.795 7.11497 19.72 7.08997 19.695 7.09497C19.67 7.09997 19.655 7.13497 19.655 7.13497C19.655 7.13497 19.68 7.10997 19.735 7.12997L19.8 7.14997C19.8 7.14997 19.7 7.12997 19.67 7.14997C19.64 7.17497 19.75 7.21997 19.75 7.21997C19.75 7.21997 19.575 7.16997 19.55 7.15497C19.535 7.13997 19.53 7.09997 19.49 7.09997C19.445 7.09997 19.395 7.12497 19.395 7.12497C19.395 7.12497 19.46 7.05997 19.49 7.06997C19.515 7.06997 19.535 7.07997 19.555 7.09497L19.595 7.13497Z" fill="black"/>
<path d="M17.3399 6.48491C17.3599 6.56991 17.2599 6.65991 17.1199 6.68491C16.9799 6.71491 16.8549 6.66991 16.8399 6.58491C16.8249 6.50491 16.9199 6.41491 17.0599 6.38491C17.1999 6.35491 17.3249 6.39991 17.3399 6.48491Z" fill="#0F6545" stroke="black" stroke-width="0.035" stroke-linejoin="round"/>
<path d="M17.03 6.46995C17.03 6.48995 17.01 6.51495 16.98 6.51995C16.95 6.52495 16.92 6.51495 16.915 6.49495C16.915 6.47495 16.935 6.45495 16.965 6.44495C16.995 6.44495 17.025 6.44995 17.03 6.46995Z" fill="#CECFC1"/>
<path d="M19.2952 6.58994C19.2702 6.66994 19.1452 6.69994 19.0052 6.65994C18.8702 6.61494 18.7852 6.51494 18.8052 6.43494C18.8352 6.35494 18.9652 6.31994 19.1002 6.36494C19.2352 6.40494 19.3252 6.50494 19.3002 6.58494L19.2952 6.58994Z" fill="#0F6545" stroke="black" stroke-width="0.035" stroke-linejoin="round"/>
<path d="M19.0302 6.42491C19.0202 6.44491 18.9952 6.45491 18.9652 6.44491C18.9352 6.43491 18.9152 6.40991 18.9202 6.39491C18.9252 6.36991 18.9552 6.36491 18.9852 6.36991C19.0152 6.37991 19.0352 6.40491 19.0302 6.41991V6.42491Z" fill="#CECFC1"/>
<path d="M17.8203 6.29993H18.3253V6.54993H17.8203V6.29993Z" fill="#1F2D86" stroke="black" stroke-width="0.05" stroke-linejoin="round"/>
<path d="M18.0351 6.34996C18.0351 6.36496 18.0151 6.37496 17.9851 6.37496C17.9551 6.37496 17.9351 6.36496 17.9351 6.34996C17.9351 6.33996 17.9601 6.32996 17.9851 6.32996C18.0101 6.32996 18.0351 6.33996 18.0351 6.34996Z" fill="#707C8B"/>
<path fill-rule="evenodd" clip-rule="evenodd" d="M16.3901 6.54997L16.4701 6.79997L16.3201 6.88497C16.3201 6.88497 16.2451 6.93497 16.1701 6.89497C16.1001 6.85997 16.0601 6.74497 16.1001 6.69497C16.1751 6.60497 16.3851 6.54497 16.3851 6.54997H16.3901Z" fill="#9F1209" stroke="black" stroke-width="0.025"/>
<path d="M16.2602 6.72991C16.2602 6.76991 16.2252 6.80491 16.1852 6.80491C16.1452 6.80491 16.1152 6.76991 16.1152 6.72991C16.1152 6.68491 16.1452 6.65491 16.1852 6.65491C16.2252 6.65491 16.2602 6.68491 16.2602 6.72991Z" fill="#8F322F"/>
<path d="M16.19 6.69999C16.1912 6.7062 16.191 6.71261 16.1892 6.71869C16.1875 6.72478 16.1843 6.73036 16.18 6.73499C16.1765 6.73783 16.1721 6.73938 16.1675 6.73938C16.163 6.73938 16.1586 6.73783 16.155 6.73499C16.1502 6.73243 16.1459 6.72888 16.1424 6.72458C16.139 6.72028 16.1365 6.71531 16.135 6.70999C16.1338 6.70378 16.1341 6.69737 16.1358 6.69129C16.1376 6.6852 16.1407 6.67962 16.145 6.67499C16.148 6.67138 16.1521 6.6689 16.1566 6.66799C16.1612 6.66708 16.1659 6.66779 16.17 6.66999C16.18 6.66999 16.19 6.68499 16.19 6.69999Z" fill="#E2A494"/>
<path fill-rule="evenodd" clip-rule="evenodd" d="M19.7852 6.58496L19.7002 6.80496L19.9002 6.90496C19.9002 6.90496 19.9852 6.94496 20.0402 6.89996C20.0902 6.85996 20.1002 6.75996 20.0602 6.71496C20.0252 6.66496 19.7802 6.58496 19.7852 6.58496Z" fill="#9F1209" stroke="black" stroke-width="0.025"/>
<path d="M20.02 6.75996C20.02 6.78996 19.99 6.80996 19.955 6.80996C19.92 6.80996 19.895 6.78996 19.895 6.75996C19.895 6.72996 19.925 6.70996 19.955 6.70996C19.99 6.70996 20.02 6.73496 20.02 6.75996Z" fill="#AA675D"/>
<path d="M19.9599 6.74997C19.9599 6.76497 19.9549 6.77997 19.9449 6.78497C19.9406 6.78822 19.9353 6.78997 19.9299 6.78997C19.9245 6.78997 19.9192 6.78822 19.9149 6.78497C19.9104 6.78135 19.9067 6.7768 19.9041 6.77162C19.9015 6.76644 19.9001 6.76076 19.8999 6.75497C19.8999 6.73997 19.9049 6.72997 19.9149 6.72497C19.9192 6.72173 19.9245 6.71997 19.9299 6.71997C19.9353 6.71997 19.9406 6.72173 19.9449 6.72497C19.9549 6.72497 19.9599 6.73997 19.9599 6.75497V6.74997Z" fill="#E2A494"/>
<path d="M18.5203 6.31991C18.5204 6.32496 18.5193 6.32996 18.5173 6.33457C18.5152 6.33918 18.5122 6.34329 18.5084 6.34661C18.5046 6.34994 18.5001 6.3524 18.4953 6.35383C18.4904 6.35527 18.4853 6.35563 18.4803 6.35491C18.471 6.35491 18.4621 6.35122 18.4556 6.34466C18.449 6.3381 18.4453 6.32919 18.4453 6.31991C18.4453 6.31063 18.449 6.30173 18.4556 6.29516C18.4621 6.2886 18.471 6.28491 18.4803 6.28491C18.5003 6.28491 18.5203 6.29991 18.5203 6.31991ZM18.7353 6.32991C18.7353 6.33451 18.7344 6.33906 18.7327 6.34331C18.7309 6.34755 18.7283 6.35141 18.7251 6.35466C18.7218 6.35791 18.718 6.36049 18.7137 6.36225C18.7095 6.36401 18.7049 6.36491 18.7003 6.36491C18.6953 6.36563 18.6902 6.36527 18.6854 6.36383C18.6806 6.3624 18.6761 6.35994 18.6723 6.35661C18.6685 6.35329 18.6654 6.34918 18.6634 6.34457C18.6613 6.33996 18.6603 6.33496 18.6603 6.32991C18.6609 6.3253 18.6625 6.32085 18.6648 6.31683C18.6672 6.31281 18.6703 6.3093 18.674 6.30651C18.6778 6.30371 18.682 6.30169 18.6865 6.30056C18.691 6.29943 18.6957 6.29921 18.7003 6.29991C18.7153 6.29991 18.7353 6.30991 18.7353 6.32991ZM18.6253 6.41491C18.6253 6.43991 18.6053 6.45991 18.5753 6.45991C18.5453 6.45991 18.5353 6.43991 18.5353 6.41491C18.5353 6.38991 18.5553 6.36991 18.5803 6.36991C18.6053 6.36991 18.6253 6.38991 18.6253 6.41991V6.41491ZM18.7253 6.55491C18.7254 6.56339 18.7224 6.57161 18.7169 6.57805C18.7114 6.58449 18.7037 6.5887 18.6953 6.58991C18.6903 6.59063 18.6852 6.59027 18.6804 6.58883C18.6756 6.5874 18.6711 6.58494 18.6673 6.58161C18.6635 6.57829 18.6604 6.57418 18.6584 6.56957C18.6563 6.56496 18.6553 6.55996 18.6553 6.55491C18.6553 6.54563 18.659 6.53673 18.6656 6.53016C18.6721 6.5236 18.681 6.51991 18.6903 6.51991C18.7153 6.51991 18.7303 6.53491 18.7303 6.55491H18.7253ZM18.5203 6.52991C18.5203 6.5392 18.5166 6.5481 18.5101 6.55466C18.5035 6.56122 18.4946 6.56491 18.4853 6.56491C18.476 6.56491 18.4671 6.56122 18.4606 6.55466C18.454 6.5481 18.4503 6.5392 18.4503 6.52991C18.4503 6.52063 18.454 6.51173 18.4606 6.50516C18.4671 6.4986 18.476 6.49491 18.4853 6.49491C18.5053 6.49491 18.5203 6.50991 18.5203 6.52991ZM17.4753 6.35491C17.4769 6.3635 17.4752 6.37236 17.4706 6.37976C17.466 6.38716 17.4587 6.39256 17.4503 6.39491C17.4457 6.39643 17.4409 6.39698 17.4361 6.39653C17.4313 6.39607 17.4266 6.39462 17.4224 6.39228C17.4181 6.38993 17.4144 6.38673 17.4115 6.38288C17.4086 6.37903 17.4065 6.37461 17.4053 6.36991C17.4046 6.36531 17.4048 6.36061 17.406 6.3561C17.4071 6.35158 17.4091 6.34733 17.4119 6.34361C17.4147 6.33988 17.4182 6.33675 17.4222 6.3344C17.4263 6.33205 17.4307 6.33052 17.4353 6.32991C17.4439 6.32834 17.4528 6.33004 17.4602 6.33466C17.4676 6.33929 17.473 6.34651 17.4753 6.35491ZM17.6903 6.31991C17.691 6.32451 17.6908 6.32921 17.6897 6.33373C17.6886 6.33824 17.6865 6.34249 17.6837 6.34622C17.6809 6.34994 17.6774 6.35307 17.6734 6.35542C17.6694 6.35777 17.6649 6.3593 17.6603 6.35991C17.6517 6.36148 17.6429 6.35979 17.6355 6.35516C17.6281 6.35054 17.6227 6.34332 17.6203 6.33491C17.6188 6.32633 17.6205 6.31747 17.6251 6.31007C17.6297 6.30267 17.6369 6.29726 17.6453 6.29491C17.6499 6.29339 17.6548 6.29285 17.6596 6.2933C17.6644 6.29375 17.6691 6.2952 17.6733 6.29755C17.6775 6.2999 17.6812 6.3031 17.6842 6.30695C17.6871 6.3108 17.6892 6.31521 17.6903 6.31991ZM17.6003 6.42491C17.6053 6.44991 17.5903 6.47491 17.5703 6.47491C17.5591 6.47804 17.547 6.47666 17.5368 6.47106C17.5265 6.46546 17.5188 6.45608 17.5153 6.44491C17.5103 6.42491 17.5253 6.39491 17.5503 6.39491C17.5609 6.39316 17.5717 6.39522 17.5808 6.40072C17.59 6.40621 17.5969 6.41479 17.6003 6.42491ZM17.7353 6.53991C17.7369 6.5485 17.7352 6.55736 17.7306 6.56476C17.726 6.57216 17.7187 6.57756 17.7103 6.57991C17.7057 6.58143 17.7009 6.58198 17.6961 6.58153C17.6913 6.58107 17.6866 6.57962 17.6824 6.57728C17.6781 6.57493 17.6744 6.57173 17.6715 6.56788C17.6686 6.56403 17.6665 6.55961 17.6653 6.55491C17.6638 6.54633 17.6655 6.53747 17.6701 6.53007C17.6747 6.52267 17.6819 6.51726 17.6903 6.51491C17.6949 6.51339 17.6998 6.51284 17.7046 6.5133C17.7094 6.51375 17.7141 6.5152 17.7183 6.51755C17.7225 6.5199 17.7262 6.5231 17.7292 6.52695C17.7321 6.5308 17.7342 6.53521 17.7353 6.53991ZM17.5253 6.55991C17.5269 6.5685 17.5252 6.57736 17.5206 6.58476C17.516 6.59216 17.5087 6.59756 17.5003 6.59991C17.4957 6.60143 17.4909 6.60198 17.4861 6.60153C17.4813 6.60107 17.4766 6.59962 17.4724 6.59728C17.4681 6.59493 17.4644 6.59173 17.4615 6.58788C17.4586 6.58403 17.4565 6.57961 17.4553 6.57491C17.4546 6.57031 17.4548 6.56561 17.456 6.5611C17.4571 6.55658 17.4591 6.55233 17.4619 6.54861C17.4647 6.54488 17.4682 6.54175 17.4722 6.5394C17.4763 6.53705 17.4807 6.53552 17.4853 6.53491C17.4939 6.53334 17.5028 6.53504 17.5102 6.53966C17.5176 6.54429 17.523 6.55151 17.5253 6.55991ZM16.5653 6.54991C16.5678 6.55443 16.5692 6.55943 16.5695 6.56457C16.5698 6.5697 16.569 6.57483 16.5671 6.57961C16.5652 6.58438 16.5622 6.58867 16.5585 6.59218C16.5547 6.59569 16.5502 6.59833 16.5453 6.59991C16.5367 6.60318 16.5271 6.60291 16.5187 6.59916C16.5103 6.59542 16.5037 6.5885 16.5003 6.57991C16.4979 6.57539 16.4965 6.57039 16.4962 6.56526C16.4959 6.56013 16.4967 6.55499 16.4986 6.55022C16.5005 6.54544 16.5034 6.54115 16.5072 6.53764C16.511 6.53413 16.5154 6.53149 16.5203 6.52991C16.5249 6.52746 16.5299 6.52603 16.535 6.52573C16.5401 6.52543 16.5453 6.52627 16.55 6.52818C16.5548 6.53009 16.5591 6.53302 16.5626 6.53678C16.5661 6.54054 16.5688 6.54502 16.5703 6.54991H16.5653ZM16.7703 6.48491C16.7728 6.48943 16.7742 6.49443 16.7745 6.49957C16.7748 6.5047 16.774 6.50983 16.7721 6.51461C16.7702 6.51938 16.7672 6.52367 16.7635 6.52718C16.7597 6.53069 16.7552 6.53333 16.7503 6.53491C16.7457 6.53643 16.7409 6.53698 16.7361 6.53653C16.7313 6.53607 16.7266 6.53462 16.7224 6.53228C16.7181 6.52993 16.7144 6.52673 16.7115 6.52288C16.7086 6.51903 16.7065 6.51461 16.7053 6.50991C16.7021 6.50129 16.7023 6.49173 16.7061 6.4833C16.7098 6.47487 16.7167 6.46827 16.7253 6.46491C16.7299 6.46246 16.7349 6.46103 16.74 6.46073C16.7451 6.46043 16.7503 6.46127 16.755 6.46318C16.7598 6.46509 16.7641 6.46802 16.7676 6.47178C16.7711 6.47554 16.7738 6.48002 16.7753 6.48491H16.7703ZM16.7003 6.60491C16.7024 6.61484 16.7011 6.62519 16.6965 6.63427C16.692 6.64334 16.6845 6.65062 16.6753 6.65491C16.6653 6.65868 16.6542 6.65874 16.6441 6.65507C16.6341 6.65141 16.6256 6.64426 16.6203 6.63491C16.6169 6.62428 16.6176 6.61276 16.6222 6.60259C16.6269 6.59243 16.6351 6.58435 16.6453 6.57991C16.656 6.57651 16.6675 6.57719 16.6777 6.58181C16.6878 6.58643 16.6959 6.59466 16.7003 6.60491ZM16.8503 6.69491C16.8528 6.69943 16.8542 6.70443 16.8545 6.70957C16.8548 6.7147 16.854 6.71983 16.8521 6.72461C16.8502 6.72938 16.8472 6.73367 16.8435 6.73718C16.8397 6.74069 16.8352 6.74333 16.8303 6.74491C16.8103 6.74491 16.7903 6.73991 16.7803 6.71991C16.7703 6.69991 16.7853 6.68491 16.8053 6.67491C16.814 6.67165 16.8235 6.67192 16.8319 6.67566C16.8404 6.6794 16.847 6.68632 16.8503 6.69491ZM16.6453 6.74491C16.6478 6.74943 16.6492 6.75443 16.6495 6.75957C16.6498 6.7647 16.649 6.76983 16.6471 6.77461C16.6452 6.77938 16.6422 6.78367 16.6385 6.78718C16.6347 6.79069 16.6302 6.79333 16.6253 6.79491C16.6208 6.79736 16.6158 6.79879 16.6107 6.79909C16.6055 6.79939 16.6004 6.79856 16.5956 6.79665C16.5909 6.79474 16.5866 6.7918 16.5831 6.78804C16.5796 6.78429 16.5769 6.7798 16.5753 6.77491C16.5729 6.77006 16.5717 6.76471 16.5717 6.75929C16.5717 6.75387 16.5729 6.74853 16.5754 6.74368C16.5778 6.73883 16.5813 6.73461 16.5856 6.73136C16.59 6.7281 16.595 6.72589 16.6003 6.72491C16.6049 6.72246 16.6099 6.72103 16.615 6.72073C16.6201 6.72043 16.6253 6.72127 16.63 6.72318C16.6348 6.72509 16.6391 6.72802 16.6426 6.73178C16.6461 6.73554 16.6488 6.74002 16.6503 6.74491H16.6453ZM19.4553 6.45491C19.4503 6.47491 19.4303 6.48491 19.4053 6.47991C19.3955 6.47649 19.3873 6.46935 19.3826 6.46C19.378 6.45066 19.3771 6.43986 19.3803 6.42991C19.3803 6.41491 19.4053 6.40491 19.4303 6.40991C19.4453 6.40991 19.4603 6.43491 19.4553 6.45491ZM19.6753 6.51991C19.6753 6.53991 19.6503 6.55491 19.6303 6.54991C19.625 6.54875 19.6199 6.54651 19.6155 6.54333C19.6111 6.54015 19.6073 6.53609 19.6045 6.5314C19.6017 6.52672 19.5999 6.52151 19.5992 6.51609C19.5984 6.51067 19.5988 6.50517 19.6003 6.49991C19.6053 6.48491 19.6253 6.46991 19.6503 6.47491C19.6703 6.47991 19.6803 6.49991 19.6753 6.52491V6.51991ZM19.5403 6.57991C19.5369 6.59136 19.5294 6.60119 19.5193 6.60761C19.5092 6.61403 19.4972 6.61662 19.4853 6.61491C19.473 6.61248 19.462 6.60546 19.4545 6.59526C19.4471 6.58506 19.4438 6.57243 19.4453 6.55991C19.4488 6.54744 19.4571 6.53682 19.4683 6.53029C19.4795 6.52376 19.4927 6.52183 19.5053 6.52491C19.5303 6.52991 19.5453 6.55491 19.5403 6.57991ZM19.6153 6.75491C19.6103 6.77491 19.5903 6.78491 19.5653 6.77991C19.5565 6.77655 19.5492 6.7702 19.5446 6.76197C19.5401 6.75374 19.5385 6.74416 19.5403 6.73491C19.5403 6.71491 19.5653 6.70491 19.5853 6.70991C19.6053 6.71491 19.6203 6.73491 19.6153 6.75991V6.75491ZM19.4003 6.67491C19.4003 6.69491 19.3753 6.70491 19.3553 6.69991C19.3465 6.69655 19.3392 6.6902 19.3346 6.68197C19.3301 6.67374 19.3285 6.66416 19.3303 6.65491C19.3303 6.63491 19.3553 6.62491 19.3753 6.62991C19.3953 6.62991 19.4053 6.65491 19.4003 6.67491Z" fill="#F5D8BC"/>
<path d="M19.8899 4.44999C19.8899 4.44999 19.7899 4.54499 19.6649 4.54499C19.5812 4.54671 19.4996 4.51833 19.4349 4.46499C19.3949 4.43999 19.4449 4.36499 19.4449 4.36499" stroke="black" stroke-width="0.06"/>
<path d="M17.7352 4.63999C17.7352 4.63999 17.5502 4.60499 17.4702 4.57999C17.3952 4.55499 17.4152 4.50499 17.3202 4.50999C17.2352 4.51499 17.1452 4.57999 17.1652 4.66999C17.1852 4.75999 17.2502 4.76999 17.3152 4.75499C17.3752 4.73499 17.3552 4.62499 17.2752 4.63499C17.1902 4.63499 17.2602 4.70999 17.2602 4.70999" stroke="black" stroke-width="0.055"/>
<path d="M16.4551 4.49992C16.4551 4.49992 16.5051 4.57492 16.6401 4.55992C16.7751 4.54992 16.8251 4.47992 16.8301 4.44492C16.8401 4.41492 16.8301 4.35492 16.8051 4.32992C16.7801 4.30492 16.6901 4.29492 16.6901 4.29492" stroke="black" stroke-width="0.05"/>
<path d="M19.054 13.52C19.179 13.395 19.379 13.26 19.489 12.97C19.589 12.69 19.639 12.185 19.739 11.93C19.864 11.49 20.114 11.06 19.814 11.09C19.529 11.12 19.439 11.39 19.334 11.59C19.284 11.665 19.169 11.825 19.149 11.915C19.144 11.765 19.064 11.32 19.049 10.875C19.034 10.455 19.049 10.025 19.034 9.86C19.024 9.645 19.024 9.445 18.974 9.29C18.949 9.215 18.844 9.14 18.784 9.145C18.674 9.145 18.604 9.245 18.584 9.34L18.574 9.48C18.564 9.6 18.574 9.755 18.564 9.895C18.559 10.045 18.574 10.205 18.564 10.345C18.554 10.615 18.534 10.87 18.524 10.92C18.524 10.82 18.474 10.335 18.459 9.875L18.449 9.375C18.449 9.245 18.449 9.105 18.439 9.005C18.414 8.835 18.359 8.755 18.239 8.755C18.149 8.755 18.029 8.82 17.989 9.005C17.974 9.11 17.969 9.235 17.974 9.375L17.984 9.775C17.974 10.3 17.964 10.85 17.944 11.015C17.944 10.965 17.889 10.69 17.874 10.32L17.854 9.84L17.839 9.36C17.839 9.28 17.804 9.05 17.654 9.06C17.569 9.05 17.484 9.11 17.454 9.325C17.434 9.45 17.434 9.655 17.429 9.82C17.424 10.12 17.409 10.39 17.429 10.665L17.434 11.05C17.434 11.07 17.389 10.905 17.369 10.68L17.329 10.25C17.329 10.135 17.324 9.965 17.314 9.825C17.304 9.72 17.309 9.6 17.189 9.61C17.069 9.615 16.999 9.66 16.974 9.86C16.954 9.995 16.954 10.285 16.949 10.385C16.959 10.65 16.889 11.27 16.859 11.445C16.849 11.57 16.799 11.73 16.779 11.905C16.7447 12.2489 16.7615 12.596 16.829 12.935C16.929 13.285 17.179 13.445 17.169 13.685C17.154 13.925 17.169 14.35 17.169 14.535C17.169 14.725 17.334 14.735 17.669 14.665C18.229 14.545 18.534 14.785 18.989 14.605C18.934 14.085 19.044 13.77 19.039 13.58L19.054 13.52ZM18.729 12.285C18.844 11.965 18.989 11.84 19.129 11.775L18.729 12.285Z" fill="#CC0000"/>
<path d="M18.729 12.285C18.844 11.965 18.989 11.84 19.129 11.775M19.054 13.52C19.179 13.395 19.379 13.26 19.489 12.97C19.589 12.69 19.639 12.185 19.739 11.93C19.864 11.49 20.114 11.06 19.814 11.09C19.529 11.12 19.439 11.39 19.334 11.59C19.284 11.665 19.169 11.825 19.149 11.915C19.144 11.765 19.064 11.32 19.049 10.875C19.034 10.455 19.049 10.025 19.034 9.86C19.024 9.645 19.024 9.445 18.974 9.29C18.949 9.215 18.844 9.14 18.784 9.145C18.674 9.145 18.604 9.245 18.584 9.34L18.574 9.48C18.564 9.6 18.574 9.755 18.564 9.895C18.559 10.045 18.574 10.205 18.564 10.345C18.554 10.615 18.534 10.87 18.524 10.92C18.524 10.82 18.474 10.335 18.459 9.875L18.449 9.375C18.449 9.245 18.449 9.105 18.439 9.005C18.414 8.835 18.359 8.755 18.239 8.755C18.149 8.755 18.029 8.82 17.989 9.005C17.974 9.11 17.969 9.235 17.974 9.375L17.984 9.775C17.974 10.3 17.964 10.85 17.944 11.015C17.944 10.965 17.889 10.69 17.874 10.32L17.854 9.84L17.839 9.36C17.839 9.28 17.804 9.05 17.654 9.06C17.569 9.05 17.484 9.11 17.454 9.325C17.434 9.45 17.434 9.655 17.429 9.82C17.424 10.12 17.409 10.39 17.429 10.665L17.434 11.05C17.434 11.07 17.389 10.905 17.369 10.68L17.329 10.25C17.329 10.135 17.324 9.965 17.314 9.825C17.304 9.72 17.309 9.6 17.189 9.61C17.069 9.615 16.999 9.66 16.974 9.86C16.954 9.995 16.954 10.285 16.949 10.385C16.959 10.65 16.889 11.27 16.859 11.445C16.849 11.57 16.799 11.73 16.779 11.905C16.7447 12.2489 16.7615 12.596 16.829 12.935C16.929 13.285 17.179 13.445 17.169 13.685C17.154 13.925 17.169 14.35 17.169 14.535C17.169 14.725 17.334 14.735 17.669 14.665C18.229 14.545 18.534 14.785 18.989 14.605C18.934 14.085 19.044 13.77 19.039 13.58L19.054 13.52Z" stroke="#161111" stroke-width="0.08"/>
<path d="M17.4639 11.9599C17.6389 11.8899 17.8139 11.8399 17.9939 11.7799C18.2089 11.7199 18.4189 11.6299 18.6439 11.5999C18.7439 11.5749 18.8539 11.5499 18.9639 11.5499M17.1589 13.6499C17.1789 13.6349 17.2089 13.6599 17.2289 13.6649C17.2589 13.6749 17.2939 13.6849 17.3289 13.6799C17.3956 13.6787 17.4623 13.6787 17.5289 13.6799C17.6139 13.6799 17.6789 13.6699 17.7439 13.6299M18.2439 13.6599L18.3239 13.7049C18.3639 13.7199 18.4139 13.7249 18.6889 13.7049C18.8639 13.7149 19.0139 13.5649 19.0589 13.5249" stroke="#161111" stroke-width="0.08"/>
</g>
<rect x="0.25" y="0.25" width="35.5" height="23.5" rx="1.75" stroke="#EFEFEF" stroke-width="0.5"/>
<defs>
<clipPath id="clip0_11930_67938">
<rect width="36" height="24" rx="2" fill="white"/>
</clipPath>
</defs>
</svg>
