<svg width="36" height="24" viewBox="0 0 36 24" fill="none" xmlns="http://www.w3.org/2000/svg">
<g clip-path="url(#clip0_11930_67944)">
<path d="M0 12H36V24H0V12Z" fill="#00AB39"/>
<path d="M0 0H36V12H0V0Z" fill="white"/>
<path d="M22.78 3.53992C20.7995 4.60575 18.9274 5.86166 17.19 7.28992C16.34 8.03492 16.58 8.62492 16.545 9.28992C16.575 9.73992 16.45 10.1599 16.175 10.4099L14.285 10.7899L14.105 10.2699C14.16 9.99992 14.38 9.86992 14.85 10.0349C14.885 9.69492 14.605 9.55492 14.285 9.43492C14.17 9.34492 14.035 9.28492 14.05 8.98492C14 8.30992 15.08 9.03492 15.09 9.03492C15.1 9.03492 15.05 8.34992 14.555 8.21492C14.285 8.11992 14.17 7.83492 14.275 7.62492C14.49 7.18992 14.9 7.65492 15.21 7.67492C15.2 7.38992 15.12 7.18992 14.875 6.96492C14.745 6.87992 14.425 6.81992 14.415 6.68492C14.41 6.50492 14.715 6.42492 15.14 6.47492C15.05 6.21992 14.765 6.05492 14.375 5.93492L14.145 5.52992C14.035 5.32992 13.985 5.31992 14.24 4.93992C14.465 4.78992 14.77 4.57992 15 4.43492L14.75 4.40492C14.78 4.12992 14.785 4.03492 14.85 3.57992C14.6 3.91492 14.3 3.85492 14.02 3.98992C14.02 3.98992 13.24 4.12992 12.985 4.46492L11.015 4.36492C10.595 4.41992 10.24 4.53992 10.17 4.94492C9.215 5.04492 8.215 4.95992 7.485 5.86992C7.985 5.84992 8.415 5.72992 8.975 5.79992C8.975 5.79992 9.45 5.80992 9.545 6.31492C9.555 6.33492 9.71 6.33492 9.71 6.33492L9.89 6.47492L9.96 6.28492L10.12 6.39492L10.17 6.18492L10.33 6.29492L10.34 6.04492L10.55 6.19492V5.85992C10.55 5.85992 11.33 5.85992 11.57 6.35992C11.58 6.36492 9.385 6.75992 7.265 6.57492L7.875 6.27492C7.105 6.11492 6.375 5.97492 5.695 5.43992C5.95 6.40992 7.28 7.54492 7.555 7.53992L7.295 7.06992L9.595 7.16992C9.68 7.42492 9.645 7.70992 9.845 7.93492C9.845 7.93492 9.72 8.35492 10.005 8.52492C10.015 8.54492 10.34 7.67492 10.34 7.67492C10.34 7.67492 10.44 7.90992 10.54 8.06492C10.69 7.31492 11.51 7.18992 11.51 7.18992L11.68 7.58992C11.425 7.62992 11.105 8.14992 11.28 8.43992C11.105 8.43992 10.8 8.94492 10.895 9.21992C10.75 9.36492 10.395 9.55492 10.48 10.1599C10.2 10.2199 10.03 10.7349 10.12 11.2849C9.68 11.6899 9.79 12.4349 10.18 12.7399C10.02 12.8899 9.92 12.9949 9.92 13.1749C9.765 13.1199 9.62 13.1649 9.555 13.2649C9.365 13.0699 9.095 12.9049 8.905 13.0849C8.855 12.8549 8.555 12.6049 8.23 12.6349C8.24336 12.491 8.20557 12.3469 8.12328 12.228C8.04099 12.1092 7.91945 12.0231 7.78 11.9849C7.78 11.9849 7.705 10.8549 7.365 10.4849C7.33 10.2849 7.385 10.1449 7.665 9.97492C7.95 9.82492 8.01 9.70992 7.985 9.27992C8.1 8.99492 8.185 8.70492 7.835 8.50992C7.845 8.84992 7.745 9.00992 7.605 9.15992C7.44 9.13992 7.385 9.32992 7.275 9.40992C7.12 9.20492 7.6 8.87992 7.245 8.41492C7.225 8.39492 6.995 7.81492 6.43 7.82492C6.695 7.97992 6.81 8.24492 6.81 8.51992C6.60161 8.98075 6.56958 9.50204 6.72 9.98492C6.485 9.63492 6.35 8.96492 6.155 8.84992C5.985 8.81492 5.905 8.41492 5.24 8.52992C5.525 8.60492 5.62 8.82492 5.69 9.01992C5.52 9.10992 5.605 9.34992 5.735 9.51492C5.71 9.89992 5.94 10.1249 6.285 10.2649L6.115 11.8499C5.98 11.8349 5.765 12.3699 5.685 12.3849C5.55 12.4699 5.315 12.6949 5.585 12.7599C5.505 13.0449 5.43 13.2199 5 13.2799C5 13.2799 5.45 13.5499 5.83 13.0899C6.23 13.0799 6.1 12.5999 6.295 12.3899C6.295 12.3749 6.41 12.3049 6.57 11.8799C6.64 12.2599 7.03 13.4199 7.905 13.9949C8.67 14.8149 9.305 15.5899 9.295 16.6799C9.58876 16.3569 9.79979 15.9674 9.91 15.5449C10.4088 15.3953 10.9301 15.3343 11.45 15.3649C11.36 15.5599 11.255 15.7449 11.385 15.8649C11.015 15.9949 10.935 16.2649 11.085 16.5299C10.695 16.7949 10.67 16.9649 10.665 17.4049C9.94 18.3299 9.495 18.2999 8.78 18.0549C8.55 17.9199 8.18 17.7249 8.015 17.8299C7.71 17.6199 7.265 17.5899 7.19 18.0599C7.425 17.8649 7.56 17.9049 7.745 18.0899C7.71 18.1849 7.68 18.2749 7.815 18.3299L7.635 18.5299C7.305 18.4799 6.855 18.4799 6.74 18.9649C6.91 18.8199 7.29 18.7899 7.59 18.9249L7.765 18.9849L7.785 19.2149C7.785 19.2149 7.335 19.1449 7.215 19.8799C7.635 19.4299 7.935 19.5449 7.935 19.5449C8.1 19.7849 8.7 19.7499 9.135 19.3549C9.74 19.0149 9.92 19.5049 10.31 19.1849C10.635 18.9449 11.02 19.1049 11.285 19.3849C11.59 19.4999 11.91 19.5949 12.16 19.3849C12.16 19.3849 12.47 19.1899 12.775 19.5049C12.775 19.1549 12.525 18.9599 12.185 18.9549L12.085 18.8549C11.76 18.7849 11.4 18.8149 11.115 18.6549C11.2255 18.1501 11.4689 17.6841 11.82 17.3049C12.285 16.8049 12.63 16.5749 13.22 15.8099C13.195 16.2449 13.525 16.7249 13.7 17.1599C13.7 17.1599 14.05 16.6049 14.1 16.1449C14.115 16.1449 14.545 15.9249 14.725 15.7299C15.115 15.9749 15.745 15.5399 16.155 15.1799C16.405 15.2799 16.6 15.2699 16.89 15.1799C16.655 15.6599 17.025 16.1049 17.615 16.2899C17.665 16.7099 18.095 16.7999 18.74 16.7999C18.77 17.0499 19.155 17.0849 19.155 17.0849C18.905 17.1949 18.785 17.3099 18.79 17.5649C18.54 17.5649 18.355 17.6299 18.29 17.9149C17.945 17.9249 17.595 17.9499 17.3 18.1149C16.985 18.0699 16.6 17.9399 16.355 17.6849C16.23 17.5799 16.195 17.4249 15.975 17.3649C15.835 17.1999 15.665 17.2349 15.61 17.3949C15.465 17.2799 14.92 17.2299 14.825 17.7449C15.085 17.5599 15.31 17.4899 15.475 17.7199C15.385 17.8749 15.685 17.9699 15.945 18.0299C16.13 18.0399 16.455 18.2099 16.555 18.4899C16.4148 18.5305 16.2673 18.5399 16.1231 18.5175C15.9788 18.495 15.8413 18.4412 15.72 18.3599C15.63 18.2849 15.5185 18.2406 15.4016 18.2334C15.2846 18.2262 15.1685 18.2565 15.07 18.3199C14.85 18.1799 14.335 18.4449 14.315 18.8649C14.53 18.6649 14.73 18.5649 14.93 18.6949C14.83 18.7149 14.865 18.7249 14.88 18.7849L15.38 19.0749C15.13 19.1399 14.9 19.2399 15.01 19.6999C15.01 19.6999 15.21 19.2999 15.66 19.4499C15.67 19.4349 15.725 19.5899 15.855 19.4849C16.05 19.2649 16.495 19.1649 16.89 19.1249C17.205 19.0899 17.52 18.9949 17.79 19.1749C18.04 19.0499 18.31 18.9649 18.59 19.1649C18.92 19.2649 19.16 19.6549 19.575 19.4799C19.785 19.3299 20.04 19.3299 20.3 19.6199C20.3 19.2499 20.025 19.1249 19.635 19.0449L19.365 18.8849C19.115 18.8449 18.865 18.8899 18.61 18.7699C19.2079 18.6265 19.771 18.3651 20.2665 18.0011C20.7619 17.637 21.1796 17.1776 21.495 16.6499L22.12 16.8699C22.27 16.8799 22.28 16.9299 22.585 17.0199C22.595 16.5749 22.4 16.1149 21.595 16.0699L20.545 15.6699C20.315 15.4299 20.215 14.9249 20.5 14.6299C20.78 14.3799 20.83 14.4099 21.015 14.1049C21.24 14.0849 21.45 14.3149 21.655 14.3149C21.755 14.6099 22.325 14.8649 22.685 14.7799C22.91 14.9799 23.335 15.0899 23.81 14.9299C23.9453 15.0562 24.1159 15.1382 24.2991 15.165C24.4822 15.1918 24.6692 15.1621 24.835 15.0799C24.945 15.1899 25.175 15.2799 25.435 15.2199C25.46 15.2199 25.575 15.5099 25.86 15.6149C25.735 15.7349 25.81 16.2649 25.945 16.4599C25.8483 16.6578 25.8322 16.8854 25.9 17.0949C25.61 17.2799 25.55 17.4199 25.68 17.7349C25.3 18.3499 24.845 18.4199 24.415 18.2349L23.95 17.9349L23.46 17.4549C23.375 17.3749 23.2 17.3549 23.165 17.5249C23.165 17.5249 22.535 17.3849 22.48 17.9199C22.745 17.6649 23.115 17.8899 23.115 17.8999C23.115 17.9099 23.025 17.9699 23.095 18.0699C23.11 18.0549 23.56 18.2349 23.955 18.4049C24.17 18.4899 24.22 18.5149 24.315 18.5649C24.1956 18.5102 24.0756 18.4569 23.955 18.4049C23.7815 18.3249 23.5954 18.2758 23.405 18.2599C23.185 18.2399 22.945 18.2099 22.835 18.3799C22.595 18.4799 22.215 18.5649 22.235 19.0149C22.395 18.7449 22.62 18.7599 22.905 18.7849L22.885 18.8449C23.195 18.9849 23.135 18.8049 23.425 18.7799C23.6854 18.776 23.9444 18.8183 24.19 18.9049C23.965 18.9699 23.655 18.9399 23.51 19.1049C23.48 19.1549 23.385 19.1349 23.43 19.2649C23.43 19.2649 22.98 19.2549 22.865 19.8649C23.315 19.5799 23.66 19.5899 23.665 19.5899L23.81 19.6199L24.36 19.2549C24.375 19.2549 24.89 19.0249 25.125 19.2849C25.335 19.3849 25.555 19.3949 25.775 19.2649C26.195 19.0799 26.59 19.0649 26.975 19.3249L27.33 19.5349L27.48 19.4349C27.48 19.4349 27.88 19.3249 28.17 19.6799C28.05 19.0649 27.61 19.0449 27.61 19.0449L27.51 18.9549L26.89 18.7099C26.795 18.4849 26.57 18.3099 26.795 18.0399C27.03 16.8849 27.305 16.0199 26.855 14.8499C27.275 15.0299 27.59 15.5899 28.115 15.3949C28.115 14.9249 26.385 14.0299 25.065 13.3149C27.235 13.1999 29.835 11.6049 28.835 9.57492L29.305 8.10492C29.53 8.55492 29.98 8.89492 30.385 9.03992C30.05 8.40492 29.86 6.45992 30.05 5.11992C29.1655 6.18175 28.2118 7.18394 27.195 8.11992C27.695 8.23992 28.14 8.15492 28.625 8.09492L28.215 8.94492C26.885 8.15992 25.325 8.74492 25.315 9.78492C25.36 10.9949 26.855 11.1699 27.72 10.7449C27.55 11.8499 25.01 11.4449 25.01 11.4449C24.11 11.1349 23.255 11.1849 22.31 11.1949C22.505 10.5899 23.595 10.0499 24.43 10.2899C23.265 8.97992 24.595 7.35492 26.2 6.85992C24.45 6.27992 25.955 4.94492 27.265 3.98992C27.265 3.98992 23.5 5.57492 23.155 5.56992C22.085 5.48992 22.375 4.21992 22.785 3.53992H22.78ZM10.96 5.05992C11.05 5.05992 11.15 5.06992 11.235 5.08992C11.405 5.13492 11.61 5.15492 11.61 5.20992C11.53 5.33992 11.335 5.49492 11.145 5.48992C10.955 5.47992 10.845 5.36492 10.785 5.07992C10.805 5.06992 10.875 5.05992 10.96 5.05992ZM26.81 9.52992C27.06 9.52992 27.355 9.62992 27.64 9.93992C27.505 10.3399 26.3 10.5399 26.22 9.94992C26.195 9.76992 26.45 9.53492 26.81 9.52992Z" fill="#D21034"/>
<path d="M23.955 18.4049C23.56 18.2349 23.11 18.0549 23.095 18.0699C23.025 17.9699 23.115 17.9099 23.115 17.8999C23.115 17.8899 22.745 17.6649 22.48 17.9199C22.535 17.3849 23.165 17.5249 23.165 17.5249C23.2 17.3549 23.375 17.3749 23.46 17.4549L23.95 17.9349L24.415 18.2349C24.845 18.4199 25.3 18.3499 25.68 17.7349C25.55 17.4199 25.61 17.2799 25.9 17.0949C25.8322 16.8854 25.8483 16.6578 25.945 16.4599C25.81 16.2649 25.735 15.7349 25.86 15.6149C25.575 15.5099 25.46 15.2199 25.435 15.2199C25.175 15.2799 24.945 15.1899 24.835 15.0799C24.6692 15.1621 24.4822 15.1918 24.2991 15.165C24.1159 15.1382 23.9453 15.0562 23.81 14.9299C23.335 15.0899 22.91 14.9799 22.685 14.7799C22.325 14.8649 21.755 14.6099 21.655 14.3149C21.45 14.3149 21.24 14.0849 21.015 14.1049C20.83 14.4099 20.78 14.3799 20.5 14.6299C20.215 14.9249 20.315 15.4299 20.545 15.6699L21.595 16.0699C22.4 16.1149 22.595 16.5749 22.585 17.0199C22.28 16.9299 22.27 16.8799 22.12 16.8699L21.495 16.6499C21.1796 17.1776 20.7619 17.637 20.2665 18.0011C19.771 18.3651 19.2079 18.6265 18.61 18.7699C18.865 18.8899 19.115 18.8449 19.365 18.8849L19.635 19.0449C20.025 19.1249 20.3 19.2499 20.3 19.6199C20.04 19.3299 19.785 19.3299 19.575 19.4799C19.16 19.6549 18.92 19.2649 18.59 19.1649C18.31 18.9649 18.04 19.0499 17.79 19.1749C17.52 18.9949 17.205 19.0899 16.89 19.1249C16.495 19.1649 16.05 19.2649 15.855 19.4849C15.725 19.5899 15.67 19.4349 15.66 19.4499C15.21 19.2999 15.01 19.6999 15.01 19.6999C14.9 19.2399 15.13 19.1399 15.38 19.0749L14.88 18.7849C14.865 18.7249 14.83 18.7149 14.93 18.6949C14.73 18.5649 14.53 18.6649 14.315 18.8649C14.335 18.4449 14.85 18.1799 15.07 18.3199C15.1685 18.2565 15.2846 18.2262 15.4016 18.2334C15.5185 18.2406 15.63 18.2849 15.72 18.3599C15.8413 18.4412 15.9788 18.495 16.1231 18.5175C16.2673 18.5399 16.4148 18.5305 16.555 18.4899C16.455 18.2099 16.13 18.0399 15.945 18.0299C15.685 17.9699 15.385 17.8749 15.475 17.7199C15.31 17.4899 15.085 17.5599 14.825 17.7449C14.92 17.2299 15.465 17.2799 15.61 17.3949C15.665 17.2349 15.835 17.1999 15.975 17.3649C16.195 17.4249 16.23 17.5799 16.355 17.6849C16.6 17.9399 16.985 18.0699 17.3 18.1149C17.595 17.9499 17.945 17.9249 18.29 17.9149C18.355 17.6299 18.54 17.5649 18.79 17.5649C18.785 17.3099 18.905 17.1949 19.155 17.0849C19.155 17.0849 18.77 17.0499 18.74 16.7999C18.095 16.7999 17.665 16.7099 17.615 16.2899C17.025 16.1049 16.655 15.6599 16.89 15.1799C16.6 15.2699 16.405 15.2799 16.155 15.1799C15.745 15.5399 15.115 15.9749 14.725 15.7299C14.545 15.9249 14.115 16.1449 14.1 16.1449C14.05 16.6049 13.7 17.1599 13.7 17.1599C13.525 16.7249 13.195 16.2449 13.22 15.8099C12.63 16.5749 12.285 16.8049 11.82 17.3049C11.4689 17.6841 11.2255 18.1501 11.115 18.6549C11.4 18.8149 11.76 18.7849 12.085 18.8549L12.185 18.9549C12.525 18.9599 12.775 19.1549 12.775 19.5049C12.47 19.1899 12.16 19.3849 12.16 19.3849C11.91 19.5949 11.59 19.4999 11.285 19.3849C11.02 19.1049 10.635 18.9449 10.31 19.1849C9.92 19.5049 9.74 19.0149 9.135 19.3549C8.7 19.7499 8.1 19.7849 7.935 19.5449C7.935 19.5449 7.635 19.4299 7.215 19.8799C7.335 19.1449 7.785 19.2149 7.785 19.2149L7.765 18.9849L7.59 18.9249C7.29 18.7899 6.91 18.8199 6.74 18.9649C6.855 18.4799 7.305 18.4799 7.635 18.5299L7.815 18.3299C7.68 18.2749 7.71 18.1849 7.745 18.0899C7.56 17.9049 7.425 17.8649 7.19 18.0599C7.265 17.5899 7.71 17.6199 8.015 17.8299C8.18 17.7249 8.55 17.9199 8.78 18.0549C9.495 18.2999 9.94 18.3299 10.665 17.4049C10.67 16.9649 10.695 16.7949 11.085 16.5299C10.935 16.2649 11.015 15.9949 11.385 15.8649C11.255 15.7449 11.36 15.5599 11.45 15.3649C10.9301 15.3343 10.4088 15.3953 9.91 15.5449C9.79979 15.9674 9.58876 16.3569 9.295 16.6799C9.305 15.5899 8.67 14.8149 7.905 13.9949C7.03 13.4199 6.64 12.2599 6.57 11.8799C6.41 12.3049 6.295 12.3749 6.295 12.3899C6.1 12.5999 6.23 13.0799 5.83 13.0899C5.45 13.5499 5 13.2799 5 13.2799C5.43 13.2199 5.505 13.0449 5.585 12.7599C5.315 12.6949 5.55 12.4699 5.685 12.3849C5.765 12.3699 5.98 11.8349 6.115 11.8499L6.285 10.2649C5.94 10.1249 5.71 9.89992 5.735 9.51492C5.605 9.34992 5.52 9.10992 5.69 9.01992C5.62 8.82492 5.525 8.60492 5.24 8.52992C5.905 8.41492 5.985 8.81492 6.155 8.84992C6.35 8.96492 6.485 9.63492 6.72 9.98492C6.56958 9.50204 6.60161 8.98075 6.81 8.51992C6.81 8.24492 6.695 7.97992 6.43 7.82492C6.995 7.81492 7.225 8.39492 7.245 8.41492C7.6 8.87992 7.12 9.20492 7.275 9.40992C7.385 9.32992 7.44 9.13992 7.605 9.15992C7.745 9.00992 7.845 8.84992 7.835 8.50992C8.185 8.70492 8.1 8.99492 7.985 9.27992C8.01 9.70992 7.95 9.82492 7.665 9.97492C7.385 10.1449 7.33 10.2849 7.365 10.4849C7.705 10.8549 7.78 11.9849 7.78 11.9849C7.91945 12.0231 8.04099 12.1092 8.12328 12.228C8.20557 12.3469 8.24336 12.491 8.23 12.6349C8.555 12.6049 8.855 12.8549 8.905 13.0849C9.095 12.9049 9.365 13.0699 9.555 13.2649C9.62 13.1649 9.765 13.1199 9.92 13.1749C9.92 12.9949 10.02 12.8899 10.18 12.7399C9.79 12.4349 9.68 11.6899 10.12 11.2849C10.03 10.7349 10.2 10.2199 10.48 10.1599C10.395 9.55492 10.75 9.36492 10.895 9.21992C10.8 8.94492 11.105 8.43992 11.28 8.43992C11.105 8.14992 11.425 7.62992 11.68 7.58992L11.51 7.18992C11.51 7.18992 10.69 7.31492 10.54 8.06492C10.44 7.90992 10.34 7.67492 10.34 7.67492C10.34 7.67492 10.015 8.54492 10.005 8.52492C9.72 8.35492 9.845 7.93492 9.845 7.93492C9.645 7.70992 9.68 7.42492 9.595 7.16992L7.295 7.06992L7.555 7.53992C7.28 7.54492 5.95 6.40992 5.695 5.43992C6.375 5.97492 7.105 6.11492 7.875 6.27492L7.265 6.57492C9.385 6.75992 11.58 6.36492 11.57 6.35992C11.33 5.85992 10.55 5.85992 10.55 5.85992V6.19492L10.34 6.04492L10.33 6.29492L10.17 6.18492L10.12 6.39492L9.96 6.28492L9.89 6.47492L9.71 6.33492C9.71 6.33492 9.555 6.33492 9.545 6.31492C9.45 5.80992 8.975 5.79992 8.975 5.79992C8.415 5.72992 7.985 5.84992 7.485 5.86992C8.215 4.95992 9.215 5.04492 10.17 4.94492C10.24 4.53992 10.595 4.41992 11.015 4.36492L12.985 4.46492C13.24 4.12992 14.02 3.98992 14.02 3.98992C14.3 3.85492 14.6 3.91492 14.85 3.57992C14.785 4.03492 14.78 4.12992 14.75 4.40492L15 4.43492C14.77 4.57992 14.465 4.78992 14.24 4.93992C13.985 5.31992 14.035 5.32992 14.145 5.52992L14.375 5.93492C14.765 6.05492 15.05 6.21992 15.14 6.47492C14.715 6.42492 14.41 6.50492 14.415 6.68492C14.425 6.81992 14.745 6.87992 14.875 6.96492C15.12 7.18992 15.2 7.38992 15.21 7.67492C14.9 7.65492 14.49 7.18992 14.275 7.62492C14.17 7.83492 14.285 8.11992 14.555 8.21492C15.05 8.34992 15.1 9.03492 15.09 9.03492C15.08 9.03492 14 8.30992 14.05 8.98492C14.035 9.28492 14.17 9.34492 14.285 9.43492C14.605 9.55492 14.885 9.69492 14.85 10.0349C14.38 9.86992 14.16 9.99992 14.105 10.2699L14.285 10.7899L16.175 10.4099C16.45 10.1599 16.575 9.73992 16.545 9.28992C16.58 8.62492 16.34 8.03492 17.19 7.28992C18.9274 5.86166 20.7995 4.60575 22.78 3.53992H22.785C22.375 4.21992 22.085 5.48992 23.155 5.56992C23.5 5.57492 27.265 3.98992 27.265 3.98992C25.955 4.94492 24.45 6.27992 26.2 6.85992C24.595 7.35492 23.265 8.97992 24.43 10.2899C23.595 10.0499 22.505 10.5899 22.31 11.1949C23.255 11.1849 24.11 11.1349 25.01 11.4449C25.01 11.4449 27.55 11.8499 27.72 10.7449C26.855 11.1699 25.36 10.9949 25.315 9.78492C25.325 8.74492 26.885 8.15992 28.215 8.94492L28.625 8.09492C28.14 8.15492 27.695 8.23992 27.195 8.11992C28.2118 7.18394 29.1655 6.18175 30.05 5.11992C29.86 6.45992 30.05 8.40492 30.385 9.03992C29.98 8.89492 29.53 8.55492 29.305 8.10492L28.835 9.57492C29.835 11.6049 27.235 13.1999 25.065 13.3149C26.385 14.0299 28.115 14.9249 28.115 15.3949C27.59 15.5899 27.275 15.0299 26.855 14.8499C27.305 16.0199 27.03 16.8849 26.795 18.0399C26.57 18.3099 26.795 18.4849 26.89 18.7099L27.51 18.9549L27.61 19.0449C27.61 19.0449 28.05 19.0649 28.17 19.6799C27.88 19.3249 27.48 19.4349 27.48 19.4349L27.33 19.5349L26.975 19.3249C26.59 19.0649 26.195 19.0799 25.775 19.2649C25.555 19.3949 25.335 19.3849 25.125 19.2849C24.89 19.0249 24.375 19.2549 24.36 19.2549L23.81 19.6199L23.665 19.5899C23.66 19.5899 23.315 19.5799 22.865 19.8649C22.98 19.2549 23.43 19.2649 23.43 19.2649C23.385 19.1349 23.48 19.1549 23.51 19.1049C23.655 18.9399 23.965 18.9699 24.19 18.9049C23.9444 18.8183 23.6854 18.776 23.425 18.7799C23.135 18.8049 23.195 18.9849 22.885 18.8449L22.905 18.7849C22.62 18.7599 22.395 18.7449 22.235 19.0149C22.215 18.5649 22.595 18.4799 22.835 18.3799C22.945 18.2099 23.185 18.2399 23.405 18.2599C23.5954 18.2758 23.7815 18.3249 23.955 18.4049ZM23.955 18.4049C24.17 18.4899 24.22 18.5149 24.315 18.5649C24.1956 18.5102 24.0756 18.4569 23.955 18.4049ZM10.96 5.05992C11.05 5.05992 11.15 5.06992 11.235 5.08992C11.405 5.13492 11.61 5.15492 11.61 5.20992C11.53 5.33992 11.335 5.49492 11.145 5.48992C10.955 5.47992 10.845 5.36492 10.785 5.07992C10.805 5.06992 10.875 5.05992 10.96 5.05992ZM26.81 9.52992C27.06 9.52992 27.355 9.62992 27.64 9.93992C27.505 10.3399 26.3 10.5399 26.22 9.94992C26.195 9.76992 26.45 9.53492 26.81 9.52992Z" stroke="black" stroke-width="0.07"/>
<path d="M12.2051 8.55983L12.3901 8.82483M12.3801 8.82983C12.3801 8.82983 12.3801 9.18983 12.4551 9.19483M12.2901 9.38983L12.4801 9.70483M11.9551 9.78483C11.9651 9.78483 12.1901 10.0448 12.1901 10.0448M12.3851 9.84483C12.3851 9.85483 12.5951 10.2498 12.6101 10.2498M12.1101 10.1198C12.1101 10.1198 12.1801 10.5998 12.2451 10.5848M11.7951 10.9998L12.0051 11.3248M12.1901 10.6598C12.1901 10.6598 12.3051 11.1148 12.3951 11.0748M12.4901 10.3848C12.4951 10.3948 12.7051 10.6898 12.7601 10.6498M12.7101 10.7648L12.9101 11.1648M12.3801 11.0748L12.5451 11.5448M11.9951 11.3148C11.9951 11.3148 12.1451 11.8198 12.2801 11.7398M11.9401 11.9898C11.9401 11.9898 11.9501 12.2548 12.0801 12.2698M12.1701 11.8548C12.1701 11.8648 12.3051 12.0448 12.3051 12.0448M12.5551 11.5398L12.6601 11.7148M12.9051 11.2148L13.0701 11.4198M12.1351 8.83483C12.1401 9.05983 12.4951 8.75483 12.6351 8.56483M11.9851 9.61483C11.9851 9.61483 12.3701 9.33983 12.6701 8.92483M11.8551 10.2698C12.1301 10.1948 12.6351 9.58483 12.7351 9.25983M11.8001 10.8748C11.8751 10.9098 12.8151 10.2248 12.8401 9.72983M11.7751 11.3998C11.7751 11.3948 12.6351 11.1798 12.9901 10.2348M11.7351 12.1148C11.7351 12.1148 13.1101 11.2898 13.1851 10.6848M22.4551 13.4998C22.4551 13.4998 22.3651 14.2098 21.6551 14.3198M22.6801 14.7698C22.6851 14.7598 23.3601 14.0198 23.1851 13.7948M24.2401 14.0548C24.2401 14.0548 24.2301 14.5698 23.8101 14.9248M25.0801 14.2048C25.0801 14.2048 25.0951 14.8248 24.8301 15.0748M25.8501 14.5748C25.8501 14.5748 25.5501 15.1598 25.4451 15.2198M25.8401 15.6098C25.8401 15.6098 26.2301 15.7098 26.3551 15.4498M25.9401 16.4548C25.9401 16.4548 26.3001 16.5198 26.4701 16.1748M25.9001 17.1098C25.9001 17.1098 26.1951 17.3598 26.3951 17.0298M21.6951 12.3098C21.6951 12.3098 21.6601 13.5748 23.4351 13.8298C25.4201 14.3798 26.3601 14.0898 26.4751 16.3148C26.4001 17.1648 26.2951 18.1148 25.6751 17.7498M19.8051 13.4748C19.8051 13.4748 20.0901 13.9798 20.4301 13.9448C20.8801 13.8148 21.0451 14.0898 21.0451 14.0898M18.5951 13.9798C18.5951 13.9798 19.3451 14.3448 19.9801 13.7548M18.6801 13.4548C18.7451 14.3298 17.6751 14.8298 17.2501 14.7448M18.7301 16.7948C18.7351 16.7948 19.3101 16.4548 19.1951 16.2148M17.5901 16.2898C17.6051 16.2698 18.5551 16.1798 18.7301 15.8398M17.1501 14.8898C17.1501 14.8898 18.4951 14.8998 18.5851 15.1448M18.9351 14.0948C18.9351 14.0948 17.6251 16.3398 20.0451 16.3398M17.5451 14.0648C17.5451 14.0648 17.2651 14.8998 16.8651 15.1848M16.1551 13.7748C16.1551 13.7748 16.6401 14.7148 16.1551 15.1798M14.8851 14.0398C14.8901 14.0548 15.0401 15.3748 14.7101 15.7498M14.2501 14.0798C14.2501 14.0798 14.3001 14.9198 14.0501 15.2198C13.8001 15.5198 14.1101 16.1398 14.1101 16.1398M11.0851 16.5398C11.0851 16.5398 11.2651 16.8548 11.5101 16.7448M11.3851 15.8548C11.3851 15.8548 11.7851 16.0298 11.9201 15.9648M11.8201 14.4448C11.8201 14.4448 11.2301 14.6098 11.4551 15.3098C11.7951 15.5848 12.1251 15.5398 12.1251 15.5398M10.6551 17.4098C10.6501 17.4098 10.7251 17.9598 11.1051 17.5448C11.3701 16.9848 12.2051 15.4148 12.4001 14.8748M12.7901 14.6198C12.7901 14.6198 12.3851 14.3048 12.4001 14.7448C12.3901 15.0198 12.5251 15.0848 12.5251 15.0848C12.5401 15.2848 12.7151 15.5648 12.8551 15.3098C12.9151 15.0598 12.8151 14.9498 12.8151 14.9498M13.0501 14.4998C12.6851 14.4798 12.4851 15.2848 13.1901 14.7798M13.4301 14.2298C13.4301 14.2298 13.3401 14.3548 13.1951 14.2198C13.1201 14.0898 12.8551 14.8198 13.3201 14.8448C13.4051 14.6298 13.6601 14.5698 13.6601 14.5698M13.8801 13.8798C13.8801 13.8798 13.6701 13.9798 13.5951 13.9648C13.3451 14.0198 13.3951 14.6048 13.7101 14.5698C13.8201 14.4448 13.9351 14.2698 13.9351 14.2698M11.9201 13.1198C11.9101 13.1198 11.0951 14.4048 12.3751 14.7448M22.2751 11.1948C22.2751 11.1948 21.7751 11.6148 22.2401 12.2948C20.6901 12.2698 19.8651 12.9848 19.8001 13.4648C17.8301 13.3248 18.1901 13.9048 17.5501 14.0948C16.6951 13.3798 15.4401 13.7798 15.5201 14.4948C14.9501 13.6898 14.0701 14.0798 13.9601 14.2798C13.8551 14.4798 13.8951 13.2898 13.8951 13.2898C13.8951 13.2898 13.3201 13.5498 12.9251 14.0198V13.0248C12.4451 13.1248 11.9801 13.1248 11.4851 13.1148M10.1901 12.7498C10.1901 12.7498 10.9051 13.1498 11.7901 12.6098M10.1351 11.3148C10.1351 11.3148 10.6851 11.8148 11.7351 11.6548M10.4851 10.1698C10.4851 10.1698 10.6051 10.5748 11.8001 10.5998M10.8851 9.22983C10.8851 9.22983 11.3351 9.77983 11.9451 9.69483M11.2701 8.44483C11.2701 8.44483 11.4451 8.74483 12.1101 8.79483M11.6601 7.56983C11.6601 7.56983 12.0101 7.94983 12.4101 7.88483M13.7351 4.46483C13.7351 4.46483 13.8901 4.31483 14.1501 4.38983M13.6251 5.27983C13.6251 5.27983 13.1451 5.26483 13.1751 5.07983C13.2151 4.85983 13.6851 4.70483 13.6851 4.70483C13.6851 4.70483 14.3101 4.30483 14.4051 4.16483M11.5751 6.36483L12.1851 7.52983L12.4751 7.08983L12.6251 7.38983L12.8751 6.95483L13.3051 7.22983L13.1451 6.69483L13.5051 6.66983C13.5051 6.66983 13.4051 6.41483 13.0851 6.35983C13.1701 6.29483 13.4701 6.09483 13.4701 6.09483C13.4701 6.09483 13.3001 5.89483 13.0301 5.88983C13.1201 5.79483 13.2401 5.56483 13.2301 5.56483L12.9651 5.50483C12.9651 5.50483 13.5751 5.70483 14.0451 5.42483M12.8851 4.48483C12.8901 4.48983 12.8501 4.72483 12.7201 4.85983M10.5351 5.12483C10.5351 5.12483 10.9101 5.02483 11.1901 5.07983C11.4701 5.13983 11.8451 5.23983 11.8451 5.23983C11.8451 5.23983 12.2951 5.17983 12.4401 5.07483M9.6001 5.37483C9.6001 5.37483 9.5501 5.55483 9.5301 5.67483C9.5301 5.75983 9.2551 5.87483 9.2551 5.87483M9.7701 5.00483C9.7701 5.00483 10.0101 5.30483 10.0201 5.47983C10.0251 5.64983 9.8401 5.77983 9.8401 5.77983M7.2851 7.04983L7.0351 6.64983L7.2601 6.56983M11.7851 12.6198C11.5851 12.3598 11.9351 8.40983 12.6701 7.37983C12.4151 9.23983 13.2701 11.1398 13.4851 11.1298M9.5351 6.27983C9.5351 6.27983 9.8751 6.40483 10.5701 5.84983M11.5151 7.18983L12.0151 7.19483M27.0301 4.09483C27.0301 4.09483 18.6951 7.98483 18.5751 8.19483C19.9801 7.76483 25.9501 6.76983 26.0951 6.85483C25.7451 6.93983 18.5001 8.60483 18.1601 9.00483C19.9701 8.94483 23.7551 9.58483 24.3501 10.2048C23.0601 9.91483 19.2151 9.34983 18.0351 9.59983C18.8951 9.80483 22.1951 11.9398 22.1951 12.2798C21.6951 11.8048 17.7301 10.1698 17.5751 10.3298C18.4851 10.8748 19.7701 12.8998 19.7701 13.3948C19.5051 12.9748 17.2101 10.5098 17.0751 10.6698C17.3201 11.0048 17.8001 13.9148 17.5551 14.0498C17.5551 13.6998 16.6651 11.1498 16.5901 11.0798C16.4101 11.1298 15.2751 14.1798 15.5001 14.4698C15.3501 13.4498 15.5251 11.3198 15.8001 11.4048C15.3001 11.4798 13.7151 13.5748 13.8851 13.9048C13.9351 13.3798 14.0051 13.0348 14.9051 11.2998C13.9051 11.3598 11.8451 12.6548 11.4951 13.1198C11.7751 12.2948 13.5201 10.8998 14.2851 10.7998M17.8851 7.76483C18.7651 7.27483 21.4851 6.27983 23.3051 5.54483M16.1751 10.3948C16.1751 10.3948 16.7751 10.3848 17.3751 8.75483C17.9651 6.52483 22.6601 4.03983 22.7551 3.57483M8.2351 12.6398C8.2351 12.6398 8.0951 12.9398 7.9251 13.0198M8.9101 13.0898C8.9101 13.0898 8.7251 13.4498 8.6801 13.6198M9.5551 13.2698C9.5551 13.2698 9.7051 13.7598 9.5801 13.9898M7.7601 11.9848C7.2901 12.2498 8.0301 13.9348 10.2651 14.0948M9.9051 13.1848C9.9051 13.1848 9.8451 13.4848 10.2651 14.0848C10.1451 14.7548 10.7751 15.2798 11.0251 15.3648M9.7251 7.15483L9.7951 6.97483L9.8701 7.17483L9.9951 7.16983L10.0751 6.96983L10.1451 7.16983H10.2651L10.3401 6.94983L10.4551 7.15983H10.5551L10.6301 6.90983L10.7801 7.08983L10.8401 7.06983L10.8901 6.80983L11.0451 6.98983L11.0951 6.96483L11.1651 6.71483L11.2901 6.89983L11.3551 6.87983L11.4151 6.66483L11.5351 6.86483M9.5851 7.17483L10.5251 7.15983C10.8251 7.15983 11.3151 6.74483 11.8601 6.87483M7.6151 9.17483C7.6151 9.17483 7.7701 9.51483 7.9851 9.32483M7.2551 9.39983C7.2551 9.39983 6.9551 10.2098 7.3151 10.3998M6.8251 8.50983C6.8251 8.50983 6.8251 8.69983 7.2251 8.40983M5.6001 12.7448C5.6001 12.7448 5.9151 12.8448 5.8651 13.0798M5.7151 9.03983C5.7151 9.03983 5.9151 9.13483 6.1051 8.83983M7.8151 18.3248C8.1201 18.3048 8.1901 18.4448 8.4651 18.4448C8.7951 18.4548 9.1101 18.3248 9.5151 18.2098M12.1701 18.9598C12.1601 18.9598 12.0201 19.2498 12.1451 19.3948M7.7701 18.9848C7.7701 18.9848 8.2601 18.5848 8.5201 18.8298C8.7651 18.9148 8.9001 18.8998 8.9001 18.8998M8.0251 17.8348C8.0251 17.8348 8.1451 18.1448 7.7451 18.0998M7.6251 18.5498C7.6251 18.5498 7.8801 18.7098 7.5901 18.9248M7.7801 19.2148C7.7801 19.2148 8.1301 19.2648 7.9251 19.5498M18.7951 17.5548C19.1501 17.8398 19.0051 18.0098 20.1251 17.2598M18.2851 17.9098C18.2851 17.9098 18.8101 18.4798 19.1951 17.7898M17.2801 18.1148L16.5651 18.4898M15.2851 19.0148C15.2851 19.0148 15.7201 18.6448 15.9201 18.8398C16.1251 19.0398 16.9851 18.6698 16.9851 18.6698M15.6101 17.3998C15.6101 17.3998 15.7601 17.6998 15.4701 17.7348M15.0451 18.3298C15.0451 18.3298 15.1951 18.6098 14.9051 18.6798M15.3801 19.0848C15.3801 19.0848 15.8301 19.1098 15.6701 19.4498M19.5901 19.0248C19.5901 19.0248 19.3401 19.2348 19.5251 19.4748M23.1751 17.5248C23.1751 17.5248 23.4601 17.6648 23.1201 17.8998M22.8351 18.3948C22.8351 18.3948 23.0501 18.6198 22.9051 18.8048M23.4351 19.2548C23.4351 19.2548 23.7301 19.3398 23.6951 19.5848M27.5851 19.0348C27.5851 19.0348 27.3351 19.2198 27.4701 19.4548M23.1851 11.8148C23.7751 11.7448 24.6251 13.0648 25.0601 13.3198M27.6551 9.94983C27.6551 9.94983 27.9551 10.2148 27.6901 10.8498M28.2101 8.93983C28.2951 9.00483 28.6151 9.17983 28.8301 9.57983M29.0351 6.96983L28.6201 8.09483M29.5001 6.91483C29.5001 6.91483 29.4201 7.91483 29.3001 8.11483M19.1351 17.0798C19.1351 17.0798 20.0851 17.1798 20.1351 17.2498C20.2451 17.1348 21.0951 16.4398 20.0501 16.3448C20.0019 16.5521 19.8856 16.7372 19.7197 16.8705C19.5538 17.0038 19.3479 17.0775 19.1351 17.0798ZM27.6351 9.93983C27.5001 10.3398 26.2951 10.5398 26.2151 9.94983C26.1701 9.64983 26.9251 9.18483 27.6351 9.93983Z" stroke="black" stroke-width="0.07" stroke-linejoin="round"/>
<path d="M10.9502 5.06482L11.4152 5.14982C11.4152 5.14982 11.0902 5.58982 10.9502 5.06482Z" fill="black" stroke="black" stroke-width="0.07" stroke-linejoin="round"/>
</g>
<defs>
<clipPath id="clip0_11930_67944">
<rect width="36" height="24" rx="2" fill="white"/>
</clipPath>
</defs>
</svg>
