<svg width="36" height="24" viewBox="0 0 36 24" fill="none" xmlns="http://www.w3.org/2000/svg">
<rect width="36" height="24" rx="2" fill="#CE1126"/>
<path d="M3 3H33V21H3V3Z" fill="#007A5E"/>
<path d="M3 3H33L3 21H33L3 3Z" fill="#FCD116"/>
<path d="M17.8937 14.885C19.4843 14.885 20.7737 13.5956 20.7737 12.005C20.7737 10.4144 19.4843 9.125 17.8937 9.125C16.3031 9.125 15.0137 10.4144 15.0137 12.005C15.0137 13.5956 16.3031 14.885 17.8937 14.885Z" fill="#CE1126"/>
<path d="M17.9019 9.35999L17.0861 11.8708L18.3414 12.2787" fill="#FCD116"/>
<path d="M17.9019 9.35999L18.7177 11.8708L17.4623 12.2787" fill="#FCD116"/>
<path d="M20.4072 11.1841H17.7672V12.5041" fill="#FCD116"/>
<path d="M20.4072 11.1841L18.2714 12.7358L17.4955 11.6679" fill="#FCD116"/>
<path d="M19.4478 14.1357L18.6319 11.625L17.3766 12.0329" fill="#FCD116"/>
<path d="M19.4478 14.1357L17.3119 12.584L18.0878 11.5161" fill="#FCD116"/>
<path d="M16.3501 14.1359L18.4859 12.5841L17.71 11.5162" fill="#FCD116"/>
<path d="M16.3501 14.1359L17.1659 11.6251L18.4213 12.033" fill="#FCD116"/>
<path d="M15.3877 11.1842L17.5235 12.736L18.2994 11.6681" fill="#FCD116"/>
<path d="M15.3877 11.1842H18.0277V12.5042" fill="#FCD116"/>
<path fill-rule="evenodd" clip-rule="evenodd" d="M10 1.07788L10.9145 1.74233L10.5637 2.82202L11.4835 2.15375L12.4033 2.82202L12.0523 1.74161L12.9658 1.07788H11.8361L11.4858 0L11.1356 1.07788H10ZM17.6493 1.07788L17.9995 0L18.3497 1.07788H19.4797L18.566 1.74175L18.917 2.82202L18.0012 2.15667L17.0854 2.82202L17.4347 1.74706L16.5137 1.07788H17.6493ZM24.1634 1.07788L24.5137 0L24.8639 1.07788H26.0015L25.0814 1.74635L25.4309 2.82202L24.5151 2.15667L23.5994 2.82202L23.9486 1.74706L23.0276 1.07788H24.1634Z" fill="#FCD116"/>
<path d="M5.11523 12.0349C5.49506 12.7433 6.07851 13.3215 6.79023 13.6949C6.7625 12.9135 6.56996 12.1468 6.22523 11.4449L5.11523 12.0349Z" fill="#CE1126"/>
<path d="M4.50518 9.73499C5.02518 10.82 3.15018 13.42 6.28018 14.03C5.85752 13.4176 5.66452 12.6757 5.73518 11.935C6.43084 12.2566 7.00173 12.7976 7.36018 13.475C8.18018 10.5 5.26018 10.685 4.50518 9.73499Z" fill="#FCD116"/>
<path fill-rule="evenodd" clip-rule="evenodd" d="M10 22.0779L10.9145 22.7423L10.5637 23.822L11.4835 23.1537L12.4033 23.822L12.0523 22.7416L12.9658 22.0779H11.8361L11.4858 21L11.1356 22.0779H10ZM17.6493 22.0779L17.9995 21L18.3497 22.0779H19.4797L18.566 22.7418L18.917 23.822L18.0012 23.1567L17.0854 23.822L17.4347 22.7471L16.5137 22.0779H17.6493ZM24.1634 22.0779L24.5137 21L24.8639 22.0779H26.0015L25.0814 22.7463L25.4309 23.822L24.5151 23.1567L23.5994 23.822L23.9486 22.7471L23.0276 22.0779H24.1634Z" fill="#FCD116"/>
</svg>
