<svg width="36" height="24" viewBox="0 0 36 24" fill="none" xmlns="http://www.w3.org/2000/svg">
<g clip-path="url(#clip0_11930_67961)">
<rect width="36" height="24" rx="2" fill="white"/>
<path d="M16 0H20V24H16V0Z" fill="#FF0000"/>
<path d="M0 10H36V14H0V10Z" fill="#FF0000"/>
<path fill-rule="evenodd" clip-rule="evenodd" d="M8.64 18.655C8.69 17.815 8.84 17.1 8.84 17.1C8.84 17.1 8.35 17.15 8.1 17.15C7.855 17.15 7.36 17.1 7.36 17.1C7.36 17.1 7.51 17.815 7.56 18.66C6.715 18.61 6 18.46 6 18.46C6 18.46 6.05 18.83 6.05 19.2C6.05 19.57 6 19.94 6 19.94C6 19.94 6.715 19.7899 7.56 19.74C7.51 20.5849 7.36 21.3 7.36 21.3C7.36 21.3 7.73 21.25 8.1 21.25C8.47 21.25 8.84 21.3 8.84 21.3C8.84 21.3 8.69 20.5849 8.64 19.74C9.485 19.7899 10.2 19.94 10.2 19.94C10.2 19.94 10.15 19.45 10.15 19.2C10.15 18.955 10.2 18.46 10.2 18.46C10.2 18.46 9.485 18.61 8.645 18.66L8.64 18.655ZM28.04 4.25495C28.09 3.41495 28.24 2.69995 28.24 2.69995C28.24 2.69995 27.75 2.74995 27.5 2.74995C27.255 2.74995 26.76 2.69995 26.76 2.69995C26.76 2.69995 26.91 3.41495 26.96 4.25495C26.115 4.20495 25.4 4.05995 25.4 4.05995C25.4 4.05995 25.45 4.42995 25.45 4.79995C25.45 5.16995 25.4 5.53995 25.4 5.53995C25.4 5.53995 26.115 5.38995 26.96 5.33995C26.91 6.18495 26.76 6.89995 26.76 6.89995C26.76 6.89995 27.13 6.84995 27.5 6.84995C27.87 6.84995 28.24 6.89995 28.24 6.89995C28.24 6.89995 28.09 6.18495 28.04 5.34495C28.885 5.39495 29.6 5.54495 29.6 5.54495C29.6 5.54495 29.55 5.04495 29.55 4.79995C29.55 4.55495 29.6 4.05995 29.6 4.05995C29.6 4.05995 28.885 4.20995 28.04 4.25995V4.25495ZM8.64 4.25495C8.69 3.41495 8.84 2.69995 8.84 2.69995C8.84 2.69995 8.35 2.74995 8.1 2.74995C7.855 2.74995 7.36 2.69995 7.36 2.69995C7.36 2.69995 7.51 3.41495 7.56 4.25995C6.715 4.20995 6 4.05995 6 4.05995C6 4.05995 6.05 4.42995 6.05 4.79995C6.05 5.16995 6 5.53995 6 5.53995C6 5.53995 6.715 5.38995 7.56 5.33995C7.51 6.18495 7.36 6.89995 7.36 6.89995C7.36 6.89995 7.73 6.84995 8.1 6.84995C8.47 6.84995 8.84 6.89995 8.84 6.89995C8.84 6.89995 8.69 6.18495 8.64 5.33995C9.485 5.38995 10.2 5.53995 10.2 5.53995C10.2 5.53995 10.15 5.04995 10.15 4.79995C10.15 4.55495 10.2 4.05995 10.2 4.05995C10.2 4.05995 9.485 4.20995 8.645 4.25995L8.64 4.25495ZM28.04 18.655C28.09 17.815 28.24 17.1 28.24 17.1C28.24 17.1 27.75 17.15 27.5 17.15C27.255 17.15 26.76 17.1 26.76 17.1C26.76 17.1 26.91 17.815 26.96 18.66C26.115 18.61 25.4 18.46 25.4 18.46C25.4 18.46 25.45 18.83 25.45 19.2C25.45 19.57 25.4 19.94 25.4 19.94C25.4 19.94 26.115 19.7899 26.96 19.74C26.91 20.5849 26.76 21.3 26.76 21.3C26.76 21.3 27.13 21.25 27.5 21.25C27.87 21.25 28.24 21.3 28.24 21.3C28.24 21.3 28.09 20.5849 28.04 19.74C28.885 19.7899 29.6 19.94 29.6 19.94C29.6 19.94 29.55 19.45 29.55 19.2C29.55 18.955 29.6 18.46 29.6 18.46C29.6 18.46 28.885 18.61 28.04 18.66V18.655Z" fill="#FF0000"/>
</g>
<rect x="0.25" y="0.25" width="35.5" height="23.5" rx="1.75" stroke="#EFEFEF" stroke-width="0.5"/>
<defs>
<clipPath id="clip0_11930_67961">
<rect width="36" height="24" rx="2" fill="white"/>
</clipPath>
</defs>
</svg>
