<svg width="36" height="24" viewBox="0 0 36 24" fill="none" xmlns="http://www.w3.org/2000/svg">
<g clip-path="url(#clip0_11930_67967)">
<path d="M0 0H36V24H0V0Z" fill="#DA000C"/>
<path d="M0 0H36V16.08H0V0Z" fill="white"/>
<path d="M12.4316 10.9031H18.4316V15.0281H12.4316V10.9031Z" fill="#000001"/>
<path d="M15.5441 14.4281H11.8879L11.0723 14.9625V15.525H15.5441M14.016 12.0562C14.541 12.0562 14.9723 12.4968 14.9723 13.0406V14.4187H15.6566V9.1687H11.8785V14.4187H13.0598V13.0406C13.0598 12.5156 13.4816 12.0562 14.016 12.0562Z" fill="#DA000C"/>
<path d="M15.5441 14.4281H11.8879L11.0723 14.9625V15.525H15.5441M14.016 12.0562C14.541 12.0562 14.9723 12.4968 14.9723 13.0406V14.4187H15.6566V9.1687H11.8785V14.4187H13.0598V13.0406C13.0598 12.5156 13.4816 12.0562 14.016 12.0562Z" stroke="black" stroke-width="0.09375" stroke-linecap="square"/>
<path d="M13.1721 5.62488H14.9159V8.81238H13.1721V5.62488Z" fill="#000001"/>
<path d="M14.9065 8.31555H13.3877V7.7718H12.2721V8.31555H11.5221V7.7718H11.0627V8.7468H14.9065M11.5127 8.7468H14.794V9.16868H11.5127V8.7468ZM12.8252 4.46243V7.78118H13.3877V6.8718C13.3877 6.5343 13.6221 6.25305 13.9596 6.2343H13.9971C14.0808 6.2343 14.1637 6.25079 14.2411 6.28283C14.3184 6.31487 14.3887 6.36182 14.4479 6.42102C14.5071 6.48022 14.5541 6.5505 14.5861 6.62784C14.6181 6.70519 14.6346 6.78808 14.6346 6.8718V7.78118H15.169V4.46243H12.8252ZM12.6096 4.01243V4.46243H15.3565V4.01243H12.6096ZM12.2627 3.1593V4.01243H15.544V3.1593H15.0471V3.59993H14.4284V3.1593H13.4909V3.59993H12.8815V3.1593H12.2627ZM11.0627 14.9624H15.5627H11.0627ZM18.469 14.6999H15.4315L14.5127 15.1406V15.7968H18.469" fill="#DA000C"/>
<path d="M14.9065 8.31555H13.3877V7.7718H12.2721V8.31555H11.5221V7.7718H11.0627V8.7468H14.9065M11.0627 14.9624H15.5627M18.469 14.6999H15.4315L14.5127 15.1406V15.7968H18.469M11.5127 8.7468H14.794V9.16868H11.5127V8.7468ZM12.8252 4.46243V7.78118H13.3877V6.8718C13.3877 6.5343 13.6221 6.25305 13.9596 6.2343H13.9971C14.0808 6.2343 14.1637 6.25079 14.2411 6.28283C14.3184 6.31487 14.3887 6.36182 14.4479 6.42102C14.5071 6.48022 14.5541 6.5505 14.5861 6.62784C14.6181 6.70519 14.6346 6.78808 14.6346 6.8718V7.78118H15.169V4.46243H12.8252ZM12.6096 4.01243V4.46243H15.3565V4.01243H12.6096ZM12.2627 3.1593V4.01243H15.544V3.1593H15.0471V3.59993H14.4284V3.1593H13.4909V3.59993H12.8815V3.1593H12.2627Z" stroke="black" stroke-width="0.09375" stroke-linecap="square"/>
<path d="M14.5129 15.1405H18.5629H14.5129Z" fill="#DA000C"/>
<path d="M14.5129 15.1405H18.5629" stroke="black" stroke-width="0.09375"/>
<path d="M23.5691 10.9031H17.5691V15.0281H23.5691V10.9031Z" fill="#000001"/>
<path d="M20.4566 14.4281H24.1128L24.9285 14.9625V15.525H20.4566M21.9847 12.0562C21.4597 12.0562 21.0285 12.4968 21.0285 13.0406V14.4187H20.3441V9.1687H24.1222V14.4187H22.941V13.0406C22.941 12.5156 22.5191 12.0562 21.9847 12.0562Z" fill="#DA000C"/>
<path d="M20.4566 14.4281H24.1128L24.9285 14.9625V15.525H20.4566M21.9847 12.0562C21.4597 12.0562 21.0285 12.4968 21.0285 13.0406V14.4187H20.3441V9.1687H24.1222V14.4187H22.941V13.0406C22.941 12.5156 22.5191 12.0562 21.9847 12.0562Z" stroke="black" stroke-width="0.09375" stroke-linecap="square"/>
<path d="M22.8284 5.62488H21.0846V8.81238H22.8284V5.62488Z" fill="#000001"/>
<path d="M21.094 8.31555H22.6127V7.7718H23.7284V8.31555H24.4784V7.7718H24.9377V8.7468H21.094M24.4877 8.7468H21.2065V9.16868H24.4877V8.7468ZM23.1752 4.46243V7.78118H22.6127V6.8718C22.6127 6.5343 22.3784 6.25305 22.0409 6.2343H22.0034C21.9197 6.2343 21.8368 6.25079 21.7594 6.28283C21.6821 6.31487 21.6118 6.36182 21.5526 6.42102C21.4934 6.48022 21.4464 6.5505 21.4144 6.62784C21.3824 6.70519 21.3659 6.78808 21.3659 6.8718V7.78118H20.8315V4.46243H23.1752ZM23.3909 4.01243V4.46243H20.644V4.01243H23.3909ZM23.7377 3.1593V4.01243H20.4565V3.1593H20.9534V3.59993H21.5721V3.1593H22.5096V3.59993H23.119V3.1593H23.7377ZM24.9377 14.9624H20.4377H24.9377ZM17.5315 14.6999H20.569L21.4877 15.1406V15.7968H17.5315" fill="#DA000C"/>
<path d="M21.094 8.31555H22.6127V7.7718H23.7284V8.31555H24.4784V7.7718H24.9377V8.7468H21.094M24.9377 14.9624H20.4377M17.5315 14.6999H20.569L21.4877 15.1406V15.7968H17.5315M24.4877 8.7468H21.2065V9.16868H24.4877V8.7468ZM23.1752 4.46243V7.78118H22.6127V6.8718C22.6127 6.5343 22.3784 6.25305 22.0409 6.2343H22.0034C21.9197 6.2343 21.8368 6.25079 21.7594 6.28283C21.6821 6.31487 21.6118 6.36182 21.5526 6.42102C21.4934 6.48022 21.4464 6.5505 21.4144 6.62784C21.3824 6.70519 21.3659 6.78808 21.3659 6.8718V7.78118H20.8315V4.46243H23.1752ZM23.3909 4.01243V4.46243H20.644V4.01243H23.3909ZM23.7377 3.1593V4.01243H20.4565V3.1593H20.9534V3.59993H21.5721V3.1593H22.5096V3.59993H23.119V3.1593H23.7377Z" stroke="black" stroke-width="0.09375" stroke-linecap="square"/>
<path d="M21.4878 15.1405H17.4378H21.4878Z" fill="#DA000C"/>
<path d="M21.4878 15.1405H17.4378" stroke="black" stroke-width="0.09375"/>
<path d="M19.6222 14.0624C19.3691 14.1561 19.1534 14.2874 18.9191 14.4186C18.6274 14.5852 18.3485 14.7732 18.0847 14.9811C17.9909 15.0468 17.8972 15.1124 17.8316 15.2061C17.7378 15.2811 17.6441 15.3936 17.6628 15.5343C17.6628 15.5905 17.7378 15.4593 17.7941 15.4499C17.8831 15.4022 17.9865 15.3889 18.0847 15.4124C18.2066 15.2811 18.3659 15.1968 18.4972 15.0936C18.8793 14.8171 19.2875 14.5784 19.7159 14.3811L19.6222 14.0624Z" fill="#F8D80E" stroke="black" stroke-width="0.075" stroke-linecap="round"/>
<path d="M18.4128 14.7562V15.1218V14.7562ZM18.6378 14.5968V14.9624V14.5968ZM18.8628 14.4562V14.8124V14.4562ZM19.0972 14.3156V14.6906V14.3156Z" fill="#F8D80E"/>
<path d="M18.4128 14.7562V15.1218M18.6378 14.5968V14.9624M18.8628 14.4562V14.8124M19.0972 14.3156V14.6906" stroke="black" stroke-width="0.09375" stroke-linecap="round"/>
<path d="M16.3972 14.0812L16.2847 14.3906C16.8028 14.5893 17.2991 14.8406 17.7659 15.1406C17.9253 15.2531 18.094 15.3562 18.2159 15.5062C18.244 15.5812 18.169 15.6468 18.094 15.6187C18.0284 15.5999 17.9534 15.5718 17.8878 15.6187C17.7847 15.6656 17.6909 15.8249 17.8409 15.8718C18.0659 16.0218 18.4128 15.9562 18.5159 15.7031C18.5722 15.5718 18.5815 15.4031 18.469 15.2906C18.2815 15.0749 18.019 14.9156 17.7753 14.7562C17.3376 14.4894 16.8763 14.2635 16.3972 14.0812Z" fill="#F8D80E" stroke="black" stroke-width="0.075" stroke-linecap="round"/>
<path d="M17.8128 14.8125L17.7847 15.1312L17.8128 14.8125ZM18.0753 14.9719L18.0003 15.2812L18.0753 14.9719ZM18.3565 15.1875L18.1878 15.4312L18.3565 15.1875ZM18.4409 15.7687L18.1972 15.6375L18.4409 15.7687ZM18.5159 15.5062L18.2347 15.5344L18.5159 15.5062ZM18.1597 15.9094L18.1409 15.6656L18.1597 15.9094ZM18.0472 15.6375L17.8222 15.8062L18.0472 15.6375ZM16.9409 14.3344V14.625V14.3344ZM17.5315 14.6531V14.9812V14.6531ZM17.2315 14.4937V14.8031V14.4937Z" fill="#F8D80E"/>
<path d="M17.8128 14.8125L17.7847 15.1312M18.0753 14.9719L18.0003 15.2812M18.3565 15.1875L18.1878 15.4312M18.4409 15.7687L18.1972 15.6375M18.5159 15.5062L18.2347 15.5344M18.1597 15.9094L18.1409 15.6656M18.0472 15.6375L17.8222 15.8062M16.9409 14.3344V14.625M17.5315 14.6531V14.9812M17.2315 14.4937V14.8031" stroke="black" stroke-width="0.09375" stroke-linecap="round"/>
<path d="M16.1035 21.3373V22.0873H16.5723V21.7123H17.2191V22.0873H17.7254V21.3373H16.1035ZM16.1035 22.3685V23.1185H17.716V22.3685H17.2098V22.7435H16.5629V22.3685H16.1035Z" fill="#F8D80E" stroke="black" stroke-width="0.09375"/>
<path d="M17.7158 18.1593H18.1846V23.5968H17.7158V18.1593Z" fill="#F8D80E" stroke="black" stroke-width="0.09375"/>
<path d="M17.716 18.6279H18.1847V23.3154H17.716V18.6279ZM17.9597 16.8185L18.9535 17.3998L17.9597 17.981L16.9566 17.3998L17.9597 16.8185ZM16.6191 17.1935H16.366V17.606H16.6191L17.9597 18.3842L19.291 17.606H19.5535V17.1935H19.291L17.9597 16.4154L16.6191 17.1935Z" fill="#F8D80E" stroke="black" stroke-width="0.09375"/>
<path d="M17.9315 15.403C17.8224 15.4251 17.7248 15.4854 17.6561 15.573C17.5874 15.6606 17.5521 15.7698 17.5565 15.8811V16.9311C17.5651 17.0426 17.6133 17.1473 17.6924 17.2264C17.7715 17.3055 17.8763 17.3537 17.9878 17.3623C18.0805 17.3693 18.1732 17.3479 18.2536 17.301C18.3339 17.2542 18.3982 17.184 18.4378 17.0998L18.2784 17.0061C18.2563 17.061 18.2169 17.1072 18.1661 17.1376C18.1153 17.1681 18.056 17.1812 17.9972 17.1748C17.8472 17.1748 17.7253 17.0248 17.744 16.8842V15.8342C17.7511 15.7654 17.7842 15.7019 17.8364 15.6567C17.8887 15.6114 17.9562 15.5877 18.0253 15.5905C18.0815 15.5717 18.1659 15.6561 18.2034 15.5905C18.2597 15.5061 18.1659 15.4498 18.1097 15.403H17.9315ZM18.4753 15.7686C18.4295 15.8328 18.3682 15.8844 18.2972 15.9186V16.6217L18.4847 16.7248V15.7686H18.4753Z" fill="#F8D80E" stroke="black" stroke-width="0.09375"/>
<path d="M16.5752 3.59985H19.3221V8.58735H16.5752V3.59985Z" fill="#000001"/>
<path d="M16.3877 3.5999V7.77178H17.2596V6.53428C17.2596 6.25303 17.4471 5.8499 18.0002 5.8499C18.5533 5.8499 18.7502 6.25303 18.7502 6.53428V7.78115H19.6127V3.5999H16.3877ZM17.8689 4.06865H18.1314V5.49365H17.8689V4.06865ZM17.0908 4.3499H17.3721V5.39053H17.0908V4.3499ZM18.6377 4.3499H18.9096V5.39053H18.6283L18.6377 4.3499ZM16.0877 2.9999V3.59053H19.9127V2.9999H16.0877ZM15.7314 2.30615V2.9999H20.2783V2.30615H19.7064V2.68115H19.0502V2.30615H18.3189V2.68115H17.6814V2.30615H16.9408V2.68115H16.3127V2.30615H15.7314ZM14.8877 9.16865V9.5999H21.1221V9.16865H14.8877Z" fill="#DA000C" stroke="black" stroke-width="0.09375"/>
<path d="M14.6252 7.77173V9.17798H21.3752V7.77173H20.7377V8.31548H19.8752V7.77173H18.7315V8.31548H17.2502V7.77173H16.1065V8.31548H15.2627V7.77173H14.6252Z" fill="#DA000C" stroke="black" stroke-width="0.09375"/>
<path d="M15.4409 9.59985V14.6999H16.6409V12.7874C16.6409 11.8967 17.2409 11.4749 18.0003 11.4749C18.7315 11.4749 19.3597 11.8967 19.3597 12.7874V14.6999H20.5597V9.59985H15.4409Z" fill="#DA000C" stroke="black" stroke-width="0.09375" stroke-linejoin="round"/>
</g>
<defs>
<clipPath id="clip0_11930_67967">
<rect width="36" height="24" rx="2" fill="white"/>
</clipPath>
</defs>
</svg>
