<svg width="36" height="24" viewBox="0 0 36 24" fill="none" xmlns="http://www.w3.org/2000/svg">
<g clip-path="url(#clip0_11930_67970)">
<path d="M0 0H36V24H0V0Z" fill="white"/>
<path d="M0 12H36V24H0V12ZM5 12C5 14.1217 5.84285 16.1566 7.34315 17.6569C8.84344 19.1571 10.8783 20 13 20C15.1217 20 17.1566 19.1571 18.6569 17.6569C20.1571 16.1566 21 14.1217 21 12C21 9.87827 20.1571 7.84344 18.6569 6.34315C17.1566 4.84285 15.1217 4 13 4C10.8783 4 8.84344 4.84285 7.34315 6.34315C5.84285 7.84344 5 9.87827 5 12Z" fill="#D00C33"/>
</g>
<defs>
<clipPath id="clip0_11930_67970">
<rect width="36" height="24" rx="2" fill="white"/>
</clipPath>
</defs>
</svg>
