<svg width="36" height="24" viewBox="0 0 36 24" fill="none" xmlns="http://www.w3.org/2000/svg">
<g clip-path="url(#clip0_11930_67994)">
<path d="M0 0H36V24H0V0Z" fill="#E32118"/>
<path d="M0 0H36V16H0V0Z" fill="white"/>
<path d="M0 0H36V8H0V0Z" fill="#3E9A00"/>
<path d="M0 0V24L10.125 12L0 0Z" fill="#0073CE"/>
<path d="M16.0793 9.59009H19.9093V13.6001C19.9093 14.9501 18.1493 13.9101 17.9993 14.6301C17.7393 13.8901 16.0893 14.9601 16.0893 13.5201L16.0793 9.59009Z" fill="white" stroke="black" stroke-width="0.05"/>
<path d="M18.2695 13.9899C18.2695 13.9899 18.2195 14.0399 18.1295 13.9999C18.0395 13.9599 18.0295 11.4299 18.0295 11.4299C18.2295 11.2099 18.3895 11.1399 18.3895 11.1399L18.5095 11.2399C18.0595 11.4699 18.0995 11.7999 18.1395 12.3699C18.1495 12.5799 18.1495 12.8499 18.1995 13.1099C18.2695 13.4399 18.4095 13.7199 18.4195 13.9299C18.4295 14.0599 18.2695 13.9899 18.2695 13.9899Z" fill="#73452B" stroke="black" stroke-width="0.01"/>
<path d="M17.9592 11.0801H18.1392C17.9892 12.5301 18.1192 13.3901 18.1192 13.8101C18.1192 13.9501 18.1992 14.0001 18.1892 14.0001C18.0092 14.2001 17.9192 13.9901 17.9192 13.9901L17.9592 11.0801Z" fill="#73452B" stroke="black" stroke-width="0.01"/>
<path d="M17.6794 13.9899C17.5094 14.0699 17.4894 13.9099 17.4994 13.8899C17.8694 13.1399 18.0294 11.4899 17.6894 11.3099L17.7094 11.1499C17.8394 11.1899 17.9594 11.3599 17.9594 11.3599C18.0094 13.2099 17.9594 13.9699 17.9294 13.9999C17.7494 14.1899 17.6794 13.9699 17.6694 13.9499" fill="#A36629"/>
<path d="M17.6794 13.9899C17.5094 14.0699 17.4894 13.9099 17.4994 13.8899C17.8694 13.1399 18.0294 11.4899 17.6894 11.3099L17.7094 11.1499C17.8394 11.1899 17.9594 11.3599 17.9594 11.3599C18.0094 13.2099 17.9594 13.9699 17.9294 13.9999C17.7494 14.1899 17.6794 13.9699 17.6694 13.9499" stroke="black" stroke-width="0.01"/>
<path d="M17.6694 13.96C17.6394 13.8 17.9294 13.39 17.9094 12.96M18.1594 13.31C18.2494 13.56 18.2894 13.78 18.2694 13.99" stroke="black" stroke-width="0.01"/>
<path d="M18.5492 10.3999C18.6092 10.3299 18.6092 10.3299 18.7192 10.3299C18.7392 10.1799 18.9892 10.1799 19.0092 10.3699C19.2092 10.3299 19.2492 10.4499 19.1692 10.5699C19.3592 10.5199 19.5292 10.5699 19.4792 10.7899C19.8192 10.8799 19.6892 11.1199 19.5392 11.1699C19.5192 11.3199 19.3792 11.3699 19.1892 11.3099C18.9492 11.4799 18.8092 11.4199 18.6992 11.2499C18.4292 11.2899 18.4092 11.2299 18.2892 11.0799C18.0792 11.1699 18.0392 11.1699 17.8592 11.0599C17.8492 11.1999 17.7992 11.1599 17.7092 11.1499C17.7192 11.3299 17.6492 11.4099 17.4892 11.3499C17.6092 11.5999 17.2992 11.7099 17.1492 11.4999C17.0092 11.5099 16.9992 11.4699 16.9292 11.4199C16.8692 11.6199 16.6492 11.5899 16.6092 11.4799C16.3292 11.4399 16.3592 11.2899 16.5892 11.2799C16.6092 11.1199 16.7492 11.1499 16.8392 11.1699C16.8492 11.0699 16.9092 11.0899 16.9592 11.1099C16.9292 11.0399 16.9492 10.9999 17.0392 10.9799C16.9092 10.8099 16.9892 10.7499 17.1192 10.6899C17.0492 10.5299 17.1692 10.5399 17.2592 10.5299C17.2492 10.3599 17.2992 10.3299 17.4792 10.3099C17.4592 10.2499 17.4892 10.1999 17.5892 10.1999C17.5292 10.0299 17.6092 9.98988 17.7892 10.0199C17.8192 9.76988 18.3492 9.88988 18.3092 10.2299C18.4592 10.2499 18.5092 10.2799 18.5492 10.3999Z" fill="#009A3B" stroke="black" stroke-width="0.01"/>
<path d="M17.4795 10.31C17.5195 10.33 17.5695 10.31 17.5795 10.42C17.6595 10.28 17.7595 10.36 17.7595 10.52M18.3095 10.23C18.2695 10.29 18.1195 10.29 18.1395 10.45C18.0895 10.38 17.9895 10.36 17.9495 10.43M18.5495 10.4C18.5495 10.44 18.5395 10.56 18.4995 10.62M19.1695 10.57C19.1795 10.58 19.0295 10.57 18.9595 10.62M19.5395 11.17C19.4995 11.15 19.4195 11.1 19.3595 11.18C19.3595 11.14 19.3595 11.03 19.2495 11.03M19.1895 11.31C19.1895 11.21 19.1695 11.18 19.1495 11.15M18.8595 11.17C18.7795 11.11 18.6995 11.2 18.6995 11.25M18.2795 11.08C18.2795 11.04 18.2495 10.96 18.3195 10.93M17.1395 11.5C17.1595 11.4 17.2295 11.4 17.2195 11.35M17.2195 11.35C17.2095 11.27 17.1195 11.2 17.0095 11.31M17.2195 11.35C17.2795 11.33 17.3395 11.34 17.3595 11.37M17.0495 10.98C17.0895 10.94 17.1895 10.95 17.2495 10.98M17.2495 10.74C17.2995 10.74 17.3895 10.72 17.4195 10.81C17.5295 10.64 17.6095 10.66 17.6295 10.7M17.8295 10.68C17.9095 10.65 18.0495 10.73 18.1295 10.87C18.1695 10.76 18.2295 10.78 18.2895 10.77M18.6695 10.87C18.7995 10.81 18.8795 10.93 18.9195 10.98C18.9795 10.9 19.0295 10.9 19.0895 10.9M17.4595 11.11C17.4895 11.06 17.5595 11.05 17.6095 11.08C17.5995 10.99 17.6595 10.95 17.6995 10.97" stroke="black" stroke-width="0.01"/>
<path d="M17.8693 9.02496L17.6493 9.03496L17.5393 9.23496L17.4193 9.04496L17.1993 9.05496L17.2993 8.85496L17.1793 8.66996L17.4093 8.65996L17.5093 8.45996L17.6293 8.64996L17.8493 8.63996L17.7493 8.83996L17.8693 9.02496ZM16.9293 9.09996L16.7093 9.14996L16.6493 9.36496L16.4893 9.20496L16.2793 9.25496L16.3393 9.04496L16.1893 8.88496L16.3993 8.82996L16.4593 8.61496L16.6193 8.77496L16.8393 8.72496L16.7693 8.93996L16.9293 9.09996ZM16.0193 9.28496L15.8193 9.38496L15.8093 9.60496L15.6193 9.48496L15.4193 9.58496L15.4393 9.35996L15.2493 9.23996L15.4493 9.13996L15.4693 8.91496L15.6493 9.03996L15.8493 8.93996L15.8393 9.15996L16.0193 9.28496ZM18.1593 9.02496L18.3793 9.03496L18.4793 9.23496L18.5993 9.04496L18.8193 9.05496L18.7193 8.85496L18.8393 8.66996L18.6193 8.65996L18.5093 8.45996L18.3893 8.64996L18.1693 8.63996L18.2693 8.83996L18.1593 9.02496ZM19.0993 9.09996L19.3093 9.14996L19.3693 9.36496L19.5293 9.20496L19.7393 9.25496L19.6793 9.04496L19.8393 8.88496L19.6193 8.82996L19.5593 8.61496L19.3993 8.77496L19.1893 8.72496L19.2493 8.93996L19.0993 9.09996ZM19.9993 9.28496L20.1993 9.38496L20.2093 9.60496L20.3993 9.48496L20.5993 9.58496L20.5893 9.35996L20.7693 9.23996L20.5693 9.13996L20.5593 8.91496L20.3693 9.03996L20.1693 8.93996L20.1893 9.15996L19.9993 9.28496Z" fill="#FFD700" stroke="black" stroke-width="0.035"/>
<path d="M20.2687 13.5202L20.5187 13.8802L20.7487 13.5402L20.5887 13.2502L20.2687 13.5202ZM18.6787 14.5702L18.6987 14.9302C18.6987 14.9302 18.7987 14.9302 18.8887 14.9002C18.9687 14.8702 19.0387 14.8102 19.0387 14.8102L19.0287 14.6202L18.6787 14.5702ZM17.3387 14.5702L17.3187 14.9202C17.3187 14.9202 17.2287 14.9202 17.1387 14.9002C17.0587 14.8802 16.9887 14.8302 16.9887 14.8302L16.8887 14.5902L17.3387 14.5702ZM15.7287 13.5202L15.4687 13.8802L15.1887 13.4202L15.3987 13.2002L15.7287 13.5202Z" fill="white" stroke="black" stroke-width="0.035"/>
<path d="M16.9788 15.2901C16.9788 15.6301 19.0388 15.6301 19.0388 15.2901V14.8101C19.0388 15.0601 16.9788 15.0101 16.9788 14.8101V15.2901Z" fill="white" stroke="black" stroke-width="0.035"/>
<path d="M15.1384 14.18C15.3184 15.1 16.9784 15.12 16.9784 15.12V14.81C16.9384 14.69 17.0084 14.65 17.2784 14.61C17.3884 14.6 17.3384 14.44 17.3384 14.44C17.3384 14.44 16.6184 14.57 16.1084 14.37C15.4184 14.09 15.3184 13.55 15.3184 13.55C15.3184 13.55 15.2684 13.97 15.1384 14.18ZM20.8684 14.18C20.6984 15.1 19.0384 15.12 19.0384 15.12V14.81C19.0684 14.69 18.9984 14.65 18.7284 14.61C18.6184 14.6 18.6784 14.44 18.6784 14.44C18.6784 14.44 19.3984 14.57 19.9084 14.37C20.5884 14.09 20.6684 13.55 20.6684 13.55C20.6684 13.55 20.7384 13.97 20.8684 14.18Z" fill="white" stroke="black" stroke-width="0.035"/>
<path d="M15.2686 13.8301C14.8086 13.5801 15.1686 13.3201 15.2086 12.5801C15.2786 13.0301 15.7886 13.2201 15.7286 13.5101C15.5186 13.5201 15.4186 13.2001 15.3186 13.5501L15.2686 13.8301ZM20.7386 13.8301C21.1986 13.5701 20.8186 13.3201 20.7786 12.5801C20.7086 13.0301 20.2086 13.2201 20.2686 13.5101C20.4686 13.5201 20.5686 13.2001 20.6686 13.5501L20.7386 13.8201V13.8301Z" fill="white" stroke="black" stroke-width="0.035"/>
<path d="M15.5494 14.1699L15.5994 14.2099L15.4894 14.3299C15.4394 14.3799 15.4344 14.4099 15.4644 14.4399C15.4994 14.4749 15.5294 14.4599 15.5644 14.4199L15.6894 14.2899L15.7294 14.3299L15.6094 14.4699C15.5444 14.5449 15.4844 14.5299 15.4294 14.4799C15.3894 14.4399 15.3594 14.3799 15.4294 14.3049L15.5494 14.1699ZM15.7494 14.3399L15.7994 14.3699L15.7894 14.6099L15.8994 14.4399L15.9494 14.4699L15.7894 14.7299L15.7294 14.6999L15.7394 14.4599L15.6294 14.6299L15.5794 14.5999L15.7494 14.3399ZM15.8394 14.7599L15.9794 14.4799L16.0294 14.5099L15.8994 14.7799L15.8394 14.7599ZM16.0594 14.5199L15.9494 14.8099L16.0594 14.8499C16.1594 14.8849 16.2094 14.8399 16.2394 14.7549C16.2744 14.6649 16.2594 14.6049 16.1594 14.5599L16.0594 14.5199ZM16.0994 14.5899C16.1994 14.6249 16.2094 14.6649 16.1794 14.7399C16.1494 14.8049 16.1294 14.8299 16.0294 14.7799L16.0994 14.5899ZM16.3894 14.6299L16.2094 14.8999L16.2794 14.9199L16.3194 14.8499L16.4394 14.8799L16.4494 14.9499L16.5194 14.9599L16.4494 14.6399L16.3894 14.6299ZM16.4094 14.6999L16.4294 14.8199L16.3494 14.8099L16.4094 14.6999ZM16.5594 14.6549L16.5494 14.9649H16.6644C16.7744 14.9699 16.8044 14.9149 16.8094 14.8149C16.8094 14.7249 16.7744 14.6649 16.6644 14.6649L16.5594 14.6549ZM16.6194 14.7049C16.7294 14.7099 16.7444 14.7449 16.7444 14.8199C16.7394 14.8949 16.7244 14.9249 16.6144 14.9099V14.7099L16.6194 14.7049ZM17.6094 15.0899V15.4099H17.6794V15.2899C17.6794 15.2899 17.7394 15.2899 17.7894 15.2799C17.8244 15.2699 17.8544 15.2449 17.8544 15.1799C17.8544 15.1199 17.8194 15.0899 17.7594 15.0899H17.6094ZM17.6794 15.1399H17.7494C17.8044 15.1399 17.7994 15.2299 17.7494 15.2299H17.6794V15.1399ZM17.9694 15.0899L17.8394 15.4099H17.9094L17.9394 15.3299H18.0694L18.0994 15.4099H18.1694L18.0394 15.0899H17.9694ZM17.9994 15.1599L18.0494 15.2799H17.9594L17.9994 15.1599ZM18.1694 15.3499L18.3394 15.1399H18.1894V15.0899H18.4294V15.1399L18.2494 15.3499H18.4294V15.4099H18.1694V15.3499ZM19.1794 14.7299L19.2394 14.7199L19.2694 14.8999C19.2794 14.9649 19.2494 15.0049 19.2044 15.0249C19.1544 15.0449 19.0844 15.0249 19.0794 14.9399L19.1294 14.9299C19.1394 14.9799 19.1594 14.9849 19.1794 14.9799C19.2044 14.9699 19.2144 14.9399 19.2094 14.9099L19.1794 14.7299ZM19.2794 14.7099L19.3344 14.6999L19.3644 14.8499C19.3744 14.9149 19.3944 14.9399 19.4394 14.9349C19.4894 14.9249 19.4944 14.8949 19.4844 14.8349L19.4494 14.6799L19.5094 14.6699L19.5494 14.8349C19.5694 14.9349 19.5194 14.9699 19.4494 14.9849C19.3944 14.9949 19.3294 14.9849 19.3094 14.8849L19.2794 14.7099ZM19.5894 14.8499L19.6394 14.8299C19.6644 14.8749 19.6994 14.8699 19.7294 14.8599C19.7694 14.8399 19.7794 14.8049 19.7544 14.7899C19.7244 14.7749 19.6544 14.7999 19.6194 14.7899C19.5744 14.7699 19.5544 14.7399 19.5594 14.7049C19.5594 14.6549 19.5994 14.6349 19.6444 14.6199C19.6944 14.6049 19.7444 14.6099 19.7794 14.6699L19.7194 14.6899C19.6994 14.6549 19.6694 14.6599 19.6494 14.6699C19.6294 14.6799 19.5994 14.6949 19.6194 14.7199C19.6294 14.7449 19.7044 14.7299 19.7444 14.7299C19.7844 14.7299 19.8144 14.7599 19.8194 14.7949C19.8294 14.8499 19.8094 14.8799 19.7444 14.9049C19.6694 14.9349 19.5994 14.9049 19.5894 14.8499ZM19.8594 14.5999L19.7794 14.6399L19.7594 14.5899L19.9794 14.4999L19.9994 14.5399L19.9194 14.5799L20.0094 14.7999L19.9594 14.8299L19.8594 14.5999ZM19.9894 14.4899L20.0394 14.4599L20.1794 14.7199L20.1294 14.7499L19.9894 14.4899ZM20.3294 14.5099L20.3894 14.4899C20.3972 14.5088 20.3999 14.5294 20.3975 14.5497C20.395 14.57 20.3874 14.5893 20.3754 14.6058C20.3634 14.6223 20.3473 14.6355 20.3288 14.6441C20.3102 14.6527 20.2898 14.6564 20.2694 14.6549C20.1194 14.6549 20.0994 14.4849 20.1244 14.4299C20.1644 14.3349 20.2744 14.3399 20.3244 14.3899L20.2744 14.4299C20.2444 14.3899 20.1744 14.4149 20.1744 14.4499C20.1678 14.4791 20.1711 14.5097 20.1838 14.5369C20.1964 14.564 20.2178 14.5862 20.2444 14.5999C20.2944 14.6199 20.3644 14.5599 20.3294 14.5099ZM20.2994 14.2999L20.3494 14.2599L20.5294 14.4999L20.4794 14.5399L20.2994 14.2999ZM20.4894 14.1499L20.4394 14.1899L20.5494 14.4899L20.5994 14.4399L20.5694 14.3799L20.6594 14.2999L20.7194 14.3299L20.7694 14.2899L20.4894 14.1499ZM20.5094 14.2199L20.6094 14.2699L20.5494 14.3299L20.5094 14.2199Z" fill="black"/>
</g>
<defs>
<clipPath id="clip0_11930_67994">
<rect width="36" height="24" rx="2" fill="white"/>
</clipPath>
</defs>
</svg>
