<svg width="36" height="24" viewBox="0 0 36 24" fill="none" xmlns="http://www.w3.org/2000/svg">
<rect width="36" height="24" rx="2" fill="#000066"/>
<path d="M25.55 17.25C25.55 17.25 25.42 17.59 25.35 17.59C25.27 17.59 25 17.44 25 17.44C25 17.44 24.805 17.76 24.7 17.775C24.6 17.795 24.33 17.73 24.33 17.73C24.33 17.73 24.07 17.73 24.06 17.695C24.05 17.655 24.07 17.58 24.07 17.58C24.07 17.58 23.695 17.88 23.615 17.86C23.53 17.845 23.25 17.49 23.25 17.49L23.2 17.675L22.67 17.655L22.205 17.355C22.205 17.355 21.945 17.785 21.935 17.775C21.925 17.77 21.48 17.88 21.48 17.88L21.45 17.795L21.15 17.62C21.15 17.62 21.385 17.295 21.385 17.285C21.385 17.275 21.275 17.235 21.275 17.235L21.105 17.375L20.76 17.6L20.415 17.44L20.565 17.16L20.585 16.96L20.855 16.545L24.165 13.33L25.795 16.34L25.55 17.25Z" fill="#6A4C2D" stroke="black" stroke-width="0.05"/>
<path d="M27.9001 17.4399L28.7651 17.4099L28.3951 17.2299L31.6801 17.1049L31.2151 16.9299L30.8051 16.3699L29.1051 16.2449C29.1051 16.2449 28.9751 16.1449 28.7701 16.1949C28.7601 16.0649 28.6001 15.8949 28.6001 15.8949L27.5501 15.8099L26.9001 16.2599L27.3401 17.3899L27.9001 17.4399Z" fill="white" stroke="black" stroke-width="0.05"/>
<path d="M24.55 7.79991L24.64 7.49991C24.64 7.49991 24.79 7.24991 24.79 7.12991C24.79 7.01991 24.905 6.88491 24.905 6.88491C24.905 6.88491 25.25 6.78491 25.325 6.99991C25.695 6.43491 26.135 6.96991 26.135 6.96991L26.255 6.82991L26.505 6.52991C26.505 6.52991 26.855 6.85491 26.855 6.90991C26.865 6.96991 26.92 6.92991 26.92 6.92991L27.3 6.89991C27.2876 6.97493 27.2944 7.05189 27.3197 7.12359C27.3451 7.19528 27.3882 7.25939 27.445 7.30991C27.58 7.38991 27.7 7.85991 27.7 7.85991L24.55 7.79991Z" fill="url(#paint0_linear_11930_67988)" stroke="black" stroke-width="0.05"/>
<path d="M27.9003 11.3049C27.9703 11.2649 28.1753 11.1999 28.1503 10.8949C28.1253 10.5949 27.8653 10.5549 27.7153 10.5649C27.5653 10.5749 27.4403 10.7049 27.4403 10.7049L26.9503 10.3949C26.9503 10.3949 27.1953 8.8599 27.4503 8.7649C27.7003 8.5899 27.7403 8.5149 27.7403 8.4749C27.7403 8.4299 27.6503 8.3299 27.6503 8.3299L26.0653 8.1449L24.5653 8.3199C24.5653 8.3199 24.4553 8.4999 24.4653 8.5699C24.4853 8.6399 24.4903 8.7149 24.7553 8.9199C25.0553 9.1499 25.2553 10.4599 25.2553 10.4599C25.2553 10.4599 24.8403 10.6699 24.8103 10.6399C24.7853 10.6149 24.6603 10.5899 24.5953 10.5999C24.5303 10.6099 24.3103 10.7249 24.3103 11.0099C24.3103 11.2999 24.5303 11.4649 24.5303 11.4649C24.5303 11.4649 25.9603 11.2999 26.1753 11.6949C26.3803 11.2199 27.7403 11.3849 27.9053 11.3049H27.9003Z" fill="#656263" stroke="black" stroke-width="0.05"/>
<path d="M29.4451 9.7099C29.4451 9.7099 29.46 9.5449 29.58 9.4649C29.7 9.3849 30.49 9.3449 30.68 9.4649C30.87 9.5849 30.94 10.1699 30.94 10.1699C30.94 10.1699 31.0601 10.3749 31.0701 10.5299C31.0751 10.6799 31.0951 10.7799 31.0951 10.7799C31.0951 10.7799 31.725 11.6049 31.735 12.3499C31.805 12.8549 31.79 14.2099 31.59 14.7249C31.5914 15.0976 31.4967 15.4644 31.315 15.7899C31.315 15.7899 31.3801 15.8999 31.3701 16.0199C31.36 16.1349 31.3 16.2499 31.3 16.2499L32.225 16.7049L31.885 16.5799L32.225 16.8649L31.84 16.6849L32.065 16.9149C32.06 16.9049 31.505 16.6599 31.505 16.6599L31.755 16.8949L31.33 16.6949C31.33 16.6949 31.58 16.9699 31.58 16.9549C31.4591 16.8961 31.3357 16.8427 31.21 16.7949L31.23 16.9299C31.23 16.9299 30.94 16.9149 30.94 16.6999C30.8521 16.6495 30.7727 16.5854 30.705 16.5099L30.0451 16.3999L29.3 14.1699L29.475 10.4099L29.525 10.2199L29.4451 9.7099Z" fill="black" stroke="black" stroke-width="0.05" stroke-linejoin="round"/>
<path d="M28.9503 21.7399C28.9503 21.7399 28.5653 20.9399 28.3753 20.9249C28.2053 20.5949 28.9753 17.9249 30.4603 17.7699C31.2753 17.8349 30.5253 18.7099 29.9903 18.4399C30.0726 18.6472 30.1855 18.841 30.3253 19.0149C30.3253 19.0149 29.2603 19.4749 28.9453 21.7399H28.9503ZM23.8353 21.8549C23.8353 21.8549 24.1503 20.9399 24.3403 20.9299C24.5353 20.9199 23.8353 17.8849 22.3103 17.8649C21.4903 17.9299 22.2453 18.8099 22.7853 18.5399C22.7013 18.7475 22.5867 18.9413 22.4453 19.1149C22.4453 19.1149 23.5203 19.5749 23.8353 21.8549Z" fill="#FFBB00" stroke="black" stroke-width="0.05"/>
<path d="M25.23 16.15C25.23 16.14 24.85 16.265 25.095 16.675C25.11 16.515 25.28 16.425 25.28 16.425C25.28 16.425 25.025 16.725 25.295 16.98C25.33 16.74 25.485 16.665 25.485 16.665C25.485 16.665 25.29 17.225 25.485 17.34C25.51 17.115 25.65 17.015 25.65 17.015C25.65 17.015 25.48 17.515 25.635 17.63C25.65 17.44 25.78 17.355 25.78 17.355C25.78 17.355 25.705 17.88 25.905 17.915C25.905 17.73 26.055 17.55 26.055 17.55C26.055 17.55 25.99 17.975 26.305 17.995C26.305 17.835 26.365 17.65 26.365 17.65C26.365 17.65 26.51 18.1 26.715 18.03V17.645C26.715 17.645 26.85 18.075 27.1 17.995C27.065 17.875 27.115 17.73 27.115 17.73C27.115 17.73 27.245 18 27.485 17.91C27.525 17.83 27.475 17.67 27.475 17.67C27.475 17.67 27.825 18.03 27.925 17.815C28.035 17.6 27.65 17.525 27.65 17.525H27.91C27.91 17.525 27.825 17.305 27.475 17.255C27.595 17.205 27.72 17.245 27.72 17.245C27.72 17.245 27.645 16.97 27.285 16.94C27.425 16.89 27.585 16.925 27.585 16.925C27.585 16.925 27.535 16.665 27.135 16.59C27.2 16.52 27.37 16.54 27.37 16.54C27.37 16.54 27.21 16.295 27.03 16.31C26.85 16.325 25.23 16.145 25.23 16.15Z" fill="#00713D" stroke="black" stroke-width="0.05"/>
<path d="M26.8301 17.475C26.8301 17.475 26.9801 17.545 26.9701 17.605M26.9151 17.36C26.9151 17.36 27.1001 17.49 27.0951 17.585M27.0801 17.295C27.0801 17.295 27.2251 17.385 27.2301 17.53M27.3251 17.35C27.3251 17.35 27.3951 17.51 27.3751 17.54M27.4701 17.435C27.4801 17.56 27.4601 17.575 27.4601 17.575M25.6601 16.65C25.6601 16.65 25.8351 16.76 25.8201 16.915M25.6501 16.78C25.6501 16.78 25.7301 16.86 25.7151 16.91M25.8651 16.65C25.8651 16.65 25.9801 16.81 25.9401 16.92M26.0601 16.755C26.0601 16.755 26.1101 16.855 26.0601 16.905M26.1501 16.8C26.1501 16.8 26.2101 16.9 26.1551 16.935M26.0801 17.13C26.0801 17.13 26.2401 17.165 26.2651 17.285M26.1751 17.02C26.1751 17.02 26.3451 17.03 26.3651 17.21M26.4001 16.955C26.4001 16.955 26.5151 17.155 26.4951 17.215M26.6151 16.975C26.6151 16.975 26.6601 17.16 26.6251 17.225M26.7551 17.05V17.265M26.5451 16.755C26.5451 16.755 26.6451 16.795 26.6451 16.9M26.6401 16.66C26.6401 16.66 26.7751 16.735 26.7651 16.885M26.8001 16.6C26.8001 16.6 26.9151 16.735 26.8751 16.89M27.0001 16.63C27.0001 16.63 26.9601 16.805 26.9801 16.875M27.1301 16.75C27.1301 16.75 27.0551 16.805 27.0951 16.88M26.4601 17.42C26.4601 17.42 26.4851 17.55 26.4601 17.57M26.2951 17.34C26.2951 17.34 26.3751 17.49 26.3451 17.56M26.1151 17.335C26.1151 17.335 26.2101 17.445 26.2051 17.535M25.9651 17.355C25.9651 17.355 26.0551 17.44 26.0451 17.49M25.8901 17.485C25.8901 17.485 25.9751 17.575 25.9701 17.59" stroke="#3EC26D" stroke-width="0.05" stroke-linecap="round"/>
<path d="M24.0649 11.465L25.2799 11.44C25.2799 11.44 26.0799 11.44 26.1649 11.7C26.3149 11.355 27.0149 11.375 27.0149 11.375L28.2649 11.335L28.2899 14.365C28.0399 15.545 27.1899 16.375 26.2549 16.73C25.7305 16.5515 25.2632 16.2364 24.9011 15.8172C24.539 15.398 24.2952 14.8898 24.1949 14.345L24.0649 11.465Z" fill="white" stroke="black" stroke-width="0.05"/>
<path d="M24.5001 11.45L26.2651 16.16L27.8651 11.35C27.3651 11.38 26.3051 11.27 26.1701 11.725C25.9701 11.32 24.8501 11.48 24.4951 11.45H24.5001Z" fill="#006B00" stroke="black" stroke-width="0.05"/>
<path d="M25.7 14C25.77 14.035 25.765 12.725 25.855 12.685L25.925 12.41C25.85 12.275 25.505 12.28 25.375 12.4L25.46 12.64C25.635 12.92 25.6 14.03 25.7 14Z" fill="#FFC900" stroke="#006B00" stroke-width="0.025" stroke-linecap="round"/>
<path d="M25.2252 3.85C25.2252 3.85 25.3502 3.705 25.3552 3.675C25.3652 3.64 25.9252 3.615 26.2552 2.99C26.4452 2.665 26.2552 2.855 26.2552 2.855L26.2502 2.7C26.2502 2.7 26.4802 2.48 26.4002 2.36C26.3102 2.24 26.3402 2.51 26.2002 2.51C26.0652 2.505 26.1402 2.21 26.1402 2.21C26.1402 2.21 26.1302 2.18 26.0902 2.16C26.0352 2.17 26.0502 2.27 26.0002 2.28C25.9502 2.295 25.9002 2.045 25.9002 2.045C25.9002 2.045 25.8152 1.93 25.7452 2.285C25.7852 2.67 26.0252 2.595 26.0252 2.845C26.0252 3.095 25.8102 3.285 25.7502 3.295C25.6852 3.295 25.7102 3.08 25.7102 3.08C25.7102 3.08 25.6752 2.98 25.6552 2.98C25.6302 2.98 25.7802 2.955 25.7552 2.675C25.7052 2.335 25.6652 2.755 25.5752 2.735C25.4802 2.72 25.5502 2.425 25.5852 2.385C25.6202 2.355 25.5452 2.215 25.3452 2.575C25.3302 2.755 25.3052 2.53 25.2652 2.545C25.2002 2.685 25.2102 2.785 25.3052 2.915C25.4502 3.05 25.5402 3.18 25.5352 3.245C25.5302 3.315 25.4552 3.47 25.3502 3.47C25.2502 3.47 25.3552 3.28 25.3502 3.22C25.3502 3.155 25.1752 2.93 25.1752 2.93C25.1752 2.93 25.0552 2.735 25.0702 2.73C25.0802 2.725 25.0552 2.695 25.0002 2.895C24.9452 3.095 24.8752 2.765 24.8752 2.765C24.8752 2.765 24.7952 3.01 24.9652 3.155C24.8352 3.14 24.8252 3.19 24.8252 3.19C24.8252 3.26 25.0002 3.29 25.0252 3.405C25.0452 3.525 24.8402 3.595 24.8402 3.595C24.8402 3.595 24.9252 3.71 25.1652 3.48C25.1702 3.63 25.0752 3.73 25.0752 3.73C25.1552 3.765 25.2152 3.76 25.2252 3.855V3.85Z" fill="#CDAD56" stroke="black" stroke-width="0.05" stroke-linejoin="round"/>
<path d="M24.4503 3.84991C24.4503 3.84991 24.3403 3.68991 24.3353 3.65991C24.3353 3.62991 23.8153 3.69991 23.5703 3.06991C23.4103 2.76991 23.5703 2.94491 23.5703 2.94491L23.5803 2.79991C23.5803 2.79991 23.4103 2.59491 23.4803 2.48491C23.5553 2.37491 23.5303 2.62491 23.6203 2.62491C23.7353 2.61991 23.6703 2.35491 23.6703 2.35491C23.6703 2.35491 23.6803 2.32491 23.7203 2.30991C23.7653 2.31491 23.7853 2.46991 23.8253 2.47991C23.8703 2.48991 23.9603 2.29991 23.9903 2.25991C24.0303 2.25491 24.0253 2.09991 24.0903 2.42491C24.0553 2.76991 23.7703 2.69991 23.7703 2.92491C23.7703 3.15491 23.9503 3.32991 24.0053 3.33491C24.0553 3.34491 24.0403 3.14491 24.0403 3.14491C24.0403 3.14491 24.0703 3.05491 24.0903 3.05491C24.1053 3.05491 23.9203 3.08991 23.9403 2.82991C23.9803 2.58991 24.0753 2.84491 24.1553 2.82991C24.2303 2.81491 24.1453 2.57991 24.1653 2.53991C24.1703 2.49991 24.2853 2.34491 24.3303 2.68991C24.3453 2.85491 24.4303 2.55491 24.4653 2.56491C24.5253 2.69491 24.4403 2.86491 24.3603 2.98491C24.2403 3.10491 24.1853 3.23491 24.1903 3.29491C24.1903 3.35991 24.2203 3.43491 24.3103 3.43491C24.3953 3.43491 24.3353 3.32491 24.3403 3.26991C24.3453 3.21491 24.4903 3.02991 24.4903 3.02991C24.5203 2.97991 24.4953 2.89991 24.5253 2.85991C24.5753 2.85991 24.5953 2.79491 24.6403 2.97491C24.6903 3.15491 24.7453 2.85491 24.7453 2.85491C24.7453 2.85491 24.8153 3.07991 24.6703 3.21491C24.7803 3.19991 24.7903 3.24491 24.7903 3.24491C24.7903 3.30491 24.7403 3.32991 24.7203 3.44491C24.7152 3.47481 24.7176 3.5055 24.7272 3.53427C24.7368 3.56305 24.7533 3.58902 24.7753 3.60991C24.7753 3.60991 24.7053 3.71991 24.5003 3.50991C24.4998 3.59197 24.5281 3.6716 24.5803 3.73491C24.5103 3.76991 24.4603 3.76491 24.4503 3.84991Z" fill="#CDAD56" stroke="black" stroke-width="0.045" stroke-linejoin="round"/>
<path d="M27.5649 12.1499C27.4649 12.0599 27.4499 12.1399 27.3949 12.1199C27.3699 12.1099 27.3499 12.0849 27.3299 12.0649C27.3099 12.0449 27.2849 12.0349 27.2599 12.0249L27.2299 12.1099C27.2199 12.1399 27.2599 12.1849 27.2599 12.2299C27.2499 12.2949 27.2249 12.3449 27.1449 12.3649C27.1699 12.3199 27.1799 12.3199 27.1749 12.2649C27.1749 12.2399 27.0949 12.1899 27.1049 12.1649C27.1149 12.1199 27.1399 12.0749 27.1249 12.0299C27.0899 12.0549 27.0499 12.0399 27.0149 12.0549C26.9899 12.0699 26.9849 12.1199 26.9499 12.1399C26.9099 12.1599 26.8249 12.1499 26.7499 12.1099C26.7949 12.0749 26.8299 12.0999 26.8749 12.0599C26.8949 12.0499 26.8949 11.9749 26.9199 11.9599L27.0149 11.9099C26.9949 11.8849 26.9949 11.8499 26.9749 11.8299C26.9549 11.8049 26.8699 11.8099 26.8499 11.7899C26.8099 11.7399 26.8149 11.6849 26.7799 11.6399C26.8799 11.6749 26.8649 11.7249 26.8899 11.7199C26.9399 11.6949 26.9899 11.6949 27.0149 11.7049C27.0399 11.7149 27.0849 11.7799 27.1149 11.7899L27.1449 11.6949C27.1549 11.6649 27.1049 11.6199 27.1099 11.5899C27.1299 11.5349 27.1799 11.4849 27.1999 11.4249L27.2199 11.5799C27.2249 11.6099 27.2799 11.6249 27.2799 11.6499C27.2849 11.6799 27.2549 11.7399 27.2549 11.7699C27.2849 11.7649 27.3299 11.7699 27.3549 11.7599C27.3899 11.7549 27.4049 11.6849 27.4349 11.6799C27.4949 11.6699 27.5349 11.6749 27.5999 11.6799C27.5499 11.7249 27.5199 11.7199 27.4949 11.7599C27.4699 11.7749 27.4999 11.8299 27.4399 11.8699C27.4149 11.8849 27.3499 11.8699 27.3299 11.8849L27.3899 11.9499C27.4099 11.9749 27.4949 11.9849 27.5149 12.0099C27.5549 12.0499 27.5749 12.1099 27.5649 12.1549V12.1499ZM24.8499 12.1999C24.9499 12.1049 24.9649 12.1899 25.0199 12.1649C25.0449 12.1549 25.0649 12.1349 25.0849 12.1149C25.1049 12.0899 25.1299 12.0849 25.1549 12.0699L25.1849 12.1599C25.1949 12.1849 25.1549 12.2349 25.1549 12.2749C25.1649 12.3399 25.1899 12.3899 25.2699 12.4149C25.2449 12.3649 25.2349 12.3649 25.2399 12.3149C25.2399 12.2849 25.3199 12.2349 25.3099 12.2099C25.2999 12.1699 25.2749 12.1199 25.2899 12.0799C25.3249 12.0999 25.3649 12.0899 25.3999 12.0999C25.4249 12.1149 25.4299 12.1649 25.4649 12.1849C25.5049 12.2049 25.5899 12.1949 25.6649 12.1549C25.6199 12.1199 25.5849 12.1449 25.5399 12.1099C25.5199 12.0949 25.5199 12.0199 25.4949 12.0099C25.4749 11.9899 25.4199 11.9699 25.3999 11.9549C25.4199 11.9299 25.4199 11.8949 25.4399 11.8749C25.4599 11.8499 25.5449 11.8549 25.5649 11.8349C25.6049 11.7849 25.5999 11.7299 25.6349 11.6849C25.5349 11.7199 25.5499 11.7699 25.5249 11.7649C25.4749 11.7449 25.4249 11.7399 25.3999 11.7499C25.3749 11.7599 25.3299 11.8249 25.2999 11.8349L25.2699 11.7399C25.2599 11.7149 25.3149 11.6649 25.3049 11.6399C25.2849 11.5799 25.2349 11.5299 25.2149 11.4699L25.1949 11.6299C25.1899 11.6549 25.1349 11.6699 25.1349 11.6949C25.1299 11.7249 25.1599 11.7899 25.1599 11.8149C25.1299 11.8099 25.0849 11.8149 25.0599 11.8049C25.0249 11.8049 25.0099 11.7349 24.9799 11.7249C24.9199 11.7149 24.8799 11.7199 24.8149 11.7299C24.8649 11.7699 24.8949 11.7699 24.9249 11.8049C24.9449 11.8249 24.9149 11.8799 24.9749 11.9149C24.9999 11.9299 25.0649 11.9149 25.0849 11.9299L25.0249 11.9999C25.0049 12.0199 24.9199 12.0299 24.8999 12.0499C24.8599 12.0999 24.8399 12.1499 24.8499 12.1999Z" fill="#FFC900"/>
<path d="M27.4701 12.46C27.3751 12.535 26.7551 12.69 26.7501 13.225C26.7451 13.765 26.8601 13.885 26.7451 13.9C26.5201 13.9 26.4901 13.3 26.4951 13.035C26.5001 12.77 26.5101 12.81 26.5101 12.81C26.5101 12.81 26.6601 12.85 26.6501 12.98C26.6351 13.11 26.8001 12.66 26.7451 12.54C26.8451 12.64 26.9801 12.6 26.9801 12.59C26.9801 12.59 26.9051 12.505 26.8701 12.44C26.8401 12.385 26.9851 12.48 26.9851 12.48C26.9851 12.48 26.9951 12.38 26.8651 12.38C26.7001 12.38 26.8901 12.33 26.8901 12.33C26.8901 12.33 26.9901 12.415 27.0501 12.32C27.0012 12.2713 26.9435 12.2323 26.8801 12.205C26.8801 12.205 26.7901 12.035 26.6701 12.005C26.5301 11.97 26.5451 12.065 26.3851 12.05C26.3551 12.11 26.3551 12.12 26.4201 12.14C26.3101 12.215 26.3701 12.36 26.3701 12.36C26.3701 12.36 26.5401 12.29 26.5351 12.41C26.5301 12.535 26.4351 12.51 26.3701 12.435C26.3101 12.405 26.2901 12.47 26.2901 12.47L26.3801 12.57C26.3801 12.57 26.2101 12.56 26.1651 12.675C26.2601 12.67 26.3151 12.695 26.3151 12.695C26.3151 12.695 26.1151 12.785 26.0951 12.83C26.0751 12.88 26.0701 12.78 26.0601 12.78L25.8701 12.71L25.8051 13.005C25.8051 13.005 25.9351 13.13 26.0051 13.09C26.0751 13.05 26.2051 12.925 26.2801 12.96C26.0551 13.13 25.8301 13.375 25.7101 13.41C25.6801 13.38 25.5701 13.275 25.5251 13.33C25.4801 13.38 25.5151 13.45 25.5751 13.445C25.6251 13.435 25.3851 13.495 25.4351 13.6C25.4851 13.7 25.4851 13.695 25.5251 13.67C25.5751 13.64 25.4901 13.635 25.6551 13.585C25.8201 13.535 25.8151 13.49 25.8151 13.49C25.8151 13.49 25.7801 13.565 25.6901 13.59C25.6051 13.605 25.5351 13.605 25.5501 13.635C25.5701 13.66 25.6101 13.71 25.6001 13.735C25.5851 13.765 25.7801 13.595 25.8351 13.73C25.9651 13.72 26.0551 13.56 25.9901 13.465C26.0001 13.565 26.0601 13.6 26.0251 13.65C25.9851 13.695 26.3251 13.49 26.1601 13.37C26.2001 13.47 26.2101 13.55 26.2101 13.55C26.2101 13.55 26.2851 13.55 26.3051 13.52C26.3251 13.49 26.2651 13.595 26.2901 13.615C26.3151 13.635 26.4401 13.75 26.3901 13.83C26.3551 13.78 26.3501 13.71 26.3101 13.715C26.2701 13.72 26.1101 13.84 26.0151 13.845C25.9201 13.85 26.1301 14.195 26.1301 14.195C26.1301 14.195 25.9851 14.18 25.9651 14.195C25.9451 14.205 25.8501 14.07 25.8351 14.15C25.8001 14.25 25.8651 14.21 25.8651 14.21C25.8651 14.21 25.7801 14.17 25.7351 14.22C25.6901 14.27 25.6501 14.315 25.6801 14.335C25.7101 14.355 25.8501 14.355 25.8701 14.35C25.8901 14.34 25.7101 14.36 25.7001 14.38C25.6851 14.4 25.6601 14.48 25.7001 14.505C25.7351 14.53 25.8351 14.49 25.8401 14.47C25.8451 14.45 25.8501 14.545 25.8501 14.545C25.8501 14.545 26.0151 14.56 26.0151 14.39C26.0151 14.22 26.0301 14.51 26.0301 14.51C26.0301 14.51 26.1951 14.54 26.2001 14.37C26.2101 14.2 26.2201 14.485 26.2201 14.485C26.2201 14.485 26.3301 14.45 26.3301 14.425C26.3301 14.395 26.3251 14.76 26.2451 14.865C26.1251 14.785 26.0451 14.915 26.0451 14.915C26.0451 14.915 26.0551 15.115 26.0451 15.165C26.0301 15.215 26.1251 15.135 26.1301 15.115C26.1401 15.095 26.2551 15.04 26.2601 15.03L26.3001 14.945C26.3001 14.945 26.2701 15.045 26.2301 15.055C26.1801 15.07 26.1401 15.115 26.1601 15.155C26.1751 15.2 26.2451 15.225 26.2701 15.265C26.3001 15.305 26.3851 15.03 26.3851 15.03L26.3951 15.09C26.3951 15.09 26.5101 15.06 26.5201 15.005C26.5351 14.955 26.4001 14.905 26.5101 14.815C26.6151 14.73 26.5101 14.9 26.5101 14.9C26.5101 14.9 26.5451 15.03 26.5701 15.03C26.6001 15.03 26.6601 14.78 26.6001 14.72C26.5351 14.66 26.6951 14.795 26.6951 14.795C26.6951 14.795 26.7851 14.545 26.6851 14.51L26.5451 14.46C26.5451 14.46 26.5951 14.395 26.5701 14.39C26.5451 14.38 26.7051 14.54 26.7301 14.495C26.7551 14.455 26.7951 14.335 26.6101 14.265C26.4251 14.2 26.6051 14.01 26.6051 14.01C26.6051 14.01 26.7201 14.145 26.8051 14.07C26.8851 13.995 26.7951 13.995 26.7951 13.995C26.7951 13.995 27.0301 13.845 27.0401 13.77C26.9901 13.765 26.9151 13.775 26.9151 13.775C26.9151 13.775 27.0501 13.69 27.0151 13.545C26.9651 13.62 26.8951 13.62 26.8951 13.62C26.8951 13.62 27.0101 13.505 26.9951 13.395C26.9251 13.45 26.9301 13.495 26.8851 13.48C26.8401 13.465 26.7651 13.035 26.9401 13.01C27.1201 12.98 27.0251 13.22 27.0301 13.22C27.0401 13.22 27.3001 13.11 27.0301 12.935C27.0951 12.915 27.2301 13.035 27.2301 13.035C27.2301 13.035 27.1701 12.735 26.8801 12.92C26.9551 12.845 27.0001 12.8 27.0551 12.81C27.1151 12.825 27.3201 12.805 27.3201 12.745C27.2701 12.705 27.1601 12.765 27.1001 12.745C27.0451 12.725 27.5101 12.69 27.4701 12.46Z" fill="#FFC900" stroke="#006B00" stroke-width="0.025" stroke-linecap="round" stroke-linejoin="round"/>
<path d="M25.4502 12.6349C25.4502 12.6349 25.7052 12.4899 25.8302 12.6699M25.9352 12.9399C25.9302 12.9399 25.8452 13.0299 25.8252 13.0299M26.1052 13.2249C26.1052 13.2249 26.3452 13.2449 26.4952 12.9949" stroke="#006B00" stroke-width="0.025" stroke-linecap="round"/>
<path d="M26.3601 13.1499C26.3601 13.1499 26.3801 13.2849 26.4201 13.2849C26.4551 13.2849 26.3551 13.3199 26.3201 13.2949C26.3601 13.3549 26.3851 13.4649 26.3201 13.5049" stroke="#006B00" stroke-width="0.025" stroke-linecap="round"/>
<path d="M26.2402 14.865C26.2402 14.865 26.1602 14.96 26.0552 14.965L26.2402 14.865Z" fill="#E80000"/>
<path d="M26.2402 14.865C26.2402 14.865 26.1602 14.96 26.0552 14.965" stroke="#006B00" stroke-width="0.025" stroke-linecap="round"/>
<path d="M26.3353 14.43C26.3353 14.43 26.2852 14.155 26.3152 14.09C26.3352 14 26.4153 13.965 26.4853 13.85" stroke="#006B00" stroke-width="0.025" stroke-linecap="round"/>
<path d="M26.3098 14.23C26.3098 14.23 26.2448 14.395 25.9648 14.34M26.3848 13.825C26.3848 13.825 26.4048 14.04 26.1498 13.96M26.0748 12.85C26.0748 12.85 25.9748 12.94 26.0098 13.07" stroke="#006B00" stroke-width="0.025" stroke-linecap="round"/>
<path d="M26.4551 12.605C26.4551 12.605 26.5901 12.555 26.6151 12.525C26.6506 12.4906 26.6794 12.4499 26.7001 12.405C26.7101 12.365 26.6101 12.305 26.6601 12.215C26.6951 12.17 26.7401 12.165 26.8101 12.215C26.8901 12.265 26.7451 12.065 26.6701 12.055C26.5901 12.05 26.5401 12.11 26.5201 12.095C26.5001 12.085 26.5251 12.15 26.4951 12.15C26.4651 12.15 26.5601 12.205 26.5551 12.24C26.5451 12.275 26.6551 12.39 26.6501 12.415C26.6401 12.445 26.4901 12.6 26.4551 12.605Z" fill="#006B00"/>
<path d="M26.55 12.16C26.61 12.145 26.62 12.16 26.61 12.21C26.5878 12.1982 26.5689 12.181 26.555 12.16H26.55Z" fill="#FFC900" stroke="#FFC900" stroke-width="0.025" stroke-linecap="round" stroke-linejoin="round"/>
<path d="M26.1499 15.1849C26.1499 15.1849 26.1249 15.3299 26.1749 15.3399C26.1749 15.2899 26.1899 15.2499 26.1999 15.2349L26.1499 15.1849ZM26.0249 15.0099C25.9749 15.0049 25.8999 15.0499 25.9249 15.0999C25.9599 15.0649 25.9949 15.0999 26.0249 15.0649V15.0149V15.0099ZM26.0249 14.9099C26.0249 14.9099 25.9499 14.8999 25.9399 14.9549C25.9899 14.9449 26.0099 14.9399 26.0249 14.9549V14.9099Z" fill="#E80000" stroke="#006B00" stroke-width="0.025" stroke-linejoin="round"/>
<path d="M25.7052 14.1099C25.7052 14.1099 25.7552 14.1249 25.7652 14.1749C25.8002 14.1549 25.8152 14.0449 25.7052 14.1099ZM25.5902 14.2299C25.5902 14.2299 25.6902 14.1699 25.6952 14.2299C25.6752 14.2449 25.6702 14.2599 25.6552 14.2649C25.6402 14.2649 25.6152 14.2249 25.5902 14.2299ZM25.5852 14.4249C25.5852 14.4249 25.6452 14.3749 25.6652 14.4049C25.6902 14.4449 25.6452 14.4399 25.6452 14.4399L25.5852 14.4249ZM25.5002 13.3299C25.5002 13.3299 25.4252 13.2999 25.3952 13.3549C25.4452 13.3649 25.4602 13.3799 25.4852 13.3999C25.4752 13.3749 25.4652 13.3399 25.5002 13.3299ZM25.3552 13.7449C25.3552 13.7449 25.3552 13.6499 25.4052 13.6149C25.4252 13.6299 25.4302 13.6499 25.4452 13.6749C25.4152 13.6849 25.3752 13.6849 25.3552 13.7449ZM25.5502 13.6799C25.5502 13.6799 25.4702 13.7199 25.5002 13.7649C25.5252 13.7299 25.5552 13.7399 25.5552 13.7399V13.6799H25.5502Z" fill="#E80000" stroke="#006B00" stroke-width="0.03" stroke-linejoin="round"/>
<path d="M25.435 12.79C25.405 12.825 25.47 12.9 25.54 12.89C25.56 12.81 25.455 12.765 25.44 12.79H25.435Z" fill="#FFC900" stroke="#006B00" stroke-width="0.03" stroke-linejoin="round"/>
<path d="M25.5103 12.7299C25.5103 12.7299 25.5253 12.7949 25.5853 12.7799C25.5776 12.7443 25.5603 12.7115 25.5353 12.6849C25.5353 12.6999 25.5403 12.7249 25.5103 12.7299ZM25.5503 12.9149C25.5503 12.9149 25.5853 12.9549 25.6503 12.8799C25.6203 12.8849 25.5703 12.8599 25.5703 12.8599C25.5703 12.8599 25.5703 12.9099 25.5503 12.9149Z" fill="#E80000" stroke="#006B00" stroke-width="0.03" stroke-linejoin="round"/>
<path d="M25.4303 12.64C25.4053 12.675 25.4453 12.725 25.5153 12.715C25.5303 12.63 25.4503 12.615 25.4303 12.64Z" fill="#FFC900" stroke="#006B00" stroke-width="0.03" stroke-linejoin="round"/>
<path d="M25.4602 12.315C25.4602 12.315 25.7352 12.235 25.8802 12.355C26.0302 12.47 26.0302 12.365 26.0302 12.365C26.0302 12.365 26.2402 12.445 26.3002 12.425C26.3602 12.41 26.2552 12.435 26.3402 12.38C26.4252 12.33 26.1702 12.395 26.1502 12.285C26.1102 12.22 26.1502 12.135 26.0652 12.165C26.0052 12.085 26.1052 12.03 26.0802 11.945C26.0202 11.995 25.9852 11.93 25.9352 12.045C25.8202 12.02 25.9202 11.855 25.7902 11.84C25.7902 11.955 25.6952 11.96 25.6902 12.03C25.6352 12.07 25.3902 12.215 25.4602 12.315Z" fill="url(#paint1_linear_11930_67988)"/>
<path d="M22.2998 21.25C22.4798 21.2 23.4448 21.46 23.8148 21.86C23.7348 21.145 23.5398 20.605 23.5398 20.605C23.5398 20.605 22.9648 20.44 22.8898 20.52C22.6658 20.738 22.4678 20.9813 22.2998 21.245V21.25ZM22.0048 17.965C21.9398 17.975 21.8698 18.02 21.8048 18.135C21.7248 18.325 21.6698 18.81 21.5548 18.925C21.4448 19.035 21.3398 19.045 21.3398 19.15C21.3398 19.25 21.3548 19.485 21.6548 19.575C21.9598 19.59 22.4448 19.09 22.4448 19.09C22.4448 19.09 22.6948 18.82 22.7948 18.53C22.2098 18.73 21.7948 18.19 22.0048 17.965ZM30.4848 21.135C29.9271 21.1713 29.395 21.3831 28.9648 21.74C29.0448 21.035 29.2398 20.49 29.2398 20.49C29.3048 20.475 29.8048 20.33 29.8798 20.41C29.9948 20.53 30.3648 20.895 30.4848 21.135ZM30.7598 17.87C30.8248 17.88 30.8498 17.97 30.9098 18.08C30.9848 18.275 31.0598 18.55 31.1748 18.66C31.2898 18.775 31.3898 18.94 31.3898 19.04C31.3898 19.14 31.3648 19.28 31.0648 19.37C30.7648 19.38 30.3248 18.99 30.3248 18.99C30.3248 18.99 30.0748 18.725 29.9748 18.43C30.5598 18.63 30.9348 18.115 30.7598 17.87Z" fill="#C01500" stroke="black" stroke-width="0.05"/>
<path d="M21.67 20.625C21.67 20.625 22.275 21.045 22.29 21.235C23.925 18.81 28.095 18.055 30.475 21.065C30.79 20.65 31.115 20.515 31.115 20.515C28.615 17.245 23.63 17.65 21.665 20.625H21.67Z" fill="#FFBB00" stroke="black" stroke-width="0.05"/>
<path d="M27.8703 11.35L28.1103 11.345L27.6853 11.885L28.1953 12.48L27.1903 13.745L28.1403 14.885C28.0434 15.1353 27.9121 15.3708 27.7503 15.585L27.2053 14.985L28.2003 13.75L27.3903 12.83L27.8703 11.35ZM24.4653 11.46H24.2153L24.6903 11.98L24.1853 12.61L25.2353 13.75L24.3653 14.915C24.4653 15.165 24.6153 15.455 24.7803 15.665L25.2953 15.01L24.2353 13.83L25.0103 12.845L24.4653 11.46Z" fill="#1E5AA6" stroke="black" stroke-width="0.05"/>
<path d="M25.6504 14.52L25.2704 15.02L26.6104 16.57C26.8504 16.45 27.0354 16.315 27.2354 16.15L26.5354 15.345L26.8204 14.51L27.2304 14.98L25.9554 16.61C25.7404 16.52 25.5054 16.38 25.2904 16.2L25.9654 15.345L25.6504 14.52ZM25.2354 13.745L25.4754 14.05L25.3204 13.635L25.2354 13.745ZM26.9804 14.015L27.1804 13.755L27.1054 13.655L26.9804 14.015Z" fill="#1E5AA6" stroke="black" stroke-width="0.05"/>
<path d="M29.8 9.74993C29.8 9.74993 30.04 9.54993 30.205 9.54993" stroke="#FFF700" stroke-width="0.05" stroke-linecap="round"/>
<path d="M29.8352 9.72498C29.8402 9.71998 31.2402 9.52498 31.2852 9.47498M29.8402 9.73498L31.4102 9.59998M29.8352 9.73998C29.8352 9.73998 31.5002 9.66498 31.6002 9.74998" stroke="#FFF700" stroke-width="0.05" stroke-linecap="round"/>
<path d="M29.8301 9.73499C29.8301 9.73499 31.4601 9.74999 31.4901 9.78499M29.8351 9.73499L31.4051 9.86499M29.8201 9.74999C29.8201 9.74999 31.4201 9.88999 31.5701 10.09" stroke="#FFF700" stroke-width="0.05" stroke-linecap="round"/>
<path d="M31.6549 10.375C31.6549 10.37 31.1149 9.72998 29.8149 9.73998" stroke="#FFF700" stroke-width="0.05" stroke-linecap="round"/>
<path d="M29.8201 9.75C29.8201 9.75 30.7201 9.815 31.0051 10.13" stroke="#FFF700" stroke-width="0.05" stroke-linecap="round"/>
<path d="M29.8352 9.73997C29.8352 9.73997 30.4202 9.62997 31.0302 10.365" stroke="#FFF700" stroke-width="0.05" stroke-linecap="round"/>
<path d="M29.4703 10.4099C29.4703 10.4099 30.2753 10.4399 30.2753 10.5199C30.2753 10.5999 29.6753 10.7499 29.6653 11.0799C29.6603 11.4149 30.1253 11.4399 30.1603 11.8599C30.1903 12.2799 29.7953 12.3399 29.7103 12.4549C29.6353 12.5049 29.4453 13.1049 29.4703 13.4549C29.4953 13.7999 29.5953 14.9799 29.7803 15.2199C29.9203 15.3299 30.1303 15.6849 30.3653 15.5699C30.5953 15.4649 30.4353 15.0599 30.4153 14.9499C30.3903 14.8399 30.5053 14.6549 30.5053 14.4899C30.5053 14.3199 30.4203 14.1899 30.4303 14.1499C30.4353 14.1099 31.0703 14.2999 31.0303 14.9249C30.9903 15.5499 30.7353 15.3599 30.7353 15.3599C30.7353 15.3599 30.8153 16.1299 30.6203 16.2299C30.2603 16.4199 30.0003 16.1899 30.0003 16.1899L30.0353 16.3499L29.7603 16.2099C29.7603 16.2099 29.4103 15.7099 29.3353 15.4849C29.233 15.017 29.1843 14.5389 29.1903 14.0599C29.2253 13.8449 29.2453 12.5949 29.2303 12.5299C29.2153 12.4699 29.1503 11.4249 29.1903 11.2649C29.2303 11.1049 29.4753 10.4099 29.4703 10.4099Z" fill="url(#paint2_linear_11930_67988)" stroke="black" stroke-width="0.05"/>
<path d="M28.6 10.2C28.6 10.2 29.16 9.65498 29.485 9.71998C29.65 9.71998 29.495 9.83998 29.495 9.83998C29.495 9.83998 29.78 9.85998 29.82 9.98998C29.825 10.04 29.685 10.06 29.685 10.06C29.685 10.06 29.8 10.085 29.81 10.185C29.82 10.29 28.61 10.21 28.595 10.205L28.6 10.2Z" fill="#FF7000" stroke="black" stroke-width="0.05"/>
<path d="M28.6301 10.18C28.6301 10.18 29.2301 10.1 29.4851 9.84497" stroke="black" stroke-width="0.05"/>
<path d="M29.24 10.015C29.24 10.015 29.685 9.99497 29.685 10.065" stroke="black" stroke-width="0.05"/>
<path d="M30.8149 16.495C30.8149 16.495 31.1949 16.405 31.2999 16.27C31.3599 16.22 31.6949 16.77 30.8149 16.495Z" fill="white" stroke="black" stroke-width="0.05" stroke-linejoin="round"/>
<path d="M30.7151 13.3499C30.7151 13.3499 30.7651 13.6399 30.6251 13.8399C30.5551 13.9199 30.3401 14.0549 30.3401 14.1499C30.3401 14.2449 30.4201 14.3699 30.4051 14.4799C30.3901 14.5899 30.2701 14.7049 30.2751 14.7999C30.2751 14.8949 30.4101 15.3999 30.3951 15.4099M30.0151 12.3999C30.0151 12.3999 29.7151 12.4999 29.6501 12.7999" stroke="white" stroke-width="0.05" stroke-linecap="round"/>
<path d="M29.8899 10.015C29.8899 10.015 29.9899 10.3 30.3249 10.03C30.1099 9.73495 29.8899 10.02 29.8899 10.015Z" fill="#C75B00" stroke="black" stroke-width="0.05"/>
<path d="M30.1349 9.99998C30.1349 10.015 30.1199 10.03 30.0999 10.03C30.0799 10.03 30.0649 10.015 30.0649 9.99998C30.0649 9.98498 30.0799 9.97498 30.0999 9.97498C30.1199 9.97498 30.1349 9.98498 30.1349 9.99998Z" fill="black"/>
<path d="M27.17 9.34992C27.17 9.34992 27.8 10.0349 28.205 10.0249C28.28 10.2249 28.02 10.4149 27.92 10.4999C27.71 10.4349 27.52 10.5149 27.04 9.91992C27.07 9.53992 27.175 9.36992 27.17 9.34992ZM28.02 7.75992C28.105 7.50992 28.27 7.30992 28.41 7.28492C28.37 7.09492 28.705 6.23992 29.675 5.91492C29.735 6.34992 29.26 6.78492 29.26 6.78492C29.26 6.78492 30.695 6.53492 30.985 6.17492C30.955 6.33492 30.665 7.35492 29.135 7.34492C29.715 7.89492 28.95 8.33492 28.625 8.19992C29.225 7.73992 28.45 7.46492 28.025 7.75992H28.02Z" fill="white" stroke="black" stroke-width="0.05"/>
<path d="M28.5103 7.40494C28.8003 7.21994 28.9053 7.21994 29.1453 7.25494L28.9703 7.28494C28.9703 7.28494 28.9553 7.30994 29.0603 7.40494C28.9403 7.37494 28.8403 7.30494 28.5103 7.40494Z" fill="#CCCCCD" stroke="#CCCCCC" stroke-width="0.05"/>
<path d="M28.4001 7.2849C28.4001 7.2849 28.9701 6.9849 29.2901 6.7749" stroke="black" stroke-width="0.05"/>
<path d="M27.9101 10.5C27.9101 10.5 28.6951 10.715 28.7851 9.58995C28.6151 9.09995 28.3801 8.03995 28.7401 7.73995C28.4101 7.50995 28.0401 7.74995 28.0401 7.74995C28.0201 7.79995 27.7251 8.22495 28.1251 8.96495C27.1751 8.71495 27.5601 9.61495 27.5601 9.61495C27.6001 9.46495 28.1051 9.33495 28.2301 10.055C28.2801 10.235 27.8901 10.505 27.9101 10.505V10.5Z" fill="#0000FF" stroke="black" stroke-width="0.05"/>
<path d="M28.795 9.59998C28.795 9.59998 29.625 9.14998 29.605 8.09998C28.895 8.11998 28.645 9.02998 28.645 9.02998L28.795 9.59998Z" fill="#0000FF" stroke="black" stroke-width="0.05"/>
<path d="M25.065 9.54492C25.065 9.54492 24.45 10.0799 24.1 9.90992C23.845 10.0599 23.54 9.78992 23.54 9.78992C23.54 9.78992 23.89 11.1049 25.17 10.1549C25.1576 9.94871 25.1241 9.74431 25.07 9.54492H25.065Z" fill="white" stroke="black" stroke-width="0.05"/>
<path d="M24.0951 9.88493C24.1451 9.60993 24.3601 9.47493 24.5351 9.73493C24.7651 9.78493 24.9951 8.83493 24.1751 8.99493C24.4051 7.75993 23.7151 7.29993 23.7151 7.29993C23.7151 7.29993 23.4701 8.66993 23.5851 8.91993C23.6951 9.16993 23.4201 8.45493 22.5351 8.24993C22.5201 9.28493 23.5251 9.76493 23.5251 9.76493C23.5251 9.76493 23.8051 10.0249 24.0951 9.88493Z" fill="#0000FF" stroke="black" stroke-width="0.05"/>
<path d="M24.1751 8.98495C24.1751 8.98495 23.7901 9.31495 23.8751 9.75995M23.5901 8.94495C23.5901 8.94495 23.5001 9.25995 23.6901 9.71495" stroke="black" stroke-width="0.05"/>
<path d="M23.5303 9.82001C23.5303 9.82001 23.7103 9.53001 24.0953 9.90001" stroke="black" stroke-width="0.05"/>
<path d="M23.6051 7.81497C23.6051 7.80497 23.0201 7.81497 23.3651 8.40997C23.1101 8.48997 22.5301 8.10997 22.9301 7.60997C21.6151 7.57497 21.0801 6.94497 21.0801 6.36497C21.4651 6.76497 22.3901 6.60497 22.7151 6.84997C22.3151 6.47997 22.3951 5.96497 22.3951 5.96497C22.3951 5.96497 23.5151 6.29997 23.7151 7.29497C23.6501 7.48997 23.6201 7.82997 23.6051 7.81497Z" fill="white" stroke="black" stroke-width="0.05"/>
<path d="M22.7002 6.82495C22.9202 7.04495 23.4752 7.10995 23.7552 7.35495" stroke="black" stroke-width="0.05"/>
<path d="M22.9602 7.47489C22.9602 7.47489 23.4202 7.41489 23.5552 7.57489C23.3752 7.57489 23.3152 7.52989 23.0552 7.62489C23.1252 7.58989 23.1052 7.52489 23.1452 7.52489C23.1852 7.52489 22.9802 7.47489 22.9602 7.47489Z" fill="#CCCCCD" stroke="#CCCCCC" stroke-width="0.035"/>
<path d="M25.25 3.87497C25.25 3.87497 25.505 3.64997 25.78 3.84997C25.655 4.21997 25.21 4.07997 25.21 4.07997C25.21 4.07997 25.225 4.26497 25.18 4.35497C25.27 4.42497 25.34 4.64497 25.34 4.64497C25.34 4.64497 25.8 4.53497 25.9 4.73497C26.075 4.70997 26.2 4.73497 26.2 4.73497C26.2 4.73497 26.56 4.64497 26.685 4.64497C26.81 4.64497 27.21 4.74497 27.25 4.82497C27.285 4.89497 27.42 5.39497 27.51 5.38497C27.6 5.37997 27.295 5.50497 27.21 5.37997C27.13 5.25497 27.155 5.54497 27.155 5.54497C27.155 5.54497 27.405 5.80997 27.435 5.86997C27.465 5.92997 27.28 6.40997 27.42 6.74497C27.295 6.75497 27.285 6.88497 27.285 6.88497C27.28 7.03497 27.095 7.06997 27.095 7.06997L27.045 6.86997L26.925 6.94497L26.975 6.78997C26.975 6.78997 27.145 6.37497 27.16 6.23997C27.175 6.10497 27.005 5.86997 26.87 5.86997C26.735 5.86997 26.64 6.29497 26.64 6.29497C26.64 6.29497 26.575 6.60997 26.595 6.64497L26.505 6.53997C26.505 6.53997 26.45 6.72997 26.405 6.78997C26.355 6.84997 26.26 6.86997 26.26 6.86997C26.26 6.86997 26.195 6.67997 26.22 6.60497C26.24 6.52997 26.58 6.23997 26.55 6.03497C26.52 5.82497 26.55 5.87497 26.545 5.86997C26.535 5.85997 26.365 5.71497 26.36 5.62997C26.35 5.54997 26.135 5.73497 25.855 5.67997C25.77 5.82997 25.755 6.20497 25.755 6.20497C25.755 6.20497 25.73 6.65497 25.785 6.70497C25.845 6.75997 25.635 6.86997 25.635 6.86997L25.49 7.06997L25.44 6.95497L25.335 7.02997L25.395 6.87997C25.39 6.76497 25.54 6.45997 25.54 6.19997C25.54 5.93997 25.555 5.65997 25.555 5.65997C25.555 5.65997 25.285 5.64497 25.29 5.92997C25.295 6.20997 25.225 6.22997 25.24 6.30497C25.255 6.38997 25.325 6.61997 25.305 6.68497C25.285 6.75497 25.195 6.77497 25.195 6.77497L25.17 6.80997C25.17 6.80997 24.895 6.93997 24.905 6.98997L24.895 6.83997L24.88 6.62497C24.88 6.62497 25.045 6.52497 25.045 6.26497C25.045 6.00497 25.01 5.96497 25.015 5.90497C25.02 5.84497 25.06 5.62997 25.05 5.60497C25.045 5.58497 24.9 5.66997 24.85 5.66997C24.805 5.66997 24.935 5.51497 24.95 5.39997C24.965 5.28997 24.8 5.50497 24.665 5.37997C24.73 5.24497 24.82 5.19997 24.835 5.09997C24.85 4.99497 24.735 5.18497 24.63 5.10997C24.64 5.00997 24.74 4.92497 24.74 4.92497C24.74 4.92497 24.655 4.91497 24.62 4.92497C24.555 4.90497 24.695 4.79997 24.705 4.64997C24.71 4.49997 24.62 4.44497 24.62 4.43497C24.62 4.42997 24.47 4.30497 24.45 4.24997C24.43 4.19997 24.43 4.13997 24.43 4.13997C24.43 4.13997 24.18 4.31997 23.895 3.93997C24.16 3.71497 24.445 3.87997 24.445 3.87997C24.445 3.87997 24.52 3.66997 24.86 3.68497C25.2 3.69997 25.27 3.89497 25.255 3.87497H25.25Z" fill="#923F00" stroke="black" stroke-width="0.05"/>
<path d="M27.1202 7.70996C27.1252 7.70996 27.7502 7.72996 27.7552 8.06496C27.7652 8.39996 27.5652 8.31496 27.5552 8.31496L27.1052 8.25496L27.1202 7.70996Z" fill="#0000FF" stroke="black" stroke-width="0.05"/>
<path d="M26.5149 7.62C26.5149 7.62 27.2949 7.615 27.2499 7.955C27.2049 8.295 27.0099 8.225 27.0099 8.225L26.6299 8.195L26.5149 7.62Z" fill="#FFFEFF" stroke="black" stroke-width="0.05"/>
<path d="M26.0751 7.58496L26.5251 7.61996C26.5251 7.61996 26.8001 7.65496 26.7851 7.91996C26.7751 8.17496 26.5101 8.17996 26.5101 8.17996L26.0701 8.15496L26.0751 7.58496Z" fill="#0000FF" stroke="black" stroke-width="0.05"/>
<path d="M25.0201 7.70996C25.0101 7.70996 24.3901 7.72996 24.3801 8.06496C24.3801 8.39996 24.5751 8.31496 24.5801 8.31496L25.0351 8.25496L25.0201 7.70996Z" fill="white" stroke="black" stroke-width="0.05"/>
<path d="M25.6253 7.62C25.6253 7.62 24.8453 7.615 24.8903 7.955C24.9303 8.295 25.1303 8.225 25.1303 8.225L25.5053 8.195L25.6253 7.62Z" fill="#0000FF" stroke="black" stroke-width="0.05"/>
<path d="M26.0649 7.58496L25.6149 7.61996C25.6149 7.61996 25.3399 7.65496 25.3499 7.91996C25.3649 8.17496 25.6299 8.17996 25.6299 8.17996L26.0699 8.15496L26.0649 7.58496Z" fill="white" stroke="black" stroke-width="0.05"/>
<path d="M27.27 11.3349C27.27 11.3349 27.595 10.8599 27.735 10.9099C27.855 10.9499 27.76 11.3199 27.705 11.3549L27.27 11.3349ZM25.05 11.4199C24.945 11.2799 24.8 10.8849 24.66 10.9949C24.54 11.0349 24.63 11.4049 24.69 11.4399L25.05 11.4199Z" fill="#5E0043" stroke="black" stroke-width="0.05"/>
<path d="M25.2603 10.475C25.2603 10.475 25.8953 10.865 26.1003 10.875C26.3103 10.885 26.9653 10.37 26.9653 10.37" stroke="black" stroke-width="0.05"/>
<path d="M25.3252 8.94993L25.4452 8.79993L26.0502 9.09993L26.6702 8.82493L26.7902 8.95493L26.1002 9.43993L25.3252 8.94993Z" fill="#5E0043" stroke="black" stroke-width="0.05"/>
<path d="M24.8403 8.9399C25.076 9.21175 25.2515 9.53039 25.3553 9.8749C25.4253 10.2699 25.3153 9.3299 25.3153 9.3299C25.3153 9.3299 25.8003 9.5699 25.8153 9.7199C25.8303 9.8699 26.0453 9.7099 26.0553 9.6849L24.6553 8.7749L24.8403 8.9399ZM27.2403 8.9149C27.2403 8.9149 26.7303 9.5849 26.7903 10.3149C26.6853 9.9649 26.7703 9.3899 26.7703 9.3899L26.6603 9.4599C26.6603 9.4599 26.5403 9.9549 26.3953 10.0299C26.3703 9.9699 26.3753 9.9499 26.3753 9.9499C26.3753 9.9499 26.2203 10.1499 26.1903 10.1699C26.1603 10.1899 26.2003 10.8549 26.2003 10.8549C26.2003 10.8549 26.2503 11.3349 26.3103 11.3299C26.2591 11.3561 26.2091 11.3845 26.1603 11.4149L26.0953 10.1349L26.2403 9.9899C26.2403 9.9899 26.4303 9.7549 26.4453 9.5299C26.3653 9.5999 26.2703 9.6199 26.2703 9.6199C26.2703 9.6199 26.2453 9.9449 26.1703 9.9899C26.0903 10.0399 26.0903 10.1199 26.0903 10.1199L26.0703 9.6949L27.2403 8.9149Z" fill="#474747" stroke="#474747" stroke-width="0.05" stroke-linejoin="round"/>
<path d="M26.0701 9.68994L26.1701 11.7149" stroke="black" stroke-width="0.05" stroke-linecap="round"/>
<path d="M24.8252 10.6599C24.8252 10.6599 25.0602 10.7949 25.1452 11.2099C25.9052 11.1549 26.1452 11.4199 26.1452 11.4199C26.1452 11.4199 26.7652 11.1199 27.0552 11.1799C27.1552 10.9649 27.4452 10.6949 27.4452 10.6949" stroke="black" stroke-width="0.05"/>
<path d="M24.51 8.6749L26.07 9.6949L27.48 8.7499C27.48 8.7499 27.77 8.5899 27.745 8.4749C27.72 8.3549 27.62 8.3999 27.57 8.4249C27.52 8.4399 26.095 9.4499 26.095 9.4499L24.585 8.4899C24.585 8.4899 24.475 8.4549 24.455 8.5299C24.435 8.5999 24.495 8.6399 24.51 8.6749Z" fill="#B4B6B9" stroke="black" stroke-width="0.05"/>
<path d="M27.3001 8.40996C27.3001 8.40996 26.9001 8.23996 26.9001 8.38496C26.9001 8.53496 26.9151 8.54996 26.9801 8.64496C27.0451 8.73496 26.9301 8.79496 26.9301 8.79496L26.8901 8.69496C26.8701 8.62996 26.6551 8.58496 26.6401 8.50496C26.6151 8.42996 26.6801 8.30996 26.5551 8.29496C26.4251 8.27996 26.3001 8.34496 26.2751 8.49496C26.2244 8.66361 26.1591 8.82756 26.0801 8.98496L26.1051 8.20496C26.3851 8.22496 26.9051 8.28496 27.3101 8.33496C27.1901 8.31496 27.3601 8.33996 27.3501 8.38496C27.3401 8.41496 27.3001 8.41996 27.3001 8.40996ZM25.8901 8.21496C25.7131 8.22157 25.538 8.25356 25.3701 8.30996C25.2801 8.35996 25.5201 8.44496 25.4851 8.50996C25.4551 8.58496 25.4501 8.72996 25.3351 8.69996C25.2251 8.66996 24.8451 8.47996 24.8351 8.41496C24.8201 8.35496 24.7451 8.34996 24.7451 8.34996C24.7451 8.34996 25.8351 8.19996 25.8901 8.21496Z" fill="#474747" stroke="#474747" stroke-width="0.05" stroke-linejoin="round"/>
<path d="M26.06 8.125V9.08M25.325 6.995L24.875 7.725" stroke="black" stroke-width="0.05"/>
<path d="M26.1301 6.97498C26.1301 6.97498 26.3201 7.23498 26.3001 7.30998C26.3751 7.36998 26.4651 7.60998 26.4651 7.60998" fill="url(#paint3_linear_11930_67988)"/>
<path d="M26.1301 6.97498C26.1301 6.97498 26.3201 7.23498 26.3001 7.30998C26.3751 7.36998 26.4651 7.60998 26.4651 7.60998" stroke="black" stroke-width="0.05"/>
<path d="M26.865 6.93494C26.865 6.93494 26.455 7.51494 26.465 7.55994" stroke="black" stroke-width="0.05"/>
<path d="M24.7552 4.1699C24.7452 4.1999 24.6952 4.2149 24.6402 4.1999C24.5852 4.1799 24.5452 4.1399 24.5552 4.1099C24.5652 4.0749 24.6202 4.0599 24.6752 4.0799C24.7252 4.0949 24.7652 4.1349 24.7552 4.1699ZM24.9252 4.1599C24.9352 4.1899 24.9852 4.2049 25.0402 4.1849C25.0952 4.1699 25.1352 4.1299 25.1252 4.0949C25.1152 4.0649 25.0602 4.0499 25.0052 4.0699C24.9552 4.0849 24.9152 4.1249 24.9252 4.1599Z" fill="black"/>
<path d="M29.7502 16.2C29.7502 16.2 29.5902 16.225 29.6002 16.24C29.6002 16.255 29.1502 16.27 29.1452 16.255C29.1352 16.24 29.0752 16.33 29.0752 16.33L29.1502 16.285C29.1502 16.285 29.2602 16.4 29.2902 16.39C29.3252 16.385 29.2752 16.44 29.2902 16.445C29.2952 16.455 29.3302 16.425 29.3302 16.425L30.0702 16.415L29.7502 16.2ZM30.0202 16.425L29.4202 16.445C29.4202 16.445 29.2652 16.585 29.2552 16.615C29.2452 16.65 29.3552 16.66 29.3552 16.66L29.3852 16.775L29.4652 16.745C29.4652 16.745 29.9802 16.82 30.4502 16.715C30.6902 16.635 30.7352 16.535 30.5652 16.47C30.4002 16.41 30.0252 16.43 30.0202 16.425Z" fill="#FF7000" stroke="black" stroke-width="0.05" stroke-linejoin="round"/>
<path d="M27.95 17.67L29.035 17.62L28.835 17.45L31.785 17.33L31.685 17.095L28.38 17.23L28.78 17.415L27.88 17.44L27.91 17.535L27.675 17.525C27.675 17.525 27.9401 17.625 27.9451 17.675L27.95 17.67Z" fill="url(#paint4_linear_11930_67988)" stroke="black" stroke-width="0.05"/>
<path d="M29.1701 11.6449C29.0851 11.5999 28.7001 11.5449 28.2751 11.8249L28.2951 12.8049C28.2951 12.8049 28.9201 12.4699 29.2201 12.5449C29.2051 12.2449 29.2051 11.8549 29.1701 11.6449Z" fill="url(#paint5_linear_11930_67988)" stroke="black" stroke-width="0.05"/>
<path d="M23.1349 14.6199L20.5649 17.1699M24.2849 14.6349L22.1949 17.3849M24.1899 13.9199L21.4049 17.2949M21.3199 17.2499L21.5899 16.9299M24.7199 15.6149L23.6399 17.1049M23.5949 17.2999L23.6199 17.8699M25.2149 16.1349L24.0649 17.5749M25.0099 17.4599L25.4749 16.6949M25.1899 16.5499L24.6299 17.1799M25.0199 15.9499L24.6399 16.4149M24.5249 15.2699C24.5249 15.2699 23.3599 16.9749 23.3799 17.1199M24.4049 15.0499C24.3749 15.0649 23.3999 16.3599 23.3999 16.3599M23.3449 16.7699L23.1649 16.9849M22.9399 17.3099L22.6699 17.6649" stroke="black" stroke-width="0.05"/>
<path d="M23.0103 10.6899C23.0103 10.6899 22.9303 10.9399 23.0103 11.0649C23.0903 11.1899 23.5853 12.1899 23.5853 12.1899C23.5853 12.1899 23.9253 11.7749 24.0503 11.7649C24.1703 11.7499 24.1153 12.8449 24.1153 12.8449C24.1153 12.8449 23.9153 13.0349 23.7903 13.0249C23.6653 13.0149 24.0903 13.4549 24.0803 13.8249C24.0703 14.1999 23.5203 16.0499 23.3153 16.0799C23.1153 16.1149 23.4053 15.7449 23.3953 15.6399C23.3803 15.5399 23.3253 15.6099 23.2803 15.4949C23.2353 15.3849 23.3503 15.2149 23.3303 15.0999C23.3053 14.9899 23.2003 15.0099 23.1903 14.9299C23.1803 14.8499 23.2603 14.8299 23.2453 14.7399C23.2353 14.6499 23.1103 14.6699 23.1253 14.5899C23.1353 14.5149 23.1453 14.5499 23.1353 14.3999C23.1253 14.2549 23.1003 14.4999 22.9753 14.5149C22.8503 14.5249 22.7503 14.8099 22.7503 14.8099C22.7503 14.8099 22.5003 15.1599 22.2553 14.9999C22.4053 15.3149 22.2903 15.4499 22.2303 15.4599C22.1803 15.4749 22.2803 15.7099 22.1403 15.7199C22.0053 15.7299 22.2403 16.2499 22.0903 16.2949C22.2553 16.3749 22.1203 16.4749 22.1203 16.4749C22.1203 16.4749 21.7303 16.5099 21.8153 17.0199C20.6653 16.6099 20.1003 15.9149 20.1153 15.1999C20.1253 14.4899 20.3503 13.8499 20.9003 13.6149C21.0603 13.0249 21.3303 12.3949 21.3303 12.3949C21.3303 12.3949 21.2853 12.1349 21.3203 11.9649C21.3571 11.8402 21.4222 11.7256 21.5103 11.6299C21.5103 11.6299 21.4903 11.2199 21.5003 11.0199C21.5103 10.8199 21.5903 10.7249 21.6003 10.6149C21.6103 10.4999 21.5653 9.92494 21.6803 9.82494C21.7903 9.72494 22.0053 9.73494 22.1203 9.66494C22.2303 9.59994 22.3803 9.47494 22.5253 9.48494C22.6753 9.49494 22.7953 9.59994 22.7953 9.59994C22.7953 9.59994 23.3453 9.59994 23.3803 9.80994C23.4153 10.0249 23.2703 10.1099 23.2703 10.1099C23.2703 10.1099 23.3503 10.4099 23.0103 10.6899Z" fill="#8A9396" stroke="#2B2B2B" stroke-width="0.05"/>
<path d="M22.5203 9.90993C22.5353 9.94493 22.4953 9.99993 22.4303 10.0349C22.3603 10.0699 22.2953 10.0749 22.2803 10.0449C22.2603 10.0099 22.3003 9.95493 22.3653 9.91993C22.4353 9.87993 22.5003 9.87993 22.5153 9.90993H22.5203Z" fill="#CECFCF" stroke="#2B2B2B" stroke-width="0.05"/>
<path d="M22.4248 9.96993C22.4248 9.98993 22.4048 10.0049 22.3848 10.0049C22.3598 10.0049 22.3398 9.98993 22.3398 9.96993C22.3398 9.94493 22.3598 9.92993 22.3848 9.92993C22.4048 9.92993 22.4248 9.94493 22.4248 9.96993Z" fill="black"/>
<path d="M23.2501 10.3399C23.2501 10.3399 23.3851 10.9499 23.2251 11.3749M23.2951 10.0749C23.2951 10.0749 23.5601 10.4249 23.5251 10.8649M23.3201 9.99992C23.3251 9.99992 23.5451 10.1849 23.5351 10.3149M23.3701 9.91992C23.3701 9.91992 23.5201 10.0199 23.5501 10.1249" stroke="#2B2B2B" stroke-width="0.025"/>
<path d="M23.3003 9.85999C23.3003 9.85999 22.7753 10.71 22.8453 11.245" stroke="black" stroke-width="0.05"/>
<path d="M23.3353 9.82996C23.3353 9.82996 22.6353 10.245 22.5103 11.6" stroke="#2B2B2B" stroke-width="0.025"/>
<path d="M23.2602 10.08L22.9802 10.29" stroke="black" stroke-width="0.05"/>
<path d="M22.25 11.675C22.25 11.675 22.64 10.065 23.325 9.82996" stroke="#2B2B2B" stroke-width="0.025"/>
<path d="M23.5949 12.2199C23.5949 12.2199 23.9649 11.7549 24.0499 11.7699C24.1349 11.7899 24.1099 12.8499 24.1099 12.8499C24.1099 12.8499 23.8349 13.0549 23.7749 13.0499C23.7149 13.0399 24.0849 13.5499 24.0749 13.7349C24.0699 13.9249 24.0599 13.9249 24.0599 13.9249C24.0599 13.9249 24.0599 13.8149 23.9749 13.6349C23.8849 13.4499 23.9399 13.2449 23.3749 12.7849C23.2399 12.5049 23.6549 12.9599 23.7399 12.8899C23.8249 12.8249 23.5899 12.2299 23.5899 12.2199H23.5949Z" fill="#2B2B2B" stroke="#2B2B2B" stroke-width="0.05"/>
<path d="M22.9351 9.59998C22.9351 9.59998 22.7801 9.63998 22.7601 9.69998C22.7351 9.76998 22.6451 9.82998 22.5951 9.80998C22.5451 9.78998 22.4551 9.70998 22.4551 9.70998" stroke="#2B2B2B" stroke-width="0.05"/>
<path d="M22.05 10.1449C22.05 10.1449 21.815 10.3749 21.93 10.4049C22.045 10.4349 22.165 10.2199 22.165 10.2199C22.165 10.2199 22.165 10.5849 22.265 10.5249C22.365 10.4699 22.65 10.2649 22.65 10.2649C22.65 10.2649 22.75 10.2549 22.775 10.2649C22.795 10.2699 23.04 10.4849 23.205 10.4049C23.11 10.6449 23.005 10.6749 23.005 10.6749C23.005 10.6749 22.835 10.8949 22.615 10.8449C22.395 10.7949 22.34 10.7049 22.34 10.7049C22.34 10.7049 22.155 10.7149 22.1 10.6299L22.02 10.4999C22.02 10.4999 21.92 10.5999 21.885 10.5499C21.86 10.4999 21.885 10.2149 22.05 10.1449Z" fill="#2B2B2B" stroke="#2B2B2B" stroke-width="0.05" stroke-linejoin="round"/>
<path d="M23.3752 9.81996C23.3752 9.81996 22.9452 9.68996 22.7952 9.90496C22.6452 10.115 22.6802 10.235 22.7602 10.255" stroke="#2B2B2B" stroke-width="0.05"/>
<path d="M23.4403 9.80497C23.4403 9.85497 23.4053 9.89997 23.3603 9.89997C23.3103 9.89997 23.2803 9.85497 23.2803 9.80497C23.2803 9.75497 23.3153 9.71497 23.3603 9.71497C23.4053 9.71497 23.4403 9.75497 23.4403 9.80497Z" fill="black"/>
<path d="M22.1849 10.9099C22.1849 10.9099 22.3599 11.1799 22.5699 11.2549C22.7799 11.3299 22.4199 11.3899 22.2149 11.2549C22.0649 11.0449 22.1049 10.8949 22.1049 10.8949C22.1049 10.8949 22.1449 10.8549 22.1849 10.9099ZM23.6899 12.5049C23.6899 12.5049 23.1949 11.8199 23.0549 11.7799C22.9099 11.7449 23.1649 11.7149 23.3149 11.8599C23.4649 12.0099 23.2749 11.6249 23.2749 11.6249L23.6899 12.5049Z" fill="#2B2B2B" stroke="#2B2B2B" stroke-width="0.05"/>
<path d="M22.1351 16.4799C22.3251 16.4299 23.1551 16.9549 23.3351 17.0849C23.5251 17.2199 23.9151 17.1349 23.9151 17.1349C23.9151 17.1349 23.7351 17.2449 23.6251 17.2699C23.5101 17.2949 23.9551 17.2949 23.9551 17.2949C23.9551 17.2949 22.9001 17.5899 21.8251 17.0249C21.7251 16.5849 22.0551 16.4849 22.1351 16.4799Z" fill="#2B2B2B" stroke="#2B2B2B" stroke-width="0.05" stroke-linejoin="round"/>
<path d="M23.3503 12.6749C23.3503 12.6749 23.2053 12.6499 23.1353 12.5699C23.0653 12.4849 22.9653 12.2849 22.8603 12.1999C22.7553 12.1199 22.2303 11.8299 22.0403 11.8499C21.8503 11.8699 21.7903 11.8299 21.7653 11.8049C21.7453 11.7799 21.6653 11.8149 21.6803 11.9149C21.6953 12.0149 21.5303 12.2299 21.5903 12.3299C21.6996 12.5197 21.8286 12.6973 21.9753 12.8599C22.0253 12.8749 21.9953 13.0999 21.9953 13.0999C21.9953 13.0999 22.2353 13.3449 22.2953 13.3549C22.3553 13.3699 22.4203 13.4149 22.4103 13.4749C22.4053 13.5299 22.1453 13.8449 22.1453 13.8449C22.1453 13.8449 21.8703 13.9949 21.8653 14.0699C21.8653 14.1549 21.9353 14.3199 22.1553 14.3749C22.4351 14.4197 22.7211 14.4061 22.9953 14.3349C23.0253 14.2849 23.0753 13.9849 23.0553 13.9499C23.0353 13.9199 22.8903 13.8299 22.8153 13.8399C22.7403 13.8549 22.6703 13.9149 22.6803 13.9299C22.6853 13.9449 22.5753 13.9999 22.5753 13.9449C22.5753 13.8949 22.7953 13.6449 22.8153 13.6699C22.8353 13.6899 23.1453 13.7199 23.2053 13.8749C23.2603 14.0299 23.2603 14.1449 23.4253 14.1249C23.5853 14.1099 23.8153 13.9599 23.8353 13.6499C23.8431 13.5461 23.8258 13.442 23.7849 13.3463C23.744 13.2505 23.6807 13.1661 23.6003 13.0999C23.5503 13.0649 23.3803 12.9649 23.3653 12.9149C23.3553 12.8649 23.3153 12.7149 23.3453 12.6749H23.3503Z" fill="#2B2B2B" stroke="#2B2B2B" stroke-width="0.05"/>
<path d="M20.415 14.0499C20.415 14.0499 20.94 13.9149 21.075 13.9199C21.21 13.9199 21.725 14.1599 21.875 14.3049C22.025 14.4549 22.325 14.7949 22.525 14.7649C22.725 14.7349 22.785 14.6949 22.785 14.6949L22.705 14.8449C22.705 14.8449 22.545 14.8899 22.46 14.8699C22.38 14.8499 22.22 14.7949 22.06 14.6399C21.905 14.4899 21.41 14.0649 20.995 14.0949C20.58 14.1249 20.34 14.5349 20.34 14.5349C20.34 14.5349 20.34 14.3349 20.36 14.2899C20.375 14.2499 20.27 14.3899 20.27 14.3899L20.415 14.0499Z" fill="#2B2B2B" stroke="#2B2B2B" stroke-width="0.05"/>
<path d="M22.3503 14.46C22.3503 14.46 22.4803 14.495 22.7003 14.495C22.9153 14.495 23.0303 14.4 23.0303 14.4L23.0153 14.315L23.0503 14.2C23.0503 14.2 23.2153 14.365 23.2153 14.4C23.2153 14.435 23.1453 14.45 23.1453 14.45L23.1203 14.365L23.0653 14.44C23.0653 14.44 22.7503 14.69 22.5753 14.65C22.4053 14.615 22.2453 14.5 22.2903 14.475C22.3353 14.45 22.3553 14.46 22.3503 14.46ZM21.5853 14.9C21.5853 14.9 21.3953 14.9 21.3103 14.94C21.2253 14.98 21.1953 15.03 21.1353 15.025C21.0803 15.015 21.0353 14.945 21.0503 14.915C21.0753 14.865 21.1903 14.805 21.4003 14.82C21.6153 14.84 21.5853 14.9 21.5853 14.9ZM22.2503 15.415C22.2503 15.405 22.2353 15.14 22.1303 15.03C22.0937 14.9912 22.048 14.9622 21.9973 14.9457C21.9467 14.9291 21.8927 14.9254 21.8403 14.935C21.7803 14.95 22.0503 15.07 22.0803 15.145C22.1053 15.225 22.1953 15.445 22.1703 15.495C22.1453 15.545 22.1053 15.345 21.9353 15.285C21.7703 15.225 21.5403 15.26 21.5853 15.335C21.6353 15.405 21.8203 15.335 21.9153 15.5C21.9768 15.6048 22.0319 15.7134 22.0803 15.825L22.1153 15.71L22.1953 15.69L22.2103 15.47L22.2503 15.415Z" fill="#2B2B2B" stroke="#2B2B2B" stroke-width="0.05"/>
<path d="M22.1152 16.2849L21.9402 15.9349C21.9402 15.9349 21.8902 15.7199 21.7402 15.6599C21.5902 15.5949 21.4002 15.6099 21.4002 15.6799C21.3952 15.7549 21.7102 15.8499 21.7302 15.8899C21.7502 15.9299 21.7402 15.9999 21.7152 16.0049C21.6852 16.0049 21.5452 15.9549 21.4752 15.9699C21.4052 15.9849 21.3652 16.0799 21.2602 16.0499C21.1552 16.0249 21.0652 15.6899 21.1102 15.6499C21.1452 15.6199 21.0302 15.7149 21.0052 15.6249C20.9802 15.5399 21.0402 15.2649 21.0002 15.2299C20.9602 15.1949 20.7602 15.0799 20.7602 15.0549C20.7552 15.0299 20.7702 13.7049 21.8752 14.8049C21.4002 14.2399 21.2152 14.3049 21.1252 14.2999C21.0652 14.2999 20.6302 14.3349 20.5252 14.8849C20.4152 15.4349 20.2852 15.0899 20.2852 15.0899C20.2852 15.0899 20.2652 15.3299 20.3802 15.3949C20.4952 15.4649 20.3252 15.6599 20.3252 15.6599C20.3252 15.6599 20.1152 15.1599 20.1502 14.9349C20.1052 15.1099 20.1102 15.5499 20.3702 16.0249C20.7419 16.4461 21.2079 16.7733 21.7302 16.9799C22.1302 16.3649 22.1152 16.2899 22.1152 16.2799V16.2849Z" fill="#2B2B2B" stroke="#2B2B2B" stroke-width="0.05" stroke-linejoin="round"/>
<path d="M21.39 16.29C21.39 16.29 21.61 16.315 21.67 16.43C21.735 16.545 21.76 16.72 21.76 16.72C21.8 16.645 21.81 16.585 21.89 16.53C21.965 16.475 22.02 16.465 22.015 16.43C22.015 16.385 21.775 16.14 21.66 16.125C21.54 16.11 21.335 16.255 21.335 16.255C21.335 16.255 21.295 16.305 21.385 16.29H21.39Z" fill="#8A9396" stroke="#2B2B2B" stroke-width="0.05" stroke-linejoin="round"/>
<path d="M21.9001 16.87C21.9001 16.87 22.4801 17.135 23.4301 17.15" stroke="#8A9396" stroke-width="0.05" stroke-linecap="round"/>
<path d="M23.8352 14.1799C23.8352 14.1799 23.7852 14.6649 23.4102 15.6299" stroke="#2B2B2B" stroke-width="0.05" stroke-linecap="round"/>
<path d="M23.7602 14.48C23.7602 14.48 23.6452 14.83 23.3352 15.09" stroke="#2B2B2B" stroke-width="0.05"/>
<path d="M22.0649 20.515L22.1649 20.405L22.1949 20.43L22.1899 20.44L22.1799 20.455V20.465L22.1899 20.475L22.3199 20.59L22.3299 20.6H22.3399L22.3449 20.59C22.3583 20.5767 22.3666 20.5633 22.3699 20.55C22.3766 20.5367 22.3783 20.5233 22.3749 20.51C22.3749 20.4933 22.3683 20.4767 22.3549 20.46L22.3949 20.44L22.4549 20.54L22.2949 20.72L22.2649 20.695L22.2749 20.68L22.2799 20.67V20.66L22.2699 20.65L22.1399 20.535L22.1249 20.525H22.1199L22.1049 20.535L22.0949 20.545L22.0649 20.515ZM22.2849 20.27L22.4699 20.09L22.5599 20.135L22.5449 20.17L22.4949 20.16L22.4649 20.17C22.4549 20.1733 22.4449 20.1817 22.4349 20.195L22.3999 20.225L22.4499 20.28L22.4649 20.27C22.4749 20.2633 22.4799 20.2567 22.4799 20.25V20.24L22.4699 20.225L22.4599 20.215L22.4899 20.185L22.5799 20.28L22.5499 20.305L22.5399 20.3L22.5249 20.285H22.5149L22.4949 20.3L22.4849 20.31L22.5349 20.36L22.5449 20.37H22.5499L22.5599 20.36L22.5799 20.345L22.6099 20.305C22.6166 20.2917 22.6183 20.275 22.6149 20.255C22.6149 20.2417 22.6099 20.2267 22.5999 20.21L22.6399 20.19L22.6899 20.305L22.4999 20.49L22.4699 20.46H22.4799L22.4899 20.44V20.43L22.4799 20.415L22.3599 20.295L22.3449 20.285H22.3349L22.3249 20.29L22.3149 20.3L22.2849 20.27ZM22.6699 19.9C22.7099 19.8667 22.7499 19.8517 22.7899 19.855C22.8333 19.8583 22.8699 19.8783 22.8999 19.915C22.9199 19.9383 22.9333 19.9633 22.9399 19.99C22.9466 20.02 22.9449 20.0467 22.9349 20.07C22.9249 20.0967 22.9066 20.1217 22.8799 20.145C22.8466 20.175 22.8099 20.19 22.7699 20.19C22.7233 20.19 22.6833 20.17 22.6499 20.13C22.6166 20.0967 22.6033 20.0583 22.6099 20.015C22.6133 19.9717 22.6333 19.9333 22.6699 19.9ZM22.7049 19.935C22.6883 19.9517 22.6799 19.9717 22.6799 19.995C22.6799 20.0217 22.6916 20.0483 22.7149 20.075C22.7383 20.1017 22.7633 20.1183 22.7899 20.125C22.8099 20.125 22.8283 20.1183 22.8449 20.105C22.8649 20.0917 22.8749 20.075 22.8749 20.055C22.8749 20.025 22.8616 19.9967 22.8349 19.97C22.8216 19.9533 22.8049 19.94 22.7849 19.93C22.7716 19.9233 22.7566 19.92 22.7399 19.92C22.7266 19.92 22.7149 19.925 22.7049 19.935ZM23.0099 19.625L23.0349 19.61L23.0399 19.615L23.1849 19.515V19.505L23.2049 19.49L23.2999 19.555L23.2749 19.59L23.2399 19.575C23.2266 19.5683 23.2133 19.5667 23.1999 19.57L23.1799 19.575L23.1749 19.58V19.59L23.2799 19.74L23.2899 19.755H23.3049L23.3299 19.74L23.3499 19.775L23.2299 19.865L23.2049 19.83L23.2099 19.825L23.2249 19.81V19.8L23.2199 19.785L23.1149 19.635L23.1049 19.625L23.0999 19.63C23.0933 19.6333 23.0883 19.64 23.0849 19.65C23.0783 19.66 23.0749 19.6717 23.0749 19.685L23.0799 19.725L23.0399 19.735L23.0099 19.625ZM23.2899 19.45L23.5099 19.31L23.5949 19.375L23.5649 19.41L23.5249 19.39H23.4899C23.4799 19.39 23.4683 19.395 23.4549 19.405L23.4149 19.43L23.4549 19.495L23.4649 19.485L23.4849 19.475V19.46L23.4799 19.44L23.4749 19.43L23.5099 19.41L23.5749 19.525L23.5399 19.545L23.5349 19.53L23.5199 19.515H23.5099L23.4899 19.525L23.4749 19.53L23.5149 19.595L23.5199 19.605H23.5249L23.5399 19.6L23.5599 19.585L23.5999 19.555L23.6149 19.51V19.46L23.6549 19.45L23.6799 19.57L23.4499 19.71L23.4299 19.675L23.4349 19.67L23.4499 19.655C23.4533 19.655 23.4533 19.6517 23.4499 19.645V19.63L23.3599 19.485L23.3449 19.47H23.3399L23.3249 19.475L23.3149 19.48L23.2899 19.45ZM23.5999 19.26L23.7749 19.17L23.8099 19.155C23.8233 19.1483 23.8383 19.1467 23.8549 19.15C23.8683 19.15 23.8799 19.1533 23.8899 19.16L23.9149 19.19C23.9283 19.2133 23.9299 19.235 23.9199 19.255C23.9133 19.275 23.8999 19.2917 23.8799 19.305L23.9699 19.345H23.9749L23.9899 19.35H24.0049L24.0149 19.345L24.0299 19.34L24.0449 19.375L23.9599 19.425L23.8099 19.35L23.7849 19.36L23.8149 19.415L23.8249 19.435H23.8499L23.8599 19.425L23.8799 19.465L23.7449 19.535L23.7249 19.495L23.7399 19.49L23.7499 19.48L23.7549 19.47L23.7499 19.455L23.6699 19.3L23.6599 19.29C23.6599 19.2867 23.6566 19.2867 23.6499 19.29H23.6349L23.6249 19.295L23.6049 19.26H23.5999ZM23.7299 19.25L23.7649 19.32L23.8049 19.3C23.8216 19.2933 23.8333 19.285 23.8399 19.275L23.8499 19.255V19.23L23.8299 19.215H23.8099L23.7749 19.225L23.7299 19.25ZM23.9499 19.08L24.1299 19L24.1649 18.99H24.2099C24.2233 18.99 24.2349 18.9933 24.2449 19L24.2699 19.035C24.2799 19.055 24.2799 19.075 24.2699 19.095C24.2599 19.115 24.2449 19.1317 24.2249 19.145L24.3149 19.19L24.3349 19.195H24.3599L24.3699 19.185L24.3899 19.225L24.2999 19.265L24.1499 19.185L24.1299 19.195L24.1549 19.25L24.1649 19.27H24.1849L24.1999 19.265L24.2149 19.3L24.0799 19.365L24.0599 19.325L24.0749 19.32L24.0849 19.31L24.0899 19.3L24.0849 19.285L24.0149 19.125C24.0149 19.1183 24.0116 19.1133 24.0049 19.11H23.9799L23.9699 19.12L23.9549 19.08H23.9499ZM24.0799 19.08L24.1099 19.155L24.1549 19.135L24.1899 19.115C24.1966 19.1083 24.1999 19.1 24.1999 19.09V19.07L24.1849 19.05H24.1599L24.1249 19.06L24.0749 19.08H24.0799ZM24.4199 18.885L24.4849 18.86L24.6549 19.055L24.6749 19.07H24.6999L24.7099 19.11L24.5749 19.16L24.5599 19.12L24.5699 19.115C24.5766 19.115 24.5816 19.1117 24.5849 19.105V19.095L24.5749 19.085L24.5549 19.06L24.4699 19.09V19.14L24.4849 19.145L24.5049 19.14L24.5199 19.18L24.4049 19.22L24.3899 19.18C24.3966 19.18 24.4016 19.1767 24.4049 19.17L24.4099 19.165V19.145L24.4199 18.885ZM24.4699 19.045L24.5249 19.025L24.4699 18.955V19.045ZM24.6599 18.8L24.7949 18.76L24.8999 18.925V18.725L25.0399 18.69L25.0499 18.73L25.0349 18.735C25.0283 18.735 25.0233 18.7383 25.0199 18.745V18.765L25.0699 18.935L25.0749 18.945L25.0849 18.95H25.1149L25.1249 18.985L24.9799 19.03L24.9699 18.985H24.9799C24.9899 18.985 24.9949 18.9817 24.9949 18.975L24.9999 18.97V18.955L24.9499 18.77L24.9449 19.04L24.9049 19.05L24.7649 18.83L24.8149 19.015L24.8199 19.02L24.8299 19.025H24.8449L24.8599 19.02L24.8699 19.06L24.7499 19.095L24.7349 19.055H24.7499L24.7649 19.045V19.02L24.7149 18.855V18.84L24.7049 18.835H24.6749L24.6599 18.8ZM25.2799 18.635L25.4399 18.605H25.4899C25.5066 18.605 25.5199 18.6083 25.5299 18.615C25.5433 18.6217 25.5533 18.63 25.5599 18.64L25.5749 18.675C25.5783 18.7017 25.5716 18.725 25.5549 18.745C25.5383 18.7683 25.5133 18.7833 25.4799 18.79L25.4299 18.8L25.4399 18.855V18.87H25.4799L25.4849 18.91L25.3349 18.94V18.9H25.3399L25.3599 18.89V18.865L25.3299 18.7V18.68L25.3199 18.675H25.2899L25.2799 18.635ZM25.3999 18.665L25.4199 18.75H25.4449L25.4799 18.735L25.4949 18.715V18.69C25.4949 18.6767 25.4883 18.6667 25.4749 18.66C25.4649 18.6567 25.4516 18.6567 25.4349 18.66L25.3999 18.665ZM25.6099 18.575L25.7999 18.55H25.8399L25.8799 18.56C25.8933 18.5667 25.9033 18.575 25.9099 18.585C25.9199 18.595 25.9249 18.6067 25.9249 18.62C25.9283 18.6433 25.9233 18.6633 25.9099 18.68C25.8933 18.6967 25.8749 18.71 25.8549 18.72L25.9249 18.785L25.9399 18.795L25.9499 18.8H25.9799V18.84L25.8849 18.855L25.7699 18.735H25.7449L25.7549 18.795V18.815L25.7649 18.825H25.7949V18.865L25.6449 18.885V18.84H25.6549L25.6699 18.835L25.6799 18.825V18.81L25.6549 18.635V18.62H25.6149L25.6099 18.575ZM25.7299 18.61L25.7399 18.69H25.7899L25.8249 18.675L25.8449 18.66V18.635L25.8399 18.615L25.8199 18.605H25.7799L25.7299 18.61ZM26.1699 18.515C26.2166 18.5117 26.2566 18.5233 26.2899 18.55C26.3233 18.58 26.3399 18.6183 26.3399 18.665C26.3399 18.6983 26.3349 18.7267 26.3249 18.75C26.3116 18.7733 26.2949 18.7933 26.2749 18.81C26.2483 18.8233 26.2183 18.8317 26.1849 18.835C26.1383 18.835 26.0999 18.825 26.0699 18.805C26.0333 18.775 26.0133 18.735 26.0099 18.685C26.0099 18.6383 26.0233 18.5983 26.0499 18.565C26.0799 18.5317 26.1199 18.515 26.1699 18.515ZM26.1699 18.565C26.1466 18.565 26.1299 18.575 26.1199 18.595C26.0999 18.615 26.0916 18.6433 26.0949 18.68C26.0949 18.7133 26.1049 18.74 26.1249 18.76C26.1383 18.7767 26.1566 18.785 26.1799 18.785C26.2033 18.785 26.2216 18.775 26.2349 18.755C26.2516 18.735 26.2583 18.7067 26.2549 18.67C26.2549 18.6467 26.2499 18.6267 26.2399 18.61C26.2333 18.5933 26.2233 18.5817 26.2099 18.575C26.1966 18.565 26.1833 18.5617 26.1699 18.565ZM26.3999 18.51H26.5699L26.6199 18.515L26.6549 18.535L26.6749 18.565L26.6849 18.605C26.6849 18.6317 26.6749 18.6533 26.6549 18.67C26.6349 18.6867 26.6066 18.695 26.5699 18.695H26.5199V18.77L26.5399 18.775H26.5549V18.82H26.4049V18.775H26.4299L26.4349 18.77V18.75L26.4399 18.58V18.56L26.4349 18.555H26.4049L26.3999 18.51ZM26.5149 18.56V18.65H26.5449L26.5799 18.645L26.5949 18.63C26.6016 18.6233 26.6049 18.615 26.6049 18.605C26.6049 18.5883 26.5999 18.5767 26.5899 18.57C26.5799 18.5633 26.5666 18.56 26.5499 18.56H26.5149ZM26.7399 18.51L26.9299 18.525L26.9699 18.53L27.0099 18.55C27.0199 18.5567 27.0283 18.5667 27.0349 18.58L27.0399 18.62C27.0399 18.6433 27.0299 18.66 27.0099 18.67C26.9933 18.6867 26.9733 18.6967 26.9499 18.7L27.0099 18.775V18.78L27.0199 18.795H27.0299L27.0449 18.8H27.0599V18.845L26.9599 18.84L26.8649 18.7H26.8399V18.78H26.8699V18.83L26.7199 18.815V18.775H26.7499L26.7599 18.765V18.75L26.7699 18.575V18.56L26.7549 18.55H26.7349L26.7399 18.51ZM26.8499 18.57L26.8449 18.65H26.8899C26.9066 18.6533 26.9199 18.6533 26.9299 18.65C26.9399 18.65 26.9466 18.6467 26.9499 18.64C26.9566 18.6333 26.9599 18.625 26.9599 18.615V18.595L26.9399 18.58L26.8999 18.575H26.8499V18.57ZM27.1199 18.54L27.2699 18.56V18.605H27.2549C27.2449 18.6017 27.2383 18.6017 27.2349 18.605L27.2249 18.625L27.2049 18.795V18.815H27.2099L27.2249 18.825H27.2399L27.2349 18.87L27.0849 18.85L27.0899 18.805H27.0999C27.1099 18.8083 27.1166 18.8083 27.1199 18.805H27.1249L27.1299 18.79L27.1499 18.615V18.59H27.1299L27.1149 18.585L27.1199 18.54ZM27.4449 18.585L27.5149 18.6L27.5649 18.85C27.5649 18.8633 27.5683 18.8717 27.5749 18.875L27.5949 18.885L27.5849 18.925L27.4399 18.9L27.4499 18.86H27.4749L27.4799 18.855V18.805L27.3799 18.79L27.3649 18.82V18.83C27.3616 18.8333 27.3616 18.8367 27.3649 18.84H27.3699L27.3899 18.85L27.3849 18.89L27.2649 18.87L27.2699 18.83H27.2899L27.2999 18.825L27.3099 18.81L27.4449 18.585ZM27.4049 18.75L27.4699 18.76L27.4549 18.67L27.4049 18.75ZM27.6999 18.63L27.8349 18.665L27.8449 18.865L27.9449 18.695L28.0799 18.73L28.0699 18.77H28.0549C28.0483 18.7633 28.0433 18.7633 28.0399 18.77C28.0333 18.77 28.0299 18.775 28.0299 18.785L27.9849 18.955V18.975L27.9999 18.98L28.0149 18.985L28.0049 19.03L27.8599 18.99L27.8699 18.95H27.8849L27.8999 18.955H27.9099V18.935L27.9599 18.75L27.8249 18.985L27.7849 18.97L27.7699 18.715L27.7249 18.895V18.905L27.7299 18.915H27.7449L27.7599 18.92L27.7499 18.965L27.6249 18.935L27.6349 18.89H27.6499L27.6649 18.895H27.6699L27.6799 18.875L27.7199 18.705V18.685L27.7049 18.68L27.6899 18.675L27.6999 18.63ZM28.3249 18.805L28.4749 18.86L28.5249 18.885L28.5499 18.915L28.5599 18.95L28.5549 18.99C28.5449 19.0133 28.5283 19.03 28.5049 19.04C28.4783 19.05 28.4483 19.05 28.4149 19.04L28.3649 19.02L28.3449 19.07V19.095L28.3599 19.105H28.3749L28.3599 19.15L28.2149 19.1L28.2299 19.055H28.2399L28.2599 19.065H28.2649L28.2749 19.045L28.3349 18.885V18.86L28.3199 18.85H28.3099L28.3249 18.805ZM28.4099 18.89L28.3799 18.975L28.4049 18.985L28.4399 18.99L28.4649 18.985L28.4799 18.96C28.4833 18.9467 28.4816 18.935 28.4749 18.925C28.4683 18.915 28.4583 18.9083 28.4449 18.905L28.4099 18.89ZM28.6399 18.92L28.8149 19L28.8499 19.02C28.8633 19.0267 28.8733 19.0367 28.8799 19.05L28.8949 19.085L28.8849 19.125C28.8749 19.1483 28.8599 19.1633 28.8399 19.17H28.7749L28.7999 19.265L28.8099 19.28L28.8149 19.29L28.8299 19.3H28.8399L28.8249 19.345L28.7349 19.305L28.6949 19.14L28.6699 19.13L28.6449 19.185V19.215L28.6549 19.22L28.6699 19.23L28.6499 19.265L28.5149 19.205L28.5299 19.165L28.5449 19.17L28.5599 19.175H28.5699L28.5749 19.16L28.6449 19L28.6499 18.985V18.975L28.6399 18.97H28.6299L28.6199 18.965L28.6399 18.92ZM28.7249 19.015L28.6899 19.09L28.7349 19.105C28.7483 19.115 28.7599 19.12 28.7699 19.12L28.7949 19.115C28.8016 19.1117 28.8066 19.105 28.8099 19.095C28.8133 19.0883 28.8133 19.0817 28.8099 19.075L28.8049 19.055L28.7699 19.035L28.7199 19.015H28.7249ZM29.1499 19.16C29.1933 19.1833 29.2216 19.215 29.2349 19.255C29.2483 19.295 29.2433 19.3367 29.2199 19.38C29.2066 19.4067 29.1883 19.4267 29.1649 19.44C29.1416 19.4567 29.1149 19.465 29.0849 19.465C29.0583 19.465 29.0299 19.4567 28.9999 19.44C28.9599 19.42 28.9316 19.3917 28.9149 19.355C28.8983 19.3117 28.9033 19.2683 28.9299 19.225C28.9499 19.1817 28.9816 19.1533 29.0249 19.14C29.0649 19.13 29.1066 19.1367 29.1499 19.16ZM29.1299 19.205C29.1099 19.1917 29.0883 19.19 29.0649 19.2C29.0416 19.21 29.0216 19.2317 29.0049 19.265C28.9883 19.295 28.9816 19.3233 28.9849 19.35C28.9883 19.37 29.0016 19.3867 29.0249 19.4C29.0449 19.41 29.0649 19.41 29.0849 19.4C29.1083 19.39 29.1283 19.37 29.1449 19.34C29.1583 19.3167 29.1649 19.2967 29.1649 19.28C29.1649 19.26 29.1616 19.2433 29.1549 19.23L29.1299 19.205ZM29.3799 19.28L29.4049 19.295V19.305L29.5549 19.4L29.5599 19.395L29.5849 19.41L29.5599 19.52L29.5199 19.51V19.47C29.5199 19.4567 29.5166 19.445 29.5099 19.435L29.4949 19.415H29.4849L29.4799 19.425L29.3849 19.575L29.3749 19.595V19.6L29.3799 19.605L29.3999 19.62L29.3799 19.655L29.2499 19.575L29.2749 19.54L29.2799 19.545L29.2999 19.555H29.3049L29.3199 19.535L29.4199 19.385V19.37H29.4149C29.4083 19.3633 29.3983 19.36 29.3849 19.36L29.3549 19.365L29.3199 19.385L29.2899 19.355L29.3799 19.28ZM29.6599 19.47L29.8699 19.62L29.8399 19.72L29.7999 19.71V19.66L29.7899 19.63C29.7833 19.62 29.7733 19.6117 29.7599 19.605L29.7249 19.575L29.6749 19.64L29.6899 19.65L29.7099 19.66H29.7249L29.7349 19.64L29.7449 19.63L29.7749 19.655L29.6999 19.76L29.6699 19.74L29.6749 19.73L29.6849 19.71V19.7L29.6649 19.68L29.6499 19.675L29.6099 19.73L29.6049 19.745L29.6149 19.76L29.6349 19.775L29.6849 19.795C29.6983 19.7983 29.7116 19.7983 29.7249 19.795C29.7416 19.7917 29.7583 19.7833 29.7749 19.77L29.7949 19.805L29.6949 19.875L29.4799 19.725L29.5049 19.685L29.5099 19.69L29.5299 19.7H29.5399L29.5499 19.685L29.6499 19.545L29.6599 19.53V19.525L29.6449 19.51L29.6349 19.505L29.6599 19.47ZM30.0049 19.91L30.1199 20.01L30.0949 20.04L30.0849 20.035L30.0749 20.025H30.0649L30.0499 20.04L29.9899 20.115L29.9549 20.085L29.9599 20.06L29.9099 20.05L29.8749 20.025C29.8516 20.005 29.8349 19.9833 29.8249 19.96C29.8183 19.9333 29.8183 19.9067 29.8249 19.88C29.8249 19.8533 29.8349 19.8267 29.8549 19.8C29.8749 19.7767 29.8983 19.76 29.9249 19.75C29.9516 19.74 29.9783 19.7383 30.0049 19.745C30.0316 19.7483 30.0566 19.7583 30.0799 19.775L30.1049 19.805L30.1249 19.84L30.1399 19.835L30.1649 19.855L30.1199 19.955L30.0799 19.935V19.88L30.0749 19.845L30.0549 19.82L30.0149 19.805L29.9699 19.815C29.9566 19.8217 29.9416 19.835 29.9249 19.855L29.8949 19.905V19.96C29.8983 19.9733 29.9066 19.985 29.9199 19.995L29.9449 20.01H29.9699L29.9899 20L29.9949 19.99L30.0049 19.975V19.97L29.9899 19.955L29.9799 19.945L30.0049 19.91ZM30.3399 20.01L30.3899 20.06L30.2949 20.3C30.2883 20.31 30.2866 20.3183 30.2899 20.325L30.2999 20.34L30.2699 20.375L30.1699 20.275L30.1949 20.24L30.1999 20.25L30.2149 20.255H30.2249L30.2349 20.24L30.2449 20.215L30.1749 20.15L30.1449 20.165L30.1349 20.17V20.185L30.1499 20.2L30.1199 20.23L30.0349 20.15L30.0649 20.12L30.0749 20.13H30.0849L30.1049 20.125L30.3399 20.01ZM30.2199 20.125L30.2649 20.17L30.2999 20.085L30.2199 20.125ZM30.5449 20.195L30.5649 20.215L30.5599 20.225L30.6799 20.35H30.6899L30.7099 20.365L30.6599 20.465L30.6199 20.45L30.6299 20.41V20.375C30.6299 20.365 30.6266 20.3567 30.6199 20.35H30.6099L30.5999 20.355L30.4749 20.48L30.4599 20.495V20.505L30.4749 20.525L30.4449 20.555L30.3449 20.445L30.3749 20.415V20.425L30.3949 20.435H30.4049L30.4199 20.425L30.5499 20.3L30.5549 20.29V20.285L30.5299 20.27H30.4949L30.4549 20.28L30.4399 20.24L30.5399 20.19L30.5449 20.195Z" fill="black"/>
<path d="M0 0H16V12H0V0Z" fill="#012169"/>
<path d="M1.875 0L7.975 4.525L14.05 0H16V1.55L10 6.025L16 10.475V12H14L8 7.525L2.025 12H0V10.5L5.975 6.05L0 1.6V0H1.875Z" fill="white"/>
<path d="M10.6 7.025L16 11V12L9.225 7.025H10.6ZM6 7.525L6.15 8.4L1.35 12H0L6 7.525ZM16 0V0.075L9.775 4.775L9.825 3.675L14.75 0H16ZM0 0L5.975 4.4H4.475L0 1.05V0Z" fill="#C8102E"/>
<path d="M6.025 0V12H10.025V0H6.025ZM0 4V8H16V4H0Z" fill="white"/>
<path d="M0 4.825V7.225H16V4.825H0ZM6.825 0V12H9.225V0H6.825Z" fill="#C8102E"/>
<defs>
<linearGradient id="paint0_linear_11930_67988" x1="27.8378" y1="7.47016" x2="27.8554" y2="6.32234" gradientUnits="userSpaceOnUse">
<stop stop-color="#474747"/>
<stop offset="1" stop-color="#FF5500"/>
</linearGradient>
<linearGradient id="paint1_linear_11930_67988" x1="27.4476" y1="11.7787" x2="27.4497" y2="12.4272" gradientUnits="userSpaceOnUse">
<stop stop-color="#B50000"/>
<stop offset="1" stop-color="#FFC500"/>
</linearGradient>
<linearGradient id="paint2_linear_11930_67988" x1="30.2946" y1="12.1749" x2="31.3537" y2="12.161" gradientUnits="userSpaceOnUse">
<stop stop-color="#D5DFFF"/>
<stop offset="1" stop-color="white"/>
</linearGradient>
<linearGradient id="paint3_linear_11930_67988" x1="27.6361" y1="7.25249" x2="28.0175" y2="7.25249" gradientUnits="userSpaceOnUse">
<stop stop-color="#474747"/>
<stop offset="1" stop-color="#FF5500"/>
</linearGradient>
<linearGradient id="paint4_linear_11930_67988" x1="33.1548" y1="17.5012" x2="32.9691" y2="16.3476" gradientUnits="userSpaceOnUse">
<stop stop-color="#D5DFFF"/>
<stop offset="1" stop-color="white"/>
</linearGradient>
<linearGradient id="paint5_linear_11930_67988" x1="30.5511" y1="12.5701" x2="30.0778" y2="11.8068" gradientUnits="userSpaceOnUse">
<stop stop-color="#D5DFFF"/>
<stop offset="1" stop-color="white"/>
</linearGradient>
</defs>
</svg>
