<svg width="36" height="24" viewBox="0 0 36 24" fill="none" xmlns="http://www.w3.org/2000/svg">
<g clip-path="url(#clip0_11930_67985)">
<path d="M0 0H36V24H0V0Z" fill="#4997D0"/>
<path d="M11.998 0H24.0018V24H11.998V0Z" fill="white"/>
<path d="M16.8698 15.1981C16.9793 15.1816 17.0402 15.1486 17.1132 15.1238M17.2065 14.9544C17.2604 15.0094 17.3019 15.0756 17.3282 15.1486M16.9996 14.9378C17.0512 14.9868 17.0925 15.0458 17.1213 15.1114M15.1133 9.46706C15.0727 9.53318 14.9916 9.57863 14.9186 9.60755M14.9064 9.59929C14.9064 9.54144 14.8983 9.47533 14.9064 9.41748M14.8293 9.62408C14.8293 9.64061 14.8455 9.68193 14.8536 9.70672M14.9388 9.74804L14.8577 9.76044M14.6954 9.72325C14.6954 9.83068 14.7076 9.95464 14.7157 10.0497M14.6427 10.0084C14.663 10.0414 14.6833 10.0703 14.7076 10.0869M14.521 10.3554C14.5413 10.3926 14.5616 10.4381 14.5737 10.5207M14.7238 10.3265L14.6427 10.3885M14.7117 10.5703C14.6711 10.6075 14.6224 10.6323 14.5697 10.6571M14.4155 12.3264C14.4567 12.4013 14.5118 12.4672 14.5778 12.5206M14.6021 12.5909C14.5593 12.5855 14.5179 12.5714 14.4804 12.5495M14.6589 12.9008L14.7279 12.9421M14.7117 13.0826C14.7603 13.1156 14.8131 13.1776 14.8618 13.2437M14.805 13.3594C14.8618 13.3718 14.9064 13.3883 14.9348 13.4007M14.8942 13.504H14.9753M15.0281 13.285L15.0078 13.4586M15.0484 13.5247L15.0646 13.4586M15.2553 13.7065L15.2512 13.8387M16.8414 14.9915L16.7927 15.0577M16.6954 14.8965L16.667 14.8221" stroke="#24420E" stroke-width="0.0163766"/>
<path d="M18.2533 15.5082C18.2197 15.4591 18.1734 15.4204 18.1194 15.3966C17.8071 15.2314 17.4947 15.1529 17.1458 15.095C17.0606 15.0826 16.9795 15.0041 16.8943 14.9628C16.6915 14.8677 16.4684 14.8306 16.2737 14.7273C16.2615 14.7231 16.2128 14.6942 16.1925 14.6653C16.1114 14.5744 15.9694 14.5455 15.8842 14.4587C15.5435 14.1364 15.1865 13.8389 14.9999 13.405C14.7727 12.8803 14.4928 12.339 14.5293 11.744C14.5536 11.3638 14.5009 10.9837 14.5901 10.6283C14.7281 10.0912 14.8985 9.56639 15.2149 9.12427L15.1621 9.15732C14.8617 9.61204 14.6496 10.1212 14.5374 10.6572C14.4441 11.0167 14.4968 11.401 14.4766 11.7729C14.436 12.372 14.72 12.9133 14.9431 13.4381C15.1297 13.8678 15.4907 14.1694 15.8274 14.4959C15.9167 14.5785 16.0546 14.6074 16.1357 14.7025C16.1601 14.7265 16.1874 14.7473 16.2169 14.7644C16.4156 14.8636 16.6388 14.9008 16.8416 15C16.9227 15.0413 17.0039 15.1157 17.085 15.1322C17.4261 15.1753 17.7579 15.2758 18.0667 15.4297C18.1204 15.4539 18.1667 15.4924 18.2006 15.5413L18.2533 15.5041" fill="#406325"/>
<path d="M18.2533 15.5082C18.2197 15.4591 18.1734 15.4204 18.1194 15.3966C17.8071 15.2314 17.4947 15.1529 17.1458 15.095C17.0606 15.0826 16.9795 15.0041 16.8943 14.9628C16.6915 14.8677 16.4684 14.8306 16.2737 14.7273C16.2615 14.7231 16.2128 14.6942 16.1925 14.6653C16.1114 14.5744 15.9694 14.5455 15.8842 14.4587C15.5435 14.1364 15.1865 13.8389 14.9999 13.405C14.7727 12.8803 14.4928 12.339 14.5293 11.744C14.5536 11.3638 14.5009 10.9837 14.5901 10.6283C14.7281 10.0912 14.8985 9.56639 15.2149 9.12427L15.1621 9.15732C14.8617 9.61204 14.6496 10.1212 14.5374 10.6572C14.4441 11.0167 14.4968 11.401 14.4766 11.7729C14.436 12.372 14.72 12.9133 14.9431 13.4381C15.1297 13.8678 15.4907 14.1694 15.8274 14.4959C15.9167 14.5785 16.0546 14.6074 16.1357 14.7025C16.1601 14.7265 16.1874 14.7473 16.2169 14.7644C16.4156 14.8636 16.6388 14.9008 16.8416 15C16.9227 15.0413 17.0039 15.1157 17.085 15.1322C17.4261 15.1753 17.7579 15.2758 18.0667 15.4297C18.1204 15.4539 18.1667 15.4924 18.2006 15.5413L18.2533 15.5041" stroke="#24420E" stroke-width="0.0081883"/>
<path d="M15.0199 13.3016C14.9363 12.9839 14.9335 12.6497 15.0118 12.3306C15.2836 12.8677 15.1943 13.3099 15.0199 13.3016ZM16.8819 15.1775C16.5511 15.2547 16.2453 15.4169 15.9935 15.6486C16.606 15.6527 16.9671 15.3469 16.8819 15.1775ZM17.1861 14.9998C16.9091 14.6896 16.7137 14.3128 16.6182 13.9049C17.2267 14.3552 17.3849 14.9089 17.1861 14.9998Z" fill="#67923D" stroke="#24420E" stroke-width="0.0081883"/>
<path d="M16.9792 15.0041C16.6872 14.7518 16.4637 14.4274 16.3301 14.062C16.9508 14.4008 17.1536 14.8966 16.9792 15.0041ZM16.3463 14.7231C16.3869 14.4008 16.1192 13.7231 16.0421 13.6488C15.9204 14.3306 16.1638 14.7892 16.3463 14.7231ZM15.2389 13.719C15.1734 13.4327 15.1803 13.1341 15.2592 12.8513C15.4823 13.3347 15.393 13.7273 15.2389 13.719ZM14.6831 10.5456C14.9052 10.2529 15.199 10.0249 15.535 9.88452C15.2591 10.4878 14.8048 10.7068 14.6831 10.5456Z" fill="#67923D" stroke="#24420E" stroke-width="0.0081883"/>
<path d="M14.7116 10.3142C14.8725 9.98103 15.1158 9.69623 15.4174 9.48779C15.2673 10.1365 14.8617 10.4464 14.7116 10.3142ZM15.8434 14.4131C15.6559 14.0808 15.5541 13.7055 15.5472 13.3223C16.0016 13.8388 16.034 14.3677 15.8393 14.4131H15.8434ZM14.6791 12.905C14.3952 12.9504 13.811 12.7149 13.7461 12.6446C14.3384 12.5124 14.7359 12.7273 14.6791 12.905ZM14.5899 12.5042C14.6223 12.2769 14.9387 11.8513 15.0077 11.8182C14.9671 12.3141 14.7075 12.5868 14.5899 12.5042ZM16.6709 14.9255C16.2758 15.0152 15.9107 15.209 15.6122 15.4875C16.3423 15.4916 16.7764 15.128 16.6709 14.9255Z" fill="#67923D" stroke="#24420E" stroke-width="0.0081883"/>
<path d="M15.0243 13.2976C15.1947 13.3058 15.2839 12.8678 15.0121 12.3307C15.0634 12.6506 15.0675 12.9764 15.0243 13.2976ZM15.4787 14.124C15.2285 13.8962 14.9256 13.737 14.5984 13.6612C14.9594 14.1612 15.4056 14.2851 15.4787 14.124ZM14.4888 11.934C14.3737 11.5573 14.1672 11.2162 13.8885 10.9423C13.9493 11.653 14.3185 12.0456 14.4888 11.934ZM14.8296 13.3513C14.6268 13.1984 14.0588 13.1282 13.9777 13.1529C14.3915 13.5 14.7971 13.5042 14.8296 13.3513ZM14.4483 12.3265C14.2731 12.0783 14.0365 11.8816 13.7627 11.7563C13.9858 12.2687 14.355 12.4588 14.4483 12.3224V12.3265ZM14.5619 10.3597C14.5943 10.0457 14.3347 9.39283 14.2617 9.31845C14.144 9.97957 14.3793 10.4217 14.5578 10.3597H14.5619ZM14.7403 9.74405C14.8499 9.47547 14.7728 8.81848 14.7201 8.73584C14.4604 9.29366 14.5659 9.75231 14.7403 9.74405Z" fill="#406325" stroke="#24420E" stroke-width="0.0081883"/>
<path d="M14.9428 9.42585C15.0546 9.17474 15.1034 8.8993 15.0848 8.62425C14.7927 9.02505 14.8008 9.40519 14.9428 9.42585ZM15.1862 9.1738C15.3663 8.9699 15.492 8.72235 15.5513 8.45483C15.1578 8.74407 15.0564 9.10769 15.1862 9.1738ZM14.5331 10.9588C14.5372 10.996 14.4925 10.62 14.1274 10.2027C14.1437 10.8142 14.379 11.0456 14.5331 10.9588ZM15.8556 14.5041C15.5329 14.3325 15.1728 14.2472 14.809 14.2562C15.3201 14.6859 15.8191 14.6942 15.8556 14.5041ZM16.3464 14.7231C16.1598 14.7851 15.9205 14.3305 16.0381 13.6488C16.0908 14.0194 16.1932 14.3808 16.3424 14.7231H16.3464ZM16.886 15.1776C16.9671 15.347 16.6101 15.6528 16.0016 15.6486C16.4884 15.442 16.8616 15.2396 16.886 15.1817V15.1776ZM17.1821 14.9958C17.3809 14.9008 17.2267 14.3553 16.6142 13.9049C16.963 14.4504 17.2024 14.9214 17.1821 14.9958Z" fill="#406325" stroke="#24420E" stroke-width="0.0081883"/>
<path d="M16.9792 15C17.1495 14.8884 16.9508 14.4008 16.3301 14.062C16.7155 14.5248 16.9873 14.9297 16.9792 15ZM15.2429 13.719C15.393 13.7273 15.4863 13.3348 15.2632 12.8513C15.2916 13.3058 15.2794 13.6777 15.2429 13.719ZM14.6831 10.5498C14.8048 10.7068 15.251 10.4919 15.5309 9.88867C15.2814 10.1499 14.9958 10.3726 14.6831 10.5498Z" fill="#406325" stroke="#24420E" stroke-width="0.0081883"/>
<path d="M14.7197 10.3142C14.8657 10.4464 15.2673 10.1365 15.4174 9.48779C15.0929 9.95471 14.7846 10.3059 14.7197 10.3142ZM15.8434 14.409C16.034 14.3636 16.0056 13.8388 15.5472 13.3223C15.7501 13.8801 15.8718 14.347 15.8434 14.409ZM14.671 12.905C14.7278 12.7273 14.3343 12.5165 13.7461 12.6446C14.2451 12.7355 14.6386 12.8512 14.671 12.905ZM14.5939 12.5083C14.7116 12.5827 14.9631 12.3141 15.0118 11.8182C14.9057 12.0675 14.765 12.2999 14.5939 12.5083ZM16.6709 14.9296C16.7724 15.1362 16.3464 15.4957 15.6162 15.4916C16.1923 15.2478 16.6425 15.004 16.6709 14.9296Z" fill="#406325" stroke="#24420E" stroke-width="0.0081883"/>
<path d="M14.7399 13.0828C14.57 12.8075 14.3323 12.5824 14.0503 12.4299C14.2531 12.9919 14.6263 13.2191 14.7399 13.0828Z" fill="#406325" stroke="#24420E" stroke-width="0.0081883"/>
<path d="M14.4495 10.9217C14.6118 10.7275 15.1595 10.5415 15.2447 10.5498C14.9201 10.9836 14.5145 11.0704 14.4495 10.9217ZM15.4678 14.124C15.3947 14.2892 14.9526 14.1653 14.5875 13.6653C14.8576 13.8608 15.1541 14.0153 15.4678 14.124ZM14.4779 11.934C14.3076 12.0456 13.9465 11.653 13.8816 10.9423C14.1494 11.4919 14.409 11.9133 14.4779 11.934ZM14.8187 13.3513C14.7903 13.5042 14.3846 13.5 13.9749 13.1571C14.2455 13.263 14.5297 13.3284 14.8187 13.3513ZM14.4333 12.3224C14.34 12.4546 13.979 12.2687 13.7559 11.7563C14.0885 12.0869 14.3846 12.3224 14.4374 12.3224H14.4333ZM14.5469 10.3556C14.3684 10.4217 14.1372 9.98369 14.2508 9.32257C14.3603 9.88039 14.4942 10.3225 14.5469 10.3556ZM14.7295 9.7399C14.555 9.7523 14.4495 9.29365 14.7092 8.73583C14.6767 9.26472 14.6889 9.69858 14.7295 9.7399ZM14.9323 9.42587C14.7944 9.40108 14.7822 9.02507 15.0783 8.62426C14.9906 8.88254 14.9414 9.15274 14.9323 9.42587ZM15.1757 9.17382C15.0499 9.10358 15.1473 8.74409 15.5408 8.45898C15.3851 8.6776 15.2621 8.91849 15.1757 9.17382Z" fill="#67923D" stroke="#24420E" stroke-width="0.0081883"/>
<path d="M14.5263 10.9588C14.3681 11.0456 14.1369 10.8142 14.1207 10.2026C14.3235 10.6861 14.4696 10.9381 14.5263 10.9588ZM15.8448 14.504C15.8083 14.6941 15.3133 14.6859 14.8022 14.2603C15.3377 14.4379 15.788 14.5371 15.8448 14.504ZM15.5121 14.1115C15.359 13.8741 15.2669 13.6013 15.2444 13.3182C15.6095 13.6776 15.6582 14.0661 15.5202 14.1115H15.5121ZM14.8306 13.0785C14.6846 12.8389 14.6683 12.2149 14.7089 12.1281C15.0456 12.6199 15.005 13.0661 14.8306 13.0785ZM14.7211 13.0826C14.6115 13.219 14.2383 12.9959 14.0396 12.4298C14.2334 12.6809 14.4631 12.901 14.7211 13.0826Z" fill="#67923D" stroke="#24420E" stroke-width="0.0081883"/>
<path d="M14.4531 10.9217C14.518 11.0705 14.9156 10.9837 15.2442 10.554C14.7574 10.8349 14.5667 10.9589 14.4531 10.9217ZM14.8304 13.0703C15.0048 13.0579 15.0454 12.6158 14.7087 12.1282C14.7985 12.435 14.8396 12.7545 14.8304 13.0745V13.0703ZM15.52 14.1116C15.658 14.0703 15.6093 13.6777 15.2482 13.3183C15.4267 13.7191 15.5403 14.062 15.52 14.1116Z" fill="#406325" stroke="#24420E" stroke-width="0.0081883"/>
<path d="M14.5259 11.6572C14.607 11.3101 14.4569 10.7233 14.3514 10.5994C14.1608 11.2357 14.3433 11.6985 14.5259 11.6572Z" fill="#406325" stroke="#24420E" stroke-width="0.0081883"/>
<path d="M14.5172 11.7399C14.2738 11.7936 14.1643 11.244 14.3509 10.6201C14.3915 11.1779 14.4645 11.6986 14.5132 11.7358L14.5172 11.7399Z" fill="#67923D" stroke="#24420E" stroke-width="0.0081883"/>
<path d="M14.4644 11.7357C14.5 11.3697 14.6255 11.0187 14.8295 10.7151C14.9106 11.3679 14.6469 11.8018 14.4644 11.7357Z" fill="#67923D" stroke="#24420E" stroke-width="0.0081883"/>
<path d="M14.4683 11.7316C14.6508 11.7977 14.9104 11.3679 14.8293 10.7151C14.6873 11.2646 14.5251 11.6985 14.4683 11.7316Z" fill="#406325" stroke="#24420E" stroke-width="0.0081883"/>
<path d="M14.521 12.1324C14.5772 11.7731 14.7255 11.4352 14.951 11.1531C14.9835 11.8225 14.6954 12.2233 14.521 12.1324Z" fill="#67923D" stroke="#24420E" stroke-width="0.0081883"/>
<path d="M14.5249 12.1365C14.6953 12.2275 14.9833 11.8308 14.9509 11.1655C14.7724 11.6944 14.5858 12.1118 14.5249 12.1365Z" fill="#406325" stroke="#24420E" stroke-width="0.0081883"/>
<path d="M14.6286 10.0291C14.6533 10.0291 14.6732 10.0088 14.6732 9.98368C14.6732 9.95858 14.6533 9.93823 14.6286 9.93823C14.604 9.93823 14.584 9.95858 14.584 9.98368C14.584 10.0088 14.604 10.0291 14.6286 10.0291Z" fill="#BA1F3E" stroke="#511124" stroke-width="0.0081883"/>
<path d="M14.9694 9.77279C14.9941 9.77279 15.0141 9.75244 15.0141 9.72734C15.0141 9.70223 14.9941 9.68188 14.9694 9.68188C14.9448 9.68188 14.9248 9.70223 14.9248 9.72734C14.9248 9.75244 14.9448 9.77279 14.9694 9.77279Z" fill="#BA1F3E" stroke="#511124" stroke-width="0.0081883"/>
<path d="M14.8234 9.63241C14.8481 9.63241 14.8681 9.61206 14.8681 9.58696C14.8681 9.56185 14.8481 9.5415 14.8234 9.5415C14.7988 9.5415 14.7788 9.56185 14.7788 9.58696C14.7788 9.61206 14.7988 9.63241 14.8234 9.63241Z" fill="#BA1F3E" stroke="#511124" stroke-width="0.0081883"/>
<path d="M14.4541 12.5908C14.4832 12.5908 14.5068 12.5668 14.5068 12.5371C14.5068 12.5074 14.4832 12.4834 14.4541 12.4834C14.425 12.4834 14.4014 12.5074 14.4014 12.5371C14.4014 12.5668 14.425 12.5908 14.4541 12.5908Z" fill="#BA1F3E" stroke="#511124" stroke-width="0.0081883"/>
<path d="M14.5557 11.9297C14.5848 11.9297 14.6084 11.9056 14.6084 11.876C14.6084 11.8463 14.5848 11.8223 14.5557 11.8223C14.5265 11.8223 14.5029 11.8463 14.5029 11.876C14.5029 11.9056 14.5265 11.9297 14.5557 11.9297Z" fill="#BA1F3E" stroke="#511124" stroke-width="0.0081883"/>
<path d="M15.0908 13.4751C15.1199 13.4751 15.1436 13.4511 15.1436 13.4214C15.1436 13.3917 15.1199 13.3677 15.0908 13.3677C15.0617 13.3677 15.0381 13.3917 15.0381 13.4214C15.0381 13.4511 15.0617 13.4751 15.0908 13.4751Z" fill="#BA1F3E" stroke="#511124" stroke-width="0.0081883"/>
<path d="M14.856 13.5537C14.8851 13.5537 14.9087 13.5297 14.9087 13.5C14.9087 13.4703 14.8851 13.4463 14.856 13.4463C14.8268 13.4463 14.8032 13.4703 14.8032 13.5C14.8032 13.5297 14.8268 13.5537 14.856 13.5537Z" fill="#BA1F3E" stroke="#511124" stroke-width="0.0081883"/>
<path d="M16.6528 14.8428C16.682 14.8428 16.7056 14.8187 16.7056 14.7891C16.7056 14.7594 16.682 14.7354 16.6528 14.7354C16.6237 14.7354 16.6001 14.7594 16.6001 14.7891C16.6001 14.8187 16.6237 14.8428 16.6528 14.8428Z" fill="#BA1F3E" stroke="#511124" stroke-width="0.0081883"/>
<path d="M16.7705 15.1362C16.7996 15.1362 16.8232 15.1122 16.8232 15.0825C16.8232 15.0529 16.7996 15.0288 16.7705 15.0288C16.7414 15.0288 16.7178 15.0529 16.7178 15.0825C16.7178 15.1122 16.7414 15.1362 16.7705 15.1362Z" fill="#BA1F3E" stroke="#511124" stroke-width="0.0081883"/>
<path d="M21.2897 10.3019C21.3181 10.3267 21.3384 10.3349 21.383 10.3804M21.1153 9.59942C21.1153 9.54157 21.0909 9.44654 21.0787 9.39282M21.2207 9.51678C21.2207 9.59529 21.2086 9.66967 21.1761 9.73991M21.0057 9.71925C21.0787 9.78536 21.1477 9.84321 21.2207 9.8804M21.3749 9.92998C21.3789 10.0126 21.3708 10.0953 21.3465 10.1779M21.3627 10.2399L21.4155 10.1448M21.3384 10.649C21.3952 10.6613 21.452 10.7316 21.4804 10.7936M21.5006 10.7399L21.5655 10.649M21.6345 11.9216C21.6061 11.9712 21.5735 12.0182 21.5371 12.0621M21.3749 12.0621C21.4073 12.1199 21.4398 12.1861 21.4804 12.2274M21.5818 12.4712C21.5342 12.5398 21.4718 12.5964 21.3992 12.6364M21.4073 12.8224C21.3627 12.8554 21.3059 12.9463 21.2572 13.0166M21.598 12.1819L21.5128 12.2191M21.456 11.9133L21.5047 11.9547M21.1274 13.5H21.0463M20.9611 13.4257L20.9854 13.4918M20.6771 13.7025C20.665 13.781 20.6731 13.8554 20.6812 13.9339M20.8556 13.562L20.8962 13.6529M21.0544 13.6488L20.953 13.6612M19.7035 14.7066L19.663 14.7809M20.1457 14.6157C20.0849 14.6239 20.0321 14.6157 19.9794 14.6074M19.7563 14.8553C19.7157 14.8347 19.6751 14.8264 19.6346 14.814M19.0383 14.9256C19.0017 14.9545 18.9571 15.0247 18.9166 15.0908M18.8922 14.9049C18.7949 14.9586 18.7624 15.0578 18.7137 15.1446M18.8273 15.2603C18.7624 15.2437 18.6894 15.2107 18.6123 15.1776M19.2898 15.1487C19.1965 15.0991 19.0991 15.1074 19.0017 15.0908M19.4399 15.0743C19.2898 15.0454 19.1559 15.0495 19.022 15.0702M19.3384 14.9628L19.2817 14.938M19.0545 15.1652L18.9612 15.1115M21.31 13.0786C21.2613 13.1116 21.2086 13.1736 21.1599 13.2397M21.2329 9.95064L21.1437 9.91759" stroke="#24420E" stroke-width="0.0163766"/>
<path d="M17.7739 15.5041C17.8064 15.4503 17.8591 15.4214 17.9078 15.3925C18.2202 15.2272 18.5325 15.1528 18.8814 15.095C18.9666 15.0785 19.0477 15 19.1329 14.9628C19.3357 14.8636 19.5589 14.8264 19.7536 14.7272C19.7657 14.719 19.8144 14.6901 19.8347 14.6611C19.9158 14.5702 20.0578 14.5413 20.143 14.4545C20.4838 14.1322 20.8408 13.8347 21.0274 13.4009C21.2545 12.8761 21.5344 12.3348 21.4979 11.7398C21.4736 11.3597 21.5263 10.9795 21.4371 10.6242C21.3246 10.0869 21.1125 9.57647 20.8124 9.12012L20.8651 9.15317C21.166 9.60914 21.3781 10.1197 21.4898 10.6572C21.5831 11.0126 21.5304 11.3968 21.5507 11.7729C21.5912 12.3679 21.3073 12.9092 21.0842 13.4381C20.8975 13.8678 20.5365 14.1653 20.1998 14.4917C20.1106 14.5744 19.9726 14.6033 19.8915 14.6983C19.8671 14.7224 19.8398 14.7432 19.8104 14.7603C19.6116 14.8595 19.3885 14.9008 19.1856 14.9958C19.1045 15.0371 19.0234 15.1115 18.9422 15.128C18.6011 15.1711 18.2693 15.2717 17.9605 15.4255C17.9068 15.4497 17.8606 15.4883 17.8267 15.5371L17.7739 15.5041Z" fill="#406325" stroke="#24420E" stroke-width="0.0081883"/>
<path d="M20.9891 13.4257C21.1027 13.1199 20.9891 12.401 20.9323 12.3101C20.6605 12.9464 20.7944 13.4505 20.9891 13.4257Z" fill="#406325" stroke="#24420E" stroke-width="0.0081883"/>
<path d="M20.7011 13.7149C20.7944 13.4835 20.7295 12.9174 20.6848 12.8472C20.4617 13.3306 20.551 13.7273 20.7011 13.7149ZM21.3866 10.6531C21.182 10.3857 20.912 10.1777 20.6037 10.0498C20.8552 10.5994 21.2731 10.8018 21.3866 10.6531Z" fill="#406325" stroke="#24420E" stroke-width="0.0081883"/>
<path d="M21.3216 10.3226C21.1875 10.0446 20.9848 9.80684 20.7334 9.63257C20.8592 10.1697 21.1959 10.43 21.3216 10.3226ZM21.5123 10.9383C21.3703 10.773 20.8957 10.6119 20.8226 10.6201C21.1066 10.992 21.4555 11.0705 21.5123 10.9383ZM21.3987 12.8555C21.6889 12.8535 21.9733 12.7721 22.2222 12.62C21.6989 12.5043 21.35 12.6985 21.3987 12.8555ZM21.3906 12.62C21.3906 12.3886 21.135 11.9258 21.066 11.8762C21.0458 12.3721 21.2648 12.682 21.3906 12.62Z" fill="#406325" stroke="#24420E" stroke-width="0.0081883"/>
<path d="M21.4108 12.054C21.3539 11.6962 21.2056 11.3599 20.9808 11.0789C20.9483 11.7482 21.2363 12.1449 21.4108 12.054ZM19.2607 15.1654C19.5164 15.3951 19.8271 15.5519 20.1613 15.6199C19.8043 15.1117 19.3459 14.996 19.2648 15.1654H19.2607Z" fill="#406325" stroke="#24420E" stroke-width="0.0081883"/>
<path d="M20.9883 13.4173C20.7895 13.4421 20.6597 12.9463 20.9315 12.31C20.9112 12.8967 20.9396 13.3719 20.9883 13.4173ZM18.822 15.2189C19.1525 15.299 19.458 15.4624 19.7104 15.6941C19.0979 15.6982 18.7368 15.3924 18.818 15.223L18.822 15.2189ZM18.822 14.8925C18.9031 14.5619 19.4305 14.0165 19.5319 13.9793C19.3859 14.6859 18.9762 15.033 18.822 14.8925ZM19.6861 14.7231C19.6963 14.3444 19.801 13.9747 19.9903 13.6487C20.112 14.3264 19.8686 14.785 19.6861 14.7231ZM20.5583 14.1198C20.8073 13.8926 21.1087 13.7334 21.4345 13.657C21.0735 14.157 20.6313 14.2809 20.5542 14.1198H20.5583ZM21.6008 11.9174C21.6414 11.6571 21.9943 11.1778 22.0714 11.1365C22.0227 11.6984 21.7347 12.0042 21.6008 11.9216V11.9174Z" fill="#67923D" stroke="#24420E" stroke-width="0.0081883"/>
<path d="M21.1265 13.4919C21.4325 13.3328 21.7729 13.2546 22.1163 13.2646C21.6376 13.6654 21.163 13.6695 21.1265 13.4919ZM21.5443 12.4795C21.7281 12.2203 21.9758 12.0151 22.2623 11.8845C22.027 12.4217 21.6417 12.62 21.5443 12.4795ZM21.4834 10.5953C21.4834 10.2813 21.808 9.65735 21.8891 9.59537C21.9337 10.2606 21.6579 10.678 21.4834 10.5953ZM21.2035 9.52513C21.1342 9.25436 21.1328 8.97019 21.1995 8.69873C21.4226 9.14912 21.3496 9.52513 21.1995 9.52513H21.2035Z" fill="#67923D" stroke="#24420E" stroke-width="0.0081883"/>
<path d="M21.0293 9.43417C20.8163 9.17026 20.6713 8.85639 20.6074 8.521C21.0861 8.90527 21.1916 9.36392 21.0293 9.43417ZM21.5039 10.8597C21.4918 10.8969 21.6256 10.5415 22.08 10.2275C21.9177 10.8184 21.6337 10.9837 21.5039 10.8597ZM20.1206 14.5744C20.4867 14.3832 20.8938 14.2881 21.3051 14.2975C20.7291 14.7851 20.1612 14.7934 20.1206 14.5744ZM20.7007 13.7149C20.5506 13.7232 20.4573 13.3306 20.6804 12.8472C20.652 13.3017 20.6642 13.6736 20.7007 13.7149ZM21.3863 10.6531C21.2768 10.8019 20.8589 10.6035 20.6074 10.0498C20.8351 10.2904 21.0978 10.4939 21.3863 10.6531ZM21.3173 10.3225C21.1916 10.43 20.8589 10.1738 20.7332 9.6325C21.005 10.0209 21.2605 10.3143 21.3173 10.3225ZM21.512 10.9423C21.4552 11.0704 21.1104 10.9961 20.8265 10.6242C21.2484 10.868 21.4147 10.9713 21.5161 10.9423H21.512ZM21.4066 12.8513C21.3538 12.6943 21.7027 12.5084 22.226 12.6241C21.9431 12.6569 21.6668 12.7336 21.4066 12.8513ZM21.3903 12.6199C21.2605 12.6819 21.0455 12.3762 21.0658 11.8803C21.1383 12.1428 21.2476 12.3933 21.3903 12.6241V12.6199Z" fill="#67923D" stroke="#24420E" stroke-width="0.0081883"/>
<path d="M21.4064 12.0621C21.232 12.153 20.948 11.7563 20.9805 11.0911C21.159 11.62 21.3456 12.0373 21.4064 12.0621ZM19.2686 15.1652C19.3497 14.9917 19.8 15.1074 20.161 15.6115C19.7148 15.3346 19.3294 15.1446 19.2686 15.1652Z" fill="#67923D" stroke="#24420E" stroke-width="0.0081883"/>
<path d="M19.6851 14.715C19.8717 14.7811 20.111 14.3266 19.9934 13.6448C19.8798 14.2233 19.7419 14.6819 19.6851 14.7191V14.715Z" fill="#406325" stroke="#24420E" stroke-width="0.0081883"/>
<path d="M20.1031 14.5C20.2567 14.1501 20.3209 13.7663 20.2897 13.3844C19.8841 13.9463 19.9084 14.4711 20.1031 14.5ZM18.8172 15.2231C18.7361 15.3925 19.089 15.6983 19.7015 15.69C19.2147 15.4917 18.8415 15.2851 18.8172 15.2231ZM18.8253 14.8884C18.9794 15.0289 19.3851 14.6859 19.5312 13.9794C19.2026 14.4917 18.8943 14.8801 18.8253 14.8884ZM20.5575 14.1199C20.6305 14.2851 21.0727 14.1612 21.4378 13.6612C21.1677 13.8567 20.8712 14.0112 20.5575 14.1199ZM21.6041 11.9175C21.738 12.0043 22.0219 11.6985 22.0706 11.1407C21.9536 11.4217 21.7964 11.6834 21.6041 11.9175ZM21.1254 13.4918C21.166 13.6736 21.6325 13.6653 22.1152 13.2645C21.6082 13.4298 21.1822 13.5207 21.1295 13.4918H21.1254ZM21.5473 12.4753C21.6487 12.6158 22.0301 12.4175 22.2653 11.8803C22.0572 12.1148 21.815 12.3154 21.5473 12.4753ZM21.4905 10.5911C21.6609 10.6738 21.9367 10.2606 21.8881 9.59945C21.7258 10.1366 21.5473 10.5622 21.4865 10.5911H21.4905ZM21.2066 9.52094C21.3485 9.52507 21.4256 9.14906 21.1984 8.69454C21.239 9.1284 21.239 9.48375 21.2066 9.52094ZM21.0321 9.43004C21.1944 9.35979 21.0889 8.90527 20.6102 8.521C20.7946 8.80086 20.9368 9.10727 21.0321 9.43004ZM21.5027 10.8638C21.6325 10.9878 21.9165 10.8225 22.0787 10.2275C21.7623 10.6448 21.5635 10.8556 21.5027 10.8638ZM20.1234 14.5785C20.164 14.7934 20.7279 14.7851 21.2999 14.3017C20.6954 14.5 20.1883 14.6157 20.1234 14.5785Z" fill="#406325" stroke="#24420E" stroke-width="0.0081883"/>
<path d="M20.3995 14.2603C20.5161 14.0004 20.5664 13.7147 20.5455 13.4297C20.2412 13.8429 20.2534 14.2355 20.3995 14.2561V14.2603ZM21.1946 13.0744C21.3406 12.8389 21.3568 12.2108 21.3163 12.124C20.9796 12.6157 21.0201 13.062 21.1946 13.0744Z" fill="#406325" stroke="#24420E" stroke-width="0.0081883"/>
<path d="M20.1027 14.4958C19.908 14.471 19.8877 13.9462 20.2853 13.3884C20.1392 13.9586 20.0662 14.4379 20.1027 14.4958ZM21.5307 11.6736C21.4901 11.3513 21.6929 10.8431 21.7984 10.7439C21.9039 11.3389 21.6889 11.7356 21.5307 11.6736ZM20.3989 14.2561C20.2528 14.2355 20.2407 13.8429 20.5449 13.4297C20.4555 13.6961 20.4063 13.9747 20.3989 14.2561ZM21.3481 9.95058C21.2589 9.70266 21.3481 9.12418 21.3968 9.0498C21.6118 9.55391 21.5023 9.96298 21.3481 9.95058ZM18.9912 14.9131C19.0926 14.5826 19.6484 14.0454 19.7539 14.0041C19.5794 14.7272 19.1454 15.0619 18.9912 14.9131ZM21.2061 13.1942C21.3749 12.9194 21.6112 12.6944 21.8917 12.5413C21.6889 13.1033 21.3157 13.3306 21.2021 13.1942H21.2061ZM21.198 13.0702C21.0236 13.0537 20.983 12.6157 21.3197 12.124C21.2299 12.4308 21.1888 12.7502 21.198 13.0702Z" fill="#67923D" stroke="#24420E" stroke-width="0.0081883"/>
<path d="M21.5308 11.748C21.7417 11.8266 21.8959 11.3431 21.7985 10.7605C21.751 11.1013 21.661 11.4346 21.5308 11.7522V11.748Z" fill="#406325" stroke="#24420E" stroke-width="0.0081883"/>
<path d="M21.563 11.7315C21.5833 11.4216 21.279 10.7811 21.1979 10.7109C21.1167 11.3637 21.3804 11.7976 21.563 11.7315ZM21.348 9.94645C21.5062 9.96298 21.6117 9.55804 21.3967 9.0498C21.4129 9.52498 21.3885 9.90926 21.348 9.94645ZM18.9951 14.909C19.1493 15.0619 19.5793 14.7272 19.7537 14.0082C19.3967 14.5164 19.0641 14.9007 18.9951 14.909ZM21.21 13.1942C21.3236 13.3306 21.6968 13.1074 21.8997 12.5413C21.7034 12.7931 21.4709 13.0132 21.21 13.1942Z" fill="#406325" stroke="#24420E" stroke-width="0.0081883"/>
<path d="M21.5589 11.7274C21.3764 11.7977 21.1168 11.3679 21.1979 10.7151C21.3399 11.2605 21.5022 11.6944 21.5589 11.7274Z" fill="#67923D" stroke="#24420E" stroke-width="0.0081883"/>
<path d="M21.4294 10.1781C21.454 10.1781 21.474 10.1577 21.474 10.1326C21.474 10.1075 21.454 10.0872 21.4294 10.0872C21.4047 10.0872 21.3848 10.1075 21.3848 10.1326C21.3848 10.1577 21.4047 10.1781 21.4294 10.1781Z" fill="#BA1F3E" stroke="#511124" stroke-width="0.0081883"/>
<path d="M21.5837 10.6698C21.6083 10.6698 21.6283 10.6494 21.6283 10.6243C21.6283 10.5992 21.6083 10.5789 21.5837 10.5789C21.559 10.5789 21.5391 10.5992 21.5391 10.6243C21.5391 10.6494 21.559 10.6698 21.5837 10.6698Z" fill="#BA1F3E" stroke="#511124" stroke-width="0.0081883"/>
<path d="M21.6406 12.2275C21.6698 12.2275 21.6934 12.2035 21.6934 12.1738C21.6934 12.1442 21.6698 12.1201 21.6406 12.1201C21.6115 12.1201 21.5879 12.1442 21.5879 12.1738C21.5879 12.2035 21.6115 12.2275 21.6406 12.2275Z" fill="#BA1F3E" stroke="#511124" stroke-width="0.0081883"/>
<path d="M21.4297 11.9382C21.4588 11.9382 21.4824 11.9142 21.4824 11.8845C21.4824 11.8549 21.4588 11.8308 21.4297 11.8308C21.4006 11.8308 21.377 11.8549 21.377 11.8845C21.377 11.9142 21.4006 11.9382 21.4297 11.9382Z" fill="#BA1F3E" stroke="#511124" stroke-width="0.0081883"/>
<path d="M20.833 13.5869C20.8621 13.5869 20.8857 13.5629 20.8857 13.5332C20.8857 13.5035 20.8621 13.4795 20.833 13.4795C20.8039 13.4795 20.7803 13.5035 20.7803 13.5332C20.7803 13.5629 20.8039 13.5869 20.833 13.5869Z" fill="#BA1F3E" stroke="#511124" stroke-width="0.0081883"/>
<path d="M21.0884 13.6985C21.1175 13.6985 21.1411 13.6744 21.1411 13.6448C21.1411 13.6151 21.1175 13.5911 21.0884 13.5911C21.0593 13.5911 21.0356 13.6151 21.0356 13.6448C21.0356 13.6744 21.0593 13.6985 21.0884 13.6985Z" fill="#BA1F3E" stroke="#511124" stroke-width="0.0081883"/>
<path d="M19.3687 15.0374C19.3978 15.0374 19.4214 15.0133 19.4214 14.9836C19.4214 14.954 19.3978 14.9299 19.3687 14.9299C19.3395 14.9299 19.3159 14.954 19.3159 14.9836C19.3159 15.0133 19.3395 15.0374 19.3687 15.0374Z" fill="#BA1F3E" stroke="#511124" stroke-width="0.0081883"/>
<path d="M19.0845 15.2439C19.1136 15.2439 19.1372 15.2199 19.1372 15.1902C19.1372 15.1605 19.1136 15.1365 19.0845 15.1365C19.0553 15.1365 19.0317 15.1605 19.0317 15.1902C19.0317 15.2199 19.0553 15.2439 19.0845 15.2439Z" fill="#BA1F3E" stroke="#511124" stroke-width="0.0081883"/>
<path d="M21.1247 9.94662C21.1493 9.94662 21.1693 9.92627 21.1693 9.90117C21.1693 9.87606 21.1493 9.85571 21.1247 9.85571C21.1001 9.85571 21.0801 9.87606 21.0801 9.90117C21.0801 9.92627 21.1001 9.94662 21.1247 9.94662Z" fill="#BA1F3E" stroke="#511124" stroke-width="0.0081883"/>
<path d="M16.1412 13.4957C16.1331 13.537 16.1736 13.5907 16.2223 13.5783C16.2426 13.5783 16.2507 13.5577 16.2304 13.5577C16.2142 13.5659 16.1939 13.5577 16.1817 13.5453C16.172 13.5343 16.1654 13.5208 16.1625 13.5062C16.1597 13.4917 16.1607 13.4766 16.1655 13.4626L16.1412 13.4957Z" fill="#8C959D" stroke="#485654" stroke-width="0.00409415"/>
<path d="M16.2588 13.5784C16.2183 13.628 16.1574 13.6487 16.1209 13.6156C16.0966 13.5908 16.0885 13.566 16.1006 13.533L16.0601 13.5867C16.0601 13.5867 16.0844 13.6404 16.125 13.6611C16.1777 13.6817 16.2467 13.6487 16.2872 13.595C16.3197 13.5537 16.3521 13.4958 16.3278 13.4462C16.3093 13.4142 16.2807 13.3894 16.2467 13.376L16.2061 13.4173C16.2264 13.409 16.2548 13.4173 16.2751 13.4338C16.3278 13.4751 16.2994 13.5371 16.2588 13.5784Z" fill="#8C959D"/>
<path d="M16.259 13.5784C16.2468 13.5949 16.2316 13.6089 16.2144 13.6197C16.1941 13.628 16.1738 13.6363 16.1535 13.6321C16.1428 13.632 16.1326 13.6275 16.1251 13.6197C16.1203 13.6172 16.116 13.6137 16.1125 13.6095C16.109 13.6052 16.1064 13.6003 16.1048 13.595C16.0967 13.5867 16.0967 13.5784 16.0927 13.566C16.0927 13.5536 16.0927 13.5454 16.1008 13.533L16.1048 13.5371L16.0602 13.5908V13.5867L16.1008 13.6404L16.1292 13.6569L16.1616 13.6611C16.1847 13.6606 16.2073 13.6534 16.2265 13.6404C16.2468 13.6321 16.2671 13.6156 16.2793 13.5991L16.3198 13.5412C16.3279 13.5206 16.3361 13.4999 16.332 13.4751C16.332 13.4627 16.332 13.4545 16.3239 13.4421C16.3053 13.4126 16.2785 13.3896 16.2468 13.376H16.2509L16.2103 13.4214H16.2062C16.2144 13.4131 16.2265 13.4131 16.2346 13.4131L16.2671 13.4214C16.2833 13.4338 16.2996 13.4503 16.3036 13.471C16.3077 13.4917 16.3036 13.5123 16.2955 13.5288C16.2874 13.5495 16.2752 13.566 16.259 13.5784ZM16.259 13.5784C16.2752 13.566 16.2833 13.5495 16.2914 13.5288C16.2996 13.5123 16.3036 13.4875 16.2996 13.471C16.2955 13.4503 16.2793 13.4379 16.263 13.4297C16.2468 13.4173 16.2225 13.4131 16.2103 13.4214H16.2062L16.2468 13.3718C16.2805 13.3858 16.309 13.4104 16.3279 13.4421C16.3361 13.4503 16.3401 13.4627 16.3401 13.4751C16.3401 13.4999 16.3361 13.5247 16.3239 13.5454C16.3158 13.566 16.3036 13.5867 16.2833 13.6032C16.2712 13.6239 16.2509 13.6363 16.2306 13.6487C16.2103 13.6611 16.19 13.6693 16.1616 13.6693C16.1497 13.6698 16.1379 13.6679 16.1267 13.6636C16.1156 13.6594 16.1054 13.6529 16.0967 13.6445C16.08 13.6278 16.0663 13.6082 16.0562 13.5867L16.0967 13.533H16.1048L16.1008 13.566C16.1008 13.5743 16.1008 13.5867 16.1089 13.595L16.1292 13.6156C16.1332 13.6239 16.1454 13.628 16.1535 13.628C16.1738 13.6321 16.1941 13.628 16.2144 13.6197L16.259 13.5784Z" fill="#485654"/>
<path d="M19.4233 9.90088L17.7966 11.533L16.1293 13.1528L15.9427 13.3759C15.8616 13.4709 15.7642 13.5949 15.6506 13.7065C15.6303 13.7354 15.606 13.723 15.5817 13.7395C15.5086 13.7808 15.4316 13.8552 15.3788 13.9172L14.8799 14.475C14.8515 14.5122 14.8393 14.5329 14.8636 14.5576L15.1314 14.9213C15.1801 14.9708 15.2368 14.9956 15.2612 14.9543C15.3869 14.7271 15.7074 14.3841 15.8291 14.1155C15.8981 13.9502 15.9873 13.6569 16.0522 13.5866C16.1334 13.4957 16.3403 13.2643 16.5309 13.0619L16.5715 13.0205C16.5796 13.004 16.5918 12.9916 16.608 12.9792C17.5613 11.9875 18.6647 10.7851 19.4679 9.93807L19.4233 9.90088Z" fill="#6C301E" stroke="#351710" stroke-width="0.0081883" stroke-linejoin="round"/>
<path d="M16.0439 13.157C15.9952 13.157 15.9628 13.128 15.9263 13.0991C15.9749 13.1156 16.0236 13.1322 16.0683 13.1115L16.0439 13.157Z" fill="#8C959D" stroke="#485654" stroke-width="0.00409415"/>
<path d="M21.1187 8.69434L19.8287 9.77692C19.8165 9.79345 19.8044 9.78932 19.7922 9.77692L19.6745 9.67775V9.65296L19.7313 9.59511C19.7394 9.58685 19.7313 9.58272 19.7273 9.57032L19.7029 9.54553C19.6908 9.5414 19.6827 9.54553 19.6745 9.55379L19.6177 9.61577C19.5894 9.61577 19.565 9.64056 19.561 9.67362C18.7821 10.4463 18.1087 11.1363 17.3339 11.8966L16.4171 12.7891C16.3846 12.8305 16.2426 12.909 16.1493 12.971C16.1169 12.9916 16.0885 13.0123 16.0763 13.0329L16.0033 13.2602C15.9789 13.3098 15.9019 13.4255 15.9019 13.4337L16.056 13.5866L16.5063 13.0949L16.5428 13.0536C16.513 13.0115 16.4775 12.974 16.4373 12.942L16.4089 12.9214C16.4049 12.9131 16.4211 12.9007 16.4292 12.8924C17.5002 11.8347 18.6604 10.6736 19.6015 9.72734C19.6146 9.73242 19.629 9.73242 19.6421 9.72734L19.7597 9.85543C19.7841 9.88435 19.8084 9.88435 19.8287 9.87196L21.1228 8.69434H21.1187Z" fill="#B2B6BA" stroke="#485654" stroke-width="0.0081883"/>
<path d="M16.0073 13.252H16.0317L16.0519 13.2478L16.0803 13.1487L16.1128 13.0495L16.0844 13.1487L16.056 13.2478L16.0317 13.2561L16.0073 13.252Z" fill="#485654"/>
<path d="M16.2992 13.1817C16.3127 13.1817 16.3236 13.1706 16.3236 13.1569C16.3236 13.1432 16.3127 13.1321 16.2992 13.1321C16.2858 13.1321 16.2749 13.1432 16.2749 13.1569C16.2749 13.1706 16.2858 13.1817 16.2992 13.1817Z" stroke="#485654" stroke-width="0.0081883"/>
<path d="M16.1454 13.3386C16.1589 13.3386 16.1698 13.3275 16.1698 13.3139C16.1698 13.3002 16.1589 13.2891 16.1454 13.2891C16.132 13.2891 16.1211 13.3002 16.1211 13.3139C16.1211 13.3275 16.132 13.3386 16.1454 13.3386Z" stroke="#485654" stroke-width="0.0081883"/>
<path d="M16.4134 12.9213C16.3868 12.9019 16.3624 12.8798 16.3403 12.8552C16.3669 12.8746 16.3913 12.8968 16.4134 12.9213Z" fill="#485654"/>
<path d="M18.896 10.3017L19.038 10.4463L19.0623 10.4215L18.9203 10.281L18.896 10.3058V10.3017Z" fill="#8C959D" stroke="#485654" stroke-width="0.00409415"/>
<path d="M19.1862 13.5522C19.1921 13.5939 19.1487 13.6457 19.1007 13.6311C19.0804 13.6302 19.0734 13.6092 19.0937 13.6101C19.1095 13.6191 19.1302 13.6118 19.143 13.5999C19.1533 13.5894 19.1607 13.5762 19.1643 13.5618C19.1679 13.5474 19.1677 13.5323 19.1636 13.5182L19.1862 13.5522Z" fill="#8C959D" stroke="#485654" stroke-width="0.00409416"/>
<path d="M19.0649 13.6298C19.1026 13.6813 19.162 13.7048 19.2001 13.6732C19.2256 13.6495 19.235 13.625 19.2247 13.5913L19.2622 13.6469C19.2622 13.6469 19.2351 13.6997 19.1936 13.7186C19.1401 13.737 19.0733 13.7008 19.0358 13.6451C19.0058 13.6022 18.9766 13.5428 19.0034 13.4942C19.0236 13.4629 19.0533 13.4393 19.0879 13.4274L19.126 13.4706C19.1063 13.4614 19.0776 13.4684 19.0565 13.4841C19.0019 13.5232 19.0268 13.5866 19.0649 13.6298Z" fill="#8C959D"/>
<path d="M19.0646 13.6297C19.0758 13.6468 19.0901 13.6616 19.1067 13.6732C19.1265 13.6824 19.1462 13.6915 19.1666 13.6883C19.1772 13.6886 19.1876 13.6846 19.1955 13.6771C19.2004 13.6748 19.2049 13.6715 19.2086 13.6674C19.2123 13.6633 19.2151 13.6584 19.217 13.6532C19.2255 13.6453 19.2259 13.637 19.2306 13.6247C19.2313 13.6123 19.2317 13.604 19.2243 13.5912L19.2201 13.5952L19.2616 13.651L19.2618 13.6469L19.2186 13.6989L19.1895 13.7142L19.157 13.7169C19.134 13.7154 19.112 13.7073 19.0935 13.6933C19.0738 13.6841 19.0545 13.6667 19.0433 13.6496L19.0061 13.5898C18.9991 13.5687 18.9921 13.5476 18.9975 13.5229C18.9982 13.5105 18.9986 13.5022 19.0073 13.4901C19.0274 13.4614 19.0553 13.4395 19.0875 13.4273L19.0835 13.4271L19.1214 13.4745L19.1254 13.4747C19.1178 13.466 19.1057 13.4655 19.0976 13.4651L19.0649 13.472C19.0481 13.4837 19.0311 13.4995 19.026 13.52C19.0208 13.5406 19.0237 13.5615 19.0309 13.5784C19.0379 13.5995 19.0491 13.6166 19.0646 13.6297ZM19.0646 13.6297C19.0491 13.6166 19.0419 13.5997 19.035 13.5786C19.0278 13.5617 19.0251 13.5366 19.03 13.5202C19.0351 13.4997 19.0519 13.488 19.0685 13.4804C19.0853 13.4687 19.1097 13.4657 19.1214 13.4745L19.1254 13.4747L19.0877 13.4231C19.0535 13.4357 19.0239 13.4591 19.0033 13.49C18.9948 13.4979 18.9901 13.5101 18.9894 13.5226C18.9881 13.5474 18.9908 13.5725 19.0018 13.5937C19.0088 13.6148 19.0198 13.636 19.0391 13.6535C19.05 13.6748 19.0696 13.6881 19.0891 13.7014C19.1086 13.7148 19.1283 13.724 19.1565 13.7252C19.1683 13.7262 19.1802 13.7248 19.1916 13.7211C19.2029 13.7173 19.2134 13.7112 19.2224 13.7033C19.2399 13.6872 19.2546 13.6682 19.2658 13.6471L19.2284 13.5914L19.2203 13.591L19.2226 13.6244C19.2221 13.6327 19.2215 13.6451 19.213 13.653L19.1917 13.6728C19.1872 13.6809 19.1749 13.6845 19.1668 13.6842C19.1464 13.6874 19.1265 13.6824 19.1067 13.6732L19.0646 13.6297Z" fill="#485654"/>
<path d="M16.1095 9.79862L17.6367 11.509L19.2049 13.2087L19.3782 13.441C19.4536 13.54 19.5436 13.6687 19.6504 13.7857C19.6689 13.8157 19.6938 13.8043 19.717 13.822C19.7873 13.8667 19.8598 13.9448 19.9089 14.0093L20.3743 14.5913C20.4004 14.6299 20.4114 14.6512 20.3859 14.675L20.1007 15.028C20.0497 15.0756 19.992 15.098 19.9701 15.0554C19.8574 14.8217 19.5577 14.4633 19.4513 14.1883C19.3917 14.0194 19.3188 13.721 19.2581 13.6476C19.1825 13.5528 18.9895 13.3113 18.8111 13.0997L18.7731 13.0564C18.7659 13.0394 18.7545 13.0265 18.739 13.0133C17.8459 11.9756 16.8151 10.7198 16.0632 9.83396L16.1095 9.79862Z" fill="#6C301E" stroke="#351710" stroke-width="0.00818831" stroke-linejoin="round"/>
<path d="M19.2993 13.2191C19.348 13.2213 19.3819 13.1939 19.4199 13.1666C19.3704 13.1809 19.3209 13.1953 19.2774 13.1726L19.2993 13.2191Z" fill="#8C959D" stroke="#485654" stroke-width="0.00409416"/>
<path d="M14.4729 8.50954L15.6964 9.65431C15.7076 9.67145 15.72 9.66784 15.7327 9.65593L15.8549 9.56156L15.8562 9.53666L15.8029 9.47603C15.7953 9.46737 15.8036 9.46358 15.8083 9.45131L15.8338 9.42749C15.8461 9.42388 15.8539 9.42839 15.8616 9.43706L15.9147 9.50184C15.9429 9.5031 15.9657 9.52909 15.968 9.56247C16.7003 10.3732 17.3323 11.0963 18.0613 11.8944L18.9243 12.8317C18.9543 12.8746 19.0912 12.9598 19.1805 13.0262C19.2117 13.0484 19.2388 13.0704 19.2498 13.0917L19.3101 13.3232C19.3316 13.3741 19.402 13.4937 19.4016 13.502L19.2402 13.6487L18.8192 13.1348L18.7852 13.0917C18.817 13.0507 18.8543 13.0146 18.8959 12.9843L18.9253 12.9648C18.9297 12.9567 18.9143 12.9435 18.9067 12.9349C17.8994 11.8248 16.8091 10.6069 15.9248 9.61462C15.9115 9.61914 15.8972 9.6185 15.8845 9.61281L15.7607 9.73623C15.735 9.7642 15.7108 9.76312 15.6913 9.74977L14.4689 8.50936L14.4729 8.50954Z" fill="#B2B6BA" stroke="#485654" stroke-width="0.00818831"/>
<path d="M19.3306 13.316L19.3066 13.3149L19.2868 13.3099L19.264 13.2093L19.2373 13.1086L19.26 13.2091L19.2828 13.3097L19.3064 13.319L19.3306 13.316Z" fill="#485654"/>
<path d="M19.0434 13.231C19.0299 13.2304 19.0196 13.2189 19.0204 13.2052C19.0211 13.1915 19.0326 13.1809 19.046 13.1815C19.0594 13.1821 19.0697 13.1937 19.069 13.2074C19.0683 13.221 19.0568 13.2316 19.0434 13.231Z" stroke="#485654" stroke-width="0.00818831"/>
<path d="M19.1893 13.3956C19.1759 13.395 19.1656 13.3834 19.1664 13.3697C19.1671 13.3561 19.1786 13.3455 19.192 13.3461C19.2054 13.3467 19.2157 13.3583 19.215 13.3719C19.2143 13.3856 19.2028 13.3962 19.1893 13.3956Z" stroke="#485654" stroke-width="0.00818831"/>
<path d="M18.9421 12.9655C18.9696 12.9473 18.9952 12.9262 19.0186 12.9027C18.991 12.9209 18.9654 12.9419 18.9421 12.9655Z" fill="#485654"/>
<path d="M16.5883 10.2246L16.4387 10.3627L16.4157 10.3368L16.565 10.2029L16.588 10.2287L16.5883 10.2246Z" fill="#8C959D" stroke="#485654" stroke-width="0.00409416"/>
<path d="M16.1339 14.6982C15.7415 14.6025 15.3312 14.6153 14.9453 14.7354C15.6065 15.0659 16.142 14.9254 16.1299 14.694L16.1339 14.6982ZM19.7443 14.8345C20.0607 14.6982 20.8315 14.8056 20.9248 14.8759C20.2676 15.2023 19.7281 15.0618 19.7403 14.8345H19.7443Z" fill="#67923D" stroke="#24420E" stroke-width="0.0081883"/>
<path d="M16.1258 14.7024C16.138 14.9296 15.6065 15.0701 14.9453 14.7396C15.566 14.7809 16.0731 14.7561 16.1217 14.6982L16.1258 14.7024ZM19.7443 14.8387C19.7362 15.066 20.2676 15.2065 20.9289 14.8759C20.3082 14.9172 19.8011 14.8924 19.7484 14.8346L19.7443 14.8387Z" fill="#406325" stroke="#24420E" stroke-width="0.0081883"/>
<path d="M19.1506 14.4751C18.3336 13.3217 17.2802 12.363 16.0635 11.6653C16.2055 11.6571 16.5259 11.8265 16.6598 11.9133C17.6293 12.5496 18.4569 13.3925 19.321 14.3842C19.2723 14.4338 19.2398 14.4668 19.183 14.5081L19.1506 14.4751Z" fill="#B2B6BA" stroke="#485654" stroke-width="0.0081883"/>
<path d="M19.2359 14.4668L19.171 14.5164C18.238 13.2933 16.9399 12.1239 16.0596 11.6653C17.2806 12.2355 18.307 13.3883 19.2238 14.4585H19.2278L19.2359 14.4668Z" fill="#8C959D"/>
<path d="M19.2359 14.4667L19.171 14.5163C18.7399 13.9524 18.2622 13.4271 17.7431 12.9462C17.3549 12.5832 16.9429 12.2478 16.5099 11.9421C16.3638 11.8429 16.2137 11.7479 16.0596 11.6652V11.657C16.3841 11.8099 16.6843 11.9958 16.9723 12.2065C17.2563 12.4131 17.524 12.6487 17.7836 12.8925C18.0401 13.1381 18.2877 13.393 18.526 13.6569C18.7694 13.9213 18.9966 14.194 19.2319 14.4626L19.2359 14.4667ZM19.2359 14.4667C19.0006 14.194 18.7694 13.9296 18.526 13.6651C18.2878 13.4012 18.0402 13.1462 17.7836 12.9007C17.524 12.6569 17.2563 12.4255 16.9723 12.2148C16.6884 12.0082 16.3841 11.8181 16.0636 11.6694V11.6611C16.3696 11.838 16.6636 12.0354 16.9439 12.252C17.5027 12.6864 18.0214 13.1719 18.4936 13.7023C18.7317 13.9653 18.9591 14.2383 19.1751 14.5205L19.2359 14.4667Z" fill="#485654"/>
<path d="M19.517 14.2683C19.4359 14.2931 19.367 14.322 19.302 14.3633C19.2939 14.4212 19.2209 14.4873 19.1601 14.4997L19.1357 14.4666H19.1276L19.1033 14.479C19.0789 14.479 19.0505 14.4873 19.0384 14.5204C19.0221 14.5617 19.0505 14.6154 19.087 14.6485C19.1276 14.6774 19.1438 14.6898 19.1844 14.6898C19.229 14.6774 19.2534 14.6361 19.2655 14.6237C19.4156 14.8096 19.5292 14.9129 19.7199 15.0617C19.8051 15.0617 19.8497 15.0079 19.8213 14.946C19.8132 14.9253 19.7888 14.9129 19.7686 14.9212V14.9005C19.8659 14.8096 19.9105 14.6939 19.8051 14.4956C19.7158 14.3303 19.6144 14.2724 19.5211 14.2724H19.517V14.2683ZM19.7686 14.4584C19.7888 14.4873 19.797 14.5162 19.8091 14.541C19.874 14.665 19.8213 14.8179 19.7158 14.8633H19.7077C19.7239 14.8344 19.6753 14.7724 19.6509 14.7931C19.6631 14.7642 19.6225 14.7104 19.5901 14.7228C19.6063 14.6939 19.5698 14.6443 19.5333 14.6609C19.5495 14.6319 19.5211 14.5865 19.4805 14.5947C19.4927 14.5617 19.4643 14.5204 19.4278 14.5286C19.4278 14.4956 19.4197 14.479 19.4075 14.4666C19.4481 14.4336 19.5008 14.3799 19.5454 14.3551C19.655 14.3055 19.7239 14.3964 19.7686 14.4584Z" fill="#FAB81C" stroke="#6C301E" stroke-width="0.0081883"/>
<path d="M19.8169 14.5907C19.7966 14.5783 19.7845 14.5577 19.7926 14.5453C19.8007 14.5287 19.821 14.5246 19.8413 14.537C19.8615 14.5453 19.8737 14.5659 19.8697 14.5783C19.8615 14.5948 19.8372 14.599 19.8169 14.5907Z" fill="#FAB81C" stroke="#6C301E" stroke-width="0.00409415"/>
<path d="M19.8052 14.5492C19.7849 14.5368 19.7727 14.5162 19.7809 14.4997C19.789 14.4873 19.8093 14.4831 19.8295 14.4955C19.8498 14.5038 19.862 14.5244 19.8579 14.5368C19.8498 14.5534 19.8255 14.5575 19.8052 14.5492Z" fill="#FAB81C" stroke="#6C301E" stroke-width="0.00409415"/>
<path d="M19.7808 14.4997C19.7605 14.4915 19.7483 14.4708 19.7564 14.4584C19.7646 14.4419 19.7848 14.4378 19.8051 14.446C19.8254 14.4584 19.8376 14.4791 19.8295 14.4915C19.8254 14.508 19.8011 14.5121 19.7808 14.4997Z" fill="#FAB81C" stroke="#6C301E" stroke-width="0.00409415"/>
<path d="M19.7486 14.4584C19.7283 14.446 19.7161 14.4254 19.7242 14.413C19.7323 14.4006 19.7526 14.3964 19.7729 14.4047C19.7932 14.4171 19.8054 14.4377 19.8013 14.4501C19.7932 14.4625 19.7688 14.4708 19.7486 14.4584Z" fill="#FAB81C" stroke="#6C301E" stroke-width="0.00409415"/>
<path d="M19.7076 14.4171C19.6832 14.4089 19.6751 14.3841 19.6832 14.3758V14.3675C19.6913 14.3717 19.7116 14.3758 19.7076 14.3634C19.7076 14.3551 19.7035 14.351 19.7076 14.3551L19.7319 14.3634C19.7522 14.3758 19.7644 14.3965 19.7562 14.4089C19.7522 14.4254 19.7278 14.4295 19.7076 14.4171Z" fill="#FAB81C" stroke="#6C301E" stroke-width="0.00409415"/>
<path d="M19.2642 14.6238C19.2926 14.5494 19.3453 14.4833 19.4061 14.4668L19.2642 14.6238ZM19.2723 14.6362C19.325 14.6445 19.4061 14.5825 19.4264 14.5288L19.2723 14.6362ZM19.321 14.6941C19.3859 14.7106 19.4548 14.6445 19.4832 14.5949L19.321 14.6941ZM19.3818 14.7602C19.4629 14.7602 19.5076 14.7065 19.5319 14.661L19.3818 14.7602ZM19.4427 14.8221C19.5116 14.8221 19.5725 14.7684 19.5887 14.723L19.4427 14.8221ZM19.4994 14.88C19.5765 14.88 19.6252 14.8428 19.6495 14.7974L19.4994 14.88ZM19.5684 14.9378C19.6374 14.942 19.6901 14.9007 19.7063 14.8635L19.5684 14.9378ZM19.6414 14.9998C19.7063 14.9998 19.751 14.9585 19.7672 14.9172L19.6414 14.9998Z" fill="#FAB81C"/>
<path d="M19.2642 14.6238C19.2822 14.5715 19.3146 14.5257 19.3575 14.4916C19.3696 14.4792 19.3859 14.4709 19.4061 14.4668C19.3887 14.4722 19.3722 14.4806 19.3575 14.4916C19.3424 14.5037 19.3288 14.5176 19.3169 14.5329C19.2946 14.5601 19.2768 14.5908 19.2642 14.6238ZM19.2723 14.6362C19.2885 14.6362 19.3047 14.6362 19.321 14.6279L19.3615 14.6032L19.4021 14.5701L19.4264 14.5288C19.4225 14.5447 19.4141 14.5591 19.4021 14.5701C19.3798 14.5955 19.352 14.6154 19.321 14.6279C19.3047 14.6362 19.2885 14.6403 19.2723 14.6362ZM19.321 14.6941H19.3696L19.4102 14.6693C19.4383 14.65 19.4619 14.6246 19.4792 14.5949L19.4508 14.6362L19.4143 14.6734L19.3737 14.6941H19.321ZM19.3818 14.7602C19.398 14.7602 19.4143 14.7602 19.4264 14.7519L19.467 14.7312L19.5076 14.6982L19.5319 14.6569C19.5201 14.6888 19.4988 14.7162 19.4711 14.7354L19.4305 14.756L19.3818 14.7602ZM19.4427 14.8221C19.4751 14.8221 19.5035 14.8098 19.5278 14.7891C19.5525 14.7717 19.5733 14.7492 19.5887 14.723C19.5846 14.7354 19.5765 14.7519 19.5644 14.7643L19.5319 14.7932L19.4913 14.818C19.4755 14.8227 19.459 14.8241 19.4427 14.8221ZM19.4994 14.88C19.5157 14.88 19.5319 14.88 19.5441 14.8717C19.574 14.865 19.6019 14.8508 19.6252 14.8304L19.6495 14.7932L19.6252 14.8345C19.613 14.8428 19.6009 14.8552 19.5846 14.8593C19.5603 14.8759 19.5319 14.88 19.5035 14.88H19.4994ZM19.5684 14.9378C19.5967 14.9374 19.6244 14.9304 19.6495 14.9172L19.682 14.8965C19.6901 14.8841 19.7023 14.8759 19.7063 14.8635C19.7063 14.8759 19.6942 14.8883 19.6861 14.8965C19.6702 14.9124 19.651 14.9244 19.6299 14.9315C19.6088 14.9387 19.5864 14.9408 19.5644 14.9378H19.5684ZM19.6414 14.9998L19.682 14.9957L19.7144 14.9792L19.7428 14.9544L19.7672 14.9213C19.7576 14.9466 19.74 14.968 19.7173 14.9822C19.6946 14.9964 19.6679 15.0026 19.6414 14.9998Z" fill="#6C301E"/>
<path d="M16.6909 14.386C17.5766 13.2706 18.6842 12.3637 19.937 11.7281C19.7966 11.7121 19.4676 11.8651 19.3291 11.9451C18.3257 12.5324 17.4497 13.3351 16.5278 14.2854C16.5729 14.3379 16.6029 14.3729 16.6566 14.4175L16.6909 14.386Z" fill="#B2B6BA" stroke="#485654" stroke-width="0.00818831"/>
<path d="M16.6074 14.3731L16.6685 14.4264C17.6738 13.2474 19.0377 12.1422 19.9409 11.7288C18.6924 12.2359 17.5992 13.3392 16.62 14.3654L16.616 14.3652L16.6074 14.3731Z" fill="#8C959D"/>
<path d="M16.6074 14.373L16.6686 14.4263C17.133 13.8828 17.6411 13.3806 18.1874 12.9253C18.596 12.5815 19.0266 12.2665 19.4761 11.9827C19.6275 11.8909 19.7826 11.8035 19.9409 11.7288L19.9414 11.7205C19.6095 11.8566 19.2996 12.0272 19.0001 12.2235C18.705 12.4158 18.424 12.6381 18.1506 12.8691C17.8802 13.1021 17.618 13.345 17.3644 13.5973C17.1057 13.85 16.8626 14.1118 16.6117 14.3691L16.6074 14.373ZM16.6074 14.373C16.8586 14.1116 17.1052 13.8583 17.3638 13.6056C17.6173 13.3532 17.8796 13.1103 18.1501 12.8774C18.4235 12.6464 18.7042 12.4283 18.9996 12.2318C19.2948 12.0395 19.609 11.8649 19.9366 11.7327L19.9371 11.7244C19.6221 11.8857 19.3175 12.0682 19.0253 12.2707C18.4427 12.6772 17.8966 13.1371 17.3936 13.6448C17.1403 13.8963 16.8969 14.1583 16.6643 14.4303L16.6074 14.373Z" fill="#485654"/>
<path d="M16.3472 14.1346C16.4253 14.1636 16.4912 14.1962 16.5522 14.2412C16.5561 14.3 16.6233 14.3704 16.6824 14.3859L16.7087 14.3537L16.7167 14.3541L16.7398 14.3678C16.7638 14.369 16.7912 14.3787 16.8008 14.4127C16.8139 14.4552 16.782 14.5081 16.7437 14.5397C16.7016 14.5669 16.6848 14.5787 16.6448 14.5767C16.6017 14.562 16.5807 14.519 16.5696 14.5059C16.4083 14.6864 16.289 14.7852 16.0904 14.9261C16.0065 14.9219 15.9664 14.8654 15.9988 14.8042C16.0083 14.7837 16.0331 14.7724 16.0525 14.7818L16.054 14.7609C15.9646 14.6643 15.9289 14.5452 16.047 14.3501C16.1468 14.1875 16.2509 14.134 16.3429 14.1386L16.3469 14.1388L16.3472 14.1346ZM16.0857 14.3143C16.0636 14.3425 16.0536 14.3713 16.0398 14.3958C15.9669 14.5178 16.008 14.6748 16.1086 14.7259L16.1166 14.7263C16.1027 14.6963 16.1551 14.6361 16.1776 14.6581C16.1677 14.6283 16.2115 14.5761 16.2426 14.5902C16.2287 14.5602 16.2683 14.5119 16.303 14.5303C16.2891 14.5003 16.3204 14.4558 16.3598 14.4661C16.3501 14.4322 16.3811 14.3918 16.4165 14.4019C16.4188 14.3686 16.428 14.3523 16.4409 14.3403C16.4033 14.305 16.3552 14.2481 16.313 14.2209C16.2086 14.1654 16.1341 14.2539 16.0857 14.3143Z" fill="#FAB81C" stroke="#6C301E" stroke-width="0.00818831"/>
<path d="M16.0218 14.4414C16.043 14.43 16.0566 14.41 16.0493 14.3973C16.0424 14.3804 16.0224 14.3752 16.0013 14.3866C15.9805 14.3938 15.9668 14.4138 15.97 14.4264C15.977 14.4433 16.001 14.4486 16.0218 14.4414Z" fill="#FAB81C" stroke="#6C301E" stroke-width="0.00409416"/>
<path d="M16.0364 14.4009C16.0576 14.3895 16.0712 14.3695 16.0643 14.3526C16.057 14.3399 16.0371 14.3347 16.0159 14.3461C15.9951 14.3533 15.9815 14.3733 15.9846 14.3859C15.9916 14.4028 16.0156 14.4081 16.0364 14.4009Z" fill="#FAB81C" stroke="#6C301E" stroke-width="0.00409416"/>
<path d="M16.0635 14.3529C16.0844 14.3456 16.098 14.3256 16.0908 14.3129C16.0838 14.296 16.0639 14.2908 16.043 14.2981C16.0219 14.3094 16.0083 14.3294 16.0155 14.3422C16.0184 14.3589 16.0424 14.3642 16.0635 14.3529Z" fill="#FAB81C" stroke="#6C301E" stroke-width="0.00409416"/>
<path d="M16.0982 14.3137C16.1193 14.3024 16.133 14.2824 16.1257 14.2696C16.1185 14.2568 16.0985 14.2517 16.0777 14.2589C16.0565 14.2703 16.0429 14.2903 16.0461 14.3029C16.0533 14.3156 16.0771 14.3251 16.0982 14.3137Z" fill="#FAB81C" stroke="#6C301E" stroke-width="0.00409416"/>
<path d="M16.1415 14.2757C16.1661 14.2686 16.1759 14.2439 16.1685 14.2351L16.1691 14.2268C16.1608 14.2306 16.1405 14.2337 16.1454 14.2214C16.146 14.2131 16.1503 14.2091 16.146 14.2131L16.1214 14.2202C16.1005 14.2318 16.087 14.252 16.0941 14.265C16.0969 14.2819 16.1206 14.2872 16.1415 14.2757Z" fill="#FAB81C" stroke="#6C301E" stroke-width="0.00409416"/>
<path d="M16.5684 14.5063C16.5451 14.4301 16.4971 14.3608 16.4379 14.341L16.5684 14.5063ZM16.5596 14.5183C16.5068 14.5238 16.4304 14.4571 16.4138 14.4021L16.5596 14.5183ZM16.5076 14.5738C16.4422 14.5869 16.3781 14.5168 16.3532 14.4654L16.5076 14.5738ZM16.443 14.6369C16.3625 14.6325 16.3218 14.5761 16.3006 14.5292L16.443 14.6369ZM16.3786 14.6958C16.3103 14.6921 16.2535 14.6349 16.2403 14.5884L16.3786 14.6958ZM16.3186 14.7509C16.2422 14.7467 16.1964 14.7067 16.1752 14.6598L16.3186 14.7509ZM16.2465 14.8052C16.1779 14.8056 16.1283 14.7613 16.1146 14.7231L16.2465 14.8052ZM16.1701 14.8635C16.1057 14.86 16.0642 14.8161 16.0508 14.7737L16.1701 14.8635Z" fill="#FAB81C"/>
<path d="M16.5684 14.5063C16.5539 14.4529 16.5248 14.405 16.4845 14.3685C16.4733 14.3554 16.4577 14.3462 16.4379 14.341C16.4549 14.3473 16.4706 14.3566 16.4845 14.3685C16.4987 14.3814 16.5113 14.3961 16.5221 14.4122C16.5423 14.4407 16.558 14.4725 16.5684 14.5063ZM16.5596 14.5183C16.5435 14.5174 16.5274 14.5166 16.5119 14.5074L16.4733 14.4803L16.4352 14.4449L16.4138 14.4021C16.4166 14.4183 16.4241 14.4332 16.4352 14.4449C16.4556 14.4717 16.4819 14.4931 16.5119 14.5074C16.5274 14.5166 16.5432 14.5216 16.5596 14.5183ZM16.5076 14.5738L16.4593 14.5711L16.4207 14.5441C16.3941 14.5232 16.3724 14.4964 16.3572 14.4656L16.3827 14.5087L16.4164 14.548L16.4553 14.5709L16.5076 14.5738ZM16.443 14.6369C16.4269 14.636 16.4108 14.6351 16.3993 14.6262L16.3604 14.6032L16.3224 14.5678L16.3009 14.525C16.3106 14.5578 16.3299 14.5864 16.3561 14.6072L16.395 14.6301L16.443 14.6369ZM16.3786 14.6958C16.3465 14.6941 16.3191 14.6801 16.2963 14.658C16.273 14.6392 16.2539 14.6155 16.2403 14.5884C16.2435 14.601 16.2505 14.6181 16.2618 14.6312L16.2921 14.662L16.3306 14.6891C16.346 14.6946 16.3623 14.6969 16.3786 14.6958ZM16.3186 14.7509C16.3025 14.75 16.2864 14.7491 16.2749 14.7401C16.2456 14.7317 16.2189 14.716 16.1972 14.6943L16.1755 14.6556L16.1969 14.6984C16.2084 14.7074 16.2197 14.7205 16.2355 14.7255C16.2585 14.7434 16.2864 14.7491 16.3146 14.7506L16.3186 14.7509ZM16.2465 14.8052C16.2185 14.8033 16.1914 14.7947 16.1674 14.7801L16.1366 14.7576C16.1293 14.7447 16.1178 14.7357 16.1146 14.7231C16.1138 14.7355 16.1251 14.7486 16.1326 14.7574C16.1472 14.7742 16.1655 14.7872 16.1859 14.7955C16.2064 14.8039 16.2285 14.8073 16.2505 14.8054L16.2465 14.8052ZM16.1701 14.8635L16.1301 14.8572L16.099 14.8388L16.0725 14.8124L16.0505 14.7779C16.0584 14.8038 16.0744 14.8262 16.096 14.8417C16.1176 14.8572 16.1436 14.8648 16.1701 14.8635Z" fill="#6C301E"/>
<path d="M15.1296 9.51673C15.4511 9.3432 15.7235 9.08853 15.9207 8.7771C15.2879 8.95064 14.9998 9.36798 15.1296 9.52086V9.51673ZM21.0442 9.71093C20.9059 9.38614 20.688 9.103 20.4114 8.88866C20.525 9.51673 20.8982 9.83076 21.0442 9.71506V9.71093Z" fill="#406325" stroke="#24420E" stroke-width="0.0081883"/>
<path d="M15.1298 9.51675C14.996 9.36799 15.284 8.95479 15.9168 8.78125C15.4706 9.12834 15.1379 9.45063 15.1298 9.51675ZM21.0444 9.71095C20.8943 9.83491 20.5292 9.52088 20.4156 8.89695C20.7077 9.35147 20.9836 9.70269 21.0444 9.71095Z" fill="#67923D" stroke="#24420E" stroke-width="0.0081883"/>
<path d="M16.8709 12.7436C16.8709 12.7436 16.6235 12.7725 16.5504 12.4213C16.4774 12.0453 16.7654 12.0081 16.7654 12.0081C16.7654 12.0081 17.094 11.9709 17.3009 11.9668L17.3902 12.7106L16.8709 12.7436Z" fill="url(#paint0_radial_11930_67985)" stroke="#999270" stroke-width="0.0081883"/>
<path d="M16.9032 12.6321C16.9032 12.6321 16.741 12.661 16.7085 12.4007C16.6842 12.2147 16.7977 12.1899 16.7977 12.1899L17.171 12.2561V12.5949L16.9032 12.6321Z" fill="url(#paint1_radial_11930_67985)" stroke="#999270" stroke-width="0.0081883"/>
<path d="M16.7979 12.19C16.7979 12.19 17.0413 12.1735 17.163 12.157L17.2157 12.3925L16.9277 12.409C16.9277 12.409 16.9074 12.1983 16.7979 12.19Z" fill="url(#paint2_radial_11930_67985)" stroke="#999270" stroke-width="0.0081883"/>
<path d="M16.749 12.0124C16.749 12.0124 17.0533 11.9339 17.0938 12.2769C17.102 12.3678 17.0533 12.5744 16.9032 12.6322L17.467 12.5702L17.4143 11.9504L17.2277 11.967C17.2277 11.967 16.822 11.9794 16.749 12.0083V12.0124Z" fill="url(#paint3_radial_11930_67985)" stroke="#999270" stroke-width="0.0081883"/>
<path d="M16.8707 12.7438C16.8707 12.7438 18.9761 12.5991 19.1911 12.6074C19.8321 12.252 19.1911 10.8513 18.6516 10.0662C18.7124 9.88854 17.4386 9.49187 16.8666 9.52906C16.7896 9.52906 16.7206 9.53732 16.6557 9.54145C16.3433 9.57451 16.3393 9.98358 16.465 10.2439C16.5867 10.4918 17.6983 12.5165 16.9194 12.7355L16.8707 12.7438Z" fill="#F9F0AA" stroke="#999270" stroke-width="0.0081883"/>
<path d="M19.1262 10.8926C18.9842 10.591 18.8138 10.3017 18.6516 10.0662C18.7124 9.88854 17.4386 9.49187 16.8666 9.52906C16.7896 9.52906 16.7206 9.53732 16.6557 9.54145C16.3433 9.57451 16.3393 9.98358 16.465 10.2439C16.5056 10.3183 16.6395 10.5745 16.7855 10.8926" fill="url(#paint4_linear_11930_67985)"/>
<path d="M19.1262 10.8926C18.9842 10.591 18.8138 10.3017 18.6516 10.0662C18.7124 9.88854 17.4386 9.49187 16.8666 9.52906C16.7896 9.52906 16.7206 9.53732 16.6557 9.54145C16.3433 9.57451 16.3393 9.98358 16.465 10.2439C16.5056 10.3183 16.6395 10.5745 16.7855 10.8926" stroke="#999270" stroke-width="0.0081883"/>
<path d="M16.9842 11.3759C17.2114 11.9792 17.3371 12.6155 16.9193 12.7354L16.8706 12.7436C16.8706 12.7436 18.9801 12.599 19.191 12.6073C19.5399 12.4131 19.5074 11.9131 19.3208 11.3677" fill="url(#paint5_linear_11930_67985)"/>
<path d="M16.9842 11.3759C17.2114 11.9792 17.3371 12.6155 16.9193 12.7354L16.8706 12.7436C16.8706 12.7436 18.9801 12.599 19.191 12.6073C19.5399 12.4131 19.5074 11.9131 19.3208 11.3677" stroke="#999270" stroke-width="0.0081883"/>
<path d="M16.6761 9.66128C16.526 9.66128 16.4855 9.81004 16.4895 9.90094C16.4936 10.1489 16.6761 10.1571 16.6761 10.1571L16.9195 10.1447L17.0331 9.64062L16.6761 9.66128Z" fill="url(#paint6_radial_11930_67985)" stroke="#999270" stroke-width="0.0081883"/>
<path d="M16.6758 9.66128L17.0328 9.64062L17.0733 10.0166L16.7569 10.0332C16.7569 10.0332 16.8583 9.73153 16.6758 9.66128Z" fill="url(#paint7_linear_11930_67985)" stroke="#999270" stroke-width="0.0081883"/>
<path d="M18.6514 10.0662C18.9232 10.0249 18.9191 9.65299 18.7325 9.50011C18.1037 9.47532 17.2802 9.49598 16.6798 9.54143C16.7488 9.54143 16.9395 9.55796 16.9597 9.81001C16.9639 9.86465 16.9551 9.91951 16.9339 9.96989C16.9127 10.0203 16.8798 10.0647 16.838 10.0992C16.7911 10.1351 16.7344 10.1554 16.6758 10.1571H16.8218L16.9435 10.1406C17.7954 10.029 18.6473 10.0662 18.6473 10.0662H18.6514Z" fill="url(#paint8_linear_11930_67985)" stroke="#999270" stroke-width="0.0081883"/>
<path d="M17.1261 10.6487C17.118 10.6363 17.1099 10.6198 17.0937 10.6157C17.0856 10.6157 17.0693 10.6157 17.0734 10.5992H17.1058L17.1708 10.5909C17.187 10.595 17.1829 10.6115 17.1708 10.6115C17.1505 10.6115 17.1626 10.6322 17.1667 10.6446L17.2194 10.7686C17.2235 10.7851 17.2357 10.7975 17.2478 10.7975L17.2925 10.7934C17.3046 10.7851 17.3006 10.7686 17.3006 10.752C17.2965 10.7396 17.3208 10.7438 17.3208 10.752L17.3371 10.8099C17.3371 10.8181 17.329 10.814 17.3208 10.814L17.1991 10.8223C17.187 10.8223 17.1667 10.8347 17.1586 10.8223C17.1586 10.8058 17.1829 10.814 17.1829 10.8016L17.1708 10.7603L17.1261 10.6487ZM17.3208 10.6322C17.3168 10.6239 17.3087 10.6074 17.2925 10.6033C17.2843 10.6033 17.2681 10.6033 17.2681 10.5868C17.2762 10.5785 17.2884 10.5868 17.2965 10.5868L17.3655 10.5785C17.3776 10.5785 17.3817 10.5992 17.3655 10.595C17.3533 10.595 17.3533 10.6115 17.3574 10.6239L17.4182 10.7644C17.4182 10.7727 17.4263 10.7851 17.4385 10.7892C17.4466 10.7892 17.4628 10.7892 17.4669 10.8016C17.4669 10.814 17.4507 10.8058 17.4425 10.8058C17.4223 10.8058 17.402 10.8058 17.3776 10.814C17.3695 10.814 17.3574 10.814 17.3574 10.8016C17.3574 10.7892 17.3776 10.8016 17.3817 10.7851C17.3817 10.7727 17.3736 10.7603 17.3655 10.7438L17.3208 10.6363V10.6322ZM17.5034 10.6653C17.5034 10.6735 17.5196 10.6653 17.5237 10.6653C17.5359 10.6653 17.548 10.6611 17.548 10.6487C17.548 10.6281 17.5359 10.6074 17.5196 10.5992C17.5075 10.5868 17.4912 10.5909 17.475 10.5909L17.4791 10.6115L17.5034 10.6653ZM17.5277 10.7314C17.5359 10.7438 17.5399 10.7603 17.5521 10.7727C17.5602 10.781 17.5764 10.7768 17.5845 10.7727C17.5967 10.7727 17.6048 10.7603 17.6008 10.752C17.5967 10.7231 17.5805 10.6983 17.5521 10.6901H17.5115L17.5196 10.7107L17.5277 10.7314ZM17.4466 10.6322C17.4385 10.6198 17.4344 10.5992 17.4182 10.5909C17.4101 10.5909 17.3939 10.595 17.3898 10.5826C17.3898 10.5702 17.4142 10.5785 17.4223 10.5744C17.4588 10.5744 17.4953 10.562 17.5277 10.5744C17.5561 10.5826 17.5845 10.6074 17.5886 10.6405C17.5886 10.657 17.5764 10.6694 17.5642 10.6735L17.5845 10.6777C17.6089 10.6859 17.6292 10.7025 17.6413 10.7272C17.6494 10.7438 17.6535 10.7644 17.6413 10.781C17.6251 10.7975 17.6008 10.7975 17.5845 10.7975C17.5521 10.7975 17.5237 10.7975 17.4912 10.8058C17.4791 10.8058 17.475 10.7851 17.4912 10.7851C17.5034 10.7851 17.5034 10.7686 17.4993 10.7603L17.4466 10.6363V10.6322ZM17.7468 10.5537C17.759 10.5537 17.763 10.5661 17.7671 10.5744L17.7793 10.6115C17.7671 10.6198 17.759 10.6033 17.7549 10.595C17.7468 10.5868 17.7387 10.5744 17.7265 10.5785H17.6778C17.6697 10.5868 17.6778 10.595 17.6819 10.6033L17.7062 10.6611C17.7143 10.6611 17.7306 10.6611 17.7387 10.6487C17.7387 10.6405 17.7265 10.6198 17.7468 10.6239C17.759 10.6322 17.7549 10.6487 17.763 10.6611L17.7833 10.7066C17.7711 10.719 17.763 10.7025 17.759 10.6901C17.7509 10.6777 17.7306 10.6777 17.7184 10.6777C17.7103 10.6777 17.7184 10.6859 17.7184 10.6901L17.7427 10.752C17.7509 10.7644 17.7711 10.7644 17.7833 10.7644C17.7955 10.7644 17.8158 10.7644 17.8239 10.7479C17.832 10.7396 17.8117 10.719 17.8239 10.7148C17.8401 10.7148 17.8401 10.7314 17.8442 10.7396C17.8442 10.752 17.8523 10.7644 17.8563 10.7727C17.8563 10.781 17.8442 10.781 17.8401 10.781L17.7184 10.7892C17.7022 10.7892 17.6819 10.7975 17.6778 10.781C17.6778 10.7686 17.7062 10.7768 17.7022 10.7603L17.6859 10.719L17.6413 10.6074C17.6332 10.595 17.6251 10.5785 17.6089 10.5785C17.6008 10.5785 17.5845 10.5785 17.5926 10.562H17.6332L17.7468 10.5537ZM17.8401 10.6074C17.836 10.595 17.8279 10.5785 17.8117 10.5702C17.8036 10.5702 17.7833 10.5702 17.7833 10.5537C17.7955 10.5454 17.8117 10.5537 17.8239 10.5537C17.8563 10.5537 17.8888 10.5413 17.9212 10.5537C17.9537 10.5578 17.9821 10.5909 17.9861 10.6281C17.9861 10.6446 17.974 10.657 17.9577 10.6611C17.9456 10.6611 17.9659 10.6653 17.9699 10.6694C17.9983 10.6818 18.0105 10.7066 18.0267 10.7314C18.0308 10.7396 18.047 10.7603 18.051 10.7396C18.051 10.719 18.0754 10.7396 18.0713 10.752C18.0713 10.7686 18.0551 10.7768 18.0429 10.7768C18.0267 10.7768 18.0064 10.7686 17.9983 10.752C17.9821 10.7272 17.9699 10.6983 17.9456 10.6818C17.9414 10.6775 17.9362 10.6745 17.9305 10.6731C17.9248 10.6716 17.9188 10.6718 17.9131 10.6735V10.6942L17.9375 10.7438C17.9456 10.7562 17.9618 10.7562 17.978 10.7562C17.9902 10.7603 17.9861 10.781 17.9699 10.7768H17.901C17.8888 10.7851 17.8644 10.7768 17.8726 10.7644C17.8847 10.7644 17.901 10.7562 17.8928 10.7438L17.8523 10.6363L17.8401 10.6074ZM17.8969 10.6487C17.905 10.657 17.9212 10.6487 17.9334 10.6487C17.9456 10.6487 17.9456 10.6281 17.9415 10.6198C17.9375 10.5992 17.9253 10.5785 17.905 10.5702C17.8969 10.5702 17.8726 10.562 17.8685 10.5744L17.8969 10.6405V10.6487ZM18.189 10.7148C18.193 10.7272 18.2011 10.7396 18.2133 10.7438C18.2214 10.7438 18.2377 10.7438 18.2417 10.7562C18.2417 10.7686 18.2255 10.7603 18.2174 10.7644H18.1525C18.1403 10.7686 18.1281 10.7644 18.1281 10.752C18.1362 10.7438 18.1565 10.752 18.1565 10.7355L18.1362 10.6901L18.0916 10.5702C18.0876 10.5578 18.0713 10.5578 18.0632 10.5578C18.051 10.5578 18.0348 10.5578 18.0348 10.5744C18.0348 10.5868 18.0429 10.5992 18.0348 10.6074C18.0226 10.6074 18.0186 10.595 18.0145 10.5868C18.0145 10.5744 18.0064 10.562 17.9983 10.5454C17.9983 10.5372 18.0145 10.5413 18.0186 10.5413L18.189 10.533C18.2011 10.533 18.2093 10.5413 18.2093 10.5537L18.2255 10.595C18.2214 10.6074 18.2052 10.595 18.2011 10.5826C18.1971 10.5702 18.1809 10.5537 18.1646 10.5537C18.1565 10.5537 18.1403 10.5537 18.1322 10.562L18.1403 10.5909L18.189 10.7148ZM18.3431 10.6777C18.335 10.6777 18.3391 10.6901 18.3391 10.6942V10.7272C18.3431 10.7438 18.3594 10.7396 18.3715 10.7438C18.3796 10.7438 18.3756 10.7644 18.3634 10.7603H18.3147C18.3026 10.7644 18.2823 10.7562 18.2944 10.7438C18.3026 10.7438 18.3107 10.7396 18.3147 10.7314V10.5248C18.3228 10.5124 18.335 10.5248 18.3391 10.533L18.4851 10.719C18.4932 10.7272 18.5054 10.7355 18.5176 10.7355C18.5297 10.7355 18.5338 10.7562 18.5176 10.752H18.4567C18.4486 10.752 18.4364 10.7603 18.4283 10.752C18.4202 10.7479 18.4283 10.7355 18.4364 10.7355C18.4486 10.7355 18.4364 10.719 18.4324 10.7107L18.408 10.6777H18.3431ZM18.3877 10.657C18.3959 10.657 18.3877 10.6529 18.3877 10.6487L18.335 10.5785V10.6611H18.3877V10.657ZM18.5135 10.5826C18.5094 10.5661 18.5013 10.5413 18.4811 10.5413C18.4689 10.5413 18.4527 10.533 18.4608 10.5248H18.5297C18.5581 10.5206 18.5865 10.5206 18.6109 10.5289C18.6717 10.5496 18.7204 10.6033 18.7326 10.6694C18.7326 10.6942 18.7285 10.7231 18.7082 10.7355C18.6758 10.7562 18.6393 10.752 18.6068 10.7479L18.55 10.752C18.5378 10.752 18.5338 10.7314 18.55 10.7355C18.5662 10.7355 18.5662 10.7148 18.5581 10.7066L18.5135 10.5826ZM18.5946 10.6859C18.5987 10.6983 18.6028 10.7148 18.6149 10.7272H18.6555C18.6758 10.7272 18.6839 10.7066 18.6839 10.6901C18.6821 10.6597 18.6738 10.63 18.6595 10.6033C18.6433 10.5744 18.619 10.5537 18.5865 10.5454C18.5731 10.5431 18.5594 10.5431 18.546 10.5454C18.5419 10.5454 18.546 10.5537 18.546 10.562L18.5946 10.6859ZM17.7387 11.1983C17.7387 11.2107 17.7549 11.2231 17.7711 11.2231C17.7793 11.2231 17.7995 11.2231 17.7995 11.2396C17.7914 11.2479 17.7752 11.2396 17.7671 11.2396L17.7062 11.2479H17.6697C17.6616 11.2479 17.6616 11.2313 17.6738 11.2313C17.6859 11.2313 17.6981 11.2272 17.6981 11.2148L17.69 11.1818L17.6413 11.0661C17.6413 11.0537 17.6251 11.0537 17.6129 11.0537C17.6048 11.0537 17.5886 11.0578 17.5845 11.0454C17.5845 11.033 17.6048 11.0371 17.6129 11.0289L17.6535 11.0165C17.6616 11.0165 17.6657 11.0206 17.6657 11.0289L17.7387 11.1983ZM17.7671 11.0124H17.8482C17.8644 11.0124 17.8563 10.9917 17.8644 10.9917C17.8807 10.9917 17.8807 11.0124 17.8807 11.0206C17.8807 11.0371 17.8685 11.0495 17.8563 11.0454H17.7955L17.8158 11.095L17.8401 11.0867C17.8807 11.0867 17.9293 11.1115 17.9456 11.1528C17.9537 11.1735 17.9577 11.1942 17.9456 11.2148C17.9293 11.2355 17.905 11.2396 17.8807 11.2396C17.8604 11.2396 17.8401 11.2355 17.8239 11.2148C17.8198 11.2066 17.8198 11.1859 17.832 11.19C17.8482 11.19 17.8604 11.1983 17.8604 11.2148C17.8644 11.2231 17.8807 11.219 17.8888 11.219C17.9009 11.219 17.9131 11.2107 17.9131 11.1983C17.9131 11.1776 17.905 11.157 17.8928 11.1404C17.8847 11.1239 17.8644 11.1115 17.8401 11.1115L17.8076 11.1157C17.7955 11.1157 17.7955 11.1033 17.7914 11.095L17.763 11.0165L17.7711 11.0124H17.7671ZM18.047 11.0537C18.0389 11.0371 18.0308 11.0165 18.0105 11.0124C18.0024 11.0124 17.9821 11.0082 17.9943 10.9958H18.0592C18.0876 10.9876 18.12 10.9917 18.1443 11C18.2052 11.0206 18.2539 11.0743 18.266 11.1404C18.266 11.1652 18.262 11.19 18.2377 11.2066C18.2093 11.2231 18.1727 11.219 18.1403 11.219L18.0876 11.2272C18.0754 11.2272 18.0713 11.2066 18.0876 11.2066C18.0997 11.2066 18.0997 11.19 18.0957 11.1776L18.047 11.0537ZM18.1281 11.157C18.1322 11.1694 18.1403 11.1859 18.1525 11.1983H18.193C18.2093 11.1942 18.2174 11.1735 18.2174 11.157C18.2174 11.128 18.2052 11.0991 18.189 11.0702C18.1727 11.0413 18.1484 11.0206 18.116 11.0165C18.1025 11.0142 18.0888 11.0142 18.0754 11.0165V11.033L18.1281 11.157ZM18.3877 10.9793C18.3999 10.9793 18.404 10.9917 18.408 11C18.408 11.0124 18.4161 11.0206 18.4202 11.033C18.4121 11.0454 18.3999 11.033 18.3959 11.0206C18.3918 11.0124 18.3837 11 18.3715 11H18.3188C18.3107 11.0082 18.3188 11.0206 18.3188 11.0247L18.3431 11.0826C18.3553 11.0826 18.3675 11.0826 18.3756 11.0743C18.3837 11.0661 18.3634 11.0454 18.3837 11.0495C18.3959 11.0495 18.3959 11.0702 18.3999 11.0826L18.4202 11.128C18.4161 11.1446 18.3999 11.128 18.3959 11.1157C18.3918 11.1033 18.3756 11.1033 18.3634 11.1033C18.3553 11.1033 18.3472 11.1033 18.3553 11.1115L18.3796 11.1735C18.3877 11.19 18.408 11.1859 18.4202 11.1859C18.4364 11.1859 18.4527 11.1859 18.4608 11.1735C18.4689 11.1652 18.4527 11.1487 18.4608 11.1404C18.477 11.1404 18.4811 11.1528 18.4811 11.1611L18.4932 11.2024C18.4932 11.2066 18.4811 11.2024 18.477 11.2024L18.3512 11.2107C18.3391 11.2107 18.3228 11.219 18.3147 11.2066C18.3066 11.19 18.335 11.1983 18.3391 11.1859L18.3269 11.1487L18.2823 11.0289C18.2742 11.0165 18.266 11.0041 18.2498 11C18.2417 11 18.2255 11 18.2336 10.9834H18.2742L18.3877 10.9793ZM17.2843 11.5702C17.2884 11.5908 17.3087 11.5991 17.3249 11.6032C17.3574 11.6115 17.3939 11.6239 17.4142 11.6487C17.4263 11.6652 17.4344 11.6859 17.4344 11.7065C17.4344 11.7272 17.4142 11.7437 17.3939 11.7478C17.3736 11.7561 17.3492 11.752 17.3249 11.7437C17.3168 11.7396 17.3208 11.7602 17.3046 11.7561C17.2965 11.7478 17.3006 11.7313 17.2965 11.7189C17.2919 11.7048 17.2865 11.691 17.2803 11.6776C17.2803 11.6652 17.2965 11.6776 17.3006 11.6859C17.3127 11.7107 17.3371 11.7272 17.3655 11.7313C17.3817 11.7313 17.3979 11.7231 17.3979 11.7065C17.3979 11.6859 17.3817 11.6652 17.3655 11.6569C17.3371 11.6445 17.3087 11.6404 17.2843 11.6239C17.2728 11.6171 17.263 11.6075 17.2559 11.596C17.2488 11.5845 17.2447 11.5713 17.2438 11.5578C17.2438 11.5412 17.26 11.5247 17.2762 11.5206C17.2965 11.5123 17.3168 11.5123 17.3411 11.5206C17.3492 11.5206 17.3533 11.5082 17.3655 11.5165C17.3655 11.5247 17.3655 11.533 17.3736 11.5412L17.3858 11.5784C17.3776 11.5867 17.3655 11.5784 17.3655 11.5702C17.3533 11.5536 17.3452 11.5371 17.3249 11.5371C17.3087 11.5371 17.2925 11.5371 17.2843 11.5495V11.5702ZM17.5521 11.4999C17.5683 11.4999 17.5683 11.5123 17.5724 11.5206L17.5805 11.5536C17.5805 11.566 17.5642 11.5536 17.5602 11.5454C17.5561 11.5371 17.548 11.5247 17.5318 11.5247H17.4831C17.475 11.533 17.4831 11.5454 17.4831 11.5495L17.5034 11.6074C17.5156 11.6074 17.5277 11.6074 17.5359 11.5991C17.544 11.5908 17.5277 11.5743 17.5399 11.5702C17.5561 11.5702 17.5561 11.5908 17.5602 11.5991C17.5602 11.6156 17.5724 11.6322 17.5764 11.6528C17.5724 11.6652 17.5561 11.6528 17.5561 11.6404C17.5521 11.628 17.5359 11.6239 17.5237 11.628C17.5156 11.628 17.5075 11.628 17.5115 11.6363L17.5359 11.6983C17.5399 11.7107 17.5521 11.7107 17.5642 11.7107C17.5805 11.7107 17.6008 11.7107 17.6129 11.6983C17.621 11.69 17.6129 11.6735 17.6129 11.6652C17.6251 11.6569 17.6373 11.6652 17.6373 11.6776L17.6454 11.7189C17.6454 11.7272 17.6332 11.7272 17.6292 11.7272L17.5075 11.7355C17.4912 11.7355 17.475 11.7478 17.4669 11.7355C17.4669 11.7189 17.4872 11.7231 17.4912 11.7107C17.4912 11.7024 17.4912 11.69 17.4831 11.6776L17.4425 11.5536C17.4425 11.5412 17.4304 11.5289 17.4142 11.5289C17.406 11.5289 17.3898 11.5247 17.3979 11.5123H17.4385L17.5521 11.4999ZM17.7225 11.6735C17.7265 11.6859 17.7346 11.6983 17.7468 11.7024C17.759 11.7024 17.7752 11.6983 17.7793 11.7107C17.7793 11.7272 17.759 11.7189 17.7509 11.7189C17.7265 11.7189 17.7103 11.7189 17.6859 11.7272C17.6778 11.7272 17.6657 11.7272 17.6616 11.7189C17.6616 11.7024 17.6819 11.7107 17.6859 11.7024L17.6819 11.6693L17.6413 11.5454C17.6332 11.533 17.6292 11.5165 17.6129 11.5165C17.6048 11.5165 17.5886 11.5165 17.5926 11.4999C17.5967 11.4917 17.6089 11.4999 17.621 11.4999C17.6494 11.4999 17.6778 11.4875 17.7103 11.4917C17.7251 11.4927 17.7394 11.4979 17.7516 11.5066C17.7638 11.5153 17.7733 11.5273 17.7793 11.5412C17.7874 11.5578 17.7874 11.5826 17.7793 11.595C17.759 11.6115 17.7346 11.6156 17.7103 11.6198C17.7022 11.6198 17.7103 11.628 17.7103 11.6322L17.7225 11.6735ZM17.6981 11.5991H17.7265C17.7387 11.595 17.7468 11.5826 17.7427 11.5702C17.7427 11.5495 17.7346 11.533 17.7225 11.5206C17.7103 11.5082 17.69 11.5082 17.6778 11.5123C17.6697 11.5165 17.6778 11.5247 17.6778 11.533L17.6981 11.5991ZM17.9496 11.6611C17.9496 11.6693 17.9577 11.6859 17.9699 11.6859C17.978 11.6859 17.9983 11.6859 17.9983 11.6983C17.9983 11.7107 17.978 11.7065 17.9699 11.7065L17.905 11.7107C17.8969 11.7107 17.8847 11.7107 17.8847 11.6983C17.8928 11.69 17.9131 11.6983 17.9131 11.6817L17.901 11.6322L17.8604 11.5123C17.8604 11.4999 17.8442 11.5041 17.832 11.5041C17.8239 11.5041 17.8076 11.5041 17.8036 11.5165V11.5495C17.7955 11.5578 17.7833 11.5495 17.7874 11.5371L17.7711 11.4958C17.7711 11.4834 17.7833 11.4875 17.7914 11.4834L17.9577 11.4751C17.9699 11.4751 17.978 11.4834 17.978 11.4958L17.9943 11.5371C17.9902 11.5454 17.974 11.5371 17.974 11.5289C17.9659 11.5165 17.9537 11.4999 17.9334 11.4999C17.9253 11.4999 17.9131 11.4958 17.901 11.4999L17.9091 11.5289L17.9496 11.6611ZM18.0348 11.5247C18.0308 11.5123 18.0267 11.4958 18.0105 11.4917C18.0024 11.4917 17.9861 11.4917 17.9861 11.4751C17.9902 11.4669 18.0024 11.4751 18.0105 11.4751L18.0835 11.4669C18.0957 11.4627 18.1038 11.4834 18.0916 11.4834C18.0794 11.4834 18.0673 11.4917 18.0713 11.5041L18.0916 11.5702L18.12 11.6611C18.12 11.6693 18.1322 11.6776 18.1403 11.6776C18.1525 11.6776 18.1687 11.6776 18.1646 11.6941H18.1362L18.0713 11.7024C18.0632 11.7024 18.047 11.6941 18.0551 11.6859C18.0632 11.6817 18.0794 11.6859 18.0794 11.6693L18.0673 11.6198L18.0348 11.5247ZM18.2701 11.4586C18.2823 11.4586 18.2823 11.471 18.2863 11.4793L18.2944 11.5123C18.2904 11.5247 18.2742 11.5123 18.2742 11.5041C18.2701 11.4917 18.262 11.4793 18.2458 11.4793H18.2011C18.193 11.4875 18.2011 11.4999 18.2011 11.5082L18.2214 11.5619C18.2295 11.5619 18.2417 11.5619 18.2539 11.5536C18.262 11.5495 18.2458 11.5289 18.2579 11.5289C18.2742 11.5289 18.2742 11.5454 18.2782 11.5536C18.2782 11.5743 18.2904 11.5908 18.2944 11.6074C18.2904 11.6198 18.2742 11.6074 18.2742 11.5991C18.2701 11.5867 18.2539 11.5826 18.2417 11.5826C18.2377 11.5826 18.2214 11.5826 18.2295 11.5908L18.2498 11.6528C18.2539 11.6652 18.2701 11.6693 18.2782 11.6693C18.2944 11.6693 18.3147 11.6693 18.3269 11.6569C18.335 11.6487 18.3269 11.6322 18.331 11.6198C18.3431 11.6156 18.3512 11.6239 18.3512 11.6363L18.3594 11.6776C18.3594 11.6859 18.3512 11.6859 18.3431 11.6859L18.2214 11.69C18.2052 11.69 18.193 11.6983 18.1809 11.69C18.1768 11.6735 18.2011 11.6776 18.2052 11.6693C18.2068 11.6638 18.2073 11.6581 18.2066 11.6524C18.2059 11.6467 18.204 11.6412 18.2011 11.6363L18.1606 11.5123C18.1606 11.4999 18.1484 11.4834 18.1322 11.4834C18.1241 11.4834 18.1078 11.4751 18.116 11.4669H18.1565L18.2742 11.4586H18.2701ZM18.3512 11.4999C18.3472 11.4834 18.335 11.471 18.3188 11.471C18.3066 11.4751 18.2985 11.4462 18.3188 11.4545H18.3796L18.408 11.4917L18.4973 11.6115C18.4892 11.6115 18.4973 11.6032 18.4932 11.5991L18.5094 11.4503C18.5176 11.4421 18.5378 11.4503 18.55 11.4421C18.5622 11.4421 18.5906 11.4421 18.5825 11.4586C18.5662 11.4586 18.55 11.4669 18.5581 11.4834L18.6068 11.6322C18.6068 11.6487 18.623 11.6569 18.6393 11.6528C18.6514 11.6528 18.6514 11.6776 18.6393 11.6735H18.5662C18.5541 11.6776 18.5338 11.6776 18.5378 11.6611C18.55 11.6611 18.5703 11.6528 18.5622 11.6363L18.5216 11.5041C18.5257 11.5082 18.5216 11.5165 18.5216 11.5206L18.5135 11.6445L18.5094 11.6776C18.4973 11.6817 18.4932 11.6735 18.4892 11.6652L18.3715 11.5123L18.3796 11.5247C18.3918 11.566 18.3999 11.6074 18.4161 11.6445C18.4161 11.6611 18.4364 11.6652 18.4486 11.6652C18.4648 11.6735 18.4527 11.6859 18.4405 11.6817H18.3796C18.3675 11.6817 18.3675 11.6652 18.3796 11.6652C18.3999 11.6652 18.3959 11.6445 18.3877 11.6322L18.3512 11.4999ZM18.7042 11.533C18.7042 11.5412 18.7204 11.533 18.7245 11.533C18.7366 11.533 18.7488 11.533 18.7528 11.5165C18.7528 11.4999 18.7447 11.4751 18.7326 11.4669C18.7163 11.4545 18.7001 11.4586 18.6839 11.4586V11.4793L18.7042 11.533ZM18.7245 11.5991L18.7407 11.6404C18.7528 11.6487 18.765 11.6445 18.7772 11.6445C18.7853 11.6445 18.7975 11.6363 18.7934 11.6239C18.7934 11.5991 18.7812 11.5702 18.7569 11.5619H18.7163V11.5743L18.7245 11.5991ZM18.6474 11.4999C18.6433 11.4834 18.6393 11.4669 18.623 11.4586C18.6149 11.4586 18.5987 11.4586 18.5987 11.4462C18.5987 11.4338 18.619 11.4462 18.6271 11.4421C18.6677 11.4421 18.7001 11.4338 18.7366 11.4421C18.765 11.4503 18.7894 11.4793 18.7894 11.5082C18.7894 11.5247 18.7731 11.5371 18.761 11.5454C18.761 11.5371 18.7772 11.5454 18.7812 11.5454C18.8015 11.5536 18.8218 11.5702 18.8299 11.595C18.838 11.6115 18.8421 11.6322 18.8299 11.6487C18.8137 11.6652 18.7894 11.6652 18.7691 11.6652L18.6758 11.6693C18.6636 11.6693 18.6595 11.6487 18.6758 11.6528C18.6879 11.6528 18.692 11.6363 18.6839 11.6239L18.6474 11.4999ZM18.8543 11.4917C18.8543 11.4793 18.8461 11.4586 18.8299 11.4503C18.8218 11.4503 18.8056 11.4503 18.8056 11.4379C18.8137 11.4256 18.8299 11.4379 18.8461 11.4338H18.9273C18.9597 11.4338 18.9881 11.4586 18.9962 11.4917C19.0003 11.5082 18.9962 11.533 18.98 11.5412L18.9638 11.5495C18.9881 11.5578 19.0084 11.5784 19.0206 11.5991L19.0409 11.6322C19.049 11.6404 19.053 11.628 19.053 11.6198C19.0693 11.6115 19.0774 11.6322 19.0693 11.6445C19.0652 11.6611 19.0409 11.6652 19.0287 11.6611C19.0215 11.6607 19.0146 11.6581 19.0088 11.6537C19.003 11.6493 18.9986 11.6432 18.9962 11.6363L18.9557 11.566C18.9435 11.5619 18.9313 11.5536 18.9192 11.5619V11.5784L18.9395 11.628C18.9435 11.6404 18.9597 11.6445 18.9719 11.6445C18.9881 11.6445 18.9881 11.6652 18.9719 11.6611H18.8989C18.8908 11.6611 18.8745 11.6693 18.8705 11.6611C18.8624 11.6404 18.8867 11.6487 18.8948 11.6404L18.8867 11.6032L18.8543 11.4917ZM18.907 11.533C18.9111 11.5454 18.9313 11.533 18.9395 11.533C18.9516 11.533 18.9597 11.5206 18.9557 11.5123C18.9557 11.4917 18.9476 11.471 18.9354 11.4586C18.9232 11.4503 18.907 11.4503 18.8948 11.4545C18.8867 11.4545 18.8908 11.4669 18.8948 11.4751L18.907 11.5289V11.533ZM19.1869 11.4256C19.1991 11.4256 19.1991 11.4379 19.2031 11.4462C19.2031 11.4586 19.2112 11.471 19.2153 11.4793C19.2072 11.4917 19.195 11.4793 19.191 11.471C19.191 11.4627 19.1829 11.4462 19.1666 11.4462H19.1139C19.1058 11.4503 19.1139 11.4627 19.1139 11.471L19.1301 11.5289C19.1423 11.5289 19.1545 11.5289 19.1626 11.5206C19.1747 11.5165 19.1585 11.4999 19.1707 11.4917C19.1869 11.4917 19.1869 11.5082 19.1869 11.5206C19.1869 11.5412 19.1991 11.5578 19.2031 11.5743C19.1991 11.5867 19.1829 11.5743 19.1829 11.566C19.1829 11.5536 19.1666 11.5454 19.1545 11.5495C19.1504 11.5495 19.1342 11.5412 19.1382 11.5495L19.1585 11.6198C19.1626 11.6322 19.1747 11.6322 19.1869 11.6322C19.2031 11.6322 19.2234 11.6322 19.2356 11.6239C19.2437 11.6156 19.2356 11.5991 19.2396 11.5908C19.2518 11.5826 19.264 11.5908 19.2599 11.6032L19.268 11.6445C19.268 11.6528 19.2559 11.6528 19.2518 11.6528H19.1261C19.1139 11.6528 19.1017 11.6611 19.0936 11.6528C19.0814 11.6363 19.1017 11.6404 19.1098 11.6322C19.1179 11.6239 19.1098 11.6115 19.1098 11.6032L19.0733 11.4751C19.0733 11.4627 19.0612 11.4462 19.049 11.4462C19.0368 11.4462 19.0246 11.4421 19.0287 11.4297H19.0693L19.1869 11.4256ZM17.8563 11.9668C17.8563 11.9544 17.8482 11.9338 17.832 11.9255C17.8198 11.9255 17.8036 11.9255 17.8117 11.9131L17.8523 11.909C17.8847 11.909 17.9172 11.9007 17.9496 11.909C17.9983 11.9173 18.0429 11.9586 18.0551 12.004C18.0632 12.0371 18.0673 12.0701 18.047 12.0991C18.0267 12.1239 17.9902 12.1321 17.9577 12.1321C17.9293 12.1321 17.905 12.1321 17.8807 12.1404C17.8726 12.1445 17.8563 12.1363 17.8644 12.1239C17.8766 12.1239 17.8928 12.1197 17.8888 12.1032L17.8726 12.0412L17.8563 11.9668ZM17.9212 12.0701C17.9253 12.0825 17.9293 12.0991 17.9375 12.1073C17.9496 12.1156 17.9659 12.1115 17.978 12.1073C17.9943 12.1073 18.0105 12.0908 18.0145 12.0701C18.0177 12.0389 18.0121 12.0074 17.9983 11.9792C17.9931 11.9664 17.9847 11.9552 17.9741 11.9465C17.9635 11.9379 17.9509 11.9321 17.9375 11.9297C17.9227 11.9269 17.9076 11.9269 17.8928 11.9297C17.8888 11.9297 17.8928 11.9379 17.8928 11.9462L17.9212 12.0701ZM18.2093 11.8842C18.2214 11.8842 18.2214 11.8966 18.2255 11.9049L18.2336 11.9421C18.2255 11.9503 18.2133 11.9421 18.2133 11.9338C18.2093 11.9214 18.2011 11.909 18.189 11.909H18.1362C18.1281 11.9131 18.1362 11.9255 18.1362 11.9338C18.1362 11.9544 18.1443 11.9751 18.1484 11.9916C18.1606 11.9916 18.1727 11.9916 18.1809 11.9834C18.189 11.9751 18.1768 11.9586 18.189 11.9544C18.2052 11.9544 18.2011 11.9751 18.2052 11.9834L18.2174 12.0371C18.2174 12.0495 18.1971 12.0371 18.1971 12.0288C18.1971 12.0164 18.1809 12.0082 18.1687 12.0123C18.1646 12.0123 18.1484 12.0082 18.1565 12.0164C18.1565 12.0371 18.1646 12.0577 18.1727 12.0825C18.1727 12.0949 18.189 12.0949 18.2011 12.0949C18.2174 12.0949 18.2377 12.0949 18.2498 12.0825C18.2579 12.0743 18.2498 12.0577 18.2579 12.0495C18.266 12.0412 18.2742 12.0536 18.2742 12.066C18.2742 12.0784 18.2742 12.0908 18.2823 12.1073C18.2782 12.1156 18.2701 12.1115 18.262 12.1115L18.1403 12.1197C18.1281 12.1197 18.116 12.128 18.1038 12.1197C18.0957 12.1115 18.1078 12.1032 18.12 12.1032C18.1322 12.0991 18.1281 12.0825 18.1241 12.0743L18.0957 11.9421C18.0916 11.9297 18.0835 11.9131 18.0713 11.9131C18.0592 11.9131 18.047 11.909 18.051 11.8966H18.0916L18.2093 11.8842ZM18.4729 12.0536C18.4729 12.066 18.4851 12.0784 18.4973 12.0825C18.5054 12.0825 18.5216 12.0825 18.5257 12.0908C18.5297 12.1032 18.5094 12.0991 18.5013 12.0991L18.4324 12.1032C18.4202 12.1032 18.408 12.1073 18.3999 12.1032C18.3877 12.1032 18.3918 12.0867 18.404 12.0867C18.4161 12.0867 18.4283 12.0825 18.4324 12.0701L18.4283 12.0371L18.3999 11.9214C18.3999 11.909 18.3877 11.909 18.3756 11.909C18.3675 11.909 18.3512 11.9173 18.3472 11.9049C18.3472 11.8883 18.3675 11.8925 18.3756 11.8883L18.4202 11.8718C18.4283 11.8718 18.4324 11.8759 18.4324 11.8842L18.4729 12.0536ZM18.623 11.9173C18.623 11.9007 18.6109 11.8842 18.5946 11.8842C18.5825 11.8842 18.5662 11.8842 18.5622 11.8966C18.5581 11.9131 18.5622 11.9297 18.5784 11.9379L18.6149 11.9586L18.623 11.9338V11.9173ZM18.6555 12.0371C18.6555 12.0164 18.6311 12.004 18.6149 11.9958C18.6068 11.9958 18.5987 11.9875 18.5946 11.9916C18.5883 11.9962 18.5835 12.0026 18.5806 12.0099C18.5777 12.0172 18.577 12.0252 18.5784 12.033C18.5865 12.0577 18.5987 12.0743 18.619 12.0743C18.6352 12.0784 18.6514 12.0743 18.6595 12.0577V12.0371H18.6555ZM18.6961 12.0288C18.6961 12.0495 18.6879 12.0701 18.6717 12.0825C18.6514 12.0991 18.619 12.0991 18.5906 12.0908C18.5662 12.0867 18.55 12.066 18.5419 12.0412C18.5419 12.0206 18.546 11.9999 18.5622 11.9834C18.5662 11.9834 18.5825 11.9792 18.5703 11.9751C18.55 11.9668 18.5297 11.9503 18.5297 11.9255C18.5216 11.9049 18.5297 11.8842 18.55 11.8718C18.568 11.8624 18.5887 11.8601 18.6082 11.8655C18.6278 11.8708 18.6446 11.8834 18.6555 11.9007C18.6636 11.9173 18.6636 11.9379 18.6555 11.9503L18.6311 11.971C18.6514 11.971 18.6717 11.9875 18.6798 12.004C18.6879 12.0082 18.692 12.0206 18.692 12.0288H18.6961ZM18.8259 12.0536C18.834 12.0536 18.8461 12.0454 18.8461 12.0371C18.8502 12.0288 18.8462 12.0082 18.8583 12.0123C18.8705 12.0123 18.8664 12.0247 18.8705 12.0371C18.8705 12.0536 18.8705 12.0701 18.8543 12.0825C18.8462 12.0908 18.834 12.0867 18.8218 12.0867H18.7528C18.7447 12.0867 18.7326 12.0949 18.7245 12.0867C18.7163 12.0784 18.7245 12.066 18.7245 12.0577C18.7326 12.0288 18.7488 12.0082 18.765 11.9916C18.7812 11.9792 18.7975 11.9668 18.7975 11.9462C18.7975 11.9297 18.7975 11.9131 18.7894 11.8966C18.7865 11.8919 18.7827 11.8879 18.7783 11.8847C18.7738 11.8816 18.7688 11.8794 18.7635 11.8782C18.7582 11.8771 18.7528 11.877 18.7474 11.878C18.7421 11.879 18.7371 11.8812 18.7326 11.8842C18.7204 11.8883 18.7123 11.9049 18.7204 11.9131C18.7285 11.9214 18.7447 11.9131 18.7488 11.9297C18.7569 11.9379 18.7488 11.9544 18.7366 11.9544C18.7204 11.9544 18.7042 11.9421 18.6961 11.9255C18.692 11.9049 18.7001 11.8801 18.7204 11.8677C18.7407 11.8553 18.765 11.8553 18.7894 11.8594C18.8096 11.8677 18.8299 11.8842 18.838 11.909C18.8421 11.9255 18.8421 11.9462 18.834 11.9627C18.8178 11.9916 18.7853 12.004 18.765 12.033C18.761 12.0371 18.7569 12.0454 18.761 12.0577C18.761 12.0454 18.7772 12.0495 18.7812 12.0495L18.8259 12.0536ZM18.9841 12.0371C18.9841 12.0454 18.9962 12.0577 19.0084 12.0619C19.0165 12.0619 19.0328 12.0619 19.0368 12.0701C19.0449 12.0825 19.0246 12.0825 19.0165 12.0825H18.907C18.8989 12.0784 18.907 12.0619 18.9151 12.066C18.9273 12.066 18.9395 12.0619 18.9435 12.0495V12.0164L18.9151 11.9007C18.9151 11.8883 18.9029 11.8883 18.8948 11.8883C18.8827 11.8883 18.8705 11.8966 18.8664 11.8883C18.8583 11.8718 18.8786 11.8718 18.8867 11.8677L18.9354 11.8511C18.9476 11.8511 18.9476 11.8553 18.9516 11.8635L18.9841 12.0371Z" fill="#B07E09"/>
<path d="M17.8249 8.66553L17.6707 8.8556C17.6221 9.07046 17.7438 9.23574 17.9831 9.37623C18.1738 9.50019 18.5308 9.52912 18.6443 9.42995L18.0886 8.89279L17.8249 8.66553Z" fill="url(#paint9_radial_11930_67985)" stroke="#4C0505" stroke-width="0.0081883"/>
<path d="M18.9526 14.2396L18.8714 14.1363C18.5189 14.6237 18.0662 15.027 17.5449 15.318C18.1575 15.1445 18.5591 14.69 18.9526 14.2396ZM18.3238 15.7147C18.552 15.2598 18.7983 14.8146 19.0621 14.3801L18.9769 14.2685C18.6767 14.7726 18.3279 15.3717 18.3279 15.7147H18.3238ZM20.0195 10.9836C19.981 10.7985 19.9225 10.6183 19.845 10.4464C19.4101 9.69955 18.7995 9.07474 18.0682 8.62832V8.61592H18.0845L18.0804 8.61179H18.0966L18.0885 8.5994H18.1047L18.0926 8.58287H18.1088L18.0966 8.57047H18.1169L18.1047 8.55394H18.121L18.1047 8.54155L18.1291 8.53742L18.1088 8.52502L18.1291 8.52089L18.1129 8.50849L18.1372 8.50023L18.1169 8.48783L18.1412 8.47544L18.1169 8.45891L18.1453 8.45064L18.1129 8.43825L18.1412 8.42172H18.1088L18.1291 8.3928H18.1007L18.1129 8.37214H18.0885L18.1007 8.35148L18.0723 8.35561L18.0845 8.33082L18.0601 8.34734L18.0682 8.31842L18.0398 8.33495L18.0439 8.30602L18.0196 8.32668L18.0236 8.29776L18.0033 8.31842V8.2895L17.983 8.31429V8.28536L17.9668 8.30602L17.9587 8.28123L17.9425 8.30602L17.9384 8.2771L17.9262 8.30602L17.9181 8.2771L17.906 8.30602L17.8979 8.28123L17.8897 8.30602L17.8816 8.28123L17.8735 8.31429L17.8654 8.28536L17.8532 8.31842L17.8411 8.2895V8.32255L17.8248 8.29363V8.32668L17.8045 8.30189V8.33495L17.7883 8.31016V8.33908L17.7721 8.32668L17.7802 8.35561L17.7599 8.34321L17.768 8.368L17.7518 8.35974L17.7559 8.38453H17.7396L17.7478 8.40106H17.7356L17.7437 8.41759C17.729 8.46423 17.7235 8.51338 17.7275 8.56221C17.7275 8.57047 17.7518 8.57874 17.7559 8.587C17.768 8.60353 17.764 8.61179 17.764 8.61179C17.6991 8.71922 17.6423 8.80186 17.6382 8.92582C17.6869 8.85971 17.7437 8.77707 17.8167 8.77707C17.7802 8.83905 17.764 9.02912 17.8045 9.05805L17.837 9.00433C17.837 9.04565 17.8411 9.07871 17.8532 9.09937C17.8654 9.07458 17.8776 9.04565 17.8938 9.02912C17.8938 9.0911 17.9019 9.14069 17.9181 9.16548C17.9384 9.13242 17.9587 9.1159 17.983 9.09937C17.9749 9.13656 17.9628 9.16961 17.9709 9.21093C17.9952 9.16961 18.0195 9.14069 18.0479 9.10763C18.0317 9.17374 18.0479 9.22333 18.0642 9.29357C18.0804 9.21093 18.0885 9.19854 18.125 9.16548C18.1291 9.24399 18.1169 9.31423 18.1331 9.35968C18.1656 9.28944 18.1899 9.2977 18.2143 9.25225C18.2062 9.31836 18.194 9.38861 18.2143 9.44646C18.2261 9.40219 18.2535 9.36392 18.2913 9.33902C18.2913 9.42993 18.3116 9.4134 18.2589 9.49191C18.2832 9.50017 18.3603 9.47538 18.4049 9.45472C18.3846 9.5043 18.3887 9.54149 18.3684 9.57868C18.409 9.55389 18.4496 9.5167 18.4861 9.47951C18.4698 9.53736 18.4252 9.59521 18.4455 9.64892C18.4577 9.59521 18.4982 9.55389 18.5388 9.54562C18.5307 9.57455 18.5266 9.63653 18.4861 9.66545C18.5834 9.67372 18.624 9.6076 18.6727 9.55389C18.6686 9.6076 18.6727 9.65306 18.7376 9.73156C18.7254 9.6324 18.7457 9.65306 18.7903 9.59521C18.8147 9.68198 18.839 9.77702 18.9282 9.84313C18.8877 9.74809 18.8877 9.69851 18.9039 9.64066C18.9161 9.70264 18.9729 9.77702 18.985 9.83073C18.9972 9.76875 19.0053 9.70677 19.0256 9.66545C19.0554 9.73938 19.0745 9.81732 19.0824 9.89684C19.1027 9.85552 19.1189 9.8142 19.127 9.77288C19.9302 10.6199 20.1087 11.7025 19.2284 12.8471C19.5449 12.6322 19.626 12.2893 19.8004 11.9959C19.63 12.3802 19.557 12.8099 19.2528 13.1281C19.5449 12.8719 19.6057 12.6364 19.7801 12.3884C19.5976 12.9049 19.3339 13.471 18.9769 13.9917L19.1716 14.2065L19.3339 13.9214C19.7152 13.2851 20.3359 12.3719 20.0235 10.9836H20.0195Z" fill="#448127" stroke="#34541F" stroke-width="0.0081883"/>
<path d="M17.7221 8.496C17.6815 8.50426 17.6653 8.52079 17.6328 8.55385C17.6734 8.56211 17.7018 8.56624 17.7383 8.56624C17.7464 8.56624 17.7505 8.54972 17.7505 8.54145L17.7423 8.50013C17.7423 8.49187 17.718 8.496 17.7099 8.50013L17.7221 8.496Z" fill="#EAC102" stroke="#A08307" stroke-width="0.0081883"/>
<path d="M17.6328 8.55386C17.6617 8.54354 17.6916 8.5366 17.7221 8.5332C17.6932 8.54357 17.6632 8.5505 17.6328 8.55386Z" fill="#A08307"/>
<path d="M17.905 8.5334C17.9229 8.5334 17.9375 8.5186 17.9375 8.50034C17.9375 8.48208 17.9229 8.46729 17.905 8.46729C17.8871 8.46729 17.8726 8.48208 17.8726 8.50034C17.8726 8.5186 17.8871 8.5334 17.905 8.5334Z" fill="black" stroke="black" stroke-width="0.00409415"/>
<path d="M17.9126 8.51255C17.9193 8.51255 17.9247 8.50515 17.9247 8.49602C17.9247 8.48689 17.9193 8.47949 17.9126 8.47949C17.9058 8.47949 17.9004 8.48689 17.9004 8.49602C17.9004 8.50515 17.9058 8.51255 17.9126 8.51255Z" fill="url(#paint10_radial_11930_67985)"/>
<path d="M18.3282 15.7023C18.4018 15.4546 18.5025 15.2162 18.6284 14.9916C18.7186 14.8201 18.8146 14.652 18.9164 14.4874L19.0219 14.3222L18.9205 14.4874C18.823 14.6552 18.7283 14.8246 18.6365 14.9957C18.5179 15.2222 18.4148 15.457 18.3282 15.6981V15.7023ZM17.5615 15.3097C18.0355 15.0998 18.4499 14.7715 18.7663 14.3552C18.6065 14.5095 18.4549 14.6722 18.312 14.8428C18.0872 15.0372 17.834 15.1947 17.5615 15.3097ZM19.0747 14.099C19.1071 14.0577 19.1355 14.0081 19.1639 13.9627C19.251 13.8259 19.3322 13.6852 19.4073 13.5412C19.4641 13.4462 19.5128 13.347 19.5615 13.252L19.7115 12.9627L19.6426 13.1074L19.5696 13.2561C19.4712 13.4494 19.3671 13.6396 19.2572 13.8263C19.2002 13.9198 19.1393 14.0108 19.0747 14.099ZM19.314 13.0619C19.4531 12.8942 19.5691 12.7079 19.6588 12.5082C19.7907 12.2072 19.8729 11.8861 19.9022 11.5579C19.8989 11.6129 19.8975 11.668 19.8982 11.7231C19.864 11.9965 19.7844 12.262 19.6629 12.5082C19.5713 12.7078 19.454 12.894 19.314 13.0619Z" fill="#34541F"/>
<path d="M19.249 12.8224C19.3909 12.6688 19.5098 12.4947 19.602 12.3059C19.6698 12.165 19.7294 12.0201 19.7804 11.872L19.7926 11.8348L19.8048 11.7976L19.8291 11.7232C19.8707 11.5135 19.8734 11.2977 19.8372 11.0869C19.8397 11.1935 19.8492 11.2998 19.8656 11.4051C19.8656 11.5125 19.8575 11.6199 19.8372 11.7232C19.8251 11.748 19.821 11.777 19.8129 11.8017L19.8007 11.8389L19.7845 11.8761C19.7286 12.0236 19.6691 12.1697 19.606 12.3141C19.5613 12.4088 19.5098 12.4999 19.4519 12.5868C19.3928 12.6738 19.3248 12.7542 19.249 12.8265V12.8224Z" fill="#34541F"/>
<path d="M19.0098 14.029C19.0625 13.9628 19.1071 13.8926 19.1558 13.8224L19.2288 13.7191L19.2978 13.6158L19.4195 13.3926L19.525 13.1654C19.598 13.0125 19.6669 12.8596 19.7278 12.6984C19.8491 12.384 19.9217 12.0522 19.9428 11.715C19.977 11.3779 19.941 11.0372 19.8373 10.7151C19.9518 11.0347 19.9907 11.3773 19.9509 11.715C19.9294 12.0535 19.8569 12.3866 19.7359 12.7026C19.6751 12.8596 19.6061 13.0125 19.5331 13.1654L19.4195 13.3926C19.383 13.4711 19.3465 13.5455 19.3018 13.6158C19.2816 13.6571 19.2572 13.686 19.2329 13.7232L19.1599 13.8265L19.0138 14.0331L19.0098 14.029Z" fill="#34541F"/>
<path d="M19.1234 14.157C19.3142 13.839 19.4955 13.5152 19.6669 13.1859C19.9147 12.6842 20.036 12.1276 20.0199 11.5662C20.0199 11.3803 20.0036 11.1943 19.9712 11.0125C19.9725 11.0125 19.9739 11.0125 19.9753 11.0125C20.0118 11.1943 20.0239 11.3844 20.0239 11.5662C20.0229 11.9389 19.9738 12.3098 19.8779 12.6694C19.8245 12.8484 19.7567 13.0225 19.6751 13.1901C19.5022 13.518 19.3196 13.8404 19.1274 14.157H19.1234ZM17.9956 8.72339H18.0524C18.1102 8.73265 18.1663 8.75076 18.2187 8.7771C18.3542 8.85052 18.4775 8.94536 18.5838 9.05808C18.476 8.94928 18.353 8.85737 18.2187 8.78537C18.1478 8.7534 18.0726 8.7325 17.9956 8.72339Z" fill="#34541F"/>
<path d="M18.6646 9.16964C18.6646 9.16964 18.7863 9.24402 18.8553 9.35145C18.8553 9.35145 18.6646 9.31426 18.5308 9.16138" fill="#448127"/>
<path d="M18.6648 9.16964C18.7425 9.21431 18.8091 9.2765 18.8595 9.35145L18.8636 9.35971H18.8554C18.7923 9.34509 18.732 9.31996 18.677 9.28534C18.6202 9.25228 18.5715 9.21096 18.5269 9.16138C18.5935 9.23202 18.6755 9.28579 18.7662 9.31839L18.8554 9.34732V9.35558C18.831 9.31677 18.8009 9.28195 18.7662 9.25228C18.7349 9.22167 18.701 9.19401 18.6648 9.16964Z" fill="#34541F"/>
<path d="M18.3887 9.13257C18.3887 9.13257 18.6808 9.32264 18.7254 9.33917C18.7254 9.33917 18.6564 9.19455 18.5185 9.13257" fill="#448127"/>
<path d="M18.3887 9.13255L18.555 9.23585C18.5966 9.26113 18.6386 9.28592 18.6807 9.31023L18.7213 9.33502V9.33915C18.6997 9.29462 18.6709 9.25411 18.6361 9.21932C18.602 9.18387 18.5622 9.15454 18.5185 9.13255C18.5644 9.1508 18.606 9.179 18.6402 9.21519C18.6752 9.25137 18.704 9.29327 18.7254 9.33915L18.7335 9.34741L18.7213 9.34328L18.6361 9.2937C18.5524 9.24061 18.4699 9.1855 18.3887 9.12842V9.13255Z" fill="#34541F"/>
<path d="M18.5066 9.03735C18.5066 9.03735 18.6567 9.10347 18.6932 9.21503C18.6932 9.21503 18.4173 9.09933 18.3687 9.03735" fill="#448127"/>
<path d="M18.5066 9.03735C18.5475 9.05342 18.5858 9.07571 18.6202 9.10347L18.6648 9.15305L18.6972 9.21503V9.22329H18.6891C18.592 9.17731 18.4972 9.12628 18.4052 9.07041L18.3687 9.03735L18.4052 9.06628L18.4457 9.09107C18.5242 9.14025 18.607 9.18175 18.6932 9.21503H18.6891C18.681 9.1985 18.6729 9.17371 18.6567 9.16131C18.6465 9.14223 18.6327 9.12538 18.6161 9.11173C18.5835 9.08146 18.5466 9.05639 18.5066 9.03735Z" fill="#34541F"/>
<path d="M18.2749 9.15723C18.2749 9.15723 18.5426 9.35143 18.6238 9.35143C18.6238 9.35143 18.5426 9.21507 18.4047 9.15723" fill="#448127"/>
<path d="M18.2749 9.15723C18.3729 9.21995 18.4731 9.27921 18.5751 9.3349L18.6238 9.3473L18.6197 9.35556C18.5943 9.31255 18.5629 9.27357 18.5264 9.23987C18.4898 9.2067 18.4489 9.17888 18.4047 9.15723C18.4744 9.1849 18.5359 9.23045 18.5832 9.28945L18.6238 9.35143L18.6319 9.35556H18.6238C18.6035 9.35556 18.5873 9.35143 18.571 9.34317L18.5305 9.32251C18.4395 9.27734 18.3537 9.2219 18.2749 9.15723Z" fill="#34541F"/>
<path d="M18.2749 9.215C18.2749 9.215 18.4128 9.33896 18.494 9.33896C18.494 9.33896 18.4128 9.20261 18.2749 9.14062" fill="#448127"/>
<path d="M18.2749 9.21502C18.3264 9.25347 18.3807 9.288 18.4372 9.31832L18.4615 9.32658L18.494 9.33485L18.4899 9.33898C18.4642 9.29743 18.4328 9.25986 18.3966 9.22742C18.36 9.19424 18.319 9.16643 18.2749 9.14478C18.3441 9.17128 18.4056 9.21538 18.4534 9.27287L18.494 9.33485L18.5021 9.34311H18.494C18.4714 9.34225 18.4493 9.33663 18.4291 9.32658C18.3909 9.30814 18.3555 9.28451 18.3236 9.25634C18.3048 9.24596 18.2883 9.23192 18.2749 9.21502Z" fill="#34541F"/>
<path d="M18.2021 8.94653C18.2021 8.94653 18.4942 9.15727 18.5267 9.27296C18.5267 9.27296 18.2671 9.149 18.2184 9.08702" fill="#448127"/>
<path d="M18.2021 8.94653C18.312 9.0272 18.4139 9.11853 18.5064 9.21925L18.5348 9.26883V9.28123L18.5267 9.27709C18.4322 9.22802 18.3401 9.17424 18.2508 9.11595L18.2914 9.14074C18.3687 9.18942 18.4502 9.23091 18.5348 9.2647L18.5267 9.27296L18.4983 9.22338C18.4391 9.14642 18.371 9.07705 18.2955 9.01678L18.2021 8.94653Z" fill="#34541F"/>
<path d="M16.5746 14.9007C16.3195 15.0366 16.0349 15.1048 15.7471 15.099C16.1527 14.7602 16.5462 14.7519 16.5746 14.9007ZM19.4062 15.0866C19.6171 15.2808 20.2581 15.4172 20.3595 15.3924C19.9295 14.9503 19.463 14.9048 19.4062 15.0866Z" fill="#406325" stroke="#24420E" stroke-width="0.0081883"/>
<path d="M16.5746 14.9008C16.5462 14.7479 16.1487 14.7603 15.7471 15.0991C16.0115 14.9908 16.2905 14.924 16.5746 14.9008ZM19.4102 15.0826C19.467 14.9008 19.9295 14.9462 20.3595 15.3925C20.0597 15.2424 19.7398 15.1379 19.4102 15.0826Z" fill="#67923D" stroke="#24420E" stroke-width="0.0081883"/>
</g>
<defs>
<radialGradient id="paint0_radial_11930_67985" cx="0" cy="0" r="1" gradientUnits="userSpaceOnUse" gradientTransform="translate(16.6762 12.3387) scale(0.669348 0.681781)">
<stop offset="0.2" stop-color="#F9F0AA"/>
<stop offset="1" stop-color="#B07E09"/>
</radialGradient>
<radialGradient id="paint1_radial_11930_67985" cx="0" cy="0" r="1" gradientUnits="userSpaceOnUse" gradientTransform="translate(16.8464 12.5329) scale(0.442175 0.450387)">
<stop offset="0.2" stop-color="#F9F0AA"/>
<stop offset="1" stop-color="#B07E09"/>
</radialGradient>
<radialGradient id="paint2_radial_11930_67985" cx="0" cy="0" r="1" gradientUnits="userSpaceOnUse" gradientTransform="translate(16.9479 12.3512) scale(0.397552 0.404936)">
<stop offset="0.2" stop-color="#F9F0AA"/>
<stop offset="1" stop-color="#B07E09"/>
</radialGradient>
<radialGradient id="paint3_radial_11930_67985" cx="0" cy="0" r="1" gradientUnits="userSpaceOnUse" gradientTransform="translate(17.1222 12.2893) scale(0.705856 0.718968)">
<stop offset="0.2" stop-color="#F9F0AA"/>
<stop offset="1" stop-color="#B07E09"/>
</radialGradient>
<linearGradient id="paint4_linear_11930_67985" x1="17.751" y1="10.31" x2="17.6879" y2="9.18623" gradientUnits="userSpaceOnUse">
<stop offset="0.2" stop-color="#B07E09" stop-opacity="0"/>
<stop offset="1" stop-color="#B07E09"/>
</linearGradient>
<linearGradient id="paint5_linear_11930_67985" x1="18.1241" y1="11.8594" x2="18.2251" y2="13.0946" gradientUnits="userSpaceOnUse">
<stop offset="0.2" stop-color="#B07E09" stop-opacity="0"/>
<stop offset="1" stop-color="#B07E09"/>
</linearGradient>
<radialGradient id="paint6_radial_11930_67985" cx="0" cy="0" r="1" gradientUnits="userSpaceOnUse" gradientTransform="translate(16.6193 10.029) scale(0.527365 0.53716)">
<stop offset="0.2" stop-color="#F9F0AA"/>
<stop offset="1" stop-color="#B07E09"/>
</radialGradient>
<linearGradient id="paint7_linear_11930_67985" x1="16.8421" y1="9.90921" x2="17.0053" y2="9.54366" gradientUnits="userSpaceOnUse">
<stop offset="0.2" stop-color="#F9F0AA"/>
<stop offset="1" stop-color="#B07E09"/>
</linearGradient>
<linearGradient id="paint8_linear_11930_67985" x1="17.7265" y1="9.40094" x2="17.8359" y2="10.7724" gradientUnits="userSpaceOnUse">
<stop offset="0.2" stop-color="#F9F0AA"/>
<stop offset="1" stop-color="#B07E09"/>
</linearGradient>
<radialGradient id="paint9_radial_11930_67985" cx="0" cy="0" r="1" gradientUnits="userSpaceOnUse" gradientTransform="translate(17.9101 8.49612) scale(0.0121699 0.012396)">
<stop offset="0.3" stop-color="#A50A0A"/>
<stop offset="1" stop-color="#4C0505"/>
</radialGradient>
<radialGradient id="paint10_radial_11930_67985" cx="0" cy="0" r="1" gradientUnits="userSpaceOnUse" gradientTransform="translate(17.9119 8.49328) scale(0.011891 0.0126869)">
<stop stop-color="white"/>
<stop offset="1" stop-color="white" stop-opacity="0"/>
</radialGradient>
<clipPath id="clip0_11930_67985">
<rect width="36" height="24" rx="2" fill="white"/>
</clipPath>
</defs>
</svg>
