<svg width="36" height="24" viewBox="0 0 36 24" fill="none" xmlns="http://www.w3.org/2000/svg">
<rect width="36" height="24" rx="2" fill="#BE0027"/>
<path fill-rule="evenodd" clip-rule="evenodd" d="M1.44019 1.36499H34.5996V22.785H1.44019V1.36499Z" fill="#3B5AA3"/>
<path fill-rule="evenodd" clip-rule="evenodd" d="M17.7201 20.66C17.7856 20.6912 17.857 20.7078 17.9296 20.7087C18.0021 20.7096 18.0739 20.6947 18.1401 20.665C25.0301 17 25.0301 6.94997 18.1451 3.33497C18.0765 3.30375 18.0018 3.28844 17.9265 3.29017C17.8511 3.2919 17.7772 3.31064 17.7101 3.34497C10.9951 7.01497 10.9751 16.95 17.7151 20.66H17.7201Z" fill="#CBE0E5"/>
<path fill-rule="evenodd" clip-rule="evenodd" d="M17.7201 20.8449C17.8201 20.9299 18.0401 20.9199 18.1401 20.8449C23.2151 17.0449 23.2401 14.6799 23.0201 14.6799H12.9701C12.8201 14.6799 13.0601 17.0899 17.7201 20.8449Z" fill="#ADD2D9"/>
<path fill-rule="evenodd" clip-rule="evenodd" d="M13.7652 16.5599C14.2248 16.4158 14.7214 16.4461 15.1602 16.6449C15.5402 16.8449 15.7602 16.8449 16.1702 16.8449C16.6002 16.8549 16.9352 17.1699 17.4002 17.1849C18.2552 17.2049 18.6152 17.6299 17.9502 17.6349C17.6402 17.6349 16.9652 17.4199 16.6402 17.4649C15.9602 17.5349 15.5302 17.6849 14.8902 18.3999L15.6302 18.8999C16.2702 18.6449 16.3752 18.3499 16.7302 18.3399C17.1302 18.3249 17.2652 18.0799 17.7302 18.0799C18.2853 18.1263 18.8443 18.0721 19.3802 17.9199C20.1202 17.7499 19.7702 17.2299 19.3202 17.0449C18.9552 16.8899 18.2802 17.0399 17.8602 16.8849C17.5402 16.7599 17.8002 16.5599 17.9752 16.5199C18.1452 16.4849 18.3302 16.5449 18.5452 16.5799C18.9302 16.6099 19.4152 16.5749 19.7502 16.5199C20.4502 16.4149 20.4202 16.2099 20.7502 16.2049C21.0002 16.1899 21.1852 16.1199 21.3502 15.9999C21.5502 15.8649 21.7552 15.5999 21.9952 15.6099L22.6302 15.6349L21.7302 17.6549L19.1952 20.2399L17.8802 20.7399L14.9902 18.8549L13.5352 16.6199L13.7652 16.5599Z" fill="#FDF9A1"/>
<path fill-rule="evenodd" clip-rule="evenodd" d="M17.0902 14.6L22.8902 14.57L22.9902 14.055C22.9902 14.055 22.7852 14.025 22.6152 14.015C22.4102 14 22.0502 14.235 21.8152 14.23C21.6402 14.23 21.4502 13.93 21.2802 13.93C20.9802 13.93 20.9602 14.195 20.6802 14.205C20.4552 14.195 20.3602 14.025 20.0652 14.045C19.7652 14.06 19.7852 14.23 19.4002 14.22C18.8902 14.205 18.6852 13.765 18.2752 13.76C17.5952 13.75 17.5752 14.41 17.0852 14.595L17.0902 14.6Z" fill="#179A3B"/>
<path fill-rule="evenodd" clip-rule="evenodd" d="M17.0902 14.7199L23.0602 14.6899V14.5299L16.9502 14.5599L17.0902 14.7199Z" fill="#FDF9A1"/>
<path fill-rule="evenodd" clip-rule="evenodd" d="M19.5402 16.5149C19.6352 16.8649 19.7302 16.9849 20.1002 17.0799C20.4652 17.1649 21.0252 16.8099 20.6802 16.4649C20.3502 16.1449 20.0002 16.0649 19.7052 15.7749C19.0802 15.1599 18.1402 13.6499 18.1402 12.5849C18.1402 11.6699 18.0502 9.7949 18.0502 8.0199C18.0502 7.9049 17.7002 8.3399 17.7002 8.4599C17.7202 10.0249 17.7202 11.2099 17.7802 12.7899C17.8802 13.9449 18.4302 14.7249 18.9152 15.4249C19.1302 15.7649 19.4452 16.1249 19.5402 16.5149Z" fill="#A79270"/>
<path fill-rule="evenodd" clip-rule="evenodd" d="M14.9802 8.0449C14.9052 8.1949 15.1602 7.9999 15.2202 7.9799C15.5552 7.8599 15.6852 7.4399 16.2602 7.6949C16.7102 7.8899 17.3152 7.7749 17.0002 7.9749C16.6102 8.2099 15.8252 8.4699 15.8102 9.6349C15.8752 9.7449 15.8802 9.7299 15.9352 9.6049C16.0552 9.3349 16.6202 8.5999 16.9002 8.6599C17.0152 8.6899 17.3452 8.3249 17.3502 8.4299C17.3852 8.7199 16.9002 9.3099 16.9102 10.0949C16.9102 10.2799 17.1352 10.3399 17.2402 10.2099C17.3502 10.0949 17.4102 9.9799 17.6002 9.8299C17.9302 9.5599 17.8402 8.3999 17.8802 8.4549C18.1152 8.7549 18.1502 9.6199 18.5002 9.9699C18.7952 10.2649 19.0302 10.1199 18.9652 9.7199C18.8402 8.8999 18.4552 9.1349 18.2702 8.2899C18.2302 8.1249 18.2202 7.9799 18.4402 8.0449C18.7052 8.1249 18.8652 8.2449 19.0602 8.5449C19.2602 8.8349 19.6302 9.1099 19.8452 9.2749C20.2202 9.5649 20.3552 9.3149 20.1752 8.9449C19.9467 8.52469 19.5737 8.20144 19.1252 8.0349C18.8152 7.9249 18.7052 7.9149 18.4352 7.8649C18.3602 7.8499 18.2852 7.6949 18.4152 7.6099C18.7044 7.40139 19.0414 7.26899 19.3952 7.2249C19.7302 7.2149 19.9952 7.4849 20.2302 7.5549C20.7002 7.6749 20.7002 7.3799 20.4902 7.1549C20.3202 6.9699 19.9602 6.6549 19.6252 6.6999C18.9502 6.7849 18.9952 6.7649 18.5752 7.0399C18.4252 7.1299 18.2552 7.2299 18.3202 7.1199C18.4702 6.8449 18.3302 6.8949 18.5652 6.6149C18.7452 6.4149 18.8802 6.2649 19.0652 6.2149C19.2352 6.1699 19.4652 5.9899 19.5302 5.8949C19.7002 5.6649 19.5552 5.5299 19.2952 5.6099C19.0652 5.6699 18.9452 5.8199 18.7952 5.8599C18.4252 5.9799 18.1302 6.8099 18.0852 6.9299C18.0302 7.0699 17.9652 6.9999 17.9752 6.8799C18.0252 6.2949 18.0752 5.3049 17.8752 4.8999C17.5552 4.2999 17.5852 4.5799 17.4652 4.8649C17.2852 5.3149 17.3502 5.7399 17.4652 6.1799C17.5152 6.3999 17.6952 6.6499 17.7302 6.8249C17.7552 6.9599 17.6502 6.7849 17.5902 6.6999C17.3952 6.3999 17.2502 6.1999 16.9302 6.0349C16.6106 5.9034 16.2594 5.86863 15.9202 5.9349C15.8302 5.9649 16.0202 6.0949 16.0952 6.1549C16.3102 6.3249 16.7152 6.3799 16.9952 6.5499C17.2252 6.6949 17.4052 6.7849 17.4852 6.9849C17.5152 7.1349 17.5652 7.3549 17.4652 7.3499C17.2102 7.3349 16.8152 7.1099 15.9952 7.1999C15.5752 7.2599 15.2152 7.6149 14.9802 8.0449Z" fill="#239E46"/>
<path fill-rule="evenodd" clip-rule="evenodd" d="M16.7649 15.5299H16.9999V15.9249H16.7649V15.5299Z" fill="black"/>
<path fill-rule="evenodd" clip-rule="evenodd" d="M15.585 12.8949C16.525 14.1949 18.035 14.9549 18.065 15.5449H15.125C15.8 14.7349 16.215 14.1849 15.585 12.8949Z" fill="#FDF9FF"/>
<path fill-rule="evenodd" clip-rule="evenodd" d="M14.7299 15.5749C16.0099 15.8599 17.5349 16.0199 18.5099 15.5349C18.5199 15.8199 18.1949 16.2349 17.9249 16.2349H15.4749C15.7599 16.1899 15.9249 16.1049 16.3849 16.0849L15.0849 16.0949C14.9349 16.0999 14.6849 15.7149 14.7299 15.5749Z" fill="#A68861"/>
<path fill-rule="evenodd" clip-rule="evenodd" d="M17.6301 21.25C17.7601 21.325 17.9651 21.32 18.0801 21.26C25.4701 17.325 25.4751 6.53998 18.0901 2.65998C18.0162 2.62575 17.9354 2.60886 17.854 2.61059C17.7725 2.61233 17.6925 2.63264 17.6201 2.66998C10.4201 6.60998 10.4001 17.27 17.6301 21.255V21.25ZM17.6651 20.365C17.7272 20.3955 17.7954 20.4118 17.8646 20.4127C17.9338 20.4136 18.0023 20.399 18.0651 20.37C24.2451 16.73 24.3201 7.11498 18.0701 3.66998C17.9501 3.57998 17.7751 3.60998 17.6551 3.66998C11.7351 7.17498 11.4051 16.395 17.6651 20.365Z" fill="#BE0027"/>
<path d="M15.4402 11.2299C15.5585 11.2299 15.6646 11.2543 15.7576 11.3041C15.8881 11.3712 15.9667 11.4943 15.9949 11.6635L16.0027 11.7103H15.7683L15.7615 11.6791C15.7436 11.6016 15.7054 11.5437 15.6482 11.5033L15.6052 11.4808C15.5596 11.4611 15.5036 11.4496 15.4353 11.4496C15.3622 11.4496 15.2963 11.4722 15.2371 11.5179L15.1794 11.5717C15.1123 11.6447 15.075 11.7603 15.075 11.9252C15.075 12.0583 15.1046 12.1663 15.1619 12.2513L15.2117 12.3021C15.2677 12.3463 15.3442 12.3695 15.4451 12.3695C15.5468 12.3695 15.6268 12.341 15.6882 12.2855L15.6892 12.2836C15.7466 12.2361 15.7802 12.1595 15.7869 12.0453H15.4099V11.8295H16.0203V12.5599H15.8435L15.8367 12.5297L15.8132 12.4388C15.7758 12.4769 15.7411 12.5089 15.7048 12.5297H15.7039C15.6231 12.5737 15.5245 12.5951 15.4099 12.5951C15.257 12.5951 15.1226 12.5445 15.0085 12.4447L15.0056 12.4427C14.8838 12.3137 14.825 12.141 14.825 11.9301C14.825 11.7194 14.8825 11.5474 15.0007 11.4183C15.1154 11.2929 15.263 11.2299 15.4402 11.2299Z" fill="#BD0728" stroke="white" stroke-width="0.08"/>
<path d="M16.6602 12.0646C16.6602 12.1056 16.6643 12.1425 16.6719 12.1749L16.7051 12.2599L16.7061 12.2618C16.7444 12.3355 16.8119 12.3751 16.9199 12.3751C17.0456 12.3751 17.1245 12.333 17.1689 12.257C17.1919 12.2111 17.2051 12.1476 17.2051 12.0646V11.2599H17.4551V11.9904C17.455 12.1402 17.4316 12.264 17.3809 12.3585L17.3799 12.3575C17.3012 12.5181 17.1487 12.5948 16.9355 12.5948C16.7429 12.5948 16.5971 12.5352 16.5088 12.4103L16.4746 12.3527C16.431 12.2618 16.4102 12.1397 16.4102 11.9904V11.2589L16.4512 11.2599L16.6211 11.2648L16.6602 11.2657V12.0646Z" fill="#BD0728" stroke="white" stroke-width="0.08"/>
<path d="M18.8628 11.2599L18.8726 11.2863L19.3228 12.5109L19.3423 12.5646H19.0659L19.0571 12.5372L18.9468 12.2003H18.5181L18.3921 12.5392L18.3823 12.5646H18.1323L18.1528 12.5109L18.6128 11.2863L18.6226 11.2599H18.8628ZM18.5933 11.9845H18.8638L18.7329 11.6075L18.5933 11.9845Z" fill="#BD0728" stroke="white" stroke-width="0.08"/>
<path d="M20.1235 11.2599L20.1333 11.2872L20.4399 12.2081L20.7524 11.2872L20.7612 11.2599H21.0649V12.5597H20.8247V11.7325L20.5532 12.5323L20.5435 12.5597H20.3315L20.3218 12.5323L20.0503 11.7325V12.5597H19.8101V11.2599H20.1235Z" fill="#BD0728" stroke="white" stroke-width="0.08"/>
</svg>
