<svg width="36" height="24" viewBox="0 0 36 24" fill="none" xmlns="http://www.w3.org/2000/svg">
<rect width="36" height="24" rx="2" fill="#EC1B2E"/>
<path fill-rule="evenodd" clip-rule="evenodd" d="M19.1369 5.00906C15.1719 4.75406 13.3519 9.94906 17.1019 11.8691C15.8019 10.7491 16.0719 9.10406 16.5969 8.24906L16.6919 8.30406C16.0019 9.47906 16.1319 10.9391 17.2469 11.8541C16.6119 11.2391 16.7719 9.90406 17.8519 9.40906C18.9319 8.91406 19.0319 7.44406 18.6719 6.95406C18.1819 6.10073 18.3369 5.4524 19.1369 5.00906ZM17.2169 8.05406L16.9819 8.42406L16.8919 7.99406L16.4619 7.87906L16.8519 7.66406L16.8219 7.21906L17.1469 7.52406L17.5619 7.35906L17.3769 7.76406L17.6569 8.10406L17.2169 8.05406Z" fill="white"/>
<path fill-rule="evenodd" clip-rule="evenodd" d="M24.6454 11.4671C23.6627 7.61738 18.1596 7.49181 17.4924 11.6516C18.1558 10.0691 19.8037 9.81756 20.7791 10.0527L20.7562 10.16C19.4255 9.86687 18.0771 10.4417 17.5514 11.7848C17.9401 10.9909 19.2592 10.7305 20.0637 11.6047C20.8682 12.4789 22.2972 12.1197 22.652 11.6259C23.3121 10.8962 23.9766 10.8433 24.6454 11.4671ZM21.1562 10.5821L20.7317 10.4729L21.1128 10.2544L21.0893 9.80993L21.4143 10.1144L21.8282 9.94836L21.6386 10.3517L21.9238 10.6954L21.4814 10.6446L21.2446 11.016L21.1562 10.5821Z" fill="white"/>
<path fill-rule="evenodd" clip-rule="evenodd" d="M17.8198 11.9558C21.9822 11.3049 23.5633 16.5775 20.2057 18.7018C20.5923 17.8729 20.3366 17.2573 19.4386 16.8549C18.8594 16.6701 18.0762 15.4221 18.659 14.3868C19.2418 13.3515 18.5865 12.1774 17.7113 12.0531C19.1512 12.138 20.1145 13.2428 20.247 14.5989L20.3562 14.5876C20.2783 13.5873 19.5299 12.0978 17.8198 11.9558ZM19.9418 14.6723L19.9692 15.1098L19.5838 15.3279L20.0102 15.4384L20.0986 15.8748L20.3373 15.4974L20.7795 15.5531L20.4937 15.2107L20.6829 14.8076L20.2674 14.9673L19.9418 14.6723Z" fill="white"/>
<path fill-rule="evenodd" clip-rule="evenodd" d="M11.953 16.715C15.0109 19.2518 19.5368 16.1188 17.6316 12.3612C18.025 14.0315 16.8396 15.2036 15.9124 15.5867L15.8678 15.4864C17.1167 14.9414 17.8697 13.6838 17.5055 12.2882C17.6577 13.1589 16.7436 14.1449 15.5789 13.9106C14.4142 13.6762 13.4692 14.8067 13.4725 15.4147C13.3673 16.3931 12.8608 16.8265 11.953 16.715ZM15.2961 15.38L15.7037 15.2188L15.5238 15.6196L15.8041 15.9654L15.3622 15.9101L15.1249 16.2878L15.0413 15.85L14.6085 15.7395L14.9962 15.5206L14.9696 15.081L15.2961 15.38Z" fill="white"/>
<path fill-rule="evenodd" clip-rule="evenodd" d="M17.1881 12.3077C14.2033 15.2809 9.82492 11.9446 11.2927 8.25247C11.4671 9.15031 12.0358 9.49807 12.9988 9.29575C13.5761 9.10478 14.9432 9.65414 15.0803 10.8342C15.2173 12.0144 16.4375 12.5791 17.2186 12.1652C16.0039 12.9429 14.5751 12.6153 13.6709 11.596L13.5892 11.6694C14.2401 12.4329 15.7212 13.198 17.1881 12.3077ZM13.8746 11.3573L13.5953 11.0195L13.7789 10.6164L13.369 10.7777L13.041 10.4766L13.0697 10.9222L12.6792 11.1371L13.1116 11.2461L13.1956 11.6834L13.4379 11.31L13.8746 11.3573Z" fill="white"/>
</svg>
