<svg width="36" height="24" viewBox="0 0 36 24" fill="none" xmlns="http://www.w3.org/2000/svg">
<rect width="36" height="24" rx="2" fill="#18C3DF"/>
<path d="M0 8H36V16H0V8Z" fill="white"/>
<path d="M11.2679 8.53326L11.5505 9.47532L12.5409 9.45283L11.7264 10.0173L12.0508 10.9437L11.2685 10.3479L10.4865 10.9437L10.8116 10.0149L10 9.45295L10.9845 9.4754L11.2679 8.53326Z" fill="#18C3DF"/>
<path d="M24.6021 8.53326L24.8847 9.47526L25.8668 9.45296L25.0588 10.013L25.3847 10.9436L24.6025 10.3479L23.8217 10.9426L24.1459 10.0151L23.3341 9.45295L24.3187 9.47529L24.6021 8.53326Z" fill="#18C3DF"/>
<path d="M17.4782 12.1498L16.6679 11.5888L17.6512 11.6104L17.9339 10.6683L18.2173 11.6103L19.2073 11.5878L18.3923 12.1526L18.7166 13.0787L17.9347 12.4833L17.1531 13.0787L17.4782 12.1498Z" fill="#18C3DF"/>
<path d="M24.6021 12.5333L24.8847 13.4753L25.8668 13.453L25.0588 14.013L25.3847 14.9436L24.6025 14.3479L23.8217 14.9426L24.1459 14.0151L23.3341 13.453L24.3187 13.4753L24.6021 12.5333Z" fill="#18C3DF"/>
<path d="M11.2679 12.5333L11.5505 13.4753L12.5409 13.4528L11.7264 14.0173L12.0508 14.9437L11.2685 14.3479L10.4865 14.9437L10.8116 14.0149L10 13.453L10.9845 13.4754L11.2679 12.5333Z" fill="#18C3DF"/>
</svg>
