<svg width="36" height="24" viewBox="0 0 36 24" fill="none" xmlns="http://www.w3.org/2000/svg">
<g clip-path="url(#clip0_11930_68022)">
<path d="M0 0H36V24H0V0Z" fill="#D21034"/>
<path d="M0 0H36V12H0V0Z" fill="#00209F"/>
<path d="M17.0054 8.98499H24.5754V15.01H17.0054V8.98499Z" fill="white"/>
<path d="M22.315 13.34L20.765 13.39L19.23 13.405C19.23 13.405 18.44 13.695 18.115 13.76C17.795 13.825 17.835 13.93 17.59 13.99C17.39 14.035 17.365 14.045 17.25 14.055C17.175 14.055 17.09 14.115 17 14.175V15.01H24.575V14.215C24.495 14.17 24.415 14.14 24.335 14.115C24.225 14.075 24.15 14.035 23.95 13.99C23.7 13.935 23.74 13.825 23.42 13.76C23.095 13.695 22.315 13.34 22.315 13.34Z" fill="#016A16" stroke="#016A16" stroke-width="0.015"/>
<path d="M20.3481 11.4801H20.4601L20.6681 12.3361L20.6201 12.6081L20.3481 11.4801Z" fill="#F1B517" stroke="black" stroke-width="0.016"/>
<path d="M20.2285 10.9042L20.3085 11.5682H20.3885L20.2285 10.9122V10.9042Z" fill="white" stroke="black" stroke-width="0.016"/>
<path d="M20.4441 12.3681L20.1001 11.4481L20.2281 11.4401L20.6281 12.5601L20.4441 12.3681Z" fill="#F1B517" stroke="black" stroke-width="0.016"/>
<path d="M19.9399 10.92L20.0839 11.56H20.1959L19.9399 10.92Z" fill="white" stroke="black" stroke-width="0.016"/>
<path d="M20.1399 12.0482L19.9399 11.6082L20.0199 11.5922L20.3959 12.3122L20.1399 12.0482Z" fill="#F1B517" stroke="black" stroke-width="0.016"/>
<path d="M19.6685 11.1041L19.9005 11.7121H20.0125L19.6765 11.1041H19.6685Z" fill="white" stroke="black" stroke-width="0.016"/>
<path d="M20.1725 12.1122L19.2525 11.1122C18.9645 11.3362 19.0205 11.7522 19.0205 11.7522L20.0605 12.5682L20.1725 12.1122Z" fill="#0A328C" stroke="black" stroke-width="0.016"/>
<path d="M20.7001 12.6561L20.0201 11.9681C19.7321 11.9841 19.9561 12.4081 19.9721 12.4641L20.6921 13.0801L20.7001 12.6561Z" fill="#D20014" stroke="black" stroke-width="0.016"/>
<path d="M20.6364 12.5441L19.2364 11.0401L19.1804 11.0801L20.6684 12.7281L20.6364 12.5441ZM19.1564 10.9441L19.1244 10.9041V10.8321L18.8364 10.6481L18.9644 10.9441L19.0684 10.9601L19.0924 10.9921L19.1564 10.9441Z" fill="#F1B517" stroke="black" stroke-width="0.016"/>
<path d="M19.0044 11.0482C19.0633 10.9751 19.1369 10.9151 19.2204 10.8722L19.3004 10.9922L19.1244 11.1362L19.0044 11.0562V11.0482Z" fill="#F1B517" stroke="black" stroke-width="0.016"/>
<path d="M18.8521 11.3041L18.9001 11.3841C18.9321 11.3761 19.2201 11.1041 19.2201 11.1041H19.4361L19.4921 11.0321C19.3321 10.8721 19.1961 11.0561 19.1961 11.0561L18.8521 11.3041Z" fill="#0A328C" stroke="#0A328C" stroke-width="0.016"/>
<path d="M19.0284 11.4401C19.0284 11.3601 19.1724 11.1841 19.1884 11.1761C19.2924 11.2081 19.3884 11.2721 19.5004 11.0321C19.4044 11.1441 19.2204 11.0321 19.2204 11.0321L19.1404 11.0961V11.1281L18.9004 11.3521L19.0284 11.4401Z" fill="#D20014" stroke="#D20014" stroke-width="0.016"/>
<path d="M19.772 12.376L18.62 11.464C18.42 11.664 18.588 12.28 18.588 12.28L19.708 12.888L19.764 12.376H19.772Z" fill="#0A328C" stroke="black" stroke-width="0.016"/>
<path d="M20.7244 13.1202L19.7724 12.3522C19.4524 12.4002 19.7084 12.8722 19.7244 12.9282L20.7244 13.4722V13.1202Z" fill="#D20014" stroke="black" stroke-width="0.016"/>
<path d="M20.6844 12.9602L18.6364 11.4242L18.5964 11.4722L20.7404 13.1522L20.6844 12.9602ZM18.5404 11.3442L18.5084 11.3122L18.4924 11.2482L18.1724 11.1122L18.3564 11.3762H18.4604L18.4924 11.4082L18.5404 11.3442Z" fill="#F1B517" stroke="black" stroke-width="0.016"/>
<path d="M18.4126 11.472C18.4584 11.3904 18.5211 11.3194 18.5966 11.264L18.6926 11.368L18.5486 11.536L18.4126 11.472Z" fill="#F1B517" stroke="black" stroke-width="0.016"/>
<path d="M18.3086 11.7281V11.8161C18.3406 11.8001 18.6046 11.5201 18.6046 11.5201L18.8046 11.4801L18.8526 11.4161C18.7086 11.2481 18.5566 11.4721 18.5566 11.4721L18.3086 11.7281Z" fill="#0A328C" stroke="#0A328C" stroke-width="0.016"/>
<path d="M18.4684 11.88C18.4524 11.8 18.5644 11.576 18.5804 11.56C18.7084 11.6 18.8204 11.656 18.8604 11.4C18.7804 11.528 18.5804 11.432 18.5804 11.432L18.5164 11.512V11.552L18.3164 11.816L18.4684 11.88Z" fill="#D20014" stroke="#D20014" stroke-width="0.016"/>
<path d="M19.6843 12.9361C19.1899 12.658 18.6965 12.378 18.2043 12.0961C18.1003 12.2801 18.1963 12.5361 18.2443 12.5761C18.2443 12.6961 18.1963 12.7601 18.3003 13.0161C18.3323 13.1761 18.4043 13.3281 18.5163 13.4161C18.6443 13.9281 19.1723 13.9681 19.3723 13.5441L19.6843 12.9361Z" fill="#0A328C" stroke="black" stroke-width="0.016"/>
<path d="M20.6521 13.4801L19.6521 12.8961C19.3321 12.9361 19.6521 13.5361 19.6761 13.5921L20.6521 13.9361V13.4801Z" fill="#D20014" stroke="black" stroke-width="0.016"/>
<path d="M20.4843 13.2642L18.2203 12.0642L18.1803 12.1122L20.5803 13.4482L20.4843 13.2642ZM18.1083 12.0002L18.0683 11.9762L18.0443 11.9122L17.7163 11.8322L17.9323 12.0642L18.0283 12.0482L18.0763 12.0722L18.1083 12.0002Z" fill="#F1B517" stroke="black" stroke-width="0.016"/>
<path d="M18.0044 12.1442C18.0364 12.0642 18.0684 11.9922 18.1484 11.9042L18.2604 11.9922L18.1484 12.1842L18.0044 12.1442Z" fill="#F1B517" stroke="black" stroke-width="0.016"/>
<path d="M17.9165 12.4161L17.9645 12.5121L18.2045 12.1441L18.4045 12.0721L18.4445 11.9921C18.2845 11.8481 18.1645 12.1041 18.1645 12.1041L17.9165 12.4161Z" fill="#0A328C" stroke="#0A328C" stroke-width="0.016"/>
<path d="M18.1322 12.5441C18.1162 12.4641 18.1722 12.2081 18.1882 12.2001C18.3082 12.2401 18.4122 12.2481 18.4442 11.9921C18.3642 12.1121 18.1802 12.0721 18.1802 12.0721L18.1242 12.1521L18.1322 12.1841L17.9722 12.5041L18.1322 12.5441Z" fill="#D20014" stroke="#D20014" stroke-width="0.016"/>
<path d="M21.2231 11.4801H21.1111L20.9031 12.3361L20.9511 12.6081L21.2231 11.4801Z" fill="#F1B517" stroke="black" stroke-width="0.016"/>
<path d="M21.3428 10.9042L21.2628 11.5682H21.1828L21.3428 10.9122V10.9042Z" fill="white" stroke="black" stroke-width="0.016"/>
<path d="M21.1272 12.3681L21.4712 11.4481L21.3432 11.4401L20.9432 12.5601L21.1272 12.3681Z" fill="#F1B517" stroke="black" stroke-width="0.016"/>
<path d="M21.6313 10.92L21.4873 11.56H21.3753L21.6313 10.92Z" fill="white" stroke="black" stroke-width="0.016"/>
<path d="M21.4313 12.0482L21.6313 11.6082L21.5513 11.5922L21.1753 12.3122L21.4313 12.0482Z" fill="#F1B517" stroke="black" stroke-width="0.016"/>
<path d="M21.9028 11.1041L21.6708 11.7121H21.5588L21.8948 11.1041H21.9028Z" fill="white" stroke="black" stroke-width="0.016"/>
<path d="M21.3988 12.1122L22.3188 11.1122C22.6068 11.3362 22.5508 11.7522 22.5508 11.7522L21.5108 12.5682L21.3988 12.1122Z" fill="#0A328C" stroke="black" stroke-width="0.016"/>
<path d="M20.8712 12.6561L21.5512 11.9681C21.8392 11.9841 21.6152 12.4081 21.5992 12.4641L20.8792 13.0801L20.8712 12.6561Z" fill="#D20014" stroke="black" stroke-width="0.016"/>
<path d="M20.9349 12.5441L22.3349 11.0401L22.3909 11.0801L20.9029 12.7281L20.9349 12.5441ZM22.4149 10.9441L22.4469 10.9041V10.8321L22.7349 10.6481L22.6069 10.9441L22.5029 10.9601L22.4789 10.9921L22.4149 10.9441Z" fill="#F1B517" stroke="black" stroke-width="0.016"/>
<path d="M22.5669 11.0482C22.508 10.9751 22.4344 10.9151 22.3509 10.8722L22.2709 10.9922L22.4469 11.1362L22.5669 11.0562V11.0482Z" fill="#F1B517" stroke="black" stroke-width="0.016"/>
<path d="M22.7192 11.3041L22.6712 11.3841C22.6392 11.3761 22.3512 11.1041 22.3512 11.1041H22.1352L22.0792 11.0321C22.2392 10.8721 22.3752 11.0561 22.3752 11.0561L22.7192 11.3041Z" fill="#0A328C" stroke="#0A328C" stroke-width="0.016"/>
<path d="M22.5429 11.4401C22.5429 11.3601 22.3989 11.1841 22.3829 11.1761C22.2789 11.2081 22.1829 11.2721 22.0709 11.0321C22.1669 11.1441 22.3509 11.0321 22.3509 11.0321L22.4309 11.0961V11.1281L22.6709 11.3521L22.5429 11.4401Z" fill="#D20014" stroke="#D20014" stroke-width="0.016"/>
<path d="M21.7993 12.376L22.9513 11.464C23.1513 11.664 22.9833 12.28 22.9833 12.28L21.8633 12.888L21.8073 12.376H21.7993Z" fill="#0A328C" stroke="black" stroke-width="0.016"/>
<path d="M20.8469 13.1202L21.7989 12.3522C22.1189 12.4002 21.8629 12.8722 21.8469 12.9282L20.8469 13.4722V13.1202Z" fill="#D20014" stroke="black" stroke-width="0.016"/>
<path d="M20.8869 12.9602L22.9349 11.4242L22.9749 11.4722L20.8309 13.1522L20.8869 12.9602ZM23.0309 11.3442L23.0629 11.3122L23.0789 11.2482L23.3989 11.1122L23.2149 11.3762H23.1109L23.0789 11.4082L23.0309 11.3442Z" fill="#F1B517" stroke="black" stroke-width="0.016"/>
<path d="M23.1587 11.472C23.1129 11.3904 23.0502 11.3194 22.9747 11.264L22.8787 11.368L23.0227 11.536L23.1587 11.472Z" fill="#F1B517" stroke="black" stroke-width="0.016"/>
<path d="M23.2627 11.7281V11.8161C23.2307 11.8001 22.9667 11.5201 22.9667 11.5201L22.7667 11.4801L22.7187 11.4161C22.8627 11.2481 23.0147 11.4721 23.0147 11.4721L23.2627 11.7281Z" fill="#0A328C" stroke="#0A328C" stroke-width="0.016"/>
<path d="M23.1029 11.88C23.1189 11.8 23.0069 11.576 22.9909 11.56C22.8629 11.6 22.7509 11.656 22.7109 11.4C22.7909 11.528 22.9909 11.432 22.9909 11.432L23.0549 11.512V11.552L23.2549 11.816L23.1029 11.88Z" fill="#D20014" stroke="#D20014" stroke-width="0.016"/>
<path d="M21.887 12.9361C22.3814 12.658 22.8748 12.378 23.367 12.0961C23.471 12.2801 23.375 12.5361 23.327 12.5761C23.327 12.6961 23.375 12.7601 23.271 13.0161C23.239 13.1761 23.167 13.3281 23.055 13.4161C22.927 13.9281 22.399 13.9681 22.199 13.5441L21.887 12.9361Z" fill="#0A328C" stroke="black" stroke-width="0.016"/>
<path d="M20.9192 13.4801L21.9192 12.8961C22.2392 12.9361 21.9192 13.5361 21.8952 13.5921L20.9192 13.9361V13.4801Z" fill="#D20014" stroke="black" stroke-width="0.016"/>
<path d="M21.087 13.2642L23.351 12.0642L23.391 12.1122L20.991 13.4482L21.087 13.2642ZM23.463 12.0002L23.503 11.9762L23.527 11.9122L23.855 11.8322L23.639 12.0642L23.543 12.0482L23.495 12.0722L23.463 12.0002Z" fill="#F1B517" stroke="black" stroke-width="0.016"/>
<path d="M23.5669 12.1442C23.5349 12.0642 23.5029 11.9922 23.4229 11.9042L23.3109 11.9922L23.4229 12.1842L23.5669 12.1442Z" fill="#F1B517" stroke="black" stroke-width="0.016"/>
<path d="M23.6548 12.4161L23.6068 12.5121L23.3668 12.1441L23.1668 12.0721L23.1268 11.9921C23.2868 11.8481 23.4068 12.1041 23.4068 12.1041L23.6548 12.4161Z" fill="#0A328C" stroke="#0A328C" stroke-width="0.016"/>
<path d="M23.4391 12.5441C23.4551 12.4641 23.3991 12.2081 23.3831 12.2001C23.2631 12.2401 23.1591 12.2481 23.1271 11.9921C23.2071 12.1121 23.3911 12.0721 23.3911 12.0721L23.4471 12.1521L23.4391 12.1841L23.5991 12.5041L23.4391 12.5441Z" fill="#D20014" stroke="#D20014" stroke-width="0.016"/>
<path d="M20.6952 10.048L20.6552 10.768H20.8872L20.8552 10.048L21.0952 10.024L21.0712 9.73596L20.4712 9.75996V10.016L20.6952 10.048Z" fill="#016A16" stroke="#016A16" stroke-width="0.016"/>
<path d="M20.7762 9.75195C20.1522 9.12795 19.6642 9.43195 19.5522 9.51995C19.6322 9.53595 19.6962 9.48795 19.7362 9.47995L19.6562 9.57595C19.6562 9.57595 19.8562 9.49595 19.8802 9.49595C19.8482 9.51995 19.8162 9.57595 19.8162 9.57595C19.8322 9.57595 19.9442 9.48795 19.9602 9.48795C19.9282 9.51995 19.9202 9.60795 19.9202 9.60795L20.0162 9.56795C20.0402 9.58395 20.0082 9.61595 20.0242 9.61595C20.1842 9.59995 20.4002 9.75195 20.4242 9.79995" fill="#016A16"/>
<path d="M20.7762 9.75195C20.1522 9.12795 19.6642 9.43195 19.5522 9.51995C19.6322 9.53595 19.6962 9.48795 19.7362 9.47995L19.6562 9.57595C19.6562 9.57595 19.8562 9.49595 19.8802 9.49595C19.8482 9.51995 19.8162 9.57595 19.8162 9.57595C19.8322 9.57595 19.9442 9.48795 19.9602 9.48795C19.9282 9.51995 19.9202 9.60795 19.9202 9.60795L20.0162 9.56795C20.0402 9.58395 20.0082 9.61595 20.0242 9.61595C20.1842 9.59995 20.4002 9.75195 20.4242 9.79995" stroke="black" stroke-width="0.016"/>
<path d="M20.6242 9.86385C20.5602 9.71985 19.3762 9.46384 19.1362 9.88784C19.2322 9.91184 19.3202 9.80784 19.3202 9.80784V9.90385L19.4722 9.77584L19.4162 9.90385L19.5362 9.79984V9.90385L19.6962 9.74385L19.6722 9.83185L19.8082 9.77584L19.7922 9.85584" fill="#016A16"/>
<path d="M20.6242 9.86385C20.5602 9.71985 19.3762 9.46384 19.1362 9.88784C19.2322 9.91184 19.3202 9.80784 19.3202 9.80784V9.90385L19.4722 9.77584L19.4162 9.90385L19.5362 9.79984V9.90385L19.6962 9.74385L19.6722 9.83185L19.8082 9.77584L19.7922 9.85584" stroke="black" stroke-width="0.016"/>
<path d="M20.5682 9.88785C20.2642 9.68785 19.8002 9.82385 19.8002 9.82385C19.4962 9.98385 19.3362 9.95985 19.3042 10.2719C19.3282 10.2639 19.4082 10.1599 19.4082 10.1599L19.4722 10.2799L19.4882 10.1119L19.5362 10.2479L19.6162 10.0239L19.6322 10.1759L19.7442 10.0239L19.7922 10.0719L19.8402 9.95185L19.8882 10.0319C19.8882 10.0319 19.9682 9.98385 20.0082 10.0079L20.0882 9.91185L20.1122 9.98385L20.1922 9.90385L20.2162 9.95985L20.2882 9.89585V9.94385H20.5282" fill="#016A16"/>
<path d="M20.5682 9.88785C20.2642 9.68785 19.8002 9.82385 19.8002 9.82385C19.4962 9.98385 19.3362 9.95985 19.3042 10.2719C19.3282 10.2639 19.4082 10.1599 19.4082 10.1599L19.4722 10.2799L19.4882 10.1119L19.5362 10.2479L19.6162 10.0239L19.6322 10.1759L19.7442 10.0239L19.7922 10.0719L19.8402 9.95185L19.8882 10.0319C19.8882 10.0319 19.9682 9.98385 20.0082 10.0079L20.0882 9.91185L20.1122 9.98385L20.1922 9.90385L20.2162 9.95985L20.2882 9.89585V9.94385H20.5282" stroke="black" stroke-width="0.016"/>
<path d="M20.5043 9.92004C20.2883 9.92004 19.6803 10.152 19.5283 10.384C19.5621 10.3662 19.5968 10.3502 19.6323 10.336L19.6563 10.432L19.6963 10.336L19.7043 10.416C19.7283 10.352 19.7523 10.352 19.8003 10.408L19.8163 10.32L19.8403 10.4L19.8803 10.312C19.8803 10.312 19.9043 10.408 19.9203 10.408C19.9203 10.408 19.9843 10.232 20.0163 10.224L20.0243 10.336L20.0643 10.224L20.1043 10.304V10.192L20.1523 10.272C20.1523 10.272 20.1683 10.192 20.2003 10.176L20.2643 10.232L20.5363 10.032" fill="#016A16"/>
<path d="M20.5043 9.92004C20.2883 9.92004 19.6803 10.152 19.5283 10.384C19.5621 10.3662 19.5968 10.3502 19.6323 10.336L19.6563 10.432L19.6963 10.336L19.7043 10.416C19.7283 10.352 19.7523 10.352 19.8003 10.408L19.8163 10.32L19.8403 10.4L19.8803 10.312C19.8803 10.312 19.9043 10.408 19.9203 10.408C19.9203 10.408 19.9843 10.232 20.0163 10.224L20.0243 10.336L20.0643 10.224L20.1043 10.304V10.192L20.1523 10.272C20.1523 10.272 20.1683 10.192 20.2003 10.176L20.2643 10.232L20.5363 10.032" stroke="black" stroke-width="0.016"/>
<path d="M20.5443 9.97595C20.2643 10.08 20.0083 10.472 20.0323 10.632C20.1523 10.472 20.1283 10.496 20.1843 10.68C20.1843 10.68 20.2003 10.52 20.2243 10.504L20.2643 10.616L20.2723 10.464H20.3123L20.3043 10.376L20.3603 10.416C20.3443 10.36 20.3363 10.344 20.3923 10.296C20.3923 10.296 20.3123 10.304 20.3763 10.176L20.4323 10.224C20.4323 10.224 20.4163 10.168 20.4323 10.144L20.6403 10.08" fill="#016A16"/>
<path d="M20.5443 9.97595C20.2643 10.08 20.0083 10.472 20.0323 10.632C20.1523 10.472 20.1283 10.496 20.1843 10.68C20.1843 10.68 20.2003 10.52 20.2243 10.504L20.2643 10.616L20.2723 10.464H20.3123L20.3043 10.376L20.3603 10.416C20.3443 10.36 20.3363 10.344 20.3923 10.296C20.3923 10.296 20.3123 10.304 20.3763 10.176L20.4323 10.224C20.4323 10.224 20.4163 10.168 20.4323 10.144L20.6403 10.08" stroke="black" stroke-width="0.016"/>
<path d="M20.5683 9.99988L20.4643 10.2079L20.5203 10.2239L20.3923 10.3119L20.4963 10.3039C20.4963 10.3039 20.3363 10.3599 20.3203 10.5199L20.4803 10.4399C20.4803 10.4399 20.3443 10.5839 20.3203 10.6719L20.4243 10.5919C20.4243 10.5919 20.3283 10.6879 20.3443 10.8319L20.4163 10.7519C20.4003 10.9359 20.4003 10.9519 20.4803 11.0879C20.4803 11.0879 20.4643 10.8799 20.4803 10.8479L20.6643 11.0399L20.5683 10.7759C20.5683 10.7759 20.6803 10.9359 20.7443 10.9279L20.6003 10.7119L20.7443 10.8239L20.5843 10.5839L20.7283 10.6319C20.7283 10.6319 20.6243 10.4959 20.6323 10.4079L20.7363 10.5199C20.7363 10.5199 20.6963 10.3999 20.7043 10.3599L20.7603 10.3679L20.6563 10.2559L20.7283 10.2399L20.7203 10.1599L20.7683 10.1519V10.0639M20.6803 10.0639C20.5043 10.3039 20.5923 10.6639 20.4883 10.8559L20.6803 10.0639Z" fill="#016A16"/>
<path d="M20.5683 9.99988L20.4643 10.2079L20.5203 10.2239L20.3923 10.3119L20.4963 10.3039C20.4963 10.3039 20.3363 10.3599 20.3203 10.5199L20.4803 10.4399C20.4803 10.4399 20.3443 10.5839 20.3203 10.6719L20.4243 10.5919C20.4243 10.5919 20.3283 10.6879 20.3443 10.8319L20.4163 10.7519C20.4003 10.9359 20.4003 10.9519 20.4803 11.0879C20.4803 11.0879 20.4643 10.8799 20.4803 10.8479L20.6643 11.0399L20.5683 10.7759C20.5683 10.7759 20.6803 10.9359 20.7443 10.9279L20.6003 10.7119L20.7443 10.8239L20.5843 10.5839L20.7283 10.6319C20.7283 10.6319 20.6243 10.4959 20.6323 10.4079L20.7363 10.5199C20.7363 10.5199 20.6963 10.3999 20.7043 10.3599L20.7603 10.3679L20.6563 10.2559L20.7283 10.2399L20.7203 10.1599L20.7683 10.1519V10.0639M20.6803 10.0639C20.5043 10.3039 20.5923 10.6639 20.4883 10.8559" stroke="black" stroke-width="0.016"/>
<path d="M20.7989 9.75195C21.4229 9.12795 21.9109 9.43195 22.0229 9.51995C21.9429 9.53595 21.8789 9.48795 21.8389 9.47995L21.9189 9.57595C21.9189 9.57595 21.7189 9.49595 21.6949 9.49595C21.7269 9.51995 21.7589 9.57595 21.7589 9.57595C21.7429 9.57595 21.6309 9.48795 21.6149 9.48795C21.6469 9.51995 21.6549 9.60795 21.6549 9.60795L21.5589 9.56795C21.5349 9.58395 21.5669 9.61595 21.5509 9.61595C21.3909 9.59995 21.1749 9.75195 21.1509 9.79995" fill="#016A16"/>
<path d="M20.7989 9.75195C21.4229 9.12795 21.9109 9.43195 22.0229 9.51995C21.9429 9.53595 21.8789 9.48795 21.8389 9.47995L21.9189 9.57595C21.9189 9.57595 21.7189 9.49595 21.6949 9.49595C21.7269 9.51995 21.7589 9.57595 21.7589 9.57595C21.7429 9.57595 21.6309 9.48795 21.6149 9.48795C21.6469 9.51995 21.6549 9.60795 21.6549 9.60795L21.5589 9.56795C21.5349 9.58395 21.5669 9.61595 21.5509 9.61595C21.3909 9.59995 21.1749 9.75195 21.1509 9.79995" stroke="black" stroke-width="0.016"/>
<path d="M20.951 9.86397C21.015 9.71997 22.199 9.46397 22.439 9.88797C22.343 9.91197 22.255 9.80797 22.255 9.80797V9.90397L22.103 9.77597L22.159 9.90397L22.039 9.79997V9.90397L21.879 9.74397L21.903 9.83197L21.767 9.77597L21.783 9.85597" fill="#016A16"/>
<path d="M20.951 9.86397C21.015 9.71997 22.199 9.46397 22.439 9.88797C22.343 9.91197 22.255 9.80797 22.255 9.80797V9.90397L22.103 9.77597L22.159 9.90397L22.039 9.79997V9.90397L21.879 9.74397L21.903 9.83197L21.767 9.77597L21.783 9.85597" stroke="black" stroke-width="0.016"/>
<path d="M21.007 9.88797C21.311 9.68797 21.775 9.82397 21.775 9.82397C22.079 9.98397 22.239 9.95997 22.271 10.272C22.247 10.264 22.167 10.16 22.167 10.16L22.103 10.28L22.087 10.112L22.039 10.248L21.959 10.024L21.943 10.176L21.831 10.024L21.783 10.072L21.735 9.95197L21.687 10.032C21.687 10.032 21.607 9.98397 21.567 10.008L21.487 9.91197L21.463 9.98397L21.383 9.90397L21.359 9.95997L21.287 9.89597V9.94397H21.047" fill="#016A16"/>
<path d="M21.007 9.88797C21.311 9.68797 21.775 9.82397 21.775 9.82397C22.079 9.98397 22.239 9.95997 22.271 10.272C22.247 10.264 22.167 10.16 22.167 10.16L22.103 10.28L22.087 10.112L22.039 10.248L21.959 10.024L21.943 10.176L21.831 10.024L21.783 10.072L21.735 9.95197L21.687 10.032C21.687 10.032 21.607 9.98397 21.567 10.008L21.487 9.91197L21.463 9.98397L21.383 9.90397L21.359 9.95997L21.287 9.89597V9.94397H21.047" stroke="black" stroke-width="0.016"/>
<path d="M21.0709 9.91992C21.2869 9.91992 21.8949 10.1519 22.0469 10.3839C22.0131 10.3661 21.9784 10.35 21.9429 10.3359L21.9189 10.4319L21.8789 10.3359L21.8709 10.4159C21.8469 10.3519 21.8229 10.3519 21.7749 10.4079L21.7589 10.3199L21.7349 10.3999L21.6949 10.3119C21.6949 10.3119 21.6709 10.4079 21.6549 10.4079C21.6549 10.4079 21.5909 10.2319 21.5589 10.2239L21.5509 10.3359L21.5109 10.2239L21.4709 10.3039V10.1919L21.4229 10.2719C21.4229 10.2719 21.4069 10.1919 21.3749 10.1759L21.3109 10.2319L21.0389 10.0319" fill="#016A16"/>
<path d="M21.0709 9.91992C21.2869 9.91992 21.8949 10.1519 22.0469 10.3839C22.0131 10.3661 21.9784 10.35 21.9429 10.3359L21.9189 10.4319L21.8789 10.3359L21.8709 10.4159C21.8469 10.3519 21.8229 10.3519 21.7749 10.4079L21.7589 10.3199L21.7349 10.3999L21.6949 10.3119C21.6949 10.3119 21.6709 10.4079 21.6549 10.4079C21.6549 10.4079 21.5909 10.2319 21.5589 10.2239L21.5509 10.3359L21.5109 10.2239L21.4709 10.3039V10.1919L21.4229 10.2719C21.4229 10.2719 21.4069 10.1919 21.3749 10.1759L21.3109 10.2319L21.0389 10.0319" stroke="black" stroke-width="0.016"/>
<path d="M21.0309 9.97595C21.3109 10.08 21.5669 10.472 21.5429 10.632C21.4229 10.472 21.4469 10.496 21.3909 10.68C21.3909 10.68 21.3749 10.52 21.3509 10.504L21.3109 10.616L21.3029 10.464H21.2629L21.2709 10.376L21.2149 10.416C21.2309 10.36 21.2389 10.344 21.1829 10.296C21.1829 10.296 21.2629 10.304 21.1989 10.176L21.1429 10.224C21.1429 10.224 21.1589 10.168 21.1429 10.144L20.9349 10.08" fill="#016A16"/>
<path d="M21.0309 9.97595C21.3109 10.08 21.5669 10.472 21.5429 10.632C21.4229 10.472 21.4469 10.496 21.3909 10.68C21.3909 10.68 21.3749 10.52 21.3509 10.504L21.3109 10.616L21.3029 10.464H21.2629L21.2709 10.376L21.2149 10.416C21.2309 10.36 21.2389 10.344 21.1829 10.296C21.1829 10.296 21.2629 10.304 21.1989 10.176L21.1429 10.224C21.1429 10.224 21.1589 10.168 21.1429 10.144L20.9349 10.08" stroke="black" stroke-width="0.016"/>
<path d="M21.0069 10L21.1109 10.208L21.0549 10.224L21.1829 10.312L21.0789 10.304C21.0789 10.304 21.2389 10.36 21.2549 10.52L21.0949 10.44C21.0949 10.44 21.2309 10.584 21.2549 10.672L21.1509 10.592C21.1509 10.592 21.2469 10.688 21.2309 10.832L21.1589 10.752C21.1749 10.936 21.1749 10.952 21.0949 11.088C21.0949 11.088 21.1109 10.88 21.0949 10.848L20.9109 11.04L21.0069 10.776C21.0069 10.776 20.8949 10.936 20.8309 10.928L20.9749 10.712L20.8309 10.824L20.9909 10.584L20.8469 10.632C20.8469 10.632 20.9509 10.496 20.9429 10.408L20.8389 10.52C20.8389 10.52 20.8789 10.4 20.8709 10.36L20.8149 10.368L20.9189 10.256L20.8469 10.24L20.8549 10.16L20.8069 10.152V10.064M20.8949 10.064C21.0709 10.304 20.9829 10.664 21.0869 10.856L20.8949 10.064Z" fill="#016A16"/>
<path d="M21.0069 10L21.1109 10.208L21.0549 10.224L21.1829 10.312L21.0789 10.304C21.0789 10.304 21.2389 10.36 21.2549 10.52L21.0949 10.44C21.0949 10.44 21.2309 10.584 21.2549 10.672L21.1509 10.592C21.1509 10.592 21.2469 10.688 21.2309 10.832L21.1589 10.752C21.1749 10.936 21.1749 10.952 21.0949 11.088C21.0949 11.088 21.1109 10.88 21.0949 10.848L20.9109 11.04L21.0069 10.776C21.0069 10.776 20.8949 10.936 20.8309 10.928L20.9749 10.712L20.8309 10.824L20.9909 10.584L20.8469 10.632C20.8469 10.632 20.9509 10.496 20.9429 10.408L20.8389 10.52C20.8389 10.52 20.8789 10.4 20.8709 10.36L20.8149 10.368L20.9189 10.256L20.8469 10.24L20.8549 10.16L20.8069 10.152V10.064M20.8949 10.064C21.0709 10.304 20.9829 10.664 21.0869 10.856" stroke="black" stroke-width="0.016"/>
<path d="M20.8712 13.3199C20.8712 13.3199 20.9592 12.5199 20.9592 12.1839C20.9592 11.9119 20.8952 11.3199 20.8952 11.3199H20.6312C20.6312 11.3199 20.5912 11.9119 20.5992 12.1839C20.5992 12.5199 20.6872 13.3199 20.6872 13.3199H20.8712Z" fill="#F1B517" stroke="black" stroke-width="0.016"/>
<path d="M20.6069 11.3602H20.9269L20.8869 11.1442H20.6549L20.6069 11.3602Z" fill="#F1B517" stroke="black" stroke-width="0.016"/>
<path d="M20.6313 11.1841H20.9113L20.8553 10.9681H20.6793L20.6313 11.1841Z" fill="#F1B517" stroke="black" stroke-width="0.016"/>
<path d="M20.6475 11.0162H20.8875L20.8395 10.8002H20.6875L20.6475 11.0162Z" fill="#F1B517" stroke="black" stroke-width="0.016"/>
<path d="M20.8475 10.776H20.6875L20.6635 10.856H20.8635L20.8475 10.776ZM20.8795 13.152H20.6715H20.8795ZM20.8955 12.992H20.6555H20.8955ZM20.9275 12.832H20.6235H20.9275ZM20.9435 12.664H20.6235H20.9435ZM20.9435 12.488H20.6155H20.9435ZM20.9515 12.328H20.5995H20.9515ZM20.9515 12.192H20.5835H20.9515ZM20.9515 12.016H20.5835H20.9515ZM20.9435 11.848H20.5835H20.9435ZM20.9275 11.672H20.5995H20.9275ZM20.9115 11.512H20.6155H20.9115Z" fill="#F1B517"/>
<path d="M20.8795 13.152H20.6715M20.8955 12.992H20.6555M20.9275 12.832H20.6235M20.9435 12.664H20.6235M20.9435 12.488H20.6155M20.9515 12.328H20.5995M20.9515 12.192H20.5835M20.9515 12.016H20.5835M20.9435 11.848H20.5835M20.9275 11.672H20.5995M20.9115 11.512H20.6155M20.8475 10.776H20.6875L20.6635 10.856H20.8635L20.8475 10.776Z" stroke="black" stroke-width="0.016"/>
<path d="M20.7916 9.52006C20.7276 9.49606 20.6076 9.41606 20.6396 9.36806L20.6956 9.27206C20.7756 9.09606 20.6956 9.16006 20.6956 9.11206C20.6796 9.04806 20.9996 9.09606 20.9996 9.21606C20.9996 9.25606 20.9756 9.23206 20.9836 9.42406L20.9196 9.54406C20.8736 9.55006 20.8269 9.54457 20.7836 9.52806L20.7916 9.52006Z" fill="#0A328C" stroke="#0A328C" stroke-width="0.016"/>
<path d="M20.8232 9.99999L20.7432 9.92799L20.7672 9.35999L20.8472 9.38399L20.8232 9.99199V9.99999Z" fill="#F1B517" stroke="black" stroke-width="0.016"/>
<path d="M20.9271 9.54404C20.9751 9.51204 21.0071 9.42404 20.9751 9.37604C20.8951 9.27204 20.8391 9.31204 20.7031 9.26404C20.6791 9.29604 20.6231 9.34404 20.6311 9.39204C20.8151 9.47204 20.7431 9.40804 20.8071 9.41604C20.8391 9.41604 20.8551 9.45604 20.9271 9.53604V9.54404Z" fill="#D20014" stroke="#D20014" stroke-width="0.016"/>
<path d="M19.8723 12.8241C19.8563 12.7841 19.7923 12.7521 19.7123 12.7521C19.6323 12.7521 19.5763 12.7841 19.5523 12.8241C19.5496 12.8136 19.5496 12.8026 19.5523 12.7921C19.5523 12.7361 19.6243 12.6961 19.7123 12.6961C19.8083 12.6961 19.8803 12.7361 19.8803 12.7921C19.883 12.8026 19.883 12.8136 19.8803 12.8241H19.8723Z" fill="#016A16" stroke="white" stroke-width="0.016" stroke-linecap="round"/>
<path d="M19.8648 12.944C19.8648 13.04 19.7928 13.128 19.7128 13.128C19.6328 13.128 19.5688 13.048 19.5688 12.936V12.84H19.8648V12.944Z" fill="#016A16" stroke="white" stroke-width="0.016" stroke-linecap="round"/>
<path d="M19.7128 12.88C19.7924 12.88 19.8568 12.8477 19.8568 12.808C19.8568 12.7682 19.7924 12.736 19.7128 12.736C19.6333 12.736 19.5688 12.7682 19.5688 12.808C19.5688 12.8477 19.6333 12.88 19.7128 12.88Z" fill="white"/>
<path d="M19.6807 12.8801L19.6567 12.6241H19.7687L19.7527 12.8881H19.6807V12.8801Z" fill="#016A16" stroke="#F1B517" stroke-width="0.016"/>
<path d="M19.8723 12.808C19.8563 12.848 19.7923 12.88 19.7123 12.88C19.6323 12.88 19.5763 12.848 19.5523 12.808C19.5496 12.8185 19.5496 12.8295 19.5523 12.84C19.5523 12.896 19.6243 12.936 19.7123 12.936C19.8083 12.936 19.8803 12.896 19.8803 12.84C19.883 12.8295 19.883 12.8185 19.8803 12.808H19.8723Z" fill="#016A16" stroke="white" stroke-width="0.016" stroke-linecap="round"/>
<path d="M20.4754 13.824L19.9154 13.648L19.6674 13.224L18.7954 13.184L18.8274 13.504L19.5714 13.64L19.6354 13.768L20.4914 14.008L20.4754 13.824Z" fill="#F1B517" stroke="black" stroke-width="0.016"/>
<path d="M19.8916 13.9441L18.9956 12.6241L18.9556 12.6641L19.8356 13.9761L19.8916 13.9441Z" fill="#503200" stroke="black" stroke-width="0.016"/>
<path d="M19.0837 12.6801L18.9877 12.5201C18.9637 12.4881 18.9397 12.4801 18.8997 12.5041C18.8597 12.5201 18.8677 12.5601 18.8837 12.5921L18.9637 12.7441L19.0837 12.6801Z" fill="white" stroke="black" stroke-width="0.016"/>
<path d="M19.9955 13.128L18.1955 12.944L18.1475 13.208L19.9395 13.392L19.9955 13.128Z" fill="#F1B517" stroke="black" stroke-width="0.016"/>
<path d="M18.1552 12.88L18.1152 13.24H18.1952L18.2432 12.912L18.1552 12.88ZM18.4592 12.936L18.4432 13.264H18.4912L18.5312 12.984L18.4592 12.936ZM19.6832 13.08L19.6352 13.384H19.7232L19.7632 13.08H19.6832ZM19.9472 13.088L19.8912 13.44L19.9872 13.456L20.0192 13.272C20.0192 13.312 20.0592 13.336 20.0992 13.336C20.1472 13.336 20.1792 13.296 20.1792 13.256C20.1792 13.208 20.1472 13.176 20.0992 13.176C20.0826 13.1746 20.0659 13.1785 20.0515 13.1871C20.0372 13.1957 20.0259 13.2086 20.0192 13.224L20.0432 13.096L19.9472 13.088ZM19.3072 13.144L19.0512 13.424L19.0832 13.456L19.4032 13.24L19.3072 13.144ZM18.7152 13.84L18.9632 13.56L18.9392 13.528L18.6192 13.744L18.7152 13.84ZM19.3632 13.768L19.0672 13.536L19.0352 13.56L19.2752 13.864L19.3632 13.768ZM18.6192 13.232L18.9312 13.456L18.9632 13.432L18.7232 13.128L18.6192 13.232ZM18.9552 13.048L18.9872 13.416H19.0272L19.1232 13.056L18.9552 13.048ZM19.0512 13.928L19.0272 13.568H18.9792L18.9232 13.936L19.0512 13.928ZM19.4592 13.448L19.0752 13.48V13.52L19.4592 13.568V13.448ZM18.5472 13.568L18.9232 13.512V13.48L18.5392 13.44V13.568H18.5472Z" fill="#F1B517" stroke="black" stroke-width="0.016"/>
<path d="M19.0117 13.584C19.0692 13.584 19.1157 13.541 19.1157 13.488C19.1157 13.4349 19.0692 13.392 19.0117 13.392C18.9543 13.392 18.9077 13.4349 18.9077 13.488C18.9077 13.541 18.9543 13.584 19.0117 13.584Z" fill="#F1B517" stroke="black" stroke-width="0.016"/>
<path fill-rule="evenodd" clip-rule="evenodd" d="M19.5476 13.488C19.5476 13.768 19.3076 14.008 19.0116 14.008C18.9422 14.009 18.8734 13.9964 18.8089 13.9708C18.7444 13.9453 18.6856 13.9073 18.6359 13.859C18.5861 13.8107 18.5463 13.7531 18.5188 13.6894C18.4913 13.6258 18.4766 13.5573 18.4756 13.488C18.4756 13.2 18.7156 12.968 19.0116 12.968C19.0809 12.9669 19.1498 12.9795 19.2143 13.0051C19.2787 13.0306 19.3375 13.0686 19.3873 13.1169C19.4371 13.1652 19.4768 13.2228 19.5043 13.2865C19.5319 13.3502 19.5465 13.4186 19.5476 13.488ZM19.4436 13.488C19.4425 13.5436 19.4305 13.5986 19.4083 13.6496C19.386 13.7007 19.3539 13.7468 19.3138 13.7854C19.2736 13.8241 19.2263 13.8544 19.1745 13.8748C19.1226 13.8951 19.0673 13.905 19.0116 13.904C18.9552 13.905 18.8992 13.8948 18.8469 13.874C18.7945 13.8532 18.7468 13.8221 18.7066 13.7826C18.6664 13.7432 18.6344 13.6961 18.6126 13.6441C18.5908 13.5921 18.5796 13.5363 18.5796 13.48C18.5838 13.3689 18.6314 13.2639 18.7122 13.1876C18.793 13.1113 18.9005 13.0698 19.0116 13.072C19.0673 13.0709 19.1226 13.0808 19.1745 13.1011C19.2263 13.1215 19.2736 13.1518 19.3138 13.1905C19.3539 13.2291 19.386 13.2753 19.4083 13.3263C19.4305 13.3773 19.4425 13.4323 19.4436 13.488Z" fill="#F1B517" stroke="black" stroke-width="0.016" stroke-linecap="round"/>
<path d="M18.6757 13.2241L18.5957 13.1601L18.6757 13.2241ZM19.2757 13.1601L19.3557 13.0801L19.2757 13.1601ZM19.4357 13.8161L19.3477 13.7441L19.4357 13.8161ZM18.6757 13.8961L18.7557 13.8161L18.6757 13.8961ZM20.4917 12.9681L20.5797 13.4481L20.5077 13.4801L20.4277 12.9761L20.4917 12.9681Z" fill="#F1B517"/>
<path d="M18.6757 13.2241L18.5957 13.1601M19.2757 13.1601L19.3557 13.0801M19.4357 13.8161L19.3477 13.7441M18.6757 13.8961L18.7557 13.8161M20.4917 12.9681L20.5797 13.4481L20.5077 13.4801L20.4277 12.9761L20.4917 12.9681Z" stroke="black" stroke-width="0.016"/>
<path d="M20.4435 12.912C20.4035 12.888 20.3475 12.92 20.2515 12.808C20.0995 12.944 20.2515 12.968 20.2675 13.104C20.3075 13.12 20.3395 12.992 20.4515 12.984L20.6355 12.968L20.5955 12.912H20.4435Z" fill="white" stroke="black" stroke-width="0.016"/>
<path d="M20.5076 13.0001L20.4916 12.8641C20.4676 12.8081 20.4116 12.8561 20.4116 12.8801L20.4276 13.0161L20.5076 13.0001Z" fill="white" stroke="black" stroke-width="0.016"/>
<path fill-rule="evenodd" clip-rule="evenodd" d="M20.0592 13.392V13.52C20.0112 13.536 20.0192 13.568 20.0192 13.616V13.992C20.0112 14.024 19.9632 14.024 19.9392 14.04C19.9152 14.064 19.9232 14.104 20.0192 14.12L20.0992 14.128C20.2192 14.104 20.2432 14.064 20.1792 14.048C20.1552 14.032 20.1072 14.016 20.0992 14V13.904H20.1792C20.1952 13.904 20.2352 13.856 20.2352 13.816V13.616C20.2352 13.504 20.1552 13.488 20.1232 13.496V13.392H20.0592ZM20.1872 13.608C20.1872 13.576 20.1392 13.544 20.1232 13.544C20.1072 13.544 20.0672 13.584 20.0672 13.616V13.696C20.0672 13.728 20.0912 13.824 20.1392 13.832C20.1552 13.832 20.1872 13.8 20.1872 13.768V13.608Z" fill="#F1B517" stroke="black" stroke-width="0.016"/>
<path d="M19.5397 13.7842C19.4837 13.7682 19.4837 13.8802 19.4837 13.8802H19.5637C19.6037 13.8962 19.6277 13.9442 19.6117 13.9762C19.5877 13.9922 19.4357 13.9362 19.4277 13.9762C19.4517 14.1282 19.6597 14.1842 19.7317 14.1202C19.8037 14.0482 19.8197 13.8802 19.5877 13.8242L19.5397 13.7842ZM19.5877 13.8322L19.5637 13.8802L19.5877 13.8322Z" fill="white"/>
<path d="M19.5637 13.8802H19.4837C19.4837 13.8802 19.4837 13.7682 19.5397 13.7842L19.5877 13.8242C19.8197 13.8802 19.8037 14.0482 19.7317 14.1202C19.6597 14.1842 19.4517 14.1282 19.4277 13.9762C19.4357 13.9362 19.5877 13.9922 19.6117 13.9762C19.6277 13.9442 19.6037 13.8962 19.5637 13.8802ZM19.5637 13.8802L19.5877 13.8322" stroke="black" stroke-width="0.016"/>
<path d="M17.9957 13.8401L17.9157 13.5201L17.9957 13.8401ZM18.0837 13.8241L17.9637 13.5761L18.0837 13.8241ZM18.2837 13.7601L18.0197 13.6161L18.2837 13.7601ZM18.4037 13.7281L17.9077 13.5121L18.4037 13.7281Z" fill="#F1B517"/>
<path d="M17.9957 13.8401L17.9157 13.5201M18.0837 13.8241L17.9637 13.5761M18.2837 13.7601L18.0197 13.6161M18.4037 13.7281L17.9077 13.5121" stroke="black" stroke-width="0.016"/>
<path d="M17.6116 13.2802L17.4036 13.2882C17.3876 13.2962 17.4436 13.3602 17.4356 13.3762C17.3876 13.4642 17.0836 13.4562 17.0596 13.4402C17.0196 13.4002 17.3396 13.3762 17.3476 13.3602C17.3476 13.3282 17.2996 13.2642 17.3076 13.2242C17.3076 13.1682 17.4436 13.1442 17.4436 13.1442L17.6116 13.2802Z" fill="#D20014" stroke="#D20014" stroke-width="0.016"/>
<path d="M17.8514 13.4402L17.4514 13.1042C17.4514 13.1042 17.4274 13.0882 17.4114 13.1042C17.3954 13.1202 17.4114 13.1362 17.4114 13.1362L17.8434 13.4882L17.8514 13.4482V13.4402Z" fill="#503200" stroke="black" stroke-width="0.016"/>
<path d="M18.2513 13.7761L17.9153 13.4881L17.8913 13.4081L17.8273 13.4561C17.8033 13.4721 17.7793 13.5201 17.7793 13.5201H17.8673L18.1553 13.7921L18.2433 13.7761H18.2513Z" fill="#F1B517" stroke="black" stroke-width="0.016"/>
<path d="M19.3958 14.2239C19.4268 14.2239 19.4518 14.1989 19.4518 14.1679C19.4518 14.137 19.4268 14.1119 19.3958 14.1119C19.3649 14.1119 19.3398 14.137 19.3398 14.1679C19.3398 14.1989 19.3649 14.2239 19.3958 14.2239Z" fill="#F1B517" stroke="black" stroke-width="0.016"/>
<path d="M19.2435 14.1121C19.2744 14.1121 19.2995 14.087 19.2995 14.0561C19.2995 14.0252 19.2744 14.0001 19.2435 14.0001C19.2126 14.0001 19.1875 14.0252 19.1875 14.0561C19.1875 14.087 19.2126 14.1121 19.2435 14.1121Z" fill="#F1B517" stroke="black" stroke-width="0.016"/>
<path d="M19.0438 14.1841C19.0747 14.1841 19.0998 14.1591 19.0998 14.1281C19.0998 14.0972 19.0747 14.0721 19.0438 14.0721C19.0129 14.0721 18.9878 14.0972 18.9878 14.1281C18.9878 14.1591 19.0129 14.1841 19.0438 14.1841Z" fill="#F1B517" stroke="black" stroke-width="0.016"/>
<path d="M18.7318 14.2481C18.7627 14.2481 18.7878 14.223 18.7878 14.1921C18.7878 14.1612 18.7627 14.1361 18.7318 14.1361C18.7009 14.1361 18.6758 14.1612 18.6758 14.1921C18.6758 14.223 18.7009 14.2481 18.7318 14.2481Z" fill="#F1B517" stroke="black" stroke-width="0.016"/>
<path d="M18.5956 14.264C18.6265 14.264 18.6516 14.2389 18.6516 14.208C18.6516 14.1771 18.6265 14.152 18.5956 14.152C18.5646 14.152 18.5396 14.1771 18.5396 14.208C18.5396 14.2389 18.5646 14.264 18.5956 14.264Z" fill="#F1B517" stroke="black" stroke-width="0.016"/>
<path d="M18.4593 14.264C18.4902 14.264 18.5153 14.2389 18.5153 14.208C18.5153 14.1771 18.4902 14.152 18.4593 14.152C18.4284 14.152 18.4033 14.1771 18.4033 14.208C18.4033 14.2389 18.4284 14.264 18.4593 14.264Z" fill="#F1B517" stroke="black" stroke-width="0.016"/>
<path d="M18.3314 14.264C18.3623 14.264 18.3874 14.2389 18.3874 14.208C18.3874 14.1771 18.3623 14.152 18.3314 14.152C18.3005 14.152 18.2754 14.1771 18.2754 14.208C18.2754 14.2389 18.3005 14.264 18.3314 14.264Z" fill="#F1B517" stroke="black" stroke-width="0.016"/>
<path d="M18.3958 14.16C18.4268 14.16 18.4518 14.1349 18.4518 14.104C18.4518 14.073 18.4268 14.048 18.3958 14.048C18.3649 14.048 18.3398 14.073 18.3398 14.104C18.3398 14.1349 18.3649 14.16 18.3958 14.16Z" fill="#F1B517" stroke="black" stroke-width="0.016"/>
<path d="M18.5233 14.168C18.5542 14.168 18.5793 14.143 18.5793 14.112C18.5793 14.0811 18.5542 14.056 18.5233 14.056C18.4924 14.056 18.4673 14.0811 18.4673 14.112C18.4673 14.143 18.4924 14.168 18.5233 14.168Z" fill="#F1B517" stroke="black" stroke-width="0.016"/>
<path d="M18.6439 14.1522C18.6748 14.1522 18.6999 14.1271 18.6999 14.0962C18.6999 14.0652 18.6748 14.0402 18.6439 14.0402C18.613 14.0402 18.5879 14.0652 18.5879 14.0962C18.5879 14.1271 18.613 14.1522 18.6439 14.1522Z" fill="#F1B517" stroke="black" stroke-width="0.016"/>
<path d="M18.5872 14.056C18.6182 14.056 18.6433 14.0309 18.6433 14C18.6433 13.969 18.6182 13.944 18.5872 13.944C18.5563 13.944 18.5312 13.969 18.5312 14C18.5312 14.0309 18.5563 14.056 18.5872 14.056Z" fill="#F1B517" stroke="black" stroke-width="0.016"/>
<path d="M18.4593 14.0482C18.4902 14.0482 18.5153 14.0231 18.5153 13.9922C18.5153 13.9612 18.4902 13.9362 18.4593 13.9362C18.4284 13.9362 18.4033 13.9612 18.4033 13.9922C18.4033 14.0231 18.4284 14.0482 18.4593 14.0482Z" fill="#F1B517" stroke="black" stroke-width="0.016"/>
<path fill-rule="evenodd" clip-rule="evenodd" d="M19.7154 14.2401C19.7154 14.2161 19.6514 14.2241 19.6514 14.1921C19.6514 14.1601 19.7474 14.1921 19.7554 14.2161C19.8114 14.1681 19.8354 14.2001 19.8674 14.2161C19.9154 14.1521 19.9714 14.1521 20.0274 14.2001C20.0594 14.1681 20.1394 14.1761 20.1634 14.2161C20.2194 14.1681 20.2674 14.1761 20.2994 14.2161C20.3154 14.1921 20.3394 14.1921 20.3554 14.2161C20.3794 14.1601 20.4514 14.1761 20.4834 14.2161C20.5074 14.1841 20.5394 14.2081 20.5714 14.2241C20.5954 14.2081 20.6354 14.2081 20.6354 14.2241C20.6354 14.2561 20.5874 14.2481 20.5874 14.2721C20.5874 14.2881 20.6194 14.2721 20.6194 14.3041C20.6194 14.3281 20.5714 14.3361 20.5634 14.3041C20.5394 14.3361 20.4754 14.3201 20.4674 14.2881C20.4614 14.2949 20.454 14.3004 20.4457 14.3041C20.4374 14.3078 20.4284 14.3098 20.4194 14.3098C20.4103 14.3098 20.4013 14.3078 20.393 14.3041C20.3848 14.3004 20.3774 14.2949 20.3714 14.2881C20.3474 14.3041 20.3154 14.3041 20.3074 14.2881C20.2674 14.3281 20.1954 14.3201 20.1714 14.2721H20.1474C20.1399 14.2806 20.1306 14.2874 20.1203 14.2921C20.1099 14.2968 20.0987 14.2992 20.0874 14.2992C20.076 14.2992 20.0648 14.2968 20.0545 14.2921C20.0441 14.2874 20.0349 14.2806 20.0274 14.2721C19.9554 14.3201 19.9154 14.3041 19.8754 14.2721C19.8354 14.3281 19.7634 14.3281 19.7554 14.2721C19.7234 14.2961 19.6594 14.3041 19.6594 14.2721C19.6594 14.2561 19.7154 14.2641 19.7154 14.2401ZM19.8434 14.2481C19.8434 14.2641 19.8274 14.2721 19.8114 14.2721C19.7954 14.2721 19.7794 14.2641 19.7794 14.2481C19.7794 14.2321 19.7874 14.2321 19.8114 14.2321C19.8354 14.2321 19.8434 14.2401 19.8434 14.2481ZM19.9954 14.2321C19.9954 14.2481 19.9714 14.2561 19.9474 14.2561C19.9234 14.2561 19.9074 14.2481 19.9074 14.2321C19.9074 14.2241 19.9234 14.2081 19.9474 14.2081C19.9714 14.2081 19.9874 14.2241 19.9874 14.2321H19.9954ZM20.2754 14.2481C20.2754 14.2641 20.2594 14.2721 20.2354 14.2721C20.2114 14.2721 20.2034 14.2641 20.2034 14.2481C20.2034 14.2401 20.2194 14.2241 20.2354 14.2241C20.2514 14.2241 20.2754 14.2321 20.2754 14.2481ZM20.1234 14.2481C20.1234 14.2641 20.1074 14.2721 20.0834 14.2721C20.0594 14.2721 20.0514 14.2641 20.0514 14.2401C20.0514 14.2241 20.0674 14.2081 20.0834 14.2081C20.0994 14.2081 20.1234 14.2241 20.1234 14.2401V14.2481ZM20.4434 14.2481C20.4434 14.2561 20.4354 14.2721 20.4194 14.2721C20.3954 14.2721 20.3794 14.2561 20.3794 14.2401C20.3794 14.2241 20.3954 14.2161 20.4194 14.2161C20.4354 14.2161 20.4514 14.2241 20.4514 14.2401L20.4434 14.2481ZM20.3474 14.2481C20.3474 14.2641 20.3474 14.2721 20.3314 14.2721C20.3154 14.2721 20.3074 14.2641 20.3074 14.2481C20.3074 14.2321 20.3154 14.2321 20.3314 14.2321L20.3474 14.2481ZM20.5394 14.2561C20.5394 14.2721 20.5394 14.2881 20.5154 14.2881C20.5074 14.2881 20.4914 14.2721 20.4914 14.2561C20.4914 14.2401 20.5074 14.2321 20.5154 14.2321C20.5314 14.2321 20.5394 14.2401 20.5394 14.2561Z" fill="#F1B517" stroke="black" stroke-width="0.016"/>
<path d="M21.1027 13.824L21.6627 13.648L21.9107 13.224L22.7827 13.184L22.7507 13.504L22.0067 13.64L21.9427 13.768L21.0867 14.008L21.1027 13.824Z" fill="#F1B517" stroke="black" stroke-width="0.016"/>
<path d="M21.6866 13.9441L22.5826 12.6241L22.6226 12.6641L21.7426 13.9761L21.6866 13.9441Z" fill="#503200" stroke="black" stroke-width="0.016"/>
<path d="M22.4944 12.6801L22.5904 12.5201C22.6144 12.4881 22.6384 12.4801 22.6784 12.5041C22.7184 12.5201 22.7104 12.5601 22.6944 12.5921L22.6144 12.7441L22.4944 12.6801Z" fill="white" stroke="black" stroke-width="0.016"/>
<path d="M21.5827 13.128L23.3827 12.944L23.4307 13.208L21.6387 13.392L21.5827 13.128Z" fill="#F1B517" stroke="black" stroke-width="0.016"/>
<path d="M23.4229 12.88L23.4629 13.24H23.3829L23.3349 12.912L23.4229 12.88ZM23.1189 12.936L23.1349 13.264H23.0869L23.0469 12.984L23.1189 12.936ZM21.8949 13.08L21.9429 13.384H21.8549L21.8149 13.08H21.8949ZM21.6309 13.088L21.6869 13.44L21.5909 13.456L21.5589 13.272C21.5589 13.312 21.5189 13.336 21.4789 13.336C21.4309 13.336 21.3989 13.296 21.3989 13.256C21.3989 13.208 21.4309 13.176 21.4789 13.176C21.4956 13.1746 21.5123 13.1785 21.5266 13.1871C21.541 13.1957 21.5523 13.2086 21.5589 13.224L21.5349 13.096L21.6309 13.088ZM22.2709 13.144L22.5269 13.424L22.4949 13.456L22.1749 13.24L22.2709 13.144ZM22.8629 13.84L22.6149 13.56L22.6389 13.528L22.9589 13.744L22.8629 13.84ZM22.2149 13.768L22.5109 13.536L22.5429 13.56L22.3029 13.864L22.2149 13.768ZM22.9589 13.232L22.6469 13.456L22.6149 13.432L22.8549 13.128L22.9589 13.232ZM22.6229 13.048L22.5909 13.416H22.5509L22.4549 13.056L22.6229 13.048ZM22.5269 13.928L22.5509 13.568H22.5989L22.6549 13.936L22.5269 13.928ZM22.1189 13.448L22.5029 13.48V13.52L22.1189 13.568V13.448ZM23.0309 13.568L22.6549 13.512V13.48L23.0389 13.44V13.568H23.0309Z" fill="#F1B517" stroke="black" stroke-width="0.016"/>
<path d="M22.5664 13.584C22.509 13.584 22.4624 13.541 22.4624 13.488C22.4624 13.4349 22.509 13.392 22.5664 13.392C22.6238 13.392 22.6704 13.4349 22.6704 13.488C22.6704 13.541 22.6238 13.584 22.5664 13.584Z" fill="#F1B517" stroke="black" stroke-width="0.016"/>
<path fill-rule="evenodd" clip-rule="evenodd" d="M22.0305 13.488C22.0305 13.768 22.2705 14.008 22.5665 14.008C22.6359 14.009 22.7047 13.9964 22.7692 13.9708C22.8337 13.9453 22.8925 13.9073 22.9423 13.859C22.992 13.8107 23.0318 13.7531 23.0593 13.6894C23.0868 13.6258 23.1015 13.5573 23.1025 13.488C23.1025 13.2 22.8625 12.968 22.5665 12.968C22.4972 12.9669 22.4283 12.9795 22.3639 13.0051C22.2994 13.0306 22.2406 13.0686 22.1908 13.1169C22.1411 13.1652 22.1013 13.2228 22.0738 13.2865C22.0463 13.3502 22.0316 13.4186 22.0305 13.488ZM22.1345 13.488C22.1356 13.5436 22.1476 13.5986 22.1699 13.6496C22.1921 13.7007 22.2242 13.7468 22.2644 13.7854C22.3045 13.8241 22.3518 13.8544 22.4037 13.8748C22.4555 13.8951 22.5109 13.905 22.5665 13.904C22.6229 13.905 22.6789 13.8948 22.7313 13.874C22.7836 13.8532 22.8313 13.8221 22.8715 13.7826C22.9118 13.7432 22.9437 13.6961 22.9655 13.6441C22.9873 13.5921 22.9985 13.5363 22.9985 13.48C22.9944 13.3689 22.9468 13.2639 22.866 13.1876C22.7852 13.1113 22.6776 13.0698 22.5665 13.072C22.5109 13.0709 22.4555 13.0808 22.4037 13.1011C22.3518 13.1215 22.3045 13.1518 22.2644 13.1905C22.2242 13.2291 22.1921 13.2753 22.1699 13.3263C22.1476 13.3773 22.1356 13.4323 22.1345 13.488Z" fill="#F1B517" stroke="black" stroke-width="0.016" stroke-linecap="round"/>
<path d="M22.9024 13.2241L22.9824 13.1601L22.9024 13.2241ZM22.3024 13.1601L22.2224 13.0801L22.3024 13.1601ZM22.1424 13.8161L22.2304 13.7441L22.1424 13.8161ZM22.9024 13.8961L22.8224 13.8161L22.9024 13.8961ZM21.0864 12.9681L20.9984 13.4481L21.0704 13.4801L21.1504 12.9761L21.0864 12.9681Z" fill="#F1B517"/>
<path d="M22.9024 13.2241L22.9824 13.1601M22.3024 13.1601L22.2224 13.0801M22.1424 13.8161L22.2304 13.7441M22.9024 13.8961L22.8224 13.8161M21.0864 12.9681L20.9984 13.4481L21.0704 13.4801L21.1504 12.9761L21.0864 12.9681Z" stroke="black" stroke-width="0.016"/>
<path d="M21.1346 12.912C21.1746 12.888 21.2306 12.92 21.3266 12.808C21.4786 12.944 21.3266 12.968 21.3106 13.104C21.2706 13.12 21.2386 12.992 21.1266 12.984L20.9426 12.968L20.9826 12.912H21.1346Z" fill="white" stroke="black" stroke-width="0.016"/>
<path d="M21.0705 13.0001L21.0865 12.8641C21.1105 12.8081 21.1665 12.8561 21.1665 12.8801L21.1505 13.0161L21.0705 13.0001Z" fill="white" stroke="black" stroke-width="0.016"/>
<path fill-rule="evenodd" clip-rule="evenodd" d="M21.5189 13.392V13.52C21.5669 13.536 21.5589 13.568 21.5589 13.616V13.992C21.5669 14.024 21.6149 14.024 21.6389 14.04C21.6629 14.064 21.6549 14.104 21.5589 14.12L21.4789 14.128C21.3589 14.104 21.3349 14.064 21.3989 14.048C21.4229 14.032 21.4709 14.016 21.4789 14V13.904H21.3989C21.3829 13.904 21.3429 13.856 21.3429 13.816V13.616C21.3429 13.504 21.4229 13.488 21.4549 13.496V13.392H21.5189ZM21.3909 13.608C21.3909 13.576 21.4389 13.544 21.4549 13.544C21.4709 13.544 21.5109 13.584 21.5109 13.616V13.696C21.5109 13.728 21.4869 13.824 21.4389 13.832C21.4229 13.832 21.3909 13.8 21.3909 13.768V13.608Z" fill="#F1B517" stroke="black" stroke-width="0.016"/>
<path d="M22.0384 13.7842C22.0944 13.7682 22.0944 13.8802 22.0944 13.8802H22.0144C21.9744 13.8962 21.9504 13.9442 21.9664 13.9762C21.9904 13.9922 22.1424 13.9362 22.1504 13.9762C22.1264 14.1282 21.9184 14.1842 21.8464 14.1202C21.7744 14.0482 21.7584 13.8802 21.9904 13.8242L22.0384 13.7842ZM21.9904 13.8322L22.0144 13.8802L21.9904 13.8322Z" fill="white"/>
<path d="M22.0144 13.8802H22.0944C22.0944 13.8802 22.0944 13.7682 22.0384 13.7842L21.9904 13.8242C21.7584 13.8802 21.7744 14.0482 21.8464 14.1202C21.9184 14.1842 22.1264 14.1282 22.1504 13.9762C22.1424 13.9362 21.9904 13.9922 21.9664 13.9762C21.9504 13.9442 21.9744 13.8962 22.0144 13.8802ZM22.0144 13.8802L21.9904 13.8322" stroke="black" stroke-width="0.016"/>
<path d="M23.5824 13.8401L23.6624 13.5201L23.5824 13.8401ZM23.4944 13.8241L23.6144 13.5761L23.4944 13.8241ZM23.2944 13.7601L23.5584 13.6161L23.2944 13.7601ZM23.1744 13.7281L23.6704 13.5121L23.1744 13.7281Z" fill="#F1B517"/>
<path d="M23.5824 13.8401L23.6624 13.5201M23.4944 13.8241L23.6144 13.5761M23.2944 13.7601L23.5584 13.6161M23.1744 13.7281L23.6704 13.5121" stroke="black" stroke-width="0.016"/>
<path d="M23.9665 13.2802L24.1745 13.2882C24.1905 13.2962 24.1345 13.3602 24.1425 13.3762C24.1905 13.4642 24.4945 13.4562 24.5185 13.4402C24.5585 13.4002 24.2385 13.3762 24.2305 13.3602C24.2305 13.3282 24.2785 13.2642 24.2705 13.2242C24.2705 13.1682 24.1345 13.1442 24.1345 13.1442L23.9665 13.2802Z" fill="#D20014" stroke="#D20014" stroke-width="0.016"/>
<path d="M23.7267 13.4402L24.1267 13.1042C24.1267 13.1042 24.1507 13.0882 24.1667 13.1042C24.1827 13.1202 24.1667 13.1362 24.1667 13.1362L23.7347 13.4882L23.7267 13.4482V13.4402Z" fill="#503200" stroke="black" stroke-width="0.016"/>
<path d="M23.3268 13.7761L23.6628 13.4881L23.6868 13.4081L23.7508 13.4561C23.7748 13.4721 23.7988 13.5201 23.7988 13.5201H23.7108L23.4228 13.7921L23.3348 13.7761H23.3268Z" fill="#F1B517" stroke="black" stroke-width="0.016"/>
<path d="M22.1823 14.2239C22.1514 14.2239 22.1263 14.1989 22.1263 14.1679C22.1263 14.137 22.1514 14.1119 22.1823 14.1119C22.2132 14.1119 22.2383 14.137 22.2383 14.1679C22.2383 14.1989 22.2132 14.2239 22.1823 14.2239Z" fill="#F1B517" stroke="black" stroke-width="0.016"/>
<path d="M22.3346 14.1121C22.3037 14.1121 22.2786 14.087 22.2786 14.0561C22.2786 14.0252 22.3037 14.0001 22.3346 14.0001C22.3656 14.0001 22.3906 14.0252 22.3906 14.0561C22.3906 14.087 22.3656 14.1121 22.3346 14.1121Z" fill="#F1B517" stroke="black" stroke-width="0.016"/>
<path d="M22.5343 14.1841C22.5034 14.1841 22.4783 14.1591 22.4783 14.1281C22.4783 14.0972 22.5034 14.0721 22.5343 14.0721C22.5653 14.0721 22.5903 14.0972 22.5903 14.1281C22.5903 14.1591 22.5653 14.1841 22.5343 14.1841Z" fill="#F1B517" stroke="black" stroke-width="0.016"/>
<path d="M22.8463 14.2481C22.8154 14.2481 22.7903 14.223 22.7903 14.1921C22.7903 14.1612 22.8154 14.1361 22.8463 14.1361C22.8773 14.1361 22.9023 14.1612 22.9023 14.1921C22.9023 14.223 22.8773 14.2481 22.8463 14.2481Z" fill="#F1B517" stroke="black" stroke-width="0.016"/>
<path d="M22.9826 14.264C22.9516 14.264 22.9266 14.2389 22.9266 14.208C22.9266 14.1771 22.9516 14.152 22.9826 14.152C23.0135 14.152 23.0386 14.1771 23.0386 14.208C23.0386 14.2389 23.0135 14.264 22.9826 14.264Z" fill="#F1B517" stroke="black" stroke-width="0.016"/>
<path d="M23.1188 14.264C23.0879 14.264 23.0628 14.2389 23.0628 14.208C23.0628 14.1771 23.0879 14.152 23.1188 14.152C23.1497 14.152 23.1748 14.1771 23.1748 14.208C23.1748 14.2389 23.1497 14.264 23.1188 14.264Z" fill="#F1B517" stroke="black" stroke-width="0.016"/>
<path d="M23.2467 14.264C23.2158 14.264 23.1907 14.2389 23.1907 14.208C23.1907 14.1771 23.2158 14.152 23.2467 14.152C23.2777 14.152 23.3027 14.1771 23.3027 14.208C23.3027 14.2389 23.2777 14.264 23.2467 14.264Z" fill="#F1B517" stroke="black" stroke-width="0.016"/>
<path d="M23.1823 14.16C23.1514 14.16 23.1263 14.1349 23.1263 14.104C23.1263 14.073 23.1514 14.048 23.1823 14.048C23.2132 14.048 23.2383 14.073 23.2383 14.104C23.2383 14.1349 23.2132 14.16 23.1823 14.16Z" fill="#F1B517" stroke="black" stroke-width="0.016"/>
<path d="M23.0548 14.168C23.0239 14.168 22.9988 14.143 22.9988 14.112C22.9988 14.0811 23.0239 14.056 23.0548 14.056C23.0858 14.056 23.1108 14.0811 23.1108 14.112C23.1108 14.143 23.0858 14.168 23.0548 14.168Z" fill="#F1B517" stroke="black" stroke-width="0.016"/>
<path d="M22.9342 14.1522C22.9033 14.1522 22.8782 14.1271 22.8782 14.0962C22.8782 14.0652 22.9033 14.0402 22.9342 14.0402C22.9652 14.0402 22.9902 14.0652 22.9902 14.0962C22.9902 14.1271 22.9652 14.1522 22.9342 14.1522Z" fill="#F1B517" stroke="black" stroke-width="0.016"/>
<path d="M22.9909 14.056C22.9599 14.056 22.9349 14.0309 22.9349 14C22.9349 13.969 22.9599 13.944 22.9909 13.944C23.0218 13.944 23.0469 13.969 23.0469 14C23.0469 14.0309 23.0218 14.056 22.9909 14.056Z" fill="#F1B517" stroke="black" stroke-width="0.016"/>
<path d="M23.1188 14.0482C23.0879 14.0482 23.0628 14.0231 23.0628 13.9922C23.0628 13.9612 23.0879 13.9362 23.1188 13.9362C23.1497 13.9362 23.1748 13.9612 23.1748 13.9922C23.1748 14.0231 23.1497 14.0482 23.1188 14.0482Z" fill="#F1B517" stroke="black" stroke-width="0.016"/>
<path fill-rule="evenodd" clip-rule="evenodd" d="M21.8628 14.2401C21.8628 14.2161 21.9268 14.2241 21.9268 14.1921C21.9268 14.1601 21.8308 14.1921 21.8228 14.2161C21.7668 14.1681 21.7428 14.2001 21.7108 14.2161C21.6628 14.1521 21.6068 14.1521 21.5508 14.2001C21.5188 14.1681 21.4388 14.1761 21.4148 14.2161C21.3588 14.1681 21.3108 14.1761 21.2788 14.2161C21.2628 14.1921 21.2388 14.1921 21.2228 14.2161C21.1988 14.1601 21.1268 14.1761 21.0948 14.2161C21.0708 14.1841 21.0388 14.2081 21.0068 14.2241C20.9828 14.2081 20.9428 14.2081 20.9428 14.2241C20.9428 14.2561 20.9908 14.2481 20.9908 14.2721C20.9908 14.2881 20.9588 14.2721 20.9588 14.3041C20.9588 14.3281 21.0068 14.3361 21.0148 14.3041C21.0388 14.3361 21.1028 14.3201 21.1108 14.2881C21.1168 14.2949 21.1241 14.3004 21.1324 14.3041C21.1407 14.3078 21.1497 14.3098 21.1588 14.3098C21.1678 14.3098 21.1768 14.3078 21.1851 14.3041C21.1934 14.3004 21.2008 14.2949 21.2068 14.2881C21.2308 14.3041 21.2628 14.3041 21.2708 14.2881C21.3108 14.3281 21.3828 14.3201 21.4068 14.2721H21.4308C21.4383 14.2806 21.4475 14.2874 21.4578 14.2921C21.4682 14.2968 21.4794 14.2992 21.4908 14.2992C21.5021 14.2992 21.5133 14.2968 21.5237 14.2921C21.534 14.2874 21.5433 14.2806 21.5508 14.2721C21.6228 14.3201 21.6628 14.3041 21.7028 14.2721C21.7428 14.3281 21.8148 14.3281 21.8228 14.2721C21.8548 14.2961 21.9188 14.3041 21.9188 14.2721C21.9188 14.2561 21.8628 14.2641 21.8628 14.2401ZM21.7348 14.2481C21.7348 14.2641 21.7508 14.2721 21.7668 14.2721C21.7828 14.2721 21.7988 14.2641 21.7988 14.2481C21.7988 14.2321 21.7908 14.2321 21.7668 14.2321C21.7428 14.2321 21.7348 14.2401 21.7348 14.2481ZM21.5828 14.2321C21.5828 14.2481 21.6068 14.2561 21.6308 14.2561C21.6548 14.2561 21.6708 14.2481 21.6708 14.2321C21.6708 14.2241 21.6548 14.2081 21.6308 14.2081C21.6068 14.2081 21.5908 14.2241 21.5908 14.2321H21.5828ZM21.3028 14.2481C21.3028 14.2641 21.3188 14.2721 21.3428 14.2721C21.3668 14.2721 21.3748 14.2641 21.3748 14.2481C21.3748 14.2401 21.3588 14.2241 21.3428 14.2241C21.3268 14.2241 21.3028 14.2321 21.3028 14.2481ZM21.4548 14.2481C21.4548 14.2641 21.4708 14.2721 21.4948 14.2721C21.5188 14.2721 21.5268 14.2641 21.5268 14.2401C21.5268 14.2241 21.5108 14.2081 21.4948 14.2081C21.4788 14.2081 21.4548 14.2241 21.4548 14.2401V14.2481ZM21.1348 14.2481C21.1348 14.2561 21.1428 14.2721 21.1588 14.2721C21.1828 14.2721 21.1988 14.2561 21.1988 14.2401C21.1988 14.2241 21.1828 14.2161 21.1588 14.2161C21.1428 14.2161 21.1268 14.2241 21.1268 14.2401L21.1348 14.2481ZM21.2308 14.2481C21.2308 14.2641 21.2308 14.2721 21.2468 14.2721C21.2628 14.2721 21.2708 14.2641 21.2708 14.2481C21.2708 14.2321 21.2628 14.2321 21.2468 14.2321L21.2308 14.2481ZM21.0388 14.2561C21.0388 14.2721 21.0388 14.2881 21.0628 14.2881C21.0708 14.2881 21.0868 14.2721 21.0868 14.2561C21.0868 14.2401 21.0708 14.2321 21.0628 14.2321C21.0468 14.2321 21.0388 14.2401 21.0388 14.2561Z" fill="#F1B517" stroke="black" stroke-width="0.016"/>
<path d="M20.7765 13.256C20.5765 13.256 20.4165 13.336 20.4165 13.424C20.4165 13.44 20.4165 13.456 20.4325 13.472C20.4725 13.52 20.6165 13.552 20.7845 13.552C20.9445 13.552 21.0725 13.528 21.1205 13.48C21.1365 13.464 21.1445 13.448 21.1445 13.424C21.1445 13.336 20.9845 13.264 20.7765 13.264V13.256Z" fill="#0A328C" stroke="#0A328C" stroke-width="0.016"/>
<path d="M21.1445 13.4401V14.0001C21.1445 14.0721 20.9845 14.1201 20.7845 14.1201C20.5845 14.1201 20.4165 14.0721 20.4165 14.0001V13.4401C20.4165 13.5041 20.5765 13.5601 20.7765 13.5601C20.9845 13.5601 21.1445 13.5041 21.1445 13.4401Z" fill="#F1B517" stroke="black" stroke-width="0.016"/>
<path d="M20.4165 13.4401V13.5201L20.5925 14.0801L20.7365 13.6481L20.8965 14.0881L21.0005 13.6721L21.1445 13.9521V13.8001L21.0165 13.5281C21.0007 13.534 20.9847 13.5393 20.9685 13.5441L20.8885 13.8481L20.7685 13.5601C20.7498 13.5605 20.7312 13.5605 20.7125 13.5601L20.5925 13.8481L20.4645 13.4961C20.4325 13.4801 20.4165 13.4561 20.4165 13.4401Z" fill="#D20014" stroke="#D20014" stroke-width="0.016"/>
<path d="M21.1445 13.8961V14.0001C21.1445 14.0721 20.9845 14.1201 20.7845 14.1201C20.5845 14.1201 20.4165 14.0721 20.4165 14.0001V13.8961C20.4165 13.9681 20.5765 14.0161 20.7765 14.0161C20.9845 14.0161 21.1445 13.9681 21.1445 13.8961Z" fill="#0A328C" stroke="#0A328C" stroke-width="0.016"/>
<path d="M20.9285 14.0001L20.8405 14.0161V14.1201L20.9365 14.1121L20.9285 14.0001ZM20.5445 13.9921V14.0961L20.6325 14.1121V14.0081C20.6029 14.0046 20.5735 13.9993 20.5445 13.9921ZM20.4165 13.8961V14.0001C20.4165 14.0241 20.4325 14.0401 20.4565 14.0561V13.9521C20.4325 13.9361 20.4165 13.9201 20.4165 13.8961ZM21.1445 13.9121C21.1445 13.9281 21.1125 13.9521 21.0805 13.9681V14.0721C21.1205 14.0561 21.1445 14.0321 21.1445 14.0001V13.9121Z" fill="#F1B517" stroke="black" stroke-width="0.016"/>
<path d="M21.1445 13.4401V14.0001C21.1445 14.0721 20.9845 14.1201 20.7845 14.1201C20.5845 14.1201 20.4165 14.0721 20.4165 14.0001V13.4401" stroke="black" stroke-width="0.016"/>
<path d="M21.0646 13.4C21.0646 13.44 20.9366 13.48 20.7846 13.48C20.6246 13.48 20.4966 13.44 20.4966 13.4C20.4966 13.36 20.6246 13.328 20.7766 13.328C20.9366 13.328 21.0646 13.36 21.0646 13.408V13.4Z" fill="white" stroke="white" stroke-width="0.016"/>
<path d="M20.6887 13.4562L20.7047 13.5522H20.7847L20.7927 13.4562H20.6887ZM21.0167 13.4322L20.9367 13.4482L20.9447 13.5442L21.0247 13.5282L21.0167 13.4322ZM20.5847 13.2722L20.5287 13.2962L20.5367 13.3762L20.5847 13.3602V13.2722ZM20.7767 13.2482H20.7527L20.7687 13.3442H20.8167L20.8327 13.2482C20.814 13.2475 20.7954 13.2475 20.7767 13.2482ZM20.9927 13.2802L20.9847 13.3602L21.0407 13.3842V13.3042C21.0252 13.2952 21.0092 13.2871 20.9927 13.2802ZM20.4727 13.5042L20.4887 13.4002L20.4087 13.3602V13.4802L20.4727 13.5042ZM21.1447 13.4802V13.3762L21.0807 13.4002L21.1447 13.4802ZM21.8887 12.8002C21.9527 12.8002 22.0487 12.8802 22.0567 13.0002C22.0567 13.0802 21.9207 13.0802 21.9207 13.0802C21.9207 13.1202 21.8407 13.1522 21.7767 13.1602C21.7127 13.1602 21.7927 13.0402 21.7927 13.0402C21.7527 12.9362 21.8087 12.8242 21.8087 12.8242L21.8887 12.8002Z" fill="#F1B517" stroke="black" stroke-width="0.016"/>
<path d="M21.7925 13.0401H21.8565C21.8565 13.0401 21.8565 13.0641 21.8725 13.0641C21.8885 13.0641 21.8965 13.0321 21.8965 13.0321H21.9925" fill="#F1B517"/>
<path d="M21.7925 13.0401H21.8565C21.8565 13.0401 21.8565 13.0641 21.8725 13.0641C21.8885 13.0641 21.8965 13.0321 21.8965 13.0321H21.9925" stroke="black" stroke-width="0.016"/>
<path d="M21.9208 12.8721C21.9768 12.8321 21.9288 12.7521 21.8888 12.7521H21.8088C21.7608 12.7521 21.6968 12.8001 21.7048 12.8321C21.7048 12.8721 21.7368 12.8881 21.7688 12.8801C21.7848 12.8801 21.8168 12.8321 21.8328 12.8321C21.8568 12.8321 21.9128 12.8801 21.9208 12.8721Z" fill="#D20014" stroke="#F1B517" stroke-width="0.016"/>
<path fill-rule="evenodd" clip-rule="evenodd" d="M17.9286 13.984C17.8806 13.992 17.8726 14.048 17.8886 14.104C17.6806 14.16 17.4886 14.24 17.2966 14.296C17.2886 14.256 17.3926 14.152 17.3926 14.152C17.4166 14.16 17.4406 14.224 17.4406 14.224C17.4406 14.096 17.5686 14.016 17.5686 14.016C17.4886 14 17.2726 14.096 17.2486 14.128C17.2486 14.128 17.3286 14.112 17.3446 14.128C17.3446 14.128 17.1686 14.312 17.1606 14.368C17.1926 14.424 17.4806 14.472 17.4806 14.472C17.4806 14.488 17.4006 14.552 17.4006 14.552C17.5206 14.568 17.6966 14.488 17.7446 14.44C17.7446 14.44 17.6086 14.424 17.5046 14.336C17.5046 14.336 17.5206 14.392 17.5046 14.416C17.5046 14.416 17.3446 14.368 17.3206 14.336C17.3206 14.336 17.7206 14.24 17.9126 14.176C17.9206 14.216 17.9606 14.28 18.0086 14.264C18.0326 14.256 18.0246 14.2 18.0086 14.152C18.0151 14.1578 18.0227 14.1622 18.031 14.165C18.0392 14.1677 18.048 14.1687 18.0566 14.168C18.0886 14.168 18.1126 14.144 18.1126 14.112C18.1126 14.08 18.0886 14.056 18.0566 14.056C18.0445 14.0566 18.0327 14.0608 18.0228 14.0678C18.0129 14.0749 18.0052 14.0847 18.0006 14.096C17.9926 14.056 17.9686 13.984 17.9366 13.992L17.9286 13.984ZM18.0886 14.112C18.0886 14.128 18.0726 14.136 18.0566 14.136C18.0529 14.1373 18.0489 14.1377 18.045 14.1371C18.0411 14.1365 18.0374 14.135 18.0342 14.1326C18.031 14.1302 18.0285 14.1271 18.0268 14.1235C18.0252 14.1199 18.0244 14.116 18.0246 14.112C18.0246 14.096 18.0406 14.08 18.0566 14.08C18.0726 14.08 18.0806 14.096 18.0806 14.112H18.0886Z" fill="#F1B517" stroke="black" stroke-width="0.016"/>
<path d="M24.2327 14.2321C24.2487 14.2001 24.2327 14.0561 24.2327 14.0561C24.1927 14.0561 24.1527 14.1121 24.1527 14.1121C24.1927 13.9841 24.0887 13.7921 24.0887 13.7921C24.1607 13.8001 24.4007 14.0321 24.4087 14.0801C24.4087 14.0801 24.3047 14.0401 24.2887 14.0481C24.3127 14.1681 24.3927 14.2241 24.4247 14.2881C24.4247 14.2881 24.2887 14.3121 24.2967 14.4321H24.2087C24.1767 14.3921 24.2167 14.3281 24.2167 14.3281L23.6007 14.0721C23.5607 14.0561 23.4727 14.0081 23.4887 13.9601C23.4967 13.9201 23.6487 13.9841 23.6807 14.0001L24.2327 14.2321Z" fill="#F1B517" stroke="black" stroke-width="0.016"/>
<path d="M23.6405 14.12L23.7205 13.992C23.7445 13.952 23.6885 13.912 23.6485 13.96L23.5685 14.08C23.5365 14.152 23.6085 14.168 23.6485 14.12H23.6405Z" fill="#F1B517" stroke="black" stroke-width="0.016"/>
<path d="M19.296 14.4299L19.291 14.2799L19.116 14.2949L19.106 14.4499L19.296 14.4299Z" fill="white" stroke="black" stroke-width="0.015"/>
<path d="M18.0061 14.6349L17.7711 14.4999C18.7411 14.5899 18.9411 14.2499 19.1761 14.2349C19.3261 14.2199 19.3411 14.3949 19.0611 14.3099L19.1361 14.4899C19.1361 14.4899 18.4461 14.8799 17.7661 14.7199L18.0061 14.6349ZM22.2461 14.4299L22.2511 14.2799L22.4661 14.2899L22.4761 14.4449L22.2461 14.4299Z" fill="white" stroke="black" stroke-width="0.015"/>
<path d="M23.5808 14.6L23.8058 14.475C22.6858 14.51 22.9408 14.295 22.3858 14.235C22.2358 14.215 22.1358 14.405 22.4958 14.31L22.4258 14.49H22.6008C22.9808 14.74 23.4908 14.765 23.8308 14.685L23.5808 14.6Z" fill="white" stroke="black" stroke-width="0.015"/>
<path d="M19.061 14.3151V14.5651C19.061 14.5651 19.676 14.7951 20.781 14.7951C21.891 14.7951 22.501 14.5651 22.501 14.5651V14.3151C22.501 14.3151 22.036 14.5301 20.781 14.5301C19.531 14.5301 19.061 14.3151 19.061 14.3151Z" fill="white" stroke="black" stroke-width="0.015"/>
<path d="M19.1553 14.565L19.2103 14.38L19.2353 14.39L19.1853 14.55L19.2853 14.575L19.2753 14.6L19.1553 14.565ZM19.3353 14.485V14.45L19.3453 14.415L19.3753 14.425L19.3653 14.455L19.3503 14.49L19.3353 14.485ZM19.6003 14.47L19.6253 14.48L19.6053 14.585L19.5853 14.635C19.5789 14.6438 19.5703 14.6507 19.5603 14.655H19.5103C19.4938 14.6522 19.4784 14.6453 19.4653 14.635C19.4551 14.6278 19.448 14.6171 19.4453 14.605L19.4503 14.555L19.4753 14.445L19.5003 14.45L19.4753 14.56C19.4727 14.5732 19.4727 14.5868 19.4753 14.6C19.4763 14.6076 19.4798 14.6146 19.4853 14.62L19.5103 14.63H19.5603L19.5803 14.58L19.6003 14.47ZM19.6303 14.67L19.6603 14.485H19.6903L19.7653 14.655L19.7903 14.505H19.8153L19.7853 14.7L19.7603 14.695L19.6803 14.53L19.6553 14.68L19.6303 14.67ZM19.8303 14.705L19.8603 14.515H19.8853L19.8603 14.705H19.8353H19.8303ZM19.9103 14.62C19.9103 14.59 19.9253 14.565 19.9453 14.55C19.9653 14.5348 19.9903 14.5276 20.0153 14.53C20.0353 14.53 20.0503 14.535 20.0653 14.545L20.0903 14.585C20.1003 14.6 20.1003 14.62 20.0953 14.635C20.0944 14.6526 20.0892 14.6698 20.0803 14.685C20.071 14.7006 20.057 14.7129 20.0403 14.72C20.0243 14.7259 20.0071 14.7276 19.9903 14.725C19.9726 14.7245 19.9553 14.7193 19.9403 14.71C19.9283 14.6993 19.9197 14.6854 19.9153 14.67C19.9096 14.654 19.9079 14.6368 19.9103 14.62ZM19.9353 14.62C19.9353 14.645 19.9353 14.67 19.9503 14.68C19.9603 14.695 19.9753 14.705 19.9953 14.705C20.0153 14.705 20.0303 14.705 20.0453 14.69C20.0603 14.68 20.0653 14.66 20.0703 14.64C20.0747 14.6236 20.0747 14.6064 20.0703 14.59C20.0646 14.5793 20.0559 14.5706 20.0453 14.565C20.0354 14.5566 20.0232 14.5514 20.0103 14.55C19.9953 14.55 19.9753 14.55 19.9603 14.565C19.9503 14.575 19.9403 14.595 19.9353 14.625V14.62ZM20.1203 14.735L20.1353 14.545H20.1653L20.2553 14.705L20.2653 14.555H20.2903L20.2753 14.75H20.2503L20.1553 14.59L20.1453 14.74L20.1203 14.735ZM20.4003 14.755L20.4053 14.565L20.5403 14.57V14.595L20.4353 14.59L20.4303 14.645L20.5253 14.65V14.675L20.4253 14.67V14.76L20.4003 14.755ZM20.5503 14.76L20.6253 14.57H20.6553L20.7303 14.77H20.7003L20.6803 14.705H20.5953L20.5753 14.765L20.5503 14.76ZM20.6003 14.685H20.6703L20.6503 14.635C20.6462 14.6202 20.6429 14.6052 20.6403 14.59L20.6303 14.63L20.6053 14.685H20.6003ZM20.7553 14.765V14.575H20.7853V14.765H20.7553ZM20.8803 14.765V14.6H20.8153V14.58H20.9703V14.6H20.9053V14.77L20.8803 14.765ZM21.0803 14.765L21.0653 14.565H21.0953L21.1003 14.735H21.2003V14.755L21.0803 14.765ZM21.2103 14.755L21.2703 14.555H21.3003L21.4003 14.74H21.3653L21.3403 14.69H21.2553L21.2403 14.755H21.2103ZM21.2603 14.67H21.3303L21.3053 14.62L21.2853 14.575C21.2847 14.5885 21.2831 14.6018 21.2803 14.615L21.2603 14.67ZM21.4953 14.73L21.4753 14.54L21.6053 14.525L21.6103 14.55L21.5053 14.56V14.62L21.6053 14.61V14.635L21.5103 14.645L21.5203 14.73H21.4953ZM21.6453 14.625C21.6413 14.6117 21.6401 14.5977 21.6419 14.584C21.6436 14.5702 21.6481 14.5569 21.6553 14.545C21.6717 14.5255 21.6949 14.513 21.7203 14.51L21.7703 14.515C21.7903 14.52 21.8003 14.53 21.8103 14.545L21.8303 14.595L21.8253 14.645C21.8198 14.6612 21.8093 14.6752 21.7953 14.685C21.7822 14.6953 21.7667 14.7022 21.7503 14.705C21.7335 14.7076 21.7162 14.7059 21.7003 14.7C21.6842 14.6942 21.6703 14.6838 21.6603 14.67C21.6494 14.6554 21.6425 14.6381 21.6403 14.62L21.6453 14.625ZM21.6703 14.62C21.6703 14.64 21.6803 14.66 21.6953 14.67C21.7103 14.685 21.7253 14.685 21.7453 14.685C21.7653 14.685 21.7803 14.675 21.7953 14.66C21.8053 14.645 21.8053 14.625 21.8053 14.6C21.8032 14.5857 21.7981 14.5721 21.7903 14.56C21.7831 14.5488 21.7726 14.5401 21.7603 14.535C21.7488 14.532 21.7368 14.532 21.7253 14.535C21.7053 14.535 21.6903 14.54 21.6753 14.555C21.6703 14.57 21.6653 14.59 21.6703 14.62ZM21.8753 14.685L21.8453 14.495L21.9303 14.48H21.9703C21.9803 14.48 21.9903 14.48 21.9953 14.49L22.0103 14.52C22.0103 14.535 22.0103 14.545 22.0003 14.555C21.9953 14.565 21.9803 14.575 21.9653 14.58C21.9704 14.5811 21.9755 14.5828 21.9803 14.585L22.0053 14.61L22.0553 14.655H22.0203L21.9853 14.625C21.9773 14.6163 21.969 14.6079 21.9603 14.6C21.9558 14.5959 21.9507 14.5926 21.9453 14.59C21.9403 14.5891 21.9352 14.5891 21.9303 14.59H21.9153L21.8853 14.595L21.9053 14.68L21.8753 14.685ZM21.8853 14.575L21.9353 14.565C21.9458 14.5636 21.956 14.5602 21.9653 14.555C21.9705 14.5521 21.9747 14.5476 21.9774 14.5423C21.98 14.537 21.981 14.5309 21.9803 14.525C21.9796 14.5173 21.9761 14.5101 21.9703 14.505H21.9353L21.8703 14.51L21.8853 14.575ZM22.2003 14.555H22.2253C22.2253 14.575 22.2203 14.595 22.2103 14.605C22.197 14.6197 22.1796 14.6302 22.1603 14.635C22.1439 14.6392 22.1267 14.6392 22.1103 14.635C22.0941 14.6295 22.0801 14.619 22.0703 14.605C22.0584 14.5903 22.0499 14.5733 22.0453 14.555C22.0414 14.5386 22.0414 14.5215 22.0453 14.505C22.0453 14.485 22.0603 14.47 22.0703 14.46L22.1153 14.44H22.1653C22.1853 14.45 22.1953 14.46 22.2053 14.48L22.1803 14.49C22.1746 14.4793 22.1659 14.4706 22.1553 14.465C22.1439 14.4612 22.1316 14.4612 22.1203 14.465C22.1071 14.4652 22.0945 14.4706 22.0853 14.48C22.0763 14.4895 22.0709 14.5019 22.0703 14.515V14.55C22.0743 14.5645 22.0811 14.5781 22.0903 14.59C22.0953 14.6 22.1053 14.61 22.1203 14.61H22.1553C22.1666 14.6083 22.1771 14.603 22.1853 14.595C22.1953 14.585 22.2003 14.57 22.2003 14.555ZM22.2703 14.605L22.2203 14.42L22.3553 14.385L22.3653 14.405L22.2503 14.435L22.2653 14.49L22.3703 14.465L22.3803 14.485L22.2703 14.515L22.2903 14.575L22.4103 14.545V14.565L22.2703 14.605Z" fill="#000001"/>
</g>
<defs>
<clipPath id="clip0_11930_68022">
<rect width="36" height="24" rx="2" fill="white"/>
</clipPath>
</defs>
</svg>
