<svg width="36" height="24" viewBox="0 0 36 24" fill="none" xmlns="http://www.w3.org/2000/svg">
<rect width="36" height="24" rx="2" fill="white"/>
<path fill-rule="evenodd" clip-rule="evenodd" d="M36 5.4145H0V2.2561H36V5.4145ZM36 21.888H0V18.7296H36V21.888ZM12.6748 8.963L17.8495 17.9682L23.137 9.0053L12.6748 8.963Z" fill="#0038B8"/>
<path fill-rule="evenodd" clip-rule="evenodd" d="M16.8765 14.9365L17.8588 16.605L18.8646 14.9459L16.8765 14.9365Z" fill="white"/>
<path fill-rule="evenodd" clip-rule="evenodd" d="M12.6558 15.0682L17.8352 6.06299L23.118 15.0306L12.6558 15.0682Z" fill="#0038B8"/>
<path fill-rule="evenodd" clip-rule="evenodd" d="M16.8764 9.00517L17.8587 7.33667L18.8645 9.00047L16.8764 9.00517ZM14.8178 12.7417L13.7979 14.4337L15.7249 14.429L14.8178 12.737V12.7417ZM13.8167 9.61617L15.7531 9.63027L14.8225 11.3364L13.8167 9.61617ZM20.9231 12.7652L21.9054 14.4337L19.9455 14.4102L20.9231 12.7652ZM21.8866 9.61617L19.9502 9.63027L20.8808 11.3364L21.8866 9.61617ZM16.5145 9.61617L15.1797 12.032L16.5333 14.3961L19.0149 14.4525L20.5189 12.032L19.1277 9.58797L16.5145 9.61617Z" fill="white"/>
</svg>
