<svg width="36" height="24" viewBox="0 0 36 24" fill="none" xmlns="http://www.w3.org/2000/svg">
<rect width="36" height="24" rx="2" fill="#D01129"/>
<path fill-rule="evenodd" clip-rule="evenodd" d="M18.4118 17.5172C18.4212 17.489 18.44 17.1976 18.4306 17.1976C18.4212 17.1976 17.9888 16.6853 17.9982 16.6853C18.0076 16.6853 18.5528 16.8075 18.5528 16.7887C18.5528 16.7699 18.7737 16.2482 18.7737 16.2388L19.0369 16.8733L19.5774 17.1083L19.2014 17.4232L19.2813 18.0342C19.2813 18.0483 18.9053 17.677 18.9053 17.677L18.487 17.724C18.487 17.724 18.4306 17.536 18.4118 17.5172Z" fill="#FFEF00" stroke="black" stroke-width="0.1034"/>
<path fill-rule="evenodd" clip-rule="evenodd" d="M15.4842 9.56947C15.1223 9.75747 13.7452 11.332 13.5572 11.5764C13.3652 11.9892 13.0974 12.3623 12.7676 12.6762C12.4245 12.9347 12.2365 13.2872 12.2835 13.6162C12.2835 14.0392 12.5138 14.3212 12.6971 14.6079C12.8052 14.7442 12.9556 14.8288 13.1107 14.8429C13.435 14.8805 13.4632 14.9839 13.6277 15.0403C14.2575 15.9051 15.2069 16.5443 15.8837 17.0472C16.1951 17.1948 16.4808 17.3916 16.7297 17.63C16.9271 18.0154 16.8895 18.382 16.8613 18.57L16.3584 20.4782C16.2691 20.9952 16.725 20.8824 16.7485 20.779C16.9506 20.5111 17.2561 20.6991 17.6885 19.1669L18.2901 18.3632C18.2901 18.3632 18.5204 18.2692 18.5204 18.2457C18.8729 17.8227 18.605 17.5877 18.4029 17.5078L17.9705 17.348C17.9705 17.348 17.4629 16.8404 17.4394 16.8404C17.1997 16.1401 16.0153 14.6502 15.7427 14.4434C15.5547 14.2413 15.4607 14.1614 15.2821 14.0486C15.0048 13.917 14.9155 13.87 14.7463 13.8042C14.6053 13.7478 14.704 13.5927 14.7933 13.5222C15.7333 13.0099 16.4712 12.4459 17.3689 11.8725L17.5099 11.7785L17.1856 9.93607L15.691 9.40967C15.6111 9.46137 15.55 9.51777 15.4842 9.56947Z" fill="white" stroke="black" stroke-width="0.1222"/>
<path fill-rule="evenodd" clip-rule="evenodd" d="M16.7343 19.261C16.7343 19.2422 17.6743 19.073 17.6743 19.073L17.5568 19.4208L16.6309 19.7028L16.7343 19.261Z" fill="#FFEC00"/>
<path d="M14.3047 15.7547C14.4006 15.5347 14.54 15.3364 14.7144 15.1717C14.8889 15.0069 15.0948 14.8791 15.3199 14.7959" stroke="black" stroke-width="0.1034"/>
<path d="M16.7014 19.2704C16.7625 19.2563 17.0304 19.1764 17.1056 19.1623C17.1902 19.1435 17.2701 19.1247 17.35 19.0965C17.444 19.0777 17.5004 19.0589 17.5944 19.0448C17.6712 19.0177 17.7497 18.9957 17.8294 18.979M16.5322 19.8485C16.5678 19.813 16.6072 19.7814 16.6497 19.7545C16.7014 19.7357 16.8847 19.6605 16.9552 19.6464C17.0298 19.6278 17.1035 19.6059 17.1761 19.5806L17.3923 19.5242C17.4628 19.496 17.5286 19.4772 17.5991 19.4584" stroke="black" stroke-width="0.1128"/>
<path d="M16.9078 15.891H16.8984C16.936 15.891 16.9125 15.891 16.8561 15.9568C16.8373 16.0085 16.6681 16.1307 16.5365 16.1307C16.4631 16.1387 16.3894 16.1434 16.3156 16.1448L16.2545 16.1307M16.8984 18.6452H16.9642C17.0347 18.6452 17.1052 18.6593 17.1616 18.6593C17.2321 18.6593 17.2979 18.6781 17.3637 18.6781C17.4342 18.6875 17.5141 18.6828 17.5846 18.6969C17.6598 18.6969 17.7256 18.711 17.8055 18.711M17.8055 18.711C17.8713 18.7157 17.9089 18.7251 17.9794 18.7251L17.8055 18.711ZM16.4425 20.2761C16.4749 20.2408 16.5111 20.2093 16.5506 20.1821C16.5976 20.168 16.7668 20.0881 16.8326 20.0787C16.8994 20.0584 16.9653 20.0348 17.03 20.0082L17.2321 19.9612C17.2932 19.9283 17.3543 19.9095 17.4201 19.8907M17.6927 17.9543C17.6551 18.0624 17.7068 18.0906 17.7256 18.1376C17.7981 18.215 17.8909 18.2704 17.9935 18.2974C18.0499 18.3115 18.0875 18.3256 18.1533 18.3538C18.1956 18.3538 18.2144 18.3679 18.2473 18.3773M12.4005 13.9217H12.4146C12.3723 13.9217 12.4005 13.9264 12.4663 13.8747C12.5133 13.823 12.5462 13.7995 12.5885 13.7478M13.2653 14.8758C13.2747 14.8758 14.0455 14.4904 14.1254 14.4058L14.2993 14.2695C14.3463 14.246 14.3792 14.2178 14.4215 14.1896C14.4544 14.1426 14.5014 14.1097 14.5296 14.0627C14.5766 14.0204 14.5531 13.9781 14.5954 13.9264L14.6565 13.7478M15.6341 14.3212C15.6388 14.3494 15.6247 14.434 15.6247 14.4998C15.6247 14.575 15.526 14.8053 15.4085 14.8758" stroke="black" stroke-width="0.1034"/>
<path d="M14.2577 14.3118L14.5726 14.4105C14.8076 14.4951 15.2964 14.8053 15.3481 14.8476C15.3951 14.8852 15.4891 14.9228 15.5173 14.9651C15.5737 15.0121 15.6113 15.0638 15.6536 15.1155C15.7006 15.1719 15.7476 15.2236 15.7711 15.2753C16.0277 15.6317 16.2393 16.0184 16.4009 16.4268C16.4338 16.4597 16.4479 16.5067 16.4808 16.5584C16.509 16.6242 16.5419 16.6524 16.5748 16.7041C16.6218 16.737 16.6782 16.7981 16.7346 16.8263C16.7957 16.878 16.8521 16.8968 16.8991 16.9344C16.9602 16.9626 17.6652 17.4044 17.6981 17.4279C17.7639 17.4796 17.9566 17.6817 17.8203 17.8321C17.7639 17.8791 17.7075 17.9496 17.6605 17.9731C17.6088 18.0295 17.5383 18.053 17.4772 18.0765C17.1623 18.1705 16.9978 18.1376 16.9367 18.1376H16.8709M12.6973 12.7373C12.7913 12.7749 12.7537 12.7467 12.8336 12.7843C12.89 12.8078 12.9276 12.8078 12.9746 12.8313C13.0357 12.8454 13.1955 12.8783 13.2707 12.9535C13.3271 13.0005 13.3647 13.0475 13.4305 13.0804C13.4978 13.1265 13.5704 13.1643 13.6467 13.1932C13.7219 13.2214 13.8065 13.2543 13.8817 13.2543H14.2483H14.0603" stroke="black" stroke-width="0.1034"/>
<path fill-rule="evenodd" clip-rule="evenodd" d="M12.6781 13.6303C12.8755 13.6162 13.2092 13.6773 13.2186 13.6773L13.6604 13.6679C13.8954 13.6491 13.9424 13.5598 13.98 13.494C14.0693 13.3624 14.1257 13.3154 14.1962 13.212C14.2996 13.1368 14.45 13.3201 14.4547 13.3201C14.8307 13.6773 14.5299 14.1097 14.5111 14.1238C14.3231 14.2977 14.2808 14.3071 14.168 14.199C14.0552 14.0627 14.0223 14.0016 13.9283 13.9546C13.745 13.87 13.3737 13.9358 13.3643 13.9358L13.1716 14.011C13.0776 14.0439 13.0212 14.1238 12.8661 14.152C12.7016 14.1614 12.6499 14.1473 12.57 14.0157C12.4619 13.8512 12.5136 13.6491 12.6781 13.6303Z" fill="#FFE606" stroke="black" stroke-width="0.1034"/>
<path fill-rule="evenodd" clip-rule="evenodd" d="M23.1496 5.51816C23.1214 5.51816 22.8535 5.64976 22.8582 5.65916C22.8629 5.66386 22.6326 6.29366 22.6279 6.28896C22.6232 6.27956 22.4634 5.73906 22.4446 5.74846C22.4305 5.75786 21.8665 5.82366 21.8618 5.82836L22.2848 5.28786L22.2237 4.70036L22.6843 4.87896L23.1778 4.50296C23.1872 4.49826 23.0509 5.01056 23.0509 5.01056L23.2953 5.34896C23.2953 5.34896 23.1543 5.48996 23.1496 5.51816Z" fill="#FFEF00" stroke="black" stroke-width="0.1034"/>
<path fill-rule="evenodd" clip-rule="evenodd" d="M17.6601 11.9664C17.9938 12.1873 20.043 12.6197 20.3532 12.662C20.8067 12.6272 21.2627 12.6782 21.6974 12.8124C22.0875 12.9816 22.487 12.9722 22.7549 12.7654C23.1215 12.568 23.2531 12.2296 23.4129 11.9194C23.4467 11.8457 23.4642 11.7655 23.4642 11.6844C23.4642 11.6033 23.4467 11.5231 23.4129 11.4494C23.2907 11.1486 23.3659 11.0734 23.3377 10.9042C23.7795 9.92661 23.8735 8.78921 23.9769 7.94791C23.9675 7.45441 24.0192 7.07841 24.0709 6.92801C24.2534 6.66099 24.5171 6.45992 24.8229 6.35461L26.7358 5.85641C27.234 5.67781 26.9097 5.33941 26.8063 5.36761C26.4773 5.32061 26.4867 4.96341 24.9404 5.33471L23.944 5.20781C23.944 5.20781 23.756 5.05271 23.7325 5.06681C23.192 4.96811 23.1168 5.31591 23.145 5.52741L23.2202 5.98801C23.2202 5.98801 23.0275 6.67421 23.0369 6.69301C22.5434 7.24761 21.8149 9.02421 21.7679 9.36731C21.7444 9.68691 21.6269 9.62581 21.6551 9.94071C21.6551 10.1851 21.6269 10.0347 21.7068 10.5329C21.7303 10.6833 21.5423 10.6739 21.4389 10.6269C20.5365 10.0629 19.6811 9.69161 18.7364 9.19341L18.5907 9.11821L17.1431 10.3026L17.4157 11.863C17.5003 11.91 17.5755 11.9335 17.6554 11.9664H17.6601Z" fill="white" stroke="black" stroke-width="0.1222"/>
<path fill-rule="evenodd" clip-rule="evenodd" d="M25.4952 6.12438C25.2803 5.88881 25.0719 5.64745 24.8701 5.40058L25.2273 5.33008L25.9229 6.00218L25.4952 6.12438Z" fill="#FFEC00"/>
<path d="M23.6292 9.9595C23.3904 9.98409 23.149 9.96013 22.9196 9.88905C22.6902 9.81798 22.4776 9.70125 22.2944 9.5459" stroke="black" stroke-width="0.1034"/>
<path d="M25.5184 6.14782C25.4714 6.10552 25.274 5.91282 25.227 5.84702C25.1699 5.7851 25.1103 5.72552 25.0484 5.66842C24.9873 5.59792 24.9403 5.55562 24.8792 5.48042C24.819 5.42796 24.7624 5.37143 24.71 5.31122M26.1012 6.01622C26.0871 6.01622 26.0072 5.98332 25.9602 5.95982C25.9226 5.91752 25.7628 5.80002 25.7205 5.74362C25.6681 5.68791 25.6132 5.63459 25.556 5.58382C25.4996 5.52272 25.4573 5.48982 25.4009 5.41932C25.3441 5.37638 25.2907 5.32925 25.2411 5.27832" stroke="black" stroke-width="0.1128"/>
<path d="M22.4682 7.62362L22.4729 7.63772C22.4541 7.60012 22.4635 7.62362 22.5528 7.63772C22.6092 7.62832 22.7972 7.71762 22.8583 7.83042C22.8959 7.88212 22.9523 7.96202 22.9805 8.01842C22.9899 8.03252 22.9899 8.06542 22.9993 8.07952M24.8793 6.28412L24.8699 6.27472L24.8417 6.22772L24.7571 6.04442C24.7242 5.98802 24.7101 5.91752 24.6772 5.86112C24.649 5.79532 24.6067 5.72952 24.5832 5.66372C24.5456 5.59322 24.5268 5.53212 24.4892 5.45692M24.4892 5.45692C24.4563 5.40052 24.4516 5.36292 24.414 5.30182L24.4892 5.45692ZM26.5196 5.87992C26.474 5.86977 26.4298 5.85399 26.388 5.83292C26.3504 5.80002 26.2 5.69192 26.153 5.64492C26.1036 5.5955 26.0519 5.54844 25.9979 5.50392C25.9509 5.44282 25.9086 5.40992 25.8569 5.34882C25.8035 5.3106 25.7532 5.26817 25.7065 5.22192M23.8782 5.92692C23.9957 5.90812 23.9957 5.85172 24.0239 5.80942C24.0474 5.76242 24.0662 5.64492 24.0333 5.49922L24.0051 5.33472C23.9863 5.29242 23.9863 5.26892 23.9816 5.24072M22.9617 12.5163L22.957 12.5069C22.9758 12.5445 22.9664 12.521 22.8818 12.4834L22.7173 12.4364M23.3706 11.2943C23.3659 11.2849 22.6515 10.8055 22.5387 10.7773C22.4729 10.7444 22.4118 10.7303 22.3366 10.6927L22.205 10.6269C22.1439 10.6175 22.0922 10.594 22.0405 10.594C21.9841 10.5752 21.9512 10.6128 21.8901 10.6034L21.7021 10.6363M21.7256 9.50362C21.7444 9.48482 21.829 9.45662 21.8854 9.42372C21.9512 9.39082 22.2003 9.36262 22.3178 9.42842" stroke="black" stroke-width="0.1034"/>
<path d="M22.3929 10.7116L22.3224 10.3826C22.2946 10.0887 22.2946 9.79288 22.3224 9.499C22.3318 9.4379 22.3224 9.3392 22.3459 9.2875C22.36 9.2217 22.3835 9.1606 22.407 9.0995C22.4352 9.029 22.4587 8.9679 22.4869 8.9162C22.5198 8.7282 23.0509 7.9715 23.0885 7.9339C23.1181 7.89039 23.1495 7.84806 23.1825 7.807C23.1966 7.76 23.2295 7.7224 23.2577 7.666C23.3047 7.6143 23.3141 7.572 23.3423 7.5156C23.347 7.4639 23.3705 7.3793 23.3705 7.3182C23.3846 7.2383 23.3705 7.1772 23.3846 7.1255C23.3752 7.055 23.4175 6.2231 23.4222 6.1855C23.4363 6.1009 23.5162 5.833 23.7136 5.88C23.7841 5.9035 23.8687 5.9176 23.9204 5.9505C23.9862 5.9693 24.0426 6.021 24.0943 6.0586C24.3293 6.2889 24.381 6.444 24.4139 6.5004L24.4468 6.5568M21.7772 12.8172L21.7725 12.8078C21.7913 12.8407 21.7819 12.8219 21.7584 12.7561C21.7537 12.695 21.7349 12.6151 21.7255 12.5587C21.7114 12.4976 21.6832 12.4318 21.6926 12.3942C21.6691 12.3331 21.6832 12.2861 21.6926 12.225C21.7067 12.1498 21.7161 12.0981 21.7161 12.0276C21.7255 11.9336 21.7161 11.8772 21.7208 11.7926C21.6973 11.7221 21.6926 11.6657 21.6597 11.5952L21.5657 11.4072L21.4717 11.2427L21.5657 11.4025" stroke="black" stroke-width="0.1034"/>
<path fill-rule="evenodd" clip-rule="evenodd" d="M22.5715 12.4224C22.4634 12.2532 22.3506 11.9336 22.3459 11.9289L22.125 11.5435C21.9934 11.3555 21.89 11.3555 21.8148 11.3555C21.655 11.3414 21.5845 11.3085 21.467 11.3038C21.3448 11.2474 21.4341 11.0265 21.4294 11.0218C21.5563 10.5236 22.0874 10.5706 22.1062 10.58C22.3459 10.6599 22.3741 10.6928 22.3365 10.8432C22.2754 11.0077 22.2425 11.0688 22.2425 11.1722C22.2566 11.3696 22.501 11.6657 22.501 11.6704L22.6608 11.802C22.736 11.8678 22.8347 11.8772 22.9334 12.0041C23.0227 12.1404 23.0368 12.1921 22.9616 12.3237C22.8676 12.5023 22.6702 12.554 22.5715 12.4224Z" fill="#FFE606" stroke="black" stroke-width="0.1034"/>
<path fill-rule="evenodd" clip-rule="evenodd" d="M10.1495 7.77405C10.173 7.79285 10.4221 7.94795 10.4315 7.93855C10.4409 7.92915 11.0895 7.77875 11.0801 7.78815C11.0707 7.79755 10.7135 8.22525 10.7323 8.23465C10.7511 8.24405 11.1083 8.67645 11.1177 8.68115L10.4362 8.62475L9.97558 8.99135L9.87218 8.51195L9.29408 8.30515C9.28468 8.30045 9.78758 8.13595 9.78758 8.13595L9.93798 7.74585C9.93798 7.74585 10.1307 7.77875 10.1589 7.77405H10.1495Z" fill="#FFEF00" stroke="black" stroke-width="0.1034"/>
<path fill-rule="evenodd" clip-rule="evenodd" d="M18.5529 8.83634C18.5529 8.42744 17.7915 6.47694 17.6599 6.19964C17.3822 5.8389 17.175 5.42913 17.0489 4.99174C16.9784 4.56874 16.7528 4.23974 16.4379 4.12694C16.0666 3.93424 15.7094 4.00944 15.3663 4.04234C15.1971 4.07524 15.0514 4.16924 14.9715 4.30084C14.7835 4.56874 14.6848 4.54524 14.5532 4.66274C13.4957 4.82724 12.4946 5.37244 11.7332 5.74374C11.4586 5.95134 11.1523 6.11323 10.8261 6.22314C10.5028 6.21841 10.1896 6.10963 9.93306 5.91294L8.47136 4.58284C8.04836 4.26794 7.94496 4.72384 8.02486 4.79434C8.16586 5.09514 7.86036 5.27844 9.02126 6.37354L9.45836 7.27594C9.45836 7.27594 9.43486 7.52034 9.45836 7.52974C9.66516 8.03734 10.0036 7.91044 10.1634 7.76944L10.5065 7.45454C10.5065 7.45454 11.188 7.23834 11.1974 7.21954C11.9306 7.32764 13.82 6.97044 14.1302 6.82004C14.4122 6.66494 14.4263 6.79654 14.6707 6.59914C14.8728 6.46284 14.7647 6.57094 15.1407 6.22784C15.2535 6.13384 15.3428 6.28894 15.3663 6.40174C15.3851 7.46864 15.5449 8.38514 15.6436 9.44734L15.6624 9.61184L17.4484 10.1758L18.6046 9.09484L18.5576 8.83164L18.5529 8.83634Z" fill="white" stroke="black" stroke-width="0.1222"/>
<path fill-rule="evenodd" clip-rule="evenodd" d="M9.37442 5.47573C9.38852 5.48983 9.11122 6.39693 9.11122 6.39693L8.85742 6.13843L9.03602 5.18433L9.37442 5.47573Z" fill="#FFEC00"/>
<path d="M13.6089 4.93994C13.9473 5.31594 14.0554 5.93634 13.9943 6.28414" stroke="black" stroke-width="0.1034"/>
<path d="M9.38798 5.4429C9.37388 5.504 9.31748 5.7813 9.29398 5.8518C9.2718 5.93403 9.25299 6.01713 9.23758 6.1009L9.17178 6.3453C9.16238 6.4252 9.14828 6.5004 9.12478 6.5803M8.95088 5.0293C8.95558 5.0434 8.97438 5.1233 8.97908 5.175C8.96968 5.2314 8.95558 5.4288 8.93208 5.4993C8.91461 5.57383 8.90049 5.6491 8.88978 5.7249L8.84278 5.9411C8.83577 6.01402 8.8232 6.08629 8.80518 6.1573" stroke="black" stroke-width="0.1128"/>
<path d="M12.2879 7.19135L12.2926 7.17725C12.2738 7.21485 12.2926 7.19135 12.255 7.11145C12.2127 7.06445 12.1892 6.86235 12.2456 6.74485C12.274 6.67617 12.3054 6.60874 12.3396 6.54275C12.3443 6.52865 12.3678 6.50985 12.3772 6.49575M9.84859 5.90825L9.84389 5.91765L9.81569 5.96465C9.78749 6.03045 9.74049 6.08685 9.71229 6.13855C9.68409 6.19965 9.63239 6.24665 9.60419 6.30775L9.49139 6.49575C9.44909 6.56155 9.40679 6.61325 9.36919 6.68375L9.27519 6.83415M8.60779 4.75205C8.61719 4.76145 8.64069 4.84135 8.64539 4.89305C8.63599 4.94005 8.62659 5.12805 8.60779 5.18915L8.57489 5.39595C8.55609 5.47115 8.55139 5.52285 8.52789 5.59805C8.52539 5.66438 8.51754 5.73039 8.50439 5.79545M10.093 6.94225C10.0131 6.85295 9.96609 6.88585 9.91439 6.88115C9.81131 6.90949 9.7184 6.96654 9.64649 7.04565C9.60889 7.08795 9.57599 7.12085 9.52429 7.16315C9.50079 7.20075 9.48199 7.21015 9.45849 7.23365M16.109 4.09405L16.1043 4.10815C16.1231 4.07055 16.109 4.08935 16.1278 4.17865C16.1513 4.23975 16.1513 4.28205 16.1748 4.33845M14.8635 4.42305C14.8635 4.43245 14.8494 5.29255 14.887 5.40535C14.8964 5.47585 14.9152 5.53225 14.9246 5.62155C14.9246 5.66855 14.9387 5.71555 14.9434 5.76255C14.9716 5.81895 14.9763 5.87535 15.0092 5.91765C15.0233 5.97875 15.0703 5.98345 15.0985 6.03515C15.1314 6.07745 15.1925 6.14795 15.2301 6.17615M14.2666 6.78245C14.2384 6.77305 14.1726 6.71665 14.1162 6.68845C14.0504 6.65085 13.8859 6.45815 13.8812 6.32185" stroke="black" stroke-width="0.1034"/>
<path d="M14.9107 5.5603L14.6757 5.7953C14.445 5.98108 14.1962 6.14326 13.9331 6.2794C13.8767 6.3076 13.8062 6.3734 13.7451 6.3781C13.684 6.4063 13.6182 6.4157 13.5571 6.4298C13.1123 6.51042 12.659 6.53411 12.2082 6.5003C12.1548 6.49927 12.1015 6.49614 12.0484 6.4909C12.0014 6.5003 11.9544 6.4956 11.8933 6.5003C11.8181 6.4956 11.7805 6.5097 11.7194 6.5144C11.6724 6.5426 11.5925 6.5661 11.5361 6.6037C11.4656 6.6319 11.4186 6.6742 11.3669 6.6977C11.3199 6.74 10.5961 7.1583 10.5585 7.1771C10.4833 7.21 10.2154 7.2946 10.1449 7.1019C10.1261 7.0267 10.0979 6.9468 10.0932 6.8904C10.0697 6.8246 10.0838 6.7494 10.0838 6.6836C10.1496 6.3593 10.253 6.2324 10.2812 6.176L10.3141 6.1196M17.0022 4.9211L16.9975 4.9352C17.0116 4.9023 17.0069 4.9164 16.9599 4.9728C16.9129 5.0104 16.8565 5.0668 16.8142 5.1138C16.7672 5.1514 16.7296 5.2078 16.692 5.2266C16.6544 5.2736 16.6074 5.2924 16.551 5.3206C16.4884 5.34395 16.4286 5.37388 16.3724 5.4099C16.2925 5.4475 16.2455 5.4898 16.175 5.5321C16.128 5.5885 16.081 5.6261 16.0434 5.6919C16.0058 5.753 15.9682 5.8047 15.9353 5.8752L15.8507 6.0397M16.4006 9.4754L16.4147 9.4519C16.3912 9.4989 16.3959 9.4848 16.4194 9.4096C16.4194 9.325 16.4429 9.2169 16.4429 9.137C16.457 9.0524 16.4711 8.9631 16.4711 8.8785C16.4664 8.7845 16.4664 8.6905 16.4523 8.5965C16.4523 8.5119 16.4382 8.4226 16.4382 8.3333C16.4382 8.2487 16.4288 8.1782 16.41 8.0983C16.4099 8.02272 16.4036 7.94727 16.3912 7.8727C16.3959 7.8163 16.3818 7.7599 16.3677 7.7129L16.3113 7.4732L16.2643 7.2805C16.2549 7.2053 16.2173 7.1113 16.1985 7.0502C16.1743 6.99944 16.1569 6.94571 16.1468 6.8904C16.1233 6.8387 16.0904 6.7776 16.0857 6.7212L16.0105 6.5473L15.9447 6.3781C15.9212 6.3123 15.893 6.2559 15.8742 6.1901C15.8507 6.1666 15.846 6.1431 15.8366 6.1243" stroke="black" stroke-width="0.1034"/>
<path fill-rule="evenodd" clip-rule="evenodd" d="M16.2458 4.47459C16.1637 4.6357 16.0661 4.78839 15.9544 4.93049L15.757 5.32529C15.6724 5.54149 15.7241 5.63079 15.7617 5.69189C15.8416 5.83289 15.8557 5.90809 15.9121 6.01149C15.9356 6.14309 15.7006 6.19009 15.7006 6.1948C15.2118 6.364 14.9627 5.89399 14.9627 5.87049C14.8969 5.62609 14.9063 5.58849 15.0567 5.53679C15.2259 5.49449 15.2917 5.48979 15.3763 5.43339C15.5408 5.31119 15.6536 4.94929 15.6583 4.94459L15.6771 4.73779C15.6912 4.64379 15.6489 4.54979 15.6959 4.39939C15.7617 4.24899 15.7993 4.21139 15.9497 4.19729C16.1471 4.18319 16.3022 4.31949 16.2458 4.47459Z" fill="#FFE606" stroke="black" stroke-width="0.1034"/>
<path fill-rule="evenodd" clip-rule="evenodd" d="M15.6062 9.23117C15.531 9.16067 16.988 9.75757 17.1901 9.76227C17.4627 9.66357 18.5954 8.70947 18.5954 8.70947C18.6048 8.80347 18.6471 9.04317 18.7552 9.09487C18.3181 9.44737 17.9233 9.79047 17.4862 10.143C17.5144 10.707 17.4157 11.3039 17.6977 11.929C17.6977 11.929 17.3593 11.9384 17.3593 11.929C17.0585 11.6282 16.9504 10.1806 16.9504 10.1806L15.5122 9.54137C15.5827 9.49437 15.6344 9.35807 15.6062 9.22647V9.23117Z" fill="#FFEF00" stroke="black" stroke-width="0.1034"/>
<path d="M16.9926 10.7163C17.0161 10.6975 16.7294 10.8479 16.6542 10.8855C15.3335 11.5905 14.652 12.6245 14.6097 12.6621L14.5063 12.8219L14.3982 12.9629C14.3454 13.0392 14.289 13.113 14.229 13.1838C14.2196 13.212 14.2478 13.1697 14.2384 13.1932M17.8997 9.875C17.9977 9.95376 18.0997 10.0275 18.2052 10.0959C19.4366 10.9513 20.6633 11.0876 20.7197 11.1064C20.7667 11.1064 20.8372 11.1205 20.9077 11.1299C20.9641 11.1299 21.0299 11.1487 21.0863 11.1534C21.1521 11.1628 21.2931 11.191 21.3589 11.2098C21.3871 11.2004 21.3354 11.1957 21.3589 11.191" stroke="black" stroke-width="0.1034"/>
</svg>
