<svg width="36" height="24" viewBox="0 0 36 24" fill="none" xmlns="http://www.w3.org/2000/svg">
<g clip-path="url(#clip0_11930_68031)">
<path d="M0 0H36V8H0V0Z" fill="#FF9933"/>
<path d="M0 8H36V16H0V8Z" fill="white"/>
<path d="M0 16H36V24H0V16Z" fill="#128807"/>
<path fill-rule="evenodd" clip-rule="evenodd" d="M18.0022 15.1999C19.7696 15.1999 21.2022 13.7672 21.2022 11.9999C21.2022 10.2326 19.7696 8.79993 18.0022 8.79993C16.2349 8.79993 14.8022 10.2326 14.8022 11.9999C14.8022 13.7672 16.2349 15.1999 18.0022 15.1999ZM20.8021 11.9996L19.1277 11.9039L18.5612 11.9718C18.5598 11.9421 18.5559 11.9129 18.55 11.8845L19.1195 11.8029L20.7082 11.2783C20.7271 11.3493 20.7433 11.4213 20.7566 11.4943C20.6824 11.5087 20.6314 11.5785 20.6414 11.6544C20.6514 11.7301 20.7184 11.7843 20.7936 11.7793C20.7992 11.852 20.8021 11.9254 20.8021 11.9996ZM20.8021 11.9996L19.1277 12.0959L18.5613 12.0279C18.5598 12.058 18.5559 12.0876 18.5499 12.1163L19.1135 12.1971L20.7078 12.7234C20.7266 12.6529 20.7427 12.5814 20.756 12.5088C20.679 12.4968 20.6253 12.4255 20.6355 12.3478C20.6458 12.2702 20.716 12.2152 20.7934 12.2234C20.7992 12.1497 20.8021 12.0747 20.8021 11.9996ZM20.7078 12.7234L19.0638 12.3825L18.5355 12.1707C18.5261 12.2001 18.5143 12.2284 18.5004 12.2555L19.0179 12.4768L20.4248 13.3999L18.9219 12.6431L18.4714 12.3056C18.4554 12.3301 18.4376 12.3532 18.4181 12.3749L18.8621 12.7238L19.9822 13.9796L18.7264 12.8596L18.3775 12.4155C18.3559 12.435 18.3328 12.4529 18.3084 12.4689L18.6479 12.9219L19.4044 14.4242C19.4675 14.3876 19.529 14.3486 19.5889 14.3074C19.5426 14.2444 19.5549 14.1557 19.6172 14.1078C19.6796 14.06 19.7685 14.071 19.8173 14.1321C19.931 14.0352 20.0369 13.9293 20.1338 13.8156C20.075 13.7664 20.0649 13.679 20.1121 13.6176C20.1593 13.5561 20.2463 13.5432 20.3091 13.5874C20.3929 13.4657 20.4674 13.3371 20.5315 13.2025C20.4628 13.1698 20.4311 13.0886 20.4606 13.0175C20.49 12.9464 20.5699 12.9114 20.6416 12.9368C20.6664 12.8671 20.6886 12.7956 20.7078 12.7234ZM19.4044 14.4242L18.4816 13.0179L18.2591 12.4977C18.2337 12.5108 18.2073 12.5221 18.1799 12.5312L18.3906 13.057L18.7325 14.7039C18.8017 14.6852 18.8698 14.664 18.9367 14.6403C18.9077 14.5673 18.9426 14.4844 19.0154 14.4542C19.0883 14.424 19.1718 14.4581 19.2028 14.5303C19.2716 14.4976 19.3389 14.4622 19.4044 14.4242ZM18.7325 14.7039L18.2051 13.1066L18.1249 12.5466C18.0944 12.5534 18.0631 12.5577 18.031 12.5594L18.0983 13.12L18.0023 14.8L17.9063 13.12L17.9736 12.5594C17.9451 12.558 17.9172 12.5544 17.89 12.5489L17.81 13.1068L17.2824 14.7047L17.6245 13.0571L17.834 12.5345C17.8049 12.5254 17.7768 12.5139 17.7499 12.5003L17.5285 13.018L16.6054 14.4249L17.3623 12.922L17.6997 12.4716C17.6737 12.4549 17.6491 12.4361 17.6263 12.4154L17.2772 12.8598L16.0218 13.9795C16.0754 14.0332 16.1313 14.0847 16.1892 14.1339C16.189 14.1342 16.1894 14.1337 16.1892 14.1339C16.2376 14.0709 16.3286 14.0582 16.3917 14.1066C16.4548 14.155 16.4667 14.2454 16.4182 14.3085C16.4181 14.3087 16.4184 14.3083 16.4182 14.3085C16.5383 14.3911 16.6648 14.4651 16.7974 14.5284C16.8289 14.4571 16.9118 14.4236 16.9842 14.4536C17.0567 14.4836 17.0916 14.566 17.0633 14.6388C17.2017 14.688 17.3451 14.7267 17.4926 14.7538C17.5046 14.6768 17.5759 14.623 17.6537 14.6332C17.7313 14.6435 17.7863 14.7138 17.7781 14.7912C17.852 14.7971 17.9269 14.8 18.0023 14.8C18.0747 14.8 18.1463 14.7973 18.2173 14.7919C18.2086 14.7142 18.2638 14.6435 18.3417 14.6332C18.4199 14.6229 18.4917 14.6775 18.503 14.7554C18.5806 14.7414 18.6573 14.7241 18.7325 14.7039ZM16.0218 13.9795L17.1414 12.7241L17.5858 12.3749C17.5658 12.3527 17.5475 12.3288 17.5313 12.3036L17.0785 12.6429L15.5763 13.3994C15.614 13.4645 15.6542 13.5279 15.6968 13.5896C15.6967 13.5896 15.6968 13.5896 15.6968 13.5896C15.7599 13.5412 15.8503 13.5531 15.8987 13.6161C15.9471 13.6792 15.9353 13.7694 15.8724 13.8179C15.92 13.8737 15.9699 13.9276 16.0218 13.9795ZM15.5763 13.3994L16.9825 12.4766L17.5027 12.2541C17.4891 12.2273 17.4775 12.1993 17.4683 12.1703L16.9391 12.3824L15.2965 12.7235C15.3158 12.796 15.338 12.8673 15.3629 12.9374C15.4362 12.9074 15.5201 12.9423 15.5504 13.0156C15.5807 13.0888 15.5462 13.1727 15.4732 13.2034C15.505 13.2702 15.5395 13.3356 15.5763 13.3994ZM15.2965 12.7235L16.8894 12.197L17.454 12.116C17.448 12.0876 17.4441 12.0584 17.4427 12.0286L16.8812 12.096L15.2021 12C15.2021 12 15.2021 12 15.2021 12C15.2021 12.0748 15.2051 12.1489 15.2108 12.2221C15.2118 12.222 15.2128 12.2218 15.2137 12.2217C15.2926 12.2113 15.3649 12.2668 15.3753 12.3457C15.3857 12.4245 15.3302 12.4969 15.2513 12.5072C15.2502 12.5074 15.2491 12.5075 15.248 12.5076C15.2614 12.5804 15.2777 12.6528 15.2965 12.7235ZM15.2021 12L16.8812 11.904L17.4427 11.9714C17.4442 11.9412 17.4481 11.9116 17.4542 11.8829L16.8954 11.8028L15.2975 11.2752L16.9451 11.6173L17.4691 11.8274C17.4786 11.798 17.4905 11.7697 17.5045 11.7427L16.991 11.523L15.5841 10.5999L17.087 11.3568L17.5343 11.6919C17.5504 11.6676 17.5683 11.6445 17.5879 11.6231L17.1463 11.2761L16.0262 10.0202L17.282 11.1403L17.6292 11.5822C17.6511 11.5627 17.6745 11.5448 17.6992 11.5289L17.3615 11.0782L16.6046 9.57523L17.5278 10.9822L17.7493 11.5002C17.7768 11.4863 17.8056 11.4746 17.8354 11.4653L17.6261 10.9431L17.284 9.29553L17.8115 10.8934L17.8915 11.451C17.9197 11.4453 17.9487 11.4418 17.9784 11.4406L17.9111 10.8799L18.0071 9.20008C18.0054 9.20007 18.0038 9.20007 18.0021 9.20007C17.9313 9.20007 17.8611 9.2027 17.7915 9.20787C17.8003 9.28562 17.7451 9.35637 17.6672 9.36662C17.5888 9.37695 17.5168 9.3221 17.5058 9.24393C17.3566 9.27063 17.2114 9.30916 17.0713 9.35852C17.101 9.43176 17.0661 9.51535 16.9929 9.54565C16.9196 9.57602 16.8356 9.54134 16.805 9.46818C16.67 9.53211 16.541 9.60652 16.4189 9.69035C16.4671 9.75344 16.4551 9.84365 16.3921 9.892C16.329 9.94041 16.2386 9.92851 16.1902 9.86542C16.1902 9.86539 16.1902 9.86544 16.1902 9.86542C16.0762 9.96226 15.9701 10.068 15.8729 10.1817C15.9345 10.2304 15.9457 10.3197 15.8978 10.3823C15.8497 10.4449 15.7602 10.4571 15.6972 10.4099C15.6131 10.5316 15.5383 10.6604 15.474 10.7951C15.546 10.8263 15.5799 10.9096 15.5498 10.9824C15.5196 11.0552 15.4365 11.0901 15.3635 11.061C15.3142 11.1995 15.2756 11.3429 15.2484 11.4903C15.2489 11.4904 15.2494 11.4905 15.2498 11.4905C15.3287 11.5009 15.3842 11.5732 15.3738 11.6521C15.3634 11.7309 15.2911 11.7864 15.2123 11.776C15.2118 11.776 15.2114 11.7759 15.211 11.7759C15.2051 11.8498 15.2022 11.9246 15.2021 12ZM18.0071 9.20008L18.1031 10.8799L18.0357 11.4411C18.0645 11.4428 18.0927 11.4467 18.1201 11.4526L18.2004 10.8931L18.7279 9.29516L18.3858 10.9428L18.1755 11.4675C18.2042 11.4769 18.2319 11.4885 18.2583 11.5021L18.4808 10.9819L19.4036 9.5755C19.3408 9.5391 19.2764 9.50507 19.2105 9.47353C19.1784 9.54342 19.0964 9.57594 19.0247 9.54624C18.9528 9.51645 18.9178 9.4351 18.9449 9.36275C18.8067 9.31333 18.6634 9.27447 18.5161 9.24714C18.5036 9.32359 18.4326 9.3768 18.3552 9.36662C18.2778 9.35642 18.2229 9.28647 18.2307 9.20927C18.157 9.20331 18.0823 9.20021 18.0071 9.20008ZM19.4036 9.5755L18.6471 11.0779L18.3077 11.5309C18.3336 11.5478 18.3579 11.5667 18.3806 11.5875L18.7322 11.14L19.9848 10.0229C19.9312 9.96919 19.8755 9.91766 19.8177 9.86843C19.769 9.92998 19.6797 9.94121 19.6172 9.89325C19.5547 9.84527 19.5424 9.75607 19.5893 9.69306C19.5291 9.65155 19.4671 9.6123 19.4036 9.5755ZM19.9848 10.0229L18.868 11.2758L18.4201 11.6277C18.4399 11.6499 18.458 11.6737 18.4741 11.6989L18.9304 11.357L20.4289 10.6023C20.3914 10.5374 20.3514 10.4741 20.309 10.4126C20.246 10.4583 20.1578 10.4458 20.1102 10.3837C20.0626 10.3217 20.0733 10.2332 20.1336 10.1843C20.0862 10.1287 20.0363 10.0746 19.9848 10.0229ZM20.4289 10.6023L19.0264 11.5233L18.5019 11.7476C18.5154 11.7743 18.5269 11.8023 18.5361 11.8313L19.0698 11.6174L20.708 11.2773C20.6887 11.2052 20.6667 11.1342 20.642 11.0645C20.5698 11.0913 20.4887 11.0563 20.459 10.9845C20.4292 10.9127 20.4619 10.8306 20.532 10.7985C20.5002 10.7318 20.4656 10.666 20.4289 10.6023Z" fill="#000088"/>
</g>
<defs>
<clipPath id="clip0_11930_68031">
<rect width="36" height="24" rx="2" fill="white"/>
</clipPath>
</defs>
</svg>
