<svg width="36" height="24" viewBox="0 0 36 24" fill="none" xmlns="http://www.w3.org/2000/svg">
<g clip-path="url(#clip0_11930_68028)">
<path d="M0 0H36V24H0V0Z" fill="white"/>
<path fill-rule="evenodd" clip-rule="evenodd" d="M36 20.81C35.595 21.145 35.2519 21.91 34.1775 21.91C32.0344 21.91 31.5 20.285 29.8913 20.285C28.8225 20.285 28.2881 21.91 27.2137 21.91C25.0706 21.91 24.5362 20.285 22.9275 20.285C21.8587 20.285 21.3244 21.91 20.2556 21.91C18.1069 21.91 17.5725 20.285 15.9637 20.285C14.895 20.285 14.355 21.91 13.2862 21.91C11.1431 21.91 10.6087 20.285 9 20.285C7.93125 20.285 7.39125 21.91 6.3225 21.91C4.17375 21.91 3.63937 20.285 2.03625 20.285C0.9675 20.285 0.64125 21.445 0 21.445V23.53C0.64125 23.53 0.961875 22.38 2.04187 22.38C3.645 22.38 4.17938 24 6.31687 24C7.39125 24 7.92562 22.375 9 22.375C10.6087 22.375 11.1431 24 13.2919 24C14.3606 24 14.8894 22.375 15.9637 22.375C17.5725 22.375 18.1069 24 20.25 24C21.3188 24 21.8587 22.375 22.9275 22.375C24.5362 22.375 25.0706 24 27.2137 24C28.2825 24 28.8225 22.375 29.8913 22.375C31.5 22.375 32.04 24 34.1775 24C35.2462 24 35.595 23.54 36 23.21V20.81ZM36 16.75C35.595 17.085 35.2519 17.85 34.1775 17.85C32.0344 17.85 31.5 16.225 29.8913 16.225C28.8225 16.225 28.2881 17.85 27.2137 17.85C25.0706 17.85 24.5362 16.225 22.9275 16.225C21.8587 16.225 21.3244 17.85 20.2556 17.85C18.1069 17.85 17.5725 16.225 15.9637 16.225C14.895 16.225 14.355 17.85 13.2862 17.85C11.1431 17.85 10.6087 16.225 9 16.225C7.93125 16.225 7.39125 17.85 6.3225 17.85C4.17375 17.85 3.63937 16.225 2.03625 16.225C0.9675 16.225 0.64125 17.385 0 17.385V19.475C0.64125 19.475 0.961875 18.32 2.04187 18.32C3.645 18.32 4.17938 19.945 6.31687 19.945C7.39125 19.945 7.92562 18.32 9 18.32C10.6087 18.32 11.1431 19.945 13.2919 19.945C14.3606 19.945 14.8894 18.32 15.9637 18.32C17.5725 18.32 18.1069 19.945 20.2556 19.945C21.3244 19.945 21.8587 18.32 22.9275 18.32C24.5362 18.32 25.0706 19.945 27.2137 19.945C28.2825 19.945 28.8225 18.32 29.8913 18.32C31.5 18.32 32.04 19.945 34.1775 19.945C35.2462 19.945 35.595 19.485 36 19.155V16.75ZM36 12.695C35.595 13.03 35.2519 13.795 34.1775 13.795C32.0344 13.795 31.5 12.17 29.8913 12.17C28.8225 12.17 28.2881 13.795 27.2137 13.795C25.0706 13.795 24.5362 12.17 22.9275 12.17C21.8587 12.17 21.3244 13.795 20.2556 13.795C18.1069 13.795 17.5725 12.17 15.9637 12.17C14.895 12.17 14.355 13.795 13.2862 13.795C11.1431 13.795 10.6087 12.17 9 12.17C7.93125 12.17 7.39125 13.795 6.3225 13.795C4.17375 13.795 3.63937 12.17 2.03625 12.17C0.9675 12.17 0.64125 13.33 0 13.33V15.42C0.64125 15.42 0.961875 14.26 2.04187 14.26C3.645 14.26 4.17938 15.885 6.31687 15.885C7.39125 15.885 7.92562 14.26 9 14.26C10.6087 14.26 11.1431 15.885 13.2919 15.885C14.3606 15.885 14.8894 14.26 15.9637 14.26C17.5725 14.26 18.1069 15.885 20.2556 15.885C21.3244 15.885 21.8587 14.26 22.9275 14.26C24.5362 14.26 25.0706 15.885 27.2137 15.885C28.2825 15.885 28.8225 14.26 29.8913 14.26C31.5 14.26 32.04 15.885 34.1775 15.885C35.2462 15.885 35.595 15.425 36 15.095V12.695ZM36 8.64C35.595 8.97 35.2519 9.74 34.1775 9.74C32.0344 9.74 31.5 8.115 29.8913 8.115C28.8225 8.115 28.2881 9.74 27.2137 9.74C25.0706 9.74 24.5362 8.115 22.9275 8.115C21.8587 8.115 21.3244 9.74 20.2556 9.74C18.1069 9.74 17.5725 8.115 15.9637 8.115C14.895 8.115 14.355 9.74 13.2862 9.74C11.1431 9.74 10.6087 8.115 9 8.115C7.93125 8.115 7.39125 9.74 6.3225 9.74C4.17375 9.74 3.63937 8.115 2.03625 8.115C0.9675 8.115 0.64125 9.275 0 9.275V11.36C0.64125 11.36 0.961875 10.21 2.04187 10.21C3.645 10.21 4.17938 11.83 6.31687 11.83C7.39125 11.83 7.92562 10.205 9 10.205C10.6087 10.205 11.1431 11.83 13.2919 11.83C14.3606 11.83 14.8894 10.205 15.9637 10.205C17.5725 10.205 18.1069 11.83 20.2556 11.83C21.3244 11.83 21.8587 10.205 22.9275 10.205C24.5362 10.205 25.0706 11.83 27.2137 11.83C28.2825 11.83 28.8225 10.205 29.8913 10.205C31.5 10.205 32.04 11.83 34.1775 11.83C35.2462 11.83 35.595 11.365 36 11.035V8.64ZM36 4.575C35.595 4.91 35.2519 5.68 34.1775 5.68C32.0344 5.68 31.5 4.055 29.8913 4.055C28.8225 4.055 28.2881 5.68 27.2137 5.68C25.0706 5.68 24.5362 4.055 22.9275 4.055C21.8587 4.055 21.3244 5.68 20.2556 5.68C18.1069 5.68 17.5725 4.055 15.9637 4.055C14.895 4.055 14.355 5.68 13.2862 5.68C11.1431 5.68 10.6087 4.055 9 4.055C7.93125 4.055 7.39125 5.68 6.3225 5.68C4.17375 5.68 3.63937 4.055 2.03625 4.055C0.9675 4.06 0.64125 5.22 0 5.22V7.31C0.64125 7.31 0.961875 6.155 2.03625 6.155C3.63937 6.155 4.17938 7.78 6.3225 7.78C7.39125 7.78 7.92562 6.155 9 6.155C10.6087 6.155 11.1431 7.78 13.2919 7.78C14.3606 7.78 14.8894 6.155 15.9581 6.155C17.5725 6.155 18.1069 7.78 20.25 7.78C21.3188 7.78 21.8587 6.155 22.9275 6.155C24.5362 6.155 25.0706 7.78 27.2137 7.78C28.2825 7.78 28.8225 6.155 29.8913 6.155C31.5 6.155 32.04 7.78 34.1775 7.78C35.2462 7.78 35.595 7.315 36 6.985V4.585V4.575ZM36 0.525C35.595 0.855 35.2519 1.625 34.1775 1.625C32.0344 1.625 31.5 0 29.8913 0C28.8225 0 28.2881 1.625 27.2137 1.625C25.0706 1.625 24.5362 0 22.9275 0C21.8587 0 21.3244 1.625 20.2556 1.625C18.1069 1.625 17.5725 0 15.9637 0C14.895 0 14.355 1.625 13.2862 1.625C11.1375 1.625 10.6087 0 9 0C7.93125 0 7.39125 1.625 6.3225 1.625C4.17375 1.625 3.63937 0 2.03625 0C0.9675 0 0.64125 1.16 0 1.16V3.255C0.64125 3.25 0.961875 2.1 2.03625 2.1C3.63937 2.1 4.17938 3.72 6.3225 3.72C7.39125 3.72 7.92562 2.1 9 2.1C10.6087 2.1 11.1431 3.72 13.2919 3.72C14.3606 3.72 14.8894 2.1 15.9581 2.1C17.5725 2.1 18.1069 3.72 20.25 3.72C21.3188 3.72 21.8587 2.1 22.9275 2.1C24.5362 2.1 25.0706 3.72 27.2137 3.72C28.2825 3.72 28.8225 2.1 29.8913 2.1C31.5 2.1 32.04 3.72 34.1775 3.72C35.2462 3.72 35.595 3.26 36 2.93V0.525Z" fill="#000063"/>
<path fill-rule="evenodd" clip-rule="evenodd" d="M26.7399 6.58496L26.5649 23.035C26.5649 23.9 27.3499 23.9 27.4349 23.035L27.2599 6.58496H26.7399Z" fill="#A24300" stroke="white" stroke-width="0.105"/>
<path fill-rule="evenodd" clip-rule="evenodd" d="M28.5354 12.7L27.9854 12.105L27.8554 12.71L27.6204 11.835L27.3954 12.275L27.3554 11.345L27.1354 11.785L27.0954 10.855L26.8754 11.295L26.7504 10.2L26.5304 10.64L26.4004 9.55L26.1754 9.99L26.0504 8.895L25.9854 8.345L26.0954 8.13L26.3854 8.235L26.8404 8.67L27.7554 9.54L27.1904 9.325L28.1054 10.195L27.5354 9.98L28.4504 10.845L27.8804 10.635L28.7104 11.335L28.1454 11.125L28.9704 11.825L28.4054 11.615L29.0354 12.375L28.3804 11.995L28.5304 12.71L28.5354 12.7Z" fill="#006D00" stroke="white" stroke-width="0.09"/>
<path d="M28.5351 12.7L26.1001 8.13M27.7551 9.54L26.4501 8.78L26.1801 9.985" stroke="black" stroke-width="0.015"/>
<path d="M28.1103 10.1899L26.7953 9.43494L26.5303 10.6399" stroke="black" stroke-width="0.015"/>
<path d="M28.455 10.84L27.145 10.09L26.875 11.29" stroke="black" stroke-width="0.015"/>
<path d="M28.7149 11.335L27.4899 10.74L27.1399 11.79" stroke="black" stroke-width="0.015"/>
<path d="M28.9751 11.825L27.7501 11.23L27.4001 12.28" stroke="black" stroke-width="0.015"/>
<path d="M29.0402 12.3699L27.9252 11.5599L27.8552 12.7099" stroke="black" stroke-width="0.015"/>
<path fill-rule="evenodd" clip-rule="evenodd" d="M22.1499 4.89494L23.0399 5.23494L22.7799 4.55994L23.5599 5.32494L23.4849 4.77494L24.1149 5.69494L24.0399 5.14494L24.6699 6.06494L24.5949 5.51494L25.4099 6.55494L25.3349 6.00494L26.1499 7.04494L26.0799 6.49494L26.8899 7.53494L27.2999 8.05494L27.3349 8.32994L26.9999 8.35994L26.2999 8.14494L24.8899 7.70994L25.5549 7.65494L24.1499 7.21994L24.8149 7.16494L23.4099 6.72994L24.0749 6.66994L22.8549 6.35994L23.5199 6.30494L22.2999 5.99494L22.9649 5.93494L21.8899 5.46994L22.7449 5.53494L22.1549 4.89994L22.1499 4.89494Z" fill="#006D00" stroke="white" stroke-width="0.1"/>
<path d="M22.1501 4.8949L27.3351 8.3299M24.8901 7.7099L26.5951 7.8399L26.0801 6.4949" stroke="black" stroke-width="0.015"/>
<path d="M24.1501 7.22L25.8501 7.35L25.3351 6" stroke="black" stroke-width="0.015"/>
<path d="M23.4102 6.73001L25.1102 6.86001L24.5952 5.51001" stroke="black" stroke-width="0.015"/>
<path d="M22.8501 6.3599L24.3751 6.3649L24.0401 5.1449" stroke="black" stroke-width="0.015"/>
<path d="M22.3 5.9899L23.82 5.9999L23.485 4.7749" stroke="black" stroke-width="0.015"/>
<path d="M21.8899 5.46994L23.4449 5.75494L22.7849 4.55994" stroke="black" stroke-width="0.015"/>
<path fill-rule="evenodd" clip-rule="evenodd" d="M32.4899 6.03997L31.7499 6.58497L32.5699 6.67497L31.4249 6.94497L32.0349 7.12497L30.7999 7.21497L31.4099 7.39497L30.1749 7.48497L30.7799 7.66997L29.3349 7.84997L29.9449 8.02997L28.4999 8.20997L29.1099 8.38997L27.6649 8.56997L26.9399 8.65997L26.6399 8.56997L26.7499 8.29997L27.2849 7.84997L28.3499 6.94497L28.1199 7.48497L29.1849 6.58497L28.9549 7.12497L30.0199 6.22497L29.7899 6.76497L30.6499 5.94997L30.4249 6.49497L31.2749 5.67997L31.0499 6.21997L31.9999 5.58997L31.5649 6.22497L32.4949 6.04497L32.4899 6.03997Z" fill="#006D00" stroke="white" stroke-width="0.1"/>
<path d="M32.4899 6.03992L26.6399 8.56992M28.3449 6.94492L27.4749 8.20992L29.1099 8.38992" stroke="black" stroke-width="0.015"/>
<path d="M29.1853 6.58496L28.3103 7.84996L29.9453 8.02996" stroke="black" stroke-width="0.015"/>
<path d="M30.02 6.21997L29.145 7.48497L30.78 7.66997" stroke="black" stroke-width="0.015"/>
<path d="M30.6504 5.94995L29.9854 7.12495L31.4104 7.39495" stroke="black" stroke-width="0.015"/>
<path d="M31.2754 5.67993L30.6104 6.85493L32.0354 7.12493" stroke="black" stroke-width="0.015"/>
<path d="M32.0003 5.58997L31.0303 6.67497H32.5653" stroke="black" stroke-width="0.015"/>
<path fill-rule="evenodd" clip-rule="evenodd" d="M32.3698 11.5149L31.4498 11.2499L31.7798 11.8999L30.9248 11.1999L31.0548 11.7349L30.3298 10.8749L30.4648 11.4149L29.7398 10.5499L29.8698 11.0899L28.9448 10.1199L29.0798 10.6599L28.1548 9.68995L28.2898 10.2299L27.3648 9.25995L26.9048 8.77495L26.8398 8.50495L27.1698 8.44495L27.8948 8.60495L29.3448 8.92495L28.6848 9.03495L30.1348 9.35495L29.4748 9.46495L30.9248 9.78495L30.2648 9.89995L31.5148 10.1099L30.8548 10.2199L32.1048 10.4299L31.4498 10.5499L32.5648 10.9249H31.7148L32.3648 11.5249L32.3698 11.5149Z" fill="#006D00" stroke="white" stroke-width="0.1"/>
<path d="M32.3698 11.515L26.8398 8.505M29.3398 8.925L27.6298 8.935L28.2898 10.235" stroke="black" stroke-width="0.015"/>
<path d="M30.1299 9.35498L28.4199 9.36498L29.0799 10.665" stroke="black" stroke-width="0.015"/>
<path d="M30.9202 9.78491L29.2102 9.79491L29.8702 11.0949" stroke="black" stroke-width="0.015"/>
<path d="M31.515 10.11L30 10.225L30.465 11.415" stroke="black" stroke-width="0.015"/>
<path d="M32.11 10.4349L30.595 10.5449L31.055 11.7349" stroke="black" stroke-width="0.015"/>
<path d="M32.565 10.92L30.99 10.76L31.78 11.9" stroke="black" stroke-width="0.015"/>
<path fill-rule="evenodd" clip-rule="evenodd" d="M22.76 11.8299L23.225 11.1799L22.52 11.2849L23.39 10.7899L22.835 10.7649L23.835 10.4149L23.28 10.3849L24.28 10.0349L23.725 10.0049L24.875 9.52489L24.315 9.49989L25.465 9.01489L24.91 8.98989L26.06 8.50989L26.635 8.26489L26.915 8.27989L26.895 8.54489L26.58 9.06489L25.95 10.1049L25.99 9.57489L25.36 10.6149L25.395 10.0799L24.765 11.1199L24.8 10.5899L24.32 11.4999L24.355 10.9699L23.875 11.8799L23.91 11.3499L23.3 12.1199L23.485 11.4599L22.76 11.8299Z" fill="#006D00" stroke="white" stroke-width="0.09"/>
<path d="M22.7603 11.8299L26.9103 8.27991M25.9553 10.1049L26.3203 8.78491L24.9103 8.98991" stroke="black" stroke-width="0.015"/>
<path d="M25.3599 10.6149L25.7249 9.29492L24.3149 9.49492" stroke="black" stroke-width="0.015"/>
<path d="M24.7651 11.1199L25.1351 9.79993L23.7251 10.0049" stroke="black" stroke-width="0.015"/>
<path d="M24.3203 11.4999L24.5403 10.3099L23.2803 10.3849" stroke="black" stroke-width="0.015"/>
<path d="M23.8752 11.8799L24.0952 10.6899L22.8352 10.7649" stroke="black" stroke-width="0.015"/>
<path d="M23.3 12.1199L23.8 10.9449L22.52 11.2849" stroke="black" stroke-width="0.015"/>
<path fill-rule="evenodd" clip-rule="evenodd" d="M31.15 3.30989L30.255 3.90989L30.11 3.26489L29.585 4.15489L29.485 3.72989L29.055 4.63989L28.995 4.21989L28.66 5.15489L28.47 4.70489L28.135 5.83989L27.945 5.38989L27.61 6.52489L27.415 6.07489L27.08 7.20989L26.915 7.77989L27.01 8.00489L27.37 7.88489L27.99 7.42489L29.24 6.50489L28.52 6.73989L29.765 5.81489L29.045 6.05489L30.29 5.12989L29.57 5.36989L30.82 4.64989L29.97 4.84989L31.3 4.16489L30.485 4.37489L31.47 3.59489L30.62 3.99989L31.15 3.30989Z" fill="#006D00" stroke="white" stroke-width="0.1"/>
<path d="M30.8003 3.63501L29.5103 4.74501L27.0103 8.00501" stroke="black" stroke-width="0.015"/>
<path d="M28.965 6.6399L27.535 7.3149L27.415 6.2749" stroke="black" stroke-width="0.015"/>
<path d="M29.5101 5.95997L28.0601 6.62997L27.9451 5.58997" stroke="black" stroke-width="0.015"/>
<path d="M30.0252 5.27491L28.5902 5.94491L28.4802 4.90991" stroke="black" stroke-width="0.015"/>
<path d="M30.4548 4.76491L29.1148 5.25991L28.9648 4.40991" stroke="black" stroke-width="0.015"/>
<path d="M30.9502 4.27493L29.5102 4.74993L29.4602 3.92993" stroke="black" stroke-width="0.015"/>
<path d="M31.1403 3.80996L29.8103 4.48996L30.0703 3.45996" stroke="black" stroke-width="0.015"/>
<path fill-rule="evenodd" clip-rule="evenodd" d="M26.3053 2.18994L26.7053 3.09994L27.2203 2.61994L27.1353 3.60994L27.4753 3.28994L27.2903 4.25994L27.5903 3.92994L27.3153 4.87994L27.7503 4.57994L27.3503 5.69494L27.7803 5.39494L27.3803 6.51994L27.8153 6.21994L27.4153 7.33994L27.2153 7.89994L26.9953 8.04994L26.7553 7.78494L26.5053 7.11494L26.0053 5.76994L26.4753 6.29494L25.9703 4.94494L26.4403 5.47494L25.9403 4.12494L26.4003 4.64994L25.7753 3.47994L26.3753 4.03494L25.6553 2.83994L26.2203 3.38994L25.8553 2.27994L26.3353 3.00994L26.3053 2.18994Z" fill="#006D00" stroke="white" stroke-width="0.1"/>
<path d="M26.4102 2.62L26.8352 4.145L26.9952 8.04499" stroke="black" stroke-width="0.015"/>
<path d="M26.1501 6.01001L26.9601 7.22501L27.6951 6.39001" stroke="black" stroke-width="0.015"/>
<path d="M26.1001 5.18494L26.9251 6.40494L27.6601 5.56994" stroke="black" stroke-width="0.015"/>
<path d="M26.0752 4.36499L26.8952 5.58499L27.6152 4.74999" stroke="black" stroke-width="0.015"/>
<path d="M26.02 3.745L26.86 4.765L27.51 4.115" stroke="black" stroke-width="0.015"/>
<path d="M25.9001 3.09998L26.8351 4.14998L27.3851 3.46998" stroke="black" stroke-width="0.015"/>
<path d="M26.0149 2.62L26.7349 3.795L27.1399 2.8" stroke="black" stroke-width="0.015"/>
<path fill-rule="evenodd" clip-rule="evenodd" d="M20.9502 8.9L22.1152 8.09L21.5302 7.79L22.5552 7.96L22.2052 7.495L23.1952 7.87L22.8452 7.405L23.8402 7.775L23.4902 7.315L24.6902 7.72L24.3402 7.255L25.5052 7.86L25.1552 7.395L26.3552 7.805L26.9402 8.105L27.1152 8.335L26.8802 8.5L26.2352 8.59L25.2002 9.02L25.3902 8.65L24.1052 8.83L24.5702 8.51L23.2552 8.89L23.7252 8.565L22.6152 8.98L23.1102 8.46L21.9702 9.07L22.4702 8.55L21.5302 9.2L22.0552 8.48L20.9502 8.9Z" fill="#006D00" stroke="white" stroke-width="0.095"/>
<path d="M21.3149 8.67993L22.5249 8.15493L23.1699 8.06493L23.7049 8.05493L24.6299 8.11493L25.4649 8.14993L27.1149 8.33493" stroke="black" stroke-width="0.015"/>
<path d="M25.36 8.84492L26.285 8.27492L25.345 7.53992" stroke="black" stroke-width="0.015"/>
<path d="M24.3252 8.75991L25.4602 8.14991L24.5252 7.40991" stroke="black" stroke-width="0.015"/>
<path d="M23.5851 8.73993L24.6301 8.11493L23.6801 7.42993M22.2051 8.90993L23.1701 8.06493L22.3901 7.63993" stroke="black" stroke-width="0.015"/>
<path d="M21.7751 8.96492L22.5251 8.15992L21.9251 7.93492M22.8451 8.81992L23.7951 8.05992L23.0351 7.53992" stroke="black" stroke-width="0.015"/>
<path fill-rule="evenodd" clip-rule="evenodd" d="M24.8758 17.7596L24.8648 16.3958L24.4697 15.7588C24.3707 15.4457 24.4192 15.2945 24.5796 15.2837C24.7394 15.2742 24.8978 15.3647 25.128 15.3748C25.3583 15.3849 25.3149 15.0212 25.6551 15.0313C25.9953 15.0415 26.5883 15.2236 27.0927 15.254C27.5978 15.2837 27.861 15.0921 28.443 15.0718C29.025 15.0516 29.1783 15.3242 29.2113 15.3242C29.2443 15.3242 29.4092 15.2135 29.5734 15.1933C29.7384 15.173 29.7933 15.254 29.7933 15.254C29.7933 15.254 29.7823 15.5975 29.7054 15.7993C29.6284 16.0017 29.3542 16.335 29.3432 16.335C29.3322 16.335 29.2443 17.8203 29.2443 17.8304C29.2443 17.8406 24.8758 17.79 24.8758 17.7596Z" fill="#CC0000" stroke="black" stroke-width="0.00827291"/>
<path fill-rule="evenodd" clip-rule="evenodd" d="M29.3927 16.3602C29.3927 16.3602 29.8325 16.0506 29.8441 15.3059C29.8506 14.8773 29.6216 14.5677 29.0487 14.5677C28.2468 14.5677 27.1015 14.8839 27.1015 14.8839V14.9892C27.1015 14.9892 28.0178 14.6731 29.0493 14.6731C29.5072 14.6731 29.7368 14.9827 29.7368 15.2994C29.7368 15.8268 29.2776 16.3608 29.2776 16.3608V17.2043H29.3927V16.3602Z" fill="#FFF100" stroke="black" stroke-width="0.00827291"/>
<path fill-rule="evenodd" clip-rule="evenodd" d="M29.6309 16.1394C29.6298 16.154 29.6318 16.1686 29.6371 16.1823C29.6423 16.1961 29.6506 16.2087 29.6613 16.2194C29.6721 16.2301 29.6852 16.2386 29.6997 16.2445C29.7142 16.2503 29.7299 16.2533 29.7457 16.2533C29.7616 16.2533 29.7772 16.2503 29.7918 16.2445C29.8063 16.2386 29.8193 16.2301 29.8301 16.2194C29.8409 16.2087 29.8492 16.1961 29.8544 16.1823C29.8596 16.1686 29.8617 16.154 29.8605 16.1394C29.8583 16.1128 29.8453 16.0878 29.824 16.0697C29.8027 16.0515 29.7748 16.0414 29.7457 16.0414C29.7167 16.0414 29.6887 16.0515 29.6674 16.0697C29.6462 16.0878 29.6331 16.1128 29.6309 16.1394Z" fill="white" stroke="black" stroke-width="0.00827291"/>
<path fill-rule="evenodd" clip-rule="evenodd" d="M29.7462 15.8994C29.745 15.914 29.7471 15.9286 29.7523 15.9423C29.7575 15.9561 29.7658 15.9687 29.7766 15.9794C29.7873 15.9901 29.8004 15.9986 29.8149 16.0045C29.8294 16.0103 29.8451 16.0133 29.861 16.0133C29.8768 16.0133 29.8925 16.0103 29.907 16.0045C29.9215 15.9986 29.9346 15.9901 29.9454 15.9794C29.9561 15.9687 29.9644 15.9561 29.9696 15.9423C29.9749 15.9286 29.9769 15.914 29.9758 15.8994C29.9736 15.8728 29.9605 15.8479 29.9393 15.8297C29.918 15.8115 29.89 15.8014 29.861 15.8014C29.8319 15.8014 29.804 15.8115 29.7827 15.8297C29.7614 15.8479 29.7483 15.8728 29.7462 15.8994Z" fill="white" stroke="black" stroke-width="0.00827291"/>
<path fill-rule="evenodd" clip-rule="evenodd" d="M29.8057 15.6494C29.8046 15.664 29.8066 15.6786 29.8119 15.6923C29.8171 15.7061 29.8254 15.7187 29.8361 15.7294C29.8469 15.7401 29.86 15.7486 29.8745 15.7545C29.889 15.7603 29.9047 15.7633 29.9205 15.7633C29.9364 15.7633 29.952 15.7603 29.9666 15.7545C29.9811 15.7486 29.9941 15.7401 30.0049 15.7294C30.0157 15.7187 30.024 15.7061 30.0292 15.6923C30.0344 15.6786 30.0365 15.664 30.0353 15.6494C30.0331 15.6228 30.0201 15.5979 29.9988 15.5797C29.9775 15.5615 29.9496 15.5514 29.9205 15.5514C29.8915 15.5514 29.8635 15.5615 29.8422 15.5797C29.821 15.5979 29.8079 15.6228 29.8057 15.6494Z" fill="white" stroke="black" stroke-width="0.00827291"/>
<path fill-rule="evenodd" clip-rule="evenodd" d="M29.8512 15.3894C29.85 15.404 29.8521 15.4186 29.8573 15.4323C29.8625 15.4461 29.8708 15.4587 29.8816 15.4694C29.8923 15.4801 29.9054 15.4886 29.9199 15.4945C29.9344 15.5003 29.9501 15.5033 29.9659 15.5033C29.9818 15.5033 29.9975 15.5003 30.012 15.4945C30.0265 15.4886 30.0396 15.4801 30.0503 15.4694C30.0611 15.4587 30.0694 15.4461 30.0746 15.4323C30.0798 15.4186 30.0819 15.404 30.0807 15.3894C30.0786 15.3628 30.0655 15.3378 30.0442 15.3197C30.0229 15.3015 29.995 15.2914 29.9659 15.2914C29.9369 15.2914 29.9089 15.3015 29.8877 15.3197C29.8664 15.3378 29.8533 15.3628 29.8512 15.3894Z" fill="white" stroke="black" stroke-width="0.00827291"/>
<path fill-rule="evenodd" clip-rule="evenodd" d="M29.8409 15.1094C29.8397 15.1239 29.8418 15.1385 29.847 15.1523C29.8523 15.1661 29.8605 15.1787 29.8713 15.1894C29.8821 15.2001 29.8951 15.2086 29.9097 15.2144C29.9242 15.2203 29.9398 15.2233 29.9557 15.2233C29.9715 15.2233 29.9872 15.2203 30.0017 15.2144C30.0162 15.2086 30.0293 15.2001 30.0401 15.1894C30.0509 15.1787 30.0591 15.1661 30.0643 15.1523C30.0696 15.1385 30.0717 15.1239 30.0705 15.1094C30.0683 15.0827 30.0553 15.0578 30.034 15.0396C30.0127 15.0215 29.9847 15.0114 29.9557 15.0114C29.9267 15.0114 29.8987 15.0215 29.8774 15.0396C29.8561 15.0578 29.8431 15.0827 29.8409 15.1094Z" fill="white" stroke="black" stroke-width="0.00827291"/>
<path fill-rule="evenodd" clip-rule="evenodd" d="M29.4659 16.3543C29.4647 16.3688 29.4668 16.3834 29.472 16.3972C29.4773 16.4109 29.4855 16.4236 29.4963 16.4343C29.5071 16.4449 29.5201 16.4535 29.5347 16.4593C29.5492 16.4651 29.5648 16.4682 29.5807 16.4682C29.5965 16.4682 29.6122 16.4651 29.6267 16.4593C29.6412 16.4535 29.6543 16.4449 29.6651 16.4343C29.6759 16.4236 29.6841 16.4109 29.6893 16.3972C29.6946 16.3834 29.6967 16.3688 29.6955 16.3543C29.6933 16.3276 29.6803 16.3027 29.659 16.2845C29.6377 16.2663 29.6097 16.2562 29.5807 16.2562C29.5517 16.2562 29.5237 16.2663 29.5024 16.2845C29.4811 16.3027 29.4681 16.3276 29.4659 16.3543Z" fill="white" stroke="black" stroke-width="0.00827291"/>
<path fill-rule="evenodd" clip-rule="evenodd" d="M29.7408 14.8394C29.7396 14.8539 29.7417 14.8685 29.7469 14.8823C29.7522 14.896 29.7604 14.9087 29.7712 14.9194C29.782 14.9301 29.795 14.9386 29.8096 14.9444C29.8241 14.9502 29.8397 14.9533 29.8556 14.9533C29.8714 14.9533 29.8871 14.9502 29.9016 14.9444C29.9161 14.9386 29.9292 14.9301 29.94 14.9194C29.9508 14.9087 29.959 14.896 29.9642 14.8823C29.9695 14.8685 29.9716 14.8539 29.9704 14.8394C29.9682 14.8127 29.9552 14.7878 29.9339 14.7696C29.9126 14.7514 29.8846 14.7413 29.8556 14.7413C29.8266 14.7413 29.7986 14.7514 29.7773 14.7696C29.756 14.7878 29.743 14.8127 29.7408 14.8394Z" fill="white" stroke="black" stroke-width="0.00827291"/>
<path fill-rule="evenodd" clip-rule="evenodd" d="M29.5308 14.6243C29.5297 14.6388 29.5317 14.6534 29.537 14.6672C29.5422 14.681 29.5505 14.6936 29.5612 14.7043C29.572 14.715 29.5851 14.7235 29.5996 14.7293C29.6141 14.7352 29.6298 14.7382 29.6456 14.7382C29.6615 14.7382 29.6771 14.7352 29.6917 14.7293C29.7062 14.7235 29.7192 14.715 29.73 14.7043C29.7408 14.6936 29.7491 14.681 29.7543 14.6672C29.7595 14.6534 29.7616 14.6388 29.7604 14.6243C29.7582 14.5976 29.7452 14.5727 29.7239 14.5545C29.7026 14.5363 29.6747 14.5262 29.6456 14.5262C29.6166 14.5262 29.5886 14.5363 29.5673 14.5545C29.5461 14.5727 29.533 14.5976 29.5308 14.6243Z" fill="white" stroke="black" stroke-width="0.00827291"/>
<path fill-rule="evenodd" clip-rule="evenodd" d="M29.2462 14.4844C29.245 14.4989 29.2471 14.5135 29.2523 14.5273C29.2575 14.5411 29.2658 14.5537 29.2766 14.5644C29.2873 14.5751 29.3004 14.5836 29.3149 14.5894C29.3294 14.5953 29.3451 14.5983 29.361 14.5983C29.3768 14.5983 29.3925 14.5953 29.407 14.5894C29.4215 14.5836 29.4346 14.5751 29.4454 14.5644C29.4561 14.5537 29.4644 14.5411 29.4696 14.5273C29.4749 14.5135 29.4769 14.4989 29.4758 14.4844C29.4736 14.4577 29.4605 14.4328 29.4393 14.4146C29.418 14.3965 29.39 14.3864 29.361 14.3864C29.3319 14.3864 29.304 14.3965 29.2827 14.4146C29.2614 14.4328 29.2483 14.4577 29.2462 14.4844Z" fill="white" stroke="black" stroke-width="0.00827291"/>
<path fill-rule="evenodd" clip-rule="evenodd" d="M28.9556 14.4644C28.9545 14.4789 28.9565 14.4935 28.9618 14.5073C28.967 14.521 28.9753 14.5337 28.986 14.5444C28.9968 14.5551 29.0099 14.5636 29.0244 14.5694C29.0389 14.5752 29.0546 14.5783 29.0704 14.5783C29.0863 14.5783 29.102 14.5752 29.1165 14.5694C29.131 14.5636 29.144 14.5551 29.1548 14.5444C29.1656 14.5337 29.1739 14.521 29.1791 14.5073C29.1843 14.4935 29.1864 14.4789 29.1852 14.4644C29.183 14.4377 29.17 14.4128 29.1487 14.3946C29.1274 14.3764 29.0995 14.3663 29.0704 14.3663C29.0414 14.3663 29.0134 14.3764 28.9921 14.3946C28.9709 14.4128 28.9578 14.4377 28.9556 14.4644Z" fill="white" stroke="black" stroke-width="0.00827291"/>
<path fill-rule="evenodd" clip-rule="evenodd" d="M28.6558 14.4695C28.6547 14.484 28.6567 14.4986 28.662 14.5124C28.6672 14.5262 28.6755 14.5388 28.6862 14.5495C28.697 14.5602 28.7101 14.5687 28.7246 14.5745C28.7391 14.5804 28.7548 14.5834 28.7706 14.5834C28.7865 14.5834 28.8021 14.5804 28.8167 14.5745C28.8312 14.5687 28.8442 14.5602 28.855 14.5495C28.8658 14.5388 28.8741 14.5262 28.8793 14.5124C28.8845 14.4986 28.8866 14.484 28.8854 14.4695C28.8832 14.4428 28.8702 14.4179 28.8489 14.3997C28.8276 14.3816 28.7997 14.3715 28.7706 14.3715C28.7416 14.3715 28.7136 14.3816 28.6923 14.3997C28.6711 14.4179 28.658 14.4428 28.6558 14.4695Z" fill="white" stroke="black" stroke-width="0.00827291"/>
<path fill-rule="evenodd" clip-rule="evenodd" d="M28.3463 14.5193C28.3451 14.5338 28.3472 14.5484 28.3524 14.5622C28.3576 14.576 28.3659 14.5886 28.3767 14.5993C28.3874 14.61 28.4005 14.6185 28.415 14.6243C28.4295 14.6302 28.4452 14.6332 28.4611 14.6332C28.4769 14.6332 28.4926 14.6302 28.5071 14.6243C28.5216 14.6185 28.5347 14.61 28.5454 14.5993C28.5562 14.5886 28.5645 14.576 28.5697 14.5622C28.5749 14.5484 28.577 14.5338 28.5758 14.5193C28.5737 14.4926 28.5606 14.4677 28.5393 14.4495C28.5181 14.4314 28.4901 14.4213 28.4611 14.4213C28.432 14.4213 28.4041 14.4314 28.3828 14.4495C28.3615 14.4677 28.3484 14.4926 28.3463 14.5193Z" fill="white" stroke="black" stroke-width="0.00827291"/>
<path fill-rule="evenodd" clip-rule="evenodd" d="M28.0411 14.5544C28.0399 14.569 28.042 14.5836 28.0472 14.5974C28.0525 14.6111 28.0607 14.6238 28.0715 14.6345C28.0823 14.6451 28.0953 14.6537 28.1098 14.6595C28.1244 14.6653 28.14 14.6683 28.1559 14.6683C28.1717 14.6683 28.1874 14.6653 28.2019 14.6595C28.2164 14.6537 28.2295 14.6451 28.2403 14.6345C28.251 14.6238 28.2593 14.6111 28.2645 14.5974C28.2698 14.5836 28.2719 14.569 28.2707 14.5544C28.2685 14.5278 28.2555 14.5029 28.2342 14.4847C28.2129 14.4665 28.1849 14.4564 28.1559 14.4564C28.1268 14.4564 28.0989 14.4665 28.0776 14.4847C28.0563 14.5029 28.0433 14.5278 28.0411 14.5544Z" fill="white" stroke="black" stroke-width="0.00827291"/>
<path fill-rule="evenodd" clip-rule="evenodd" d="M27.7056 14.5994C27.7045 14.6139 27.7065 14.6285 27.7118 14.6423C27.717 14.6561 27.7253 14.6687 27.736 14.6794C27.7468 14.6901 27.7599 14.6986 27.7744 14.7044C27.7889 14.7103 27.8046 14.7133 27.8204 14.7133C27.8363 14.7133 27.852 14.7103 27.8665 14.7044C27.881 14.6986 27.894 14.6901 27.9048 14.6794C27.9156 14.6687 27.9239 14.6561 27.9291 14.6423C27.9343 14.6285 27.9364 14.6139 27.9352 14.5994C27.933 14.5727 27.92 14.5478 27.8987 14.5296C27.8774 14.5114 27.8495 14.5013 27.8204 14.5013C27.7914 14.5013 27.7634 14.5114 27.7421 14.5296C27.7209 14.5478 27.7078 14.5727 27.7056 14.5994Z" fill="white" stroke="black" stroke-width="0.00827291"/>
<path fill-rule="evenodd" clip-rule="evenodd" d="M27.4263 14.6743C27.4252 14.6889 27.4272 14.7035 27.4325 14.7172C27.4377 14.731 27.446 14.7436 27.4567 14.7543C27.4675 14.765 27.4806 14.7735 27.4951 14.7794C27.5096 14.7852 27.5253 14.7882 27.5411 14.7882C27.557 14.7882 27.5727 14.7852 27.5872 14.7794C27.6017 14.7735 27.6148 14.765 27.6255 14.7543C27.6363 14.7436 27.6446 14.731 27.6498 14.7172C27.655 14.7035 27.6571 14.6889 27.6559 14.6743C27.6538 14.6477 27.6407 14.6228 27.6194 14.6046C27.5981 14.5864 27.5702 14.5763 27.5411 14.5763C27.5121 14.5763 27.4841 14.5864 27.4628 14.6046C27.4416 14.6228 27.4285 14.6477 27.4263 14.6743Z" fill="white" stroke="black" stroke-width="0.00827291"/>
<path fill-rule="evenodd" clip-rule="evenodd" d="M24.5678 16.1394C24.569 16.154 24.5669 16.1686 24.5617 16.1823C24.5564 16.1961 24.5482 16.2087 24.5374 16.2194C24.5266 16.2301 24.5136 16.2386 24.499 16.2445C24.4845 16.2503 24.4688 16.2533 24.453 16.2533C24.4372 16.2533 24.4215 16.2503 24.407 16.2445C24.3924 16.2386 24.3794 16.2301 24.3686 16.2194C24.3578 16.2087 24.3496 16.1961 24.3443 16.1823C24.3391 16.1686 24.337 16.154 24.3382 16.1394C24.3404 16.1128 24.3534 16.0878 24.3747 16.0697C24.396 16.0515 24.424 16.0414 24.453 16.0414C24.482 16.0414 24.51 16.0515 24.5313 16.0697C24.5526 16.0878 24.5656 16.1128 24.5678 16.1394Z" fill="white" stroke="black" stroke-width="0.00827291"/>
<path fill-rule="evenodd" clip-rule="evenodd" d="M24.453 15.8994C24.4542 15.914 24.4521 15.9286 24.4469 15.9423C24.4417 15.9561 24.4334 15.9687 24.4226 15.9794C24.4119 15.9901 24.3988 15.9986 24.3843 16.0045C24.3698 16.0103 24.3541 16.0133 24.3383 16.0133C24.3224 16.0133 24.3067 16.0103 24.2922 16.0045C24.2777 15.9986 24.2646 15.9901 24.2539 15.9794C24.2431 15.9687 24.2348 15.9561 24.2296 15.9423C24.2244 15.9286 24.2223 15.914 24.2235 15.8994C24.2256 15.8728 24.2387 15.8479 24.26 15.8297C24.2813 15.8115 24.3092 15.8014 24.3383 15.8014C24.3673 15.8014 24.3953 15.8115 24.4165 15.8297C24.4378 15.8479 24.4509 15.8728 24.453 15.8994Z" fill="white" stroke="black" stroke-width="0.00827291"/>
<path fill-rule="evenodd" clip-rule="evenodd" d="M24.3925 15.6494C24.3937 15.664 24.3916 15.6786 24.3864 15.6923C24.3811 15.7061 24.3729 15.7187 24.3621 15.7294C24.3513 15.7401 24.3383 15.7486 24.3237 15.7545C24.3092 15.7603 24.2936 15.7633 24.2777 15.7633C24.2619 15.7633 24.2462 15.7603 24.2317 15.7545C24.2172 15.7486 24.2041 15.7401 24.1933 15.7294C24.1825 15.7187 24.1743 15.7061 24.1691 15.6923C24.1638 15.6786 24.1617 15.664 24.1629 15.6494C24.1651 15.6228 24.1781 15.5979 24.1994 15.5797C24.2207 15.5615 24.2487 15.5514 24.2777 15.5514C24.3067 15.5514 24.3347 15.5615 24.356 15.5797C24.3773 15.5979 24.3903 15.6228 24.3925 15.6494Z" fill="white" stroke="black" stroke-width="0.00827291"/>
<path fill-rule="evenodd" clip-rule="evenodd" d="M24.3529 15.3894C24.3541 15.404 24.352 15.4186 24.3468 15.4323C24.3416 15.4461 24.3333 15.4587 24.3225 15.4694C24.3118 15.4801 24.2987 15.4886 24.2842 15.4945C24.2697 15.5003 24.254 15.5033 24.2382 15.5033C24.2223 15.5033 24.2066 15.5003 24.1921 15.4945C24.1776 15.4886 24.1645 15.4801 24.1538 15.4694C24.143 15.4587 24.1347 15.4461 24.1295 15.4323C24.1243 15.4186 24.1222 15.404 24.1234 15.3894C24.1255 15.3628 24.1386 15.3378 24.1599 15.3197C24.1812 15.3015 24.2091 15.2914 24.2382 15.2914C24.2672 15.2914 24.2952 15.3015 24.3164 15.3197C24.3377 15.3378 24.3508 15.3628 24.3529 15.3894Z" fill="white" stroke="black" stroke-width="0.00827291"/>
<path fill-rule="evenodd" clip-rule="evenodd" d="M24.3632 15.1094C24.3644 15.1239 24.3623 15.1385 24.3571 15.1523C24.3518 15.1661 24.3436 15.1787 24.3328 15.1894C24.322 15.2001 24.309 15.2086 24.2945 15.2144C24.2799 15.2203 24.2643 15.2233 24.2484 15.2233C24.2326 15.2233 24.2169 15.2203 24.2024 15.2144C24.1879 15.2086 24.1748 15.2001 24.164 15.1894C24.1532 15.1787 24.145 15.1661 24.1398 15.1523C24.1345 15.1385 24.1324 15.1239 24.1336 15.1094C24.1358 15.0827 24.1488 15.0578 24.1701 15.0396C24.1914 15.0215 24.2194 15.0114 24.2484 15.0114C24.2775 15.0114 24.3054 15.0215 24.3267 15.0396C24.348 15.0578 24.361 15.0827 24.3632 15.1094Z" fill="white" stroke="black" stroke-width="0.00827291"/>
<path fill-rule="evenodd" clip-rule="evenodd" d="M24.4579 14.8394C24.4591 14.8539 24.457 14.8685 24.4518 14.8823C24.4466 14.896 24.4383 14.9087 24.4275 14.9194C24.4168 14.9301 24.4037 14.9386 24.3892 14.9444C24.3747 14.9502 24.359 14.9533 24.3431 14.9533C24.3273 14.9533 24.3116 14.9502 24.2971 14.9444C24.2826 14.9386 24.2695 14.9301 24.2587 14.9194C24.248 14.9087 24.2397 14.896 24.2345 14.8823C24.2293 14.8685 24.2272 14.8539 24.2284 14.8394C24.2305 14.8127 24.2436 14.7878 24.2649 14.7696C24.2861 14.7514 24.3141 14.7413 24.3431 14.7413C24.3722 14.7413 24.4001 14.7514 24.4214 14.7696C24.4427 14.7878 24.4558 14.8127 24.4579 14.8394Z" fill="white" stroke="black" stroke-width="0.00827291"/>
<path fill-rule="evenodd" clip-rule="evenodd" d="M24.663 14.6243C24.6642 14.6388 24.6621 14.6534 24.6569 14.6672C24.6516 14.681 24.6434 14.6936 24.6326 14.7043C24.6218 14.715 24.6088 14.7235 24.5943 14.7293C24.5797 14.7352 24.5641 14.7382 24.5482 14.7382C24.5324 14.7382 24.5167 14.7352 24.5022 14.7293C24.4877 14.7235 24.4746 14.715 24.4638 14.7043C24.4531 14.6936 24.4448 14.681 24.4396 14.6672C24.4343 14.6534 24.4322 14.6388 24.4334 14.6243C24.4356 14.5976 24.4486 14.5727 24.4699 14.5545C24.4912 14.5363 24.5192 14.5262 24.5482 14.5262C24.5773 14.5262 24.6052 14.5363 24.6265 14.5545C24.6478 14.5727 24.6608 14.5976 24.663 14.6243Z" fill="white" stroke="black" stroke-width="0.00827291"/>
<path fill-rule="evenodd" clip-rule="evenodd" d="M24.953 14.4844C24.9542 14.4989 24.9521 14.5135 24.9469 14.5273C24.9417 14.5411 24.9334 14.5537 24.9226 14.5644C24.9119 14.5751 24.8988 14.5836 24.8843 14.5894C24.8698 14.5953 24.8541 14.5983 24.8383 14.5983C24.8224 14.5983 24.8067 14.5953 24.7922 14.5894C24.7777 14.5836 24.7646 14.5751 24.7539 14.5644C24.7431 14.5537 24.7348 14.5411 24.7296 14.5273C24.7244 14.5135 24.7223 14.4989 24.7235 14.4844C24.7256 14.4577 24.7387 14.4328 24.76 14.4146C24.7813 14.3965 24.8092 14.3864 24.8383 14.3864C24.8673 14.3864 24.8953 14.3965 24.9165 14.4146C24.9378 14.4328 24.9509 14.4577 24.953 14.4844Z" fill="white" stroke="black" stroke-width="0.00827291"/>
<path fill-rule="evenodd" clip-rule="evenodd" d="M25.2382 14.4644C25.2394 14.4789 25.2373 14.4935 25.2321 14.5073C25.2268 14.521 25.2186 14.5337 25.2078 14.5444C25.197 14.5551 25.184 14.5636 25.1695 14.5694C25.1549 14.5752 25.1393 14.5783 25.1234 14.5783C25.1076 14.5783 25.0919 14.5752 25.0774 14.5694C25.0629 14.5636 25.0498 14.5551 25.039 14.5444C25.0282 14.5337 25.02 14.521 25.0148 14.5073C25.0095 14.4935 25.0074 14.4789 25.0086 14.4644C25.0108 14.4377 25.0238 14.4128 25.0451 14.3946C25.0664 14.3764 25.0944 14.3663 25.1234 14.3663C25.1525 14.3663 25.1804 14.3764 25.2017 14.3946C25.223 14.4128 25.236 14.4377 25.2382 14.4644Z" fill="white" stroke="black" stroke-width="0.00827291"/>
<path fill-rule="evenodd" clip-rule="evenodd" d="M25.5429 14.4692C25.5441 14.4838 25.542 14.4984 25.5368 14.5122C25.5315 14.5259 25.5233 14.5386 25.5125 14.5492C25.5017 14.5599 25.4887 14.5685 25.4741 14.5743C25.4596 14.5801 25.4439 14.5831 25.4281 14.5831C25.4123 14.5831 25.3966 14.5801 25.3821 14.5743C25.3675 14.5685 25.3545 14.5599 25.3437 14.5492C25.3329 14.5386 25.3247 14.5259 25.3194 14.5122C25.3142 14.4984 25.3121 14.4838 25.3133 14.4692C25.3155 14.4426 25.3285 14.4177 25.3498 14.3995C25.3711 14.3813 25.3991 14.3712 25.4281 14.3712C25.4571 14.3712 25.4851 14.3813 25.5064 14.3995C25.5277 14.4177 25.5407 14.4426 25.5429 14.4692Z" fill="white" stroke="black" stroke-width="0.00827291"/>
<path fill-rule="evenodd" clip-rule="evenodd" d="M25.8529 14.5193C25.8541 14.5338 25.852 14.5484 25.8468 14.5622C25.8416 14.576 25.8333 14.5886 25.8225 14.5993C25.8118 14.61 25.7987 14.6185 25.7842 14.6243C25.7697 14.6302 25.754 14.6332 25.7382 14.6332C25.7223 14.6332 25.7066 14.6302 25.6921 14.6243C25.6776 14.6185 25.6645 14.61 25.6538 14.5993C25.643 14.5886 25.6347 14.576 25.6295 14.5622C25.6243 14.5484 25.6222 14.5338 25.6234 14.5193C25.6255 14.4926 25.6386 14.4677 25.6599 14.4495C25.6812 14.4314 25.7091 14.4213 25.7382 14.4213C25.7672 14.4213 25.7952 14.4314 25.8164 14.4495C25.8377 14.4677 25.8508 14.4926 25.8529 14.5193Z" fill="white" stroke="black" stroke-width="0.00827291"/>
<path fill-rule="evenodd" clip-rule="evenodd" d="M26.163 14.5542C26.1642 14.5687 26.1621 14.5834 26.1569 14.5971C26.1516 14.6109 26.1434 14.6235 26.1326 14.6342C26.1218 14.6449 26.1088 14.6534 26.0943 14.6593C26.0797 14.6651 26.0641 14.6681 26.0482 14.6681C26.0324 14.6681 26.0167 14.6651 26.0022 14.6593C25.9877 14.6534 25.9746 14.6449 25.9638 14.6342C25.9531 14.6235 25.9448 14.6109 25.9396 14.5971C25.9343 14.5834 25.9322 14.5687 25.9334 14.5542C25.9356 14.5275 25.9486 14.5026 25.9699 14.4845C25.9912 14.4663 26.0192 14.4562 26.0482 14.4562C26.0773 14.4562 26.1052 14.4663 26.1265 14.4845C26.1478 14.5026 26.1608 14.5275 26.163 14.5542Z" fill="white" stroke="black" stroke-width="0.00827291"/>
<path fill-rule="evenodd" clip-rule="evenodd" d="M26.4882 14.5994C26.4894 14.6139 26.4873 14.6285 26.4821 14.6423C26.4768 14.6561 26.4686 14.6687 26.4578 14.6794C26.447 14.6901 26.434 14.6986 26.4195 14.7044C26.4049 14.7103 26.3893 14.7133 26.3734 14.7133C26.3576 14.7133 26.3419 14.7103 26.3274 14.7044C26.3129 14.6986 26.2998 14.6901 26.289 14.6794C26.2782 14.6687 26.27 14.6561 26.2648 14.6423C26.2595 14.6285 26.2574 14.6139 26.2586 14.5994C26.2608 14.5727 26.2738 14.5478 26.2951 14.5296C26.3164 14.5114 26.3444 14.5013 26.3734 14.5013C26.4025 14.5013 26.4304 14.5114 26.4517 14.5296C26.473 14.5478 26.486 14.5727 26.4882 14.5994Z" fill="white" stroke="black" stroke-width="0.00827291"/>
<path fill-rule="evenodd" clip-rule="evenodd" d="M26.7729 14.6743C26.7741 14.6889 26.772 14.7035 26.7667 14.7172C26.7615 14.731 26.7532 14.7436 26.7425 14.7543C26.7317 14.765 26.7186 14.7735 26.7041 14.7794C26.6896 14.7852 26.6739 14.7882 26.6581 14.7882C26.6422 14.7882 26.6266 14.7852 26.612 14.7794C26.5975 14.7735 26.5845 14.765 26.5737 14.7543C26.5629 14.7436 26.5547 14.731 26.5494 14.7172C26.5442 14.7035 26.5421 14.6889 26.5433 14.6743C26.5455 14.6477 26.5585 14.6228 26.5798 14.6046C26.6011 14.5864 26.629 14.5763 26.6581 14.5763C26.6871 14.5763 26.7151 14.5864 26.7364 14.6046C26.7577 14.6228 26.7707 14.6477 26.7729 14.6743Z" fill="white" stroke="black" stroke-width="0.00827291"/>
<path fill-rule="evenodd" clip-rule="evenodd" d="M24.7328 16.3543C24.734 16.3688 24.7319 16.3834 24.7267 16.3972C24.7215 16.4109 24.7132 16.4236 24.7024 16.4343C24.6917 16.4449 24.6786 16.4535 24.6641 16.4593C24.6496 16.4651 24.6339 16.4682 24.618 16.4682C24.6022 16.4682 24.5865 16.4651 24.572 16.4593C24.5575 16.4535 24.5444 16.4449 24.5337 16.4343C24.5229 16.4236 24.5146 16.4109 24.5094 16.3972C24.5042 16.3834 24.5021 16.3688 24.5033 16.3543C24.5054 16.3276 24.5185 16.3027 24.5398 16.2845C24.561 16.2663 24.589 16.2562 24.618 16.2562C24.6471 16.2562 24.675 16.2663 24.6963 16.2845C24.7176 16.3027 24.7307 16.3276 24.7328 16.3543Z" fill="white" stroke="black" stroke-width="0.00827291"/>
<path fill-rule="evenodd" clip-rule="evenodd" d="M24.8114 16.36C24.8114 16.36 24.3716 16.0504 24.36 15.3057C24.3535 14.8771 24.5825 14.5675 25.1554 14.5675C25.9573 14.5675 27.1027 14.8836 27.1027 14.8836V14.989C27.1027 14.989 26.1863 14.6729 25.1548 14.6729C24.6969 14.6729 24.4673 14.9824 24.4673 15.2991C24.4673 15.8266 24.9265 16.3605 24.9265 16.3605V17.2041H24.8114V16.36Z" fill="#FFF100" stroke="black" stroke-width="0.00827291"/>
<path fill-rule="evenodd" clip-rule="evenodd" d="M25.6074 16.7504C25.6074 16.7504 25.6404 16.6701 25.7602 16.6701C25.8417 16.6701 25.9129 16.7504 25.9129 16.8307V16.9915H25.9894V16.8307C25.9894 16.7504 26.0657 16.6701 26.142 16.6701C26.2567 16.6701 26.2948 16.7504 26.2948 16.7504C26.2948 16.7504 26.2948 16.5093 26.142 16.5093C26.0275 16.5093 25.9894 16.5896 25.9894 16.5896C25.9894 16.5896 26.0275 16.4692 26.0275 16.3485C26.0275 16.2279 25.9512 16.1476 25.9512 16.1476C25.9512 16.163 25.8747 16.2281 25.8747 16.3485C25.8747 16.469 25.9129 16.5896 25.9129 16.5896C25.9129 16.5896 25.8747 16.5093 25.7602 16.5093C25.6074 16.5093 25.6074 16.7504 25.6074 16.7504Z" fill="#FFF100" stroke="black" stroke-width="0.0066331"/>
<path fill-rule="evenodd" clip-rule="evenodd" d="M27.897 16.7504C27.897 16.7504 27.93 16.6701 28.0498 16.6701C28.1313 16.6701 28.2024 16.7504 28.2024 16.8307V16.9915H28.2789V16.8307C28.2789 16.7504 28.3552 16.6701 28.4315 16.6701C28.5462 16.6701 28.5844 16.7504 28.5844 16.7504C28.5844 16.7504 28.5844 16.5093 28.4315 16.5093C28.3171 16.5093 28.2789 16.5896 28.2789 16.5896C28.2789 16.5896 28.3171 16.4692 28.3171 16.3485C28.3171 16.2279 28.2408 16.1476 28.2408 16.1476C28.2408 16.163 28.1643 16.2281 28.1643 16.3485C28.1643 16.469 28.2024 16.5896 28.2024 16.5896C28.2024 16.5896 28.1643 16.5093 28.0498 16.5093C27.897 16.5093 27.897 16.7504 27.897 16.7504Z" fill="#FFF100" stroke="black" stroke-width="0.0066331"/>
<path fill-rule="evenodd" clip-rule="evenodd" d="M24.811 17.8371V16.8876C24.811 16.8876 25.04 17.2043 25.384 17.2043C25.6653 17.2043 25.957 16.7822 25.957 16.7822C25.957 16.7822 26.2254 17.0989 26.53 17.0989C26.8016 17.0989 27.1023 16.6906 27.1023 16.6906C27.1023 16.6906 27.3817 17.0989 27.6753 17.0989C27.9695 17.0989 28.2482 16.7822 28.2482 16.7822C28.2482 16.7822 28.5477 17.2043 28.9357 17.2043C29.2791 17.2043 29.3942 16.8876 29.3942 16.8876V17.8371H24.811Z" fill="#FFF100" stroke="black" stroke-width="0.00827291"/>
<path fill-rule="evenodd" clip-rule="evenodd" d="M24.8071 17.8369V17.0988C24.8071 17.0988 25.4946 17.3089 25.4946 17.8369H24.8071Z" fill="#FFF100" stroke="black" stroke-width="0.00827291"/>
<path fill-rule="evenodd" clip-rule="evenodd" d="M29.3857 17.8369V17.0988C29.3857 17.0988 28.6983 17.3089 28.6983 17.8369H29.3857Z" fill="#FFF100" stroke="black" stroke-width="0.00827291"/>
<path fill-rule="evenodd" clip-rule="evenodd" d="M25.27 17.8369C25.27 17.3088 25.9575 16.9755 25.9575 16.9755C25.9575 16.9755 26.6449 17.3088 26.6449 17.8369H25.27Z" fill="#FFF100" stroke="black" stroke-width="0.00827291"/>
<path fill-rule="evenodd" clip-rule="evenodd" d="M27.5596 17.8369C27.5596 17.3088 28.247 16.9755 28.247 16.9755C28.247 16.9755 28.9345 17.3088 28.9345 17.8369H27.5596Z" fill="#FFF100" stroke="black" stroke-width="0.00827291"/>
<path fill-rule="evenodd" clip-rule="evenodd" d="M26.2993 17.8401C26.2993 17.3127 27.1019 16.8912 27.1019 16.8912C27.1019 16.8912 27.9038 17.3127 27.9038 17.8401H26.3H26.2993Z" fill="#FFF100" stroke="black" stroke-width="0.00827291"/>
<path fill-rule="evenodd" clip-rule="evenodd" d="M29.5051 17.8371C29.2787 17.7317 28.4437 17.6263 27.099 17.6263C25.7543 17.6263 24.8611 17.7317 24.6341 17.8371C24.4078 17.9424 24.4078 18.1538 24.6341 18.2591C24.8605 18.3645 25.755 18.4699 27.099 18.4699C28.443 18.4699 29.2787 18.3645 29.5051 18.2591C29.7314 18.1538 29.7314 17.9424 29.5051 17.8371Z" fill="white" stroke="black" stroke-width="0.00822608"/>
<path fill-rule="evenodd" clip-rule="evenodd" d="M29.3941 18.2599C29.3941 18.4699 27.4841 18.4699 27.0991 18.4699C26.6841 18.4699 24.8091 18.5299 24.8091 18.2599C24.8091 18.0499 26.6991 18.0499 27.0991 18.0499C27.4991 18.0499 29.3941 18.0899 29.3941 18.2599Z" fill="#808080"/>
<path fill-rule="evenodd" clip-rule="evenodd" d="M25.0391 17.4999C25.0391 17.5699 24.9891 17.6299 24.9241 17.6299C24.8591 17.6299 24.8091 17.5699 24.8091 17.4999C24.8091 17.4299 24.8591 17.3749 24.9241 17.3749C24.9841 17.3749 25.0391 17.4349 25.0391 17.4999ZM29.3891 17.4999C29.3891 17.5699 29.3391 17.6299 29.2741 17.6299C29.2141 17.6299 29.1591 17.5699 29.1591 17.4999C29.1591 17.4299 29.2091 17.3749 29.2741 17.3749C29.3391 17.3749 29.3891 17.4349 29.3891 17.4999Z" fill="#CC0000"/>
<path fill-rule="evenodd" clip-rule="evenodd" d="M27.3291 17.4399C27.3291 17.5049 27.2241 17.5599 27.0991 17.5599C26.9791 17.5599 26.8691 17.5049 26.8691 17.4349C26.8691 17.3649 26.9691 17.3099 27.0991 17.3099C27.2291 17.3099 27.3291 17.3699 27.3291 17.4349V17.4399Z" fill="black"/>
<path fill-rule="evenodd" clip-rule="evenodd" d="M28.4291 17.4399C28.4291 17.5049 28.3491 17.5599 28.2541 17.5599C28.1591 17.5599 28.0841 17.5049 28.0841 17.4349C28.0841 17.3649 28.1641 17.3099 28.2541 17.3099C28.3441 17.3099 28.4291 17.3699 28.4291 17.4349V17.4399ZM26.0691 17.4399C26.0691 17.5049 25.9941 17.5599 25.8991 17.5599C25.8041 17.5599 25.7241 17.5049 25.7241 17.4349C25.7241 17.3649 25.7991 17.3099 25.8991 17.3099C25.9941 17.3099 26.0691 17.3699 26.0691 17.4349V17.4399Z" fill="#006300"/>
<path fill-rule="evenodd" clip-rule="evenodd" d="M26.642 16.7124C26.642 16.7124 26.7728 16.5321 26.9039 16.5321H27.0347V16.6522C27.0347 16.8332 26.8385 16.8937 26.8385 16.8937H27.3621C27.3621 16.8937 27.1656 16.8332 27.1656 16.6522V16.5321H27.2967C27.4275 16.5321 27.5583 16.7131 27.5583 16.7131V16.2303C27.5583 16.2303 27.4275 16.4113 27.2967 16.4113H27.1656V16.2905C27.1656 16.1099 27.3621 16.0497 27.3621 16.0497H26.8382C26.8382 16.0497 27.0344 16.1099 27.0344 16.2905V16.4113H26.9036C26.7724 16.4113 26.6416 16.2303 26.6416 16.2303V16.7127L26.642 16.7124Z" fill="#FFF100" stroke="black" stroke-width="0.00780004"/>
<path fill-rule="evenodd" clip-rule="evenodd" d="M24.8027 17.0996H24.9338C24.9338 17.0996 24.8354 17.0469 24.8354 16.8886V16.7835H24.9009C24.9665 16.7835 25.0321 16.9419 25.0321 16.9419V16.5195C25.0321 16.5195 24.9665 16.6779 24.9009 16.6779H24.8354V16.5722C24.8354 16.4141 24.9338 16.3615 24.9338 16.3615H24.8027V17.0996Z" fill="#FFF100" stroke="black" stroke-width="0.00773959"/>
<path fill-rule="evenodd" clip-rule="evenodd" d="M29.395 17.0996H29.264C29.264 17.0996 29.3623 17.0469 29.3623 16.8886V16.7835H29.2969C29.2313 16.7835 29.1657 16.9419 29.1657 16.9419V16.5195C29.1657 16.5195 29.2313 16.6779 29.2969 16.6779H29.3623V16.5722C29.3623 16.4141 29.264 16.3615 29.264 16.3615H29.395V17.0996Z" fill="#FFF100" stroke="black" stroke-width="0.00773959"/>
<path fill-rule="evenodd" clip-rule="evenodd" d="M27.2172 16.4661C27.2172 16.494 27.2052 16.5208 27.1837 16.5406C27.1622 16.5604 27.1331 16.5715 27.1027 16.5715C27.0724 16.5715 27.0433 16.5604 27.0218 16.5406C27.0003 16.5208 26.9883 16.494 26.9883 16.4661C26.9883 16.4381 27.0003 16.4113 27.0218 16.3916C27.0433 16.3718 27.0724 16.3607 27.1027 16.3607C27.1331 16.3607 27.1622 16.3718 27.1837 16.3916C27.2052 16.4113 27.2172 16.4381 27.2172 16.4661Z" fill="white" stroke="black" stroke-width="0.00827291"/>
<path fill-rule="evenodd" clip-rule="evenodd" d="M26.642 14.4973C26.642 14.4973 26.7728 14.317 26.9039 14.317H27.0347V14.4371C27.0347 14.6181 26.8385 14.6786 26.8385 14.6786H27.3621C27.3621 14.6786 27.1656 14.6181 27.1656 14.4371V14.317H27.2967C27.4275 14.317 27.5583 14.498 27.5583 14.498V14.0152C27.5583 14.0152 27.4275 14.1962 27.2967 14.1962H27.1656V14.0755C27.1656 13.8948 27.3621 13.8346 27.3621 13.8346H26.8382C26.8382 13.8346 27.0344 13.8948 27.0344 14.0755V14.1962H26.9036C26.7724 14.1962 26.6416 14.0152 26.6416 14.0152V14.4976L26.642 14.4973Z" fill="#FFF100" stroke="black" stroke-width="0.00780004"/>
<path fill-rule="evenodd" clip-rule="evenodd" d="M27.227 14.271C27.227 14.299 27.2149 14.3258 27.1935 14.3455C27.172 14.3653 27.1429 14.3764 27.1125 14.3764C27.0822 14.3764 27.053 14.3653 27.0316 14.3455C27.0101 14.3258 26.998 14.299 26.998 14.271C26.998 14.2431 27.0101 14.2163 27.0316 14.1965C27.053 14.1768 27.0822 14.1656 27.1125 14.1656C27.1429 14.1656 27.172 14.1768 27.1935 14.1965C27.2149 14.2163 27.227 14.2431 27.227 14.271Z" fill="white" stroke="black" stroke-width="0.00827291"/>
<path fill-rule="evenodd" clip-rule="evenodd" d="M26.8737 14.6771H27.3322V14.9938H26.873L26.8737 14.6771Z" fill="#FFF100" stroke="black" stroke-width="0.00827291"/>
<path fill-rule="evenodd" clip-rule="evenodd" d="M26.8737 14.8427H27.3322V16.0481H26.873L26.8737 14.8427Z" fill="#FFF100" stroke="black" stroke-width="0.00827291"/>
<path fill-rule="evenodd" clip-rule="evenodd" d="M27.2128 15.8294C27.214 15.8439 27.2119 15.8585 27.2067 15.8723C27.2014 15.886 27.1932 15.8987 27.1824 15.9094C27.1716 15.92 27.1586 15.9286 27.1441 15.9344C27.1295 15.9402 27.1139 15.9433 27.098 15.9433C27.0822 15.9433 27.0665 15.9402 27.052 15.9344C27.0375 15.9286 27.0244 15.92 27.0136 15.9094C27.0029 15.8987 26.9946 15.886 26.9894 15.8723C26.9841 15.8585 26.982 15.8439 26.9832 15.8294C26.9854 15.8027 26.9984 15.7778 27.0197 15.7596C27.041 15.7414 27.069 15.7313 27.098 15.7313C27.1271 15.7313 27.155 15.7414 27.1763 15.7596C27.1976 15.7778 27.2106 15.8027 27.2128 15.8294Z" fill="white" stroke="black" stroke-width="0.00827291"/>
<path fill-rule="evenodd" clip-rule="evenodd" d="M27.2128 15.5593C27.214 15.5739 27.2119 15.5885 27.2067 15.6023C27.2014 15.616 27.1932 15.6286 27.1824 15.6393C27.1716 15.65 27.1586 15.6586 27.1441 15.6644C27.1295 15.6702 27.1139 15.6732 27.098 15.6732C27.0822 15.6732 27.0665 15.6702 27.052 15.6644C27.0375 15.6586 27.0244 15.65 27.0136 15.6393C27.0029 15.6286 26.9946 15.616 26.9894 15.6023C26.9841 15.5885 26.982 15.5739 26.9832 15.5593C26.9854 15.5327 26.9984 15.5078 27.0197 15.4896C27.041 15.4714 27.069 15.4613 27.098 15.4613C27.1271 15.4613 27.155 15.4714 27.1763 15.4896C27.1976 15.5078 27.2106 15.5327 27.2128 15.5593Z" fill="white" stroke="black" stroke-width="0.00827291"/>
<path fill-rule="evenodd" clip-rule="evenodd" d="M27.2128 15.3093C27.214 15.3239 27.2119 15.3385 27.2067 15.3523C27.2014 15.366 27.1932 15.3786 27.1824 15.3893C27.1716 15.4 27.1586 15.4086 27.1441 15.4144C27.1295 15.4202 27.1139 15.4232 27.098 15.4232C27.0822 15.4232 27.0665 15.4202 27.052 15.4144C27.0375 15.4086 27.0244 15.4 27.0136 15.3893C27.0029 15.3786 26.9946 15.366 26.9894 15.3523C26.9841 15.3385 26.982 15.3239 26.9832 15.3093C26.9854 15.2827 26.9984 15.2578 27.0197 15.2396C27.041 15.2214 27.069 15.2113 27.098 15.2113C27.1271 15.2113 27.155 15.2214 27.1763 15.2396C27.1976 15.2578 27.2106 15.2827 27.2128 15.3093Z" fill="white" stroke="black" stroke-width="0.00827291"/>
<path fill-rule="evenodd" clip-rule="evenodd" d="M27.2128 15.0442C27.214 15.0587 27.2119 15.0733 27.2067 15.0871C27.2014 15.1009 27.1932 15.1135 27.1824 15.1242C27.1716 15.1349 27.1586 15.1434 27.1441 15.1493C27.1295 15.1551 27.1139 15.1581 27.098 15.1581C27.0822 15.1581 27.0665 15.1551 27.052 15.1493C27.0375 15.1434 27.0244 15.1349 27.0136 15.1242C27.0029 15.1135 26.9946 15.1009 26.9894 15.0871C26.9841 15.0733 26.982 15.0587 26.9832 15.0442C26.9854 15.0175 26.9984 14.9926 27.0197 14.9744C27.041 14.9563 27.069 14.9462 27.098 14.9462C27.1271 14.9462 27.155 14.9563 27.1763 14.9744C27.1976 14.9926 27.2106 15.0175 27.2128 15.0442Z" fill="white" stroke="black" stroke-width="0.00827291"/>
<path fill-rule="evenodd" clip-rule="evenodd" d="M27.3437 17.84C27.3437 17.89 27.2387 17.925 27.1037 17.925C26.9687 17.925 26.8787 17.89 26.8787 17.84C26.8787 17.79 26.9787 17.755 27.1087 17.755C27.2387 17.755 27.3437 17.795 27.3437 17.84ZM29.4487 18.05C29.4337 18.085 29.3187 18.09 29.1937 18.05C29.0637 18.025 28.9737 17.98 28.9837 17.95C28.9987 17.91 29.1137 17.91 29.2387 17.94C29.3687 17.97 29.4587 18.015 29.4487 18.05ZM28.5637 17.91C28.5637 17.95 28.4487 17.975 28.3137 17.97C28.1887 17.96 28.0837 17.92 28.0887 17.87C28.0937 17.83 28.2087 17.81 28.3387 17.82C28.4687 17.825 28.5737 17.865 28.5637 17.91ZM24.6887 18.05C24.6987 18.085 24.8137 18.09 24.9387 18.05C25.0687 18.025 25.1637 17.98 25.1487 17.95C25.1337 17.91 25.0237 17.91 24.8987 17.94C24.7687 17.97 24.6787 18.015 24.6887 18.05ZM25.6137 17.89C25.6187 17.93 25.7337 17.955 25.8637 17.945C25.9937 17.935 26.0987 17.895 26.0887 17.85C26.0887 17.815 25.9737 17.785 25.8387 17.795C25.7137 17.805 25.6087 17.845 25.6137 17.89Z" fill="black"/>
<path d="M0 0H16V12H0V0Z" fill="#012169"/>
<path d="M1.875 0L7.975 4.525L14.05 0H16V1.55L10 6.025L16 10.475V12H14L8 7.525L2.025 12H0V10.5L5.975 6.05L0 1.6V0H1.875Z" fill="white"/>
<path d="M10.6 7.025L16 11V12L9.225 7.025H10.6ZM6 7.525L6.15 8.4L1.35 12H0L6 7.525ZM16 0V0.075L9.775 4.775L9.825 3.675L14.75 0H16ZM0 0L5.975 4.4H4.475L0 1.05V0Z" fill="#C8102E"/>
<path d="M6.025 0V12H10.025V0H6.025ZM0 4V8H16V4H0Z" fill="white"/>
<path d="M0 4.825V7.225H16V4.825H0ZM6.825 0V12H9.225V0H6.825Z" fill="#C8102E"/>
</g>
<defs>
<clipPath id="clip0_11930_68028">
<rect width="36" height="24" rx="2" fill="white"/>
</clipPath>
</defs>
</svg>
