<svg width="36" height="24" viewBox="0 0 36 24" fill="none" xmlns="http://www.w3.org/2000/svg">
<g clip-path="url(#clip0_11930_68057)">
<path d="M0 8H36V16H0V8Z" fill="white"/>
<path d="M0 0H36V8H0V0Z" fill="#CE1126"/>
<path d="M0 16H36V24H0V16Z" fill="#000001"/>
<path d="M21.6686 10.5307C21.623 10.5088 21.5815 10.4792 21.546 10.4431C21.5197 10.3993 21.5372 10.3993 21.6511 10.4256C21.8525 10.4869 21.9839 10.4606 22.1153 10.3555L22.2292 10.2592L22.3606 10.3205C22.4394 10.3643 22.5182 10.3906 22.5357 10.3818C22.597 10.3643 22.7197 10.2066 22.7109 10.1541C22.7109 10.0927 22.7635 10.1103 22.7985 10.1803C22.8511 10.3205 22.7722 10.4869 22.6233 10.5219C22.562 10.5395 22.5007 10.5307 22.3956 10.4957C22.273 10.4519 22.2467 10.4519 22.1854 10.4957C22.112 10.5511 22.024 10.584 21.9322 10.5902C21.8404 10.5964 21.7488 10.5758 21.6686 10.5307Z" fill="#007A3D"/>
<path d="M22.1766 10.0665C22.1173 9.95934 22.0871 9.83854 22.089 9.71611C22.0978 9.66355 22.1153 9.64603 22.1591 9.66355C22.2467 9.68983 22.2642 9.75114 22.2467 9.92632C22.2467 10.084 22.2204 10.1278 22.1766 10.0665Z" fill="#007A3D"/>
<path d="M16.2555 9.90005C16.2552 9.90285 16.2552 9.90575 16.2552 9.90875C15.8951 10.2572 15.4993 10.6229 15.2446 10.8583C15.1105 10.9822 15.0154 11.07 14.9854 11.1C14.1969 11.8885 14.1109 11.9812 14.0141 12.0856L13.9693 12.1336V12.6592H17.0963C17.1712 12.6592 17.1671 12.5367 17.1627 12.408C17.1579 12.2658 17.1528 12.1161 17.254 12.1161C17.4236 12.1161 17.4108 12.3954 17.3995 12.6414C17.3968 12.7003 17.3941 12.7573 17.3941 12.8081L13.3562 12.8168V11.976C13.0146 12.2562 12.9796 12.2825 12.7781 12.3614C12.9358 12.3964 12.9445 12.6416 12.927 12.8519L12.8374 12.855C12.3063 12.874 11.6503 12.8976 11.8409 12.3176C11.6552 12.4557 11.4481 12.5622 11.2277 12.6329C11.2523 12.6783 11.2785 12.724 11.3053 12.7706C11.4697 13.057 11.6534 13.3771 11.5781 13.8592C11.5123 14.0182 11.3709 14.1052 11.2314 14.191C11.1481 14.2422 11.0655 14.293 11 14.3584C11.114 14.3924 11.2339 14.402 11.3518 14.3867C11.4698 14.3714 11.5832 14.3315 11.6848 14.2695C11.7863 14.2076 11.8737 14.125 11.9414 14.0272C12.009 13.9293 12.0553 13.8184 12.0774 13.7015H17.9022V12.1599C17.871 11.9466 17.7254 11.8662 17.5811 11.7864C17.4825 11.732 17.3845 11.6778 17.3241 11.5818C17.2519 11.6221 17.1714 11.6542 17.091 11.6864C16.8397 11.7867 16.5883 11.887 16.5883 12.2387C15.9489 12.265 15.1956 12.2913 14.5124 12.2738C14.6944 12.0358 15.5362 11.2051 16.0459 10.7021C16.1742 10.5756 16.2814 10.4697 16.3518 10.3993C16.3829 10.386 16.4185 10.3817 16.4552 10.3772C16.4908 10.3729 16.5275 10.3685 16.562 10.3555C16.468 10.3043 16.2574 10.028 16.2552 9.90875L16.2642 9.90005H16.2555Z" fill="#007A3D"/>
<path d="M24.0598 9.87377C24.1267 9.9112 24.1894 9.95189 24.2518 9.99237C24.3939 10.0845 24.5342 10.1754 24.7168 10.2241C24.7036 10.2811 24.6708 10.3205 24.6379 10.3599C24.6051 10.3993 24.5722 10.4387 24.5591 10.4957V12.8606C24.7811 12.9063 24.8766 12.8206 24.9688 12.7377C25.0003 12.7094 25.0315 12.6815 25.0671 12.6592C25.0836 12.8361 25.1464 13.0112 25.2067 13.1788C25.2746 13.368 25.3392 13.5477 25.3299 13.7103H24.0598V9.87377Z" fill="#007A3D"/>
<path fill-rule="evenodd" clip-rule="evenodd" d="M22.3606 11.1438C22.3606 11.1438 22.8248 10.7497 22.8248 10.7322V12.7906H23.1576L23.1489 10.4869C23.1946 10.4381 23.2574 10.3829 23.3223 10.3258C23.4439 10.2189 23.5731 10.1053 23.6131 10.0139V13.6927H20.6876C20.6438 12.9307 20.635 12.1424 21.5284 12.3088V12.0022C21.5162 11.9778 21.4984 11.978 21.4818 11.9781C21.4628 11.9783 21.4455 11.9784 21.4408 11.9409C21.5635 11.8183 21.6124 11.7761 21.8811 11.5443L22.0102 11.4329L22.0189 12.7906H22.3606V11.1438ZM21.2569 12.773C21.3182 12.8606 21.5372 12.8606 21.5197 12.703C21.4934 12.5716 21.2131 12.6154 21.2569 12.773Z" fill="#007A3D"/>
<path d="M12.7777 14.3147C12.8745 14.3147 12.9529 14.2363 12.9529 14.1395C12.9529 14.0428 12.8745 13.9644 12.7777 13.9644C12.681 13.9644 12.6025 14.0428 12.6025 14.1395C12.6025 14.2363 12.681 14.3147 12.7777 14.3147Z" fill="#007A3D"/>
<path d="M18.5086 10.0102C18.4393 9.96546 18.3703 9.92102 18.2964 9.88257V13.7103H19.5752C19.5799 13.5525 19.5157 13.3726 19.4477 13.1823C19.3875 13.0134 19.3243 12.8363 19.3037 12.6592C19.2697 12.6826 19.2403 12.7101 19.2111 12.7375C19.1199 12.8229 19.03 12.9071 18.8044 12.8607V10.4957C18.8184 10.435 18.8524 10.3942 18.8863 10.3534C18.916 10.3177 18.9457 10.282 18.9621 10.2329C18.7822 10.1865 18.6447 10.0978 18.5086 10.0102Z" fill="#007A3D"/>
</g>
<defs>
<clipPath id="clip0_11930_68057">
<rect width="36" height="24" rx="2" fill="white"/>
</clipPath>
</defs>
</svg>
