<svg width="36" height="24" viewBox="0 0 36 24" fill="none" xmlns="http://www.w3.org/2000/svg">
<g clip-path="url(#clip0_11930_68052)">
<rect width="36" height="24" rx="2" fill="white"/>
<path fill-rule="evenodd" clip-rule="evenodd" d="M0 16.1156H36V24H0V16.1156Z" fill="#DA0000"/>
<path fill-rule="evenodd" clip-rule="evenodd" d="M0 0H36V7.88438H0V0Z" fill="#239F40"/>
<path d="M-2.31543 16.4531H-4.6123V16.6078H-2.31543V16.4531Z" fill="white"/>
<path d="M-4.11074 17.2406H-4.27012V17.3953H-4.11074V17.2406Z" fill="white"/>
<path d="M-2.30137 17.3953V17.2406L-2.60625 17.2375V16.9875H-2.05762V17.3906H-2.01562V17.3954H-1.14375V17.3906H-1.11572V16.4531H-1.27041V17.236H-1.50947V16.4531H-1.66885V17.236H-1.89824V16.4531H-2.05762V16.8281H-2.76572V17.3907L-2.76562 17.3954L-2.30137 17.3953Z" fill="white"/>
<path d="M-0.790283 16.4531H1.50659V16.6078H-0.790283V16.4531Z" fill="white"/>
<path d="M-0.448096 17.2406H-0.288721V17.3953H-0.452783L-0.448096 17.2406Z" fill="white"/>
<path d="M1.51597 17.2406V17.3953L1.0564 17.3954V16.9875H1.0519V16.8281H1.75972V16.4531H1.91909V17.236H2.15347V16.4531H2.30815V17.236H2.54722V16.4531H2.70659V17.3906H2.67827V17.3954H1.8064V17.3906H1.75972V16.9875H1.21147V17.2375L1.51597 17.2406Z" fill="white"/>
<path d="M2.99268 16.4531H5.28955V16.6078H2.99268V16.4531Z" fill="white"/>
<path d="M3.33486 17.2406H3.49424V17.3953H3.33486V17.2406Z" fill="white"/>
<path d="M5.29893 17.2406V17.3953L4.83496 17.3954L4.83857 16.9875H4.83486V16.8281H5.54268V16.4531H5.70205V17.236H5.93643V16.4531H6.09111V17.236H6.33018V16.4531H6.48955V17.3906H6.46152V17.3954H5.58965V17.3906H5.54268V16.9875H4.98975V17.2375L5.29893 17.2406Z" fill="white"/>
<path d="M3.83643 16.8281L3.83662 17.2359H4.34756V16.9875H4.05225V16.8281H4.50225V16.8704H4.50693V17.3907H4.45537V17.3953H3.74756V17.3907H3.67725V16.9875H3.15225V17.3907H2.99756V16.9875H2.99268V16.8281H3.83643Z" fill="white"/>
<path d="M0.0534668 16.8281H-0.790283V16.9875H-0.7854V17.3907H-0.630713V16.9875H-0.105713V17.3907H-0.0310059V17.3953H0.672119V17.3907H0.719287V16.8704L0.718994 16.8281H0.268994V16.9875H0.5646V17.2359H0.0536623L0.0534668 16.8281Z" fill="white"/>
<path d="M9.03003 16.4531H6.73315V16.6078H9.03003V16.4531Z" fill="white"/>
<path d="M7.23472 17.2406H7.07534V17.3953H7.23472V17.2406Z" fill="white"/>
<path d="M9.0394 17.3953V17.2406L8.7396 17.2376V16.9875H9.28784V17.3906H9.32983V17.3954H10.2017V17.3906H10.23V16.4531H10.0707V17.236H9.83628V16.4531H9.6769L9.67299 17.236H9.44722V16.4531H9.28784V16.8281H8.57534V16.9875H8.57983V17.3954L9.0394 17.3953Z" fill="white"/>
<path d="M7.5769 16.8281L7.5771 17.2359H8.08804V16.9875H7.79741V16.8281H8.24741V17.3907H8.20054V17.3953H7.48804V17.3907H7.41772V16.9875H6.89741V17.3907H6.73804V16.9875H6.73315V16.8281H7.5769Z" fill="white"/>
<path d="M33.1924 16.4531H35.4893V16.6078H33.1924V16.4531Z" fill="white"/>
<path d="M33.5346 17.2406H33.6939V17.3953H33.5346V17.2406Z" fill="white"/>
<path d="M35.4986 17.2406V17.3953L35.0347 17.3954L35.0346 17.3907L35.0343 16.8704L35.0346 16.8281H35.7452L35.7471 16.4531H35.9018V17.236H36.1361V16.4531H36.2955V17.236H36.5307L36.5346 16.4531H36.6893V17.3906H36.6612V17.3954H35.7847V17.3906H35.7424L35.7444 16.9875H35.1987V17.2376L35.4986 17.2406Z" fill="white"/>
<path d="M34.0361 16.8281V16.9875L34.0358 17.2359H34.5468V16.9875H34.2562V16.8281H34.7062V17.3907H34.6593V17.3953H33.9468V17.3907H33.8765V16.9875H33.3562V17.3907H33.1968V16.9875H33.1924V16.8281H34.0361Z" fill="white"/>
<path d="M12.8064 16.4531H10.5049L10.5096 16.6078H12.8064V16.4531Z" fill="white"/>
<path d="M11.0064 17.2406H10.8518V17.3953H11.0064V17.2406Z" fill="white"/>
<path d="M12.8111 17.3953V17.2406L12.5109 17.2376V16.9875H13.0596V17.3906H13.1062V17.3954H13.9781V17.3906H14.0062V16.4531H13.8468V17.236H13.6077V16.4531H13.4483V17.236H13.2189V16.4531H13.0596V16.8281H12.3515V17.3907L12.3516 17.3954L12.8111 17.3953Z" fill="white"/>
<path d="M11.3483 16.8281H10.5093V17.3907H10.6687V16.9875H11.1937V17.3907H11.2642V17.3953H11.972V17.3907H12.0187V16.9875L12.0188 16.8281H11.5688V16.9875H11.8593V17.2359H11.3483V16.8281Z" fill="white"/>
<path d="M14.2908 16.4531H16.5876V16.6078H14.2908V16.4531Z" fill="white"/>
<path d="M14.633 17.2406H14.7923V17.3953H14.633V17.2406Z" fill="white"/>
<path d="M16.597 17.2406V17.3953H16.1376L16.1377 16.9875H16.133V16.8281H16.8455V16.4531H17.0001V17.2359H17.2345V16.4531H17.3939V17.2359H17.6283V16.4531H17.7876V17.3906H17.7596V17.3953H16.8877V17.3906H16.8455V16.9875H16.2972V17.2376L16.597 17.2406Z" fill="white"/>
<path d="M15.1345 16.8281H14.2908V16.9875H14.2957V17.3906H14.4503V16.9875H14.9743L14.9707 17.3906H15.0457V17.3953H15.7582V17.3906H15.805V16.8281H15.3457V16.9875H15.6457V17.2359H15.1347L15.1345 16.8281Z" fill="white"/>
<path d="M20.3955 16.4531H18.0986V16.6078H20.3955V16.4531Z" fill="white"/>
<path d="M18.6002 17.2406H18.4408V17.3953H18.6002V17.2406Z" fill="white"/>
<path d="M20.4049 17.3953V17.2406L20.105 17.2376V16.9875H20.6533V17.3906H20.6956V17.3954H21.5675V17.3906H21.5955V16.4531H21.4408V17.236H21.2018V16.4531H21.0424V17.236H20.808V16.4531H20.6533V16.8281H19.9408L19.9405 17.3907L19.9408 17.3953H20.4049Z" fill="white"/>
<path d="M18.9424 16.9875V16.8281H18.0986V16.9875H18.103V17.3907H18.2624V16.9875H18.7827V17.3907H18.853V17.3953H19.5655V17.3907H19.6124V16.8281H19.1624V16.9875H19.453V17.2359H18.9421L18.9424 16.9875Z" fill="white"/>
<path d="M21.8833 16.4531H24.1802V16.6078H21.8833V16.4531Z" fill="white"/>
<path d="M22.2255 17.2406H22.3849V17.3953H22.2255V17.2406Z" fill="white"/>
<path d="M24.1942 17.2406V17.3953L23.7305 17.3954L23.7302 17.2359L23.7304 16.8281H24.438V16.4531H24.5974V17.236H24.8272V16.4531H24.9866V17.236H25.2257V16.4531H25.3804V17.3906H25.3523V17.3954H24.4805V17.3906H24.438V16.9875H23.8898V17.2376L24.1942 17.2406Z" fill="white"/>
<path d="M22.7272 16.8281V17.2359H23.2382V16.9875H22.9426V16.8281H23.3973L23.3976 17.3907H23.3504V17.3953H22.6426V17.3907H22.5726L22.5689 16.9875H22.0476V17.3907H21.8882V16.8281H22.7272Z" fill="white"/>
<path d="M27.9658 16.4531H25.6689V16.6078H27.9658V16.4531Z" fill="white"/>
<path d="M26.1705 17.2406H26.0111V17.3953H26.1705V17.2406Z" fill="white"/>
<path d="M27.9752 17.3953V17.2406L27.6706 17.2375V16.9875H28.2189V17.3906H28.2659V17.3954H29.1378V17.3906H29.1658V16.4531H29.0064V17.236H28.7674V16.4531H28.6127V17.236H28.3783V16.4531H28.2189V16.8281H27.5111L27.5112 17.3954L27.9752 17.3953Z" fill="white"/>
<path d="M26.5127 16.8281H25.6689V17.3907H25.8283V16.9875H26.3533V17.3907H26.4233V17.3953H27.1312V17.3907H27.1783V16.8704L27.178 16.8281H26.728V16.9875H27.0236V17.2359H26.5127V16.8281Z" fill="white"/>
<path d="M29.4771 16.4531H31.7739V16.6078H29.4771V16.4531Z" fill="white"/>
<path d="M29.8192 17.2406H29.9786V17.3953H29.8192V17.2406Z" fill="white"/>
<path d="M31.7833 17.2406V17.3953L31.3242 17.3954L31.3239 17.2359L31.3241 16.9875H31.3192V16.8281H32.0271V16.4531H32.1864V17.236H32.4208V16.4531H32.5755V17.236H32.8145V16.4531H32.9739V17.3906H32.9461V17.3954H32.0742V17.3906H32.0271V16.9875H31.4789V17.2375L31.7833 17.2406Z" fill="white"/>
<path d="M30.3208 16.8281H29.4771V16.9875H29.4819V17.3907H29.6366V16.9875H30.1616V17.3907H30.2319V17.3953H30.9397V17.3907H30.9913V16.8704H30.9866V16.8281H30.5366V16.9875H30.8319V17.2359H30.321L30.3208 16.8281Z" fill="white"/>
<path d="M-3.76885 16.8281H-4.60791V17.3907H-4.44854V16.9875H-3.92822V17.3907H-3.85791V17.3953H-3.14541V17.3907H-3.09854V16.8281H-3.54854V16.9875H-3.25791V17.2359H-3.76885V16.8281Z" fill="white"/>
<path d="M-2.31543 6.7218H-4.6123V6.88118H-2.31543V6.7218Z" fill="white"/>
<path d="M-4.11074 7.51868H-4.27012V7.66868H-4.11074V7.51868Z" fill="white"/>
<path d="M-2.30137 7.66868V7.5093H-2.60625V7.25618H-2.05762V7.66868L-1.14375 7.66873L-1.11572 7.66868V6.7218H-1.27041V7.50935H-1.50947V6.7218H-1.66885V7.50935H-1.89824V6.7218H-2.05762V7.09753L-2.76572 7.10149V7.66873L-2.30137 7.66868Z" fill="white"/>
<path d="M-0.790283 6.7218H1.50659V6.88118H-0.790283V6.7218Z" fill="white"/>
<path d="M-0.448096 7.51868H-0.288721V7.66868H-0.452783L-0.448096 7.51868Z" fill="white"/>
<path d="M1.51597 7.5093V7.66868L1.05679 7.66873L1.0564 7.25618H1.0519V7.10149L1.75972 7.09756V6.7218H1.91909V7.50935H2.15347V6.7218H2.30815V7.50935H2.54722V6.7218H2.70659V7.66868L1.8064 7.66873L1.75972 7.66868V7.25618H1.21147V7.5093H1.51597Z" fill="white"/>
<path d="M2.99268 6.7218H5.28955V6.88118H2.99268V6.7218Z" fill="white"/>
<path d="M3.33486 7.51868H3.49424V7.66868H3.33486V7.51868Z" fill="white"/>
<path d="M5.29893 7.5093V7.66868L4.83506 7.66873L4.83861 7.25618H4.83486V7.10149L5.54268 7.09756V6.7218H5.70205V7.50935H5.93643V6.7218H6.09111V7.50935H6.33018V6.7218H6.48955V7.66868L5.58965 7.66873L5.54268 7.66868V7.25618H4.98975V7.5093H5.29893Z" fill="white"/>
<path d="M3.83643 7.0968L3.83662 7.50925H4.34756V7.25613H4.05225V7.10144H4.50225V7.13904H4.50693V7.66873H3.67725V7.25618H3.15225V7.66873H2.99756V7.25618H2.99268V7.10149L3.83643 7.0968Z" fill="white"/>
<path d="M0.0534668 7.0968L-0.790283 7.10149V7.25618H-0.7854V7.66873H-0.630713V7.25618H-0.105713V7.66873H0.719287V7.13904L0.718994 7.10144H0.268994V7.25613H0.5646V7.50925H0.0536623L0.0534668 7.0968Z" fill="white"/>
<path d="M9.03003 6.7218H6.73315V6.88118H9.03003V6.7218Z" fill="white"/>
<path d="M7.23472 7.51868H7.07534V7.66868H7.23472V7.51868Z" fill="white"/>
<path d="M9.0394 7.66868V7.5093H8.7396V7.25618H9.28784V7.66868L10.2017 7.66873L10.23 7.66868V6.7218H10.0707V7.50935H9.83628V6.7218H9.6769L9.67301 7.50935H9.44722V6.7218H9.28784V7.09753L8.57534 7.10149V7.25618H8.57983V7.66873L9.0394 7.66868Z" fill="white"/>
<path d="M7.5769 7.0968L7.5771 7.50925H8.08804V7.25613H7.79741V7.10144H8.24741V7.66873H7.41772V7.25618H6.89741V7.66873H6.73804V7.25618H6.73315V7.10149L7.5769 7.0968Z" fill="white"/>
<path d="M33.1924 6.7218H35.4893V6.88118H33.1924V6.7218Z" fill="white"/>
<path d="M33.5346 7.51868H33.6939V7.66868H33.5346V7.51868Z" fill="white"/>
<path d="M35.4986 7.5093V7.66868L35.0347 7.66873L35.0343 7.13904L35.0346 7.10149L35.7452 7.09754L35.7471 6.7218H35.9018V7.50935H36.1361V6.7218H36.2955V7.50935H36.5307L36.5346 6.7218H36.6893V7.66868L35.7847 7.66873L35.7424 7.66868L35.7444 7.25618H35.1987V7.5093H35.4986Z" fill="white"/>
<path d="M34.0361 7.0968V7.25618L34.0358 7.50925H34.5468V7.25613H34.2562V7.10144H34.7062V7.66873H33.8765V7.25618H33.3562V7.66873H33.1968V7.25618H33.1924V7.10149L34.0361 7.0968Z" fill="white"/>
<path d="M12.8064 6.7218H10.5049L10.5096 6.88118H12.8064V6.7218Z" fill="white"/>
<path d="M11.0064 7.51868H10.8518V7.66868H11.0064V7.51868Z" fill="white"/>
<path d="M12.8111 7.66868V7.5093H12.5109V7.25618H13.0596V7.66868L13.9781 7.66873L14.0062 7.66868V6.7218H13.8468V7.50935H13.6077V6.7218H13.4483V7.50935H13.2189V6.7218H13.0596V7.09753L12.3515 7.10149V7.66873L12.8111 7.66868Z" fill="white"/>
<path d="M11.3483 7.0968L10.5093 7.10149V7.66873H10.6687V7.25618H11.1937V7.66873H12.0187V7.25613L12.0188 7.10144H11.5688V7.25613H11.8593V7.50925H11.3483V7.0968Z" fill="white"/>
<path d="M14.2908 6.7218H16.5876V6.88118H14.2908V6.7218Z" fill="white"/>
<path d="M14.633 7.51868H14.7923V7.66868H14.633V7.51868Z" fill="white"/>
<path d="M16.597 7.5093V7.66868L16.1378 7.66873L16.1376 7.5093L16.1377 7.25618H16.133V7.10149L16.8455 7.09753V6.7218H17.0001V7.50935H17.2345V6.7218H17.3939V7.50935H17.6283V6.7218H17.7876V7.66868L16.8877 7.66873L16.8455 7.66868V7.25618H16.2972V7.5093H16.597Z" fill="white"/>
<path d="M15.1345 7.0968L14.2908 7.10149V7.25618H14.2957V7.66873H14.4503V7.25618H14.9743L14.9707 7.66873H15.805V7.10156H15.3457V7.25625H15.6457V7.50937H15.1347L15.1345 7.0968Z" fill="white"/>
<path d="M20.3955 6.7218H18.0986V6.88118H20.3955V6.7218Z" fill="white"/>
<path d="M18.6002 7.51868H18.4408V7.66868H18.6002V7.51868Z" fill="white"/>
<path d="M20.4049 7.66868V7.5093H20.105V7.25618H20.6533V7.66868L21.5675 7.66873L21.5955 7.66868V6.7218H21.4408V7.50935H21.2018V6.7218H21.0424V7.50935H20.808V6.7218H20.6533V7.09753L19.9408 7.10149L19.9405 7.66873L20.4049 7.66868Z" fill="white"/>
<path d="M18.9424 7.25618V7.0968L18.0986 7.10149V7.25618H18.103V7.66873H18.2624V7.25618H18.7827V7.66873H19.6124V7.10144H19.1624V7.25613H19.453V7.50925H18.9421L18.9424 7.25618Z" fill="white"/>
<path d="M21.8833 6.7218H24.1802V6.88118H21.8833V6.7218Z" fill="white"/>
<path d="M22.2255 7.51868H22.3849V7.66868H22.2255V7.51868Z" fill="white"/>
<path d="M24.1942 7.5093V7.66868L23.7305 7.66873L23.7302 7.5093L23.7304 7.10149L24.438 7.09754V6.7218H24.5974V7.50935H24.8272V6.7218H24.9866V7.50935H25.2257V6.7218H25.3804V7.66868L24.4805 7.66873L24.438 7.66868V7.25618H23.8898V7.5093H24.1942Z" fill="white"/>
<path d="M22.7272 7.0968V7.50925H23.2382V7.25613H22.9426V7.10144H23.3973L23.3976 7.66873H22.5726L22.5689 7.25618H22.0476V7.66873H21.8882V7.10149L22.7272 7.0968Z" fill="white"/>
<path d="M27.9658 6.7218H25.6689V6.88118H27.9658V6.7218Z" fill="white"/>
<path d="M26.1705 7.51868H26.0111V7.66868H26.1705V7.51868Z" fill="white"/>
<path d="M27.9752 7.66868V7.5093H27.6706V7.25618H28.2189V7.66868L29.1378 7.66873L29.1658 7.66868V6.7218H29.0064V7.50935H28.7674V6.7218H28.6127V7.50935H28.3783V6.7218H28.2189V7.09756L27.5111 7.10149L27.5112 7.66873L27.9752 7.66868Z" fill="white"/>
<path d="M26.5127 7.0968L25.6689 7.10149V7.66873H25.8283V7.25618H26.3533V7.66873H27.1783V7.13904L27.178 7.10144H26.728V7.25613H27.0236V7.50925H26.5127V7.0968Z" fill="white"/>
<path d="M29.4771 6.7218H31.7739V6.88118H29.4771V6.7218Z" fill="white"/>
<path d="M29.8192 7.51868H29.9786V7.66868H29.8192V7.51868Z" fill="white"/>
<path d="M31.7833 7.5093V7.66868L31.3242 7.66873L31.3239 7.5093L31.3241 7.25618H31.3192V7.10149L32.0271 7.09756V6.7218H32.1864V7.50935H32.4208V6.7218H32.5755V7.50935H32.8145V6.7218H32.9739V7.66868L32.0742 7.66873L32.0271 7.66868V7.25618H31.4789V7.5093H31.7833Z" fill="white"/>
<path d="M30.3208 7.0968L29.4771 7.10149V7.25618H29.4819V7.66873H29.6366V7.25618H30.1616V7.66873H30.9913V7.13904H30.9866V7.10144H30.5366V7.25613H30.8319V7.50925H30.321L30.3208 7.0968Z" fill="white"/>
<path d="M-3.76885 7.0968L-4.60791 7.10149V7.66873H-4.44854V7.25618H-3.92822V7.66873H-3.09854V7.10144H-3.54854V7.25613H-3.25791V7.50925H-3.76885V7.0968Z" fill="white"/>
<path fill-rule="evenodd" clip-rule="evenodd" d="M0.776709 15.9141H1.05796V16.4062H0.776709V15.9141ZM8.30015 15.9141H8.5814V16.4062H8.30015V15.9141ZM-4.99829 15.9141H-4.71704V16.4062H-4.99829V15.9141ZM-1.17798 15.9141H-0.896729V16.4062H-1.17798V15.9141ZM2.61421 15.9141H2.89546V16.4062H2.61421V15.9141ZM4.48921 15.9141H4.77046V16.4062H4.48921V15.9141ZM6.4064 15.9141H6.68765V16.4062H6.4064V15.9141ZM10.1751 15.9141H10.4564V16.4062H10.1751V15.9141ZM19.6908 15.9141H19.9767V16.4062H19.6955L19.6908 15.9141ZM12.0923 15.9141H12.3736V16.4062H12.0923V15.9141ZM13.9673 15.9141H14.2486V16.4062H13.9673V15.9141ZM15.8658 15.9141H16.147V16.4062H15.8658V15.9141ZM17.7595 15.9141H18.0408V16.4062H17.7595V15.9141ZM32.9095 15.9141H33.1908V16.4062H32.9095V15.9141ZM21.533 15.9141H21.8142V16.4062H21.533V15.9141ZM23.4455 15.9141H23.7267V16.4062H23.4455V15.9141ZM25.3814 15.9141H25.6626V16.4062H25.3814V15.9141ZM27.2001 15.9141H27.4814V16.4062H27.2001V15.9141ZM29.1361 15.9141H29.4173V16.4062H29.1361V15.9141ZM31.0298 15.9141H31.3111V16.4062H31.0298V15.9141ZM36.6408 15.9141H36.922V16.4062H36.6408V15.9141ZM34.822 15.9141H35.1033V16.4062H34.822V15.9141ZM-3.09517 15.9141H-2.81392V16.4062H-3.09517V15.9141Z" fill="#D90000"/>
<path fill-rule="evenodd" clip-rule="evenodd" d="M0.776709 7.62183H1.05796V8.11401H0.776709V7.62183ZM8.30015 7.62183H8.5814V8.11401H8.30015V7.62183ZM-4.99829 7.62183H-4.71704V8.11401H-4.99829V7.62183ZM-1.17798 7.62183H-0.896729V8.11401H-1.17798V7.62183ZM2.61421 7.62183H2.89546V8.11401H2.61421V7.62183ZM4.48921 7.62183H4.77046V8.11401H4.48921V7.62183ZM6.4064 7.62183H6.68765V8.11401H6.4064V7.62183ZM10.1751 7.62183H10.4564V8.11401H10.1751V7.62183ZM19.6908 7.62183H19.9767V8.11401H19.6955L19.6908 7.62183ZM12.0923 7.62183H12.3736V8.11401H12.0923V7.62183ZM13.9673 7.62183H14.2486V8.11401H13.9673V7.62183ZM15.8658 7.62183H16.147V8.11401H15.8658V7.62183ZM17.7595 7.62183H18.0408V8.11401H17.7595V7.62183ZM32.9095 7.62183H33.1908V8.11401H32.9095V7.62183ZM21.533 7.62183H21.8142V8.11401H21.533V7.62183ZM23.4455 7.62183H23.7267V8.11401H23.4455V7.62183ZM25.3814 7.62183H25.6626V8.11401H25.3814V7.62183ZM27.2001 7.62183H27.4814V8.11401H27.2001V7.62183ZM29.1361 7.62183H29.4173V8.11401H29.1361V7.62183ZM31.0298 7.62183H31.3111V8.11401H31.0298V7.62183ZM36.6408 7.62183H36.922V8.11401H36.6408V7.62183ZM34.822 7.62183H35.1033V8.11401H34.822V7.62183ZM-3.09517 7.62183H-2.81392V8.11401H-3.09517V7.62183Z" fill="#239E3F"/>
<path d="M20.2334 14.9577C19.7504 14.9642 19.1822 14.9169 18.6621 14.7739C19.9001 13.8916 20.3206 12.8093 20.3086 11.8264C20.2992 10.6827 19.6898 9.67019 19.0898 9.25769C19.4828 9.74428 20.7024 12.4164 18.367 14.179L18.41 9.49216L17.974 9.10779L17.5381 9.47341L17.6123 14.2024C17.6065 14.1979 17.6006 14.1934 17.5946 14.1889C15.2415 12.4264 16.4649 9.74519 16.8586 9.25769C16.2586 9.67019 15.6493 10.6827 15.6399 11.8264C15.6278 12.814 16.0524 13.9021 17.3043 14.7866C16.7972 14.9197 16.2487 14.964 15.7803 14.9577C16.2076 15.1916 17.0148 15.1363 17.6261 15.0776L17.6271 15.1453L17.9928 15.5437L18.3584 15.1219L18.3588 15.0749C18.9733 15.1345 19.7993 15.1953 20.2334 14.9577Z" fill="#DA0000"/>
<path d="M17.06 8.45618C17.2006 8.83118 17.5709 8.88743 17.9646 8.66711C18.2553 8.83586 18.7006 8.84993 18.8553 8.47493C18.9725 9.40305 17.9975 9.17805 17.9646 8.99993C17.599 9.35149 16.924 9.14993 17.06 8.45618Z" fill="#DA0000"/>
<path d="M19.3243 9.13123C19.7592 9.39586 20.1298 9.75384 20.4095 10.1793C20.6891 10.6047 20.8707 11.087 20.9411 11.5912C21.0115 12.0954 20.969 12.6089 20.8167 13.0947C20.6643 13.5805 20.406 14.0263 20.0602 14.4C21.3352 14.1187 22.9664 10.35 19.3243 9.13123Z" fill="#DA0000"/>
<path d="M16.6243 9.13123C16.1897 9.39626 15.8194 9.75454 15.5403 10.1802C15.2611 10.6058 15.08 11.0881 15.01 11.5923C14.94 12.0965 14.9829 12.6099 15.1357 13.0955C15.2884 13.581 15.547 14.0266 15.893 14.4C14.6133 14.1187 12.9868 10.35 16.6243 9.13123Z" fill="#DA0000"/>
</g>
<defs>
<clipPath id="clip0_11930_68052">
<rect width="36" height="24" rx="2" fill="white"/>
</clipPath>
</defs>
</svg>
