<svg width="36" height="24" viewBox="0 0 36 24" fill="none" xmlns="http://www.w3.org/2000/svg">
<g clip-path="url(#clip0_11930_68121)">
<rect width="36" height="24" rx="2" fill="white"/>
<path d="M0 17H36V24H0V17Z" fill="#009543"/>
<path d="M0 0H36V7H0V0Z" fill="#00209F"/>
<path d="M17.8 7.6499C17.665 7.6499 17.53 7.7999 17.53 7.7999L17.545 9.4199L17.03 9.9549H17.445V10.8799L14.995 14.1799L14.635 14.0499L14 15.3999C14 15.3999 15.565 16.3799 17.835 16.3499C20.325 16.3249 21.68 15.3549 21.68 15.3549L21.03 14.0249L20.705 14.1649L18.225 10.8849V9.9299H18.635L18.075 9.3999V7.7899C18.075 7.7899 17.94 7.6399 17.8 7.6449V7.6499Z" fill="black" stroke="black" stroke-width="0.08"/>
<path d="M18.6549 11.52H16.9599C16.9599 11.52 16.3499 10.225 16.4449 9.32C16.5449 8.4 17.0749 7.965 17.7749 7.955C18.6049 7.95 19.0349 8.36 19.1649 9.285C19.2949 10.2 18.6549 11.52 18.6549 11.52Z" stroke="black" stroke-width="0.4"/>
<path d="M13.025 14.605C12.995 14.64 12.79 15.05 12.79 15.05L13.14 14.975L13.025 14.605ZM13.225 15.13L12.855 15.25L13.3 15.425L13.225 15.13ZM13.39 14.615L13.575 15.16L14.025 15.03L13.91 14.77L13.39 14.615ZM13.68 15.355L13.74 15.575L14.34 15.725L14.1 15.215L13.68 15.355ZM14.34 14.89L14.555 15.4L15.005 15.225L14.855 15L14.34 14.89ZM14.64 15.585L14.71 15.775L15.41 15.875L15.115 15.415L14.635 15.585H14.64ZM15.31 15.035L15.57 15.49L16.22 15.25L16.15 15.075L15.31 15.04V15.035ZM15.69 15.655L15.825 15.895L16.635 15.87L16.335 15.42L15.685 15.655H15.69ZM16.545 15.055L16.765 15.435L17.285 15.185L17.145 14.985L16.545 15.055ZM17.395 15.345L16.88 15.6L17.015 15.825L17.705 15.715L17.395 15.345ZM17.56 14.945L17.825 15.28L18.26 14.935L18.11 14.785L17.56 14.945ZM18.355 15.12L17.94 15.435L18.05 15.63L18.62 15.48L18.355 15.12ZM18.925 14.47L19.025 14.615L18.74 15.04L18.445 14.66L18.925 14.47ZM19.12 14.835L19.295 15.185L18.945 15.305L18.915 15.14L19.115 14.84L19.12 14.835Z" fill="white"/>
</g>
<defs>
<clipPath id="clip0_11930_68121">
<rect width="36" height="24" rx="2" fill="white"/>
</clipPath>
</defs>
</svg>
