<svg width="36" height="24" viewBox="0 0 36 24" fill="none" xmlns="http://www.w3.org/2000/svg">
<g clip-path="url(#clip0_11930_68063)">
<path d="M2.01001 0H34.01V24H2.01001V0Z" fill="white"/>
<path d="M0 0H36V7.2H0V0Z" fill="#000001"/>
<path d="M0 16.7999H36V23.9999H0V16.7999Z" fill="#006600"/>
<path d="M13.7197 19.125L13.9897 19.275L20.9947 7.12498C21.3997 7.03498 21.6247 6.64498 21.8497 6.25498C21.9997 5.98498 22.5997 4.94998 22.8547 3.59998C22.1431 4.23236 21.5401 4.97726 21.0697 5.80498C20.8447 6.19498 20.6197 6.58498 20.7247 6.98998L13.7197 19.125Z" fill="black" stroke="black" stroke-width="0.15"/>
<path d="M13.7197 19.125L13.9897 19.275L20.9947 7.12498C21.3997 7.03498 21.6247 6.64498 21.8497 6.25498C21.9997 5.98498 22.5997 4.94998 22.8547 3.59998C22.1431 4.23236 21.5401 4.97726 21.0697 5.80498C20.8447 6.19498 20.6197 6.58498 20.7247 6.98998L13.7197 19.125Z" fill="white"/>
<path d="M22.3008 19.125L22.0308 19.275L15.0258 7.12498C14.6208 7.03498 14.3958 6.64498 14.1708 6.25498C14.0208 5.98498 13.4208 4.94998 13.1658 3.59998C13.8774 4.23236 14.4804 4.97726 14.9508 5.80498C15.1758 6.19498 15.4008 6.58498 15.2958 6.98998L22.3008 19.125Z" fill="black" stroke="black" stroke-width="0.15"/>
<path d="M22.3008 19.125L22.0308 19.275L15.0258 7.12498C14.6208 7.03498 14.3958 6.64498 14.1708 6.25498C14.0208 5.98498 13.4208 4.94998 13.1658 3.59998C13.8774 4.23236 14.4804 4.97726 14.9508 5.80498C15.1758 6.19498 15.4008 6.58498 15.2958 6.98998L22.3008 19.125Z" fill="white"/>
<path d="M36 8.39993H20.86C20.41 7.19993 18.91 4.79993 18.01 4.79993C17.11 4.79993 15.61 7.19993 15.16 8.39993H0V15.5999H15.16C15.61 16.7999 17.11 19.1999 18.01 19.1999C18.91 19.1999 20.41 16.7999 20.86 15.5999H36V8.39993Z" fill="#DC0808"/>
<path d="M20.8601 15.5999C21.3101 14.3999 21.6101 13.1999 21.6101 11.9999C21.6101 10.7999 21.3101 9.5999 20.8601 8.3999C20.4101 9.5999 20.1101 10.7999 20.1101 11.9999C20.1101 13.1999 20.4101 14.3999 20.8601 15.5999Z" fill="black"/>
<path d="M15.1602 15.5999C14.7102 14.3999 14.4102 13.1999 14.4102 11.9999C14.4102 10.7999 14.7102 9.5999 15.1602 8.3999C15.6102 9.5999 15.9102 10.7999 15.9102 11.9999C15.9102 13.1999 15.6102 14.3999 15.1602 15.5999Z" fill="black"/>
<path d="M18.0104 12.9C18.3418 12.9 18.6104 12.497 18.6104 12C18.6104 11.5029 18.3418 11.1 18.0104 11.1C17.679 11.1 17.4104 11.5029 17.4104 12C17.4104 12.497 17.679 12.9 18.0104 12.9Z" fill="white"/>
<path d="M18.1604 12.87C18.1604 12.87 18.7604 14.07 18.7604 16.02C18.7604 17.97 18.1604 19.17 18.1604 19.17V12.87Z" fill="white"/>
<path d="M17.8604 11.13C17.8604 11.13 17.2604 9.93 17.2604 7.98C17.2604 6.03 17.8604 4.83 17.8604 4.83V11.13Z" fill="white"/>
<path d="M17.8604 12.87C17.8604 12.87 17.2604 14.07 17.2604 16.02C17.2604 17.97 17.8604 19.17 17.8604 19.17V12.87Z" fill="white"/>
<path d="M18.1604 11.13C18.1604 11.13 18.7604 9.93 18.7604 7.98C18.7604 6.03 18.1604 4.83 18.1604 4.83V11.13Z" fill="white"/>
</g>
<defs>
<clipPath id="clip0_11930_68063">
<rect width="36" height="24" rx="2" fill="white"/>
</clipPath>
</defs>
</svg>
