<svg width="36" height="24" viewBox="0 0 36 24" fill="none" xmlns="http://www.w3.org/2000/svg">
<rect width="36" height="24" rx="2" fill="#FF0000"/>
<path fill-rule="evenodd" clip-rule="evenodd" d="M11.0046 12.2292C11.634 11.4605 12.9438 12.2107 14.0129 11.6596C12.7448 11.7291 12.0552 11.0483 11.0555 11.1456C12.0922 10.5065 12.9762 11.354 14.1332 11.0159C12.6013 10.8862 12.6661 10.1962 11.2684 10.0989C12.5088 9.57096 13.1197 10.6454 14.3369 10.3999C12.9021 10.0711 12.717 9.22825 11.6526 9.04763C13.2076 8.81608 13.1058 9.73305 14.6284 9.84419C13.0826 9.18194 13.4853 8.60304 12.194 8.09825C13.6426 8.06583 13.5455 9.07079 15.0172 9.33014C13.7583 8.53358 13.9111 7.80648 12.879 7.23685C14.1055 7.26001 14.2212 8.51505 15.4754 8.90407C14.36 8.01952 14.6516 7.26927 13.6889 6.47734C14.9107 6.76447 14.7302 7.84816 16.003 8.54284C15.0588 7.4962 15.4198 6.74595 14.6007 5.88918C15.7762 6.26431 15.3273 7.29706 16.5445 8.27886C15.8502 7.1257 16.2807 6.38935 15.5911 5.42144C16.6833 5.98181 16.1557 7.03771 17.1646 8.08435C16.6879 6.90341 17.1646 6.17168 16.6787 5.12504C17.6136 5.81972 17.0582 6.94509 17.8126 8.01952C17.5349 6.53755 18.1736 6.29673 17.9745 5C18.6826 5.87066 17.8912 6.74132 18.4374 8.02415C18.3679 6.56533 19.1455 6.22726 19.0112 5.06021C19.7101 6.10685 18.6179 7.01919 19.076 8.13993C19.1917 6.75984 20.0988 6.39861 20.1127 5.32418C20.6681 6.31062 19.4648 7.02382 19.6592 8.33444C20.0526 6.88951 21.0198 6.71353 21.1402 5.74099C21.4688 6.88025 20.1498 7.4082 20.2284 8.67714C20.6218 7.39431 21.8298 7.24148 22.0797 6.29673C22.2324 7.50083 21.043 7.71849 20.7051 9.05227C21.3299 7.96394 22.4268 7.87595 22.9174 7.01456C22.8803 8.20939 21.5382 8.36685 21.1263 9.48296C21.8992 8.53358 22.8711 8.69567 23.644 7.85743C23.5607 8.93649 22.1954 8.87628 21.4688 9.99239C22.3064 9.21899 23.5699 9.45055 24.2132 8.78366C24.1808 9.73768 22.5055 9.66358 21.714 10.5203C22.686 9.98313 23.9263 10.298 24.639 9.80251C24.5094 10.6361 22.7415 10.4416 21.8945 11.0992C23.0608 10.7751 23.9633 11.2706 24.9028 10.914C24.4446 11.7244 22.8387 11.2104 21.9871 11.7383C23.0053 11.567 24.079 12.1829 25 11.9838C24.6992 12.6877 22.9359 11.9375 21.9917 12.3774C23.121 12.3682 23.8569 13.0953 24.9074 13.0443C24.3382 13.6834 22.7924 12.8081 21.8899 12.9563C22.9914 13.1879 23.8337 14.0956 24.6668 14.1419C23.9772 14.6652 22.6998 13.4704 21.6585 13.6186C22.7322 13.9057 23.6301 15.1237 24.241 15.1515C23.5792 15.6054 22.2741 14.1095 21.3808 14.1651C22.4684 14.656 22.9636 15.9018 23.681 16.0777C22.797 16.3602 21.9269 14.7254 20.9782 14.6652C22.0797 15.3599 22.1398 16.4251 22.9868 16.8975C22.0936 17.1151 21.4595 15.2673 20.52 15.1098C21.4225 15.7721 21.5613 17.1938 22.1583 17.6384C21.2512 17.6848 20.9226 15.7536 19.9924 15.4757C20.7884 16.1426 20.5987 17.5875 21.2188 18.2081C20.2747 18.0089 20.395 16.3278 19.4093 15.7582C20.1174 16.6566 19.7564 17.9302 20.2192 18.648C19.2982 18.2775 19.6962 16.7678 18.8215 15.9156C19.2982 16.8697 18.7845 17.9811 19.164 18.9027C18.3217 18.4906 18.8863 16.7076 18.243 15.999C18.5392 17.1012 17.9931 18.0136 18.2152 19C17.3544 18.0043 18.3448 16.9993 17.5997 15.9851C17.794 17.1475 16.9795 17.9626 17.1091 18.9352C16.4288 18.1386 17.4793 16.865 16.9471 15.8601C17.0582 17.004 16.0076 18.0089 16.0817 18.7314C15.5263 17.8052 16.6972 16.7122 16.3825 15.6609C16.3177 16.7539 15.2532 17.3467 15.0542 18.3424C14.6979 17.2448 15.9613 16.4529 15.8502 15.3738C15.4893 16.3973 14.4618 16.8095 14.1008 17.8052C13.8046 16.7076 15.3041 16.1287 15.3412 14.9802C14.8783 16.0546 13.6519 16.2954 13.2446 17.1198C13.0919 16.0314 14.8089 15.5452 14.8737 14.5124C14.3183 15.5035 12.9762 15.5452 12.5134 16.3325C12.444 15.2488 14.2536 15.1145 14.5359 13.9798C13.9851 14.8227 12.5134 14.7162 11.8979 15.4016C11.995 14.3966 13.9527 14.3364 14.2674 13.4287C13.5362 14.1327 12.1848 13.8455 11.4212 14.4013C11.8469 13.4102 13.6843 13.6186 14.0962 12.9054C13.2863 13.3268 11.8469 12.9147 11.1342 13.3407C11.7821 12.4052 13.2076 12.9656 14.0175 12.3219C12.7031 12.5117 11.9117 11.9884 11 12.2292H11.0046Z" fill="#FFFF00"/>
<path fill-rule="evenodd" clip-rule="evenodd" d="M22.5979 11.9977C22.5979 13.2167 22.114 14.3858 21.2525 15.2478C20.3911 16.1098 19.2228 16.5941 18.0045 16.5941C16.7863 16.5941 15.6179 16.1098 14.7565 15.2478C13.8951 14.3858 13.4111 13.2167 13.4111 11.9977C13.4111 10.7792 13.8948 9.61071 14.7558 8.74915C15.6168 7.88759 16.7846 7.40356 18.0022 7.40356C19.2198 7.40356 20.3876 7.88759 21.2486 8.74915C22.1096 9.61071 22.5933 10.7792 22.5933 11.9977H22.5979Z" fill="#FFFF00"/>
<path fill-rule="evenodd" clip-rule="evenodd" d="M22.0057 12.0069C22.0057 13.0669 21.5849 14.0835 20.8358 14.833C20.0868 15.5826 19.0709 16.0036 18.0116 16.0036C16.9523 16.0036 15.9364 15.5826 15.1874 14.833C14.4384 14.0835 14.0176 13.0669 14.0176 12.0069C14.0176 10.947 14.4384 9.93038 15.1874 9.18086C15.9364 8.43133 16.9523 8.01025 18.0116 8.01025C19.0709 8.01025 20.0868 8.43133 20.8358 9.18086C21.5849 9.93038 22.0057 10.947 22.0057 12.0069Z" fill="#FF0000"/>
<path fill-rule="evenodd" clip-rule="evenodd" d="M21.4499 12.0163C21.4499 12.9264 21.0886 13.7993 20.4455 14.4429C19.8023 15.0864 18.93 15.448 18.0205 15.448C17.1109 15.448 16.2387 15.0864 15.5955 14.4429C14.9524 13.7993 14.5911 12.9264 14.5911 12.0163C14.5911 11.1061 14.9524 10.2333 15.5955 9.58971C16.2387 8.94615 17.1109 8.58459 18.0205 8.58459C18.93 8.58459 19.8023 8.94615 20.4455 9.58971C21.0886 10.2333 21.4499 11.1061 21.4499 12.0163Z" fill="#FFFF00"/>
<path fill-rule="evenodd" clip-rule="evenodd" d="M15.1003 9.77013C16.0491 9.74698 17.2293 9.83497 18.0114 10.4555C18.847 9.93371 19.8308 9.70102 20.8114 9.79329L21.3205 10.7242C20.5294 10.6519 19.733 10.7826 19.0065 11.1039C19.5257 11.4871 19.9432 11.9919 20.2224 12.574C20.5016 13.1561 20.6339 13.7978 20.6078 14.443C20.4828 14.6004 20.2838 14.7718 20.1589 14.9292C20.344 13.6094 19.6498 12.1367 18.6362 11.3633C19.46 12.5488 19.946 13.614 19.8117 15.0867L19.3489 15.3831C19.5618 14.0864 19.2564 12.5581 18.2984 11.6782C18.8537 12.4886 19.3998 13.9474 19.0574 15.4294C18.9093 15.4757 18.6779 15.6008 18.5298 15.6424C18.7112 15.0344 18.7605 14.3946 18.6743 13.7659C18.588 13.1373 18.3683 12.5344 18.0299 11.9977C17.3913 12.9147 17.183 14.3133 17.544 15.61C17.3681 15.5637 17.2339 15.5081 17.0534 15.4665C16.7896 14.0771 17.1552 12.5025 17.7893 11.6828C17.1413 12.0579 16.5351 13.6603 16.7063 15.2951L16.2759 15.096C16.0676 13.878 16.6184 12.2895 17.4098 11.3725C16.5119 11.9375 15.7807 13.3315 15.9056 14.8274C15.7668 14.707 15.6418 14.6467 15.503 14.5217C15.3456 13.2157 16.1046 11.9005 16.9886 11.1132C16.2435 10.7751 15.6002 10.7103 14.6746 10.7242C14.818 10.4231 14.9522 10.0712 15.1003 9.7655V9.77013Z" fill="#FF0000"/>
</svg>
