<svg width="36" height="24" viewBox="0 0 36 24" fill="none" xmlns="http://www.w3.org/2000/svg">
<g clip-path="url(#clip0_11930_68087)">
<path d="M0 0H36V24H0V0Z" fill="#0F3EB6"/>
<path d="M0 6H36V18H0V6Z" fill="#ED1A3C"/>
<path d="M14.6152 11.3098H21.4432V13.9378H14.6152V11.3098Z" fill="white" stroke="black" stroke-width="0.06" stroke-linejoin="bevel"/>
<path d="M21.0952 12.7559H21.3052V13.7459H21.0952V12.7559ZM14.6152 12.2699H21.4432V12.5699H14.6152V12.2699ZM14.6152 11.8499H21.4432V12.1259H14.6152V11.8499Z" fill="white" stroke="black" stroke-width="0.06" stroke-linejoin="bevel"/>
<path d="M14.6152 11.4419H21.4432V11.6999H14.6152V11.4419Z" fill="white" stroke="black" stroke-width="0.054" stroke-linejoin="bevel"/>
<path d="M16.4153 12.7559H16.6313V13.7459H16.4153V12.7559ZM19.3553 12.7559H19.5713V13.7459H19.3553V12.7559ZM14.6753 12.7559H14.8853V13.7459H14.6753V12.7559ZM15.0953 12.7559H15.3053V13.7459H15.0953V12.7559ZM15.5453 12.7559H15.7553V13.7459H15.5453V12.7559ZM15.9953 12.7559H16.2053V13.7459H15.9953V12.7559ZM19.7633 12.7559H19.9793V13.7459H19.7633V12.7559ZM20.2133 12.7559H20.4293V13.7459H20.2133V12.7559ZM20.6633 12.7559H20.8793V13.7459H20.6633V12.7559Z" fill="white" stroke="black" stroke-width="0.06" stroke-linejoin="bevel"/>
<path d="M11.9453 14.0697C12.0708 14.0014 12.1653 13.8876 12.2093 13.7517H23.7953C23.8394 13.8876 23.9339 14.0014 24.0593 14.0697H11.9453Z" fill="white" stroke="black" stroke-width="0.06"/>
<path d="M17.8581 7.30791C17.8581 7.30791 17.8521 7.06191 17.9961 7.05591C18.1341 7.05591 18.1281 7.30791 18.1281 7.30791H17.8581ZM17.1081 10.5779V10.2479C17.1081 10.0799 16.9401 10.0679 16.9401 9.94791C16.9401 9.94791 16.9161 9.76791 16.9641 9.68391C17.0301 9.92391 17.1441 9.88191 17.1441 9.77991C17.1441 9.69591 17.0841 9.61191 16.9461 9.40191C16.8981 9.33591 16.9281 9.12591 16.9881 9.04791C17.0121 9.22791 17.0421 9.31791 17.1201 9.31791C17.1681 9.31791 17.2041 9.28791 17.2041 9.19791C17.2041 9.07791 17.1261 9.01791 17.0841 8.90991C17.0634 8.85616 17.0587 8.7976 17.0704 8.74121C17.0821 8.68482 17.1098 8.63299 17.1501 8.59191C17.1801 8.77191 17.1741 8.84391 17.2521 8.84391C17.4141 8.78991 17.2521 8.55591 17.2161 8.49591C17.1801 8.42991 17.2761 8.29191 17.2761 8.29191C17.3241 8.45391 17.3361 8.46591 17.3961 8.44791C17.4681 8.42991 17.4561 8.32791 17.3721 8.24391C17.3181 8.18391 17.3241 8.10591 17.3841 8.04591C17.4441 8.15991 17.5161 8.15391 17.5221 8.08191L17.4741 7.81791H18.5181L18.4641 8.07591C18.4521 8.14791 18.5481 8.16591 18.6081 8.04591C18.6681 8.10591 18.6741 8.18991 18.6201 8.24391C18.5361 8.32791 18.5241 8.42991 18.5961 8.44791C18.6561 8.46591 18.6681 8.44791 18.7161 8.29191C18.7161 8.29191 18.8061 8.38191 18.7761 8.49591C18.7401 8.55591 18.5781 8.79591 18.7401 8.84391C18.8181 8.84391 18.8121 8.77191 18.8421 8.59191C18.8815 8.63363 18.908 8.68577 18.9187 8.74213C18.9293 8.79849 18.9236 8.85671 18.9021 8.90991C18.8661 9.01791 18.7821 9.07791 18.7821 9.19791C18.7821 9.28791 18.8241 9.31791 18.8721 9.31791C18.9501 9.31791 18.9801 9.23391 19.0041 9.04791C19.0641 9.12591 19.0941 9.33591 19.0461 9.40791C18.9081 9.61191 18.8421 9.69591 18.8421 9.77991C18.8421 9.88191 18.9621 9.92391 19.0221 9.68391C19.0761 9.76791 19.0521 9.94791 19.0521 9.94791C19.0521 10.0679 18.8901 10.0799 18.8841 10.2479V10.5779H17.1081ZM17.5401 7.81791L17.5161 7.63191H18.4701L18.4461 7.81791H17.5401ZM17.6001 7.62591L17.5881 7.47591H18.3981L18.3801 7.62591H17.6001ZM17.7381 7.46991L17.7201 7.31391H18.2601L18.2541 7.46991H17.7381ZM19.7181 14.0699C19.5981 14.0279 19.4181 13.8959 19.4181 13.7699V12.3119L19.5741 12.1079H16.4181L16.5681 12.3119V13.7699C16.5681 13.8959 16.4481 14.0279 16.3281 14.0699H19.7181Z" fill="white" stroke="black" stroke-width="0.06"/>
<path d="M16.9702 12.7559H17.1862V13.7459H16.9702V12.7559ZM18.7942 12.7559H19.0102V13.7459H18.7942V12.7559Z" fill="white" stroke="black" stroke-width="0.06" stroke-linejoin="bevel"/>
<path d="M16.3581 10.4519V12.1079H19.5981V10.4519C19.5606 10.4656 19.527 10.4879 19.4998 10.5171C19.4727 10.5463 19.4529 10.5816 19.4421 10.6199V11.3279H16.5201V10.6199C16.5201 10.6199 16.4841 10.4999 16.3521 10.4519H16.3581Z" fill="white" stroke="black" stroke-width="0.06"/>
<path d="M19.1542 14.0698C19.0462 14.0278 18.8182 13.8958 18.8182 13.7698V12.1378C18.8422 12.0478 18.9622 11.9938 19.0402 11.9338H16.8982C17.0002 11.9938 17.1142 12.0358 17.1562 12.1378V13.7698C17.1562 13.8958 16.9762 14.0278 16.8682 14.0698H19.1542Z" fill="white" stroke="black" stroke-width="0.06"/>
<path d="M19.442 11.9519V10.7759H19.148V10.6619H16.82V10.7819H16.52V11.9519H19.442ZM18.698 14.0699C18.59 14.0279 18.44 13.8959 18.44 13.7699V12.3779L18.524 12.2519H17.462L17.552 12.3719V13.7699C17.552 13.8959 17.396 14.0279 17.294 14.0699H18.698Z" fill="white" stroke="black" stroke-width="0.06"/>
<path d="M17.7202 12.252H18.2602V14.07H17.7202V12.252Z" fill="white" stroke="black" stroke-width="0.06"/>
<path d="M18.5422 11.8498C18.5422 11.7298 18.8902 11.7238 19.0702 11.6218H16.9102C17.0902 11.7238 17.4322 11.7298 17.4322 11.8498L17.5042 12.0838L18.4042 12.1198L18.5422 11.8498Z" fill="white" stroke="black" stroke-width="0.06" stroke-linejoin="bevel"/>
<path d="M18.962 10.5779C18.962 10.2839 18.974 10.1759 19.064 10.1759V11.0999C18.842 11.1839 18.686 11.4599 18.686 11.4599H17.294C17.294 11.4599 17.138 11.1839 16.916 11.0999V10.1699C17.024 10.1699 17.024 10.2899 17.024 10.5719L18.962 10.5779ZM19.064 10.4579C19.064 10.1219 19.358 10.0859 19.358 10.0859V10.3859C19.244 10.3799 19.19 10.4819 19.19 10.6259C19.19 10.7759 19.28 10.7759 19.28 10.7759V11.6279H19.064V10.4579Z" fill="white" stroke="black" stroke-width="0.06"/>
<path d="M16.9161 10.4579C16.9161 10.1219 16.6221 10.0859 16.6221 10.0859V10.3859C16.7361 10.3799 16.7901 10.4819 16.7901 10.6259C16.7901 10.7759 16.7001 10.7759 16.7001 10.7759V11.6279H16.9161V10.4579Z" fill="white" stroke="black" stroke-width="0.06"/>
<path d="M17.4832 8.13599H18.5152M17.3632 8.45999H18.6232M17.2432 8.84999H18.7372M17.1172 9.32399H18.8872M17.0752 9.86399H18.8992" stroke="black" stroke-width="0.048"/>
<path d="M16.5234 11.6399H19.4394M17.4474 11.6399H18.5274V12.0359H17.4474V11.6399Z" stroke="black" stroke-width="0.06"/>
<path d="M17.3179 10.7518C17.4979 10.9678 17.4739 11.3338 17.4739 11.5498H18.5179C18.5179 11.3338 18.4939 10.9678 18.6739 10.7518H17.3179ZM17.8999 8.29185L17.7559 8.21385V8.00385C17.8159 8.02185 17.8759 8.02785 17.8879 8.12385C17.9059 7.98585 17.9479 7.99785 18.0019 7.94385C18.0619 7.99785 18.0919 7.98585 18.1159 8.12385C18.1159 8.02785 18.1879 8.02185 18.2419 8.00385V8.21385L18.1039 8.28584L17.8999 8.29185Z" fill="white" stroke="black" stroke-width="0.06"/>
<path d="M17.8879 8.63388L17.6479 8.46588V8.27988C17.7379 8.29788 17.8279 8.30988 17.8399 8.41188C17.8639 8.26188 17.9179 8.18988 18.0019 8.12988C18.0799 8.18988 18.1339 8.26188 18.1639 8.41188C18.1699 8.30988 18.2659 8.29788 18.3439 8.27988V8.47188L18.1099 8.63388H17.8879Z" fill="white" stroke="black" stroke-width="0.06"/>
<path d="M17.8704 9.16783L17.6004 8.92783V8.64583C17.6964 8.66983 17.8044 8.68183 17.8164 8.83183C17.8464 8.62183 17.9064 8.50783 17.9964 8.42383C18.0924 8.50783 18.1524 8.62183 18.1884 8.83183C18.2004 8.68183 18.3084 8.66983 18.4044 8.64583V8.92783L18.1284 9.16783H17.8704ZM18.3744 9.48583L18.1344 9.82783H17.8524L17.6064 9.48583H18.3744ZM17.4624 10.0558C17.5824 10.1218 17.6304 10.2598 17.6424 10.5118H18.3384C18.3504 10.2598 18.3984 10.1218 18.5184 10.0558H17.4624Z" fill="white" stroke="black" stroke-width="0.06"/>
<path d="M18.5302 9.48003V9.14403C18.4785 9.15504 18.4305 9.17898 18.3906 9.21361C18.3508 9.24824 18.3203 9.29243 18.3022 9.34203C18.3022 9.22203 18.1522 8.96403 17.9902 8.83203C17.8282 8.97603 17.6722 9.21603 17.6782 9.33603C17.6482 9.24603 17.5702 9.17403 17.4502 9.14403V9.48603L18.5302 9.48003Z" fill="white" stroke="black" stroke-width="0.06" stroke-linejoin="bevel"/>
<path d="M18.5779 10.056V9.71996C18.4519 9.75596 18.3679 9.82196 18.3319 9.91796C18.3319 9.79796 18.1699 9.53996 17.9899 9.40796C17.8099 9.55796 17.6419 9.79196 17.6479 9.91796C17.6179 9.82796 17.5279 9.75596 17.4019 9.71996V10.062L18.5779 10.056Z" fill="white" stroke="black" stroke-width="0.06" stroke-linejoin="bevel"/>
<path d="M18.722 10.758V10.362C18.597 10.401 18.4891 10.4814 18.416 10.59C18.416 10.38 18.176 10.05 17.99 9.948C17.798 10.056 17.564 10.392 17.564 10.59C17.489 10.4807 17.3789 10.4002 17.252 10.362V10.758H18.722Z" fill="white" stroke="black" stroke-width="0.06" stroke-linejoin="bevel"/>
<path d="M18.6383 11.6399V11.2319C18.4943 11.2859 18.4583 11.4179 18.4103 11.5139C18.4283 11.0999 18.1823 10.6619 17.9903 10.5479C17.7983 10.6619 17.5463 11.1119 17.5703 11.5079C17.5223 11.4239 17.4803 11.2859 17.3423 11.2319V11.6339L18.6383 11.6399Z" fill="white" stroke="black" stroke-width="0.06" stroke-linejoin="bevel"/>
<path d="M18.542 12.2519V11.8439C18.392 11.8799 18.386 11.9339 18.338 12.0239C18.356 11.7779 18.182 11.4959 17.99 11.3879C17.798 11.4959 17.63 11.7779 17.642 12.0239C17.594 11.9339 17.588 11.8799 17.438 11.8439V12.2519H18.542Z" fill="white" stroke="black" stroke-width="0.06"/>
<path d="M12.2174 13.752V12.528C12.1754 12.372 12.0374 12.228 11.9414 12.204V11.124L12.1634 11.244L12.4214 12.378V13.758L12.2174 13.752Z" fill="white" stroke="black" stroke-width="0.06"/>
<path d="M12.2174 13.758V12.528C12.1754 12.372 12.0374 12.228 11.9414 12.204V11.052C12.0914 11.052 12.1634 11.244 12.1634 11.244L12.4214 12.378V13.752L12.2174 13.758Z" fill="white" stroke="black" stroke-width="0.06"/>
<path d="M12.0552 14.07C12.1572 14.028 12.3072 13.896 12.3072 13.77V12.234L12.2352 12.114H14.8572L14.7552 12.234V13.77C14.7596 13.8336 14.7808 13.8949 14.8166 13.9476C14.8525 14.0003 14.9017 14.0425 14.9592 14.07H12.0552Z" fill="white" stroke="black" stroke-width="0.06"/>
<path d="M14.4251 14.0699C14.3231 14.0279 14.1731 13.8959 14.1731 13.7699V12.3119L14.3891 12.1079H12.6131L12.8291 12.3119V13.7699C12.8291 13.8959 12.6791 14.0279 12.5771 14.0699H14.4251Z" fill="white" stroke="black" stroke-width="0.06"/>
<path d="M14.1792 14.07C14.0772 14.028 13.9212 13.896 13.9212 13.77V12.45L14.0652 12.252H12.9372L13.0812 12.45V13.77C13.0812 13.896 12.9312 14.028 12.8232 14.07H14.1792Z" fill="white" stroke="black" stroke-width="0.06"/>
<path d="M13.237 12.252H13.771V14.076H13.231L13.237 12.252Z" fill="white" stroke="black" stroke-width="0.06"/>
<path d="M12.499 12.756H12.715V13.746H12.499V12.756ZM14.347 12.756H14.557V13.746H14.341L14.347 12.756ZM12.313 11.088H12.577V12.108H12.313V11.088ZM12.313 10.896H12.571V11.088H12.313V10.896ZM14.449 11.31H14.815V12.09H14.449V11.31Z" fill="white"/>
<path d="M12.313 11.088H12.577V12.108H12.313V11.088ZM12.313 11.088H12.571V10.896H12.313V11.088ZM12.499 12.756H12.715V13.746H12.499V12.756ZM14.347 12.756H14.557V13.746H14.341L14.347 12.756ZM14.449 11.31H14.815V12.09H14.449V11.31Z" stroke="black" stroke-width="0.06" stroke-linejoin="bevel"/>
<path d="M12.5712 12.0959V10.3559C12.6432 10.3559 12.6552 10.6139 12.8232 10.6139C12.9132 10.6139 12.9072 10.5059 12.8532 10.4219C12.8112 10.3439 12.7572 10.2419 12.8292 10.0439C12.8832 10.1939 13.0152 10.2419 12.9912 10.1519C12.9492 9.9899 12.8232 9.9599 12.9192 9.7139C12.9492 9.9179 13.0812 9.9119 13.0512 9.7919C13.0152 9.6539 12.9372 9.5939 13.0332 9.4019C13.0872 9.6239 13.1532 9.6119 13.1532 9.4739C13.1532 9.2699 13.1532 9.0539 13.4052 8.9759C13.4052 8.9759 13.4232 8.7959 13.5192 8.7959C13.6092 8.7959 13.6272 8.9759 13.6272 8.9759C13.8852 9.0539 13.8792 9.2759 13.8792 9.4739C13.8792 9.6119 13.9452 9.6239 13.9992 9.4019C14.0952 9.5939 14.0172 9.6539 13.9812 9.7919C13.9512 9.9119 14.0832 9.9179 14.1132 9.7139C14.2092 9.9599 14.0832 9.9899 14.0412 10.1519C14.0172 10.2419 14.1492 10.1939 14.2032 10.0439C14.2752 10.2419 14.2212 10.3439 14.1792 10.4219C14.1312 10.5059 14.1192 10.6139 14.2092 10.6139C14.3772 10.6139 14.3892 10.3619 14.4612 10.3619V12.0959H12.5712ZM12.1572 10.7819V12.1079H12.3072V10.7819C12.2532 10.7519 12.2052 10.7519 12.1572 10.7819Z" fill="white" stroke="black" stroke-width="0.06"/>
<path d="M12.1694 11.6399C12.3554 11.7359 12.5414 11.8499 12.5894 12.1079H12.1694V11.6399ZM14.7614 11.2439V12.1079H14.8814V11.2439C14.8454 11.2259 14.7914 11.2199 14.7614 11.2439Z" fill="white" stroke="black" stroke-width="0.06"/>
<path d="M14.8816 11.6398C14.6956 11.7298 14.5096 11.8378 14.4616 12.1018H14.8816V11.6398ZM13.6456 9.61784L13.7536 9.52784V9.40784C13.7176 9.40784 13.6936 9.42584 13.6636 9.46784C13.6519 9.42931 13.6326 9.39352 13.6069 9.36259C13.5811 9.33167 13.5494 9.30625 13.5136 9.28784C13.4773 9.30493 13.4447 9.32914 13.4179 9.35903C13.3911 9.38892 13.3706 9.42388 13.3576 9.46184C13.3276 9.41984 13.3096 9.41384 13.2676 9.40184V9.52184L13.3756 9.61784H13.6456Z" fill="white" stroke="black" stroke-width="0.06"/>
<path d="M13.7056 9.91183L13.7536 9.79783V9.64783C13.7176 9.64783 13.6936 9.66583 13.6636 9.70783C13.6519 9.6693 13.6326 9.63351 13.6069 9.60258C13.5811 9.57166 13.5494 9.54624 13.5136 9.52783C13.4773 9.54492 13.4447 9.56913 13.4179 9.59902C13.3911 9.62891 13.3706 9.66387 13.3576 9.70183C13.3276 9.65983 13.3096 9.65383 13.2676 9.64783V9.79783L13.3156 9.91183H13.7056Z" fill="white" stroke="black" stroke-width="0.06"/>
<path d="M13.717 10.3079L13.873 10.1099V9.91789C13.813 9.91789 13.783 9.94789 13.741 10.0139C13.699 9.87589 13.621 9.85189 13.513 9.78589C13.399 9.84589 13.321 9.87589 13.285 10.0079C13.237 9.94189 13.207 9.92389 13.147 9.91789V10.1099L13.309 10.3079H13.717Z" fill="white" stroke="black" stroke-width="0.06"/>
<path d="M13.759 10.6978C13.759 10.6978 13.951 10.5358 13.957 10.4458V10.2358C13.885 10.2418 13.819 10.2598 13.765 10.3498C13.717 10.1758 13.645 10.1278 13.513 10.0498C13.375 10.1278 13.303 10.1758 13.261 10.3498C13.201 10.2598 13.141 10.2418 13.063 10.2298V10.4458C13.1134 10.541 13.1804 10.6263 13.261 10.6978H13.759Z" fill="white" stroke="black" stroke-width="0.06"/>
<path d="M13.8374 11.4179C13.8374 11.4179 14.1014 11.1359 14.1074 11.0219V10.6979C14.0114 10.7099 13.9154 10.7759 13.8434 10.9139C13.7834 10.6439 13.6874 10.4579 13.5134 10.3259C13.3334 10.4579 13.2374 10.6439 13.1774 10.9139C13.1054 10.7759 13.0154 10.7099 12.9194 10.6979V11.0219C12.9374 11.1359 13.1834 11.4179 13.1834 11.4179H13.8374Z" fill="white" stroke="black" stroke-width="0.06"/>
<path d="M13.8374 11.8439C13.8374 11.8439 14.0594 11.6219 14.1074 11.5259V11.2019C14.0114 11.2139 13.9154 11.2799 13.8434 11.4119C13.8274 11.3027 13.79 11.1977 13.7334 11.103C13.6767 11.0083 13.602 10.9257 13.5134 10.8599C13.3334 10.9919 13.2374 11.1419 13.1774 11.4119C13.1054 11.2799 13.0154 11.2139 12.9194 11.2019V11.5259C12.9794 11.6219 13.1834 11.8439 13.1834 11.8439H13.8374Z" fill="white" stroke="black" stroke-width="0.06"/>
<path d="M13.9273 12.0958C13.8673 11.8138 13.8073 11.6038 13.5013 11.3938C13.1893 11.6038 13.1353 11.8138 13.0693 12.0958H13.9273Z" fill="white" stroke="black" stroke-width="0.06"/>
<path d="M14.0894 12.2519V11.8439C13.9454 11.9039 13.8194 11.9819 13.7714 12.0719C13.7234 11.8439 13.6214 11.7479 13.4954 11.6099C13.3694 11.7479 13.2854 11.8499 13.2314 12.0719C13.1834 11.9819 13.0574 11.8979 12.9194 11.8439V12.2519H14.0894Z" fill="white" stroke="black" stroke-width="0.06"/>
<path d="M23.7836 13.752V12.528C23.8256 12.372 23.9636 12.228 24.0596 12.204V11.124L23.8376 11.244L23.5796 12.378V13.758L23.7836 13.752Z" fill="white" stroke="black" stroke-width="0.06"/>
<path d="M23.7836 13.758V12.528C23.8256 12.372 23.9636 12.228 24.0596 12.204V11.052C23.9096 11.052 23.8376 11.244 23.8376 11.244L23.5796 12.378V13.752L23.7836 13.758Z" fill="white" stroke="black" stroke-width="0.06"/>
<path d="M23.9453 14.07C23.8433 14.028 23.6933 13.896 23.6933 13.77V12.234L23.7653 12.114H21.1433L21.2453 12.234V13.77C21.2409 13.8336 21.2197 13.8949 21.1839 13.9476C21.148 14.0003 21.0988 14.0425 21.0413 14.07H23.9453Z" fill="white" stroke="black" stroke-width="0.06"/>
<path d="M21.5753 14.0699C21.6773 14.0279 21.8273 13.8959 21.8273 13.7699V12.3119L21.6113 12.1079H23.3873L23.1713 12.3119V13.7699C23.1713 13.8959 23.3213 14.0279 23.4233 14.0699H21.5753Z" fill="white" stroke="black" stroke-width="0.06"/>
<path d="M21.8212 14.07C21.9232 14.028 22.0792 13.896 22.0792 13.77V12.45L21.9352 12.252H23.0632L22.9192 12.45V13.77C22.9192 13.896 23.0692 14.028 23.1772 14.07H21.8212Z" fill="white" stroke="black" stroke-width="0.06"/>
<path d="M22.7635 12.252H22.2295V14.076H22.7695L22.7635 12.252Z" fill="white" stroke="black" stroke-width="0.06"/>
<path d="M23.5015 12.756H23.2855V13.746H23.5015V12.756ZM21.6535 12.756H21.4435V13.746H21.6595L21.6535 12.756ZM23.6875 11.088H23.4235V12.108H23.6875V11.088ZM23.6875 10.896H23.4295V11.088H23.6875V10.896ZM21.5515 11.31H21.1855V12.09H21.5515V11.31Z" fill="white"/>
<path d="M23.6875 11.088H23.4235V12.108H23.6875V11.088ZM23.6875 11.088H23.4295V10.896H23.6875V11.088ZM23.5015 12.756H23.2855V13.746H23.5015V12.756ZM21.6535 12.756H21.4435V13.746H21.6595L21.6535 12.756ZM21.5515 11.31H21.1855V12.09H21.5515V11.31Z" stroke="black" stroke-width="0.06" stroke-linejoin="bevel"/>
<path d="M23.4293 12.0959V10.3559C23.3573 10.3559 23.3453 10.6139 23.1773 10.6139C23.0873 10.6139 23.0933 10.5059 23.1473 10.4219C23.1893 10.3439 23.2433 10.2419 23.1713 10.0439C23.1173 10.1939 22.9853 10.2419 23.0093 10.1519C23.0513 9.9899 23.1773 9.9599 23.0813 9.7139C23.0513 9.9179 22.9193 9.9119 22.9493 9.7919C22.9853 9.6539 23.0633 9.5939 22.9673 9.4019C22.9133 9.6239 22.8473 9.6119 22.8473 9.4739C22.8473 9.2699 22.8473 9.0539 22.5953 8.9759C22.5953 8.9759 22.5773 8.7959 22.4813 8.7959C22.3913 8.7959 22.3733 8.9759 22.3733 8.9759C22.1153 9.0539 22.1213 9.2759 22.1213 9.4739C22.1213 9.6119 22.0553 9.6239 22.0013 9.4019C21.9053 9.5939 21.9833 9.6539 22.0193 9.7919C22.0493 9.9119 21.9173 9.9179 21.8873 9.7139C21.7913 9.9599 21.9173 9.9899 21.9593 10.1519C21.9833 10.2419 21.8513 10.1939 21.7973 10.0439C21.7253 10.2419 21.7793 10.3439 21.8213 10.4219C21.8693 10.5059 21.8813 10.6139 21.7913 10.6139C21.6233 10.6139 21.6113 10.3619 21.5393 10.3619V12.0959H23.4293ZM23.8433 10.7819V12.1079H23.6933V10.7819C23.7473 10.7519 23.7953 10.7519 23.8433 10.7819Z" fill="white" stroke="black" stroke-width="0.06"/>
<path d="M23.8311 11.6399C23.6451 11.7359 23.4591 11.8499 23.4111 12.1079H23.8311V11.6399ZM21.2391 11.2439V12.1079H21.1191V11.2439C21.1551 11.2259 21.2091 11.2199 21.2391 11.2439Z" fill="white" stroke="black" stroke-width="0.06"/>
<path d="M21.1194 11.6398C21.3054 11.7298 21.4914 11.8378 21.5394 12.1018H21.1194V11.6398ZM22.3554 9.61784L22.2474 9.52784V9.40784C22.2834 9.40784 22.3074 9.42584 22.3374 9.46784C22.349 9.42931 22.3683 9.39352 22.3941 9.36259C22.4199 9.33167 22.4516 9.30625 22.4874 9.28784C22.5237 9.30493 22.5562 9.32914 22.583 9.35903C22.6098 9.38892 22.6304 9.42388 22.6434 9.46184C22.6734 9.41984 22.6914 9.41384 22.7334 9.40184V9.52184L22.6254 9.61784H22.3554Z" fill="white" stroke="black" stroke-width="0.06"/>
<path d="M22.2954 9.91183L22.2474 9.79783V9.64783C22.2834 9.64783 22.3074 9.66583 22.3374 9.70783C22.349 9.6693 22.3683 9.63351 22.3941 9.60258C22.4199 9.57166 22.4516 9.54624 22.4874 9.52783C22.5237 9.54492 22.5562 9.56913 22.583 9.59902C22.6098 9.62891 22.6304 9.66387 22.6434 9.70183C22.6734 9.65983 22.6914 9.65383 22.7334 9.64783V9.79783L22.6854 9.91183H22.2954Z" fill="white" stroke="black" stroke-width="0.06"/>
<path d="M22.2835 10.3079L22.1275 10.1099V9.91789C22.1875 9.91789 22.2175 9.94789 22.2595 10.0139C22.3015 9.87589 22.3795 9.85189 22.4875 9.78589C22.6015 9.84589 22.6795 9.87589 22.7155 10.0079C22.7635 9.94189 22.7935 9.92389 22.8535 9.91789V10.1099L22.6915 10.3079H22.2835Z" fill="white" stroke="black" stroke-width="0.06"/>
<path d="M22.2415 10.6978C22.2415 10.6978 22.0495 10.5358 22.0435 10.4458V10.2358C22.1155 10.2418 22.1815 10.2598 22.2355 10.3498C22.2835 10.1758 22.3555 10.1278 22.4875 10.0498C22.6255 10.1278 22.6975 10.1758 22.7395 10.3498C22.7995 10.2598 22.8595 10.2418 22.9375 10.2298V10.4458C22.8871 10.541 22.82 10.6263 22.7395 10.6978H22.2415Z" fill="white" stroke="black" stroke-width="0.06"/>
<path d="M22.1631 11.4179C22.1631 11.4179 21.8991 11.1359 21.8931 11.0219V10.6979C21.9891 10.7099 22.0851 10.7759 22.1571 10.9139C22.2171 10.6439 22.3131 10.4579 22.4871 10.3259C22.6671 10.4579 22.7631 10.6439 22.8231 10.9139C22.8951 10.7759 22.9851 10.7099 23.0811 10.6979V11.0219C23.0631 11.1359 22.8171 11.4179 22.8171 11.4179H22.1631Z" fill="white" stroke="black" stroke-width="0.06"/>
<path d="M22.1631 11.8439C22.1631 11.8439 21.9411 11.6219 21.8931 11.5259V11.2019C21.9891 11.2139 22.0851 11.2799 22.1571 11.4119C22.1731 11.3027 22.2105 11.1977 22.2671 11.103C22.3238 11.0083 22.3985 10.9257 22.4871 10.8599C22.6671 10.9919 22.7631 11.1419 22.8231 11.4119C22.8951 11.2799 22.9851 11.2139 23.0811 11.2019V11.5259C23.0211 11.6219 22.8171 11.8439 22.8171 11.8439H22.1631Z" fill="white" stroke="black" stroke-width="0.06"/>
<path d="M22.0732 12.0958C22.1332 11.8138 22.1932 11.6038 22.4992 11.3938C22.8112 11.6038 22.8652 11.8138 22.9312 12.0958H22.0732Z" fill="white" stroke="black" stroke-width="0.06"/>
<path d="M21.9111 12.2519V11.8439C22.0551 11.9039 22.1811 11.9819 22.2291 12.0719C22.2771 11.8439 22.3791 11.7479 22.5051 11.6099C22.6311 11.7479 22.7151 11.8499 22.7691 12.0719C22.8171 11.9819 22.9431 11.8979 23.0811 11.8439V12.2519H21.9111Z" fill="white" stroke="black" stroke-width="0.06"/>
<path d="M10.64 15.5579H25.358V16.3079H10.64V15.5579ZM10.25 16.3079H25.748V17.0579H10.25V16.3079ZM11.414 14.4299H24.578V14.9159H11.414V14.4299Z" fill="white" stroke="black" stroke-width="0.06"/>
<path d="M11.0303 14.9159H24.9743V15.5519H11.0303V14.9159ZM11.6423 14.0579H24.3623V14.4299H11.6423V14.0579Z" fill="white" stroke="black" stroke-width="0.06"/>
<path d="M13.022 14.0579H13.982V17.0579H13.022V14.0579Z" fill="white" stroke="black" stroke-width="0.06"/>
<path d="M13.2379 14.0579H13.7719V17.0579H13.2319L13.2379 14.0579ZM17.4979 14.0579H18.4579V17.0579H17.4979V14.0579Z" fill="white" stroke="black" stroke-width="0.06"/>
<path d="M17.7202 14.0579H18.2602V17.0579H17.7202V14.0579ZM22.0102 14.0579H22.9702V17.0579H22.0102V14.0579Z" fill="white" stroke="black" stroke-width="0.06"/>
<path d="M22.2202 14.0579H22.7602V17.0579H22.2202V14.0579Z" fill="white" stroke="black" stroke-width="0.06"/>
<path d="M12.2183 13.752H23.7983M13.2263 16.68H13.7783M13.2263 16.302H13.7783M13.2263 15.93H13.7783M13.2263 15.552H13.7783M13.2263 15.18H13.7783M13.2263 14.802H13.7783M13.2263 14.43H13.7783M17.7263 16.68H18.2423M17.7263 16.302H18.2423M17.7263 15.93H18.2423M17.7263 15.552H18.2423M17.7263 15.18H18.2423M17.7263 14.802H18.2423M17.7263 14.43H18.2423M22.2143 16.68H22.7663M22.2143 16.302H22.7663M22.2143 15.93H22.7663M22.2143 15.552H22.7663M22.2143 15.18H22.7663M22.2143 14.802H22.7663M22.2143 14.43H22.7663" stroke="black" stroke-width="0.06"/>
</g>
<defs>
<clipPath id="clip0_11930_68087">
<rect width="36" height="24" rx="2" fill="white"/>
</clipPath>
</defs>
</svg>
