<svg width="36" height="24" viewBox="0 0 36 24" fill="none" xmlns="http://www.w3.org/2000/svg">
<g clip-path="url(#clip0_11930_68084)">
<path d="M1.99902 0H33.9959V24H1.99902V0Z" fill="black"/>
<path fill-rule="evenodd" clip-rule="evenodd" d="M0 0H36V14H0V0Z" fill="#E73E2D"/>
<path fill-rule="evenodd" clip-rule="evenodd" d="M15.6272 13.2235C14.7179 12.511 13.021 12.7548 12.7397 10.8188C14.0382 11.8267 13.8038 10.7626 15.7397 11.7235L15.6272 13.2235Z" fill="#FEC74A" stroke="#D8AA3F" stroke-width="0.0796875"/>
<path fill-rule="evenodd" clip-rule="evenodd" d="M15.8709 12.3468C15.2193 11.3905 13.5271 11.0999 13.8553 9.17334C14.7881 10.528 14.8865 9.44053 16.4428 10.9499L15.8709 12.3468Z" fill="#FEC74A" stroke="#D8AA3F" stroke-width="0.0796875"/>
<path fill-rule="evenodd" clip-rule="evenodd" d="M16.1665 11.7188C15.9322 10.5891 14.479 9.675 15.5197 8.01562C15.8572 9.62813 16.3634 8.6625 17.2259 10.65L16.1665 11.7188Z" fill="#FEC74A" stroke="#D8AA3F" stroke-width="0.0796875"/>
<path fill-rule="evenodd" clip-rule="evenodd" d="M16.8458 11.1374C16.9723 9.98897 15.8708 8.67178 17.3661 7.41553C17.1973 9.05146 17.9754 8.29209 18.1864 10.4437L16.8458 11.1374Z" fill="#FEC74A" stroke="#D8AA3F" stroke-width="0.0796875"/>
<path fill-rule="evenodd" clip-rule="evenodd" d="M17.4551 10.6735C18.0363 9.6751 17.5723 8.0251 19.452 7.49072C18.627 8.91104 19.6488 8.53604 18.9598 10.5845L17.4551 10.6735Z" fill="#FEC74A" stroke="#D8AA3F" stroke-width="0.0796875"/>
<path fill-rule="evenodd" clip-rule="evenodd" d="M18.332 10.7953C19.2039 10.0359 19.2883 8.32028 21.2383 8.40935C20.0055 9.49685 21.0977 9.46403 19.7852 11.1937L18.332 10.7953Z" fill="#FEC74A" stroke="#D8AA3F" stroke-width="0.0796875"/>
<path fill-rule="evenodd" clip-rule="evenodd" d="M19.1099 11.2452C20.1646 10.7717 20.7458 9.15925 22.5833 9.8155C21.0833 10.4952 22.138 10.7858 20.3802 12.0514L19.1099 11.2452Z" fill="#FEC74A" stroke="#D8AA3F" stroke-width="0.0796875"/>
<path fill-rule="evenodd" clip-rule="evenodd" d="M19.7617 11.9531C20.9055 11.7937 21.918 10.4062 23.4977 11.5594C21.8711 11.7891 22.7945 12.3609 20.7555 13.0828L19.7617 11.9531Z" fill="#FEC74A" stroke="#D8AA3F" stroke-width="0.0796875"/>
<path fill-rule="evenodd" clip-rule="evenodd" d="M23.8396 12.1687L18.585 12.2859L18.8053 13.7015L23.8396 12.1687Z" fill="#FEC74A" stroke="#D8AA3F" stroke-width="0.0796875"/>
<path fill-rule="evenodd" clip-rule="evenodd" d="M23.0663 10.2375L18.2007 12.1079L19.0116 13.6688L23.0663 10.2375Z" fill="#FEC74A" stroke="#D8AA3F" stroke-width="0.0796875"/>
<path fill-rule="evenodd" clip-rule="evenodd" d="M19.2037 13.1578L21.7209 8.58276L17.8584 12.1781L19.2037 13.1578Z" fill="#FEC74A" stroke="#D8AA3F" stroke-width="0.0796875"/>
<path fill-rule="evenodd" clip-rule="evenodd" d="M19.1521 12.778L19.9584 7.6499L17.4365 12.2062L19.1521 12.778Z" fill="#FEC74A" stroke="#D8AA3F" stroke-width="0.0796875"/>
<path fill-rule="evenodd" clip-rule="evenodd" d="M18.8477 12.3609L18.0039 7.19531L17.0664 12.3844L18.8477 12.3609Z" fill="#FEC74A" stroke="#D8AA3F" stroke-width="0.0796875"/>
<path fill-rule="evenodd" clip-rule="evenodd" d="M18.4115 11.9204L15.96 7.60791L16.8975 12.8485L18.4115 11.9204Z" fill="#FEC74A" stroke="#D8AA3F" stroke-width="0.0796875"/>
<path fill-rule="evenodd" clip-rule="evenodd" d="M18.032 11.8875L14.2305 8.67651L16.9305 13.2703L18.032 11.8875Z" fill="#FEC74A" stroke="#D8AA3F" stroke-width="0.0796875"/>
<path fill-rule="evenodd" clip-rule="evenodd" d="M12.8945 10.261L16.9727 13.6313L17.6008 11.8688L12.8945 10.261Z" fill="#FEC74A" stroke="#D8AA3F" stroke-width="0.0796875"/>
<path fill-rule="evenodd" clip-rule="evenodd" d="M16.9301 12.2297L12.1348 12.1594L16.9113 13.7532L16.9301 12.2297Z" fill="#FEC74A" stroke="#D8AA3F" stroke-width="0.0796875"/>
<path fill-rule="evenodd" clip-rule="evenodd" d="M20.8208 13.0874C20.8364 13.4749 20.7736 13.8614 20.6362 14.224C20.4987 14.5865 20.2894 14.9176 20.0208 15.1972C19.7522 15.4769 19.4299 15.6994 19.0732 15.8514C18.7165 16.0033 18.3328 16.0817 17.945 16.0817C17.5573 16.0817 17.1735 16.0033 16.8168 15.8514C16.4601 15.6994 16.1378 15.4769 15.8692 15.1972C15.6006 14.9176 15.3913 14.5865 15.2539 14.224C15.1164 13.8614 15.0536 13.4749 15.0692 13.0874C15.0992 12.3448 15.4153 11.6426 15.9514 11.1278C16.4874 10.6129 17.2018 10.3254 17.945 10.3254C18.6882 10.3254 19.4026 10.6129 19.9387 11.1278C20.4747 11.6426 20.7908 12.3448 20.8208 13.0874Z" fill="#FEC74A" stroke="#D8AA3F" stroke-width="0.0796875"/>
<path fill-rule="evenodd" clip-rule="evenodd" d="M-1.68867 14.2219H37.6816V24H-1.69336L-1.68867 14.2219Z" fill="#005989"/>
<path fill-rule="evenodd" clip-rule="evenodd" d="M-1.71172 21.2813C-0.980469 21.6188 0.0695313 22.4673 1.19453 22.4673C3.06953 22.4532 3.11641 21.1829 5.01953 21.2438C6.92734 21.2907 6.58047 22.6313 9.15391 22.6267C11.282 22.6173 11.9664 21.0001 13.8039 21.1923C15.1633 21.122 15.7164 22.7251 17.8023 22.7485C19.968 22.7954 20.7602 21.0001 22.1148 21.1501C23.568 21.1501 24.0367 22.5938 26.0664 22.6032C28.6539 22.6173 29.1086 21.1032 30.7211 21.197C31.8742 21.1735 32.7836 22.3079 34.4711 22.336C35.8117 22.3595 36.9414 21.3423 37.7055 20.9767L37.7383 19.2517C36.9414 19.547 35.7508 20.522 34.5648 20.5313C32.8492 20.597 31.7945 19.4063 30.6039 19.4204C29.1789 19.4345 28.6117 20.8876 26.1977 20.8876C23.9852 20.8876 23.4789 19.4204 22.0539 19.4204C20.6617 19.4298 20.2352 21.0142 17.8211 20.986C15.8523 20.9626 15.0883 19.472 13.6961 19.486C12.2195 19.486 10.6961 20.9345 9.05547 20.8642C6.80547 20.7704 6.31328 19.486 4.83672 19.486C3.73516 19.486 2.53984 20.686 1.21328 20.7048C-0.108594 20.7282 -1.59453 19.5095 -1.73047 19.486L-1.71172 21.2813ZM-1.71172 17.8595C-0.980469 18.2017 0.0695313 19.0501 1.19453 19.0501C3.06953 19.036 3.11641 17.7657 5.01953 17.822C6.92734 17.8688 6.58047 19.2142 9.15391 19.2048C11.282 19.2048 11.9664 17.5829 13.8039 17.7751C15.1633 17.7048 15.7164 19.3079 17.8023 19.3267C19.968 19.3735 20.7602 17.5829 22.1148 17.7329C23.568 17.7329 24.0367 19.1767 26.0664 19.186C28.6539 19.2001 29.1086 17.686 30.7211 17.7798C31.8742 17.7563 32.7836 18.8907 34.4711 18.9188C35.8117 18.9423 36.9414 17.9251 37.7055 17.5595L37.7383 15.8345C36.9414 16.1298 35.7508 17.1001 34.5648 17.1142C32.8492 17.1751 31.7945 15.9892 30.6039 16.0032C29.1789 16.0173 28.6117 17.4704 26.1977 17.4704C23.9852 17.4704 23.4789 16.0032 22.0539 16.0032C20.6617 16.0126 20.2352 17.597 17.8211 17.5688C15.8523 17.5454 15.0883 16.0548 13.6961 16.0688C12.2195 16.0688 10.6961 17.5126 9.05547 17.4423C6.80547 17.3485 6.31328 16.0642 4.83672 16.0642C3.73516 16.0642 2.53984 17.2688 1.21328 17.2876C-0.108594 17.3063 -1.59453 16.0923 -1.73047 16.0688L-1.71172 17.8642V17.8595Z" fill="white"/>
<path fill-rule="evenodd" clip-rule="evenodd" d="M-1.71172 14.4843C-0.980469 14.8218 0.0695314 15.6656 1.18984 15.6656C3.06484 15.6562 3.11172 14.3812 5.01484 14.4421C6.91797 14.489 6.57109 15.8296 9.14453 15.825C11.268 15.8203 11.957 14.1984 13.7852 14.3953C15.1445 14.325 15.6977 15.9281 17.7836 15.9468C19.9445 15.9937 20.7367 14.1984 22.0961 14.3484C23.5398 14.3484 24.018 15.7921 26.043 15.8015C28.6211 15.8156 29.0758 14.3015 30.693 14.3953C31.8414 14.3718 32.7508 15.5062 34.4336 15.5343C35.7789 15.5578 36.9039 14.5406 37.668 14.175L37.7008 12.45C36.9039 12.75 35.718 13.7203 34.5273 13.7296C32.8211 13.7953 31.7617 12.6093 30.5711 12.6187C29.1508 12.6328 28.5836 14.0859 26.1648 14.0859C23.9617 14.0859 23.4555 12.6187 22.0305 12.6187C20.6383 12.6328 20.2117 14.2125 17.807 14.1843C15.8383 14.1609 15.0742 12.675 13.682 12.6843C12.2055 12.6843 10.682 14.1328 9.05078 14.0625C6.79609 13.9687 6.30859 12.6843 4.83203 12.6843C3.73047 12.6843 2.53984 13.8843 1.21328 13.9031C-0.108594 13.9265 -1.58984 12.7125 -1.73047 12.6843L-1.71172 14.4796V14.4843Z" fill="white"/>
<path fill-rule="evenodd" clip-rule="evenodd" d="M12.4629 3.56245C15.3223 3.36558 14.8066 3.12183 15.9551 2.93433C17.4082 3.13589 17.5723 4.01245 18.3832 4.55151C18.3832 4.55151 18.0785 5.58276 17.0848 5.43745C16.9488 5.02495 17.5629 4.8937 15.7957 3.81558C14.7645 3.75464 12.9223 3.99839 12.4676 3.56245H12.4629ZM21.3363 5.15151L19.2738 5.23589V5.74683C20.666 5.7937 20.9145 5.6062 21.3363 5.15151Z" fill="#FFC84B" stroke="#D8AA3F" stroke-width="0.084375"/>
<path fill-rule="evenodd" clip-rule="evenodd" d="M14.2441 5.0624C14.6051 4.87959 14.7832 4.95459 15.0973 4.94522C15.3082 5.33428 15.5098 5.36709 15.9785 5.41397C16.1859 5.72135 16.464 5.97455 16.7894 6.15235C17.1148 6.33014 17.4781 6.42736 17.8488 6.43584C19.2504 6.39834 19.6957 5.41865 20.6379 5.31084H21.6316C21.4676 5.02959 21.3363 4.86553 20.9754 4.84678C20.2348 4.80928 19.2785 4.82803 18.4441 5.01553L17.2676 5.31084C16.9207 5.14209 16.0816 4.26084 15.5426 4.27959C15.2285 4.36397 15.2285 4.47178 15.0738 4.59365C14.7691 4.7249 14.4645 4.65928 14.2441 5.0624Z" fill="#FFC84B" stroke="#D8AA3F" stroke-width="0.0796875" stroke-linejoin="round"/>
<path fill-rule="evenodd" clip-rule="evenodd" d="M15.6648 4.64068C15.6687 4.66227 15.6678 4.68445 15.6621 4.70564C15.6565 4.72684 15.6463 4.74655 15.6322 4.76337C15.6181 4.78019 15.6005 4.79371 15.5807 4.803C15.5608 4.81228 15.5391 4.81709 15.5172 4.81709C15.4953 4.81709 15.4736 4.81228 15.4537 4.803C15.4338 4.79371 15.4162 4.78019 15.4022 4.76337C15.3881 4.74655 15.3779 4.72684 15.3722 4.70564C15.3666 4.68445 15.3657 4.66227 15.3695 4.64068C15.3757 4.60603 15.3939 4.57466 15.4209 4.55206C15.4479 4.52947 15.482 4.51709 15.5172 4.51709C15.5524 4.51709 15.5865 4.52947 15.6135 4.55206C15.6405 4.57466 15.6586 4.60603 15.6648 4.64068Z" fill="#FFC84B" stroke="#D8AA3F" stroke-width="0.0796875"/>
<path fill-rule="evenodd" clip-rule="evenodd" d="M16.6254 5.05308C18.7301 2.51714 20.5676 2.82651 22.9676 2.65308C23.0473 2.94839 23.0145 3.38901 21.8754 3.77808C20.3098 4.01245 17.5113 5.66245 17.4973 5.66245C16.977 5.63433 16.6113 5.09058 16.6254 5.05308Z" fill="#FFC84B" stroke="#D8AA3F" stroke-width="0.084375"/>
<path d="M20.952 3.39844L22.5035 3.46875M20.7832 3.65625L21.9129 3.75" stroke="#D9A43E" stroke-width="0.084375" stroke-linecap="round"/>
</g>
<defs>
<clipPath id="clip0_11930_68084">
<rect width="36" height="24" rx="2" fill="white"/>
</clipPath>
</defs>
</svg>
