<svg width="36" height="24" viewBox="0 0 36 24" fill="none" xmlns="http://www.w3.org/2000/svg">
<g clip-path="url(#clip0_11930_68081)">
<path fill-rule="evenodd" clip-rule="evenodd" d="M0 0H36.0375V6H0V0Z" fill="#FFCB49"/>
<path fill-rule="evenodd" clip-rule="evenodd" d="M0 6H36.0375V12H0V6Z" fill="white"/>
<path fill-rule="evenodd" clip-rule="evenodd" d="M0 12H36.0375V18H0V12Z" fill="#DC1D34"/>
<path fill-rule="evenodd" clip-rule="evenodd" d="M0 18H36.0375V24H0V18Z" fill="#4985D4"/>
<path fill-rule="evenodd" clip-rule="evenodd" d="M0 0V24L17.9016 12.0328L0 0Z" fill="#239E46"/>
<path fill-rule="evenodd" clip-rule="evenodd" d="M7.36882 6.62802C3.38445 6.42646 1.56101 9.60459 1.5657 12.0608C1.55632 14.9671 4.31257 17.3577 6.8532 17.2171C5.48445 16.5702 3.80632 14.7468 3.79695 12.0468C3.78289 9.60459 5.17976 7.47646 7.37351 6.62802H7.36882Z" fill="white"/>
<path fill-rule="evenodd" clip-rule="evenodd" d="M7.31255 9.23435L6.75005 8.79841L6.06567 9.01404L6.30942 8.33904L5.89692 7.75779L6.60942 7.78591L7.0313 7.20935L7.23286 7.89841L7.90786 8.12341L7.31724 8.52185L7.31255 9.23435ZM7.29849 11.6765L6.73599 11.2359L6.05161 11.4515L6.30005 10.7812L5.88286 10.2L6.60005 10.2234L7.02192 9.65154L7.2188 10.3359L7.89849 10.5656L7.30317 10.964L7.29849 11.6765ZM7.30786 14.1422L6.74536 13.7015L6.06567 13.9172L6.30942 13.2469L5.89692 12.6656L6.60942 12.689L7.0313 12.1172L7.23286 12.8015L7.90786 13.0265L7.31724 13.4297L7.30786 14.1422ZM7.29849 16.6265L6.73599 16.1906L6.04692 16.4062L6.29536 15.7312L5.87817 15.15L6.59536 15.1781L7.01724 14.6015L7.21411 15.2906L7.8938 15.5156L7.29849 15.914V16.6265Z" fill="white"/>
</g>
<defs>
<clipPath id="clip0_11930_68081">
<rect width="36" height="24" rx="2" fill="white"/>
</clipPath>
</defs>
</svg>
