<svg width="36" height="24" viewBox="0 0 36 24" fill="none" xmlns="http://www.w3.org/2000/svg">
<rect width="36" height="24" rx="2" fill="#0043AD"/>
<path d="M14.0005 11.2865C14.0005 11.2865 14.0711 11.2425 14.0976 11.2359C14.1241 11.2293 14.2158 11.2029 14.2158 11.2029C14.2158 11.2029 14.2743 11.1743 14.3052 11.1743C14.3383 11.1743 14.4023 11.2073 14.4233 11.2348C14.4421 11.2634 14.5458 11.3119 14.5458 11.3119C14.5458 11.3119 14.6165 11.3339 14.6308 11.3119C14.6452 11.2898 14.6761 11.2733 14.7081 11.2733C14.7401 11.2733 14.7456 11.2447 14.7456 11.2227C14.7456 11.2007 14.76 11.172 14.7832 11.1456C14.8086 11.117 14.8604 11.1016 14.8604 11.1016C14.8604 11.1016 14.9311 11.073 14.9377 11.0355C14.9443 10.9981 15.015 10.9695 15.0558 10.9629C15.0934 10.9574 15.0558 10.9409 15.1596 10.9508C15.2634 10.9629 15.2777 10.9287 15.2821 10.9001C15.2887 10.8715 15.2821 10.844 15.3484 10.8495C15.4146 10.855 15.4455 10.855 15.4455 10.8209C15.4455 10.7867 15.504 10.7702 15.4002 10.7438C15.2965 10.7152 15.3031 10.7383 15.2965 10.6931C15.2898 10.648 15.2965 10.6546 15.2258 10.6491C15.1552 10.6436 15.1927 10.6106 15.1883 10.5765C15.1817 10.5434 15.1629 10.5258 15.1508 10.5038C15.1364 10.4818 15.0989 10.4818 15.0989 10.4487C15.0989 10.4157 15.0923 10.3981 15.0536 10.3981C15.015 10.3981 15.0017 10.3981 15.0017 10.3651C15.0017 10.332 15.0084 10.3045 15.047 10.3045C15.0856 10.3045 15.1055 10.2759 15.0989 10.244C15.0923 10.212 15.0923 10.1394 15.0923 10.1394L15.1441 10.0832C15.1441 10.0832 15.2998 9.96654 15.313 9.94453C15.3263 9.92251 15.3793 9.90599 15.4024 9.95003C15.4278 9.99407 15.44 10.0062 15.461 10.0271C15.4797 10.0491 15.5382 10.0326 15.5504 10.0106C15.5647 9.98856 15.5691 9.90709 15.6045 9.86306C15.6387 9.82012 15.663 9.7981 15.6718 9.76287C15.6806 9.72764 15.6972 9.69792 15.7391 9.69792C15.7811 9.69792 15.8065 9.64728 15.8065 9.61865C15.8065 9.59003 15.8241 9.56141 15.8738 9.5537C15.9235 9.54599 15.95 9.51847 15.9676 9.56141C15.9853 9.60434 16.0019 9.60434 16.035 9.61865C16.0692 9.63297 16.12 9.65388 16.1443 9.63297C16.1697 9.61095 16.1818 9.57572 16.2204 9.59774C16.2569 9.61975 16.2823 9.59774 16.2911 9.5548C16.2999 9.51186 16.3087 9.45462 16.3087 9.45462C16.3087 9.45462 16.3176 9.42489 16.3761 9.42489C16.4346 9.42489 16.3937 9.38966 16.4258 9.36764C16.46 9.34563 16.46 9.32471 16.5019 9.33792C16.5439 9.35223 16.6112 9.3203 16.5781 9.28508C16.5439 9.24985 16.4688 9.1915 16.5108 9.14746C16.5527 9.10452 16.5693 9.03186 16.5284 9.02526C16.4876 9.01865 16.4269 9.03297 16.4191 8.99003C16.4103 8.94709 16.3937 8.91737 16.4445 8.91076C16.4942 8.90306 16.5792 8.90306 16.6057 8.88104C16.6322 8.85902 16.715 8.84581 16.715 8.78086C16.715 8.7159 16.7404 8.70819 16.7492 8.67297C16.758 8.63774 16.758 8.56177 16.7238 8.52654C16.6896 8.49131 16.6388 8.43957 16.63 8.41865C16.6211 8.39664 16.588 8.36141 16.5361 8.34599C16.4865 8.33168 16.4423 8.32397 16.4423 8.28875C16.4423 8.25352 16.4765 8.29645 16.4765 8.20177C16.4765 8.10709 16.4092 8.09388 16.4092 8.09388L16.3076 8.03663C16.3076 8.03663 16.1277 7.9926 16.0791 7.9926C16.0306 7.9926 15.9754 7.94526 16.0306 7.91553C16.0858 7.88581 16.1001 7.83296 16.0791 7.79113C16.0582 7.7493 16.0449 7.72067 15.9687 7.70196C15.8926 7.68324 15.8716 7.66673 15.9069 7.62489C15.9423 7.58306 15.9489 7.55443 15.9897 7.58306C16.0306 7.61168 16.1001 7.62489 16.1553 7.60067C16.2105 7.57645 16.2315 7.55884 16.2591 7.58306C16.2867 7.60728 16.3209 7.6304 16.3628 7.59517C16.4048 7.55994 16.481 7.55333 16.5152 7.57205C16.5494 7.59076 16.6333 7.58416 16.6609 7.57205C16.6885 7.55994 16.7437 7.5192 16.7437 7.49498C16.7437 7.47076 16.7779 7.43003 16.8132 7.41241C16.8486 7.3948 16.8894 7.33535 16.9236 7.33535C16.9578 7.33535 16.9722 7.30012 16.9722 7.2759C16.9722 7.25168 16.9998 7.20544 17.0064 7.18673C17.013 7.16801 17.0826 7.14379 17.1311 7.18122C17.1797 7.21645 17.2415 7.22856 17.2415 7.22856C17.2415 7.22856 17.3111 7.24067 17.3453 7.22856C17.3795 7.21645 17.4281 7.20544 17.4767 7.23407C17.5252 7.26269 17.5948 7.26379 17.5948 7.26379C17.5948 7.26379 17.6091 7.21645 17.6091 7.19333C17.6091 7.17021 17.6235 7.12838 17.5948 7.11076C17.5661 7.09315 17.533 7.06893 17.5882 7.0337C17.6434 6.99847 17.6434 7.00397 17.6986 7.00397C17.7537 7.00397 17.788 7.00948 17.8299 7.00948C17.8719 7.00948 17.9403 7.04471 17.9403 7.07994C17.9403 7.11517 17.9679 7.13939 18.0021 7.157C18.0363 7.17462 18.0783 7.19223 18.0639 7.22196C18.0496 7.25168 18.0496 7.2748 18.0915 7.2693C18.1335 7.26379 18.1467 7.28691 18.1467 7.31663C18.1467 7.34636 18.1611 7.36397 18.2019 7.37608C18.2428 7.38819 18.2637 7.41131 18.2637 7.44104C18.2637 7.47076 18.2571 7.48838 18.2704 7.5181C18.2847 7.54783 18.3256 7.59517 18.3256 7.59517C18.3256 7.59517 18.4017 7.67774 18.3046 7.637C18.2074 7.59627 18.1865 7.57755 18.1523 7.58416C18.118 7.59076 18.0971 7.60728 18.0971 7.60728C18.0971 7.60728 18.0485 7.61939 18.0143 7.61939C17.98 7.61939 17.9447 7.68434 17.9999 7.69645C18.0551 7.70856 18.0761 7.71957 18.0761 7.76141C18.0761 7.80324 18.0551 7.79113 18.0275 7.82086C17.9999 7.85058 17.9789 7.83297 17.9304 7.83297C17.8818 7.83297 17.8686 7.86819 17.8686 7.90342C17.8686 7.93865 17.8895 7.93315 17.9105 7.96287C17.9315 7.9926 17.9657 7.9981 17.9999 7.96838C18.0341 7.93865 18.0617 7.92104 18.0827 7.97388C18.1037 8.02673 18.1313 8.02673 18.1721 8.02673C18.213 8.02673 18.2273 8.02673 18.2615 8.00911C18.2958 7.9915 18.3377 8.00911 18.3443 8.05645C18.351 8.10379 18.3863 8.1093 18.4205 8.12691C18.4547 8.14452 18.4757 8.15664 18.4823 8.18636C18.4889 8.21608 18.5099 8.22819 18.5441 8.20948C18.5784 8.19076 18.6336 8.17975 18.6545 8.20397C18.6755 8.22819 18.7097 8.27443 18.7097 8.27443L18.7163 8.33388L18.8477 8.37572C18.8477 8.37572 18.8621 8.40544 18.8621 8.42856C18.8621 8.45168 18.883 8.46379 18.9173 8.45829C18.9515 8.45278 19.0144 8.45829 19.0144 8.45829C19.0144 8.45829 19.063 8.44067 19.063 8.40544C19.063 8.37021 19.0839 8.3581 19.1182 8.3581C19.1524 8.3581 19.2286 8.38122 19.2495 8.34599C19.2705 8.31076 19.3323 8.29865 19.3809 8.31627C19.4295 8.33388 19.5542 8.38122 19.5542 8.38122C19.5542 8.38122 19.5398 8.38673 19.5818 8.44618C19.6237 8.50563 19.6999 8.50563 19.6999 8.50563C19.6999 8.50563 19.7065 8.55847 19.7209 8.58269C19.7352 8.60691 19.7971 8.61792 19.8313 8.5948C19.8655 8.57168 19.9141 8.54196 19.956 8.54196C19.998 8.54196 20.0256 8.54196 20.0256 8.51884C20.0256 8.49572 19.9836 8.477 19.9836 8.44177C19.9836 8.40654 20.0256 8.40654 20.0322 8.37131C20.0388 8.33608 20.0808 8.37131 20.1084 8.38893C20.136 8.40654 20.1702 8.43627 20.1702 8.45939C20.1702 8.48251 20.2254 8.56618 20.2596 8.57719C20.2938 8.5882 20.3843 8.5948 20.4119 8.56508C20.4395 8.53535 20.5091 8.52324 20.5013 8.5948C20.4936 8.66636 20.4804 8.67186 20.5289 8.69498C20.5775 8.7181 20.5841 8.80177 20.5433 8.82489C20.5024 8.84801 20.4881 8.85462 20.4881 8.89535C20.4881 8.93608 20.4737 8.98452 20.5091 9.00764C20.5444 9.03076 20.5643 9.04948 20.5643 9.0726C20.5643 9.09572 20.6062 9.20251 20.6062 9.20251C20.6062 9.20251 20.6272 9.3093 20.6206 9.33241C20.6139 9.35553 20.5996 9.39737 20.6625 9.39186C20.7254 9.38636 20.7387 9.38636 20.7387 9.4337C20.7387 9.48104 20.7597 9.49865 20.7243 9.51627C20.689 9.53388 20.6691 9.59333 20.7034 9.60544C20.7376 9.61755 20.7652 9.63517 20.7729 9.65829C20.7806 9.68141 20.8347 9.72324 20.87 9.70012C20.9054 9.677 20.912 9.66489 20.9396 9.65829C20.9672 9.65168 20.9882 9.63517 20.9606 9.60544C20.933 9.57572 20.9263 9.54599 20.9539 9.52838C20.9815 9.51076 20.9959 9.45131 20.9959 9.45131C20.9959 9.45131 21.0378 9.39847 21.0853 9.45131C21.1328 9.50416 21.1405 9.48654 21.1747 9.48654C21.2089 9.48654 21.2233 9.51627 21.2233 9.54599C21.2233 9.57572 21.2928 9.56911 21.2928 9.61645C21.2928 9.66379 21.3072 9.77608 21.3072 9.77608C21.3072 9.77608 21.3072 9.84104 21.3491 9.86526C21.3911 9.88948 21.3834 9.89498 21.3635 9.92471C21.3436 9.95443 21.3491 10.0018 21.3491 10.0249C21.3491 10.048 21.3635 10.0601 21.3282 10.0843C21.2928 10.1086 21.2796 10.1372 21.3006 10.1735C21.3215 10.2098 21.3149 10.233 21.3701 10.2737C21.4253 10.3144 21.4187 10.3331 21.4187 10.3629C21.4187 10.3926 21.4739 10.4333 21.4739 10.4631C21.4739 10.4928 21.5158 10.528 21.55 10.5335C21.5843 10.539 21.6262 10.593 21.6262 10.6227C21.6262 10.6524 21.6328 10.7295 21.6328 10.7295C21.6328 10.7295 21.6262 10.7471 21.6671 10.7471C21.7079 10.7471 21.7366 10.7889 21.7499 10.7416C21.7631 10.6943 21.805 10.6887 21.8326 10.6766C21.8602 10.6645 21.9154 10.6414 21.943 10.659C21.9706 10.6766 22.0048 10.6766 22.0324 10.6766C22.06 10.6766 22.1914 10.6821 22.1914 10.6821C22.1914 10.6821 22.2256 10.6766 22.2466 10.724C22.2676 10.7713 22.3294 10.8242 22.2952 10.8484C22.261 10.8726 22.261 10.9188 22.3018 10.9188C22.3426 10.9188 22.3846 10.9188 22.3846 10.9486C22.3846 10.9783 22.3912 11.0014 22.4265 10.9838C22.4619 10.9662 22.4817 10.9607 22.4961 10.9838C22.5104 11.0069 22.538 11.0069 22.5723 11.0256C22.6065 11.0443 22.6208 11.0311 22.6418 11.008C22.6628 10.9849 22.7456 10.9607 22.7456 10.9607C22.7456 10.9607 22.856 10.9376 22.8979 10.9486C22.9398 10.9596 22.995 10.9838 22.995 10.9838C22.995 10.9838 23.0226 11.0432 23.0094 11.0785C22.9961 11.1137 22.9818 11.1082 22.995 11.161C23.0083 11.2139 22.9807 11.2205 22.9531 11.2139C22.9255 11.2073 22.8979 11.2084 22.8979 11.2557C22.8979 11.3031 22.8703 11.3152 22.8703 11.3559C22.8703 11.3966 22.8703 11.3911 22.8427 11.4087C22.8151 11.4264 22.8085 11.4561 22.8493 11.4616C22.8902 11.4671 22.8769 11.5089 22.8769 11.532C22.8769 11.5552 22.8703 11.6091 22.8703 11.6091C22.8703 11.6091 22.8769 11.6388 22.8284 11.6388C22.7798 11.6388 22.7389 11.6333 22.7312 11.662C22.7235 11.6906 22.6694 11.739 22.7169 11.7687C22.7643 11.7985 22.7511 11.8161 22.7235 11.8282C22.6959 11.8403 22.6749 11.8987 22.7301 11.9174C22.7853 11.9361 22.7787 11.9526 22.7445 11.9768C22.7102 12.001 22.6407 12.0187 22.6407 12.0539C22.6407 12.0891 22.6263 12.0891 22.5855 12.0957C22.5447 12.1023 22.5237 12.1486 22.5711 12.208C22.6186 12.2675 22.633 12.2554 22.6683 12.2554C22.7036 12.2554 22.7025 12.208 22.7025 12.208C22.7025 12.208 22.8206 12.2135 22.8548 12.2135C22.8891 12.2135 22.9376 12.2135 22.9652 12.1959C22.9928 12.1783 23.069 12.1486 23.069 12.2014C23.069 12.2543 23.0834 12.2487 23.1176 12.2719C23.1518 12.295 23.1595 12.2774 23.1871 12.3137C23.2147 12.35 23.2213 12.3192 23.2423 12.2785C23.2633 12.2377 23.3041 12.1959 23.3395 12.2432C23.3748 12.2906 23.3737 12.2785 23.4156 12.2785C23.4576 12.2785 23.4708 12.2961 23.4708 12.3258C23.4708 12.3555 23.5128 12.3555 23.5602 12.3489C23.6077 12.3423 23.6154 12.372 23.6364 12.4018C23.6574 12.4315 23.664 12.4249 23.6916 12.4249C23.7192 12.4249 23.7468 12.4249 23.7678 12.4018C23.7887 12.3787 23.8163 12.3489 23.8439 12.3842C23.8715 12.4194 23.9267 12.4139 23.9411 12.372C23.9554 12.3302 24.0173 12.295 24.0515 12.3423C24.0857 12.3897 24.1133 12.3897 24.1486 12.3952C24.1839 12.4007 24.2314 12.4007 24.2524 12.4304C24.2734 12.4601 24.3418 12.5075 24.2943 12.5427C24.2469 12.5779 24.1906 12.6253 24.2325 12.6374C24.2745 12.6495 24.3021 12.6605 24.3297 12.6902C24.3573 12.7199 24.4478 12.732 24.4886 12.7376C24.5295 12.7431 24.5648 12.7497 24.6134 12.7144C24.6619 12.6792 24.7105 12.6792 24.7028 12.7265C24.695 12.7739 24.7237 12.8267 24.7237 12.8267C24.7237 12.8267 24.758 12.9038 24.758 12.9335C24.758 12.9632 24.7513 12.9687 24.8132 13.004C24.875 13.0392 24.8684 13.0634 24.9169 13.0271C24.9655 12.9908 24.9787 12.9743 24.9787 12.9445V12.8498C24.9787 12.8498 25.0483 12.8377 25.0759 12.8201C25.1035 12.8025 25.2139 12.7497 25.2415 12.7728C25.2691 12.7959 25.3033 12.7904 25.3309 12.7783C25.3585 12.7662 25.4137 12.7662 25.4413 12.7662C25.4689 12.7662 25.5174 12.7717 25.5726 12.7309C25.6278 12.6902 25.6278 12.7012 25.6621 12.7309C25.6963 12.7607 25.6963 12.7959 25.6764 12.8201C25.6565 12.8443 25.6764 12.8972 25.725 12.8972C25.7736 12.8972 25.7868 12.9203 25.7868 12.95C25.7868 12.9798 25.7934 13.0205 25.8011 13.0447C25.8089 13.0689 25.8078 13.0799 25.8839 13.0976C25.9601 13.1152 25.9458 13.157 25.9601 13.1867C25.9745 13.2165 25.9745 13.2396 25.9325 13.2396C25.8906 13.2396 25.8773 13.2572 25.8707 13.2869C25.8641 13.3166 25.8011 13.3287 25.8011 13.3287L25.7393 13.3166C25.7393 13.3166 25.6974 13.3166 25.6775 13.3398C25.6576 13.3629 25.6157 13.4102 25.6433 13.452C25.6709 13.4939 25.6709 13.517 25.6433 13.5346C25.6157 13.5522 25.6013 13.6414 25.5737 13.6238C25.5461 13.6062 25.5119 13.6293 25.4843 13.6414C25.4567 13.6535 25.4634 13.7361 25.5186 13.7658C25.5737 13.7955 25.5881 13.8363 25.5881 13.8363L25.6499 13.9254C25.6499 13.9254 25.6289 13.9431 25.6157 13.9728C25.6024 14.0025 25.5605 14.062 25.6013 14.073C25.6422 14.084 25.6223 14.15 25.5804 14.15C25.5384 14.15 25.491 14.1324 25.4832 14.1798C25.4755 14.2271 25.4556 14.215 25.4137 14.2095C25.3717 14.204 25.268 14.1798 25.2404 14.2271C25.2128 14.2744 25.2061 14.292 25.1576 14.2865C25.109 14.281 25.13 14.357 25.1432 14.3867C25.1565 14.4165 25.205 14.4572 25.205 14.4572C25.205 14.4572 25.247 14.4869 25.247 14.5464C25.247 14.6058 25.2194 14.5992 25.1918 14.5585C25.1642 14.5177 25.109 14.5232 25.1024 14.5706C25.0958 14.6179 25.088 14.6884 25.0406 14.6884C24.9931 14.6884 24.971 14.7005 24.9511 14.7236C24.9313 14.7467 24.896 14.7886 24.896 14.8128C24.896 14.837 24.8893 14.8601 24.854 14.8656C24.8187 14.8711 24.8121 14.9361 24.8121 14.9361C24.8121 14.9361 24.7293 14.9482 24.7226 14.9779C24.716 15.0076 24.7293 15.055 24.6608 15.0605C24.5924 15.066 24.5504 15.1078 24.5295 15.1376C24.5085 15.1673 24.5019 15.1904 24.5295 15.2201C24.5571 15.2498 24.578 15.3445 24.6123 15.3621C24.6465 15.3798 24.6741 15.3853 24.6674 15.4326C24.6608 15.4799 24.6189 15.5152 24.6741 15.5152C24.7293 15.5152 24.7635 15.5273 24.7436 15.568C24.7237 15.6087 24.7226 15.6154 24.6818 15.633C24.641 15.6506 24.62 15.6506 24.62 15.6979C24.62 15.7453 24.6343 15.7453 24.599 15.7629C24.5637 15.7805 24.5648 15.8047 24.5648 15.8399C24.5648 15.8752 24.5504 15.8631 24.5096 15.9049C24.4687 15.9467 24.4124 15.9467 24.3782 15.9346C24.344 15.9225 24.3363 15.9225 24.3297 15.8873C24.323 15.852 24.2601 15.852 24.2259 15.8576C24.1917 15.8631 24.1431 15.8994 24.1431 15.8994C24.1431 15.8994 24.0813 15.9346 24.1089 15.9643C24.1365 15.9941 24.1232 16.0414 24.0747 16.0348C24.0261 16.0282 23.9157 16.0821 23.8815 16.0293C23.8473 15.9765 23.7501 15.9401 23.7358 16.0117C23.7214 16.0832 23.7777 16.0766 23.77 16.1471C23.7623 16.2176 23.749 16.2176 23.7214 16.2418C23.6938 16.266 23.6938 16.2836 23.6872 16.3122C23.6806 16.3409 23.6728 16.4069 23.7214 16.43C23.77 16.4531 23.791 16.5192 23.791 16.5544C23.791 16.5897 23.791 16.6249 23.8395 16.6249C23.8881 16.6249 23.9289 16.6194 23.9367 16.5776C23.9444 16.5357 24.0404 16.5126 24.0471 16.5952C24.0537 16.6777 24.0537 16.7196 24.089 16.7548C24.1243 16.79 24.1508 16.8374 24.1784 16.855C24.206 16.8726 24.2524 17.0234 24.2524 17.0234C24.185 17.0366 24.1674 17.1181 24.1243 17.1346C24.1 17.1434 24.0747 17.1357 24.0515 17.1511C24.0338 17.1632 24.0338 17.1853 24.0095 17.1952C23.9599 17.2161 23.9676 17.1434 23.908 17.1698C23.8528 17.193 23.8473 17.2524 23.7678 17.2271C23.7258 17.2139 23.7004 17.0631 23.6883 17.0278C23.6817 17.0069 23.6386 16.9453 23.6243 16.9254C23.5779 16.8605 23.4841 16.9254 23.4554 16.9067C23.409 16.877 23.43 16.8275 23.3582 16.8209C23.2147 16.812 23.3163 16.9023 23.2567 16.9232C23.1408 16.9618 23.1408 16.8231 23.0547 16.8858C23.0215 16.9089 23.1065 16.9243 23.0856 16.9651C23.0679 16.9992 22.984 17.0509 22.9884 17.0906C22.995 17.1456 23.0591 17.161 23.0778 17.2073C23.1297 17.3284 23.0436 17.4131 22.9134 17.3185C22.8405 17.2656 22.8273 17.1665 22.7147 17.1732C22.6893 17.1743 22.6804 17.1996 22.6539 17.2029C22.6286 17.204 22.6076 17.1809 22.58 17.1886C22.538 17.2018 22.5745 17.2282 22.5656 17.2502C22.5656 17.2502 22.5104 17.2931 22.5016 17.3053C22.4707 17.3438 22.4806 17.3779 22.4354 17.4087C22.3978 17.4352 22.368 17.4187 22.3261 17.4605C22.283 17.5034 22.2797 17.5673 22.2245 17.608C22.1969 17.6289 22.1782 17.5464 22.1428 17.6003C22.1373 17.608 22.1329 17.6146 22.1285 17.6223C22.1197 17.6388 22.1186 17.6454 22.1263 17.6642C22.1991 17.7941 22.0468 17.8425 22.0004 17.935C21.9795 17.9735 22.0369 18.0087 22.0148 18.0385C21.9993 18.0605 21.932 18.121 21.9265 18.1343C21.921 18.1475 21.9143 18.1772 21.9022 18.1871C21.89 18.1992 21.8481 18.1926 21.8448 18.2102C21.8415 18.2311 21.8878 18.2476 21.9 18.2609C21.9154 18.2774 21.8934 18.2994 21.8978 18.3038C21.975 18.3765 21.9287 18.3544 21.9684 18.4172C21.9739 18.426 21.9982 18.4095 22.006 18.4337C22.0148 18.4557 21.9872 18.4546 21.9971 18.4799C21.9993 18.4876 22.0545 18.5548 22.0545 18.5548C22.0578 18.5768 21.9486 18.6231 21.9254 18.6231C21.8591 18.6242 21.9828 18.4976 21.8757 18.4976C21.8293 18.4976 21.826 18.5966 21.8139 18.6065C21.8084 18.6109 21.7653 18.6065 21.7554 18.6065C21.6858 18.6065 21.6417 18.6858 21.6141 18.6935C21.5964 18.699 21.5589 18.6847 21.5291 18.6891C21.5015 18.6935 21.4684 18.7188 21.443 18.7188C21.4253 18.7188 21.4176 18.7089 21.4032 18.7012C21.3723 18.6847 21.3149 18.6781 21.2807 18.6671C21.2619 18.6616 21.2255 18.6891 21.2134 18.6814C21.1913 18.6682 21.2288 18.6308 21.1769 18.6043C21.1703 18.601 21.1317 18.5152 21.1339 18.5108C21.1515 18.4546 21.1703 18.3941 21.1615 18.3346C21.1515 18.2741 21.0489 18.2223 21.0213 18.1739C21.0003 18.1365 20.9815 18.0396 20.9418 18.0143C20.8987 17.9878 20.859 17.9361 20.8358 17.8965C20.8292 17.8843 20.8502 17.8634 20.8336 17.8436C20.816 17.8216 20.7839 17.8128 20.7751 17.7831C20.7685 17.7599 20.7751 17.6829 20.7453 17.6664C20.7122 17.6487 20.5013 17.6245 20.4495 17.6201C20.4219 17.619 20.4009 17.619 20.3799 17.5992C20.3711 17.5915 20.3578 17.5607 20.3501 17.5607C20.3291 17.5596 20.3048 17.5695 20.2839 17.5706C20.2684 17.5717 20.2419 17.5618 20.2287 17.5706C20.1613 17.6135 20.1437 17.6686 20.0797 17.7137C20.0134 17.7599 19.9417 17.7577 19.8754 17.8117C19.8335 17.8458 19.8059 17.9273 19.765 17.9658C19.7474 17.9823 19.7198 17.9658 19.7132 17.9735C19.6789 18.0131 19.6304 18.0374 19.595 18.0737C19.5884 18.0814 19.5895 18.0957 19.5807 18.1023L19.5067 18.1199C19.488 18.1232 19.4515 18.1188 19.4361 18.1232C19.4019 18.1332 19.403 18.1673 19.286 18.1893C19.2771 18.1904 19.2617 18.1981 19.255 18.2025C19.2407 18.2113 19.2308 18.2245 19.2175 18.2333C19.2087 18.2388 19.1833 18.2289 19.1678 18.23C19.138 18.2344 19.1215 18.2587 19.0939 18.2609C19.0321 18.2686 18.9316 18.2344 18.883 18.252C18.8532 18.262 18.7726 18.3467 18.7428 18.3555C18.7241 18.361 18.7097 18.3544 18.6887 18.3467C18.6788 18.3588 18.6545 18.4502 18.6457 18.4711C18.6457 18.4711 18.5121 18.5757 18.5022 18.5878C18.4845 18.6054 18.4779 18.6253 18.4569 18.644C18.4426 18.6572 18.4205 18.6693 18.3984 18.6693C18.3708 18.6693 18.3289 18.6506 18.3035 18.6462C18.2538 18.6385 18.1026 18.633 18.0584 18.6418C18.0121 18.6506 18.0253 18.775 17.9094 18.7871C17.8421 18.7948 17.7802 18.8058 17.7107 18.8124C17.7041 18.8124 17.6621 18.786 17.6213 18.7959C17.6058 18.8003 17.555 18.8476 17.555 18.862V18.8884C17.555 18.8884 17.5694 18.9093 17.5672 18.9104C17.5418 18.939 17.4822 18.9831 17.4634 19.015C17.4579 19.0238 17.4513 19.0337 17.4424 19.0403C17.427 19.0502 17.3475 19.0788 17.3409 19.092C17.3221 19.1361 17.3961 19.1779 17.3895 19.1955C17.3685 19.2528 17.2857 19.3078 17.2603 19.3607C17.2504 19.3827 17.2879 19.4565 17.2857 19.4818C17.2769 19.5511 17.2515 19.6403 17.2548 19.7075C17.2548 19.7207 17.2647 19.79 17.2702 19.7977C17.2791 19.8109 17.2978 19.8187 17.31 19.8308C17.3221 19.8429 17.4137 20.008 17.4171 20.0256C17.4347 20.1478 17.2426 20.1049 17.353 20.2282C17.3707 20.2469 17.3839 20.2678 17.4027 20.2843C17.427 20.3064 17.5683 20.4021 17.5705 20.4132C17.5738 20.4308 17.4568 20.4484 17.4358 20.4682C17.3806 20.5188 17.3343 20.6113 17.2802 20.6631C17.2471 20.6961 17.2184 20.6598 17.1742 20.7357C17.1587 20.7643 17.1742 20.8271 17.1554 20.8447C17.1278 20.8711 17.1058 20.8359 17.0782 20.848C17.066 20.8524 17.0594 20.8854 17.0473 20.8943C17.0163 20.9196 16.7393 21.055 16.7139 21.044C16.6995 21.0385 16.6841 20.9955 16.683 20.9823C16.6797 20.968 16.662 20.935 16.6487 20.9251C16.5781 20.8689 16.4688 20.859 16.3993 20.9262C16.3816 20.9438 16.3805 20.9702 16.3573 20.9878C16.3198 21.0176 16.2756 21.044 16.2392 21.0737C16.2326 21.0792 16.2116 21.1023 16.2028 21.1001C16.1752 21.0968 16.1078 21.0264 16.0902 21.0065C16.0593 20.9724 15.9687 20.8909 15.961 20.8524C15.961 20.7214 15.8506 20.5838 15.8032 20.455H15.8727C15.95 20.4076 15.9279 20.2876 16.0681 20.335C16.0858 20.313 16.0836 20.2887 16.1167 20.2733C16.1288 20.2678 16.1509 20.2612 16.1586 20.2513C16.205 20.1853 16.2602 19.9309 16.2127 19.866C16.1697 19.8065 16.1244 19.8098 16.0902 19.7119C16.0802 19.6854 16.099 19.6546 16.0902 19.6249C16.0835 19.6018 16.0361 19.4609 16.0295 19.4509C16.0206 19.4388 15.9919 19.4245 15.9897 19.4168C15.9875 19.4047 15.9776 19.2528 15.9831 19.2407C15.9367 19.1229 15.7789 19.0469 15.77 19.0337C15.7513 19.0051 15.7325 18.9687 15.7115 18.9379C15.6873 18.9005 15.6873 18.8818 15.674 18.8465C15.6685 18.83 15.6431 18.8168 15.6409 18.7992C15.6376 18.7684 15.7325 18.7034 15.7292 18.6484C15.727 18.6308 15.6685 18.5779 15.6806 18.5482C15.6928 18.5174 15.7535 18.448 15.7513 18.4139C15.748 18.3676 15.6563 18.2686 15.6442 18.2201C15.6387 18.197 15.6806 18.1772 15.6696 18.1607C15.6574 18.1398 15.5603 18.0583 15.5448 18.0352C15.5327 18.0176 15.5813 17.9933 15.5471 17.9614C15.5161 17.9317 15.5415 17.9427 15.5327 17.9174C15.5228 17.8887 15.4874 17.8645 15.4742 17.8348C15.4621 17.8095 15.3793 17.532 15.3804 17.5155C15.366 17.4968 15.3428 17.4803 15.3307 17.4605C15.3186 17.4407 15.313 17.4043 15.3031 17.39C15.3009 17.3889 15.2093 17.3636 15.1927 17.3383C15.1784 17.3174 15.175 17.2491 15.1508 17.2161C15.1386 17.1996 15.1198 17.2029 15.1055 17.1908C15.0934 17.182 15.0956 17.1654 15.0867 17.1555C15.0591 17.1203 15.0039 17.1522 14.9653 17.0223C14.9156 16.9893 14.8682 16.9618 14.8251 16.9221C14.8163 16.9144 14.8108 16.9056 14.8008 16.9012C14.7666 16.888 14.7147 16.8836 14.6849 16.8594C14.6673 16.8594 14.5756 16.8561 14.5657 16.8506C14.5558 16.8451 14.5447 16.8076 14.5381 16.8065C14.4895 16.7977 14.41 16.8021 14.3692 16.7691C14.3361 16.7427 14.3295 16.6139 14.271 16.6315C14.2643 16.6282 14.2555 16.626 14.2467 16.6271C14.2091 16.5809 14.0778 16.5754 14.0237 16.5456C14.0082 16.5368 13.9574 16.5445 13.9574 16.5313C13.9696 16.506 13.9663 16.4851 13.9674 16.4609C13.9376 16.4344 13.9188 16.4036 13.8978 16.3838C13.8482 16.3739 13.8669 16.3695 13.836 16.3508C13.7499 16.3453 13.7411 16.3585 13.6859 16.4058C13.6715 16.4179 13.6439 16.4201 13.6274 16.4289C13.5976 16.4432 13.5898 16.4928 13.5479 16.4708C13.5336 16.4631 13.5258 16.4521 13.5148 16.4421C13.4905 16.4234 13.4773 16.4333 13.4651 16.3981C13.3945 16.3629 13.1991 16.4851 13.1527 16.3992C13.1196 16.3827 13.0953 16.4036 13.0677 16.3772C13.0534 16.364 13.1052 16.2165 12.9639 16.1559C12.9971 16.1328 13.0313 16.1163 13.0622 16.0943C13.071 16.0777 13.06 16.0524 13.06 16.037C13.06 16.0117 13.0776 15.9632 13.0721 15.9456C13.0666 15.928 13.0467 15.9126 13.039 15.8928C13.0302 15.8719 13.0412 15.8454 13.0291 15.8234C13.0202 15.8179 12.9948 15.8025 12.9838 15.8025C12.9474 15.7739 12.9076 15.7563 12.8778 15.7232C12.8712 15.7155 12.8657 15.7023 12.8569 15.6968C12.8315 15.6792 12.7465 15.655 12.7498 15.6187C12.752 15.6065 12.7686 15.6054 12.7741 15.5933C12.7796 15.579 12.7763 15.5592 12.7884 15.546C12.8282 15.4954 12.9165 15.5174 12.9021 15.4249C12.8955 15.3831 12.8646 15.3478 12.8558 15.3038C12.8403 15.2939 12.8381 15.2752 12.8248 15.2653C12.7387 15.2576 12.7509 15.175 12.7189 15.1563C12.6273 15.099 12.5566 15.1343 12.6582 15.0209C12.6725 14.9834 12.5698 14.9251 12.5489 14.9042C12.5124 14.8711 12.5301 14.804 12.5158 14.7687C12.5091 14.7511 12.4484 14.7203 12.4297 14.695C12.4241 14.6873 12.4087 14.6487 12.3998 14.6443L12.4021 14.6322C12.4208 14.619 12.4109 14.5926 12.4054 14.575C12.3932 14.5651 12.3678 14.5673 12.359 14.5607C12.2762 14.4913 12.1758 14.4605 12.0665 14.4198C12.0367 14.4098 12.0455 14.3867 12.0212 14.3768C12.0002 14.368 11.8534 14.3075 11.8435 14.3108C11.8258 14.3064 11.8137 14.2458 11.8015 14.226C11.7916 14.2084 11.7497 14.1743 11.7497 14.1743C11.753 14.1181 11.7154 14.1104 11.668 14.0807C11.6713 14.073 11.6624 14.0554 11.6624 14.0465C11.6624 14.0388 11.6934 13.942 11.6989 13.9287C11.7077 13.9078 11.7364 13.8891 11.732 13.8649C11.7254 13.8275 11.7198 13.7702 11.7066 13.7383C11.6602 13.6227 11.605 13.6381 11.6337 13.4873C11.6404 13.4565 11.6282 13.4388 11.6547 13.4102C11.6514 13.4091 11.6669 13.3937 11.6691 13.3915C11.6845 13.3783 11.7276 13.3563 11.7364 13.3453C11.7618 13.3122 11.7784 13.2385 11.8104 13.2154C11.8347 13.1977 11.9042 13.1636 11.9163 13.1493C11.9263 13.1372 11.9417 13.1009 11.934 13.0854C11.9097 13.0722 11.8854 13.0777 11.8611 13.0755C11.8523 13.0744 11.8214 13.0535 11.7971 13.0491C11.7905 13.0414 11.7784 13.0326 11.7784 13.0227L11.7684 13.0139C11.7408 13.0106 11.7099 12.9952 11.6856 12.9875C11.6547 12.9754 11.6117 12.9742 11.5819 12.9577C11.5267 12.928 11.4637 12.8465 11.4108 12.8355C11.3379 12.8212 11.2915 12.841 11.222 12.8443C11.1767 12.8476 11.1767 12.8223 11.1403 12.8113C11.0917 12.7981 11.1282 12.8344 11.0178 12.8025C11.0034 12.7926 11.0244 12.7563 11.0266 12.7431C11.0089 12.7387 10.9891 12.7475 10.9681 12.7431C10.8765 12.7221 10.9107 12.6451 10.8864 12.5955C10.8765 12.5834 10.8378 12.5867 10.8202 12.5856C10.8147 12.5845 10.8136 12.5768 10.8147 12.5735L10.8235 12.568C10.8389 12.546 10.7837 12.4898 10.786 12.4821C10.7893 12.4645 10.9019 12.448 10.9173 12.4469C10.9228 12.4337 10.9074 12.4216 10.9052 12.4084C10.9019 12.3787 10.9228 12.3401 10.9328 12.3137L10.9295 12.3049C10.8986 12.2884 10.8875 12.2653 10.8599 12.2454C10.8621 12.2322 10.8809 12.2234 10.8842 12.2102C10.9383 12.0726 11.0211 12.1816 11.0939 12.055C11.1006 12.0429 11.1215 12.012 11.1282 11.9911L11.1425 11.9878C11.1569 11.9911 11.1756 12.001 11.1889 11.9966C11.1988 11.9834 11.222 11.979 11.2386 11.9746L11.2639 11.9801C11.3986 11.9537 11.3677 11.9075 11.445 11.8557C11.466 11.8425 11.5267 11.837 11.5543 11.8271C11.5841 11.8392 11.6249 11.8821 11.6801 11.9009C11.7198 11.9152 11.8567 11.9427 11.8788 11.9537C11.9086 11.968 11.913 12.0043 11.9395 12.0176C12.0168 12.0561 11.9726 11.9911 12.0466 12.0043C12.1228 12.0187 12.1846 12.077 12.2563 12.1045C12.2685 12.1089 12.2983 12.1034 12.3115 12.1001C12.3336 12.0957 12.455 12.0748 12.4672 12.0792C12.4815 12.0836 12.5014 12.0957 12.5158 12.0979C12.5334 12.1012 12.5467 12.0671 12.5588 12.0682C12.6107 12.0759 12.6129 12.0946 12.6813 12.0891C12.6847 12.0891 12.7178 11.9086 12.7509 11.8998C12.7697 11.8954 12.8215 11.9427 12.837 11.946C12.8624 11.9515 12.8348 11.9086 12.8337 11.9064C12.8271 11.892 12.7906 11.7809 12.7917 11.7709C12.7939 11.7654 12.826 11.7798 12.8414 11.7754C12.8789 11.7632 12.9308 11.7544 12.9595 11.7269C12.9628 11.7236 13.0213 11.6454 13.0236 11.6421C13.0269 11.6289 13.0081 11.5981 13.0169 11.5871C13.0258 11.5783 13.0589 11.5662 13.0743 11.5519C13.0964 11.5309 13.0997 11.4957 13.1317 11.4814C13.2543 11.4715 13.2973 11.3823 13.4088 11.3702C13.4154 11.3702 13.4397 11.3658 13.4452 11.3669L13.4673 11.401C13.4739 11.4098 13.549 11.4517 13.5611 11.4484C13.5711 11.4473 13.5766 11.4308 13.5865 11.4275C13.6086 11.4308 13.6715 11.3944 13.6782 11.3768C13.6804 11.3735 13.6638 11.3559 13.6715 11.3438C13.6771 11.335 13.7543 11.2821 13.7665 11.2755C13.7941 11.2755 13.8239 11.27 13.8493 11.2788C13.8647 11.2843 13.8669 11.3075 13.8835 11.3097C13.9023 11.3108 13.9376 11.3042 13.9508 11.3064C13.9663 11.3097 13.9729 11.2799 13.9928 11.2777L13.9961 11.281L14.0005 11.2865Z" fill="#FEC700"/>
<path d="M15.7294 3.94346L16.0968 2.89429L16.4642 3.94346H17.6544L16.6916 4.59286L17.0594 5.64328L16.0968 4.99403L15.1342 5.64328L15.502 4.59286L14.5392 3.94346H15.7294Z" fill="white"/>
<path d="M20.2704 3.94346L19.903 2.89429L19.5357 3.94346H18.3454L19.3083 4.59286L18.9404 5.64328L19.903 4.99403L20.8656 5.64328L20.4978 4.59286L21.4606 3.94346H20.2704Z" fill="white"/>
<path d="M24.0192 4.55784L23.6519 3.50867L23.2845 4.55784H22.0943L23.0571 5.20724L22.6893 6.25766L23.6519 5.60841L24.6145 6.25766L24.2466 5.20724L25.2095 4.55784H24.0192Z" fill="white"/>
<path d="M27.2296 4.71631L27.597 5.76548H28.7872L27.8244 6.41488L28.1922 7.4653L27.2296 6.81605L26.267 7.4653L26.6348 6.41488L25.672 5.76548H26.8622L27.2296 4.71631Z" fill="white"/>
<path d="M12.348 3.50867L11.9806 4.55784H10.7904L11.7532 5.20724L11.3854 6.25766L12.348 5.60841L13.3106 6.25766L12.9427 5.20724L13.9056 4.55784H12.7153L12.348 3.50867Z" fill="white"/>
<path d="M8.40286 5.76548L8.77024 4.71631L9.13763 5.76548H10.3278L9.36502 6.41488L9.73284 7.4653L8.77024 6.81605L7.80765 7.4653L8.17546 6.41488L7.21265 5.76548H8.40286Z" fill="white"/>
</svg>
