<svg width="36" height="24" viewBox="0 0 36 24" fill="none" xmlns="http://www.w3.org/2000/svg">
<g clip-path="url(#clip0_11930_68103)">
<rect width="36" height="24" rx="2" fill="white"/>
<path fill-rule="evenodd" clip-rule="evenodd" d="M5.50024 7.29065L8.82931 2.29892L9.66127 2.85377L6.3322 7.84549L5.50024 7.29065ZM6.74818 8.12292L10.0772 3.13119L10.9092 3.68603L7.58013 8.67776L6.74818 8.12292ZM7.99611 8.95518L11.3252 3.96346L12.1571 4.5183L8.82806 9.51003L7.99611 8.95518Z" fill="#000001"/>
<path fill-rule="evenodd" clip-rule="evenodd" d="M23.8035 19.4972L27.1325 14.5055L27.9645 15.0603L24.6354 20.052L23.8035 19.4972ZM25.0514 20.3295L28.3805 15.3377L29.2124 15.8926L25.8834 20.8843L25.0514 20.3295ZM26.2993 21.1617L29.6284 16.17L30.4604 16.7248L27.1313 21.7166L26.2993 21.1617Z" fill="#000001"/>
<path fill-rule="evenodd" clip-rule="evenodd" d="M25.054 16.724L29.2137 19.4982L25.054 16.724Z" fill="black"/>
<path d="M25.054 16.724L29.2137 19.4982" stroke="white" stroke-width="0.5"/>
<path fill-rule="evenodd" clip-rule="evenodd" d="M12.9905 8.67883C13.8734 7.35494 15.2461 6.43602 16.8065 6.12421C18.367 5.8124 19.9874 6.13325 21.3113 7.01617C22.6352 7.8991 23.5541 9.27177 23.8659 10.8322C24.1777 12.3927 23.8569 14.0131 22.9739 15.337L12.9905 8.67883Z" fill="#CD2E3A"/>
<path fill-rule="evenodd" clip-rule="evenodd" d="M12.9909 8.67881C12.108 10.0027 11.7872 11.6231 12.099 13.1836C12.4108 14.744 13.3297 16.1167 14.6536 16.9996C15.9775 17.8825 17.5979 18.2034 19.1583 17.8916C20.7188 17.5798 22.0915 16.6608 22.9744 15.3369C23.4158 14.675 23.5763 13.8648 23.4204 13.0846C23.2645 12.3043 22.805 11.618 22.1431 11.1765C21.4811 10.7351 20.6709 10.5747 19.8907 10.7306C19.1105 10.8865 18.4241 11.3459 17.9827 12.0079L12.9909 8.67881Z" fill="#0047A0"/>
<path d="M17.9822 12.0079C18.9015 10.6295 18.5293 8.76679 17.1509 7.84749C15.7724 6.92819 13.9098 7.30039 12.9905 8.67882C12.0712 10.0572 12.4434 11.9199 13.8218 12.8392C15.2002 13.7585 17.0629 13.3863 17.9822 12.0079Z" fill="#CD2E3A"/>
<path fill-rule="evenodd" clip-rule="evenodd" d="M8.84155 21.7185L5.51249 16.7268L6.34444 16.1719L9.67351 21.1637L8.84155 21.7185ZM10.0895 20.8862L6.76042 15.8945L7.59237 15.3397L10.9214 20.3314L10.0895 20.8862ZM11.3374 20.054L8.00835 15.0622L8.8403 14.5074L12.1694 19.4991L11.3374 20.054Z" fill="#000001"/>
<path fill-rule="evenodd" clip-rule="evenodd" d="M27.1448 9.51196L23.8157 4.52024L24.6477 3.96539L27.9767 8.95712L27.1448 9.51196ZM28.3927 8.6797L25.0636 3.68797L25.8956 3.13313L29.2247 8.12485L28.3927 8.6797ZM29.6406 7.84743L26.3116 2.8557L27.1435 2.30086L30.4726 7.29258L29.6406 7.84743Z" fill="#000001"/>
<path fill-rule="evenodd" clip-rule="evenodd" d="M8.21997 18.5291L9.4679 17.6968L8.21997 18.5291ZM25.067 7.29345L26.523 6.32247L25.067 7.29345ZM27.7709 5.4902L29.0188 4.65794L27.7709 5.4902Z" fill="black"/>
<path d="M8.21997 18.5291L9.4679 17.6968M25.067 7.29345L26.523 6.32247M27.7709 5.4902L29.0188 4.65794" stroke="white" stroke-width="0.5"/>
</g>
<rect x="0.25" y="0.25" width="35.5" height="23.5" rx="1.75" stroke="#EFEFEF" stroke-width="0.5"/>
<defs>
<clipPath id="clip0_11930_68103">
<rect width="36" height="24" rx="2" fill="white"/>
</clipPath>
</defs>
</svg>
