<svg width="36" height="24" viewBox="0 0 36 24" fill="none" xmlns="http://www.w3.org/2000/svg">
<rect width="36" height="24" rx="2" fill="#07319C"/>
<path d="M0 0H16V12H0V0Z" fill="#012169"/>
<path d="M1.875 0L7.975 4.525L14.05 0H16V1.55L10 6.025L16 10.475V12H14L8 7.525L2.025 12H0V10.5L5.975 6.05L0 1.6V0H1.875Z" fill="white"/>
<path d="M10.6 7.025L16 11V12L9.225 7.025H10.6ZM6 7.525L6.15 8.4L1.35 12H0L6 7.525ZM16 0V0.075L9.775 4.775L9.825 3.675L14.75 0H16ZM0 0L5.975 4.4H4.475L0 1.05V0Z" fill="#C8102E"/>
<path d="M6.025 0V12H10.025V0H6.025ZM0 4V8H16V4H0Z" fill="white"/>
<path d="M0 4.825V7.225H16V4.825H0ZM6.825 0V12H9.225V0H6.825Z" fill="#C8102E"/>
<path d="M28.7779 9.09127V13.1605C28.7779 16.6895 27.1093 17.9007 24.8742 18.8592C22.6392 17.9007 20.9531 16.6895 20.9531 13.1605V9.08691H28.7779V9.09127Z" fill="white" stroke="white" stroke-width="0.418253" stroke-linejoin="round"/>
<path d="M18.5295 18.5281C18.6559 18.8592 19.5534 19.2993 20.599 18.7372C21.3091 18.3364 21.7666 17.7787 22.2066 16.7767C22.3286 16.524 22.394 16.2103 22.1021 16.023C21.8712 15.853 21.4921 15.6657 21.3266 15.5001C21.2438 15.413 21.161 15.352 21.1 15.291C21.1436 15.3346 21.1828 15.3738 21.222 15.4348C21.6403 15.9358 21.2046 16.6678 20.7428 17.1078C20.4073 17.4215 19.806 18.1926 18.926 17.4607C18.7386 17.2951 18.2986 17.9835 18.5339 18.5281H18.5295ZM31.2252 18.5281C31.0771 18.8592 30.1796 19.2993 29.1557 18.7372C28.4499 18.3364 27.9881 17.7787 27.5307 16.7767C27.4261 16.524 27.3607 16.2103 27.6526 16.023C27.8836 15.853 28.2626 15.6657 28.4282 15.5001C28.5109 15.413 28.5719 15.352 28.6547 15.291C28.6111 15.3346 28.5719 15.3738 28.5327 15.4348C28.1145 15.9358 28.5501 16.6678 28.9902 17.1078C29.3257 17.4215 29.9487 18.1926 30.8288 17.4607C31.0161 17.2951 31.4343 17.9835 31.2209 18.5281H31.2252Z" fill="#FCEA83" stroke="white" stroke-width="0.418253" stroke-linejoin="round"/>
<path d="M24.8774 20.3231C26.5461 20.3231 29.1166 19.5694 30.4977 16.9379C30.7242 16.5022 30.4977 16.2713 30.2232 16.1275C29.9129 15.9713 29.6303 15.7652 29.3867 15.5176C29.7222 15.8531 29.6568 16.084 29.4303 16.4586C28.3628 18.2362 26.9033 19.1337 24.8774 19.1337C22.8515 19.1337 21.392 18.2362 20.3245 16.4586C20.098 16.084 20.0326 15.8531 20.3463 15.5219C20.1063 15.7726 19.8229 15.9778 19.5098 16.1275C19.2397 16.2713 19.0088 16.5022 19.2397 16.9379C20.6165 19.5694 23.2044 20.3231 24.8774 20.3231Z" fill="#FCEA83" stroke="white" stroke-width="0.418253" stroke-linejoin="round"/>
<path d="M21.0098 16.7941C20.9663 16.5849 20.7005 16.6677 20.6177 16.9204C20.505 16.7759 20.4058 16.6213 20.3215 16.4586C20.0731 16.0839 20.0296 15.8312 20.3868 15.4783C20.5524 15.3128 20.8879 15.1211 21.1144 15.3302C21.5937 15.7267 21.3453 16.3758 21.0098 16.7941ZM28.717 16.7941C28.7606 16.5849 29.0525 16.6677 29.1353 16.9204C29.2398 16.7723 29.3444 16.6285 29.4272 16.4586C29.6755 16.0839 29.7191 15.8312 29.34 15.4783C29.1963 15.3128 28.8608 15.1211 28.6125 15.3302C28.1506 15.7267 28.3816 16.3758 28.717 16.7941ZM18.5265 18.5281C18.3173 18.2144 18.1518 17.3953 18.1082 17.1905C18.0472 17.0032 18.0254 16.8333 18.2563 16.7549C18.4873 16.6677 18.692 16.9596 18.7966 17.2123C18.9012 17.4607 19.0711 17.8353 19.2584 18.2972C18.7966 18.027 18.4219 18.21 18.5265 18.5281ZM31.2222 18.5281C31.4095 18.2144 31.5751 17.3953 31.6404 17.1905C31.684 17.0032 31.7232 16.8333 31.4923 16.7549C31.2614 16.6677 31.0566 16.9596 30.9521 17.2123C30.8475 17.4607 30.6776 17.8353 30.4902 18.2972C30.9521 18.027 31.305 18.21 31.2222 18.5281Z" fill="#C8102E" stroke="white" stroke-width="0.418253" stroke-linejoin="round"/>
<path d="M23.2658 9.06959C22.9957 9.13059 22.8083 9.15237 22.5556 8.92146C22.3901 8.75591 22.4293 8.464 22.5992 8.35508C22.7865 8.23309 22.9521 8.15031 23.183 8.21131C23.4139 8.27666 24.0195 8.83868 23.8714 8.86047C23.7232 8.86047 23.4967 9.00424 23.2658 9.06959ZM23.9106 8.06753C23.9977 8.00218 24.1023 7.96297 24.3724 7.93683C24.6251 7.9194 24.8081 7.9194 24.8734 8.1111C24.9606 8.33765 25.0216 8.60777 25.1871 8.73412C25.0826 8.79512 24.5597 8.86047 24.3724 8.75591C24.1241 8.62956 24.0587 8.14595 23.9149 8.06753H23.9106ZM25.7099 8.08931C25.7927 8.02396 25.8973 8.02396 26.1674 8.04575C26.4375 8.06753 26.5421 8.08931 26.6031 8.27666C26.6684 8.48578 26.6031 8.75591 26.7338 8.94325C26.6031 8.98682 26.1892 8.98682 26.0411 8.83868C25.8145 8.67313 25.8319 8.18952 25.7099 8.08496V8.08931Z" fill="white" stroke="white" stroke-width="0.418253" stroke-linejoin="round"/>
<path d="M26.9601 8.21134C26.7728 8.16777 26.6465 8.15034 26.568 8.21134C26.6682 8.33769 26.5855 8.83872 26.7946 9.00428C26.9384 9.10884 27.3174 9.13498 27.4002 8.89971C27.5047 8.69059 27.5047 8.3769 26.9645 8.21134H26.9601ZM24.8122 8.00221C24.8732 7.94122 24.9996 7.91943 25.2479 7.91943C25.5224 7.91943 25.6836 7.963 25.7707 8.12856C25.8579 8.33769 25.8317 8.60781 25.9799 8.77772C25.9189 8.8605 25.3525 8.8605 25.1869 8.73416C24.956 8.58602 24.9342 8.10678 24.8122 8.00221ZM23.039 8.18956C23.039 8.08499 23.1828 8.06756 23.5618 8.04578C23.9322 8.00221 23.954 8.024 24.0803 8.29412C24.1413 8.44225 24.2241 8.69059 24.394 8.77337C23.9322 8.88229 23.784 8.94328 23.5357 8.79515C23.3543 8.68172 23.2045 8.52438 23.1 8.33769C23.0782 8.27669 23.0782 8.21134 23.0347 8.18956H23.039Z" fill="#073163" stroke="white" stroke-width="0.418253" stroke-linejoin="round"/>
<path d="M23.0791 6.33345C22.931 6.33345 22.809 6.27245 22.7219 6.16789C22.5781 5.97619 22.1816 5.89341 22.0117 6.06332C21.9507 6.10689 21.8679 6.10689 21.8069 6.12432C21.7024 6.12432 21.576 6.22888 21.6152 6.43801C21.7024 6.37266 21.7198 6.43801 21.7851 6.43801C21.8287 6.41622 21.8069 6.45979 21.8069 6.499C21.8069 6.60357 22.0335 6.81269 22.2426 6.79091C22.4735 6.79091 22.5781 6.87805 22.6173 6.92161C22.6826 6.97825 22.6391 6.96082 22.6826 7.06539C22.7436 7.12638 22.7654 7.14817 22.6609 7.23095C22.6133 7.27061 22.575 7.32024 22.5488 7.37633C22.5225 7.43242 22.5089 7.4936 22.5089 7.55553C22.5089 7.61746 22.5225 7.67864 22.5488 7.73473C22.575 7.79082 22.6133 7.84045 22.6609 7.88011C22.931 8.08488 23.6194 8.40293 24.3949 7.79297C25.1442 7.20916 26.3119 7.54464 26.399 7.74941C26.5036 7.96289 26.5428 8.08488 26.5645 8.18944C26.5863 8.27658 26.6909 8.35936 26.839 8.33757C26.9828 8.33757 27.1484 8.39857 27.2311 8.46392C27.3401 8.52492 27.4838 8.50749 27.4446 8.31579C27.3575 7.73198 27.0046 7.6492 26.9654 7.37908C27.1701 7.3965 27.3139 7.3965 27.4011 7.31373C27.462 7.23095 27.5448 7.08282 27.632 7.0436C27.693 7.00004 27.693 6.95647 27.6102 6.97825C27.5056 7.00004 27.4446 7.0436 27.2529 7.02182C26.2944 6.91726 23.6019 6.18531 23.0791 6.33345Z" fill="#059334" stroke="white" stroke-width="0.418253" stroke-linejoin="round"/>
<path d="M27.34 7.04356C27.1808 7.15592 27.0447 7.29793 26.9392 7.46182C26.7344 7.73194 26.107 8.00206 25.3315 8.00206C24.5822 8.00206 24.1247 7.88007 23.7892 7.60995C23.646 7.49542 23.4912 7.39613 23.3274 7.31368C23.1008 7.20912 23.0573 6.97821 23.1183 6.79087C23.0573 6.89543 23.0181 6.99999 22.8917 6.97821C22.8046 6.97821 22.639 6.97821 22.6826 7.06535C22.6608 7.02178 22.6608 6.96078 22.639 6.93464L22.5955 6.89543C22.6608 6.939 22.8089 6.81265 22.9135 6.81265C22.9963 6.83444 23.1008 6.72987 23.0791 6.60353L23.0181 6.3334C23.1836 6.24627 25.3751 6.64709 25.8151 6.6863C26.2508 6.70809 27.5056 6.89543 27.34 7.04356Z" fill="#000001" stroke="white" stroke-width="0.418253" stroke-linejoin="round"/>
<path d="M23.371 6.25066C23.5801 6.04154 23.8284 5.93697 24.0811 5.99797H24.1421C24.2728 5.89341 24.5604 5.87162 24.7303 5.9544H24.8131C25.0614 5.87162 25.5407 5.9544 25.7106 6.12432L25.7716 6.16788C26.3379 6.12432 26.6691 6.37265 27.0655 6.77348C27.1091 6.81705 27.1701 6.89547 27.2747 6.91725C27.401 6.93904 27.4228 7.00439 27.3182 7.06538C27.1507 7.16899 27.0032 7.30179 26.8825 7.4575C26.6908 7.71019 26.0853 7.96289 25.3315 7.96289C24.6039 7.96289 24.1639 7.83218 23.8284 7.58384C23.6411 7.44007 23.4973 7.35729 23.3928 7.29194C23.2664 7.24837 23.1008 7.08281 23.1618 6.91725C23.2054 6.7517 23.1008 6.54257 23.0181 6.33344C23.0791 6.28987 23.2446 6.22888 23.3274 6.27245L23.371 6.25066Z" fill="#059334" stroke="white" stroke-width="0.418253" stroke-linejoin="round"/>
<path d="M27.0666 6.77348C26.6745 6.37265 26.3391 6.12432 25.7727 6.16353C25.7727 6.18531 25.7727 6.25066 25.7509 6.29423C26.1456 6.47136 26.4955 6.7349 26.7747 7.06538C26.8619 6.97825 27.0056 6.87804 27.0666 6.77348ZM25.7117 6.12432C25.5418 5.95876 25.0625 5.87162 24.8142 5.95876C24.8142 6.04154 24.8142 6.16788 24.7706 6.25066C24.9187 6.31166 25.0407 6.45979 25.1671 6.60356C25.2542 6.58178 25.459 6.52078 25.5635 6.499C25.6259 6.37966 25.6756 6.25407 25.7117 6.12432ZM24.7314 5.9544C24.5615 5.87162 24.2696 5.89341 24.1432 5.99797C24.0997 6.08511 24.0822 6.25066 24.0822 6.33344C24.1694 6.33344 24.2914 6.39444 24.3306 6.43801C24.4613 6.39444 24.6268 6.31166 24.6878 6.25066C24.7096 6.16353 24.7488 6.04154 24.7314 5.95876V5.9544ZM23.3721 6.25066C23.5812 6.04154 23.8295 5.93697 24.0822 5.99797C24.0387 6.06332 24.0212 6.18531 24.0212 6.31166C23.7903 6.28987 23.4984 6.35523 23.3721 6.43801V6.25066Z" fill="#00493D" stroke="white" stroke-width="0.418253" stroke-linejoin="round"/>
<path d="M26.6921 7.10459C26.4296 6.79382 26.1025 6.54403 25.7336 6.37265C25.7336 6.39444 25.69 6.47722 25.6682 6.54257C25.7946 6.72991 26.0429 7.14816 26.1475 7.37907C26.252 7.3355 26.5439 7.20916 26.6921 7.10459ZM25.1062 7.56642C25.1423 7.28166 25.1627 6.99513 25.1672 6.70813C25.2717 6.68634 25.4809 6.62535 25.5637 6.60356C25.6682 6.77348 25.9209 7.21351 26.0255 7.41828C25.7728 7.47928 25.3545 7.58384 25.1062 7.56642ZM24.3742 6.56435C24.4788 6.52078 24.6269 6.43365 24.7271 6.35522C24.8143 6.41622 24.9798 6.56435 25.0408 6.64713C25.0408 6.83447 24.9798 7.37907 24.9581 7.56206C24.7925 7.56206 24.5224 7.52285 24.3742 7.44007C24.396 7.12638 24.4178 6.77348 24.3742 6.56435ZM23.3286 6.81269C23.3504 6.76912 23.3722 6.62535 23.3722 6.56435C23.5377 6.45979 23.956 6.35522 24.2697 6.52078C24.2915 6.72991 24.2697 7.25273 24.2479 7.37907C23.9685 7.15183 23.661 6.96147 23.333 6.81269H23.3286Z" fill="#00493D" stroke="white" stroke-width="0.418253" stroke-linejoin="round"/>
<path d="M22.2896 6.43364C22.246 6.43364 22.2242 6.31165 22.1414 6.31165C22.1196 6.31165 22.0586 6.33343 22.0369 6.31165C22.0369 6.35521 22.0586 6.39878 22.0804 6.41621C22.1022 6.4772 22.2068 6.43799 22.2896 6.43799V6.43364Z" fill="#000001"/>
<path d="M22.2896 6.79094C22.5379 6.79094 22.5815 6.47725 22.7078 6.45982M22.4333 6.81272C22.6207 6.89986 22.7688 6.45982 22.9126 6.47725M22.0586 6.27248C22.1196 6.27248 22.1632 6.18534 22.2678 6.28991C22.3113 6.33348 22.3723 6.35526 22.4159 6.35526M22.3723 6.58181C22.2852 6.71252 22.1414 6.79094 22.0586 6.75173M22.0151 6.06335C21.9541 6.10692 21.9149 6.18535 21.8713 6.2507M21.8103 6.37269V6.47725" stroke="white" stroke-width="0.418253" stroke-linejoin="round"/>
<path d="M24.0437 6.06343C23.6036 5.72796 23.0808 5.41427 22.6016 5.35327C23.1016 5.68666 23.5763 6.05654 24.0219 6.4599" fill="black"/>
<path d="M24.0437 6.06343C23.6036 5.72796 23.0808 5.41427 22.6016 5.35327C23.1016 5.68666 23.5763 6.05654 24.0219 6.4599" stroke="white" stroke-width="0.418253" stroke-linejoin="round"/>
<path d="M24.2918 5.74964C23.769 5.39238 23.1634 4.99591 22.5796 4.9567C23.1259 5.27331 23.6126 5.68324 24.0173 6.16789M24.9584 5.16583C25.1943 4.62969 25.5436 4.15107 25.9822 3.76294C25.7731 4.20298 25.5466 5.10048 25.4376 5.45774" fill="black"/>
<path d="M24.2918 5.74964C23.769 5.39238 23.1634 4.99591 22.5796 4.9567C23.1259 5.27331 23.6126 5.68324 24.0173 6.16789M24.9584 5.16583C25.1943 4.62969 25.5436 4.15107 25.9822 3.76294C25.7731 4.20298 25.5466 5.10048 25.4376 5.45774" stroke="white" stroke-width="0.418253" stroke-linejoin="round"/>
<path d="M25.4204 5.06118C25.6223 4.57025 26.0019 4.17352 26.4835 3.9502C26.1217 4.40155 25.8523 4.91969 25.6905 5.47508" fill="black"/>
<path d="M25.4204 5.06118C25.6223 4.57025 26.0019 4.17352 26.4835 3.9502C26.1217 4.40155 25.8523 4.91969 25.6905 5.47508" stroke="white" stroke-width="0.418253" stroke-linejoin="round"/>
<path d="M25.6079 5.47514C26.0079 4.86282 26.5813 4.38353 27.2548 4.09839C26.732 4.6212 25.9608 5.5797 25.7735 5.95874M25.8998 5.93696C26.2745 5.72783 27.0282 5.39236 27.5685 5.50128C27.2374 5.62327 26.2353 6.08073 25.7953 6.50334" fill="black"/>
<path d="M25.6079 5.47514C26.0079 4.86282 26.5813 4.38353 27.2548 4.09839C26.732 4.6212 25.9608 5.5797 25.7735 5.95874M25.8998 5.93696C26.2745 5.72783 27.0282 5.39236 27.5685 5.50128C27.2374 5.62327 26.2353 6.08073 25.7953 6.50334" stroke="white" stroke-width="0.418253" stroke-linejoin="round"/>
<path d="M25.8168 5.78893C26.1697 5.41424 26.8189 4.85222 27.5072 4.62131C27.0062 5.10055 25.9388 6.18975 25.795 6.35531M24.8147 5.56238C24.5621 4.78687 24.1874 4.05928 23.6253 3.82837C24.073 4.46839 24.3844 5.19353 24.5403 5.95884M24.3311 5.54059C23.9172 5.03956 23.3509 4.53853 22.7061 4.43396C23.3379 4.84743 23.8371 5.43437 24.1438 6.1244" fill="black"/>
<path d="M25.8168 5.78893C26.1697 5.41424 26.8189 4.85222 27.5072 4.62131C27.0062 5.10055 25.9388 6.18975 25.795 6.35531M24.8147 5.56238C24.5621 4.78687 24.1874 4.05928 23.6253 3.82837C24.073 4.46839 24.3844 5.19353 24.5403 5.95884M24.3311 5.54059C23.9172 5.03956 23.3509 4.53853 22.7061 4.43396C23.3379 4.84743 23.8371 5.43437 24.1438 6.1244" stroke="white" stroke-width="0.418253" stroke-linejoin="round"/>
<path d="M24.5662 5.51882C24.0434 4.57775 23.6426 4.4122 23.416 4.22485C23.6034 4.57775 24.0608 5.51882 24.3309 5.91529" fill="black"/>
<path d="M24.5662 5.51882C24.0434 4.57775 23.6426 4.4122 23.416 4.22485C23.6034 4.57775 24.0608 5.51882 24.3309 5.91529" stroke="white" stroke-width="0.418253" stroke-linejoin="round"/>
<path d="M23.521 5.45776C23.819 5.64515 24.0743 5.89303 24.2704 6.18535" stroke="white" stroke-width="0.418253" stroke-linejoin="round"/>
<path d="M23.521 5.89339C23.643 5.99795 23.8739 6.1243 24.083 6.31164L23.521 5.89339ZM26.0044 6.20708C26.2135 6.04152 26.671 5.7714 26.9019 5.68426L26.0044 6.20708ZM25.8562 6.06331C26.0654 5.78883 26.4836 5.41414 26.6318 5.2878L25.8562 6.06331ZM26.4401 4.76498C26.1593 5.07961 25.8946 5.40824 25.6471 5.74962L26.4401 4.76498ZM25.8998 4.57764C25.7021 4.87011 25.5273 5.17746 25.377 5.49692L25.8998 4.57764ZM24.2486 4.6212C24.3749 4.95668 24.6058 5.51871 24.6843 5.74962L24.2486 4.6212ZM24.0612 4.97411C24.1484 5.10481 24.3139 5.39236 24.3749 5.60148L24.0612 4.97411Z" fill="black"/>
<path d="M23.521 5.89339C23.643 5.99795 23.8739 6.1243 24.083 6.31164M26.0044 6.20708C26.2135 6.04152 26.671 5.7714 26.9019 5.68426M25.8562 6.06331C26.0654 5.78883 26.4836 5.41414 26.6318 5.2878M26.4401 4.76498C26.1593 5.07961 25.8946 5.40824 25.6471 5.74962M25.8998 4.57764C25.7021 4.87011 25.5273 5.17746 25.377 5.49692M24.2486 4.6212C24.3749 4.95668 24.6058 5.51871 24.6843 5.74962M24.0612 4.97411C24.1484 5.10481 24.3139 5.39236 24.3749 5.60148" stroke="white" stroke-width="0.418253" stroke-linejoin="round"/>
<path d="M24.771 4.86965C24.771 4.68231 24.8973 4.47754 25.0237 4.47754C25.1675 4.47754 25.272 4.72588 25.272 4.86965C25.272 5.03957 25.1457 5.18334 25.0237 5.18334C24.893 5.18334 24.771 5.06135 24.771 4.86965Z" fill="black" stroke="white" stroke-width="0.418253" stroke-linejoin="round"/>
<path d="M24.501 5.03943C24.5227 4.8303 24.6665 4.66474 24.7929 4.68217C24.9192 4.70395 24.9802 4.95665 24.9584 5.10042C24.9366 5.26598 24.7929 5.39233 24.6883 5.37054C24.5837 5.37054 24.4792 5.22677 24.501 5.03943ZM25.063 5.10042C25.0194 4.91308 25.1065 4.70831 25.2329 4.68217C25.3549 4.66474 25.4812 4.86951 25.503 5.03943C25.5466 5.20498 25.4377 5.37054 25.3331 5.37054C25.2329 5.39233 25.0848 5.28776 25.063 5.10042Z" fill="black" stroke="white" stroke-width="0.418253" stroke-linejoin="round"/>
<path d="M24.7495 5.26614C24.7495 5.06137 24.8759 4.87402 25.0022 4.87402C25.146 4.87402 25.2505 5.10058 25.2505 5.26614C25.2505 5.43605 25.1286 5.57982 25.0022 5.57982C24.8759 5.57982 24.7495 5.45783 24.7495 5.26614Z" fill="black" stroke="white" stroke-width="0.418253" stroke-linejoin="round"/>
<path d="M24.3745 5.37064C24.3745 5.1833 24.5226 4.97853 24.6446 4.97853C24.7753 4.97853 24.8973 5.22687 24.8973 5.37064C24.8973 5.54056 24.7492 5.68433 24.6446 5.68433C24.5226 5.68433 24.3745 5.56234 24.3745 5.37064ZM25.1457 5.28786C25.1457 5.10052 25.2764 4.89575 25.3984 4.89575C25.5421 4.89575 25.6467 5.14409 25.6467 5.28786C25.6467 5.45778 25.5247 5.60155 25.3984 5.60155C25.272 5.60155 25.1457 5.47521 25.1457 5.28786Z" fill="black" stroke="white" stroke-width="0.418253" stroke-linejoin="round"/>
<path d="M25.063 5.45775C25.063 5.24862 25.2111 5.06128 25.3331 5.06128C25.4638 5.06128 25.5858 5.28783 25.5858 5.45339C25.5858 5.62331 25.4595 5.77144 25.3331 5.77144C25.2111 5.77144 25.063 5.64073 25.063 5.45775Z" fill="black" stroke="white" stroke-width="0.418253" stroke-linejoin="round"/>
<path d="M24.7318 5.64506C24.7318 5.43593 24.8538 5.24859 24.9801 5.24859C25.1283 5.24859 25.2328 5.49693 25.2328 5.6407C25.2328 5.81497 25.1021 5.95875 24.9801 5.95875C24.8538 5.95875 24.7274 5.82804 24.7274 5.64506H24.7318ZM24.209 5.64506C24.209 5.43593 24.3135 5.24859 24.4181 5.24859C24.5227 5.24859 24.6055 5.49693 24.6055 5.6407C24.6055 5.81497 24.5009 5.95875 24.4181 5.95875C24.3135 5.95875 24.209 5.82804 24.209 5.64506ZM25.3766 5.60585C25.3766 5.41415 25.4812 5.22681 25.5857 5.22681C25.6903 5.22681 25.7949 5.45772 25.7949 5.60149C25.7949 5.78883 25.6685 5.91518 25.5857 5.91518C25.4812 5.91518 25.3766 5.78883 25.3766 5.60149V5.60585Z" fill="black" stroke="white" stroke-width="0.418253" stroke-linejoin="round"/>
<path d="M25.503 5.95448C25.5465 5.74971 25.6685 5.57979 25.7513 5.60594C25.8384 5.62336 25.8559 5.8717 25.8167 6.01983C25.7949 6.20717 25.6685 6.31174 25.5858 6.28995C25.4986 6.27253 25.4594 6.12439 25.4986 5.95884L25.503 5.95448Z" fill="black" stroke="white" stroke-width="0.418253" stroke-linejoin="round"/>
<path d="M25.1068 5.89345C25.1285 5.70611 25.2505 5.51877 25.3551 5.54055C25.4814 5.54055 25.5424 5.78889 25.525 5.93266C25.5032 6.12436 25.3943 6.25071 25.2941 6.22893C25.1895 6.22893 25.085 6.08079 25.1068 5.89345ZM24.5229 5.95445C24.4576 5.74968 24.3313 5.6059 24.2485 5.62333C24.1657 5.64511 24.1439 5.89345 24.1875 6.04158C24.231 6.20714 24.353 6.3117 24.4358 6.28992C24.5012 6.27249 24.5665 6.12436 24.5229 5.9588V5.95445Z" fill="black" stroke="white" stroke-width="0.418253" stroke-linejoin="round"/>
<path d="M24.3745 5.91521C24.3745 5.72787 24.4791 5.54053 24.5836 5.54053C24.71 5.54053 24.7928 5.77144 24.7928 5.91521C24.7928 6.10255 24.6882 6.2289 24.5836 6.2289C24.4965 6.2289 24.3745 6.10255 24.3745 5.91521Z" fill="black" stroke="white" stroke-width="0.418253" stroke-linejoin="round"/>
<path d="M24.6882 5.99799C24.6882 5.78887 24.8146 5.60588 24.9366 5.60588C25.0847 5.60588 25.1893 5.83243 25.1893 5.99799C25.1893 6.16791 25.0629 6.31168 24.9366 6.31168C24.8146 6.31168 24.6882 6.18534 24.6882 5.99799ZM24.7928 3.70196C24.7492 3.86752 24.6055 4.01565 24.7057 4.24656C24.5227 4.18121 24.3571 4.15942 24.209 4.32934C24.3963 4.30755 24.5619 4.37291 24.6447 4.4949C24.4791 4.47311 24.3963 4.56025 24.3528 4.66481C24.5009 4.62124 24.6447 4.57768 24.71 4.59946C24.6447 4.66481 24.5401 4.76502 24.5227 4.85215C24.6447 4.74759 24.7928 4.76502 24.8756 4.70402C24.8146 4.85215 24.9366 4.99593 25.0411 5.1397C25.0237 4.93493 25.1457 4.79116 25.0847 4.68224C25.272 4.72581 25.2938 4.89137 25.564 4.89137C25.4594 4.83037 25.3984 4.62124 25.272 4.62124C25.333 4.59946 25.5857 4.57768 25.6293 4.62124C25.5857 4.53411 25.4376 4.45569 25.3548 4.45569C25.442 4.36855 25.5857 4.20299 25.6903 4.15942C25.5422 4.18121 25.3156 4.20299 25.2328 4.32934C25.4376 4.15942 25.3984 3.85009 25.6249 3.80652C25.503 3.78474 25.3156 3.86752 25.1675 4.01565C25.2328 3.8893 25.2328 3.72374 25.3156 3.68018C25.1457 3.72374 24.9584 3.93287 24.8974 4.03743C24.8883 3.91914 24.8526 3.80444 24.7928 3.70196Z" fill="black" stroke="white" stroke-width="0.418253" stroke-linejoin="round"/>
<path d="M24.8973 4.03741C24.8973 4.0984 24.8973 4.22475 24.8755 4.26396L24.8973 4.03741ZM25.1674 4.01562C25.1238 4.05919 25.041 4.20297 25.041 4.32931L25.1674 4.01562Z" fill="black"/>
<path d="M24.8973 4.03741C24.8973 4.0984 24.8973 4.22475 24.8755 4.26396M25.1674 4.01562C25.1238 4.05919 25.041 4.20297 25.041 4.32931" stroke="white" stroke-width="0.418253" stroke-linejoin="round"/>
<path d="M25.2941 4.26392C25.2223 4.30681 25.1694 4.3753 25.146 4.45562" stroke="white" stroke-width="0.418253" stroke-linejoin="round"/>
<path d="M18.5295 18.5281C18.6559 18.8592 19.5534 19.2993 20.599 18.7372C21.3091 18.3364 21.7666 17.7787 22.2066 16.7767C22.3286 16.524 22.394 16.2103 22.1021 16.023C21.8712 15.853 21.4921 15.6657 21.3266 15.5001C21.2438 15.413 21.161 15.352 21.1 15.291C21.1436 15.3346 21.1828 15.3738 21.222 15.4348C21.6403 15.9358 21.2046 16.6678 20.7428 17.1078C20.4073 17.4215 19.806 18.1926 18.926 17.4607C18.7386 17.2951 18.2986 17.9835 18.5339 18.5281H18.5295ZM31.2252 18.5281C31.0771 18.8592 30.1796 19.2993 29.1557 18.7372C28.4499 18.3364 27.9881 17.7787 27.5307 16.7767C27.4261 16.524 27.3607 16.2103 27.6526 16.023C27.8836 15.853 28.2626 15.6657 28.4282 15.5001C28.5109 15.413 28.5719 15.352 28.6547 15.291C28.6111 15.3346 28.5719 15.3738 28.5327 15.4348C28.1145 15.9358 28.5501 16.6678 28.9902 17.1078C29.3257 17.4215 29.9487 18.1926 30.8288 17.4607C31.0161 17.2951 31.4343 17.9835 31.2209 18.5281H31.2252Z" fill="#FCEA83" stroke="black" stroke-width="0.0609952"/>
<path d="M24.8774 20.3231C26.5461 20.3231 29.1166 19.5694 30.4977 16.9379C30.7242 16.5022 30.4977 16.2713 30.2232 16.1275C29.9129 15.9713 29.6303 15.7652 29.3867 15.5176C29.7222 15.8531 29.6568 16.084 29.4303 16.4586C28.3628 18.2362 26.9033 19.1337 24.8774 19.1337C22.8515 19.1337 21.392 18.2362 20.3245 16.4586C20.098 16.084 20.0326 15.8531 20.3463 15.5219C20.1063 15.7726 19.8229 15.9778 19.5098 16.1275C19.2397 16.2713 19.0088 16.5022 19.2397 16.9379C20.6165 19.5694 23.2044 20.3231 24.8774 20.3231Z" fill="#FCEA83" stroke="black" stroke-width="0.0609952"/>
<path d="M21.0098 16.7941C20.9663 16.5849 20.7005 16.6677 20.6177 16.9204C20.505 16.7759 20.4058 16.6213 20.3215 16.4586C20.0731 16.0839 20.0296 15.8312 20.3868 15.4783C20.5524 15.3128 20.8879 15.1211 21.1144 15.3302C21.5937 15.7267 21.3453 16.3758 21.0098 16.7941ZM28.717 16.7941C28.7606 16.5849 29.0525 16.6677 29.1353 16.9204C29.2398 16.7723 29.3444 16.6285 29.4272 16.4586C29.6755 16.0839 29.7191 15.8312 29.34 15.4783C29.1963 15.3128 28.8608 15.1211 28.6125 15.3302C28.1506 15.7267 28.3816 16.3758 28.717 16.7941ZM18.5265 18.5281C18.3173 18.2144 18.1518 17.3953 18.1082 17.1905C18.0472 17.0032 18.0254 16.8333 18.2563 16.7549C18.4873 16.6677 18.692 16.9596 18.7966 17.2123C18.9012 17.4607 19.0711 17.8353 19.2584 18.2972C18.7966 18.027 18.4219 18.21 18.5265 18.5281ZM31.2222 18.5281C31.4095 18.2144 31.5751 17.3953 31.6404 17.1905C31.684 17.0032 31.7232 16.8333 31.4923 16.7549C31.2614 16.6677 31.0566 16.9596 30.9521 17.2123C30.8475 17.4607 30.6776 17.8353 30.4902 18.2972C30.9521 18.027 31.305 18.21 31.2222 18.5281Z" fill="#C8102E" stroke="black" stroke-width="0.0609952"/>
<path d="M19.7409 16.6461L19.5754 16.7332C19.5318 16.7507 19.5318 16.7942 19.5318 16.816H19.51L19.4272 16.6287H19.449C19.449 16.6461 19.4708 16.6722 19.51 16.6461L19.8673 16.4588C19.9108 16.437 19.9108 16.4152 19.8891 16.3978L19.9065 16.376L20.0111 16.5851H19.9936C19.9718 16.5633 19.9501 16.5415 19.9065 16.5633L19.7627 16.6505L19.8237 16.7724L19.9936 16.7114C20.0372 16.6897 20.0111 16.6461 20.0111 16.6243H20.0328L20.12 16.816C20.0982 16.7942 20.0764 16.7724 20.0328 16.7942L19.6799 16.9816C19.6364 17.0034 19.6364 17.0251 19.6582 17.0426L19.6364 17.0644L19.5318 16.877L19.5536 16.8552C19.5754 16.877 19.5972 16.8988 19.6407 16.877L19.8063 16.7899L19.7409 16.6461ZM20.0982 16.9206C20.1418 16.8988 20.1418 16.877 20.1156 16.8334H20.1374L20.3465 17.1471L20.2028 17.2517V17.2343C20.2855 17.1689 20.2855 17.0861 20.2638 17.0644C20.242 17.0426 20.2202 17.0208 20.2202 17.0034C20.2028 17.0034 20.2028 16.9816 20.1592 17.0251L20.0111 17.1297C20.0328 17.1471 20.0546 17.2125 20.1592 17.1471H20.181L19.9501 17.317V17.2953C20.0546 17.2081 20.0111 17.1471 19.9936 17.1297L19.8455 17.2343C19.8019 17.2517 19.8019 17.2778 19.8019 17.2953C19.8237 17.2953 19.8237 17.317 19.8455 17.3388C19.8673 17.3824 19.9326 17.4216 20.0328 17.3824L20.0546 17.3998L19.8891 17.4608L19.6799 17.1297H19.7017C19.7192 17.1471 19.7453 17.1733 19.7845 17.1471L20.0982 16.9206ZM20.4293 17.7135L20.2855 17.8355C20.2638 17.8573 20.2638 17.9009 20.2855 17.9226H20.2638L20.1156 17.7745L20.1374 17.7527C20.1592 17.7745 20.181 17.7963 20.2245 17.7527L20.4947 17.4826C20.5382 17.4608 20.5382 17.439 20.5121 17.3955L20.6602 17.5697C20.6384 17.5436 20.5992 17.5436 20.5731 17.5697L20.4511 17.6917L20.5557 17.7963L20.682 17.6917C20.7256 17.6482 20.7038 17.6307 20.682 17.6046L20.7038 17.5872L20.8476 17.7527H20.8258C20.8084 17.7527 20.7822 17.7353 20.743 17.7745L20.4729 18.0272C20.4293 18.0708 20.4293 18.0882 20.4511 18.11V18.1318L20.3073 17.9619C20.3247 17.9619 20.3683 17.9836 20.3901 17.9619L20.5339 17.8181L20.4293 17.7135ZM20.743 18.1536L20.8084 18.2145L20.8911 18.0272C20.8911 18.0272 20.8258 18.0446 20.7212 18.11L20.743 18.1536ZM20.743 18.1536L20.7212 18.171L20.6776 18.1274C20.6602 18.1492 20.6384 18.1492 20.6167 18.171C20.5557 18.2145 20.5731 18.2363 20.5992 18.2581V18.2755L20.4947 18.171H20.5121L20.5992 18.1492L21.0131 17.9226L21.0349 17.9401C21.0349 17.9401 21.0131 17.9619 20.8258 18.3801C20.8258 18.4237 20.8084 18.4411 20.8258 18.4847L20.6602 18.3409L20.682 18.3191C20.7038 18.3627 20.743 18.3627 20.7648 18.3191C20.7648 18.2973 20.7866 18.2538 20.7866 18.232L20.7212 18.171L20.743 18.1492V18.1536ZM20.9086 18.5674L20.9303 18.5457C20.9521 18.5674 20.9739 18.5674 21.0175 18.5457L21.2876 18.1928L21.2658 18.171C21.2222 18.1492 21.1613 18.1492 21.1003 18.2145V18.1928L21.183 18.0882L21.4967 18.3191L21.3922 18.4411H21.3704C21.4314 18.3801 21.4139 18.2973 21.3704 18.2755V18.2538L21.1003 18.611C21.0567 18.6328 21.0785 18.672 21.1003 18.6938H21.0785L20.9086 18.5674Z" fill="#00493D"/>
<path d="M21.4532 18.6502L21.3487 18.7983C21.3269 18.8419 21.3487 18.8593 21.3704 18.8855L21.3487 18.9029L21.1831 18.7766V18.7548C21.2267 18.7766 21.2441 18.7766 21.2659 18.7373L21.4968 18.4237C21.5142 18.3801 21.4968 18.3583 21.475 18.3365L21.4968 18.3191L21.6624 18.4411V18.4629C21.6188 18.4411 21.6014 18.4411 21.5752 18.4847L21.475 18.6328L21.6014 18.7156L21.7059 18.5674C21.7233 18.5239 21.7059 18.5064 21.6841 18.4847L21.7059 18.4629L21.8715 18.5892V18.611C21.8497 18.5892 21.8105 18.5892 21.7843 18.6328L21.5796 18.9639C21.536 18.9857 21.5578 19.0075 21.5796 19.0293V19.0467L21.3922 18.9247H21.414C21.4314 18.9247 21.4576 18.9247 21.475 18.9029L21.5796 18.7373L21.4532 18.6502ZM21.8715 19.2384L21.8933 19.2166C21.915 19.2384 21.9543 19.2384 21.976 19.1948L22.1416 18.8419C22.1634 18.7983 22.1416 18.7766 22.1198 18.7548L22.4771 18.9247L22.3899 19.0902L22.3725 19.0685C22.4335 18.9857 22.3725 18.9029 22.3507 18.8811C22.3289 18.8811 22.3072 18.8593 22.2897 18.8593C22.2679 18.8593 22.2679 18.8593 22.2462 18.9029C22.2244 18.9247 22.1634 19.0467 22.1634 19.0467C22.1852 19.0685 22.2244 19.112 22.3115 19.0031H22.3289L22.207 19.2558L22.1852 19.2384C22.2462 19.1077 22.1634 19.0902 22.1416 19.0902L22.0588 19.2558C22.037 19.2994 22.0588 19.3212 22.0806 19.3212V19.3429L21.8715 19.2384ZM22.4771 19.5303C22.4161 19.4867 22.4161 19.3604 22.4771 19.2384C22.5206 19.1077 22.6034 19.0075 22.6862 19.0467C22.7472 19.0685 22.7298 19.1948 22.6862 19.3212C22.6208 19.4649 22.5381 19.5477 22.4771 19.5303H22.4553C22.6034 19.5913 22.708 19.5085 22.769 19.3604C22.83 19.2384 22.8125 19.0902 22.6818 19.0293C22.5599 18.9639 22.4335 19.0467 22.3725 19.1948C22.3115 19.3429 22.3289 19.4867 22.4596 19.5303H22.4771ZM23.1219 19.5695L23.209 19.3212C23.2264 19.2776 23.209 19.2558 23.1872 19.234L23.2918 19.2558V19.2776C23.27 19.2776 23.2482 19.2776 23.2264 19.3212L23.1437 19.5695C23.1001 19.6741 23.0391 19.7568 22.9171 19.7176C22.83 19.6958 22.769 19.5913 22.8125 19.4867L22.9171 19.2166C22.9345 19.173 22.9171 19.1512 22.8953 19.1295V19.112L23.0827 19.1948V19.2166C23.0609 19.1948 23.0217 19.1948 23.0217 19.2384L22.9128 19.5041C22.891 19.5869 22.891 19.6697 22.9563 19.6915C23.0173 19.7133 23.0783 19.6697 23.1175 19.5651L23.1219 19.5695ZM23.3136 19.2994C23.3136 19.2776 23.3136 19.2776 23.2918 19.2776L23.4356 19.2994L23.5663 19.6958L23.6273 19.4431C23.6447 19.3996 23.6273 19.3822 23.6055 19.3604L23.7275 19.3822L23.71 19.4039C23.6883 19.4039 23.6665 19.4039 23.6447 19.4475L23.5401 19.905H23.5227L23.3528 19.4039L23.2482 19.7394C23.2482 19.8004 23.27 19.8004 23.2918 19.8222V19.844L23.1654 19.8004V19.7786C23.1872 19.8004 23.2264 19.7786 23.2264 19.7351L23.331 19.3604L23.3136 19.2994ZM24.0237 19.7176C23.9802 19.905 23.893 19.9485 23.8538 19.9485H23.8103C23.8103 19.9485 23.7928 19.9268 23.8103 19.905L23.8756 19.4867C23.8974 19.4649 23.8974 19.4431 23.9192 19.4649H23.9627C24.002 19.4649 24.0412 19.5521 24.0237 19.7176L24.0847 19.7394C24.1283 19.5303 24.0412 19.4431 23.9366 19.4257C23.8538 19.4039 23.7275 19.3822 23.7275 19.3822V19.4039C23.7493 19.4257 23.7928 19.4257 23.771 19.4911L23.71 19.8614C23.6883 19.905 23.6665 19.9268 23.6447 19.9268H23.6273L23.832 19.9703C23.9366 19.9877 24.0412 19.9703 24.0847 19.7394L24.0237 19.7176ZM24.2111 19.5477C24.2111 19.5041 24.1675 19.4867 24.1457 19.4867V19.4649L24.5248 19.5085L24.503 19.6741C24.503 19.5695 24.4376 19.5303 24.3984 19.5303C24.3766 19.5085 24.3549 19.5085 24.3331 19.5085C24.3156 19.5085 24.3156 19.5085 24.3156 19.5695L24.2939 19.7394C24.3156 19.7394 24.3766 19.7568 24.4202 19.6348L24.3984 19.905H24.3766C24.3766 19.7786 24.3156 19.7786 24.2895 19.7786L24.2721 19.966C24.2721 20.0095 24.2721 20.0095 24.2939 20.0095L24.3374 20.0313C24.3984 20.0313 24.4594 20.0095 24.503 19.8832H24.5248L24.4812 20.0487L24.0847 20.0052C24.1283 20.0052 24.1457 19.9877 24.1719 19.9485L24.2111 19.5477ZM24.8995 19.8004C24.8995 19.9877 24.8341 20.0487 24.7731 20.0487C24.7513 20.0313 24.7513 20.0313 24.7295 20.0313L24.7121 20.0095L24.7339 19.5739C24.7339 19.5477 24.7339 19.5477 24.7513 19.5477H24.7949C24.8385 19.5477 24.8995 19.6131 24.8995 19.8004H24.9822C24.9822 19.5913 24.8777 19.5303 24.7731 19.5303C24.686 19.5085 24.564 19.5085 24.564 19.5085V19.5303C24.5858 19.5303 24.6293 19.5477 24.6293 19.5913L24.6076 19.9877C24.6076 20.0313 24.5858 20.0487 24.564 20.0487V20.0705H24.7513C24.8559 20.0705 24.9605 20.027 24.9822 19.8004H24.8951H24.8995ZM25.5051 19.966C25.5051 20.0095 25.5268 20.0095 25.566 20.0095V20.0313L25.3351 20.0487C25.3569 20.0313 25.4005 20.0052 25.4005 19.966L25.3569 19.5739C25.3351 19.5303 25.3134 19.5303 25.2741 19.5303V19.5085L25.5051 19.4867C25.4833 19.5085 25.4397 19.5303 25.4615 19.5739L25.5051 19.966ZM25.7142 20.0095V19.9877C25.736 19.9877 25.7577 19.966 25.7577 19.9268L25.6706 19.4911H25.6488C25.6053 19.5085 25.566 19.5477 25.5878 19.6348H25.566L25.5443 19.4867L25.9233 19.4257L25.9407 19.5695H25.9233C25.9233 19.4867 25.858 19.4649 25.7926 19.4649H25.7752L25.8623 19.9006C25.8623 19.9442 25.8797 19.966 25.9233 19.966V19.9877L25.7142 20.0095ZM26.6117 19.5913L26.5245 19.3429C26.5245 19.2994 26.4853 19.2994 26.4635 19.2994V19.2776L26.5681 19.234V19.2558C26.5463 19.2776 26.5463 19.2776 26.5463 19.3212L26.6335 19.5913C26.6509 19.6784 26.6509 19.8004 26.5289 19.844C26.4418 19.8614 26.3416 19.8222 26.3198 19.6958L26.2326 19.4257C26.2152 19.3822 26.1934 19.3822 26.1716 19.3822L26.1499 19.3604L26.359 19.2994V19.3212C26.3416 19.3429 26.3154 19.3647 26.3416 19.4039L26.4026 19.6741C26.4243 19.7612 26.4897 19.8004 26.5463 19.8004C26.6117 19.7786 26.6335 19.6958 26.6117 19.5913ZM26.8426 19.4431C26.9428 19.3996 26.9254 19.3429 26.9036 19.2776C26.8818 19.2166 26.8426 19.173 26.799 19.1948C26.7772 19.1948 26.7555 19.2166 26.7772 19.2384L26.8426 19.4431ZM26.86 19.4649L26.9036 19.6348C26.9254 19.6784 26.9646 19.6784 26.9907 19.6523V19.6741L26.799 19.7612L26.7772 19.7394C26.8208 19.7176 26.8208 19.6958 26.8208 19.6523L26.6727 19.2994C26.6509 19.2384 26.6291 19.2558 26.5899 19.2558V19.2384L26.799 19.1512C26.8862 19.1338 26.9646 19.1512 27.0081 19.2384C27.0299 19.3429 26.9864 19.4039 26.9036 19.4475C26.8818 19.4475 26.86 19.4649 26.86 19.4649Z" fill="#00493D"/>
<path d="M27.3609 19.5042C27.2999 19.5304 27.2171 19.4432 27.1517 19.2995C27.0907 19.1731 27.0907 19.0468 27.1517 19.0293C27.2171 19.0076 27.2999 19.0903 27.3609 19.2167C27.4262 19.343 27.4262 19.465 27.3609 19.5086C27.4916 19.465 27.5308 19.3213 27.4654 19.1731C27.4044 19.0468 27.2781 18.964 27.1517 19.0076C27.1224 19.0223 27.0964 19.0427 27.0751 19.0677C27.0539 19.0927 27.0379 19.1218 27.0281 19.1531C27.0184 19.1844 27.015 19.2174 27.0183 19.25C27.0216 19.2826 27.0314 19.3143 27.0472 19.343C27.1125 19.4868 27.2389 19.5696 27.3609 19.5086V19.5042ZM27.3826 18.9248H27.3434L27.4654 18.8376L27.8445 19.0468L27.7138 18.8202C27.6963 18.7767 27.6528 18.7767 27.6353 18.7767V18.7549L27.7399 18.7113C27.7181 18.7374 27.6963 18.7549 27.7399 18.7984L27.949 19.2167L27.9272 19.2385L27.4654 18.9858L27.6353 19.2995C27.6528 19.343 27.6963 19.343 27.7181 19.3213V19.343L27.6136 19.404V19.3822C27.6353 19.3605 27.6353 19.3387 27.6136 19.2995L27.448 18.964L27.3826 18.9248ZM28.3237 18.9858V18.964C28.3237 18.9422 28.3455 18.9204 28.3237 18.8812L28.071 18.5283H28.0492C28.0057 18.5457 27.9882 18.6329 28.0492 18.6939L28.0318 18.7157L27.9447 18.5675L28.2584 18.3584L28.3455 18.4891C28.2801 18.4238 28.2148 18.4238 28.1756 18.4455L28.1538 18.463L28.4065 18.8202C28.4283 18.8638 28.4675 18.8638 28.4936 18.842V18.8594L28.3237 18.9858Z" fill="#00493D"/>
<path d="M28.5551 18.4846L28.677 18.6328C28.6988 18.6502 28.7424 18.6502 28.7642 18.6328V18.6502L28.5943 18.7983V18.7765C28.616 18.7547 28.616 18.733 28.5943 18.6938L28.3459 18.3801C28.3241 18.3365 28.3024 18.3583 28.2588 18.3583L28.4287 18.2145V18.2363C28.4287 18.2537 28.4069 18.2799 28.4287 18.3191L28.5333 18.4411L28.6553 18.3583L28.5551 18.2145C28.5333 18.1709 28.4897 18.1927 28.4679 18.1927L28.6378 18.0446V18.0664C28.616 18.0882 28.616 18.1099 28.6378 18.1535L28.8862 18.4628C28.908 18.4846 28.9297 18.4846 28.9515 18.4628L28.9689 18.4846L28.8034 18.6328L28.7816 18.611C28.8034 18.5892 28.8252 18.5674 28.8034 18.5238L28.677 18.3801L28.5551 18.4846ZM28.7424 18.0446C28.7206 18.0272 28.677 18.0272 28.6553 18.0446V18.0272L28.9297 17.7745L29.0561 17.9008H29.0343C28.9689 17.8137 28.8862 17.8572 28.847 17.879C28.847 17.9008 28.8252 17.9008 28.8034 17.9226C28.8034 17.9226 28.8034 17.94 28.8252 17.9836L28.9515 18.1099C28.9689 18.0882 29.0343 18.0446 28.9515 17.94H28.9689L29.1389 18.1317V18.1492C29.0343 18.0446 28.9907 18.1056 28.9689 18.1317L29.0997 18.2537C29.1171 18.2973 29.1389 18.2973 29.1389 18.2973L29.1999 18.2363C29.2216 18.2145 29.2434 18.1492 29.1999 18.0272H29.2216L29.3044 18.1709L29.0343 18.4411L29.0125 18.4236C29.0343 18.4018 29.0561 18.3801 29.0125 18.3365L28.7424 18.0446ZM29.2434 17.4608C29.2216 17.4826 29.2216 17.5261 29.2609 17.5479C29.3044 17.5871 29.348 17.5871 29.4308 17.5479C29.4743 17.5261 29.5528 17.5043 29.6181 17.5653C29.7227 17.6699 29.6791 17.7527 29.6617 17.7963C29.6399 17.818 29.5963 17.8398 29.5745 17.8572C29.5528 17.8572 29.5528 17.8572 29.5528 17.879V17.9008L29.409 17.7745H29.4308C29.5135 17.818 29.5963 17.8355 29.6399 17.7745C29.6835 17.7309 29.6399 17.6873 29.6181 17.6699C29.5745 17.6263 29.531 17.6263 29.47 17.6699C29.409 17.6917 29.3262 17.6917 29.2609 17.6481C29.1781 17.5653 29.1781 17.5043 29.2173 17.439L29.3044 17.378C29.3262 17.378 29.3262 17.378 29.3044 17.3344L29.4526 17.439H29.4308C29.3262 17.3954 29.2609 17.4216 29.2434 17.4608ZM29.4308 17.2952C29.3872 17.2734 29.3654 17.2952 29.3436 17.317H29.3262L29.5571 16.9815L29.7009 17.0861L29.6791 17.1079C29.653 17.0855 29.6198 17.0732 29.5854 17.0732C29.5511 17.0732 29.5178 17.0855 29.4918 17.1079C29.4918 17.1297 29.47 17.1514 29.47 17.1689C29.4526 17.1689 29.4526 17.1907 29.4918 17.2124C29.5135 17.2342 29.6399 17.317 29.6399 17.317C29.6617 17.2952 29.7009 17.2517 29.6181 17.1689V17.1471L29.8272 17.317C29.7009 17.2517 29.6791 17.317 29.6617 17.3344L29.8055 17.439C29.849 17.4608 29.8664 17.4608 29.8664 17.4608C29.8664 17.439 29.8882 17.4172 29.91 17.3998C29.9318 17.3562 29.9536 17.2952 29.8664 17.2124L29.8882 17.1907L29.9928 17.317L29.7837 17.6307H29.7619C29.7837 17.5871 29.7837 17.5653 29.7445 17.5261L29.4308 17.2952ZM29.9928 16.9205L29.9318 17.0251C29.8447 16.938 29.8055 16.877 29.8055 16.877L29.9928 16.9205ZM30.0364 16.9205C30.0581 16.9205 30.0974 16.938 30.1191 16.938C30.1801 16.9597 30.1627 16.9815 30.1409 17.0251H30.1627L30.2673 16.8334C30.2237 16.877 30.2019 16.8552 30.1627 16.8552C29.7227 16.7724 29.6835 16.7506 29.6835 16.7506V16.7724L30.0146 17.1471C30.0364 17.1689 30.0364 17.2124 30.0364 17.2342H30.0581L30.1191 17.1297L30.0974 17.1079C30.0756 17.1514 30.0538 17.1689 30.0146 17.1079L29.971 17.0643L30.0364 16.9205ZM29.8664 16.4587C29.849 16.4805 29.849 16.5241 29.91 16.5459C29.971 16.5633 29.9972 16.5459 30.0581 16.5023C30.1191 16.4587 30.1801 16.4151 30.2629 16.4587C30.3936 16.5241 30.3675 16.6286 30.3501 16.6678L30.2847 16.755V16.7942L30.1191 16.7071C30.2237 16.7288 30.3065 16.7071 30.3283 16.6461C30.3501 16.6025 30.3065 16.5633 30.2847 16.5415C30.2411 16.5241 30.2019 16.5415 30.1409 16.5851C30.0756 16.6461 30.0102 16.6722 29.9318 16.6286C29.8447 16.5851 29.8055 16.5241 29.8447 16.4587C29.8447 16.4151 29.8882 16.3977 29.91 16.3759C29.91 16.3542 29.91 16.3542 29.8882 16.3324V16.3149L30.0581 16.3977H30.0364C29.9318 16.3759 29.8664 16.4195 29.8664 16.4587Z" fill="#00493D"/>
<path d="M23.2672 9.06947C22.9971 9.13047 22.8098 9.15225 22.5571 8.92134C22.3915 8.75578 22.4307 8.46388 22.6007 8.35496C22.788 8.23297 22.9536 8.15019 23.1845 8.21118C23.4154 8.27654 24.021 8.83856 23.8728 8.86035C23.7247 8.86035 23.4982 9.00412 23.2672 9.06947ZM23.9121 8.06741C23.9992 8.00206 24.1038 7.96285 24.3739 7.9367C24.6266 7.91928 24.8096 7.91928 24.8749 8.11098C24.962 8.33753 25.023 8.60765 25.1886 8.734C25.084 8.79499 24.5612 8.86035 24.3739 8.75578C24.1255 8.62944 24.0602 8.14583 23.9164 8.06741H23.9121ZM25.7114 8.08919C25.7942 8.02384 25.8988 8.02384 26.1689 8.04562C26.439 8.06741 26.5436 8.08919 26.6046 8.27654C26.6699 8.48566 26.6046 8.75578 26.7353 8.94313C26.6046 8.98669 26.1907 8.98669 26.0425 8.83856C25.816 8.673 25.8334 8.1894 25.7114 8.08484V8.08919Z" fill="white" stroke="black" stroke-width="0.0609952"/>
<path d="M26.9616 8.21122C26.7743 8.16765 26.6479 8.15022 26.5695 8.21122C26.6697 8.33756 26.5869 8.8386 26.7961 9.00415C26.9398 9.10872 27.3189 9.13486 27.4016 8.89959C27.5062 8.69047 27.5062 8.37678 26.966 8.21122H26.9616ZM24.8137 8.00209C24.8747 7.9411 25.001 7.91931 25.2494 7.91931C25.5239 7.91931 25.6851 7.96288 25.7722 8.12844C25.8593 8.33756 25.8332 8.60769 25.9813 8.7776C25.9203 8.86038 25.3539 8.86038 25.1884 8.73403C24.9575 8.5859 24.9357 8.10665 24.8137 8.00209ZM23.0405 8.18943C23.0405 8.08487 23.1843 8.06744 23.5633 8.04566C23.9336 8.00209 23.9554 8.02387 24.0818 8.294C24.1428 8.44213 24.2255 8.69046 24.3955 8.77324C23.9336 8.88216 23.7855 8.94316 23.5372 8.79503C23.3558 8.6816 23.2059 8.52426 23.1015 8.33756C23.0797 8.27657 23.0797 8.21122 23.0361 8.18943H23.0405Z" fill="#073163" stroke="black" stroke-width="0.0609952"/>
<path d="M24.0468 6.06343C23.6068 5.72796 23.084 5.41427 22.6047 5.35327C23.1048 5.68666 23.5795 6.05654 24.0251 6.4599" fill="#F9D050"/>
<path d="M24.0468 6.06343C23.6068 5.72796 23.084 5.41427 22.6047 5.35327C23.1048 5.68666 23.5795 6.05654 24.0251 6.4599" stroke="black" stroke-width="0.0261408"/>
<path d="M24.295 5.74964C23.7722 5.39238 23.1666 4.99591 22.5828 4.9567C23.1291 5.27331 23.6157 5.68324 24.0205 6.16789M24.9616 5.16583C25.1974 4.62969 25.5468 4.15107 25.9854 3.76294C25.7763 4.20298 25.5497 5.10048 25.4408 5.45774" fill="#F9D050"/>
<path d="M24.295 5.74964C23.7722 5.39238 23.1666 4.99591 22.5828 4.9567C23.1291 5.27331 23.6157 5.68324 24.0205 6.16789M24.9616 5.16583C25.1974 4.62969 25.5468 4.15107 25.9854 3.76294C25.7763 4.20298 25.5497 5.10048 25.4408 5.45774" stroke="black" stroke-width="0.0261408"/>
<path d="M25.4236 5.06118C25.6255 4.57025 26.0051 4.17352 26.4866 3.9502C26.1249 4.40155 25.8554 4.91969 25.6937 5.47508" fill="#F9D050"/>
<path d="M25.4236 5.06118C25.6255 4.57025 26.0051 4.17352 26.4866 3.9502C26.1249 4.40155 25.8554 4.91969 25.6937 5.47508" stroke="black" stroke-width="0.0261408"/>
<path d="M25.6111 5.47514C26.0111 4.86282 26.5844 4.38353 27.258 4.09839C26.7351 4.6212 25.964 5.5797 25.7766 5.95874M25.903 5.93696C26.2777 5.72783 27.0314 5.39236 27.5716 5.50128C27.2405 5.62327 26.2385 6.08073 25.7984 6.50334" fill="#F9D050"/>
<path d="M25.6111 5.47514C26.0111 4.86282 26.5844 4.38353 27.258 4.09839C26.7351 4.6212 25.964 5.5797 25.7766 5.95874M25.903 5.93696C26.2777 5.72783 27.0314 5.39236 27.5716 5.50128C27.2405 5.62327 26.2385 6.08073 25.7984 6.50334" stroke="black" stroke-width="0.0261408"/>
<path d="M25.82 5.78893C26.1729 5.41424 26.822 4.85222 27.5104 4.62131C27.0094 5.10055 25.942 6.18975 25.7982 6.35531M24.8179 5.56238C24.5652 4.78687 24.1905 4.05928 23.6285 3.82837C24.0762 4.46839 24.3876 5.19353 24.5434 5.95884M24.3343 5.54059C23.9204 5.03956 23.354 4.53853 22.7092 4.43396C23.3411 4.84743 23.8403 5.43437 24.147 6.1244" fill="#F9D050"/>
<path d="M25.82 5.78893C26.1729 5.41424 26.822 4.85222 27.5104 4.62131C27.0094 5.10055 25.942 6.18975 25.7982 6.35531M24.8179 5.56238C24.5652 4.78687 24.1905 4.05928 23.6285 3.82837C24.0762 4.46839 24.3876 5.19353 24.5434 5.95884M24.3343 5.54059C23.9204 5.03956 23.354 4.53853 22.7092 4.43396C23.3411 4.84743 23.8403 5.43437 24.147 6.1244" stroke="black" stroke-width="0.0261408"/>
<path d="M24.5694 5.51882C24.0466 4.57775 23.6457 4.4122 23.4192 4.22485C23.6065 4.57775 24.064 5.51882 24.3341 5.91529" fill="#F9D050"/>
<path d="M24.5694 5.51882C24.0466 4.57775 23.6457 4.4122 23.4192 4.22485C23.6065 4.57775 24.064 5.51882 24.3341 5.91529" stroke="black" stroke-width="0.0261408"/>
<path d="M23.5242 5.45776C23.8221 5.64515 24.0774 5.89303 24.2735 6.18535" stroke="black" stroke-width="0.0261408"/>
<path d="M23.5242 5.89339C23.6462 5.99795 23.8771 6.1243 24.0862 6.31164L23.5242 5.89339ZM26.0075 6.20708C26.2167 6.04152 26.6741 5.7714 26.905 5.68426L26.0075 6.20708ZM25.8594 6.06331C26.0685 5.78883 26.4868 5.41414 26.6349 5.2878L25.8594 6.06331ZM26.4432 4.76498C26.1625 5.07961 25.8978 5.40824 25.6503 5.74962L26.4432 4.76498ZM25.903 4.57764C25.7052 4.87011 25.5305 5.17746 25.3802 5.49692L25.903 4.57764ZM24.2518 4.6212C24.3781 4.95668 24.609 5.51871 24.6874 5.74962L24.2518 4.6212ZM24.0644 4.97411C24.1516 5.10481 24.3171 5.39236 24.3781 5.60148L24.0644 4.97411Z" fill="#F9D050"/>
<path d="M23.5242 5.89339C23.6462 5.99795 23.8771 6.1243 24.0862 6.31164M26.0075 6.20708C26.2167 6.04152 26.6741 5.7714 26.905 5.68426M25.8594 6.06331C26.0685 5.78883 26.4868 5.41414 26.6349 5.2878M26.4432 4.76498C26.1625 5.07961 25.8978 5.40824 25.6503 5.74962M25.903 4.57764C25.7052 4.87011 25.5305 5.17746 25.3802 5.49692M24.2518 4.6212C24.3781 4.95668 24.609 5.51871 24.6874 5.74962M24.0644 4.97411C24.1516 5.10481 24.3171 5.39236 24.3781 5.60148" stroke="black" stroke-width="0.0261408"/>
<path d="M24.7742 4.86965C24.7742 4.68231 24.9005 4.47754 25.0269 4.47754C25.1706 4.47754 25.2752 4.72588 25.2752 4.86965C25.2752 5.03957 25.1489 5.18334 25.0269 5.18334C24.8962 5.18334 24.7742 5.06135 24.7742 4.86965Z" fill="#F9D050" stroke="black" stroke-width="0.0261408"/>
<path d="M24.5041 5.03943C24.5259 4.8303 24.6697 4.66474 24.796 4.68217C24.9224 4.70395 24.9834 4.95665 24.9616 5.10042C24.9398 5.26598 24.796 5.39233 24.6915 5.37054C24.5869 5.37054 24.4823 5.22677 24.5041 5.03943ZM25.0662 5.10042C25.0226 4.91308 25.1097 4.70831 25.2361 4.68217C25.3581 4.66474 25.4844 4.86951 25.5062 5.03943C25.5498 5.20498 25.4408 5.37054 25.3363 5.37054C25.2361 5.39233 25.0879 5.28776 25.0662 5.10042Z" fill="#F9D050" stroke="black" stroke-width="0.0261408"/>
<path d="M24.7527 5.26614C24.7527 5.06137 24.879 4.87402 25.0054 4.87402C25.1492 4.87402 25.2537 5.10058 25.2537 5.26614C25.2537 5.43605 25.1317 5.57982 25.0054 5.57982C24.879 5.57982 24.7527 5.45783 24.7527 5.26614Z" fill="#F9D050" stroke="black" stroke-width="0.0261408"/>
<path d="M24.3777 5.37064C24.3777 5.1833 24.5258 4.97853 24.6478 4.97853C24.7785 4.97853 24.9005 5.22687 24.9005 5.37064C24.9005 5.54056 24.7524 5.68433 24.6478 5.68433C24.5258 5.68433 24.3777 5.56234 24.3777 5.37064ZM25.1488 5.28786C25.1488 5.10052 25.2795 4.89575 25.4015 4.89575C25.5453 4.89575 25.6499 5.14409 25.6499 5.28786C25.6499 5.45778 25.5279 5.60155 25.4015 5.60155C25.2752 5.60155 25.1488 5.47521 25.1488 5.28786Z" fill="#F9D050" stroke="black" stroke-width="0.0261408"/>
<path d="M25.0662 5.45775C25.0662 5.24862 25.2143 5.06128 25.3363 5.06128C25.467 5.06128 25.589 5.28783 25.589 5.45339C25.589 5.62331 25.4626 5.77144 25.3363 5.77144C25.2143 5.77144 25.0662 5.64073 25.0662 5.45775Z" fill="#F9D050" stroke="black" stroke-width="0.0261408"/>
<path d="M24.735 5.64506C24.735 5.43593 24.857 5.24859 24.9833 5.24859C25.1314 5.24859 25.236 5.49693 25.236 5.6407C25.236 5.81497 25.1053 5.95875 24.9833 5.95875C24.857 5.95875 24.7306 5.82804 24.7306 5.64506H24.735ZM24.2122 5.64506C24.2122 5.43593 24.3167 5.24859 24.4213 5.24859C24.5258 5.24859 24.6086 5.49693 24.6086 5.6407C24.6086 5.81497 24.5041 5.95875 24.4213 5.95875C24.3167 5.95875 24.2122 5.82804 24.2122 5.64506ZM25.3798 5.60585C25.3798 5.41415 25.4843 5.22681 25.5889 5.22681C25.6935 5.22681 25.798 5.45772 25.798 5.60149C25.798 5.78883 25.6717 5.91518 25.5889 5.91518C25.4843 5.91518 25.3798 5.78883 25.3798 5.60149V5.60585Z" fill="#F9D050" stroke="black" stroke-width="0.0261408"/>
<path d="M25.5061 5.95448C25.5497 5.74971 25.6717 5.57979 25.7545 5.60594C25.8416 5.62336 25.859 5.8717 25.8198 6.01983C25.7981 6.20717 25.6717 6.31174 25.5889 6.28995C25.5018 6.27253 25.4626 6.12439 25.5018 5.95884L25.5061 5.95448Z" fill="#F9D050" stroke="black" stroke-width="0.0261408"/>
<path d="M25.1099 5.89345C25.1317 5.70611 25.2537 5.51877 25.3583 5.54055C25.4846 5.54055 25.5456 5.78889 25.5282 5.93266C25.5064 6.12436 25.3975 6.25071 25.2973 6.22893C25.1927 6.22893 25.0882 6.08079 25.1099 5.89345ZM24.5261 5.95445C24.4608 5.74968 24.3344 5.6059 24.2516 5.62333C24.1689 5.64511 24.1471 5.89345 24.1906 6.04158C24.2342 6.20714 24.3562 6.3117 24.439 6.28992C24.5043 6.27249 24.5697 6.12436 24.5261 5.9588V5.95445Z" fill="#F9D050" stroke="black" stroke-width="0.0261408"/>
<path d="M24.3777 5.91521C24.3777 5.72787 24.4823 5.54053 24.5868 5.54053C24.7132 5.54053 24.7959 5.77144 24.7959 5.91521C24.7959 6.10255 24.6914 6.2289 24.5868 6.2289C24.4997 6.2289 24.3777 6.10255 24.3777 5.91521Z" fill="#F9D050" stroke="black" stroke-width="0.0261408"/>
<path d="M24.6914 5.99799C24.6914 5.78887 24.8178 5.60588 24.9397 5.60588C25.0879 5.60588 25.1924 5.83243 25.1924 5.99799C25.1924 6.16791 25.0661 6.31168 24.9397 6.31168C24.8178 6.31168 24.6914 6.18534 24.6914 5.99799ZM24.796 3.70196C24.7524 3.86752 24.6086 4.01565 24.7088 4.24656C24.5258 4.18121 24.3603 4.15942 24.2122 4.32934C24.3995 4.30755 24.5651 4.37291 24.6478 4.4949C24.4823 4.47311 24.3995 4.56025 24.3559 4.66481C24.5041 4.62124 24.6478 4.57768 24.7132 4.59946C24.6478 4.66481 24.5433 4.76502 24.5258 4.85215C24.6478 4.74759 24.796 4.76502 24.8787 4.70402C24.8178 4.85215 24.9397 4.99593 25.0443 5.1397C25.0269 4.93493 25.1489 4.79116 25.0879 4.68224C25.2752 4.72581 25.297 4.89137 25.5671 4.89137C25.4626 4.83037 25.4016 4.62124 25.2752 4.62124C25.3362 4.59946 25.5889 4.57768 25.6325 4.62124C25.5889 4.53411 25.4408 4.45569 25.358 4.45569C25.4451 4.36855 25.5889 4.20299 25.6935 4.15942C25.5453 4.18121 25.3188 4.20299 25.236 4.32934C25.4408 4.15942 25.4016 3.85009 25.6281 3.80652C25.5061 3.78474 25.3188 3.86752 25.1707 4.01565C25.236 3.8893 25.236 3.72374 25.3188 3.68018C25.1489 3.72374 24.9615 3.93287 24.9005 4.03743C24.8915 3.91914 24.8558 3.80444 24.796 3.70196Z" fill="#F9D050" stroke="black" stroke-width="0.0261408"/>
<path d="M24.9004 4.03741C24.9004 4.0984 24.9004 4.22475 24.8787 4.26396L24.9004 4.03741ZM25.1706 4.01562C25.127 4.05919 25.0442 4.20297 25.0442 4.32931L25.1706 4.01562Z" fill="#F9D050"/>
<path d="M24.9004 4.03741C24.9004 4.0984 24.9004 4.22475 24.8787 4.26396M25.1706 4.01562C25.127 4.05919 25.0442 4.20297 25.0442 4.32931" stroke="black" stroke-width="0.0261408"/>
<path d="M25.2973 4.26392C25.2255 4.30681 25.1726 4.3753 25.1492 4.45562" stroke="black" stroke-width="0.0261408"/>
<path d="M23.0806 6.33345C22.9324 6.33345 22.8105 6.27245 22.7233 6.16789C22.5795 5.97619 22.1831 5.89341 22.0132 6.06332C21.9522 6.10689 21.8694 6.10689 21.8084 6.12432C21.7038 6.12432 21.5775 6.22888 21.6167 6.43801C21.7038 6.37266 21.7213 6.43801 21.7866 6.43801C21.8302 6.41622 21.8084 6.45979 21.8084 6.499C21.8084 6.60357 22.0349 6.81269 22.2441 6.79091C22.475 6.79091 22.5795 6.87805 22.6188 6.92161C22.6841 6.97825 22.6405 6.96082 22.6841 7.06539C22.7451 7.12638 22.7669 7.14817 22.6623 7.23095C22.6148 7.27061 22.5765 7.32024 22.5502 7.37633C22.524 7.43242 22.5104 7.4936 22.5104 7.55553C22.5104 7.61746 22.524 7.67864 22.5502 7.73473C22.5765 7.79082 22.6148 7.84045 22.6623 7.88011C22.9324 8.08488 23.6208 8.40293 24.3963 7.79297C25.1457 7.20916 26.3133 7.54464 26.4005 7.74941C26.505 7.96289 26.5442 8.08488 26.566 8.18944C26.5878 8.27658 26.6924 8.35936 26.8405 8.33757C26.9843 8.33757 27.1498 8.39857 27.2326 8.46392C27.3415 8.52492 27.4853 8.50749 27.4461 8.31579C27.359 7.73198 27.006 7.6492 26.9668 7.37908C27.1716 7.3965 27.3154 7.3965 27.4025 7.31373C27.4635 7.23095 27.5463 7.08282 27.6334 7.0436C27.6944 7.00004 27.6944 6.95647 27.6116 6.97825C27.5071 7.00004 27.4461 7.0436 27.2544 7.02182C26.2959 6.91726 23.6034 6.18531 23.0806 6.33345Z" fill="#059334" stroke="black" stroke-width="0.0609952"/>
<path d="M27.3415 7.04356C27.1822 7.15592 27.0461 7.29793 26.9407 7.46182C26.7359 7.73194 26.1085 8.00206 25.333 8.00206C24.5836 8.00206 24.1262 7.88007 23.7907 7.60995C23.6475 7.49542 23.4927 7.39613 23.3289 7.31368C23.1023 7.20912 23.0587 6.97821 23.1197 6.79087C23.0587 6.89543 23.0195 6.99999 22.8932 6.97821C22.806 6.97821 22.6405 6.97821 22.6841 7.06535C22.6623 7.02178 22.6623 6.96078 22.6405 6.93464L22.5969 6.89543C22.6623 6.939 22.8104 6.81265 22.915 6.81265C22.9977 6.83444 23.1023 6.72987 23.0805 6.60353L23.0195 6.3334C23.1851 6.24627 25.3766 6.64709 25.8166 6.6863C26.2523 6.70809 27.507 6.89543 27.3415 7.04356Z" fill="#000001" stroke="black" stroke-width="0.0609952"/>
<path d="M23.3724 6.25066C23.5816 6.04154 23.8299 5.93697 24.0826 5.99797H24.1436C24.2743 5.89341 24.5618 5.87162 24.7318 5.9544H24.8145C25.0629 5.87162 25.5421 5.9544 25.712 6.12432L25.773 6.16788C26.3394 6.12432 26.6705 6.37265 27.067 6.77348C27.1106 6.81705 27.1716 6.89547 27.2761 6.91725C27.4025 6.93904 27.4243 7.00439 27.3197 7.06538C27.1522 7.16899 27.0046 7.30179 26.884 7.4575C26.6923 7.71019 26.0867 7.96289 25.333 7.96289C24.6054 7.96289 24.1654 7.83218 23.8299 7.58384C23.6426 7.44007 23.4988 7.35729 23.3942 7.29194C23.2679 7.24837 23.1023 7.08281 23.1633 6.91725C23.2069 6.7517 23.1023 6.54257 23.0195 6.33344C23.0805 6.28987 23.2461 6.22888 23.3289 6.27245L23.3724 6.25066Z" fill="#059334" stroke="black" stroke-width="0.0609952"/>
<path d="M27.0681 6.77348C26.676 6.37265 26.3405 6.12432 25.7741 6.16353C25.7741 6.18531 25.7741 6.25066 25.7523 6.29423C26.1471 6.47136 26.497 6.7349 26.7762 7.06538C26.8633 6.97825 27.0071 6.87804 27.0681 6.77348ZM25.7131 6.12432C25.5432 5.95876 25.064 5.87162 24.8156 5.95876C24.8156 6.04154 24.8156 6.16788 24.7721 6.25066C24.9202 6.31166 25.0422 6.45979 25.1685 6.60356C25.2557 6.58178 25.4604 6.52078 25.565 6.499C25.6274 6.37966 25.6771 6.25407 25.7131 6.12432ZM24.7329 5.9544C24.5629 5.87162 24.271 5.89341 24.1447 5.99797C24.1011 6.08511 24.0837 6.25066 24.0837 6.33344C24.1708 6.33344 24.2928 6.39444 24.332 6.43801C24.4627 6.39444 24.6283 6.31166 24.6893 6.25066C24.7111 6.16353 24.7503 6.04154 24.7329 5.95876V5.9544ZM23.3735 6.25066C23.5827 6.04154 23.831 5.93697 24.0837 5.99797C24.0401 6.06332 24.0227 6.18531 24.0227 6.31166C23.7918 6.28987 23.4999 6.35523 23.3735 6.43801V6.25066Z" fill="#00493D" stroke="black" stroke-width="0.0609952"/>
<path d="M26.6935 7.10459C26.4311 6.79382 26.104 6.54403 25.735 6.37265C25.735 6.39444 25.6915 6.47722 25.6697 6.54257C25.796 6.72991 26.0444 7.14816 26.1489 7.37907C26.2535 7.3355 26.5454 7.20916 26.6935 7.10459ZM25.1077 7.56642C25.1438 7.28166 25.1641 6.99513 25.1686 6.70813C25.2732 6.68634 25.4823 6.62535 25.5651 6.60356C25.6697 6.77348 25.9224 7.21351 26.0269 7.41828C25.7742 7.47928 25.356 7.58384 25.1077 7.56642ZM24.3757 6.56435C24.4803 6.52078 24.6284 6.43365 24.7286 6.35522C24.8157 6.41622 24.9813 6.56435 25.0423 6.64713C25.0423 6.83447 24.9813 7.37907 24.9595 7.56206C24.794 7.56206 24.5238 7.52285 24.3757 7.44007C24.3975 7.12638 24.4193 6.77348 24.3757 6.56435ZM23.3301 6.81269C23.3519 6.76912 23.3736 6.62535 23.3736 6.56435C23.5392 6.45979 23.9575 6.35522 24.2711 6.52078C24.2929 6.72991 24.2711 7.25273 24.2494 7.37907C23.9699 7.15183 23.6624 6.96147 23.3344 6.81269H23.3301Z" fill="#00493D" stroke="black" stroke-width="0.0609952"/>
<path d="M22.291 6.43364C22.2475 6.43364 22.2257 6.31165 22.1429 6.31165C22.1211 6.31165 22.0601 6.33343 22.0383 6.31165C22.0383 6.35521 22.0601 6.39878 22.0819 6.41621C22.1037 6.4772 22.2082 6.43799 22.291 6.43799V6.43364Z" fill="#000001"/>
<path d="M22.291 6.79094C22.5394 6.79094 22.5829 6.47725 22.7093 6.45982M22.4348 6.81272C22.6221 6.89986 22.7703 6.45982 22.914 6.47725M22.0601 6.27248C22.1211 6.27248 22.1647 6.18534 22.2692 6.28991C22.3128 6.33348 22.3738 6.35526 22.4174 6.35526M22.3738 6.58181C22.2867 6.71252 22.1429 6.79094 22.0601 6.75173M22.0165 6.06335C21.9555 6.10692 21.9163 6.18535 21.8728 6.2507M21.8118 6.37269V6.47725" stroke="black" stroke-width="0.0609952"/>
<path d="M28.7765 9.09127V13.1605C28.7765 16.6895 27.1078 17.9007 24.8728 18.8592C22.6377 17.9007 20.9517 16.6895 20.9517 13.1605V9.08691H28.7765V9.09127Z" fill="white"/>
<path d="M24.8727 12.5332C25.0601 12.5332 25.352 12.3676 25.6047 12.1149C25.8748 11.823 26.3366 11.7228 26.8159 12.1149C27.2951 12.5114 27.587 12.3458 27.8397 12.1149C28.0881 11.8884 28.2972 11.8012 28.7764 11.8012V9.09131H20.9473V11.8056C21.4265 11.8056 21.6356 11.8927 21.8883 12.1193C22.1367 12.3502 22.4286 12.5158 22.9122 12.1193C23.4132 11.7272 23.8489 11.8274 24.1408 12.1193C24.3717 12.372 24.6636 12.5375 24.8727 12.5375V12.5332Z" fill="#C8102E"/>
<path d="M24.8727 14.6245C25.1254 14.6245 25.6265 14.35 25.7485 14.289C26.2103 14.0145 26.5414 14.2672 26.8159 14.3936C27.1078 14.5155 27.648 14.6637 27.9835 14.3936C28.319 14.1191 28.5063 14.1409 28.7372 14.1409C28.7808 13.8272 28.7808 13.5135 28.7808 13.1606V12.9079C28.4845 12.8469 28.3408 12.9297 28.0271 13.2042C27.7134 13.4743 27.3561 13.4133 26.8943 13.2477C26.4586 13.056 26.0229 12.7249 25.5829 13.2477C25.4004 13.4517 25.1457 13.5767 24.8727 13.5963C24.5591 13.5963 24.2889 13.3915 24.1626 13.2477C23.7051 12.7249 23.2869 13.056 22.8468 13.2477C22.3894 13.4133 22.0103 13.4743 21.701 13.2042C21.4091 12.9297 21.261 12.8469 20.9473 12.9079V13.1606C20.9473 13.5135 20.9691 13.8272 21.0083 14.1409C21.2392 14.1409 21.4091 14.1191 21.7402 14.3936C22.0757 14.6637 22.6377 14.5155 22.9122 14.3936C23.2041 14.2672 23.5352 14.0145 23.997 14.289C24.1234 14.35 24.6026 14.6201 24.8727 14.6201V14.6245ZM24.8727 15.522C25.2345 15.5024 25.586 15.3947 25.8966 15.2083C26.3148 14.9774 26.6067 15.0776 27.025 15.2911C27.4607 15.5002 27.8179 15.4348 28.0706 15.2911C28.1926 15.2039 28.2972 15.0384 28.5673 15.1037C28.4453 15.6265 28.2536 16.084 28.0271 16.4587C27.8491 16.5177 27.6611 16.5408 27.4742 16.5266C27.2872 16.5123 27.1049 16.4611 26.9379 16.3759C26.5022 16.1668 25.9576 16.0404 25.6657 16.2278C25.4289 16.3819 25.155 16.4692 24.8727 16.4805C24.6418 16.4805 24.3499 16.3933 24.0798 16.2278C23.7879 16.0404 23.2433 16.1668 22.8076 16.3759C22.6409 16.4618 22.4587 16.5138 22.2718 16.5288C22.0848 16.5437 21.8967 16.5214 21.7184 16.463C21.4919 16.084 21.3045 15.6222 21.1782 15.1037C21.4483 15.0384 21.5529 15.2083 21.6792 15.2911C21.8354 15.3792 22.0118 15.4256 22.1911 15.4256C22.3705 15.4256 22.5469 15.3792 22.7031 15.2911C23.1387 15.0819 23.4306 14.9774 23.8489 15.2039C24.1591 15.3919 24.5106 15.5011 24.8727 15.522ZM24.8727 18.8593C25.6803 18.5463 26.4343 18.1098 27.1078 17.5653C26.9379 17.5043 26.8377 17.5435 26.6895 17.439C26.5414 17.3344 26.1057 17.2952 25.731 17.5043C25.4712 17.6559 25.1757 17.7357 24.8749 17.7357C24.5741 17.7357 24.2787 17.6559 24.0188 17.5043C23.6398 17.2952 23.2041 17.3344 23.0603 17.439C22.9122 17.5435 22.8076 17.5043 22.6377 17.5697C23.3085 18.117 24.0632 18.5524 24.8727 18.8593Z" fill="#0B50A0"/>
<path d="M24.3279 10.1108C24.3496 10.1544 24.3104 10.259 24.3279 10.2982C24.3714 10.3853 24.3714 10.4289 24.4324 10.4681H24.5806C25.038 10.4681 25.5826 10.2807 26.0401 10.2807C26.4801 10.2807 26.7502 10.4245 26.9986 10.4245C27.1467 10.4245 27.2731 10.3199 27.2731 10.2154C27.2731 10.1108 27.1075 10.0498 26.7502 10.0498C26.2492 10.0498 25.9791 10.1762 25.5608 10.1762C24.9335 10.1762 24.8289 9.94527 24.8289 9.8407C24.8289 9.73614 24.9335 9.59236 25.2689 9.59236C25.3735 9.59236 25.4563 9.57058 25.4998 9.52701C25.5216 9.48344 25.5826 9.40067 25.709 9.33967C25.8527 9.25253 26.1446 9.33967 26.2928 9.23511C26.2928 9.32224 26.1664 9.44423 26.0619 9.4878C26.271 9.42245 26.4975 9.42245 26.5411 9.59236C26.4365 9.52701 26.271 9.57058 26.21 9.59236C26.1229 9.60979 26.0836 9.63593 26.0009 9.65336C26.0836 9.63158 26.1272 9.79713 26.2492 9.79713C26.1272 9.9017 25.9181 9.9017 25.709 9.81892C25.6436 9.79713 25.4781 9.73614 25.3735 9.73614C25.1644 9.73614 25.038 9.77971 25.038 9.86249C25.038 9.96705 25.1687 10.028 25.539 10.028C25.9181 10.028 26.1272 9.92348 26.6892 9.92348C26.6457 9.86249 26.711 9.79713 26.6282 9.73614C26.8374 9.73614 27.0639 9.79713 27.1511 9.94527C27.1293 9.79713 27.2513 9.67514 27.2121 9.5488C27.3384 9.57058 27.443 9.69257 27.4604 9.79713C27.4604 9.73614 27.5475 9.73614 27.5475 9.67514C27.6058 9.70664 27.653 9.75533 27.6826 9.81457C27.7122 9.87382 27.7229 9.94075 27.7131 10.0063C27.7741 9.9017 27.8394 9.94527 27.8786 9.81892C27.9222 9.90605 27.9004 10.1544 27.7523 10.2372C27.883 10.15 28.066 10.15 28.1923 10.2982C28.066 10.2807 28.005 10.3417 27.944 10.3635C27.64 10.5189 27.3003 10.591 26.9594 10.5726C26.6282 10.5509 26.5847 10.4855 26.3756 10.4855C26.5019 10.5073 26.7502 10.76 26.9855 10.76C27.1293 10.76 27.2338 10.76 27.2948 10.7382C27.3558 10.7164 27.4604 10.7382 27.5432 10.7818C27.6085 10.8428 27.7349 10.9038 27.8177 10.8863C27.7959 10.9691 27.7523 11.0083 27.6913 11.0301C27.7959 11.0955 27.7349 11.1347 27.8394 11.2175C27.7959 11.2175 27.7523 11.261 27.6913 11.2392C27.7523 11.3002 27.7523 11.3874 27.8177 11.4266C27.7959 11.4266 27.7305 11.4484 27.6913 11.4266C27.7523 11.5137 27.6913 11.6139 27.7523 11.6575C27.8177 11.7446 27.6913 11.8448 27.5867 11.7621C27.6085 11.823 27.5432 11.8884 27.4822 11.8666C27.4212 11.8448 27.3776 11.7795 27.395 11.7621C27.395 11.7403 27.395 11.7403 27.4212 11.7185C27.3776 11.7838 27.2948 11.7838 27.2513 11.7621C27.2338 11.7403 27.2077 11.7185 27.2077 11.7011C27.0639 11.7446 27.0029 11.6139 27.0247 11.5529C27.0421 11.4919 27.1685 11.4658 27.2121 11.4919C27.2556 11.5094 27.2948 11.5355 27.3384 11.4919C27.382 11.4701 27.3994 11.4266 27.3994 11.3874C27.3994 11.322 27.3384 11.1347 27.0639 11.1565C26.7502 11.1782 26.2492 11.0955 26.0009 11.0083C25.9791 10.9909 25.9573 10.9909 25.9355 10.9648C25.9355 11.0519 25.8527 11.0955 25.8527 11.1782C25.8527 11.2828 25.8963 11.3656 26.0227 11.4048C25.9573 11.5094 25.8527 11.4919 25.8135 11.4266C25.8135 11.4919 25.7264 11.5311 25.7264 11.6139C25.709 11.5704 25.6828 11.5529 25.6654 11.5094C25.6044 11.6575 25.4345 11.7403 25.3517 11.7011C25.2471 11.7838 25.1252 11.7621 25.0816 11.6793C25.0206 11.7228 24.9335 11.7228 24.8942 11.6793C24.8942 11.7403 24.8507 11.7228 24.8289 11.8056C24.8289 11.8492 24.7461 11.8666 24.7069 11.8492C24.6633 11.823 24.6415 11.7403 24.6851 11.7011C24.6241 11.7446 24.5588 11.7446 24.5196 11.7011C24.5196 11.6575 24.5196 11.5965 24.5631 11.5704H24.6023C24.5588 11.5529 24.4978 11.5704 24.4542 11.5529C24.4106 11.5094 24.4106 11.4658 24.4324 11.4266C24.4542 11.4048 24.5196 11.3656 24.5631 11.4048L24.5806 11.4266C24.5806 11.383 24.6023 11.3438 24.6241 11.3438C24.6677 11.322 24.7243 11.322 24.7897 11.3874C24.8332 11.4484 24.8725 11.4484 24.9988 11.4309C25.1034 11.4309 25.2689 11.322 25.3909 11.2175C25.0424 11.1565 25.2471 10.9255 25.3517 10.8428C25.2689 10.821 25.1426 10.821 25.0598 10.8646C24.6241 11.0955 24.1623 11.3656 23.8704 11.2828C23.8745 11.3265 23.8894 11.3684 23.914 11.4048C23.8486 11.4048 23.7223 11.4048 23.6831 11.3438C23.6613 11.3874 23.6221 11.4919 23.6613 11.5747C23.6177 11.5311 23.4957 11.4876 23.4304 11.4701C23.4739 11.5137 23.4304 11.5965 23.4521 11.6575C23.3911 11.5965 23.2866 11.5529 23.243 11.5965C23.1994 11.6401 23.1167 11.6575 23.0557 11.6401C23.0151 11.6975 22.957 11.7403 22.8901 11.7621C22.8901 11.7185 22.8901 11.6575 22.8683 11.6357C22.8465 11.7011 22.7812 11.7838 22.7028 11.823C22.7028 11.7795 22.7028 11.7185 22.681 11.6793C22.681 11.7621 22.5154 11.8056 22.4936 11.8666C22.5154 11.8056 22.5154 11.7403 22.5154 11.7011C22.4923 11.7381 22.4618 11.77 22.4258 11.7947C22.3898 11.8194 22.3492 11.8365 22.3063 11.8448C22.3237 11.8013 22.3499 11.7577 22.3237 11.7185C22.3063 11.8056 22.18 11.8492 22.0754 11.823C22.0754 11.8666 21.9883 11.9276 21.888 11.8666C21.8227 11.8448 21.7835 11.7795 21.8227 11.7403C21.7399 11.7403 21.6571 11.6575 21.7007 11.5965C21.7007 11.5747 21.7181 11.5529 21.7181 11.5311C21.6571 11.4876 21.6354 11.4048 21.7007 11.3438C21.7181 11.322 21.7835 11.322 21.8227 11.322C21.8227 11.1565 21.9708 11.1565 22.0318 11.2784C22.0754 11.3438 22.2017 11.4484 22.3063 11.4266C22.3499 11.4266 22.3673 11.4048 22.4109 11.4048C22.5983 11.3429 22.7747 11.2517 22.9337 11.1347C22.9511 11.0737 22.9511 11.0301 22.9511 10.9909C22.8683 11.0345 22.7856 11.0737 22.742 11.1347V11.0737C22.681 11.0737 22.5764 11.0519 22.5329 11.0519C22.5546 11.0301 22.5764 10.9255 22.62 10.9038C22.5154 10.9255 22.4109 10.9038 22.3237 10.8863C22.3673 10.8428 22.3673 10.7818 22.3891 10.7164C22.3455 10.7382 22.241 10.699 22.1582 10.7164C22.18 10.6554 22.2017 10.5726 22.2627 10.5509C22.1756 10.5726 22.0754 10.5509 21.9708 10.5073C22.058 10.5073 22.0972 10.4027 22.1582 10.4027C21.9926 10.4027 21.949 10.3199 21.8663 10.2807C21.9273 10.2982 21.9708 10.2372 22.0318 10.2372C21.9708 10.2154 21.8663 10.1108 21.9098 10.0498C21.888 10.0716 21.8663 10.1108 21.8227 10.137C21.7791 10.1544 21.7007 10.137 21.6354 10.0716C21.5918 9.98448 21.6136 9.88427 21.7007 9.86249C21.6816 9.86126 21.6632 9.85457 21.6478 9.84322C21.6324 9.83188 21.6205 9.81634 21.6136 9.79846C21.6067 9.78058 21.6051 9.7611 21.609 9.74233C21.6128 9.72356 21.622 9.7063 21.6354 9.69257C21.6571 9.649 21.7399 9.59237 21.7835 9.649L21.8445 9.73614C21.8227 9.69257 21.8227 9.60979 21.8227 9.5488C21.8445 9.4878 21.888 9.4878 21.9534 9.46166C22.01 9.46166 22.0536 9.52701 22.0536 9.59236C22.0536 9.65336 22.0754 9.69257 22.0972 9.77971L22.1146 9.69257C22.1146 9.60979 22.2192 9.63158 22.2845 9.649C22.3455 9.67514 22.3673 9.79713 22.2845 9.86249C22.241 9.90605 22.2627 9.96705 22.3063 10.0063C22.4501 10.2372 22.6984 10.4245 22.9119 10.4463C22.9119 10.3592 22.9555 10.2807 23.0165 10.2154C23.0165 10.1718 23.0339 10.1108 23.06 10.0716C23.0775 9.94527 23.1385 9.88427 23.2212 9.92348C23.2038 9.9017 23.1777 9.87991 23.1777 9.86249C23.1167 9.79713 23.0557 9.69257 23.0992 9.60979C23.1428 9.52701 23.2648 9.5488 23.3084 9.59236C23.2866 9.46166 23.4304 9.36145 23.4304 9.2961C23.4521 9.36145 23.4957 9.44423 23.4739 9.50523C23.4957 9.42245 23.6395 9.31789 23.744 9.27868C23.7005 9.33967 23.8312 9.44423 23.8094 9.50523C23.853 9.40067 24.0185 9.33967 24.1405 9.33967C24.0969 9.38324 24.0969 9.46602 24.0969 9.50523C24.1623 9.50523 24.2712 9.4878 24.3104 9.42245C24.3104 9.50959 24.2669 9.59236 24.2233 9.63158C24.2451 9.60979 24.3279 9.60979 24.3932 9.60979C24.3279 9.67514 24.3496 9.7405 24.2886 9.77971C24.3714 9.73614 24.476 9.73614 24.4978 9.82328C24.5413 9.88427 24.476 9.98883 24.4324 10.0498C24.3889 10.0716 24.3496 10.1108 24.3279 10.1108Z" fill="#F9D050" stroke="black" stroke-width="0.0609952"/>
<path d="M23.0392 10.3635C22.891 10.4245 22.8475 10.5727 22.8257 10.6554" stroke="black" stroke-width="0.0609952"/>
<path d="M23.017 10.5073C22.8079 10.638 22.7208 10.7382 22.7644 10.9691M23.1173 11.1391C23.248 11.0955 23.3264 11.0519 23.4309 10.8646" stroke="black" stroke-width="0.0609952"/>
<path d="M23.3706 10.9473C23.327 11.0344 23.3706 11.1782 23.3096 11.2392C23.3656 11.2113 23.414 11.1701 23.4504 11.1192C23.4869 11.0683 23.5103 11.0093 23.5187 10.9473" stroke="black" stroke-width="0.0609952"/>
<path d="M23.4136 11.1783C23.4964 11.1348 23.6227 11.0084 23.6837 10.8646C23.6619 10.9256 23.6837 11.0302 23.6401 11.0956C23.7447 10.991 23.7883 10.9256 23.81 10.8211L23.8275 10.9082C23.871 10.8646 23.9146 10.8211 23.9146 10.7383M23.9103 10.7993V10.9039C23.9974 10.8429 24.0192 10.7601 24.0192 10.6555" stroke="black" stroke-width="0.0609952"/>
<path d="M23.998 10.7817C24.1243 10.6946 24.1417 10.5726 24.1417 10.3853M24.1417 10.5944C24.2289 10.5291 24.2463 10.4898 24.2463 10.2981M23.9762 9.73612C23.9326 9.73612 23.889 9.7579 23.889 9.82325C23.889 9.86246 23.828 9.92346 23.828 9.98881C23.8106 10.0716 23.767 10.0934 23.706 10.0716C23.6407 10.028 23.6407 10.028 23.6407 9.96703C23.6407 9.87989 23.7453 9.86246 23.7453 9.77968C23.767 9.73612 23.7888 9.67512 23.8106 9.67512C23.706 9.73611 23.5579 9.69255 23.5361 9.57056" stroke="black" stroke-width="0.0609952"/>
<path d="M24.1634 9.79714C24.1198 9.81893 24.0762 9.75357 24.0196 9.77971C23.9978 9.77971 23.9325 9.79714 23.915 9.77971" stroke="black" stroke-width="0.0609952"/>
<path d="M23.8716 9.90171C23.8934 9.9235 23.9979 9.96707 24.1025 9.9235C24.0154 9.94528 23.9544 9.84072 24.0372 9.77972M23.6842 9.69259C23.5971 9.69259 23.5361 9.75794 23.5579 9.82329C23.5797 9.88429 23.6625 9.88429 23.7235 9.84072M23.5361 10.7382C23.5579 10.7164 23.5797 10.6772 23.5797 10.6511C23.6233 10.6511 23.6668 10.6337 23.6842 10.6119C23.767 10.6119 23.828 10.5509 23.8498 10.4899C23.8934 10.4899 23.9152 10.3853 23.9369 10.3418C23.9544 10.3635 23.9979 10.3418 24.0197 10.2546C24.0633 10.2808 24.1243 10.2546 24.1417 10.1936M23.2878 10.0498C23.2878 10.0716 23.2442 10.1108 23.2006 10.137C23.2224 10.1762 23.2006 10.2808 23.1614 10.2982C23.1832 10.3418 23.1614 10.4027 23.1396 10.4463C23.1396 10.4681 23.1614 10.5334 23.1614 10.5509M23.3706 9.63159C23.327 9.73615 23.3488 9.8625 23.4316 9.88429" stroke="black" stroke-width="0.0609952"/>
<path d="M23.4139 9.96265C23.3921 10.0716 23.3921 10.2153 23.3703 10.2807C23.3485 10.3243 23.3093 10.468 23.4749 10.5073C23.6622 10.5508 23.7668 10.529 23.8713 10.2153M24.185 11.0301C24.185 11.0519 24.1633 11.0954 24.124 11.0954M24.3288 10.9909C24.3288 11.0344 24.2852 11.0954 24.2678 11.1128M24.4769 10.9473C24.4769 10.9909 24.4769 11.0519 24.4334 11.0736M23.2048 9.65332C23.2222 9.65332 23.2483 9.69689 23.2658 9.7361C23.2048 9.69253 23.1394 9.79709 23.1786 9.86245M23.1394 10.0062L23.0566 10.0716M23.0784 10.1936C23.0566 10.1936 23.0348 10.2153 23.0174 10.2153M22.0763 9.81888C22.0763 9.79709 22.0763 9.79709 22.0981 9.77531M21.889 9.75788C21.8672 9.75788 21.8672 9.75788 21.8454 9.7361M21.9064 10.0498H21.95M21.8237 9.92344C21.7906 9.89058 21.7478 9.8692 21.7017 9.86245M22.9738 10.699C22.8257 10.8209 22.7647 10.9255 22.7429 11.0736M23.1176 10.7992C23.0806 10.8768 23.0234 10.943 22.9521 10.9909M22.3073 11.4265C22.2375 11.449 22.1635 11.4552 22.091 11.4446C22.0185 11.4341 21.9494 11.407 21.889 11.3655C21.8672 11.3438 21.8454 11.3438 21.8237 11.322M22.9303 11.139C22.9129 11.2174 22.8867 11.322 22.8475 11.3438C23.0174 11.2566 23.1612 11.1346 23.183 10.9473M21.7191 11.5311C21.7844 11.5093 21.8498 11.5529 21.889 11.5093M25.3527 10.8427C25.3962 10.8645 25.4572 10.8863 25.479 10.9037C25.5008 10.8602 25.5836 10.7992 25.6446 10.7817M23.8713 11.2828C23.8496 11.1956 23.8931 11.0954 24.0195 11.0519M23.0566 11.6357C23.0784 11.5921 23.0784 11.5311 23.1002 11.4919M22.1373 11.701C22.1156 11.7446 22.0763 11.7838 22.0763 11.823M21.8237 11.7402C21.8237 11.7402 21.8237 11.7184 21.8454 11.7184C21.889 11.701 21.95 11.6574 21.9718 11.6139M24.6643 11.4483C24.6207 11.4701 24.6033 11.4483 24.5815 11.4265M24.6425 11.5529C24.6425 11.5529 24.6251 11.5747 24.5989 11.5747M24.7471 11.6574C24.7253 11.6792 24.7035 11.701 24.6861 11.701M25.3527 11.701C25.3962 11.6792 25.418 11.6357 25.4398 11.5529M25.0825 11.6792C25.1435 11.6574 25.1871 11.6139 25.2481 11.5529M25.6663 11.5093C25.6663 11.4657 25.6663 11.4265 25.6881 11.3873M27.213 11.701C27.1694 11.6574 27.1694 11.5965 27.2348 11.5529C27.2784 11.5311 27.2958 11.5093 27.3394 11.4919" stroke="black" stroke-width="0.0609952"/>
<path d="M25.9364 10.9647C25.6053 10.8209 25.6271 10.6336 25.3526 10.6554M27.4221 11.6182C27.4439 11.6357 27.4221 11.701 27.4221 11.7184M27.6094 11.6182C27.5876 11.6792 27.5876 11.701 27.5876 11.762M26.0018 9.65332H25.8275M24.246 10.3635C24.246 10.407 24.3113 10.4898 24.4769 10.4898C24.4551 10.4898 24.4333 10.468 24.4333 10.468M24.3287 10.1108C24.3113 10.1326 24.2852 10.1108 24.2852 10.1108C24.246 10.0672 24.3113 9.98879 24.3723 9.94523C24.3113 9.96701 24.2678 9.96701 24.2242 9.96701C24.1806 10.0934 24.0586 10.1544 23.9758 10.0716C23.9541 10.1544 23.8495 10.2589 23.7667 10.2371C23.6796 10.1936 23.6622 10.1326 23.6796 10.0716C23.5794 10.1936 23.453 10.1151 23.4138 10.0716C23.392 10.028 23.4138 9.92344 23.4574 9.79709" stroke="black" stroke-width="0.0609952"/>
<path d="M25.6651 10.9038C25.6041 10.9474 25.5388 10.9038 25.4778 10.9692C25.4342 11.0127 25.4996 11.0302 25.5388 11.0302C25.5214 11.0955 25.5214 11.1173 25.6259 11.1173C25.5824 11.1783 25.7087 11.2001 25.6869 11.2828C25.7132 11.2556 25.7312 11.2216 25.7389 11.1846C25.7466 11.1476 25.7437 11.1091 25.7305 11.0737C25.7087 11.0084 25.5998 10.9692 25.6651 10.9038Z" fill="black"/>
<path d="M23.7654 10.2373C23.6782 10.1937 23.6608 10.1327 23.6782 10.0717C23.6608 10.1153 23.6216 10.1327 23.578 10.1327C23.4909 10.32 23.3907 10.4899 23.2644 10.4899C23.1162 10.5074 23.138 10.6555 23.2426 10.6555C23.4735 10.6991 23.578 10.6119 23.7654 10.2373ZM21.7003 9.73622C21.7613 9.67522 21.7177 9.60987 21.6785 9.59244C21.6131 9.57066 21.4911 9.59244 21.4258 9.69265C21.4911 9.67522 21.5565 9.67522 21.5739 9.71444C21.5957 9.758 21.6349 9.80157 21.7003 9.73622ZM21.8048 9.36153C21.9486 9.36153 21.9922 9.38332 22.0096 9.44431C22.0314 9.48788 21.9922 9.54888 21.9486 9.54888C21.8876 9.54888 21.8222 9.50531 21.844 9.48788C21.8658 9.44431 21.8658 9.38332 21.8005 9.35718L21.8048 9.36153ZM22.2187 9.69265C22.3233 9.71444 22.3669 9.64908 22.3059 9.57066C22.2841 9.50531 22.2187 9.4661 22.1142 9.48352C22.2187 9.54888 22.1142 9.65344 22.2187 9.69265ZM21.4476 10.0499C21.4663 10.087 21.4977 10.1161 21.536 10.1321C21.5744 10.1481 21.6172 10.1498 21.6567 10.137C21.7177 10.1109 21.7438 10.0499 21.7177 10.0063C21.6741 9.94535 21.6131 9.92356 21.5957 10.0063C21.5521 10.0935 21.4911 10.0717 21.4476 10.0499ZM21.7613 11.3221C21.7177 11.2393 21.5957 11.2393 21.4911 11.3221C21.5347 11.3003 21.6131 11.3221 21.6349 11.3657C21.6567 11.4092 21.7003 11.4092 21.722 11.4092C21.7395 11.3874 21.783 11.3657 21.7613 11.3221ZM21.9268 11.2001C21.9268 11.0955 21.783 11.0694 21.7003 11.113C21.7438 11.113 21.8048 11.1565 21.8048 11.2001C21.8223 11.2437 21.8658 11.2611 21.8876 11.2611C21.9312 11.2393 21.9486 11.2175 21.9312 11.2001H21.9268ZM21.7177 11.5748C21.5957 11.553 21.5303 11.7011 21.5303 11.8013C21.5521 11.7403 21.6175 11.7011 21.6785 11.7186C21.7395 11.7186 21.7613 11.7011 21.7613 11.6576C21.783 11.614 21.7613 11.5966 21.7177 11.5704V11.5748ZM21.7395 11.9277C21.783 11.9495 21.8266 11.9059 21.844 11.8449C21.844 11.8013 21.9312 11.8013 21.9486 11.8231C21.9922 11.8449 21.9922 11.9277 21.9268 11.9713C21.8832 11.993 21.783 12.0148 21.7395 11.9277ZM24.6411 11.3003C24.5975 11.2829 24.4973 11.2393 24.4145 11.3003C24.4755 11.2829 24.5191 11.3221 24.5365 11.3657C24.5365 11.4092 24.6019 11.4267 24.6237 11.3874C24.6411 11.3657 24.6672 11.3221 24.6411 11.3003ZM24.4538 11.4484C24.371 11.4049 24.2664 11.5094 24.2446 11.5966C24.2872 11.5618 24.3384 11.5393 24.3928 11.5312C24.4363 11.553 24.4755 11.5312 24.4755 11.4877C24.4973 11.4702 24.4973 11.4484 24.4538 11.4484ZM24.5627 11.6184C24.4973 11.6184 24.4145 11.7011 24.4145 11.7839C24.432 11.7403 24.4755 11.7186 24.5191 11.7403C24.5627 11.7403 24.6237 11.7186 24.6237 11.6794C24.6237 11.6358 24.6019 11.614 24.5583 11.614L24.5627 11.6184ZM24.7457 11.7839C24.7021 11.7621 24.6411 11.7839 24.6411 11.8449C24.6411 11.9059 24.6411 11.9713 24.6237 11.993C24.6672 11.9495 24.7065 11.9277 24.7457 11.9059C24.7674 11.8885 24.7892 11.8231 24.7457 11.7839ZM27.107 11.5966C27.0635 11.553 27.0025 11.5748 26.9807 11.614C26.9589 11.6576 26.9371 11.7621 26.9807 11.8449C26.9807 11.8013 27.0243 11.7403 27.0678 11.7403C27.1288 11.7186 27.1463 11.6358 27.107 11.5966ZM27.2334 11.6794C27.1463 11.7229 27.1463 11.8667 27.2116 11.9495C27.2116 11.9059 27.2334 11.8449 27.2726 11.8231C27.338 11.8231 27.3597 11.7403 27.338 11.7011C27.2944 11.6576 27.2508 11.6794 27.2334 11.6794ZM27.4817 11.7621C27.4382 11.7403 27.3946 11.7839 27.3946 11.8231C27.3772 11.8885 27.4207 11.9713 27.4817 12.0105C27.4817 11.9669 27.5035 11.9277 27.5253 11.9059C27.5863 11.8623 27.5689 11.7839 27.4817 11.7621ZM27.6691 11.7403C27.6255 11.7403 27.5863 11.8013 27.6255 11.8667C27.6473 11.9103 27.6909 11.9277 27.7736 11.9103C27.7519 11.9103 27.7126 11.8449 27.7301 11.8231C27.7519 11.7796 27.7301 11.7403 27.6691 11.7403Z" fill="#073163"/>
<path d="M21.8679 15.6438L22.9135 12.4285L23.9592 15.6438L21.2188 13.6614H24.6083L21.8679 15.6438Z" fill="#F9D050"/>
<path d="M22.0772 15.352L24.2469 13.7661H21.5762L23.7241 15.352L22.9137 12.8076L22.0772 15.352Z" fill="#024919"/>
<path d="M25.7898 15.6438L26.8354 12.4285L27.8811 15.6438L25.1406 13.6614H28.5302L25.7898 15.6438Z" fill="#F9D050"/>
<path d="M25.9991 15.352L28.1688 13.7661H25.498L27.6459 15.352L26.8356 12.8076L25.9991 15.352Z" fill="#024919"/>
<path d="M23.8288 17.9182L24.8745 14.7029L25.9201 17.9182L23.1797 15.9359H26.5693L23.8288 17.9182Z" fill="#F9D050"/>
<path d="M24.0381 17.6264L26.2078 16.0405H23.5371L25.685 17.6264L24.8746 15.082L24.0381 17.6264Z" fill="#024919"/>
<path d="M28.7765 9.09127V13.1605C28.7765 16.6895 27.1078 17.9007 24.8728 18.8592C22.6377 17.9007 20.9517 16.6895 20.9517 13.1605V9.08691H28.7765V9.09127Z" stroke="black" stroke-width="0.0609952"/>
</svg>
