<svg width="36" height="24" viewBox="0 0 36 24" fill="none" xmlns="http://www.w3.org/2000/svg">
<rect width="36" height="24" rx="2" fill="#00ABC2"/>
<path d="M19.7541 6.14388C19.7541 6.28788 19.6821 6.40788 19.4901 6.41028C19.2981 6.41028 19.2261 6.28788 19.2261 6.14388C19.2261 5.95188 19.4901 5.03748 19.4901 5.03748C19.4901 5.03748 19.7541 5.95188 19.7541 6.14388Z" fill="#FFEC2D"/>
<path d="M22.7206 10.0799C22.7206 11.864 21.2743 13.3103 19.4902 13.3103C17.7061 13.3103 16.2598 11.864 16.2598 10.0799C16.2598 8.29579 17.7061 6.84949 19.4902 6.84949C21.2743 6.84949 22.7206 8.29579 22.7206 10.0799Z" fill="#FFEC2D"/>
<path d="M23.1594 10.0798C23.1618 10.2718 23.2818 10.3438 23.4258 10.3438C23.6178 10.3438 24.5322 10.0798 24.5322 10.0798C24.5322 10.0798 23.6178 9.8158 23.4258 9.8158C23.2818 9.8158 23.1594 9.8878 23.1594 10.0798Z" fill="#FFEC2D"/>
<path d="M19.2259 14.0158C19.2259 13.8718 19.2979 13.7518 19.4899 13.7494C19.6819 13.7494 19.7539 13.8718 19.7539 14.0158C19.7539 14.2078 19.4899 15.1222 19.4899 15.1222C19.4899 15.1222 19.2259 14.2078 19.2259 14.0158Z" fill="#FFEC2D"/>
<path d="M15.8206 10.0799C15.8182 9.88787 15.6982 9.81587 15.5542 9.81587C15.3622 9.81587 14.4478 10.0799 14.4478 10.0799C14.4478 10.0799 15.3622 10.3439 15.5542 10.3439C15.6982 10.3439 15.8206 10.2719 15.8206 10.0799Z" fill="#FFEC2D"/>
<path d="M21.2397 6.54467C21.1846 6.67771 21.0722 6.76102 20.8938 6.68976C20.7165 6.61629 20.6968 6.47565 20.7519 6.34261C20.8254 6.16523 21.4192 5.42146 21.4192 5.42146C21.4192 5.42146 21.3132 6.36729 21.2397 6.54467Z" fill="#FFEC2D"/>
<path d="M22.8797 11.4843C22.8084 11.6626 22.8917 11.775 23.0248 11.8302C23.2022 11.9036 24.148 12.0097 24.148 12.0097C24.148 12.0097 23.4042 11.4158 23.2268 11.3423C23.0938 11.2872 22.9532 11.3069 22.8797 11.4843Z" fill="#FFEC2D"/>
<path d="M17.7393 13.6152C17.7944 13.4822 17.9069 13.3989 18.0852 13.4701C18.2625 13.5436 18.2822 13.6843 18.2271 13.8173C18.1536 13.9947 17.5598 14.7384 17.5598 14.7384C17.5598 14.7384 17.6658 13.7926 17.7393 13.6152Z" fill="#FFEC2D"/>
<path d="M16.0988 8.67561C16.1701 8.49731 16.0868 8.38486 15.9537 8.32976C15.7763 8.25628 14.8305 8.15026 14.8305 8.15026C14.8305 8.15026 15.5743 8.74409 15.7517 8.81757C15.8847 8.87267 16.0253 8.85299 16.0988 8.67561Z" fill="#FFEC2D"/>
<path d="M22.4616 7.48345C22.3598 7.58528 22.224 7.61922 22.0866 7.48515C21.9508 7.34939 21.9864 7.21193 22.0883 7.1101C22.224 6.97434 23.0573 6.51443 23.0573 6.51443C23.0573 6.51443 22.5974 7.34769 22.4616 7.48345Z" fill="#FFEC2D"/>
<path d="M22.0867 12.6748C21.9527 12.8123 21.9866 12.948 22.0884 13.0499C22.2242 13.1856 23.0575 13.6455 23.0575 13.6455C23.0575 13.6455 22.5976 12.8123 22.4618 12.6765C22.36 12.5747 22.2225 12.5391 22.0867 12.6748Z" fill="#FFEC2D"/>
<path d="M16.5218 12.6765C16.6236 12.5746 16.7594 12.5407 16.8968 12.6748C17.0326 12.8105 16.997 12.948 16.8951 13.0498C16.7594 13.1856 15.9261 13.6455 15.9261 13.6455C15.9261 13.6455 16.386 12.8122 16.5218 12.6765Z" fill="#FFEC2D"/>
<path d="M16.8967 7.48521C17.0307 7.34775 16.9968 7.21199 16.895 7.11016C16.7592 6.9744 15.9259 6.5145 15.9259 6.5145C15.9259 6.5145 16.3858 7.34775 16.5216 7.48351C16.6234 7.58534 16.7609 7.62098 16.8967 7.48521Z" fill="#FFEC2D"/>
<path d="M23.2316 8.81758C23.0986 8.87269 22.9602 8.85209 22.8845 8.67562C22.811 8.49824 22.8965 8.38488 23.0296 8.32977C23.207 8.2563 24.1528 8.15028 24.1528 8.15028C24.1528 8.15028 23.409 8.74411 23.2316 8.81758Z" fill="#FFEC2D"/>
<path d="M20.8982 13.4703C20.7218 13.546 20.7012 13.6844 20.7563 13.8174C20.8297 13.9948 21.4236 14.7386 21.4236 14.7386C21.4236 14.7386 21.3176 13.7928 21.2441 13.6154C21.189 13.4824 21.0756 13.3968 20.8982 13.4703Z" fill="#FFEC2D"/>
<path d="M15.7566 11.3423C15.8897 11.2872 16.0281 11.3078 16.1038 11.4843C16.1773 11.6617 16.0917 11.775 15.9587 11.8301C15.7813 11.9036 14.8355 12.0096 14.8355 12.0096C14.8355 12.0096 15.5793 11.4158 15.7566 11.3423Z" fill="#FFEC2D"/>
<path d="M18.0901 6.68961C18.2665 6.61392 18.2871 6.4755 18.232 6.34246C18.1585 6.16508 17.5647 5.42131 17.5647 5.42131C17.5647 5.42131 17.6707 6.36713 17.7442 6.54452C17.7993 6.67756 17.9127 6.76309 18.0901 6.68961Z" fill="#FFEC2D"/>
<path d="M20.5148 6.27179C20.4866 6.41299 20.3925 6.51656 20.2038 6.48129C20.0155 6.44367 19.9689 6.30953 19.9971 6.16833C20.0347 5.98005 20.4727 5.1351 20.4727 5.1351C20.4727 5.1351 20.5525 6.08351 20.5148 6.27179Z" fill="#FFEC2D"/>
<path d="M23.083 10.7988C23.0478 10.9876 23.1513 11.0817 23.2925 11.1099C23.4808 11.1476 24.4292 11.0678 24.4292 11.0678C24.4292 11.0678 23.5843 10.6298 23.396 10.5922C23.2548 10.5639 23.1207 10.6106 23.083 10.7988Z" fill="#FFEC2D"/>
<path d="M18.4539 13.8879C18.4821 13.7467 18.5762 13.6431 18.765 13.6784C18.9533 13.716 18.9999 13.8501 18.9717 13.9913C18.9341 14.1796 18.496 15.0246 18.496 15.0246C18.496 15.0246 18.4163 14.0762 18.4539 13.8879Z" fill="#FFEC2D"/>
<path d="M15.8857 9.36082C15.921 9.17207 15.8174 9.07795 15.6762 9.04974C15.4879 9.01212 14.5395 9.09183 14.5395 9.09183C14.5395 9.09183 15.3845 9.52988 15.5727 9.5675C15.714 9.59572 15.8481 9.5491 15.8857 9.36082Z" fill="#FFEC2D"/>
<path d="M21.8941 6.95617C21.814 7.07583 21.6874 7.13549 21.5265 7.03068C21.3669 6.92387 21.3752 6.78211 21.4553 6.66244C21.5621 6.50289 22.2902 5.8899 22.2902 5.8899C22.2902 5.8899 22.0009 6.79662 21.8941 6.95617Z" fill="#FFEC2D"/>
<path d="M22.5346 12.1213C22.4298 12.2822 22.4895 12.4088 22.6091 12.4889C22.7687 12.5957 23.6754 12.885 23.6754 12.885C23.6754 12.885 23.0624 12.157 22.9029 12.0502C22.7832 11.9701 22.6414 11.9618 22.5346 12.1213Z" fill="#FFEC2D"/>
<path d="M17.0761 13.204C17.1562 13.0843 17.2828 13.0247 17.4437 13.1295C17.6033 13.2363 17.595 13.3781 17.5149 13.4977C17.4081 13.6573 16.68 14.2703 16.68 14.2703C16.68 14.2703 16.9693 13.3635 17.0761 13.204Z" fill="#FFEC2D"/>
<path d="M16.4361 8.03857C16.5409 7.87768 16.4812 7.75109 16.3616 7.67099C16.202 7.56418 15.2953 7.27488 15.2953 7.27488C15.2953 7.27488 15.9083 8.00294 16.0678 8.10975C16.1875 8.18985 16.3293 8.19811 16.4361 8.03857Z" fill="#FFEC2D"/>
<path d="M22.9072 8.11553C22.7874 8.19543 22.6476 8.20211 22.539 8.0437C22.4325 7.88397 22.4944 7.75616 22.6142 7.67626C22.7739 7.56973 23.6811 7.28201 23.6811 7.28201C23.6811 7.28201 23.0669 8.009 22.9072 8.11553Z" fill="#FFEC2D"/>
<path d="M21.5221 13.1329C21.3637 13.2414 21.3704 13.3812 21.4503 13.501C21.5568 13.6608 22.2838 14.275 22.2838 14.275C22.2838 14.275 21.9961 13.3678 21.8895 13.2081C21.8096 13.0883 21.6818 13.0264 21.5221 13.1329Z" fill="#FFEC2D"/>
<path d="M16.065 12.0441C16.1848 11.9642 16.3246 11.9576 16.4331 12.116C16.5397 12.2757 16.4778 12.4035 16.358 12.4834C16.1982 12.5899 15.291 12.8777 15.291 12.8777C15.291 12.8777 15.9053 12.1507 16.065 12.0441Z" fill="#FFEC2D"/>
<path d="M17.4501 7.027C17.6085 6.91847 17.6018 6.77869 17.5219 6.65889C17.4154 6.49915 16.6884 5.88489 16.6884 5.88489C16.6884 5.88489 16.9761 6.79211 17.0826 6.95185C17.1625 7.07165 17.2903 7.13353 17.4501 7.027Z" fill="#FFEC2D"/>
<path d="M23.3981 9.57452C23.2568 9.60249 23.1251 9.55517 23.0855 9.36729C23.0482 9.17895 23.1543 9.08455 23.2955 9.05658C23.4839 9.01928 24.4321 9.10065 24.4321 9.10065C24.4321 9.10065 23.5864 9.53723 23.3981 9.57452Z" fill="#FFEC2D"/>
<path d="M20.1985 13.6796C20.0106 13.7192 19.9633 13.8509 19.9913 13.9922C20.0286 14.1805 20.4651 15.0263 20.4651 15.0263C20.4651 15.0263 20.5465 14.078 20.5092 13.8896C20.4813 13.7484 20.3868 13.6423 20.1985 13.6796Z" fill="#FFEC2D"/>
<path d="M15.5731 10.5856C15.7144 10.5577 15.8461 10.605 15.8857 10.7929C15.923 10.9812 15.8169 11.0756 15.6757 11.1036C15.4873 11.1409 14.5391 11.0595 14.5391 11.0595C14.5391 11.0595 15.3848 10.6229 15.5731 10.5856Z" fill="#FFEC2D"/>
<path d="M18.7727 6.48031C18.9606 6.44067 19.0079 6.30897 18.9799 6.16771C18.9426 5.97937 18.506 5.13366 18.506 5.13366C18.506 5.13366 18.4247 6.08192 18.462 6.27027C18.4899 6.41152 18.5843 6.51761 18.7727 6.48031Z" fill="#FFEC2D"/>
<path d="M19.295 15.8992C19.3221 15.8383 19.3492 15.7774 19.3811 15.7199V15.7175C19.3569 15.7163 19.3326 15.7152 19.3081 15.7141C19.2379 15.711 19.1667 15.7079 19.0955 15.7007C18.0354 15.6361 17.0127 15.2853 16.1363 14.6855C15.0659 13.9523 14.2783 12.8751 13.9043 11.6327C13.8757 11.5493 13.8572 11.4594 13.8389 11.3703C13.8171 11.2645 13.7956 11.1599 13.7579 11.0687C13.6691 10.9967 13.5395 11.0303 13.5251 11.1503C13.4732 11.4478 13.5292 11.7486 13.584 12.043C13.5951 12.1025 13.6062 12.1618 13.6163 12.2207C13.4102 11.9143 13.323 11.5561 13.2362 11.1994C13.2047 11.07 13.1733 10.9408 13.1363 10.8143C13.1216 10.788 13.1137 10.7528 13.1057 10.7172C13.0873 10.6358 13.0684 10.5521 12.9683 10.5671C12.8013 10.5648 12.791 10.7445 12.7839 10.8692L12.7835 10.8767C12.7906 11.5116 13.0923 12.0974 13.3771 12.6503L13.3883 12.6719C13.1651 12.4836 13.0015 12.2421 12.8381 12.001C12.7537 11.8765 12.6694 11.752 12.5771 11.6351C12.5075 11.5151 12.3683 11.4215 12.2315 11.4911C12.0923 11.5391 12.1667 11.7047 12.2147 11.7959C12.4855 12.2965 12.8151 12.7629 13.1963 13.1855C13.2087 13.2095 13.2582 13.2514 13.2985 13.2856C13.3512 13.3303 13.3883 13.3618 13.3067 13.3223C12.9996 13.1605 12.7573 12.9114 12.5162 12.6634C12.4426 12.5877 12.3691 12.5121 12.2939 12.4391C12.2291 12.3167 11.9819 12.3407 12.0011 12.5015C12.3114 12.964 12.6901 13.3767 13.1243 13.7255C13.1463 13.7566 13.195 13.7893 13.2416 13.8205C13.3066 13.8642 13.3674 13.905 13.3451 13.9343C13.1802 13.9602 13.0462 13.877 12.9121 13.7937C12.8099 13.7302 12.7076 13.6667 12.5915 13.6511C12.505 13.6689 12.5967 13.8095 12.6414 13.8781L12.6515 13.8935C12.9619 14.2255 13.3866 14.4084 13.8003 14.5866C13.847 14.6067 13.894 14.6269 13.9403 14.6471C13.8284 14.6939 13.7072 14.6826 13.5872 14.6713C13.5348 14.6664 13.4826 14.6615 13.4315 14.6615C13.4093 14.6673 13.3679 14.6613 13.3252 14.6551C13.2427 14.6431 13.1551 14.6304 13.1915 14.6999C13.345 14.873 13.5627 14.9017 13.7807 14.9304C13.9103 14.9475 14.0399 14.9645 14.1563 15.0119C14.0847 15.0723 13.9881 15.0889 13.8976 15.1045L13.8779 15.1079C13.8504 15.1195 13.8076 15.1235 13.7639 15.1275C13.6891 15.1345 13.6118 15.1417 13.6043 15.1871C13.7203 15.2645 13.8573 15.282 13.9941 15.2995C14.0694 15.3091 14.1446 15.3187 14.2163 15.3383C14.4155 15.3527 14.3291 15.3911 14.1851 15.4247C14.1593 15.436 14.127 15.4438 14.0942 15.4517C14.0293 15.4673 13.9626 15.4833 13.9403 15.5279C14.1226 15.6407 14.3403 15.677 14.5552 15.7127C14.6147 15.7226 14.674 15.7325 14.7323 15.7439C14.6753 15.7682 14.6155 15.7851 14.556 15.8018C14.4802 15.8232 14.4048 15.8444 14.3363 15.8807C14.6195 15.9839 14.8955 16.1015 15.1715 16.2215C15.7043 16.4591 16.2707 16.6319 16.8563 16.6655C16.6547 16.6271 16.4555 16.5671 16.2635 16.5047C15.7739 16.3367 15.2819 16.1663 14.8379 15.9047C14.8838 15.8689 14.9345 15.8398 14.9852 15.8107C15.0431 15.7775 15.1011 15.7442 15.1523 15.7007C14.9574 15.6912 14.7676 15.6361 14.5979 15.5399C14.462 15.4892 14.5489 15.4303 14.6297 15.3756C14.656 15.3578 14.6816 15.3404 14.6987 15.3239C14.6894 15.2776 14.6144 15.2581 14.5417 15.2392C14.5015 15.2287 14.462 15.2185 14.4347 15.2039C14.3123 15.2087 14.2763 15.0575 14.3723 14.9951C14.4886 14.937 14.3668 14.8972 14.2887 14.8717C14.2734 14.8667 14.2597 14.8623 14.2499 14.8583C14.1891 14.8252 14.2038 14.7681 14.2182 14.7129C14.2287 14.6722 14.239 14.6324 14.2187 14.6039C13.977 14.5449 13.7551 14.4232 13.5755 14.2511C13.5992 14.2274 13.6853 14.2225 13.7674 14.2177C13.81 14.2153 13.8515 14.2129 13.8827 14.2079C13.6907 14.0676 13.525 13.8946 13.3931 13.6967C13.4229 13.6744 13.5018 13.6779 13.5815 13.6816C13.6301 13.6838 13.6789 13.686 13.7171 13.6823C13.6955 13.4375 13.5491 13.2215 13.4051 13.0295C13.4195 12.9647 13.5803 12.9671 13.6451 13.0151C13.7122 13.0754 13.7269 13.034 13.7451 12.9829C13.7587 12.9445 13.7743 12.9006 13.8155 12.8903C13.8402 12.9086 13.8654 12.9266 13.8906 12.9446C13.9681 12.9999 14.0461 13.0556 14.1131 13.1207C14.3442 13.3192 14.5287 13.5602 14.7131 13.801C14.9079 14.0553 15.1024 14.3093 15.3515 14.5127C15.5859 14.6924 15.8572 14.8178 16.1459 14.8799C16.3376 14.9953 16.4984 15.1526 16.6593 15.3101C16.7563 15.4049 16.8533 15.4998 16.9571 15.5855C17.2211 15.8279 17.5907 15.8591 17.9315 15.8783C17.9636 15.8797 17.9961 15.8808 18.0289 15.882C18.4166 15.8959 18.8402 15.911 19.1411 16.1831C19.2065 16.0983 19.2508 15.9987 19.295 15.8992Z" fill="#FFEC2D"/>
<path d="M22.333 17.8418C22.4324 17.9089 22.5342 17.9776 22.6547 17.9039C22.7319 17.8464 22.7433 17.7486 22.7542 17.6547C22.7578 17.6232 22.7614 17.5921 22.7675 17.5631C22.7474 17.443 22.7942 17.4817 22.8604 17.5365C22.9131 17.5802 22.9782 17.6341 23.0315 17.6255C23.2883 17.7119 23.6027 17.5127 23.5595 17.2295C23.3239 17.2208 23.0892 17.1957 22.8545 17.1705C22.5079 17.1334 22.1614 17.0962 21.8123 17.1119C21.792 17.1138 21.7717 17.1149 21.7518 17.1159C21.6443 17.1215 21.5505 17.1263 21.5627 17.2559C21.551 17.3155 21.4843 17.3364 21.4271 17.3543C21.3667 17.3733 21.3169 17.3889 21.3539 17.4431C21.4186 17.551 21.2797 17.6236 21.1757 17.678C21.1525 17.6902 21.131 17.7014 21.1139 17.7119C20.7496 17.8489 20.3646 17.8462 19.9796 17.8434C19.7506 17.8418 19.5217 17.8402 19.2971 17.8679C18.9491 17.8967 18.5315 18.0287 18.4331 18.4127C18.6313 18.4651 18.8062 18.344 18.9692 18.2313C19.0154 18.1993 19.0606 18.168 19.1051 18.1415C19.1327 18.1554 19.1283 18.2069 19.1232 18.2668C19.1168 18.3419 19.1092 18.43 19.1627 18.4727C19.3334 18.4604 19.4512 18.3 19.5524 18.1622C19.5693 18.1392 19.5857 18.1169 19.6019 18.0959C19.6524 18.1526 19.639 18.2252 19.626 18.2953C19.6138 18.3618 19.6019 18.426 19.6451 18.4727C19.7941 18.4869 19.8867 18.378 19.9785 18.27C20.0272 18.2128 20.0757 18.1558 20.1323 18.1175C20.1869 18.109 20.1746 18.1711 20.1603 18.2435C20.1463 18.3144 20.1303 18.3951 20.1731 18.4295C20.3267 18.4967 20.4899 18.3863 20.5427 18.2327C20.6147 18.0191 20.6819 18.1775 20.7107 18.3119C20.8043 18.4655 20.9795 18.3215 21.0443 18.2207C21.1059 18.063 21.1662 18.1286 21.2386 18.2073C21.262 18.2328 21.2867 18.2596 21.3131 18.2807C21.4645 18.3068 21.5453 18.1925 21.625 18.0796C21.6628 18.0261 21.7003 17.9729 21.7451 17.9351C21.7331 18.0647 21.8771 18.2351 21.9923 18.1031C22.0362 18.0614 22.062 17.9997 22.0872 17.9394C22.1171 17.8678 22.1461 17.7984 22.2035 17.7671C22.2471 17.7839 22.2898 17.8127 22.333 17.8418Z" fill="#FFEC2D"/>
<path d="M17.935 17.3029C17.8516 17.3595 17.7744 17.4118 17.6771 17.3231C17.6749 17.2885 17.6815 17.2538 17.6963 17.2223C17.819 17.0641 18.0091 17.0004 18.1986 16.9368C18.2907 16.906 18.3827 16.8751 18.4667 16.8335C18.8228 16.7208 19.0623 16.4519 19.3024 16.1823C19.4457 16.0214 19.5892 15.8602 19.7579 15.7319C19.8659 15.6927 19.9829 15.6845 20.0999 15.6764C20.183 15.6707 20.2661 15.6649 20.3459 15.6479C21.0707 15.5423 21.7787 15.3119 22.4147 14.9519C23.7995 14.1527 24.8627 12.7703 25.1747 11.1887C25.1387 11.0279 25.4003 10.9583 25.4387 11.1215C25.5034 11.4159 25.4462 11.72 25.3904 12.0166C25.378 12.0827 25.3656 12.1484 25.3547 12.2135C25.5519 11.9267 25.6366 11.5876 25.7208 11.2503C25.7494 11.1361 25.7779 11.0221 25.8107 10.9103C25.8316 10.8726 25.8409 10.8216 25.8502 10.7702C25.8675 10.6747 25.885 10.5779 25.9787 10.5623C26.1611 10.5359 26.1851 10.7327 26.1851 10.8671C26.1803 11.5103 25.8755 12.1079 25.5851 12.6671C25.8117 12.478 25.9752 12.2346 26.1387 11.9912C26.2159 11.8762 26.2932 11.7612 26.3771 11.6519C26.4539 11.5055 26.6411 11.3903 26.7923 11.5151C26.8602 11.6349 26.783 11.7626 26.7125 11.8795C26.6883 11.9195 26.6648 11.9584 26.6483 11.9951C26.3584 12.489 26.0068 12.9439 25.6019 13.3487C25.9306 13.1926 26.1849 12.9325 26.4368 12.6748C26.514 12.5958 26.591 12.517 26.6699 12.4415C26.7347 12.3143 26.9891 12.3311 26.9699 12.4943C26.6123 13.0535 26.1179 13.5119 25.5947 13.9175C25.7699 13.9696 25.9181 13.8753 26.0646 13.7822C26.1408 13.7337 26.2166 13.6855 26.2955 13.6583C26.4731 13.5743 26.3987 13.8143 26.3435 13.8935C26.1821 14.1373 25.9336 14.2884 25.6858 14.4391C25.5725 14.508 25.4593 14.5768 25.3547 14.6543C25.1603 14.7239 25.2395 14.8079 25.4099 14.7767C25.4224 14.7764 25.4396 14.7751 25.4594 14.7735C25.5714 14.7649 25.7652 14.7499 25.6571 14.8703C25.4866 14.9952 25.2838 15.0491 25.0811 15.1029C24.9527 15.1369 24.8243 15.171 24.7043 15.2231C24.7901 15.2536 24.8833 15.2544 24.9758 15.2551C25.0798 15.2559 25.1828 15.2567 25.2731 15.2999C25.12 15.4165 24.929 15.4549 24.7405 15.4928C24.6689 15.5071 24.5977 15.5215 24.5291 15.5399C24.3323 15.5591 24.3203 15.6119 24.5243 15.6287C24.5496 15.6351 24.5872 15.6373 24.6276 15.6396C24.7252 15.6454 24.839 15.6521 24.8339 15.7199C24.7137 15.7603 24.5851 15.774 24.4563 15.7877C24.2712 15.8075 24.0856 15.8273 23.9243 15.9263C23.9349 15.9779 24.0458 16.015 24.1396 16.0464C24.1724 16.0573 24.2031 16.0676 24.2267 16.0775C24.3534 16.1198 24.2496 16.1712 24.1434 16.2238C24.0866 16.2519 24.0292 16.2804 24.0059 16.3079C23.5043 16.6271 22.8971 16.7351 22.3091 16.6919C22.779 16.634 23.224 16.448 23.5955 16.1543C23.7513 16.1001 23.7095 15.9693 23.67 15.8461L23.6627 15.8231C23.7947 15.8351 23.9579 15.8111 24.0323 15.6983C23.8331 15.5831 23.9915 15.5183 24.1403 15.4823C24.2195 15.4535 24.4211 15.3719 24.2819 15.2855C24.2952 15.1924 24.3927 15.1522 24.4857 15.114C24.5268 15.0971 24.567 15.0806 24.5987 15.0599C24.7859 14.9927 24.7643 14.9543 24.5795 14.9207C24.7011 14.8138 24.8406 14.7337 24.9799 14.6536C25.0689 14.6025 25.1577 14.5515 25.2419 14.4935C25.3795 14.4276 25.2023 14.3993 25.0861 14.3807C25.0585 14.3763 25.0343 14.3724 25.0187 14.3687C25.0558 14.3286 25.1011 14.2901 25.1473 14.2509C25.2832 14.1355 25.4265 14.0138 25.3907 13.8239C25.3187 13.8215 25.2513 13.844 25.1834 13.8666C25.1199 13.8878 25.0559 13.9092 24.9875 13.9103C25.1705 13.7452 25.2873 13.5192 25.3163 13.2743C25.1064 13.2372 24.8902 13.2764 24.7067 13.3847C24.3179 13.6151 23.9891 13.9511 23.7491 14.3327C23.7059 14.4599 23.6507 14.5775 23.5091 14.6207C23.3452 14.7111 23.1733 14.7927 23.0008 14.8745C22.5086 15.1081 22.0114 15.3441 21.6827 15.7919C21.4012 15.871 21.1113 15.9067 20.8211 15.9424C20.5125 15.9804 20.2036 16.0184 19.9043 16.1087C19.6749 16.155 19.5082 16.3067 19.3428 16.4574C19.2936 16.5022 19.2445 16.5469 19.1939 16.5887C18.8403 16.8607 18.45 17.0813 18.0347 17.2439L18.0328 17.2447C18.0358 17.2443 18.0389 17.244 18.042 17.244C18.0738 17.244 18.0996 17.2698 18.0996 17.3016C18.0996 17.3334 18.0738 17.3592 18.042 17.3592C18.0102 17.3592 17.9844 17.3334 17.9844 17.3016C17.9844 17.2855 17.991 17.2709 18.0018 17.2604C17.9788 17.2733 17.9567 17.2882 17.935 17.3029Z" fill="#FFEC2D"/>
<path d="M18.6635 17.1167C18.7475 17.0903 18.8315 17.0807 18.9179 17.0759C18.8808 17.1027 18.8451 17.1307 18.8094 17.1588C18.7618 17.1962 18.7142 17.2337 18.6635 17.2679L18.8123 17.2991C18.7931 17.3212 18.7736 17.3428 18.754 17.3644C18.7098 17.4132 18.6657 17.4619 18.6275 17.5151C18.7043 17.5463 18.7883 17.5631 18.8723 17.5583C18.9206 17.5539 18.9682 17.5435 19.0139 17.5271C19.0373 17.5018 19.0595 17.5133 19.0833 17.5256C19.0911 17.5296 19.0992 17.5338 19.1075 17.5367C19.2063 17.5763 19.3132 17.5849 19.4189 17.5934C19.4416 17.5952 19.4642 17.597 19.4867 17.5991H19.9451L19.9726 17.6024C20.0198 17.6078 20.0689 17.6135 20.1131 17.6375C20.1016 17.649 20.078 17.6526 20.0557 17.6561C20.0452 17.6577 20.0351 17.6592 20.0267 17.6615C19.9487 17.6748 19.8696 17.6674 19.7901 17.66C19.7546 17.6567 19.719 17.6534 19.6835 17.6519L18.9635 17.6375C18.7091 17.6399 18.4547 17.6471 18.2003 17.6735C18.0231 17.6767 17.8478 17.7099 17.6819 17.7719C17.6524 17.8034 17.6647 17.7592 17.6728 17.7303C17.6746 17.7239 17.6762 17.7183 17.6771 17.7143C17.6963 17.6759 17.7035 17.6519 17.6555 17.6759C17.5979 17.6903 17.5403 17.7167 17.4947 17.7551C17.4801 17.7605 17.4713 17.7841 17.4648 17.8018C17.4596 17.816 17.4557 17.8264 17.4515 17.8199C17.4275 17.7671 17.4131 17.7095 17.4179 17.6519C17.4196 17.607 17.4328 17.5632 17.4563 17.5247C17.5009 17.4503 17.5777 17.406 17.6513 17.3635L17.6795 17.3471C17.6993 17.3594 17.7202 17.3698 17.7419 17.3783L17.8091 17.4023H17.8715L17.9387 17.3903C17.9579 17.4071 17.9771 17.4191 17.9987 17.4263C18.0203 17.4359 18.0419 17.4359 18.0635 17.4359C18.0852 17.4344 18.1063 17.4287 18.1259 17.4191C18.1475 17.4095 18.1643 17.3951 18.1787 17.3759C18.193 17.3624 18.2045 17.3461 18.2123 17.3279C18.2219 17.2877 18.2219 17.2458 18.2123 17.2055L18.2867 17.1983L18.3323 17.1887C18.3867 17.1805 18.4406 17.1669 18.4947 17.1533C18.5503 17.1393 18.6063 17.1253 18.6635 17.1167Z" fill="#FFEC2D"/>
<path d="M19.7541 6.14388C19.7541 6.28788 19.6821 6.40788 19.4901 6.41028C19.2981 6.41028 19.2261 6.28788 19.2261 6.14388C19.2261 5.95188 19.4901 5.03748 19.4901 5.03748C19.4901 5.03748 19.7541 5.95188 19.7541 6.14388Z" stroke="#FFEC2D" stroke-width="0.0096"/>
<path d="M22.7206 10.0799C22.7206 11.864 21.2743 13.3103 19.4902 13.3103C17.7061 13.3103 16.2598 11.864 16.2598 10.0799C16.2598 8.29579 17.7061 6.84949 19.4902 6.84949C21.2743 6.84949 22.7206 8.29579 22.7206 10.0799Z" stroke="#FFEC2D" stroke-width="0.0096"/>
<path d="M23.1594 10.0798C23.1618 10.2718 23.2818 10.3438 23.4258 10.3438C23.6178 10.3438 24.5322 10.0798 24.5322 10.0798C24.5322 10.0798 23.6178 9.8158 23.4258 9.8158C23.2818 9.8158 23.1594 9.8878 23.1594 10.0798Z" stroke="#FFEC2D" stroke-width="0.0096"/>
<path d="M19.2259 14.0158C19.2259 13.8718 19.2979 13.7518 19.4899 13.7494C19.6819 13.7494 19.7539 13.8718 19.7539 14.0158C19.7539 14.2078 19.4899 15.1222 19.4899 15.1222C19.4899 15.1222 19.2259 14.2078 19.2259 14.0158Z" stroke="#FFEC2D" stroke-width="0.0096"/>
<path d="M15.8206 10.0799C15.8182 9.88787 15.6982 9.81587 15.5542 9.81587C15.3622 9.81587 14.4478 10.0799 14.4478 10.0799C14.4478 10.0799 15.3622 10.3439 15.5542 10.3439C15.6982 10.3439 15.8206 10.2719 15.8206 10.0799Z" stroke="#FFEC2D" stroke-width="0.0096"/>
<path d="M21.2397 6.54467C21.1846 6.67771 21.0722 6.76102 20.8938 6.68976C20.7165 6.61629 20.6968 6.47565 20.7519 6.34261C20.8254 6.16523 21.4192 5.42146 21.4192 5.42146C21.4192 5.42146 21.3132 6.36729 21.2397 6.54467Z" stroke="#FFEC2D" stroke-width="0.0096"/>
<path d="M22.8797 11.4843C22.8084 11.6626 22.8917 11.775 23.0248 11.8302C23.2022 11.9036 24.148 12.0097 24.148 12.0097C24.148 12.0097 23.4042 11.4158 23.2268 11.3423C23.0938 11.2872 22.9532 11.3069 22.8797 11.4843Z" stroke="#FFEC2D" stroke-width="0.0096"/>
<path d="M17.7393 13.6152C17.7944 13.4822 17.9069 13.3989 18.0852 13.4701C18.2625 13.5436 18.2822 13.6843 18.2271 13.8173C18.1536 13.9947 17.5598 14.7384 17.5598 14.7384C17.5598 14.7384 17.6658 13.7926 17.7393 13.6152Z" stroke="#FFEC2D" stroke-width="0.0096"/>
<path d="M16.0988 8.67561C16.1701 8.49731 16.0868 8.38486 15.9537 8.32976C15.7763 8.25628 14.8305 8.15026 14.8305 8.15026C14.8305 8.15026 15.5743 8.74409 15.7517 8.81757C15.8847 8.87267 16.0253 8.85299 16.0988 8.67561Z" stroke="#FFEC2D" stroke-width="0.0096"/>
<path d="M22.4616 7.48345C22.3598 7.58528 22.224 7.61922 22.0866 7.48515C21.9508 7.34939 21.9864 7.21193 22.0883 7.1101C22.224 6.97434 23.0573 6.51443 23.0573 6.51443C23.0573 6.51443 22.5974 7.34769 22.4616 7.48345Z" stroke="#FFEC2D" stroke-width="0.0096"/>
<path d="M22.0867 12.6748C21.9527 12.8123 21.9866 12.948 22.0884 13.0499C22.2242 13.1856 23.0575 13.6455 23.0575 13.6455C23.0575 13.6455 22.5976 12.8123 22.4618 12.6765C22.36 12.5747 22.2225 12.5391 22.0867 12.6748Z" stroke="#FFEC2D" stroke-width="0.0096"/>
<path d="M16.5218 12.6765C16.6236 12.5746 16.7594 12.5407 16.8968 12.6748C17.0326 12.8105 16.997 12.948 16.8951 13.0498C16.7594 13.1856 15.9261 13.6455 15.9261 13.6455C15.9261 13.6455 16.386 12.8122 16.5218 12.6765Z" stroke="#FFEC2D" stroke-width="0.0096"/>
<path d="M16.8967 7.48521C17.0307 7.34775 16.9968 7.21199 16.895 7.11016C16.7592 6.9744 15.9259 6.5145 15.9259 6.5145C15.9259 6.5145 16.3858 7.34775 16.5216 7.48351C16.6234 7.58534 16.7609 7.62098 16.8967 7.48521Z" stroke="#FFEC2D" stroke-width="0.0096"/>
<path d="M23.2316 8.81758C23.0986 8.87269 22.9602 8.85209 22.8845 8.67562C22.811 8.49824 22.8965 8.38488 23.0296 8.32977C23.207 8.2563 24.1528 8.15028 24.1528 8.15028C24.1528 8.15028 23.409 8.74411 23.2316 8.81758Z" stroke="#FFEC2D" stroke-width="0.0096"/>
<path d="M20.8982 13.4703C20.7218 13.546 20.7012 13.6844 20.7563 13.8174C20.8297 13.9948 21.4236 14.7386 21.4236 14.7386C21.4236 14.7386 21.3176 13.7928 21.2441 13.6154C21.189 13.4824 21.0756 13.3968 20.8982 13.4703Z" stroke="#FFEC2D" stroke-width="0.0096"/>
<path d="M15.7566 11.3423C15.8897 11.2872 16.0281 11.3078 16.1038 11.4843C16.1773 11.6617 16.0917 11.775 15.9587 11.8301C15.7813 11.9036 14.8355 12.0096 14.8355 12.0096C14.8355 12.0096 15.5793 11.4158 15.7566 11.3423Z" stroke="#FFEC2D" stroke-width="0.0096"/>
<path d="M18.0901 6.68961C18.2665 6.61392 18.2871 6.4755 18.232 6.34246C18.1585 6.16508 17.5647 5.42131 17.5647 5.42131C17.5647 5.42131 17.6707 6.36713 17.7442 6.54452C17.7993 6.67756 17.9127 6.76309 18.0901 6.68961Z" stroke="#FFEC2D" stroke-width="0.0096"/>
<path d="M20.5148 6.27179C20.4866 6.41299 20.3925 6.51656 20.2038 6.48129C20.0155 6.44367 19.9689 6.30953 19.9971 6.16833C20.0347 5.98005 20.4727 5.1351 20.4727 5.1351C20.4727 5.1351 20.5525 6.08351 20.5148 6.27179Z" stroke="#FFEC2D" stroke-width="0.0096"/>
<path d="M23.083 10.7988C23.0478 10.9876 23.1513 11.0817 23.2925 11.1099C23.4808 11.1476 24.4292 11.0678 24.4292 11.0678C24.4292 11.0678 23.5843 10.6298 23.396 10.5922C23.2548 10.5639 23.1207 10.6106 23.083 10.7988Z" stroke="#FFEC2D" stroke-width="0.0096"/>
<path d="M18.4539 13.8879C18.4821 13.7467 18.5762 13.6431 18.765 13.6784C18.9533 13.716 18.9999 13.8501 18.9717 13.9913C18.9341 14.1796 18.496 15.0246 18.496 15.0246C18.496 15.0246 18.4163 14.0762 18.4539 13.8879Z" stroke="#FFEC2D" stroke-width="0.0096"/>
<path d="M15.8857 9.36082C15.921 9.17207 15.8174 9.07795 15.6762 9.04974C15.4879 9.01212 14.5395 9.09183 14.5395 9.09183C14.5395 9.09183 15.3845 9.52988 15.5727 9.5675C15.714 9.59572 15.8481 9.5491 15.8857 9.36082Z" stroke="#FFEC2D" stroke-width="0.0096"/>
<path d="M21.8941 6.95617C21.814 7.07583 21.6874 7.13549 21.5265 7.03068C21.3669 6.92387 21.3752 6.78211 21.4553 6.66244C21.5621 6.50289 22.2902 5.8899 22.2902 5.8899C22.2902 5.8899 22.0009 6.79662 21.8941 6.95617Z" stroke="#FFEC2D" stroke-width="0.0096"/>
<path d="M22.5346 12.1213C22.4298 12.2822 22.4895 12.4088 22.6091 12.4889C22.7687 12.5957 23.6754 12.885 23.6754 12.885C23.6754 12.885 23.0624 12.157 22.9029 12.0502C22.7832 11.9701 22.6414 11.9618 22.5346 12.1213Z" stroke="#FFEC2D" stroke-width="0.0096"/>
<path d="M17.0761 13.204C17.1562 13.0843 17.2828 13.0247 17.4437 13.1295C17.6033 13.2363 17.595 13.3781 17.5149 13.4977C17.4081 13.6573 16.68 14.2703 16.68 14.2703C16.68 14.2703 16.9693 13.3635 17.0761 13.204Z" stroke="#FFEC2D" stroke-width="0.0096"/>
<path d="M16.4361 8.03857C16.5409 7.87768 16.4812 7.75109 16.3616 7.67099C16.202 7.56418 15.2953 7.27488 15.2953 7.27488C15.2953 7.27488 15.9083 8.00294 16.0678 8.10975C16.1875 8.18985 16.3293 8.19811 16.4361 8.03857Z" stroke="#FFEC2D" stroke-width="0.0096"/>
<path d="M22.9072 8.11553C22.7874 8.19543 22.6476 8.20211 22.539 8.0437C22.4325 7.88397 22.4944 7.75616 22.6142 7.67626C22.7739 7.56973 23.6811 7.28201 23.6811 7.28201C23.6811 7.28201 23.0669 8.009 22.9072 8.11553Z" stroke="#FFEC2D" stroke-width="0.0096"/>
<path d="M21.5221 13.1329C21.3637 13.2414 21.3704 13.3812 21.4503 13.501C21.5568 13.6608 22.2838 14.275 22.2838 14.275C22.2838 14.275 21.9961 13.3678 21.8895 13.2081C21.8096 13.0883 21.6818 13.0264 21.5221 13.1329Z" stroke="#FFEC2D" stroke-width="0.0096"/>
<path d="M16.065 12.0441C16.1848 11.9642 16.3246 11.9576 16.4331 12.116C16.5397 12.2757 16.4778 12.4035 16.358 12.4834C16.1982 12.5899 15.291 12.8777 15.291 12.8777C15.291 12.8777 15.9053 12.1507 16.065 12.0441Z" stroke="#FFEC2D" stroke-width="0.0096"/>
<path d="M17.4501 7.027C17.6085 6.91847 17.6018 6.77869 17.5219 6.65889C17.4154 6.49915 16.6884 5.88489 16.6884 5.88489C16.6884 5.88489 16.9761 6.79211 17.0826 6.95185C17.1625 7.07165 17.2903 7.13353 17.4501 7.027Z" stroke="#FFEC2D" stroke-width="0.0096"/>
<path d="M23.3981 9.57452C23.2568 9.60249 23.1251 9.55517 23.0855 9.36729C23.0482 9.17895 23.1543 9.08455 23.2955 9.05658C23.4839 9.01928 24.4321 9.10065 24.4321 9.10065C24.4321 9.10065 23.5864 9.53723 23.3981 9.57452Z" stroke="#FFEC2D" stroke-width="0.0096"/>
<path d="M20.1985 13.6796C20.0106 13.7192 19.9633 13.8509 19.9913 13.9922C20.0286 14.1805 20.4651 15.0263 20.4651 15.0263C20.4651 15.0263 20.5465 14.078 20.5092 13.8896C20.4813 13.7484 20.3868 13.6423 20.1985 13.6796Z" stroke="#FFEC2D" stroke-width="0.0096"/>
<path d="M15.5731 10.5856C15.7144 10.5577 15.8461 10.605 15.8857 10.7929C15.923 10.9812 15.8169 11.0756 15.6757 11.1036C15.4873 11.1409 14.5391 11.0595 14.5391 11.0595C14.5391 11.0595 15.3848 10.6229 15.5731 10.5856Z" stroke="#FFEC2D" stroke-width="0.0096"/>
<path d="M18.7727 6.48031C18.9606 6.44067 19.0079 6.30897 18.9799 6.16771C18.9426 5.97937 18.506 5.13366 18.506 5.13366C18.506 5.13366 18.4247 6.08192 18.462 6.27027C18.4899 6.41152 18.5843 6.51761 18.7727 6.48031Z" stroke="#FFEC2D" stroke-width="0.0096"/>
<path d="M19.295 15.8992C19.3221 15.8383 19.3492 15.7774 19.3811 15.7199V15.7175C19.3569 15.7163 19.3326 15.7152 19.3081 15.7141C19.2379 15.711 19.1667 15.7079 19.0955 15.7007C18.0354 15.6361 17.0127 15.2853 16.1363 14.6855C15.0659 13.9523 14.2783 12.8751 13.9043 11.6327C13.8757 11.5493 13.8572 11.4594 13.8389 11.3703C13.8171 11.2645 13.7956 11.1599 13.7579 11.0687C13.6691 10.9967 13.5395 11.0303 13.5251 11.1503C13.4732 11.4478 13.5292 11.7486 13.584 12.043C13.5951 12.1025 13.6062 12.1618 13.6163 12.2207C13.4102 11.9143 13.323 11.5561 13.2362 11.1994C13.2047 11.07 13.1733 10.9408 13.1363 10.8143C13.1216 10.788 13.1137 10.7528 13.1057 10.7172C13.0873 10.6358 13.0684 10.5521 12.9683 10.5671C12.8013 10.5648 12.791 10.7445 12.7839 10.8692L12.7835 10.8767C12.7906 11.5116 13.0923 12.0974 13.3771 12.6503L13.3883 12.6719C13.1651 12.4836 13.0015 12.2421 12.8381 12.001C12.7537 11.8765 12.6694 11.752 12.5771 11.6351C12.5075 11.5151 12.3683 11.4215 12.2315 11.4911C12.0923 11.5391 12.1667 11.7047 12.2147 11.7959C12.4855 12.2965 12.8151 12.7629 13.1963 13.1855C13.2087 13.2095 13.2582 13.2514 13.2985 13.2856C13.3512 13.3303 13.3883 13.3618 13.3067 13.3223C12.9996 13.1605 12.7573 12.9114 12.5162 12.6634C12.4426 12.5877 12.3691 12.5121 12.2939 12.4391C12.2291 12.3167 11.9819 12.3407 12.0011 12.5015C12.3114 12.964 12.6901 13.3767 13.1243 13.7255C13.1463 13.7566 13.195 13.7893 13.2416 13.8205C13.3066 13.8642 13.3674 13.905 13.3451 13.9343C13.1802 13.9602 13.0462 13.877 12.9121 13.7937C12.8099 13.7302 12.7076 13.6667 12.5915 13.6511C12.505 13.6689 12.5967 13.8095 12.6414 13.8781L12.6515 13.8935C12.9619 14.2255 13.3866 14.4084 13.8003 14.5866C13.847 14.6067 13.894 14.6269 13.9403 14.6471C13.8284 14.6939 13.7072 14.6826 13.5872 14.6713C13.5348 14.6664 13.4826 14.6615 13.4315 14.6615C13.4093 14.6673 13.3679 14.6613 13.3252 14.6551C13.2427 14.6431 13.1551 14.6304 13.1915 14.6999C13.345 14.873 13.5627 14.9017 13.7807 14.9304C13.9103 14.9475 14.0399 14.9645 14.1563 15.0119C14.0847 15.0723 13.9881 15.0889 13.8976 15.1045L13.8779 15.1079C13.8504 15.1195 13.8076 15.1235 13.7639 15.1275C13.6891 15.1345 13.6118 15.1417 13.6043 15.1871C13.7203 15.2645 13.8573 15.282 13.9941 15.2995C14.0694 15.3091 14.1446 15.3187 14.2163 15.3383C14.4155 15.3527 14.3291 15.3911 14.1851 15.4247C14.1593 15.436 14.127 15.4438 14.0942 15.4517C14.0293 15.4673 13.9626 15.4833 13.9403 15.5279C14.1226 15.6407 14.3403 15.677 14.5552 15.7127C14.6147 15.7226 14.674 15.7325 14.7323 15.7439C14.6753 15.7682 14.6155 15.7851 14.556 15.8018C14.4802 15.8232 14.4048 15.8444 14.3363 15.8807C14.6195 15.9839 14.8955 16.1015 15.1715 16.2215C15.7043 16.4591 16.2707 16.6319 16.8563 16.6655C16.6547 16.6271 16.4555 16.5671 16.2635 16.5047C15.7739 16.3367 15.2819 16.1663 14.8379 15.9047C14.8838 15.8689 14.9345 15.8398 14.9852 15.8107C15.0431 15.7775 15.1011 15.7442 15.1523 15.7007C14.9574 15.6912 14.7676 15.6361 14.5979 15.5399C14.462 15.4892 14.5489 15.4303 14.6297 15.3756C14.656 15.3578 14.6816 15.3404 14.6987 15.3239C14.6894 15.2776 14.6144 15.2581 14.5417 15.2392C14.5015 15.2287 14.462 15.2185 14.4347 15.2039C14.3123 15.2087 14.2763 15.0575 14.3723 14.9951C14.4886 14.937 14.3668 14.8972 14.2887 14.8717C14.2734 14.8667 14.2597 14.8623 14.2499 14.8583C14.1891 14.8252 14.2038 14.7681 14.2182 14.7129C14.2287 14.6722 14.239 14.6324 14.2187 14.6039C13.977 14.5449 13.7551 14.4232 13.5755 14.2511C13.5992 14.2274 13.6853 14.2225 13.7674 14.2177C13.81 14.2153 13.8515 14.2129 13.8827 14.2079C13.6907 14.0676 13.525 13.8946 13.3931 13.6967C13.4229 13.6744 13.5018 13.6779 13.5815 13.6816C13.6301 13.6838 13.6789 13.686 13.7171 13.6823C13.6955 13.4375 13.5491 13.2215 13.4051 13.0295C13.4195 12.9647 13.5803 12.9671 13.6451 13.0151C13.7122 13.0754 13.7269 13.034 13.7451 12.9829C13.7587 12.9445 13.7743 12.9006 13.8155 12.8903C13.8402 12.9086 13.8654 12.9266 13.8906 12.9446C13.9681 12.9999 14.0461 13.0556 14.1131 13.1207C14.3442 13.3192 14.5287 13.5602 14.7131 13.801C14.9079 14.0553 15.1024 14.3093 15.3515 14.5127C15.5859 14.6924 15.8572 14.8178 16.1459 14.8799C16.3376 14.9953 16.4984 15.1526 16.6593 15.3101C16.7563 15.4049 16.8533 15.4998 16.9571 15.5855C17.2211 15.8279 17.5907 15.8591 17.9315 15.8783C17.9636 15.8797 17.9961 15.8808 18.0289 15.882C18.4166 15.8959 18.8402 15.911 19.1411 16.1831C19.2065 16.0983 19.2508 15.9987 19.295 15.8992Z" stroke="#FFEC2D" stroke-width="0.0096"/>
<path d="M22.333 17.8418C22.4324 17.9089 22.5342 17.9776 22.6547 17.9039C22.7319 17.8464 22.7433 17.7486 22.7542 17.6547C22.7578 17.6232 22.7614 17.5921 22.7675 17.5631C22.7474 17.443 22.7942 17.4817 22.8604 17.5365C22.9131 17.5802 22.9782 17.6341 23.0315 17.6255C23.2883 17.7119 23.6027 17.5127 23.5595 17.2295C23.3239 17.2208 23.0892 17.1957 22.8545 17.1705C22.5079 17.1334 22.1614 17.0962 21.8123 17.1119C21.792 17.1138 21.7717 17.1149 21.7518 17.1159C21.6443 17.1215 21.5505 17.1263 21.5627 17.2559C21.551 17.3155 21.4843 17.3364 21.4271 17.3543C21.3667 17.3733 21.3169 17.3889 21.3539 17.4431C21.4186 17.551 21.2797 17.6236 21.1757 17.678C21.1525 17.6902 21.131 17.7014 21.1139 17.7119C20.7496 17.8489 20.3646 17.8462 19.9796 17.8434C19.7506 17.8418 19.5217 17.8402 19.2971 17.8679C18.9491 17.8967 18.5315 18.0287 18.4331 18.4127C18.6313 18.4651 18.8062 18.344 18.9692 18.2313C19.0154 18.1993 19.0606 18.168 19.1051 18.1415C19.1327 18.1554 19.1283 18.2069 19.1232 18.2668C19.1168 18.3419 19.1092 18.43 19.1627 18.4727C19.3334 18.4604 19.4512 18.3 19.5524 18.1622C19.5693 18.1392 19.5857 18.1169 19.6019 18.0959C19.6524 18.1526 19.639 18.2252 19.626 18.2953C19.6138 18.3618 19.6019 18.426 19.6451 18.4727C19.7941 18.4869 19.8867 18.378 19.9785 18.27C20.0272 18.2128 20.0757 18.1558 20.1323 18.1175C20.1869 18.109 20.1746 18.1711 20.1603 18.2435C20.1463 18.3144 20.1303 18.3951 20.1731 18.4295C20.3267 18.4967 20.4899 18.3863 20.5427 18.2327C20.6147 18.0191 20.6819 18.1775 20.7107 18.3119C20.8043 18.4655 20.9795 18.3215 21.0443 18.2207C21.1059 18.063 21.1662 18.1286 21.2386 18.2073C21.262 18.2328 21.2867 18.2596 21.3131 18.2807C21.4645 18.3068 21.5453 18.1925 21.625 18.0796C21.6628 18.0261 21.7003 17.9729 21.7451 17.9351C21.7331 18.0647 21.8771 18.2351 21.9923 18.1031C22.0362 18.0614 22.062 17.9997 22.0872 17.9394C22.1171 17.8678 22.1461 17.7984 22.2035 17.7671C22.2471 17.7839 22.2898 17.8127 22.333 17.8418Z" stroke="#FFEC2D" stroke-width="0.0096"/>
<path d="M17.935 17.3029C17.8516 17.3595 17.7744 17.4118 17.6771 17.3231C17.6749 17.2885 17.6815 17.2538 17.6963 17.2223C17.819 17.0641 18.0091 17.0004 18.1986 16.9368C18.2907 16.906 18.3827 16.8751 18.4667 16.8335C18.8228 16.7208 19.0623 16.4519 19.3024 16.1823C19.4457 16.0214 19.5892 15.8602 19.7579 15.7319C19.8659 15.6927 19.9829 15.6845 20.0999 15.6764C20.183 15.6707 20.2661 15.6649 20.3459 15.6479C21.0707 15.5423 21.7787 15.3119 22.4147 14.9519C23.7995 14.1527 24.8627 12.7703 25.1747 11.1887C25.1387 11.0279 25.4003 10.9583 25.4387 11.1215C25.5034 11.4159 25.4462 11.72 25.3904 12.0166C25.378 12.0827 25.3656 12.1484 25.3547 12.2135C25.5519 11.9267 25.6366 11.5876 25.7208 11.2503C25.7494 11.1361 25.7779 11.0221 25.8107 10.9103C25.8316 10.8726 25.8409 10.8216 25.8502 10.7702C25.8675 10.6747 25.885 10.5779 25.9787 10.5623C26.1611 10.5359 26.1851 10.7327 26.1851 10.8671C26.1803 11.5103 25.8755 12.1079 25.5851 12.6671C25.8117 12.478 25.9752 12.2346 26.1387 11.9912C26.2159 11.8762 26.2932 11.7612 26.3771 11.6519C26.4539 11.5055 26.6411 11.3903 26.7923 11.5151C26.8602 11.6349 26.783 11.7626 26.7125 11.8795C26.6883 11.9195 26.6648 11.9584 26.6483 11.9951C26.3584 12.489 26.0068 12.9439 25.6019 13.3487C25.9306 13.1926 26.1849 12.9325 26.4368 12.6748C26.514 12.5958 26.591 12.517 26.6699 12.4415C26.7347 12.3143 26.9891 12.3311 26.9699 12.4943C26.6123 13.0535 26.1179 13.5119 25.5947 13.9175C25.7699 13.9696 25.9181 13.8753 26.0646 13.7822C26.1408 13.7337 26.2166 13.6855 26.2955 13.6583C26.4731 13.5743 26.3987 13.8143 26.3435 13.8935C26.1821 14.1373 25.9336 14.2884 25.6858 14.4391C25.5725 14.508 25.4593 14.5768 25.3547 14.6543C25.1603 14.7239 25.2395 14.8079 25.4099 14.7767C25.4224 14.7764 25.4396 14.7751 25.4594 14.7735C25.5714 14.7649 25.7652 14.7499 25.6571 14.8703C25.4866 14.9952 25.2838 15.0491 25.0811 15.1029C24.9527 15.1369 24.8243 15.171 24.7043 15.2231C24.7901 15.2536 24.8833 15.2544 24.9758 15.2551C25.0798 15.2559 25.1828 15.2567 25.2731 15.2999C25.12 15.4165 24.929 15.4549 24.7405 15.4928C24.6689 15.5071 24.5977 15.5215 24.5291 15.5399C24.3323 15.5591 24.3203 15.6119 24.5243 15.6287C24.5496 15.6351 24.5872 15.6373 24.6276 15.6396C24.7252 15.6454 24.839 15.6521 24.8339 15.7199C24.7137 15.7603 24.5851 15.774 24.4563 15.7877C24.2712 15.8075 24.0856 15.8273 23.9243 15.9263C23.9349 15.9779 24.0458 16.015 24.1396 16.0464C24.1724 16.0573 24.2031 16.0676 24.2267 16.0775C24.3534 16.1198 24.2496 16.1712 24.1434 16.2238C24.0866 16.2519 24.0292 16.2804 24.0059 16.3079C23.5043 16.6271 22.8971 16.7351 22.3091 16.6919C22.779 16.634 23.224 16.448 23.5955 16.1543C23.7513 16.1001 23.7095 15.9693 23.67 15.8461L23.6627 15.8231C23.7947 15.8351 23.9579 15.8111 24.0323 15.6983C23.8331 15.5831 23.9915 15.5183 24.1403 15.4823C24.2195 15.4535 24.4211 15.3719 24.2819 15.2855C24.2952 15.1924 24.3927 15.1522 24.4857 15.114C24.5268 15.0971 24.567 15.0806 24.5987 15.0599C24.7859 14.9927 24.7643 14.9543 24.5795 14.9207C24.7011 14.8138 24.8406 14.7337 24.9799 14.6536C25.0689 14.6025 25.1577 14.5515 25.2419 14.4935C25.3795 14.4276 25.2023 14.3993 25.0861 14.3807C25.0585 14.3763 25.0343 14.3724 25.0187 14.3687C25.0558 14.3286 25.1011 14.2901 25.1473 14.2509C25.2832 14.1355 25.4265 14.0138 25.3907 13.8239C25.3187 13.8215 25.2513 13.844 25.1834 13.8666C25.1199 13.8878 25.0559 13.9092 24.9875 13.9103C25.1705 13.7452 25.2873 13.5192 25.3163 13.2743C25.1064 13.2372 24.8902 13.2764 24.7067 13.3847C24.3179 13.6151 23.9891 13.9511 23.7491 14.3327C23.7059 14.4599 23.6507 14.5775 23.5091 14.6207C23.3452 14.7111 23.1733 14.7927 23.0008 14.8745C22.5086 15.1081 22.0114 15.3441 21.6827 15.7919C21.4012 15.871 21.1113 15.9067 20.8211 15.9424C20.5125 15.9804 20.2036 16.0184 19.9043 16.1087C19.6749 16.155 19.5082 16.3067 19.3428 16.4574C19.2936 16.5022 19.2445 16.5469 19.1939 16.5887C18.8403 16.8607 18.45 17.0813 18.0347 17.2439L18.0328 17.2447C18.0358 17.2443 18.0389 17.244 18.042 17.244C18.0738 17.244 18.0996 17.2698 18.0996 17.3016C18.0996 17.3334 18.0738 17.3592 18.042 17.3592C18.0102 17.3592 17.9844 17.3334 17.9844 17.3016C17.9844 17.2855 17.991 17.2709 18.0018 17.2604C17.9788 17.2733 17.9567 17.2882 17.935 17.3029Z" stroke="#FFEC2D" stroke-width="0.0096"/>
<path d="M18.6635 17.1167C18.7475 17.0903 18.8315 17.0807 18.9179 17.0759C18.8808 17.1027 18.8451 17.1307 18.8094 17.1588C18.7618 17.1962 18.7142 17.2337 18.6635 17.2679L18.8123 17.2991C18.7931 17.3212 18.7736 17.3428 18.754 17.3644C18.7098 17.4132 18.6657 17.4619 18.6275 17.5151C18.7043 17.5463 18.7883 17.5631 18.8723 17.5583C18.9206 17.5539 18.9682 17.5435 19.0139 17.5271C19.0373 17.5018 19.0595 17.5133 19.0833 17.5256C19.0911 17.5296 19.0992 17.5338 19.1075 17.5367C19.2063 17.5763 19.3132 17.5849 19.4189 17.5934C19.4416 17.5952 19.4642 17.597 19.4867 17.5991H19.9451L19.9726 17.6024C20.0198 17.6078 20.0689 17.6135 20.1131 17.6375C20.1016 17.649 20.078 17.6526 20.0557 17.6561C20.0452 17.6577 20.0351 17.6592 20.0267 17.6615C19.9487 17.6748 19.8696 17.6674 19.7901 17.66C19.7546 17.6567 19.719 17.6534 19.6835 17.6519L18.9635 17.6375C18.7091 17.6399 18.4547 17.6471 18.2003 17.6735C18.0231 17.6767 17.8478 17.7099 17.6819 17.7719C17.6524 17.8034 17.6647 17.7592 17.6728 17.7303C17.6746 17.7239 17.6762 17.7183 17.6771 17.7143C17.6963 17.6759 17.7035 17.6519 17.6555 17.6759C17.5979 17.6903 17.5403 17.7167 17.4947 17.7551C17.4801 17.7605 17.4713 17.7841 17.4648 17.8018C17.4596 17.816 17.4557 17.8264 17.4515 17.8199C17.4275 17.7671 17.4131 17.7095 17.4179 17.6519C17.4196 17.607 17.4328 17.5632 17.4563 17.5247C17.5009 17.4503 17.5777 17.406 17.6513 17.3635L17.6795 17.3471C17.6993 17.3594 17.7202 17.3698 17.7419 17.3783L17.8091 17.4023H17.8715L17.9387 17.3903C17.9579 17.4071 17.9771 17.4191 17.9987 17.4263C18.0203 17.4359 18.0419 17.4359 18.0635 17.4359C18.0852 17.4344 18.1063 17.4287 18.1259 17.4191C18.1475 17.4095 18.1643 17.3951 18.1787 17.3759C18.193 17.3624 18.2045 17.3461 18.2123 17.3279C18.2219 17.2877 18.2219 17.2458 18.2123 17.2055L18.2867 17.1983L18.3323 17.1887C18.3867 17.1805 18.4406 17.1669 18.4947 17.1533C18.5503 17.1393 18.6063 17.1253 18.6635 17.1167Z" stroke="#FFEC2D" stroke-width="0.0096"/>
<path fill-rule="evenodd" clip-rule="evenodd" d="M2.88843 1.4688C2.96186 1.41608 3.0598 1.36555 3.16543 1.36555C3.33823 1.36555 3.51103 1.47595 3.51103 1.67035C3.51103 1.796 3.41233 2.0164 3.31062 2.24352C3.20253 2.48491 3.09103 2.73389 3.09103 2.88475C3.09103 3.10315 3.25183 3.21835 3.46303 3.20875C3.69823 3.20395 3.87823 3.09355 3.87823 2.87275C3.87823 2.63275 3.75583 2.53675 3.60703 2.52955C3.45583 2.52235 3.39103 2.62555 3.39103 2.69995C3.39103 2.78635 3.44383 2.80315 3.50143 2.80315C3.62863 2.80315 3.57823 2.60155 3.57823 2.60155C3.65743 2.64715 3.71263 2.70235 3.66463 2.80315C3.72943 2.80315 3.78463 2.82715 3.82063 2.87515C3.78463 2.91835 3.73183 2.94235 3.66463 2.94715C3.70543 3.05515 3.64783 3.10795 3.56143 3.13195C3.58303 3.08395 3.59743 3.01915 3.57343 2.97115C3.54223 2.99515 3.48463 3.01195 3.44623 3.01195C3.32623 3.01195 3.20623 2.88715 3.20623 2.71195C3.20623 2.48155 3.39823 2.26315 3.71503 2.34475C3.60463 2.27035 3.56143 2.18875 3.55663 2.11675C3.56749 2.11907 3.57747 2.1214 3.58676 2.12357C3.63494 2.1348 3.66441 2.14167 3.70063 2.12155C3.64543 2.04955 3.60703 1.96555 3.63103 1.89355C3.65057 1.91296 3.67457 1.92727 3.70094 1.93522C3.72731 1.94317 3.75522 1.94452 3.78223 1.93915C3.68383 1.67995 3.85663 1.35595 4.20703 1.31995C4.20703 1.31995 4.01023 1.63195 4.01023 1.86955C4.01023 2.09464 4.0523 2.24644 4.09307 2.39358C4.13142 2.53198 4.16863 2.66627 4.16863 2.85355C4.16863 3.10555 4.02463 3.26875 3.88063 3.34075C4.0066 3.34788 4.05725 3.37854 4.13281 3.47937L4.13466 3.47988L4.13402 3.48099L4.13503 3.48235L4.13305 3.48263C4.10946 3.5225 4.07788 3.55708 4.04027 3.58417C4.00399 3.6103 3.96289 3.62892 3.91937 3.63896C3.99134 3.68965 4.05076 3.75618 4.09304 3.83349C4.13685 3.91361 4.16099 4.003 4.16346 4.09428C4.16346 4.27343 4.13114 4.39043 4.09593 4.51792C4.05377 4.67054 4.00746 4.83819 4.00746 5.14548C4.00746 5.32068 4.07466 5.49348 4.21386 5.65668C3.83466 5.57988 3.68586 5.25348 3.80586 5.01348C3.74644 4.98856 3.69774 5.01569 3.64997 5.04229C3.63793 5.049 3.62594 5.05568 3.61386 5.06148C3.61185 4.9489 3.64857 4.89189 3.68312 4.83826C3.68981 4.82787 3.69643 4.8176 3.70266 4.80708C3.70266 4.80708 3.63786 4.80708 3.57786 4.83108C3.58746 4.74708 3.62586 4.67268 3.70266 4.63668C3.37866 4.68708 3.20586 4.47828 3.20586 4.22868C3.20586 3.97908 3.42906 3.91188 3.57306 3.95508C3.58168 3.9164 3.57747 3.87596 3.56106 3.83988C3.65226 3.86388 3.69546 3.91428 3.66426 4.01988C3.71706 4.02948 3.76026 4.05588 3.79626 4.09188C3.76192 4.13179 3.71563 4.15956 3.66426 4.17108C3.67093 4.1882 3.67373 4.20658 3.67247 4.2249C3.67121 4.24323 3.66593 4.26105 3.65699 4.2771C3.64805 4.29315 3.63567 4.30702 3.62075 4.31774C3.60583 4.32845 3.58872 4.33574 3.57066 4.33908C3.57066 4.33908 3.61146 4.15668 3.47466 4.15668C3.41946 4.15668 3.38346 4.19028 3.38346 4.26708C3.38346 4.37988 3.44586 4.44468 3.60426 4.44468C3.73386 4.44468 3.86106 4.33668 3.86106 4.09428C3.86106 3.89508 3.65946 3.71988 3.47706 3.72708C3.27786 3.72948 3.08586 3.89028 3.08586 4.08708C3.079 4.18708 3.09543 4.28731 3.13386 4.37988L4.19466 6.58068C4.28826 6.77508 4.32666 6.90468 4.32666 7.10868C4.32666 7.43689 4.1239 7.69423 3.74335 7.73987C4.1239 7.78551 4.32666 8.04285 4.32666 8.37106C4.32666 8.57506 4.28826 8.70466 4.19466 8.89906L3.13386 11.0999C3.09543 11.1924 3.079 11.2927 3.08586 11.3927C3.08586 11.5895 3.27786 11.7503 3.47706 11.7527C3.65946 11.7599 3.86106 11.5847 3.86106 11.3855C3.86106 11.1431 3.73386 11.0351 3.60426 11.0351C3.44586 11.0351 3.38346 11.0999 3.38346 11.2127C3.38346 11.2895 3.41946 11.3231 3.47466 11.3231C3.61146 11.3231 3.57066 11.1407 3.57066 11.1407C3.58872 11.144 3.60583 11.1513 3.62075 11.162C3.63567 11.1727 3.64805 11.1866 3.65699 11.2026C3.66593 11.2187 3.67121 11.2365 3.67247 11.2548C3.67373 11.2732 3.67093 11.2915 3.66426 11.3087C3.71563 11.3202 3.76192 11.3479 3.79626 11.3879C3.76026 11.4239 3.71706 11.4503 3.66426 11.4599C3.69546 11.5655 3.65226 11.6159 3.56106 11.6399C3.57747 11.6038 3.58168 11.5633 3.57306 11.5247C3.42906 11.5679 3.20586 11.5007 3.20586 11.2511C3.20586 11.0015 3.37866 10.7927 3.70266 10.8431C3.62586 10.8071 3.58746 10.7327 3.57786 10.6487C3.63786 10.6727 3.70266 10.6727 3.70266 10.6727C3.69644 10.6622 3.68984 10.6519 3.68316 10.6415C3.64861 10.5879 3.61185 10.5308 3.61386 10.4183C3.62593 10.4241 3.63791 10.4307 3.64995 10.4374C3.69771 10.464 3.74644 10.4912 3.80586 10.4663C3.68586 10.2263 3.83466 9.89986 4.21386 9.82306C4.07466 9.98626 4.00746 10.1591 4.00746 10.3343C4.00746 10.6415 4.05377 10.8092 4.09593 10.9618C4.13114 11.0893 4.16346 11.2063 4.16346 11.3855C4.16099 11.4767 4.13685 11.5661 4.09304 11.6462C4.05076 11.7236 3.99133 11.7901 3.91937 11.8408C3.96288 11.8508 4.00399 11.8694 4.04027 11.8956C4.07874 11.9233 4.11091 11.9588 4.13466 11.9999C4.11091 12.0409 4.07874 12.0767 4.04027 12.1044C4.00399 12.1306 3.96288 12.1492 3.91937 12.1592C3.99133 12.2099 4.05076 12.2764 4.09304 12.3538C4.13685 12.4339 4.16099 12.5233 4.16346 12.6145C4.16346 12.7937 4.13114 12.9107 4.09593 13.0382C4.05377 13.1908 4.00746 13.3585 4.00746 13.6657C4.00746 13.8409 4.07466 14.0137 4.21386 14.1769C3.83466 14.1001 3.68586 13.7737 3.80586 13.5337C3.74644 13.5088 3.69774 13.536 3.64998 13.5626C3.63793 13.5693 3.62594 13.5759 3.61386 13.5817C3.61185 13.4692 3.64857 13.4122 3.68312 13.3585C3.68981 13.3481 3.69643 13.3379 3.70266 13.3273C3.70266 13.3273 3.63786 13.3273 3.57786 13.3513C3.58746 13.2673 3.62586 13.1929 3.70266 13.1569C3.37866 13.2073 3.20586 12.9985 3.20586 12.7489C3.20586 12.4993 3.42906 12.4321 3.57306 12.4753C3.58168 12.4367 3.57747 12.3962 3.56106 12.3601C3.65226 12.3841 3.69546 12.4345 3.66426 12.5401C3.71706 12.5497 3.76026 12.5761 3.79626 12.6121C3.76192 12.6521 3.71563 12.6798 3.66426 12.6913C3.67093 12.7085 3.67373 12.7268 3.67247 12.7452C3.67121 12.7635 3.66593 12.7813 3.65699 12.7974C3.64805 12.8134 3.63567 12.8273 3.62075 12.838C3.60583 12.8487 3.58872 12.856 3.57066 12.8593C3.57066 12.8593 3.61146 12.6769 3.47466 12.6769C3.41946 12.6769 3.38346 12.7105 3.38346 12.7873C3.38346 12.9001 3.44586 12.9649 3.60426 12.9649C3.73386 12.9649 3.86106 12.8569 3.86106 12.6145C3.86106 12.4153 3.65946 12.2401 3.47706 12.2473C3.27786 12.2497 3.08586 12.4105 3.08586 12.6073C3.079 12.7073 3.09543 12.8076 3.13386 12.9001L4.19466 15.1009C4.28826 15.2953 4.32666 15.4249 4.32666 15.6289C4.32666 15.9572 4.1239 16.2145 3.74335 16.2601C4.1239 16.3058 4.32666 16.5631 4.32666 16.8913C4.32666 17.0953 4.28826 17.2249 4.19466 17.4193L3.13386 19.6201C3.09543 19.7127 3.079 19.8129 3.08586 19.9129C3.08586 20.1097 3.27786 20.2705 3.47706 20.2729C3.65946 20.2801 3.86106 20.1049 3.86106 19.9057C3.86106 19.6633 3.73386 19.5553 3.60426 19.5553C3.44586 19.5553 3.38346 19.6201 3.38346 19.7329C3.38346 19.8097 3.41946 19.8433 3.47466 19.8433C3.61146 19.8433 3.57066 19.6609 3.57066 19.6609C3.58872 19.6643 3.60583 19.6715 3.62075 19.6823C3.63567 19.693 3.64805 19.7069 3.65699 19.7229C3.66593 19.7389 3.67121 19.7568 3.67247 19.7751C3.67373 19.7934 3.67093 19.8118 3.66426 19.8289C3.71563 19.8404 3.76192 19.8682 3.79626 19.9081C3.76026 19.9441 3.71706 19.9705 3.66426 19.9801C3.69546 20.0857 3.65226 20.1361 3.56106 20.1601C3.57747 20.124 3.58168 20.0836 3.57306 20.0449C3.42906 20.0881 3.20586 20.0209 3.20586 19.7713C3.20586 19.5217 3.37866 19.3129 3.70266 19.3633C3.62586 19.3273 3.58746 19.2529 3.57786 19.1689C3.63786 19.1929 3.70266 19.1929 3.70266 19.1929C3.69643 19.1824 3.68981 19.1721 3.68312 19.1617C3.64857 19.1081 3.61185 19.0511 3.61386 18.9385C3.62594 18.9443 3.63793 18.951 3.64998 18.9577C3.69774 18.9843 3.74644 19.0114 3.80586 18.9865C3.68586 18.7465 3.83466 18.4201 4.21386 18.3433C4.07466 18.5065 4.00746 18.6793 4.00746 18.8545C4.00746 19.1618 4.05377 19.3295 4.09593 19.4821C4.13114 19.6096 4.16346 19.7266 4.16346 19.9057C4.16099 19.997 4.13685 20.0864 4.09304 20.1665C4.05076 20.2438 3.99133 20.3104 3.91937 20.361C3.96288 20.3711 4.00399 20.3897 4.04027 20.4158C4.07788 20.4429 4.10946 20.4775 4.13305 20.5174L4.13503 20.5177L4.13401 20.519L4.13466 20.5201L4.13281 20.5206C4.05725 20.6215 4.0066 20.6521 3.88063 20.6593C4.02463 20.7313 4.16863 20.8945 4.16863 21.1465C4.16863 21.3337 4.13142 21.468 4.09307 21.6064C4.0523 21.7536 4.01023 21.9054 4.01023 22.1305C4.01023 22.3681 4.20703 22.6801 4.20703 22.6801C3.85663 22.6441 3.68383 22.3201 3.78223 22.0609C3.75522 22.0555 3.72731 22.0568 3.70094 22.0648C3.67457 22.0727 3.65057 22.087 3.63103 22.1065C3.60703 22.0345 3.64543 21.9505 3.70063 21.8785C3.66441 21.8583 3.63494 21.8652 3.58676 21.8764C3.57748 21.8786 3.56749 21.8809 3.55663 21.8833C3.56143 21.8113 3.60463 21.7297 3.71503 21.6553C3.39823 21.7369 3.20623 21.5185 3.20623 21.2881C3.20623 21.1129 3.32623 20.9881 3.44623 20.9881C3.48463 20.9881 3.54223 21.0049 3.57343 21.0289C3.59743 20.9809 3.58303 20.9161 3.56143 20.8681C3.64783 20.8921 3.70543 20.9449 3.66463 21.0529C3.73183 21.0577 3.78463 21.0817 3.82063 21.1249C3.78463 21.1729 3.72943 21.1969 3.66463 21.1969C3.71263 21.2977 3.65743 21.3529 3.57823 21.3985C3.57823 21.3985 3.62863 21.1969 3.50143 21.1969C3.44383 21.1969 3.39103 21.2137 3.39103 21.3001C3.39103 21.3745 3.45583 21.4777 3.60703 21.4705C3.75583 21.4633 3.87823 21.3673 3.87823 21.1273C3.87823 20.9065 3.69823 20.7961 3.46303 20.7913C3.25183 20.7817 3.09103 20.8969 3.09103 21.1153C3.09103 21.2661 3.20253 21.5151 3.31062 21.7565C3.41233 21.9836 3.51103 22.204 3.51103 22.3297C3.51103 22.5241 3.33823 22.6345 3.16543 22.6345C3.0598 22.6345 2.96186 22.5839 2.88843 22.5312C2.815 22.5839 2.71706 22.6345 2.61142 22.6345C2.43862 22.6345 2.26582 22.5241 2.26582 22.3297C2.26582 22.204 2.36452 21.9836 2.46623 21.7565C2.57433 21.5151 2.68582 21.2661 2.68582 21.1153C2.68582 20.8969 2.52502 20.7817 2.31382 20.7913C2.07862 20.7961 1.89862 20.9065 1.89862 21.1273C1.89862 21.3673 2.02102 21.4633 2.16982 21.4705C2.32102 21.4777 2.38582 21.3745 2.38582 21.3001C2.38582 21.2137 2.33302 21.1969 2.27542 21.1969C2.14822 21.1969 2.19862 21.3985 2.19862 21.3985C2.11942 21.3529 2.06422 21.2977 2.11222 21.1969C2.04742 21.1969 1.99222 21.1729 1.95622 21.1249C1.99222 21.0817 2.04502 21.0577 2.11222 21.0529C2.07142 20.9449 2.12902 20.8921 2.21542 20.8681C2.19382 20.9161 2.17942 20.9809 2.20342 21.0289C2.23462 21.0049 2.29222 20.9881 2.33062 20.9881C2.45062 20.9881 2.57062 21.1129 2.57062 21.2881C2.57062 21.5185 2.37862 21.7369 2.06182 21.6553C2.17222 21.7297 2.21542 21.8113 2.22022 21.8833C2.20936 21.8809 2.19938 21.8786 2.19009 21.8764C2.14191 21.8652 2.11244 21.8583 2.07622 21.8785C2.13142 21.9505 2.16982 22.0345 2.14582 22.1065C2.12629 22.087 2.10228 22.0727 2.07592 22.0648C2.04955 22.0568 2.02163 22.0555 1.99462 22.0609C2.09302 22.3201 1.92022 22.6441 1.56982 22.6801C1.56982 22.6801 1.76662 22.3681 1.76662 22.1305C1.76662 21.9054 1.72456 21.7536 1.68379 21.6064C1.64543 21.468 1.60822 21.3337 1.60822 21.1465C1.60822 20.8945 1.75222 20.7313 1.89622 20.6593C1.77032 20.6521 1.71966 20.6215 1.64417 20.5208L1.64171 20.5201L1.64257 20.5187L1.64182 20.5177L1.64327 20.5174C1.66687 20.4775 1.69847 20.4429 1.7361 20.4158C1.77237 20.3897 1.81348 20.3711 1.857 20.361C1.78503 20.3104 1.72561 20.2438 1.68333 20.1665C1.63952 20.0864 1.61538 19.997 1.61291 19.9057C1.61291 19.7266 1.64523 19.6096 1.68044 19.4821C1.7226 19.3295 1.76891 19.1618 1.76891 18.8545C1.76891 18.6793 1.70171 18.5065 1.56251 18.3433C1.94171 18.4201 2.09051 18.7465 1.97051 18.9865C2.02992 19.0114 2.07862 18.9843 2.12639 18.9577C2.13844 18.951 2.15042 18.9443 2.16251 18.9385C2.16452 19.0511 2.12779 19.1081 2.09325 19.1617C2.08658 19.1721 2.07992 19.1824 2.07371 19.1929C2.07371 19.1929 2.13851 19.1929 2.19851 19.1689C2.18891 19.2529 2.15051 19.3273 2.07371 19.3633C2.39771 19.3129 2.57051 19.5217 2.57051 19.7713C2.57051 20.0209 2.34731 20.0881 2.20331 20.0449C2.19469 20.0836 2.1989 20.124 2.21531 20.1601C2.12411 20.1361 2.08091 20.0857 2.11211 19.9801C2.05931 19.9705 2.01611 19.9441 1.98011 19.9081C2.01445 19.8682 2.06074 19.8404 2.11211 19.8289C2.10544 19.8118 2.10264 19.7934 2.1039 19.7751C2.10515 19.7568 2.11044 19.7389 2.11938 19.7229C2.12832 19.7069 2.1407 19.693 2.15562 19.6823C2.17054 19.6715 2.18764 19.6643 2.20571 19.6609C2.20571 19.6609 2.16491 19.8433 2.30171 19.8433C2.35691 19.8433 2.39291 19.8097 2.39291 19.7329C2.39291 19.6201 2.33051 19.5553 2.17211 19.5553C2.04251 19.5553 1.91531 19.6633 1.91531 19.9057C1.91531 20.1049 2.11691 20.2801 2.29931 20.2729C2.49851 20.2705 2.69051 20.1097 2.69051 19.9129C2.69737 19.8129 2.68094 19.7127 2.64251 19.6201L1.58171 17.4193C1.48811 17.2249 1.44971 17.0953 1.44971 16.8913C1.44971 16.5631 1.65246 16.3058 2.03302 16.2601C1.65246 16.2145 1.44971 15.9572 1.44971 15.6289C1.44971 15.4249 1.48811 15.2953 1.58171 15.1009L2.64251 12.9001C2.68094 12.8076 2.69737 12.7073 2.69051 12.6073C2.69051 12.4105 2.49851 12.2497 2.29931 12.2473C2.11691 12.2401 1.91531 12.4153 1.91531 12.6145C1.91531 12.8569 2.04251 12.9649 2.17211 12.9649C2.33051 12.9649 2.39291 12.9001 2.39291 12.7873C2.39291 12.7105 2.35691 12.6769 2.30171 12.6769C2.16491 12.6769 2.20571 12.8593 2.20571 12.8593C2.18764 12.856 2.17054 12.8487 2.15562 12.838C2.1407 12.8273 2.12832 12.8134 2.11938 12.7974C2.11044 12.7813 2.10515 12.7635 2.1039 12.7452C2.10264 12.7268 2.10544 12.7085 2.11211 12.6913C2.06074 12.6798 2.01445 12.6521 1.98011 12.6121C2.01611 12.5761 2.05931 12.5497 2.11211 12.5401C2.08091 12.4345 2.12411 12.3841 2.21531 12.3601C2.1989 12.3962 2.19469 12.4367 2.20331 12.4753C2.34731 12.4321 2.57051 12.4993 2.57051 12.7489C2.57051 12.9985 2.39771 13.2073 2.07371 13.1569C2.15051 13.1929 2.18891 13.2673 2.19851 13.3513C2.13851 13.3273 2.07371 13.3273 2.07371 13.3273C2.07994 13.3379 2.08655 13.3481 2.09325 13.3585C2.12779 13.4122 2.16452 13.4692 2.16251 13.5817C2.15044 13.576 2.13848 13.5693 2.12646 13.5626C2.07869 13.536 2.02992 13.5088 1.97051 13.5337C2.09051 13.7737 1.94171 14.1001 1.56251 14.1769C1.70171 14.0137 1.76891 13.8409 1.76891 13.6657C1.76891 13.3585 1.7226 13.1908 1.68044 13.0382C1.64523 12.9107 1.61291 12.7937 1.61291 12.6145C1.61538 12.5233 1.63952 12.4339 1.68333 12.3538C1.72561 12.2764 1.78503 12.2099 1.857 12.1592C1.81348 12.1492 1.77237 12.1306 1.7361 12.1044C1.69763 12.0767 1.66546 12.0412 1.64171 12.0001C1.66546 11.9591 1.69763 11.9233 1.7361 11.8956C1.77237 11.8694 1.81348 11.8508 1.857 11.8408C1.78503 11.7901 1.72561 11.7236 1.68333 11.6462C1.63952 11.5661 1.61538 11.4767 1.61291 11.3855C1.61291 11.2063 1.64523 11.0893 1.68044 10.9618C1.7226 10.8092 1.76891 10.6415 1.76891 10.3343C1.76891 10.1591 1.70171 9.98626 1.56251 9.82306C1.94171 9.89986 2.09051 10.2263 1.97051 10.4663C2.02992 10.4912 2.07862 10.464 2.12639 10.4374C2.13839 10.4308 2.15046 10.424 2.16251 10.4183C2.16452 10.5308 2.12779 10.5878 2.09325 10.6415C2.08655 10.6519 2.07994 10.6621 2.07371 10.6727C2.07371 10.6727 2.13851 10.6727 2.19851 10.6487C2.18891 10.7327 2.15051 10.8071 2.07371 10.8431C2.39771 10.7927 2.57051 11.0015 2.57051 11.2511C2.57051 11.5007 2.34731 11.5679 2.20331 11.5247C2.19469 11.5633 2.1989 11.6038 2.21531 11.6399C2.12411 11.6159 2.08091 11.5655 2.11211 11.4599C2.05931 11.4503 2.01611 11.4239 1.98011 11.3879C2.01445 11.3479 2.06074 11.3202 2.11211 11.3087C2.10544 11.2915 2.10264 11.2732 2.1039 11.2548C2.10515 11.2365 2.11044 11.2187 2.11938 11.2026C2.12832 11.1866 2.1407 11.1727 2.15562 11.162C2.17054 11.1513 2.18764 11.144 2.20571 11.1407C2.20571 11.1407 2.16491 11.3231 2.30171 11.3231C2.35691 11.3231 2.39291 11.2895 2.39291 11.2127C2.39291 11.0999 2.33051 11.0351 2.17211 11.0351C2.04251 11.0351 1.91531 11.1431 1.91531 11.3855C1.91531 11.5847 2.11691 11.7599 2.29931 11.7527C2.49851 11.7503 2.69051 11.5895 2.69051 11.3927C2.69737 11.2927 2.68094 11.1924 2.64251 11.0999L1.58171 8.89906C1.48811 8.70466 1.44971 8.57506 1.44971 8.37106C1.44971 8.04285 1.65246 7.78551 2.03302 7.73987C1.65246 7.69423 1.44971 7.43689 1.44971 7.10868C1.44971 6.90468 1.48811 6.77508 1.58171 6.58068L2.64251 4.37988C2.68094 4.28731 2.69737 4.18708 2.69051 4.08708C2.69051 3.89028 2.49851 3.72948 2.29931 3.72708C2.11691 3.71988 1.91531 3.89508 1.91531 4.09428C1.91531 4.33668 2.04251 4.44468 2.17211 4.44468C2.33051 4.44468 2.39291 4.37988 2.39291 4.26708C2.39291 4.19028 2.35691 4.15668 2.30171 4.15668C2.16491 4.15668 2.20571 4.33908 2.20571 4.33908C2.18764 4.33574 2.17054 4.32845 2.15562 4.31774C2.1407 4.30702 2.12832 4.29315 2.11938 4.2771C2.11044 4.26105 2.10515 4.24323 2.1039 4.2249C2.10264 4.20658 2.10544 4.1882 2.11211 4.17108C2.06074 4.15956 2.01445 4.13179 1.98011 4.09188C2.01611 4.05588 2.05931 4.02948 2.11211 4.01988C2.08091 3.91428 2.12411 3.86388 2.21531 3.83988C2.1989 3.87596 2.19469 3.9164 2.20331 3.95508C2.34731 3.91188 2.57051 3.97908 2.57051 4.22868C2.57051 4.47828 2.39771 4.68708 2.07371 4.63668C2.15051 4.67268 2.18891 4.74708 2.19851 4.83108C2.13851 4.80708 2.07371 4.80708 2.07371 4.80708C2.07994 4.8176 2.08655 4.82787 2.09325 4.83826C2.12779 4.89189 2.16452 4.9489 2.16251 5.06148C2.15042 5.05568 2.13844 5.049 2.12639 5.04229C2.07863 5.01569 2.02992 4.98856 1.97051 5.01348C2.09051 5.25348 1.94171 5.57988 1.56251 5.65668C1.70171 5.49348 1.76891 5.32068 1.76891 5.14548C1.76891 4.83819 1.7226 4.67054 1.68044 4.51792C1.64523 4.39043 1.61291 4.27343 1.61291 4.09428C1.61538 4.003 1.63952 3.91361 1.68333 3.83349C1.72561 3.75618 1.78503 3.68965 1.85699 3.63896C1.81348 3.62892 1.77237 3.6103 1.7361 3.58417C1.69847 3.55706 1.66687 3.52246 1.64327 3.48256L1.64182 3.48235L1.64256 3.48135L1.64171 3.47988L1.64417 3.4792C1.71966 3.37851 1.77032 3.34787 1.89622 3.34075C1.75222 3.26875 1.60822 3.10555 1.60822 2.85355C1.60822 2.66627 1.64543 2.53198 1.68379 2.39358C1.72456 2.24644 1.76662 2.09464 1.76662 1.86955C1.76662 1.63195 1.56982 1.31995 1.56982 1.31995C1.92022 1.35595 2.09302 1.67995 1.99462 1.93915C2.02163 1.94452 2.04955 1.94317 2.07592 1.93522C2.10228 1.92727 2.12629 1.91296 2.14582 1.89355C2.16982 1.96555 2.13142 2.04955 2.07622 2.12155C2.11244 2.14167 2.14191 2.1348 2.1901 2.12357C2.19938 2.1214 2.20937 2.11907 2.22022 2.11675C2.21542 2.18875 2.17222 2.27035 2.06182 2.34475C2.37862 2.26315 2.57062 2.48155 2.57062 2.71195C2.57062 2.88715 2.45062 3.01195 2.33062 3.01195C2.29222 3.01195 2.23462 2.99515 2.20342 2.97115C2.17942 3.01915 2.19382 3.08395 2.21542 3.13195C2.12902 3.10795 2.07142 3.05515 2.11222 2.94715C2.04502 2.94235 1.99222 2.91835 1.95622 2.87515C1.99222 2.82715 2.04742 2.80315 2.11222 2.80315C2.06422 2.70235 2.11942 2.64715 2.19862 2.60155C2.19862 2.60155 2.14822 2.80315 2.27542 2.80315C2.33302 2.80315 2.38582 2.78635 2.38582 2.69995C2.38582 2.62555 2.32102 2.52235 2.16982 2.52955C2.02102 2.53675 1.89862 2.63275 1.89862 2.87275C1.89862 3.09355 2.07862 3.20395 2.31382 3.20875C2.52502 3.21835 2.68582 3.10315 2.68582 2.88475C2.68582 2.73389 2.57433 2.48491 2.46623 2.24352C2.36453 2.0164 2.26582 1.796 2.26582 1.67035C2.26582 1.47595 2.43862 1.36555 2.61142 1.36555C2.71705 1.36555 2.81499 1.41608 2.88843 1.4688ZM2.88843 1.75077L2.88982 1.75195V1.74961C2.91623 1.7277 3.12256 1.56152 3.19663 1.65355C3.26601 1.74027 3.13809 2.01984 3.0108 2.29804C2.96731 2.3931 2.92388 2.48801 2.88843 2.57501C2.85297 2.48801 2.80955 2.39311 2.76605 2.29804C2.63876 2.01984 2.51085 1.74027 2.58022 1.65355C2.6543 1.56152 2.86063 1.7277 2.88703 1.74961V1.75195L2.88843 1.75077ZM3.51533 16.2601C3.2662 16.2259 2.99681 16.0704 2.88818 15.7977C2.77956 16.0704 2.51016 16.2259 2.26103 16.2601C2.51016 16.2943 2.77956 16.4498 2.88818 16.7226C2.99681 16.4498 3.2662 16.2943 3.51533 16.2601ZM2.88818 13.6331C2.88767 13.6328 2.88717 13.6325 2.88666 13.6321L2.88661 13.6341C2.79054 13.6965 2.64491 13.8957 2.64491 14.0761C2.64256 14.1265 2.65613 14.1763 2.6837 14.2186C2.71127 14.2608 2.75144 14.2932 2.79851 14.3113C2.49131 14.2801 2.35931 14.4025 2.29451 14.6257C2.46731 14.5657 2.73611 14.5633 2.72651 14.7577L2.70971 15.4057C2.64011 15.3049 2.52251 15.2809 2.37131 15.2809C2.16251 15.2809 2.18651 15.1393 2.22011 15.0193C2.11211 15.0577 1.99931 15.1273 2.04011 15.2929C1.94891 15.2953 1.88651 15.3433 1.83851 15.4057C1.88988 15.4669 1.96135 15.5077 2.04011 15.5209C2.02091 15.6265 2.09291 15.7273 2.22011 15.7849C2.17931 15.6745 2.16731 15.5017 2.37131 15.5017C2.45531 15.5017 2.51531 15.5689 2.51531 15.6769C2.51531 15.8473 2.33051 15.9841 2.15051 15.9841C2.00171 15.9841 1.73771 15.8833 1.73771 15.5953C1.73771 15.4801 1.76411 15.3745 1.81211 15.2737C2.03217 14.8049 2.73383 13.3109 2.88818 12.9921C3.04254 13.3109 3.74419 14.8049 3.96426 15.2737C4.01226 15.3745 4.03866 15.4801 4.03866 15.5953C4.03866 15.8833 3.77466 15.9841 3.62586 15.9841C3.44586 15.9841 3.26106 15.8473 3.26106 15.6769C3.26106 15.5689 3.32106 15.5017 3.40506 15.5017C3.60906 15.5017 3.59706 15.6745 3.55626 15.7849C3.68346 15.7273 3.75546 15.6265 3.73626 15.5209C3.81501 15.5077 3.88649 15.4669 3.93786 15.4057C3.88986 15.3433 3.82746 15.2953 3.73626 15.2929C3.77706 15.1273 3.66426 15.0577 3.55626 15.0193C3.58986 15.1393 3.61386 15.2809 3.40506 15.2809C3.25386 15.2809 3.13626 15.3049 3.06666 15.4057L3.04986 14.7577C3.04026 14.5633 3.30906 14.5657 3.48186 14.6257C3.41706 14.4025 3.28506 14.2801 2.97786 14.3113C3.02493 14.2932 3.06509 14.2608 3.09267 14.2186C3.12024 14.1763 3.13381 14.1265 3.13146 14.0761C3.13146 13.8957 2.98582 13.6965 2.88976 13.6341L2.88971 13.6321C2.8892 13.6325 2.88869 13.6328 2.88818 13.6331ZM2.88819 12.2928C2.93389 12.2166 2.99595 12.1515 3.0699 12.1022C3.14467 12.0523 3.22968 12.0199 3.31866 12.0073C3.32724 12.0048 3.33583 12.0024 3.34444 12C3.33583 11.9976 3.32724 11.9952 3.31866 11.9927C3.22968 11.9801 3.14467 11.9477 3.0699 11.8978C2.99595 11.8485 2.93389 11.7834 2.88819 11.7072C2.84248 11.7834 2.78042 11.8485 2.70647 11.8978C2.6317 11.9477 2.54669 11.9801 2.45771 11.9927L2.43193 12L2.45771 12.0073C2.54669 12.0199 2.6317 12.0523 2.70647 12.1022C2.78042 12.1515 2.84248 12.2166 2.88819 12.2928ZM2.88971 18.8881L2.88818 18.8872L2.88666 18.8881L2.88661 18.8861C2.79054 18.8238 2.64491 18.6246 2.64491 18.4441C2.64256 18.3937 2.65613 18.3439 2.6837 18.3017C2.71127 18.2595 2.75144 18.227 2.79851 18.2089C2.49131 18.2401 2.35931 18.1177 2.29451 17.8945C2.46731 17.9545 2.73611 17.9569 2.72651 17.7625L2.70971 17.1145C2.64011 17.2153 2.52251 17.2393 2.37131 17.2393C2.16251 17.2393 2.18651 17.3809 2.22011 17.5009C2.11211 17.4625 1.99931 17.3929 2.04011 17.2273C1.94891 17.2249 1.88651 17.1769 1.83851 17.1145C1.88988 17.0534 1.96135 17.0125 2.04011 16.9993C2.02091 16.8937 2.09291 16.7929 2.22011 16.7353C2.17931 16.8457 2.16731 17.0185 2.37131 17.0185C2.45531 17.0185 2.51531 16.9513 2.51531 16.8433C2.51531 16.6729 2.33051 16.5361 2.15051 16.5361C2.00171 16.5361 1.73771 16.6369 1.73771 16.9249C1.73771 17.0401 1.76411 17.1457 1.81211 17.2465C2.03217 17.7154 2.73383 19.2094 2.88818 19.5282C3.04254 19.2094 3.74419 17.7154 3.96426 17.2465C4.01226 17.1457 4.03866 17.0401 4.03866 16.9249C4.03866 16.6369 3.77466 16.5361 3.62586 16.5361C3.44586 16.5361 3.26106 16.6729 3.26106 16.8433C3.26106 16.9513 3.32106 17.0185 3.40506 17.0185C3.60906 17.0185 3.59706 16.8457 3.55626 16.7353C3.68346 16.7929 3.75546 16.8937 3.73626 16.9993C3.81501 17.0125 3.88649 17.0534 3.93786 17.1145C3.88986 17.1769 3.82746 17.2249 3.73626 17.2273C3.77706 17.3929 3.66426 17.4625 3.55626 17.5009C3.58986 17.3809 3.61386 17.2393 3.40506 17.2393C3.25386 17.2393 3.13626 17.2153 3.06666 17.1145L3.04986 17.7625C3.04026 17.9569 3.30906 17.9545 3.48186 17.8945C3.41706 18.1177 3.28506 18.2401 2.97786 18.2089C3.02493 18.227 3.06509 18.2595 3.09267 18.3017C3.12024 18.3439 3.13381 18.3937 3.13146 18.4441C3.13146 18.6246 2.98582 18.8238 2.88976 18.8861L2.88971 18.8881ZM2.70647 20.4181C2.78042 20.3688 2.84248 20.3037 2.88819 20.2275C2.93389 20.3037 2.99595 20.3688 3.0699 20.4181C3.14467 20.4679 3.22968 20.5003 3.31866 20.5129C3.33217 20.5169 3.34572 20.5207 3.35932 20.5243C3.15604 20.57 2.98394 20.6457 2.88843 20.8033C2.79287 20.6456 2.62067 20.5699 2.41728 20.5242C2.43079 20.5206 2.44427 20.5169 2.45771 20.5129C2.54669 20.5003 2.6317 20.4679 2.70647 20.4181ZM2.88843 22.2492L2.88703 22.2481V22.2504C2.86063 22.2723 2.6543 22.4385 2.58022 22.3465C2.51085 22.2597 2.63876 21.9802 2.76605 21.702C2.80955 21.6069 2.85298 21.512 2.88843 21.425C2.92388 21.512 2.9673 21.6069 3.0108 21.702C3.13809 21.9802 3.26601 22.2597 3.19663 22.3465C3.12256 22.4385 2.91623 22.2723 2.88982 22.2504V22.2481L2.88843 22.2492ZM2.88818 11.0079C3.04254 10.6891 3.74419 9.19509 3.96426 8.72626C4.01226 8.62546 4.03866 8.51986 4.03866 8.40466C4.03866 8.11666 3.77466 8.01586 3.62586 8.01586C3.44586 8.01586 3.26106 8.15266 3.26106 8.32306C3.26106 8.43106 3.32106 8.49826 3.40506 8.49826C3.60906 8.49826 3.59706 8.32546 3.55626 8.21506C3.68346 8.27266 3.75546 8.37346 3.73626 8.47906C3.81501 8.49228 3.88649 8.53312 3.93786 8.59426C3.88986 8.65666 3.82746 8.70466 3.73626 8.70706C3.77706 8.87266 3.66426 8.94226 3.55626 8.98066C3.58986 8.86066 3.61386 8.71906 3.40506 8.71906C3.25386 8.71906 3.13626 8.69506 3.06666 8.59426L3.04986 9.24226C3.04026 9.43666 3.30906 9.43426 3.48186 9.37426C3.41706 9.59746 3.28506 9.71986 2.97786 9.68866C3.02493 9.70675 3.06509 9.73922 3.09267 9.78144C3.12024 9.82366 3.13381 9.87349 3.13146 9.92386C3.13146 10.1043 2.98582 10.3035 2.88976 10.3659L2.88971 10.3679L2.88818 10.3669L2.88666 10.3679L2.88661 10.3659C2.79054 10.3035 2.64491 10.1043 2.64491 9.92386C2.64256 9.87349 2.65613 9.82366 2.6837 9.78144C2.71127 9.73922 2.75144 9.70675 2.79851 9.68866C2.49131 9.71986 2.35931 9.59746 2.29451 9.37426C2.46731 9.43426 2.73611 9.43666 2.72651 9.24226L2.70971 8.59426C2.64011 8.69506 2.52251 8.71906 2.37131 8.71906C2.16251 8.71906 2.18651 8.86066 2.22011 8.98066C2.11211 8.94226 1.99931 8.87266 2.04011 8.70706C1.94891 8.70466 1.88651 8.65666 1.83851 8.59426C1.88988 8.53312 1.96135 8.49228 2.04011 8.47906C2.02091 8.37346 2.09291 8.27266 2.22011 8.21506C2.17931 8.32546 2.16731 8.49826 2.37131 8.49826C2.45531 8.49826 2.51531 8.43106 2.51531 8.32306C2.51531 8.15266 2.33051 8.01586 2.15051 8.01586C2.00171 8.01586 1.73771 8.11666 1.73771 8.40466C1.73771 8.51986 1.76411 8.62546 1.81211 8.72626C2.03217 9.19509 2.73383 10.6891 2.88818 11.0079ZM2.88818 8.20233C2.99681 7.92957 3.26621 7.77405 3.51533 7.73987C3.26621 7.70568 2.99681 7.55017 2.88818 7.27741C2.77956 7.55017 2.51016 7.70569 2.26103 7.73987C2.51016 7.77405 2.77956 7.92957 2.88818 8.20233ZM2.88843 3.19667C2.98394 3.3543 3.15603 3.43003 3.35931 3.47573C3.34572 3.47931 3.33217 3.4831 3.31866 3.48708C3.22968 3.49967 3.14467 3.53208 3.0699 3.58193C2.99595 3.63123 2.93389 3.69633 2.88818 3.77253C2.84248 3.69633 2.78042 3.63123 2.70647 3.58193C2.6317 3.53208 2.54669 3.49967 2.45771 3.48708C2.44427 3.48312 2.4308 3.47936 2.41728 3.47578C2.62067 3.43009 2.79287 3.35437 2.88843 3.19667ZM1.81211 6.75348C2.03217 6.28464 2.73383 4.79064 2.88818 4.47183C3.04254 4.79064 3.74419 6.28464 3.96426 6.75348C4.01226 6.85428 4.03866 6.95988 4.03866 7.07508C4.03866 7.36308 3.77466 7.46388 3.62586 7.46388C3.44586 7.46388 3.26106 7.32708 3.26106 7.15668C3.26106 7.04868 3.32106 6.98148 3.40506 6.98148C3.60906 6.98148 3.59706 7.15428 3.55626 7.26468C3.68346 7.20708 3.75546 7.10628 3.73626 7.00068C3.81501 6.98746 3.88649 6.94662 3.93786 6.88548C3.88986 6.82308 3.82746 6.77508 3.73626 6.77268C3.77706 6.60708 3.66426 6.53748 3.55626 6.49908C3.58986 6.61908 3.61386 6.76068 3.40506 6.76068C3.25386 6.76068 3.13626 6.78468 3.06666 6.88548L3.04986 6.23748C3.04026 6.04308 3.30906 6.04548 3.48186 6.10548C3.41706 5.88228 3.28506 5.75988 2.97786 5.79108C3.02493 5.77298 3.06509 5.74052 3.09267 5.6983C3.12024 5.65608 3.13381 5.60625 3.13146 5.55588C3.13146 5.37543 2.98582 5.17619 2.88976 5.11385L2.88971 5.11188L2.88818 5.11284L2.88666 5.11188L2.88661 5.11385C2.79054 5.17619 2.64491 5.37543 2.64491 5.55588C2.64256 5.60625 2.65613 5.65608 2.6837 5.6983C2.71127 5.74052 2.75144 5.77298 2.79851 5.79108C2.49131 5.75988 2.35931 5.88228 2.29451 6.10548C2.46731 6.04548 2.73611 6.04308 2.72651 6.23748L2.70971 6.88548C2.64011 6.78468 2.52251 6.76068 2.37131 6.76068C2.16251 6.76068 2.18651 6.61908 2.22011 6.49908C2.11211 6.53748 1.99931 6.60708 2.04011 6.77268C1.94891 6.77508 1.88651 6.82308 1.83851 6.88548C1.88988 6.94662 1.96135 6.98746 2.04011 7.00068C2.02091 7.10628 2.09291 7.20708 2.22011 7.26468C2.17931 7.15428 2.16731 6.98148 2.37131 6.98148C2.45531 6.98148 2.51531 7.04868 2.51531 7.15668C2.51531 7.32708 2.33051 7.46388 2.15051 7.46388C2.00171 7.46388 1.73771 7.36308 1.73771 7.07508C1.73771 6.95988 1.76411 6.85428 1.81211 6.75348Z" fill="#FFEC2D"/>
</svg>
