<svg width="36" height="24" viewBox="0 0 36 24" fill="none" xmlns="http://www.w3.org/2000/svg">
<g clip-path="url(#clip0_11930_68118)">
<path fill-rule="evenodd" clip-rule="evenodd" d="M0.00170898 18H36.0017V24H0.00170898V18ZM0.00170898 0H36.0017V6H0.00170898V0Z" fill="#EE161F"/>
<path fill-rule="evenodd" clip-rule="evenodd" d="M0.00170898 6H36.0017V18H0.00170898V6Z" fill="white"/>
<path d="M17.8188 6.0938C17.4531 6.82036 17.2094 6.82036 16.6 7.31255C16.3563 7.55161 15.9906 7.67349 16.4781 7.92192C15.986 8.16099 15.7422 8.28286 15.4985 8.77036L15.6203 8.89224C15.6203 8.89224 16.0891 8.66724 16.1078 8.77036C16.1922 8.8688 15.4985 9.23911 15.4094 9.30005L14.8938 9.62817C14.2797 10.111 13.9094 9.98911 13.5485 10.7204L14.7672 10.5985C15.011 11.4516 14.1578 11.5735 13.5485 11.9391L12.5688 12.5485C12.8172 13.4016 13.5485 12.9141 14.1578 12.6704L14.2797 12.7922V13.036L13.061 13.6454C13.061 13.6454 11.6172 14.4704 11.5938 14.4985C11.5844 14.5454 11.5938 14.7422 11.5938 14.7422C12.0813 14.8641 12.8125 14.986 13.3047 14.7422C13.9141 14.4985 14.036 14.2547 14.7672 14.2547C14.0634 14.8039 13.2181 15.142 12.3297 15.2297V15.7172C13.061 15.7172 13.5485 15.7172 14.1578 15.5954L15.7422 15.1079C16.1078 15.1079 16.4781 15.4735 16.3516 15.8391C15.9906 17.1797 14.5235 16.936 14.036 18.0329L15.986 17.2969C16.4735 17.0532 16.961 16.8141 17.5703 16.936C18.3016 17.1797 18.3016 17.6672 19.2766 17.911L19.0328 17.3016C19.2766 17.4235 19.5203 17.4235 19.7688 17.5454C20.3781 17.7891 20.5 18.0329 21.2313 17.911C20.6219 17.1797 20.5 17.3016 20.0125 16.8141C19.525 16.0829 19.2766 14.986 20.0125 14.8641L20.8656 15.1079C21.7188 15.2297 21.7188 14.986 22.9375 15.4735C23.6735 15.7172 23.9172 16.0829 24.7656 15.8391C24.4047 14.986 23.0641 14.3766 22.2063 14.1329C23.186 13.5235 22.9375 14.3766 24.2828 14.011V13.7672C23.3125 13.0313 22.9422 12.4219 21.6016 12.4219L23.6781 12.1782V11.9344C23.6781 11.9344 21.6297 11.4 21.5828 11.3766C21.5969 11.3157 21.6485 11.2219 21.7844 11.1657C22.1735 11.4188 23.3453 11.3907 23.4156 11.386C23.3781 11.086 22.8203 10.8375 22.3375 10.5938C22.3375 10.5938 20.2422 9.30474 20.2328 9.19224C20.275 8.86411 21.0906 9.2438 21.9672 9.49692C21.7235 9.00942 21.236 8.76567 20.7485 8.6438L21.4797 8.52192C20.9922 7.42505 19.7735 7.54692 19.0422 7.05942C18.55 6.6938 18.55 6.45005 17.8188 6.08911V6.0938Z" fill="#00A850"/>
<path fill-rule="evenodd" clip-rule="evenodd" d="M16.5018 14.2031C16.5909 13.9171 16.7081 13.6593 16.1643 13.4109C15.6206 13.1624 16.4362 14.3999 16.5018 14.2078V14.2031ZM17.144 13.6265C17.0362 13.6406 16.9752 14.039 17.1956 14.1515C17.4393 14.189 17.2424 13.6312 17.144 13.6265ZM17.7768 13.5796C17.6643 13.6171 17.6596 14.1796 18.0581 14.0765C18.4612 13.9781 18.0581 13.5374 17.7768 13.5843V13.5796ZM18.5174 12.1406C18.6018 11.9999 18.5127 11.4374 18.1706 11.6718C17.8237 11.9109 18.4049 12.1781 18.5174 12.1406ZM17.7674 11.6718C17.8752 11.6296 17.8846 11.2828 17.5799 11.3765C17.2846 11.4656 17.6877 11.7421 17.7674 11.6718ZM17.0924 11.8077C17.0924 11.8077 16.8815 11.5171 16.7174 11.5781C16.5159 11.7749 17.1065 11.8124 17.0924 11.8077ZM14.7674 12.7359C14.8565 12.7453 15.5174 12.6281 15.7471 12.3702C15.9768 12.1124 14.5706 12.4781 14.5706 12.4827C14.5706 12.4874 14.7018 12.7124 14.7674 12.7359ZM21.3815 11.0953C21.4143 11.0343 21.0299 10.7624 20.8002 10.8702C20.7393 11.0718 21.3815 11.1374 21.3815 11.0953ZM20.0784 10.439C20.1534 10.3359 19.9143 9.90931 19.4362 10.1484C18.9581 10.3828 19.9377 10.6078 20.0784 10.4437V10.439ZM18.5737 10.1906C18.5737 10.1906 18.6909 9.80619 18.9768 9.88119C19.3049 10.1296 18.5877 10.2046 18.5737 10.1906ZM18.2924 9.89994C18.2456 9.79213 17.9502 9.85306 17.6081 10.0828C17.2612 10.3031 18.3956 10.1484 18.2924 9.89525V9.89994ZM19.169 8.864C19.169 8.864 19.4737 8.72338 19.5674 8.864C19.694 9.06556 19.1643 8.864 19.169 8.864ZM18.9112 8.72806C18.8502 8.60619 18.5127 8.59213 18.5221 8.77494C18.4659 8.91556 18.9627 8.88744 18.9112 8.72806ZM18.1049 8.72806C18.0721 8.65775 17.5893 8.72806 17.4487 9.01869C17.6831 9.13119 18.2127 8.91088 18.1049 8.72806ZM17.0737 9.02338C17.0737 9.02338 16.4456 9.41244 16.4034 9.69369C16.4221 9.93744 17.1909 9.25306 17.1909 9.25306C17.1909 9.25306 17.2565 8.98119 17.0784 9.02338H17.0737ZM16.3752 8.67181C16.394 8.59213 16.6893 8.40931 16.7127 8.42338C16.7362 8.50306 16.4737 8.71869 16.3752 8.67181ZM16.5768 10.1531C16.5909 10.0359 15.8268 10.0453 16.1127 10.3968C16.3565 10.6921 16.6284 10.2046 16.5768 10.1531ZM15.8737 10.6546C15.8362 10.5796 15.7799 10.3734 15.6768 10.3546C15.5877 10.3546 15.1284 10.4484 15.0909 10.5234C15.0721 10.5843 15.2831 10.964 15.3534 10.9734C15.4377 11.0062 15.8643 10.6921 15.8784 10.6546H15.8737ZM20.0174 13.2421C20.0409 13.1578 20.8284 12.8906 21.0956 13.1484C21.4143 13.5843 19.9987 13.3828 20.0174 13.2421ZM22.1737 13.7531C22.3471 13.4624 21.644 13.1156 21.3487 13.4484C21.4518 13.8468 22.0331 13.9921 22.1737 13.7531Z" fill="white" stroke="white" stroke-width="0.15" stroke-linecap="round" stroke-linejoin="round"/>
</g>
<defs>
<clipPath id="clip0_11930_68118">
<rect width="36" height="24" rx="2" fill="white"/>
</clipPath>
</defs>
</svg>
