<svg width="36" height="24" viewBox="0 0 36 24" fill="none" xmlns="http://www.w3.org/2000/svg">
<g clip-path="url(#clip0_11930_68112)">
<path d="M0 0H36V12H0V0Z" fill="#002B7F"/>
<path d="M0 12H36V24H0V12Z" fill="#CE1126"/>
<path d="M8.65339 4.89205L8.57739 7.39205H6.04139C5.72939 6.78405 5.47339 6.27205 5.47339 5.57205C5.47339 4.98805 5.93339 4.52405 6.59339 4.52405C7.29339 4.52405 8.06539 4.76005 8.65339 4.89205Z" fill="#FFD83D"/>
<path d="M5.78052 5.00811V6.44811V5.00811ZM5.98052 4.86011V6.78011V4.86011ZM6.18852 4.76011V7.04811V4.76011ZM6.38852 4.71211V6.50811V4.71211ZM6.59252 4.70411V6.51611V4.70411ZM6.79652 4.63611V6.51611V4.63611ZM7.00052 4.63611V6.51611V4.63611ZM7.20452 4.65611V6.53611V4.65611ZM7.40852 4.67611V6.55211V4.67611ZM7.61252 4.79211V6.67211V4.79211ZM7.81252 4.81211V6.92811V4.81211ZM8.02052 4.81211V6.69211V4.81211ZM8.22052 4.81211V6.69211V4.81211Z" fill="#FFD83D"/>
<path d="M5.78052 5.00811V6.44811M5.98052 4.86011V6.78011M6.18852 4.76011V7.04811M6.38852 4.71211V6.50811M6.59252 4.70411V6.51611M6.79652 4.63611V6.51611M7.00052 4.63611V6.51611M7.20452 4.65611V6.53611M7.40852 4.67611V6.55211M7.61252 4.79211V6.67211M7.81252 4.81211V6.92811M8.02052 4.81211V6.69211M8.22052 4.81211V6.69211" stroke="black" stroke-width="0.06" stroke-linecap="round" stroke-linejoin="round"/>
<path d="M7.05655 4.72009C7.48855 4.78809 8.43255 5.23209 8.32455 5.82809C8.17255 6.67609 7.67655 6.33609 7.02055 6.21609L6.52455 6.38009C6.34455 6.56009 6.08455 6.72809 5.90855 6.50809H5.61255V7.66009H8.86855V4.88009L7.05655 4.72009Z" fill="#000001" stroke="black" stroke-width="0.06" stroke-linecap="round" stroke-linejoin="round"/>
<path d="M8.50923 4.7161C8.61748 4.7161 8.70523 4.62834 8.70523 4.5201C8.70523 4.41185 8.61748 4.3241 8.50923 4.3241C8.40098 4.3241 8.31323 4.41185 8.31323 4.5201C8.31323 4.62834 8.40098 4.7161 8.50923 4.7161Z" fill="#FFD83D" stroke="black" stroke-width="0.08" stroke-linecap="round" stroke-linejoin="round"/>
<path d="M8.06538 4.60794C8.17363 4.60794 8.26138 4.52019 8.26138 4.41194C8.26138 4.30369 8.17363 4.21594 8.06538 4.21594C7.95714 4.21594 7.86938 4.30369 7.86938 4.41194C7.86938 4.52019 7.95714 4.60794 8.06538 4.60794Z" fill="#FFD83D" stroke="black" stroke-width="0.08" stroke-linecap="round" stroke-linejoin="round"/>
<path d="M7.61324 4.49613C7.72148 4.49613 7.80924 4.40837 7.80924 4.30013C7.80924 4.19188 7.72148 4.10413 7.61324 4.10413C7.50499 4.10413 7.41724 4.19188 7.41724 4.30013C7.41724 4.40837 7.50499 4.49613 7.61324 4.49613Z" fill="#FFD83D" stroke="black" stroke-width="0.08" stroke-linecap="round" stroke-linejoin="round"/>
<path d="M7.16158 4.41995C7.26982 4.41995 7.35758 4.3322 7.35758 4.22395C7.35758 4.11571 7.26982 4.02795 7.16158 4.02795C7.05333 4.02795 6.96558 4.11571 6.96558 4.22395C6.96558 4.3322 7.05333 4.41995 7.16158 4.41995Z" fill="#FFD83D" stroke="black" stroke-width="0.08" stroke-linecap="round" stroke-linejoin="round"/>
<path d="M6.70943 4.37601C6.81768 4.37601 6.90543 4.28826 6.90543 4.18001C6.90543 4.07176 6.81768 3.98401 6.70943 3.98401C6.60118 3.98401 6.51343 4.07176 6.51343 4.18001C6.51343 4.28826 6.60118 4.37601 6.70943 4.37601Z" fill="#FFD83D" stroke="black" stroke-width="0.08" stroke-linecap="round" stroke-linejoin="round"/>
<path d="M6.269 4.39993C6.37725 4.39993 6.465 4.31218 6.465 4.20393C6.465 4.09569 6.37725 4.00793 6.269 4.00793C6.16075 4.00793 6.073 4.09569 6.073 4.20393C6.073 4.31218 6.16075 4.39993 6.269 4.39993Z" fill="#FFD83D" stroke="black" stroke-width="0.08" stroke-linecap="round" stroke-linejoin="round"/>
<path d="M5.84517 4.54398C5.95342 4.54398 6.04117 4.45623 6.04117 4.34798C6.04117 4.23973 5.95342 4.15198 5.84517 4.15198C5.73692 4.15198 5.64917 4.23973 5.64917 4.34798C5.64917 4.45623 5.73692 4.54398 5.84517 4.54398Z" fill="#FFD83D" stroke="black" stroke-width="0.08" stroke-linecap="round" stroke-linejoin="round"/>
<path d="M5.4897 4.80789C5.59795 4.80789 5.6857 4.72014 5.6857 4.61189C5.6857 4.50365 5.59795 4.41589 5.4897 4.41589C5.38145 4.41589 5.2937 4.50365 5.2937 4.61189C5.2937 4.72014 5.38145 4.80789 5.4897 4.80789Z" fill="#FFD83D" stroke="black" stroke-width="0.08" stroke-linecap="round" stroke-linejoin="round"/>
<path d="M5.23726 5.17191C5.34551 5.17191 5.43326 5.08416 5.43326 4.97591C5.43326 4.86766 5.34551 4.77991 5.23726 4.77991C5.12901 4.77991 5.04126 4.86766 5.04126 4.97591C5.04126 5.08416 5.12901 5.17191 5.23726 5.17191Z" fill="#FFD83D" stroke="black" stroke-width="0.08" stroke-linecap="round" stroke-linejoin="round"/>
<path d="M5.11324 5.60404C5.22148 5.60404 5.30924 5.51628 5.30924 5.40804C5.30924 5.29979 5.22148 5.21204 5.11324 5.21204C5.00499 5.21204 4.91724 5.29979 4.91724 5.40804C4.91724 5.51628 5.00499 5.60404 5.11324 5.60404Z" fill="#FFD83D" stroke="black" stroke-width="0.08" stroke-linecap="round" stroke-linejoin="round"/>
<path d="M5.11714 6.04788C5.22539 6.04788 5.31314 5.96013 5.31314 5.85188C5.31314 5.74364 5.22539 5.65588 5.11714 5.65588C5.00889 5.65588 4.92114 5.74364 4.92114 5.85188C4.92114 5.96013 5.00889 6.04788 5.11714 6.04788Z" fill="#FFD83D" stroke="black" stroke-width="0.08" stroke-linecap="round" stroke-linejoin="round"/>
<path d="M5.20552 6.48392C5.31377 6.48392 5.40152 6.39617 5.40152 6.28792C5.40152 6.17967 5.31377 6.09192 5.20552 6.09192C5.09727 6.09192 5.00952 6.17967 5.00952 6.28792C5.00952 6.39617 5.09727 6.48392 5.20552 6.48392Z" fill="#FFD83D" stroke="black" stroke-width="0.08" stroke-linecap="round" stroke-linejoin="round"/>
<path d="M8.59706 4.77999L8.57706 5.03999C8.08506 4.95999 7.38906 4.68799 6.73706 4.68799C6.13706 4.68799 5.67306 4.92799 5.67306 5.53599C5.67306 6.13199 5.92506 6.67599 6.26106 7.22799L5.91306 7.38799C5.60106 6.78799 5.34106 6.26799 5.34106 5.57199C5.34106 4.98799 5.80106 4.41199 6.59306 4.41199C7.29306 4.41199 8.00906 4.65199 8.59706 4.77999Z" fill="#FFD83D" stroke="black" stroke-width="0.08" stroke-linecap="round" stroke-linejoin="round"/>
<path d="M9.10052 4.89205L9.17652 7.39205H11.7125C12.0245 6.78405 12.2805 6.27205 12.2805 5.57205C12.2805 4.98805 11.8205 4.52405 11.1605 4.52405C10.4605 4.52405 9.68852 4.76005 9.10052 4.89205Z" fill="#FFD83D"/>
<path d="M11.9753 5.00811V6.44811V5.00811ZM11.7753 4.86011V6.78011V4.86011ZM11.5673 4.76011V7.04811V4.76011ZM11.3673 4.71211V6.50811V4.71211ZM11.1633 4.70411V6.51611V4.70411ZM10.9593 4.63611V6.51611V4.63611ZM10.7553 4.63611V6.51611V4.63611ZM10.5513 4.65611V6.53611V4.65611ZM10.3473 4.67611V6.55211V4.67611ZM10.1433 4.79211V6.67211V4.79211ZM9.94334 4.81211V6.92811V4.81211ZM9.73534 4.81211V6.69211V4.81211ZM9.53534 4.81211V6.69211V4.81211Z" fill="#FFD83D"/>
<path d="M11.9753 5.00811V6.44811M11.7753 4.86011V6.78011M11.5673 4.76011V7.04811M11.3673 4.71211V6.50811M11.1633 4.70411V6.51611M10.9593 4.63611V6.51611M10.7553 4.63611V6.51611M10.5513 4.65611V6.53611M10.3473 4.67611V6.55211M10.1433 4.79211V6.67211M9.94334 4.81211V6.92811M9.73534 4.81211V6.69211M9.53534 4.81211V6.69211" stroke="black" stroke-width="0.06" stroke-linecap="round" stroke-linejoin="round"/>
<path d="M10.6993 4.72009C10.2673 4.78809 9.32331 5.23209 9.43131 5.82809C9.58331 6.67609 10.0793 6.33609 10.7353 6.21609L11.2313 6.38009C11.4113 6.56009 11.6713 6.72809 11.8473 6.50809H12.1433V7.66009H8.88731V4.88009L10.6993 4.72009Z" fill="#000001" stroke="black" stroke-width="0.06" stroke-linecap="round" stroke-linejoin="round"/>
<path d="M9.24419 4.7161C9.13594 4.7161 9.04819 4.62834 9.04819 4.5201C9.04819 4.41185 9.13594 4.3241 9.24419 4.3241C9.35243 4.3241 9.44019 4.41185 9.44019 4.5201C9.44019 4.62834 9.35243 4.7161 9.24419 4.7161Z" fill="#FFD83D" stroke="black" stroke-width="0.08" stroke-linecap="round" stroke-linejoin="round"/>
<path d="M9.68803 4.60794C9.57979 4.60794 9.49203 4.52019 9.49203 4.41194C9.49203 4.30369 9.57979 4.21594 9.68803 4.21594C9.79628 4.21594 9.88403 4.30369 9.88403 4.41194C9.88403 4.52019 9.79628 4.60794 9.68803 4.60794Z" fill="#FFD83D" stroke="black" stroke-width="0.08" stroke-linecap="round" stroke-linejoin="round"/>
<path d="M10.1402 4.49613C10.0319 4.49613 9.94418 4.40837 9.94418 4.30013C9.94418 4.19188 10.0319 4.10413 10.1402 4.10413C10.2484 4.10413 10.3362 4.19188 10.3362 4.30013C10.3362 4.40837 10.2484 4.49613 10.1402 4.49613Z" fill="#FFD83D" stroke="black" stroke-width="0.08" stroke-linecap="round" stroke-linejoin="round"/>
<path d="M10.5923 4.41995C10.4841 4.41995 10.3963 4.3322 10.3963 4.22395C10.3963 4.11571 10.4841 4.02795 10.5923 4.02795C10.7006 4.02795 10.7883 4.11571 10.7883 4.22395C10.7883 4.3322 10.7006 4.41995 10.5923 4.41995Z" fill="#FFD83D" stroke="black" stroke-width="0.08" stroke-linecap="round" stroke-linejoin="round"/>
<path d="M11.044 4.37601C10.9357 4.37601 10.848 4.28826 10.848 4.18001C10.848 4.07176 10.9357 3.98401 11.044 3.98401C11.1522 3.98401 11.24 4.07176 11.24 4.18001C11.24 4.28826 11.1522 4.37601 11.044 4.37601Z" fill="#FFD83D" stroke="black" stroke-width="0.08" stroke-linecap="round" stroke-linejoin="round"/>
<path d="M11.4844 4.39993C11.3762 4.39993 11.2884 4.31218 11.2884 4.20393C11.2884 4.09569 11.3762 4.00793 11.4844 4.00793C11.5927 4.00793 11.6804 4.09569 11.6804 4.20393C11.6804 4.31218 11.5927 4.39993 11.4844 4.39993Z" fill="#FFD83D" stroke="black" stroke-width="0.08" stroke-linecap="round" stroke-linejoin="round"/>
<path d="M11.9082 4.54398C11.8 4.54398 11.7122 4.45623 11.7122 4.34798C11.7122 4.23973 11.8 4.15198 11.9082 4.15198C12.0165 4.15198 12.1042 4.23973 12.1042 4.34798C12.1042 4.45623 12.0165 4.54398 11.9082 4.54398Z" fill="#FFD83D" stroke="black" stroke-width="0.08" stroke-linecap="round" stroke-linejoin="round"/>
<path d="M12.2642 4.80789C12.156 4.80789 12.0682 4.72014 12.0682 4.61189C12.0682 4.50365 12.156 4.41589 12.2642 4.41589C12.3725 4.41589 12.4602 4.50365 12.4602 4.61189C12.4602 4.72014 12.3725 4.80789 12.2642 4.80789Z" fill="#FFD83D" stroke="black" stroke-width="0.08" stroke-linecap="round" stroke-linejoin="round"/>
<path d="M12.5162 5.17191C12.4079 5.17191 12.3202 5.08416 12.3202 4.97591C12.3202 4.86766 12.4079 4.77991 12.5162 4.77991C12.6244 4.77991 12.7122 4.86766 12.7122 4.97591C12.7122 5.08416 12.6244 5.17191 12.5162 5.17191Z" fill="#FFD83D" stroke="black" stroke-width="0.08" stroke-linecap="round" stroke-linejoin="round"/>
<path d="M12.6402 5.60404C12.5319 5.60404 12.4442 5.51628 12.4442 5.40804C12.4442 5.29979 12.5319 5.21204 12.6402 5.21204C12.7484 5.21204 12.8362 5.29979 12.8362 5.40804C12.8362 5.51628 12.7484 5.60404 12.6402 5.60404Z" fill="#FFD83D" stroke="black" stroke-width="0.08" stroke-linecap="round" stroke-linejoin="round"/>
<path d="M12.6363 6.04788C12.528 6.04788 12.4403 5.96013 12.4403 5.85188C12.4403 5.74364 12.528 5.65588 12.6363 5.65588C12.7445 5.65588 12.8323 5.74364 12.8323 5.85188C12.8323 5.96013 12.7445 6.04788 12.6363 6.04788Z" fill="#FFD83D" stroke="black" stroke-width="0.08" stroke-linecap="round" stroke-linejoin="round"/>
<path d="M12.5479 6.48392C12.4396 6.48392 12.3519 6.39617 12.3519 6.28792C12.3519 6.17967 12.4396 6.09192 12.5479 6.09192C12.6561 6.09192 12.7439 6.17967 12.7439 6.28792C12.7439 6.39617 12.6561 6.48392 12.5479 6.48392Z" fill="#FFD83D" stroke="black" stroke-width="0.08" stroke-linecap="round" stroke-linejoin="round"/>
<path d="M9.15635 4.77999L9.17635 5.03999C9.66835 4.95999 10.3644 4.68799 11.0164 4.68799C11.6164 4.68799 12.0804 4.92799 12.0804 5.53599C12.0804 6.13199 11.8284 6.67599 11.4924 7.22799L11.8404 7.38799C12.1524 6.78799 12.4124 6.26799 12.4124 5.57199C12.4124 4.98799 11.9524 4.41199 11.1604 4.41199C10.4604 4.41199 9.74435 4.65199 9.15635 4.77999Z" fill="#FFD83D" stroke="black" stroke-width="0.08" stroke-linecap="round" stroke-linejoin="round"/>
<path d="M8.87931 2.124L8.67131 2.512L8.87931 2.896L9.08331 2.512L8.87931 2.12V2.124ZM8.87931 3.1L8.67131 3.484L8.87931 3.872L9.07931 3.48L8.87931 3.1ZM8.14331 3L8.46731 3.20399L8.79131 3L8.47131 2.792L8.14331 3ZM8.96331 3L9.28731 3.20399L9.61531 3L9.28731 2.792L8.96331 3Z" fill="#FFD83D" stroke="black" stroke-width="0.08" stroke-linecap="round" stroke-linejoin="round"/>
<path d="M8.87939 3.16002C8.96554 3.16002 9.03539 3.09018 9.03539 3.00402C9.03539 2.91787 8.96554 2.84802 8.87939 2.84802C8.79323 2.84802 8.72339 2.91787 8.72339 3.00402C8.72339 3.09018 8.79323 3.16002 8.87939 3.16002Z" fill="#FFD83D" stroke="black" stroke-width="0.08" stroke-linecap="round" stroke-linejoin="round"/>
<path d="M8.87972 4.41996C9.11168 4.41996 9.29972 4.23192 9.29972 3.99996C9.29972 3.768 9.11168 3.57996 8.87972 3.57996C8.64776 3.57996 8.45972 3.768 8.45972 3.99996C8.45972 4.23192 8.64776 4.41996 8.87972 4.41996Z" fill="#FFD83D" stroke="black" stroke-width="0.08" stroke-linecap="round" stroke-linejoin="round"/>
<path d="M8.77144 3.59607V3.86007C8.67222 3.86485 8.57338 3.87553 8.47544 3.89207M9.28344 3.89207C9.18418 3.87533 9.08399 3.86465 8.98344 3.86007V3.59607M8.47144 4.10407C8.6062 4.08073 8.74267 4.06869 8.87944 4.06807C9.01544 4.06807 9.15144 4.08007 9.27944 4.10407" stroke="black" stroke-width="0.06" stroke-linecap="round" stroke-linejoin="round"/>
<path d="M8.47125 4.70789C8.43125 5.38789 8.35125 6.08789 8.08325 6.59189L8.51525 6.41589C8.66725 5.84389 8.69925 5.10389 8.74325 4.75189L8.47125 4.70789ZM9.28725 4.70789L9.01125 4.75189C9.05925 5.10389 9.09125 5.84389 9.23925 6.41589L9.67125 6.59189C9.40725 6.08789 9.32725 5.39189 9.28725 4.70789Z" fill="#FFD83D" stroke="black" stroke-width="0.08" stroke-linecap="round" stroke-linejoin="round"/>
<path d="M8.87965 6.18811C8.35965 6.18811 7.97965 6.42811 7.95965 7.05211C7.83165 6.82811 7.29965 6.13211 6.79965 6.22411C6.50365 6.28011 6.23965 6.69211 6.28765 7.16011C6.03965 6.45611 5.32365 6.34011 4.79565 6.76011C5.26365 7.14011 5.47165 8.27211 5.86365 8.76011H11.8917C12.2837 8.27211 12.4917 7.14011 12.9597 6.76011C12.4357 6.34011 11.7157 6.45611 11.4717 7.16011C11.5117 6.69211 11.2517 6.28011 10.9517 6.22411C10.4557 6.13211 9.92365 6.82811 9.79565 7.05211C9.77565 6.43211 9.39565 6.18811 8.87565 6.18811H8.87965Z" fill="#FFD83D" stroke="black" stroke-width="0.08" stroke-linecap="round" stroke-linejoin="round"/>
<path d="M11.8833 8.7598C11.8833 8.9838 10.5393 9.2278 8.87934 9.2278C7.21934 9.2278 5.87134 8.9878 5.87134 8.7598C5.87134 8.5398 7.21934 8.4198 8.87934 8.4198C10.5353 8.4198 11.8833 8.5398 11.8833 8.7598Z" fill="#000001" stroke="black" stroke-width="0.06" stroke-linecap="round" stroke-linejoin="round"/>
<path d="M8.87901 4.71591C8.95633 4.71591 9.01901 4.65323 9.01901 4.57591C9.01901 4.49859 8.95633 4.43591 8.87901 4.43591C8.80169 4.43591 8.73901 4.49859 8.73901 4.57591C8.73901 4.65323 8.80169 4.71591 8.87901 4.71591Z" fill="#FFD83D" stroke="black" stroke-width="0.06" stroke-linecap="round" stroke-linejoin="round"/>
<path d="M8.87871 5.02781C8.96045 5.02781 9.02671 4.96155 9.02671 4.87981C9.02671 4.79807 8.96045 4.73181 8.87871 4.73181C8.79697 4.73181 8.73071 4.79807 8.73071 4.87981C8.73071 4.96155 8.79697 5.02781 8.87871 5.02781Z" fill="#FFD83D" stroke="black" stroke-width="0.06" stroke-linecap="round" stroke-linejoin="round"/>
<path d="M8.87909 5.37182C8.96966 5.37182 9.04309 5.2984 9.04309 5.20782C9.04309 5.11725 8.96966 5.04382 8.87909 5.04382C8.78851 5.04382 8.71509 5.11725 8.71509 5.20782C8.71509 5.2984 8.78851 5.37182 8.87909 5.37182Z" fill="#FFD83D" stroke="black" stroke-width="0.06" stroke-linecap="round" stroke-linejoin="round"/>
<path d="M8.87916 5.75991C8.98299 5.75991 9.06716 5.67574 9.06716 5.57191C9.06716 5.46808 8.98299 5.38391 8.87916 5.38391C8.77533 5.38391 8.69116 5.46808 8.69116 5.57191C8.69116 5.67574 8.77533 5.75991 8.87916 5.75991Z" fill="#FFD83D" stroke="black" stroke-width="0.06" stroke-linecap="round" stroke-linejoin="round"/>
<path d="M8.87905 6.17985C8.99172 6.17985 9.08305 6.08852 9.08305 5.97585C9.08305 5.86318 8.99172 5.77185 8.87905 5.77185C8.76638 5.77185 8.67505 5.86318 8.67505 5.97585C8.67505 6.08852 8.76638 6.17985 8.87905 6.17985Z" fill="#FFD83D" stroke="black" stroke-width="0.06" stroke-linecap="round" stroke-linejoin="round"/>
<path d="M8.79925 6.3678C8.77525 6.3678 8.75525 6.3878 8.75925 6.4238L8.78325 6.5958C8.79125 6.6558 8.82325 6.6358 8.83525 6.5958C8.84325 6.5478 8.83925 6.5158 8.84325 6.4318C8.84325 6.3878 8.81925 6.3678 8.79525 6.3678H8.79925ZM8.95925 6.3678C8.93525 6.3678 8.91525 6.3878 8.91525 6.4318C8.91525 6.5158 8.91525 6.5478 8.92325 6.5918C8.93125 6.6398 8.96325 6.6558 8.97525 6.5918L8.99525 6.4238C9.00325 6.3838 8.97925 6.3678 8.95925 6.3678ZM8.65125 6.3918C8.64065 6.3918 8.63047 6.39601 8.62297 6.40351C8.61547 6.41102 8.61125 6.42119 8.61125 6.4318C8.61125 6.4718 8.62325 6.5238 8.62725 6.5838C8.63525 6.6438 8.67925 6.6238 8.68325 6.5838C8.68325 6.5518 8.69125 6.4958 8.68325 6.4278C8.68325 6.4038 8.67525 6.3918 8.65925 6.3878C8.6566 6.38746 8.65391 6.38746 8.65125 6.3878V6.3918ZM9.09525 6.3918C9.08325 6.3918 9.07125 6.4038 9.06725 6.4318C9.06511 6.4826 9.06779 6.5335 9.07525 6.5838C9.07525 6.6238 9.12325 6.6438 9.12725 6.5838C9.12725 6.5238 9.14325 6.4758 9.14325 6.4358C9.14325 6.4118 9.12325 6.3958 9.10325 6.3918C9.1006 6.39146 9.09791 6.39146 9.09525 6.3918ZM8.47925 6.4598C8.45925 6.4638 8.43925 6.4878 8.44725 6.5118C8.45925 6.5638 8.47125 6.6198 8.47125 6.6718C8.47125 6.7158 8.50725 6.6998 8.51125 6.6718C8.51437 6.61852 8.51571 6.56516 8.51525 6.5118C8.51525 6.4718 8.49525 6.4558 8.47525 6.4598H8.47925ZM9.26325 6.4598C9.25125 6.4638 9.23925 6.4798 9.23925 6.5118L9.24725 6.6718C9.24725 6.6998 9.28725 6.7158 9.28725 6.6718C9.28725 6.6198 9.29525 6.5638 9.30725 6.5118C9.31525 6.4878 9.29525 6.4638 9.27925 6.4598C9.27532 6.45878 9.27119 6.45878 9.26725 6.4598H9.26325ZM6.90325 6.4678C6.87925 6.4678 6.86325 6.4958 6.87925 6.5278C6.90325 6.5838 6.93125 6.6158 6.95525 6.6718C6.97525 6.7238 7.01125 6.6918 6.99925 6.6558L6.94325 6.5078C6.93125 6.4798 6.91525 6.4678 6.90325 6.4678ZM10.8553 6.4678C10.8393 6.4678 10.8273 6.4798 10.8153 6.5078C10.7793 6.5838 10.7673 6.6198 10.7553 6.6558C10.7473 6.6958 10.7793 6.7238 10.8033 6.6718L10.8753 6.5278C10.8913 6.4958 10.8753 6.4678 10.8553 6.4678ZM7.06325 6.4678C7.04325 6.4758 7.03525 6.4958 7.04325 6.5198C7.06725 6.5678 7.09525 6.6198 7.11525 6.6718C7.13125 6.7158 7.17125 6.7038 7.15525 6.6638L7.11525 6.5158C7.09925 6.4758 7.07525 6.4638 7.06325 6.4678ZM10.6833 6.4678C10.6673 6.4718 10.6513 6.4878 10.6433 6.5158C10.6153 6.5958 10.6113 6.6198 10.5993 6.6638C10.5833 6.7038 10.6233 6.7158 10.6393 6.6718L10.7113 6.5198C10.7193 6.4958 10.7113 6.4758 10.6953 6.4678C10.6913 6.46678 10.6872 6.46678 10.6833 6.4678ZM7.26325 6.5078C7.23925 6.5118 7.22325 6.5438 7.23925 6.5838C7.25525 6.6318 7.27925 6.6758 7.30325 6.7318C7.32725 6.7878 7.36325 6.7758 7.35525 6.7398C7.34325 6.7038 7.33525 6.6478 7.30725 6.5598C7.29525 6.5198 7.27925 6.5038 7.26325 6.5078ZM10.4953 6.5078C10.4793 6.5078 10.4593 6.5198 10.4473 6.5598C10.4233 6.6478 10.4073 6.7038 10.4033 6.7398C10.3913 6.7798 10.4313 6.7878 10.4513 6.7318C10.4753 6.6758 10.4993 6.6318 10.5153 6.5838C10.5313 6.5438 10.5153 6.5118 10.4953 6.5078ZM6.76725 6.5358C6.74325 6.5358 6.72725 6.5758 6.73925 6.6038C6.75925 6.6438 6.77525 6.6598 6.79525 6.7078C6.81925 6.7558 6.84325 6.7198 6.83525 6.6878C6.82325 6.6558 6.81125 6.6198 6.80325 6.5758C6.79525 6.5438 6.77925 6.5358 6.76325 6.5358H6.76725ZM10.9913 6.5358C10.9753 6.5358 10.9633 6.5438 10.9513 6.5758L10.9233 6.6878C10.9153 6.7198 10.9393 6.7558 10.9633 6.7078C10.9833 6.6598 10.9953 6.6478 11.0193 6.6038C11.0313 6.5758 11.0113 6.5398 10.9913 6.5358ZM8.31125 6.6478C8.28325 6.6478 8.25925 6.6798 8.27125 6.7078C8.27925 6.7558 8.30325 6.7958 8.31525 6.8558C8.33125 6.9078 8.36725 6.8838 8.36325 6.8478C8.36035 6.79406 8.35366 6.7406 8.34325 6.6878C8.33525 6.6598 8.32325 6.6478 8.30725 6.6478H8.31125ZM9.44725 6.6478C9.43525 6.6478 9.41925 6.6598 9.41525 6.6878C9.4035 6.7405 9.39548 6.79397 9.39125 6.8478C9.39125 6.8838 9.42725 6.9078 9.43925 6.8558L9.48725 6.7078C9.49525 6.6798 9.47125 6.6478 9.44725 6.6478ZM8.87925 6.6958C8.84725 6.6958 8.84325 6.7358 8.84325 6.7638C8.84081 6.85489 8.81311 6.94352 8.76325 7.0198C8.72325 7.0678 8.67125 7.0558 8.62325 7.0278C8.57673 7.00244 8.53255 6.97299 8.49125 6.9398C8.43525 6.8998 8.39525 6.9238 8.45925 7.0158C8.64325 7.2798 8.84325 7.5038 8.84325 7.9358C8.84325 7.9878 8.85525 8.0038 8.87925 8.0038C8.90325 8.0038 8.91125 7.9878 8.91125 7.9318C8.91125 7.5038 9.11125 7.2798 9.29525 7.0118C9.35925 6.9238 9.31925 6.8998 9.26725 6.9398C9.22613 6.97323 9.18193 7.00269 9.13525 7.0278C9.08325 7.0558 9.03125 7.0678 8.99525 7.0198C8.94539 6.94352 8.9177 6.85489 8.91525 6.7638C8.91125 6.7358 8.90725 6.6958 8.87525 6.6958H8.87925ZM7.46725 6.6318C7.46461 6.63135 7.4619 6.63135 7.45925 6.6318C7.44725 6.6358 7.44325 6.6478 7.44725 6.6718L7.49125 6.8278C7.50325 6.8678 7.54725 6.8558 7.53925 6.8078L7.51525 6.6838C7.50725 6.6518 7.48325 6.6318 7.46725 6.6318ZM10.2913 6.6318C10.2713 6.6318 10.2513 6.6518 10.2433 6.6838C10.2273 6.7398 10.2273 6.7558 10.2193 6.8038C10.2073 6.8558 10.2553 6.8638 10.2633 6.8278L10.3113 6.6678C10.3113 6.6478 10.3073 6.6358 10.2953 6.6318C10.2926 6.63135 10.2899 6.63135 10.2873 6.6318H10.2913ZM6.62725 6.6478C6.60325 6.6478 6.58725 6.6798 6.61125 6.7198C6.63525 6.7678 6.67925 6.8238 6.69925 6.8598C6.71925 6.8918 6.75525 6.8678 6.73125 6.8278C6.70725 6.7878 6.69925 6.7358 6.66725 6.6758C6.66461 6.66737 6.65926 6.66005 6.65202 6.65499C6.64479 6.64992 6.63608 6.64739 6.62725 6.6478ZM11.1273 6.6478C11.1153 6.6478 11.0993 6.6558 11.0873 6.6758C11.0593 6.7358 11.0473 6.7838 11.0273 6.8278C11.0033 6.8678 11.0353 6.8918 11.0553 6.8598C11.0753 6.8238 11.1193 6.7678 11.1433 6.7198C11.1673 6.6798 11.1513 6.6478 11.1273 6.6478ZM5.35925 6.7798C5.33525 6.7798 5.32725 6.8278 5.35125 6.8598C5.38231 6.8991 5.41715 6.93528 5.45525 6.9678C5.48725 6.9998 5.49525 6.9598 5.47925 6.9278L5.40725 6.8198C5.38725 6.7918 5.37125 6.7798 5.35925 6.7798ZM12.3953 6.7798C12.3833 6.7798 12.3673 6.7918 12.3513 6.8198L12.2753 6.9278C12.2593 6.9598 12.2673 6.9998 12.3033 6.9678C12.3414 6.93531 12.3762 6.89914 12.4073 6.8598C12.4313 6.8278 12.4233 6.7798 12.3953 6.7798ZM5.56325 6.8198C5.53925 6.8198 5.52325 6.8358 5.54325 6.8718L5.61925 7.0238C5.63925 7.0638 5.69925 7.0758 5.67525 7.0158L5.62325 6.8638C5.61125 6.8358 5.58325 6.8238 5.56325 6.8238V6.8198ZM12.1953 6.8198C12.1713 6.8198 12.1433 6.8358 12.1313 6.8638L12.0833 7.0158C12.0593 7.0758 12.1193 7.0638 12.1393 7.0238C12.1593 6.9838 12.1913 6.9238 12.2113 6.8718C12.2313 6.8358 12.2153 6.8198 12.1953 6.8198ZM5.17125 6.8358C5.13925 6.8358 5.13925 6.8638 5.16725 6.8838C5.20325 6.9118 5.24725 6.9398 5.28725 6.9758C5.33925 7.0158 5.35525 6.9758 5.32725 6.9438C5.30325 6.9118 5.27925 6.8798 5.21125 6.8438C5.19525 6.8358 5.18325 6.8358 5.17125 6.8358ZM12.5833 6.8358C12.5753 6.8358 12.5593 6.8358 12.5433 6.8438C12.4793 6.8798 12.4513 6.9118 12.4233 6.9438C12.3993 6.9798 12.4193 7.0158 12.4673 6.9758C12.5073 6.9398 12.5553 6.9118 12.5873 6.8838C12.6193 6.8638 12.6153 6.8358 12.5873 6.8358H12.5833ZM8.19925 6.8638C8.17925 6.8638 8.16725 6.8838 8.17125 6.9118L8.21125 7.0558C8.21925 7.0998 8.27125 7.0998 8.26325 7.0558C8.25525 7.0158 8.25125 6.9638 8.23525 6.8998C8.23125 6.8758 8.21925 6.8638 8.20325 6.8598C8.20192 6.85969 8.20058 6.85969 8.19925 6.8598V6.8638ZM9.55125 6.8638C9.53925 6.8638 9.52725 6.8758 9.51925 6.9038C9.50325 6.9638 9.49925 7.0158 9.49125 7.0598C9.48325 7.0998 9.53525 7.0998 9.54325 7.0558L9.58325 6.9118C9.59125 6.8838 9.57525 6.8638 9.55925 6.8638C9.55661 6.86335 9.5539 6.86335 9.55125 6.8638ZM6.99125 6.7838C6.97925 6.7838 6.97125 6.8118 6.98325 6.8518C7.02568 6.96708 7.04735 7.08896 7.04725 7.2118C7.03525 7.2598 7.00725 7.2638 6.97125 7.2518C6.93201 7.23243 6.89454 7.20968 6.85925 7.1838C6.82725 7.1638 6.79125 7.1878 6.83925 7.2278C7.07925 7.4278 7.25125 7.6558 7.31925 7.9318C7.32725 7.9878 7.36325 7.9958 7.35525 7.9318C7.29925 7.5838 7.28725 7.2958 7.37125 7.1198C7.40325 7.0518 7.37125 6.9878 7.32325 7.0958C7.28725 7.1678 7.23525 7.1958 7.19125 7.1358C7.12871 7.03818 7.07516 6.93509 7.03125 6.8278C7.02325 6.7998 7.01125 6.7878 6.99925 6.7838C6.99793 6.78357 6.99658 6.78357 6.99525 6.7838H6.99125ZM10.7553 6.7838C10.7433 6.7838 10.7313 6.7998 10.7233 6.8238C10.6953 6.9038 10.6073 7.0718 10.5633 7.1358C10.5193 7.1998 10.4673 7.1678 10.4353 7.0958C10.3833 6.9878 10.3553 7.0518 10.3833 7.1198C10.4673 7.2958 10.4553 7.5838 10.4033 7.9318C10.3913 7.9958 10.4273 7.9878 10.4433 7.9318C10.5172 7.65086 10.6835 7.40293 10.9153 7.2278C10.9633 7.1878 10.9273 7.1638 10.8953 7.1878C10.8598 7.21106 10.8223 7.23114 10.7833 7.2478C10.7433 7.2638 10.7193 7.2598 10.7073 7.2078C10.6993 7.1598 10.7153 7.0518 10.7753 6.8478C10.7833 6.8158 10.7753 6.7878 10.7633 6.7838C10.7607 6.78288 10.7578 6.78288 10.7553 6.7838ZM5.77525 6.8798C5.75525 6.8798 5.73525 6.8958 5.74725 6.9278C5.76325 6.9838 5.79525 7.0398 5.80725 7.0718C5.81925 7.1078 5.85525 7.0918 5.84725 7.0438L5.82725 6.9198C5.82725 6.8958 5.79925 6.8798 5.77525 6.8798ZM11.9793 6.8798C11.9553 6.8798 11.9313 6.8958 11.9273 6.9198L11.9113 7.0438C11.9033 7.0918 11.9393 7.1078 11.9513 7.0718C11.9593 7.0398 11.9913 6.9838 12.0073 6.9278C12.0193 6.8958 12.0033 6.8798 11.9793 6.8798ZM6.52725 6.8118C6.50325 6.8078 6.49925 6.8718 6.51925 6.8998L6.63125 7.0238C6.66325 7.0638 6.68325 7.0278 6.66325 6.9958L6.55925 6.8438C6.54725 6.8238 6.53525 6.8118 6.52725 6.8118ZM11.2273 6.8118C11.2193 6.8118 11.2073 6.8238 11.1953 6.8438L11.0913 6.9958C11.0713 7.0278 11.0913 7.0638 11.1273 7.0238L11.2353 6.8998C11.2553 6.8718 11.2553 6.8078 11.2273 6.8118ZM5.94725 6.9718C5.93125 6.9718 5.91925 6.9798 5.92725 7.0118C5.93525 7.0598 5.94725 7.0918 5.95925 7.1358C5.97125 7.1758 5.99925 7.1718 5.99925 7.1318L5.98725 7.0038C5.98551 6.99422 5.98064 6.98548 5.9734 6.97897C5.96616 6.97245 5.95696 6.96853 5.94725 6.9678V6.9718ZM11.8073 6.9718C11.7979 6.97161 11.7888 6.97471 11.7815 6.98055C11.7742 6.9864 11.7691 6.99463 11.7673 7.0038L11.7553 7.1318C11.7553 7.1718 11.7873 7.1798 11.7953 7.1358L11.8313 7.0158C11.8393 6.9798 11.8233 6.9678 11.8073 6.9678V6.9718ZM6.47125 7.0278C6.44725 7.0278 6.42725 7.0558 6.45525 7.0918C6.49925 7.1518 6.55125 7.1918 6.57125 7.2118C6.58725 7.2358 6.63125 7.2278 6.60325 7.1838L6.51125 7.0438C6.50325 7.0278 6.48725 7.0238 6.47125 7.0278ZM11.2713 7.0278C11.2633 7.0278 11.2513 7.0318 11.2473 7.0438L11.1513 7.1838C11.1233 7.2278 11.1673 7.2358 11.1873 7.2158C11.2033 7.1918 11.2553 7.1518 11.3033 7.0918C11.3313 7.0518 11.3073 7.0278 11.2833 7.0278C11.2806 7.0275 11.2779 7.0275 11.2753 7.0278H11.2713ZM5.64325 7.1918C5.62725 7.1918 5.61925 7.2078 5.64325 7.2438C5.70503 7.31873 5.75004 7.40602 5.77525 7.4998C5.77925 7.5558 5.75525 7.5558 5.73125 7.5558C5.65525 7.5558 5.61925 7.4998 5.55525 7.4838C5.48725 7.4718 5.47525 7.5038 5.52325 7.5398C5.75253 7.68479 5.95208 7.87213 6.11125 8.0918C6.15125 8.1678 6.20325 8.1918 6.17525 8.1238C6.09754 7.96782 6.06432 7.79343 6.07925 7.6198C6.09925 7.5078 6.12725 7.4358 6.12325 7.3718C6.12325 7.3118 6.08325 7.3158 6.07125 7.3718L6.03125 7.4838C6.01525 7.5038 5.95925 7.5158 5.91125 7.4478C5.84323 7.36432 5.76829 7.28671 5.68725 7.2158C5.67525 7.2038 5.65925 7.1958 5.64725 7.1918H5.64325ZM12.1113 7.1918C12.0993 7.1918 12.0833 7.1998 12.0673 7.2158C11.9876 7.28691 11.914 7.36451 11.8473 7.4478C11.7953 7.5158 11.7393 7.5038 11.7273 7.4878C11.709 7.451 11.6956 7.41202 11.6873 7.3718C11.6713 7.3158 11.6353 7.3118 11.6313 7.3718C11.6313 7.4358 11.6553 7.5078 11.6753 7.6198C11.6953 7.7318 11.6753 7.9078 11.5833 8.1238C11.5513 8.1918 11.6073 8.1638 11.6473 8.0918C11.8049 7.87225 12.0032 7.68488 12.2313 7.5398C12.2793 7.5038 12.2713 7.4718 12.2033 7.4838C12.1353 7.4998 12.0993 7.5558 12.0273 7.5558C12.0033 7.5558 11.9753 7.5558 11.9793 7.4998C11.9833 7.4478 12.0513 7.3238 12.1113 7.2438C12.1353 7.2038 12.1313 7.1918 12.1113 7.1918Z" fill="#000001"/>
<path d="M6.00317 8.50785L6.08317 8.75185L6.00317 8.50785ZM6.16317 8.45985L6.23517 8.70785L6.16317 8.45985ZM6.33917 8.42785L6.38717 8.68385L6.33917 8.42785ZM6.49917 8.39985L6.55117 8.65185L6.49917 8.39985ZM6.70317 8.37985L6.74317 8.63585L6.70317 8.37985ZM6.92317 8.37985L6.96717 8.63185L6.92317 8.37985ZM7.13917 8.30785L7.17117 8.56385L7.13917 8.30785ZM7.33917 8.31985L7.37117 8.57585L7.33917 8.31985ZM7.53517 8.29585L7.56717 8.55185L7.53517 8.29585ZM7.72717 8.27185L7.74717 8.53185L7.72717 8.27185ZM7.93917 8.27185L7.95517 8.53185L7.93917 8.27185ZM8.13117 8.25985L8.14317 8.51985L8.13117 8.25985ZM8.33917 8.24785L8.35117 8.50385L8.33917 8.24785ZM8.57917 8.23985L8.59117 8.49985L8.57917 8.23985ZM11.7512 8.50785L11.6712 8.75185L11.7512 8.50785ZM11.5912 8.45985L11.5232 8.70785L11.5912 8.45985ZM11.4192 8.42785L11.3712 8.68385L11.4192 8.42785ZM11.2592 8.39985L11.2072 8.65185L11.2592 8.39985ZM11.0472 8.37985L11.0072 8.63585L11.0472 8.37985ZM10.8312 8.37985L10.7872 8.63585L10.8312 8.37985ZM10.6192 8.30785L10.5872 8.56385L10.6192 8.30785ZM10.4152 8.31985L10.3832 8.57585L10.4152 8.31985ZM10.2232 8.29585L10.1872 8.55185L10.2232 8.29585ZM10.0272 8.27185L10.0072 8.53185L10.0272 8.27185ZM9.81517 8.27185L9.79917 8.53185L9.81517 8.27185ZM9.62717 8.25985L9.61517 8.51985L9.62717 8.25985ZM9.41517 8.24785L9.40717 8.50385L9.41517 8.24785ZM9.17517 8.23985L9.16717 8.49985L9.17517 8.23985ZM8.87917 8.21985V8.50785V8.21985Z" fill="#FFD83D"/>
<path d="M6.00317 8.50785L6.08317 8.75185M6.16317 8.45985L6.23517 8.70785M6.33917 8.42785L6.38717 8.68385M6.49917 8.39985L6.55117 8.65185M6.70317 8.37985L6.74317 8.63585M6.92317 8.37985L6.96717 8.63185M7.13917 8.30785L7.17117 8.56385M7.33917 8.31985L7.37117 8.57585M7.53517 8.29585L7.56717 8.55185M7.72717 8.27185L7.74717 8.53185M7.93917 8.27185L7.95517 8.53185M8.13117 8.25985L8.14317 8.51985M8.33917 8.24785L8.35117 8.50385M8.57917 8.23985L8.59117 8.49985M11.7512 8.50785L11.6712 8.75185M11.5912 8.45985L11.5232 8.70785M11.4192 8.42785L11.3712 8.68385M11.2592 8.39985L11.2072 8.65185M11.0472 8.37985L11.0072 8.63585M10.8312 8.37985L10.7872 8.63585M10.6192 8.30785L10.5872 8.56385M10.4152 8.31985L10.3832 8.57585M10.2232 8.29585L10.1872 8.55185M10.0272 8.27185L10.0072 8.53185M9.81517 8.27185L9.79917 8.53185M9.62717 8.25985L9.61517 8.51985M9.41517 8.24785L9.40717 8.50385M9.17517 8.23985L9.16717 8.49985M8.87917 8.21985V8.50785" stroke="black" stroke-width="0.06" stroke-linecap="round" stroke-linejoin="round"/>
</g>
<defs>
<clipPath id="clip0_11930_68112">
<rect width="36" height="24" rx="2" fill="white"/>
</clipPath>
</defs>
</svg>
