<svg width="36" height="24" viewBox="0 0 36 24" fill="none" xmlns="http://www.w3.org/2000/svg">
<g clip-path="url(#clip0_11930_68109)">
<path d="M0 0H36V24H0V0Z" fill="#FFBF18"/>
<path d="M1.33521 12L5.73521 1.33496H10.1352V22.665H5.73521L1.33521 12Z" fill="#FF5B00"/>
<path d="M1.33521 1.33496H5.73521V22.665H1.33521V1.33496Z" fill="#03664F"/>
<path d="M11.4648 1.33496L34.4999 1.33496V22.665H11.4648V1.33496Z" fill="#A52531"/>
<path d="M32.7 20.4299C32.7 20.4299 32.88 20.7949 33.08 20.9499C33.38 21.1699 33.98 21.1499 34.245 21.4149C34.55 21.7199 34.22 22.1249 34.22 22.1649L34.24 22.3749C34.24 22.3749 34.03 22.3749 33.94 22.3899C33.81 22.4099 33.76 22.5199 33.51 22.5049C32.895 22.4649 32.92 21.9049 32.885 21.4299C32.855 21.2499 32.785 21.0099 32.74 20.8299C32.705 20.6799 32.7 20.4299 32.7 20.4299Z" fill="#FFBF18" stroke="black" stroke-width="0.055"/>
<path d="M13.3 20.4299C13.3 20.4299 13.12 20.7949 12.92 20.9499C12.62 21.1699 12.02 21.1499 11.755 21.4149C11.45 21.7199 11.78 22.1249 11.78 22.1649L11.76 22.3749C11.76 22.3749 11.97 22.3749 12.06 22.3899C12.19 22.4099 12.24 22.5199 12.49 22.5049C13.105 22.4649 13.08 21.9049 13.115 21.4299C13.145 21.2499 13.215 21.0099 13.26 20.8299C13.295 20.6799 13.3 20.4299 13.3 20.4299Z" fill="#FFBF18" stroke="black" stroke-width="0.055"/>
<path d="M32.7 3.56995C32.7 3.56995 32.88 3.20495 33.08 3.04995C33.38 2.82995 33.98 2.84995 34.245 2.58495C34.55 2.27995 34.22 1.87495 34.22 1.83495L34.24 1.62495C34.24 1.62495 34.03 1.62495 33.94 1.60995C33.81 1.58995 33.76 1.47995 33.51 1.49495C32.895 1.53495 32.92 2.09495 32.885 2.56995C32.855 2.74995 32.785 2.98995 32.74 3.16995C32.705 3.31995 32.7 3.56995 32.7 3.56995Z" fill="#FFBF18" stroke="black" stroke-width="0.055"/>
<path d="M13.3052 3.56995C13.3052 3.56995 13.1252 3.20495 12.9252 3.04995C12.6252 2.82995 12.0252 2.84995 11.7602 2.58495C11.4552 2.27995 11.7852 1.87495 11.7852 1.83495L11.7652 1.62495C11.7652 1.62495 11.9752 1.62495 12.0652 1.60995C12.1952 1.58995 12.2452 1.47995 12.4952 1.49495C13.1102 1.53495 13.0852 2.09495 13.1202 2.56995C13.1502 2.74995 13.2202 2.98995 13.2652 3.16995C13.3002 3.31995 13.3052 3.56995 13.3052 3.56995Z" fill="#FFBF18" stroke="black" stroke-width="0.055"/>
<path d="M20.1008 16.99L20.2158 16.92L20.2658 16.99C20.3308 17.08 20.5158 17.075 20.6358 16.99L20.7308 16.915L20.8108 16.985C20.9108 17.08 21.1008 17.08 21.2258 16.985C21.3108 16.925 21.3258 16.92 21.3758 16.97C21.4108 17 21.5108 17.03 21.5958 17.045C21.7558 17.065 21.7558 17.065 21.8458 16.925C21.9258 16.81 21.9358 16.765 21.9208 16.65C21.9069 16.5622 21.8969 16.4737 21.8908 16.385C21.8808 16.255 21.8858 16.255 22.0708 16.185C22.1627 16.1568 22.2528 16.1234 22.3408 16.085C22.4158 16.04 22.6258 15.795 22.6258 15.745C22.6258 15.735 22.5458 15.715 22.4458 15.705C22.0458 15.655 21.9808 15.445 22.2408 15.055C22.6558 14.405 22.9108 13.78 22.9108 13.385C22.9108 13.205 22.9258 13.145 22.9458 13.185C23.0408 13.34 22.8708 14.005 22.6208 14.485L22.5208 14.675L22.6158 14.655C22.6658 14.64 22.9858 14.505 23.3158 14.355C24.2258 13.945 24.5358 13.865 25.1258 13.89C25.6208 13.91 25.8258 14.005 26.1758 14.37C26.3608 14.57 26.5408 14.705 26.8658 14.91C27.5558 15.34 27.5858 15.38 27.6208 15.89C27.6558 16.405 27.6358 16.435 27.2458 16.52C26.9108 16.595 26.7008 16.75 26.6458 16.97C26.6158 17.08 26.6808 17.085 26.8458 16.975L26.9708 16.895L27.0258 16.975C27.1008 17.08 27.2508 17.08 27.3758 16.975L27.4758 16.9L27.5758 16.975C27.7258 17.1 27.9258 17.07 27.9858 16.915C27.9958 16.89 28.0258 16.895 28.0858 16.95C28.2008 17.05 28.4858 17.09 28.5158 17.01C28.5258 16.98 28.5058 16.91 28.4658 16.85C28.3008 16.6 28.2458 16.485 28.2458 16.35C28.2458 16.16 28.2958 16.065 28.5158 15.915C28.7758 15.725 28.8558 15.485 28.6558 15.485C28.5358 15.485 28.4108 15.375 28.3308 15.2C28.1708 14.84 28.2058 14.44 28.4458 13.77C28.6299 13.3758 28.7222 12.945 28.7158 12.51C28.7158 12.14 28.7058 12.08 28.6258 11.875C28.5633 11.7325 28.4862 11.5968 28.3958 11.47L28.2558 11.285L28.4308 11.135C28.9708 10.69 28.8608 9.96001 28.2108 9.68001C28.0108 9.59001 27.9608 9.58501 27.6108 9.58501C27.4108 9.58501 27.0858 9.61501 26.9108 9.65001C26.6759 9.68718 26.4386 9.70723 26.2008 9.71001C25.8608 9.71001 25.8008 9.70001 25.6708 9.63001C25.5358 9.56001 25.5108 9.52501 25.4858 9.35501C25.4834 9.33899 25.4772 9.32379 25.4676 9.31072C25.458 9.29766 25.4454 9.28712 25.4308 9.28001C25.3808 9.26501 25.1708 9.45001 25.1408 9.53001C25.1208 9.57501 25.1108 9.57001 25.0658 9.51501C25.0234 9.46052 24.9897 9.3998 24.9658 9.33501C24.9158 9.17001 24.9808 9.05001 25.1758 8.95501L25.3258 8.88501L25.2358 8.83001C25.0558 8.71501 24.7458 8.79501 24.6358 8.98001C24.6008 9.03001 24.5658 9.08001 24.5558 9.08001C24.5458 9.08001 24.4858 9.03001 24.4258 8.96501C24.1908 8.73501 24.2708 8.39501 24.5858 8.29501C24.7508 8.24001 24.9008 8.28001 24.9308 8.39501C24.9808 8.56001 25.1208 8.34001 25.0958 8.13501C25.0808 8.00001 25.0808 7.99501 25.1758 7.99501C25.3058 7.99501 25.5758 8.16501 25.6658 8.29501C25.7658 8.45001 25.7558 8.69501 25.6458 8.87501L25.5608 9.01501L25.6758 8.99501C25.8358 8.96001 25.9958 8.86001 26.0758 8.73501C26.118 8.65539 26.1417 8.56731 26.1451 8.47729C26.1486 8.38727 26.1318 8.29762 26.0958 8.21501C26.0208 8.08001 26.0308 8.06001 26.1408 8.10501C26.3208 8.18001 26.4208 8.26501 26.4908 8.41001C26.5608 8.54001 26.5658 8.57001 26.5308 8.71001C26.5069 8.79525 26.4698 8.87622 26.4208 8.95001C26.3608 9.03001 26.3558 9.04501 26.4058 9.04501C26.4958 9.04501 26.6758 8.96001 26.7408 8.89501C26.7758 8.85501 26.8258 8.77001 26.8508 8.69501L26.9008 8.57001L26.9508 8.67001C27.0258 8.80501 27.1758 8.93001 27.3558 9.01001C27.5508 9.09001 27.6308 9.09501 27.5308 9.02001C27.4608 8.97001 27.3308 8.59501 27.3758 8.56001C27.5916 8.68084 27.7887 8.83243 27.9608 9.01001C28.2458 9.26501 28.4258 9.35001 28.6858 9.35001C29.0208 9.35001 29.2158 9.06001 29.0658 8.78501C28.9808 8.62501 28.7858 8.60001 28.6658 8.73501C28.6158 8.80001 28.6008 8.85001 28.6158 8.92001C28.6358 9.00001 28.6308 9.01001 28.5558 9.01001C28.4558 9.01001 28.2658 8.88501 27.9258 8.60001C27.4526 8.19272 26.9086 7.8758 26.3208 7.66501C25.9227 7.57298 25.5115 7.55098 25.1058 7.60001C24.7858 7.66001 24.4058 7.84501 24.1958 8.04001C23.8308 8.39001 23.8258 8.85501 24.1808 9.28001L24.2808 9.40001L24.2158 9.51001C24.1669 9.5888 24.1427 9.68041 24.1463 9.77307C24.1499 9.86573 24.181 9.95521 24.2358 10.03C24.2858 10.1 24.3358 10.155 24.3508 10.155C24.3608 10.155 24.3708 10.11 24.3758 10.055C24.3858 9.92001 24.4458 9.83001 24.5458 9.79501C24.6358 9.76001 24.6958 9.78001 25.1058 9.94501C25.5408 10.115 26.2558 10.125 27.0158 9.97501C27.3452 9.89893 27.688 9.90236 28.0158 9.98501C28.3758 10.135 28.4558 10.52 28.1958 10.81C28.0808 10.94 27.9758 10.99 27.6108 11.09C27.2931 11.1738 26.9627 11.1992 26.6358 11.165C26.0958 11.16 25.9008 11.17 25.6858 11.215C25.4408 11.265 25.2958 11.27 24.5958 11.255L23.7808 11.235L23.8708 11.305C23.919 11.3478 23.9709 11.3863 24.0258 11.42C24.0908 11.455 24.0858 11.46 23.9958 11.495C23.9458 11.515 23.8258 11.53 23.7308 11.53H23.5658L23.5458 11.67C23.5324 11.736 23.5324 11.804 23.5458 11.87C23.5658 11.92 23.5558 11.93 23.5058 11.91C23.4708 11.895 23.3758 11.87 23.2908 11.855C23.2051 11.8366 23.1213 11.8098 23.0408 11.775C22.9458 11.725 22.9358 11.725 22.9008 11.79C22.8708 11.84 22.5908 12.05 22.5508 12.05C22.5328 11.9203 22.4957 11.7939 22.4408 11.675C22.3908 11.57 22.3458 11.45 22.3308 11.415C22.3158 11.36 22.3058 11.355 22.2808 11.4C22.2658 11.425 22.2458 11.5 22.2308 11.56C22.2133 11.641 22.1829 11.7186 22.1408 11.79L22.0658 11.9L22.0158 11.805C21.9658 11.705 21.8858 11.595 21.8558 11.595C21.8458 11.595 21.8308 11.625 21.8208 11.67C21.7958 11.75 21.6008 11.985 21.5508 11.985C21.5358 11.985 21.5208 11.92 21.5208 11.835C21.5208 11.76 21.5058 11.69 21.4858 11.69C21.4658 11.69 21.4508 11.715 21.4508 11.74C21.4508 11.8 21.2858 11.99 21.2258 11.99C21.2058 11.99 21.1658 12.01 21.1408 12.04C21.0808 12.105 21.0308 12.095 21.0558 12.02C21.0628 11.956 21.056 11.8912 21.0358 11.83L20.9858 11.67C20.9758 11.645 20.9158 11.655 20.7858 11.695C20.5858 11.76 20.5158 11.745 20.6208 11.665C20.6608 11.635 20.7208 11.53 20.7508 11.435C20.7858 11.335 20.8358 11.25 20.8608 11.24C20.8958 11.23 20.8958 11.24 20.8508 11.3C20.8219 11.338 20.803 11.3827 20.7958 11.43C20.7958 11.455 20.7708 11.52 20.7458 11.575C20.7158 11.625 20.6958 11.675 20.7008 11.68C20.7058 11.685 20.7858 11.655 20.8758 11.615L21.0358 11.535V11.605C21.0358 11.645 21.0558 11.745 21.0808 11.83L21.1258 11.98L21.2358 11.93C21.3458 11.88 21.4508 11.7 21.4508 11.555C21.4508 11.485 21.4908 11.495 21.5108 11.57C21.5108 11.59 21.5408 11.675 21.5608 11.755L21.6108 11.895L21.6858 11.805C21.7308 11.755 21.7808 11.655 21.8008 11.59C21.8408 11.47 21.9008 11.415 21.9008 11.505C21.9008 11.565 22.0708 11.795 22.1008 11.775C22.1208 11.765 22.1508 11.68 22.1758 11.585C22.2258 11.385 22.3008 11.255 22.3508 11.285C22.3708 11.295 22.3758 11.315 22.3658 11.335C22.3558 11.345 22.3958 11.475 22.4558 11.615C22.4993 11.7199 22.5426 11.8249 22.5858 11.93C22.6058 11.98 22.6258 11.98 22.7508 11.865C22.8258 11.795 22.9008 11.72 22.9058 11.695C22.9208 11.655 22.9358 11.66 23.0058 11.705C23.1533 11.7829 23.3148 11.8305 23.4808 11.845C23.4908 11.835 23.5008 11.745 23.5008 11.645L23.5058 11.46L23.6058 11.48C23.6558 11.495 23.7708 11.495 23.8558 11.48L24.0058 11.46L23.8708 11.36C23.7958 11.31 23.7208 11.245 23.7008 11.215C23.6858 11.185 23.6158 11.155 23.5408 11.15C23.3358 11.13 22.9708 10.93 22.9708 10.83C22.9708 10.81 23.0208 10.845 23.0808 10.9C23.2208 11.025 23.4108 11.1 23.5808 11.1H23.7008L23.6258 11C23.5724 10.9225 23.5381 10.8334 23.5258 10.74C23.5158 10.59 23.5008 10.57 23.3458 10.465C23.256 10.4013 23.1723 10.3293 23.0958 10.25L23.0108 10.155L22.9658 10.27C22.9408 10.335 22.9158 10.385 22.9008 10.385C22.8908 10.385 22.8408 10.345 22.8008 10.3C22.7727 10.2674 22.7388 10.2403 22.7008 10.22C22.6858 10.22 22.6508 10.28 22.6108 10.355L22.5408 10.49L22.4908 10.415C22.4464 10.3537 22.3961 10.2968 22.3408 10.245C22.2808 10.195 22.2558 10.155 22.2758 10.155C22.2958 10.155 22.3608 10.205 22.4258 10.27L22.5358 10.385L22.5858 10.3C22.6147 10.2411 22.6235 10.1744 22.6108 10.11C22.5908 10.02 22.5958 10.015 22.6258 10.075C22.669 10.1314 22.7194 10.1819 22.7758 10.225L22.8858 10.315L22.9608 10.18C23.0358 10.04 23.0358 10.04 23.0658 10.125C23.1158 10.23 23.4408 10.5 23.7158 10.655C23.7658 10.68 23.7458 10.6 23.6658 10.405C23.6418 10.3409 23.6283 10.2734 23.6258 10.205C23.6258 10.115 23.6008 10.075 23.4858 9.98501C23.4143 9.9393 23.3545 9.87752 23.3111 9.8046C23.2677 9.73169 23.2419 9.64964 23.2358 9.56501C23.2208 9.48001 23.1908 9.39001 23.1658 9.36001C23.1358 9.31001 23.1258 9.34001 23.1358 9.49001C23.1458 9.59501 23.1308 9.72501 23.1058 9.78001L23.0658 9.88001L23.0358 9.79501C23.0158 9.75001 22.9358 9.67001 22.8608 9.62001C22.7858 9.57001 22.7308 9.52001 22.7408 9.51001C22.7508 9.50001 22.8308 9.54501 22.9158 9.61001C23.0508 9.71501 23.0758 9.72501 23.0958 9.68001C23.1158 9.63001 23.0958 9.40001 23.0558 9.24001C23.0358 9.16001 23.0358 9.16001 23.1358 9.26001C23.2058 9.33001 23.2458 9.42001 23.2808 9.57001C23.3208 9.76001 23.3408 9.79501 23.5158 9.95001C23.6208 10.045 23.7158 10.115 23.7208 10.11C23.7308 10.1 23.7408 9.86001 23.7508 9.57001C23.7708 9.01501 23.7508 8.88001 23.6158 8.71001L23.5458 8.62001L23.6558 8.50501C23.7791 8.38713 23.8614 8.23297 23.8908 8.06501L23.9108 7.93001L23.7908 8.04501C23.6908 8.14001 23.6408 8.16001 23.5258 8.16001C23.4108 8.16001 23.3658 8.14001 23.2908 8.06001C23.174 7.94754 23.0316 7.86517 22.8758 7.82001C22.8158 7.80001 22.7958 7.81001 22.7958 7.85001C22.7958 7.88001 22.7658 7.96001 22.7258 8.03501L22.6558 8.16501L22.5058 8.01501C22.4108 7.93001 22.3058 7.85501 22.2208 7.83501C22.0158 7.78501 22.0058 7.78501 22.0058 7.94001C22.0058 8.17501 21.9058 8.22001 21.7258 8.06501C21.5858 7.94501 21.4758 7.91501 21.2108 7.95001L21.0108 7.97001L21.0458 8.06001C21.0758 8.13501 21.0708 8.17001 21.0058 8.25501C20.9008 8.39501 20.7658 8.45501 20.5558 8.45501C20.4558 8.45501 20.3358 8.47501 20.2858 8.50001C20.2358 8.52501 20.1058 8.55001 20.0008 8.56001C19.9008 8.57001 19.7858 8.59001 19.7508 8.60001C19.7008 8.62001 19.7008 8.60001 19.7158 8.49001C19.7408 8.32001 19.6158 8.19001 19.4308 8.19001C19.1858 8.19001 19.0758 8.41001 19.1708 8.70001C19.1903 8.76258 19.207 8.82597 19.2208 8.89001C19.2865 9.01504 19.3746 9.1269 19.4808 9.22001C19.6108 9.35001 19.7308 9.48501 19.7508 9.52001C19.7911 9.57215 19.8423 9.61482 19.9008 9.64501L20.0108 9.70501L19.9958 9.58501C19.9808 9.45501 20.0058 9.43501 20.0758 9.53001C20.1008 9.56001 20.1658 9.61501 20.2158 9.64501C20.3008 9.69501 20.3158 9.69501 20.3158 9.65501C20.3158 9.62501 20.3308 9.56001 20.3508 9.51001L20.3858 9.42001L20.4508 9.54501C20.4858 9.61501 20.6008 9.77001 20.7058 9.89501C20.9108 10.13 21.0408 10.395 20.9758 10.455C20.9458 10.48 20.8758 10.48 20.7258 10.45C20.6158 10.43 20.4758 10.415 20.4158 10.425C20.3008 10.44 20.2908 10.425 20.3658 10.335C20.4408 10.235 20.4258 10.22 20.2758 10.22C20.1008 10.22 19.6658 10.135 19.4958 10.07C19.3358 10.005 19.2958 10.02 19.2458 10.175L19.1608 10.455L19.1108 10.605L19.2908 10.59C19.3836 10.5803 19.4756 10.5636 19.5658 10.54C19.6013 10.5282 19.6386 10.5231 19.6758 10.525C19.6858 10.53 19.6608 10.59 19.6258 10.66L19.5558 10.78L19.6658 10.76C19.7258 10.745 19.8158 10.715 19.8658 10.69C19.9558 10.65 19.9658 10.65 20.0358 10.765C20.1208 10.9 20.1858 10.895 20.2008 10.75C20.2158 10.6 20.2658 10.62 20.3608 10.82C20.4508 11.01 20.5408 11.08 20.5608 10.97C20.5658 10.93 20.6108 10.87 20.6658 10.83C20.7758 10.755 20.8558 10.78 20.9008 10.895C20.9508 11.02 20.8408 11.145 20.5308 11.335C20.2438 11.4935 19.9967 11.7156 19.8087 11.9842C19.6206 12.2529 19.4965 12.561 19.4458 12.885C19.3508 13.475 19.6458 14.085 20.2258 14.53C20.5058 14.74 20.9508 14.96 20.9208 14.88C20.8008 14.515 20.8058 13.83 20.9258 13.715C20.9458 13.695 20.9408 13.765 20.9108 13.87C20.8108 14.265 20.8608 14.575 21.1108 15.305C21.3308 15.965 21.3008 16.25 20.9808 16.435C20.8808 16.495 20.8158 16.505 20.5408 16.5C20.2408 16.5 20.2058 16.5 20.1108 16.58C19.996 16.6973 19.9208 16.8477 19.8958 17.01C19.8958 17.075 19.9658 17.065 20.0958 16.99H20.1008Z" fill="#FFBF18" stroke="black" stroke-width="0.28"/>
<path d="M24.9507 16.9751L25.0757 16.8951L25.1607 16.9751C25.2707 17.0801 25.4057 17.0751 25.5107 16.9701C25.5607 16.9201 25.6007 16.8901 25.6057 16.8951L25.6507 16.9751C25.6757 17.0201 25.7307 17.0401 25.8307 17.0501C25.9457 17.0551 25.9807 17.0501 26.0307 16.9801L26.0807 16.8951L26.2057 16.9751C26.5457 17.1951 26.7257 16.9651 26.5707 16.5101C26.4957 16.2801 26.5407 16.1501 26.7857 15.8601C26.8907 15.7351 26.9757 15.6001 26.9757 15.5601C26.9757 15.5051 26.9557 15.4951 26.8157 15.5001C26.6857 15.5001 26.6457 15.4851 26.5757 15.4101C26.4607 15.2851 26.4707 15.1401 26.5957 14.9801L26.6957 14.8551L26.5157 14.7351C26.372 14.6289 26.2381 14.5101 26.1157 14.3801C26.0066 14.2513 25.8731 14.1452 25.723 14.068C25.5728 13.9908 25.409 13.9439 25.2407 13.9301L25.0057 13.9051V14.0851C25.0057 14.3101 25.1157 14.5301 25.4057 14.9001C25.7357 15.3201 25.7557 15.3851 25.7707 15.9351L25.7857 16.4001L25.6857 16.4901C25.6007 16.5701 25.5657 16.5851 25.2857 16.6001C25.0207 16.6151 24.9607 16.6301 24.8857 16.7001C24.7979 16.7641 24.7373 16.8586 24.7157 16.9651C24.7007 17.0401 24.7057 17.0551 24.7607 17.0551C24.7957 17.0551 24.8807 17.0201 24.9507 16.9751ZM17.8407 15.7751C17.8709 15.7307 17.8882 15.6787 17.8907 15.6251C17.8907 15.5751 17.9207 15.5551 18.0507 15.5351L18.2057 15.5151L18.1057 15.4301C17.9807 15.3301 17.9657 15.2551 18.0757 15.2551C18.1857 15.2551 18.3657 15.1451 18.3957 15.0601C18.4107 15.0201 18.3957 14.9701 18.3757 14.9451C18.3157 14.8751 18.2007 14.8851 18.1807 14.9651C18.1557 15.0451 18.1207 15.0451 18.0307 14.9651C17.9057 14.8401 17.9007 14.5851 18.0307 14.4351C18.0857 14.3651 18.0857 14.3651 18.0107 14.2901C17.9307 14.2101 17.8707 14.0601 17.9107 14.0201C17.9207 14.0101 17.9857 14.0201 18.0507 14.0451C18.1507 14.0751 18.1857 14.0751 18.2257 14.0451C18.3407 13.9501 18.2157 13.8301 18.0257 13.8601C17.9457 13.8701 17.9157 13.8601 17.9057 13.8201C17.8957 13.7901 17.8307 13.7501 17.7557 13.7301C17.6207 13.6951 17.6207 13.6951 17.6207 13.7901C17.6207 13.8901 17.5607 13.9101 17.4507 13.8451C17.3607 13.7951 17.2757 13.8351 17.2757 13.9301C17.2757 14.0201 17.3607 14.0601 17.5257 14.0501C17.6457 14.0451 17.6507 14.1351 17.5357 14.2651L17.4507 14.3651L17.5157 14.4601C17.6157 14.6001 17.6057 14.8351 17.5007 14.9551L17.4157 15.0451L17.3607 14.9701C17.2807 14.8701 17.1757 14.8751 17.1457 14.9851C17.1307 15.0551 17.1457 15.0851 17.2357 15.1651C17.2957 15.2151 17.3857 15.2551 17.4307 15.2551C17.5457 15.2551 17.5407 15.3501 17.4207 15.4401L17.3207 15.5151L17.4707 15.5351C17.5507 15.5501 17.6207 15.5701 17.6207 15.5851C17.6207 15.6501 17.7207 15.8451 17.7507 15.8451C17.7707 15.8451 17.8107 15.8101 17.8407 15.7701V15.7751Z" fill="#FFBF18" stroke="black" stroke-width="0.28"/>
<path d="M19.7506 14.9449C19.8856 14.8949 20.1756 14.6449 20.1756 14.5899C20.1756 14.5699 20.0956 14.4799 19.9956 14.3899C19.7956 14.2099 19.5706 13.8949 19.5106 13.7149C19.4806 13.6149 19.3356 13.4549 18.9256 13.0549L18.3806 12.5299L18.2256 12.5699C18.1356 12.5899 18.0306 12.6099 17.9906 12.6099C17.9156 12.6099 17.9156 12.6099 18.0156 12.6899L18.1156 12.7699L18.2656 12.6899C18.4006 12.6099 18.4056 12.6099 18.4206 12.6749C18.4306 12.7099 18.4106 12.7749 18.3706 12.8199C18.3356 12.8649 18.3156 12.9199 18.3206 12.9349C18.3356 12.9499 18.3006 12.9849 18.2456 13.0149C18.1456 13.0649 18.0706 13.2299 18.1506 13.2299C18.2256 13.2299 18.3856 13.0299 18.3656 12.9649C18.3556 12.9299 18.3656 12.8949 18.3756 12.8849C18.4406 12.8499 18.4356 13.0049 18.3756 13.0849C18.3356 13.1249 18.3156 13.1749 18.3256 13.1949C18.3356 13.2099 18.3006 13.2449 18.2456 13.2749C18.1456 13.3249 18.0706 13.4899 18.1506 13.4899C18.2306 13.4899 18.3856 13.2999 18.3706 13.2299C18.3606 13.1949 18.3606 13.1549 18.3756 13.1449C18.4206 13.1249 18.4406 13.2449 18.4056 13.3049C18.3964 13.3218 18.3916 13.3407 18.3916 13.3599C18.3916 13.3791 18.3964 13.398 18.4056 13.4149C18.4406 13.4799 18.4056 13.5999 18.3406 13.6399C18.3156 13.6549 18.3306 13.6899 18.4006 13.7399C18.5006 13.8099 18.5006 13.8199 18.5006 14.1399C18.5006 14.4099 18.5106 14.4799 18.5606 14.5249C18.6106 14.5749 18.6206 14.5749 18.6206 14.5249C18.6206 14.4749 18.7206 14.4049 18.7956 14.4049C18.8206 14.4049 18.9656 14.5299 19.1206 14.6799C19.2756 14.8299 19.4406 14.9649 19.4856 14.9699L19.5956 14.9899C19.6106 14.9899 19.6806 14.9749 19.7506 14.9399V14.9449ZM18.0856 13.6399C18.0856 13.5549 17.9056 13.4599 17.6906 13.4399C17.5156 13.4149 17.5156 13.4199 17.5156 13.5049C17.5156 13.5749 17.5406 13.6049 17.6656 13.6549C17.8556 13.7399 18.0856 13.7299 18.0856 13.6399Z" fill="#FFBF18" stroke="black" stroke-width="0.28"/>
<path d="M18.2807 13.6299C18.3707 13.5499 18.4107 13.4599 18.3557 13.4599C18.2957 13.4599 18.1357 13.5999 18.1357 13.6599C18.1357 13.7399 18.1657 13.7349 18.2857 13.6299H18.2807ZM18.0957 13.3749C18.1007 13.3249 18.0707 13.2949 17.9807 13.2499C17.7807 13.1649 17.5507 13.1199 17.4957 13.1649C17.3907 13.2499 17.4607 13.3599 17.6257 13.3799C17.6957 13.3849 17.7857 13.4049 17.8307 13.4249C17.9607 13.4749 18.0807 13.4499 18.0957 13.3749ZM18.0957 13.1099C18.1057 13.0449 18.0607 13.0199 17.6957 12.8899C17.4207 12.7899 17.3007 12.8399 17.3907 13.0049C17.4207 13.0599 17.4707 13.0849 17.5857 13.1049C17.6707 13.1149 17.7857 13.1399 17.8407 13.1599C17.9907 13.2099 18.0807 13.1899 18.0907 13.1099H18.0957ZM18.2757 12.8649C18.3307 12.8099 18.3757 12.7449 18.3757 12.7149C18.3757 12.6399 18.1607 12.7799 18.1307 12.8799C18.1007 12.9949 18.1557 12.9899 18.2807 12.8649H18.2757ZM18.0957 12.8499C18.1057 12.7699 17.9757 12.6999 17.7157 12.6449C17.5207 12.5999 17.4357 12.6249 17.4507 12.7149C17.4607 12.7649 17.5257 12.7999 17.7007 12.8549C17.9957 12.9449 18.0807 12.9449 18.0957 12.8499ZM18.3457 12.4799C18.6857 12.3299 18.7107 11.9549 18.3957 11.8549C18.2657 11.8149 18.1857 11.8399 18.1357 11.9249C18.0957 11.9949 18.1207 12.1149 18.1707 12.1149C18.1907 12.1149 18.2057 12.1399 18.2057 12.1649C18.2057 12.2999 17.6957 12.3549 17.4857 12.2499C17.4107 12.2149 17.3857 12.1149 17.4407 12.1149C17.4907 12.1149 17.5207 12.0149 17.4957 11.9499C17.4657 11.8499 17.3657 11.8199 17.2307 11.8599C16.9157 11.9399 16.9257 12.3099 17.2457 12.4599C17.5997 12.5899 17.9872 12.5969 18.3457 12.4799Z" fill="#FFBF18" stroke="black" stroke-width="0.28"/>
<path d="M18.1408 12.19C18.1608 12.17 18.1508 12.14 18.1208 12.12C18.0508 12.065 18.0558 11.98 18.1308 11.885C18.1908 11.815 18.1958 11.705 18.2158 10.63C18.2508 8.775 18.3908 7.38 18.5708 7.04C18.6458 6.91 18.6358 6.91 18.4458 7.04C18.1965 7.21367 17.9953 7.4476 17.8608 7.72C17.5508 8.295 17.4458 9.07 17.4458 10.73C17.4458 11.67 17.4508 11.795 17.5058 11.88C17.5558 11.97 17.5558 12 17.5258 12.09C17.5008 12.145 17.4908 12.205 17.5008 12.215C17.5708 12.28 18.0708 12.265 18.1408 12.19ZM20.9458 10.42C20.9608 10.405 20.9358 10.32 20.8958 10.24C20.8358 10.11 20.8108 10.09 20.7258 10.09C20.326 10.0553 19.9361 9.94676 19.5758 9.77C19.3208 9.655 19.2258 9.63001 19.2008 9.66001C19.1208 9.73501 19.2508 9.91 19.4508 10.005C19.7451 10.1111 20.0534 10.1734 20.3658 10.19C20.5008 10.19 20.5058 10.19 20.4258 10.305L20.3758 10.385H20.5258L20.7758 10.415C20.9258 10.45 20.9258 10.45 20.9458 10.42Z" fill="#FFBF18" stroke="black" stroke-width="0.28"/>
<path d="M22.5259 11.2551C22.5259 11.2051 22.3809 11.0801 22.2409 10.9951C22.1259 10.9301 22.1059 10.9251 22.1059 10.9801C22.1059 11.0601 22.0359 11.2651 22.0059 11.2651C21.9909 11.2651 21.9659 11.2251 21.9559 11.1801C21.9409 11.1301 21.8859 11.0301 21.8309 10.9651L21.7309 10.8401L21.6609 10.9551C21.5909 11.0651 21.4659 11.1701 21.4109 11.1701C21.4009 11.1701 21.3959 11.1101 21.4109 11.0451C21.4159 10.9651 21.4109 10.9051 21.3859 10.8951C21.3659 10.8801 21.3459 10.8851 21.3459 10.9051C21.3459 10.9451 21.1759 11.1351 21.1459 11.1351C21.1259 11.1351 21.1059 11.0851 21.0959 11.0151L21.0559 10.7751C21.0459 10.7151 21.0709 10.7551 21.1059 10.8751L21.1859 11.0801L21.2659 10.9551C21.3021 10.9034 21.3291 10.8459 21.3459 10.7851C21.3459 10.7601 21.3609 10.7501 21.3809 10.7601C21.4009 10.7701 21.4259 10.8551 21.4359 10.9451L21.4609 11.1151L21.5509 11.0151C21.598 10.9649 21.6414 10.9115 21.6809 10.8551C21.7159 10.7951 21.7209 10.7951 21.7959 10.8551C21.8359 10.8951 21.9009 10.9801 21.9409 11.0501C21.9809 11.1201 22.0159 11.1701 22.0209 11.1651L22.0509 11.0051L22.0709 10.8551C22.0759 10.8301 22.3409 11.0051 22.4409 11.0901C22.5009 11.1451 22.5609 11.1851 22.5709 11.1751C22.5809 11.1651 22.5909 11.0851 22.5909 10.9901C22.5909 10.8501 22.5759 10.8101 22.4909 10.7351C22.3909 10.6451 22.3909 10.6451 22.3509 10.7101C22.3009 10.7951 22.2459 10.7951 22.2459 10.7101C22.2459 10.6501 22.0559 10.4151 22.0109 10.4151C21.9959 10.4151 21.9559 10.4651 21.9209 10.5301C21.8859 10.5951 21.8459 10.6451 21.8359 10.6451C21.7859 10.6451 21.5209 10.3451 21.5209 10.2951C21.5209 10.2551 21.5409 10.2651 21.5859 10.3351C21.6306 10.4008 21.6826 10.4611 21.7409 10.5151C21.8409 10.6051 21.8809 10.5851 21.9209 10.4101C21.9359 10.3601 21.9559 10.3201 21.9709 10.3201C22.0109 10.3201 22.2409 10.5651 22.2709 10.6451L22.3059 10.7251L22.3309 10.6351C22.3609 10.5251 22.3959 10.5251 22.4459 10.6251C22.4659 10.6651 22.5659 10.7551 22.6659 10.8151L22.8509 10.9351L22.8859 10.8151C22.9059 10.7501 22.9359 10.7151 22.9459 10.7351C22.9659 10.7601 22.9159 10.9601 22.8809 11.0001C22.8809 11.0051 22.8159 10.9701 22.7509 10.9251L22.6259 10.8351V10.9951C22.6259 11.0801 22.6159 11.1851 22.6059 11.2251C22.5809 11.3051 22.5209 11.3251 22.5209 11.2551H22.5259ZM21.6009 9.98508C21.3809 9.80508 21.3509 9.76508 21.3509 9.67508L21.3559 9.58508L21.3709 9.67008C21.3809 9.72008 21.4409 9.80008 21.5109 9.86008L21.6409 9.96008L21.7159 9.87008C21.7609 9.82008 21.7959 9.76008 21.7959 9.74008C21.7959 9.68008 21.8059 9.68508 21.9559 9.81508C22.0859 9.93008 22.0909 9.93008 22.1059 9.85508C22.1209 9.81508 22.1159 9.73508 22.1059 9.68008C22.0559 9.53008 22.0659 9.51008 22.1309 9.60008L22.2509 9.74008C22.3009 9.79508 22.3059 9.79508 22.3259 9.72508C22.3409 9.68008 22.3509 9.60508 22.3509 9.55508V9.46008L22.4659 9.59508C22.5809 9.72508 22.5909 9.73008 22.6209 9.66508C22.6459 9.63008 22.6609 9.54508 22.6609 9.48008C22.6609 9.39008 22.6709 9.37008 22.6909 9.40008C22.7309 9.46008 22.7059 9.61008 22.6359 9.74008L22.5859 9.84008L22.5209 9.73508C22.4359 9.60508 22.4059 9.60508 22.3559 9.74508C22.3059 9.88008 22.2709 9.89008 22.2209 9.78508C22.1909 9.72008 22.1809 9.73008 22.1609 9.87008L22.1359 10.0201L21.9859 9.90508L21.8359 9.79008L21.7609 9.86508C21.7259 9.91008 21.6959 9.96508 21.6959 9.98508C21.6959 10.0351 21.6559 10.0351 21.6009 9.98508ZM23.5509 9.30508C23.4759 9.23508 23.4209 9.16508 23.4309 9.15508C23.4459 9.14008 23.4559 9.13508 23.4609 9.14508C23.5093 9.19665 23.5593 9.24668 23.6109 9.29508C23.7809 9.47508 23.7459 9.48008 23.5559 9.30508H23.5509ZM20.9509 9.03508C20.8809 8.93508 20.8859 8.87508 20.9759 8.76508C21.0359 8.69008 21.0659 8.68008 21.1759 8.69508C21.2509 8.70008 21.4059 8.76508 21.5209 8.83508C21.6871 8.93437 21.8773 8.98625 22.0709 8.98508L21.9859 8.84508C21.8759 8.68008 21.8759 8.66008 22.0059 8.76008C22.1359 8.86508 22.2909 8.89508 22.6409 8.88508L22.8109 8.88008L22.7109 8.78008C22.5759 8.64508 22.6159 8.63008 22.7709 8.76508C22.9109 8.89008 22.9059 8.90008 22.6009 8.93008C22.4737 8.94293 22.3453 8.93448 22.2209 8.90508C22.0509 8.85508 22.0409 8.86008 22.0759 8.91508C22.0959 8.95008 22.1259 8.97508 22.1409 8.97508C22.1609 8.97508 22.1759 8.99508 22.1759 9.01508C22.1759 9.08008 21.8059 9.02008 21.6259 8.93508C21.2259 8.73008 21.1759 8.71008 21.0759 8.74008C21.0492 8.75033 21.0249 8.76577 21.0043 8.78552C20.9837 8.80526 20.9672 8.82891 20.9559 8.85508C20.8909 9.02008 21.1259 9.15008 21.2209 9.00508C21.2509 8.96008 21.2459 8.93508 21.1959 8.88008C21.1259 8.81008 21.1359 8.80008 21.2259 8.83008C21.2909 8.85508 21.2959 9.01008 21.2359 9.07008C21.1709 9.13508 21.0109 9.12008 20.9509 9.03508Z" fill="#000001" stroke="black" stroke-width="0.28"/>
<path d="M22.546 8.63C22.496 8.58 22.536 8.57 22.761 8.565C23.041 8.56 23.211 8.515 23.411 8.385C23.571 8.285 23.616 8.305 23.461 8.41C23.326 8.51 23.111 8.58 22.896 8.6L22.641 8.635C22.601 8.645 22.556 8.64 22.541 8.63H22.546Z" fill="#000001" stroke="black" stroke-width="0.28"/>
<path d="M20.1008 16.99L20.2158 16.92L20.2658 16.99C20.3308 17.08 20.5158 17.075 20.6358 16.99L20.7308 16.915L20.8108 16.985C20.9108 17.08 21.1008 17.08 21.2258 16.985C21.3108 16.925 21.3258 16.92 21.3758 16.97C21.4108 17 21.5108 17.03 21.5958 17.045C21.7558 17.065 21.7558 17.065 21.8458 16.925C21.9258 16.81 21.9358 16.765 21.9208 16.65C21.9069 16.5622 21.8969 16.4737 21.8908 16.385C21.8808 16.255 21.8858 16.255 22.0708 16.185C22.1627 16.1568 22.2528 16.1234 22.3408 16.085C22.4158 16.04 22.6258 15.795 22.6258 15.745C22.6258 15.735 22.5458 15.715 22.4458 15.705C22.0458 15.655 21.9808 15.445 22.2408 15.055C22.6558 14.405 22.9108 13.78 22.9108 13.385C22.9108 13.205 22.9258 13.145 22.9458 13.185C23.0408 13.34 22.8708 14.005 22.6208 14.485L22.5208 14.675L22.6158 14.655C22.6658 14.64 22.9858 14.505 23.3158 14.355C24.2258 13.945 24.5358 13.865 25.1258 13.89C25.6208 13.91 25.8258 14.005 26.1758 14.37C26.3608 14.57 26.5408 14.705 26.8658 14.91C27.5558 15.34 27.5858 15.38 27.6208 15.89C27.6558 16.405 27.6358 16.435 27.2458 16.52C26.9108 16.595 26.7008 16.75 26.6458 16.97C26.6158 17.08 26.6808 17.085 26.8458 16.975L26.9708 16.895L27.0258 16.975C27.1008 17.08 27.2508 17.08 27.3758 16.975L27.4758 16.9L27.5758 16.975C27.7258 17.1 27.9258 17.07 27.9858 16.915C27.9958 16.89 28.0258 16.895 28.0858 16.95C28.2008 17.05 28.4858 17.09 28.5158 17.01C28.5258 16.98 28.5058 16.91 28.4658 16.85C28.3008 16.6 28.2458 16.485 28.2458 16.35C28.2458 16.16 28.2958 16.065 28.5158 15.915C28.7758 15.725 28.8558 15.485 28.6558 15.485C28.5358 15.485 28.4108 15.375 28.3308 15.2C28.1708 14.84 28.2058 14.44 28.4458 13.77C28.6299 13.3758 28.7222 12.945 28.7158 12.51C28.7158 12.14 28.7058 12.08 28.6258 11.875C28.5633 11.7325 28.4862 11.5968 28.3958 11.47L28.2558 11.285L28.4308 11.135C28.9708 10.69 28.8608 9.96001 28.2108 9.68001C28.0108 9.59001 27.9608 9.58501 27.6108 9.58501C27.4108 9.58501 27.0858 9.61501 26.9108 9.65001C26.6759 9.68718 26.4386 9.70723 26.2008 9.71001C25.8608 9.71001 25.8008 9.70001 25.6708 9.63001C25.5358 9.56001 25.5108 9.52501 25.4858 9.35501C25.4834 9.33899 25.4772 9.32379 25.4676 9.31072C25.458 9.29766 25.4454 9.28712 25.4308 9.28001C25.3808 9.26501 25.1708 9.45001 25.1408 9.53001C25.1208 9.57501 25.1108 9.57001 25.0658 9.51501C25.0234 9.46052 24.9897 9.3998 24.9658 9.33501C24.9158 9.17001 24.9808 9.05001 25.1758 8.95501L25.3258 8.88501L25.2358 8.83001C25.0558 8.71501 24.7458 8.79501 24.6358 8.98001C24.6008 9.03001 24.5658 9.08001 24.5558 9.08001C24.5458 9.08001 24.4858 9.03001 24.4258 8.96501C24.1908 8.73501 24.2708 8.39501 24.5858 8.29501C24.7508 8.24001 24.9008 8.28001 24.9308 8.39501C24.9808 8.56001 25.1208 8.34001 25.0958 8.13501C25.0808 8.00001 25.0808 7.99501 25.1758 7.99501C25.3058 7.99501 25.5758 8.16501 25.6658 8.29501C25.7658 8.45001 25.7558 8.69501 25.6458 8.87501L25.5608 9.01501L25.6758 8.99501C25.8358 8.96001 25.9958 8.86001 26.0758 8.73501C26.118 8.65539 26.1417 8.56731 26.1451 8.47729C26.1486 8.38727 26.1318 8.29762 26.0958 8.21501C26.0208 8.08001 26.0308 8.06001 26.1408 8.10501C26.3208 8.18001 26.4208 8.26501 26.4908 8.41001C26.5608 8.54001 26.5658 8.57001 26.5308 8.71001C26.5069 8.79525 26.4698 8.87622 26.4208 8.95001C26.3608 9.03001 26.3558 9.04501 26.4058 9.04501C26.4958 9.04501 26.6758 8.96001 26.7408 8.89501C26.7758 8.85501 26.8258 8.77001 26.8508 8.69501L26.9008 8.57001L26.9508 8.67001C27.0258 8.80501 27.1758 8.93001 27.3558 9.01001C27.5508 9.09001 27.6308 9.09501 27.5308 9.02001C27.4608 8.97001 27.3308 8.59501 27.3758 8.56001C27.5916 8.68084 27.7887 8.83243 27.9608 9.01001C28.2458 9.26501 28.4258 9.35001 28.6858 9.35001C29.0208 9.35001 29.2158 9.06001 29.0658 8.78501C28.9808 8.62501 28.7858 8.60001 28.6658 8.73501C28.6158 8.80001 28.6008 8.85001 28.6158 8.92001C28.6358 9.00001 28.6308 9.01001 28.5558 9.01001C28.4558 9.01001 28.2658 8.88501 27.9258 8.60001C27.4526 8.19272 26.9086 7.8758 26.3208 7.66501C25.9227 7.57298 25.5115 7.55098 25.1058 7.60001C24.7858 7.66001 24.4058 7.84501 24.1958 8.04001C23.8308 8.39001 23.8258 8.85501 24.1808 9.28001L24.2808 9.40001L24.2158 9.51001C24.1669 9.5888 24.1427 9.68041 24.1463 9.77307C24.1499 9.86573 24.181 9.95521 24.2358 10.03C24.2858 10.1 24.3358 10.155 24.3508 10.155C24.3608 10.155 24.3708 10.11 24.3758 10.055C24.3858 9.92001 24.4458 9.83001 24.5458 9.79501C24.6358 9.76001 24.6958 9.78001 25.1058 9.94501C25.5408 10.115 26.2558 10.125 27.0158 9.97501C27.3452 9.89893 27.688 9.90236 28.0158 9.98501C28.3758 10.135 28.4558 10.52 28.1958 10.81C28.0808 10.94 27.9758 10.99 27.6108 11.09C27.2931 11.1738 26.9627 11.1992 26.6358 11.165C26.0958 11.16 25.9008 11.17 25.6858 11.215C25.4408 11.265 25.2958 11.27 24.5958 11.255L23.7808 11.235L23.8708 11.305C23.919 11.3478 23.9709 11.3863 24.0258 11.42C24.0908 11.455 24.0858 11.46 23.9958 11.495C23.9458 11.515 23.8258 11.53 23.7308 11.53H23.5658L23.5458 11.67C23.5324 11.736 23.5324 11.804 23.5458 11.87C23.5658 11.92 23.5558 11.93 23.5058 11.91C23.4708 11.895 23.3758 11.87 23.2908 11.855C23.2051 11.8366 23.1213 11.8098 23.0408 11.775C22.9458 11.725 22.9358 11.725 22.9008 11.79C22.8708 11.84 22.5908 12.05 22.5508 12.05C22.5328 11.9203 22.4957 11.7939 22.4408 11.675C22.3908 11.57 22.3458 11.45 22.3308 11.415C22.3158 11.36 22.3058 11.355 22.2808 11.4C22.2658 11.425 22.2458 11.5 22.2308 11.56C22.2133 11.641 22.1829 11.7186 22.1408 11.79L22.0658 11.9L22.0158 11.805C21.9658 11.705 21.8858 11.595 21.8558 11.595C21.8458 11.595 21.8308 11.625 21.8208 11.67C21.7958 11.75 21.6008 11.985 21.5508 11.985C21.5358 11.985 21.5208 11.92 21.5208 11.835C21.5208 11.76 21.5058 11.69 21.4858 11.69C21.4658 11.69 21.4508 11.715 21.4508 11.74C21.4508 11.8 21.2858 11.99 21.2258 11.99C21.2058 11.99 21.1658 12.01 21.1408 12.04C21.0808 12.105 21.0308 12.095 21.0558 12.02C21.0628 11.956 21.056 11.8912 21.0358 11.83L20.9858 11.67C20.9758 11.645 20.9158 11.655 20.7858 11.695C20.5858 11.76 20.5158 11.745 20.6208 11.665C20.6608 11.635 20.7208 11.53 20.7508 11.435C20.7858 11.335 20.8358 11.25 20.8608 11.24C20.8958 11.23 20.8958 11.24 20.8508 11.3C20.8219 11.338 20.803 11.3827 20.7958 11.43C20.7958 11.455 20.7708 11.52 20.7458 11.575C20.7158 11.625 20.6958 11.675 20.7008 11.68C20.7058 11.685 20.7858 11.655 20.8758 11.615L21.0358 11.535V11.605C21.0358 11.645 21.0558 11.745 21.0808 11.83L21.1258 11.98L21.2358 11.93C21.3458 11.88 21.4508 11.7 21.4508 11.555C21.4508 11.485 21.4908 11.495 21.5108 11.57C21.5108 11.59 21.5408 11.675 21.5608 11.755L21.6108 11.895L21.6858 11.805C21.7308 11.755 21.7808 11.655 21.8008 11.59C21.8408 11.47 21.9008 11.415 21.9008 11.505C21.9008 11.565 22.0708 11.795 22.1008 11.775C22.1208 11.765 22.1508 11.68 22.1758 11.585C22.2258 11.385 22.3008 11.255 22.3508 11.285C22.3708 11.295 22.3758 11.315 22.3658 11.335C22.3558 11.345 22.3958 11.475 22.4558 11.615C22.4993 11.7199 22.5426 11.8249 22.5858 11.93C22.6058 11.98 22.6258 11.98 22.7508 11.865C22.8258 11.795 22.9008 11.72 22.9058 11.695C22.9208 11.655 22.9358 11.66 23.0058 11.705C23.1533 11.7829 23.3148 11.8305 23.4808 11.845C23.4908 11.835 23.5008 11.745 23.5008 11.645L23.5058 11.46L23.6058 11.48C23.6558 11.495 23.7708 11.495 23.8558 11.48L24.0058 11.46L23.8708 11.36C23.7958 11.31 23.7208 11.245 23.7008 11.215C23.6858 11.185 23.6158 11.155 23.5408 11.15C23.3358 11.13 22.9708 10.93 22.9708 10.83C22.9708 10.81 23.0208 10.845 23.0808 10.9C23.2208 11.025 23.4108 11.1 23.5808 11.1H23.7008L23.6258 11C23.5724 10.9225 23.5381 10.8334 23.5258 10.74C23.5158 10.59 23.5008 10.57 23.3458 10.465C23.256 10.4013 23.1723 10.3293 23.0958 10.25L23.0108 10.155L22.9658 10.27C22.9408 10.335 22.9158 10.385 22.9008 10.385C22.8908 10.385 22.8408 10.345 22.8008 10.3C22.7727 10.2674 22.7388 10.2403 22.7008 10.22C22.6858 10.22 22.6508 10.28 22.6108 10.355L22.5408 10.49L22.4908 10.415C22.4464 10.3537 22.3961 10.2968 22.3408 10.245C22.2808 10.195 22.2558 10.155 22.2758 10.155C22.2958 10.155 22.3608 10.205 22.4258 10.27L22.5358 10.385L22.5858 10.3C22.6147 10.2411 22.6235 10.1744 22.6108 10.11C22.5908 10.02 22.5958 10.015 22.6258 10.075C22.669 10.1314 22.7194 10.1819 22.7758 10.225L22.8858 10.315L22.9608 10.18C23.0358 10.04 23.0358 10.04 23.0658 10.125C23.1158 10.23 23.4408 10.5 23.7158 10.655C23.7658 10.68 23.7458 10.6 23.6658 10.405C23.6418 10.3409 23.6283 10.2734 23.6258 10.205C23.6258 10.115 23.6008 10.075 23.4858 9.98501C23.4143 9.9393 23.3545 9.87752 23.3111 9.8046C23.2677 9.73169 23.2419 9.64964 23.2358 9.56501C23.2208 9.48001 23.1908 9.39001 23.1658 9.36001C23.1358 9.31001 23.1258 9.34001 23.1358 9.49001C23.1458 9.59501 23.1308 9.72501 23.1058 9.78001L23.0658 9.88001L23.0358 9.79501C23.0158 9.75001 22.9358 9.67001 22.8608 9.62001C22.7858 9.57001 22.7308 9.52001 22.7408 9.51001C22.7508 9.50001 22.8308 9.54501 22.9158 9.61001C23.0508 9.71501 23.0758 9.72501 23.0958 9.68001C23.1158 9.63001 23.0958 9.40001 23.0558 9.24001C23.0358 9.16001 23.0358 9.16001 23.1358 9.26001C23.2058 9.33001 23.2458 9.42001 23.2808 9.57001C23.3208 9.76001 23.3408 9.79501 23.5158 9.95001C23.6208 10.045 23.7158 10.115 23.7208 10.11C23.7308 10.1 23.7408 9.86001 23.7508 9.57001C23.7708 9.01501 23.7508 8.88001 23.6158 8.71001L23.5458 8.62001L23.6558 8.50501C23.7791 8.38713 23.8614 8.23297 23.8908 8.06501L23.9108 7.93001L23.7908 8.04501C23.6908 8.14001 23.6408 8.16001 23.5258 8.16001C23.4108 8.16001 23.3658 8.14001 23.2908 8.06001C23.174 7.94754 23.0316 7.86517 22.8758 7.82001C22.8158 7.80001 22.7958 7.81001 22.7958 7.85001C22.7958 7.88001 22.7658 7.96001 22.7258 8.03501L22.6558 8.16501L22.5058 8.01501C22.4108 7.93001 22.3058 7.85501 22.2208 7.83501C22.0158 7.78501 22.0058 7.78501 22.0058 7.94001C22.0058 8.17501 21.9058 8.22001 21.7258 8.06501C21.5858 7.94501 21.4758 7.91501 21.2108 7.95001L21.0108 7.97001L21.0458 8.06001C21.0758 8.13501 21.0708 8.17001 21.0058 8.25501C20.9008 8.39501 20.7658 8.45501 20.5558 8.45501C20.4558 8.45501 20.3358 8.47501 20.2858 8.50001C20.2358 8.52501 20.1058 8.55001 20.0008 8.56001C19.9008 8.57001 19.7858 8.59001 19.7508 8.60001C19.7008 8.62001 19.7008 8.60001 19.7158 8.49001C19.7408 8.32001 19.6158 8.19001 19.4308 8.19001C19.1858 8.19001 19.0758 8.41001 19.1708 8.70001C19.1903 8.76258 19.207 8.82597 19.2208 8.89001C19.2865 9.01504 19.3746 9.1269 19.4808 9.22001C19.6108 9.35001 19.7308 9.48501 19.7508 9.52001C19.7911 9.57215 19.8423 9.61482 19.9008 9.64501L20.0108 9.70501L19.9958 9.58501C19.9808 9.45501 20.0058 9.43501 20.0758 9.53001C20.1008 9.56001 20.1658 9.61501 20.2158 9.64501C20.3008 9.69501 20.3158 9.69501 20.3158 9.65501C20.3158 9.62501 20.3308 9.56001 20.3508 9.51001L20.3858 9.42001L20.4508 9.54501C20.4858 9.61501 20.6008 9.77001 20.7058 9.89501C20.9108 10.13 21.0408 10.395 20.9758 10.455C20.9458 10.48 20.8758 10.48 20.7258 10.45C20.6158 10.43 20.4758 10.415 20.4158 10.425C20.3008 10.44 20.2908 10.425 20.3658 10.335C20.4408 10.235 20.4258 10.22 20.2758 10.22C20.1008 10.22 19.6658 10.135 19.4958 10.07C19.3358 10.005 19.2958 10.02 19.2458 10.175L19.1608 10.455L19.1108 10.605L19.2908 10.59C19.3836 10.5803 19.4756 10.5636 19.5658 10.54C19.6013 10.5282 19.6386 10.5231 19.6758 10.525C19.6858 10.53 19.6608 10.59 19.6258 10.66L19.5558 10.78L19.6658 10.76C19.7258 10.745 19.8158 10.715 19.8658 10.69C19.9558 10.65 19.9658 10.65 20.0358 10.765C20.1208 10.9 20.1858 10.895 20.2008 10.75C20.2158 10.6 20.2658 10.62 20.3608 10.82C20.4508 11.01 20.5408 11.08 20.5608 10.97C20.5658 10.93 20.6108 10.87 20.6658 10.83C20.7758 10.755 20.8558 10.78 20.9008 10.895C20.9508 11.02 20.8408 11.145 20.5308 11.335C20.2438 11.4935 19.9967 11.7156 19.8087 11.9842C19.6206 12.2529 19.4965 12.561 19.4458 12.885C19.3508 13.475 19.6458 14.085 20.2258 14.53C20.5058 14.74 20.9508 14.96 20.9208 14.88C20.8008 14.515 20.8058 13.83 20.9258 13.715C20.9458 13.695 20.9408 13.765 20.9108 13.87C20.8108 14.265 20.8608 14.575 21.1108 15.305C21.3308 15.965 21.3008 16.25 20.9808 16.435C20.8808 16.495 20.8158 16.505 20.5408 16.5C20.2408 16.5 20.2058 16.5 20.1108 16.58C19.996 16.6973 19.9208 16.8477 19.8958 17.01C19.8958 17.075 19.9658 17.065 20.0958 16.99H20.1008Z" fill="#FFBF18"/>
<path d="M24.9507 16.9751L25.0757 16.8951L25.1607 16.9751C25.2707 17.0801 25.4057 17.0751 25.5107 16.9701C25.5607 16.9201 25.6007 16.8901 25.6057 16.8951L25.6507 16.9751C25.6757 17.0201 25.7307 17.0401 25.8307 17.0501C25.9457 17.0551 25.9807 17.0501 26.0307 16.9801L26.0807 16.8951L26.2057 16.9751C26.5457 17.1951 26.7257 16.9651 26.5707 16.5101C26.4957 16.2801 26.5407 16.1501 26.7857 15.8601C26.8907 15.7351 26.9757 15.6001 26.9757 15.5601C26.9757 15.5051 26.9557 15.4951 26.8157 15.5001C26.6857 15.5001 26.6457 15.4851 26.5757 15.4101C26.4607 15.2851 26.4707 15.1401 26.5957 14.9801L26.6957 14.8551L26.5157 14.7351C26.372 14.6289 26.2381 14.5101 26.1157 14.3801C26.0066 14.2513 25.8731 14.1452 25.723 14.068C25.5728 13.9908 25.409 13.9439 25.2407 13.9301L25.0057 13.9051V14.0851C25.0057 14.3101 25.1157 14.5301 25.4057 14.9001C25.7357 15.3201 25.7557 15.3851 25.7707 15.9351L25.7857 16.4001L25.6857 16.4901C25.6007 16.5701 25.5657 16.5851 25.2857 16.6001C25.0207 16.6151 24.9607 16.6301 24.8857 16.7001C24.7979 16.7641 24.7373 16.8586 24.7157 16.9651C24.7007 17.0401 24.7057 17.0551 24.7607 17.0551C24.7957 17.0551 24.8807 17.0201 24.9507 16.9751ZM17.8407 15.7751C17.8709 15.7307 17.8882 15.6787 17.8907 15.6251C17.8907 15.5751 17.9207 15.5551 18.0507 15.5351L18.2057 15.5151L18.1057 15.4301C17.9807 15.3301 17.9657 15.2551 18.0757 15.2551C18.1857 15.2551 18.3657 15.1451 18.3957 15.0601C18.4107 15.0201 18.3957 14.9701 18.3757 14.9451C18.3157 14.8751 18.2007 14.8851 18.1807 14.9651C18.1557 15.0451 18.1207 15.0451 18.0307 14.9651C17.9057 14.8401 17.9007 14.5851 18.0307 14.4351C18.0857 14.3651 18.0857 14.3651 18.0107 14.2901C17.9307 14.2101 17.8707 14.0601 17.9107 14.0201C17.9207 14.0101 17.9857 14.0201 18.0507 14.0451C18.1507 14.0751 18.1857 14.0751 18.2257 14.0451C18.3407 13.9501 18.2157 13.8301 18.0257 13.8601C17.9457 13.8701 17.9157 13.8601 17.9057 13.8201C17.8957 13.7901 17.8307 13.7501 17.7557 13.7301C17.6207 13.6951 17.6207 13.6951 17.6207 13.7901C17.6207 13.8901 17.5607 13.9101 17.4507 13.8451C17.3607 13.7951 17.2757 13.8351 17.2757 13.9301C17.2757 14.0201 17.3607 14.0601 17.5257 14.0501C17.6457 14.0451 17.6507 14.1351 17.5357 14.2651L17.4507 14.3651L17.5157 14.4601C17.6157 14.6001 17.6057 14.8351 17.5007 14.9551L17.4157 15.0451L17.3607 14.9701C17.2807 14.8701 17.1757 14.8751 17.1457 14.9851C17.1307 15.0551 17.1457 15.0851 17.2357 15.1651C17.2957 15.2151 17.3857 15.2551 17.4307 15.2551C17.5457 15.2551 17.5407 15.3501 17.4207 15.4401L17.3207 15.5151L17.4707 15.5351C17.5507 15.5501 17.6207 15.5701 17.6207 15.5851C17.6207 15.6501 17.7207 15.8451 17.7507 15.8451C17.7707 15.8451 17.8107 15.8101 17.8407 15.7701V15.7751Z" fill="#FFBF18"/>
<path d="M19.7506 14.9449C19.8856 14.8949 20.1756 14.6449 20.1756 14.5899C20.1756 14.5699 20.0956 14.4799 19.9956 14.3899C19.7956 14.2099 19.5706 13.8949 19.5106 13.7149C19.4806 13.6149 19.3356 13.4549 18.9256 13.0549L18.3806 12.5299L18.2256 12.5699C18.1356 12.5899 18.0306 12.6099 17.9906 12.6099C17.9156 12.6099 17.9156 12.6099 18.0156 12.6899L18.1156 12.7699L18.2656 12.6899C18.4006 12.6099 18.4056 12.6099 18.4206 12.6749C18.4306 12.7099 18.4106 12.7749 18.3706 12.8199C18.3356 12.8649 18.3156 12.9199 18.3206 12.9349C18.3356 12.9499 18.3006 12.9849 18.2456 13.0149C18.1456 13.0649 18.0706 13.2299 18.1506 13.2299C18.2256 13.2299 18.3856 13.0299 18.3656 12.9649C18.3556 12.9299 18.3656 12.8949 18.3756 12.8849C18.4406 12.8499 18.4356 13.0049 18.3756 13.0849C18.3356 13.1249 18.3156 13.1749 18.3256 13.1949C18.3356 13.2099 18.3006 13.2449 18.2456 13.2749C18.1456 13.3249 18.0706 13.4899 18.1506 13.4899C18.2306 13.4899 18.3856 13.2999 18.3706 13.2299C18.3606 13.1949 18.3606 13.1549 18.3756 13.1449C18.4206 13.1249 18.4406 13.2449 18.4056 13.3049C18.3964 13.3218 18.3916 13.3407 18.3916 13.3599C18.3916 13.3791 18.3964 13.398 18.4056 13.4149C18.4406 13.4799 18.4056 13.5999 18.3406 13.6399C18.3156 13.6549 18.3306 13.6899 18.4006 13.7399C18.5006 13.8099 18.5006 13.8199 18.5006 14.1399C18.5006 14.4099 18.5106 14.4799 18.5606 14.5249C18.6106 14.5749 18.6206 14.5749 18.6206 14.5249C18.6206 14.4749 18.7206 14.4049 18.7956 14.4049C18.8206 14.4049 18.9656 14.5299 19.1206 14.6799C19.2756 14.8299 19.4406 14.9649 19.4856 14.9699L19.5956 14.9899C19.6106 14.9899 19.6806 14.9749 19.7506 14.9399V14.9449ZM18.0856 13.6399C18.0856 13.5549 17.9056 13.4599 17.6906 13.4399C17.5156 13.4149 17.5156 13.4199 17.5156 13.5049C17.5156 13.5749 17.5406 13.6049 17.6656 13.6549C17.8556 13.7399 18.0856 13.7299 18.0856 13.6399Z" fill="#FFBF18"/>
<path d="M18.2807 13.6299C18.3707 13.5499 18.4107 13.4599 18.3557 13.4599C18.2957 13.4599 18.1357 13.5999 18.1357 13.6599C18.1357 13.7399 18.1657 13.7349 18.2857 13.6299H18.2807ZM18.0957 13.3749C18.1007 13.3249 18.0707 13.2949 17.9807 13.2499C17.7807 13.1649 17.5507 13.1199 17.4957 13.1649C17.3907 13.2499 17.4607 13.3599 17.6257 13.3799C17.6957 13.3849 17.7857 13.4049 17.8307 13.4249C17.9607 13.4749 18.0807 13.4499 18.0957 13.3749ZM18.0957 13.1099C18.1057 13.0449 18.0607 13.0199 17.6957 12.8899C17.4207 12.7899 17.3007 12.8399 17.3907 13.0049C17.4207 13.0599 17.4707 13.0849 17.5857 13.1049C17.6707 13.1149 17.7857 13.1399 17.8407 13.1599C17.9907 13.2099 18.0807 13.1899 18.0907 13.1099H18.0957ZM18.2757 12.8649C18.3307 12.8099 18.3757 12.7449 18.3757 12.7149C18.3757 12.6399 18.1607 12.7799 18.1307 12.8799C18.1007 12.9949 18.1557 12.9899 18.2807 12.8649H18.2757ZM18.0957 12.8499C18.1057 12.7699 17.9757 12.6999 17.7157 12.6449C17.5207 12.5999 17.4357 12.6249 17.4507 12.7149C17.4607 12.7649 17.5257 12.7999 17.7007 12.8549C17.9957 12.9449 18.0807 12.9449 18.0957 12.8499ZM18.3457 12.4799C18.6857 12.3299 18.7107 11.9549 18.3957 11.8549C18.2657 11.8149 18.1857 11.8399 18.1357 11.9249C18.0957 11.9949 18.1207 12.1149 18.1707 12.1149C18.1907 12.1149 18.2057 12.1399 18.2057 12.1649C18.2057 12.2999 17.6957 12.3549 17.4857 12.2499C17.4107 12.2149 17.3857 12.1149 17.4407 12.1149C17.4907 12.1149 17.5207 12.0149 17.4957 11.9499C17.4657 11.8499 17.3657 11.8199 17.2307 11.8599C16.9157 11.9399 16.9257 12.3099 17.2457 12.4599C17.5997 12.5899 17.9872 12.5969 18.3457 12.4799Z" fill="#FFBF18"/>
<path d="M18.1408 12.19C18.1608 12.17 18.1508 12.14 18.1208 12.12C18.0508 12.065 18.0558 11.98 18.1308 11.885C18.1908 11.815 18.1958 11.705 18.2158 10.63C18.2508 8.775 18.3908 7.38 18.5708 7.04C18.6458 6.91 18.6358 6.91 18.4458 7.04C18.1965 7.21367 17.9953 7.4476 17.8608 7.72C17.5508 8.295 17.4458 9.07 17.4458 10.73C17.4458 11.67 17.4508 11.795 17.5058 11.88C17.5558 11.97 17.5558 12 17.5258 12.09C17.5008 12.145 17.4908 12.205 17.5008 12.215C17.5708 12.28 18.0708 12.265 18.1408 12.19ZM20.9458 10.42C20.9608 10.405 20.9358 10.32 20.8958 10.24C20.8358 10.11 20.8108 10.09 20.7258 10.09C20.326 10.0553 19.9361 9.94676 19.5758 9.77C19.3208 9.655 19.2258 9.63001 19.2008 9.66001C19.1208 9.73501 19.2508 9.91 19.4508 10.005C19.7451 10.1111 20.0534 10.1734 20.3658 10.19C20.5008 10.19 20.5058 10.19 20.4258 10.305L20.3758 10.385H20.5258L20.7758 10.415C20.9258 10.45 20.9258 10.45 20.9458 10.42Z" fill="#FFBF18"/>
<path d="M22.5259 11.2551C22.5259 11.2051 22.3809 11.0801 22.2409 10.9951C22.1259 10.9301 22.1059 10.9251 22.1059 10.9801C22.1059 11.0601 22.0359 11.2651 22.0059 11.2651C21.9909 11.2651 21.9659 11.2251 21.9559 11.1801C21.9409 11.1301 21.8859 11.0301 21.8309 10.9651L21.7309 10.8401L21.6609 10.9551C21.5909 11.0651 21.4659 11.1701 21.4109 11.1701C21.4009 11.1701 21.3959 11.1101 21.4109 11.0451C21.4159 10.9651 21.4109 10.9051 21.3859 10.8951C21.3659 10.8801 21.3459 10.8851 21.3459 10.9051C21.3459 10.9451 21.1759 11.1351 21.1459 11.1351C21.1259 11.1351 21.1059 11.0851 21.0959 11.0151L21.0559 10.7751C21.0459 10.7151 21.0709 10.7551 21.1059 10.8751L21.1859 11.0801L21.2659 10.9551C21.3021 10.9034 21.3291 10.8459 21.3459 10.7851C21.3459 10.7601 21.3609 10.7501 21.3809 10.7601C21.4009 10.7701 21.4259 10.8551 21.4359 10.9451L21.4609 11.1151L21.5509 11.0151C21.598 10.9649 21.6414 10.9115 21.6809 10.8551C21.7159 10.7951 21.7209 10.7951 21.7959 10.8551C21.8359 10.8951 21.9009 10.9801 21.9409 11.0501C21.9809 11.1201 22.0159 11.1701 22.0209 11.1651L22.0509 11.0051L22.0709 10.8551C22.0759 10.8301 22.3409 11.0051 22.4409 11.0901C22.5009 11.1451 22.5609 11.1851 22.5709 11.1751C22.5809 11.1651 22.5909 11.0851 22.5909 10.9901C22.5909 10.8501 22.5759 10.8101 22.4909 10.7351C22.3909 10.6451 22.3909 10.6451 22.3509 10.7101C22.3009 10.7951 22.2459 10.7951 22.2459 10.7101C22.2459 10.6501 22.0559 10.4151 22.0109 10.4151C21.9959 10.4151 21.9559 10.4651 21.9209 10.5301C21.8859 10.5951 21.8459 10.6451 21.8359 10.6451C21.7859 10.6451 21.5209 10.3451 21.5209 10.2951C21.5209 10.2551 21.5409 10.2651 21.5859 10.3351C21.6306 10.4008 21.6826 10.4611 21.7409 10.5151C21.8409 10.6051 21.8809 10.5851 21.9209 10.4101C21.9359 10.3601 21.9559 10.3201 21.9709 10.3201C22.0109 10.3201 22.2409 10.5651 22.2709 10.6451L22.3059 10.7251L22.3309 10.6351C22.3609 10.5251 22.3959 10.5251 22.4459 10.6251C22.4659 10.6651 22.5659 10.7551 22.6659 10.8151L22.8509 10.9351L22.8859 10.8151C22.9059 10.7501 22.9359 10.7151 22.9459 10.7351C22.9659 10.7601 22.9159 10.9601 22.8809 11.0001C22.8809 11.0051 22.8159 10.9701 22.7509 10.9251L22.6259 10.8351V10.9951C22.6259 11.0801 22.6159 11.1851 22.6059 11.2251C22.5809 11.3051 22.5209 11.3251 22.5209 11.2551H22.5259ZM21.6009 9.98508C21.3809 9.80508 21.3509 9.76508 21.3509 9.67508L21.3559 9.58508L21.3709 9.67008C21.3809 9.72008 21.4409 9.80008 21.5109 9.86008L21.6409 9.96008L21.7159 9.87008C21.7609 9.82008 21.7959 9.76008 21.7959 9.74008C21.7959 9.68008 21.8059 9.68508 21.9559 9.81508C22.0859 9.93008 22.0909 9.93008 22.1059 9.85508C22.1209 9.81508 22.1159 9.73508 22.1059 9.68008C22.0559 9.53008 22.0659 9.51008 22.1309 9.60008L22.2509 9.74008C22.3009 9.79508 22.3059 9.79508 22.3259 9.72508C22.3409 9.68008 22.3509 9.60508 22.3509 9.55508V9.46008L22.4659 9.59508C22.5809 9.72508 22.5909 9.73008 22.6209 9.66508C22.6459 9.63008 22.6609 9.54508 22.6609 9.48008C22.6609 9.39008 22.6709 9.37008 22.6909 9.40008C22.7309 9.46008 22.7059 9.61008 22.6359 9.74008L22.5859 9.84008L22.5209 9.73508C22.4359 9.60508 22.4059 9.60508 22.3559 9.74508C22.3059 9.88008 22.2709 9.89008 22.2209 9.78508C22.1909 9.72008 22.1809 9.73008 22.1609 9.87008L22.1359 10.0201L21.9859 9.90508L21.8359 9.79008L21.7609 9.86508C21.7259 9.91008 21.6959 9.96508 21.6959 9.98508C21.6959 10.0351 21.6559 10.0351 21.6009 9.98508ZM23.5509 9.30508C23.4759 9.23508 23.4209 9.16508 23.4309 9.15508C23.4459 9.14008 23.4559 9.13508 23.4609 9.14508C23.5093 9.19665 23.5593 9.24668 23.6109 9.29508C23.7809 9.47508 23.7459 9.48008 23.5559 9.30508H23.5509ZM20.9509 9.03508C20.8809 8.93508 20.8859 8.87508 20.9759 8.76508C21.0359 8.69008 21.0659 8.68008 21.1759 8.69508C21.2509 8.70008 21.4059 8.76508 21.5209 8.83508C21.6871 8.93437 21.8773 8.98625 22.0709 8.98508L21.9859 8.84508C21.8759 8.68008 21.8759 8.66008 22.0059 8.76008C22.1359 8.86508 22.2909 8.89508 22.6409 8.88508L22.8109 8.88008L22.7109 8.78008C22.5759 8.64508 22.6159 8.63008 22.7709 8.76508C22.9109 8.89008 22.9059 8.90008 22.6009 8.93008C22.4737 8.94293 22.3453 8.93448 22.2209 8.90508C22.0509 8.85508 22.0409 8.86008 22.0759 8.91508C22.0959 8.95008 22.1259 8.97508 22.1409 8.97508C22.1609 8.97508 22.1759 8.99508 22.1759 9.01508C22.1759 9.08008 21.8059 9.02008 21.6259 8.93508C21.2259 8.73008 21.1759 8.71008 21.0759 8.74008C21.0492 8.75033 21.0249 8.76577 21.0043 8.78552C20.9837 8.80526 20.9672 8.82891 20.9559 8.85508C20.8909 9.02008 21.1259 9.15008 21.2209 9.00508C21.2509 8.96008 21.2459 8.93508 21.1959 8.88008C21.1259 8.81008 21.1359 8.80008 21.2259 8.83008C21.2909 8.85508 21.2959 9.01008 21.2359 9.07008C21.1709 9.13508 21.0109 9.12008 20.9509 9.03508Z" fill="#000001"/>
<path d="M22.546 8.63C22.496 8.58 22.536 8.57 22.761 8.565C23.041 8.56 23.211 8.515 23.411 8.385C23.571 8.285 23.616 8.305 23.461 8.41C23.326 8.51 23.111 8.58 22.896 8.6L22.641 8.635C22.601 8.645 22.556 8.64 22.541 8.63H22.546Z" fill="#000001"/>
</g>
<defs>
<clipPath id="clip0_11930_68109">
<rect width="36" height="24" rx="2" fill="white"/>
</clipPath>
</defs>
</svg>
