<svg width="36" height="24" viewBox="0 0 36 24" fill="none" xmlns="http://www.w3.org/2000/svg">
<g clip-path="url(#clip0_11930_68135)">
<path d="M0 0H36V24H0V0Z" fill="#239E46"/>
<path d="M0 0H36V18H0V0Z" fill="#000001"/>
<path d="M0 0H36V6H0V0Z" fill="#E70013"/>
<path d="M20.1232 9.8784C19.7335 9.60029 19.2747 9.4349 18.7971 9.40038C18.3196 9.36587 17.8418 9.46356 17.4161 9.68274C16.9904 9.90193 16.6333 10.2341 16.384 10.6429C16.1347 11.0517 16.0029 11.5212 16.0029 12C16.0029 12.4788 16.1347 12.9483 16.384 13.3571C16.6333 13.7659 16.9904 14.0981 17.4161 14.3173C17.8418 14.5364 18.3196 14.6341 18.7971 14.5996C19.2747 14.5651 19.7335 14.3997 20.1232 14.1216C19.7036 14.5411 19.1691 14.8267 18.5872 14.9424C18.0053 15.0581 17.4021 14.9987 16.854 14.7716C16.3058 14.5445 15.8373 14.16 15.5077 13.6666C15.1781 13.1733 15.0022 12.5933 15.0022 12C15.0022 11.4067 15.1781 10.8267 15.5077 10.3334C15.8373 9.84004 16.3058 9.45552 16.854 9.22844C17.4021 9.00135 18.0053 8.9419 18.5872 9.05759C19.1691 9.17328 19.7036 9.45892 20.1232 9.8784ZM19.4608 12L23.4976 10.6896L21.0016 14.1216V9.8784L23.4976 13.3104L19.4608 12Z" fill="white"/>
</g>
<defs>
<clipPath id="clip0_11930_68135">
<rect width="36" height="24" rx="2" fill="white"/>
</clipPath>
</defs>
</svg>
