<svg width="36" height="24" viewBox="0 0 36 24" fill="none" xmlns="http://www.w3.org/2000/svg">
<rect width="36" height="24" rx="2" fill="#E33B44"/>
<mask id="path-2-inside-1_11930_68150" fill="white">
<path fill-rule="evenodd" clip-rule="evenodd" d="M17.8907 7L19.0478 10.5623H22.7814L19.7597 12.754L20.9118 16.3008L17.8907 14.1096L14.8696 16.3008L16.0217 12.754L13 10.5623H16.7336L17.8907 7ZM16.4878 11.3189H15.3318L16.2674 11.9975L16.4878 11.3189ZM16.9112 12.4645L17.2834 11.3189H18.498L18.8701 12.4645L17.8907 13.1749L16.9112 12.4645ZM16.6655 13.2209L16.3075 14.3232L17.2464 13.6422L16.6655 13.2209ZM18.535 13.6422L19.4739 14.3232L19.1158 13.2209L18.535 13.6422ZM19.514 11.9975L20.4496 11.3189H19.2935L19.514 11.9975ZM18.2523 10.5623H17.5291L17.8907 9.44911L18.2523 10.5623Z"/>
</mask>
<path d="M17.8907 7L19.5308 6.46727L17.8907 1.41798L16.2506 6.46727L17.8907 7ZM19.0478 10.5623L17.4077 11.095L17.7948 12.2867H19.0478V10.5623ZM22.7814 10.5623L23.7939 11.9582L28.0959 8.83781H22.7814V10.5623ZM19.7597 12.754L18.7472 11.358L17.7322 12.0942L18.1196 13.2867L19.7597 12.754ZM20.9118 16.3008L19.8993 17.6968L24.189 20.8082L22.5519 15.7681L20.9118 16.3008ZM17.8907 14.1096L18.9032 12.7137L17.8907 11.9793L16.8782 12.7137L17.8907 14.1096ZM14.8696 16.3008L13.2295 15.7681L11.5924 20.8082L15.8821 17.6968L14.8696 16.3008ZM16.0217 12.754L17.6618 13.2867L18.0491 12.0942L17.0342 11.358L16.0217 12.754ZM13 10.5623V8.83781H7.68547L11.9875 11.9582L13 10.5623ZM16.7336 10.5623V12.2867H17.9866L18.3737 11.095L16.7336 10.5623ZM15.3318 11.3189V9.59442H10.0172L14.3193 12.7148L15.3318 11.3189ZM16.4878 11.3189L18.1279 11.8516L18.8611 9.59442H16.4878V11.3189ZM16.2674 11.9975L15.2549 13.3934L17.1748 14.786L17.9075 12.5302L16.2674 11.9975ZM16.9112 12.4645L15.2711 11.9318L14.8838 13.1243L15.8987 13.8604L16.9112 12.4645ZM17.2834 11.3189V9.59442H16.0304L15.6433 10.7861L17.2834 11.3189ZM18.498 11.3189L20.1381 10.7861L19.751 9.59442H18.498V11.3189ZM18.8701 12.4645L19.8826 13.8604L20.8976 13.1243L20.5102 11.9318L18.8701 12.4645ZM17.8907 13.1749L16.8782 14.5708L17.8907 15.3052L18.9032 14.5708L17.8907 13.1749ZM16.3075 14.3232L14.6674 13.7905L13.0303 18.8306L17.32 15.7192L16.3075 14.3232ZM16.6655 13.2209L17.678 11.825L15.7581 10.4325L15.0254 12.6882L16.6655 13.2209ZM17.2464 13.6422L18.2589 15.0382L20.1834 13.6422L18.2589 12.2463L17.2464 13.6422ZM19.4739 14.3232L18.4614 15.7192L22.7511 18.8306L21.114 13.7905L19.4739 14.3232ZM18.535 13.6422L17.5225 12.2463L15.598 13.6422L17.5225 15.0382L18.535 13.6422ZM19.1158 13.2209L20.7559 12.6882L20.0232 10.4325L18.1034 11.825L19.1158 13.2209ZM20.4496 11.3189L21.4621 12.7148L25.7642 9.59442H20.4496V11.3189ZM19.514 11.9975L17.8739 12.5302L18.6066 14.786L20.5265 13.3934L19.514 11.9975ZM19.2935 11.3189V9.59442H16.9203L17.6534 11.8516L19.2935 11.3189ZM18.2523 10.5623V12.2867H20.6255L19.8924 10.0295L18.2523 10.5623ZM17.5291 10.5623L15.889 10.0295L15.1558 12.2867H17.5291V10.5623ZM17.8907 9.44911L19.5308 8.91638L17.8907 3.86709L16.2506 8.91638L17.8907 9.44911ZM15.3318 13.0433H16.4878V9.59442H15.3318V13.0433ZM17.2799 10.6016L16.3442 9.92295L14.3193 12.7148L15.2549 13.3934L17.2799 10.6016ZM14.8477 10.7861L14.6273 11.4648L17.9075 12.5302L18.1279 11.8516L14.8477 10.7861ZM18.5513 12.9972L18.9235 11.8516L15.6433 10.7861L15.2711 11.9318L18.5513 12.9972ZM17.2834 13.0433H18.498V9.59442H17.2834V13.0433ZM16.8579 11.8516L17.23 12.9972L20.5102 11.9318L20.1381 10.7861L16.8579 11.8516ZM17.8576 11.0686L16.8782 11.779L18.9032 14.5708L19.8826 13.8604L17.8576 11.0686ZM18.9032 11.779L17.9237 11.0686L15.8987 13.8604L16.8782 14.5708L18.9032 11.779ZM17.9476 14.856L18.3056 13.7537L15.0254 12.6882L14.6674 13.7905L17.9476 14.856ZM16.2339 12.2463L15.295 12.9273L17.32 15.7192L18.2589 15.0382L16.2339 12.2463ZM15.653 14.6169L16.2339 15.0382L18.2589 12.2463L17.678 11.825L15.653 14.6169ZM20.4864 12.9273L19.5475 12.2463L17.5225 15.0382L18.4614 15.7192L20.4864 12.9273ZM17.4757 13.7537L17.8338 14.856L21.114 13.7905L20.7559 12.6882L17.4757 13.7537ZM19.5475 15.0382L20.1283 14.6169L18.1034 11.825L17.5225 12.2463L19.5475 15.0382ZM19.4371 9.92295L18.5015 10.6016L20.5265 13.3934L21.4621 12.7148L19.4371 9.92295ZM19.2935 13.0433H20.4496V9.59442H19.2935V13.0433ZM21.1541 11.4648L20.9336 10.7861L17.6534 11.8516L17.8739 12.5302L21.1541 11.4648ZM18.2523 8.83781H17.5291V12.2867H18.2523V8.83781ZM19.1692 11.095L19.5308 9.98184L16.2506 8.91638L15.889 10.0295L19.1692 11.095ZM16.2506 9.98184L16.6122 11.095L19.8924 10.0295L19.5308 8.91638L16.2506 9.98184ZM20.6879 10.0295L19.5308 6.46727L16.2506 7.53273L17.4077 11.095L20.6879 10.0295ZM22.7814 8.83781H19.0478V12.2867H22.7814V8.83781ZM20.7722 14.1499L23.7939 11.9582L21.7689 9.16634L18.7472 11.358L20.7722 14.1499ZM22.5519 15.7681L21.3998 12.2212L18.1196 13.2867L19.2717 16.8336L22.5519 15.7681ZM16.8782 15.5055L19.8993 17.6968L21.9243 14.9049L18.9032 12.7137L16.8782 15.5055ZM15.8821 17.6968L18.9032 15.5055L16.8782 12.7137L13.8571 14.9049L15.8821 17.6968ZM14.3816 12.2212L13.2295 15.7681L16.5097 16.8336L17.6618 13.2867L14.3816 12.2212ZM11.9875 11.9582L15.0092 14.1499L17.0342 11.358L14.0125 9.16634L11.9875 11.9582ZM16.7336 8.83781H13V12.2867H16.7336V8.83781ZM16.2506 6.46727L15.0935 10.0295L18.3737 11.095L19.5308 7.53273L16.2506 6.46727Z" fill="#0A6135" mask="url(#path-2-inside-1_11930_68150)"/>
</svg>
