<svg width="36" height="24" viewBox="0 0 36 24" fill="none" xmlns="http://www.w3.org/2000/svg">
<g clip-path="url(#clip0_6903_4738)">
<path d="M0 0H36V24H0V0Z" fill="#012A87"/>
<path d="M0 0H36V12H0V0Z" fill="#DC171D"/>
<path d="M0 0V24L16 12L0 0Z" fill="white"/>
<path d="M8.08288 9.05862L8.08778 8.87282C8.08778 8.87282 7.98801 8.71391 8.10381 8.54316C8.10381 8.54316 7.85782 8.41303 7.91506 8.20925C7.91506 8.20925 7.69263 8.15238 7.70899 7.90771C7.70899 7.90771 7.4689 7.89107 7.44404 7.68666C7.44404 7.68666 7.20394 7.7262 7.09828 7.52703C7.09828 7.52703 6.86408 7.57282 6.798 7.40864C6.798 7.40864 6.57034 7.48749 6.43524 7.2945C6.43524 7.2945 6.19482 7.39164 6.09407 7.20947C5.99463 7.39102 5.75421 7.2945 5.75421 7.2945C5.62075 7.48681 5.39145 7.40701 5.39145 7.40701C5.32766 7.57184 5.09411 7.52507 5.09411 7.52507C4.98878 7.72427 4.74902 7.68467 4.74902 7.68467C4.72546 7.88845 4.48569 7.9051 4.48569 7.9051C4.50466 8.15038 4.28256 8.20601 4.28256 8.20601C4.34111 8.40976 4.09546 8.53957 4.09546 8.53957C4.2142 8.7113 4.11541 8.86893 4.11541 8.86893L4.10985 9.04027L8.08353 9.05862H8.08292H8.08288Z" fill="#F9D90F" stroke="black" stroke-width="0.0213333"/>
<path d="M6.10117 7.93871C6.20764 8.04621 6.1081 8.10495 6.00989 8.04977C5.76711 7.86605 5.48338 7.76417 5.09312 7.87524C4.5324 7.87729 3.93674 7.84354 3.66438 8.141C3.64499 8.19839 3.49293 8.41461 4.0811 8.09737C4.04443 8.31676 4.31804 8.13742 4.52956 8.03787C4.38382 8.19021 4.75268 8.21519 4.98596 8.06564C4.87129 8.21946 5.07271 8.21533 5.26377 8.21637C5.54323 8.22511 5.38886 8.46814 4.91056 8.47816C4.87568 8.47574 4.74158 8.53863 4.92246 8.58526C5.00624 8.58942 4.93809 8.70624 5.22806 8.5575C5.21004 8.64455 5.33429 8.62768 5.50983 8.57336C5.60939 8.65159 5.69019 8.5705 5.77574 8.52973C6.1421 8.67293 6.62587 8.81631 6.75601 8.3195C7.06177 8.28428 7.31485 8.23941 7.17784 8.12306C7.57616 8.28544 7.59922 8.22279 7.59317 8.14269C7.7842 8.21486 8.00637 8.31259 7.9159 8.15391C8.09955 8.20083 8.30069 8.21715 8.45751 8.31098C8.61642 8.39327 8.565 8.24949 8.52767 8.18476C8.44629 8.05455 8.34338 8.01614 8.11132 8.01138C7.91455 8.00735 6.99241 7.75027 6.51275 8.02769C6.51275 8.02769 6.52397 8.02769 6.51555 8.02769C6.50713 8.02769 6.3163 7.84818 6.3163 7.84818C6.36021 7.84701 6.3919 7.82492 6.41733 7.79209C6.60442 7.80151 6.79151 7.78359 6.97859 7.73319C7.06383 7.70659 7.11243 7.75732 7.11049 7.79489C7.18846 7.65775 7.08051 7.62935 7.00104 7.63502C6.68456 7.65295 6.49458 7.6364 6.34156 7.60977C6.03821 7.45844 5.6731 7.69061 6.01042 7.88184L6.10117 7.93871Z" fill="#BC715F" stroke="black" stroke-width="0.0213334"/>
<path d="M6.17241 7.67004C6.10893 7.67949 6.04341 7.6871 6.01807 7.73104C6.01993 7.65873 6.12762 7.65374 6.17241 7.67004Z" fill="black"/>
<path d="M6.13869 7.7248C6.1538 7.7248 6.16605 7.71224 6.16605 7.69675C6.16605 7.68126 6.1538 7.6687 6.13869 7.6687C6.12358 7.6687 6.11133 7.68126 6.11133 7.69675C6.11133 7.71224 6.12358 7.7248 6.13869 7.7248Z" fill="black"/>
<path d="M2.698 8.57458C2.82328 9.28558 2.96234 10.0143 3.03071 10.7586C3.17954 11.8611 2.50894 12.7867 2.78404 13.8757C2.94825 14.3983 3.52295 14.7021 4.04894 14.7623C4.74671 14.8942 5.59023 14.7627 6.09956 15.2846C6.60889 14.7626 7.45242 14.8942 8.15019 14.7623C8.67617 14.7021 9.25087 14.3983 9.41508 13.8757C9.69018 12.7867 9.01958 11.8611 9.16841 10.7586C9.23678 10.0143 9.37584 9.28558 9.50112 8.57458C8.27288 9.2414 7.05927 8.37393 6.09956 8.92854C5.13985 8.37393 3.92624 9.2414 2.698 8.57458Z" fill="#DC171D" stroke="black" stroke-width="0.0213333"/>
<path d="M3.15601 9.14893C3.26422 9.73555 3.38432 10.3368 3.44337 10.9509C3.57191 11.8605 2.99272 12.6242 3.23032 13.5228C3.37215 13.9539 3.86852 14.2046 4.32282 14.2542C4.92549 14.3631 5.65405 14.2544 6.09396 14.6852C6.53387 14.2545 7.26243 14.3631 7.8651 14.2542C8.3194 14.2046 8.81577 13.9539 8.9576 13.5228C9.1952 12.6242 8.616 11.8605 8.74455 10.9509C8.8036 10.3368 8.9237 9.73555 9.03191 9.14893C7.97107 9.69909 6.92287 8.98337 6.09396 9.44097C5.26505 8.98337 4.21685 9.69909 3.15601 9.14893Z" fill="#62AFE1" stroke="black" stroke-width="0.0213669"/>
<path d="M5.51814 10.7936L4.27686 11.6443V12.6685H7.91101V11.6443L6.66972 10.7936H5.51814Z" fill="white" stroke="black" stroke-width="0.048" stroke-linecap="round"/>
<path d="M3.98193 12.4989V12.6947H4.10147V13.7006H8.08622V12.6947H8.20575V12.4989H3.98193Z" fill="white" stroke="black" stroke-width="0.048" stroke-linecap="round"/>
<path d="M6.09379 9.68433L5.51807 10.2447V10.7936H6.66964V10.2447L6.09379 9.68433Z" fill="white" stroke="black" stroke-width="0.048" stroke-linecap="round"/>
<path d="M4.45605 11.7833H4.82018V12.36H4.45605V11.7833Z" fill="white" stroke="black" stroke-width="0.048" stroke-linecap="round"/>
<path d="M5.48975 11.7833H5.85387V12.36H5.48975V11.7833Z" fill="white" stroke="black" stroke-width="0.048" stroke-linecap="round"/>
<path d="M7.73155 11.7833H7.36743V12.36H7.73155V11.7833Z" fill="white" stroke="black" stroke-width="0.048" stroke-linecap="round"/>
<path d="M6.69786 11.7833H6.33374V12.36H6.69786V11.7833Z" fill="white" stroke="black" stroke-width="0.048" stroke-linecap="round"/>
<path d="M4.45605 12.786H4.82018V13.3626H4.45605V12.786Z" fill="white" stroke="black" stroke-width="0.048" stroke-linecap="round"/>
<path d="M7.73155 12.786H7.36743V13.3626H7.73155V12.786Z" fill="white" stroke="black" stroke-width="0.048" stroke-linecap="round"/>
<path d="M6.37917 12.7534H5.80835V13.7006H6.37917V12.7534Z" fill="white" stroke="black" stroke-width="0.048" stroke-linecap="round"/>
<path d="M5.47644 12.4989H5.22046V13.7006H5.47644V12.4989Z" fill="white" stroke="black" stroke-width="0.048" stroke-linecap="round"/>
<path d="M6.71118 12.4989H6.96729V13.7006H6.71118V12.4989Z" fill="white" stroke="black" stroke-width="0.048" stroke-linecap="round"/>
<path d="M7.06234 12.5401V12.2433H5.12549V12.5401H7.06234Z" fill="white" stroke="black" stroke-width="0.048" stroke-linecap="round"/>
<path d="M5.51807 10.2448H6.66964H5.51807Z" fill="white"/>
<path d="M5.51807 10.2448H6.66964" stroke="black" stroke-width="0.048"/>
<path d="M4.27686 11.6443H7.91101H4.27686Z" fill="white"/>
<path d="M4.27686 11.6443H7.91101" stroke="black" stroke-width="0.048"/>
<path d="M3.89062 13.5751H8.29698V13.8865H3.89062V13.5751Z" fill="white" stroke="black" stroke-width="0.048" stroke-linecap="round"/>
<path d="M6.31346 10.3635H5.87402V10.6748H6.31346V10.3635Z" fill="white" stroke="black" stroke-width="0.048" stroke-linecap="round"/>
<path d="M5.26367 12.2433V12.5401" stroke="black" stroke-width="0.0533333"/>
<path d="M6.92383 12.2433V12.5401" stroke="black" stroke-width="0.0533333"/>
<path d="M6.7854 12.2433V12.5401" stroke="black" stroke-width="0.0533333"/>
<path d="M6.64722 12.2433V12.5401" stroke="black" stroke-width="0.0533333"/>
<path d="M6.50879 12.2433V12.5401" stroke="black" stroke-width="0.0533333"/>
<path d="M6.37036 12.2433V12.5401" stroke="black" stroke-width="0.0533333"/>
<path d="M6.23218 12.2433V12.5401" stroke="black" stroke-width="0.0533333"/>
<path d="M6.09375 12.2433V12.5401" stroke="black" stroke-width="0.0533333"/>
<path d="M5.95532 12.2433V12.5401" stroke="black" stroke-width="0.0533333"/>
<path d="M5.81714 12.2433V12.5401" stroke="black" stroke-width="0.0533333"/>
<path d="M5.67871 12.2433V12.5401" stroke="black" stroke-width="0.0533333"/>
<path d="M5.54028 12.2433V12.5401" stroke="black" stroke-width="0.0533333"/>
<path d="M5.4021 12.2433V12.5401" stroke="black" stroke-width="0.0533333"/>
<path d="M7.06226 12.2635V12.5401" stroke="black" stroke-width="0.048"/>
<path d="M4.22697 9.62708C4.5005 9.80161 4.62985 9.96301 4.6305 10.1127C4.29008 10.0946 3.98227 9.93436 4.22697 9.62708Z" fill="#008830" stroke="black" stroke-width="0.024"/>
<path d="M4.44704 9.78589C4.71045 9.93574 4.85888 10.0989 4.90465 10.2739C4.63706 10.3205 4.35157 10.1942 4.44704 9.78589Z" fill="#008830" stroke="black" stroke-width="0.024"/>
<path d="M4.10663 10.0435C4.1421 10.3444 4.09868 10.5606 3.98484 10.7012C3.78869 10.5134 3.72115 10.2087 4.10663 10.0435Z" fill="#008830" stroke="black" stroke-width="0.024"/>
<path d="M4.10707 10.0443C4.35451 10.2193 4.48621 10.3962 4.51459 10.5749C4.24372 10.595 3.972 10.4413 4.10707 10.0443Z" fill="#008830" stroke="black" stroke-width="0.024"/>
<path d="M4.27141 9.80347L4.38543 9.87466L4.50779 9.86259L4.55913 9.94714C4.55913 9.94714 4.54536 10.1209 4.54527 10.1367C4.54517 10.1526 4.58308 10.2497 4.58308 10.2497L4.49979 10.3103L4.27672 10.4016L4.06809 10.2322L3.93657 10.2458L3.87891 10.0824L3.94372 9.94314L4.10654 9.83745L4.27141 9.80347Z" fill="#008830" stroke="black" stroke-width="0.024"/>
<path d="M4.05716 9.8899C3.94995 10.1733 3.81176 10.3452 3.64592 10.4176C3.55841 10.1605 3.6389 9.85894 4.05716 9.8899Z" fill="#008830" stroke="black" stroke-width="0.024"/>
<path d="M4.05664 9.91057C3.75927 9.85204 3.56673 9.7444 3.46777 9.59294C3.70676 9.4639 4.01757 9.49307 4.05664 9.91057Z" fill="#008830" stroke="black" stroke-width="0.024"/>
<path d="M4.62524 9.92075C4.92713 9.94753 5.14207 9.89791 5.27938 9.78009C5.08593 9.58948 4.77932 9.53075 4.62524 9.92075Z" fill="#008830" stroke="black" stroke-width="0.024"/>
<path d="M4.62622 9.92103C4.80827 10.1633 4.98895 10.2898 5.1684 10.313C5.18069 10.0417 5.01923 9.77462 4.62622 9.92103Z" fill="#008830" stroke="black" stroke-width="0.024"/>
<path d="M4.53132 10.0691C4.75821 10.27 4.86983 10.4602 4.87856 10.6409C4.60711 10.6314 4.35377 10.449 4.53132 10.0691Z" fill="#008830" stroke="black" stroke-width="0.024"/>
<path d="M4.43788 10.402C4.59314 10.6622 4.6418 10.8773 4.5953 11.0522C4.33954 10.9607 4.15345 10.7101 4.43788 10.402Z" fill="#008830" stroke="black" stroke-width="0.024"/>
<path d="M4.32856 10.3851C4.36294 10.6862 4.31874 10.9023 4.20438 11.0425C4.00892 10.8539 3.94248 10.5489 4.32856 10.3851Z" fill="#008830" stroke="black" stroke-width="0.024"/>
<path d="M4.13163 10.0474C4.10982 10.032 4.09339 10.005 4.08955 9.97846C4.08628 9.95578 4.08813 9.9412 4.09835 9.90922C4.10353 9.89302 4.10765 9.87938 4.10749 9.87892C4.10734 9.87847 4.10329 9.87728 4.09849 9.8763C4.09014 9.87458 4.08912 9.87511 4.0741 9.88898C4.02275 9.9364 3.9759 9.95913 3.94382 9.95218C3.90664 9.94411 3.89241 9.89256 3.91309 9.84086C3.93065 9.79693 3.96362 9.77005 4.00572 9.76529C4.0213 9.76352 4.02787 9.76415 4.04604 9.76912C4.05798 9.77238 4.06731 9.77409 4.06677 9.77291C4.06623 9.77173 4.05716 9.76529 4.0466 9.7586C3.99468 9.72568 3.96399 9.6876 3.96193 9.65357C3.96043 9.62885 3.97661 9.60514 4.00431 9.59145C4.05087 9.56845 4.10915 9.58484 4.13625 9.62855C4.14926 9.64954 4.15264 9.66623 4.1526 9.70942C4.15258 9.73448 4.15361 9.74884 4.1555 9.74963C4.15712 9.7503 4.1614 9.7542 4.16501 9.75829L4.17157 9.76572L4.19729 9.74464C4.22349 9.72317 4.24245 9.71007 4.26373 9.69874C4.29317 9.68307 4.32785 9.67863 4.34522 9.68832C4.38328 9.70954 4.38313 9.77873 4.34491 9.8261C4.3139 9.86453 4.26678 9.87808 4.22375 9.86093C4.21409 9.85709 4.20042 9.85238 4.19338 9.85048L4.18056 9.84703L4.20039 9.87224C4.22713 9.90624 4.24216 9.93058 4.25252 9.95666C4.27206 10.0059 4.26212 10.0438 4.22541 10.0601C4.19715 10.0727 4.16012 10.0676 4.13163 10.0474Z" fill="#F9D90F" stroke="black" stroke-width="0.024"/>
<path d="M4.18255 9.83368C4.17598 9.85017 4.16385 9.86366 4.14882 9.87119C4.1338 9.87871 4.11712 9.87966 4.10244 9.87381C4.08777 9.86797 4.07631 9.85581 4.07058 9.84001C4.06485 9.82422 4.06533 9.80608 4.0719 9.78959C4.07847 9.7731 4.0906 9.75961 4.10563 9.75208C4.12065 9.74456 4.13733 9.74361 4.15201 9.74946C4.16668 9.75531 4.17814 9.76746 4.18387 9.78326C4.1896 9.79905 4.18912 9.81719 4.18255 9.83368Z" fill="#F9D90F" stroke="black" stroke-width="0.024"/>
<path d="M4.40435 9.72775C4.40455 9.75106 4.40848 9.76573 4.423 9.79742C4.43036 9.81348 4.43631 9.82701 4.43623 9.82749C4.43614 9.82797 4.43244 9.8295 4.42799 9.83087C4.42024 9.83328 4.41918 9.83282 4.40274 9.81991C4.34653 9.77577 4.29827 9.75638 4.26855 9.76598C4.23411 9.77712 4.22808 9.83063 4.25553 9.88154C4.27885 9.9248 4.31441 9.94951 4.35546 9.95102C4.37066 9.95159 4.37686 9.95043 4.39354 9.94394C4.4045 9.93968 4.41319 9.93721 4.41285 9.93845C4.4125 9.9397 4.40476 9.94696 4.39563 9.95459C4.35073 9.99215 4.32693 10.0333 4.32998 10.068C4.33219 10.0933 4.35119 10.1161 4.37977 10.1278C4.42778 10.1475 4.48122 10.1262 4.50075 10.0797C4.51012 10.0573 4.51089 10.0401 4.50447 9.99618C4.50075 9.97072 4.49963 9.95605 4.50133 9.9551C4.50278 9.95429 4.5063 9.94998 4.50916 9.94554L4.51434 9.93748L4.5421 9.95686C4.57038 9.97661 4.5905 9.98843 4.61256 9.99826C4.64309 10.0119 4.67698 10.0136 4.6922 10.0024C4.72555 9.97783 4.71519 9.90753 4.67157 9.86241C4.63618 9.8258 4.58902 9.81576 4.5503 9.83659C4.54162 9.84126 4.52921 9.84712 4.52274 9.8496L4.51096 9.85412L4.52624 9.82694C4.54686 9.79027 4.55767 9.76435 4.56374 9.73702C4.57521 9.68545 4.56008 9.64767 4.5225 9.63402C4.49356 9.62352 4.45881 9.63153 4.43734 9.65166C4.41587 9.67178 4.4041 9.70044 4.40435 9.72775Z" fill="#F9D90F" stroke="black" stroke-width="0.0239874"/>
<path d="M4.40757 9.8648C4.41541 9.84837 4.42872 9.83511 4.44459 9.82793C4.46047 9.82075 4.47759 9.82023 4.4922 9.8265C4.50681 9.83277 4.5177 9.84531 4.52249 9.86135C4.52728 9.8774 4.52557 9.89565 4.51774 9.91207C4.5099 9.9285 4.49658 9.94176 4.48071 9.94895C4.46484 9.95613 4.44772 9.95664 4.43311 9.95037C4.4185 9.94411 4.4076 9.93157 4.40281 9.91552C4.39802 9.89947 4.39973 9.88123 4.40757 9.8648Z" fill="#F9D90F" stroke="black" stroke-width="0.024"/>
<path d="M4.06978 10.3868C4.06369 10.3599 4.06423 10.342 4.07233 10.3016C4.07643 10.2812 4.0796 10.264 4.07938 10.2635C4.07915 10.2629 4.07448 10.2622 4.06899 10.2618C4.05943 10.2611 4.05834 10.262 4.04293 10.2813C3.99028 10.3472 3.94004 10.3826 3.90328 10.3796C3.86065 10.3762 3.8392 10.3163 3.85696 10.2503C3.87203 10.1943 3.90621 10.1562 3.95301 10.1434C3.97033 10.1386 3.97777 10.1382 3.99871 10.1412C4.01247 10.1431 4.02313 10.1436 4.0224 10.1422C4.02167 10.1409 4.01079 10.1347 3.99823 10.1284C3.93641 10.0974 3.89789 10.0566 3.89197 10.0158C3.88767 9.98617 3.90333 9.95478 3.933 9.93356C3.98287 9.8979 4.05008 9.90785 4.08516 9.95609C4.102 9.97925 4.10756 9.99884 4.11209 10.051C4.11472 10.0813 4.11741 10.0985 4.11962 10.0991C4.12151 10.0997 4.12672 10.1037 4.13121 10.108L4.13937 10.1158L4.16603 10.086C4.19318 10.0557 4.2131 10.0366 4.23581 10.0193C4.26721 9.99543 4.30571 9.9842 4.32625 9.99297C4.37126 10.0122 4.37841 10.0958 4.3405 10.1595C4.30974 10.2112 4.25824 10.2355 4.20808 10.2221C4.19682 10.219 4.18097 10.2157 4.17285 10.2146L4.15809 10.2126L4.18303 10.2397C4.21668 10.2762 4.23614 10.3031 4.25054 10.3329C4.27771 10.389 4.27056 10.4366 4.23106 10.4624C4.20064 10.4824 4.15851 10.4826 4.12836 10.4653C4.09821 10.448 4.0769 10.4182 4.06978 10.3868Z" fill="#F9D90F" stroke="black" stroke-width="0.024"/>
<path d="M4.159 10.1961C4.15337 10.2172 4.14117 10.2355 4.12509 10.2472C4.10901 10.2588 4.09036 10.2628 4.07326 10.2582C4.05616 10.2536 4.04199 10.2408 4.03388 10.2227C4.02577 10.2046 4.02438 10.1826 4.03002 10.1616C4.03565 10.1406 4.04785 10.1222 4.06393 10.1106C4.08001 10.0989 4.09866 10.095 4.11576 10.0996C4.13286 10.1041 4.14703 10.1169 4.15514 10.135C4.16325 10.1531 4.16464 10.1751 4.159 10.1961Z" fill="#F9D90F" stroke="black" stroke-width="0.024"/>
<path d="M4.45124 10.1032C4.44597 10.1296 4.44694 10.1471 4.45585 10.1863C4.46036 10.2062 4.46389 10.2229 4.46369 10.2234C4.46348 10.2239 4.45894 10.2248 4.45358 10.2253C4.44426 10.2262 4.44317 10.2254 4.42765 10.2069C4.37459 10.1438 4.32465 10.1105 4.28882 10.1143C4.24728 10.1188 4.22782 10.1778 4.24681 10.2418C4.26293 10.2961 4.29725 10.3324 4.34327 10.3438C4.3603 10.3481 4.36758 10.3482 4.38795 10.3448C4.40134 10.3426 4.41174 10.3419 4.41106 10.3432C4.41038 10.3445 4.39992 10.3509 4.3878 10.3574C4.32821 10.3892 4.29161 10.43 4.28684 10.47C4.28338 10.499 4.29946 10.5292 4.32896 10.5492C4.37854 10.5828 4.44393 10.5714 4.47699 10.5235C4.49285 10.5004 4.49779 10.4811 4.50092 10.4301C4.50273 10.4004 4.50493 10.3836 4.50707 10.3829C4.50891 10.3823 4.5139 10.3783 4.51817 10.374L4.52594 10.3661L4.55272 10.3945C4.58 10.4235 4.59992 10.4416 4.62253 10.458C4.65379 10.4805 4.69166 10.4905 4.7115 10.4815C4.75498 10.4616 4.75988 10.3797 4.72127 10.3185C4.68995 10.2688 4.63905 10.2463 4.5904 10.2606C4.57948 10.2639 4.56409 10.2676 4.55618 10.2688L4.54182 10.2712L4.5655 10.2441C4.59745 10.2075 4.61579 10.1808 4.6291 10.1514C4.65424 10.0958 4.64608 10.0496 4.60685 10.0253C4.57665 10.0066 4.5355 10.0074 4.50649 10.0251C4.47748 10.0427 4.45742 10.0723 4.45124 10.1032Z" fill="#F9D90F" stroke="black" stroke-width="0.024"/>
<path d="M4.47864 10.2265C4.45737 10.2271 4.43717 10.2352 4.42248 10.2491C4.40778 10.263 4.3998 10.2816 4.40029 10.3007C4.40078 10.3198 4.40969 10.338 4.42507 10.3511C4.44046 10.3643 4.46104 10.3714 4.48231 10.3708C4.50358 10.3703 4.52378 10.3622 4.53848 10.3482C4.55317 10.3343 4.56115 10.3158 4.56066 10.2966C4.56018 10.2775 4.55126 10.2594 4.53588 10.2462C4.5205 10.2331 4.49991 10.226 4.47864 10.2265Z" fill="#F9D90F" stroke="black" stroke-width="0.024"/>
<path d="M8.5104 10.8558H8.35788V10.7474H8.22796V10.6236H8.07921L8.0791 9.83756L7.90968 9.54114L7.74027 9.83756V10.6236H7.59152V10.7474H7.4616V10.8558H7.30908V11.0158L8.5104 11.0192V10.8558Z" fill="white" stroke="black" stroke-width="0.0426667"/>
<path d="M6.10732 15.7898C6.7177 15.7918 7.4684 15.6672 7.82004 15.4854L8.59234 15.417L8.60771 16.3592C7.9535 16.7199 6.44293 16.7974 6.11059 16.7948C5.77792 16.7974 4.24871 16.7186 3.59155 16.3566L3.60006 15.4137L4.37399 15.4834C4.72563 15.6642 5.49923 15.7898 6.10895 15.7898H6.10732" fill="#F9D90F"/>
<path d="M3.59155 16.3567L4.38798 16.1745L3.59422 16.0609L3.59155 16.3567Z" fill="#F9B60F"/>
<path d="M1.60342 11.7708L2.28379 11.9873L2.07804 13.0888L1.43397 13.1889C1.43397 13.1889 1.32538 12.6097 1.60342 11.7701" fill="#F9D90F"/>
<path d="M1.43384 13.1888L1.85221 12.6116L2.07791 13.0888L1.43384 13.1888Z" fill="#F9B60F"/>
<path d="M1.60342 11.7708L2.28379 11.9873L2.07804 13.0888L1.43397 13.1889C1.43397 13.1889 1.32538 12.6097 1.60342 11.7701V11.7708V11.7708Z" stroke="black" stroke-width="0.0213669"/>
<path d="M3.59155 16.3566L4.39305 16.1744" stroke="black" stroke-width="0.0213669"/>
<path d="M1.85303 12.6082L2.07809 13.0888" stroke="black" stroke-width="0.0213669"/>
<path d="M8.60771 16.3592L7.81128 16.1771L8.60504 16.0635L8.60771 16.3592Z" fill="#F9B60F"/>
<path d="M10.5959 11.7734L9.91553 11.9899L10.1213 13.0914L10.7653 13.1914C10.7653 13.1914 10.8739 12.6122 10.5959 11.7727" fill="#F9D90F"/>
<path d="M10.7652 13.1915L10.3468 12.6143L10.1211 13.0915L10.7652 13.1915Z" fill="#F9B60F"/>
<path d="M10.5959 11.7734L9.91553 11.9899L10.1213 13.0914L10.7653 13.1914C10.7653 13.1914 10.8739 12.6122 10.5959 11.7727V11.7734V11.7734Z" stroke="black" stroke-width="0.0213669"/>
<path d="M8.60765 16.3592L7.80615 16.177" stroke="black" stroke-width="0.0213669"/>
<path d="M10.3464 12.6107L10.1213 13.0914" stroke="black" stroke-width="0.0213669"/>
<path d="M6.10732 15.7898C6.7177 15.7918 7.4684 15.6672 7.82004 15.4854L8.59234 15.417L8.60771 16.3592C7.9535 16.7199 6.44293 16.7974 6.11059 16.7948C5.77792 16.7974 4.24871 16.7186 3.59155 16.3566L3.60006 15.4137L4.37399 15.4834C4.72563 15.6642 5.49923 15.7898 6.10895 15.7898H6.10732" stroke="black" stroke-width="0.0213669"/>
<path d="M11.0028 12.5669L10.347 12.6143C10.3323 13.17 10.2649 15.2905 7.73242 15.4056L7.81125 16.1772C10.8939 16.2092 11.1281 13.5762 11.0028 12.5669Z" fill="#F9D90F"/>
<path d="M11.0028 12.5669L10.347 12.6143C10.3323 13.17 10.2649 15.2905 7.73242 15.4056L7.81125 16.1771C10.8939 16.2092 11.1281 13.5762 11.0028 12.5669Z" stroke="black" stroke-width="0.0213669"/>
<path d="M1.19642 12.5642L1.85227 12.6116C1.86699 13.1673 1.93437 15.2878 4.46682 15.403L4.38799 16.1745C1.30535 16.2065 1.07114 13.5735 1.19642 12.5642Z" fill="#F9D90F"/>
<path d="M1.19642 12.5642L1.85227 12.6116C1.86699 13.1673 1.93437 15.2878 4.46682 15.403L4.38799 16.1745C1.30535 16.2065 1.07114 13.5735 1.19642 12.5642Z" stroke="black" stroke-width="0.0213669"/>
<path d="M5.67724 16.2542C5.6599 16.2653 5.63635 16.2683 5.6092 16.2669L5.48686 16.2607L5.49733 16.108L5.61868 16.1145C5.64256 16.1162 5.66153 16.1208 5.67331 16.1279C5.69784 16.1407 5.70864 16.1643 5.70635 16.1969C5.70471 16.2251 5.6949 16.2434 5.67691 16.2542M5.47149 16.4946L5.48359 16.3085L5.62621 16.3183C5.67233 16.3219 5.70667 16.3098 5.7299 16.2862C5.7541 16.2633 5.76653 16.2333 5.76817 16.1993C5.77111 16.1597 5.76097 16.1273 5.73742 16.1034C5.71485 16.0805 5.6828 16.0684 5.64256 16.0645L5.43878 16.0518L5.41064 16.49L5.47116 16.4939" fill="#012A87"/>
<path d="M5.93519 16.1279L6.08435 16.1296C6.10594 16.1315 6.12295 16.1341 6.13538 16.14C6.15828 16.1508 6.16907 16.1724 6.16907 16.2038C6.16907 16.2333 6.16057 16.2529 6.14389 16.2647C6.12786 16.2754 6.10463 16.2803 6.07683 16.2803L5.93356 16.2787L5.93487 16.1279M5.93258 16.5161L5.93389 16.3291L6.07389 16.331C6.09875 16.331 6.11707 16.333 6.12982 16.3392C6.15043 16.3487 6.16057 16.3687 6.16155 16.3961L6.16515 16.4697C6.16614 16.4873 6.16646 16.4982 6.16744 16.5053C6.1694 16.5106 6.17039 16.5161 6.173 16.5201H6.24824L6.24693 16.5106C6.23842 16.506 6.23155 16.4972 6.22861 16.4837C6.22599 16.4752 6.22468 16.4625 6.22403 16.4465L6.22272 16.3879C6.22173 16.3614 6.21716 16.3431 6.20702 16.333C6.19819 16.3212 6.18609 16.3111 6.16744 16.3049C6.18838 16.2938 6.20408 16.281 6.21553 16.2653C6.22632 16.2479 6.23188 16.226 6.23188 16.1992C6.23188 16.1489 6.21127 16.1145 6.16941 16.0959C6.14683 16.0858 6.11805 16.0805 6.08403 16.0799L5.8737 16.0779L5.87207 16.5174H5.93258" fill="#012A87"/>
<path d="M6.43083 16.4243C6.404 16.3916 6.38961 16.3507 6.38634 16.3023C6.38339 16.2415 6.39517 16.1951 6.42298 16.1636C6.45111 16.1296 6.48741 16.1133 6.53484 16.1107C6.5826 16.1081 6.62186 16.1234 6.65097 16.1535C6.68073 16.183 6.69774 16.2238 6.70069 16.2749C6.70232 16.3239 6.69382 16.3674 6.67125 16.4056C6.64901 16.4446 6.61204 16.4665 6.55741 16.4678C6.5005 16.4708 6.45798 16.4573 6.43083 16.4243ZM6.35886 16.1476C6.33073 16.1911 6.31928 16.2415 6.32223 16.3023C6.32648 16.368 6.34676 16.4224 6.38503 16.4632C6.42755 16.5041 6.48382 16.5247 6.55316 16.5208C6.62742 16.5175 6.68335 16.4894 6.7213 16.4377C6.75204 16.391 6.76676 16.3366 6.76349 16.2696C6.75924 16.2097 6.7419 16.161 6.70952 16.1247C6.66863 16.076 6.60877 16.0544 6.52765 16.0577C6.45111 16.0626 6.39484 16.0907 6.35854 16.1476" fill="#012A87"/>
<path d="M1.49678 13.3802L1.50692 13.4351C1.48239 13.44 1.46276 13.4499 1.44837 13.4626C1.42253 13.4868 1.41369 13.5231 1.42253 13.5725C1.42646 13.5934 1.43397 13.614 1.44346 13.6304C1.46309 13.6638 1.4886 13.6771 1.52098 13.6719C1.54486 13.6677 1.56057 13.6585 1.56809 13.6415C1.57528 13.6248 1.58053 13.5993 1.58216 13.5666L1.5851 13.5048C1.58712 13.4665 1.59131 13.4365 1.59982 13.4198C1.61322 13.3897 1.63842 13.371 1.67603 13.3648C1.71627 13.3576 1.75159 13.3668 1.78201 13.3897C1.81276 13.4109 1.83304 13.4479 1.84057 13.4969C1.85006 13.5418 1.84581 13.582 1.82813 13.6183C1.81111 13.6536 1.77841 13.6752 1.72836 13.6843L1.71854 13.6288C1.74177 13.6203 1.75911 13.6121 1.77056 13.6006C1.79019 13.5787 1.79607 13.547 1.78853 13.5035C1.78265 13.4682 1.77055 13.4453 1.75223 13.4339C1.73424 13.4204 1.71624 13.4152 1.69662 13.4185C1.6747 13.4218 1.66031 13.4339 1.65344 13.4535C1.64919 13.4665 1.64592 13.4937 1.64298 13.5352L1.64004 13.5993C1.63842 13.6294 1.63383 13.6543 1.62369 13.6713C1.60766 13.7027 1.58051 13.7219 1.54093 13.7282C1.49088 13.7367 1.45228 13.7252 1.42481 13.6932C1.39668 13.6618 1.37934 13.6242 1.37051 13.5774C1.36069 13.5218 1.36789 13.4786 1.39014 13.444C1.41271 13.4083 1.44837 13.3877 1.49678 13.3809" fill="#012A87"/>
<path d="M1.46899 13.96L1.90143 13.8298L2.00217 14.1343L1.94951 14.151L1.86708 13.9008L1.73558 13.9404L1.8118 14.1716L1.76142 14.1876L1.68586 13.9557L1.53932 13.9995L1.62306 14.2553L1.57138 14.27L1.46899 13.96" fill="#012A87"/>
<path d="M1.66064 14.4879L2.0584 14.277L2.10093 14.3512L1.82747 14.6403L2.22686 14.5719L2.26808 14.6456L1.8713 14.8552L1.84317 14.8064L2.07738 14.6832C2.08588 14.6782 2.09897 14.671 2.11794 14.6609C2.13658 14.6524 2.15752 14.6409 2.17845 14.6302L1.78069 14.6979L1.75158 14.6462L2.02308 14.3581L2.00999 14.3646C2.00149 14.3695 1.98677 14.3767 1.96682 14.3881C1.94718 14.4003 1.93247 14.4078 1.92298 14.4117L1.68943 14.5369L1.66065 14.4873" fill="#012A87"/>
<path d="M2.40182 15.0736C2.38186 15.0691 2.36224 15.0576 2.34294 15.0376L2.25888 14.951L2.37205 14.8473L2.45678 14.9337C2.47312 14.9497 2.4836 14.9654 2.48916 14.9788C2.497 15.0046 2.48916 15.0282 2.46528 15.0504C2.44369 15.0703 2.4221 15.0785 2.40182 15.0736ZM2.08224 15.1138L2.22093 14.9866L2.31939 15.0864C2.35112 15.1187 2.3835 15.1335 2.41752 15.1328C2.4522 15.1308 2.48196 15.1181 2.50813 15.0932C2.53757 15.0671 2.55163 15.0363 2.55163 15.0033C2.55123 14.9712 2.5366 14.9412 2.50944 14.9131L2.36813 14.7688L2.03906 15.071L2.08159 15.1138" fill="#012A87"/>
<path d="M2.479 15.4671L2.71746 15.0933L2.99943 15.2646L2.96999 15.3091L2.7384 15.1705L2.66676 15.2836L2.87971 15.4128L2.85223 15.4557L2.63896 15.3271L2.55783 15.4537L2.79237 15.5947L2.76424 15.6388L2.479 15.4671Z" fill="#012A87"/>
<path d="M3.18493 15.3948L3.32821 15.4403C3.34849 15.4465 3.36321 15.4543 3.37302 15.4632C3.39134 15.4805 3.39625 15.5054 3.38546 15.5354C3.37663 15.5616 3.36321 15.5786 3.34228 15.5858C3.32363 15.5891 3.30008 15.5891 3.2726 15.5806L3.13751 15.5374L3.18494 15.3948M3.0613 15.7621L3.12083 15.5838L3.25429 15.6273C3.27817 15.6336 3.2955 15.6421 3.30401 15.6509C3.32035 15.6656 3.32527 15.6875 3.31709 15.7147L3.29713 15.7856C3.29256 15.803 3.29026 15.8144 3.2883 15.8196C3.2883 15.8252 3.2883 15.8311 3.28931 15.835L3.35964 15.8579L3.36389 15.8478C3.35637 15.8419 3.35212 15.8311 3.35244 15.8177C3.35406 15.8095 3.35637 15.7965 3.36095 15.7814L3.37796 15.7245C3.38484 15.6996 3.38746 15.681 3.38123 15.6676C3.37599 15.6535 3.36716 15.6408 3.35244 15.6287C3.37468 15.6247 3.39399 15.6179 3.41034 15.6058C3.42572 15.5923 3.4388 15.5737 3.44665 15.5476C3.46267 15.5001 3.45384 15.4606 3.41852 15.4305C3.40086 15.4148 3.37567 15.4014 3.34263 15.3889L3.14244 15.3271L3.00244 15.7441L3.06099 15.7621" fill="#012A87"/>
<path d="M8.39579 15.4845C8.43811 15.4781 8.4747 15.4807 8.50785 15.4928C8.55663 15.509 8.589 15.546 8.60859 15.6019L8.54793 15.6093C8.53539 15.579 8.51713 15.5581 8.49215 15.5461C8.46782 15.5349 8.43713 15.5317 8.40171 15.5363C8.36039 15.5418 8.32698 15.5617 8.30316 15.5944C8.27962 15.6292 8.27189 15.6762 8.28093 15.7366C8.28852 15.7864 8.30607 15.8289 8.33565 15.8576C8.36292 15.8869 8.40362 15.8978 8.45706 15.8912C8.49708 15.8854 8.52942 15.87 8.55249 15.8429C8.57652 15.8172 8.58411 15.7777 8.57719 15.7266L8.43584 15.7456L8.42953 15.6971L8.62631 15.6706L8.66033 15.9038L8.6213 15.9089L8.59808 15.8549C8.58128 15.8788 8.56459 15.8971 8.55 15.9076C8.52545 15.9262 8.49253 15.9377 8.45154 15.9428C8.39841 15.95 8.35018 15.9396 8.30687 15.9107C8.25944 15.8742 8.22934 15.8207 8.21891 15.7469C8.20747 15.6744 8.22005 15.6128 8.2543 15.5647C8.28688 15.5182 8.3335 15.4916 8.3958 15.4838" fill="#012A87"/>
<path d="M8.8401 15.4586L8.98166 15.4102C9.00109 15.4034 9.01781 15.4013 9.03217 15.4033C9.05797 15.4057 9.07666 15.4214 9.08689 15.4523C9.09655 15.4787 9.09613 15.5016 9.08439 15.5174C9.07199 15.5338 9.0528 15.5456 9.02514 15.5552L8.89215 15.6002L8.8401 15.4586M8.97409 15.8245L8.90863 15.647L9.04031 15.6023C9.06498 15.5949 9.08207 15.5909 9.0948 15.5925C9.11797 15.5958 9.13537 15.6102 9.14665 15.6372L9.17519 15.7049C9.18143 15.7216 9.18647 15.7318 9.19064 15.7365C9.19249 15.7425 9.19668 15.7461 9.19988 15.7501L9.27133 15.7253L9.26758 15.7157C9.25711 15.7155 9.24708 15.7094 9.23977 15.6978C9.23436 15.6896 9.22934 15.6777 9.22207 15.6638L9.19985 15.6085C9.18982 15.5844 9.1793 15.5695 9.16703 15.5604C9.15473 15.5533 9.13911 15.5485 9.12049 15.5468C9.13519 15.5304 9.14596 15.5139 9.15024 15.4944C9.15486 15.4745 9.1533 15.4523 9.14427 15.4272C9.12714 15.3801 9.09457 15.354 9.04819 15.3499C9.0237 15.3475 8.99547 15.3522 8.96289 15.3631L8.76407 15.4298L8.91612 15.846L8.9744 15.8258" fill="#012A87"/>
<path d="M9.49267 15.6161L9.2485 15.2455L9.52709 15.075L9.5567 15.1197L9.3284 15.2598L9.40354 15.373L9.61432 15.2427L9.64199 15.2861L9.43121 15.4164L9.51399 15.5412L9.74626 15.3986L9.77589 15.4423L9.49234 15.6161" fill="#012A87"/>
<path d="M9.72374 14.9733L9.79714 14.8955C9.83114 14.8608 9.86676 14.8454 9.90527 14.8507C9.9438 14.8546 9.98267 14.8756 10.0239 14.913C10.0352 14.9221 10.0451 14.9337 10.0553 14.9466C10.0732 14.9708 10.0836 14.992 10.0901 15.013C10.0955 15.0393 10.0938 15.0632 10.0842 15.0859C10.0784 15.0972 10.0684 15.1104 10.0533 15.1262L9.97964 15.2034L9.72376 14.9727M10.1006 15.1519C10.1527 15.0966 10.1649 15.0363 10.1364 14.9674C10.1197 14.9301 10.0939 14.8937 10.0579 14.8616C10.0125 14.8199 9.96479 14.7981 9.91417 14.7933C9.85799 14.788 9.80987 14.8074 9.76751 14.8521L9.64246 14.9813L9.97525 15.2824L10.1003 15.1526" fill="#012A87"/>
<path d="M10.369 14.8157L9.98394 14.58L10.0166 14.5302L10.4023 14.7646L10.3693 14.8163" fill="#012A87"/>
<path d="M10.5265 14.5529L10.1093 14.3771L10.2387 14.0838L10.2894 14.1044L10.1839 14.3461L10.3095 14.3982L10.4081 14.1755L10.4562 14.1964L10.3585 14.4187L10.4991 14.4788L10.6073 14.2342L10.6579 14.2544L10.5262 14.5529" fill="#012A87"/>
<path d="M10.7289 14.0405L10.2885 13.9347L10.3044 13.8666L10.7155 13.7361L10.3581 13.6504L10.3722 13.597L10.8126 13.7002L10.7973 13.7663L10.3856 13.8998L10.743 13.9839L10.7292 14.0405" fill="#012A87"/>
<path d="M10.7041 13.4784L10.7106 13.4229C10.7361 13.424 10.7578 13.4205 10.7743 13.412C10.8067 13.3952 10.8259 13.3625 10.8317 13.3139C10.8341 13.291 10.8335 13.271 10.8286 13.252C10.8198 13.2152 10.7995 13.1945 10.7666 13.1907C10.7421 13.1876 10.7243 13.1932 10.7113 13.2064C10.6996 13.2215 10.6871 13.2435 10.6774 13.2748L10.656 13.3323C10.6423 13.3699 10.6297 13.3959 10.6163 13.4103C10.5949 13.4375 10.5653 13.4464 10.5277 13.4431C10.4876 13.4381 10.4552 13.4215 10.4325 13.3903C10.4091 13.3618 10.4001 13.3214 10.4069 13.2718C10.4116 13.2264 10.4274 13.1884 10.4547 13.1582C10.4801 13.1305 10.5189 13.1178 10.5682 13.1239L10.5626 13.1794C10.5384 13.179 10.5191 13.1829 10.5048 13.1924C10.479 13.206 10.4644 13.2355 10.4594 13.2789C10.4551 13.3149 10.4596 13.3391 10.473 13.3577C10.4865 13.3733 10.5036 13.3834 10.5239 13.3854C10.5454 13.3878 10.5625 13.3812 10.5746 13.3648C10.5833 13.3535 10.5939 13.3288 10.6084 13.2888L10.6295 13.2284C10.6398 13.2005 10.652 13.1791 10.666 13.164C10.691 13.1389 10.7232 13.1287 10.7634 13.1324C10.8123 13.1385 10.847 13.1595 10.8643 13.1971C10.8813 13.235 10.8874 13.2766 10.8823 13.3236C10.8757 13.3768 10.8576 13.4184 10.8251 13.4459C10.7925 13.4741 10.7524 13.4832 10.7041 13.4784" fill="#012A87"/>
</g>
<defs>
<clipPath id="clip0_6903_4738">
<rect width="36" height="24" rx="2" fill="white"/>
</clipPath>
</defs>
</svg>
