<svg width="36" height="24" viewBox="0 0 36 24" fill="none" xmlns="http://www.w3.org/2000/svg">
<g clip-path="url(#clip0_11930_68144)">
<path fill-rule="evenodd" clip-rule="evenodd" d="M0 0H12V24H0V0Z" fill="#00319C"/>
<path fill-rule="evenodd" clip-rule="evenodd" d="M12 0H24V24H12V0Z" fill="#FFDE00"/>
<path fill-rule="evenodd" clip-rule="evenodd" d="M24 0H36V24H24V0Z" fill="#DE2110"/>
<path fill-rule="evenodd" clip-rule="evenodd" d="M19.4146 14.7069L20.2306 15.8871C20.2778 15.9545 20.3216 16.0186 20.2542 16.0624C20.1867 16.1063 20.2069 16.2782 20.2542 16.3457C20.3452 16.4772 20.4565 16.4974 20.5239 16.4536L21.1443 16.0624C21.2118 16.022 21.2354 15.9107 21.1443 15.7792C21.0938 15.7117 20.942 15.6274 20.8746 15.6713C20.8038 15.7151 20.7566 15.6477 20.7127 15.5836L19.8934 14.4034" fill="#FF1900"/>
<path d="M19.4146 14.7069L20.2306 15.8871C20.2778 15.9545 20.3216 16.0186 20.2542 16.0624C20.1867 16.1063 20.2069 16.2782 20.2542 16.3457C20.3452 16.4772 20.4565 16.4974 20.5239 16.4536L21.1443 16.0624C21.2118 16.022 21.2354 15.9107 21.1443 15.7792C21.0938 15.7117 20.942 15.6274 20.8746 15.6713C20.8038 15.7151 20.7566 15.6477 20.7127 15.5836L19.8934 14.4034" stroke="black" stroke-width="0.0236033"/>
<path fill-rule="evenodd" clip-rule="evenodd" d="M19.7352 13.8751C20.1001 14.2897 20.2271 14.765 20.0191 14.9322C19.8111 15.0994 19.3427 14.8985 18.9778 14.484C18.6128 14.0694 18.4876 13.5927 18.6957 13.4255C18.9037 13.2583 19.3705 13.4574 19.737 13.8737L19.7352 13.8751Z" fill="#A77B3B" stroke="black" stroke-width="0.0568084"/>
<path fill-rule="evenodd" clip-rule="evenodd" d="M16.097 14.2247L15.372 15.4622C15.3315 15.5297 15.2911 15.5971 15.2203 15.5634C15.1495 15.5229 14.9977 15.6207 14.9573 15.6915C14.8763 15.8264 14.9067 15.9343 14.9809 15.9747L15.6283 16.3187C15.6957 16.3558 15.8104 16.3254 15.8913 16.1905C15.9284 16.1164 15.9385 15.9444 15.8677 15.9073C15.7969 15.8702 15.834 15.7994 15.8778 15.732L16.5994 14.4945" fill="#FF1900"/>
<path d="M16.097 14.2247L15.372 15.4622C15.3315 15.5297 15.2911 15.5971 15.2203 15.5634C15.1495 15.5229 14.9977 15.6207 14.9573 15.6915C14.8763 15.8264 14.9067 15.9343 14.9809 15.9747L15.6283 16.3187C15.6957 16.3558 15.8104 16.3254 15.8913 16.1905C15.9284 16.1164 15.9385 15.9444 15.8677 15.9073C15.7969 15.8702 15.834 15.7994 15.8778 15.732L16.5994 14.4945" stroke="black" stroke-width="0.0236033"/>
<path fill-rule="evenodd" clip-rule="evenodd" d="M18.4302 13.3649H17.7693C17.7491 13.3851 17.5603 14.5653 17.358 15.0171C17.1118 15.5667 16.3734 16.0523 16.3734 16.0523C16.3734 16.0523 16.8151 16.1872 16.9466 16.2748C16.9803 16.2647 17.6884 16.1163 17.7693 15.2531C17.8503 16.1163 17.277 16.5109 17.277 16.5109C17.277 16.5109 18.0998 16.7469 18.0998 17.2965C18.0998 16.7469 18.9225 16.5109 18.9225 16.5109C18.9225 16.5109 18.5111 16.1163 18.4269 15.2531C18.5954 16.1163 19.2192 16.2647 19.253 16.2748C19.3845 16.1872 19.8262 16.0523 19.8262 16.0523C19.8262 16.0523 19.0877 15.5667 18.8416 15.0171C18.6393 14.5653 18.4505 13.3851 18.4302 13.3649ZM15.6315 9.42987L16.8657 9.82438C17.2737 9.82438 17.6884 9.42987 17.6884 9.03536C17.7019 8.15866 17.358 7.85519 17.277 7.85519L17.4389 7.70009L17.1927 7.46405C17.1927 7.46405 17.277 7.05605 18.0998 7.06954C18.9225 7.0864 18.9225 7.46405 18.9225 7.85519C18.9225 8.24633 18.5111 8.24971 18.5111 9.03536C18.5111 9.42987 18.9225 9.82438 19.3339 9.82438L20.568 9.42987V13.3649H15.6282L15.6315 9.42987Z" fill="#A77B3B" stroke="black" stroke-width="0.0573223"/>
<path d="M17.5247 9.58728L17.6067 9.82385L17.6894 9.58728L17.7714 9.82385L17.9362 9.58728L18.0166 9.83647L18.1009 9.58728L18.2223 9.83647L18.3477 9.58728L18.4297 9.82385L18.5124 9.58728" stroke="black" stroke-width="0.004708"/>
<path d="M17.8547 8.72327L17.6897 9.58913M17.936 8.72327V9.58913M18.1009 8.72327V9.58913M18.2659 8.72327L18.3472 9.58913M18.4309 8.72327L18.5122 9.58913" stroke="black" stroke-width="0.0045424"/>
<path fill-rule="evenodd" clip-rule="evenodd" d="M14.8058 7.07141C13.9833 7.46438 13.9833 8.25254 13.9833 8.6455C14.0112 9.00295 13.9833 16.5115 13.9833 16.5115C13.9833 16.5115 14.0368 16.0675 14.3946 15.7256L14.8035 15.3326L15.2147 14.9397C15.5168 14.6777 15.626 14.1515 15.626 13.7585V8.25254C15.626 8.25254 15.626 7.85735 14.8035 7.07141H14.8058Z" fill="#A77B3B" stroke="black" stroke-width="0.0567799"/>
<path d="M15.6282 8.64553C15.6189 8.64553 15.2169 8.25256 15.2169 8.25256L14.8057 8.64553L14.3944 8.25256L13.9832 8.64553" stroke="black" stroke-width="0.0567799"/>
<path d="M15.6282 9.03757C15.6189 9.03757 15.2169 9.43054 15.2169 9.43054L14.8057 9.03757L14.3944 9.43054L13.9832 9.03757" stroke="black" stroke-width="0.0567799"/>
<path d="M15.6282 10.2168C15.6189 10.2168 15.2169 9.82385 15.2169 9.82385L14.8057 10.2168L14.3944 9.82385L13.9832 10.2168" stroke="black" stroke-width="0.0567799"/>
<path d="M15.2124 8.25159L15.217 14.94" stroke="black" stroke-width="0.0782061"/>
<path d="M14.8079 8.64478L14.8125 15.317" stroke="black" stroke-width="0.0740908"/>
<path d="M14.3965 8.2533L14.4011 15.7277" stroke="black" stroke-width="0.0784183"/>
<path fill-rule="evenodd" clip-rule="evenodd" d="M21.3907 7.07141C22.2132 7.46438 22.2132 8.25254 22.2132 8.6455C22.1853 9.00295 22.2132 16.5115 22.2132 16.5115C22.2132 16.5115 22.1598 16.0675 21.802 15.7256L21.393 15.3326L20.9818 14.9397C20.6798 14.6777 20.5706 14.1515 20.5706 13.7585V8.25254C20.5706 8.25254 20.5706 7.85735 21.393 7.07141H21.3907Z" fill="#A77B3B" stroke="black" stroke-width="0.0567799"/>
<path d="M20.5684 8.64553C20.5777 8.64553 20.9796 8.25256 20.9796 8.25256L21.3908 8.64553L21.8021 8.25256L22.2133 8.64553" stroke="black" stroke-width="0.0567799"/>
<path d="M20.5684 9.03757C20.5777 9.03757 20.9796 9.43054 20.9796 9.43054L21.3908 9.03757L21.8021 9.43054L22.2133 9.03757" stroke="black" stroke-width="0.0567799"/>
<path d="M20.5684 10.2168C20.5777 10.2168 20.9796 9.82385 20.9796 9.82385L21.3908 10.2168L21.8021 9.82385L22.2133 10.2168" stroke="black" stroke-width="0.0567799"/>
<path d="M20.9844 8.25146L20.9797 14.9399" stroke="black" stroke-width="0.0782061"/>
<path d="M21.3923 8.64478L21.3877 15.317" stroke="black" stroke-width="0.0740908"/>
<path d="M21.804 8.2533L21.7993 15.7277" stroke="black" stroke-width="0.0784183"/>
<path fill-rule="evenodd" clip-rule="evenodd" d="M17.0168 14.1159C16.7987 14.6159 16.415 14.9418 16.1641 14.8419C15.9132 14.742 15.8851 14.2522 16.1031 13.7521C16.3212 13.2521 16.7071 12.9271 16.958 13.027C17.2089 13.1269 17.2379 13.6146 17.0189 14.1167L17.0168 14.1159Z" fill="#A77B3B" stroke="black" stroke-width="0.0567946"/>
<path fill-rule="evenodd" clip-rule="evenodd" d="M15.6282 9.82434H20.568V12.1847H15.6282V9.82434Z" fill="#FF0000"/>
<path fill-rule="evenodd" clip-rule="evenodd" d="M15.6281 12.1847H20.568V13.3649C20.568 14.1505 19.3338 14.1505 18.0997 14.9362C16.8622 14.1539 15.6248 14.1539 15.6248 13.3649L15.6281 12.1847Z" fill="#564DFF"/>
<path d="M15.6292 9.82446H20.5687V13.3678C20.5687 14.1538 19.335 14.1538 18.0989 14.9419C16.8652 14.1538 15.6292 14.1538 15.6292 13.3656V9.82668V9.82446Z" stroke="#FFFF00" stroke-width="0.045424"/>
<path fill-rule="evenodd" clip-rule="evenodd" d="M17.1923 9.98157C17.1923 9.98157 16.3694 10.5601 16.3694 11.1137C16.3694 11.6673 17.233 11.8528 17.233 11.8528C17.233 11.8528 16.9451 11.8528 16.9451 12.5909C16.9451 12.961 17.8088 12.7765 17.8088 12.961C17.8088 13.1455 17.7974 13.5917 17.8088 13.8847C17.8088 14.0692 17.233 13.8847 17.233 14.0692C17.233 14.1609 17.6656 14.6227 18.0983 14.6227C18.5309 14.6227 18.9619 14.1609 18.9619 14.0692C18.9619 13.8847 18.3861 14.0692 18.3861 13.8847V12.961C18.3861 12.7765 19.2497 12.961 19.2497 12.5909C19.2497 11.8528 18.9619 11.8528 18.9619 11.8528C18.9619 11.8528 19.8271 11.6683 19.8271 11.1137C19.8271 10.5591 19.0025 9.98157 19.0025 9.98157C19.0025 9.98157 19.4661 10.7447 19.4661 11.1137C19.4661 11.2982 19.2497 11.6683 18.674 11.6683C18.674 11.6683 18.5276 11.4828 18.3861 11.6683C18.3861 11.6683 18.2202 11.4828 18.0983 11.6683C18.056 11.7309 17.9811 11.4828 17.8088 11.6683C17.7372 11.7173 17.6786 11.4828 17.5209 11.6683C17.233 11.6683 16.6573 11.4828 16.6573 11.1137C16.6573 10.7447 17.1923 9.98157 17.1923 9.98157Z" fill="#FFFF00" stroke="black" stroke-width="0.0325529"/>
<path fill-rule="evenodd" clip-rule="evenodd" d="M17.2092 13.2864C17.1507 13.324 17.284 13.9255 17.3231 13.9515C17.3816 13.988 17.728 13.988 17.785 13.9515C17.8256 13.9255 17.785 13.3605 17.728 13.324C17.6695 13.2864 17.2499 13.2614 17.2076 13.2864H17.2092Z" fill="#FFFF00" stroke="black" stroke-width="0.0325529"/>
<path fill-rule="evenodd" clip-rule="evenodd" d="M18.9902 13.2864C19.0488 13.324 18.9154 13.9255 18.8764 13.9515C18.8178 13.988 18.4714 13.988 18.4145 13.9515C18.3738 13.9255 18.4145 13.3605 18.4714 13.324C18.53 13.2864 18.9496 13.2614 18.9919 13.2864H18.9902Z" fill="#FFFF00" stroke="black" stroke-width="0.0325529"/>
<path fill-rule="evenodd" clip-rule="evenodd" d="M17.8013 13.0671C17.8013 13.1222 17.7698 13.1751 17.7137 13.2141C17.6576 13.2531 17.5816 13.275 17.5022 13.275C17.4229 13.275 17.3468 13.2531 17.2907 13.2141C17.2346 13.1751 17.2031 13.1222 17.2031 13.0671C17.2031 13.0119 17.2346 12.959 17.2907 12.92C17.3468 12.881 17.4229 12.8591 17.5022 12.8591C17.5816 12.8591 17.6576 12.881 17.7137 12.92C17.7698 12.959 17.8013 13.0119 17.8013 13.0671Z" fill="#FFFF00" stroke="black" stroke-width="0.0389667"/>
<path fill-rule="evenodd" clip-rule="evenodd" d="M18.9918 13.0672C18.9918 13.1223 18.9603 13.1752 18.9042 13.2142C18.8481 13.2532 18.772 13.2751 18.6927 13.2751C18.6133 13.2751 18.5373 13.2532 18.4812 13.2142C18.4251 13.1752 18.3936 13.1223 18.3936 13.0672C18.3936 13.012 18.4251 12.9592 18.4812 12.9202C18.5373 12.8812 18.6133 12.8593 18.6927 12.8593C18.772 12.8593 18.8481 12.8812 18.9042 12.9202C18.9603 12.9592 18.9918 13.012 18.9918 13.0672Z" fill="#FFFF00" stroke="black" stroke-width="0.0389675"/>
<path fill-rule="evenodd" clip-rule="evenodd" d="M18.6191 14.2719C18.6191 14.3225 18.5517 14.363 18.4741 14.363C18.3932 14.363 18.3291 14.3225 18.3291 14.2719C18.3291 14.2214 18.3966 14.1809 18.4741 14.1809C18.5517 14.1809 18.6191 14.2214 18.6191 14.2719ZM17.8672 14.2719C17.8672 14.3225 17.8031 14.363 17.7256 14.363C17.6446 14.363 17.5806 14.3225 17.5806 14.2719C17.5806 14.2214 17.6446 14.1809 17.7256 14.1809C17.8031 14.1809 17.8672 14.2214 17.8672 14.2719Z" fill="black"/>
<path fill-rule="evenodd" clip-rule="evenodd" d="M18.0991 11.3217L17.9223 11.0986L17.6321 11.1354L17.6729 10.8581L17.4395 10.6913L17.6729 10.5224L17.6321 10.2451L17.9223 10.2841L18.0991 10.061L18.2759 10.2841L18.5638 10.2451L18.5252 10.5224L18.7564 10.6913L18.5252 10.8603L18.5638 11.1354L18.2736 11.0986L18.0991 11.3217Z" fill="#FFFF00" stroke="black" stroke-width="0.0243739"/>
<path fill-rule="evenodd" clip-rule="evenodd" d="M19.3328 12.1846L19.8276 12.4221L20.3225 12.1846L19.8276 11.9492L19.3328 12.1846Z" fill="#FFFF00" stroke="black" stroke-width="0.0249832"/>
<path fill-rule="evenodd" clip-rule="evenodd" d="M15.7922 12.1846L16.2871 12.4221L16.782 12.1846L16.2871 11.9492L15.7922 12.1846Z" fill="#FFFF00" stroke="black" stroke-width="0.0249832"/>
<path fill-rule="evenodd" clip-rule="evenodd" d="M20.0967 13.5923C19.9452 13.4962 19.69 13.5441 19.5469 13.6226C19.4039 13.7011 19.2608 13.7796 19.2416 14.0641C19.0773 13.7907 19.2067 13.538 19.4243 13.4186C19.5397 13.3643 19.6718 13.3523 19.7959 13.3846C19.9199 13.417 20.0273 13.4915 20.0979 13.5942L20.0967 13.5923Z" fill="#FFFF00" stroke="black" stroke-width="0.0249929"/>
<path fill-rule="evenodd" clip-rule="evenodd" d="M16.6972 13.1287C16.6972 13.1702 16.68 13.21 16.6493 13.2394C16.6185 13.2687 16.5769 13.2852 16.5334 13.2852C16.49 13.2852 16.4483 13.2687 16.4176 13.2394C16.3869 13.21 16.3696 13.1702 16.3696 13.1287C16.3696 13.0872 16.3869 13.0474 16.4176 13.018C16.4483 12.9887 16.49 12.9722 16.5334 12.9722C16.5769 12.9722 16.6185 12.9887 16.6493 13.018C16.68 13.0474 16.6972 13.0872 16.6972 13.1287Z" fill="#FFFF00" stroke="black" stroke-width="0.0249832"/>
<path fill-rule="evenodd" clip-rule="evenodd" d="M16.5322 13.6784C16.5322 13.7199 16.5149 13.7597 16.4842 13.789C16.4535 13.8184 16.4118 13.8349 16.3684 13.8349C16.3249 13.8349 16.2833 13.8184 16.2526 13.789C16.2218 13.7597 16.2046 13.7199 16.2046 13.6784C16.2046 13.6369 16.2218 13.597 16.2526 13.5677C16.2833 13.5383 16.3249 13.5219 16.3684 13.5219C16.4118 13.5219 16.4535 13.5383 16.4842 13.5677C16.5149 13.597 16.5322 13.6369 16.5322 13.6784Z" fill="#FFFF00" stroke="black" stroke-width="0.0249832"/>
<path fill-rule="evenodd" clip-rule="evenodd" d="M16.4511 13.3648C16.4511 13.4063 16.4339 13.4461 16.4032 13.4755C16.3724 13.5048 16.3308 13.5213 16.2873 13.5213C16.2439 13.5213 16.2022 13.5048 16.1715 13.4755C16.1408 13.4461 16.1235 13.4063 16.1235 13.3648C16.1235 13.3233 16.1408 13.2834 16.1715 13.2541C16.2022 13.2247 16.2439 13.2083 16.2873 13.2083C16.3308 13.2083 16.3724 13.2247 16.4032 13.2541C16.4339 13.2834 16.4511 13.3233 16.4511 13.3648Z" fill="#FFFF00" stroke="black" stroke-width="0.0249832"/>
<path fill-rule="evenodd" clip-rule="evenodd" d="M16.8625 13.6784C16.8625 13.7199 16.8453 13.7597 16.8145 13.789C16.7838 13.8184 16.7422 13.8349 16.6987 13.8349C16.6553 13.8349 16.6136 13.8184 16.5829 13.789C16.5522 13.7597 16.5349 13.7199 16.5349 13.6784C16.5349 13.6369 16.5522 13.597 16.5829 13.5677C16.6136 13.5383 16.6553 13.5219 16.6987 13.5219C16.7422 13.5219 16.7838 13.5383 16.8145 13.5677C16.8453 13.597 16.8625 13.6369 16.8625 13.6784Z" fill="#FFFF00" stroke="black" stroke-width="0.0249832"/>
<path fill-rule="evenodd" clip-rule="evenodd" d="M16.9438 13.3648C16.9438 13.4063 16.9266 13.4461 16.8958 13.4755C16.8651 13.5048 16.8235 13.5213 16.78 13.5213C16.7366 13.5213 16.6949 13.5048 16.6642 13.4755C16.6335 13.4461 16.6162 13.4063 16.6162 13.3648C16.6162 13.3233 16.6335 13.2834 16.6642 13.2541C16.6949 13.2247 16.7366 13.2083 16.78 13.2083C16.8235 13.2083 16.8651 13.2247 16.8958 13.2541C16.9266 13.2834 16.9438 13.3233 16.9438 13.3648Z" fill="#FFFF00" stroke="black" stroke-width="0.0249832"/>
<path fill-rule="evenodd" clip-rule="evenodd" d="M16.6972 13.4424C16.6972 13.4839 16.68 13.5237 16.6493 13.5531C16.6185 13.5824 16.5769 13.5989 16.5334 13.5989C16.49 13.5989 16.4483 13.5824 16.4176 13.5531C16.3869 13.5237 16.3696 13.4839 16.3696 13.4424C16.3696 13.4009 16.3869 13.3611 16.4176 13.3317C16.4483 13.3024 16.49 13.2859 16.5334 13.2859C16.5769 13.2859 16.6185 13.3024 16.6493 13.3317C16.68 13.3611 16.6972 13.4009 16.6972 13.4424Z" fill="#FFFF00" stroke="black" stroke-width="0.0249832"/>
<path fill-rule="evenodd" clip-rule="evenodd" d="M17.3057 7.96308C16.8876 7.96308 16.8336 8.03052 16.6448 8.09459C16.6448 7.9125 17.1101 7.70007 17.5215 7.70007C17.5215 7.83158 17.4136 7.96308 17.3057 7.96308Z" fill="#DA4500"/>
<path fill-rule="evenodd" clip-rule="evenodd" d="M17.9364 7.54495C17.9364 7.62925 17.8622 7.70006 17.7712 7.70006C17.6801 7.70006 17.606 7.62925 17.606 7.54158C17.606 7.45391 17.6801 7.38647 17.7712 7.38647C17.8622 7.38647 17.9364 7.45391 17.9364 7.54158V7.54495Z" fill="#CAC9C7"/>
<path fill-rule="evenodd" clip-rule="evenodd" d="M16.2075 6.99385V7.22919H16.6188V8.40809H16.8674V7.22919H17.2786V6.99385H16.8674V6.67859H16.6164V6.99385H16.2075Z" fill="#FFFF00" stroke="black" stroke-width="0.0249832"/>
<path fill-rule="evenodd" clip-rule="evenodd" d="M17.5251 7.70018C17.1904 7.68105 16.8551 7.72568 16.5371 7.83168C16.5371 7.5889 16.8203 7.30566 17.3059 7.30566C17.4138 7.30566 17.5251 7.56867 17.5251 7.70018Z" fill="#DA4500"/>
<path fill-rule="evenodd" clip-rule="evenodd" d="M13.2388 11.8774C13.1203 11.622 13.123 11.5404 13.3338 11.8327L15.873 16.6465L15.7953 16.6685L13.2401 11.8784L13.2388 11.8774Z" fill="#008500" stroke="black" stroke-width="0.00866003"/>
<path fill-rule="evenodd" clip-rule="evenodd" d="M14.9627 15.044C14.9896 14.6866 14.3355 14.3022 14.3085 14.3258C14.2849 14.3528 14.349 14.5618 14.4737 14.6663C14.2377 14.545 13.9882 14.4708 13.9815 14.5213C13.9612 14.5955 14.3524 14.7641 14.3861 14.8316C14.3861 14.8788 14.0961 14.872 14.1028 14.9192C14.1096 14.9664 14.9222 15.3778 14.9627 15.044ZM14.3085 14.0054C14.3355 13.648 13.6814 13.2636 13.6577 13.2872C13.6308 13.3108 13.6948 13.5199 13.8196 13.6278C13.5836 13.5064 13.334 13.4289 13.3273 13.4828C13.3104 13.5536 13.6982 13.7256 13.7319 13.793C13.7353 13.8402 13.4453 13.8335 13.4487 13.8807C13.4554 13.9279 14.2681 14.3359 14.3085 14.0054ZM13.8095 13.0613C13.8365 12.7039 13.1823 12.3195 13.1553 12.3431C13.1317 12.3667 13.1958 12.5758 13.3206 12.6837C13.0845 12.5623 12.835 12.4847 12.8283 12.5387C12.8114 12.6095 13.1992 12.7814 13.2329 12.8489C13.2329 12.8961 12.9463 12.8893 12.9496 12.9366C12.9564 12.9838 13.769 13.3951 13.8095 13.0613ZM13.3172 12.0363C13.3408 11.6822 12.69 11.2944 12.663 11.318C12.6361 11.345 12.7035 11.5541 12.8249 11.662C12.5889 11.5372 12.3393 11.463 12.336 11.517C12.3157 11.5878 12.7069 11.7598 12.7372 11.8238C12.7406 11.871 12.4506 11.8677 12.4574 11.9149C12.4607 11.9621 13.2734 12.3701 13.3172 12.0363Z" fill="#008F00"/>
<path fill-rule="evenodd" clip-rule="evenodd" d="M13.4861 11.9926C13.8031 11.8004 13.739 11.0687 13.7053 11.0619C13.6682 11.0585 13.53 11.2305 13.5131 11.3924C13.476 11.1361 13.3917 10.9001 13.3445 10.927C13.2737 10.954 13.358 11.3553 13.3209 11.4193C13.2872 11.4531 13.1186 11.2238 13.0849 11.2575C13.0444 11.2912 13.1793 12.1578 13.4895 11.9926H13.4861ZM13.9447 12.8895C14.3089 12.8086 14.5078 12.1005 14.4741 12.0836C14.4404 12.0667 14.2516 12.1848 14.1808 12.3331C14.2347 12.0802 14.2381 11.8307 14.1808 11.8408C14.1032 11.8442 14.0459 12.2488 13.9886 12.296C13.9447 12.3163 13.8638 12.0499 13.82 12.0667C13.7728 12.087 13.5974 12.9468 13.9447 12.8895ZM14.491 13.8066C14.8248 13.6448 14.8282 12.9097 14.7944 12.903C14.7607 12.8929 14.609 13.0547 14.5753 13.2132C14.5618 12.9535 14.5011 12.7141 14.4505 12.7377C14.3763 12.758 14.4235 13.1626 14.3831 13.2233C14.3426 13.2536 14.1976 13.0109 14.1571 13.0412C14.1167 13.0682 14.1706 13.9449 14.4943 13.8066H14.491ZM15.0844 15.007C15.4317 14.8755 15.516 14.1472 15.4823 14.1337C15.4486 14.1236 15.28 14.2686 15.2294 14.4237C15.2429 14.1641 15.2092 13.9179 15.1552 13.9381C15.0777 13.9516 15.0844 14.3596 15.0372 14.417C14.9934 14.4406 14.8754 14.1877 14.8349 14.2146C14.7911 14.2349 14.7506 15.1149 15.0844 15.007Z" fill="#008F00"/>
<path fill-rule="evenodd" clip-rule="evenodd" d="M15.8502 16.2582C15.7619 16.4094 15.4825 16.4231 15.2228 16.2846C14.9631 16.146 14.8287 15.9116 14.917 15.7604C15.0054 15.6092 15.2868 15.5966 15.5445 15.734C15.8021 15.8715 15.9386 16.107 15.8502 16.2582Z" fill="#FF1900" stroke="black" stroke-width="0.0249927"/>
<path fill-rule="evenodd" clip-rule="evenodd" d="M22.5561 11.1936L22.5998 11.0807L22.7176 11.1178L22.7613 11.005L22.8791 11.0421L22.836 11.1533L22.9571 11.1914L22.9127 11.3059L22.7916 11.2677L22.6826 11.549L22.5649 11.5119L22.6739 11.2306L22.5561 11.1936ZM22.3032 12.1873L22.421 12.2244L21.1557 15.4902L21.0379 15.4531L22.3032 12.1873Z" fill="#FFFF00" stroke="black" stroke-width="0.00866838"/>
<path fill-rule="evenodd" clip-rule="evenodd" d="M20.999 15.3785L21.2379 15.4538L20.8888 16.3548L20.6499 16.2796L20.999 15.3785ZM22.4035 11.5878L22.7618 11.7007C22.999 11.7754 22.4611 12.3014 22.4611 12.3014L22.224 12.2267C22.224 12.2267 22.1647 11.5126 22.4035 11.5878ZM22.7328 11.5952C22.7144 11.6429 22.6474 11.6646 22.5818 11.644C22.5162 11.6233 22.4772 11.5682 22.495 11.5221C22.5129 11.4761 22.5804 11.4527 22.646 11.4734C22.7116 11.4941 22.7507 11.5492 22.7322 11.5968L22.7328 11.5952Z" fill="#FFFF00" stroke="black" stroke-width="0.00866838"/>
<path fill-rule="evenodd" clip-rule="evenodd" d="M21.1892 15.8466C21.2893 15.991 21.1738 16.2345 20.9259 16.3914C20.6779 16.5483 20.3982 16.5549 20.2981 16.4105C20.1981 16.2662 20.3155 16.0214 20.5615 15.8657C20.8075 15.7101 21.0892 15.7022 21.1892 15.8466Z" fill="#FF1900" stroke="black" stroke-width="0.0249943"/>
</g>
<defs>
<clipPath id="clip0_11930_68144">
<rect width="36" height="24" rx="2" fill="white"/>
</clipPath>
</defs>
</svg>
