<svg width="36" height="24" viewBox="0 0 36 24" fill="none" xmlns="http://www.w3.org/2000/svg">
<g clip-path="url(#clip0_11930_68162)">
<path fill-rule="evenodd" clip-rule="evenodd" d="M-0.000976562 0H35.9934V24H-0.000976562V0Z" fill="#3B5AA3"/>
<path d="M8.76897 0.76001L8.76697 0.792129L9.24397 5.90001L10.529 2.57501L10.064 6.09501L12.219 3.27501L10.884 6.59501L13.664 4.42501L11.384 7.19001L14.684 5.86501L11.754 7.91501L15.304 7.46501L11.879 8.60501L17.079 9.09001L11.874 9.41501L15.224 10.7L11.729 10.11L14.599 12.205L11.354 10.855L13.524 13.6L10.794 11.4L12.224 14.6L10.054 11.86L10.504 15.31L9.31897 12.11L8.83397 17.13L8.52398 12.095L7.14897 15.28L7.73898 11.875L5.55897 14.61L6.90897 11.465L4.17897 13.53L6.32897 10.83L3.17897 12.21L5.89397 10.21L2.54397 10.66L5.72897 9.35001L0.698975 9.01501L5.71898 8.55501L2.51897 7.28501L5.90398 7.73501L3.18397 5.67501L6.28898 7.05501L4.14897 4.37501L6.89897 6.50501L5.52397 3.29001L7.61897 6.11001L7.09897 2.62001L8.44897 5.90001L8.76697 0.792129L8.76398 0.76001H8.76897Z" fill="white"/>
<path fill-rule="evenodd" clip-rule="evenodd" d="M-0.000976562 23.35L35.9934 0V4.35L-0.000976562 24V23.35Z" fill="#E2AE57"/>
<path fill-rule="evenodd" clip-rule="evenodd" d="M1.25902 24.0001L35.999 8.96006L35.9934 4.18506L-0.000976562 24.0001H1.25902Z" fill="white"/>
</g>
<defs>
<clipPath id="clip0_11930_68162">
<rect width="36" height="24" rx="2" fill="white"/>
</clipPath>
</defs>
</svg>
