<svg width="36" height="24" viewBox="0 0 36 24" fill="none" xmlns="http://www.w3.org/2000/svg">
<g clip-path="url(#clip0_11930_68181)">
<path d="M0 0H36V24H0V0Z" fill="#DA2032"/>
<path d="M11.9971 0H24.0008V24H11.9971V0Z" fill="#0066B3"/>
<path d="M6.15 3.81995C6.07618 3.85224 6.01279 3.9044 5.96688 3.97062C5.92097 4.03683 5.89436 4.11449 5.89 4.19495C5.88426 4.26673 5.89995 4.34347 5.9153 4.41852C5.92668 4.47415 5.93787 4.52886 5.94 4.57995C5.94 4.67605 5.89498 4.74283 5.84614 4.81527C5.78825 4.90113 5.725 4.99494 5.725 5.15495C5.725 5.193 5.73876 5.23322 5.7558 5.28306C5.78354 5.36419 5.82 5.47079 5.82 5.63495C5.8 5.77495 5.72 5.80995 5.635 5.81995C5.61094 5.81996 5.58711 5.81514 5.56494 5.80578C5.54277 5.79643 5.5227 5.78272 5.50592 5.76547C5.48914 5.74822 5.47599 5.72778 5.46724 5.70537C5.45849 5.68295 5.45433 5.659 5.455 5.63495C5.45487 5.58838 5.47279 5.54358 5.505 5.50995C5.51131 5.50449 5.51799 5.49948 5.525 5.49495C5.53474 5.48399 5.54566 5.47481 5.55662 5.46561C5.59066 5.43701 5.625 5.40816 5.625 5.32495C5.625 5.29116 5.6099 5.25736 5.59014 5.21314C5.57774 5.18538 5.5635 5.15351 5.55 5.11495C5.515 5.01495 5.54 4.85495 5.62 4.75995C5.49 4.80995 5.415 4.92995 5.37 5.03995C5.35238 5.09942 5.35028 5.14725 5.34832 5.19199C5.34584 5.2488 5.34357 5.30061 5.31 5.36495C5.28881 5.40732 5.26579 5.43504 5.24205 5.46363C5.22657 5.48226 5.21079 5.50127 5.195 5.52495C5.145 5.59495 5.095 5.74495 5.095 5.81995C5.11201 6.04899 5.21501 6.26314 5.38332 6.41941C5.55164 6.57569 5.77282 6.66254 6.0025 6.66254C6.23218 6.66254 6.45336 6.57569 6.62168 6.41941C6.78999 6.26314 6.89299 6.04899 6.91 5.81995C6.91 5.74495 6.855 5.59495 6.81 5.52495C6.7944 5.50414 6.7794 5.48695 6.765 5.47044C6.73787 5.43934 6.71287 5.41068 6.69 5.36495C6.65729 5.30225 6.6543 5.25145 6.65106 5.19633C6.64835 5.15034 6.64547 5.10135 6.625 5.03995C6.585 4.92995 6.51 4.80995 6.38 4.75995C6.46 4.85995 6.48 5.01995 6.45 5.11495C6.43772 5.15005 6.42543 5.17899 6.41466 5.20436C6.39474 5.25128 6.38 5.28601 6.38 5.32495C6.38 5.41137 6.41395 5.43916 6.45033 5.46892C6.46026 5.47704 6.47036 5.4853 6.48 5.49495C6.48529 5.49965 6.4903 5.50466 6.495 5.50995C6.52721 5.54358 6.54513 5.58838 6.545 5.63495C6.54567 5.659 6.54151 5.68295 6.53276 5.70537C6.52401 5.72778 6.51086 5.74822 6.49408 5.76547C6.4773 5.78272 6.45723 5.79643 6.43506 5.80578C6.41289 5.81514 6.38906 5.81996 6.365 5.81995C6.265 5.80495 6.19 5.75995 6.18 5.63495C6.18 5.44697 6.22327 5.35418 6.26333 5.26827C6.29786 5.19423 6.33 5.1253 6.33 5.00495C6.33 4.8054 6.23402 4.66258 6.14559 4.53098C6.07004 4.41856 6 4.31433 6 4.18995C6 4.09995 6.02 3.93995 6.15 3.81995Z" fill="#FFD900"/>
<path d="M2 11.4499H3.815V20.1749H2V11.4499Z" fill="#FFD900"/>
<path d="M8.18 11.4499H10V20.1749H8.18V11.4499Z" fill="#FFD900"/>
<path d="M4.18 11.4499H7.815L6 12.5399L4.18 11.4499Z" fill="#FFD900"/>
<path d="M4.18 12.8999H7.815V13.6299H4.18V12.8999Z" fill="#FFD900"/>
<path d="M4.18 17.9949H7.815V18.7249H4.18V17.9949Z" fill="#FFD900"/>
<path d="M4.18 19.0849H7.815L6 20.1749L4.18 19.0849Z" fill="#FFD900"/>
<path d="M7.45492 8.54497C7.45492 9.34854 6.8035 9.99997 5.99992 9.99997C5.19635 9.99997 4.54492 9.34854 4.54492 8.54497C4.54492 7.74139 5.19635 7.08997 5.99992 7.08997C6.8035 7.08997 7.45492 7.74139 7.45492 8.54497Z" fill="#FFD900"/>
<path d="M5.99958 10.36C6.89476 10.36 7.66392 9.82048 7.99958 9.04883C7.99986 9.06252 8 9.07625 8 9.09C8 10.1946 7.10457 11.09 6 11.09C4.89543 11.09 4 10.1946 4 9.09C4 9.07686 4.00013 9.06375 4.00038 9.05067C4.33647 9.82134 5.10511 10.36 5.99958 10.36Z" fill="#FFD900"/>
<path fill-rule="evenodd" clip-rule="evenodd" d="M5.99969 14C6.02218 14 6.04458 14.0004 6.06688 14.0012C6.26894 14.0171 6.45962 14.1045 6.60398 14.2489C6.76424 14.4091 6.85427 14.6265 6.85427 14.8531C6.85427 15.0798 6.76424 15.2971 6.60398 15.4574C6.44372 15.6176 6.22636 15.7077 5.99973 15.7077C5.71522 15.7077 5.44237 15.8207 5.2412 16.0219C5.04002 16.223 4.927 16.4959 4.927 16.7804C4.927 17.0148 5.00373 17.2413 5.14327 17.4263C4.56986 17.12 4.17969 16.5155 4.17969 15.82C4.17969 14.8148 4.99453 14 5.99969 14ZM5.99962 15.2167C6.20045 15.2167 6.36326 15.0538 6.36326 14.853C6.36326 14.6522 6.20045 14.4894 5.99962 14.4894C5.79879 14.4894 5.63599 14.6522 5.63599 14.853C5.63599 15.0538 5.79879 15.2167 5.99962 15.2167Z" fill="#FFD900"/>
<path fill-rule="evenodd" clip-rule="evenodd" d="M5.99973 17.6349V17.64C7.00487 17.64 7.81969 16.8251 7.81969 15.82C7.81969 15.1278 7.43323 14.5258 6.86429 14.2181C6.99869 14.4011 7.07245 14.6233 7.07245 14.8531C7.07245 15.1376 6.95943 15.4105 6.75826 15.6116C6.55708 15.8128 6.28423 15.9258 5.99973 15.9258C5.77309 15.9258 5.55573 16.0159 5.39547 16.1761C5.23521 16.3364 5.14518 16.5537 5.14518 16.7804C5.14518 17.007 5.23521 17.2244 5.39547 17.3846C5.55573 17.5449 5.77309 17.6349 5.99973 17.6349ZM5.99962 17.1439C6.20045 17.1439 6.36326 16.9811 6.36326 16.7803C6.36326 16.5794 6.20045 16.4166 5.99962 16.4166C5.79879 16.4166 5.63599 16.5794 5.63599 16.7803C5.63599 16.9811 5.79879 17.1439 5.99962 17.1439Z" fill="#FFD900"/>
</g>
<defs>
<clipPath id="clip0_11930_68181">
<rect width="36" height="24" rx="2" fill="white"/>
</clipPath>
</defs>
</svg>
