<svg width="36" height="24" viewBox="0 0 36 24" fill="none" xmlns="http://www.w3.org/2000/svg">
<rect width="36" height="24" rx="2" fill="#00785E"/>
<path d="M12.8719 16.5801H17.9969L17.9991 16.5793L18.0014 16.5801H23.1264C23.191 16.5146 23.2543 16.4479 23.3164 16.3801H18.0014L17.9991 16.3809L17.9969 16.3801H12.6819C12.744 16.4479 12.8073 16.5146 12.8719 16.5801Z" fill="white"/>
<path d="M17.9991 15.0104L17.9969 15.0151C17.2919 15.6101 16.3819 15.9701 15.3819 15.9701H12.3319C12.2307 15.8401 12.134 15.7067 12.0419 15.5701H15.1969C15.595 15.5698 15.9909 15.5108 16.3719 15.3951C16.9799 15.2087 17.5362 14.8835 17.9969 14.4451L17.9991 14.4496L18.0014 14.4451C18.4621 14.8835 19.0184 15.2087 19.6264 15.3951C20.0073 15.5108 20.4033 15.5698 20.8014 15.5701H23.9564C23.8643 15.7067 23.7676 15.8401 23.6664 15.9701H20.6164C19.6164 15.9701 18.7064 15.6101 18.0014 15.0151L17.9991 15.0104Z" fill="white"/>
<path d="M12.0319 13.8801C12.1977 13.8719 12.3613 13.8381 12.5169 13.7801H12.5219C13.2775 14.5129 14.2893 14.9219 15.3419 14.9201C15.5869 14.9201 15.8269 14.8951 16.0619 14.8551C15.1835 14.9272 14.3054 14.7116 13.5604 14.2408C12.8153 13.7699 12.2437 13.0694 11.9319 12.2451C12.5133 12.0029 13.1371 11.8789 13.7669 11.8801C14.8823 11.8805 15.9621 12.2734 16.8169 12.9901C16.374 12.5262 15.8418 12.1568 15.2523 11.9041C14.6628 11.6515 14.0282 11.5208 13.3869 11.5201C13.3001 11.3532 13.185 11.2027 13.0469 11.0751C13.7283 11.0422 14.4088 11.1564 15.0421 11.4101C15.6754 11.6638 16.2466 12.0509 16.7169 12.5451C16.2169 11.8751 15.9219 11.0401 15.9219 10.1401C15.9202 9.4391 16.1011 8.7498 16.4469 8.14005C16.5195 8.38301 16.6479 8.60561 16.8219 8.79005C16.5719 9.31505 16.4319 9.90505 16.4319 10.5251C16.4324 11.4216 16.7315 12.2924 17.2819 13.0001C16.8352 12.3347 16.5967 11.5514 16.5969 10.7501C16.5942 10.3594 16.6481 9.97032 16.7569 9.59505C17.0469 8.61505 17.6669 7.98005 17.9969 7.68005C17.9976 7.68529 17.9984 7.69052 17.9991 7.69576C17.9999 7.69052 18.0007 7.68529 18.0014 7.68005C18.3314 7.98005 18.9514 8.61505 19.2414 9.59505C19.3502 9.97032 19.4041 10.3594 19.4014 10.7501C19.4016 11.5514 19.1631 12.3347 18.7164 13.0001C19.2668 12.2924 19.5659 11.4216 19.5664 10.5251C19.5664 9.90505 19.4264 9.31505 19.1764 8.79005C19.3504 8.60561 19.4788 8.38301 19.5514 8.14005C19.8972 8.7498 20.0781 9.4391 20.0764 10.1401C20.0764 11.0401 19.7814 11.8751 19.2814 12.5451C19.7517 12.0509 20.3229 11.6638 20.9562 11.4101C21.5895 11.1564 22.27 11.0422 22.9514 11.0751C22.8132 11.2027 22.6982 11.3532 22.6114 11.5201C21.9701 11.5208 21.3355 11.6515 20.746 11.9041C20.1565 12.1568 19.6243 12.5262 19.1814 12.9901C20.0362 12.2734 21.1159 11.8805 22.2314 11.8801C22.8612 11.8789 23.485 12.0029 24.0664 12.2451C23.7546 13.0694 23.183 13.7699 22.4379 14.2408C21.6929 14.7116 20.8148 14.9272 19.9364 14.8551C20.1714 14.8951 20.4114 14.9201 20.6564 14.9201C21.709 14.9219 22.7208 14.5129 23.4764 13.7801H23.4814C23.637 13.8381 23.8006 13.8719 23.9664 13.8801C23.5864 14.312 23.1188 14.6581 22.5946 14.8951C22.0704 15.1322 21.5017 15.2549 20.9264 15.2551C20.3797 15.2552 19.8386 15.1445 19.3359 14.9296C18.8331 14.7148 18.3792 14.4003 18.0014 14.0051C18.0007 13.9998 17.9999 13.9946 17.9991 13.9893C17.9984 13.9946 17.9976 13.9998 17.9969 14.0051C17.6191 14.4003 17.1651 14.7148 16.6624 14.9296C16.1597 15.1445 15.6186 15.2552 15.0719 15.2551C14.4966 15.2549 13.9279 15.1322 13.4037 14.8951C12.8795 14.6581 12.4119 14.312 12.0319 13.8801Z" fill="white"/>
<path d="M15.3419 18.2201H17.9969L17.9991 18.2243L18.0014 18.2201H20.6564C19.8114 18.555 18.9104 18.7264 18.0014 18.7251L17.9991 18.7208L17.9969 18.7251C17.0879 18.7264 16.1869 18.555 15.3419 18.2201Z" fill="white"/>
<path d="M13.3169 16.9951H17.9969L17.9991 16.9972L18.0014 16.9951H22.6814C22.555 17.1029 22.4249 17.2063 22.2914 17.3051H18.0014L17.9991 17.3027L17.9969 17.3051H13.7069C13.5733 17.2063 13.4433 17.1029 13.3169 16.9951Z" fill="white"/>
<path d="M14.1619 17.6201H17.9969L17.9991 17.6236L18.0014 17.6201H21.8364C21.6043 17.7671 21.3639 17.9006 21.1164 18.0201H18.0014L17.9991 18.0165L17.9969 18.0201H14.8819C14.6344 17.9006 14.394 17.7671 14.1619 17.6201Z" fill="white"/>
<path d="M16.75 5.4349L17.5217 5.99697L17.225 6.9099L18.001 6.34609L18.775 6.9099L18.4789 5.99879L19.255 5.4349H18.2957L18 4.5249L17.7043 5.4349H16.75Z" fill="#FBD116"/>
<path d="M12.0217 8.74L12.5058 9.18977L12.2267 9.79L12.8061 9.46877L13.2917 9.91999L13.1637 9.27047L13.7417 8.95L13.0848 8.86979L12.9567 8.21999L12.6777 8.82009L12.0217 8.74Z" fill="#FBD116"/>
<path d="M13.8667 7.14L14.5296 7.15146L14.7217 7.78499L14.9369 7.1585L15.6017 7.16999L15.0711 6.76773L15.2867 6.14L14.7457 6.52101L14.2167 6.12L14.41 6.75738L13.8667 7.14Z" fill="#FBD116"/>
<path d="M23.4925 9.18977L23.9766 8.74L23.3206 8.82009L23.0416 8.21999L22.9135 8.86979L22.2566 8.95L22.8346 9.27047L22.7066 9.91999L23.1922 9.46877L23.7716 9.79L23.4925 9.18977Z" fill="#FBD116"/>
<path d="M21.4687 7.15146L22.1316 7.14L21.5882 6.75738L21.7816 6.12L21.2526 6.52101L20.7116 6.14L20.9272 6.76773L20.3966 7.16999L21.0614 7.1585L21.2766 7.78499L21.4687 7.15146Z" fill="#FBD116"/>
</svg>
