<svg width="36" height="24" viewBox="0 0 36 24" fill="none" xmlns="http://www.w3.org/2000/svg">
<rect width="36" height="24" rx="2" fill="#0071BC"/>
<path fill-rule="evenodd" clip-rule="evenodd" d="M20.5001 18.285C20.5001 18.285 21.2601 17.48 21.9901 17.635C22.2101 16.785 23.0401 16.715 23.0401 16.715C23.0401 16.715 22.9551 15.78 24.0151 15.575C24.0451 14.94 24.6901 14.41 24.6901 14.41C24.6901 14.41 24.5601 13.425 25.2301 13.195C24.8201 12.415 25.3701 11.845 25.3651 11.83C25.3551 11.815 24.6651 10.59 25.2851 10.24C24.6351 9.68999 24.8451 9.06999 24.8451 9.06999C24.8451 9.06999 24.1351 8.88499 24.3901 8.03499C23.8051 7.93499 23.6901 6.98999 23.6901 6.98999C23.6901 6.98999 22.7901 7.17499 22.6801 6.38999C22.0801 6.48499 22.0201 5.89999 22.0101 5.89999C22.0051 5.89999 20.8351 6.21499 20.6001 5.32999C20.1451 5.56499 19.9501 5.14499 19.9501 5.14499C19.9501 5.14499 19.3001 5.46999 18.9101 4.84499C18.1351 5.32999 17.7001 4.82499 17.7001 4.82499C17.7001 4.82499 16.6851 5.49499 16.3501 4.97499C15.7501 5.58499 15.2101 5.32499 15.2101 5.32499C15.2101 5.32499 14.7601 6.12499 14.0251 5.92499C13.8601 6.66999 13.0151 6.68499 13.0151 6.68499C13.0151 6.68499 13.1051 7.33999 12.0951 7.51999C11.9651 8.29499 11.4351 8.41999 11.4351 8.41999C11.4351 8.41999 11.4851 9.17999 11.0101 9.41999C11.1801 9.84499 10.7401 10.365 10.7401 10.365C10.7401 10.365 11.2101 10.95 10.5701 11.61C11.1851 11.77 10.7401 12.83 10.7401 12.83C10.7401 12.83 11.5901 13.21 11.0551 13.915C11.6651 14.115 11.4751 14.595 11.4801 14.88C11.8701 15.055 12.2101 14.97 12.0451 15.75C13.2351 15.885 12.6751 16.54 12.6751 16.54C12.6751 16.54 13.2251 16.565 13.0101 17.005C14.0251 16.98 14.1751 17.765 14.1751 17.765C14.1751 17.765 15.1151 17.515 15.2401 17.88C15.3651 18.245 14.8301 20.715 14.8301 20.715C14.8301 20.715 14.0301 20.715 13.4401 20.075C12.0501 20.04 12.3601 19.125 12.3401 19.125C12.3151 19.125 11.8751 19.295 11.6501 18.53C10.7201 18.72 10.7501 17.94 10.7401 17.93C10.7351 17.925 10.3251 17.74 10.4751 17.355C9.5201 17.44 9.5901 16.505 9.5901 16.505C9.3801 16.42 9.3051 16.225 9.3351 16.03C9.2101 15.985 8.3601 15.97 8.8001 14.85C7.9901 14.36 8.4951 13.8 8.4951 13.8C8.4951 13.8 7.3751 13.22 8.2401 12.55C7.5901 11.6 8.2901 11.125 8.2901 11.125C8.2901 11.125 7.3951 10.22 8.3051 9.57499C8.1551 8.19999 8.9751 7.86999 8.9751 7.86999C8.9751 7.86999 8.5451 6.74999 9.7151 6.27999C9.7901 5.14499 10.6101 5.11499 10.6101 5.11499C10.6101 5.11499 10.6301 4.21499 11.9201 4.30499C12.1701 3.49999 13.0451 3.65999 13.0451 3.65999C13.0451 3.65999 13.3151 2.68499 14.5101 3.15499C15.1151 1.96999 16.0201 2.57499 16.0201 2.57499C16.0201 2.57499 16.5901 2.20499 16.8701 2.32499C17.2351 1.69999 18.0101 2.29499 18.5051 2.41999C18.6901 2.34499 19.3351 1.85999 19.8301 2.46999C20.4901 2.04499 21.0551 2.81999 21.0551 2.81999C21.0551 2.81999 21.9601 2.35999 22.3851 3.40999C24.3101 3.23499 24.0351 4.49499 24.0351 4.49499C24.0351 4.49499 25.5451 4.14999 25.2151 5.65999C26.5951 5.75499 26.4551 6.65999 26.4551 6.65999C26.4551 6.65999 27.3251 7.31999 26.9451 7.90999C27.7201 7.94999 27.4351 8.69499 27.4351 8.69499C27.4351 8.69499 28.0301 8.92499 27.5351 9.84499C28.6701 10.75 27.7551 11.655 27.7501 11.645C27.7401 11.64 28.3551 12.375 27.8001 13.225C27.9701 14.575 27.2901 14.915 27.2901 14.915C27.2901 14.915 27.4651 15.79 26.7051 16.035C26.6901 17.06 25.7201 17.185 25.7201 17.185C25.7201 17.185 25.9801 17.635 25.0201 18.1C24.9801 18.785 23.9801 18.84 23.9801 18.84C23.9801 18.84 23.8851 20.1 22.6101 19.76C22.3051 20.77 20.8101 20.47 20.7801 20.46C20.7551 20.445 20.4951 18.29 20.4951 18.285H20.5001Z" fill="white" stroke="black" stroke-width="0.095"/>
<path fill-rule="evenodd" clip-rule="evenodd" d="M11.2501 6.19995C11.2501 6.19995 11.5701 6.47995 11.5101 6.89995C11.4501 7.31495 11.2101 7.89495 11.2601 8.32495C11.2901 8.49995 11.2751 8.80995 11.2751 8.80995C11.2751 8.80995 10.9901 8.39995 10.9851 7.95995C10.9801 7.51995 11.2951 7.10495 11.2951 6.77995C11.2951 6.45495 11.2401 6.19495 11.2451 6.20495L11.2501 6.19995ZM11.0901 6.32995C11.0901 6.32995 10.6701 6.72995 10.6151 7.11495C10.5751 7.31495 10.5651 8.24995 10.5551 8.66495C10.5451 8.78995 10.4951 9.28995 10.4851 9.47495C10.4701 9.65495 10.7901 9.16495 10.8101 8.75995C10.8001 8.34495 10.8001 7.46995 10.8401 7.33495C10.8801 7.16495 10.8701 6.97995 10.9301 6.80995L11.0901 6.32995Z" fill="#217900" stroke="black" stroke-width="0.095" stroke-linejoin="round"/>
<path fill-rule="evenodd" clip-rule="evenodd" d="M20.2967 5.02499C20.2967 5.02499 20.8367 4.77499 20.9967 4.30499C21.1567 3.83499 20.5217 3.83499 20.4417 3.98499C20.3567 4.13499 20.5117 4.49999 20.4717 4.59999C20.4317 4.69999 20.2117 4.92999 20.2967 5.01999V5.02499Z" fill="#FFD200" stroke="#EF8A10" stroke-width="0.095"/>
<path fill-rule="evenodd" clip-rule="evenodd" d="M15.4874 5.19493C15.4874 5.19493 15.8374 4.70993 15.7474 4.22493C15.6524 3.74493 15.1074 4.04493 15.1074 4.21493C15.1074 4.38493 15.4174 4.62993 15.4324 4.73493C15.4474 4.83993 15.3674 5.15493 15.4824 5.18993L15.4874 5.19493ZM14.5324 5.47993C14.5324 5.47993 14.8824 4.99493 14.7924 4.51493C14.7024 4.02993 14.1524 4.32993 14.1524 4.49993C14.1524 4.66993 14.4674 4.91993 14.4824 5.02493C14.4924 5.12493 14.4174 5.43993 14.5324 5.47993ZM13.4774 5.80493C13.4774 5.80493 13.8274 5.32493 13.7374 4.83993C13.6424 4.35493 13.0974 4.65493 13.0974 4.82493C13.0974 4.99493 13.4074 5.24493 13.4224 5.34993C13.4374 5.44993 13.3574 5.76493 13.4724 5.80493H13.4774ZM12.7274 6.54993C12.7274 6.54993 13.0824 6.06493 12.9924 5.58493C12.9024 5.09993 12.3524 5.39993 12.3524 5.56993C12.3524 5.73993 12.6674 5.98993 12.6774 6.09493C12.6924 6.19493 12.6124 6.50993 12.7274 6.54993ZM11.9474 7.26993C11.9474 7.26993 12.2974 6.78493 12.2074 6.29993C12.1174 5.81493 11.5674 6.11993 11.5674 6.28993C11.5674 6.45993 11.8824 6.70493 11.8974 6.80993C11.9074 6.91493 11.8324 7.22993 11.9474 7.26993Z" fill="#FFD200" stroke="#EF8A10" stroke-width="0.125"/>
<path fill-rule="evenodd" clip-rule="evenodd" d="M13.7473 3.08497C13.7473 3.08497 13.2773 3.45497 13.2373 3.94497C13.1973 4.43497 13.8023 4.29497 13.8473 4.12997C13.8973 3.96497 13.6623 3.64497 13.6773 3.53997C13.6923 3.43997 13.8523 3.15497 13.7473 3.08997V3.08497ZM15.3123 2.60497C15.3123 2.60497 14.8473 2.97497 14.8023 3.46497C14.7623 3.95497 15.3673 3.81497 15.4173 3.64997C15.4623 3.48497 15.2273 3.15997 15.2423 3.05497C15.2573 2.95497 15.4173 2.66997 15.3123 2.60497ZM9.47727 6.82997C9.47727 6.82997 9.57727 7.41997 9.98727 7.69497C10.3973 7.96497 10.5623 7.36497 10.4423 7.24497C10.3223 7.12497 9.92727 7.17497 9.84227 7.11497C9.75727 7.04997 9.59227 6.77497 9.47727 6.82997ZM8.69727 8.82997C8.69727 8.82997 8.69727 9.42997 9.06227 9.76497C9.42227 10.095 9.68227 9.52997 9.58227 9.39497C9.48227 9.25997 9.08227 9.24497 9.01227 9.16997C8.93727 9.08997 8.81227 8.79497 8.69727 8.83497V8.82997ZM10.4973 11.07C10.4973 11.07 10.2873 10.51 9.83227 10.32C9.37727 10.14 9.33227 10.76 9.47227 10.855C9.61727 10.945 9.99227 10.82 10.0873 10.865C10.1873 10.91 10.4023 11.145 10.5023 11.065L10.4973 11.07ZM10.1273 10.1C10.1273 10.1 10.4873 9.62497 10.4073 9.14497C10.3223 8.65997 9.77227 8.94497 9.76727 9.11497C9.76727 9.28497 10.0673 9.53997 10.0823 9.64497C10.0923 9.74997 10.0073 10.06 10.1273 10.105V10.1ZM21.4073 5.50497C21.4073 5.50497 21.9473 5.25497 22.1073 4.78997C22.2673 4.32497 21.6323 4.31997 21.5523 4.46497C21.4673 4.61497 21.6223 4.98497 21.5823 5.07997C21.5423 5.17997 21.3223 5.41497 21.4073 5.50497ZM23.0473 6.32497C23.0473 6.32497 23.3673 5.81997 23.2423 5.34497C23.1173 4.86997 22.5923 5.20497 22.6023 5.37497C22.6123 5.53997 22.9423 5.76997 22.9623 5.87497C22.9823 5.97497 22.9273 6.29497 23.0473 6.32497ZM27.5273 10.975C27.5273 10.975 27.3123 10.42 26.8573 10.23C26.4023 10.045 26.3573 10.67 26.4973 10.76C26.6423 10.855 27.0223 10.725 27.1123 10.77C27.2123 10.82 27.4273 11.055 27.5273 10.975ZM25.3373 11.325C25.3373 11.325 25.3473 10.725 25.7123 10.395C26.0773 10.065 26.3323 10.64 26.2323 10.775C26.1273 10.91 25.7323 10.915 25.6523 10.99C25.5823 11.065 25.4523 11.36 25.3373 11.32V11.325ZM24.9873 4.98497C24.9873 4.98497 24.4223 4.76997 23.9873 4.98497C23.5373 5.20497 23.9773 5.65497 24.1373 5.60997C24.3023 5.55997 24.4573 5.19497 24.5573 5.15497C24.6573 5.11497 24.9773 5.10497 24.9823 4.98497H24.9873ZM23.6973 3.91497C23.6973 3.91497 23.1423 3.69997 22.6973 3.91497C22.2573 4.13497 22.6923 4.58497 22.8573 4.53997C23.0173 4.48997 23.1773 4.12497 23.2723 4.08497C23.3723 4.04497 23.6923 4.03497 23.6973 3.91497ZM21.7973 2.89497C21.7973 2.89497 21.3223 3.25997 21.2773 3.74497C21.2273 4.23497 21.8373 4.09997 21.8873 3.93997C21.9373 3.77497 21.7023 3.44997 21.7173 3.34497C21.7373 3.24497 21.8973 2.96497 21.7973 2.89497ZM20.5573 2.59497C20.5573 2.59497 20.3373 3.14997 20.5523 3.59497C20.7673 4.03997 21.2173 3.60497 21.1723 3.44497C21.1273 3.27997 20.7623 3.11997 20.7223 3.02497C20.6823 2.92497 20.6773 2.59997 20.5573 2.59497ZM17.0323 4.74497C17.0323 4.74497 17.4173 4.28497 17.3623 3.79497C17.3073 3.30997 16.7373 3.56997 16.7273 3.73997C16.7123 3.90997 17.0073 4.17997 17.0123 4.28497C17.0173 4.38497 16.9173 4.69497 17.0323 4.73997V4.74497Z" fill="#FFD200" stroke="#EF8A10" stroke-width="0.095"/>
<path fill-rule="evenodd" clip-rule="evenodd" d="M19.1401 5.71995C19.1401 5.71995 20.0651 5.77994 20.1101 6.30994C20.1551 6.83994 19.8901 7.16495 19.8901 7.16495C19.8901 7.16495 20.0051 8.31494 19.1001 8.64994C18.1301 8.76494 16.6051 8.67494 16.6051 8.67494C16.6051 8.67494 16.1551 8.78494 15.9751 7.85994C15.8709 7.33766 15.7941 6.81027 15.7451 6.27995C15.7451 6.27995 15.8351 5.75995 16.4901 5.72995C17.1401 5.69495 19.1301 5.72995 19.1401 5.71995Z" fill="#8C8A8C" stroke="black" stroke-width="0.095"/>
<path d="M19.8854 7.16003C19.8854 7.16003 19.3854 7.78003 19.4354 8.03503" stroke="black" stroke-width="0.095" stroke-linecap="round"/>
<path fill-rule="evenodd" clip-rule="evenodd" d="M19.2151 8.61499C19.3401 8.71999 19.4551 8.83499 19.4801 9.21499L19.5301 9.98499L20.1801 15.815L20.7501 20.03L20.7901 20.68C20.7901 20.68 20.6551 21.165 20.2701 21.205C19.9951 21.785 18.4851 21.955 18.3351 21.95C18.2001 21.94 17.7201 21.74 17.4301 21.765C17.1351 21.79 16.6301 21.985 16.4051 21.955C16.1801 21.92 15.6651 21.745 15.5751 21.375C14.9401 21.175 14.8401 20.69 14.8401 20.69L15.5251 15.815L16.1901 9.64499C16.1901 9.64499 16.2701 8.82499 16.6001 8.69999C16.9451 8.66999 18.7201 8.73499 19.2151 8.61499Z" fill="#8C8A8C" stroke="black" stroke-width="0.095"/>
<path d="M15.72 17.0549L15.585 21.3699M19.91 17.6249L20.29 21.1849" stroke="black" stroke-width="0.095"/>
<path d="M8.82945 14.8149L8.81445 14.8649M26.7495 14.6599L26.7645 14.7099" stroke="black" stroke-width="0.05"/>
<path d="M8.35028 8.98999C8.35028 8.98999 8.63028 9.38499 8.68528 9.60999C8.73528 9.83499 8.83028 10.28 8.95028 10.46C9.07528 10.645 9.78028 11.655 9.82028 12.075C9.82528 12.355 9.52528 12.825 9.08528 12.835C8.80528 12.825 8.09528 12.645 8.06528 12.035C8.03528 11.42 8.28028 11.41 8.31528 11.035C8.34028 10.665 8.35028 8.99999 8.35028 8.98999Z" stroke="#6B18B5" stroke-width="0.095" stroke-linejoin="round"/>
<path d="M13.2251 3.63997C13.2251 3.63997 12.9251 3.65997 12.7051 3.78497C12.5301 3.88997 12.2301 4.04997 12.0251 4.33497C11.4951 4.74497 10.7001 4.93497 10.4501 5.28497C10.3001 5.51497 10.3101 6.06997 10.6851 6.30997C10.9251 6.44497 11.6351 6.65997 11.9751 6.15497C12.3151 5.64497 12.1101 5.50497 12.2751 5.17497C12.5107 4.61738 12.8311 4.09959 13.2251 3.63997ZM20.3501 2.89997C20.3501 2.89997 20.1301 2.69997 19.8851 2.62497C19.6851 2.57497 19.3551 2.59497 19.0101 2.55997C18.3451 2.46997 17.6601 1.98997 17.2451 2.04997C16.9751 2.09997 16.5801 2.49997 16.6701 2.92997C16.7351 3.19997 17.0351 3.73997 17.6401 3.63497C18.2401 3.52997 18.2401 3.39497 18.5901 3.28497C19.4601 2.79997 20.3401 2.89997 20.3501 2.89997ZM27.4201 9.76997C27.4701 9.65497 27.3751 9.43997 27.3101 9.19497C27.2501 8.99497 27.1551 8.69497 26.9251 8.41997C26.6551 7.80997 26.7001 6.96997 26.4251 6.64997C26.2401 6.44997 25.6951 6.31997 25.3751 6.62997C25.1801 6.82997 24.8051 7.45997 25.2151 7.91497C25.6251 8.36497 25.8051 8.19997 26.0851 8.43997C26.7601 8.88997 27.0851 9.68997 27.4201 9.76997ZM27.1751 15.1C27.2701 14.975 27.4351 14.73 27.4151 14.525C27.4001 14.365 27.4901 13.875 27.5001 13.66C27.5601 12.995 27.9751 12.45 27.8601 11.875C27.7951 11.605 27.4001 11.225 26.9701 11.335C26.7101 11.415 26.1201 11.735 26.2551 12.335C26.3901 12.935 26.5851 12.92 26.7101 13.27C27.0751 13.995 26.8451 14.855 27.1751 15.1Z" stroke="#6B18B5" stroke-width="0.05" stroke-linejoin="round"/>
<path d="M22.2749 19.3401C22.2749 19.3401 22.1599 19.5601 22.6149 19.7501M23.1799 18.8301C23.1799 18.8301 23.6799 18.7051 24.0199 18.8301M24.6799 17.5601C24.6799 17.5701 24.6099 17.7851 25.0099 18.1001M24.9699 17.0001C24.9699 17.0001 25.2649 17.2151 25.7599 17.2001M21.9899 17.6301C21.9899 17.6301 22.0049 18.2051 21.7099 18.4701M22.9799 16.7451C22.9799 16.7451 23.4649 16.8651 23.8649 16.6651M26.0949 15.9001C26.0949 15.9001 26.1999 16.0501 26.7399 16.0251M23.9949 15.5601C24.0099 15.5701 24.6299 15.7701 25.0199 15.5901M25.2299 13.2001C25.2299 13.2001 25.2549 13.1651 25.4449 13.8351M25.7049 11.3151C25.7049 11.3151 25.6799 11.6701 25.3949 11.8251M27.5399 9.85508C27.5399 9.85508 27.1199 10.1951 27.1999 10.3301M25.4649 9.61008C25.4649 9.61008 25.6799 9.97508 25.3249 10.2251M24.4099 8.05008C24.4099 8.05008 24.7849 8.03508 24.9499 8.35508M23.7099 6.99008H23.9949M25.1949 5.69008C25.1949 5.69508 25.2699 5.76508 25.1249 5.91508M22.5249 5.72508C22.5249 5.72508 22.7249 6.03508 22.6899 6.42008M23.6799 4.66508C23.7699 4.65508 24.0649 4.52508 24.0649 4.52508M22.3949 3.42508C22.3899 3.42508 22.2849 3.81008 22.4749 3.95008M21.9199 5.20008C21.9199 5.62008 22.2499 5.51508 22.0199 5.91508M21.1099 4.85008C20.9179 4.98475 20.7432 5.14261 20.5899 5.32008M19.7699 4.63508C19.7699 4.63508 19.9899 4.85008 19.9349 5.14508M19.1349 4.46008C19.1349 4.46008 19.0249 4.79008 18.8799 4.87508M17.9799 4.37508C17.9749 4.39008 17.7999 4.76508 17.6799 4.83008M16.3999 4.38008C16.4099 4.38008 16.5749 4.73008 16.3599 4.98008M16.0349 2.58008C16.0449 2.59008 16.0699 2.85008 15.9049 3.08008M14.4699 3.17508C14.4699 3.18008 14.5399 3.47008 14.0799 3.56508M13.5849 5.82508C13.5949 5.84008 14.0299 5.91008 14.0299 5.91008M12.4999 6.83008C12.5099 6.82008 13.0299 6.66508 13.0299 6.66508M11.6599 7.48008C11.6749 7.48008 12.0249 7.54508 12.1099 7.50008M11.4099 7.80008C11.4099 7.80008 11.5249 7.86508 11.4299 8.45008M9.71988 6.27508L9.92988 6.58508M9.00488 7.88508C9.00488 7.87508 9.21488 8.19508 9.49488 8.25508M10.6449 9.51508C10.7808 9.49304 10.9146 9.45959 11.0449 9.41508M10.4999 10.6901C10.5099 10.6901 10.4949 10.4751 10.7599 10.3251M10.1499 11.2351C10.1499 11.2451 10.3999 11.5551 10.5749 11.6001M9.99988 11.8351C10.0299 11.8251 10.2999 11.5901 10.6099 11.6101M9.91488 12.6401C9.91488 12.6401 9.92488 12.9101 10.7249 12.8401M9.99488 13.5901C9.99488 13.5801 10.2299 13.0501 10.7049 12.8501M10.6349 14.2701C10.6349 14.2701 10.7049 14.0401 11.1049 13.8851M11.0799 15.1601C11.0799 15.1601 11.3649 14.9251 11.4699 14.8951M11.4349 15.8601C11.4349 15.8601 11.6099 16.0401 12.0449 15.7251M9.34488 16.0051C9.39488 15.9951 10.0299 15.8501 10.2449 16.1801M9.59488 16.5301C9.59488 16.5301 10.2649 16.4401 10.3499 16.5101M11.9849 16.6651C11.9849 16.6651 11.8949 16.8501 12.7199 16.5451M13.0099 16.9951C12.8599 17.2451 13.0449 17.4451 12.8499 17.5601M10.4999 17.3451C10.5249 17.3251 10.7999 17.2301 10.7599 16.8301M10.7499 17.9451C10.7849 17.9351 11.2449 17.7351 11.3399 17.8401M11.6549 18.5251C11.6549 18.5251 11.7149 18.1151 11.8449 18.0751M12.3449 19.1401C12.3449 19.1401 12.7299 19.1351 12.8949 19.0101M13.0849 17.7601C13.0949 17.7701 13.4399 17.9501 14.1849 17.7701M13.3649 19.4201C13.3649 19.4201 13.4649 19.9501 13.4649 20.0701" stroke="black" stroke-width="0.095"/>
<path fill-rule="evenodd" clip-rule="evenodd" d="M26.696 11.2721C26.6753 11.1064 26.5902 10.9486 26.4834 10.8778C26.3593 10.8007 26.2306 10.8168 26.1455 10.9201C26.0604 11.0233 26.0076 11.1898 26.0284 11.3556C26.0501 11.5296 26.1342 11.6791 26.2421 11.7582C26.3661 11.8353 26.4948 11.8192 26.5799 11.7159C26.6651 11.6127 26.7258 11.4452 26.6971 11.2804L26.696 11.2721Z" fill="#DE2010" stroke="black" stroke-width="0.123432"/>
<path fill-rule="evenodd" clip-rule="evenodd" d="M26.6257 10.3871C26.605 10.2214 26.5199 10.0636 26.413 9.99282C26.289 9.91573 26.1603 9.93182 26.0752 10.0351C25.99 10.1383 25.9373 10.3048 25.9581 10.4706C25.9798 10.6446 26.0638 10.7941 26.1718 10.8732C26.2958 10.9502 26.4245 10.9342 26.5096 10.8309C26.5948 10.7277 26.6555 10.5602 26.6268 10.3954L26.6257 10.3871Z" fill="#DE2010" stroke="black" stroke-width="0.123432"/>
<path fill-rule="evenodd" clip-rule="evenodd" d="M26.4402 9.43903C26.405 9.27573 26.3064 9.1261 26.1937 9.06495C26.0634 8.99905 25.9366 9.02639 25.8609 9.13671C25.7851 9.24702 25.7473 9.41754 25.7825 9.58084C25.8194 9.7523 25.9163 9.89377 26.0307 9.96308C26.1611 10.029 26.2878 10.0016 26.3636 9.89132C26.4393 9.78101 26.4851 9.60879 26.442 9.4472L26.4402 9.43903Z" fill="#DE2010" stroke="black" stroke-width="0.123433"/>
<path fill-rule="evenodd" clip-rule="evenodd" d="M26.1193 8.46221C26.0437 8.31328 25.9102 8.19373 25.7856 8.16333C25.6428 8.13283 25.5272 8.19159 25.4821 8.31757C25.437 8.44355 25.4438 8.61808 25.5195 8.76701C25.5989 8.92339 25.7286 9.03549 25.857 9.07334C25.9998 9.10384 26.1154 9.04508 26.1605 8.9191C26.2056 8.79312 26.206 8.61491 26.1231 8.46966L26.1193 8.46221Z" fill="#DE2010" stroke="black" stroke-width="0.123433"/>
<path fill-rule="evenodd" clip-rule="evenodd" d="M25.7688 7.66729C25.6931 7.51836 25.5596 7.39881 25.435 7.36841C25.2922 7.33791 25.1766 7.39667 25.1315 7.52265C25.0864 7.64862 25.0932 7.82316 25.1689 7.97209C25.2483 8.12847 25.378 8.24057 25.5064 8.27841C25.6492 8.30891 25.7648 8.25016 25.8099 8.12418C25.855 7.9982 25.8554 7.81999 25.7725 7.67473L25.7688 7.66729Z" fill="#DE2010" stroke="black" stroke-width="0.123433"/>
<path fill-rule="evenodd" clip-rule="evenodd" d="M25.2738 6.87519C25.1858 6.73321 25.0427 6.62539 24.916 6.60565C24.7711 6.58735 24.6608 6.65569 24.6266 6.78504C24.5923 6.91438 24.6139 7.08771 24.7019 7.2297C24.7943 7.37879 24.933 7.4795 25.0641 7.50634C25.209 7.52464 25.3192 7.4563 25.3535 7.32695C25.3878 7.19761 25.3731 7.02001 25.2782 6.88229L25.2738 6.87519Z" fill="#DE2010" stroke="black" stroke-width="0.123432"/>
<path fill-rule="evenodd" clip-rule="evenodd" d="M24.72 6.1049C24.6186 5.97209 24.4658 5.87861 24.3377 5.87122C24.1918 5.86701 24.0887 5.94569 24.067 6.07774C24.0454 6.2098 24.0837 6.38022 24.185 6.51304C24.2914 6.65249 24.4392 6.73932 24.5723 6.75336C24.7183 6.75756 24.8214 6.67889 24.843 6.54683C24.8646 6.41478 24.8328 6.23943 24.725 6.11154L24.72 6.1049Z" fill="#DE2010" stroke="black" stroke-width="0.123433"/>
<path fill-rule="evenodd" clip-rule="evenodd" d="M24.0587 5.39325C23.9392 5.27652 23.7744 5.2062 23.6466 5.21743C23.5016 5.23443 23.411 5.32723 23.4087 5.46102C23.4065 5.59482 23.469 5.7579 23.5885 5.87462C23.714 5.99718 23.8729 6.06167 24.0066 6.05627C24.1516 6.03927 24.2422 5.94647 24.2445 5.81268C24.2467 5.67889 24.1898 5.51 24.0647 5.39908L24.0587 5.39325Z" fill="#DE2010" stroke="black" stroke-width="0.123433"/>
<path fill-rule="evenodd" clip-rule="evenodd" d="M23.3196 4.73924C23.1898 4.63401 23.0192 4.57914 22.8931 4.60208C22.7502 4.63234 22.6685 4.73308 22.6786 4.86651C22.6887 4.99994 22.7659 5.15658 22.8957 5.26182C23.0319 5.37231 23.196 5.42192 23.3287 5.40424C23.4715 5.37397 23.5532 5.27324 23.5431 5.1398C23.5331 5.00637 23.4609 4.84344 23.326 4.7445L23.3196 4.73924Z" fill="#DE2010" stroke="black" stroke-width="0.123432"/>
<path fill-rule="evenodd" clip-rule="evenodd" d="M22.5333 4.21534C22.3879 4.1331 22.2106 4.10732 22.09 4.15088C21.9541 4.20444 21.8903 4.31735 21.9224 4.44726C21.9544 4.57717 22.0567 4.7188 22.2021 4.80104C22.3547 4.88738 22.5248 4.90905 22.6527 4.86961C22.7885 4.81604 22.8524 4.70314 22.8203 4.57323C22.7882 4.44332 22.69 4.29463 22.5406 4.21945L22.5333 4.21534Z" fill="#DE2010" stroke="black" stroke-width="0.123433"/>
<path fill-rule="evenodd" clip-rule="evenodd" d="M21.6549 3.75038C21.5026 3.68172 21.3237 3.67218 21.2076 3.72654C21.0771 3.79224 21.0238 3.91049 21.0676 4.03694C21.1114 4.16339 21.2261 4.29513 21.3784 4.36379C21.5383 4.43588 21.7096 4.44199 21.8333 4.39106C21.9637 4.32536 22.0171 4.20711 21.9733 4.08066C21.9295 3.95421 21.8182 3.81508 21.6625 3.75381L21.6549 3.75038Z" fill="#DE2010" stroke="black" stroke-width="0.123432"/>
<path fill-rule="evenodd" clip-rule="evenodd" d="M20.7916 3.40225C20.635 3.34396 20.4559 3.34644 20.3436 3.40846C20.2179 3.48276 20.1727 3.60431 20.2248 3.72754C20.277 3.85077 20.4002 3.97453 20.5568 4.03282C20.7212 4.09404 20.8925 4.08864 21.0126 4.02953C21.1383 3.95524 21.1835 3.83368 21.1314 3.71045C21.0792 3.58722 20.9588 3.45587 20.7994 3.40517L20.7916 3.40225Z" fill="#DE2010" stroke="black" stroke-width="0.123433"/>
<path fill-rule="evenodd" clip-rule="evenodd" d="M19.9155 3.13017C19.755 3.084 19.5765 3.10015 19.4694 3.17055C19.3497 3.25423 19.3138 3.37888 19.3752 3.49777C19.4367 3.61666 19.569 3.73065 19.7295 3.77683C19.8981 3.82531 20.0686 3.80686 20.1837 3.73876C20.3034 3.65509 20.3393 3.53043 20.2779 3.41154C20.2165 3.29265 20.0864 3.17087 19.9236 3.13248L19.9155 3.13017Z" fill="#DE2010" stroke="black" stroke-width="0.123433"/>
<path fill-rule="evenodd" clip-rule="evenodd" d="M18.9539 2.96434C18.7881 2.94344 18.6143 2.98688 18.5192 3.07295C18.4139 3.17405 18.3976 3.30274 18.4766 3.41076C18.5556 3.51877 18.7039 3.61102 18.8697 3.63192C19.0437 3.65387 19.2093 3.60939 19.3126 3.52436C19.418 3.42326 19.4342 3.29456 19.3552 3.18655C19.2762 3.07853 19.1289 2.97824 18.9622 2.96538L18.9539 2.96434Z" fill="#DE2010" stroke="black" stroke-width="0.123432"/>
<path fill-rule="evenodd" clip-rule="evenodd" d="M18.0007 2.91115C17.8338 2.90445 17.6643 2.96255 17.5769 3.0564C17.4805 3.16612 17.4753 3.29573 17.5632 3.39662C17.6511 3.49751 17.8068 3.57678 17.9737 3.58349C18.149 3.59053 18.3101 3.53209 18.4058 3.43857C18.5022 3.32885 18.5074 3.19925 18.4195 3.09836C18.3316 2.99746 18.1763 2.91009 18.009 2.91149L18.0007 2.91115Z" fill="#DE2010" stroke="black" stroke-width="0.123433"/>
<path fill-rule="evenodd" clip-rule="evenodd" d="M17.1257 2.94118C16.9588 2.93448 16.7893 2.99258 16.7019 3.08643C16.6055 3.19615 16.6003 3.32576 16.6882 3.42665C16.7761 3.52754 16.9318 3.60681 17.0987 3.61352C17.274 3.62055 17.4351 3.56212 17.5308 3.4686C17.6272 3.35888 17.6324 3.22928 17.5445 3.12838C17.4566 3.02749 17.3013 2.94012 17.134 2.94152L17.1257 2.94118Z" fill="#DE2010" stroke="black" stroke-width="0.123433"/>
<path fill-rule="evenodd" clip-rule="evenodd" d="M16.1049 3.06205C15.942 3.09927 15.7936 3.19972 15.7339 3.31317C15.6696 3.44429 15.6985 3.57074 15.8098 3.6451C15.921 3.71946 16.092 3.75522 16.2548 3.718C16.4258 3.67891 16.5661 3.58032 16.634 3.46501C16.6982 3.33389 16.6693 3.20744 16.5581 3.13308C16.4468 3.05872 16.2741 3.01506 16.113 3.06018L16.1049 3.06205Z" fill="#DE2010" stroke="black" stroke-width="0.123432"/>
<path fill-rule="evenodd" clip-rule="evenodd" d="M15.1765 3.29473C15.0172 3.34526 14.8776 3.45761 14.8274 3.5756C14.7742 3.71157 14.8134 3.83521 14.9304 3.90014C15.0474 3.96507 15.2208 3.98661 15.38 3.93608C15.5472 3.88302 15.6788 3.7732 15.737 3.65268C15.7902 3.51671 15.751 3.39308 15.634 3.32815C15.517 3.26321 15.3412 3.23395 15.1844 3.2922L15.1765 3.29473Z" fill="#DE2010" stroke="black" stroke-width="0.123433"/>
<path fill-rule="evenodd" clip-rule="evenodd" d="M14.3287 3.6607C14.1767 3.72984 14.0514 3.85802 14.0157 3.98115C13.979 4.1225 14.0327 4.24058 14.1566 4.29111C14.2805 4.34164 14.4551 4.34238 14.6072 4.27324C14.7669 4.20065 14.8845 4.07593 14.9279 3.94934C14.9646 3.808 14.9109 3.68992 14.787 3.63938C14.6631 3.58885 14.4851 3.58073 14.3363 3.65725L14.3287 3.6607Z" fill="#DE2010" stroke="black" stroke-width="0.123432"/>
<path fill-rule="evenodd" clip-rule="evenodd" d="M13.4823 4.09301C13.3367 4.17487 13.2229 4.31326 13.1977 4.43899C13.1733 4.58295 13.2368 4.69602 13.3646 4.7358C13.4923 4.77558 13.6664 4.76142 13.8121 4.67956C13.965 4.59361 14.0715 4.45931 14.1039 4.32948C14.1284 4.18552 14.0649 4.07246 13.9371 4.03268C13.8093 3.99289 13.6313 3.99999 13.4896 4.08892L13.4823 4.09301Z" fill="#DE2010" stroke="black" stroke-width="0.123432"/>
<path fill-rule="evenodd" clip-rule="evenodd" d="M12.6792 4.63768C12.5434 4.73488 12.4453 4.88482 12.4339 5.01254C12.4252 5.15831 12.5007 5.2638 12.632 5.28946C12.7634 5.31512 12.9349 5.28213 13.0707 5.18493C13.2134 5.08287 13.3047 4.93779 13.3229 4.80521C13.3315 4.65945 13.2561 4.55395 13.1247 4.52829C12.9934 4.50263 12.8172 4.52903 12.686 4.63282L12.6792 4.63768Z" fill="#DE2010" stroke="black" stroke-width="0.123432"/>
<path fill-rule="evenodd" clip-rule="evenodd" d="M11.941 5.19866C11.8138 5.30701 11.7288 5.46472 11.7283 5.59293C11.732 5.73891 11.8161 5.83764 11.9491 5.85209C12.0821 5.86655 12.2503 5.81916 12.3774 5.71082C12.5109 5.59705 12.5896 5.44476 12.5965 5.31113C12.5928 5.16515 12.5087 5.06642 12.3756 5.05197C12.2426 5.03751 12.0692 5.07873 11.9474 5.19325L11.941 5.19866Z" fill="#DE2010" stroke="black" stroke-width="0.123432"/>
<path fill-rule="evenodd" clip-rule="evenodd" d="M11.2861 5.88228C11.1671 5.99947 11.0935 6.16287 11.1022 6.29079C11.1164 6.43613 11.2073 6.52857 11.3411 6.53346C11.4748 6.53834 11.6391 6.47901 11.7581 6.36183C11.8831 6.23879 11.9507 6.08124 11.948 5.94746C11.9338 5.80212 11.8429 5.70968 11.7091 5.7048C11.5754 5.69992 11.4054 5.75346 11.2921 5.87643L11.2861 5.88228Z" fill="#DE2010" stroke="black" stroke-width="0.123432"/>
<path fill-rule="evenodd" clip-rule="evenodd" d="M10.7237 6.64418C10.6149 6.77092 10.5553 6.93991 10.5746 7.06665C10.6009 7.2103 10.6993 7.2948 10.833 7.28847C10.9666 7.28214 11.1254 7.20927 11.2342 7.08254C11.3485 6.94946 11.4027 6.78681 11.3887 6.65373C11.3625 6.51008 11.264 6.42558 11.1304 6.43191C10.9967 6.43824 10.8318 6.50582 10.7292 6.63784L10.7237 6.64418Z" fill="#DE2010" stroke="black" stroke-width="0.123432"/>
<path fill-rule="evenodd" clip-rule="evenodd" d="M10.2071 7.41869C10.1124 7.55631 10.0711 7.73069 10.1039 7.85465C10.1453 7.99468 10.2522 8.0682 10.3844 8.04766C10.5166 8.02711 10.6667 7.93773 10.7614 7.80011C10.8608 7.65561 10.8973 7.48811 10.8693 7.35727C10.8279 7.21724 10.721 7.14372 10.5888 7.16426C10.4566 7.18481 10.2998 7.26959 10.2118 7.41181L10.2071 7.41869Z" fill="#DE2010" stroke="black" stroke-width="0.123432"/>
<path fill-rule="evenodd" clip-rule="evenodd" d="M9.78094 8.29725C9.71129 8.4491 9.7006 8.62798 9.7542 8.74445C9.81905 8.87528 9.93695 8.92936 10.0637 8.88641C10.1904 8.84345 10.3229 8.72962 10.3925 8.57778C10.4657 8.41835 10.4729 8.24706 10.4228 8.12299C10.3579 7.99216 10.24 7.93808 10.1133 7.98104C9.98654 8.02399 9.84669 8.13444 9.78442 8.28966L9.78094 8.29725Z" fill="#DE2010" stroke="black" stroke-width="0.123432"/>
<path fill-rule="evenodd" clip-rule="evenodd" d="M9.44171 9.22132C9.38611 9.37885 9.39168 9.55796 9.45562 9.6691C9.53207 9.79352 9.65439 9.83668 9.7767 9.78242C9.89901 9.72815 10.0206 9.60278 10.0762 9.44525C10.1346 9.27984 10.1262 9.1086 10.0651 8.98959C9.98864 8.86518 9.86632 8.82201 9.74401 8.87628C9.6217 8.93054 9.49243 9.05322 9.44449 9.21344L9.44171 9.22132Z" fill="#DE2010" stroke="black" stroke-width="0.123432"/>
<path fill-rule="evenodd" clip-rule="evenodd" d="M9.14764 10.9688C9.13222 11.1021 9.18137 11.2403 9.27052 11.3142C9.37504 11.3959 9.5042 11.4055 9.60955 11.3394C9.7149 11.2732 9.80221 11.152 9.81764 11.0186C9.83384 10.8786 9.78392 10.7471 9.69554 10.6666C9.59102 10.5848 9.46186 10.5752 9.35651 10.6414C9.25115 10.7075 9.15577 10.8282 9.14842 10.9621L9.14764 10.9688Z" fill="#DE2010" stroke="black" stroke-width="0.110561"/>
<path fill-rule="evenodd" clip-rule="evenodd" d="M9.22479 10.1547C9.18767 10.3175 9.21377 10.4948 9.29006 10.5979C9.3803 10.7127 9.50676 10.7415 9.62203 10.6735C9.7373 10.6056 9.84371 10.4671 9.88083 10.3042C9.91981 10.1332 9.89185 9.96404 9.81742 9.85284C9.72718 9.73803 9.60071 9.7092 9.48545 9.77716C9.37018 9.84512 9.25587 9.98183 9.22665 10.1465L9.22479 10.1547Z" fill="#DE2010" stroke="black" stroke-width="0.123432"/>
<path fill-rule="evenodd" clip-rule="evenodd" d="M26.0003 9.735C26.1103 9.62 26.2103 9.585 26.3353 9.63C26.2853 9.325 26.1953 9.22 26.0753 9.26C25.9603 9.295 25.9053 9.45 26.0003 9.735ZM26.1653 10.645C26.2803 10.54 26.3803 10.515 26.5053 10.565C26.4853 10.265 26.3953 10.15 26.2753 10.18C26.1553 10.205 26.0953 10.36 26.1653 10.645ZM25.7753 8.895C25.8503 8.76 25.9403 8.705 26.0753 8.71C25.9503 8.43 25.8353 8.355 25.7253 8.42C25.6253 8.485 25.6153 8.65 25.7753 8.9V8.895ZM25.3703 8.065C25.4453 7.925 25.5353 7.87 25.6703 7.88C25.5453 7.595 25.4253 7.52 25.3203 7.585C25.2203 7.65 25.2103 7.815 25.3703 8.065ZM24.3953 6.54C24.4453 6.39 24.5253 6.32 24.6553 6.31C24.4903 6.05 24.3603 5.995 24.2703 6.075C24.1803 6.155 24.1953 6.325 24.3953 6.54ZM23.7503 5.875C23.8003 5.725 23.8703 5.655 24.0003 5.635C23.8303 5.385 23.7003 5.335 23.6103 5.415C23.5203 5.5 23.5403 5.665 23.7503 5.875ZM22.4153 4.75C22.4153 4.59 22.4653 4.5 22.5803 4.44C22.3403 4.255 22.1953 4.25 22.1403 4.355C22.0853 4.46 22.1503 4.61 22.4153 4.75ZM23.1153 5.275C23.1353 5.12 23.2003 5.035 23.3303 5C23.1203 4.775 22.9853 4.74 22.9103 4.835C22.8353 4.935 22.8753 5.09 23.1103 5.275H23.1153ZM21.6153 4.31C21.6003 4.155 21.6403 4.06 21.7503 3.985C21.4903 3.825 21.3503 3.835 21.3003 3.945C21.2553 4.06 21.3403 4.2 21.6203 4.31H21.6153ZM20.8103 3.95C20.7703 3.8 20.7953 3.7 20.8953 3.61C20.6153 3.49 20.4753 3.515 20.4453 3.635C20.4153 3.755 20.5203 3.88 20.8103 3.95ZM19.9353 3.68C19.8803 3.53 19.8953 3.43 19.9903 3.33C19.7003 3.235 19.5653 3.275 19.5403 3.395C19.5253 3.515 19.6403 3.635 19.9353 3.68ZM19.0703 3.51C19.0103 3.37 19.0203 3.26 19.1053 3.16C18.8053 3.085 18.6753 3.135 18.6653 3.26C18.6503 3.38 18.7753 3.49 19.0703 3.51ZM18.1603 3.44C18.0803 3.305 18.0803 3.2 18.1603 3.09C17.8553 3.045 17.7253 3.11 17.7303 3.23C17.7303 3.355 17.8653 3.45 18.1603 3.44ZM16.3753 3.575C16.2653 3.465 16.2403 3.36 16.2853 3.235C15.9853 3.265 15.8753 3.355 15.9053 3.475C15.9353 3.595 16.0903 3.655 16.3753 3.575ZM17.2553 3.46C17.1603 3.335 17.1453 3.23 17.2103 3.11C16.9053 3.1 16.7853 3.175 16.8003 3.3C16.8153 3.42 16.9603 3.5 17.2503 3.46H17.2553ZM15.5103 3.76C15.3903 3.665 15.3453 3.57 15.3753 3.44C15.0753 3.515 14.9853 3.62 15.0303 3.73C15.0803 3.845 15.2403 3.88 15.5103 3.76ZM13.8603 4.52C13.7203 4.45 13.6603 4.365 13.6653 4.23C13.3853 4.36 13.3153 4.48 13.3853 4.58C13.4503 4.68 13.6153 4.69 13.8603 4.52ZM14.6603 4.115C14.5253 4.03 14.4803 3.935 14.5003 3.805C14.2053 3.895 14.1203 4.005 14.1753 4.115C14.2303 4.225 14.3953 4.255 14.6553 4.115H14.6603ZM12.3803 5.555C12.2303 5.515 12.1503 5.44 12.1303 5.305C11.8803 5.495 11.8403 5.625 11.9253 5.71C12.0153 5.795 12.1753 5.77 12.3753 5.555H12.3803ZM13.0853 4.975C12.9353 4.925 12.8653 4.845 12.8553 4.715C12.5953 4.875 12.5403 5.005 12.6203 5.1C12.7003 5.19 12.8703 5.175 13.0853 4.975ZM11.7503 6.175C11.6003 6.145 11.5153 6.08 11.4803 5.95C11.2503 6.155 11.2203 6.295 11.3153 6.37C11.4103 6.45 11.5653 6.405 11.7503 6.17V6.175ZM11.1853 6.9C11.0253 6.89 10.9353 6.835 10.8953 6.71C10.6853 6.935 10.6653 7.07 10.7653 7.14C10.8653 7.21 11.0203 7.15 11.1853 6.9ZM10.7153 7.65C10.5553 7.66 10.4653 7.615 10.3953 7.5C10.2253 7.755 10.2253 7.9 10.3353 7.95C10.4453 8 10.5903 7.92 10.7153 7.65ZM10.3003 8.45C10.1503 8.48 10.0503 8.45 9.96534 8.34C9.83034 8.615 9.85034 8.755 9.96534 8.79C10.0803 8.83 10.2153 8.73 10.3003 8.445V8.45ZM9.97034 9.265C9.82034 9.32 9.72034 9.305 9.62034 9.215C9.53034 9.505 9.57034 9.64 9.69534 9.66C9.81534 9.675 9.93034 9.56 9.97034 9.26V9.265ZM9.74534 10.175C9.60534 10.24 9.50034 10.235 9.39534 10.15C9.32534 10.45 9.37534 10.575 9.49534 10.585C9.62034 10.6 9.73034 10.475 9.74534 10.175ZM9.65534 10.935C9.52534 11.005 9.42034 11.015 9.30534 10.96C9.27034 11.205 9.33534 11.3 9.45534 11.29C9.57534 11.28 9.67034 11.17 9.65534 10.935ZM25.0053 7.325C25.0603 7.175 25.1403 7.105 25.2703 7.095C25.1103 6.835 24.9853 6.78 24.8903 6.855C24.7953 6.935 24.8103 7.105 25.0053 7.325ZM26.2653 11.575C26.3803 11.465 26.4853 11.44 26.6053 11.495C26.5853 11.19 26.4953 11.08 26.3753 11.105C26.2603 11.135 26.1953 11.285 26.2653 11.575Z" fill="#FFE300"/>
<path fill-rule="evenodd" clip-rule="evenodd" d="M25.0645 6.6001C25.0645 6.6001 24.7145 6.9451 24.7795 7.3601C24.8395 7.7751 25.1045 8.2901 25.0545 8.7251C25.0045 9.1551 24.9295 9.4401 24.9295 9.4401C24.9295 9.4401 25.3295 8.9851 25.3295 8.5401C25.3395 8.1051 25.0595 7.5251 25.0595 7.2051C25.0595 6.8851 25.0745 6.5951 25.0645 6.6051V6.6001ZM25.6995 8.0001C25.6995 8.0001 25.4345 8.2001 25.4595 8.6501C25.4845 9.1051 25.9595 9.9401 25.9595 9.9401C25.9595 9.9401 26.2995 10.6401 26.2845 10.8251C26.2745 11.0101 26.3495 10.6501 26.3145 10.2501C26.2795 9.8501 25.7645 8.9601 25.7645 8.9601C25.7645 8.9601 25.6545 8.7801 25.6645 8.4751C25.6745 8.1751 25.7045 8.0051 25.7045 8.0001H25.6995Z" fill="#217900" stroke="black" stroke-width="0.095" stroke-linejoin="round"/>
<path fill-rule="evenodd" clip-rule="evenodd" d="M17.6495 2.36995C17.6495 2.27995 17.5395 2.19995 17.4095 2.19995C17.2795 2.19995 17.1745 2.27995 17.1745 2.36995C17.1745 2.45995 17.2745 2.53995 17.4095 2.53995C17.5445 2.53995 17.6445 2.46495 17.6445 2.36995H17.6495ZM17.7495 2.76995C17.7495 2.67995 17.6395 2.60495 17.4995 2.60495C17.3695 2.60495 17.2595 2.67495 17.2595 2.76495C17.2595 2.85495 17.3695 2.92995 17.5045 2.92995C17.6395 2.92995 17.7445 2.85495 17.7445 2.76495L17.7495 2.76995ZM18.0495 2.29995C18.0495 2.29995 17.7695 2.50495 17.8845 2.58995C17.9995 2.67495 18.3145 2.40995 18.3145 2.40995L18.0495 2.29995ZM26.2145 7.06995C26.2145 7.00995 26.1895 6.95495 26.1445 6.92495C26.1225 6.90945 26.0963 6.90114 26.0695 6.90114C26.0426 6.90114 26.0164 6.90945 25.9945 6.92495C25.9495 6.95495 25.9245 7.00995 25.9245 7.06995C25.9245 7.12995 25.9495 7.18495 25.9945 7.21495C26.0164 7.23045 26.0426 7.23877 26.0695 7.23877C26.0963 7.23877 26.1225 7.23045 26.1445 7.21495C26.1895 7.18495 26.2145 7.12995 26.2145 7.06995ZM26.1095 6.66995C26.1095 6.56995 26.0395 6.49495 25.9595 6.49495C25.8795 6.49495 25.8045 6.57495 25.8045 6.67495C25.8045 6.77495 25.8745 6.84995 25.9545 6.84995C26.0345 6.84995 26.1095 6.76995 26.1095 6.67495V6.66995ZM26.1845 7.47995C26.1845 7.42995 26.1545 7.38995 26.1245 7.38995C26.0944 7.38995 26.0645 7.42995 26.0645 7.47995C26.0645 7.52995 26.0895 7.57495 26.1245 7.57495C26.1595 7.57495 26.1845 7.52995 26.1845 7.47995ZM26.4295 6.75995C26.4295 6.69995 26.3995 6.65495 26.3695 6.65495C26.3344 6.65495 26.3095 6.69995 26.3095 6.75495C26.3095 6.80995 26.3344 6.86495 26.3695 6.86495C26.3995 6.86495 26.4295 6.81495 26.4295 6.75995ZM25.7595 6.82995C25.7595 6.77995 25.7295 6.74495 25.6995 6.74495C25.6695 6.74495 25.6395 6.78495 25.6395 6.82995C25.6395 6.87495 25.6645 6.91995 25.6995 6.91995C25.7345 6.91995 25.7595 6.87995 25.7595 6.82995ZM25.8645 7.39995C25.8645 7.32495 25.8095 7.26495 25.7395 7.26495C25.6695 7.26495 25.6145 7.32495 25.6145 7.39995C25.6145 7.47995 25.6644 7.53995 25.7395 7.53995C25.8145 7.53995 25.8645 7.47995 25.8645 7.39995ZM25.5345 7.14995C25.5345 7.08495 25.4845 7.02995 25.4295 7.02995C25.3695 7.02995 25.3195 7.07995 25.3195 7.14995C25.3195 7.21995 25.3695 7.26995 25.4295 7.26995C25.4845 7.26995 25.5295 7.21995 25.5295 7.14995H25.5345ZM25.4845 6.80995C25.4842 6.79267 25.4794 6.77576 25.4707 6.76086C25.4619 6.74596 25.4494 6.73359 25.4345 6.72495C25.4202 6.71609 25.4037 6.7114 25.387 6.7114C25.3702 6.7114 25.3537 6.71609 25.3395 6.72495C25.3254 6.7342 25.3139 6.74683 25.3061 6.76169C25.2982 6.77654 25.2942 6.79314 25.2945 6.80995C25.2938 6.82808 25.2982 6.84603 25.307 6.86188C25.3158 6.87773 25.3287 6.89089 25.3444 6.89995C25.3581 6.90785 25.3737 6.91201 25.3895 6.91201C25.4052 6.91201 25.4208 6.90785 25.4345 6.89995C25.4645 6.87995 25.4845 6.84995 25.4845 6.80995ZM26.9895 8.52995C26.8545 8.34995 26.6345 8.27495 26.4995 8.35995C26.3695 8.44495 26.3695 8.65995 26.5095 8.84495C26.6445 9.02495 26.8595 9.09995 26.9945 9.01495C27.1294 8.92495 27.1294 8.71495 26.9945 8.52995H26.9895ZM27.3795 11.865C27.4045 11.64 27.2994 11.445 27.1395 11.425C26.9795 11.41 26.8295 11.575 26.7995 11.795C26.7745 12.015 26.8845 12.21 27.0445 12.23C27.2045 12.25 27.3545 12.08 27.3795 11.865ZM27.4595 13.805C27.5095 13.585 27.4145 13.38 27.2595 13.345C27.0995 13.315 26.9345 13.465 26.8895 13.685C26.8444 13.9 26.9395 14.105 27.0895 14.135C27.2495 14.17 27.4145 14.02 27.4595 13.8V13.805ZM27.8345 11.985C27.8345 11.9 27.7745 11.83 27.7045 11.83C27.6344 11.83 27.5695 11.9 27.5695 11.985C27.5695 12.075 27.6294 12.145 27.7045 12.145C27.7794 12.145 27.8345 12.075 27.8345 11.985ZM27.5095 12.35L27.2395 12.66C27.2395 12.66 26.9845 12.665 26.9995 12.75C27.0095 12.83 27.3495 13.08 27.3495 13.18C27.3445 13.28 27.5695 13.155 27.5695 13.155L27.7544 12.6C27.7544 12.6 27.7445 12.215 27.6445 12.22C27.5445 12.23 27.5195 12.345 27.5095 12.35ZM9.63945 12.23C9.6432 12.2111 9.64273 12.1916 9.63806 12.173C9.63339 12.1544 9.62464 12.137 9.61244 12.1221C9.60025 12.1073 9.58491 12.0953 9.56754 12.0871C9.55016 12.0788 9.53117 12.0746 9.51195 12.0746C9.49273 12.0746 9.47374 12.0788 9.45637 12.0871C9.43899 12.0953 9.42365 12.1073 9.41146 12.1221C9.39926 12.137 9.39051 12.1544 9.38584 12.173C9.38117 12.1916 9.3807 12.2111 9.38445 12.23C9.39032 12.2594 9.40624 12.286 9.42948 12.3051C9.45273 12.3242 9.48188 12.3346 9.51195 12.3346C9.54202 12.3346 9.57117 12.3242 9.59442 12.3051C9.61767 12.286 9.63358 12.2594 9.63945 12.23ZM9.76445 11.83C9.76445 11.76 9.70445 11.7 9.63445 11.7C9.56445 11.7 9.50445 11.76 9.50445 11.835C9.50445 11.91 9.56445 11.97 9.63445 11.97C9.66938 11.9687 9.70245 11.9539 9.72669 11.9287C9.75094 11.9035 9.76447 11.8699 9.76445 11.835V11.83ZM8.69945 9.95995C8.64945 9.84995 8.54945 9.78995 8.47445 9.82495C8.39945 9.85995 8.37445 9.97495 8.42445 10.085C8.47445 10.195 8.57445 10.255 8.64945 10.22C8.72945 10.185 8.74945 10.07 8.69945 9.95995ZM9.02445 11.13C8.95445 10.99 8.81945 10.91 8.71445 10.955C8.60945 11 8.57945 11.15 8.64445 11.29C8.70945 11.43 8.84445 11.51 8.95445 11.465C9.06445 11.42 9.08945 11.27 9.02445 11.13ZM9.36445 11.99C9.38945 11.815 9.31445 11.65 9.20445 11.63C9.08945 11.605 8.98445 11.73 8.95945 11.905C8.93945 12.08 9.00945 12.24 9.12445 12.265C9.23445 12.29 9.34445 12.165 9.36445 11.99ZM8.81445 12.115C8.88445 11.95 8.85945 11.775 8.75945 11.725C8.65945 11.675 8.51945 11.76 8.44945 11.925C8.37945 12.09 8.40445 12.26 8.50945 12.315C8.61445 12.37 8.74445 12.28 8.81445 12.115Z" fill="#6B18B5"/>
<path fill-rule="evenodd" clip-rule="evenodd" d="M8.56455 11.74C8.56455 11.655 8.49955 11.59 8.41955 11.59C8.33955 11.59 8.27455 11.66 8.27455 11.74C8.27455 11.82 8.33955 11.89 8.42455 11.89C8.50955 11.89 8.56455 11.825 8.56455 11.74ZM8.44955 11.365C8.44955 11.29 8.38955 11.23 8.31955 11.23C8.30182 11.2306 8.28439 11.2347 8.26825 11.2421C8.25212 11.2495 8.2376 11.26 8.22553 11.273C8.21345 11.286 8.20406 11.3013 8.19789 11.3179C8.19171 11.3345 8.18888 11.3522 8.18955 11.37C8.18955 11.44 8.24955 11.505 8.31955 11.505C8.38955 11.505 8.44955 11.44 8.44955 11.365ZM8.56955 10.65C8.56955 10.52 8.51455 10.42 8.44455 10.42C8.37455 10.42 8.31955 10.52 8.31955 10.65C8.31955 10.775 8.37455 10.88 8.44455 10.88C8.51455 10.88 8.56955 10.78 8.56955 10.65ZM8.95955 10.595C8.97455 10.47 8.93455 10.36 8.85955 10.345C8.79455 10.34 8.72455 10.435 8.70955 10.56C8.68955 10.685 8.73455 10.795 8.80455 10.805C8.86955 10.815 8.93955 10.72 8.95455 10.595H8.95955ZM11.7095 5.09497C11.7645 4.91497 11.7095 4.73497 11.5945 4.69497C11.4795 4.64997 11.3445 4.75997 11.2945 4.93997C11.2445 5.11997 11.2945 5.29997 11.4095 5.33997C11.5245 5.38497 11.6595 5.27497 11.7095 5.09497ZM11.1895 5.88997C11.3395 5.75497 11.4095 5.57497 11.3395 5.48497C11.2645 5.38997 11.0795 5.42497 10.9245 5.55497C10.7695 5.68497 10.7095 5.86497 10.7795 5.95497C10.8545 6.04997 11.0395 6.01997 11.1895 5.88997ZM10.8895 5.44997C11.0395 5.33497 11.0995 5.17997 11.0295 5.09997C10.9595 5.01997 10.7795 5.04997 10.6295 5.15997C10.4745 5.27497 10.4095 5.42997 10.4795 5.50997C10.5495 5.58997 10.7295 5.55997 10.8845 5.44997H10.8895ZM12.0645 4.67497C12.1645 4.59497 12.2095 4.48497 12.1645 4.42997C12.1145 4.37997 11.9895 4.39497 11.8845 4.47497C11.7795 4.55497 11.7395 4.65997 11.7895 4.71497C11.8395 4.76997 11.9595 4.74997 12.0645 4.67497Z" fill="#6B18B5"/>
<path fill-rule="evenodd" clip-rule="evenodd" d="M11.45 5.42498C11.52 5.31498 11.525 5.19998 11.46 5.16498C11.395 5.12998 11.285 5.18498 11.215 5.29498C11.145 5.40498 11.14 5.51998 11.205 5.55498C11.27 5.58998 11.38 5.52998 11.45 5.42498ZM12.335 4.95998C12.445 4.86498 12.485 4.74498 12.435 4.68498C12.375 4.62498 12.235 4.65498 12.125 4.74498C12.015 4.83498 11.975 4.95998 12.03 5.01998C12.09 5.07998 12.225 5.04998 12.335 4.95998ZM10.735 6.03998C10.835 6.03998 10.915 5.98498 10.905 5.92498C10.905 5.86998 10.81 5.82498 10.705 5.82998C10.605 5.83498 10.525 5.88998 10.535 5.94498C10.54 6.00498 10.635 6.04498 10.735 6.04498V6.03998ZM12.67 4.38498C12.74 4.27498 12.745 4.15998 12.68 4.12498C12.62 4.08998 12.51 4.14498 12.44 4.25498C12.37 4.36498 12.365 4.47998 12.43 4.51498C12.495 4.54998 12.6 4.49498 12.67 4.38498Z" fill="#6B18B5"/>
<path fill-rule="evenodd" clip-rule="evenodd" d="M24.3405 7.66988C24.3405 7.66988 24.6605 7.16488 24.5405 6.68488C24.4155 6.20988 23.8905 6.54988 23.9005 6.71988C23.9105 6.88488 24.2405 7.11488 24.2605 7.21988C24.2805 7.31988 24.2205 7.63488 24.3405 7.66988Z" fill="#FFD200" stroke="#EF8A10" stroke-width="0.05"/>
<path fill-rule="evenodd" clip-rule="evenodd" d="M18.2451 3.46502C18.2451 3.46502 19.3951 3.51002 19.4001 4.25502C19.4001 4.37002 19.4001 4.50502 19.3601 4.84002C19.5901 4.71502 19.7401 4.37502 19.7101 4.15502C19.7151 3.40002 18.6851 2.88002 18.2451 3.46502Z" fill="#217900" stroke="black" stroke-width="0.115" stroke-linejoin="round"/>
<path fill-rule="evenodd" clip-rule="evenodd" d="M17.5146 3.42994C17.5146 3.42994 18.4396 3.23994 18.4496 3.97994C18.4546 4.72994 18.1496 4.84494 18.1496 4.84494C18.1496 4.84494 18.8646 4.69494 18.8696 3.93994C18.8696 3.17994 17.9546 2.84494 17.5146 3.42994Z" fill="#217900" stroke="black" stroke-width="0.115" stroke-linejoin="round"/>
<path fill-rule="evenodd" clip-rule="evenodd" d="M20.6654 19.5C20.6654 19.5 25.0054 18.27 26.3154 12.95C25.5504 18.405 20.8004 20.15 20.8004 20.15L20.6604 19.5H20.6654Z" fill="#F7DF73" stroke="black" stroke-width="0.125" stroke-linejoin="round"/>
<path fill-rule="evenodd" clip-rule="evenodd" d="M21.1104 19.83C21.2454 19.83 21.5753 19.46 21.7653 19.42C21.9553 19.38 21.9754 19.185 21.7604 19.18C21.5404 19.17 21.3504 19.43 21.3504 19.43C21.3504 19.43 21.1604 19.59 20.9604 19.61C20.7604 19.63 20.8904 19.88 21.1104 19.83Z" fill="#8C1800"/>
<path fill-rule="evenodd" clip-rule="evenodd" d="M23.6104 17.9651C23.6104 17.9651 23.1604 18.2251 23.2204 18.2901C23.2854 18.3551 23.6854 18.0401 23.6954 18.0401C23.7004 18.0301 23.8654 17.8301 23.6104 17.9651Z" fill="#8C1800" stroke="#8C1800" stroke-width="0.125"/>
<path fill-rule="evenodd" clip-rule="evenodd" d="M22.0348 19.15C22.0348 19.15 21.8998 19.1 22.2448 18.97C22.5948 18.835 22.5698 18.68 22.6848 18.615C22.7948 18.55 23.0348 18.38 23.0848 18.48C23.1348 18.58 22.8348 18.78 22.7598 18.8C22.6898 18.82 22.3448 19.14 22.2448 19.165C22.1448 19.195 22.0748 19.18 22.0348 19.15Z" fill="#8C1800"/>
<path d="M24.2805 17.3C23.9805 17.635 23.9805 17.625 23.9805 17.625" stroke="#8C1800" stroke-width="0.15" stroke-linecap="round"/>
<path d="M24.7245 16.76L24.4395 17.105" stroke="#8C1800" stroke-width="0.14" stroke-linecap="round"/>
<path d="M25.1696 16.05L24.8496 16.56" stroke="#8C1800" stroke-width="0.125" stroke-linecap="round"/>
<path d="M25.5453 15.33L25.2803 15.855M25.7103 14.955L25.6303 15.135" stroke="#8C1800" stroke-width="0.115" stroke-linecap="round"/>
<path d="M25.9003 14.45L25.8303 14.67" stroke="#8C1800" stroke-width="0.07" stroke-linecap="round"/>
<path fill-rule="evenodd" clip-rule="evenodd" d="M14.9727 19.3866C14.9727 19.3866 10.6689 18.1366 9.37781 12.7117C10.131 18.2812 14.8402 20.0413 14.8402 20.0413L14.9727 19.3866Z" fill="#F7DF73" stroke="black" stroke-width="0.125835" stroke-linejoin="round"/>
<path fill-rule="evenodd" clip-rule="evenodd" d="M14.5348 19.7199C14.3998 19.7199 14.0748 19.3449 13.8848 19.3049C13.6948 19.2599 13.6748 19.0649 13.8898 19.0549C14.1098 19.0549 14.2948 19.3099 14.2948 19.3099C14.2948 19.3099 14.4848 19.4749 14.6798 19.4999C14.8798 19.5199 14.7498 19.7699 14.5348 19.7199Z" fill="#8C1800"/>
<path fill-rule="evenodd" clip-rule="evenodd" d="M12.0599 17.822C12.0599 17.822 12.5068 18.0941 12.4406 18.1621C12.3826 18.2217 11.9854 17.9071 11.9771 17.8986C11.9688 17.8901 11.8116 17.686 12.0599 17.822Z" fill="#8C1800" stroke="#8C1800" stroke-width="0.125835"/>
<path fill-rule="evenodd" clip-rule="evenodd" d="M13.6199 19.0299C13.6199 19.0299 13.7499 18.9799 13.4099 18.8449C13.0699 18.7099 13.0849 18.5449 12.9749 18.4849C12.8649 18.4199 12.6249 18.2499 12.5749 18.3499C12.5249 18.4499 12.8249 18.6499 12.8999 18.6699C12.9699 18.6949 13.3099 19.0199 13.4099 19.0449C13.5099 19.0749 13.5749 19.0599 13.6199 19.0299Z" fill="#8C1800"/>
<path d="M11.3978 17.1504L11.6875 17.482" stroke="#8C1800" stroke-width="0.151002" stroke-linecap="round"/>
<path d="M10.951 16.5977L11.2324 16.9463" stroke="#8C1800" stroke-width="0.142613" stroke-linecap="round"/>
<path d="M10.5117 15.875L10.8262 16.3937" stroke="#8C1800" stroke-width="0.125835" stroke-linecap="round"/>
<path d="M10.1397 15.1436L10.4045 15.6793M9.97417 14.7524L10.0569 14.9395" stroke="#8C1800" stroke-width="0.117446" stroke-linecap="round"/>
<path d="M9.78391 14.2423L9.8584 14.4719" stroke="#8C1800" stroke-width="0.0671119" stroke-linecap="round"/>
<path fill-rule="evenodd" clip-rule="evenodd" d="M26.5201 11.965C26.5451 12.3 26.8701 12.615 26.7401 13.2C26.5801 13.865 26.0001 15.435 26.1001 15.71C25.9301 15.475 25.9601 15.26 25.9501 14.93C25.9301 14.605 26.4201 13.385 26.4651 12.975C26.4651 12.605 26.5001 12.1 26.5201 11.965Z" fill="#217900" stroke="black" stroke-width="0.115" stroke-linejoin="round"/>
<path fill-rule="evenodd" clip-rule="evenodd" d="M26.5202 11.97C26.5202 11.97 27.0552 12.645 27.0252 13.18C27.0002 13.715 26.7002 14.34 26.8002 14.615C26.642 14.4129 26.5605 14.1614 26.5702 13.905C26.5552 13.58 26.8352 13.215 26.7752 12.86C26.7202 12.51 26.5152 11.97 26.5252 11.97H26.5202ZM9.05523 12.12C9.03523 12.455 8.78523 12.755 8.91523 13.335C9.07523 14 9.66523 14.835 9.56523 15.795C9.74023 15.56 9.79023 15.295 9.80523 14.97C9.81523 14.645 9.15523 13.545 9.11523 13.13C9.11523 12.76 9.07523 12.255 9.05523 12.12Z" fill="#217900" stroke="black" stroke-width="0.115" stroke-linejoin="round"/>
<path fill-rule="evenodd" clip-rule="evenodd" d="M9.05473 12.13C9.05473 12.13 8.53473 12.78 8.56473 13.315C8.56973 13.67 9.22473 15.155 9.12473 15.435C9.29973 15.2 9.34473 15.23 9.33973 14.875C9.14973 13.96 8.80473 13.38 8.86473 13.025C8.91973 12.67 9.06473 12.125 9.05473 12.125V12.13Z" fill="#217900" stroke="black" stroke-width="0.115" stroke-linejoin="round"/>
<path d="M17.9255 6.1499L19.2071 10.1237H23.4017L20.0228 12.5826L21.3103 16.5564L17.9313 14.1033L14.5523 16.5564L15.834 12.5826L12.4492 10.1237H16.6321L17.9255 6.1499Z" fill="white" stroke="black" stroke-width="0.0990463" stroke-linecap="square" stroke-linejoin="round"/>
</svg>
