<svg width="36" height="24" viewBox="0 0 36 24" fill="none" xmlns="http://www.w3.org/2000/svg">
<g clip-path="url(#clip0_11930_68168)">
<path d="M0 0H36V24H0V0Z" fill="#CD2A3E"/>
<path d="M0 4H36V20H0V4Z" fill="#006233"/>
<path d="M25.5 8.04004C25.5 10.0292 24.7098 11.9368 23.3033 13.3433C21.8968 14.7499 19.9891 15.54 18 15.54C16.0109 15.54 14.1032 14.7499 12.6967 13.3433C11.2902 11.9368 10.5 10.0292 10.5 8.04004C10.3333 8.68002 10.2493 9.33871 10.25 10C10.25 12.0555 11.0665 14.0267 12.5199 15.4801C13.9733 16.9335 15.9446 17.75 18 17.75C20.0554 17.75 22.0267 16.9335 23.4801 15.4801C24.9335 14.0267 25.75 12.0555 25.75 10C25.751 9.33869 25.6669 8.67997 25.5 8.04004Z" fill="#FFC400"/>
<path d="M17.9997 5L17.3247 7.075H15.1497L16.9147 8.355L16.2397 10.425L18.0047 9.145L19.7697 10.425L19.0947 8.355L20.8597 7.075H18.6797L17.9997 5Z" fill="#FFC400"/>
</g>
<defs>
<clipPath id="clip0_11930_68168">
<rect width="36" height="24" rx="2" fill="white"/>
</clipPath>
</defs>
</svg>
