<svg width="36" height="24" viewBox="0 0 36 24" fill="none" xmlns="http://www.w3.org/2000/svg">
<rect width="36" height="24" rx="2" fill="#012169"/>
<path d="M21.2447 5.54993H31.5197L31.5047 12.8649C31.5897 15.7999 29.7597 17.6249 26.3897 18.4499C23.9947 17.8499 21.2397 16.6249 21.2297 12.9499L21.2447 5.54993Z" fill="white"/>
<path d="M21.4697 5.7699H31.2897L31.2797 12.7799C31.3597 15.5949 29.6097 17.3399 26.3897 18.1299C24.0997 17.5599 21.4647 16.3799 21.4597 12.8599L21.4697 5.7699Z" fill="#00A2BD" stroke="black" stroke-width="0.09"/>
<path d="M31.2141 13.6099C30.8541 16.2949 28.7841 17.4699 26.3891 18.0949C24.2641 17.5249 21.9791 16.6149 21.5391 13.6199L31.2141 13.6099Z" fill="#A53D08"/>
<path d="M25.9997 7.07495L25.9847 6.19495L26.6847 6.19995L26.6897 7.07495H28.5997L28.6047 7.75995L26.6897 7.76995L26.6747 15.8399L25.9947 15.8449L25.9847 7.75995L24.0847 7.76995V7.06995L25.9997 7.07495Z" fill="black"/>
<path fill-rule="evenodd" clip-rule="evenodd" d="M24.4496 13.9399L26.1996 15.7549C26.8046 15.0899 26.3846 12.6049 25.5896 12.1499C25.4946 12.4449 25.3346 12.7999 25.1596 12.9099C24.7846 13.1699 23.8546 13.4699 24.1646 13.6599C24.2346 13.5649 24.4196 13.4749 24.5096 13.6899C24.6096 14.0349 24.1196 14.0549 24.1196 14.0549C24.1196 14.0549 23.8096 14.0149 23.7546 13.7049C23.7046 13.3849 24.2196 13.0949 24.2646 13.0749C24.3046 13.0599 24.9796 12.8749 25.0946 12.2799C25.2396 11.6899 25.3846 11.7799 25.4096 11.7699C26.2946 11.8549 26.8696 13.4349 26.9046 14.5449C26.9346 15.6549 26.4546 16.3949 26.3646 16.4449C26.2796 16.4899 24.2646 14.0499 24.2646 14.0499L24.4496 13.9399Z" fill="#FF9A08" stroke="black" stroke-width="0.04"/>
<path d="M25.7297 12.25L25.7397 15.525L25.7297 12.25ZM25.5297 12.315L25.5447 15.285L25.5297 12.315ZM25.3197 12.745L25.3297 15.105L25.3197 12.745ZM25.1447 12.91L25.1547 14.865L25.1447 12.91ZM24.9597 13V14.65V13ZM24.7597 13.13V14.435V13.13ZM24.5847 13.235V14.235V13.235Z" fill="#FF9A08"/>
<path d="M25.7297 12.25L25.7397 15.525M25.5297 12.315L25.5447 15.285M25.3197 12.745L25.3297 15.105M25.1447 12.91L25.1547 14.865M24.9597 13V14.65M24.7597 13.13V14.435M24.5847 13.235V14.235" stroke="black" stroke-width="0.04"/>
<path d="M24.4209 14.1499L26.2209 16.2099" stroke="#FFDF00" stroke-width="0.04" stroke-linecap="round"/>
<path d="M26.3109 12.8499C26.3109 12.8499 27.1309 14.6349 26.3709 16.0999M24.2109 13.7699C24.2109 13.7699 24.2709 13.6149 24.3459 13.6799M24.0709 13.3149C24.0709 13.3149 23.7409 13.5999 23.9209 13.7899" stroke="#FFDF00" stroke-width="0.07" stroke-linecap="round"/>
<path d="M26.6995 8.77C26.8145 8.67 26.8795 8.605 26.9545 8.62C27.0295 8.63 27.1295 8.62 27.2045 8.6C27.4013 8.5543 27.6051 8.5475 27.8045 8.58C27.8545 8.59 27.9295 8.615 28.0345 8.705C28.1395 8.795 28.2945 8.955 28.2445 9.385C28.1945 9.815 28.2095 10 28.1845 10.245C28.1445 10.67 28.0495 11.02 27.8845 10.995C28.1095 11.395 28.1345 11.745 28.2845 12.02C28.4345 12.295 28.5245 12.86 28.4695 13.47C28.4095 14.085 28.2495 15.455 28.7345 16.38C28.6545 16.435 28.4595 16.38 28.2845 16.195C28.1095 16.01 28.0345 16.015 27.8945 16.125C27.4545 16.46 27.0445 16.865 26.4395 16.46C26.2995 16.37 26.2595 16.26 26.3595 15.975C26.6095 15.275 26.7345 14.305 26.6945 13.855L26.6995 8.77Z" fill="#008021" stroke="black" stroke-width="0.015"/>
<path d="M27.1148 8.33991C27.1547 8.45006 27.1529 8.57098 27.1098 8.67991C27.0795 8.74666 27.0659 8.81981 27.0702 8.89301C27.0746 8.96621 27.0968 9.03724 27.1348 9.09991C27.2698 8.89991 27.4648 8.93991 27.5848 8.82991C27.6948 8.71491 27.7198 8.60491 27.8048 8.57991C27.7198 8.50491 27.5898 8.41991 27.6148 8.20491C27.6448 7.98491 27.9498 7.80491 27.6748 7.47491C27.6337 7.42208 27.58 7.38041 27.5186 7.35372C27.4572 7.32703 27.3901 7.31618 27.3235 7.32215C27.2568 7.32812 27.1927 7.35073 27.137 7.3879C27.0813 7.42507 27.0359 7.47562 27.0048 7.53491C26.9898 7.57491 27.0148 7.65491 26.9698 7.70491C26.9412 7.74436 26.9056 7.77825 26.8648 7.80491C26.8398 7.82491 26.8248 7.84991 26.8548 7.88491C26.8648 7.89991 26.8848 7.89991 26.9048 7.90491L26.8648 7.97991C26.8498 7.99491 26.8548 8.00991 26.8748 8.02991C26.8498 8.09491 26.8948 8.10491 26.8648 8.15491C26.8348 8.19991 26.8048 8.25491 26.8948 8.30491C26.9248 8.31991 27.0448 8.34491 27.1148 8.33991ZM25.9898 9.48991C25.8298 9.52991 25.5698 9.45991 25.3748 9.47991C25.2848 9.48991 25.2148 9.44491 25.2248 9.35991C25.2398 9.27491 25.2548 9.13991 25.2348 9.01991C25.2367 8.76141 25.3019 8.50732 25.4248 8.27991C25.5237 8.10007 25.5881 7.90338 25.6148 7.69991C25.6148 7.60491 25.6248 7.50491 25.7048 7.44991C25.7648 7.41491 25.7748 7.37991 25.7948 7.34991C25.8448 7.27491 25.8948 7.25991 25.8948 7.29991C25.8998 7.32491 25.8948 7.34991 25.8698 7.37991C25.9198 7.33991 26.0098 7.28991 26.0298 7.27991C26.0498 7.25991 26.1498 7.18991 26.1548 7.25991C26.1948 7.23991 26.2248 7.23991 26.2348 7.25991C26.2448 7.28491 26.2348 7.29491 26.2198 7.30991C26.2498 7.30991 26.2798 7.35491 26.2198 7.39991C26.2548 7.38991 26.2848 7.43991 26.2298 7.48491C26.1798 7.53491 26.1098 7.56491 26.0948 7.60491C26.0748 7.64491 25.9348 7.74991 25.8798 7.76991C25.8248 7.79491 25.8198 7.82491 25.8198 7.90491C25.8198 8.79491 25.7198 8.71991 25.7198 8.93991C25.7198 8.98991 25.7048 9.04491 25.7598 9.02991C25.8337 9.00295 25.9113 8.98777 25.9898 8.98491V9.48491V9.48991ZM26.0248 11.3999C26.2848 11.2699 26.5848 11.2199 26.7398 11.1799C26.9195 11.1224 27.0935 11.0488 27.2598 10.9599C27.3848 10.8949 27.4848 10.8099 27.5548 10.7849C27.6369 10.7588 27.7052 10.7013 27.7448 10.6249C27.9418 10.2928 28.0599 9.91988 28.0898 9.53491C28.0898 9.33491 28.0398 9.10491 27.8398 9.26491C27.6358 9.44078 27.4837 9.66897 27.3998 9.92491C27.3198 10.2449 27.2498 10.3199 27.2348 10.3799C27.2148 10.4449 27.1548 10.4449 27.0748 10.4599C26.8222 10.4993 26.5862 10.6103 26.3948 10.7799C26.1679 10.9478 25.9308 11.1015 25.6848 11.2399C25.4998 11.3449 25.4648 11.3549 25.4248 11.4399C25.3848 11.5199 25.3448 11.5899 25.3148 11.6199C25.2748 11.6599 25.2648 11.6999 25.2748 11.7499C25.2798 11.7899 25.2648 11.9599 25.2598 12.0199C25.2598 12.0799 25.2748 12.0899 25.2948 12.0949C25.3148 12.0949 25.3448 12.0849 25.3598 12.0149C25.3498 12.0849 25.4448 12.0649 25.4498 12.0099C25.4498 12.0849 25.5498 12.0399 25.5498 11.9699C25.5498 12.0199 25.6348 11.9849 25.6348 11.9699C25.6548 11.9049 25.6698 11.8449 25.6948 11.7999C25.7248 11.7299 25.7598 11.6399 25.8298 11.5999C25.9048 11.5399 25.8698 11.4799 26.0248 11.3999ZM27.8948 16.1249C27.9098 16.1899 27.9448 16.2599 27.9548 16.3049C27.9648 16.3449 27.9448 16.3599 27.9348 16.3849C27.8676 16.5242 27.8205 16.6724 27.7948 16.8249C27.7948 16.8849 27.7448 16.9449 27.7298 16.9849C27.7048 17.0249 27.7148 17.0599 27.7698 17.0999C27.7898 17.1149 27.8698 17.0899 27.8748 17.0499C27.9098 17.0799 27.9548 17.0699 27.9798 17.0249C28.0098 17.0499 28.0548 17.0349 28.0798 16.9899C28.1048 17.0049 28.1448 16.9749 28.1598 16.9499C28.1998 16.9699 28.2398 16.9499 28.2398 16.8699C28.2398 16.8499 28.2548 16.8199 28.2648 16.8049C28.2748 16.7849 28.2798 16.7499 28.2798 16.7199C28.2798 16.6849 28.2948 16.6199 28.3248 16.5799C28.3548 16.5299 28.3998 16.4549 28.3798 16.3799C28.3598 16.3099 28.3298 16.3149 28.3048 16.2199C28.2398 16.1499 28.1548 16.0599 28.0648 16.0499C27.9748 16.0499 27.9248 16.1049 27.8948 16.1249ZM26.2498 16.6199C26.3348 16.6999 26.5148 16.6999 26.6398 16.5699C26.5948 16.5499 26.4898 16.4999 26.4498 16.4699C26.394 16.533 26.326 16.584 26.2498 16.6199Z" fill="#FFE1CF" stroke="black" stroke-width="0.015"/>
<path d="M27.0696 7.44995C27.0996 7.24995 27.2446 7.24995 27.3346 7.27495C27.3746 7.27995 27.4646 7.28995 27.5546 7.26495C27.7246 7.21995 27.8546 7.27995 27.8346 7.44495C27.8846 7.47995 27.9346 7.55995 27.9196 7.62995C27.9146 7.69995 27.9296 7.72995 27.9896 7.73495C28.0546 7.74495 28.1896 7.82495 28.0996 7.93495C28.1846 7.98495 28.2496 8.11995 28.2046 8.20495C28.1596 8.29495 28.0246 8.30995 27.9646 8.22995C27.8996 8.25995 27.7996 8.26495 27.7346 8.19995C27.6896 8.24995 27.5846 8.24495 27.5596 8.19995C27.5396 8.14995 27.5096 8.12995 27.4646 8.11495C27.4196 8.09995 27.4146 7.97495 27.4846 7.95995C27.4796 7.91995 27.4846 7.87995 27.4996 7.85995C27.5146 7.83995 27.4996 7.79995 27.4596 7.76995C27.4196 7.73495 27.3846 7.61995 27.4246 7.54995C27.3546 7.57495 27.2046 7.50495 27.1746 7.45995C27.1396 7.40995 27.0946 7.40995 27.0696 7.44995Z" fill="#870F00" stroke="black" stroke-width="0.015"/>
<path d="M27.1138 8.34003C27.2238 8.32503 27.2638 8.26003 27.3438 8.26003M26.8738 8.02503L26.8988 8.04003C26.9188 8.05503 26.9488 8.06003 26.9688 8.06003M26.9038 7.90503L26.9538 7.93503M27.1638 7.45003C27.0988 7.38503 27.2738 7.26003 27.4638 7.44003C27.5038 7.48003 27.5888 7.48003 27.6138 7.47003M27.4238 7.55003C27.5138 7.53003 27.6388 7.53003 27.6788 7.63003C27.7188 7.73003 27.7938 7.66003 27.8538 7.78003C27.9138 7.89503 28.0038 8.02003 28.1038 7.93003M27.7338 8.20003C27.7195 8.17621 27.7104 8.14968 27.7069 8.12213C27.7035 8.09459 27.7058 8.06663 27.7138 8.04003C27.6788 8.00003 27.6938 7.91503 27.7138 7.87503M27.4838 7.96003C27.4838 7.99503 27.5338 8.06003 27.6038 8.07003M27.9638 8.23003C27.9238 8.18003 27.9288 8.13003 27.9388 8.07003" stroke="black" stroke-width="0.015"/>
<path d="M27.543 7.65007C27.543 7.70507 27.573 7.77507 27.623 7.80007C27.638 7.83007 27.693 7.91007 27.813 7.90007M27.833 7.45007C27.7597 7.384 27.6698 7.33906 27.573 7.32007M27.133 9.10007C27.033 9.23507 26.973 9.42007 27.013 9.68007C27.063 9.94007 27.133 10.3201 26.948 10.4901M27.878 10.9951C27.748 10.9601 27.558 10.9601 27.453 11.0401C27.353 11.1151 27.173 11.1201 27.058 11.0601" stroke="black" stroke-width="0.015"/>
<path d="M27.5982 10.98C27.4832 11 27.4332 11.085 27.4332 11.3C27.4332 11.51 27.3832 11.82 27.4232 12.13M27.3932 11.075C27.3132 11.095 27.2332 11.095 27.2532 11.3M26.9982 11.3C27.0032 11.18 27.0482 11.06 27.1282 11.085M27.8332 11.33C27.8332 11.05 27.7732 10.975 27.6932 10.98C27.8032 10.98 27.8782 10.995 27.9282 11.44C27.9582 11.78 28.0282 11.89 28.1132 12.16C28.3182 12.84 28.2132 13.885 28.3182 14.26M27.6732 11.41C27.9594 12.2079 27.9523 13.0817 27.6532 13.875C27.8932 14.545 28.1332 15.03 28.1782 15.305M26.9832 12.905C27.0232 12.76 26.8732 12.745 27.0032 12.24C27.0582 12.02 27.0682 11.89 27.0332 11.82" stroke="black" stroke-width="0.015"/>
<path d="M27.0331 12.1201C26.9831 12.3401 27.1981 12.7601 27.0931 13.0701M26.8181 13.1251C26.8181 13.3251 26.8631 13.5751 26.8531 13.7751C26.8431 13.9701 26.9231 14.0601 27.0131 14.2451C27.3531 14.9151 27.5731 15.3901 27.5481 16.0201C27.5381 16.1401 27.5781 16.3801 27.4581 16.4501M26.8281 16.6201C26.8631 16.6201 26.8981 16.6001 26.9431 16.5001C27.0517 16.1271 27.0924 15.7375 27.0631 15.3501M27.1331 15.8301C27.1531 15.9601 27.1531 16.2301 27.0681 16.4501" stroke="black" stroke-width="0.015"/>
<path d="M27.3537 15.435C27.4037 15.715 27.4037 15.97 27.3587 16.15M27.2387 16.15C27.2487 16.26 27.2987 16.55 27.2137 16.575M27.6737 14.81C27.8887 15.145 28.0537 15.97 28.2337 16.14M27.8537 16.01C27.8537 15.92 27.8487 15.79 27.7937 15.73M25.5487 11.97C25.5537 11.91 25.5437 11.85 25.6137 11.75M25.4487 12.01C25.4587 11.79 25.4537 11.77 25.5187 11.71M25.3587 12.015C25.3587 11.855 25.3437 11.8 25.4087 11.7M26.1537 7.26001L25.9287 7.43001M26.2187 7.31001C26.1937 7.31001 26.1137 7.38001 25.9687 7.49001M26.2237 7.40001C26.1737 7.42001 26.0937 7.50001 26.0137 7.56001M25.8687 7.38501L25.7887 7.46501M27.8737 17.05C27.8637 17.04 27.8637 16.985 27.8887 16.93M27.9837 17.025C27.9637 17.01 27.9837 16.94 27.9937 16.895M28.0787 16.99C28.0587 16.98 28.0537 16.94 28.0787 16.89M28.1537 16.95C28.1437 16.95 28.1387 16.92 28.1587 16.86" stroke="black" stroke-width="0.015"/>
<path d="M27.0246 7.63496C27.0646 7.68496 27.1096 7.68496 27.1146 7.71496C27.1246 7.75496 27.1296 7.75496 27.1346 7.76496C27.1446 7.77496 27.1146 7.77496 27.1046 7.76496H27.0346C27.0146 7.76496 26.9946 7.73996 27.0046 7.73996C27.0196 7.73496 27.0196 7.72996 27.0146 7.71996C27.0146 7.70496 27.0246 7.68996 27.0346 7.68496L27.0296 7.66996C27.0196 7.65496 27.0146 7.61996 27.0246 7.62996V7.63496ZM27.0496 7.57996C27.113 7.58901 27.1722 7.61688 27.2196 7.65996C27.2546 7.69996 27.2246 7.68996 27.2096 7.68996C27.1946 7.68996 27.1596 7.67996 27.1396 7.65996C27.1134 7.63241 27.0808 7.61179 27.0446 7.59996C27.0296 7.59996 27.0146 7.57996 27.0446 7.57996H27.0496Z" fill="black"/>
<path d="M0 0H16V12H0V0Z" fill="#012169"/>
<path d="M1.875 0L7.975 4.525L14.05 0H16V1.55L10 6.025L16 10.475V12H14L8 7.525L2.025 12H0V10.5L5.975 6.05L0 1.6V0H1.875Z" fill="white"/>
<path d="M10.6 7.025L16 11V12L9.225 7.025H10.6ZM6 7.525L6.15 8.4L1.35 12H0L6 7.525ZM16 0V0.075L9.775 4.775L9.825 3.675L14.75 0H16ZM0 0L5.975 4.4H4.475L0 1.05V0Z" fill="#C8102E"/>
<path d="M6.025 0V12H10.025V0H6.025ZM0 4V8H16V4H0Z" fill="white"/>
<path d="M0 4.825V7.225H16V4.825H0ZM6.825 0V12H9.225V0H6.825Z" fill="#C8102E"/>
</svg>
