<svg width="36" height="24" viewBox="0 0 36 24" fill="none" xmlns="http://www.w3.org/2000/svg">
<g clip-path="url(#clip0_11930_68193)">
<path d="M0 0H18V24H0V0Z" fill="white"/>
<path d="M18 0H36V24H18V0Z" fill="#CF142B"/>
<path d="M7.58522 2.76147H10.5958V5.62121C10.71 5.6131 10.828 5.63189 10.9404 5.6761C11.0529 5.72032 11.1569 5.78879 11.2443 5.87618C11.3317 5.96357 11.4001 6.06754 11.4444 6.18001C11.4886 6.29248 11.5074 6.41042 11.4992 6.52467H14.359V9.53523H11.4992C11.5074 9.64949 11.4886 9.76743 11.4444 9.8799C11.4001 9.99237 11.3317 10.0963 11.2443 10.1837C11.1569 10.2711 11.0529 10.3396 10.9404 10.3838C10.828 10.428 10.71 10.4468 10.5958 10.4387V13.2984H7.58522V10.4387C7.47097 10.4468 7.35303 10.428 7.24056 10.3838C7.12809 10.3396 7.02412 10.2711 6.93673 10.1837C6.84934 10.0963 6.78087 9.99237 6.73665 9.8799C6.69243 9.76743 6.67365 9.64949 6.68176 9.53523H3.82202V6.52467H6.68176C6.67365 6.41042 6.69243 6.29248 6.73665 6.18001C6.78087 6.06754 6.84934 5.96357 6.93673 5.87618C7.02412 5.78879 7.12809 5.72032 7.24056 5.6761C7.35303 5.63189 7.47097 5.6131 7.58522 5.62121V2.76147Z" stroke="#CF142B" stroke-width="0.37632"/>
<path d="M10.5777 5.62269C10.6943 5.61154 10.8155 5.62869 10.9312 5.67274C11.047 5.7168 11.1541 5.78652 11.2438 5.87619C11.3335 5.96587 11.4032 6.07297 11.4472 6.18874C11.4913 6.30451 11.5085 6.42567 11.4973 6.54233V9.51761C11.5085 9.63426 11.4913 9.75542 11.4472 9.87119C11.4032 9.98696 11.3335 10.0941 11.2438 10.1837C11.1541 10.2734 11.047 10.3431 10.9312 10.3872C10.8155 10.4312 10.6943 10.4484 10.5777 10.4372H7.60238C7.48573 10.4484 7.36457 10.4312 7.2488 10.3872C7.13303 10.3431 7.02593 10.2734 6.93625 10.1837C6.84657 10.0941 6.77686 9.98696 6.7328 9.87119C6.68875 9.75542 6.6716 9.63426 6.68275 9.51761V6.54233C6.6716 6.42567 6.68875 6.30451 6.7328 6.18874C6.77686 6.07297 6.84657 5.96587 6.93625 5.87619C7.02593 5.78652 7.13303 5.7168 7.2488 5.67274C7.36457 5.62869 7.48573 5.61154 7.60238 5.62269H10.5777Z" fill="white"/>
<path d="M7.6028 2.77905H10.5781V13.2807H7.6028V2.77905ZM3.8396 6.54225H14.3413V9.51753H3.8396V6.54225Z" fill="white" stroke="black" stroke-width="0.03528"/>
<path d="M7.7737 2.94971H10.4079V13.1103H7.7737V2.94971ZM4.0105 6.71291H14.1711V9.34715H4.0105V6.71291Z" fill="white" stroke="black" stroke-width="0.07056"/>
<path d="M9.09004 10.382C10.389 10.382 11.442 9.32895 11.442 8.02998C11.442 6.731 10.389 5.67798 9.09004 5.67798C7.79106 5.67798 6.73804 6.731 6.73804 8.02998C6.73804 9.32895 7.79106 10.382 9.09004 10.382Z" fill="white" stroke="black" stroke-width="0.07056"/>
<path d="M9.09082 9.77051C10.0521 9.77051 10.8313 8.99127 10.8313 8.03003C10.8313 7.06879 10.0521 6.28955 9.09082 6.28955C8.12958 6.28955 7.35034 7.06879 7.35034 8.03003C7.35034 8.99127 8.12958 9.77051 9.09082 9.77051Z" fill="white" stroke="black" stroke-width="0.07056"/>
<path d="M11.3551 6.14457C11.2735 6.20704 11.1184 6.36654 11.0243 6.4834L10.9369 6.42901C11.0567 6.32538 11.2228 6.17176 11.3146 6.06225L11.3551 6.14457ZM11.2808 6.00859C11.1331 6.05196 10.8509 6.13501 10.7303 6.21145L10.7039 6.17323C10.7546 6.10047 10.8119 5.80132 10.8097 5.71606L10.9016 5.73664C10.8714 5.81014 10.842 5.96743 10.834 6.0696C10.9288 6.05269 11.1537 5.97919 11.2176 5.93289L11.2808 6.00859Z" fill="white" stroke="black" stroke-width="0.03528" stroke-linejoin="round"/>
<path d="M11.47 6.34532H11.3534C11.3638 6.28377 11.3471 6.20667 11.306 6.12652C11.2648 6.04638 11.2016 5.96787 11.1266 5.90374C11.0517 5.8396 10.9693 5.79359 10.8929 5.77315C10.8165 5.75272 10.7505 5.75906 10.7056 5.79115C10.6607 5.82323 10.6396 5.87919 10.6457 5.94995C10.6517 6.02071 10.6846 6.10212 10.739 6.181C10.7933 6.25988 10.866 6.3316 10.9452 6.38454C11.0244 6.43749 11.1055 6.46855 11.1753 6.47269L11.2577 6.37442L11.3592 6.47593L11.2457 6.58941C11.1398 6.57367 11.0355 6.53563 10.9401 6.47785C10.8446 6.42008 10.76 6.34393 10.6922 6.25453C10.6243 6.16514 10.5747 6.06459 10.5466 5.95968C10.5186 5.85477 10.5128 5.74794 10.5297 5.64641C10.6299 5.62977 10.7352 5.63516 10.8388 5.66222C10.9423 5.68929 11.0418 5.73741 11.1306 5.80343C11.2194 5.86945 11.2956 5.95187 11.3541 6.04527C11.4126 6.13867 11.4521 6.24093 11.47 6.34532Z" fill="white" stroke="black" stroke-width="0.03528" stroke-linejoin="round"/>
<path d="M10.9736 10.2967C10.9111 10.2151 10.7516 10.06 10.6348 9.96597L10.6891 9.8785C10.7928 9.99831 10.9464 10.1644 11.0559 10.2563L10.9736 10.2967ZM11.1096 10.2225C11.0662 10.0747 10.9831 9.79251 10.9067 9.67197L10.9449 9.64551C11.0177 9.69622 11.3168 9.75355 11.4021 9.75135L11.3815 9.84322C11.308 9.81309 11.1507 9.78369 11.0486 9.7756C11.0655 9.87042 11.139 10.0953 11.1853 10.1593L11.1096 10.2225Z" fill="white" stroke="black" stroke-width="0.03528" stroke-linejoin="round"/>
<path d="M10.7728 10.4119V10.2953C10.8344 10.3057 10.9115 10.289 10.9916 10.2479C11.0718 10.2067 11.1503 10.1435 11.2144 10.0685C11.2786 9.99355 11.3246 9.91119 11.345 9.83477C11.3654 9.75835 11.3591 9.69237 11.327 9.6475C11.2949 9.60264 11.239 9.58152 11.1682 9.58758C11.0975 9.59363 11.016 9.62651 10.9372 9.68087C10.8583 9.73523 10.7866 9.8079 10.7336 9.8871C10.6807 9.9663 10.6496 10.0474 10.6455 10.1172L10.7437 10.1996L10.6422 10.3011L10.5288 10.1876C10.5445 10.0817 10.5825 9.97744 10.6403 9.88195C10.6981 9.78646 10.7742 9.70193 10.8636 9.63406C10.953 9.56619 11.0536 9.51656 11.1585 9.48854C11.2634 9.46051 11.3702 9.45474 11.4718 9.4716C11.4884 9.57176 11.483 9.67708 11.4559 9.78065C11.4289 9.88422 11.3808 9.98369 11.3147 10.0725C11.2487 10.1613 11.1663 10.2375 11.0729 10.296C10.9795 10.3545 10.8772 10.394 10.7728 10.4119Z" fill="white" stroke="black" stroke-width="0.03528" stroke-linejoin="round"/>
<path d="M6.82511 9.91524C6.90669 9.85277 7.06178 9.69327 7.15586 9.57641L7.24332 9.6308C7.12352 9.73444 6.95741 9.88805 6.86553 9.99757L6.82511 9.91524ZM6.89934 10.0512C7.04708 10.0079 7.32932 9.9248 7.44986 9.84836L7.47632 9.88658C7.4256 9.95934 7.36827 10.2585 7.37048 10.3438L7.2786 10.3232C7.30874 10.2497 7.33814 10.0924 7.34622 9.99022C7.25141 10.0071 7.0265 10.0806 6.96255 10.1269L6.89934 10.0512Z" fill="white" stroke="black" stroke-width="0.03528" stroke-linejoin="round"/>
<path d="M6.70921 9.7145H6.82578C6.81536 9.77605 6.83208 9.85315 6.87324 9.93329C6.9144 10.0134 6.97759 10.0919 7.05256 10.1561C7.12754 10.2202 7.20991 10.2662 7.28632 10.2867C7.36274 10.3071 7.42873 10.3008 7.47359 10.2687C7.51846 10.2366 7.53957 10.1806 7.53352 10.1099C7.52746 10.0391 7.49459 9.95769 7.44022 9.87881C7.38586 9.79993 7.31319 9.72821 7.234 9.67527C7.1548 9.62233 7.07371 9.59127 7.00387 9.58712L6.92148 9.68539L6.81997 9.58389L6.93353 9.4704C7.03944 9.48615 7.14365 9.52419 7.23914 9.58196C7.33463 9.63973 7.41916 9.71589 7.48703 9.80528C7.5549 9.89467 7.60453 9.99522 7.63256 10.1001C7.66058 10.205 7.66636 10.3119 7.64949 10.4134C7.54934 10.43 7.44401 10.4247 7.34044 10.3976C7.23687 10.3705 7.13741 10.3224 7.04858 10.2564C6.95976 10.1904 6.8836 10.1079 6.82511 10.0145C6.76661 9.92115 6.72711 9.81889 6.70921 9.7145Z" fill="white" stroke="black" stroke-width="0.03528" stroke-linejoin="round"/>
<path d="M7.2056 5.7631C7.26808 5.84468 7.42757 5.99977 7.54444 6.09385L7.49005 6.18131C7.38641 6.06151 7.2328 5.8954 7.12328 5.80352L7.2056 5.7631ZM7.06963 5.83733C7.11299 5.98507 7.19605 6.26731 7.27249 6.38785L7.23427 6.41431C7.1615 6.36359 6.86236 6.30626 6.7771 6.30847L6.79768 6.21659C6.87118 6.24673 7.02847 6.27613 7.13063 6.28421C7.11373 6.1894 7.04023 5.96449 6.99392 5.90054L7.06963 5.83733Z" fill="white" stroke="black" stroke-width="0.03528" stroke-linejoin="round"/>
<path d="M7.40635 5.64793V5.7645C7.3448 5.75408 7.2677 5.7708 7.18756 5.81196C7.10741 5.85312 7.02891 5.91631 6.96477 5.99129C6.90064 6.06626 6.85462 6.14863 6.83419 6.22504C6.81375 6.30146 6.82009 6.36745 6.85218 6.41231C6.88427 6.45718 6.94023 6.47829 7.01099 6.47224C7.08174 6.46618 7.16316 6.43331 7.24204 6.37895C7.32092 6.32458 7.39264 6.25191 7.44558 6.17272C7.49852 6.09352 7.52958 6.01243 7.53373 5.94259L7.43546 5.8602L7.53696 5.75869L7.65045 5.87225C7.6347 5.97816 7.59666 6.08237 7.53889 6.17786C7.48112 6.27335 7.40496 6.35789 7.31557 6.42576C7.22618 6.49363 7.12563 6.54325 7.02072 6.57128C6.91581 6.5993 6.80897 6.60508 6.70744 6.58821C6.6908 6.48806 6.69619 6.38273 6.72326 6.27916C6.75032 6.17559 6.79845 6.07613 6.86447 5.98731C6.93049 5.89848 7.01291 5.82232 7.1063 5.76383C7.1997 5.70534 7.30196 5.66584 7.40635 5.64793Z" fill="white" stroke="black" stroke-width="0.03528" stroke-linejoin="round"/>
<path d="M7.2209 9.34562C7.16798 9.25301 7.09815 9.13468 7.05993 9.10381C7.08345 9.08764 7.11506 9.06412 7.13123 9.05971C7.13049 9.11851 7.21943 9.24052 7.21943 9.24052L7.35026 9.15452C7.31351 9.09793 7.28117 9.05456 7.25471 9.03766C7.28705 9.01414 7.32159 8.99429 7.33115 8.99209C7.33188 9.02075 7.34879 9.06853 7.39877 9.12733C7.39877 9.12733 7.52078 9.06265 7.56047 9.01267L7.61192 9.09646C7.55459 9.10748 7.29734 9.26771 7.2209 9.34562ZM7.03935 8.23063C6.90191 8.25562 6.83208 8.37248 6.8556 8.50405C6.87912 8.63708 6.99819 8.72822 7.12902 8.70617C7.25985 8.68339 7.33409 8.56285 7.3091 8.4232C7.28411 8.28355 7.1768 8.20564 7.03935 8.23063ZM7.0592 8.31001C7.16945 8.29016 7.26206 8.34382 7.27749 8.42908C7.29293 8.51434 7.22457 8.59886 7.11359 8.61871C7.0026 8.63855 6.9144 8.56799 6.90191 8.4967C6.88868 8.42393 6.94821 8.32985 7.0592 8.31001ZM7.32821 7.50151C7.28264 7.57354 7.18194 7.63969 7.09301 7.70069C7.08051 7.63748 7.03347 7.59706 6.97908 7.59338C6.92102 7.59044 6.86148 7.63675 6.85119 7.66762C6.83649 7.71025 6.81812 7.89326 6.81812 7.89326C6.93278 7.88444 7.18341 7.90429 7.26941 7.93589L7.2797 7.83887C7.2231 7.85357 7.09521 7.82711 7.09521 7.82711L7.09815 7.78448L7.23045 7.68011C7.24736 7.66688 7.34658 7.57427 7.34952 7.50812C7.35026 7.48754 7.33262 7.49269 7.32821 7.50151ZM7.06287 7.82564C7.01069 7.82711 6.90191 7.82123 6.87177 7.808C6.88353 7.7029 6.91587 7.66541 6.97173 7.67056C7.02318 7.6757 7.07757 7.7051 7.06287 7.82564ZM7.56414 6.52322C7.46418 6.53131 7.33923 6.62539 7.34217 6.70624C7.34291 6.74887 7.35761 6.80767 7.4142 6.8503C7.47006 6.89293 7.52813 6.90542 7.57443 6.8966C7.61927 6.88852 7.6935 6.82604 7.69277 6.7915C7.69277 6.75769 7.61339 6.66361 7.56341 6.66361L7.64646 6.57467C7.66778 6.62612 7.75304 6.70109 7.78464 6.71065C7.74863 6.79664 7.70379 6.88631 7.60971 6.92968C7.51563 6.97378 7.41788 6.97157 7.32894 6.88778C7.24515 6.8084 7.27749 6.65552 7.33041 6.59599C7.38848 6.53057 7.49652 6.50264 7.49873 6.45193L7.56414 6.52322ZM8.03307 6.02857L8.05071 6.36226C8.05071 6.36226 8.05733 6.48059 8.03013 6.55409L8.13377 6.48133C8.09334 6.44899 8.10143 6.34976 8.10143 6.34976L8.26901 6.26009C8.26901 6.26009 8.34839 6.31081 8.3403 6.37255L8.48289 6.31448C8.39984 6.28288 8.29694 6.21011 8.29694 6.21011L8.03307 6.02857ZM8.08673 6.1322L8.23961 6.23363L8.0904 6.31375L8.08673 6.1322ZM8.83496 5.78381C8.81585 5.8654 8.83643 6.02636 8.86656 6.16013C8.9702 6.15058 9.04958 6.14029 9.08486 6.09619L9.09441 6.20644C8.99225 6.20644 8.87979 6.2182 8.77689 6.23437C8.77836 6.08369 8.76293 5.88598 8.7203 5.80072L8.83496 5.78381ZM9.61332 5.83306C9.56555 5.90215 9.52586 6.05944 9.50528 6.19468C9.60524 6.22408 9.68315 6.24319 9.73239 6.21452L9.70078 6.3211C9.60597 6.28435 9.49645 6.25348 9.39503 6.23069C9.45089 6.09178 9.50895 5.90141 9.50086 5.80733L9.61332 5.83306ZM10.4005 6.18953L10.1094 6.35491C10.1094 6.35491 10.0065 6.41444 9.92864 6.42326L10.0396 6.48206C10.0506 6.43208 10.1433 6.3946 10.1433 6.3946L10.2991 6.50411C10.2991 6.50411 10.2888 6.59893 10.23 6.61877L10.3454 6.7202C10.3373 6.632 10.3557 6.50632 10.3557 6.50632L10.4005 6.18953ZM10.3314 6.28361L10.3086 6.46663L10.1697 6.36887L10.3314 6.28361ZM10.5549 6.96863L10.5093 6.88264C10.5843 6.87676 10.8099 6.74446 10.9135 6.67684L10.9297 6.70624L10.8327 7.14944C10.9194 7.1149 11.0569 7.04287 11.0943 7.00318L11.1458 7.10093C11.0495 7.08697 10.8709 7.17517 10.7357 7.25749L10.7224 7.23397L10.8055 6.80252C10.8055 6.80252 10.5813 6.90395 10.5549 6.96863ZM11.2384 7.60955C11.2296 7.54414 11.2281 7.4993 11.1965 7.4846L11.1928 7.45741L11.273 7.44418C11.306 7.53017 11.3435 7.76978 11.3384 7.83152L11.256 7.84475L11.2524 7.82197C11.2796 7.7911 11.2524 7.67791 11.2524 7.67791C11.1304 7.6904 10.9179 7.72495 10.8878 7.76684L10.8687 7.65365C10.9121 7.66835 11.1259 7.64557 11.2384 7.60955ZM10.8437 8.58269C10.8893 8.51066 10.9914 8.44525 11.0804 8.38498C11.0929 8.44819 11.1392 8.48935 11.1943 8.49229C11.2524 8.49596 11.3119 8.45113 11.3222 8.41952C11.3376 8.37689 11.3567 8.19461 11.3567 8.19461C11.2421 8.20196 10.9922 8.18065 10.9062 8.14831L10.8952 8.24533C10.9518 8.23136 11.0796 8.25782 11.0796 8.25782L11.0767 8.30045L10.9437 8.40409C10.926 8.41732 10.8261 8.50919 10.8224 8.57534C10.8217 8.59592 10.8393 8.59004 10.8437 8.58269ZM11.112 8.26003C11.1642 8.25929 11.273 8.26591 11.3031 8.27914C11.2906 8.38424 11.2575 8.42173 11.2017 8.41585C11.1502 8.40997 11.0965 8.38057 11.112 8.26003ZM10.696 8.87449L10.6276 8.99209C10.6805 8.984 10.754 9.0259 10.8136 9.06485C10.8334 9.11777 10.9113 9.25301 10.9054 9.38531L10.9936 9.2339C10.9547 9.21626 10.9091 9.19715 10.8797 9.0553C10.9959 9.01193 11.0826 8.99797 11.1193 9.01855L11.1972 8.88625C11.1068 8.94064 10.8944 8.9965 10.8591 8.98474C10.8224 8.96342 10.718 8.93108 10.696 8.87449Z" fill="black"/>
<path d="M10.1727 9.85721C10.2234 9.85721 10.2646 9.81608 10.2646 9.76534C10.2646 9.7146 10.2234 9.67346 10.1727 9.67346C10.1219 9.67346 10.0808 9.7146 10.0808 9.76534C10.0808 9.81608 10.1219 9.85721 10.1727 9.85721Z" fill="black"/>
<path d="M8.00472 9.85721C8.05546 9.85721 8.09659 9.81608 8.09659 9.76534C8.09659 9.7146 8.05546 9.67346 8.00472 9.67346C7.95398 9.67346 7.91284 9.7146 7.91284 9.76534C7.91284 9.81608 7.95398 9.85721 8.00472 9.85721Z" fill="black"/>
<path d="M9.23129 10.2718C9.22173 10.2784 9.19601 10.2652 9.19013 10.2446C9.19013 10.2512 9.18866 10.2718 9.17616 10.2836C9.14603 10.3122 9.11369 10.2983 9.08796 10.2983C9.06224 10.2983 9.0299 10.3122 8.99976 10.2836C8.98727 10.2718 8.9858 10.2512 8.9858 10.2446C8.97992 10.2652 8.95419 10.2784 8.94464 10.2718C8.93582 10.2652 8.94023 10.2365 8.95787 10.2248C8.95199 10.2262 8.93141 10.2314 8.91671 10.2233C8.87996 10.2035 8.88363 10.1682 8.87555 10.1439C8.86746 10.1197 8.84394 10.0932 8.86232 10.0557C8.86967 10.0403 8.88878 10.0322 8.89466 10.03C8.87334 10.0307 8.8535 10.0101 8.85644 9.99986C8.86011 9.98883 8.88878 9.98442 8.90568 9.99765C8.90127 9.99251 8.89098 9.97487 8.89392 9.95796C8.90127 9.9168 8.93582 9.90945 8.9564 9.89402C8.97771 9.87858 8.99535 9.84845 9.03651 9.85433C9.05342 9.85653 9.06665 9.87197 9.07106 9.87711C9.06371 9.85727 9.07694 9.83154 9.08796 9.83154C9.09899 9.83154 9.11222 9.85727 9.10487 9.87711C9.10928 9.87197 9.12251 9.85653 9.13941 9.85433C9.18057 9.84845 9.19821 9.87858 9.21953 9.89402C9.24011 9.90945 9.27465 9.9168 9.282 9.95796C9.28494 9.97487 9.27465 9.99251 9.27024 9.99765C9.28715 9.98442 9.31581 9.98883 9.31949 9.99986C9.32243 10.0101 9.30258 10.0307 9.28127 10.03C9.28715 10.0322 9.30626 10.0403 9.31361 10.0557C9.33198 10.0932 9.30846 10.1197 9.30038 10.1439C9.29229 10.1682 9.29597 10.2035 9.25922 10.2233C9.24452 10.2314 9.22394 10.2262 9.21806 10.2248C9.2357 10.2365 9.24011 10.2652 9.23129 10.2718ZM9.01961 10.1689C9.03137 10.1777 8.99976 10.2042 9.01226 10.2373C9.02622 10.2762 9.06518 10.2645 9.08796 10.2645C9.11075 10.2645 9.1497 10.2762 9.16367 10.2373C9.17616 10.2042 9.14456 10.1777 9.15632 10.1689C9.16808 10.1601 9.18425 10.1983 9.21879 10.1976C9.26069 10.1954 9.26142 10.1557 9.26804 10.1336C9.27539 10.1116 9.29891 10.0785 9.26583 10.0528C9.23864 10.0307 9.20262 10.0528 9.19821 10.0388C9.1938 10.0248 9.23496 10.0219 9.24525 9.9881C9.25628 9.94767 9.21806 9.93518 9.19968 9.92121C9.18057 9.90798 9.15632 9.87564 9.12177 9.89843C9.09311 9.91827 9.10266 9.9587 9.08796 9.9587C9.07326 9.9587 9.08282 9.91827 9.05415 9.89843C9.01961 9.87564 8.99535 9.90798 8.97624 9.92121C8.95787 9.93518 8.91965 9.94767 8.93067 9.9881C8.94096 10.0219 8.98212 10.0248 8.97771 10.0388C8.9733 10.0528 8.93729 10.0307 8.91009 10.0528C8.87702 10.0785 8.90054 10.1116 8.90789 10.1336C8.9145 10.1557 8.91524 10.1954 8.95713 10.1976C8.99168 10.1983 9.00785 10.1601 9.01961 10.1689Z" fill="black"/>
<path d="M9.08761 10.2212C9.081 10.2212 9.07291 10.2058 9.07732 10.1933C9.07512 10.1969 9.06703 10.2058 9.05674 10.2072C9.03175 10.2109 9.02146 10.1925 9.00897 10.1837C8.99647 10.1742 8.97589 10.1698 8.97148 10.1455C8.96928 10.1352 8.97589 10.1242 8.9781 10.1212C8.96781 10.1293 8.9509 10.1264 8.9487 10.1198C8.94649 10.1139 8.95899 10.1014 8.97148 10.1014C8.96781 10.1007 8.95678 10.0955 8.95237 10.0867C8.94135 10.0639 8.95531 10.0485 8.96046 10.0338C8.96487 10.0191 8.96266 9.99776 8.98471 9.986C8.99353 9.98086 9.00603 9.9838 9.0097 9.98527C8.99868 9.97792 8.99647 9.96101 9.00162 9.9566C9.0075 9.95293 9.02293 9.96101 9.02661 9.97277C9.02661 9.9691 9.02734 9.9566 9.03469 9.94999C9.05307 9.93235 9.07218 9.94117 9.08761 9.94117C9.10305 9.94117 9.12216 9.93235 9.14053 9.94999C9.14788 9.9566 9.14862 9.9691 9.14862 9.97277C9.15229 9.96101 9.16773 9.95293 9.17361 9.9566C9.17875 9.96101 9.17655 9.97792 9.16552 9.98527C9.1692 9.9838 9.18169 9.98086 9.19051 9.986C9.21256 9.99776 9.21036 10.0191 9.21477 10.0338C9.21991 10.0485 9.23388 10.0639 9.22285 10.0867C9.21844 10.0955 9.20742 10.1007 9.20374 10.1014C9.21624 10.1014 9.22873 10.1139 9.22653 10.1198C9.22432 10.1264 9.20742 10.1293 9.19713 10.1212C9.19933 10.1242 9.20595 10.1352 9.20374 10.1455C9.19933 10.1698 9.17875 10.1742 9.16626 10.1837C9.15376 10.1925 9.14347 10.2109 9.11848 10.2072C9.10819 10.2058 9.10011 10.1969 9.0979 10.1933C9.10231 10.2058 9.09423 10.2212 9.08761 10.2212ZM9.08761 10.1374C9.0957 10.1374 9.09055 10.1595 9.10599 10.1698C9.12436 10.1822 9.13759 10.1653 9.14788 10.158C9.15817 10.1506 9.17875 10.1433 9.17214 10.122C9.16699 10.1036 9.14494 10.1021 9.14715 10.094C9.14935 10.0867 9.16846 10.0985 9.1839 10.0867C9.20154 10.0727 9.18904 10.0551 9.18537 10.0433C9.18096 10.0316 9.18096 10.0095 9.15817 10.0088C9.13906 10.0081 9.13098 10.0286 9.12436 10.0242C9.11775 10.0198 9.13539 10.0051 9.12877 9.98747C9.12069 9.96616 9.10011 9.97277 9.08761 9.97277C9.07512 9.97277 9.05454 9.96616 9.04645 9.98747C9.03984 10.0051 9.05748 10.0198 9.05086 10.0242C9.04425 10.0286 9.03616 10.0081 9.01705 10.0088C8.99427 10.0095 8.99427 10.0316 8.98986 10.0433C8.98618 10.0551 8.97369 10.0727 8.99133 10.0867C9.00676 10.0985 9.02587 10.0867 9.02808 10.094C9.03028 10.1021 9.00823 10.1036 9.00309 10.122C8.99647 10.1433 9.01705 10.1506 9.02734 10.158C9.03763 10.1653 9.05086 10.1822 9.06924 10.1698C9.08467 10.1595 9.07953 10.1374 9.08761 10.1374Z" fill="black"/>
<path d="M9.08801 10.1101C9.1075 10.1101 9.12329 10.0943 9.12329 10.0748C9.12329 10.0553 9.1075 10.0396 9.08801 10.0396C9.06853 10.0396 9.05273 10.0553 9.05273 10.0748C9.05273 10.0943 9.06853 10.1101 9.08801 10.1101Z" fill="black"/>
<path d="M7.89062 9.28987C8.69029 9.25722 9.49096 9.25722 10.2906 9.28987" stroke="black" stroke-width="0.035" stroke-linecap="round" stroke-linejoin="round"/>
<path d="M8.99609 7.16504L9.06109 7.24004M9.16109 8.20004C9.15609 8.26004 9.16109 8.32504 9.17109 8.36004M9.01109 8.21004C9.03109 8.23504 9.06109 8.32504 9.06109 8.36004" stroke="black" stroke-width="0.02" stroke-linecap="round" stroke-linejoin="round"/>
<path d="M9.5057 9.28006C9.4757 9.29006 9.42571 9.32006 9.42571 9.34506C9.42571 9.37006 9.4857 9.37506 9.5057 9.38006C9.4707 9.39006 9.37071 9.41006 9.32571 9.39006C9.29571 9.40506 9.0657 9.35506 9.0157 9.35506C8.9857 9.35506 8.94571 9.32506 8.95071 9.27006C8.95071 9.26006 8.96071 9.23006 8.98571 9.22006C8.97071 9.19006 9.04071 9.14506 9.11071 9.10006C9.01071 9.11506 8.8757 9.07506 8.8407 9.03506C8.7607 9.00506 8.7257 9.03506 8.6907 9.10506C8.6907 9.22506 8.6257 9.28506 8.5407 9.27506C8.4907 9.26506 8.47571 9.29006 8.46071 9.30006L8.62571 9.35006C8.73571 9.45006 8.67571 9.53006 8.65071 9.55006C8.62571 9.56506 8.5657 9.55506 8.5307 9.55506C8.4907 9.55506 8.4907 9.57006 8.4807 9.57506C8.4507 9.59006 8.4257 9.59506 8.4157 9.58506C8.4157 9.57006 8.43071 9.50006 8.47571 9.49006C8.50071 9.49006 8.55071 9.47506 8.55071 9.45006C8.55071 9.43006 8.4607 9.43006 8.3907 9.40506C8.3357 9.38506 8.31571 9.35506 8.33571 9.26006C8.35071 9.16006 8.4707 9.14506 8.5307 9.14506C8.5207 9.10506 8.5307 9.03006 8.5807 8.98006C8.6607 8.90506 8.78071 8.93006 8.88571 8.94006C8.94571 8.90506 9.0557 8.85506 9.1657 8.85006C9.2657 8.85006 9.6957 8.73506 9.8907 8.76006C9.8407 8.69506 9.85571 8.54006 9.93571 8.49506C10.0357 8.43506 10.1457 8.59506 10.1757 8.56506C10.2007 8.53506 10.1407 8.49506 10.0657 8.41506C10.0457 8.38506 10.0507 8.38506 10.0507 8.37506C10.0507 8.35006 10.0507 8.32506 10.0657 8.31506C10.0757 8.31006 10.1357 8.33006 10.1507 8.35506C10.1707 8.38506 10.1957 8.39506 10.2157 8.38006C10.2407 8.36006 10.2057 8.37006 10.1907 8.33006C10.1857 8.30506 10.1657 8.28506 10.1707 8.26506C10.2033 8.23091 10.2424 8.2037 10.2857 8.18506C10.3057 8.20506 10.3157 8.23006 10.3307 8.25006C10.3657 8.30506 10.4007 8.29006 10.4257 8.33006C10.4307 8.34506 10.4307 8.38006 10.4507 8.41506C10.492 8.48952 10.5524 8.55165 10.6257 8.59506C10.6407 8.60506 10.6557 8.62006 10.6557 8.63006C10.6557 8.65006 10.6457 8.67006 10.6357 8.68006C10.6257 8.69006 10.5857 8.69006 10.5557 8.67506C10.5057 8.65006 10.4807 8.63506 10.4507 8.64006C10.3807 8.65006 10.3357 8.76006 10.2357 8.76006C10.1457 8.75006 10.0857 8.61506 10.0307 8.65506C9.9757 8.69506 10.1557 8.80506 10.1307 8.85506C10.1507 8.86506 10.1757 8.90506 10.1657 8.94006C10.2057 8.93199 10.2436 8.91586 10.2771 8.89265C10.3106 8.86944 10.3391 8.83963 10.3607 8.80506C10.4107 8.74006 10.4457 8.70506 10.4707 8.69506C10.5007 8.68006 10.5357 8.69506 10.5357 8.72006L10.5807 8.73506C10.6057 8.74506 10.5957 8.77506 10.5907 8.78506L10.5607 8.76506C10.5457 8.76506 10.5207 8.78006 10.5007 8.79506C10.4807 8.81506 10.4657 8.85506 10.4407 8.88006L10.3407 8.99006C10.3557 9.01006 10.3507 9.04506 10.3507 9.06506C10.3557 9.06506 10.3757 9.06506 10.3857 9.07506C10.3957 9.08006 10.3907 9.09006 10.3857 9.11006C10.3857 9.13506 10.2857 9.24506 10.2657 9.24006C10.2257 9.24006 10.1957 9.19006 10.2007 9.17506C10.1557 9.19506 10.1357 9.14506 10.1357 9.12506C10.1042 9.15687 10.0668 9.18233 10.0257 9.20006C10.0057 9.20506 9.99571 9.21006 9.98571 9.18006C9.98071 9.20006 9.9207 9.22006 9.9057 9.22506C9.8307 9.24006 9.75071 9.27506 9.67571 9.27506L9.48571 9.27006L9.5057 9.28006Z" fill="white" stroke="black" stroke-width="0.025" stroke-linecap="round" stroke-linejoin="round"/>
<path d="M9.77125 8.56995C9.77125 8.59995 9.72625 8.66995 9.79125 8.72995C9.83125 8.75995 9.89625 8.78495 9.91625 8.82995C9.93625 8.86495 9.91125 8.89495 9.90125 8.89495C9.86125 8.88495 9.80625 8.95495 9.78625 9.00495C9.76625 8.93495 9.72125 8.95495 9.66125 8.96495C9.67625 8.88995 9.62125 8.84495 9.53125 8.83495C9.54625 8.81995 9.52125 8.79995 9.50125 8.77995C9.48125 8.75995 9.41125 8.77495 9.40125 8.75995C9.40125 8.74495 9.43625 8.70995 9.41625 8.68495C9.39625 8.64995 9.31625 8.66995 9.28625 8.65995C9.29625 8.61995 9.29625 8.59495 9.27625 8.55995C9.25625 8.52495 9.16625 8.53495 9.12125 8.52495C9.15625 8.49995 9.17125 8.45995 9.15125 8.41995C9.13125 8.36995 9.03125 8.42495 9.03125 8.36995C9.03625 8.34495 9.15125 8.32995 9.19625 8.32495C9.23625 8.32495 9.38125 8.35995 9.52125 8.38995C9.55125 8.41995 9.77125 8.48495 9.77125 8.56995Z" fill="white" stroke="black" stroke-width="0.015" stroke-linecap="round" stroke-linejoin="round"/>
<path d="M10.1355 9.12994C10.2055 9.09494 10.2705 9.04994 10.3405 8.98994M9.06055 8.93994C9.12055 8.93994 9.25555 8.95994 9.29555 9.00994C9.33055 9.05994 9.35555 9.14494 9.09055 9.20994C9.17055 9.20994 9.29055 9.19494 9.33055 9.20494C9.37055 9.19494 9.45555 9.16994 9.49055 9.17994C9.47555 9.18494 9.43055 9.19994 9.43055 9.22994C9.43055 9.25494 9.45055 9.25494 9.48555 9.26994M9.74055 9.08994C9.83555 9.10994 9.97055 9.07994 9.99055 9.17994" stroke="black" stroke-width="0.025" stroke-linecap="round" stroke-linejoin="round"/>
<path d="M10.0557 8.33984C10.0807 8.36984 10.1557 8.41484 10.1907 8.43984C10.2407 8.47984 10.2607 8.43484 10.2257 8.36984" stroke="black" stroke-width="0.02" stroke-linecap="round" stroke-linejoin="round"/>
<path d="M9.40109 8.75989C9.5013 8.73782 9.6035 8.72609 9.70609 8.72489M9.28609 8.65989C9.43609 8.61989 9.59609 8.63489 9.69609 8.63489M9.67109 8.95489L9.80109 8.82989M9.53109 8.82989C9.58109 8.81489 9.66109 8.77989 9.73109 8.76989M9.52109 8.38989C9.60109 8.31489 9.69109 8.32489 9.78109 8.27989C9.83109 8.24989 9.88109 8.17989 9.93109 8.12489C9.95609 8.10489 9.97609 8.08489 10.0311 8.08989C10.1011 8.09489 10.1061 8.11489 10.0261 8.12489C9.96609 8.13489 9.96109 8.15989 9.94109 8.20489C9.92109 8.24489 9.94109 8.28989 9.95109 8.31989C9.93303 8.35466 9.91958 8.39164 9.91109 8.42989C9.91109 8.44489 9.91609 8.45989 9.93609 8.48489M9.12109 8.52489C9.32109 8.47989 9.62109 8.55989 9.67609 8.55989" stroke="black" stroke-width="0.015" stroke-linecap="round" stroke-linejoin="round"/>
<path d="M10.3812 8.84984C10.4462 8.81484 10.4462 8.74984 10.5312 8.71984M10.2012 9.17484C10.2862 9.13484 10.3012 9.09984 10.3512 9.06484M10.4112 8.52984C10.3712 8.53984 10.3612 8.50484 10.3262 8.49984C10.2812 8.48984 10.2562 8.51984 10.2562 8.54484C10.2562 8.56984 10.2812 8.59484 10.3062 8.59484C10.3362 8.59484 10.3562 8.57984 10.4112 8.58484M10.2212 8.22484C10.2512 8.22484 10.2862 8.23484 10.3062 8.21484M10.3962 8.37984C10.3862 8.37984 10.3662 8.37984 10.3562 8.36484C10.3462 8.34984 10.3412 8.32984 10.3512 8.32484C10.3562 8.31484 10.3662 8.31984 10.3862 8.33484C10.4062 8.34984 10.4012 8.36984 10.3962 8.37984Z" stroke="black" stroke-width="0.01" stroke-linecap="round" stroke-linejoin="round"/>
<path d="M9.13111 7.53493C9.12901 7.53396 9.12691 7.53198 9.12503 7.52921C9.12316 7.52644 9.1216 7.52301 9.12055 7.51932C9.1195 7.51563 9.11899 7.51184 9.11909 7.5084C9.11919 7.50496 9.11989 7.50202 9.12111 7.49993C9.11903 7.49906 9.11694 7.49716 9.11507 7.49444C9.11321 7.49173 9.11166 7.48832 9.1106 7.48462C9.10955 7.48093 9.10903 7.4771 9.10912 7.47361C9.10921 7.47012 9.1099 7.4671 9.11111 7.46493C9.10905 7.46417 9.10696 7.46235 9.1051 7.45969C9.10324 7.45703 9.10169 7.45364 9.10063 7.44994C9.09957 7.44624 9.09905 7.44237 9.09914 7.43882C9.09922 7.43527 9.09991 7.43218 9.10111 7.42993C9.09922 7.42825 9.09748 7.42573 9.09608 7.42264C9.09467 7.41955 9.09366 7.41601 9.09314 7.4124C9.09263 7.40879 9.09263 7.40525 9.09315 7.40217C9.09368 7.39909 9.0947 7.39658 9.09611 7.39493C9.09406 7.39455 9.09197 7.39301 9.0901 7.39053C9.08822 7.38804 9.08665 7.38471 9.08558 7.38097C9.08451 7.37722 9.08399 7.37322 9.08408 7.36947C9.08418 7.36572 9.08488 7.3624 9.08611 7.35993C9.08428 7.35848 9.08259 7.35616 9.08122 7.35322C9.07985 7.35027 9.07886 7.34682 9.07834 7.34322C9.07783 7.33962 9.07782 7.33601 9.0783 7.33279C9.07879 7.32957 9.07976 7.32685 9.08111 7.32493C9.0798 7.3251 9.07843 7.32475 9.0771 7.32391C9.07576 7.32306 9.07447 7.32174 9.07331 7.32C9.07097 7.3165 9.06928 7.31155 9.06862 7.30624C9.06795 7.30094 9.06837 7.29571 9.06978 7.29172C9.07118 7.28772 9.07346 7.28528 9.07611 7.28493C9.07429 7.28376 9.07261 7.28166 9.07124 7.27886C9.06988 7.27607 9.06888 7.27268 9.06837 7.26906C9.06785 7.26545 9.06783 7.26176 9.06832 7.25838C9.0688 7.25501 9.06977 7.25208 9.07111 7.24993C9.06927 7.24897 9.06757 7.24704 9.06619 7.24435C9.0648 7.24165 9.0638 7.2383 9.06328 7.23466C9.06276 7.23103 9.06275 7.22726 9.06325 7.22377C9.06375 7.22029 9.06474 7.21722 9.06611 7.21493C9.06345 7.21479 9.06091 7.21255 9.05903 7.2087C9.05715 7.20485 9.0561 7.19971 9.0561 7.1944C9.0561 7.1891 9.05715 7.18407 9.05903 7.18042C9.06091 7.17676 9.06345 7.17479 9.06611 7.17493C9.06418 7.1745 9.06237 7.17296 9.0609 7.17049C9.05943 7.16801 9.05836 7.16472 9.05783 7.161C9.0573 7.15729 9.05733 7.15331 9.05791 7.14957C9.05849 7.14583 9.0596 7.14248 9.06111 7.13993C9.05978 7.1402 9.05846 7.13996 9.05723 7.1392C9.056 7.13845 9.05488 7.13721 9.05393 7.13555C9.05203 7.13219 9.05096 7.12732 9.05096 7.12202C9.05096 7.11671 9.05203 7.1114 9.05393 7.10726C9.05584 7.10312 9.05842 7.10048 9.06111 7.09993C9.05837 7.10075 9.05574 7.09944 9.05381 7.09627C9.05187 7.09311 9.05078 7.08835 9.05078 7.08305C9.05078 7.07774 9.05187 7.07233 9.05381 7.06799C9.05574 7.06366 9.05837 7.06075 9.06111 7.05993C9.05975 7.05809 9.05876 7.05544 9.05827 7.05227C9.05777 7.04909 9.05778 7.04551 9.0583 7.04191C9.05881 7.03831 9.05981 7.03483 9.06119 7.03184C9.06256 7.02884 9.06427 7.02645 9.06611 7.02493C9.06352 7.02398 9.06156 7.02096 9.06066 7.01654C9.05977 7.01212 9.06001 7.00666 9.06134 7.00135C9.06266 6.99605 9.06497 6.99134 9.06774 6.98826C9.07051 6.98518 9.07352 6.98398 9.07611 6.98493C9.07453 6.98369 9.07335 6.9815 9.07273 6.97861C9.0721 6.97571 9.07205 6.97223 9.07257 6.96857C9.07309 6.96491 9.07417 6.96122 9.07568 6.95792C9.07719 6.95462 9.07908 6.95185 9.08111 6.94993C9.07823 6.94994 9.07599 6.94784 9.07489 6.94409C9.07379 6.94035 9.07391 6.93526 9.07524 6.92996C9.07656 6.92465 9.07898 6.91956 9.08196 6.91581C9.08493 6.91205 9.08823 6.90994 9.09111 6.90993C9.08978 6.90792 9.08917 6.90488 9.08938 6.90123C9.08958 6.89758 9.09059 6.89352 9.09226 6.88963C9.09393 6.88574 9.09617 6.88222 9.09866 6.87957C9.10114 6.87693 9.10375 6.87531 9.10611 6.87493C9.10452 6.87336 9.1037 6.87066 9.10376 6.86723C9.10382 6.8638 9.10476 6.85982 9.10645 6.85589C9.10813 6.85196 9.11047 6.84828 9.11311 6.84541C9.11575 6.84253 9.11856 6.84061 9.12111 6.83993C9.11902 6.83897 9.11775 6.83668 9.11754 6.83343C9.11732 6.83019 9.11816 6.82618 9.11992 6.82208C9.12167 6.81799 9.12424 6.81405 9.12718 6.81092C9.13013 6.8078 9.13328 6.80569 9.13611 6.80493C9.13383 6.8032 9.13297 6.79971 9.13371 6.79521C9.13444 6.79071 9.13672 6.78557 9.14003 6.78093C9.14335 6.77629 9.14743 6.77252 9.15138 6.77046C9.15534 6.7684 9.15883 6.7682 9.16111 6.76993C9.15836 6.76878 9.15704 6.76584 9.15744 6.76174C9.15784 6.75765 9.15993 6.75274 9.16325 6.7481C9.16656 6.74346 9.17083 6.73946 9.17512 6.73699C9.17941 6.73452 9.18336 6.73378 9.18611 6.73493C9.18433 6.73333 9.18381 6.73056 9.18463 6.72712C9.18545 6.72368 9.18756 6.7198 9.19057 6.71618C9.19359 6.71256 9.19732 6.70943 9.20109 6.70737C9.20486 6.7053 9.20841 6.70444 9.21111 6.70493C9.20778 6.70382 9.20616 6.70091 9.20662 6.69684C9.20708 6.69277 9.20957 6.68788 9.21355 6.68324C9.21753 6.6786 9.22266 6.67459 9.22783 6.67209C9.233 6.6696 9.23778 6.66882 9.24111 6.66993" fill="white"/>
<path d="M9.13111 7.53493C9.12901 7.53396 9.12691 7.53198 9.12503 7.52921C9.12316 7.52644 9.1216 7.52301 9.12055 7.51932C9.1195 7.51563 9.11899 7.51184 9.11909 7.5084C9.11919 7.50496 9.11989 7.50202 9.12111 7.49993C9.11903 7.49906 9.11694 7.49716 9.11507 7.49444C9.11321 7.49173 9.11166 7.48832 9.1106 7.48462C9.10955 7.48093 9.10903 7.4771 9.10912 7.47361C9.10921 7.47012 9.1099 7.4671 9.11111 7.46493C9.10905 7.46417 9.10696 7.46235 9.1051 7.45969C9.10324 7.45703 9.10169 7.45364 9.10063 7.44994C9.09957 7.44624 9.09905 7.44237 9.09914 7.43882C9.09922 7.43527 9.09991 7.43218 9.10111 7.42993C9.09922 7.42825 9.09748 7.42573 9.09608 7.42264C9.09467 7.41955 9.09366 7.41601 9.09314 7.4124C9.09263 7.40879 9.09263 7.40525 9.09315 7.40217C9.09368 7.39909 9.0947 7.39658 9.09611 7.39493C9.09406 7.39455 9.09197 7.39301 9.0901 7.39053C9.08822 7.38804 9.08665 7.38471 9.08558 7.38097C9.08451 7.37722 9.08399 7.37322 9.08408 7.36947C9.08418 7.36572 9.08488 7.3624 9.08611 7.35993C9.08428 7.35848 9.08259 7.35616 9.08122 7.35322C9.07985 7.35027 9.07886 7.34682 9.07834 7.34322C9.07783 7.33962 9.07782 7.33601 9.0783 7.33279C9.07879 7.32957 9.07976 7.32685 9.08111 7.32493C9.0798 7.3251 9.07843 7.32475 9.0771 7.32391C9.07576 7.32306 9.07447 7.32174 9.07331 7.32C9.07097 7.3165 9.06928 7.31155 9.06862 7.30624C9.06795 7.30094 9.06837 7.29571 9.06978 7.29172C9.07118 7.28772 9.07346 7.28528 9.07611 7.28493C9.07429 7.28376 9.07261 7.28166 9.07124 7.27886C9.06988 7.27607 9.06888 7.27268 9.06837 7.26906C9.06785 7.26545 9.06783 7.26176 9.06832 7.25838C9.0688 7.25501 9.06977 7.25208 9.07111 7.24993C9.06927 7.24897 9.06757 7.24704 9.06619 7.24435C9.0648 7.24165 9.0638 7.2383 9.06328 7.23466C9.06276 7.23103 9.06275 7.22726 9.06325 7.22377C9.06375 7.22029 9.06474 7.21722 9.06611 7.21493C9.06345 7.21479 9.06091 7.21255 9.05903 7.2087C9.05715 7.20485 9.0561 7.19971 9.0561 7.1944C9.0561 7.1891 9.05715 7.18407 9.05903 7.18042C9.06091 7.17676 9.06345 7.17479 9.06611 7.17493C9.06418 7.1745 9.06237 7.17296 9.0609 7.17049C9.05943 7.16801 9.05836 7.16472 9.05783 7.161C9.0573 7.15729 9.05733 7.15331 9.05791 7.14957C9.05849 7.14583 9.0596 7.14248 9.06111 7.13993C9.05978 7.1402 9.05846 7.13996 9.05723 7.1392C9.056 7.13845 9.05488 7.13721 9.05393 7.13555C9.05203 7.13219 9.05096 7.12732 9.05096 7.12202C9.05096 7.11671 9.05203 7.1114 9.05393 7.10726C9.05584 7.10312 9.05842 7.10048 9.06111 7.09993C9.05837 7.10075 9.05574 7.09944 9.05381 7.09627C9.05187 7.09311 9.05078 7.08835 9.05078 7.08305C9.05078 7.07774 9.05187 7.07233 9.05381 7.06799C9.05574 7.06366 9.05837 7.06075 9.06111 7.05993C9.05975 7.05809 9.05876 7.05544 9.05827 7.05227C9.05777 7.04909 9.05778 7.04551 9.0583 7.04191C9.05881 7.03831 9.05981 7.03483 9.06119 7.03184C9.06256 7.02884 9.06427 7.02645 9.06611 7.02493C9.06352 7.02398 9.06156 7.02096 9.06066 7.01654C9.05977 7.01212 9.06001 7.00666 9.06134 7.00135C9.06266 6.99605 9.06497 6.99134 9.06774 6.98826C9.07051 6.98518 9.07352 6.98398 9.07611 6.98493C9.07453 6.98369 9.07335 6.9815 9.07273 6.97861C9.0721 6.97571 9.07205 6.97223 9.07257 6.96857C9.07309 6.96491 9.07417 6.96122 9.07568 6.95792C9.07719 6.95462 9.07908 6.95185 9.08111 6.94993C9.07823 6.94994 9.07599 6.94784 9.07489 6.94409C9.07379 6.94035 9.07391 6.93526 9.07524 6.92996C9.07656 6.92465 9.07898 6.91956 9.08196 6.91581C9.08493 6.91205 9.08823 6.90994 9.09111 6.90993C9.08978 6.90792 9.08917 6.90488 9.08938 6.90123C9.08958 6.89758 9.09059 6.89352 9.09226 6.88963C9.09393 6.88574 9.09617 6.88222 9.09866 6.87957C9.10114 6.87693 9.10375 6.87531 9.10611 6.87493C9.10452 6.87336 9.1037 6.87066 9.10376 6.86723C9.10382 6.8638 9.10476 6.85982 9.10645 6.85589C9.10813 6.85196 9.11047 6.84828 9.11311 6.84541C9.11575 6.84253 9.11856 6.84061 9.12111 6.83993C9.11902 6.83897 9.11775 6.83668 9.11754 6.83343C9.11732 6.83019 9.11816 6.82618 9.11992 6.82208C9.12167 6.81799 9.12424 6.81405 9.12718 6.81092C9.13013 6.8078 9.13328 6.80569 9.13611 6.80493C9.13383 6.8032 9.13297 6.79971 9.13371 6.79521C9.13444 6.79071 9.13672 6.78557 9.14003 6.78093C9.14335 6.77629 9.14743 6.77252 9.15138 6.77046C9.15534 6.7684 9.15883 6.7682 9.16111 6.76993C9.15836 6.76878 9.15704 6.76584 9.15744 6.76174C9.15784 6.75765 9.15993 6.75274 9.16325 6.7481C9.16656 6.74346 9.17083 6.73946 9.17512 6.73699C9.17941 6.73452 9.18336 6.73378 9.18611 6.73493C9.18433 6.73333 9.18381 6.73056 9.18463 6.72712C9.18545 6.72368 9.18756 6.7198 9.19057 6.71618C9.19359 6.71256 9.19732 6.70943 9.20109 6.70737C9.20486 6.7053 9.20841 6.70444 9.21111 6.70493C9.20778 6.70382 9.20616 6.70091 9.20662 6.69684C9.20708 6.69277 9.20957 6.68788 9.21355 6.68324C9.21753 6.6786 9.22266 6.67459 9.22783 6.67209C9.233 6.6696 9.23778 6.66882 9.24111 6.66993" stroke="black" stroke-width="0.005" stroke-linecap="round" stroke-linejoin="round"/>
<path d="M9.17555 7.51992L9.13055 7.53492M9.16555 7.48492L9.12055 7.49992M9.16055 7.44992L9.11055 7.46492M9.15555 7.41492L9.10555 7.42992M9.15055 7.38492L9.09555 7.39492M9.14555 7.34492L9.08555 7.35992M9.13555 7.30992L9.08055 7.32492M9.13555 7.27492L9.07555 7.28492M9.13555 7.24492H9.06555M9.13555 7.20992H9.06555M9.13555 7.17492H9.06055M9.13555 7.13992H9.06055M9.14055 7.10492L9.06055 7.09992M9.14555 7.06992L9.06555 7.05992M9.15055 7.03992L9.06555 7.02492M9.16055 7.00492L9.07555 6.98492M9.17055 6.97492L9.08055 6.94992M9.18055 6.93992L9.09055 6.90992M9.19055 6.90992L9.10555 6.87492M9.20555 6.88492L9.12055 6.83492M9.22555 6.85492L9.13555 6.80492M9.24555 6.82992L9.16055 6.76992M9.26555 6.80492L9.18555 6.73492M9.29055 6.78492L9.21055 6.70492M9.31555 6.75492L9.24055 6.66992" stroke="black" stroke-width="0.005" stroke-linecap="round" stroke-linejoin="round"/>
<path d="M9.6464 7.03486L9.5214 7.04986C9.5114 7.07486 9.5114 7.14486 9.5114 7.16986C9.6264 7.28486 9.7414 7.42986 9.7514 7.56486C9.7864 7.59486 9.8114 7.62486 9.8314 7.67986C9.9164 7.63486 10.0014 7.56486 10.0714 7.54486C10.1214 7.53486 10.2014 7.52986 10.2464 7.55486L10.5264 7.72486C10.5864 7.76486 10.6264 7.80986 10.6564 7.85486C10.6814 7.89486 10.6864 7.96986 10.6764 7.98986L10.5064 7.93986C10.4964 7.91486 10.5064 7.87986 10.5214 7.85486C10.5314 7.82486 10.5314 7.82486 10.5064 7.80486C10.4914 7.79486 10.4664 7.79486 10.4564 7.80486C10.4364 7.80486 10.4064 7.79486 10.3964 7.77486C10.3814 7.74986 10.2014 7.67486 10.1714 7.66486C10.1414 7.66486 10.0964 7.66486 10.0614 7.69486C10.0414 7.72486 9.9814 7.81486 9.9364 7.85986C9.9264 7.86986 9.9214 7.88486 9.9314 7.89986L10.1114 7.90486C10.1814 7.91486 10.2614 7.98486 10.3014 8.02986C10.4764 8.18986 10.5414 8.27986 10.5964 8.32986C10.6214 8.35486 10.6464 8.37986 10.6464 8.41986H10.4764C10.4764 8.35486 10.4664 8.31486 10.4564 8.27986C10.4364 8.25486 10.4014 8.26486 10.3864 8.26486C10.3714 8.26486 10.3514 8.23986 10.3364 8.21486C10.3114 8.16486 10.2214 8.09986 10.1814 8.07486C10.1414 8.04986 10.1264 8.05986 10.0814 8.05486C10.0564 8.04986 10.0014 8.03986 9.9564 8.05486C9.9114 8.06986 9.7864 8.10986 9.6714 8.12486C9.6314 8.14486 9.5064 8.16486 9.3714 8.19486C9.2714 8.21486 9.0464 8.25486 9.0014 8.25486C8.9864 8.35986 8.8714 8.51486 8.8414 8.52986C8.8064 8.57486 8.8064 8.61486 8.8314 8.62986C8.8564 8.65486 9.0264 8.65486 9.0664 8.65486L9.2114 8.65986C9.2364 8.66486 9.2764 8.69986 9.3214 8.72486C9.3514 8.73986 9.3564 8.75986 9.3764 8.78986C9.3914 8.80986 9.4114 8.82986 9.4164 8.84986H9.2164C9.2164 8.79986 9.1914 8.76486 9.1664 8.76486C9.1364 8.78486 9.1014 8.80986 9.0614 8.79486C8.9064 8.78486 8.8064 8.79486 8.6614 8.77986C8.6164 8.77986 8.5814 8.71986 8.5964 8.66486C8.6114 8.61486 8.6064 8.57486 8.5964 8.53486C8.5814 8.54986 8.5214 8.60486 8.4914 8.64486C8.4414 8.69986 8.4714 8.75986 8.4914 8.79486C8.5164 8.81986 8.6864 8.97986 8.7064 9.02486C8.7214 9.05486 8.7914 9.10486 8.8564 9.15986C8.8764 9.20986 8.9164 9.23486 8.9464 9.26486H8.6964L8.7064 9.19986C8.7064 9.18486 8.6914 9.15486 8.6564 9.15986C8.6264 9.15986 8.5964 9.12486 8.5864 9.09486C8.5764 9.05986 8.4614 8.91486 8.4264 8.88486L8.2764 8.73986C8.2564 8.73486 8.2514 8.69986 8.2764 8.67486C8.2964 8.65486 8.3564 8.55486 8.3764 8.48486C8.3914 8.43986 8.3764 8.43486 8.3664 8.42486C8.25676 8.34446 8.16485 8.24234 8.0964 8.12486C8.0297 8.13948 7.96018 8.13427 7.8964 8.10986C7.8464 8.08486 7.7864 8.07986 7.7514 8.12986C7.7314 8.16486 7.7314 8.21986 7.7664 8.24486C7.8164 8.28486 7.8714 8.34486 7.9314 8.41486C7.9814 8.47986 7.9364 8.52986 7.8664 8.58986C7.8764 8.61486 7.8664 8.60986 7.8764 8.65486C7.9014 8.68986 7.9014 8.77486 7.8714 8.78986C7.8414 8.80986 7.8014 8.82986 7.7714 8.86986C7.7314 8.91486 7.7214 8.86986 7.7314 8.79986C7.7414 8.75486 7.7064 8.71986 7.6764 8.68486C7.6464 8.65486 7.6614 8.55486 7.6764 8.52486C7.7014 8.49486 7.7164 8.43986 7.6764 8.39486C7.6314 8.35486 7.5514 8.26486 7.5614 8.14486C7.56322 8.11486 7.57213 8.08572 7.5874 8.05983C7.60267 8.03394 7.62387 8.01204 7.64925 7.99594C7.67463 7.97983 7.70346 7.96998 7.73339 7.96718C7.76332 7.96439 7.79348 7.96873 7.8214 7.97986C7.9714 8.04486 8.0564 8.02986 8.1014 8.01986C8.1414 7.94986 8.2014 7.87986 8.2914 7.82986C8.3764 7.77986 8.5414 7.71486 8.7064 7.68986L9.1114 7.53986C9.1664 7.52986 9.1614 7.47986 9.1614 7.44986C9.1114 7.17486 9.1214 6.88486 9.3464 6.73986C9.3714 6.71486 9.3614 6.65486 9.3964 6.60986L9.4614 6.71986C9.5614 6.75486 9.7314 6.81486 9.8014 6.84986C9.8314 6.86486 9.8664 6.86486 9.8864 6.87486C9.9064 6.88486 9.9214 6.89986 9.9364 6.92486C9.9514 6.95486 9.9364 6.98986 9.9164 6.99986C9.9014 7.00486 9.8214 6.97986 9.8014 6.99986C9.8014 7.01486 9.8264 7.03486 9.8714 7.04986C9.8864 7.05986 9.8564 7.09986 9.8364 7.09986C9.8214 7.09986 9.8014 7.09986 9.7914 7.08486C9.7414 7.07486 9.6914 7.05486 9.6414 7.03486" fill="white"/>
<path d="M9.6464 7.03486L9.5214 7.04986C9.5114 7.07486 9.5114 7.14486 9.5114 7.16986C9.6264 7.28486 9.7414 7.42986 9.7514 7.56486C9.7864 7.59486 9.8114 7.62486 9.8314 7.67986C9.9164 7.63486 10.0014 7.56486 10.0714 7.54486C10.1214 7.53486 10.2014 7.52986 10.2464 7.55486L10.5264 7.72486C10.5864 7.76486 10.6264 7.80986 10.6564 7.85486C10.6814 7.89486 10.6864 7.96986 10.6764 7.98986L10.5064 7.93986C10.4964 7.91486 10.5064 7.87986 10.5214 7.85486C10.5314 7.82486 10.5314 7.82486 10.5064 7.80486C10.4914 7.79486 10.4664 7.79486 10.4564 7.80486C10.4364 7.80486 10.4064 7.79486 10.3964 7.77486C10.3814 7.74986 10.2014 7.67486 10.1714 7.66486C10.1414 7.66486 10.0964 7.66486 10.0614 7.69486C10.0414 7.72486 9.9814 7.81486 9.9364 7.85986C9.9264 7.86986 9.9214 7.88486 9.9314 7.89986L10.1114 7.90486C10.1814 7.91486 10.2614 7.98486 10.3014 8.02986C10.4764 8.18986 10.5414 8.27986 10.5964 8.32986C10.6214 8.35486 10.6464 8.37986 10.6464 8.41986H10.4764C10.4764 8.35486 10.4664 8.31486 10.4564 8.27986C10.4364 8.25486 10.4014 8.26486 10.3864 8.26486C10.3714 8.26486 10.3514 8.23986 10.3364 8.21486C10.3114 8.16486 10.2214 8.09986 10.1814 8.07486C10.1414 8.04986 10.1264 8.05986 10.0814 8.05486C10.0564 8.04986 10.0014 8.03986 9.9564 8.05486C9.9114 8.06986 9.7864 8.10986 9.6714 8.12486C9.6314 8.14486 9.5064 8.16486 9.3714 8.19486C9.2714 8.21486 9.0464 8.25486 9.0014 8.25486C8.9864 8.35986 8.8714 8.51486 8.8414 8.52986C8.8064 8.57486 8.8064 8.61486 8.8314 8.62986C8.8564 8.65486 9.0264 8.65486 9.0664 8.65486L9.2114 8.65986C9.2364 8.66486 9.2764 8.69986 9.3214 8.72486C9.3514 8.73986 9.3564 8.75986 9.3764 8.78986C9.3914 8.80986 9.4114 8.82986 9.4164 8.84986H9.2164C9.2164 8.79986 9.1914 8.76486 9.1664 8.76486C9.1364 8.78486 9.1014 8.80986 9.0614 8.79486C8.9064 8.78486 8.8064 8.79486 8.6614 8.77986C8.6164 8.77986 8.5814 8.71986 8.5964 8.66486C8.6114 8.61486 8.6064 8.57486 8.5964 8.53486C8.5814 8.54986 8.5214 8.60486 8.4914 8.64486C8.4414 8.69986 8.4714 8.75986 8.4914 8.79486C8.5164 8.81986 8.6864 8.97986 8.7064 9.02486C8.7214 9.05486 8.7914 9.10486 8.8564 9.15986C8.8764 9.20986 8.9164 9.23486 8.9464 9.26486H8.6964L8.7064 9.19986C8.7064 9.18486 8.6914 9.15486 8.6564 9.15986C8.6264 9.15986 8.5964 9.12486 8.5864 9.09486C8.5764 9.05986 8.4614 8.91486 8.4264 8.88486L8.2764 8.73986C8.2564 8.73486 8.2514 8.69986 8.2764 8.67486C8.2964 8.65486 8.3564 8.55486 8.3764 8.48486C8.3914 8.43986 8.3764 8.43486 8.3664 8.42486C8.25676 8.34446 8.16485 8.24234 8.0964 8.12486C8.0297 8.13948 7.96018 8.13427 7.8964 8.10986C7.8464 8.08486 7.7864 8.07986 7.7514 8.12986C7.7314 8.16486 7.7314 8.21986 7.7664 8.24486C7.8164 8.28486 7.8714 8.34486 7.9314 8.41486C7.9814 8.47986 7.9364 8.52986 7.8664 8.58986C7.8764 8.61486 7.8664 8.60986 7.8764 8.65486C7.9014 8.68986 7.9014 8.77486 7.8714 8.78986C7.8414 8.80986 7.8014 8.82986 7.7714 8.86986C7.7314 8.91486 7.7214 8.86986 7.7314 8.79986C7.7414 8.75486 7.7064 8.71986 7.6764 8.68486C7.6464 8.65486 7.6614 8.55486 7.6764 8.52486C7.7014 8.49486 7.7164 8.43986 7.6764 8.39486C7.6314 8.35486 7.5514 8.26486 7.5614 8.14486C7.56322 8.11486 7.57213 8.08572 7.5874 8.05983C7.60267 8.03394 7.62387 8.01204 7.64925 7.99594C7.67463 7.97983 7.70346 7.96998 7.73339 7.96718C7.76332 7.96439 7.79348 7.96873 7.8214 7.97986C7.9714 8.04486 8.0564 8.02986 8.1014 8.01986C8.1414 7.94986 8.2014 7.87986 8.2914 7.82986C8.3764 7.77986 8.5414 7.71486 8.7064 7.68986L9.1114 7.53986C9.1664 7.52986 9.1614 7.47986 9.1614 7.44986C9.1114 7.17486 9.1214 6.88486 9.3464 6.73986C9.3714 6.71486 9.3614 6.65486 9.3964 6.60986L9.4614 6.71986C9.5614 6.75486 9.7314 6.81486 9.8014 6.84986C9.8314 6.86486 9.8664 6.86486 9.8864 6.87486C9.9064 6.88486 9.9214 6.89986 9.9364 6.92486C9.9514 6.95486 9.9364 6.98986 9.9164 6.99986C9.9014 7.00486 9.8214 6.97986 9.8014 6.99986C9.8014 7.01486 9.8264 7.03486 9.8714 7.04986C9.8864 7.05986 9.8564 7.09986 9.8364 7.09986C9.8214 7.09986 9.8014 7.09986 9.7914 7.08486C9.7414 7.07486 9.6914 7.05486 9.6414 7.03486" stroke="black" stroke-width="0.025" stroke-linecap="round" stroke-linejoin="round"/>
<path d="M9.3607 6.85498C9.3607 7.02498 9.4157 7.10998 9.5107 7.16998M9.8307 7.67998C9.8449 7.74589 9.8449 7.81407 9.8307 7.87998M8.5957 8.52998C8.7207 8.47498 8.8357 8.32998 8.8307 8.23998C8.8307 8.18998 8.7857 8.11498 8.6757 8.10998M8.8257 8.23998C8.8657 8.25498 8.9407 8.24498 9.0007 8.25498M9.6307 7.83998C9.7307 7.84498 9.8607 7.90498 9.9307 7.89998M9.5807 8.03998C9.6707 8.05998 9.6707 8.09998 9.8457 8.08998M9.5457 7.47998C9.6407 7.47998 9.6957 7.52998 9.7457 7.56498" stroke="black" stroke-width="0.025" stroke-linecap="round" stroke-linejoin="round"/>
<path d="M8.81055 8.31998C8.88055 8.31998 8.93055 8.30998 8.96055 8.24998M9.36055 6.85498C9.36055 6.99498 9.41055 7.02998 9.52055 7.04998" stroke="black" stroke-width="0.015" stroke-linecap="round" stroke-linejoin="round"/>
<path d="M9.89617 6.87991C9.89117 6.91491 9.88617 6.94491 9.94617 6.93991M9.64117 6.78491C9.59617 6.89491 9.82117 6.90991 9.82617 6.98491M8.57617 7.71991C8.68617 7.76991 8.67617 7.98491 8.67617 8.10991" stroke="black" stroke-width="0.01" stroke-linecap="round" stroke-linejoin="round"/>
<path d="M9.77615 6.98505C9.74115 7.05505 9.66115 7.16005 9.58615 7.21505C9.46615 7.30005 9.33615 7.36505 9.18115 7.40005C9.15615 7.40505 9.13115 7.41505 9.10115 7.40505C9.07115 7.40505 9.03615 7.38005 9.01615 7.33505C9.00615 7.31505 9.01115 7.20505 9.05115 7.19005C9.08937 7.17526 9.13021 7.16845 9.17115 7.17005C9.19615 7.17005 9.22115 7.18005 9.22115 7.21005C9.22115 7.23505 9.19615 7.25005 9.17115 7.24505C9.14115 7.23505 9.09615 7.21505 9.07115 7.23505C9.05115 7.24505 9.03615 7.29505 9.05115 7.32005C9.07115 7.35505 9.08615 7.36505 9.10615 7.37005L9.17115 7.36505C9.32115 7.32505 9.44615 7.26505 9.56115 7.18505C9.63615 7.13505 9.71115 7.01505 9.74115 6.96505L9.77615 6.98505ZM9.17615 7.20005C9.13115 7.19005 9.05615 7.20005 9.05115 7.22005C9.08615 7.20005 9.12615 7.20505 9.17615 7.22005C9.19115 7.22005 9.19615 7.20505 9.17615 7.20005ZM9.47615 6.82505L9.49115 6.79005C9.49615 6.78505 9.48115 6.70505 9.56115 6.74505C9.64615 6.79505 9.58115 6.83005 9.57615 6.83505L9.55615 6.87005" fill="white"/>
<path d="M9.47615 6.82505L9.49115 6.79005C9.49615 6.78505 9.48115 6.70505 9.56115 6.74505C9.64615 6.79505 9.58115 6.83005 9.57615 6.83505L9.55615 6.87005M9.77615 6.98505C9.74115 7.05505 9.66115 7.16005 9.58615 7.21505C9.46615 7.30005 9.33615 7.36505 9.18115 7.40005C9.15615 7.40505 9.13115 7.41505 9.10115 7.40505C9.07115 7.40505 9.03615 7.38005 9.01615 7.33505C9.00615 7.31505 9.01115 7.20505 9.05115 7.19005C9.08937 7.17526 9.13021 7.16845 9.17115 7.17005C9.19615 7.17005 9.22115 7.18005 9.22115 7.21005C9.22115 7.23505 9.19615 7.25005 9.17115 7.24505C9.14115 7.23505 9.09615 7.21505 9.07115 7.23505C9.05115 7.24505 9.03615 7.29505 9.05115 7.32005C9.07115 7.35505 9.08615 7.36505 9.10615 7.37005L9.17115 7.36505C9.32115 7.32505 9.44615 7.26505 9.56115 7.18505C9.63615 7.13505 9.71115 7.01505 9.74115 6.96505L9.77615 6.98505ZM9.17615 7.20005C9.13115 7.19005 9.05615 7.20005 9.05115 7.22005C9.08615 7.20005 9.12615 7.20505 9.17615 7.22005C9.19115 7.22005 9.19615 7.20505 9.17615 7.20005Z" stroke="black" stroke-width="0.01" stroke-linecap="round" stroke-linejoin="round"/>
<path d="M9.33105 6.75L9.80605 7" stroke="black" stroke-width="0.02" stroke-linecap="round" stroke-linejoin="round"/>
<path d="M8.72678 6.76998C8.64678 6.77998 8.49178 6.75998 8.40678 6.74498C8.36678 6.73998 8.25178 6.90498 8.19178 6.91498C8.13178 6.92998 8.07178 6.79498 7.98678 6.82498C7.94178 6.85998 7.98678 7.02498 7.96178 7.03998C7.93678 7.06498 7.86178 6.95998 7.81178 6.98998C7.76178 7.02998 7.85178 7.24498 7.82678 7.26998C7.80678 7.29498 7.69678 7.17498 7.66178 7.19998C7.62678 7.21998 7.69678 7.55998 7.66178 7.57498C7.63178 7.59498 7.47678 7.48498 7.46178 7.52999C7.43678 7.57999 7.67678 7.68498 7.74178 7.68998L7.80678 7.66498C7.82678 7.67498 8.01678 7.68998 8.03678 7.68998L8.14178 7.57999C8.30678 7.36499 8.49178 7.16499 8.72678 7.17999V6.76998Z" fill="white" stroke="black" stroke-width="0.015" stroke-linecap="round" stroke-linejoin="round"/>
<path d="M8.00203 6.82506L8.31703 6.81006M7.81203 6.99006L7.96203 6.94006M7.66203 7.19006L7.80703 7.13006M7.45703 7.53006L7.65703 7.35006M7.80703 7.66006C7.89203 7.51006 8.05703 7.35006 8.20203 7.26506M7.66703 7.57506C7.78703 7.43006 8.12203 7.19506 8.23203 7.17506M7.96203 7.04006C8.10203 6.98006 8.30203 6.97006 8.46203 6.95506M8.18703 6.91506C8.20703 6.91506 8.44703 6.88506 8.55203 6.89006M7.82703 7.27506C8.01203 7.16506 8.19703 7.07506 8.40203 7.01006" stroke="black" stroke-width="0.015" stroke-linecap="round" stroke-linejoin="round"/>
<path d="M9.40566 9.55982C9.42066 9.56482 9.43566 9.59982 9.43566 9.59982C9.43566 9.59982 9.40566 9.61482 9.39566 9.60982L7.92066 9.16982C7.88066 9.15982 7.89566 9.08982 7.94066 9.10482L9.40566 9.55982ZM8.00566 7.50982C7.99566 7.47482 7.96566 7.44982 7.94566 7.44482C7.93566 7.44482 7.90066 7.47982 7.90566 7.48982C7.90566 7.50982 7.95066 7.53982 7.96566 7.53982L8.00566 7.50982ZM8.14066 7.55982L8.01566 7.68482C8.00066 7.69982 8.03066 7.72482 8.04566 7.70982L8.17066 7.58982C8.18566 7.57482 8.15566 7.54482 8.14066 7.55982ZM8.08066 7.67982L8.46566 8.07482L8.54066 8.08482L8.53066 8.00482L8.13066 7.62482L8.08066 7.67982Z" fill="white" stroke="black" stroke-width="0.02" stroke-linecap="round" stroke-linejoin="round"/>
<path d="M8.48547 8.0299L8.10547 7.6499" stroke="black" stroke-width="0.005" stroke-linecap="round" stroke-linejoin="round"/>
<path d="M8.99568 6.92995C8.99568 6.90495 9.00568 6.89495 9.02068 6.87995C9.04568 6.86495 9.03568 6.87495 9.05068 6.87995L9.09068 6.90495C9.10068 6.91495 9.10568 6.90995 9.11068 6.90495C9.11568 6.89495 9.11568 6.87495 9.12568 6.86495C9.12833 6.86495 9.13088 6.8639 9.13275 6.86202C9.13463 6.86015 9.13568 6.8576 9.13568 6.85495C9.14568 6.85495 9.14568 6.84995 9.14568 6.83995C9.14568 6.83495 9.15068 6.81995 9.16068 6.81995C9.17068 6.81995 9.19068 6.83495 9.19068 6.81995L9.20568 6.73995C9.23568 6.74495 9.22568 6.70995 9.23568 6.70995C9.26568 6.71995 9.28068 6.66995 9.26068 6.64995C9.26068 6.60995 9.29568 6.59995 9.34568 6.59995C9.34068 6.57495 9.30068 6.56495 9.27568 6.52995C9.25068 6.49495 9.17568 6.44995 9.08568 6.44995C9.00068 6.44995 8.93068 6.52995 8.89568 6.56495C8.86568 6.59995 8.79568 6.61495 8.78068 6.61495C8.76068 6.60995 8.75068 6.59495 8.73068 6.59495H8.64568C8.61568 6.59495 8.60568 6.61495 8.57068 6.60995C8.55068 6.60995 8.47068 6.60995 8.44568 6.61995C8.42568 6.62995 8.44568 6.67995 8.47068 6.68495C8.48068 6.68495 8.54568 6.68495 8.57068 6.69995C8.59568 6.71495 8.67068 6.71995 8.70068 6.70495C8.76568 6.68495 8.80568 6.72495 8.87568 6.74495L8.90068 6.74995C8.90068 6.78995 8.90068 6.80495 8.88068 6.80495H8.82068L8.75568 6.77495C8.72568 6.76995 8.70568 6.77995 8.69568 6.78495C8.61068 6.81995 8.31068 7.05495 8.28068 7.10995C8.24568 7.16995 8.19568 7.20495 8.15068 7.29495C8.12568 7.34495 8.07568 7.40495 8.04568 7.48495C7.99568 7.50995 7.94068 7.55495 7.93068 7.56995C7.92568 7.57995 7.94068 7.59995 7.95068 7.59995C7.95068 7.60495 7.96568 7.62495 7.98068 7.62495C7.97068 7.63495 7.99068 7.64995 8.00068 7.64495C8.00068 7.65495 8.01068 7.67995 8.02568 7.67995L8.14568 7.55495C8.14568 7.50495 8.17568 7.44495 8.19568 7.41495C8.26068 7.33995 8.34568 7.20495 8.36568 7.16995C8.38068 7.14995 8.52568 7.09495 8.56568 7.05995C8.55068 7.15995 8.55568 7.22995 8.56568 7.28995C8.59068 7.38995 8.62068 7.45495 8.64068 7.53995C8.66068 7.62495 8.64068 7.67495 8.64068 7.71495C8.64568 7.74495 8.65568 7.74995 8.69068 7.76495C8.71568 7.78495 8.83568 7.76495 8.87068 7.77995C8.94068 7.79995 9.00068 7.80495 9.02568 7.80995C9.08572 7.7982 9.14798 7.80888 9.20068 7.83995C9.23068 7.86495 9.28568 7.98995 9.30568 8.03995C9.32568 8.08495 9.43568 8.14495 9.45568 8.17495C9.48068 8.19995 9.50068 8.27495 9.49568 8.30995C9.49568 8.33995 9.49568 8.35495 9.53068 8.34995C9.55568 8.34995 9.65568 8.36495 9.67068 8.37495C9.69068 8.38495 9.73068 8.41995 9.74568 8.41995C9.76068 8.41995 9.83068 8.42995 9.86568 8.42495C9.90068 8.41995 9.89568 8.36995 9.88068 8.36495C9.84713 8.35942 9.81378 8.35275 9.78068 8.34495C9.7288 8.31983 9.6828 8.28405 9.64568 8.23995C9.61568 8.20495 9.60068 8.15495 9.58068 8.11495C9.53258 8.03756 9.48085 7.96247 9.42568 7.88995C9.41568 7.87495 9.35568 7.73995 9.34568 7.69995C9.33068 7.66495 9.30568 7.66495 9.28068 7.65495C9.19068 7.62995 9.15568 7.61995 9.06068 7.60495C8.99568 7.58995 8.98068 7.58495 8.97068 7.53495C8.97068 7.49495 8.94068 7.42495 8.95568 7.37495L8.97568 7.28495C8.97568 7.25995 8.99568 7.21995 8.99568 7.19995L9.00568 7.04995L8.99568 6.92995ZM9.06568 7.33995C9.05568 7.33995 9.01568 7.34995 8.99068 7.33995C8.98568 7.33995 8.99068 7.31995 8.99068 7.31995C8.99068 7.31995 8.98068 7.30495 8.99068 7.29995C8.99068 7.29995 8.98068 7.27995 8.99068 7.27995C8.98068 7.26995 8.98068 7.25995 8.99068 7.25495C8.99568 7.24995 9.04068 7.24495 9.06068 7.24995C9.07568 7.27495 9.07068 7.31495 9.06568 7.33995Z" fill="white" stroke="black" stroke-width="0.025" stroke-linecap="round" stroke-linejoin="round"/>
<path d="M8.90055 6.7549C8.92055 6.7699 8.92055 6.7549 8.95555 6.7449C8.99555 6.7299 9.02055 6.7649 9.00555 6.7949C8.99555 6.8249 8.99555 6.8549 9.03555 6.8549C9.07555 6.8549 9.08555 6.8199 9.09555 6.8049C9.10555 6.7899 9.12055 6.7899 9.13055 6.7699C9.14055 6.7299 9.18055 6.7399 9.20555 6.7449M9.25555 6.6499C9.24055 6.6599 9.19555 6.6249 9.18555 6.5949C9.17555 6.5549 9.14555 6.5249 9.09555 6.5249C9.04555 6.5249 8.94555 6.5549 8.93055 6.6099C8.92498 6.63813 8.91998 6.66647 8.91555 6.6949C8.90055 6.6999 8.88055 6.6949 8.88055 6.7049L8.87555 6.7449M8.56055 7.0599L8.66055 7.0099" stroke="black" stroke-width="0.025" stroke-linecap="round" stroke-linejoin="round"/>
<path d="M8.66563 7.01489C8.69063 7.07989 8.71563 7.14489 8.75063 7.16489M8.80563 7.18989C8.85063 7.21489 8.88063 7.20489 8.93063 7.19989M8.67563 7.67489C8.78063 7.67489 8.82563 7.72489 8.91063 7.75489C9.00063 7.77989 9.12063 7.76489 9.23563 7.81989M8.64062 7.33489C8.67063 7.35489 8.70563 7.36489 8.74063 7.36489M8.78563 7.36489C8.84063 7.37989 8.89063 7.39989 8.90063 7.43489M8.76063 7.48989C8.81063 7.53989 8.91063 7.57989 8.97063 7.57989" stroke="black" stroke-width="0.015" stroke-linecap="round" stroke-linejoin="round"/>
<path d="M8.84586 6.7999C8.89086 6.9599 8.89586 7.0199 9.00586 7.0499M8.80086 6.7949C8.85086 6.9499 8.90086 7.0349 9.00586 7.0449C8.87586 7.0399 8.80586 6.9299 8.75586 6.7749M9.58086 8.1149L9.46086 8.1799M9.35086 8.0899L9.51086 8.0099M9.32586 8.0599L9.49086 7.9799M9.58586 8.2849C9.56086 8.2649 9.55586 8.2549 9.53586 8.2199L9.50086 8.1399L9.47586 8.1549C9.46086 8.1599 9.45086 8.1399 9.46586 8.1349L9.48586 8.1249L9.45586 8.0649C9.44086 8.0649 9.45586 8.0549 9.46586 8.0499C9.48086 8.0449 9.49586 8.0349 9.48586 8.0499L9.51586 8.1099L9.53586 8.0999C9.55086 8.0899 9.56086 8.1149 9.54586 8.1199L9.52086 8.1299L9.56086 8.2099C9.58086 8.2449 9.58586 8.2549 9.58586 8.2849Z" stroke="black" stroke-width="0.01" stroke-linecap="round" stroke-linejoin="round"/>
<path d="M8.00117 7.64984L8.05617 7.59984M7.98117 7.62484L8.03117 7.57484M7.95117 7.59984L8.00617 7.54984M8.99617 7.31984H9.04617M8.99117 7.27984H9.04117M8.99117 7.29984H9.04117M9.10617 6.83984L9.13617 6.85484" stroke="black" stroke-width="0.005" stroke-linecap="round" stroke-linejoin="round"/>
</g>
<defs>
<clipPath id="clip0_11930_68193">
<rect width="36" height="24" rx="2" fill="white"/>
</clipPath>
</defs>
</svg>
