<svg width="36" height="24" viewBox="0 0 36 24" fill="none" xmlns="http://www.w3.org/2000/svg">
<g clip-path="url(#clip0_6903_4722)">
<path d="M0 0H36V24H0V0Z" fill="#21428E"/>
<path d="M16.26 0V10.26H0V13.74H16.26V24H19.74V13.74H36V10.26H19.74V0H16.26Z" fill="white"/>
<path fill-rule="evenodd" clip-rule="evenodd" d="M5.40302 1.70012C5.40302 1.6118 5.61278 1.43516 5.87774 1.31372C6.27518 1.12604 6.49598 1.10396 7.4123 1.14812C8.92478 1.2254 9.37742 1.5014 9.37742 2.3294C9.37742 2.87036 8.92478 3.2678 8.03054 3.53276C6.77198 3.91916 6.88238 4.18412 8.37278 4.3166C9.88526 4.46012 10.5918 4.82444 10.5918 5.46476C10.5918 6.12716 9.87422 6.48044 8.28446 6.61292C7.56686 6.67916 7.03694 6.78956 6.71678 6.94412C6.45182 7.0766 6.33038 7.15388 6.44078 7.12076C7.03694 6.94412 8.4059 6.83372 9.10142 6.89996C10.4814 7.0214 11.1438 7.36364 11.1438 7.94876C11.1438 8.7326 10.1392 9.19628 8.38382 9.20732C7.04798 9.21836 6.24206 9.01964 5.5355 8.50076C5.18222 8.24684 4.96142 8.16956 4.56398 8.16956C4.0451 8.16956 3.41582 7.93772 3.19502 7.67276C3.08462 7.54028 3.12878 7.54028 3.4379 7.61756C3.63662 7.6838 4.06718 7.72796 4.3763 7.72796C4.7176 7.72796 4.85983 7.72796 4.91909 7.65785C4.96142 7.60776 4.96142 7.52189 4.96142 7.37468C4.96142 7.12076 5.07182 6.93308 5.39198 6.62396C5.96606 6.07196 6.6395 5.8622 8.15198 5.74076C8.8475 5.68556 9.4547 5.59724 9.5099 5.54204C9.65342 5.39852 9.05726 5.22188 8.14094 5.1446C6.57326 5.02316 5.73422 4.151 6.45182 3.3782C6.7499 3.05804 7.07006 2.91452 7.84286 2.74892C8.47214 2.61644 8.70398 2.39564 8.48318 2.14172C8.37278 2.00924 8.22926 1.98716 7.84286 2.04236C7.37918 2.1086 6.31934 2.13068 5.72318 2.09756C5.69497 2.09756 5.67877 2.07954 5.66094 2.05969C5.63691 2.03295 5.60992 2.0029 5.54654 2.00924C5.46785 2.01973 5.32185 2.04768 5.17133 2.07648C5.00509 2.1083 4.83332 2.14117 4.74062 2.15276C4.28798 2.20796 3.96782 2.20796 3.8243 2.11964C3.63662 1.9982 3.78014 2.02028 4.02302 2.08652C4.10723 2.10757 4.04592 2.07594 3.96826 2.03587C3.88302 1.99188 3.77809 1.93774 3.8243 1.93196C3.85859 1.93196 3.93419 1.94718 4.01829 1.96411C4.12372 1.98533 4.24251 2.00924 4.31006 2.00924C4.66334 2.02028 5.17118 1.93196 5.35886 1.86572C5.48349 1.82418 5.46917 1.80869 5.44116 1.77841C5.42451 1.7604 5.40302 1.73717 5.40302 1.70012ZM6.49598 1.65596C6.55118 1.65596 6.6395 1.60076 6.67262 1.54556C6.70574 1.47932 6.6947 1.43516 6.62846 1.43516C6.57326 1.43516 6.48494 1.47932 6.45182 1.54556C6.4187 1.60076 6.42974 1.65596 6.49598 1.65596ZM10.084 7.94876C10.1502 7.88252 10.0729 7.80524 9.86318 7.72796C9.18974 7.47404 7.2467 7.50716 6.50702 7.7942C6.24206 7.9046 7.12526 8.16956 7.94222 8.24684C8.6819 8.30204 9.8963 8.13644 10.084 7.94876Z" fill="white"/>
<path fill-rule="evenodd" clip-rule="evenodd" d="M26.143 1.70012C26.143 1.6118 26.3528 1.43516 26.6177 1.31372C27.0152 1.12604 27.236 1.10396 28.1523 1.14812C29.6648 1.2254 30.1174 1.5014 30.1174 2.3294C30.1174 2.87036 29.6648 3.2678 28.7705 3.53276C27.512 3.91916 27.6224 4.18412 29.1128 4.3166C30.6253 4.46012 31.3318 4.82444 31.3318 5.46476C31.3318 6.12716 30.6142 6.48044 29.0245 6.61292C28.3069 6.67916 27.7769 6.78956 27.4568 6.94412C27.1918 7.0766 27.0704 7.15388 27.1808 7.12076C27.7769 6.94412 29.1459 6.83372 29.8414 6.89996C31.2214 7.0214 31.8838 7.36364 31.8838 7.94876C31.8838 8.7326 30.8792 9.19628 29.1238 9.20732C27.788 9.21836 26.9821 9.01964 26.2755 8.50076C25.9222 8.24684 25.7014 8.16956 25.304 8.16956C24.7851 8.16956 24.1558 7.93772 23.935 7.67276C23.8246 7.54028 23.8688 7.54028 24.1779 7.61756C24.3766 7.6838 24.8072 7.72796 25.1163 7.72796C25.4576 7.72796 25.5998 7.72796 25.6591 7.65785C25.7014 7.60776 25.7014 7.52189 25.7014 7.37468C25.7014 7.12076 25.8118 6.93308 26.132 6.62396C26.7061 6.07196 27.3795 5.8622 28.892 5.74076C29.5875 5.68556 30.1947 5.59724 30.2499 5.54204C30.3934 5.39852 29.7973 5.22188 28.8809 5.1446C27.3133 5.02316 26.4742 4.151 27.1918 3.3782C27.4899 3.05804 27.8101 2.91452 28.5829 2.74892C29.2121 2.61644 29.444 2.39564 29.2232 2.14172C29.1128 2.00924 28.9693 1.98716 28.5829 2.04236C28.1192 2.1086 27.0593 2.13068 26.4632 2.09756C26.435 2.09756 26.4188 2.07954 26.4009 2.05969C26.3769 2.03295 26.3499 2.0029 26.2865 2.00924C26.2078 2.01973 26.0618 2.04768 25.9113 2.07648C25.7451 2.1083 25.5733 2.14117 25.4806 2.15276C25.028 2.20796 24.7078 2.20796 24.5643 2.11964C24.3766 1.9982 24.5201 2.02028 24.763 2.08652C24.8472 2.10757 24.7859 2.07594 24.7083 2.03587C24.623 1.99188 24.5181 1.93774 24.5643 1.93196C24.5986 1.93196 24.6742 1.94718 24.7583 1.96411C24.8637 1.98533 24.9825 2.00924 25.0501 2.00924C25.4033 2.02028 25.9112 1.93196 26.0989 1.86572C26.2235 1.82418 26.2092 1.80869 26.1811 1.77841C26.1645 1.7604 26.143 1.73717 26.143 1.70012ZM27.236 1.65596C27.2912 1.65596 27.3795 1.60076 27.4126 1.54556C27.4457 1.47932 27.4347 1.43516 27.3685 1.43516C27.3133 1.43516 27.2249 1.47932 27.1918 1.54556C27.1587 1.60076 27.1697 1.65596 27.236 1.65596ZM30.824 7.94876C30.8902 7.88252 30.8129 7.80524 30.6032 7.72796C29.9297 7.47404 27.9867 7.50716 27.247 7.7942C26.9821 7.9046 27.8653 8.16956 28.6822 8.24684C29.4219 8.30204 30.6363 8.13644 30.824 7.94876Z" fill="white"/>
<path fill-rule="evenodd" clip-rule="evenodd" d="M5.87774 15.0537C5.61278 15.1752 5.40302 15.3518 5.40302 15.4401C5.40302 15.4772 5.42451 15.5004 5.44116 15.5184C5.46917 15.5487 5.48349 15.5642 5.35886 15.6057C5.17118 15.672 4.66334 15.7603 4.31006 15.7492C4.24251 15.7492 4.12372 15.7253 4.01829 15.7041C3.93419 15.6872 3.85859 15.672 3.8243 15.672C3.77809 15.6777 3.88302 15.7319 3.96826 15.7759C4.04592 15.8159 4.10723 15.8476 4.02302 15.8265C3.78014 15.7603 3.63662 15.7382 3.8243 15.8596C3.96782 15.948 4.28798 15.948 4.74062 15.8928C4.83332 15.8812 5.00507 15.8483 5.17131 15.8165C5.32183 15.7877 5.46785 15.7597 5.54654 15.7492C5.60992 15.7429 5.63691 15.7729 5.66094 15.7997C5.67877 15.8195 5.69497 15.8376 5.72318 15.8376C6.31934 15.8707 7.37918 15.8486 7.84286 15.7824C8.22926 15.7272 8.37278 15.7492 8.48318 15.8817C8.70398 16.1356 8.47214 16.3564 7.84286 16.4889C7.07006 16.6545 6.7499 16.798 6.45182 17.1182C5.73422 17.891 6.57326 18.7632 8.14094 18.8846C9.05726 18.9619 9.65342 19.1385 9.5099 19.282C9.4547 19.3372 8.8475 19.4256 8.15198 19.4808C6.6395 19.6022 5.96606 19.812 5.39198 20.364C5.07182 20.6731 4.96142 20.8608 4.96142 21.1147C4.96142 21.2619 4.96142 21.3477 4.91909 21.3978C4.85983 21.468 4.71761 21.468 4.3763 21.468C4.06718 21.468 3.63662 21.4238 3.4379 21.3576C3.12878 21.2803 3.08462 21.2803 3.19502 21.4128C3.41582 21.6777 4.0451 21.9096 4.56398 21.9096C4.96142 21.9096 5.18222 21.9868 5.5355 22.2408C6.24206 22.7596 7.04798 22.9584 8.38382 22.9473C10.1392 22.9363 11.1438 22.4726 11.1438 21.6888C11.1438 21.1036 10.4814 20.7614 9.10142 20.64C8.4059 20.5737 7.03694 20.6841 6.44078 20.8608C6.33038 20.8939 6.45182 20.8166 6.71678 20.6841C7.03694 20.5296 7.56686 20.4192 8.28446 20.3529C9.87422 20.2204 10.5918 19.8672 10.5918 19.2048C10.5918 18.5644 9.88526 18.2001 8.37278 18.0566C6.88238 17.9241 6.77198 17.6592 8.03054 17.2728C8.92478 17.0078 9.37742 16.6104 9.37742 16.0694C9.37742 15.2414 8.92478 14.9654 7.4123 14.8881C6.49598 14.844 6.27518 14.866 5.87774 15.0537ZM6.67262 15.2856C6.6395 15.3408 6.55118 15.396 6.49598 15.396C6.42974 15.396 6.4187 15.3408 6.45182 15.2856C6.48494 15.2193 6.57326 15.1752 6.62846 15.1752C6.6947 15.1752 6.70574 15.2193 6.67262 15.2856ZM9.86318 21.468C10.0729 21.5452 10.1502 21.6225 10.084 21.6888C9.8963 21.8764 8.6819 22.042 7.94222 21.9868C7.12526 21.9096 6.24206 21.6446 6.50702 21.5342C7.2467 21.2472 9.18974 21.214 9.86318 21.468Z" fill="white"/>
<path fill-rule="evenodd" clip-rule="evenodd" d="M26.143 15.4401C26.143 15.3518 26.3528 15.1752 26.6177 15.0537C27.0152 14.866 27.236 14.844 28.1523 14.8881C29.6648 14.9654 30.1174 15.2414 30.1174 16.0694C30.1174 16.6104 29.6648 17.0078 28.7705 17.2728C27.512 17.6592 27.6224 17.9241 29.1128 18.0566C30.6253 18.2001 31.3318 18.5644 31.3318 19.2048C31.3318 19.8672 30.6142 20.2204 29.0245 20.3529C28.3069 20.4192 27.7769 20.5296 27.4568 20.6841C27.1918 20.8166 27.0704 20.8939 27.1808 20.8608C27.7769 20.6841 29.1459 20.5737 29.8414 20.64C31.2214 20.7614 31.8838 21.1036 31.8838 21.6888C31.8838 22.4726 30.8792 22.9363 29.1238 22.9473C27.788 22.9584 26.9821 22.7596 26.2755 22.2408C25.9222 21.9868 25.7014 21.9096 25.304 21.9096C24.7851 21.9096 24.1558 21.6777 23.935 21.4128C23.8246 21.2803 23.8688 21.2803 24.1779 21.3576C24.3766 21.4238 24.8072 21.468 25.1163 21.468C25.4576 21.468 25.5998 21.468 25.6591 21.3978C25.7014 21.3477 25.7014 21.2619 25.7014 21.1147C25.7014 20.8608 25.8118 20.6731 26.132 20.364C26.7061 19.812 27.3795 19.6022 28.892 19.4808C29.5875 19.4256 30.1947 19.3372 30.2499 19.282C30.3934 19.1385 29.7973 18.9619 28.8809 18.8846C27.3133 18.7632 26.4742 17.891 27.1918 17.1182C27.4899 16.798 27.8101 16.6545 28.5829 16.4889C29.2121 16.3564 29.444 16.1356 29.2232 15.8817C29.1128 15.7492 28.9693 15.7272 28.5829 15.7824C28.1192 15.8486 27.0593 15.8707 26.4632 15.8376C26.435 15.8376 26.4188 15.8195 26.4009 15.7997C26.3769 15.7729 26.3499 15.7429 26.2865 15.7492C26.2078 15.7597 26.0618 15.7877 25.9113 15.8165C25.7451 15.8483 25.5733 15.8812 25.4806 15.8928C25.028 15.948 24.7078 15.948 24.5643 15.8596C24.3766 15.7382 24.5201 15.7603 24.763 15.8265C24.8472 15.8476 24.7859 15.8159 24.7083 15.7759C24.623 15.7319 24.5181 15.6777 24.5643 15.672C24.5986 15.672 24.6742 15.6872 24.7583 15.7041C24.8637 15.7253 24.9825 15.7492 25.0501 15.7492C25.4033 15.7603 25.9112 15.672 26.0989 15.6057C26.2235 15.5642 26.2092 15.5487 26.1812 15.5184C26.1645 15.5004 26.143 15.4772 26.143 15.4401ZM27.236 15.396C27.2912 15.396 27.3795 15.3408 27.4126 15.2856C27.4457 15.2193 27.4347 15.1752 27.3685 15.1752C27.3133 15.1752 27.2249 15.2193 27.1918 15.2856C27.1587 15.3408 27.1697 15.396 27.236 15.396ZM30.824 21.6888C30.8902 21.6225 30.8129 21.5452 30.6032 21.468C29.9297 21.214 27.9867 21.2472 27.247 21.5342C26.9821 21.6446 27.8653 21.9096 28.6822 21.9868C29.4219 22.042 30.6363 21.8764 30.824 21.6888Z" fill="white"/>
</g>
<defs>
<clipPath id="clip0_6903_4722">
<rect width="36" height="24" rx="2" fill="white"/>
</clipPath>
</defs>
</svg>
