<svg width="36" height="24" viewBox="0 0 36 24" fill="none" xmlns="http://www.w3.org/2000/svg">
<g clip-path="url(#clip0_11930_68184)">
<path fill-rule="evenodd" clip-rule="evenodd" d="M0 0H36V24H0V0Z" fill="#F41408"/>
<path fill-rule="evenodd" clip-rule="evenodd" d="M0 16H36V24H0V16Z" fill="#21873B"/>
<path fill-rule="evenodd" clip-rule="evenodd" d="M0 0H36V8H0V0Z" fill="#000001"/>
<path fill-rule="evenodd" clip-rule="evenodd" d="M13.025 7.04995C14.14 4.58995 17.25 3.40995 19.965 4.42495C20.6022 4.64096 21.1883 4.98536 21.6871 5.43686C22.1859 5.88836 22.5868 6.43737 22.865 7.04995H13.025ZM11.725 7.36995C10.8427 7.30988 9.96659 7.17947 9.10502 6.97995C8.90002 6.91495 8.89002 6.79995 8.91502 6.71495C8.94002 6.62995 9.07002 6.53495 9.22502 6.56495C9.50502 6.63495 10.665 6.91495 11.725 7.36995ZM17.955 3.07495C17.745 2.02495 17.695 0.874951 17.715 0.674951C17.735 0.479951 17.85 0.449951 17.95 0.449951C18.05 0.449951 18.185 0.539951 18.185 0.684951C18.185 0.949951 18.18 2.03495 17.955 3.08495V3.07495ZM18.535 3.09995C18.4521 2.29899 18.4471 1.49188 18.52 0.689951C18.56 0.494951 18.68 0.469951 18.775 0.479951C18.875 0.484951 19 0.584951 18.985 0.729951C18.96 0.994951 18.855 2.07495 18.535 3.09995ZM19.055 3.16495C19.045 2.09995 19.205 0.949951 19.26 0.764951C19.315 0.569951 19.44 0.554951 19.535 0.569951C19.635 0.584951 19.75 0.694951 19.725 0.834951C19.675 1.09995 19.465 2.16495 19.055 3.16495ZM19.605 3.27495C19.695 2.21495 19.97 1.08495 20.045 0.899951C20.12 0.714951 20.245 0.709951 20.335 0.729951C20.435 0.754951 20.535 0.869951 20.5 1.00995C20.42 1.26495 20.115 2.30995 19.61 3.27495H19.605ZM20.15 3.43495C20.345 2.38495 20.725 1.27995 20.815 1.09995C20.91 0.924951 21.03 0.924951 21.125 0.954951C21.215 0.984951 21.31 1.11495 21.26 1.24495C20.9589 2.00785 20.5873 2.74102 20.15 3.43495ZM20.655 3.62495C20.945 2.58995 21.43 1.52495 21.54 1.34995C21.65 1.17995 21.77 1.19495 21.86 1.23495C21.95 1.26995 22.03 1.40495 21.965 1.53495C21.84 1.77495 21.34 2.75495 20.655 3.62495ZM21.155 3.85995C21.4524 3.09557 21.8207 2.3607 22.255 1.66495C22.375 1.50495 22.5 1.52995 22.585 1.57495C22.6102 1.58985 22.6321 1.60962 22.6496 1.63311C22.667 1.65659 22.6796 1.68331 22.6865 1.71171C22.6935 1.74011 22.6948 1.76961 22.6902 1.7985C22.6857 1.82739 22.6754 1.85508 22.66 1.87995C22.51 2.10995 21.915 3.04995 21.155 3.85995ZM21.625 4.13495C22.11 3.16495 22.79 2.18495 22.93 2.03495C23.07 1.88495 23.19 1.91995 23.27 1.96995C23.2939 1.98685 23.3141 2.00833 23.3296 2.03314C23.3451 2.05795 23.3554 2.0856 23.3601 2.11446C23.3647 2.14332 23.3636 2.17282 23.3567 2.20124C23.3498 2.22965 23.3374 2.25641 23.32 2.27995C23.145 2.49995 22.46 3.38495 21.62 4.12995L21.625 4.13495ZM22.065 4.44495C22.645 3.51495 23.415 2.59495 23.57 2.45995C23.72 2.31995 23.84 2.35995 23.915 2.41995C23.9369 2.43898 23.9547 2.46224 23.9673 2.48833C23.98 2.51442 23.9872 2.54279 23.9886 2.57175C23.99 2.60071 23.9856 2.62965 23.9755 2.65684C23.9654 2.68403 23.95 2.7089 23.93 2.72995C23.74 2.93495 22.975 3.76495 22.065 4.44495ZM22.48 4.78995C22.9873 4.12122 23.5528 3.49879 24.17 2.92995C24.335 2.80495 24.445 2.85495 24.515 2.91495C24.5358 2.93609 24.5519 2.96128 24.5624 2.98894C24.573 3.01661 24.5777 3.04615 24.5763 3.07573C24.5749 3.1053 24.5674 3.13426 24.5543 3.1608C24.5411 3.18734 24.5227 3.21088 24.5 3.22995C24.295 3.41995 23.45 4.18495 22.48 4.78995ZM22.86 5.16495C23.4267 4.53801 24.0493 3.96397 24.72 3.44995C24.9 3.33495 25.005 3.39495 25.07 3.46495C25.13 3.52995 25.145 3.68495 25.02 3.77495C24.3403 4.29801 23.6177 4.76298 22.86 5.16495ZM23.185 5.55495C23.8102 4.973 24.4843 4.44605 25.2 3.97995C25.385 3.87995 25.485 3.94995 25.54 4.02495C25.6 4.09495 25.595 4.24995 25.47 4.32995C25.23 4.47995 24.255 5.10995 23.185 5.55495ZM23.48 5.96995C24.1562 5.44238 24.8754 4.9724 25.63 4.56495C25.83 4.47995 25.925 4.55495 25.975 4.62995C26.025 4.70995 26.005 4.85995 25.875 4.92995C25.1047 5.34138 24.302 5.6892 23.475 5.96995H23.48ZM23.75 6.44995C24.4783 5.98068 25.2443 5.57261 26.04 5.22995C26.245 5.15995 26.33 5.24495 26.37 5.32495C26.415 5.40495 26.385 5.55495 26.24 5.61495C25.975 5.72495 24.89 6.18495 23.75 6.44995ZM23.96 6.90995C24.7303 6.49836 25.533 6.15054 26.36 5.86995C26.57 5.81995 26.645 5.90995 26.68 5.99495C26.71 6.07495 26.665 6.22495 26.52 6.26995C26.245 6.36495 25.12 6.73495 23.96 6.90995ZM24.13 7.39995C24.9358 7.05138 25.7685 6.76879 26.62 6.55495C26.83 6.52495 26.9 6.61495 26.925 6.70495C26.95 6.78995 26.89 6.92995 26.74 6.96995C26.455 7.03495 25.3 7.31995 24.13 7.39995ZM17.39 3.09995C17.1528 2.3273 16.9904 1.53366 16.905 0.729951C16.905 0.534951 17.02 0.489951 17.115 0.479951C17.215 0.474951 17.365 0.554951 17.375 0.694951C17.4 0.959951 17.505 2.03995 17.395 3.09995H17.39ZM16.84 3.16495C16.5273 2.41654 16.2878 1.63957 16.125 0.844951C16.105 0.644951 16.215 0.594951 16.31 0.579951C16.41 0.564951 16.56 0.629951 16.59 0.769951C16.7464 1.55896 16.8301 2.36065 16.84 3.16495ZM16.29 3.27495C15.906 2.55299 15.5913 1.79627 15.35 1.01495C15.31 0.819951 15.415 0.759951 15.51 0.734951C15.605 0.714951 15.76 0.764951 15.805 0.904951C15.88 1.15995 16.19 2.20495 16.285 3.26995L16.29 3.27495ZM15.765 3.42495C15.3183 2.73695 14.9366 2.0088 14.625 1.24995C14.57 1.05995 14.665 0.989951 14.755 0.959951C14.85 0.929951 15.01 0.969951 15.065 1.09995C15.165 1.34995 15.575 2.36995 15.765 3.41995V3.42495ZM15.26 3.59995C14.7475 2.95102 14.2956 2.25645 13.91 1.52495C13.84 1.33995 13.93 1.25995 14.02 1.22495C14.11 1.18495 14.27 1.21495 14.34 1.34495C14.465 1.58495 14.965 2.56995 15.26 3.59995ZM14.745 3.84995C14.1701 3.24491 13.6513 2.58888 13.195 1.88995C13.11 1.71495 13.19 1.62995 13.275 1.58495C13.36 1.53995 13.525 1.55495 13.605 1.67995C13.755 1.90995 14.355 2.84495 14.745 3.84995ZM14.275 4.11995C13.647 3.56036 13.0698 2.9463 12.55 2.28495C12.445 2.11495 12.515 2.02495 12.6 1.96995C12.675 1.91995 12.85 1.91995 12.935 2.03995C13.105 2.25495 13.79 3.13995 14.275 4.11495V4.11995ZM13.84 4.41995C13.1603 3.91109 12.5262 3.34394 11.945 2.72495C11.825 2.56495 11.89 2.47495 11.965 2.41495C12.0179 2.3822 12.0803 2.36833 12.142 2.37559C12.2038 2.38286 12.2612 2.41083 12.305 2.45495C12.495 2.65495 13.265 3.48995 13.84 4.41995ZM13.415 4.76995C12.689 4.31786 12.0032 3.80431 11.365 3.23495C11.225 3.08495 11.28 2.98495 11.35 2.91995C11.4006 2.88266 11.4624 2.86382 11.5252 2.86655C11.5879 2.86928 11.6479 2.89342 11.695 2.93495C11.905 3.11995 12.745 3.88495 13.415 4.76495V4.76995ZM13.045 5.11995C12.2795 4.72547 11.5486 4.26718 10.86 3.74995C10.71 3.60995 10.755 3.50995 10.82 3.43995C10.88 3.36995 11.045 3.33495 11.165 3.42495C11.8398 3.93605 12.4688 4.50486 13.045 5.12495V5.11995ZM12.695 5.52995C11.8934 5.19801 11.1207 4.79997 10.385 4.33995C10.22 4.21495 10.255 4.10495 10.31 4.03495C10.365 3.95995 10.525 3.90995 10.655 3.98995C10.895 4.14495 11.87 4.76495 12.695 5.52995ZM12.38 5.96995C11.27 5.61995 10.135 5.08995 9.96002 4.97495C9.78002 4.86495 9.81002 4.75495 9.85502 4.67495C9.90002 4.59495 10.055 4.53495 10.195 4.60495C10.445 4.73995 11.485 5.27995 12.38 5.96995ZM12.115 6.41995C10.975 6.15495 9.80002 5.71995 9.61002 5.61995C9.42502 5.51995 9.43502 5.40995 9.48002 5.32995C9.52002 5.24995 9.66502 5.17495 9.81002 5.22995C10.075 5.34495 11.16 5.79995 12.115 6.41995ZM11.905 6.86995C11.0334 6.73594 10.1739 6.53195 9.33502 6.25995C9.13502 6.17995 9.14502 6.06495 9.17502 5.98495C9.21002 5.89995 9.35002 5.81495 9.49502 5.85995C9.77502 5.95495 10.895 6.32495 11.905 6.86995Z" fill="#F31509"/>
<path fill-rule="evenodd" clip-rule="evenodd" d="M11.725 7.36999C10.8427 7.3099 9.96659 7.17948 9.10502 6.97999C8.90002 6.91499 8.89002 6.79999 8.91502 6.71499C8.94002 6.62999 9.07002 6.53499 9.22502 6.56499C9.50502 6.63499 10.665 6.91499 11.725 7.36999Z" fill="#F31509"/>
<path fill-rule="evenodd" clip-rule="evenodd" d="M8.46973 7.07495H27.5297V7.70495H8.46973V7.07495Z" fill="black"/>
</g>
<defs>
<clipPath id="clip0_11930_68184">
<rect width="36" height="24" rx="2" fill="white"/>
</clipPath>
</defs>
</svg>
