<svg width="36" height="24" viewBox="0 0 36 24" fill="none" xmlns="http://www.w3.org/2000/svg">
<g clip-path="url(#clip0_11930_68208)">
<path d="M36 1.71497H0V3.42997H36V1.71497Z" fill="white"/>
<path d="M36 5.14502H0V6.85002H36V5.14502Z" fill="white"/>
<path d="M0 8.56995H36V10.2849H0V8.56995Z" fill="white"/>
<path d="M36 12H0V13.715H36V12Z" fill="white"/>
<path d="M0 15.4301H36V17.1451H0V15.4301Z" fill="white"/>
<path d="M36 18.855H0V20.57H36V18.855Z" fill="white"/>
<path d="M0 22.285H36V24H0V22.285Z" fill="white"/>
<path d="M0 0H36V1.715H0V0Z" fill="#CC0000"/>
<path d="M0 3.43005H36V5.14505H0V3.43005Z" fill="#CC0000"/>
<path d="M36 6.85498H0V8.56998H36V6.85498Z" fill="#CC0000"/>
<path d="M0 10.285H36V12H0V10.285Z" fill="#CC0000"/>
<path d="M36 13.715H0V15.43H36V13.715Z" fill="#CC0000"/>
<path d="M0 17.145H36V18.85H0V17.145Z" fill="#CC0000"/>
<path d="M36 20.5699H0V22.2849H36V20.5699Z" fill="#CC0000"/>
<path d="M0 0.0250244H16V13.74H0V0.0250244Z" fill="#000066"/>
<path d="M10.3749 3.69005L10.6749 5.72505L11.8249 4.02505L11.2049 5.98505L12.9799 4.94505L11.5749 6.44505L13.6249 6.28505L11.7099 7.02505L13.6249 7.76505L11.5749 7.60505L12.9799 9.10505L11.2049 8.06505L11.8199 10.03L10.6699 8.32505L10.3699 10.36L10.0749 8.32505L8.92488 10.025L9.54488 8.06505L7.76988 9.10505L9.16988 7.60505L7.11988 7.76505L9.03988 7.02505L7.12488 6.28505L9.17488 6.44505L7.76988 4.94505L9.54488 5.98505L8.92488 4.02005L10.0749 5.72505L10.3749 3.69005ZM8.70988 3.77505C8.16847 3.53418 7.57544 3.43248 6.98471 3.47918C6.39398 3.52588 5.82429 3.71951 5.32745 4.04246C4.83061 4.3654 4.42238 4.80742 4.13988 5.32832C3.85737 5.84922 3.70956 6.43247 3.70988 7.02505C3.70956 7.61762 3.85737 8.20087 4.13988 8.72177C4.42238 9.24267 4.83061 9.68469 5.32745 10.0076C5.82429 10.3306 6.39398 10.5242 6.98471 10.5709C7.57544 10.6176 8.16847 10.5159 8.70988 10.275C8.11212 10.7044 7.40747 10.9606 6.67349 11.0153C5.93952 11.07 5.20469 10.9211 4.54988 10.585C3.89583 10.2485 3.34722 9.73819 2.96439 9.11012C2.58155 8.48206 2.3793 7.76059 2.37988 7.02505C2.38013 6.28968 2.58308 5.56862 2.96644 4.94109C3.3498 4.31356 3.89873 3.80385 4.55291 3.46798C5.20708 3.1321 5.94119 2.98306 6.67455 3.03724C7.40792 3.09141 8.11216 3.3467 8.70988 3.77505Z" fill="#FFCC00"/>
</g>
<defs>
<clipPath id="clip0_11930_68208">
<rect width="36" height="24" rx="2" fill="white"/>
</clipPath>
</defs>
</svg>
