<svg width="36" height="24" viewBox="0 0 36 24" fill="none" xmlns="http://www.w3.org/2000/svg">
<rect x="0.25" y="0.25" width="35.5" height="23.5" rx="1.75" stroke="#EFEFEF" stroke-width="0.5"/>
<path d="M9.21533 5.75889V3.41834H10.0322L10.5665 5.19963L11.0931 3.41834H11.9133V5.75889H11.3955V3.87082L10.8502 5.75889H10.285L9.73306 3.87082V5.75889H9.21533ZM13.4731 3.88623L13.101 4.88256H13.8462L13.4731 3.88623ZM13.1518 3.41724H13.7899L14.758 5.75779H14.1784L13.9963 5.27669H12.9553L12.7787 5.75779H12.197L13.1518 3.41724ZM16.2339 5.75779H15.682V4.88476L14.7072 3.41614H15.3839L15.9579 4.42568L16.4878 3.41614H17.1181L16.2339 4.88476V5.75779ZM17.8047 4.58972C17.8047 4.84733 17.8699 5.0477 18.0012 5.19082C18.1326 5.33284 18.3159 5.4033 18.5521 5.4033C18.7883 5.4033 18.976 5.33284 19.1084 5.19082C19.2409 5.0477 19.3071 4.84733 19.3071 4.58972C19.3071 4.3321 19.2409 4.13284 19.1084 3.99082C18.976 3.8477 18.7905 3.77614 18.5521 3.77614C18.3136 3.77614 18.1326 3.8466 18.0012 3.98862C17.8699 4.13063 17.8047 4.331 17.8047 4.58972ZM17.2418 4.58972C17.2418 4.211 17.3599 3.91155 17.595 3.69027C17.8323 3.46788 18.1514 3.35669 18.5521 3.35669C18.9528 3.35669 19.2718 3.46788 19.5092 3.69027C19.7476 3.91265 19.8668 4.2121 19.8668 4.58972C19.8668 4.96733 19.7476 5.26678 19.5092 5.48917C19.2718 5.71155 18.9528 5.82274 18.5521 5.82274C18.1514 5.82274 17.8323 5.71155 17.595 5.48917C17.3588 5.26678 17.2418 4.96733 17.2418 4.58972ZM20.8592 5.75779V3.83449H20.0633V3.41614H22.2027V3.83449H21.4112V5.75779H20.8592ZM23.0759 5.75779V3.83449H22.2799V3.41614H24.4193V3.83449H23.6278V5.75779H23.0759ZM24.7361 5.75779V3.41834H26.6845V3.82568H25.2814V4.3244H26.5642V4.72513H25.2814V5.32733H26.7507V5.75999H24.7372" fill="#CF2717"/>
<path d="M10.8965 7.46973C10.6636 7.50055 10.487 7.56 10.2519 7.69211C10.1768 7.73505 10.105 7.76587 10.0929 7.76147C10.0797 7.75707 10.0653 7.71964 10.0587 7.6756C10.0521 7.63376 10.0377 7.58642 10.0256 7.57211C9.99245 7.52918 9.96154 7.56441 9.90082 7.70863C9.87323 7.77798 9.84121 7.84404 9.83348 7.85285C9.80368 7.88698 9.76394 7.87487 9.71647 7.81872C9.669 7.76147 9.59615 7.74496 9.57959 7.78679C9.57517 7.7989 9.57849 7.84844 9.58732 7.89798C9.61712 8.0422 9.56965 8.06422 9.43498 7.96734C9.31797 7.88257 9.27381 7.86606 9.22965 7.88698C9.18329 7.91009 9.1855 7.94202 9.244 8.06973C9.29478 8.18092 9.2981 8.26019 9.24842 8.19523C9.23517 8.17872 9.17446 8.14019 9.11154 8.11266C9.04862 8.08294 8.95258 8.0356 8.89407 8.00477C8.83667 7.97505 8.75719 7.93982 8.71855 7.92661C8.64569 7.90349 8.25491 7.84954 8.2218 7.86055C8.21186 7.86386 8.26595 7.90459 8.33991 7.95413C8.50219 8.05872 8.81459 8.32624 8.81459 8.36037C8.81459 8.38019 8.79693 8.38349 8.68323 8.37468C8.5331 8.36257 8.53641 8.35817 8.56952 8.50349C8.58056 8.55413 8.58277 8.58826 8.57284 8.59707C8.5629 8.60587 8.51212 8.60367 8.43485 8.58826C8.36751 8.57615 8.3079 8.56514 8.30128 8.56514C8.27699 8.56514 8.28803 8.68624 8.32225 8.78973C8.35537 8.88661 8.35537 8.89542 8.32887 8.91303C8.29576 8.93615 8.25823 8.92514 8.00875 8.81725C7.86082 8.7523 7.82329 8.74239 7.74271 8.74459C7.69193 8.74569 7.63121 8.7567 7.60582 8.76881L7.55946 8.79083L7.66654 8.89872C7.79349 9.02753 7.92154 9.20037 7.94141 9.26863C7.97784 9.38422 7.85641 9.40404 7.44686 9.3545C7.22277 9.32698 7.07154 9.33138 6.99758 9.36881C6.94017 9.39633 6.74258 9.56808 6.74258 9.5912C6.74258 9.5989 6.83751 9.60991 6.95452 9.61432C7.19959 9.62312 7.37732 9.66386 7.52303 9.73872C7.66102 9.80918 7.65771 9.82459 7.50868 9.82459C7.38394 9.82459 7.31108 9.84331 7.24595 9.89175C7.21504 9.91487 7.21504 9.91597 7.24595 9.94899C7.29342 9.99854 7.38615 10.0371 7.49875 10.0536C7.55615 10.0624 7.60582 10.0723 7.60913 10.0767C7.61245 10.08 7.56167 10.091 7.49543 10.0998C7.32433 10.1262 7.08478 10.1923 6.96777 10.2473C6.8629 10.2969 6.85738 10.3024 6.83641 10.4455L6.82647 10.5039L6.87946 10.4928C6.96115 10.4763 7.38615 10.4664 7.45459 10.4807C7.55946 10.5028 7.52965 10.5237 7.36738 10.5424C7.16316 10.5655 7.04836 10.5864 6.99426 10.6128L6.95121 10.6349L7.03952 10.6745C7.0892 10.6976 7.2018 10.7295 7.29232 10.7472C7.67647 10.8209 7.72504 10.8628 7.40271 10.8473C7.13777 10.8352 7.0329 10.844 7.04063 10.8826C7.04836 10.9255 7.21173 10.9993 7.38063 11.0389C7.48439 11.0631 7.44465 11.0818 7.27576 11.0884C7.12342 11.0928 7.00751 11.1303 6.96004 11.1897C6.92251 11.2338 6.94569 11.4374 6.98985 11.4628C6.99978 11.4672 7.01965 11.4617 7.034 11.4484C7.04836 11.4341 7.11569 11.4011 7.18413 11.3703C7.31108 11.313 7.31219 11.313 7.49323 11.3395C7.5705 11.3505 7.63784 11.4099 7.69524 11.5211C7.72284 11.5728 7.78024 11.6565 7.82329 11.7061C7.86634 11.7556 7.91491 11.8117 7.93147 11.8316C7.96238 11.8668 7.96238 11.869 7.92816 11.9328C7.9105 11.9703 7.89063 12.011 7.88511 12.0253C7.8553 12.1211 7.35303 12.0881 6.95673 11.9659C6.79887 11.9163 6.56595 11.8095 6.45998 11.7369L6.37939 11.6818V11.7413C6.37939 11.8888 6.50303 12.1398 6.62556 12.2422L6.70394 12.3083L6.62336 12.4525C6.5229 12.6319 6.51628 12.7013 6.59355 12.7739C6.62115 12.8015 6.64102 12.8323 6.63439 12.8444C6.62998 12.8565 6.58693 12.8873 6.53946 12.9116C6.39154 12.9897 6.39816 12.982 6.45888 13.0117C6.48868 13.0272 6.56926 13.0426 6.63439 13.047C6.70725 13.0536 6.76465 13.0635 6.77459 13.0767C6.81543 13.1229 6.73043 13.2242 6.58251 13.3068C6.55823 13.3211 6.57589 13.3266 6.68297 13.342C6.75582 13.3508 6.86069 13.3607 6.91589 13.3618L7.01745 13.3651L6.98323 13.4235C6.94238 13.4928 6.86511 13.5677 6.80108 13.6051L6.75472 13.6327L6.8055 13.6393C6.8331 13.6437 6.8905 13.6404 6.93355 13.6349C7.05719 13.6161 7.20621 13.6195 7.23933 13.6415C7.29011 13.6767 7.24706 13.7571 7.119 13.8716L7.00751 13.9728L7.08037 13.9839C7.21725 14.0026 7.38946 13.9828 7.48108 13.9376C7.52855 13.9156 7.56939 13.8991 7.57271 13.9024C7.59589 13.9255 7.50647 14.1479 7.44907 14.2095C7.43582 14.2239 7.4292 14.2404 7.43582 14.2481C7.44245 14.2547 7.53076 14.2591 7.63121 14.2591C7.77472 14.2591 7.82881 14.2525 7.87076 14.2316C7.90167 14.2173 7.93037 14.2051 7.93368 14.2051C7.93478 14.2051 7.9381 14.2371 7.9381 14.2778C7.9381 14.3295 7.92706 14.3626 7.89504 14.4011L7.8542 14.4517H7.90056C8.00764 14.4506 8.26043 14.3736 8.35095 14.3119C8.41056 14.2734 8.41498 14.2745 8.41498 14.3317C8.41387 14.3967 8.37745 14.4903 8.33991 14.5299C8.30569 14.5673 8.31342 14.5673 8.47459 14.5288C8.6192 14.4947 8.74725 14.4473 8.81349 14.4044C8.8742 14.3626 8.88082 14.367 8.86758 14.4319C8.85323 14.509 8.82121 14.553 8.75939 14.5839C8.7318 14.596 8.71193 14.6114 8.71634 14.6147C8.72959 14.629 9.07621 14.5773 9.15569 14.5519C9.19543 14.5398 9.24069 14.5167 9.25725 14.5024C9.28485 14.4793 9.28706 14.4793 9.28706 14.5167C9.28706 14.5387 9.26939 14.5872 9.24621 14.6279C9.22303 14.6686 9.20537 14.7028 9.20537 14.7083C9.20537 14.7204 9.29589 14.6939 9.40076 14.651C9.45816 14.6268 9.5255 14.607 9.55089 14.607C9.60719 14.607 9.67232 14.6543 9.7231 14.7303C9.75069 14.7721 9.79375 14.8029 9.87543 14.8415L9.99024 14.8954L9.99686 14.8327C10.0046 14.7754 10.2761 14.1083 10.3026 14.0829C10.3137 14.0719 10.6448 14.2844 10.9639 14.5057C11.156 14.6389 11.5986 15.0495 11.7278 15.2158C12.0843 15.6705 12.2013 15.9842 12.2024 16.4917C12.2024 16.7714 12.1826 16.92 12.1141 17.1897C11.9629 17.7644 11.6108 18.3116 11.2123 18.5879C10.9495 18.7706 10.6382 18.8323 10.0598 18.8158C9.35991 18.796 8.92277 18.6595 8.59823 18.3622C8.35868 18.1409 8.20082 17.8525 8.13459 17.5134C8.12465 17.4584 8.11693 17.3229 8.11693 17.2139C8.11693 16.8385 8.20745 16.5787 8.40504 16.3806C8.57615 16.2099 8.75829 16.1163 8.99232 16.0822C9.2142 16.0503 9.46699 16.1196 9.62375 16.2528C9.73193 16.3464 9.73745 16.3916 9.65134 16.5512C9.57628 16.6943 9.56965 16.7306 9.61712 16.7758C9.66128 16.8176 9.754 16.8154 9.85888 16.7681C10.0112 16.702 10.0874 16.5402 10.0741 16.3167C10.0609 16.1152 9.96043 15.9842 9.73413 15.8774C9.51336 15.7739 9.40186 15.7541 9.05855 15.7563C8.77375 15.7563 8.74504 15.7596 8.60706 15.7993C8.33108 15.8774 8.16329 15.982 8.03303 16.1516C7.73719 16.5424 7.57491 17.2117 7.66985 17.6455C7.74381 17.9758 7.94141 18.3336 8.21517 18.6286C8.67881 19.1295 9.29368 19.3585 10.1757 19.3585C10.8303 19.3585 11.2939 19.2418 11.7532 18.9622C12.2665 18.6517 12.5976 18.2488 12.8791 17.5993C12.9542 17.4209 12.984 17.3108 12.9973 17.1567C13.0017 17.0818 13.0149 17.0202 13.0304 17.0048C13.0966 16.9343 13.1187 16.7328 13.0778 16.6018L13.0536 16.5281L13.1043 16.4862C13.1948 16.4114 13.1849 16.2484 13.0834 16.1395L13.0359 16.0888L13.09 16.0382C13.1606 15.971 13.1915 15.8433 13.1783 15.6738C13.1706 15.5571 13.1143 15.3941 13.0834 15.3941C13.0502 15.3941 13.0723 15.3523 13.1198 15.327C13.1937 15.2851 13.2335 15.2158 13.2335 15.1244C13.2335 14.9384 13.1518 14.6521 13.09 14.6312C13.0657 14.6224 13.0602 14.5806 13.0834 14.5806C13.1209 14.5806 13.1717 14.4363 13.1805 14.3053C13.1904 14.1413 13.1562 14.0147 13.0834 13.9475L13.0359 13.9013L13.0867 13.8033C13.1308 13.7185 13.1374 13.6943 13.1297 13.6239C13.1121 13.4609 12.9189 13.1593 12.7743 13.0701C12.7213 13.0382 12.7069 13.0195 12.7069 12.9842C12.7069 12.8807 12.6164 12.7288 12.4652 12.5769C12.3073 12.4206 12.2565 12.349 12.2234 12.2389C12.2002 12.1684 12.176 12.131 12.1064 12.0672C12.0258 11.9923 11.8547 11.8965 11.7532 11.8723C11.7322 11.8679 11.72 11.8525 11.72 11.8283C11.7189 11.7303 11.5887 11.5651 11.4739 11.5167C11.4165 11.4925 11.4076 11.4826 11.4076 11.4385C11.4076 11.3758 11.3513 11.313 11.22 11.2283C11.0952 11.1501 10.8976 11.1028 10.5941 11.0774C9.95491 11.0279 9.67011 10.9288 9.36985 10.6492C9.18771 10.4796 9.11706 10.3662 9.05082 10.1417C8.99673 9.9556 8.99342 9.78165 9.0431 9.64624C9.07732 9.55046 9.18771 9.3578 9.20758 9.3578C9.2142 9.3578 9.20426 9.40844 9.1866 9.46899C9.14355 9.61542 9.13913 9.85432 9.17887 9.97101C9.23297 10.1339 9.34004 10.255 9.48907 10.3277C9.59063 10.3773 9.6403 10.3872 9.81472 10.4026C9.99576 10.418 10.1172 10.4521 10.1768 10.5028C10.2651 10.5798 10.4649 10.5886 10.6548 10.527C10.7045 10.5105 10.7961 10.4917 10.8601 10.4873L10.9782 10.4763L11.1306 10.5765C11.2884 10.6778 11.9706 11.0378 12.091 11.0818C12.3095 11.1633 12.5557 11.1061 12.6595 10.9508C12.7434 10.8264 12.6672 10.7097 12.3106 10.4081C12.0214 10.1648 11.9519 10.0822 11.9143 9.94129C11.8978 9.88184 11.8448 9.75083 11.794 9.65285C11.6737 9.41175 11.6726 9.36991 11.7863 9.25982C11.8304 9.21578 11.8801 9.15413 11.8934 9.1211C11.9198 9.06386 11.9309 8.93505 11.9132 8.91633C11.9033 8.90863 11.7929 8.93065 11.7355 8.95046C11.7178 8.95707 11.7145 8.93395 11.7189 8.82716C11.7223 8.74459 11.7156 8.67853 11.7046 8.64881L11.6836 8.60257L11.624 8.65652C11.5633 8.71156 11.5191 8.72587 11.4993 8.69615C11.4948 8.68844 11.4827 8.64441 11.475 8.59817C11.4584 8.50129 11.3933 8.35046 11.3767 8.36918C11.3701 8.37578 11.3558 8.40771 11.3436 8.43854C11.3337 8.47046 11.3193 8.49688 11.3105 8.49688C11.3039 8.49688 11.2928 8.45945 11.2862 8.41542C11.2686 8.28331 11.2487 8.22826 11.2045 8.18973C11.1681 8.1578 11.1582 8.1556 11.1471 8.17432C11.1394 8.18643 11.1306 8.21395 11.1306 8.23597C11.1306 8.30312 11.0842 8.44074 11.0235 8.55523C10.9054 8.77652 10.7939 8.7545 10.5632 8.47046C10.4318 8.30753 10.4119 8.25688 10.4484 8.18312C10.5356 8.01138 10.8998 7.77909 11.2443 7.6789C11.3083 7.66019 11.3613 7.64037 11.3613 7.63487C11.3613 7.60514 11.2796 7.53688 11.2067 7.50386C11.125 7.46863 11.029 7.46092 10.8932 7.47743L10.8965 7.46973Z" fill="#E7E6E6"/>
<path d="M7.50096 10.5237C7.60583 10.4697 7.09914 10.4774 6.99207 10.4786C6.91921 10.4995 6.85297 10.5281 6.8309 10.5193C6.80882 10.5094 6.82648 10.4334 6.84966 10.3057C6.92914 10.2441 7.01194 10.2121 7.10025 10.1879C7.18414 10.1604 7.2581 10.1417 7.35304 10.113C7.44466 10.1031 7.47447 10.1064 7.60473 10.08C7.45129 10.0569 7.34311 10.0745 7.19077 9.92479C7.25259 9.89066 7.27687 9.84662 7.35083 9.83011C7.42479 9.8158 7.45018 9.818 7.5109 9.818C7.62681 9.818 7.66103 9.83782 7.58375 9.78497C7.50538 9.73213 7.35746 9.67268 7.19077 9.64405C7.04395 9.62094 6.82096 9.61983 6.71388 9.61543C6.76356 9.52405 6.85518 9.47121 6.91038 9.41396C7.0009 9.30938 7.21064 9.31268 7.52414 9.36002C8.01979 9.41727 8.0507 9.36002 7.73609 8.99121L7.53629 8.78644L7.66323 8.7391L7.80122 8.7358C7.93259 8.76442 8.10038 8.8591 8.20194 8.89653C8.36421 8.96259 8.35538 8.90094 8.3046 8.77763C8.26375 8.67305 8.29356 8.67415 8.27811 8.55855C8.35869 8.55855 8.57284 8.63451 8.57284 8.58717C8.57284 8.52993 8.54525 8.4925 8.52869 8.36149C8.59934 8.36149 8.7583 8.3791 8.79362 8.3725C8.82895 8.36589 8.74505 8.28993 8.66005 8.21837L8.44148 8.03451L8.13239 7.83965L8.59161 7.8936C8.73291 7.8936 8.957 8.03782 9.07622 8.09506C9.13583 8.12369 9.19213 8.1325 9.22746 8.16773C9.30914 8.19635 9.2109 8.27231 9.27051 8.20185C9.30031 8.15121 9.16122 8.00149 9.17999 7.92222C9.28044 7.74387 9.50564 8.07084 9.55421 8.018C9.64804 8.00809 9.50785 7.80442 9.58291 7.76369C9.68888 7.70424 9.7496 7.90681 9.8059 7.87158C9.8633 7.83525 9.89973 7.57653 9.99025 7.5435C10.0808 7.51048 10.0432 7.80883 10.1039 7.76809C10.2353 7.68332 10.5201 7.51598 10.7541 7.48516C10.8712 7.46974 11.008 7.43892 11.1228 7.45763C11.2388 7.47745 11.3469 7.55121 11.3789 7.64149C11.2233 7.68442 11.199 7.68772 11.0367 7.75378C10.8745 7.81103 10.6625 7.95194 10.561 8.04662C10.3888 8.22607 10.3888 8.24479 10.5808 8.47268C10.8237 8.78534 10.9451 8.76552 11.0765 8.40662C11.1317 8.26461 11.1151 8.17433 11.1416 8.12589C11.1571 8.1358 11.2123 8.15782 11.2454 8.20626C11.2741 8.24919 11.3006 8.43745 11.3006 8.48589C11.3249 8.47158 11.348 8.40993 11.3701 8.31084C11.4308 8.42094 11.4485 8.45617 11.4684 8.50901C11.4882 8.56075 11.4706 8.69947 11.5313 8.69947C11.5666 8.69947 11.6097 8.63562 11.6847 8.57286C11.7499 8.68736 11.741 8.83048 11.7145 8.93837C11.7653 8.92295 11.8702 8.88993 11.921 8.88552C11.9364 8.94277 11.9353 9.01103 11.9232 9.06277C11.8867 9.13653 11.8746 9.20038 11.794 9.25763C11.6726 9.35231 11.6726 9.40846 11.794 9.62644C11.8746 9.76846 11.9353 9.92919 11.9353 9.99525C11.9353 10.0525 12.1175 10.2408 12.3504 10.4213C12.6341 10.6481 12.7345 10.7901 12.6948 10.8947C12.5932 11.1215 12.2797 11.1875 11.9971 11.0455C11.8658 10.9795 11.5721 10.8275 11.3392 10.7053C11.1825 10.625 11.0787 10.5369 10.9838 10.4808C10.8303 10.4786 10.7133 10.4918 10.5808 10.5534C10.3788 10.582 10.2165 10.5633 10.1757 10.5061C10.1349 10.4488 9.97369 10.4015 9.82135 10.4015C9.41622 10.4015 9.15129 10.1516 9.13583 9.78497C9.12921 9.62534 9.15239 9.52516 9.20979 9.34571C8.98681 9.67598 8.97356 9.82791 9.05304 10.1186C9.15018 10.5248 9.59836 11.0444 10.5908 11.0543C10.7784 11.0587 10.9352 11.1083 11.1118 11.1424C11.2255 11.2052 11.4662 11.3252 11.4176 11.476C11.6008 11.5222 11.7267 11.6995 11.73 11.8459C12.1804 11.9725 12.24 12.2191 12.24 12.2664C12.24 12.3138 12.3515 12.4558 12.4928 12.5791C12.6341 12.7024 12.7279 12.9006 12.7114 13.0107C12.8681 13.0866 12.9244 13.1967 13.0193 13.3167C13.0999 13.4697 13.2346 13.6613 13.0359 13.8903C13.2434 13.9619 13.2346 14.5134 13.069 14.5927C13.1915 14.6708 13.2169 14.8624 13.2434 15.1233C13.2445 15.2114 13.2147 15.2896 13.0657 15.3589C13.1054 15.3776 13.1375 15.4294 13.1584 15.4965C13.1805 15.5637 13.1915 15.6463 13.1915 15.7288C13.1915 15.8103 13.1794 15.8918 13.154 15.9545C13.1286 16.0173 13.09 16.0624 13.0348 16.0723C13.2202 16.1857 13.2158 16.4852 13.0558 16.516C13.1452 16.669 13.1176 16.9696 13.0028 17.029C13.0282 17.3384 12.8968 17.5575 12.8273 17.7204C12.6893 18.0463 12.506 18.3237 12.2775 18.556C12.049 18.7883 11.7741 18.9765 11.4496 19.1252C10.7409 19.4466 9.53765 19.4378 8.84882 19.1064C8.24168 18.8136 7.74603 18.1795 7.64447 17.5641C7.55395 17.0158 7.83655 16.211 8.20083 15.9556C8.77707 15.5582 9.90083 15.6903 10.0631 16.1736C10.1437 16.4191 10.0432 16.713 9.85116 16.7791C9.59836 16.8639 9.49681 16.7505 9.63921 16.5424C9.74077 16.3817 9.72973 16.3343 9.56856 16.211C9.08285 15.8797 8.35427 16.1736 8.18207 16.7593C7.97012 17.5156 8.30349 18.283 8.98129 18.5945C9.54759 18.8598 10.6912 18.8786 11.0964 18.6419C11.8856 18.1784 12.3813 16.92 12.1384 15.9743C12.0071 15.4536 11.4606 14.8107 10.7519 14.3659L10.3071 14.073L10.1448 14.4606C10.0587 14.6642 9.98252 14.7765 10.0035 14.9053C9.87213 14.8305 9.82466 14.8437 9.73414 14.7644C9.6933 14.6797 9.61934 14.5839 9.50785 14.6125C9.48246 14.6191 9.32901 14.7039 9.17668 14.7237C9.22966 14.6092 9.28265 14.6059 9.27603 14.4903C9.19434 14.5883 8.95921 14.6004 8.65564 14.6301C8.89408 14.5024 8.84882 14.4782 8.86648 14.3703C8.77596 14.4661 8.54856 14.5266 8.28473 14.5707C8.42051 14.4386 8.39733 14.3978 8.41057 14.2767C8.277 14.3989 7.95246 14.4683 7.83213 14.4606C7.9381 14.3461 7.93921 14.3472 7.937 14.2052C7.81888 14.2921 7.60031 14.28 7.40382 14.247C7.52414 14.1259 7.56168 13.9927 7.5683 13.8925C7.40934 14.0301 7.14992 14.0004 6.97992 13.974C7.11239 13.8639 7.19297 13.8011 7.23492 13.7329C7.28349 13.6459 7.25038 13.6173 7.08921 13.6173C6.97772 13.6173 6.90044 13.6844 6.73707 13.625C6.97551 13.5369 7.03953 13.2529 7.09362 13.2463C7.30668 13.2231 6.79668 13.6085 7.25369 13.5281C7.36739 13.5127 7.41927 13.5149 7.50427 13.5193C7.44466 13.6008 7.43473 13.6041 7.38395 13.6646C7.32655 13.7439 7.31551 13.8463 7.17973 13.9134C7.29453 13.9134 7.38836 13.9233 7.46453 13.8672C7.5407 13.811 7.54181 13.7879 7.70187 13.68C7.72395 13.7934 7.71291 13.8154 7.70187 13.8903C7.6809 14.0202 7.6544 14.0543 7.61246 14.1567C7.78687 14.1941 7.89395 14.1435 7.92486 14.073C7.97012 14.029 8.03525 13.9156 8.12466 13.8925C8.16109 13.9949 8.12246 13.9982 8.10921 14.0852C8.07168 14.182 8.06174 14.2514 8.02973 14.3428C8.20635 14.2954 8.31564 14.236 8.42713 14.1105C8.55518 14.0099 8.59897 14.0257 8.55849 14.1578C8.53311 14.2899 8.53973 14.3197 8.48785 14.4341C8.65785 14.4066 8.8157 14.3329 8.90181 14.2052C9.00336 14.0631 9.0133 14.073 8.97246 14.2525C8.96694 14.3736 8.98901 14.3934 8.957 14.5101C9.11155 14.4793 9.22525 14.4231 9.30583 14.2998C9.40739 14.1578 9.41733 14.1677 9.37648 14.3472C9.35109 14.4606 9.39746 14.4837 9.3257 14.6026C9.50012 14.5332 9.50785 14.5508 9.56856 14.4606C9.6094 14.3846 9.67564 14.4859 9.75622 14.6279C9.82246 14.7369 9.87544 14.7446 9.92401 14.7501C9.93616 14.6675 9.97259 14.6114 10.0532 14.4319C10.1437 14.2239 10.2044 14.0532 10.1945 14.0345C10.1746 14.0246 9.92181 13.9024 9.6381 13.7604C9.34447 13.6283 9.10161 13.4763 9.10161 13.4202C9.10161 13.3729 9.05083 13.3354 8.98018 13.3354C8.81791 13.3354 8.39291 12.9567 8.39291 12.8147C8.39291 12.7486 8.30239 12.5879 8.1909 12.4646C8.03966 12.2752 7.86746 12.2092 7.41155 12.1619C7.08921 12.109 6.81986 12.0297 6.65317 11.9439C6.56927 11.9031 6.55823 11.869 6.49421 11.8448C6.492 11.8943 6.52733 12.0474 6.64323 12.1519C6.70947 12.218 6.77681 12.2323 6.83642 12.2675C6.78012 12.3215 6.73927 12.4217 6.69401 12.4932C6.59246 12.6441 6.59246 12.6914 6.73486 12.7387C6.86622 12.7861 6.86622 12.8147 6.75473 12.8808C6.70947 12.9138 6.64103 12.9369 6.59246 12.9655C6.66752 12.9831 6.72603 12.9875 6.86953 12.9534C7.05168 12.8499 7.06603 12.8808 6.98655 12.9853C6.92252 13.0767 6.87836 13.178 6.78453 13.2485C6.89161 13.254 6.94129 13.2363 7.03733 13.2022C7.13888 13.1648 7.22388 13.1395 7.15434 13.2859C7.0881 13.3883 7.12453 13.2308 7.06161 13.3663C6.95343 13.3861 6.70836 13.3619 6.52843 13.3211C6.6896 13.2386 6.74921 13.1736 6.76908 13.1307C6.79888 13.0459 6.71278 13.0503 6.63109 13.0503C6.59577 13.0503 6.47875 13.0635 6.39155 12.9732C6.4644 12.9358 6.57479 12.9028 6.64103 12.8246C6.43349 12.7123 6.55382 12.5428 6.60239 12.4624C6.64213 12.3986 6.64544 12.3644 6.69181 12.2973C6.62778 12.2929 6.53505 12.1795 6.48869 12.1046C6.39265 11.9439 6.3507 11.7908 6.36505 11.6598C6.50194 11.7589 6.55492 11.7908 6.64103 11.8305C6.78564 11.9119 7.09694 12.0132 7.37181 12.0529C7.64668 12.0914 7.88512 12.087 7.88512 11.9923C7.88512 11.8976 7.99551 11.9053 7.91603 11.8294C7.767 11.6874 7.68642 11.5608 7.64005 11.4352C7.55285 11.3373 7.44356 11.3296 7.29895 11.3285C7.22168 11.367 7.07155 11.4 7.002 11.4947C6.93687 11.465 6.90265 11.2778 6.93577 11.1886C6.95012 11.1501 7.11791 11.0763 7.21174 11.073C7.30668 11.0697 7.35635 11.0951 7.43914 11.062C7.3409 11.0356 7.28791 11.0367 7.18525 10.9894C7.09473 10.9475 7.00642 10.9222 7.01856 10.8683C7.03291 10.8011 7.53518 10.8474 7.60583 10.8496C7.66434 10.8518 7.49655 10.7868 7.37291 10.7725C7.29122 10.745 7.11129 10.756 6.92804 10.6294C7.06272 10.5479 7.13447 10.582 7.24486 10.5446M7.66213 10.56C7.62129 10.6404 7.13336 10.6184 7.26914 10.6514C7.26914 10.6514 7.64557 10.7163 7.77031 10.8165C7.79239 10.9046 7.66103 10.9442 7.66103 10.9442L7.18304 10.8969C7.17752 10.9586 7.64778 10.9817 7.63122 11.073C7.6257 11.1028 7.65772 11.1589 7.50096 11.1424C7.35856 11.149 7.18414 11.1347 7.07817 11.1864C7.0009 11.2228 6.99207 11.302 7.01635 11.3703C7.0859 11.3174 7.19629 11.2734 7.257 11.2547C7.38616 11.2393 7.47999 11.2635 7.5683 11.2987C7.65661 11.334 7.71733 11.3714 7.79349 11.5112C7.84427 11.6345 8.00544 11.7765 8.15778 11.8327C8.32005 11.88 8.57836 12.0099 8.69427 12.1541C8.82233 12.3149 8.91836 12.4448 9.22746 12.6121C9.53103 12.8675 9.2683 12.7773 9.39856 12.7949C9.74739 12.8444 9.93836 12.9204 9.99908 12.9963C10.0697 13.0723 10.232 13.1571 10.3634 13.1857C10.5047 13.2231 10.6162 13.2903 10.6162 13.3365C10.6162 13.3938 10.6868 13.4312 10.7784 13.4312C11.0014 13.4312 11.9927 14.4055 12.1749 14.793C12.5193 15.5219 12.58 15.7861 12.58 16.4962C12.5701 16.9696 12.5093 17.3945 12.4177 17.5938C12.2157 18.0386 11.3525 18.9314 11.1195 18.9314C11.0787 18.9424 11.0952 18.938 11.0467 18.9457C11.0246 18.9765 11.0114 18.9798 10.933 19.014C10.8182 19.0679 10.6702 19.0943 10.4914 19.0987C10.3126 19.1031 10.0995 19.0866 9.85557 19.0547C9.61161 19.0228 9.37207 18.9754 9.19323 18.9204C9.0144 18.8653 8.94927 18.8356 8.89739 18.7839C8.88194 18.7685 8.84109 18.7486 8.84771 18.6826C8.81129 18.7134 8.72518 18.7068 8.62362 18.6198C8.54083 18.5494 8.46135 18.5175 8.5022 18.447C8.39291 18.436 8.37414 18.393 8.28804 18.2797C8.23174 18.2048 8.16661 18.1387 8.19421 18.0341C8.11914 18.0485 8.08161 17.9494 8.03856 17.8558C8.00103 17.7743 7.93369 17.662 8.01759 17.6224C7.92044 17.6246 7.93921 17.5145 7.92707 17.4375C7.91492 17.3604 7.89064 17.2415 7.98888 17.2206C7.88953 17.1908 7.93148 17.0951 7.94694 17.0081C7.96791 16.887 7.98005 16.8209 8.06285 16.8055C7.98888 16.7747 8.03414 16.6613 8.08272 16.5061C8.12135 16.3817 8.21187 16.3365 8.31453 16.3563C8.21629 16.2859 8.39622 16.1714 8.43486 16.1406C8.54194 16.0569 8.66447 16.025 8.68875 16.08C8.67882 15.9776 9.05966 15.9688 9.20538 15.9842C9.35109 15.9997 9.47914 16.0613 9.61603 16.1648C9.82798 16.3255 9.83901 16.3729 9.72752 16.5435C9.59616 16.7615 9.69772 16.8088 9.88979 16.6283C10.0918 16.4389 10.0311 16.2022 9.73856 15.9853C9.51557 15.8147 9.36434 15.7872 8.98018 15.8147C8.30239 15.8808 8.02862 16.08 7.83655 16.6657C7.53298 17.64 7.94804 18.6055 8.85875 19.0217C9.26388 19.2011 9.50674 19.2485 10.1636 19.2485C11.1251 19.2386 11.7223 19.0217 12.2786 18.4448C12.623 18.0947 13.0072 17.1798 12.8858 17.0103C12.6882 16.9321 12.8858 16.931 12.9465 16.931C13.0271 16.931 13.058 16.5391 12.9067 16.4675C13.207 16.4675 13.048 16.1175 12.867 16.0481C13.0293 16.0448 13.1099 15.8962 13.1143 15.7398C13.1187 15.5835 13.048 15.4173 12.9089 15.3798C12.8041 15.3512 12.9001 15.3248 12.9995 15.3039C13.1176 15.2786 13.1628 15.262 13.1474 15.0661C13.1297 14.9373 13.0812 14.7226 12.9818 14.683C12.8791 14.6422 12.7202 14.6301 12.6308 14.6224C12.7389 14.5894 12.8416 14.5707 12.9255 14.5641C13.1077 14.4936 13.1695 14.149 13.005 14.0521C12.8416 13.9552 12.4288 14.1457 12.4078 14.0675C12.4884 13.985 12.7367 13.9652 12.8471 13.8903C12.9829 13.7659 13.1077 13.647 12.8847 13.3541C12.7732 13.1934 12.7908 13.1538 12.6617 13.1086C12.4906 13.102 12.1241 13.3167 11.8437 13.309C11.9717 13.2088 12.4089 13.1285 12.548 13.0349C12.6871 12.9402 12.5811 12.7938 12.4387 12.6253C12.2665 12.4833 12.1958 12.4745 11.9728 12.5681C11.8216 12.6253 11.581 12.6837 11.3204 12.7244C11.422 12.6264 11.8812 12.5208 11.9828 12.4448C12.1749 12.3127 12.1749 12.2565 11.9927 12.0672L11.7201 11.9626L11.4154 12.1134C11.1924 12.2081 10.848 12.3204 10.848 12.2918C10.848 12.273 11.1626 12.142 11.3238 12.0562C11.496 11.9714 11.6008 11.8481 11.6008 11.782C11.6008 11.5453 11.3679 11.5145 11.0091 11.7468C10.827 11.8459 10.3722 11.9758 10.3457 11.9285C10.3115 11.869 10.6504 11.8107 10.8182 11.7347C10.9849 11.6455 11.2973 11.5002 11.2973 11.4253C11.2564 11.2965 11.0721 11.2052 10.2717 11.1204C9.67453 11.0543 9.36103 10.8749 9.0983 10.4675C8.77486 9.97543 8.83557 9.54938 9.27051 9.16185L9.63479 8.84039L9.42285 9.14314C9.02875 9.67268 9.22083 10.3068 9.7772 10.3068C9.90856 10.3068 10.1006 10.3541 10.2022 10.4202C10.3435 10.4962 10.4671 10.4797 10.5864 10.4466L10.7795 10.3938L10.8469 10.3806L10.5665 10.2033C10.253 10.0613 10.1216 9.78717 10.2938 9.62644C10.3545 9.56919 10.3744 9.62644 10.3446 9.77727C10.3038 9.95672 10.3446 10.0426 10.4859 10.0899C10.5875 10.1373 10.7895 10.2408 10.9208 10.3354C11.3558 10.6283 11.943 10.9696 12.0038 10.9696C12.0336 10.9696 11.9839 10.8749 11.8724 10.7516C11.7609 10.6382 11.8216 10.6569 12.0038 10.8176C12.2764 11.0444 12.3581 11.073 12.4895 10.9685C12.7125 10.7978 12.6815 10.723 12.2974 10.4951C12.0645 10.3718 11.9033 10.1736 11.8216 9.94681C11.7609 9.75745 11.6593 9.54938 11.6196 9.49323C11.5589 9.42717 11.5887 9.3424 11.6803 9.26644C11.7664 9.20039 11.8525 9.04626 11.8437 8.99011C11.8039 8.99672 11.773 9.00772 11.7311 9.02974C11.6803 9.05837 11.6295 9.01984 11.6295 8.93506C11.6295 8.89213 11.6649 8.73139 11.6549 8.69176C11.6306 8.7325 11.5589 8.82607 11.528 8.84039C11.4772 8.86901 11.4165 8.84039 11.4165 8.77433C11.401 8.63672 11.3823 8.59708 11.3701 8.53213C11.3491 8.56736 11.2443 8.70828 11.1968 8.7424C11.2377 8.63782 11.2056 8.30314 11.188 8.27121C11.1847 8.36149 11.1306 8.52112 11.1151 8.57837C11.008 8.72039 10.9815 8.75121 10.8601 8.78534C10.7575 8.78864 10.7078 8.75011 10.5665 8.59378C10.4252 8.43305 10.338 8.31195 10.3302 8.23048C10.3302 8.14571 10.6305 7.80883 10.986 7.68222C11.1361 7.63158 11.1571 7.61617 11.2498 7.59305C11.2244 7.58754 11.188 7.55451 11.0776 7.5358C11.0202 7.52589 10.7873 7.52699 10.6371 7.59305C10.5025 7.63378 10.1923 7.75708 10.0499 7.89029C9.97259 7.9024 10.0598 7.6602 9.97038 7.69543C9.88096 7.73066 9.91629 7.98167 9.84012 8.0202C9.72642 8.07635 9.70875 7.89139 9.65798 7.89139C9.6072 7.8958 9.69882 8.11158 9.60499 8.16222C9.54317 8.19525 9.33012 7.95084 9.30473 7.98827C9.28596 8.018 9.46921 8.21947 9.41953 8.25029C9.35882 8.29543 9.36434 8.35488 9.22966 8.30534C9.11927 8.2536 8.63135 7.96626 8.50551 7.97506C8.62252 8.04662 8.71304 8.1336 8.83999 8.24149C9.042 8.43965 9.0994 8.46497 8.93713 8.48809C8.787 8.46497 8.74947 8.42204 8.67551 8.46938C8.63797 8.4925 8.70973 8.67194 8.65895 8.70057C8.60817 8.72919 8.43596 8.66644 8.4172 8.68516C8.33992 8.76002 8.47681 8.8591 8.43155 8.96809C8.37083 9.12883 8.34103 9.12883 8.13791 8.99672C7.97564 8.88772 7.76921 8.80956 7.76259 8.85139C7.75486 8.90534 7.80343 8.93066 7.89505 9.05396C8.18869 9.44149 8.107 9.51745 7.53077 9.4613C7.53077 9.4613 7.06161 9.3336 6.92031 9.53396C7.0594 9.50974 7.39168 9.57139 7.48109 9.60772C7.52966 9.62754 7.63343 9.68589 7.72285 9.75195C7.76811 9.78497 7.74161 9.81139 7.71512 9.88516C7.61025 9.92039 7.49544 9.9424 7.3707 9.9358C7.74603 10.0767 7.71291 9.96002 7.84869 10.0316C7.75044 10.1824 7.67317 10.1714 7.33869 10.2154C7.2559 10.2529 7.17531 10.2705 7.08479 10.2936C6.99096 10.3167 6.93356 10.385 6.95674 10.3927C6.97992 10.4004 7.07155 10.3784 7.17531 10.3696C7.29674 10.3707 7.23382 10.3696 7.50427 10.396C7.63122 10.4246 7.68752 10.5116 7.66323 10.5589L7.66213 10.56Z" fill="#12110B"/>
<path d="M11.1084 9.61544C11.1084 9.67049 11.0742 9.71563 11.0322 9.71563C10.9903 9.71563 10.9561 9.67049 10.9561 9.61544C10.9561 9.5604 10.9903 9.51526 11.0322 9.51526C11.0742 9.51526 11.1073 9.55819 11.1084 9.61214" fill="#12110B"/>
<path d="M11.2628 9.68925C11.2143 9.80374 11.0719 9.86209 10.9438 9.81806C10.8169 9.77402 10.7528 9.64521 10.8014 9.53072C10.85 9.41622 10.9924 9.35787 11.1204 9.40191C11.2474 9.44595 11.3114 9.57365 11.2628 9.68925Z" stroke="#12110B" stroke-width="0.1"/>
<path d="M10.3701 9.31604C10.6891 9.15861 11.1307 9.40301 11.1307 9.40301" stroke="#12110B" stroke-width="0.1"/>
<path d="M7.97577 12.0286C7.96473 11.9779 7.98902 11.9526 8.07733 11.8998C8.18551 11.9119 8.37428 11.9846 8.4935 12.0836C8.69662 12.2521 8.72753 12.3148 8.84233 12.459C8.79597 12.546 8.76506 12.5647 8.67675 12.6451C8.58623 12.7001 8.53324 12.7343 8.47253 12.7607C8.42396 12.6187 8.36434 12.5493 8.22967 12.3864C8.16675 12.2961 7.98019 12.2279 7.88525 12.1618C7.90512 12.0913 7.94266 12.0858 7.97688 12.0286H7.97577Z" fill="#E7E6E6"/>
<path d="M8.73657 12.6969C8.8293 12.6407 8.85469 12.5615 8.91872 12.5251C9.00372 12.5593 8.98164 12.5692 9.11963 12.633C9.26865 12.7211 9.21456 12.7013 9.32937 12.8455C9.283 12.9325 9.25761 12.9721 9.18696 13.0646C9.10859 13.1307 9.10748 13.1802 9.03463 13.2617C8.89885 13.2286 8.81054 13.1802 8.70456 13.0668C8.6295 12.982 8.54229 12.9787 8.50586 12.8367C8.6019 12.7773 8.68028 12.7497 8.73657 12.698V12.6969Z" fill="#E7E6E6"/>
<path d="M9.26507 13.0987C9.33461 13.0095 9.34786 12.9468 9.40747 12.8829C9.51013 12.895 9.59293 12.9105 9.71325 12.9468C9.87884 12.9798 9.90091 13.0316 9.98702 13.1152C9.94065 13.2022 9.93293 13.3123 9.8965 13.4697C9.87 13.5787 9.84572 13.6393 9.79604 13.7372C9.66026 13.6822 9.55981 13.6338 9.4428 13.5644C9.32137 13.4961 9.20435 13.4279 9.15137 13.2848C9.21208 13.1813 9.20877 13.1494 9.26617 13.0976L9.26507 13.0987Z" fill="#E7E6E6"/>
<path d="M9.99021 13.5215C10.0189 13.4004 10.0156 13.2716 10.0796 13.1758C10.1823 13.1879 10.1657 13.2198 10.2872 13.2561C10.413 13.3057 10.498 13.3189 10.5664 13.4466C10.4561 13.5446 10.4307 13.5303 10.3942 13.6866C10.3677 13.7956 10.4196 13.9486 10.3699 14.0466C10.2342 13.9916 10.2209 13.9596 10.1039 13.8892C9.98248 13.8209 9.97034 13.8506 9.89307 13.778C9.93722 13.6536 9.96261 13.593 9.99021 13.5204V13.5215Z" fill="#E7E6E6"/>
<path d="M10.4907 13.6953C10.5492 13.5852 10.5735 13.5599 10.6386 13.5071C10.7589 13.5522 10.8119 13.5236 10.9267 13.6205C11.0349 13.692 11.2601 13.8682 11.3451 13.9519C11.2634 13.9893 11.1872 14.0157 11.0923 14.1324C10.9974 14.2491 11.025 14.281 10.9687 14.4109C10.8671 14.3504 10.8196 14.3185 10.7258 14.2645C10.6276 14.1797 10.5867 14.1544 10.4741 14.0829C10.5183 13.964 10.4741 13.79 10.4896 13.6953H10.4907Z" fill="#E7E6E6"/>
<path d="M11.1582 14.2062C11.2167 14.0961 11.2995 14.0763 11.3635 14.0234C11.4838 14.0686 11.5313 14.1655 11.6461 14.2612C11.7885 14.4088 11.8106 14.433 11.879 14.5222C11.7742 14.5706 11.7443 14.575 11.6494 14.6543C11.5512 14.7357 11.5236 14.7379 11.4562 14.8084C11.3845 14.7324 11.3944 14.7379 11.3006 14.651C11.2023 14.5662 11.1902 14.5684 11.061 14.4583C11.0986 14.3339 11.1184 14.2899 11.1582 14.2062Z" fill="#E7E6E6"/>
<path d="M11.7157 14.7324C11.7853 14.6818 11.8515 14.6455 11.91 14.6091C11.9663 14.6708 12.0193 14.7181 12.0535 14.7875C12.1087 14.8535 12.1131 14.8667 12.1584 14.9559C12.0535 15.0044 12.0646 14.9923 11.9862 15.0275C11.91 15.0616 11.878 15.1001 11.7875 15.1541C11.7157 15.0781 11.7665 15.1056 11.6716 15.0187C11.6263 14.9669 11.602 14.9251 11.5303 14.859C11.6318 14.7776 11.6462 14.7666 11.7146 14.7313L11.7157 14.7324Z" fill="#E7E6E6"/>
<path d="M11.9918 15.1155C12.0757 15.0781 12.1121 15.0583 12.1827 15.0308C12.2302 15.1144 12.2423 15.1265 12.2766 15.1948C12.2975 15.2531 12.313 15.2818 12.3494 15.3776C12.271 15.404 12.2468 15.4117 12.1949 15.4337C12.1419 15.4557 12.0867 15.4865 12.0249 15.5196C11.9675 15.4183 11.9686 15.4414 11.9355 15.382C11.9045 15.3247 11.8836 15.3071 11.8262 15.23C11.9101 15.1706 11.9366 15.1486 11.9907 15.1166L11.9918 15.1155Z" fill="#E7E6E6"/>
<path d="M12.2017 15.5074C12.2856 15.47 12.2856 15.4788 12.3562 15.4513C12.4037 15.535 12.4368 15.6814 12.4622 15.7717C12.481 15.874 12.4964 15.9874 12.5019 16.1118C12.4269 16.1251 12.4578 16.1173 12.3926 16.1295C12.3275 16.1416 12.3242 16.1438 12.2547 16.1713C12.2337 16.0359 12.216 15.961 12.1785 15.8685C12.1531 15.8036 12.1012 15.6561 12.0449 15.579C12.1167 15.5427 12.1465 15.5416 12.2006 15.5096L12.2017 15.5074Z" fill="#E7E6E6"/>
<path d="M12.3836 16.2077C12.4101 16.2022 12.4377 16.1978 12.4929 16.1934C12.5029 16.3706 12.504 16.4135 12.4984 16.5897C12.4841 16.7746 12.4819 16.9244 12.4499 17.1115C12.4145 17.1016 12.4057 17.0917 12.3406 17.0884C12.2755 17.0851 12.2788 17.084 12.2114 17.0884C12.2589 16.9123 12.26 16.8528 12.2743 16.6436C12.2799 16.4807 12.2799 16.4279 12.2655 16.244C12.3174 16.2286 12.3395 16.2176 12.3825 16.2066L12.3836 16.2077Z" fill="#E7E6E6"/>
<path d="M12.293 17.1754C12.3195 17.1699 12.3835 17.1765 12.4387 17.1732C12.3791 17.4848 12.3305 17.6015 12.2179 17.793C12.0844 17.9736 11.9552 18.1431 11.7841 18.3149C11.7631 18.3017 11.7488 18.283 11.7289 18.2653C11.709 18.2477 11.6936 18.2422 11.6704 18.2224C11.8658 17.9813 11.9 17.9097 12.0159 17.6885C12.112 17.4683 12.1285 17.4077 12.1926 17.1666C12.2444 17.1853 12.25 17.1864 12.293 17.1754Z" fill="#E7E6E6"/>
<path d="M11.6817 18.316C11.7148 18.3358 11.6982 18.3292 11.7501 18.3589C11.6706 18.4481 11.6132 18.4987 11.4642 18.6364C11.3516 18.7134 11.3185 18.7806 11.0878 18.8675C11.0602 18.8389 11.0591 18.8345 11.0458 18.8169C11.0326 18.7993 11.027 18.7949 11.0127 18.7597C11.1297 18.7255 11.2677 18.6496 11.356 18.567C11.5017 18.4503 11.5381 18.3975 11.6353 18.283C11.6574 18.2962 11.6684 18.3017 11.6828 18.3149L11.6817 18.316Z" fill="#E7E6E6"/>
<path d="M10.954 18.8487C10.9728 18.8763 10.965 18.884 10.9827 18.9159C10.8778 18.9743 10.8546 18.9787 10.5985 19.026C10.2839 19.0359 10.1504 19.0293 10.0024 19.0106C10.008 18.9742 10.008 18.9698 10.0102 18.9357C10.0113 18.9027 10.0069 18.9137 10.0102 18.8785C10.3049 18.8972 10.3943 18.8785 10.5102 18.8708C10.72 18.852 10.8778 18.8069 10.9275 18.7948C10.9496 18.8333 10.9474 18.8234 10.9529 18.8498L10.954 18.8487Z" fill="#E7E6E6"/>
<path d="M9.92502 18.9413C9.91839 18.9699 9.9195 18.9611 9.91067 19.0029C9.66671 18.9633 9.66119 18.9677 9.36645 18.9116C9.14346 18.8521 9.0706 18.807 8.93261 18.7387C8.92268 18.6936 8.92489 18.6991 8.93593 18.6793C8.95028 18.654 8.93924 18.6628 8.97235 18.644C9.13573 18.7354 9.31125 18.7629 9.40508 18.7927C9.62917 18.8356 9.73956 18.8477 9.92943 18.8664C9.92722 18.9061 9.92722 18.916 9.92391 18.9424L9.92502 18.9413Z" fill="#E7E6E6"/>
<path d="M8.87003 18.6209C8.8325 18.6473 8.83029 18.6594 8.78393 18.6528C8.70776 18.6429 8.69782 18.6231 8.62496 18.5669C8.58964 18.5394 8.53334 18.4866 8.54438 18.4679C8.55873 18.4425 8.58412 18.3677 8.61613 18.4172C8.64483 18.4601 8.76516 18.5262 8.83581 18.5713C8.89211 18.6077 8.88438 18.6099 8.87003 18.6209Z" fill="#E7E6E6"/>
<path d="M8.5045 18.3863C8.46145 18.3996 8.47249 18.4073 8.43606 18.3786C8.40736 18.3555 8.38749 18.3159 8.3345 18.2586C8.3047 18.2256 8.24509 18.1309 8.24177 18.11C8.23405 18.0484 8.27048 18.0076 8.29918 18.0594C8.34996 18.1497 8.41509 18.2454 8.5045 18.3214C8.55528 18.3643 8.52106 18.383 8.5045 18.3875V18.3863Z" fill="#E7E6E6"/>
<path d="M8.24172 17.9912C8.19867 18.0044 8.20309 18.0121 8.16776 17.9835C8.13906 17.9603 8.11036 17.8998 8.07614 17.8304C8.05627 17.7897 8.01322 17.7291 8.02867 17.6884C8.04634 17.6444 8.10815 17.6136 8.12471 17.6675C8.15341 17.7666 8.16335 17.7677 8.21302 17.8833C8.23179 17.9284 8.25828 17.9846 8.24062 17.9901L8.24172 17.9912Z" fill="#E7E6E6"/>
<path d="M8.10034 17.5706C8.08378 17.6014 8.05177 17.597 8.00209 17.5761C7.96125 17.5584 7.9767 17.499 7.97008 17.423C7.96677 17.3823 7.95794 17.3449 7.97008 17.2909C7.98001 17.2447 8.07384 17.2271 8.08047 17.2843C8.08488 17.3251 8.07826 17.3493 8.08709 17.4197C8.10034 17.5331 8.11358 17.5463 8.10034 17.5706Z" fill="#E7E6E6"/>
<path d="M8.06291 17.1732C8.05298 17.1986 8.01324 17.1908 7.98895 17.1633C7.96025 17.1314 7.99447 17.0742 7.99668 17.0103C7.99778 16.9696 8.00992 16.9288 8.03311 16.8782C8.04746 16.8474 8.09934 16.843 8.10044 16.9002C8.10044 16.9277 8.09272 16.9641 8.08499 17.0246C8.07616 17.0907 8.07947 17.1325 8.06402 17.1732H8.06291Z" fill="#E7E6E6"/>
<path d="M8.13494 16.7724C8.12501 16.7977 8.08085 16.7735 8.07313 16.7394C8.06098 16.6876 8.09962 16.6315 8.11507 16.5688C8.12832 16.517 8.15371 16.4543 8.19897 16.4201C8.23209 16.3948 8.2917 16.3805 8.27845 16.4366C8.26851 16.4796 8.20228 16.5621 8.1802 16.6315C8.15923 16.6954 8.14929 16.7317 8.13384 16.7724H8.13494Z" fill="#E7E6E6"/>
<path d="M8.40414 16.3133C8.37544 16.3133 8.34122 16.3221 8.35005 16.288C8.35888 16.2572 8.38979 16.2429 8.4494 16.1988C8.48031 16.1757 8.5344 16.135 8.5642 16.1207C8.59953 16.1042 8.66687 16.0843 8.64368 16.1372C8.63375 16.1592 8.60284 16.168 8.54765 16.2032C8.48914 16.2407 8.42291 16.3133 8.40304 16.3133H8.40414Z" fill="#E7E6E6"/>
<path d="M25.1036 7.46973C25.3365 7.50055 25.5131 7.56 25.7482 7.69211C25.8233 7.73505 25.895 7.76587 25.9072 7.76147C25.9204 7.75707 25.9348 7.71964 25.9414 7.6756C25.948 7.63376 25.9624 7.58642 25.9745 7.57211C26.0076 7.52918 26.0385 7.56441 26.0993 7.70863C26.1269 7.77798 26.1589 7.84404 26.1666 7.85285C26.1964 7.88698 26.2361 7.87487 26.2836 7.81872C26.3311 7.76147 26.4039 7.74496 26.4205 7.78679C26.4249 7.7989 26.4216 7.84844 26.4128 7.89798C26.383 8.0422 26.4304 8.06422 26.5651 7.96734C26.6821 7.88257 26.7263 7.86606 26.7704 7.88698C26.8168 7.91009 26.8146 7.94202 26.7561 8.06973C26.7053 8.18092 26.702 8.26019 26.7517 8.19523C26.7649 8.17872 26.8256 8.14019 26.8886 8.11266C26.9515 8.08294 27.0475 8.0356 27.106 8.00477C27.1634 7.97505 27.2429 7.93982 27.2815 7.92661C27.3544 7.90349 27.7452 7.84954 27.7783 7.86055C27.7882 7.86386 27.7341 7.90459 27.6602 7.95413C27.4979 8.05872 27.1855 8.32624 27.1855 8.36037C27.1855 8.38019 27.2032 8.38349 27.3169 8.37468C27.467 8.36257 27.4637 8.35817 27.4306 8.50349C27.4195 8.55413 27.4173 8.58826 27.4273 8.59707C27.4372 8.60587 27.488 8.60367 27.5652 8.58826C27.6326 8.57615 27.6922 8.56514 27.6988 8.56514C27.7231 8.56514 27.7121 8.68624 27.6778 8.78973C27.6447 8.88661 27.6447 8.89542 27.6712 8.91303C27.7043 8.93615 27.7419 8.92514 27.9913 8.81725C28.1393 8.7523 28.1768 8.74239 28.2574 8.74459C28.3082 8.74569 28.3689 8.7567 28.3943 8.76881L28.4406 8.79083L28.3336 8.89872C28.2066 9.02753 28.0785 9.20037 28.0587 9.26863C28.0223 9.38422 28.1437 9.40404 28.5532 9.3545C28.7773 9.32698 28.9286 9.33138 29.0025 9.36881C29.0599 9.39633 29.2575 9.56808 29.2575 9.5912C29.2575 9.5989 29.1626 9.60991 29.0456 9.61432C28.8005 9.62312 28.6228 9.66386 28.4771 9.73872C28.3391 9.80918 28.3424 9.82459 28.4914 9.82459C28.6161 9.82459 28.689 9.84331 28.7541 9.89175C28.785 9.91487 28.785 9.91597 28.7541 9.94899C28.7067 9.99854 28.6139 10.0371 28.5013 10.0536C28.4439 10.0624 28.3943 10.0723 28.391 10.0767C28.3876 10.08 28.4384 10.091 28.5047 10.0998C28.6758 10.1262 28.9153 10.1923 29.0323 10.2473C29.1372 10.2969 29.1427 10.3024 29.1637 10.4455L29.1736 10.5039L29.1206 10.4928C29.0389 10.4763 28.6139 10.4664 28.5455 10.4807C28.4406 10.5028 28.4704 10.5237 28.6327 10.5424C28.8369 10.5655 28.9517 10.5864 29.0058 10.6128L29.0489 10.6349L28.9606 10.6745C28.9109 10.6976 28.7983 10.7295 28.7078 10.7472C28.3236 10.8209 28.275 10.8628 28.5974 10.8473C28.8623 10.8352 28.9672 10.844 28.9595 10.8826C28.9517 10.9255 28.7884 10.9993 28.6195 11.0389C28.5157 11.0631 28.5554 11.0818 28.7243 11.0884C28.8767 11.0928 28.9926 11.1303 29.04 11.1897C29.0776 11.2338 29.0544 11.4374 29.0102 11.4628C29.0003 11.4672 28.9804 11.4617 28.9661 11.4484C28.9517 11.4341 28.8844 11.4011 28.816 11.3703C28.689 11.313 28.6879 11.313 28.5069 11.3395C28.4296 11.3505 28.3623 11.4099 28.3049 11.5211C28.2773 11.5728 28.2198 11.6565 28.1768 11.7061C28.1337 11.7556 28.0852 11.8117 28.0686 11.8316C28.0377 11.8668 28.0377 11.869 28.0719 11.9328C28.0896 11.9703 28.1095 12.011 28.115 12.0253C28.1448 12.1211 28.6471 12.0881 29.0434 11.9659C29.2012 11.9163 29.4341 11.8095 29.5401 11.7369L29.6207 11.6818V11.7413C29.6207 11.8888 29.4971 12.1398 29.3745 12.2422L29.2961 12.3083L29.3767 12.4525C29.4772 12.6319 29.4838 12.7013 29.4065 12.7739C29.3789 12.8015 29.3591 12.8323 29.3657 12.8444C29.3701 12.8565 29.4132 12.8873 29.4606 12.9116C29.6086 12.9897 29.6019 12.982 29.5412 13.0117C29.5114 13.0272 29.4308 13.0426 29.3657 13.047C29.2928 13.0536 29.2354 13.0635 29.2255 13.0767C29.1847 13.1229 29.2697 13.2242 29.4176 13.3068C29.4419 13.3211 29.4242 13.3266 29.3171 13.342C29.2443 13.3508 29.1394 13.3607 29.0842 13.3618L28.9826 13.3651L29.0169 13.4235C29.0577 13.4928 29.135 13.5677 29.199 13.6051L29.2454 13.6327L29.1946 13.6393C29.167 13.6437 29.1096 13.6404 29.0665 13.6349C28.9429 13.6161 28.7939 13.6195 28.7608 13.6415C28.71 13.6767 28.753 13.7571 28.8811 13.8716L28.9926 13.9728L28.9197 13.9839C28.7828 14.0026 28.6106 13.9828 28.519 13.9376C28.4715 13.9156 28.4307 13.8991 28.4274 13.9024C28.4042 13.9255 28.4936 14.1479 28.551 14.2095C28.5643 14.2239 28.5709 14.2404 28.5643 14.2481C28.5576 14.2547 28.4693 14.2591 28.3689 14.2591C28.2254 14.2591 28.1713 14.2525 28.1293 14.2316C28.0984 14.2173 28.0697 14.2051 28.0664 14.2051C28.0653 14.2051 28.062 14.2371 28.062 14.2778C28.062 14.3295 28.073 14.3626 28.105 14.4011L28.1459 14.4517H28.0995C27.9924 14.4506 27.7397 14.3736 27.6491 14.3119C27.5895 14.2734 27.5851 14.2745 27.5851 14.3317C27.5862 14.3967 27.6226 14.4903 27.6602 14.5299C27.6944 14.5673 27.6867 14.5673 27.5255 14.5288C27.3809 14.4947 27.2528 14.4473 27.1866 14.4044C27.1259 14.3626 27.1193 14.367 27.1325 14.4319C27.1469 14.509 27.1789 14.553 27.2407 14.5839C27.2683 14.596 27.2882 14.6114 27.2837 14.6147C27.2705 14.629 26.9239 14.5773 26.8444 14.5519C26.8047 14.5398 26.7594 14.5167 26.7428 14.5024C26.7152 14.4793 26.713 14.4793 26.713 14.5167C26.713 14.5387 26.7307 14.5872 26.7539 14.6279C26.7771 14.6686 26.7947 14.7028 26.7947 14.7083C26.7947 14.7204 26.7042 14.6939 26.5993 14.651C26.5419 14.6268 26.4746 14.607 26.4492 14.607C26.3929 14.607 26.3278 14.6543 26.277 14.7303C26.2494 14.7721 26.2063 14.8029 26.1247 14.8415L26.0098 14.8954L26.0032 14.8327C25.9955 14.7754 25.7239 14.1083 25.6974 14.0829C25.6864 14.0719 25.3552 14.2844 25.0362 14.5057C24.8441 14.6389 24.4015 15.0495 24.2723 15.2158C23.9158 15.6705 23.7987 15.9842 23.7976 16.4917C23.7976 16.7714 23.8175 16.92 23.886 17.1897C24.0372 17.7644 24.3893 18.3116 24.7878 18.5879C25.0506 18.7706 25.3619 18.8323 25.9403 18.8158C26.6402 18.796 27.0773 18.6595 27.4019 18.3622C27.6414 18.1409 27.7993 17.8525 27.8655 17.5134C27.8754 17.4584 27.8832 17.3229 27.8832 17.2139C27.8832 16.8385 27.7926 16.5787 27.595 16.3806C27.4239 16.2099 27.2418 16.1163 27.0078 16.0822C26.7859 16.0503 26.5331 16.1196 26.3763 16.2528C26.2682 16.3464 26.2626 16.3916 26.3487 16.5512C26.4238 16.6943 26.4304 16.7306 26.383 16.7758C26.3388 16.8176 26.2461 16.8154 26.1412 16.7681C25.9889 16.702 25.9127 16.5402 25.926 16.3167C25.9392 16.1152 26.0397 15.9842 26.266 15.8774C26.4867 15.7739 26.5982 15.7541 26.9415 15.7563C27.2263 15.7563 27.255 15.7596 27.393 15.7993C27.669 15.8774 27.8368 15.982 27.9671 16.1516C28.2629 16.5424 28.4252 17.2117 28.3302 17.6455C28.2563 17.9758 28.0587 18.3336 27.7849 18.6286C27.3213 19.1295 26.7064 19.3585 25.8244 19.3585C25.1698 19.3585 24.7061 19.2418 24.2469 18.9622C23.7336 18.6517 23.4024 18.2488 23.121 17.5993C23.0459 17.4209 23.0161 17.3108 23.0028 17.1567C22.9984 17.0818 22.9852 17.0202 22.9697 17.0048C22.9035 16.9343 22.8814 16.7328 22.9223 16.6018L22.9465 16.5281L22.8958 16.4862C22.8052 16.4114 22.8152 16.2484 22.9167 16.1395L22.9642 16.0888L22.9101 16.0382C22.8395 15.971 22.8085 15.8433 22.8218 15.6738C22.8295 15.5571 22.8858 15.3941 22.9167 15.3941C22.9498 15.3941 22.9278 15.3523 22.8803 15.327C22.8063 15.2851 22.7666 15.2158 22.7666 15.1244C22.7666 14.9384 22.8483 14.6521 22.9101 14.6312C22.9344 14.6224 22.9399 14.5806 22.9167 14.5806C22.8792 14.5806 22.8284 14.4363 22.8196 14.3053C22.8097 14.1413 22.8439 14.0147 22.9167 13.9475L22.9642 13.9013L22.9134 13.8033C22.8693 13.7185 22.8626 13.6943 22.8704 13.6239C22.888 13.4609 23.0812 13.1593 23.2258 13.0701C23.2788 13.0382 23.2932 13.0195 23.2932 12.9842C23.2932 12.8807 23.3837 12.7288 23.5349 12.5769C23.6928 12.4206 23.7436 12.349 23.7767 12.2389C23.7998 12.1684 23.8241 12.131 23.8937 12.0672C23.9743 11.9923 24.1454 11.8965 24.2469 11.8723C24.2679 11.8679 24.28 11.8525 24.28 11.8283C24.2811 11.7303 24.4114 11.5651 24.5262 11.5167C24.5836 11.4925 24.5924 11.4826 24.5924 11.4385C24.5924 11.3758 24.6487 11.313 24.7801 11.2283C24.9048 11.1501 25.1024 11.1028 25.406 11.0774C26.0452 11.0279 26.33 10.9288 26.6302 10.6492C26.8124 10.4796 26.883 10.3662 26.9493 10.1417C27.0034 9.9556 27.0067 9.78165 26.957 9.64624C26.9228 9.55046 26.8124 9.3578 26.7925 9.3578C26.7859 9.3578 26.7958 9.40844 26.8135 9.46899C26.8565 9.61542 26.861 9.85432 26.8212 9.97101C26.7671 10.1339 26.66 10.255 26.511 10.3277C26.4095 10.3773 26.3598 10.3872 26.1854 10.4026C26.0043 10.418 25.8829 10.4521 25.8233 10.5028C25.735 10.5798 25.5352 10.5886 25.3453 10.527C25.2956 10.5105 25.204 10.4917 25.14 10.4873L25.0219 10.4763L24.8695 10.5765C24.7117 10.6778 24.0295 11.0378 23.9091 11.0818C23.6906 11.1633 23.4444 11.1061 23.3406 10.9508C23.2567 10.8264 23.3329 10.7097 23.6895 10.4081C23.9787 10.1648 24.0482 10.0822 24.0858 9.94129C24.1023 9.88184 24.1553 9.75083 24.2061 9.65285C24.3264 9.41175 24.3275 9.36991 24.2138 9.25982C24.1697 9.21578 24.12 9.15413 24.1067 9.1211C24.0802 9.06386 24.0692 8.93505 24.0869 8.91633C24.0968 8.90863 24.2072 8.93065 24.2646 8.95046C24.2823 8.95707 24.2856 8.93395 24.2811 8.82716C24.2778 8.74459 24.2845 8.67853 24.2955 8.64881L24.3165 8.60257L24.3761 8.65652C24.4368 8.71156 24.481 8.72587 24.5008 8.69615C24.5052 8.68844 24.5174 8.64441 24.5251 8.59817C24.5417 8.50129 24.6068 8.35046 24.6234 8.36918C24.63 8.37578 24.6443 8.40771 24.6565 8.43854C24.6664 8.47046 24.6808 8.49688 24.6896 8.49688C24.6962 8.49688 24.7073 8.45945 24.7139 8.41542C24.7315 8.28331 24.7514 8.22826 24.7956 8.18973C24.832 8.1578 24.8419 8.1556 24.853 8.17432C24.8607 8.18643 24.8695 8.21395 24.8695 8.23597C24.8695 8.30312 24.9159 8.44074 24.9766 8.55523C25.0947 8.77652 25.2062 8.7545 25.4369 8.47046C25.5683 8.30753 25.5882 8.25688 25.5517 8.18312C25.4645 8.01138 25.1002 7.77909 24.7558 7.6789C24.6918 7.66019 24.6388 7.64037 24.6388 7.63487C24.6388 7.60514 24.7205 7.53688 24.7934 7.50386C24.875 7.46863 24.9711 7.46092 25.1069 7.47743L25.1036 7.46973Z" fill="#E7E6E6"/>
<path d="M28.4993 10.5237C28.3945 10.4697 28.9012 10.4774 29.0082 10.4786C29.0811 10.4995 29.1473 10.5281 29.1694 10.5193C29.1915 10.5094 29.1738 10.4334 29.1506 10.3057C29.0712 10.2441 28.9884 10.2121 28.9 10.1879C28.8162 10.1604 28.7422 10.1417 28.6473 10.113C28.5556 10.1031 28.5258 10.1064 28.3956 10.08C28.549 10.0569 28.6572 10.0745 28.8095 9.92479C28.7477 9.89066 28.7234 9.84662 28.6495 9.83011C28.5755 9.8158 28.5501 9.818 28.4894 9.818C28.3735 9.818 28.3393 9.83782 28.4165 9.78497C28.4949 9.73213 28.6428 9.67268 28.8095 9.64405C28.9563 9.62094 29.1793 9.61983 29.2864 9.61543C29.2367 9.52405 29.1451 9.47121 29.0899 9.41396C28.9994 9.30938 28.7897 9.31268 28.4762 9.36002C27.9805 9.41727 27.9496 9.36002 28.2642 8.99121L28.464 8.78644L28.3371 8.7391L28.1991 8.7358C28.0677 8.76442 27.8999 8.8591 27.7984 8.89653C27.6361 8.96259 27.6449 8.90094 27.6957 8.77763C27.7365 8.67305 27.7067 8.67415 27.7222 8.55855C27.6416 8.55855 27.4274 8.63451 27.4274 8.58717C27.4274 8.52993 27.455 8.4925 27.4716 8.36149C27.401 8.36149 27.242 8.3791 27.2067 8.3725C27.1713 8.36589 27.2552 8.28993 27.3402 8.21837L27.5588 8.03451L27.8679 7.83965L27.4087 7.8936C27.2674 7.8936 27.0433 8.03782 26.9241 8.09506C26.8645 8.12369 26.8082 8.1325 26.7728 8.16773C26.6912 8.19635 26.7894 8.27231 26.7298 8.20185C26.7 8.15121 26.8391 8.00149 26.8203 7.92222C26.7199 7.74387 26.4947 8.07084 26.4461 8.018C26.3523 8.00809 26.4925 7.80442 26.4174 7.76369C26.3114 7.70424 26.2507 7.90681 26.1944 7.87158C26.137 7.83525 26.1006 7.57653 26.01 7.5435C25.9195 7.51048 25.9571 7.80883 25.8963 7.76809C25.765 7.68332 25.4802 7.51598 25.2462 7.48516C25.1291 7.46974 24.9923 7.43892 24.8775 7.45763C24.7615 7.47745 24.6534 7.55121 24.6213 7.64149C24.777 7.68442 24.8013 7.68772 24.9636 7.75378C25.1258 7.81103 25.3378 7.95194 25.4393 8.04662C25.6115 8.22607 25.6115 8.24479 25.4195 8.47268C25.1766 8.78534 25.0552 8.76552 24.9238 8.40662C24.8686 8.26461 24.8852 8.17433 24.8587 8.12589C24.8432 8.1358 24.788 8.15782 24.7549 8.20626C24.7262 8.24919 24.6997 8.43745 24.6997 8.48589C24.6754 8.47158 24.6523 8.40993 24.6302 8.31084C24.5695 8.42094 24.5518 8.45617 24.5319 8.50901C24.5121 8.56075 24.5297 8.69947 24.469 8.69947C24.4337 8.69947 24.3906 8.63562 24.3156 8.57286C24.2504 8.68736 24.2593 8.83048 24.2858 8.93837C24.235 8.92295 24.1301 8.88993 24.0793 8.88552C24.0639 8.94277 24.065 9.01103 24.0771 9.06277C24.1136 9.13653 24.1257 9.20038 24.2063 9.25763C24.3277 9.35231 24.3277 9.40846 24.2063 9.62644C24.1257 9.76846 24.065 9.92919 24.065 9.99525C24.065 10.0525 23.8828 10.2408 23.6499 10.4213C23.3662 10.6481 23.2658 10.7901 23.3055 10.8947C23.4071 11.1215 23.7206 11.1875 24.0032 11.0455C24.1345 10.9795 24.4282 10.8275 24.6611 10.7053C24.8178 10.625 24.9216 10.5369 25.0165 10.4808C25.17 10.4786 25.287 10.4918 25.4195 10.5534C25.6215 10.582 25.7837 10.5633 25.8246 10.5061C25.8654 10.4488 26.0266 10.4015 26.1789 10.4015C26.5841 10.4015 26.849 10.1516 26.8645 9.78497C26.8711 9.62534 26.8479 9.52516 26.7905 9.34571C27.0135 9.67598 27.0267 9.82791 26.9473 10.1186C26.8501 10.5248 26.4019 11.0444 25.4095 11.0543C25.2219 11.0587 25.0651 11.1083 24.8885 11.1424C24.7748 11.2052 24.5341 11.3252 24.5827 11.476C24.3995 11.5222 24.2736 11.6995 24.2703 11.8459C23.8199 11.9725 23.7603 12.2191 23.7603 12.2664C23.7603 12.3138 23.6488 12.4558 23.5075 12.5791C23.3662 12.7024 23.2724 12.9006 23.2889 13.0107C23.1322 13.0866 23.0759 13.1967 22.981 13.3167C22.9004 13.4697 22.7657 13.6613 22.9644 13.8903C22.7569 13.9619 22.7657 14.5134 22.9313 14.5927C22.8087 14.6708 22.7834 14.8624 22.7569 15.1233C22.7558 15.2114 22.7856 15.2896 22.9346 15.3589C22.8949 15.3776 22.8628 15.4294 22.8419 15.4965C22.8198 15.5637 22.8087 15.6463 22.8087 15.7288C22.8087 15.8103 22.8209 15.8918 22.8463 15.9545C22.8717 16.0173 22.9103 16.0624 22.9655 16.0723C22.78 16.1857 22.7845 16.4852 22.9445 16.516C22.8551 16.669 22.8827 16.9696 22.9975 17.029C22.9721 17.3384 23.1035 17.5575 23.173 17.7204C23.311 18.0463 23.4943 18.3237 23.7228 18.556C23.9513 18.7883 24.2262 18.9765 24.5507 19.1252C25.2594 19.4466 26.4626 19.4378 27.1515 19.1064C27.7586 18.8136 28.2543 18.1795 28.3558 17.5641C28.4463 17.0158 28.1637 16.211 27.7995 15.9556C27.2232 15.5582 26.0995 15.6903 25.9372 16.1736C25.8566 16.4191 25.9571 16.713 26.1491 16.7791C26.4019 16.8639 26.5035 16.7505 26.3611 16.5424C26.2595 16.3817 26.2706 16.3343 26.4317 16.211C26.9175 15.8797 27.646 16.1736 27.8182 16.7593C28.0302 17.5156 27.6968 18.283 27.019 18.5945C26.4527 18.8598 25.3091 18.8786 24.9039 18.6419C24.1147 18.1784 23.619 16.92 23.8619 15.9743C23.9932 15.4536 24.5397 14.8107 25.2484 14.3659L25.6932 14.073L25.8555 14.4606C25.9416 14.6642 26.0178 14.7765 25.9968 14.9053C26.1282 14.8305 26.1756 14.8437 26.2662 14.7644C26.307 14.6797 26.381 14.5839 26.4924 14.6125C26.5178 14.6191 26.6713 14.7039 26.8236 14.7237C26.7706 14.6092 26.7176 14.6059 26.7243 14.4903C26.806 14.5883 27.0411 14.6004 27.3447 14.6301C27.1062 14.5024 27.1515 14.4782 27.1338 14.3703C27.2243 14.4661 27.4517 14.5266 27.7156 14.5707C27.5798 14.4386 27.603 14.3978 27.5897 14.2767C27.7233 14.3989 28.0478 14.4683 28.1682 14.4606C28.0622 14.3461 28.0611 14.3472 28.0633 14.2052C28.1814 14.2921 28.4 14.28 28.5965 14.247C28.4762 14.1259 28.4386 13.9927 28.432 13.8925C28.591 14.0301 28.8504 14.0004 29.0204 13.974C28.8879 13.8639 28.8073 13.8011 28.7654 13.7329C28.7168 13.6459 28.7499 13.6173 28.9111 13.6173C29.0226 13.6173 29.0999 13.6844 29.2632 13.625C29.0248 13.5369 28.9608 13.2529 28.9067 13.2463C28.6936 13.2231 29.2036 13.6085 28.7466 13.5281C28.6329 13.5127 28.581 13.5149 28.496 13.5193C28.5556 13.6008 28.5656 13.6041 28.6163 13.6646C28.6737 13.7439 28.6848 13.8463 28.8206 13.9134C28.7058 13.9134 28.6119 13.9233 28.5358 13.8672C28.4596 13.811 28.4585 13.7879 28.2984 13.68C28.2763 13.7934 28.2874 13.8154 28.2984 13.8903C28.3194 14.0202 28.3459 14.0543 28.3878 14.1567C28.2134 14.1941 28.1063 14.1435 28.0754 14.073C28.0302 14.029 27.965 13.9156 27.8756 13.8925C27.8392 13.9949 27.8778 13.9982 27.8911 14.0852C27.9286 14.182 27.9386 14.2514 27.9706 14.3428C27.7939 14.2954 27.6847 14.236 27.5732 14.1105C27.4451 14.0099 27.4013 14.0257 27.4418 14.1578C27.4672 14.2899 27.4606 14.3197 27.5125 14.4341C27.3425 14.4066 27.1846 14.3329 27.0985 14.2052C26.9969 14.0631 26.987 14.073 27.0278 14.2525C27.0334 14.3736 27.0113 14.3934 27.0433 14.5101C26.8887 14.4793 26.775 14.4231 26.6945 14.2998C26.5929 14.1578 26.583 14.1677 26.6238 14.3472C26.6492 14.4606 26.6028 14.4837 26.6746 14.6026C26.5002 14.5332 26.4925 14.5508 26.4317 14.4606C26.3909 14.3846 26.3247 14.4859 26.2441 14.6279C26.1778 14.7369 26.1249 14.7446 26.0763 14.7501C26.0641 14.6675 26.0277 14.6114 25.9471 14.4319C25.8566 14.2239 25.7959 14.0532 25.8058 14.0345C25.8257 14.0246 26.0785 13.9024 26.3622 13.7604C26.6558 13.6283 26.8987 13.4763 26.8987 13.4202C26.8987 13.3729 26.9495 13.3354 27.0201 13.3354C27.1824 13.3354 27.6074 12.9567 27.6074 12.8147C27.6074 12.7486 27.6979 12.5879 27.8094 12.4646C27.9606 12.2752 28.1328 12.2092 28.5887 12.1619C28.9111 12.109 29.1804 12.0297 29.3471 11.9439C29.431 11.9031 29.4421 11.869 29.5061 11.8448C29.5083 11.8943 29.473 12.0474 29.3571 12.1519C29.2908 12.218 29.2235 12.2323 29.1639 12.2675C29.2202 12.3215 29.261 12.4217 29.3063 12.4932C29.4078 12.6441 29.4078 12.6914 29.2654 12.7387C29.1341 12.7861 29.1341 12.8147 29.2456 12.8808C29.2908 12.9138 29.3593 12.9369 29.4078 12.9655C29.3328 12.9831 29.2743 12.9875 29.1308 12.9534C28.9486 12.8499 28.9343 12.8808 29.0137 12.9853C29.0778 13.0767 29.1219 13.178 29.2158 13.2485C29.1087 13.254 29.059 13.2363 28.963 13.2022C28.8614 13.1648 28.7764 13.1395 28.846 13.2859C28.9122 13.3883 28.8758 13.2308 28.9387 13.3663C29.0469 13.3861 29.2919 13.3619 29.4719 13.3211C29.3107 13.2386 29.2511 13.1736 29.2312 13.1307C29.2014 13.0459 29.2875 13.0503 29.3692 13.0503C29.4045 13.0503 29.5215 13.0635 29.6087 12.9732C29.5359 12.9358 29.4255 12.9028 29.3593 12.8246C29.5668 12.7123 29.4465 12.5428 29.3979 12.4624C29.3582 12.3986 29.3549 12.3644 29.3085 12.2973C29.3725 12.2929 29.4652 12.1795 29.5116 12.1046C29.6076 11.9439 29.6496 11.7908 29.6352 11.6598C29.4984 11.7589 29.4454 11.7908 29.3593 11.8305C29.2147 11.9119 28.9034 12.0132 28.6285 12.0529C28.3536 12.0914 28.1152 12.087 28.1152 11.9923C28.1152 11.8976 28.0048 11.9053 28.0843 11.8294C28.2333 11.6874 28.3139 11.5608 28.3602 11.4352C28.4475 11.3373 28.5567 11.3296 28.7013 11.3285C28.7786 11.367 28.9287 11.4 28.9983 11.4947C29.0634 11.465 29.0976 11.2778 29.0645 11.1886C29.0502 11.1501 28.8824 11.0763 28.7886 11.073C28.6936 11.0697 28.6439 11.0951 28.5612 11.062C28.6594 11.0356 28.7124 11.0367 28.815 10.9894C28.9056 10.9475 28.9939 10.9222 28.9817 10.8683C28.9674 10.8011 28.4651 10.8474 28.3945 10.8496C28.336 10.8518 28.5037 10.7868 28.6274 10.7725C28.7091 10.745 28.889 10.756 29.0723 10.6294C28.9376 10.5479 28.8658 10.582 28.7554 10.5446M28.3382 10.56C28.379 10.6404 28.8669 10.6184 28.7312 10.6514C28.7312 10.6514 28.3547 10.7163 28.23 10.8165C28.2079 10.9046 28.3393 10.9442 28.3393 10.9442L28.8173 10.8969C28.8228 10.9586 28.3525 10.9817 28.3691 11.073C28.3746 11.1028 28.3426 11.1589 28.4993 11.1424C28.6417 11.149 28.8162 11.1347 28.9221 11.1864C28.9994 11.2228 29.0082 11.302 28.9839 11.3703C28.9144 11.3174 28.804 11.2734 28.7433 11.2547C28.6141 11.2393 28.5203 11.2635 28.432 11.2987C28.3437 11.334 28.283 11.3714 28.2068 11.5112C28.156 11.6345 27.9949 11.7765 27.8425 11.8327C27.6802 11.88 27.4219 12.0099 27.306 12.1541C27.178 12.3149 27.0819 12.4448 26.7728 12.6121C26.4693 12.8675 26.732 12.7773 26.6017 12.7949C26.2529 12.8444 26.0619 12.9204 26.0012 12.9963C25.9306 13.0723 25.7683 13.1571 25.6369 13.1857C25.4956 13.2231 25.3841 13.2903 25.3841 13.3365C25.3841 13.3938 25.3135 13.4312 25.2219 13.4312C24.9989 13.4312 24.0076 14.4055 23.8254 14.793C23.481 15.5219 23.4203 15.7861 23.4203 16.4962C23.4302 16.9696 23.491 17.3945 23.5826 17.5938C23.7846 18.0386 24.6478 18.9314 24.8808 18.9314C24.9216 18.9424 24.905 18.938 24.9536 18.9457C24.9757 18.9765 24.9889 18.9798 25.0673 19.014C25.1821 19.0679 25.33 19.0943 25.5089 19.0987C25.6877 19.1031 25.9008 19.0866 26.1447 19.0547C26.3887 19.0228 26.6282 18.9754 26.8071 18.9204C26.9859 18.8653 27.051 18.8356 27.1029 18.7839C27.1184 18.7685 27.1592 18.7486 27.1526 18.6826C27.189 18.7134 27.2751 18.7068 27.3767 18.6198C27.4595 18.5494 27.5389 18.5175 27.4981 18.447C27.6074 18.436 27.6262 18.393 27.7123 18.2797C27.7686 18.2048 27.8337 18.1387 27.8061 18.0341C27.8812 18.0485 27.9187 17.9494 27.9617 17.8558C27.9993 17.7743 28.0666 17.662 27.9827 17.6224C28.0799 17.6246 28.0611 17.5145 28.0732 17.4375C28.0854 17.3604 28.1097 17.2415 28.0114 17.2206C28.1108 17.1908 28.0688 17.0951 28.0534 17.0081C28.0324 16.887 28.0202 16.8209 27.9375 16.8055C28.0114 16.7747 27.9662 16.6613 27.9176 16.5061C27.8789 16.3817 27.7884 16.3365 27.6858 16.3563C27.784 16.2859 27.6041 16.1714 27.5654 16.1406C27.4584 16.0569 27.3358 16.025 27.3115 16.08C27.3215 15.9776 26.9406 15.9688 26.7949 15.9842C26.6492 15.9997 26.5212 16.0613 26.3843 16.1648C26.1723 16.3255 26.1613 16.3729 26.2728 16.5435C26.4041 16.7615 26.3026 16.8088 26.1105 16.6283C25.9085 16.4389 25.9692 16.2022 26.2617 15.9853C26.4847 15.8147 26.636 15.7872 27.0201 15.8147C27.6979 15.8808 27.9717 16.08 28.1637 16.6657C28.4673 17.64 28.0523 18.6055 27.1415 19.0217C26.7364 19.2011 26.4936 19.2485 25.8367 19.2485C24.8752 19.2386 24.278 19.0217 23.7217 18.4448C23.3773 18.0947 22.9931 17.1798 23.1145 17.0103C23.3121 16.9321 23.1145 16.931 23.0538 16.931C22.9732 16.931 22.9423 16.5391 23.0936 16.4675C22.7933 16.4675 22.9523 16.1175 23.1333 16.0481C22.971 16.0448 22.8904 15.8962 22.886 15.7398C22.8816 15.5835 22.9523 15.4173 23.0913 15.3798C23.1962 15.3512 23.1002 15.3248 23.0008 15.3039C22.8827 15.2786 22.8375 15.262 22.8529 15.0661C22.8706 14.9373 22.9191 14.7226 23.0185 14.683C23.1212 14.6422 23.2801 14.6301 23.3695 14.6224C23.2613 14.5894 23.1587 14.5707 23.0748 14.5641C22.8926 14.4936 22.8308 14.149 22.9953 14.0521C23.1587 13.9552 23.5715 14.1457 23.5925 14.0675C23.5119 13.985 23.2636 13.9652 23.1532 13.8903C23.0174 13.7659 22.8926 13.647 23.1156 13.3541C23.2271 13.1934 23.2095 13.1538 23.3386 13.1086C23.5097 13.102 23.8762 13.3167 24.1566 13.309C24.0286 13.2088 23.5914 13.1285 23.4523 13.0349C23.3132 12.9402 23.4192 12.7938 23.5616 12.6253C23.7338 12.4833 23.8045 12.4745 24.0275 12.5681C24.1787 12.6253 24.4193 12.6837 24.6799 12.7244C24.5783 12.6264 24.1191 12.5208 24.0175 12.4448C23.8254 12.3127 23.8254 12.2565 24.0076 12.0672L24.2802 11.9626L24.5849 12.1134C24.8079 12.2081 25.1523 12.3204 25.1523 12.2918C25.1523 12.273 24.8377 12.142 24.6765 12.0562C24.5043 11.9714 24.3995 11.8481 24.3995 11.782C24.3995 11.5453 24.6324 11.5145 24.9912 11.7468C25.1733 11.8459 25.6281 11.9758 25.6546 11.9285C25.6888 11.869 25.3499 11.8107 25.1821 11.7347C25.0154 11.6455 24.703 11.5002 24.703 11.4253C24.7439 11.2965 24.9282 11.2052 25.7286 11.1204C26.3258 11.0543 26.6393 10.8749 26.902 10.4675C27.2254 9.97543 27.1647 9.54938 26.7298 9.16185L26.3655 8.84039L26.5774 9.14314C26.9715 9.67268 26.7795 10.3068 26.2231 10.3068C26.0917 10.3068 25.8997 10.3541 25.7981 10.4202C25.6568 10.4962 25.5332 10.4797 25.4139 10.4466L25.2208 10.3938L25.1534 10.3806L25.4338 10.2033C25.7473 10.0613 25.8787 9.78717 25.7065 9.62644C25.6458 9.56919 25.6259 9.62644 25.6557 9.77727C25.6965 9.95672 25.6557 10.0426 25.5144 10.0899C25.4128 10.1373 25.2108 10.2408 25.0795 10.3354C24.6445 10.6283 24.0573 10.9696 23.9965 10.9696C23.9667 10.9696 24.0164 10.8749 24.1279 10.7516C24.2394 10.6382 24.1787 10.6569 23.9965 10.8176C23.7239 11.0444 23.6422 11.073 23.5108 10.9685C23.2878 10.7978 23.3187 10.723 23.7029 10.4951C23.9358 10.3718 24.097 10.1736 24.1787 9.94681C24.2394 9.75745 24.341 9.54938 24.3807 9.49323C24.4414 9.42717 24.4116 9.3424 24.32 9.26644C24.2339 9.20039 24.1478 9.04626 24.1566 8.99011C24.1963 8.99672 24.2273 9.00772 24.2692 9.02974C24.32 9.05837 24.3708 9.01984 24.3708 8.93506C24.3708 8.89213 24.3354 8.73139 24.3454 8.69176C24.3697 8.7325 24.4414 8.82607 24.4723 8.84039C24.5231 8.86901 24.5838 8.84039 24.5838 8.77433C24.5993 8.63672 24.618 8.59708 24.6302 8.53213C24.6512 8.56736 24.756 8.70828 24.8035 8.7424C24.7626 8.63782 24.7947 8.30314 24.8123 8.27121C24.8156 8.36149 24.8697 8.52112 24.8852 8.57837C24.9923 8.72039 25.0187 8.75121 25.1402 8.78534C25.2428 8.78864 25.2925 8.75011 25.4338 8.59378C25.5751 8.43305 25.6623 8.31195 25.67 8.23048C25.67 8.14571 25.3698 7.80883 25.0143 7.68222C24.8642 7.63158 24.8432 7.61617 24.7505 7.59305C24.7759 7.58754 24.8123 7.55451 24.9227 7.5358C24.9801 7.52589 25.213 7.52699 25.3632 7.59305C25.4978 7.63378 25.808 7.75708 25.9504 7.89029C26.0277 7.9024 25.9405 7.6602 26.0299 7.69543C26.1193 7.73066 26.084 7.98167 26.1602 8.0202C26.2739 8.07635 26.2915 7.89139 26.3423 7.89139C26.3931 7.8958 26.3015 8.11158 26.3953 8.16222C26.4571 8.19525 26.6702 7.95084 26.6956 7.98827C26.7143 8.018 26.5311 8.21947 26.5808 8.25029C26.6415 8.29543 26.636 8.35488 26.7706 8.30534C26.881 8.2536 27.3689 7.96626 27.4948 7.97506C27.3778 8.04662 27.2873 8.1336 27.1603 8.24149C26.9583 8.43965 26.9009 8.46497 27.0632 8.48809C27.2133 8.46497 27.2508 8.42204 27.3248 8.46938C27.3623 8.4925 27.2906 8.67194 27.3413 8.70057C27.3921 8.72919 27.5643 8.66644 27.5831 8.68516C27.6604 8.76002 27.5235 8.8591 27.5687 8.96809C27.6295 9.12883 27.6593 9.12883 27.8624 8.99672C28.0247 8.88772 28.2311 8.80956 28.2377 8.85139C28.2454 8.90534 28.1969 8.93066 28.1052 9.05396C27.8116 9.44149 27.8933 9.51745 28.4695 9.4613C28.4695 9.4613 28.9387 9.3336 29.08 9.53396C28.9409 9.50974 28.6086 9.57139 28.5192 9.60772C28.4706 9.62754 28.3669 9.68589 28.2775 9.75195C28.2322 9.78497 28.2587 9.81139 28.2852 9.88516C28.39 9.92039 28.5049 9.9424 28.6296 9.9358C28.2543 10.0767 28.2874 9.96002 28.1516 10.0316C28.2499 10.1824 28.3271 10.1714 28.6616 10.2154C28.7444 10.2529 28.825 10.2705 28.9155 10.2936C29.0093 10.3167 29.0667 10.385 29.0436 10.3927C29.0204 10.4004 28.9287 10.3784 28.825 10.3696C28.7036 10.3707 28.7665 10.3696 28.496 10.396C28.3691 10.4246 28.3128 10.5116 28.3371 10.5589L28.3382 10.56Z" fill="#12110B"/>
<path d="M24.8916 9.61544C24.8916 9.67049 24.9258 9.71563 24.9678 9.71563C25.0097 9.71563 25.0439 9.67049 25.0439 9.61544C25.0439 9.5604 25.0097 9.51526 24.9678 9.51526C24.9258 9.51526 24.8927 9.55819 24.8916 9.61214" fill="#12110B"/>
<path d="M24.7374 9.68925C24.786 9.80374 24.9284 9.86209 25.0565 9.81806C25.1834 9.77402 25.2474 9.64521 25.1989 9.53072C25.1503 9.41622 25.0079 9.35787 24.8798 9.40191C24.7529 9.44595 24.6889 9.57365 24.7374 9.68925Z" stroke="#12110B" stroke-width="0.1"/>
<path d="M25.6302 9.31604C25.3112 9.15861 24.8696 9.40301 24.8696 9.40301" stroke="#12110B" stroke-width="0.1"/>
<path d="M28.0243 12.0286C28.0353 11.9779 28.011 11.9526 27.9227 11.8998C27.8145 11.9119 27.6258 11.9846 27.5065 12.0836C27.3034 12.2521 27.2725 12.3148 27.1577 12.459C27.2041 12.546 27.235 12.5647 27.3233 12.6451C27.4138 12.7001 27.4668 12.7343 27.5275 12.7607C27.5761 12.6187 27.6357 12.5493 27.7704 12.3864C27.8333 12.2961 28.0199 12.2279 28.1148 12.1618C28.0949 12.0913 28.0574 12.0858 28.0232 12.0286H28.0243Z" fill="#E7E6E6"/>
<path d="M27.2637 12.6969C27.171 12.6407 27.1456 12.5615 27.0815 12.5251C26.9965 12.5593 27.0186 12.5692 26.8806 12.633C26.7316 12.7211 26.7857 12.7013 26.6709 12.8455C26.7173 12.9325 26.7427 12.9721 26.8133 13.0646C26.8917 13.1307 26.8928 13.1802 26.9656 13.2617C27.1014 13.2286 27.1897 13.1802 27.2957 13.0668C27.3708 12.982 27.458 12.9787 27.4944 12.8367C27.3984 12.7773 27.32 12.7497 27.2637 12.698V12.6969Z" fill="#E7E6E6"/>
<path d="M26.7351 13.0987C26.6656 13.0095 26.6523 12.9468 26.5927 12.8829C26.4901 12.895 26.4073 12.9105 26.287 12.9468C26.1214 12.9798 26.0993 13.0316 26.0132 13.1152C26.0595 13.2022 26.0673 13.3123 26.1037 13.4697C26.1302 13.5787 26.1545 13.6393 26.2042 13.7372C26.3399 13.6822 26.4404 13.6338 26.5574 13.5644C26.6788 13.4961 26.7958 13.4279 26.8488 13.2848C26.7881 13.1813 26.7914 13.1494 26.734 13.0976L26.7351 13.0987Z" fill="#E7E6E6"/>
<path d="M26.0098 13.5215C25.9811 13.4004 25.9844 13.2716 25.9204 13.1758C25.8178 13.1879 25.8343 13.2198 25.7129 13.2561C25.587 13.3057 25.502 13.3189 25.4336 13.4466C25.544 13.5446 25.5694 13.5303 25.6058 13.6866C25.6323 13.7956 25.5804 13.9486 25.6301 14.0466C25.7659 13.9916 25.7791 13.9596 25.8961 13.8892C26.0176 13.8209 26.0297 13.8506 26.107 13.778C26.0628 13.6536 26.0374 13.593 26.0098 13.5204V13.5215Z" fill="#E7E6E6"/>
<path d="M25.5097 13.6953C25.4512 13.5852 25.4269 13.5599 25.3618 13.5071C25.2414 13.5522 25.1885 13.5236 25.0737 13.6205C24.9655 13.692 24.7403 13.8682 24.6553 13.9519C24.737 13.9893 24.8131 14.0157 24.9081 14.1324C25.003 14.2491 24.9754 14.281 25.0317 14.4109C25.1333 14.3504 25.1807 14.3185 25.2746 14.2645C25.3728 14.1797 25.4136 14.1544 25.5262 14.0829C25.4821 13.964 25.5262 13.79 25.5108 13.6953H25.5097Z" fill="#E7E6E6"/>
<path d="M24.8419 14.2062C24.7834 14.0961 24.7006 14.0763 24.6366 14.0234C24.5163 14.0686 24.4688 14.1655 24.354 14.2612C24.2116 14.4088 24.1895 14.433 24.1211 14.5222C24.226 14.5706 24.2558 14.575 24.3507 14.6543C24.449 14.7357 24.4765 14.7379 24.5439 14.8084C24.6156 14.7324 24.6057 14.7379 24.6995 14.651C24.7978 14.5662 24.8099 14.5684 24.9391 14.4583C24.9015 14.3339 24.8817 14.2899 24.8419 14.2062Z" fill="#E7E6E6"/>
<path d="M24.2845 14.7324C24.2149 14.6818 24.1487 14.6455 24.0902 14.6091C24.0339 14.6708 23.9809 14.7181 23.9467 14.7875C23.8915 14.8535 23.8871 14.8667 23.8418 14.9559C23.9467 15.0044 23.9356 14.9923 24.014 15.0275C24.0902 15.0616 24.1222 15.1001 24.2127 15.1541C24.2845 15.0781 24.2337 15.1056 24.3286 15.0187C24.3739 14.9669 24.3982 14.9251 24.4699 14.859C24.3684 14.7776 24.354 14.7666 24.2856 14.7313L24.2845 14.7324Z" fill="#E7E6E6"/>
<path d="M24.0085 15.1155C23.9246 15.0781 23.8882 15.0583 23.8176 15.0308C23.7701 15.1144 23.758 15.1265 23.7237 15.1948C23.7028 15.2531 23.6873 15.2818 23.6509 15.3776C23.7293 15.404 23.7535 15.4117 23.8054 15.4337C23.8584 15.4557 23.9136 15.4865 23.9754 15.5196C24.0328 15.4183 24.0317 15.4414 24.0648 15.382C24.0957 15.3247 24.1167 15.3071 24.1741 15.23C24.0902 15.1706 24.0637 15.1486 24.0096 15.1166L24.0085 15.1155Z" fill="#E7E6E6"/>
<path d="M23.7988 15.5074C23.7149 15.47 23.7149 15.4788 23.6443 15.4513C23.5968 15.535 23.5637 15.6814 23.5383 15.7717C23.5195 15.874 23.5041 15.9874 23.4985 16.1118C23.5736 16.1251 23.5427 16.1173 23.6078 16.1295C23.673 16.1416 23.6763 16.1438 23.7458 16.1713C23.7668 16.0359 23.7844 15.961 23.822 15.8685C23.8474 15.8036 23.8992 15.6561 23.9555 15.579C23.8838 15.5427 23.854 15.5416 23.7999 15.5096L23.7988 15.5074Z" fill="#E7E6E6"/>
<path d="M23.6166 16.2077C23.5902 16.2022 23.5626 16.1978 23.5074 16.1934C23.4974 16.3706 23.4963 16.4135 23.5018 16.5897C23.5162 16.7746 23.5184 16.9244 23.5504 17.1115C23.5857 17.1016 23.5946 17.0917 23.6597 17.0884C23.7248 17.0851 23.7215 17.084 23.7889 17.0884C23.7414 16.9123 23.7403 16.8528 23.7259 16.6436C23.7204 16.4807 23.7204 16.4279 23.7348 16.244C23.6829 16.2286 23.6608 16.2176 23.6177 16.2066L23.6166 16.2077Z" fill="#E7E6E6"/>
<path d="M23.7072 17.1754C23.6807 17.1699 23.6167 17.1765 23.5615 17.1732C23.6211 17.4848 23.6697 17.6015 23.7823 17.793C23.9159 17.9736 24.045 18.1431 24.2161 18.3149C24.2371 18.3017 24.2515 18.283 24.2713 18.2653C24.2912 18.2477 24.3067 18.2422 24.3298 18.2224C24.1344 17.9813 24.1002 17.9097 23.9843 17.6885C23.8883 17.4683 23.8717 17.4077 23.8077 17.1666C23.7558 17.1853 23.7503 17.1864 23.7072 17.1754Z" fill="#E7E6E6"/>
<path d="M24.3189 18.316C24.2858 18.3358 24.3024 18.3292 24.2505 18.3589C24.33 18.4481 24.3874 18.4987 24.5364 18.6364C24.649 18.7134 24.6821 18.7806 24.9128 18.8675C24.9404 18.8389 24.9415 18.8345 24.9548 18.8169C24.968 18.7993 24.9735 18.7949 24.9879 18.7597C24.8709 18.7255 24.7329 18.6496 24.6446 18.567C24.4989 18.4503 24.4624 18.3975 24.3653 18.283C24.3432 18.2962 24.3322 18.3017 24.3178 18.3149L24.3189 18.316Z" fill="#E7E6E6"/>
<path d="M25.0463 18.8487C25.0275 18.8763 25.0352 18.884 25.0176 18.9159C25.1224 18.9743 25.1456 18.9787 25.4017 19.026C25.7163 19.0359 25.8499 19.0293 25.9978 19.0106C25.9923 18.9742 25.9923 18.9698 25.9901 18.9357C25.989 18.9027 25.9934 18.9137 25.9901 18.8785C25.6954 18.8972 25.606 18.8785 25.49 18.8708C25.2803 18.852 25.1224 18.8069 25.0728 18.7948C25.0507 18.8333 25.0529 18.8234 25.0474 18.8498L25.0463 18.8487Z" fill="#E7E6E6"/>
<path d="M26.0752 18.9413C26.0818 18.9699 26.0807 18.9611 26.0896 19.0029C26.3335 18.9633 26.339 18.9677 26.6338 18.9116C26.8568 18.8521 26.9296 18.807 27.0676 18.7387C27.0776 18.6936 27.0753 18.6991 27.0643 18.6793C27.05 18.654 27.061 18.6628 27.0279 18.644C26.8645 18.7354 26.689 18.7629 26.5952 18.7927C26.3711 18.8356 26.2607 18.8477 26.0708 18.8664C26.073 18.9061 26.073 18.916 26.0763 18.9424L26.0752 18.9413Z" fill="#E7E6E6"/>
<path d="M27.1305 18.6209C27.168 18.6473 27.1702 18.6594 27.2166 18.6528C27.2928 18.6429 27.3027 18.6231 27.3755 18.5669C27.4109 18.5394 27.4672 18.4866 27.4561 18.4679C27.4418 18.4425 27.4164 18.3677 27.3844 18.4172C27.3557 18.4601 27.2354 18.5262 27.1647 18.5713C27.1084 18.6077 27.1161 18.6099 27.1305 18.6209Z" fill="#E7E6E6"/>
<path d="M27.496 18.3863C27.539 18.3996 27.528 18.4073 27.5644 18.3786C27.5931 18.3555 27.613 18.3159 27.666 18.2586C27.6958 18.2256 27.7554 18.1309 27.7587 18.11C27.7664 18.0484 27.73 18.0076 27.7013 18.0594C27.6505 18.1497 27.5854 18.2454 27.496 18.3214C27.4452 18.3643 27.4794 18.383 27.496 18.3875V18.3863Z" fill="#E7E6E6"/>
<path d="M27.7586 17.9912C27.8017 18.0044 27.7973 18.0121 27.8326 17.9835C27.8613 17.9603 27.89 17.8998 27.9242 17.8304C27.9441 17.7897 27.9871 17.7291 27.9717 17.6884C27.954 17.6444 27.8922 17.6136 27.8756 17.6675C27.8469 17.7666 27.837 17.7677 27.7873 17.8833C27.7685 17.9284 27.7421 17.9846 27.7597 17.9901L27.7586 17.9912Z" fill="#E7E6E6"/>
<path d="M27.8995 17.5706C27.9161 17.6014 27.9481 17.597 27.9978 17.5761C28.0386 17.5584 28.0232 17.499 28.0298 17.423C28.0331 17.3823 28.0419 17.3449 28.0298 17.2909C28.0199 17.2447 27.926 17.2271 27.9194 17.2843C27.915 17.3251 27.9216 17.3493 27.9128 17.4197C27.8995 17.5331 27.8863 17.5463 27.8995 17.5706Z" fill="#E7E6E6"/>
<path d="M27.9374 17.1732C27.9474 17.1986 27.9871 17.1908 28.0114 17.1633C28.0401 17.1314 28.0059 17.0742 28.0037 17.0103C28.0026 16.9696 27.9904 16.9288 27.9672 16.8782C27.9529 16.8474 27.901 16.843 27.8999 16.9002C27.8999 16.9277 27.9076 16.9641 27.9154 17.0246C27.9242 17.0907 27.9209 17.1325 27.9363 17.1732H27.9374Z" fill="#E7E6E6"/>
<path d="M27.8656 16.7724C27.8755 16.7977 27.9197 16.7735 27.9274 16.7394C27.9396 16.6876 27.9009 16.6315 27.8855 16.5688C27.8722 16.517 27.8468 16.4543 27.8016 16.4201C27.7685 16.3948 27.7089 16.3805 27.7221 16.4366C27.732 16.4796 27.7983 16.5621 27.8204 16.6315C27.8413 16.6954 27.8513 16.7317 27.8667 16.7724H27.8656Z" fill="#E7E6E6"/>
<path d="M27.5963 16.3133C27.625 16.3133 27.6593 16.3221 27.6504 16.288C27.6416 16.2572 27.6107 16.2429 27.5511 16.1988C27.5202 16.1757 27.4661 16.135 27.4363 16.1207C27.401 16.1042 27.3336 16.0843 27.3568 16.1372C27.3667 16.1592 27.3976 16.168 27.4528 16.2032C27.5113 16.2407 27.5776 16.3133 27.5975 16.3133H27.5963Z" fill="#E7E6E6"/>
<path d="M13.5779 18.9776C12.9807 19.1669 12.1208 19.5544 11.7763 19.7724C11.6649 19.8484 11.6748 19.9332 11.847 20.2546C11.9684 20.4627 12.0899 20.6421 12.1097 20.6421C12.1395 20.6421 12.474 20.5001 12.8482 20.3207C13.2225 20.15 13.7015 19.9254 13.9212 19.8858C14.089 19.855 14.2425 19.8264 14.3374 19.7889C14.376 19.8759 14.3517 19.8275 14.4224 19.964C14.5228 20.1599 14.4599 20.1555 14.6332 20.2095C14.8165 20.2656 15.2669 20.0377 15.2669 20.0377C15.7934 19.8671 16.086 19.8484 17.9791 19.8484C19.8723 19.8484 20.1649 19.8671 20.6914 20.0465C20.6914 20.0465 21.1153 20.1809 21.1694 20.1974C21.2235 20.2139 21.2522 20.226 21.3096 20.2139C21.3615 20.2018 21.4156 20.128 21.4399 20.0829C21.4399 20.0829 21.5558 19.822 21.5856 19.7295C21.686 19.7746 21.8704 19.8341 22.047 19.8858C22.2589 19.9519 22.7347 20.1511 23.1089 20.3207C23.4832 20.5001 23.8176 20.6421 23.8475 20.6421C23.8673 20.6421 23.9888 20.4627 24.1102 20.2546C24.353 19.8099 24.3729 19.8473 23.4931 19.4223C22.3197 18.8543 21.1451 18.5988 21.0347 18.8741C21.0149 18.9258 20.9972 18.9566 20.9696 19.0238C20.8515 18.9985 20.5435 18.9302 20.2355 18.8829C19.2839 18.7221 16.6732 18.7221 15.7228 18.8829C15.4137 18.9302 15.2051 19.0095 15.0306 19.0546C14.9324 18.8697 14.9523 18.9434 14.9324 18.8917C14.8518 18.7023 14.3153 18.7321 13.5768 18.9776H13.5779Z" fill="#12110B"/>
<path d="M14.5392 18.8411C14.1043 18.8543 13.2896 19.1141 12.465 19.506C11.7563 19.8374 11.7364 19.8561 11.9285 20.2062C12.0091 20.3669 12.1007 20.5101 12.1106 20.5288L12.1117 20.5299C12.1493 20.5387 12.465 20.4088 12.8271 20.2337C13.2112 20.0543 13.698 19.8561 13.9111 19.8C14.0678 19.7482 14.1815 19.7427 14.3217 19.7152C14.2963 19.5754 14.3284 19.6965 14.2279 19.4301C14.3427 19.1614 14.5646 18.928 14.7798 18.8774C14.7247 18.8499 14.6419 18.8367 14.537 18.84L14.5392 18.8411Z" fill="#E7E6E6"/>
<path d="M17.8629 18.8477C17.0239 18.8554 16.1993 18.8939 15.8218 18.9489C15.1793 19.048 14.8327 19.2385 14.5942 19.3552C14.507 19.4157 14.4309 19.4311 14.3359 19.484C14.411 19.6436 14.4088 19.7394 14.4728 19.8792C14.5402 20.0256 14.507 20.1192 14.6914 20.1236C14.8757 20.128 15.2776 19.942 15.2776 19.942C15.7931 19.7713 16.0978 19.7526 17.9799 19.7526C19.862 19.7526 20.2528 19.8088 20.6911 19.9519C21.0079 20.0543 21.1392 20.1346 21.2662 20.1126C21.3313 20.1016 21.3655 20.0135 21.4119 19.9067C21.4748 19.7614 21.5499 19.5666 21.5874 19.3233C21.4881 19.31 21.5322 19.3574 21.3965 19.3001C21.1039 19.1779 21.0476 19.168 20.8544 19.0921C20.6248 19.0018 20.4107 19.0018 20.074 18.9434C19.6799 18.8862 18.8023 18.8642 17.9457 18.8477C17.9181 18.8477 17.8927 18.8477 17.8651 18.8477H17.8629Z" fill="#E7E6E6"/>
<path d="M21.3788 18.8488C21.3213 18.8488 21.2728 18.8554 21.2319 18.8664C21.3202 18.9181 21.4229 19.0051 21.4803 19.0326C21.6923 19.1372 21.6923 19.233 21.6713 19.4113C21.6613 19.4939 21.6536 19.5258 21.6194 19.6381C21.6989 19.6712 21.8943 19.7471 22.0565 19.7989C22.2586 19.8561 22.7443 20.0532 23.1284 20.2326C23.485 20.4044 23.7974 20.5332 23.8426 20.5288C23.8426 20.5288 23.8449 20.5288 23.846 20.5277H23.8471C23.857 20.509 23.9486 20.3658 24.0292 20.2051C24.1606 19.9684 24.1705 19.8847 24.0689 19.8088C23.846 19.6381 22.9463 19.2495 22.2983 19.0414C21.8832 18.9126 21.5786 18.8466 21.3765 18.8477L21.3788 18.8488Z" fill="#E7E6E6"/>
<path d="M21.1249 18.9259C21.1183 18.9325 21.1117 18.9402 21.1062 18.949C21.0753 18.9843 21.0708 19.0217 21.062 19.0646C21.1293 19.0866 21.3556 19.2187 21.4716 19.2132C21.4969 19.2132 21.5157 19.2132 21.5279 19.2077C21.5279 19.2077 21.5301 19.2077 21.5312 19.2066L21.5323 19.2055C21.5323 19.2055 21.5345 19.2033 21.5356 19.2033C21.5356 19.2033 21.5367 19.2033 21.5367 19.2022L21.5378 19.2011V19.2V19.1989C21.5378 19.1989 21.5378 19.1989 21.5378 19.1978C21.5378 19.1978 21.5378 19.1978 21.5378 19.1967C21.5378 19.1967 21.5378 19.1934 21.5367 19.1923C21.5367 19.1923 21.5367 19.1901 21.5356 19.1901C21.5356 19.1901 21.5334 19.1868 21.5323 19.1857C21.5157 19.1659 21.4671 19.134 21.37 19.0833C21.3016 19.0481 21.1912 18.9776 21.126 18.927L21.1249 18.9259Z" fill="#E7E6E6"/>
<path d="M14.8417 18.9281C14.7754 18.9754 14.6628 19.0404 14.59 19.0866C14.4597 19.1692 14.441 19.2331 14.3847 19.3487C14.3836 19.3509 14.3825 19.3542 14.3813 19.3553V19.3564H14.3825H14.3836C14.4023 19.3487 14.5006 19.2661 14.7357 19.1912C14.9377 19.1208 14.8306 19.1549 14.9554 19.1065C14.8726 18.9876 14.8615 18.9787 14.8516 18.9501C14.8483 18.9424 14.845 18.9347 14.8406 18.927L14.8417 18.9281Z" fill="#E7E6E6"/>
<path d="M15.7195 19.2088L15.7427 19.396L15.8796 19.3816C15.9293 19.3761 15.9635 19.3651 15.9812 19.3475C15.9999 19.3299 16.0076 19.3046 16.0032 19.2694C15.9988 19.2363 15.9867 19.2143 15.9657 19.2033C15.9447 19.1923 15.9083 19.189 15.8564 19.1945L15.7195 19.2088ZM15.6323 19.1527L15.8619 19.1273C15.8995 19.1229 15.9271 19.1218 15.9447 19.1229C15.9624 19.1229 15.9789 19.1273 15.9944 19.1328C16.0209 19.1427 16.0419 19.1582 16.0573 19.1802C16.0728 19.2011 16.0827 19.2275 16.0871 19.2583C16.0904 19.2881 16.0871 19.3145 16.0761 19.3376C16.0651 19.3596 16.0463 19.3783 16.0209 19.3938C16.0452 19.3971 16.0617 19.4059 16.0739 19.4191C16.086 19.4323 16.0949 19.4554 16.1015 19.4895L16.1191 19.5798C16.1225 19.5996 16.1269 19.6139 16.1324 19.6227C16.1379 19.6316 16.1445 19.6382 16.1534 19.6415L16.1556 19.6569L16.0628 19.6668C16.054 19.6558 16.0452 19.6316 16.0386 19.5941V19.5919L16.0253 19.5204C16.0176 19.484 16.0065 19.4609 15.9911 19.451C15.9756 19.4411 15.9392 19.44 15.8829 19.4455L15.7526 19.4598L15.7825 19.6965L15.703 19.7053L15.6345 19.1527M16.3366 19.4125L16.5221 19.3993L16.4106 19.1604L16.3366 19.4114M16.1832 19.6536L16.3598 19.0833L16.4492 19.0767L16.7141 19.6172L16.6269 19.6227L16.5508 19.4609L16.3167 19.4774L16.266 19.6481L16.1821 19.6536M17.0001 19.6051L16.9824 19.0492L17.063 19.047L17.0696 19.276L17.3787 19.2671L17.3721 19.0382L17.4538 19.036L17.4714 19.5919L17.3897 19.5941L17.382 19.3332L17.0729 19.342L17.0806 19.6029L17.0001 19.6051ZM17.7032 19.3585H17.8887L17.7949 19.1119L17.7032 19.3585ZM17.5321 19.5908L17.7507 19.0327H17.8401L18.0653 19.5875H17.9781L17.9141 19.4224H17.6801L17.6171 19.5897H17.5332M18.5477 19.3882H18.6261C18.6217 19.4576 18.5952 19.5105 18.5488 19.5501C18.5025 19.5897 18.4428 19.6084 18.37 19.6073C18.2861 19.6062 18.221 19.5787 18.1746 19.5237C18.1282 19.4697 18.1062 19.3949 18.1073 19.3002C18.1084 19.2132 18.1349 19.1438 18.1856 19.0943C18.2364 19.0437 18.3038 19.0194 18.3888 19.0205C18.4561 19.0205 18.5113 19.0393 18.5532 19.0723C18.5963 19.1053 18.6195 19.1505 18.6261 19.2066H18.5466C18.54 19.1681 18.5223 19.1394 18.4947 19.1196C18.4671 19.0998 18.4307 19.0888 18.3854 19.0877C18.3247 19.0877 18.2784 19.1053 18.2441 19.1449C18.2099 19.1835 18.1923 19.2396 18.1912 19.3112C18.1901 19.3794 18.2066 19.4345 18.2397 19.4752C18.2739 19.5171 18.3192 19.538 18.3766 19.5391C18.4252 19.5391 18.466 19.5259 18.4969 19.4983C18.5289 19.4708 18.5466 19.4334 18.5488 19.386M18.7188 19.5963L18.7464 19.0404L18.827 19.0437L18.816 19.2716L19.1239 19.2848L19.135 19.0569L19.2167 19.0602L19.1891 19.6161L19.1074 19.6128L19.1206 19.3519L18.8126 19.3387L18.7994 19.5996L18.7188 19.5963ZM19.3171 19.6249L19.358 19.0701L19.4386 19.0756L19.3977 19.6305L19.3171 19.6249ZM19.6582 19.156L19.6384 19.3442L19.7763 19.3563C19.826 19.3607 19.8613 19.3563 19.8834 19.3431C19.9055 19.3299 19.9188 19.3057 19.9221 19.2705C19.9254 19.2374 19.9188 19.2132 19.9 19.1978C19.8823 19.1824 19.847 19.1725 19.7951 19.1681L19.6571 19.156M19.5854 19.0833L19.815 19.1042C19.8525 19.1075 19.879 19.1119 19.8967 19.1163C19.9143 19.1207 19.9298 19.1273 19.943 19.1361C19.9662 19.1516 19.9839 19.1703 19.9938 19.1945C20.0049 19.2187 20.0082 19.2462 20.0049 19.2771C20.0015 19.3068 19.9927 19.3321 19.9762 19.3519C19.9607 19.3717 19.9386 19.386 19.9099 19.396C19.932 19.4037 19.9475 19.4158 19.9563 19.4312C19.9651 19.4466 19.9684 19.4708 19.9673 19.5049L19.9651 19.5974C19.9651 19.6172 19.9651 19.6316 19.9684 19.6426C19.9717 19.6525 19.9773 19.6602 19.985 19.6646V19.68L19.8901 19.6712C19.8834 19.6591 19.8812 19.6338 19.8823 19.5952V19.593L19.8845 19.5204C19.8856 19.4829 19.8801 19.4576 19.8669 19.4455C19.8536 19.4334 19.8183 19.4246 19.762 19.4191L19.6317 19.407L19.6075 19.6448L19.528 19.6371L19.5854 19.0833ZM20.0766 19.6921L20.1539 19.1405L20.2345 19.1505L20.1572 19.702L20.0766 19.6921Z" fill="#12110B"/>
<path d="M14.5373 8.14675C14.2635 8.27996 14.1211 8.47702 14.0979 8.74344C14.0759 9.03078 14.1432 9.23445 14.3198 9.38858C14.3982 9.46234 14.4666 9.5328 14.4666 9.55042C14.4666 9.56473 14.407 9.63409 14.332 9.70124C14.1553 9.85537 14.0538 10.059 14.0538 10.2693C14.0538 10.4796 14.1255 10.6381 14.3165 10.8341L14.4744 10.9959L14.3022 11.1754C13.9566 11.5332 13.9677 11.9438 14.3287 12.284L14.4821 12.4348H21.5481L21.7203 12.2631C22.0548 11.9295 22.0548 11.5684 21.7237 11.1864L21.5548 10.9937L21.7126 10.8187C22.0581 10.4322 22.0504 10.0789 21.6939 9.70675C21.5327 9.54161 21.5283 9.51078 21.6563 9.43262C21.8628 9.30271 21.9908 8.86454 21.897 8.59812C21.7579 8.19849 21.1618 7.93207 20.7975 8.10711C20.7302 8.13904 20.5944 8.22601 20.4939 8.29977C20.3924 8.37684 20.2985 8.43629 20.2798 8.43629C20.2643 8.43629 20.1749 8.37353 20.0811 8.29647C19.7168 8.00583 19.2896 8.02675 18.9253 8.35592L18.7862 8.48253L18.6018 8.32509C18.2298 7.99922 17.7651 8.01243 17.3865 8.35702L17.2474 8.48363L17.0972 8.35702C16.8754 8.16766 16.7296 8.11152 16.4746 8.10821C16.2307 8.10491 16.0022 8.19959 15.8222 8.38234L15.7317 8.47042L15.5363 8.31629C15.1765 8.02895 14.8872 7.97941 14.5384 8.15115L14.5373 8.14675Z" fill="#2F297F" stroke="#12110B" stroke-width="0.1"/>
<path d="M14.3554 12.6396C13.9878 13.0217 13.9912 13.4114 14.3632 13.7978L14.5023 13.942L14.3444 14.1039C14.2583 14.1919 14.1645 14.3174 14.1347 14.3813C14.0143 14.651 14.1049 15.0132 14.3411 15.2202C14.4835 15.3501 14.4879 15.4029 14.3521 15.5571C14.2925 15.6242 14.2208 15.7189 14.1943 15.7673C13.9128 16.2661 14.3334 16.8903 14.956 16.8903C15.2032 16.8903 15.3909 16.8165 15.5598 16.6481C15.6945 16.5149 15.7662 16.5116 15.8865 16.6305C16.0632 16.8132 16.2961 16.9255 16.4904 16.9255C16.7189 16.9255 16.8624 16.8584 17.0942 16.6514L17.2708 16.4895L17.432 16.6547C17.7808 17.0059 18.1341 17.0158 18.6032 16.6822L18.7942 16.549L18.9598 16.6888C19.1662 16.8573 19.3197 16.9244 19.5228 16.9244C19.7259 16.9244 19.876 16.8506 20.1123 16.6338L20.3077 16.4587L20.4578 16.5853C20.747 16.8275 20.9049 16.9046 21.1146 16.9046C21.3243 16.9046 21.4866 16.8374 21.7041 16.6558C21.9072 16.484 22.0154 16.2837 21.9889 16.1185C21.9624 15.9391 21.7902 15.6132 21.6621 15.5009L21.5528 15.4029L21.7217 15.2235C22.0893 14.8206 22.0938 14.5079 21.7295 14.1083L21.5793 13.9398L21.7372 13.7604C22.0904 13.3706 22.086 13.0095 21.7295 12.655L21.5385 12.469L18.0259 12.4723L14.5133 12.4756L14.3554 12.6407V12.6396Z" fill="#CF2717" stroke="#12110B" stroke-width="0.1"/>
<path d="M13.5781 12.1839C13.5781 12.1839 13.5803 15.4668 13.5881 16.7196C13.5759 16.9046 13.6918 16.9497 13.8629 17.073C14.1378 17.2723 14.4314 17.4815 16.0078 17.3681C17.455 17.378 17.7586 17.4815 17.9098 18.0209L17.9904 18.3237L18.061 18.0209C18.1725 17.5002 18.5159 17.378 19.9123 17.3681C21.7094 17.3934 21.8596 17.2877 22.1168 17.0829C22.1168 17.0829 22.3044 16.9475 22.353 16.8176C22.4071 16.6712 22.3817 16.5523 22.3817 16.5523V7.58643H13.5781V12.1839ZM22.2801 12.2213L22.2989 16.0084C22.2989 16.5182 22.3386 16.6745 22.2801 16.7714C22.2216 16.8683 22.1046 16.9982 22.1046 16.9982C21.832 17.2536 21.6001 17.3053 20.3538 17.291C19.5491 17.2932 19.1142 17.3141 18.4805 17.4077C18.3812 17.4914 18.1074 17.4837 17.9805 17.9703C17.816 17.4837 17.6979 17.5046 17.6979 17.5046C17.0245 17.2404 16.7231 17.2932 15.6435 17.2822C14.9459 17.3769 14.1963 17.2536 13.9137 16.9894C13.9137 16.9894 13.8718 17.0004 13.6808 16.789C13.683 15.8664 13.6808 12.2202 13.6808 12.2202V7.6789H22.2812V12.2202L22.2801 12.2213Z" fill="#12110B"/>
<path d="M16.7628 9.65394C16.4968 10.1692 16.4858 10.4004 16.7066 10.8132C16.8788 11.1303 17.0819 11.3317 17.359 11.4605C18.0831 11.8007 19.0093 11.5497 19.3736 10.9156C19.5988 10.5259 19.5723 9.87523 19.325 9.59119L19.2577 9.51523L19.1936 9.73981C19.1031 10.0602 19.0137 10.222 18.8338 10.3938C18.496 10.7141 18.0312 10.7868 17.551 10.5886C17.1801 10.4334 17.03 10.2187 16.8909 9.62091L16.8567 9.47229L16.7628 9.65394Z" fill="white"/>
<path d="M16.6746 9.68701C16.4516 10.1604 16.4726 10.3971 16.7452 10.898C17.4539 12.2037 19.558 11.7116 19.548 10.2353C19.5381 9.99857 19.5458 9.84444 19.4067 9.58242C19.3405 9.47343 19.3129 9.4415 19.2654 9.37545C19.2467 9.44701 19.2191 9.57251 19.1639 9.78059C18.9619 10.5094 18.294 10.8496 17.5952 10.5754C17.2012 10.4246 17.019 10.178 16.9175 9.66719L16.8468 9.33582L16.6746 9.68591V9.68701ZM17.3623 10.6239C17.848 10.9167 18.5865 10.8221 18.9608 10.4345C19.112 10.2738 19.2058 10.0228 19.2445 9.89508C19.282 9.76958 19.2897 9.75086 19.3129 9.62426C19.3714 9.74646 19.4034 9.81031 19.4321 9.99857C19.473 10.2771 19.4067 10.5094 19.3361 10.68C18.9817 11.5509 17.8491 11.8151 17.1404 11.1909C16.796 10.898 16.5234 10.3211 16.6724 9.94903C16.7254 9.81692 16.7375 9.74205 16.8071 9.60224C16.8192 9.69692 16.8269 9.82793 16.8976 10.0261C16.9881 10.3002 17.1504 10.4995 17.3634 10.6217L17.3623 10.6239Z" fill="#12110B"/>
<path d="M16.2719 14.0389C16.2652 14.2437 16.2752 14.3373 16.3105 14.4892C16.2001 14.3901 16.0897 14.3207 15.9363 14.2371C15.742 14.1314 15.4958 14.0312 15.413 14.16C15.3324 14.2844 15.5632 14.4539 15.7431 14.5486C15.9407 14.6521 16.0533 14.6664 16.1824 14.7138C16.0743 14.7677 15.9263 14.8029 15.7619 14.902C15.6007 14.9989 15.36 15.1982 15.4517 15.3259C15.5444 15.4558 15.8126 15.3094 15.965 15.2147C16.0908 15.1354 16.2575 15.011 16.3226 14.9472C16.3094 15.0385 16.2707 15.2213 16.2741 15.3952C16.2774 15.6066 16.3094 15.8444 16.4772 15.8433C16.6494 15.8433 16.6858 15.5637 16.6836 15.3754C16.6803 15.1784 16.6571 15.0385 16.6361 14.9417C16.7112 15.0132 16.8238 15.1145 16.9717 15.2246C17.0943 15.3149 17.3945 15.4481 17.4839 15.3204C17.5756 15.1905 17.4332 15.0606 17.1715 14.9053C16.9883 14.7963 16.858 14.7589 16.7388 14.7127C16.8591 14.6664 16.9916 14.6543 17.1848 14.5442C17.4718 14.3813 17.5921 14.2723 17.5049 14.1325C17.4199 13.996 17.2466 14.0708 16.985 14.2261C16.8448 14.3097 16.7134 14.4198 16.624 14.5002C16.6439 14.3747 16.6659 14.1908 16.6648 14.0532C16.6626 13.8495 16.6152 13.5875 16.4661 13.5864C16.3182 13.5864 16.2796 13.8143 16.273 14.0378L16.2719 14.0389Z" fill="#ECD300" stroke="#12110B" stroke-width="0.1"/>
<path d="M16.6968 14.7149C16.6968 14.8338 16.5941 14.9307 16.4661 14.9307C16.338 14.9307 16.2354 14.8338 16.2354 14.7149C16.2354 14.596 16.338 14.4991 16.4661 14.4991C16.5941 14.4991 16.6968 14.5949 16.6968 14.7149Z" fill="white" stroke="#12110B" stroke-width="0.1"/>
<path d="M19.2909 14.0389C19.2843 14.2437 19.2942 14.3373 19.3295 14.4892C19.2191 14.3901 19.1088 14.3207 18.9553 14.2371C18.761 14.1314 18.5149 14.0312 18.4321 14.16C18.3515 14.2844 18.5822 14.4539 18.7621 14.5486C18.9597 14.6521 19.0723 14.6664 19.2015 14.7138C19.0933 14.7677 18.9454 14.8029 18.7809 14.902C18.6197 14.9989 18.3791 15.1982 18.4707 15.3259C18.5634 15.4558 18.8317 15.3094 18.984 15.2147C19.1099 15.1354 19.2765 15.011 19.3417 14.9472C19.3284 15.0385 19.2898 15.2213 19.2931 15.3952C19.2964 15.6066 19.3284 15.8444 19.4962 15.8433C19.6684 15.8433 19.7049 15.5637 19.7026 15.3754C19.6993 15.1784 19.6762 15.0385 19.6552 14.9417C19.7302 15.0132 19.8428 15.1145 19.9908 15.2246C20.1133 15.3149 20.4136 15.4481 20.503 15.3204C20.5946 15.1905 20.4522 15.0606 20.1906 14.9053C20.0073 14.7963 19.8771 14.7589 19.7578 14.7127C19.8782 14.6664 20.0106 14.6543 20.2038 14.5442C20.4908 14.3813 20.6112 14.2723 20.5239 14.1325C20.4389 13.996 20.2656 14.0708 20.004 14.2261C19.8638 14.3097 19.7325 14.4198 19.643 14.5002C19.6629 14.3747 19.685 14.1908 19.6839 14.0532C19.6817 13.8495 19.6342 13.5875 19.4852 13.5864C19.3373 13.5864 19.2986 13.8143 19.292 14.0378L19.2909 14.0389Z" fill="#ECD300" stroke="#12110B" stroke-width="0.1"/>
<path d="M19.7158 14.7149C19.7158 14.8338 19.6132 14.9307 19.4851 14.9307C19.3571 14.9307 19.2544 14.8338 19.2544 14.7149C19.2544 14.596 19.3571 14.4991 19.4851 14.4991C19.6132 14.4991 19.7158 14.5949 19.7158 14.7149Z" fill="white" stroke="#12110B" stroke-width="0.1"/>
</svg>
