<svg width="36" height="24" viewBox="0 0 36 24" fill="none" xmlns="http://www.w3.org/2000/svg">
<g clip-path="url(#clip0_11930_68205)">
<path fill-rule="evenodd" clip-rule="evenodd" d="M0 0H36V7.5H0V0Z" fill="#009A00"/>
<path fill-rule="evenodd" clip-rule="evenodd" d="M0 7.5H36V8.25H0V7.5Z" fill="white"/>
<path fill-rule="evenodd" clip-rule="evenodd" d="M0 8.25H36V15.75H0V8.25Z" fill="#000001"/>
<path fill-rule="evenodd" clip-rule="evenodd" d="M0 15.75H36V16.5H0V15.75Z" fill="white"/>
<path fill-rule="evenodd" clip-rule="evenodd" d="M0 16.5H36V24H0V16.5Z" fill="#FFCA00"/>
<path fill-rule="evenodd" clip-rule="evenodd" d="M0 0V24L15.75 12L0 0Z" fill="#FF0000"/>
<path fill-rule="evenodd" clip-rule="evenodd" d="M9.30469 15.6094L6.90469 13.8516L4.50469 15.6094L5.4375 12.7829L3.02344 11.0438L6 11.0532L6.90469 8.22192L7.81406 11.0579L10.7906 11.0438L8.37656 12.7829L9.30469 15.6094Z" fill="#FFCA00"/>
<path fill-rule="evenodd" clip-rule="evenodd" d="M4.81836 13.6359H6.55273C6.69336 13.7906 6.99805 13.8562 7.29336 13.6359C7.83711 13.3359 8.88711 13.6359 8.88711 13.6359L9.09336 13.4156L8.5918 11.7656L8.40898 11.5688C8.40898 11.5688 8.01992 11.3344 7.28398 11.4141C6.54805 11.4938 6.29023 11.3906 6.29023 11.3906C6.29023 11.3906 5.64805 11.4656 5.46523 11.5594L5.25898 11.7656L4.81836 13.6359Z" fill="white" stroke="black" stroke-width="0.0515625" stroke-linecap="round" stroke-linejoin="round"/>
<path d="M5.16992 13.2093C5.16992 13.2093 6.81992 13.0031 7.29805 13.6359C7.03086 13.8234 6.7918 13.8375 6.53867 13.65C6.57617 13.5796 7.1293 13.0031 8.54023 13.1953" stroke="black" stroke-width="0.0515625" stroke-linecap="round" stroke-linejoin="round"/>
<path d="M6.93789 11.5593L6.92383 13.3781M8.40977 11.5828L8.71914 13.0312" stroke="black" stroke-width="0.05625"/>
<path d="M5.48398 11.5593L5.31055 12.3093" stroke="black" stroke-width="0.0515625" stroke-linecap="round" stroke-linejoin="round"/>
<path fill-rule="evenodd" clip-rule="evenodd" d="M3.69824 13.8328L4.10137 14.3109C4.14824 14.3391 4.19512 14.3391 4.2373 14.3109L4.8373 13.5891L5.09043 13.275C5.13262 13.2281 5.14199 13.1766 5.1373 13.1344L5.6248 12.6984L5.72793 12.7078C5.68105 12.6984 5.64824 12.675 5.68105 12.6234L5.79355 12.5391L5.87793 12.6469C5.87793 12.6469 5.75605 12.8063 5.74199 12.8063H5.61074L5.35762 13.0359L5.47012 13.1297L5.63418 13.5891L5.84043 13.4437L5.70918 12.975L5.99512 12.6609L5.8873 12.4922L5.9623 12.3984C5.9623 12.3984 6.96074 13.0266 7.3498 12.8578C7.35918 12.8578 7.37324 12.4078 7.37324 12.4078C7.37324 12.4078 6.33262 12.3 6.30918 12.0937C6.28574 11.8875 6.54355 11.8594 6.54355 11.8594L6.43105 11.7094L6.45449 11.625L6.6373 11.85L7.04512 11.5031L9.45918 14.25C9.59043 14.1984 9.61855 14.1656 9.62793 14.0344L7.26543 11.3203L7.44355 11.1281C7.48105 11.0859 7.49043 11.0719 7.49043 11.0063L7.77168 10.7672C7.84532 10.7924 7.90815 10.842 7.9498 10.9078L8.71855 10.2656C8.7373 10.2844 8.79824 10.3031 8.84043 10.2844L10.1014 9.07031L8.72793 10.0406L8.68105 10.0078C8.68105 9.96562 8.72793 9.96094 8.68105 9.88594C8.6248 9.82031 8.54512 9.94687 8.53574 9.94687C8.52168 9.94687 8.33418 9.88125 8.29199 9.79687L8.28262 10.0172L7.93105 10.3453L7.66387 10.3312L7.27949 10.7062L7.23262 10.8469L7.29355 10.9734C7.29355 10.9734 7.0873 11.1516 7.0873 11.1422C7.0873 11.1281 7.04512 11.0859 7.04043 11.0812L7.21855 10.9219L7.24199 10.8141L7.18574 10.7203C7.16699 10.7344 6.94199 10.9734 6.92793 10.9453L6.27168 10.2187L6.30918 10.0828L5.90137 9.6375C5.75137 9.58594 5.5123 9.57656 5.46543 9.90469C5.42793 9.97969 5.11855 9.91406 5.11855 9.91406L4.9498 9.95156L3.99355 11.2969L4.52324 11.9344L5.61074 10.5609L5.64355 10.1719L5.86855 10.425C5.94824 10.4344 6.01855 10.4391 6.08887 10.4016L6.73105 11.1187L6.62324 11.2266L6.71699 11.3297L6.82949 11.2547L6.87168 11.3156C6.82012 11.3437 6.77793 11.3859 6.72637 11.4141C6.64199 11.3578 6.55762 11.2875 6.5623 11.1797L6.20137 11.4797L6.1873 11.5359L5.11387 12.4266L5.02012 12.4406L4.99668 12.7219L5.69512 12.1406V12.0563L5.76543 12.1172L6.30918 11.6812C6.30918 11.6812 6.34668 11.7281 6.33262 11.7281C6.31855 11.7281 5.8498 12.1641 5.8498 12.1641L5.84043 12.2109L5.75605 12.2859L5.70918 12.2484L5.05293 12.8297H4.95918L4.59824 13.1906C4.50449 13.2 4.4248 13.2094 4.34512 13.2609L3.69824 13.8328Z" fill="black" stroke="black" stroke-width="0.0515625" stroke-linecap="round" stroke-linejoin="round"/>
</g>
<defs>
<clipPath id="clip0_11930_68205">
<rect width="36" height="24" rx="2" fill="white"/>
</clipPath>
</defs>
</svg>
