<svg width="36" height="24" viewBox="0 0 36 24" fill="none" xmlns="http://www.w3.org/2000/svg">
<g clip-path="url(#clip0_11930_68202)">
<path fill-rule="evenodd" clip-rule="evenodd" d="M0 0.00983227L0.0415661 17L28 0L0 0.00983227Z" fill="#3662A2"/>
<path fill-rule="evenodd" clip-rule="evenodd" d="M36 23.99L35.928 6L8 24L35.9949 23.99H36Z" fill="#38A100"/>
<path fill-rule="evenodd" clip-rule="evenodd" d="M0 18.5866L0.0208273 24L6.13885 23.995L36 4.75797L35.9636 0.0500313L29.9236 0L0 18.5816V18.5866Z" fill="#C70000"/>
<path d="M13.1148 5.62004C13.1148 6.10406 12.9226 6.56826 12.5803 6.91051C12.2381 7.25277 11.7739 7.44504 11.2898 7.44504C10.8058 7.44504 10.3416 7.25277 9.99937 6.91051C9.65712 6.56826 9.46484 6.10406 9.46484 5.62004C9.46484 5.13602 9.65712 4.67183 9.99937 4.32957C10.3416 3.98732 10.8058 3.79504 11.2898 3.79504C11.7739 3.79504 12.2381 3.98732 12.5803 4.32957C12.9226 4.67183 13.1148 5.13602 13.1148 5.62004Z" fill="#FFE700"/>
<path fill-rule="evenodd" clip-rule="evenodd" d="M11.8902 7.93995L12.9802 8.59995L12.9702 7.32495L14.2402 7.35495L13.6002 6.25495L14.7102 5.63995L13.6052 5.01495L14.2652 3.92495L12.9952 3.93495L13.0252 2.66495L11.9252 3.30995L11.3152 2.19995L10.6852 3.30495L9.60023 2.64495L9.60523 3.91995L8.33523 3.88995L8.97523 4.98995L7.86523 5.60495L8.97023 6.22995L8.31023 7.31995L9.58023 7.30995L9.55023 8.57995L10.6502 7.93495L11.2602 9.04495L11.8902 7.93995ZM13.6197 5.61994C13.6197 6.89994 12.5747 7.93494 11.2897 7.93494C10.0047 7.93494 8.95972 6.89994 8.95972 5.61994C8.95972 4.33994 9.99972 3.30994 11.2897 3.30994C12.5797 3.30994 13.6197 4.34494 13.6197 5.61994Z" fill="#FFE700"/>
</g>
<defs>
<clipPath id="clip0_11930_68202">
<rect width="36" height="24" rx="2" fill="white"/>
</clipPath>
</defs>
</svg>
