<svg width="36" height="24" viewBox="0 0 36 24" fill="none" xmlns="http://www.w3.org/2000/svg">
<g clip-path="url(#clip0_11930_68199)">
<path d="M0 0H36V24H0V0Z" fill="#009543"/>
<path d="M0 0H36V16H0V0Z" fill="#ED4135"/>
<path d="M0 0H36V8H0V0Z" fill="#0035AD"/>
<path d="M11.9998 19.865C16.3435 19.865 19.8648 16.3437 19.8648 12C19.8648 7.65629 16.3435 4.13501 11.9998 4.13501C7.65605 4.13501 4.13477 7.65629 4.13477 12C4.13477 16.3437 7.65605 19.865 11.9998 19.865Z" fill="#FAE600" stroke="black" stroke-width="0.265"/>
<path d="M10.6641 13.1749H13.3291H10.6641ZM10.6641 11.1999H13.3291H10.6641ZM11.9991 4.15991V17.5999V4.15991Z" fill="black"/>
<path d="M10.6641 13.1749H13.3291M10.6641 11.1999H13.3291M11.9991 4.15991V17.5999" stroke="black" stroke-width="0.32"/>
<path d="M8.83008 19.22C12.0401 20.535 15.0501 19.305 15.0501 19.305C15.0501 19.305 13.9151 18.075 13.3351 17.595C12.7651 17.125 11.0951 17.145 10.5251 17.595C9.93436 18.1092 9.36871 18.6515 8.83008 19.22Z" fill="#000001"/>
<path d="M11.9991 16.905C12.4852 16.905 12.8791 16.3319 12.8791 15.625C12.8791 14.918 12.4852 14.345 11.9991 14.345C11.5131 14.345 11.1191 14.918 11.1191 15.625C11.1191 16.3319 11.5131 16.905 11.9991 16.905Z" fill="#000001"/>
<path d="M11.9998 12.86C12.588 12.86 13.0648 12.5578 13.0648 12.185C13.0648 11.8122 12.588 11.51 11.9998 11.51C11.4116 11.51 10.9348 11.8122 10.9348 12.185C10.9348 12.5578 11.4116 12.86 11.9998 12.86Z" fill="#000001"/>
<path d="M11.9998 10.13C12.588 10.13 13.0648 9.65318 13.0648 9.065C13.0648 8.47682 12.588 8 11.9998 8C11.4116 8 10.9348 8.47682 10.9348 9.065C10.9348 9.65318 11.4116 10.13 11.9998 10.13Z" fill="#000001"/>
<path d="M13.2798 5.09497C13.2798 5.09497 13.3698 5.24497 13.1798 5.59497C12.2498 7.26997 11.3148 7.30497 11.1398 7.44997C10.9398 7.60997 10.8598 7.59997 10.8598 7.59997C10.8748 7.45497 10.8848 6.86997 10.8948 6.81497C11.0398 6.02997 12.2198 6.03997 13.1448 5.23997C13.2898 5.11497 13.2798 5.08997 13.2798 5.08997V5.09497ZM10.1598 8.69497C10.1598 8.69497 10.3748 9.29497 10.3998 9.89497C10.4498 10.855 11.3698 10.88 11.9998 10.88V10.345C11.5248 10.345 11.1148 10.275 10.7748 9.57497C10.5959 9.26422 10.3901 8.96976 10.1598 8.69497ZM10.1348 16.425C10.1348 16.425 10.4698 16.01 10.8648 15.04C11.0648 14.535 11.5548 14.24 11.9998 14.24V13.49C10.9848 13.49 10.4998 13.865 10.4498 14.42C10.3861 15.0941 10.2809 15.7638 10.1348 16.425Z" fill="#000001"/>
<path d="M13.84 8.69482C13.84 8.69482 13.625 9.29482 13.6 9.89482C13.55 10.8548 12.63 10.8798 12 10.8798V10.3498C12.475 10.3498 12.885 10.2798 13.225 9.57482C13.405 9.26482 13.61 8.96982 13.84 8.69482ZM13.865 16.4298C13.865 16.4298 13.53 16.0098 13.135 15.0398C12.935 14.5348 12.445 14.2398 12 14.2398V13.4998C13.015 13.4998 13.5 13.8748 13.55 14.4298C13.6138 15.1023 13.719 15.7703 13.865 16.4298Z" fill="black"/>
</g>
<defs>
<clipPath id="clip0_11930_68199">
<rect width="36" height="24" rx="2" fill="white"/>
</clipPath>
</defs>
</svg>
