<svg width="36" height="24" viewBox="0 0 36 24" fill="none" xmlns="http://www.w3.org/2000/svg">
<rect width="36" height="24" rx="2" fill="#198200"/>
<path fill-rule="evenodd" clip-rule="evenodd" d="M11 0H25V24H11V0Z" fill="white"/>
<path fill-rule="evenodd" clip-rule="evenodd" d="M17.6744 17.5649V20.1949L18.7394 20.2049C18.7394 20.2049 18.3994 17.9149 18.5844 17.6049C18.7694 17.3049 18.9444 17.3449 18.9444 17.3449C18.9444 17.3449 19.6394 17.5549 19.7144 17.5199C19.7894 17.4899 19.7044 17.2599 20.0744 17.2899C20.1944 17.2449 20.1294 17.0399 20.2394 17.0299C20.3494 17.0149 22.4644 17.6199 22.9244 17.0499C22.8044 16.7299 22.3894 17.0249 22.2794 17.0399C22.1794 17.0399 21.7644 16.8399 21.5244 17.0399C21.3044 16.8749 20.3044 16.7649 20.3044 16.7649C20.1744 16.6349 22.6844 16.8299 22.8294 16.7299C23.1244 16.4349 22.2794 16.4699 22.1494 16.5649C22.0431 16.5007 21.9223 16.4644 21.7983 16.4591C21.6742 16.4539 21.5508 16.4799 21.4394 16.5349C21.3544 16.3299 20.5394 16.4149 20.0894 16.3599C19.9394 16.2749 19.9644 16.2249 20.0644 16.1699C21.0144 16.2099 21.9544 16.3349 22.9044 16.2949C23.1594 15.9599 22.5794 15.8299 22.2244 16.1199C22.0144 15.7699 21.5894 16.1049 21.3044 16.0699C21.0194 16.0399 21.1544 15.6899 21.5144 15.7449C21.8744 15.7949 22.5194 15.7249 22.6394 15.5599C22.7594 15.3949 22.5694 15.2249 21.9744 15.3849C21.7744 15.1849 21.3244 15.3849 21.1194 15.4499C20.8394 15.2949 20.1944 15.4249 19.9794 15.4799C19.7644 15.3499 21.1044 15.1299 21.1044 15.1299C21.6244 15.1199 21.9194 15.0299 22.0794 14.9899C22.8644 14.5699 22.0694 14.5249 21.6594 14.8299C21.4044 14.6299 21.1594 14.8449 20.9294 14.9199C20.7138 14.9929 20.4869 15.0268 20.2594 15.0199C20.2594 14.9899 20.8894 14.6049 20.8894 14.6049C20.8894 14.6049 21.6544 14.5499 21.8094 14.5299C21.9594 14.5049 22.7494 14.1049 21.6744 14.3749C21.3044 14.4049 21.0844 14.3849 20.9394 14.3949C20.1144 14.3099 21.0194 14.2299 21.0194 14.2299C21.0194 14.2299 22.1894 14.1249 22.2044 14.0649C22.2244 13.6149 21.2494 13.8249 21.2394 13.8249C21.2394 13.4999 20.3294 13.8349 20.3294 13.8249C20.1544 13.7249 20.4294 13.6199 20.4294 13.6199C20.6694 13.5599 21.0294 13.5399 21.1244 13.4649C21.1244 13.4649 21.8044 13.4599 21.8844 13.2799C21.7194 12.8149 20.4444 13.3599 20.2744 13.4399C20.0444 13.4399 20.4244 13.0699 20.4394 13.0599C20.4494 13.0449 21.4894 13.0049 21.9844 12.3349C22.0194 11.9299 21.4044 12.5649 21.4044 12.5649C21.3544 12.0349 20.7344 12.5999 20.3744 12.6399C20.0094 12.6899 19.9994 12.4749 20.2494 12.4399C20.4994 12.4099 20.7894 12.4349 20.9294 12.0499C21.0744 11.6649 21.4994 12.0699 21.5794 11.9299C21.6544 11.7849 21.4244 11.6649 21.4244 11.6649C21.4244 11.6649 21.7444 11.3349 21.2244 11.3499C20.7144 11.3599 20.0444 11.2799 20.0444 11.2799C20.0444 11.2799 20.5794 11.0749 21.0844 11.0799C21.5844 11.0949 21.3144 10.7249 20.8344 10.7249C20.3494 10.7249 20.0994 10.5599 20.0994 10.5599L20.9194 10.2499L20.8694 10.0199C20.8694 10.0199 21.3494 9.63492 20.6694 9.72492L19.9094 9.82492L18.5394 10.0299C18.5294 10.0299 18.1694 9.91992 18.5194 9.82992C18.8694 9.73992 20.1094 9.49492 20.2944 9.55992C20.4794 9.62492 20.2744 9.09992 19.6144 9.03492C18.9594 8.96992 18.5494 9.19992 18.5494 9.19992C18.5494 9.19992 18.1244 9.04492 18.5194 8.91492C18.9144 8.77992 19.5394 8.95992 19.5394 8.95992C19.5394 8.95992 20.2394 8.74992 19.6594 8.65992C19.0794 8.57492 18.8944 8.73992 18.6294 8.74992C18.5244 8.61492 19.5394 8.58492 19.6044 8.47492C19.4944 8.27492 18.8644 8.47492 18.4944 8.47492C18.3444 8.40992 18.3294 8.29992 18.5094 8.23492C18.8844 8.21992 19.2394 8.23992 19.6144 8.22492C19.6044 8.02492 19.6144 7.78992 19.6044 7.58492C19.1244 7.49992 18.5644 7.64992 18.2994 7.63492C18.3694 7.41992 19.3994 7.35992 19.5144 7.29992C19.7544 6.99992 18.5094 7.29992 18.4944 7.29992C18.2794 7.26992 18.2944 7.12992 18.4294 7.04992C18.7494 7.01492 19.4594 7.09992 19.4094 6.87992C19.3694 6.67992 18.9094 6.78492 18.7294 6.82992C18.5394 6.87492 18.2644 6.83992 18.2644 6.83992C18.1494 6.67992 19.3394 6.74492 19.3294 6.61992C19.3144 6.47992 18.5744 6.57992 18.3194 6.58992C18.1244 6.45492 19.2694 6.36492 19.2844 6.34992C19.3294 5.98492 18.5194 6.34992 18.3644 6.34992C18.2144 6.34992 18.2894 6.11992 18.2894 6.11992C18.2894 6.11992 18.6044 5.97492 18.5944 5.95492C18.5123 5.9107 18.425 5.8771 18.3344 5.85492C18.3094 5.85492 18.3344 5.60492 18.3344 5.60492C18.3344 5.60492 18.5944 5.40492 18.5744 5.34992C18.5494 5.29492 18.2644 5.39492 18.2644 5.39492V5.17492C18.2644 5.17492 18.4744 5.15492 18.4944 5.05492C18.5194 4.95492 18.2444 4.94492 18.2444 4.94492L18.1344 3.79492L18.0344 4.86992L17.6744 4.91992C17.6744 4.91992 17.9244 5.06492 17.9744 5.20992C18.0144 5.34992 17.6644 5.30992 17.6644 5.30992C17.6644 5.30992 17.9494 5.54992 17.9694 5.63492C17.9944 5.72492 17.5744 5.74492 17.5744 5.74492C17.5744 5.74492 17.9244 5.99492 17.9494 6.13992C17.9694 6.27992 17.9494 6.35992 17.9494 6.35992C17.9494 6.35992 17.3694 5.85492 16.9994 5.99492C16.7994 6.09492 17.4394 6.14492 17.8594 6.50992C17.8594 6.59492 16.8344 6.25992 16.7994 6.46992C16.8194 6.52492 17.8944 6.67992 17.9694 6.81992C17.5794 6.83492 16.7694 6.73492 16.7994 6.86492C16.7144 7.01492 17.5594 6.92992 17.9144 7.04992C18.0194 7.16992 18.0094 7.26992 17.8294 7.27992C17.4844 7.11492 16.7244 6.99492 16.7194 7.20492C16.7244 7.25492 17.5094 7.22492 17.7944 7.40992C17.4144 7.49992 16.1244 7.23492 16.1194 7.35992C16.1544 7.42492 16.3594 7.68492 16.7094 7.67492C17.0594 7.66492 17.8744 7.81492 17.9294 7.92492C17.9794 8.03492 16.8744 7.69492 16.4594 7.89492C16.0394 8.09492 17.6544 7.96992 17.9144 8.20992C18.1794 8.45492 17.3894 8.18992 17.3894 8.18992C17.3894 8.18992 16.2894 8.03992 16.1294 8.11492C15.9644 8.18992 15.7794 8.36492 15.7794 8.36492C15.7794 8.36492 15.8894 8.58492 15.9994 8.53992C16.1094 8.49492 15.9644 8.67492 15.9644 8.67492C15.9644 8.67492 17.4994 9.04492 17.8394 9.37492C18.1794 9.70492 15.8894 8.85992 15.8894 8.85992C15.8894 8.85992 14.9644 9.19992 15.9394 9.21992C15.8294 9.38492 15.9994 9.48492 15.9994 9.48492C15.9994 9.48492 17.6194 9.82492 17.7844 10.0849C17.9494 10.3499 16.6794 9.83492 16.3894 9.68992C16.1044 9.54992 15.2944 9.77992 15.3044 9.83492C15.3194 9.88492 15.7044 9.96492 15.7094 10.0649C15.7244 10.1649 15.2394 10.1949 15.2394 10.2849C15.2394 10.3699 17.2894 10.7999 17.8394 11.2599C18.3894 11.7199 16.2294 10.7099 16.2294 10.7099C16.2294 10.7099 16.3494 10.8749 16.2294 10.9199C16.1044 10.9649 15.6794 10.3049 14.9794 10.7099C14.8494 10.8799 15.5894 11.0099 15.7794 11.0299C15.7144 11.1949 15.6594 11.2499 15.9194 11.4149C16.1794 11.5799 15.4044 11.1749 15.4044 11.1949L15.4594 11.4799C15.2194 11.2799 14.9244 11.2249 14.6494 11.4249C14.6494 11.4249 14.6394 11.6249 14.9244 11.7449C14.7694 12.0599 15.0994 11.9599 15.6244 12.2599C14.8444 12.0549 14.7794 12.4349 15.3394 12.5199C15.8994 12.6049 17.4344 12.6649 17.7944 13.1349C18.1594 13.6049 17.2794 12.9549 17.1794 12.9349C17.1594 12.9499 17.1394 13.1799 17.1394 13.1799C16.9044 13.0449 16.6894 12.9199 16.4094 12.8649C16.3844 12.9099 16.3944 12.9699 16.3694 13.0149C16.1194 12.8299 15.8944 12.7049 15.5244 12.6849L15.4794 12.8599C15.4794 12.8599 15.1744 12.4749 14.5694 12.8599C14.2344 13.1049 15.8444 12.9499 16.1044 13.2349C16.3694 13.5199 16.1594 13.5649 16.1594 13.5649L15.5044 13.3199C15.5044 13.3199 14.7244 13.1799 14.5044 13.3549C14.2844 13.5299 17.7044 13.9549 17.8044 14.4299C17.8744 14.6799 17.0044 14.1599 16.2494 13.9349L16.1594 14.1849C16.1594 14.1849 15.8594 13.8849 15.5244 13.8349C15.5144 13.8349 15.5894 14.1349 15.5894 14.1349C15.5894 14.1349 14.7494 13.7349 14.3194 13.9449C13.8944 14.1549 15.8094 14.2649 15.9844 14.4599C16.1594 14.6599 15.4044 14.3299 15.3344 14.4599C15.2744 14.5949 14.3394 14.2199 14.3544 14.3949C14.3644 14.5699 14.4844 14.6699 14.4844 14.6699C14.4844 14.6699 16.4244 14.8549 16.4894 15.0849C16.5544 15.3149 15.4144 14.9549 15.4144 14.9549C15.4144 14.9549 15.3044 15.1199 15.3944 15.1949C15.4794 15.2749 14.7344 14.7599 14.8044 15.0949C14.5594 14.9999 13.9344 14.7049 14.0244 14.9349C14.1094 15.1649 15.7894 15.4949 15.7894 15.4949C15.7894 15.4949 15.0544 15.5449 15.0894 15.7349C14.1394 15.1599 14.1644 15.5249 14.1894 15.5349C14.2094 15.5449 12.9694 15.2299 13.9044 15.7349C14.8394 16.2399 14.4044 16.1499 14.4194 16.1599C14.4294 16.1699 14.5194 16.4099 14.4944 16.4099C14.4744 16.4099 13.8594 16.0849 13.6494 16.0599C13.4444 16.0399 12.4544 16.3349 13.5094 16.7999C14.5644 17.2649 15.2094 16.6899 15.7894 16.7499C16.3694 16.8199 16.6394 16.9199 16.5894 17.0999C16.5344 17.2899 15.9944 16.4949 15.4294 17.1849C14.7794 17.0549 14.3444 16.9849 14.6794 17.4549C13.6294 17.0599 12.9794 17.5749 14.3094 17.7849C15.6094 17.8249 16.4094 17.4649 16.4094 17.4649C16.4094 17.4649 16.6344 17.8699 16.9494 17.5849C17.2694 17.2999 17.2794 17.6949 17.2894 17.6949L17.5994 17.5649H17.6744Z" fill="#198200" stroke="black" stroke-width="0.035" stroke-linecap="round" stroke-linejoin="round"/>
<path fill-rule="evenodd" clip-rule="evenodd" d="M17.8 16.01V15.825C17.8 15.825 17.39 15.75 17.185 15.79C17.07 15.725 16.955 15.635 16.81 15.71C16.785 15.77 17.075 15.925 17.17 15.925C17.3759 15.9864 17.5902 16.0151 17.805 16.01H17.8ZM17.8 16.3101C17.8 16.3101 17.385 16.155 17.22 16.33C17.245 16.515 17.705 16.605 17.805 16.555C17.9 16.505 17.805 16.315 17.8 16.305V16.3101ZM18.5 16.38V16.51C18.5 16.51 18.99 16.605 19.08 16.5C19.165 16.395 18.68 16.325 18.495 16.38H18.5ZM18.475 15.87L18.49 16.015C18.49 16.015 18.92 16.11 19.085 15.875C19.25 15.64 18.71 15.875 18.475 15.87ZM18.495 15.37V15.47C18.495 15.47 18.82 15.52 18.895 15.38C18.965 15.24 18.505 15.38 18.495 15.37ZM17.825 15.07C17.775 15.005 17.6 14.83 17.135 14.78C16.81 14.78 17.72 15.255 17.825 15.075V15.07ZM18.485 14.585L18.475 14.72C18.475 14.72 19.575 14.39 19.83 14.415C20.06 14.35 20.11 14.19 20.1 14.19C19.9 14.045 18.955 14.305 18.485 14.585ZM18.51 14.195L18.495 14.325C18.495 14.325 19.27 14.175 19.48 14.025C19.685 13.875 18.52 14.2 18.51 14.195ZM18.48 13.815V13.945C18.48 13.945 18.995 13.925 19.105 13.825C19.17 13.72 18.645 13.81 18.48 13.815ZM19.56 14.9C19.56 14.9 19.83 14.94 19.88 14.86C19.87 14.72 19.56 14.91 19.56 14.9ZM18.5 13.33L18.505 13.615C18.505 13.615 19.75 13.22 19.83 13.15C19.905 13.075 20.08 12.85 18.5 13.33ZM18.465 12.935V13.145C18.465 13.145 18.965 13.105 19.195 12.92C19.425 12.73 18.465 12.94 18.465 12.935ZM17.865 12.47L17.895 12.655L16.25 12.125C16.255 12.125 16.17 11.855 17.865 12.47ZM17.89 11.805C17.89 11.825 17.89 11.985 17.88 11.98C17.88 11.98 16.74 11.505 16.695 11.545C16.545 11.195 17.895 11.815 17.895 11.805H17.89ZM18.445 12.105L18.465 12.26C18.465 12.26 19.165 12.115 19.205 12.045C19.245 11.975 18.445 12.105 18.445 12.1V12.105ZM18.46 12.475C18.47 12.51 18.48 12.64 18.48 12.64C18.48 12.64 18.76 12.615 18.805 12.55C18.845 12.485 18.46 12.475 18.46 12.475ZM18.42 11.625V11.775C18.42 11.775 19.19 11.625 19.27 11.555C19.355 11.48 18.405 11.625 18.42 11.625ZM18.42 11.2C18.42 11.21 18.395 11.355 18.415 11.355C18.435 11.355 19.345 11.205 19.49 11.07C19.63 10.945 18.44 11.215 18.425 11.2H18.42ZM18.41 10.455V10.62C18.41 10.62 19 10.495 19.11 10.37C19.22 10.245 18.41 10.47 18.41 10.455ZM18.31 9.37505L18.32 9.61505C18.32 9.61505 19.12 9.50505 19.23 9.37505C19.345 9.24005 18.305 9.37505 18.31 9.37505ZM17.94 7.55005V7.70005C17.94 7.70005 17.565 7.68505 17.655 7.62005C17.745 7.55505 17.94 7.56505 17.94 7.55005ZM18.29 7.75005L18.3 7.96005C18.3 7.96005 18.785 7.91005 18.82 7.83505C18.86 7.76005 18.3 7.75505 18.29 7.75505V7.75005ZM18.26 8.05005C18.26 8.05005 18.27 8.18005 18.28 8.18005C18.29 8.18005 18.475 8.16505 18.515 8.11505C18.555 8.06505 18.28 8.06505 18.265 8.05005H18.26ZM17.85 8.64005C17.85 8.65505 17.865 8.84005 17.85 8.83005C17.835 8.82005 16.79 8.52505 16.69 8.53005C16.595 8.53005 16.57 8.28505 17.85 8.64005ZM17.935 8.98505C17.935 9.02005 17.96 9.21505 17.92 9.20505C17.885 9.19505 17.205 8.98005 17.275 8.91505C17.345 8.85005 17.935 9.00005 17.935 8.98505ZM17.875 10.435L17.88 10.61C17.88 10.61 16.695 10.25 16.655 10.19C16.615 10.13 16.5 9.85005 17.875 10.435ZM17.925 10.86V11.025L16.315 10.46C16.315 10.46 16.185 10.04 17.92 10.86H17.925Z" fill="white" stroke="black" stroke-width="0.04" stroke-linecap="round" stroke-linejoin="round"/>
<path fill-rule="evenodd" clip-rule="evenodd" d="M16.0147 16.435L16.0047 16.61C16.0047 16.61 15.6947 16.52 15.5947 16.345C15.7747 16.295 16.0197 16.44 16.0147 16.435Z" fill="white" stroke="black" stroke-width="0.04" stroke-linejoin="round"/>
</svg>
