<svg width="36" height="24" viewBox="0 0 36 24" fill="none" xmlns="http://www.w3.org/2000/svg">
<g clip-path="url(#clip0_11930_68224)">
<path d="M0 0H36V24H0V0Z" fill="#0067C6"/>
<path d="M0 8H36V16H0V8Z" fill="white"/>
<path d="M14.3997 11.9749L14.7997 11.9999V11.9399L14.6497 11.9299L14.6597 11.7399L14.8247 11.6199L14.8297 11.5449L14.6547 11.6699C14.6497 11.6299 14.6247 11.5849 14.5847 11.5699C14.5447 11.5599 14.5047 11.5599 14.4697 11.5849C14.4297 11.6149 14.4197 11.6649 14.4197 11.7099L14.3997 11.9749ZM14.4597 11.9199L14.4747 11.7199C14.4797 11.6899 14.4847 11.6499 14.5147 11.6299C14.521 11.6257 14.5282 11.6229 14.5358 11.6219C14.5434 11.6209 14.551 11.6216 14.5583 11.624C14.5655 11.6264 14.5721 11.6305 14.5776 11.6358C14.583 11.6412 14.5871 11.6477 14.5897 11.6549C14.6097 11.7049 14.5997 11.7599 14.5947 11.8149L14.5897 11.9249L14.4597 11.9199ZM14.4497 11.3599L14.8397 11.4499L14.9297 11.0699C14.9113 11.0666 14.893 11.0633 14.8747 11.0599L14.7997 11.3799L14.6797 11.3549L14.7497 11.0649L14.6947 11.0499L14.6247 11.3399L14.5247 11.3149L14.5947 11.0049L14.5347 10.9949L14.4497 11.3599ZM14.5897 10.8349L14.9697 10.9699L14.9897 10.9149L14.8397 10.8649L14.8997 10.6899C14.9097 10.6399 14.9197 10.5899 14.8947 10.5399C14.883 10.5244 14.8679 10.5118 14.8506 10.5031C14.8332 10.4944 14.8141 10.4899 14.7947 10.4899C14.7447 10.4899 14.7147 10.5249 14.6947 10.5649C14.6647 10.6149 14.6447 10.6749 14.6297 10.7349L14.5897 10.8349ZM14.6647 10.7999L14.7247 10.6299C14.7397 10.5999 14.7547 10.5649 14.7897 10.5549C14.7966 10.5535 14.8038 10.5535 14.8107 10.5551C14.8176 10.5566 14.8241 10.5596 14.8298 10.5639C14.8355 10.5681 14.8402 10.5735 14.8436 10.5797C14.847 10.586 14.8491 10.5928 14.8497 10.5999C14.8597 10.6499 14.8347 10.6999 14.8197 10.7499L14.7847 10.8449L14.6647 10.7999ZM14.7997 10.3499L15.0147 10.4799C15.0547 10.4999 15.1047 10.5099 15.1497 10.4899C15.2039 10.4531 15.2457 10.4009 15.2697 10.3399C15.2897 10.2899 15.3097 10.2299 15.2797 10.1799C15.2497 10.1299 15.1947 10.1099 15.1447 10.0799L15.0097 9.9999L14.9797 10.0499L15.1797 10.1699C15.2147 10.1899 15.2397 10.2199 15.2347 10.2649C15.2247 10.3107 15.2041 10.3535 15.1747 10.3899C15.1547 10.4199 15.1147 10.4449 15.0747 10.4399C15.0347 10.4299 14.9997 10.3999 14.9647 10.3799L14.8297 10.3049L14.7997 10.3549V10.3499ZM15.0897 9.8849L15.4047 10.1249L15.5547 9.9349C15.5847 9.8899 15.6047 9.8349 15.5897 9.7849C15.5804 9.76566 15.5663 9.74912 15.5488 9.73687C15.5313 9.72461 15.5109 9.71705 15.4897 9.7149C15.4647 9.7149 15.4397 9.7299 15.4297 9.7349C15.4397 9.6899 15.4047 9.6499 15.3697 9.6399C15.3197 9.6249 15.2697 9.6549 15.2397 9.6899L15.1397 9.8149L15.0897 9.8849ZM15.1697 9.8699C15.2047 9.8199 15.2397 9.7699 15.2797 9.7299C15.2997 9.7099 15.3297 9.6799 15.3547 9.6999C15.3797 9.7099 15.3897 9.7449 15.3747 9.7649C15.3547 9.8099 15.3247 9.8399 15.2947 9.8799L15.2547 9.9349L15.1697 9.8699ZM15.2997 9.9699L15.4147 9.8199C15.4347 9.7999 15.4647 9.7699 15.4947 9.7799C15.5247 9.7849 15.5447 9.8149 15.5347 9.8449C15.5197 9.8949 15.4797 9.9349 15.4447 9.9799L15.3947 10.0449L15.2997 9.9699ZM15.4497 9.4599L15.7247 9.7499L15.9597 9.5249L15.9197 9.4849L15.7297 9.6649H15.7247L15.4897 9.4149L15.4497 9.4599ZM15.7997 9.1499L16.0447 9.4649L16.0947 9.4299L15.8447 9.1149L15.7997 9.1499ZM16.1597 8.9049C16.1206 8.92783 16.0866 8.95845 16.0597 8.9949C16.0369 9.02498 16.0242 9.06142 16.0233 9.0991C16.0225 9.13677 16.0334 9.17378 16.0547 9.2049C16.074 9.2367 16.1017 9.26263 16.1347 9.2799C16.1654 9.29607 16.2001 9.30302 16.2347 9.2999C16.2828 9.29354 16.329 9.27645 16.3697 9.2499C16.4113 9.22605 16.4458 9.19153 16.4697 9.1499C16.4897 9.1099 16.4947 9.0699 16.4847 9.0299L16.4347 9.0499C16.4447 9.1299 16.3947 9.1699 16.3347 9.1999C16.2447 9.2599 16.1597 9.2549 16.1047 9.1749C16.0497 9.0799 16.1047 9.0049 16.1847 8.9549C16.2397 8.9199 16.2947 8.8949 16.3447 8.9299L16.3897 8.8899C16.3606 8.869 16.3254 8.85844 16.2897 8.8599C16.2447 8.8599 16.2047 8.8799 16.1597 8.9099V8.9049ZM16.6347 8.6699L16.5897 9.1199L16.6547 9.0949L16.6647 8.9549L16.8647 8.8749L16.9747 8.9649L17.0347 8.9399L16.6947 8.6449L16.6347 8.6699ZM16.6847 8.7199L16.8197 8.8299L16.6697 8.8899L16.6847 8.7199ZM17.5097 8.4199L17.5347 8.8199L17.7497 8.8099C17.8097 8.7999 17.8697 8.7899 17.9047 8.7399C17.9547 8.6899 17.9647 8.6049 17.9397 8.5349C17.9302 8.50451 17.9126 8.47728 17.8888 8.45614C17.865 8.43499 17.8359 8.42074 17.8047 8.4149C17.7447 8.4049 17.6847 8.4149 17.6247 8.4149L17.5097 8.4249V8.4199ZM17.5697 8.4749L17.7447 8.4699C17.7766 8.46844 17.8081 8.4772 17.8347 8.4949C17.8747 8.5249 17.8997 8.5699 17.8947 8.6199C17.8925 8.6478 17.8817 8.67434 17.8638 8.69583C17.8459 8.71733 17.8217 8.73273 17.7947 8.7399C17.7647 8.7499 17.7297 8.7499 17.6997 8.7549L17.5897 8.7599L17.5697 8.4749ZM18.0697 8.3999L18.0447 8.7999L18.4347 8.8199V8.7649L18.1047 8.7449L18.1097 8.6249L18.4097 8.6399V8.5849L18.1147 8.5699L18.1197 8.4599L18.4397 8.4799V8.4199L18.0697 8.3999ZM19.1097 8.5649L18.9647 8.9399L19.0147 8.9599L19.1347 8.6599V8.6499L19.1447 8.6649L19.2847 9.0649L19.3497 9.0899L19.4947 8.7149L19.4447 8.6949L19.3297 8.9949L19.3247 9.0049L19.3147 8.9899L19.1797 8.5899L19.1097 8.5649ZM19.6497 8.7999L19.4647 9.1499L19.4147 9.1249L19.5947 8.7699L19.6497 8.7999ZM19.9497 8.9749C19.9133 8.95056 19.8725 8.93357 19.8297 8.9249C19.7927 8.91441 19.7533 8.91603 19.7173 8.92953C19.6813 8.94303 19.6506 8.96769 19.6297 8.9999C19.6103 9.03155 19.6 9.06783 19.5997 9.1049C19.5997 9.1399 19.6047 9.1749 19.6297 9.2099C19.6497 9.2449 19.6797 9.2749 19.7297 9.3099C19.7699 9.33728 19.8163 9.35444 19.8647 9.3599C19.9042 9.36101 19.943 9.34867 19.9747 9.3249L19.9347 9.2799C19.8647 9.3299 19.8097 9.2949 19.7547 9.2599C19.6647 9.1999 19.6297 9.1199 19.6847 9.0349C19.7447 8.9449 19.8397 8.9699 19.9197 9.0199C19.9697 9.0549 20.0197 9.0949 20.0097 9.1549L20.0597 9.1749C20.0656 9.14082 20.0603 9.10574 20.0447 9.0749C20.0247 9.0349 19.9947 9.0049 19.9497 8.9749ZM20.3297 9.2599L19.9147 9.4299L19.9647 9.4749L20.0947 9.4249L20.2597 9.5649L20.2247 9.6999L20.2747 9.7449L20.3797 9.3049L20.3297 9.2599ZM20.3147 9.3299L20.2747 9.4999L20.1497 9.3999L20.3147 9.3299ZM20.6347 9.5399L20.3247 9.7899L20.3597 9.8399L20.4847 9.7399L20.6047 9.8899L20.5697 10.0899L20.6147 10.1449L20.6547 9.9349C20.6897 9.9599 20.7397 9.9749 20.7797 9.9549C20.8147 9.9349 20.8497 9.9049 20.8497 9.8649C20.8497 9.8099 20.8147 9.7649 20.7847 9.7249L20.6347 9.5399ZM20.6247 9.6199L20.7547 9.7799C20.7747 9.8099 20.7997 9.8499 20.7747 9.8799C20.7597 9.9099 20.7197 9.9099 20.6947 9.8899C20.6447 9.8549 20.6147 9.8049 20.5747 9.7599L20.5247 9.7049L20.6247 9.6199ZM21.0997 10.1749L20.6497 10.1949L20.6847 10.2549L20.8247 10.2499L20.9347 10.4399L20.8547 10.5549L20.8897 10.6149L21.1347 10.2349L21.0997 10.1749ZM21.0647 10.2349L20.9647 10.3849L20.8897 10.2449L21.0647 10.2349ZM21.3597 10.7049C21.3347 10.6399 21.2947 10.5699 21.2247 10.5349C21.1869 10.5174 21.1444 10.5129 21.1037 10.5219C21.0631 10.5309 21.0265 10.5531 20.9997 10.5849C20.9497 10.6349 20.9497 10.7099 20.9647 10.7799C20.9797 10.8549 21.0147 10.9299 21.0647 10.9849L21.0347 10.9949L21.0547 11.0499L21.2447 10.9849L21.1697 10.7799L21.1297 10.7949L21.1797 10.9449L21.1197 10.9699C21.0654 10.9193 21.0286 10.8528 21.0147 10.7799C20.9997 10.7249 20.9997 10.6599 21.0397 10.6199C21.0897 10.5699 21.1697 10.5549 21.2247 10.5949C21.2797 10.6349 21.3097 10.6999 21.3247 10.7649C21.3397 10.8099 21.3347 10.8599 21.3047 10.8949C21.2947 10.8949 21.3047 10.9099 21.3097 10.9149L21.3247 10.9399C21.3416 10.927 21.3554 10.9103 21.3649 10.8913C21.3744 10.8722 21.3795 10.8512 21.3797 10.8299C21.3806 10.7874 21.3739 10.745 21.3597 10.7049ZM21.4747 11.0199L21.2497 11.0599C21.2151 11.0649 21.1824 11.0787 21.1547 11.0999C21.133 11.1195 21.1188 11.146 21.1147 11.1749V11.2949C21.1297 11.3449 21.1447 11.3799 21.1647 11.4099C21.1797 11.4399 21.1997 11.4599 21.2247 11.4599C21.2575 11.4684 21.2919 11.4684 21.3247 11.4599L21.5497 11.4199L21.5397 11.3649L21.3197 11.4049C21.2197 11.4249 21.1897 11.3749 21.1697 11.2849C21.1547 11.1949 21.1697 11.1349 21.2647 11.1199L21.4847 11.0749L21.4747 11.0199ZM21.5947 11.6999L21.1797 11.5199L21.1847 11.5899L21.3147 11.6399L21.3297 11.8599L21.2097 11.9349L21.2147 11.9999L21.5997 11.7649L21.5947 11.6999ZM21.5347 11.7349L21.3847 11.8299L21.3747 11.6699L21.5347 11.7349ZM14.7097 12.7349L14.6497 12.7499L14.7147 12.9949L14.7747 12.9799L14.7097 12.7349ZM21.2897 12.7349L21.3497 12.7499L21.2847 12.9949L21.2247 12.9799L21.2897 12.7349ZM15.3297 13.7599L14.8797 13.8099L14.9197 13.8649L15.0597 13.8499L15.1797 14.0299L15.1097 14.1549L15.1497 14.2049L15.3647 13.8149L15.3297 13.7599ZM15.2947 13.8249L15.2097 13.9749L15.1197 13.8449L15.2947 13.8249ZM15.4997 14.0049L15.2147 14.2699L15.2547 14.3099L15.4947 14.0849L15.3647 14.4349L15.4147 14.4799L15.7547 14.3799L15.5197 14.5949L15.5597 14.6349L15.8447 14.3699L15.7847 14.3099L15.4347 14.4099L15.5647 14.0749L15.4997 14.0049ZM15.9147 14.4249L15.6747 14.7499L15.9847 14.9799L16.0197 14.9349L15.7547 14.7349L15.8297 14.6349L16.0647 14.8199L16.0997 14.7699L15.8647 14.5949L15.9297 14.5099L16.1797 14.6999L16.2147 14.6499L15.9147 14.4249ZM16.3047 14.7149L16.1197 15.0649L16.1697 15.0949L16.2447 14.9549L16.4147 15.0449L16.4547 15.2449L16.5197 15.2799L16.4747 15.0699C16.5197 15.0849 16.5747 15.0749 16.5997 15.0399C16.6247 15.0099 16.6447 14.9749 16.6297 14.9349C16.6197 14.8849 16.5647 14.8549 16.5247 14.8299L16.3047 14.7149ZM16.3297 14.7899L16.5097 14.8899C16.5397 14.9099 16.5747 14.9349 16.5697 14.9699C16.5697 15.0049 16.5347 15.0199 16.5047 15.0149C16.4447 15.0049 16.3947 14.9699 16.3447 14.9449L16.2697 14.9049L16.3297 14.7899ZM16.7597 14.9499L16.6097 15.3199L16.6597 15.3449L16.8097 14.9749L16.7597 14.9499ZM17.1197 15.0749C17.0781 15.0597 17.0339 15.0529 16.9897 15.0549C16.9511 15.0555 16.9138 15.0685 16.8832 15.0919C16.8526 15.1153 16.8304 15.1479 16.8197 15.1849C16.8105 15.2193 16.8105 15.2555 16.8197 15.2899C16.8197 15.3299 16.8397 15.3599 16.8697 15.3899C16.9041 15.4205 16.9452 15.4427 16.9897 15.4549C17.0362 15.4714 17.0863 15.4749 17.1347 15.4649C17.174 15.4573 17.2094 15.4361 17.2347 15.4049L17.1847 15.3749C17.1347 15.4399 17.0697 15.4249 17.0047 15.3999C16.9047 15.3649 16.8497 15.2999 16.8797 15.1999C16.9147 15.0999 17.0147 15.0999 17.0997 15.1249C17.1597 15.1449 17.2147 15.1749 17.2197 15.2299L17.2797 15.2399C17.2769 15.2023 17.261 15.1669 17.2347 15.1399C17.2023 15.109 17.1628 15.0867 17.1197 15.0749ZM17.5197 15.1649L17.2597 15.5299L17.3247 15.5399L17.4047 15.4249L17.6247 15.4599L17.6697 15.5899L17.7347 15.5999L17.5847 15.1749L17.5197 15.1649ZM17.5447 15.2299L17.6047 15.3999L17.4447 15.3749L17.5447 15.2299ZM18.4597 15.1699C18.4097 15.1749 18.3747 15.1899 18.3397 15.2149C18.3066 15.2342 18.2806 15.2634 18.2653 15.2985C18.25 15.3336 18.2463 15.3726 18.2547 15.4099C18.2597 15.4449 18.2747 15.4749 18.3047 15.5099C18.3247 15.5349 18.3547 15.5499 18.3947 15.5599C18.4297 15.5699 18.4797 15.5699 18.5347 15.5599C18.5847 15.5499 18.6347 15.5299 18.6647 15.4999C18.694 15.4739 18.7134 15.4386 18.7197 15.3999H18.6597C18.6447 15.4799 18.5847 15.4999 18.5197 15.5099C18.4147 15.5299 18.3347 15.4949 18.3147 15.3949C18.2947 15.2899 18.3797 15.2399 18.4647 15.2199C18.5297 15.2099 18.5897 15.2049 18.6247 15.2549L18.6747 15.2349C18.6559 15.205 18.6278 15.1821 18.5947 15.1699C18.5504 15.1585 18.5039 15.1585 18.4597 15.1699ZM18.7247 15.1199L18.8397 15.5049L19.2147 15.3949L19.1947 15.3399L18.8797 15.4349L18.8447 15.3149L19.1297 15.2299L19.1147 15.1799L18.8297 15.2599L18.7997 15.1599L19.0997 15.0699L19.0847 15.0149L18.7247 15.1199ZM19.1597 14.9849L19.3247 15.3499L19.3747 15.3249L19.2347 15.0249L19.6247 15.1999H19.6497L19.6997 15.1749L19.5297 14.8099L19.4797 14.8349L19.6197 15.1349L19.2197 14.9549L19.1597 14.9849ZM19.5997 14.7799L19.6297 14.8299L19.7697 14.7299H19.7797L19.9647 15.0149L20.0147 14.9799L19.8297 14.6999V14.6949L19.9747 14.5949L19.9447 14.5499L19.5997 14.7799ZM19.9997 14.4999L20.2697 14.7999L20.3147 14.7549L20.2097 14.6399L20.3497 14.5099L20.5497 14.5399L20.6097 14.4899L20.3947 14.4599C20.4197 14.4249 20.4297 14.3699 20.4047 14.3299C20.3847 14.2949 20.3547 14.2649 20.3097 14.2699C20.2597 14.2699 20.2097 14.3099 20.1747 14.3399L19.9997 14.4999ZM20.0797 14.5049L20.2297 14.3649C20.2597 14.3449 20.2997 14.3199 20.3297 14.3399C20.3647 14.3549 20.3647 14.3949 20.3447 14.4199C20.3147 14.4699 20.2697 14.5049 20.2247 14.5499L20.1697 14.5999L20.0797 14.4999V14.5049ZM20.4647 14.0349L20.6447 14.4499L20.6847 14.3999L20.6347 14.2699L20.7697 14.0999L20.9047 14.1299L20.9497 14.0799L20.5097 13.9799L20.4647 14.0349ZM20.5347 14.0499L20.7097 14.0849L20.6097 14.2099L20.5347 14.0499ZM20.6397 13.8099L20.9747 14.0249L21.1497 13.7549L21.0997 13.7249L20.9647 13.9399L20.9597 13.9499H20.9547L20.6697 13.7599L20.6397 13.8099Z" fill="#C8A400"/>
<mask id="mask0_11930_68224" style="mask-type:luminance" maskUnits="userSpaceOnUse" x="15" y="9" width="6" height="5">
<path d="M17.9953 9.05591L15.4473 13.4679H20.5433L17.9953 9.05591Z" fill="white"/>
</mask>
<g mask="url(#mask0_11930_68224)">
<path d="M18.001 9.05591L16.741 11.2359L16.125 12.3039H19.877L19.289 11.2879L18.001 9.05591Z" fill="white"/>
<path opacity="0.6" d="M18.0003 9.05591L17.9043 9.21591L18.0003 11.4159L18.0963 9.21591L18.0003 9.05591Z" fill="#17C0EB" stroke="#17C0EB" stroke-width="0.004"/>
<path d="M18.0011 11.0999H17.9971L18.0011 11.2199L18.0051 11.0999H18.0011Z" fill="white"/>
<path opacity="0.6" d="M20.2476 10.6966L20.0633 10.6466L18.0089 11.4116L20.1284 10.8435L20.2476 10.6966Z" fill="#17C0EB" stroke="#17C0EB" stroke-width="0.004"/>
<path d="M18.3069 11.3212L18.3057 11.3174L18.1929 11.3577L18.3082 11.325L18.3069 11.3212Z" fill="white"/>
<path opacity="0.6" d="M19.3916 13.3344L19.3724 13.1502L17.9995 11.4214L19.2221 13.2593L19.3916 13.3344Z" fill="#17C0EB" stroke="#17C0EB" stroke-width="0.004"/>
<path d="M18.1883 11.6789L18.1914 11.6766L18.1175 11.5817L18.1851 11.6812L18.1883 11.6789Z" fill="white"/>
<path opacity="0.6" d="M16.6094 13.3344L16.779 13.2592L18.0016 11.4213L16.6286 13.1502L16.6094 13.3344Z" fill="#17C0EB" stroke="#17C0EB" stroke-width="0.004"/>
<path d="M17.8133 11.6789L17.8164 11.6812L17.884 11.5816L17.8101 11.6766L17.8133 11.6789Z" fill="white"/>
<path opacity="0.6" d="M15.7591 10.6966L15.8783 10.8435L17.9978 11.4116L15.9434 10.6466L15.7591 10.6966Z" fill="#17C0EB" stroke="#17C0EB" stroke-width="0.004"/>
<path d="M17.7005 11.3218L17.6992 11.3256L17.8145 11.3583L17.7017 11.318L17.7005 11.3218Z" fill="white"/>
<path opacity="0.6" d="M18.3372 9.07731L18.2275 9.22449L17.991 11.418L18.3999 9.24751L18.3372 9.07731Z" fill="#17C0EB" stroke="#17C0EB" stroke-width="0.004"/>
<path d="M18.0447 11.1032L18.0408 11.1027L18.0273 11.2219L18.0487 11.1037L18.0447 11.1032Z" fill="white"/>
<path opacity="0.6" d="M20.3254 11.0143L20.1504 10.9423L18.003 11.415L20.1855 11.1405L20.3254 11.0143Z" fill="#17C0EB" stroke="#17C0EB" stroke-width="0.004"/>
<path d="M18.3132 11.3649L18.3125 11.3607L18.1951 11.3853L18.314 11.369L18.3132 11.3649Z" fill="white"/>
<path opacity="0.6" d="M19.1116 13.5088L19.1187 13.3238L17.9991 11.422L18.9538 13.4109L19.1116 13.5088Z" fill="#17C0EB" stroke="#17C0EB" stroke-width="0.004"/>
<path d="M18.1496 11.7027L18.1531 11.7009L18.0931 11.5967L18.1462 11.7046L18.1496 11.7027Z" fill="white"/>
<path opacity="0.6" d="M16.3592 13.1227L16.5375 13.072L18.0032 11.421L16.4039 12.9427L16.3592 13.1227Z" fill="#17C0EB" stroke="#17C0EB" stroke-width="0.004"/>
<path d="M17.7811 11.6505L17.7839 11.6532L17.8652 11.5634L17.7783 11.6478L17.7811 11.6505Z" fill="white"/>
<path opacity="0.6" d="M15.8831 10.3909L15.9802 10.5534L17.9961 11.4112L16.0725 10.3666L15.8831 10.3909Z" fill="#17C0EB" stroke="#17C0EB" stroke-width="0.004"/>
<path d="M17.7156 11.2802L17.7139 11.2838L17.8223 11.3318L17.7174 11.2766L17.7156 11.2802Z" fill="white"/>
<path opacity="0.6" d="M18.6628 9.14472L18.5334 9.27528L17.9962 11.419L18.7019 9.32253L18.6628 9.14472Z" fill="#17C0EB" stroke="#17C0EB" stroke-width="0.004"/>
<path d="M18.0915 11.1124L18.0876 11.1113L18.0579 11.2274L18.0953 11.1135L18.0915 11.1124Z" fill="white"/>
<path opacity="0.6" d="M20.3652 11.3297L20.204 11.2484L18.0018 11.428L20.2059 11.4243L20.3652 11.3297Z" fill="#17C0EB" stroke="#17C0EB" stroke-width="0.004"/>
<path d="M18.3206 11.4087L18.3206 11.405L18.2005 11.4136L18.3206 11.4123L18.3206 11.4087Z" fill="white"/>
<path opacity="0.6" d="M18.8096 13.6425L18.8435 13.4601L17.9997 11.4229L18.6658 13.5238L18.8096 13.6425Z" fill="#17C0EB" stroke="#17C0EB" stroke-width="0.004"/>
<path d="M18.1096 11.7209L18.1133 11.7196L18.0684 11.6081L18.1059 11.7223L18.1096 11.7209Z" fill="white"/>
<path opacity="0.6" d="M16.1361 12.8775L16.3197 12.8524L17.9996 11.4206L16.2052 12.705L16.1361 12.8775Z" fill="#17C0EB" stroke="#17C0EB" stroke-width="0.004"/>
<path d="M17.7483 11.6172L17.7507 11.6202L17.8431 11.5431L17.746 11.6141L17.7483 11.6172Z" fill="white"/>
<path opacity="0.6" d="M16.0464 10.1041L16.1203 10.2782L17.994 11.412L16.2366 10.1073L16.0464 10.1041Z" fill="#17C0EB" stroke="#17C0EB" stroke-width="0.004"/>
<path d="M17.7368 11.2413L17.7344 11.2449L17.8359 11.3079L17.7392 11.2377L17.7368 11.2413Z" fill="white"/>
<path opacity="0.6" d="M18.9688 9.25729L18.8213 9.3679L17.9967 11.4194L18.9845 9.43985L18.9688 9.25729Z" fill="#17C0EB" stroke="#17C0EB" stroke-width="0.004"/>
<path d="M18.1321 11.1277L18.1284 11.1261L18.0831 11.2367L18.1357 11.1293L18.1321 11.1277Z" fill="white"/>
<path opacity="0.6" d="M20.3536 11.6557L20.2063 11.5337L18.0097 11.4319L20.1831 11.7474L20.3536 11.6557Z" fill="#17C0EB" stroke="#17C0EB" stroke-width="0.004"/>
<path d="M18.3228 11.453L18.3232 11.4485L18.2035 11.4415L18.3223 11.4575L18.3228 11.453Z" fill="white"/>
<path opacity="0.6" d="M18.4928 13.7327L18.5548 13.5564L18.0045 11.4238L18.3647 13.5959L18.4928 13.7327Z" fill="#17C0EB" stroke="#17C0EB" stroke-width="0.004"/>
<path d="M18.0693 11.7331L18.0732 11.7323L18.0444 11.6157L18.0653 11.7339L18.0693 11.7331Z" fill="white"/>
<path opacity="0.6" d="M15.9544 12.6038L16.1397 12.6049L18.001 11.4202L16.0465 12.4423L15.9544 12.6038Z" fill="#17C0EB" stroke="#17C0EB" stroke-width="0.004"/>
<path d="M17.7254 11.5802L17.7273 11.5836L17.8294 11.5201L17.7234 11.5768L17.7254 11.5802Z" fill="white"/>
<path opacity="0.6" d="M16.2499 9.84232L16.3 10.0243L17.9957 11.4131L16.4365 9.87329L16.2499 9.84232Z" fill="#17C0EB" stroke="#17C0EB" stroke-width="0.004"/>
<path d="M17.7646 11.2061L17.7617 11.2092L17.8534 11.286L17.7674 11.2029L17.7646 11.2061Z" fill="white"/>
<path opacity="0.6" d="M19.2539 9.41263L19.091 9.50028L17.9959 11.419L19.2463 9.59703L19.2539 9.41263Z" fill="#17C0EB" stroke="#17C0EB" stroke-width="0.004"/>
<path d="M18.1675 11.1485L18.1643 11.1465L18.1036 11.2505L18.1708 11.1505L18.1675 11.1485Z" fill="white"/>
<path opacity="0.6" d="M20.2945 11.9873L20.164 11.8516L18.0073 11.4254L20.1149 12.0469L20.2945 11.9873Z" fill="#17C0EB" stroke="#17C0EB" stroke-width="0.004"/>
<path d="M18.3122 11.4971L18.3132 11.493L18.1959 11.4685L18.3112 11.5012L18.3122 11.4971Z" fill="white"/>
<path opacity="0.6" d="M18.1553 13.7775L18.2509 13.6106L18.01 11.4246L18.0401 13.6254L18.1553 13.7775Z" fill="#17C0EB" stroke="#17C0EB" stroke-width="0.004"/>
<path d="M18.0219 11.739L18.0264 11.7386L18.0145 11.6193L18.0175 11.7393L18.0219 11.739Z" fill="white"/>
<path opacity="0.6" d="M15.806 12.3071L15.9895 12.3344L17.9959 11.4199L15.9194 12.1595L15.806 12.3071Z" fill="#17C0EB" stroke="#17C0EB" stroke-width="0.004"/>
<path d="M17.7017 11.5398L17.7031 11.5435L17.813 11.4947L17.7002 11.5362L17.7017 11.5398Z" fill="white"/>
<path opacity="0.6" d="M16.4817 9.61142L16.5077 9.79778L17.9929 11.4145L16.6606 9.66955L16.4817 9.61142Z" fill="#17C0EB" stroke="#17C0EB" stroke-width="0.004"/>
<path d="M17.7922 11.1748L17.7891 11.1775L17.8691 11.2665L17.7954 11.1721L17.7922 11.1748Z" fill="white"/>
<path opacity="0.6" d="M19.5202 9.6079L19.345 9.67009L18.0005 11.4181L19.4893 9.79116L19.5202 9.6079Z" fill="#17C0EB" stroke="#17C0EB" stroke-width="0.004"/>
<path d="M18.2052 11.1749L18.2021 11.1724L18.1286 11.2662L18.2082 11.1775L18.2052 11.1749Z" fill="white"/>
<path opacity="0.6" d="M20.1916 12.3041L20.08 12.1539L18.0048 11.4229L20.0068 12.3348L20.1916 12.3041Z" fill="#17C0EB" stroke="#17C0EB" stroke-width="0.004"/>
<path d="M18.2971 11.5397L18.2986 11.5359L18.1859 11.4948L18.2955 11.5434L18.2971 11.5397Z" fill="white"/>
<path opacity="0.6" d="M17.8324 13.7788L17.9364 13.6252L18.0036 11.4234L17.7515 13.613L17.8324 13.7788Z" fill="#17C0EB" stroke="#17C0EB" stroke-width="0.004"/>
<path d="M17.9779 11.7392L17.9817 11.7395L17.9865 11.6195L17.974 11.739L17.9779 11.7392Z" fill="white"/>
<path opacity="0.6" d="M15.7086 11.9928L15.8867 12.0461L17.9992 11.4199L15.841 11.8618L15.7086 11.9928Z" fill="#17C0EB" stroke="#17C0EB" stroke-width="0.004"/>
<path d="M17.6922 11.4974L17.6931 11.5012L17.8086 11.4683L17.6912 11.4935L17.6922 11.4974Z" fill="white"/>
<path opacity="0.6" d="M16.7506 9.41608L16.7526 9.60335L17.9987 11.4158L16.9179 9.49995L16.7506 9.41608Z" fill="#17C0EB" stroke="#17C0EB" stroke-width="0.004"/>
<path d="M17.8325 11.1486L17.8291 11.1508L17.896 11.2503L17.836 11.1464L17.8325 11.1486Z" fill="white"/>
<path opacity="0.6" d="M19.75 9.83912L19.5663 9.87392L17.9977 11.4167L19.6962 10.0182L19.75 9.83912Z" fill="#17C0EB" stroke="#17C0EB" stroke-width="0.004"/>
<path d="M18.2322 11.206L18.2295 11.203L18.1436 11.2857L18.2348 11.2089L18.2322 11.206Z" fill="white"/>
<path opacity="0.6" d="M20.0472 12.6028L19.9561 12.4403L18.0024 11.4213L19.8611 12.605L20.0472 12.6028Z" fill="#17C0EB" stroke="#17C0EB" stroke-width="0.004"/>
<path d="M18.2773 11.5801L18.2793 11.5767L18.1734 11.52L18.2753 11.5835L18.2773 11.5801Z" fill="white"/>
<path opacity="0.6" d="M17.5074 13.7322L17.6352 13.5958L17.9965 11.4241L17.4459 13.5555L17.5074 13.7322Z" fill="#17C0EB" stroke="#17C0EB" stroke-width="0.004"/>
<path d="M17.9316 11.733L17.9355 11.7339L17.9565 11.6157L17.9277 11.7322L17.9316 11.733Z" fill="white"/>
<path opacity="0.6" d="M15.6494 11.6655L15.8188 11.7461L17.9959 11.422L15.7982 11.5519L15.6494 11.6655Z" fill="#17C0EB" stroke="#17C0EB" stroke-width="0.004"/>
<path d="M17.6812 11.4533L17.6816 11.4574L17.8005 11.4409L17.6808 11.4493L17.6812 11.4533Z" fill="white"/>
<path opacity="0.6" d="M17.0332 9.25996L17.0115 9.44481L17.9947 11.4168L17.1852 9.36757L17.0332 9.25996Z" fill="#17C0EB" stroke="#17C0EB" stroke-width="0.004"/>
<path d="M17.8649 11.1275L17.8613 11.1292L17.9138 11.2372L17.8686 11.1259L17.8649 11.1275Z" fill="white"/>
<path opacity="0.6" d="M19.9545 10.1013L19.7661 10.1075L18.0026 11.4145L19.8781 10.2731L19.9545 10.1013Z" fill="#17C0EB" stroke="#17C0EB" stroke-width="0.004"/>
<path d="M18.2625 11.241L18.2603 11.2377L18.1635 11.3076L18.2647 11.2443L18.2625 11.241Z" fill="white"/>
<path opacity="0.6" d="M19.8618 12.8777L19.7926 12.7056L17.9981 11.42L19.6784 12.8521L19.8618 12.8777Z" fill="#17C0EB" stroke="#17C0EB" stroke-width="0.004"/>
<path d="M18.2496 11.6171L18.252 11.614L18.1548 11.543L18.2472 11.6201L18.2496 11.6171Z" fill="white"/>
<path opacity="0.6" d="M17.1896 13.6408L17.336 13.5239L17.9935 11.4243L17.1523 13.4571L17.1896 13.6408Z" fill="#17C0EB" stroke="#17C0EB" stroke-width="0.004"/>
<path d="M17.8868 11.7207L17.8906 11.722L17.9277 11.6079L17.883 11.7193L17.8868 11.7207Z" fill="white"/>
<path opacity="0.6" d="M15.6332 11.3291L15.7917 11.4232L17.9952 11.4284L15.795 11.2483L15.6332 11.3291Z" fill="#17C0EB" stroke="#17C0EB" stroke-width="0.004"/>
<path d="M17.6776 11.4085L17.6775 11.4121L17.7976 11.4135L17.6776 11.4049L17.6776 11.4085Z" fill="white"/>
<path opacity="0.6" d="M17.3399 9.1461L17.2955 9.32524L17.9971 11.4173L17.4734 9.2749L17.3399 9.1461Z" fill="#17C0EB" stroke="#17C0EB" stroke-width="0.004"/>
<path d="M17.907 11.1121L17.9033 11.1132L17.9404 11.2276L17.9107 11.1111L17.907 11.1121Z" fill="white"/>
<path opacity="0.6" d="M20.1247 10.3895L19.936 10.3667L18.01 11.4123L20.0266 10.551L20.1247 10.3895Z" fill="#17C0EB" stroke="#17C0EB" stroke-width="0.004"/>
<path d="M18.2903 11.2797L18.2886 11.2761L18.1828 11.3318L18.2921 11.2833L18.2903 11.2797Z" fill="white"/>
<path opacity="0.6" d="M19.6456 13.124L19.5993 12.9452L17.9988 11.4195L19.4686 13.0717L19.6456 13.124Z" fill="#17C0EB" stroke="#17C0EB" stroke-width="0.004"/>
<path d="M18.2219 11.6504L18.2246 11.6477L18.1376 11.5632L18.2191 11.653L18.2219 11.6504Z" fill="white"/>
<path opacity="0.6" d="M16.8898 13.5064L17.0514 13.4112L17.9937 11.4245L16.8778 13.3192L16.8898 13.5064Z" fill="#17C0EB" stroke="#17C0EB" stroke-width="0.004"/>
<path d="M17.8479 11.7026L17.8516 11.7045L17.9041 11.5967L17.8443 11.7006L17.8479 11.7026Z" fill="white"/>
<path opacity="0.6" d="M15.6682 11.0085L15.81 11.1299L17.994 11.4205L15.8417 10.9429L15.6682 11.0085Z" fill="#17C0EB" stroke="#17C0EB" stroke-width="0.004"/>
<path d="M17.6823 11.3645L17.6816 11.3684L17.8005 11.3855L17.683 11.3606L17.6823 11.3645Z" fill="white"/>
<path opacity="0.6" d="M17.6605 9.07725L17.5957 9.24744L18.0031 11.418L17.7717 9.22445L17.6605 9.07725Z" fill="#17C0EB" stroke="#17C0EB" stroke-width="0.004"/>
<path d="M17.9521 11.103L17.9485 11.1035L17.9695 11.222L17.9558 11.1026L17.9521 11.103Z" fill="white"/>
<path d="M18.0006 10.6318C17.5745 10.6314 17.1626 10.7848 16.8406 11.0638L16.2566 12.0798C16.2357 12.1893 16.225 12.3004 16.2246 12.4118H16.4246C16.445 12.0081 16.6197 11.6276 16.9126 11.3491C17.2056 11.0705 17.5944 10.9152 17.9986 10.9152C18.4028 10.9152 18.7916 11.0705 19.0846 11.3491C19.3775 11.6276 19.5522 12.0081 19.5726 12.4118H19.7726C19.7736 12.3005 19.7642 12.1894 19.7446 12.0798L19.1606 11.0638C18.8384 10.7851 18.4266 10.6317 18.0006 10.6318Z" fill="#FF0000"/>
<path d="M18.0008 10.668C17.5488 10.667 17.1141 10.842 16.7888 11.156L16.3088 11.992C16.2748 12.128 16.2574 12.2677 16.2568 12.408H16.4288C16.4572 12.0104 16.6352 11.6384 16.9268 11.3668C17.2185 11.0952 17.6023 10.9442 18.0008 10.9442C18.3994 10.9442 18.7831 11.0952 19.0748 11.3668C19.3665 11.6384 19.5445 12.0104 19.5728 12.408H19.7448C19.7445 12.2664 19.727 12.1254 19.6928 11.988L19.2128 11.156C18.8876 10.842 18.4529 10.667 18.0008 10.668Z" fill="#FF6600"/>
<path d="M18.0001 10.7C17.7585 10.6993 17.5194 10.75 17.2988 10.8486C17.0781 10.9472 16.8809 11.0915 16.7201 11.272L16.3721 11.872C16.3167 12.0465 16.2897 12.2288 16.2921 12.412H16.4241C16.4445 12.0082 16.6192 11.6278 16.9122 11.3492C17.2051 11.0707 17.5939 10.9153 17.9981 10.9153C18.4024 10.9153 18.7912 11.0707 19.0841 11.3492C19.3771 11.6278 19.5518 12.0082 19.5721 12.412H19.7121C19.7121 12.224 19.6801 12.044 19.6281 11.876L19.2761 11.272C19.116 11.0918 18.9195 10.9476 18.6995 10.849C18.4796 10.7504 18.2412 10.6996 18.0001 10.7Z" fill="#FFFF00"/>
<path d="M18.0003 10.732C17.7244 10.7319 17.4527 10.7997 17.2093 10.9294C16.9658 11.0592 16.758 11.2469 16.6043 11.476L16.4923 11.672C16.379 11.9022 16.3201 12.1554 16.3203 12.412H16.4283C16.4567 12.0145 16.6346 11.6425 16.9263 11.3708C17.218 11.0992 17.6018 10.9482 18.0003 10.9482C18.3989 10.9482 18.7826 11.0992 19.0743 11.3708C19.366 11.6425 19.5439 12.0145 19.5723 12.412H19.6803C19.6805 12.1554 19.6217 11.9022 19.5083 11.672L19.3963 11.472C19.2426 11.2429 19.0348 11.0552 18.7914 10.9254C18.5479 10.7957 18.2762 10.7279 18.0003 10.728V10.732Z" fill="#00FF00"/>
<path d="M18.0005 10.76C17.7838 10.76 17.5692 10.8028 17.369 10.8858C17.1688 10.9689 16.9869 11.0907 16.8338 11.2441C16.6807 11.3976 16.5594 11.5797 16.4768 11.7801C16.3943 11.9805 16.352 12.1953 16.3525 12.412H16.4285C16.4569 12.0145 16.6349 11.6424 16.9266 11.3708C17.2182 11.0992 17.602 10.9482 18.0005 10.9482C18.3991 10.9482 18.7829 11.0992 19.0745 11.3708C19.3662 11.6424 19.5442 12.0145 19.5725 12.412H19.6485C19.6491 12.1953 19.6068 11.9805 19.5242 11.7801C19.4417 11.5797 19.3204 11.3976 19.1673 11.2441C19.0142 11.0907 18.8323 10.9689 18.6321 10.8858C18.4319 10.8028 18.2173 10.76 18.0005 10.76Z" fill="#00CCFF"/>
<path d="M18.0008 10.792C17.5722 10.792 17.1611 10.9622 16.8581 11.2653C16.555 11.5684 16.3848 11.9794 16.3848 12.408H16.4408C16.4408 11.9943 16.6051 11.5975 16.8977 11.3049C17.1902 11.0123 17.587 10.848 18.0008 10.848C18.4145 10.848 18.8113 11.0123 19.1039 11.3049C19.3964 11.5975 19.5608 11.9943 19.5608 12.408H19.6168C19.6147 11.9808 19.4435 11.5718 19.1406 11.2705C18.8378 10.9691 18.428 10.8 18.0008 10.8V10.792Z" fill="#0000FF"/>
<path d="M18.0012 10.828C17.7908 10.8279 17.5826 10.8698 17.3885 10.9512C17.1945 11.0325 17.0186 11.1517 16.8712 11.3018C16.7237 11.4518 16.6076 11.6298 16.5297 11.8252C16.4517 12.0206 16.4135 12.2296 16.4172 12.44H16.4492V12.408C16.4535 11.9964 16.6211 11.6033 16.9151 11.3152C17.2092 11.0272 17.6056 10.8677 18.0172 10.872C18.4289 10.8762 18.8219 11.0438 19.11 11.3379C19.398 11.6319 19.5575 12.0284 19.5532 12.44H19.5852V12.408C19.5852 12.2 19.5443 11.994 19.4647 11.8018C19.3851 11.6096 19.2684 11.435 19.1213 11.2879C18.9742 11.1408 18.7996 11.0242 18.6074 10.9445C18.4152 10.8649 18.2093 10.824 18.0012 10.824V10.828Z" fill="#800080"/>
<path d="M18.0169 11.524C17.9889 11.524 17.9689 11.504 17.9449 11.5C17.9332 11.5103 17.9245 11.5235 17.9196 11.5382C17.9146 11.553 17.9137 11.5688 17.9169 11.584C17.9289 11.588 17.9289 11.6 17.9529 11.62C17.9769 11.64 17.9729 11.648 17.9689 11.7C17.9689 11.716 17.9729 11.76 17.9929 11.764C18.0129 11.768 18.0329 11.752 18.0369 11.716C18.0409 11.688 18.0529 11.668 18.0649 11.652C18.0769 11.576 18.0569 11.548 18.0169 11.524Z" fill="#510000"/>
<path d="M17.8884 11.3399C17.8644 11.3399 17.8244 11.3799 17.8084 11.3599C17.8004 11.3479 17.7964 11.3239 17.8084 11.3039C17.8264 11.2641 17.8574 11.2316 17.8964 11.2119C17.9884 11.1559 18.0524 11.1719 18.0964 11.2519C18.1404 11.3239 18.1844 11.4039 18.1884 11.4679C18.1884 11.4879 18.2004 11.5239 18.1804 11.5439C18.1284 11.5999 17.9964 11.4839 17.9204 11.5039C17.8964 11.5079 17.8644 11.5279 17.8404 11.5119C17.8244 11.4999 17.8404 11.4719 17.8524 11.4599C17.8764 11.4399 17.9124 11.3639 17.9084 11.3319C17.9084 11.3159 17.9084 11.3399 17.8884 11.3399Z" fill="#FF0000"/>
<path d="M17.8812 11.3038C17.8332 11.3198 17.8412 11.3438 17.8172 11.3638C17.8252 11.3678 17.8492 11.3758 17.8732 11.3518C17.8812 11.3438 17.8932 11.3398 17.9012 11.3398L17.8732 11.3678C17.8494 11.3874 17.8303 11.412 17.8172 11.4398C17.8052 11.4718 17.8012 11.5078 17.8052 11.5118C17.8052 11.5118 17.8212 11.5438 17.8652 11.5598C17.9452 11.5918 17.9612 11.6598 18.0452 11.6598C18.1092 11.6598 18.1012 11.6158 18.1532 11.6238C18.1932 11.6318 18.2212 11.5958 18.1772 11.5758C18.1059 11.5618 18.0325 11.5618 17.9612 11.5758C17.9452 11.4158 17.9612 11.4718 17.9572 11.3998C17.9532 11.3318 17.9292 11.3278 17.9572 11.2678C17.9372 11.3078 17.9092 11.2998 17.8772 11.2998L17.8812 11.3038Z" fill="url(#paint0_linear_11930_68224)"/>
<path d="M18.0401 11.1919L18.0361 11.2159L18.0481 11.2559L18.0561 11.2959C18.0561 11.3079 18.0721 11.3119 18.0841 11.3199C18.1001 11.3319 18.0841 11.3599 18.0961 11.3639C18.1041 11.3639 18.1161 11.3239 18.1161 11.3159V11.2879C18.1099 11.2757 18.1032 11.2637 18.0961 11.2519C18.0937 11.2478 18.091 11.2438 18.0881 11.2399C18.0793 11.2264 18.0685 11.2143 18.0561 11.2039C18.0523 11.201 18.0483 11.1984 18.0441 11.1959L18.0361 11.1919H18.0401Z" fill="#FF2A2A"/>
<path d="M18.0525 11.496L17.9725 11.468C17.9205 11.452 17.8685 11.42 17.8325 11.436C17.8205 11.44 17.8205 11.452 17.8165 11.472C17.8165 11.492 17.7965 11.524 17.8165 11.512C17.8405 11.496 17.9125 11.544 17.9365 11.556C17.9485 11.564 17.9765 11.58 17.9805 11.596C17.9885 11.62 17.9805 11.668 17.9805 11.692C17.9805 11.712 17.9885 11.764 18.0085 11.772C18.0325 11.776 18.0525 11.756 18.0605 11.72C18.0725 11.684 18.0765 11.664 18.0925 11.644C18.1085 11.624 18.1245 11.612 18.1445 11.608C18.1685 11.608 18.2005 11.628 18.2005 11.6C18.2005 11.584 18.1845 11.568 18.1925 11.544C18.1965 11.524 18.1765 11.528 18.1565 11.52L18.0525 11.496Z" fill="url(#paint1_linear_11930_68224)"/>
<path d="M17.9368 11.5559C17.9208 11.5479 17.8448 11.4959 17.8168 11.5159C17.8048 11.5159 17.8008 11.5159 17.8008 11.5039L17.8088 11.4679C17.8088 11.4559 17.8168 11.4359 17.8288 11.4279C17.8568 11.4039 17.9208 11.4479 17.9528 11.4599L17.9368 11.5559Z" fill="#910000"/>
<path d="M18.0727 11.656C18.1087 11.592 18.1327 11.6 18.1767 11.6C18.1927 11.6 18.1967 11.588 18.1927 11.572C18.1807 11.596 18.1247 11.572 18.0927 11.584C18.0327 11.612 18.0447 11.732 18.0127 11.744C18.0447 11.772 18.0567 11.676 18.0727 11.656Z" fill="#FF3A3A"/>
<path d="M16.1285 12.3037L15.7285 12.9957H20.2845L19.8845 12.3077H16.1325L16.1285 12.3037Z" fill="white"/>
<path d="M15.9893 12.8556C15.9264 12.8555 15.8636 12.8595 15.8012 12.8676L15.7812 12.9036C15.8773 12.8916 15.9693 12.8756 16.0693 12.8756C16.1973 12.8756 16.3172 12.9076 16.4572 12.9076H16.6412C16.7812 12.9076 16.8973 12.8756 17.0293 12.8756C17.1613 12.8756 17.2812 12.9076 17.4212 12.9076H17.6053C17.7453 12.9076 17.8612 12.8756 17.9932 12.8756C18.1252 12.8756 18.2453 12.9076 18.3853 12.9076H18.5652C18.7052 12.9076 18.8253 12.8756 18.9573 12.8756C19.0893 12.8756 19.2093 12.9076 19.3493 12.9076H19.5293C19.6693 12.9076 19.7892 12.8756 19.9212 12.8756C20.0252 12.8756 20.1212 12.8956 20.2213 12.9036L20.2013 12.8636C20.1428 12.8575 20.084 12.8549 20.0252 12.8556H19.8452C19.7052 12.8556 19.5852 12.8836 19.4532 12.8876C19.3212 12.8876 19.2012 12.8556 19.0612 12.8556H18.8812C18.7413 12.8556 18.6213 12.8836 18.4893 12.8876C18.3573 12.8876 18.2372 12.8556 18.0972 12.8556H17.9212C17.7812 12.8556 17.6613 12.8836 17.5293 12.8876C17.3973 12.8876 17.2772 12.8556 17.1372 12.8556H16.9572C16.8172 12.8556 16.6973 12.8836 16.5653 12.8876C16.4333 12.8876 16.3172 12.8556 16.1772 12.8556H15.9893Z" fill="url(#paint2_linear_11930_68224)"/>
<path d="M15.9893 12.8116C15.9264 12.8115 15.8636 12.8155 15.8012 12.8236L15.7812 12.8596C15.8773 12.8476 15.9693 12.8316 16.0693 12.8316C16.1973 12.8316 16.3172 12.8636 16.4572 12.8636H16.6412C16.7812 12.8636 16.8973 12.8316 17.0293 12.8316C17.1613 12.8316 17.2812 12.8636 17.4212 12.8636H17.6053C17.7453 12.8636 17.8612 12.8316 17.9932 12.8316C18.1252 12.8316 18.2453 12.8636 18.3853 12.8636H18.5652C18.7052 12.8636 18.8253 12.8316 18.9573 12.8316C19.0893 12.8316 19.2093 12.8636 19.3493 12.8636H19.5293C19.6693 12.8636 19.7892 12.8316 19.9212 12.8316C20.0252 12.8316 20.1212 12.8516 20.2213 12.8596L20.2013 12.8196C20.1428 12.8136 20.084 12.8109 20.0252 12.8116H19.8452C19.7052 12.8116 19.5852 12.8396 19.4532 12.8436C19.3212 12.8436 19.2012 12.8116 19.0612 12.8116H18.8812C18.7413 12.8116 18.6213 12.8396 18.4893 12.8436C18.3573 12.8436 18.2372 12.8116 18.0972 12.8116H17.9212C17.7812 12.8116 17.6613 12.8396 17.5293 12.8436C17.3973 12.8436 17.2772 12.8116 17.1372 12.8116H16.9572C16.8172 12.8116 16.6973 12.8396 16.5653 12.8436C16.4333 12.8436 16.3172 12.8116 16.1772 12.8116H15.9893Z" fill="url(#paint3_linear_11930_68224)"/>
<path d="M15.9893 12.7677C15.9264 12.7676 15.8636 12.7716 15.8012 12.7797L15.7812 12.8157C15.8773 12.8037 15.9693 12.7877 16.0693 12.7877C16.1973 12.7877 16.3172 12.8197 16.4572 12.8197H16.6412C16.7812 12.8197 16.8973 12.7877 17.0293 12.7877C17.1613 12.7877 17.2812 12.8197 17.4212 12.8197H17.6053C17.7453 12.8197 17.8612 12.7877 17.9932 12.7877C18.1252 12.7877 18.2453 12.8197 18.3853 12.8197H18.5652C18.7052 12.8197 18.8253 12.7877 18.9573 12.7877C19.0893 12.7877 19.2093 12.8197 19.3493 12.8197H19.5293C19.6693 12.8197 19.7892 12.7877 19.9212 12.7877C20.0252 12.7877 20.1212 12.8077 20.2213 12.8157L20.2013 12.7757C20.1428 12.7696 20.084 12.767 20.0252 12.7677H19.8452C19.7052 12.7677 19.5852 12.7957 19.4532 12.7997C19.3212 12.7997 19.2012 12.7677 19.0612 12.7677H18.8812C18.7413 12.7677 18.6213 12.7957 18.4893 12.7997C18.3573 12.7997 18.2372 12.7677 18.0972 12.7677H17.9212C17.7812 12.7677 17.6613 12.7957 17.5293 12.7997C17.3973 12.7997 17.2772 12.7677 17.1372 12.7677H16.9572C16.8172 12.7677 16.6973 12.7957 16.5653 12.7997C16.4333 12.7997 16.3172 12.7677 16.1772 12.7677H15.9893Z" fill="url(#paint4_linear_11930_68224)"/>
<path d="M15.9893 12.7238C15.9264 12.7236 15.8636 12.7277 15.8012 12.7358L15.7812 12.7718C15.8773 12.7598 15.9693 12.7438 16.0693 12.7438C16.1973 12.7438 16.3172 12.7758 16.4572 12.7758H16.6412C16.7812 12.7758 16.8973 12.7438 17.0293 12.7438C17.1613 12.7438 17.2812 12.7758 17.4212 12.7758H17.6053C17.7453 12.7758 17.8612 12.7438 17.9932 12.7438C18.1252 12.7438 18.2453 12.7758 18.3853 12.7758H18.5652C18.7052 12.7758 18.8253 12.7438 18.9573 12.7438C19.0893 12.7438 19.2093 12.7758 19.3493 12.7758H19.5293C19.6693 12.7758 19.7892 12.7438 19.9212 12.7438C20.0252 12.7438 20.1212 12.7638 20.2213 12.7718L20.2013 12.7318C20.1428 12.7257 20.084 12.723 20.0252 12.7238H19.8452C19.7052 12.7238 19.5852 12.7518 19.4532 12.7558C19.3212 12.7558 19.2012 12.7238 19.0612 12.7238H18.8812C18.7413 12.7238 18.6213 12.7518 18.4893 12.7558C18.3573 12.7558 18.2372 12.7238 18.0972 12.7238H17.9212C17.7812 12.7238 17.6613 12.7518 17.5293 12.7558C17.3973 12.7558 17.2772 12.7238 17.1372 12.7238H16.9572C16.8172 12.7238 16.6973 12.7518 16.5653 12.7558C16.4333 12.7558 16.3172 12.7238 16.1772 12.7238H15.9893Z" fill="url(#paint5_linear_11930_68224)"/>
<path d="M15.9893 12.6798C15.9264 12.6797 15.8636 12.6837 15.8012 12.6918L15.7812 12.7278C15.8773 12.7158 15.9693 12.6998 16.0693 12.6998C16.1973 12.6998 16.3172 12.7318 16.4572 12.7318H16.6412C16.7812 12.7318 16.8973 12.6998 17.0293 12.6998C17.1613 12.6998 17.2812 12.7318 17.4212 12.7318H17.6053C17.7453 12.7318 17.8612 12.6998 17.9932 12.6998C18.1252 12.6998 18.2453 12.7318 18.3853 12.7318H18.5652C18.7052 12.7318 18.8253 12.6998 18.9573 12.6998C19.0893 12.6998 19.2093 12.7318 19.3493 12.7318H19.5293C19.6693 12.7318 19.7892 12.6998 19.9212 12.6998C20.0252 12.6998 20.1212 12.7198 20.2213 12.7278L20.2013 12.6878C20.1428 12.6817 20.084 12.6791 20.0252 12.6798H19.8452C19.7052 12.6798 19.5852 12.7078 19.4532 12.7118C19.3212 12.7118 19.2012 12.6798 19.0612 12.6798H18.8812C18.7413 12.6798 18.6213 12.7078 18.4893 12.7118C18.3573 12.7118 18.2372 12.6798 18.0972 12.6798H17.9212C17.7812 12.6798 17.6613 12.7078 17.5293 12.7118C17.3973 12.7118 17.2772 12.6798 17.1372 12.6798H16.9572C16.8172 12.6798 16.6973 12.7078 16.5653 12.7118C16.4333 12.7118 16.3172 12.6798 16.1772 12.6798H15.9893Z" fill="url(#paint6_linear_11930_68224)"/>
<path d="M15.9893 12.6359C15.9264 12.6358 15.8636 12.6398 15.8012 12.6479L15.7812 12.6839C15.8773 12.6719 15.9693 12.6559 16.0693 12.6559C16.1973 12.6559 16.3172 12.6879 16.4572 12.6879H16.6412C16.7812 12.6879 16.8973 12.6559 17.0293 12.6559C17.1613 12.6559 17.2812 12.6879 17.4212 12.6879H17.6053C17.7453 12.6879 17.8612 12.6559 17.9932 12.6559C18.1252 12.6559 18.2453 12.6879 18.3853 12.6879H18.5652C18.7052 12.6879 18.8253 12.6559 18.9573 12.6559C19.0893 12.6559 19.2093 12.6879 19.3493 12.6879H19.5293C19.6693 12.6879 19.7892 12.6559 19.9212 12.6559C20.0252 12.6559 20.1212 12.6759 20.2213 12.6839L20.2013 12.6439C20.1428 12.6378 20.084 12.6351 20.0252 12.6359H19.8452C19.7052 12.6359 19.5852 12.6639 19.4532 12.6679C19.3212 12.6679 19.2012 12.6359 19.0612 12.6359H18.8812C18.7413 12.6359 18.6213 12.6639 18.4893 12.6679C18.3573 12.6679 18.2372 12.6359 18.0972 12.6359H17.9212C17.7812 12.6359 17.6613 12.6639 17.5293 12.6679C17.3973 12.6679 17.2772 12.6359 17.1372 12.6359H16.9572C16.8172 12.6359 16.6973 12.6639 16.5653 12.6679C16.4333 12.6679 16.3172 12.6359 16.1772 12.6359H15.9893Z" fill="url(#paint7_linear_11930_68224)"/>
<path d="M15.9893 12.5878C15.9264 12.5877 15.8636 12.5917 15.8012 12.5998L15.7812 12.6358C15.8773 12.6238 15.9693 12.6078 16.0693 12.6078C16.1973 12.6078 16.3172 12.6398 16.4572 12.6398H16.6412C16.7812 12.6398 16.8973 12.6078 17.0293 12.6078C17.1613 12.6078 17.2812 12.6398 17.4212 12.6398H17.6053C17.7453 12.6398 17.8612 12.6078 17.9932 12.6078C18.1252 12.6078 18.2453 12.6398 18.3853 12.6398H18.5652C18.7052 12.6398 18.8253 12.6078 18.9573 12.6078C19.0893 12.6078 19.2093 12.6398 19.3493 12.6398H19.5293C19.6693 12.6398 19.7892 12.6078 19.9212 12.6078C20.0252 12.6078 20.1212 12.6278 20.2213 12.6358L20.2013 12.5958C20.1428 12.5897 20.084 12.587 20.0252 12.5878H19.8452C19.7052 12.5878 19.5852 12.6158 19.4532 12.6198C19.3212 12.6198 19.2012 12.5878 19.0612 12.5878H18.8812C18.7413 12.5878 18.6213 12.6158 18.4893 12.6198C18.3573 12.6198 18.2372 12.5878 18.0972 12.5878H17.9212C17.7812 12.5878 17.6613 12.6158 17.5293 12.6198C17.3973 12.6198 17.2772 12.5878 17.1372 12.5878H16.9572C16.8172 12.5878 16.6973 12.6158 16.5653 12.6198C16.4333 12.6198 16.3172 12.5878 16.1772 12.5878H15.9893Z" fill="url(#paint8_linear_11930_68224)"/>
<path d="M15.9893 12.5438C15.9264 12.5437 15.8636 12.5477 15.8012 12.5558L15.7812 12.5918C15.8773 12.5798 15.9693 12.5638 16.0693 12.5638C16.1973 12.5638 16.3172 12.5958 16.4572 12.5958H16.6412C16.7812 12.5958 16.8973 12.5638 17.0293 12.5638C17.1613 12.5638 17.2812 12.5958 17.4212 12.5958H17.6053C17.7453 12.5958 17.8612 12.5638 17.9932 12.5638C18.1252 12.5638 18.2453 12.5958 18.3853 12.5958H18.5652C18.7052 12.5958 18.8253 12.5638 18.9573 12.5638C19.0893 12.5638 19.2093 12.5958 19.3493 12.5958H19.5293C19.6693 12.5958 19.7892 12.5638 19.9212 12.5638C20.0252 12.5638 20.1212 12.5838 20.2213 12.5918L20.2013 12.5518C20.1428 12.5458 20.084 12.5431 20.0252 12.5438H19.8452C19.7052 12.5438 19.5852 12.5718 19.4532 12.5758C19.3212 12.5758 19.2012 12.5438 19.0612 12.5438H18.8812C18.7413 12.5438 18.6213 12.5718 18.4893 12.5758C18.3573 12.5758 18.2372 12.5438 18.0972 12.5438H17.9212C17.7812 12.5438 17.6613 12.5718 17.5293 12.5758C17.3973 12.5758 17.2772 12.5438 17.1372 12.5438H16.9572C16.8172 12.5438 16.6973 12.5718 16.5653 12.5758C16.4333 12.5758 16.3172 12.5438 16.1772 12.5438H15.9893Z" fill="url(#paint9_linear_11930_68224)"/>
<path d="M15.9893 12.4999C15.9264 12.4998 15.8636 12.5038 15.8012 12.5119L15.7812 12.5479C15.8773 12.5359 15.9693 12.5199 16.0693 12.5199C16.1973 12.5199 16.3172 12.5519 16.4572 12.5519H16.6412C16.7812 12.5519 16.8973 12.5199 17.0293 12.5199C17.1613 12.5199 17.2812 12.5519 17.4212 12.5519H17.6053C17.7453 12.5519 17.8612 12.5199 17.9932 12.5199C18.1252 12.5199 18.2453 12.5519 18.3853 12.5519H18.5652C18.7052 12.5519 18.8253 12.5199 18.9573 12.5199C19.0893 12.5199 19.2093 12.5519 19.3493 12.5519H19.5293C19.6693 12.5519 19.7892 12.5199 19.9212 12.5199C20.0252 12.5199 20.1212 12.5399 20.2213 12.5479L20.2013 12.5079C20.1428 12.5018 20.084 12.4991 20.0252 12.4999H19.8452C19.7052 12.4999 19.5852 12.5279 19.4532 12.5319C19.3212 12.5319 19.2012 12.4999 19.0612 12.4999H18.8812C18.7413 12.4999 18.6213 12.5279 18.4893 12.5319C18.3573 12.5319 18.2372 12.4999 18.0972 12.4999H17.9212C17.7812 12.4999 17.6613 12.5279 17.5293 12.5319C17.3973 12.5319 17.2772 12.4999 17.1372 12.4999H16.9572C16.8172 12.4999 16.6973 12.5279 16.5653 12.5319C16.4333 12.5319 16.3172 12.4999 16.1772 12.4999H15.9893Z" fill="url(#paint10_linear_11930_68224)"/>
<path d="M16.1323 12.2998V12.3078H19.8803L19.8763 12.2998H16.1323ZM16.1243 12.3118L16.1203 12.3238H19.8843L19.8803 12.3118H16.1203H16.1243ZM16.1163 12.3278L16.1083 12.3398H19.9003L19.8923 12.3278H16.1163ZM16.1043 12.3478L16.0923 12.3678H19.9163L19.9043 12.3478H16.1043ZM16.0883 12.3758L16.0763 12.3958H19.9323L19.9203 12.3758H16.0883ZM16.0723 12.4038L16.0643 12.4198H19.9443L19.9363 12.4038H16.0723ZM16.0563 12.4318L16.0483 12.4478H19.9643L19.9523 12.4318H16.0563ZM16.0403 12.4598L16.0283 12.4838H19.9803L19.9683 12.4598H16.0443H16.0403Z" fill="url(#paint11_linear_11930_68224)"/>
<path d="M16.3008 12.4917C16.4368 12.5197 16.4488 12.4917 16.4488 12.4917H16.3008ZM19.5608 12.4917C19.5608 12.4917 19.5728 12.5197 19.7088 12.4917H19.5608Z" fill="url(#paint12_linear_11930_68224)"/>
<path d="M19.2202 11.8799C19.1522 11.8799 19.1322 11.9159 19.1322 11.9159C19.0242 12.3399 18.6602 12.7679 18.2282 12.7679H17.9082V13.1999H20.3642L20.1162 12.7599C19.7282 12.7039 19.4122 12.3079 19.3122 11.9159C19.3122 11.9159 19.2882 11.8799 19.2202 11.8799Z" fill="url(#paint13_linear_11930_68224)"/>
<path d="M19.2209 11.8998C19.1889 11.8998 19.1729 11.9038 19.1609 11.9118L19.1489 11.9238C19.0889 12.1453 18.9733 12.3477 18.8129 12.5118C18.6529 12.6758 18.4529 12.7878 18.2289 12.7878H17.9209V13.1838H20.3569L20.1289 12.7838C19.9409 12.7558 19.7689 12.6558 19.6329 12.5118C19.4725 12.3477 19.3569 12.1453 19.2969 11.9238L19.2849 11.9118C19.2652 11.9016 19.2429 11.8974 19.2209 11.8998Z" fill="#97C924"/>
<path d="M19.2209 11.8999H19.2369V12.3319C19.2331 12.4228 19.2055 12.511 19.1569 12.5879C19.1369 12.6519 19.1169 12.6279 19.0649 12.7039C18.9974 12.7272 18.9277 12.7433 18.8569 12.7519C18.7569 12.7679 18.5369 12.7839 18.4209 12.7559C18.5698 12.7104 18.7046 12.6278 18.8129 12.5159C18.8427 12.4841 18.8707 12.4507 18.8969 12.4159C18.9415 12.3605 18.9816 12.3016 19.0169 12.2399L19.0569 12.1599C19.076 12.1221 19.0934 12.0834 19.1089 12.0439C19.1243 12.0046 19.1377 11.9646 19.1489 11.9239L19.1609 11.9119L19.1849 11.9039L19.2209 11.8999Z" fill="#EDE71F"/>
<path d="M19.1961 11.9558C19.1761 12.1958 19.1041 12.4838 18.9281 12.6678C18.8641 12.7198 18.7801 12.7718 18.7041 12.7598C18.9721 12.5398 19.1361 12.1998 19.1921 11.9558H19.1961Z" fill="#C6CB24"/>
<path d="M18.9768 12.3718C18.9368 12.4798 18.7848 12.6398 18.6248 12.7718H18.5088C18.6088 12.7638 18.8408 12.5718 18.9768 12.3718Z" fill="#9ECB34"/>
<path d="M18.6128 11.8799C18.5448 11.8799 18.5248 11.9159 18.5248 11.9159C18.4168 12.3399 18.0528 12.7679 17.6208 12.7679H17.3008V13.1999H19.7568L19.5088 12.7599C19.1208 12.7039 18.8048 12.3079 18.7048 11.9159C18.7048 11.9159 18.6808 11.8799 18.6128 11.8799Z" fill="url(#paint14_linear_11930_68224)"/>
<path d="M18.6125 11.8998C18.5805 11.8998 18.5645 11.9038 18.5525 11.9118L18.5405 11.9238C18.4805 12.1453 18.3649 12.3477 18.2045 12.5118C18.0445 12.6758 17.8445 12.7878 17.6205 12.7878H17.3125V13.1838H19.7485L19.5205 12.7838C19.3325 12.7558 19.1605 12.6558 19.0245 12.5118C18.8641 12.3477 18.7485 12.1453 18.6885 11.9238L18.6765 11.9118C18.6568 11.9016 18.6345 11.8974 18.6125 11.8998Z" fill="#97C924"/>
<path d="M18.6125 11.8999H18.6285V12.3319C18.6247 12.4228 18.5971 12.511 18.5485 12.5879C18.5285 12.6519 18.5085 12.6279 18.4565 12.7039C18.389 12.7272 18.3193 12.7433 18.2485 12.7519C18.1485 12.7679 17.9285 12.7839 17.8125 12.7559C17.9614 12.7104 18.0962 12.6278 18.2045 12.5159C18.2343 12.4841 18.2623 12.4507 18.2885 12.4159C18.3331 12.3605 18.3732 12.3016 18.4085 12.2399L18.4485 12.1599C18.4676 12.1221 18.485 12.0834 18.5005 12.0439C18.5159 12.0046 18.5293 11.9646 18.5405 11.9239L18.5525 11.9119L18.5765 11.9039L18.6125 11.8999Z" fill="#EDE71F"/>
<path d="M18.5887 11.9558C18.5687 12.1958 18.4967 12.4838 18.3207 12.6678C18.2567 12.7198 18.1727 12.7718 18.0967 12.7598C18.3647 12.5398 18.5287 12.1998 18.5847 11.9558H18.5887Z" fill="#C6CB24"/>
<path d="M18.3684 12.3718C18.3284 12.4798 18.1764 12.6398 18.0164 12.7718H17.9004C18.0004 12.7638 18.2324 12.5718 18.3684 12.3718Z" fill="#9ECB34"/>
<path d="M18.0895 11.9198C18.2015 12.3398 18.5615 12.7678 18.9935 12.7678H19.3175V13.1998H16.6855V12.7678H17.0055C17.4375 12.7678 17.8015 12.3398 17.9095 11.9158C17.9095 11.9158 17.9335 11.8838 18.0015 11.8838C18.0695 11.8838 18.0895 11.9158 18.0895 11.9158V11.9198Z" fill="url(#paint15_linear_11930_68224)"/>
<path d="M18.0012 11.8999C18.0332 11.8999 18.0492 11.9079 18.0612 11.9119L18.0732 11.9239C18.1331 12.1454 18.2488 12.3478 18.4092 12.5119C18.5692 12.6759 18.7692 12.7879 18.9932 12.7879H19.3012V13.1839H16.7012V12.7839H17.0092C17.2292 12.7839 17.4332 12.6759 17.5932 12.5119C17.7521 12.3473 17.8663 12.145 17.9252 11.9239L17.9372 11.9119C17.957 11.9021 17.9791 11.8979 18.0012 11.8999Z" fill="#97C924"/>
<path d="M17.9732 11.8998C17.9692 11.8996 17.9652 11.8996 17.9612 11.8998L17.9372 11.9118L17.9252 11.9238C17.914 11.9645 17.9007 12.0046 17.8852 12.0438C17.8711 12.0845 17.8551 12.1246 17.8372 12.1638C17.8246 12.1895 17.8113 12.2149 17.7972 12.2398C17.7619 12.3015 17.7218 12.3604 17.6772 12.4158C17.6509 12.4492 17.6228 12.4813 17.5932 12.5118C17.4854 12.6251 17.3505 12.7091 17.2012 12.7558C17.3132 12.7838 17.3612 12.7558 17.4612 12.7398C17.5412 12.7278 17.6292 12.7158 17.7012 12.6918C17.7612 12.6118 17.7412 12.6398 17.7612 12.5758C17.8092 12.4878 17.8812 12.4078 17.8972 12.3078C17.9612 12.1878 17.9732 11.9638 17.9732 11.8998Z" fill="#EDE71F"/>
<path d="M17.9734 11.9558C17.9574 12.1958 17.8814 12.4838 17.7054 12.6678C17.6414 12.7198 17.5614 12.7718 17.4814 12.7598C17.7534 12.5398 17.9174 12.1998 17.9734 11.9558Z" fill="#C6CB24"/>
<path d="M17.7531 12.3718C17.6661 12.5291 17.546 12.6656 17.4011 12.7718H17.2891C17.3891 12.7638 17.6171 12.5718 17.7531 12.3718Z" fill="#9ECB34"/>
<path d="M18.0413 11.9038L18.0613 11.9118L18.0773 11.9238C18.0887 11.9644 18.102 12.0045 18.1173 12.0438C18.1314 12.0846 18.1474 12.1246 18.1653 12.1638L18.2053 12.2398C18.2406 12.3016 18.2807 12.3604 18.3253 12.4158C18.3516 12.4492 18.3797 12.4813 18.4093 12.5118C18.5164 12.6296 18.6511 12.719 18.8013 12.7718C18.5093 12.7718 18.3853 12.7478 18.2813 12.6118C18.2057 12.5317 18.1484 12.4362 18.1133 12.3318C18.0933 12.2518 18.0333 12.0718 18.0373 11.9038H18.0413Z" fill="#EDE71F"/>
<path d="M18.0615 11.9558C18.0775 12.1958 18.1495 12.4358 18.3255 12.6198C18.3895 12.6758 18.4695 12.7238 18.5495 12.7118C18.2982 12.5295 18.1242 12.2599 18.0615 11.9558Z" fill="#C6CB24"/>
<path d="M17.3881 11.8799C17.3161 11.8799 17.2961 11.9159 17.2961 11.9159C17.1961 12.3079 16.8241 12.8079 16.4361 12.8679L16.2441 13.1999H18.2041V12.7479C17.8521 12.6519 17.5681 12.2799 17.4761 11.9159C17.4761 11.9159 17.4561 11.8839 17.3841 11.8839L17.3881 11.8799Z" fill="url(#paint16_linear_11930_68224)"/>
<path d="M17.3888 11.8999C17.3568 11.8999 17.3368 11.9079 17.3248 11.9119L17.3128 11.9239C17.2456 12.1434 17.1354 12.3473 16.9888 12.5239C16.8528 12.6959 16.6008 12.8679 16.4288 12.8839L16.2568 13.1839H18.1768V12.7559C18.0324 12.7083 17.9019 12.6259 17.7968 12.5159C17.6359 12.3507 17.5202 12.1468 17.4608 11.9239L17.4488 11.9119C17.4303 11.9026 17.4095 11.8985 17.3888 11.8999Z" fill="#97C924"/>
<path d="M17.3318 11.9558C17.3078 12.3158 17.1078 12.7758 16.8798 12.8518C16.8038 12.8798 16.6758 12.8878 16.6318 12.8918C16.8082 12.7938 16.962 12.6599 17.0833 12.4986C17.2046 12.3374 17.2906 12.1524 17.3358 11.9558H17.3318Z" fill="#93BC30"/>
<path d="M17.3882 11.8998H17.3682V12.3318C17.3682 12.4238 17.4042 12.4998 17.4482 12.5878L17.4562 12.6078C17.4762 12.6518 17.4882 12.6678 17.5482 12.7158C17.7199 12.8384 17.93 12.8951 18.1402 12.8758C18.0962 12.8398 18.0482 12.8078 18.0042 12.7798L18.1842 12.7598C18.0359 12.7113 17.9024 12.626 17.7962 12.5118C17.7768 12.4924 17.7582 12.4724 17.7402 12.4518L17.7162 12.4198C17.6688 12.3632 17.626 12.3031 17.5882 12.2398C17.574 12.2136 17.5606 12.1869 17.5482 12.1598C17.5236 12.1091 17.5023 12.057 17.4842 12.0038C17.4753 11.9774 17.4673 11.9507 17.4602 11.9238L17.4482 11.9118C17.4406 11.908 17.4325 11.9053 17.4242 11.9038C17.4111 11.9006 17.3976 11.8992 17.3842 11.8998H17.3882Z" fill="#EDE71F"/>
<path d="M17.4121 11.9558C17.4321 12.1958 17.5041 12.4838 17.6801 12.6678C17.7441 12.7198 17.8241 12.7718 17.9041 12.7598C17.6601 12.5498 17.488 12.2686 17.4121 11.9558Z" fill="#CCD11E"/>
<path d="M17.5801 12.2918C17.7096 12.5453 17.9134 12.7532 18.1641 12.8878H18.2641C18.0881 12.7918 17.8041 12.6558 17.5841 12.2878L17.5801 12.2918Z" fill="#9ECB34"/>
<path d="M16.7729 11.8799C16.7009 11.8799 16.6809 11.9159 16.6809 11.9159C16.5809 12.3079 16.2089 12.8079 15.8209 12.8679L15.6289 13.1999H17.5889V12.7479C17.2369 12.6519 16.9529 12.2799 16.8609 11.9159C16.8609 11.9159 16.8409 11.8839 16.7689 11.8839L16.7729 11.8799Z" fill="url(#paint17_linear_11930_68224)"/>
<path d="M16.7726 11.8999C16.7406 11.8999 16.7206 11.9079 16.7086 11.9119L16.6966 11.9239C16.6294 12.1434 16.5192 12.3473 16.3726 12.5239C16.2366 12.6959 15.9846 12.8679 15.8126 12.8839L15.6406 13.1839H17.5606V12.7559C17.4162 12.7083 17.2857 12.6259 17.1806 12.5159C17.0197 12.3507 16.904 12.1468 16.8446 11.9239L16.8326 11.9119C16.8141 11.9026 16.7933 11.8985 16.7726 11.8999Z" fill="#97C924"/>
<path d="M16.7166 11.9558C16.6926 12.3158 16.4926 12.7758 16.2646 12.8518C16.1886 12.8798 16.0606 12.8878 16.0166 12.8918C16.193 12.7938 16.3468 12.6599 16.4681 12.4986C16.5893 12.3374 16.6754 12.1524 16.7206 11.9558H16.7166Z" fill="#93BC30"/>
<path d="M16.7729 11.8998H16.7529V12.3318C16.7529 12.4238 16.7889 12.4998 16.8329 12.5878L16.8409 12.6078C16.8609 12.6518 16.8729 12.6678 16.9329 12.7158C17.1047 12.8384 17.3148 12.8951 17.5249 12.8758C17.4809 12.8398 17.4329 12.8078 17.3889 12.7798L17.5689 12.7598C17.4207 12.7113 17.2871 12.626 17.1809 12.5118C17.1616 12.4924 17.1429 12.4724 17.1249 12.4518L17.1009 12.4198C17.0536 12.3632 17.0108 12.3031 16.9729 12.2398C16.9587 12.2136 16.9454 12.1869 16.9329 12.1598C16.9084 12.1091 16.887 12.057 16.8689 12.0038C16.8601 11.9774 16.852 11.9507 16.8449 11.9238L16.8329 11.9118C16.8254 11.908 16.8173 11.9053 16.8089 11.9038C16.7958 11.9006 16.7824 11.8992 16.7689 11.8998H16.7729Z" fill="#EDE71F"/>
<path d="M16.7969 11.9558C16.8169 12.1958 16.8889 12.4838 17.0649 12.6678C17.1289 12.7198 17.2089 12.7718 17.2889 12.7598C17.0449 12.5498 16.8728 12.2686 16.7969 11.9558Z" fill="#C6CB24"/>
<path d="M16.9648 12.2918C17.0944 12.5453 17.2981 12.7532 17.5488 12.8878H17.6488C17.4728 12.7918 17.1888 12.6558 16.9688 12.2878L16.9648 12.2918Z" fill="#9ECB34"/>
<path d="M20.2601 12.9879C20.2361 12.9959 20.0841 12.9799 20.0041 12.9879L19.9521 12.9999H19.8201C19.6761 12.9999 19.5522 13.0399 19.4162 13.0399C19.2802 13.0399 19.1562 12.9999 19.0162 12.9999H18.8801C18.7361 12.9999 18.6121 13.0399 18.4761 13.0399C18.3401 13.0399 18.2161 12.9999 18.0761 12.9999H17.9401C17.7961 12.9999 17.6721 13.0399 17.5401 13.0399C17.4001 13.0399 17.2801 12.9999 17.1361 12.9999H17.0001C16.8561 12.9999 16.7361 13.0399 16.6001 13.0399C16.4601 13.0399 16.3401 12.9999 16.1961 12.9999H16.0601C15.9481 12.9999 15.8121 13.0239 15.7041 13.0319L15.4521 13.4679H20.5481L20.2601 12.9879Z" fill="white"/>
<path d="M19.9208 12.9238H19.8968C19.7688 12.9278 19.6728 12.9678 19.4488 12.9678C19.2248 12.9678 19.2008 12.9278 18.9448 12.9358C18.7048 12.9358 18.6088 12.9838 18.4768 12.9838C18.3488 12.9838 18.1408 12.9558 17.9768 12.9718C17.8168 12.9878 17.6248 13.0238 17.4968 13.0238C17.3408 13.0238 17.1848 12.9958 17.0248 13.0118C16.8608 13.0278 16.7848 13.0718 16.5808 13.0718C16.4048 13.0718 16.2208 13.0438 16.0688 13.0438C15.9328 13.0438 15.7808 13.0838 15.6688 13.0998L15.6328 13.1598C15.7248 13.1478 15.9768 13.1078 16.0648 13.1078C16.1608 13.1078 16.4928 13.1278 16.6768 13.1198C16.8648 13.1158 16.8848 13.0718 17.1048 13.0718C17.2568 13.0718 17.3688 13.0878 17.5248 13.0878C17.6248 13.0878 17.7128 13.0398 17.8608 13.0398L17.9728 13.0358C18.0968 13.0158 18.3088 13.0358 18.4528 13.0438C18.5848 13.0518 18.6728 13.0198 18.8128 13.0158L18.9888 13.0118C19.1288 13.0038 19.2448 13.0358 19.3768 13.0358C19.5048 13.0278 19.6328 12.9958 19.7688 12.9958L19.9488 12.9878C20.0408 12.9878 20.1848 12.9878 20.2808 13.0078L20.2488 12.9518C20.1528 12.9478 20.0368 12.9238 19.9208 12.9238Z" fill="url(#paint18_linear_11930_68224)"/>
<path d="M16.0148 13.3919C15.8788 13.3919 15.7588 13.4239 15.6308 13.4279C15.5826 13.4267 15.5345 13.4227 15.4868 13.4159L15.4668 13.4479H15.7068C15.8468 13.4479 15.9628 13.4159 16.0908 13.4119C16.2228 13.4159 16.3388 13.4519 16.4788 13.4519H16.6588C16.7948 13.4519 16.9148 13.4159 17.0428 13.4119C17.1748 13.4159 17.2948 13.4519 17.4308 13.4519H17.6108C17.7508 13.4519 17.8668 13.4159 17.9988 13.4119C18.1268 13.4159 18.2428 13.4519 18.3828 13.4519H18.5628C18.6988 13.4519 18.8188 13.4159 18.9508 13.4119C19.0788 13.4159 19.1988 13.4519 19.3348 13.4519H19.5148C19.6548 13.4519 19.7708 13.4159 19.8988 13.4119C20.0308 13.4159 20.1468 13.4519 20.2868 13.4519H20.4668L20.5388 13.4479L20.5188 13.4159C20.4788 13.4199 20.4348 13.4279 20.3908 13.4279C20.2588 13.4279 20.1428 13.3879 20.0028 13.3879H19.8228C19.6868 13.3879 19.5668 13.4279 19.4388 13.4279C19.3068 13.4239 19.1908 13.3879 19.0508 13.3879H18.8708C18.7348 13.3879 18.6148 13.4279 18.4868 13.4279C18.3548 13.4239 18.2388 13.3879 18.0988 13.3879H17.9188C17.7788 13.3879 17.6628 13.4279 17.5348 13.4279C17.4028 13.4239 17.2868 13.3879 17.1468 13.3879H16.9668C16.8308 13.3879 16.7108 13.4279 16.5828 13.4279C16.4508 13.4239 16.3348 13.3879 16.1948 13.3879H16.0148V13.3919Z" fill="url(#paint19_linear_11930_68224)"/>
<path d="M16.0148 13.3399C15.8788 13.3399 15.7588 13.3719 15.6308 13.3759C15.5826 13.3747 15.5345 13.3707 15.4868 13.3639L15.4668 13.3959H15.7068C15.8468 13.3959 15.9628 13.3639 16.0908 13.3599C16.2228 13.3639 16.3388 13.3999 16.4788 13.3999H16.6588C16.7948 13.3999 16.9148 13.3639 17.0428 13.3599C17.1748 13.3639 17.2948 13.3999 17.4308 13.3999H17.6108C17.7508 13.3999 17.8668 13.3639 17.9988 13.3599C18.1268 13.3639 18.2428 13.3999 18.3828 13.3999H18.5628C18.6988 13.3999 18.8188 13.3639 18.9508 13.3599C19.0788 13.3639 19.1988 13.3999 19.3348 13.3999H19.5148C19.6548 13.3999 19.7708 13.3639 19.8988 13.3599C20.0308 13.3639 20.1468 13.3999 20.2868 13.3999H20.4668L20.5388 13.3959L20.5188 13.3639C20.4788 13.3679 20.4348 13.3759 20.3908 13.3759C20.2588 13.3759 20.1428 13.3359 20.0028 13.3359H19.8228C19.6868 13.3359 19.5668 13.3759 19.4388 13.3759C19.3068 13.3719 19.1908 13.3359 19.0508 13.3359H18.8708C18.7348 13.3359 18.6148 13.3759 18.4868 13.3759C18.3548 13.3719 18.2388 13.3359 18.0988 13.3359H17.9188C17.7788 13.3359 17.6628 13.3759 17.5348 13.3759C17.4028 13.3719 17.2868 13.3359 17.1468 13.3359H16.9668C16.8308 13.3359 16.7108 13.3759 16.5828 13.3759C16.4508 13.3719 16.3348 13.3359 16.1948 13.3359H16.0148V13.3399Z" fill="url(#paint20_linear_11930_68224)"/>
<path d="M16.0148 13.2879C15.8788 13.2879 15.7588 13.3199 15.6308 13.3239C15.5826 13.3227 15.5345 13.3187 15.4868 13.3119L15.4668 13.3439H15.7068C15.8468 13.3439 15.9628 13.3119 16.0908 13.3079C16.2228 13.3119 16.3388 13.3479 16.4788 13.3479H16.6588C16.7948 13.3479 16.9148 13.3119 17.0428 13.3079C17.1748 13.3119 17.2948 13.3479 17.4308 13.3479H17.6108C17.7508 13.3479 17.8668 13.3119 17.9988 13.3079C18.1268 13.3119 18.2428 13.3479 18.3828 13.3479H18.5628C18.6988 13.3479 18.8188 13.3119 18.9508 13.3079C19.0788 13.3119 19.1988 13.3479 19.3348 13.3479H19.5148C19.6548 13.3479 19.7708 13.3119 19.8988 13.3079C20.0308 13.3119 20.1468 13.3479 20.2868 13.3479H20.4668L20.5388 13.3439L20.5188 13.3119C20.4788 13.3159 20.4348 13.3239 20.3908 13.3239C20.2588 13.3239 20.1428 13.2839 20.0028 13.2839H19.8228C19.6868 13.2839 19.5668 13.3239 19.4388 13.3239C19.3068 13.3199 19.1908 13.2839 19.0508 13.2839H18.8708C18.7348 13.2839 18.6148 13.3239 18.4868 13.3239C18.3548 13.3199 18.2388 13.2839 18.0988 13.2839H17.9188C17.7788 13.2839 17.6628 13.3239 17.5348 13.3239C17.4028 13.3199 17.2868 13.2839 17.1468 13.2839H16.9668C16.8308 13.2839 16.7108 13.3239 16.5828 13.3239C16.4508 13.3199 16.3348 13.2839 16.1948 13.2839H16.0148V13.2879Z" fill="url(#paint21_linear_11930_68224)"/>
<path d="M16.0148 13.2359C15.8788 13.2359 15.7588 13.2679 15.6308 13.2719C15.5826 13.2707 15.5345 13.2667 15.4868 13.2599L15.4668 13.2919H15.7068C15.8468 13.2919 15.9628 13.2599 16.0908 13.2559C16.2228 13.2599 16.3388 13.2959 16.4788 13.2959H16.6588C16.7948 13.2959 16.9148 13.2599 17.0428 13.2559C17.1748 13.2599 17.2948 13.2959 17.4308 13.2959H17.6108C17.7508 13.2959 17.8668 13.2599 17.9988 13.2559C18.1268 13.2599 18.2428 13.2959 18.3828 13.2959H18.5628C18.6988 13.2959 18.8188 13.2599 18.9508 13.2559C19.0788 13.2599 19.1988 13.2959 19.3348 13.2959H19.5148C19.6548 13.2959 19.7708 13.2599 19.8988 13.2559C20.0308 13.2599 20.1468 13.2959 20.2868 13.2959H20.4668L20.5388 13.2919L20.5188 13.2599C20.4788 13.2639 20.4348 13.2719 20.3908 13.2719C20.2588 13.2719 20.1428 13.2319 20.0028 13.2319H19.8228C19.6868 13.2319 19.5668 13.2719 19.4388 13.2719C19.3068 13.2679 19.1908 13.2319 19.0508 13.2319H18.8708C18.7348 13.2319 18.6148 13.2719 18.4868 13.2719C18.3548 13.2679 18.2388 13.2319 18.0988 13.2319H17.9188C17.7788 13.2319 17.6628 13.2719 17.5348 13.2719C17.4028 13.2679 17.2868 13.2319 17.1468 13.2319H16.9668C16.8308 13.2319 16.7108 13.2719 16.5828 13.2719C16.4508 13.2679 16.3348 13.2319 16.1948 13.2319H16.0148V13.2359Z" fill="url(#paint22_linear_11930_68224)"/>
<path d="M16.0148 13.1839C15.8788 13.1839 15.7588 13.2159 15.6308 13.2199C15.5826 13.2187 15.5345 13.2147 15.4868 13.2079L15.4668 13.2399H15.7068C15.8468 13.2399 15.9628 13.2079 16.0908 13.2039C16.2228 13.2079 16.3388 13.2439 16.4788 13.2439H16.6588C16.7948 13.2439 16.9148 13.2079 17.0428 13.2039C17.1748 13.2079 17.2948 13.2439 17.4308 13.2439H17.6108C17.7508 13.2439 17.8668 13.2079 17.9988 13.2039C18.1268 13.2079 18.2428 13.2439 18.3828 13.2439H18.5628C18.6988 13.2439 18.8188 13.2079 18.9508 13.2039C19.0788 13.2079 19.1988 13.2439 19.3348 13.2439H19.5148C19.6548 13.2439 19.7708 13.2079 19.8988 13.2039C20.0308 13.2079 20.1468 13.2439 20.2868 13.2439H20.4668L20.5388 13.2399L20.5188 13.2079C20.4788 13.2119 20.4348 13.2199 20.3908 13.2199C20.2588 13.2199 20.1428 13.1799 20.0028 13.1799H19.8228C19.6868 13.1799 19.5668 13.2199 19.4388 13.2199C19.3068 13.2159 19.1908 13.1799 19.0508 13.1799H18.8708C18.7348 13.1799 18.6148 13.2199 18.4868 13.2199C18.3548 13.2159 18.2388 13.1799 18.0988 13.1799H17.9188C17.7788 13.1799 17.6628 13.2199 17.5348 13.2199C17.4028 13.2159 17.2868 13.1799 17.1468 13.1799H16.9668C16.8308 13.1799 16.7108 13.2199 16.5828 13.2199C16.4508 13.2159 16.3348 13.1799 16.1948 13.1799H16.0148V13.1839Z" fill="url(#paint23_linear_11930_68224)"/>
<path d="M16.0148 13.1319C15.8788 13.1319 15.7588 13.1639 15.6308 13.1679C15.5826 13.1667 15.5345 13.1627 15.4868 13.1559L15.4668 13.1879H15.7068C15.8468 13.1879 15.9628 13.1559 16.0908 13.1519C16.2228 13.1559 16.3388 13.1919 16.4788 13.1919H16.6588C16.7948 13.1919 16.9148 13.1559 17.0428 13.1519C17.1748 13.1559 17.2948 13.1919 17.4308 13.1919H17.6108C17.7508 13.1919 17.8668 13.1559 17.9988 13.1519C18.1268 13.1559 18.2428 13.1919 18.3828 13.1919H18.5628C18.6988 13.1919 18.8188 13.1559 18.9508 13.1519C19.0788 13.1559 19.1988 13.1919 19.3348 13.1919H19.5148C19.6548 13.1919 19.7708 13.1559 19.8988 13.1519C20.0308 13.1559 20.1468 13.1919 20.2868 13.1919H20.4668L20.5388 13.1879L20.5188 13.1559C20.4788 13.1599 20.4348 13.1679 20.3908 13.1679C20.2588 13.1679 20.1428 13.1279 20.0028 13.1279H19.8228C19.6868 13.1279 19.5668 13.1679 19.4388 13.1679C19.3068 13.1639 19.1908 13.1279 19.0508 13.1279H18.8708C18.7348 13.1279 18.6148 13.1679 18.4868 13.1679C18.3548 13.1639 18.2388 13.1279 18.0988 13.1279H17.9188C17.7788 13.1279 17.6628 13.1679 17.5348 13.1679C17.4028 13.1639 17.2868 13.1279 17.1468 13.1279H16.9668C16.8308 13.1279 16.7108 13.1679 16.5828 13.1679C16.4508 13.1639 16.3348 13.1279 16.1948 13.1279H16.0148V13.1319Z" fill="url(#paint24_linear_11930_68224)"/>
<path d="M16.0148 13.0838C15.8788 13.0838 15.7588 13.1158 15.6308 13.1198C15.5826 13.1186 15.5345 13.1146 15.4868 13.1078L15.4668 13.1398H15.7068C15.8468 13.1398 15.9628 13.1078 16.0908 13.1038C16.2228 13.1078 16.3388 13.1438 16.4788 13.1438H16.6588C16.7948 13.1438 16.9148 13.1078 17.0428 13.1038C17.1748 13.1078 17.2948 13.1438 17.4308 13.1438H17.6108C17.7508 13.1438 17.8668 13.1078 17.9988 13.1038C18.1268 13.1078 18.2428 13.1438 18.3828 13.1438H18.5628C18.6988 13.1438 18.8188 13.1078 18.9508 13.1038C19.0788 13.1078 19.1988 13.1438 19.3348 13.1438H19.5148C19.6548 13.1438 19.7708 13.1078 19.8988 13.1038C20.0308 13.1078 20.1468 13.1438 20.2868 13.1438H20.4668L20.5388 13.1398L20.5188 13.1078C20.4788 13.1118 20.4348 13.1198 20.3908 13.1198C20.2588 13.1198 20.1428 13.0798 20.0028 13.0798H19.8228C19.6868 13.0798 19.5668 13.1198 19.4388 13.1198C19.3068 13.1158 19.1908 13.0798 19.0508 13.0798H18.8708C18.7348 13.0798 18.6148 13.1198 18.4868 13.1198C18.3548 13.1158 18.2388 13.0798 18.0988 13.0798H17.9188C17.7788 13.0798 17.6628 13.1198 17.5348 13.1198C17.4028 13.1158 17.2868 13.0798 17.1468 13.0798H16.9668C16.8308 13.0798 16.7108 13.1198 16.5828 13.1198C16.4508 13.1158 16.3348 13.0798 16.1948 13.0798H16.0148V13.0838Z" fill="url(#paint25_linear_11930_68224)"/>
<path d="M16.0148 13.0318C15.8788 13.0318 15.7588 13.0638 15.6308 13.0678C15.5826 13.0666 15.5345 13.0626 15.4868 13.0558L15.4668 13.0878H15.7068C15.8468 13.0878 15.9628 13.0558 16.0908 13.0518C16.2228 13.0558 16.3388 13.0918 16.4788 13.0918H16.6588C16.7948 13.0918 16.9148 13.0558 17.0428 13.0518C17.1748 13.0558 17.2948 13.0918 17.4308 13.0918H17.6108C17.7508 13.0918 17.8668 13.0558 17.9988 13.0518C18.1268 13.0558 18.2428 13.0918 18.3828 13.0918H18.5628C18.6988 13.0918 18.8188 13.0558 18.9508 13.0518C19.0788 13.0558 19.1988 13.0918 19.3348 13.0918H19.5148C19.6548 13.0918 19.7708 13.0558 19.8988 13.0518C20.0308 13.0558 20.1468 13.0918 20.2868 13.0918H20.4668L20.5388 13.0878L20.5188 13.0558C20.4788 13.0598 20.4348 13.0678 20.3908 13.0678C20.2588 13.0678 20.1428 13.0278 20.0028 13.0278H19.8228C19.6868 13.0278 19.5668 13.0678 19.4388 13.0678C19.3068 13.0638 19.1908 13.0278 19.0508 13.0278H18.8708C18.7348 13.0278 18.6148 13.0678 18.4868 13.0678C18.3548 13.0638 18.2388 13.0278 18.0988 13.0278H17.9188C17.7788 13.0278 17.6628 13.0678 17.5348 13.0678C17.4028 13.0638 17.2868 13.0278 17.1468 13.0278H16.9668C16.8308 13.0278 16.7108 13.0678 16.5828 13.0678C16.4508 13.0638 16.3348 13.0278 16.1948 13.0278H16.0148V13.0318Z" fill="url(#paint26_linear_11930_68224)"/>
<path d="M16.0148 12.9798C15.8788 12.9798 15.7588 13.0118 15.6308 13.0158C15.5826 13.0146 15.5345 13.0106 15.4868 13.0038L15.4668 13.0358H15.7068C15.8468 13.0358 15.9628 13.0038 16.0908 12.9998C16.2228 13.0038 16.3388 13.0398 16.4788 13.0398H16.6588C16.7948 13.0398 16.9148 13.0038 17.0428 12.9998C17.1748 13.0038 17.2948 13.0398 17.4308 13.0398H17.6108C17.7508 13.0398 17.8668 13.0038 17.9988 12.9998C18.1268 13.0038 18.2428 13.0398 18.3828 13.0398H18.5628C18.6988 13.0398 18.8188 13.0038 18.9508 12.9998C19.0788 13.0038 19.1988 13.0398 19.3348 13.0398H19.5148C19.6548 13.0398 19.7708 13.0038 19.8988 12.9998C20.0308 13.0038 20.1468 13.0398 20.2868 13.0398H20.4668L20.5388 13.0358L20.5188 13.0038C20.4788 13.0078 20.4348 13.0158 20.3908 13.0158C20.2588 13.0158 20.1428 12.9758 20.0028 12.9758H19.8228C19.6868 12.9758 19.5668 13.0158 19.4388 13.0158C19.3068 13.0118 19.1908 12.9758 19.0508 12.9758H18.8708C18.7348 12.9758 18.6148 13.0158 18.4868 13.0158C18.3548 13.0118 18.2388 12.9758 18.0988 12.9758H17.9188C17.7788 12.9758 17.6628 13.0158 17.5348 13.0158C17.4028 13.0118 17.2868 12.9758 17.1468 12.9758H16.9668C16.8308 12.9758 16.7108 13.0158 16.5828 13.0158C16.4508 13.0118 16.3348 12.9758 16.1948 12.9758H16.0148V12.9798Z" fill="url(#paint27_linear_11930_68224)"/>
<path d="M15.7572 12.9878L15.6572 13.1558C15.7732 13.1358 15.9412 13.0878 16.0852 13.0878C16.2292 13.0878 16.4052 13.1238 16.5812 13.1278C16.7812 13.1278 16.8612 13.0798 17.0212 13.0638C17.1852 13.0478 17.3412 13.0838 17.5012 13.0878C17.6252 13.0878 17.8172 13.0438 17.9812 13.0278C18.1412 13.0078 18.2892 13.0398 18.4812 13.0398C18.6772 13.0438 18.7092 12.9918 18.9452 12.9878C19.2012 12.9838 19.2252 13.0238 19.4492 13.0238C19.6172 13.0318 19.7652 12.9878 19.9172 12.9798C20.0692 12.9678 20.1372 12.9798 20.2492 12.9798L20.1732 12.8518L16.1212 12.9438L15.7572 12.9878Z" fill="#97C924"/>
<path d="M20.001 12.9839L20.161 12.9959C20.1996 13.0005 20.2382 13.0045 20.277 13.0079L20.261 12.9879C20.237 12.9959 20.085 12.9799 20.005 12.9879L20.001 12.9839Z" fill="white"/>
<path d="M17.9997 8.995L16.7147 11.22L15.3997 13.5H20.5997L19.3147 11.27L17.9997 8.995ZM17.9997 9.115L19.2597 11.3L20.4947 13.44H15.5047L16.7647 11.25L17.9997 9.115Z" fill="#C8A400"/>
</g>
</g>
<defs>
<linearGradient id="paint0_linear_11930_68224" x1="17.9492" y1="11.5638" x2="18.0252" y2="11.3358" gradientUnits="userSpaceOnUse">
<stop stop-color="#510000"/>
<stop offset="0.3" stop-color="#8A0000"/>
<stop offset="1" stop-color="#AA0000"/>
</linearGradient>
<linearGradient id="paint1_linear_11930_68224" x1="18.0565" y1="11.656" x2="18.1165" y2="11.496" gradientUnits="userSpaceOnUse">
<stop stop-color="#FF2A2A"/>
<stop offset="1" stop-color="#FF0000"/>
</linearGradient>
<linearGradient id="paint2_linear_11930_68224" x1="15.7812" y1="12.6996" x2="23.3772" y2="12.6996" gradientUnits="userSpaceOnUse">
<stop stop-color="#002255"/>
<stop offset="0.5" stop-color="#0044AA"/>
<stop offset="1" stop-color="#002255"/>
</linearGradient>
<linearGradient id="paint3_linear_11930_68224" x1="15.7812" y1="12.6556" x2="23.3772" y2="12.6556" gradientUnits="userSpaceOnUse">
<stop stop-color="#002255"/>
<stop offset="0.5" stop-color="#0044AA"/>
<stop offset="1" stop-color="#002255"/>
</linearGradient>
<linearGradient id="paint4_linear_11930_68224" x1="15.7812" y1="12.6117" x2="23.3772" y2="12.6117" gradientUnits="userSpaceOnUse">
<stop stop-color="#002255"/>
<stop offset="0.5" stop-color="#0044AA"/>
<stop offset="1" stop-color="#002255"/>
</linearGradient>
<linearGradient id="paint5_linear_11930_68224" x1="15.7812" y1="12.5678" x2="23.3772" y2="12.5678" gradientUnits="userSpaceOnUse">
<stop stop-color="#002255"/>
<stop offset="0.5" stop-color="#0044AA"/>
<stop offset="1" stop-color="#002255"/>
</linearGradient>
<linearGradient id="paint6_linear_11930_68224" x1="15.7812" y1="12.5238" x2="23.3772" y2="12.5238" gradientUnits="userSpaceOnUse">
<stop stop-color="#002255"/>
<stop offset="0.5" stop-color="#0044AA"/>
<stop offset="1" stop-color="#002255"/>
</linearGradient>
<linearGradient id="paint7_linear_11930_68224" x1="15.7812" y1="12.4799" x2="23.3772" y2="12.4799" gradientUnits="userSpaceOnUse">
<stop stop-color="#002255"/>
<stop offset="0.5" stop-color="#0044AA"/>
<stop offset="1" stop-color="#002255"/>
</linearGradient>
<linearGradient id="paint8_linear_11930_68224" x1="15.7812" y1="12.4318" x2="23.3772" y2="12.4318" gradientUnits="userSpaceOnUse">
<stop stop-color="#002255"/>
<stop offset="0.5" stop-color="#0044AA"/>
<stop offset="1" stop-color="#002255"/>
</linearGradient>
<linearGradient id="paint9_linear_11930_68224" x1="15.7812" y1="12.3878" x2="23.3772" y2="12.3878" gradientUnits="userSpaceOnUse">
<stop stop-color="#002255"/>
<stop offset="0.5" stop-color="#0044AA"/>
<stop offset="1" stop-color="#002255"/>
</linearGradient>
<linearGradient id="paint10_linear_11930_68224" x1="15.7812" y1="12.3439" x2="23.3772" y2="12.3439" gradientUnits="userSpaceOnUse">
<stop stop-color="#002255"/>
<stop offset="0.5" stop-color="#0044AA"/>
<stop offset="1" stop-color="#002255"/>
</linearGradient>
<linearGradient id="paint11_linear_11930_68224" x1="15.7843" y1="12.6998" x2="23.3803" y2="12.6998" gradientUnits="userSpaceOnUse">
<stop stop-color="#002255"/>
<stop offset="0.5" stop-color="#0044AA"/>
<stop offset="1" stop-color="#002255"/>
</linearGradient>
<linearGradient id="paint12_linear_11930_68224" x1="15.7848" y1="12.6997" x2="23.3808" y2="12.6997" gradientUnits="userSpaceOnUse">
<stop stop-color="#002255"/>
<stop offset="0.5" stop-color="#0044AA"/>
<stop offset="1" stop-color="#002255"/>
</linearGradient>
<linearGradient id="paint13_linear_11930_68224" x1="17.3882" y1="12.4679" x2="17.3882" y2="12.7039" gradientUnits="userSpaceOnUse">
<stop stop-color="#F5F549"/>
<stop offset="1" stop-color="#97C924"/>
</linearGradient>
<linearGradient id="paint14_linear_11930_68224" x1="16.7808" y1="12.4679" x2="16.7808" y2="12.7039" gradientUnits="userSpaceOnUse">
<stop stop-color="#F5F549"/>
<stop offset="1" stop-color="#97C924"/>
</linearGradient>
<linearGradient id="paint15_linear_11930_68224" x1="17.3935" y1="12.4678" x2="17.3935" y2="12.7038" gradientUnits="userSpaceOnUse">
<stop stop-color="#F5F549"/>
<stop offset="1" stop-color="#97C924"/>
</linearGradient>
<linearGradient id="paint16_linear_11930_68224" x1="17.3881" y1="12.4679" x2="17.3881" y2="12.7039" gradientUnits="userSpaceOnUse">
<stop stop-color="#F5F549"/>
<stop offset="1" stop-color="#97C924"/>
</linearGradient>
<linearGradient id="paint17_linear_11930_68224" x1="16.7729" y1="12.4679" x2="16.7729" y2="12.7039" gradientUnits="userSpaceOnUse">
<stop stop-color="#F5F549"/>
<stop offset="1" stop-color="#97C924"/>
</linearGradient>
<linearGradient id="paint18_linear_11930_68224" x1="15.6333" y1="12.9248" x2="20.2866" y2="12.9248" gradientUnits="userSpaceOnUse">
<stop stop-color="#002255"/>
<stop offset="0.5" stop-color="#0044AA"/>
<stop offset="1" stop-color="#002255"/>
</linearGradient>
<linearGradient id="paint19_linear_11930_68224" x1="15.4845" y1="13.3896" x2="20.521" y2="13.3896" gradientUnits="userSpaceOnUse">
<stop stop-color="#002255"/>
<stop offset="0.5" stop-color="#0044AA"/>
<stop offset="1" stop-color="#002255"/>
</linearGradient>
<linearGradient id="paint20_linear_11930_68224" x1="15.4845" y1="13.3376" x2="20.521" y2="13.3376" gradientUnits="userSpaceOnUse">
<stop stop-color="#002255"/>
<stop offset="0.5" stop-color="#0044AA"/>
<stop offset="1" stop-color="#002255"/>
</linearGradient>
<linearGradient id="paint21_linear_11930_68224" x1="15.4845" y1="13.2855" x2="20.521" y2="13.2855" gradientUnits="userSpaceOnUse">
<stop stop-color="#002255"/>
<stop offset="0.5" stop-color="#0044AA"/>
<stop offset="1" stop-color="#002255"/>
</linearGradient>
<linearGradient id="paint22_linear_11930_68224" x1="15.4845" y1="13.2335" x2="20.521" y2="13.2335" gradientUnits="userSpaceOnUse">
<stop stop-color="#002255"/>
<stop offset="0.5" stop-color="#0044AA"/>
<stop offset="1" stop-color="#002255"/>
</linearGradient>
<linearGradient id="paint23_linear_11930_68224" x1="15.4845" y1="13.1815" x2="20.521" y2="13.1815" gradientUnits="userSpaceOnUse">
<stop stop-color="#002255"/>
<stop offset="0.5" stop-color="#0044AA"/>
<stop offset="1" stop-color="#002255"/>
</linearGradient>
<linearGradient id="paint24_linear_11930_68224" x1="15.4845" y1="13.1295" x2="20.521" y2="13.1295" gradientUnits="userSpaceOnUse">
<stop stop-color="#002255"/>
<stop offset="0.5" stop-color="#0044AA"/>
<stop offset="1" stop-color="#002255"/>
</linearGradient>
<linearGradient id="paint25_linear_11930_68224" x1="15.4845" y1="13.0814" x2="20.521" y2="13.0814" gradientUnits="userSpaceOnUse">
<stop stop-color="#002255"/>
<stop offset="0.5" stop-color="#0044AA"/>
<stop offset="1" stop-color="#002255"/>
</linearGradient>
<linearGradient id="paint26_linear_11930_68224" x1="15.4845" y1="13.0294" x2="20.521" y2="13.0294" gradientUnits="userSpaceOnUse">
<stop stop-color="#002255"/>
<stop offset="0.5" stop-color="#0044AA"/>
<stop offset="1" stop-color="#002255"/>
</linearGradient>
<linearGradient id="paint27_linear_11930_68224" x1="15.4845" y1="12.9774" x2="20.521" y2="12.9774" gradientUnits="userSpaceOnUse">
<stop stop-color="#002255"/>
<stop offset="0.5" stop-color="#0044AA"/>
<stop offset="1" stop-color="#002255"/>
</linearGradient>
<clipPath id="clip0_11930_68224">
<rect width="36" height="24" rx="2" fill="white"/>
</clipPath>
</defs>
</svg>
