<svg width="36" height="24" viewBox="0 0 36 24" fill="none" xmlns="http://www.w3.org/2000/svg">
<rect x="0.25" y="0.25" width="35.5" height="23.5" rx="1.75" fill="white"/>
<rect x="0.25" y="0.25" width="35.5" height="23.5" rx="1.75" stroke="#EFEFEF" stroke-width="0.5"/>
<mask id="mask0_11930_68239" style="mask-type:luminance" maskUnits="userSpaceOnUse" x="0" y="0" width="24" height="24">
<path d="M0 0H24V24H0V0Z" fill="white"/>
</mask>
<g mask="url(#mask0_11930_68239)">
<path fill-rule="evenodd" clip-rule="evenodd" d="M0.304688 23.6953H18.0609L6.44062 11.9109L18.5016 11.925L0.309375 0.304688V23.6953H0.304688Z" fill="#CE0000" stroke="#000063" stroke-width="0.646875"/>
<path fill-rule="evenodd" clip-rule="evenodd" d="M8.47031 17.4281L7.20469 17.85L8.19844 18.7781L6.8625 18.6937L7.41094 19.9219L6.21563 19.3453L6.23906 20.6859L5.35781 19.7062L4.85625 20.9531L4.425 19.7203L3.47344 20.6859L3.55781 19.3875L2.29688 19.9219L2.8875 18.75L1.51406 18.7781L2.52187 17.9203L1.24219 17.4281L2.50781 17.0062L1.50938 16.0781L2.84062 16.1625L2.29688 14.9344L3.49687 15.5109L3.47344 14.1703L4.35469 15.15L4.85625 13.9031L5.28281 15.1359L6.23906 14.1703L6.15 15.4688L7.41562 14.9344L6.82031 16.1063L8.19844 16.0781L7.19062 16.9359L8.47031 17.4281ZM6.95156 8.77031L6.42188 9.16406L6.68438 9.37969C7.30038 8.94939 7.79582 8.36841 8.12344 7.69219C8.20781 8.69063 7.29375 10.9266 4.90312 10.95C4.46618 10.9556 4.03245 10.8746 3.62698 10.7116C3.2215 10.5487 2.85231 10.3071 2.54071 10.0007C2.22911 9.69432 1.98128 9.32928 1.8115 8.92662C1.64173 8.52396 1.55338 8.09167 1.55156 7.65469C2.02031 8.50781 2.31094 8.92031 3.05156 9.36563L3.27188 9.15937L2.775 8.74219L3.41719 8.57344L3.07031 7.99219L3.74531 8.03906L3.66094 7.36406L4.25156 7.71094L4.43906 7.07812L4.86094 7.58438L5.25937 7.10156L5.475 7.75781L6.02813 7.37344L5.95781 8.04375L6.62344 7.96406L6.30938 8.58281L6.95156 8.77031Z" fill="white"/>
</g>
</svg>
