<svg width="36" height="24" viewBox="0 0 36 24" fill="none" xmlns="http://www.w3.org/2000/svg">
<rect width="36" height="24" rx="2" fill="#002170"/>
<path fill-rule="evenodd" clip-rule="evenodd" d="M0 11H36V13H0V11Z" fill="#FFB20D"/>
<path fill-rule="evenodd" clip-rule="evenodd" d="M10.151 20.5312L8.6041 18.9843L8.11191 21.1125L7.54941 19.0031L6.0541 20.5968L6.62129 18.4875L4.53535 19.1203L6.08223 17.5734L3.9541 17.0765L6.06348 16.514L4.46973 15.0234L6.5791 15.5859L5.9416 13.5L7.48848 15.0468L7.98535 12.9187L8.54785 15.0281L10.0385 13.4343L9.47598 15.5437L11.5619 14.9109L10.015 16.4578L12.1432 16.95L10.0338 17.5125L11.6275 19.0125L9.51816 18.4406L10.151 20.5312Z" fill="white"/>
</svg>
