<svg width="36" height="24" viewBox="0 0 36 24" fill="none" xmlns="http://www.w3.org/2000/svg">
<rect width="36" height="24" rx="2" fill="#FEDD00"/>
<path d="M0 0H16V12H0V0Z" fill="#012169"/>
<path d="M1.875 0L7.975 4.525L14.05 0H16V1.55L10 6.025L16 10.475V12H14L8 7.525L2.025 12H0V10.5L5.975 6.05L0 1.6V0H1.875Z" fill="white"/>
<path d="M10.6 7.025L16 11V12L9.225 7.025H10.6ZM6 7.525L6.15 8.4L1.35 12H0L6 7.525ZM16 0V0.075L9.775 4.775L9.825 3.675L14.75 0H16ZM0 0L5.975 4.4H4.475L0 1.05V0Z" fill="#C8102E"/>
<path d="M6.025 0V12H10.025V0H6.025ZM0 4V8H16V4H0Z" fill="white"/>
<path d="M0 4.825V7.225H16V4.825H0ZM6.825 0V12H9.225V0H6.825Z" fill="#C8102E"/>
<path d="M7.99972 8.03996C9.12638 8.03996 10.0397 7.12662 10.0397 5.99996C10.0397 4.8733 9.12638 3.95996 7.99972 3.95996C6.87306 3.95996 5.95972 4.8733 5.95972 5.99996C5.95972 7.12662 6.87306 8.03996 7.99972 8.03996Z" fill="#012169"/>
<path d="M7.99958 3.95992L9.19958 7.64992L6.05958 5.36992H9.93958L6.79958 7.64992M3.33458 4.91492L4.03458 7.08492L2.19458 5.74992H4.47958L2.62958 7.08992M12.6646 4.91492L13.3696 7.08492L11.5246 5.74492H13.8096L11.9596 7.08492M7.99958 8.91492L8.70458 11.0849L6.85458 9.74492H9.13958L7.28958 11.0849M7.99958 0.914917L8.70458 3.08492L6.85458 1.74492H9.13958L7.28958 3.08492" fill="#FEDD00"/>
</svg>
