<svg width="36" height="24" viewBox="0 0 36 24" fill="none" xmlns="http://www.w3.org/2000/svg">
<rect width="36" height="24" rx="2" fill="#00247D"/>
<path d="M25.5254 5.35925V6.11772L27.0423 5.35925H25.5254Z" fill="white"/>
<path d="M25.8288 6.26941L25.5254 5.66264L27.0423 5.35925L25.8288 6.26941Z" fill="white"/>
<path d="M25.5254 5.35925V6.11772L24.0085 5.35925H25.5254Z" fill="white"/>
<path d="M25.222 6.26941L25.5254 5.66264L24.0085 5.35925L25.222 6.26941Z" fill="white"/>
<path d="M25.9609 5.67371L25.2396 5.90808L26.4297 7.11639L25.9609 5.67371Z" fill="white"/>
<path d="M25.1891 6.2435L25.6724 5.76746L26.4297 7.11639L25.1891 6.2435Z" fill="white"/>
<path d="M25.0977 5.67371L25.819 5.90808L25.5664 4.23102L25.0977 5.67371Z" fill="white"/>
<path d="M26.057 5.66642L25.3862 5.76746L25.5664 4.23102L26.057 5.66642Z" fill="white"/>
<path d="M25.0977 5.67371L25.819 5.90808L24.6289 7.11639L25.0977 5.67371Z" fill="white"/>
<path d="M25.8695 6.2435L25.3862 5.76746L24.6289 7.11639L25.8695 6.2435Z" fill="white"/>
<path d="M25.5247 5.51392V6.0151L26.527 5.51392H25.5247Z" fill="#CC142B"/>
<path d="M25.7251 6.11534L25.5247 5.71439L26.527 5.51392L25.7251 6.11534Z" fill="#CC142B"/>
<path d="M25.5247 5.51392V6.0151L24.5223 5.51392H25.5247Z" fill="#CC142B"/>
<path d="M25.3242 6.11534L25.5247 5.71439L24.5223 5.51392L25.3242 6.11534Z" fill="#CC142B"/>
<path d="M25.8157 5.72168L25.339 5.87656L26.1254 6.67499L25.8157 5.72168Z" fill="#CC142B"/>
<path d="M25.3056 6.09819L25.625 5.78363L26.1254 6.67499L25.3056 6.09819Z" fill="#CC142B"/>
<path d="M25.2415 5.72168L25.7181 5.87656L25.5512 4.76836L25.2415 5.72168Z" fill="#CC142B"/>
<path d="M25.8754 5.71687L25.4321 5.78363L25.5512 4.76836L25.8754 5.71687Z" fill="#CC142B"/>
<path d="M25.2415 5.72168L25.7181 5.87656L24.9317 6.67499L25.2415 5.72168Z" fill="#CC142B"/>
<path d="M25.7515 6.09819L25.4321 5.78363L24.9317 6.67499L25.7515 6.09819Z" fill="#CC142B"/>
<path d="M29.4854 8.85986L29.4854 9.5348L30.8352 8.85986L29.4854 8.85986Z" fill="white"/>
<path d="M29.7553 9.66978L29.4854 9.12984L30.8352 8.85986L29.7553 9.66978Z" fill="white"/>
<path d="M29.4854 8.85986L29.4855 9.5348L28.1355 8.86003L29.4854 8.85986Z" fill="white"/>
<path d="M29.2154 9.66978L29.4854 9.12984L28.1355 8.85986L29.2154 9.66978Z" fill="white"/>
<path d="M29.8721 9.13965L29.2302 9.34821L30.2892 10.4234L29.8721 9.13965Z" fill="white"/>
<path d="M29.1852 9.64669L29.6153 9.22307L30.2892 10.4234L29.1852 9.64669Z" fill="white"/>
<path d="M29.1045 9.13965L29.7464 9.34821L29.5216 7.85585L29.1045 9.13965Z" fill="white"/>
<path d="M29.9582 9.13317L29.3613 9.22307L29.5216 7.85585L29.9582 9.13317Z" fill="white"/>
<path d="M29.1045 9.13965L29.7464 9.34821L28.6874 10.4234L29.1045 9.13965Z" fill="white"/>
<path d="M29.7913 9.64669L29.3613 9.22307L28.6874 10.4234L29.7913 9.64669Z" fill="white"/>
<path d="M29.4902 9.0144L29.4902 9.43206L30.3255 9.0144L29.4902 9.0144Z" fill="#CC142B"/>
<path d="M29.6573 9.51559L29.4902 9.18147L30.3255 9.0144L29.6573 9.51559Z" fill="#CC142B"/>
<path d="M29.4902 9.0144L29.4903 9.43206L28.6549 9.01451L29.4902 9.0144Z" fill="#CC142B"/>
<path d="M29.3232 9.51559L29.4902 9.18147L28.6549 9.0144L29.3232 9.51559Z" fill="#CC142B"/>
<path d="M29.7266 9.1875L29.3293 9.31656L29.9847 9.98193L29.7266 9.1875Z" fill="#CC142B"/>
<path d="M29.3015 9.50126L29.5677 9.23913L29.9847 9.98193L29.3015 9.50126Z" fill="#CC142B"/>
<path d="M29.248 9.1875L29.6453 9.31656L29.5062 8.39307L29.248 9.1875Z" fill="#CC142B"/>
<path d="M29.7763 9.18349L29.4069 9.23913L29.5062 8.39307L29.7763 9.18349Z" fill="#CC142B"/>
<path d="M29.248 9.1875L29.6453 9.31656L28.9899 9.98193L29.248 9.1875Z" fill="#CC142B"/>
<path d="M29.6731 9.50126L29.4069 9.23913L28.9899 9.98193L29.6731 9.50126Z" fill="#CC142B"/>
<path d="M20.8906 10.0206L20.8906 10.7791L22.4076 10.0206L20.8906 10.0206Z" fill="white"/>
<path d="M21.194 10.9308L20.8906 10.324L22.4076 10.0206L21.194 10.9308Z" fill="white"/>
<path d="M20.8906 10.0206L20.8907 10.7791L19.3737 10.0208L20.8906 10.0206Z" fill="white"/>
<path d="M20.5872 10.9308L20.8906 10.324L19.3737 10.0206L20.5872 10.9308Z" fill="white"/>
<path d="M21.3203 10.3351L20.599 10.5695L21.7891 11.7778L21.3203 10.3351Z" fill="white"/>
<path d="M20.5485 10.9049L21.0318 10.4288L21.7891 11.7778L20.5485 10.9049Z" fill="white"/>
<path d="M20.4553 10.3351L21.1767 10.5695L20.9241 8.8924L20.4553 10.3351Z" fill="white"/>
<path d="M21.4147 10.3278L20.7439 10.4288L20.9241 8.8924L21.4147 10.3278Z" fill="white"/>
<path d="M20.4553 10.3351L21.1767 10.5695L19.9866 11.7778L20.4553 10.3351Z" fill="white"/>
<path d="M21.2272 10.9049L20.7439 10.4288L19.9866 11.7778L21.2272 10.9049Z" fill="white"/>
<path d="M20.887 10.175L20.887 10.6762L21.8893 10.175L20.887 10.175Z" fill="#CC142B"/>
<path d="M21.0874 10.7765L20.887 10.3755L21.8893 10.175L21.0874 10.7765Z" fill="#CC142B"/>
<path d="M20.887 10.175L20.887 10.6762L19.8846 10.1752L20.887 10.175Z" fill="#CC142B"/>
<path d="M20.6865 10.7765L20.887 10.3755L19.8846 10.175L20.6865 10.7765Z" fill="#CC142B"/>
<path d="M21.1702 10.3828L20.6935 10.5377L21.4799 11.3361L21.1702 10.3828Z" fill="#CC142B"/>
<path d="M20.6601 10.7593L20.9795 10.4448L21.4799 11.3361L20.6601 10.7593Z" fill="#CC142B"/>
<path d="M20.5979 10.3828L21.0746 10.5377L20.9077 9.4295L20.5979 10.3828Z" fill="#CC142B"/>
<path d="M21.2318 10.378L20.7886 10.4448L20.9077 9.4295L21.2318 10.378Z" fill="#CC142B"/>
<path d="M20.5979 10.3828L21.0746 10.5377L20.2881 11.3361L20.5979 10.3828Z" fill="#CC142B"/>
<path d="M21.1079 10.7593L20.7886 10.4448L20.2881 11.3361L21.1079 10.7593Z" fill="#CC142B"/>
<path d="M25.5195 17.3376V18.1796L27.2035 17.3376H25.5195Z" fill="white"/>
<path d="M25.8563 18.348L25.5195 17.6744L27.2035 17.3376L25.8563 18.348Z" fill="white"/>
<path d="M25.5195 17.3376V18.1796L23.8355 17.3376H25.5195Z" fill="white"/>
<path d="M25.1827 18.348L25.5195 17.6744L23.8355 17.3376L25.1827 18.348Z" fill="white"/>
<path d="M26.0039 17.6868L25.2031 17.947L26.5243 19.2883L26.0039 17.6868Z" fill="white"/>
<path d="M25.147 18.3193L25.6836 17.7908L26.5243 19.2883L25.147 18.3193Z" fill="white"/>
<path d="M25.043 17.6868L25.8438 17.947L25.5634 16.0852L25.043 17.6868Z" fill="white"/>
<path d="M26.108 17.6787L25.3633 17.7908L25.5634 16.0852L26.108 17.6787Z" fill="white"/>
<path d="M25.043 17.6868L25.8438 17.947L24.5226 19.2883L25.043 17.6868Z" fill="white"/>
<path d="M25.8998 18.3193L25.3633 17.7908L24.5226 19.2883L25.8998 18.3193Z" fill="white"/>
<path d="M25.5205 17.4922V18.0769L26.6899 17.4922H25.5205Z" fill="#CC142B"/>
<path d="M25.7544 18.1938L25.5205 17.7261L26.6899 17.4922L25.7544 18.1938Z" fill="#CC142B"/>
<path d="M25.5205 17.4922V18.0769L24.3511 17.4922H25.5205Z" fill="#CC142B"/>
<path d="M25.2866 18.1938L25.5205 17.7261L24.3511 17.4922L25.2866 18.1938Z" fill="#CC142B"/>
<path d="M25.8584 17.7346L25.3023 17.9153L26.2198 18.8468L25.8584 17.7346Z" fill="#CC142B"/>
<path d="M25.2634 18.1739L25.636 17.8069L26.2198 18.8468L25.2634 18.1739Z" fill="#CC142B"/>
<path d="M25.1885 17.7345L25.7446 17.9152L25.5499 16.6223L25.1885 17.7345Z" fill="#CC142B"/>
<path d="M25.9281 17.7289L25.4109 17.8068L25.5499 16.6223L25.9281 17.7289Z" fill="#CC142B"/>
<path d="M25.1885 17.7345L25.7446 17.9152L24.8271 18.8467L25.1885 17.7345Z" fill="#CC142B"/>
<path d="M25.7835 18.1738L25.4109 17.8068L24.8271 18.8467L25.7835 18.1738Z" fill="#CC142B"/>
<path d="M0 0H16V12H0V0Z" fill="#012169"/>
<path d="M1.875 0L7.975 4.525L14.05 0H16V1.55L10 6.025L16 10.475V12H14L8 7.525L2.025 12H0V10.5L5.975 6.05L0 1.6V0H1.875Z" fill="white"/>
<path d="M10.6 7.025L16 11V12L9.225 7.025H10.6ZM6 7.525L6.15 8.4L1.35 12H0L6 7.525ZM16 0V0.075L9.775 4.775L9.825 3.675L14.75 0H16ZM0 0L5.975 4.4H4.475L0 1.05V0Z" fill="#C8102E"/>
<path d="M6.025 0V12H10.025V0H6.025ZM0 4V8H16V4H0Z" fill="white"/>
<path d="M0 4.825V7.225H16V4.825H0ZM6.825 0V12H9.225V0H6.825Z" fill="#C8102E"/>
</svg>
