<svg width="36" height="24" viewBox="0 0 36 24" fill="none" xmlns="http://www.w3.org/2000/svg">
<g clip-path="url(#clip0_11930_68257)">
<rect width="36" height="24" rx="2" fill="#EF2D29"/>
<path fill-rule="evenodd" clip-rule="evenodd" d="M9 16H36V24H9V16Z" fill="#009025"/>
<path fill-rule="evenodd" clip-rule="evenodd" d="M9.00478 0H36V8H9L9.00478 0Z" fill="white"/>
<path d="M6.99471 3.47949H5.84749C5.78556 3.47949 5.73535 3.52636 5.73535 3.58418V4.12892C5.73535 4.18674 5.78556 4.23361 5.84749 4.23361H6.99471C7.05664 4.23361 7.10685 4.18674 7.10685 4.12892V3.58418C7.10685 3.52636 7.05664 3.47949 6.99471 3.47949Z" fill="white" stroke="#EF2D28" stroke-width="0.0131366"/>
<path d="M6.96536 3.51147H5.87669C5.81805 3.51147 5.77051 3.55477 5.77051 3.60818V4.10679C5.77051 4.16019 5.81805 4.20349 5.87669 4.20349H6.96536C7.024 4.20349 7.07154 4.16019 7.07154 4.10679V3.60818C7.07154 3.55477 7.024 3.51147 6.96536 3.51147Z" fill="white" stroke="#EF2D28" stroke-width="0.0121982"/>
<path fill-rule="evenodd" clip-rule="evenodd" d="M6.3763 3.69897L6.44186 3.70157L6.44456 3.73168L6.49863 3.7592L6.54054 3.72441L6.59123 3.75193L6.54392 3.78204L6.55541 3.82358L6.61489 3.82098V3.8755L6.56758 3.87342L6.54324 3.90769L6.59732 3.94663L6.55541 3.97882L6.51013 3.94455L6.44456 3.95805L6.44794 4.00841L6.3763 4.0136L6.36683 3.9648L6.30735 3.93988L6.27423 3.97415L6.22354 3.9487L6.25328 3.90977L6.21746 3.88484H6.16677L6.16406 3.81372L6.21476 3.81839L6.25058 3.77685L6.20867 3.74466L6.26274 3.70832L6.30127 3.73791L6.36683 3.72857L6.3763 3.69897Z" fill="white" stroke="#EF2D28" stroke-width="0.00770103"/>
<path d="M6.39477 3.91047C6.43481 3.91047 6.46727 3.88285 6.46727 3.84879C6.46727 3.81472 6.43481 3.78711 6.39477 3.78711C6.35473 3.78711 6.32227 3.81472 6.32227 3.84879C6.32227 3.88285 6.35473 3.91047 6.39477 3.91047Z" fill="white" stroke="#EF2D28" stroke-width="0.00829308"/>
<path fill-rule="evenodd" clip-rule="evenodd" d="M5.94702 3.54248L5.84084 3.63652L5.94702 3.54248ZM6.01748 3.54248L5.9113 3.63652L6.01748 3.54248ZM6.08695 3.54248L5.98176 3.63652L6.08695 3.54248ZM6.15741 3.54248L6.05222 3.63652L6.15741 3.54248ZM6.22787 3.54248L6.12268 3.63652L6.22787 3.54248ZM6.29833 3.54248L6.19314 3.63652L6.29833 3.54248ZM6.36879 3.54248L6.2636 3.63652L6.36879 3.54248ZM6.43925 3.54248L6.33406 3.63652L6.43925 3.54248ZM6.50971 3.54248L6.40353 3.63652L6.50971 3.54248ZM6.58017 3.54248L6.47299 3.63652L6.58017 3.54248ZM6.64865 3.54248L6.54346 3.63652L6.64865 3.54248ZM6.71911 3.54248L6.61392 3.63652L6.71911 3.54248ZM6.43826 3.54248L6.33406 3.63652L6.43826 3.54248ZM6.79056 3.54248L6.68537 3.63652L6.79056 3.54248ZM6.86102 3.54248L6.75583 3.63652L6.86102 3.54248ZM6.93148 3.54248L6.82629 3.63652L6.93148 3.54248ZM7.00194 3.54248L6.89675 3.63652L7.00194 3.54248ZM6.89675 3.54248L7.00194 3.63652L6.89675 3.54248ZM6.82629 3.54248L6.93148 3.63652L6.82629 3.54248ZM6.75583 3.54248L6.86102 3.63652L6.75583 3.54248ZM6.68537 3.54248L6.79056 3.63652L6.68537 3.54248ZM6.61491 3.54248L6.7201 3.63652L6.61491 3.54248ZM6.54445 3.54248L6.64964 3.63652L6.54445 3.54248ZM6.47399 3.54248L6.58017 3.63652L6.47399 3.54248ZM6.40353 3.54248L6.50872 3.63652L6.40353 3.54248ZM6.33207 3.54248L6.43826 3.63652L6.33207 3.54248ZM6.26261 3.54248L6.3678 3.63652L6.26261 3.54248ZM6.19215 3.54248L6.29734 3.63652L6.19215 3.54248ZM6.12169 3.54248L6.22688 3.63652L6.12169 3.54248ZM6.40353 3.54248L6.50872 3.63652L6.40353 3.54248ZM6.05222 3.54248L6.15642 3.63652L6.05222 3.54248ZM5.98076 3.54248L6.08695 3.63652L5.98076 3.54248ZM5.9103 3.54248L6.01649 3.63652L5.9103 3.54248ZM5.83984 3.54248L5.94702 3.63652L5.83984 3.54248ZM5.94702 4.07657L5.84183 4.17151L5.94702 4.07657ZM6.01649 4.07657L5.9103 4.17151L6.01649 4.07657ZM6.08794 4.07657L5.98176 4.17151L6.08794 4.07657ZM6.15741 4.07657L6.05222 4.17151L6.15741 4.07657ZM6.22787 4.07657L6.12268 4.17151L6.22787 4.07657ZM6.29833 4.07657L6.19314 4.17151L6.29833 4.07657ZM6.36879 4.07657L6.26459 4.17151L6.36879 4.07657ZM6.43925 4.07657L6.33406 4.17151L6.43925 4.07657ZM6.50971 4.07657L6.40353 4.17151L6.50971 4.07657ZM6.57918 4.07657L6.47299 4.17151L6.57918 4.07657ZM6.65163 4.07657L6.54544 4.17151L6.65163 4.07657ZM6.7211 4.07657L6.6159 4.17151L6.7211 4.07657ZM6.43925 4.07657L6.33406 4.17151L6.43925 4.07657ZM6.79056 4.07657L6.68537 4.17151L6.79056 4.07657ZM6.86102 4.07657L6.75583 4.17151L6.86102 4.07657ZM6.93148 4.07657L6.82629 4.17151L6.93148 4.07657ZM7.00194 4.07657L6.89675 4.17151L7.00194 4.07657ZM6.89675 4.07657L7.00194 4.17151L6.89675 4.07657ZM6.82629 4.07657L6.93148 4.17151L6.82629 4.07657ZM6.75583 4.07657L6.86102 4.17151L6.75583 4.07657ZM6.68537 4.07657L6.79056 4.17151L6.68537 4.07657ZM6.61491 4.07657L6.7201 4.17151L6.61491 4.07657ZM6.54445 4.07657L6.65063 4.17151L6.54445 4.07657ZM6.47299 4.07657L6.57918 4.17151L6.47299 4.07657ZM6.40353 4.07657L6.50872 4.17151L6.40353 4.07657ZM6.33406 4.07657L6.43925 4.17151L6.33406 4.07657ZM6.2636 4.07657L6.36879 4.17151L6.2636 4.07657ZM6.19314 4.07657L6.29833 4.17151L6.19314 4.07657ZM6.12268 4.07657L6.22787 4.17151L6.12268 4.07657ZM6.40452 4.07657L6.50971 4.17151L6.40452 4.07657ZM6.05321 4.07657L6.15741 4.17151L6.05321 4.07657ZM5.98176 4.07657L6.08794 4.17151L5.98176 4.07657ZM5.9113 4.07657L6.01748 4.17151L5.9113 4.07657ZM5.84183 4.07657L5.94702 4.17151L5.84183 4.07657Z" fill="white"/>
<path d="M5.94702 3.54248L5.84084 3.63652M6.01748 3.54248L5.9113 3.63652M6.08695 3.54248L5.98176 3.63652M6.15741 3.54248L6.05222 3.63652M6.22787 3.54248L6.12268 3.63652M6.29833 3.54248L6.19314 3.63652M6.36879 3.54248L6.2636 3.63652M6.43925 3.54248L6.33406 3.63652L6.43826 3.54248M6.50971 3.54248L6.40353 3.63652M6.58017 3.54248L6.473 3.63652M6.64865 3.54248L6.54346 3.63652M6.71911 3.54248L6.61392 3.63652M6.79056 3.54248L6.68537 3.63652M6.86102 3.54248L6.75583 3.63652M6.93148 3.54248L6.82629 3.63652M7.00194 3.54248L6.89675 3.63652M6.89675 3.54248L7.00194 3.63652M6.82629 3.54248L6.93148 3.63652M6.75583 3.54248L6.86102 3.63652M6.68537 3.54248L6.79056 3.63652M6.61491 3.54248L6.7201 3.63652M6.54445 3.54248L6.64964 3.63652M6.47399 3.54248L6.58017 3.63652M6.40353 3.54248L6.50872 3.63652M6.33207 3.54248L6.43826 3.63652M6.26261 3.54248L6.3678 3.63652M6.19215 3.54248L6.29734 3.63652M6.12169 3.54248L6.22688 3.63652M6.05222 3.54248L6.15642 3.63652M5.98076 3.54248L6.08695 3.63652M5.9103 3.54248L6.01649 3.63652M5.83984 3.54248L5.94702 3.63652M5.94702 4.07658L5.84183 4.17151M6.01649 4.07658L5.9103 4.17151M6.08794 4.07658L5.98176 4.17151M6.15741 4.07658L6.05222 4.17151M6.22787 4.07658L6.12268 4.17151M6.29833 4.07658L6.19314 4.17151M6.36879 4.07658L6.26459 4.17151M6.43925 4.07658L6.33406 4.17151M6.50971 4.07658L6.40353 4.17151M6.57918 4.07658L6.473 4.17151M6.65163 4.07658L6.54544 4.17151M6.7211 4.07658L6.6159 4.17151M6.79056 4.07658L6.68537 4.17151M6.86102 4.07658L6.75583 4.17151M6.93148 4.07658L6.82629 4.17151M7.00194 4.07658L6.89675 4.17151M6.89675 4.07658L7.00194 4.17151M6.82629 4.07658L6.93148 4.17151M6.75583 4.07658L6.86102 4.17151M6.68537 4.07658L6.79056 4.17151M6.61491 4.07658L6.7201 4.17151M6.54445 4.07658L6.65063 4.17151M6.473 4.07658L6.57918 4.17151M6.40353 4.07658L6.50872 4.17151M6.33406 4.07658L6.43925 4.17151M6.2636 4.07658L6.36879 4.17151M6.19314 4.07658L6.29833 4.17151M6.12268 4.07658L6.22787 4.17151M6.40452 4.07658L6.50971 4.17151M6.05321 4.07658L6.15741 4.17151M5.98176 4.07658L6.08794 4.17151M5.9113 4.07658L6.01748 4.17151M5.84183 4.07658L5.94702 4.17151" stroke="#EF2D28" stroke-width="0.0121982"/>
<path d="M2.38338 3.44946H1.23616C1.17423 3.44946 1.12402 3.49633 1.12402 3.55415V4.09889C1.12402 4.15671 1.17423 4.20358 1.23616 4.20358H2.38338C2.44531 4.20358 2.49552 4.15671 2.49552 4.09889V3.55415C2.49552 3.49633 2.44531 3.44946 2.38338 3.44946Z" fill="white" stroke="#EF2D28" stroke-width="0.0131366"/>
<path d="M2.35403 3.48145H1.26537C1.20672 3.48145 1.15918 3.52474 1.15918 3.57815V4.07676C1.15918 4.13017 1.20672 4.17346 1.26537 4.17346H2.35403C2.41267 4.17346 2.46022 4.13017 2.46022 4.07676V3.57815C2.46022 3.52474 2.41267 3.48145 2.35403 3.48145Z" fill="white" stroke="#EF2D28" stroke-width="0.0121982"/>
<path fill-rule="evenodd" clip-rule="evenodd" d="M1.76497 3.66895L1.83053 3.67154L1.83323 3.70165L1.88731 3.72917L1.92921 3.69439L1.97991 3.7219L1.93259 3.75202L1.94408 3.79355L2.00356 3.79095V3.84547L1.95625 3.84339L1.93192 3.87766L1.98599 3.9166L1.94408 3.94879L1.8988 3.91452L1.83323 3.92802L1.83661 3.97838L1.76497 3.98357L1.75551 3.93477L1.69603 3.90985L1.66291 3.94412L1.61221 3.91868L1.64195 3.87974L1.60613 3.85482H1.55544L1.55273 3.78369L1.60343 3.78836L1.63925 3.74682L1.59734 3.71463L1.65142 3.67829L1.68994 3.70788L1.75551 3.69854L1.76497 3.66895Z" fill="white" stroke="#EF2D28" stroke-width="0.00770103"/>
<path d="M1.78344 3.88044C1.82348 3.88044 1.85595 3.85282 1.85595 3.81876C1.85595 3.78469 1.82348 3.75708 1.78344 3.75708C1.7434 3.75708 1.71094 3.78469 1.71094 3.81876C1.71094 3.85282 1.7434 3.88044 1.78344 3.88044Z" fill="white" stroke="#EF2D28" stroke-width="0.00829308"/>
<path fill-rule="evenodd" clip-rule="evenodd" d="M1.33569 3.51245L1.22951 3.60649L1.33569 3.51245ZM1.40616 3.51245L1.29997 3.60649L1.40616 3.51245ZM1.47562 3.51245L1.37043 3.60649L1.47562 3.51245ZM1.54608 3.51245L1.44089 3.60649L1.54608 3.51245ZM1.61654 3.51245L1.51135 3.60649L1.61654 3.51245ZM1.687 3.51245L1.58181 3.60649L1.687 3.51245ZM1.75746 3.51245L1.65227 3.60649L1.75746 3.51245ZM1.82793 3.51245L1.72273 3.60649L1.82793 3.51245ZM1.89839 3.51245L1.7922 3.60649L1.89839 3.51245ZM1.96885 3.51245L1.86167 3.60649L1.96885 3.51245ZM2.03732 3.51245L1.93213 3.60649L2.03732 3.51245ZM2.10778 3.51245L2.00259 3.60649L2.10778 3.51245ZM1.82693 3.51245L1.72273 3.60649L1.82693 3.51245ZM2.17923 3.51245L2.07404 3.60649L2.17923 3.51245ZM2.2497 3.51245L2.1445 3.60649L2.2497 3.51245ZM2.32016 3.51245L2.21496 3.60649L2.32016 3.51245ZM2.39062 3.51245L2.28542 3.60649L2.39062 3.51245ZM2.28542 3.51245L2.39062 3.60649L2.28542 3.51245ZM2.21496 3.51245L2.32016 3.60649L2.21496 3.51245ZM2.1445 3.51245L2.2497 3.60649L2.1445 3.51245ZM2.07404 3.51245L2.17923 3.60649L2.07404 3.51245ZM2.00358 3.51245L2.10877 3.60649L2.00358 3.51245ZM1.93312 3.51245L2.03831 3.60649L1.93312 3.51245ZM1.86266 3.51245L1.96885 3.60649L1.86266 3.51245ZM1.7922 3.51245L1.89739 3.60649L1.7922 3.51245ZM1.72075 3.51245L1.82693 3.60649L1.72075 3.51245ZM1.65128 3.51245L1.75647 3.60649L1.65128 3.51245ZM1.58082 3.51245L1.68601 3.60649L1.58082 3.51245ZM1.51036 3.51245L1.61555 3.60649L1.51036 3.51245ZM1.7922 3.51245L1.89739 3.60649L1.7922 3.51245ZM1.44089 3.51245L1.54509 3.60649L1.44089 3.51245ZM1.36944 3.51245L1.47562 3.60649L1.36944 3.51245ZM1.29898 3.51245L1.40516 3.60649L1.29898 3.51245ZM1.22852 3.51245L1.33569 3.60649L1.22852 3.51245ZM1.33569 4.04655L1.2305 4.14148L1.33569 4.04655ZM1.40516 4.04655L1.29898 4.14148L1.40516 4.04655ZM1.47662 4.04655L1.37043 4.14148L1.47662 4.04655ZM1.54608 4.04655L1.44089 4.14148L1.54608 4.04655ZM1.61654 4.04655L1.51135 4.14148L1.61654 4.04655ZM1.687 4.04655L1.58181 4.14148L1.687 4.04655ZM1.75746 4.04655L1.65326 4.14148L1.75746 4.04655ZM1.82793 4.04655L1.72273 4.14148L1.82793 4.04655ZM1.89839 4.04655L1.7922 4.14148L1.89839 4.04655ZM1.96785 4.04655L1.86167 4.14148L1.96785 4.04655ZM2.0403 4.04655L1.93411 4.14148L2.0403 4.04655ZM2.10977 4.04655L2.00457 4.14148L2.10977 4.04655ZM1.82793 4.04655L1.72273 4.14148L1.82793 4.04655ZM2.17923 4.04655L2.07404 4.14148L2.17923 4.04655ZM2.2497 4.04655L2.1445 4.14148L2.2497 4.04655ZM2.32016 4.04655L2.21496 4.14148L2.32016 4.04655ZM2.39062 4.04655L2.28542 4.14148L2.39062 4.04655ZM2.28542 4.04655L2.39062 4.14148L2.28542 4.04655ZM2.21496 4.04655L2.32016 4.14148L2.21496 4.04655ZM2.1445 4.04655L2.2497 4.14148L2.1445 4.04655ZM2.07404 4.04655L2.17923 4.14148L2.07404 4.04655ZM2.00358 4.04655L2.10877 4.14148L2.00358 4.04655ZM1.93312 4.04655L2.03931 4.14148L1.93312 4.04655ZM1.86167 4.04655L1.96785 4.14148L1.86167 4.04655ZM1.7922 4.04655L1.89739 4.14148L1.7922 4.04655ZM1.72273 4.04655L1.82793 4.14148L1.72273 4.04655ZM1.65227 4.04655L1.75746 4.14148L1.65227 4.04655ZM1.58181 4.04655L1.687 4.14148L1.58181 4.04655ZM1.51135 4.04655L1.61654 4.14148L1.51135 4.04655ZM1.79319 4.04655L1.89839 4.14148L1.79319 4.04655ZM1.44188 4.04655L1.54608 4.14148L1.44188 4.04655ZM1.37043 4.04655L1.47662 4.14148L1.37043 4.04655ZM1.29997 4.04655L1.40616 4.14148L1.29997 4.04655ZM1.2305 4.04655L1.33569 4.14148L1.2305 4.04655Z" fill="white"/>
<path d="M1.33569 3.51245L1.22951 3.60649M1.40616 3.51245L1.29997 3.60649M1.47562 3.51245L1.37043 3.60649M1.54608 3.51245L1.44089 3.60649M1.61654 3.51245L1.51135 3.60649M1.687 3.51245L1.58181 3.60649M1.75746 3.51245L1.65227 3.60649M1.82793 3.51245L1.72273 3.60649L1.82693 3.51245M1.89839 3.51245L1.7922 3.60649M1.96885 3.51245L1.86167 3.60649M2.03732 3.51245L1.93213 3.60649M2.10778 3.51245L2.00259 3.60649M2.17923 3.51245L2.07404 3.60649M2.2497 3.51245L2.1445 3.60649M2.32016 3.51245L2.21496 3.60649M2.39062 3.51245L2.28542 3.60649M2.28542 3.51245L2.39062 3.60649M2.21496 3.51245L2.32016 3.60649M2.1445 3.51245L2.2497 3.60649M2.07404 3.51245L2.17923 3.60649M2.00358 3.51245L2.10877 3.60649M1.93312 3.51245L2.03831 3.60649M1.86266 3.51245L1.96885 3.60649M1.7922 3.51245L1.89739 3.60649M1.72075 3.51245L1.82693 3.60649M1.65128 3.51245L1.75647 3.60649M1.58082 3.51245L1.68601 3.60649M1.51036 3.51245L1.61555 3.60649M1.44089 3.51245L1.54509 3.60649M1.36944 3.51245L1.47562 3.60649M1.29898 3.51245L1.40516 3.60649M1.22852 3.51245L1.33569 3.60649M1.33569 4.04655L1.2305 4.14148M1.40516 4.04655L1.29898 4.14148M1.47662 4.04655L1.37043 4.14148M1.54608 4.04655L1.44089 4.14148M1.61654 4.04655L1.51135 4.14148M1.687 4.04655L1.58181 4.14148M1.75746 4.04655L1.65326 4.14148M1.82793 4.04655L1.72273 4.14148M1.89839 4.04655L1.7922 4.14148M1.96785 4.04655L1.86167 4.14148M2.0403 4.04655L1.93411 4.14148M2.10977 4.04655L2.00457 4.14148M2.17923 4.04655L2.07404 4.14148M2.2497 4.04655L2.1445 4.14148M2.32016 4.04655L2.21496 4.14148M2.39062 4.04655L2.28542 4.14148M2.28542 4.04655L2.39062 4.14148M2.21496 4.04655L2.32016 4.14148M2.1445 4.04655L2.2497 4.14148M2.07404 4.04655L2.17923 4.14148M2.00358 4.04655L2.10877 4.14148M1.93312 4.04655L2.03931 4.14148M1.86167 4.04655L1.96785 4.14148M1.7922 4.04655L1.89739 4.14148M1.72273 4.04655L1.82793 4.14148M1.65227 4.04655L1.75746 4.14148M1.58181 4.04655L1.687 4.14148M1.51135 4.04655L1.61654 4.14148M1.79319 4.04655L1.89839 4.14148M1.44188 4.04655L1.54608 4.14148M1.37043 4.04655L1.47662 4.14148M1.29997 4.04655L1.40616 4.14148M1.2305 4.04655L1.33569 4.14148" stroke="#EF2D28" stroke-width="0.0121982"/>
<path fill-rule="evenodd" clip-rule="evenodd" d="M3.27896 5.02795C1.57248 6.70158 0.844511 6.91299 1.18676 7.04808C1.52901 7.18316 2.6276 6.31921 3.77056 5.17268C4.91352 4.02615 5.61363 3.00491 5.27138 2.86983C4.92913 2.73475 5.09448 3.24943 3.27896 5.02795Z" fill="white" stroke="#EF2D28" stroke-width="0.020415"/>
<path fill-rule="evenodd" clip-rule="evenodd" d="M1.84494 6.24585L2.44336 6.40288C1.88067 6.93787 1.24752 7.157 1.07186 7.06296C0.896208 6.96892 1.38844 6.74889 1.84593 6.24674L1.84494 6.24585Z" fill="white" stroke="#EF2D28" stroke-width="0.0112599"/>
<path fill-rule="evenodd" clip-rule="evenodd" d="M1.84487 6.30811L2.33789 6.43351C1.78977 6.94793 1.24745 7.09381 1.10728 7.03068C0.966143 6.9684 1.40019 6.79181 1.84487 6.30811Z" fill="white" stroke="#EF2D28" stroke-width="0.0118056"/>
<path d="M3.67773 4.95654C3.67634 4.96461 3.67214 5.00061 3.66865 5.01489C3.66865 5.03475 3.66655 5.04965 3.66446 5.06517C3.65886 5.07882 3.65956 5.09123 3.64279 5.0962C3.63504 5.10862 3.62269 5.11826 3.60784 5.12351C3.59441 5.13308 3.57961 5.14101 3.56381 5.1471C3.54729 5.15348 3.52885 5.15479 3.5114 5.15082C3.49602 5.14151 3.48484 5.13158 3.47226 5.12351C3.46946 5.1111 3.46667 5.0931 3.46317 5.08068C3.46863 5.09724 3.47168 5.11434 3.47226 5.13158C3.47086 5.1502 3.46317 5.15889 3.45479 5.17379" stroke="#EF2D28" stroke-width="0.0118555"/>
<path d="M3.51831 5.21639L3.51412 5.21266C3.5246 5.22197 3.52041 5.21763 3.49665 5.20459C3.47987 5.19715 3.4617 5.19342 3.44004 5.1897H3.37853C3.35477 5.1897 3.3387 5.1928 3.32192 5.19715C3.30934 5.20832 3.29117 5.21453 3.27789 5.22446C3.26609 5.23238 3.25711 5.24315 3.25203 5.25549C3.24015 5.26604 3.23246 5.28218 3.22128 5.29025C3.21639 5.30825 3.2066 5.30763 3.19962 5.32129C3.22058 5.32253 3.23666 5.32501 3.24784 5.3368C3.26601 5.34487 3.23246 5.32873 3.22547 5.32129C3.2115 5.31756 3.208 5.31384 3.18634 5.31384C3.16677 5.30763 3.15419 5.31818 3.13392 5.32129C3.12204 5.32749 3.11854 5.32935 3.10317 5.32935" stroke="#EF2D28" stroke-width="0.0118555"/>
<path d="M3.2832 5.40945C3.27412 5.40945 3.23358 5.41628 3.21751 5.40945C3.19934 5.40511 3.18955 5.39704 3.17837 5.38214C3.17278 5.37159 3.17837 5.40076 3.17837 5.41318C3.17627 5.43614 3.16858 5.43614 3.156 5.45166C3.14342 5.45911 3.13014 5.46904 3.11687 5.47525C3.10522 5.48368 3.09196 5.4902 3.07773 5.49449C3.06375 5.50069 3.04907 5.50566 3.03859 5.51373C3.02391 5.52304 3.02461 5.53421 3.01622 5.54911C3.01832 5.56773 3.02181 5.5789 3.0337 5.58759C3.03929 5.60063 3.05047 5.61366 3.06025 5.62235C3.07074 5.64097 3.08332 5.64904 3.05606 5.65339C3.04068 5.65959 3.0323 5.65463 3.01622 5.65339" stroke="#EF2D28" stroke-width="0.0118555"/>
<path d="M3.00684 5.67989C2.99565 5.6774 2.95791 5.66623 2.94114 5.66064H2.87964C2.85657 5.66251 2.85168 5.66871 2.83211 5.67616C2.81883 5.68796 2.81045 5.69602 2.79227 5.70347C2.78319 5.71402 2.76432 5.73265 2.75733 5.7463C2.75158 5.76235 2.74874 5.77911 2.74894 5.79596C2.74894 5.81892 2.75593 5.82327 2.75733 5.84313C2.76222 5.86019 2.77129 5.87609 2.78389 5.88968C2.78598 5.89465 2.78738 5.89589 2.79227 5.89713" stroke="#EF2D28" stroke-width="0.0118555"/>
<path d="M2.80078 5.94774C2.7988 5.94774 2.79483 5.95754 2.78838 5.96587C2.77399 5.98057 2.7725 5.98155 2.75116 5.98155C2.73131 5.98057 2.73379 5.97371 2.7199 5.9693C2.71345 5.9595 2.70551 5.95166 2.69807 5.93843C2.69311 5.93059 2.68864 5.91834 2.68318 5.91099C2.67723 5.90168 2.67028 5.89483 2.66433 5.8865C2.65837 5.88405 2.65639 5.8816 2.64845 5.88013C2.66631 5.88307 2.6683 5.88944 2.67971 5.89874C2.68534 5.90761 2.69047 5.91677 2.69509 5.92618C2.69708 5.93941 2.70105 5.9497 2.70154 5.96587C2.70154 5.98302 2.70154 5.99478 2.69509 6.00898C2.68765 6.01633 2.68269 6.02417 2.67326 6.03054C2.66542 6.03806 2.65827 6.04626 2.65192 6.05504L2.62364 6.07317C2.61471 6.07856 2.60429 6.08395 2.5899 6.08542C2.57154 6.08395 2.56608 6.07905 2.55268 6.07317C2.54077 6.06484 2.53184 6.05945 2.52142 6.05161C2.51287 6.04464 2.5055 6.03637 2.49959 6.02711C2.48321 6.02319 2.4723 6.02466 2.46237 6.03348C2.45395 6.03928 2.44672 6.0466 2.44104 6.05504C2.43607 6.05749 2.42714 6.06484 2.42218 6.06729" stroke="#EF2D28" stroke-width="0.0113405"/>
<path d="M2.45723 6.07739C2.46216 6.07923 2.48067 6.09207 2.48807 6.09635C2.49301 6.11286 2.50103 6.12142 2.50349 6.13915C2.50781 6.15505 2.50781 6.17339 2.50781 6.19235C2.50349 6.21191 2.49547 6.22598 2.48807 6.24126C2.47573 6.24982 2.46956 6.25594 2.45353 6.2645C2.4381 6.26694 2.42268 6.26878 2.40356 6.26878C2.39122 6.27245 2.36901 6.27428 2.35729 6.26878C2.34002 6.26633 2.32706 6.2596 2.31472 6.25349C2.30053 6.24554 2.2919 6.23759 2.27648 6.23026C2.26846 6.21925 2.25673 6.20885 2.24563 6.19601C2.23576 6.18317 2.22897 6.17584 2.22219 6.16177C2.22836 6.17767 2.23638 6.19235 2.24131 6.20763C2.25057 6.22353 2.2555 6.22964 2.25673 6.24921C2.2629 6.26511 2.26105 6.28467 2.26105 6.30302C2.2592 6.31525 2.25858 6.33848 2.25303 6.34888V6.36049" stroke="#EF2D28" stroke-width="0.0116692"/>
<path d="M1.88824 6.42039V6.4266C1.88824 6.41152 1.88824 6.41862 1.89519 6.44878C1.9061 6.4612 1.93488 6.46475 1.95672 6.45943C1.97656 6.44435 1.97656 6.43281 2.01229 6.4266C2.04802 6.42838 2.06191 6.43725 2.08176 6.44878C2.10286 6.45579 2.12047 6.46933 2.13138 6.48693C2.13833 6.50556 2.1423 6.51887 2.11848 6.52597C2.09773 6.53839 2.07386 6.54601 2.04901 6.54815C2.02122 6.54815 2.00038 6.54549 1.98748 6.55968C1.96763 6.57743 1.96962 6.58807 1.96962 6.62001C1.96267 6.62977 1.96168 6.65905 1.95672 6.67058C1.93964 6.67862 1.92041 6.68231 1.90114 6.68123C1.8942 6.66348 1.88725 6.63332 1.88229 6.61469C1.87732 6.59517 1.87633 6.56678 1.86343 6.55347C1.85205 6.5382 1.83758 6.52496 1.82076 6.51444C1.81072 6.50426 1.79763 6.49687 1.78305 6.49314C1.80786 6.50379 1.81083 6.51621 1.81381 6.54283C1.79297 6.5517 1.78702 6.5588 1.75228 6.55968C1.71755 6.55702 1.70961 6.54904 1.69671 6.53129C1.69373 6.55968 1.68381 6.56855 1.67686 6.5934C1.66495 6.60937 1.65999 6.62622 1.64709 6.6484C1.65205 6.67502 1.66396 6.67591 1.66495 6.70873C1.67289 6.73091 1.67289 6.75132 1.68976 6.76463C1.6977 6.7735 1.70365 6.77439 1.72152 6.77527C1.68579 6.77527 1.66396 6.77172 1.64014 6.7593C1.62228 6.74866 1.60838 6.73624 1.59052 6.72559C1.56813 6.71051 1.54293 6.69909 1.51609 6.69188C1.48731 6.69188 1.46647 6.68921 1.45456 6.70341C1.4367 6.71494 1.42479 6.73446 1.41685 6.7593C1.41189 6.78769 1.40891 6.80721 1.4238 6.82584C1.43372 6.84714 1.4367 6.85512 1.4238 6.88085C1.40891 6.89859 1.38807 6.90125 1.35433 6.90835C1.3315 6.90747 1.30868 6.90303 1.2928 6.89771" stroke="#EF2D28" stroke-width="0.0112599"/>
<path fill-rule="evenodd" clip-rule="evenodd" d="M5.23098 3.51907C5.98777 2.20914 6.48968 1.09291 6.35283 1.02972C6.21457 0.965882 5.48834 1.97854 4.73156 3.28847L5.23098 3.51907Z" fill="white" stroke="#EF2D28" stroke-width="0.0155077"/>
<path fill-rule="evenodd" clip-rule="evenodd" d="M5.18075 3.49681C5.91083 2.23311 6.41361 1.16485 6.30413 1.1143C6.19353 1.06323 5.51128 2.04863 4.78121 3.31233" fill="white"/>
<path d="M5.18075 3.49681C5.91083 2.23311 6.41361 1.16485 6.30413 1.1143C6.19353 1.06323 5.51128 2.04863 4.78121 3.31233" stroke="#EF2D28" stroke-width="0.0136237"/>
<path fill-rule="evenodd" clip-rule="evenodd" d="M5.05511 2.83761C4.96622 2.98529 4.87204 3.1545 4.78096 3.31215L5.18163 3.49715C5.27271 3.3395 5.37253 3.1729 5.45578 3.02261L5.05511 2.83761Z" fill="white" stroke="#EF2D28" stroke-width="0.015462"/>
<path fill-rule="evenodd" clip-rule="evenodd" d="M5.09028 2.88867C5.00093 3.03713 4.93954 3.14958 4.84801 3.30802L5.1471 3.44612C5.23818 3.28847 5.30612 3.17705 5.38937 3.02676L5.09028 2.88867Z" fill="white" stroke="#EF2D28" stroke-width="0.015462"/>
<path fill-rule="evenodd" clip-rule="evenodd" d="M5.30742 3.05977L5.10709 2.96727L4.92948 3.2747L5.12981 3.3672L5.30742 3.05977ZM5.30742 3.05977L4.92948 3.2747L5.30742 3.05977ZM5.12981 3.3672L5.10709 2.96727L5.12981 3.3672ZM6.21094 1.49585L6.0106 1.40335L6.21094 1.49585Z" fill="white"/>
<path d="M5.30742 3.05977L5.10709 2.96727M5.30742 3.05977L5.12981 3.3672M5.30742 3.05977L4.92948 3.2747M5.10709 2.96727L4.92948 3.2747M5.10709 2.96727L5.12981 3.3672M4.92948 3.2747L5.12981 3.3672M6.21094 1.49585L6.0106 1.40335" stroke="#EF2D28" stroke-width="0.015462"/>
<path d="M6.20966 1.35041C6.17888 1.3582 6.14829 1.34256 6.14134 1.31548C6.1344 1.28841 6.15372 1.26015 6.1845 1.25237C6.21528 1.24459 6.24587 1.26023 6.25281 1.2873C6.25976 1.31438 6.24044 1.34263 6.20966 1.35041Z" fill="#EF0000" stroke="#EF2D28" stroke-width="0.0200346"/>
<path fill-rule="evenodd" clip-rule="evenodd" d="M4.93198 4.99792C6.63846 6.67155 7.36643 6.88296 7.02418 7.01805C6.68193 7.15313 5.58333 6.28918 4.44038 5.14265C3.29742 3.99612 2.59731 2.97489 2.93955 2.8398C3.2818 2.70472 3.11646 3.2194 4.93198 4.99792Z" fill="white" stroke="#EF2D28" stroke-width="0.020415"/>
<path fill-rule="evenodd" clip-rule="evenodd" d="M6.366 6.21582L5.76758 6.37285C6.33027 6.90784 6.96342 7.12697 7.13907 7.03293C7.31473 6.93889 6.8225 6.71886 6.365 6.21671L6.366 6.21582Z" fill="white" stroke="#EF2D28" stroke-width="0.0112599"/>
<path fill-rule="evenodd" clip-rule="evenodd" d="M6.36606 6.27295L5.87305 6.39835C6.42117 6.91277 6.96348 7.05865 7.10366 6.99552C7.24479 6.93325 6.81075 6.75666 6.36606 6.27295Z" fill="white" stroke="#EF2D28" stroke-width="0.0118056"/>
<path d="M4.5332 4.92139C4.5346 4.92946 4.53879 4.96546 4.54229 4.97973C4.54229 4.99959 4.54439 5.01449 4.54648 5.03001C4.55207 5.04366 4.55137 5.05608 4.56815 5.06104C4.5759 5.07346 4.58824 5.08311 4.60309 5.08835C4.61652 5.09792 4.63133 5.10585 4.64712 5.11194C4.66365 5.11832 4.68209 5.11963 4.69954 5.11567C4.71492 5.10636 4.7261 5.09642 4.73868 5.08835C4.74148 5.07594 4.74427 5.05794 4.74777 5.04553C4.74231 5.06208 4.73925 5.07918 4.73868 5.09642C4.74008 5.11505 4.74777 5.12373 4.75615 5.13863" stroke="#EF2D28" stroke-width="0.0118555"/>
<path d="M4.69165 5.18123L4.69584 5.17751C4.68536 5.18682 4.68955 5.18247 4.71331 5.16944C4.73009 5.16199 4.74826 5.15827 4.76992 5.15454H4.83143C4.85519 5.15454 4.87126 5.15764 4.88804 5.16199C4.90062 5.17316 4.91879 5.17937 4.93207 5.1893C4.94387 5.19722 4.95285 5.208 4.95793 5.22034C4.96981 5.23089 4.9775 5.24703 4.98868 5.25509C4.99357 5.27309 5.00336 5.27247 5.01035 5.28613C4.98938 5.28737 4.9733 5.28985 4.96212 5.30165C4.94395 5.30972 4.9775 5.29358 4.98449 5.28613C4.99846 5.2824 5.00196 5.27868 5.02362 5.27868C5.04319 5.27247 5.05577 5.28303 5.07604 5.28613C5.08792 5.29234 5.09142 5.2942 5.10679 5.2942" stroke="#EF2D28" stroke-width="0.0118555"/>
<path d="M4.92773 5.37942C4.93682 5.37942 4.97736 5.38625 4.99343 5.37942C5.0116 5.37508 5.02139 5.36701 5.03257 5.35211C5.03816 5.34156 5.03257 5.37073 5.03257 5.38315C5.03467 5.40611 5.04235 5.40611 5.05493 5.42163C5.06751 5.42908 5.08079 5.43901 5.09407 5.44522C5.10572 5.45366 5.11898 5.46017 5.13321 5.46446C5.14719 5.47066 5.16187 5.47563 5.17235 5.4837C5.18703 5.49301 5.18633 5.50418 5.19471 5.51908C5.19262 5.5377 5.18912 5.54887 5.17724 5.55756C5.17165 5.5706 5.16047 5.58363 5.15068 5.59232C5.1402 5.61094 5.12762 5.61901 5.15488 5.62336C5.17025 5.62956 5.17864 5.6246 5.19471 5.62336" stroke="#EF2D28" stroke-width="0.0118555"/>
<path d="M5.2041 5.64986C5.21528 5.64737 5.25302 5.6362 5.2698 5.63062H5.3313C5.35436 5.63248 5.35926 5.63868 5.37883 5.64613C5.39211 5.65793 5.40049 5.666 5.41866 5.67344C5.42775 5.684 5.44662 5.70262 5.45361 5.71627C5.45936 5.73232 5.46219 5.74909 5.462 5.76593C5.462 5.78889 5.45501 5.79324 5.45361 5.8131C5.44872 5.83016 5.43965 5.84606 5.42705 5.85965C5.42495 5.86462 5.42356 5.86586 5.41866 5.8671" stroke="#EF2D28" stroke-width="0.0118555"/>
<path d="M5.41602 5.91771C5.418 5.91771 5.42197 5.92751 5.42842 5.93584C5.44281 5.95054 5.4443 5.95152 5.46564 5.95152C5.48548 5.95054 5.483 5.94368 5.4969 5.93927C5.50335 5.92947 5.51129 5.92163 5.51873 5.9084C5.52369 5.90056 5.52816 5.88831 5.53362 5.88096C5.53957 5.87166 5.54652 5.8648 5.55247 5.85647C5.55843 5.85402 5.56041 5.85157 5.56835 5.8501C5.55049 5.85304 5.5485 5.85941 5.53709 5.86872C5.53146 5.87758 5.52633 5.88674 5.52171 5.89615C5.51972 5.90938 5.51575 5.91967 5.51526 5.93584C5.51526 5.95299 5.51526 5.96475 5.52171 5.97895C5.52915 5.9863 5.53411 5.99414 5.54354 6.00051C5.55138 6.00803 5.55852 6.01623 5.56488 6.02501L5.59316 6.04314C5.60209 6.04853 5.61251 6.05392 5.6269 6.05539C5.64526 6.05392 5.65072 6.04902 5.66412 6.04314C5.67602 6.03481 5.68496 6.02942 5.69538 6.02158C5.70393 6.01461 5.7113 6.00634 5.71721 5.99708C5.73358 5.99316 5.7445 5.99463 5.75442 6.00345C5.76284 6.00925 5.77008 6.01657 5.77576 6.02501C5.78072 6.02746 5.78965 6.03481 5.79462 6.03726" stroke="#EF2D28" stroke-width="0.0113405"/>
<path d="M5.75371 6.04224C5.74878 6.04407 5.73027 6.05691 5.72287 6.06119C5.71793 6.0777 5.70991 6.08626 5.70744 6.10399C5.70312 6.11989 5.70312 6.13823 5.70312 6.15719C5.70744 6.17676 5.71546 6.19082 5.72287 6.20611C5.7352 6.21467 5.74137 6.22078 5.75741 6.22934C5.77283 6.23179 5.78826 6.23362 5.80738 6.23362C5.81972 6.23729 5.84193 6.23912 5.85365 6.23362C5.87092 6.23117 5.88388 6.22445 5.89621 6.21833C5.9104 6.21039 5.91904 6.20244 5.93446 6.1951C5.94248 6.18409 5.9542 6.1737 5.96531 6.16086C5.97518 6.14802 5.98196 6.14068 5.98875 6.12662C5.98258 6.14251 5.97456 6.15719 5.96963 6.17248C5.96037 6.18837 5.95544 6.19449 5.9542 6.21405C5.94803 6.22995 5.94988 6.24952 5.94988 6.26786C5.95174 6.28009 5.95235 6.30333 5.9579 6.31372V6.32534" stroke="#EF2D28" stroke-width="0.0116692"/>
<path d="M6.3227 6.39061V6.39682C6.3227 6.38174 6.3227 6.38883 6.31575 6.419C6.30483 6.43142 6.27605 6.43497 6.25422 6.42964C6.23437 6.41456 6.23437 6.40303 6.19865 6.39682C6.16292 6.39859 6.14903 6.40746 6.12918 6.419C6.10807 6.42601 6.09047 6.43954 6.07956 6.45715C6.07261 6.47578 6.06864 6.48909 6.09246 6.49618C6.11321 6.5086 6.13708 6.51622 6.16193 6.51836C6.18971 6.51836 6.21056 6.5157 6.22346 6.5299C6.2433 6.54764 6.24132 6.55829 6.24132 6.59023C6.24827 6.59999 6.24926 6.62926 6.25422 6.6408C6.2713 6.64884 6.29053 6.65252 6.3098 6.65144C6.31674 6.6337 6.32369 6.60353 6.32865 6.5849C6.33361 6.56539 6.33461 6.537 6.34751 6.52369C6.35889 6.50841 6.37336 6.49517 6.39018 6.48465C6.40022 6.47448 6.4133 6.46709 6.42789 6.46336C6.40308 6.474 6.4001 6.48642 6.39713 6.51304C6.41797 6.52191 6.42392 6.52901 6.45866 6.5299C6.49339 6.52724 6.50133 6.51925 6.51423 6.50151C6.51721 6.5299 6.52713 6.53877 6.53408 6.56361C6.54599 6.57958 6.55095 6.59644 6.56385 6.61862C6.55889 6.64523 6.54698 6.64612 6.54599 6.67895C6.53805 6.70113 6.53805 6.72153 6.52118 6.73484C6.51324 6.74371 6.50728 6.7446 6.48942 6.74549C6.52515 6.74549 6.54698 6.74194 6.5708 6.72952C6.58866 6.71887 6.60255 6.70645 6.62042 6.6958C6.6428 6.68072 6.668 6.66931 6.69485 6.66209C6.72363 6.66209 6.74447 6.65943 6.75638 6.67362C6.77424 6.68516 6.78615 6.70468 6.79409 6.72952C6.79905 6.75791 6.80203 6.77743 6.78714 6.79606C6.77722 6.81735 6.77424 6.82533 6.78714 6.85106C6.80203 6.86881 6.82287 6.87147 6.85661 6.87857C6.87943 6.87768 6.90226 6.87324 6.91814 6.86792" stroke="#EF2D28" stroke-width="0.0112599"/>
<path fill-rule="evenodd" clip-rule="evenodd" d="M2.98191 3.48904C2.22512 2.17911 1.72322 1.06288 1.86006 0.999691C1.99832 0.935853 2.72455 1.94851 3.48133 3.25844L2.98191 3.48904Z" fill="white" stroke="#EF2D28" stroke-width="0.0155077"/>
<path fill-rule="evenodd" clip-rule="evenodd" d="M3.03214 3.46678C2.30206 2.20308 1.79928 1.13482 1.90876 1.08427C2.01937 1.0332 2.70161 2.0186 3.43168 3.2823" fill="white"/>
<path d="M3.03214 3.46678C2.30206 2.20308 1.79928 1.13482 1.90876 1.08427C2.01937 1.0332 2.70161 2.0186 3.43168 3.2823" stroke="#EF2D28" stroke-width="0.0136237"/>
<path fill-rule="evenodd" clip-rule="evenodd" d="M3.1568 2.80758C3.2457 2.95526 3.33987 3.12447 3.43096 3.28212L3.03029 3.46712C2.93921 3.30947 2.83939 3.14287 2.75614 2.99259L3.1568 2.80758Z" fill="white" stroke="#EF2D28" stroke-width="0.015462"/>
<path fill-rule="evenodd" clip-rule="evenodd" d="M3.12261 2.85864C3.21196 3.0071 3.27335 3.11955 3.36488 3.278L3.06579 3.41609C2.97471 3.25844 2.90677 3.14702 2.82352 2.99674L3.12261 2.85864Z" fill="white" stroke="#EF2D28" stroke-width="0.015462"/>
<path fill-rule="evenodd" clip-rule="evenodd" d="M2.90449 3.02974L3.10483 2.93724L3.28244 3.24467L3.0821 3.33717L2.90449 3.02974ZM2.90449 3.02974L3.28244 3.24467L2.90449 3.02974ZM3.0821 3.33717L3.10483 2.93724L3.0821 3.33717ZM2.00098 1.46582L2.20131 1.37332L2.00098 1.46582Z" fill="white"/>
<path d="M2.90449 3.02974L3.10483 2.93724M2.90449 3.02974L3.0821 3.33717M2.90449 3.02974L3.28243 3.24467M3.10483 2.93724L3.28243 3.24467M3.10483 2.93724L3.0821 3.33717M3.28243 3.24467L3.0821 3.33717M2.00098 1.46582L2.20131 1.37332" stroke="#EF2D28" stroke-width="0.015462"/>
<path d="M2.00226 1.32039C2.03304 1.32817 2.06362 1.31253 2.07057 1.28545C2.07752 1.25838 2.0582 1.23012 2.02741 1.22234C1.99663 1.21456 1.96605 1.2302 1.9591 1.25727C1.95215 1.28435 1.97147 1.3126 2.00226 1.32039Z" fill="#EF0000" stroke="#EF2D28" stroke-width="0.0200346"/>
<path fill-rule="evenodd" clip-rule="evenodd" d="M3.59077 2.82129C3.59077 3.92142 3.59739 4.33574 3.51668 4.39252C3.43993 4.45374 1.30566 4.39252 1.30566 4.70659C1.30566 5.02066 3.06283 5.3365 3.59077 5.3365C4.2947 5.3365 4.64534 5.02155 4.64534 4.39252V2.82218H3.59077V2.82129Z" fill="white" stroke="#EF2D28" stroke-width="0.0140851"/>
<path fill-rule="evenodd" clip-rule="evenodd" d="M3.59082 3.13525V3.29229C3.93969 3.34458 4.29587 3.34458 4.64475 3.29229V3.13525C4.29587 3.18755 3.93969 3.18755 3.59082 3.13525Z" fill="white" stroke="#EF2D28" stroke-width="0.0121982"/>
<path fill-rule="evenodd" clip-rule="evenodd" d="M3.59082 2.82129V2.97832C3.93969 3.03062 4.29587 3.03062 4.64475 2.97832V2.82129C4.29587 2.87359 3.93969 2.87359 3.59082 2.82129Z" fill="white" stroke="#EF2D28" stroke-width="0.0121982"/>
<path fill-rule="evenodd" clip-rule="evenodd" d="M3.59082 2.97827V3.1353C3.93969 3.1876 4.29587 3.1876 4.64475 3.1353V2.97827C4.29587 3.03057 3.93969 3.03057 3.59082 2.97827Z" fill="white" stroke="#EF2D28" stroke-width="0.0121982"/>
<path fill-rule="evenodd" clip-rule="evenodd" d="M3.59082 3.29224V3.44927C3.93969 3.50157 4.29587 3.50157 4.64475 3.44927V3.29224C4.29587 3.34453 3.93969 3.34453 3.59082 3.29224Z" fill="white" stroke="#EF2D28" stroke-width="0.0121982"/>
<path d="M3.639 3.10109C3.6656 3.10109 3.68717 3.08589 3.68717 3.06715C3.68717 3.0484 3.6656 3.0332 3.639 3.0332C3.61239 3.0332 3.59082 3.0484 3.59082 3.06715C3.59082 3.08589 3.61239 3.10109 3.639 3.10109Z" fill="white" stroke="#EF2D28" stroke-width="0.011564"/>
<path d="M3.8304 3.11794C3.85701 3.11794 3.87858 3.10274 3.87858 3.08399C3.87858 3.06525 3.85701 3.05005 3.8304 3.05005C3.8038 3.05005 3.78223 3.06525 3.78223 3.08399C3.78223 3.10274 3.8038 3.11794 3.8304 3.11794Z" fill="white" stroke="#EF2D28" stroke-width="0.011564"/>
<path d="M4.02279 3.13527C4.04939 3.13527 4.07096 3.12007 4.07096 3.10133C4.07096 3.08258 4.04939 3.06738 4.02279 3.06738C3.99618 3.06738 3.97461 3.08258 3.97461 3.10133C3.97461 3.12007 3.99618 3.13527 4.02279 3.13527Z" fill="white" stroke="#EF2D28" stroke-width="0.011564"/>
<path d="M4.21419 3.13527C4.2408 3.13527 4.26237 3.12007 4.26237 3.10133C4.26237 3.08258 4.2408 3.06738 4.21419 3.06738C4.18758 3.06738 4.16602 3.08258 4.16602 3.10133C4.16602 3.12007 4.18758 3.13527 4.21419 3.13527Z" fill="white" stroke="#EF2D28" stroke-width="0.011564"/>
<path d="M4.4056 3.11794C4.4322 3.11794 4.45377 3.10274 4.45377 3.08399C4.45377 3.06525 4.4322 3.05005 4.4056 3.05005C4.37899 3.05005 4.35742 3.06525 4.35742 3.08399C4.35742 3.10274 4.37899 3.11794 4.4056 3.11794Z" fill="white" stroke="#EF2D28" stroke-width="0.011564"/>
<path d="M4.59798 3.10109C4.62459 3.10109 4.64616 3.08589 4.64616 3.06715C4.64616 3.0484 4.62459 3.0332 4.59798 3.0332C4.57137 3.0332 4.5498 3.0484 4.5498 3.06715C4.5498 3.08589 4.57137 3.10109 4.59798 3.10109Z" fill="white" stroke="#EF2D28" stroke-width="0.011564"/>
<path fill-rule="evenodd" clip-rule="evenodd" d="M3.59155 3.60645L4.64548 4.4555L3.59155 3.60645ZM3.69675 3.60645L4.64648 4.36057L3.69675 3.60645ZM3.83668 3.63838L4.64648 4.26741L3.83668 3.63838ZM3.94187 3.6375L4.64648 4.17248L3.94187 3.6375ZM4.04806 3.63838L4.64548 4.07844L4.04806 3.63838ZM4.15325 3.63838L4.64548 3.98439L4.15325 3.63838ZM4.25845 3.63838L4.64548 3.88946L4.25845 3.63838ZM4.36563 3.63838L4.64747 3.82647L4.36563 3.63838ZM4.46983 3.63838L4.64648 3.76437L4.46983 3.63838ZM4.57601 3.63838L4.64548 3.70049L4.57601 3.63838ZM3.59155 3.70049L4.64548 4.55043L3.59155 3.70049ZM4.64548 3.60733L3.48438 4.54954L4.64548 3.60733ZM4.5393 3.60645L3.5201 4.42444L4.5393 3.60645ZM4.39937 3.63838L3.59056 4.26652L4.39937 3.63838ZM4.29318 3.63838L3.59056 4.17248L4.29318 3.63838ZM4.18898 3.63838L3.59155 4.07844L4.18898 3.63838ZM4.08378 3.63838L3.59155 3.98439L4.08378 3.63838ZM3.97859 3.63838L3.59155 3.88946L3.97859 3.63838ZM3.87141 3.63838L3.59056 3.82647L3.87141 3.63838ZM3.76622 3.63838L3.59056 3.76437L3.76622 3.63838ZM3.66003 3.63838L3.59056 3.70049L3.66003 3.63838ZM4.64548 3.70049L3.48438 4.64536L4.64548 3.70049ZM4.64548 3.79631L3.48438 4.73851L4.64548 3.79631ZM4.64548 3.88946L3.48438 4.83256L4.64548 3.88946ZM4.64548 3.98351L3.48438 4.92837L4.64548 3.98351ZM4.64548 4.07932L3.48438 5.02153L4.64548 4.07932ZM4.64548 4.17248L3.48438 5.11557L4.64548 4.17248ZM4.64548 4.26652L3.48438 5.20962L4.64548 4.26652ZM4.64548 4.36145L3.48438 5.30455L4.64548 4.36145ZM4.64548 4.4555L3.55484 5.3356L4.64548 4.4555ZM4.64548 4.54954L3.66102 5.3356L4.64548 4.54954ZM4.60976 4.67552L3.83568 5.30455L4.60976 4.67552ZM4.57601 4.80062L3.94286 5.30366L4.57601 4.80062ZM4.50555 4.95765L4.18799 5.20873L4.50555 4.95765ZM3.59155 3.79453L4.61075 4.61164L3.59155 3.79453ZM3.59155 3.88858L4.61075 4.70657L3.59155 3.88858ZM3.59155 3.98439L4.57601 4.76956L3.59155 3.98439ZM3.59155 4.07755L4.57601 4.8645L3.59155 4.07755ZM3.59155 4.17248L4.54029 4.9266L3.59155 4.17248ZM3.55583 4.23547L4.50555 4.98959L3.55583 4.23547ZM3.55583 4.3304L4.43509 5.02242L3.55583 4.3304ZM3.52109 4.3925L4.40036 5.08452L3.52109 4.3925ZM3.48438 4.45461L4.32791 5.11469L3.48438 4.45461ZM3.48438 4.54865L4.29318 5.17768L3.48438 4.54865ZM3.48438 4.64358L4.18898 5.20873L3.48438 4.64358Z" fill="white"/>
<path d="M3.59155 3.60645L4.64548 4.4555L3.55484 5.3356M3.69675 3.60645L4.64648 4.36057M3.83668 3.63838L4.64648 4.26741M3.94187 3.6375L4.64648 4.17248M4.04806 3.63838L4.64548 4.07844M4.15325 3.63838L4.64548 3.98439M4.25845 3.63838L4.64548 3.88946L3.48438 4.83256M4.36563 3.63838L4.64747 3.82647M4.46983 3.63838L4.64648 3.76437M4.57601 3.63838L4.64548 3.70049L3.48438 4.64536M3.59155 3.70049L4.64548 4.55043M4.64548 3.60733L3.48438 4.54954M4.5393 3.60645L3.5201 4.42444M4.39937 3.63838L3.59056 4.26652M4.29318 3.63838L3.59056 4.17248M4.18898 3.63838L3.59155 4.07844M4.08378 3.63838L3.59155 3.98439L4.57601 4.76956M3.97859 3.63838L3.59155 3.88946M3.87141 3.63838L3.59056 3.82647M3.76622 3.63838L3.59056 3.76437M3.66003 3.63838L3.59056 3.70049M4.64548 3.79631L3.48438 4.73851M4.64548 3.98351L3.48438 4.92837M4.64548 4.07932L3.48438 5.02153M4.64548 4.17248L3.48438 5.11557M4.64548 4.26652L3.48438 5.20962M4.64548 4.36145L3.48438 5.30455M4.64548 4.54954L3.66102 5.3356M4.60976 4.67552L3.83568 5.30455M4.57601 4.80062L3.94286 5.30366M4.50555 4.95765L4.18799 5.20873M3.59155 3.79453L4.61075 4.61164M3.59155 3.88858L4.61075 4.70657M3.59155 4.07755L4.57601 4.8645M3.59155 4.17248L4.54029 4.9266M3.55583 4.23547L4.50555 4.98959M3.55583 4.3304L4.43509 5.02242M3.52109 4.3925L4.40036 5.08452M3.48438 4.45461L4.32791 5.11469M3.48438 4.54865L4.29318 5.17768M3.48438 4.64358L4.18898 5.20873" stroke="#EF2D28" stroke-width="0.0121982"/>
<path fill-rule="evenodd" clip-rule="evenodd" d="M3.59082 3.4502V3.60723C3.93969 3.65952 4.29587 3.65952 4.64475 3.60723V3.4502C4.29587 3.50249 3.93969 3.50249 3.59082 3.4502Z" fill="white" stroke="#EF2D28" stroke-width="0.0121982"/>
<path fill-rule="evenodd" clip-rule="evenodd" d="M3.48537 4.73853L4.11852 5.24157L3.48537 4.73853ZM3.48537 4.83346L4.04806 5.27262L3.48537 4.83346ZM3.48537 4.92661L3.9776 5.30456L3.48537 4.92661ZM3.48537 5.02065L3.83767 5.30456L3.48537 5.02065ZM3.48438 5.11559L3.76622 5.33561L3.48438 5.11559ZM3.48438 5.20963L3.66003 5.33561L3.48438 5.20963Z" fill="white"/>
<path d="M3.48537 4.73853L4.11852 5.24157M3.48537 4.83346L4.04806 5.27262M3.48537 4.92661L3.9776 5.30456M3.48537 5.02065L3.83767 5.30456M3.48438 5.11559L3.76622 5.33561M3.48438 5.20963L3.66003 5.33561" stroke="#EF2D28" stroke-width="0.0121982"/>
<path d="M3.639 3.57301C3.6656 3.57301 3.68717 3.55782 3.68717 3.53907C3.68717 3.52032 3.6656 3.50513 3.639 3.50513C3.61239 3.50513 3.59082 3.52032 3.59082 3.53907C3.59082 3.55782 3.61239 3.57301 3.639 3.57301Z" fill="white" stroke="#EF2D28" stroke-width="0.011564"/>
<path d="M3.8304 3.58986C3.85701 3.58986 3.87858 3.57466 3.87858 3.55592C3.87858 3.53717 3.85701 3.52197 3.8304 3.52197C3.8038 3.52197 3.78223 3.53717 3.78223 3.55592C3.78223 3.57466 3.8038 3.58986 3.8304 3.58986Z" fill="white" stroke="#EF2D28" stroke-width="0.011564"/>
<path d="M4.02279 3.60646C4.04939 3.60646 4.07096 3.59126 4.07096 3.57252C4.07096 3.55377 4.04939 3.53857 4.02279 3.53857C3.99618 3.53857 3.97461 3.55377 3.97461 3.57252C3.97461 3.59126 3.99618 3.60646 4.02279 3.60646Z" fill="white" stroke="#EF2D28" stroke-width="0.011564"/>
<path d="M4.21419 3.60646C4.2408 3.60646 4.26237 3.59126 4.26237 3.57252C4.26237 3.55377 4.2408 3.53857 4.21419 3.53857C4.18758 3.53857 4.16602 3.55377 4.16602 3.57252C4.16602 3.59126 4.18758 3.60646 4.21419 3.60646Z" fill="white" stroke="#EF2D28" stroke-width="0.011564"/>
<path d="M4.4056 3.58986C4.4322 3.58986 4.45377 3.57466 4.45377 3.55592C4.45377 3.53717 4.4322 3.52197 4.4056 3.52197C4.37899 3.52197 4.35742 3.53717 4.35742 3.55592C4.35742 3.57466 4.37899 3.58986 4.4056 3.58986Z" fill="white" stroke="#EF2D28" stroke-width="0.011564"/>
<path d="M4.59798 3.57301C4.62459 3.57301 4.64616 3.55782 4.64616 3.53907C4.64616 3.52032 4.62459 3.50513 4.59798 3.50513C4.57137 3.50513 4.5498 3.52032 4.5498 3.53907C4.5498 3.55782 4.57137 3.57301 4.59798 3.57301Z" fill="white" stroke="#EF2D28" stroke-width="0.011564"/>
<path fill-rule="evenodd" clip-rule="evenodd" d="M2.07858 5.08439L3.34389 4.42432L2.07858 5.08439ZM2.00812 5.05245L3.20397 4.42432L2.00812 5.05245ZM1.97339 4.98946L3.06305 4.42432L1.97339 4.98946ZM1.93766 4.92736L2.88739 4.42432L1.93766 4.92736ZM1.86621 4.86437L2.74548 4.42432L1.86621 4.86437ZM1.90194 4.77032L2.49936 4.45537L1.90194 4.77032ZM1.86621 4.70645L2.32271 4.45537L1.86621 4.70645ZM1.86621 4.6124L2.18378 4.45537L1.86621 4.6124ZM2.18378 5.11545L3.37863 4.48642L2.18378 5.11545ZM2.28997 5.1465L3.41435 4.54941L2.28997 5.1465ZM2.39516 5.17844L3.45008 4.6124L2.39516 5.17844ZM2.50035 5.20949L3.37962 4.73839L2.50035 5.20949ZM2.64028 5.20949L3.41435 4.80138L2.64028 5.20949ZM2.74548 5.24143L3.41336 4.89542L2.74548 5.24143ZM2.85067 5.27248L3.37863 4.98946L2.85067 5.27248ZM2.99159 5.27337L3.41336 5.05245L2.99159 5.27337ZM3.13251 5.30442L3.41435 5.1465L3.13251 5.30442ZM3.27542 5.30442L3.45107 5.21038L3.27542 5.30442Z" fill="white"/>
<path d="M2.07858 5.08439L3.34389 4.42432M2.00812 5.05245L3.20397 4.42432M1.97339 4.98946L3.06305 4.42432M1.93766 4.92736L2.88739 4.42432M1.86621 4.86437L2.74548 4.42432M1.90194 4.77032L2.49936 4.45537M1.86621 4.70645L2.32271 4.45537M1.86621 4.6124L2.18378 4.45537M2.18378 5.11545L3.37863 4.48642M2.28997 5.1465L3.41435 4.54941M2.39516 5.17844L3.45008 4.6124M2.50035 5.20949L3.37962 4.73839M2.64028 5.20949L3.41435 4.80138M2.74548 5.24143L3.41336 4.89542M2.85067 5.27248L3.37863 4.98946M2.99159 5.27337L3.41336 5.05245M3.13251 5.30442L3.41435 5.1465M3.27542 5.30442L3.45107 5.21038" stroke="#EF2D28" stroke-width="0.0121982"/>
<path fill-rule="evenodd" clip-rule="evenodd" d="M3.51953 4.39331H3.34388C3.28538 4.7052 3.28538 5.02363 3.34388 5.33552H3.51953C3.46103 5.02363 3.46103 4.7052 3.51953 4.39331Z" fill="white" stroke="#EF2D28" stroke-width="0.0121982"/>
<path fill-rule="evenodd" clip-rule="evenodd" d="M1.44531 4.83238L1.86708 4.51831L1.44531 4.83238ZM1.44531 4.61235L1.86708 4.98941L1.44531 4.61235Z" fill="white"/>
<path d="M1.44531 4.83238L1.86708 4.51831M1.44531 4.61235L1.86708 4.98941" stroke="#EF2D28" stroke-width="0.0121982"/>
<path fill-rule="evenodd" clip-rule="evenodd" d="M2.07812 4.45483L1.86694 4.4863C1.8201 4.68577 1.8201 4.85321 1.86694 5.05269L2.07812 5.11506C2.03128 4.91615 2.03128 4.65431 2.07812 4.45483Z" fill="white" stroke="#EF2D28" stroke-width="0.00868275"/>
<path fill-rule="evenodd" clip-rule="evenodd" d="M4.64504 2.88327V2.72446C4.48594 2.72624 4.38037 2.63131 4.38037 2.53638L3.854 2.53726C3.854 2.63131 3.74992 2.72624 3.59082 2.72624V2.88327H4.64504Z" fill="white" stroke="#EF2D28" stroke-width="0.0149313"/>
<path fill-rule="evenodd" clip-rule="evenodd" d="M3.89062 2.34929H4.34316V2.53827H3.89062V2.34929ZM3.92933 2.16032H4.30545V2.34929H3.92834L3.92933 2.16032ZM3.92933 1.97223H4.30545V2.16032H3.92834L3.92933 1.97223ZM3.96704 1.72027H4.26774V1.97223H3.96704V1.72027ZM3.95414 1.50024H4.28163V1.72027H3.95414V1.50024Z" fill="white"/>
<path d="M4.30545 2.16032H3.92933L3.92834 2.34929H4.30545V2.16032ZM4.30545 2.16032V1.97223H3.92933L3.92834 2.16032H4.30545ZM3.89062 2.34929H4.34316V2.53827H3.89062V2.34929ZM3.96704 1.72027H4.26774V1.97223H3.96704V1.72027ZM3.95414 1.50024H4.28163V1.72027H3.95414V1.50024Z" stroke="#EF2D28" stroke-width="0.0131366"/>
<path d="M4.13503 1.59504C4.37573 1.59504 4.57085 1.46118 4.57085 1.29606C4.57085 1.13093 4.37573 0.99707 4.13503 0.99707C3.89434 0.99707 3.69922 1.13093 3.69922 1.29606C3.69922 1.46118 3.89434 1.59504 4.13503 1.59504Z" fill="white" stroke="#EF2D28" stroke-width="0.0123997"/>
<path fill-rule="evenodd" clip-rule="evenodd" d="M4.35316 1.28018C4.35316 1.36269 4.46185 1.5002 4.46185 1.5002C4.38289 1.55521 4.25471 1.59513 4.13473 1.59513C4.01476 1.59513 3.86504 1.57207 3.80762 1.5002C3.80762 1.5002 3.91631 1.36357 3.91631 1.28106C3.91631 1.19855 3.80762 1.09209 3.80762 1.09209C3.9028 1.03158 4.01765 0.998665 4.13576 0.998047C4.25471 0.998047 4.38187 1.03797 4.46185 1.09209C4.46185 1.09209 4.35316 1.19855 4.35316 1.28106V1.28018Z" fill="white" stroke="#EF2D28" stroke-width="0.0123997"/>
<path fill-rule="evenodd" clip-rule="evenodd" d="M4.28078 1.28018C4.28078 1.36269 4.38948 1.53214 4.38948 1.53214C4.31052 1.58537 4.25617 1.59425 4.13517 1.59425C4.01417 1.59425 3.93828 1.604 3.88086 1.53214C3.88086 1.53214 3.98956 1.36357 3.98956 1.28018C3.98956 1.19678 3.88086 1.06015 3.88086 1.06015C3.95982 1.00692 4.01417 0.998047 4.13517 0.998047C4.25515 0.998047 4.31052 1.00692 4.38948 1.06015C4.38948 1.06015 4.28078 1.19767 4.28078 1.28018Z" fill="white" stroke="#EF2D28" stroke-width="0.0123997"/>
<path d="M3.69854 1.40513C3.75857 1.40513 3.80724 1.36302 3.80724 1.31108C3.80724 1.25915 3.75857 1.21704 3.69854 1.21704C3.63851 1.21704 3.58984 1.25915 3.58984 1.31108C3.58984 1.36302 3.63851 1.40513 3.69854 1.40513Z" fill="white" stroke="#EF2D28" stroke-width="0.0123997"/>
<path d="M4.57159 1.40513C4.63162 1.40513 4.68029 1.36302 4.68029 1.31108C4.68029 1.25915 4.63162 1.21704 4.57159 1.21704C4.51156 1.21704 4.46289 1.25915 4.46289 1.31108C4.46289 1.36302 4.51156 1.40513 4.57159 1.40513Z" fill="white" stroke="#EF2D28" stroke-width="0.0123997"/>
<path d="M4.13604 1.40513C4.19607 1.40513 4.24474 1.36302 4.24474 1.31108C4.24474 1.25915 4.19607 1.21704 4.13604 1.21704C4.07601 1.21704 4.02734 1.25915 4.02734 1.31108C4.02734 1.36302 4.07601 1.40513 4.13604 1.40513Z" fill="white" stroke="#EF2D28" stroke-width="0.0123997"/>
<path d="M4.13604 1.09116C4.19607 1.09116 4.24474 1.04906 4.24474 0.997119C4.24474 0.945181 4.19607 0.903076 4.13604 0.903076C4.07601 0.903076 4.02734 0.945181 4.02734 0.997119C4.02734 1.04906 4.07601 1.09116 4.13604 1.09116Z" fill="white" stroke="#EF2D28" stroke-width="0.0123997"/>
<path d="M3.81766 2.8834C3.87983 2.8834 3.93024 2.84129 3.93024 2.78936C3.93024 2.73742 3.87983 2.69531 3.81766 2.69531C3.75548 2.69531 3.70508 2.73742 3.70508 2.78936C3.70508 2.84129 3.75548 2.8834 3.81766 2.8834Z" fill="white" stroke="#EF2D28" stroke-width="0.0126191"/>
<path d="M4.41824 2.8834C4.48042 2.8834 4.53082 2.84129 4.53082 2.78936C4.53082 2.73742 4.48042 2.69531 4.41824 2.69531C4.35607 2.69531 4.30566 2.73742 4.30566 2.78936C4.30566 2.84129 4.35607 2.8834 4.41824 2.8834Z" fill="white" stroke="#EF2D28" stroke-width="0.0126191"/>
<path fill-rule="evenodd" clip-rule="evenodd" d="M3.85449 2.53735H4.38128L4.11788 2.82037L3.85449 2.53735Z" fill="white" stroke="#EF2D28" stroke-width="0.0126191"/>
<path d="M4.11691 2.88261C4.19981 2.88261 4.26702 2.82647 4.26702 2.75722C4.26702 2.68797 4.19981 2.63184 4.11691 2.63184C4.034 2.63184 3.9668 2.68797 3.9668 2.75722C3.9668 2.82647 4.034 2.88261 4.11691 2.88261Z" fill="white" stroke="#EF2D28" stroke-width="0.0168257"/>
<path d="M4.30617 3.69751H3.58271C3.55914 3.69751 3.54004 3.71221 3.54004 3.73034V3.85366C3.54004 3.87179 3.55914 3.88648 3.58271 3.88648H4.30617C4.32974 3.88648 4.34885 3.87179 4.34885 3.85366V3.73034C4.34885 3.71221 4.32974 3.69751 4.30617 3.69751Z" fill="white" stroke="#EF2D28" stroke-width="0.0112599"/>
<path fill-rule="evenodd" clip-rule="evenodd" d="M4.59558 3.54048C4.49833 3.54048 4.41993 3.61412 4.41993 3.70462V3.84746C4.41927 3.86857 4.4233 3.8896 4.4318 3.90932C4.44029 3.92903 4.45308 3.94705 4.46942 3.96231C4.48576 3.97758 4.50532 3.98979 4.52698 3.99825C4.54864 4.00671 4.57195 4.01124 4.59558 4.01159C4.61921 4.01124 4.64253 4.00671 4.66419 3.99825C4.68585 3.98979 4.70541 3.97758 4.72175 3.96231C4.73809 3.94705 4.75087 3.92903 4.75937 3.90932C4.76786 3.8896 4.7719 3.86857 4.77124 3.84746V3.7055C4.77203 3.68431 4.7681 3.66319 4.75966 3.64337C4.75123 3.62355 4.73846 3.60543 4.72211 3.59007C4.70576 3.57471 4.68615 3.56241 4.66443 3.5539C4.6427 3.54539 4.6193 3.54083 4.59558 3.54048ZM4.59558 3.60259C4.53703 3.60259 4.49039 3.66203 4.49039 3.73478V3.81729C4.49039 3.89004 4.53703 3.9486 4.59558 3.9486C4.65414 3.9486 4.70078 3.89004 4.70078 3.81729V3.73478C4.70078 3.66203 4.65414 3.60348 4.59558 3.60348V3.60259ZM3.68158 3.57154C3.62204 3.57154 3.57639 3.63009 3.57639 3.70373V3.84923C3.57639 3.92198 3.62303 3.98054 3.68158 3.98054C3.74014 3.98054 3.78678 3.92198 3.78678 3.84923V3.70284C3.78678 3.6292 3.74014 3.57065 3.68158 3.57065V3.57154ZM3.68158 3.50943C3.65795 3.50978 3.63463 3.51431 3.61298 3.52277C3.59132 3.53123 3.57176 3.54344 3.55542 3.55871C3.53908 3.57397 3.52629 3.59199 3.5178 3.6117C3.5093 3.63142 3.50527 3.65244 3.50593 3.67356V3.87939C3.50527 3.90051 3.5093 3.92154 3.5178 3.94126C3.52629 3.96097 3.53908 3.97899 3.55542 3.99425C3.57176 4.00952 3.59132 4.02173 3.61298 4.03019C3.63463 4.03865 3.65795 4.04318 3.68158 4.04353C3.77884 4.04353 3.85724 3.96989 3.85724 3.87939V3.67356C3.85803 3.65237 3.8541 3.63125 3.84566 3.61143C3.83723 3.59161 3.82446 3.57349 3.80811 3.55813C3.79176 3.54277 3.77215 3.53047 3.75043 3.52196C3.7287 3.51345 3.7053 3.50889 3.68158 3.50854V3.50943Z" fill="white" stroke="#EF2D28" stroke-width="0.0112599"/>
<path fill-rule="evenodd" clip-rule="evenodd" d="M3.39936 3.63452C3.34081 3.63452 3.29416 3.69308 3.29416 3.76583V3.80043C3.29416 3.87318 3.34081 3.93174 3.39936 3.93174C3.4589 3.93174 3.50554 3.87318 3.50554 3.80043V3.76583C3.50554 3.69308 3.45791 3.63452 3.39936 3.63452ZM3.39936 3.57242C3.37573 3.57276 3.35241 3.5773 3.33075 3.58575C3.30909 3.59421 3.28953 3.60643 3.27319 3.6217C3.25686 3.63696 3.24407 3.65497 3.23557 3.67469C3.22708 3.69441 3.22304 3.71543 3.2237 3.73655V3.8306C3.22304 3.85172 3.22708 3.87274 3.23557 3.89246C3.24407 3.91217 3.25686 3.93019 3.27319 3.94545C3.28953 3.96072 3.30909 3.97293 3.33075 3.98139C3.35241 3.98985 3.37573 3.99438 3.39936 3.99473C3.49661 3.99473 3.576 3.92109 3.576 3.8306V3.73655C3.5768 3.71529 3.57283 3.69409 3.56434 3.67421C3.55584 3.65434 3.54299 3.63618 3.52653 3.62081C3.51007 3.60543 3.49035 3.59316 3.46851 3.58469C3.44667 3.57623 3.42316 3.57176 3.39936 3.57153V3.57242Z" fill="white" stroke="#EF2D28" stroke-width="0.0112599"/>
<path fill-rule="evenodd" clip-rule="evenodd" d="M2.9783 3.54769C2.87112 3.54769 2.78717 3.61314 2.78717 3.69444V3.85804C2.78717 3.93836 2.87291 4.00479 2.9783 4.00479C3.08191 4.00479 3.16765 3.93935 3.16765 3.85705V3.69444C3.16765 3.61314 3.08191 3.54769 2.9783 3.54769ZM2.9783 3.47829C2.93577 3.47854 2.89375 3.48348 2.85468 3.49281C2.81561 3.50215 2.78027 3.51569 2.7507 3.53266C2.72112 3.54963 2.69791 3.56968 2.6824 3.59167C2.66689 3.61365 2.65939 3.63713 2.66034 3.66073V3.89076C2.65891 3.91445 2.66599 3.93806 2.68117 3.96021C2.69636 3.98236 2.71933 4.0026 2.74877 4.01977C2.7782 4.03694 2.8135 4.05068 2.8526 4.0602C2.8917 4.06971 2.93383 4.07481 2.97651 4.07519C3.15336 4.07519 3.29448 3.99289 3.29448 3.89076V3.66073C3.29567 3.63713 3.2884 3.61363 3.27311 3.59159C3.25782 3.56956 3.2348 3.54943 3.2054 3.53236C3.17599 3.5153 3.14077 3.50165 3.10179 3.4922C3.06281 3.48274 3.02084 3.47768 2.9783 3.47729V3.47829Z" fill="white" stroke="#EF2D28" stroke-width="0.0119778"/>
<path fill-rule="evenodd" clip-rule="evenodd" d="M5.26443 3.5787C5.15725 3.5787 5.0733 3.64414 5.0733 3.72545V3.88905C5.0733 3.96936 5.15904 4.0358 5.26443 4.0358C5.36804 4.0358 5.45378 3.97036 5.45378 3.88806V3.72545C5.45378 3.64414 5.36804 3.5787 5.26443 3.5787ZM5.26443 3.50929C5.2219 3.50955 5.17989 3.51449 5.14082 3.52382C5.10175 3.53315 5.0664 3.5467 5.03683 3.56367C5.00726 3.58063 4.98404 3.60069 4.96853 3.62267C4.95302 3.64466 4.94552 3.66813 4.94647 3.69173V3.92177C4.94504 3.94546 4.95212 3.96906 4.96731 3.99121C4.98249 4.01336 5.00547 4.03361 5.0349 4.05078C5.06433 4.06795 5.09963 4.08169 5.13873 4.0912C5.17783 4.10072 5.21996 4.10581 5.26265 4.1062C5.43949 4.1062 5.58061 4.0239 5.58061 3.92177V3.69173C5.5818 3.66813 5.57454 3.64463 5.55925 3.6226C5.54395 3.60056 5.52094 3.58043 5.49153 3.56337C5.46212 3.54631 5.42691 3.53266 5.38792 3.5232C5.34894 3.51375 5.30697 3.50869 5.26443 3.5083V3.50929Z" fill="white" stroke="#EF2D28" stroke-width="0.0119778"/>
<path d="M5.06496 3.69751H4.68884C4.67623 3.69751 4.66602 3.71221 4.66602 3.73034V3.85366C4.66602 3.87179 4.67623 3.88648 4.68884 3.88648H5.06496C5.07757 3.88648 5.08779 3.87179 5.08779 3.85366V3.73034C5.08779 3.71221 5.07757 3.69751 5.06496 3.69751Z" fill="white" stroke="#EF2D28" stroke-width="0.0112599"/>
<path d="M4.51251 3.6665H4.2922C4.28507 3.6665 4.2793 3.68597 4.2793 3.70998V3.875C4.2793 3.89901 4.28507 3.91847 4.2922 3.91847H4.51251C4.51964 3.91847 4.52541 3.89901 4.52541 3.875V3.70998C4.52541 3.68597 4.51964 3.6665 4.51251 3.6665Z" fill="white" stroke="#EF2D28" stroke-width="0.0112599"/>
<path d="M3.35235 3.6665H3.13204C3.12492 3.6665 3.11914 3.68597 3.11914 3.70998V3.875C3.11914 3.89901 3.12492 3.91847 3.13204 3.91847H3.35235C3.35948 3.91847 3.36526 3.89901 3.36526 3.875V3.70998C3.36526 3.68597 3.35948 3.6665 3.35235 3.6665Z" fill="white" stroke="#EF2D28" stroke-width="0.0112599"/>
<path d="M2.81115 3.63452H2.37053C2.35628 3.63452 2.34473 3.65875 2.34473 3.68864V3.89447C2.34473 3.92436 2.35628 3.94859 2.37053 3.94859H2.81115C2.8254 3.94859 2.83696 3.92436 2.83696 3.89447V3.68864C2.83696 3.65875 2.8254 3.63452 2.81115 3.63452Z" fill="white" stroke="#EF2D28" stroke-width="0.0112599"/>
<path d="M5.83698 3.6665H5.42911C5.4154 3.6665 5.4043 3.69073 5.4043 3.72062V3.92645C5.4043 3.95634 5.4154 3.98057 5.42911 3.98057H5.83698C5.85069 3.98057 5.86179 3.95634 5.86179 3.92645V3.72062C5.86179 3.69073 5.85069 3.6665 5.83698 3.6665Z" fill="white" stroke="#EF2D28" stroke-width="0.0112599"/>
</g>
<defs>
<clipPath id="clip0_11930_68257">
<rect width="36" height="24" rx="2" fill="white"/>
</clipPath>
</defs>
</svg>
