<svg width="36" height="24" viewBox="0 0 36 24" fill="none" xmlns="http://www.w3.org/2000/svg">
<g clip-path="url(#clip0_11930_68254)">
<rect width="36" height="24" rx="2" fill="white"/>
<path fill-rule="evenodd" clip-rule="evenodd" d="M11.49 9.305L9.39 7.835L7.305 9.315L8.08 6.915L6 5.42L8.58 5.4L9.38 3L10.195 5.395H12.775L10.7 6.895L11.495 9.295L11.49 9.305Z" fill="#0000AB"/>
<path fill-rule="evenodd" clip-rule="evenodd" d="M29.49 21.305L27.39 19.835L25.305 21.315L26.08 18.915L24 17.42L26.58 17.4L27.38 15L28.195 17.395H30.775L28.7 18.895L29.495 21.295L29.49 21.305Z" fill="#D80000"/>
<rect y="12" width="18" height="12" fill="#0000AB"/>
<rect x="18" width="18" height="12" fill="#D80000"/>
</g>
<defs>
<clipPath id="clip0_11930_68254">
<rect width="36" height="24" rx="2" fill="white"/>
</clipPath>
</defs>
</svg>
