<svg width="36" height="24" viewBox="0 0 36 24" fill="none" xmlns="http://www.w3.org/2000/svg">
<rect width="36" height="24" rx="2" fill="#003DA5"/>
<path d="M18.5496 15.0099C16.7096 15.2099 15.7496 15.1599 15.7496 15.1599C15.8488 15.1759 15.9487 15.1972 16.0578 15.2204C16.4606 15.306 16.99 15.4185 18.0796 15.3949C19.4646 15.3599 22.0996 15.0349 23.1146 14.8849C24.1296 14.7399 26.5546 14.8049 26.5546 14.8049C26.2146 14.7199 24.6096 14.4649 23.1546 14.4999C22.2327 14.5253 21.3731 14.643 20.3964 14.7767C19.8315 14.854 19.2275 14.9367 18.5496 15.0099Z" fill="#00AEC7"/>
<path d="M16.5846 14.0049C14.2746 14.4499 11.7246 13.7699 11.7246 13.7699C14.0996 10.3499 14.4746 6.12494 14.4746 6.12494C19.4996 8.77994 24.2996 13.7899 24.2996 13.7899C24.2996 13.7899 23.0746 13.4949 21.9046 13.5049C21.8827 13.5049 21.8606 13.5049 21.8384 13.5049C20.6767 13.5047 19.1506 13.5045 16.5846 14.0049Z" fill="#00AEC7"/>
<path d="M23.9422 15.4893C23.2574 16.7779 22.1977 17.8283 20.9031 18.5016C19.6084 19.1749 18.1399 19.4394 16.6917 19.2601L16.6075 19.9399C18.1934 20.1362 19.8014 19.8466 21.2191 19.1093C22.6368 18.372 23.7973 17.2218 24.5471 15.8107L23.9422 15.4893Z" fill="#00AEC7"/>
<path d="M18.3184 4.41643L18.2237 4.00043L18.057 4.39371L17.6302 4.36379L17.9535 4.63887L17.7918 5.03192L18.157 4.81447L18.4803 5.08955L18.3806 4.67378L18.7455 4.45135L18.3184 4.41643Z" fill="white"/>
<path d="M21.0352 4.74719L20.9775 5.16991L21.365 5.35288L20.9451 5.43269L20.8922 5.85695L20.6863 5.48571L20.268 5.56077L20.5576 5.24973L20.3518 4.87849L20.7408 5.05669L21.0352 4.74719Z" fill="white"/>
<path d="M23.2018 6.81089L23.4045 6.4355L23.0201 6.62164L22.7186 6.31794L22.7807 6.73788L22.4001 6.92713L22.8181 7.00405L22.8802 7.42399L23.079 7.04549L23.5001 7.1185L23.2018 6.81089Z" fill="white"/>
<path d="M24.7069 9.12945L25.0288 8.8494L24.6034 8.88838L24.4281 8.49802L24.3384 8.91295L23.9157 8.95621L24.2798 9.17528L24.1902 9.5902L24.5095 9.30587L24.878 9.52237L24.7069 9.12945Z" fill="white"/>
<path d="M25.6993 11.6804L25.2995 11.8292L25.3214 12.2572L25.0526 11.9249L24.6537 12.0787L24.8836 11.7219L24.6198 11.3887L25.0308 11.4969L25.2607 11.1401L25.2875 11.5672L25.6993 11.6804Z" fill="white"/>
<path d="M25.2251 13.215L25.6451 13.14L25.2601 12.955L25.3101 12.53L25.0201 12.84L24.6351 12.66L24.8351 13.035L24.5451 13.345L24.9651 13.265L25.1701 13.64L25.2251 13.215Z" fill="white"/>
<path d="M9.91141 13.1163L9.52737 13.3021L9.94807 13.376L10.0149 13.7987L10.2102 13.4218L10.6296 13.4909L10.3356 13.184L10.5309 12.8071L10.1482 12.9978L9.84935 12.6922L9.91141 13.1163Z" fill="white"/>
<path d="M25.4913 10.2348L25.1245 10.4527L25.2226 10.8699L24.8988 10.591L24.5338 10.8137L24.6961 10.4215L24.377 10.1408L24.8007 10.1738L24.9631 9.78163L25.0658 10.1971L25.4913 10.2348Z" fill="white"/>
<path d="M22.1635 5.89013L22.2959 5.48454L21.9509 5.73642L21.6 5.49152L21.7361 5.89359L21.3956 6.14784L21.8206 6.14878L21.9567 6.55085L22.0847 6.1429L22.5121 6.13944L22.1635 5.89013Z" fill="white"/>
<path d="M24.3253 7.56933L24.0587 7.90241L24.2973 8.25841L23.896 8.11129L23.6327 8.44813L23.6467 8.02386L23.2492 7.87344L23.6575 7.75528L23.6715 7.33101L23.9138 7.68372L24.3253 7.56933Z" fill="white"/>
<path d="M15.3285 4.29067L15.5635 4.64676L15.9756 4.52916L15.7122 4.86577L15.9518 5.21988L15.5524 5.07615L15.2871 5.40817L15.3001 4.98337L14.9007 4.83964L15.3108 4.71745L15.3285 4.29067Z" fill="white"/>
<path d="M16.9307 4.40747L16.7631 4.01511L16.6695 4.43185L16.2441 4.47874L16.6114 4.69157L16.5226 5.10719L16.843 4.82796L17.2103 5.0408L17.0379 4.64956L17.3572 4.36546L16.9307 4.40747Z" fill="white"/>
<path d="M12.7212 5.58094L13.0664 5.83157L13.4108 5.5765L13.2827 5.98424L13.6316 6.2314L13.2072 6.23739L13.0756 6.64153L12.9384 6.2393L12.5139 6.2453L12.8548 5.98663L12.7212 5.58094Z" fill="white"/>
<path d="M11.1462 7.81922L10.7348 7.7061L11.0026 8.03882L10.7745 8.40089L11.1698 8.24594L11.4398 8.57415L11.4207 8.14958L11.8159 7.99463L11.4024 7.88602L11.3788 7.4593L11.1462 7.81922Z" fill="white"/>
<path d="M11.6321 6.55395L12.0166 6.7388L12.3098 6.42627L12.2567 6.85034L12.6442 7.03113L12.2276 7.11292L12.1705 7.53407L11.9635 7.16287L11.547 7.24466L11.8361 6.9292L11.6321 6.55395Z" fill="white"/>
<path d="M14.2616 5.12663L13.9667 4.81831L14.0256 5.24136L13.644 5.43491L14.0627 5.50491L14.1258 5.92519L14.3275 5.55108L14.7461 5.62108L14.4471 5.31552L14.646 4.93725L14.2616 5.12663Z" fill="white"/>
<path d="M19.6631 4.24706L19.6819 4.67329L20.0959 4.78402L19.6971 4.93762L19.7209 5.36451L19.4519 5.03606L19.0538 5.18471L19.2831 4.8269L19.0142 4.49844L19.4289 4.60421L19.6631 4.24706Z" fill="white"/>
<path d="M10.0472 10.3556L9.62232 10.3944L9.99011 10.6116L9.90399 11.0308L10.2194 10.7467L10.5876 10.9589L10.4204 10.5682L10.7358 10.2841L10.3105 10.328L10.1383 9.93681L10.0472 10.3556Z" fill="white"/>
<path d="M9.44336 11.8439L9.85444 11.7297L9.8692 11.3014L10.1086 11.6555L10.5192 11.5363L10.2596 11.8722L10.494 12.2267L10.0938 12.0837L9.83428 12.4197L9.84406 11.9918L9.44336 11.8439Z" fill="white"/>
<path d="M10.7556 15.7482L10.4615 16.0573L10.8813 15.9785L11.0926 16.3506L11.1428 15.9291L11.5597 15.8462L11.1765 15.6624L11.2267 15.2409L10.9355 15.554L10.5483 15.3731L10.7556 15.7482Z" fill="white"/>
<path d="M12.3045 18.3079L12.471 17.9151L12.145 17.6369L12.5711 17.67L12.7335 17.2744L12.8348 17.6867L13.2581 17.7239L12.8971 17.9481L12.9984 18.3603L12.6697 18.0864L12.3045 18.3079Z" fill="white"/>
<path d="M11.5157 16.909L11.2816 17.2657L11.6806 17.1131L11.955 17.4415L11.929 17.0178L12.3244 16.8617L11.9145 16.7494L11.8885 16.3257L11.658 16.6858L11.2447 16.5771L11.5157 16.909Z" fill="white"/>
<path d="M9.86983 14.7219L10.2144 14.4703L10.0776 14.0642L10.4262 14.3114L10.7686 14.0554L10.6439 14.4612L10.988 14.7105L10.5631 14.7175L10.4383 15.1233L10.297 14.7194L9.86983 14.7219Z" fill="white"/>
<path d="M10.4826 9.03788L10.0576 9.00014L10.3806 9.27961L10.2209 9.67663L10.5821 9.45351L10.9064 9.72816L10.8117 9.31384L11.1728 9.09072L10.7466 9.0578L10.6471 8.64217L10.4826 9.03788Z" fill="white"/>
<path d="M13.4979 19.1502L13.5915 18.734L13.221 18.5186L13.6462 18.4749L13.7352 18.0567L13.9086 18.4442L14.3318 18.4052L14.0167 18.6903L14.1901 19.0778L13.8176 18.867L13.4979 19.1502Z" fill="white"/>
<path d="M14.8405 19.3394L14.8228 19.7656L15.0868 19.4298L15.4909 19.5706L15.251 19.2204L15.51 18.8835L15.1006 18.9976L14.8607 18.6473L14.8479 19.0747L14.4375 19.1937L14.8405 19.3394Z" fill="white"/>
<path d="M25.715 14.425C25.715 14.425 24.45 13.86 21.9 13.85C20.4748 13.8444 18.9996 14.0621 17.7145 14.2518C16.7003 14.4016 15.8044 14.5338 15.145 14.525L15.0285 14.5238C13.6215 14.5099 13.1814 14.5055 12.31 14.34C12.31 14.34 13.66 14.79 15.1 14.92C15.9932 15.004 17.6188 14.7819 19.1192 14.577C20.0292 14.4526 20.8933 14.3346 21.52 14.295C23.22 14.19 24.54 14.19 25.71 14.425H25.715Z" fill="white"/>
<path fill-rule="evenodd" clip-rule="evenodd" d="M15.7919 9.4899C15.8668 9.53118 15.9323 9.58737 15.9846 9.65498V9.65998C16.0546 9.74998 15.7396 9.97998 15.7396 9.97998C15.7396 9.97998 15.7696 10.17 15.6196 10.345C15.6196 10.345 15.5996 9.68998 15.2096 9.76498C15.2096 9.76498 15.4596 10.01 15.4846 10.145C15.4996 10.275 15.3846 10.5 15.3846 10.5C15.3846 10.5 15.1746 10.295 15.1646 10.2C15.1613 10.1693 15.1633 10.1355 15.1655 10.0989C15.17 10.0222 15.1752 9.93317 15.1346 9.83498L15.1246 9.82498C15.0389 10.485 14.7527 11.1029 14.3046 11.595C14.1463 11.7832 14.0722 11.7738 14.0197 11.7672C14.0108 11.766 14.0025 11.765 13.9946 11.765C13.8946 11.755 13.8496 11.675 13.9196 11.605C13.926 11.599 13.939 11.5889 13.9575 11.5746C14.1392 11.4338 14.8489 10.8838 15.0396 9.78998L14.4946 10.075C14.4946 10.075 14.4796 9.60998 15.0696 9.67498C15.0696 9.67498 14.7346 9.61498 14.5696 9.35998C14.5696 9.35998 14.6746 9.14498 15.0646 9.14498C15.0646 9.14498 15.1396 9.05998 15.1996 9.06498C15.3092 9.08224 15.4144 9.1212 15.5088 9.17958C15.6033 9.23796 15.6851 9.31459 15.7496 9.40498C15.7496 9.40498 15.5096 9.22998 15.3096 9.27998C15.3096 9.27998 15.3696 9.33998 15.4096 9.46998C15.4096 9.46998 15.3246 9.42998 15.2246 9.41998C15.2246 9.41998 15.1996 9.48998 15.2496 9.58998C15.2496 9.58998 15.4596 9.41498 15.5496 9.41498C15.6346 9.42312 15.7171 9.44862 15.7919 9.4899ZM15.2946 9.64998C15.6396 9.60998 15.7096 9.87498 15.7096 9.87498H15.7146C15.7346 9.66998 15.7146 9.65498 15.6146 9.59998C15.5146 9.54998 15.2946 9.64998 15.2946 9.64998ZM14.9846 9.38998C14.9496 9.37998 14.8746 9.40498 14.8746 9.40498C14.9546 9.59998 15.1446 9.61498 15.1446 9.61498C15.0346 9.55498 14.9846 9.38998 14.9846 9.38998Z" fill="white"/>
</svg>
