<svg width="36" height="24" viewBox="0 0 36 24" fill="none" xmlns="http://www.w3.org/2000/svg">
<g clip-path="url(#clip0_11930_68245)">
<rect width="36" height="24" rx="2" fill="white"/>
<path fill-rule="evenodd" clip-rule="evenodd" d="M0 18H36V24H0V18ZM0 0H36V6H0V0Z" fill="#DE2010"/>
<path fill-rule="evenodd" clip-rule="evenodd" d="M15.8651 17.04C15.8651 17.04 16.4051 16.6 16.9351 16.6C17.4651 16.6 17.6051 16.965 17.9751 16.995C18.3401 17.025 18.6451 16.63 19.1001 16.615C19.5551 16.6 20.1251 16.935 20.1251 16.935L18.1351 17.535L15.8651 17.035V17.04ZM14.7201 16.39L21.4901 16.425C21.4901 16.425 20.9051 15.79 20.2151 15.775C19.5251 15.765 19.7151 16.075 19.1901 16.115C18.6601 16.16 18.5301 15.795 18.0451 15.805C17.5651 15.82 17.2851 16.115 16.9201 16.13C16.5501 16.145 16.0851 15.765 15.8051 15.78C15.5251 15.795 14.5301 16.215 14.5301 16.215L14.7201 16.395V16.39ZM13.8551 15.59L22.2051 15.615C22.3401 15.425 21.7951 14.97 21.3001 14.93C20.8901 14.945 20.6001 15.355 20.2601 15.37C19.9201 15.385 19.5401 14.945 19.1601 14.96C18.7801 14.975 18.3851 15.37 18.0051 15.37C17.6201 15.37 17.3451 14.945 16.8601 14.945C16.3751 14.945 16.1601 15.41 15.7901 15.385C15.4251 15.355 15.1001 14.915 14.7501 14.915C14.4001 14.915 13.8151 15.44 13.7001 15.415C13.5801 15.38 13.8451 15.63 13.8551 15.585V15.59Z" fill="#083D9C" stroke="#083D9C" stroke-width="0.133333"/>
<path fill-rule="evenodd" clip-rule="evenodd" d="M17.0648 10.9451L18.9848 11.4551V8.71508C18.1048 8.76508 17.3748 7.04508 18.9248 6.93008C17.3998 6.71008 17.2248 7.10508 17.0498 7.53008L17.0648 10.9451Z" fill="#FF0000" stroke="black" stroke-width="0.125" stroke-linejoin="round"/>
<path fill-rule="evenodd" clip-rule="evenodd" d="M15.8496 12.9351L20.1846 12.9501L15.8496 12.9351Z" fill="#083D9C"/>
<path d="M15.8496 12.9351L20.1846 12.9501" stroke="#083D9C" stroke-width="0.25" stroke-linecap="round"/>
<path d="M16.0547 11.9001L16.5697 12.5851M16.0547 12.5851L16.6097 11.9101M16.3497 11.8501L16.3347 12.2751M16.8747 11.8951L17.3897 12.5851M16.8747 12.5851L17.4297 11.9101M17.1697 11.8501L17.1547 12.2751M17.7097 11.8951L18.2247 12.5851M17.7097 12.5851L18.2647 11.9101M18.0047 11.8501L17.9897 12.2751M18.5747 11.8951L19.0847 12.5851M18.5747 12.5851L19.1297 11.9101M18.8647 11.8501L18.8547 12.2751M19.4047 11.8951L19.9197 12.5851M19.4097 12.5851L19.9647 11.9101M19.6997 11.8501L19.6847 12.2751" stroke="black" stroke-width="0.2" stroke-linecap="round"/>
<path fill-rule="evenodd" clip-rule="evenodd" d="M12.9352 12.98L14.7802 12.995V11.84L12.6702 11.735L12.9352 12.98ZM12.8452 11.38L14.8102 11.575L14.7952 10.755L12.8752 9.98999L12.8452 11.385V11.38ZM13.2452 9.74499L14.7502 10.475L14.9652 10.25C14.9652 10.25 14.8252 10.155 14.8352 10.065C14.8352 9.97999 14.9752 9.96499 14.9752 9.86499C14.9752 9.77999 14.8252 9.76499 14.8202 9.67999C14.8102 9.57999 14.9402 9.47999 14.9402 9.47999L13.5802 8.29499L13.2402 9.74499H13.2452ZM23.1452 12.995H21.1952L21.1802 11.865L23.3202 11.705L23.1452 12.995ZM21.2102 11.6L23.5252 11.32L23.0252 9.98499L21.1952 10.765L21.2102 11.6ZM22.8952 9.61999L21.2252 10.5C21.2002 10.4 21.1802 10.31 21.0652 10.235C21.0652 10.235 21.1652 10.175 21.1652 10.075C21.1652 9.97499 21.0352 9.95499 21.0352 9.89999C21.0352 9.84499 21.1552 9.78999 21.1652 9.65499C21.1502 9.56499 21.0352 9.43499 21.0552 9.40999L22.3552 8.41999L22.8952 9.61999ZM19.2752 11.575L20.1102 11.54L20.1252 11.205L19.2752 11.575ZM16.7252 11.55L15.8502 11.525V11.175L16.7302 11.55H16.7252ZM16.7252 11.45L15.8502 11V10.41C15.8502 10.41 15.7502 10.425 15.7602 10.31C15.7652 10.065 16.4052 10.755 16.7302 10.98L16.7252 11.45ZM19.2752 11.395V11.01C19.2752 11.01 20.0652 10.3 20.2302 10.165C20.2302 10.315 20.1402 10.425 20.1402 10.425V10.985L19.2752 11.395ZM14.1502 8.18999L15.0402 9.17499C15.0602 9.08499 15.2652 9.06999 15.4702 9.08499C15.6702 9.09999 15.8352 9.06999 15.8352 9.21499C15.8352 9.35999 15.7352 9.33999 15.7352 9.44499C15.7352 9.54999 15.8852 9.53999 15.8852 9.66999C15.8852 9.79999 15.7752 9.77499 15.7752 9.87499C15.7752 9.95999 15.8952 9.96499 15.8952 9.96499L16.7252 10.77V9.90999L15.0152 7.22499L14.1502 8.18999ZM15.5202 7.16999L16.6852 9.54499C16.6852 9.54499 16.6952 7.35499 16.8902 7.23999L16.5652 6.63999L15.5202 7.16999ZM20.5702 7.26499L19.2702 9.57499V8.59999C19.2702 8.59999 19.3802 8.43999 19.2102 8.44999C19.0402 8.46499 18.8352 8.43999 18.8352 8.43999L19.3552 6.60999L20.5702 7.26499ZM21.9002 8.24999C21.8852 8.27499 21.0252 9.14999 21.0252 9.14999C20.9852 9.04999 20.7252 9.09999 20.4752 9.09999C20.2302 9.09999 20.1952 9.17999 20.2102 9.24499C20.2352 9.40999 20.3202 9.28499 20.3202 9.44499C20.3202 9.59999 20.2002 9.54499 20.1852 9.65499C20.2002 9.78999 20.3752 9.75499 20.2702 9.85499L19.2752 10.815V9.90499L21.1302 7.02499L21.9002 8.24999Z" fill="#EF7D08"/>
<path fill-rule="evenodd" clip-rule="evenodd" d="M17.4898 13.42C17.0748 14.11 15.9598 13.905 15.6948 13.42C15.6198 13.4 15.6648 10.445 15.6648 10.445C15.6648 10.445 15.5398 10.39 15.5348 10.295C15.5298 10.205 15.7048 10.195 15.7048 10.08C15.7048 9.96503 15.5248 10.01 15.5198 9.89003C15.5198 9.78003 15.7148 9.79003 15.7048 9.69003C15.6948 9.57003 15.4898 9.59003 15.4798 9.48003C15.4798 9.39503 15.6298 9.32003 15.6698 9.28003C15.6231 9.2811 15.5765 9.2811 15.5298 9.28003L15.2098 9.28503C14.9798 9.28503 15.2098 9.33503 15.2098 9.46503C15.2098 9.55003 15.0948 9.61003 15.0848 9.68003C15.0798 9.76003 15.2448 9.81003 15.2498 9.90503C15.2498 9.98503 15.0848 9.99003 15.0898 10.07C15.0998 10.195 15.2398 10.225 15.2348 10.305C15.2348 10.38 15.0548 10.41 15.0498 10.47C15.0598 10.59 15.0798 13.51 15.0798 13.51C15.3648 15 17.0198 15.375 17.4898 13.42ZM18.5848 13.42C18.9998 14.11 20.1148 13.905 20.3748 13.42C20.4548 13.4 20.4098 10.445 20.4098 10.445C20.4098 10.445 20.5348 10.39 20.5398 10.295C20.5448 10.205 20.3798 10.195 20.3798 10.08C20.3798 9.96503 20.5498 10.01 20.5498 9.89003C20.5498 9.78003 20.3748 9.79003 20.3848 9.68003C20.3948 9.56503 20.5348 9.58003 20.5398 9.47003C20.5448 9.37503 20.4548 9.32003 20.4098 9.28003H20.5448L20.8648 9.28503C21.0898 9.28503 20.8648 9.33503 20.8648 9.46503C20.8648 9.55003 20.9798 9.61003 20.9898 9.68003C20.9898 9.76003 20.8298 9.81003 20.8248 9.90503C20.8248 9.98503 20.9898 9.99003 20.9848 10.07C20.9748 10.195 20.8348 10.225 20.8348 10.305C20.8398 10.38 21.0198 10.41 21.0198 10.47L20.9948 13.51C20.7098 15 19.0498 15.375 18.5848 13.42Z" fill="#FF0000" stroke="black" stroke-width="0.125" stroke-linejoin="round"/>
<path fill-rule="evenodd" clip-rule="evenodd" d="M17.0855 14.78H18.9505C18.9655 14.765 18.5305 14.13 18.0205 14.18C17.4455 14.195 17.0555 14.78 17.0855 14.78ZM23.0305 14.73H20.4805C20.4805 14.73 20.8105 14.54 20.9005 14.36C21.0655 14.45 21.0205 14.54 21.3505 14.555C21.6805 14.57 21.9955 14.18 22.3105 14.195C22.6255 14.21 23.0305 14.745 23.0305 14.735V14.73ZM12.9805 14.73H15.5305C15.5305 14.73 15.2005 14.54 15.1105 14.36C14.9455 14.45 14.9905 14.54 14.6605 14.555C14.3305 14.57 14.0105 14.18 13.7005 14.195C13.3855 14.21 12.9805 14.745 12.9805 14.735V14.73ZM13.1705 13.93L14.9855 13.945C14.9855 13.945 14.8705 13.695 14.8555 13.39C14.3855 13.23 14.0055 13.74 13.6655 13.755C13.3305 13.77 12.9805 13.39 12.9805 13.39L13.1705 13.93ZM22.8705 13.93L21.0505 13.945C21.0505 13.945 21.1655 13.695 21.1805 13.39C21.6505 13.23 22.0305 13.74 22.3705 13.755C22.7055 13.77 23.0555 13.39 23.0555 13.39L22.8705 13.93ZM17.5505 13.95L18.4705 13.925C18.4705 13.925 18.4855 13.645 18.0055 13.645C17.5255 13.645 17.5655 13.965 17.5505 13.95ZM16.9905 13.555C17.1661 13.4782 17.3106 13.3443 17.4005 13.175L16.7705 13.19C16.7705 13.19 16.4805 13.365 16.3355 13.555H16.9905ZM19.0305 13.555C18.8549 13.4782 18.7104 13.3443 18.6205 13.175L19.2505 13.19C19.2505 13.19 19.5405 13.365 19.6855 13.555H19.0305Z" fill="#083D9C" stroke="#083D9C" stroke-width="0.133333"/>
</g>
<defs>
<clipPath id="clip0_11930_68245">
<rect width="36" height="24" rx="2" fill="white"/>
</clipPath>
</defs>
</svg>
