<svg width="36" height="24" viewBox="0 0 36 24" fill="none" xmlns="http://www.w3.org/2000/svg">
<g clip-path="url(#clip0_11930_68270)">
<path d="M0 0H36V12H0V0Z" fill="#0038A8"/>
<path d="M0 12H36V24H0V12Z" fill="#CE1126"/>
<path d="M20.785 12L0 24V0" fill="white"/>
<path d="M1.33422 2.11987L2.04922 2.74987L2.87922 2.28987L2.50922 3.16487L3.20922 3.81487L2.25922 3.73487L1.85422 4.59487L1.63922 3.66987L0.699219 3.54987L1.51422 3.04987L1.33422 2.11987ZM17.5242 10.7349L17.5442 11.6849L18.4442 11.9999L17.5442 12.3099L17.5242 13.2599L16.9492 12.5049L16.0392 12.7799L16.5792 11.9999L16.0392 11.2199L16.9492 11.4949L17.5242 10.7349ZM1.85922 19.4049L2.25922 20.2649L3.20922 20.1849L2.51422 20.8349L2.88422 21.7099L2.05422 21.2549L1.33422 21.8749L1.51422 20.9399L0.699219 20.4499L1.64422 20.3299L1.85922 19.4049ZM7.56922 6.95487L7.25922 7.26487L7.41422 9.61487L7.26422 9.62987L6.97922 7.48487L6.72422 7.73487L7.10422 9.65487C6.79695 9.71535 6.50468 9.836 6.24422 10.0099L5.15922 8.38987H4.79922L6.11922 10.1049C6.07814 10.1369 6.03812 10.1702 5.99922 10.2049L4.44422 8.42987H4.00422V8.86987L5.77422 10.4199L5.67422 10.5449L3.95922 9.22987V9.58487L5.58422 10.6699C5.41422 10.9299 5.28922 11.2199 5.22922 11.5299L3.31422 11.1499L3.05922 11.3999L5.20422 11.6849C5.19422 11.7349 5.18922 11.7899 5.18922 11.8399L2.83922 11.6899L2.52922 11.9999L2.83922 12.3099L5.18922 12.1549L5.20422 12.3099L3.05922 12.5949L3.30922 12.8449L5.22922 12.4649C5.2897 12.7721 5.41034 13.0644 5.58422 13.3249L3.95922 14.4099V14.7699L5.67422 13.4549C5.70624 13.4959 5.73959 13.536 5.77422 13.5749L4.00422 15.1249V15.5649H4.44922L5.99922 13.7949L6.12422 13.8949L4.79922 15.6099H5.15922L6.24422 13.9849C6.49922 14.1549 6.79422 14.2799 7.10422 14.3399L6.72422 16.2599L6.97422 16.5099L7.25922 14.3649C7.30922 14.3749 7.35922 14.3799 7.41422 14.3799L7.26422 16.7299L7.56922 17.0399L7.88422 16.7299L7.72922 14.3799L7.87922 14.3649L8.16422 16.5149L8.41922 16.2599L8.03922 14.3399C8.34649 14.2794 8.63876 14.1587 8.89922 13.9849L9.98422 15.6099H10.3442L9.02422 13.8949C9.06529 13.8629 9.10531 13.8295 9.14422 13.7949L10.6992 15.5649H11.1392V15.1249L9.36922 13.5749L9.46922 13.4549L11.1842 14.7699V14.4099L9.55922 13.3249C9.72922 13.0699 9.85422 12.7749 9.91422 12.4649L11.8292 12.8449L12.0842 12.5949L9.93922 12.3099C9.94922 12.2599 9.95422 12.2099 9.95422 12.1549L12.3042 12.3049L12.6142 11.9999L12.3042 11.6899L9.95422 11.8399L9.93922 11.6899L12.0842 11.4049L11.8342 11.1549L9.91422 11.5299C9.85374 11.2226 9.73309 10.9303 9.55922 10.6699L11.1842 9.58487V9.22987L9.46922 10.5449C9.4372 10.5038 9.40384 10.4638 9.36922 10.4249L11.1392 8.87487V8.42987H10.6992L9.14922 10.2049C9.10868 10.1702 9.06699 10.1368 9.02422 10.1049L10.3442 8.38987H9.98422L8.89922 10.0099C8.64422 9.83987 8.34922 9.71487 8.03922 9.65487L8.41922 7.73987L8.16922 7.48987L7.88422 9.62987L7.72922 9.61487L7.87922 7.26487L7.56922 6.95487Z" fill="#FCD116"/>
</g>
<defs>
<clipPath id="clip0_11930_68270">
<rect width="36" height="24" rx="2" fill="white"/>
</clipPath>
</defs>
</svg>
