<svg width="36" height="24" viewBox="0 0 36 24" fill="none" xmlns="http://www.w3.org/2000/svg">
<g clip-path="url(#clip0_11930_68267)">
<path fill-rule="evenodd" clip-rule="evenodd" d="M0 -6.10352e-05H36V23.9999H0V-6.10352e-05Z" fill="#06561E"/>
<path fill-rule="evenodd" clip-rule="evenodd" d="M0 0H10V24H0V0Z" fill="white"/>
<path d="M26.9131 14.3518C26.9143 14.3491 26.9155 14.3464 26.9168 14.3437H26.9215C26.9187 14.3464 26.9159 14.3491 26.9131 14.3518Z" fill="white"/>
<path d="M25.612 16.1455C26.1592 15.6388 26.6013 15.0293 26.9131 14.3518C25.9317 15.2939 24.6235 15.8196 23.2628 15.8184C21.8982 15.8172 20.5873 15.2861 19.6067 14.3371C18.6261 13.3881 18.0524 12.0954 18.0064 10.7315C17.9605 9.3677 18.446 8.03932 19.3605 7.0265C19.536 6.84681 19.7206 6.67628 19.9137 6.51556C19.1764 6.75667 18.4977 7.14939 17.9213 7.66848C17.3449 8.18757 16.8835 8.82154 16.5668 9.52963C15.929 10.9071 15.8646 12.4815 16.3876 13.9065C16.9107 15.3315 17.9784 16.4903 19.3558 17.1281C20.0348 17.4439 20.7694 17.6224 21.5176 17.6533C22.2657 17.6842 23.0126 17.5669 23.7153 17.3081C24.418 17.0493 25.0625 16.6542 25.612 16.1455Z" fill="white"/>
<path d="M24.9057 10.2561L26.3682 10.5655H26.3729L25.3885 9.44051L26.1338 8.14676L24.7604 8.72801L23.7572 7.62177L23.8838 9.1077L22.5244 9.71708L23.9775 10.0546L24.1369 11.5358L24.9057 10.2561Z" fill="white"/>
</g>
<defs>
<clipPath id="clip0_11930_68267">
<rect width="36" height="24" rx="2" fill="white"/>
</clipPath>
</defs>
</svg>
