<svg width="36" height="24" viewBox="0 0 36 24" fill="none" xmlns="http://www.w3.org/2000/svg">
<rect width="36" height="24" rx="2" fill="#00247D"/>
<path d="M0 0H16V12H0V0Z" fill="#012169"/>
<path d="M1.875 0L7.975 4.525L14.05 0H16V1.55L10 6.025L16 10.475V12H14L8 7.525L2.025 12H0V10.5L5.975 6.05L0 1.6V0H1.875Z" fill="white"/>
<path d="M10.6 7.025L16 11V12L9.225 7.025H10.6ZM6 7.525L6.15 8.4L1.35 12H0L6 7.525ZM16 0V0.075L9.775 4.775L9.825 3.675L14.75 0H16ZM0 0L5.975 4.4H4.475L0 1.05V0Z" fill="#C8102E"/>
<path d="M6.025 0V12H10.025V0H6.025ZM0 4V8H16V4H0Z" fill="white"/>
<path d="M0 4.825V7.225H16V4.825H0ZM6.825 0V12H9.225V0H6.825Z" fill="#C8102E"/>
<path d="M22.5047 12.6149C22.0541 12.9709 21.7227 13.4558 21.5547 14.0049C21.2697 15.3699 20.8897 15.6749 20.3047 15.3799C20.3047 16.1149 20.9497 16.1699 21.2297 15.7449C21.2297 16.4299 21.4797 17.0249 22.0397 17.5349C22.2797 17.7499 22.3247 17.6049 22.2097 17.3649C22.0997 17.1299 22.0997 16.3649 21.8747 15.9249C22.2347 16.1799 22.7647 16.0349 22.7247 15.3249C22.2597 15.5949 21.7997 15.5849 21.7497 14.9399C21.6947 14.1899 21.9847 13.0899 22.5047 12.6149ZM21.9547 7.18493C21.9897 6.90993 21.9297 6.63493 21.7297 6.45993C21.3497 6.12493 20.9747 6.23493 20.6947 6.50993C20.2797 6.27993 20.0547 7.07993 19.5847 6.94493C19.6597 7.20493 19.7847 7.31493 20.0247 7.22493C19.7747 7.44993 20.0247 7.72493 19.7297 7.99493C20.2597 8.16493 20.5397 7.86993 20.5197 7.35993C20.5667 7.40323 20.6218 7.43672 20.6819 7.45844C20.742 7.48015 20.8058 7.48966 20.8696 7.4864C20.9334 7.48314 20.9959 7.46718 21.0534 7.43945C21.111 7.41173 21.1624 7.37279 21.2047 7.32493C20.9247 7.23493 20.9247 6.98993 21.0347 6.76493C21.2047 6.42493 21.9997 6.43993 21.9547 7.18493Z" fill="#F7E017" stroke="black" stroke-width="0.02"/>
<path d="M23.1798 11.105C22.5798 11.425 21.4898 11.29 21.3848 10.505C21.2848 9.72998 22.0398 9.37998 22.2448 9.27998C22.5598 9.11998 22.8098 9.40498 22.7048 9.72998C23.0548 9.60998 23.1348 9.19998 22.9648 8.96498C23.4298 8.99998 23.8548 8.64998 24.0348 8.15498C23.8748 8.30498 23.4348 8.20498 23.0698 8.17998C23.1798 8.05498 23.1798 7.81498 23.1448 7.68998C22.7648 8.08498 22.2098 7.90498 21.4798 9.03998C21.6514 8.42469 21.8114 7.80625 21.9598 7.18498C21.9998 6.43498 21.2098 6.42498 21.0398 6.76498C21.2248 6.97498 21.1248 7.21498 21.0598 7.58998C20.9798 8.02498 20.8098 9.03998 20.6648 9.37998C20.6198 8.84998 20.2698 8.81498 20.2048 8.55498C20.1048 8.62498 20.0448 8.80498 20.0698 8.92998C19.9448 8.79498 19.5148 8.96498 19.3548 8.75998C19.1898 9.09497 19.4548 9.43498 19.7398 9.58498C19.5748 9.59497 19.5398 9.78998 19.3548 9.78998C19.5998 10.075 19.8498 10.19 20.1348 10.21C20.4248 10.23 20.6348 10.34 20.8098 10.69C21.0948 11.255 22.1698 11.62 23.1798 11.105Z" fill="#337321" stroke="black" stroke-width="0.02"/>
<path d="M24.6697 10.4199C24.3297 11.3549 23.4047 12.0199 22.9897 12.1199C22.2797 12.2949 20.8297 12.9999 20.4397 13.3599C20.3827 13.3488 20.3283 13.3267 20.2797 13.2949C20.0897 13.1599 19.9297 12.7199 20.2697 12.3449C21.3297 11.3549 22.4697 11.7849 23.1797 11.1049C22.5797 11.4199 21.4897 11.2849 21.3897 10.5049C21.8746 10.631 22.3847 10.6221 22.865 10.4794C23.3452 10.3366 23.7774 10.0654 24.1147 9.69495C24.3202 9.91897 24.5043 10.1617 24.6647 10.4199H24.6697Z" fill="#F7E017" stroke="black" stroke-width="0.02"/>
<path d="M22.5041 12.6148C21.9691 13.0648 21.6941 14.1848 21.7491 14.9398C21.7641 15.1498 21.8241 15.2898 21.9141 15.3798C21.9541 14.9498 22.2491 13.8448 23.0141 13.3498C23.6541 12.9348 24.6591 11.9998 25.0291 10.9248C24.9576 10.7286 24.8172 10.5651 24.6341 10.4648C24.2641 11.4748 23.2791 11.9598 22.5041 12.6148Z" fill="#337321" stroke="black" stroke-width="0.02"/>
<path d="M24.3248 9.98495C24.0589 10.3544 23.6977 10.6447 23.2798 10.825C23.3586 10.729 23.4027 10.6091 23.4048 10.485C22.7457 10.6732 22.0483 10.6818 21.3848 10.51C21.8704 10.637 22.3815 10.6286 22.8628 10.4858C23.344 10.343 23.777 10.0713 24.1148 9.69995C24.2004 9.78238 24.2714 9.87875 24.3248 9.98495Z" fill="#316D3A" stroke="black" stroke-width="0.02"/>
<path d="M20.2698 12.35C19.4098 13.15 19.9798 13.86 20.3198 14.015C20.2248 14.58 20.7548 14.515 20.7448 14.985C20.9598 14.865 21.0148 14.535 20.9798 14.275C21.2548 14.57 21.9398 14.24 22.0848 14.785C22.1798 14.185 21.7148 13.585 21.1398 13.645C21.3798 13.43 21.2398 13.08 21.0148 12.99C20.9698 13.43 20.4748 13.43 20.2848 13.29C20.0898 13.16 19.9348 12.72 20.2698 12.345V12.35Z" fill="#337321" stroke="black" stroke-width="0.02"/>
<path d="M22.1347 17.4799C22.0447 17.5299 22.0497 17.6549 22.1097 17.7299C22.2247 17.8899 22.0247 18.2499 22.4097 18.3249C22.5197 18.3499 22.6097 18.2749 22.6497 18.1499C22.7697 17.7949 22.3897 17.7549 22.3547 17.5849C22.3247 17.4149 22.2147 17.4349 22.1347 17.4799Z" fill="#F7E017" stroke="black" stroke-width="0.02"/>
<path d="M22.4598 18.1449C22.3348 18.2049 22.2198 18.2849 22.2748 18.6949C22.2948 18.8599 22.2848 19.2649 22.1348 19.2699C22.2248 19.3199 22.4198 19.3699 22.4998 19.2599C22.5748 19.3899 22.7498 19.3499 22.8148 19.1949C22.9048 19.2649 23.0298 19.1449 23.0298 19.0349C23.1048 19.0849 23.2648 19.0149 23.2248 18.7699C23.3248 18.8049 23.4448 18.7349 23.4898 18.6749C23.3498 18.6449 22.9898 18.4549 22.9098 18.3049C22.8248 18.1499 22.6098 18.0749 22.4598 18.1449Z" fill="#F7E017" stroke="black" stroke-width="0.02"/>
<path d="M20.5 6.73488C20.56 6.65488 20.625 6.57488 20.7 6.50488M22.65 8.22988C22.75 8.17488 22.9 8.16488 23.07 8.17988M22.5 19.2599C22.46 19.2049 22.445 18.9699 22.47 18.8249M22.815 19.1949C22.75 19.1449 22.635 18.9799 22.615 18.8399M23.03 19.0349C22.8838 18.9205 22.7743 18.7658 22.715 18.5899M23.225 18.7699C23.13 18.7499 22.845 18.5649 22.725 18.3699" stroke="black" stroke-width="0.02"/>
<path d="M28.4247 12.3599C29.8097 13.5199 29.8997 14.4449 29.6897 14.9849C29.5747 14.4799 28.9997 13.6899 28.3997 13.4849L28.4247 12.3599Z" fill="#F7E017" stroke="black" stroke-width="0.02"/>
<path d="M25.9441 11.7H28.5141V14.75C28.5141 17.345 27.0741 18.875 25.6041 19.69C24.7063 19.2207 23.9581 18.509 23.4445 17.6357C22.931 16.7625 22.6727 15.7627 22.6991 14.75V11.7H24.4991C24.4991 11.86 24.5191 12.1 24.6991 12.335C25.1291 12.295 25.6091 11.975 25.9441 11.705V11.7Z" fill="#337321" stroke="black" stroke-width="0.02"/>
<path d="M28.5146 11.7V14.75C28.5146 15.53 28.3846 16.22 28.1646 16.815L25.5996 12.13L23.0496 16.815C22.8246 16.215 22.6946 15.53 22.6946 14.75V11.7H28.5146Z" fill="#006EC7" stroke="black" stroke-width="0.02"/>
<path d="M28.2396 16.595C28.184 16.7645 28.1206 16.9313 28.0496 17.095L25.5996 12.55L23.1646 17.1C23.0996 16.96 23.0196 16.735 22.9746 16.6L25.6096 11.72L28.2396 16.595Z" fill="#F7E017"/>
<path d="M26.7642 18.265L27.0142 18.38C27.1432 18.0669 27.1814 17.7238 27.1242 17.39C26.9792 17.76 26.4842 17.75 26.3492 17.975C26.4292 18.015 26.5092 18.075 26.5742 18.12C26.4042 18.29 26.0092 18.57 25.7842 18.64V16.22C25.7842 16.05 25.7242 15.91 25.7242 15.77V15.27C25.7242 15.155 25.7042 14.99 25.6042 14.99C25.5042 14.99 25.4792 15.155 25.4792 15.27V15.77C25.4792 15.91 25.4242 16.07 25.4242 16.22V18.64C25.2992 18.28 24.8142 18.4 24.5892 18.04C24.6777 18.0192 24.7694 18.0158 24.8592 18.03C24.6892 17.455 24.2242 17.41 24.1392 17.24C24.1392 17.48 24.0392 18.03 24.1942 18.27C24.2292 18.225 24.2842 18.18 24.3442 18.145C24.5392 18.56 25.3992 18.56 25.6042 19.25C25.7692 19 26.3542 18.7 26.7642 18.265Z" fill="#F7E017" stroke="black" stroke-width="0.02"/>
<path d="M25.6047 16.25C25.7947 16.25 26.4047 16.19 26.6247 16.19C26.6847 16.19 26.7297 16.1 26.7297 15.995C26.7297 15.895 26.6847 15.805 26.6297 15.805C26.4047 15.805 25.7997 15.745 25.6047 15.745C25.4147 15.745 24.8047 15.805 24.5847 15.805C24.5247 15.805 24.4797 15.89 24.4797 15.995C24.4797 16.1 24.5297 16.19 24.5797 16.19C24.8047 16.19 25.4147 16.25 25.6047 16.25ZM25.4797 15.26C25.4397 15.225 25.3897 15.21 25.3297 15.21C25.1997 15.21 25.0947 15.3 25.0947 15.415C25.0947 15.535 25.1997 15.63 25.3297 15.63C25.4547 15.63 25.5597 15.53 25.5597 15.415C25.5597 15.325 25.6897 15.325 25.6897 15.415C25.6897 15.6 25.5297 15.75 25.3297 15.75C25.1297 15.75 24.9647 15.6 24.9647 15.415C24.9647 15.235 25.1297 15.085 25.3297 15.085C25.387 15.0863 25.4432 15.1 25.4947 15.125C25.4947 15.155 25.4797 15.21 25.4797 15.26Z" fill="#F7E017" stroke="black" stroke-width="0.02"/>
<path d="M24.5847 16.1899C24.6397 16.1899 24.6847 16.0999 24.6847 15.9949C24.6847 15.8949 24.6397 15.8049 24.5847 15.8049" fill="#F7E017"/>
<path d="M24.5847 16.1899C24.6397 16.1899 24.6847 16.0999 24.6847 15.9949C24.6847 15.8949 24.6397 15.8049 24.5847 15.8049" stroke="black" stroke-width="0.02"/>
<path d="M24.6696 16.1899C24.7246 16.1899 24.7696 16.0999 24.7696 15.9949C24.7696 15.8949 24.7246 15.8049 24.6696 15.8049M25.2246 16.2249C25.2946 16.2249 25.3496 16.1249 25.3496 15.9949C25.3496 15.8699 25.2996 15.7649 25.2246 15.7649M25.3546 16.2349C25.4296 16.2349 25.4846 16.1299 25.4846 15.9949C25.4846 15.8599 25.4296 15.7549 25.3546 15.7549M25.7896 16.2399C25.8646 16.2399 25.9196 16.1299 25.9196 15.9949C25.9196 15.8599 25.8596 15.7499 25.7896 15.7499M25.9246 16.2299C25.9946 16.2299 26.0546 16.1299 26.0546 15.9949C26.0546 15.8649 25.9946 15.7599 25.9246 15.7599M26.5296 16.1899C26.5896 16.1899 26.6346 16.1049 26.6346 15.9949C26.6346 15.8849 26.5896 15.7949 26.5346 15.7949M24.3496 18.1449C24.4146 18.0999 24.4996 18.0649 24.5896 18.0449L24.3496 18.1449ZM26.6446 18.1649L26.5746 18.1149L26.6446 18.1649ZM26.7646 18.2649C26.9246 18.0949 27.0546 17.8999 27.1296 17.6799L26.7646 18.2649Z" fill="#F7E017"/>
<path d="M24.6696 16.1899C24.7246 16.1899 24.7696 16.0999 24.7696 15.9949C24.7696 15.8949 24.7246 15.8049 24.6696 15.8049M25.2246 16.2249C25.2946 16.2249 25.3496 16.1249 25.3496 15.9949C25.3496 15.8699 25.2996 15.7649 25.2246 15.7649M25.3546 16.2349C25.4296 16.2349 25.4846 16.1299 25.4846 15.9949C25.4846 15.8599 25.4296 15.7549 25.3546 15.7549M25.7896 16.2399C25.8646 16.2399 25.9196 16.1299 25.9196 15.9949C25.9196 15.8599 25.8596 15.7499 25.7896 15.7499M25.9246 16.2299C25.9946 16.2299 26.0546 16.1299 26.0546 15.9949C26.0546 15.8649 25.9946 15.7599 25.9246 15.7599M26.5296 16.1899C26.5896 16.1899 26.6346 16.1049 26.6346 15.9949C26.6346 15.8849 26.5896 15.7949 26.5346 15.7949M24.3496 18.1449C24.4146 18.0999 24.4996 18.0649 24.5896 18.0449M26.6446 18.1649L26.5746 18.1149M26.7646 18.2649C26.9246 18.0949 27.0546 17.8999 27.1296 17.6799" stroke="black" stroke-width="0.02"/>
<path d="M25.0898 13.8599C25.0898 13.7999 25.1348 13.7799 25.1898 13.7399C25.2498 13.6899 25.2748 13.6699 25.3348 13.6699H26.0748C26.1248 13.6699 26.1398 13.6849 26.1398 13.7349V14.7349C26.1398 14.7849 26.1298 14.8049 26.0748 14.8049H25.0898V13.8449" fill="white"/>
<path d="M25.0898 13.8599C25.0898 13.7999 25.1348 13.7799 25.1898 13.7399C25.2498 13.6899 25.2748 13.6699 25.3348 13.6699H26.0748C26.1248 13.6699 26.1398 13.6849 26.1398 13.7349V14.7349C26.1398 14.7849 26.1298 14.8049 26.0748 14.8049H25.0898V13.8449" stroke="black" stroke-width="0.02"/>
<path d="M25.8896 14.89C25.9896 14.89 25.9696 14.89 26.0396 14.82C26.1096 14.75 26.1046 14.755 26.1046 14.69V13.77C26.1046 13.72 26.0896 13.71 26.0396 13.71H25.3546C25.3046 13.71 25.2796 13.73 25.2196 13.775C25.1696 13.815 25.1296 13.835 25.1296 13.885V14.89H25.8896Z" fill="#E5E5E5" stroke="black" stroke-width="0.02"/>
<path d="M25.9648 14.87C25.9648 14.92 25.9498 14.935 25.8948 14.935H25.1548C25.0998 14.935 25.0898 14.92 25.0898 14.87V13.865C25.0898 13.815 25.0998 13.8 25.1548 13.8H25.8948C25.9498 13.8 25.9648 13.815 25.9648 13.865V14.87Z" fill="white" stroke="black" stroke-width="0.02"/>
<path d="M27.3998 11.1149C27.5398 11.2749 27.5898 11.4899 27.5098 11.7049H27.2998C27.3898 11.4299 27.3348 11.1749 26.9498 11.1399C26.3798 11.0899 25.7098 12.1999 24.7048 12.3349C24.4148 11.9849 24.4298 11.3199 24.8048 11.0049C24.6117 10.4722 24.3104 9.98532 23.9198 9.57492C23.743 9.54586 23.5638 9.53413 23.3848 9.53992C23.5348 9.21992 23.9498 8.88992 24.2898 8.75492C24.3438 8.67799 24.4005 8.60295 24.4598 8.52992C24.4948 8.09492 26.5598 8.29492 26.9948 8.56492C26.9948 9.05492 27.1898 10.6749 27.4048 11.1149H27.3998Z" fill="#96877D" stroke="black" stroke-width="0.02"/>
<path d="M24.8995 11.4099C24.8495 10.6599 24.5445 10.0399 24.1145 9.61993C24.2669 9.6562 24.4251 9.66162 24.5797 9.63586C24.7342 9.61009 24.8821 9.55368 25.0145 9.46993C25.3895 9.21993 26.3645 8.78993 26.7145 8.97493C26.7445 9.03993 26.7645 9.17493 26.7395 9.26993C26.6545 9.04493 25.7195 9.38993 25.4545 9.49993C25.2045 9.61493 25.0895 9.77493 25.1795 10.1299C25.0295 10.0049 25.0795 9.88993 24.9295 9.79993C24.9895 9.94493 25.0395 10.2099 25.0595 10.4249C24.9995 10.2749 24.8995 9.94493 24.6795 9.74993C24.9112 10.299 25.0073 10.8959 24.9595 11.4899C25.1095 11.4899 25.4495 11.3399 25.5795 11.2399C25.4645 11.4049 25.1195 11.5249 24.9045 11.5699C24.7947 11.747 24.7375 11.9516 24.7395 12.1599C24.7245 11.9499 24.7895 11.4449 24.8945 11.4099H24.8995ZM27.3995 11.1149C27.2095 10.9049 26.8645 10.7949 26.4195 10.9149C26.5274 10.8622 26.6417 10.8235 26.7595 10.7999C26.7445 10.6849 26.6395 10.1749 26.6195 10.0499L26.7445 9.99993C26.8095 10.3049 26.8845 10.6549 26.9345 10.7999C26.9745 10.8049 27.0645 10.8249 27.1445 10.8649C27.1095 10.7449 26.9195 9.89493 26.9245 9.80493L27.0945 9.71493C27.1457 10.1907 27.2462 10.6599 27.3945 11.1149H27.3995Z" fill="black"/>
<path d="M27.2996 11.7C27.3846 11.435 27.3296 11.175 26.9496 11.14C26.6496 11.115 26.3296 11.405 25.9496 11.705L27.2996 11.7ZM24.8046 9.27498C24.5555 9.2912 24.3054 9.26586 24.0646 9.19998C24.0746 9.14998 24.0946 9.09998 24.1196 9.03998C23.9652 9.13647 23.8226 9.25057 23.6946 9.37998C23.9646 9.43998 24.5246 9.46498 24.8046 9.27498Z" fill="#96877D" stroke="black" stroke-width="0.02"/>
<path d="M24.7995 10.9999C24.8595 11.1849 24.8995 11.3599 24.9045 11.5149M24.2845 8.75494C24.1845 8.90494 24.0945 9.06494 24.0645 9.20494C24.3059 9.26689 24.5556 9.29051 24.8045 9.27494" stroke="black" stroke-width="0.02"/>
<path d="M23.9199 9.57482C23.9899 9.58982 24.0599 9.59982 24.1199 9.61982C24.3199 9.67482 24.7349 9.67482 25.0199 9.46982C25.2999 9.26982 26.0699 8.63482 26.9349 8.56982" stroke="black" stroke-width="0.02"/>
<path d="M23.6946 9.37997C23.9646 9.43997 24.5246 9.46497 24.8046 9.27497C25.3645 8.85665 26.0288 8.60062 26.7246 8.53497" stroke="black" stroke-width="0.02"/>
<path d="M28.425 12.36C29.375 13.01 30.075 13.645 30.275 14.66C30.475 15.675 30.86 15.945 31.335 15.675C31.225 16.26 30.635 16.325 30.14 15.875C30.19 16.555 29.915 17.365 29.215 17.66C29.17 17.255 29.44 16.93 29.365 16.6C29.33 16.45 29.315 16.115 29.51 15.955C29.135 16.08 28.55 15.845 28.495 15.29C28.925 15.49 29.475 15.525 29.69 14.985C29.9 14.445 29.81 13.52 28.425 12.36ZM29.62 7.08004C29.915 6.31504 30.68 6.39504 30.94 6.72004C31.695 6.29004 31.8 7.26004 32.44 7.07004C32.43 7.25004 32.215 7.42004 31.98 7.40504C32.23 7.63004 31.88 7.97004 32.405 8.17504C31.955 8.40004 31.325 8.16504 31.155 7.54004C31.005 7.83504 30.48 7.83504 30.265 7.60004C30.725 7.47504 30.695 7.05004 30.435 6.87504C30.17 6.70504 29.71 6.77504 29.62 7.08004ZM27.335 8.77004C27.5524 9.43554 27.9362 10.0345 28.45 10.51C28.99 11.01 29.805 10.88 30.265 10.41C30.275 11.35 29.295 11.425 28.755 11.13C28.515 11 28.32 11.065 28.55 11.28C28.9 11.59 29.665 11.83 30.57 12.02C32.145 12.36 31.585 13.61 31.12 13.6C31.255 13.6 31.365 13.455 31.17 13.285C29.8 12.05 27.02 12.535 27.06 9.78504C26.77 10.51 25.56 10.225 26.125 9.37004C26.305 9.51504 26.625 9.52504 26.71 9.30004C26.78 9.12504 26.735 8.82004 26.42 8.55504C26.47 8.55504 26.585 8.55504 26.57 8.42504C26.585 8.50504 26.655 8.61504 26.835 8.57504C26.885 8.66004 26.935 8.71004 27.01 8.68004C27.025 8.68004 27.065 8.65504 27.05 8.57504C27.06 8.72504 27.24 8.78004 27.335 8.77004Z" fill="#337321" stroke="black" stroke-width="0.02"/>
<path d="M28.7496 11.1299C29.4046 11.5549 30.1496 11.5549 30.8246 10.7699C31.0396 10.5199 31.3746 10.3049 31.6146 10.2849C31.8546 10.2599 31.8396 10.0349 32.0196 9.98495C31.9096 9.95495 31.8646 9.81995 31.6946 9.83495C32.1196 9.68995 31.9946 9.34995 32.1996 9.18495C32.0296 9.24995 31.7696 8.99995 31.5246 9.31995C31.5896 9.16995 31.4996 8.99995 31.4396 8.92995C31.4646 9.09995 31.1096 9.12995 31.0396 9.55995C31.0046 9.79995 30.8696 9.78995 30.8496 9.41495C30.8346 9.14495 30.6996 8.38995 30.5496 8.00495C30.3896 7.62495 30.3496 7.09495 30.5646 7.01995C30.5337 6.9631 30.489 6.91495 30.4346 6.87995C30.1696 6.70995 29.7096 6.77995 29.6196 7.07995C29.3296 7.84995 30.1496 8.28995 30.0846 9.12495C29.9596 8.50495 28.9546 8.34495 28.9646 7.73495C28.6396 7.88495 28.6846 8.15495 28.8096 8.36995C28.6096 8.05495 28.1446 8.56995 27.7496 8.14495C27.6996 8.70995 28.1996 8.91995 28.6046 8.94495C28.4046 9.30495 28.6746 9.60995 28.9446 9.70995C28.9546 9.07995 30.2496 9.33495 30.2646 10.4199C30.2746 11.3449 29.2796 11.4199 28.7496 11.1299ZM30.5696 12.0199C32.1446 12.3599 31.5846 13.6099 31.1196 13.5999C30.8246 13.5899 30.5446 13.3449 30.5296 13.1299C30.1896 13.3099 30.2796 13.6649 30.5396 13.8049C29.8296 13.7249 29.5296 14.1899 29.5146 14.7049C29.6446 14.4649 30.0346 14.4549 30.1846 14.5049C30.3346 14.5549 30.7096 14.5799 30.8596 14.4049C30.7346 14.5149 30.9396 14.7649 30.7596 14.9549C31.3596 14.9349 31.6146 14.3799 31.5096 14.1399C32.2796 13.4399 32.1346 12.2999 30.5696 12.0199ZM29.3646 17.3799C29.4646 17.4399 29.4546 17.5799 29.3846 17.6649C29.2446 17.8349 29.4546 18.2399 29.0246 18.3149C28.8996 18.3299 28.8046 18.2499 28.7646 18.1049C28.6446 17.7049 29.0696 17.6749 29.1146 17.4899C29.1646 17.2999 29.2796 17.3249 29.3646 17.3799Z" fill="#F7E017" stroke="black" stroke-width="0.02"/>
<path d="M28.9797 18.105C29.1147 18.175 29.2347 18.275 29.1647 18.725C29.1297 18.91 29.1247 19.365 29.2897 19.375C29.1897 19.425 28.9697 19.47 28.8897 19.35C28.7947 19.49 28.6047 19.44 28.5397 19.26C28.4297 19.34 28.2997 19.195 28.3047 19.075C28.2147 19.125 28.0397 19.04 28.0947 18.775C27.9847 18.805 27.8497 18.725 27.8047 18.655C27.9597 18.625 28.3647 18.43 28.4697 18.265C28.5697 18.095 28.8197 18.025 28.9797 18.105Z" fill="#F7E017" stroke="black" stroke-width="0.02"/>
<path d="M28.8845 19.35C28.9345 19.29 28.9595 19.025 28.9345 18.865M28.5345 19.26C28.6095 19.21 28.7445 19.035 28.7745 18.875M28.2995 19.075C28.4661 18.9514 28.5943 18.7833 28.6695 18.59M28.0945 18.775C28.1945 18.755 28.5245 18.56 28.6645 18.345" stroke="black" stroke-width="0.02"/>
<path d="M27.0595 9.78993C27.0395 10.9399 27.5195 11.5299 28.1895 11.9099C27.9395 11.7599 28.0495 11.2549 27.7145 11.0899C27.7945 11.0849 27.9145 11.1949 28.1145 11.1499C28.0145 10.9399 27.8645 10.6099 27.4945 10.5649C27.5945 10.5549 27.7945 10.5899 27.9345 10.5399C27.7445 10.2399 27.2345 10.3849 27.0595 9.78993ZM26.9395 8.68993C26.8995 8.67493 26.8645 8.63493 26.8345 8.57993C26.6545 8.61993 26.5845 8.50493 26.5695 8.42993C26.5845 8.55993 26.4695 8.55493 26.4195 8.55993C26.7345 8.81993 26.7795 9.12493 26.7095 9.29993C26.6195 9.52493 26.3095 9.51493 26.1245 9.36993C26.0995 9.84993 26.7245 10.0049 26.9495 9.40493C26.9495 9.50493 27.0795 9.49493 27.1095 9.62993C27.2695 9.36993 27.1495 8.99493 26.9395 8.68993Z" fill="#F7E017" stroke="black" stroke-width="0.02"/>
<path d="M25.9496 6.39993C25.6971 6.14986 25.5533 5.8103 25.5496 5.45493C25.5596 5.20493 25.6596 4.93993 26.0246 5.05493C25.9096 5.05493 25.9896 5.27493 25.8746 5.29993C25.9646 5.33493 26.0946 5.25493 26.1146 5.19993C26.1346 5.27993 26.2846 5.25993 26.2946 5.34993C26.3496 5.30493 26.2896 5.08493 26.2046 5.03993C26.2646 5.00493 26.3046 4.82993 26.2746 4.74493C26.2146 4.75493 26.1296 4.83493 26.1146 4.94993C26.1446 4.85993 26.1096 4.63493 25.9496 4.59993C25.9046 4.65993 25.8946 4.81493 25.9546 4.89993C25.8096 4.86493 25.5946 4.95993 25.5446 5.08493C25.5546 4.93493 25.5746 4.71993 25.6696 4.58493C25.6996 4.54493 25.6196 4.46493 25.5646 4.56993C25.4546 4.35493 25.1646 4.24493 25.0296 4.34993C24.8996 4.45993 24.7296 4.29993 24.6196 4.46993C24.5146 4.63993 24.1496 4.65493 24.1696 4.83493C24.1796 4.94493 24.1546 5.10993 24.0996 5.16993C23.9696 5.31493 24.1646 5.41993 24.1996 5.54993C24.1746 5.12493 24.8546 4.28993 25.5396 4.61493C25.4565 4.79738 25.4106 4.99455 25.4046 5.19493C25.3746 5.57993 25.4346 6.11993 25.8046 6.43993L25.9496 6.39993Z" fill="#337321" stroke="black" stroke-width="0.02"/>
<path d="M26.1497 5.05496C26.1497 4.95496 26.3247 4.81996 26.5597 4.82496C26.8447 4.82496 27.0597 5.08496 27.2897 5.05996C27.5197 5.03496 27.4097 5.15996 27.3597 5.19996C27.3097 5.22996 27.2847 5.27996 27.2997 5.34496C27.3147 5.40496 27.2897 5.44496 27.1997 5.38996C26.9947 5.25996 26.7897 5.43996 26.5197 5.33996C26.2947 5.25496 26.1597 5.20496 26.1497 5.05496Z" fill="#C8102E" stroke="black" stroke-width="0.02"/>
<path d="M24.9897 7.71993C24.8405 7.36535 24.5763 7.07126 24.2397 6.88493L24.2297 6.69493C24.4135 6.59013 24.5832 6.46245 24.7347 6.31493C25.5847 6.71493 26.7347 6.14493 27.2647 5.54993L27.4647 5.66993L27.3647 5.80493L27.2597 5.74993C27.0258 6.00657 26.7717 6.24401 26.4997 6.45993C26.6947 6.50993 26.9647 6.54493 27.0397 6.53993C27.5097 6.19993 27.8847 5.89493 28.0647 5.87493L28.2147 6.07493L28.0797 6.17493L27.9747 6.10993C27.4023 6.65376 26.9553 7.31578 26.6647 8.04993C26.3497 7.97993 25.2197 8.02493 24.9897 7.71993Z" fill="#96877D" stroke="black" stroke-width="0.02"/>
<path d="M26.4995 6.45996C26.4245 6.43996 26.3595 6.41996 26.3245 6.39996C26.1428 6.51244 25.9331 6.57137 25.7195 6.56996" stroke="black" stroke-width="0.02"/>
<path d="M25.0344 7.59498C24.9594 7.17498 25.0844 6.70498 25.2944 6.56498C25.559 6.72007 25.8611 6.79973 26.1679 6.79532C26.4746 6.79092 26.7743 6.70261 27.0344 6.53998" stroke="black" stroke-width="0.02"/>
<path d="M25.0352 7.37486C25.3952 7.36486 26.1852 7.42486 26.3702 7.44986C26.5652 7.47986 26.8852 7.55986 26.8402 7.65486M25.2002 7.31486L25.3052 7.21486L25.2052 7.10986L25.1002 7.20986L25.2002 7.31486Z" stroke="black" stroke-width="0.02"/>
<path d="M25.4494 5.21494C25.3194 5.03494 24.9594 4.97494 24.8844 5.21494C24.8494 5.32494 24.7994 5.43994 24.7144 5.48994C24.6294 5.53994 24.6494 5.69494 24.6844 5.75994C24.7744 5.92494 24.6944 6.08494 24.8694 6.18994C24.8694 6.05994 25.0644 5.92494 25.2244 5.88994C25.3894 5.85994 25.6394 5.70994 25.6744 5.54994C25.7044 5.37994 25.7644 5.24994 25.4494 5.21494Z" fill="#337321" stroke="black" stroke-width="0.02"/>
<path d="M24.6346 6.83997H24.6846V7.14497L24.7096 7.15997L24.9746 7.00997L24.9996 7.04497L24.7296 7.19997V7.22997L24.9996 7.37997L24.9746 7.41997L24.7046 7.26997C24.6996 7.27497 24.6896 7.28497 24.6796 7.28497V7.59497H24.6346V7.28497C24.6256 7.28121 24.6171 7.27616 24.6096 7.26997L24.3446 7.42497L24.3196 7.38497L24.5846 7.23497V7.19997L24.3196 7.04997L24.3446 7.00997L24.6096 7.15997L24.6346 7.14497V6.83997Z" fill="#96877D" stroke="black" stroke-width="0.02"/>
<path d="M25.0348 7.58987C24.9582 7.66745 24.8597 7.71977 24.7526 7.73982C24.6454 7.75988 24.5347 7.74672 24.4352 7.7021C24.3357 7.65747 24.2522 7.58353 24.1959 7.49015C24.1397 7.39678 24.1132 7.28844 24.1202 7.17963C24.1272 7.07083 24.1673 6.96676 24.2351 6.88136C24.3029 6.79597 24.3951 6.73331 24.4995 6.7018C24.6039 6.67028 24.7154 6.6714 24.8191 6.70502C24.9228 6.73863 25.0138 6.80313 25.0798 6.88987C25.0483 6.98208 25.0282 7.07779 25.0198 7.17487C25.013 7.10457 24.986 7.03775 24.942 6.9825C24.898 6.92725 24.8389 6.88595 24.7719 6.86362C24.7049 6.84128 24.6329 6.83886 24.5645 6.85665C24.4962 6.87444 24.4345 6.91168 24.3869 6.96385C24.3393 7.01602 24.3078 7.08088 24.2963 7.15057C24.2849 7.22026 24.2939 7.29178 24.3222 7.35646C24.3506 7.42114 24.3971 7.4762 24.4561 7.51497C24.5152 7.55374 24.5842 7.57455 24.6548 7.57487C24.8248 7.57487 24.9698 7.45987 25.0148 7.30487C25.0148 7.37487 25.0148 7.53487 25.0348 7.58987Z" fill="#96877D" stroke="black" stroke-width="0.02"/>
<path d="M24.4298 8.09998C24.3998 8.05998 24.3348 7.94998 24.3448 7.87498C24.4149 7.87698 24.4822 7.90352 24.5348 7.94998C24.5298 7.88998 24.5048 7.76998 24.5198 7.70998C24.5798 7.73498 24.7098 7.80998 24.7548 7.88998C24.7448 7.83498 24.7198 7.68998 24.7448 7.59998C24.8098 7.63998 24.9248 7.74498 24.9448 7.81998C24.9548 7.70498 24.9948 7.51998 25.0248 7.46998C25.0748 7.51998 25.1548 7.56998 25.2048 7.63998C25.2148 7.54498 25.2648 7.43998 25.3298 7.41498C25.3798 7.46498 25.4598 7.59998 25.4798 7.74498C25.5298 7.72998 25.5948 7.64498 25.6248 7.59498C25.6498 7.64498 25.6798 7.71998 25.6598 7.81998C25.7248 7.75998 25.7998 7.68498 25.8098 7.61498C25.8598 7.64998 25.9448 7.73498 25.9648 7.82498C25.9548 7.74998 25.9648 7.61998 25.9398 7.54498C26.0198 7.59498 26.0898 7.66998 26.1048 7.75498C26.1298 7.67498 26.1798 7.53498 26.2248 7.50498C26.2698 7.59498 26.3148 7.70498 26.3098 7.78998C26.3398 7.73498 26.3798 7.62998 26.4248 7.60998C26.4648 7.66998 26.4598 7.80998 26.4498 7.87998C26.4898 7.82498 26.5648 7.75498 26.6098 7.72998C26.6098 7.76998 26.6198 7.83498 26.6098 7.88498C26.6816 7.81114 26.7362 7.72236 26.7698 7.62498C26.8498 7.66498 26.9298 7.79998 26.9348 7.86998C26.9948 7.84498 27.1048 7.74498 27.1348 7.68998C27.1348 7.72998 27.1548 7.83998 27.1348 7.91998C27.1698 7.88498 27.1998 7.81998 27.2198 7.78998C27.2398 7.84498 27.2198 7.97998 27.1998 8.05498C27.2471 8.01262 27.3066 7.98636 27.3698 7.97998C27.3555 8.11721 27.3129 8.24999 27.2448 8.36998C26.7048 8.21998 25.5698 8.16498 24.4298 8.09998Z" fill="#337321" stroke="black" stroke-width="0.02"/>
<path d="M26.3196 5.11498C26.3196 5.06998 26.4096 4.97998 26.5746 4.97998C26.7746 4.97998 26.9596 5.12998 27.1196 5.11498C27.2796 5.10498 27.1996 5.15998 27.1696 5.16998C27.1296 5.18498 27.1146 5.20498 27.1196 5.22998C27.1346 5.25998 27.1196 5.27498 27.0496 5.24998C26.9096 5.19998 26.7646 5.26998 26.5796 5.22998C26.4196 5.19498 26.3246 5.17998 26.3196 5.11498Z" fill="#F7E017"/>
<path d="M24.6048 8.43997C24.4398 8.63997 24.2698 8.60997 24.2348 8.47997C24.1998 8.34997 24.3248 8.28997 24.2798 8.17497C24.2348 8.05997 24.3548 8.00997 24.4098 8.05997C24.4648 8.10997 24.6498 7.94997 24.7248 8.11997C24.8048 8.28997 24.8648 8.40497 24.8248 8.46997C24.7748 8.53997 24.6398 8.50497 24.6048 8.43997ZM25.3348 8.13497C25.3048 8.05997 25.4798 7.91497 25.5698 8.01997C25.6598 8.11997 25.7998 7.90997 25.8798 8.06997C25.9598 8.22997 25.9798 8.31497 26.0248 8.40497C26.0598 8.49497 25.8098 8.53997 25.7298 8.46497C25.7398 8.51497 25.5098 8.55997 25.4498 8.40497L25.3348 8.13497ZM26.5048 8.22997C26.4648 8.14997 26.6698 8.03497 26.7798 8.17997C26.8048 8.11997 27.0098 8.10997 27.0248 8.27997L27.0498 8.62497C27.0548 8.68997 26.9248 8.75497 26.8348 8.57997C26.6648 8.61497 26.5898 8.51997 26.5698 8.42497C26.5498 8.32497 26.5298 8.27497 26.5048 8.22497V8.22997Z" fill="#F7E017" stroke="black" stroke-width="0.02"/>
<path d="M24.7146 8.11495C24.6896 8.05995 24.8646 7.94496 24.9746 8.02996C25.0896 8.11496 25.2496 7.95995 25.3246 8.10995C25.4596 8.41995 25.4646 8.43995 25.4246 8.49995C25.3846 8.55995 25.1996 8.53495 25.1546 8.44995C25.1496 8.50995 24.9896 8.49995 24.9096 8.45496C24.8196 8.40495 24.7546 8.21495 24.7146 8.11495ZM25.8996 8.12996C25.8646 8.03996 26.1296 7.96495 26.2496 8.11995C26.3046 8.06495 26.4346 8.05996 26.5046 8.22996C26.5796 8.39496 26.5896 8.48496 26.5396 8.52996C26.4996 8.55996 26.3646 8.57996 26.3196 8.50495C26.2546 8.54496 26.0646 8.50995 26.0196 8.40495C25.9796 8.29996 25.9446 8.20496 25.9046 8.12996H25.8996ZM27.0246 8.29995C27.0246 8.21495 27.1646 8.17995 27.2196 8.29995C27.2696 8.40995 27.4446 8.30495 27.4596 8.49995C27.4596 8.53495 27.4396 8.67495 27.3846 8.74495C27.3346 8.80995 27.0696 8.74495 27.0496 8.59995L27.0246 8.29995Z" fill="#337321" stroke="black" stroke-width="0.02"/>
<path d="M24.6047 8.43993C24.5447 8.35493 24.4597 8.21993 24.3547 8.36493M25.1597 8.44993C25.1197 8.40493 25.0747 8.32493 25.0597 8.26493M25.7297 8.46493C25.6897 8.43493 25.6297 8.37993 25.5997 8.31993M25.6797 8.16993C25.7797 8.17993 25.8447 8.26993 25.8747 8.31493C25.9047 8.35493 25.9747 8.43493 26.0247 8.43993M26.3197 8.50493C26.2847 8.45493 26.2497 8.40493 26.2447 8.36493M26.2497 8.11993C26.2797 8.16993 26.3047 8.20493 26.3247 8.24993M26.8297 8.57993C26.7913 8.4995 26.7306 8.43182 26.6547 8.38493M26.8097 8.26993C26.8147 8.43493 27.0347 8.44993 27.0447 8.56993M27.2197 8.29993C27.2397 8.33993 27.2497 8.37993 27.2497 8.44993" stroke="black" stroke-width="0.02"/>
</svg>
