<svg width="36" height="24" viewBox="0 0 36 24" fill="none" xmlns="http://www.w3.org/2000/svg">
<g clip-path="url(#clip0_11930_68273)">
<path fill-rule="evenodd" clip-rule="evenodd" d="M0.137415 -6.10352e-05L0.109375 23.9999H36L0.137415 -6.10352e-05Z" fill="#000001"/>
<path fill-rule="evenodd" clip-rule="evenodd" d="M35.972 23.9999L36 -6.10352e-05H0.109375L35.972 23.9999Z" fill="#FF0000"/>
<path d="M21.8118 5.97221L21.39 5.95009C21.2568 5.64042 20.8906 5.52983 20.6575 5.66254C20.2282 5.66262 19.7989 5.65525 19.3699 5.64042L20.158 5.98327C20.3689 6.5252 21.0348 6.6358 21.0348 6.6358C20.9683 7.60905 20.047 6.51414 19.27 7.06712C18.7151 7.39891 18.7151 7.786 18.4154 8.42747C18.3155 8.60442 17.927 9.06893 17.927 9.06893L18.5819 9.01363L18.371 9.29012L19.1479 9.17953L18.9814 9.33436C19.0924 9.35648 19.8694 9.14635 19.8694 9.14635L19.8139 9.40072L20.7019 9.07999C20.7019 9.07999 20.8795 9.22376 21.0348 9.29012L21.1458 8.84774L21.5898 8.95833L21.7008 8.51594C22.3668 9.40072 22.5888 10.2855 23.8097 10.5067L23.6987 10.0643C24.0233 10.2059 24.3452 10.3534 24.6644 10.5067L24.7643 10.3187C25.297 10.6947 25.7299 10.6836 26.0296 10.7279L25.8076 10.1749L26.0296 10.2855L25.6966 9.40072L26.0296 9.51132L25.5856 8.84774L25.7521 8.73714L25.6966 8.40535C26.3626 8.62654 27.2505 8.95833 27.3615 9.73251C27.4725 10.9491 26.1406 11.2809 25.2526 11.1703C25.9186 11.7233 27.1395 11.5021 27.6945 10.9491C27.9165 10.7279 28.0275 10.3961 28.1385 10.0643C28.2495 10.3961 28.4715 10.8385 28.4715 11.2809C28.3605 12.2762 27.0286 12.608 26.1406 12.7186C27.1395 13.2716 28.9155 12.608 29.0265 11.1703C29.0265 9.95371 28.2495 9.40072 27.9165 8.84774L27.8055 8.25051L28.1385 8.40535C28.1385 8.40535 27.9387 8.04038 27.9165 7.96296C27.9165 7.96296 27.5724 7.02288 27.4503 6.81275L27.6945 6.85699L26.7844 5.71784L27.0397 5.69572C27.0397 5.69572 25.9852 4.86624 25.6966 4.75565L26.0296 4.64505C25.3636 4.31326 24.5867 4.53445 23.9207 4.97684L24.0317 4.64505L23.8319 4.66717V4.28008L24.0317 3.98147L23.6987 3.87087L23.9207 3.31789L23.5877 3.42848L23.6987 2.8755C23.6987 2.8755 23.4545 2.98609 23.2991 2.97503C23.3629 2.85188 23.4221 2.72645 23.4767 2.599C23.3657 2.43311 23.4767 2.10132 23.4767 2.10132C22.6998 2.21192 22.5888 2.32251 22.1448 2.98609C21.4788 4.20266 21.7008 4.75565 21.8118 5.97221Z" fill="#FFCC00" stroke="#FFCC00" stroke-width="0.121875"/>
<path fill-rule="evenodd" clip-rule="evenodd" d="M26.0071 7.78601C26.0626 7.88555 26.6952 8.18416 27.1614 8.44959C27.0393 7.94085 26.1181 7.83025 26.0071 7.78601Z" fill="#FF0000" stroke="#FF0000" stroke-width="0.155114"/>
<path fill-rule="evenodd" clip-rule="evenodd" d="M10.7498 19.95L10.0398 19.5L9.08984 19.955L9.30484 19.145L8.57984 18.39L9.41484 18.34L9.91484 17.42L10.2198 18.195L11.2548 18.385L10.6048 18.915L10.7498 19.95ZM12.5598 16L12.2298 15.85L11.9148 16.03L11.9648 15.67L11.6948 15.425L12.0498 15.36L12.1998 15.03L12.3748 15.35L12.7348 15.39L12.4848 15.65L12.5598 16ZM14.1598 13.74L13.4348 13.39L12.7398 13.78L12.8548 12.995L12.2648 12.455L13.0498 12.315L13.3798 11.595L13.7598 12.295L14.5498 12.385L13.9998 12.96L14.1598 13.74ZM10.8698 10.59L10.0198 10.165L9.19484 10.62L9.33484 9.69004L8.64484 9.04004L9.57984 8.89004L9.97984 8.04004L10.4148 8.87504L11.3548 8.99004L10.6898 9.66004L10.8698 10.59ZM7.82984 13.86L6.97984 13.36L6.12984 13.875L6.34484 12.91L5.58984 12.26L6.57484 12.17L6.95984 11.255L7.35484 12.165L8.34484 12.245L7.59984 12.895L7.82984 13.86Z" fill="white"/>
</g>
<defs>
<clipPath id="clip0_11930_68273">
<rect width="36" height="24" rx="2" fill="white"/>
</clipPath>
</defs>
</svg>
