<svg width="36" height="24" viewBox="0 0 36 24" fill="none" xmlns="http://www.w3.org/2000/svg">
<g clip-path="url(#clip0_11930_68285)">
<path d="M14.3997 -6.10352e-05H35.9997V23.9999H14.3997V-6.10352e-05Z" fill="#FF0000"/>
<path d="M0 0H14.4V24H0V0Z" fill="#006600"/>
<path fill-rule="evenodd" clip-rule="evenodd" d="M18.9699 15.3099C17.3549 15.2599 9.96992 10.6499 9.91992 9.90986L10.3249 9.23486C11.0599 10.2999 18.6099 14.7849 19.3549 14.6249L18.9699 15.3099Z" fill="#FFFF00" stroke="black" stroke-width="0.03" stroke-linecap="round" stroke-linejoin="round"/>
<path fill-rule="evenodd" clip-rule="evenodd" d="M10.2401 9.13989C10.0951 9.52989 12.1701 10.8099 14.6601 12.3299C17.1551 13.8449 19.3051 14.7799 19.4601 14.6499L19.5351 14.5099C19.5051 14.5599 19.4351 14.5749 19.3201 14.5399C18.6451 14.3449 16.8901 13.5399 14.7151 12.2199C12.5351 10.8999 10.6451 9.68489 10.3501 9.16989C10.3271 9.12161 10.3168 9.06827 10.3201 9.01489H10.3101L10.2501 9.12489L10.2401 9.13989ZM19.0051 15.3299C18.9801 15.3799 18.9251 15.3799 18.8301 15.3699C18.2301 15.3049 16.4001 14.4149 14.2351 13.1199C11.7151 11.6099 9.63507 10.2399 9.86507 9.87989L9.92507 9.76989L9.93507 9.77489C9.73507 10.3849 14.0401 12.8449 14.2951 13.0049C16.7851 14.5449 18.8851 15.4499 19.0701 15.2149L19.0051 15.3299Z" fill="#FFFF00" stroke="black" stroke-width="0.03" stroke-linecap="round" stroke-linejoin="round"/>
<path fill-rule="evenodd" clip-rule="evenodd" d="M14.805 10.36C16.415 10.345 18.405 10.14 19.555 9.67995L19.305 9.27995C18.63 9.65495 16.63 9.90495 14.79 9.93995C12.62 9.91995 11.085 9.71495 10.315 9.19995L10.085 9.62995C11.495 10.23 12.945 10.355 14.805 10.36Z" fill="#FFFF00" stroke="black" stroke-width="0.03" stroke-linecap="round" stroke-linejoin="round"/>
<path fill-rule="evenodd" clip-rule="evenodd" d="M19.6209 9.68979C19.5809 9.75479 18.8309 10.0098 17.7309 10.1998C16.7612 10.3467 15.7816 10.4186 14.8009 10.4148C13.8612 10.4183 12.9224 10.3582 11.9909 10.2348C10.8359 10.0548 10.2409 9.80479 10.0159 9.71479L10.0709 9.60479C10.7059 9.85479 11.3059 10.0048 12.0059 10.1148C12.9306 10.2396 13.8627 10.3015 14.7959 10.2998C15.7715 10.3008 16.7459 10.2289 17.7109 10.0848C18.8359 9.89978 19.4509 9.66478 19.5409 9.55978L19.6209 9.68979ZM19.4009 9.28478C19.2809 9.38478 18.6709 9.59978 17.6009 9.76978C16.6769 9.90346 15.7445 9.9703 14.8109 9.96978C13.7109 9.96978 12.8059 9.88978 12.1209 9.78979C11.0309 9.64979 10.4509 9.38978 10.2409 9.31978L10.3059 9.20978C10.4709 9.29478 11.0259 9.51978 12.1309 9.67478C13.0191 9.79377 13.9147 9.85057 14.8109 9.84478C15.7378 9.84507 16.6636 9.77823 17.5809 9.64478C18.6559 9.49478 19.2359 9.22479 19.3259 9.15479L19.4009 9.28478ZM9.51086 12.2998C10.5009 12.8348 12.7059 13.0998 14.7909 13.1198C16.6909 13.1248 19.1609 12.8298 20.0859 12.3398L20.0609 11.8048C19.7709 12.2548 17.1209 12.6898 14.7709 12.6748C12.4209 12.6548 10.2359 12.2948 9.50586 11.8248V12.2998" fill="#FFFF00"/>
<path d="M9.51086 12.2998C10.5009 12.8348 12.7059 13.0998 14.7909 13.1198C16.6909 13.1248 19.1609 12.8298 20.0859 12.3398L20.0609 11.8048C19.7709 12.2548 17.1209 12.6898 14.7709 12.6748C12.4209 12.6548 10.2359 12.2948 9.50586 11.8248V12.2998M19.6209 9.68979C19.5809 9.75479 18.8309 10.0098 17.7309 10.1998C16.7612 10.3467 15.7816 10.4186 14.8009 10.4148C13.8612 10.4183 12.9224 10.3582 11.9909 10.2348C10.8359 10.0548 10.2409 9.80479 10.0159 9.71479L10.0709 9.60479C10.7059 9.85479 11.3059 10.0048 12.0059 10.1148C12.9306 10.2396 13.8627 10.3015 14.7959 10.2998C15.7715 10.3008 16.7459 10.2289 17.7109 10.0848C18.8359 9.89978 19.4509 9.66478 19.5409 9.55978L19.6209 9.68979ZM19.4009 9.28478C19.2809 9.38478 18.6709 9.59978 17.6009 9.76978C16.6769 9.90346 15.7445 9.9703 14.8109 9.96978C13.7109 9.96978 12.8059 9.88979 12.1209 9.78979C11.0309 9.64979 10.4509 9.38978 10.2409 9.31978L10.3059 9.20978C10.4709 9.29478 11.0259 9.51978 12.1309 9.67478C13.0191 9.79377 13.9147 9.85057 14.8109 9.84478C15.7378 9.84507 16.6636 9.77823 17.5809 9.64478C18.6559 9.49478 19.2359 9.22479 19.3259 9.15479L19.4009 9.28478Z" stroke="black" stroke-width="0.03" stroke-linecap="round" stroke-linejoin="round"/>
<path fill-rule="evenodd" clip-rule="evenodd" d="M20.1353 12.2249V12.3499C19.9953 12.5199 19.1253 12.7699 18.0353 12.9499C16.9524 13.1055 15.8593 13.1791 14.7653 13.1699C13.728 13.1787 12.6915 13.1068 11.6653 12.9549C10.8996 12.8664 10.1514 12.6642 9.44531 12.3549V12.2099C9.93031 12.5299 11.2403 12.7699 11.6803 12.8399C12.4703 12.9599 13.4853 13.0499 14.7653 13.0499C16.1103 13.0499 17.1853 12.9549 18.0153 12.8299C18.8003 12.7149 19.9153 12.4199 20.1353 12.2249ZM20.1353 11.7749V11.8999C19.9953 12.0649 19.1253 12.3149 18.0353 12.4949C16.9525 12.6522 15.8594 12.7274 14.7653 12.7199C13.7281 12.726 12.6918 12.6541 11.6653 12.5049C10.8996 12.4164 10.1514 12.2142 9.44531 11.9049V11.7549C9.93031 12.0799 11.2453 12.3149 11.6803 12.3849C12.7017 12.5345 13.733 12.6064 14.7653 12.5999C16.1103 12.5999 17.1903 12.4999 18.0153 12.3749C18.8003 12.2649 19.9153 11.9699 20.1353 11.7749ZM14.7853 15.2149C12.5053 15.2049 10.5503 14.5949 10.1353 14.4949L10.4353 14.9649C11.8378 15.4616 13.3177 15.7037 14.8053 15.6799C16.5403 15.6299 18.0553 15.4949 19.1203 14.9749L19.4303 14.4849C18.7053 14.8299 16.2303 15.2149 14.7803 15.2149" fill="#FFFF00"/>
<path d="M14.7853 15.2149C12.5053 15.2049 10.5503 14.5949 10.1353 14.4949L10.4353 14.9649C11.8378 15.4616 13.3177 15.7037 14.8053 15.6799C16.5403 15.6299 18.0553 15.4949 19.1203 14.9749L19.4303 14.4849C18.7053 14.8299 16.2303 15.2149 14.7803 15.2149M20.1353 12.2249V12.3499C19.9953 12.5199 19.1253 12.7699 18.0353 12.9499C16.9524 13.1055 15.8593 13.1791 14.7653 13.1699C13.728 13.1787 12.6915 13.1068 11.6653 12.9549C10.8996 12.8664 10.1514 12.6642 9.44531 12.3549V12.2099C9.93031 12.5299 11.2403 12.7699 11.6803 12.8399C12.4703 12.9599 13.4853 13.0499 14.7653 13.0499C16.1103 13.0499 17.1853 12.9549 18.0153 12.8299C18.8003 12.7149 19.9153 12.4199 20.1353 12.2249ZM20.1353 11.7749V11.8999C19.9953 12.0649 19.1253 12.3149 18.0353 12.4949C16.9525 12.6522 15.8594 12.7274 14.7653 12.7199C13.7281 12.726 12.6918 12.6541 11.6653 12.5049C10.8996 12.4164 10.1514 12.2142 9.44531 11.9049V11.7549C9.93031 12.0799 11.2453 12.3149 11.6803 12.3849C12.7017 12.5345 13.733 12.6064 14.7653 12.5999C16.1103 12.5999 17.1903 12.4999 18.0153 12.3749C18.8003 12.2649 19.9153 11.9699 20.1353 11.7749Z" stroke="black" stroke-width="0.03" stroke-linecap="round" stroke-linejoin="round"/>
<path fill-rule="evenodd" clip-rule="evenodd" d="M19.2399 14.8649C19.1944 14.9324 19.1477 14.9991 19.0999 15.0649C18.5999 15.2449 17.7999 15.4349 17.4699 15.4849C16.5844 15.6499 15.6857 15.7336 14.7849 15.7349C12.7649 15.7049 11.1099 15.3099 10.3349 14.9699L10.2699 14.8649L10.2799 14.8449L10.3849 14.8899C11.8079 15.3608 13.296 15.6055 14.7949 15.6149C15.7349 15.6149 16.6699 15.5099 17.4249 15.3749C18.5849 15.1399 19.0549 14.9649 19.1999 14.8849L19.2349 14.8649H19.2399ZM19.5049 14.4249C19.472 14.4835 19.4387 14.5418 19.4049 14.5999C19.1349 14.6999 18.4049 14.9099 17.3399 15.0599C16.6399 15.1549 16.2049 15.2499 14.8099 15.2749C13.2152 15.2589 11.6303 15.0234 10.0999 14.5749L10.0449 14.4499C11.5998 14.8797 13.2021 15.1148 14.8149 15.1499C16.0899 15.1249 16.6349 15.0299 17.3299 14.9349C18.5699 14.7449 19.1949 14.5349 19.3799 14.4799C19.38 14.4766 19.38 14.4733 19.3799 14.4699L19.5099 14.4199L19.5049 14.4249Z" fill="#FFFF00" stroke="black" stroke-width="0.03" stroke-linecap="round" stroke-linejoin="round"/>
<path fill-rule="evenodd" clip-rule="evenodd" d="M19.5359 11.88C19.5409 13.38 18.7709 14.73 18.1559 15.32C17.2475 16.2059 16.0345 16.7104 14.7659 16.73C13.2509 16.755 11.8259 15.77 11.4409 15.335C10.5796 14.4216 10.0894 13.2202 10.0659 11.965C10.1559 10.325 10.8009 9.185 11.7309 8.4C12.6343 7.65629 13.7708 7.25445 14.9409 7.265C15.6239 7.29812 16.2925 7.47356 16.9039 7.78008C17.5152 8.0866 18.0557 8.51744 18.4909 9.045C19.1159 9.805 19.3909 10.63 19.5359 11.88ZM14.7759 6.75C16.1746 6.74996 17.5167 7.30286 18.5095 8.28817C19.5023 9.27347 20.0653 10.6113 20.0759 12.01C20.0759 12.704 19.9392 13.3913 19.6736 14.0325C19.408 14.6737 19.0187 15.2563 18.5279 15.7471C18.0372 16.2378 17.4546 16.6271 16.8133 16.8927C16.1721 17.1583 15.4849 17.295 14.7909 17.295C14.0968 17.295 13.4096 17.1583 12.7684 16.8927C12.1272 16.6271 11.5446 16.2378 11.0538 15.7471C10.5631 15.2563 10.1738 14.6737 9.90816 14.0325C9.64257 13.3913 9.50587 12.704 9.50587 12.01C9.50087 9.11 11.8709 6.75 14.7759 6.75Z" fill="#FFFF00" stroke="black" stroke-width="0.03" stroke-linecap="round" stroke-linejoin="round"/>
<path fill-rule="evenodd" clip-rule="evenodd" d="M14.7906 6.72485C17.7006 6.72485 20.0706 9.09485 20.0706 12.0049C20.0706 14.9149 17.7006 17.2849 14.7956 17.2849C11.8906 17.2849 9.51562 14.9149 9.51562 12.0049C9.51562 9.09485 11.8856 6.72485 14.7956 6.72485H14.7906ZM9.62563 11.9999C9.62563 14.8399 11.9606 17.1649 14.7906 17.1649C17.6206 17.1649 19.9556 14.8399 19.9556 11.9999C19.9556 9.15985 17.6206 6.83485 14.7906 6.83485C11.9606 6.83485 9.62563 9.15985 9.62563 11.9999Z" fill="#FFFF00" stroke="black" stroke-width="0.03" stroke-linecap="round" stroke-linejoin="round"/>
<path fill-rule="evenodd" clip-rule="evenodd" d="M14.795 7.16479C16.0761 7.16875 17.3036 7.67942 18.2095 8.5853C19.1153 9.49119 19.626 10.7187 19.63 11.9998C19.626 13.2814 19.1155 14.5094 18.2098 15.4161C17.304 16.3227 16.0765 16.8345 14.795 16.8398C12.145 16.8398 9.95996 14.6598 9.95996 11.9998C9.96523 10.7191 10.4763 9.49235 11.3819 8.58675C12.2875 7.68115 13.5143 7.17006 14.795 7.16479ZM10.075 11.9998C10.075 14.5998 12.205 16.7198 14.795 16.7198C17.385 16.7198 19.515 14.5948 19.515 11.9998C19.515 9.39979 17.385 7.2798 14.795 7.2798C13.5448 7.28506 12.3473 7.78403 11.4632 8.66807C10.5792 9.5521 10.0802 10.7496 10.075 11.9998Z" fill="#FFFF00" stroke="black" stroke-width="0.03" stroke-linecap="round" stroke-linejoin="round"/>
<path fill-rule="evenodd" clip-rule="evenodd" d="M15.0107 6.69995H14.5557V17.315H15.0057L15.0107 6.69995Z" fill="#FFFF00" stroke="black" stroke-width="0.03" stroke-linecap="round" stroke-linejoin="round"/>
<path fill-rule="evenodd" clip-rule="evenodd" d="M14.9598 6.63989H15.0748V17.3749H14.9648V6.63989H14.9598ZM14.5098 6.63989H14.6298V17.3749H14.5148L14.5098 6.63989Z" fill="#FFFF00" stroke="black" stroke-width="0.03" stroke-linecap="round" stroke-linejoin="round"/>
<path fill-rule="evenodd" clip-rule="evenodd" d="M20.0752 12.2099V11.8199L19.7552 11.5199L17.9402 11.0399L15.3302 10.7749L12.1802 10.9349L9.94023 11.4649L9.49023 11.7999V12.1949L10.6352 11.6799L13.3552 11.2549H15.9702L17.8902 11.4649L19.2202 11.7849L20.0752 12.2099Z" fill="#FFFF00" stroke="black" stroke-width="0.03" stroke-linecap="round" stroke-linejoin="round"/>
<path fill-rule="evenodd" clip-rule="evenodd" d="M14.7953 11.1898C16.0403 11.1898 17.2453 11.3048 18.2103 11.4898C19.2003 11.6898 19.8953 11.9398 20.1353 12.2148V12.3548C19.8453 12.0048 18.9103 11.7548 18.1853 11.6048C17.2353 11.4248 16.0353 11.3048 14.7903 11.3048C13.4853 11.3048 12.2653 11.4348 11.3253 11.6148C10.5753 11.7648 9.57031 12.0648 9.44531 12.3548V12.2098C9.51031 12.0098 10.2603 11.7098 11.3103 11.4948C12.2553 11.3098 13.4753 11.1898 14.7903 11.1898H14.7953ZM14.7953 10.7348C15.9403 10.7325 17.0832 10.8329 18.2103 11.0348C19.2003 11.2348 19.8953 11.4848 20.1353 11.7648V11.8998C19.8453 11.5548 18.9103 11.2998 18.1853 11.1548C17.2353 10.9698 16.0353 10.8548 14.7903 10.8548C13.6299 10.8511 12.4716 10.9549 11.3303 11.1648C10.6053 11.2998 9.56031 11.6098 9.44531 11.8998V11.7598C9.51531 11.5598 10.2753 11.2448 11.3103 11.0448C12.2603 10.8598 13.4753 10.7348 14.7953 10.7348ZM14.7653 8.42482C16.7303 8.41482 18.4453 8.69982 19.2303 9.09982L19.5153 9.59982C18.8353 9.22982 16.9853 8.84982 14.7703 8.89982C12.9653 8.91482 11.0353 9.09982 10.0703 9.61982L10.4103 9.04982C11.2053 8.63482 13.0753 8.42482 14.7653 8.42482Z" fill="#FFFF00" stroke="black" stroke-width="0.03" stroke-linecap="round" stroke-linejoin="round"/>
<path fill-rule="evenodd" clip-rule="evenodd" d="M14.7952 8.83497C15.8211 8.81765 16.8467 8.88959 17.8602 9.04997C18.6602 9.19997 19.4252 9.41997 19.5352 9.53997L19.6202 9.68997C19.3552 9.51997 18.6902 9.32497 17.8402 9.16497C16.9902 9.00497 15.9052 8.94997 14.7902 8.95497C13.5252 8.94997 12.5402 9.01497 11.7002 9.16497C11.1211 9.24612 10.5589 9.42001 10.0352 9.67997L10.1202 9.52497C10.4202 9.37497 10.8852 9.18997 11.6752 9.04497C12.5502 8.88497 13.5452 8.83997 14.7952 8.83497ZM14.7952 8.38497C15.8652 8.37497 16.9252 8.43497 17.7502 8.58497C18.2847 8.66432 18.8019 8.83337 19.2802 9.08497L19.4052 9.28497C19.1952 9.04997 18.4052 8.82497 17.7002 8.70497C16.8802 8.55997 15.8652 8.50497 14.7952 8.49497C13.7991 8.48609 12.8041 8.55967 11.8202 8.71497C11.3057 8.78665 10.806 8.94026 10.3402 9.16997L10.4502 9.00497C10.7402 8.85497 11.2102 8.71497 11.8002 8.59997C12.7905 8.44263 13.7924 8.36904 14.7952 8.37997V8.38497ZM17.4152 14.2C16.5485 14.0499 15.6695 13.9829 14.7902 14C11.5152 14.04 10.4602 14.675 10.3302 14.865L10.0802 14.465C10.9202 13.865 12.7002 13.525 14.8102 13.555C15.9052 13.575 16.8502 13.65 17.6402 13.805L17.4152 14.205" fill="#FFFF00"/>
<path d="M17.4152 14.2C16.5485 14.0499 15.6695 13.9829 14.7902 14C11.5152 14.04 10.4602 14.675 10.3302 14.865L10.0802 14.465C10.9202 13.865 12.7002 13.525 14.8102 13.555C15.9052 13.575 16.8502 13.65 17.6402 13.805L17.4152 14.205M14.7952 8.83497C15.8211 8.81765 16.8467 8.88959 17.8602 9.04997C18.6602 9.19997 19.4252 9.41997 19.5352 9.53997L19.6202 9.68997C19.3552 9.51997 18.6902 9.32497 17.8402 9.16497C16.9902 9.00497 15.9052 8.94997 14.7902 8.95497C13.5252 8.94997 12.5402 9.01497 11.7002 9.16497C11.1211 9.24612 10.5589 9.42001 10.0352 9.67997L10.1202 9.52497C10.4202 9.37497 10.8852 9.18997 11.6752 9.04497C12.5502 8.88497 13.5452 8.83997 14.7952 8.83497ZM14.7952 8.38497C15.8652 8.37497 16.9252 8.43497 17.7502 8.58497C18.2847 8.66432 18.8019 8.83337 19.2802 9.08497L19.4052 9.28497C19.1952 9.04997 18.4052 8.82497 17.7002 8.70497C16.8802 8.55997 15.8652 8.50497 14.7952 8.49497C13.7991 8.48609 12.8041 8.55967 11.8202 8.71497C11.3057 8.78665 10.806 8.94026 10.3402 9.16997L10.4502 9.00497C10.7402 8.85497 11.2102 8.71497 11.8002 8.59997C12.7905 8.44263 13.7924 8.36904 14.7952 8.37997V8.38497Z" stroke="black" stroke-width="0.03" stroke-linecap="round" stroke-linejoin="round"/>
<path fill-rule="evenodd" clip-rule="evenodd" d="M14.776 13.9449C15.686 13.9599 16.576 13.9949 17.441 14.1549L17.381 14.2649C16.581 14.1149 15.721 14.0649 14.781 14.0649C13.566 14.0549 12.346 14.1699 11.281 14.4749C10.946 14.5699 10.391 14.7849 10.331 14.9649L10.271 14.8649C10.291 14.7549 10.621 14.5349 11.251 14.3649C12.471 14.0149 13.611 13.9499 14.776 13.9449ZM14.816 13.4849C15.7765 13.4839 16.7352 13.5675 17.681 13.7349L17.616 13.8499C16.6924 13.6805 15.755 13.5984 14.816 13.6049C13.606 13.6049 12.321 13.6949 11.151 14.0349C10.776 14.1449 10.121 14.3849 10.101 14.5699L10.041 14.4599C10.051 14.2899 10.616 14.0649 11.126 13.9199C12.301 13.5749 13.591 13.4899 14.816 13.4849Z" fill="#FFFF00" stroke="black" stroke-width="0.03" stroke-linecap="round" stroke-linejoin="round"/>
<path fill-rule="evenodd" clip-rule="evenodd" d="M19.4654 14.5249L19.0754 15.1399L17.9404 14.1349L15.0104 12.1599L11.7004 10.3449L9.98535 9.75989L10.3504 9.07989L10.4754 9.01489L11.5404 9.27989L15.0604 11.0949L17.0904 12.3749L18.7954 13.5999L19.4904 14.3999L19.4654 14.5249Z" fill="#FFFF00" stroke="black" stroke-width="0.03" stroke-linecap="round" stroke-linejoin="round"/>
<path fill-rule="evenodd" clip-rule="evenodd" d="M9.92535 9.77493C10.2254 9.57493 12.4354 10.5549 14.7554 11.9549C17.0604 13.3549 19.2704 14.9349 19.0704 15.2299L19.0054 15.3349L18.9754 15.3599C18.9804 15.3549 19.0154 15.3099 18.9754 15.2049C18.8754 14.8799 17.3054 13.6299 14.7104 12.0599C12.1754 10.5549 10.0654 9.64493 9.86035 9.90493L9.92535 9.77493ZM19.5454 14.5199C19.7354 14.1399 17.6854 12.5949 15.1404 11.0899C12.5404 9.61493 10.6604 8.74493 10.3154 9.00493L10.2454 9.14993C10.2454 9.15493 10.2454 9.13993 10.2654 9.12493C10.3254 9.07493 10.4304 9.07493 10.4754 9.07493C11.0654 9.08493 12.7504 9.85993 15.1154 11.2149C16.1554 11.8149 19.4954 13.9649 19.4804 14.5649C19.4804 14.6149 19.4854 14.6249 19.4654 14.6549L19.5504 14.5249L19.5454 14.5199Z" fill="#FFFF00" stroke="black" stroke-width="0.03" stroke-linecap="round" stroke-linejoin="round"/>
<path d="M11.6306 12.5883C11.6314 13.0023 11.7143 13.412 11.8745 13.7938C12.0347 14.1755 12.2691 14.5217 12.564 14.8123C12.8553 15.1081 13.2022 15.3433 13.5848 15.5044C13.9674 15.6655 14.3781 15.7493 14.7933 15.751C15.6335 15.7509 16.4392 15.4171 17.0333 14.823C17.3272 14.5308 17.5604 14.1834 17.7197 13.8009C17.8789 13.4183 17.961 13.008 17.9613 12.5936V8.36961L11.6306 8.35895V12.5883Z" fill="white" stroke="black" stroke-width="0.0373334"/>
<path d="M11.7585 12.5936C11.7597 12.9908 11.8394 13.3837 11.9932 13.7499C12.147 14.1161 12.3718 14.4481 12.6545 14.727C13.2224 15.2978 13.9934 15.62 14.7986 15.623C15.6023 15.6234 16.3733 15.305 16.9426 14.7376C17.2244 14.4584 17.4482 14.1261 17.601 13.76C17.7539 13.3938 17.8328 13.0011 17.8332 12.6043V8.49762H11.7585V12.5936ZM16.6119 9.72962V12.3376L16.6066 12.6096C16.6084 12.8479 16.562 13.0841 16.4704 13.304C16.3788 13.524 16.2437 13.7231 16.0732 13.8896C15.7341 14.23 15.2737 14.4218 14.7932 14.423C14.2919 14.423 13.8492 14.2096 13.5186 13.879C13.1782 13.5398 12.9864 13.0794 12.9852 12.599V9.71896L16.6119 9.72962Z" fill="#FF0000" stroke="black" stroke-width="0.0266667"/>
<path d="M12.1462 9.56976C12.1516 9.27643 12.3596 9.20709 12.3596 9.20709C12.3649 9.20709 12.5889 9.28176 12.5889 9.57509L12.1462 9.56976Z" fill="#FFFF00"/>
<path d="M11.965 9.21243L11.9276 9.54843H12.1516C12.1516 9.27109 12.365 9.22843 12.365 9.22843C12.3703 9.22843 12.5783 9.28709 12.5836 9.54843H12.8076L12.765 9.20709L11.965 9.21243ZM11.9116 9.55376H12.8183C12.8343 9.55376 12.8503 9.56976 12.8503 9.59109C12.8503 9.61776 12.8343 9.63376 12.8183 9.63376H11.9116C11.8956 9.63376 11.8796 9.61776 11.8796 9.59109C11.8796 9.56976 11.8956 9.55376 11.917 9.55376H11.9116Z" fill="#FFFF00" stroke="black" stroke-width="0.0266667"/>
<path d="M12.2425 9.54837C12.2425 9.37237 12.3651 9.32437 12.3651 9.32437C12.3651 9.32437 12.4878 9.3777 12.4878 9.54837H12.2425ZM11.9331 9.06837H12.8025C12.8185 9.06837 12.8345 9.0897 12.8345 9.11103C12.8345 9.12703 12.8185 9.14303 12.8025 9.14303H11.9331C11.9171 9.14303 11.9011 9.12703 11.9011 9.1057C11.9011 9.0897 11.9171 9.0737 11.9331 9.0737V9.06837ZM11.9545 9.14837H12.7758C12.7918 9.14837 12.8078 9.16437 12.8078 9.1857C12.8078 9.20703 12.7918 9.22303 12.7758 9.22303H11.9491C11.9278 9.22303 11.9171 9.20703 11.9171 9.1857C11.9171 9.16437 11.9278 9.14837 11.9491 9.14837H11.9545ZM12.2211 8.58303H12.2851V8.6257H12.3331V8.58303H12.4025V8.63103H12.4505V8.5777H12.5145V8.68436C12.5145 8.7057 12.5038 8.71636 12.4878 8.71636H12.2531C12.2371 8.71636 12.2211 8.7057 12.2211 8.6897V8.58303ZM12.4665 8.72703L12.4825 9.06837H12.2531L12.2691 8.7217H12.4665" fill="#FFFF00"/>
<path d="M12.4665 8.72703L12.4825 9.06837H12.2531L12.2691 8.7217H12.4665M12.2425 9.54837C12.2425 9.37237 12.3651 9.32437 12.3651 9.32437C12.3651 9.32437 12.4878 9.3777 12.4878 9.54837H12.2425ZM11.9331 9.06837H12.8025C12.8185 9.06837 12.8345 9.0897 12.8345 9.11103C12.8345 9.12703 12.8185 9.14303 12.8025 9.14303H11.9331C11.9171 9.14303 11.9011 9.12703 11.9011 9.1057C11.9011 9.0897 11.9171 9.0737 11.9331 9.0737V9.06837ZM11.9545 9.14837H12.7758C12.7918 9.14837 12.8078 9.16437 12.8078 9.1857C12.8078 9.20703 12.7918 9.22303 12.7758 9.22303H11.9491C11.9278 9.22303 11.9171 9.20703 11.9171 9.1857C11.9171 9.16437 11.9278 9.14837 11.9491 9.14837H11.9545ZM12.2211 8.58303H12.2851V8.6257H12.3331V8.58303H12.4025V8.63103H12.4505V8.5777H12.5145V8.68436C12.5145 8.7057 12.5038 8.71636 12.4878 8.71636H12.2531C12.2371 8.71636 12.2211 8.7057 12.2211 8.6897V8.58303Z" stroke="black" stroke-width="0.0266667"/>
<path d="M12.1887 8.88702V9.06836H11.9753V8.88702H12.1887Z" fill="#FFFF00" stroke="black" stroke-width="0.0266667"/>
<path d="M12.7551 8.88702V9.06836H12.5417V8.88702H12.7551Z" fill="#FFFF00" stroke="black" stroke-width="0.0266667"/>
<path d="M11.9382 8.74835H12.0022V8.80169H12.0502V8.74835H12.1142V8.80169H12.1622V8.74835H12.2262V8.85502C12.2262 8.87635 12.2156 8.88702 12.1996 8.88702H11.9702C11.9617 8.88702 11.9536 8.88365 11.9476 8.87765C11.9416 8.87165 11.9382 8.86351 11.9382 8.85502V8.74835Z" fill="#FFFF00" stroke="black" stroke-width="0.0266667"/>
<path d="M12.5037 8.74835H12.5677V8.80169H12.6157V8.74835H12.6797V8.80169H12.7277V8.74835H12.7917V8.85502C12.7917 8.87635 12.781 8.88702 12.765 8.88702H12.5357C12.5272 8.88702 12.519 8.88365 12.513 8.87765C12.507 8.87165 12.5037 8.86351 12.5037 8.85502V8.74835Z" fill="#FFFF00" stroke="black" stroke-width="0.0266667"/>
<path d="M12.3435 8.83363C12.3435 8.80163 12.3915 8.80163 12.3915 8.83363V8.91896H12.3435V8.83363Z" fill="#000001"/>
<path d="M12.0613 8.95106C12.0613 8.91906 12.1039 8.91906 12.1039 8.95106V9.01506H12.0613V8.95106Z" fill="#000001"/>
<path d="M12.6267 8.95106C12.6267 8.91906 12.6694 8.91906 12.6694 8.95106V9.01506H12.6267V8.95106Z" fill="#000001"/>
<path d="M12.1462 12.039C12.1516 11.7457 12.3596 11.6763 12.3596 11.6763C12.3649 11.6763 12.5889 11.751 12.5889 12.0443L12.1462 12.039Z" fill="#FFFF00"/>
<path d="M11.965 11.6817L11.9276 12.0177H12.1516C12.1516 11.7403 12.365 11.6977 12.365 11.6977C12.3703 11.6977 12.5783 11.7563 12.5836 12.0177H12.8076L12.765 11.6763L11.965 11.6817ZM11.9116 12.023H12.8183C12.8343 12.023 12.8503 12.039 12.8503 12.0603C12.8503 12.087 12.8343 12.103 12.8183 12.103H11.9116C11.8956 12.103 11.8796 12.087 11.8796 12.0603C11.8796 12.039 11.8956 12.023 11.917 12.023H11.9116Z" fill="#FFFF00" stroke="black" stroke-width="0.0266667"/>
<path d="M12.2425 12.0176C12.2425 11.8416 12.3651 11.7936 12.3651 11.7936C12.3651 11.7936 12.4878 11.8469 12.4878 12.0176H12.2425ZM11.9331 11.5376H12.8025C12.8185 11.5376 12.8345 11.5589 12.8345 11.5803C12.8345 11.5963 12.8185 11.6123 12.8025 11.6123H11.9331C11.9171 11.6123 11.9011 11.5963 11.9011 11.5749C11.9011 11.5589 11.9171 11.5429 11.9331 11.5429V11.5376ZM11.9545 11.6176H12.7758C12.7918 11.6176 12.8078 11.6336 12.8078 11.6549C12.8078 11.6763 12.7918 11.6923 12.7758 11.6923H11.9491C11.9278 11.6923 11.9171 11.6763 11.9171 11.6549C11.9171 11.6336 11.9278 11.6176 11.9491 11.6176H11.9545ZM12.2211 11.0523H12.2851V11.0949H12.3331V11.0523H12.4025V11.1003H12.4505V11.0469H12.5145V11.1536C12.5145 11.1749 12.5038 11.1856 12.4878 11.1856H12.2531C12.2371 11.1856 12.2211 11.1749 12.2211 11.1589V11.0523ZM12.4665 11.1963L12.4825 11.5376H12.2531L12.2691 11.1909H12.4665" fill="#FFFF00"/>
<path d="M12.4665 11.1963L12.4825 11.5376H12.2531L12.2691 11.1909H12.4665M12.2425 12.0176C12.2425 11.8416 12.3651 11.7936 12.3651 11.7936C12.3651 11.7936 12.4878 11.8469 12.4878 12.0176H12.2425ZM11.9331 11.5376H12.8025C12.8185 11.5376 12.8345 11.5589 12.8345 11.5803C12.8345 11.5963 12.8185 11.6123 12.8025 11.6123H11.9331C11.9171 11.6123 11.9011 11.5963 11.9011 11.5749C11.9011 11.5589 11.9171 11.5429 11.9331 11.5429V11.5376ZM11.9545 11.6176H12.7758C12.7918 11.6176 12.8078 11.6336 12.8078 11.6549C12.8078 11.6763 12.7918 11.6923 12.7758 11.6923H11.9491C11.9278 11.6923 11.9171 11.6763 11.9171 11.6549C11.9171 11.6336 11.9278 11.6176 11.9491 11.6176H11.9545ZM12.2211 11.0523H12.2851V11.0949H12.3331V11.0523H12.4025V11.1003H12.4505V11.0469H12.5145V11.1536C12.5145 11.1749 12.5038 11.1856 12.4878 11.1856H12.2531C12.2371 11.1856 12.2211 11.1749 12.2211 11.1589V11.0523Z" stroke="black" stroke-width="0.0266667"/>
<path d="M12.1887 11.3563V11.5376H11.9753V11.3563H12.1887Z" fill="#FFFF00" stroke="black" stroke-width="0.0266667"/>
<path d="M12.7551 11.3563V11.5376H12.5417V11.3563H12.7551Z" fill="#FFFF00" stroke="black" stroke-width="0.0266667"/>
<path d="M11.9382 11.2176H12.0022V11.2709H12.0502V11.2176H12.1142V11.2709H12.1622V11.2176H12.2262V11.3243C12.2262 11.3456 12.2156 11.3563 12.1996 11.3563H11.9702C11.9617 11.3563 11.9536 11.3529 11.9476 11.3469C11.9416 11.3409 11.9382 11.3327 11.9382 11.3243V11.2176Z" fill="#FFFF00" stroke="black" stroke-width="0.0266667"/>
<path d="M12.5037 11.2176H12.5677V11.2709H12.6157V11.2176H12.6797V11.2709H12.7277V11.2176H12.7917V11.3243C12.7917 11.3456 12.781 11.3563 12.765 11.3563H12.5357C12.5272 11.3563 12.519 11.3529 12.513 11.3469C12.507 11.3409 12.5037 11.3327 12.5037 11.3243V11.2176Z" fill="#FFFF00" stroke="black" stroke-width="0.0266667"/>
<path d="M12.3435 11.3029C12.3435 11.2709 12.3915 11.2709 12.3915 11.3029V11.3882H12.3435V11.3029Z" fill="#000001"/>
<path d="M12.0613 11.4203C12.0613 11.3883 12.1039 11.3883 12.1039 11.4203V11.4843H12.0613V11.4203Z" fill="#000001"/>
<path d="M12.6267 11.4203C12.6267 11.3883 12.6694 11.3883 12.6694 11.4203V11.4843H12.6267V11.4203Z" fill="#000001"/>
<path d="M13.1037 14.6125C12.8994 14.4022 12.9968 14.2057 12.9968 14.2057C13.0006 14.2019 13.2114 14.0955 13.4195 14.3021L13.1037 14.6125Z" fill="#FFFF00"/>
<path d="M12.7229 14.4896L12.9348 14.7527L13.0927 14.5937C12.896 14.3984 13.0161 14.2169 13.0161 14.2169C13.0199 14.2132 13.2081 14.1068 13.3972 14.2871L13.5551 14.1281L13.2829 13.918L12.7229 14.4896ZM12.9273 14.7678L13.5664 14.1243C13.5776 14.1129 13.6003 14.1129 13.6154 14.1279C13.6343 14.1467 13.6344 14.1693 13.6231 14.1806L12.9841 14.8241C12.9728 14.8355 12.9502 14.8356 12.9313 14.8168C12.9161 14.8018 12.9161 14.7792 12.9311 14.764L12.9273 14.7678Z" fill="#FFFF00" stroke="black" stroke-width="0.0266667"/>
<path d="M13.1554 14.5293C13.0306 14.4054 13.083 14.2845 13.083 14.2845C13.083 14.2845 13.2073 14.235 13.3284 14.3552L13.1554 14.5293ZM12.5969 14.4108L13.2097 13.7937C13.221 13.7824 13.2474 13.786 13.2625 13.8011C13.2739 13.8123 13.274 13.835 13.2627 13.8463L12.6499 14.4634C12.6386 14.4748 12.616 14.4749 12.6008 14.4598C12.5895 14.4486 12.5894 14.426 12.6007 14.4146L12.5969 14.4108ZM12.6687 14.452L13.2477 13.869C13.2589 13.8576 13.2816 13.8576 13.2967 13.8726C13.3118 13.8876 13.3119 13.9102 13.3006 13.9216L12.7179 14.5084C12.7028 14.5236 12.684 14.5199 12.6688 14.5048C12.6537 14.4898 12.6499 14.471 12.6649 14.4558L12.6687 14.452ZM12.4557 13.8646L12.5008 13.8191L12.5311 13.8492L12.5649 13.8151L12.5346 13.785L12.5835 13.7358L12.6176 13.7696L12.6514 13.7356L12.6136 13.698L12.6587 13.6526L12.7343 13.7277C12.7495 13.7427 12.7495 13.7578 12.7382 13.7692L12.5728 13.9357C12.5615 13.9471 12.5427 13.951 12.5313 13.9397L12.4557 13.8646ZM12.7308 13.7918L12.9841 14.0209L12.8225 14.1837L12.5879 13.9281L12.727 13.7881" fill="#FFFF00"/>
<path d="M12.7308 13.7918L12.9841 14.0209L12.8225 14.1837L12.5879 13.9281L12.727 13.7881M13.1554 14.5293C13.0306 14.4054 13.083 14.2845 13.083 14.2845C13.083 14.2845 13.2073 14.235 13.3284 14.3552L13.1554 14.5293ZM12.5969 14.4108L13.2097 13.7937C13.221 13.7824 13.2474 13.786 13.2625 13.8011C13.2739 13.8123 13.274 13.835 13.2627 13.8463L12.6499 14.4634C12.6386 14.4748 12.616 14.4749 12.6008 14.4598C12.5895 14.4486 12.5894 14.426 12.6007 14.4146L12.5969 14.4108ZM12.6687 14.452L13.2477 13.869C13.2589 13.8576 13.2816 13.8576 13.2967 13.8726C13.3118 13.8876 13.3119 13.9102 13.3006 13.9216L12.7179 14.5084C12.7028 14.5236 12.684 14.5199 12.6688 14.5048C12.6537 14.4898 12.6499 14.471 12.6649 14.4558L12.6687 14.452ZM12.4557 13.8646L12.5008 13.8191L12.5311 13.8492L12.5649 13.8151L12.5346 13.785L12.5835 13.7358L12.6176 13.7696L12.6514 13.7356L12.6136 13.698L12.6587 13.6526L12.7343 13.7277C12.7495 13.7427 12.7495 13.7578 12.7382 13.7692L12.5728 13.9357C12.5615 13.9471 12.5427 13.951 12.5313 13.9397L12.4557 13.8646Z" stroke="black" stroke-width="0.0266667"/>
<path d="M12.6492 14.1014L12.7778 14.2291L12.6274 14.3805L12.4988 14.2528L12.6492 14.1014Z" fill="#FFFF00" stroke="black" stroke-width="0.0266667"/>
<path d="M13.0476 13.7003L13.1762 13.828L13.0258 13.9794L12.8972 13.8517L13.0476 13.7003Z" fill="#FFFF00" stroke="black" stroke-width="0.0266667"/>
<path d="M12.3748 14.1815L12.4197 14.1362L12.4574 14.1737L12.4912 14.1397L12.4535 14.1023L12.4984 14.057L12.5362 14.0944L12.5699 14.0605L12.5322 14.023L12.5771 13.9777L12.6526 14.0526C12.6677 14.0676 12.6677 14.0826 12.6565 14.094L12.4953 14.2563C12.4893 14.2623 12.4812 14.2657 12.4728 14.2657C12.4643 14.2657 12.4562 14.2624 12.4502 14.2564L12.3748 14.1815Z" fill="#FFFF00" stroke="black" stroke-width="0.0266667"/>
<path d="M12.7722 13.7804L12.8172 13.7351L12.8549 13.7726L12.8886 13.7386L12.8509 13.7011L12.8959 13.6558L12.9336 13.6933L12.9673 13.6593L12.9296 13.6219L12.9746 13.5766L13.05 13.6515C13.0651 13.6665 13.0652 13.6815 13.0539 13.6928L12.8928 13.8551C12.8868 13.8611 12.8787 13.8645 12.8702 13.8646C12.8618 13.8646 12.8537 13.8613 12.8477 13.8553L12.7722 13.7804Z" fill="#FFFF00" stroke="black" stroke-width="0.0266667"/>
<path d="M12.7198 13.9539C12.6972 13.9315 12.7308 13.8976 12.7534 13.92L12.8135 13.9798L12.7799 14.0136L12.7198 13.9539Z" fill="#000001"/>
<path d="M12.6046 14.2371C12.582 14.2147 12.6119 14.1846 12.6344 14.207L12.6795 14.2518L12.6497 14.2819L12.6046 14.2371Z" fill="#000001"/>
<path d="M13.003 13.8359C12.9804 13.8136 13.0103 13.7835 13.0329 13.8059L13.078 13.8507L13.0481 13.8807L13.003 13.8359Z" fill="#000001"/>
<path d="M14.5818 9.56976C14.5871 9.27643 14.7951 9.20709 14.7951 9.20709C14.8005 9.20709 15.0245 9.28176 15.0245 9.57509L14.5818 9.56976Z" fill="#FFFF00"/>
<path d="M14.4005 9.21243L14.3632 9.54843H14.5872C14.5872 9.27109 14.8005 9.22843 14.8005 9.22843C14.8059 9.22843 15.0139 9.28709 15.0192 9.54843H15.2432L15.2005 9.20709L14.4005 9.21243ZM14.3472 9.55376H15.2539C15.2699 9.55376 15.2859 9.56976 15.2859 9.59109C15.2859 9.61776 15.2699 9.63376 15.2539 9.63376H14.3472C14.3312 9.63376 14.3152 9.61776 14.3152 9.59109C14.3152 9.56976 14.3312 9.55376 14.3525 9.55376H14.3472Z" fill="#FFFF00" stroke="black" stroke-width="0.0266667"/>
<path d="M14.678 9.54837C14.678 9.37237 14.8007 9.32437 14.8007 9.32437C14.8007 9.32437 14.9233 9.3777 14.9233 9.54837H14.678ZM14.3687 9.06837H15.238C15.254 9.06837 15.27 9.0897 15.27 9.11103C15.27 9.12703 15.254 9.14303 15.238 9.14303H14.3687C14.3527 9.14303 14.3367 9.12703 14.3367 9.1057C14.3367 9.0897 14.3527 9.0737 14.3687 9.0737V9.06837ZM14.39 9.14837H15.2113C15.2273 9.14837 15.2433 9.16437 15.2433 9.1857C15.2433 9.20703 15.2273 9.22303 15.2113 9.22303H14.3847C14.3633 9.22303 14.3527 9.20703 14.3527 9.1857C14.3527 9.16437 14.3633 9.14837 14.3847 9.14837H14.39ZM14.6567 8.58303H14.7207V8.6257H14.7687V8.58303H14.838V8.63103H14.886V8.5777H14.95V8.68436C14.95 8.7057 14.9393 8.71636 14.9233 8.71636H14.6887C14.6727 8.71636 14.6567 8.7057 14.6567 8.6897V8.58303ZM14.902 8.72703L14.918 9.06837H14.6887L14.7047 8.7217H14.902" fill="#FFFF00"/>
<path d="M14.902 8.72703L14.918 9.06837H14.6887L14.7047 8.7217H14.902M14.678 9.54837C14.678 9.37237 14.8007 9.32437 14.8007 9.32437C14.8007 9.32437 14.9233 9.3777 14.9233 9.54837H14.678ZM14.3687 9.06837H15.238C15.254 9.06837 15.27 9.0897 15.27 9.11103C15.27 9.12703 15.254 9.14303 15.238 9.14303H14.3687C14.3527 9.14303 14.3367 9.12703 14.3367 9.1057C14.3367 9.0897 14.3527 9.0737 14.3687 9.0737V9.06837ZM14.39 9.14837H15.2113C15.2273 9.14837 15.2433 9.16437 15.2433 9.1857C15.2433 9.20703 15.2273 9.22303 15.2113 9.22303H14.3847C14.3633 9.22303 14.3527 9.20703 14.3527 9.1857C14.3527 9.16437 14.3633 9.14837 14.3847 9.14837H14.39ZM14.6567 8.58303H14.7207V8.6257H14.7687V8.58303H14.838V8.63103H14.886V8.5777H14.95V8.68436C14.95 8.7057 14.9393 8.71636 14.9233 8.71636H14.6887C14.6727 8.71636 14.6567 8.7057 14.6567 8.6897V8.58303Z" stroke="black" stroke-width="0.0266667"/>
<path d="M14.6242 8.88702V9.06836H14.4109V8.88702H14.6242Z" fill="#FFFF00" stroke="black" stroke-width="0.0266667"/>
<path d="M15.1906 8.88702V9.06836H14.9773V8.88702H15.1906Z" fill="#FFFF00" stroke="black" stroke-width="0.0266667"/>
<path d="M14.3738 8.74835H14.4378V8.80169H14.4858V8.74835H14.5498V8.80169H14.5978V8.74835H14.6618V8.85502C14.6618 8.87635 14.6511 8.88702 14.6351 8.88702H14.4058C14.3973 8.88702 14.3892 8.88365 14.3832 8.87765C14.3772 8.87165 14.3738 8.86351 14.3738 8.85502V8.74835Z" fill="#FFFF00" stroke="black" stroke-width="0.0266667"/>
<path d="M14.9392 8.74835H15.0032V8.80169H15.0512V8.74835H15.1152V8.80169H15.1632V8.74835H15.2272V8.85502C15.2272 8.87635 15.2165 8.88702 15.2005 8.88702H14.9712C14.9627 8.88702 14.9546 8.88365 14.9486 8.87765C14.9426 8.87165 14.9392 8.86351 14.9392 8.85502V8.74835Z" fill="#FFFF00" stroke="black" stroke-width="0.0266667"/>
<path d="M14.7791 8.83363C14.7791 8.80163 14.8271 8.80163 14.8271 8.83363V8.91896H14.7791V8.83363Z" fill="#000001"/>
<path d="M14.4968 8.95106C14.4968 8.91906 14.5395 8.91906 14.5395 8.95106V9.01506H14.4968V8.95106Z" fill="#000001"/>
<path d="M15.0623 8.95106C15.0623 8.91906 15.1049 8.91906 15.1049 8.95106V9.01506H15.0623V8.95106Z" fill="#000001"/>
<path d="M17.4434 9.5697C17.438 9.27636 17.23 9.20703 17.23 9.20703C17.2247 9.20703 17.0007 9.2817 17.0007 9.57503L17.4434 9.5697Z" fill="#FFFF00"/>
<path d="M17.6244 9.21236L17.6617 9.54837H17.4377C17.4377 9.27103 17.2244 9.22836 17.2244 9.22836C17.219 9.22836 17.011 9.28703 17.0057 9.54837H16.7817L16.8244 9.20703L17.6244 9.21236ZM17.6777 9.5537H16.771C16.755 9.5537 16.739 9.5697 16.739 9.59103C16.739 9.6177 16.755 9.6337 16.771 9.6337H17.6777C17.6937 9.6337 17.7097 9.6177 17.7097 9.59103C17.7097 9.5697 17.6937 9.5537 17.6724 9.5537H17.6777Z" fill="#FFFF00" stroke="black" stroke-width="0.0266667"/>
<path d="M17.3469 9.54837C17.3469 9.37237 17.2242 9.32437 17.2242 9.32437C17.2242 9.32437 17.1016 9.3777 17.1016 9.54837H17.3469ZM17.6562 9.06837H16.7869C16.7709 9.06837 16.7549 9.0897 16.7549 9.11103C16.7549 9.12703 16.7709 9.14303 16.7869 9.14303H17.6562C17.6722 9.14303 17.6882 9.12703 17.6882 9.1057C17.6882 9.0897 17.6722 9.0737 17.6562 9.0737V9.06837ZM17.6349 9.14837H16.8136C16.7976 9.14837 16.7816 9.16437 16.7816 9.1857C16.7816 9.20703 16.7976 9.22303 16.8136 9.22303H17.6402C17.6616 9.22303 17.6722 9.20703 17.6722 9.1857C17.6722 9.16437 17.6616 9.14837 17.6402 9.14837H17.6349ZM17.3682 8.58303H17.3042V8.6257H17.2562V8.58303H17.1869V8.63103H17.1389V8.5777H17.0749V8.68436C17.0749 8.7057 17.0856 8.71636 17.1016 8.71636H17.3362C17.3522 8.71636 17.3682 8.7057 17.3682 8.6897V8.58303ZM17.1229 8.72703L17.1069 9.06837H17.3362L17.3202 8.7217H17.1229" fill="#FFFF00"/>
<path d="M17.1229 8.72703L17.1069 9.06837H17.3362L17.3202 8.7217H17.1229M17.3469 9.54837C17.3469 9.37237 17.2242 9.32437 17.2242 9.32437C17.2242 9.32437 17.1016 9.3777 17.1016 9.54837H17.3469ZM17.6562 9.06837H16.7869C16.7709 9.06837 16.7549 9.0897 16.7549 9.11103C16.7549 9.12703 16.7709 9.14303 16.7869 9.14303H17.6562C17.6722 9.14303 17.6882 9.12703 17.6882 9.1057C17.6882 9.0897 17.6722 9.0737 17.6562 9.0737V9.06837ZM17.6349 9.14837H16.8136C16.7976 9.14837 16.7816 9.16437 16.7816 9.1857C16.7816 9.20703 16.7976 9.22303 16.8136 9.22303H17.6402C17.6616 9.22303 17.6722 9.20703 17.6722 9.1857C17.6722 9.16437 17.6616 9.14837 17.6402 9.14837H17.6349ZM17.3682 8.58303H17.3042V8.6257H17.2562V8.58303H17.1869V8.63103H17.1389V8.5777H17.0749V8.68436C17.0749 8.7057 17.0856 8.71636 17.1016 8.71636H17.3362C17.3522 8.71636 17.3682 8.7057 17.3682 8.6897V8.58303Z" stroke="black" stroke-width="0.0266667"/>
<path d="M17.4007 8.88702V9.06836H17.614V8.88702H17.4007Z" fill="#FFFF00" stroke="black" stroke-width="0.0266667"/>
<path d="M16.8343 8.88702V9.06836H17.0476V8.88702H16.8343Z" fill="#FFFF00" stroke="black" stroke-width="0.0266667"/>
<path d="M17.6511 8.74835H17.5871V8.80169H17.5391V8.74835H17.4751V8.80169H17.4271V8.74835H17.3631V8.85502C17.3631 8.87635 17.3738 8.88702 17.3898 8.88702H17.6191C17.6276 8.88702 17.6357 8.88365 17.6418 8.87765C17.6478 8.87165 17.6511 8.86351 17.6511 8.85502V8.74835Z" fill="#FFFF00" stroke="black" stroke-width="0.0266667"/>
<path d="M17.0857 8.74835H17.0217V8.80169H16.9737V8.74835H16.9097V8.80169H16.8617V8.74835H16.7977V8.85502C16.7977 8.87635 16.8084 8.88702 16.8244 8.88702H17.0537C17.0622 8.88702 17.0703 8.88365 17.0763 8.87765C17.0823 8.87165 17.0857 8.86351 17.0857 8.85502V8.74835Z" fill="#FFFF00" stroke="black" stroke-width="0.0266667"/>
<path d="M17.2458 8.83363C17.2458 8.80163 17.1978 8.80163 17.1978 8.83363V8.91896H17.2458V8.83363Z" fill="#000001"/>
<path d="M17.5281 8.95106C17.5281 8.91906 17.4854 8.91906 17.4854 8.95106V9.01506H17.5281V8.95106Z" fill="#000001"/>
<path d="M16.9629 8.95106C16.9629 8.91906 16.9202 8.91906 16.9202 8.95106V9.01506H16.9629V8.95106Z" fill="#000001"/>
<path d="M17.4434 12.0391C17.438 11.7457 17.23 11.6764 17.23 11.6764C17.2247 11.6764 17.0007 11.7511 17.0007 12.0444L17.4434 12.0391Z" fill="#FFFF00"/>
<path d="M17.6244 11.6817L17.6617 12.0177H17.4377C17.4377 11.7404 17.2244 11.6977 17.2244 11.6977C17.219 11.6977 17.011 11.7564 17.0057 12.0177H16.7817L16.8244 11.6764L17.6244 11.6817ZM17.6777 12.0231H16.771C16.755 12.0231 16.739 12.0391 16.739 12.0604C16.739 12.0871 16.755 12.1031 16.771 12.1031H17.6777C17.6937 12.1031 17.7097 12.0871 17.7097 12.0604C17.7097 12.0391 17.6937 12.0231 17.6724 12.0231H17.6777Z" fill="#FFFF00" stroke="black" stroke-width="0.0266667"/>
<path d="M17.3469 12.0177C17.3469 11.8417 17.2242 11.7937 17.2242 11.7937C17.2242 11.7937 17.1016 11.8471 17.1016 12.0177H17.3469ZM17.6562 11.5377H16.7869C16.7709 11.5377 16.7549 11.5591 16.7549 11.5804C16.7549 11.5964 16.7709 11.6124 16.7869 11.6124H17.6562C17.6722 11.6124 17.6882 11.5964 17.6882 11.5751C17.6882 11.5591 17.6722 11.5431 17.6562 11.5431V11.5377ZM17.6349 11.6177H16.8136C16.7976 11.6177 16.7816 11.6337 16.7816 11.6551C16.7816 11.6764 16.7976 11.6924 16.8136 11.6924H17.6402C17.6616 11.6924 17.6722 11.6764 17.6722 11.6551C17.6722 11.6337 17.6616 11.6177 17.6402 11.6177H17.6349ZM17.3682 11.0524H17.3042V11.0951H17.2562V11.0524H17.1869V11.1004H17.1389V11.0471H17.0749V11.1537C17.0749 11.1751 17.0856 11.1857 17.1016 11.1857H17.3362C17.3522 11.1857 17.3682 11.1751 17.3682 11.1591V11.0524ZM17.1229 11.1964L17.1069 11.5377H17.3362L17.3202 11.1911H17.1229" fill="#FFFF00"/>
<path d="M17.1229 11.1964L17.1069 11.5377H17.3362L17.3202 11.1911H17.1229M17.3469 12.0177C17.3469 11.8417 17.2242 11.7937 17.2242 11.7937C17.2242 11.7937 17.1016 11.8471 17.1016 12.0177H17.3469ZM17.6562 11.5377H16.7869C16.7709 11.5377 16.7549 11.5591 16.7549 11.5804C16.7549 11.5964 16.7709 11.6124 16.7869 11.6124H17.6562C17.6722 11.6124 17.6882 11.5964 17.6882 11.5751C17.6882 11.5591 17.6722 11.5431 17.6562 11.5431V11.5377ZM17.6349 11.6177H16.8136C16.7976 11.6177 16.7816 11.6337 16.7816 11.6551C16.7816 11.6764 16.7976 11.6924 16.8136 11.6924H17.6402C17.6616 11.6924 17.6722 11.6764 17.6722 11.6551C17.6722 11.6337 17.6616 11.6177 17.6402 11.6177H17.6349ZM17.3682 11.0524H17.3042V11.0951H17.2562V11.0524H17.1869V11.1004H17.1389V11.0471H17.0749V11.1537C17.0749 11.1751 17.0856 11.1857 17.1016 11.1857H17.3362C17.3522 11.1857 17.3682 11.1751 17.3682 11.1591V11.0524Z" stroke="black" stroke-width="0.0266667"/>
<path d="M17.4007 11.3564V11.5377H17.614V11.3564H17.4007Z" fill="#FFFF00" stroke="black" stroke-width="0.0266667"/>
<path d="M16.8343 11.3564V11.5377H17.0476V11.3564H16.8343Z" fill="#FFFF00" stroke="black" stroke-width="0.0266667"/>
<path d="M17.6511 11.2177H17.5871V11.271H17.5391V11.2177H17.4751V11.271H17.4271V11.2177H17.3631V11.3244C17.3631 11.3457 17.3738 11.3564 17.3898 11.3564H17.6191C17.6276 11.3564 17.6357 11.353 17.6418 11.347C17.6478 11.341 17.6511 11.3329 17.6511 11.3244V11.2177Z" fill="#FFFF00" stroke="black" stroke-width="0.0266667"/>
<path d="M17.0857 11.2177H17.0217V11.271H16.9737V11.2177H16.9097V11.271H16.8617V11.2177H16.7977V11.3244C16.7977 11.3457 16.8084 11.3564 16.8244 11.3564H17.0537C17.0622 11.3564 17.0703 11.353 17.0763 11.347C17.0823 11.341 17.0857 11.3329 17.0857 11.3244V11.2177Z" fill="#FFFF00" stroke="black" stroke-width="0.0266667"/>
<path d="M17.2458 11.303C17.2458 11.271 17.1978 11.271 17.1978 11.303V11.3883H17.2458V11.303Z" fill="#000001"/>
<path d="M17.5281 11.4204C17.5281 11.3884 17.4854 11.3884 17.4854 11.4204V11.4844H17.5281V11.4204Z" fill="#000001"/>
<path d="M16.9629 11.4204C16.9629 11.3884 16.9202 11.3884 16.9202 11.4204V11.4844H16.9629V11.4204Z" fill="#000001"/>
<path d="M16.4779 14.6125C16.6822 14.4022 16.5847 14.2057 16.5847 14.2057C16.581 14.2019 16.3701 14.0955 16.1621 14.3021L16.4779 14.6125Z" fill="#FFFF00"/>
<path d="M16.8587 14.4896L16.6467 14.7527L16.4888 14.5937C16.6855 14.3984 16.5654 14.2169 16.5654 14.2169C16.5617 14.2132 16.3734 14.1068 16.1844 14.2871L16.0265 14.1281L16.2986 13.918L16.8587 14.4896ZM16.6542 14.7678L16.0152 14.1243C16.0039 14.1129 15.9813 14.1129 15.9661 14.1279C15.9472 14.1467 15.9472 14.1693 15.9584 14.1806L16.5975 14.8241C16.6088 14.8355 16.6314 14.8356 16.6503 14.8168C16.6654 14.8018 16.6655 14.7792 16.6504 14.764L16.6542 14.7678Z" fill="#FFFF00" stroke="black" stroke-width="0.0266667"/>
<path d="M16.4261 14.5293C16.551 14.4054 16.4985 14.2845 16.4985 14.2845C16.4985 14.2845 16.3742 14.235 16.2532 14.3552L16.4261 14.5293ZM16.9846 14.4108L16.3718 13.7937C16.3605 13.7824 16.3341 13.786 16.319 13.8011C16.3077 13.8123 16.3076 13.835 16.3189 13.8463L16.9317 14.4634C16.943 14.4748 16.9656 14.4749 16.9807 14.4598C16.9921 14.4486 16.9921 14.426 16.9809 14.4146L16.9846 14.4108ZM16.9129 14.452L16.3339 13.869C16.3226 13.8576 16.3 13.8576 16.2848 13.8726C16.2697 13.8876 16.2696 13.9102 16.2809 13.9216L16.8637 14.5084C16.8787 14.5236 16.8976 14.5199 16.9127 14.5048C16.9278 14.4898 16.9317 14.471 16.9166 14.4558L16.9129 14.452ZM17.1259 13.8646L17.0807 13.8191L17.0505 13.8492L17.0166 13.8151L17.0469 13.785L16.998 13.7358L16.964 13.7696L16.9302 13.7356L16.968 13.698L16.9229 13.6526L16.8472 13.7277C16.8321 13.7427 16.832 13.7578 16.8433 13.7692L17.0087 13.9357C17.02 13.9471 17.0389 13.951 17.0502 13.9397L17.1259 13.8646ZM16.8508 13.7918L16.5974 14.0209L16.7591 14.1837L16.9937 13.9281L16.8546 13.7881" fill="#FFFF00"/>
<path d="M16.8508 13.7918L16.5974 14.0209L16.7591 14.1837L16.9937 13.9281L16.8546 13.7881M16.4261 14.5293C16.551 14.4054 16.4985 14.2845 16.4985 14.2845C16.4985 14.2845 16.3742 14.235 16.2532 14.3552L16.4261 14.5293ZM16.9846 14.4108L16.3718 13.7937C16.3605 13.7824 16.3341 13.786 16.319 13.8011C16.3077 13.8123 16.3076 13.835 16.3189 13.8463L16.9317 14.4634C16.943 14.4748 16.9656 14.4749 16.9807 14.4598C16.9921 14.4486 16.9921 14.426 16.9809 14.4146L16.9846 14.4108ZM16.9129 14.452L16.3339 13.869C16.3226 13.8576 16.3 13.8576 16.2848 13.8726C16.2697 13.8876 16.2696 13.9102 16.2809 13.9216L16.8637 14.5084C16.8787 14.5236 16.8976 14.5199 16.9127 14.5048C16.9278 14.4898 16.9317 14.471 16.9166 14.4558L16.9129 14.452ZM17.1259 13.8646L17.0807 13.8191L17.0505 13.8492L17.0166 13.8151L17.0469 13.785L16.998 13.7358L16.964 13.7696L16.9302 13.7356L16.968 13.698L16.9229 13.6526L16.8472 13.7277C16.8321 13.7427 16.832 13.7578 16.8433 13.7692L17.0087 13.9357C17.02 13.9471 17.0389 13.951 17.0502 13.9397L17.1259 13.8646Z" stroke="black" stroke-width="0.0266667"/>
<path d="M16.9314 14.1014L16.8028 14.2291L16.9532 14.3805L17.0818 14.2528L16.9314 14.1014Z" fill="#FFFF00" stroke="black" stroke-width="0.0266667"/>
<path d="M16.5339 13.7003L16.4053 13.828L16.5557 13.9794L16.6843 13.8517L16.5339 13.7003Z" fill="#FFFF00" stroke="black" stroke-width="0.0266667"/>
<path d="M17.2068 14.1815L17.1618 14.1362L17.1241 14.1737L17.0904 14.1397L17.1281 14.1023L17.0831 14.057L17.0454 14.0944L17.0117 14.0605L17.0494 14.023L17.0044 13.9777L16.929 14.0526C16.9139 14.0676 16.9138 14.0826 16.9251 14.094L17.0862 14.2563C17.0922 14.2623 17.1003 14.2657 17.1088 14.2657C17.1172 14.2657 17.1253 14.2624 17.1314 14.2564L17.2068 14.1815Z" fill="#FFFF00" stroke="black" stroke-width="0.0266667"/>
<path d="M16.8083 13.7804L16.7634 13.7351L16.7257 13.7726L16.6919 13.7386L16.7296 13.7011L16.6847 13.6558L16.647 13.6933L16.6132 13.6593L16.6509 13.6219L16.606 13.5766L16.5305 13.6515C16.5154 13.6665 16.5154 13.6815 16.5266 13.6928L16.6878 13.8551C16.6938 13.8611 16.7019 13.8645 16.7103 13.8646C16.7188 13.8646 16.7269 13.8613 16.7329 13.8553L16.8083 13.7804Z" fill="#FFFF00" stroke="black" stroke-width="0.0266667"/>
<path d="M16.8617 13.9539C16.8843 13.9315 16.8507 13.8976 16.8282 13.92L16.768 13.9798L16.8016 14.0136L16.8617 13.9539Z" fill="#000001"/>
<path d="M16.977 14.2371C16.9995 14.2147 16.9697 14.1846 16.9471 14.207L16.902 14.2518L16.9319 14.2819L16.977 14.2371Z" fill="#000001"/>
<path d="M16.5785 13.8359C16.6011 13.8136 16.5712 13.7835 16.5487 13.8059L16.5036 13.8507L16.5334 13.8807L16.5785 13.8359Z" fill="#000001"/>
<path d="M14.4031 12.1295C14.4021 12.2421 14.4441 12.3508 14.5204 12.4335C14.556 12.4734 14.5996 12.5053 14.6483 12.5274C14.6969 12.5494 14.7497 12.561 14.8031 12.5615C14.9151 12.5615 15.0164 12.5082 15.0858 12.4335C15.1621 12.3508 15.2041 12.2421 15.2031 12.1295V11.5535H14.4031V12.1295Z" fill="#003399"/>
<path d="M14.5895 11.8522C14.6337 11.8522 14.6695 11.8164 14.6695 11.7722C14.6695 11.728 14.6337 11.6922 14.5895 11.6922C14.5453 11.6922 14.5095 11.728 14.5095 11.7722C14.5095 11.8164 14.5453 11.8522 14.5895 11.8522Z" fill="white"/>
<path d="M15.0319 11.8522C15.0761 11.8522 15.1119 11.8164 15.1119 11.7722C15.1119 11.728 15.0761 11.6922 15.0319 11.6922C14.9877 11.6922 14.9519 11.728 14.9519 11.7722C14.9519 11.8164 14.9877 11.8522 15.0319 11.8522Z" fill="white"/>
<path d="M14.8083 12.0656C14.8525 12.0656 14.8883 12.0298 14.8883 11.9856C14.8883 11.9414 14.8525 11.9056 14.8083 11.9056C14.7641 11.9056 14.7283 11.9414 14.7283 11.9856C14.7283 12.0298 14.7641 12.0656 14.8083 12.0656Z" fill="white"/>
<path d="M14.5895 12.2895C14.6337 12.2895 14.6695 12.2536 14.6695 12.2095C14.6695 12.1653 14.6337 12.1295 14.5895 12.1295C14.5453 12.1295 14.5095 12.1653 14.5095 12.2095C14.5095 12.2536 14.5453 12.2895 14.5895 12.2895Z" fill="white"/>
<path d="M15.0319 12.2895C15.0761 12.2895 15.1119 12.2536 15.1119 12.2095C15.1119 12.1653 15.0761 12.1295 15.0319 12.1295C14.9877 12.1295 14.9519 12.1653 14.9519 12.2095C14.9519 12.2536 14.9877 12.2895 15.0319 12.2895Z" fill="white"/>
<path d="M14.4031 10.7431C14.4021 10.8556 14.4441 10.9643 14.5204 11.0471C14.556 11.0869 14.5996 11.1188 14.6483 11.1409C14.6969 11.1629 14.7497 11.1746 14.8031 11.1751C14.9151 11.1751 15.0164 11.1217 15.0858 11.0471C15.1621 10.9643 15.2041 10.8556 15.2031 10.7431V10.1671H14.4031V10.7431Z" fill="#003399"/>
<path d="M14.5895 10.4657C14.6337 10.4657 14.6695 10.4299 14.6695 10.3857C14.6695 10.3415 14.6337 10.3057 14.5895 10.3057C14.5453 10.3057 14.5095 10.3415 14.5095 10.3857C14.5095 10.4299 14.5453 10.4657 14.5895 10.4657Z" fill="white"/>
<path d="M15.0319 10.4657C15.0761 10.4657 15.1119 10.4299 15.1119 10.3857C15.1119 10.3415 15.0761 10.3057 15.0319 10.3057C14.9877 10.3057 14.9519 10.3415 14.9519 10.3857C14.9519 10.4299 14.9877 10.4657 15.0319 10.4657Z" fill="white"/>
<path d="M14.8083 10.6791C14.8525 10.6791 14.8883 10.6433 14.8883 10.5991C14.8883 10.5549 14.8525 10.5191 14.8083 10.5191C14.7641 10.5191 14.7283 10.5549 14.7283 10.5991C14.7283 10.6433 14.7641 10.6791 14.8083 10.6791Z" fill="white"/>
<path d="M14.5895 10.903C14.6337 10.903 14.6695 10.8672 14.6695 10.823C14.6695 10.7788 14.6337 10.743 14.5895 10.743C14.5453 10.743 14.5095 10.7788 14.5095 10.823C14.5095 10.8672 14.5453 10.903 14.5895 10.903Z" fill="white"/>
<path d="M15.0319 10.903C15.0761 10.903 15.1119 10.8672 15.1119 10.823C15.1119 10.7788 15.0761 10.743 15.0319 10.743C14.9877 10.743 14.9519 10.7788 14.9519 10.823C14.9519 10.8672 14.9877 10.903 15.0319 10.903Z" fill="white"/>
<path d="M13.2937 12.1295C13.2928 12.2421 13.3347 12.3508 13.4111 12.4335C13.4467 12.4734 13.4902 12.5053 13.5389 12.5274C13.5876 12.5494 13.6403 12.561 13.6937 12.5615C13.8057 12.5615 13.9071 12.5082 13.9764 12.4335C14.0527 12.3508 14.0947 12.2421 14.0937 12.1295V11.5535H13.2937V12.1295Z" fill="#003399"/>
<path d="M13.4801 11.8522C13.5243 11.8522 13.5601 11.8164 13.5601 11.7722C13.5601 11.728 13.5243 11.6922 13.4801 11.6922C13.436 11.6922 13.4001 11.728 13.4001 11.7722C13.4001 11.8164 13.436 11.8522 13.4801 11.8522Z" fill="white"/>
<path d="M13.9225 11.8522C13.9667 11.8522 14.0025 11.8164 14.0025 11.7722C14.0025 11.728 13.9667 11.6922 13.9225 11.6922C13.8783 11.6922 13.8425 11.728 13.8425 11.7722C13.8425 11.8164 13.8783 11.8522 13.9225 11.8522Z" fill="white"/>
<path d="M13.6989 12.0656C13.7431 12.0656 13.7789 12.0298 13.7789 11.9856C13.7789 11.9414 13.7431 11.9056 13.6989 11.9056C13.6547 11.9056 13.6189 11.9414 13.6189 11.9856C13.6189 12.0298 13.6547 12.0656 13.6989 12.0656Z" fill="white"/>
<path d="M13.4801 12.2895C13.5243 12.2895 13.5601 12.2536 13.5601 12.2095C13.5601 12.1653 13.5243 12.1295 13.4801 12.1295C13.436 12.1295 13.4001 12.1653 13.4001 12.2095C13.4001 12.2536 13.436 12.2895 13.4801 12.2895Z" fill="white"/>
<path d="M13.9225 12.2895C13.9667 12.2895 14.0025 12.2536 14.0025 12.2095C14.0025 12.1653 13.9667 12.1295 13.9225 12.1295C13.8783 12.1295 13.8425 12.1653 13.8425 12.2095C13.8425 12.2536 13.8783 12.2895 13.9225 12.2895Z" fill="white"/>
<path d="M15.5125 12.1295C15.5115 12.2421 15.5535 12.3508 15.6298 12.4335C15.6654 12.4734 15.709 12.5053 15.7576 12.5274C15.8063 12.5494 15.859 12.561 15.9125 12.5615C16.0245 12.5615 16.1258 12.5082 16.1951 12.4335C16.2715 12.3508 16.3134 12.2421 16.3125 12.1295V11.5535H15.5125V12.1295Z" fill="#003399"/>
<path d="M15.6989 11.8522C15.7431 11.8522 15.7789 11.8164 15.7789 11.7722C15.7789 11.728 15.7431 11.6922 15.6989 11.6922C15.6547 11.6922 15.6189 11.728 15.6189 11.7722C15.6189 11.8164 15.6547 11.8522 15.6989 11.8522Z" fill="white"/>
<path d="M16.1413 11.8522C16.1855 11.8522 16.2213 11.8164 16.2213 11.7722C16.2213 11.728 16.1855 11.6922 16.1413 11.6922C16.0971 11.6922 16.0613 11.728 16.0613 11.7722C16.0613 11.8164 16.0971 11.8522 16.1413 11.8522Z" fill="white"/>
<path d="M15.9176 12.0656C15.9618 12.0656 15.9976 12.0298 15.9976 11.9856C15.9976 11.9414 15.9618 11.9056 15.9176 11.9056C15.8735 11.9056 15.8376 11.9414 15.8376 11.9856C15.8376 12.0298 15.8735 12.0656 15.9176 12.0656Z" fill="white"/>
<path d="M15.6989 12.2895C15.7431 12.2895 15.7789 12.2536 15.7789 12.2095C15.7789 12.1653 15.7431 12.1295 15.6989 12.1295C15.6547 12.1295 15.6189 12.1653 15.6189 12.2095C15.6189 12.2536 15.6547 12.2895 15.6989 12.2895Z" fill="white"/>
<path d="M16.1413 12.2895C16.1855 12.2895 16.2213 12.2536 16.2213 12.2095C16.2213 12.1653 16.1855 12.1295 16.1413 12.1295C16.0971 12.1295 16.0613 12.1653 16.0613 12.2095C16.0613 12.2536 16.0971 12.2895 16.1413 12.2895Z" fill="white"/>
<path d="M14.4031 13.5055C14.4021 13.6181 14.4441 13.7268 14.5204 13.8095C14.556 13.8493 14.5996 13.8813 14.6483 13.9033C14.6969 13.9254 14.7497 13.937 14.8031 13.9375C14.9151 13.9375 15.0164 13.8842 15.0858 13.8095C15.1621 13.7268 15.2041 13.6181 15.2031 13.5055V12.9295H14.4031V13.5055Z" fill="#003399"/>
<path d="M14.5895 13.2282C14.6337 13.2282 14.6695 13.1924 14.6695 13.1482C14.6695 13.104 14.6337 13.0682 14.5895 13.0682C14.5453 13.0682 14.5095 13.104 14.5095 13.1482C14.5095 13.1924 14.5453 13.2282 14.5895 13.2282Z" fill="white"/>
<path d="M15.0319 13.2282C15.0761 13.2282 15.1119 13.1924 15.1119 13.1482C15.1119 13.104 15.0761 13.0682 15.0319 13.0682C14.9877 13.0682 14.9519 13.104 14.9519 13.1482C14.9519 13.1924 14.9877 13.2282 15.0319 13.2282Z" fill="white"/>
<path d="M14.8083 13.4416C14.8525 13.4416 14.8883 13.4057 14.8883 13.3616C14.8883 13.3174 14.8525 13.2816 14.8083 13.2816C14.7641 13.2816 14.7283 13.3174 14.7283 13.3616C14.7283 13.4057 14.7641 13.4416 14.8083 13.4416Z" fill="white"/>
<path d="M14.5895 13.6654C14.6337 13.6654 14.6695 13.6296 14.6695 13.5854C14.6695 13.5412 14.6337 13.5054 14.5895 13.5054C14.5453 13.5054 14.5095 13.5412 14.5095 13.5854C14.5095 13.6296 14.5453 13.6654 14.5895 13.6654Z" fill="white"/>
<path d="M15.0319 13.6654C15.0761 13.6654 15.1119 13.6296 15.1119 13.5854C15.1119 13.5412 15.0761 13.5054 15.0319 13.5054C14.9877 13.5054 14.9519 13.5412 14.9519 13.5854C14.9519 13.6296 14.9877 13.6654 15.0319 13.6654Z" fill="white"/>
</g>
<defs>
<clipPath id="clip0_11930_68285">
<rect width="36" height="24" rx="2" fill="white"/>
</clipPath>
</defs>
</svg>
