<svg width="36" height="24" viewBox="0 0 36 24" fill="none" xmlns="http://www.w3.org/2000/svg">
<rect width="36" height="24" rx="2" fill="#4AADD6"/>
<path fill-rule="evenodd" clip-rule="evenodd" d="M22.2975 11.605C22.3221 12.4738 22.1646 13.3385 21.8343 14.148C21.504 14.9576 21.0077 15.6956 20.3745 16.3184C19.7413 16.9412 18.9842 17.4363 18.1478 17.7743C17.3114 18.1123 16.4128 18.2865 15.505 18.2865C14.5971 18.2865 13.6985 18.1123 12.8621 17.7743C12.0257 17.4363 11.2686 16.9412 10.6354 16.3184C10.0023 15.6956 9.50588 14.9576 9.1756 14.148C8.84532 13.3385 8.68784 12.4738 8.71246 11.605C8.68784 10.7362 8.84532 9.87155 9.1756 9.06201C9.50588 8.25246 10.0023 7.51449 10.6354 6.89166C11.2686 6.26884 12.0257 5.7738 12.8621 5.43577C13.6985 5.09774 14.5971 4.92358 15.505 4.92358C16.4128 4.92358 17.3114 5.09774 18.1478 5.43577C18.9842 5.7738 19.7413 6.26884 20.3745 6.89166C21.0077 7.51449 21.504 8.25246 21.8343 9.06201C22.1646 9.87155 22.3221 10.7362 22.2975 11.605Z" fill="#FFDE00"/>
</svg>
