<svg width="36" height="24" viewBox="0 0 36 24" fill="none" xmlns="http://www.w3.org/2000/svg">
<g clip-path="url(#clip0_11930_68303)">
<path d="M0 15.9849H36V23.9999H0V15.9849Z" fill="#0038A8"/>
<path d="M0 8H36V16H0V8Z" fill="white"/>
<path d="M0 0H36V8H0V0Z" fill="#D52B1E"/>
<path d="M17.9966 15.0691C19.6916 15.0691 21.0657 13.695 21.0657 12C21.0657 10.305 19.6916 8.93091 17.9966 8.93091C16.3016 8.93091 14.9275 10.305 14.9275 12C14.9275 13.695 16.3016 15.0691 17.9966 15.0691Z" stroke="black" stroke-width="0.0800003"/>
<path d="M17.9961 14.5236C19.3898 14.5236 20.5197 13.3937 20.5197 12C20.5197 10.6062 19.3898 9.47632 17.9961 9.47632C16.6023 9.47632 15.4724 10.6062 15.4724 12C15.4724 13.3937 16.6023 14.5236 17.9961 14.5236Z" stroke="black" stroke-width="0.0363638"/>
<path d="M17.9958 13.9345C19.0643 13.9345 19.9304 13.0684 19.9304 12C19.9304 10.9316 19.0643 10.0654 17.9958 10.0654C16.9274 10.0654 16.0613 10.9316 16.0613 12C16.0613 13.0684 16.9274 13.9345 17.9958 13.9345Z" stroke="black" stroke-width="0.029091"/>
<path d="M16.3653 13.185L16.0103 13.395L15.9003 13.21C15.8849 13.1852 15.8731 13.1582 15.8653 13.13C15.8597 13.1084 15.8614 13.0855 15.8703 13.065C15.8803 13.045 15.8953 13.03 15.9203 13.015C15.9403 13.005 15.9553 13 15.9753 13C15.9942 12.9988 16.0131 13.0022 16.0303 13.01L16.0703 13.04V12.975L16.0853 12.95L16.1603 12.835L16.2303 12.96L16.1603 13.08L16.1453 13.12L16.1503 13.15L16.1553 13.16L16.3053 13.075L16.3653 13.185ZM16.0903 13.2L16.0603 13.15L16.0403 13.125C16.037 13.1218 16.0331 13.1193 16.0288 13.1175C16.0245 13.1158 16.0199 13.115 16.0153 13.115C16.0067 13.1139 15.9979 13.1157 15.9903 13.12L15.9703 13.15C15.9703 13.16 15.9753 13.175 15.9903 13.195L16.0153 13.245L16.0903 13.2ZM15.7553 12.925L15.6453 12.6L15.7303 12.57L15.7953 12.775L15.8603 12.755L15.7953 12.565L15.8753 12.54L15.9403 12.725L16.0153 12.7L15.9453 12.49L16.0353 12.465L16.1453 12.795L15.7553 12.925ZM15.6103 12.44L15.5903 12.23C15.5803 12.18 15.5903 12.15 15.6103 12.125C15.6303 12.095 15.6603 12.08 15.7003 12.075C15.7403 12.075 15.7753 12.08 15.8003 12.105C15.8253 12.125 15.8403 12.165 15.8503 12.215L15.8553 12.285L16.0053 12.265L16.0253 12.395L15.6103 12.44ZM15.7753 12.29L15.7703 12.26C15.7703 12.235 15.7603 12.22 15.7503 12.21C15.7457 12.2057 15.7401 12.2026 15.734 12.2008C15.7279 12.1991 15.7215 12.1988 15.7153 12.2C15.7032 12.2028 15.6925 12.2099 15.6853 12.22C15.6753 12.225 15.6753 12.245 15.6753 12.27L15.6803 12.305L15.7753 12.29ZM15.6003 11.665L15.6153 11.535L15.8553 11.565C15.8796 11.5676 15.9033 11.5744 15.9253 11.585C15.9453 11.595 15.9653 11.605 15.9753 11.625C15.9953 11.64 16.0003 11.66 16.0053 11.675C16.0153 11.705 16.0153 11.735 16.0103 11.77L16.0003 11.835C15.9953 11.86 15.9853 11.875 15.9753 11.89C15.9547 11.9224 15.9225 11.9457 15.8853 11.955H15.8153L15.5703 11.93L15.5853 11.805L15.8353 11.83C15.8553 11.83 15.8753 11.83 15.8853 11.82C15.9053 11.81 15.9103 11.79 15.9153 11.77C15.9169 11.7521 15.9116 11.7342 15.9003 11.72C15.8903 11.7 15.8703 11.695 15.8503 11.69L15.6003 11.665ZM15.6503 11.365L15.7353 11.135C15.7453 11.095 15.7653 11.07 15.7903 11.06C15.8022 11.0529 15.8155 11.0484 15.8293 11.0466C15.843 11.0449 15.857 11.0461 15.8703 11.05C15.8953 11.06 15.9103 11.075 15.9203 11.095C15.9303 11.11 15.9353 11.125 15.9353 11.145C15.9503 11.12 15.9703 11.105 15.9903 11.095C16.0129 11.0866 16.0377 11.0866 16.0603 11.095C16.08 11.1015 16.0975 11.1133 16.1108 11.1292C16.1241 11.1452 16.1326 11.1645 16.1353 11.185V11.235L16.1203 11.285L16.0453 11.495L15.6503 11.365ZM15.8503 11.295L15.8703 11.24C15.8703 11.22 15.8753 11.205 15.8703 11.2C15.8703 11.19 15.8603 11.18 15.8503 11.175C15.8456 11.1728 15.8405 11.1717 15.8353 11.1717C15.8301 11.1717 15.825 11.1728 15.8203 11.175C15.8103 11.185 15.8003 11.195 15.7953 11.215L15.7753 11.265L15.8503 11.295ZM16.0003 11.345L16.0253 11.285C16.0303 11.265 16.0353 11.25 16.0253 11.235C16.0213 11.2262 16.0142 11.2191 16.0053 11.215C16 11.212 15.994 11.2104 15.9878 11.2104C15.9817 11.2104 15.9756 11.212 15.9703 11.215L15.9453 11.26L15.9253 11.32L16.0003 11.345ZM15.8503 10.865L15.9153 10.755L16.1853 10.915L16.2853 10.745L16.3753 10.795L16.2053 11.075L15.8503 10.865ZM16.1003 10.485L16.1803 10.385L16.5003 10.65L16.4203 10.75L16.1003 10.485ZM16.6553 10.27L16.7653 10.22C16.7803 10.25 16.7853 10.28 16.7903 10.305C16.7917 10.3309 16.7865 10.3567 16.7753 10.38C16.7609 10.4091 16.7405 10.4347 16.7153 10.455C16.688 10.4827 16.6533 10.5018 16.6153 10.51C16.5827 10.5198 16.5479 10.5198 16.5153 10.51C16.4752 10.4932 16.4406 10.4655 16.4153 10.43C16.3653 10.38 16.3453 10.33 16.3503 10.275C16.3531 10.2467 16.3617 10.2193 16.3754 10.1943C16.3892 10.1694 16.4078 10.1475 16.4303 10.13C16.4627 10.1021 16.5028 10.0846 16.5453 10.08C16.5803 10.075 16.6203 10.08 16.6603 10.105L16.5903 10.2C16.5813 10.1933 16.5711 10.1882 16.5603 10.185C16.5488 10.1823 16.5368 10.1823 16.5253 10.185C16.5138 10.1892 16.5035 10.196 16.4953 10.205C16.4845 10.213 16.476 10.2236 16.4708 10.236C16.4655 10.2483 16.4636 10.2618 16.4653 10.275C16.4653 10.295 16.4853 10.32 16.5053 10.345C16.5353 10.38 16.5603 10.4 16.5853 10.405C16.6053 10.405 16.6253 10.405 16.6453 10.385C16.6653 10.37 16.6753 10.355 16.6753 10.335C16.6753 10.315 16.6703 10.295 16.6553 10.27ZM17.0953 10.11L16.9703 10.18L16.9853 10.25L16.8703 10.31L16.8103 9.87505L16.9353 9.81005L17.2653 10.1L17.1453 10.165L17.0953 10.11ZM17.0303 10.045L16.9203 9.93505L16.9503 10.085L17.0303 10.045ZM17.4203 9.62005L17.6103 9.59005C17.64 9.58412 17.6706 9.58412 17.7003 9.59005C17.7253 9.59505 17.7503 9.60505 17.7653 9.62505C17.7803 9.64505 17.8003 9.66005 17.8103 9.68505C17.8203 9.70505 17.8303 9.73505 17.8303 9.76005C17.8403 9.80505 17.8403 9.84005 17.8353 9.86005C17.8307 9.88535 17.8205 9.90928 17.8053 9.93005C17.7927 9.94903 17.7755 9.96451 17.7553 9.97505C17.7315 9.98665 17.7063 9.99506 17.6803 10L17.4953 10.03L17.4203 9.62005ZM17.5653 9.69005L17.6053 9.91505L17.6353 9.91005C17.6603 9.90505 17.6803 9.90005 17.6853 9.89005C17.7003 9.88505 17.7053 9.87005 17.7103 9.85505V9.78505C17.7003 9.74005 17.6853 9.71505 17.6703 9.70005C17.6553 9.68505 17.6303 9.68005 17.5953 9.68505L17.5653 9.69005ZM17.9553 9.55005L18.2953 9.56505V9.65505L18.0803 9.64505L18.0753 9.71005L18.2753 9.72005L18.2703 9.80505L18.0703 9.79505V9.87505L18.2903 9.88505L18.2853 9.98005L17.9353 9.96505L17.9553 9.55005ZM18.4553 9.59005L18.5753 9.62005L18.5003 9.92005L18.7003 9.97005L18.6703 10.07L18.3553 9.99005L18.4553 9.59005ZM19.1153 9.81005L19.3003 9.92005C19.3403 9.94005 19.3653 9.97005 19.3703 10C19.3803 10.03 19.3703 10.065 19.3553 10.1C19.3468 10.1165 19.3348 10.1309 19.3201 10.1421C19.3054 10.1533 19.2884 10.1612 19.2703 10.165C19.2403 10.17 19.2003 10.165 19.1553 10.135L19.0953 10.1L19.0153 10.23L18.9053 10.165L19.1153 9.81005ZM19.1353 10.03L19.1653 10.045L19.2153 10.06C19.2215 10.0593 19.2275 10.0571 19.2327 10.0536C19.2379 10.0501 19.2422 10.0455 19.2453 10.04C19.2495 10.0288 19.2495 10.0163 19.2453 10.005C19.2453 9.99005 19.2353 9.98005 19.2153 9.96505L19.1853 9.95005L19.1353 10.03ZM19.4953 10.51L19.3903 10.41L19.3303 10.445L19.2303 10.36L19.6303 10.16L19.7303 10.26L19.5603 10.665L19.4603 10.575L19.4953 10.51ZM19.5353 10.425L19.6053 10.285L19.4703 10.365L19.5353 10.425ZM19.5853 10.7L19.9303 10.465L20.0453 10.64L20.0953 10.725L20.0903 10.785C20.0802 10.8084 20.0626 10.8278 20.0403 10.84C20.0253 10.855 20.0053 10.86 19.9903 10.86C19.9698 10.8622 19.9491 10.8587 19.9303 10.85C19.9203 10.85 19.9053 10.835 19.8903 10.825L19.9003 10.86L19.8903 10.89C19.8879 10.9003 19.8846 10.9104 19.8803 10.92L19.8153 11.035L19.7353 10.92L19.8003 10.79L19.8153 10.755C19.8165 10.7425 19.8129 10.73 19.8053 10.72L19.8003 10.71L19.6603 10.81L19.5853 10.7ZM19.8603 10.67L19.8953 10.715L19.9153 10.735C19.9253 10.745 19.9303 10.745 19.9403 10.745C19.949 10.7462 19.9577 10.7444 19.9653 10.74C19.9698 10.7364 19.9735 10.7319 19.9761 10.7267C19.9787 10.7215 19.9801 10.7158 19.9803 10.71C19.9803 10.7 19.9803 10.685 19.9653 10.665L19.9303 10.62L19.8603 10.67ZM19.9903 11.29L19.9403 11.15L19.8653 11.16L19.8153 11.035L20.2603 11.03L20.3103 11.16L19.9853 11.46L19.9353 11.33L19.9903 11.29ZM20.0653 11.23L20.1853 11.13L20.0303 11.145L20.0653 11.23ZM20.1703 11.68L20.2553 11.67L20.2853 11.865L20.1103 11.89C20.0846 11.8632 20.0627 11.8329 20.0453 11.8C20.0302 11.7685 20.0201 11.7347 20.0153 11.7C20.0064 11.6586 20.0081 11.6156 20.0203 11.575C20.0346 11.5432 20.057 11.5156 20.0853 11.495C20.1177 11.4712 20.1555 11.4558 20.1953 11.45C20.2355 11.4436 20.2767 11.447 20.3153 11.46C20.3503 11.4739 20.38 11.4984 20.4003 11.53C20.4203 11.56 20.4303 11.595 20.4403 11.64V11.74C20.4363 11.764 20.426 11.7865 20.4103 11.805C20.3953 11.825 20.3753 11.835 20.3503 11.85L20.3103 11.73C20.3253 11.725 20.3353 11.715 20.3453 11.7C20.3553 11.685 20.3503 11.67 20.3453 11.65C20.344 11.6381 20.3403 11.6266 20.3342 11.6163C20.3282 11.606 20.32 11.597 20.3103 11.59C20.2903 11.575 20.2603 11.57 20.2103 11.58C20.179 11.5825 20.1493 11.5948 20.1253 11.615C20.1053 11.635 20.1003 11.665 20.1053 11.69C20.1053 11.705 20.1103 11.72 20.1203 11.73L20.1453 11.77H20.1853L20.1703 11.68ZM20.4403 12.28L20.4303 12.41L20.1803 12.39C20.1577 12.387 20.1357 12.3802 20.1153 12.37C20.096 12.3605 20.0789 12.3468 20.0653 12.33C20.0516 12.314 20.0413 12.2953 20.0353 12.275C20.0266 12.2459 20.0233 12.2154 20.0253 12.185L20.0353 12.12L20.0603 12.06C20.071 12.0443 20.0846 12.0307 20.1003 12.02C20.1154 12.01 20.1324 12.0032 20.1503 12C20.173 11.9933 20.1966 11.99 20.2203 11.99L20.4703 12.015L20.4553 12.14L20.2053 12.12C20.1803 12.12 20.1603 12.12 20.1503 12.135C20.1429 12.1412 20.1369 12.1488 20.1326 12.1574C20.1283 12.166 20.1258 12.1754 20.1253 12.185C20.1253 12.205 20.1253 12.225 20.1403 12.235C20.1503 12.25 20.1653 12.26 20.1903 12.26L20.4403 12.28ZM19.9853 12.72L20.0303 12.58L19.9703 12.54L20.0103 12.415L20.3603 12.695L20.3103 12.825L19.8703 12.845L19.9153 12.72H19.9853ZM20.0803 12.72L20.2303 12.725L20.1053 12.635L20.0803 12.72ZM20.2303 13.06L20.1553 13.18H19.9903L20.0653 13.325L19.9953 13.445L19.8703 13.185L19.7203 13.095L19.7903 12.985L19.9403 13.075L20.2303 13.06Z" fill="black"/>
<path d="M18.4042 10.5649C18.4042 10.5649 19.5742 11.0699 19.3692 12.1099C19.1692 13.1499 18.5192 13.1399 18.2592 13.2599C18.0092 13.3699 17.8292 13.5349 17.7292 13.5099C17.6292 13.4899 17.4942 13.4099 17.4942 13.4099C17.4942 13.4099 17.4842 13.5849 17.6892 13.6099C17.8942 13.6449 18.1642 13.3449 18.2892 13.3099C18.4192 13.2799 19.2142 13.1899 19.4092 12.1349C19.6342 11.0049 18.4092 10.5999 18.4092 10.5649H18.4042Z" fill="#009B3A" stroke="black" stroke-width="0.005"/>
<path d="M18.9948 10.79C18.9982 10.8168 18.9986 10.8396 18.9959 10.8556C18.9932 10.8715 18.9876 10.88 18.9797 10.88C18.9718 10.88 18.962 10.8715 18.9514 10.8556C18.9408 10.8396 18.9298 10.8168 18.9198 10.79C18.9111 10.7664 18.9034 10.7404 18.8974 10.7144C18.8914 10.6885 18.8874 10.6634 18.8857 10.6415C18.884 10.6196 18.8847 10.6016 18.8876 10.5891C18.8906 10.5766 18.8958 10.5701 18.9027 10.5701C18.9097 10.5701 18.9181 10.5766 18.9273 10.5891C18.9365 10.6016 18.9461 10.6196 18.9553 10.6415C18.9644 10.6634 18.9729 10.6885 18.9798 10.7144C18.9867 10.7404 18.9919 10.7664 18.9948 10.79Z" fill="#009B3A" stroke="black" stroke-width="0.005"/>
<path d="M18.9534 10.8C18.9636 10.8205 18.9727 10.8411 18.9803 10.8606C18.9879 10.8801 18.9939 10.8982 18.9978 10.9138C19.0017 10.9295 19.0035 10.9423 19.0032 10.9517C19.0028 10.961 19.0003 10.9667 18.9957 10.9683C18.9911 10.9699 18.9845 10.9675 18.9764 10.9612C18.9683 10.9549 18.9587 10.9448 18.9483 10.9315C18.9379 10.9182 18.9268 10.902 18.9156 10.8837C18.9045 10.8654 18.8936 10.8455 18.8834 10.825C18.8629 10.7837 18.847 10.7428 18.839 10.7112C18.8311 10.6797 18.8319 10.6601 18.8411 10.6568C18.8504 10.6534 18.8675 10.6667 18.8885 10.6935C18.9096 10.7204 18.9329 10.7587 18.9534 10.8ZM18.8384 10.875C18.8746 10.8868 18.9076 10.9013 18.9311 10.9158C18.9545 10.9304 18.9668 10.9439 18.9656 10.9538C18.9643 10.9637 18.9496 10.9693 18.9243 10.9695C18.899 10.9697 18.8649 10.9646 18.8284 10.955C18.7922 10.9433 18.7592 10.9288 18.7358 10.9142C18.7123 10.8997 18.7 10.8862 18.7013 10.8763C18.7025 10.8664 18.7172 10.8608 18.7425 10.8606C18.7678 10.8603 18.8019 10.8655 18.8384 10.875Z" fill="#009B3A" stroke="black" stroke-width="0.005"/>
<path d="M18.8546 10.8351C18.8926 10.8607 18.9273 10.8887 18.951 10.9129C18.9746 10.9371 18.9853 10.9556 18.9807 10.9642C18.976 10.9728 18.9564 10.9709 18.9262 10.9589C18.896 10.9469 18.8576 10.9257 18.8196 10.9001C18.8007 10.8874 18.7825 10.874 18.7659 10.8606C18.7494 10.8473 18.7348 10.8342 18.7231 10.8222C18.6995 10.798 18.6888 10.7796 18.6934 10.7709C18.6981 10.7623 18.7177 10.7642 18.7479 10.7763C18.7781 10.7883 18.8165 10.8094 18.8546 10.8351Z" fill="#009B3A" stroke="black" stroke-width="0.005"/>
<path d="M18.9041 10.815C18.9347 10.8469 18.9615 10.8801 18.9784 10.9073C18.9954 10.9345 19.0012 10.9536 18.9946 10.9602C18.9879 10.9668 18.9694 10.9605 18.9431 10.9427C18.9167 10.9248 18.8847 10.8969 18.8541 10.865C18.8235 10.8332 18.7968 10.8 18.7798 10.7727C18.7628 10.7455 18.757 10.7265 18.7637 10.7199C18.7703 10.7132 18.7888 10.7195 18.8152 10.7374C18.8415 10.7552 18.8735 10.7832 18.9041 10.815Z" fill="#009B3A" stroke="black" stroke-width="0.005"/>
<path d="M18.9843 10.9599L18.9343 10.9899C18.9193 10.9899 18.9043 10.9749 18.8743 10.9899C18.8443 11.0049 18.8243 11.0349 18.8193 11.0499C18.8143 11.0649 18.8293 11.0749 18.8643 11.0549C18.8993 11.0399 18.9093 11.0099 18.9243 10.9999L18.9893 10.9649L19.0293 10.8999C19.0443 10.8799 19.0893 10.8499 19.1093 10.8099C19.1243 10.7799 19.1193 10.7549 19.0993 10.7649C19.0732 10.7801 19.0523 10.8027 19.0393 10.8299C19.0293 10.8499 19.0393 10.8799 19.0243 10.8999L18.9843 10.9599ZM19.3493 11.0799C19.3505 11.1495 19.3458 11.2148 19.3363 11.2617C19.3268 11.3085 19.3133 11.333 19.2987 11.3296C19.2841 11.3263 19.2697 11.2955 19.2585 11.244C19.2474 11.1925 19.2405 11.1245 19.2393 11.0549C19.2381 10.9854 19.2428 10.92 19.2523 10.8732C19.2618 10.8264 19.2753 10.8019 19.2899 10.8052C19.3045 10.8085 19.3189 10.8394 19.3301 10.8909C19.3412 10.9424 19.3481 11.0104 19.3493 11.0799Z" fill="#009B3A" stroke="black" stroke-width="0.005"/>
<path d="M19.2895 11.075C19.3046 11.1454 19.3132 11.2131 19.3136 11.2633C19.3139 11.3135 19.3059 11.342 19.2914 11.3427C19.2768 11.3434 19.2568 11.3161 19.2358 11.2668C19.2148 11.2176 19.1946 11.1504 19.1795 11.08C19.1725 11.0471 19.1669 11.0145 19.1631 10.9841C19.1593 10.9537 19.1573 10.9261 19.1572 10.9028C19.1572 10.8795 19.159 10.861 19.1627 10.8484C19.1664 10.8358 19.1719 10.8293 19.1788 10.8293C19.1856 10.8293 19.1939 10.8358 19.2029 10.8484C19.2119 10.861 19.2217 10.8795 19.2315 10.9028C19.2413 10.9261 19.251 10.9537 19.2601 10.9841C19.2692 11.0145 19.2775 11.0471 19.2845 11.08L19.2895 11.075Z" fill="#009B3A" stroke="black" stroke-width="0.005"/>
<path d="M19.0994 11.135C19.125 11.1523 19.1499 11.1709 19.1727 11.1896C19.1955 11.2084 19.2158 11.2269 19.2323 11.2443C19.2487 11.2616 19.2612 11.2774 19.2689 11.2907C19.2766 11.304 19.2793 11.3145 19.277 11.3218C19.2747 11.329 19.2674 11.3327 19.2555 11.3328C19.2435 11.3328 19.2272 11.3292 19.2075 11.3221C19.1878 11.3149 19.165 11.3045 19.1404 11.2913C19.1159 11.278 19.09 11.2623 19.0644 11.245C19.0388 11.2277 19.0139 11.2092 18.9911 11.1904C18.9683 11.1717 18.948 11.1531 18.9315 11.1358C18.9151 11.1185 18.9026 11.1027 18.8949 11.0894C18.8872 11.0761 18.8845 11.0655 18.8868 11.0583C18.8891 11.0511 18.8964 11.0474 18.9083 11.0473C18.9202 11.0472 18.9366 11.0509 18.9563 11.058C18.976 11.0651 18.9988 11.0756 19.0234 11.0888C19.0479 11.102 19.0738 11.1177 19.0994 11.135Z" fill="#009B3A" stroke="black" stroke-width="0.005"/>
<path d="M19.1395 11.0799C19.1837 11.1335 19.2224 11.1892 19.2471 11.2346C19.2718 11.28 19.2804 11.3115 19.2711 11.3221C19.2618 11.3327 19.2354 11.3216 19.1976 11.2912C19.1598 11.2608 19.1137 11.2135 19.0695 11.1599C19.0267 11.1079 18.9894 11.054 18.9657 11.0102C18.942 10.9663 18.9339 10.9361 18.9432 10.9262C18.9525 10.9162 18.9784 10.9274 19.0152 10.9571C19.052 10.9869 19.0967 11.0329 19.1395 11.0849V11.0799Z" fill="#009B3A" stroke="black" stroke-width="0.005"/>
<path d="M19.2142 11.0751C19.2471 11.1364 19.274 11.1979 19.2888 11.2459C19.3037 11.294 19.3053 11.3247 19.2934 11.3313C19.2814 11.338 19.2569 11.32 19.2252 11.2813C19.1935 11.2426 19.1571 11.1864 19.1242 11.1251C19.1079 11.0947 19.0929 11.064 19.0801 11.0346C19.0673 11.0053 19.0569 10.978 19.0496 10.9542C19.0347 10.9061 19.0331 10.8754 19.045 10.8688C19.0569 10.8621 19.0815 10.8802 19.1132 10.9188C19.1449 10.9575 19.1813 11.0137 19.2142 11.0751Z" fill="#009B3A" stroke="black" stroke-width="0.005"/>
<path d="M19.2789 11.32L19.1889 11.34C19.1739 11.34 19.1589 11.305 19.1139 11.315C19.0689 11.325 19.0289 11.355 19.0139 11.375C19.0039 11.395 19.0189 11.415 19.0739 11.405C19.1339 11.395 19.1539 11.355 19.1839 11.355C19.2089 11.345 19.2539 11.335 19.2839 11.335C19.2939 11.315 19.3339 11.275 19.3589 11.255C19.3839 11.23 19.4589 11.205 19.4939 11.165C19.5289 11.125 19.5289 11.085 19.4939 11.09C19.4556 11.1029 19.4212 11.1253 19.3939 11.155C19.3689 11.185 19.3739 11.23 19.3489 11.255L19.2789 11.32ZM19.5339 11.565C19.5227 11.6318 19.5067 11.6933 19.4894 11.7358C19.4721 11.7784 19.455 11.7986 19.4417 11.7919C19.4285 11.7853 19.4202 11.7524 19.4187 11.7005C19.4172 11.6485 19.4227 11.5818 19.4339 11.515C19.4394 11.4819 19.4462 11.4498 19.4538 11.4205C19.4614 11.3912 19.4698 11.3653 19.4783 11.3442C19.4869 11.3231 19.4955 11.3073 19.5037 11.2977C19.5119 11.2881 19.5195 11.2848 19.526 11.2881C19.5326 11.2914 19.538 11.3012 19.542 11.3169C19.5459 11.3325 19.5483 11.3539 19.549 11.3796C19.5498 11.4053 19.5488 11.4349 19.5462 11.4667C19.5436 11.4985 19.5394 11.5319 19.5339 11.565Z" fill="#009B3A" stroke="black" stroke-width="0.005"/>
<path d="M19.4784 11.55C19.48 11.5849 19.4802 11.6199 19.479 11.6527C19.4777 11.6856 19.475 11.7156 19.471 11.7408C19.467 11.7661 19.4618 11.7859 19.4557 11.7991C19.4497 11.8124 19.443 11.8186 19.4359 11.8176C19.4289 11.8165 19.4217 11.8082 19.4149 11.793C19.4081 11.7779 19.4018 11.7563 19.3964 11.7297C19.3909 11.703 19.3865 11.6719 19.3834 11.6384C19.3803 11.6049 19.3786 11.5697 19.3784 11.535C19.3767 11.5002 19.3765 11.4652 19.3778 11.4323C19.3791 11.3994 19.3818 11.3694 19.3858 11.3442C19.3898 11.319 19.395 11.2991 19.401 11.2859C19.407 11.2727 19.4138 11.2664 19.4208 11.2674C19.4278 11.2685 19.435 11.2769 19.4418 11.292C19.4486 11.3072 19.455 11.3288 19.4604 11.3554C19.4658 11.382 19.4702 11.4131 19.4733 11.4466C19.4764 11.4801 19.4781 11.5154 19.4784 11.55Z" fill="#009B3A" stroke="black" stroke-width="0.005"/>
<path d="M19.2834 11.57C19.3091 11.5924 19.3353 11.6179 19.3598 11.6445C19.3843 11.6711 19.4065 11.6981 19.4245 11.7234C19.4426 11.7486 19.4561 11.7715 19.4639 11.7901C19.4718 11.8087 19.4738 11.8225 19.4698 11.8306C19.4657 11.8386 19.4558 11.8406 19.4408 11.8364C19.4257 11.8322 19.406 11.8219 19.3831 11.8064C19.3601 11.7908 19.3347 11.7704 19.3087 11.7467C19.2827 11.723 19.2569 11.6968 19.2334 11.67C19.2076 11.6476 19.1814 11.6221 19.1569 11.5954C19.1324 11.5688 19.1102 11.5418 19.0922 11.5166C19.0741 11.4913 19.0606 11.4685 19.0528 11.4499C19.0449 11.4313 19.0429 11.4174 19.0469 11.4093C19.051 11.4013 19.0609 11.3993 19.0759 11.4035C19.091 11.4077 19.1107 11.418 19.1337 11.4336C19.1566 11.4491 19.182 11.4696 19.208 11.4932C19.234 11.5169 19.2598 11.5432 19.2834 11.57Z" fill="#009B3A" stroke="black" stroke-width="0.005"/>
<path d="M19.334 11.5249C19.3505 11.5554 19.3659 11.5864 19.3791 11.6161C19.3922 11.6459 19.403 11.6739 19.4108 11.6984C19.4186 11.723 19.4232 11.7436 19.4244 11.7592C19.4256 11.7748 19.4233 11.7851 19.4177 11.7893C19.4122 11.7936 19.4034 11.7918 19.3919 11.7841C19.3804 11.7764 19.3664 11.7629 19.3507 11.7444C19.335 11.7259 19.318 11.7027 19.3005 11.6762C19.2831 11.6497 19.2655 11.6204 19.249 11.5899C19.2324 11.5595 19.217 11.5285 19.2039 11.4987C19.1907 11.4689 19.1799 11.441 19.1721 11.4164C19.1643 11.3919 19.1597 11.3712 19.1585 11.3556C19.1573 11.34 19.1596 11.3298 19.1652 11.3255C19.1707 11.3212 19.1795 11.323 19.191 11.3307C19.2025 11.3384 19.2165 11.3519 19.2322 11.3705C19.2479 11.389 19.2649 11.4121 19.2824 11.4386C19.2998 11.4652 19.3174 11.4945 19.334 11.5249Z" fill="#009B3A" stroke="black" stroke-width="0.005"/>
<path d="M19.4043 11.535C19.4145 11.5672 19.4235 11.5997 19.4305 11.6304C19.4376 11.6611 19.4427 11.6894 19.4455 11.7139C19.4484 11.7383 19.4489 11.7584 19.447 11.7729C19.4452 11.7873 19.441 11.796 19.4348 11.7983C19.4286 11.8006 19.4204 11.7965 19.4107 11.7863C19.401 11.776 19.39 11.7598 19.3784 11.7386C19.3667 11.7174 19.3546 11.6916 19.3428 11.6627C19.3309 11.6338 19.3195 11.6022 19.3093 11.57C19.2986 11.5362 19.2893 11.5022 19.2819 11.4701C19.2745 11.438 19.2692 11.4083 19.2663 11.3828C19.2604 11.3312 19.2645 11.2997 19.2778 11.295C19.291 11.2904 19.3124 11.3131 19.337 11.3581C19.3617 11.4031 19.3877 11.4667 19.4093 11.535H19.4043Z" fill="#009B3A" stroke="black" stroke-width="0.005"/>
<path d="M19.424 11.79H19.339C19.324 11.79 19.314 11.75 19.269 11.75C19.2304 11.7507 19.1932 11.7648 19.164 11.79C19.144 11.81 19.159 11.83 19.214 11.83C19.269 11.83 19.299 11.805 19.329 11.8H19.429L19.519 11.74C19.549 11.72 19.624 11.71 19.669 11.675C19.704 11.645 19.714 11.605 19.684 11.605C19.6425 11.6102 19.6029 11.6257 19.569 11.65C19.544 11.67 19.539 11.715 19.509 11.735C19.489 11.745 19.429 11.79 19.424 11.785M19.549 12.105C19.5137 12.1611 19.4763 12.2103 19.4448 12.242C19.4133 12.2736 19.3904 12.2851 19.3811 12.2738C19.3718 12.2625 19.3769 12.2295 19.3953 12.1819C19.4136 12.1343 19.4437 12.0761 19.479 12.02C19.5142 11.964 19.5517 11.9148 19.5832 11.8831C19.6147 11.8515 19.6376 11.84 19.6468 11.8513C19.6561 11.8626 19.651 11.8956 19.6327 11.9432C19.6143 11.9908 19.5842 12.049 19.549 12.105Z" fill="#009B3A"/>
<path d="M19.424 11.79H19.339C19.324 11.79 19.314 11.75 19.269 11.75C19.2304 11.7507 19.1932 11.7648 19.164 11.79C19.144 11.81 19.159 11.83 19.214 11.83C19.269 11.83 19.299 11.805 19.329 11.8H19.429L19.519 11.74C19.549 11.72 19.624 11.71 19.669 11.675C19.704 11.645 19.714 11.605 19.684 11.605C19.6425 11.6102 19.6029 11.6257 19.569 11.65C19.544 11.67 19.539 11.715 19.509 11.735C19.489 11.745 19.429 11.79 19.424 11.785M19.549 12.105C19.5137 12.1611 19.4763 12.2103 19.4448 12.242C19.4133 12.2736 19.3904 12.2851 19.3811 12.2738C19.3718 12.2625 19.3769 12.2295 19.3953 12.1819C19.4136 12.1343 19.4437 12.0761 19.479 12.02C19.5142 11.964 19.5517 11.9148 19.5832 11.8831C19.6147 11.8515 19.6376 11.84 19.6468 11.8513C19.6561 11.8626 19.651 11.8956 19.6327 11.9432C19.6143 11.9908 19.5842 12.049 19.549 12.105Z" stroke="black" stroke-width="0.005"/>
<path d="M19.5045 12.065C19.4798 12.1291 19.4514 12.1877 19.4255 12.2279C19.3997 12.268 19.3784 12.2865 19.3665 12.2792C19.3546 12.2719 19.3529 12.2395 19.3619 12.189C19.3709 12.1385 19.3898 12.0741 19.4145 12.01C19.4391 11.9459 19.4675 11.8873 19.4934 11.8471C19.5193 11.8069 19.5405 11.7885 19.5524 11.7957C19.5644 11.803 19.566 11.8355 19.557 11.886C19.548 11.9365 19.5291 12.0009 19.5045 12.065ZM19.3195 12.005C19.3445 12.0705 19.3638 12.1374 19.373 12.1907C19.3823 12.2441 19.3808 12.2797 19.3688 12.2896C19.3569 12.2996 19.3355 12.2831 19.3094 12.2438C19.2832 12.2045 19.2545 12.1455 19.2295 12.08C19.2044 12.0144 19.1852 11.9476 19.1759 11.8942C19.1667 11.8408 19.1682 11.8053 19.1801 11.7953C19.192 11.7854 19.2134 11.8019 19.2396 11.8412C19.2657 11.8805 19.2944 11.9394 19.3195 12.005Z" fill="#009B3A" stroke="black" stroke-width="0.005"/>
<path d="M19.3788 11.9851C19.3851 12.0536 19.3859 12.1206 19.381 12.1715C19.376 12.2223 19.3658 12.2527 19.3526 12.256C19.3393 12.2593 19.3241 12.2353 19.3102 12.1891C19.2964 12.143 19.2851 12.0786 19.2788 12.0101C19.2757 11.9761 19.2739 11.9422 19.2735 11.9102C19.2731 11.8782 19.2742 11.8488 19.2766 11.8237C19.2791 11.7985 19.2828 11.7781 19.2877 11.7636C19.2926 11.7491 19.2985 11.7408 19.305 11.7391C19.3116 11.7375 19.3187 11.7426 19.326 11.754C19.3332 11.7655 19.3405 11.7831 19.3473 11.806C19.3542 11.8288 19.3605 11.8564 19.3659 11.8871C19.3713 11.9178 19.3757 11.9511 19.3788 11.9851Z" fill="#009B3A" stroke="black" stroke-width="0.005"/>
<path d="M19.4494 12.0201C19.4429 12.0887 19.4314 12.1543 19.4175 12.2024C19.4035 12.2505 19.3882 12.2771 19.3749 12.2765C19.3617 12.2758 19.3515 12.2479 19.3468 12.1989C19.342 12.1499 19.3429 12.0837 19.3494 12.0151C19.3526 11.9811 19.3571 11.9475 19.3626 11.9162C19.3681 11.8849 19.3745 11.8565 19.3814 11.8327C19.3883 11.8089 19.3956 11.7901 19.4029 11.7774C19.4102 11.7647 19.4173 11.7584 19.4239 11.7587C19.4372 11.7593 19.4473 11.7873 19.4521 11.8363C19.4569 11.8853 19.4559 11.9514 19.4494 12.0201Z" fill="#009B3A" stroke="black" stroke-width="0.005"/>
<path d="M19.3641 12.2651C19.3641 12.2651 19.2941 12.2401 19.2841 12.2301C19.2691 12.2201 19.2791 12.1901 19.2341 12.1651C19.1986 12.1516 19.1595 12.1516 19.1241 12.1651C19.0991 12.1651 19.1041 12.1951 19.1541 12.2151C19.2041 12.2451 19.2441 12.2251 19.2691 12.2351L19.3591 12.2801C19.3841 12.2701 19.4391 12.2651 19.4691 12.2601C19.4991 12.2551 19.5741 12.2801 19.6291 12.2601C19.6741 12.2451 19.6941 12.2101 19.6641 12.2001C19.6264 12.1901 19.5867 12.1901 19.5491 12.2001C19.5141 12.2051 19.4941 12.2501 19.4591 12.2501C19.4341 12.2501 19.3641 12.2701 19.3591 12.2651M19.4091 12.6501C19.3794 12.6783 19.3477 12.7055 19.3161 12.7296C19.2846 12.7538 19.2541 12.7742 19.2268 12.7894C19.1996 12.8047 19.1764 12.8143 19.159 12.8176C19.1415 12.8209 19.1302 12.8178 19.126 12.8086C19.1217 12.7993 19.1246 12.7841 19.1344 12.7641C19.1442 12.7441 19.1607 12.7198 19.1826 12.693C19.2046 12.6662 19.2314 12.6377 19.2611 12.6095C19.2907 12.5812 19.3225 12.5541 19.3541 12.5301C19.3841 12.5002 19.4171 12.4709 19.4504 12.4447C19.4837 12.4184 19.5163 12.3958 19.5456 12.3789C19.5748 12.362 19.5998 12.3511 19.6186 12.3472C19.6373 12.3433 19.6493 12.3465 19.6535 12.3565C19.6576 12.3665 19.6539 12.383 19.6426 12.4047C19.6312 12.4264 19.6126 12.4527 19.5883 12.4814C19.5639 12.51 19.5345 12.5403 19.5025 12.5696C19.4705 12.5989 19.4367 12.6265 19.4041 12.6501" fill="#009B3A"/>
<path d="M19.3641 12.2651C19.3641 12.2651 19.2941 12.2401 19.2841 12.2301C19.2691 12.2201 19.2791 12.1901 19.2341 12.1651C19.1986 12.1516 19.1595 12.1516 19.1241 12.1651C19.0991 12.1651 19.1041 12.1951 19.1541 12.2151C19.2041 12.2451 19.2441 12.2251 19.2691 12.2351L19.3591 12.2801C19.3841 12.2701 19.4391 12.2651 19.4691 12.2601C19.4991 12.2551 19.5741 12.2801 19.6291 12.2601C19.6741 12.2451 19.6941 12.2101 19.6641 12.2001C19.6264 12.1901 19.5867 12.1901 19.5491 12.2001C19.5141 12.2051 19.4941 12.2501 19.4591 12.2501C19.4341 12.2501 19.3641 12.2701 19.3591 12.2651M19.4091 12.6501C19.3794 12.6783 19.3477 12.7055 19.3161 12.7296C19.2846 12.7538 19.2541 12.7742 19.2268 12.7894C19.1996 12.8047 19.1764 12.8143 19.159 12.8176C19.1415 12.8209 19.1302 12.8178 19.126 12.8086C19.1217 12.7993 19.1246 12.7841 19.1344 12.7641C19.1442 12.7441 19.1607 12.7198 19.1826 12.693C19.2046 12.6662 19.2314 12.6377 19.2611 12.6095C19.2907 12.5812 19.3225 12.5541 19.3541 12.5301C19.3841 12.5002 19.4171 12.4709 19.4504 12.4447C19.4837 12.4184 19.5163 12.3958 19.5456 12.3789C19.5748 12.362 19.5998 12.3511 19.6186 12.3472C19.6373 12.3433 19.6493 12.3465 19.6535 12.3565C19.6576 12.3665 19.6539 12.383 19.6426 12.4047C19.6312 12.4264 19.6126 12.4527 19.5883 12.4814C19.5639 12.51 19.5345 12.5403 19.5025 12.5696C19.4705 12.5989 19.4367 12.6265 19.4041 12.6501" stroke="black" stroke-width="0.005"/>
<path d="M19.3638 12.5951C19.3161 12.6558 19.2664 12.7087 19.2256 12.7422C19.1849 12.7757 19.1564 12.787 19.1464 12.7738C19.1365 12.7605 19.1459 12.7237 19.1726 12.6715C19.1993 12.6192 19.2411 12.5558 19.2888 12.4951C19.3124 12.4651 19.3368 12.4366 19.3605 12.4114C19.3842 12.3862 19.4068 12.3647 19.427 12.3481C19.4472 12.3315 19.4645 12.3201 19.4781 12.3147C19.4917 12.3093 19.5012 12.3099 19.5062 12.3164C19.5111 12.323 19.5113 12.3354 19.5068 12.353C19.5023 12.3705 19.4932 12.3929 19.48 12.4188C19.4668 12.4446 19.4497 12.4735 19.4298 12.5038C19.4098 12.5341 19.3874 12.5651 19.3638 12.5951Z" fill="#009B3A" stroke="black" stroke-width="0.005"/>
<path d="M19.1841 12.46C19.1906 12.4998 19.195 12.5432 19.197 12.5867C19.1989 12.6302 19.1984 12.6725 19.1953 12.7101C19.1923 12.7477 19.1869 12.7796 19.1796 12.8031C19.1722 12.8266 19.1632 12.841 19.1531 12.8452C19.1431 12.8494 19.1324 12.8432 19.1218 12.8272C19.1113 12.8111 19.1013 12.7857 19.0926 12.7529C19.0839 12.7202 19.0767 12.6811 19.0718 12.6388C19.0668 12.5966 19.0642 12.5524 19.0641 12.51C19.0576 12.4703 19.0532 12.4268 19.0512 12.3834C19.0492 12.3399 19.0498 12.2976 19.0528 12.2599C19.0558 12.2223 19.0612 12.1904 19.0686 12.1669C19.0759 12.1434 19.085 12.129 19.095 12.1248C19.1051 12.1206 19.1158 12.1268 19.1263 12.1429C19.1369 12.1589 19.1469 12.1844 19.1556 12.2171C19.1643 12.2499 19.1714 12.289 19.1764 12.3312C19.1813 12.3734 19.184 12.4176 19.1841 12.46Z" fill="#009B3A" stroke="black" stroke-width="0.005"/>
<path d="M19.2548 12.4601C19.2392 12.5189 19.2212 12.57 19.2035 12.6058C19.1858 12.6416 19.1693 12.6604 19.1565 12.6593C19.1436 12.6581 19.135 12.6372 19.132 12.5996C19.129 12.562 19.1318 12.5096 19.1398 12.4501C19.1454 12.4065 19.1537 12.3601 19.1642 12.3147C19.1746 12.2694 19.1868 12.2264 19.1998 12.1894C19.2129 12.1524 19.2263 12.1223 19.239 12.1017C19.2517 12.0812 19.2634 12.0706 19.273 12.0711C19.2827 12.0715 19.29 12.0828 19.2944 12.1041C19.2988 12.1255 19.3002 12.1562 19.2984 12.1937C19.2966 12.2312 19.2917 12.2745 19.2842 12.32C19.2766 12.3654 19.2665 12.4118 19.2548 12.4551" fill="#009B3A"/>
<path d="M19.2548 12.4601C19.2392 12.5189 19.2212 12.57 19.2035 12.6058C19.1858 12.6416 19.1693 12.6604 19.1565 12.6593C19.1436 12.6581 19.135 12.6372 19.132 12.5996C19.129 12.562 19.1318 12.5096 19.1398 12.4501C19.1454 12.4065 19.1537 12.3601 19.1642 12.3147C19.1746 12.2694 19.1868 12.2264 19.1998 12.1894C19.2129 12.1524 19.2263 12.1223 19.239 12.1017C19.2517 12.0812 19.2634 12.0706 19.273 12.0711C19.2827 12.0715 19.29 12.0828 19.2944 12.1041C19.2988 12.1255 19.3002 12.1562 19.2984 12.1937C19.2966 12.2312 19.2917 12.2745 19.2842 12.32C19.2766 12.3654 19.2665 12.4118 19.2548 12.4551" stroke="black" stroke-width="0.005"/>
<path d="M19.3136 12.5199C19.2998 12.5632 19.2825 12.6089 19.2633 12.6531C19.2442 12.6973 19.2236 12.7386 19.2035 12.7736C19.1834 12.8086 19.1643 12.8361 19.1478 12.8539C19.1313 12.8717 19.118 12.8792 19.1089 12.8758C19.0998 12.8723 19.0953 12.858 19.0957 12.8341C19.0961 12.8102 19.1015 12.7774 19.1113 12.7385C19.1211 12.6996 19.1351 12.6557 19.152 12.6107C19.169 12.5657 19.1884 12.5208 19.2086 12.4799C19.2225 12.4367 19.2397 12.391 19.2589 12.3468C19.2781 12.3026 19.2986 12.2613 19.3187 12.2263C19.3389 12.1913 19.358 12.1637 19.3745 12.1459C19.3909 12.1281 19.4043 12.1207 19.4134 12.1241C19.4224 12.1276 19.4269 12.1419 19.4265 12.1658C19.4261 12.1897 19.4208 12.2225 19.411 12.2614C19.4012 12.3003 19.3872 12.3442 19.3702 12.3892C19.3533 12.4342 19.3339 12.4791 19.3136 12.5199Z" fill="#009B3A" stroke="black" stroke-width="0.005"/>
<path d="M19.149 12.7649C19.1209 12.7434 19.0941 12.72 19.069 12.6949C19.059 12.6799 19.074 12.6449 19.034 12.6049C18.994 12.5649 18.944 12.5549 18.914 12.5549C18.884 12.5599 18.884 12.5899 18.929 12.6349C18.979 12.6849 19.029 12.6749 19.049 12.6949C19.079 12.7149 19.119 12.7499 19.134 12.7749L19.264 12.7949C19.299 12.7949 19.374 12.8499 19.439 12.8499C19.489 12.8499 19.529 12.8249 19.499 12.7999C19.4609 12.772 19.416 12.7547 19.369 12.7499C19.329 12.7499 19.294 12.7899 19.259 12.7799L19.144 12.7649M19.029 13.1299C18.9505 13.1428 18.8759 13.1475 18.8218 13.143C18.7676 13.1385 18.7383 13.1252 18.7403 13.1059C18.7423 13.0867 18.7754 13.0632 18.8324 13.0405C18.8893 13.0178 18.9655 12.9978 19.044 12.9849C19.0829 12.9786 19.1213 12.9741 19.1568 12.9719C19.1924 12.9696 19.2245 12.9696 19.2513 12.9719C19.2781 12.9741 19.2991 12.9785 19.3131 12.9849C19.327 12.9912 19.3337 12.9994 19.3327 13.0089C19.3318 13.0185 19.3231 13.0291 19.3073 13.0404C19.2915 13.0516 19.2689 13.0632 19.2407 13.0744C19.2125 13.0856 19.1793 13.0963 19.143 13.1059C19.1066 13.1154 19.0679 13.1236 19.029 13.1299Z" fill="#009B3A"/>
<path d="M19.149 12.7649C19.1209 12.7434 19.0941 12.72 19.069 12.6949C19.059 12.6799 19.074 12.6449 19.034 12.6049C18.994 12.5649 18.944 12.5549 18.914 12.5549C18.884 12.5599 18.884 12.5899 18.929 12.6349C18.979 12.6849 19.029 12.6749 19.049 12.6949C19.079 12.7149 19.119 12.7499 19.134 12.7749L19.264 12.7949C19.299 12.7949 19.374 12.8499 19.439 12.8499C19.489 12.8499 19.529 12.8249 19.499 12.7999C19.4609 12.772 19.416 12.7547 19.369 12.7499C19.329 12.7499 19.294 12.7899 19.259 12.7799L19.144 12.7649M19.029 13.1299C18.9505 13.1428 18.8759 13.1475 18.8218 13.143C18.7676 13.1385 18.7383 13.1252 18.7403 13.1059C18.7423 13.0867 18.7754 13.0632 18.8324 13.0405C18.8893 13.0178 18.9655 12.9978 19.044 12.9849C19.0829 12.9786 19.1213 12.9741 19.1568 12.9719C19.1924 12.9696 19.2245 12.9696 19.2513 12.9719C19.2781 12.9741 19.2991 12.9785 19.3131 12.9849C19.327 12.9912 19.3337 12.9994 19.3327 13.0089C19.3318 13.0185 19.3231 13.0291 19.3073 13.0404C19.2915 13.0516 19.2689 13.0632 19.2407 13.0744C19.2125 13.0856 19.1793 13.0963 19.143 13.1059C19.1066 13.1154 19.0679 13.1236 19.029 13.1299Z" stroke="black" stroke-width="0.005"/>
<path d="M19.0246 13.05C18.9453 13.0805 18.8679 13.1029 18.8095 13.1123C18.7511 13.1217 18.7165 13.1173 18.7132 13.1001C18.7098 13.0828 18.7381 13.0542 18.7919 13.0204C18.8456 12.9866 18.9203 12.9505 18.9996 12.92C19.0817 12.8884 19.1618 12.8652 19.2222 12.8555C19.2826 12.8459 19.3184 12.8505 19.3217 12.8684C19.325 12.8863 19.2956 12.916 19.2398 12.951C19.1841 12.986 19.1067 13.0234 19.0246 13.055" fill="#009B3A"/>
<path d="M19.0246 13.05C18.9453 13.0805 18.8679 13.1029 18.8095 13.1123C18.7511 13.1217 18.7165 13.1173 18.7132 13.1001C18.7098 13.0828 18.7381 13.0542 18.7919 13.0204C18.8456 12.9866 18.9203 12.9505 18.9996 12.92C19.0817 12.8884 19.1618 12.8652 19.2222 12.8555C19.2826 12.8459 19.3184 12.8505 19.3217 12.8684C19.325 12.8863 19.2956 12.916 19.2398 12.951C19.1841 12.986 19.1067 13.0234 19.0246 13.055" stroke="black" stroke-width="0.005"/>
<path d="M18.9186 12.82C18.8865 12.8801 18.852 12.9329 18.8208 12.9697C18.7895 13.0065 18.7636 13.025 18.7472 13.0221C18.7308 13.0191 18.7249 12.995 18.7307 12.9536C18.7364 12.9123 18.7533 12.8563 18.7786 12.795C18.795 12.7552 18.8145 12.7144 18.8355 12.6757C18.8565 12.6369 18.8786 12.6012 18.9001 12.5711C18.9216 12.541 18.942 12.5172 18.9598 12.5016C18.9776 12.486 18.9924 12.4789 19.003 12.4808C19.0137 12.4827 19.02 12.4936 19.0214 12.5126C19.0228 12.5317 19.0193 12.5584 19.0112 12.5909C19.0032 12.6234 18.9906 12.6609 18.9746 12.7005C18.9586 12.7401 18.9394 12.781 18.9186 12.82Z" fill="#009B3A" stroke="black" stroke-width="0.005"/>
<path d="M18.9944 12.86C18.9349 12.9275 18.8717 12.9882 18.8188 13.0289C18.7659 13.0695 18.7276 13.0868 18.7123 13.0768C18.6971 13.0669 18.7061 13.0305 18.7375 12.9758C18.7688 12.9211 18.8199 12.8525 18.8794 12.785C18.9089 12.7516 18.9396 12.7195 18.9698 12.6905C18.9999 12.6616 19.0289 12.6363 19.0551 12.6162C19.108 12.5755 19.1463 12.5582 19.1615 12.5682C19.1768 12.5781 19.1677 12.6145 19.1364 12.6692C19.1209 12.6963 19.1004 12.7271 19.076 12.7598C19.0516 12.7926 19.0239 12.8266 18.9944 12.86Z" fill="#009B3A" stroke="black" stroke-width="0.005"/>
<path d="M19.0143 12.9551C18.9782 12.9847 18.9398 13.0135 18.9018 13.0394C18.8639 13.0653 18.8272 13.0876 18.7945 13.1049C18.7618 13.1222 18.7338 13.134 18.7125 13.1394C18.6912 13.1449 18.6771 13.1439 18.6711 13.1365C18.6652 13.1291 18.6676 13.1154 18.6782 13.0965C18.6887 13.0777 18.7072 13.054 18.7323 13.0271C18.7574 13.0003 18.7885 12.971 18.8234 12.9413C18.8583 12.9116 18.8961 12.8821 18.9343 12.8551C18.9958 12.8115 19.0549 12.7763 19.1013 12.7556C19.1476 12.7349 19.1783 12.7302 19.1878 12.7421C19.1974 12.754 19.1852 12.7819 19.1535 12.8209C19.1217 12.8598 19.0725 12.9073 19.0143 12.9551Z" fill="#009B3A" stroke="black" stroke-width="0.005"/>
<path d="M18.7195 13.085C18.7055 13.0492 18.6938 13.0124 18.6845 12.975C18.6795 12.955 18.7145 12.935 18.6995 12.875C18.6825 12.8266 18.6488 12.7858 18.6045 12.76C18.5795 12.745 18.5595 12.77 18.5795 12.84C18.5995 12.91 18.6495 12.935 18.6645 12.97L18.7045 13.09L18.8145 13.185C18.8445 13.21 18.8895 13.305 18.9495 13.34C18.9995 13.375 19.0495 13.365 19.0395 13.33C19.0169 13.2822 18.9825 13.2409 18.9395 13.21C18.9045 13.18 18.8495 13.195 18.8145 13.17C18.7945 13.145 18.7145 13.09 18.7145 13.085" fill="#009B3A"/>
<path d="M18.7195 13.085C18.7055 13.0492 18.6938 13.0124 18.6845 12.975C18.6795 12.955 18.7145 12.935 18.6995 12.875C18.6825 12.8266 18.6488 12.7858 18.6045 12.76C18.5795 12.745 18.5595 12.77 18.5795 12.84C18.5995 12.91 18.6495 12.935 18.6645 12.97L18.7045 13.09L18.8145 13.185C18.8445 13.21 18.8895 13.305 18.9495 13.34C18.9995 13.375 19.0495 13.365 19.0395 13.33C19.0169 13.2822 18.9825 13.2409 18.9395 13.21C18.9045 13.18 18.8495 13.195 18.8145 13.17C18.7945 13.145 18.7145 13.09 18.7145 13.085" stroke="black" stroke-width="0.005"/>
<path d="M18.5391 13.4001C18.4725 13.3964 18.4134 13.3862 18.371 13.371C18.3287 13.3558 18.3057 13.3365 18.3057 13.3163C18.3057 13.2961 18.3287 13.2761 18.371 13.2596C18.4134 13.243 18.4725 13.2309 18.5391 13.2251C18.6056 13.2288 18.6648 13.239 18.7071 13.2542C18.7495 13.2694 18.7725 13.2887 18.7725 13.3089C18.7725 13.3291 18.7495 13.3491 18.7071 13.3656C18.6648 13.3821 18.6056 13.3943 18.5391 13.4001Z" fill="#009B3A" stroke="black" stroke-width="0.005"/>
<path d="M18.4987 13.125C18.4464 13.1927 18.3891 13.2518 18.3394 13.2894C18.2897 13.3269 18.2518 13.3398 18.2339 13.3252C18.216 13.3106 18.2196 13.2697 18.2439 13.2116C18.2683 13.1534 18.3114 13.0827 18.3637 13.015C18.3891 12.9823 18.4159 12.9514 18.4426 12.9239C18.4693 12.8964 18.4953 12.873 18.5193 12.855C18.5433 12.837 18.5647 12.8247 18.5823 12.8189C18.5999 12.813 18.6133 12.8137 18.6219 12.8209C18.6304 12.8282 18.6339 12.8418 18.632 12.861C18.6302 12.8801 18.6231 12.9046 18.6112 12.9328C18.5993 12.961 18.5828 12.9925 18.5627 13.0255C18.5425 13.0585 18.5191 13.0923 18.4937 13.125" fill="#009B3A"/>
<path d="M18.4987 13.125C18.4464 13.1927 18.3891 13.2518 18.3394 13.2894C18.2897 13.3269 18.2518 13.3398 18.2339 13.3252C18.216 13.3106 18.2196 13.2697 18.2439 13.2116C18.2683 13.1534 18.3114 13.0827 18.3637 13.015C18.3891 12.9823 18.4159 12.9514 18.4426 12.9239C18.4693 12.8964 18.4953 12.873 18.5193 12.855C18.5433 12.837 18.5647 12.8247 18.5823 12.8189C18.5999 12.813 18.6133 12.8137 18.6219 12.8209C18.6304 12.8282 18.6339 12.8418 18.632 12.861C18.6302 12.8801 18.6231 12.9046 18.6112 12.9328C18.5993 12.961 18.5828 12.9925 18.5627 13.0255C18.5425 13.0585 18.5191 13.0923 18.4937 13.125" stroke="black" stroke-width="0.005"/>
<path d="M18.5393 13.2651C18.4614 13.2985 18.3836 13.3219 18.3229 13.33C18.2622 13.3382 18.2236 13.3305 18.2156 13.3086C18.2077 13.2867 18.231 13.2525 18.2804 13.2134C18.3299 13.1742 18.4014 13.1335 18.4793 13.1001C18.5572 13.0666 18.635 13.0432 18.6957 13.0351C18.7564 13.0269 18.795 13.0346 18.8029 13.0565C18.8109 13.0784 18.7876 13.1126 18.7381 13.1517C18.6887 13.1909 18.6172 13.2316 18.5393 13.2651ZM18.6243 10.5951C18.6585 10.6271 18.6869 10.6589 18.7037 10.684C18.7205 10.7092 18.7247 10.726 18.7152 10.731C18.7058 10.736 18.6835 10.7289 18.6528 10.7112C18.6221 10.6934 18.5852 10.6663 18.5493 10.6351C18.5294 10.6178 18.5105 10.5998 18.4937 10.5822C18.4769 10.5647 18.4627 10.5479 18.4518 10.5331C18.441 10.5183 18.4338 10.5056 18.4307 10.496C18.4277 10.4864 18.4288 10.4799 18.434 10.4772C18.4392 10.4744 18.4484 10.4753 18.461 10.4798C18.4737 10.4844 18.4894 10.4924 18.5073 10.5035C18.5252 10.5146 18.5449 10.5285 18.565 10.5442C18.5851 10.56 18.6053 10.5773 18.6243 10.5951ZM18.5293 10.6701C18.5707 10.6777 18.6078 10.6876 18.6349 10.6982C18.6621 10.7088 18.6777 10.7194 18.6794 10.7285C18.6811 10.7376 18.6688 10.7447 18.6444 10.7486C18.6199 10.7525 18.5848 10.753 18.5443 10.7501C18.516 10.748 18.486 10.7443 18.4567 10.7394C18.4274 10.7344 18.3996 10.7282 18.3753 10.7212C18.3511 10.7143 18.3311 10.7069 18.3169 10.6995C18.3027 10.6921 18.2947 10.6849 18.2935 10.6786C18.2923 10.6722 18.298 10.6668 18.31 10.6628C18.3221 10.6588 18.3402 10.6563 18.363 10.6554C18.3858 10.6546 18.4127 10.6555 18.4415 10.658C18.4703 10.6606 18.5004 10.6647 18.5293 10.6701Z" fill="#009B3A" stroke="black" stroke-width="0.005"/>
<path d="M18.5696 10.62C18.595 10.633 18.6197 10.6466 18.6422 10.6602C18.6647 10.6738 18.6846 10.687 18.7007 10.6992C18.7168 10.7113 18.7289 10.7222 18.7362 10.7311C18.7435 10.74 18.7459 10.7467 18.7433 10.751C18.7406 10.7553 18.733 10.7569 18.7209 10.7559C18.7087 10.7549 18.6922 10.7513 18.6724 10.7451C18.6526 10.739 18.6297 10.7306 18.6052 10.7202C18.5807 10.7099 18.555 10.698 18.5296 10.685C18.4782 10.6589 18.431 10.6304 18.3985 10.6059C18.3659 10.5813 18.3506 10.5627 18.3559 10.5541C18.3612 10.5454 18.3867 10.5475 18.4267 10.5599C18.4668 10.5723 18.5182 10.5939 18.5696 10.62ZM17.1846 13.1C17.1846 13.1 17.4396 13.155 17.6646 13.235C17.8896 13.32 18.2296 13.595 18.3196 13.615C18.4196 13.615 18.5646 13.58 18.6196 13.435C18.4596 13.475 18.3696 13.54 18.2196 13.46C18.1646 13.44 17.9896 13.28 17.7946 13.195C17.6046 13.11 17.2196 13.015 17.2196 13.015L17.1846 13.1ZM17.4596 10.775L17.7546 10.62L17.4296 10.705L17.3896 10.76L17.4596 10.775Z" fill="#009B3A" stroke="black" stroke-width="0.005"/>
<path d="M17.7391 10.85C17.6241 10.825 17.4491 10.785 17.3391 10.78C17.4141 10.695 17.5191 10.545 17.5891 10.46C17.5391 10.545 17.4741 10.66 17.4491 10.735C17.5241 10.78 17.6491 10.815 17.7391 10.845" fill="#009B3A"/>
<path d="M17.7391 10.85C17.6241 10.825 17.4491 10.785 17.3391 10.78C17.4141 10.695 17.5191 10.545 17.5891 10.46C17.5391 10.545 17.4741 10.66 17.4491 10.735C17.5241 10.78 17.6491 10.815 17.7391 10.845" stroke="black" stroke-width="0.005"/>
<path d="M17.404 10.7951C17.4916 10.7258 17.5799 10.6575 17.669 10.5901L17.364 10.7251L17.334 10.7901H17.404" fill="#009B3A"/>
<path d="M17.404 10.7951C17.4916 10.7258 17.5799 10.6575 17.669 10.5901L17.364 10.7251L17.334 10.7901H17.404" stroke="black" stroke-width="0.005"/>
<path d="M17.6844 10.8451C17.5694 10.8201 17.3944 10.7801 17.2844 10.7701C17.3544 10.6851 17.4594 10.5351 17.5244 10.4401C17.4844 10.5301 17.4144 10.6451 17.3894 10.7301C17.4694 10.7751 17.5944 10.8101 17.6894 10.8451" fill="#009B3A"/>
<path d="M17.6844 10.8451C17.5694 10.8201 17.3944 10.7801 17.2844 10.7701C17.3544 10.6851 17.4594 10.5351 17.5244 10.4401C17.4844 10.5301 17.4144 10.6451 17.3894 10.7301C17.4694 10.7751 17.5944 10.8101 17.6894 10.8451" stroke="black" stroke-width="0.005"/>
<path d="M17.3639 10.8099L17.6689 10.6799L17.3389 10.7349L17.2939 10.7849L17.3589 10.8099" fill="#009B3A"/>
<path d="M17.3639 10.8099L17.6689 10.6799L17.3389 10.7349L17.2939 10.7849L17.3589 10.8099" stroke="black" stroke-width="0.005"/>
<path d="M17.6493 10.8501C17.5343 10.8351 17.3493 10.8151 17.2393 10.8201C17.3043 10.7201 17.3893 10.5551 17.4443 10.4551C17.4143 10.5501 17.3593 10.6751 17.3443 10.7601C17.4293 10.8001 17.5593 10.8201 17.6493 10.8451" fill="#009B3A"/>
<path d="M17.6493 10.8501C17.5343 10.8351 17.3493 10.8151 17.2393 10.8201C17.3043 10.7201 17.3893 10.5551 17.4443 10.4551C17.4143 10.5501 17.3593 10.6751 17.3443 10.7601C17.4293 10.8001 17.5593 10.8201 17.6493 10.8451" stroke="black" stroke-width="0.005"/>
<path d="M17.3298 10.8101L17.5398 10.5601L17.2748 10.7551L17.2598 10.8201L17.3298 10.8101Z" fill="#009B3A" stroke="black" stroke-width="0.005"/>
<path d="M17.649 10.865C17.524 10.865 17.329 10.85 17.209 10.865C17.269 10.75 17.344 10.565 17.389 10.45C17.369 10.555 17.324 10.7 17.319 10.795C17.409 10.825 17.549 10.845 17.649 10.865Z" fill="#009B3A" stroke="black" stroke-width="0.005"/>
<path d="M17.2891 10.8701L17.5391 10.6251L17.2341 10.8001L17.2141 10.8701H17.2891Z" fill="#009B3A" stroke="black" stroke-width="0.005"/>
<path d="M17.5941 10.87C17.4591 10.87 17.2541 10.865 17.1191 10.88C17.2091 10.755 17.3291 10.55 17.3991 10.425C17.3491 10.54 17.2791 10.695 17.2491 10.8C17.3441 10.835 17.4891 10.85 17.5941 10.87Z" fill="#009B3A" stroke="black" stroke-width="0.005"/>
<path d="M17.1991 10.89L17.5291 10.615L17.1591 10.81L17.1191 10.89H17.1991Z" fill="#009B3A" stroke="black" stroke-width="0.005"/>
<path d="M17.5491 10.88C17.4141 10.9 17.2041 10.92 17.0791 10.955C17.1441 10.82 17.2341 10.605 17.2891 10.47C17.2591 10.59 17.2041 10.75 17.1891 10.86C17.2891 10.88 17.4391 10.875 17.5441 10.88" fill="#009B3A"/>
<path d="M17.5491 10.88C17.4141 10.9 17.2041 10.92 17.0791 10.955C17.1441 10.82 17.2341 10.605 17.2891 10.47C17.2591 10.59 17.2041 10.75 17.1891 10.86C17.2891 10.88 17.4391 10.875 17.5441 10.88" stroke="black" stroke-width="0.005"/>
<path d="M17.1591 10.945L17.4091 10.595L17.0941 10.88L17.0791 10.965L17.1591 10.945Z" fill="#009B3A" stroke="black" stroke-width="0.005"/>
<path d="M17.4693 10.9201C17.3393 10.9351 17.1293 10.9451 16.9993 10.9701C17.0743 10.8401 17.1743 10.6301 17.2393 10.5001C17.1993 10.6151 17.1393 10.7751 17.1193 10.8851C17.2193 10.9101 17.3693 10.9101 17.4693 10.9201Z" fill="#009B3A" stroke="black" stroke-width="0.005"/>
<path d="M17.1144 10.9801L17.4344 10.7051L17.0694 10.9001L17.0344 10.9801H17.1144Z" fill="#009B3A" stroke="black" stroke-width="0.005"/>
<path d="M17.4341 10.935C17.2991 10.965 17.0891 11 16.9641 11.04C17.0241 10.905 17.1041 10.685 17.1541 10.55C17.1291 10.67 17.0841 10.83 17.0741 10.94C17.1741 10.955 17.3241 10.94 17.4341 10.935Z" fill="#009B3A" stroke="black" stroke-width="0.005"/>
<path d="M17.0594 11.0001L17.2594 10.6151L16.9894 10.9451L16.9844 11.0301L17.0594 10.9951" fill="#009B3A"/>
<path d="M17.0594 11.0001L17.2594 10.6151L16.9894 10.9451L16.9844 11.0301L17.0594 10.9951" stroke="black" stroke-width="0.005"/>
<path d="M17.4346 10.955C17.2846 10.995 17.0646 11.045 16.9346 11.095C16.9846 10.94 17.0396 10.695 17.0796 10.54C17.0646 10.675 17.0346 10.855 17.0396 10.98C17.1546 10.99 17.3146 10.965 17.4296 10.955" fill="#009B3A"/>
<path d="M17.4346 10.955C17.2846 10.995 17.0646 11.045 16.9346 11.095C16.9846 10.94 17.0396 10.695 17.0796 10.54C17.0646 10.675 17.0346 10.855 17.0396 10.98C17.1546 10.99 17.3146 10.965 17.4296 10.955" stroke="black" stroke-width="0.005"/>
<path d="M17.0196 11.0851L17.2796 10.7051L16.9496 11.0101L16.9346 11.1101L17.0196 11.0851Z" fill="#009B3A" stroke="black" stroke-width="0.005"/>
<path d="M17.3748 11C17.2348 11.045 17.0148 11.105 16.8848 11.165C16.9248 11.005 16.9748 10.76 17.0048 10.605C16.9998 10.74 16.9798 10.92 16.9898 11.04C17.0998 11.045 17.2598 11.01 17.3748 11Z" fill="#009B3A" stroke="black" stroke-width="0.005"/>
<path d="M16.9698 11.14L17.1648 10.72L16.8848 11.08V11.18L16.9698 11.14Z" fill="#009B3A" stroke="black" stroke-width="0.005"/>
<path d="M17.3184 11.0601C17.1784 11.0901 16.9534 11.1351 16.8184 11.1801C16.8734 11.0301 16.9434 10.7801 16.9884 10.6301C16.9684 10.7651 16.9334 10.9501 16.9334 11.0651C17.0434 11.0801 17.2034 11.0601 17.3184 11.0551" fill="#009B3A"/>
<path d="M17.3184 11.0601C17.1784 11.0901 16.9534 11.1351 16.8184 11.1801C16.8734 11.0301 16.9434 10.7801 16.9884 10.6301C16.9684 10.7651 16.9334 10.9501 16.9334 11.0651C17.0434 11.0801 17.2034 11.0601 17.3184 11.0551" stroke="black" stroke-width="0.005"/>
<path d="M16.919 11.1801L17.239 10.8501L16.864 11.0951L16.834 11.1851L16.919 11.1801Z" fill="#009B3A" stroke="black" stroke-width="0.005"/>
<path d="M17.2598 11.1151C17.1148 11.1351 16.8948 11.1551 16.7598 11.1901C16.8248 11.0401 16.9098 10.8001 16.9598 10.6501C16.9298 10.7851 16.8848 10.9651 16.8748 11.0851C16.9848 11.1101 17.1448 11.1051 17.2598 11.1151Z" fill="#009B3A" stroke="black" stroke-width="0.005"/>
<path d="M16.8593 11.1501L17.0743 10.7351L16.7793 11.0851V11.1801L16.8593 11.1451" fill="#009B3A"/>
<path d="M16.8593 11.1501L17.0743 10.7351L16.7793 11.0851V11.1801L16.8593 11.1451" stroke="black" stroke-width="0.005"/>
<path d="M17.2735 11.0651C17.1235 11.1301 16.8735 11.2151 16.7285 11.2951C16.7785 11.1101 16.8285 10.8201 16.8585 10.6401C16.8585 10.7951 16.8335 11.0101 16.8435 11.1451C16.9685 11.1451 17.1435 11.0901 17.2735 11.0651Z" fill="#009B3A" stroke="black" stroke-width="0.005"/>
<path d="M16.8294 11.27L17.0894 10.8L16.7444 11.2L16.7344 11.31L16.8294 11.27Z" fill="#009B3A" stroke="black" stroke-width="0.005"/>
<path d="M17.2146 11.125C17.0646 11.195 16.8246 11.295 16.6846 11.38C16.7246 11.2 16.7596 10.905 16.7846 10.73C16.7846 10.88 16.7746 11.095 16.7896 11.23C16.9146 11.215 17.0896 11.155 17.2146 11.125Z" fill="#009B3A" stroke="black" stroke-width="0.005"/>
<path d="M16.774 11.34L16.964 10.835L16.679 11.285L16.689 11.4L16.774 11.34Z" fill="#009B3A" stroke="black" stroke-width="0.005"/>
<path d="M17.1491 11.1651C16.9991 11.2401 16.7591 11.3401 16.6191 11.4301C16.6541 11.2451 16.6891 10.9551 16.7141 10.7751C16.7141 10.9251 16.7041 11.1401 16.7241 11.2751C16.8491 11.2601 17.0241 11.1951 17.1491 11.1651Z" fill="#009B3A" stroke="black" stroke-width="0.005"/>
<path d="M16.7337 11.4001L17.0237 10.9551L16.6537 11.3201L16.6387 11.4301L16.7337 11.4001Z" fill="#009B3A" stroke="black" stroke-width="0.005"/>
<path d="M17.1343 11.1401C16.9993 11.2501 16.7843 11.4101 16.6643 11.5301C16.6643 11.3401 16.6393 11.0551 16.6243 10.8801C16.6543 11.0251 16.6893 11.2301 16.7393 11.3551C16.8593 11.3101 17.0143 11.2051 17.1393 11.1451" fill="#009B3A"/>
<path d="M17.1343 11.1401C16.9993 11.2501 16.7843 11.4101 16.6643 11.5301C16.6643 11.3401 16.6393 11.0551 16.6243 10.8801C16.6543 11.0251 16.6893 11.2301 16.7393 11.3551C16.8593 11.3101 17.0143 11.2051 17.1393 11.1451" stroke="black" stroke-width="0.005"/>
<path d="M16.7487 11.4251L16.7787 10.8901L16.6387 11.4101L16.6787 11.5101L16.7487 11.4251Z" fill="#009B3A" stroke="black" stroke-width="0.005"/>
<path d="M17.099 11.19C16.959 11.3 16.749 11.455 16.624 11.575C16.624 11.39 16.599 11.1 16.584 10.925C16.619 11.075 16.649 11.275 16.699 11.4C16.819 11.36 16.974 11.25 17.099 11.19Z" fill="#009B3A" stroke="black" stroke-width="0.005"/>
<path d="M16.7143 11.515L16.8493 10.99L16.6143 11.47L16.6293 11.58L16.7143 11.515Z" fill="#009B3A" stroke="black" stroke-width="0.005"/>
<path d="M17.0794 11.2C16.9544 11.33 16.7494 11.52 16.6344 11.65C16.6144 11.465 16.5594 11.17 16.5244 10.99C16.5744 11.14 16.6294 11.345 16.6944 11.465C16.8094 11.41 16.9644 11.285 17.0794 11.205" fill="#009B3A"/>
<path d="M17.0794 11.2C16.9544 11.33 16.7494 11.52 16.6344 11.65C16.6144 11.465 16.5594 11.17 16.5244 10.99C16.5744 11.14 16.6294 11.345 16.6944 11.465C16.8094 11.41 16.9644 11.285 17.0794 11.205" stroke="black" stroke-width="0.005"/>
<path d="M16.7135 11.5801L16.7385 11.0251L16.6035 11.5651L16.6435 11.6651L16.7135 11.5801Z" fill="#009B3A" stroke="black" stroke-width="0.005"/>
<path d="M17.0398 11.3001C16.9048 11.4101 16.6898 11.5751 16.5598 11.7001C16.5598 11.5101 16.5248 11.2101 16.5098 11.0251C16.5448 11.1751 16.5848 11.3901 16.6348 11.5201C16.7598 11.4701 16.9198 11.3651 17.0398 11.2951" fill="#009B3A"/>
<path d="M17.0398 11.3001C16.9048 11.4101 16.6898 11.5751 16.5598 11.7001C16.5598 11.5101 16.5248 11.2101 16.5098 11.0251C16.5448 11.1751 16.5848 11.3901 16.6348 11.5201C16.7598 11.4701 16.9198 11.3651 17.0398 11.2951" stroke="black" stroke-width="0.005"/>
<path d="M16.6742 11.6451L16.8642 11.1201L16.5742 11.5851L16.5842 11.7001L16.6742 11.6451Z" fill="#009B3A" stroke="black" stroke-width="0.005"/>
<path d="M17.0398 11.3C16.9148 11.425 16.7248 11.62 16.6148 11.755C16.5948 11.565 16.5398 11.265 16.5098 11.085C16.5598 11.235 16.6098 11.445 16.6698 11.565C16.7848 11.505 16.9248 11.38 17.0398 11.3Z" fill="#009B3A" stroke="black" stroke-width="0.005"/>
<path d="M16.6784 11.6701L16.6584 11.1201L16.5684 11.6701L16.6184 11.7651L16.6784 11.6701Z" fill="#009B3A" stroke="black" stroke-width="0.005"/>
<path d="M16.9784 11.3401C16.8584 11.4701 16.6734 11.6651 16.5684 11.8051C16.5434 11.6051 16.4784 11.3151 16.4434 11.1301C16.4934 11.2801 16.5584 11.4901 16.6184 11.6101C16.7284 11.5501 16.8684 11.4201 16.9784 11.3401Z" fill="#009B3A" stroke="black" stroke-width="0.005"/>
<path d="M16.6489 11.725L16.7089 11.165L16.5439 11.695L16.5789 11.805L16.6489 11.725Z" fill="#009B3A" stroke="black" stroke-width="0.005"/>
<path d="M16.9493 11.36C16.8493 11.505 16.6743 11.71 16.5793 11.86C16.5393 11.67 16.4543 11.385 16.4043 11.21C16.4693 11.35 16.5443 11.55 16.6143 11.665C16.7193 11.595 16.8493 11.455 16.9543 11.365" fill="#009B3A"/>
<path d="M16.9493 11.36C16.8493 11.505 16.6743 11.71 16.5793 11.86C16.5393 11.67 16.4543 11.385 16.4043 11.21C16.4693 11.35 16.5443 11.55 16.6143 11.665C16.7193 11.595 16.8493 11.455 16.9543 11.365" stroke="black" stroke-width="0.005"/>
<path d="M16.6491 11.78L16.6091 11.215L16.5391 11.775L16.5891 11.875L16.6441 11.775" fill="#009B3A"/>
<path d="M16.6491 11.78L16.6091 11.215L16.5391 11.775L16.5891 11.875L16.6441 11.775" stroke="black" stroke-width="0.005"/>
<path d="M16.9448 11.3951C16.8448 11.5451 16.6798 11.7601 16.5948 11.9151C16.5448 11.7251 16.4448 11.4401 16.3848 11.2651C16.4548 11.4051 16.5398 11.6051 16.6198 11.7151C16.7198 11.6401 16.8448 11.4901 16.9448 11.3951Z" fill="#009B3A" stroke="black" stroke-width="0.005"/>
<path d="M16.6791 11.8301L16.7391 11.2651L16.5791 11.7951L16.6091 11.9101L16.6791 11.8301Z" fill="#009B3A" stroke="black" stroke-width="0.005"/>
<path d="M16.9185 11.45C16.8335 11.605 16.6935 11.85 16.6185 12.015C16.5535 11.835 16.4285 11.565 16.3535 11.395C16.4385 11.525 16.5385 11.71 16.6285 11.815C16.7235 11.725 16.8285 11.555 16.9185 11.445" fill="#009B3A"/>
<path d="M16.9185 11.45C16.8335 11.605 16.6935 11.85 16.6185 12.015C16.5535 11.835 16.4285 11.565 16.3535 11.395C16.4385 11.525 16.5385 11.71 16.6285 11.815C16.7235 11.725 16.8285 11.555 16.9185 11.445" stroke="black" stroke-width="0.005"/>
<path d="M16.6639 11.88L16.5039 11.34L16.5539 11.905L16.6289 11.985L16.6589 11.88" fill="#009B3A"/>
<path d="M16.6639 11.88L16.5039 11.34L16.5539 11.905L16.6289 11.985L16.6589 11.88" stroke="black" stroke-width="0.005"/>
<path d="M16.919 11.51C16.829 11.67 16.679 11.91 16.604 12.075C16.539 11.895 16.414 11.625 16.334 11.46C16.419 11.59 16.524 11.775 16.614 11.875C16.714 11.785 16.824 11.62 16.914 11.51" fill="#009B3A"/>
<path d="M16.919 11.51C16.829 11.67 16.679 11.91 16.604 12.075C16.539 11.895 16.414 11.625 16.334 11.46C16.419 11.59 16.524 11.775 16.614 11.875C16.714 11.785 16.824 11.62 16.914 11.51" stroke="black" stroke-width="0.005"/>
<path d="M16.6696 11.98L16.6096 11.415L16.5596 11.98L16.6146 12.08L16.6696 11.98Z" fill="#009B3A" stroke="black" stroke-width="0.005"/>
<path d="M16.9288 11.5601C16.8338 11.7151 16.6788 11.9551 16.6038 12.1151C16.5388 11.9351 16.4188 11.6651 16.3438 11.4951C16.4288 11.6251 16.5288 11.8151 16.6188 11.9151C16.7188 11.8301 16.8338 11.6651 16.9288 11.5601Z" fill="#009B3A" stroke="black" stroke-width="0.005"/>
<path d="M16.664 12.025L16.559 11.475L16.554 12.035L16.619 12.125L16.664 12.025Z" fill="#009B3A" stroke="black" stroke-width="0.005"/>
<path d="M16.8896 11.6402C16.7896 11.7902 16.6246 12.0152 16.5396 12.1752C16.4846 11.9902 16.3746 11.7052 16.3096 11.5352C16.3846 11.6702 16.4796 11.8652 16.5596 11.9752C16.6646 11.8952 16.7896 11.7402 16.8896 11.6402Z" fill="#009B3A" stroke="black" stroke-width="0.005"/>
<path d="M16.6148 12.085L16.6648 11.52L16.5098 12.055L16.5448 12.165L16.6148 12.085Z" fill="#009B3A" stroke="black" stroke-width="0.005"/>
<path d="M16.8946 11.6501C16.8096 11.8151 16.6646 12.0651 16.5946 12.2301C16.5246 12.0551 16.3946 11.7901 16.3096 11.6301C16.3996 11.7501 16.5096 11.9301 16.5996 12.0301C16.6996 11.9351 16.7996 11.7651 16.8946 11.6551" fill="#009B3A"/>
<path d="M16.8946 11.6501C16.8096 11.8151 16.6646 12.0651 16.5946 12.2301C16.5246 12.0551 16.3946 11.7901 16.3096 11.6301C16.3996 11.7501 16.5096 11.9301 16.5996 12.0301C16.6996 11.9351 16.7996 11.7651 16.8946 11.6551" stroke="black" stroke-width="0.005"/>
<path d="M16.5988 12.135L16.4238 11.605L16.4888 12.165L16.5638 12.245L16.5938 12.135" fill="#009B3A"/>
<path d="M16.5988 12.135L16.4238 11.605L16.4888 12.165L16.5638 12.245L16.5938 12.135" stroke="black" stroke-width="0.005"/>
<path d="M16.8691 11.6951C16.8091 11.8751 16.7091 12.1451 16.6691 12.3301C16.5691 12.1701 16.3941 11.9401 16.2891 11.7951C16.3941 11.9001 16.5341 12.0551 16.6391 12.1301C16.7191 12.0151 16.7991 11.8301 16.8691 11.6951Z" fill="#009B3A" stroke="black" stroke-width="0.005"/>
<path d="M16.7495 12.175L16.5645 11.655L16.6445 12.215L16.7195 12.285L16.7495 12.175Z" fill="#009B3A" stroke="black" stroke-width="0.005"/>
<path d="M16.8691 11.7501C16.8091 11.9301 16.7091 12.2051 16.6691 12.3851C16.5691 12.2251 16.3991 12.0001 16.2891 11.8601C16.3941 11.9601 16.5341 12.1101 16.6391 12.1901C16.7191 12.0751 16.7991 11.8851 16.8691 11.7501Z" fill="#009B3A" stroke="black" stroke-width="0.005"/>
<path d="M16.7498 12.265L16.5098 11.78L16.6498 12.32L16.7348 12.38L16.7548 12.265" fill="#009B3A"/>
<path d="M16.7498 12.265L16.5098 11.78L16.6498 12.32L16.7348 12.38L16.7548 12.265" stroke="black" stroke-width="0.005"/>
<path d="M16.8491 11.795C16.8141 11.98 16.7491 12.27 16.7241 12.455C16.6091 12.31 16.4091 12.105 16.2891 11.985C16.4041 12.07 16.5591 12.205 16.6741 12.26C16.7391 12.135 16.7941 11.935 16.8491 11.795Z" fill="#009B3A" stroke="black" stroke-width="0.005"/>
<path d="M16.7687 12.3399L16.6387 11.7949L16.6587 12.3599L16.7287 12.4449L16.7687 12.3449" fill="#009B3A"/>
<path d="M16.7687 12.3399L16.6387 11.7949L16.6587 12.3599L16.7287 12.4449L16.7687 12.3449" stroke="black" stroke-width="0.005"/>
<path d="M16.8495 11.8501C16.8295 12.0451 16.7895 12.3401 16.7895 12.5251C16.6595 12.4001 16.4445 12.2251 16.3145 12.1201C16.4345 12.1901 16.5995 12.3001 16.7195 12.3401C16.7695 12.2101 16.8095 12.0001 16.8495 11.8551" fill="#009B3A"/>
<path d="M16.8495 11.8501C16.8295 12.0451 16.7895 12.3401 16.7895 12.5251C16.6595 12.4001 16.4445 12.2251 16.3145 12.1201C16.4345 12.1901 16.5995 12.3001 16.7195 12.3401C16.7695 12.2101 16.8095 12.0001 16.8495 11.8551" stroke="black" stroke-width="0.005"/>
<path d="M16.774 12.3801L16.429 11.9901L16.689 12.4651L16.789 12.4951L16.774 12.3801Z" fill="#009B3A" stroke="black" stroke-width="0.005"/>
<path d="M16.8584 11.9199C16.8384 12.1099 16.7984 12.4049 16.7934 12.5899C16.6634 12.4649 16.4484 12.2899 16.3184 12.1799C16.4434 12.2499 16.6084 12.3649 16.7234 12.4049C16.7784 12.2749 16.8134 12.0649 16.8584 11.9199Z" fill="#009B3A" stroke="black" stroke-width="0.005"/>
<path d="M16.8138 12.47L16.5488 12L16.7138 12.535L16.7988 12.59L16.8138 12.475" fill="#009B3A"/>
<path d="M16.8138 12.47L16.5488 12L16.7138 12.535L16.7988 12.59L16.8138 12.475" stroke="black" stroke-width="0.005"/>
<path d="M16.8738 12.0001C16.8588 12.1901 16.8338 12.4851 16.8338 12.6751C16.6773 12.5398 16.5137 12.413 16.3438 12.2951C16.4737 12.3551 16.6438 12.4601 16.7588 12.4951C16.8088 12.3601 16.8388 12.1451 16.8738 11.9951" fill="#009B3A"/>
<path d="M16.8738 12.0001C16.8588 12.1901 16.8338 12.4851 16.8338 12.6751C16.6773 12.5398 16.5137 12.413 16.3438 12.2951C16.4737 12.3551 16.6438 12.4601 16.7588 12.4951C16.8088 12.3601 16.8388 12.1451 16.8738 11.9951" stroke="black" stroke-width="0.005"/>
<path d="M16.8488 12.56L16.5188 12.145L16.7588 12.635L16.8488 12.675V12.56Z" fill="#009B3A" stroke="black" stroke-width="0.005"/>
<path d="M16.8796 12.09C16.8646 12.28 16.8396 12.575 16.8446 12.765C16.7096 12.645 16.4896 12.485 16.3496 12.385C16.4796 12.45 16.6496 12.55 16.7696 12.585C16.8196 12.45 16.8446 12.235 16.8796 12.085" fill="#009B3A"/>
<path d="M16.8796 12.09C16.8646 12.28 16.8396 12.575 16.8446 12.765C16.7096 12.645 16.4896 12.485 16.3496 12.385C16.4796 12.45 16.6496 12.55 16.7696 12.585C16.8196 12.45 16.8446 12.235 16.8796 12.085" stroke="black" stroke-width="0.005"/>
<path d="M16.8744 12.6301L16.6494 12.1301L16.7744 12.6801L16.8544 12.7451L16.8744 12.6301Z" fill="#009B3A" stroke="black" stroke-width="0.005"/>
<path d="M16.8838 12.145C16.8938 12.34 16.8938 12.635 16.9138 12.825C16.7452 12.7139 16.5717 12.6105 16.3938 12.515C16.5238 12.56 16.6988 12.635 16.8238 12.655C16.8588 12.51 16.8638 12.3 16.8838 12.145Z" fill="#009B3A" stroke="black" stroke-width="0.005"/>
<path d="M16.9143 12.6101L16.4993 12.3251L16.8493 12.7151L16.9493 12.7201L16.9143 12.6101Z" fill="#009B3A" stroke="black" stroke-width="0.005"/>
<path d="M16.8988 12.165C16.9138 12.36 16.9338 12.655 16.9638 12.84C16.8138 12.745 16.5738 12.625 16.4238 12.55C16.5588 12.59 16.7388 12.66 16.8638 12.675C16.8888 12.53 16.8838 12.32 16.8988 12.165Z" fill="#009B3A" stroke="black" stroke-width="0.005"/>
<path d="M16.9643 12.7149L16.6143 12.3149L16.8793 12.7949L16.9743 12.8299L16.9593 12.7149" fill="#009B3A"/>
<path d="M16.9643 12.7149L16.6143 12.3149L16.8793 12.7949L16.9743 12.8299L16.9593 12.7149" stroke="black" stroke-width="0.005"/>
<path d="M16.9296 12.24C16.9546 12.43 16.9796 12.725 17.0246 12.91C16.8746 12.825 16.6246 12.72 16.4746 12.655C16.6096 12.685 16.7946 12.745 16.9146 12.755C16.9346 12.605 16.9246 12.395 16.9296 12.24Z" fill="#009B3A" stroke="black" stroke-width="0.005"/>
<path d="M17.0293 12.785L16.6143 12.49L16.9643 12.89L17.0643 12.895L17.0293 12.785Z" fill="#009B3A" stroke="black" stroke-width="0.005"/>
<path d="M16.9437 12.3201C16.9787 12.5101 17.0287 12.8051 17.0787 12.9851C16.9237 12.9101 16.6687 12.8301 16.5137 12.7801C16.6537 12.7951 16.8387 12.8401 16.9637 12.8301C16.9737 12.6851 16.9487 12.4801 16.9437 12.3201Z" fill="#009B3A" stroke="black" stroke-width="0.005"/>
<path d="M17.0785 12.8451L16.7285 12.4351L16.9885 12.9201L17.0885 12.9601L17.0785 12.8451Z" fill="#009B3A" stroke="black" stroke-width="0.005"/>
<path d="M16.964 12.3701C17.019 12.5551 17.094 12.8451 17.164 13.0201C16.999 12.9701 16.744 12.9201 16.584 12.8901C16.724 12.8901 16.909 12.9051 17.034 12.8851C17.034 12.7351 16.984 12.5301 16.964 12.3751" fill="#009B3A"/>
<path d="M16.964 12.3701C17.019 12.5551 17.094 12.8451 17.164 13.0201C16.999 12.9701 16.744 12.9201 16.584 12.8901C16.724 12.8901 16.909 12.9051 17.034 12.8851C17.034 12.7351 16.984 12.5301 16.964 12.3751" stroke="black" stroke-width="0.005"/>
<path d="M17.0993 12.8451L16.6143 12.7451L17.0693 12.9701L17.1643 12.9351L17.0943 12.8451" fill="#009B3A"/>
<path d="M17.0993 12.8451L16.6143 12.7451L17.0693 12.9701L17.1643 12.9351L17.0943 12.8451" stroke="black" stroke-width="0.005"/>
<path d="M16.9993 12.4299C17.0493 12.6149 17.1243 12.8999 17.1893 13.0749C17.0293 13.0249 16.7743 12.9749 16.6143 12.9449C16.7543 12.9449 16.9393 12.9599 17.0643 12.9449C17.0643 12.7949 17.0143 12.5849 16.9993 12.4299Z" fill="#009B3A" stroke="black" stroke-width="0.005"/>
<path d="M17.1741 12.895L16.7141 12.67L17.1241 13.005L17.2241 12.995L17.1741 12.895Z" fill="#009B3A" stroke="black" stroke-width="0.005"/>
<path d="M16.974 12.46C17.064 12.63 17.199 12.895 17.299 13.045C17.129 13.035 16.869 13.045 16.709 13.045C16.844 13.02 17.029 12.995 17.144 12.945C17.109 12.8 17.024 12.61 16.974 12.46Z" fill="#009B3A" stroke="black" stroke-width="0.005"/>
<path d="M17.2488 12.9451L16.7688 12.8151L17.2188 13.0651L17.3088 13.0401L17.2438 12.9401" fill="#009B3A"/>
<path d="M17.2488 12.9451L16.7688 12.8151L17.2188 13.0651L17.3088 13.0401L17.2438 12.9401" stroke="black" stroke-width="0.005"/>
<path d="M17.0187 12.5352C17.1137 12.7002 17.2487 12.9652 17.3537 13.1152C17.1837 13.1052 16.9237 13.1152 16.7637 13.1252C16.8937 13.0902 17.0837 13.0652 17.1937 13.0152C17.1637 12.8702 17.0737 12.6802 17.0237 12.5352" fill="#009B3A"/>
<path d="M17.0187 12.5352C17.1137 12.7002 17.2487 12.9652 17.3537 13.1152C17.1837 13.1052 16.9237 13.1152 16.7637 13.1252C16.8937 13.0902 17.0837 13.0652 17.1937 13.0152C17.1637 12.8702 17.0737 12.6802 17.0237 12.5352" stroke="black" stroke-width="0.005"/>
<path d="M17.3044 12.985L16.8594 12.72L17.2494 13.09H17.3494L17.3044 12.985Z" fill="#009B3A" stroke="black" stroke-width="0.005"/>
<path d="M17.0594 12.5751C17.1644 12.7301 17.3244 12.9751 17.4394 13.1201C17.2444 13.1358 17.0507 13.1642 16.8594 13.2051C16.9894 13.1551 17.1694 13.1051 17.2794 13.0401C17.2294 12.9001 17.1244 12.7151 17.0594 12.5751Z" fill="#009B3A" stroke="black" stroke-width="0.005"/>
<path d="M17.3394 13.025L16.8594 13.01L17.3344 13.155L17.4194 13.1L17.3394 13.025ZM17.6194 10.695L17.9644 10.64L17.6194 10.645L17.5594 10.675L17.6194 10.695Z" fill="#009B3A" stroke="black" stroke-width="0.005"/>
<path d="M17.8091 10.7701C17.7091 10.7401 17.5591 10.6901 17.4541 10.6701L17.8241 10.4951C17.7491 10.5451 17.6341 10.6051 17.5741 10.6551C17.6341 10.6951 17.7391 10.7351 17.8091 10.7701Z" fill="#009B3A" stroke="black" stroke-width="0.005"/>
<path d="M17.5991 10.7051L17.9391 10.6151L17.5891 10.6601L17.5391 10.6951L17.6041 10.7051" fill="#009B3A"/>
<path d="M17.5991 10.7051L17.9391 10.6151L17.5891 10.6601L17.5391 10.6951L17.6041 10.7051" stroke="black" stroke-width="0.005"/>
<path d="M17.8244 10.795C17.7044 10.78 17.5244 10.76 17.4094 10.76C17.4994 10.68 17.6194 10.555 17.6944 10.475C17.6444 10.55 17.5644 10.645 17.5294 10.715C17.6094 10.75 17.7344 10.77 17.8244 10.795Z" fill="#009B3A" stroke="black" stroke-width="0.005"/>
<path d="M17.4788 10.7299L17.8288 10.6899L17.4888 10.6799L17.4238 10.7099L17.4738 10.7299" fill="#009B3A"/>
<path d="M17.4788 10.7299L17.8288 10.6899L17.4888 10.6799L17.4238 10.7099L17.4738 10.7299" stroke="black" stroke-width="0.005"/>
<path d="M17.7344 10.805L17.3594 10.74L17.7044 10.55C17.6344 10.6 17.5344 10.67 17.4844 10.72C17.5494 10.75 17.6594 10.78 17.7344 10.805Z" fill="#009B3A" stroke="black" stroke-width="0.005"/>
<path d="M17.4489 10.73L17.7539 10.595L17.4189 10.685L17.3789 10.725H17.4489" fill="#009B3A"/>
<path d="M17.4489 10.73L17.7539 10.595L17.4189 10.685L17.3789 10.725H17.4489" stroke="black" stroke-width="0.005"/>
<path d="M17.7241 10.845C17.6391 10.81 17.4991 10.745 17.4141 10.72L17.6341 10.48C17.5941 10.545 17.5341 10.63 17.5041 10.7C17.5641 10.75 17.6541 10.8 17.7241 10.845Z" fill="#009B3A" stroke="black" stroke-width="0.005"/>
<path d="M17.4644 10.7501L17.7044 10.6501L17.4444 10.6801L17.4144 10.7301L17.4644 10.7501ZM17.2644 12.9801H16.7744L17.2744 13.1051L17.3544 13.0551L17.2644 12.9801Z" fill="#009B3A" stroke="black" stroke-width="0.005"/>
<path d="M17.3535 13.01L16.8535 12.895L17.3335 13.13L17.4335 13.1L17.3535 13.01Z" fill="#009B3A" stroke="black" stroke-width="0.005"/>
<path d="M17.4395 13.045L16.9395 13.02L17.4395 13.17L17.5245 13.12L17.4395 13.045Z" fill="#009B3A" stroke="black" stroke-width="0.005"/>
<path d="M17.1248 12.6951C17.2498 12.8351 17.4448 13.0651 17.5798 13.1901C17.4148 13.2151 17.1648 13.2801 17.0098 13.3251C17.1298 13.2651 17.3098 13.1951 17.4098 13.1251C17.3398 12.9951 17.2098 12.8251 17.1248 12.6951Z" fill="#009B3A" stroke="black" stroke-width="0.005"/>
<path d="M17.5039 13.07L17.0039 12.905L17.4739 13.185L17.5739 13.165L17.5039 13.065" fill="#009B3A"/>
<path d="M17.5039 13.07L17.0039 12.905L17.4739 13.185L17.5739 13.165L17.5039 13.065" stroke="black" stroke-width="0.005"/>
<path d="M17.1691 12.7251C17.3091 12.8551 17.5191 13.0601 17.6691 13.1751C17.5091 13.2201 17.2691 13.3151 17.1191 13.3751C17.2341 13.3051 17.3991 13.2151 17.4891 13.1251C17.4091 13.0051 17.2641 12.8501 17.1691 12.7251Z" fill="#009B3A" stroke="black" stroke-width="0.005"/>
<path d="M17.5492 13.1L17.0742 13.195L17.5742 13.225L17.6442 13.16L17.5442 13.1" fill="#009B3A"/>
<path d="M17.5492 13.1L17.0742 13.195L17.5742 13.225L17.6442 13.16L17.5442 13.1" stroke="black" stroke-width="0.005"/>
<path d="M17.449 13.0701L16.959 13.1101L17.464 13.1951L17.544 13.1351L17.444 13.0701" fill="#009B3A"/>
<path d="M17.449 13.0701L16.959 13.1101L17.464 13.1951L17.544 13.1351L17.444 13.0701" stroke="black" stroke-width="0.005"/>
<path d="M17.5393 13.1001L17.0293 13.0151L17.5293 13.2151L17.6193 13.1801L17.5393 13.1001Z" fill="#009B3A" stroke="black" stroke-width="0.005"/>
<path d="M17.6243 13.1251L17.1243 13.1351L17.6343 13.2501L17.7143 13.1951L17.6243 13.1251Z" fill="#009B3A" stroke="black" stroke-width="0.005"/>
<path d="M17.2841 12.8C17.4241 12.93 17.6341 13.14 17.7791 13.26C17.6141 13.295 17.3641 13.38 17.2141 13.43C17.3341 13.365 17.5041 13.285 17.5991 13.205C17.5191 13.08 17.3791 12.92 17.2841 12.795V12.8Z" fill="#009B3A" stroke="black" stroke-width="0.005"/>
<path d="M17.6946 13.1451L17.1846 13.0151L17.6746 13.2651L17.7696 13.2351L17.6946 13.1451Z" fill="#009B3A" stroke="black" stroke-width="0.005"/>
<path d="M17.3291 12.825C17.4791 12.945 17.7091 13.135 17.8641 13.235C17.7041 13.29 17.4741 13.41 17.3341 13.48C17.4441 13.395 17.5991 13.295 17.6841 13.205C17.5941 13.085 17.4341 12.94 17.3341 12.825H17.3291Z" fill="#009B3A" stroke="black" stroke-width="0.005"/>
<path d="M17.7394 13.1699L17.2744 13.2999H17.7744L17.8394 13.2249L17.7394 13.1749V13.1699Z" fill="#009B3A" stroke="black" stroke-width="0.005"/>
<path d="M18.3797 12.475L17.9997 12.21L17.6197 12.475L17.7647 12.055L17.4297 11.795H17.8597L17.9997 11.375L18.1397 11.795H18.5697L18.2347 12.055L18.3797 12.475Z" fill="#FEDF00" stroke="black" stroke-width="0.02"/>
</g>
<defs>
<clipPath id="clip0_11930_68303">
<rect width="36" height="24" rx="2" fill="white"/>
</clipPath>
</defs>
</svg>
