<svg width="36" height="24" viewBox="0 0 36 24" fill="none" xmlns="http://www.w3.org/2000/svg">
<g clip-path="url(#clip0_6903_4715)">
<rect width="36" height="24" rx="2" fill="#1B68FE"/>
<path fill-rule="evenodd" clip-rule="evenodd" d="M0 23.1535L17.9207 12L36 23.1546C36 23.1546 35.5492 23.8415 34.7611 23.9512C33.973 24.061 1.08033 23.9512 1.08033 23.9512C1.08033 23.9512 0.104128 23.5661 0 23.1546V23.1535Z" fill="#FF0000"/>
<path fill-rule="evenodd" clip-rule="evenodd" d="M17.9051 12.0559L18.8447 0H16.9364L17.904 12.0559L17.8993 12.0593L0.855808 0.221352C0.293436 0.489188 -0.0442204 1.05474 0.00468159 1.65129L0.0407759 2.10284L17.8737 12.0626L0.0407759 11.1949V12.9402L17.8935 12.0736L36 13V11.1716L17.9028 12.0681L35.9022 2.10284L35.9814 1.57824C36.071 0.983909 35.7019 0.413928 35.1035 0.221352L17.9051 12.0559Z" fill="#FFFF00"/>
</g>
<defs>
<clipPath id="clip0_6903_4715">
<rect width="36" height="24" rx="2" fill="white"/>
</clipPath>
</defs>
</svg>
