<svg width="36" height="24" viewBox="0 0 36 24" fill="none" xmlns="http://www.w3.org/2000/svg">
<g clip-path="url(#clip0_11930_68315)">
<path d="M0 0H36V24H0V0Z" fill="#20603D"/>
<path d="M0 0H36V18H0V0Z" fill="#FAD201"/>
<path d="M0 0H36V12H0V0Z" fill="#00A1DE"/>
<path d="M33.4207 6.26991L30.7407 6.42657L33.2874 7.27324L30.6607 6.72991L32.904 8.20325L30.504 6.99658L32.284 9.00659L30.2807 7.22324L31.4873 9.62326L30.0107 7.37991L30.5507 10.0033L29.7073 7.45991L29.5507 10.1399L29.5173 6.23657L33.4207 6.26991Z" fill="#E5BE01"/>
<path d="M33.4207 6.26989L30.7407 6.11322L33.2874 5.26655L30.6607 5.80989L32.904 4.33655L30.504 5.54322L32.284 3.53321L30.2807 5.31655L31.4873 2.91654L30.0107 5.15988L30.5507 2.53654L29.7073 5.07988L29.5507 2.39987L29.5173 6.30322L33.4207 6.26989Z" fill="#E5BE01"/>
<path d="M25.6765 6.26991L28.3565 6.42657L25.8098 7.27324L28.4365 6.72991L26.1932 8.20325L28.5932 6.99658L26.8132 9.00659L28.8165 7.22324L27.6098 9.62326L29.0865 7.37991L28.5465 10.0033L29.3898 7.45991L29.5465 10.1399L29.5798 6.23657L25.6765 6.26991Z" fill="#E5BE01"/>
<path d="M25.6765 6.26989L28.3565 6.11322L25.8098 5.26655L28.4365 5.80989L26.1932 4.33655L28.5932 5.54322L26.8132 3.53321L28.8165 5.31655L27.6098 2.91654L29.0865 5.15988L28.5465 2.53654L29.3898 5.07988L29.5465 2.39987L29.5798 6.30322L25.6765 6.26989Z" fill="#E5BE01"/>
<path d="M29.5496 7.41326C30.181 7.41326 30.6929 6.90137 30.6929 6.26993C30.6929 5.63848 30.181 5.12659 29.5496 5.12659C28.9181 5.12659 28.4062 5.63848 28.4062 6.26993C28.4062 6.90137 28.9181 7.41326 29.5496 7.41326Z" fill="#E5BE01" stroke="#00A1DE" stroke-width="0.113334"/>
</g>
<defs>
<clipPath id="clip0_11930_68315">
<rect width="36" height="24" rx="2" fill="white"/>
</clipPath>
</defs>
</svg>
