<svg width="36" height="24" viewBox="0 0 36 24" fill="none" xmlns="http://www.w3.org/2000/svg">
<rect width="36" height="24" rx="2" fill="#165D31"/>
<path d="M15.4373 5.69994C15.3435 5.76087 15.1701 5.94369 15.1654 6.14994C15.1643 6.17603 15.1624 6.19631 15.1608 6.21285C15.1551 6.27061 15.154 6.28278 15.2123 6.33744C15.2732 6.42181 15.3248 6.41712 15.4373 6.35619C15.4653 6.33854 15.4894 6.31526 15.5079 6.28782C15.5265 6.26039 15.5391 6.2294 15.5451 6.19681C15.5582 6.13535 15.5282 6.14584 15.4907 6.15897C15.4481 6.17388 15.3957 6.1922 15.3857 6.11244C15.3575 6.00686 15.4113 5.94884 15.4835 5.87093C15.5074 5.84507 15.5334 5.81701 15.5591 5.78431C15.5591 5.69056 15.5591 5.62962 15.4326 5.69994H15.4373Z" fill="white"/>
<path d="M9.85445 6.33275C9.86851 6.23431 9.85445 5.89681 9.62945 5.83119C9.54039 5.80775 9.40445 5.864 9.44664 5.98119C9.43644 6.01179 9.48866 6.084 9.54369 6.16009C9.58982 6.22389 9.63792 6.29041 9.65289 6.33744C9.66693 6.36953 9.66294 6.43253 9.65893 6.49595C9.65357 6.58071 9.64816 6.66622 9.6857 6.67962C9.74195 6.70306 9.82164 6.51087 9.85445 6.33275Z" fill="white"/>
<path d="M13.9888 7.94994C13.881 7.78119 13.9466 7.49994 14.1248 7.40619C14.2232 7.34994 14.2888 7.38744 14.256 7.47181C14.2193 7.55595 14.2111 7.64976 14.2326 7.739L14.2393 7.75285C14.2578 7.79207 14.2698 7.81725 14.3498 7.80462C14.5513 7.62181 14.5466 7.71556 14.5466 7.71556C14.5466 7.71556 14.4435 8.05775 14.2701 8.039C14.2677 8.039 14.2631 8.03983 14.2566 8.04099C14.2118 8.04898 14.0789 8.07274 13.9888 7.94994Z" fill="white"/>
<path d="M16.4123 6.40775C16.4208 6.23234 16.4459 6.05813 16.4873 5.88744C16.5763 5.66712 16.7123 5.66244 16.7451 5.864L16.7427 5.89752C16.7348 6.01492 16.7258 6.14853 16.6232 6.4265C16.5529 6.59525 16.3841 6.539 16.4123 6.40775Z" fill="white"/>
<path d="M23.1435 9.2765C23.1623 9.25306 24.081 8.6015 24.081 8.6015C24.1748 8.56869 24.1513 8.939 24.1091 8.93431C23.8242 9.20891 23.4965 9.43531 23.1388 9.60462C23.0919 9.63744 23.0498 9.35619 23.1388 9.2765H23.1435Z" fill="white"/>
<path d="M24.1841 9.94681C24.2029 9.82025 24.1373 9.34681 23.9732 9.26712H23.9779C23.8748 9.239 23.7435 9.32337 23.7904 9.48275C23.7757 9.52969 23.8235 9.64829 23.8705 9.76491C23.8986 9.83459 23.9264 9.90359 23.9404 9.95619C23.9547 9.99906 23.9485 10.0766 23.9424 10.1532C23.9345 10.2525 23.9268 10.3502 23.9638 10.3687C24.0294 10.3968 24.1841 10.1999 24.1841 9.94681Z" fill="white"/>
<path d="M18.5357 11.3015C18.6117 11.2127 18.7001 11.1354 18.7982 11.0718C18.887 11.0274 18.9673 11.1007 18.9716 11.1046C18.978 11.1473 18.9669 11.1871 18.9552 11.2293C18.9411 11.2797 18.9261 11.3336 18.9388 11.3999L18.9429 11.4105C18.9601 11.4547 18.9782 11.5017 19.0607 11.4843C19.206 11.3671 19.3419 11.3577 19.4826 11.3531C19.5998 11.3577 19.6045 11.5499 19.5294 11.5499C19.3443 11.5889 19.2312 11.6369 19.1152 11.6861C19.0639 11.7079 19.0119 11.7299 18.9529 11.7515C18.8591 11.8077 18.7841 11.7374 18.7841 11.7327C18.7841 11.7321 18.7831 11.7306 18.7814 11.7281C18.7712 11.7132 18.7373 11.6638 18.7654 11.5593C18.7748 11.4656 18.7373 11.4093 18.6529 11.4187C18.5966 11.4562 18.5404 11.4749 18.5123 11.4046C18.4982 11.3577 18.4935 11.3296 18.5357 11.3015Z" fill="white"/>
<path d="M24.9341 11.7327C25.0044 11.6484 24.9763 11.6015 24.9388 11.5546V11.5499C24.9229 11.5414 24.9071 11.5351 24.8923 11.5291C24.8418 11.5088 24.8018 11.4926 24.7982 11.4093C24.8123 11.339 24.831 11.3109 24.8873 11.3015C24.9043 11.3 24.9198 11.2985 24.934 11.2972C25.0098 11.2899 25.0529 11.2857 25.1357 11.3015C25.2295 11.3343 25.2529 11.3718 25.2295 11.4281C25.2112 11.4768 25.1859 11.5226 25.1544 11.564C25.1123 11.6484 25.2013 11.6577 25.2295 11.6577C25.249 11.661 25.2718 11.6597 25.295 11.6585C25.3386 11.6561 25.3831 11.6536 25.4076 11.6812C25.4169 11.6812 25.4357 11.7749 25.3701 11.8218C25.3701 11.8265 24.9763 12.0843 24.8076 12.0374C24.7138 12.014 24.7326 11.9296 24.7607 11.8827L24.9341 11.7327Z" fill="white"/>
<path fill-rule="evenodd" clip-rule="evenodd" d="M22.604 16.992C22.6877 16.9957 22.7658 16.9988 22.84 17.0018C23.1482 17.014 23.3902 17.0237 23.6962 17.0577L24.1462 17.0108C24.6431 16.9639 24.6618 17.7186 24.6618 17.7186C24.6618 18.1511 24.4982 18.1857 24.2869 18.2302L24.2681 18.2342C24.149 18.2519 24.088 18.1699 24.0227 18.0821L24.0103 18.0655C23.9043 18.0995 23.7913 18.1059 23.6822 18.0842C23.6099 18.0805 23.5384 18.0783 23.4673 18.0761C23.3588 18.0727 23.2506 18.0693 23.1431 18.0608C23.0533 18.0541 22.9828 18.0592 22.9126 18.0642C22.8363 18.0698 22.7604 18.0753 22.6603 18.0655C22.6228 18.1264 22.5665 18.2108 22.454 18.1874C22.3603 18.1733 22.2431 17.9061 22.2759 17.6952L22.2807 17.685C22.3206 17.5998 22.3272 17.5857 22.3265 17.572C22.3263 17.5694 22.3259 17.5667 22.3254 17.5635C22.3243 17.5567 22.3228 17.5476 22.3228 17.5311C21.8966 17.5198 21.4696 17.5065 21.0428 17.4933C19.7043 17.4517 18.3665 17.4102 17.0587 17.428C15.7138 17.4327 14.3875 17.4885 13.0567 17.5445L13.0415 17.5452C12.329 17.5358 11.7853 17.4233 11.4103 16.8749C11.4159 16.8749 11.4614 16.8771 11.5363 16.8808C11.9572 16.9016 13.3076 16.9683 13.7493 16.9405C14.2946 16.9352 14.8143 16.9072 15.3408 16.8789C15.7421 16.8573 16.1475 16.8355 16.5712 16.8233C16.9454 16.8297 17.319 16.8348 17.6924 16.8399C19.2459 16.8612 20.7938 16.8824 22.3509 16.992C22.1634 16.8655 22.1634 16.5702 22.4447 16.4952C22.4552 16.4867 22.4638 16.5153 22.474 16.5488C22.4864 16.5899 22.5011 16.6384 22.5243 16.6358C22.754 16.6217 22.6509 16.9311 22.604 16.992ZM23.2597 17.5879C23.0594 17.5874 22.8584 17.5869 22.6511 17.578C22.5855 17.6062 22.5761 17.7327 22.6323 17.803C22.6873 17.8057 22.7405 17.8097 22.7928 17.8138C22.9276 17.8241 23.0563 17.834 23.1948 17.8171C23.1854 17.6952 23.5417 17.6718 23.5464 17.8124L23.912 17.8265C23.9636 17.8358 24.0198 17.6718 23.9401 17.6015C23.7093 17.5891 23.485 17.5885 23.2597 17.5879Z" fill="white"/>
<path d="M15.329 8.00611C15.0103 8.09517 14.5509 7.17642 14.8415 6.34205C14.9445 6.23905 14.994 6.54673 15.0443 6.86018C15.0833 7.10306 15.1229 7.3494 15.1884 7.4108C15.2493 7.51861 15.3384 7.5983 15.4228 7.32642C15.4963 6.91617 15.683 6.53463 15.9618 6.22486C16.0228 6.16861 16.1681 6.10299 16.2572 6.28111C16.3153 6.38842 16.3009 6.88389 16.2913 7.21415L16.29 7.2608C16.3333 7.45565 16.4006 7.49851 16.4845 7.55194L16.5056 7.56549C16.6087 7.61705 16.7447 7.65455 16.8665 7.51392C16.9344 7.43892 16.9587 7.40201 16.9975 7.34307C17.0097 7.32466 17.0232 7.30409 17.04 7.27955C17.0895 6.97965 17.0571 6.67194 16.9462 6.38892C16.8535 6.14034 16.9369 5.9916 16.9943 5.88925C17.0095 5.86229 17.0228 5.83855 17.0306 5.81705C17.1634 5.57365 17.2084 5.68956 17.2643 5.83344L17.2743 5.85924C17.3797 6.02349 17.3888 6.31278 17.3977 6.59832C17.4023 6.74464 17.4069 6.89 17.4243 7.01705C17.49 7.5233 17.6165 7.55611 17.6962 7.57017C17.8837 7.59361 17.9915 7.42486 17.9915 7.42486C18.0445 7.10726 17.9135 6.87101 17.8106 6.68539C17.795 6.65732 17.7801 6.63041 17.7665 6.60455C17.7197 6.54885 17.6868 6.48284 17.6705 6.41194C17.6542 6.34104 17.655 6.26728 17.6728 6.19674C17.6769 6.17509 17.6794 6.15319 17.682 6.13124C17.691 6.05338 17.7002 5.97455 17.7806 5.90142C17.9259 5.77955 18.0759 5.79361 18.1837 5.9108C18.3103 6.05142 18.4884 6.32799 18.4322 6.42642C18.4152 6.51538 18.3179 6.49715 18.2578 6.4859L18.24 6.48267C18.1446 6.4946 18.2177 6.67505 18.2421 6.73537C18.2465 6.74618 18.2493 6.75312 18.2493 6.75455C18.2777 6.82554 18.2938 6.90882 18.3102 6.99338C18.3316 7.10422 18.3535 7.21727 18.404 7.30767C18.48 7.42363 18.6174 7.39634 18.7143 7.37708C18.731 7.37376 18.7465 7.37068 18.7603 7.36861L18.9056 7.27017C18.9618 7.23267 19.0462 7.2233 19.0415 7.3733C19.0415 7.3733 18.9009 7.77642 18.7134 7.87017C18.7014 7.87345 18.6911 7.87827 18.6813 7.88288C18.649 7.89805 18.6212 7.91111 18.5493 7.8608C18.5127 7.78751 18.54 7.74026 18.5639 7.69887C18.5736 7.68202 18.5828 7.66613 18.5868 7.64986C18.5868 7.61705 18.4603 7.57486 18.3853 7.6733C18.354 7.71715 18.3309 7.75903 18.2884 7.83645C18.2673 7.87486 18.2413 7.92211 18.2072 7.98267C18.1275 8.11861 17.7947 8.16549 17.6353 8.09986C17.5174 8.04091 17.4792 7.96527 17.4449 7.89742C17.4247 7.85738 17.4058 7.82006 17.3728 7.79049C17.2837 7.73424 17.1993 7.73424 17.1337 7.80455L16.8525 8.09049C16.829 8.11392 16.5243 8.35767 16.1587 8.07642C15.9947 7.88424 15.9384 7.73892 15.9478 7.10142C15.915 7.03111 15.8681 7.04517 15.7978 7.18111C15.704 7.65924 15.5634 8.09986 15.329 8.00611Z" fill="white"/>
<path fill-rule="evenodd" clip-rule="evenodd" d="M13.7353 7.49997C13.8899 7.44372 14.6399 6.58122 14.6399 6.58122L14.5274 6.48747C14.4853 6.45465 14.4899 6.41715 14.5274 6.38434C14.7149 6.27184 14.654 6.03747 14.5603 5.92497C14.4966 5.89394 14.4266 5.87821 14.3558 5.87902C14.285 5.87983 14.2154 5.89717 14.1524 5.92965C14.0212 6.05622 13.9931 6.25778 14.0962 6.37965C14.1946 6.42653 14.2931 6.52965 14.2274 6.5859C14.0772 6.74529 13.8019 6.96108 13.5698 7.14303C13.3241 7.33564 13.1268 7.49032 13.1774 7.49997C13.1962 7.52809 13.7165 7.52809 13.7306 7.49997H13.7353ZM14.2558 6.28585C14.2839 6.35147 14.3495 6.39366 14.3964 6.3796L14.3917 6.38429C14.4433 6.37022 14.462 6.3046 14.4292 6.24366C14.3964 6.18272 14.3355 6.13585 14.2886 6.14991C14.2417 6.16397 14.2276 6.22022 14.2558 6.28585Z" fill="white"/>
<path d="M9.03839 11.8687C8.8837 11.6672 8.90714 10.9968 9.18839 10.5468L9.20356 10.5272C9.25886 10.4551 9.28418 10.422 9.25401 10.6031C9.21565 10.8385 9.20308 11.0774 9.21651 11.3156C9.23057 11.4562 9.28214 11.6297 9.40401 11.3765C9.46495 11.3015 9.51182 11.3156 9.57276 11.4093C9.61495 11.5359 9.53526 11.8968 9.35714 11.9718C9.2587 12.0047 9.12276 11.9625 9.03839 11.8687Z" fill="white"/>
<path fill-rule="evenodd" clip-rule="evenodd" d="M20.6342 8.71803C20.5633 8.59906 20.5058 8.50253 20.4712 8.43747C20.3465 8.24038 20.2192 8.045 20.0894 7.85135C20.0679 7.64012 20.0435 7.42918 20.016 7.2186C19.9842 6.9962 20.0392 7.03849 20.088 7.07603C20.1256 7.10495 20.1595 7.13105 20.1472 7.0311C20.0825 6.67261 19.8943 6.4176 19.6634 6.10471L19.6035 6.02329L19.5896 6.00273C19.5233 5.90394 19.516 5.89305 19.3972 6.05141C19.3482 6.16102 19.3311 6.2592 19.3312 6.35116C19.3008 6.3087 19.2625 6.25922 19.2149 6.20153L18.7978 5.84997C18.704 5.78434 18.479 5.66247 18.4415 5.85934C18.4228 6.03747 18.4321 6.13122 18.4603 6.27653C18.4791 6.35175 18.5733 6.47225 18.6462 6.56537C18.6641 6.58829 18.6807 6.60957 18.6946 6.62809C19.0192 7.05794 19.3304 7.4974 19.6278 7.94583C19.6886 8.34339 19.7311 8.73086 19.7582 9.11704C19.8121 9.88153 19.8184 10.6486 19.7769 11.4139C19.9176 11.4186 20.1332 11.1936 20.2129 10.8608C20.2474 10.522 20.2208 9.98694 20.2026 9.6203C20.1961 9.4898 20.1907 9.38059 20.1894 9.30922C20.1832 9.13582 20.175 8.96251 20.1647 8.78933C20.5408 9.40556 20.8917 10.0372 21.2165 10.6828C21.3384 10.6218 21.3103 9.92809 21.2399 9.82965C21.0484 9.41353 20.8032 9.00189 20.6342 8.71803ZM19.416 6.83422L19.4354 6.92066C19.3934 6.86359 19.3512 6.80669 19.3087 6.74997C19.1883 6.60629 19.2497 6.60657 19.3223 6.60689C19.3371 6.60696 19.3524 6.60703 19.3667 6.60587L19.3788 6.65687C19.3929 6.71549 19.4069 6.77404 19.416 6.83422Z" fill="white"/>
<path d="M9.46092 8.45149C8.97811 8.34837 9.03436 7.36399 9.07186 6.80149H9.07655C9.17511 6.68322 9.23222 7.00014 9.28662 7.30199C9.30983 7.43082 9.33256 7.55691 9.3578 7.64524C9.46092 8.04837 9.60155 7.88899 9.63436 7.67337C9.6578 7.48118 9.71405 7.26555 9.71405 7.26555C9.77967 6.84368 10.0094 6.59524 10.0984 6.59524C10.2156 6.57649 10.2672 6.60462 10.314 6.72649C10.3848 7.02499 10.3896 7.33533 10.3281 7.63587C10.314 7.87493 10.6 8.14212 10.5859 7.66868L10.5678 7.53081C10.5293 7.23438 10.4938 6.96173 10.4125 6.66087C10.3907 6.45222 10.386 6.24215 10.3984 6.03274C10.4453 5.92962 10.5719 5.87337 10.6562 5.98587C10.785 6.09387 10.8218 6.46716 10.8448 6.70074C10.8477 6.73065 10.8504 6.75827 10.8531 6.78274C10.8498 7.05777 10.8829 7.33202 10.9515 7.59837C11.0125 7.72493 11.0922 7.75306 11.1297 7.64524C11.1557 7.64524 11.137 7.60776 11.104 7.54158C11.0775 7.48844 11.0417 7.41678 11.0125 7.33118C10.9234 7.12024 10.8625 6.65618 10.989 6.44055C11.0359 6.36555 11.1297 6.36555 11.2 6.44055C11.2208 6.47672 11.2434 6.50751 11.2654 6.53772C11.3178 6.60932 11.3677 6.67761 11.3875 6.80618C11.3935 6.82541 11.3998 6.84305 11.4061 6.86052C11.4442 6.96648 11.48 7.06602 11.4156 7.47649C11.4156 7.52805 11.6969 7.73899 11.6969 7.73899C11.7859 7.82805 11.889 7.85618 11.9922 7.79524C12.0156 7.64524 11.9594 7.47649 11.9172 7.37805C11.725 7.11555 11.5937 6.80149 11.6312 6.5343C11.6922 6.29993 11.8797 6.28118 12.0062 6.39368C12.1562 6.47337 12.25 6.66555 12.3109 6.86243C12.2922 6.95618 12.1937 6.96555 12.1328 6.86243C12.1234 6.88587 12.1398 6.92923 12.1562 6.97259C12.1726 7.01595 12.189 7.05931 12.1797 7.08274C12.2811 7.33002 12.3367 7.59369 12.3437 7.86087C12.339 8.13274 12.1234 8.30618 11.7672 8.4093C11.5882 8.44509 11.5076 8.37704 11.4128 8.29697C11.3834 8.27216 11.3527 8.2462 11.3172 8.2218C11.2234 8.17024 11.0828 8.17493 11.0828 8.28274C11.0436 8.33905 11.0594 8.49256 11.0815 8.70652C11.1016 8.90219 11.127 9.14842 11.1203 9.41712C11.1015 10.3687 10.7547 10.2656 10.7547 10.2656L10.6797 8.75149C10.6234 8.61087 10.5203 8.60149 10.3703 8.61087C10.2297 8.55462 10.0422 8.47024 10.0422 8.18899V7.31243C10.0375 7.19524 9.96717 7.19524 9.92967 7.28899C9.8508 7.3591 9.84598 7.54716 9.84073 7.75223C9.83193 8.09562 9.82191 8.48671 9.46092 8.45149Z" fill="white"/>
<path d="M10.6418 9.10308L9.14185 9.82495C9.15591 9.48276 9.84966 8.8687 10.3278 8.86401C10.5508 8.86744 10.5704 8.92864 10.5961 9.00899C10.6056 9.03841 10.6158 9.07041 10.6372 9.10308H10.6418Z" fill="white"/>
<path fill-rule="evenodd" clip-rule="evenodd" d="M10.3738 9.57172C9.58632 11.6108 12.2254 11.8967 12.5207 9.65609C12.5488 9.56234 12.6613 9.47328 12.6801 9.62328C12.6191 11.653 10.6363 11.7889 10.2988 11.1514C10.2194 10.932 10.1797 10.7003 10.1816 10.467C10.1348 10.0686 9.92382 10.2233 9.89101 10.617C9.86474 10.7934 9.86551 10.8676 9.86686 10.9984C9.8672 11.031 9.86757 11.0671 9.86757 11.1092C9.9707 12.7123 12.5254 12.0233 12.9426 10.7014C13.0791 10.2483 13.032 9.86895 13.0043 9.64595C12.9874 9.50907 12.9777 9.43109 13.0223 9.43109C13.2754 9.70297 13.6316 9.46859 13.7113 9.37484C13.7441 9.32797 13.8285 9.29516 13.8848 9.35609C14.0816 9.49672 14.4285 9.43109 14.5035 9.18266C14.5457 8.93422 14.5785 8.68109 14.5879 8.42328L14.583 8.42467C14.4215 8.47081 14.3065 8.50367 14.2926 8.57328L14.2598 8.78891C14.2457 8.85922 14.1098 8.85922 14.1004 8.77016C14.0394 8.48891 13.7863 8.45609 13.6316 8.88734C13.5332 8.97172 13.3457 8.99047 13.3269 8.86391C13.3504 8.57328 13.2332 8.53578 12.9988 8.67172L12.7738 6.97484C12.8 6.97484 12.8261 6.98031 12.8521 6.98576C12.9195 6.99984 12.9862 7.01378 13.0504 6.93266C12.9566 6.62797 12.7457 6.00922 12.6285 5.96234C12.589 5.91206 12.5522 5.92507 12.5035 5.94234C12.4886 5.94761 12.4726 5.95327 12.4551 5.95766C12.3332 5.99516 12.2207 6.09828 12.2582 6.30453C12.3202 6.6929 12.373 7.04031 12.4252 7.38325C12.4915 7.81846 12.5566 8.24655 12.6379 8.74203C12.6613 8.84047 12.5769 8.97641 12.4644 8.96234C12.4023 8.92038 12.3556 8.86398 12.3089 8.80769C12.215 8.6942 12.1213 8.58108 11.9019 8.58734C11.6676 8.58734 11.4051 8.84516 11.3723 9.08891C11.3301 9.28578 11.316 9.49672 11.3723 9.66547C11.5363 9.86234 11.7332 9.84359 11.9066 9.80141C11.968 9.77483 12.0248 9.7331 12.0737 9.69721C12.137 9.6508 12.1869 9.61415 12.216 9.63266C12.2488 9.67484 12.2207 10.1436 11.5457 10.4998C11.1379 10.6873 10.8098 10.7248 10.6363 10.392C10.5967 10.3145 10.5875 10.1586 10.5782 10.0014C10.5621 9.73066 10.5458 9.45606 10.3738 9.57172ZM11.7279 9.15775C11.7352 9.14685 11.7424 9.13636 11.7479 9.12638C11.776 9.07951 11.926 9.02326 11.9823 9.16388C12.001 9.22482 11.9823 9.28576 11.9541 9.31857C11.9436 9.33974 11.8984 9.33701 11.8548 9.33436C11.8404 9.33349 11.8263 9.33263 11.8135 9.33263C11.7573 9.33263 11.7245 9.31857 11.6916 9.27169C11.6773 9.23232 11.704 9.19295 11.7279 9.15775Z" fill="white"/>
<path d="M20.4193 12.1077C20.1756 12.1077 19.9881 11.8498 20.0443 11.7889C20.5281 11.574 20.961 11.2593 21.3147 10.8655C21.4037 10.7905 21.4225 10.603 21.4084 10.4717C21.3735 10.0887 21.3435 9.71963 21.3141 9.35643C21.2408 8.45278 21.1705 7.58554 21.0334 6.63266C21.0237 6.41152 21.0722 6.19171 21.174 5.99516C21.2553 5.82353 21.2801 5.8782 21.3237 5.97466L21.3287 5.98578C21.4693 6.2061 21.7272 6.79203 21.6568 6.86235C21.628 6.9113 21.5833 6.9178 21.5466 6.92313C21.5235 6.92649 21.5036 6.92938 21.4928 6.94203C21.4834 6.97016 21.4693 7.08266 21.4834 7.17641C21.7038 8.29351 21.795 9.43223 21.7553 10.5702C21.7252 10.8083 21.6402 11.0362 21.5068 11.2358C21.1787 11.8358 20.8225 12.0608 20.4193 12.1077Z" fill="white"/>
<path d="M25.5053 11.7842C25.2147 11.953 25.2147 12.1452 25.449 12.1498L25.5037 12.1436C25.8947 12.0991 26.345 12.0479 26.6584 11.5733C26.7743 11.3393 26.8413 11.0841 26.8553 10.8233C26.9143 9.70287 26.8403 8.57942 26.635 7.47641C26.6318 7.44499 26.625 7.39929 26.6178 7.35143C26.6036 7.25654 26.5881 7.15291 26.5975 7.13422C26.6111 7.1025 26.6487 7.10254 26.6893 7.10258C26.7328 7.10262 26.7795 7.10266 26.8037 7.06391C26.8529 7.01125 26.6365 6.70355 26.4637 6.45785C26.4057 6.37549 26.3527 6.30009 26.3162 6.2436L26.3082 6.22568C26.2669 6.13354 26.2453 6.08542 26.1615 6.25297C26.0671 6.45133 26.0376 6.67438 26.0772 6.89047C26.2928 8.3436 26.4522 9.4311 26.485 10.7155L26.4782 10.7606C26.4641 10.856 26.4542 10.9231 26.4053 11.0577C26.3762 11.0942 26.3465 11.1333 26.3162 11.1729C26.2147 11.306 26.108 11.4459 26.0068 11.5217C25.9414 11.5684 25.8388 11.6152 25.7412 11.6596C25.643 11.7043 25.55 11.7466 25.5053 11.7842Z" fill="white"/>
<path d="M25.7207 10.4858C25.7207 10.3971 25.721 10.3119 25.7213 10.2298C25.7216 10.1351 25.722 10.0447 25.7218 9.95785C25.9365 10.2806 26.1438 10.6163 26.3399 10.9687C26.4618 10.9077 26.4196 10.2187 26.3399 10.1249H26.3446C26.1467 9.79226 25.8892 9.44556 25.689 9.17607L25.6275 9.09327C25.6121 9.04896 25.5947 9.00528 25.5754 8.96235C25.5253 8.84832 25.5231 8.7475 25.5208 8.64127C25.5192 8.56846 25.5175 8.49311 25.5004 8.40922C25.4841 8.3198 25.4767 8.21098 25.4689 8.09692C25.4587 7.94792 25.4478 7.78993 25.416 7.65454C25.3972 7.56079 25.3504 7.2561 25.3644 7.22329C25.3758 7.19149 25.4025 7.1905 25.4325 7.18941C25.4643 7.18824 25.4996 7.18694 25.5238 7.14829C25.5894 7.07797 25.2894 6.30454 25.1394 6.08422C25.0879 5.98579 24.9847 6.0186 24.8676 6.17797C24.7504 6.28579 24.7926 6.52485 24.8394 6.75454C24.945 7.31344 25.0416 7.85319 25.1191 8.38415C24.9539 8.16096 24.7856 7.94001 24.6144 7.72137L24.606 7.67809C24.606 7.66871 24.5825 7.19996 24.5591 7.09215C24.5591 7.08192 24.5584 7.07326 24.5579 7.06601C24.5559 7.04003 24.5553 7.03223 24.5919 7.0359C24.6404 7.07999 24.6474 7.08261 24.6793 7.09447L24.6857 7.09683C24.7325 7.10621 24.7794 7.01715 24.7466 6.94215L24.2779 6.07027C24.2404 6.03277 24.1888 5.99527 24.1279 6.07965C24.0919 6.11219 24.0633 6.15201 24.0439 6.19646C24.0245 6.24091 24.0148 6.28897 24.0154 6.33746C24.0224 6.44056 24.0341 6.54484 24.0458 6.64911C24.0575 6.75334 24.0693 6.85784 24.0763 6.9609L24.0971 7.07862L24.0383 7.00773C23.8261 6.783 23.8932 6.77775 23.9625 6.77231C24.0234 6.76754 24.086 6.76263 23.9633 6.6093C23.9272 6.57012 23.8954 6.53523 23.8666 6.50362C23.7197 6.34252 23.6505 6.26667 23.4899 6.14523C23.4686 6.13142 23.4493 6.11472 23.4317 6.0995C23.3716 6.04755 23.3314 6.01279 23.3024 6.16867C23.2874 6.34326 23.2843 6.51866 23.293 6.69367C23.293 6.77336 23.3774 6.92805 23.4524 7.0218C23.5853 7.1855 23.7199 7.34964 23.8555 7.51497L23.8562 7.51576C23.9908 7.6799 24.1266 7.84546 24.2624 8.01267L24.2638 8.02027C24.2944 8.39649 24.3131 8.73968 24.3319 9.08357C24.3506 9.42523 24.3694 9.76759 24.3997 10.1437C24.3904 10.4625 24.2919 10.739 24.1982 10.7812C24.1982 10.7812 24.0575 10.8609 23.9638 10.7718C23.8935 10.7437 23.6169 10.3078 23.6169 10.3078C23.4763 10.1812 23.3825 10.214 23.2841 10.3078C23.0997 10.486 22.9838 10.761 22.8717 11.027C22.8128 11.1667 22.755 11.3039 22.6888 11.4234C22.6419 11.5031 22.5013 11.564 22.3513 11.4187C22.0478 11.0005 22.1242 10.4449 22.1467 10.3242C22.1507 10.3076 22.1521 10.3001 22.1518 10.3005C22.1515 10.3008 22.1495 10.3091 22.1467 10.3242L22.145 10.3312C21.8029 10.7203 21.9529 11.3625 22.0325 11.5031C22.145 11.7281 22.2341 11.8734 22.4544 11.9859C22.656 12.1312 22.8154 12.0421 22.8997 11.939C23.0199 11.8133 23.0701 11.5708 23.1109 11.3737C23.1385 11.2402 23.1619 11.1275 23.1997 11.0859C23.2654 10.889 23.4341 10.9218 23.5138 11.0109C23.5883 11.1167 23.6883 11.2021 23.8044 11.2593C23.9919 11.4234 24.2169 11.4562 24.4419 11.3062C24.5919 11.2171 24.6904 11.1093 24.7794 10.889C24.8675 10.6424 24.8314 9.55161 24.8073 8.82192L24.803 8.69101C24.9459 8.8747 25.0878 9.06161 25.2279 9.2526C25.29 9.86086 25.3189 10.465 25.2988 11.0811C25.2801 11.203 25.7207 10.7155 25.7207 10.4858Z" fill="white"/>
<path d="M22.9035 8.04829C23.016 8.24985 23.3957 8.60141 23.5785 8.61079V8.6061C23.582 8.46876 23.5935 8.29391 23.603 8.15007C23.6061 8.10266 23.609 8.05848 23.6113 8.02016C23.616 7.96391 23.6301 7.89829 23.6816 7.87954C23.7063 7.87574 23.7363 7.885 23.7633 7.89332C23.8031 7.90557 23.8363 7.91581 23.8363 7.87954C23.8316 7.76235 23.8035 7.58891 23.7379 7.50454C23.6441 7.3686 23.4051 7.40141 23.3629 7.61704C23.3629 7.65304 23.3704 7.68149 23.3778 7.70912C23.3857 7.73903 23.3934 7.76798 23.391 7.80454C23.3816 7.84672 23.3347 7.87016 23.241 7.82329C23.2551 7.80922 23.1754 7.69672 23.1754 7.69672C23.0957 7.64985 22.9926 7.69672 22.9222 7.7436C22.8979 7.79023 22.8837 7.84146 22.8805 7.89395C22.8772 7.94644 22.8851 7.99902 22.9035 8.04829Z" fill="white"/>
<path fill-rule="evenodd" clip-rule="evenodd" d="M15.7934 8.10083C15.7771 8.11694 15.7557 8.13808 15.7226 8.16089C15.6383 8.25933 15.6242 8.32495 15.6289 8.52183C15.6289 8.5312 15.7883 8.97651 15.9242 9.29058C16.0381 9.62488 16.0765 9.98028 16.0367 10.3312C15.8064 10.7924 15.442 11.1731 14.9914 11.4234C14.7805 11.4937 14.5976 11.4703 14.5508 11.4234C14.4242 11.3343 14.4289 11.1703 14.4383 11.1703C14.4863 11.1365 14.5352 11.1038 14.5846 11.0707C14.8925 10.8646 15.2217 10.6441 15.4883 10.0828C15.582 9.83433 15.6101 9.68433 15.5164 9.29995C15.4932 9.16449 15.4332 9.03801 15.343 8.93433C15.3636 8.91986 15.4071 8.93455 15.4512 8.94948C15.5072 8.9684 15.5642 8.9877 15.5773 8.94839C15.5398 8.76558 15.4179 8.51714 15.2773 8.39058C15.1508 8.27808 15.0195 8.2687 14.907 8.36714C14.7804 8.44214 14.7523 8.69526 14.8133 8.91558C14.8404 8.98548 14.8877 9.03125 14.9431 9.08487C15.0215 9.16071 15.1161 9.25225 15.193 9.44995C15.193 9.45109 15.1937 9.45565 15.1949 9.46297C15.2037 9.51625 15.2365 9.71447 15.1789 9.79683C15.118 9.96558 14.4242 10.514 14.382 10.5375C14.3691 10.5536 14.3695 10.5431 14.371 10.5044C14.3717 10.4869 14.3726 10.4636 14.3726 10.4343C14.3702 10.3746 14.3822 10.2727 14.3919 10.1902C14.4005 10.1172 14.4074 10.0593 14.4008 10.0593C14.214 10.18 14.1306 10.5105 14.0835 10.6971C14.0739 10.7353 14.0657 10.7675 14.0586 10.7906C13.858 10.9287 13.647 11.0553 13.4414 11.1786C13.0609 11.4069 12.6989 11.6241 12.4555 11.8828C12.2586 12.1921 13.8055 11.5359 13.9883 11.4562C14.003 11.4672 14.0112 11.4948 14.0222 11.5319C14.0394 11.5894 14.0633 11.6699 14.1289 11.7468C14.2883 11.9625 14.6305 12.0984 14.9586 12.014C15.5164 11.8078 15.8351 11.4328 16.1633 11.0109C16.2101 10.9453 16.2851 10.8937 16.3508 10.9453C16.5758 11.4468 17.2273 11.8031 18.0617 11.8406C18.2539 11.6015 18.1648 11.4843 18.0851 11.4375C18.0851 11.4367 18.0743 11.4319 18.0559 11.4237C17.9606 11.3813 17.662 11.2483 17.607 11.1187C17.5695 10.9781 17.6633 10.8515 17.8508 10.7578L17.9103 10.7499C18.4245 10.6824 18.9338 10.6156 19.4258 10.4531C19.4458 10.2633 19.5048 10.0798 19.5992 9.91401C19.6344 9.85361 19.6616 9.83645 19.6777 9.82625C19.6916 9.81746 19.6973 9.81385 19.693 9.79214L19.6039 9.74526L17.8883 9.73589C17.7992 9.70308 17.8273 9.67495 17.8883 9.65151C18.2961 9.59526 19.0273 9.47808 19.0789 8.77495C19.0695 8.41401 18.9195 8.17495 18.4695 8.10933C18.1414 8.13276 17.907 8.45151 17.9445 8.80308C17.9403 8.83118 17.9416 8.8673 17.9429 8.90472C17.9459 8.99212 17.9492 9.08667 17.8836 9.10308C17.2508 9.15933 16.5617 9.55308 16.5429 9.83433C16.5008 9.86245 16.4164 9.78745 16.4258 9.66558C16.3962 9.14996 16.2486 8.64801 15.9945 8.19839C15.8455 8.04941 15.8442 8.05075 15.7934 8.10083ZM17.4806 10.2281C17.6775 10.2375 17.7759 10.3969 17.5931 10.4625L17.5831 10.4657C17.3995 10.5253 17.2321 10.5797 17.2275 10.8375C17.2902 11.1721 17.1664 11.1037 17.0724 11.0517C17.061 11.0455 17.0501 11.0394 17.04 11.0344C17.0309 11.0276 17.0206 11.0201 17.0092 11.0118C16.8781 10.917 16.605 10.7193 16.5618 10.3312C16.5572 10.2328 16.6368 10.1437 16.7634 10.1437C16.8901 10.1786 17.0597 10.192 17.233 10.2058C17.3161 10.2123 17.4001 10.219 17.4806 10.2281ZM18.3808 8.8921C18.4605 8.93897 18.5448 8.93897 18.5683 8.8921C18.5917 8.84991 18.5495 8.77022 18.4698 8.72804C18.3901 8.68585 18.3105 8.68585 18.2823 8.72804C18.2542 8.77022 18.3011 8.84522 18.3808 8.8921Z" fill="white"/>
<path d="M11.232 6.35151C11.4289 6.44526 11.8039 6.40308 11.7851 6.08433L11.7758 5.93901C11.7383 5.84526 11.6258 5.8687 11.6023 5.96245C11.5986 5.97532 11.6 5.99108 11.6013 6.00633C11.6034 6.02995 11.6054 6.05234 11.5883 6.06089C11.5695 6.07964 11.5086 6.07026 11.5086 5.9812C11.5086 5.95308 11.4898 5.92495 11.4758 5.9062C11.4664 5.89683 11.457 5.89683 11.4336 5.89683C11.408 5.89683 11.4057 5.90071 11.3948 5.91911L11.3914 5.92495C11.39 5.93214 11.3881 5.93933 11.3862 5.94665C11.3818 5.9632 11.3773 5.98045 11.3773 5.99995C11.3773 6.03276 11.3586 6.04214 11.3398 6.04683C11.3252 6.04683 11.3195 6.04683 11.314 6.04552C11.3105 6.04466 11.3071 6.04325 11.3015 6.04092L11.293 6.03745C11.2904 6.03363 11.2875 6.03049 11.2846 6.0274C11.277 6.0191 11.2695 6.01105 11.2695 5.99058L11.2555 5.91558C11.2461 5.90151 11.2273 5.89214 11.2086 5.88745C11.1008 5.88745 11.0914 6.01401 11.1008 6.06089C11.0914 6.07026 11.0867 6.29058 11.232 6.35151Z" fill="white"/>
<path d="M17.0216 8.7984C17.2185 8.89215 17.6919 8.84059 17.5747 8.5359L17.5654 8.3859C17.5232 8.29215 17.4154 8.31558 17.3919 8.41402C17.3885 8.42436 17.3895 8.43786 17.3905 8.45151C17.3922 8.47499 17.3939 8.49888 17.3732 8.50777C17.3591 8.52652 17.2935 8.51715 17.2982 8.43277C17.2982 8.40465 17.2794 8.37183 17.2654 8.35308L17.2575 8.35019C17.2483 8.34664 17.2407 8.34371 17.2185 8.34371C17.1993 8.34371 17.1958 8.35 17.1874 8.36517C17.1856 8.36851 17.1835 8.37229 17.181 8.37652C17.1716 8.39996 17.1669 8.4234 17.1669 8.45152C17.1622 8.47965 17.1482 8.48902 17.1247 8.4984C17.1052 8.4984 17.1052 8.4984 17.0949 8.49026L17.0872 8.48433C17.0839 8.48104 17.0806 8.47826 17.0775 8.47563C17.0673 8.46704 17.0591 8.46009 17.0591 8.44215L17.045 8.36715C17.0357 8.35309 17.0169 8.34371 16.9982 8.33902C16.8904 8.33902 16.881 8.4609 16.8857 8.50777C16.881 8.51715 16.8763 8.74215 17.0263 8.7984H17.0216Z" fill="white"/>
<path d="M20.9497 7.5234C20.9638 7.83746 20.5935 7.87965 20.3966 7.7859H20.4013C20.2513 7.72496 20.256 7.50465 20.2607 7.49527C20.256 7.4484 20.2654 7.32652 20.3732 7.32652C20.3919 7.33121 20.4107 7.3359 20.42 7.34996C20.4294 7.36871 20.4341 7.40621 20.4341 7.42965C20.4341 7.44759 20.4423 7.45454 20.4525 7.46313C20.4556 7.46576 20.4589 7.46854 20.4622 7.47183L20.4699 7.47579C20.4802 7.48121 20.4802 7.48121 20.4997 7.48121C20.5232 7.48121 20.5372 7.46715 20.5419 7.43434L20.556 7.36402C20.5585 7.35979 20.5606 7.35601 20.5624 7.35267C20.5708 7.3375 20.5743 7.33121 20.5935 7.33121C20.6216 7.33121 20.6263 7.33121 20.6404 7.34059C20.6544 7.35934 20.6732 7.38746 20.6732 7.41558C20.6685 7.50465 20.7341 7.51402 20.7482 7.49996C20.7689 7.48812 20.7672 7.4632 20.7655 7.43818C20.7645 7.42357 20.7635 7.40893 20.7669 7.39684C20.7904 7.30309 20.8982 7.27965 20.9404 7.3734L20.9497 7.5234Z" fill="white"/>
<path d="M20.4857 5.93902C20.6638 6.00933 20.7857 6.37027 20.7482 6.5484C20.7107 6.75933 20.6169 6.99371 20.5513 6.96559C20.5162 6.95243 20.5242 6.90439 20.5355 6.83682C20.5483 6.75997 20.5653 6.65786 20.5279 6.55309C20.5102 6.49141 20.4471 6.40696 20.388 6.32796C20.3213 6.23883 20.2598 6.15662 20.2747 6.12184C20.2279 5.97652 20.3779 5.9109 20.4857 5.93433V5.93902Z" fill="white"/>
<path d="M22.7171 10.5468C22.7396 10.251 22.718 10.0346 22.6992 9.84611C22.6906 9.75984 22.6826 9.67943 22.6796 9.59994C22.6702 9.34682 22.3937 7.41557 22.3374 7.22807C22.2977 7.02137 22.3883 7.0334 22.4677 7.04395C22.5289 7.05206 22.5834 7.0593 22.5671 6.96557C22.511 6.83985 22.4162 6.68509 22.3228 6.53273C22.2212 6.36696 22.1213 6.20399 22.0749 6.08432C22.0612 6.06141 22.0522 6.03851 22.0447 6.01936C22.0215 5.96015 22.0123 5.9369 21.9202 6.06088C21.8153 6.34853 21.7784 6.65658 21.8124 6.96088C21.8496 7.1543 21.8868 7.34351 21.9233 7.52943C22.1729 8.79889 22.3924 9.91503 22.3515 11.1703C22.4921 11.1703 22.6468 10.8562 22.7171 10.5468Z" fill="white"/>
<path d="M25.9749 7.20463C25.9937 7.07807 25.8999 6.62807 25.7359 6.54838C25.6374 6.52026 25.4968 6.58588 25.5437 6.74526C25.531 6.78576 25.5895 6.87822 25.6518 6.97685C25.7049 7.06085 25.7608 7.14933 25.778 7.21401C25.7922 7.25643 25.7846 7.33979 25.7769 7.42316C25.7669 7.53322 25.7568 7.64332 25.7968 7.65932C25.8577 7.69213 25.9421 7.43901 25.9749 7.20463Z" fill="white"/>
<path d="M13.7499 9.73119C13.9046 9.79213 13.9984 10.1203 13.9843 10.214C13.9468 10.3874 13.8671 10.5749 13.8062 10.5468C13.7716 10.5362 13.7808 10.4562 13.7901 10.3752C13.7971 10.3135 13.8043 10.2512 13.7921 10.2187C13.7839 10.117 13.7063 10.0427 13.6445 9.98346C13.6009 9.94173 13.5652 9.90752 13.5671 9.87651C13.5296 9.73588 13.6609 9.71244 13.7546 9.73119H13.7499Z" fill="white"/>
</svg>
