<svg width="36" height="24" viewBox="0 0 36 24" fill="none" xmlns="http://www.w3.org/2000/svg">
<g clip-path="url(#clip0_11930_68309)">
<path fill-rule="evenodd" clip-rule="evenodd" d="M0 23.775L46.2844 0H0V23.775Z" fill="#0051BA"/>
<path fill-rule="evenodd" clip-rule="evenodd" d="M48.0004 0L1.27539 24H48.0004V0Z" fill="#215B33"/>
<path fill-rule="evenodd" clip-rule="evenodd" d="M48 0H45.4266L0 22.7531V24H2.57344L48 1.29375V0Z" fill="#FCD116"/>
<path fill-rule="evenodd" clip-rule="evenodd" d="M3.34688 0.426575L3.9 2.04376H5.70469L4.24687 3.03282L4.80469 4.64532L3.34688 3.65626L1.88906 4.65001L2.44688 3.03751L0.989063 2.03907H2.78906L3.34688 0.426575ZM12.3047 0.426575L12.8625 2.04376H14.6672L13.2047 3.03751L13.7672 4.65001L12.3 3.65626L10.8469 4.6547L11.4047 3.0422L9.94219 2.04376H11.7469L12.3047 0.426575ZM12.3047 7.20001L12.8625 8.8172H14.6672L13.2047 9.81095L13.7672 11.4234L12.3047 10.425L10.8516 11.4234L11.4094 9.81095L9.94687 8.81251H11.7516L12.3047 7.20001ZM7.85156 3.85314L8.40937 5.46564H10.2094L8.75625 6.46407L9.30938 8.07657L7.85625 7.07814L6.39375 8.07657L6.95625 6.46407L5.49375 5.46564H7.29844L7.85156 3.85314ZM3.34688 7.20001L3.9 8.8172H5.70469L4.24687 9.81095L4.80469 11.4234L3.34688 10.425L1.88906 11.4234L2.45156 9.81095L0.984375 8.81251H2.78438L3.34688 7.20001Z" fill="white"/>
</g>
<defs>
<clipPath id="clip0_11930_68309">
<rect width="36" height="24" rx="2" fill="white"/>
</clipPath>
</defs>
</svg>
