<svg width="36" height="24" viewBox="0 0 36 24" fill="none" xmlns="http://www.w3.org/2000/svg">
<rect width="36" height="24" rx="2" fill="white"/>
<path fill-rule="evenodd" clip-rule="evenodd" d="M0 0H36V12H0V0Z" fill="#DF0000"/>
<path fill-rule="evenodd" clip-rule="evenodd" d="M8.30017 2.00997C7.35308 2.21351 6.50484 2.73669 5.89788 3.49168C5.29091 4.24667 4.96218 5.1875 4.96687 6.15621C4.97156 7.12492 5.30939 8.06252 5.92364 8.8116C6.53788 9.56068 7.39115 10.0756 8.34017 10.27C7.79651 10.4273 7.22713 10.4757 6.6647 10.4125C6.10227 10.3493 5.55785 10.1757 5.06267 9.90162C4.56749 9.62755 4.13128 9.25842 3.77906 8.8154C3.42685 8.37239 3.16556 7.86419 3.01017 7.31997C2.70156 6.22602 2.83864 5.05437 3.39144 4.0612C3.94424 3.06802 4.86779 2.33413 5.96017 2.01997C6.76017 1.78997 7.50017 1.78497 8.30517 2.00997H8.30017Z" fill="white"/>
<path fill-rule="evenodd" clip-rule="evenodd" d="M7.6502 5.5L7.8952 6.25L7.2452 5.79L6.6052 6.26L6.8402 5.5L6.2002 5.035L6.9952 5.025L7.2452 4.275L7.4952 5.025H8.2852L7.6502 5.5ZM8.5252 8.1L8.7752 8.855L8.1252 8.395L7.4802 8.86L7.7202 8.105L7.0802 7.635L7.8752 7.63L8.1202 6.875L8.3702 7.625H9.1702L8.5252 8.1ZM11.4502 8.08L11.6952 8.84L11.0452 8.375L10.4052 8.84L10.6402 8.085L10.0002 7.62L10.7952 7.61L11.0452 6.86L11.2952 7.61H12.0852L11.4502 8.08ZM12.3202 5.5L12.5652 6.255L11.9152 5.795L11.2752 6.26L11.5152 5.505L10.8702 5.035L11.6702 5.03L11.9102 4.275L12.1602 5.025H12.9602L12.3202 5.5ZM10.0052 3.785L10.2552 4.545L9.6052 4.08L8.9602 4.55L9.2002 3.79L8.5602 3.32L9.3502 3.315L9.6002 2.56L9.8502 3.31H10.6502L10.0052 3.785Z" fill="white"/>
</svg>
