<svg width="36" height="24" viewBox="0 0 36 24" fill="none" xmlns="http://www.w3.org/2000/svg">
<rect width="36" height="24" rx="2" fill="#000066"/>
<path d="M0 0H16V12H0V0Z" fill="#012169"/>
<path d="M1.875 0L7.975 4.525L14.05 0H16V1.55L10 6.025L16 10.475V12H14L8 7.525L2.025 12H0V10.5L5.975 6.05L0 1.6V0H1.875Z" fill="white"/>
<path d="M10.6 7.025L16 11V12L9.225 7.025H10.6ZM6 7.525L6.15 8.4L1.35 12H0L6 7.525ZM16 0V0.075L9.775 4.775L9.825 3.675L14.75 0H16ZM0 0L5.975 4.4H4.475L0 1.05V0Z" fill="#C8102E"/>
<path d="M6.025 0V12H10.025V0H6.025ZM0 4V8H16V4H0Z" fill="white"/>
<path d="M0 4.825V7.225H16V4.825H0ZM6.825 0V12H9.225V0H6.825Z" fill="#C8102E"/>
<path d="M31.0544 9.84985C31.0444 13.2399 30.5044 16.8999 26.0844 18.6399C21.6594 16.8949 21.1194 13.2399 21.1094 9.84985H31.0544Z" fill="#128BBF"/>
<path d="M26.0849 18.6399C28.0849 17.8499 29.3349 16.5599 30.0499 15.1899C29.9399 15.1499 29.7099 15.1449 29.6199 15.1799C29.5099 15.1699 25.3449 14.8649 24.8549 14.6849C24.4249 14.5349 22.8049 14.8199 22.0449 15.0849C22.7499 16.5499 23.9749 17.8099 26.0849 18.6349V18.6399Z" fill="#E8ECE9"/>
<path d="M22.9893 16.535C23.0593 16.515 23.1893 16.52 23.2393 16.525C23.2993 16.54 23.3093 16.545 23.3293 16.475C23.3493 16.415 23.3993 16.43 23.4393 16.46C23.4743 16.495 23.5743 16.48 23.6143 16.425C23.6493 16.375 23.6643 16.375 23.6993 16.415C23.7393 16.45 23.7493 16.44 23.7943 16.43C23.8293 16.42 23.8943 16.38 23.9293 16.315C23.9593 16.255 24.0093 16.235 24.0343 16.265C24.0643 16.3 24.0893 16.315 24.1293 16.315C24.1693 16.305 24.1793 16.345 24.1743 16.39C24.1693 16.44 24.1893 16.45 24.2793 16.375C24.3643 16.455 24.3893 16.425 24.3893 16.34C24.3916 16.1884 24.3748 16.0373 24.3393 15.89C24.3043 15.845 24.2693 15.725 24.2643 15.625C24.2543 15.44 24.2543 15.43 24.0293 15.32C24.0293 15.255 24.0143 15.225 23.8593 15.235C23.8593 15.215 23.8343 15.15 23.8043 15.125C23.7693 15.095 23.7643 15.085 23.7793 15.01C23.8443 15.015 23.9193 15.005 23.9543 14.95C23.9943 14.9 24.1193 14.91 24.1943 14.94C24.2693 14.975 24.3693 14.98 24.5143 14.955C24.5693 14.915 24.6643 14.865 24.7643 14.81C24.8593 14.76 24.8843 14.735 24.8893 14.66C24.9043 14.465 24.8393 14.245 24.7843 14.14C24.7293 14.04 24.7093 13.91 24.6343 13.745C24.5543 13.57 24.5543 13.525 24.4593 13.42C24.4343 13.39 24.4093 13.365 24.3993 13.305C24.3951 13.2294 24.3631 13.1582 24.3093 13.105C24.1443 12.955 24.0793 12.475 24.0143 12.115C23.9793 11.915 24.0043 11.43 23.9143 11.355C23.7693 11.235 23.6993 11.255 23.5993 11.22C23.5293 11.12 23.4993 10.93 23.4343 10.755C23.3343 10.775 23.2593 10.88 23.1843 10.92C23.1193 10.955 23.1043 10.955 23.1043 11.055C23.1043 11.155 23.0543 11.285 22.9543 11.435C22.8543 11.585 22.6943 11.545 22.5543 11.77C22.2543 11.41 22.2543 11.305 22.2293 11.205C22.2093 11.105 22.1593 11.08 21.9893 10.935C21.9893 10.89 21.9693 10.72 21.9893 10.62C21.8593 10.52 21.7693 10.535 21.7093 10.61C21.6493 10.685 21.6093 10.8 21.5093 10.845C21.4593 10.915 21.2893 11.09 21.1543 11.295C21.2793 13.18 21.7043 15.045 22.9893 16.535Z" fill="#69522B"/>
<path d="M31.0546 9.84986C31.0596 8.56986 30.9896 7.32986 31.0196 6.24486C29.3696 5.50986 27.1896 5.35986 26.0846 5.35986C24.9746 5.35986 22.7946 5.50986 21.1446 6.24486C21.1746 7.32986 21.1046 8.56986 21.1096 9.84486L31.0546 9.84986Z" fill="#BCA76B"/>
<path d="M21.38 11.33C21.43 11.415 21.53 11.565 21.54 11.645C21.58 11.565 21.61 11.53 21.615 11.485C21.625 11.435 21.68 11.335 21.665 11.285C21.64 11.235 21.625 11.195 21.68 11.235C21.74 11.27 21.73 11.335 21.72 11.435C21.68 11.7 21.57 11.755 21.555 11.935C21.715 12.305 21.595 12.44 21.77 12.81C21.795 12.825 21.87 12.795 21.89 12.8C21.985 12.735 22.05 12.76 22.185 12.785C22.315 12.815 22.385 12.905 22.385 12.985C22.385 13.065 22.385 13.085 22.41 13.135C22.44 13.185 22.495 13.26 22.48 13.315C22.47 13.365 22.495 13.4 22.51 13.43C22.525 13.455 22.505 13.515 22.485 13.555C22.47 13.59 22.475 13.64 22.54 13.72C22.605 13.8 22.76 14.14 22.76 14.34C22.76 14.54 22.77 14.635 22.85 14.67C22.935 14.71 22.96 14.74 22.95 14.825C22.94 14.915 22.99 15.36 23 15.43C23.01 15.5 23.035 15.485 23.07 15.525C23.1 15.56 23.12 15.605 23.23 15.605C23.34 15.605 23.445 15.59 23.515 15.605C23.615 15.735 23.675 15.92 23.695 16.03C23.72 16.145 23.715 16.3 23.755 16.3C23.795 16.3 23.83 16.305 23.82 16.165C23.81 16.025 23.8 16.005 23.75 15.935C23.7 15.865 23.675 15.835 23.7 15.785C23.7253 15.7338 23.7323 15.6756 23.72 15.62C23.71 15.57 23.695 15.485 23.785 15.595L23.935 15.765C23.96 15.805 23.97 15.875 23.965 15.94C23.965 16.005 23.97 16.03 24.01 16C24.05 15.965 24.095 16.02 24.075 16.09C24.055 16.16 24.08 16.205 24.145 16.225C24.21 16.245 24.24 16.265 24.255 16.31C24.27 16.36 24.325 16.38 24.325 16.285C24.325 16.185 24.29 15.985 24.26 15.915C24.235 15.85 24.21 15.715 24.21 15.63C24.2 15.55 24.185 15.53 24.145 15.51C24.11 15.495 24.075 15.47 24.07 15.43C24.065 15.395 24.03 15.38 24.01 15.38C23.985 15.38 23.96 15.36 23.95 15.33C23.935 15.305 23.92 15.305 23.895 15.3C23.865 15.3 23.825 15.315 23.81 15.27C23.795 15.23 23.775 15.17 23.75 15.13C23.72 15.095 23.7 15.085 23.695 14.965C23.695 14.845 23.69 14.825 23.65 14.785C23.615 14.74 23.55 14.625 23.52 14.58C23.495 14.53 23.47 14.48 23.47 14.58C23.47 14.685 23.47 14.74 23.53 14.78C23.595 14.815 23.615 14.815 23.585 14.87C23.56 14.92 23.585 14.96 23.595 15C23.61 15.035 23.63 15.075 23.595 15.115C23.565 15.15 23.53 15.14 23.535 15.08C23.54 15.02 23.52 14.95 23.495 14.9C23.465 14.85 23.445 14.82 23.41 14.85C23.38 14.875 23.35 14.845 23.375 14.82C23.395 14.8 23.39 14.785 23.375 14.77C23.36 14.75 23.35 14.735 23.375 14.705C23.405 14.67 23.405 14.655 23.39 14.58C23.375 14.505 23.255 14.125 23.2 14.04C23.15 13.95 23.15 13.89 23.22 13.975C23.29 14.06 23.35 14.135 23.36 14.205C23.36 14.275 23.38 14.32 23.4 14.345C23.425 14.375 23.44 14.36 23.45 14.305C23.46 14.245 23.5 14.265 23.43 14.155C23.35 14.04 23.21 13.85 23.155 13.505C23.105 13.17 23.08 12.945 23.025 12.855C22.975 12.755 22.955 12.74 22.95 12.655C22.945 12.565 22.95 12.48 22.91 12.415C22.875 12.35 22.845 12.34 22.84 12.435C22.84 12.535 22.845 12.75 22.875 12.785C22.9 12.825 22.885 12.92 22.875 12.975C22.875 13.025 22.79 13.085 22.965 13.19C23.035 13.235 23.025 13.29 23.015 13.33C23.005 13.37 22.995 13.365 22.955 13.305C22.915 13.245 22.88 13.195 22.84 13.165C22.805 13.13 22.795 13.11 22.805 13.035C22.805 12.96 22.825 12.905 22.805 12.88C22.78 12.85 22.77 12.875 22.755 12.915C22.75 12.96 22.74 13.08 22.715 13.11C22.695 13.145 22.685 13.12 22.665 13.05C22.65 12.98 22.67 12.875 22.715 12.75C22.7598 12.6162 22.7684 12.4731 22.74 12.335C22.705 12.17 22.72 12.12 22.595 11.985C22.47 11.85 22.33 11.725 22.27 11.555C22.21 11.39 22.2 11.24 22.135 11.165C22.0733 11.0866 21.9989 11.019 21.915 10.965V10.715C21.915 10.66 21.89 10.62 21.815 10.63C21.75 10.645 21.705 10.705 21.665 10.78C21.615 10.865 21.585 10.83 21.525 10.965C21.465 11.11 21.375 11.18 21.375 11.33H21.38Z" fill="#CFA763"/>
<path d="M21.7696 12.91C21.8146 12.935 21.8546 12.96 21.9196 12.925C21.9846 12.89 22.0646 12.795 22.1496 12.89C22.2346 12.98 22.2846 13.13 22.2846 13.25C22.2846 13.37 22.2846 13.59 22.4196 13.715C22.5596 13.84 22.6296 13.965 22.6346 14.13C22.6476 14.2903 22.6744 14.4492 22.7146 14.605C22.7315 14.6742 22.766 14.7379 22.8146 14.79C22.8546 14.83 22.8896 14.955 22.8946 15.09C22.8996 15.215 22.8796 15.305 22.8946 15.37C22.9096 15.435 22.8946 15.49 22.8446 15.46C22.7946 15.425 22.7846 15.41 22.7596 15.36C22.7296 15.3 22.6996 15.31 22.7246 15.395C22.7546 15.475 22.8346 15.55 22.9046 15.55C22.9746 15.55 22.9996 15.56 23.0396 15.6C23.0896 15.65 23.0896 15.67 23.1646 15.67C23.2446 15.67 23.2546 15.67 23.3246 15.69C23.3946 15.71 23.3946 15.7 23.4346 15.69C23.4696 15.68 23.5096 15.71 23.5346 15.78C23.5767 15.8833 23.6085 15.9904 23.6296 16.1C23.6296 16.15 23.6296 16.21 23.6696 16.265C23.7046 16.315 23.6946 16.37 23.6496 16.34C23.6096 16.305 23.6096 16.315 23.5746 16.32C23.5396 16.33 23.5246 16.31 23.4746 16.285C23.4346 16.255 23.4596 16.265 23.4196 16.2C23.3696 16.135 23.3446 16.11 23.3446 16.16C23.3446 16.21 23.3446 16.27 23.3096 16.24C23.2746 16.215 23.2596 16.215 23.2346 16.24C23.2046 16.27 23.1946 16.29 23.1596 16.24C23.1296 16.18 23.0896 16.18 23.0596 16.17C23.0246 16.16 23.0246 16.16 23.0096 16.11C22.9946 16.06 22.9446 16.05 22.8996 16.05C22.8546 16.05 22.8346 16.03 22.8296 16C22.8246 15.965 22.7946 15.945 22.7796 15.93C22.7546 15.91 22.7646 15.875 22.7596 15.835C22.7546 15.8 22.7196 15.815 22.6996 15.805C22.6796 15.795 22.6596 15.8 22.6596 15.745C22.6596 15.695 22.6396 15.675 22.6246 15.635C22.6046 15.6 22.6246 15.56 22.6346 15.52C22.6446 15.47 22.6346 15.45 22.6046 15.41C22.5746 15.37 22.6046 15.335 22.5146 15.26C22.4296 15.185 22.3846 15.25 22.3546 15.07C22.3296 14.89 22.2746 14.52 22.2246 14.465C22.1746 14.405 22.1446 14.365 22.0946 14.345C22.0446 14.33 22.0146 14.345 22.0096 14.24C22.0046 14.14 21.9696 14.005 21.9096 13.94L21.7796 13.83C21.7496 13.8 21.7346 13.75 21.7796 13.66C21.8246 13.57 21.8046 13.445 21.7996 13.385C21.7996 13.325 21.7796 13.25 21.7896 13.185C21.7996 13.12 21.7946 13.04 21.7796 12.995C21.7646 12.955 21.7396 12.945 21.7696 12.91Z" fill="#CFA763"/>
<path d="M23.4243 15.8649C23.3893 15.9299 23.3493 15.9049 23.3193 15.8749C23.2843 15.8399 23.2493 15.8399 23.2643 15.7799C23.2793 15.7249 23.2743 15.7099 23.2343 15.6799L23.2143 15.6699H23.1643C23.0893 15.6699 23.0843 15.6449 23.0393 15.6049C23.0314 15.5962 23.0231 15.5879 23.0143 15.5799V15.6199C23.0143 15.6799 23.0143 15.6699 22.9543 15.6849C22.8943 15.6999 22.9043 15.6249 22.8943 15.5749C22.8917 15.5664 22.8883 15.558 22.8843 15.5499C22.8193 15.5349 22.7493 15.4649 22.7243 15.3949C22.6993 15.3149 22.7293 15.2999 22.7593 15.3549C22.7843 15.4099 22.7943 15.4249 22.8443 15.4549C22.8943 15.4899 22.9093 15.4349 22.8943 15.3699L22.8893 15.2999C22.8793 15.2799 22.8593 15.2599 22.8393 15.2499C22.7543 15.2149 22.7793 15.1999 22.7893 15.1349C22.7893 15.0649 22.7743 15.0649 22.7193 15.0999C22.6693 15.1399 22.6593 15.0999 22.6593 14.9899C22.6593 14.8799 22.5893 14.8799 22.5743 14.9549C22.5593 15.0299 22.5293 14.9849 22.4993 14.8749C22.4643 14.7649 22.4193 14.7399 22.4143 14.8449C22.4143 14.9299 22.3893 14.9499 22.3293 14.8999L22.3543 15.0699C22.3843 15.2499 22.4293 15.1849 22.5143 15.2599C22.5993 15.3349 22.5743 15.3699 22.6043 15.4099C22.6393 15.4499 22.6443 15.4749 22.6343 15.5199C22.6243 15.5599 22.6043 15.5999 22.6243 15.6349C22.6393 15.6749 22.6593 15.6899 22.6593 15.7449C22.6593 15.7949 22.6793 15.7949 22.6993 15.8049L22.7443 15.8099C22.7543 15.7949 22.7693 15.7699 22.7843 15.7599C22.8493 15.6899 22.9493 15.7599 22.9843 15.8399C23.0143 15.9249 23.0543 15.9399 23.0993 15.8799C23.1493 15.8149 23.1343 15.8299 23.1893 15.8849C23.2393 15.9449 23.2643 15.9349 23.2643 15.9349C23.2643 15.9349 23.3143 15.9099 23.3593 15.9449C23.3943 15.9749 23.4193 15.9699 23.4893 15.8699C23.5593 15.7699 23.4543 15.7999 23.4243 15.8649Z" fill="#D7C99C"/>
<path d="M23.4709 16.62C23.6009 16.61 23.9559 16.505 23.9959 16.47C24.0809 16.535 24.2359 16.615 24.2959 16.615C24.1759 16.64 24.0959 16.625 24.0609 16.605C24.0759 16.64 24.1209 16.7 24.1459 16.705C24.0259 16.7 23.8959 16.675 23.8459 16.63C23.7459 16.675 23.5709 16.68 23.4709 16.62ZM23.7059 16.78C23.7559 16.795 23.9859 16.83 24.0159 16.83C23.9359 16.895 24.0009 16.96 24.1309 16.95C24.0659 16.955 24.0009 16.98 24.0459 16.99C24.1559 17.01 24.4609 16.93 24.5209 16.895C24.4209 17.03 23.9159 17.15 23.7059 16.78ZM23.9159 17.11C23.9759 17.08 24.1309 17.09 24.2059 17.125C24.1209 17.155 23.9609 17.155 23.9159 17.11Z" fill="#7FB8C1"/>
<path d="M24.1506 17.105C24.2606 17.085 24.5756 17.16 24.6856 17.095C24.6456 17.195 24.4506 17.205 24.3806 17.185C24.3106 17.165 24.2456 17.135 24.2006 17.14C24.2256 17.125 24.1856 17.125 24.1506 17.105ZM24.2606 17.255C24.3456 17.27 24.6456 17.235 24.7406 17.2C24.8406 17.23 25.0306 17.285 25.0756 17.275C24.9806 17.335 24.8056 17.3 24.7456 17.275C24.6687 17.3084 24.5853 17.3243 24.5015 17.3217C24.4176 17.3191 24.3354 17.2981 24.2606 17.26V17.255Z" fill="#7FB8C1"/>
<path d="M24.4065 17.3098C24.5265 17.3348 24.6315 17.3148 24.7465 17.2748C24.7865 17.2948 24.8715 17.3148 24.9565 17.3098C25.0065 17.3398 25.0815 17.3848 25.1565 17.3898C25.0815 17.4198 24.8065 17.3898 24.7565 17.3598C24.6112 17.3565 24.4668 17.382 24.3315 17.4348C24.3315 17.3998 24.3515 17.3448 24.4065 17.3098ZM24.2615 16.6998C24.3565 16.7298 24.6965 16.7148 24.8715 16.6348C24.9415 16.6048 24.9815 16.6548 24.9015 16.6848C24.6215 16.7848 24.4015 16.8198 24.2365 16.7348C24.1715 16.6998 24.1665 16.6698 24.2615 16.6998ZM25.9315 16.2398C25.5115 16.4398 25.2315 16.4898 24.6515 16.3148C24.6015 16.2998 24.5615 16.3148 24.6215 16.3548C24.6815 16.3898 25.0015 16.4798 25.0765 16.4848C25.1565 16.4848 25.1265 16.5248 25.0765 16.5348C25.0365 16.5498 25.0215 16.5848 25.0815 16.5598C25.2668 16.5254 25.4579 16.5391 25.6365 16.5998C25.7015 16.6298 25.7165 16.6248 25.7115 16.5998C25.7065 16.5798 25.7365 16.5598 25.7865 16.5548C25.8315 16.5548 25.8565 16.5348 25.8215 16.5198C25.7865 16.5098 25.7815 16.4998 25.8115 16.4848C25.8365 16.4748 25.8415 16.4598 25.7965 16.4498C25.7565 16.4448 25.7315 16.4348 25.7665 16.4148C25.8065 16.3948 25.8665 16.3798 25.9065 16.3748C25.9165 16.3448 25.9015 16.2698 25.9315 16.2398Z" fill="#7FB8C1"/>
<path d="M25.2361 16.2899C25.4761 16.3049 25.9161 16.1999 26.1511 15.9699C26.2311 16.0199 26.3461 16.0699 26.4011 16.0849C26.4661 16.0949 26.5211 16.1499 26.4261 16.1499C26.3361 16.1499 26.2011 16.1099 26.1461 16.0849C25.8311 16.2749 25.4711 16.3349 25.2411 16.3149C25.1761 16.3149 25.1611 16.2849 25.2361 16.2899ZM24.8561 15.6149C24.8261 15.6199 24.6861 15.6549 24.6461 15.6499C24.6111 15.6499 24.5711 15.6599 24.5761 15.6849C24.5761 15.7099 24.5861 15.7299 24.5261 15.7249C24.4761 15.7149 24.4261 15.7399 24.4111 15.7549C24.3961 15.7699 24.3861 15.7899 24.4461 15.7949C24.5011 15.7949 24.5311 15.8049 24.5961 15.7749C24.6611 15.7449 24.7261 15.6999 24.7961 15.6949C24.8661 15.6949 24.9361 15.5999 24.8561 15.6149Z" fill="#7FB8C1"/>
<path d="M24.6619 15.7799C24.7219 15.8199 25.0119 15.9199 25.1219 15.9099C25.2269 15.9049 25.2069 15.9549 25.1269 15.9699C25.0372 15.9822 24.946 15.9756 24.8591 15.9507C24.7721 15.9257 24.6913 15.8828 24.6219 15.8249C24.5519 15.7749 24.6169 15.7549 24.6619 15.7799Z" fill="#7FB8C1"/>
<path d="M26.0513 15.925C25.8313 15.995 25.6013 15.975 25.5063 15.945C25.4163 15.925 25.3313 15.915 25.3913 15.975C25.4563 16.035 25.6563 16.075 25.7713 16.045C25.3663 16.14 25.2613 16.13 25.1613 16.115C25.0384 16.1009 24.9145 16.0993 24.7913 16.11C24.7313 16.11 24.6463 16.11 24.6113 16.085C24.5763 16.065 24.5663 16.02 24.6713 16.035C24.7763 16.045 24.7913 16.02 24.7013 16.01C24.6063 15.995 24.4813 16.035 24.6013 16.11C24.7313 16.19 25.0013 16.11 25.1763 16.155C25.3314 16.1963 25.4941 16.1997 25.6507 16.1649C25.8074 16.1301 25.9533 16.0581 26.0763 15.955C26.0913 15.945 26.1263 15.905 26.0563 15.925H26.0513ZM25.5313 15.7C25.4813 15.7 25.4013 15.675 25.3563 15.655C25.3163 15.635 25.2563 15.635 25.2963 15.695C25.3463 15.76 25.5463 15.795 25.6163 15.765C25.6863 15.735 25.6563 15.7 25.7263 15.745C25.7963 15.79 25.8763 15.815 25.9263 15.815C25.9763 15.815 25.9963 15.815 25.9363 15.785C25.8813 15.755 25.8513 15.745 25.8463 15.715C25.8463 15.69 25.8313 15.675 25.8863 15.69C25.9363 15.705 25.9963 15.74 26.0363 15.715C26.0763 15.695 26.1563 15.645 26.2213 15.645L26.2413 15.605C26.1413 15.595 26.0763 15.625 26.0513 15.635C26.0263 15.645 25.9763 15.655 25.9213 15.645C25.8713 15.635 25.8013 15.63 25.7863 15.62C25.7713 15.605 25.7713 15.595 25.8163 15.585C25.8563 15.575 25.8713 15.545 25.8163 15.56C25.7513 15.57 25.5913 15.56 25.5063 15.535C25.4213 15.51 25.3863 15.505 25.3563 15.52C25.3163 15.535 25.3213 15.57 25.3763 15.57C25.4263 15.575 25.5413 15.59 25.5813 15.625C25.6263 15.665 25.6213 15.665 25.5713 15.645C25.5263 15.63 25.4413 15.64 25.5313 15.7ZM27.4963 15.555C27.3363 15.675 27.1413 15.705 26.9063 15.715C26.8363 15.72 26.8563 15.74 26.9163 15.745C27.1613 15.77 27.4413 15.68 27.5363 15.585C27.5613 15.555 27.5613 15.51 27.4963 15.555ZM26.3863 15.83C26.5208 15.8485 26.6531 15.8803 26.7813 15.925C26.8413 15.915 26.8563 15.905 26.8463 15.88C26.8363 15.86 26.8263 15.835 26.9363 15.84H27.3363C27.3763 15.83 27.4613 15.765 27.5013 15.76C27.4013 15.765 26.9963 15.79 26.9413 15.78C26.8913 15.78 26.8663 15.78 26.8313 15.8C26.8013 15.82 26.7813 15.83 26.7413 15.81C26.6963 15.795 26.6263 15.775 26.5863 15.8C26.5413 15.825 26.4613 15.8 26.3863 15.83Z" fill="#7FB8C1"/>
<path d="M27.3412 15.8449C27.3762 15.8299 27.4612 15.7649 27.5012 15.7599C27.5712 15.7549 27.6512 15.7849 27.6912 15.7899C27.7312 15.7949 27.7712 15.7899 27.7412 15.7599C27.7162 15.7299 27.7412 15.6749 27.8512 15.6899C27.9612 15.7049 28.0212 15.7249 28.1312 15.7099C28.2362 15.6999 28.2862 15.7799 28.4912 15.6999C28.4762 15.7799 28.5162 15.7899 28.5512 15.7699C28.5912 15.7549 28.6362 15.7599 28.7012 15.8099C28.7662 15.8599 29.1612 15.8599 29.2512 15.8449C29.3512 15.8299 29.3962 15.8799 29.3262 15.8999C29.2562 15.9249 29.2362 15.9549 29.2562 15.9749C29.2712 15.9999 29.2862 16.0249 29.2012 16.0149C29.1112 16.0049 29.1012 16.0299 29.0512 16.0649C29.0112 16.0949 29.0012 16.1049 28.8812 16.0849C28.7612 16.0649 28.7362 16.0799 28.6712 16.0899C28.6062 16.0999 28.5912 16.0999 28.5212 16.0799C28.4612 16.0549 28.3212 16.0349 28.2312 16.0649C28.1462 16.0899 28.0812 16.1149 28.0062 16.0949C27.9262 16.0749 27.9212 16.0849 27.9712 16.0349C28.0212 15.9849 28.0312 15.9949 28.1212 15.9849C28.2162 15.9699 28.2862 15.9449 28.2212 15.9049C28.1562 15.8699 28.1362 15.8749 28.0462 15.9149C27.9612 15.9649 27.9162 15.9849 27.8212 15.9349C27.7212 15.8799 27.6712 15.8899 27.6062 15.9049C27.5412 15.9249 27.4312 15.8849 27.3412 15.8449ZM27.6662 16.0049C27.5412 16.0249 27.5062 15.9449 27.3762 15.9599C27.3362 15.9649 27.2612 16.0199 27.3612 16.0099C27.4612 16.0049 27.5712 16.0599 27.6712 16.0499C27.7712 16.0399 27.7212 15.9999 27.6712 16.0049H27.6662ZM27.5212 16.1049C27.5862 16.0749 27.7212 16.1199 27.7812 16.1099C27.8362 16.0999 27.8912 16.1349 27.8312 16.1549C27.7712 16.1749 27.6312 16.1199 27.5612 16.1399C27.4962 16.1549 27.4312 16.1349 27.5212 16.0999V16.1049ZM26.2212 16.4499C26.3112 16.4499 26.6362 16.4399 26.7612 16.1699C26.7712 16.1449 26.7812 16.1399 26.8212 16.1699C26.8662 16.1899 27.0162 16.2799 27.2962 16.3049C27.3712 16.3149 27.4562 16.3549 27.2962 16.3399C27.1462 16.3299 26.8962 16.2899 26.8062 16.2399C26.6662 16.4549 26.4112 16.4849 26.2212 16.4799C26.1062 16.4799 26.1362 16.4449 26.2212 16.4499Z" fill="#7FB8C1"/>
<path d="M26.921 16.0799C26.876 16.1399 26.726 16.2449 26.661 16.2499C26.591 16.2499 26.386 16.2349 26.336 16.2149C26.286 16.1999 26.221 16.2049 26.296 16.2549C26.371 16.3049 26.551 16.3399 26.626 16.3249C26.696 16.3099 26.781 16.2849 26.841 16.3199C26.896 16.3549 27.001 16.4199 27.066 16.4099C27.1419 16.3937 27.2202 16.3937 27.296 16.4099C27.336 16.4349 27.406 16.4899 27.301 16.4599C27.196 16.4249 27.111 16.4499 27.061 16.4299C27.111 16.5049 27.236 16.6299 27.341 16.6299C27.366 16.6299 27.386 16.6699 27.331 16.6949C27.381 16.7199 27.501 16.7399 27.566 16.6799C27.551 16.7049 27.556 16.7149 27.586 16.7299C27.611 16.7449 27.646 16.7599 27.596 16.7649C27.546 16.7749 27.436 16.7849 27.401 16.7749C27.6007 16.8897 27.8338 16.9321 28.061 16.8949C28.116 16.8849 28.146 16.8599 28.061 16.8649C27.876 16.8699 27.866 16.8649 27.836 16.8499C27.801 16.8299 27.806 16.8149 27.861 16.7999C27.911 16.7799 28.041 16.7599 28.096 16.7599C28.146 16.7599 28.206 16.7399 28.096 16.7399C27.981 16.7399 27.846 16.7399 27.796 16.7199C27.736 16.7049 27.696 16.6799 27.751 16.6399C27.811 16.6049 27.871 16.6149 27.901 16.5799C27.716 16.5799 27.501 16.4799 27.621 16.3949C27.651 16.3749 27.641 16.3749 27.591 16.3699C27.546 16.3649 27.411 16.3249 27.356 16.2899C27.296 16.2599 27.336 16.2349 27.381 16.2249C27.276 16.2449 27.061 16.1849 26.921 16.0799ZM28.521 16.0799C28.421 16.1499 28.236 16.1799 28.156 16.1799C28.076 16.1799 28.066 16.2049 28.131 16.2149C28.191 16.2199 28.261 16.2299 28.286 16.2199C28.316 16.2149 28.331 16.2099 28.371 16.2299C28.4352 16.2544 28.5058 16.2562 28.571 16.2349C28.651 16.2099 28.776 16.1999 28.826 16.2049C28.876 16.2049 28.936 16.2049 28.831 16.1799C28.731 16.1499 28.561 16.1699 28.521 16.1799C28.481 16.1899 28.371 16.1799 28.426 16.1649C28.4771 16.1477 28.5258 16.1241 28.571 16.0949L28.521 16.0799ZM28.466 16.2849C28.3706 16.3587 28.2562 16.4038 28.136 16.4149C28.246 16.4549 28.346 16.5699 28.416 16.5649C28.381 16.5849 28.336 16.6149 28.291 16.6249C28.361 16.6449 28.481 16.6249 28.581 16.5699C28.741 16.6149 28.956 16.5849 29.026 16.5199C28.921 16.5199 28.791 16.4849 28.736 16.4399C28.786 16.4399 28.836 16.4049 28.861 16.3749C28.736 16.3999 28.526 16.3399 28.466 16.2849Z" fill="#7FB8C1"/>
<path d="M28.2911 16.6249C28.3411 16.6199 28.3811 16.5848 28.4161 16.5648C28.3261 16.5948 27.9361 16.5349 27.8161 16.4299C27.7011 16.3299 27.7011 16.4049 27.7811 16.4799C27.8661 16.5499 28.0111 16.6599 28.2911 16.6249ZM28.5811 16.8749C28.5311 16.8999 28.2961 16.9149 28.2211 16.8999C28.1461 16.8849 28.1111 16.8899 28.1311 16.9199C28.1511 16.9499 28.1611 16.9799 28.0961 16.9699C28.0311 16.9599 27.9211 16.9748 27.8761 16.9898C27.8261 17.0098 27.7761 17.0499 27.8711 17.0299C27.9711 17.0149 28.0561 16.9948 28.1311 17.0148C28.2061 17.0348 28.4661 17.0398 28.5161 17.0148C28.5661 16.9948 28.5361 16.9949 28.5111 16.9949C28.4861 16.9949 28.4761 16.9798 28.5111 16.9648C28.5461 16.9498 28.5711 16.8999 28.5811 16.8749ZM26.3161 16.5599C26.2161 16.6049 25.8911 16.6899 25.8061 16.6949C25.6961 16.7449 25.6061 16.7699 25.5561 16.7699C25.6304 16.8123 25.7162 16.8298 25.8011 16.8199C25.7661 16.8499 25.6911 16.8899 25.6661 16.9049C25.7511 16.8949 25.8561 16.9149 25.9011 16.9199C25.7922 16.9778 25.6692 17.0038 25.5461 16.9949C25.5711 17.0349 25.6111 17.0699 25.6611 17.0699C25.5561 17.0999 25.4311 17.0999 25.3611 17.0799C25.3911 17.1299 25.4211 17.1649 25.4611 17.1699C25.3711 17.1799 25.2611 17.1949 25.1711 17.1449C25.2411 17.2349 25.3961 17.2648 25.6311 17.2398C25.8661 17.2148 26.0611 17.1098 26.1161 17.0648C26.0161 17.0798 25.8861 17.0849 25.8211 17.0699C25.9853 17.0268 26.142 16.9593 26.2861 16.8699C26.2311 16.8699 26.1761 16.8549 26.1361 16.8299C26.2795 16.8343 26.4227 16.8174 26.5611 16.7799C26.4611 16.7549 26.4061 16.6949 26.3761 16.6549C26.6722 16.7407 26.9851 16.751 27.2861 16.6849C27.3311 16.6749 27.3361 16.6199 27.2461 16.6249C27.0961 16.6349 26.8011 16.5899 26.7261 16.5549C26.7961 16.6049 26.8811 16.6399 26.9411 16.6549C26.8011 16.6899 26.6061 16.7149 26.3161 16.5549V16.5599Z" fill="#7FB8C1"/>
<path d="M25.6665 16.905C25.6915 16.89 25.7665 16.855 25.8015 16.82C25.7166 16.8299 25.6307 16.8124 25.5565 16.77C25.6065 16.77 25.6965 16.745 25.8065 16.695C25.6065 16.69 25.4765 16.69 25.4065 16.65C25.3315 16.615 25.2065 16.625 25.1565 16.635C25.1065 16.645 25.1215 16.725 25.3265 16.705C25.2001 16.7637 25.0594 16.7846 24.9215 16.765C24.9415 16.835 24.9565 16.905 24.9365 16.945C25.1118 17.0283 25.3025 17.0743 25.4965 17.08C25.3665 17.03 25.2965 16.975 25.4065 16.965C25.5115 16.955 25.5715 16.93 25.6665 16.905ZM25.3265 17.255C25.5865 17.235 25.9365 17.23 26.2165 16.995C26.2865 16.935 26.3315 16.955 26.2665 17.02C26.1165 17.15 25.7515 17.325 25.4065 17.33C25.2615 17.33 25.1965 17.265 25.3265 17.255ZM27.2765 16.83C27.2115 16.855 27.0265 16.88 26.9765 16.88C26.9265 16.865 26.8415 16.865 26.8015 16.89C26.7515 16.92 26.7515 16.935 26.8115 16.94L26.9865 16.95C26.9365 16.975 26.9065 17.015 26.8965 17.03C26.9815 17.01 27.1465 17.045 27.1865 17.07C27.1515 17.085 27.1115 17.07 27.0865 17.055C27.2315 17.205 27.6665 17.205 27.7365 17.18C27.7015 17.205 27.6715 17.23 27.6365 17.235C27.7615 17.26 27.9015 17.255 28.0415 17.175C27.9915 17.185 27.8565 17.17 27.8215 17.165C27.8513 17.137 27.8872 17.1164 27.9265 17.105C27.8765 17.095 27.7015 17.1 27.6615 17.12C27.6765 17.09 27.7115 17.05 27.7415 17.035C27.5265 17.035 27.2665 17.035 27.1715 16.985C27.3215 16.995 27.4915 16.91 27.5615 16.91C27.4415 16.905 27.3115 16.88 27.2765 16.83ZM26.7315 16.95C26.6265 16.97 26.4665 17.015 26.4215 17.035C26.3765 17.06 26.3315 17.075 26.4265 17.075C26.4381 17.0716 26.4498 17.0683 26.4615 17.065C26.4215 17.065 26.3765 17.065 26.4465 17.045C26.5215 17.02 26.6115 16.97 26.7315 16.945V16.95ZM26.5165 17.2C26.5565 17.2 26.7165 17.2 26.7865 17.145C26.8515 17.195 26.9865 17.265 27.0665 17.265C27.1515 17.265 27.1465 17.29 27.0665 17.295C26.9965 17.305 26.8515 17.26 26.7815 17.205C26.6815 17.245 26.6015 17.215 26.5165 17.2ZM25.2565 17.925C25.4265 17.99 25.6515 18.04 25.8115 17.985C25.9065 18.065 26.0965 18.07 26.1965 18.05C26.3015 18.03 26.3965 18.015 26.5065 18.055C26.6215 18.095 26.8565 18.095 26.9215 18.15C26.8615 18.15 26.7365 18.15 26.7065 18.16C26.6765 18.165 26.6915 18.185 26.7465 18.21C26.5361 18.2058 26.3285 18.2594 26.1465 18.365C26.1815 18.28 26.2865 18.165 26.4615 18.165C26.3615 18.135 26.0465 18.13 25.9465 18.19C25.918 18.1597 25.8959 18.124 25.8815 18.085C25.7165 18.18 25.3865 18.045 25.2565 17.925ZM24.8265 17.625C25.0265 17.595 25.1615 17.53 25.2265 17.475C25.2565 17.505 25.4065 17.535 25.5665 17.49C25.5315 17.51 25.5315 17.56 25.5415 17.585C25.4415 17.585 25.2365 17.635 25.1665 17.67C25.1015 17.705 24.9015 17.73 24.8365 17.695C24.7715 17.66 24.7665 17.63 24.8265 17.625Z" fill="#7FB8C1"/>
<path d="M25.5413 17.5849C25.4413 17.5849 25.2363 17.6349 25.1663 17.6699C25.1813 17.6999 25.1913 17.7399 25.1913 17.7699C25.456 17.6951 25.7317 17.6663 26.0063 17.6849C25.9263 17.6899 25.7713 17.7749 25.6863 17.7849C25.844 17.7757 26.0023 17.7892 26.1563 17.8249C26.2113 17.8399 26.2213 17.8749 26.1813 17.9149C26.1413 17.9549 26.1213 17.9649 26.2113 17.9649C26.2963 17.9649 26.4763 17.9549 26.5613 17.8749C26.5263 17.8399 26.4413 17.8549 26.4113 17.8299C26.4677 17.8122 26.5191 17.7813 26.5613 17.7399C26.4113 17.7399 26.3613 17.7399 26.3113 17.7249C26.2613 17.7149 26.2263 17.6999 26.2863 17.6699C26.3278 17.6507 26.3652 17.6235 26.3963 17.5899C26.2863 17.6199 26.1213 17.6399 25.9813 17.5349C26.0313 17.5449 26.1563 17.5349 26.2013 17.5199C26.1513 17.4949 26.1163 17.4749 26.0763 17.4749C26.1913 17.4249 26.4113 17.3749 26.6813 17.4849C26.8163 17.4699 26.9663 17.4749 27.0663 17.5049C27.1163 17.4599 27.2063 17.3549 27.2513 17.3299C26.9313 17.3599 26.3513 17.2999 26.3663 17.1299C26.2663 17.2649 26.0263 17.3399 25.9163 17.3199C25.9113 17.3699 25.9513 17.4299 25.9913 17.4599C25.8813 17.4849 25.6963 17.4999 25.6113 17.4849C25.6613 17.5349 25.7513 17.5749 25.8063 17.5699C25.6913 17.5699 25.6313 17.5899 25.5413 17.5849Z" fill="#7FB8C1"/>
<path d="M26.2114 17.9649C26.2964 17.9649 26.4764 17.9549 26.5614 17.8749C26.5264 17.8399 26.4414 17.8549 26.4114 17.8299C26.4678 17.8122 26.5192 17.7813 26.5614 17.7399C26.7914 17.7249 26.9964 17.7349 27.0914 17.7049C27.1914 17.6749 27.4414 17.6899 27.4914 17.6749C27.2714 17.7099 27.2314 17.7299 27.2164 17.7649C27.2064 17.7999 27.2864 17.8299 27.3414 17.8299C27.2414 17.8299 27.1214 17.9299 27.1114 17.9699C26.9764 17.8949 26.9164 17.9799 26.9014 18.0099C26.8514 17.9899 26.6664 17.9949 26.5764 18.0749C26.4564 18.0399 26.3764 18.0199 26.2564 18.0399C26.3314 18.0199 26.3164 17.9749 26.2064 17.9649H26.2114ZM27.2514 17.3299H27.5464C27.5092 17.3472 27.4754 17.3709 27.4464 17.3999C27.6314 17.3749 27.8864 17.3649 27.9564 17.3749C27.8664 17.3599 27.7764 17.4199 27.7314 17.4499C27.6814 17.4749 27.7114 17.4999 27.7714 17.4999C27.8364 17.5099 27.9214 17.5599 27.8064 17.5449C27.6914 17.5299 27.4664 17.5299 27.4114 17.5349C27.3614 17.5449 27.3264 17.5199 27.4064 17.5049C27.4864 17.4949 27.5364 17.4699 27.5764 17.4499C27.5114 17.4649 27.3864 17.4649 27.3464 17.4499C27.3114 17.4399 27.2864 17.4199 27.3314 17.4099C27.3714 17.3999 27.3414 17.3849 27.2964 17.3899C27.2464 17.3899 27.1314 17.4399 27.0664 17.5049C27.1414 17.4299 27.2014 17.3649 27.2514 17.3299ZM26.4264 17.4549C26.5114 17.5549 26.6214 17.6049 26.7864 17.6149C26.8214 17.6149 26.8864 17.6649 26.8064 17.6649C26.5764 17.6749 26.4614 17.6199 26.3614 17.4749C26.3414 17.4449 26.3814 17.4049 26.4264 17.4549ZM29.3264 16.2249C29.2564 16.2749 29.1664 16.3499 29.2264 16.4649L29.2464 16.4549C29.507 16.142 29.7379 15.8055 29.9364 15.4499V15.4149C29.8642 15.4765 29.7833 15.527 29.6964 15.5649C29.7264 15.6449 29.5764 15.7649 29.4964 15.7949C29.5264 15.8449 29.5164 15.9299 29.4464 15.9449C29.4614 15.9949 29.4064 15.9949 29.3464 16.0199C29.2764 16.0449 29.2464 16.0699 29.2214 16.0999C29.2564 16.0799 29.3064 16.0649 29.3314 16.0749C29.3614 16.0799 29.3664 16.1249 29.3164 16.1349C29.2664 16.1449 29.2364 16.1699 29.2164 16.1899C29.2914 16.1649 29.3914 16.1799 29.3214 16.2249H29.3264ZM24.5264 14.9949C24.6114 15.0499 24.7564 15.1449 24.9414 15.1299C25.0364 15.2049 25.1764 15.2649 25.2414 15.2799C25.1164 15.3299 24.9814 15.3749 24.9464 15.4149C24.8914 15.3649 24.8164 15.3649 24.7964 15.3399C24.7464 15.3899 24.7514 15.4149 24.7864 15.4349C24.9092 15.4737 25.0378 15.4906 25.1664 15.4849C25.2314 15.4649 25.2514 15.5199 25.1964 15.5349C25.0464 15.5899 24.7614 15.5399 24.6664 15.3849C24.5664 15.2299 24.4814 15.1699 24.2164 15.3149C24.1864 15.2349 24.1864 15.2149 24.1364 15.2149C24.0864 15.2149 23.9864 15.1499 24.0614 15.1549C24.1364 15.1549 24.3514 15.1249 24.5264 14.9949Z" fill="#7FB8C1"/>
<path d="M24.5917 15.3399C24.5467 15.3549 24.4217 15.4249 24.3717 15.4299C24.3267 15.4299 24.2467 15.4999 24.3317 15.4999C24.4167 15.4999 24.5217 15.4149 24.5817 15.3999C24.6417 15.3999 24.6467 15.3299 24.5917 15.3399ZM24.9517 15.5949V15.6699C24.9417 15.6899 24.9417 15.7149 24.9767 15.6899C25.0117 15.6599 25.0367 15.6299 25.0717 15.6449C25.1067 15.6649 25.1967 15.6649 25.2367 15.6599C25.2767 15.6549 25.2867 15.6449 25.2317 15.6199C25.1842 15.5997 25.1332 15.5895 25.0817 15.5899C25.0476 15.5918 25.0136 15.5867 24.9817 15.5749C24.9517 15.5649 24.9417 15.5699 24.9517 15.5949ZM26.2417 15.6049L26.2217 15.6449C26.3217 15.6449 26.5717 15.6649 26.6467 15.7149C26.7217 15.6549 26.7117 15.6349 26.7617 15.6449C26.8167 15.6599 26.8867 15.6749 26.9167 15.6599C26.9467 15.6449 26.9667 15.6449 27.0017 15.6549C27.0317 15.6549 27.1017 15.6449 27.1467 15.6199C27.1867 15.5949 27.2717 15.5649 27.3167 15.5649C27.3667 15.5649 27.4267 15.5549 27.3367 15.5399C27.2456 15.5322 27.1538 15.5424 27.0667 15.5699C27.0167 15.5849 26.8817 15.5949 26.8017 15.5949C26.7167 15.5949 26.6067 15.6349 26.5117 15.6099C26.4217 15.5899 26.2917 15.6049 26.2417 15.6049ZM27.7867 15.5649C27.9067 15.6249 28.1467 15.6699 28.3367 15.6649C28.3667 15.6649 28.4367 15.6949 28.3517 15.7049C28.1417 15.7249 27.9517 15.6949 27.7717 15.5949C27.7217 15.5699 27.7417 15.5449 27.7867 15.5649ZM27.9117 15.5649C28.0917 15.5599 28.2317 15.5649 28.2917 15.6149C28.3917 15.5799 28.5867 15.5649 28.6317 15.5699C28.6717 15.5799 28.7217 15.5599 28.6217 15.5349C28.5217 15.5099 28.2867 15.5049 28.2117 15.5199C28.1417 15.5299 27.9117 15.5399 27.8367 15.5299C27.8667 15.5349 27.8867 15.5399 27.9117 15.5649ZM28.6267 15.6349C28.7117 15.5899 28.9667 15.6349 29.0417 15.5999C28.9867 15.6649 29.2167 15.6699 29.4117 15.6199C29.3367 15.6699 29.1717 15.6749 29.1017 15.7049C29.0317 15.7349 28.9917 15.7149 28.9417 15.6899C28.8867 15.6649 28.7467 15.6199 28.6267 15.6399V15.6349Z" fill="#7FB8C1"/>
<path d="M29.4112 15.6199C29.2112 15.6699 28.9862 15.6699 29.0412 15.5999C28.9662 15.6349 28.7112 15.5899 28.6262 15.6349C28.7162 15.5849 28.7862 15.6249 28.8512 15.5149C28.8912 15.5249 28.9862 15.5299 29.0162 15.4849C29.0762 15.4999 29.1762 15.5249 29.2062 15.5549C29.2362 15.5799 29.2812 15.5449 29.2462 15.4999C29.3312 15.4649 29.2762 15.5349 29.4862 15.4849C29.5312 15.4749 29.6362 15.4549 29.6712 15.4549C29.5915 15.5201 29.5042 15.5755 29.4112 15.6199Z" fill="#7FB8C1"/>
<path d="M31.0544 9.84985C31.0444 13.2399 30.5044 16.8999 26.0844 18.6399C21.6594 16.8949 21.1194 13.2399 21.1094 9.84985H31.0544Z" stroke="black" stroke-width="0.1"/>
<path d="M23.0879 11.3749C23.0171 11.4716 22.9309 11.556 22.8329 11.6249C22.7329 11.6949 22.5979 11.7499 22.6729 11.8749C22.7429 11.9949 22.8029 12.0099 22.8179 12.1049C22.8329 12.1949 22.8529 12.2749 22.9279 12.2999C22.9979 12.3199 23.0279 12.3049 23.0279 12.4549C23.0279 12.6049 23.0279 12.6649 23.0929 12.7199C23.1579 12.7799 23.1529 12.8399 23.1779 12.9699C23.2079 13.1099 23.2079 13.4049 23.2979 13.6099C23.3829 13.8099 23.5779 14.1899 23.5579 14.2699C23.5329 14.3499 23.5079 14.4049 23.5929 14.4999C23.6779 14.5949 23.7429 14.7299 23.7429 14.8099C23.7529 14.8899 23.7679 14.9199 23.8529 14.8899C23.9143 14.8745 23.97 14.8415 24.0129 14.7949C24.0429 14.7599 24.1029 14.7649 24.1829 14.8099C24.2629 14.8549 24.3829 14.8949 24.4579 14.8549C24.5279 14.8049 24.5629 14.7449 24.6279 14.7449C24.7279 14.6749 24.7679 14.5199 24.7879 14.4799C24.8129 14.4349 24.7979 14.4349 24.7529 14.3899C24.7079 14.3499 24.7329 14.2749 24.7229 14.2049C24.7179 14.1349 24.6879 14.0249 24.6029 13.8649C24.5129 13.7099 24.4629 13.5149 24.4029 13.4649C24.3479 13.4149 24.3179 13.2899 24.3129 13.2349C24.3029 13.1749 24.2379 13.1249 24.1929 13.0849C24.1529 13.0349 24.1079 12.9749 24.0579 12.7199C24.0079 12.4699 23.9679 12.2899 23.9679 12.2449C23.9679 12.2049 23.9629 12.1949 23.9179 12.1849C23.8779 12.1699 23.8529 12.0949 23.8679 12.0599C23.8829 12.0249 23.8529 11.9899 23.8379 11.9449C23.8229 11.8999 23.8379 11.8249 23.8679 11.7799C23.8979 11.7349 23.8929 11.6149 23.8629 11.5149C23.8329 11.4149 23.8029 11.3249 23.6879 11.3149C23.5729 11.2949 23.5479 11.2649 23.5079 11.1749C23.4629 11.0799 23.4179 10.9149 23.4079 10.8749C23.3879 10.8449 23.3679 10.8349 23.2829 10.9099C23.1929 10.9799 23.1679 11.0049 23.1679 11.1399C23.1679 11.2249 23.1779 11.2549 23.2079 11.3049C23.2379 11.3549 23.2429 11.3699 23.2679 11.5049C23.2879 11.6449 23.4129 11.8549 23.2529 11.9799C23.0929 12.1049 23.1129 12.1299 23.1229 12.2199C23.1279 12.3049 23.0779 12.3599 23.0479 12.2399C23.0229 12.1199 23.0479 12.0449 23.1379 11.9899C23.2229 11.9299 23.3029 11.8599 23.2429 11.7799C23.1904 11.6705 23.1615 11.5512 23.1579 11.4299C23.1529 11.3399 23.1379 11.3099 23.0879 11.3799V11.3749Z" fill="#CFA763"/>
<path d="M21.7927 13.21C21.7927 13.27 21.8027 13.335 21.8077 13.385C21.8127 13.445 21.8277 13.57 21.7877 13.66C21.7377 13.755 21.7527 13.8 21.7877 13.83C21.8777 13.805 21.8877 13.705 21.8677 13.66C21.8427 13.61 21.8477 13.5449 21.8777 13.4949C21.9077 13.4449 21.9077 13.415 21.8777 13.38C21.8577 13.345 21.8577 13.3449 21.8877 13.2449C21.9127 13.1549 21.8477 13.155 21.7927 13.21ZM22.7227 14.61C22.7027 14.54 22.6427 14.295 22.6377 14.13C22.6377 13.97 22.5627 13.8399 22.4277 13.7149C22.3227 13.6149 22.2977 13.4649 22.2927 13.3449C22.2127 13.2949 22.1777 13.315 22.1877 13.405C22.1927 13.505 22.2877 13.5499 22.2777 13.6899C22.2627 13.8299 22.2627 13.7949 22.3277 13.8649C22.3977 13.9299 22.4277 13.9949 22.3877 14.0249C22.3527 14.0549 22.3477 14.1049 22.3977 14.1249C22.4477 14.1399 22.4527 14.1949 22.4477 14.2449C22.4377 14.2949 22.4877 14.3049 22.5177 14.3449C22.5427 14.3799 22.5477 14.4649 22.5177 14.5149C22.4927 14.5649 22.4877 14.645 22.5377 14.6C22.5877 14.56 22.6127 14.5999 22.6477 14.6649C22.6827 14.7249 22.7127 14.7049 22.7477 14.6899C22.7366 14.6625 22.7283 14.634 22.7227 14.605V14.61ZM22.2977 11.6099C22.2427 11.6099 22.2077 11.6599 22.2377 11.8249C22.2577 11.9249 22.1777 11.8999 22.1477 11.8499C22.1227 11.7999 22.0977 11.6949 22.0427 11.5999C21.9827 11.5049 22.0127 11.6649 22.0027 11.7499C21.9977 11.8349 22.0527 11.8349 22.1027 11.9099C22.1527 11.9799 22.1127 12.0099 22.0527 12.0099C21.9977 12.0099 22.0277 12.125 22.0427 12.205C22.0577 12.285 22.0277 12.2999 21.9827 12.2349C21.9377 12.1699 21.9677 12.0649 21.9777 11.9449C21.9827 11.8249 21.9927 11.8499 21.9127 11.8249C21.8327 11.7949 21.8427 11.775 21.8727 11.705C21.9027 11.635 21.9327 11.6 21.8977 11.565C21.8577 11.53 21.8677 11.5049 21.9227 11.4999C21.9827 11.4899 21.9627 11.4499 22.0127 11.4349C22.0627 11.4199 22.0827 11.4399 22.0927 11.3499C22.0977 11.2699 22.1227 11.2199 22.1827 11.2499C22.2177 11.3649 22.2627 11.5499 22.2977 11.6099ZM23.6227 12.8999C23.6427 12.7449 23.6277 12.585 23.6927 12.53C23.7577 12.47 23.8427 12.3549 23.8327 12.5999C23.8227 12.8449 23.8177 12.8299 23.7677 12.8899C23.7177 12.9449 23.6727 12.96 23.7227 13.055C23.7727 13.145 23.7827 13.1549 23.7727 13.2999C23.7677 13.4399 23.7677 13.4999 23.8227 13.5699C23.8827 13.6449 23.8977 13.65 23.9127 13.73C23.9307 13.8227 23.976 13.908 24.0427 13.9749C24.1077 14.0299 24.1827 14.1999 24.1877 14.3149C24.1927 14.4299 24.2977 14.455 24.3877 14.535C24.4877 14.615 24.3677 14.675 24.2977 14.635C24.2227 14.6 24.2527 14.635 24.2077 14.685C24.1677 14.735 24.1527 14.745 24.1127 14.66C24.0777 14.57 23.9577 14.5099 23.8977 14.4949C23.8377 14.4699 23.7877 14.38 23.7377 14.285C23.7173 14.2449 23.6876 14.2104 23.651 14.1843C23.6145 14.1582 23.5722 14.1413 23.5277 14.135C23.5527 14.2 23.5627 14.2449 23.5577 14.2699C23.5327 14.3499 23.5077 14.405 23.5927 14.5C23.6777 14.5949 23.7427 14.73 23.7427 14.81C23.7527 14.89 23.7677 14.9199 23.8527 14.8899C23.9142 14.8746 23.9698 14.8415 24.0127 14.7949C24.0427 14.7599 24.1027 14.765 24.1827 14.81C24.2627 14.855 24.3827 14.895 24.4577 14.855C24.5277 14.805 24.5627 14.7449 24.6277 14.7449C24.7277 14.6749 24.7677 14.52 24.7877 14.48C24.8127 14.435 24.7977 14.4349 24.7527 14.3899C24.7077 14.3499 24.7327 14.275 24.7227 14.205C24.7177 14.135 24.6877 14.0249 24.6027 13.8649C24.5127 13.7099 24.4627 13.5149 24.4027 13.4649C24.3477 13.4149 24.3177 13.29 24.3127 13.235C24.3027 13.175 24.2377 13.125 24.1927 13.085C24.1527 13.035 24.1077 12.9749 24.0577 12.7199L23.9727 12.2949C23.9227 12.3749 23.8877 12.3949 23.8727 12.3449C23.8477 12.2749 23.8177 12.2399 23.7877 12.2849C23.7577 12.3249 23.7527 12.2449 23.7527 12.2099C23.7527 12.1749 23.7477 12.1699 23.7077 12.1699C23.6727 12.1699 23.7027 12.11 23.6877 12.005C23.6727 11.895 23.6527 11.8799 23.6377 12.0099C23.6227 12.1399 23.5477 12.2199 23.5777 12.2449C23.6077 12.2749 23.5927 12.3349 23.5627 12.4199C23.5512 12.4515 23.5462 12.485 23.5479 12.5185C23.5496 12.552 23.5581 12.5848 23.5727 12.615C23.5927 12.67 23.5577 12.7799 23.5427 12.8749C23.5277 12.9649 23.6027 13.0599 23.6227 12.8999ZM23.0227 12.455C23.0227 12.605 23.0227 12.6649 23.0927 12.7199C23.1577 12.7799 23.1527 12.8349 23.1777 12.9699C23.2077 13.1099 23.2077 13.405 23.2977 13.61L23.3977 13.8249C23.4427 13.7849 23.4827 13.725 23.4977 13.685C23.5227 13.635 23.4577 13.5349 23.4027 13.4499C23.3527 13.3649 23.4127 13.3349 23.4627 13.2249C23.5127 13.1199 23.4577 13.11 23.3777 13.08C23.2977 13.055 23.2977 12.9799 23.2527 12.8649C23.2077 12.7499 23.2177 12.6999 23.2427 12.6349C23.2727 12.5699 23.2527 12.52 23.1927 12.505C23.1377 12.49 23.1527 12.4499 23.1727 12.3749C23.1927 12.3049 23.2077 12.2899 23.1227 12.3099C23.0577 12.3299 23.0377 12.3399 23.0227 12.3599V12.455Z" fill="#D7C99C"/>
<path d="M24.395 12.4L24.22 14.3M24.92 13.56C24.8444 13.8965 24.756 14.2301 24.655 14.56M27.19 12.645C27.325 12.77 27.5 12.795 27.695 12.895M28.065 13.49L27.965 14.22M27.965 13.52L27.795 14.27M24.8 13.585C24.72 13.9 24.61 14.185 24.505 14.475" stroke="black" stroke-width="0.025"/>
<path d="M28.5694 15.35C28.5645 15.352 28.5595 15.3537 28.5544 15.355C28.5494 15.3552 28.5444 15.3552 28.5394 15.355H28.5244C28.5194 15.3565 28.5144 15.3582 28.5094 15.36C28.5044 15.3597 28.4994 15.3597 28.4944 15.36C28.4892 15.361 28.4842 15.3627 28.4794 15.365C28.4754 15.3676 28.472 15.371 28.4694 15.375C28.4653 15.3775 28.4619 15.3809 28.4594 15.385C28.4563 15.3901 28.453 15.3951 28.4494 15.4L28.4394 15.41C28.4343 15.4166 28.4293 15.4232 28.4244 15.43L28.4194 15.435C28.4159 15.4382 28.4126 15.4415 28.4094 15.445L28.4044 15.455C28.366 15.4874 28.3192 15.5082 28.2694 15.515C28.2182 15.5251 28.1656 15.5251 28.1144 15.515C28.0444 15.515 27.9744 15.51 27.9344 15.48C27.8844 15.455 27.8244 15.475 27.7844 15.495C27.7544 15.51 27.7494 15.545 27.7144 15.55C27.6944 15.58 27.6044 15.575 27.5644 15.565C27.4894 15.57 27.4394 15.545 27.3794 15.525C27.3444 15.5 27.2794 15.48 27.2394 15.525C27.2144 15.55 27.1744 15.57 27.1294 15.575C27.0544 15.575 26.9644 15.59 26.9044 15.56C26.8394 15.555 26.8194 15.52 26.7544 15.5C26.6894 15.49 26.6594 15.525 26.6144 15.54C26.5794 15.57 26.5244 15.575 26.4544 15.57C26.3844 15.57 26.3044 15.58 26.2544 15.55C26.2044 15.55 26.1644 15.515 26.1194 15.495C26.0794 15.46 26.0044 15.495 25.9694 15.515C25.9044 15.525 25.8844 15.57 25.8044 15.565C25.7394 15.56 25.6994 15.53 25.6394 15.515C25.5844 15.49 25.5394 15.45 25.4494 15.455C25.4194 15.49 25.3644 15.505 25.3044 15.505C25.2544 15.505 25.2044 15.505 25.1644 15.495C25.0594 15.495 25.0094 15.38 24.9344 15.32L24.5494 14.95C24.5694 14.885 24.5794 14.87 24.5444 14.825C24.5544 14.76 24.5094 14.75 24.5294 14.685C24.5594 14.635 24.4794 14.64 24.4594 14.615C24.4094 14.605 24.3944 14.57 24.3494 14.555L24.2344 14.49L24.1244 14.435C24.0994 14.41 24.0594 14.395 24.0344 14.37L23.9494 14.3C23.9144 14.29 23.8944 14.26 23.8594 14.245C23.8344 14.22 23.7944 14.195 23.7594 14.18C23.7144 14.165 23.6744 14.13 23.6194 14.12C23.5844 14.12 23.5744 14.04 23.6394 14.045C23.6894 14.045 23.7144 14.075 23.7494 14.095C23.8044 14.115 23.8594 14.145 23.9244 14.155L24.0394 14.205C24.0794 14.235 24.1294 14.24 24.1744 14.27C24.2194 14.29 24.2744 14.31 24.2944 14.335C24.3344 14.35 24.3544 14.375 24.3944 14.39C24.4044 14.405 24.4344 14.415 24.4594 14.44C24.4944 14.45 24.5294 14.465 24.5594 14.49C24.5944 14.51 24.6144 14.515 24.6444 14.54C24.6744 14.55 24.8844 14.655 24.8744 14.64C25.0794 14.68 25.1744 14.69 25.3744 14.725L26.8794 14.745L27.4244 14.52L27.5894 14.255L28.3944 14.11C28.3794 14.095 29.8044 14.06 29.8344 14.18C29.8494 14.23 29.8844 14.33 29.8394 14.355C29.8094 14.37 28.4894 14.19 28.4744 14.305C28.4644 14.355 28.4744 14.68 28.4844 14.73L28.5044 14.88L28.5294 15.04L28.5494 15.19L28.5694 15.35Z" fill="#666666"/>
<path d="M24.49 13.3299C24.25 13.6049 24.01 13.8249 23.75 14.0349M25.825 12.2049L26.61 11.5299M25.475 12.8749C25.63 12.9849 25.805 13.0799 26.045 13.1399M25.365 11.8499C25.465 11.9999 25.575 12.1499 25.915 12.2449M25.14 10.3099C25.0068 10.4733 24.8373 10.6034 24.645 10.6899M25.425 11.2599C25.5496 11.3646 25.6942 11.4428 25.85 11.4899M25.425 13.6149C25.4879 13.9566 25.5663 14.2953 25.66 14.6299" stroke="black" stroke-width="0.025"/>
<path d="M25.3604 14.6249C25.7654 14.2049 26.1104 13.7599 26.3404 13.2449M27.1704 11.7399C27.3004 11.8749 27.4354 11.9799 27.6454 12.0399M27.7354 11.2399C27.8454 11.4399 27.9803 11.5849 28.1053 11.7449M26.5304 10.6199C26.5204 10.8199 26.4004 11.0149 26.3154 11.1849" stroke="black" stroke-width="0.025"/>
<path d="M26.8151 10.7149C26.6651 10.8799 26.5301 11.0499 26.3301 11.1499M26.8401 10.0149C26.7306 10.0892 26.6132 10.1513 26.4901 10.1999M28.3201 11.5099C28.2001 11.6549 28.0801 11.8199 27.8851 11.9449M28.3451 12.6949C28.1901 12.8449 28.0501 13.0149 27.8751 13.1249M28.3701 14.1149C28.6751 13.9549 28.9551 13.7549 29.2301 13.5399C29.0051 13.7599 28.7701 13.9799 28.5201 14.1399M28.4401 11.5399C28.4901 11.6699 28.6051 11.8149 28.7201 11.9049" stroke="black" stroke-width="0.025"/>
<path d="M28.275 10.2499L28.25 14.1449L28.535 14.1299L28.415 10.2349L28.275 10.2499Z" fill="#BCA76B" stroke="#472B1F" stroke-width="0.02"/>
<path d="M28.4641 15.2701L28.6191 15.4001C28.7541 15.5201 28.8291 15.5201 29.0091 15.4001C29.0741 15.4101 29.1391 15.4501 29.2091 15.4351C29.2791 15.4351 29.3441 15.4201 29.4041 15.4101C29.4741 15.3901 29.4891 15.3051 29.5141 15.2401C29.5491 15.1751 29.5791 15.0901 29.6341 15.0351C29.6991 14.9851 29.7691 14.9451 29.8141 14.8751C29.8641 14.8201 29.8641 14.7401 29.8491 14.6651L29.8341 14.4651C29.8241 14.3701 29.8991 14.3051 29.8841 14.2151C29.8491 14.1801 29.7741 14.1651 29.7191 14.1501C29.6155 14.1259 29.5102 14.1092 29.4041 14.1001L29.1391 14.0851L28.8891 14.0701C28.7891 14.0701 28.6891 14.0651 28.5991 14.0751C28.5341 14.0901 28.4491 14.0851 28.3891 14.1151C28.3678 14.1797 28.356 14.2471 28.3541 14.3151L28.3391 14.4951C28.3391 14.6101 28.3241 14.7201 28.3591 14.8251L28.4091 15.0851C28.4091 15.1551 28.4091 15.2201 28.4591 15.2701H28.4641Z" fill="#333333" stroke="black" stroke-width="0.065"/>
<path d="M28.7891 13.375L29.1791 14.1M29.7541 14.135C29.6441 14.015 29.5541 13.875 29.4841 13.71" stroke="black" stroke-width="0.025"/>
<path d="M29.7244 13.0099L29.8544 13.0999H29.8594C29.8194 13.0649 29.7794 13.0199 29.7244 13.0099ZM29.4594 13.0449L29.4444 13.0499L29.2644 13.7499L29.4594 13.0449ZM30.3094 13.0749C30.2644 13.0749 30.2244 13.0949 30.1794 13.1149L30.2544 13.0899L30.3544 13.0749C30.3378 13.0734 30.321 13.0734 30.3044 13.0749H30.3094ZM29.4794 13.7099L29.4444 13.7149C29.4762 13.7144 29.5074 13.7231 29.5344 13.7399L29.4794 13.7099ZM29.5494 13.7449C29.5994 13.7749 29.6344 13.8099 29.6894 13.8249L29.5494 13.7449ZM29.9644 13.7849L29.7244 13.8349C29.8094 13.8349 29.8844 13.8049 29.9644 13.7849Z" fill="#472B1F"/>
<path d="M29.4644 12.9999L29.2644 13.7499L29.4794 13.7049L29.7044 13.8349L30.0444 13.7649L30.2194 13.7899C30.2694 13.5499 30.2544 13.2699 30.3944 13.0649L30.2544 13.0899L30.0294 13.1649L29.8494 13.0999L29.7094 12.9999H29.4644Z" fill="white"/>
<path d="M29.795 13.095C29.75 13.1603 29.7224 13.236 29.715 13.315L29.565 13.27H29.395V13.275L29.345 13.455C29.345 13.455 29.48 13.435 29.545 13.445C29.585 13.45 29.665 13.495 29.665 13.495L29.6 13.775L29.645 13.8L29.735 13.825L29.775 13.82C29.795 13.72 29.81 13.62 29.85 13.55C29.85 13.55 29.99 13.585 30.065 13.58L30.255 13.565L30.28 13.385C30.255 13.39 30.135 13.42 30.07 13.415C30.0123 13.4009 29.9567 13.3791 29.905 13.35C29.92 13.29 29.945 13.23 29.975 13.165L29.795 13.095Z" fill="#C8102E"/>
<path d="M29.3203 13C29.2253 12.75 29.1153 12.345 29.0703 12.02" stroke="black" stroke-width="0.035"/>
<path d="M29.3996 13.06C29.3996 13.06 29.6196 13.01 29.7146 13.025C29.8146 13.045 29.8696 13.155 29.9746 13.175C30.0896 13.19 30.1846 13.085 30.3046 13.075L30.4696 13.09L30.3896 13.365L30.3246 13.595V13.8C30.3246 13.8 30.1396 13.75 30.0396 13.77C29.9146 13.78 29.8196 13.845 29.6996 13.835C29.6096 13.815 29.5696 13.74 29.4746 13.72C29.4096 13.7 29.2246 13.75 29.2246 13.75L29.3996 13.06Z" stroke="#472B1F" stroke-width="0.065"/>
<path d="M29.4403 13.05L29.3503 13.055L29.0703 14.055L29.2003 14.065L29.4403 13.05Z" fill="#BCA76B" stroke="#472B1F" stroke-width="0.015"/>
<path d="M29.3503 13.055C29.3103 13.035 29.2853 12.97 29.3003 12.93C29.3253 12.88 29.4003 12.875 29.4503 12.89C29.5053 12.905 29.5803 12.96 29.5603 13.015C29.5403 13.08 29.4103 13.09 29.3503 13.055Z" fill="#BCA76B" stroke="#472B1F" stroke-width="0.015"/>
<path d="M30.3847 13.08C30.2497 13.28 30.2597 13.545 30.2097 13.78L30.3247 13.8V13.6L30.3947 13.365L30.4697 13.095L30.3847 13.08Z" fill="#472B1F"/>
<path d="M28.77 12.265C28.915 12.365 29.055 12.615 29.255 12.815M29.035 11.9C28.9204 11.5608 28.8531 11.2075 28.835 10.85M28.625 13.51L28.845 14.09M28.845 10.575C28.65 10.525 28.47 10.395 28.445 10.285M27.595 10.765C27.72 10.775 28.155 10.455 28.22 10.285M28.7 13.425L29.005 14.075M28.675 13.645L28.9 13.565M28.715 13.765L28.95 13.665M28.81 14.015L29.07 13.905M28.545 12.73L28.86 13.065M27.885 13.54L27.67 14.265M27.825 13.7H28.045M27.775 13.88L28.025 13.885M27.715 14.065L27.99 14.115" stroke="black" stroke-width="0.025"/>
<path d="M28.4385 10.1499C28.3885 10.1349 28.2485 10.1299 28.1935 10.1749C28.1685 10.1949 28.1935 10.2749 28.2285 10.2749C28.2985 10.2749 28.3935 10.2749 28.4285 10.2599C28.4535 10.2349 28.4735 10.1599 28.4385 10.1499Z" fill="#BCA76B" stroke="#472B1F" stroke-width="0.02"/>
<path d="M27.6482 10.7599C27.7432 11.1399 28.1432 11.0749 28.1282 10.7299L27.6482 10.7599Z" fill="#BCA76B"/>
<path d="M27.6482 10.7599C27.7432 11.1399 28.1432 11.0749 28.1282 10.7299" stroke="#472B1F" stroke-width="0.025"/>
<path d="M28.0183 10.7398C28.1433 11.1798 28.6683 11.1098 28.6433 10.7098L28.0183 10.7398Z" fill="#BCA76B"/>
<path d="M28.0183 10.7398C28.1433 11.1798 28.6683 11.1098 28.6433 10.7098" stroke="#472B1F" stroke-width="0.035"/>
<path d="M28.4637 10.7348C28.5837 11.0548 28.7487 10.9948 28.9487 10.6998L28.4637 10.7348ZM29.0637 10.5848L27.5837 10.6698V10.7698L29.0837 10.6898L29.0637 10.5848ZM27.6987 12.0698C27.7987 12.4798 28.2137 12.4198 28.1987 12.0398L27.6987 12.0698Z" fill="#BCA76B"/>
<path d="M28.4637 10.7348C28.5837 11.0548 28.7487 10.9948 28.9487 10.6998M27.6987 12.0698C27.7987 12.4798 28.2137 12.4198 28.1987 12.0398M29.0637 10.5848L27.5837 10.6698V10.7698L29.0837 10.6898L29.0637 10.5848Z" stroke="#472B1F" stroke-width="0.025"/>
<path d="M28.0886 12.0499C28.2086 12.5349 28.7536 12.4599 28.7336 12.0299L28.0886 12.0499Z" fill="#BCA76B"/>
<path d="M28.0886 12.0499C28.2086 12.5349 28.7536 12.4599 28.7336 12.0299" stroke="#472B1F" stroke-width="0.035"/>
<path d="M28.5484 12.05C28.6684 12.4 28.8384 12.335 29.0534 12.02L28.5484 12.05ZM29.1734 11.9L27.6384 11.96V12.07L29.1884 12.015L29.1734 11.9ZM27.6634 13.245C27.7634 13.675 28.1884 13.605 28.1734 13.21L27.6634 13.245Z" fill="#BCA76B"/>
<path d="M28.5484 12.05C28.6684 12.4 28.8384 12.335 29.0534 12.02M27.6634 13.245C27.7634 13.675 28.1884 13.605 28.1734 13.21M29.1734 11.9L27.6384 11.96V12.07L29.1884 12.015L29.1734 11.9Z" stroke="#472B1F" stroke-width="0.025"/>
<path d="M28.0583 13.2298C28.1583 13.8648 28.7484 13.6348 28.7184 13.1798L28.0583 13.2298Z" fill="#BCA76B"/>
<path d="M28.0583 13.2298C28.1583 13.8648 28.7484 13.6348 28.7184 13.1798" stroke="#472B1F" stroke-width="0.035"/>
<path d="M28.5291 13.2149C28.6641 13.5749 28.8391 13.5049 29.0491 13.1749L28.5291 13.2149Z" fill="#BCA76B"/>
<path d="M28.5291 13.2149C28.6641 13.5749 28.8391 13.5049 29.0491 13.1749" stroke="#472B1F" stroke-width="0.035"/>
<path d="M29.1734 13.0499L27.5984 13.1399V13.2499L29.1884 13.1649L29.1734 13.0499Z" fill="#BCA76B" stroke="#472B1F" stroke-width="0.025"/>
<path d="M28.6482 11.3448L28.0632 11.3598V11.5098L28.6532 11.5048L28.6482 11.3448ZM28.6482 12.5798L28.0682 12.5948V12.7448L28.6582 12.7398L28.6482 12.5798Z" fill="#BCA76B" stroke="#472B1F" stroke-width="0.015"/>
<path d="M27.185 13.2549L27.62 14.2949M25 13.5849C24.95 13.9099 24.875 14.3249 24.79 14.6399" stroke="black" stroke-width="0.035"/>
<path d="M29.845 14.2149C29.4091 14.1265 28.9624 14.1046 28.52 14.1499C28.23 14.1699 27.935 14.1799 27.665 14.2649C27.625 14.2799 27.585 14.2949 27.56 14.3149C27.48 14.3899 27.475 14.5149 27.41 14.5999C27.345 14.6849 27.11 14.8249 27.015 14.8849C26.39 14.8949 25.69 14.8849 24.9 14.7699L24.8 14.6449L24.75 14.5999L24.87 14.6499H25.15L25.835 14.6299C25.835 14.6299 26.41 14.6299 26.695 14.6149L27.185 14.5749C27.22 14.5749 27.26 14.5749 27.285 14.5549C27.335 14.5249 27.35 14.4649 27.385 14.4099C27.415 14.3699 27.435 14.3099 27.485 14.2799C27.605 14.1949 27.765 14.1999 27.895 14.1749C28.06 14.1399 28.205 14.1349 28.37 14.1099L28.93 14.0599C29.05 14.0599 29.175 14.0499 29.295 14.0599C29.475 14.0699 29.68 14.0599 29.84 14.1499C29.87 14.1599 29.925 14.1949 29.905 14.2249C29.89 14.2449 29.865 14.2149 29.84 14.2149H29.845Z" fill="black" stroke="black" stroke-width="0.02"/>
<path d="M26.9752 10.0149C27.0702 10.0899 27.2402 10.1499 27.4102 10.1749M26.7802 12.6499C26.5802 12.7949 26.3752 12.8899 26.1602 12.9599M27.3352 14.4999L26.9902 13.5999M27.0602 13.3049L27.4602 14.3349M27.0102 13.5699L27.2752 13.4799" stroke="black" stroke-width="0.025"/>
<path d="M26.83 9.87988L26.75 14.6699L27.035 14.6549L26.985 9.88488L26.83 9.87988Z" fill="#BCA76B" stroke="#472B1F" stroke-width="0.02"/>
<path d="M27.1746 10.6199C27.2846 10.8349 27.4596 10.9999 27.7196 11.1199" stroke="black" stroke-width="0.035"/>
<path d="M26.2419 10.33C26.3319 10.74 26.7569 10.68 26.7419 10.3L26.2419 10.33Z" fill="#BCA76B"/>
<path d="M26.2419 10.33C26.3319 10.74 26.7569 10.68 26.7419 10.3" stroke="#472B1F" stroke-width="0.025"/>
<path d="M26.6316 10.315C26.7466 10.795 27.2916 10.72 27.2716 10.29L26.6316 10.315Z" fill="#BCA76B"/>
<path d="M26.6316 10.315C26.7466 10.795 27.2916 10.72 27.2716 10.29" stroke="#472B1F" stroke-width="0.035"/>
<path d="M27.0875 10.315C27.2075 10.665 27.4175 10.695 27.5975 10.28L27.0875 10.315ZM27.7225 10.155L26.1775 10.225V10.335L27.7325 10.27L27.7225 10.155ZM26.2425 11.295C26.3325 11.705 26.7575 11.645 26.7425 11.265L26.2425 11.295Z" fill="#BCA76B"/>
<path d="M27.0875 10.315C27.2075 10.665 27.4175 10.695 27.5975 10.28M26.2425 11.295C26.3325 11.705 26.7575 11.645 26.7425 11.265M27.7225 10.155L26.1775 10.225V10.335L27.7325 10.27L27.7225 10.155Z" stroke="#472B1F" stroke-width="0.025"/>
<path d="M26.6316 11.2801C26.7466 11.7601 27.2916 11.6851 27.2716 11.2551L26.6316 11.2801Z" fill="#BCA76B"/>
<path d="M26.6316 11.2801C26.7466 11.7601 27.2916 11.6851 27.2716 11.2551" stroke="#472B1F" stroke-width="0.035"/>
<path d="M27.0875 11.2801C27.2075 11.6301 27.5625 11.5701 27.5975 11.2451L27.0875 11.2801ZM27.7225 11.1201L26.1775 11.1901V11.3001L27.7325 11.2351L27.7225 11.1201Z" fill="#BCA76B"/>
<path d="M27.0875 11.2801C27.2075 11.6301 27.5625 11.5701 27.5975 11.2451M27.7225 11.1201L26.1775 11.1901V11.3001L27.7325 11.2351L27.7225 11.1201Z" stroke="#472B1F" stroke-width="0.025"/>
<path d="M26.6989 11.825C26.5639 11.92 26.4389 12.025 26.2539 12.085" stroke="black" stroke-width="0.035"/>
<path d="M26.1973 12.2C26.2873 12.61 26.7073 12.55 26.6973 12.175L26.1973 12.2Z" fill="#BCA76B"/>
<path d="M26.1973 12.2C26.2873 12.61 26.7073 12.55 26.6973 12.175" stroke="#472B1F" stroke-width="0.025"/>
<path d="M26.583 12.1802C26.703 12.6652 27.248 12.5952 27.233 12.1602L26.583 12.1802Z" fill="#BCA76B"/>
<path d="M26.583 12.1802C26.703 12.6652 27.248 12.5952 27.233 12.1602" stroke="#472B1F" stroke-width="0.035"/>
<path d="M27.0428 12.18C27.1628 12.53 27.4778 12.42 27.5478 12.155L27.0428 12.18ZM27.6728 12.03L26.1328 12.095V12.205L27.6878 12.14L27.6728 12.03Z" fill="#BCA76B"/>
<path d="M27.0428 12.18C27.1628 12.53 27.4778 12.42 27.5478 12.155M27.6728 12.03L26.1328 12.095V12.205L27.6878 12.14L27.6728 12.03Z" stroke="#472B1F" stroke-width="0.025"/>
<path d="M26.3941 13.2899C26.3541 13.7649 26.1641 14.1899 26.0391 14.6399M26.5641 13.2949C26.5241 13.7549 26.3791 14.1849 26.2641 14.6199M26.7091 13.2549C26.6682 13.7136 26.5913 14.1683 26.4791 14.6149" stroke="black" stroke-width="0.025"/>
<path d="M26.2161 13.0649C26.3061 13.4799 26.7261 13.4199 26.7161 13.0399L26.2161 13.0649Z" fill="#BCA76B"/>
<path d="M26.2161 13.0649C26.3061 13.4799 26.7261 13.4199 26.7161 13.0399" stroke="#472B1F" stroke-width="0.025"/>
<path d="M26.6008 13.05C26.7208 13.53 27.2658 13.46 27.2458 13.025L26.6008 13.05Z" fill="#BCA76B"/>
<path d="M26.6008 13.05C26.7208 13.53 27.2658 13.46 27.2458 13.025" stroke="#472B1F" stroke-width="0.035"/>
<path d="M27.0606 13.0499C27.1806 13.3999 27.4906 13.3349 27.5656 13.0199L27.0606 13.0499ZM27.6906 12.8949L26.1506 12.9599V13.0699L27.7006 13.0049L27.6906 12.8949Z" fill="#BCA76B"/>
<path d="M27.0606 13.0499C27.1806 13.3999 27.4906 13.3349 27.5656 13.0199M27.6906 12.8949L26.1506 12.9599V13.0699L27.7006 13.0049L27.6906 12.8949Z" stroke="#472B1F" stroke-width="0.025"/>
<path d="M27.2006 10.7999L26.6506 10.8249V10.9749H27.2006V10.7999ZM27.1806 11.7399L26.6856 11.7499V11.8899H27.1806V11.7399ZM27.2056 12.6449L26.6806 12.6649V12.8099H27.2106L27.2056 12.6449Z" fill="#BCA76B" stroke="#472B1F" stroke-width="0.015"/>
<path d="M26.3853 13.465L26.6703 13.52M26.3203 13.73L26.6503 13.74M26.2653 13.925L26.6103 14.025M26.1753 14.225L26.5753 14.21M26.1003 14.475L26.5253 14.465M26.0053 13.28C25.9553 13.765 26.2703 14.225 26.4253 14.63M27.3003 14.38L27.5703 14.295M27.2353 14.23L27.5403 14.1M27.1403 14L27.4553 13.905M27.0653 13.78L27.3753 13.7" stroke="black" stroke-width="0.025"/>
<path d="M25.3999 15.4849C25.3599 15.4849 25.3249 15.4699 25.2899 15.4649L25.1899 15.4299C25.1499 15.4099 25.1199 15.3849 25.0899 15.3649C25.0598 15.3439 25.0314 15.3205 25.0049 15.2949L24.9049 15.1999L24.8149 15.0999C24.7849 15.0699 24.7499 15.0399 24.7249 15.0049C24.6999 14.9799 24.6949 14.9299 24.6749 14.9049C24.6349 14.8949 24.5799 14.8899 24.5749 14.8349C24.5649 14.8049 24.5599 14.7699 24.5249 14.7749C24.5049 14.7749 24.4999 14.7999 24.5099 14.7849C24.4899 14.7749 24.4949 14.8199 24.4949 14.7949L24.4699 14.8449C24.4549 14.8849 24.4549 14.9199 24.4999 14.9249C24.5399 14.9299 24.5499 14.9749 24.5849 14.9949C24.6099 15.0249 24.6449 15.0599 24.6799 15.0849L24.7549 15.1849C24.7699 15.2149 24.8049 15.2349 24.8299 15.2599L24.8949 15.3449L24.9849 15.4199L25.0749 15.4699C25.1049 15.4849 25.1349 15.5049 25.1749 15.5149C25.2099 15.5349 25.2549 15.5299 25.2999 15.5349C25.3399 15.5349 25.3799 15.5349 25.4149 15.5099C25.4499 15.4849 25.4149 15.4899 25.3949 15.4849H25.3999ZM27.6399 14.3949C27.5857 14.5369 27.508 14.6688 27.4099 14.7849C27.7399 14.8499 28.0049 14.7599 28.2999 14.7099C28.2699 14.5799 28.2699 14.4399 28.2799 14.2949C28.0449 14.3199 27.8799 14.3749 27.6399 14.3949Z" fill="black"/>
<path d="M27.6694 14.43C27.6294 14.535 27.5944 14.645 27.5144 14.735C27.7844 14.795 28.0044 14.71 28.2494 14.665C28.1994 14.565 28.2144 14.465 28.2294 14.355C28.0394 14.375 27.8644 14.405 27.6694 14.43Z" fill="#333333"/>
<path d="M24.8242 14.91L25.7792 14.98C26.5492 15.005 27.4292 14.97 28.1892 14.88C28.2192 14.88 28.2742 14.87 28.2842 14.9C28.2942 14.935 28.2442 14.98 28.2092 14.985C27.3342 15.1 26.4492 15.055 25.5692 15.05L25.0492 14.995L24.8242 14.91Z" fill="black"/>
<path d="M25.1743 12.7649C24.9243 12.9549 24.6843 13.1449 24.4043 13.2549M25.2093 11.8599C24.9843 12.0249 24.7593 12.2249 24.5243 12.3199" stroke="black" stroke-width="0.035"/>
<path d="M25.13 10.2149L25.125 14.6899L25.37 14.6699L25.225 10.1899L25.13 10.2149Z" fill="#BCA76B" stroke="#472B1F" stroke-width="0.02"/>
<path d="M25.2246 10.1899C25.4246 10.4099 25.5846 10.5299 25.7496 10.6699" stroke="black" stroke-width="0.035"/>
<path d="M25.2894 10.0599C25.2394 10.0349 25.1044 10.0299 25.0544 10.0949C25.0244 10.1249 25.0494 10.2399 25.0844 10.2399C25.1544 10.2399 25.2444 10.2449 25.2744 10.2149C25.3044 10.1849 25.3244 10.0799 25.2894 10.0649V10.0599Z" fill="#BCA76B" stroke="#472B1F" stroke-width="0.025"/>
<path d="M25.1497 15.2649C25.1547 15.2299 25.1847 15.2149 25.2197 15.2149C25.2597 15.2149 25.3097 15.2049 25.3347 15.2199L25.4047 15.2549L25.4697 15.3049C25.5497 15.3299 25.5097 15.2399 25.5547 15.2349C25.5947 15.2349 25.6347 15.2199 25.6647 15.2349C25.6947 15.2399 25.7097 15.2649 25.7247 15.2849L25.7697 15.3249C25.7747 15.3499 25.8647 15.3899 25.8697 15.3349C25.8847 15.2999 25.8747 15.2349 25.9347 15.2399C26.0047 15.2399 26.0547 15.2549 26.1197 15.2599C26.1497 15.2749 26.1747 15.2799 26.2047 15.3099C26.2297 15.3199 26.2247 15.3499 26.2447 15.3449C26.3097 15.3949 26.2947 15.3099 26.3147 15.2799C26.3297 15.2549 26.3747 15.2649 26.3947 15.2449C26.4347 15.2349 26.4747 15.2199 26.5247 15.2249L26.6147 15.2749C26.6297 15.2899 26.6547 15.3099 26.6647 15.3399C26.6697 15.3699 26.6997 15.3949 26.7247 15.3699C26.7397 15.3399 26.7647 15.3399 26.7897 15.3199C26.8147 15.3199 26.8347 15.2999 26.8497 15.2799C26.8647 15.2799 26.8797 15.2449 26.8997 15.2299C26.9247 15.2099 26.9747 15.2149 27.0197 15.2099C27.0697 15.2249 27.1097 15.2299 27.1347 15.2499C27.1497 15.2649 27.1597 15.2899 27.1847 15.2999C27.1997 15.3249 27.2347 15.2999 27.2547 15.2899L27.3247 15.2499C27.3447 15.2299 27.3747 15.2149 27.4197 15.2149C27.4697 15.2099 27.4947 15.2349 27.5297 15.2399C27.5697 15.2549 27.6097 15.2599 27.6297 15.2799C27.6597 15.2999 27.6947 15.3149 27.7197 15.2899C27.7547 15.2899 27.7297 15.2249 27.7397 15.2099C27.7797 15.1799 27.8747 15.1799 27.9247 15.1999C27.9649 15.1979 28.0053 15.2013 28.0447 15.2099C28.0697 15.2149 28.0747 15.2449 28.0847 15.2699C28.0997 15.2949 28.1747 15.2949 28.1997 15.2749C28.2197 15.2749 28.1947 15.2399 28.1847 15.2299C28.1679 15.2164 28.1542 15.1993 28.1447 15.1799C28.1797 15.1599 28.1947 15.1949 28.2297 15.1999C28.2447 15.2149 28.2697 15.2199 28.2897 15.2399C28.3197 15.2499 28.3397 15.2649 28.3897 15.2599C28.4297 15.2749 28.4147 15.3349 28.3647 15.3199C28.3297 15.3349 28.2697 15.3199 28.2297 15.3249H28.0197C27.9847 15.3349 27.9297 15.3299 27.8897 15.3399C27.8447 15.3399 27.8147 15.3499 27.7697 15.3449C27.7197 15.3549 27.6697 15.3499 27.6197 15.3499C27.5797 15.3599 27.5397 15.3599 27.4947 15.3649C27.4547 15.3649 27.4197 15.3749 27.3747 15.3699C27.3147 15.3849 27.2397 15.3699 27.1747 15.3749C27.1297 15.3849 27.0947 15.3849 27.0597 15.3849L26.9347 15.3949C26.8847 15.3949 26.8497 15.4049 26.8047 15.3999C26.7297 15.4149 26.6547 15.3999 26.5797 15.4049C26.5397 15.3999 26.4947 15.4049 26.4547 15.3949H26.3497C26.3197 15.3799 26.2647 15.3949 26.2347 15.3799H25.7397C25.7147 15.3649 25.6647 15.3799 25.6247 15.3699H25.4397C25.3897 15.3599 25.3397 15.3699 25.2947 15.3499C25.2297 15.3399 25.1447 15.3199 25.1547 15.2649H25.1497Z" fill="black" stroke="black" stroke-width="0.045"/>
<path d="M24.6035 10.7701C24.6835 11.0551 25.0535 11.0101 25.0385 10.7501L24.6035 10.7701Z" fill="#BCA76B"/>
<path d="M24.6035 10.7701C24.6835 11.0551 25.0535 11.0101 25.0385 10.7501" stroke="#472B1F" stroke-width="0.02"/>
<path d="M24.9385 10.7501C25.0435 11.0901 25.5235 11.0451 25.5035 10.7401L24.9385 10.7501Z" fill="#BCA76B"/>
<path d="M24.9385 10.7501C25.0435 11.0901 25.5235 11.0451 25.5035 10.7401" stroke="#472B1F" stroke-width="0.025"/>
<path d="M25.348 10.75C25.448 11 25.633 11.025 25.788 10.735L25.348 10.75ZM25.893 10.65L24.543 10.7V10.77L25.903 10.73L25.893 10.65Z" fill="#BCA76B"/>
<path d="M25.348 10.75C25.448 11 25.633 11.025 25.788 10.735M25.893 10.65L24.543 10.7V10.77L25.903 10.73L25.893 10.65Z" stroke="#472B1F" stroke-width="0.02"/>
<path d="M24.9752 11.3C24.8552 11.4 24.6352 11.535 24.5352 11.525" stroke="black" stroke-width="0.035"/>
<path d="M24.7347 10.9249C24.4471 12.0131 24.105 13.0861 23.7097 14.1399" stroke="black" stroke-width="0.035"/>
<path d="M24.5957 11.5998C24.6707 11.9148 25.0507 11.8648 25.0407 11.5798L24.5957 11.5998Z" fill="#BCA76B"/>
<path d="M24.5957 11.5998C24.6707 11.9148 25.0507 11.8648 25.0407 11.5798" stroke="#472B1F" stroke-width="0.02"/>
<path d="M24.9102 11.5948C25.0102 12.0148 25.5102 11.9448 25.4902 11.5748L24.9102 11.5948Z" fill="#BCA76B"/>
<path d="M24.9102 11.5948C25.0102 12.0148 25.5102 11.9448 25.4902 11.5748" stroke="#472B1F" stroke-width="0.035"/>
<path d="M25.3496 11.5898C25.4646 11.8498 25.6846 11.8748 25.8496 11.5748L25.3496 11.5898ZM25.9096 11.4448L24.5346 11.5098V11.6098L25.9246 11.5598L25.9096 11.4448ZM24.5146 12.3998C24.6046 12.7848 25.0146 12.7248 24.9996 12.3748L24.5146 12.3998Z" fill="#BCA76B"/>
<path d="M25.3496 11.5898C25.4646 11.8498 25.6846 11.8748 25.8496 11.5748M24.5146 12.3998C24.6046 12.7848 25.0146 12.7248 24.9996 12.3748M25.9096 11.4448L24.5346 11.5098V11.6098L25.9246 11.5598L25.9096 11.4448Z" stroke="#472B1F" stroke-width="0.025"/>
<path d="M24.8955 12.3998C25.0155 12.9498 25.5855 12.8748 25.5655 12.3648L24.8955 12.3998Z" fill="#BCA76B"/>
<path d="M24.8955 12.3998C25.0155 12.9498 25.5855 12.8748 25.5655 12.3648" stroke="#472B1F" stroke-width="0.04"/>
<path d="M25.34 12.3898C25.46 12.7098 25.67 12.7398 25.835 12.3648L25.34 12.3898ZM25.95 12.2448L24.375 12.3098L24.385 12.3998L25.965 12.3548L25.95 12.2448ZM24.49 13.3298C24.58 13.7398 25.025 13.6798 25.015 13.3098L24.49 13.3298Z" fill="#BCA76B"/>
<path d="M25.34 12.3898C25.46 12.7098 25.67 12.7398 25.835 12.3648M24.49 13.3298C24.58 13.7398 25.025 13.6798 25.015 13.3098M25.95 12.2448L24.375 12.3098L24.385 12.3998L25.965 12.3548L25.95 12.2448Z" stroke="#472B1F" stroke-width="0.025"/>
<path d="M25.6552 13.545C25.7452 13.935 25.8652 14.295 25.9802 14.63M25.5352 13.53C25.5852 13.91 25.6902 14.275 25.8002 14.63" stroke="black" stroke-width="0.035"/>
<path d="M24.8936 13.315C25.0036 13.865 25.5836 13.82 25.5736 13.29L24.8936 13.315Z" fill="#BCA76B"/>
<path d="M24.8936 13.315C25.0036 13.865 25.5836 13.82 25.5736 13.29" stroke="#472B1F" stroke-width="0.035"/>
<path d="M25.3791 13.315C25.5091 13.665 25.7291 13.695 25.9091 13.29L25.3791 13.315ZM26.0341 13.145L24.2891 13.21V13.34L26.0641 13.275L26.0341 13.145Z" fill="#BCA76B"/>
<path d="M25.3791 13.315C25.5091 13.665 25.7291 13.695 25.9091 13.29M26.0341 13.145L24.2891 13.21V13.34L26.0641 13.275L26.0341 13.145Z" stroke="#472B1F" stroke-width="0.035"/>
<path d="M25.4689 11.175L24.9689 11.19V11.3H25.4789L25.4689 11.175ZM25.4689 11.99L24.9689 12V12.115H25.4789L25.4689 11.99ZM25.5039 12.875L24.9639 12.89V13H25.5139L25.5039 12.875Z" fill="#BCA76B" stroke="#472B1F" stroke-width="0.015"/>
<path d="M25.7019 13.66L25.4169 13.72M25.7469 13.875L25.4619 13.935M25.8119 14.115L25.5219 14.1M25.8969 14.34L25.5969 14.39M24.5569 14.295L24.8569 14.355M24.6419 14.05L24.9119 14.11M24.7119 13.86L24.9619 13.925M24.7619 13.69L24.9869 13.735" stroke="black" stroke-width="0.025"/>
<path d="M28.342 14.6949C28.842 14.6699 29.442 14.6099 29.852 14.7699M28.377 14.8599C28.837 14.7899 29.377 14.7549 29.777 14.9049M28.427 15.1949C28.7886 15.1126 29.1634 15.1074 29.527 15.1799M28.462 15.2749C28.8037 15.3547 29.1589 15.3581 29.502 15.2849" stroke="black" stroke-width="0.05"/>
<path d="M23.5742 14.105L24.6592 14.755L24.6842 14.73L24.3442 14.495C24.0942 14.345 23.8542 14.195 23.5742 14.105Z" fill="black"/>
<path d="M28.7829 14.64L28.7729 14.28M28.8929 14.28V14.655M29.0929 14.655V14.27M29.3229 14.305V14.675M29.4579 14.3V14.68M29.6379 14.34V14.69M29.7279 14.335V14.73M28.8279 14.8V15.14M28.7129 14.815V15.14M29.0129 14.805L28.9979 15.13M29.1229 14.8L29.1179 15.125M29.2879 14.8L29.2679 15.11M29.4429 14.84L29.3829 15.13" stroke="black" stroke-width="0.025"/>
<path d="M28.3477 14.3C28.8477 14.24 29.3427 14.315 29.8377 14.365" stroke="black" stroke-width="0.05"/>
<path d="M31.0546 9.84986C31.0596 8.56986 30.9896 7.32986 31.0196 6.24486C29.3696 5.50986 27.1896 5.35986 26.0846 5.35986C24.9746 5.35986 22.7946 5.50986 21.1446 6.24486C21.1746 7.32986 21.1046 8.56986 21.1096 9.84486L31.0546 9.84986Z" stroke="black" stroke-width="0.1"/>
<path d="M25.7852 7.77002C25.7852 7.77002 25.9652 8.04002 26.0152 8.18002C26.0402 8.25502 26.0452 8.33002 26.0402 8.40002C26.0302 8.53502 25.9802 8.66502 25.9402 8.79002C25.9102 8.88002 25.8402 8.95002 25.8802 9.03502C25.8952 9.07502 25.9152 9.11502 25.9602 9.11002C25.9852 9.10502 26.0002 9.07002 26.0202 9.05002C26.0356 9.0381 26.0524 9.02804 26.0702 9.02002C26.0952 9.01002 26.1302 9.02502 26.1502 9.00502C26.1652 8.99002 26.1802 8.95502 26.1652 8.93502C26.1502 8.92002 26.1252 8.93502 26.1002 8.93502C26.0702 8.93502 26.0402 8.96002 26.0152 8.94502C25.9852 8.93002 25.9752 8.86002 25.9752 8.86002L26.0552 8.64002C26.0802 8.58002 26.1202 8.52502 26.1302 8.46002V8.40002C26.1302 8.36502 26.1202 8.33002 26.1452 8.30002C26.1552 8.29002 26.1952 8.31002 26.2052 8.29002C26.2352 8.21502 26.1002 8.16502 26.0652 8.09002C26.0602 8.06502 26.0652 8.03002 26.0552 8.00502C26.0302 7.94002 25.9552 7.83002 25.9552 7.83002L25.7852 7.77002Z" fill="#69737C" stroke="black" stroke-width="0.035"/>
<path d="M26.3448 7.97994C26.3448 7.97994 26.4998 8.17994 26.5198 8.29494C26.5198 8.31994 26.4998 8.34494 26.4998 8.37494C26.4998 8.41494 26.5248 8.45494 26.5248 8.49994C26.5148 8.63494 26.4448 8.75994 26.4098 8.88994L26.3398 9.22494L26.4398 9.21494L26.4598 9.04494L26.5348 8.75494L26.5848 8.55494C26.6048 8.50994 26.6348 8.47494 26.6498 8.42994C26.6598 8.36994 26.6798 8.30494 26.6498 8.24994C26.6448 8.22994 26.6148 8.22494 26.5998 8.21494C26.5671 8.17749 26.5401 8.13536 26.5198 8.08994C26.4948 8.03994 26.4698 7.93994 26.4698 7.93994C26.4448 7.95494 26.3448 7.97994 26.3448 7.97994Z" fill="#66452B" stroke="black" stroke-width="0.035"/>
<path d="M25.595 7.61493L25.71 7.70993L25.9 7.82493L25.995 7.83493L26.095 7.86993L26.225 7.86493L26.32 7.96493L26.34 7.97993L26.45 7.96493L26.49 7.91993L26.69 7.61993L26.64 7.11993L25.69 7.17493L25.595 7.61493Z" fill="white"/>
<path d="M26.6193 6.76997C26.7513 6.87187 26.8705 6.9894 26.9743 7.11997C27.0493 7.20997 27.0943 7.33497 27.2143 7.38997C27.3743 7.55997 28.0593 7.75997 28.0643 7.81497C27.9043 7.74997 27.8343 7.96497 27.6793 7.92997C27.5393 7.96997 27.4193 7.87997 27.2993 7.82997C27.1093 7.81997 26.9193 7.82997 26.7543 7.92497C26.6643 7.97497 26.5593 7.89997 26.4893 7.92497L26.4793 7.93497L26.4693 7.94497M25.5943 7.61997C25.4843 7.56497 25.4043 7.45997 25.2993 7.39997C25.2243 7.28997 25.1193 7.17497 25.1243 7.02997C25.1143 6.87997 25.0743 6.66997 25.1443 6.52997C25.0943 6.41497 25.0243 6.37997 24.9643 6.27497C24.9243 6.11997 24.7693 6.02997 24.8643 5.91497C24.9643 5.81997 25.0393 5.71497 25.1743 5.66497C25.2844 5.64137 25.399 5.65005 25.5043 5.68997C25.6393 5.70497 25.7143 5.81997 25.7893 5.92497C25.8773 6.06301 25.9352 6.21805 25.9593 6.37997C26.0243 6.50997 26.1943 6.53997 26.3193 6.59497C26.4193 6.64497 26.5293 6.68997 26.6193 6.76997" fill="white"/>
<path d="M27.3696 7.65997C27.3196 7.65497 27.1896 7.70997 27.2196 7.62497C27.0896 7.61497 26.9496 7.64497 26.8196 7.59997C26.6862 7.53864 26.5472 7.49009 26.4046 7.45497C26.2696 7.45497 26.1046 7.47997 25.9996 7.36997C25.8896 7.30497 25.7296 7.34997 25.6296 7.25497C25.5781 7.21461 25.5364 7.16299 25.5078 7.10407C25.4792 7.04514 25.4644 6.98047 25.4646 6.91497C25.4496 6.78497 25.3996 6.60997 25.5446 6.52997C25.6446 6.49997 25.7346 6.52997 25.7946 6.42997C25.9129 6.41758 26.0316 6.44772 26.1296 6.51497C26.2546 6.57497 26.3946 6.61497 26.5146 6.68497C26.6296 6.75997 26.7246 6.85997 26.8346 6.94497C26.9196 7.04497 27.0196 7.12997 27.0746 7.24997C27.1396 7.37997 27.2746 7.44997 27.3896 7.51997C27.4546 7.53997 27.6196 7.61997 27.4646 7.63497C27.4346 7.63997 27.4046 7.65997 27.3646 7.65997H27.3696Z" fill="black"/>
<path d="M26.0245 7.22995C25.9532 7.22651 25.8842 7.20406 25.8245 7.16495C25.7895 7.13995 25.6745 7.07495 25.7495 7.02495C25.8045 7.01995 25.8745 7.04995 25.9245 7.00495C26.0045 6.98995 26.0845 6.98995 26.1595 6.95495C26.2295 6.91495 26.3095 6.93995 26.3795 6.91495C26.4295 6.88995 26.4195 6.78495 26.4995 6.80495C26.5745 6.78495 26.5495 6.92495 26.4895 6.87995C26.4445 6.93495 26.5595 6.95495 26.5895 6.98995C26.6495 7.05995 26.5145 7.07495 26.5045 7.12495C26.4195 7.14995 26.3545 7.04495 26.2745 7.07495C26.2595 7.09995 26.2745 7.15995 26.2195 7.14495C26.1445 7.09995 26.0845 7.14995 26.0195 7.15995C26.0395 7.17495 25.9895 7.23495 26.0195 7.22995H26.0245ZM27.4795 7.72995C27.4395 7.70995 27.3895 7.72995 27.3445 7.72995C27.3195 7.72995 27.2845 7.72995 27.2595 7.71995C27.2145 7.71995 27.1345 7.66995 27.1195 7.73495C27.1195 7.75995 27.1945 7.77495 27.1345 7.78495C27.0795 7.78995 27.0245 7.76495 26.9695 7.74495C26.9445 7.72495 26.8995 7.69495 26.9145 7.74495C26.9295 7.79495 26.8845 7.80995 26.8445 7.80995C26.7897 7.80928 26.7368 7.78987 26.6945 7.75495C26.6645 7.78495 26.7345 7.83495 26.7745 7.83995C26.8145 7.86995 26.7145 7.85995 26.6895 7.85495C26.6595 7.84995 26.6195 7.84495 26.5895 7.86495C26.5395 7.87495 26.5395 7.91995 26.5945 7.91495C26.6445 7.92995 26.7045 7.94995 26.7595 7.92495C26.814 7.88927 26.8753 7.86542 26.9395 7.85495C26.9889 7.84335 27.039 7.835 27.0895 7.82995H27.2945C27.3495 7.84995 27.4045 7.82995 27.4445 7.80495C27.4795 7.79495 27.5645 7.75995 27.5045 7.73495C27.4945 7.73495 27.4895 7.72495 27.4795 7.73495V7.72995Z" fill="#69737C"/>
<path d="M27.2994 7.82488C27.3244 7.82488 27.3494 7.82488 27.3694 7.81488L27.4544 7.78488C27.4894 7.78488 27.5044 7.73488 27.4694 7.72988L27.4044 7.69488L27.3344 7.65488L27.3844 7.59488L27.4594 7.57988H27.5194L27.6044 7.61488L27.6894 7.65488L27.7644 7.67488C27.7894 7.68988 27.8194 7.69488 27.8494 7.70488C27.8794 7.71488 27.8894 7.74488 27.9244 7.73988C27.9594 7.74988 27.9894 7.75488 28.0144 7.77488C28.0344 7.78488 28.0644 7.79988 28.0644 7.81988C28.0394 7.81988 28.0144 7.79488 27.9894 7.80488C27.9644 7.80488 27.9494 7.82988 27.9244 7.82488C27.9144 7.85488 27.8744 7.84988 27.8544 7.87988C27.8255 7.90261 27.7935 7.92112 27.7594 7.93488C27.7468 7.94039 27.7331 7.94323 27.7194 7.94323C27.7056 7.94323 27.692 7.94039 27.6794 7.93488C27.6494 7.92488 27.6144 7.93488 27.5894 7.92488C27.5544 7.93488 27.5244 7.92488 27.4944 7.91988C27.4694 7.90988 27.4444 7.88988 27.4244 7.87488L27.3194 7.83988L27.2894 7.82488H27.2994ZM25.2494 5.64988C25.2244 5.64988 25.1994 5.64988 25.1694 5.65988C25.1194 5.66988 25.0844 5.69488 25.0494 5.72988C25.0115 5.77545 24.9678 5.81581 24.9194 5.84988C24.8947 5.86667 24.8741 5.88891 24.8594 5.91488C24.8894 5.93488 24.9344 5.93988 24.9544 5.90488C24.9844 5.86988 25.0244 5.83488 25.0694 5.81988C25.1094 5.80988 25.1494 5.82988 25.1894 5.82988C25.2194 5.85032 25.2535 5.86398 25.2894 5.86988L25.3694 5.88488C25.4044 5.89988 25.4444 5.90488 25.4794 5.91488C25.5294 5.92488 25.5694 5.91988 25.6094 5.91488H25.6394L25.6294 5.94488C25.6294 5.96988 25.6394 5.99488 25.6544 6.01988L25.6944 6.08488L25.7294 6.16488L25.7594 6.22988C25.7644 6.25488 25.7744 6.27988 25.7944 6.29488L25.8444 6.36488L25.8844 6.42988C25.8994 6.44488 25.9194 6.46988 25.9444 6.46488C25.9744 6.46988 25.9944 6.45988 26.0244 6.45488H26.0144C25.9894 6.43988 25.9794 6.41488 25.9644 6.38988L25.9544 6.31488C25.9544 6.28988 25.9444 6.26488 25.9344 6.23988L25.9144 6.17988C25.8994 6.15488 25.8944 6.12988 25.8894 6.11488L25.8544 6.03988L25.8194 5.96988L25.7794 5.90488L25.7494 5.87988C25.7494 5.86988 25.7494 5.85988 25.7344 5.84488C25.7144 5.81988 25.6894 5.79488 25.6794 5.76988C25.6444 5.73488 25.5994 5.71988 25.5544 5.70488C25.5063 5.68416 25.4559 5.66906 25.4044 5.65988C25.3635 5.65 25.3213 5.64663 25.2794 5.64988H25.2544H25.2494Z" fill="black"/>
<path d="M25.7295 6.32496C25.7295 6.28996 25.6795 6.29996 25.6645 6.32496C25.6395 6.34996 25.6295 6.37996 25.5995 6.39996C25.5495 6.43496 25.4995 6.43996 25.4495 6.46996C25.4295 6.49496 25.4095 6.52996 25.3745 6.54496C25.3395 6.55996 25.2995 6.58496 25.2845 6.61996C25.2795 6.64496 25.2595 6.68496 25.2845 6.70496C25.3195 6.71996 25.2845 6.75496 25.2895 6.77496C25.3045 6.79996 25.3495 6.80996 25.3745 6.79496C25.4045 6.76996 25.4445 6.74996 25.4645 6.71996C25.4995 6.67996 25.5345 6.63996 25.5795 6.61996C25.6088 6.61083 25.6348 6.59347 25.6545 6.56996C25.6795 6.54996 25.6545 6.51996 25.6945 6.50996C25.7245 6.49496 25.7445 6.46996 25.7595 6.44496C25.7795 6.41496 25.7445 6.38996 25.7495 6.35996C25.7495 6.34996 25.7495 6.33496 25.7345 6.32496H25.7295Z" fill="#69737C"/>
<path d="M26.2595 9.24993H26.0745C26.0445 9.23993 26.0245 9.18993 25.9795 9.20993C25.9495 9.21993 25.9145 9.23993 25.8845 9.25993C25.8532 9.27526 25.8259 9.29749 25.8045 9.32493C25.7995 9.34493 25.7445 9.36493 25.7945 9.36493C25.8345 9.36993 25.8595 9.32493 25.8945 9.31993C25.9295 9.30493 25.9695 9.31993 25.9945 9.31493C26.0243 9.3188 26.0546 9.3188 26.0845 9.31493L26.1845 9.32493C26.2295 9.32493 26.1645 9.35493 26.1495 9.36493C26.1145 9.37993 26.0745 9.38493 26.0345 9.38993C25.9945 9.38993 25.9545 9.38993 25.9195 9.40493C25.8845 9.42493 25.8495 9.43993 25.8195 9.46493C25.7995 9.47493 25.7495 9.49993 25.7995 9.49993C25.8295 9.49993 25.8645 9.49493 25.8945 9.48493C25.9495 9.46426 26.0064 9.44918 26.0645 9.43993C26.1045 9.43493 26.1395 9.41493 26.1795 9.40993C26.2045 9.40993 26.2645 9.39493 26.2445 9.43993C26.2212 9.46965 26.19 9.49219 26.1545 9.50493C26.1245 9.51993 26.0995 9.54493 26.0595 9.54493C26.0345 9.53493 25.9745 9.55493 26.0195 9.58493C26.0395 9.61993 26.0845 9.59493 26.1095 9.58493L26.2095 9.53993L26.3195 9.48993C26.3545 9.47493 26.3895 9.46993 26.4195 9.44993C26.4495 9.42993 26.4895 9.41493 26.5045 9.37493C26.5145 9.34493 26.5395 9.32493 26.5695 9.31493C26.6045 9.30493 26.6395 9.31493 26.6695 9.30493C26.7095 9.30493 26.6995 9.23493 26.6645 9.22993L26.5745 9.16993C26.5395 9.15493 26.4995 9.14493 26.4595 9.14993C26.443 9.15104 26.4271 9.15618 26.4132 9.1649C26.3992 9.17362 26.3876 9.18566 26.3795 9.19993C26.3595 9.22493 26.3545 9.26993 26.3145 9.25993C26.2945 9.26493 26.2745 9.25993 26.2595 9.24993ZM25.3595 9.47993C25.3595 9.47993 25.3895 9.35493 25.4345 9.30993C25.5345 9.21493 25.7945 9.14993 25.7945 9.14993C25.6795 9.19993 25.5445 9.15993 25.4345 9.19493C25.3445 9.21993 25.1895 9.33993 25.1895 9.33993C25.1895 9.33993 25.2495 9.21493 25.2895 9.16493C25.4245 9.01993 25.6295 9.00493 25.7895 9.02993L25.9695 9.04993C25.9695 9.04993 25.9995 9.06993 25.9845 9.09993C25.9595 9.15493 25.8745 9.18993 25.8145 9.21493C25.6545 9.29993 25.4545 9.36493 25.3545 9.47993H25.3595Z" fill="#66452B" stroke="black" stroke-width="0.035"/>
<path d="M25.9 9.02995C25.755 9.12495 25.425 9.29995 25.435 9.30995C25.435 9.30995 25.72 9.24495 25.85 9.17995C25.895 9.15995 25.96 9.14495 25.975 9.09495C25.98 9.06995 25.97 9.03995 25.95 9.02495C25.9424 9.02056 25.9338 9.01825 25.925 9.01825C25.9163 9.01825 25.9076 9.02056 25.9 9.02495V9.02995Z" fill="#69737C" stroke="black" stroke-width="0.035"/>
<path d="M26.5849 8.26996C26.5549 8.26996 26.5499 8.33496 26.5449 8.36996C26.5449 8.39496 26.5449 8.43996 26.5699 8.43996C26.5999 8.43996 26.6099 8.38996 26.6099 8.35496C26.6099 8.32996 26.6149 8.27496 26.5849 8.26996Z" fill="#69737C"/>
<path d="M26.4399 9.21497C26.4399 9.18997 26.4049 9.20497 26.3899 9.20997C26.3549 9.21497 26.3249 9.23497 26.2949 9.25497L26.2249 9.29997L26.0799 9.37497L26.0149 9.39997C25.9999 9.39997 26.0049 9.41497 26.0199 9.40997C26.0549 9.41997 26.0899 9.41497 26.1199 9.40497L26.2299 9.36997C26.2499 9.35497 26.2899 9.34497 26.3099 9.33497C26.3249 9.32497 26.3749 9.31497 26.3899 9.30997C26.4199 9.28997 26.4099 9.26997 26.4449 9.26997C26.4699 9.26997 26.4699 9.23497 26.4449 9.22997C26.443 9.22516 26.443 9.21978 26.4449 9.21497H26.4399Z" fill="#69737C" stroke="black" stroke-width="0.035"/>
<path d="M26.1145 9.51993C26.1395 9.51493 26.1645 9.51993 26.1895 9.50493C26.2224 9.49951 26.2544 9.48941 26.2845 9.47493L26.3245 9.45493C26.3497 9.43658 26.3702 9.41261 26.3845 9.38493L26.4195 9.31993C26.4195 9.29993 26.4045 9.29493 26.3895 9.30493L26.3395 9.34493L26.2895 9.38493C26.2745 9.40493 26.2645 9.43493 26.2395 9.45493L26.2095 9.47493L26.1295 9.50993L26.1145 9.51993Z" fill="#69737C" stroke="black" stroke-width="0.035"/>
<path d="M26.4594 7.64495C26.4694 7.65995 26.4794 7.67995 26.4794 7.69495L26.4894 7.76995C26.4894 7.79495 26.4644 7.80995 26.4594 7.83495V7.88495C26.4494 7.90995 26.4594 7.93495 26.4494 7.96495C26.4344 7.98995 26.3994 7.96995 26.3744 7.97495C26.3544 7.97995 26.3244 7.98495 26.3194 7.95995L26.2594 7.89995C26.2344 7.87495 26.2094 7.84995 26.1944 7.82495L26.1494 7.75495L26.1394 7.72995M26.2244 7.86495H26.0944C26.0794 7.86495 26.0444 7.86495 26.0344 7.84995C26.0194 7.84995 26.0094 7.83995 25.9944 7.83495C25.9794 7.82495 25.9694 7.83495 25.9594 7.83495M25.9594 7.83495C25.9494 7.81495 25.9294 7.78995 25.9144 7.77995L25.8794 7.75495L25.8544 7.72495L25.8294 7.68495L25.8094 7.64495V7.63495M25.9594 7.83495C25.9544 7.85995 25.9194 7.83495 25.9044 7.82495L25.8644 7.80995L25.8294 7.78995L25.7894 7.76495C25.7694 7.75995 25.7544 7.73995 25.7394 7.73995L25.6894 7.69995C25.6644 7.68495 25.6394 7.66995 25.6294 7.64995C25.6094 7.63995 25.5944 7.61995 25.5944 7.59995C25.5931 7.5792 25.588 7.55887 25.5794 7.53995C25.5794 7.52995 25.5694 7.52495 25.5744 7.51495" stroke="black" stroke-width="0.035"/>
<path d="M27.3699 7.84993C27.3903 7.84984 27.4105 7.84646 27.4299 7.83993L27.4899 7.82993C27.5099 7.81993 27.5249 7.79993 27.5449 7.80493C27.5699 7.80493 27.5949 7.80493 27.6099 7.79493C27.6154 7.78717 27.6231 7.78117 27.632 7.77762C27.6408 7.77408 27.6505 7.77315 27.6599 7.77493C27.6799 7.77493 27.6949 7.77493 27.7149 7.78493L27.7699 7.79993L27.8199 7.82493C27.8399 7.83493 27.8099 7.84993 27.8049 7.85493C27.7849 7.86493 27.7649 7.85493 27.7499 7.86993C27.7299 7.87993 27.7149 7.89493 27.7099 7.90993C27.6999 7.92993 27.6749 7.92493 27.6599 7.92993H27.6099C27.5949 7.92993 27.5749 7.93993 27.5599 7.92993C27.5436 7.9249 27.5268 7.92155 27.5099 7.91993C27.4899 7.90993 27.4799 7.89493 27.4599 7.89493L27.3849 7.85993C27.3814 7.85868 27.3783 7.85669 27.3757 7.8541C27.3731 7.85151 27.3711 7.84838 27.3699 7.84493V7.84993Z" fill="#BCA76B"/>
<path d="M24.9792 6.13494C24.9342 6.12494 24.8892 6.14494 24.8492 6.14494H24.5892C24.5242 6.15994 24.4592 6.18994 24.3942 6.19494C24.3042 6.20494 24.2142 6.19494 24.1292 6.19994C24.0642 6.20494 24.1292 6.12494 24.1692 6.12494C24.2492 6.10494 24.3292 6.07494 24.4142 6.06494C24.4792 6.05994 24.5392 6.03994 24.5992 6.02994L24.7492 5.98994C24.8042 5.97994 24.8592 5.96994 24.9092 5.97994C24.9642 5.96494 25.0192 5.95494 25.0742 5.92994C25.1242 5.90494 25.1742 5.91994 25.2242 5.88994C25.2492 5.84994 25.2992 5.85494 25.3492 5.85494C25.3992 5.86494 25.4492 5.87994 25.4742 5.92494C25.5092 5.97494 25.4042 5.96994 25.4342 6.02494C25.4192 6.03994 25.3792 6.04494 25.3542 6.04494C25.3292 6.04494 25.2992 6.04494 25.2792 6.03494C25.2342 6.01994 25.2042 5.98994 25.1692 5.96994C25.1292 5.95994 25.1242 6.03494 25.0792 6.02494C25.0192 6.04994 24.9492 6.03994 24.8842 6.04494C24.9292 6.05994 24.9692 6.07494 25.0042 6.10494C25.0192 6.12494 24.9942 6.12494 24.9792 6.12994V6.13494Z" fill="black" stroke="black" stroke-width="0.025"/>
<path d="M25.2395 5.95497L25.2795 5.93997L25.3045 5.89997C25.3045 5.89997 25.3395 5.94997 25.3195 5.96997C25.2995 5.98997 25.2395 5.95497 25.2395 5.95497ZM25.3495 5.85497C25.3545 5.85497 25.3145 5.82497 25.3495 5.81497C25.3795 5.77997 25.4295 5.80997 25.4695 5.81997C25.5445 5.84497 25.6195 5.87497 25.6695 5.93997C25.7445 6.01997 25.7595 6.12997 25.8195 6.22497L25.8695 6.36497C25.8845 6.39997 25.9395 6.43997 25.9095 6.47997C25.8745 6.49997 25.8395 6.46997 25.8095 6.46497C25.7595 6.45997 25.7845 6.50997 25.8095 6.51497C25.8445 6.52997 25.8595 6.57997 25.8095 6.57497L25.6795 6.55997C25.6445 6.53997 25.6895 6.50997 25.7095 6.49497C25.7295 6.47997 25.7695 6.45997 25.7595 6.42497C25.7595 6.36497 25.7195 6.30997 25.7095 6.24997C25.6995 6.20497 25.6845 6.15497 25.6645 6.11497C25.6445 6.01497 25.5545 5.94997 25.4645 5.91997L25.3495 5.86497V5.85497Z" fill="white"/>
<path d="M25.6746 5.90495L25.7146 5.92495L25.7546 5.98495L25.7646 6.01995C25.7646 6.03495 25.7796 6.04495 25.7896 6.05495L25.8046 6.10495L25.8246 6.15495L25.8396 6.18995C25.8446 6.19995 25.8496 6.21995 25.8296 6.21995C25.8182 6.21855 25.8076 6.21326 25.7996 6.20495L25.7646 6.15495C25.76 6.14544 25.7566 6.13535 25.7546 6.12495L25.7396 6.07495L25.7196 6.03995L25.6996 5.98995C25.6946 5.97495 25.6646 5.93495 25.6696 5.91495L25.6746 5.90495ZM25.3796 5.79495C25.3718 5.79173 25.3649 5.78656 25.3596 5.77995L25.3296 5.76495C25.3096 5.76995 25.3246 5.74995 25.3146 5.75495L25.3046 5.72995L25.2896 5.70995C25.2896 5.70995 25.2796 5.69995 25.2896 5.69995L25.3196 5.70495L25.3446 5.70995H25.3996C25.4046 5.70995 25.4096 5.71995 25.4146 5.71495C25.4246 5.71495 25.4296 5.72995 25.4346 5.73495C25.4446 5.73995 25.4446 5.74995 25.4496 5.75995V5.77995L25.4246 5.78995L25.3946 5.79995L25.3796 5.79495Z" fill="#BCA76B"/>
<path d="M25.3548 5.77996C25.3398 5.77996 25.3248 5.78996 25.3048 5.78496L25.2848 5.80496L25.2548 5.81496L25.2298 5.79996L25.2148 5.78496L25.1948 5.77496C25.1848 5.77496 25.1848 5.76496 25.1848 5.75496V5.72996L25.2048 5.71996H25.2548C25.2698 5.71996 25.2798 5.70996 25.2898 5.71496L25.3098 5.72996L25.3548 5.77996ZM25.4348 5.73496L25.4698 5.72496L25.5048 5.72996C25.5198 5.72996 25.5348 5.73996 25.5448 5.74496L25.5848 5.76496L25.6198 5.77996L25.6548 5.79996L25.6848 5.82996C25.6898 5.83996 25.6848 5.85496 25.6698 5.84996L25.6348 5.82996C25.6248 5.82996 25.6098 5.82996 25.5998 5.81996L25.5648 5.80496L25.5148 5.78496L25.4898 5.77996L25.4448 5.75496C25.4448 5.74996 25.4298 5.74496 25.4348 5.73496Z" fill="white"/>
<path d="M25.6198 5.99994C25.5698 5.99994 25.5198 6.01994 25.4698 5.99994C25.4348 5.99994 25.4048 6.02994 25.3698 6.03994C25.3298 6.03494 25.3198 6.09494 25.2848 6.08994C25.2498 6.08994 25.2148 6.06494 25.1848 6.07494C25.2498 6.10494 25.3148 6.12994 25.3748 6.17494C25.4035 6.20308 25.4375 6.22518 25.4748 6.23994C25.5098 6.25494 25.5398 6.27994 25.5248 6.31494C25.5148 6.35494 25.4548 6.36494 25.4548 6.40494C25.4498 6.44494 25.4048 6.46494 25.3898 6.49494C25.3748 6.52494 25.3398 6.54494 25.3398 6.57494C25.3448 6.61494 25.3898 6.58494 25.3898 6.55494C25.3998 6.52994 25.4248 6.48494 25.4598 6.50494C25.4848 6.53994 25.5198 6.47494 25.5498 6.48994C25.5648 6.51494 25.5998 6.52494 25.6148 6.49494C25.6398 6.48494 25.6748 6.46994 25.6498 6.44494C25.6498 6.40994 25.6898 6.40994 25.7098 6.39494C25.7348 6.38494 25.7598 6.34494 25.7348 6.32494C25.7098 6.28994 25.7348 6.23994 25.7048 6.20994C25.6798 6.17494 25.7048 6.12494 25.6848 6.08994C25.6698 6.05494 25.6548 6.01494 25.6248 5.99994H25.6198Z" fill="black"/>
<path d="M26.9595 7.35997C26.9095 7.35997 26.8595 7.40497 26.7995 7.40997C26.7345 7.41497 26.8195 7.44997 26.8395 7.45997C26.8945 7.49997 26.9595 7.50997 27.0195 7.53497C27.0795 7.55997 27.1395 7.57997 27.2045 7.56497C27.2595 7.54997 27.2195 7.49497 27.2045 7.46497C27.1695 7.41497 27.1045 7.38997 27.0645 7.34497C27.0295 7.31997 26.9845 7.32497 26.9645 7.35997H26.9595Z" fill="#69737C"/>
<path d="M26.9203 7.48482C26.9053 7.48482 26.8803 7.49482 26.8603 7.48982C26.8353 7.48982 26.8103 7.49982 26.7853 7.48482L26.7153 7.45982C26.6953 7.44482 26.6703 7.43982 26.6603 7.41982C26.6453 7.39982 26.6753 7.39982 26.6903 7.39982C26.7153 7.38982 26.7403 7.38482 26.7703 7.38982L26.8553 7.42982C26.8803 7.43982 26.9053 7.44982 26.9203 7.46982V7.48482ZM27.2003 7.46482C27.2053 7.48982 27.1653 7.46482 27.1503 7.47482C27.1228 7.47729 27.0951 7.4721 27.0703 7.45982C27.0203 7.43982 26.9803 7.41482 26.9353 7.40982C26.9153 7.40482 26.8703 7.38482 26.9053 7.35982C26.9287 7.33773 26.9585 7.32371 26.9903 7.31982C27.0203 7.31982 27.0503 7.33982 27.0803 7.34982C27.1103 7.36482 27.1403 7.37482 27.1653 7.39982C27.1853 7.41482 27.2053 7.43982 27.2053 7.46482H27.2003Z" fill="white"/>
<path d="M26.43 7.18994C26.3878 7.21511 26.3391 7.22729 26.29 7.22494C26.245 7.23994 26.175 7.19994 26.16 7.25494C26.14 7.30494 26.195 7.32494 26.225 7.34494C26.315 7.39494 26.415 7.39494 26.51 7.39494C26.54 7.39494 26.625 7.38494 26.58 7.35494C26.53 7.31994 26.49 7.26494 26.455 7.21994C26.4447 7.21168 26.4362 7.20149 26.43 7.18994ZM26.92 7.21994L26.86 7.20494L26.79 7.16494C26.755 7.14994 26.725 7.12494 26.69 7.11494C26.67 7.10494 26.675 7.08494 26.69 7.08494C26.71 7.08494 26.72 7.05994 26.74 7.07994C26.76 7.08994 26.78 7.10994 26.795 7.12994C26.82 7.14494 26.835 7.16494 26.865 7.16994C26.885 7.18494 26.915 7.19494 26.915 7.21994H26.92ZM26.85 7.30994C26.85 7.30994 26.765 7.33494 26.725 7.31994C26.69 7.30994 26.66 7.30494 26.635 7.28994C26.595 7.26994 26.56 7.25494 26.535 7.22494C26.51 7.19994 26.535 7.15494 26.575 7.16494C26.595 7.15994 26.585 7.11494 26.625 7.13494C26.665 7.15494 26.71 7.17494 26.745 7.20494L26.82 7.26994L26.85 7.30994ZM26.19 6.68994C26.25 6.70494 26.32 6.72994 26.355 6.78994C26.405 6.84494 26.305 6.88494 26.255 6.84494C26.185 6.80994 26.105 6.76994 26.03 6.74494C25.95 6.75994 26.06 6.80494 26.08 6.81994C26.12 6.84494 26.145 6.88494 26.145 6.91994C26.095 6.95994 26.03 6.91994 25.975 6.90994C25.915 6.90494 25.875 6.84994 25.84 6.80994C25.81 6.77994 25.78 6.75994 25.74 6.77994C25.74 6.82994 25.78 6.84494 25.805 6.88994C25.825 6.91494 25.905 6.97994 25.83 6.98494C25.7997 6.97717 25.7713 6.96343 25.7464 6.94455C25.7215 6.92566 25.7006 6.90199 25.685 6.87494C25.65 6.83994 25.625 6.76494 25.695 6.75494C25.76 6.71994 25.83 6.70494 25.905 6.70494C25.98 6.69494 26.06 6.70494 26.14 6.68494C26.15 6.68494 26.2 6.65994 26.19 6.68494V6.68994Z" fill="#69737C"/>
<path d="M25.5942 6.73486C25.5831 6.74939 25.5762 6.76668 25.5742 6.78486V6.84486L25.5942 6.89486C25.6042 6.91486 25.6192 6.92486 25.6342 6.93486C25.6442 6.94986 25.6592 6.95986 25.6742 6.96486L25.7092 6.98486L25.7592 6.99486C25.7742 6.99486 25.7892 6.99486 25.7942 6.97986C25.8092 6.96986 25.7942 6.95986 25.7842 6.95486C25.7692 6.95486 25.7592 6.94486 25.7492 6.92986C25.7348 6.92131 25.7228 6.90928 25.7142 6.89486C25.7142 6.87986 25.7042 6.86986 25.6942 6.85486L25.6642 6.81986C25.6516 6.80922 25.6399 6.79751 25.6292 6.78486C25.62 6.77097 25.61 6.75761 25.5992 6.74486L25.5942 6.73486ZM26.1142 6.93486C26.0703 6.93003 26.0268 6.92167 25.9842 6.90986C25.9403 6.8949 25.902 6.86701 25.8742 6.82986C25.8392 6.79986 25.8092 6.76486 25.7742 6.74486C25.7292 6.72986 25.7142 6.78986 25.7392 6.80986L25.8192 6.90986C25.8487 6.9383 25.8824 6.96192 25.9192 6.97986C25.967 7.00534 26.0201 7.01906 26.0742 7.01986C26.1092 7.01986 26.1442 6.99486 26.1542 6.96986C26.1542 6.94486 26.1292 6.93986 26.1142 6.93986V6.93486ZM25.9942 7.20486C25.9692 7.20486 25.9342 7.20486 25.9092 7.18986C25.8875 7.17463 25.8703 7.15393 25.8592 7.12986C25.8342 7.10486 25.8092 7.07986 25.7842 7.07486C25.7592 7.06986 25.7242 7.08486 25.7342 7.11486C25.7342 7.13986 25.7542 7.15986 25.7742 7.17986C25.8042 7.20486 25.8392 7.21986 25.8742 7.23486C25.8942 7.24486 25.9142 7.24486 25.9342 7.24486C25.9592 7.24486 25.9842 7.25486 25.9942 7.22986V7.20486ZM26.2892 7.11986C26.3142 7.12986 26.3242 7.15986 26.3142 7.18486C26.2942 7.20986 26.2642 7.22486 26.2292 7.22486L26.1492 7.21986L26.0642 7.17986C26.0342 7.16986 26.0292 7.13486 26.0142 7.11486C25.9942 7.08986 26.0392 7.07986 26.0592 7.08486C26.0842 7.09486 26.1092 7.12486 26.1292 7.13486L26.2042 7.15986C26.2242 7.15986 26.2542 7.16986 26.2642 7.14986L26.2842 7.11986H26.2892ZM26.5392 7.05486C26.5642 7.07486 26.5492 7.11986 26.5142 7.12986C26.4892 7.12986 26.4642 7.13986 26.4442 7.12986C26.4084 7.11883 26.3746 7.10193 26.3442 7.07986C26.3192 7.06486 26.2942 7.05986 26.2792 7.03486C26.2692 7.00486 26.3042 6.98486 26.3292 6.99486C26.3692 7.00486 26.4092 7.00986 26.4492 7.03486C26.4742 7.04486 26.4992 7.05986 26.5342 7.05986L26.5392 7.05486Z" fill="white"/>
<path d="M26.4693 7.94497L26.4793 7.93497L26.4893 7.92497C26.5593 7.89997 26.6643 7.97497 26.7543 7.92497C26.9193 7.82997 27.1093 7.81997 27.2993 7.82997C27.4193 7.87997 27.5393 7.96997 27.6793 7.92997C27.8343 7.96497 27.9043 7.74997 28.0643 7.81497C28.0593 7.75997 27.3743 7.55997 27.2143 7.38997C27.0943 7.33497 27.0493 7.20997 26.9743 7.11997C26.8705 6.9894 26.7513 6.87187 26.6193 6.76997C26.5293 6.68997 26.4193 6.64497 26.3193 6.59497C26.1943 6.53997 26.0243 6.50997 25.9593 6.37997C25.9352 6.21805 25.8773 6.06301 25.7893 5.92497C25.7143 5.81997 25.6393 5.70497 25.5043 5.68997C25.399 5.65005 25.2844 5.64137 25.1743 5.66497C25.0393 5.71497 24.9643 5.81997 24.8643 5.91497C24.7693 6.02997 24.9243 6.11997 24.9643 6.27497C25.0243 6.37997 25.0943 6.41497 25.1443 6.52997C25.0743 6.66997 25.1143 6.87997 25.1243 7.02997C25.1193 7.17497 25.2243 7.28997 25.2993 7.39997C25.4043 7.45997 25.4843 7.56497 25.5943 7.61997" stroke="black" stroke-width="0.035"/>
</svg>
