<svg width="36" height="24" viewBox="0 0 36 24" fill="none" xmlns="http://www.w3.org/2000/svg">
<rect width="36" height="24" rx="2" fill="#000066"/>
<path d="M30.7249 9.98492C30.7249 13.1699 30.2149 16.6099 26.0749 18.2499C21.9449 16.6099 21.4399 13.1699 21.4199 9.98492H30.7249Z" fill="#8FC5FF" stroke="white" stroke-width="0.215"/>
<path d="M26.0697 18.2349C27.6435 17.6839 28.9555 16.5661 29.7497 15.0999H29.3597C29.2447 15.0799 25.3897 14.7099 24.9247 14.5149C24.5297 14.3749 23.0047 14.6499 22.3047 14.9049C23.0779 16.4638 24.4314 17.6575 26.0747 18.2299L26.0697 18.2349Z" fill="#366CC9" stroke="black" stroke-width="0.215"/>
<path d="M23.1796 16.2799H23.4146C23.4696 16.2799 23.4696 16.2799 23.4896 16.2199C23.5096 16.1599 23.5696 16.1799 23.6096 16.1999C23.6446 16.2199 23.7246 16.1999 23.7596 16.1599C23.8046 16.1199 23.8046 16.1199 23.8446 16.1599C23.8796 16.1999 23.8996 16.1799 23.9446 16.1599C23.9596 16.1599 24.0396 16.1199 24.0596 16.0599C24.0746 16.0049 24.1346 15.9849 24.1596 16.0249C24.1746 16.0649 24.2096 16.0649 24.2546 16.0649C24.2896 16.0649 24.2896 16.0799 24.2896 16.1399C24.2896 16.1799 24.2896 16.1999 24.3896 16.1199C24.4696 16.1999 24.4896 16.1599 24.4896 16.0799C24.4896 16.0049 24.4896 15.6899 24.4496 15.6699C24.4096 15.6499 24.3896 15.5149 24.3696 15.4199C24.3696 15.2199 24.3696 15.2199 24.1746 15.1199C24.1746 15.0699 24.1346 15.0449 23.9746 15.0449C23.9996 15.0249 23.9746 14.9699 23.9396 14.9449C23.8996 14.9299 23.8996 14.9099 23.9396 14.8299C23.9796 14.8299 24.0596 14.8299 24.0746 14.7699C24.1146 14.7349 24.2346 14.7349 24.3096 14.7699C24.3896 14.8099 24.4696 14.8099 24.6046 14.7699L24.8396 14.6549C24.9396 14.5949 24.9546 14.5749 24.9546 14.4999C24.9546 14.2999 24.8996 14.1099 24.8546 14.0099C24.8046 13.9099 24.8046 13.8099 24.7196 13.6399C24.6446 13.4799 24.6446 13.4399 24.5696 13.3449C24.5246 13.3049 24.5046 13.2849 24.5046 13.2299C24.4988 13.1527 24.4629 13.0809 24.4046 13.0299C24.2546 12.8949 24.2146 12.4449 24.1346 12.1149C24.0946 11.9149 24.1346 11.4649 24.0596 11.3899C23.9196 11.2899 23.8596 11.3099 23.7596 11.2749C23.6846 11.1749 23.6646 10.9999 23.5896 10.8249C23.4896 10.8449 23.4296 10.9399 23.3746 10.9749C23.3146 11.0199 23.2946 11.0199 23.2946 11.1149C23.2946 11.1949 23.2346 11.3149 23.1596 11.4649C23.0796 11.6249 22.9046 11.5649 22.7646 11.7799C22.4946 11.4499 22.4946 11.3499 22.4746 11.2549C22.4746 11.1549 22.4146 11.1349 22.2596 10.9999V10.6999C22.1196 10.5999 22.0446 10.6249 21.9846 10.6999C21.9246 10.7599 21.8846 10.8549 21.7896 10.8999C21.7496 10.9749 21.5896 11.1299 21.4746 11.3499C21.5946 13.1049 21.9846 14.8649 23.1746 16.2749L23.1796 16.2799Z" fill="#5D3100" stroke="black" stroke-width="0.02"/>
<path d="M30.7249 9.98497C30.7249 8.76997 30.6649 7.59497 30.6849 6.58497C29.2141 6.01302 27.6479 5.72625 26.0699 5.73997C25.0349 5.73997 22.9999 5.89497 21.4599 6.57997C21.4949 7.59497 21.4199 8.76997 21.4199 9.97997L30.7249 9.98497Z" fill="#FFFF00" stroke="white" stroke-width="0.215"/>
<path d="M21.6746 11.37C21.7246 11.45 21.8196 11.585 21.8246 11.67C21.8646 11.59 21.8946 11.56 21.8996 11.515C21.8996 11.465 21.9646 11.38 21.9396 11.33C21.9196 11.28 21.9046 11.245 21.9596 11.28C22.0146 11.315 22.0046 11.38 21.9946 11.47C21.9596 11.72 21.8596 11.77 21.8446 11.935C21.9896 12.285 21.8796 12.415 22.0446 12.765C22.0696 12.775 22.1346 12.75 22.1546 12.755C22.2446 12.695 22.3046 12.71 22.4296 12.74C22.5496 12.765 22.6146 12.85 22.6146 12.93C22.6146 13.01 22.6146 13.025 22.6446 13.07C22.6696 13.11 22.7146 13.185 22.7096 13.24C22.6946 13.29 22.7146 13.32 22.7346 13.34C22.7496 13.365 22.7246 13.43 22.7146 13.46C22.6996 13.49 22.7046 13.545 22.7646 13.62C22.8246 13.695 22.9646 14.015 22.9646 14.2C22.9646 14.395 22.9796 14.48 23.0546 14.515C23.1296 14.55 23.1546 14.58 23.1446 14.66C23.1346 14.735 23.1796 15.16 23.1896 15.23C23.1946 15.295 23.2246 15.28 23.2596 15.315C23.2896 15.35 23.3096 15.39 23.4096 15.39C23.5146 15.39 23.6096 15.38 23.6696 15.39C23.7696 15.515 23.8196 15.69 23.8446 15.795C23.8696 15.905 23.8646 16.045 23.8946 16.045C23.9346 16.045 23.9696 16.045 23.9596 15.92C23.9496 15.79 23.9396 15.77 23.8946 15.7C23.8446 15.635 23.8196 15.6 23.8446 15.565C23.8696 15.525 23.8746 15.465 23.8696 15.41C23.8596 15.36 23.8396 15.28 23.9296 15.38L24.0646 15.545C24.0896 15.575 24.0996 15.645 24.0946 15.71C24.0896 15.77 24.0946 15.795 24.1396 15.76C24.1746 15.73 24.2146 15.785 24.1896 15.85C24.1746 15.915 24.2046 15.955 24.2646 15.98C24.3246 16 24.3496 16.015 24.3646 16.06C24.3796 16.1 24.4296 16.125 24.4296 16.03C24.4246 15.9129 24.4045 15.7969 24.3696 15.685C24.3446 15.625 24.3246 15.495 24.3196 15.415C24.3096 15.34 24.2996 15.32 24.2646 15.31C24.2296 15.295 24.1946 15.26 24.1896 15.23C24.1896 15.195 24.1546 15.18 24.1346 15.18C24.1096 15.18 24.0896 15.165 24.0746 15.14C24.0646 15.11 24.0496 15.11 24.0246 15.11C23.9996 15.105 23.9596 15.12 23.9446 15.08C23.9346 15.04 23.9146 14.98 23.8896 14.95C23.8646 14.92 23.8446 14.905 23.8396 14.79C23.8396 14.675 23.8396 14.66 23.7996 14.62C23.7596 14.58 23.6996 14.47 23.6746 14.43C23.6546 14.38 23.6246 14.335 23.6246 14.43C23.6246 14.53 23.6246 14.58 23.6896 14.615C23.7496 14.65 23.7646 14.65 23.7396 14.705C23.7096 14.755 23.7396 14.79 23.7496 14.825C23.7646 14.86 23.7796 14.895 23.7496 14.925C23.7196 14.965 23.6896 14.955 23.6946 14.9C23.6948 14.8419 23.6793 14.7849 23.6496 14.735C23.6296 14.685 23.6046 14.655 23.5746 14.685C23.5446 14.705 23.5196 14.675 23.5396 14.655C23.5646 14.635 23.5546 14.62 23.5396 14.605C23.5296 14.595 23.5196 14.575 23.5446 14.545C23.5696 14.515 23.5696 14.5 23.5546 14.43C23.5396 14.36 23.4296 14 23.3796 13.92C23.3296 13.835 23.3346 13.78 23.3946 13.855C23.4596 13.935 23.5196 14.005 23.5296 14.075C23.5296 14.145 23.5446 14.185 23.5646 14.205C23.5896 14.23 23.5996 14.225 23.6146 14.165C23.6146 14.11 23.6646 14.13 23.5946 14.025C23.5196 13.92 23.3896 13.74 23.3346 13.415C23.2846 13.095 23.2646 12.89 23.2146 12.805C23.1646 12.715 23.1496 12.695 23.1446 12.615C23.1396 12.535 23.1446 12.45 23.1096 12.39C23.0746 12.33 23.0496 12.32 23.0446 12.41C23.0396 12.5 23.0446 12.71 23.0746 12.74C23.1046 12.775 23.0846 12.87 23.0746 12.915C23.0646 12.965 22.9896 13.02 23.1596 13.12C23.2246 13.165 23.2096 13.22 23.2096 13.25C23.1946 13.29 23.1846 13.285 23.1496 13.23C23.1146 13.175 23.0796 13.125 23.0446 13.1C23.0096 13.075 22.9996 13.05 23.0096 12.975C23.0196 12.9 23.0246 12.85 23.0096 12.825C22.9896 12.805 22.9796 12.82 22.9646 12.865C22.9546 12.905 22.9496 13.015 22.9196 13.045C22.8946 13.075 22.8946 13.055 22.8796 12.99C22.8596 12.925 22.8846 12.82 22.9196 12.705C22.9546 12.595 22.9796 12.465 22.9496 12.315C22.9196 12.165 22.9296 12.115 22.8196 11.99C22.6996 11.86 22.5646 11.74 22.5146 11.585C22.4546 11.425 22.4446 11.285 22.3796 11.215C22.3233 11.1429 22.2557 11.0805 22.1796 11.03V10.795C22.1796 10.735 22.1546 10.705 22.0896 10.715C22.0246 10.725 21.9796 10.78 21.9396 10.855C21.8996 10.935 21.8696 10.9 21.8096 11.03C21.7496 11.16 21.6796 11.23 21.6796 11.37H21.6746Z" fill="#CF6200"/>
<path d="M22.0395 12.8549C22.0895 12.8849 22.1245 12.8999 22.1895 12.8699C22.2445 12.8399 22.3145 12.7499 22.4045 12.8399C22.4805 12.9352 22.5228 13.053 22.5245 13.1749C22.5245 13.2899 22.5245 13.4999 22.6545 13.6149C22.7845 13.7299 22.8495 13.8549 22.8545 14.0049C22.865 14.1567 22.8884 14.3072 22.9245 14.4549C22.9445 14.5149 22.9745 14.5849 23.0195 14.6299C23.0545 14.6699 23.0895 14.7849 23.0945 14.9049C23.0995 15.0299 23.0795 15.1099 23.0945 15.1749C23.1145 15.2349 23.0945 15.2849 23.0545 15.2599C23.0045 15.2349 22.9945 15.2099 22.9645 15.1599C22.9345 15.1099 22.9145 15.1149 22.9395 15.1949C22.9645 15.2749 23.0395 15.3449 23.1045 15.3449C23.1695 15.3449 23.1895 15.3499 23.2345 15.3949C23.2745 15.4349 23.2795 15.4549 23.3495 15.4549C23.4195 15.4549 23.4295 15.4549 23.4995 15.4749C23.5645 15.4899 23.5645 15.4849 23.5995 15.4749C23.6345 15.4599 23.6695 15.4949 23.6945 15.5599C23.7145 15.6249 23.7795 15.8099 23.7795 15.8599C23.7795 15.9099 23.7795 15.9599 23.8145 16.0099C23.8495 16.0649 23.8395 16.1099 23.7995 16.0849C23.7645 16.0549 23.7595 16.0599 23.7345 16.0699C23.7045 16.0799 23.6845 16.0599 23.6395 16.0299C23.5995 16.0099 23.6245 16.0149 23.5845 15.9549C23.5445 15.8899 23.5195 15.8699 23.5195 15.9199C23.5195 15.9699 23.5095 16.0199 23.4795 15.9899C23.4495 15.9649 23.4345 15.9649 23.4095 15.9899C23.3845 16.0199 23.3745 16.0399 23.3445 15.9899C23.3145 15.9399 23.2795 15.9399 23.2445 15.9249C23.2195 15.9199 23.2195 15.9199 23.2045 15.8749C23.1895 15.8249 23.1395 15.8149 23.1045 15.8149C23.0595 15.8149 23.0395 15.7949 23.0345 15.7649C23.0345 15.7349 23.0045 15.7149 22.9845 15.6999C22.9595 15.6849 22.9745 15.6499 22.9695 15.6149C22.9695 15.5799 22.9345 15.5899 22.9145 15.5849C22.8895 15.5749 22.8795 15.5799 22.8795 15.5249C22.8795 15.4749 22.8545 15.4599 22.8445 15.4249C22.8245 15.3849 22.8445 15.3499 22.8545 15.3149C22.8595 15.2649 22.8545 15.2449 22.8245 15.2149C22.7945 15.1749 22.8245 15.1399 22.7395 15.0649C22.6545 14.9999 22.6145 15.0599 22.5895 14.8949C22.5751 14.7004 22.5348 14.5087 22.4695 14.3249C22.4195 14.2749 22.3945 14.2249 22.3445 14.2099C22.2945 14.1949 22.2745 14.2099 22.2695 14.1099C22.2645 14.0099 22.2345 13.8899 22.1695 13.8299L22.0545 13.7199C22.0245 13.6999 22.0095 13.6499 22.0545 13.5699C22.0995 13.4799 22.0795 13.3599 22.0745 13.3049C22.0695 13.2549 22.0545 13.1749 22.0645 13.1149C22.0745 13.0549 22.0645 12.9799 22.0545 12.9399C22.0395 12.9049 22.0195 12.8899 22.0445 12.8549H22.0395ZM23.2645 11.4149C23.1981 11.5029 23.1189 11.5804 23.0295 11.6449C22.9345 11.7149 22.8145 11.7649 22.8795 11.8799C22.9495 11.9949 23.0045 12.0099 23.0145 12.0949C23.0295 12.1849 23.0545 12.2599 23.1145 12.2799C23.1895 12.2999 23.2145 12.2899 23.2145 12.4299C23.2145 12.5649 23.2145 12.6299 23.2745 12.6799C23.3345 12.7299 23.3245 12.7899 23.3545 12.9149C23.3845 13.0449 23.3845 13.3249 23.4645 13.5149C23.5395 13.6999 23.7295 14.0649 23.7045 14.1349C23.6845 14.2099 23.6645 14.2649 23.7395 14.3549C23.8245 14.4399 23.8745 14.5699 23.8895 14.6449C23.8895 14.7199 23.9045 14.7449 23.9895 14.7199C24.045 14.706 24.0953 14.6765 24.1345 14.6349C24.1595 14.5999 24.2145 14.6049 24.2895 14.6449C24.3645 14.6899 24.4795 14.7249 24.5495 14.6899C24.6145 14.6449 24.6495 14.5849 24.7095 14.5849C24.8045 14.5149 24.8395 14.3749 24.8595 14.3349C24.8795 14.2949 24.8645 14.2949 24.8245 14.2549C24.7845 14.2149 24.8045 14.1449 24.7995 14.0799C24.7895 14.0099 24.7645 13.9049 24.6845 13.7549C24.6045 13.6049 24.5495 13.4249 24.4995 13.3799C24.4495 13.3299 24.4195 13.2149 24.4145 13.1599C24.4095 13.1099 24.3445 13.0599 24.3045 13.0199C24.2595 12.9749 24.2245 12.9199 24.1745 12.6799C24.1245 12.4449 24.0945 12.2799 24.0945 12.2299C24.0945 12.1899 24.0845 12.1899 24.0445 12.1699C24.0045 12.1549 23.9845 12.0899 24.0045 12.0599C24.0095 12.0249 23.9845 11.9899 23.9695 11.9499C23.9595 11.9099 23.9695 11.8349 23.9995 11.7899C24.0245 11.7499 24.0195 11.6399 23.9945 11.5399C23.9695 11.4499 23.9395 11.3699 23.8295 11.3499C23.7245 11.3399 23.6995 11.3099 23.6645 11.2199C23.6145 11.1349 23.5745 10.9799 23.5645 10.9449C23.5545 10.9099 23.5295 10.9049 23.4495 10.9749C23.3695 11.0399 23.3395 11.0599 23.3395 11.1899C23.3395 11.2749 23.3595 11.2999 23.3845 11.3449C23.4095 11.3949 23.4195 11.4099 23.4345 11.5349C23.4545 11.6599 23.5695 11.8649 23.4245 11.9849C23.2745 12.0949 23.2945 12.1249 23.2995 12.2049C23.3095 12.2899 23.2595 12.3399 23.2345 12.2299C23.2045 12.1099 23.2345 12.0449 23.3145 11.9899C23.3945 11.9399 23.4695 11.8649 23.4145 11.7899C23.3665 11.6859 23.3377 11.5741 23.3295 11.4599C23.3245 11.3799 23.3145 11.3499 23.2645 11.4149Z" fill="#CF6200"/>
<path d="M22.0598 13.1399L22.0748 13.3049C22.0748 13.3599 22.0948 13.4799 22.0498 13.5649C22.0098 13.6499 22.0198 13.6949 22.0498 13.7199H22.0548C22.1398 13.6949 22.1548 13.6049 22.1298 13.5599C22.1191 13.536 22.1144 13.5098 22.1161 13.4837C22.1178 13.4575 22.126 13.4322 22.1398 13.4099C22.1648 13.3599 22.1648 13.3349 22.1398 13.2999C22.1148 13.2649 22.1148 13.2649 22.1398 13.1699C22.1698 13.0849 22.1048 13.0849 22.0598 13.1399ZM22.9298 14.4549C22.9148 14.3949 22.8548 14.1549 22.8548 14.0049C22.8498 13.8549 22.7798 13.7299 22.6548 13.6149C22.5548 13.5249 22.5348 13.3799 22.5248 13.2649C22.4498 13.2199 22.4248 13.2399 22.4298 13.3249C22.4298 13.4149 22.5298 13.4549 22.5148 13.5899C22.4998 13.7199 22.4998 13.6899 22.5648 13.7549C22.6198 13.8149 22.6498 13.8849 22.6148 13.9049C22.5798 13.9299 22.5798 13.9799 22.6248 13.9949C22.6748 14.0149 22.6748 14.0649 22.6698 14.1149C22.6648 14.1599 22.7148 14.1699 22.7348 14.1999C22.7648 14.2349 22.7648 14.3199 22.7348 14.3649C22.7148 14.4149 22.7098 14.4899 22.7548 14.4499C22.8048 14.4049 22.8248 14.4499 22.8598 14.5099C22.8898 14.5599 22.9198 14.5449 22.9598 14.5349C22.9454 14.5095 22.9337 14.4827 22.9248 14.4549H22.9298ZM23.5798 15.6349C23.5598 15.6949 23.5248 15.6799 23.4948 15.6499C23.4648 15.6199 23.4298 15.6199 23.4448 15.5599C23.4548 15.5049 23.4448 15.4949 23.4098 15.4649L23.3948 15.4499H23.3548C23.2798 15.4499 23.2748 15.4349 23.2298 15.3899C23.2218 15.3829 23.2135 15.3762 23.2048 15.3699V15.4099C23.2048 15.4649 23.2048 15.4499 23.1548 15.4699C23.1048 15.4849 23.1048 15.4149 23.0948 15.3699C23.0941 15.3598 23.0924 15.3497 23.0898 15.3399C23.0539 15.3319 23.0209 15.3141 22.9944 15.2885C22.9679 15.2629 22.9491 15.2305 22.9398 15.1949C22.9148 15.1149 22.9398 15.1099 22.9698 15.1599C22.9998 15.2099 23.0048 15.2249 23.0498 15.2599C23.0898 15.2849 23.1098 15.2349 23.0898 15.1749C23.0871 15.1533 23.0871 15.1315 23.0898 15.1099C23.0823 15.0893 23.0683 15.0717 23.0498 15.0599C22.9598 15.0249 22.9898 15.0199 22.9898 14.9499C22.9998 14.8849 22.9848 14.8849 22.9298 14.9199C22.8798 14.9549 22.8798 14.9199 22.8798 14.8099C22.8798 14.7099 22.8098 14.7099 22.7948 14.7799C22.7798 14.8549 22.7498 14.8049 22.7248 14.7049C22.6998 14.6049 22.6498 14.5749 22.6498 14.6749C22.6498 14.7599 22.6198 14.7749 22.5698 14.7349L22.5898 14.8899C22.6148 15.0549 22.6548 14.9899 22.7398 15.0649C22.8198 15.1349 22.7948 15.1749 22.8248 15.2099C22.8548 15.2449 22.8598 15.2699 22.8548 15.3099C22.8398 15.3499 22.8248 15.3849 22.8398 15.4199C22.8548 15.4599 22.8798 15.4699 22.8798 15.5249C22.8798 15.5749 22.8898 15.5699 22.9148 15.5849H22.9548L22.9898 15.5349C23.0548 15.4749 23.1398 15.5349 23.1748 15.6199C23.2048 15.6949 23.2398 15.7149 23.2898 15.6499C23.3398 15.5899 23.3198 15.5999 23.3698 15.6549C23.4198 15.7149 23.4398 15.7049 23.4398 15.7049C23.4398 15.7049 23.4898 15.6849 23.5298 15.7149C23.5648 15.7449 23.5798 15.7399 23.6498 15.6449C23.7148 15.5449 23.6198 15.5749 23.5898 15.6349H23.5798ZM23.7698 12.8449C23.7898 12.6949 23.7748 12.5499 23.8348 12.4949C23.8998 12.4449 23.9698 12.3299 23.9698 12.5649C23.9598 12.7949 23.9498 12.7799 23.9048 12.8349C23.8548 12.8899 23.8148 12.9049 23.8548 12.9899C23.9098 13.0749 23.9148 13.0899 23.9098 13.2199C23.9048 13.3549 23.9048 13.4149 23.9548 13.4799C24.0098 13.5499 24.0248 13.5499 24.0398 13.6299C24.0555 13.7155 24.0975 13.7942 24.1598 13.8549C24.2198 13.9149 24.2898 14.0649 24.2948 14.1749C24.3048 14.2849 24.3948 14.3099 24.4848 14.3899C24.5748 14.4649 24.4648 14.5149 24.3998 14.4799C24.3298 14.4499 24.3548 14.4799 24.3148 14.5299C24.2748 14.5799 24.2648 14.5849 24.2298 14.4999C24.1948 14.4199 24.0798 14.3649 24.0248 14.3449C23.9698 14.3249 23.9248 14.2349 23.8748 14.1449C23.8548 14.1095 23.8267 14.0793 23.7928 14.0567C23.7589 14.0341 23.7202 14.0198 23.6798 14.0149C23.6998 14.0699 23.7098 14.1149 23.7048 14.1349C23.6848 14.2099 23.6648 14.2649 23.7398 14.3549C23.8248 14.4399 23.8748 14.5699 23.8898 14.6449C23.8898 14.7199 23.9048 14.7449 23.9898 14.7199C24.0442 14.7034 24.0939 14.6743 24.1348 14.6349C24.1598 14.5999 24.2148 14.5999 24.2898 14.6449C24.3648 14.6849 24.4798 14.7249 24.5498 14.6849C24.6148 14.6399 24.6498 14.5849 24.7098 14.5849C24.8048 14.5149 24.8398 14.3699 24.8598 14.3349C24.8798 14.2849 24.8648 14.2849 24.8248 14.2499C24.7848 14.2099 24.8048 14.1399 24.7948 14.0749C24.7948 14.0049 24.7648 13.9049 24.6848 13.7549C24.5998 13.6049 24.5498 13.4249 24.4998 13.3799C24.4498 13.3299 24.4148 13.2149 24.4148 13.1599C24.4048 13.1099 24.3448 13.0599 24.3048 13.0149C24.2598 12.9749 24.2198 12.9149 24.1748 12.6799C24.1398 12.4949 24.1048 12.3499 24.0998 12.2799C24.0498 12.3549 24.0148 12.3799 23.9998 12.3199C23.9748 12.2599 23.9548 12.2299 23.9248 12.2699C23.8998 12.3099 23.8898 12.2299 23.8898 12.1949C23.8898 12.1599 23.8898 12.1599 23.8448 12.1599C23.8048 12.1599 23.8448 12.1099 23.8298 11.9999C23.8148 11.8999 23.7948 11.8899 23.7848 12.0099C23.7698 12.1299 23.6998 12.2099 23.7298 12.2299C23.7548 12.2599 23.7398 12.3149 23.7148 12.3949C23.6929 12.4529 23.6929 12.5169 23.7148 12.5749C23.7348 12.6249 23.7048 12.7349 23.6948 12.8199C23.6798 12.9049 23.7498 12.9949 23.7698 12.8499V12.8449ZM22.5298 11.6349C22.4798 11.6349 22.4448 11.6849 22.4748 11.8349C22.4948 11.9349 22.4248 11.9149 22.3948 11.8649C22.3698 11.8149 22.3448 11.7149 22.2948 11.6299C22.2398 11.5449 22.2648 11.6849 22.2598 11.7699C22.2498 11.8549 22.3048 11.8549 22.3498 11.9199C22.3998 11.9899 22.3598 12.0149 22.3098 12.0149C22.2598 12.0149 22.2748 12.1249 22.2898 12.1949C22.3048 12.2699 22.2748 12.2849 22.2398 12.2249C22.1898 12.1599 22.2248 12.0749 22.2298 11.9549C22.2398 11.8399 22.2448 11.8649 22.1698 11.8399C22.0948 11.8099 22.1048 11.7949 22.1398 11.7299C22.1648 11.6599 22.1898 11.6299 22.1548 11.5949C22.1248 11.5599 22.1298 11.5399 22.1848 11.5349C22.2348 11.5249 22.2148 11.4849 22.2648 11.4749C22.3148 11.4599 22.3348 11.4749 22.3398 11.3899C22.3448 11.3149 22.3698 11.2749 22.4248 11.2949C22.4598 11.4099 22.4998 11.5849 22.5298 11.6349ZM23.2148 12.4349C23.2148 12.5749 23.2148 12.6349 23.2748 12.6849C23.3348 12.7349 23.3248 12.7949 23.3548 12.9199C23.3848 13.0499 23.3848 13.3299 23.4648 13.5199L23.5548 13.7199C23.5971 13.6843 23.6312 13.6399 23.6548 13.5899C23.6698 13.5499 23.6098 13.4499 23.5648 13.3749C23.5148 13.2849 23.5698 13.2599 23.6148 13.1549C23.6648 13.0599 23.6148 13.0549 23.5348 13.0249C23.4648 12.9999 23.4648 12.9249 23.4248 12.8199C23.3848 12.7099 23.3898 12.6649 23.4148 12.5999C23.4398 12.5399 23.4248 12.4949 23.3698 12.4799C23.3148 12.4649 23.3298 12.4299 23.3498 12.3599C23.3698 12.2949 23.3848 12.2799 23.2998 12.2949C23.2398 12.3149 23.2248 12.3299 23.2048 12.3449L23.2148 12.4349Z" fill="#00B800"/>
<path d="M23.9945 12.7149C23.9845 12.7949 23.9845 12.8399 23.9645 12.8649C23.9445 12.8899 23.9595 12.9299 23.9795 12.9749C24.0045 13.0149 24.0095 13.0649 23.9945 13.1449C23.9745 13.2199 24.0045 13.2749 24.0445 13.2949C24.0845 13.3149 24.1045 13.2949 24.0945 13.3949C24.0903 13.438 24.0957 13.4814 24.1104 13.5221C24.1251 13.5627 24.1487 13.5996 24.1795 13.6299C24.2295 13.6699 24.2645 13.7349 24.2545 13.7799C24.2545 13.8199 24.2895 13.8549 24.3395 13.8799C24.3895 13.8999 24.3795 13.9049 24.3795 13.9299C24.3795 13.9549 24.3995 13.9599 24.4495 13.9749C24.4995 13.9899 24.5495 14.0199 24.6095 14.0949C24.6695 14.1749 24.7595 14.2099 24.7445 14.1299C24.7295 14.0549 24.7445 13.9899 24.6645 13.9549C24.5795 13.9149 24.5195 13.7199 24.4895 13.5849C24.4526 13.4521 24.384 13.3303 24.2895 13.2299C24.2745 13.1299 24.2895 13.0849 24.2295 13.0399C24.2038 13.0218 24.1826 12.9979 24.1679 12.9701C24.1531 12.9423 24.1451 12.9114 24.1445 12.8799C24.1445 12.8399 24.1145 12.7799 24.0845 12.7599C24.0595 12.7449 24.0445 12.7149 24.0445 12.6699C24.0445 12.6299 24.0045 12.6349 23.9945 12.7199V12.7149Z" fill="#5D3100"/>
<path d="M23.6348 16.35C23.8018 16.3244 23.9648 16.2773 24.1198 16.21C24.2048 16.265 24.3448 16.34 24.4048 16.34C24.2898 16.365 24.2098 16.355 24.1848 16.33C24.1998 16.365 24.2348 16.425 24.2648 16.43C24.1498 16.43 24.0248 16.4 23.9848 16.36C23.8848 16.4 23.7248 16.41 23.6348 16.35ZM23.8498 16.5C23.8948 16.515 24.1098 16.55 24.1398 16.55C24.0698 16.61 24.1298 16.67 24.2448 16.66C24.1948 16.67 24.1248 16.69 24.1698 16.7C24.3224 16.6981 24.4734 16.6675 24.6148 16.61C24.5148 16.735 24.0448 16.85 23.8498 16.5ZM24.0498 16.805C24.1376 16.7832 24.2299 16.7884 24.3148 16.82C24.2448 16.85 24.0898 16.85 24.0448 16.81L24.0498 16.805Z" fill="#00D860"/>
<path d="M24.2648 16.8049C24.3648 16.7899 24.6648 16.8549 24.7648 16.7949C24.7298 16.8899 24.5498 16.9049 24.4798 16.8799C24.4148 16.8649 24.3548 16.8399 24.3098 16.8399C24.3398 16.8249 24.2998 16.8249 24.2598 16.8049H24.2648Z" fill="black"/>
<path d="M24.3699 16.95C24.5218 16.9541 24.6735 16.9356 24.8199 16.895C24.9049 16.925 25.0899 16.975 25.1299 16.97C25.0449 17.02 24.8799 16.99 24.8299 16.97C24.7564 17.0004 24.6771 17.0144 24.5977 17.0109C24.5182 17.0075 24.4404 16.9867 24.3699 16.95Z" fill="#00D860"/>
<path d="M24.4997 16.995C24.6147 17.02 24.7147 17.005 24.8247 16.97C24.8597 16.98 24.9397 17 25.0197 17C25.0697 17.025 25.1347 17.065 25.2047 17.075C25.0787 17.0922 24.9504 17.0802 24.8297 17.04C24.6925 17.0361 24.5561 17.0617 24.4297 17.115C24.4321 17.0912 24.4402 17.0684 24.4533 17.0484C24.4663 17.0284 24.4839 17.0118 24.5047 17L24.4997 16.995Z" fill="#00D860"/>
<path d="M24.3696 16.43C24.4546 16.455 24.7796 16.44 24.9346 16.365C25.0046 16.33 25.0446 16.385 24.9696 16.405C24.7096 16.505 24.4946 16.535 24.3446 16.455C24.2846 16.425 24.2746 16.395 24.3696 16.425V16.43Z" fill="black"/>
<path d="M25.9299 15.9899C25.5349 16.1749 25.2799 16.2299 24.7349 16.0599C24.6849 16.0499 24.6499 16.0599 24.7049 16.0949C24.8413 16.1539 24.9839 16.1975 25.1299 16.2249C25.1999 16.2299 25.1749 16.2599 25.1299 16.2749C25.0899 16.2849 25.0799 16.3149 25.1349 16.2949C25.1899 16.2699 25.5249 16.2599 25.6599 16.3299C25.7149 16.3649 25.7299 16.3549 25.7249 16.3299C25.7199 16.3099 25.7499 16.2949 25.7949 16.2899C25.8349 16.2849 25.8649 16.2699 25.8299 16.2599C25.7949 16.2449 25.7899 16.2349 25.8149 16.2249C25.8399 16.2099 25.8449 16.1949 25.8049 16.1899C25.7699 16.1799 25.7399 16.1699 25.7749 16.1549C25.8162 16.1368 25.8601 16.125 25.9049 16.1199C25.9149 16.0949 25.8999 16.0199 25.9299 15.9899Z" fill="#00D860"/>
<path d="M25.2795 16.0349C25.5895 16.0395 25.891 15.9331 26.1295 15.7349C26.2095 15.7849 26.3145 15.8349 26.3745 15.8449C26.4295 15.8549 26.4745 15.9049 26.3895 15.9049C26.3045 15.9049 26.1895 15.8699 26.1295 15.8449C25.8745 16.0011 25.578 16.0761 25.2795 16.0599C25.2245 16.0599 25.2095 16.0349 25.2795 16.0399V16.0349Z" fill="black"/>
<path d="M24.615 14.8149C24.695 14.8699 24.83 14.9599 25.005 14.9449C25.0895 15.0126 25.1863 15.0636 25.29 15.0949C25.17 15.1349 25.04 15.1799 25.01 15.2149C24.96 15.1649 24.885 15.1749 24.87 15.1449C24.82 15.1949 24.825 15.2099 24.86 15.2349C24.9734 15.2687 25.0916 15.2839 25.21 15.2799C25.27 15.2599 25.295 15.3149 25.24 15.3299C25.105 15.3799 24.84 15.3299 24.75 15.1849C24.65 15.0399 24.575 14.9849 24.325 15.1199C24.3 15.0449 24.3 15.0349 24.25 15.0349C24.2 15.0349 24.11 14.9699 24.18 14.9699C24.25 14.9699 24.45 14.9399 24.615 14.8199V14.8149Z" fill="#00D860"/>
<path d="M24.6803 15.15C24.6303 15.155 24.5153 15.22 24.4753 15.225C24.4303 15.235 24.3553 15.295 24.4303 15.295C24.5153 15.295 24.6153 15.21 24.6703 15.21C24.7253 15.21 24.7303 15.135 24.6803 15.145V15.15ZM24.9303 15.4C24.8953 15.41 24.7653 15.44 24.7303 15.44C24.6953 15.44 24.6553 15.44 24.6603 15.47C24.6653 15.495 24.6753 15.515 24.6153 15.505C24.5653 15.495 24.5203 15.52 24.5103 15.535C24.4953 15.55 24.4853 15.565 24.5403 15.57C24.5903 15.57 24.6203 15.585 24.6853 15.55C24.7453 15.52 24.8003 15.485 24.8653 15.48C24.9303 15.48 24.9953 15.39 24.9253 15.405L24.9303 15.4Z" fill="#00D860"/>
<path d="M24.7449 15.555C24.7999 15.6 25.0749 15.685 25.1699 15.685C25.2699 15.68 25.2549 15.72 25.1799 15.735C25.0949 15.7475 25.0082 15.742 24.9255 15.7187C24.8428 15.6955 24.7659 15.655 24.6999 15.6C24.6399 15.55 24.6999 15.53 24.7399 15.555H24.7449Z" fill="black"/>
<path d="M26.0389 15.7C25.8727 15.7468 25.6976 15.752 25.5289 15.715C25.4439 15.685 25.3639 15.685 25.4289 15.745C25.4789 15.8 25.6689 15.835 25.7789 15.81C25.3989 15.895 25.2989 15.89 25.2089 15.875C25.0928 15.8609 24.9756 15.8575 24.8589 15.865C24.8031 15.874 24.7459 15.8671 24.6939 15.845C24.6589 15.82 24.6489 15.79 24.7489 15.8C24.8489 15.805 24.8639 15.79 24.7789 15.775C24.6889 15.76 24.5739 15.795 24.6889 15.875C24.8089 15.945 25.0589 15.865 25.2239 15.915C25.3681 15.9525 25.5193 15.9549 25.6646 15.9218C25.8099 15.8887 25.9451 15.8212 26.0589 15.725C26.0739 15.715 26.1039 15.675 26.0389 15.695V15.7ZM25.0089 15.385C25.0189 15.415 25.0189 15.435 25.0089 15.455C24.9989 15.475 25.0039 15.5 25.0339 15.475C25.0639 15.45 25.0839 15.415 25.1239 15.435C25.1589 15.45 25.2389 15.45 25.2739 15.445C25.3139 15.445 25.3239 15.43 25.2739 15.41C25.2281 15.3903 25.1788 15.3801 25.1289 15.38C25.0989 15.385 25.0589 15.38 25.0339 15.365C25.0089 15.35 25.0039 15.365 25.0089 15.385Z" fill="#00D860"/>
<path d="M25.5497 15.485C25.5097 15.485 25.4297 15.455 25.3947 15.435C25.3547 15.42 25.2947 15.42 25.3347 15.485C25.3797 15.545 25.5647 15.57 25.6347 15.545C25.6997 15.515 25.6747 15.485 25.7347 15.525C25.8047 15.565 25.8697 15.59 25.9197 15.59C25.9697 15.59 25.9847 15.59 25.9347 15.56C25.8847 15.53 25.8547 15.525 25.8447 15.5C25.8347 15.475 25.8347 15.455 25.8897 15.475C25.9397 15.49 25.9897 15.515 26.0297 15.495C26.0697 15.475 26.1397 15.43 26.2047 15.43L26.2147 15.39C26.1247 15.39 26.0647 15.415 26.0397 15.42C26.0197 15.43 25.9697 15.44 25.9197 15.43C25.8697 15.42 25.8097 15.415 25.7947 15.405C25.7747 15.39 25.7797 15.38 25.8197 15.375C25.8597 15.365 25.8697 15.34 25.8197 15.345C25.7697 15.355 25.6097 15.355 25.5297 15.33C25.4547 15.305 25.4197 15.3 25.3897 15.315C25.3547 15.325 25.3597 15.365 25.4047 15.365C25.4547 15.365 25.5647 15.38 25.6047 15.415C25.6347 15.45 25.6347 15.45 25.5947 15.435C25.5497 15.415 25.4697 15.425 25.5497 15.485Z" fill="#00D860"/>
<path d="M26.2142 15.39L26.1992 15.43C26.2942 15.43 26.5192 15.45 26.5992 15.495C26.6692 15.44 26.6542 15.42 26.6992 15.435C26.7492 15.45 26.8192 15.46 26.8492 15.45C26.8719 15.437 26.8989 15.4334 26.9242 15.44C26.9542 15.44 27.0242 15.43 27.0592 15.41C27.0992 15.385 27.1792 15.36 27.2242 15.36C27.2642 15.36 27.3242 15.345 27.2392 15.33C27.1592 15.315 27.0292 15.345 26.9892 15.36C26.9392 15.375 26.8142 15.385 26.7392 15.385C26.6642 15.385 26.5592 15.42 26.4742 15.4C26.3842 15.38 26.2642 15.39 26.2092 15.39H26.2142Z" fill="#00D860"/>
<path d="M27.3945 15.35C27.2445 15.46 27.0545 15.485 26.8395 15.5C26.7745 15.5 26.7945 15.52 26.8495 15.525C27.0795 15.55 27.3395 15.465 27.4295 15.375C27.4545 15.345 27.4495 15.305 27.3945 15.345V15.35Z" fill="black"/>
<path d="M26.3542 15.6099C26.478 15.6285 26.6 15.6569 26.7192 15.6949C26.7792 15.6849 26.7942 15.6749 26.7842 15.6499C26.7692 15.6299 26.7642 15.6099 26.8692 15.6199H27.2442C27.2842 15.6049 27.3592 15.5449 27.3942 15.5449C27.3042 15.5449 26.9192 15.5649 26.8742 15.5599C26.8242 15.5599 26.7992 15.5599 26.7692 15.5799C26.7392 15.5949 26.7242 15.6049 26.6842 15.5849C26.6342 15.5699 26.5792 15.5499 26.5342 15.5799C26.5042 15.5999 26.4192 15.5799 26.3542 15.6099Z" fill="#00D860"/>
<path d="M27.2448 15.62C27.2798 15.605 27.3598 15.545 27.3948 15.54C27.4648 15.535 27.5348 15.56 27.5698 15.57C27.6048 15.58 27.6448 15.57 27.6198 15.54C27.5998 15.515 27.6198 15.46 27.7198 15.475C27.8298 15.485 27.8798 15.505 27.9848 15.495C28.0898 15.485 28.1298 15.56 28.3198 15.485C28.3098 15.56 28.3448 15.565 28.3798 15.55C28.4148 15.54 28.4548 15.54 28.5148 15.585C28.5798 15.635 28.9498 15.635 29.0348 15.62C29.1248 15.605 29.1648 15.65 29.0998 15.67C29.0348 15.69 29.0198 15.72 29.0348 15.745C29.0498 15.765 29.0648 15.79 28.9848 15.78C28.8998 15.77 28.8848 15.795 28.8498 15.82C28.8098 15.85 28.7998 15.87 28.6848 15.845C28.5748 15.825 28.5498 15.84 28.4898 15.845C28.4298 15.855 28.4148 15.86 28.3498 15.84C28.2616 15.8082 28.166 15.803 28.0748 15.825C27.9948 15.855 27.9398 15.875 27.8648 15.855C27.7898 15.84 27.7898 15.845 27.8348 15.805C27.8748 15.755 27.8848 15.755 27.9748 15.75C28.0648 15.74 28.1248 15.715 28.0698 15.68C28.0048 15.645 27.9898 15.65 27.9048 15.685C27.8248 15.725 27.7848 15.755 27.6898 15.705C27.5998 15.655 27.5598 15.66 27.4898 15.68C27.4298 15.695 27.3298 15.655 27.2448 15.62ZM27.5498 15.77C27.4298 15.79 27.3998 15.715 27.2798 15.725C27.2398 15.735 27.1698 15.785 27.2648 15.775C27.3598 15.77 27.4648 15.82 27.5548 15.815C27.6448 15.81 27.6048 15.765 27.5548 15.77H27.5498ZM27.4198 15.855C27.4748 15.835 27.5998 15.88 27.6598 15.87C27.7148 15.86 27.7598 15.89 27.6998 15.915C27.6398 15.935 27.5148 15.88 27.4498 15.895C27.3948 15.915 27.3298 15.89 27.4148 15.855H27.4198ZM26.1998 16.19C26.2848 16.19 26.5898 16.175 26.7098 15.925C26.7198 15.905 26.7248 15.895 26.7598 15.925C26.7948 15.95 26.9398 16.03 27.1998 16.055C27.2748 16.055 27.3498 16.095 27.2048 16.09C27.0548 16.08 26.8248 16.04 26.7498 15.99C26.6148 16.195 26.3798 16.22 26.1998 16.215C26.0948 16.215 26.1198 16.185 26.1998 16.19Z" fill="#00D860"/>
<path d="M26.8549 15.84C26.8149 15.895 26.6749 15.99 26.6149 16C26.5499 16 26.3549 15.99 26.3099 15.97C26.2599 15.955 26.2049 15.955 26.2699 16.005C26.3617 16.0547 26.4657 16.0772 26.5699 16.07C26.6499 16.055 26.7249 16.03 26.7799 16.07C26.8299 16.1 26.9299 16.16 26.9899 16.15C27.0499 16.135 27.1649 16.135 27.2049 16.15C27.2449 16.17 27.3099 16.23 27.2099 16.2C27.1099 16.165 27.0299 16.19 26.9849 16.17C27.0349 16.24 27.1499 16.355 27.2449 16.355C27.2699 16.355 27.2899 16.4 27.2449 16.42C27.2849 16.44 27.3949 16.465 27.4599 16.405C27.4399 16.43 27.4499 16.44 27.4749 16.45C27.4999 16.46 27.5299 16.48 27.4849 16.49C27.4349 16.5 27.3349 16.505 27.3049 16.49C27.4049 16.555 27.6549 16.66 27.9199 16.605C27.9699 16.6 27.9999 16.575 27.9199 16.58C27.7449 16.58 27.7349 16.58 27.7049 16.565C27.6749 16.545 27.6849 16.53 27.7349 16.515C27.8053 16.4968 27.8773 16.4851 27.9499 16.48C27.9999 16.48 28.0549 16.465 27.9499 16.465C27.8499 16.465 27.7199 16.465 27.6649 16.445C27.6149 16.43 27.5799 16.4 27.6349 16.365C27.6849 16.33 27.7399 16.34 27.7649 16.315C27.5999 16.315 27.3949 16.215 27.5049 16.135C27.5299 16.12 27.5249 16.115 27.4849 16.11C27.4076 16.0948 27.3322 16.0713 27.2599 16.04C27.2099 16.015 27.2399 15.985 27.2849 15.975C27.1849 15.99 26.9849 15.94 26.8549 15.845V15.84ZM28.3449 15.84C28.2549 15.905 28.0799 15.94 28.0049 15.94C27.9349 15.94 27.9199 15.96 27.9799 15.965C28.0399 15.97 28.1049 15.985 28.1299 15.975C28.1549 15.965 28.1749 15.965 28.2099 15.985C28.2715 16.0056 28.3382 16.0056 28.3999 15.985C28.4749 15.965 28.5849 15.955 28.6349 15.955C28.6849 15.96 28.7349 15.96 28.6349 15.935C28.5449 15.91 28.3849 15.925 28.3449 15.935C28.3099 15.945 28.2049 15.935 28.2599 15.925C28.3149 15.91 28.3599 15.875 28.3899 15.855L28.3449 15.84ZM28.2949 16.04C28.206 16.1062 28.1003 16.146 27.9899 16.155C28.0899 16.195 28.1799 16.305 28.2499 16.295C28.2149 16.32 28.1749 16.345 28.1349 16.355C28.228 16.3707 28.3236 16.353 28.4049 16.305C28.5549 16.345 28.7549 16.315 28.8199 16.255C28.7199 16.255 28.6049 16.225 28.5499 16.175C28.5999 16.175 28.6449 16.15 28.6649 16.12C28.5499 16.14 28.3649 16.085 28.2999 16.03L28.2949 16.04Z" fill="#00D860"/>
<path d="M28.135 16.35C28.175 16.35 28.22 16.32 28.25 16.3C28.0561 16.3138 27.8625 16.2685 27.695 16.17C27.585 16.075 27.585 16.15 27.66 16.215C27.7232 16.2746 27.7997 16.3183 27.8831 16.3427C27.9666 16.367 28.0546 16.3712 28.14 16.355L28.135 16.35ZM28.405 16.585C28.36 16.61 28.14 16.63 28.07 16.61C27.995 16.595 27.97 16.6 27.98 16.635C27.995 16.665 28.01 16.685 27.95 16.675C27.8824 16.672 27.8148 16.6804 27.75 16.7C27.7 16.71 27.65 16.75 27.74 16.735C27.835 16.725 27.915 16.705 27.99 16.72C28.055 16.735 28.295 16.74 28.34 16.72C28.39 16.7 28.36 16.705 28.34 16.705C28.315 16.705 28.305 16.69 28.34 16.67C28.375 16.655 28.395 16.62 28.405 16.585ZM26.29 16.295C26.1336 16.3494 25.9731 16.3912 25.81 16.42C25.71 16.465 25.63 16.49 25.58 16.49C25.615 16.52 25.755 16.55 25.805 16.535C25.775 16.57 25.705 16.6 25.68 16.62C25.765 16.605 25.855 16.63 25.9 16.635C25.7973 16.6898 25.681 16.7141 25.565 16.705C25.595 16.735 25.63 16.77 25.675 16.77C25.5855 16.7959 25.4911 16.7993 25.4 16.78C25.43 16.83 25.45 16.86 25.49 16.87C25.405 16.875 25.305 16.89 25.22 16.84C25.285 16.93 25.43 16.955 25.65 16.93C25.87 16.905 26.05 16.81 26.1 16.77C26.01 16.78 25.885 16.785 25.83 16.77C25.9816 16.7296 26.1264 16.6672 26.26 16.585C26.2098 16.5846 26.1609 16.5689 26.12 16.54C26.2546 16.5467 26.3894 16.5332 26.52 16.5C26.4494 16.4848 26.3869 16.4438 26.345 16.385C26.6217 16.4647 26.9141 16.4733 27.195 16.41C27.235 16.4 27.235 16.345 27.16 16.355C27.02 16.365 26.745 16.325 26.67 16.29C26.7297 16.3325 26.7979 16.3615 26.87 16.375C26.745 16.415 26.56 16.44 26.29 16.29V16.295Z" fill="#00D860"/>
<path d="M25.6794 16.62C25.7044 16.6 25.7794 16.57 25.8044 16.535C25.7494 16.55 25.6144 16.52 25.5794 16.485C25.6294 16.485 25.7094 16.465 25.8094 16.42C25.6294 16.415 25.5094 16.415 25.4344 16.375C25.3644 16.335 25.2494 16.355 25.1994 16.365C25.1494 16.37 25.1694 16.45 25.3644 16.43C25.2453 16.4833 25.1132 16.5007 24.9844 16.48C25.0044 16.55 25.0194 16.615 24.9994 16.655C25.1044 16.715 25.3844 16.79 25.5244 16.78C25.3994 16.735 25.3344 16.685 25.4344 16.67C25.5344 16.66 25.5944 16.64 25.6844 16.62H25.6794Z" fill="#00D860"/>
<path d="M25.3654 16.95C25.6054 16.93 25.9354 16.925 26.1954 16.7C26.2604 16.65 26.3054 16.67 26.2404 16.725C26.0102 16.9037 25.7313 17.0083 25.4404 17.025C25.3054 17.025 25.2454 16.96 25.3654 16.945V16.95Z" fill="black"/>
<path d="M27.1845 16.5499C27.0937 16.5772 26.9993 16.5906 26.9045 16.5899C26.8496 16.5777 26.7925 16.5812 26.7395 16.5999C26.6995 16.6249 26.6945 16.6499 26.7495 16.6499L26.9145 16.6599C26.8794 16.678 26.8486 16.7036 26.8245 16.7349C26.9145 16.7149 27.0595 16.7499 27.1045 16.7749C27.0873 16.7785 27.0696 16.7786 27.0524 16.7751C27.0353 16.7717 27.0189 16.7648 27.0045 16.7549C27.1395 16.9049 27.5495 16.9049 27.6145 16.8749C27.5845 16.8999 27.5545 16.9249 27.5295 16.9249C27.6395 16.9499 27.7695 16.9449 27.9045 16.8749L27.6945 16.8649C27.7225 16.8372 27.7568 16.8166 27.7945 16.8049C27.7445 16.7949 27.5845 16.7999 27.5445 16.8199C27.5594 16.7841 27.5858 16.7542 27.6195 16.7349C27.4195 16.7349 27.1745 16.7349 27.0895 16.6849C27.2245 16.7049 27.3845 16.6199 27.4495 16.6199C27.3395 16.6199 27.2195 16.5949 27.1895 16.5449L27.1845 16.5499ZM26.6795 16.6499C26.5795 16.6749 26.4295 16.7199 26.3845 16.7399C26.3445 16.7649 26.3045 16.7749 26.3895 16.7749C26.3995 16.7732 26.4095 16.7716 26.4195 16.7699C26.3845 16.7699 26.3445 16.7699 26.4145 16.7449C26.4795 16.7249 26.5645 16.6799 26.6745 16.6599L26.6795 16.6499ZM26.4795 16.8949C26.5145 16.8949 26.6645 16.8949 26.7295 16.8449C26.7895 16.8849 26.9145 16.9549 26.9895 16.9549C27.0695 16.9549 27.0595 16.9749 26.9895 16.9849C26.8934 16.9818 26.8 16.9524 26.7195 16.8999C26.6295 16.9349 26.5545 16.9049 26.4695 16.8949H26.4795ZM25.2995 17.5799C25.4613 17.6514 25.6413 17.6706 25.8145 17.6349C25.9045 17.7099 26.0795 17.7149 26.1745 17.6949C26.2745 17.6749 26.3595 17.6649 26.4695 17.6949C26.5695 17.7349 26.7895 17.7399 26.8545 17.7899L26.6495 17.7949C26.6195 17.8049 26.6345 17.8199 26.6895 17.8449C26.4911 17.843 26.2958 17.8949 26.1245 17.9949C26.1501 17.9372 26.1923 17.8883 26.2457 17.8545C26.2991 17.8207 26.3613 17.8034 26.4245 17.8049C26.3345 17.7749 26.0395 17.7699 25.9395 17.8299C25.9129 17.801 25.8925 17.767 25.8795 17.7299C25.7245 17.8149 25.4195 17.6849 25.2945 17.5799H25.2995ZM24.8995 17.2899C25.032 17.2789 25.1586 17.2303 25.2645 17.1499C25.2995 17.1799 25.4395 17.2099 25.5895 17.1649C25.5595 17.1849 25.5545 17.2299 25.5645 17.2499C25.4438 17.2611 25.3256 17.2915 25.2145 17.3399C25.1545 17.3699 24.9645 17.3949 24.9045 17.3599C24.8445 17.3299 24.8445 17.2999 24.8945 17.2899H24.8995Z" fill="#00D860"/>
<path d="M25.5648 17.2551C25.4441 17.2663 25.326 17.2967 25.2148 17.3451L25.2398 17.4301C25.4882 17.3591 25.7471 17.332 26.0048 17.3501C25.9248 17.3551 25.7798 17.4401 25.6998 17.4451C25.8998 17.4301 26.0898 17.4701 26.1398 17.4851C26.1898 17.4951 26.2048 17.5351 26.1648 17.5751C26.1248 17.6201 26.1098 17.6101 26.1898 17.6201C26.2698 17.6201 26.4398 17.6051 26.5148 17.5301C26.4798 17.5001 26.4048 17.5151 26.3798 17.4851C26.4303 17.469 26.4765 17.4416 26.5148 17.4051C26.4379 17.4071 26.3609 17.4021 26.2848 17.3901C26.2448 17.3801 26.2098 17.3651 26.2648 17.3351C26.3027 17.3167 26.3366 17.2912 26.3648 17.2601C26.2648 17.2851 26.1098 17.3101 25.9748 17.2101C26.0248 17.2201 26.1398 17.2101 26.1798 17.1951C26.1467 17.1736 26.1091 17.1599 26.0698 17.1551C26.1698 17.1051 26.3698 17.0601 26.6348 17.1601C26.7535 17.1511 26.8729 17.1578 26.9898 17.1801C27.0398 17.1401 27.1198 17.0401 27.1648 17.0201C26.8648 17.0401 26.3248 16.9901 26.3398 16.8301C26.2398 16.9601 26.0148 17.0301 25.9198 17.0101C25.9098 17.0501 25.9498 17.1101 25.9848 17.1401C25.8848 17.1601 25.7098 17.1801 25.6298 17.1601C25.6798 17.2051 25.7598 17.2451 25.8098 17.2451C25.7098 17.2451 25.6498 17.2651 25.5648 17.2551Z" fill="#00D860"/>
<path d="M26.1848 17.615C26.2748 17.615 26.4348 17.605 26.5148 17.53C26.4798 17.5 26.4048 17.515 26.3798 17.485C26.4303 17.4688 26.4764 17.4415 26.5148 17.405C26.7348 17.385 26.9198 17.395 27.0148 17.37C27.1048 17.345 27.3398 17.355 27.3848 17.345C27.1798 17.38 27.1398 17.395 27.1348 17.43C27.1248 17.465 27.1948 17.485 27.2448 17.485C27.1598 17.485 27.0398 17.58 27.0248 17.62C26.9048 17.55 26.8548 17.63 26.8348 17.66C26.7848 17.64 26.6148 17.645 26.5298 17.72C26.4198 17.685 26.3448 17.67 26.2298 17.685C26.3048 17.67 26.2898 17.62 26.1898 17.615H26.1848ZM27.1598 17.015C27.2298 17.015 27.3798 17.025 27.4348 17.015C27.4013 17.0313 27.3709 17.0533 27.3448 17.08C27.5198 17.06 27.7548 17.045 27.8248 17.06C27.7348 17.045 27.6498 17.105 27.6048 17.13C27.5648 17.155 27.5898 17.175 27.6498 17.18C27.7098 17.19 27.7848 17.23 27.6798 17.22C27.5798 17.21 27.3598 17.205 27.3098 17.21C27.2598 17.22 27.2298 17.195 27.3098 17.18C27.3639 17.1719 27.4162 17.155 27.4648 17.13C27.4048 17.145 27.2898 17.145 27.2498 17.13C27.2098 17.115 27.1948 17.105 27.2348 17.09C27.2798 17.075 27.2498 17.07 27.2048 17.075C27.1598 17.075 27.0548 17.125 26.9898 17.18C27.0548 17.11 27.1198 17.05 27.1598 17.02V17.015Z" fill="#00D860"/>
<path d="M26.39 17.1349C26.4321 17.1835 26.4844 17.2221 26.5432 17.2481C26.6019 17.274 26.6657 17.2866 26.73 17.2849C26.76 17.2849 26.83 17.3299 26.745 17.3349C26.53 17.3449 26.425 17.2899 26.33 17.1549C26.31 17.1249 26.345 17.0849 26.39 17.1349ZM27.665 15.3549C27.775 15.4049 28 15.4549 28.175 15.4499C28.21 15.4499 28.265 15.4799 28.19 15.4849C28.004 15.5077 27.8155 15.4728 27.65 15.3849C27.605 15.3599 27.62 15.3349 27.665 15.3549Z" fill="black"/>
<path d="M27.7747 15.355C27.9497 15.355 28.0797 15.355 28.1247 15.4C28.2247 15.375 28.4097 15.355 28.4447 15.365C28.4847 15.375 28.5347 15.35 28.4397 15.33C28.3397 15.31 28.1297 15.3 28.0597 15.315C27.9897 15.325 27.7747 15.335 27.7097 15.325C27.7347 15.325 27.7547 15.335 27.7747 15.355ZM28.4447 15.42C28.5247 15.38 28.7597 15.42 28.8297 15.39C28.7797 15.45 28.9947 15.455 29.1797 15.41C29.1097 15.45 28.9547 15.46 28.8897 15.49C28.8247 15.52 28.7897 15.495 28.7397 15.475C28.6479 15.4314 28.5458 15.414 28.4447 15.425V15.42Z" fill="#00D860"/>
<path d="M29.1803 15.41C28.9953 15.45 28.7803 15.45 28.8303 15.39C28.7603 15.42 28.5303 15.38 28.4453 15.42C28.5353 15.37 28.5953 15.415 28.6553 15.31C28.6953 15.315 28.7853 15.32 28.8153 15.28C28.8653 15.295 28.9653 15.315 28.9903 15.345C29.0153 15.375 29.0553 15.335 29.0253 15.295C29.1103 15.265 29.0553 15.33 29.2503 15.28C29.2953 15.27 29.3903 15.25 29.4253 15.25C29.3489 15.3135 29.2649 15.3672 29.1753 15.41H29.1803Z" fill="#00D860"/>
<path d="M25.5803 14.5549L25.5453 10.2149C25.5453 10.0199 25.4453 10.0649 25.4453 10.2149V14.5149L25.5803 14.5549ZM26.9903 9.98486L27.1453 14.5549L27.1253 14.5949H27.0253L26.9303 9.98486H26.9903ZM28.3203 13.8549L28.2403 10.1399C28.2403 10.0199 28.1403 10.0399 28.1403 10.1599L28.2203 13.8549H28.3203Z" fill="#FFFF00" stroke="black" stroke-width="0.02"/>
<path d="M26.2095 10.7451L24.8395 10.7251C24.7795 11.0001 25.1145 10.9751 25.2295 10.9251C25.3845 11.0201 25.5045 11.0201 25.5795 10.9251C25.6995 11.0201 25.8545 11.0001 25.9145 10.9251C26.0695 11.0601 26.2445 10.9251 26.2095 10.7251V10.7451ZM26.3095 11.4101H24.9345C24.6845 11.6451 24.9945 11.7601 25.2695 11.6051C25.3095 11.6851 25.4645 11.7201 25.5795 11.6651C25.6995 11.7401 25.8545 11.6851 25.9295 11.6051C26.0695 11.6651 26.2445 11.6851 26.3245 11.4051L26.3095 11.4101ZM26.2645 12.2901H24.9345C24.9195 12.5051 25.1895 12.4851 25.2845 12.4251C25.3845 12.5851 25.6195 12.5451 25.6995 12.4451C25.8345 12.5451 25.9495 12.5251 26.0095 12.4451C26.1495 12.5651 26.2845 12.4051 26.2645 12.2901ZM26.3495 13.1501L24.8445 13.1301C24.7645 13.3801 24.9995 13.4251 25.0945 13.3651C25.1395 13.5001 25.3345 13.4651 25.3945 13.3651C25.4695 13.4251 25.5695 13.3851 25.6045 13.3251C25.6245 13.4601 25.8045 13.4801 25.9395 13.3651C26.2145 13.5601 26.4645 13.3251 26.3295 13.1501H26.3495ZM27.6595 12.8001H26.4295C26.4845 13.0301 26.6045 13.0901 26.7995 12.9501C26.9545 13.1101 27.1895 13.0501 27.2495 12.9751C27.5245 13.1901 27.6595 12.9351 27.6595 12.7751V12.8001ZM27.5395 11.9401L26.3295 11.9001C26.3495 12.2101 26.6445 12.1901 26.7995 12.0751C26.8995 12.2101 27.0945 12.1751 27.1895 12.0751C27.3245 12.2301 27.5795 12.1351 27.5395 11.9401ZM27.6995 10.9801H26.3995C26.3995 11.1951 26.6895 11.3101 26.9045 11.1151C26.9645 11.3701 27.1995 11.2901 27.2995 11.1951C27.4495 11.3901 27.7845 11.1551 27.6895 10.9951L27.6995 10.9801ZM27.6195 10.3301L26.4445 10.3551C26.4445 10.5501 26.7195 10.6301 26.8195 10.4701C26.8795 10.5701 27.0695 10.5501 27.1295 10.4701C27.2095 10.6101 27.3295 10.5101 27.3645 10.4701C27.5045 10.5701 27.6395 10.5101 27.6195 10.3351V10.3301ZM28.9695 10.7651L27.5595 10.7451C27.5595 10.8801 27.6995 10.9451 27.7945 10.8801C27.7945 11.0401 27.9945 11.0801 28.1295 10.9601C28.2045 11.0951 28.4595 11.1151 28.5595 10.9601C28.7545 11.1351 28.9895 11.0001 28.9495 10.7601L28.9695 10.7651ZM28.9495 11.9151H27.5795C27.5795 12.1151 27.7945 12.1701 27.9295 12.0751C27.9545 12.2301 28.1295 12.2501 28.2295 12.1551C28.3645 12.2901 28.5595 12.3051 28.6795 12.1551C28.8295 12.2101 28.9695 12.0751 28.9495 11.9201V11.9151ZM28.8695 12.9551H27.7745C27.7745 13.1501 28.0095 13.1501 28.1095 13.0551C28.2245 13.1901 28.3845 13.1901 28.4795 13.0901C28.6145 13.2101 28.8495 13.1701 28.8695 12.9551Z" fill="white" stroke="black" stroke-width="0.02"/>
<path d="M27.1249 14.6C26.5399 14.6 25.9349 14.6 25.5249 14.555C25.1149 14.52 24.9949 14.44 24.7049 14.265L23.5999 13.6C23.5049 13.56 23.4099 13.62 23.5449 13.7L24.6399 14.42C24.8893 14.581 25.1134 14.7781 25.3049 15.005C25.5399 15.26 25.6949 15.26 25.8099 15.22C25.9299 15.185 26.0849 15.12 26.2599 15.165C26.4199 15.2 26.6499 15.22 26.7699 15.2C26.8699 15.3 27.1199 15.28 27.2599 15.24C27.3949 15.2 27.4949 15.2 27.5899 15.22H27.9249C28.0249 15.22 28.2749 15.165 28.4499 15.185C28.6499 15.22 28.8199 15.185 28.9399 15.185C29.0672 15.1519 29.1999 15.1451 29.3299 15.165C29.4499 15.085 29.4849 14.985 29.5299 14.89C29.6449 14.87 29.6799 14.85 29.6999 14.79L29.8199 14.48H29.8599V14.36L29.7799 14.245L29.8199 14.045L29.9199 14.01L29.8799 13.81L28.1599 13.855C28.0977 13.9118 28.0556 13.9872 28.0399 14.07L27.5299 14.145C27.4749 14.165 27.4149 14.165 27.3549 14.245L27.1249 14.6Z" fill="black" stroke="black" stroke-width="0.02"/>
<path d="M29.1797 13.835L29.4297 12.875C29.4697 12.775 29.3747 12.76 29.3347 12.875L29.0847 13.835H29.1797Z" fill="black" stroke="black" stroke-width="0.02"/>
<path d="M30.1745 12.7599C29.9595 12.8599 29.8445 12.9149 29.7445 12.8749C29.6445 12.8349 29.5295 12.8149 29.4545 12.8549C29.4552 12.8616 29.4552 12.8683 29.4545 12.8749C29.3838 13.1236 29.3122 13.3719 29.2395 13.6199C29.3895 13.6799 29.6695 13.6799 29.7245 13.6199C29.8045 13.5399 29.9795 13.5599 30.0745 13.5599C30.1345 13.4799 30.1545 13.3849 30.1345 13.3449C30.1145 13.3049 30.1345 13.2099 30.1345 13.1449C30.1345 13.0949 30.2145 12.8749 30.1745 12.7599Z" fill="white" stroke="black" stroke-width="0.02"/>
<path d="M25.2498 10.92C24.8705 11.9076 24.3428 12.8316 23.6848 13.66M24.0748 13.895C24.9425 13.1951 25.695 12.3633 26.3048 11.43M24.9348 12.27C24.8798 12.8 24.7198 13.735 24.6448 14.225M25.1498 13.445C24.9548 13.64 24.6998 13.95 24.4898 14.125M26.9698 12.385C26.8148 12.545 26.6398 12.735 26.4598 12.78M27.0698 12.43C27.213 12.5932 27.393 12.72 27.5948 12.8M26.9698 11.585C26.7998 11.7355 26.6007 11.8495 26.3848 11.92M27.0498 11.6C27.1648 11.715 27.2998 11.85 27.4798 11.935M26.4248 10.975C26.6195 10.9168 26.7989 10.816 26.9498 10.68M27.0098 10.68C27.1613 10.82 27.34 10.9272 27.5348 10.995M26.4598 10.345C26.6437 10.3141 26.8105 10.2183 26.9298 10.075M26.9898 10.035C27.1248 10.155 27.3798 10.31 27.5198 10.33M28.1448 10.485C28.0648 10.585 27.8498 10.74 27.7148 10.74M28.2398 10.49C28.2998 10.585 28.4548 10.74 28.5548 10.74M27.6148 11.915C27.8254 11.8359 28.014 11.7073 28.1648 11.54M28.2648 11.56C28.3575 11.7035 28.4825 11.8234 28.6298 11.91M27.8298 12.93C27.9098 12.93 28.1248 12.81 28.1798 12.68M28.2998 12.615C28.4075 12.7503 28.5398 12.8639 28.6898 12.95M25.0348 13.125C25.2848 13.045 25.7798 12.735 26.0348 12.44M25.5648 12.81C25.7598 12.95 26.0148 13.11 26.1898 13.145M24.9748 12.265C25.1478 12.1954 25.307 12.0955 25.4448 11.97M25.5448 11.95C25.5998 12.03 26.0098 12.285 26.1898 12.285M25.4448 11.135C25.2956 11.2485 25.1305 11.3394 24.9548 11.405M25.5448 11.13C25.6798 11.23 25.9748 11.405 26.1448 11.405M25.4498 10.35C25.3348 10.465 25.1398 10.66 24.9798 10.72M25.5498 10.37C25.6248 10.505 25.8598 10.7 26.0148 10.72M27.5798 11.23C27.9548 11.875 28.6148 12.68 29.2798 13.105M26.5298 10.505C27.0748 11.285 28.1298 12.99 29.1448 13.615M29.3448 12.95C29.0828 13.3064 28.7574 13.6115 28.3848 13.85M29.2598 13.165C28.9298 12.615 28.7548 11.935 28.4798 11.015M25.7448 13.44L26.1348 14.61M25.6648 13.42L26.0348 14.59M25.5698 13.36L25.9198 14.57M25.5298 13.38L25.7998 14.57M25.7998 14.535H26.1348M26.0948 14.415H25.7848M26.0548 14.315H25.7448M26.0148 14.22H25.6998M25.9498 14.105H25.6998M25.6798 14.005H25.9298M25.6598 13.925H25.9098M25.6398 13.825H25.8748M25.6248 13.75H25.8348M25.5998 13.65H25.7998M25.5798 13.575H25.7798M25.5648 13.515H25.7598M25.5598 13.44H25.7398M25.2298 13.44L24.9948 14.415M25.2898 13.44L25.0898 14.455M25.3498 13.4L25.1898 14.475M25.4248 13.375L25.3098 14.515M25.4448 14.435H25.0548M25.4448 14.335H24.9948M25.4448 14.22H25.0348M25.4248 14.12H25.0548M25.4448 14.02H25.0748M25.4448 13.905H25.1148M25.4448 13.805H25.1148M25.4248 13.71H25.1348M25.4248 13.61H25.1748M25.4248 13.515H25.1898M25.4248 13.455H25.2098M25.4098 14.535V13.38M26.6748 12.99L25.8998 14.575M26.7398 12.975L26.0748 14.595M26.7798 12.955L26.2498 14.595M26.8398 12.995L26.4098 14.595M26.4298 14.54H25.9398M26.4648 14.38H25.9998M26.4848 14.265H26.0948M26.5648 14.145H26.1748M26.5848 14.03H26.2148M26.6248 13.91H26.2748M26.6598 13.775H26.3498M26.6798 13.675H26.3898M26.7198 13.56H26.4448M26.7448 13.48H26.4848M26.7598 13.405H26.4848M26.7398 13.325H26.5448M26.7448 13.265H26.5648M26.7598 13.19H26.5998M26.7948 13.11H26.6398M26.7898 13.05H26.6548M27.3198 13.03L27.6548 14.13M27.3798 13.05L27.7898 14.11L28.1048 13.075M27.4398 13.05L27.9298 14.09L28.1648 13.11M28.0448 13.99L27.4948 13.03M28.0448 14.01H27.6548M28.0048 13.855H27.6148M27.9498 13.735H27.5748M27.8698 13.6H27.5348M27.7898 13.48H27.4998M27.7148 13.345H27.4598M27.6548 13.21H27.4198M27.5748 13.09H27.3798M28.0048 13.11L27.6548 14.125M28.2198 13.15L28.0248 14.07M27.6948 14.01H28.0248M27.7348 13.895H28.0648M27.7698 13.755H28.0848M27.8348 13.64H28.1248M27.8698 13.5H28.1448M27.9098 13.385H28.1598M27.9648 13.245H28.1998M28.0048 13.13H28.2048M28.3798 13.15L28.5298 13.85M28.4348 13.11L28.6498 13.835M28.5148 13.11L28.7498 13.835M28.6098 13.15L28.8648 13.835M28.8448 13.775H28.5148M28.8098 13.675H28.4948M28.7698 13.58H28.4748M28.7248 13.46H28.4348M28.6698 13.36H28.3998M28.6348 13.265H28.3848M28.5998 13.165H28.3648" stroke="black" stroke-width="0.02"/>
<path d="M25.3789 14.96C25.5339 14.86 25.8039 14.875 25.9439 14.98C26.1089 14.89 26.4039 14.915 26.5389 15.04C26.7489 14.89 26.9239 14.87 27.1239 15.01C27.2124 14.9513 27.3167 14.9208 27.423 14.9226C27.5292 14.9244 27.6324 14.9583 27.7189 15.02C27.9039 14.935 28.1039 14.865 28.2789 15.05C28.194 14.9929 28.0926 14.9653 27.9905 14.9716C27.8883 14.978 27.7911 15.0178 27.7139 15.085C27.5389 14.91 27.2289 14.975 27.1239 15.1C27.0871 15.0601 27.0422 15.0284 26.9923 15.007C26.9424 14.9857 26.8885 14.9751 26.8342 14.976C26.7799 14.977 26.7264 14.9894 26.6772 15.0125C26.628 15.0356 26.5843 15.0688 26.5489 15.11C26.3639 14.96 26.0939 14.95 25.9489 15.06C25.8681 15.0005 25.7745 14.9604 25.6756 14.9431C25.5768 14.9257 25.4752 14.9315 25.3789 14.96Z" fill="#00B800"/>
<path d="M28.1544 14.7399C27.3494 14.8799 25.5844 14.7899 25.2044 14.6849C25.0694 14.6549 25.1044 14.6049 25.2194 14.6349C25.6644 14.7349 26.6144 14.7349 27.1344 14.7049L27.4444 14.2799C27.4944 14.2149 27.5144 14.2099 27.6194 14.1949L28.0544 14.1199V14.1799C28.0444 14.1949 28.0344 14.2099 28.0194 14.2149C28.0194 14.3149 28.0394 14.5699 28.0644 14.6649L28.1194 14.6499C28.1544 14.6399 28.1894 14.7349 28.1544 14.7399Z" fill="#CF6200"/>
<path d="M29.4795 14.78H29.5895C29.6195 14.78 29.6695 14.755 29.6845 14.705L29.7945 14.39L29.7095 14.265L29.7545 14L29.8545 13.955C29.8645 13.94 29.8545 13.875 29.8345 13.855L28.2545 13.905C28.2045 13.905 28.1845 13.905 28.1695 13.97C28.1228 14.1814 28.1354 14.4016 28.206 14.6063C28.2766 14.811 28.4024 14.9923 28.5695 15.13C28.5945 15.15 28.6295 15.13 28.5845 15.095C28.5 15.0103 28.4277 14.9144 28.3695 14.81H28.6295C28.6495 14.895 28.7145 15.07 28.7295 15.105C28.7395 15.14 28.7695 15.14 28.7495 15.09C28.7195 14.99 28.6995 14.865 28.6845 14.805H28.9495L28.9695 15.065C28.9695 15.1 28.9995 15.1 28.9995 15.06V14.8L29.2395 14.79L29.2195 15.05C29.2145 15.095 29.2345 15.11 29.2445 15.05L29.2795 14.79L29.4445 14.78C29.4445 14.84 29.3895 15 29.3745 15.04C29.3595 15.09 29.3845 15.09 29.3995 15.045C29.4338 14.9609 29.4606 14.8739 29.4795 14.785V14.78Z" fill="#CF6200"/>
<path d="M28.3242 14.7401C28.2992 14.6851 28.2092 14.4851 28.2042 14.3401H28.5542C28.5642 14.4451 28.5942 14.6801 28.6142 14.7351L28.3242 14.7401ZM28.6142 14.3301C28.6192 14.4201 28.6642 14.7051 28.6742 14.7301H28.9542L28.9342 14.3251L28.6142 14.3301ZM28.2192 13.9801C28.2068 14.0795 28.2035 14.18 28.2092 14.2801L28.5442 14.2651L28.5142 13.9701L28.2192 13.9801ZM28.5842 13.9701L28.6042 14.2701L28.9342 14.2601L28.9192 13.9601L28.5842 13.9701ZM28.9842 13.9551L28.9942 14.2551L29.2792 14.2501C29.2792 14.1851 29.2942 13.9901 29.2892 13.9451L28.9842 13.9551ZM29.3442 13.9451L29.3342 14.2451L29.6442 14.2351C29.6592 14.1701 29.6892 14.0001 29.6892 13.9351L29.3442 13.9451ZM29.6592 14.3051L29.3292 14.3151L29.2992 14.7151L29.6142 14.7051C29.6585 14.6074 29.6969 14.5073 29.7292 14.4051C29.7042 14.3551 29.6842 14.3401 29.6592 14.3051ZM28.9942 14.3251L29.0042 14.7251L29.2442 14.7151L29.2742 14.3151L28.9942 14.3251ZM27.6442 14.2451L27.5142 14.2651C27.4133 14.4146 27.3082 14.5613 27.1992 14.7051L27.6642 14.6951L27.6442 14.2451ZM27.7042 14.2301L27.7242 14.6901L28.0042 14.6701L27.9542 14.1901L27.7042 14.2301Z" fill="black"/>
<path d="M26.3448 13.1501H24.8398V13.1101L26.3398 13.1301L26.3448 13.1501ZM27.5198 11.9401C27.5348 11.9401 27.5348 11.9401 27.5198 11.9401L26.3448 11.9201C26.3248 11.9201 26.3248 11.9201 26.3448 11.9201H27.5198V11.9401ZM26.2698 12.2701C26.2848 12.2701 26.2848 12.2901 26.2698 12.2901H24.9348C24.9198 12.2901 24.9348 12.2701 24.9348 12.2701H26.2698ZM26.3048 11.4101C26.3248 11.4101 26.3248 11.4301 26.3048 11.4301H24.9198C24.8998 11.4301 24.8998 11.4101 24.9198 11.4101H26.3048ZM26.2048 10.7251C26.2248 10.7251 26.2248 10.7451 26.2048 10.7451H24.8548C24.8398 10.7451 24.8548 10.7051 24.8548 10.7051L26.2248 10.7251H26.2048Z" fill="black"/>
<path d="M27.5198 11.9401C27.5348 11.9401 27.5348 11.9401 27.5198 11.9401ZM27.5198 11.9401L26.3448 11.9201M27.5198 11.9401V11.9201H26.3448M26.3448 11.9201C26.3248 11.9201 26.3248 11.9201 26.3448 11.9201ZM26.3448 13.1501H24.8398V13.1101L26.3398 13.1301L26.3448 13.1501ZM26.2698 12.2701C26.2848 12.2701 26.2848 12.2901 26.2698 12.2901H24.9348C24.9198 12.2901 24.9348 12.2701 24.9348 12.2701H26.2698ZM26.3048 11.4101C26.3248 11.4101 26.3248 11.4301 26.3048 11.4301H24.9198C24.8998 11.4301 24.8998 11.4101 24.9198 11.4101H26.3048ZM26.2048 10.7251C26.2248 10.7251 26.2248 10.7451 26.2048 10.7451H24.8548C24.8398 10.7451 24.8548 10.7051 24.8548 10.7051L26.2248 10.7251H26.2048Z" stroke="black" stroke-width="0.02"/>
<path d="M27.6145 10.335L26.4395 10.355" stroke="black" stroke-width="0.02"/>
<path d="M27.6748 10.9999C27.6948 10.9999 27.6948 10.9999 27.6748 10.9999H26.3998C26.3798 10.9999 26.3798 10.9999 26.3998 10.9999H27.6748ZM28.9448 11.8999V11.9199H27.5748C27.5348 11.9199 27.5348 11.9199 27.5748 11.9199H28.9498L28.9448 11.8999ZM28.9448 10.7449C28.9848 10.7449 28.9848 10.7649 28.9448 10.7649H27.5498C27.5298 10.7649 27.5298 10.7449 27.5498 10.7449H28.9598H28.9448ZM27.6498 12.7799C27.6698 12.7799 27.6698 12.7999 27.6498 12.7999H26.3998V12.7799H27.6498ZM28.8598 12.9549C28.8798 12.9549 28.8798 12.9549 28.8598 12.9549V12.9549Z" fill="black"/>
<path d="M27.6748 10.9999C27.6948 10.9999 27.6948 10.9999 27.6748 10.9999ZM27.6748 10.9999H26.3998M26.3998 10.9999C26.3798 10.9999 26.3798 10.9999 26.3998 10.9999ZM27.5748 11.9199H28.9448V11.8999L28.9498 11.9199H27.5748ZM27.5748 11.9199C27.5348 11.9199 27.5348 11.9199 27.5748 11.9199ZM28.8598 12.9549C28.8798 12.9549 28.8798 12.9549 28.8598 12.9549ZM28.8598 12.9549H27.7648M28.9448 10.7449C28.9848 10.7449 28.9848 10.7649 28.9448 10.7649H27.5498C27.5298 10.7649 27.5298 10.7449 27.5498 10.7449H28.9598H28.9448ZM27.6498 12.7799C27.6698 12.7799 27.6698 12.7999 27.6498 12.7999H26.3998V12.7799H27.6498Z" stroke="black" stroke-width="0.02"/>
<path d="M29.8649 13.15C29.8868 13.0596 29.8868 12.9653 29.8649 12.875C29.8257 12.8863 29.7841 12.8863 29.7449 12.875C29.7258 12.8604 29.7057 12.847 29.6849 12.835C29.6793 12.9631 29.654 13.0895 29.6099 13.21C29.5499 13.21 29.4099 13.21 29.3549 13.17L29.2949 13.365C29.3921 13.3864 29.4928 13.3864 29.5899 13.365C29.5899 13.48 29.5699 13.58 29.5099 13.66C29.6099 13.66 29.7099 13.66 29.7249 13.6C29.7849 13.52 29.7849 13.4 29.8049 13.345L29.9049 13.325L29.9999 13.285L30.1349 13.265V13.15L30.1749 13.07L29.8649 13.17V13.15Z" fill="#EF072D" stroke="black" stroke-width="0.02"/>
<path d="M25.0143 6.53995C24.8593 6.53995 24.5043 6.53995 24.4293 6.57995C24.3693 6.61995 24.3493 6.63995 24.4693 6.65995C24.5843 6.67995 24.7993 6.75995 24.9193 6.81495C25.0343 6.89495 25.1143 7.01495 25.1143 7.20495C25.0709 7.4461 25.1039 7.6948 25.2088 7.91624C25.3137 8.13768 25.4852 8.32079 25.6993 8.43995C25.7193 8.45995 25.7393 8.47495 25.7193 8.55495L25.6593 8.76995C25.6593 8.80995 25.6393 8.84995 25.6993 8.82995C25.6376 8.93637 25.5708 9.03982 25.4993 9.13995C25.1893 9.10495 24.9193 9.13995 24.9193 9.48995C24.9193 9.53495 24.9193 9.56995 24.9543 9.48995C25.0143 9.41495 25.0743 9.33995 25.2093 9.29995C25.1343 9.43495 25.0943 9.54995 25.1093 9.62995C25.1093 9.68995 25.1493 9.72995 25.1893 9.62995C25.2093 9.54995 25.2893 9.47495 25.3493 9.41495C25.3843 9.39495 25.3843 9.39495 25.3643 9.45495C25.3559 9.53167 25.3774 9.60867 25.4243 9.66995C25.4643 9.70995 25.4843 9.68995 25.4643 9.62995C25.4643 9.54995 25.4643 9.41495 25.5643 9.37995C25.6793 9.29995 25.7943 9.33495 25.8343 9.41495C25.8943 9.51495 25.9343 9.41495 25.8743 9.33495C25.8143 9.25995 25.7593 9.15995 25.6793 9.15995L25.8793 8.82995C25.8793 8.78995 25.9143 8.76995 25.9543 8.78995C25.9543 8.80995 25.9943 8.80995 26.0093 8.74995L26.1493 8.47495L26.2643 8.43995L26.4643 8.72995V8.84995C26.4643 8.92495 26.3843 9.09995 26.3643 9.15995C26.1293 9.15995 26.0143 9.15995 25.9343 9.29995C25.8943 9.35495 25.9543 9.37495 26.0093 9.35495C26.0698 9.3189 26.1389 9.29989 26.2093 9.29995C26.2443 9.29995 26.2643 9.33495 26.2093 9.35495C26.0693 9.41495 25.9743 9.51495 25.9743 9.64995C25.9743 9.68995 26.0093 9.70995 26.0293 9.64995C26.0865 9.55393 26.1774 9.48263 26.2843 9.44995C26.2843 9.54995 26.3043 9.70995 26.3843 9.74995C26.4393 9.78495 26.4393 9.74995 26.4243 9.68995C26.3843 9.58995 26.4243 9.48995 26.4793 9.43495C26.5793 9.31995 26.8143 9.47495 26.8743 9.51495C26.9093 9.54995 26.9493 9.56995 26.9093 9.45495C26.8893 9.31995 26.6943 9.25495 26.5193 9.21995L26.7543 8.39995C26.8543 8.45995 26.9543 8.29995 27.1043 8.35995C27.3668 8.47722 27.6165 8.62132 27.8493 8.78995C27.9293 8.84995 27.9493 8.82995 27.9843 8.78995C28.0243 8.76995 28.0843 8.78995 28.1443 8.78995C28.1793 8.80995 28.2193 8.82995 28.1643 8.70995C28.0518 8.5051 27.8903 8.33156 27.6943 8.20495C27.8493 8.20495 28.0443 8.20495 28.0443 8.16495C28.0443 8.12495 27.8093 8.04495 27.7143 8.04495C27.8293 8.02397 27.9365 7.97212 28.0243 7.89495C28.0643 7.84995 28.0243 7.82995 27.8693 7.82995C27.4593 7.82995 27.2443 7.82995 27.0293 7.71495C26.6793 7.51495 26.4593 7.28495 26.2843 7.20495C26.2093 7.14995 26.1493 7.02995 26.0893 6.93495C25.9893 6.63495 25.9893 6.48495 25.7393 6.38495C25.4843 6.28495 25.1493 6.40495 25.0143 6.53995Z" fill="black" stroke="black" stroke-width="0.02"/>
<path d="M25.0353 6.61985H24.7053L24.9953 6.69985C25.0553 6.69985 25.0353 6.75485 24.9953 6.73485C24.9553 6.71985 24.9203 6.73485 24.9553 6.77485C25.1553 6.91485 25.1903 6.97485 25.1553 7.49985L25.2503 7.57985C25.2903 7.57985 25.2703 7.61485 25.2503 7.59485C25.2303 7.57985 25.1503 7.59485 25.2103 7.63485C25.2703 7.67485 25.3103 7.67485 25.2503 7.67485C25.1903 7.67485 25.1353 7.71485 25.2503 7.69485C25.3503 7.69485 25.4053 7.73485 25.2503 7.75485C25.1353 7.75485 25.1703 7.79485 25.2503 7.79485C25.3853 7.79485 25.3503 7.82985 25.3103 7.82985C25.2703 7.82985 25.2503 7.86985 25.3503 7.86985H25.4853C25.5053 7.86985 25.5253 7.86985 25.4853 7.88985C25.4453 7.88985 25.4453 7.92985 25.5053 7.92985C25.5653 7.92985 25.6053 7.92985 25.5453 7.94985C25.5253 7.94985 25.4853 7.96985 25.5453 7.98985C25.6803 7.98985 25.6953 8.02485 25.6603 8.04485C25.6203 8.06485 25.6003 8.06485 25.6603 8.06485C25.7203 8.06485 25.7803 8.08485 25.7203 8.10485C25.6803 8.10485 25.6603 8.14485 25.7203 8.14485C25.7803 8.14485 25.8203 8.18485 25.7803 8.20485C25.7403 8.22485 25.7203 8.24485 25.7803 8.24485C25.8353 8.24485 25.8553 8.25985 25.8153 8.27985C25.7803 8.31985 25.7603 8.31985 25.7153 8.27985C25.7153 8.24485 25.6803 8.24485 25.6803 8.27985L25.6403 8.22485C25.6203 8.16485 25.5803 8.16485 25.5803 8.22485C25.5803 8.27985 25.5453 8.24485 25.5053 8.22485C25.5999 8.3333 25.7281 8.40697 25.8694 8.43415C26.0108 8.46134 26.1572 8.44046 26.2853 8.37485C26.3053 8.37485 26.3253 8.37485 26.3453 8.43985L26.4603 8.65485C26.4803 8.68985 26.5203 8.65485 26.5203 8.61485L26.6403 8.27985C26.6403 8.22485 26.7153 8.17985 26.6953 8.33985C26.7553 8.29985 26.9903 8.27985 27.1853 8.33985C27.3738 8.41522 27.5519 8.51436 27.7153 8.63485C27.7293 8.64565 27.7456 8.65307 27.7629 8.65654C27.7803 8.66001 27.7982 8.65943 27.8153 8.65485C27.8653 8.65485 27.8903 8.65485 27.7903 8.55485C27.6903 8.45485 27.7353 8.41985 27.7903 8.45485C27.8503 8.49485 27.8903 8.47485 27.8303 8.41985L27.6353 8.24485C27.6153 8.24485 27.6153 8.20485 27.5203 8.20485H27.2203C27.1853 8.20485 27.1453 8.20485 27.2653 8.24485C27.3803 8.27985 27.5953 8.43985 27.6553 8.47485C27.7153 8.51485 27.7353 8.59485 27.6353 8.51485C27.4125 8.36669 27.1785 8.23629 26.9353 8.12485C26.4053 8.18485 25.9753 8.24485 25.6603 7.90985C25.5053 7.73485 25.5053 7.35985 25.7603 7.20985C25.7203 7.16485 25.7203 7.12985 25.7403 7.12985V7.00985C25.7003 6.98985 25.6603 6.94985 25.6603 6.90985C25.6003 6.90985 25.5603 6.81485 25.4653 6.85485C25.3653 6.89485 25.3503 6.85485 25.3103 6.83485C25.2903 6.79485 25.2703 6.79485 25.2103 6.79485C25.1503 6.79485 25.1103 6.79485 25.1103 6.75485C25.1103 6.71985 25.1503 6.71985 25.2303 6.75485C25.3653 6.81485 25.4803 6.85485 25.5803 6.71985C25.6603 6.59985 25.5453 6.50485 25.3853 6.46485C25.2103 6.42485 25.0953 6.56485 25.0153 6.61985H25.0353Z" fill="white" stroke="black" stroke-width="0.02"/>
<path d="M25.8944 6.55995C25.8366 6.5079 25.7685 6.46871 25.6944 6.44495C25.6444 6.44495 25.6444 6.48495 25.6594 6.50495V6.61995C25.6994 6.63995 25.7194 6.67995 25.6594 6.67995C25.6194 6.71995 25.6594 6.85495 25.7194 6.81495H25.7594C25.7594 6.81495 25.7594 6.87495 25.7944 6.87495C25.8344 6.87495 25.7944 6.91495 25.7944 6.93495H25.8344C25.8744 6.93495 25.8544 7.00995 25.8144 7.03495C25.8744 7.03495 25.8944 7.03495 25.8944 7.06995C25.9144 7.10995 25.9744 7.12995 25.9744 7.18495C25.9744 7.24495 25.9744 7.24495 25.8944 7.22495C25.8144 7.20495 25.8144 7.22495 25.7944 7.26495C25.7794 7.30495 25.7594 7.32495 25.7944 7.32495C25.8344 7.32495 25.8744 7.34495 25.8144 7.36495C25.7594 7.37995 25.6994 7.36495 25.6794 7.41995C25.6794 7.47995 25.6794 7.49995 25.7194 7.47995L25.8544 7.39995L25.9544 7.41995C25.9944 7.43995 25.9544 7.51995 25.9144 7.47995C25.8744 7.43995 25.8344 7.47995 25.8144 7.49995L25.7144 7.53995C25.6794 7.53995 25.6394 7.53995 25.6644 7.63995C25.6644 7.90995 25.8744 8.10495 26.2644 8.10495H26.9144C26.7944 8.02495 26.7144 7.98995 26.6544 7.98995H26.5994C26.6194 7.96995 26.5994 7.92995 26.5794 7.92995C26.5594 7.92995 26.5194 7.88995 26.4794 7.92995L26.2844 8.02995C26.2444 8.02995 26.1844 8.02995 26.2444 7.98995L26.4244 7.90995C26.4594 7.90995 26.4394 7.86995 26.4394 7.86995C26.4394 7.86995 26.4394 7.80995 26.4994 7.82995C26.6194 7.90995 26.7944 8.00995 26.8494 8.00995C26.9094 8.00995 26.9294 7.96995 26.8894 7.94995C26.8544 7.92995 26.8344 7.88995 26.8344 7.86995C26.8344 7.84995 26.8544 7.82995 26.9344 7.86995C27.0094 7.92995 27.1244 7.96995 27.1844 7.98995C27.2444 8.00995 27.2844 8.00995 27.1844 7.94995L26.7344 7.61495C26.6744 7.55995 26.6744 7.61495 26.6944 7.65495C26.7144 7.69495 26.6394 7.71495 26.5944 7.67495C26.5594 7.63495 26.5394 7.61495 26.5944 7.59495C26.6544 7.57995 26.6394 7.55995 26.5794 7.49495C26.4994 7.44495 26.4794 7.44495 26.4994 7.49495C26.5194 7.55995 26.5194 7.59495 26.4594 7.57995C26.4044 7.55995 26.3444 7.51995 26.4044 7.49995C26.4394 7.45995 26.5044 7.43995 26.4044 7.37995C26.3044 7.32495 26.3644 7.37995 26.3444 7.41995C26.3244 7.45995 26.2644 7.45995 26.2444 7.41995C26.2244 7.37995 26.1894 7.36495 26.2094 7.34495C26.2244 7.32495 26.2244 7.30495 26.2644 7.34495C26.3044 7.37995 26.3444 7.34495 26.2844 7.28495C26.2244 7.22495 26.2094 7.24495 26.2244 7.28495C26.2444 7.32495 26.1894 7.36495 26.1094 7.28495C26.0694 7.26495 26.0694 7.22495 26.1094 7.20495C26.1494 7.20495 26.1494 7.18495 26.1094 7.14995C25.9744 6.91495 26.0294 6.73495 25.8744 6.55995H25.8944Z" fill="white" stroke="black" stroke-width="0.02"/>
<path d="M25.8996 6.59997C25.8896 6.61997 25.8846 6.61497 25.8596 6.63497C25.8346 6.65497 25.8246 6.70997 25.8746 6.70497C25.8884 6.70353 25.9018 6.69922 25.9138 6.69234C25.9259 6.68545 25.9363 6.67613 25.9446 6.66497C25.9332 6.64217 25.9198 6.62042 25.9046 6.59997H25.8996ZM25.7496 6.46997C25.7046 6.50997 25.6996 6.52997 25.7196 6.52997C25.7446 6.52997 25.7346 6.52997 25.7196 6.55997C25.6996 6.58497 25.7496 6.59997 25.7696 6.57497C25.7946 6.55497 25.7946 6.54997 25.8046 6.57497C25.8096 6.59997 25.8546 6.57497 25.8696 6.55997C25.8346 6.52497 25.7846 6.49497 25.7446 6.46997H25.7496ZM25.6746 6.68997C25.6246 6.71497 25.6396 6.84997 25.7196 6.80997C25.7446 6.79997 25.7646 6.80997 25.7646 6.82497V6.85997C25.7971 6.84657 25.8261 6.82607 25.8496 6.79997C25.8946 6.73997 25.8496 6.74997 25.7796 6.74997C25.7096 6.74997 25.6946 6.73497 25.7596 6.69497C25.8196 6.65497 25.7746 6.63497 25.6946 6.64497C25.7046 6.65997 25.6996 6.67497 25.6746 6.68997ZM25.9696 6.98997C25.9296 6.94497 25.9546 6.92997 25.9946 6.90497C26.0024 6.90175 26.0093 6.89658 26.0146 6.88997L25.9796 6.75997C25.9646 6.76997 25.9396 6.81497 25.9296 6.83497C25.9196 6.86997 25.9096 6.88997 25.8796 6.88497C25.8446 6.86997 25.8146 6.90497 25.8096 6.93997H25.8346C25.8446 6.94497 25.8496 6.96997 25.8446 6.98997C25.9396 6.98997 25.9546 7.04497 25.9696 7.08997C25.9896 7.13997 26.0046 7.13497 26.0196 7.10497C26.0346 7.07497 26.0046 7.02997 25.9696 6.98997Z" fill="#CF6200"/>
<path d="M25.9952 7.52001C25.9752 7.56001 25.9752 7.55501 25.9202 7.55501C25.8702 7.56001 25.8002 7.57001 25.7702 7.60001C25.7552 7.61501 25.6602 7.62501 25.6602 7.66501C25.6602 7.71001 25.6602 7.74001 25.7002 7.74501C25.7402 7.74501 25.7502 7.75501 25.7352 7.78501C25.7152 7.81501 25.7052 7.86001 25.7752 7.87001C25.8452 7.87001 25.9002 7.85501 25.9152 7.89001C25.9352 7.94001 25.9152 7.99501 25.9302 8.02501C25.9402 8.05001 25.9902 8.06001 26.0652 8.08501C26.1152 8.09501 26.3052 8.11001 26.3652 8.10001C26.4152 8.09001 26.3952 8.06001 26.3402 8.06001C26.2802 8.05001 26.2402 8.04001 26.2252 8.00001C26.2102 7.95501 26.2002 7.93501 26.2352 7.90001C26.2652 7.86001 26.2952 7.83501 26.2752 7.77501C26.2602 7.72001 26.2252 7.65001 26.1602 7.63001C26.0952 7.61001 26.1152 7.51501 26.0452 7.51001C26.0202 7.51001 26.0052 7.51001 25.9952 7.52001Z" fill="#FFFF00"/>
<path d="M25.6648 8.06993C25.7248 8.07993 25.7698 8.09493 25.7248 8.10993C25.6798 8.12493 25.6498 8.14993 25.7098 8.15493C25.7698 8.15493 25.8248 8.18493 25.7748 8.19493C25.7248 8.20993 25.7248 8.24493 25.7798 8.24493C25.8348 8.24493 25.8648 8.26493 25.8248 8.29493C25.7798 8.31493 25.7548 8.32993 25.7248 8.28993C25.6998 8.24493 25.6848 8.23993 25.6798 8.26493C25.6698 8.29493 25.6548 8.27493 25.6348 8.22993C25.6198 8.18993 25.5748 8.16993 25.5848 8.20493C25.5998 8.23993 25.5548 8.24993 25.5098 8.22993C25.5508 8.27796 25.5999 8.31855 25.6548 8.34993C25.7148 8.32993 25.7848 8.34993 25.8048 8.34993C25.8348 8.34993 25.9098 8.36993 25.9548 8.39493C25.9998 8.41493 26.0298 8.37493 26.0098 8.32993C25.9898 8.27993 25.9898 8.29493 25.9698 8.32993C25.9398 8.34993 25.9398 8.31493 25.9398 8.25993C25.9398 8.21993 25.9098 8.22493 25.9048 8.25493C25.8948 8.27993 25.8698 8.23493 25.8798 8.20993C25.8948 8.18493 25.8798 8.16993 25.8598 8.17993C25.8348 8.18993 25.8348 8.17993 25.8298 8.12993C25.8248 8.07493 25.8048 8.07993 25.7998 8.10493C25.7948 8.12493 25.7698 8.09493 25.7348 8.05493C25.7098 8.02493 25.6848 8.04493 25.6298 8.05993L25.6648 8.06993Z" fill="#CF6200"/>
<path d="M26.2789 8.38987C26.0039 8.49987 25.8039 8.44987 25.6539 8.34987C25.7139 8.32987 25.7839 8.34987 25.8089 8.34987C25.8339 8.34987 25.9139 8.36987 25.9539 8.39487C25.9939 8.41487 26.0289 8.37487 26.0089 8.32987C26.0439 8.37987 26.0739 8.40987 26.1189 8.40487L26.2789 8.38987ZM25.6889 7.09987C25.6689 7.03987 25.6539 7.02987 25.6239 7.03487C25.5939 7.03487 25.5789 7.02987 25.5439 7.01487C25.5139 6.99987 25.4689 7.01487 25.4639 7.07987C25.4539 7.14487 25.4139 7.16987 25.3639 7.20987C25.3139 7.24487 25.2889 7.27487 25.2889 7.33987C25.2889 7.39987 25.2739 7.40987 25.2389 7.45987L25.1839 7.52487L25.2439 7.55987C25.2839 7.57987 25.2689 7.60487 25.2339 7.59487C25.1989 7.58487 25.1589 7.60487 25.2239 7.61487C25.2839 7.62987 25.3089 7.66487 25.2539 7.66487C25.1889 7.64987 25.1239 7.70487 25.2389 7.68987C25.3539 7.67987 25.3939 7.73487 25.2639 7.73487C25.1289 7.73487 25.1789 7.77987 25.2539 7.77987C25.3789 7.77987 25.3389 7.81487 25.3039 7.81487C25.2739 7.81487 25.2589 7.86487 25.3439 7.84987L25.3739 7.79987C25.3889 7.75987 25.3989 7.64487 25.4489 7.60987C25.4939 7.57987 25.5189 7.52487 25.5189 7.49487C25.5189 7.46487 25.5939 7.30987 25.6339 7.27487C25.6839 7.23987 25.7039 7.15987 25.6839 7.10487L25.6889 7.09987Z" fill="#FFFF00"/>
<path d="M25.5899 7.10993C25.5449 7.07493 25.4949 7.09993 25.4949 7.15993C25.4949 7.20993 25.4649 7.23493 25.4249 7.25993C25.4025 7.27149 25.3829 7.28775 25.3673 7.30759C25.3518 7.32744 25.3407 7.35041 25.3349 7.37493C25.3349 7.42493 25.3449 7.44993 25.3149 7.48993C25.2799 7.52493 25.2749 7.55493 25.2949 7.57993C25.3249 7.59993 25.3249 7.59993 25.3299 7.62993C25.3449 7.65993 25.3999 7.62993 25.3999 7.59493C25.3999 7.55993 25.4149 7.55993 25.4499 7.53993C25.4899 7.51993 25.5499 7.41993 25.5349 7.39493C25.5249 7.36993 25.4849 7.34493 25.5349 7.30993C25.5849 7.26993 25.6249 7.25993 25.6249 7.22993C25.6249 7.18993 25.6349 7.17993 25.6499 7.16493C25.6649 7.14993 25.6199 7.12993 25.5899 7.11493V7.10993Z" fill="#CF6200"/>
<path d="M25.5894 7.05994C25.5594 7.04994 25.5394 7.11494 25.5844 7.12494C25.6294 7.13494 25.6344 7.07994 25.5844 7.06494L25.5894 7.05994ZM25.5844 7.14494C25.5494 7.14994 25.5094 7.19494 25.5644 7.19494C25.6244 7.18494 25.6444 7.14494 25.5794 7.14494H25.5844ZM25.5144 7.22994C25.4794 7.24494 25.4894 7.29494 25.5394 7.25994C25.5894 7.22494 25.5994 7.18494 25.5144 7.22994ZM25.4644 7.29994C25.4294 7.31494 25.4294 7.36494 25.4844 7.32994C25.5344 7.29994 25.5494 7.25494 25.4644 7.29994Z" fill="black"/>
<path d="M25.3946 7.33496C25.3596 7.34996 25.3796 7.39496 25.4296 7.36496C25.4796 7.33496 25.4796 7.28996 25.3946 7.33496ZM25.4346 7.37996C25.3946 7.39496 25.4196 7.43996 25.4696 7.40996C25.5196 7.37996 25.5196 7.33496 25.4296 7.37996H25.4346Z" fill="black"/>
<path d="M25.3694 7.39501C25.3394 7.41501 25.3594 7.45501 25.4144 7.42501C25.4644 7.39501 25.4594 7.35001 25.3694 7.39501ZM25.4144 7.44501C25.3744 7.46001 25.3944 7.50501 25.4494 7.47501C25.4994 7.44001 25.4994 7.40001 25.4094 7.44501H25.4144Z" fill="black"/>
<path d="M25.3499 7.47485C25.3199 7.48985 25.3399 7.53485 25.3949 7.50485C25.4449 7.47485 25.4349 7.42985 25.3549 7.47485H25.3499Z" fill="black"/>
<path d="M25.3493 7.51493C25.3243 7.53493 25.3443 7.58493 25.3993 7.54993C25.4493 7.51493 25.4393 7.47493 25.3493 7.51493Z" fill="black"/>
<path d="M25.3296 7.94495C25.2946 7.94495 25.2696 7.99995 25.3146 8.00995C25.3596 8.01995 25.3696 8.02495 25.3696 8.05495C25.3696 8.08495 25.3846 8.13995 25.4296 8.13995C25.4796 8.13995 25.5196 8.08995 25.4796 8.07495C25.4346 8.05995 25.3996 8.04495 25.3946 8.00495C25.3946 7.96995 25.3546 7.94495 25.3296 7.94495Z" fill="#CF6200"/>
<path d="M26.5742 7.64995L26.5992 7.67995C26.6342 7.70495 26.6992 7.67995 26.6842 7.65495C26.6792 7.63495 26.6442 7.55495 26.7342 7.61495L27.1942 7.93995C27.2892 8.00995 27.2242 8.01994 27.1842 7.99494L26.9342 7.87995C26.8592 7.83495 26.8492 7.85495 26.8342 7.86495C26.8342 7.87995 26.8342 7.90994 26.8642 7.93494C26.8192 7.93994 26.7492 7.93494 26.7242 7.88494C26.6992 7.82494 26.6392 7.75495 26.5942 7.69995C26.5792 7.67995 26.5742 7.66495 26.5792 7.65495L26.5742 7.64995Z" fill="#FFFF00"/>
<path d="M29.0997 15.975C29.0347 16.02 28.9497 16.095 29.0047 16.2L29.0247 16.195C29.2686 15.8989 29.4846 15.5809 29.6697 15.245V15.215C29.6018 15.2708 29.526 15.3163 29.4447 15.35C29.4747 15.435 29.3297 15.54 29.2597 15.57C29.2897 15.62 29.2797 15.7 29.2097 15.715C29.2247 15.755 29.1747 15.755 29.1097 15.785C29.0547 15.81 29.0247 15.825 29.0047 15.86C29.0347 15.84 29.0847 15.825 29.1047 15.835C29.1247 15.845 29.1347 15.88 29.0897 15.89C29.0497 15.905 29.0197 15.925 28.9997 15.94C29.0647 15.925 29.1597 15.93 29.0997 15.975Z" fill="#00D860"/>
<path d="M26.0892 7.56001C26.0092 7.50001 25.9892 7.54001 26.0092 7.56001C26.0292 7.58001 26.0092 7.63501 25.9542 7.66001H25.7542C25.7192 7.66001 25.6592 7.73501 25.7542 7.71001L26.0692 7.66001C26.1092 7.66001 26.1492 7.61501 26.0692 7.56001H26.0892ZM26.2242 7.67501C26.1692 7.61501 26.1492 7.63501 26.1692 7.67501C26.1892 7.71501 26.1492 7.73501 26.1092 7.73501L25.8342 7.81001C25.7592 7.81001 25.7592 7.87001 25.8542 7.87001C25.9542 7.87001 26.1492 7.77001 26.1692 7.77001C26.1892 7.77001 26.2092 7.71501 26.2242 7.73501C26.2442 7.75501 26.2842 7.73501 26.2242 7.67501ZM26.2842 7.83001L26.0892 7.93001C26.0292 7.93001 25.9892 7.99001 26.0892 7.99001C26.1892 7.99001 26.2892 7.89001 26.3242 7.87001L26.4042 7.83001C26.4042 7.83001 26.4792 7.81001 26.4042 7.75501C26.3242 7.69501 26.2442 7.75501 26.2842 7.77501C26.3242 7.79501 26.2842 7.83001 26.2842 7.83001Z" fill="black" stroke="black" stroke-width="0.02"/>
<path d="M25.4846 6.55996C25.3596 6.47496 25.2246 6.64496 25.3596 6.73996C25.4796 6.82496 25.6096 6.63996 25.4896 6.55996H25.4846Z" fill="black"/>
<path d="M25.3296 6.63495H25.3646C25.3646 6.67495 25.3996 6.73495 25.4546 6.71995C25.4096 6.75495 25.3246 6.70995 25.3296 6.63495ZM25.8096 8.48495C25.8496 8.49995 25.9796 8.50995 26.0296 8.50995L25.9696 8.61995C25.9546 8.65495 25.9496 8.65995 25.9446 8.60495C25.9446 8.55495 25.9146 8.51995 25.8896 8.57495L25.8396 8.67495C25.8246 8.69495 25.8046 8.69995 25.8096 8.64495C25.8196 8.58995 25.8146 8.52995 25.8096 8.48495Z" fill="white"/>
<path d="M30.7249 9.98497C30.7249 13.17 30.2149 16.61 26.0749 18.25C21.9449 16.61 21.4399 13.17 21.4199 9.98497H30.7249ZM30.7249 9.98497C30.7249 8.76997 30.6649 7.59497 30.6849 6.58497C29.2141 6.01302 27.6479 5.72625 26.0699 5.73997C25.0349 5.73997 22.9999 5.89497 21.4599 6.57997C21.4949 7.59497 21.4199 8.76997 21.4199 9.97997L30.7249 9.98497Z" stroke="black" stroke-width="0.06"/>
<path d="M0 0H16V12H0V0Z" fill="#012169"/>
<path d="M1.875 0L7.975 4.525L14.05 0H16V1.55L10 6.025L16 10.475V12H14L8 7.525L2.025 12H0V10.5L5.975 6.05L0 1.6V0H1.875Z" fill="white"/>
<path d="M10.6 7.025L16 11V12L9.225 7.025H10.6ZM6 7.525L6.15 8.4L1.35 12H0L6 7.525ZM16 0V0.075L9.775 4.775L9.825 3.675L14.75 0H16ZM0 0L5.975 4.4H4.475L0 1.05V0Z" fill="#C8102E"/>
<path d="M6.025 0V12H10.025V0H6.025ZM0 4V8H16V4H0Z" fill="white"/>
<path d="M0 4.825V7.225H16V4.825H0ZM6.825 0V12H9.225V0H6.825Z" fill="#C8102E"/>
</svg>
