<svg width="36" height="24" viewBox="0 0 36 24" fill="none" xmlns="http://www.w3.org/2000/svg">
<rect width="36" height="24" rx="2" fill="white"/>
<path fill-rule="evenodd" clip-rule="evenodd" d="M0 16H36V24H0V16Z" fill="#D50000"/>
<path fill-rule="evenodd" clip-rule="evenodd" d="M0 8H36V16H0V8Z" fill="#0000BF"/>
<path fill-rule="evenodd" clip-rule="evenodd" d="M11.4078 4.35938C11.2203 7.24687 11.1078 8.83125 10.6719 9.5625C10.1937 10.35 9.73438 10.9266 7.87344 11.625C6.01719 10.9266 5.55781 10.35 5.07969 9.5625C4.63906 8.83125 4.53125 7.24687 4.34375 4.35938L4.61563 4.26562C5.16875 4.09688 5.58125 3.96094 5.88594 3.9C6.32188 3.80625 6.69687 3.70312 7.86875 3.67969C9.04062 3.69844 9.41563 3.81094 9.85156 3.90469C10.1516 3.97031 10.5828 4.09219 11.1313 4.26562L11.4078 4.35938Z" fill="#D50000"/>
<path fill-rule="evenodd" clip-rule="evenodd" d="M11.1355 4.26562C10.9574 7.14844 10.8074 8.47031 10.573 9.10312C10.123 10.1906 9.41055 10.7859 7.87305 11.3531C6.33555 10.7859 5.62305 10.1906 5.16836 9.10312C4.93398 8.46562 4.79336 7.14844 4.61523 4.26094C5.15898 4.09219 5.58086 3.96094 5.88555 3.9C6.32148 3.80625 6.69648 3.69844 7.86836 3.67969C9.04023 3.69844 9.41523 3.80625 9.85117 3.9C10.2851 3.99877 10.7137 4.11923 11.1355 4.26094V4.26562Z" fill="#0000BF"/>
<path fill-rule="evenodd" clip-rule="evenodd" d="M7.87363 5.14697L7.94395 5.32041L8.27207 5.36729L8.06113 5.49385L8.2627 5.62978L7.96738 5.67666L7.87363 5.83604L7.77988 5.67197L7.49863 5.63447L7.68613 5.49385L7.48926 5.36729L7.80332 5.32041L7.87363 5.14697Z" fill="#FFDF00"/>
<path fill-rule="evenodd" clip-rule="evenodd" d="M10.4656 8.41885L10.2828 8.27822L10.1562 8.0626L9.90313 7.84229L9.76719 7.62197L9.51406 7.39228L9.39219 7.17197L9.25156 7.06416L9.16719 6.9751L8.93281 7.17666L8.81094 7.39697L8.65625 7.5376L8.48281 7.40166L8.35625 7.17666L7.87344 6.31885L7.39062 7.17666L7.26406 7.40166L7.09063 7.5376L6.93594 7.39697L6.80938 7.17666L6.57969 6.9751L6.49063 7.05947L6.35469 7.17197L6.23281 7.39228L5.97969 7.62197L5.84375 7.84229L5.59063 8.0626L5.46406 8.27822L5.28125 8.41885C5.38431 9.06407 5.68961 9.65989 6.15313 10.1204C6.65599 10.5508 7.23907 10.8774 7.86875 11.0813C8.50323 10.8819 9.09024 10.5549 9.59375 10.1204C9.86562 9.83916 10.3719 9.21572 10.4656 8.41885Z" fill="white"/>
<path fill-rule="evenodd" clip-rule="evenodd" d="M8.64238 3.93286L8.71738 4.1063L9.04551 4.15317L8.82988 4.27974L9.03613 4.41567L8.74082 4.46255L8.64707 4.62192L8.55332 4.45786L8.27207 4.42036L8.45957 4.27974L8.2627 4.15317L8.57207 4.1063L8.64238 3.93286ZM7.09551 3.93286L7.17051 4.1063L7.49863 4.14849L7.2877 4.27505L7.48926 4.41099L7.19395 4.45786L7.1002 4.61724L7.00645 4.45786L6.7252 4.41567L6.9127 4.27505L6.71582 4.14849L7.02988 4.10161L7.09551 3.93286Z" fill="#FFDF00"/>
<path fill-rule="evenodd" clip-rule="evenodd" d="M10.0621 9.51567H9.71523L9.38711 9.49224L8.99805 9.30474H8.55742L8.17773 9.49224L7.87305 9.52036L7.57305 9.49224L7.19336 9.30474H6.74805L6.3543 9.49224L6.03086 9.52036L5.67461 9.51567L5.50586 9.22505L5.51055 9.21567L6.03555 9.30474L6.35898 9.2813L6.74805 9.08911H7.18867L7.57305 9.27661L7.87305 9.30474L8.17773 9.27661L8.55742 9.08911H8.99805L9.3918 9.27661L9.71523 9.30474L10.2215 9.21099L10.2309 9.22974L10.0621 9.51567ZM6.01211 9.96099L6.35898 9.93755L6.74805 9.75005H7.18867L7.57305 9.93755L7.87305 9.96099L8.17305 9.93755L8.55742 9.75005H8.99805L9.38711 9.93755L9.73867 9.96099L9.96367 9.67974H9.95898L9.71523 9.74536L9.3918 9.72192L9.00273 9.53442H8.56211L8.17773 9.72192L7.87773 9.75005L7.57305 9.72192L7.19336 9.53442H6.74805L6.3543 9.72192L6.03086 9.75005L5.79648 9.68911V9.69849L6.00742 9.96099H6.01211Z" fill="#0000BF"/>
</svg>
