<svg width="36" height="24" viewBox="0 0 36 24" fill="none" xmlns="http://www.w3.org/2000/svg">
<g clip-path="url(#clip0_11930_68350)">
<path d="M0 0H36V24H0V0Z" fill="#EE1C25"/>
<path d="M0 0H36V16H0V0Z" fill="#0B4EA2"/>
<path d="M0 0H36V8H0V0Z" fill="white"/>
<path d="M13.6499 18.54C11.4999 17.505 8.41992 15.445 8.41992 11.38C8.41992 7.30996 8.61992 5.45996 8.61992 5.45996H18.6849C18.6849 5.45996 18.8799 7.30996 18.8799 11.38C18.8799 15.45 15.7999 17.5 13.6499 18.54Z" fill="white"/>
<path d="M13.6496 17.9999C11.6746 17.0499 8.84961 15.1599 8.84961 11.4299C8.84961 7.69994 9.02961 5.99994 9.02961 5.99994H18.2696C18.2696 5.99994 18.4446 7.69994 18.4446 11.4299C18.4496 15.1649 15.6246 17.0499 13.6496 17.9999Z" fill="#EE1C25"/>
<path d="M14.0696 10.4499C14.6046 10.4599 15.6496 10.4799 16.5746 10.1699C16.5746 10.1699 16.5546 10.5049 16.5546 10.8899C16.5546 11.2749 16.5796 11.6099 16.5796 11.6099C15.7296 11.3249 14.6746 11.3199 14.0696 11.3249V13.3849H13.2296V11.3249C12.6296 11.3199 11.5746 11.3249 10.7246 11.6099C10.7246 11.6099 10.7496 11.2749 10.7496 10.8899C10.7496 10.4999 10.7246 10.1699 10.7246 10.1699C11.6496 10.4799 12.6946 10.4599 13.2246 10.4499V9.15494C12.7396 9.15494 12.0396 9.17494 11.2446 9.43994C11.2446 9.43994 11.2696 9.10994 11.2696 8.71994C11.2696 8.33494 11.2446 7.99994 11.2446 7.99994C12.0396 8.26494 12.7396 8.28994 13.2246 8.28494C13.1996 7.46494 12.9596 6.43494 12.9596 6.43494C12.9596 6.43494 13.4546 6.46994 13.6496 6.46994C13.8496 6.46994 14.3396 6.43494 14.3396 6.43494C14.3396 6.43494 14.0996 7.46494 14.0746 8.28494C14.5596 8.28994 15.2596 8.26494 16.0546 7.99994C16.0546 7.99994 16.0296 8.33494 16.0296 8.71994C16.0296 9.10994 16.0546 9.43994 16.0546 9.43994C15.4138 9.23332 14.7426 9.13695 14.0696 9.15494V10.4549V10.4499Z" fill="white"/>
<path d="M13.6497 13.165C12.6547 13.165 12.1247 14.54 12.1247 14.54C12.1247 14.54 11.8247 13.89 11.0147 13.89C10.4647 13.89 10.0647 14.375 9.80469 14.83C10.8047 16.415 12.3997 17.395 13.6497 18C14.8997 17.4 16.4997 16.415 17.4947 14.83C17.2347 14.38 16.8347 13.89 16.2847 13.89C15.4747 13.89 15.1747 14.54 15.1747 14.54C15.1747 14.54 14.6497 13.165 13.6497 13.165Z" fill="#0B4EA2"/>
</g>
<defs>
<clipPath id="clip0_11930_68350">
<rect width="36" height="24" rx="2" fill="white"/>
</clipPath>
</defs>
</svg>
