<svg width="36" height="24" viewBox="0 0 36 24" fill="none" xmlns="http://www.w3.org/2000/svg">
<g clip-path="url(#clip0_11930_68362)">
<path fill-rule="evenodd" clip-rule="evenodd" d="M0 12H36V24H0V12Z" fill="#19B6EF"/>
<path fill-rule="evenodd" clip-rule="evenodd" d="M0 0H36V12H0V0Z" fill="white"/>
<path fill-rule="evenodd" clip-rule="evenodd" d="M17.8494 16.9599C20.4794 14.9999 23.2994 10.9999 19.9944 8.88995C19.3794 8.76995 18.6944 8.80495 18.3594 9.06995C18.1844 8.96995 18.0444 8.97995 17.8694 9.16495C17.7444 9.01495 17.6194 8.94495 17.3694 9.01995C17.1301 8.89133 16.8675 8.8118 16.5971 8.78604C16.3266 8.76029 16.0537 8.78881 15.7944 8.86995C12.8994 10.5899 14.6694 14.6999 17.8494 16.9549V16.9599Z" fill="#FFDD00" stroke="#7D6C00" stroke-width="0.12"/>
<path fill-rule="evenodd" clip-rule="evenodd" d="M22.7026 12.505C22.7026 12.505 23.0026 12.105 23.0126 12.105C23.3076 11.935 23.3376 11.71 23.3376 11.71C23.6326 11.62 23.5376 11.375 23.5626 11.345C23.6088 11.2998 23.6401 11.2417 23.6526 11.1783C23.6651 11.115 23.6582 11.0493 23.6326 10.99C23.6326 10.95 23.7326 10.57 23.5926 10.52C23.5976 10.12 23.3526 10.155 23.1526 10.42C22.9426 10.48 22.8976 10.655 22.9726 10.845C22.6976 10.845 22.6876 11.245 22.7676 11.465C22.4026 11.455 22.6026 11.865 22.5926 11.885C22.4726 11.945 22.6876 12.525 22.7076 12.505H22.7026ZM20.4026 15.915L20.5826 16.025C20.6226 16.165 20.7526 16.255 20.8476 16.23C20.8976 16.445 21.1276 16.415 21.2976 16.29C21.4326 16.49 21.5976 16.49 21.8276 16.425C22.0276 16.575 22.2926 16.51 22.4676 16.355C22.6526 16.505 22.7776 16.395 22.8726 16.23C23.0226 16.27 23.1326 16.245 23.1876 16.1C23.4726 16.075 23.3326 15.805 23.0976 15.69C23.2826 15.53 23.4926 15.19 23.1976 15.14C23.1076 15.075 22.9326 15.09 22.8026 15.15C22.7676 15 22.5626 14.965 22.3326 15.13C22.2576 14.965 21.9826 15.045 21.8576 15.16C21.6926 15.02 21.4976 15.02 21.2126 15.18L20.4026 15.915ZM20.4026 15.48C20.4326 15.29 20.3026 14.95 20.5026 14.92C20.4676 14.605 20.5176 14.255 20.8776 14.285C20.9376 13.99 20.9276 13.715 21.2676 13.675C21.2676 13.675 21.5426 12.72 21.8276 13.38C21.9376 13.575 21.9176 13.89 21.6926 13.83C21.7376 14.065 21.6576 14.275 21.3976 14.265C21.5126 14.435 21.4776 14.66 21.3476 14.765L20.4026 15.48ZM22.0576 14.285L22.3576 14.225C22.6576 14.025 22.7826 13.94 22.9326 14.165C23.1876 14.115 23.4326 14.135 23.4226 14.335C23.7226 14.36 23.7226 14.55 23.6876 14.705C23.7376 14.97 23.6176 15.32 23.4376 14.895C22.8426 14.535 22.5076 14.585 21.5726 14.795L22.0576 14.285ZM22.2126 13.99C22.2226 13.98 23.0876 13.755 22.9976 13.49C23.2426 13.45 23.2926 13.205 23.2976 13.205C23.8126 13.045 23.7826 12.75 23.7826 12.75C23.9276 12.595 24.1826 12.435 24.1276 12.16C24.1426 11.845 24.1726 11.65 23.7476 11.855C23.4326 11.825 23.3226 12.005 23.2326 12.28C23.0826 12.105 22.8426 12.385 22.8126 12.635C22.8126 12.635 22.4276 13.015 22.4276 13.025L22.1026 13.625L22.2126 13.99Z" fill="#4FD46B" stroke="#3A9D4F" stroke-width="0.12" stroke-linejoin="round"/>
<path fill-rule="evenodd" clip-rule="evenodd" d="M22.2273 13.32C22.0223 13.165 21.9073 12.975 21.9423 12.79C21.8073 12.605 21.7123 12.495 21.8423 12.33L21.7423 11.955C21.4723 11.855 21.5873 11.63 21.6573 11.55C21.5323 11.375 21.5273 11.19 21.6473 11.03C21.6473 10.705 21.8773 10.83 22.0623 11.03C22.0623 11.03 22.3823 11.255 22.1473 11.455C22.3823 11.54 22.4473 11.74 22.3173 11.825C22.5223 11.915 22.5523 12.1 22.4423 12.225C22.6473 12.385 22.5723 12.595 22.6323 12.78L22.2273 13.32Z" fill="#4FD46B" stroke="#3A9D4F" stroke-width="0.12" stroke-linejoin="round"/>
<path fill-rule="evenodd" clip-rule="evenodd" d="M22.5925 11.7999C22.5825 11.7949 22.2475 11.3649 22.3425 11.3349C22.3175 11.2049 22.2175 11.0599 22.2775 10.9299C22.1125 10.7599 22.1075 10.5649 22.2375 10.4099C22.1275 10.2599 22.1775 10.0549 22.3275 9.91989C22.2775 9.66989 22.4575 9.60989 22.6125 9.56489C22.7275 9.16489 22.9125 9.26489 23.0225 9.57489C23.1825 9.71489 23.1575 9.92489 23.1025 10.0849C23.2925 10.2099 23.1775 10.3699 23.0925 10.4349L22.5925 11.7999Z" fill="#4FD46B" stroke="#3A9D4F" stroke-width="0.12" stroke-linejoin="round"/>
<path fill-rule="evenodd" clip-rule="evenodd" d="M22.5429 9.65496L22.2579 9.36996C22.3329 9.21996 22.3929 8.95496 22.1779 8.82996C22.0579 8.54496 21.4679 8.18496 21.3729 8.86996C21.2829 8.66496 21.0929 8.45996 20.9579 8.69996C20.6479 8.43496 20.4829 8.51496 20.6429 8.84996C20.6429 8.84996 20.4979 9.07496 20.8729 9.24996C20.9029 9.27996 20.7529 9.65496 21.2029 9.66496C21.1179 9.79496 21.2529 9.97496 21.4329 9.96496C21.3079 10.12 21.5229 10.29 21.6579 10.225C21.6029 10.4 21.6079 10.485 21.8529 10.51L22.1279 10.825L22.3529 11.13L22.5429 9.65496Z" fill="#4FD46B" stroke="#3A9D4F" stroke-width="0.12" stroke-linejoin="round"/>
<path d="M22.7171 12.3251C22.7321 12.3101 23.2671 11.0851 23.3371 10.7151M22.7721 10.1501C22.7721 10.1501 22.8621 11.1501 22.6171 11.8801M21.1321 9.14509C21.1321 9.14509 22.2271 10.1951 22.3321 10.6301M21.8971 9.03009C21.8971 9.03009 21.9671 9.89509 22.2721 10.7451M23.8221 12.1651C23.8221 12.1651 22.7321 13.0901 22.2021 13.9001M22.7921 15.4001C22.7921 15.4001 21.3521 15.6001 20.7221 15.6151M22.3221 16.0151C22.3221 16.0151 20.5321 15.9751 20.4021 15.8451M21.4271 13.6951C21.4271 13.7151 20.5171 15.2101 20.4871 15.6951" stroke="#3A9D4F" stroke-width="0.11" stroke-linecap="round"/>
<path fill-rule="evenodd" clip-rule="evenodd" d="M17.8446 16.67C15.9546 14.89 14.0196 11.55 15.9446 9.86002C16.2846 10.05 16.6896 9.88002 17.2446 9.66002C17.4146 9.84502 17.6296 9.89002 17.8446 9.75002C17.933 9.79347 18.0332 9.80673 18.1298 9.78777C18.2265 9.7688 18.3142 9.71865 18.3796 9.64502C18.9296 9.96002 19.6246 10.125 19.7896 9.81002C21.6796 11.61 19.7596 14.97 17.8396 16.675L17.8446 16.67Z" fill="#65C7FF" stroke="#7D6C00" stroke-width="0.12"/>
<path fill-rule="evenodd" clip-rule="evenodd" d="M17.8494 16.6201C16.9871 15.7862 16.272 14.8124 15.7344 13.7401C15.8344 13.6551 15.8794 13.6301 15.9294 13.4901C16.2194 13.5301 16.3744 13.5401 16.7544 13.4701C16.8344 13.7601 16.8494 14.0001 17.0294 14.2401L17.4144 13.4901C17.6851 13.5586 17.9686 13.5586 18.2394 13.4901C18.3994 13.7001 18.3394 14.0251 18.6244 14.2701C18.7944 13.7701 18.9594 13.7401 19.1294 13.4701C19.3794 13.5601 19.5394 13.5201 19.7444 13.4551C19.8444 13.5801 19.7944 13.5751 19.9944 13.7551C19.4651 14.8346 18.7394 15.8062 17.8544 16.6201H17.8494Z" fill="#8FC753"/>
<path fill-rule="evenodd" clip-rule="evenodd" d="M15.6298 8.21496C15.6341 8.23938 15.6329 8.26443 15.6265 8.28835C15.62 8.31228 15.6084 8.3345 15.5924 8.35346C15.5765 8.37242 15.5565 8.38767 15.5341 8.39813C15.5116 8.40859 15.4871 8.414 15.4623 8.414C15.4376 8.414 15.4131 8.40859 15.3906 8.39813C15.3681 8.38767 15.3482 8.37242 15.3323 8.35346C15.3163 8.3345 15.3047 8.31228 15.2982 8.28835C15.2918 8.26443 15.2906 8.23938 15.2948 8.21496C15.2948 8.16987 15.3128 8.12663 15.3446 8.09475C15.3765 8.06287 15.4198 8.04496 15.4648 8.04496C15.5099 8.04496 15.5532 8.06287 15.5851 8.09475C15.6169 8.12663 15.6348 8.16987 15.6348 8.21496H15.6298ZM15.4548 7.82996C15.4611 7.85501 15.4615 7.88114 15.4561 7.90638C15.4507 7.93162 15.4396 7.9553 15.4237 7.97563C15.4078 7.99595 15.3875 8.01239 15.3643 8.0237C15.3411 8.03501 15.3157 8.04088 15.2898 8.04088C15.264 8.04088 15.2386 8.03501 15.2154 8.0237C15.1922 8.01239 15.1718 7.99595 15.1559 7.97563C15.14 7.9553 15.129 7.93162 15.1236 7.90638C15.1182 7.88114 15.1186 7.85501 15.1248 7.82996C15.1317 7.7905 15.1522 7.75472 15.1829 7.72893C15.2135 7.70314 15.2523 7.689 15.2923 7.689C15.3324 7.689 15.3712 7.70314 15.4018 7.72893C15.4324 7.75472 15.453 7.7905 15.4598 7.82996H15.4548ZM15.2548 7.47496C15.2591 7.49938 15.2579 7.52443 15.2515 7.54835C15.245 7.57228 15.2334 7.5945 15.2174 7.61346C15.2015 7.63242 15.1815 7.64767 15.1591 7.65813C15.1366 7.66858 15.1121 7.674 15.0873 7.674C15.0626 7.674 15.0381 7.66858 15.0156 7.65813C14.9931 7.64767 14.9732 7.63242 14.9573 7.61346C14.9413 7.5945 14.9297 7.57228 14.9232 7.54835C14.9168 7.52443 14.9156 7.49938 14.9198 7.47496C14.9267 7.4355 14.9472 7.39972 14.9779 7.37393C15.0085 7.34814 15.0473 7.334 15.0873 7.334C15.1274 7.334 15.1662 7.34814 15.1968 7.37393C15.2274 7.39972 15.248 7.4355 15.2548 7.47496ZM15.1148 7.12496C15.1191 7.14938 15.1179 7.17443 15.1115 7.19835C15.105 7.22228 15.0934 7.2445 15.0774 7.26346C15.0615 7.28242 15.0415 7.29767 15.0191 7.30813C14.9966 7.31858 14.9721 7.324 14.9473 7.324C14.9226 7.324 14.8981 7.31858 14.8756 7.30813C14.8531 7.29767 14.8332 7.28242 14.8173 7.26346C14.8013 7.2445 14.7897 7.22228 14.7832 7.19835C14.7768 7.17443 14.7756 7.14938 14.7798 7.12496C14.7867 7.0855 14.8072 7.04972 14.8379 7.02393C14.8685 6.99814 14.9073 6.984 14.9473 6.984C14.9874 6.984 15.0262 6.99814 15.0568 7.02393C15.0874 7.04972 15.108 7.0855 15.1148 7.12496ZM15.1398 6.74496C15.1441 6.76938 15.1429 6.79443 15.1365 6.81835C15.13 6.84228 15.1184 6.8645 15.1024 6.88346C15.0865 6.90242 15.0665 6.91767 15.0441 6.92813C15.0216 6.93858 14.9971 6.944 14.9723 6.944C14.9476 6.944 14.9231 6.93858 14.9006 6.92813C14.8781 6.91767 14.8582 6.90242 14.8423 6.88346C14.8263 6.8645 14.8147 6.84228 14.8082 6.81835C14.8018 6.79443 14.8006 6.76938 14.8048 6.74496C14.8117 6.7055 14.8322 6.66972 14.8629 6.64393C14.8935 6.61814 14.9323 6.604 14.9723 6.604C15.0124 6.604 15.0512 6.61814 15.0818 6.64393C15.1124 6.66972 15.133 6.7055 15.1398 6.74496ZM16.0198 6.11996C16.0241 6.14438 16.0229 6.16943 16.0165 6.19335C16.01 6.21728 15.9984 6.2395 15.9824 6.25846C15.9665 6.27742 15.9465 6.29267 15.9241 6.30313C15.9016 6.31359 15.8771 6.319 15.8523 6.319C15.8276 6.319 15.8031 6.31359 15.7806 6.30313C15.7581 6.29267 15.7382 6.27742 15.7223 6.25846C15.7063 6.2395 15.6947 6.21728 15.6882 6.19335C15.6818 6.16943 15.6806 6.14438 15.6848 6.11996C15.6917 6.0805 15.7122 6.04472 15.7429 6.01893C15.7735 5.99314 15.8123 5.979 15.8523 5.979C15.8924 5.979 15.9312 5.99314 15.9618 6.01893C15.9924 6.04472 16.013 6.0805 16.0198 6.11996Z" fill="white" stroke="black" stroke-width="0.055"/>
<path fill-rule="evenodd" clip-rule="evenodd" d="M15.6896 6.17992C15.6938 6.20434 15.6926 6.22939 15.6862 6.25332C15.6797 6.27724 15.6681 6.29947 15.6521 6.31843C15.6362 6.33739 15.6163 6.35264 15.5938 6.36309C15.5713 6.37355 15.5468 6.37897 15.5221 6.37897C15.4973 6.37897 15.4728 6.37355 15.4503 6.36309C15.4279 6.35264 15.4079 6.33739 15.392 6.31843C15.376 6.29947 15.3644 6.27724 15.3579 6.25332C15.3515 6.22939 15.3503 6.20434 15.3546 6.17992C15.3614 6.14046 15.382 6.10468 15.4126 6.0789C15.4432 6.05311 15.482 6.03897 15.5221 6.03897C15.5621 6.03897 15.6009 6.05311 15.6315 6.0789C15.6622 6.10468 15.6827 6.14046 15.6896 6.17992ZM15.3246 6.39492C15.3288 6.41934 15.3276 6.44439 15.3212 6.46832C15.3147 6.49224 15.3031 6.51447 15.2871 6.53343C15.2712 6.55239 15.2513 6.56763 15.2288 6.57809C15.2063 6.58855 15.1818 6.59397 15.1571 6.59397C15.1323 6.59397 15.1078 6.58855 15.0853 6.57809C15.0629 6.56763 15.0429 6.55239 15.027 6.53343C15.011 6.51447 14.9994 6.49224 14.9929 6.46832C14.9865 6.44439 14.9853 6.41934 14.9896 6.39492C14.9964 6.35546 15.017 6.31968 15.0476 6.2939C15.0782 6.26811 15.117 6.25397 15.1571 6.25397C15.1971 6.25397 15.2359 6.26811 15.2665 6.2939C15.2972 6.31968 15.3177 6.35546 15.3246 6.39492ZM16.4446 6.12492C16.4508 6.14997 16.4512 6.17611 16.4458 6.20135C16.4404 6.22658 16.4294 6.25027 16.4135 6.27059C16.3976 6.29092 16.3772 6.30736 16.354 6.31867C16.3308 6.32997 16.3054 6.33585 16.2796 6.33585C16.2538 6.33585 16.2283 6.32997 16.2051 6.31867C16.1819 6.30736 16.1616 6.29092 16.1457 6.27059C16.1298 6.25027 16.1187 6.22658 16.1133 6.20135C16.1079 6.17611 16.1083 6.14997 16.1146 6.12492C16.1237 6.08807 16.1449 6.05534 16.1748 6.03195C16.2047 6.00856 16.2416 5.99585 16.2796 5.99585C16.3175 5.99585 16.3544 6.00856 16.3843 6.03195C16.4142 6.05534 16.4354 6.08807 16.4446 6.12492ZM16.9146 6.16492C16.9188 6.18934 16.9176 6.21439 16.9112 6.23832C16.9047 6.26224 16.8931 6.28447 16.8771 6.30343C16.8612 6.32239 16.8413 6.33764 16.8188 6.34809C16.7963 6.35855 16.7718 6.36397 16.7471 6.36397C16.7223 6.36397 16.6978 6.35855 16.6753 6.34809C16.6529 6.33764 16.6329 6.32239 16.617 6.30343C16.601 6.28447 16.5894 6.26224 16.5829 6.23832C16.5765 6.21439 16.5753 6.18934 16.5796 6.16492C16.5864 6.12546 16.607 6.08968 16.6376 6.0639C16.6682 6.03811 16.707 6.02397 16.7471 6.02397C16.7871 6.02397 16.8259 6.03811 16.8565 6.0639C16.8872 6.08968 16.9077 6.12546 16.9146 6.16492ZM17.3246 6.13992C17.3308 6.16497 17.3312 6.19111 17.3258 6.21635C17.3204 6.24159 17.3094 6.26527 17.2935 6.28559C17.2776 6.30592 17.2572 6.32236 17.234 6.33367C17.2108 6.34497 17.1854 6.35085 17.1596 6.35085C17.1338 6.35085 17.1083 6.34497 17.0851 6.33367C17.0619 6.32236 17.0416 6.30592 17.0257 6.28559C17.0098 6.26527 16.9987 6.24159 16.9933 6.21635C16.9879 6.19111 16.9883 6.16497 16.9946 6.13992C17.0014 6.10046 17.022 6.06468 17.0526 6.0389C17.0832 6.01311 17.122 5.99897 17.1621 5.99897C17.2021 5.99897 17.2409 6.01311 17.2715 6.0389C17.3022 6.06468 17.3227 6.10046 17.3296 6.13992H17.3246Z" fill="white" stroke="black" stroke-width="0.055"/>
<path fill-rule="evenodd" clip-rule="evenodd" d="M18.2948 5.87495C18.2948 5.98899 18.2495 6.09836 18.1689 6.179C18.0882 6.25964 17.9789 6.30495 17.8648 6.30495C17.7508 6.30495 17.6414 6.25964 17.5608 6.179C17.4801 6.09836 17.4348 5.98899 17.4348 5.87495C17.4348 5.7609 17.4801 5.65153 17.5608 5.57089C17.6414 5.49025 17.7508 5.44495 17.8648 5.44495C17.9789 5.44495 18.0882 5.49025 18.1689 5.57089C18.2495 5.65153 18.2948 5.7609 18.2948 5.87495Z" fill="#FFDD00" stroke="#7D6C00" stroke-width="0.055"/>
<path fill-rule="evenodd" clip-rule="evenodd" d="M18.7502 6.13485C18.7502 6.17994 18.7322 6.22318 18.7004 6.25506C18.6685 6.28694 18.6252 6.30485 18.5802 6.30485C18.5351 6.30485 18.4918 6.28694 18.4599 6.25506C18.4281 6.22318 18.4102 6.17994 18.4102 6.13485C18.417 6.09539 18.4376 6.05961 18.4682 6.03382C18.4988 6.00804 18.5376 5.9939 18.5777 5.9939C18.6177 5.9939 18.6565 6.00804 18.6871 6.03382C18.7178 6.05961 18.7383 6.09539 18.7452 6.13485H18.7502ZM19.1802 6.16985C19.1864 6.1949 19.1868 6.22103 19.1814 6.24627C19.176 6.27151 19.165 6.29519 19.1491 6.31552C19.1332 6.33585 19.1128 6.35229 19.0896 6.36359C19.0664 6.3749 19.041 6.38078 19.0152 6.38078C18.9893 6.38078 18.9639 6.3749 18.9407 6.36359C18.9175 6.35229 18.8972 6.33585 18.8813 6.31552C18.8654 6.29519 18.8543 6.27151 18.8489 6.24627C18.8435 6.22103 18.8439 6.1949 18.8502 6.16985C18.857 6.13039 18.8776 6.09461 18.9082 6.06882C18.9388 6.04304 18.9776 6.0289 19.0177 6.0289C19.0577 6.0289 19.0965 6.04304 19.1271 6.06882C19.1578 6.09461 19.1783 6.13039 19.1852 6.16985H19.1802ZM19.6052 6.14985C19.6094 6.17427 19.6082 6.19932 19.6018 6.22324C19.5953 6.24717 19.5837 6.26939 19.5677 6.28835C19.5518 6.30732 19.5319 6.32256 19.5094 6.33302C19.4869 6.34348 19.4624 6.3489 19.4377 6.3489C19.4129 6.3489 19.3884 6.34348 19.3659 6.33302C19.3435 6.32256 19.3235 6.30732 19.3076 6.28835C19.2916 6.26939 19.28 6.24717 19.2735 6.22324C19.2671 6.19932 19.2659 6.17427 19.2702 6.14985C19.277 6.11039 19.2976 6.07461 19.3282 6.04882C19.3588 6.02304 19.3976 6.0089 19.4377 6.0089C19.4777 6.0089 19.5165 6.02304 19.5471 6.04882C19.5778 6.07461 19.5983 6.11039 19.6052 6.14985ZM19.9602 6.13485C19.9644 6.15927 19.9632 6.18432 19.9568 6.20824C19.9503 6.23217 19.9387 6.25439 19.9227 6.27335C19.9068 6.29232 19.8869 6.30756 19.8644 6.31802C19.8419 6.32848 19.8174 6.3339 19.7927 6.3339C19.7679 6.3339 19.7434 6.32848 19.7209 6.31802C19.6985 6.30756 19.6785 6.29232 19.6626 6.27335C19.6466 6.25439 19.635 6.23217 19.6285 6.20824C19.6221 6.18432 19.6209 6.15927 19.6252 6.13485C19.632 6.09539 19.6526 6.05961 19.6832 6.03382C19.7138 6.00804 19.7526 5.9939 19.7927 5.9939C19.8327 5.9939 19.8715 6.00804 19.9021 6.03382C19.9328 6.05961 19.9533 6.09539 19.9602 6.13485ZM20.4052 6.18485C20.4094 6.20927 20.4082 6.23432 20.4018 6.25824C20.3953 6.28217 20.3837 6.30439 20.3677 6.32335C20.3518 6.34232 20.3319 6.35756 20.3094 6.36802C20.2869 6.37848 20.2624 6.3839 20.2377 6.3839C20.2129 6.3839 20.1884 6.37848 20.1659 6.36802C20.1435 6.35756 20.1235 6.34232 20.1076 6.32335C20.0916 6.30439 20.08 6.28217 20.0735 6.25824C20.0671 6.23432 20.0659 6.20927 20.0702 6.18485C20.077 6.14539 20.0976 6.10961 20.1282 6.08382C20.1588 6.05804 20.1976 6.0439 20.2377 6.0439C20.2777 6.0439 20.3165 6.05804 20.3471 6.08382C20.3778 6.10961 20.3983 6.14539 20.4052 6.18485ZM20.7552 6.40485C20.7594 6.42927 20.7582 6.45432 20.7518 6.47824C20.7453 6.50217 20.7337 6.52439 20.7177 6.54335C20.7018 6.56232 20.6819 6.57756 20.6594 6.58802C20.6369 6.59848 20.6124 6.6039 20.5877 6.6039C20.5629 6.6039 20.5384 6.59848 20.5159 6.58802C20.4935 6.57756 20.4735 6.56232 20.4576 6.54335C20.4416 6.52439 20.43 6.50217 20.4235 6.47824C20.4171 6.45432 20.4159 6.42927 20.4202 6.40485C20.427 6.36539 20.4476 6.32961 20.4782 6.30382C20.5088 6.27804 20.5476 6.2639 20.5877 6.2639C20.6277 6.2639 20.6665 6.27804 20.6971 6.30382C20.7278 6.32961 20.7483 6.36539 20.7552 6.40485Z" fill="white" stroke="black" stroke-width="0.055"/>
<path fill-rule="evenodd" clip-rule="evenodd" d="M15.47 7.58497L15.9 8.40997H19.86L20.32 7.61497C20.05 7.42997 19.87 7.28997 19.485 7.37497C19.27 7.06497 19.035 7.00997 18.685 7.03997C18.58 6.93497 18.485 6.86997 18.305 6.83997L17.475 6.86497C17.255 6.88497 17.085 7.05497 17.075 7.05497C16.725 7.00997 16.4 7.01997 16.315 7.36497C15.99 7.28497 15.765 7.37497 15.47 7.58497Z" fill="#E40000" stroke="#AC0000" stroke-width="0.12"/>
<path fill-rule="evenodd" clip-rule="evenodd" d="M20.8989 6.76498C20.9031 6.7894 20.902 6.81445 20.8955 6.83837C20.8891 6.8623 20.8774 6.88452 20.8615 6.90348C20.8455 6.92244 20.8256 6.93769 20.8031 6.94815C20.7807 6.9586 20.7562 6.96402 20.7314 6.96402C20.7066 6.96402 20.6821 6.9586 20.6597 6.94815C20.6372 6.93769 20.6173 6.92244 20.6013 6.90348C20.5854 6.88452 20.5738 6.8623 20.5673 6.83837C20.5608 6.81445 20.5597 6.7894 20.5639 6.76498C20.5707 6.72552 20.5913 6.68974 20.6219 6.66395C20.6526 6.63816 20.6914 6.62402 20.7314 6.62402C20.7715 6.62402 20.8102 6.63816 20.8409 6.66395C20.8715 6.68974 20.8921 6.72552 20.8989 6.76498ZM20.9289 7.16498C20.9331 7.1894 20.932 7.21445 20.9255 7.23837C20.9191 7.2623 20.9074 7.28452 20.8915 7.30348C20.8755 7.32244 20.8556 7.33769 20.8331 7.34815C20.8107 7.3586 20.7862 7.36402 20.7614 7.36402C20.7366 7.36402 20.7121 7.3586 20.6897 7.34815C20.6672 7.33769 20.6473 7.32244 20.6313 7.30348C20.6154 7.28452 20.6038 7.2623 20.5973 7.23837C20.5908 7.21445 20.5897 7.1894 20.5939 7.16498C20.6007 7.12552 20.6213 7.08974 20.6519 7.06395C20.6826 7.03816 20.7214 7.02402 20.7614 7.02402C20.8015 7.02402 20.8402 7.03816 20.8709 7.06395C20.9015 7.08974 20.9221 7.12552 20.9289 7.16498ZM20.8039 7.52498C20.8081 7.5494 20.807 7.57444 20.8005 7.59837C20.7941 7.6223 20.7824 7.64452 20.7665 7.66348C20.7505 7.68244 20.7306 7.69769 20.7081 7.70815C20.6857 7.7186 20.6612 7.72402 20.6364 7.72402C20.6116 7.72402 20.5871 7.7186 20.5647 7.70815C20.5422 7.69769 20.5223 7.68244 20.5063 7.66348C20.4904 7.64452 20.4788 7.6223 20.4723 7.59837C20.4658 7.57444 20.4647 7.5494 20.4689 7.52498C20.4757 7.48552 20.4963 7.44974 20.5269 7.42395C20.5576 7.39816 20.5964 7.38402 20.6364 7.38402C20.6765 7.38402 20.7152 7.39816 20.7459 7.42395C20.7765 7.44974 20.7971 7.48552 20.8039 7.52498ZM20.6539 7.82498C20.6539 7.87006 20.636 7.9133 20.6041 7.94518C20.5722 7.97707 20.529 7.99498 20.4839 7.99498C20.4388 7.99498 20.3956 7.97707 20.3637 7.94518C20.3318 7.9133 20.3139 7.87006 20.3139 7.82498C20.3207 7.78552 20.3413 7.74974 20.3719 7.72395C20.4026 7.69816 20.4414 7.68402 20.4814 7.68402C20.5215 7.68402 20.5602 7.69816 20.5909 7.72395C20.6215 7.74974 20.6421 7.78552 20.6489 7.82498H20.6539ZM20.4689 8.19998C20.4731 8.2244 20.472 8.24944 20.4655 8.27337C20.4591 8.2973 20.4474 8.31952 20.4315 8.33848C20.4155 8.35744 20.3956 8.37269 20.3731 8.38315C20.3507 8.3936 20.3262 8.39902 20.3014 8.39902C20.2766 8.39902 20.2521 8.3936 20.2297 8.38315C20.2072 8.37269 20.1873 8.35744 20.1713 8.33848C20.1554 8.31952 20.1438 8.2973 20.1373 8.27337C20.1308 8.24944 20.1297 8.2244 20.1339 8.19998C20.1407 8.16052 20.1613 8.12474 20.1919 8.09895C20.2226 8.07316 20.2614 8.05902 20.3014 8.05902C20.3415 8.05902 20.3802 8.07316 20.4109 8.09895C20.4415 8.12474 20.4621 8.16052 20.4689 8.19998ZM18.1289 7.71998C18.1289 7.78628 18.1026 7.84987 18.0557 7.89675C18.0088 7.94364 17.9452 7.96998 17.8789 7.96998C17.8126 7.96998 17.749 7.94364 17.7021 7.89675C17.6552 7.84987 17.6289 7.78628 17.6289 7.71998C17.6289 7.65367 17.6552 7.59008 17.7021 7.5432C17.749 7.49632 17.8126 7.46998 17.8789 7.46998C17.9452 7.46998 18.0088 7.49632 18.0557 7.5432C18.1026 7.59008 18.1289 7.65367 18.1289 7.71998Z" fill="white" stroke="black" stroke-width="0.055"/>
<path fill-rule="evenodd" clip-rule="evenodd" d="M18.1793 7.14998C18.1793 7.22954 18.1477 7.30585 18.0915 7.36211C18.0352 7.41837 17.9589 7.44998 17.8793 7.44998C17.7998 7.44998 17.7235 7.41837 17.6672 7.36211C17.611 7.30585 17.5793 7.22954 17.5793 7.14998C17.5793 7.07041 17.611 6.9941 17.6672 6.93784C17.7235 6.88158 17.7998 6.84998 17.8793 6.84998C17.9589 6.84998 18.0352 6.88158 18.0915 6.93784C18.1477 6.9941 18.1793 7.07041 18.1793 7.14998Z" fill="white" stroke="black" stroke-width="0.055"/>
<path fill-rule="evenodd" clip-rule="evenodd" d="M18.135 6.59996C18.135 6.67156 18.1065 6.74024 18.0559 6.79087C18.0053 6.84151 17.9366 6.86996 17.865 6.86996C17.7934 6.86996 17.7247 6.84151 17.6741 6.79087C17.6234 6.74024 17.595 6.67156 17.595 6.59996C17.595 6.52835 17.6234 6.45967 17.6741 6.40904C17.7247 6.3584 17.7934 6.32996 17.865 6.32996C17.9366 6.32996 18.0053 6.3584 18.0559 6.40904C18.1065 6.45967 18.135 6.52835 18.135 6.59996Z" fill="white" stroke="black" stroke-width="0.055"/>
<path fill-rule="evenodd" clip-rule="evenodd" d="M17.775 5.44994V5.23994L17.595 5.23494L17.605 5.07494H17.755V4.93494H17.98V5.05994H18.155L18.15 5.22994H17.97V5.45494H17.77L17.775 5.44994Z" fill="#FFDD00" stroke="#7D6C00" stroke-width="0.055"/>
<path d="M15.8799 8.40996C15.5249 7.80996 14.9999 6.98996 15.3299 6.63496C15.7749 6.12996 16.8249 6.58496 17.4949 6.29496C17.5449 6.86496 17.3849 7.81496 17.6399 8.00996L17.3999 8.21996C17.2499 8.03496 16.9799 7.77996 16.6399 8.22996C16.4399 8.05996 16.2249 8.08996 16.1199 8.31496C16.0199 8.32996 16.0249 8.36996 15.8799 8.40996ZM19.8799 8.38496C20.2399 7.78496 20.7599 6.96996 20.4349 6.61496C19.9849 6.10996 18.9349 6.56496 18.2699 6.26996C18.2199 6.84496 18.3799 7.79496 18.1199 7.98996L18.3599 8.19996C18.5949 7.87496 18.8799 7.86496 19.1249 8.20996C19.3199 8.03996 19.5199 8.05996 19.6449 8.29496C19.7449 8.30996 19.7349 8.34496 19.8849 8.38496H19.8799Z" stroke="#FFDD00" stroke-width="0.165"/>
<path fill-rule="evenodd" clip-rule="evenodd" d="M15.8647 8.85496C17.1837 8.73479 18.5108 8.73479 19.8297 8.85496L19.9847 8.40496C18.5997 8.15496 17.6447 8.12496 15.8347 8.37496L15.8647 8.85496Z" fill="#FFDD00" stroke="#7D6C00" stroke-width="0.12"/>
<path fill-rule="evenodd" clip-rule="evenodd" d="M17.7043 16.4699L17.7343 16.2599C17.8793 16.2999 17.9843 16.2849 18.1043 16.2399L18.2243 16.0549L18.1343 15.9499C18.0543 15.9649 17.9843 16.0399 17.9343 16.1049C17.8543 16.1099 17.7843 16.0699 17.7043 16.0549L17.6293 15.7349C17.5543 15.6449 17.3943 15.6499 17.4293 15.8099L17.4443 15.9349C17.4743 16.0099 17.4893 16.1149 17.5393 16.1699V16.2999L17.7043 16.4699ZM17.7643 15.5549C17.6643 15.6049 17.5343 15.5149 17.3993 15.4599C17.2743 15.4549 17.1793 15.5599 17.0293 15.5249C17.0593 15.4449 17.1243 15.4299 17.1693 15.3849C17.1343 15.1799 17.2443 15.1099 17.2743 15.1099C17.3043 15.1099 17.4293 15.1399 17.4293 15.1399L17.5493 15.1549C17.6243 15.2899 17.7243 15.4049 17.7643 15.5549Z" fill="#C76E2E"/>
<path fill-rule="evenodd" clip-rule="evenodd" d="M17.0399 18.3C17.3899 17.73 19.8499 16.58 22.1599 14.09C19.8099 16.355 18.3399 16.91 16.4199 18.29L17.0399 18.305V18.3Z" fill="#FFE100" stroke="#E9BF00" stroke-width="0.12"/>
<path fill-rule="evenodd" clip-rule="evenodd" d="M20.4198 15.66C20.4198 15.7077 20.4008 15.7535 20.3671 15.7873C20.3333 15.821 20.2876 15.84 20.2398 15.84C20.1921 15.84 20.1463 15.821 20.1125 15.7873C20.0788 15.7535 20.0598 15.7077 20.0598 15.66C20.0598 15.6122 20.0788 15.5665 20.1125 15.5327C20.1463 15.4989 20.1921 15.48 20.2398 15.48C20.2876 15.48 20.3333 15.4989 20.3671 15.5327C20.4008 15.5665 20.4198 15.6122 20.4198 15.66ZM22.1398 13.915C22.1398 13.9687 22.1185 14.0202 22.0805 14.0582C22.0425 14.0961 21.991 14.1175 21.9373 14.1175C21.8836 14.1175 21.8321 14.0961 21.7941 14.0582C21.7561 14.0202 21.7348 13.9687 21.7348 13.915C21.7348 13.8619 21.7559 13.8111 21.7934 13.7736C21.8309 13.736 21.8818 13.715 21.9348 13.715C21.9879 13.715 22.0387 13.736 22.0762 13.7736C22.1137 13.8111 22.1348 13.8619 22.1348 13.915H22.1398ZM22.7098 12.435C22.7142 12.4608 22.7128 12.4872 22.7059 12.5125C22.699 12.5377 22.6867 12.5611 22.6698 12.5811C22.6529 12.6011 22.6318 12.6171 22.6081 12.6281C22.5843 12.6392 22.5585 12.6449 22.5323 12.6449C22.5061 12.6449 22.4803 12.6392 22.4566 12.6281C22.4328 12.6171 22.4118 12.6011 22.3949 12.5811C22.378 12.5611 22.3656 12.5377 22.3587 12.5125C22.3518 12.4872 22.3505 12.4608 22.3548 12.435C22.3619 12.393 22.3836 12.3549 22.4161 12.3274C22.4486 12.2999 22.4898 12.2849 22.5323 12.2849C22.5749 12.2849 22.616 12.2999 22.6485 12.3274C22.681 12.3549 22.7027 12.393 22.7098 12.435ZM22.1498 10.515C22.1542 10.5408 22.1528 10.5672 22.1459 10.5925C22.139 10.6177 22.1267 10.6411 22.1098 10.6611C22.0929 10.6811 22.0718 10.6971 22.0481 10.7081C22.0243 10.7192 21.9985 10.7249 21.9723 10.7249C21.9461 10.7249 21.9203 10.7192 21.8966 10.7081C21.8728 10.6971 21.8518 10.6811 21.8349 10.6611C21.818 10.6411 21.8056 10.6177 21.7987 10.5925C21.7918 10.5672 21.7905 10.5408 21.7948 10.515C21.8019 10.473 21.8236 10.4349 21.8561 10.4074C21.8886 10.3799 21.9298 10.3649 21.9723 10.3649C22.0149 10.3649 22.056 10.3799 22.0885 10.4074C22.121 10.4349 22.1427 10.473 22.1498 10.515Z" fill="#9D4916" stroke="#68300E" stroke-width="0.055"/>
<path fill-rule="evenodd" clip-rule="evenodd" d="M15.9539 13.48V12.72L15.8789 12.66V12.48L16.0189 12.465L16.0439 11.615L15.9539 11.565L15.9439 11.425C15.9439 11.425 16.0439 11.465 16.0439 11.44L16.0689 11.27C16.0689 11.27 16.0039 11.26 16.0039 11.235C16.0039 11.21 16.0839 11.145 16.0839 11.145C16.0839 11.145 16.0439 11.105 16.0339 11.08L15.9939 10.94L16.0339 10.795L16.0089 10.72L15.9439 10.605L16.0339 10.515L16.0089 10.375C16.0258 10.3229 16.0511 10.2739 16.0839 10.23C16.0989 10.22 16.1989 10.08 16.1989 10.08L16.4189 10.03L16.6739 10.065L16.8139 10.155L16.8389 10.385C16.8389 10.385 16.8139 10.525 16.8039 10.525L16.6889 10.575C16.6889 10.575 16.5589 10.59 16.5439 10.575C16.5289 10.56 16.5839 10.735 16.5839 10.735V10.885L16.5739 11.08C16.5739 11.08 16.5739 11.17 16.5589 11.18C16.5439 11.19 16.5189 11.23 16.5189 11.23L16.5089 11.43L16.7089 11.48L16.6989 11.595L16.5589 11.605L16.5839 12.39L16.7889 12.425V12.645L16.6989 12.695L16.6739 13.48H15.9539ZM19.0739 13.495V12.735L18.9989 12.67V12.49L19.1389 12.48L19.1639 11.63L19.0739 11.58L19.0639 11.44C19.0639 11.44 19.1639 11.475 19.1639 11.45L19.1889 11.285C19.1889 11.285 19.1239 11.27 19.1239 11.245C19.1239 11.22 19.2039 11.155 19.2039 11.155C19.2039 11.155 19.1639 11.12 19.1539 11.09L19.1139 10.95L19.1539 10.81L19.1239 10.735L19.0639 10.62L19.1539 10.53L19.1239 10.385C19.1428 10.3343 19.1698 10.2871 19.2039 10.245L19.3189 10.095L19.5389 10.04L19.7939 10.08L19.9339 10.17L19.9589 10.4C19.9589 10.4 19.9339 10.54 19.9239 10.54L19.8089 10.59C19.8089 10.59 19.6789 10.605 19.6639 10.59C19.6489 10.575 19.7039 10.745 19.7039 10.745V10.9L19.6889 11.095C19.6889 11.095 19.6889 11.18 19.6789 11.195L19.6389 11.245L19.6289 11.44L19.8289 11.49L19.8189 11.605L19.6789 11.62L19.7039 12.4L19.9089 12.44V12.66L19.8189 12.71L19.7939 13.495H19.0739ZM17.4939 13.52V12.76L17.4189 12.7V12.515L17.5589 12.505L17.5839 11.655L17.4939 11.605L17.4839 11.465C17.4839 11.465 17.5839 11.505 17.5839 11.48L17.6089 11.31C17.6089 11.31 17.5489 11.3 17.5489 11.275C17.5489 11.25 17.6239 11.18 17.6239 11.18C17.6239 11.18 17.5839 11.145 17.5739 11.12L17.5339 10.975L17.5739 10.835L17.5489 10.76L17.4839 10.645L17.5739 10.555L17.5489 10.41C17.5654 10.3593 17.5908 10.3119 17.6239 10.27C17.6389 10.26 17.7389 10.12 17.7389 10.12L17.9589 10.07L18.2139 10.105L18.3539 10.195L18.3839 10.425C18.3839 10.425 18.3539 10.565 18.3439 10.565L18.2289 10.615C18.2289 10.615 18.0989 10.63 18.0889 10.615C18.0789 10.6 18.1239 10.77 18.1239 10.77V10.925L18.1139 11.12C18.1139 11.12 18.1139 11.21 18.0989 11.22L18.0589 11.27L18.0489 11.465L18.2489 11.515L18.2389 11.63L18.0989 11.645L18.1239 12.43L18.3289 12.465V12.685L18.2389 12.735L18.2139 13.52H17.4989H17.4939Z" fill="white" stroke="#A9A9A9" stroke-width="0.055"/>
<path fill-rule="evenodd" clip-rule="evenodd" d="M16.1497 13.475V12.875H16.4797V13.5L16.1497 13.475ZM17.7197 13.525L17.7347 12.915H18.0347V13.51L17.7197 13.52V13.525ZM19.2697 13.51L19.2497 12.935L19.5747 12.925V13.525L19.2747 13.51H19.2697ZM16.2297 11.71H16.4197V12.015H16.2297V11.71ZM17.7447 11.72H18.0097V12.02H17.7447V11.72ZM19.2947 11.745H19.5247V12.03H19.2997L19.2947 11.745Z" fill="black"/>
<path d="M16.3293 10.35C16.5293 10.58 16.5443 10.58 16.5443 10.58M17.8543 10.35C17.8943 10.425 17.9543 10.59 18.0343 10.605M19.4993 10.385C19.4993 10.385 19.5643 10.565 19.6493 10.59" stroke="#A8A8A8" stroke-width="0.055"/>
<path fill-rule="evenodd" clip-rule="evenodd" d="M16.1094 9.69996C16.7094 9.50496 15.9694 9.11996 15.8444 9.69996C15.6544 9.73496 15.6294 9.87496 15.2094 9.81496C14.1894 11.465 14.9444 14.14 17.9144 16.905C12.5944 12.375 14.7544 9.02496 16.2294 9.15496C17.0294 9.20496 16.6294 10.205 16.1094 9.70496V9.69996Z" fill="#B97700"/>
<path d="M16.2793 8.84994C16.2793 8.84994 16.7643 8.98494 16.7643 9.18994M16.7643 8.81494C16.7643 8.81494 17.1043 8.96494 17.1793 9.09494M19.4343 8.86994C19.4343 8.86994 19.0043 8.92994 18.9093 9.05994M18.7793 8.90994C18.7793 8.90994 18.5293 9.11494 18.5543 9.17494M18.7243 9.80994C18.6843 9.79494 18.5143 9.56494 18.5543 9.28494M17.0643 9.65994C17.0643 9.65994 17.1793 9.52994 17.1793 9.28494M17.8543 9.18994L17.8743 9.73994M18.3443 9.65994C18.3443 9.62494 18.4943 9.26494 18.3243 9.09494M17.3093 9.01994C17.3093 9.01994 17.1793 9.37994 17.2743 9.67994M18.2743 9.33994C18.2743 9.33994 18.0643 9.39994 17.9743 9.48994M17.3843 9.39494C17.3843 9.37994 17.6143 9.34494 17.6843 9.47494" stroke="#7D6C00" stroke-width="0.12"/>
<path fill-rule="evenodd" clip-rule="evenodd" d="M17.0294 15.095C17.0394 15.095 17.2194 15.06 17.2194 14.975C17.3094 14.915 17.2444 14.75 17.2444 14.75L17.0744 14.72L16.8444 14.46C16.8344 14.38 16.8594 14.305 16.8094 14.22C16.6494 14.26 16.5594 14.395 16.5094 14.545C16.5444 14.595 16.5494 14.645 16.6244 14.69C16.6994 14.7 16.7494 14.655 16.8194 14.67C16.8544 14.735 16.8444 14.79 16.8594 14.85C16.9544 14.915 16.9744 15.01 17.0294 15.095ZM16.8244 13.985V13.675L16.6044 13.665C16.5744 13.715 16.5244 13.735 16.4944 13.775L16.3394 13.855C16.4044 13.93 16.4844 13.975 16.5294 14.015C16.6444 14.045 16.7344 14.045 16.8244 13.985ZM16.1344 14.44L16.0144 14.24C16.0922 14.2185 16.175 14.2238 16.2494 14.255C16.2494 14.255 16.2994 14.38 16.2644 14.425C16.2444 14.47 16.1294 14.45 16.1344 14.44ZM17.9594 14.645C17.9936 14.6304 18.0237 14.6078 18.0472 14.5791C18.0707 14.5503 18.0869 14.5163 18.0944 14.48L17.8694 14.225L17.6694 14.22C17.6194 14.17 17.5494 14.16 17.4894 14.16C17.4894 14.16 17.5494 14.26 17.6294 14.275C17.6894 14.405 17.9394 14.645 17.9594 14.645ZM18.1744 14.675C18.1744 14.67 18.3744 14.605 18.4744 14.61C18.4694 14.53 18.6244 14.345 18.6244 14.345L18.9044 14.71C18.8544 14.75 18.7644 14.74 18.6944 14.75C18.6944 14.75 18.5594 14.88 18.5444 14.885C18.5294 14.89 18.2844 14.95 18.1644 14.875C18.1144 14.775 18.1794 14.66 18.1744 14.675ZM18.3344 14.035C18.3694 13.9107 18.3694 13.7792 18.3344 13.655H18.0144L17.8044 13.755C17.8044 13.755 17.8694 13.965 17.9544 13.945C17.9894 14.05 18.0994 14.025 18.1544 14.065L18.3344 14.035ZM19.5794 13.715C19.5294 13.85 19.5094 13.99 19.5694 14.115C19.6294 14.13 19.6994 14.165 19.7494 14.155L20.0044 13.695C19.8294 13.64 19.6844 13.645 19.5744 13.715H19.5794Z" fill="#C76E2E"/>
<path fill-rule="evenodd" clip-rule="evenodd" d="M19.6546 9.65995C19.0546 9.46495 19.7946 9.07495 19.9196 9.65995C20.1146 9.68995 20.1396 9.83495 20.5596 9.77495C21.5746 11.425 20.8196 14.1 17.8496 16.865C23.1746 12.335 21.0096 8.98495 19.5346 9.10995C18.7346 9.15995 19.1346 10.16 19.6546 9.65995Z" fill="#B97700"/>
<path fill-rule="evenodd" clip-rule="evenodd" d="M19.7146 14.235C19.7046 14.235 19.5646 14.335 19.5646 14.335L19.3546 14.42L19.1346 14.425L19.0846 14.275L19.2546 14.125C19.1146 14.1 18.9696 14.16 18.8546 14.265C18.8546 14.265 18.8546 14.43 18.9546 14.515C19.0096 14.585 19.1796 14.715 19.1796 14.715C19.2257 14.7253 19.2733 14.7261 19.3197 14.7176C19.3661 14.709 19.4103 14.6911 19.4496 14.665L19.7146 14.235ZM18.5546 15.74C18.6246 15.76 19.1196 15.105 19.1196 15.105C19.0749 14.9873 18.9874 14.8909 18.8746 14.835C18.8746 14.835 18.6346 15.12 18.6296 15.215C18.5896 15.3 18.4796 15.63 18.5296 15.675C18.5246 15.685 18.5046 15.82 18.5546 15.74Z" fill="#C76E2E"/>
<path fill-rule="evenodd" clip-rule="evenodd" d="M15.3198 15.8699C14.5798 15.2249 13.5798 14.8699 12.1848 15.3549C12.5598 15.5149 12.9648 15.5699 13.3098 15.7499L15.3198 15.8699Z" fill="#006800" stroke="#004100" stroke-width="0.12" stroke-linejoin="round"/>
<path d="M13.1699 15.415C14.6349 15.445 15.0599 15.81 14.9849 15.75" stroke="#00A400" stroke-width="0.11" stroke-linecap="round"/>
<path fill-rule="evenodd" clip-rule="evenodd" d="M15.3491 15.9501C14.9091 16.0301 14.3091 16.4501 14.1291 16.4351C13.6541 16.3801 13.2041 16.1851 12.7441 16.0351C12.5541 15.9751 12.3591 16.0351 12.1641 16.0351C13.8041 15.2601 14.3641 15.3651 15.3491 15.9451V15.9501Z" fill="#006800" stroke="#004100" stroke-width="0.11" stroke-linejoin="round"/>
<path fill-rule="evenodd" clip-rule="evenodd" d="M14.2698 14.8C14.2698 14.8 13.7198 14.88 13.4748 14.895C13.2348 14.88 12.8748 14.655 12.4848 14.245C12.2848 14.015 11.8148 14.045 11.8148 14.045C12.8448 13.825 13.6498 14.035 14.2648 14.805L14.2698 14.8ZM13.5198 13.74C12.7748 13.69 11.8448 13.025 11.6348 12.23C11.6348 12.24 11.9098 12.405 11.8648 12.445C13.0848 12.755 13.1648 13.005 13.5198 13.74ZM14.7698 15.015C14.8748 14.34 14.9048 13.895 14.5898 13.495C14.3248 13.195 14.2598 13.01 14.0698 12.58C14.0148 13.47 13.8198 14.205 14.7698 15.015ZM13.5998 13.15C14.1498 12.345 14.2498 11.735 14.1598 10.775C14.1448 10.85 13.9598 11.325 13.9498 11.325C13.1248 11.84 13.4898 12.65 13.5998 13.15Z" fill="#006800" stroke="#004100" stroke-width="0.12" stroke-linejoin="round"/>
<path fill-rule="evenodd" clip-rule="evenodd" d="M13.11 9.24994C13.66 10.0549 13.58 10.8149 13.49 11.7749C13.475 11.6999 13.29 11.2249 13.28 11.2249C12.455 10.7099 13.005 9.74994 13.11 9.24994Z" fill="#006800" stroke="#004100" stroke-width="0.12" stroke-linejoin="round"/>
<path fill-rule="evenodd" clip-rule="evenodd" d="M13.5645 10.4999C14.9045 9.81993 14.3895 8.96493 14.6345 8.29993C13.7045 8.99493 13.5845 9.72993 13.5695 10.4999H13.5645Z" fill="#006800" stroke="#004100" stroke-width="0.12" stroke-linejoin="round"/>
<path d="M13.7498 10.3299C13.9198 9.85493 14.2498 9.04993 14.2848 9.04993M13.3498 11.3199C13.3198 10.9849 13.1498 10.0849 13.1348 9.99493" stroke="#00A400" stroke-width="0.11" stroke-linecap="round"/>
<path fill-rule="evenodd" clip-rule="evenodd" d="M13.4147 12.825C12.6647 12.775 11.8647 11.76 11.6497 10.97C11.6497 10.98 11.9247 11.14 11.8797 11.18C12.9497 11.66 13.0597 12.09 13.4147 12.825ZM13.1947 12.125C12.6447 11.32 12.5447 10.71 12.6297 9.74996C12.6447 9.82496 12.8297 10.3 12.8447 10.3C13.6647 10.815 13.2997 11.625 13.1947 12.125ZM13.6897 10.71C15.0747 10.095 14.6497 9.44996 15.0597 8.77496C14.1297 9.46496 13.7047 9.94496 13.6897 10.71Z" fill="#006800" stroke="#004100" stroke-width="0.12" stroke-linejoin="round"/>
<path d="M13.75 10.5699C14.0644 10.2742 14.322 9.92342 14.51 9.53491" stroke="#00A400" stroke-width="0.11" stroke-linecap="round"/>
<path fill-rule="evenodd" clip-rule="evenodd" d="M18.6794 18.32L19.3494 18.33C17.1144 16.23 12.8244 15.32 13.4194 11.46C12.8044 15.645 16.9244 16.035 18.6794 18.32Z" fill="#FFE100" stroke="#E9BF00" stroke-width="0.12"/>
<path fill-rule="evenodd" clip-rule="evenodd" d="M13.7694 10.6349C13.7694 10.6919 13.7467 10.7466 13.7064 10.7869C13.6661 10.8273 13.6114 10.8499 13.5544 10.8499C13.4974 10.8499 13.4427 10.8273 13.4023 10.7869C13.362 10.7466 13.3394 10.6919 13.3394 10.6349C13.3394 10.5779 13.362 10.5232 13.4023 10.4829C13.4427 10.4426 13.4974 10.4199 13.5544 10.4199C13.6114 10.4199 13.6661 10.4426 13.7064 10.4829C13.7467 10.5232 13.7694 10.5779 13.7694 10.6349ZM13.6394 11.8149C13.6394 11.8686 13.618 11.9201 13.5801 11.9581C13.5421 11.9961 13.4906 12.0174 13.4369 12.0174C13.3832 12.0174 13.3317 11.9961 13.2937 11.9581C13.2557 11.9201 13.2344 11.8686 13.2344 11.8149C13.2344 11.7619 13.2554 11.711 13.293 11.6735C13.3305 11.636 13.3813 11.6149 13.4344 11.6149C13.4874 11.6149 13.5383 11.636 13.5758 11.6735C13.6133 11.711 13.6344 11.7619 13.6344 11.8149H13.6394ZM13.8294 13.4999C13.8294 13.5236 13.8247 13.547 13.8157 13.5688C13.8066 13.5906 13.7934 13.6105 13.7767 13.6272C13.7599 13.6439 13.7401 13.6572 13.7183 13.6662C13.6964 13.6753 13.673 13.6799 13.6494 13.6799C13.6257 13.6799 13.6023 13.6753 13.5805 13.6662C13.5587 13.6572 13.5388 13.6439 13.5221 13.6272C13.5054 13.6105 13.4921 13.5906 13.4831 13.5688C13.474 13.547 13.4694 13.5236 13.4694 13.4999C13.4694 13.4522 13.4883 13.4064 13.5221 13.3726C13.5559 13.3389 13.6016 13.3199 13.6494 13.3199C13.6971 13.3199 13.7429 13.3389 13.7767 13.3726C13.8104 13.4064 13.8294 13.4522 13.8294 13.4999ZM15.3944 15.3599C15.3944 15.4077 15.3754 15.4534 15.3417 15.4872C15.3079 15.521 15.2621 15.5399 15.2144 15.5399C15.1666 15.5399 15.1209 15.521 15.0871 15.4872C15.0533 15.4534 15.0344 15.4077 15.0344 15.3599C15.0344 15.3122 15.0533 15.2664 15.0871 15.2326C15.1209 15.1989 15.1666 15.1799 15.2144 15.1799C15.2621 15.1799 15.3079 15.1989 15.3417 15.2326C15.3754 15.2664 15.3944 15.3122 15.3944 15.3599ZM15.6194 15.8949C15.6194 15.9427 15.6004 15.9884 15.5667 16.0222C15.5329 16.056 15.4871 16.0749 15.4394 16.0749C15.3916 16.0749 15.3459 16.056 15.3121 16.0222C15.2783 15.9884 15.2594 15.9427 15.2594 15.8949C15.2594 15.8472 15.2783 15.8014 15.3121 15.7676C15.3459 15.7339 15.3916 15.7149 15.4394 15.7149C15.4871 15.7149 15.5329 15.7339 15.5667 15.7676C15.6004 15.8014 15.6194 15.8472 15.6194 15.8949Z" fill="#9D4916" stroke="#68300E" stroke-width="0.055"/>
<path fill-rule="evenodd" clip-rule="evenodd" d="M16.4012 17.45C16.2986 17.3745 16.2161 17.2749 16.1612 17.16L15.4612 17.085L15.4512 17.485L16.4012 17.45Z" fill="white" stroke="black" stroke-width="0.055"/>
<path fill-rule="evenodd" clip-rule="evenodd" d="M11.2562 16.98C11.6662 17.055 12.2812 16.94 12.4812 17.205C12.7212 17.475 11.7262 17.9 11.8662 18.135C12.1762 18.46 12.4912 18.325 12.8362 18.145C12.9212 17.97 12.9862 17.655 13.0262 17.56C12.9012 17.275 12.5612 17.13 12.6512 16.695C13.2162 16.485 14.3112 16.5 14.4312 16.585C14.5212 16.765 14.4362 16.845 14.4562 16.99C14.3612 17.175 14.1212 17.48 14.1212 17.645C14.7212 17.855 14.8712 17.615 15.4112 17.625C16.0412 17.635 16.4212 17.805 16.5612 17.555C16.4612 17.335 15.8862 17.515 15.6712 17.375C15.5612 17.34 15.4912 17.25 15.3962 17.155C15.3012 17.06 15.0362 17.055 14.9962 16.81C15.1062 16.3 15.8462 16.38 15.9612 16.3L17.8812 16.435C18.2312 16.425 18.4312 17.05 17.9562 17.235C17.4862 17.425 16.1012 16.96 15.4962 17.28C15.4662 17.15 15.0312 16.95 15.0012 16.945C14.8162 16.995 14.4562 16.98 14.4562 16.98C14.3712 17.14 14.2662 17.26 14.1812 17.425C13.7812 17.25 13.4062 17.56 12.9712 17.47L12.2912 17.545L11.8612 17.505L11.2012 17.695L11.6712 17.28L11.2562 16.98Z" fill="white" stroke="black" stroke-width="0.055" stroke-linejoin="round"/>
<path fill-rule="evenodd" clip-rule="evenodd" d="M11.2264 16.9C11.2264 16.9477 11.2074 16.9935 11.1737 17.0273C11.1399 17.061 11.0941 17.08 11.0464 17.08C10.9987 17.08 10.9529 17.061 10.9191 17.0273C10.8854 16.9935 10.8664 16.9477 10.8664 16.9C10.8664 16.8522 10.8854 16.8064 10.9191 16.7727C10.9529 16.7389 10.9987 16.72 11.0464 16.72C11.0941 16.72 11.1399 16.7389 11.1737 16.7727C11.2074 16.8064 11.2264 16.8522 11.2264 16.9ZM11.1764 17.8C11.1764 17.8477 11.1574 17.8935 11.1237 17.9273C11.0899 17.961 11.0441 17.98 10.9964 17.98C10.9487 17.98 10.9029 17.961 10.8691 17.9273C10.8354 17.8935 10.8164 17.8477 10.8164 17.8C10.8164 17.7516 10.8356 17.7051 10.8699 17.6709C10.9041 17.6367 10.9505 17.6175 10.9989 17.6175C11.0473 17.6175 11.0937 17.6367 11.128 17.6709C11.1622 17.7051 11.1814 17.7516 11.1814 17.8H11.1764Z" fill="white" stroke="black" stroke-width="0.055"/>
<path fill-rule="evenodd" clip-rule="evenodd" d="M19.3096 17.455C19.4246 17.35 19.4996 17.28 19.5446 17.165L20.2446 17.085L20.2596 17.485L19.3096 17.455Z" fill="white" stroke="black" stroke-width="0.055"/>
<path fill-rule="evenodd" clip-rule="evenodd" d="M24.4488 16.9799C24.0438 17.0549 23.4288 16.9449 23.2288 17.2049C22.9838 17.4799 23.9788 17.9049 23.8388 18.1349C23.5288 18.4649 23.2138 18.3299 22.8688 18.1499C22.7888 17.9749 22.7238 17.6599 22.6788 17.5649C22.8088 17.2749 23.1438 17.1349 23.0588 16.6999C22.4888 16.4849 21.3938 16.4999 21.2788 16.5849C21.1838 16.7699 21.2688 16.8499 21.2488 16.9949C21.3488 17.1749 21.5888 17.4849 21.5888 17.6449C20.9888 17.8599 20.8338 17.6149 20.2988 17.6299C19.6688 17.6399 19.2838 17.8049 19.1488 17.5549C19.2438 17.3399 19.8188 17.5149 20.0388 17.3799C20.1488 17.3399 20.2188 17.2549 20.3138 17.1549C20.4088 17.0549 20.6738 17.0549 20.7138 16.8149C20.6038 16.3049 19.8638 16.3799 19.7438 16.3049L17.8238 16.4349C17.4738 16.4249 17.2788 17.0499 17.7488 17.2399C18.2188 17.4299 19.6088 16.9599 20.2088 17.2799C20.2438 17.1499 20.6738 16.9549 20.7088 16.9449C20.8888 16.9999 21.2488 16.9799 21.2488 16.9799C21.3388 17.1449 21.4388 17.2649 21.5288 17.4299C21.9288 17.2499 22.3038 17.5649 22.7388 17.4699L23.4138 17.5449L23.8488 17.5099L24.5088 17.6949L24.0388 17.2849L24.4488 16.9849V16.9799Z" fill="white" stroke="black" stroke-width="0.055" stroke-linejoin="round"/>
<path fill-rule="evenodd" clip-rule="evenodd" d="M24.4785 16.9C24.4785 16.9484 24.4977 16.9949 24.532 17.0291C24.5662 17.0633 24.6126 17.0825 24.661 17.0825C24.7094 17.0825 24.7558 17.0633 24.7901 17.0291C24.8243 16.9949 24.8435 16.9484 24.8435 16.9C24.8435 16.8516 24.8243 16.8052 24.7901 16.771C24.7558 16.7368 24.7094 16.7175 24.661 16.7175C24.6126 16.7175 24.5662 16.7368 24.532 16.771C24.4977 16.8052 24.4785 16.8516 24.4785 16.9ZM24.5285 17.8C24.5285 17.8478 24.5475 17.8936 24.5812 17.9273C24.615 17.9611 24.6608 17.98 24.7085 17.98C24.7563 17.98 24.802 17.9611 24.8358 17.9273C24.8696 17.8936 24.8885 17.8478 24.8885 17.8C24.8885 17.7523 24.8696 17.7065 24.8358 17.6727C24.802 17.639 24.7563 17.62 24.7085 17.62C24.6608 17.62 24.615 17.639 24.5812 17.6727C24.5475 17.7065 24.5285 17.7523 24.5285 17.8Z" fill="white" stroke="black" stroke-width="0.055"/>
<path fill-rule="evenodd" clip-rule="evenodd" d="M17.8448 16.4651C17.6848 16.4351 17.6248 16.4451 17.5148 16.4351L17.2598 17.2251C17.6598 17.2601 18.0248 17.2601 18.0248 17.2601C17.7848 17.2101 17.8398 16.4701 17.8448 16.4651Z" fill="white"/>
<path d="M16.168 17.0101V16.4751H16.258V16.9251H16.508V17.0101H16.168Z" fill="black"/>
<path d="M16.583 17.035V16.5H16.678V17.035H16.583Z" fill="black"/>
<path d="M16.998 17.075H16.833V16.55L16.993 16.54C17.0497 16.54 17.0913 16.5517 17.118 16.575C17.1513 16.6017 17.168 16.6367 17.168 16.68C17.168 16.72 17.1463 16.7534 17.103 16.78C17.1697 16.8034 17.203 16.8517 17.203 16.925C17.203 16.975 17.183 17.0134 17.143 17.04C17.1097 17.0667 17.063 17.08 17.003 17.08L16.998 17.075ZM16.933 16.62V16.745H16.983C17.0397 16.745 17.068 16.7217 17.068 16.675C17.068 16.6384 17.0397 16.62 16.983 16.62H16.933ZM16.933 16.82V16.995H16.983C17.023 16.995 17.0513 16.9884 17.068 16.975C17.0913 16.965 17.103 16.9434 17.103 16.91C17.103 16.8767 17.0947 16.855 17.078 16.845C17.0613 16.8284 17.0297 16.82 16.983 16.82H16.933Z" fill="black"/>
<path d="M17.428 16.65V16.785H17.598V16.87H17.428V17.025H17.678V17.11H17.333V16.575H17.668V16.66L17.428 16.65Z" fill="black"/>
<path d="M18.1076 17.12L17.9676 16.895H17.8976V17.12H17.8076V16.585H17.8676L17.9476 16.575C18.0876 16.575 18.1576 16.6283 18.1576 16.735C18.1576 16.7683 18.1493 16.7966 18.1326 16.82C18.1093 16.8466 18.0843 16.865 18.0576 16.875L18.2226 17.12H18.1076ZM17.8976 16.67V16.81H17.9426L18.0226 16.8C18.0459 16.79 18.0576 16.7683 18.0576 16.735C18.0576 16.7083 18.0493 16.6883 18.0326 16.675C18.0093 16.665 17.976 16.66 17.9326 16.66H17.8976V16.67Z" fill="black"/>
<path d="M18.4927 16.6501V17.1001H18.3927V16.6501H18.2227V16.5701H18.6677V16.6501H18.4927Z" fill="black"/>
<path d="M19.033 17.0249L18.993 16.9199H18.808L18.773 17.0249H18.668L18.883 16.4849H18.923L19.143 17.0249H19.033ZM18.898 16.6499L18.843 16.8499H18.968L18.898 16.6499Z" fill="black"/>
<path d="M19.2178 16.985L19.2478 16.9C19.2878 16.9233 19.3244 16.935 19.3578 16.935C19.4144 16.935 19.4428 16.915 19.4428 16.875L19.4228 16.825L19.3428 16.77L19.2578 16.72L19.2228 16.67L19.2178 16.61C19.2178 16.5666 19.2311 16.53 19.2578 16.5C19.2911 16.48 19.3294 16.47 19.3728 16.47C19.4361 16.47 19.4844 16.48 19.5178 16.5L19.4828 16.585C19.4494 16.5583 19.4128 16.545 19.3728 16.545C19.3528 16.545 19.3361 16.55 19.3228 16.56C19.3128 16.57 19.3078 16.5866 19.3078 16.61C19.3078 16.6366 19.3411 16.6666 19.4078 16.7C19.4478 16.7166 19.4761 16.7333 19.4928 16.75L19.5228 16.8L19.5328 16.87C19.5328 16.9133 19.5161 16.9483 19.4828 16.975C19.4494 17.0016 19.4044 17.0166 19.3478 17.02C19.2944 17.02 19.2511 17.005 19.2178 16.975V16.985Z" fill="black"/>
<path d="M13.5647 15.9299C14.0697 15.9899 14.7697 15.9449 15.0747 15.9299M12.7997 14.2099C13.2297 14.5449 14.1547 14.7449 14.1397 14.7449M14.6747 14.8349C14.5347 14.1349 14.3847 13.9649 14.2597 13.5249M12.0847 12.7349C12.7997 13.0549 12.9097 13.2649 13.3647 13.5849M13.6247 12.8849C13.6847 12.0199 13.8047 11.7899 14.0197 11.5899M12.0847 11.4899C12.3447 11.7749 13.1947 12.6749 13.1947 12.6749M12.8447 10.6949C13.1647 10.9199 13.1647 11.7449 13.1647 11.7449" stroke="#00A400" stroke-width="0.11" stroke-linecap="round"/>
</g>
<defs>
<clipPath id="clip0_11930_68362">
<rect width="36" height="24" rx="2" fill="white"/>
</clipPath>
</defs>
</svg>
