<svg width="36" height="24" viewBox="0 0 36 24" fill="none" xmlns="http://www.w3.org/2000/svg">
<g clip-path="url(#clip0_11930_68371)">
<path d="M0 0H36V24H0V0Z" fill="#12AD2B"/>
<path d="M0 7H36V17H0V7Z" fill="#FFCE00"/>
<path d="M0 0V24L12 12" fill="#D21034"/>
<path d="M17.5791 8.57135L16.5196 11.8321L18.15 12.3619" fill="#000001"/>
<path d="M17.5791 8.57135L18.6386 11.8321L17.0082 12.3619" fill="#000001"/>
<path d="M20.8447 10.9405H17.4161V12.6548" fill="#000001"/>
<path d="M20.8447 10.9405L18.0709 12.9558L17.0633 11.5689" fill="#000001"/>
<path d="M19.5962 14.7734L18.5367 11.5126L16.9063 12.0424" fill="#000001"/>
<path d="M19.5962 14.7734L16.8224 12.7582L17.83 11.3713" fill="#000001"/>
<path d="M15.5649 14.774L18.3387 12.7588L17.3311 11.3719" fill="#000001"/>
<path d="M15.5649 14.774L16.6244 11.5133L18.2548 12.043" fill="#000001"/>
<path d="M14.3252 10.9405L17.099 12.9558L18.1066 11.5689" fill="#000001"/>
<path d="M14.3252 10.9405H17.7538V12.6548" fill="#000001"/>
<path d="M26.4189 8.57135L25.3594 11.8321L26.9898 12.3619" fill="#000001"/>
<path d="M26.4189 8.57135L27.4784 11.8321L25.848 12.3619" fill="#000001"/>
<path d="M29.6768 10.9405H26.2482V12.6548" fill="#000001"/>
<path d="M29.6768 10.9405L26.903 12.9558L25.8953 11.5689" fill="#000001"/>
<path d="M28.4373 14.7737L27.3778 11.513L25.7474 12.0427" fill="#000001"/>
<path d="M28.4373 14.7737L25.6635 12.7585L26.6711 11.3716" fill="#000001"/>
<path d="M24.406 14.7737L27.1798 12.7585L26.1722 11.3716" fill="#000001"/>
<path d="M24.406 14.7737L25.4655 11.513L27.0959 12.0427" fill="#000001"/>
<path d="M23.1572 10.9405L25.931 12.9558L26.9387 11.5689" fill="#000001"/>
<path d="M23.1572 10.9405H26.5858V12.6548" fill="#000001"/>
</g>
<defs>
<clipPath id="clip0_11930_68371">
<rect width="36" height="24" rx="2" fill="white"/>
</clipPath>
</defs>
</svg>
