<svg width="36" height="24" viewBox="0 0 36 24" fill="none" xmlns="http://www.w3.org/2000/svg">
<g clip-path="url(#clip0_11930_68377)">
<path fill-rule="evenodd" clip-rule="evenodd" d="M0 0H36V12H15.9984L0 0Z" fill="#ED2939"/>
<path fill-rule="evenodd" clip-rule="evenodd" d="M0 24H36V12H15.9984L0 24Z" fill="#002395"/>
<path fill-rule="evenodd" clip-rule="evenodd" d="M0 0L15.9984 12L0 24V0Z" fill="white"/>
<path d="M8.07695 9.05615L8.08164 8.86865C8.08164 8.86865 7.9832 8.70928 8.10039 8.54053C8.10039 8.54053 7.85195 8.40928 7.91289 8.20303C7.91289 8.20303 7.68789 8.14678 7.70195 7.90303C7.70195 7.90303 7.46758 7.88896 7.43945 7.68271C7.43945 7.68271 7.20039 7.72021 7.09258 7.52334C7.09258 7.52334 6.8582 7.57021 6.79258 7.40615C6.79258 7.40615 6.56289 7.48115 6.43164 7.28896C6.43164 7.28896 6.18789 7.3874 6.08945 7.20459C5.99102 7.3874 5.74727 7.28896 5.74727 7.28896C5.61602 7.48115 5.38633 7.40146 5.38633 7.40146C5.3207 7.56553 5.09102 7.51865 5.09102 7.51865C4.9832 7.72021 4.74414 7.67803 4.74414 7.67803C4.7207 7.88428 4.48164 7.90303 4.48164 7.90303C4.48841 7.96937 4.47138 8.03595 4.4336 8.0909C4.39583 8.14585 4.33975 8.18559 4.27539 8.20303C4.33633 8.40459 4.08789 8.53584 4.08789 8.53584C4.20977 8.70928 4.11133 8.86397 4.11133 8.86397L4.10664 9.0374L8.07695 9.05615Z" fill="#FFFF00"/>
<path d="M8.08303 9.05512V8.86708C8.08303 8.86708 7.9863 8.70591 8.10452 8.54474C8.10452 8.54474 7.85733 8.41043 7.91644 8.20629C7.91644 8.20629 7.69074 8.15256 7.70686 7.90544C7.70686 7.90544 7.46504 7.88932 7.43818 7.68517C7.43818 7.68517 7.20173 7.72277 7.09963 7.524C7.09963 7.524 6.86318 7.56698 6.7987 7.40581C6.7987 7.40581 6.56763 7.48639 6.43328 7.29299C6.43328 7.29299 6.19147 7.38969 6.09474 7.20703C5.99264 7.38969 5.75082 7.29299 5.75082 7.29299C5.62185 7.48102 5.39078 7.40043 5.39078 7.40043C5.32629 7.56698 5.09522 7.524 5.09522 7.524C4.98775 7.72277 4.74593 7.68517 4.74593 7.68517C4.72443 7.88394 4.48261 7.90006 4.48261 7.90006C4.4915 7.96577 4.47624 8.03247 4.43968 8.0878C4.40312 8.14312 4.34773 8.18331 4.28378 8.20091C4.33752 8.40506 4.0957 8.534 4.0957 8.534C4.21393 8.70592 4.11182 8.86708 4.11182 8.86708V9.039L8.08303 9.05512Z" stroke="black" stroke-width="0.0161191"/>
<path d="M7.9832 8.82197C7.35977 8.76103 6.64258 8.61103 6.08945 8.9251C5.71445 8.70478 5.19883 8.71885 4.7582 8.76103C4.51914 8.80791 4.23789 8.80791 3.98477 8.84541L3.94727 8.8501C3.49258 8.88291 3.08008 8.74697 2.68164 8.56885C2.81289 9.28135 2.94883 10.0079 3.01914 10.7532C3.16914 11.8595 2.49883 12.7829 2.76602 13.8751C2.93008 14.4001 3.50664 14.7048 4.03164 14.7657C4.53937 14.7978 5.04395 14.8683 5.54102 14.9767C5.62948 14.9985 5.71577 15.0283 5.79883 15.0657C5.9161 15.1169 6.02146 15.192 6.1082 15.286C6.38945 14.9907 6.81133 14.9063 7.21914 14.8642C7.95977 14.7751 8.87383 14.822 9.32852 14.1517V14.1142C9.57695 13.7392 9.54414 13.1767 9.43633 12.7548C9.42695 12.6095 9.38945 12.4782 9.36602 12.3376C8.91602 11.1423 9.30508 9.79697 9.49727 8.5876C9.25456 8.70962 8.99571 8.79643 8.72852 8.84541C8.51758 8.87353 8.2832 8.86416 8.07227 8.8501L7.9832 8.82197Z" fill="#FF0000"/>
<path d="M8.91543 12.2578C8.91543 12.3328 8.95762 12.3984 8.97168 12.4687C9.06074 12.9937 9.14043 13.6875 8.60606 14.0109C8.00606 14.3859 7.22793 14.2265 6.53887 14.4281C6.39824 14.4656 6.21074 14.5921 6.11699 14.6812C6.05137 14.639 5.99043 14.5781 5.91074 14.5406C5.34355 14.2406 4.60293 14.339 3.96543 14.175C3.64199 14.0765 3.30918 13.8234 3.2248 13.4953C3.01855 12.6328 3.51543 11.8968 3.45918 11.039C3.42168 10.3828 3.30918 9.75933 3.15918 9.14526C3.66074 9.37964 4.2373 9.41714 4.7998 9.30464C5.23367 9.225 5.68106 9.26552 6.09355 9.42183C6.30918 9.32808 6.5623 9.28589 6.79668 9.26245C7.23262 9.30933 7.70606 9.38433 8.16074 9.38433C8.46543 9.36558 8.74199 9.2812 9.00449 9.16401C8.84981 10.1765 8.54512 11.2359 8.91543 12.2578Z" fill="#80CFE1"/>
<path d="M8.01543 12.4594V11.5032H8.12793L6.6748 10.5657L6.67012 10.0735H6.81074L6.07949 9.55786L5.35762 10.0735H5.49824V10.5657L4.0498 11.5032H4.16699V12.4547H8.01543" fill="white"/>
<path d="M8.01856 12.4611V11.5048H8.13141L6.6805 10.5647L6.67512 10.0812H6.81484L6.08401 9.55469L5.35855 10.0758H5.49827L5.50365 10.5647L4.05273 11.5048H4.17096V12.4558L8.01856 12.4611Z" stroke="black" stroke-width="0.0644766"/>
<path d="M8.46563 13.7109V14.0062H3.77344V13.7062L8.46563 13.7109Z" fill="white"/>
<path d="M8.46912 13.7129V14.0084H3.77246V13.7075H8.46912V13.7129Z" stroke="black" stroke-width="0.0644766"/>
<path d="M4.08242 13.6922V12.6844H4.26992L4.26055 13.7016L4.26992 12.6891L3.99805 12.6844V12.4641L8.18867 12.4735V12.6844H7.93555V13.7063L7.93086 12.6844H8.11836L8.12773 13.6969" fill="white"/>
<path d="M4.08451 13.6915V12.6815H4.27259L4.26185 13.7023L4.27259 12.6923L4.00391 12.6815V12.4666L8.19543 12.472V12.6869H7.93749L7.94287 13.7076L7.93212 12.6869H8.12557L8.13095 13.6969" stroke="black" stroke-width="0.0644766"/>
<path d="M4.98661 13.4443V12.7405H4.41699V13.4389L4.98124 13.4443" stroke="black" stroke-width="0.0644766"/>
<path d="M4.57862 12.8855V13.2938H4.83656V12.8855H4.57324M7.74375 13.4443L7.73838 12.7458H7.17951V13.4443H7.74375Z" stroke="black" stroke-width="0.0644766"/>
<path d="M7.32967 12.8909V13.2992H7.58761V12.8909H7.32967ZM7.73807 12.3V11.6016H7.17383V12.3H7.73807Z" stroke="black" stroke-width="0.0644766"/>
<path d="M7.32419 11.7466V12.1549H7.58213V11.7466H7.32419ZM4.98124 12.3V11.5962H4.41699V12.2946H4.98124V12.3Z" stroke="black" stroke-width="0.0644766"/>
<path d="M6.00266 12.3V11.5962H5.43842V12.2946H6.00266M4.57324 11.7412V12.1495H4.83118V11.7412H4.57324Z" stroke="black" stroke-width="0.0644766"/>
<path d="M5.58887 11.7412V12.1495H5.84681V11.7412H5.58887ZM6.78721 12.3V11.6016L6.22297 11.5962V12.2946L6.78721 12.3Z" stroke="black" stroke-width="0.0644766"/>
<path d="M6.37305 11.7412V12.1495H6.63636V11.7412H6.37305Z" stroke="black" stroke-width="0.0644766"/>
<path d="M6.92324 12.0845L6.93262 13.7063H5.29668L5.29199 12.0845H6.92324Z" fill="white"/>
<path d="M5.28791 12.5472H6.93228M5.49211 13.7076V12.5579M6.73345 13.7076V12.5633M6.9269 12.0852L6.93228 13.7076H5.30403L5.29866 12.0852H6.9269ZM7.52339 11.3921L6.60985 10.726H5.57272L4.65918 11.3921H7.52339ZM5.65332 10.1672V10.5755H6.52387V10.1672H5.65332Z" stroke="black" stroke-width="0.0644766"/>
<path d="M6.08276 9.69458L6.56639 10.0384H5.60449L6.08813 9.69458M5.8893 10.2694V10.4736H6.28696V10.2694H5.8893Z" stroke="black" stroke-width="0.0644766"/>
<path d="M8.03418 9.46875C8.17012 9.46875 8.20293 10.0312 8.20293 10.3125C8.3248 10.35 8.58262 10.5141 8.69981 10.6594H7.37793C7.49043 10.5141 7.74824 10.35 7.86543 10.3172C7.86543 10.0359 7.89355 9.46406 8.03418 9.47344" fill="white"/>
<path d="M6.4434 12.1281H6.56162L6.52401 12.1979C6.52401 12.1979 6.58312 12.2677 6.52401 12.3537L6.55625 12.4074H6.44877L6.47564 12.3537C6.47564 12.3537 6.4219 12.257 6.47564 12.1925L6.4434 12.1334M8.03403 9.46875C8.17375 9.46875 8.20599 10.0328 8.20599 10.3176C8.32421 10.3498 8.58753 10.5164 8.70038 10.6614H7.37843C7.49128 10.5164 7.7546 10.3498 7.86744 10.3176C7.86744 10.0328 7.89969 9.46875 8.03403 9.46875ZM5.37402 12.1281H5.49225L5.46 12.1925C5.46 12.1925 5.51374 12.2677 5.46 12.3537L5.49225 12.4074H5.37402L5.40627 12.3537C5.40627 12.3537 5.35253 12.257 5.40627 12.1925L5.37402 12.1281ZM5.61584 12.1281H5.73407L5.70182 12.1925C5.70182 12.1925 5.75556 12.2677 5.70182 12.3537L5.73407 12.4074H5.61584L5.64809 12.3537C5.64809 12.3537 5.59435 12.257 5.64809 12.1925L5.61584 12.1281ZM5.88453 12.1281H5.99738L5.96514 12.1925C5.96514 12.1925 6.01887 12.2677 5.96514 12.3537L5.99738 12.4074H5.88453L5.9114 12.3537C5.9114 12.3537 5.85766 12.257 5.9114 12.1925L5.87916 12.1281H5.88453ZM6.18009 12.1281H6.29831L6.26069 12.1979C6.26069 12.1979 6.3198 12.2677 6.26069 12.3537L6.29293 12.4074H6.18009L6.21233 12.3537C6.21233 12.3537 6.15859 12.257 6.21233 12.1925L6.18009 12.1281ZM6.70671 12.1334H6.82494L6.78732 12.1979C6.78732 12.1979 6.84643 12.2677 6.78732 12.3537L6.81956 12.4074H6.71209L6.73896 12.3537C6.73896 12.3537 6.68522 12.257 6.73896 12.1925L6.70671 12.1334Z" stroke="black" stroke-width="0.0644766"/>
<path d="M6.1168 15.7874C6.72617 15.7874 7.47617 15.6608 7.82773 15.4827L8.60117 15.4124L8.61992 16.3546C7.96367 16.7155 6.4543 16.7952 6.12148 16.7905C5.78867 16.7905 4.26055 16.7155 3.59961 16.3546L3.60898 15.4077L4.38242 15.478C4.93517 15.6921 5.52413 15.7971 6.1168 15.7874Z" fill="#FFFF00"/>
<path d="M6.12088 15.7867C6.73348 15.7867 7.48043 15.6631 7.8351 15.4805L8.60355 15.416L8.61967 16.3562C7.96945 16.7161 6.45405 16.7967 6.12625 16.7913C5.79308 16.7913 4.26156 16.7161 3.60059 16.3508L3.61133 15.4106L4.38515 15.4805C4.73982 15.6631 5.51364 15.7867 6.12088 15.7867Z" stroke="black" stroke-width="0.0161191"/>
<path d="M1.61327 11.7656L2.29296 11.9813L2.08671 13.0828L1.44452 13.1859C1.44452 13.1859 1.33671 12.6047 1.61327 11.7656Z" fill="#FFFF00"/>
<path d="M1.61708 11.7683L2.29417 11.9832L2.08997 13.0845L1.44512 13.1866C1.44512 13.1866 1.33765 12.6064 1.61708 11.7683Z" stroke="black" stroke-width="0.0161191"/>
<path d="M2.08555 13.0735L1.44336 13.186L1.85117 12.6047L2.08555 13.0735Z" fill="#7E7E7E"/>
<path d="M2.09114 13.0737L1.44629 13.1811L1.85469 12.6063L2.09114 13.0737Z" stroke="black" stroke-width="0.0161191"/>
<path d="M1.2046 12.5625L1.86085 12.6094C1.87492 13.1625 1.94523 15.2812 4.47648 15.3984L4.39679 16.1719C1.3171 16.2 1.08273 13.5703 1.20929 12.5625" fill="#FFFF00"/>
<path d="M3.61687 16.3293L4.39069 16.1628M1.20943 12.5633L1.86503 12.6063C1.88115 13.165 1.94564 15.2817 4.48205 15.3999L4.40144 16.1735C1.31691 16.2057 1.08584 13.5733 1.20943 12.5633Z" stroke="black" stroke-width="0.0161191"/>
<path d="M10.5656 11.775L9.89062 11.9906L10.1063 13.0875L10.7531 13.1906C10.7531 13.1906 10.8562 12.6141 10.5656 11.775Z" fill="#FFFF00"/>
<path d="M10.5697 11.7737L9.89258 11.9886L10.1075 13.0899L10.7524 13.1974C10.7524 13.1974 10.8599 12.6171 10.5697 11.7737Z" stroke="black" stroke-width="0.0161191"/>
<path d="M10.1063 13.0781L10.7484 13.1953L10.3359 12.6141L10.1016 13.0781" fill="#7E7E7E"/>
<path d="M10.1074 13.079L10.7523 13.1918L10.3385 12.6169L10.1074 13.079Z" stroke="black" stroke-width="0.0161191"/>
<path d="M10.9828 12.5672L10.3266 12.6141C10.3172 13.1672 10.2656 15.2859 7.73438 15.4031L7.82812 16.1719C10.9078 16.2094 11.1187 13.575 10.9875 12.5672" fill="#FFFF00"/>
<path d="M8.60883 16.3293L7.83501 16.1681M10.984 12.5687L10.3284 12.6116C10.3177 13.1704 10.2747 15.2924 7.73828 15.4053L7.82426 16.1735C10.9088 16.2111 11.1184 13.5787 10.984 12.574V12.5687Z" stroke="black" stroke-width="0.0161191"/>
<path d="M5.70964 16.2515C5.69089 16.2608 5.66277 16.2655 5.63933 16.2608L5.51745 16.2561L5.52683 16.1015L5.64871 16.1108C5.67214 16.1108 5.69558 16.1155 5.70495 16.1249C5.72839 16.1343 5.73777 16.1577 5.73777 16.1905C5.73777 16.2186 5.7237 16.2374 5.70495 16.2515M5.50339 16.4858L5.51277 16.303L5.65339 16.3124C5.70027 16.3171 5.73777 16.303 5.7612 16.2796C5.78464 16.2608 5.7987 16.2327 5.7987 16.1952C5.80105 16.1785 5.79975 16.1614 5.7949 16.1453C5.79004 16.1291 5.78175 16.1141 5.77058 16.1015C5.74528 16.0768 5.71207 16.0619 5.67683 16.0593L5.47058 16.0452L5.44245 16.4858H5.50339ZM5.94402 16.1249H6.09402L6.14558 16.1343C6.16902 16.1483 6.17839 16.1671 6.17839 16.1999C6.17839 16.228 6.17371 16.2468 6.15495 16.2608C6.13483 16.2716 6.11209 16.2764 6.08933 16.2749H5.94402V16.1249ZM5.94402 16.5093V16.3218L6.08464 16.3265C6.10808 16.3265 6.13152 16.3265 6.14089 16.3358C6.15964 16.3452 6.1737 16.364 6.1737 16.3921V16.4999L6.18308 16.514H6.25808V16.5046C6.25351 16.5022 6.24948 16.4989 6.24626 16.4948C6.24303 16.4908 6.24067 16.4861 6.23933 16.4811C6.23629 16.4689 6.23471 16.4563 6.23464 16.4436V16.3827C6.23464 16.3546 6.22527 16.3358 6.21589 16.3265C6.2065 16.3135 6.19343 16.3037 6.17839 16.2983C6.19714 16.289 6.21589 16.2749 6.22527 16.2608C6.23464 16.2421 6.24402 16.2233 6.24402 16.1952C6.24402 16.1483 6.22058 16.1108 6.17839 16.0921C6.15178 16.0803 6.1231 16.074 6.09402 16.0733H5.88308V16.514L5.94402 16.5093ZM6.41277 16.4155C6.38464 16.3809 6.36823 16.3382 6.36589 16.2936C6.36589 16.2327 6.37527 16.1858 6.40339 16.153C6.41763 16.1375 6.43507 16.1253 6.45449 16.1172C6.47391 16.1091 6.49486 16.1054 6.51589 16.1061C6.53624 16.1038 6.55686 16.106 6.57629 16.1125C6.59572 16.1189 6.6135 16.1296 6.62839 16.1436C6.6612 16.1718 6.67527 16.214 6.67996 16.2655C6.68358 16.3111 6.6738 16.3567 6.65183 16.3968C6.62839 16.4343 6.59089 16.4577 6.53464 16.4577C6.47839 16.4577 6.44089 16.4483 6.40808 16.4155M6.33777 16.139C6.31063 16.1858 6.29761 16.2396 6.30027 16.2936C6.30495 16.3593 6.32371 16.4155 6.36589 16.453C6.388 16.4747 6.41451 16.4914 6.44363 16.5019C6.47275 16.5124 6.50379 16.5165 6.53464 16.514C6.56666 16.5136 6.59816 16.5058 6.62663 16.4911C6.65511 16.4765 6.67978 16.4554 6.6987 16.4296C6.73189 16.3798 6.74831 16.3206 6.74558 16.2608C6.74395 16.2074 6.7241 16.1561 6.68933 16.1155C6.64714 16.0686 6.58621 16.0452 6.50652 16.0499C6.43152 16.0499 6.37527 16.0827 6.33777 16.139ZM8.40027 15.5061C8.44714 15.5015 8.48464 15.5015 8.51746 15.5108C8.56433 15.5296 8.59714 15.5624 8.62058 15.6186L8.55964 15.628C8.54934 15.6013 8.52922 15.5795 8.50339 15.5671C8.47373 15.5549 8.44114 15.5516 8.40964 15.5577C8.39068 15.5609 8.37258 15.568 8.35645 15.5785C8.34033 15.5889 8.32652 15.6026 8.31589 15.6186C8.29245 15.6515 8.28308 15.6983 8.29245 15.7593C8.29743 15.8049 8.31718 15.8477 8.34871 15.8811C8.37683 15.9093 8.41902 15.9186 8.47058 15.914C8.50711 15.9089 8.54048 15.8905 8.56433 15.8624C8.59245 15.8343 8.59714 15.7968 8.58777 15.7452L8.44714 15.7686L8.44246 15.7218L8.63933 15.689L8.67683 15.9233H8.63464L8.61121 15.8765L8.56433 15.9233C8.54089 15.9468 8.50808 15.9561 8.47058 15.9655C8.41821 15.9748 8.36429 15.963 8.32058 15.9327C8.29583 15.9135 8.27519 15.8894 8.25989 15.8621C8.24459 15.8347 8.23495 15.8045 8.23152 15.7733C8.22386 15.7415 8.22281 15.7084 8.22846 15.6762C8.2341 15.6439 8.24631 15.6132 8.26433 15.5858C8.28058 15.5631 8.30157 15.5443 8.32586 15.5305C8.35014 15.5167 8.37713 15.5084 8.40496 15.5061M8.84558 15.4733L8.98621 15.4218C9.00496 15.4124 9.02371 15.4124 9.03777 15.4124C9.06589 15.4124 9.08464 15.4311 9.09402 15.4593C9.10339 15.4874 9.10339 15.5108 9.09402 15.5296C9.07996 15.5436 9.0612 15.5577 9.03308 15.5671L8.90183 15.614L8.84558 15.4733ZM8.98621 15.8343L8.92058 15.6608L9.05183 15.614C9.06796 15.606 9.08546 15.6012 9.10339 15.5999C9.12683 15.6046 9.14558 15.6186 9.15964 15.6468L9.18777 15.7124L9.20183 15.7452L9.21121 15.7593L9.28152 15.7311V15.7218C9.26746 15.7218 9.25808 15.7171 9.25339 15.703C9.24402 15.6983 9.23933 15.6843 9.23464 15.6702L9.21121 15.614C9.20183 15.5905 9.18777 15.5765 9.17839 15.5671C9.16362 15.5606 9.14763 15.5574 9.13152 15.5577L9.15964 15.5015C9.15964 15.4827 9.15964 15.4593 9.15027 15.4358C9.13152 15.389 9.10339 15.3608 9.05652 15.3608C9.02616 15.3591 8.99578 15.3638 8.96746 15.3749L8.77058 15.4452L8.92996 15.8577L8.98621 15.839M9.50183 15.6186L9.25339 15.253L9.52527 15.0749L9.55808 15.1218L9.33308 15.2624L9.40808 15.3749L9.61902 15.2436L9.64714 15.2858L9.4362 15.4171L9.52058 15.5436L9.75496 15.3936L9.78308 15.4405L9.50183 15.6186ZM9.72214 14.9718L9.79245 14.8921C9.82996 14.8546 9.86277 14.8405 9.90027 14.8452C9.94246 14.8452 9.97996 14.8686 10.0221 14.9061C10.0519 14.9311 10.0745 14.9634 10.0878 14.9999C10.0971 15.028 10.0925 15.0515 10.0878 15.0749C10.0793 15.0921 10.0682 15.1079 10.055 15.1218L9.98464 15.1968L9.72214 14.9718ZM10.1018 15.1405C10.1534 15.0843 10.1628 15.028 10.1346 14.953C10.115 14.9151 10.0879 14.8816 10.055 14.8546C10.0152 14.817 9.96407 14.7939 9.90964 14.789C9.85339 14.7843 9.80652 14.803 9.76433 14.8499L9.64246 14.9811L9.97995 15.2765L10.1018 15.1452M10.3643 14.803L9.97527 14.5686L10.0081 14.5218L10.3971 14.7515L10.3643 14.803ZM10.519 14.5405L10.0971 14.3718L10.219 14.0765L10.2706 14.0952L10.1721 14.339L10.2987 14.3858L10.3925 14.1655L10.4393 14.1843L10.3456 14.4093L10.4862 14.4655L10.594 14.2218L10.6409 14.2405L10.519 14.5405ZM10.7065 14.0249L10.2659 13.9311L10.2846 13.8608L10.6925 13.7202L10.3315 13.6405L10.3456 13.589L10.7862 13.6827L10.7721 13.7483L10.3643 13.889L10.7253 13.9686L10.7065 14.0249ZM10.669 13.4624L10.6737 13.4061C10.7018 13.4061 10.7206 13.4061 10.7393 13.3968C10.7721 13.378 10.7862 13.3452 10.7956 13.2983C10.7982 13.2764 10.7966 13.2541 10.7909 13.2327C10.7815 13.1999 10.7628 13.1765 10.73 13.1765C10.7018 13.1718 10.6831 13.1765 10.6737 13.1905C10.6596 13.2046 10.6503 13.228 10.6409 13.2608L10.6175 13.3171C10.6081 13.3546 10.594 13.3827 10.58 13.3968C10.5612 13.4249 10.5331 13.4343 10.4956 13.4296C10.4776 13.4286 10.46 13.424 10.4438 13.4159C10.4277 13.4078 10.4134 13.3965 10.4018 13.3827C10.3737 13.3546 10.3643 13.3124 10.369 13.2608C10.3737 13.214 10.3878 13.1765 10.4159 13.1483C10.4393 13.1202 10.4768 13.1015 10.5284 13.1108L10.5237 13.1671C10.5003 13.1671 10.4768 13.1671 10.4675 13.1811C10.4393 13.1952 10.4253 13.228 10.4206 13.2702C10.4206 13.303 10.4206 13.3265 10.4393 13.3452C10.4534 13.364 10.4675 13.3733 10.4862 13.3733C10.5096 13.3733 10.5284 13.3733 10.5378 13.3546L10.5706 13.2749L10.5893 13.214C10.5987 13.1858 10.6128 13.1671 10.6268 13.1483C10.6503 13.1249 10.6831 13.1155 10.7206 13.1155C10.7721 13.1202 10.8096 13.1436 10.8237 13.1811C10.8425 13.2186 10.8518 13.2561 10.8471 13.3077C10.8445 13.354 10.8244 13.3976 10.7909 13.4296C10.7581 13.4577 10.7206 13.4671 10.669 13.4624ZM1.50027 13.439L1.51433 13.4952C1.4862 13.4999 1.46745 13.5093 1.45339 13.5233C1.42995 13.5468 1.42058 13.5843 1.42995 13.6358C1.43318 13.6555 1.43951 13.6744 1.4487 13.6921C1.46745 13.7249 1.49558 13.739 1.52839 13.7343C1.55183 13.7296 1.56589 13.7202 1.57527 13.7015L1.58933 13.6265V13.5655C1.58933 13.528 1.5987 13.4952 1.60339 13.4811C1.61745 13.453 1.64558 13.4343 1.68308 13.4249C1.72058 13.4202 1.75808 13.4249 1.7862 13.453C1.81902 13.4718 1.83777 13.5093 1.84714 13.5561C1.85625 13.5972 1.8513 13.6401 1.83308 13.678C1.81433 13.7155 1.7862 13.7343 1.73464 13.7436L1.72527 13.6921C1.74258 13.6859 1.75851 13.6763 1.77214 13.664C1.79558 13.6405 1.80027 13.6077 1.79558 13.5655C1.7862 13.528 1.77683 13.5046 1.75808 13.4952C1.75024 13.489 1.74117 13.4845 1.73147 13.4821C1.72177 13.4797 1.71167 13.4794 1.70183 13.4811C1.69149 13.4807 1.68128 13.4836 1.67281 13.4896C1.66433 13.4955 1.65805 13.5041 1.65495 13.514L1.65027 13.5983L1.64558 13.6593C1.64539 13.6854 1.63897 13.7111 1.62683 13.7343C1.61922 13.7495 1.60796 13.7626 1.59406 13.7724C1.58015 13.7822 1.56404 13.7885 1.54714 13.7905C1.50027 13.7999 1.45339 13.7858 1.42995 13.753C1.4013 13.7213 1.38185 13.6824 1.3737 13.6405C1.36838 13.6174 1.36771 13.5935 1.37173 13.5702C1.37575 13.5469 1.38439 13.5245 1.39714 13.5046C1.40879 13.4875 1.42407 13.4731 1.44189 13.4626C1.45972 13.4521 1.47965 13.4456 1.50027 13.4436M1.47214 14.0202L1.90808 13.889L2.00652 14.1936L1.95495 14.2124L1.87058 13.964L1.73933 14.0015L1.81902 14.2358L1.76746 14.2499L1.69245 14.0155L1.54246 14.0624L1.62683 14.3155L1.57995 14.3296L1.47214 14.0202ZM1.66433 14.5499L2.06277 14.339L2.10964 14.414L1.83308 14.6999L2.23152 14.6343L2.27371 14.7046L1.87527 14.9155L1.84714 14.8686L2.08152 14.7421L2.1237 14.7233L2.18464 14.6905L1.7862 14.7608L1.75808 14.7093L2.02995 14.4186L2.01589 14.428L1.96902 14.4515C1.95555 14.4603 1.94145 14.4681 1.92683 14.4749L1.69245 14.5968L1.66433 14.5499ZM2.40495 15.1358C2.3862 15.1311 2.36745 15.1171 2.3487 15.0983L2.26433 15.014L2.37683 14.9108L2.46121 14.9952C2.47524 15.0084 2.48641 15.0244 2.49402 15.0421C2.50339 15.0655 2.49402 15.089 2.47058 15.1124C2.44714 15.1311 2.4237 15.1405 2.40495 15.1358ZM2.08621 15.1733L2.22683 15.0468L2.32058 15.1452C2.35808 15.178 2.39089 15.1921 2.4237 15.1921C2.45852 15.1916 2.49193 15.1783 2.51745 15.1546C2.54113 15.1291 2.55449 15.0957 2.55496 15.0608C2.55496 15.0327 2.54089 14.9999 2.51277 14.9718L2.37214 14.8311L2.04402 15.1311L2.08621 15.1733ZM2.47996 15.5249L2.71902 15.1499L3.00027 15.3186L2.97214 15.3655L2.73777 15.2249L2.66746 15.3421L2.87839 15.4686L2.85496 15.5155L2.63933 15.3843L2.55964 15.5108L2.79402 15.6515L2.76589 15.6983L2.47996 15.5249ZM3.18308 15.4499L3.32839 15.4968L3.37527 15.5202C3.39402 15.539 3.3987 15.5624 3.38464 15.5905C3.37527 15.6186 3.36589 15.6374 3.34246 15.6421L3.27214 15.6374L3.1362 15.5905L3.18308 15.4499ZM3.06121 15.8202L3.12214 15.6421L3.25339 15.6843C3.27683 15.689 3.30027 15.6983 3.30495 15.7077C3.31902 15.7218 3.32371 15.7452 3.31902 15.7733L3.29558 15.8436L3.29089 15.8765V15.8905L3.3612 15.914V15.9046L3.35183 15.8718L3.3612 15.839L3.37995 15.7827C3.38464 15.7546 3.38933 15.7358 3.37995 15.7265C3.37995 15.7124 3.36589 15.6983 3.35183 15.6843C3.37527 15.6843 3.39871 15.6749 3.41277 15.6608C3.42683 15.6468 3.44089 15.628 3.44558 15.6046C3.46433 15.5577 3.45495 15.5155 3.41745 15.4874C3.39515 15.469 3.36976 15.4547 3.34246 15.4452L3.14089 15.3843L3.00027 15.8015L3.06121 15.8202Z" fill="#009FC5"/>
<path d="M3.67946 8.23118C3.72634 8.10461 4.20915 7.76243 5.77946 7.91243C5.77946 7.91243 6.04665 8.07649 6.20134 8.05305C6.29509 8.04368 6.15446 8.06243 6.03259 7.96399C5.9154 7.87024 5.89196 7.66868 6.15915 7.67805C6.43102 7.68274 7.43884 7.73899 7.45759 7.83274C7.47634 7.9218 6.92321 7.9593 6.72165 7.95461C6.5154 7.94993 6.53415 8.05305 6.7404 8.04836C7.38259 8.02024 8.08102 7.79524 8.81696 8.32024C8.90602 8.38118 8.59665 8.39055 8.35759 8.29211C8.35759 8.29211 7.70134 8.32493 7.42009 8.27805C7.42009 8.27805 7.20915 8.45618 6.92321 8.43743C6.96071 8.53118 6.82009 8.86868 5.93884 8.61086C5.78884 8.65774 5.25915 8.7468 5.3154 8.58743C5.17477 8.58743 4.93102 8.6343 4.89352 8.55461C4.85602 8.47493 5.32477 8.35774 5.40915 8.27336C5.40915 8.27336 4.4154 8.28274 4.2279 8.21243C4.2279 8.21243 3.64196 8.34368 3.67946 8.23118Z" fill="#BC715F"/>
<path d="M3.99795 9.61868C4.0167 9.59055 4.02608 9.5343 4.07295 9.53899C4.1667 9.56243 4.23702 9.74524 4.3542 9.62805C4.40108 9.61868 4.41514 9.67493 4.44795 9.6843C4.47139 9.78274 4.55577 9.66086 4.61202 9.67024C4.74327 9.61399 4.89795 9.59993 5.05264 9.62336C5.05264 9.72649 4.97764 9.8343 4.88389 9.89055C4.88389 9.9843 4.97764 10.0499 4.97295 10.1484C4.95889 10.1859 4.97295 10.2421 4.9167 10.2562C4.8417 10.2421 4.77608 10.2374 4.71514 10.1952C4.70577 10.1906 4.70108 10.1765 4.68702 10.1812C4.67764 10.214 4.73389 10.2468 4.75264 10.2796C4.71514 10.3406 4.65889 10.2843 4.60733 10.2843C4.59327 10.3218 4.60733 10.364 4.56983 10.3874C4.50889 10.3874 4.49483 10.3171 4.45733 10.2843C4.41514 10.3265 4.48545 10.3499 4.49483 10.3827C4.4667 10.514 4.47139 10.6406 4.34483 10.7249L4.25577 10.7671C4.23233 10.7015 4.24639 10.6031 4.23233 10.5327C4.18545 10.6171 4.13858 10.6921 4.06827 10.7624C3.97452 10.7343 3.92764 10.6312 3.90889 10.5421C3.88978 10.493 3.88536 10.4393 3.89618 10.3877C3.907 10.3361 3.93259 10.2888 3.96983 10.2515C3.94639 10.2046 3.85264 10.214 3.83858 10.139C3.69795 10.0452 3.62764 10.2937 3.53858 10.1671C3.52477 10.1046 3.52608 10.0396 3.54238 9.97765C3.55868 9.9157 3.58952 9.85852 3.63233 9.81086C3.60889 9.76399 3.54327 9.77336 3.50577 9.74524C3.42139 9.67024 3.29483 9.59524 3.3042 9.46399C3.42186 9.4214 3.54923 9.41333 3.67132 9.44074C3.7934 9.46815 3.90511 9.52989 3.99327 9.61868" fill="#008737"/>
<path d="M4.1203 9.60474C4.11562 9.71255 4.19062 9.63286 4.25155 9.69849C4.20468 9.67974 4.17187 9.77817 4.12499 9.72192L4.09687 9.75005C4.11562 9.78755 4.14374 9.79224 4.11562 9.83442C4.06874 9.85317 4.05468 9.78755 4.03124 9.76411C4.03124 9.75474 4.04062 9.73599 4.02187 9.72661C3.99374 9.75005 3.96562 9.75942 3.92812 9.75474C3.91874 9.73599 3.8953 9.70786 3.91874 9.68911C3.95624 9.64224 4.01249 9.70786 4.04062 9.67505C4.0453 9.64224 4.01718 9.60474 4.05468 9.5813C4.07812 9.58599 4.11093 9.57192 4.1203 9.60474ZM4.41093 9.6938C4.41562 9.71255 4.40155 9.74067 4.42968 9.75942C4.46718 9.74067 4.50468 9.75474 4.52343 9.78755C4.52343 9.8063 4.52812 9.83442 4.50468 9.8438L4.44843 9.82974C4.45312 9.82036 4.43437 9.81567 4.42968 9.80161C4.40624 9.79692 4.38749 9.81567 4.37343 9.82974C4.38749 9.84849 4.4203 9.86255 4.41093 9.88599C4.37812 9.9188 4.36405 9.85786 4.32655 9.87661C4.29843 9.86724 4.33124 9.81567 4.29374 9.79692C4.24687 9.79692 4.27968 9.87192 4.21874 9.8438C4.19999 9.82036 4.18124 9.78755 4.19999 9.76411C4.21387 9.75589 4.23003 9.75236 4.24608 9.75405C4.26212 9.75574 4.27719 9.76255 4.28905 9.77349C4.32655 9.7313 4.32655 9.5813 4.41562 9.6938M4.04999 9.84849C4.07343 9.88599 4.04062 9.93286 4.07343 9.97036C4.1203 9.87661 4.16718 9.98911 4.22343 9.97974C4.24218 10.0032 4.22812 10.0313 4.2328 10.0547C4.16249 10.0735 4.07812 10.0969 4.01718 10.0407L3.99843 10.0594C4.03593 10.0922 4.06874 10.1344 4.04062 10.1907C3.98905 10.2 3.90468 10.2047 3.88124 10.1485C3.86718 10.1016 3.91405 10.0735 3.86249 10.036C3.82968 10.0829 3.82968 10.1391 3.75937 10.0969C3.73924 10.086 3.72411 10.0677 3.71713 10.0458C3.71014 10.024 3.71184 10.0003 3.72187 9.97974C3.76874 9.90474 3.85312 9.97974 3.89999 9.94692C3.90937 9.8813 3.88593 9.82505 3.94687 9.79224C3.99374 9.78286 4.01718 9.82036 4.04999 9.84849Z" fill="#FFFF00"/>
<path d="M4.24707 9.89063C4.22363 9.99845 4.14395 9.88595 4.10645 9.88126C4.15332 9.78751 4.18613 9.90938 4.24707 9.89063ZM4.5002 10.0078C4.44395 10.0219 4.45332 9.95157 4.4252 9.92345L4.44863 9.9047C4.46738 9.92813 4.48145 9.97501 4.5002 10.0078Z" fill="white"/>
<path d="M4.42539 9.98448C4.43945 10.022 4.38789 10.0548 4.43477 10.0782L4.47227 10.0454C4.51445 10.0548 4.55664 10.0642 4.58477 10.1017C4.61289 10.1814 4.5332 10.1814 4.49102 10.2048H4.44414C4.45352 10.1767 4.4207 10.1673 4.41602 10.1579C4.40701 10.1547 4.39725 10.1544 4.38803 10.1569C4.37882 10.1594 4.37059 10.1647 4.36445 10.172C4.37383 10.2189 4.43477 10.2657 4.37383 10.3079C4.31758 10.3079 4.2332 10.3267 4.23789 10.2517C4.21914 10.2048 4.29414 10.1439 4.21445 10.1392C4.18633 10.2001 4.1582 10.2517 4.08789 10.2001L4.09727 10.1157C4.16289 10.1157 4.24258 10.1298 4.2707 10.0548C4.28945 10.0032 4.23789 9.95166 4.28477 9.91416C4.35508 9.89541 4.39258 9.94229 4.42539 9.98448Z" fill="#FFFF00"/>
<path d="M4.37807 10.1063C4.39213 10.1485 4.34994 10.1532 4.32651 10.1719C4.29838 10.1719 4.27963 10.1625 4.26088 10.1438C4.24682 10.0969 4.28432 10.0875 4.30776 10.0688C4.34057 10.0547 4.35463 10.0922 4.37807 10.1063Z" fill="black"/>
<path d="M4.33633 10.1344C4.33164 10.1438 4.31758 10.1391 4.3082 10.1438L4.29883 10.0969C4.32227 10.0969 4.3457 10.1016 4.33633 10.1344Z" fill="white"/>
</g>
<defs>
<clipPath id="clip0_11930_68377">
<rect width="36" height="24" rx="2" fill="white"/>
</clipPath>
</defs>
</svg>
