<svg width="36" height="24" viewBox="0 0 36 24" fill="none" xmlns="http://www.w3.org/2000/svg">
<rect width="36" height="24" rx="2" fill="#3E5EB9"/>
<path d="M0 4.5H36V19.5H0V4.5Z" fill="#FFD900"/>
<path d="M0 6H36V18H0V6Z" fill="#B10C0C"/>
<path d="M29.415 9.25793L27.957 9.77393L29.409 10.2839L30.867 9.77393L29.415 9.25793Z" fill="white" stroke="black" stroke-width="0.06"/>
<path d="M28.449 9.59998H7.39498C7.29226 9.59998 7.20898 9.67654 7.20898 9.77098C7.20898 9.86542 7.29226 9.94198 7.39498 9.94198H28.449C28.5517 9.94198 28.635 9.86542 28.635 9.77098C28.635 9.67654 28.5517 9.59998 28.449 9.59998Z" fill="#FFD900" stroke="black" stroke-width="0.06"/>
<path d="M28.1252 9.94198C28.1699 9.94058 28.2125 9.92261 28.2446 9.89156C28.2768 9.8605 28.2962 9.81859 28.2992 9.77398C28.2977 9.7283 28.2789 9.68491 28.2466 9.6526C28.2143 9.62029 28.1709 9.60147 28.1252 9.59998M27.9572 9.94198C28.0008 9.93915 28.0419 9.92055 28.0729 9.88963C28.1038 9.85871 28.1224 9.8176 28.1252 9.77398C28.1238 9.72929 28.1058 9.68672 28.0748 9.65455C28.0437 9.62239 28.0018 9.60293 27.9572 9.59998M27.7832 9.94198C27.8279 9.94058 27.8705 9.92261 27.9026 9.89156C27.9348 9.8605 27.9542 9.81859 27.9572 9.77398C27.9557 9.7283 27.9369 9.68491 27.9046 9.6526C27.8723 9.62029 27.8289 9.60147 27.7832 9.59998" fill="#FFD900"/>
<path d="M28.1252 9.94198C28.1699 9.94058 28.2125 9.92261 28.2446 9.89156C28.2768 9.8605 28.2962 9.81859 28.2992 9.77398C28.2977 9.7283 28.2789 9.68491 28.2466 9.6526C28.2143 9.62029 28.1709 9.60147 28.1252 9.59998M27.9572 9.94198C28.0008 9.93915 28.0419 9.92055 28.0729 9.88963C28.1038 9.85871 28.1224 9.8176 28.1252 9.77398C28.1238 9.72929 28.1058 9.68672 28.0748 9.65455C28.0437 9.62239 28.0018 9.60293 27.9572 9.59998M27.7832 9.94198C27.8279 9.94058 27.8705 9.92261 27.9026 9.89156C27.9348 9.8605 27.9542 9.81859 27.9572 9.77398C27.9557 9.7283 27.9369 9.68491 27.9046 9.6526C27.8723 9.62029 27.8289 9.60147 27.7832 9.59998" stroke="black" stroke-width="0.06"/>
<path d="M28.0107 10.2838L26.5527 10.7998L28.0047 11.3098L29.4627 10.7998L28.0107 10.2838Z" fill="white" stroke="black" stroke-width="0.06"/>
<path d="M27.0447 10.6259H5.99069C5.88796 10.6259 5.80469 10.7024 5.80469 10.7969C5.80469 10.8913 5.88796 10.9679 5.99069 10.9679H27.0447C27.1474 10.9679 27.2307 10.8913 27.2307 10.7969C27.2307 10.7024 27.1474 10.6259 27.0447 10.6259Z" fill="#FFD900" stroke="black" stroke-width="0.06"/>
<path d="M26.7209 10.9679C26.7656 10.9665 26.8082 10.9485 26.8403 10.9174C26.8725 10.8864 26.8919 10.8445 26.8949 10.7999C26.8934 10.7542 26.8746 10.7108 26.8423 10.6785C26.81 10.6462 26.7666 10.6274 26.7209 10.6259M26.5529 10.9679C26.5965 10.965 26.6376 10.9464 26.6686 10.9155C26.6995 10.8846 26.7181 10.8435 26.7209 10.7999C26.7195 10.7552 26.7015 10.7126 26.6705 10.6804C26.6394 10.6483 26.5975 10.6288 26.5529 10.6259M26.3789 10.9679C26.4236 10.9665 26.4662 10.9485 26.4983 10.9174C26.5305 10.8864 26.5499 10.8445 26.5529 10.7999C26.5514 10.7542 26.5326 10.7108 26.5003 10.6785C26.468 10.6462 26.4246 10.6274 26.3789 10.6259" fill="#FFD900"/>
<path d="M26.7209 10.9679C26.7656 10.9665 26.8082 10.9485 26.8403 10.9174C26.8725 10.8864 26.8919 10.8445 26.8949 10.7999C26.8934 10.7542 26.8746 10.7108 26.8423 10.6785C26.81 10.6462 26.7666 10.6274 26.7209 10.6259M26.5529 10.9679C26.5965 10.965 26.6376 10.9464 26.6686 10.9155C26.6995 10.8846 26.7181 10.8435 26.7209 10.7999C26.7195 10.7552 26.7015 10.7126 26.6705 10.6804C26.6394 10.6483 26.5975 10.6288 26.5529 10.6259M26.3789 10.9679C26.4236 10.9665 26.4662 10.9485 26.4983 10.9174C26.5305 10.8864 26.5499 10.8445 26.5529 10.7999C26.5514 10.7542 26.5326 10.7108 26.5003 10.6785C26.468 10.6462 26.4246 10.6274 26.3789 10.6259" stroke="black" stroke-width="0.06"/>
<path d="M32.3158 11.7418H3.67778C3.53861 11.7418 3.42578 11.8573 3.42578 11.9998C3.42578 12.1423 3.53861 12.2578 3.67778 12.2578H32.3158C32.455 12.2578 32.5678 12.1423 32.5678 11.9998C32.5678 11.8573 32.455 11.7418 32.3158 11.7418Z" fill="#FFD900" stroke="black" stroke-width="0.066"/>
<path d="M26.4095 12C24.6945 13.715 22.4095 17.145 17.8395 17.145C13.8395 17.145 10.9845 13.715 9.26953 12C10.9795 10.285 13.8395 6.85498 17.8395 6.85498C22.4095 6.85498 24.6945 10.285 26.4095 12Z" fill="white" stroke="black" stroke-width="0.06"/>
<path d="M17.2395 8.64998C17.6995 9.15998 17.3145 9.36498 17.7995 9.39998C18.3095 9.43498 18.0195 9.93998 18.4495 9.95998C18.7495 9.96998 18.4195 11.17 18.7045 11.56C18.9995 11.975 19.2445 11.685 19.2545 11.98C19.2545 12.29 18.4545 12.255 18.4395 13.205C18.4145 13.75 17.7595 13.785 17.7295 14.135C17.6895 14.465 19.0195 14.65 18.9995 14.945C18.9845 15.245 17.5645 15.195 17.4995 15.53C17.4695 15.83 19.4495 16.08 19.6095 16.955C19.3095 17.055 18.4745 17.14 17.8395 17.145C13.8395 17.145 10.9845 13.715 9.26953 11.995C10.9845 10.285 13.8395 6.85498 17.8395 6.85498C17.8395 6.85498 16.6545 7.93998 17.2395 8.64498V8.64998Z" fill="black"/>
<path d="M12.6797 11.5439V10.1699V11.5439ZM13.5077 10.1699V11.5439V10.1699ZM14.3357 10.1699V11.5439V10.1699Z" fill="black"/>
<path d="M12.6797 11.5439V10.1699M13.5077 10.1699V11.5439M14.3357 10.1699V11.5439" stroke="white" stroke-width="0.414"/>
<path d="M12.6797 13.8299V12.4559V13.8299ZM13.5077 12.4559V13.8299V12.4559ZM14.3357 12.4559V13.8299V12.4559Z" fill="black"/>
<path d="M12.6797 13.8299V12.4559M13.5077 12.4559V13.8299M14.3357 12.4559V13.8299" stroke="white" stroke-width="0.414"/>
<path d="M15.1719 11.5439V10.1699V11.5439ZM15.9999 10.1699V11.5439V10.1699ZM16.8279 10.1699V11.5439V10.1699Z" fill="black"/>
<path d="M15.1719 11.5439V10.1699M15.9999 10.1699V11.5439M16.8279 10.1699V11.5439" stroke="white" stroke-width="0.414"/>
<path d="M15.1719 13.8298V12.4558V13.8298ZM15.9999 12.4558V13.8298V12.4558ZM16.8279 12.4558V13.8298V12.4558Z" fill="black"/>
<path d="M15.1719 13.8298V12.4558M15.9999 12.4558V13.8298M16.8279 12.4558V13.8298" stroke="white" stroke-width="0.414"/>
<path d="M18.9658 11.5439V10.1699V11.5439ZM19.7938 10.1699V11.5439V10.1699ZM20.6218 10.1699V11.5439V10.1699Z" fill="black"/>
<path d="M18.9658 11.5439V10.1699M19.7938 10.1699V11.5439M20.6218 10.1699V11.5439" stroke="black" stroke-width="0.414"/>
<path d="M18.9658 13.8298V12.4558V13.8298ZM19.7938 12.4558V13.8298V12.4558ZM20.6218 12.4558V13.8298V12.4558Z" fill="black"/>
<path d="M18.9658 13.8298V12.4558M19.7938 12.4558V13.8298M20.6218 12.4558V13.8298" stroke="black" stroke-width="0.414"/>
<path d="M21.4658 11.5439V10.1699V11.5439ZM22.2938 10.1699V11.5439V10.1699ZM23.1218 10.1699V11.5439V10.1699Z" fill="black"/>
<path d="M21.4658 11.5439V10.1699M22.2938 10.1699V11.5439M23.1218 10.1699V11.5439" stroke="black" stroke-width="0.414"/>
<path d="M21.4658 13.8298V12.4558V13.8298ZM22.2938 12.4558V13.8298V12.4558ZM23.1218 12.4558V13.8298V12.4558Z" fill="black"/>
<path d="M21.4658 13.8298V12.4558M22.2938 12.4558V13.8298M23.1218 12.4558V13.8298" stroke="black" stroke-width="0.414"/>
<path d="M30.5171 11.7999C30.2571 12.2449 30.7171 11.6499 31.8371 12.3999C31.9509 12.4939 32.0443 12.6104 32.1114 12.7419C32.1784 12.8735 32.2178 13.0175 32.2271 13.1649C32.1771 13.1299 32.1321 13.0499 32.0771 13.0049C31.9971 13.0849 32.1571 13.4549 32.1771 13.6299C32.0021 13.5299 32.0171 13.4899 31.9621 13.3699C31.9721 13.5099 31.9271 13.9099 32.0021 14.0699C31.8621 14.0299 31.8721 13.9199 31.8021 13.8949C31.8521 14.0699 31.7571 14.2549 31.7821 14.4549C31.7021 14.3749 31.6121 14.3099 31.5771 14.2799C31.5671 14.3799 31.4221 14.6199 31.4171 14.7099C31.391 14.6931 31.3686 14.6711 31.3514 14.6453C31.3342 14.6195 31.3225 14.5904 31.3171 14.5599C31.1584 14.749 31.024 14.9573 30.9171 15.1799C30.6821 14.9799 30.0871 14.4799 30.0071 14.2099C29.9371 14.3599 29.8371 14.4099 29.6471 14.5199C29.5671 14.0999 29.2721 13.6299 29.4271 13.2649C29.322 13.3298 29.2202 13.3999 29.1221 13.4749C29.2115 13.1065 29.3842 12.7635 29.6269 12.4722C29.8696 12.181 30.1758 11.9493 30.5221 11.7949L30.5171 11.7999Z" fill="#333333" stroke="black" stroke-width="0.05"/>
<path d="M29.5469 14.0249C29.6569 13.8099 29.7569 13.7399 29.8269 13.5999C29.9469 13.3599 29.9669 13.1599 30.0769 13.1899C30.1769 13.2199 30.1769 13.3199 30.0419 13.5599C29.9069 13.7999 29.8419 13.8499 29.5469 14.0249ZM30.2769 14.5349C30.2669 14.3749 30.3119 14.3049 30.3069 14.1999C30.2869 14.0099 30.2119 13.8849 30.3119 13.8749C30.4119 13.8699 30.4569 13.9299 30.4569 14.1149C30.4569 14.3049 30.4269 14.3549 30.2769 14.5349ZM30.8319 14.8549C30.7869 14.6299 30.8219 14.5299 30.7919 14.3799C30.7419 14.1199 30.6469 13.9499 30.7419 13.9249C30.8319 13.8999 30.8919 13.9849 30.9269 14.2499C30.9569 14.5099 30.9419 14.5849 30.8319 14.8599V14.8549ZM31.4069 13.2549C31.2719 13.1549 31.1919 13.1449 31.1069 13.0799C30.9569 12.9599 30.8769 12.8399 30.8269 12.8999C30.7769 12.9599 30.8119 13.0299 30.9769 13.1349C31.1419 13.2399 31.1869 13.2499 31.4069 13.2549ZM31.3119 14.0149C31.2419 13.8649 31.1619 13.8299 31.1219 13.7349C31.0419 13.5649 31.0419 13.4199 30.9469 13.4549C30.8619 13.4949 30.8519 13.5699 30.9469 13.7349C31.0469 13.8949 31.0969 13.9249 31.3069 14.0149H31.3119Z" fill="#B3B3B3"/>
<path d="M4.68664 12.23C4.66664 12.1 4.69664 12.08 4.61664 11.98C4.73664 12.03 4.73664 12.165 4.88164 12.07C4.93164 12.045 4.95664 12.045 4.89164 11.895C5.04164 11.905 5.52664 12.07 5.60664 12.075C5.81164 12.085 6.18664 11.86 6.44664 12.135C6.69664 12.385 6.60664 12.65 6.60664 12.995C6.50664 12.945 6.55664 12.93 6.44664 12.8C6.52664 13.11 6.44664 13.655 6.44664 13.98C6.40664 13.9 6.41164 13.935 6.37164 13.855C6.27164 14.15 6.14164 14.205 6.14164 14.56C6.10164 14.42 6.14164 14.45 6.09664 14.38C5.99664 14.605 5.29664 14.795 5.56664 15.02C5.32664 14.88 5.21664 14.89 5.11664 14.77C5.06664 14.795 5.02664 14.855 4.98664 14.93C4.56164 14.74 4.71164 14.32 4.38164 14.035C4.32164 14.155 4.34664 14.14 4.28164 14.33C4.22164 14.065 4.20164 13.895 4.12664 13.7C4.06164 13.81 4.06664 13.765 3.94664 13.93C3.89664 13.61 3.82164 13.53 3.84664 13.315C3.72664 13.405 3.80664 13.365 3.68164 13.475C3.80164 12.65 4.31164 12.035 4.68164 12.225L4.68664 12.23Z" fill="#333333" stroke="black" stroke-width="0.065"/>
<path d="M4.16699 13.5849C4.27199 13.3149 4.36699 13.2349 4.44199 13.0649C4.56699 12.7599 4.58699 12.5149 4.69199 12.5499C4.79199 12.5899 4.79199 12.7099 4.65199 13.0099C4.51199 13.3099 4.45199 13.3699 4.16699 13.5849ZM4.57699 14.2499C4.61699 14.0099 4.68699 13.9299 4.71699 13.7699C4.76699 13.4999 4.74199 13.2999 4.83699 13.3099C4.93699 13.3199 4.95699 13.4249 4.89199 13.6899C4.82699 13.9649 4.78199 14.0299 4.57199 14.2499H4.57699ZM5.06699 14.7199C5.08199 14.4899 5.13699 14.3949 5.14699 14.2449C5.16199 13.9849 5.10699 13.7949 5.19699 13.7949C5.29699 13.7949 5.32699 13.8899 5.29699 14.1499C5.26699 14.4099 5.23699 14.4799 5.06699 14.7199ZM6.12699 13.1999C5.92699 12.9999 5.80699 12.9599 5.67699 12.8299C5.44699 12.5999 5.33199 12.3899 5.24699 12.4649C5.16699 12.5399 5.21699 12.6499 5.46199 12.8649C5.70199 13.0899 5.78699 13.1199 6.13199 13.1999H6.12699ZM6.00699 13.9799C5.87699 13.7799 5.77699 13.7249 5.69199 13.5899C5.54199 13.3649 5.49199 13.1699 5.40699 13.2149C5.32199 13.2649 5.34199 13.3649 5.50199 13.5899C5.66699 13.8099 5.72699 13.8499 6.00699 13.9799Z" fill="#B3B3B3"/>
<path d="M15.0661 7.76996C14.8261 8.22996 15.4811 7.61996 16.5061 8.38996C16.7553 8.65653 16.9159 8.99357 16.9661 9.35496C16.7573 9.2882 16.5561 9.19936 16.3661 9.08996C16.3661 9.08996 16.8161 9.54996 16.8161 10.07C16.6561 9.96996 16.5761 9.98496 16.5161 9.86496C16.5161 10.03 16.6661 10.14 16.6661 10.4C16.5676 10.3207 16.4622 10.2504 16.3511 10.19C16.5011 10.455 16.0761 10.965 16.2911 11.13C16.1107 11.1051 15.9372 11.0435 15.7815 10.9489C15.6259 10.8543 15.4913 10.7287 15.3861 10.58C15.3061 10.63 15.2961 10.715 15.2911 10.81C15.3061 10.815 14.7261 10.375 14.7811 10.21C14.715 10.2927 14.6765 10.3941 14.6711 10.5C14.452 10.3173 14.2861 10.079 14.1911 9.80996C14.1011 9.92996 14.0911 9.92996 13.9961 10.06C13.9261 9.62496 13.9261 9.63996 14.0661 9.26996C13.9692 9.3368 13.8757 9.40856 13.7861 9.48496C13.8593 9.12218 14.012 8.78016 14.2334 8.48358C14.4547 8.187 14.7391 7.94326 15.0661 7.76996Z" fill="#333333" stroke="black" stroke-width="0.05"/>
<path d="M14.4775 10.0099C14.5175 9.69494 14.5975 9.57994 14.6275 9.36994C14.6675 9.01994 14.6175 8.74994 14.7475 8.75994C14.8675 8.76994 14.9075 8.89994 14.8475 9.25994C14.7825 9.61494 14.7275 9.69994 14.4825 10.0149L14.4775 10.0099ZM15.1425 10.5899C15.1175 10.3299 15.1675 10.2099 15.1475 10.0399C15.1225 9.73994 15.0275 9.52994 15.1375 9.51494C15.2475 9.49494 15.3075 9.59494 15.3175 9.90494C15.3275 10.2049 15.3025 10.2899 15.1425 10.5899ZM16.1825 11.0699C16.0675 10.8349 15.9675 10.7699 15.8975 10.6199C15.7675 10.3549 15.7375 10.1449 15.6425 10.1799C15.5425 10.2199 15.5475 10.3299 15.6925 10.5899C15.8325 10.8399 15.8975 10.8949 16.1775 11.0699H16.1825ZM16.5375 8.99494C16.2475 8.84494 16.1025 8.84494 15.9175 8.74494C15.5925 8.57494 15.4025 8.38994 15.3375 8.49494C15.2675 8.59494 15.3575 8.69994 15.6925 8.85494C16.0275 9.00994 16.1325 9.01494 16.5325 8.99494H16.5375ZM16.6375 9.85994C16.4375 9.68994 16.3075 9.65994 16.1725 9.54994C15.9325 9.34994 15.8175 9.16494 15.7425 9.23994C15.6625 9.31994 15.7125 9.41994 15.9625 9.60494C16.2125 9.78994 16.2975 9.80994 16.6425 9.85994H16.6375Z" fill="#B3B3B3"/>
</svg>
