<svg width="36" height="24" viewBox="0 0 36 24" fill="none" xmlns="http://www.w3.org/2000/svg">
<rect width="36" height="24" rx="2" fill="#002868"/>
<path d="M31.5 8.72998V13.23C31.5 16.23 30 19.46 26.25 21.21C22.5 19.46 21 16.23 21 13.23V8.72998H31.5Z" fill="#FCD116" stroke="black" stroke-width="0.4"/>
<path d="M31.5 8.72998V13.23C31.5 16.23 30 19.46 26.25 21.21C22.5 19.46 21 16.23 21 13.23V8.72998H31.5Z" stroke="white" stroke-width="0.35"/>
<path d="M24.3563 13.685C24.2213 13.92 23.9863 13.97 23.8063 13.895C23.6213 13.82 23.4513 13.38 23.2613 13.145C23.0813 12.91 23.0313 13.01 22.9113 12.875C22.7364 12.7149 22.5329 12.5894 22.3113 12.505C22.1463 12.43 21.9763 12.36 21.8613 12.075C21.912 11.9598 22.0051 11.8684 22.1213 11.82C22.2163 11.785 22.2913 11.65 22.3013 11.53C22.3163 11.42 22.4163 11.295 22.5513 11.2C22.4863 11.21 22.3563 11.185 22.2963 11.145C22.2413 11.095 22.1463 11.105 22.0913 11.145C22.0313 11.185 21.9613 11.195 21.8613 11.185C21.9013 11.155 21.9713 11.085 21.9763 11.025C21.9813 10.965 22.0563 10.93 22.2013 10.93C22.3413 10.93 22.4313 10.77 22.5463 10.77C22.4663 10.77 22.4813 10.63 22.5263 10.62C22.3263 10.585 22.3513 10.42 22.4313 10.42C22.4263 10.4 22.4013 10.37 22.3063 10.345C22.2213 10.31 22.2613 10.23 22.3313 10.18C22.2713 10.055 22.3263 9.96 22.4263 9.88C22.2863 9.875 22.4413 9.68 22.4763 9.575C22.5163 9.475 22.5313 9.46 22.5763 9.525C22.6263 9.58 22.7413 9.71 22.8713 9.75C22.9963 9.785 23.0713 9.855 23.0963 9.96C23.1213 10.075 23.1713 10.13 23.3063 10.18C23.4513 10.225 23.6463 10.345 23.6213 10.61C23.7158 10.6136 23.8068 10.6468 23.8813 10.705" fill="#FCAD56"/>
<path d="M24.3563 13.685C24.2213 13.92 23.9863 13.97 23.8063 13.895C23.6213 13.82 23.4513 13.38 23.2613 13.145C23.0813 12.91 23.0313 13.01 22.9113 12.875C22.7364 12.7149 22.5329 12.5894 22.3113 12.505C22.1463 12.43 21.9763 12.36 21.8613 12.075C21.912 11.9598 22.0051 11.8684 22.1213 11.82C22.2163 11.785 22.2913 11.65 22.3013 11.53C22.3163 11.42 22.4163 11.295 22.5513 11.2C22.4863 11.21 22.3563 11.185 22.2963 11.145C22.2413 11.095 22.1463 11.105 22.0913 11.145C22.0313 11.185 21.9613 11.195 21.8613 11.185C21.9013 11.155 21.9713 11.085 21.9763 11.025C21.9813 10.965 22.0563 10.93 22.2013 10.93C22.3413 10.93 22.4313 10.77 22.5463 10.77C22.4663 10.77 22.4813 10.63 22.5263 10.62C22.3263 10.585 22.3513 10.42 22.4313 10.42C22.4263 10.4 22.4013 10.37 22.3063 10.345C22.2213 10.31 22.2613 10.23 22.3313 10.18C22.2713 10.055 22.3263 9.96 22.4263 9.88C22.2863 9.875 22.4413 9.68 22.4763 9.575C22.5163 9.475 22.5313 9.46 22.5763 9.525C22.6263 9.58 22.7413 9.71 22.8713 9.75C22.9963 9.785 23.0713 9.855 23.0963 9.96C23.1213 10.075 23.1713 10.13 23.3063 10.18C23.4513 10.225 23.6463 10.345 23.6213 10.61C23.7158 10.6136 23.8068 10.6468 23.8813 10.705" stroke="black" stroke-width="0.015" stroke-linecap="round" stroke-linejoin="round"/>
<path d="M24.7006 10.3C24.7 10.3617 24.7137 10.4226 24.7406 10.4781C24.7675 10.5337 24.8069 10.5822 24.8556 10.62C24.9506 10.695 25.0306 10.755 25.0106 10.85C24.9956 10.95 25.0306 11.01 25.1106 11.075C25.2006 11.135 25.2606 11.21 25.2406 11.335C25.2206 11.46 25.2306 11.535 25.2806 11.63C25.3306 11.725 25.4206 11.8 25.3806 11.95C25.3406 12.1 25.3606 12.3 25.4106 12.4C25.4606 12.495 25.4106 12.57 25.3256 12.735C25.2356 12.9 25.1856 12.96 25.0056 13.025C24.8206 13.08 24.8056 13.195 24.8056 13.385C24.8056 13.585 24.6756 13.685 24.4306 13.65C24.1806 13.855 24.0256 13.61 23.9606 13.305C23.8956 13 23.8906 12.665 23.5206 12.4C23.1556 12.125 23.3006 11.66 23.6056 11.475C23.9106 11.295 23.8756 10.755 23.8356 10.425C23.8056 10.095 24.0256 9.90498 24.1956 9.72498C24.4206 9.80998 24.7006 10.155 24.7006 10.3Z" fill="#FFA1A1" stroke="black" stroke-width="0.015" stroke-linecap="round" stroke-linejoin="round"/>
<path d="M24.1706 12.43C24.1006 12.27 24.0256 12.105 24.2056 11.755C24.3956 11.4 24.2756 11.13 24.2206 10.95C24.1656 10.775 24.1506 10.61 24.2206 10.535C24.2956 10.47 24.3256 10.425 24.3306 10.305C24.3356 10.195 24.4306 10.23 24.4456 10.285C24.4606 10.34 24.4706 10.435 24.3706 10.605C24.2706 10.78 24.6506 11.205 24.4756 11.66C24.3556 11.98 24.5156 12.385 24.5756 12.67C24.6356 12.955 24.6756 13.62 24.2606 13.72C24.5456 13.585 24.2806 12.695 24.1706 12.43Z" fill="#F1B2DC" stroke="black" stroke-width="0.015" stroke-linecap="round" stroke-linejoin="round"/>
<path d="M22.3154 12.3801C22.3804 12.3951 22.4154 12.3551 22.4354 12.3101C22.4554 12.2651 22.4704 12.2451 22.5354 12.2351C22.5954 12.2351 22.6954 12.2201 22.7204 12.1701C22.7404 12.1201 22.8154 12.1601 22.8804 12.0351C22.9454 11.9051 22.9854 11.7551 23.1554 11.7001M23.6204 10.6101C23.5554 10.6101 23.3754 10.6201 23.3004 10.7801M22.7804 9.83508C22.9304 9.88008 22.8704 9.98008 22.9454 10.0351C23.0804 10.1451 22.9554 10.2551 23.0704 10.2851C23.1854 10.3151 23.1754 10.3351 23.1504 10.4601C23.1104 10.6051 23.2504 10.6101 23.2004 10.7051M22.5504 11.2001C22.6404 11.1201 22.8554 11.0551 22.9054 10.9701M22.5454 10.7701C22.6754 10.7601 22.8504 10.8101 22.8754 10.7601M22.5254 10.6251C22.5904 10.6251 22.7204 10.5801 22.7454 10.4951M22.4304 10.4251C22.5054 10.4251 22.6004 10.4201 22.6954 10.3501M22.3304 10.1801C22.3854 10.1351 22.4854 10.1851 22.5804 10.1251M22.4254 9.88008C22.4704 9.88008 22.5654 9.87008 22.5654 9.92508" stroke="black" stroke-width="0.015" stroke-linecap="round" stroke-linejoin="round"/>
<path d="M28.4029 11.0237C28.4029 11.0237 27.9654 10.6549 27.6029 10.4049C27.2404 10.1549 26.8029 9.84866 26.8029 9.78616C26.8717 9.73616 27.2404 9.97366 27.7467 10.2799C28.2592 10.5924 28.5467 10.8987 28.5467 10.8987L28.4029 11.0237ZM28.3717 11.2737C28.3717 11.2737 27.9467 11.0174 27.5279 10.8362C27.0904 10.6549 26.4342 10.6549 26.3654 10.5924C26.3654 10.5299 27.1279 10.4924 27.6717 10.7112C28.2279 10.9674 28.5154 11.1487 28.5154 11.1487L28.3717 11.2737ZM28.3654 11.6987C28.3654 11.6987 27.9029 11.4862 27.4529 11.3862C27.0154 11.2862 26.3904 11.3237 26.3154 11.2674C26.3154 11.2049 27.0904 11.0799 27.6717 11.2674C28.2592 11.4487 28.5092 11.5737 28.5092 11.5737L28.3654 11.6987ZM28.3404 12.1299C28.3404 12.1299 27.9904 11.8924 27.5279 11.8424C27.0904 11.7987 26.5092 12.1299 26.4342 12.0674C26.4342 12.0049 26.9404 11.6362 27.5717 11.6987C28.1904 11.7612 28.4842 12.0049 28.4842 12.0049L28.3404 12.1299ZM28.4842 10.7674C28.4842 10.7674 28.0404 10.3612 28.0404 10.0862C28.0404 9.84241 28.3092 9.46741 28.4279 9.46741C28.3654 9.59241 28.1592 9.84241 28.1592 10.0862C28.1592 10.3362 28.6279 10.6424 28.6279 10.6424L28.4842 10.7674Z" fill="#9E540A" stroke="black" stroke-width="0.01375" stroke-linecap="round" stroke-linejoin="round"/>
<path d="M28.4847 10.7675C28.4847 10.7675 28.5722 10.3613 28.5722 10.0863C28.5722 9.7175 28.3097 9.38 28.3347 9.28625C28.4284 9.38 28.6909 9.655 28.6909 10.0863C28.6909 10.4613 28.6284 10.6425 28.6284 10.6425L28.4847 10.7675Z" fill="#9E540A" stroke="black" stroke-width="0.01375" stroke-linecap="round" stroke-linejoin="round"/>
<path d="M28.5885 10.6364C28.5885 10.5176 28.5447 10.4114 28.4697 10.3301C28.3697 10.2114 28.2197 10.1739 28.0635 10.1989C27.876 10.2301 27.726 10.3426 27.6322 10.5176C27.5072 10.7489 27.4947 10.9989 27.4885 11.2426C27.4885 12.0864 27.5197 12.4301 27.5447 13.2614C27.551 13.5051 27.5947 14.0051 27.4822 14.3989C27.4385 14.5676 27.3885 14.7239 27.3135 14.8864C27.3635 14.6801 27.3885 14.5739 27.4135 14.4176C27.4822 14.0114 27.4635 13.6301 27.451 13.2551C27.426 12.4864 27.3822 12.0926 27.3572 11.1614C27.351 10.8801 27.376 10.6676 27.5072 10.4426C27.6447 10.2114 27.8822 10.0426 28.151 10.0426C28.2635 10.0426 28.3572 10.0614 28.451 10.1176C28.6385 10.2176 28.726 10.4239 28.726 10.6301L28.5885 10.6364Z" fill="#9E540A" stroke="#FCD116" stroke-width="0.075" stroke-linecap="round" stroke-linejoin="round"/>
<path d="M28.5885 10.6364C28.5885 10.5176 28.5447 10.4114 28.4697 10.3301C28.3697 10.2114 28.2197 10.1739 28.0635 10.1989C27.876 10.2301 27.726 10.3426 27.6322 10.5176C27.5072 10.7489 27.4947 10.9989 27.4885 11.2426C27.4885 12.0864 27.5197 12.4301 27.5447 13.2614C27.551 13.5051 27.5947 14.0051 27.4822 14.3989C27.4385 14.5676 27.3885 14.7239 27.3135 14.8864C27.3635 14.6801 27.3885 14.5739 27.4135 14.4176C27.4822 14.0114 27.4635 13.6301 27.451 13.2551C27.426 12.4864 27.3822 12.0926 27.3572 11.1614C27.351 10.8801 27.376 10.6676 27.5072 10.4426C27.6447 10.2114 27.8822 10.0426 28.151 10.0426C28.2635 10.0426 28.3572 10.0614 28.451 10.1176C28.6385 10.2176 28.726 10.4239 28.726 10.6301L28.5885 10.6364Z" fill="#9E540A"/>
<path d="M28.6283 13.6487C28.6283 13.6487 28.4533 13.9612 28.3221 14.1862C28.1908 14.4112 28.0846 14.4612 27.9846 14.3924C27.8908 14.3237 27.9721 14.1424 28.0471 14.0549C28.1221 13.9674 28.5408 13.5612 28.5408 13.5612L28.6283 13.6487Z" fill="#9E540A" stroke="black" stroke-width="0.01375" stroke-linecap="round" stroke-linejoin="round"/>
<path d="M28.6717 13.6738C28.6717 13.6738 28.6029 14.0301 28.5467 14.2863C28.4967 14.5426 28.4092 14.6301 28.3029 14.5988C28.1904 14.5738 28.2092 14.3676 28.2529 14.2613C28.2967 14.1551 28.5592 13.6176 28.5592 13.6176L28.6717 13.6738Z" fill="#9E540A" stroke="black" stroke-width="0.01375" stroke-linecap="round" stroke-linejoin="round"/>
<path d="M28.7469 13.6862V14.3112C28.7469 14.5737 28.6844 14.6799 28.5657 14.6737C28.4532 14.6674 28.4282 14.4674 28.4532 14.3487C28.4719 14.2362 28.6282 13.6549 28.6282 13.6549L28.7469 13.6862Z" fill="#9E540A" stroke="black" stroke-width="0.01375" stroke-linecap="round" stroke-linejoin="round"/>
<path d="M29.0932 11.0237C29.0932 11.0237 29.5307 10.6549 29.8932 10.4049C30.2557 10.1549 30.6932 9.84866 30.6932 9.78616C30.6244 9.73616 30.2557 9.97366 29.7494 10.2799C29.2369 10.5924 28.9494 10.8987 28.9494 10.8987L29.0932 11.0237ZM29.1244 11.2737C29.1244 11.2737 29.5494 11.0174 29.9682 10.8362C30.4057 10.6549 31.0619 10.6549 31.1307 10.5924C31.1307 10.5299 30.3682 10.4924 29.8244 10.7112C29.2682 10.9674 28.9807 11.1487 28.9807 11.1487L29.1244 11.2737ZM29.1307 11.6987C29.1307 11.6987 29.5932 11.4862 30.0432 11.3862C30.4807 11.2862 31.1057 11.3237 31.1807 11.2674C31.1807 11.2049 30.4057 11.0799 29.8244 11.2674C29.2369 11.4487 28.9869 11.5737 28.9869 11.5737L29.1307 11.6987ZM29.1557 12.1299C29.1557 12.1299 29.5057 11.8924 29.9682 11.8424C30.4057 11.7987 30.9869 12.1299 31.0619 12.0674C31.0619 12.0049 30.5557 11.6362 29.9244 11.6987C29.3057 11.7612 29.0119 12.0049 29.0119 12.0049L29.1557 12.1299ZM29.0119 10.7674C29.0119 10.7674 29.4557 10.3612 29.4557 10.0862C29.4557 9.84241 29.1869 9.46741 29.0682 9.46741C29.1307 9.59241 29.3369 9.84241 29.3369 10.0862C29.3369 10.3362 28.8682 10.6424 28.8682 10.6424L29.0119 10.7674Z" fill="#9E540A" stroke="black" stroke-width="0.01375" stroke-linecap="round" stroke-linejoin="round"/>
<path d="M29.0124 10.7675C29.0124 10.7675 28.9249 10.3613 28.9249 10.0863C28.9249 9.7175 29.1874 9.38 29.1624 9.28625C29.0686 9.38 28.8061 9.655 28.8061 10.0863C28.8061 10.4613 28.8686 10.6425 28.8686 10.6425L29.0124 10.7675Z" fill="#9E540A" stroke="black" stroke-width="0.01375" stroke-linecap="round" stroke-linejoin="round"/>
<path d="M28.9066 10.6364C28.9066 10.5176 28.9504 10.4114 29.0254 10.3301C29.1254 10.2114 29.2754 10.1739 29.4316 10.1989C29.6191 10.2301 29.7691 10.3426 29.8629 10.5176C29.9879 10.7489 30.0004 10.9989 30.0066 11.2426C30.0066 12.0864 29.9754 12.4301 29.9504 13.2614C29.9441 13.5051 29.9004 14.0051 30.0129 14.3989C30.0566 14.5676 30.1066 14.7239 30.1816 14.8864C30.1316 14.6801 30.1066 14.5739 30.0816 14.4176C30.0129 14.0114 30.0316 13.6301 30.0441 13.2551C30.0691 12.4864 30.1129 12.0926 30.1379 11.1614C30.1441 10.8801 30.1191 10.6676 29.9879 10.4426C29.8504 10.2114 29.6129 10.0426 29.3441 10.0426C29.2316 10.0426 29.1379 10.0614 29.0441 10.1176C28.8566 10.2176 28.7691 10.4239 28.7691 10.6301L28.9066 10.6364Z" fill="#9E540A" stroke="#FCD116" stroke-width="0.075" stroke-linecap="round" stroke-linejoin="round"/>
<path d="M28.9066 10.6364C28.9066 10.5176 28.9504 10.4114 29.0254 10.3301C29.1254 10.2114 29.2754 10.1739 29.4316 10.1989C29.6191 10.2301 29.7691 10.3426 29.8629 10.5176C29.9879 10.7489 30.0004 10.9989 30.0066 11.2426C30.0066 12.0864 29.9754 12.4301 29.9504 13.2614C29.9441 13.5051 29.9004 14.0051 30.0129 14.3989C30.0566 14.5676 30.1066 14.7239 30.1816 14.8864C30.1316 14.6801 30.1066 14.5739 30.0816 14.4176C30.0129 14.0114 30.0316 13.6301 30.0441 13.2551C30.0691 12.4864 30.1129 12.0926 30.1379 11.1614C30.1441 10.8801 30.1191 10.6676 29.9879 10.4426C29.8504 10.2114 29.6129 10.0426 29.3441 10.0426C29.2316 10.0426 29.1379 10.0614 29.0441 10.1176C28.8566 10.2176 28.7691 10.4239 28.7691 10.6301L28.9066 10.6364Z" fill="#9E540A"/>
<path d="M28.8688 13.6487C28.8688 13.6487 29.0438 13.9612 29.175 14.1862C29.3063 14.4112 29.4125 14.4612 29.5125 14.3924C29.6063 14.3237 29.525 14.1424 29.45 14.0549C29.375 13.9674 28.9563 13.5612 28.9563 13.5612L28.8688 13.6487Z" fill="#9E540A" stroke="black" stroke-width="0.01375" stroke-linecap="round" stroke-linejoin="round"/>
<path d="M28.8244 13.6738C28.8244 13.6738 28.8932 14.0301 28.9494 14.2863C28.9994 14.5426 29.0869 14.6301 29.1932 14.5988C29.3057 14.5738 29.2869 14.3676 29.2432 14.2613C29.1994 14.1551 28.9369 13.6176 28.9369 13.6176L28.8244 13.6738Z" fill="#9E540A" stroke="black" stroke-width="0.01375" stroke-linecap="round" stroke-linejoin="round"/>
<path d="M28.7491 13.6862V14.3112C28.7491 14.5737 28.8116 14.6799 28.9304 14.6737C29.0429 14.6674 29.0679 14.4674 29.0429 14.3487C29.0241 14.2362 28.8679 13.6549 28.8679 13.6549L28.7491 13.6862Z" fill="#9E540A" stroke="black" stroke-width="0.01375" stroke-linecap="round" stroke-linejoin="round"/>
<path d="M28.7518 13.68C28.4205 13.6737 28.3893 13.555 28.3893 13.555C28.3893 13.555 28.3455 13.405 28.3393 13.3112C28.333 13.2987 28.2455 13.1112 28.2705 13.03C28.2393 12.955 28.1643 12.7737 28.233 12.7425C28.2018 12.655 28.1518 12.555 28.1455 12.4612C28.1205 12.3925 28.058 12.2425 28.108 12.1925C28.108 12.1925 27.9893 11.9425 28.0455 11.88C28.0455 11.88 27.9893 11.6362 28.0455 11.5737C28.0455 11.5737 28.0455 11.3237 28.108 11.2612C28.108 11.2612 28.108 11.0175 28.1643 10.955C28.1643 10.9675 28.3393 10.6112 28.7518 10.6112L28.7455 11.1425H28.7518V13.68Z" fill="#9E540A" stroke="black" stroke-width="0.01375" stroke-linecap="round" stroke-linejoin="round"/>
<path d="M28.7512 12.3176C28.2199 12.3113 28.1074 12.1926 28.1074 12.1926M28.7512 12.0051C28.2199 12.0051 28.0449 11.8801 28.0449 11.8801M28.7512 11.6988C28.2199 11.6926 28.0449 11.5738 28.0449 11.5738M28.7512 11.3863C28.2199 11.3801 28.1074 11.2613 28.1074 11.2613M28.7449 11.1426C28.7512 11.1426 28.3449 11.1426 28.2824 11.0801L28.1637 10.9613M28.7512 13.4301C28.5949 13.4301 28.4199 13.4051 28.3387 13.3113M28.7512 13.1801C28.4574 13.1801 28.2824 13.0613 28.2824 13.0613C28.2824 13.0613 28.2762 13.0488 28.2699 13.0301M28.7512 12.8738C28.3637 12.8676 28.2574 12.7863 28.2324 12.7426M28.7512 12.6238C28.2199 12.6238 28.1637 12.4988 28.1637 12.4988L28.1449 12.4613" stroke="black" stroke-width="0.01375" stroke-linecap="round" stroke-linejoin="round"/>
<path d="M28.7443 13.68C29.0756 13.6737 29.1068 13.555 29.1068 13.555C29.1068 13.555 29.1506 13.405 29.1568 13.3112C29.1631 13.2987 29.2506 13.1112 29.2256 13.03C29.2568 12.955 29.3318 12.7737 29.2631 12.7425C29.2943 12.655 29.3443 12.555 29.3506 12.4612C29.3756 12.3925 29.4381 12.2425 29.3881 12.1925C29.3881 12.1925 29.5068 11.9425 29.4506 11.88C29.4506 11.88 29.5068 11.6362 29.4506 11.5737C29.4506 11.5737 29.4506 11.3237 29.3881 11.2612C29.3881 11.2612 29.3881 11.0175 29.3318 10.955C29.3318 10.9675 29.1568 10.6112 28.7443 10.6112L28.7506 11.1425H28.7443V13.68Z" fill="#9E540A" stroke="black" stroke-width="0.01375" stroke-linecap="round" stroke-linejoin="round"/>
<path d="M28.7439 12.3176C29.2752 12.3113 29.3877 12.1926 29.3877 12.1926M28.7439 12.0051C29.2752 12.0051 29.4502 11.8801 29.4502 11.8801M28.7439 11.6988C29.2752 11.6926 29.4502 11.5738 29.4502 11.5738M28.7439 11.3863C29.2752 11.3801 29.3877 11.2613 29.3877 11.2613M28.7502 11.1426C28.7439 11.1426 29.1502 11.1426 29.2127 11.0801L29.3314 10.9613M28.7439 13.4301C28.9002 13.4301 29.0752 13.4051 29.1564 13.3113M28.7439 13.1801C29.0377 13.1801 29.2127 13.0613 29.2127 13.0613C29.2127 13.0613 29.2189 13.0488 29.2252 13.0301M28.7439 12.8738C29.1314 12.8676 29.2377 12.7863 29.2627 12.7426M28.7439 12.6238C29.2752 12.6238 29.3314 12.4988 29.3314 12.4988L29.3502 12.4613" stroke="black" stroke-width="0.01375" stroke-linecap="round" stroke-linejoin="round"/>
<path d="M26.2564 19.4301C25.9877 19.6801 25.4689 19.5176 25.3064 19.4051C25.1377 19.4613 24.6877 19.2863 24.5689 19.0926C24.2439 19.1363 24.1314 18.6738 24.1877 18.5551C24.2752 18.3801 24.1189 18.2676 24.2314 18.1488C24.3877 17.9988 24.1439 17.8551 24.2939 17.7551C24.4439 17.6488 24.2564 17.4738 24.4064 17.3613C24.5627 17.2426 24.3252 17.0801 24.4877 16.9988C24.6502 16.9176 24.4689 16.7051 24.6064 16.6238C24.7439 16.5426 24.5252 16.3363 24.7127 16.2426C24.8939 16.1488 24.7314 15.9863 24.8752 15.9176C25.0314 15.8363 24.8877 15.6676 25.0314 15.6113C25.1939 15.5426 25.0752 15.3613 25.2127 15.3113C25.3314 15.2676 25.2564 15.1551 25.3314 15.0551H26.2564" fill="#009E49"/>
<path d="M26.2564 19.4301C25.9877 19.6801 25.4689 19.5176 25.3064 19.4051C25.1377 19.4613 24.6877 19.2863 24.5689 19.0926C24.2439 19.1363 24.1314 18.6738 24.1877 18.5551C24.2752 18.3801 24.1189 18.2676 24.2314 18.1488C24.3877 17.9988 24.1439 17.8551 24.2939 17.7551C24.4439 17.6488 24.2564 17.4738 24.4064 17.3613C24.5627 17.2426 24.3252 17.0801 24.4877 16.9988C24.6502 16.9176 24.4689 16.7051 24.6064 16.6238C24.7439 16.5426 24.5252 16.3363 24.7127 16.2426C24.8939 16.1488 24.7314 15.9863 24.8752 15.9176C25.0314 15.8363 24.8877 15.6676 25.0314 15.6113C25.1939 15.5426 25.0752 15.3613 25.2127 15.3113C25.3314 15.2676 25.2564 15.1551 25.3314 15.0551H26.2564" stroke="black" stroke-width="0.01375" stroke-linecap="round" stroke-linejoin="round"/>
<path d="M25.6382 15.0927C25.5132 15.2177 25.6632 15.3114 25.5382 15.4614C25.407 15.6177 25.5257 15.6989 25.4195 15.8364C25.3132 15.9739 25.4695 16.0427 25.3507 16.1989C25.232 16.3489 25.3757 16.4427 25.2445 16.5677C25.1195 16.6989 25.2695 16.8114 25.1382 16.9489C25.0132 17.0927 25.1632 17.1864 25.0382 17.3114C24.907 17.4427 25.057 17.5802 24.932 17.7052C24.807 17.8364 24.957 17.9989 24.8132 18.1489C24.6757 18.2989 24.8382 18.4177 24.7257 18.5302C24.607 18.6489 24.7132 18.7677 24.632 18.8489C24.5507 18.9302 24.5382 19.0427 24.5695 19.0927M25.882 15.1364C25.7695 15.2927 25.9445 15.3614 25.8382 15.4864C25.732 15.6177 25.882 15.6614 25.8007 15.8114C25.7195 15.9614 25.8632 15.9989 25.757 16.1489C25.6507 16.2989 25.8132 16.4177 25.7007 16.5677C25.582 16.7177 25.757 16.7989 25.6507 16.9489C25.5507 17.1052 25.7007 17.1864 25.607 17.2989C25.5132 17.4177 25.6757 17.5302 25.557 17.6739C25.4445 17.8114 25.607 17.9177 25.5132 18.0427C25.4195 18.1739 25.5507 18.3114 25.4695 18.4177C25.3882 18.5177 25.5257 18.6739 25.407 18.8114C25.2945 18.9489 25.432 19.0427 25.3632 19.1364C25.2945 19.2302 25.2382 19.3677 25.307 19.4052" stroke="black" stroke-width="0.01375" stroke-linecap="round" stroke-linejoin="round"/>
<path d="M26.2572 19.4301C26.526 19.6801 27.0447 19.5176 27.2072 19.4051C27.376 19.4613 27.826 19.2863 27.9447 19.0926C28.2697 19.1363 28.3822 18.6738 28.326 18.5551C28.2385 18.3801 28.3947 18.2676 28.2822 18.1488C28.126 17.9988 28.3697 17.8551 28.2197 17.7551C28.0697 17.6488 28.2572 17.4738 28.1072 17.3613C27.951 17.2426 28.1885 17.0801 28.026 16.9988C27.8635 16.9176 28.0447 16.7051 27.9072 16.6238C27.7697 16.5426 27.9885 16.3363 27.801 16.2426C27.6197 16.1488 27.7822 15.9863 27.6385 15.9176C27.4822 15.8363 27.626 15.6676 27.4822 15.6113C27.3197 15.5426 27.4385 15.3613 27.301 15.3113C27.1822 15.2676 27.2572 15.1551 27.1822 15.0551H26.2572" fill="#009E49"/>
<path d="M26.2572 19.4301C26.526 19.6801 27.0447 19.5176 27.2072 19.4051C27.376 19.4613 27.826 19.2863 27.9447 19.0926C28.2697 19.1363 28.3822 18.6738 28.326 18.5551C28.2385 18.3801 28.3947 18.2676 28.2822 18.1488C28.126 17.9988 28.3697 17.8551 28.2197 17.7551C28.0697 17.6488 28.2572 17.4738 28.1072 17.3613C27.951 17.2426 28.1885 17.0801 28.026 16.9988C27.8635 16.9176 28.0447 16.7051 27.9072 16.6238C27.7697 16.5426 27.9885 16.3363 27.801 16.2426C27.6197 16.1488 27.7822 15.9863 27.6385 15.9176C27.4822 15.8363 27.626 15.6676 27.4822 15.6113C27.3197 15.5426 27.4385 15.3613 27.301 15.3113C27.1822 15.2676 27.2572 15.1551 27.1822 15.0551H26.2572" stroke="black" stroke-width="0.01375" stroke-linecap="round" stroke-linejoin="round"/>
<path d="M26.8755 15.0927C27.0005 15.2177 26.8505 15.3114 26.9755 15.4614C27.1067 15.6177 26.988 15.6989 27.0942 15.8364C27.2005 15.9739 27.0442 16.0427 27.163 16.1989C27.2817 16.3489 27.138 16.4427 27.2692 16.5677C27.3942 16.6989 27.2442 16.8114 27.3755 16.9489C27.5005 17.0927 27.3505 17.1864 27.4755 17.3114C27.6067 17.4427 27.4567 17.5802 27.5817 17.7052C27.7067 17.8364 27.5567 17.9989 27.7005 18.1489C27.838 18.2989 27.6755 18.4177 27.788 18.5302C27.9067 18.6489 27.8005 18.7677 27.8817 18.8489C27.963 18.9302 27.9755 19.0427 27.9442 19.0927M26.6317 15.1364C26.7442 15.2927 26.5692 15.3614 26.6755 15.4864C26.7817 15.6177 26.6317 15.6614 26.713 15.8114C26.7942 15.9614 26.6505 15.9989 26.7567 16.1489C26.863 16.2989 26.7005 16.4177 26.813 16.5677C26.9317 16.7177 26.7567 16.7989 26.863 16.9489C26.963 17.1052 26.813 17.1864 26.9067 17.2989C27.0005 17.4177 26.838 17.5302 26.9567 17.6739C27.0692 17.8114 26.9067 17.9177 27.0005 18.0427C27.0942 18.1739 26.963 18.3114 27.0442 18.4177C27.1255 18.5177 26.988 18.6739 27.1067 18.8114C27.2192 18.9489 27.0817 19.0427 27.1505 19.1364C27.2192 19.2302 27.2755 19.3677 27.2067 19.4052" stroke="black" stroke-width="0.01375" stroke-linecap="round" stroke-linejoin="round"/>
<path d="M26.2539 19.4301V15.0551" stroke="#009E49" stroke-width="0.01375" stroke-linecap="round" stroke-linejoin="round"/>
<path d="M26.2533 15.2802C26.197 15.5239 26.3345 15.7364 26.2533 15.9427C26.172 16.1427 26.3095 16.2239 26.2658 16.3864C26.2158 16.5489 26.322 16.6677 26.2533 16.8427C26.1845 17.0177 26.347 17.1552 26.2533 17.3864C26.1595 17.6114 26.3158 17.6677 26.2533 17.8989C26.1845 18.1614 26.372 18.2989 26.2533 18.4864C26.1345 18.6739 26.3595 18.7177 26.2658 18.9302C26.172 19.1364 26.322 19.2177 26.2533 19.4302" stroke="black" stroke-width="0.01375" stroke-linecap="round" stroke-linejoin="round"/>
<path d="M26.3477 16.0675C26.3164 16.1362 26.4414 16.2987 26.3727 16.4237C26.2977 16.5425 26.4102 16.73 26.3352 16.88C26.2602 17.03 26.4539 17.2175 26.3789 17.3925C26.2977 17.5675 26.4164 17.7862 26.3789 17.9487C26.3477 18.1112 26.4602 18.4237 26.3789 18.5362C26.2977 18.655 26.4602 18.6862 26.3664 18.9737C26.2727 19.2612 26.2102 19.0175 26.2664 18.93C26.3852 18.7362 26.1352 18.6737 26.2539 18.4862C26.3727 18.2987 26.1852 18.1612 26.2539 17.8987C26.3164 17.6675 26.1602 17.6112 26.2539 17.3862C26.3477 17.155 26.1852 17.0175 26.2539 16.8425C26.3227 16.6675 26.2164 16.5487 26.2664 16.3862C26.3102 16.2237 26.1727 16.1425 26.2539 15.9425C26.3164 15.7425 26.3789 15.9987 26.3477 16.0675ZM25.8227 16.2675C25.7789 16.3425 25.8977 16.4862 25.7914 16.63C25.7164 16.73 25.8414 16.8487 25.7352 16.9925C25.6664 17.0925 25.8039 17.2175 25.7102 17.3612C25.6477 17.4425 25.7539 17.5987 25.6789 17.7175C25.6039 17.8425 25.7164 17.9425 25.5852 18.105C25.5102 18.1925 25.6414 18.4112 25.5602 18.48C25.4789 18.5487 25.5539 18.8175 25.4977 18.855C25.4477 18.8987 25.4977 19.0925 25.3602 19.1362C25.4289 19.0425 25.2914 18.9487 25.4039 18.8112C25.5227 18.6737 25.3852 18.5175 25.4664 18.4175C25.5477 18.3112 25.4164 18.1737 25.5102 18.0425C25.6039 17.9175 25.4414 17.8112 25.5539 17.6737C25.6727 17.53 25.5102 17.4175 25.6039 17.2987C25.6977 17.1862 25.5477 17.105 25.6477 16.9487C25.7539 16.7987 25.5789 16.7175 25.6977 16.5675C25.8102 16.4175 25.6477 16.2987 25.7539 16.1487C25.8602 15.9987 25.7164 15.9612 25.7977 15.8112C25.9477 15.8675 25.8727 16.1925 25.8227 16.2675ZM25.5102 15.8612C25.4477 15.9612 25.5352 16.08 25.4414 16.205C25.3477 16.3362 25.4414 16.4987 25.3477 16.605C25.2539 16.705 25.3727 16.905 25.2539 16.9862C25.1352 17.0675 25.2102 17.3112 25.1164 17.3925C25.0227 17.4737 25.1164 17.705 25.0102 17.8237C24.9039 17.9425 24.9539 18.1862 24.8914 18.2425C24.8352 18.2987 24.9727 18.4175 24.8727 18.4987C24.7664 18.58 24.7664 18.7425 24.6289 18.8487C24.7102 18.7675 24.6039 18.6487 24.7227 18.53C24.8352 18.4175 24.6727 18.2987 24.8102 18.1487C24.9539 17.9987 24.8039 17.8362 24.9289 17.705C25.0539 17.58 24.9039 17.4425 25.0352 17.3112C25.1602 17.1862 25.0102 17.0925 25.1352 16.9487C25.2664 16.8112 25.1164 16.6987 25.2414 16.5675C25.3727 16.4425 25.2289 16.3487 25.3477 16.1987C25.4664 16.0425 25.3102 15.9737 25.4164 15.8362C25.4664 15.7737 25.4664 15.7175 25.4664 15.6675C25.5414 15.4737 25.5414 15.8112 25.5102 15.8612Z" fill="#FCD116" stroke="black" stroke-width="0.01375" stroke-linecap="round" stroke-linejoin="round"/>
<path d="M25.3848 15.1988C25.3848 13.8863 25.566 13.4301 26.2535 13.4301C26.941 13.4301 27.1223 13.8863 27.1223 15.1988H25.3848Z" fill="#CE1126" stroke="black" stroke-width="0.01375" stroke-linecap="round" stroke-linejoin="round"/>
<path d="M25.3848 15.1988C25.3848 13.8863 25.566 13.4301 26.2535 13.4301C25.941 13.4301 25.7473 13.6738 25.6973 13.8363C25.641 13.9988 25.6723 13.9863 25.741 13.9238C25.8098 13.8613 25.7785 13.9988 25.716 14.0738C25.6598 14.1488 25.6035 14.3676 25.6848 14.2988C25.766 14.2238 25.8285 14.3051 25.741 14.4301C25.6535 14.5488 25.5785 14.8363 25.666 14.7363C25.7535 14.6363 25.7723 14.7988 25.716 14.8801C25.666 14.9613 25.6723 15.0363 25.716 14.9988C25.766 14.9613 25.7598 15.1301 25.716 15.1988H25.3848ZM26.5785 15.1738C26.5785 14.9801 26.5848 14.5238 26.4785 14.3738C26.4035 14.2551 26.4035 14.1301 26.491 14.2676C26.5785 14.4051 26.6223 14.3363 26.5598 14.1988C26.4848 14.0238 26.3848 13.8301 26.4098 13.7926C26.441 13.7488 26.4598 13.7676 26.5223 13.8613C26.5848 13.9551 26.5973 13.8176 26.5285 13.7238C26.4598 13.6363 26.466 13.6176 26.6098 13.6801C26.866 13.7863 26.991 14.0926 26.991 15.1238L26.5785 15.1738Z" fill="#000001" stroke="black" stroke-width="0.01375" stroke-linecap="round" stroke-linejoin="round"/>
<path d="M26.2536 15.3864C25.9786 15.3864 25.6786 15.3427 25.4786 15.2614C25.2411 15.1677 25.2286 15.0864 25.3099 14.9864C25.3724 14.9114 25.4974 14.9552 25.6224 15.0114C25.7411 15.0614 26.0786 15.0989 26.2536 15.0989C26.4286 15.0989 26.7661 15.0614 26.8849 15.0052C27.0099 14.9552 27.1349 14.9114 27.1974 14.9864C27.2786 15.0864 27.2661 15.1677 27.0286 15.2614C26.8286 15.3427 26.5286 15.3864 26.2536 15.3864Z" fill="#CE1126" stroke="black" stroke-width="0.01375" stroke-linecap="round" stroke-linejoin="round"/>
<path d="M0 0H16V12H0V0Z" fill="#012169"/>
<path d="M1.875 0L7.975 4.525L14.05 0H16V1.55L10 6.025L16 10.475V12H14L8 7.525L2.025 12H0V10.5L5.975 6.05L0 1.6V0H1.875Z" fill="white"/>
<path d="M10.6 7.025L16 11V12L9.225 7.025H10.6ZM6 7.525L6.15 8.4L1.35 12H0L6 7.525ZM16 0V0.075L9.775 4.775L9.825 3.675L14.75 0H16ZM0 0L5.975 4.4H4.475L0 1.05V0Z" fill="#C8102E"/>
<path d="M6.025 0V12H10.025V0H6.025ZM0 4V8H16V4H0Z" fill="white"/>
<path d="M0 4.825V7.225H16V4.825H0ZM6.825 0V12H9.225V0H6.825Z" fill="#C8102E"/>
</svg>
