<svg width="36" height="24" viewBox="0 0 36 24" fill="none" xmlns="http://www.w3.org/2000/svg">
<g clip-path="url(#clip0_11930_68387)">
<rect width="36" height="24" rx="2" fill="#002395"/>
<path d="M0 0H14.64V9.84H0V0Z" fill="white"/>
<path d="M0 0H4.8V9.6H0V0Z" fill="#002395"/>
<path d="M9.59961 -6.10352e-05H14.3996V9.59994H9.59961V-6.10352e-05Z" fill="#ED2939"/>
<path fill-rule="evenodd" clip-rule="evenodd" d="M23.0697 10.21L22.2997 8.97998H29.6197L28.8497 10.21H26.6497V10.96H28.3747L27.6397 12.13H26.6497V14.5L28.2997 11.92L30.5197 15.46H29.4397L29.2217 15.07H27.3804L25.9597 17.62L24.5389 15.07H22.6976L22.4797 15.46H21.3997L23.6197 11.92L25.2697 14.5V10.21H23.0697ZM23.167 14.23H24.0709L23.6197 13.42L23.167 14.23ZM27.8484 14.23H28.7523L28.2997 13.42L27.8484 14.23Z" fill="white"/>
<path d="M26.2414 19.33L25.9598 18.46L25.6782 19.33H24.7598L25.5031 19.8708L25.2218 20.74L25.9598 20.203L26.6978 20.74L26.4164 19.8708L27.1598 19.33H26.2414Z" fill="white"/>
<path d="M23.2598 16.4199L23.5414 17.2899H24.4598L23.7165 17.8307L23.9978 18.6999L23.2598 18.163L22.5218 18.6999L22.8032 17.8307L22.0598 17.2899H22.9782L23.2598 16.4199Z" fill="white"/>
<path d="M28.9413 17.2899L28.6597 16.4199L28.3781 17.2899H27.4597L28.2031 17.8307L27.9217 18.6999L28.6597 18.163L29.3977 18.6999L29.1164 17.8307L29.8597 17.2899H28.9413Z" fill="white"/>
<path d="M20.9793 10.3599L21.2609 11.2299H22.1793L21.436 11.7707L21.7173 12.6399L20.9793 12.103L20.2413 12.6399L20.5226 11.7707L19.7793 11.2299H20.6977L20.9793 10.3599Z" fill="white"/>
<path d="M31.2211 11.2299L30.9395 10.3599L30.6579 11.2299H29.7395L30.4828 11.7707L30.2015 12.6399L30.9395 12.103L31.6775 12.6399L31.3962 11.7707L32.1395 11.2299H31.2211Z" fill="white"/>
</g>
<defs>
<clipPath id="clip0_11930_68387">
<rect width="36" height="24" rx="2" fill="white"/>
</clipPath>
</defs>
</svg>
