<svg width="36" height="24" viewBox="0 0 36 24" fill="none" xmlns="http://www.w3.org/2000/svg">
<g clip-path="url(#clip0_11930_68383)">
<path fill-rule="evenodd" clip-rule="evenodd" d="M0 0H35.9813V24H0V0Z" fill="#FFE300"/>
<path fill-rule="evenodd" clip-rule="evenodd" d="M0 9.75471H35.9813V14.5781H0V9.75471ZM0 0.00939941H35.9813V4.83284H0V0.00939941Z" fill="#118600"/>
<path fill-rule="evenodd" clip-rule="evenodd" d="M0 0.0140381H14.3672V14.5734H0V0.0140381Z" fill="#D80000"/>
<path fill-rule="evenodd" clip-rule="evenodd" d="M6.29961 6.0188C6.29961 5.9813 7.18555 3.53442 7.18555 3.53442L7.98242 5.9813C7.98242 5.9813 10.673 6.06099 10.673 6.0188C10.673 5.97661 8.54961 7.62661 8.54961 7.62661C8.54961 7.62661 9.55273 10.4391 9.51055 10.3547C9.47305 10.275 7.18555 8.66724 7.18555 8.66724C7.18555 8.66724 4.85586 10.275 4.89805 10.275C4.93555 10.275 5.7793 7.62661 5.7793 7.62661L3.69336 6.06099L6.29961 6.0188Z" fill="white"/>
<path fill-rule="evenodd" clip-rule="evenodd" d="M0 19.1813H35.9813V24H0V19.1813Z" fill="#118600"/>
</g>
<defs>
<clipPath id="clip0_11930_68383">
<rect width="36" height="24" rx="2" fill="white"/>
</clipPath>
</defs>
</svg>
