<svg width="36" height="24" viewBox="0 0 36 24" fill="none" xmlns="http://www.w3.org/2000/svg">
<g clip-path="url(#clip0_11930_68402)">
<path d="M0 0H36V24H0V0Z" fill="#006600"/>
<path d="M0 0H36V17.145H0V0Z" fill="white"/>
<path d="M0 0H36V6.855H0V0Z" fill="#CC0000"/>
<path d="M17.9976 8.56629L18.5152 8.94235L18.3175 8.33388L18.8351 7.95783H18.1953L17.9976 7.34937L17.7999 7.95783H17.1602L17.6777 8.33388L17.48 8.94235L17.9976 8.56629Z" fill="#F8C300"/>
<path fill-rule="evenodd" clip-rule="evenodd" d="M17.0395 11.6799C17.0866 11.6 17.1583 11.5375 17.2438 11.5017C17.3294 11.4659 17.4242 11.4587 17.5142 11.4812C17.6042 11.5037 17.6845 11.5547 17.7431 11.6265C17.8017 11.6984 17.8355 11.7873 17.8395 11.8799V12.9162C17.8181 13.1594 17.7285 13.3917 17.5812 13.5865C17.4336 13.7815 17.234 13.931 17.0052 14.0177C16.7765 14.1044 16.528 14.1248 16.2882 14.0765C16.0484 14.0283 15.827 13.9134 15.6496 13.745C15.5744 13.937 15.4561 14.1092 15.304 14.2485C15.1518 14.3877 14.9698 14.4902 14.7719 14.5481C14.5739 14.606 14.3654 14.6179 14.1622 14.5826C13.9589 14.5474 13.7665 14.4661 13.5996 14.345C13.7246 15.595 15.5996 15.34 15.7396 14.125C16.3238 15.1586 17.6162 14.8608 17.9981 13.5999H18.0012C18.383 14.8608 19.6754 15.1586 20.2597 14.125C20.3997 15.34 22.2747 15.595 22.3997 14.345C22.2328 14.4661 22.0403 14.5474 21.8371 14.5826C21.6339 14.6179 21.4253 14.606 21.2274 14.5481C21.0295 14.4902 20.8474 14.3877 20.6953 14.2485C20.5431 14.1092 20.4249 13.937 20.3497 13.745C20.1722 13.9134 19.9509 14.0283 19.7111 14.0765C19.4713 14.1248 19.2228 14.1044 18.994 14.0177C18.7653 13.931 18.5657 13.7815 18.4181 13.5865C18.2705 13.3914 18.1809 13.1587 18.1597 12.915L18.1595 11.8849C18.1635 11.7923 18.1973 11.7034 18.2559 11.6315C18.3146 11.5597 18.3948 11.5087 18.4848 11.4862C18.5748 11.4637 18.6696 11.4709 18.7552 11.5067C18.8407 11.5425 18.9124 11.605 18.9595 11.6849C19.0091 11.5333 19.022 11.3721 18.9973 11.2144C18.9725 11.0568 18.9108 10.9073 18.8171 10.7782C18.7235 10.649 18.6006 10.5439 18.4584 10.4714C18.3163 10.3989 18.159 10.3611 17.9995 10.3611C17.84 10.3611 17.6827 10.3989 17.5406 10.4714C17.3984 10.5439 17.2755 10.649 17.1819 10.7782C17.0882 10.9073 17.0265 11.0568 17.0017 11.2144C16.977 11.3721 16.9899 11.5333 17.0395 11.6849V11.6799ZM17.2695 11.2349C17.4099 11.2058 17.5559 11.2216 17.6868 11.2799C17.8178 11.3382 17.9272 11.4361 17.9995 11.5599C18.0719 11.4361 18.1813 11.3382 18.3122 11.2799C18.4432 11.2216 18.5891 11.2058 18.7295 11.2349C18.7086 11.056 18.6226 10.891 18.4881 10.7713C18.3535 10.6516 18.1796 10.5854 17.9995 10.5854C17.8194 10.5854 17.6456 10.6516 17.511 10.7713C17.3764 10.891 17.2905 11.056 17.2695 11.2349Z" fill="#F8C300"/>
<path d="M16.5878 15.1338L16.5896 15.1299V15.1349L16.5878 15.1338Z" fill="#F8C300"/>
<path d="M16.1796 15.0849C16.4361 15.0523 16.5708 15.124 16.5878 15.1338C16.3222 15.6954 15.8036 15.7889 15.3496 15.3349C15.3496 15.3349 15.5296 15.2049 15.7296 15.1699C15.6896 15.0149 15.7646 14.7949 15.8746 14.6799C16.0202 14.7754 16.128 14.9186 16.1796 15.0849Z" fill="#F8C300"/>
<path d="M18.6369 15.0702L18.6394 15.0666L18.6385 15.0716L18.6369 15.0702Z" fill="#F8C300"/>
<path d="M18.2422 14.9553C18.5006 14.965 18.6217 15.0577 18.6369 15.0702C18.2832 15.5808 17.7562 15.5884 17.3825 15.0664C17.3825 15.0664 17.5813 14.9675 17.7844 14.9656C17.7702 14.8062 17.8801 14.6014 18.0075 14.5059C18.1355 14.6239 18.2185 14.7828 18.2422 14.9553Z" fill="#F8C300"/>
<path d="M20.6514 15.3343L20.6484 15.3374C20.6354 15.3227 20.5308 15.2115 20.2774 15.1602C20.2819 14.9862 20.2257 14.816 20.1184 14.6788C19.9773 14.7525 19.8357 14.9368 19.8239 15.0965C19.6233 15.0655 19.4111 15.1309 19.4111 15.1309C19.6955 15.7064 20.2168 15.7842 20.6484 15.3374L20.6498 15.339L20.6514 15.3343Z" fill="#F8C300"/>
<path d="M15.6019 9.21089L16.1195 9.58694L15.9218 8.97847L16.4394 8.60242H15.7996L15.6019 7.99396L15.4042 8.60242H14.7644L15.282 8.97847L15.0843 9.58694L15.6019 9.21089Z" fill="#F8C300"/>
<path d="M13.847 10.9663L14.3646 11.3423L14.1669 10.7338L14.6845 10.3578H14.0447L13.847 9.74933L13.6493 10.3578H13.0095L13.5271 10.7338L13.3294 11.3423L13.847 10.9663Z" fill="#F8C300"/>
<path d="M13.2025 13.3664L13.7201 13.7425L13.5224 13.134L14.04 12.7579H13.4002L13.2025 12.1495L13.0048 12.7579H12.365L12.8826 13.134L12.6849 13.7425L13.2025 13.3664Z" fill="#F8C300"/>
<path d="M20.3949 9.21083L19.8774 9.58688L20.0751 8.97841L19.5575 8.60236H20.1972L20.3949 7.9939L20.5926 8.60236H21.2324L20.7148 8.97841L20.9125 9.58688L20.3949 9.21083Z" fill="#F8C300"/>
<path d="M22.1508 10.9662L21.6332 11.3422L21.8309 10.7338L21.3133 10.3577H21.9531L22.1508 9.74927L22.3485 10.3577H22.9883L22.4707 10.7338L22.6684 11.3422L22.1508 10.9662Z" fill="#F8C300"/>
<path d="M22.7953 13.3663L22.2777 13.7424L22.4754 13.1339L21.9579 12.7579H22.5976L22.7953 12.1494L22.993 12.7579H23.6328L23.1152 13.1339L23.3129 13.7424L22.7953 13.3663Z" fill="#F8C300"/>
<path d="M14.7531 16.6535C16.8715 16.023 19.1278 16.023 21.2462 16.6535L21.4031 16.1264C19.1823 15.4654 16.817 15.4654 14.5962 16.1264L14.7531 16.6535Z" fill="#F8C300"/>
</g>
<defs>
<clipPath id="clip0_11930_68402">
<rect width="36" height="24" rx="2" fill="white"/>
</clipPath>
</defs>
</svg>
