<svg width="36" height="24" viewBox="0 0 36 24" fill="none" xmlns="http://www.w3.org/2000/svg">
<rect width="36" height="24" rx="2" fill="#00247D"/>
<path d="M7.40422 17.73C7.06922 17.725 10.5442 15.88 13.4492 13.51C17.2592 10.405 25.4642 5.44001 27.8792 4.63001C28.1292 4.54501 27.3642 5.06001 27.2642 5.22501C24.6892 8.27501 26.7442 14.025 29.9642 16.92C30.9342 17.66 30.8842 17.7 32.6792 17.77V17.94L7.40422 17.73ZM7.19422 18.065C7.19422 18.065 6.94922 18.24 6.94922 18.37C6.94922 18.515 7.22422 18.705 7.22422 18.705L32.1492 18.98L32.6092 18.675L31.9692 18.28L7.19422 18.065Z" fill="#FED100"/>
<path d="M7.33922 5.45497L7.13922 6.06497L7.65922 5.68997L8.17422 6.06497L7.97922 5.45497L8.49422 5.07997H7.85422L7.65922 4.46997L7.45922 5.07997H6.81922L7.33922 5.45497ZM11.2442 8.32497L11.6742 8.00997H11.1392L10.9742 7.50497L10.8092 8.00997H10.2792L10.7092 8.32497L10.5442 8.82997L10.9742 8.51497L11.4092 8.82997L11.2442 8.32497ZM3.98422 8.97497L3.78422 8.36497L3.58922 8.97497H2.94922L3.46422 9.34997L3.26922 9.95997L3.78422 9.58497L4.30422 9.95997L4.10422 9.34997L4.62422 8.97497H3.98422ZM7.88922 15.09L7.65922 14.38L7.42922 15.09H6.67922L7.28422 15.525L7.05422 16.24L7.65922 15.8L8.26422 16.24L8.02922 15.525L8.63422 15.09H7.88922Z" fill="white"/>
</svg>
