<svg width="36" height="24" viewBox="0 0 36 24" fill="none" xmlns="http://www.w3.org/2000/svg">
<rect width="36" height="24" rx="2" fill="#CB000F"/>
<mask id="mask0_11930_68408" style="mask-type:luminance" maskUnits="userSpaceOnUse" x="0" y="0" width="33" height="24">
<path d="M0 0H32.0016V24H0V0Z" fill="white"/>
</mask>
<g mask="url(#mask0_11930_68408)">
<path fill-rule="evenodd" clip-rule="evenodd" d="M0 0C0.15 0 24 12.0328 24 12.0328L0 24V0Z" fill="#F8C00C"/>
<path fill-rule="evenodd" clip-rule="evenodd" d="M0 0C0.0984375 0 15.9656 12.0328 15.9656 12.0328L0 24V0Z" fill="#000001"/>
<path fill-rule="evenodd" clip-rule="evenodd" d="M8.79805 13.9782L5.95273 13.3454L4.49961 15.8204L4.26523 13.022L1.41992 12.3985L3.99336 11.2313L3.83867 8.45166L5.72305 10.486L8.31992 9.3001L6.96523 11.8313L8.80273 13.9782H8.79805Z" fill="white"/>
</g>
</svg>
