<svg width="36" height="24" viewBox="0 0 36 24" fill="none" xmlns="http://www.w3.org/2000/svg">
<g clip-path="url(#clip0_11930_68411)">
<rect width="36" height="24" rx="2" fill="#00843D"/>
<path d="M17.8798 2.64989C18.2616 2.82884 18.6011 3.08663 18.876 3.40628C19.151 3.72594 19.3551 4.10021 19.4749 4.50445C19.5947 4.90869 19.6275 5.33372 19.5712 5.75156C19.5148 6.1694 19.3706 6.57056 19.148 6.92863C18.9254 7.2867 18.6295 7.59355 18.2797 7.82898C17.93 8.06441 17.5343 8.22308 17.1188 8.29452C16.7033 8.36597 16.2773 8.34859 15.869 8.24351C15.4607 8.13843 15.0793 7.94805 14.7498 7.68489C15.4043 7.96023 16.1355 7.99327 16.8121 7.77808C17.4887 7.56288 18.0665 7.11355 18.4417 6.51074C18.8168 5.90794 18.9648 5.19114 18.8591 4.48903C18.7534 3.78693 18.4009 3.1455 17.8648 2.67989L17.8798 2.64989ZM15.0498 4.84989L15.3698 3.80989L14.4848 4.45489H15.5798L14.6898 3.80989L15.0498 4.84989ZM15.0498 3.31989L15.3698 2.27989L14.4848 2.92489H15.5798L14.6898 2.26489L15.0498 3.31989ZM16.5598 4.09989L16.8798 3.05989L15.9898 3.70489H17.0898L16.1998 3.05989L16.5598 4.09989ZM13.5098 5.61489L13.8548 4.57489L12.9648 5.21489H14.0648L13.1748 4.57489L13.5098 5.61489ZM15.0248 6.38489L15.3648 5.34989L14.4798 5.98989H15.5748L14.6848 5.34989L15.0248 6.38489Z" fill="white"/>
<path d="M4.32935 -6.10352e-05H10.8093V23.9999H4.32935V-6.10352e-05Z" fill="#D22630"/>
<path d="M5.89531 0H5.68531L5.27031 0.38L5.12031 0.21H5.27031L5.23031 0.06H4.98531L4.47531 0.51V0.7H4.72531V0.55L4.83531 0.66L4.57031 0.89L4.69531 1L4.32031 1.34V1.59L4.94531 1.015L4.83531 0.885L5.08031 0.655L4.87031 0.45L5.00531 0.3L5.28531 0.56L5.89531 0ZM4.34531 0V0.435L4.47031 0.3V0.115H4.62031L4.76031 0H4.34531ZM5.47531 0H5.32531L5.34531 0.115L5.47531 0Z" fill="#383739"/>
<path d="M5.8752 0H5.6852L5.2852 0.38L5.1002 0.19H5.2702L5.2302 0.055H5.0052L4.5102 0.53V0.68H4.7002V0.49L4.8702 0.66L4.6052 0.89L4.7202 1L4.3402 1.38V1.57L4.9102 1L4.7952 0.89L5.0602 0.66L4.8352 0.455L5.0252 0.285L5.2852 0.55L5.8552 0H5.8752ZM4.3252 0V0.415L4.4352 0.285V0.095H4.6052L4.7202 0H4.3252ZM5.4552 0H5.3652V0.075L5.4552 0Z" fill="#FFC72C"/>
<path d="M4.32531 2.78003V3.02503L4.68531 3.36503L4.55031 3.47503L4.81531 3.72503L4.70031 3.81503V3.66503H4.47531V3.85503L4.98531 4.33003H5.23531L5.27031 4.14003H5.09531L5.24531 4.00503L5.66031 4.38503L5.24531 4.72503L5.09531 4.59003H5.24531L5.20531 4.40503H4.96031L4.47031 4.91503V5.10003H4.72031V4.91503L4.83031 5.02503L4.56531 5.25503L4.69531 5.38503L4.32031 5.72503V5.95503L4.94531 5.38503L4.83531 5.25503L5.08031 5.02503L4.87031 4.82003L5.00531 4.68503L5.28531 4.91503L5.91031 4.34503L5.28531 3.78003L5.00531 4.04503L4.87031 3.91003L5.08031 3.70503L4.83031 3.45503L4.94531 3.35003L4.34531 2.78003H4.32531ZM4.32531 3.91003V4.82003L4.45531 4.67003V4.48003H4.60531L4.74031 4.36503L4.60531 4.25003H4.45531V4.06503L4.32531 3.91003ZM5.36531 4.23503V4.48003L5.49531 4.36503L5.36531 4.23503Z" fill="#383739"/>
<path d="M4.3252 2.81494V3.00494L4.7002 3.36494L4.5902 3.47494L4.8552 3.72494L4.6852 3.85494V3.68494H4.4952V3.83494L4.9852 4.30994H5.2102L5.2502 4.17494H5.0602L5.2702 3.98494L5.7052 4.36494L5.2702 4.74494L5.0802 4.55494H5.2502L5.2102 4.43994H4.9852L4.4952 4.88994V5.04494H4.6852V4.85494L4.8552 5.02494L4.5902 5.25494L4.7002 5.38494L4.3252 5.74494V5.93494L4.8902 5.36494L4.7752 5.25494L5.0402 5.02494L4.8152 4.81994L5.0052 4.64994L5.2852 4.91494L5.8752 4.36494L5.2702 3.81494L4.9852 4.07994L4.8152 3.92994L5.0402 3.72494L4.7752 3.47494L4.9102 3.36494L4.3252 2.81494ZM4.3252 3.94994V4.77994L4.4352 4.66994V4.47994H4.6052L4.7202 4.36494L4.6052 4.26994H4.4352V4.07994L4.3252 3.94994ZM5.3802 4.26994V4.43994L5.4802 4.36494L5.3802 4.26994Z" fill="#FFC72C"/>
<path d="M4.32531 7.29492V7.55992L4.68531 7.89992L4.55031 8.01492L4.81531 8.23992L4.70031 8.35492V8.20492H4.47531V8.38992L4.98531 8.83992H5.23531L5.27031 8.68992H5.09531L5.24531 8.53992L5.66031 8.89992L5.24531 9.27992L5.09531 9.10992H5.24531L5.20531 8.93992H4.96031L4.45031 9.40992V9.59992H4.71531V9.44992L4.83031 9.54492L4.56531 9.78992L4.69531 9.89992L4.32031 10.2449V10.4899L4.94531 9.91992L4.83531 9.78992L5.08031 9.53992L4.87031 9.35492L5.00531 9.20492L5.28531 9.44992L5.91031 8.87992L5.28531 8.31492L5.00531 8.57992L4.87031 8.42992L5.08031 8.23992L4.83031 7.98992L4.94531 7.87992L4.34531 7.31492L4.32531 7.29492ZM4.32531 8.42992V9.31492L4.45531 9.18492V8.99492H4.60531L4.74031 8.87992L4.60531 8.74992H4.45531V8.57992L4.32531 8.42992ZM5.36531 8.74992V8.99992L5.49531 8.86492L5.36531 8.74992Z" fill="#383739"/>
<path d="M4.3252 7.31494V7.49994L4.7002 7.87994L4.5952 7.99994L4.8602 8.22494L4.6902 8.37494V8.18994H4.4952V8.37494L4.9852 8.80994H5.2102L5.2502 8.67994H5.0602L5.2702 8.48994L5.7052 8.86994L5.2702 9.26494L5.0802 9.07494H5.2502L5.2102 8.94494H4.9852L4.4952 9.41494V9.56494H4.6852V9.37994L4.8552 9.52994L4.5902 9.77494L4.7002 9.88994L4.3252 10.2649V10.4549L4.8902 9.88994L4.7752 9.77494L5.0402 9.52494L4.8152 9.33994L5.0052 9.14994L5.2852 9.44994L5.8752 8.88494L5.2702 8.35994L4.9852 8.61994L4.8152 8.44994L5.0402 8.26494L4.7752 8.01494L4.9102 7.90494L4.3252 7.31494ZM4.3252 8.44494V9.29494L4.4352 9.16494V8.97494H4.6052L4.7202 8.87994L4.6052 8.76994H4.4352V8.57994L4.3252 8.46494V8.44494ZM5.3802 8.78494V8.95494L5.4802 8.86494L5.3802 8.78494Z" fill="#FFC72C"/>
<path d="M4.32531 11.8099V12.0399L4.68531 12.3799L4.55031 12.4899L4.81531 12.7399L4.70031 12.8499V12.6999H4.47531V12.8899L4.98531 13.3399H5.23531L5.27031 13.1699H5.09531L5.24531 13.0399L5.66031 13.3999L5.24531 13.7549L5.09531 13.6049H5.24531L5.20531 13.4349H4.96031L4.45031 13.9099V14.0999H4.71531V13.9499L4.83031 14.0399L4.56531 14.2899L4.69531 14.3999L4.32031 14.7399V14.9899L4.94531 14.4149L4.83531 14.2799L5.08031 14.0349L4.87031 13.8449L5.00531 13.6949L5.28531 13.9599L5.91031 13.3949L5.28531 12.8249L5.00531 13.0749L4.87031 12.9399L5.08031 12.7499L4.83031 12.4849L4.94531 12.3749L4.34531 11.8049L4.32531 11.8099ZM4.32531 12.9449V13.8349L4.45531 13.6849V13.5099H4.60531L4.74531 13.3999L4.61031 13.2649H4.46031V13.0999L4.32531 12.9449ZM5.36531 13.2649V13.5149L5.49531 13.3799L5.36531 13.2649Z" fill="#383739"/>
<path d="M4.32531 11.8298V12.0198L4.70031 12.3948L4.59031 12.4948L4.85531 12.7348L4.68531 12.8848V12.6998H4.49531V12.8698L4.98531 13.3198H5.21031L5.25031 13.1898H5.06031L5.27031 12.9998L5.70531 13.3798L5.27031 13.7798L5.08031 13.5848H5.25031L5.21031 13.4548H4.98531L4.49531 13.9048V14.0798H4.68531V13.8898L4.85531 14.0398L4.59031 14.2898L4.69531 14.3998L4.32031 14.7798V14.9648L4.89031 14.3998L4.77531 14.2848L5.04031 14.0398L4.81531 13.8498L5.00531 13.6648L5.28531 13.9448L5.87531 13.3798L5.27031 12.8498L4.98531 13.1148L4.81531 12.9448L5.04031 12.7548L4.77531 12.4898L4.91031 12.3798L4.32531 11.8298ZM4.32531 12.9648V13.8148L4.43531 13.6798V13.4998H4.60531L4.72031 13.3998L4.60531 13.2898H4.43531V13.0998L4.32531 12.9898V12.9648ZM5.38031 13.3048V13.4748L5.48031 13.3748L5.38031 13.3048Z" fill="#FFC72C"/>
<path d="M4.32531 16.3301V16.5551L4.68531 16.8951L4.55031 17.0101L4.81531 17.2551L4.70031 17.3501V17.2001H4.47531V17.3851L4.98531 17.8601H5.23531L5.27031 17.6901H5.09531L5.24531 17.5401L5.66031 17.9151L5.24531 18.2751L5.09531 18.1251H5.24531L5.20531 17.9551H4.96031L4.45031 18.4251V18.6151H4.71531V18.4451L4.83031 18.5551L4.56531 18.8051L4.69531 18.9151L4.32031 19.2551V19.4851L4.94531 18.9151L4.83531 18.8051L5.08031 18.5551L4.87031 18.3501L5.00531 18.2151L5.28531 18.4801L5.91031 17.9151L5.28531 17.3501L5.00531 17.5951L4.87031 17.4601L5.08031 17.2551L4.83031 17.0051L4.94531 16.9001L4.32531 16.3301ZM4.32531 17.4601V18.3501L4.45531 18.2001V18.0301H4.60531L4.74031 17.8951L4.60531 17.7851H4.45531V17.5951L4.32531 17.4601ZM5.36531 17.7851V18.0101L5.49531 17.8951L5.36531 17.7851Z" fill="#383739"/>
<path d="M4.3252 16.3501V16.5351L4.6952 16.9001L4.5852 17.0151L4.8502 17.2601L4.6802 17.4101V17.2201H4.4952V17.3901L4.9852 17.8401H5.2102L5.2502 17.7101H5.0602L5.2702 17.5251L5.7052 17.9001L5.2702 18.3001L5.0802 18.1101H5.2502L5.2102 17.9751H4.9852L4.4952 18.4301V18.6001H4.6852V18.4101L4.8552 18.5601L4.5902 18.8101L4.7002 18.9201L4.3252 19.3001V19.4701L4.8902 18.9001L4.7752 18.8001L5.0402 18.5551L4.8152 18.3501L5.0052 18.1801L5.2852 18.4451L5.8752 17.8951L5.2702 17.3451L4.9852 17.6151L4.8152 17.4651L5.0402 17.2551L4.7752 17.0051L4.9102 16.8951L4.3252 16.3501ZM4.3252 17.4801V18.3301L4.4352 18.2151V18.0301H4.6052L4.7202 17.9151L4.6052 17.8201H4.4352V17.6301L4.3252 17.5001V17.4801ZM5.3802 17.8001V17.9901L5.4802 17.8951L5.3802 17.8001Z" fill="#FFC72C"/>
<path d="M9.2207 0H9.4457L9.8257 0.38L10.0157 0.19H9.8657L9.9007 0.04H10.1457L10.6557 0.49V0.68H10.3957V0.53L10.2807 0.645L10.5457 0.87L10.4157 0.985L10.7957 1.325V1.57L10.1657 1L10.2757 0.87L10.0307 0.645L10.2407 0.435L10.1057 0.285L9.8257 0.565L9.2207 0ZM10.8057 0V0.435L10.6557 0.3V0.115H10.5057L10.3707 0H10.8057ZM9.6157 0H9.7657L9.7507 0.115L9.6157 0Z" fill="#383739"/>
<path d="M9.25512 0H9.40512L9.84512 0.38L10.0301 0.19H9.86012L9.90012 0.055H10.1251L10.6201 0.53V0.68H10.4301V0.49L10.2801 0.66L10.5251 0.89L10.4101 1.02L10.7901 1.38V1.57L10.2201 1L10.3351 0.89L10.0701 0.66L10.2951 0.455L10.1051 0.285L9.86012 0.565L9.24512 0H9.25512ZM10.8051 0V0.415L10.6751 0.285V0.095H10.5051L10.4051 0H10.8051ZM9.63512 0H9.75012V0.075L9.63512 0Z" fill="#FFC72C"/>
<path d="M10.8053 2.78003V3.02503L10.4303 3.36503L10.5603 3.47503L10.2953 3.72503L10.4103 3.81503V3.66503H10.6353V3.85503L10.1253 4.33003H9.88031L9.84531 4.14003H9.99531L9.84531 4.00503L9.44531 4.38503L9.82531 4.72503L9.99531 4.59003H9.84531L9.88031 4.40503H10.1303L10.6353 4.89503V5.08503H10.3953V4.91503L10.2803 5.02503L10.5453 5.25503L10.4153 5.38503L10.7953 5.72503V5.95503L10.1703 5.38503L10.2803 5.25503L10.0353 5.02503L10.2453 4.82003L10.1103 4.68503L9.83031 4.91503L9.19531 4.34503L9.82031 3.78003L10.1003 4.04503L10.2353 3.91003L10.0253 3.70503L10.2753 3.45503L10.1603 3.34503L10.7853 2.78003H10.8053ZM10.8053 3.91003V4.82003L10.6553 4.67003V4.48003H10.5053L10.3703 4.36503L10.5053 4.25003H10.6553V4.06503L10.8053 3.91003ZM9.75031 4.23503L9.76531 4.36503L9.75031 4.48003L9.61531 4.36503L9.75031 4.23503Z" fill="#383739"/>
<path d="M10.8058 2.81494V3.00494L10.3908 3.34494L10.5058 3.45994L10.2558 3.70494L10.4058 3.83494V3.66494H10.6008V3.81494L10.1058 4.28994H9.88082L9.84582 4.15494H10.0308L9.82582 3.96994L9.39082 4.34494L9.82582 4.72494L10.0158 4.53494H9.84582L9.88082 4.41994H10.1058L10.6008 4.87494V5.02494H10.4108V4.83994L10.2608 5.00994L10.5058 5.23494L10.3908 5.36494L10.7708 5.72494V5.91494L10.1958 5.34994L10.3108 5.23494L10.0458 5.00994L10.2708 4.79994L10.0858 4.62994L9.82082 4.89494L9.21582 4.34494L9.81582 3.79494L10.1008 4.06494L10.2708 3.91494L10.0458 3.70494L10.3108 3.45494L10.1808 3.34494L10.8058 2.81494ZM10.8058 3.94994V4.77994L10.6758 4.66994V4.47994H10.5058L10.4058 4.36494L10.5058 4.26994H10.6758V4.07994L10.8058 3.94994ZM9.73082 4.26994L9.75082 4.36994V4.43994L9.63582 4.36494L9.73082 4.26994Z" fill="#FFC72C"/>
<path d="M10.8052 7.29492V7.55992L10.4302 7.89992L10.5602 8.01492L10.2952 8.23992L10.4102 8.35492V8.20492H10.6352V8.38992L10.1252 8.83992H9.88019L9.8252 8.68992H9.9752L9.8252 8.53992L9.4452 8.87992L9.8252 9.25992L9.9952 9.08992H9.84519L9.88019 8.91992H10.1302L10.6352 9.38992V9.57992H10.3952V9.42992L10.2802 9.52492L10.5452 9.76992L10.4152 9.88492L10.7952 10.2249V10.4699L10.1652 9.89992L10.2752 9.76992L10.0302 9.51992L10.2402 9.33492L10.1052 9.18492L9.8252 9.44992L9.2002 8.87992L9.8252 8.31492L10.1052 8.57992L10.2402 8.42992L10.0302 8.23992L10.2802 7.98992L10.1652 7.87992L10.7902 7.31492L10.8052 7.29492ZM10.8052 8.42992V9.31492L10.6552 9.18492V8.99492H10.5052L10.3702 8.87992L10.5052 8.74992H10.6552V8.57992L10.8052 8.42992ZM9.7502 8.74992L9.76519 8.86492L9.7502 8.99492L9.61519 8.86492L9.7502 8.74992Z" fill="#383739"/>
<path d="M10.8058 7.31494V7.49994L10.4058 7.87994L10.5258 7.99494L10.2758 8.21994L10.4258 8.36994V8.18494H10.6208V8.36994L10.1258 8.80494H9.90082L9.86082 8.67494H10.0508L9.82582 8.50494L9.39082 8.87994L9.82582 9.27994L10.0158 9.08994H9.84582L9.88082 8.95494H10.1058L10.6008 9.42994V9.57994H10.4108V9.38994L10.2608 9.53994L10.5058 9.78994L10.3908 9.89994L10.7708 10.2799V10.4699L10.1958 9.89994L10.3108 9.78994L10.0458 9.53994L10.2708 9.35494L10.0858 9.16494L9.82082 9.44994L9.21582 8.87994L9.81582 8.35494L10.1008 8.61494L10.2708 8.44494L10.0458 8.25994L10.3108 8.00994L10.1808 7.89994L10.8058 7.31494ZM10.8058 8.44494V9.29494L10.6758 9.16494V8.97494H10.5058L10.4058 8.87994L10.5058 8.76994H10.6758V8.57994L10.8058 8.46494V8.44494ZM9.73082 8.78494L9.75082 8.86494V8.95494L9.63582 8.86494L9.73082 8.78494Z" fill="#FFC72C"/>
<path d="M10.8053 11.8101V12.0401L10.4303 12.3801L10.5603 12.4901L10.2953 12.7401L10.4103 12.8501V12.7001H10.6353V12.8901L10.1253 13.3401H9.88031L9.84531 13.1701H9.99531L9.84531 13.0401L9.44531 13.4001L9.82531 13.7551L9.99531 13.6051H9.84531L9.88031 13.4351H10.1303L10.6353 13.9101V14.1001H10.3953V13.9501L10.2803 14.0401L10.5453 14.2901L10.4153 14.4001L10.7953 14.7401V14.9901L10.1703 14.4201L10.2803 14.2851L10.0353 14.0401L10.2453 13.8501L10.1103 13.7001L9.83031 13.9651L9.19531 13.4001L9.82031 12.8301L10.1003 13.0801L10.2353 12.9451L10.0253 12.7551L10.2753 12.4901L10.1603 12.3801L10.7853 11.8101H10.8053ZM10.8053 12.9451V13.8351L10.6553 13.6851V13.5101H10.5053L10.3703 13.4001L10.5053 13.2651H10.6553V13.1001L10.8053 12.9451ZM9.75031 13.2651L9.76531 13.3801L9.75031 13.5101L9.61531 13.3801L9.75031 13.2651Z" fill="#383739"/>
<path d="M10.8052 11.8301V12.0201L10.4052 12.3951L10.5252 12.4951L10.2752 12.7351L10.4252 12.8851V12.7001H10.6202V12.8701L10.1252 13.3201H9.90023L9.86023 13.1901H10.0502L9.84523 13.0001L9.41023 13.3801L9.84523 13.7801L10.0302 13.5851H9.86023L9.90023 13.4551H10.1252L10.6202 13.9051V14.0801H10.4302V13.8901L10.2802 14.0401L10.5252 14.2901L10.4102 14.4001L10.7902 14.7801V14.9651L10.2202 14.4001L10.3352 14.2851L10.0702 14.0401L10.2952 13.8501L10.1052 13.6651L9.84523 13.9451L9.24023 13.3801L9.84023 12.8501L10.1252 13.1151L10.2952 12.9451L10.0702 12.7551L10.3352 12.4901L10.2002 12.3801L10.8052 11.8301ZM10.8052 12.9651V13.8151L10.6752 13.6801V13.5001H10.5052L10.4052 13.4001L10.5052 13.2901H10.6752V13.1001L10.8052 12.9901V12.9651ZM9.73023 13.3051L9.75024 13.3801V13.4751L9.63523 13.3751L9.73023 13.3051Z" fill="#FFC72C"/>
<path d="M10.8051 16.3301V16.5551L10.4301 16.8951L10.5601 17.0101L10.2951 17.2551L10.4101 17.3501V17.2001H10.6351V17.3851L10.1251 17.8601H9.88008L9.84508 17.6901H9.99508L9.84508 17.5401L9.44508 17.9151L9.82508 18.2751L9.99508 18.1251H9.84508L9.88008 17.9551H10.1301L10.6351 18.4251V18.6151H10.3951V18.4451L10.2801 18.5551L10.5451 18.8051L10.4151 18.9151L10.7951 19.2551V19.4851L10.1701 18.9151L10.2801 18.8051L10.0351 18.5551L10.2451 18.3501L10.1101 18.2151L9.83008 18.4801L9.20508 17.9151L9.83008 17.3501L10.1101 17.5951L10.2451 17.4601L10.0351 17.2551L10.2851 17.0051L10.1701 16.8951L10.8051 16.3301ZM10.8051 17.4601V18.3501L10.6551 18.2001V18.0301H10.5051L10.3701 17.8951L10.5051 17.7851H10.6551V17.5951L10.8051 17.4601ZM9.75008 17.7851L9.76508 17.8951L9.75008 18.0101L9.61508 17.8951L9.75008 17.7851Z" fill="#383739"/>
<path d="M10.8058 16.3501V16.5351L10.3958 16.9001L10.5108 17.0151L10.2608 17.2601L10.4108 17.4101V17.2201H10.6058V17.3901L10.1108 17.8401H9.88582L9.85082 17.7101H10.0358L9.83082 17.5251L9.39582 17.9001L9.83082 18.3001L10.0208 18.1101H9.84582L9.88082 17.9751H10.1058L10.6008 18.4301V18.6001H10.4108V18.4101L10.2608 18.5601L10.5058 18.8101L10.3908 18.9201L10.7708 19.3001V19.4701L10.1958 18.9001L10.3108 18.8001L10.0458 18.5551L10.2708 18.3501L10.0858 18.1801L9.82082 18.4451L9.21582 17.8951L9.81582 17.3451L10.1008 17.6151L10.2708 17.4651L10.0458 17.2551L10.3108 17.0051L10.1808 16.8951L10.8058 16.3501ZM10.8058 17.4801V18.3301L10.6758 18.2151V18.0301H10.5058L10.4058 17.9151L10.5058 17.8201H10.6758V17.6301L10.8058 17.5001V17.4801ZM9.73082 17.8001L9.75082 17.9001V17.9901L9.63582 17.8951L9.73082 17.8001Z" fill="#FFC72C"/>
<path d="M4.83945 21.2399C4.87445 21.3749 4.98945 21.4699 5.02945 21.6199C5.06445 21.4699 5.10445 21.3349 5.07945 21.1849C5.04445 21.0699 4.94945 20.9949 4.94945 20.8649C4.83945 20.9549 4.81945 21.0899 4.83945 21.2399ZM4.81945 21.8099C4.9131 21.9329 5.03717 22.0294 5.17945 22.0899C5.13945 21.9799 5.17945 21.8999 5.25445 21.8099C5.30945 21.7099 5.34945 21.6199 5.28945 21.4849C5.26719 21.5454 5.23692 21.6025 5.19945 21.6549C5.13588 21.73 5.09588 21.8222 5.08445 21.9199C5.00945 21.8649 4.98945 21.7899 4.94945 21.7149C4.89063 21.603 4.80022 21.5109 4.68945 21.4499C4.72445 21.5799 4.73945 21.6949 4.81945 21.8099ZM5.32945 22.1849L5.28945 22.3749L5.08445 22.2249C4.98945 22.1249 4.87445 22.0899 4.79945 21.9749C4.8006 22.0456 4.81841 22.1151 4.85142 22.1776C4.88443 22.2402 4.93172 22.2941 4.98945 22.3349L5.38945 22.5849C5.36945 22.4499 5.42445 22.3349 5.45945 22.2049C5.47156 22.1526 5.47107 22.0981 5.45803 22.0459C5.445 21.9938 5.41978 21.9454 5.38445 21.9049C5.38445 21.9949 5.34945 22.0899 5.32945 22.1649V22.1849ZM5.59445 22.6199L5.74445 22.8849C5.61445 22.8449 5.49945 22.7699 5.36945 22.6949C5.23445 22.6199 5.08445 22.5849 4.94945 22.4699C4.98004 22.5778 5.03801 22.676 5.11774 22.7548C5.19747 22.8337 5.29624 22.8905 5.40445 22.9199C5.57445 22.9599 5.70445 22.9399 5.89445 23.0199C5.87068 22.8874 5.82684 22.7593 5.76445 22.6399L5.64945 22.3749C5.62143 22.4094 5.60186 22.45 5.59231 22.4934C5.58276 22.5368 5.58349 22.5819 5.59445 22.6249V22.6199ZM6.08445 22.9799C6.13256 23.0566 6.1975 23.1216 6.27445 23.1699C6.08445 23.1699 5.93445 23.0699 5.74445 23.0549C5.63445 23.0549 5.51945 23.0949 5.40445 23.0749C5.55445 23.1699 5.68945 23.2649 5.85445 23.2649C6.06445 23.2999 6.27445 23.2649 6.51945 23.2649C6.41777 23.1892 6.33411 23.0918 6.27445 22.9799C6.17945 22.8299 6.08445 22.7299 5.91445 22.7149L6.10445 22.9799H6.08445ZM6.74945 23.2799C6.42445 23.3399 6.10445 23.4149 5.76445 23.4149C6.12006 23.5631 6.51876 23.5703 6.87945 23.4349C7.06945 23.3749 7.23945 23.3199 7.38945 23.3349C7.61445 23.3349 7.87945 23.4499 8.18445 23.7549L8.29945 23.6599C8.08713 23.4827 7.8371 23.3563 7.56846 23.2904C7.29982 23.2246 7.01969 23.221 6.74945 23.2799Z" fill="#FFC72C"/>
<path d="M5.13938 2.81491L4.60938 2.49991V1.73991L5.13938 1.41491V0.999912L5.61438 0.719912H6.01438L6.76438 0.284912H8.35438L9.10938 0.719912H9.48938L10.0194 0.999912V1.41491L10.5294 1.73991V2.48991L10.0194 2.81491V3.21491L9.52438 3.51491H9.12438L8.37438 3.92991H6.78437L6.02938 3.51491H5.64938L5.11938 3.21491L5.13938 2.81491Z" fill="#383739"/>
<path d="M6.76391 0.300049L6.01391 0.735049H5.63391L5.13891 1.02005V1.42005L4.62891 1.74005V2.49005L5.13891 2.79505V3.21505L5.63391 3.49505H6.00891L6.76391 3.91005H8.35391L9.10891 3.49505H9.48891L9.97891 3.21505V2.79505L10.4889 2.49505V1.74005L9.97891 1.41505V1.02005L9.48891 0.735049H9.10891L8.35391 0.300049H6.76391ZM6.80391 0.470049H8.31391L9.07391 0.890049H9.44891L9.82891 1.09505V1.51005L10.3389 1.83505V2.40005L9.80891 2.72005V3.12005L9.44891 3.34505H9.07391L8.31391 3.76005H6.80391L6.04891 3.35005H5.66891L5.28891 3.12505V2.72505L4.77891 2.40005V1.83505L5.30891 1.51005V1.10005L5.68891 0.895049H6.06391L6.80391 0.470049Z" fill="#00843D"/>
<path d="M7.55956 2.11497V0.469971H6.80456L6.06456 0.904971H5.68956L5.30956 1.09497V1.50997L4.79956 1.83497V2.09997H7.55956V3.73997H8.31456L9.07456 3.32497H9.44956L9.78956 3.11997V2.69997L10.3196 2.37997V2.11497H7.55956Z" fill="#FFC72C"/>
<path d="M4.79956 2.11497V2.37997L5.32956 2.69997V3.11997L5.66956 3.30497H6.06956L6.81956 3.73997H7.55956V2.09997H10.3196V1.83497L9.78956 1.50997V1.13497L9.44956 0.899966H9.07456L8.31456 0.464966H7.56456V2.11497H4.79956Z" fill="white"/>
<path d="M5.93281 1.06005L5.80281 0.925049L5.68781 1.00005L5.81781 1.13505L5.63281 1.23005H6.00781L6.30781 1.53005L6.40781 1.41505L6.10281 1.13505V0.945049L5.93281 1.06005Z" fill="#383739"/>
<path d="M6.53777 0.999893L6.40777 0.889893L6.29277 0.964893L6.42277 1.07489L6.23277 1.17489H6.61277L6.91277 1.47489L7.01277 1.35989L6.72777 1.07489V0.889893L6.53777 0.999893ZM5.89277 1.37989L5.76277 1.26489L5.63277 1.36489L5.76277 1.47489L5.59277 1.56989H5.97277L6.27277 1.86989L6.36777 1.75489L6.06777 1.47489V1.28489L5.89277 1.37989Z" fill="#383739"/>
<path d="M7.55805 0.469971H7.23805L7.06805 0.619971H6.72805L6.49805 0.754971L6.55805 0.889971L6.76305 0.774971H6.86305L7.19805 1.15497L7.55805 0.944971V0.469971Z" fill="#383739"/>
<path d="M5.79801 0.945029L5.91301 1.06003L5.81801 1.11503L5.70801 1.02003L5.79801 0.945029ZM6.10301 0.985029V1.13503L6.38801 1.41503L6.31301 1.49503L6.01301 1.21003H5.70801L6.08301 0.960029L6.10301 0.985029ZM6.40301 0.905029L6.51801 1.00503L6.42301 1.07503L6.31301 0.965029L6.40301 0.905029ZM6.70801 0.905029V1.10003L6.99301 1.36503L6.91801 1.46003L6.61801 1.14003H6.31301L6.68801 0.910029L6.70801 0.905029Z" fill="#D22630"/>
<path d="M5.76297 1.29997L5.87797 1.39997L5.77797 1.45497L5.66797 1.35997L5.76297 1.29997ZM6.04797 1.29997V1.49997L6.34797 1.75997L6.27297 1.83997L5.97297 1.55497H5.67297L6.04797 1.29997ZM7.55797 0.469971H7.23797L7.06797 0.659971H6.74797L6.51797 0.759971L6.55797 0.869971L6.74797 0.749971H6.87797L7.17797 1.12997L7.55797 0.939971V0.469971Z" fill="#D22630"/>
<path d="M5.93281 3.17495L5.80281 3.28995L5.68781 3.21495L5.81781 3.09995L5.63281 2.98495H6.00781L6.30781 2.69995L6.40781 2.81495L6.09781 3.09995V3.28995L5.93281 3.17495Z" fill="#383739"/>
<path d="M6.53777 3.21486L6.40777 3.34486L6.29277 3.26986L6.42277 3.15486L6.23277 3.04486H6.61277L6.91277 2.75986L7.01277 2.85486L6.72777 3.13486V3.32486L6.53777 3.21486ZM5.89277 2.83486L5.76277 2.94986L5.63277 2.86986L5.76277 2.75986L5.59277 2.64486H5.97277L6.27277 2.35986L6.36777 2.45986L6.06777 2.73986V2.92986L5.89277 2.83486Z" fill="#383739"/>
<path d="M7.55805 3.76006H7.23805L7.06805 3.59006H6.72805L6.49805 3.47506L6.55805 3.32506L6.76305 3.44006H6.86305L7.19805 3.06006L7.57805 3.29006L7.55805 3.76006Z" fill="#383739"/>
<path d="M5.79801 3.26997L5.91301 3.15497L5.81801 3.09997L5.70801 3.21497L5.79801 3.26997ZM6.10301 3.24997V3.07997L6.38801 2.79497L6.31301 2.71997L6.01301 3.00497H5.70801L6.08301 3.25497L6.10301 3.24997ZM6.40301 3.32497L6.51801 3.21497L6.42301 3.15497L6.31301 3.26997L6.40301 3.32497ZM6.70801 3.30497V3.11997L6.99301 2.85497L6.91801 2.77997L6.61801 3.05997H6.31301L6.68801 3.30997L6.70801 3.30497Z" fill="#D22630"/>
<path d="M5.76297 2.92988L5.87797 2.81488L5.77797 2.75988L5.66797 2.86988L5.76297 2.92988ZM6.04797 2.90988V2.73988L6.34797 2.45488L6.27297 2.37988L5.97297 2.66488H5.67297L6.04797 2.90988ZM7.55797 3.73988H7.23797L7.06797 3.56988H6.74797L6.51797 3.45988L6.55797 3.35988L6.74797 3.45988H6.87797L7.19797 3.07988L7.55797 3.28988V3.73988Z" fill="#D22630"/>
<path d="M5.72297 1.58491L5.57297 1.53491L5.36797 1.66491V1.69991L5.04297 2.11491L5.36797 2.51491V2.54991L5.55297 2.69991L5.72297 2.64991L5.63297 2.56991V2.45491L5.66797 2.41991H5.83797V1.81491H5.64797L5.63297 1.77491V1.64991L5.72297 1.58491Z" fill="#383739"/>
<path d="M5.38348 1.68005L5.57348 1.55005L5.68848 1.58505L5.61348 1.64505V1.77505L5.64848 1.83505H5.81848V2.40005H5.64848L5.61348 2.45505V2.59005L5.68848 2.62505L5.57348 2.68505L5.38348 2.55005V2.51505L5.06348 2.11505L5.38348 1.70005V1.68005Z" fill="#D22630"/>
<path d="M9.18228 1.06005L9.31728 0.925049L9.42728 1.00005L9.31728 1.13505L9.46728 1.23005H9.10728L8.80728 1.53005L8.70728 1.41505L9.01228 1.13505V0.945049L9.18228 1.06005Z" fill="#383739"/>
<path d="M8.57692 0.999893L8.71192 0.889893L8.82192 0.964893L8.71192 1.07489L8.86192 1.17489H8.49692L8.19692 1.47489L8.09692 1.35989L8.40192 1.07489V0.889893L8.57692 0.999893ZM9.22192 1.37989L9.35192 1.26489L9.48692 1.36489L9.35192 1.47489L9.52192 1.56989H9.14692L8.86192 1.88989L8.76692 1.77489L9.06692 1.49489V1.29989L9.22192 1.37989Z" fill="#383739"/>
<path d="M7.55688 0.469971H7.87689L8.06688 0.619971H8.38689L8.63689 0.754971L8.57689 0.889971L8.35189 0.774971H8.25688L7.91688 1.15497L7.55688 0.944971V0.469971Z" fill="#383739"/>
<path d="M9.3172 0.945029L9.2022 1.06003L9.2972 1.11503L9.4122 1.02003L9.3172 0.945029ZM9.0322 0.985029V1.13503L8.7322 1.41503L8.8072 1.49503L9.1072 1.21003H9.4072L9.0322 0.960029V0.985029ZM8.6922 0.905029L8.5772 1.00503L8.6772 1.07503L8.7872 0.965029L8.6922 0.905029ZM8.4072 0.905029V1.10003L8.1272 1.36503L8.2022 1.46003L8.5022 1.14003H8.8022L8.4272 0.910029L8.4072 0.905029Z" fill="#D22630"/>
<path d="M9.35189 1.3001L9.24188 1.4001L9.33188 1.4551L9.44688 1.3601L9.35189 1.3001ZM9.07188 1.3001V1.5001L8.76688 1.7601L8.84188 1.8401L9.14188 1.5551H9.44688L9.07188 1.3001ZM7.55688 0.475098H7.87689L8.04688 0.665098H8.37188L8.59688 0.765098L8.55688 0.875098L8.37188 0.760098H8.25688L7.91688 1.1401L7.55688 0.950098V0.475098Z" fill="#D22630"/>
<path d="M9.18228 3.17495L9.31728 3.28995L9.42728 3.21495L9.31728 3.09995L9.46728 2.98495H9.10728L8.80728 2.69995L8.70728 2.81495L9.01228 3.09995V3.28995L9.18228 3.17495Z" fill="#383739"/>
<path d="M8.57692 3.21486L8.71192 3.34486L8.82192 3.26986L8.71192 3.15486L8.86192 3.04486H8.49692L8.19692 2.75986L8.09692 2.85486L8.40192 3.13486V3.32486L8.57692 3.21486ZM9.22192 2.83486L9.34692 2.94986L9.48192 2.86986L9.34692 2.75986L9.51692 2.64486H9.14692L8.84692 2.35986L8.74692 2.45986L9.04692 2.73986V2.92986L9.22192 2.83486Z" fill="#383739"/>
<path d="M7.55688 3.76006H7.87689L8.06688 3.59006H8.38689L8.63689 3.47506L8.57689 3.32506L8.35189 3.44006H8.25688L7.91688 3.06006L7.55688 3.29006V3.76006Z" fill="#383739"/>
<path d="M9.3172 3.26997L9.1972 3.14997L9.2972 3.09997L9.4122 3.21497L9.3172 3.26997ZM9.0322 3.24997V3.07997L8.7322 2.79497L8.8072 2.71997L9.1072 3.00497H9.4072L9.0322 3.24997ZM8.7122 3.32497L8.5972 3.21497L8.6922 3.15497L8.8072 3.26997L8.7122 3.32497ZM8.4272 3.30497V3.11997L8.1272 2.86997L8.1972 2.79997L8.4972 3.08497H8.7972L8.4222 3.33497L8.4272 3.30497Z" fill="#D22630"/>
<path d="M9.35189 2.92988L9.24188 2.81488L9.33188 2.75988L9.44688 2.86988L9.35189 2.92988ZM9.07188 2.90988V2.73988L8.76688 2.45488L8.84188 2.37988L9.14188 2.66488H9.44688L9.07188 2.90988ZM7.55688 3.73988H7.87689L8.04688 3.56988H8.37188L8.59688 3.45988L8.55688 3.35988L8.37188 3.45988H8.25688L7.91688 3.07988L7.55688 3.28988V3.73988Z" fill="#D22630"/>
<path d="M9.39259 1.58491L9.54259 1.53491L9.75259 1.66491V1.69991L10.0726 2.11491L9.75259 2.51491V2.54991L9.56259 2.69991L9.39259 2.64991L9.48759 2.56991V2.45491L9.44759 2.41991H9.27759V1.81491H9.46759L9.48759 1.77491V1.64991L9.39259 1.58491Z" fill="#383739"/>
<path d="M9.73212 1.68005L9.54212 1.55005L9.42712 1.58505L9.50212 1.64505V1.77505L9.46712 1.83505H9.29712V2.40005H9.46712L9.50212 2.45505V2.59005L9.42712 2.62505L9.54212 2.68505L9.73212 2.55005V2.51505L10.0521 2.11505L9.73212 1.70005V1.68005Z" fill="#D22630"/>
<path d="M5.44469 2.45499L5.36969 2.37999V2.34999L5.17969 2.11999L5.36969 1.89499V1.84999L5.44469 1.77499L5.61469 1.90999H5.51469L5.64969 2.03999H5.94969L6.19969 1.84999V1.35999H6.78469L7.48469 0.92499V0.81499L7.36969 0.75499L7.23969 0.85499V0.90499L7.13969 0.77499L7.33469 0.62499L7.53969 0.48999H7.61469L7.80469 0.62499H7.84469L8.03469 0.77499L7.93469 0.90499L7.91969 0.85499L7.78469 0.75499H7.74969L7.63469 0.82999V0.94999L8.33469 1.38499H8.93969V1.87499L9.16469 2.06499H9.46469L9.59969 1.93499H9.52469L9.67469 1.79999L9.75469 1.87499V1.91499L9.93969 2.13999L9.75469 2.36499V2.40499L9.67469 2.47999L9.52469 2.34999H9.59969L9.46969 2.21499H9.16969L8.93969 2.40499V2.89499H8.31469L7.61469 3.30999V3.42499L7.72969 3.49999H7.74969L7.87969 3.42499V3.36999L7.97969 3.49999L7.80469 3.63499H7.78469L7.57969 3.78499H7.49969L7.30969 3.63499H7.26969L7.08469 3.48499L7.19469 3.36999V3.42499L7.32969 3.49999H7.34969L7.45969 3.42499V3.30999L6.75969 2.89499H6.17469V2.39999L5.92969 2.20999H5.62969L5.49969 2.34999H5.59469L5.44469 2.45499Z" fill="#383739"/>
<path d="M7.55922 3.49985L7.65422 3.54985L7.55922 3.60985V3.49985ZM7.33422 3.58985L7.52422 3.73985H7.55922V3.62985L7.44922 3.54985L7.56422 3.46985V3.24985L6.80922 2.79985H6.25922V2.34485L5.97922 2.11485H5.54422L5.44422 2.24985L5.33422 2.11485H5.19922L5.38422 2.32485V2.35985L5.44422 2.43985L5.55422 2.33985H5.50422V2.32485L5.63422 2.17485H5.95422L6.21922 2.35985V2.85485H6.78422L7.50422 3.28985V3.41985L7.38922 3.49485H7.33422L7.21922 3.41985V3.38485L7.14422 3.45985L7.29422 3.58985H7.33422ZM5.44422 2.00485L5.51922 2.09985H5.34922L5.44422 2.00485ZM7.55922 0.624854L7.48422 0.679854L7.55922 0.734854V0.624854ZM9.59922 2.13485L9.67422 2.20985L9.77422 2.11485L9.59922 2.13485ZM7.78422 0.624854L7.59922 0.474854H7.55922V0.584854L7.67422 0.684854L7.55922 0.754854V0.949854L8.31422 1.39985H8.86422V1.89485L9.14922 2.09985H9.58422L9.67422 1.98485L9.78922 2.09985H9.92422L9.73422 1.90985V1.84985L9.67422 1.79985L9.56422 1.88985H9.61922L9.48922 2.05985H9.16422L8.91922 1.86985V1.35985H8.31922L7.61922 0.944854V0.814853L7.72922 0.734854H7.78422L7.89922 0.814853V0.849854L7.97422 0.754854L7.82422 0.624854H7.78422Z" fill="#FFC72C"/>
<path d="M7.55922 3.60985L7.48422 3.55485L7.55922 3.49485V3.60985ZM5.51922 2.11485L5.44422 2.21485L5.34422 2.11485H5.51922ZM7.78422 3.58985L7.59922 3.73985H7.55922V3.62985L7.67422 3.55485L7.55922 3.47485V3.24985L8.31422 2.79985H8.86422V2.34485L9.14922 2.11485H9.58422L9.67422 2.24985L9.78922 2.11485H9.92422L9.73422 2.32485V2.35985L9.67422 2.43985L9.56422 2.33985H9.61922V2.32485L9.48922 2.17485H9.16422L8.91922 2.35985V2.85485H8.31922L7.59922 3.28985V3.41985L7.70922 3.49485H7.76922L7.87922 3.41985V3.38485L7.95422 3.45985L7.80422 3.58985H7.78422ZM9.67422 2.00485L9.59922 2.09985H9.76922L9.67422 2.00485ZM7.33422 0.624854L7.52422 0.474854H7.55922V0.584854L7.44422 0.684854L7.55922 0.754854V0.949854L6.80422 1.39985H6.25422V1.89485L5.97422 2.08485H5.53922L5.43922 1.96985L5.32922 2.08485H5.19922L5.38422 1.89485V1.83985L5.44422 1.77985L5.55422 1.87985H5.50422L5.63422 2.04485H5.95422L6.21922 1.85485V1.36485H6.78422L7.52422 0.949854V0.819854L7.40922 0.739854H7.34922L7.23422 0.819854V0.854854L7.15922 0.759854L7.30922 0.629854H7.34922L7.33422 0.624854ZM7.55922 0.754854L7.65422 0.699854L7.55922 0.644854V0.754854Z" fill="white"/>
<path d="M7.55977 2.11492V0.984924L6.80477 1.43492H6.27477V1.88992L6.00977 2.09992H7.55977V3.22992L8.31477 2.77992H8.84977V2.34492L9.11477 2.11492H7.55977Z" fill="#00843D"/>
<path d="M6.00977 2.11492L6.27477 2.34492V2.77992H6.80477L7.55977 3.22992V2.09992H9.10977L8.84477 1.88992V1.43992H8.31477L7.56477 0.984924V2.11492H6.00977Z" fill="#D22630"/>
<path d="M6.76438 1.57006L6.63438 1.43506L6.51937 1.53506L6.63438 1.64506L6.48438 1.74006H6.83938L7.13938 2.04006L7.23938 1.93006L6.93938 1.64506V1.45006L6.76438 1.57006ZM8.35438 2.66506L8.48438 2.78006L8.61937 2.70006L8.48438 2.59006L8.63438 2.47506H8.31438L7.99437 2.19006L7.89938 2.29006L8.19938 2.57006V2.76006L8.35438 2.66506ZM6.76438 2.66506L6.63438 2.78006L6.51937 2.70006L6.63438 2.59006L6.48438 2.47506H6.83938L7.13938 2.19006L7.23938 2.29006L6.93938 2.57006V2.76006L6.76438 2.66506ZM8.35438 1.56506L8.48438 1.43506L8.61937 1.53506L8.48438 1.64506L8.63438 1.74006H8.31438L7.99437 2.04006L7.89938 1.93006L8.19938 1.64506V1.45006L8.35438 1.56506Z" fill="#383739"/>
<path d="M8.48453 2.75985L8.37453 2.64485L8.46953 2.58985L8.57953 2.69985L8.48453 2.75985ZM8.20453 2.73985V2.56985L7.90453 2.28485L7.97453 2.20985L8.27453 2.49485H8.57953L8.20453 2.73985ZM6.61453 1.47485L6.72953 1.56985L6.62953 1.62485L6.51953 1.52985L6.61453 1.47485ZM6.89953 1.47485V1.66485L7.19953 1.92985L7.12453 2.00485L6.82453 1.71985H6.52453L6.89953 1.49485V1.47485Z" fill="#D22630"/>
<path d="M8.48453 1.47485L8.37453 1.56985L8.46953 1.62485L8.57953 1.52985L8.48453 1.47485ZM8.20453 1.47485V1.66485L7.90453 1.92985L7.97453 2.00485L8.27453 1.71985H8.57953L8.20453 1.47485ZM6.61453 2.77485L6.72953 2.66485L6.62953 2.60985L6.51953 2.71985L6.61453 2.77485ZM6.89953 2.75985V2.58985L7.19953 2.30485L7.12453 2.22985L6.82453 2.51485H6.52453L6.89953 2.75985Z" fill="#00843D"/>
<path d="M8.34953 2.11484L7.56453 2.64984L6.76953 2.11984L7.56953 1.58984L8.34953 2.11484Z" fill="#383739"/>
<path d="M7.55956 1.60498L6.80456 2.09998H8.31456L7.55956 1.60498ZM7.55956 1.60498V2.60498L8.30956 2.11498H6.79956L7.55456 2.60998L7.55956 1.60498Z" fill="white"/>
<path d="M7.76984 2.28503V2.43503H7.36984V2.28503H7.08984V1.93003H7.36984V1.78003H7.74984V1.93003H8.03484V2.30003L7.76984 2.28503Z" fill="#383739"/>
<path d="M7.36984 1.80005V1.95005H7.08984V2.10005H7.55984V1.80005H7.36984ZM7.55984 2.10005H8.03484V1.95005H7.74984V1.80005H7.55984V2.10005ZM7.08984 2.11505V2.28505H7.36984V2.42005H7.55984V2.12005L7.08984 2.11505ZM7.55984 2.41505H7.74984V2.28505H8.03484V2.11505H7.55984V2.41505Z" fill="#D22630"/>
<path d="M8.91981 8.14494V7.91994H9.56481V7.66994H10.1898V5.57494H9.56481V5.32494H8.91981V5.09994H8.27981V4.87494H6.83981V5.09994H6.19981V5.32994H5.54981V5.57494H4.93481V7.67494H5.54981V7.93494H6.19981V8.12494H6.83981V8.35494H8.27981V8.12494L8.91981 8.14494Z" fill="#383739"/>
<path d="M6.85997 4.89496V5.09996H6.23497V5.32996H5.59997V5.57496H4.96997V7.65496H5.59997V7.87996H6.23997V8.12996H6.88497V8.35496H8.28497V8.12496H8.92497V7.89996H9.56997V7.64996H10.2V5.57496H9.55997V5.34996H8.87997V5.11996H8.23497V4.89996L6.85997 4.89496ZM7.04997 5.06496H8.08997V5.28996H8.72997V5.51996H9.37497V5.76496H10.02V7.48496H9.37497V7.74996H8.72997V7.93496H8.08997V8.16496H7.02997V7.93496H6.38997V7.74996H5.74497V7.49996H5.11997V5.78496H5.74997V5.53496H6.39497V5.28996H7.03497L7.04997 5.06496Z" fill="#FFC72C"/>
<path d="M6.42487 7.93496V7.70996H5.76487V7.48496H5.11987V5.78496H5.76487V5.53496H6.42487V5.30996H7.06987V5.08496H8.08987V5.28996H8.72987V5.51996H9.37487V5.76496H10.0199V7.46496H9.37487V7.68996H8.69487V7.93996H8.04987V8.18496H7.02987V7.93496H6.42487Z" fill="#D22630"/>
<path d="M6.56016 5.47985L6.39016 5.34985V5.59485L6.24016 5.68985V5.53985L6.09016 5.68985L5.93516 5.53985V5.68985L5.74516 5.58985V5.79985L5.61516 5.91485V5.78485L5.42516 5.89485L5.27516 5.78485V5.91485L5.10016 5.79985V6.46485H4.91016V6.80485H5.10016V7.46485L5.27016 7.34985V7.49985L5.44016 7.36985L5.61016 7.49985V7.34985L5.74016 7.46485V7.68985L5.93016 7.57985V7.72985L6.08016 7.57985L6.23016 7.72985V7.55985L6.38016 7.65485V7.89985L6.55516 7.76485V7.93485L6.72516 7.78485L6.87516 7.93485V7.74985L7.02516 7.85985V8.12485L7.25516 7.91985V8.14485L7.55516 7.95485L7.85516 8.14485V7.93485L8.08516 8.12485V7.87985L8.23516 7.76485V7.93485L8.38516 7.78485L8.57516 7.93485V7.74985L8.72516 7.87985V7.62985L8.87516 7.53985V7.68985L9.03016 7.53985L9.18016 7.68985V7.55985L9.37016 7.66985V7.44985L9.50016 7.33485V7.48485L9.69016 7.35485L9.84016 7.48985V7.33985L10.0152 7.44985V6.80985H10.2002V6.48485H10.0152V5.82485L9.84516 5.93985V5.79985L9.67016 5.91485L9.50016 5.79985V5.93485L9.37016 5.81985V5.61485L9.18016 5.70485V5.55485L9.03016 5.70485L8.88016 5.55485V5.70485L8.73016 5.61485V5.36485L8.55516 5.49985V5.32985L8.40516 5.47985L8.21516 5.32985V5.49985L8.08516 5.38485V5.13985L7.86016 5.32985V5.09985L7.56016 5.28985L7.25516 5.09985V5.28985L7.02516 5.09985V5.34985L6.87516 5.45985V5.28985L6.72516 5.43985L6.55516 5.28985L6.56016 5.47985Z" fill="#383739"/>
<path d="M5.28981 5.94998V5.79998L5.43981 5.91498L5.59481 5.79998V5.94998L5.74481 5.81998V7.42498L5.59481 7.31498V7.44498L5.44481 7.32998L5.29481 7.44498V7.31498L5.11981 7.42498V6.76498H4.93481V6.47998H5.11981V5.81998L5.28981 5.94998ZM6.57981 5.34998L6.72981 5.47998L6.85981 5.34998V5.51998L7.02981 5.38498V7.84998L6.85981 7.73498V7.90498L6.72981 7.76998L6.57981 7.90498V7.73498L6.40981 7.86498V5.40998L6.57981 5.52498V5.34998ZM8.54481 5.34998L8.40981 5.47998L8.25981 5.34998V5.51998L8.08981 5.38498V7.84998L8.25981 7.73498V7.90498L8.40981 7.76998L8.54481 7.90498V7.73498L8.71481 7.86498V5.40998L8.54481 5.52498V5.34998ZM9.82981 5.94998V5.79998L9.67981 5.91498L9.52981 5.79998V5.94998L9.37481 5.81998V7.42498L9.52481 7.31498V7.44498L9.67481 7.32998L9.82481 7.44498V7.31498L9.99981 7.42498V6.76498H10.1898V6.47998H9.99981V5.81998L9.82981 5.94998Z" fill="#00843D"/>
<path d="M5.9494 5.59498L6.0844 5.70498L6.2194 5.59498V5.72498L6.4094 5.61498V7.63498L6.2194 7.51998V7.66998L6.0844 7.53998L5.9544 7.66998V7.51998L5.7644 7.63498V5.61498L5.9544 5.72498L5.9494 5.59498ZM7.2744 5.34498L7.0494 5.15998V8.10998L7.2744 7.89998V8.12498L7.5594 7.93498L7.8444 8.12498V7.87998L8.0694 8.06998V5.17998L7.8444 5.36498V5.09998L7.5594 5.28998L7.2744 5.09998V5.34498ZM9.1644 5.59498L9.0344 5.70498L8.9044 5.59498V5.72498L8.7144 5.61498V7.63498L8.9044 7.51998V7.66998L9.0344 7.53998L9.1844 7.66998V7.51998L9.3544 7.63498V5.61498L9.1644 5.72498V5.59498Z" fill="#FFC72C"/>
<path d="M5.36688 6.32991L5.44188 6.36991C5.45688 6.36991 5.49689 6.36991 5.51688 6.32991C5.57188 6.27491 5.57188 6.15991 5.57188 6.08491L5.47688 6.17991L5.44188 6.08491L5.38188 6.17991L5.30688 6.08491C5.30688 6.15991 5.30688 6.27491 5.36688 6.33491V6.32991ZM6.04688 6.15991L5.98689 6.10491V6.00491L5.87688 6.12491L6.06189 6.30991L6.29189 6.12491L6.17688 6.00991V6.10491L6.12188 6.15991V5.96991L6.21689 5.89491L6.08188 5.78491L5.95188 5.89491L6.04688 5.99491V6.15991ZM6.66688 5.96991L6.63188 5.91491V5.79991L6.49688 5.91491L6.72689 6.12491L6.91688 5.93491L6.80189 5.79991V5.91491L6.76189 5.95491V5.76491L6.86189 5.70491L6.72689 5.59491L6.59188 5.70491L6.66688 5.78491V5.96991Z" fill="#383739"/>
<path d="M5.44239 6.12507L5.47739 6.20007L5.55239 6.12507C5.55239 6.21507 5.53739 6.29507 5.50239 6.31007C5.49541 6.31938 5.48635 6.32694 5.47593 6.33215C5.46552 6.33736 5.45404 6.34007 5.44239 6.34007C5.43075 6.34007 5.41927 6.33736 5.40885 6.33215C5.39844 6.32694 5.38938 6.31938 5.38239 6.31007C5.34739 6.29507 5.32739 6.21507 5.32739 6.12507L5.40239 6.20007L5.44239 6.12507ZM6.74239 5.76507V6.01007L6.82239 5.91507V5.86007L6.89739 5.93507L6.70739 6.12507L6.51739 5.93507L6.61739 5.86007V5.93507L6.68739 6.03007V5.78007L6.61239 5.73007L6.72739 5.63007L6.82239 5.73007L6.74239 5.76507Z" fill="white"/>
<path d="M6.10185 5.97001V6.20001L6.19685 6.12501V6.04501L6.27185 6.12501L6.08185 6.31001L5.89185 6.12501L5.97185 6.04501V6.12501L6.04685 6.20001V5.97001L5.97185 5.89501L6.08185 5.82001L6.18185 5.89501L6.10185 5.97001Z" fill="#D22630"/>
<path d="M9.74688 6.32991L9.67188 6.36991C9.65688 6.36991 9.63688 6.36991 9.62188 6.32991C9.54188 6.27491 9.54188 6.15991 9.54188 6.08491L9.63689 6.17991L9.67188 6.08491L9.73188 6.17991L9.80688 6.08491C9.80688 6.15991 9.80689 6.27491 9.75189 6.33491L9.74688 6.32991ZM9.08689 6.15991L9.12689 6.10491V6.00491L9.24188 6.12491L9.05189 6.30991L8.82188 6.12491L8.93689 6.00991V6.10491L8.99188 6.15991V5.96991L8.90189 5.89491L9.03188 5.78491L9.16189 5.89491L9.08689 5.99491V6.15991ZM8.44688 5.96991L8.48188 5.91491V5.79991L8.61688 5.91491L8.40688 6.12491L8.18188 5.93491L8.31189 5.79991V5.91491L8.35189 5.95491V5.76491L8.27689 5.70491L8.40688 5.59491L8.54188 5.70491L8.44188 5.78491L8.44688 5.96991Z" fill="#383739"/>
<path d="M9.67204 6.12507L9.63704 6.20007L9.56204 6.12507C9.56204 6.21507 9.58204 6.29507 9.61704 6.31007C9.62408 6.31847 9.63288 6.32523 9.64281 6.32987C9.65275 6.33451 9.66358 6.33691 9.67454 6.33691C9.68551 6.33691 9.69634 6.33451 9.70627 6.32987C9.71621 6.32523 9.725 6.31847 9.73204 6.31007C9.76704 6.29507 9.78704 6.21507 9.78704 6.12507L9.73204 6.20007L9.67204 6.12507ZM8.37204 5.76507V6.01007L8.29704 5.91507V5.86007L8.21704 5.93507L8.40704 6.12507L8.59704 5.93507L8.50204 5.86007V5.93507L8.42704 6.03007V5.78007L8.50204 5.73007L8.40704 5.63007L8.29704 5.73007L8.37204 5.76507Z" fill="white"/>
<path d="M9.01157 5.97001V6.20001L8.93657 6.12501V6.04501L8.86157 6.12501L9.05157 6.31001L9.24157 6.12501L9.14157 6.04501V6.12501L9.07157 6.20001V5.97001L9.14657 5.89501L9.03157 5.82001L8.93657 5.89501L9.01157 5.97001Z" fill="#D22630"/>
<path d="M7.80153 6.04998L7.74653 5.93498L7.91653 5.78498L7.74653 5.64998V5.74498L7.69153 5.79998V5.61498L7.84153 5.51498L7.55653 5.28998L7.27153 5.47998L7.42153 5.61498V5.78498L7.37153 5.72498V5.62998L7.19653 5.76498L7.38653 5.91498L7.31153 6.00998L7.80153 6.04998Z" fill="#383739"/>
<path d="M7.34704 6.03002L7.40704 5.93002L7.21704 5.78002L7.35204 5.69002V5.74502L7.44204 5.84002V5.61502L7.31204 5.51502L7.56204 5.33002L7.80204 5.52002L7.67204 5.61502V5.86002L7.76704 5.76002V5.71002L7.89704 5.80002L7.70704 5.95002L7.78204 6.05002L7.34704 6.03002Z" fill="#D22630"/>
<path d="M7.427 5.51999L7.557 5.61499L7.692 5.51499L7.557 5.42499L7.427 5.51999Z" fill="#383739"/>
<path d="M7.55716 5.44501L7.65216 5.52001L7.55716 5.57501L7.46216 5.52001L7.55716 5.44501Z" fill="#00843D"/>
<path d="M5.36688 6.91495C5.37594 6.90384 5.38738 6.89492 5.40037 6.88886C5.41336 6.88279 5.42755 6.87975 5.44188 6.87995C5.45688 6.87995 5.49689 6.87995 5.51688 6.91495C5.57188 6.97495 5.57188 7.08495 5.57188 7.16495L5.47688 7.08495L5.44188 7.15995L5.38188 7.08495L5.30688 7.15995C5.30688 7.08495 5.30688 6.97495 5.36688 6.91495ZM6.04688 7.08495L5.98689 7.14495V7.23995L5.87688 7.12495L6.06189 6.93495L6.29189 7.12495L6.17688 7.23995V7.13995L6.12188 7.08995V7.27495L6.21689 7.34995L6.08188 7.46495L5.95188 7.34995L6.04688 7.25495V7.08495ZM6.66688 7.27495L6.63188 7.32995V7.44495L6.49688 7.32995L6.72689 7.12495L6.91688 7.32995L6.80189 7.44495V7.32995L6.76189 7.29495V7.48495L6.86189 7.53995L6.72689 7.65495L6.59188 7.53995L6.66688 7.46495V7.27495Z" fill="#383739"/>
<path d="M5.44239 7.12485L5.47739 7.04985L5.55239 7.12485C5.55239 7.02985 5.53739 6.95485 5.50239 6.93485C5.49541 6.92553 5.48635 6.91797 5.47593 6.91276C5.46552 6.90756 5.45404 6.90485 5.44239 6.90485C5.43075 6.90485 5.41927 6.90756 5.40885 6.91276C5.39844 6.91797 5.38938 6.92553 5.38239 6.93485C5.34739 6.95485 5.32739 7.02985 5.32739 7.12485L5.40239 7.04985L5.44239 7.12485ZM6.74239 7.48485V7.23485L6.82239 7.33485V7.40985L6.89739 7.32985L6.70739 7.14485L6.51739 7.32985L6.61739 7.40985V7.32985L6.68739 7.23985V7.48485L6.61239 7.53985L6.72739 7.63485L6.82239 7.53985L6.74239 7.48485Z" fill="white"/>
<path d="M6.10185 7.27488V7.04988L6.19685 7.12488V7.19988L6.27185 7.12488L6.08185 6.93488L5.89185 7.12488L5.97185 7.19988V7.12488L6.04685 7.04988V7.27488L5.97185 7.34988L6.08185 7.42488L6.18185 7.34988L6.10185 7.27488Z" fill="#D22630"/>
<path d="M9.74688 6.91495C9.73783 6.90384 9.72638 6.89492 9.7134 6.88886C9.70041 6.88279 9.68622 6.87975 9.67188 6.87995C9.65688 6.87995 9.63688 6.87995 9.62188 6.91495C9.54188 6.97495 9.54188 7.08495 9.54188 7.16495L9.63689 7.08495L9.67188 7.15995L9.73188 7.08495L9.80688 7.15995C9.80688 7.08495 9.80689 6.97495 9.75189 6.91495H9.74688ZM9.08689 7.08495L9.12689 7.14495V7.23995L9.24188 7.12495L9.05189 6.93495L8.82188 7.12495L8.93689 7.23995V7.13995L8.99188 7.08995V7.27495L8.90189 7.34995L9.03188 7.46495L9.16189 7.34995L9.08689 7.25495V7.08495ZM8.44688 7.27495L8.48188 7.32995V7.44495L8.61688 7.32995L8.40688 7.12495L8.18188 7.32995L8.31189 7.44495V7.32995L8.35189 7.29495V7.48495L8.27689 7.53995L8.40688 7.65495L8.54188 7.53995L8.44188 7.46495L8.44688 7.27495Z" fill="#383739"/>
<path d="M9.67204 7.12487L9.63704 7.04987L9.56204 7.12487C9.56204 7.02987 9.58204 6.95487 9.61704 6.93487C9.62408 6.92646 9.63288 6.9197 9.64281 6.91506C9.65275 6.91042 9.66358 6.90802 9.67454 6.90802C9.68551 6.90802 9.69634 6.91042 9.70627 6.91506C9.71621 6.9197 9.725 6.92646 9.73204 6.93487C9.76704 6.95487 9.78704 7.02987 9.78704 7.12487L9.73204 7.04987L9.67204 7.12487ZM8.37204 7.48487V7.23487L8.29704 7.33487V7.40987L8.21704 7.32987L8.40704 7.14487L8.59704 7.32987L8.50204 7.40987V7.32987L8.42704 7.23987V7.48487L8.50204 7.53987L8.40704 7.63487L8.29704 7.53987L8.37204 7.48487Z" fill="white"/>
<path d="M9.01157 7.27488V7.04988L8.93657 7.12488V7.19988L8.86157 7.12488L9.05157 6.93488L9.24157 7.12488L9.14157 7.19988V7.12488L9.07157 7.04988V7.27488L9.14657 7.34988L9.03157 7.42488L8.93657 7.34988L9.01157 7.27488Z" fill="#D22630"/>
<path d="M7.80153 7.22003L7.74653 7.31503L7.91653 7.46503L7.74653 7.59503V7.50003L7.69153 7.45003V7.63503L7.84153 7.73003L7.55653 7.93503L7.27153 7.75003L7.42153 7.61503V7.45003L7.37153 7.50503V7.60503L7.19653 7.47003L7.38653 7.32003L7.31153 7.22003H7.80153Z" fill="#383739"/>
<path d="M7.34704 7.24005L7.40704 7.31505L7.21704 7.46505L7.35204 7.56005V7.50005L7.44204 7.41005V7.63505L7.31204 7.73005L7.56204 7.92005L7.80204 7.73005L7.67204 7.63005V7.41005L7.76704 7.50005V7.56005L7.89704 7.46005L7.70704 7.31005L7.78204 7.24005H7.34704Z" fill="#D22630"/>
<path d="M7.427 7.74983L7.557 7.63483L7.692 7.72983L7.557 7.82483L7.427 7.74983Z" fill="#383739"/>
<path d="M7.55716 7.79998L7.65216 7.72998L7.55716 7.66998L7.46216 7.72998L7.55716 7.79998Z" fill="#00843D"/>
<path d="M9.83016 6.51992H9.56516V6.42492H8.69516L8.09016 6.04492H7.03016L6.43016 6.42492H5.55016V6.53992H5.28516V6.72992H5.55016V6.85992H6.42016L7.02516 7.23992H8.08516L8.68516 6.85992H9.56016V6.74492H9.82516L9.83016 6.51992Z" fill="#383739"/>
<path d="M7.02981 6.04992L6.42981 6.42492H5.57981V6.53992H5.30981V6.70992H5.57481V6.81992H6.42481L7.02981 7.19992H8.08981L8.68981 6.81992H9.54981V6.70992H9.83481V6.53992H9.54981V6.42492H8.69981L8.09481 6.04492L7.02981 6.04992ZM7.02981 6.09992H8.06981L8.63981 6.46492V6.51492H9.23981V6.74492H8.61981V6.80492L8.06981 7.14492H7.04981L6.48481 6.80492V6.74492H5.87981V6.51992H6.49981V6.46492L7.02981 6.09992Z" fill="#D22630"/>
<path d="M8.06966 6.09998L8.59966 6.47998V6.51998H9.22466V6.70998H8.59966V6.78498L8.06966 7.14498H7.04966L6.51966 6.78498V6.72998H5.89966V6.53998H6.52466V6.46498L7.04966 6.09998H8.06966Z" fill="#D22630"/>
<path d="M6.78157 6.81997L7.00657 7.00997L7.15657 6.87997L7.08657 6.81997L7.00657 6.85997L6.95657 6.81997L7.82157 6.15997H7.65157L6.78157 6.81997ZM7.29157 7.08497H7.46157L8.33157 6.42497L8.10657 6.23497L7.95657 6.36997L8.04657 6.42497L8.10657 6.38497L8.16157 6.42497L7.29157 7.08497ZM7.67157 7.08497H7.82157L6.95157 6.42497L7.00657 6.38497L7.08657 6.42497L7.16157 6.36997L7.01157 6.25497L6.78157 6.42497L7.67157 7.08497ZM8.16157 6.81997L8.10657 6.85997L8.04657 6.81997L7.95157 6.87997L8.10157 6.98997L8.33157 6.81997L7.46157 6.15997H7.27157L8.16157 6.81997ZM6.61157 6.63497L6.76157 6.72997L6.91157 6.62997L6.76157 6.51997L6.61157 6.63497ZM7.40657 6.61497L7.55657 6.72997L7.70657 6.62997L7.55657 6.51997L7.40657 6.61497ZM8.50657 6.61497L8.35157 6.72997L8.20157 6.62997L8.35157 6.51997L8.50657 6.61497Z" fill="#383739"/>
<path d="M8.312 6.81999L8.107 6.96999L7.972 6.87999L8.047 6.83999L8.107 6.87999L8.182 6.81999L7.332 6.17999H7.462L8.312 6.81999ZM7.782 7.06999H7.652L6.802 6.42499L7.007 6.27499L7.142 6.36999L7.087 6.40499L7.007 6.36999L6.932 6.42499L7.782 7.06999ZM7.462 7.06999H7.332L8.182 6.42499L8.107 6.36999L8.047 6.40499L7.972 6.36999L8.107 6.26999L8.297 6.42499L7.462 7.06999ZM7.652 6.17999H7.782L6.932 6.81999L7.007 6.87999L7.087 6.83999L7.137 6.87999L7.007 6.97499L6.822 6.82499L7.652 6.17999Z" fill="#FFC72C"/>
<path d="M6.76208 6.5401L6.87708 6.6351L6.76208 6.7101L6.63208 6.6351L6.76208 6.5401ZM7.56208 6.5401L7.69208 6.6351L7.55708 6.7101L7.42708 6.6351L7.56208 6.5401ZM8.35208 6.5401L8.23708 6.6351L8.35208 6.7101L8.48208 6.6351L8.35208 6.5401Z" fill="#00843D"/>
<path d="M4.8194 10.9599L4.7644 11.0549L4.8744 11.1299L4.7644 11.2249L4.8194 11.2999L4.9494 11.3199L5.0644 11.2249L5.3844 11.4149V11.2649L5.1994 11.1299L5.3844 11.0149V10.8499L5.0644 11.0399L4.9494 10.9649L4.8194 10.9599ZM4.8194 10.3949L4.7644 10.4899L4.8744 10.5649L4.7644 10.6599L4.8194 10.7349L4.9494 10.7549L5.0644 10.6549L5.3844 10.8449V10.6949L5.1994 10.5649L5.3844 10.4499V10.2799L5.0644 10.4699L4.9494 10.3949H4.8194ZM4.8194 11.8699L4.7644 11.7899L4.8744 11.6999L4.7644 11.6199L4.8194 11.5299H4.9494L5.0644 11.6049L5.3844 11.4149V11.5849L5.1994 11.6999L5.3844 11.8299V11.9799L5.0644 11.7899L4.9494 11.8899L4.8194 11.8699ZM10.2994 10.9599L10.3594 11.0549L10.2444 11.1299L10.3594 11.2249L10.2994 11.2999L10.1694 11.3199L10.0544 11.2249L9.7344 11.4149V11.2649L9.9244 11.1299L9.7344 11.0149V10.8499L10.0544 11.0399L10.1694 10.9649L10.2994 10.9599ZM10.2994 10.3949L10.3594 10.4899L10.2444 10.5649L10.3594 10.6599L10.2994 10.7349L10.1694 10.7549L10.0544 10.6549L9.7344 10.8449V10.6949L9.9244 10.5649L9.7344 10.4499V10.2799L10.0544 10.4699L10.1694 10.3949H10.2994ZM10.2994 11.8699L10.3594 11.7899L10.2444 11.6999L10.3594 11.6199L10.2994 11.5299H10.1694L10.0494 11.5999L9.7294 11.4099V11.5799L9.9194 11.6949L9.7294 11.8249V11.9749L10.0494 11.7849L10.1644 11.8849L10.2994 11.8699ZM9.0744 9.44994V9.67494H9.2444V9.78994H9.4144V9.59994H9.2644V9.44994H9.0744ZM9.5644 9.82494V10.0149H9.7544V10.1099H9.9044V9.91994H9.7544V9.82494H9.5644ZM6.0494 9.44994V9.67494H5.8794V9.78994H5.7094V9.59994H5.8594V9.44994H6.0494ZM9.0744 12.8499V12.6249H9.2444V12.5249H9.4144V12.7199H9.2644V12.8699L9.0744 12.8499ZM6.0494 12.8499V12.6249H5.8794V12.5249H5.7094V12.7199H5.8594V12.8699L6.0494 12.8499ZM9.5644 12.4699V12.2499H9.7544V12.1349H9.9044V12.3249H9.7544V12.4749L9.5644 12.4699ZM5.5494 9.82494V10.0149H5.3644V10.1099H5.2144V9.91994H5.3644V9.82494H5.5494ZM5.5494 12.4899V12.2649H5.3644V12.1499H5.2144V12.3399H5.3644V12.4899H5.5494ZM8.1994 9.44994L8.0644 9.31494L7.9344 9.42994L8.0444 9.54494L7.8944 9.67494H8.1044L8.1794 9.59994L8.2544 9.67494H8.5044L8.3494 9.54994L8.4644 9.43494L8.3294 9.31994L8.1994 9.44994ZM7.5544 9.44994L7.4244 9.31494L7.2894 9.42994L7.4044 9.54494L7.2694 9.67494H7.4794L7.5544 9.59994L7.6294 9.67494H7.8394L7.7044 9.54494L7.8194 9.42994L7.6894 9.31494L7.5544 9.44994ZM6.9294 9.44994L7.0644 9.31494L7.1794 9.42994L7.0644 9.54494L7.2144 9.67494H7.0044L6.9294 9.59994L6.8544 9.67494H6.6094L6.7594 9.54494L6.6494 9.42994L6.7794 9.31494L6.9144 9.44994H6.9294ZM8.1794 12.8499L8.0644 12.9999L7.9344 12.8699L8.0444 12.7749L7.8944 12.6249H8.1044L8.1794 12.6999L8.2544 12.6249H8.5044L8.3494 12.7749L8.4644 12.8699L8.3294 12.9999L8.1794 12.8499ZM7.5544 12.8499L7.4244 12.9999L7.2894 12.8699L7.4044 12.7749L7.2694 12.6249H7.4794L7.5544 12.6999L7.6294 12.6249H7.8394L7.7044 12.7749L7.8194 12.8699L7.6894 12.9999L7.5544 12.8499ZM6.9294 12.8499L7.0644 12.9999L7.1794 12.8699L7.0644 12.7749L7.2144 12.6249H7.0044L6.9294 12.6999L6.8544 12.6249H6.6094L6.7594 12.7749L6.6494 12.8699L6.7794 12.9999L6.9144 12.8699L6.9294 12.8499Z" fill="#383739"/>
<path d="M5.3693 11.265V11.395L5.0693 11.205L4.9493 11.305H4.8393L4.7793 11.225L4.8943 11.13L4.7793 11.055L4.8393 10.98H4.9493L5.0643 11.075L5.3643 10.885V11L5.1593 11.13L5.3693 11.265ZM5.3693 10.695V10.83L5.0693 10.64L4.9493 10.735H4.8393L4.7793 10.66L4.8943 10.56L4.7793 10.49L4.8393 10.415H4.9493L5.0643 10.505L5.3643 10.32V10.43L5.1593 10.565L5.3693 10.695ZM5.3693 11.565V11.45L5.0693 11.64L4.9493 11.53H4.8393L4.7793 11.605L4.8993 11.7L4.7843 11.79L4.8443 11.85H4.9493L5.0643 11.775L5.3643 11.96V11.83L5.1593 11.7L5.3693 11.565ZM9.7543 11.265V11.395L10.0543 11.205L10.1893 11.305H10.2793L10.3393 11.225L10.2243 11.13L10.3393 11.055L10.2793 10.98H10.2043L10.0743 11.075L9.7743 10.885V11L9.9793 11.13L9.7543 11.265ZM9.7543 10.695V10.83L10.0543 10.64L10.1893 10.735H10.2793L10.3393 10.66L10.2243 10.56L10.3393 10.49L10.2793 10.415H10.2043L10.0743 10.505L9.7743 10.32V10.43L9.9793 10.565L9.7543 10.695ZM9.7543 11.565V11.45L10.0543 11.64L10.1893 11.53H10.2793L10.3393 11.605L10.2243 11.7L10.3393 11.79L10.2793 11.85H10.2043L10.0743 11.775L9.7743 11.96V11.83L9.9793 11.7L9.7543 11.565ZM9.2593 9.44996V9.59996H9.4093V9.74996H9.2593V9.63996H9.0743V9.44996H9.2593ZM9.7693 9.82496V9.95996H9.9043V10.11H9.7693V10.015H9.5993V9.82496H9.7693ZM5.8593 9.44996V9.59996H5.7093V9.74996H5.8393V9.63996H6.0293V9.44996H5.8593ZM9.2593 12.83V12.66H9.4093V12.51H9.2593V12.605H9.0743V12.795L9.2593 12.83ZM5.8943 12.83V12.66H5.7443V12.51H5.8793V12.605H6.0643V12.795L5.8943 12.83ZM9.7693 12.455V12.305H9.9043V12.155H9.7693V12.265H9.5993V12.455H9.7693ZM5.3843 9.82496V9.97496H5.2343V10.125H5.3693V10.015H5.5393V9.82496H5.3843ZM5.3843 12.475V12.325H5.2343V12.17H5.3693V12.285H5.5393V12.47L5.3843 12.475ZM8.0693 9.33496L8.1843 9.46996L8.3143 9.33496L8.4293 9.42996L8.3143 9.54496L8.4493 9.65496H8.2593L8.1843 9.57996L8.1093 9.65496H7.9393L8.0693 9.54496L7.9543 9.42996L8.0693 9.33496ZM7.4293 9.33496L7.5593 9.46996L7.6943 9.33496L7.7843 9.42996L7.6743 9.54496L7.8043 9.65496H7.6343L7.5593 9.57996L7.4843 9.65496H7.2943L7.4443 9.54496L7.3343 9.42996L7.4293 9.33496ZM7.0493 9.33496L6.9343 9.46996L6.8043 9.33496L6.6893 9.42996L6.8043 9.54496L6.6893 9.65496H6.8393L6.9393 9.57996L7.0093 9.65496H7.1843L7.0493 9.54996L7.1643 9.43496L7.0493 9.33496ZM8.0693 12.965L8.1843 12.85L8.3143 12.965L8.4293 12.865L8.3143 12.775L8.4493 12.645H8.2593L8.1843 12.72L8.1093 12.645H7.9393L8.0693 12.775L7.9543 12.87L8.0693 12.965ZM7.4293 12.965L7.5593 12.85L7.6943 12.965L7.7843 12.865L7.6743 12.775L7.8043 12.645H7.6343L7.5593 12.72L7.4843 12.645H7.2943L7.4443 12.775L7.3343 12.87L7.4293 12.965ZM7.0493 12.965L6.9343 12.85L6.8043 12.965L6.6893 12.865L6.8043 12.775L6.6893 12.645H6.8393L6.9393 12.72L7.0093 12.645H7.1843L7.0493 12.775L7.1643 12.87L7.0493 12.965Z" fill="#00843D"/>
<path d="M5.85987 12.265V12.645H9.25987V12.265H9.75487V10.015H9.25987V9.63995H5.85987V10.015H5.36987V12.265H5.85987Z" fill="#383739"/>
<path d="M5.87977 9.65495V10.035H5.38477V12.245H5.85977V12.625H9.25977V12.245H9.75477V10.015H9.25977V9.63995H5.85977L5.87977 9.65495ZM6.10477 9.80495H9.01477V10.165L9.14977 10.245H9.59977V12.02H9.14977L9.01477 12.115V12.47H6.10477V12.1L5.97477 12.025H5.51977V10.25H5.96977L6.10477 10.17V9.79495V9.80495Z" fill="#FFC72C"/>
<path d="M6.12516 9.82495V10.15L6.56016 9.82495H6.12516ZM8.58016 9.82495L8.99516 10.15V9.82495H8.58016ZM5.55516 10.26V10.585L5.95516 10.285L5.55516 10.26ZM9.16516 10.26L9.58516 10.585V10.26H9.16516ZM9.58516 11.7L9.16516 12H9.58516V11.7ZM5.53516 11.7V12H5.95516L5.53516 11.7ZM6.10516 12.13V12.455H6.55516L6.10516 12.13ZM8.99516 12.13L8.56016 12.455H8.99516V12.13Z" fill="#D22630"/>
<path d="M8.54406 9.82506L9.58406 10.5851V11.6801L8.54406 12.4301H6.57906L5.53906 11.6801V10.5801L6.57906 9.81006L8.54406 9.82506Z" fill="#00843D"/>
<path d="M5.78492 11.7899L5.66992 11.6599L5.78492 11.5299L5.66992 11.3949L5.78492 11.2649L5.66992 11.1299L5.78492 10.9999L5.66992 10.8649L5.78492 10.7349L5.66992 10.6199L5.78492 10.4699H9.33492L9.44992 10.6199L9.33492 10.7349L9.44992 10.8649L9.33492 10.9999L9.44992 11.1299L9.33492 11.2649L9.44992 11.3949L9.33492 11.5299L9.44992 11.6599L9.33492 11.7899H5.78492ZM8.23992 9.99493L8.08992 9.86493L7.95492 9.97993L7.82492 9.86493L7.69492 9.97993L7.55992 9.86493L7.42992 9.97993L7.29492 9.86493L7.16492 9.97993L7.02992 9.86493L6.89992 9.99493V12.2649L7.02992 12.3949L7.16492 12.2849L7.29492 12.3949L7.42992 12.2849L7.55992 12.3949L7.69492 12.2849L7.82492 12.3949L7.95492 12.2849L8.08992 12.3949L8.21992 12.2849L8.23992 9.99493Z" fill="#383739"/>
<path d="M7.93689 10.015L7.82188 9.89996L7.69188 9.99996V12.265L7.82188 12.38L7.93689 12.265V10.015ZM7.42689 10.015L7.29188 9.89996L7.18188 9.99996V12.265L7.29188 12.38L7.42689 12.265V10.015Z" fill="#FFC72C"/>
<path d="M5.79688 11.7901L5.68689 11.6601L5.80188 11.5451H9.31688L9.42688 11.6601L9.31688 11.7901H5.79688ZM9.31688 11.0151L9.42688 11.1301L9.31688 11.2651H5.79688L5.68188 11.1301L5.79688 11.0151H9.31688ZM9.31688 10.7351L9.42688 10.6201L9.31688 10.4901H5.79688L5.68188 10.6201L5.79688 10.7351H9.31688Z" fill="#FFC72C"/>
<path d="M8.20152 10.015L8.09152 9.89996L7.95652 9.99996V12.265L8.09152 12.38L8.20652 12.265L8.20152 10.015ZM7.18652 10.015L7.05152 9.89996L6.93652 9.99996V12.265L7.05152 12.38L7.18652 12.265V10.015Z" fill="#D22630"/>
<path d="M5.80141 11.5299L5.69141 11.3949L5.80641 11.2799H9.32141L9.43141 11.3949L9.32141 11.5299H5.80141ZM5.80141 10.9999L5.69141 10.8649L5.80641 10.7549H9.32141L9.43141 10.8649L9.32141 10.9999H5.80141Z" fill="#D22630"/>
<path d="M7.69629 12.285L7.56129 12.38L7.44629 12.265V10.015L7.56129 9.91998L7.69629 10.02V12.285Z" fill="#D22630"/>
<path d="M8.74956 10.035H6.36956V10.225H6.04956V12.04H6.34956V12.225H8.72956V12.04H9.07456V10.225H8.76956V10.035H8.74956Z" fill="#383739"/>
<path d="M6.38984 10.0499V10.2449H6.08984V12.0199H6.38984V12.2099H6.61484L6.12484 11.7899V10.4699L6.61484 10.0549H6.36984L6.38984 10.0499ZM8.48984 10.0499L8.97984 10.4899V11.8099L8.50484 12.1899H8.75484V11.9999H9.05484V10.2249H8.75484V10.0349H8.50484L8.48984 10.0499Z" fill="#D22630"/>
<path d="M6.65406 10.05L6.16406 10.49V11.79L6.65906 12.21H8.47406L8.96406 11.79V10.47L8.47406 10.055L6.65406 10.05ZM6.69406 10.13H8.43406L8.90906 10.505V11.755L8.43406 12.13H6.69406L6.22406 11.755V10.525L6.69406 10.13Z" fill="#00843D"/>
<path d="M7.14914 11.7751L7.22414 11.8101L7.24414 11.9101L7.14414 11.9801L7.29914 12.1151H7.14914L7.05414 12.0151L6.95914 12.1151H6.80914L6.93914 11.9801L6.84414 11.9051V11.8101L6.94414 11.7751L7.03414 11.8501L7.14914 11.7751ZM7.65914 11.7751L7.73414 11.8101L7.75414 11.9101L7.65914 11.9801L7.80914 12.1151H7.65914L7.56414 12.0151L7.46914 12.1151H7.33914L7.46914 11.9801L7.37414 11.9051V11.8101L7.47414 11.7751L7.56414 11.8501L7.65914 11.7751ZM7.97914 11.7751L7.90414 11.8101L7.88414 11.9101L7.98414 11.9801L7.84914 12.1151H7.97914L8.07914 12.0151L8.16914 12.1151H8.31914L8.16914 11.9801L8.26414 11.9051V11.8101L8.16914 11.7751L8.07414 11.8501L7.97914 11.7751ZM7.15414 10.5001L7.22914 10.4651L7.24914 10.3701L7.14914 10.2751L7.30414 10.1451H7.15414L7.05914 10.2401L6.96414 10.1401H6.81414L6.94414 10.2751L6.84914 10.3701V10.4651L6.94914 10.5001L7.03914 10.4101L7.15414 10.5001ZM7.66414 10.5001L7.73914 10.4651L7.75914 10.3701L7.66414 10.2751L7.81414 10.1451H7.66414L7.56914 10.2401L7.47414 10.1401H7.34414L7.47414 10.2751L7.37914 10.3701V10.4651L7.47914 10.5001L7.56914 10.4101L7.66414 10.5001ZM7.98414 10.5001L7.90914 10.4651L7.88914 10.3701L7.98914 10.2751L7.85414 10.1451H7.98414L8.08414 10.2401L8.17414 10.1401H8.32414L8.17414 10.2751L8.26914 10.3701V10.4651L8.17414 10.5001L8.07914 10.4101L7.98414 10.5001ZM8.89414 10.6351L8.81914 10.7101L8.89414 10.7651V10.8801L8.75914 10.7851L8.68414 10.8601H8.58914L8.55414 10.7851L8.62914 10.7101L8.55414 10.6351L8.58914 10.5601H8.68914L8.75914 10.6351L8.89414 10.5401V10.6351ZM8.89414 11.0701L8.81914 11.1251L8.89414 11.2001V11.3001L8.75914 11.2001L8.68414 11.2751H8.58914L8.55414 11.2001L8.62914 11.1251L8.55414 11.0501L8.58914 10.9951H8.68914L8.75914 11.0501L8.89414 10.9551V11.0701ZM8.89414 11.6351L8.81914 11.5601L8.89414 11.4851V11.3901L8.75914 11.4851L8.68414 11.4101H8.58914L8.55414 11.4851L8.62914 11.5601L8.55414 11.6351L8.58914 11.6951H8.68914L8.75914 11.6351L8.89414 11.7351V11.6351ZM6.24414 10.6351L6.34414 10.7101L6.24414 10.7651V10.8801L6.37914 10.7851L6.45414 10.8601H6.54914L6.58914 10.7851L6.50914 10.7101L6.58914 10.6351L6.54914 10.5601H6.45414L6.37914 10.6351L6.24414 10.5401V10.6351ZM6.24414 11.0701L6.34414 11.1251L6.24414 11.2001V11.3001L6.37914 11.2001L6.45414 11.2751H6.54914L6.58914 11.2001L6.50914 11.1251L6.58914 11.0501L6.54914 10.9951H6.45414L6.37914 11.0501L6.24414 10.9551V11.0701ZM6.24414 11.6351L6.34414 11.5601L6.24414 11.4851V11.3901L6.37914 11.4851L6.45414 11.4101H6.54914L6.58914 11.4851L6.50914 11.5601L6.58914 11.6351L6.54914 11.6951H6.45414L6.37914 11.6351L6.24414 11.7351V11.6351Z" fill="#00843D"/>
<path d="M6.68997 10.15L6.25497 10.525L6.36997 10.625L6.44497 10.545H6.55997L6.59497 10.64L6.51997 10.715L6.59497 10.79L6.55997 10.865H6.42497L6.34997 10.81L6.21997 10.905V10.94L6.34997 11.04L6.42497 10.96L6.53997 10.98L6.57997 11.055L6.49997 11.13L6.57997 11.205L6.53997 11.305H6.42497L6.34997 11.225L6.21997 11.34V11.355L6.34997 11.47L6.42497 11.395H6.53997L6.57997 11.49L6.49997 11.565L6.57997 11.64L6.53997 11.715H6.42497L6.34997 11.66L6.23497 11.755L6.66997 12.13H6.76997L6.91997 11.98L6.81997 11.905V11.79L6.93497 11.755L7.03497 11.83L7.12497 11.755L7.22497 11.79L7.23997 11.905L7.13997 11.98L7.29497 12.115L7.42997 11.98L7.32997 11.905V11.79L7.44497 11.755L7.54497 11.83L7.63497 11.755L7.73497 11.79L7.74997 11.905L7.65497 11.98L7.78497 12.115L7.93497 11.98L7.84497 11.905V11.79L7.95497 11.755L8.05497 11.83L8.14497 11.755L8.24497 11.79L8.25997 11.905L8.16497 11.98L8.31497 12.115H8.41497L8.84497 11.735L8.72997 11.66L8.65497 11.735L8.54497 11.715L8.50497 11.64L8.57997 11.565L8.50497 11.49L8.54497 11.415L8.65497 11.395L8.72997 11.47L8.86497 11.355V11.34L8.72997 11.225L8.65497 11.3H8.54997L8.50997 11.205L8.58497 11.13L8.50997 11.055L8.54997 10.98H8.65997L8.73497 11.035L8.86997 10.94V10.905L8.73497 10.805L8.65997 10.885L8.54997 10.865L8.50997 10.79L8.58497 10.715L8.50997 10.64L8.54997 10.565L8.65997 10.545L8.73497 10.62L8.84997 10.525L8.41497 10.15H8.31997L8.16997 10.28L8.26497 10.375V10.49L8.14997 10.525L8.05497 10.45L7.95997 10.525L7.86997 10.49L7.84997 10.375L7.94497 10.28L7.80997 10.15L7.65997 10.28L7.75497 10.375V10.49L7.63997 10.525L7.54497 10.45L7.44997 10.525L7.35997 10.49L7.33997 10.375L7.43497 10.28L7.29997 10.15L7.14997 10.28L7.24497 10.375V10.49L7.12997 10.525L7.03497 10.45L6.93997 10.525L6.84497 10.49L6.82997 10.375L6.92497 10.28L6.77497 10.15H6.68997ZM6.23997 11.095V11.185L6.28997 11.135L6.23997 11.095Z" fill="#D22630"/>
<path d="M7.04938 12.0549L6.97438 12.1149H7.12438L7.04938 12.0549ZM7.55938 12.0549L7.48438 12.1149H7.63437L7.55938 12.0549ZM8.06937 12.0549L7.99437 12.1149H8.14437L8.06937 12.0549ZM6.96937 10.1649L7.04938 10.2249L7.12438 10.1499L6.96937 10.1649ZM7.48438 10.1649L7.55938 10.2249L7.63437 10.1499L7.48438 10.1649ZM7.99437 10.1649L8.06937 10.2249L8.14437 10.1499L7.99437 10.1649ZM8.88438 10.6749L8.82438 10.7149L8.88438 10.7549V10.6749ZM8.88438 11.0949L8.82438 11.1299L8.88438 11.1849V11.0949ZM8.88438 11.5299L8.82438 11.5649L8.88438 11.6049V11.5299ZM6.23438 10.6599V10.7549L6.29438 10.7149L6.23438 10.6599ZM6.23438 11.0949V11.1849L6.29438 11.1349L6.23438 11.0949ZM6.23438 11.5099V11.6049L6.29438 11.5649L6.23438 11.5099Z" fill="white"/>
<path d="M7.99797 10.9999V10.8499H7.84297V10.6749H7.27297V10.8449H7.12297V10.9949H6.91797V11.2799H7.12297V11.4299H7.27297V11.6049H7.84797V11.4149H7.99797V11.2799H8.20797V10.9999H7.99797Z" fill="#383739"/>
<path d="M7.55762 10.6999V10.8649L7.31262 10.9999V11.1299H6.93262V11.0149H7.12262V10.8649H7.29262V10.6749L7.55762 10.6999ZM7.55762 11.5849V11.3949L7.80762 11.2649V11.1499H8.18262V11.2649H7.99262V11.4149H7.82262V11.5849H7.55762Z" fill="#FFC72C"/>
<path d="M7.80262 11.1299V10.9999L7.55762 10.8649V10.6749H7.82262V10.8649H7.97262V11.0149H8.18262V11.1299H7.80262ZM6.93262 11.1299H7.31262V11.2649L7.56262 11.4149V11.5849H7.29262V11.3949H7.14262V11.2649H6.93262V11.1299Z" fill="white"/>
<path d="M7.33301 11.1499V11.2649L7.55801 11.3949V11.1449L7.33301 11.1499Z" fill="#D22630"/>
<path d="M7.55801 10.8849L7.33301 11.0149V11.1299H7.55801V10.8849Z" fill="#00843D"/>
<path d="M7.78262 11.1299V11.0149L7.55762 10.8849V11.1349L7.78262 11.1299Z" fill="#D22630"/>
<path d="M7.55762 11.4L7.78262 11.265V11.15H7.55762V11.4Z" fill="#00843D"/>
<path d="M5.4995 14.1499V14.6249H5.0645V15.0449H4.6145V16.2499H5.0645V16.6849H5.4795V17.1399H7.1045L7.3895 17.3299L7.2595 17.4049H6.6895L6.6345 17.3499H7.1845L7.0345 17.1999H6.2745L6.6145 17.5549H7.3145L7.5645 17.3849L7.8045 17.5349H8.5045L8.8445 17.1799H8.0895L7.9395 17.3299H8.4695L8.4295 17.3849H7.8445L7.7095 17.2899L7.9945 17.1199H9.6195V16.6699H10.0545V16.2499H10.5045V15.0499H10.0545V14.6299H9.6395V14.1599H8.0145L7.7295 13.9699L7.8645 13.8949H8.4295L8.4845 13.9499H7.9345L8.0895 14.0999H8.8445L8.5045 13.7449H7.8045L7.5595 13.8949L7.3145 13.7449H6.6145L6.2745 14.1199H7.0295L7.1795 13.9499H6.6545L6.6895 13.8949H7.2745L7.4095 13.9899L7.1245 14.1599L5.4995 14.1499Z" fill="#D22630"/>
<path d="M7.99966 17.1199H9.59966V16.6699H10.0197V16.2349H10.4697V15.0599H10.0197V14.6249H9.58466V14.1749H7.97466L7.29966 13.7499H6.61966L6.31966 14.0749H7.01966L7.12966 13.9599H6.61966L6.69466 13.8649H7.27966L8.03966 14.3399H9.44966V14.7899H9.89966V15.2249H10.3597V16.0599H9.89966V16.4949H9.44966V16.9649H8.06466L7.30966 17.4149H6.70466L6.62966 17.3249H7.13966L7.02466 17.2099H6.32466L6.62466 17.5299H7.32466L7.99966 17.1199ZM7.06966 16.9699H5.68966V16.4999H5.24966V16.0649H4.79966V15.2299H5.24966V14.7999H5.66466V14.3649H7.04966L7.80466 13.8949H8.40966L8.48466 13.9899H7.97466L8.08966 14.1049H8.78966L8.49966 13.7499H7.79966L7.13966 14.1699H5.51466V14.6199H5.09966V15.0549H4.64966V16.2299H5.09966V16.6649H5.53966V17.1149H7.16466L7.82466 17.5299H8.50466L8.80466 17.2099H8.10466L7.99466 17.3249H8.50466L8.42966 17.4199H7.84466L7.06966 16.9699Z" fill="#FFC72C"/>
<path d="M9.29906 16.365V16.815H8.01406L7.56406 17.1L7.10406 16.82H5.81906V16.37H5.38406V15.93H4.91406V15.365H5.36406V14.93H5.80406V14.48H7.08906L7.53906 14.21L7.99406 14.475H9.27906V14.925H9.71406V15.365H10.2041V15.93H9.75406V16.365H9.29906Z" fill="#00843D"/>
<path d="M5.98657 16.2V16.63H6.70657L5.98657 16.155V16.2ZM5.98657 15.1V14.65H6.70657L5.98657 15.12V15.1ZM9.12657 16.2V16.63H8.40657L9.12657 16.155V16.2ZM9.12657 15.1V14.65H8.40657L9.12657 15.12V15.1Z" fill="#383739"/>
<path d="M6.00708 16.2149L6.65208 16.6299H6.00708V16.2149ZM6.00708 15.0799L6.65208 14.6649H6.00708V15.0799ZM9.10708 16.2149L8.46708 16.6299H9.10708V16.2149ZM9.10708 15.0799L8.46708 14.6649H9.10708V15.0799Z" fill="#D22630"/>
<path d="M6.89969 15.5151V15.3051H6.82469L6.44469 15.0801L6.06469 15.3051H5.98969V15.5351H5.80469V15.8001H5.98969V16.0251H6.06469L6.44469 16.2501L6.82469 16.0251H6.89969V15.8001H7.16469V15.5001L6.89969 15.5151Z" fill="#383739"/>
<path d="M6.42398 15.0801L6.80398 15.2901H6.08398L6.42398 15.0801ZM6.80398 16.0051L6.42398 16.2151L6.08398 16.0051H6.80398ZM6.70898 15.5351V15.7601H6.27398V15.5351H6.70898Z" fill="#D22630"/>
<path d="M6.87934 15.7802V15.9852H6.44434V15.7802H6.87934ZM6.42934 15.7802V15.9852H5.98934V15.7802H6.42934ZM7.14434 15.5302V15.7602H6.72934V15.5352L7.14434 15.5302ZM6.25434 15.5302V15.7602H5.81934V15.5352L6.25434 15.5302ZM6.87934 15.3052V15.5152H6.44434V15.3252L6.87934 15.3052ZM6.42934 15.3052V15.5152H5.98934V15.3252L6.42934 15.3052Z" fill="#FFC72C"/>
<path d="M6.1452 15.5901V15.7051H5.9502V15.5901H6.1452ZM6.3152 15.3651V15.4751H6.1252V15.3651H6.3152ZM6.7652 15.3651V15.4751H6.5802V15.3651H6.7652ZM6.5802 15.5901V15.7051H6.3902V15.5901H6.5802ZM7.0302 15.5901V15.7051H6.8402V15.5901H7.0302ZM6.7652 15.8151V15.9301H6.5802V15.8151H6.7652ZM6.3152 15.8151V15.9301H6.1252V15.8151H6.3152Z" fill="#383739"/>
<path d="M6.1252 15.6101H5.9502V15.6851H6.1202L6.1252 15.6101ZM6.3152 15.3851H6.1252V15.4601H6.3152V15.3851ZM6.7502 15.3851H6.5802V15.4601H6.7502V15.3851ZM6.5602 15.6101H6.4252V15.6851H6.5752L6.5602 15.6101ZM7.0102 15.6101H6.8602V15.6851H7.0102V15.6101ZM6.7502 15.8351H6.5802V15.9101H6.7502V15.8351ZM6.2952 15.8351H6.1452V15.9101H6.2952V15.8351Z" fill="white"/>
<path d="M8.21766 15.515V15.305H8.29766L8.67266 15.08L9.05266 15.305H9.14766V15.535H9.31766V15.8H9.12766V16.025H9.07266L8.69266 16.25L8.31266 16.025H8.23766V15.8H7.97266V15.5L8.21766 15.515Z" fill="#383739"/>
<path d="M8.6925 15.08L8.3125 15.29H9.0125L8.6925 15.08ZM8.3125 16.005L8.6525 16.215L9.0125 16.005H8.3125ZM8.3875 15.535V15.76H8.8225V15.535H8.3875Z" fill="#D22630"/>
<path d="M8.23766 15.7801V15.9851H8.67266V15.7801H8.23766ZM8.68766 15.7801V15.9851H9.12766V15.7801H8.68766ZM7.97266 15.5301V15.7601H8.40766V15.5351L7.97266 15.5301ZM8.86266 15.5301V15.7601H9.29766V15.5351L8.86266 15.5301ZM8.23766 15.3051V15.5151H8.67266V15.3251L8.23766 15.3051ZM8.68766 15.3051V15.5151H9.12766V15.3251L8.68766 15.3051Z" fill="#FFC72C"/>
<path d="M8.99789 15.5899V15.7049H9.18289V15.5899H8.99789ZM8.80789 15.3649V15.4749H8.99289V15.3649H8.80789ZM8.35289 15.3649V15.4749H8.54289V15.3649H8.35289ZM8.54289 15.5899V15.7049H8.72789V15.5899H8.54289ZM8.08789 15.5899V15.7049H8.27789V15.5899H8.08789ZM8.35289 15.8149V15.9299H8.54289V15.8149H8.35289ZM8.80289 15.8149V15.9299H8.99289V15.8149H8.80289Z" fill="#383739"/>
<path d="M8.99742 15.6099H9.16242V15.6849H8.99742V15.6099ZM8.82242 15.3849H8.97242V15.4599H8.82242V15.3849ZM8.37242 15.3849H8.54242V15.4599H8.37242V15.3849ZM8.55742 15.6099H8.70742V15.6849H8.55742V15.6099ZM8.10742 15.6099H8.25742V15.6849H8.12742L8.10742 15.6099ZM8.37242 15.8349H8.54242V15.9099H8.37242V15.8349ZM8.82242 15.8349H8.97242V15.9099H8.82242V15.8349Z" fill="white"/>
<path d="M8.015 15.135V15.365H7.94L7.56 15.61L7.185 15.36H7.1V15.135H6.875V14.89H7.1V14.665H7.18L7.555 14.415L7.935 14.665H8.01V14.89H8.235V15.12L8.015 15.135Z" fill="#383739"/>
<path d="M7.5607 15.59L7.9007 15.365H7.2207L7.5607 15.59ZM7.9007 14.65L7.5607 14.46L7.2207 14.65H7.9007Z" fill="#FFC72C"/>
<path d="M8.00039 14.89V14.665H7.58039V14.89H8.00039ZM7.56039 14.89V14.665H7.12539V14.89H7.56039ZM8.22039 15.12V14.93H7.78539V15.12H8.22039ZM7.77039 15.12V14.93H7.37039V15.12H7.77039ZM7.33539 15.12V14.93H6.90039V15.12H7.33539ZM7.99539 15.345V15.135H7.58039V15.345H7.99539ZM7.56039 15.345V15.135H7.12539V15.345H7.56039Z" fill="#D22630"/>
<path d="M7.42977 14.72V14.835H7.23977V14.74L7.42977 14.72ZM7.87977 14.72V14.835H7.69977V14.74L7.87977 14.72ZM7.19977 14.95V15.08H7.00977V14.93L7.19977 14.95ZM7.65477 14.95V15.08H7.46477V14.93L7.65477 14.95ZM8.10477 14.95V15.08H7.91977V14.93L8.10477 14.95ZM7.42977 15.195V15.305H7.23977V15.2L7.42977 15.195ZM7.87977 15.195V15.305H7.69977V15.2L7.87977 15.195Z" fill="#383739"/>
<path d="M7.41016 14.7401H7.26016V14.8151H7.41016V14.7401ZM7.86016 14.7401H7.71016V14.8151H7.86016V14.7401ZM7.18516 14.9651H7.03516V15.0651H7.18516V14.9651ZM7.63516 14.9651H7.48516V15.0651H7.63516V14.9651ZM8.09016 14.9651H7.94016V15.0651H8.09016V14.9651ZM7.41016 15.1951H7.26016V15.2901H7.41016V15.1951ZM7.86016 15.1951H7.71016V15.2901H7.86016V15.1951Z" fill="white"/>
<path d="M8.015 16.4001V16.6501H7.94L7.56 16.8751L7.185 16.6501H7.1V16.4001H6.875V16.1551H7.1V15.9301H7.18L7.555 15.6851L7.935 15.9351H8.01V16.1551H8.235V16.4051L8.015 16.4001Z" fill="#383739"/>
<path d="M7.5607 16.8551L7.9007 16.6501H7.2207L7.5607 16.8551ZM7.9007 15.9101L7.5607 15.7251L7.2207 15.9101H7.9007Z" fill="#FFC72C"/>
<path d="M8.00039 16.155V15.95H7.58039V16.155H8.00039ZM7.56039 16.155V15.95H7.12539V16.155H7.56039ZM8.22039 16.385V16.175H7.78539V16.385H8.22039ZM7.77039 16.385V16.175H7.37039V16.385H7.77039ZM7.33539 16.385V16.175H6.90039V16.385H7.33539ZM7.99539 16.63V16.405H7.58039V16.63H7.99539ZM7.56039 16.63V16.405H7.12539V16.63H7.56039Z" fill="#D22630"/>
<path d="M7.42977 15.9851V16.1201H7.23977V15.9851H7.42977ZM7.87977 15.9851V16.1201H7.69977V15.9851H7.87977ZM7.19977 16.2501V16.3651H7.00977V16.2501H7.19977ZM7.65477 16.2501V16.3651H7.46477V16.2501H7.65477ZM8.10477 16.2501V16.3651H7.91977V16.2501H8.10477ZM7.42977 16.4401V16.5551H7.23977V16.4401H7.42977ZM7.87977 16.4401V16.5551H7.69977V16.4401H7.87977Z" fill="#383739"/>
<path d="M7.41016 16.0051H7.26016V16.1051H7.41016V16.0051ZM7.86016 16.0051H7.71016V16.1051H7.86016V16.0051ZM7.18516 16.2551H7.03516V16.3301H7.18516V16.2551ZM7.63516 16.2551H7.48516V16.3301H7.63516V16.2551ZM8.09016 16.2551H7.94016V16.3301H8.09016V16.2551ZM7.41016 16.4801H7.26016V16.5551H7.41016V16.4801ZM7.86016 16.4801H7.71016V16.5551H7.86016V16.4801Z" fill="white"/>
<path d="M5.09961 19.18L6.79961 18.275H8.31461L10.0146 19.18V20.675L8.31461 21.56H6.80461L5.10461 20.675L5.09961 19.18Z" fill="#383739"/>
<path d="M6.79987 18.2949L5.11987 19.1799V20.6549L6.80487 21.5599H8.31487L9.99987 20.6549V19.1799L8.33487 18.2999L6.79987 18.2949ZM6.82487 18.4049H8.31487L9.90487 19.2549V20.5799L8.31487 21.4299H6.83987L5.25487 20.5799V19.2499L6.82487 18.4049Z" fill="#00843D"/>
<path d="M7.55938 19.92V21.43H8.31438L9.88438 20.58V19.935H7.55938V18.425H6.80438L5.23438 19.255V19.92H7.55938Z" fill="#FFC72C"/>
<path d="M7.55938 19.92V21.43H6.80438L5.23438 20.58V19.935H7.55938V18.425H8.31438L9.88438 19.255V19.92H7.55938Z" fill="white"/>
<path d="M7.69466 21.3349V20.8999L7.55966 20.9999L7.42966 20.8999V21.3349H6.97466L7.27466 21.1099V20.8099L6.82466 20.5249H6.52466V19.3149H6.80466L7.25466 19.0299V18.7299L6.99966 18.4999H7.44966V18.9349L7.58466 18.8599L7.71466 18.9349V18.5199H8.16966L7.86966 18.7449V19.0449L8.31966 19.3299H8.64466V20.5399H8.31966L7.86966 20.8249V21.1249L8.16966 21.3549L7.69466 21.3349Z" fill="#383739"/>
<path d="M7.70906 18.52V18.97L7.55906 18.88V19.01L8.25906 19.445H8.48406V19.92H8.59906V19.35H8.29906L7.82406 19.05V18.71L8.08906 18.52H7.70906ZM6.53906 19.935V20.505H6.80406L7.27406 20.805V21.13L7.00906 21.315H7.38906V20.865L7.53906 20.955V20.825L6.83906 20.39H6.61406V19.94L6.53906 19.935Z" fill="#FFC72C"/>
<path d="M7.02906 18.52L7.29406 18.71V19.05L6.82406 19.33H6.53906V19.9H6.63406V19.465H6.85906L7.55906 19.03V18.9L7.40906 18.99V18.52H7.02906ZM8.48406 19.935V20.39H8.25906L7.55906 20.825V20.955L7.70906 20.865V21.315H8.08906L7.82406 21.13V20.785L8.29906 20.485H8.59906V19.92L8.48406 19.935Z" fill="white"/>
<path d="M6.64966 20.37H6.85966L7.55966 20.825L8.25966 20.375H8.46966V19.465H8.25966L7.55966 19.03L6.85966 19.465H6.66966L6.64966 20.37Z" fill="#D22630"/>
<path d="M8.03469 20.1449H8.18469V20.0699H8.06969V19.9349H8.31969V20.2599H8.08969V20.4849H7.61469V20.1649H7.82469V20.2949H7.74969V20.3549H7.93969V20.2399L7.06969 19.7099H6.91969V19.7649H7.02969V19.8999H6.80469V19.5799H7.02969V19.3499H7.50469V19.6699H7.31469V19.5399H7.36969V19.4849H7.18469V19.5949L8.03469 20.1449ZM7.95469 19.5949V19.4849H7.74969V19.5399H7.82469V19.6699H7.61469V19.3499H8.08969V19.5799H8.31469V19.8999H8.06969V19.7649H8.18469V19.7099H8.03469L7.18469 20.2199V20.3349H7.36969V20.2749H7.29969V20.1499H7.50969V20.4699H7.03469V20.2449H6.80969V19.9249H7.05469V20.0549H6.93969V20.1299H7.08969L7.95469 19.5949Z" fill="#383739"/>
<path d="M7.97484 20.22V20.37H7.74984V20.275H7.82484V20.185H7.65484V20.465H8.08984V20.24H8.31484V19.95H8.12984V20.05H8.21984V20.16H8.04984L7.16484 19.59V19.46H7.40984V19.555H7.33484V19.65H7.52484V19.365H7.06984V19.59H6.83984V19.875H7.02984V19.78H6.93484V19.685H7.10484L7.97484 20.22ZM8.03484 19.69H8.21984V19.79H8.08984V19.88H8.31484V19.6H8.08984V19.375H7.65484V19.66H7.82484V19.56H7.74984V19.47H7.99984V19.62L7.10484 20.17H6.93484V20.05H7.04984V19.955H6.85984V20.24H7.06984V20.465H7.50484V20.185H7.33484V20.275H7.40984V20.375H7.15984V20.225L8.03484 19.69Z" fill="white"/>
<path d="M9.52406 19.9949V20.4649H9.33406V20.2999H9.12906V20.4699H8.91906V19.9999H9.10906V20.1699H9.31906V19.9999L9.52406 19.9949ZM8.80906 20.6149V21.0899H8.61906V20.9199H8.40906V21.0899H8.21906V20.6149H8.40906V20.7849H8.59906V20.6149H8.80906ZM9.52406 19.8649V19.3699H9.33406V19.5399H9.12906V19.3699H8.91906V19.8449H9.10906V19.6699H9.31906V19.8599L9.52406 19.8649ZM5.59406 19.9949V20.4649H5.78406V20.2999H5.98906V20.4699H6.19906V19.9999H6.00906V20.1699H5.80406V19.9999L5.59406 19.9949ZM5.59406 19.8449V19.3699H5.78406V19.5399H5.98906V19.3699H6.19906V19.8449H6.00906V19.6699H5.80406V19.8599L5.59406 19.8449ZM8.80906 19.2199V18.7449H8.61906V18.9149H8.40906V18.7499H8.21906V19.2249H8.40906V19.0499H8.59906V19.2399L8.80906 19.2199ZM6.30906 20.6199V21.0899H6.49906V20.9199H6.70906V21.0899H6.91906V20.6149H6.72906V20.7849H6.51906V20.6149L6.30906 20.6199ZM6.30906 19.2199V18.7449H6.49906V18.9149H6.70906V18.7499H6.91906V19.2249H6.72906V19.0499H6.51906V19.2399L6.30906 19.2199ZM8.91906 18.8999V19.2549H9.58406L8.91906 18.8999ZM6.19906 20.9499V20.5749H5.53906L6.19906 20.9499ZM6.19906 18.8749V19.2499H5.53906L6.19906 18.8749ZM8.91906 20.9499V20.5749H9.58406L8.91906 20.9499Z" fill="#383739"/>
<path d="M9.3345 20.275V20.465H9.5045V20.015H9.3345V20.185H9.1095V20.015H8.9195V20.445H9.1095V20.275H9.3345ZM8.6195 20.9V21.09H8.7895V20.64H8.6195V20.805H8.3895V20.635H8.2195V21.07H8.3895V20.9H8.6195ZM9.3345 19.56V19.39H9.5045V19.825H9.3345V19.65H9.1095V19.84H8.9195V19.385H9.1095V19.555L9.3345 19.56ZM5.7845 20.275V20.465H5.6145V20.015H5.7845V20.185H6.0095V20.015H6.1995V20.445H6.0095V20.275H5.7845ZM5.7845 19.56V19.39H5.6145V19.825H5.7845V19.65H6.0095V19.84H6.1995V19.385H6.0095V19.555L5.7845 19.56ZM8.6195 18.935V18.765H8.7895V19.2H8.6195V19.03H8.3895V19.22H8.2195V18.77H8.3895V18.935H8.6195ZM6.4995 20.9V21.09H6.3295V20.64H6.4995V20.805H6.7295V20.635H6.9195V21.07H6.7295V20.9H6.4995ZM6.4995 18.935V18.765H6.3295V19.2H6.4995V19.03H6.7295V19.22H6.9195V18.77H6.7295V18.935H6.4995Z" fill="#D22630"/>
<path d="M8.93997 18.915V19.24H9.50497L8.93997 18.915ZM5.59497 20.615L6.15997 20.915V20.615H5.59497Z" fill="#FFC72C"/>
<path d="M6.1795 18.915L5.6145 19.24H6.1795V18.915ZM8.9395 20.615V20.915L9.5045 20.615H8.9395Z" fill="white"/>
<path d="M10.2792 21.24C10.2442 21.375 10.1292 21.47 10.1092 21.62C10.0592 21.47 10.0192 21.335 10.0592 21.185C10.0592 21.07 10.1692 20.995 10.1892 20.865C10.2792 20.955 10.2992 21.09 10.2792 21.24ZM10.2992 21.81C10.2111 21.9303 10.0942 22.0266 9.95922 22.09C9.97922 21.98 9.92422 21.9 9.86422 21.81C9.80922 21.71 9.76922 21.62 9.82922 21.485C9.85304 21.5457 9.885 21.6029 9.92422 21.655C9.97922 21.73 10.0342 21.805 10.0342 21.92C10.1092 21.865 10.1342 21.79 10.1692 21.715C10.2294 21.6024 10.3216 21.5101 10.4342 21.45C10.3942 21.58 10.3742 21.695 10.2992 21.81ZM9.80922 22.185L9.82922 22.375L10.0342 22.225C10.1342 22.125 10.2442 22.09 10.3192 21.975C10.3168 22.0452 10.2984 22.114 10.2655 22.1763C10.2327 22.2386 10.1861 22.2929 10.1292 22.335L9.75422 22.585C9.75422 22.45 9.71422 22.335 9.65422 22.205C9.64534 22.1506 9.6498 22.0949 9.66722 22.0427C9.68464 21.9904 9.71449 21.9432 9.75422 21.905C9.75422 21.995 9.76922 22.09 9.80922 22.165V22.185ZM9.52422 22.62L9.37422 22.885C9.50422 22.845 9.62422 22.77 9.75422 22.695C9.88422 22.62 10.0342 22.585 10.1692 22.47C10.1092 22.715 9.93922 22.845 9.71922 22.92C9.56422 22.96 9.41422 22.94 9.21922 23.02C9.24457 22.8872 9.29009 22.759 9.35422 22.64L9.48922 22.375C9.52422 22.45 9.54422 22.525 9.52422 22.625V22.62ZM9.03422 22.98C8.98611 23.0567 8.92117 23.1216 8.84422 23.17C9.03422 23.17 9.18422 23.07 9.37422 23.055C9.48922 23.055 9.59922 23.095 9.71422 23.075C9.58422 23.17 9.42922 23.265 9.26422 23.265C9.05422 23.3 8.84422 23.265 8.61422 23.265C8.72922 23.185 8.78922 23.075 8.84422 22.98C8.94422 22.83 9.03422 22.73 9.20422 22.715C9.12922 22.79 9.08922 22.905 9.03422 22.98ZM8.37422 23.28C8.69422 23.34 9.01422 23.415 9.35422 23.415C8.99861 23.5632 8.59991 23.5703 8.23922 23.435C8.04922 23.375 7.87922 23.32 7.72922 23.335C7.52422 23.335 7.23922 23.45 6.93422 23.755L6.82422 23.66C7.25922 23.28 7.82422 23.185 8.37422 23.28Z" fill="#FFC72C"/>
</g>
<defs>
<clipPath id="clip0_11930_68411">
<rect width="36" height="24" rx="2" fill="white"/>
</clipPath>
</defs>
</svg>
