<svg width="36" height="24" viewBox="0 0 36 24" fill="none" xmlns="http://www.w3.org/2000/svg">
<rect width="36" height="24" rx="2" fill="#E70013"/>
<path d="M17.9993 5.95995C16.4061 5.95332 14.8754 6.57989 13.7441 7.70183C12.6128 8.82377 11.9735 10.3492 11.9668 11.9425C11.9602 13.5357 12.5868 15.0664 13.7087 16.1977C14.8307 17.329 16.3561 17.9683 17.9493 17.975C19.5426 17.9816 21.0733 17.355 22.2046 16.2331C23.3359 15.1111 23.9752 13.5857 23.9818 11.9925C23.9885 10.3992 23.3619 8.8685 22.24 7.73719C21.118 6.60587 19.5926 5.96658 17.9993 5.95995ZM21.5993 14.65C21.0363 15.4116 20.2474 15.9761 19.3448 16.2632C18.4422 16.5503 17.4721 16.5453 16.5725 16.2489C15.6729 15.9525 14.8898 15.3799 14.3347 14.6125C13.7796 13.8451 13.4807 12.9221 13.4807 11.975C13.4807 11.0278 13.7796 10.1048 14.3347 9.33744C14.8898 8.57004 15.6729 7.99737 16.5725 7.70097C17.4721 7.40458 18.4422 7.39957 19.3448 7.68667C20.2474 7.97377 21.0363 8.53833 21.5993 9.29995C21.0822 8.83416 20.4411 8.52828 19.7536 8.41933C19.0662 8.31038 18.3619 8.40304 17.7261 8.68609C17.0902 8.96914 16.5501 9.43044 16.171 10.0142C15.7919 10.5979 15.5901 11.2789 15.5901 11.975C15.5901 12.671 15.7919 13.352 16.171 13.9358C16.5501 14.5195 17.0902 14.9808 17.7261 15.2638C18.3619 15.5469 19.0662 15.6395 19.7536 15.5306C20.4411 15.4216 21.0822 15.1157 21.5993 14.65ZM21.3643 13.565L19.4943 12.96L18.3393 14.55V12.585L16.4693 11.975L18.3393 11.365V9.39995L19.4943 10.99L21.3643 10.385L20.2093 11.975L21.3643 13.565Z" fill="white"/>
</svg>
