<svg width="36" height="24" viewBox="0 0 36 24" fill="none" xmlns="http://www.w3.org/2000/svg">
<rect width="36" height="24" rx="2" fill="#E30A17"/>
<path fill-rule="evenodd" clip-rule="evenodd" d="M22.3504 12.3749C22.3504 15.6849 19.6204 18.3699 16.2504 18.3699C12.8804 18.3699 10.1504 15.6849 10.1504 12.3699C10.1504 9.05488 12.8804 6.37988 16.2504 6.37988C19.6204 6.37988 22.3504 9.06488 22.3504 12.3749Z" fill="white"/>
<path fill-rule="evenodd" clip-rule="evenodd" d="M22.6505 12.375C22.6505 15.025 20.4705 17.17 17.7755 17.17C15.0805 17.17 12.8955 15.02 12.8955 12.37C12.8955 9.72002 15.0805 7.58002 17.7755 7.58002C20.4705 7.58002 22.6555 9.72502 22.6555 12.375H22.6505Z" fill="#E30A17"/>
<path fill-rule="evenodd" clip-rule="evenodd" d="M23.5349 9.57507L23.4849 11.7901L21.4199 12.3501L23.4599 13.0751L23.4099 15.1101L24.7349 13.5201L26.7449 14.2201L25.5849 12.5151L26.9999 10.8201L24.8249 11.4201L23.5349 9.57007V9.57507Z" fill="white"/>
</svg>
