<svg width="36" height="24" viewBox="0 0 36 24" fill="none" xmlns="http://www.w3.org/2000/svg">
<rect width="36" height="24" rx="2" fill="#009FCA"/>
<path fill-rule="evenodd" clip-rule="evenodd" d="M29.6648 6.13496H31.0498L29.9348 6.89496L30.3598 8.12996L29.2448 7.36496L28.1348 8.12996L28.5598 6.89496L27.4448 6.13496H28.8198L29.2448 4.89996L29.6648 6.13496ZM26.2048 15.975H27.5848L26.4698 16.735L26.8948 17.97L25.7798 17.205L24.6648 17.97L25.0948 16.735L23.9798 15.975H25.3498L25.7748 14.74L26.2048 15.975ZM29.6648 13.745H31.0498L29.9348 14.505L30.3598 15.74L29.2448 14.975L28.1348 15.74L28.5598 14.505L27.4448 13.745H28.8198L29.2448 12.51L29.6648 13.745ZM14.7898 20.885H16.1698L15.0498 21.64L15.4798 22.87L14.3648 22.11L13.2498 22.87L13.6798 21.64L12.5598 20.875H13.9398L14.3648 19.645L14.7898 20.885ZM17.9198 17.06H16.5398L17.6548 16.295L17.2298 15.065L18.3448 15.825L19.4598 15.065L19.0298 16.295L20.1448 17.06H18.7698L18.3448 18.29L17.9198 17.06ZM21.9848 11.435H20.5998L21.7148 10.675L21.2898 9.43996L22.4048 10.205L23.5198 9.43996L23.0898 10.675L24.2048 11.435H22.8298L22.4048 12.67L21.9848 11.435ZM25.3998 10.27H24.0198L25.1398 9.50496L24.7098 8.27496L25.8248 9.03496L26.9398 8.27496L26.5098 9.50496L27.6298 10.27H26.2498L25.8248 11.5L25.3998 10.27ZM21.9848 20H20.5998L21.7148 19.24L21.2998 18L22.4148 18.76L23.5298 18L23.0998 19.235L24.2148 19.995H22.8398L22.4148 21.23L21.9848 20ZM17.9198 20.995H16.5398L17.6548 20.235L17.2298 19L18.3448 19.76L19.4598 19L19.0298 20.23L20.1498 21H18.7748L18.3498 22.235L17.9198 20.995Z" fill="#FFF40D"/>
<path d="M0 0H16V12H0V0Z" fill="#012169"/>
<path d="M1.875 0L7.975 4.525L14.05 0H16V1.55L10 6.025L16 10.475V12H14L8 7.525L2.025 12H0V10.5L5.975 6.05L0 1.6V0H1.875Z" fill="white"/>
<path d="M10.6 7.025L16 11V12L9.225 7.025H10.6ZM6 7.525L6.15 8.4L1.35 12H0L6 7.525ZM16 0V0.075L9.775 4.775L9.825 3.675L14.75 0H16ZM0 0L5.975 4.4H4.475L0 1.05V0Z" fill="#C8102E"/>
<path d="M6.025 0V12H10.025V0H6.025ZM0 4V8H16V4H0Z" fill="white"/>
<path d="M0 4.825V7.225H16V4.825H0ZM6.825 0V12H9.225V0H6.825Z" fill="#C8102E"/>
</svg>
