<svg width="36" height="24" viewBox="0 0 36 24" fill="none" xmlns="http://www.w3.org/2000/svg">
<rect width="36" height="24" rx="2" fill="#FF0000"/>
<path d="M0 0H18V12H0V0Z" fill="#000095"/>
<path d="M9.78647 3.56824C10.1336 3.68037 10.4482 3.86475 10.7126 4.10366L11.2546 2.1001L9.78647 3.56824Z" fill="white"/>
<path d="M10.8969 4.28797L12.8996 3.7551L11.4342 5.22049C11.3223 4.87088 11.1372 4.55402 10.8969 4.28797Z" fill="white"/>
<path d="M11.4993 5.4655C11.536 5.63788 11.5553 5.81669 11.5553 6.00001C11.5553 6.1834 11.536 6.36227 11.4993 6.53471L13.4996 6.0001L11.4993 5.4655Z" fill="white"/>
<path d="M9.00012 8.25487C7.75486 8.25487 6.74512 7.24512 6.74512 5.99987C6.74512 4.75473 7.75499 3.74487 9.00012 3.74487C10.2455 3.74487 11.2551 4.75448 11.2551 5.99987C11.2551 7.2451 10.2453 8.25487 9.00012 8.25487Z" fill="white"/>
<path d="M7.28801 4.10365C7.55245 3.86473 7.86711 3.68034 8.21424 3.56821L6.75488 2.09998L7.28801 4.10365Z" fill="white"/>
<path d="M7.10361 4.2881L5.09961 3.75488L6.56828 5.21468C6.68033 4.86742 6.86468 4.55264 7.10361 4.2881Z" fill="white"/>
<path d="M6.50085 5.46765L4.5 6.00002L6.50086 6.5324C6.46446 6.36067 6.44531 6.18258 6.44531 6.00001C6.44531 5.81745 6.46446 5.63936 6.50085 5.46765Z" fill="white"/>
<path d="M6.56854 6.78616L5.09961 8.2551L7.10439 7.71278C6.86528 7.44827 6.68074 7.13347 6.56854 6.78616Z" fill="white"/>
<path d="M7.2878 7.89617L6.75461 9.9001L8.2208 8.43391C7.87098 8.32197 7.55395 8.13669 7.2878 7.89617Z" fill="white"/>
<path d="M8.46465 8.49876L8.99949 10.5L9.53423 8.49914C9.36203 8.53575 9.18342 8.55501 9.00031 8.55501C8.81659 8.55501 8.63739 8.53561 8.46465 8.49876Z" fill="white"/>
<path d="M9.77968 8.43396L11.2546 9.89998L10.7126 7.89636C10.4465 8.13682 10.1295 8.32205 9.77968 8.43396Z" fill="white"/>
<path d="M10.8961 7.71295L12.9 8.25502L11.434 6.78013C11.322 7.1299 11.1367 7.44687 10.8961 7.71295Z" fill="white"/>
<path d="M8.4681 3.50052C8.63977 3.46414 8.81781 3.44501 9.00031 3.44501C9.18288 3.44501 9.36097 3.46415 9.53269 3.50055L9.00039 1.5L8.4681 3.50052Z" fill="white"/>
</svg>
