<svg width="36" height="24" viewBox="0 0 36 24" fill="none" xmlns="http://www.w3.org/2000/svg">
<g clip-path="url(#clip0_11930_68443)">
<path fill-rule="evenodd" clip-rule="evenodd" d="M-0.000732422 20.0014H35.9993V23.9998H-0.000732422V20.0014Z" fill="#DE3908"/>
<path fill-rule="evenodd" clip-rule="evenodd" d="M-0.000732422 16.0031H35.9993V20.0016H-0.000732422V16.0031Z" fill="#FFE700"/>
<path fill-rule="evenodd" clip-rule="evenodd" d="M-0.000732422 11.9999H35.9993V15.9984H-0.000732422V11.9999Z" fill="#000001"/>
<path fill-rule="evenodd" clip-rule="evenodd" d="M-0.000732422 8.0014H35.9993V11.9998H-0.000732422V8.0014Z" fill="#DE3908"/>
<path fill-rule="evenodd" clip-rule="evenodd" d="M-0.000732422 4.00311H35.9993V8.00155H-0.000732422V4.00311Z" fill="#FFE700"/>
<path fill-rule="evenodd" clip-rule="evenodd" d="M-0.000732422 -6.10352e-05H35.9993V3.99838H-0.000732422V-6.10352e-05Z" fill="#000001"/>
<path fill-rule="evenodd" clip-rule="evenodd" d="M21.7348 12C21.7348 12.9909 21.3412 13.9411 20.6406 14.6417C19.94 15.3424 18.9897 15.736 17.9989 15.736C17.008 15.736 16.0578 15.3424 15.3572 14.6417C14.6565 13.9411 14.2629 12.9909 14.2629 12C14.2629 11.0092 14.6565 10.059 15.3572 9.35833C16.0578 8.65771 17.008 8.2641 17.9989 8.2641C18.9897 8.2641 19.94 8.65771 20.6406 9.35833C21.3412 10.059 21.7348 11.0092 21.7348 12Z" fill="#FFFDFF" stroke="black" stroke-width="0.046875"/>
<path fill-rule="evenodd" clip-rule="evenodd" d="M17.3426 9.13597L17.0989 8.69066C17.1926 8.59691 17.3473 8.52191 17.6004 8.52191L17.5723 9.0141L17.3426 9.13597Z" fill="#DE3108" stroke="black" stroke-width="0.046875"/>
<path fill-rule="evenodd" clip-rule="evenodd" d="M17.5774 9.01397L17.6102 8.52178C17.6102 8.52178 18.1118 8.49366 18.3836 8.82178L18.1165 9.20616L17.5774 9.01397Z" fill="#FFE700" stroke="black" stroke-width="0.046875"/>
<path fill-rule="evenodd" clip-rule="evenodd" d="M18.1213 9.20145L18.3698 8.81708C18.5338 8.99052 18.6041 9.11239 18.6276 9.29989C18.6323 9.30458 18.2385 9.39833 18.2385 9.39364L18.1213 9.20145Z" fill="#DE3108" stroke="black" stroke-width="0.046875"/>
<path fill-rule="evenodd" clip-rule="evenodd" d="M17.4648 15.5202C17.4648 15.5202 17.9288 14.9906 18.8288 15.1031C18.6929 14.8827 18.2523 14.9109 18.2523 14.9109C18.2523 14.9109 18.121 13.8796 18.2241 13.8234C18.3273 13.7671 18.7866 13.8281 18.7866 13.8281C18.8429 13.8281 18.946 13.6687 18.8616 13.5656C18.782 13.4624 18.5429 13.0734 18.6413 12.9937C18.7398 12.9187 19.2695 13.0406 19.2695 13.0406L17.7695 11.1187C17.7695 11.1187 17.6148 10.3921 17.9241 10.0406C18.2945 9.73587 18.2523 9.40306 18.2429 9.40774C18.1913 9.07024 17.6804 8.83118 17.3335 9.14056C17.132 9.38431 17.2679 9.57181 17.2679 9.57181C17.2679 9.57181 16.7288 9.71712 16.7101 9.81087C16.6867 9.90462 17.3148 9.79681 17.3148 9.79681L17.2538 10.2234C17.2538 10.2234 16.0351 11.3296 16.9726 12.2859L17.0007 12.2484C17.0007 12.2484 17.3288 12.6515 17.671 12.7406C17.9992 13.0687 17.9663 13.0218 17.9663 13.0218C17.9663 13.0218 18.0273 13.5421 17.9663 13.6452C17.8867 13.6218 17.0616 13.589 16.9398 13.6359C16.8273 13.6734 16.4054 13.6499 16.5085 14.3437L16.6632 13.9921C16.6632 13.9921 16.6491 14.2406 16.7523 14.3296C16.7335 14.0671 16.8507 13.889 16.8507 13.889C16.8507 13.889 16.8695 14.1796 16.9351 14.2171C17.0007 14.264 17.0007 13.7484 17.357 13.7952C17.7038 13.8374 17.9616 13.8234 17.9616 13.8234C17.9616 13.8234 18.0788 14.8265 18.0413 14.9202C17.7882 14.8593 17.1788 14.9437 17.1413 15.0984C17.4976 15.0749 17.6617 15.1171 17.6617 15.1171C17.6617 15.1171 17.3757 15.3749 17.4648 15.5202Z" fill="black" stroke="black" stroke-width="0.0421875" stroke-linecap="round" stroke-linejoin="round"/>
<path fill-rule="evenodd" clip-rule="evenodd" d="M17.6053 10.0686C17.6053 10.0686 16.7194 11.0436 17.1038 11.7889C17.1225 11.6858 17.1131 11.6202 17.1272 11.6248C17.1038 11.6108 17.235 11.7139 17.2256 11.6952C17.2256 11.6389 17.1881 11.5217 17.1881 11.5217L17.3053 11.5545L17.235 11.4233L17.4084 11.442C17.4084 11.442 17.3475 11.2827 17.3663 11.2827L17.5069 11.292C17.2538 10.842 17.4928 10.467 17.6053 10.0639V10.0686Z" fill="#9CA69C" stroke="#9CA69C" stroke-width="0.0421875" stroke-linecap="round" stroke-linejoin="round"/>
<path fill-rule="evenodd" clip-rule="evenodd" d="M17.9142 9.22968C17.9142 9.22968 17.9611 9.56718 17.7736 9.66093C17.7501 9.68436 17.6329 9.72186 17.6517 9.79218C17.6704 9.88593 17.722 9.86718 17.7923 9.84843C17.9845 9.81561 18.2095 9.4078 17.9142 9.22968Z" fill="#9CA69C" stroke="#9CA69C" stroke-width="0.046875"/>
<path fill-rule="evenodd" clip-rule="evenodd" d="M17.5872 9.51556C17.5872 9.53421 17.5798 9.5521 17.5666 9.56528C17.5534 9.57847 17.5355 9.58588 17.5168 9.58588C17.4982 9.58588 17.4803 9.57847 17.4671 9.56528C17.4539 9.5521 17.4465 9.53421 17.4465 9.51556C17.4465 9.49692 17.4539 9.47903 17.4671 9.46585C17.4803 9.45266 17.4982 9.44525 17.5168 9.44525C17.5355 9.44525 17.5534 9.45266 17.5666 9.46585C17.5798 9.47903 17.5872 9.49692 17.5872 9.51556Z" fill="white"/>
<path fill-rule="evenodd" clip-rule="evenodd" d="M17.3003 9.79681C17.2534 9.839 17.0097 10.0921 17.2534 10.1859C17.5018 10.1203 17.4315 10.0734 17.4878 10.0171C17.4878 9.89994 17.3659 9.87181 17.3003 9.8015V9.79681Z" fill="#DE3108" stroke="black" stroke-width="0.046875"/>
<path fill-rule="evenodd" clip-rule="evenodd" d="M17.8394 12.2109C17.8253 12.2671 17.7691 12.4734 17.8441 12.6328C18.0597 12.539 18.1581 12.5671 18.2284 12.614C18.055 12.4734 17.9847 12.4124 17.8394 12.2109Z" fill="#9CA69C" stroke="#9CA69C" stroke-width="0.0421875" stroke-linecap="round" stroke-linejoin="round"/>
<path fill-rule="evenodd" clip-rule="evenodd" d="M18.2053 13.1765L18.2147 13.6546C18.2147 13.6546 18.3834 13.6827 18.4584 13.6546C18.5334 13.6265 18.4584 13.3265 18.2053 13.1765Z" fill="white" stroke="white" stroke-width="0.0421875" stroke-linecap="round" stroke-linejoin="round"/>
<path fill-rule="evenodd" clip-rule="evenodd" d="M19.4049 13.2373C19.4049 13.2373 19.1002 12.4967 18.3174 12.3092C17.5346 12.1217 17.6377 11.2873 17.6987 11.2358C17.7362 11.1655 17.7596 11.053 17.9846 11.1608C18.2096 11.2686 19.2502 11.7889 19.4002 11.817C19.5502 11.8452 19.419 13.2561 19.4096 13.2373H19.4049Z" fill="#9CA69C" stroke="black" stroke-width="0.046875"/>
<path fill-rule="evenodd" clip-rule="evenodd" d="M18.6654 12.3047C18.6514 12.3141 19.7107 12.9328 19.392 13.4625C19.692 13.261 19.5982 12.9141 19.5982 12.9141C19.5982 12.9141 19.842 13.5563 19.242 13.8703C19.3076 13.9266 19.3498 13.9172 19.3498 13.9172L19.2467 14.0157C19.2467 14.0157 19.1998 14.0953 19.6029 13.8985C19.4951 13.9875 19.4857 14.0532 19.4857 14.0532C19.4857 14.0532 19.5139 14.1375 19.7764 13.9078C19.5654 14.1375 19.5185 14.2547 19.5185 14.25C20.0951 14.2032 21.3467 12.3282 19.1248 11.7797L19.2232 11.8828L18.6654 12.3047Z" fill="#DE3108" stroke="black" stroke-width="0.0421875" stroke-linejoin="round"/>
<path fill-rule="evenodd" clip-rule="evenodd" d="M18.7119 12.1217C18.8525 12.2249 18.904 12.2624 18.9228 12.3092C18.7915 12.2811 18.6744 12.2905 18.6744 12.2905C18.6744 12.2905 18.3884 12.0186 18.3369 11.9952C18.2994 11.9952 18.0744 11.8546 18.0744 11.8546C17.9665 11.7983 17.8634 11.4186 18.2712 11.5264C18.4277 11.608 18.5889 11.68 18.754 11.7421L19.2556 11.9014L19.5462 12.2249C19.5462 12.2249 19.0306 11.9717 18.965 11.9671C19.1056 12.0796 19.1853 12.2389 19.1853 12.2389C19.0212 12.1921 18.8806 12.1452 18.7119 12.1217Z" fill="white" stroke="black" stroke-width="0.0421875" stroke-linecap="round" stroke-linejoin="round"/>
<path d="M16.7053 9.83891C16.7053 9.83891 17.1975 9.71704 17.2584 9.73579" stroke="white" stroke-width="0.0421875" stroke-linecap="round"/>
</g>
<defs>
<clipPath id="clip0_11930_68443">
<rect width="36" height="24" rx="2" fill="white"/>
</clipPath>
</defs>
</svg>
