<svg width="36" height="24" viewBox="0 0 36 24" fill="none" xmlns="http://www.w3.org/2000/svg">
<rect width="36" height="24" rx="2" fill="#4B92DB"/>
<path d="M22.1946 12.57L22.2041 12.564C22.2256 12.55 22.2446 12.5376 22.2446 12.59C22.2413 12.6263 22.2293 12.6299 22.2157 12.6339C22.2087 12.636 22.2014 12.6382 22.1946 12.645C22.1796 12.665 22.1646 12.59 22.1946 12.57Z" fill="white"/>
<path d="M22.4496 12.355C22.4495 12.3533 22.4495 12.3516 22.4496 12.35C22.449 12.3377 22.4456 12.3257 22.4396 12.315L22.4146 12.33L22.4196 12.35C22.4196 12.36 22.4196 12.37 22.4296 12.375C22.4346 12.38 22.4396 12.38 22.4496 12.375L22.4446 12.35L22.4496 12.355Z" fill="white"/>
<path d="M22.4046 12.44L22.4296 12.43C22.4236 12.4102 22.4186 12.3902 22.4146 12.37L22.3846 12.38L22.4046 12.44Z" fill="white"/>
<path d="M22.2746 12.5H22.2446C22.2446 12.52 22.2446 12.55 22.2696 12.55L22.2796 12.525L22.2746 12.5Z" fill="white"/>
<path d="M22.1446 11.9C22.144 11.8943 22.1418 11.889 22.1382 11.8846C22.1347 11.8801 22.13 11.8768 22.1246 11.875C22.1046 11.865 22.0696 11.88 22.0496 11.895L22.0646 11.92C22.0846 11.905 22.1096 11.9 22.1146 11.9H22.1446Z" fill="white"/>
<path d="M20.9946 13.06C20.9908 13.0409 20.9725 13.0306 20.9618 13.0245C20.9584 13.0226 20.9558 13.0212 20.9546 13.02L20.9446 13.05L20.9546 13.055L20.9596 13.08L20.9546 13.09L20.9746 13.11C20.9946 13.095 20.9996 13.075 20.9946 13.06Z" fill="white"/>
<path d="M21.0446 12.96H20.9946V12.915L21.0446 12.925V12.96Z" fill="white"/>
<path d="M20.1048 12.3999H20.0698V12.4999H20.1048V12.3999Z" fill="white"/>
<path d="M20.7098 11.4099C20.6898 11.3449 20.5648 11.3999 20.5898 11.4299C20.6114 11.4586 20.6433 11.4564 20.667 11.4547C20.6762 11.454 20.6842 11.4535 20.6898 11.4549L20.6945 11.4561C20.7127 11.461 20.7283 11.4652 20.7098 11.4099Z" fill="white"/>
<path d="M20.6948 10.7799V10.7499L20.7498 10.7599L20.7448 10.7899L20.6948 10.7799Z" fill="white"/>
<path d="M20.5098 10.8549L20.4698 10.8299L20.4848 10.7999L20.5198 10.8249L20.5548 10.7999L20.5748 10.7949V10.8099L20.5848 10.8349L20.5548 10.8449V10.8349L20.5248 10.8549H20.5098Z" fill="white"/>
<path d="M19.9748 9.76488C19.9748 9.78488 20.1498 9.79488 20.1248 9.76488C20.1098 9.74988 20.1398 9.71488 20.1398 9.71488L20.2898 9.72488C20.3148 9.72488 20.3348 9.71988 20.3198 9.69488C20.3048 9.67488 20.2598 9.67488 20.2598 9.67488C20.2598 9.67488 20.1948 9.68988 20.1448 9.65988C20.0898 9.62988 20.1548 9.61988 20.1648 9.61988C20.1748 9.61988 20.2198 9.58488 20.1998 9.55988C20.1798 9.53488 20.1998 9.49488 20.1998 9.50988C20.1998 9.52488 20.2548 9.53988 20.2648 9.52488C20.2748 9.50988 20.2648 9.46488 20.2398 9.44988C20.228 9.44276 20.2375 9.43676 20.2487 9.42975C20.261 9.422 20.2753 9.41301 20.2648 9.39988L20.2348 9.33988C20.2348 9.33988 20.2048 9.38488 20.1448 9.36488C20.1448 9.36488 20.1348 9.45988 20.1048 9.47988H20.0348L20.0648 9.51988L20.0684 9.52336C20.0845 9.53917 20.1123 9.56633 20.0798 9.58488C20.0448 9.60488 20.0848 9.59988 20.0848 9.59988C20.0848 9.59988 20.0798 9.70488 20.0348 9.68988C19.9898 9.67488 19.9748 9.74488 19.9748 9.76488Z" fill="white"/>
<path d="M19.9048 9.81488C19.8898 9.80488 19.8298 9.80988 19.8048 9.81488C19.7798 9.81488 19.7848 9.83988 19.8048 9.86488L19.8648 9.85488C19.8648 9.85488 19.9098 9.83488 19.9048 9.81488Z" fill="white"/>
<path d="M20.4298 9.52488L20.3998 9.50988L20.3848 9.53988L20.4148 9.55488L20.4298 9.52488Z" fill="white"/>
<path d="M20.3648 9.48988H20.3348V9.52988H20.3648V9.48988Z" fill="white"/>
<path d="M20.3048 9.28988H20.2748V9.31488H20.3048V9.28988Z" fill="white"/>
<path d="M20.1948 9.25988V9.28988L20.2448 9.28488V9.25988H20.1948Z" fill="white"/>
<path d="M19.7548 9.76488L19.7848 9.77988L19.7998 9.74488L19.7698 9.72988L19.7548 9.76488Z" fill="white"/>
<path d="M19.6748 9.67988V9.65488H19.6248V9.68488L19.6748 9.67988Z" fill="white"/>
<path d="M17.5698 10.7199L17.6198 10.7249L17.6248 10.7549H17.6548V10.8549L17.5948 10.8799L17.5698 10.9099V10.9549L17.5598 11.0149L17.5348 11.0449L17.4748 11.0599L17.4248 11.0899L17.4148 11.1299L17.3848 11.1649L17.3648 11.1999L17.3598 11.2499L17.3298 11.2649L17.3198 11.3149L17.2298 11.2799L17.2148 11.2049L17.2398 11.1099H17.3398L17.3698 11.0299L17.3998 10.9949V10.9549L17.4898 10.8699L17.5298 10.8599L17.5398 10.8349L17.5598 10.8149L17.5548 10.7849H17.5298V10.7449H17.5548L17.5698 10.7199Z" fill="white"/>
<path d="M17.7598 11.7599C17.7598 11.7599 17.8398 11.7399 17.8398 11.6799L17.7248 11.6749L17.7148 11.6449L17.6748 11.6499V11.7199L17.7098 11.7449L17.7598 11.7599Z" fill="white"/>
<path d="M18.1207 11.3417C18.1172 11.3636 18.1147 11.379 18.1098 11.3549L18.1083 11.3481C18.1034 11.3261 18.0953 11.2894 18.0548 11.2849L18.1448 11.2199C18.1448 11.2199 18.1598 11.2949 18.1398 11.2899C18.1295 11.2873 18.1245 11.3182 18.1207 11.3417Z" fill="white"/>
<path d="M18.3874 11.1343C18.3837 11.1202 18.3801 11.1068 18.3748 11.0949C18.3648 11.0749 18.3448 11.0599 18.3248 11.0999V11.1649C18.3536 11.21 18.3871 11.2519 18.4248 11.2899C18.4498 11.3049 18.4898 11.2699 18.4648 11.2549C18.4097 11.2181 18.3978 11.1733 18.3874 11.1343Z" fill="white"/>
<path d="M17.765 12.1086C17.7593 12.1223 17.7542 12.1344 17.75 12.1401H17.755C17.755 12.1401 17.765 12.1801 17.785 12.1801C17.7965 12.1778 17.8058 12.1734 17.8145 12.1693C17.8248 12.1645 17.8342 12.1601 17.845 12.1601C17.86 12.1551 17.87 12.1251 17.875 12.1001C17.885 12.0651 17.87 12.0501 17.87 12.0501C17.87 12.0501 17.85 12.0801 17.82 12.0501C17.7985 12.0286 17.7796 12.0738 17.765 12.1086Z" fill="white"/>
<path d="M18.4048 12.6699L18.3898 12.6449L18.3748 12.6299L18.4098 12.6049L18.4398 12.6199L18.4048 12.6699Z" fill="white"/>
<path d="M19.0098 12.4549L18.9698 12.4799L18.9548 12.4499L18.9948 12.4249L19.0098 12.4549Z" fill="white"/>
<path d="M21.0298 10.2849L21.0248 10.3249H21.0598V10.2849H21.0298Z" fill="white"/>
<path d="M20.9998 10.4499L21.0248 10.4649L21.0398 10.4349L21.0148 10.4199L20.9998 10.4499Z" fill="white"/>
<path d="M20.9598 10.0149L20.9798 10.0649L21.0198 10.0849C21.0198 10.0849 21.0348 9.96488 21.0098 9.95988C20.9848 9.95488 20.9948 9.88488 20.9948 9.88488C20.9948 9.88488 21.0198 9.78988 20.9798 9.78988C20.9607 9.78988 20.9595 9.7734 20.9583 9.75602C20.9572 9.74165 20.9562 9.72667 20.9448 9.71988C20.933 9.71098 20.9317 9.68272 20.9305 9.65703C20.9297 9.63942 20.9289 9.62301 20.9248 9.61488C20.9219 9.60905 20.9199 9.60279 20.9178 9.59648C20.9127 9.58115 20.9076 9.5655 20.8898 9.55488C20.8763 9.54678 20.8789 9.56345 20.8817 9.58208C20.8841 9.59796 20.8867 9.61528 20.8798 9.61988L20.8398 9.66488C20.8311 9.67358 20.8426 9.68395 20.8538 9.69406C20.8619 9.70139 20.8698 9.70858 20.8698 9.71488L20.8798 9.80988C20.8798 9.80988 20.9198 9.82488 20.9198 9.84488C20.9215 9.85154 20.9221 9.86043 20.9226 9.86932C20.9237 9.8871 20.9248 9.90488 20.9348 9.90488C20.9498 9.91488 20.9798 9.93488 20.9698 9.95488C20.9598 9.97488 20.9598 10.0149 20.9598 10.0149Z" fill="white"/>
<path d="M20.6802 9.26036C20.6729 9.25388 20.6653 9.24721 20.6598 9.23988L20.7198 9.23488C20.7198 9.23488 20.7448 9.28488 20.7598 9.28488L20.7657 9.28677C20.7823 9.29215 20.8098 9.30101 20.8098 9.30988L20.8298 9.39488C20.8298 9.39488 20.8548 9.43988 20.8798 9.45988C20.8798 9.45988 20.8498 9.52988 20.8498 9.51488C20.8498 9.49488 20.8448 9.49488 20.8198 9.49488C20.7948 9.49488 20.7848 9.46488 20.7848 9.44488C20.7948 9.42488 20.7948 9.37988 20.7848 9.35488C20.7775 9.34009 20.7646 9.33897 20.7463 9.33737C20.7398 9.33681 20.7327 9.33618 20.7248 9.33488C20.7013 9.33095 20.7024 9.32083 20.704 9.30697C20.7044 9.3032 20.7048 9.29915 20.7048 9.29488C20.7048 9.28221 20.6928 9.27155 20.6802 9.26036Z" fill="white"/>
<path d="M20.6598 9.14988C20.6798 9.15988 20.6948 9.17488 20.7098 9.19488L20.7598 9.17988C20.7598 9.17988 20.7648 9.12988 20.7398 9.14488C20.7321 9.15261 20.7244 9.14308 20.716 9.13271C20.7081 9.12296 20.6995 9.11245 20.6898 9.11488C20.6747 9.11866 20.6653 9.10527 20.653 9.0877C20.649 9.08205 20.6447 9.07596 20.6398 9.06988C20.633 9.06129 20.6291 9.05506 20.6258 9.04997C20.6197 9.04026 20.6163 9.03472 20.5998 9.02488C20.5748 9.00988 20.5598 9.00988 20.5598 9.02988C20.5598 9.03852 20.5645 9.0453 20.569 9.05182C20.5749 9.06039 20.5805 9.06852 20.5748 9.07988C20.5724 9.08509 20.5712 9.09083 20.5715 9.0966C20.5718 9.10237 20.5735 9.10797 20.5764 9.11292C20.5794 9.11787 20.5836 9.12201 20.5885 9.12497C20.5935 9.12793 20.5991 9.12961 20.6048 9.12988C20.6214 9.12988 20.6346 9.13674 20.6499 9.14478L20.6598 9.14988Z" fill="white"/>
<path d="M20.3598 8.86488V8.81988L20.3298 8.82488L20.3348 8.86488H20.3598Z" fill="white"/>
<path d="M17.6746 14.385L17.6246 14.36L17.6096 14.385L17.6396 14.4L17.6296 14.41L17.6496 14.435L17.6896 14.395L17.6746 14.385Z" fill="white"/>
<path d="M17.2846 14.02L17.2646 13.995L17.2346 14.02L17.2196 14.035L17.2396 14.045L17.2746 14.07L17.2896 14.045L17.2696 14.03L17.2846 14.02Z" fill="white"/>
<path d="M15.745 11.1199L15.835 11.1299V11.4749C15.835 11.4749 15.795 11.5649 15.795 11.5049C15.7884 11.4716 15.7552 11.4671 15.7278 11.4634C15.714 11.4616 15.7017 11.4599 15.695 11.4549C15.675 11.4349 15.7 11.3399 15.71 11.3699C15.72 11.3999 15.78 11.3949 15.78 11.3949C15.78 11.3949 15.815 11.2249 15.775 11.1549H15.75L15.745 11.1199Z" fill="white"/>
<path d="M15.8349 11.56L15.8649 11.555L15.8699 11.52L15.7949 11.57L15.7449 11.54V11.66L15.8249 11.765L15.8549 11.695L15.8649 11.65L15.8299 11.635L15.8349 11.56Z" fill="white"/>
<path d="M15.8749 11.88V11.83H15.8399V11.875L15.8749 11.88Z" fill="white"/>
<path d="M15.8299 12.12V12.085L15.7899 12.09V12.125L15.8299 12.12Z" fill="white"/>
<path d="M15.8899 11.965C15.8958 11.965 15.9016 11.9626 15.9058 11.9584C15.91 11.9541 15.9124 11.9484 15.9124 11.9425C15.9124 11.9365 15.91 11.9308 15.9058 11.9265C15.9016 11.9223 15.8958 11.92 15.8899 11.92C15.8868 11.9199 15.8837 11.9205 15.8809 11.9218C15.878 11.9231 15.8756 11.925 15.8736 11.9275C15.8717 11.9299 15.8703 11.9327 15.8697 11.9358C15.869 11.9388 15.8691 11.942 15.8699 11.945C15.8699 11.955 15.8799 11.965 15.8899 11.965Z" fill="white"/>
<path d="M15.9443 12.05C15.9443 12.061 15.9353 12.07 15.9243 12.07C15.9133 12.07 15.9043 12.061 15.9043 12.05C15.9043 12.0389 15.9133 12.03 15.9243 12.03C15.9353 12.03 15.9443 12.0389 15.9443 12.05Z" fill="white"/>
<path d="M15.9243 11.49C15.9353 11.49 15.9443 11.481 15.9443 11.47C15.9443 11.4589 15.9353 11.45 15.9243 11.45C15.9133 11.45 15.9043 11.4589 15.9043 11.47C15.9043 11.481 15.9133 11.49 15.9243 11.49Z" fill="white"/>
<path d="M17.8199 9.68994H17.8599V9.71994H17.8199V9.68994Z" fill="white"/>
<path d="M17.7349 9.74994L17.7699 9.75494V9.72494H17.7399L17.7349 9.74994Z" fill="white"/>
<path d="M17.7349 9.79994L17.6999 9.78494V9.75494L17.7449 9.76994L17.7349 9.79994Z" fill="white"/>
<path d="M17.6649 9.83494V9.80494L17.6899 9.79994L17.6949 9.82994L17.6649 9.83494Z" fill="white"/>
<path d="M17.4246 7.53996C17.4246 7.51996 17.5246 7.51996 17.5396 7.53496C17.5442 7.53959 17.5465 7.54517 17.5487 7.55067C17.5537 7.56301 17.5585 7.57496 17.5896 7.57496C17.6268 7.57496 17.6196 7.59542 17.6132 7.61381C17.6118 7.61769 17.6105 7.62148 17.6096 7.62496C17.6096 7.63496 17.5596 7.62996 17.5496 7.61496C17.5496 7.59996 17.4696 7.59496 17.4696 7.59496C17.4696 7.59496 17.4296 7.56496 17.4246 7.53996Z" fill="white"/>
<path d="M17.0346 8.81496L17.0396 8.86996H17.1146C17.1446 8.86996 17.0896 8.83496 17.0896 8.83496C17.0896 8.83496 17.0296 8.83996 17.0396 8.81496H17.0346Z" fill="white"/>
<path d="M17.1346 8.81496L17.1496 8.79496L17.1796 8.81996L17.1596 8.83996L17.1346 8.81496Z" fill="white"/>
<path d="M16.2246 7.86996L16.2446 7.84996L16.2746 7.87996L16.2546 7.89996L16.2246 7.86996Z" fill="white"/>
<path d="M15.1449 14.7199L15.1399 14.6749L15.0949 14.6149L15.1599 14.6249L15.2199 14.6799L15.2499 14.7449L15.2099 14.7649L15.1949 14.7349L15.1449 14.7199Z" fill="white"/>
<path fill-rule="evenodd" clip-rule="evenodd" d="M19.173 9.69457L18.9722 9.8919C18.9441 9.89389 18.9146 9.88996 18.9146 9.88996C18.8996 9.93496 18.8296 9.88496 18.8496 9.85496C18.8696 9.82496 18.8696 9.80496 18.8696 9.80496L18.8446 9.79496L18.8146 9.85496C18.7496 9.85496 18.7296 9.89496 18.7396 9.91996C18.7465 9.93137 18.7429 9.93132 18.736 9.93123C18.7279 9.93112 18.715 9.93094 18.7096 9.94996C18.7055 9.97884 18.715 9.98389 18.7325 9.9932C18.7362 9.99517 18.7402 9.99734 18.7446 9.99996C18.7596 10.0075 18.7559 10.0112 18.7509 10.0162C18.7459 10.0212 18.7396 10.0275 18.7496 10.04C18.7585 10.051 18.7751 10.0523 18.7884 10.0533C18.7955 10.0539 18.8017 10.0543 18.805 10.0562L18.7684 10.0922C18.7326 10.1037 18.6946 10.095 18.6946 10.095C18.6934 10.1075 18.6864 10.116 18.6766 10.1214C18.5964 10.0551 18.5074 10.0014 18.4126 9.96144C18.4178 9.95742 18.4239 9.95484 18.4304 9.95213C18.4448 9.94611 18.4607 9.93948 18.4696 9.91496C18.4896 9.85996 18.4996 9.76496 18.4996 9.76496C18.4996 9.76496 18.4196 9.76496 18.4146 9.78496C18.4096 9.80996 18.3596 9.82996 18.3596 9.82996C18.3596 9.82996 18.3196 9.84496 18.3346 9.86496C18.3496 9.88496 18.3046 9.89496 18.3046 9.89496C18.3046 9.89496 18.307 9.90912 18.3052 9.92285C18.2258 9.89909 18.1435 9.88456 18.0597 9.87992V9.06992C18.2884 9.07717 18.5138 9.12632 18.7247 9.21492L18.7697 9.10492C18.5445 9.01011 18.3039 8.95757 18.0597 8.94992V8.05992C18.4147 8.06553 18.7656 8.13672 19.0947 8.26992L19.1397 8.15992C18.7964 8.02052 18.4302 7.94593 18.0597 7.93992V7.49554C18.0916 7.49461 18.1063 7.48003 18.1096 7.46996C18.1146 7.44996 18.1196 7.44496 18.1496 7.43996C18.1796 7.43496 18.1446 7.37496 18.1146 7.37996C18.0933 7.37996 18.072 7.37493 18.0597 7.36308V7.12992C18.5314 7.1372 18.9977 7.23215 19.4347 7.40992L19.4747 7.29992C19.0247 7.11827 18.5449 7.02163 18.0597 7.01492V6.11992C18.658 6.12714 19.2498 6.24583 19.8047 6.46992L19.8447 6.35492C19.2578 6.12124 18.6314 6.00242 17.9997 6.00492C17.2333 6.00341 16.4772 6.18113 15.7918 6.52388L15.7897 6.51992C14.8245 7.0052 14.0435 7.79148 13.5647 8.75992C13.2292 9.43768 13.0547 10.1837 13.0547 10.9399C13.0546 11.4121 13.122 11.8818 13.2547 12.3349L13.3697 12.3049C13.2454 11.8809 13.1798 11.4418 13.1747 10.9999H14.0697C14.0738 11.3675 14.1293 11.7327 14.2347 12.0849L14.3497 12.0549C14.2456 11.7127 14.19 11.3576 14.1847 10.9999H14.9997C15.0016 11.1192 15.0107 11.2381 15.0267 11.356C14.97 11.3621 14.9149 11.3799 14.9149 11.3799L14.8899 11.4649C14.8349 11.4699 14.7999 11.5649 14.7999 11.5649C14.7499 11.5799 14.7199 11.6349 14.7349 11.6499C14.7499 11.6649 14.7099 11.6699 14.7099 11.6699V11.7799L14.6849 11.8149V11.9399C14.7199 11.9399 14.7149 11.9899 14.7149 11.9899C14.6649 11.9999 14.6749 12.0649 14.6749 12.0649L14.5699 12.0999L14.5499 12.1299H14.4199L14.3861 12.159C14.3752 12.1261 14.3647 12.0931 14.3547 12.0599L14.2397 12.0899L14.2504 12.1249H14.0999L14.0899 12.0999L14.0399 12.0899V12.0349H13.9599L13.9449 12.0699L13.8649 12.0749C13.8699 12.1249 13.7849 12.1999 13.7749 12.1799C13.7721 12.1742 13.7655 12.1656 13.7582 12.156C13.74 12.1321 13.7171 12.1021 13.7349 12.0949C13.7644 12.0862 13.7945 12.0795 13.8249 12.0749V12.0399L13.6399 12.0349L13.6199 12.0649L13.5449 12.0699V12.1499L13.5099 12.1599C13.4849 12.1749 13.5149 12.2299 13.5149 12.2299C13.5499 12.2649 13.5149 12.3249 13.5149 12.3249C13.4799 12.3549 13.5349 12.4099 13.5349 12.4099C13.5749 12.4199 13.5099 12.4499 13.5099 12.4499C13.5199 12.4999 13.5499 12.5149 13.5499 12.5149C13.5199 12.5649 13.5699 12.5899 13.5699 12.5899L13.5749 12.6749L13.6099 12.6949V12.7549L13.6299 12.7899H13.7099V12.6599C13.6349 12.5799 13.7649 12.5599 13.7699 12.5899C13.7749 12.6199 13.8299 12.6399 13.8299 12.6399C13.8399 12.7149 13.9299 12.7599 13.9499 12.6799C13.9749 12.6049 13.9999 12.6499 14.0099 12.6849C14.0249 12.7249 14.1199 12.8099 14.1199 12.8099H14.1949L14.2049 12.8799C14.2899 12.8749 14.3149 12.8799 14.3499 12.9999C14.3583 13.0334 14.3745 13.0644 14.3971 13.0904C14.4197 13.1165 14.448 13.1369 14.4799 13.1499L14.5499 13.1449C14.5499 13.0799 14.6199 13.1549 14.6199 13.1849C14.6199 13.2149 14.7549 13.3299 14.7549 13.3299L14.8899 13.3599L14.8984 13.3667C14.9845 13.4774 15.0767 13.5836 15.1747 13.6849L14.5497 14.3149C13.9997 13.7529 13.5962 13.0644 13.3747 12.3099L13.2547 12.3399C13.4879 13.134 13.9179 13.8563 14.5047 14.4399C14.9013 14.8384 15.3629 15.1665 15.8697 15.4099L15.8719 15.406C16.5361 15.7244 17.2632 15.8897 17.9997 15.8899C18.7897 15.8899 19.5497 15.7049 20.2297 15.3599C20.6974 15.1222 21.1244 14.8117 21.4947 14.4399C21.8856 14.0497 22.2083 13.5967 22.4497 13.0999C22.7769 12.4303 22.9478 11.6952 22.9497 10.9499C22.9503 10.3142 22.8281 9.68429 22.5897 9.09492C22.3402 8.48058 21.9695 7.92281 21.4997 7.45492C21.0294 6.98208 20.4681 6.60957 19.8497 6.35992L19.8097 6.47492C20.393 6.70938 20.9247 7.05592 21.3747 7.49492L20.8397 8.02987C20.8218 8.03409 20.8031 8.03575 20.7896 8.02996C20.7546 8.01496 20.8046 7.97996 20.8046 7.97996V7.93996L20.7746 7.90996C20.7746 7.90996 20.6896 7.91996 20.6846 7.90496L20.6646 7.82496L20.6596 7.73996L20.6246 7.72496L20.6196 7.68996L20.5646 7.69496V7.63496L20.5346 7.62496L20.5046 7.60996L20.4996 7.54996L20.3896 7.54496L20.3546 7.49496L20.3146 7.43496L20.1896 7.42496L20.1596 7.39496L20.1096 7.38496L20.0746 7.36996L20.0596 7.39496H19.9596V7.42996C19.9331 7.44323 19.8643 7.44241 19.8056 7.44172L19.7854 7.4415C19.6873 7.39185 19.587 7.34627 19.4847 7.30492L19.4347 7.41492C19.5171 7.4483 19.5982 7.48451 19.6779 7.52347C19.6722 7.53924 19.6652 7.54996 19.6546 7.54996C19.6296 7.54996 19.6396 7.61496 19.6396 7.61496L19.7246 7.61996C19.7446 7.62496 19.7446 7.67496 19.7446 7.67496C19.8196 7.67496 19.8496 7.77496 19.8446 7.79996C19.8296 7.82496 19.8696 7.82496 19.8696 7.82496C19.8696 7.82496 19.8696 7.90496 19.8596 7.92496C19.8543 7.93551 19.8727 7.94467 19.8942 7.95538C19.9134 7.96496 19.9352 7.97579 19.9446 7.98996C19.9646 8.01996 19.9346 8.11996 19.9196 8.12496C19.9127 8.12956 19.9206 8.13522 19.9307 8.14242C19.9425 8.15088 19.9573 8.16146 19.9546 8.17496C19.9523 8.18635 19.9552 8.18736 19.9596 8.18887C19.9647 8.19067 19.9719 8.19318 19.9746 8.21496L19.9896 8.33996L20.0596 8.34496C20.0696 8.27996 20.1996 8.27496 20.2196 8.28496C20.3046 8.31496 20.3696 8.44496 20.3696 8.47496C20.3696 8.50496 20.3146 8.50996 20.3146 8.50996L20.3177 8.55687L20.1566 8.71804C20.1355 8.7022 20.1122 8.695 20.0998 8.70488C20.0748 8.71988 20.0848 8.59988 20.0848 8.59988C20.0848 8.59988 20.1298 8.56988 20.1498 8.58488C20.1698 8.59988 19.9798 8.32988 19.9398 8.35488C19.8998 8.37988 19.8098 8.32988 19.8148 8.28488C19.8198 8.23488 19.6348 8.08488 19.6348 8.08488C19.6348 8.08488 19.5748 8.04488 19.5648 8.07488C19.5626 8.08159 19.5599 8.0878 19.5573 8.09362C19.5484 8.11383 19.5416 8.12935 19.5648 8.14488C19.5779 8.15139 19.5843 8.14753 19.5903 8.14395C19.598 8.13928 19.605 8.13508 19.6248 8.15488C19.632 8.16204 19.6404 8.16963 19.6491 8.17742C19.6827 8.20767 19.7197 8.24102 19.6998 8.26488C19.6748 8.29488 19.6498 8.30488 19.6498 8.30488L19.6798 8.34488H19.7348L19.7448 8.42988C19.7448 8.42988 19.8048 8.45988 19.8198 8.49488C19.8316 8.52233 19.8341 8.54055 19.8275 8.55919C19.7156 8.47364 19.5979 8.39607 19.4752 8.32706C19.4768 8.3172 19.4769 8.30782 19.4746 8.29996C19.4646 8.26496 19.5146 8.24996 19.5396 8.28496H19.5896L19.5996 8.23496L19.5296 8.18496H19.4746C19.4746 8.18496 19.4796 8.22496 19.4396 8.20996C19.4236 8.20396 19.4172 8.20036 19.4134 8.1982C19.4076 8.19496 19.4076 8.19496 19.3896 8.19496C19.3659 8.19101 19.3703 8.23397 19.3732 8.26201L19.3742 8.27279C19.2978 8.23355 19.2195 8.19755 19.1397 8.16492L19.0997 8.27492C19.187 8.31103 19.2722 8.35135 19.3553 8.39569C19.3586 8.39861 19.363 8.40088 19.3682 8.40262C19.5139 8.48141 19.6526 8.57264 19.7827 8.67528C19.7938 8.70287 19.8298 8.71488 19.8298 8.71488H19.8317C19.853 8.73245 19.8741 8.75033 19.8948 8.76852V8.79988C19.909 8.79634 19.9262 8.80155 19.9424 8.81109C19.9571 8.82448 19.9716 8.83803 19.9859 8.85173C19.9901 8.85816 19.9931 8.86449 19.9944 8.87027L19.3747 9.49492C19.1999 9.32973 18.9966 9.1976 18.7747 9.10492L18.7297 9.21992C18.9364 9.30546 19.1261 9.42739 19.2897 9.57992L19.2598 9.60927C19.2591 9.59957 19.2407 9.59223 19.2223 9.58488C19.2036 9.57738 19.1848 9.56988 19.1848 9.55988C19.1848 9.53988 19.1348 9.50988 19.1398 9.54488C19.1448 9.57488 19.1048 9.58988 19.0948 9.57988C19.0848 9.56988 19.0548 9.60988 19.0548 9.60988L19.0598 9.61488C19.0598 9.61718 19.0591 9.62001 19.0582 9.62307C19.0553 9.63329 19.0517 9.64603 19.0748 9.64988C19.0855 9.65166 19.0994 9.64964 19.113 9.64765C19.1377 9.64405 19.1616 9.64055 19.1648 9.65988L19.1658 9.66598C19.1675 9.6768 19.169 9.68624 19.173 9.69457ZM21.4497 14.3099C21.8144 13.9375 22.1166 13.5086 22.3447 13.0399C22.6524 12.4052 22.8163 11.7103 22.8247 11.0049H21.9297C21.9223 11.5618 21.7961 12.1107 21.5597 12.6149C21.3751 13.008 21.1268 13.3679 20.8247 13.6799L21.4497 14.3099ZM20.7347 13.5949C21.0307 13.2906 21.2741 12.9391 21.4547 12.5549C21.683 12.0696 21.8057 11.5412 21.8147 11.0049H21.0047C20.9969 11.4068 20.9085 11.8029 20.7447 12.1699C20.6023 12.4863 20.406 12.7756 20.1647 13.0249L20.4843 13.3446L20.4829 13.3409C20.4824 13.3398 20.4819 13.3388 20.4814 13.3377C20.4809 13.3368 20.4804 13.3358 20.4798 13.3349C20.4659 13.3104 20.4812 13.2541 20.4917 13.2157C20.4962 13.1991 20.4998 13.1859 20.4998 13.1799C20.4998 13.1666 20.5181 13.166 20.5368 13.1654C20.5533 13.1648 20.5701 13.1643 20.5748 13.1549C20.5798 13.1349 20.6998 13.2299 20.6798 13.2949L20.6848 13.4199L20.7098 13.4449L20.7168 13.577L20.7347 13.5949ZM20.637 13.6622L20.6547 13.6799C20.468 13.8612 20.2635 14.0227 20.0446 14.1621V14.11C20.1396 14.045 20.1446 13.925 20.0596 13.915C19.9946 13.91 20.0246 13.84 20.0846 13.83L20.1196 13.815V13.77L20.2346 13.665V13.585L19.9846 13.375C19.9338 13.3565 19.9299 13.2942 19.9479 13.233C19.9947 13.1934 20.0403 13.1524 20.0847 13.1099L20.3048 13.33C20.2953 13.3679 20.2588 13.3878 20.2423 13.3812C20.2347 13.3738 20.2312 13.3712 20.2398 13.3799L20.2423 13.3812C20.2523 13.3908 20.2692 13.4085 20.2748 13.4199C20.2848 13.4399 20.3148 13.4399 20.3248 13.4199C20.3293 13.4109 20.3298 13.397 20.3303 13.3826C20.3306 13.374 20.3309 13.3653 20.332 13.3573L20.4363 13.4616L20.4353 13.4636C20.4213 13.4907 20.4071 13.5182 20.4098 13.5349L20.4148 13.5299L20.4598 13.5549V13.6399C20.4968 13.674 20.5757 13.6725 20.637 13.6622ZM19.2046 14.745L19.1142 14.7148C18.7727 14.8157 18.4179 14.8699 18.0597 14.8749V15.7699C18.7936 15.7605 19.5155 15.5826 20.1697 15.2499C20.6092 15.0273 21.0121 14.739 21.3647 14.3949L20.7397 13.7649C20.5158 13.9829 20.267 14.1732 19.9986 14.332L19.5446 14.72L19.4796 14.73L19.4196 14.79L19.2996 14.795L19.2696 14.82L19.2296 14.825L19.2046 14.745ZM18.8696 14.49L18.9931 14.6268C18.6895 14.708 18.3759 14.7512 18.0597 14.7549V13.9549C18.199 13.9518 18.3376 13.9389 18.4744 13.9166L18.4846 13.94L18.5696 13.965L18.6296 13.98L18.6496 14.065H18.6946L18.7096 14.125C18.7596 14.165 18.6946 14.25 18.6946 14.25V14.365L18.7346 14.385L18.7296 14.425L18.7946 14.49H18.8696ZM20.0546 12.725C20.0546 12.725 20.0776 12.8327 20.0874 12.9319C20.3167 12.6922 20.5032 12.4149 20.6387 12.1121L20.6347 12.1099C20.7906 11.7619 20.8756 11.3862 20.8847 11.0049H20.1872L20.187 11.01C20.187 11.0231 20.1905 11.0361 20.1971 11.0475C20.2037 11.0589 20.2132 11.0684 20.2246 11.075C20.2396 11.065 20.3146 11.15 20.3146 11.19L20.3446 11.26C20.3446 11.26 20.3396 11.37 20.4196 11.39C20.4228 11.3741 20.458 11.3964 20.4872 11.4148C20.5042 11.4255 20.5191 11.435 20.5246 11.435C20.5396 11.435 20.6246 11.55 20.6246 11.55L20.6096 11.6C20.6096 11.6 20.4796 11.585 20.4796 11.62C20.4796 11.62 20.3996 11.67 20.3696 11.655C20.3496 11.645 20.3296 11.675 20.3196 11.695C20.3096 11.705 20.2196 11.695 20.2196 11.695L20.2096 11.66L20.1446 11.67C20.1446 11.67 20.1596 11.735 20.1096 11.755H19.9796C19.9096 11.755 19.8696 11.88 19.8646 11.93C19.8596 11.97 19.7446 12.07 19.7446 12.07C19.7446 12.07 19.6846 12.065 19.6796 12.115L19.6546 12.165L19.6046 12.19L19.5507 12.2049C19.5403 12.2178 19.5297 12.2305 19.5189 12.2431L19.5246 12.28H19.6046L19.6246 12.255L19.6996 12.235C19.6996 12.235 19.7396 12.235 19.7496 12.205C19.7549 12.1917 19.7476 12.1715 19.7417 12.1553C19.7366 12.141 19.7326 12.13 19.7396 12.13C19.7546 12.13 19.7746 12.095 19.7746 12.095C19.7746 12.095 19.8546 12.095 19.8596 12.07L19.9346 12.14V12.385L19.9096 12.39L19.9046 12.5L19.8746 12.51V12.56L19.8446 12.59V12.65L19.8172 12.6774L19.8701 12.7303L19.8796 12.7L19.9696 12.58H20.0246L20.0146 12.705L20.0546 12.725ZM20.8797 10.8899H20.2805C20.2889 10.8786 20.2946 10.87 20.2946 10.87L20.3196 10.8L20.4046 10.775L20.4146 10.71L20.3646 10.705C20.3646 10.705 20.4146 10.61 20.4446 10.61C20.4746 10.61 20.6346 10.61 20.6446 10.6C20.6646 10.59 20.6946 10.51 20.6946 10.5C20.6946 10.4849 20.7174 10.4783 20.7328 10.4739C20.7379 10.4724 20.7422 10.4712 20.7446 10.47C20.7621 10.47 20.7873 10.4355 20.8034 10.4135L20.8096 10.405C20.8196 10.385 20.7846 10.255 20.7596 10.28C20.7396 10.3 20.6946 10.31 20.6946 10.31L20.6796 10.36L20.6596 10.385V10.435C20.6596 10.47 20.6096 10.49 20.6096 10.49L20.5896 10.515H20.4546C20.4046 10.495 20.4396 10.435 20.4696 10.44C20.4996 10.445 20.4646 10.355 20.4646 10.355L20.5046 10.35C20.5046 10.35 20.5046 10.26 20.5246 10.26C20.5396 10.26 20.5196 10.23 20.4996 10.21C20.4919 10.2042 20.4828 10.1933 20.4736 10.1823C20.4588 10.1647 20.4439 10.1469 20.4346 10.15H20.3346L20.3196 10.18L20.2646 10.19L20.2596 10.24C20.2296 10.28 20.1096 10.355 20.1596 10.23L20.1796 10.195V10.15H20.0896C20.0896 10.15 20.0396 10.13 20.0396 10.11V10.065L19.9346 9.94996L19.8096 9.93496L19.7996 9.90996L19.7246 9.89996C19.7154 9.89485 19.7063 9.89073 19.6974 9.88753C19.6637 9.83373 19.6274 9.78154 19.5886 9.73115C19.5858 9.72172 19.5826 9.71406 19.5798 9.70988C19.5798 9.68645 19.514 9.60156 19.4851 9.60742C19.4767 9.59818 19.4683 9.58901 19.4597 9.57992L20.0851 8.95448C20.0912 8.96065 20.0948 8.96575 20.0985 8.97097C20.1041 8.97891 20.11 8.98714 20.1248 8.99988C20.1322 9.00511 20.1393 9.0086 20.1461 9.01037C20.1637 9.02976 20.181 9.04938 20.198 9.06922L20.1898 9.07988C20.1898 9.12866 20.2096 9.12393 20.2321 9.11854L20.2382 9.11711C20.2483 9.12946 20.2584 9.14189 20.2683 9.1544C20.2719 9.18529 20.2763 9.22267 20.3191 9.22039C20.3958 9.32305 20.4656 9.4307 20.5279 9.54263C20.5195 9.55166 20.5148 9.55988 20.5148 9.55988L20.4348 9.56988V9.64988L20.3948 9.66488V9.71488H20.4548C20.4548 9.71488 20.4548 9.76988 20.4698 9.74488C20.4848 9.71988 20.6098 9.74988 20.5998 9.81488C20.598 9.82387 20.6137 9.83804 20.6338 9.85621C20.6536 9.87415 20.6778 9.89599 20.6938 9.92062C20.6996 9.93607 20.7053 9.95156 20.7109 9.9671C20.7113 9.97293 20.711 9.97886 20.7098 9.98488C20.7126 9.98531 20.7153 9.98583 20.7178 9.98645C20.7445 10.0627 20.768 10.14 20.7882 10.2181L20.7848 10.2249C20.7848 10.2249 20.7872 10.2263 20.7911 10.2292C20.8107 10.3063 20.8271 10.3842 20.8403 10.4627C20.8338 10.5031 20.8213 10.5374 20.7998 10.5499C20.7398 10.5849 20.8048 10.5649 20.8048 10.5649L20.7948 10.6799C20.8098 10.7299 20.8348 10.7049 20.8498 10.6799C20.8553 10.6708 20.8607 10.6644 20.8664 10.6587C20.8739 10.7355 20.8783 10.8126 20.8797 10.8899ZM19.4465 9.74569C19.4934 9.80153 19.5369 9.86001 19.5768 9.92079C19.5708 9.93469 19.5697 9.95141 19.5746 9.96996C19.5773 9.99007 19.581 10.0069 19.5842 10.0209C19.5926 10.0589 19.5962 10.075 19.5596 10.075C19.5096 10.075 19.4996 10.035 19.4996 10.035C19.4996 10.035 19.4596 10.02 19.4596 10.04C19.4596 10.046 19.4582 10.0539 19.4567 10.0625C19.4533 10.0823 19.4492 10.106 19.4596 10.12C19.4746 10.14 19.4396 10.17 19.4246 10.155C19.4096 10.14 19.3746 10.095 19.3796 10.08C19.3827 10.0754 19.3773 10.0634 19.3708 10.0485C19.3557 10.0145 19.334 9.96539 19.3896 9.95496C19.4399 9.94553 19.427 9.92424 19.4166 9.90725C19.4105 9.89721 19.4053 9.88867 19.4146 9.88496L19.4546 9.86496H19.4946L19.5196 9.84496L19.4546 9.83496L19.4146 9.82996L19.3396 9.82496C19.2977 9.85005 19.2659 9.88895 19.2496 9.93496C19.218 9.99418 19.1521 9.94117 19.1431 9.89655L19.2952 9.74437L19.3048 9.74488L19.4048 9.73488C19.4048 9.73488 19.4257 9.73969 19.4465 9.74569ZM13.5647 8.75992L13.6647 8.80992C13.8907 8.35272 14.1877 7.9342 14.5447 7.56992L15.1797 8.20492C14.884 8.50878 14.6392 8.85825 14.4547 9.23992C14.2086 9.75207 14.0772 10.3118 14.0697 10.8799H13.1747C13.1835 10.1633 13.3526 9.45767 13.6697 8.81492L13.5647 8.75992ZM17.7803 10.0172C17.849 10.002 17.9193 9.99448 17.99 9.99482L17.9996 10.115L17.9446 10.095H17.9096L17.8946 10.065H17.8646V10.17L17.8946 10.195L17.9196 10.22L17.9696 10.225L17.9796 10.29H18.1046L18.1196 10.32H18.1946L18.3396 10.47L18.3296 10.52L18.3046 10.53C18.3146 10.565 18.2396 10.545 18.2396 10.545V10.575L18.2746 10.58L18.3096 10.6L18.3596 10.515C18.4096 10.48 18.4396 10.53 18.4446 10.565C18.4446 10.59 18.4196 10.585 18.4196 10.585V10.66L18.4496 10.67C18.4996 10.73 18.4296 10.765 18.4296 10.765L18.4146 10.815C18.3996 10.86 18.3446 10.85 18.3446 10.85L18.3246 10.88L18.2646 10.895L18.3846 10.91C18.3946 10.87 18.4246 10.86 18.4346 10.88C18.4546 10.9 18.4546 10.935 18.4546 10.935L18.4846 10.94L18.4796 10.995L18.5096 11.005V11.17L18.5446 11.21C18.6046 11.185 18.6046 11.225 18.5746 11.245C18.5446 11.265 18.5646 11.355 18.5646 11.355L18.5396 11.38V11.42L18.5096 11.44V11.5C18.4596 11.475 18.3996 11.485 18.3846 11.5C18.3346 11.47 18.2446 11.48 18.2446 11.5C18.2746 11.545 18.2096 11.55 18.2096 11.55L18.1746 11.595C18.1996 11.645 18.1496 11.65 18.1496 11.65V11.75L18.0896 11.8V11.8957C18.0598 11.8985 18.0298 11.8999 17.9997 11.8999C17.8751 11.8997 17.7517 11.8749 17.6367 11.8268C17.5394 11.7862 17.4497 11.7295 17.3712 11.6594C17.3744 11.6579 17.3774 11.6548 17.3798 11.6499C17.4048 11.6099 17.4448 11.5999 17.4448 11.5999L17.4598 11.5699H17.5948C17.6048 11.5199 17.6698 11.5399 17.6698 11.5649C17.6698 11.5899 17.7198 11.5649 17.7198 11.5649L17.7548 11.5149H17.8098L17.8148 11.4499L17.8398 11.4349V11.3499C17.9198 11.3249 17.9098 11.2499 17.9098 11.2499L17.9298 11.2249L17.9198 11.1899C17.8798 11.1749 17.8998 11.1399 17.9248 11.1499C17.9498 11.1599 17.8898 11.0999 17.8898 11.0999C17.8598 11.1299 17.8398 11.0749 17.8398 11.0749L17.7598 11.0699V10.9949L17.7498 10.9299L17.6748 10.8949L17.6248 10.9449L17.6098 11.0149V11.0649L17.5598 11.0749L17.5498 11.2099L17.5098 11.2249L17.5148 11.2749L17.4648 11.2899L17.4048 11.3049L17.3948 11.3699L17.3548 11.3949L17.3348 11.4599L17.3106 11.6005C17.2425 11.5291 17.1861 11.4475 17.1433 11.3587C17.1536 11.321 17.1549 11.2849 17.1549 11.2849C17.1049 11.2649 17.1349 11.1949 17.1849 11.2549C17.2349 11.3149 17.1549 11.1349 17.1549 11.1349L17.1149 11.0999L17.0611 11.095L17.058 11.0737L17.0549 11.0399C17.052 11.0101 17.0497 10.98 17.0497 10.9499C17.0496 10.9269 17.0504 10.9038 17.052 10.8809C17.0664 10.8675 17.0849 10.8749 17.0849 10.8749L17.1149 10.8999L17.1599 10.9349V10.9649L17.1349 10.9799L17.1299 11.0199L17.1449 11.0799H17.1799C17.1949 10.9949 17.2999 10.9949 17.3299 11.0499L17.3599 10.9749C17.2899 10.9399 17.3599 10.8849 17.3799 10.9099C17.3999 10.9349 17.4449 10.8449 17.4449 10.8449C17.4449 10.8449 17.4799 10.8949 17.4449 10.8299C17.4099 10.7699 17.4699 10.7399 17.4699 10.7399C17.4599 10.6799 17.5349 10.6899 17.5349 10.6899L17.5399 10.6049H17.4699C17.4549 10.6749 17.3949 10.6099 17.4249 10.5949C17.4549 10.5799 17.4849 10.5499 17.4849 10.5499V10.4999L17.5149 10.4899L17.5199 10.4399H17.5949L17.6599 10.4099L17.6749 10.3849L17.7449 10.3799L17.8449 10.2899L17.8349 10.2499C17.7749 10.2499 17.8349 10.1999 17.8349 10.1999L17.8449 10.1249H17.7949L17.7803 10.0172ZM18.2596 11.995C18.2596 11.995 18.2543 11.9897 18.2465 11.9828C18.1855 11.9973 18.123 12.0064 18.0597 12.0099V12.2135C18.0903 12.199 18.1325 12.165 18.0696 12.165L18.1296 12.105L18.1546 12.075L18.1596 12.005L18.1946 12.01L18.2146 12.045L18.2746 12.05L18.3246 12.065L18.3596 12.02L18.4096 11.985L18.3846 11.97C18.3846 11.97 18.3776 11.9559 18.3769 11.9427C18.3542 11.9513 18.3311 11.9592 18.3078 11.9662L18.3046 11.995H18.2596ZM17.9397 12.4195V12.33H17.9146L17.8796 12.285L17.9196 12.28V12.245C17.9265 12.2471 17.9332 12.2489 17.9397 12.2504V12.2001C17.9367 12.2001 17.9335 12.2001 17.93 12.2001C17.915 12.2001 17.93 12.2301 17.93 12.2301C17.93 12.2301 17.85 12.2301 17.865 12.2151C17.8688 12.2125 17.8727 12.2103 17.8761 12.2083C17.886 12.2025 17.8924 12.1988 17.885 12.1951C17.8788 12.1889 17.8803 12.1846 17.8823 12.1787C17.8835 12.1751 17.885 12.1708 17.885 12.1651C17.885 12.1572 17.8946 12.1548 17.9023 12.1529C17.9093 12.1512 17.9148 12.1498 17.91 12.1451C17.9 12.1351 17.91 12.0901 17.93 12.1151L17.9397 12.0908V12.0896C17.9367 12.0851 17.9356 12.0819 17.9348 12.0795C17.9328 12.074 17.932 12.0719 17.915 12.0651C17.89 12.0551 17.91 12.0151 17.91 12.0151V12.0079C17.6798 11.9886 17.4619 11.8947 17.2897 11.7399L16.7147 12.3149C16.9069 12.4957 17.1353 12.6337 17.3847 12.7199L17.3639 12.7595L17.3897 12.7199C17.5002 12.7577 17.6139 12.7851 17.7293 12.8017L17.7546 12.77H17.7946L17.8096 12.8L17.8496 12.78L17.9396 12.77L17.9397 12.6686L17.9146 12.695L17.7796 12.69V12.655L17.7296 12.665V12.58L17.7246 12.52H17.7596V12.42C17.7746 12.44 17.9397 12.4845 17.9397 12.4195ZM17.7746 13.73C17.7938 13.7354 17.8716 13.7409 17.9397 13.7423V13.8299C17.5773 13.8237 17.2193 13.7491 16.8847 13.6099C16.6224 13.5005 16.3782 13.353 16.1597 13.1725L16.0031 13.0265L16.6297 12.3999C16.8309 12.5887 17.0694 12.7334 17.3297 12.8249L17.3311 12.8223C17.4003 12.8473 17.4708 12.8685 17.5422 12.8857C17.5266 12.8984 17.5181 12.9106 17.5196 12.92C17.5296 12.94 17.4796 12.97 17.4796 12.97L17.4346 12.98L17.4046 13.03L17.3446 13.045L17.3346 13.155L17.3046 13.175V13.22L17.2696 13.23V13.255H17.2196L17.2496 13.335L17.2896 13.355C17.3596 13.365 17.3296 13.455 17.3296 13.455H17.3696L17.3896 13.51L17.4296 13.595C17.4439 13.652 17.4852 13.6413 17.5064 13.6358L17.5096 13.635C17.5296 13.63 17.5496 13.695 17.5496 13.695L17.7496 13.7C17.7496 13.7 17.7396 13.72 17.7746 13.73ZM19.1296 12.645L19.1184 12.5999L19.1295 12.5924L19.2446 12.65C19.2596 12.67 19.3246 12.665 19.3246 12.665L19.3446 12.69C19.3446 12.69 19.3846 12.69 19.4096 12.715C19.4346 12.75 19.5646 12.725 19.5646 12.725L19.5996 12.755L19.6546 12.775H19.7477L19.8074 12.8341C19.7177 12.876 19.5312 12.8615 19.5196 12.85C19.5046 12.835 19.3996 12.79 19.3996 12.79C19.3996 12.79 19.3196 12.725 19.3046 12.74C19.2958 12.7546 19.2681 12.7452 19.2467 12.738C19.2316 12.7328 19.2196 12.7288 19.2196 12.735C19.2196 12.75 19.1546 12.695 19.1546 12.695L19.0546 12.66L19.1296 12.645ZM18.2296 13.72C18.1858 13.6881 18.0914 13.688 18.0597 13.7119V13.8299C18.1788 13.8277 18.2974 13.8181 18.4148 13.8012L18.3596 13.735C18.3596 13.735 18.2796 13.76 18.2296 13.72ZM18.0597 12.5424V12.685C18.0639 12.6854 18.2396 12.7045 18.2396 12.67C18.2346 12.635 18.3296 12.635 18.3396 12.685L18.3446 12.76L18.3996 12.77C18.3996 12.77 18.4027 12.7727 18.4075 12.7764C18.55 12.7447 18.6887 12.6963 18.8207 12.6319L18.8197 12.6299C18.9024 12.5904 18.9821 12.5449 19.058 12.4939C19.0599 12.4896 19.0621 12.485 19.0646 12.48C19.0846 12.435 19.0196 12.355 18.9796 12.385C18.9694 12.3926 18.9593 12.3989 18.9496 12.4049C18.9212 12.4226 18.8971 12.4377 18.8896 12.475L18.8146 12.495L18.7646 12.47C18.7646 12.47 18.7796 12.44 18.7646 12.405C18.7496 12.37 18.7746 12.3 18.8346 12.305L18.8446 12.255L18.9746 12.245L18.9896 12.225C18.9896 12.225 19.0196 12.225 19.0396 12.215C19.0596 12.205 19.0896 12.16 19.0296 12.125H19.0246L18.8696 12.11V12.085H18.8296C18.8296 12.085 18.8196 12.115 18.8296 12.18L18.7046 12.175V12.21L18.7346 12.22L18.7446 12.33L18.7096 12.34L18.7196 12.41H18.6896C18.6646 12.37 18.6296 12.395 18.6496 12.48L18.7096 12.495L18.7146 12.545L18.7946 12.56V12.605H18.7046L18.6896 12.575H18.6446L18.6296 12.545H18.5846C18.5846 12.545 18.5496 12.54 18.5496 12.515C18.5496 12.49 18.4746 12.39 18.4746 12.39H18.4096C18.3696 12.38 18.3196 12.375 18.3596 12.43L18.4196 12.455L18.4746 12.48L18.5046 12.515L18.4746 12.51L18.4646 12.575C18.4646 12.575 18.4346 12.585 18.4346 12.555C18.433 12.5484 18.4351 12.5434 18.437 12.5392C18.4407 12.5306 18.4431 12.525 18.4096 12.515L18.3446 12.505C18.3446 12.505 18.3346 12.47 18.2846 12.475C18.2846 12.475 18.2346 12.415 18.2246 12.465L18.1096 12.49L18.0597 12.5424ZM18.2846 11.8562C18.3153 11.8465 18.3455 11.8353 18.375 11.8226L18.3753 11.8187C18.3784 11.7803 18.3871 11.6681 18.3346 11.69L18.2846 11.74V11.8562ZM21.6296 9.25496C21.5987 9.24568 21.5831 9.27084 21.5745 9.2973C21.604 9.36093 21.6319 9.42542 21.658 9.49069L21.6597 9.48992C21.8361 9.93587 21.9293 10.4104 21.9347 10.8899H22.8297C22.8225 10.2916 22.7038 9.69979 22.4797 9.14492C22.2437 8.5612 21.8955 8.02948 21.4547 7.57992L20.8786 8.15606L20.8696 8.24996H20.9196L20.9296 8.30496L21.0446 8.42996H21.0946L21.1296 8.44996V8.50996H21.1646L21.1596 8.54996L21.2796 8.69996H21.3396L21.3496 8.74996L21.4196 8.81496C21.4196 8.81496 21.4596 8.86996 21.4546 8.88996C21.452 8.90052 21.4702 8.91806 21.4873 8.93446C21.5026 8.94912 21.517 8.96288 21.5146 8.96996C21.5121 8.98246 21.5296 9.00121 21.5471 9.01996C21.5646 9.03871 21.5821 9.05746 21.5796 9.06996C21.5746 9.09496 21.6446 9.14496 21.6446 9.14496C21.6446 9.14496 21.6796 9.26996 21.6296 9.25496ZM20.4696 8.82496C20.4739 8.81212 20.4269 8.71866 20.3599 8.67634L20.2069 8.82802C20.2128 8.83789 20.2229 8.84648 20.2398 8.84988L20.2193 8.91731C20.2388 8.93839 20.258 8.95974 20.2768 8.98134L20.3198 8.95488L20.3298 9.01488C20.3298 9.01488 20.3748 9.02488 20.3798 9.06488C20.3878 9.08621 20.3916 9.09616 20.3986 9.10233C20.4048 9.10772 20.4135 9.11021 20.4298 9.11488C20.4648 9.12488 20.4748 9.14488 20.4548 9.17988C20.4518 9.18513 20.4496 9.19073 20.4478 9.19642C20.486 9.24925 20.5224 9.3033 20.5571 9.35849C20.5661 9.3538 20.5712 9.34791 20.5698 9.33988C20.5648 9.30488 20.6198 9.29488 20.6198 9.29488L20.6348 9.35488L20.6798 9.38988V9.43988L20.6448 9.44988C20.6317 9.45347 20.6237 9.45762 20.6191 9.46188C20.6451 9.5072 20.6699 9.55321 20.6934 9.59988H20.7498L20.7848 9.66988L20.7648 9.73488L20.8048 9.74988L20.7948 9.78988L20.8298 9.81488L20.8392 9.96864L20.8433 9.98082L20.8948 9.99488V10.0249L20.8698 10.0199L20.8615 10.0366C20.8701 10.064 20.8783 10.0916 20.8862 10.1192L20.9248 10.1149H20.9648L21.0048 10.1349C20.9898 10.1549 20.9648 10.2049 20.9848 10.2449C21.0048 10.2849 20.9848 10.3249 20.9848 10.3249C20.9848 10.3249 20.9548 10.3949 20.9698 10.4099C20.9798 10.4199 20.9721 10.4477 20.9643 10.4754C20.9856 10.6123 20.9975 10.7509 20.9997 10.8899H21.8197C21.8127 10.4288 21.7217 9.97273 21.5514 9.54415L21.5497 9.54492C21.5322 9.50042 21.5138 9.45628 21.4946 9.41254C21.4805 9.42295 21.4655 9.43213 21.4496 9.43996L21.3996 9.47496L21.3096 9.47996L21.2946 9.41496H21.2396L21.2346 9.36496L21.1846 9.32496L21.1546 9.25996C21.1496 9.23996 21.0896 9.22496 21.0896 9.22496C21.0896 9.22496 21.0596 9.18496 21.0546 9.15996C21.0496 9.13496 21.0196 9.11496 20.9996 9.11496C20.9926 9.11322 20.979 9.11269 20.964 9.11211C20.9359 9.11102 20.9029 9.10974 20.8996 9.09996C20.8946 9.08496 20.8396 9.02496 20.8396 9.02496L20.7796 9.01496L20.7596 8.98496H20.7096L20.6746 8.94996L20.6496 8.90996C20.6496 8.90996 20.6296 8.83996 20.6296 8.80996C20.6246 8.77996 20.5396 8.74996 20.5296 8.83996C20.5296 8.83996 20.4596 8.84496 20.4696 8.82496ZM20.3059 13.3312L20.3048 13.33L20.3048 13.3349C20.3051 13.3336 20.3055 13.3323 20.3059 13.3312ZM19.2196 12C19.2117 12.0119 19.1849 12.0206 19.1592 12.0162L19.1344 11.9917L19.1359 11.9886C19.138 11.9844 19.1401 11.9805 19.1346 11.975C19.1265 11.9689 19.1184 11.9677 19.11 11.9675L19.0588 11.9167C19.0598 11.9007 19.0628 11.8828 19.0654 11.8674C19.0676 11.8537 19.0696 11.842 19.0696 11.835C19.0596 11.815 19.1496 11.785 19.1346 11.835C19.1196 11.875 19.1346 11.9 19.1346 11.9C19.1996 11.835 19.2546 11.9 19.2496 11.92C19.2496 11.935 19.2846 11.95 19.3096 11.935C19.3346 11.92 19.3646 11.98 19.3596 12.01C19.3446 12.04 19.2596 12.035 19.2496 12.005C19.2496 11.975 19.2296 11.985 19.2196 12ZM15.2597 13.5999C15.2124 13.5511 15.1665 13.5011 15.1221 13.4499H15.1499C15.1749 13.3649 15.2949 13.4549 15.2999 13.4849C15.3038 13.4964 15.3179 13.5116 15.3344 13.5245L15.2597 13.5999ZM15.3447 13.6849L15.462 13.5676C15.468 13.5787 15.4727 13.5927 15.4749 13.6099C15.4849 13.6849 15.5249 13.6699 15.5249 13.6699L15.8049 13.6649L15.9049 13.5799L16.1599 13.5749C16.2899 13.5699 16.2099 13.3899 16.1849 13.3899C16.1709 13.379 16.1671 13.3575 16.1685 13.333C16.3698 13.4873 16.5902 13.6157 16.8247 13.7149L16.827 13.7109C17.1792 13.8608 17.5569 13.942 17.9397 13.9499V14.7599C17.4167 14.7521 16.9009 14.6363 16.4247 14.4199C16.0251 14.2388 15.6597 13.9902 15.3447 13.6849ZM16.5447 12.3099L15.9099 12.9397L15.9066 12.9367C15.8688 12.897 15.8322 12.8564 15.7969 12.8148C15.8041 12.7832 15.8249 12.7499 15.8249 12.7499C15.8899 12.7099 15.8099 12.6399 15.8099 12.6399C15.8199 12.5799 15.7749 12.5099 15.7749 12.5099C15.6849 12.4499 15.7099 12.3349 15.7099 12.3349V12.2499C15.6349 12.1799 15.7399 12.1699 15.7399 12.1699C15.7749 12.1099 15.7149 12.0649 15.7149 12.0649V11.9999L15.6299 11.9899L15.6199 11.7499L15.4399 11.4949C15.4049 11.4849 15.4299 11.4199 15.4299 11.4199C15.4799 11.3949 15.4199 11.3349 15.4199 11.3349V11.2249L15.5199 11.2149L15.5449 11.1749H15.5949V11.0449C15.6149 10.9749 15.6749 11.0099 15.6749 11.0099L15.7449 11.0149L15.753 10.9999H15.9895L16.006 11.1088L16.0085 11.1361L15.9449 11.1849C15.8949 11.2199 15.8949 11.2899 15.9499 11.3049C15.9899 11.3099 15.9749 11.4049 15.9149 11.3399C15.8503 11.3399 15.9044 11.3812 15.9251 11.3971C15.9332 11.4033 15.9362 11.4056 15.9249 11.3999C16.0149 11.4499 15.9949 11.3599 15.9949 11.3599L16.0367 11.3269C16.0557 11.4228 16.0818 11.5175 16.1147 11.6099C16.2076 11.8707 16.3541 12.1091 16.5447 12.3099ZM15.9846 10.8799H15.7449C15.68 10.8399 15.7099 10.7099 15.7099 10.7099C15.8099 10.5649 15.9149 10.6499 15.9149 10.6499L15.9849 10.6449C16.0016 10.656 16.0132 10.6686 16.0209 10.6819C16.0146 10.7295 16.01 10.7773 16.0072 10.8253C16.0004 10.8375 15.9949 10.8449 15.9949 10.8449C15.9896 10.853 15.9864 10.8657 15.9846 10.8799ZM16.1699 10.0649C16.1757 10.0497 16.1938 10.0446 16.2139 10.0442C16.3021 9.87079 16.4151 9.71098 16.5497 9.56992L15.9197 8.93992C15.6934 9.17151 15.5078 9.43959 15.3706 9.73289L15.3747 9.73492C15.2102 10.0946 15.1217 10.4844 15.1147 10.8799H15.5225L15.5449 10.8549V10.7949L15.6049 10.7549V10.6199L15.6349 10.6049L15.6449 10.5549C15.6449 10.5549 15.6849 10.5049 15.6749 10.4899C15.6649 10.4799 15.6949 10.4299 15.7099 10.4299C15.7249 10.4299 15.7399 10.3849 15.7349 10.3699C15.7349 10.3549 15.7849 10.3099 15.7849 10.3099L15.8799 10.3149L15.9099 10.2749H15.9749L15.9999 10.2449H16.0699C16.0949 10.2499 16.1499 10.1549 16.1099 10.1649H15.9599L16.0199 10.1549L16.0299 10.1249L16.0799 10.1149L16.0899 10.0949C16.0899 10.0949 16.1549 10.1049 16.1699 10.0649ZM17.0699 10.1449L17.126 10.1469L16.6297 9.65492C16.5122 9.7799 16.4127 9.92025 16.3337 10.0719C16.3651 10.0791 16.3999 10.0785 16.3999 10.0399C16.4049 10.0149 16.5549 9.89994 16.6549 9.98994L16.8249 10.1149C16.8249 10.1149 16.9249 10.1949 16.9249 10.1449C16.9249 10.1449 16.9899 10.1099 17.0049 10.1449C17.0049 10.1449 17.0549 10.1949 17.0699 10.1449ZM17.2823 10.1525L17.2872 10.1527C17.3491 10.0975 17.4172 10.0497 17.4899 10.0103V9.97494H17.5249V9.94994L17.5749 9.93994L17.5849 9.89494L17.6149 9.85494L17.6549 9.86994L17.6349 9.88494V9.93994H17.6415C17.7374 9.9058 17.8378 9.88556 17.9397 9.87992V9.06992C17.6863 9.07605 17.4369 9.13361 17.2065 9.2391L17.2097 9.24492C17.0278 9.3294 16.8607 9.44251 16.7147 9.57992L17.2823 10.1525ZM16.2297 11.5799C16.1921 11.4755 16.164 11.3681 16.1454 11.259C16.1907 11.2683 16.2399 11.3428 16.2399 11.3549C16.2399 11.3699 16.4399 11.3599 16.4399 11.3599C16.4899 11.3949 16.5149 11.4899 16.5149 11.4899C16.5649 11.4149 16.6849 11.4849 16.5999 11.5249C16.6799 11.5749 16.6799 11.6199 16.6799 11.6199C16.7449 11.5999 16.7449 11.6499 16.7449 11.6649L16.7649 11.5899C16.6899 11.5349 16.8649 11.5149 16.8149 11.6149L16.7849 11.6599L16.8349 11.6999V11.8149C16.9499 11.8049 16.9199 11.6699 16.9199 11.6699L16.9699 11.6599C16.9699 11.6099 17.0049 11.6399 17.0049 11.6399C16.9809 11.5232 17.0276 11.4725 17.0593 11.4521C17.0981 11.5228 17.1451 11.5892 17.1997 11.6499L16.6247 12.2249C16.4505 12.0391 16.316 11.8196 16.2297 11.5799ZM16.9149 11.1199L16.9419 11.1122C16.9359 11.0752 16.9318 11.0377 16.9297 10.9999H16.8788L16.8699 11.0499L16.8449 11.0799L16.7949 11.0949L16.7999 11.1499H16.8899L16.9049 11.0999L16.9149 11.1199ZM15.4649 11.0299L15.4609 10.9999H15.1197C15.1226 11.1385 15.1355 11.2766 15.1581 11.413C15.164 11.4195 15.17 11.4232 15.1749 11.4199C15.1899 11.4099 15.2499 11.4349 15.2499 11.4699C15.2499 11.4999 15.3599 11.5049 15.3299 11.4849C15.304 11.4676 15.3417 11.4503 15.3653 11.4395L15.3749 11.4349C15.3949 11.4199 15.3999 11.3449 15.3749 11.3549L15.3249 11.3499L15.3449 11.2449L15.3549 11.2099L15.3999 11.1949L15.3899 11.1149L15.4649 11.0299ZM15.8437 6.62295L15.8447 6.62492C15.3977 6.84708 14.9878 7.13719 14.6297 7.48492L15.2597 8.11992C15.5537 7.8372 15.8897 7.60172 16.2557 7.42185L16.2547 7.41992C16.7789 7.16042 17.3548 7.02201 17.9397 7.01492V6.12492C17.2123 6.12997 16.4956 6.30028 15.8437 6.62295ZM16.3097 7.51992C15.9547 7.69514 15.6291 7.92456 15.3447 8.19992L15.9197 8.78492C16.1469 8.56759 16.4067 8.38708 16.6897 8.24992L16.7397 8.34992C16.4676 8.48182 16.2179 8.6556 15.9997 8.86492L16.6297 9.49492C16.7851 9.35121 16.9623 9.23307 17.1547 9.14492L17.1822 9.19492L17.1547 9.13992C17.4006 9.02346 17.6678 8.95879 17.9397 8.94992V8.05992C17.5238 8.06699 17.1144 8.16423 16.7397 8.34492L16.6897 8.23992C17.0796 8.05032 17.5062 7.94795 17.9397 7.93992V7.12992C17.3741 7.13682 16.8172 7.27007 16.3097 7.51992ZM14.5557 9.29283L14.5597 9.29492C14.3216 9.78994 14.1937 10.3307 14.1847 10.8799H14.9947C15.0042 10.4665 15.0996 10.0596 15.2747 9.68492L15.3197 9.70742L15.2697 9.67992C15.4108 9.37539 15.6017 9.09656 15.8347 8.85492L15.2597 8.28492C14.9721 8.58062 14.7343 8.92101 14.5557 9.29283ZM15.9297 15.3049C16.5581 15.6038 17.2439 15.7624 17.9397 15.7699V14.8799C17.3954 14.8706 16.859 14.748 16.3647 14.5199C15.9563 14.3347 15.5826 14.0811 15.2597 13.7699L14.6297 14.3999C15.0101 14.7712 15.4494 15.077 15.9297 15.3049Z" fill="white"/>
<path d="M19.8879 17.61C19.8009 17.7044 19.7055 17.7907 19.6029 17.868C19.114 17.3606 18.5578 16.8143 18.0037 16.5887C17.4495 16.8143 16.8933 17.3606 16.4044 17.868C16.3018 17.7907 16.2064 17.7044 16.1194 17.61C16.5594 17.1918 17.1225 16.7553 17.7412 16.5072C17.6624 16.4907 17.5839 16.482 17.5059 16.482C17.1757 16.482 16.9161 16.6704 16.6503 16.8633C16.5612 16.928 16.4714 16.9932 16.3779 17.052C15.8649 17.382 15.1599 17.568 14.5569 17.325C14.2159 17.2082 13.9131 17.0008 13.6809 16.725C13.9362 16.8842 14.2256 16.9809 14.5254 17.0069C14.8252 17.033 15.1269 16.9878 15.4059 16.875C15.5078 16.8326 15.6102 16.7877 15.7133 16.7426C16.208 16.5259 16.7193 16.302 17.2779 16.302C17.5239 16.302 17.767 16.3432 18.0037 16.4147C18.2403 16.3432 18.4834 16.302 18.7294 16.302C19.288 16.302 19.7994 16.5259 20.2941 16.7426C20.3971 16.7877 20.4995 16.8326 20.6014 16.875C20.8804 16.9878 21.1821 17.033 21.4819 17.0069C21.7817 16.9809 22.0711 16.8842 22.3264 16.725C22.0943 17.0008 21.7914 17.2082 21.4504 17.325C20.8474 17.568 20.1424 17.382 19.6294 17.052C19.536 16.9932 19.4461 16.928 19.357 16.8633C19.0912 16.6704 18.8316 16.482 18.5014 16.482C18.4234 16.482 18.3449 16.4907 18.2662 16.5072C18.8849 16.7553 19.4479 17.1918 19.8879 17.61Z" fill="white"/>
<path d="M12.5199 15.54L12.5281 15.5492C12.8035 16.0377 13.2507 16.4065 13.7829 16.584C14.4481 16.8022 15.1358 16.6199 15.7758 16.4502C15.8747 16.424 15.9726 16.3981 16.0689 16.374C16.1136 16.364 16.1614 16.3592 16.2089 16.3545C16.2761 16.3477 16.3427 16.3411 16.3989 16.32C15.9941 16.2627 15.613 16.0945 15.2979 15.834C15.1774 15.7232 15.0608 15.6108 14.9454 15.4996C14.6327 15.1983 14.3285 14.9052 13.9779 14.673C14.0982 14.8337 14.1908 15.0183 14.2835 15.2033C14.4799 15.5949 14.6774 15.9888 15.1419 16.164C15.1881 16.1813 15.2373 16.1933 15.2865 16.2052C15.365 16.2243 15.4433 16.2434 15.5079 16.284C15.3946 16.302 15.2924 16.2758 15.1879 16.2491C15.1707 16.2447 15.1533 16.2402 15.1359 16.236C14.871 16.1799 14.5881 16.1626 14.304 16.1451C13.6495 16.105 12.9888 16.0644 12.5281 15.5492L12.5229 15.54H12.5199Z" fill="white"/>
<path d="M11.4639 13.8C11.7252 14.393 12.2386 14.6394 12.7536 14.8866C13.0489 15.0283 13.3447 15.1703 13.5939 15.378C13.7166 15.4869 13.8527 15.5797 13.9989 15.654L14.0079 15.648C13.8388 15.5005 13.6868 15.3345 13.5549 15.153C13.3399 14.8411 13.2811 14.4664 13.2224 14.0916C13.1738 13.7815 13.1251 13.4714 12.9879 13.197C13.2694 13.5098 13.5029 13.8627 13.6809 14.244C13.747 14.4011 13.8018 14.564 13.8568 14.7273C14.0137 15.1937 14.1715 15.6627 14.5959 16.005C14.3623 15.9282 14.1154 15.8859 13.8689 15.8436C13.4601 15.7734 13.0521 15.7034 12.7059 15.477C12.1179 15.093 11.5749 14.487 11.4639 13.803V13.8Z" fill="white"/>
<path d="M11.0229 11.916C11.061 12.4378 11.4255 12.8049 11.7941 13.176C12.0061 13.3896 12.2195 13.6045 12.3729 13.851L12.3884 13.8758C12.4734 14.0121 12.5603 14.1515 12.6819 14.259C12.6686 14.2037 12.6358 14.152 12.603 14.1002C12.5841 14.0704 12.5652 14.0406 12.5499 14.01C12.4122 13.7067 12.3573 13.3724 12.3909 13.041C12.405 12.8896 12.4366 12.7421 12.4682 12.5947C12.5242 12.3332 12.5801 12.072 12.5379 11.79C12.7523 12.2526 12.7975 12.7833 12.8427 13.3137C12.8735 13.6741 12.9042 14.0343 12.9879 14.373C13.0168 14.485 13.0686 14.5884 13.1203 14.6915C13.1544 14.7596 13.1885 14.8276 13.2159 14.898C13.0466 14.7677 12.8514 14.6444 12.6512 14.518C12.4366 14.3824 12.2162 14.2432 12.0159 14.088C11.6301 13.8106 11.3289 13.4315 11.1459 12.993C11.0281 12.647 10.9862 12.2796 11.0229 11.916Z" fill="white"/>
<path d="M11.0469 10.404C11.0542 10.3725 11.0611 10.3408 11.0681 10.3091C11.1016 10.1565 11.1353 10.0031 11.1999 9.86398C11.1009 10.3747 11.292 10.7915 11.4834 11.2089C11.582 11.4241 11.6807 11.6394 11.7399 11.868C11.7629 11.9559 11.7809 12.0456 11.7988 12.1353C11.8322 12.3026 11.8655 12.4697 11.9319 12.624C11.9409 12.627 11.9499 12.618 11.9559 12.612C11.7009 11.898 12.0759 11.238 12.4359 10.677C12.5241 10.5231 12.5869 10.3559 12.6219 10.182C12.6602 10.4997 12.5946 10.8635 12.5354 11.1915L12.5319 11.211C12.4791 11.5132 12.3905 11.802 12.3019 12.0911C12.2647 12.2123 12.2275 12.3336 12.1929 12.456C12.1296 12.7258 12.1244 13.006 12.1779 13.278L12.1389 13.248C12.0277 13.0428 11.8715 12.8559 11.7153 12.6688C11.4925 12.402 11.2694 12.135 11.1759 11.814C11.0239 11.3604 10.9798 10.8776 11.0469 10.404Z" fill="white"/>
<path d="M11.3319 9.56998C11.3417 9.01891 11.5433 8.48849 11.9019 8.06998L11.9067 8.06664C11.9142 8.0612 11.922 8.0555 11.9319 8.05798C11.688 8.4258 11.7451 8.85857 11.8027 9.29424C11.8343 9.53372 11.866 9.77407 11.8479 10.005L11.7999 10.671C11.8016 10.6727 11.8029 10.6756 11.8042 10.6788C11.8074 10.6866 11.8111 10.6954 11.8239 10.689C11.842 10.6324 11.8499 10.5742 11.8578 10.5155C11.8604 10.4963 11.863 10.4772 11.8659 10.458C11.9446 9.98596 12.3167 9.6423 12.6756 9.3108C12.7273 9.26305 12.7787 9.21556 12.8289 9.16798C12.9212 9.08086 12.9929 8.97428 13.0389 8.85598C13.0059 9.12598 12.9309 9.39898 12.8109 9.64198C12.6969 9.87225 12.544 10.0862 12.3911 10.3002C12.1297 10.6661 11.8681 11.0324 11.7999 11.481C11.7762 11.1649 11.6737 10.8863 11.5707 10.6062C11.4517 10.2828 11.3319 9.95741 11.3319 9.56998Z" fill="white"/>
<path d="M12.3219 7.59298C12.4944 7.38562 12.7238 7.23335 12.9819 7.15498C12.6132 7.40752 12.5341 7.80658 12.4557 8.20207C12.4289 8.33746 12.4022 8.47244 12.3639 8.60098C12.3411 8.67821 12.3135 8.75384 12.2859 8.82967C12.248 8.93352 12.2099 9.03774 12.1839 9.14698L12.1989 9.15898C12.2873 8.93207 12.4258 8.72801 12.6039 8.56198C12.7149 8.45775 12.8439 8.36656 12.9735 8.27492C13.2468 8.08171 13.5229 7.88653 13.6389 7.56298C13.6299 8.22598 13.0659 8.72998 12.5499 9.11998C12.3202 9.29327 12.1334 9.51703 12.0039 9.77398C12.0219 9.59398 12.0339 9.43798 12.0159 9.26098C11.9619 8.68198 11.9259 8.03098 12.3249 7.59298H12.3219Z" fill="white"/>
<path d="M14.3169 6.47998C14.0528 6.71354 13.8522 6.99475 13.6539 7.27276C13.5797 7.37683 13.5057 7.48048 13.4289 7.58098C13.2808 7.77914 13.0956 7.92795 12.9099 8.07726C12.8059 8.16077 12.7018 8.24444 12.6039 8.33698C12.6692 8.20378 12.7106 8.06149 12.7522 7.91876C12.8061 7.7336 12.8602 7.5477 12.9669 7.37998C13.2807 6.88149 13.7979 6.68108 14.2833 6.49299L14.3169 6.47998Z" fill="white"/>
<path d="M23.4874 15.54L23.4792 15.5492L23.4844 15.54H23.4874Z" fill="white"/>
<path d="M23.4792 15.5492C23.0185 16.0644 22.3579 16.105 21.7033 16.1451C21.4192 16.1626 21.1363 16.1799 20.8714 16.236C20.854 16.2402 20.8368 16.2446 20.8196 16.249C20.7152 16.2758 20.6127 16.302 20.4994 16.284C20.564 16.2434 20.6423 16.2243 20.7208 16.2052C20.77 16.1933 20.8193 16.1813 20.8654 16.164C21.3299 15.9888 21.5274 15.5949 21.7238 15.2033C21.8166 15.0183 21.9091 14.8337 22.0294 14.673C21.6788 14.9052 21.3747 15.1983 21.062 15.4996C20.9465 15.6108 20.8299 15.7232 20.7094 15.834C20.3943 16.0945 20.0132 16.2627 19.6084 16.32C19.6647 16.3411 19.7312 16.3477 19.7984 16.3545C19.8459 16.3592 19.8937 16.364 19.9384 16.374C20.0348 16.3981 20.1325 16.424 20.2314 16.4502C20.8715 16.6199 21.5592 16.8022 22.2244 16.584C22.7566 16.4065 23.2038 16.0377 23.4792 15.5492Z" fill="white"/>
<path d="M24.5434 13.8C24.2822 14.393 23.7688 14.6394 23.2537 14.8866C22.9584 15.0283 22.6626 15.1703 22.4134 15.378C22.2907 15.4869 22.1546 15.5797 22.0084 15.654L21.9994 15.648C22.1685 15.5005 22.3205 15.3345 22.4524 15.153C22.6674 14.8411 22.7262 14.4664 22.7849 14.0916C22.8336 13.7815 22.8822 13.4714 23.0194 13.197C22.738 13.5098 22.5044 13.8627 22.3264 14.244C22.2603 14.401 22.2055 14.5639 22.1506 14.7271C21.9937 15.1935 21.8359 15.6627 21.4114 16.005C21.6451 15.9282 21.8919 15.8859 22.1385 15.8436C22.5472 15.7734 22.9552 15.7034 23.3014 15.477C23.8894 15.093 24.4324 14.487 24.5434 13.803V13.8Z" fill="white"/>
<path d="M24.9844 11.916C24.9463 12.4378 24.5818 12.8049 24.2132 13.176C24.0012 13.3896 23.7878 13.6045 23.6344 13.851L23.6189 13.8758C23.5339 14.0121 23.447 14.1515 23.3254 14.259C23.3387 14.2037 23.3715 14.152 23.4043 14.1002C23.4232 14.0704 23.4421 14.0406 23.4574 14.01C23.5951 13.7067 23.65 13.3724 23.6164 13.041C23.6023 12.8896 23.5707 12.7421 23.5392 12.5947C23.4831 12.3332 23.4272 12.072 23.4694 11.79C23.2551 12.2526 23.2098 12.7833 23.1646 13.3137C23.1339 13.6741 23.1032 14.0343 23.0194 14.373C22.9905 14.485 22.9387 14.5884 22.887 14.6915C22.8529 14.7596 22.8188 14.8276 22.7914 14.898C22.9608 14.7677 23.156 14.6444 23.3561 14.518C23.5708 14.3824 23.7911 14.2432 23.9914 14.088C24.3772 13.8106 24.6784 13.4315 24.8614 12.993C24.9792 12.647 25.0212 12.2796 24.9844 11.916Z" fill="white"/>
<path d="M24.9604 10.404C24.9532 10.3725 24.9462 10.3408 24.9392 10.3091C24.9057 10.1565 24.872 10.0031 24.8074 9.86398C24.9064 10.3747 24.7153 10.7915 24.524 11.2089C24.4253 11.4241 24.3266 11.6394 24.2674 11.868C24.2444 11.9559 24.2265 12.0456 24.2086 12.1352C24.1752 12.3026 24.1418 12.4697 24.0754 12.624C24.0664 12.627 24.0574 12.618 24.0514 12.612C24.3064 11.898 23.9314 11.238 23.5714 10.677C23.4832 10.5231 23.4204 10.3559 23.3854 10.182C23.3472 10.4997 23.4128 10.8635 23.4719 11.1915L23.4754 11.211C23.5282 11.5132 23.6168 11.8019 23.7054 12.0909C23.7425 12.212 23.7799 12.3338 23.8144 12.456C23.8778 12.7258 23.8829 13.006 23.8294 13.278L23.8684 13.248C23.9797 13.0428 24.1358 12.8559 24.292 12.6688C24.5148 12.402 24.7379 12.135 24.8314 11.814C24.9834 11.3604 25.0276 10.8776 24.9604 10.404Z" fill="white"/>
<path d="M24.6754 9.56998C24.6656 9.01891 24.464 8.48849 24.1054 8.06998L24.1007 8.06664C24.0932 8.0612 24.0853 8.0555 24.0754 8.05798C24.3193 8.4258 24.2622 8.85857 24.2047 9.29424C24.173 9.53372 24.1413 9.77407 24.1594 10.005L24.2074 10.671C24.2057 10.6727 24.2045 10.6756 24.2032 10.6788C24.1999 10.6866 24.1962 10.6954 24.1834 10.689C24.1653 10.6324 24.1574 10.5742 24.1495 10.5155C24.1469 10.4964 24.1444 10.4771 24.1414 10.458C24.0627 9.98596 23.6907 9.6423 23.3317 9.3108C23.2801 9.26309 23.2286 9.21553 23.1784 9.16798C23.0861 9.08086 23.0144 8.97428 22.9684 8.85598C23.0014 9.12598 23.0764 9.39898 23.1964 9.64198C23.3104 9.87225 23.4633 10.0862 23.6162 10.3002C23.8776 10.6661 24.1393 11.0324 24.2074 11.481C24.2311 11.1649 24.3336 10.8863 24.4367 10.6062C24.5557 10.2828 24.6754 9.95741 24.6754 9.56998Z" fill="white"/>
<path d="M23.6854 7.59298C23.5129 7.38562 23.2835 7.23335 23.0254 7.15498C23.3942 7.40752 23.4732 7.80658 23.5516 8.20207C23.5784 8.33745 23.6052 8.47246 23.6434 8.60098C23.6662 8.67821 23.6938 8.75384 23.7215 8.82967C23.7594 8.93352 23.7974 9.03774 23.8234 9.14698L23.8084 9.15898C23.72 8.93207 23.5816 8.72801 23.4034 8.56198C23.2924 8.45775 23.1634 8.36656 23.0338 8.27492C22.7605 8.08172 22.4844 7.88653 22.3684 7.56298C22.3774 8.22598 22.9414 8.72998 23.4574 9.11998C23.6871 9.29327 23.8739 9.51703 24.0034 9.77398C23.9854 9.59398 23.9734 9.43798 23.9914 9.26098C24.0454 8.68198 24.0814 8.03098 23.6824 7.59298H23.6854Z" fill="white"/>
<path d="M21.6904 6.47998C21.9545 6.71354 22.1551 6.99475 22.3534 7.27275C22.4277 7.37682 22.5016 7.48048 22.5784 7.58098C22.7265 7.77914 22.9117 7.92795 23.0975 8.07726C23.2014 8.16076 23.3055 8.24444 23.4034 8.33698C23.3381 8.20378 23.2967 8.06149 23.2551 7.91876C23.2012 7.7336 23.1471 7.5477 23.0404 7.37998C22.7267 6.88149 22.2094 6.68108 21.724 6.49299L21.6904 6.47998Z" fill="white"/>
<path d="M18.2849 9.79994H18.2549V9.83494H18.2849V9.79994Z" fill="white"/>
<path d="M18.2099 9.74994H18.2499V9.77994H18.2099V9.74994Z" fill="white"/>
<path d="M18.1399 9.73994L18.1699 9.74494L18.1749 9.71494H18.1399V9.73994Z" fill="white"/>
<path d="M18.1099 9.72994H18.0749V9.69494L18.1149 9.69994L18.1099 9.72994Z" fill="white"/>
<path d="M13.7349 12.9149V12.8899H13.7099V12.9399H13.7499V13.0049H13.7799V12.9299L13.7349 12.9149Z" fill="white"/>
<path d="M14.1099 13.3649L14.0599 13.3149L14.0149 13.2599L13.9949 13.2099L13.9599 13.1199L14.0349 13.1599L14.0599 13.2299L14.0949 13.2549L14.1299 13.3299L14.1099 13.3649Z" fill="white"/>
<path d="M18.6498 9.67988L18.7598 9.67488L18.7648 9.70988H18.6498V9.67988Z" fill="white"/>
<path d="M18.5698 9.67488L18.5798 9.71988L18.6098 9.71488L18.5998 9.66988L18.5698 9.67488Z" fill="white"/>
<path d="M18.5498 9.72488L18.5598 9.74988L18.5748 9.74488L18.5648 9.71988L18.5498 9.72488Z" fill="white"/>
<path d="M18.8048 9.69988L18.8098 9.66488L18.8848 9.65488C18.8848 9.65488 18.9498 9.63988 18.9498 9.66988C18.9535 9.69194 18.9761 9.68156 18.9958 9.67253C19.0029 9.66928 19.0095 9.6662 19.0148 9.66488C19.0348 9.65988 19.0098 9.72988 19.0098 9.72988C19.0098 9.72988 18.9548 9.76988 18.9348 9.76988C18.9148 9.76988 18.8798 9.75488 18.8798 9.73988C18.8798 9.72488 18.8548 9.70488 18.8548 9.70488L18.8048 9.69988Z" fill="white"/>
<path d="M19.3346 8.14496V8.09996C19.3346 8.09996 19.3346 8.05996 19.3046 8.05996C19.2746 8.05996 19.2346 8.02996 19.2446 8.00996C19.2546 7.98996 19.1596 7.96996 19.1596 7.96996C19.1596 7.96996 19.0746 7.88996 19.1096 7.89996C19.1346 7.90996 19.1196 7.86496 19.1196 7.86496C19.1196 7.86496 19.0596 7.87496 19.0446 7.86496C19.0296 7.86496 19.0346 7.81496 19.0346 7.81496C19.0346 7.81496 18.9746 7.80496 18.9746 7.81496C18.9746 7.81922 18.9782 7.82347 18.9832 7.82926C18.9898 7.83709 18.9989 7.84772 19.0046 7.86496C19.0071 7.87232 19.0086 7.88088 19.0102 7.88976C19.0152 7.91708 19.0207 7.94742 19.0546 7.95496C19.1046 7.96496 19.1096 7.97496 19.1146 7.99496C19.1196 8.01496 19.1746 8.01996 19.1746 8.01996L19.2146 8.03996L19.3346 8.14496Z" fill="white"/>
<path d="M18.7996 7.62496L18.7846 7.58496L18.7446 7.57496V7.62496H18.7996Z" fill="white"/>
<path d="M18.7846 7.41496C18.7609 7.39596 18.7755 7.40178 18.7974 7.41313C18.7905 7.41708 18.7842 7.41844 18.7796 7.41496H18.7846Z" fill="white"/>
<path d="M18.7974 7.41313C18.8085 7.40673 18.8212 7.39355 18.8313 7.38306C18.8419 7.37208 18.8496 7.36406 18.8496 7.36996C18.8496 7.38496 18.8996 7.38996 18.8996 7.38996L18.9346 7.41496L18.9746 7.46496L18.9696 7.49996C18.9696 7.49996 18.9196 7.50496 18.9196 7.48996C18.9196 7.47496 18.8946 7.44496 18.8546 7.44496C18.8546 7.44496 18.8215 7.42567 18.7974 7.41313Z" fill="white"/>
<path d="M20.2246 7.30996C20.2146 7.27496 20.3246 7.23496 20.3496 7.26496C20.3552 7.27168 20.3631 7.27714 20.3719 7.28331C20.4027 7.30472 20.4457 7.33466 20.4496 7.45496C20.4546 7.50496 20.3646 7.39996 20.3646 7.39996L20.2896 7.37496C20.2496 7.36496 20.2296 7.33996 20.2246 7.31496V7.30996Z" fill="white"/>
<path d="M18.7596 7.37496L18.7346 7.35996L18.7546 7.31496L18.7796 7.32996L18.7596 7.37496Z" fill="white"/>
<path d="M18.5046 6.87496L18.4396 6.80996V6.75996L18.4196 6.73496L18.3996 6.66496L18.3346 6.64496L18.2696 6.66996L18.1996 6.71496L18.1246 6.72496L18.0846 6.77496L18.2446 6.78496L18.2746 6.83496L18.3896 6.84496L18.4646 6.91996C18.5296 6.94496 18.5446 6.90996 18.5046 6.87496Z" fill="white"/>
<path d="M18.4946 6.62496C18.4846 6.58496 18.4196 6.68496 18.4846 6.70496C18.5496 6.72496 18.6146 6.70496 18.6146 6.70496L18.6296 6.67496L18.8796 6.67996C18.8996 6.65996 18.9096 6.62996 18.9096 6.62996C18.9096 6.62996 18.9696 6.60996 18.9946 6.61996C19.0196 6.62996 18.9946 6.54996 18.9746 6.55996C18.9496 6.56996 18.8996 6.55996 18.8996 6.55996H18.8096C18.8046 6.52996 18.7246 6.54496 18.7196 6.55996C18.7146 6.58496 18.6846 6.58996 18.6846 6.58996L18.5696 6.59996C18.5596 6.62996 18.4996 6.64996 18.4946 6.62996V6.62496Z" fill="white"/>
<path d="M19.1246 6.45496L19.0846 6.48496L19.0596 6.45996L19.0346 6.48496L19.0796 6.52996L19.0896 6.51996L19.1396 6.47996L19.1246 6.45496Z" fill="white"/>
<path d="M18.8496 6.36496L18.8146 6.34496L18.7996 6.36996L18.8396 6.39496H18.8546L18.9096 6.35996L18.8946 6.33496L18.8496 6.36496Z" fill="white"/>
<path d="M18.6846 7.40496L18.6346 7.39996V7.42996H18.6746L18.7046 7.47996L18.7296 7.46496L18.6946 7.41496L18.6846 7.40496Z" fill="white"/>
</svg>
