<svg width="36" height="24" viewBox="0 0 36 24" fill="none" xmlns="http://www.w3.org/2000/svg">
<rect width="36" height="24" rx="2" fill="#BD3D44"/>
<path fill-rule="evenodd" clip-rule="evenodd" d="M36 3.6899H0V1.8399L36 1.8399V3.6899ZM36 7.37491H0V5.5249H36V7.37491ZM36 11.0749H0V9.22491H36V11.0749ZM36 14.7749H0V12.9249H36V14.7749ZM36 18.4749H0V16.6249H36V18.4749ZM36 22.1749H0V20.3249H36V22.1749Z" fill="white"/>
<path d="M0 0H18.24V12.925H0" fill="#192F5D"/>
<path d="M2.88509 1.51385L3.52717 3.48996L1.84619 2.26866H3.92399L2.24302 3.48996L2.88509 1.51385Z" fill="white"/>
<path d="M2.88509 5.46606L3.52717 7.44217L1.84619 6.22087H3.92399L2.24302 7.44217L2.88509 5.46606Z" fill="white"/>
<path d="M2.88509 9.41827L3.52717 11.3944L1.84619 10.1731H3.92399L2.24302 11.3944L2.88509 9.41827Z" fill="white"/>
<path d="M7.03011 1.51385L7.67219 3.48996L5.99121 2.26866H8.06901L6.38804 3.48996L7.03011 1.51385Z" fill="white"/>
<path d="M7.03011 5.46606L7.67219 7.44217L5.99121 6.22087H8.06901L6.38804 7.44217L7.03011 5.46606Z" fill="white"/>
<path d="M7.03011 9.41827L7.67219 11.3944L5.99121 10.1731H8.06901L6.38804 11.3944L7.03011 9.41827Z" fill="white"/>
<path d="M4.95052 3.48999L5.5926 5.46609L3.91162 4.24479H5.98942L4.30845 5.46609L4.95052 3.48999Z" fill="white"/>
<path d="M4.95052 7.4422L5.5926 9.4183L3.91162 8.197H5.98942L4.30845 9.4183L4.95052 7.4422Z" fill="white"/>
<path d="M11.1751 1.51385L11.8172 3.48996L10.1362 2.26866H12.214L10.5331 3.48996L11.1751 1.51385Z" fill="white"/>
<path d="M11.1751 5.46606L11.8172 7.44217L10.1362 6.22087H12.214L10.5331 7.44217L11.1751 5.46606Z" fill="white"/>
<path d="M11.1751 9.41827L11.8172 11.3944L10.1362 10.1731H12.214L10.5331 11.3944L11.1751 9.41827Z" fill="white"/>
<path d="M9.09554 3.48999L9.73762 5.46609L8.05664 4.24479H10.1344L8.45347 5.46609L9.09554 3.48999Z" fill="white"/>
<path d="M9.09554 7.4422L9.73762 9.4183L8.05664 8.197H10.1344L8.45347 9.4183L9.09554 7.4422Z" fill="white"/>
<path d="M15.3201 1.51385L15.9622 3.48996L14.2812 2.26866H16.359L14.6781 3.48996L15.3201 1.51385Z" fill="white"/>
<path d="M15.3201 5.46606L15.9622 7.44217L14.2812 6.22087H16.359L14.6781 7.44217L15.3201 5.46606Z" fill="white"/>
<path d="M15.3201 9.41827L15.9622 11.3944L14.2812 10.1731H16.359L14.6781 11.3944L15.3201 9.41827Z" fill="white"/>
<path d="M13.2406 3.48999L13.8826 5.46609L12.2017 4.24479H14.2795L12.5985 5.46609L13.2406 3.48999Z" fill="white"/>
<path d="M13.2406 7.4422L13.8826 9.4183L12.2017 8.197H14.2795L12.5985 9.4183L13.2406 7.4422Z" fill="white"/>
</svg>
