<svg width="36" height="24" viewBox="0 0 36 24" fill="none" xmlns="http://www.w3.org/2000/svg">
<rect width="36" height="24" rx="2" fill="white"/>
<path d="M13.3 2.66504H36V5.33504H13.3V2.66504ZM13.3 8.00004H36V10.665H13.3V8.00004ZM0 13.335H36V16H0V13.335ZM0 18.665H36V21.335H0V18.665Z" fill="#0038A8"/>
<path d="M6.36399 7.97021L6.80399 8.63021C4.98533 9.95021 6.08532 10.7129 4.80933 11.1235C5.60133 10.3609 4.67733 10.2875 5.35199 8.65955" fill="#FCD116"/>
<path d="M6.36399 7.97021L6.80399 8.63021C4.98533 9.95021 6.08532 10.7129 4.80933 11.1235C5.60133 10.3609 4.67733 10.2875 5.35199 8.65955" stroke="black" stroke-width="0.0879999" stroke-miterlimit="20" stroke-linecap="square"/>
<path d="M6.04132 8.16089C5.04399 9.80355 5.68933 10.7129 4.80933 11.1382" stroke="black" stroke-width="0.0879999" stroke-miterlimit="20"/>
<path d="M6.6571 6.66479H7.5371L6.6571 11.5048L5.7771 6.66479H6.6571V11.5048V6.66479Z" fill="#FCD116"/>
<path d="M6.6571 6.66479H7.5371L6.6571 11.5048M6.6571 6.66479H5.7771L6.6571 11.5048M6.6571 6.66479V11.5048" stroke="black" stroke-width="0.0879999" stroke-miterlimit="20"/>
<path d="M5.52876 7.38044L5.37319 8.15826C3.15382 7.80565 3.39235 9.12275 2.1997 8.51087C3.29902 8.53161 2.69751 7.82639 4.32573 7.15228" fill="#FCD116"/>
<path d="M5.52876 7.38044L5.37319 8.15826C3.15382 7.80565 3.39235 9.12275 2.1997 8.51087C3.29902 8.53161 2.69751 7.82639 4.32573 7.15228" stroke="black" stroke-width="0.0879999" stroke-miterlimit="20" stroke-linecap="square"/>
<path d="M5.16583 7.28717C3.29907 7.74349 3.1124 8.8428 2.18939 8.52131" stroke="black" stroke-width="0.0879999" stroke-miterlimit="20"/>
<path d="M6.65912 6.66473L7.28137 7.28699L3.23673 10.0871L6.03687 6.04248L6.65912 6.66473L3.23673 10.0871L6.65912 6.66473Z" fill="#FCD116"/>
<path d="M6.65912 6.66473L7.28137 7.28699L3.23673 10.0871M6.65912 6.66473L6.03687 6.04248L3.23673 10.0871M6.65912 6.66473L3.23673 10.0871" stroke="black" stroke-width="0.0879999" stroke-miterlimit="20"/>
<path d="M5.35742 6.37156L4.69742 6.81156C3.37742 4.99289 2.61476 6.09289 2.20409 4.81689C2.96676 5.60889 3.04009 4.68489 4.66809 5.35956" fill="#FCD116"/>
<path d="M5.35742 6.37156L4.69742 6.81156C3.37742 4.99289 2.61476 6.09289 2.20409 4.81689C2.96676 5.60889 3.04009 4.68489 4.66809 5.35956" stroke="black" stroke-width="0.0879999" stroke-miterlimit="20" stroke-linecap="square"/>
<path d="M5.16699 6.04889C3.52433 5.05156 2.615 5.69689 2.18966 4.81689" stroke="black" stroke-width="0.0879999" stroke-miterlimit="20"/>
<path d="M6.66309 6.66491V7.54491L1.82309 6.66491L6.66309 5.78491V6.66491H1.82309H6.66309Z" fill="#FCD116"/>
<path d="M6.66309 6.66491V7.54491L1.82309 6.66491M6.66309 6.66491V5.78491L1.82309 6.66491M6.66309 6.66491H1.82309" stroke="black" stroke-width="0.0879999" stroke-miterlimit="20"/>
<path d="M5.94951 5.53437L5.1717 5.37881C5.52431 3.15944 4.20721 3.39797 4.81909 2.20532C4.79835 3.30463 5.50357 2.70312 6.17767 4.33135" fill="#FCD116"/>
<path d="M5.94951 5.53437L5.1717 5.37881C5.52431 3.15944 4.20721 3.39797 4.81909 2.20532C4.79835 3.30463 5.50357 2.70312 6.17767 4.33135" stroke="black" stroke-width="0.0879999" stroke-miterlimit="20" stroke-linecap="square"/>
<path d="M6.04291 5.17145C5.58659 3.30469 4.48727 3.11801 4.80877 2.195" stroke="black" stroke-width="0.0879999" stroke-miterlimit="20"/>
<path d="M6.66486 6.66473L6.0426 7.28699L3.24246 3.24234L7.28711 6.04248L6.66486 6.66473L3.24246 3.24234L6.66486 6.66473Z" fill="#FCD116"/>
<path d="M6.66486 6.66473L6.0426 7.28699L3.24246 3.24234M6.66486 6.66473L7.28711 6.04248L3.24246 3.24234M6.66486 6.66473L3.24246 3.24234" stroke="black" stroke-width="0.0879999" stroke-miterlimit="20"/>
<path d="M6.95193 5.35968L6.51193 4.69968C8.33059 3.37968 7.23059 2.61702 8.50659 2.20635C7.71459 2.96902 8.63859 3.04235 7.96393 4.67035" fill="#FCD116"/>
<path d="M6.95193 5.35968L6.51193 4.69968C8.33059 3.37968 7.23059 2.61702 8.50659 2.20635C7.71459 2.96902 8.63859 3.04235 7.96393 4.67035" stroke="black" stroke-width="0.0879999" stroke-miterlimit="20" stroke-linecap="square"/>
<path d="M7.27459 5.16901C8.27193 3.52634 7.62659 2.61701 8.50659 2.19168" stroke="black" stroke-width="0.0879999" stroke-miterlimit="20"/>
<path d="M6.65882 6.6651H5.77882L6.65882 1.82511L7.53882 6.6651H6.65882V1.82511V6.6651Z" fill="#FCD116"/>
<path d="M6.65882 6.6651H5.77882L6.65882 1.82511M6.65882 6.6651H7.53882L6.65882 1.82511M6.65882 6.6651V1.82511" stroke="black" stroke-width="0.0879999" stroke-miterlimit="20"/>
<path d="M7.79326 5.94958L7.94883 5.17176C10.1682 5.52437 9.92967 4.20727 11.1223 4.81915C10.023 4.79841 10.6245 5.50363 8.99629 6.17773" fill="#FCD116"/>
<path d="M7.79326 5.94958L7.94883 5.17176C10.1682 5.52437 9.92967 4.20727 11.1223 4.81915C10.023 4.79841 10.6245 5.50363 8.99629 6.17773" stroke="black" stroke-width="0.0879999" stroke-miterlimit="20" stroke-linecap="square"/>
<path d="M8.15619 6.04272C10.0229 5.58641 10.2096 4.48709 11.1326 4.80859" stroke="black" stroke-width="0.0879999" stroke-miterlimit="20"/>
<path d="M6.6629 6.66516L6.04065 6.04291L10.0853 3.24277L7.28516 7.28741L6.6629 6.66516L10.0853 3.24277L6.6629 6.66516Z" fill="#FCD116"/>
<path d="M6.6629 6.66516L6.04065 6.04291L10.0853 3.24277M6.6629 6.66516L7.28516 7.28741L10.0853 3.24277M6.6629 6.66516L10.0853 3.24277" stroke="black" stroke-width="0.0879999" stroke-miterlimit="20"/>
<path d="M7.96362 6.95834L8.62362 6.51834C9.94362 8.337 10.7063 7.237 11.117 8.513C10.3543 7.721 10.281 8.645 8.65296 7.97033" fill="#FCD116"/>
<path d="M7.96362 6.95834L8.62362 6.51834C9.94362 8.337 10.7063 7.237 11.117 8.513C10.3543 7.721 10.281 8.645 8.65296 7.97033" stroke="black" stroke-width="0.0879999" stroke-miterlimit="20" stroke-linecap="square"/>
<path d="M8.15405 7.281C9.79672 8.27833 10.706 7.633 11.1314 8.513" stroke="black" stroke-width="0.0879999" stroke-miterlimit="20"/>
<path d="M6.65796 6.66498V5.78498L11.498 6.66498L6.65796 7.54498V6.66498H11.498H6.65796Z" fill="#FCD116"/>
<path d="M6.65796 6.66498V5.78498L11.498 6.66498M6.65796 6.66498V7.54498L11.498 6.66498M6.65796 6.66498H11.498" stroke="black" stroke-width="0.0879999" stroke-miterlimit="20"/>
<path d="M7.36958 7.79552L8.14739 7.95109C7.79478 10.1705 9.11189 9.93193 8.5 11.1246C8.52075 10.0253 7.81553 10.6268 7.14142 8.99855" fill="#FCD116"/>
<path d="M7.36958 7.79552L8.14739 7.95109C7.79478 10.1705 9.11189 9.93193 8.5 11.1246C8.52075 10.0253 7.81553 10.6268 7.14142 8.99855" stroke="black" stroke-width="0.0879999" stroke-miterlimit="20" stroke-linecap="square"/>
<path d="M7.27618 8.15845C7.7325 10.0252 8.83182 10.2119 8.51032 11.1349" stroke="black" stroke-width="0.0879999" stroke-miterlimit="20"/>
<path d="M6.65424 6.66516L7.27649 6.04291L10.0766 10.0876L6.03198 7.28741L6.65424 6.66516L10.0766 10.0876L6.65424 6.66516Z" fill="#FCD116"/>
<path d="M6.65424 6.66516L7.27649 6.04291L10.0766 10.0876M6.65424 6.66516L6.03198 7.28741L10.0766 10.0876M6.65424 6.66516L10.0766 10.0876" stroke="black" stroke-width="0.0879999" stroke-miterlimit="20"/>
<path d="M6.66118 8.27818C7.5522 8.27818 8.27451 7.55586 8.27451 6.66485C8.27451 5.77383 7.5522 5.05151 6.66118 5.05151C5.77016 5.05151 5.04785 5.77383 5.04785 6.66485C5.04785 7.55586 5.77016 8.27818 6.66118 8.27818Z" fill="#FCD116" stroke="black" stroke-width="0.0879999" stroke-miterlimit="20"/>
<path d="M7.85131 6.0196C7.74864 6.13693 7.68998 5.9316 7.32331 5.9316C6.95665 5.9316 6.89798 6.1516 6.83932 6.1076C6.78065 6.0636 7.14731 5.7996 7.26465 5.78493C7.38198 5.77027 7.71931 5.8876 7.85131 6.0196ZM7.42598 6.1516C7.52864 6.2396 7.44064 6.43026 7.33798 6.43026C7.23531 6.43026 7.04465 6.25426 7.13265 6.13693" fill="black"/>
<path d="M6.94238 6.2837C6.95705 6.1077 7.10371 6.07837 7.33838 6.07837C7.57304 6.07837 7.67571 6.25437 7.76371 6.29837C7.66104 6.29837 7.57304 6.1517 7.33838 6.1517C7.10371 6.1517 7.10371 6.1517 6.94238 6.29837M6.98638 6.3277C7.04505 6.2397 7.11838 6.4157 7.27971 6.4157C7.44104 6.4157 7.52904 6.3717 7.63171 6.29837C7.73437 6.22503 7.48504 6.47436 7.32371 6.47436C7.16238 6.47436 6.94238 6.38637 6.98638 6.3277Z" fill="black"/>
<path d="M7.4845 6.41563C7.67516 6.31296 7.55783 6.1663 7.4845 6.13696C7.51383 6.1663 7.63117 6.31296 7.4845 6.41563ZM6.66318 7.29562C6.75118 7.29562 6.78051 7.26628 6.89784 7.26628C7.01517 7.26628 7.29384 7.42761 7.45517 7.36895C7.11784 7.50095 7.24984 7.41295 6.66318 7.41295H6.58984M7.51383 7.50095C7.45517 7.39828 7.46983 7.42761 7.3525 7.26628C7.46983 7.35428 7.49917 7.39828 7.51383 7.50095ZM6.66318 7.64761C7.02984 7.64761 6.97117 7.57428 7.45517 7.36895C7.10317 7.41295 7.02984 7.53028 6.66318 7.53028H6.58984M6.66318 7.10495C6.76584 7.10495 6.79517 7.03162 6.91251 7.03162C7.02984 7.03162 7.19117 7.07562 7.2645 7.13428C7.27917 7.14895 7.2205 7.01695 7.10317 7.00229C6.98584 6.98762 7.02984 6.79696 6.89784 6.76762C6.89784 6.82629 6.94184 6.81162 6.95651 6.89962C6.95651 6.97295 6.82451 6.97295 6.79517 6.89962C6.82451 7.01695 6.73651 7.01695 6.66318 7.01695" fill="black"/>
<path d="M5.48072 6.0196C5.58339 6.13693 5.64206 5.9316 6.00872 5.9316C6.37538 5.9316 6.43405 6.1516 6.49271 6.1076C6.55138 6.0636 6.18472 5.7996 6.06738 5.78493C5.95005 5.77027 5.61272 5.8876 5.48072 6.0196ZM5.90605 6.1516C5.80339 6.2396 5.89139 6.43026 5.99405 6.43026C6.09672 6.43026 6.28738 6.25426 6.19938 6.13693" fill="black"/>
<path d="M6.38965 6.2837C6.37498 6.1077 6.22832 6.07837 5.99365 6.07837C5.75899 6.07837 5.65632 6.25437 5.56832 6.29837C5.67099 6.29837 5.75899 6.1517 5.99365 6.1517C6.22832 6.1517 6.22832 6.1517 6.38965 6.29837M6.34565 6.3277C6.28698 6.2397 6.21365 6.4157 6.05232 6.4157C5.89099 6.4157 5.80299 6.3717 5.70032 6.29837C5.59766 6.22503 5.84699 6.47436 6.00832 6.47436C6.16965 6.47436 6.38965 6.38637 6.34565 6.3277Z" fill="black"/>
<path d="M5.84753 6.41563C5.65687 6.31296 5.7742 6.1663 5.84753 6.13696C5.8182 6.1663 5.70087 6.31296 5.84753 6.41563ZM6.66885 7.29562C6.58086 7.29562 6.55152 7.26628 6.43419 7.26628C6.31686 7.26628 6.0382 7.42761 5.87686 7.36895C6.21419 7.50095 6.08219 7.41295 6.66885 7.41295H6.74219M5.8182 7.50095C5.87686 7.39828 5.8622 7.42761 5.97953 7.26628C5.8622 7.35428 5.83286 7.39828 5.8182 7.50095ZM6.66885 7.64761C6.30219 7.64761 6.36086 7.57428 5.87686 7.36895C6.22886 7.41295 6.30219 7.53028 6.66885 7.53028H6.74219M6.66885 7.10495C6.56619 7.10495 6.53686 7.03162 6.41952 7.03162C6.30219 7.03162 6.14086 7.07562 6.06753 7.13428C6.05286 7.14895 6.11153 7.01695 6.22886 7.00229C6.34619 6.98762 6.30219 6.79696 6.43419 6.76762C6.43419 6.82629 6.39019 6.81162 6.37552 6.89962C6.37552 6.97295 6.50752 6.97295 6.53686 6.89962C6.50752 7.01695 6.59552 7.01695 6.66885 7.01695" fill="black"/>
<path d="M6.66468 7.77954C6.59135 7.77954 6.40069 7.82354 6.66468 7.82354C6.92868 7.82354 6.73802 7.77954 6.66468 7.77954Z" fill="black"/>
</svg>
