<svg width="36" height="24" viewBox="0 0 36 24" fill="none" xmlns="http://www.w3.org/2000/svg">
<g clip-path="url(#clip0_11930_68492)">
<path d="M0 16H36V24H0V16Z" fill="#1EB53A"/>
<path d="M0 0H36V8H0V0Z" fill="#0099B5"/>
<path d="M0 7.67993H36V16.3199H0V7.67993Z" fill="#CE1126"/>
<path d="M0 8.15991L36 8.15991V15.8399H0V8.15991Z" fill="white"/>
<path d="M6.71984 6.71996C8.31042 6.71996 9.59984 5.43054 9.59984 3.83996C9.59984 2.24938 8.31042 0.959961 6.71984 0.959961C5.12926 0.959961 3.83984 2.24938 3.83984 3.83996C3.83984 5.43054 5.12926 6.71996 6.71984 6.71996Z" fill="white"/>
<path d="M7.67956 6.71996C9.27014 6.71996 10.5596 5.43054 10.5596 3.83996C10.5596 2.24938 9.27014 0.959961 7.67956 0.959961C6.08898 0.959961 4.79956 2.24938 4.79956 3.83996C4.79956 5.43054 6.08898 6.71996 7.67956 6.71996Z" fill="#0099B5"/>
<path d="M13.0408 5.56885L12.8584 6.11605L13.1368 6.21205" fill="white"/>
<path d="M13.0412 5.56885L13.2236 6.11605L12.9452 6.21205" fill="white"/>
<path d="M13.5905 5.96693L13.0138 5.96255L13.0085 6.25699" fill="white"/>
<path d="M13.5901 5.96691L13.1261 6.30947L12.9487 6.07437" fill="white"/>
<path d="M12.4958 5.96691L12.9599 6.30947L13.1372 6.07437" fill="white"/>
<path d="M12.4954 5.96693L13.0722 5.96255L13.0774 6.25699" fill="white"/>
<path d="M13.3895 6.61087L13.2155 6.06097L12.9338 6.14694" fill="white"/>
<path d="M13.3898 6.61081L12.9206 6.27532L13.0894 6.03402" fill="white"/>
<path d="M12.7079 6.61105L13.1771 6.27557L13.0083 6.03426" fill="white"/>
<path d="M12.7081 6.61087L12.8822 6.06097L13.1638 6.14694" fill="white"/>
<path d="M13.0408 3.26489L12.8584 3.81209L13.1368 3.90809" fill="white"/>
<path d="M13.0412 3.26489L13.2236 3.81209L12.9452 3.90809" fill="white"/>
<path d="M13.5905 3.66297L13.0138 3.6586L13.0085 3.95304" fill="white"/>
<path d="M13.5901 3.66295L13.1261 4.00552L12.9487 3.77041" fill="white"/>
<path d="M12.4958 3.66295L12.9599 4.00552L13.1372 3.77041" fill="white"/>
<path d="M12.4954 3.66297L13.0722 3.6586L13.0774 3.95304" fill="white"/>
<path d="M13.3895 4.30692L13.2155 3.75701L12.9338 3.84299" fill="white"/>
<path d="M13.3898 4.30685L12.9206 3.97137L13.0894 3.73006" fill="white"/>
<path d="M12.7079 4.30709L13.1771 3.97161L13.0083 3.73031" fill="white"/>
<path d="M12.7081 4.30692L12.8822 3.75701L13.1638 3.84299" fill="white"/>
<path d="M13.0408 0.960938L12.8584 1.50814L13.1368 1.60414" fill="white"/>
<path d="M13.0412 0.960938L13.2236 1.50814L12.9452 1.60414" fill="white"/>
<path d="M13.5905 1.35902L13.0138 1.35464L13.0085 1.64908" fill="white"/>
<path d="M13.5901 1.359L13.1261 1.70156L12.9487 1.46646" fill="white"/>
<path d="M12.4958 1.35875L12.9599 1.70132L13.1372 1.46621" fill="white"/>
<path d="M12.4954 1.35878L13.0722 1.3544L13.0774 1.64884" fill="white"/>
<path d="M13.3895 2.00296L13.2155 1.45306L12.9338 1.53903" fill="white"/>
<path d="M13.3898 2.0029L12.9206 1.66741L13.0894 1.42611" fill="white"/>
<path d="M12.7079 2.00314L13.1771 1.66766L13.0083 1.42635" fill="white"/>
<path d="M12.7081 2.00296L12.8822 1.45306L13.1638 1.53903" fill="white"/>
<path d="M15.3484 5.56885L15.166 6.11605L15.4444 6.21205" fill="white"/>
<path d="M15.3488 5.56885L15.5312 6.11605L15.2528 6.21205" fill="white"/>
<path d="M15.8982 5.96693L15.3214 5.96255L15.3161 6.25699" fill="white"/>
<path d="M15.8977 5.96691L15.4337 6.30947L15.2564 6.07437" fill="white"/>
<path d="M14.8005 5.96666L15.2646 6.30923L15.4419 6.07412" fill="white"/>
<path d="M14.8011 5.96669L15.3778 5.96231L15.3831 6.25675" fill="white"/>
<path d="M15.6942 6.61087L15.5202 6.06097L15.2385 6.14694" fill="white"/>
<path d="M15.6944 6.61081L15.2252 6.27532L15.394 6.03402" fill="white"/>
<path d="M15.0106 6.61105L15.4798 6.27557L15.311 6.03426" fill="white"/>
<path d="M15.0108 6.61087L15.1849 6.06097L15.4666 6.14694" fill="white"/>
<path d="M15.3484 3.26489L15.166 3.81209L15.4444 3.90809" fill="white"/>
<path d="M15.3488 3.26489L15.5312 3.81209L15.2528 3.90809" fill="white"/>
<path d="M15.8982 3.66297L15.3214 3.6586L15.3161 3.95304" fill="white"/>
<path d="M15.8977 3.66295L15.4337 4.00552L15.2564 3.77041" fill="white"/>
<path d="M14.8005 3.66295L15.2646 4.00552L15.4419 3.77041" fill="white"/>
<path d="M14.8011 3.66297L15.3778 3.6586L15.3831 3.95304" fill="white"/>
<path d="M15.6942 4.30692L15.5202 3.75701L15.2385 3.84299" fill="white"/>
<path d="M15.6944 4.30685L15.2252 3.97137L15.394 3.73006" fill="white"/>
<path d="M15.0106 4.30709L15.4798 3.97161L15.311 3.73031" fill="white"/>
<path d="M15.0108 4.30692L15.1849 3.75701L15.4666 3.84299" fill="white"/>
<path d="M15.3484 0.960938L15.166 1.50814L15.4444 1.60414" fill="white"/>
<path d="M15.3488 0.960938L15.5312 1.50814L15.2528 1.60414" fill="white"/>
<path d="M15.8982 1.35902L15.3214 1.35464L15.3161 1.64908" fill="white"/>
<path d="M15.8977 1.359L15.4337 1.70156L15.2564 1.46646" fill="white"/>
<path d="M14.8005 1.359L15.2646 1.70156L15.4419 1.46646" fill="white"/>
<path d="M14.8011 1.35902L15.3778 1.35464L15.3831 1.64908" fill="white"/>
<path d="M15.6942 2.00296L15.5202 1.45306L15.2385 1.53903" fill="white"/>
<path d="M15.6944 2.0029L15.2252 1.66741L15.394 1.42611" fill="white"/>
<path d="M15.0106 2.00314L15.4798 1.66766L15.311 1.42635" fill="white"/>
<path d="M15.0108 2.00296L15.1849 1.45306L15.4666 1.53903" fill="white"/>
<path d="M17.6668 5.56885L17.4844 6.11605L17.7628 6.21205" fill="white"/>
<path d="M17.6672 5.56885L17.8496 6.11605L17.5712 6.21205" fill="white"/>
<path d="M18.2107 5.96693L17.6339 5.96255L17.6286 6.25699" fill="white"/>
<path d="M18.2102 5.96691L17.7462 6.30947L17.5689 6.07437" fill="white"/>
<path d="M17.1169 5.96666L17.581 6.30923L17.7583 6.07412" fill="white"/>
<path d="M17.1165 5.96669L17.6933 5.96231L17.6985 6.25675" fill="white"/>
<path d="M18.0028 6.61087L17.8288 6.06097L17.5471 6.14694" fill="white"/>
<path d="M18.003 6.61081L17.5338 6.27532L17.7026 6.03402" fill="white"/>
<path d="M17.327 6.61099L17.7962 6.27551L17.6274 6.0342" fill="white"/>
<path d="M17.3263 6.61081L17.5003 6.06091L17.782 6.14688" fill="white"/>
<path d="M17.6668 3.26489L17.4844 3.81209L17.7628 3.90809" fill="white"/>
<path d="M17.6672 3.26489L17.8496 3.81209L17.5712 3.90809" fill="white"/>
<path d="M18.2107 3.66297L17.6339 3.6586L17.6286 3.95304" fill="white"/>
<path d="M18.2102 3.66295L17.7462 4.00552L17.5689 3.77041" fill="white"/>
<path d="M17.1169 3.66271L17.581 4.00528L17.7583 3.77017" fill="white"/>
<path d="M17.1165 3.66273L17.6933 3.65835L17.6985 3.95279" fill="white"/>
<path d="M18.0028 4.30692L17.8288 3.75701L17.5471 3.84299" fill="white"/>
<path d="M18.003 4.30685L17.5338 3.97137L17.7026 3.73006" fill="white"/>
<path d="M17.327 4.30703L17.7962 3.97155L17.6274 3.73025" fill="white"/>
<path d="M17.3263 4.30686L17.5003 3.75695L17.782 3.84293" fill="white"/>
<path d="M17.6668 0.960938L17.4844 1.50814L17.7628 1.60414" fill="white"/>
<path d="M17.6672 0.960938L17.8496 1.50814L17.5712 1.60414" fill="white"/>
<path d="M18.2107 1.35902L17.6339 1.35464L17.6286 1.64908" fill="white"/>
<path d="M18.2102 1.359L17.7462 1.70156L17.5689 1.46646" fill="white"/>
<path d="M17.1169 1.359L17.581 1.70156L17.7583 1.46646" fill="white"/>
<path d="M17.1165 1.35902L17.6933 1.35464L17.6985 1.64908" fill="white"/>
<path d="M18.0028 2.00296L17.8288 1.45306L17.5471 1.53903" fill="white"/>
<path d="M18.003 2.0029L17.5338 1.66741L17.7026 1.42611" fill="white"/>
<path d="M17.327 2.00308L17.7962 1.6676L17.6274 1.42629" fill="white"/>
<path d="M17.3263 2.0029L17.5003 1.453L17.782 1.53897" fill="white"/>
<path d="M8.43826 5.56885L8.25586 6.11605L8.53426 6.21205" fill="white"/>
<path d="M8.43772 5.56885L8.62012 6.11605L8.34172 6.21205" fill="white"/>
<path d="M8.98801 5.96693L8.41122 5.96255L8.40595 6.25699" fill="white"/>
<path d="M8.98758 5.96691L8.52353 6.30947L8.3462 6.07437" fill="white"/>
<path d="M7.8923 5.96691L8.35636 6.30947L8.53369 6.07437" fill="white"/>
<path d="M7.89188 5.96693L8.46866 5.96255L8.47393 6.25699" fill="white"/>
<path d="M8.78408 6.61087L8.61 6.06097L8.32835 6.14694" fill="white"/>
<path d="M8.78428 6.61081L8.31508 6.27532L8.48389 6.03402" fill="white"/>
<path d="M8.10244 6.61105L8.57164 6.27557L8.40283 6.03426" fill="white"/>
<path d="M8.10264 6.61087L8.27671 6.06097L8.55837 6.14694" fill="white"/>
<path d="M10.7429 5.56885L10.5605 6.11605L10.8389 6.21205" fill="white"/>
<path d="M10.7434 5.56885L10.9258 6.11605L10.6474 6.21205" fill="white"/>
<path d="M11.2946 5.96693L10.7179 5.96255L10.7126 6.25699" fill="white"/>
<path d="M11.2942 5.96691L10.8302 6.30947L10.6528 6.07437" fill="white"/>
<path d="M10.197 5.96691L10.661 6.30947L10.8384 6.07437" fill="white"/>
<path d="M10.1966 5.96693L10.7733 5.96255L10.7786 6.25699" fill="white"/>
<path d="M11.0917 6.61087L10.9176 6.06097L10.636 6.14694" fill="white"/>
<path d="M11.0909 6.61081L10.6217 6.27532L10.7905 6.03402" fill="white"/>
<path d="M10.4081 6.61105L10.8773 6.27557L10.7085 6.03426" fill="white"/>
<path d="M10.4083 6.61087L10.5824 6.06097L10.864 6.14694" fill="white"/>
<path d="M10.7429 3.26489L10.5605 3.81209L10.8389 3.90809" fill="white"/>
<path d="M10.7434 3.26489L10.9258 3.81209L10.6474 3.90809" fill="white"/>
<path d="M11.2946 3.66297L10.7179 3.6586L10.7126 3.95304" fill="white"/>
<path d="M11.2942 3.66295L10.8302 4.00552L10.6528 3.77041" fill="white"/>
<path d="M10.197 3.66295L10.661 4.00552L10.8384 3.77041" fill="white"/>
<path d="M10.1966 3.66297L10.7733 3.6586L10.7786 3.95304" fill="white"/>
<path d="M11.0917 4.30692L10.9176 3.75701L10.636 3.84299" fill="white"/>
<path d="M11.0909 4.30685L10.6217 3.97137L10.7905 3.73006" fill="white"/>
<path d="M10.4081 4.30709L10.8773 3.97161L10.7085 3.73031" fill="white"/>
<path d="M10.4083 4.30692L10.5824 3.75701L10.864 3.84299" fill="white"/>
</g>
<defs>
<clipPath id="clip0_11930_68492">
<rect width="36" height="24" rx="2" fill="white"/>
</clipPath>
</defs>
</svg>
