<svg width="36" height="24" viewBox="0 0 36 24" fill="none" xmlns="http://www.w3.org/2000/svg">
<g clip-path="url(#clip0_11930_68542)">
<path fill-rule="evenodd" clip-rule="evenodd" d="M-0.00170898 -6.10352e-05H35.9983V23.9999H-0.00170898V-6.10352e-05Z" fill="#F4F100"/>
<path fill-rule="evenodd" clip-rule="evenodd" d="M27.5605 -6.10352e-05H35.998V23.9999H27.5605V-6.10352e-05Z" fill="#199A00"/>
<path fill-rule="evenodd" clip-rule="evenodd" d="M-0.00170898 -6.10352e-05H8.43579V23.9999H-0.00170898V-6.10352e-05Z" fill="#0058AA"/>
<path fill-rule="evenodd" clip-rule="evenodd" d="M15.32 6.49994L13 10.0649L15.235 13.7849L17.425 10.0999L15.32 6.49994ZM21.38 6.49994L19.065 10.0649L21.3 13.7849L23.49 10.0999L21.38 6.49994ZM18.32 11.3649L16 14.9349L18.24 18.6549L20.43 14.9699L18.32 11.3699V11.3649Z" fill="#199A00"/>
</g>
<defs>
<clipPath id="clip0_11930_68542">
<rect width="36" height="24" rx="2" fill="white"/>
</clipPath>
</defs>
</svg>
