<svg width="36" height="24" viewBox="0 0 36 24" fill="none" xmlns="http://www.w3.org/2000/svg">
<g clip-path="url(#clip0_11930_68545)">
<path d="M0 0H36V24H0V0Z" fill="#CF142B"/>
<path d="M0 0H36V16H0V0Z" fill="#00247D"/>
<path d="M0 0H36V8H0V0Z" fill="#FFCC00"/>
<path d="M19.4223 8.72449L19.516 9.45097L20.239 9.57006L20.2373 9.5707L19.5689 9.8874L19.6781 10.6055L19.6788 10.6083L19.1758 10.0756L18.5253 10.402L18.5218 10.4041L18.8732 9.76082L18.3585 9.23978L19.0852 9.37625L19.4223 8.72449Z" fill="white"/>
<path d="M20.9254 9.82162L21.5599 10.1975L22.1013 9.69886L21.9407 10.4151L22.5762 10.7725L21.8518 10.8404L21.7075 11.5588L21.417 10.8864L20.6886 10.9713L21.2327 10.4922L20.9254 9.82162Z" fill="white"/>
<path d="M23.1417 11.2447L23.6071 11.8122L24.2843 11.5297L24.2856 11.529L23.8886 12.1487L24.3634 12.7017L23.6563 12.517L23.2753 13.1423L23.2753 13.1403L23.2326 12.4119L22.5161 12.2418L23.2006 11.974L23.1417 11.2447Z" fill="white"/>
<path d="M24.7294 13.3379L24.9723 14.0293L25.708 13.9953L25.1247 14.4406L25.382 15.1237L24.7803 14.7091L24.2083 15.1665L24.4164 14.4679L23.8021 14.0635L23.7991 14.0618L24.5345 14.0445L24.7294 13.3379Z" fill="white"/>
<path d="M10.6129 15.1237L10.8708 14.4395L10.2891 13.9955L11.0247 14.0295L11.2675 13.3381L11.4625 14.0448L12.1852 14.0618L11.58 14.4601L11.7913 15.1666L11.2167 14.7076L10.6129 15.1237Z" fill="white"/>
<path d="M11.6325 12.702L12.114 12.1411L11.7221 11.5292L12.3993 11.8117L12.8602 11.2497L12.8634 11.2451L12.8039 11.9773L13.48 12.2417L12.7663 12.4112L12.7236 13.1403L12.7236 13.1421L12.3425 12.5165L11.6325 12.702Z" fill="white"/>
<path d="M13.4217 10.7725L14.0598 10.4136L13.8996 9.69924L14.4393 10.1957L15.0715 9.82113L14.7658 10.4885L15.3144 10.9714L14.5885 10.8868L14.2984 11.5587L14.1541 10.8411L13.4217 10.7725Z" fill="white"/>
<path d="M15.7626 9.5707L15.7609 9.57006L16.4839 9.45097L16.5773 8.72695L16.5774 8.72461L16.9142 9.37555L17.6339 9.24026L17.6311 9.24272L17.1185 9.76168L17.4693 10.4038L16.8176 10.077L16.3181 10.606L16.3164 10.6081L16.4264 9.88523L15.7626 9.5707Z" fill="white"/>
</g>
<defs>
<clipPath id="clip0_11930_68545">
<rect width="36" height="24" rx="2" fill="white"/>
</clipPath>
</defs>
</svg>
