<svg width="36" height="24" viewBox="0 0 36 24" fill="none" xmlns="http://www.w3.org/2000/svg">
<rect width="36" height="24" rx="2" fill="#000066"/>
<path d="M0 0H16V12H0V0Z" fill="#012169"/>
<path d="M1.875 0L7.975 4.525L14.05 0H16V1.55L10 6.025L16 10.475V12H14L8 7.525L2.025 12H0V10.5L5.975 6.05L0 1.6V0H1.875Z" fill="white"/>
<path d="M10.6 7.025L16 11V12L9.225 7.025H10.6ZM6 7.525L6.15 8.4L1.35 12H0L6 7.525ZM16 0V0.075L9.775 4.775L9.825 3.675L14.75 0H16ZM0 0L5.975 4.4H4.475L0 1.05V0Z" fill="#C8102E"/>
<path d="M6.025 0V12H10.025V0H6.025ZM0 4V8H16V4H0Z" fill="white"/>
<path d="M0 4.825V7.225H16V4.825H0ZM6.825 0V12H9.225V0H6.825Z" fill="#C8102E"/>
<path d="M21.2033 5.10976L30.9059 5.07489L30.8866 13.7158C30.8866 13.7158 31.2276 15.0333 26.818 17.0288C28.4028 16.8661 30.131 15.1766 30.131 15.1766C30.131 15.1766 30.8323 14.2738 31.1772 14.7775C31.5182 15.2812 31.8398 15.537 32.0917 15.7346C32.3435 15.9283 32.5411 16.4708 32.1653 16.8661C31.7855 17.2652 31.1927 17.3155 31.0299 16.8312C30.7781 16.9591 29.232 18.8306 26.0624 18.9197C22.8385 18.8655 21.0755 16.8118 21.0755 16.8118C21.0755 16.8118 20.6453 17.4977 20.0292 16.9591C19.4364 16.2538 19.8859 15.8043 19.8859 15.8043C19.8859 15.8043 20.3896 15.5176 20.5368 15.32C20.7693 15.0488 20.843 14.6884 21.2343 14.6884C21.7071 14.7271 21.8853 15.103 21.8853 15.103C21.8853 15.103 23.505 16.8118 25.2525 17.0288C21.3118 15.1379 21.1646 13.9677 21.1839 13.6809L21.2033 5.10976Z" fill="white"/>
<path d="M21.4353 5.34618L30.6884 5.29193V13.6074C30.7078 14.6923 28.8866 15.7889 26.0425 17.1916C23.1092 15.6804 21.4159 14.7621 21.4004 13.588L21.4353 5.34618Z" fill="#006129" stroke="black" stroke-width="0.0736222"/>
<path d="M22.6924 6.57425L23.2349 5.77216L23.789 6.57812" stroke="#FFC72C" stroke-width="0.0736222"/>
<path d="M23.3469 6.27201C23.3469 6.30078 23.3354 6.32838 23.3151 6.34873C23.2948 6.36907 23.2672 6.38051 23.2384 6.38051C23.2096 6.38051 23.182 6.36907 23.1617 6.34873C23.1413 6.32838 23.1299 6.30078 23.1299 6.27201C23.1299 6.24323 23.1413 6.21564 23.1617 6.19529C23.182 6.17494 23.2096 6.16351 23.2384 6.16351C23.2672 6.16351 23.2948 6.17494 23.3151 6.19529C23.3354 6.21564 23.3469 6.24323 23.3469 6.27201Z" fill="#FFC72C" stroke="black" stroke-width="0.0348736"/>
<path d="M22.7929 7.16718H23.6415C23.6415 7.16718 23.6531 7.05868 23.5523 6.99281C23.9979 6.93081 23.8817 6.54333 24.2498 6.52008C24.3273 6.5317 24.0561 6.6867 24.0561 6.6867C24.0561 6.6867 23.8352 6.84169 23.9398 6.92307C24.0173 6.98894 24.0561 6.88432 24.0638 6.80682C24.0754 6.72932 24.4242 6.67895 24.3738 6.45808C24.2924 6.27597 23.8042 6.58208 23.8042 6.58208L23.4555 6.5782C23.4322 6.53945 23.3392 6.38446 23.2385 6.38446C23.1222 6.38446 23.037 6.5782 23.037 6.5782H22.2504C22.2504 6.5782 22.2233 6.78357 22.6224 6.82232C22.7115 6.93856 22.7812 6.96956 22.8626 7.00056C22.8084 7.04319 22.7929 7.09743 22.7929 7.16718ZM22.8549 6.99669H23.5601H22.8549Z" fill="#FFC72C"/>
<path d="M22.8549 6.99669H23.5601M22.7929 7.16718H23.6415C23.6415 7.16718 23.6531 7.05868 23.5523 6.99281C23.9979 6.93081 23.8817 6.54333 24.2498 6.52008C24.3273 6.5317 24.0561 6.6867 24.0561 6.6867C24.0561 6.6867 23.8352 6.84169 23.9398 6.92306C24.0173 6.98894 24.0561 6.88432 24.0638 6.80682C24.0754 6.72932 24.4242 6.67895 24.3738 6.45808C24.2924 6.27597 23.8042 6.58208 23.8042 6.58208L23.4555 6.5782C23.4322 6.53945 23.3392 6.38446 23.2385 6.38446C23.1222 6.38446 23.037 6.5782 23.037 6.5782H22.2504C22.2504 6.5782 22.2233 6.78357 22.6224 6.82232C22.7115 6.93856 22.7812 6.96956 22.8626 7.00056C22.8084 7.04319 22.7929 7.09743 22.7929 7.16718Z" stroke="black" stroke-width="0.0348736"/>
<path d="M22.5342 6.58221C22.5342 6.58221 22.5884 6.91158 22.8519 6.98907L22.5342 6.58221Z" fill="#FFC72C"/>
<path d="M22.5342 6.58221C22.5342 6.58221 22.5884 6.91158 22.8519 6.98907" stroke="black" stroke-width="0.0348736"/>
<path d="M22.4903 6.57442C22.5136 6.45043 22.564 6.42718 22.6143 6.26444C22.6221 6.10944 22.4903 6.12882 22.5291 6.03194C22.5988 5.91957 22.564 5.81495 22.4322 5.73358C22.4593 5.87695 22.2617 6.01257 22.2617 6.12882C22.2617 6.24506 22.3625 6.22181 22.3508 6.40006C22.3586 6.5008 22.3237 6.47755 22.3121 6.57442H22.4903Z" fill="url(#paint0_linear_11930_68548)" stroke="black" stroke-width="0.0348736"/>
<path d="M23.3392 5.79551C23.3392 5.82223 23.3286 5.84785 23.3097 5.86675C23.2908 5.88564 23.2652 5.89626 23.2384 5.89626C23.2117 5.89626 23.1861 5.88564 23.1672 5.86675C23.1483 5.84785 23.1377 5.82223 23.1377 5.79551C23.1377 5.76879 23.1483 5.74316 23.1672 5.72427C23.1861 5.70538 23.2117 5.69476 23.2384 5.69476C23.2652 5.69476 23.2908 5.70538 23.3097 5.72427C23.3286 5.74316 23.3392 5.76879 23.3392 5.79551Z" fill="#FFC72C" stroke="black" stroke-width="0.0348736"/>
<path d="M22.6611 8.17459L23.2036 7.3725L23.7577 8.17847" stroke="#FFC72C" stroke-width="0.0736222"/>
<path d="M23.3156 7.87235C23.3156 7.90113 23.3042 7.92872 23.2838 7.94907C23.2635 7.96942 23.2359 7.98085 23.2071 7.98085C23.1784 7.98085 23.1508 7.96942 23.1304 7.94907C23.1101 7.92872 23.0986 7.90113 23.0986 7.87235C23.0986 7.84358 23.1101 7.81598 23.1304 7.79563C23.1508 7.77529 23.1784 7.76385 23.2071 7.76385C23.2359 7.76385 23.2635 7.77529 23.2838 7.79563C23.3042 7.81598 23.3156 7.84358 23.3156 7.87235Z" fill="#FFC72C" stroke="black" stroke-width="0.0348736"/>
<path d="M22.7616 8.76752H23.6102C23.6102 8.76752 23.6218 8.65903 23.5211 8.59315C23.9667 8.53116 23.8504 8.14367 24.2186 8.12042C24.2961 8.13205 24.0248 8.28704 24.0248 8.28704C24.0248 8.28704 23.804 8.44203 23.9086 8.52341C23.9861 8.58928 24.0248 8.48466 24.0326 8.40716C24.0442 8.32966 24.3929 8.27929 24.3426 8.05842C24.2612 7.87631 23.773 8.18242 23.773 8.18242L23.4242 8.17854C23.401 8.1398 23.308 7.9848 23.2072 7.9848C23.091 7.9848 23.0057 8.17854 23.0057 8.17854H22.2191C22.2191 8.17854 22.192 8.38391 22.5911 8.42266C22.6802 8.53891 22.75 8.5699 22.8314 8.6009C22.7771 8.64353 22.7616 8.69778 22.7616 8.76752ZM22.8236 8.59703H23.5288H22.8236Z" fill="#FFC72C"/>
<path d="M22.8236 8.59703H23.5288M22.7616 8.76752H23.6102C23.6102 8.76752 23.6218 8.65903 23.5211 8.59315C23.9667 8.53116 23.8504 8.14367 24.2186 8.12042C24.2961 8.13205 24.0248 8.28704 24.0248 8.28704C24.0248 8.28704 23.804 8.44203 23.9086 8.52341C23.9861 8.58928 24.0248 8.48466 24.0326 8.40716C24.0442 8.32966 24.3929 8.27929 24.3426 8.05842C24.2612 7.87631 23.773 8.18242 23.773 8.18242L23.4242 8.17854C23.401 8.1398 23.308 7.9848 23.2072 7.9848C23.091 7.9848 23.0057 8.17854 23.0057 8.17854H22.2191C22.2191 8.17854 22.192 8.38391 22.5911 8.42266C22.6802 8.53891 22.75 8.5699 22.8314 8.6009C22.7771 8.64353 22.7616 8.69778 22.7616 8.76752Z" stroke="black" stroke-width="0.0348736"/>
<path d="M22.5029 8.18256C22.5029 8.18256 22.5572 8.51192 22.8207 8.58942L22.5029 8.18256Z" fill="#FFC72C"/>
<path d="M22.5029 8.18256C22.5029 8.18256 22.5572 8.51192 22.8207 8.58942" stroke="black" stroke-width="0.0348736"/>
<path d="M22.4591 8.17477C22.4823 8.05077 22.5327 8.02752 22.5831 7.86478C22.5908 7.70978 22.4591 7.72916 22.4978 7.63229C22.5676 7.51992 22.5327 7.4153 22.401 7.33392C22.4281 7.47729 22.2305 7.61291 22.2305 7.72916C22.2305 7.8454 22.3312 7.82215 22.3196 8.0004C22.3273 8.10114 22.2925 8.07789 22.2808 8.17477H22.4591Z" fill="url(#paint1_linear_11930_68548)" stroke="black" stroke-width="0.0348736"/>
<path d="M23.3079 7.39585C23.3079 7.42257 23.2973 7.4482 23.2784 7.46709C23.2595 7.48598 23.2339 7.4966 23.2072 7.4966C23.1805 7.4966 23.1548 7.48598 23.136 7.46709C23.1171 7.4482 23.1064 7.42257 23.1064 7.39585C23.1064 7.36913 23.1171 7.34351 23.136 7.32461C23.1548 7.30572 23.1805 7.2951 23.2072 7.2951C23.2339 7.2951 23.2595 7.30572 23.2784 7.32461C23.2973 7.34351 23.3079 7.36913 23.3079 7.39585Z" fill="#FFC72C" stroke="black" stroke-width="0.0348736"/>
<path d="M22.6533 9.75174L23.1958 8.94965L23.7499 9.75561" stroke="#FFC72C" stroke-width="0.0736222"/>
<path d="M23.3078 9.4495C23.3078 9.47827 23.2964 9.50587 23.276 9.52622C23.2557 9.54656 23.2281 9.558 23.1993 9.558C23.1705 9.558 23.1429 9.54656 23.1226 9.52622C23.1023 9.50587 23.0908 9.47827 23.0908 9.4495C23.0908 9.42072 23.1023 9.39313 23.1226 9.37278C23.1429 9.35243 23.1705 9.341 23.1993 9.341C23.2281 9.341 23.2557 9.35243 23.276 9.37278C23.2964 9.39313 23.3078 9.42072 23.3078 9.4495Z" fill="#FFC72C" stroke="black" stroke-width="0.0348736"/>
<path d="M22.7538 10.3447H23.6024C23.6024 10.3447 23.614 10.2362 23.5133 10.1703C23.9589 10.1083 23.8426 9.72082 24.2107 9.69757C24.2882 9.70919 24.017 9.86419 24.017 9.86419C24.017 9.86419 23.7961 10.0192 23.9008 10.1006C23.9783 10.1664 24.017 10.0618 24.0248 9.98431C24.0364 9.90681 24.3851 9.85644 24.3347 9.63557C24.2534 9.45346 23.7651 9.75957 23.7651 9.75957L23.4164 9.75569C23.3932 9.71694 23.3002 9.56195 23.1994 9.56195C23.0832 9.56195 22.9979 9.75569 22.9979 9.75569H22.2113C22.2113 9.75569 22.1842 9.96106 22.5833 9.99981C22.6724 10.1161 22.7422 10.1471 22.8236 10.1781C22.7693 10.2207 22.7538 10.2749 22.7538 10.3447ZM22.8158 10.1742H23.521H22.8158Z" fill="#FFC72C"/>
<path d="M22.8158 10.1742H23.521M22.7538 10.3447H23.6024C23.6024 10.3447 23.614 10.2362 23.5133 10.1703C23.9589 10.1083 23.8426 9.72082 24.2107 9.69757C24.2882 9.70919 24.017 9.86419 24.017 9.86419C24.017 9.86419 23.7961 10.0192 23.9008 10.1006C23.9783 10.1664 24.017 10.0618 24.0248 9.98431C24.0364 9.90681 24.3851 9.85644 24.3347 9.63557C24.2534 9.45346 23.7651 9.75957 23.7651 9.75957L23.4164 9.75569C23.3932 9.71694 23.3002 9.56195 23.1994 9.56195C23.0832 9.56195 22.9979 9.75569 22.9979 9.75569H22.2113C22.2113 9.75569 22.1842 9.96106 22.5833 9.99981C22.6724 10.1161 22.7422 10.1471 22.8236 10.1781C22.7693 10.2207 22.7538 10.2749 22.7538 10.3447Z" stroke="black" stroke-width="0.0348736"/>
<path d="M22.4951 9.7597C22.4951 9.7597 22.5494 10.0891 22.8129 10.1666L22.4951 9.7597Z" fill="#FFC72C"/>
<path d="M22.4951 9.7597C22.4951 9.7597 22.5494 10.0891 22.8129 10.1666" stroke="black" stroke-width="0.0348736"/>
<path d="M22.4513 9.75191C22.4745 9.62792 22.5249 9.60467 22.5753 9.44193C22.583 9.28693 22.4513 9.30631 22.49 9.20944C22.5598 9.09706 22.5249 8.99244 22.3931 8.91107C22.4203 9.05444 22.2227 9.19006 22.2227 9.30631C22.2227 9.42255 22.3234 9.3993 22.3118 9.57755C22.3195 9.67829 22.2847 9.65504 22.273 9.75191H22.4513Z" fill="url(#paint2_linear_11930_68548)" stroke="black" stroke-width="0.0348736"/>
<path d="M23.3001 8.973C23.3001 8.99972 23.2895 9.02534 23.2706 9.04424C23.2517 9.06313 23.2261 9.07375 23.1994 9.07375C23.1727 9.07375 23.147 9.06313 23.1281 9.04424C23.1092 9.02534 23.0986 8.99972 23.0986 8.973C23.0986 8.94628 23.1092 8.92065 23.1281 8.90176C23.147 8.88287 23.1727 8.87225 23.1994 8.87225C23.2261 8.87225 23.2517 8.88287 23.2706 8.90176C23.2895 8.92065 23.3001 8.94628 23.3001 8.973Z" fill="#FFC72C" stroke="black" stroke-width="0.0348736"/>
<path d="M23.6846 11.4605L24.227 10.6584L24.7812 11.4644" stroke="#FFC72C" stroke-width="0.0736222"/>
<path d="M24.3391 11.1582C24.3391 11.187 24.3276 11.2146 24.3073 11.235C24.2869 11.2553 24.2593 11.2667 24.2306 11.2667C24.2018 11.2667 24.1742 11.2553 24.1538 11.235C24.1335 11.2146 24.1221 11.187 24.1221 11.1582C24.1221 11.1295 24.1335 11.1019 24.1538 11.0815C24.1742 11.0612 24.2018 11.0497 24.2306 11.0497C24.2593 11.0497 24.2869 11.0612 24.3073 11.0815C24.3276 11.1019 24.3391 11.1295 24.3391 11.1582Z" fill="#FFC72C" stroke="black" stroke-width="0.0348736"/>
<path d="M23.7851 12.0534H24.6336C24.6336 12.0534 24.6453 11.9449 24.5445 11.879C24.9901 11.817 24.8739 11.4296 25.242 11.4063C25.3195 11.4179 25.0483 11.5729 25.0483 11.5729C25.0483 11.5729 24.8274 11.7279 24.932 11.8093C25.0095 11.8752 25.0483 11.7705 25.056 11.693C25.0676 11.6156 25.4164 11.5652 25.366 11.3443C25.2846 11.1622 24.7964 11.4683 24.7964 11.4683L24.4477 11.4644C24.4244 11.4257 24.3314 11.2707 24.2307 11.2707C24.1144 11.2707 24.0292 11.4644 24.0292 11.4644H23.2426C23.2426 11.4644 23.2155 11.6698 23.6146 11.7085C23.7037 11.8248 23.7734 11.8558 23.8548 11.8868C23.8006 11.9294 23.7851 11.9837 23.7851 12.0534ZM23.8471 11.8829H24.5523H23.8471Z" fill="#FFC72C"/>
<path d="M23.8471 11.8829H24.5523M23.7851 12.0534H24.6336C24.6336 12.0534 24.6453 11.9449 24.5445 11.879C24.9901 11.817 24.8739 11.4296 25.242 11.4063C25.3195 11.4179 25.0483 11.5729 25.0483 11.5729C25.0483 11.5729 24.8274 11.7279 24.932 11.8093C25.0095 11.8752 25.0483 11.7705 25.056 11.693C25.0676 11.6156 25.4164 11.5652 25.366 11.3443C25.2846 11.1622 24.7964 11.4683 24.7964 11.4683L24.4477 11.4644C24.4244 11.4257 24.3314 11.2707 24.2307 11.2707C24.1144 11.2707 24.0292 11.4644 24.0292 11.4644H23.2426C23.2426 11.4644 23.2155 11.6698 23.6146 11.7085C23.7037 11.8248 23.7734 11.8558 23.8548 11.8868C23.8006 11.9294 23.7851 11.9837 23.7851 12.0534Z" stroke="black" stroke-width="0.0348736"/>
<path d="M23.5264 11.4684C23.5264 11.4684 23.5806 11.7978 23.8441 11.8753L23.5264 11.4684Z" fill="#FFC72C"/>
<path d="M23.5264 11.4684C23.5264 11.4684 23.5806 11.7978 23.8441 11.8753" stroke="black" stroke-width="0.0348736"/>
<path d="M23.4825 11.4607C23.5058 11.3367 23.5561 11.3134 23.6065 11.1507C23.6143 10.9957 23.4825 11.015 23.5213 10.9182C23.591 10.8058 23.5561 10.7012 23.4244 10.6198C23.4515 10.7632 23.2539 10.8988 23.2539 11.015C23.2539 11.1313 23.3547 11.108 23.343 11.2863C23.3508 11.387 23.3159 11.3638 23.3043 11.4607H23.4825Z" fill="url(#paint3_linear_11930_68548)" stroke="black" stroke-width="0.0348736"/>
<path d="M24.3314 10.6817C24.3314 10.7085 24.3208 10.7341 24.3019 10.753C24.283 10.7719 24.2573 10.7825 24.2306 10.7825C24.2039 10.7825 24.1783 10.7719 24.1594 10.753C24.1405 10.7341 24.1299 10.7085 24.1299 10.6817C24.1299 10.655 24.1405 10.6294 24.1594 10.6105C24.1783 10.5916 24.2039 10.581 24.2306 10.581C24.2573 10.581 24.283 10.5916 24.3019 10.6105C24.3208 10.6294 24.3314 10.655 24.3314 10.6817Z" fill="#FFC72C" stroke="black" stroke-width="0.0348736"/>
<path d="M22.5166 12.8594L23.0591 12.0573L23.6132 12.8633" stroke="#FFC72C" stroke-width="0.0736222"/>
<path d="M23.1711 12.5572C23.1711 12.5859 23.1597 12.6135 23.1393 12.6339C23.119 12.6542 23.0914 12.6657 23.0626 12.6657C23.0338 12.6657 23.0062 12.6542 22.9859 12.6339C22.9655 12.6135 22.9541 12.5859 22.9541 12.5572C22.9541 12.5284 22.9655 12.5008 22.9859 12.4804C23.0062 12.4601 23.0338 12.4487 23.0626 12.4487C23.0914 12.4487 23.119 12.4601 23.1393 12.4804C23.1597 12.5008 23.1711 12.5284 23.1711 12.5572Z" fill="#FFC72C" stroke="black" stroke-width="0.0348736"/>
<path d="M22.6171 13.4523H23.4657C23.4657 13.4523 23.4773 13.3438 23.3766 13.278C23.8222 13.216 23.7059 12.8285 24.074 12.8052C24.1515 12.8169 23.8803 12.9719 23.8803 12.9719C23.8803 12.9719 23.6594 13.1268 23.764 13.2082C23.8415 13.2741 23.8803 13.1695 23.888 13.092C23.8997 13.0145 24.2484 12.9641 24.198 12.7432C24.1167 12.5611 23.6284 12.8672 23.6284 12.8672L23.2797 12.8634C23.2564 12.8246 23.1634 12.6696 23.0627 12.6696C22.9464 12.6696 22.8612 12.8634 22.8612 12.8634H22.0746C22.0746 12.8634 22.0475 13.0687 22.4466 13.1075C22.5357 13.2237 22.6055 13.2547 22.6868 13.2857C22.6326 13.3283 22.6171 13.3826 22.6171 13.4523ZM22.6791 13.2818H23.3843H22.6791Z" fill="#FFC72C"/>
<path d="M22.6791 13.2818H23.3843M22.6171 13.4523H23.4657C23.4657 13.4523 23.4773 13.3438 23.3766 13.278C23.8222 13.216 23.7059 12.8285 24.074 12.8052C24.1515 12.8169 23.8803 12.9719 23.8803 12.9719C23.8803 12.9719 23.6594 13.1268 23.764 13.2082C23.8415 13.2741 23.8803 13.1695 23.888 13.092C23.8997 13.0145 24.2484 12.9641 24.198 12.7432C24.1167 12.5611 23.6284 12.8672 23.6284 12.8672L23.2797 12.8634C23.2564 12.8246 23.1634 12.6696 23.0627 12.6696C22.9464 12.6696 22.8612 12.8634 22.8612 12.8634H22.0746C22.0746 12.8634 22.0475 13.0687 22.4466 13.1075C22.5357 13.2237 22.6055 13.2547 22.6868 13.2857C22.6326 13.3283 22.6171 13.3826 22.6171 13.4523Z" stroke="black" stroke-width="0.0348736"/>
<path d="M22.3574 12.8674C22.3574 12.8674 22.4117 13.1967 22.6752 13.2742L22.3574 12.8674Z" fill="#FFC72C"/>
<path d="M22.3574 12.8674C22.3574 12.8674 22.4117 13.1967 22.6752 13.2742" stroke="black" stroke-width="0.0348736"/>
<path d="M22.3146 12.8596C22.3378 12.7356 22.3882 12.7123 22.4385 12.5496C22.4463 12.3946 22.3146 12.414 22.3533 12.3171C22.423 12.2047 22.3882 12.1001 22.2564 12.0187C22.2836 12.1621 22.0859 12.2977 22.0859 12.414C22.0859 12.5302 22.1867 12.507 22.1751 12.6852C22.1828 12.786 22.1479 12.7627 22.1363 12.8596H22.3146Z" fill="url(#paint4_linear_11930_68548)" stroke="black" stroke-width="0.0348736"/>
<path d="M23.1634 12.0807C23.1634 12.1074 23.1528 12.133 23.1339 12.1519C23.115 12.1708 23.0894 12.1814 23.0627 12.1814C23.0359 12.1814 23.0103 12.1708 22.9914 12.1519C22.9725 12.133 22.9619 12.1074 22.9619 12.0807C22.9619 12.0539 22.9725 12.0283 22.9914 12.0094C23.0103 11.9905 23.0359 11.9799 23.0627 11.9799C23.0894 11.9799 23.115 11.9905 23.1339 12.0094C23.1528 12.0283 23.1634 12.0539 23.1634 12.0807Z" fill="#FFC72C" stroke="black" stroke-width="0.0348736"/>
<path d="M22.5459 14.51L23.0884 13.7079L23.6425 14.5139" stroke="#FFC72C" stroke-width="0.0736222"/>
<path d="M23.2004 14.2078C23.2004 14.2366 23.189 14.2642 23.1686 14.2845C23.1483 14.3049 23.1207 14.3163 23.0919 14.3163C23.0631 14.3163 23.0355 14.3049 23.0152 14.2845C22.9948 14.2642 22.9834 14.2366 22.9834 14.2078C22.9834 14.179 22.9948 14.1514 23.0152 14.1311C23.0355 14.1107 23.0631 14.0993 23.0919 14.0993C23.1207 14.0993 23.1483 14.1107 23.1686 14.1311C23.189 14.1514 23.2004 14.179 23.2004 14.2078Z" fill="#FFC72C" stroke="black" stroke-width="0.0348736"/>
<path d="M22.6464 15.103H23.495C23.495 15.103 23.5066 14.9945 23.4059 14.9286C23.8515 14.8666 23.7352 14.4791 24.1033 14.4559C24.1808 14.4675 23.9096 14.6225 23.9096 14.6225C23.9096 14.6225 23.6887 14.7775 23.7933 14.8589C23.8708 14.9247 23.9096 14.8201 23.9173 14.7426C23.929 14.6651 24.2777 14.6147 24.2273 14.3939C24.1459 14.2118 23.6577 14.5179 23.6577 14.5179L23.309 14.514C23.2857 14.4752 23.1927 14.3203 23.092 14.3203C22.9757 14.3203 22.8905 14.514 22.8905 14.514H22.1039C22.1039 14.514 22.0768 14.7194 22.4759 14.7581C22.565 14.8744 22.6348 14.9054 22.7161 14.9364C22.6619 14.979 22.6464 15.0332 22.6464 15.103ZM22.7084 14.9325H23.4136H22.7084Z" fill="#FFC72C"/>
<path d="M22.7084 14.9325H23.4136M22.6464 15.103H23.495C23.495 15.103 23.5066 14.9945 23.4059 14.9286C23.8515 14.8666 23.7352 14.4791 24.1033 14.4559C24.1808 14.4675 23.9096 14.6225 23.9096 14.6225C23.9096 14.6225 23.6887 14.7775 23.7933 14.8589C23.8708 14.9247 23.9096 14.8201 23.9173 14.7426C23.929 14.6651 24.2777 14.6147 24.2273 14.3939C24.1459 14.2118 23.6577 14.5179 23.6577 14.5179L23.309 14.514C23.2857 14.4752 23.1927 14.3203 23.092 14.3203C22.9757 14.3203 22.8905 14.514 22.8905 14.514H22.1039C22.1039 14.514 22.0768 14.7194 22.4759 14.7581C22.565 14.8744 22.6348 14.9054 22.7161 14.9364C22.6619 14.979 22.6464 15.0332 22.6464 15.103Z" stroke="black" stroke-width="0.0348736"/>
<path d="M22.3867 14.518C22.3867 14.518 22.441 14.8474 22.7045 14.9249L22.3867 14.518Z" fill="#FFC72C"/>
<path d="M22.3867 14.518C22.3867 14.518 22.441 14.8474 22.7045 14.9249" stroke="black" stroke-width="0.0348736"/>
<path d="M22.3438 14.5102C22.3671 14.3862 22.4175 14.363 22.4678 14.2002C22.4756 14.0452 22.3438 14.0646 22.3826 13.9677C22.4523 13.8554 22.4175 13.7507 22.2857 13.6694C22.3129 13.8127 22.1152 13.9484 22.1152 14.0646C22.1152 14.1809 22.216 14.1576 22.2044 14.3358C22.2121 14.4366 22.1772 14.4133 22.1656 14.5102H22.3438Z" fill="url(#paint5_linear_11930_68548)" stroke="black" stroke-width="0.0348736"/>
<path d="M23.1927 13.7313C23.1927 13.758 23.1821 13.7836 23.1632 13.8025C23.1443 13.8214 23.1187 13.832 23.092 13.832C23.0652 13.832 23.0396 13.8214 23.0207 13.8025C23.0018 13.7836 22.9912 13.758 22.9912 13.7313C22.9912 13.7046 23.0018 13.679 23.0207 13.6601C23.0396 13.6412 23.0652 13.6306 23.092 13.6306C23.1187 13.6306 23.1443 13.6412 23.1632 13.6601C23.1821 13.679 23.1927 13.7046 23.1927 13.7313Z" fill="#FFC72C" stroke="black" stroke-width="0.0348736"/>
<path d="M28.3662 6.60159L28.9087 5.7995L29.4628 6.60547" stroke="#FFC72C" stroke-width="0.0736222"/>
<path d="M29.0207 6.29935C29.0207 6.32813 29.0093 6.35572 28.9889 6.37607C28.9686 6.39642 28.941 6.40785 28.9122 6.40785C28.8834 6.40785 28.8558 6.39642 28.8355 6.37607C28.8151 6.35572 28.8037 6.32813 28.8037 6.29935C28.8037 6.27058 28.8151 6.24298 28.8355 6.22263C28.8558 6.20229 28.8834 6.19086 28.9122 6.19086C28.941 6.19086 28.9686 6.20229 28.9889 6.22263C29.0093 6.24298 29.0207 6.27058 29.0207 6.29935Z" fill="#FFC72C" stroke="black" stroke-width="0.0348736"/>
<path d="M28.4667 7.19452H29.3153C29.3153 7.19452 29.3269 7.08603 29.2262 7.02016C29.6718 6.95816 29.5555 6.57067 29.9236 6.54742C30.0011 6.55905 29.7299 6.71404 29.7299 6.71404C29.7299 6.71404 29.509 6.86904 29.6137 6.95041C29.6911 7.01628 29.7299 6.91166 29.7376 6.83416C29.7493 6.75667 30.098 6.70629 30.0476 6.48543C29.9663 6.30331 29.478 6.60942 29.478 6.60942L29.1293 6.60555C29.106 6.5668 29.013 6.4118 28.9123 6.4118C28.7961 6.4118 28.7108 6.60555 28.7108 6.60555H27.9242C27.9242 6.60555 27.8971 6.81091 28.2962 6.84966C28.3853 6.96591 28.4551 6.99691 28.5364 7.02791C28.4822 7.07053 28.4667 7.12478 28.4667 7.19452ZM28.5287 7.02403H29.2339H28.5287Z" fill="#FFC72C"/>
<path d="M28.5287 7.02403H29.2339M28.4667 7.19452H29.3153C29.3153 7.19452 29.3269 7.08603 29.2262 7.02016C29.6718 6.95816 29.5555 6.57067 29.9236 6.54742C30.0011 6.55905 29.7299 6.71404 29.7299 6.71404C29.7299 6.71404 29.509 6.86904 29.6137 6.95041C29.6911 7.01628 29.7299 6.91166 29.7376 6.83416C29.7493 6.75667 30.098 6.70629 30.0476 6.48543C29.9663 6.30331 29.478 6.60942 29.478 6.60942L29.1293 6.60555C29.106 6.5668 29.013 6.4118 28.9123 6.4118C28.7961 6.4118 28.7108 6.60555 28.7108 6.60555H27.9242C27.9242 6.60555 27.8971 6.81091 28.2962 6.84966C28.3853 6.96591 28.4551 6.99691 28.5364 7.02791C28.4822 7.07053 28.4667 7.12478 28.4667 7.19452Z" stroke="black" stroke-width="0.0348736"/>
<path d="M28.207 6.60956C28.207 6.60956 28.2613 6.93892 28.5248 7.01642L28.207 6.60956Z" fill="#FFC72C"/>
<path d="M28.207 6.60956C28.207 6.60956 28.2613 6.93892 28.5248 7.01642" stroke="black" stroke-width="0.0348736"/>
<path d="M28.1642 6.60177C28.1874 6.47777 28.2378 6.45452 28.2882 6.29178C28.2959 6.13679 28.1642 6.15616 28.2029 6.05929C28.2727 5.94692 28.2378 5.8423 28.106 5.76093C28.1332 5.90429 27.9355 6.03991 27.9355 6.15616C27.9355 6.27241 28.0363 6.24916 28.0247 6.4274C28.0324 6.52815 27.9975 6.5049 27.9859 6.60177H28.1642Z" fill="url(#paint6_linear_11930_68548)" stroke="black" stroke-width="0.0348736"/>
<path d="M29.013 5.82285C29.013 5.84957 29.0024 5.8752 28.9835 5.89409C28.9646 5.91298 28.939 5.9236 28.9123 5.9236C28.8856 5.9236 28.8599 5.91298 28.841 5.89409C28.8221 5.8752 28.8115 5.84957 28.8115 5.82285C28.8115 5.79613 28.8221 5.77051 28.841 5.75161C28.8599 5.73272 28.8856 5.72211 28.9123 5.72211C28.939 5.72211 28.9646 5.73272 28.9835 5.75161C29.0024 5.77051 29.013 5.79613 29.013 5.82285Z" fill="#FFC72C" stroke="black" stroke-width="0.0348736"/>
<path d="M28.3135 8.17069L28.856 7.36859L29.4101 8.17456" stroke="#FFC72C" stroke-width="0.0736222"/>
<path d="M28.968 7.86844C28.968 7.89722 28.9565 7.92482 28.9362 7.94516C28.9158 7.96551 28.8882 7.97694 28.8595 7.97694C28.8307 7.97694 28.8031 7.96551 28.7828 7.94516C28.7624 7.92482 28.751 7.89722 28.751 7.86844C28.751 7.83967 28.7624 7.81207 28.7828 7.79173C28.8031 7.77138 28.8307 7.75995 28.8595 7.75995C28.8882 7.75995 28.9158 7.77138 28.9362 7.79173C28.9565 7.81207 28.968 7.83967 28.968 7.86844Z" fill="#FFC72C" stroke="black" stroke-width="0.0348736"/>
<path d="M28.414 8.76362H29.2626C29.2626 8.76362 29.2742 8.65512 29.1734 8.58925C29.619 8.52725 29.5028 8.13976 29.8709 8.11652C29.9484 8.12814 29.6772 8.28313 29.6772 8.28313C29.6772 8.28313 29.4563 8.43813 29.5609 8.5195C29.6384 8.58537 29.6772 8.48075 29.6849 8.40326C29.6965 8.32576 30.0453 8.27538 29.9949 8.05452C29.9135 7.8724 29.4253 8.17851 29.4253 8.17851L29.0766 8.17464C29.0533 8.13589 28.9603 7.9809 28.8596 7.9809C28.7433 7.9809 28.6581 8.17464 28.6581 8.17464H27.8715C27.8715 8.17464 27.8444 8.38001 28.2435 8.41875C28.3326 8.535 28.4023 8.566 28.4837 8.597C28.4295 8.63962 28.414 8.69387 28.414 8.76362ZM28.476 8.59312H29.1812H28.476Z" fill="#FFC72C"/>
<path d="M28.476 8.59312H29.1812M28.414 8.76362H29.2626C29.2626 8.76362 29.2742 8.65512 29.1734 8.58925C29.619 8.52725 29.5028 8.13976 29.8709 8.11652C29.9484 8.12814 29.6772 8.28313 29.6772 8.28313C29.6772 8.28313 29.4563 8.43813 29.5609 8.5195C29.6384 8.58537 29.6772 8.48075 29.6849 8.40326C29.6965 8.32576 30.0453 8.27538 29.9949 8.05452C29.9135 7.8724 29.4253 8.17851 29.4253 8.17851L29.0766 8.17464C29.0533 8.13589 28.9603 7.9809 28.8596 7.9809C28.7433 7.9809 28.6581 8.17464 28.6581 8.17464H27.8715C27.8715 8.17464 27.8444 8.38001 28.2435 8.41875C28.3326 8.535 28.4023 8.566 28.4837 8.597C28.4295 8.63962 28.414 8.69387 28.414 8.76362Z" stroke="black" stroke-width="0.0348736"/>
<path d="M28.1543 8.17865C28.1543 8.17865 28.2085 8.50801 28.472 8.58551L28.1543 8.17865Z" fill="#FFC72C"/>
<path d="M28.1543 8.17865C28.1543 8.17865 28.2085 8.50801 28.472 8.58551" stroke="black" stroke-width="0.0348736"/>
<path d="M28.1114 8.17086C28.1347 8.04686 28.185 8.02362 28.2354 7.86087C28.2432 7.70588 28.1114 7.72525 28.1502 7.62838C28.2199 7.51601 28.185 7.41139 28.0533 7.33002C28.0804 7.47339 27.8828 7.60901 27.8828 7.72525C27.8828 7.8415 27.9836 7.81825 27.9719 7.99649C27.9797 8.09724 27.9448 8.07399 27.9332 8.17086H28.1114Z" fill="url(#paint7_linear_11930_68548)" stroke="black" stroke-width="0.0348736"/>
<path d="M28.9603 7.39194C28.9603 7.41866 28.9497 7.44429 28.9308 7.46318C28.9119 7.48208 28.8863 7.49269 28.8595 7.49269C28.8328 7.49269 28.8072 7.48208 28.7883 7.46318C28.7694 7.44429 28.7588 7.41866 28.7588 7.39194C28.7588 7.36522 28.7694 7.3396 28.7883 7.32071C28.8072 7.30181 28.8328 7.2912 28.8595 7.2912C28.8863 7.2912 28.9119 7.30181 28.9308 7.32071C28.9497 7.3396 28.9603 7.36522 28.9603 7.39194Z" fill="#FFC72C" stroke="black" stroke-width="0.0348736"/>
<path d="M28.2432 9.77884L28.7856 8.97675L29.3397 9.78271" stroke="#FFC72C" stroke-width="0.0736222"/>
<path d="M28.8977 9.4766C28.8977 9.50537 28.8862 9.53297 28.8659 9.55332C28.8455 9.57366 28.8179 9.58509 28.7892 9.58509C28.7604 9.58509 28.7328 9.57366 28.7124 9.55332C28.6921 9.53297 28.6807 9.50537 28.6807 9.4766C28.6807 9.44782 28.6921 9.42023 28.7124 9.39988C28.7328 9.37953 28.7604 9.3681 28.7892 9.3681C28.8179 9.3681 28.8455 9.37953 28.8659 9.39988C28.8862 9.42023 28.8977 9.44782 28.8977 9.4766Z" fill="#FFC72C" stroke="black" stroke-width="0.0348736"/>
<path d="M28.3436 10.3718H29.1922C29.1922 10.3718 29.2039 10.2633 29.1031 10.1974C29.5487 10.1354 29.4325 9.74792 29.8006 9.72467C29.8781 9.73629 29.6068 9.89129 29.6068 9.89129C29.6068 9.89129 29.386 10.0463 29.4906 10.1277C29.5681 10.1935 29.6068 10.0889 29.6146 10.0114C29.6262 9.93391 29.975 9.88354 29.9246 9.66267C29.8432 9.48055 29.355 9.78667 29.355 9.78667L29.0062 9.78279C28.983 9.74404 28.89 9.58905 28.7893 9.58905C28.673 9.58905 28.5878 9.78279 28.5878 9.78279H27.8012C27.8012 9.78279 27.774 9.98816 28.1732 10.0269C28.2623 10.1432 28.332 10.1742 28.4134 10.2052C28.3591 10.2478 28.3436 10.302 28.3436 10.3718ZM28.4056 10.2013H29.1109H28.4056Z" fill="#FFC72C"/>
<path d="M28.4056 10.2013H29.1109M28.3436 10.3718H29.1922C29.1922 10.3718 29.2039 10.2633 29.1031 10.1974C29.5487 10.1354 29.4325 9.74792 29.8006 9.72467C29.8781 9.73629 29.6068 9.89129 29.6068 9.89129C29.6068 9.89129 29.386 10.0463 29.4906 10.1277C29.5681 10.1935 29.6068 10.0889 29.6146 10.0114C29.6262 9.93391 29.975 9.88354 29.9246 9.66267C29.8432 9.48055 29.355 9.78667 29.355 9.78667L29.0062 9.78279C28.983 9.74404 28.89 9.58905 28.7893 9.58905C28.673 9.58905 28.5878 9.78279 28.5878 9.78279H27.8012C27.8012 9.78279 27.774 9.98816 28.1732 10.0269C28.2623 10.1432 28.332 10.1742 28.4134 10.2052C28.3591 10.2478 28.3436 10.302 28.3436 10.3718Z" stroke="black" stroke-width="0.0348736"/>
<path d="M28.084 9.7868C28.084 9.7868 28.1382 10.1162 28.4017 10.1937L28.084 9.7868Z" fill="#FFC72C"/>
<path d="M28.084 9.7868C28.084 9.7868 28.1382 10.1162 28.4017 10.1937" stroke="black" stroke-width="0.0348736"/>
<path d="M28.0411 9.77901C28.0644 9.65502 28.1147 9.63177 28.1651 9.46903C28.1729 9.31403 28.0411 9.33341 28.0799 9.23653C28.1496 9.12416 28.1147 9.01954 27.983 8.93817C28.0101 9.08154 27.8125 9.21716 27.8125 9.33341C27.8125 9.44965 27.9132 9.4264 27.9016 9.60465C27.9094 9.70539 27.8745 9.68214 27.8629 9.77901H28.0411Z" fill="url(#paint8_linear_11930_68548)" stroke="black" stroke-width="0.0348736"/>
<path d="M28.89 9.0001C28.89 9.02682 28.8794 9.05244 28.8605 9.07134C28.8416 9.09023 28.8159 9.10085 28.7892 9.10085C28.7625 9.10085 28.7369 9.09023 28.718 9.07134C28.6991 9.05244 28.6885 9.02682 28.6885 9.0001C28.6885 8.97338 28.6991 8.94775 28.718 8.92886C28.7369 8.90997 28.7625 8.89935 28.7892 8.89935C28.8159 8.89935 28.8416 8.90997 28.8605 8.92886C28.8794 8.94775 28.89 8.97338 28.89 9.0001Z" fill="#FFC72C" stroke="black" stroke-width="0.0348736"/>
<path d="M28.3213 11.356L28.8638 10.5539L29.4179 11.3599" stroke="#FFC72C" stroke-width="0.0736222"/>
<path d="M28.9758 11.0537C28.9758 11.0825 28.9644 11.1101 28.944 11.1305C28.9237 11.1508 28.8961 11.1622 28.8673 11.1622C28.8385 11.1622 28.8109 11.1508 28.7906 11.1305C28.7702 11.1101 28.7588 11.0825 28.7588 11.0537C28.7588 11.025 28.7702 10.9974 28.7906 10.977C28.8109 10.9567 28.8385 10.9453 28.8673 10.9453C28.8961 10.9453 28.9237 10.9567 28.944 10.977C28.9644 10.9974 28.9758 11.025 28.9758 11.0537Z" fill="#FFC72C" stroke="black" stroke-width="0.0348736"/>
<path d="M28.4218 11.9489H29.2704C29.2704 11.9489 29.282 11.8404 29.1812 11.7746C29.6269 11.7126 29.5106 11.3251 29.8787 11.3018C29.9562 11.3134 29.685 11.4684 29.685 11.4684C29.685 11.4684 29.4641 11.6234 29.5687 11.7048C29.6462 11.7707 29.685 11.6661 29.6927 11.5886C29.7043 11.5111 30.0531 11.4607 30.0027 11.2398C29.9213 11.0577 29.4331 11.3638 29.4331 11.3638L29.0844 11.3599C29.0611 11.3212 28.9681 11.1662 28.8674 11.1662C28.7511 11.1662 28.6659 11.3599 28.6659 11.3599H27.8793C27.8793 11.3599 27.8522 11.5653 28.2513 11.6041C28.3404 11.7203 28.4101 11.7513 28.4915 11.7823C28.4373 11.8249 28.4218 11.8792 28.4218 11.9489ZM28.4838 11.7784H29.189H28.4838Z" fill="#FFC72C"/>
<path d="M28.4838 11.7784H29.189M28.4218 11.9489H29.2704C29.2704 11.9489 29.282 11.8404 29.1812 11.7746C29.6269 11.7126 29.5106 11.3251 29.8787 11.3018C29.9562 11.3134 29.685 11.4684 29.685 11.4684C29.685 11.4684 29.4641 11.6234 29.5687 11.7048C29.6462 11.7707 29.685 11.6661 29.6927 11.5886C29.7043 11.5111 30.0531 11.4607 30.0027 11.2398C29.9213 11.0577 29.4331 11.3638 29.4331 11.3638L29.0844 11.3599C29.0611 11.3212 28.9681 11.1662 28.8674 11.1662C28.7511 11.1662 28.6659 11.3599 28.6659 11.3599H27.8793C27.8793 11.3599 27.8522 11.5653 28.2513 11.6041C28.3404 11.7203 28.4101 11.7513 28.4915 11.7823C28.4373 11.8249 28.4218 11.8792 28.4218 11.9489Z" stroke="black" stroke-width="0.0348736"/>
<path d="M28.1621 11.364C28.1621 11.364 28.2164 11.6933 28.4798 11.7708L28.1621 11.364Z" fill="#FFC72C"/>
<path d="M28.1621 11.364C28.1621 11.364 28.2164 11.6933 28.4798 11.7708" stroke="black" stroke-width="0.0348736"/>
<path d="M28.1192 11.3562C28.1425 11.2322 28.1929 11.2089 28.2432 11.0462C28.251 10.8912 28.1192 10.9106 28.158 10.8137C28.2277 10.7013 28.1929 10.5967 28.0611 10.5153C28.0882 10.6587 27.8906 10.7943 27.8906 10.9106C27.8906 11.0268 27.9914 11.0036 27.9797 11.1818C27.9875 11.2825 27.9526 11.2593 27.941 11.3562H28.1192Z" fill="url(#paint9_linear_11930_68548)" stroke="black" stroke-width="0.0348736"/>
<path d="M28.9681 10.5772C28.9681 10.604 28.9575 10.6296 28.9386 10.6485C28.9197 10.6674 28.8941 10.678 28.8673 10.678C28.8406 10.678 28.815 10.6674 28.7961 10.6485C28.7772 10.6296 28.7666 10.604 28.7666 10.5772C28.7666 10.5505 28.7772 10.5249 28.7961 10.506C28.815 10.4871 28.8406 10.4765 28.8673 10.4765C28.8941 10.4765 28.9197 10.4871 28.9386 10.506C28.9575 10.5249 28.9681 10.5505 28.9681 10.5772Z" fill="#FFC72C" stroke="black" stroke-width="0.0348736"/>
<path d="M28.3057 12.9368L28.8481 12.1347L29.4022 12.9407" stroke="#FFC72C" stroke-width="0.0736222"/>
<path d="M28.9602 12.6346C28.9602 12.6633 28.9487 12.6909 28.9284 12.7113C28.908 12.7316 28.8804 12.7431 28.8517 12.7431C28.8229 12.7431 28.7953 12.7316 28.7749 12.7113C28.7546 12.6909 28.7432 12.6633 28.7432 12.6346C28.7432 12.6058 28.7546 12.5782 28.7749 12.5578C28.7953 12.5375 28.8229 12.5261 28.8517 12.5261C28.8804 12.5261 28.908 12.5375 28.9284 12.5578C28.9487 12.5782 28.9602 12.6058 28.9602 12.6346Z" fill="#FFC72C" stroke="black" stroke-width="0.0348736"/>
<path d="M28.4061 13.5297H29.2547C29.2547 13.5297 29.2664 13.4212 29.1656 13.3554C29.6112 13.2934 29.495 12.9059 29.8631 12.8826C29.9406 12.8943 29.6693 13.0492 29.6693 13.0492C29.6693 13.0492 29.4485 13.2042 29.5531 13.2856C29.6306 13.3515 29.6693 13.2469 29.6771 13.1694C29.6887 13.0919 30.0375 13.0415 29.9871 12.8206C29.9057 12.6385 29.4175 12.9446 29.4175 12.9446L29.0687 12.9408C29.0455 12.902 28.9525 12.747 28.8518 12.747C28.7355 12.747 28.6503 12.9408 28.6503 12.9408H27.8637C27.8637 12.9408 27.8365 13.1461 28.2357 13.1849C28.3248 13.3011 28.3945 13.3321 28.4759 13.3631C28.4216 13.4057 28.4061 13.46 28.4061 13.5297ZM28.4681 13.3592H29.1734H28.4681Z" fill="#FFC72C"/>
<path d="M28.4681 13.3592H29.1734M28.4061 13.5297H29.2547C29.2547 13.5297 29.2664 13.4212 29.1656 13.3554C29.6112 13.2934 29.495 12.9059 29.8631 12.8826C29.9406 12.8943 29.6693 13.0492 29.6693 13.0492C29.6693 13.0492 29.4485 13.2042 29.5531 13.2856C29.6306 13.3515 29.6693 13.2469 29.6771 13.1694C29.6887 13.0919 30.0375 13.0415 29.9871 12.8206C29.9057 12.6385 29.4175 12.9446 29.4175 12.9446L29.0687 12.9408C29.0455 12.902 28.9525 12.747 28.8518 12.747C28.7355 12.747 28.6503 12.9408 28.6503 12.9408H27.8637C27.8637 12.9408 27.8365 13.1461 28.2357 13.1849C28.3248 13.3011 28.3945 13.3321 28.4759 13.3631C28.4216 13.4057 28.4061 13.46 28.4061 13.5297Z" stroke="black" stroke-width="0.0348736"/>
<path d="M28.1465 12.9448C28.1465 12.9448 28.2007 13.2741 28.4642 13.3516L28.1465 12.9448Z" fill="#FFC72C"/>
<path d="M28.1465 12.9448C28.1465 12.9448 28.2007 13.2741 28.4642 13.3516" stroke="black" stroke-width="0.0348736"/>
<path d="M28.1036 12.937C28.1269 12.813 28.1772 12.7897 28.2276 12.627C28.2354 12.472 28.1036 12.4914 28.1424 12.3945C28.2121 12.2821 28.1772 12.1775 28.0455 12.0961C28.0726 12.2395 27.875 12.3751 27.875 12.4914C27.875 12.6076 27.9757 12.5844 27.9641 12.7626C27.9719 12.8634 27.937 12.8401 27.9254 12.937H28.1036Z" fill="url(#paint10_linear_11930_68548)" stroke="black" stroke-width="0.0348736"/>
<path d="M28.9525 12.1581C28.9525 12.1848 28.9419 12.2104 28.923 12.2293C28.9041 12.2482 28.8784 12.2588 28.8517 12.2588C28.825 12.2588 28.7994 12.2482 28.7805 12.2293C28.7616 12.2104 28.751 12.1848 28.751 12.1581C28.751 12.1313 28.7616 12.1057 28.7805 12.0868C28.7994 12.0679 28.825 12.0573 28.8517 12.0573C28.8784 12.0573 28.9041 12.0679 28.923 12.0868C28.9419 12.1057 28.9525 12.1313 28.9525 12.1581Z" fill="#FFC72C" stroke="black" stroke-width="0.0348736"/>
<path d="M28.3135 14.5257L28.856 13.7236L29.4101 14.5295" stroke="#FFC72C" stroke-width="0.0736222"/>
<path d="M28.968 14.2234C28.968 14.2522 28.9565 14.2798 28.9362 14.3001C28.9158 14.3205 28.8882 14.3319 28.8595 14.3319C28.8307 14.3319 28.8031 14.3205 28.7828 14.3001C28.7624 14.2798 28.751 14.2522 28.751 14.2234C28.751 14.1947 28.7624 14.1671 28.7828 14.1467C28.8031 14.1264 28.8307 14.1149 28.8595 14.1149C28.8882 14.1149 28.9158 14.1264 28.9362 14.1467C28.9565 14.1671 28.968 14.1947 28.968 14.2234Z" fill="#FFC72C" stroke="black" stroke-width="0.0348736"/>
<path d="M28.414 15.1186H29.2626C29.2626 15.1186 29.2742 15.0101 29.1734 14.9442C29.619 14.8822 29.5028 14.4947 29.8709 14.4715C29.9484 14.4831 29.6772 14.6381 29.6772 14.6381C29.6772 14.6381 29.4563 14.7931 29.5609 14.8745C29.6384 14.9404 29.6772 14.8357 29.6849 14.7582C29.6965 14.6807 30.0453 14.6304 29.9949 14.4095C29.9135 14.2274 29.4253 14.5335 29.4253 14.5335L29.0766 14.5296C29.0533 14.4909 28.9603 14.3359 28.8596 14.3359C28.7433 14.3359 28.6581 14.5296 28.6581 14.5296H27.8715C27.8715 14.5296 27.8444 14.735 28.2435 14.7737C28.3326 14.89 28.4023 14.921 28.4837 14.952C28.4295 14.9946 28.414 15.0488 28.414 15.1186ZM28.476 14.9481H29.1812H28.476Z" fill="#FFC72C"/>
<path d="M28.476 14.9481H29.1812M28.414 15.1186H29.2626C29.2626 15.1186 29.2742 15.0101 29.1734 14.9442C29.619 14.8822 29.5028 14.4947 29.8709 14.4715C29.9484 14.4831 29.6772 14.6381 29.6772 14.6381C29.6772 14.6381 29.4563 14.7931 29.5609 14.8745C29.6384 14.9404 29.6772 14.8357 29.6849 14.7582C29.6965 14.6807 30.0453 14.6304 29.9949 14.4095C29.9135 14.2274 29.4253 14.5335 29.4253 14.5335L29.0766 14.5296C29.0533 14.4909 28.9603 14.3359 28.8596 14.3359C28.7433 14.3359 28.6581 14.5296 28.6581 14.5296H27.8715C27.8715 14.5296 27.8444 14.735 28.2435 14.7737C28.3326 14.89 28.4023 14.921 28.4837 14.952C28.4295 14.9946 28.414 15.0488 28.414 15.1186Z" stroke="black" stroke-width="0.0348736"/>
<path d="M28.1543 14.5336C28.1543 14.5336 28.2085 14.863 28.472 14.9405L28.1543 14.5336Z" fill="#FFC72C"/>
<path d="M28.1543 14.5336C28.1543 14.5336 28.2085 14.863 28.472 14.9405" stroke="black" stroke-width="0.0348736"/>
<path d="M28.1114 14.5258C28.1347 14.4018 28.185 14.3786 28.2354 14.2159C28.2432 14.0609 28.1114 14.0802 28.1502 13.9834C28.2199 13.871 28.185 13.7664 28.0533 13.685C28.0804 13.8284 27.8828 13.964 27.8828 14.0802C27.8828 14.1965 27.9836 14.1732 27.9719 14.3515C27.9797 14.4522 27.9448 14.429 27.9332 14.5258H28.1114Z" fill="url(#paint11_linear_11930_68548)" stroke="black" stroke-width="0.0348736"/>
<path d="M28.9603 13.7469C28.9603 13.7736 28.9497 13.7993 28.9308 13.8182C28.9119 13.8371 28.8863 13.8477 28.8595 13.8477C28.8328 13.8477 28.8072 13.8371 28.7883 13.8182C28.7694 13.7993 28.7588 13.7736 28.7588 13.7469C28.7588 13.7202 28.7694 13.6946 28.7883 13.6757C28.8072 13.6568 28.8328 13.6462 28.8595 13.6462C28.8863 13.6462 28.9119 13.6568 28.9308 13.6757C28.9497 13.6946 28.9603 13.7202 28.9603 13.7469Z" fill="#FFC72C" stroke="black" stroke-width="0.0348736"/>
<path d="M26.6066 15.2735C26.6066 15.2735 26.8275 15.785 27.0794 15.4672C27.3312 15.1572 27.2421 15.0216 27.2421 15.0216L26.6764 14.7155L26.5098 15.0643L26.6066 15.2735Z" fill="#FFC72C" stroke="black" stroke-width="0.0348736"/>
<path d="M27.095 15.2076C27.095 15.2076 27.1337 15.2115 27.1608 15.1572C27.1918 15.103 27.095 15.0797 27.0485 15.0177L27.002 15.1146L27.095 15.2076ZM25.8163 15.0681L25.3203 15.3393C25.3203 15.3393 25.0723 15.3897 25.0568 15.3393C25.0374 15.2928 25.0607 15.2502 25.1924 15.2425C25.3203 15.2386 25.669 14.917 25.669 14.917L25.8163 15.072V15.0681ZM25.824 6.23731L25.8395 6.41556C25.8473 6.47755 25.7426 6.6093 25.7388 6.60155C25.731 6.5938 25.6806 6.6093 25.6884 6.64417C25.6923 6.68292 25.7659 6.69454 25.7659 6.69454C25.7659 6.69454 25.7388 6.82241 25.7659 6.83016C25.7969 6.83404 25.6884 6.99291 25.7659 7.03553C25.8473 7.07815 25.9829 7.13628 26.0449 7.12465C26.1069 7.10915 26.0449 7.36102 26.0449 7.36102L25.8705 7.72913L26.816 7.63226L26.6222 7.32227C26.6222 7.32227 26.5292 7.2564 26.5525 7.07816C26.5796 6.90379 26.5409 6.09782 26.5409 6.09782L25.8666 6.00482L25.824 6.23731ZM25.6496 7.64001C25.6496 7.64001 25.3435 7.7795 25.3551 8.15924C25.2777 8.52735 25.235 8.89546 25.235 8.89546C25.235 8.89546 24.8708 9.30619 24.7623 9.45731C24.6499 9.60456 24.4833 9.90292 24.4252 9.98429C24.3632 10.0618 24.1229 10.3253 24.1268 10.426C24.1346 10.5229 24.0726 10.9608 24.3128 11.0073C24.3748 11.0344 24.5724 10.5035 24.5724 10.5035C24.5724 10.5035 24.5841 10.2788 24.5143 10.2323C24.4484 10.1935 24.6615 10.0463 24.6615 10.0463L25.1653 9.67043C25.2583 9.59293 25.5101 9.31394 25.5101 9.31394L25.6496 7.64001Z" fill="#FFC6B5" stroke="black" stroke-width="0.0348736"/>
<path d="M26.0024 7.34941C26.0024 7.34941 26.0799 7.5664 26.2582 7.52765C26.4364 7.4889 26.6456 7.32616 26.6456 7.32616C26.6456 7.32616 26.8123 7.31841 26.8355 7.34553C26.8588 7.36878 27.285 7.77952 27.2695 7.90739C27.2579 8.03913 27.0757 8.00038 27.006 8.08563C26.9401 8.17088 26.8278 8.38787 26.8588 8.55061C26.8898 8.70561 26.9828 8.91485 26.9711 8.99622C26.9595 9.07372 26.8936 9.10084 26.8936 9.14346C26.8936 9.18221 26.9479 9.25971 26.9479 9.33721C26.9479 9.41858 26.8704 9.53482 26.8859 9.61619C26.8975 9.69369 26.9014 9.92618 26.9014 9.92618L26.8859 11.0111C26.8859 11.0111 26.9479 11.046 26.9518 11.108C26.9595 11.1661 27.3702 12.9524 27.3702 12.9524C27.3702 12.9524 27.3509 13.0106 27.3082 13.0028C27.2656 12.9951 27.4749 13.2779 27.4787 13.3593C27.4865 13.4368 27.6957 14.0645 27.688 14.1498C27.6841 14.235 27.6492 14.4288 27.6337 14.4326C27.6144 14.4404 27.7693 14.8279 27.7422 14.886C27.719 14.948 27.471 14.9441 27.471 14.9441L27.4012 14.9286C27.4012 14.9286 27.4051 15.01 27.3586 15.0177C27.3082 15.0216 26.9479 14.9984 26.9479 14.9984C26.9479 14.9984 26.8433 15.1572 26.7813 15.1534C26.7193 15.1456 26.6379 15.0371 26.6224 15.0526C26.603 15.072 26.6766 15.1766 26.6611 15.2076C26.6379 15.2386 26.3279 15.3045 26.2659 15.1572C26.2039 15.01 26.3047 15.0487 26.2814 15.0177C26.2659 14.9867 26.1264 14.9054 26.0799 14.9286C26.0412 14.9557 26.1923 14.9906 26.1845 15.0526C26.1807 15.1146 26.0489 15.2076 26.0024 15.2076C25.952 15.2076 25.8358 14.979 25.6614 15.0022C25.4909 15.0294 25.3824 15.072 25.3824 15.072C25.3824 15.072 25.1771 15.1572 25.0918 15.1379C25.0066 15.1224 24.9678 15.0526 24.9678 15.0177C24.9678 14.979 25.0298 14.8201 25.026 14.7697C25.0182 14.7232 24.9678 14.6729 24.9678 14.5993C24.9678 14.5218 25.1112 14.2738 25.1112 14.2738L25.1034 13.1423C25.1034 13.1423 24.9756 13.1423 24.9678 13.0648C24.964 12.9873 25.1654 11.2785 25.2003 11.1661L25.3088 10.6624C25.3088 10.6624 25.2158 10.7089 25.2081 10.6624C25.2042 10.6237 25.4871 9.64719 25.4871 9.64719C25.4871 9.64719 25.5336 9.15896 25.5336 9.03109C25.5336 8.90322 25.5103 8.72498 25.5103 8.72498C25.5103 8.72498 25.2584 8.61648 25.2507 8.45374C25.2274 8.19413 25.4909 8.05076 25.5219 7.96551L25.6459 7.61677C25.6459 7.61677 25.7815 7.38428 26.0024 7.34941Z" fill="white" stroke="black" stroke-width="0.0348736"/>
<path d="M25.91 15.1456C25.91 15.1456 25.3133 15.4556 25.228 15.4828C25.1428 15.506 25.0885 15.3781 25.1738 15.3549C25.259 15.3278 25.3946 15.3161 25.3946 15.3161C25.3946 15.3161 25.1931 15.1573 25.2009 15.1495L25.4799 15.0488C25.4876 15.0488 25.5651 15.2038 25.6194 15.196C25.6963 15.1587 25.7691 15.1132 25.8364 15.0604L25.91 15.1456Z" fill="#FFC72C" stroke="black" stroke-width="0.0348736"/>
<path d="M26.7461 15.3161C26.8042 15.3898 26.8236 15.5138 26.9553 15.4401C27.0832 15.3665 26.8895 15.2309 26.8895 15.2309L26.7461 15.3161Z" fill="#FFC6B5" stroke="black" stroke-width="0.0348736"/>
<path d="M26.9821 15.3045C26.9821 15.3045 27.0441 15.3549 27.0983 15.2968C27.1526 15.2425 26.9898 15.1263 26.9898 15.1263L26.9085 15.2193L26.9821 15.3045ZM27.2456 7.93842C27.2533 7.93842 27.4471 8.54289 27.4742 8.69789C27.4974 8.85288 27.5788 9.46511 27.5478 9.55035C27.5168 9.6356 27.2029 10.0463 27.1681 10.151C27.1293 10.2556 26.9085 10.6547 26.9085 10.6547C26.9085 10.6547 26.8542 11.0499 26.831 11.0654C26.8038 11.0848 26.893 11.1817 26.8852 11.2127C26.8736 11.2514 26.707 11.4219 26.6333 11.4064C26.5558 11.387 26.4396 11.3018 26.4396 11.2204C26.428 11.1429 26.4396 10.8756 26.4977 10.8097C26.552 10.7399 26.8426 10.0618 26.8581 10.0192C26.8775 9.97271 27.1216 9.43798 27.1293 9.34886C27.1371 9.25586 27.0518 9.04275 26.9666 8.96525C26.7728 8.39565 26.8503 8.05466 27.2456 7.93842Z" fill="#FFC6B5" stroke="black" stroke-width="0.0348736"/>
<path d="M25.8011 6.20246C25.8011 6.20246 25.9406 6.22184 26.0142 6.17921C26.0879 6.13659 26.1731 6.11721 26.2351 6.20246C26.2971 6.28771 26.3397 6.27996 26.3397 6.27996C26.3397 6.27996 26.2467 6.51245 26.3397 6.5357C26.4288 6.55895 26.4753 6.55895 26.4792 6.58995C26.487 6.62094 26.4017 6.68682 26.425 6.71782C26.4482 6.74881 26.4908 6.78369 26.4986 6.81081C26.5025 6.83406 26.4443 6.93868 26.4598 6.96581C26.4792 6.98906 26.5373 7.08593 26.5722 7.08593C26.611 7.08593 26.5838 7.24092 26.6962 7.20217C26.8047 7.16342 26.8008 7.06655 26.8008 7.06655C26.8008 7.06655 26.9171 7.05105 26.9481 6.94643C26.9752 6.84181 27.0488 6.81469 27.0488 6.81469C27.0488 6.81469 27.1961 6.73719 27.0023 6.6132C27.0023 5.75298 26.4366 5.84597 26.4366 5.84597C26.4366 5.84597 26.3707 5.69098 26.2583 5.71036C26.1499 5.72973 26.1421 5.8576 26.0646 5.84597C25.9832 5.83435 25.9639 5.7801 25.96 5.78398C25.9522 5.79173 25.8825 5.91572 25.8825 5.94285C25.8825 5.97384 25.6694 5.9041 25.6887 6.05909C25.7081 6.22184 25.8127 6.21409 25.805 6.20246H25.8011Z" fill="#9C5100" stroke="black" stroke-width="0.0348736"/>
<path d="M26.7996 7.58953C26.7996 7.58953 26.2533 7.93827 26.2649 8.06226M26.9236 7.65153C26.9236 7.65153 26.7996 7.78715 26.7919 7.78715M27.0864 7.79877C27.0864 7.79877 26.8151 8.01964 26.8578 8.15913M25.8115 7.55853C25.8115 7.55853 25.7302 7.72515 25.7495 7.7794C25.765 7.83365 25.9045 8.04289 25.92 8.17076C25.9394 8.3025 25.92 8.39163 25.92 8.39163M25.6682 7.86465C25.6682 7.86465 25.6914 8.05839 25.7302 8.09714C25.7689 8.13589 25.8658 8.3025 25.8774 8.36838M25.6178 8.68224C25.6178 8.68224 25.7805 8.75974 25.9278 8.45362M26.1642 8.24051C26.1603 8.24051 26.0479 8.53887 26.2455 8.65124C26.4393 8.76361 26.5904 8.74811 26.6718 8.71711C26.7609 8.68999 26.8539 8.63187 26.8539 8.63187M26.0789 8.60862C26.0789 8.60862 26.0905 9.0116 26.6873 9.41071M26.106 8.98835C26.106 8.98835 26.0983 9.34484 26.3308 9.50371M25.982 8.56987C25.982 8.56987 25.8038 9.10072 25.6604 9.1511M25.9278 8.95735C25.9278 8.95735 25.92 9.33709 25.8697 9.47271M25.8232 9.56571C25.8232 9.56571 25.9433 9.7207 26.0789 9.7052C26.2145 9.69358 26.2726 9.53471 26.3618 9.55795C26.4548 9.58508 26.54 9.6587 26.7531 9.63933M26.447 9.7982C26.447 9.7982 26.447 10.1121 26.5051 10.1431C26.5594 10.1741 26.5323 10.4608 26.5323 10.4608M25.6992 9.65095C25.6992 9.65095 25.6914 9.94544 25.6565 10.0501C25.6178 10.1547 25.5442 10.3329 25.5597 10.4879M25.3233 10.6584C25.3543 10.6468 25.4589 10.5538 25.4589 10.5538M25.5132 10.6197C25.5132 10.6197 25.2497 11.7511 25.3233 12.4253M25.5752 10.6778C25.5752 10.6778 25.4396 11.5225 25.5016 11.6852M25.5093 10.6507L26.0247 10.6894M26.0983 10.6197C26.0983 10.6197 26.2378 10.6972 26.4354 10.6817M26.0363 11.0343C26.0363 11.0343 26.013 12.4796 25.9743 12.8012M26.7919 11.3636C26.7919 11.3636 26.9507 12.6346 27.0437 12.7508M26.4858 11.5225C26.4858 11.5225 26.5826 12.6462 26.6408 12.747M25.0908 13.1383C25.0908 13.1383 25.2846 13.0763 25.4551 12.8942C25.6488 13.1577 25.951 12.9058 25.951 12.9058C25.951 12.9058 26.416 13.2236 26.6253 12.8671C26.9469 13.0763 27.1057 12.8361 27.1057 12.8361C27.1057 12.8361 27.222 13.0143 27.3072 12.9949M26.7996 13.1189C26.7996 13.1189 27.036 14.2426 27.3925 14.5604" stroke="black" stroke-width="0.0348736"/>
<path d="M25.5675 13.0027C25.5675 13.0027 25.5946 13.9404 25.6489 14.603M25.521 14.0644C25.521 14.0644 25.49 14.6766 25.4551 14.7231M25.1606 14.7813C25.1606 14.7813 25.2265 15.0486 25.5636 14.8006C25.9007 14.5565 25.9085 14.8936 25.9201 14.9285C25.9317 14.9673 25.986 15.2307 26.1138 15.0099M26.3851 14.6495C26.3851 14.6495 26.3308 15.192 26.8152 14.7968C27.2995 14.3977 27.3809 14.789 27.3964 14.913M26.3928 5.9931C26.3928 5.9931 26.3502 6.26434 26.6369 6.23722C26.5982 6.38834 26.7144 6.43484 26.7144 6.43484M26.9237 6.60145C26.9314 6.60145 27.0554 6.67895 26.9237 6.7797M26.5091 6.81457C26.5091 6.81457 26.5711 6.89207 26.6369 6.87269C26.7067 6.85332 26.8152 6.93857 26.8152 6.93857C26.8152 6.93857 26.9082 6.96957 26.9198 6.95019M26.1332 7.04706C26.1332 7.04706 26.3425 7.12843 26.4819 6.79907M25.7496 6.69833L25.8697 6.70608M24.3857 10.5732L24.3973 10.8405M24.1338 10.5499C24.1338 10.5499 24.3082 10.8405 24.2888 10.9917" stroke="black" stroke-width="0.0348736"/>
<path d="M25.7646 6.82245H25.877L25.7801 6.86507M26.4466 11.1545C26.4466 11.1545 26.5745 11.139 26.5706 11.356C26.652 11.0848 26.8186 11.0809 26.8186 11.0809" stroke="black" stroke-width="0.0348736" stroke-linejoin="round"/>
<path d="M25.9199 6.47734C25.9393 6.47734 26.0052 6.45409 26.0168 6.47347C26.0323 6.48897 25.9432 6.50447 25.9199 6.47734Z" stroke="black" stroke-width="0.0658725" stroke-linejoin="round"/>
<path d="M26.0065 17.3C27.624 17.2234 29.1477 16.5185 30.2533 15.3355C30.2378 15.32 30.5982 14.8162 30.8849 14.886C31.1717 14.9596 31.5863 15.8043 32.09 15.9864C32.3419 16.3817 32.0202 16.742 31.9118 16.8118C31.8033 16.8854 31.315 17.083 31.2453 16.7963C31.1717 16.5057 31.0283 16.5638 31.0283 16.5638C31.0283 16.5638 28.7228 18.8112 26.0607 18.7221C23.3096 18.7376 21.0389 16.5599 21.0389 16.5599L20.8413 16.7769C20.8413 16.7769 20.6243 17.0094 20.5158 16.9939C20.4073 16.9745 19.9385 16.6684 19.9036 16.3623C19.8648 16.0562 20.1903 15.8586 20.1903 15.8586C20.1903 15.8586 20.9847 15.2463 21.0738 14.9247C21.2559 14.7426 21.5969 15.0487 21.5969 15.0487C21.5969 15.0487 23.6854 17.4434 26.0065 17.2961V17.3Z" fill="#FFC72C" stroke="black" stroke-width="0.0736222"/>
<path d="M20.1406 15.905C20.1406 15.905 20.3537 15.8507 20.4312 15.9398C20.5087 16.029 21.0512 16.5598 21.0512 16.5598" stroke="black" stroke-width="0.0736222"/>
<path d="M20.6281 16.1569L20.4111 16.3158C20.4111 16.3158 20.9536 16.4243 20.8296 16.7807M31.8962 15.8895C31.8962 15.8895 31.7916 15.8314 31.6249 15.9554C31.4545 16.0833 31.0321 16.556 31.0321 16.556" stroke="black" stroke-width="0.0736222"/>
<path d="M31.416 16.1415L31.6484 16.3198C31.6484 16.3198 31.1641 16.3547 31.2687 16.8119" stroke="black" stroke-width="0.0736222"/>
<path d="M22.8854 16.4786C22.8699 16.5174 22.8311 16.4786 22.8001 16.4864C22.7226 16.4864 22.6529 16.5406 22.5831 16.5794L21.8702 16.994C21.8469 16.9862 21.8508 16.9668 21.8585 16.9475L22.0523 16.0562C22.06 16.0059 22.0755 15.94 22.0252 15.9013C22.0058 15.8858 22.0368 15.8586 22.0523 15.8858L22.4165 16.1454C22.4049 16.1802 22.3816 16.1531 22.3623 16.1415C22.3119 16.0911 22.2499 16.1376 22.2538 16.1996L22.122 16.7847C22.2848 16.6917 22.4475 16.5987 22.6103 16.498C22.6645 16.4747 22.7071 16.3972 22.649 16.3507C22.6258 16.3352 22.587 16.3004 22.6258 16.2926L22.8854 16.4786ZM23.1411 17.7186C23.1334 17.7418 23.1217 17.7457 23.1024 17.7302L22.6761 17.4977C22.68 17.4706 22.6916 17.4667 22.711 17.4822C22.7498 17.5093 22.8118 17.5209 22.8427 17.4744L22.9977 17.1916L23.2147 16.7963C23.2457 16.746 23.2109 16.6878 23.1644 16.6685C23.1489 16.6607 23.1256 16.653 23.145 16.6375C23.1527 16.6259 23.176 16.6491 23.1876 16.653L23.5983 16.8777C23.5945 16.901 23.5828 16.9048 23.5635 16.8893C23.5247 16.8622 23.4627 16.8506 23.4317 16.8971L23.2767 17.18L23.0597 17.5752C23.0287 17.6217 23.0636 17.6837 23.1101 17.7031L23.1411 17.7186ZM24.7918 17.3311L24.6756 17.6566C24.6252 17.6527 24.6601 17.5907 24.6446 17.5597C24.6369 17.4855 24.6068 17.4154 24.5584 17.3586C24.5099 17.3019 24.4454 17.2612 24.3733 17.242C24.2571 17.211 24.1408 17.2691 24.0711 17.3621C23.9699 17.4999 23.9107 17.6641 23.9006 17.8348C23.897 17.8835 23.9067 17.9322 23.9285 17.9758C23.9503 18.0195 23.9835 18.0564 24.0246 18.0828C24.0929 18.1255 24.1728 18.1458 24.2532 18.1409L24.3346 17.8968C24.3462 17.8426 24.2881 17.8077 24.2454 17.7961C24.2377 17.7806 24.2532 17.7573 24.2726 17.7767L24.6988 17.9317C24.6988 17.982 24.6368 17.9239 24.6019 17.9472C24.5516 17.9665 24.5477 18.0285 24.5244 18.075L24.4741 18.2223C24.2803 18.2339 24.0866 18.1952 23.9161 18.0983C23.7572 17.9975 23.6448 17.7999 23.6797 17.6062C23.703 17.4396 23.8076 17.2846 23.9587 17.211C24.0982 17.1335 24.2687 17.1373 24.4159 17.1955C24.4934 17.2226 24.5632 17.273 24.6252 17.3272C24.6639 17.3776 24.7337 17.3776 24.7647 17.3233L24.7918 17.3311ZM25.4854 18.447C25.4854 18.4625 25.4854 18.4819 25.4621 18.4703L24.9739 18.3967C24.9739 18.3773 24.9739 18.3618 24.9972 18.3734C25.0359 18.3812 25.0979 18.3812 25.1134 18.3347C25.1367 18.2688 25.1405 18.199 25.1522 18.1332L25.2374 17.5674C25.249 17.5287 25.2374 17.4822 25.1948 17.4667C25.1677 17.4551 25.1444 17.4551 25.1173 17.4473C25.1173 17.4318 25.1173 17.4163 25.1405 17.4241L25.6288 17.5016C25.6288 17.5171 25.6288 17.5326 25.6055 17.5248C25.5668 17.5132 25.5086 17.5171 25.4893 17.5636C25.466 17.6256 25.4622 17.6953 25.4505 17.7612L25.3653 18.3269C25.3537 18.3657 25.3653 18.416 25.4118 18.4315L25.4893 18.447H25.4854ZM26.8106 18.1293L26.7912 18.4742L25.9155 18.5168C25.9116 18.4974 25.9155 18.4858 25.9388 18.4897C25.9814 18.4897 26.0395 18.4703 26.0473 18.4199L26.0356 18.1642L26.0085 17.6449C26.0124 17.5946 25.9698 17.5558 25.9194 17.5597C25.9039 17.5519 25.8613 17.5752 25.8651 17.5481C25.8574 17.5248 25.8923 17.5364 25.9039 17.5326L26.3921 17.5054C26.3921 17.5287 26.3921 17.5403 26.365 17.5364C26.3224 17.5364 26.2642 17.5442 26.2487 17.5984C26.2449 17.6721 26.2526 17.7457 26.2565 17.8193L26.2836 18.3618C26.2836 18.4044 26.3224 18.447 26.3689 18.4393C26.4386 18.4354 26.5122 18.4393 26.582 18.4199C26.6789 18.3928 26.7292 18.2959 26.7563 18.2068C26.7757 18.1835 26.7563 18.1215 26.7951 18.1293H26.8106ZM27.4887 17.2846C27.4654 17.2846 27.4771 17.3156 27.4693 17.3311C27.4306 17.6217 27.3957 17.9123 27.3531 18.199C27.3453 18.2649 27.3298 18.3385 27.2678 18.3695C27.2446 18.3812 27.264 18.416 27.2872 18.3967L27.5778 18.3075C27.5739 18.261 27.5158 18.3075 27.4848 18.2959C27.4189 18.2959 27.4073 18.2145 27.4189 18.1642C27.4189 18.1254 27.4267 18.0944 27.4306 18.0595L27.7638 17.9588C27.8064 18.013 27.8529 18.0634 27.8917 18.1215C27.9227 18.1758 27.8529 18.199 27.8142 18.2107C27.7909 18.2107 27.8064 18.2494 27.8258 18.2339L28.2637 18.1022C28.2637 18.0518 28.2017 18.1022 28.1745 18.0634C28.0893 18.0053 28.0312 17.9201 27.9653 17.8426L27.4887 17.2846ZM27.4887 17.6333L27.7212 17.9162L27.4383 18.0014L27.4887 17.6333ZM28.9844 16.6336L29.1123 16.8661C29.0735 16.9048 29.0503 16.8235 29.0154 16.8118C28.9865 16.7865 28.9503 16.771 28.912 16.7676C28.8737 16.7641 28.8353 16.7728 28.8023 16.7925L28.7248 16.8351L29.1045 17.5442C29.1239 17.6023 29.1975 17.6139 29.2479 17.5829C29.2634 17.5674 29.2828 17.5597 29.2866 17.5868C29.2246 17.6256 29.151 17.6604 29.0851 17.6953L28.8333 17.8309C28.8139 17.8116 28.8255 17.7999 28.8488 17.7922C28.8624 17.7872 28.8748 17.7791 28.8848 17.7685C28.8947 17.758 28.9021 17.7452 28.9062 17.7312C28.9104 17.7173 28.9112 17.7026 28.9086 17.6883C28.906 17.6739 28.9001 17.6604 28.8914 17.6488L28.5155 16.9513C28.4458 16.9901 28.3605 17.0211 28.3412 17.1063C28.3218 17.1645 28.3489 17.2303 28.3489 17.2768C28.3295 17.3001 28.3218 17.2691 28.3102 17.2536L28.2055 17.0521L28.9844 16.6336ZM29.5772 16.281L29.8175 16.6026C29.8717 16.5639 29.9182 16.5019 29.9027 16.4321C29.9105 16.3779 29.833 16.3159 29.8601 16.2771C29.8756 16.2694 29.8872 16.3081 29.8989 16.3197L30.1778 16.6878C30.1391 16.7266 30.1158 16.6452 30.0771 16.6336C30.0228 16.5949 29.9492 16.5755 29.8911 16.6181C29.8485 16.6336 29.8524 16.6569 29.8795 16.684C29.9415 16.7653 30.0035 16.8545 30.0732 16.9358C30.112 16.9746 30.1662 16.9358 30.2011 16.9048C30.2941 16.8428 30.3755 16.7421 30.3716 16.6259C30.3793 16.5716 30.3445 16.5174 30.3445 16.4709C30.3677 16.4437 30.3716 16.4864 30.3832 16.5019L30.515 16.7343L29.833 17.2497C29.8059 17.2303 29.833 17.2148 29.8524 17.2032C29.9144 17.1645 29.895 17.0831 29.8524 17.0405L29.4106 16.4631C29.3719 16.4127 29.3021 16.4399 29.2673 16.4747C29.2479 16.498 29.2285 16.4554 29.2556 16.4515L29.895 15.9671L30.0693 16.1996C30.0306 16.2384 29.9918 16.1492 29.9492 16.1454C29.864 16.0989 29.7632 16.1337 29.6935 16.1919L29.5734 16.281" fill="black"/>
<defs>
<linearGradient id="paint0_linear_11930_68548" x1="22.3703" y1="6.3384" x2="21.9296" y2="6.27343" gradientUnits="userSpaceOnUse">
<stop stop-color="#FF0000"/>
<stop offset="1" stop-color="#FFFF00"/>
</linearGradient>
<linearGradient id="paint1_linear_11930_68548" x1="22.339" y1="7.93874" x2="21.8983" y2="7.87377" gradientUnits="userSpaceOnUse">
<stop stop-color="#FF0000"/>
<stop offset="1" stop-color="#FFFF00"/>
</linearGradient>
<linearGradient id="paint2_linear_11930_68548" x1="22.3312" y1="9.51589" x2="21.8905" y2="9.45092" gradientUnits="userSpaceOnUse">
<stop stop-color="#FF0000"/>
<stop offset="1" stop-color="#FFFF00"/>
</linearGradient>
<linearGradient id="paint3_linear_11930_68548" x1="23.3625" y1="11.2246" x2="22.9217" y2="11.1597" gradientUnits="userSpaceOnUse">
<stop stop-color="#FF0000"/>
<stop offset="1" stop-color="#FFFF00"/>
</linearGradient>
<linearGradient id="paint4_linear_11930_68548" x1="22.1945" y1="12.6236" x2="21.7538" y2="12.5586" gradientUnits="userSpaceOnUse">
<stop stop-color="#FF0000"/>
<stop offset="1" stop-color="#FFFF00"/>
</linearGradient>
<linearGradient id="paint5_linear_11930_68548" x1="22.2238" y1="14.2742" x2="21.7831" y2="14.2092" gradientUnits="userSpaceOnUse">
<stop stop-color="#FF0000"/>
<stop offset="1" stop-color="#FFFF00"/>
</linearGradient>
<linearGradient id="paint6_linear_11930_68548" x1="28.0441" y1="6.36574" x2="27.6034" y2="6.30077" gradientUnits="userSpaceOnUse">
<stop stop-color="#FF0000"/>
<stop offset="1" stop-color="#FFFF00"/>
</linearGradient>
<linearGradient id="paint7_linear_11930_68548" x1="27.9914" y1="7.93484" x2="27.5506" y2="7.86987" gradientUnits="userSpaceOnUse">
<stop stop-color="#FF0000"/>
<stop offset="1" stop-color="#FFFF00"/>
</linearGradient>
<linearGradient id="paint8_linear_11930_68548" x1="27.9211" y1="9.54299" x2="27.4803" y2="9.47802" gradientUnits="userSpaceOnUse">
<stop stop-color="#FF0000"/>
<stop offset="1" stop-color="#FFFF00"/>
</linearGradient>
<linearGradient id="paint9_linear_11930_68548" x1="27.9992" y1="11.1201" x2="27.5585" y2="11.0552" gradientUnits="userSpaceOnUse">
<stop stop-color="#FF0000"/>
<stop offset="1" stop-color="#FFFF00"/>
</linearGradient>
<linearGradient id="paint10_linear_11930_68548" x1="27.9836" y1="12.7009" x2="27.5428" y2="12.636" gradientUnits="userSpaceOnUse">
<stop stop-color="#FF0000"/>
<stop offset="1" stop-color="#FFFF00"/>
</linearGradient>
<linearGradient id="paint11_linear_11930_68548" x1="27.9914" y1="14.2898" x2="27.5506" y2="14.2248" gradientUnits="userSpaceOnUse">
<stop stop-color="#FF0000"/>
<stop offset="1" stop-color="#FFFF00"/>
</linearGradient>
</defs>
</svg>
