<svg width="36" height="24" viewBox="0 0 36 24" fill="none" xmlns="http://www.w3.org/2000/svg">
<rect x="0.25" y="0.25" width="35.5" height="23.5" rx="1.75" fill="white"/>
<rect x="0.25" y="0.25" width="35.5" height="23.5" rx="1.75" stroke="#EFEFEF" stroke-width="0.5"/>
<path d="M12.2145 15.75C12.2145 15.75 12.1895 15.57 12.5245 15.445C12.8545 15.315 12.8845 14.835 12.8145 14.515C12.8145 14.515 12.6445 14.815 12.4295 14.92C12.4295 14.92 12.0895 15.1 12.0695 15.44C12.0695 15.44 12.0695 15.565 12.0445 15.665C12.0295 15.715 11.8745 15.235 12.1645 14.875C12.4645 14.51 12.5445 14.21 12.3095 13.625C12.3095 13.625 12.2845 13.975 12.0545 14.18C11.8195 14.38 11.7895 14.4 11.7945 14.88C11.7945 14.88 11.7945 15.05 11.7095 15.105C11.7095 15.105 11.5295 14.84 11.4795 14.665C11.4295 14.49 11.4095 14.415 11.6195 14.215C11.6195 14.215 12.2795 13.78 11.8045 12.845C11.8045 12.845 11.7895 13.165 11.5545 13.355C11.3295 13.55 11.3445 13.675 11.3345 14.005C11.3245 14.34 11.3045 14.315 11.2795 14.365C11.2795 14.365 10.8545 13.585 11.1795 13.175C11.5045 12.76 11.6895 12.675 11.3295 11.905C11.3295 11.905 11.3445 12.305 11.0545 12.495C10.7695 12.695 10.8345 13.145 10.8345 13.145C10.8345 13.145 10.8545 13.32 10.7945 13.445C10.7945 13.445 10.3895 12.65 10.7745 12.225C11.1045 11.86 11.1245 11.605 10.9495 11.095C10.9495 11.095 10.9295 11.33 10.7495 11.46C10.5645 11.59 10.4195 11.715 10.4545 12.21C10.4545 12.21 10.4695 12.56 10.4245 12.66C10.4245 12.66 10.2545 12.34 10.2045 12.135C10.1545 11.925 10.1395 11.805 10.2645 11.6C10.3895 11.395 10.8895 10.8 10.2945 9.94998C10.2945 9.94998 10.2795 10.225 10.1245 10.475C9.9745 10.725 10.0445 11.02 10.0745 11.245C10.1095 11.47 9.9995 11.69 9.9995 11.69C9.9995 11.69 9.7395 11.215 9.7995 10.67C9.8495 10.12 9.6295 9.66998 9.1245 9.34998C9.1245 9.34998 8.7595 10.2 9.2595 10.635C9.2595 10.635 9.6845 11.055 9.7945 11.565C9.7945 11.565 9.4695 11.535 9.1795 10.965C8.8845 10.395 8.2795 10.485 8.2395 10.48C8.2395 10.48 8.3395 11.36 9.2695 11.61C9.2695 11.61 9.8695 11.71 9.9795 12.15C9.9795 12.15 10.0795 12.45 10.1195 12.61C10.1195 12.61 9.9295 12.535 9.7545 12.275C9.5795 12.025 9.6045 11.99 9.0145 11.93C9.0145 11.93 8.7795 11.905 8.6545 11.735C8.6545 11.735 8.9045 12.665 9.5395 12.66C9.5395 12.66 10.1195 12.595 10.4395 13.36L10.2945 13.26C10.2095 13.205 9.9945 13.095 9.5695 13.145C9.1445 13.195 9.0245 13.125 8.9195 13.095C8.9195 13.095 9.3495 13.88 9.9545 13.645C10.5645 13.41 10.8545 14.265 10.8645 14.28C10.8645 14.28 10.7795 14.22 10.6745 14.115C10.5645 14.01 10.3445 13.88 9.9245 14.015C9.9245 14.015 9.6195 14.13 9.3095 14.035C9.3095 14.035 9.6095 14.61 10.2995 14.51C10.4811 14.4741 10.6696 14.5063 10.8291 14.6003C10.9886 14.6944 11.1079 14.8437 11.1645 15.02C11.1645 15.02 11.0745 14.97 11.0145 14.92C10.9495 14.87 10.7145 14.735 10.2145 14.88C9.7145 15.03 9.5345 14.86 9.5345 14.86C9.5345 14.86 9.8095 15.36 10.3445 15.425C10.3445 15.425 10.6445 15.42 10.7645 15.375C10.8895 15.325 11.2245 15.25 11.4545 15.585C11.4545 15.585 11.3895 15.595 11.2945 15.55C11.2945 15.55 10.9445 15.425 10.6695 15.65C10.6695 15.65 10.4295 15.895 10.0895 15.85C10.0895 15.85 10.5295 16.275 11.2295 15.915C11.2295 15.915 11.4645 15.745 11.6395 15.875C11.8145 16.01 12.2145 15.745 12.2145 15.745V15.75Z" fill="#369443" stroke="#010002" stroke-width="0.075" stroke-miterlimit="10"/>
<path d="M16.1104 5.18502C16.1104 5.18502 16.0304 4.46002 16.6104 4.38502C16.9109 4.33249 17.2196 4.35307 17.5104 4.44502L17.7854 4.97502L17.6854 5.33502L17.3154 5.50502C17.3154 5.50502 17.3804 4.95502 16.8754 4.94502C16.7454 4.94502 16.6754 4.99502 16.4704 4.96002C16.2654 4.92502 16.1554 5.15002 16.1104 5.18502Z" fill="#F4C53D" stroke="#010002" stroke-width="0.075" stroke-miterlimit="10"/>
<path d="M20.1903 6.97997C20.1003 7.08997 19.7553 7.12997 19.7553 7.12997C19.7553 7.12997 20.1103 7.40497 20.2653 7.79497C20.4153 8.17997 16.1453 7.79497 16.1453 7.79497C16.1453 7.79497 16.3353 7.66497 16.4603 7.41497C16.4603 7.41497 16.2703 7.48497 16.0803 7.29497C16.0803 7.29497 16.2203 7.34497 16.4053 7.06497C16.4053 7.06497 16.6803 6.71497 16.8753 6.61497C16.8753 6.61497 16.7853 6.67497 16.5703 6.55497C16.5703 6.55497 16.9403 6.50497 17.0703 5.87997C17.0703 5.87997 17.0953 5.73997 17.2353 5.52997C17.3753 5.32997 17.3453 5.57497 17.6053 5.25997C17.6053 5.25997 17.7253 5.03997 17.6203 4.90997C17.5203 4.76997 17.4053 4.81997 17.1903 4.68997C16.9703 4.55997 16.8753 4.48997 16.9503 4.28997C17.0253 4.08997 17.2153 4.11997 17.2453 4.11997C17.2753 4.11997 17.2853 3.94497 17.5203 3.82497C17.7553 3.70497 18.3903 3.75997 18.4803 3.80997C18.5803 3.85997 18.9553 3.97497 19.1803 4.53497C19.4003 5.09497 19.1203 5.30497 19.7203 6.15497C19.7203 6.15497 19.4803 6.20497 19.3253 6.15497C19.3253 6.15497 19.6403 6.71497 20.1903 6.97997Z" fill="#F4C53D" stroke="#010002" stroke-width="0.075" stroke-miterlimit="10"/>
<path d="M17.5507 4.61006C17.0507 4.58506 17.2457 4.12006 17.2457 4.12006" stroke="#010002" stroke-width="0.075" stroke-miterlimit="10"/>
<path d="M18.4002 4.67506C18.4002 4.67506 18.3152 4.63506 18.2402 4.53506C18.1402 4.40006 17.9052 4.33506 17.7852 4.46506C17.7852 4.46506 17.6602 4.60506 17.5452 4.61506C17.5452 4.61506 17.6752 4.65006 17.7602 4.73006C17.8452 4.81006 17.9352 4.87006 18.0652 4.85006C18.1952 4.83506 18.2152 4.76506 18.2752 4.72506C18.3402 4.68506 18.4002 4.67506 18.4002 4.67506Z" fill="#F4C53D" stroke="#010002" stroke-width="0.075" stroke-miterlimit="10"/>
<path d="M12.1394 16.8249C12.1394 16.8249 12.1294 16.5049 12.5294 16.4849L13.7044 18.1199C13.7044 18.1199 13.6594 18.2249 13.1294 18.2149C13.1294 18.2149 13.0694 18.2149 13.0394 18.2749C12.9944 18.3749 12.1394 16.8249 12.1394 16.8249Z" fill="#369443" stroke="#010002" stroke-width="0.075" stroke-miterlimit="10"/>
<path d="M13.4321 14.9189C13.4321 14.9189 13.0565 15.5633 12.6026 15.5738C12.6026 15.5738 11.822 15.479 11.6014 15.6829C11.4471 15.8252 11.2898 15.9426 11.225 16.3062C11.1618 16.6698 11.3492 16.7481 11.3937 16.7639C11.3937 16.7639 11.4283 17.0236 11.685 16.9558C11.685 16.9558 11.7 17.2268 12.1532 17.0966C12.6071 16.9664 12.7953 17.0078 12.8833 16.5561C12.9729 16.1037 13.055 16.1113 13.1355 16.0571C13.2439 15.984 13.4479 15.9155 13.5992 15.8282C13.7347 15.7499 14.2556 15.485 14.4333 15.4646C14.6109 15.4436 14.5718 14.8459 14.5718 14.8459H14.1126L13.8905 14.5184L13.4321 14.9189ZM14.8774 11.6866C14.8774 11.6866 14.4182 12.0607 14.0328 11.6866C14.0328 11.6866 13.8777 11.8733 13.5661 11.8191C13.256 11.7641 13.204 11.6008 13.1747 11.5074C13.1747 11.5074 12.9052 11.664 12.6778 11.5398C12.452 11.4164 12.452 11.2289 12.452 11.2289C12.452 11.2289 12.0568 11.3072 11.8543 11.0392C11.6518 10.772 11.7753 10.507 11.8844 10.4754C11.8844 10.4754 11.4576 10.5876 11.341 10.221C11.3099 10.1391 11.3051 10.0496 11.3272 9.96492C11.3493 9.88021 11.3973 9.80448 11.4644 9.74827C11.4644 9.74827 10.5656 9.74375 10.1968 9.46222C10.1968 9.46222 9.89041 9.26952 10.0733 9.06703C10.0733 9.06703 9.26413 8.93755 9.06164 8.61538C9.06164 8.61538 8.97281 8.52655 9.00217 8.37073C9.00217 8.37073 9.00744 8.28266 9.09626 8.27739C9.09626 8.27739 8.17339 8.13437 7.90692 7.83026C7.90692 7.83026 7.77895 7.69025 7.84293 7.50281C7.84293 7.50281 7.85648 7.45388 7.87831 7.42001C7.87831 7.42001 7.03824 7.24311 6.62423 6.869C6.62423 6.869 6.38486 6.65597 6.50831 6.36992C6.50831 6.36992 5.10443 5.98602 5.42962 5.36726C5.42962 5.36726 4.77322 5.15423 4.98098 4.56182C4.98098 4.56182 4.43825 4.28631 4.67461 3.84972C4.90119 3.43194 5.59748 3.92273 6.42099 4.15082C6.42099 4.15082 8.65214 4.85238 9.7504 5.03906L12.8713 9.68579L14.6922 10.3874L14.8774 11.6866Z" fill="#F4C53D" stroke="#010002" stroke-width="0.075275"/>
<path d="M14.8994 8.26455C14.8994 8.26455 14.6066 8.04475 14.0849 8.30294C14.0849 8.30294 13.9096 8.42414 13.771 8.29165C13.741 8.263 13.7177 8.22804 13.7028 8.18929C13.6879 8.15055 13.6818 8.10898 13.6849 8.06758C13.688 8.02619 13.7002 7.986 13.7207 7.9499C13.7412 7.9138 13.7695 7.88269 13.8034 7.85882C14.1926 7.57052 14.3364 6.70561 13.7447 6.34655C13.7447 6.34655 12.8866 5.83769 9.73781 5.03676C9.73781 5.03676 9.47435 4.96299 9.33283 4.99837C9.26437 5.01584 9.2019 5.05151 9.15207 5.10161C9.10224 5.1517 9.0669 5.21435 9.0498 5.28291C9.0498 5.28291 8.90828 5.68413 9.38251 5.91372C9.38251 5.91372 9.5963 6.01157 9.81685 6.0748C9.81685 6.0748 9.57447 6.02211 9.47059 6.26149C9.37273 6.49032 9.51575 6.72443 9.95987 6.87498C9.95987 6.87498 10.0803 6.92165 10.2512 6.96305C10.2512 6.96305 9.87105 7.0722 10.054 7.37932C10.054 7.37932 10.2166 7.7015 10.7917 7.75871C10.7917 7.75871 10.3626 7.80538 10.6652 8.21337C10.6652 8.21337 10.7984 8.43693 11.2177 8.51974C11.2177 8.51974 10.9001 8.53027 11.0596 8.81557C11.2207 9.10161 11.5979 9.2627 11.9697 9.28905C11.9697 9.28905 12.1707 9.29959 12.3115 9.26797C12.3115 9.26797 11.9577 9.44487 12.1654 9.7407C12.1654 9.7407 12.3182 9.95147 12.7006 9.94093C12.7006 9.94093 12.602 10.2721 12.882 10.3971C13.1003 10.495 13.2818 10.3384 13.2818 10.3384C13.2818 10.3384 13.208 10.6929 13.5264 10.8179C13.5264 10.8179 13.6852 10.8999 13.9223 10.8179C13.9223 10.8179 14.103 11.2236 14.7474 10.9383C15.3917 10.6545 14.8994 8.26531 14.8994 8.26531V8.26455ZM14.9371 11.9485C14.9371 11.9485 14.843 12.4559 14.094 13.0942C14.094 13.0942 13.5159 13.6038 13.5302 14.191C13.5452 14.7894 13.427 14.8564 13.1997 15.0589C13.1997 15.0589 13.6687 15.0958 13.8953 14.7834C13.8953 14.7834 13.8855 15.3028 13.8162 15.3502C13.8162 15.3502 13.9638 15.3592 14.1768 15.1266C14.1768 15.1266 14.3047 14.9911 14.4237 14.9392C14.4237 14.9392 14.2852 15.2983 14.3936 15.631C14.3936 15.631 14.4282 15.5007 14.6111 15.4435C14.6111 15.4435 14.9423 15.3758 15.0703 14.8978C15.0703 14.8978 15.1538 14.5816 15.6725 14.3001C15.6725 14.3001 16.2596 14.0788 16.2446 13.7897C16.2295 13.4999 14.9378 11.9485 14.9378 11.9485H14.9371Z" fill="#F4C53D" stroke="#010002" stroke-width="0.075275"/>
<path d="M17.6591 18.4892C17.6591 18.4892 17.5244 19.0824 17.0569 19.0349C17.0569 19.0349 16.7265 19.0033 16.7513 18.4523C16.7513 18.4523 16.2628 18.7128 16.1837 18.0684C16.1837 18.0684 15.7396 18.1715 15.7449 17.5693C15.7449 17.5693 15.3309 17.6416 15.3798 17.1064C15.3798 17.1064 14.9304 17.2268 14.9304 16.7225C14.9304 16.7225 13.8796 16.5478 16.0701 14.55L18.0242 15.7138L17.6591 18.4892Z" fill="#F4C53D" stroke="#010002" stroke-width="0.075275" stroke-miterlimit="10"/>
<path d="M17.8757 15.8252C17.8757 15.8252 17.5498 16.1142 17.3179 15.6822C17.3179 15.6822 17.0018 15.6671 16.9528 15.4277C16.9528 15.4277 16.6962 15.4021 16.6465 15.1575C16.6465 15.1575 16.2964 15.1214 16.3062 14.8255C16.3062 14.8255 15.6694 14.7759 16.3062 14.0547C16.9431 13.3336 18.0233 15.2516 18.0233 15.2516L17.8757 15.8252ZM18.2385 15.646C18.5547 15.646 18.9122 17.6182 18.8197 18.8068C18.7858 19.2382 18.5547 19.5904 18.2385 19.5904C17.9224 19.5904 17.692 19.2382 17.6589 18.8068C17.5656 17.6182 17.9231 15.646 18.2385 15.646Z" fill="#F4C53D" stroke="#010002" stroke-width="0.075275"/>
<path d="M18.2391 16.2784C18.4802 16.2784 18.6757 15.9885 18.6757 15.631C18.6757 15.2735 18.4802 14.9836 18.2391 14.9836C17.998 14.9836 17.8025 15.2735 17.8025 15.631C17.8025 15.9885 17.998 16.2784 18.2391 16.2784Z" fill="#F4C53D" stroke="#010002" stroke-width="0.075275"/>
<path d="M16.7506 18.4522C16.7506 18.4522 16.8003 17.4082 17.7051 15.9109M16.183 18.0683C16.183 18.0683 16.0422 17.4654 17.3181 15.6821C17.3181 15.6821 17.1699 15.2568 17.6238 14.9835M15.7441 17.5692C15.7441 17.5692 15.7042 16.9166 16.9531 15.4277C16.9531 15.4277 16.8424 15.0438 17.2948 14.7366M15.3791 17.1063C15.3791 17.1063 15.4257 16.4469 16.6467 15.1574C16.6467 15.1574 16.5865 14.763 17.0231 14.5183M14.9304 16.7224C14.9304 16.7224 15.0185 15.9689 16.3064 14.8255C16.3064 14.8255 16.262 14.5289 16.6911 14.2278" stroke="#010002" stroke-width="0.075275" stroke-miterlimit="10"/>
<path d="M4.98022 4.56177C4.98022 4.56177 5.99117 5.14741 9.14218 5.73305M5.42886 5.36721C5.42886 5.36721 8.16662 6.25997 9.44177 6.36987M6.5068 6.36987C6.5068 6.36987 8.11317 6.87422 9.99429 7.19263M7.87756 7.42071C7.87756 7.42071 9.69169 7.85655 10.5589 7.92882M9.09551 8.27734C9.09551 8.27734 10.6304 8.59726 11.0188 8.63565M10.0726 9.06698C10.0726 9.06698 11.1927 9.2371 11.6383 9.22806M11.4637 9.74746C11.4637 9.74746 11.9168 9.72639 12.1344 9.69025M11.8829 10.4754C11.8829 10.4754 12.2683 10.3715 12.4949 10.2262M12.4505 11.2289C12.4505 11.2289 12.7471 11.1145 12.8901 10.8028M13.1739 11.5074C13.1739 11.5074 13.4027 11.3019 13.4178 11.0731M14.032 11.6865C14.032 11.6865 13.9462 11.612 14.0049 11.2898M13.9214 10.8171C13.9214 10.8171 13.8762 10.7253 13.8913 10.5793M12.303 6.20352C12.303 6.20352 12.8209 6.41127 12.9932 6.69732C13.1664 6.98336 13.0527 7.26113 12.9932 7.41996C12.9639 7.5005 12.5988 8.20432 13.0279 8.71394M12.3098 9.26646C12.3098 9.26646 12.3128 9.2642 12.4949 9.20624M11.2168 8.51822C11.2168 8.51822 11.5254 8.57995 11.8287 8.58296M10.7899 7.75644C10.7899 7.75644 11.1528 7.79332 11.4938 7.78805M10.2502 6.96153C10.2502 6.96153 10.7734 7.06541 11.0542 7.07068M9.81589 6.0748C9.81589 6.0748 10.461 6.25847 10.9405 6.32396M12.0064 6.70334C12.0064 6.70334 11.5427 7.13467 12.1005 7.53513C12.1005 7.53513 11.8686 7.89871 12.3323 8.27809M12.2089 8.45725C12.2089 8.45725 12.1396 9.15128 12.9887 9.15128C12.9887 9.15128 12.8254 9.76929 13.6451 9.74897C13.6451 9.74897 13.7385 10.2428 14.3301 10.1434M13.0271 15.5745C13.0271 15.5745 12.8924 15.6046 12.6011 15.5745M11.7821 15.9381C11.7821 15.9381 11.3726 15.8756 11.3921 16.7646M12.029 16.1406C12.029 16.1406 11.6586 16.0939 11.6827 16.9565M15.6023 14.0622C15.6023 14.0622 15.4246 14.0984 15.3012 14.2391C15.1785 14.3791 14.9414 14.3528 14.9414 14.3528C14.9414 14.3528 15.0693 14.2489 15.1145 13.9892C15.1582 13.7295 15.3019 13.6512 15.3019 13.6512M14.8781 13.4058C14.8781 13.4058 14.7005 13.442 14.577 13.582C14.4536 13.7227 14.2165 13.6964 14.2165 13.6964C14.2165 13.6964 14.3444 13.5925 14.3896 13.3328C14.434 13.0731 14.577 12.9948 14.577 12.9948M14.7554 14.4138C14.7554 14.4138 14.6004 14.4461 14.4927 14.5681C14.3851 14.6908 14.1781 14.6682 14.1781 14.6682C14.1781 14.6682 14.291 14.5779 14.3286 14.3505C14.3678 14.124 14.4927 14.0555 14.4927 14.0555" stroke="#010002" stroke-width="0.075275"/>
<path d="M22.9273 14.9189C22.9273 14.9189 23.3029 15.5633 23.7568 15.5738C23.7568 15.5738 24.5374 15.479 24.758 15.6829C24.9123 15.8252 25.0696 15.9426 25.1343 16.3062C25.1976 16.6698 25.0101 16.7481 24.9657 16.7639C24.9657 16.7639 24.9311 17.0236 24.6744 16.9558C24.6744 16.9558 24.6594 17.2268 24.2062 17.0966C23.7523 16.9664 23.5641 17.0078 23.476 16.5561C23.3865 16.1037 23.3044 16.1113 23.2239 16.0571C23.1155 15.984 22.9115 15.9155 22.7602 15.8282C22.6247 15.7499 22.1038 15.485 21.9261 15.4646C21.7485 15.4436 21.7876 14.8459 21.7876 14.8459H22.2468L22.4688 14.5184L22.9273 14.9189ZM21.482 11.6866C21.482 11.6866 21.9412 12.0607 22.3266 11.6866C22.3266 11.6866 22.4816 11.8733 22.7933 11.8191C23.1034 11.7641 23.1554 11.6008 23.1847 11.5074C23.1847 11.5074 23.4542 11.664 23.6815 11.5398C23.9074 11.4164 23.9074 11.2289 23.9074 11.2289C23.9074 11.2289 24.3025 11.3072 24.505 11.0392C24.7075 10.772 24.5841 10.507 24.4749 10.4754C24.4749 10.4754 24.9017 10.5876 25.0184 10.221C25.0495 10.1391 25.0543 10.0496 25.0322 9.96492C25.01 9.88021 24.9621 9.80448 24.895 9.74827C24.895 9.74827 25.7937 9.74375 26.1626 9.46222C26.1626 9.46222 26.469 9.26952 26.286 9.06703C26.286 9.06703 27.0952 8.93755 27.2977 8.61538C27.2977 8.61538 27.3866 8.52655 27.3572 8.37073C27.3572 8.37073 27.3519 8.28266 27.2631 8.27739C27.2631 8.27739 28.186 8.13437 28.4525 7.83026C28.4525 7.83026 28.5804 7.69025 28.5164 7.50281C28.5164 7.50281 28.5029 7.45388 28.4811 7.42001C28.4811 7.42001 29.3211 7.24311 29.7351 6.869C29.7351 6.869 29.9745 6.65597 29.8511 6.36992C29.8511 6.36992 31.2549 5.98602 30.9298 5.36726C30.9298 5.36726 31.5862 5.15423 31.3784 4.56182C31.3784 4.56182 31.9211 4.28631 31.6848 3.84972C31.4582 3.43194 30.7619 3.92273 29.9384 4.15082C29.9384 4.15082 27.7072 4.85238 26.609 5.03906L23.4881 9.68579L21.6672 10.3874L21.482 11.6866Z" fill="#F4C53D" stroke="#010002" stroke-width="0.075275"/>
<path d="M21.46 8.26455C21.46 8.26455 21.7528 8.04475 22.2744 8.30294C22.2744 8.30294 22.4498 8.42414 22.5883 8.29165C22.6184 8.263 22.6417 8.22804 22.6566 8.18929C22.6715 8.15055 22.6776 8.10898 22.6745 8.06758C22.6714 8.02619 22.6592 7.986 22.6387 7.9499C22.6182 7.9138 22.5899 7.88269 22.556 7.85882C22.1668 7.57052 22.023 6.70561 22.6147 6.34655C22.6147 6.34655 23.4728 5.83769 26.6216 5.03676C26.6216 5.03676 26.885 4.96299 27.0265 4.99837C27.095 5.01584 27.1575 5.05151 27.2073 5.10161C27.2571 5.1517 27.2925 5.21435 27.3096 5.28291C27.3096 5.28291 27.4511 5.68413 26.9769 5.91372C26.9769 5.91372 26.7631 6.01157 26.5425 6.0748C26.5425 6.0748 26.7849 6.02211 26.8888 6.26149C26.9866 6.49032 26.8436 6.72443 26.3995 6.87498C26.3995 6.87498 26.2791 6.92165 26.1082 6.96305C26.1082 6.96305 26.4883 7.0722 26.3054 7.37932C26.3054 7.37932 26.1428 7.7015 25.5677 7.75871C25.5677 7.75871 25.9968 7.80538 25.6942 8.21337C25.6942 8.21337 25.5609 8.43693 25.1417 8.51974C25.1417 8.51974 25.4593 8.53027 25.2997 8.81557C25.1386 9.10161 24.7615 9.2627 24.3897 9.28905C24.3897 9.28905 24.1887 9.29959 24.0479 9.26797C24.0479 9.26797 24.4017 9.44487 24.1939 9.7407C24.1939 9.7407 24.0411 9.95147 23.6587 9.94093C23.6587 9.94093 23.7573 10.2721 23.4773 10.3971C23.259 10.495 23.0776 10.3384 23.0776 10.3384C23.0776 10.3384 23.1514 10.6929 22.833 10.8179C22.833 10.8179 22.6741 10.8999 22.437 10.8179C22.437 10.8179 22.2564 11.2236 21.612 10.9383C20.9677 10.6545 21.46 8.26531 21.46 8.26531V8.26455ZM21.4223 11.9485C21.4223 11.9485 21.5164 12.4559 22.2654 13.0942C22.2654 13.0942 22.8435 13.6038 22.8292 14.191C22.8142 14.7894 22.9323 14.8564 23.1597 15.0589C23.1597 15.0589 22.6907 15.0958 22.4641 14.7834C22.4641 14.7834 22.4739 15.3028 22.5432 15.3502C22.5432 15.3502 22.3956 15.3592 22.1826 15.1266C22.1826 15.1266 22.0546 14.9911 21.9357 14.9392C21.9357 14.9392 22.0742 15.2983 21.9658 15.631C21.9658 15.631 21.9312 15.5007 21.7483 15.4435C21.7483 15.4435 21.417 15.3758 21.2891 14.8978C21.2891 14.8978 21.2055 14.5816 20.6869 14.3001C20.6869 14.3001 20.0997 14.0788 20.1148 13.7897C20.1298 13.4999 21.4216 11.9485 21.4216 11.9485H21.4223Z" fill="#F4C53D" stroke="#010002" stroke-width="0.075275"/>
<path d="M18.7002 18.4892C18.7002 18.4892 18.835 19.0824 19.3024 19.0349C19.3024 19.0349 19.6329 19.0033 19.6081 18.4523C19.6081 18.4523 20.0966 18.7128 20.1756 18.0684C20.1756 18.0684 20.6198 18.1715 20.6145 17.5693C20.6145 17.5693 21.0285 17.6416 20.9796 17.1064C20.9796 17.1064 21.429 17.2268 21.429 16.7225C21.429 16.7225 22.4798 16.5478 20.2893 14.55L18.3352 15.7138L18.7002 18.4892Z" fill="#F4C53D" stroke="#010002" stroke-width="0.075275" stroke-miterlimit="10"/>
<path d="M18.4837 15.8252C18.4837 15.8252 18.8096 16.1142 19.0415 15.6822C19.0415 15.6822 19.3576 15.6671 19.4065 15.4277C19.4065 15.4277 19.6632 15.4021 19.7129 15.1575C19.7129 15.1575 20.0629 15.1214 20.0531 14.8255C20.0531 14.8255 20.69 14.7759 20.0531 14.0547C19.4163 13.3336 18.3361 15.2516 18.3361 15.2516L18.4837 15.8252ZM18.1208 15.646C17.8047 15.646 17.4471 17.6182 17.5397 18.8068C17.5736 19.2382 17.8047 19.5904 18.1208 19.5904C18.437 19.5904 18.6673 19.2382 18.7005 18.8068C18.7938 17.6182 18.4362 15.646 18.1208 15.646Z" fill="#F4C53D" stroke="#010002" stroke-width="0.075275"/>
<path d="M18.1203 16.2784C17.8792 16.2784 17.6837 15.9885 17.6837 15.631C17.6837 15.2735 17.8792 14.9836 18.1203 14.9836C18.3614 14.9836 18.5569 15.2735 18.5569 15.631C18.5569 15.9885 18.3614 16.2784 18.1203 16.2784Z" fill="#F4C53D" stroke="#010002" stroke-width="0.075275"/>
<path d="M19.6088 18.4522C19.6088 18.4522 19.5591 17.4082 18.6543 15.9109M20.1764 18.0683C20.1764 18.0683 20.3171 17.4654 19.0412 15.6821C19.0412 15.6821 19.1895 15.2568 18.7356 14.9835M20.6152 17.5692C20.6152 17.5692 20.6551 16.9166 19.4063 15.4277C19.4063 15.4277 19.517 15.0438 19.0646 14.7366M20.9803 17.1063C20.9803 17.1063 20.9336 16.4469 19.7127 15.1574C19.7127 15.1574 19.7729 14.763 19.3363 14.5183M21.429 16.7224C21.429 16.7224 21.3409 15.9689 20.0529 14.8255C20.0529 14.8255 20.0973 14.5289 19.6683 14.2278" stroke="#010002" stroke-width="0.075275" stroke-miterlimit="10"/>
<path d="M31.3792 4.56177C31.3792 4.56177 30.3682 5.14741 27.2172 5.73305M30.9305 5.36721C30.9305 5.36721 28.1928 6.25997 26.9176 6.36987M29.8526 6.36987C29.8526 6.36987 28.2462 6.87422 26.3651 7.19263M28.4818 7.42071C28.4818 7.42071 26.6677 7.85655 25.8005 7.92882M27.2639 8.27734C27.2639 8.27734 25.729 8.59726 25.3406 8.63565M26.2868 9.06698C26.2868 9.06698 25.1667 9.2371 24.7211 9.22806M24.8957 9.74746C24.8957 9.74746 24.4426 9.72639 24.225 9.69025M24.4764 10.4754C24.4764 10.4754 24.091 10.3715 23.8644 10.2262M23.9089 11.2289C23.9089 11.2289 23.6123 11.1145 23.4693 10.8028M23.1855 11.5074C23.1855 11.5074 22.9566 11.3019 22.9416 11.0731M22.3273 11.6865C22.3273 11.6865 22.4131 11.612 22.3544 11.2898M22.438 10.8171C22.438 10.8171 22.4832 10.7253 22.4681 10.5793M24.0564 6.20352C24.0564 6.20352 23.5385 6.41127 23.3661 6.69732C23.193 6.98336 23.3067 7.26113 23.3661 7.41996C23.3955 7.5005 23.7606 8.20432 23.3315 8.71394M24.0496 9.26646C24.0496 9.26646 24.0466 9.2642 23.8644 9.20624M25.1426 8.51822C25.1426 8.51822 24.834 8.57995 24.5306 8.58296M25.5694 7.75644C25.5694 7.75644 25.2066 7.79332 24.8656 7.78805M26.1091 6.96153C26.1091 6.96153 25.586 7.06541 25.3052 7.07068M26.5435 6.0748C26.5435 6.0748 25.8984 6.25847 25.4189 6.32396M24.353 6.70334C24.353 6.70334 24.8167 7.13467 24.2589 7.53513C24.2589 7.53513 24.4907 7.89871 24.027 8.27809M24.1505 8.45725C24.1505 8.45725 24.2197 9.15128 23.3706 9.15128C23.3706 9.15128 23.534 9.76929 22.7142 9.74897C22.7142 9.74897 22.6209 10.2428 22.0292 10.1434M23.3323 15.5745C23.3323 15.5745 23.467 15.6046 23.7583 15.5745M24.5773 15.9381C24.5773 15.9381 24.9868 15.8756 24.9672 16.7646M24.3304 16.1406C24.3304 16.1406 24.7008 16.0939 24.6767 16.9565M20.7571 14.0622C20.7571 14.0622 20.9347 14.0984 21.0582 14.2391C21.1809 14.3791 21.418 14.3528 21.418 14.3528C21.418 14.3528 21.29 14.2489 21.2449 13.9892C21.2012 13.7295 21.0574 13.6512 21.0574 13.6512M21.4812 13.4058C21.4812 13.4058 21.6589 13.442 21.7823 13.582C21.9058 13.7227 22.1429 13.6964 22.1429 13.6964C22.1429 13.6964 22.0149 13.5925 21.9698 13.3328C21.9254 13.0731 21.7823 12.9948 21.7823 12.9948M21.6039 14.4138C21.6039 14.4138 21.759 14.4461 21.8666 14.5681C21.9743 14.6908 22.1813 14.6682 22.1813 14.6682C22.1813 14.6682 22.0684 14.5779 22.0307 14.3505C21.9916 14.124 21.8666 14.0555 21.8666 14.0555" stroke="#010002" stroke-width="0.075275"/>
<path d="M25.2991 12.7999L24.5841 15.8849L24.2891 15.6749L24.9891 12.7149L24.4991 12.7249L25.6541 10.6099L25.7291 13.0449L25.2991 12.7999ZM27.1491 13.4499L24.9991 15.9899L24.7691 15.7299L26.9091 13.2199L26.4741 12.9899L28.4341 11.6899L27.4191 13.8799L27.1491 13.4499Z" fill="#0081C6" stroke="#010002" stroke-width="0.075" stroke-miterlimit="10"/>
<path d="M26.6303 12.1L24.7053 15.8L24.4103 15.625L26.3453 11.935L25.8753 11.815L27.5103 10.085L26.9853 12.46L26.6303 12.1ZM24.2303 16.93L24.0853 17.515L24.4853 17.915L23.9253 20.265L23.4253 19.6L22.6953 19.94L23.2503 17.59L23.7703 17.44L23.9003 16.855C23.9003 16.855 24.0603 16.795 24.2303 16.93Z" fill="#0081C6" stroke="#010002" stroke-width="0.075" stroke-miterlimit="10"/>
<path d="M24.3648 16.5399L24.0798 17.0699L24.3648 17.5549L23.2448 19.6799L22.9298 18.8999L22.1348 19.0299L23.2548 16.9099H23.7898L24.0648 16.3799C24.0648 16.3799 24.2648 16.3799 24.3648 16.5399Z" fill="#0081C6" stroke="#010002" stroke-width="0.075" stroke-miterlimit="10"/>
<path d="M24.41 16.6949L23.66 17.6549L23.83 18.1949L22.285 19.9949L22.145 19.1649L21.345 19.1049L22.885 17.3049L23.405 17.4299L24.205 16.4099C24.205 16.4099 24.425 16.5199 24.41 16.6949ZM5.27497 14.4449C5.45497 14.3699 5.58497 14.2999 5.58497 14.1099C5.58497 14.0599 5.55997 13.9599 5.50997 13.8049L4.29997 10.0999C4.25948 9.96486 4.20935 9.83285 4.14997 9.70494C4.09497 9.60494 3.98997 9.55994 3.84497 9.50494H5.37997C5.21497 9.57994 5.05997 9.63994 5.06497 9.81994C5.06497 9.88494 5.08497 9.97994 5.11997 10.1049L6.04997 13.0049L6.97497 10.1049C7.00707 10.0131 7.0256 9.91711 7.02997 9.81994C7.02997 9.63494 6.86997 9.56994 6.71497 9.49994H8.20497C8.06997 9.55494 7.95497 9.59994 7.90497 9.70494C7.84427 9.8346 7.79249 9.96824 7.74997 10.1049L6.53997 13.7999C6.50657 13.8994 6.48149 14.0014 6.46497 14.1049C6.46497 14.1049 6.40997 14.3399 6.77497 14.4399L5.27497 14.4449ZM31.04 14.0649V9.87994C31.04 9.80994 31.025 9.75494 31 9.71494C30.975 9.67494 30.875 9.56494 30.725 9.50494H32.11C31.9989 9.54504 31.9029 9.61836 31.835 9.71494C31.81 9.75494 31.8 9.80994 31.8 9.87994V14.0649C31.8 14.1399 31.81 14.1949 31.835 14.2349C31.86 14.2749 31.96 14.3749 32.11 14.4449H30.725C30.875 14.3749 30.975 14.2749 31 14.2349C31.025 14.1949 31.04 14.1399 31.04 14.0649Z" fill="#0081C6" stroke="#010002" stroke-width="0.075" stroke-miterlimit="10"/>
<path d="M18.2397 15.4899C18.2397 15.4899 21.9497 13.8449 21.9547 10.0499H14.5247C14.5347 13.8499 18.2397 15.4899 18.2397 15.4899Z" fill="white" stroke="#010002" stroke-width="0.075"/>
<path d="M15.0996 10.0499V12.4749C15.0996 12.4749 15.3796 13.0399 15.6696 13.3899V10.0499H15.0996ZM16.2396 10.0499V14.0499C16.2396 14.0499 16.5996 14.3999 16.8096 14.5699V10.0499H16.2396ZM17.3846 10.0499V14.9949C17.3846 14.9949 17.7896 15.2549 17.9546 15.3449V10.0449H17.3846V10.0499ZM21.3846 10.0499V12.4749C21.3846 12.4749 21.0996 13.0399 20.8096 13.3899V10.0499H21.3846ZM20.2396 10.0499V14.0499C20.2396 14.0499 19.8846 14.3999 19.6696 14.5699V10.0499H20.2396ZM19.0996 10.0499V14.9949C19.0996 14.9949 18.6896 15.2549 18.5246 15.3449V10.0449H19.0996V10.0499Z" fill="#A60032" stroke="#010002" stroke-width="0.075"/>
<path d="M21.9547 7.28996C21.9547 7.28996 20.1347 8.23996 18.2397 7.20996C16.3447 8.23996 14.5247 7.28996 14.5247 7.28996V10.05H21.9547V7.28996Z" fill="#162667" stroke="#010002" stroke-width="0.075" stroke-miterlimit="10"/>
</svg>
