<svg width="36" height="24" viewBox="0 0 36 24" fill="none" xmlns="http://www.w3.org/2000/svg">
<g clip-path="url(#clip0_11930_68579)">
<path d="M0 0H36V24H0V0Z" fill="#009543"/>
<path d="M0 0H36V12H0V0Z" fill="#D21034"/>
<path d="M-0.000276566 3.95038L-1.82324 2.75405L-0.177273 0.245911L15.448 10.5H35.9997V13.5H15.4539L0 23.8028L-1.6641 21.3066L-0.000276566 20.1972V3.95038Z" fill="black"/>
<path d="M-0.725586 2.27806L14.0939 12.0032L-0.725322 21.8828L-0.170622 22.7149L15.1516 12.5H36.0002V11.5H15.1497L-0.17693 1.44202L-0.725586 2.27806Z" fill="#FDCE12"/>
<path d="M4.30342 15.6632C5.4908 15.6632 7.82512 14.7537 7.82512 11.8181C7.82512 8.88254 5.33417 8.33685 4.59143 8.33685C3.84363 8.33685 1.54468 8.87243 1.54468 11.2674C1.54468 13.6725 3.80321 13.8948 4.24785 13.8948C4.69248 13.8948 6.35985 13.4906 6.16785 11.6918C6.11807 12.1308 5.90802 12.536 5.57795 12.8297C5.24788 13.1234 4.82103 13.285 4.37921 13.2834C3.16658 13.2834 2.40868 12.384 2.40868 11.4948C2.40868 10.6055 3.14637 9.41307 4.42469 9.41307C5.70301 9.41307 6.63775 10.5499 6.63775 11.6918C6.63775 12.8388 5.73838 14.2939 4.30342 14.2939V15.6632Z" fill="#FDCE12"/>
<path fill-rule="evenodd" clip-rule="evenodd" d="M5.58455 10.1711C5.62501 10.2385 5.49897 10.3262 5.41063 10.3771L5.41244 10.3803C5.37723 10.4016 5.34255 10.4231 5.30837 10.4448C5.42175 10.397 5.62293 10.3236 5.65528 10.3883C5.69391 10.4656 5.29142 10.521 5.16933 10.5359C5.14356 10.5533 5.1181 10.5708 5.09295 10.5884C5.19387 10.5649 5.41256 10.5212 5.37739 10.5955C5.33454 10.6769 5.05912 10.6747 4.97642 10.6722C4.95377 10.6889 4.93139 10.7057 4.90928 10.7225C5.00661 10.7019 5.23547 10.66 5.19549 10.7319C5.15277 10.8003 4.8825 10.8072 4.8 10.8077C4.77187 10.8302 4.7442 10.8528 4.71698 10.8754C4.80526 10.8539 5.04392 10.8036 4.99844 10.8987C4.97048 10.9602 4.82803 10.9861 4.70636 10.997C4.7093 11.0095 4.71183 11.0223 4.71402 11.0353C4.74272 11.0341 4.76464 11.0378 4.77377 11.0491C4.78133 11.0213 4.79705 11.0103 4.82542 11.03C4.91967 11.0997 4.91089 11.3555 4.90421 11.4496C4.92955 11.478 4.95504 11.507 4.98063 11.5367C4.95396 11.4168 4.89818 11.125 5.00731 11.2018C5.11816 11.2798 5.09891 11.5613 5.0878 11.6641C5.11085 11.6922 5.13397 11.7209 5.15715 11.7501C5.14268 11.6266 5.11724 11.3347 5.20942 11.3989C5.30139 11.4658 5.26538 11.7678 5.25021 11.8701C5.27061 11.897 5.29105 11.9244 5.3115 11.9522C5.30115 11.8305 5.2807 11.4969 5.37616 11.5757C5.46807 11.6509 5.41489 11.961 5.39372 12.0661C5.41135 12.0911 5.42898 12.1163 5.44661 12.1419C5.43466 12.0016 5.41561 11.6515 5.53784 11.7778C5.66379 11.9122 5.56648 12.1791 5.52997 12.2655C5.58078 12.3424 5.63153 12.4221 5.68209 12.5049L5.69189 12.5209L5.5856 12.5968L5.57523 12.5732L5.57402 12.5705L5.56907 12.5598C5.56462 12.5503 5.55788 12.5361 5.54874 12.5178C5.53245 12.4851 5.50856 12.4389 5.47654 12.3817C5.36974 12.3549 5.02403 12.2609 5.03258 12.1669C5.03258 12.0669 5.33145 12.2285 5.4152 12.2758C5.40036 12.251 5.38443 12.2249 5.36739 12.1977C5.28528 12.1771 4.96173 12.0894 4.92647 11.9749C4.89779 11.8643 5.18136 12.0161 5.28968 12.0775C5.27316 12.0527 5.25586 12.0272 5.23779 12.0012C5.14726 11.9701 4.86022 11.8638 4.83047 11.7576C4.79926 11.6679 5.01511 11.777 5.11506 11.8313C5.11212 11.8274 5.10917 11.8235 5.1062 11.8196C5.08883 11.7967 5.07093 11.7734 5.05251 11.7498C4.95646 11.7243 4.66457 11.638 4.61826 11.5201C4.56752 11.4017 4.8494 11.5593 4.94272 11.6139C4.90489 11.5685 4.86519 11.5224 4.82359 11.4756C4.74989 11.465 4.56685 11.4315 4.45972 11.3484C4.35258 11.4315 4.16954 11.465 4.09584 11.4756C4.05424 11.5224 4.01454 11.5685 3.97671 11.6139C4.07003 11.5593 4.35192 11.4017 4.30117 11.5201C4.25486 11.638 3.96297 11.7243 3.86693 11.7498C3.8485 11.7734 3.83061 11.7967 3.81324 11.8196L3.80437 11.8313C3.90433 11.777 4.12018 11.6679 4.08896 11.7576C4.05922 11.8638 3.77217 11.9701 3.68164 12.0012C3.66357 12.0272 3.64628 12.0527 3.62975 12.0775C3.73807 12.0161 4.02164 11.8643 3.99296 11.9749C3.95771 12.0894 3.63416 12.1771 3.55205 12.1977C3.535 12.2249 3.51907 12.251 3.50423 12.2758C3.58798 12.2285 3.88686 12.0669 3.88686 12.1669C3.8954 12.2609 3.54969 12.3549 3.4429 12.3817C3.41088 12.4389 3.38698 12.4851 3.37069 12.5178C3.36155 12.5361 3.35481 12.5503 3.35037 12.5598L3.34541 12.5705L3.3442 12.5732L3.33383 12.5968L3.22754 12.5209L3.23735 12.5049C3.28791 12.4221 3.33866 12.3424 3.38946 12.2655C3.35295 12.1791 3.25565 11.9122 3.38159 11.7778C3.50383 11.6515 3.48478 12.0016 3.47282 12.1419C3.49045 12.1163 3.50809 12.0911 3.52571 12.0661C3.50454 11.961 3.45137 11.6509 3.54328 11.5757C3.63873 11.4969 3.61828 11.8305 3.60793 11.9522C3.62839 11.9244 3.64882 11.897 3.66922 11.8701C3.65405 11.7678 3.61805 11.4658 3.71001 11.3989C3.80219 11.3347 3.77675 11.6266 3.76229 11.7501C3.78547 11.7209 3.80859 11.6922 3.83164 11.6641C3.82052 11.5613 3.80127 11.2798 3.91212 11.2018C4.02126 11.125 3.96548 11.4168 3.9388 11.5367C3.9644 11.507 3.98988 11.478 4.01523 11.4496C4.00854 11.3555 3.99977 11.0997 4.09402 11.03C4.12239 11.0103 4.13811 11.0213 4.14567 11.0491C4.15479 11.0378 4.17672 11.0341 4.20541 11.0353C4.2076 11.0223 4.21014 11.0095 4.21308 10.997C4.09141 10.9861 3.94895 10.9602 3.92099 10.8987C3.87552 10.8036 4.11417 10.8539 4.20245 10.8754C4.17524 10.8528 4.14756 10.8302 4.11943 10.8077C4.03693 10.8072 3.76666 10.8003 3.72394 10.7319C3.68396 10.66 3.91283 10.7019 4.01015 10.7225C3.98804 10.7057 3.96566 10.6889 3.94302 10.6722C3.86031 10.6747 3.58489 10.6769 3.54204 10.5955C3.50688 10.5212 3.72556 10.5649 3.82648 10.5884C3.80133 10.5708 3.77587 10.5533 3.7501 10.5359C3.62801 10.521 3.22552 10.4656 3.26415 10.3883C3.2965 10.3236 3.49768 10.397 3.61106 10.4448C3.57689 10.4231 3.5422 10.4016 3.507 10.3803L3.50881 10.3771C3.42047 10.3262 3.29442 10.2385 3.33489 10.1711C3.38622 10.096 3.50546 10.2772 3.5551 10.3599C3.57764 10.3717 3.60605 10.3868 3.63977 10.4055C3.57678 10.3259 3.47601 10.1869 3.55215 10.2014C3.64074 10.2168 3.74107 10.4025 3.78376 10.4899C3.80394 10.5023 3.82501 10.5156 3.84694 10.5297C3.7806 10.4266 3.67115 10.2414 3.75931 10.2671C3.85909 10.299 3.93996 10.5201 3.96953 10.6116C3.99014 10.6259 4.01129 10.6408 4.03293 10.6564C3.97783 10.5563 3.88607 10.37 3.98668 10.4035C4.09089 10.4356 4.14105 10.6584 4.15733 10.7492C4.18018 10.7668 4.20345 10.7851 4.22712 10.804C4.18503 10.6975 4.10602 10.4736 4.19889 10.5045C4.29488 10.5325 4.33071 10.7916 4.34148 10.8984C4.35564 10.9105 4.36991 10.9227 4.3843 10.9352C4.38663 10.9174 4.38958 10.8992 4.39329 10.8812C4.36072 10.7781 4.33926 10.6636 4.42121 10.7016C4.43567 10.7083 4.44844 10.718 4.45972 10.7299C4.47099 10.718 4.48377 10.7083 4.49823 10.7016C4.58018 10.6636 4.55871 10.7781 4.52614 10.8812C4.52986 10.8992 4.5328 10.9174 4.53513 10.9352C4.54952 10.9227 4.56379 10.9105 4.57795 10.8984C4.58872 10.7916 4.62456 10.5325 4.72054 10.5045C4.81341 10.4736 4.7344 10.6975 4.69231 10.804C4.71598 10.7851 4.73925 10.7668 4.7621 10.7492C4.77838 10.6584 4.82854 10.4356 4.93276 10.4035C5.03337 10.37 4.94161 10.5563 4.8865 10.6564C4.90815 10.6408 4.92929 10.6259 4.94991 10.6116C4.97948 10.5201 5.06034 10.299 5.16013 10.2671C5.24828 10.2414 5.13883 10.4266 5.0725 10.5297C5.09442 10.5156 5.1155 10.5023 5.13567 10.4899C5.17837 10.4025 5.2787 10.2168 5.36728 10.2014C5.44342 10.1869 5.34265 10.3259 5.27966 10.4055C5.31338 10.3868 5.3418 10.3717 5.36433 10.3599C5.41398 10.2772 5.53321 10.096 5.58455 10.1711ZM4.54346 11.0683C4.54343 11.056 4.5432 11.0418 4.54259 11.0262C4.55067 11.019 4.55879 11.0117 4.56696 11.0044C4.57398 11.0043 4.58172 11.0041 4.59005 11.0038C4.59225 11.0206 4.59492 11.0376 4.59782 11.0543C4.5794 11.0586 4.56102 11.0634 4.54346 11.0683ZM4.32939 11.0038C4.32718 11.0206 4.32451 11.0376 4.32161 11.0543C4.34003 11.0586 4.35841 11.0634 4.37597 11.0683C4.376 11.056 4.37624 11.0418 4.37684 11.0262C4.36876 11.019 4.36064 11.0117 4.35248 11.0044C4.34545 11.0043 4.33772 11.0041 4.32939 11.0038ZM4.19529 11.1253C4.17562 11.1146 4.16028 11.1031 4.15115 11.0907C4.15409 11.1608 4.13693 11.2666 4.12501 11.3301C4.14795 11.3057 4.17076 11.2819 4.19341 11.2587C4.19236 11.2276 4.19178 11.1787 4.19529 11.1253ZM4.45972 11.2654C4.43237 11.263 4.41194 11.2648 4.40506 11.2735C4.34996 11.2841 4.28661 11.3019 4.24511 11.3142C4.27429 11.2839 4.30425 11.2534 4.33502 11.2228C4.36408 11.2188 4.40919 11.2122 4.45971 11.2028C4.51024 11.2122 4.55536 11.2188 4.58442 11.2228C4.61518 11.2534 4.64515 11.2839 4.67433 11.3142C4.63282 11.3019 4.56947 11.2841 4.51437 11.2735C4.50749 11.2648 4.48707 11.263 4.45972 11.2654ZM4.79442 11.3301C4.7825 11.2666 4.76534 11.1608 4.76829 11.0907C4.75915 11.1031 4.74382 11.1146 4.72415 11.1253C4.72765 11.1787 4.72708 11.2276 4.72603 11.2587C4.74868 11.2819 4.77148 11.3057 4.79442 11.3301Z" fill="#FDCE12"/>
</g>
<defs>
<clipPath id="clip0_11930_68579">
<rect width="36" height="24" rx="2" fill="white"/>
</clipPath>
</defs>
</svg>
