<svg width="36" height="24" viewBox="0 0 36 24" fill="none" xmlns="http://www.w3.org/2000/svg">
<g clip-path="url(#clip0_11930_68567)">
<rect width="36" height="24" rx="2" fill="#CE1126"/>
<path fill-rule="evenodd" clip-rule="evenodd" d="M-0.00170898 -6.10352e-05H15.9983V11.9999H-0.00170898V-6.10352e-05Z" fill="#002B7F"/>
<path fill-rule="evenodd" clip-rule="evenodd" d="M8.99833 11.4648L7.96333 10.7648L6.96833 11.4698L7.29333 10.2248L6.34333 9.46484L7.56833 9.38984L7.97333 8.20984L8.41333 9.40984L9.61333 9.44484L8.66333 10.2598L8.99833 11.4648ZM8.81833 3.18484L7.98833 2.64984L7.18833 3.16984L7.40833 2.16984L6.67833 1.53484L7.64833 1.45484L8.00833 0.524841L8.37833 1.45984L9.33333 1.54484L8.59833 2.21484L8.81833 3.18484ZM5.16833 6.15984L4.36833 5.60984L3.53333 6.15984L3.79333 5.18984L3.03833 4.54984L3.99833 4.49984L4.34833 3.54984L4.68833 4.49484L5.66833 4.54984L4.91833 5.17484L5.16833 6.15984ZM12.4983 5.49984L11.7283 4.99984L10.9783 5.49984L11.1983 4.58484L10.4983 3.99484L11.4133 3.91984L11.7283 3.05984L12.0783 3.92984L12.9633 3.97984L12.2783 4.59484L12.4983 5.49984ZM10.3433 7.66984L9.82833 7.34984L9.31333 7.67984L9.44833 7.06484L8.98833 6.64984L9.58833 6.59984L9.81833 6.01984L10.0633 6.59984L10.6583 6.64984L10.2033 7.06484L10.3433 7.66984Z" fill="white"/>
</g>
<defs>
<clipPath id="clip0_11930_68567">
<rect width="36" height="24" rx="2" fill="white"/>
</clipPath>
</defs>
</svg>
