<svg width="36" height="24" viewBox="0 0 36 24" fill="none" xmlns="http://www.w3.org/2000/svg">
<rect width="36" height="24" rx="2" fill="#244AA5"/>
<path d="M14.6497 11.24C14.6497 11.24 14.7097 11.2 14.7297 11.195C14.7547 11.195 14.8297 11.165 14.8297 11.165C14.8297 11.165 14.8797 11.14 14.9047 11.14C14.9347 11.14 14.9847 11.17 15.0047 11.195C15.0197 11.22 15.1047 11.265 15.1047 11.265C15.1047 11.265 15.1647 11.285 15.1797 11.265C15.1897 11.245 15.2147 11.23 15.2447 11.23C15.2697 11.23 15.2747 11.205 15.2747 11.185C15.2747 11.165 15.2847 11.14 15.3047 11.115C15.3297 11.09 15.3697 11.075 15.3697 11.075C15.3697 11.075 15.4297 11.05 15.4347 11.015C15.4447 10.98 15.4997 10.955 15.5347 10.95C15.5697 10.95 15.5347 10.93 15.6247 10.94C15.7097 10.95 15.7247 10.92 15.7247 10.895C15.7297 10.87 15.7247 10.845 15.7797 10.845C15.8347 10.855 15.8597 10.855 15.8597 10.825C15.8597 10.795 15.9097 10.775 15.8247 10.755C15.7347 10.73 15.7447 10.75 15.7347 10.705C15.7347 10.67 15.7347 10.675 15.6797 10.67C15.6197 10.665 15.6497 10.635 15.6447 10.605C15.6397 10.575 15.6247 10.555 15.6147 10.54C15.5997 10.52 15.5697 10.52 15.5697 10.49C15.5697 10.46 15.5647 10.44 15.5347 10.44C15.4997 10.44 15.4847 10.44 15.4847 10.415C15.4847 10.385 15.4947 10.365 15.5247 10.365C15.5597 10.365 15.5747 10.335 15.5747 10.305C15.5647 10.275 15.5647 10.21 15.5647 10.21L15.6097 10.16C15.6097 10.16 15.7397 10.055 15.7497 10.035C15.7597 10.015 15.8047 9.99995 15.8247 10.04C15.8447 10.08 15.8547 10.09 15.8747 10.11C15.8897 10.13 15.9397 10.115 15.9497 10.095C15.9597 10.075 15.9647 9.99995 15.9947 9.95995C16.0247 9.92495 16.0447 9.90495 16.0497 9.86995C16.0547 9.83495 16.0747 9.80995 16.1097 9.80995C16.1397 9.80995 16.1597 9.76495 16.1597 9.73995C16.1597 9.71495 16.1797 9.68995 16.2197 9.67995C16.2597 9.67495 16.2847 9.64995 16.2997 9.68995C16.3147 9.72995 16.3297 9.72495 16.3547 9.73995C16.3847 9.75495 16.4247 9.76995 16.4447 9.75495C16.4697 9.73495 16.4797 9.70495 16.5097 9.71995C16.5397 9.73995 16.5597 9.71995 16.5697 9.68495L16.5847 9.58995C16.5847 9.58995 16.5897 9.56495 16.6397 9.56495C16.6897 9.56495 16.6547 9.53495 16.6797 9.51495C16.7097 9.49495 16.7097 9.47495 16.7447 9.48495C16.7797 9.49995 16.8347 9.46995 16.8097 9.43495C16.7797 9.40495 16.7197 9.35495 16.7547 9.31495C16.7897 9.27495 16.8047 9.21495 16.7697 9.20495C16.7347 9.19995 16.6797 9.20995 16.6747 9.17495C16.6697 9.13495 16.6547 9.10495 16.6997 9.09995C16.7397 9.09495 16.8097 9.09495 16.8347 9.07495C16.8547 9.05495 16.9247 9.03995 16.9247 8.98495C16.9247 8.92495 16.9447 8.91995 16.9547 8.88495C16.9597 8.85495 16.9597 8.78495 16.9297 8.75495C16.8997 8.71995 16.8597 8.67495 16.8547 8.65495C16.8447 8.63495 16.8197 8.60495 16.7747 8.58995C16.7347 8.57995 16.6947 8.56995 16.6947 8.53995C16.6947 8.50495 16.7247 8.54495 16.7247 8.45995C16.7247 8.37495 16.6697 8.35995 16.6697 8.35995L16.5847 8.30995C16.5847 8.30995 16.4347 8.26995 16.3947 8.26995C16.3547 8.26995 16.3047 8.22995 16.3497 8.19995C16.3997 8.17495 16.4097 8.12495 16.3947 8.08995C16.3747 8.05495 16.3647 8.02495 16.2997 8.00995C16.2347 7.99495 16.2197 7.97995 16.2497 7.93995C16.2747 7.90495 16.2847 7.87495 16.3197 7.90495C16.3497 7.92995 16.4097 7.93995 16.4547 7.91995C16.5047 7.89995 16.5197 7.87995 16.5447 7.90495C16.5647 7.92495 16.5947 7.94495 16.6297 7.91495C16.6647 7.87995 16.7297 7.87495 16.7597 7.88995C16.7847 7.90995 16.8597 7.90495 16.8797 7.88995C16.8997 7.87995 16.9497 7.83995 16.9497 7.82495C16.9497 7.80995 16.9797 7.76495 17.0047 7.74995C17.0347 7.72995 17.0697 7.67995 17.0997 7.67995C17.1297 7.67995 17.1397 7.64495 17.1397 7.62995C17.1397 7.60495 17.1647 7.55995 17.1697 7.54495C17.1697 7.52995 17.2297 7.50495 17.2697 7.54495C17.3147 7.56995 17.3697 7.58495 17.3697 7.58495C17.3697 7.58495 17.4197 7.59495 17.4547 7.58495C17.4705 7.57522 17.4887 7.57006 17.5072 7.57006C17.5258 7.57006 17.5439 7.57522 17.5597 7.58495C17.6047 7.61495 17.6597 7.61495 17.6597 7.61495L17.6747 7.54995C17.6747 7.52995 17.6847 7.48995 17.6597 7.47495C17.6397 7.45995 17.6097 7.43995 17.6547 7.40495C17.7047 7.37495 17.7047 7.37995 17.7497 7.37995L17.8597 7.38495C17.8947 7.38495 17.9497 7.41995 17.9497 7.44995C17.9497 7.47995 17.9747 7.49995 17.9997 7.51995C18.0297 7.53495 18.0647 7.54995 18.0497 7.57995C18.0447 7.60495 18.0447 7.62995 18.0797 7.61995C18.1147 7.61495 18.1247 7.63495 18.1247 7.66495C18.1247 7.68995 18.1347 7.70495 18.1747 7.71495C18.2047 7.72495 18.2247 7.74995 18.2247 7.77495C18.2247 7.79995 18.2147 7.81995 18.2247 7.84495L18.2747 7.91495C18.2747 7.91495 18.3397 7.98995 18.2547 7.94995C18.1747 7.91495 18.1547 7.89995 18.1297 7.89995L18.0797 7.92495L18.0147 7.93495C17.9847 7.93495 17.9547 7.99495 18.0047 8.00495C18.0497 8.01495 18.0647 8.02495 18.0647 8.06495C18.0647 8.10495 18.0497 8.08995 18.0247 8.11495C18.0047 8.14495 17.9847 8.12495 17.9447 8.12495C17.9047 8.12495 17.8947 8.15995 17.8947 8.18995C17.8947 8.21995 17.9097 8.21995 17.9247 8.23995C17.9447 8.26995 17.9747 8.27495 18.0047 8.24995C18.0297 8.22495 18.0547 8.20495 18.0697 8.25495C18.0897 8.30495 18.1147 8.30495 18.1447 8.30495C18.1797 8.30495 18.1947 8.30495 18.2247 8.28495C18.2497 8.26995 18.2847 8.28495 18.2897 8.32995C18.2997 8.36995 18.3247 8.37995 18.3547 8.39495C18.3847 8.40995 18.4047 8.41995 18.4047 8.44495C18.4147 8.47495 18.4297 8.48495 18.4597 8.46995C18.4897 8.44995 18.5347 8.43995 18.5547 8.46495L18.5997 8.52495V8.57995L18.7147 8.61995L18.7247 8.66995C18.7247 8.68495 18.7447 8.69995 18.7747 8.68995H18.8547C18.8547 8.68995 18.8947 8.67495 18.8947 8.63995C18.8947 8.60995 18.9097 8.59995 18.9447 8.59995C18.9697 8.59995 19.0347 8.62495 19.0497 8.58995C19.0697 8.55995 19.1197 8.54995 19.1597 8.56495L19.3097 8.62495C19.3097 8.62495 19.2947 8.62495 19.3297 8.67995C19.3647 8.73495 19.4297 8.73495 19.4297 8.73495C19.4297 8.73495 19.4297 8.78495 19.4447 8.80495C19.4547 8.82495 19.5097 8.83495 19.5347 8.81495C19.5647 8.79495 19.6047 8.76495 19.6397 8.76495C19.6747 8.76495 19.6997 8.76495 19.6997 8.74495C19.6997 8.72495 19.6647 8.70995 19.6647 8.67495C19.6647 8.63995 19.6997 8.64495 19.7047 8.60995C19.7097 8.57995 19.7447 8.60995 19.7697 8.62995C19.7947 8.64995 19.8197 8.66995 19.8197 8.68995C19.8197 8.71495 19.8697 8.78995 19.8947 8.79995C19.9247 8.80995 19.9997 8.81495 20.0247 8.78995C20.0447 8.75995 20.1047 8.74995 20.0997 8.81495C20.0947 8.87995 20.0797 8.88495 20.1197 8.90495C20.1597 8.92495 20.1697 9.00495 20.1347 9.02495C20.0997 9.04495 20.0847 9.04995 20.0847 9.08495C20.0847 9.11995 20.0747 9.16495 20.1047 9.18495C20.1347 9.20995 20.1547 9.22495 20.1547 9.24495C20.1547 9.26995 20.1847 9.36495 20.1847 9.36495C20.1847 9.36495 20.2047 9.45995 20.1947 9.47995C20.1947 9.50495 20.1797 9.53995 20.2297 9.53495C20.2797 9.52995 20.2947 9.52995 20.2947 9.56995C20.2947 9.60995 20.3147 9.62995 20.2847 9.64495C20.2547 9.66495 20.2347 9.71495 20.2647 9.72495C20.2947 9.73495 20.3147 9.75495 20.3247 9.77495C20.3297 9.79495 20.3747 9.83495 20.4047 9.80995C20.4347 9.78995 20.4397 9.77995 20.4647 9.77495C20.4847 9.76995 20.5047 9.75495 20.4797 9.72495C20.4597 9.69995 20.4497 9.67495 20.4747 9.65495C20.4997 9.63995 20.5097 9.58995 20.5097 9.58995C20.5097 9.58995 20.5447 9.53995 20.5847 9.58995C20.6247 9.63995 20.6347 9.61995 20.6597 9.61995C20.6847 9.61995 20.6997 9.64495 20.6997 9.66995C20.6997 9.69995 20.7597 9.69495 20.7597 9.73495L20.7697 9.88495C20.7697 9.88495 20.7697 9.93995 20.8047 9.95995C20.8397 9.98495 20.8347 9.98995 20.8147 10.01C20.7997 10.04 20.8047 10.085 20.8047 10.11C20.8047 10.135 20.8147 10.135 20.7897 10.16C20.7597 10.18 20.7447 10.21 20.7647 10.24C20.7797 10.27 20.7747 10.29 20.8197 10.33C20.8697 10.365 20.8647 10.38 20.8647 10.41C20.8647 10.435 20.9097 10.475 20.9097 10.5C20.9097 10.525 20.9447 10.56 20.9747 10.565C21.0047 10.57 21.0347 10.615 21.0347 10.645L21.0397 10.74C21.0397 10.74 21.0397 10.755 21.0697 10.755C21.1047 10.755 21.1297 10.795 21.1397 10.755C21.1497 10.705 21.1897 10.705 21.2097 10.69C21.2297 10.675 21.2797 10.66 21.3047 10.675C21.3297 10.69 21.3547 10.69 21.3797 10.69L21.5097 10.695C21.5097 10.695 21.5397 10.695 21.5597 10.735C21.5747 10.775 21.6247 10.825 21.5997 10.845C21.5697 10.87 21.5697 10.91 21.5997 10.91C21.6297 10.91 21.6747 10.91 21.6747 10.935C21.6747 10.965 21.6747 10.985 21.7097 10.97C21.7347 10.955 21.7547 10.95 21.7647 10.97C21.7797 10.99 21.7997 10.99 21.8297 11.005C21.8597 11.025 21.8697 11.01 21.8897 10.99C21.9047 10.97 21.9747 10.95 21.9747 10.95C21.9747 10.95 22.0647 10.925 22.0997 10.935L22.1847 10.97C22.1847 10.97 22.2047 11.02 22.1947 11.055C22.1847 11.085 22.1697 11.08 22.1847 11.13C22.1947 11.18 22.1697 11.18 22.1497 11.18C22.1247 11.17 22.0997 11.17 22.0997 11.215C22.0997 11.255 22.0797 11.265 22.0797 11.305C22.0797 11.345 22.0797 11.335 22.0547 11.355C22.0347 11.37 22.0247 11.395 22.0597 11.405C22.0947 11.405 22.0847 11.445 22.0847 11.465L22.0797 11.535C22.0797 11.535 22.0797 11.56 22.0447 11.56C22.0097 11.56 21.9697 11.56 21.9647 11.585C21.9547 11.61 21.9147 11.65 21.9497 11.68C21.9897 11.705 21.9797 11.72 21.9547 11.73C21.9347 11.745 21.9147 11.795 21.9647 11.81C22.0097 11.83 22.0047 11.845 21.9747 11.865C21.9447 11.885 21.8897 11.905 21.8897 11.935C21.8897 11.965 21.8747 11.965 21.8397 11.97C21.8047 11.975 21.7897 12.02 21.8297 12.07C21.8697 12.125 21.8797 12.12 21.9097 12.12C21.9397 12.12 21.9397 12.07 21.9397 12.07L22.0647 12.08C22.0947 12.08 22.1347 12.08 22.1597 12.065C22.1847 12.045 22.2447 12.02 22.2447 12.065C22.2447 12.115 22.2597 12.115 22.2847 12.13C22.3147 12.155 22.3197 12.135 22.3447 12.17C22.3697 12.2 22.3747 12.17 22.3947 12.135C22.4097 12.1 22.4447 12.065 22.4747 12.105C22.4997 12.15 22.4997 12.135 22.5347 12.135C22.5697 12.135 22.5847 12.155 22.5847 12.18C22.5847 12.205 22.6147 12.205 22.6597 12.2C22.6997 12.2 22.7047 12.225 22.7197 12.25C22.7347 12.275 22.7447 12.27 22.7697 12.27C22.7897 12.27 22.8147 12.27 22.8297 12.25C22.8497 12.23 22.8697 12.2 22.8947 12.235C22.9197 12.265 22.9647 12.26 22.9747 12.225C22.9897 12.185 23.0397 12.155 23.0697 12.195C23.0997 12.24 23.1197 12.24 23.1497 12.245C23.1797 12.245 23.2197 12.245 23.2347 12.275C23.2547 12.305 23.3097 12.345 23.2697 12.375C23.2297 12.41 23.1847 12.45 23.2197 12.465C23.2511 12.4726 23.2791 12.4901 23.2997 12.515C23.3247 12.535 23.3997 12.55 23.4347 12.555C23.4697 12.555 23.4947 12.565 23.5347 12.53C23.5797 12.5 23.6197 12.5 23.6147 12.545C23.6097 12.5849 23.6297 12.635 23.6297 12.635C23.6297 12.635 23.6597 12.705 23.6597 12.73C23.6597 12.755 23.6547 12.76 23.7097 12.795C23.7597 12.825 23.7497 12.8449 23.7947 12.8149C23.8347 12.7849 23.8447 12.765 23.8447 12.74V12.655C23.8447 12.655 23.9047 12.645 23.9247 12.63C23.9497 12.61 24.0397 12.565 24.0647 12.585C24.0897 12.605 24.1147 12.6 24.1397 12.59C24.1647 12.58 24.2097 12.58 24.2347 12.58C24.2547 12.58 24.2947 12.585 24.3447 12.55C24.3897 12.51 24.3897 12.52 24.4197 12.55C24.4447 12.575 24.4447 12.605 24.4297 12.63C24.4097 12.65 24.4297 12.695 24.4697 12.695C24.5097 12.695 24.5197 12.72 24.5197 12.745L24.5347 12.83C24.5347 12.85 24.5347 12.865 24.6047 12.88C24.6647 12.895 24.6547 12.93 24.6647 12.96C24.6797 12.985 24.6797 13.01 24.6447 13.01C24.6097 13.01 24.5947 13.025 24.5947 13.05C24.5847 13.075 24.5347 13.085 24.5347 13.085L24.4847 13.075C24.4847 13.075 24.4447 13.075 24.4297 13.095C24.4097 13.12 24.3797 13.16 24.3997 13.195C24.4247 13.235 24.4247 13.255 24.3997 13.275C24.3797 13.29 24.3647 13.37 24.3447 13.355C24.3197 13.335 24.2947 13.3549 24.2697 13.37C24.2447 13.38 24.2497 13.455 24.2947 13.48C24.3447 13.51 24.3547 13.545 24.3547 13.545L24.4047 13.625C24.4047 13.625 24.3897 13.64 24.3797 13.67C24.3647 13.695 24.3297 13.75 24.3647 13.76C24.3997 13.77 24.3847 13.83 24.3497 13.83C24.3147 13.83 24.2747 13.81 24.2697 13.855C24.2647 13.9 24.2447 13.885 24.2097 13.88C24.1747 13.88 24.0897 13.855 24.0647 13.895C24.0397 13.94 24.0347 13.955 23.9947 13.95C23.9547 13.95 23.9697 14.015 23.9847 14.04L24.0347 14.105C24.0347 14.105 24.0697 14.13 24.0697 14.185C24.0697 14.235 24.0447 14.235 24.0197 14.195C23.9997 14.16 23.9547 14.165 23.9497 14.205C23.9447 14.25 23.9347 14.3149 23.8997 14.3149C23.8547 14.3149 23.8397 14.325 23.8197 14.345C23.8047 14.365 23.7747 14.405 23.7747 14.425C23.7747 14.445 23.7697 14.47 23.7397 14.475C23.7097 14.48 23.7047 14.535 23.7047 14.535C23.7047 14.535 23.6347 14.55 23.6297 14.575C23.6247 14.6 23.6347 14.645 23.5797 14.65C23.5573 14.6526 23.5358 14.6603 23.5167 14.6724C23.4977 14.6845 23.4816 14.7008 23.4697 14.72C23.4497 14.745 23.4447 14.77 23.4697 14.795C23.4947 14.82 23.5097 14.905 23.5397 14.92C23.5647 14.935 23.5897 14.945 23.5847 14.985C23.5797 15.03 23.5447 15.06 23.5897 15.06C23.6397 15.06 23.6647 15.07 23.6497 15.11C23.6297 15.145 23.6297 15.15 23.5997 15.1649C23.5597 15.1849 23.5447 15.185 23.5447 15.225C23.5447 15.265 23.5547 15.27 23.5247 15.285C23.4947 15.3 23.4947 15.32 23.4947 15.355C23.4947 15.39 23.4847 15.375 23.4497 15.41C23.4147 15.45 23.3697 15.45 23.3397 15.4399C23.3097 15.4299 23.3047 15.43 23.2997 15.3949C23.2947 15.365 23.2447 15.365 23.2147 15.37C23.1847 15.37 23.1447 15.405 23.1447 15.405C23.1447 15.405 23.0947 15.4399 23.1147 15.4649C23.1397 15.49 23.1247 15.535 23.0847 15.53C23.0447 15.525 22.9547 15.57 22.9247 15.525C22.8947 15.475 22.8147 15.445 22.7997 15.51C22.7897 15.57 22.8347 15.565 22.8297 15.63C22.8297 15.695 22.8147 15.695 22.7897 15.7149C22.7697 15.735 22.7697 15.755 22.7597 15.78C22.7597 15.805 22.7497 15.865 22.7897 15.885C22.8297 15.91 22.8497 15.965 22.8497 16C22.8497 16.03 22.8497 16.0649 22.8897 16.0649C22.9297 16.0649 22.9647 16.055 22.9697 16.0199C22.9747 15.985 23.0547 15.96 23.0647 16.035C23.0647 16.11 23.0647 16.15 23.0997 16.18C23.1247 16.21 23.1497 16.255 23.1747 16.2699C23.1947 16.285 23.2347 16.42 23.2347 16.42C23.1797 16.4349 23.1647 16.51 23.1297 16.5199C23.1097 16.53 23.0847 16.52 23.0647 16.535C23.0547 16.55 23.0547 16.57 23.0347 16.575C22.9897 16.595 22.9997 16.53 22.9447 16.555C22.8997 16.575 22.8947 16.63 22.8297 16.605C22.7947 16.595 22.7747 16.455 22.7647 16.425L22.7097 16.335C22.6697 16.275 22.5947 16.335 22.5697 16.3149C22.5297 16.29 22.5447 16.245 22.4847 16.24C22.3647 16.2299 22.4497 16.315 22.3997 16.33C22.2997 16.365 22.2997 16.24 22.2297 16.3C22.2047 16.32 22.2797 16.335 22.2597 16.37C22.2447 16.4 22.1747 16.45 22.1747 16.485C22.1847 16.535 22.2347 16.55 22.2497 16.585C22.2997 16.7 22.2247 16.775 22.1147 16.685C22.0547 16.64 22.0397 16.55 21.9497 16.56C21.9247 16.56 21.9197 16.58 21.8997 16.585C21.8747 16.585 21.8597 16.5649 21.8347 16.57C21.7997 16.585 21.8347 16.61 21.8247 16.63C21.8247 16.63 21.7747 16.665 21.7747 16.68C21.7447 16.71 21.7547 16.74 21.7147 16.7699C21.6847 16.795 21.6597 16.78 21.6247 16.82C21.5897 16.8549 21.5847 16.915 21.5397 16.95C21.5147 16.97 21.4997 16.8949 21.4697 16.945L21.4597 16.9649C21.4497 16.9799 21.4497 16.985 21.4597 17C21.5197 17.12 21.3897 17.16 21.3497 17.245C21.3347 17.28 21.3797 17.3099 21.3647 17.3399L21.2897 17.425C21.2897 17.435 21.2797 17.465 21.2697 17.475C21.2597 17.485 21.2197 17.4749 21.2197 17.495C21.2197 17.5149 21.2597 17.53 21.2697 17.54C21.2797 17.5549 21.2597 17.575 21.2697 17.58C21.3297 17.645 21.2947 17.625 21.3247 17.68C21.3297 17.69 21.3497 17.675 21.3597 17.695C21.3647 17.715 21.3397 17.715 21.3497 17.735C21.3497 17.745 21.3997 17.805 21.3997 17.805C21.3997 17.825 21.3097 17.865 21.2897 17.865C21.2347 17.865 21.3397 17.755 21.2497 17.755C21.2097 17.755 21.2047 17.84 21.1997 17.855H21.1497C21.0897 17.855 21.0497 17.925 21.0297 17.93C21.0147 17.935 20.9797 17.92 20.9547 17.93C20.9347 17.93 20.9047 17.955 20.8847 17.955C20.8697 17.955 20.8647 17.945 20.8497 17.935C20.8247 17.92 20.7747 17.915 20.7497 17.905C20.7297 17.905 20.6997 17.925 20.6897 17.92C20.6747 17.91 20.7047 17.87 20.6597 17.85L20.6247 17.7649C20.6397 17.7149 20.6547 17.665 20.6497 17.61C20.6397 17.555 20.5497 17.51 20.5297 17.46C20.5147 17.43 20.4997 17.34 20.4647 17.32C20.4266 17.2907 20.3958 17.2531 20.3747 17.21C20.3747 17.2 20.3897 17.18 20.3747 17.16C20.3597 17.145 20.3347 17.135 20.3247 17.11C20.3197 17.09 20.3247 17.02 20.2997 17.005C20.2747 16.99 20.0997 16.965 20.0497 16.96C20.0297 16.96 20.0147 16.96 19.9997 16.945L19.9697 16.91L19.9197 16.92C19.9047 16.92 19.8797 16.91 19.8697 16.92C19.8147 16.955 19.7997 17.005 19.7447 17.05C19.6897 17.09 19.6297 17.09 19.5747 17.135C19.5397 17.165 19.5147 17.24 19.4797 17.275C19.4647 17.29 19.4447 17.275 19.4397 17.28C19.4097 17.315 19.3697 17.34 19.3397 17.37C19.3347 17.38 19.3397 17.3899 19.3297 17.3949L19.2647 17.415H19.2047C19.1797 17.4249 19.1797 17.455 19.0797 17.475L19.0547 17.49L19.0247 17.5149H18.9797C18.9547 17.5149 18.9397 17.54 18.9197 17.54C18.8697 17.5499 18.7797 17.515 18.7397 17.535C18.7147 17.54 18.6497 17.62 18.6247 17.625C18.6097 17.63 18.5947 17.625 18.5747 17.62L18.5447 17.73L18.4247 17.835C18.4097 17.85 18.4047 17.87 18.3847 17.885C18.3747 17.9 18.3547 17.91 18.3347 17.91C18.3147 17.91 18.2797 17.8899 18.2547 17.8899C18.2147 17.8799 18.0897 17.875 18.0547 17.885C18.0097 17.89 18.0247 18.0049 17.9247 18.0149L17.7597 18.035C17.7547 18.035 17.7197 18.0149 17.6847 18.0199C17.6697 18.025 17.6297 18.07 17.6297 18.08V18.105L17.6397 18.125C17.6197 18.15 17.5697 18.19 17.5547 18.225L17.5347 18.245C17.5247 18.255 17.4547 18.28 17.4497 18.29C17.4347 18.33 17.4997 18.37 17.4897 18.385C17.4747 18.435 17.4047 18.485 17.3797 18.535C17.3747 18.555 17.4047 18.62 17.4047 18.6399C17.3947 18.705 17.3747 18.785 17.3797 18.8449L17.3897 18.93L17.4247 18.955L17.5147 19.135C17.5297 19.245 17.3647 19.2049 17.4647 19.3149C17.4747 19.3349 17.4847 19.3499 17.5047 19.365L17.6447 19.48C17.6447 19.5 17.5447 19.515 17.5297 19.53C17.4797 19.58 17.4447 19.66 17.3997 19.71C17.3697 19.735 17.3497 19.705 17.3097 19.775C17.2997 19.8 17.3097 19.8549 17.2947 19.875C17.2697 19.895 17.2547 19.865 17.2297 19.875C17.2197 19.875 17.2147 19.91 17.2047 19.9149C17.1797 19.9399 16.9447 20.0649 16.9247 20.05C16.9147 20.045 16.8997 20.005 16.8997 19.995C16.8997 19.9799 16.8797 19.95 16.8697 19.945C16.8097 19.8949 16.7197 19.88 16.6597 19.945C16.6447 19.96 16.6447 19.985 16.6247 19.995L16.5247 20.075L16.4997 20.1C16.4747 20.1 16.4197 20.035 16.3997 20.0149C16.3797 19.985 16.2997 19.915 16.2947 19.88C16.2947 19.76 16.1997 19.6349 16.1647 19.5199H16.2197C16.2847 19.4749 16.2697 19.37 16.3847 19.41C16.3997 19.39 16.3997 19.37 16.4247 19.36C16.4347 19.35 16.4547 19.345 16.4597 19.335C16.4997 19.275 16.5447 19.045 16.5047 18.985C16.4697 18.935 16.4297 18.935 16.4047 18.85C16.3947 18.825 16.4047 18.8 16.4047 18.7699L16.3547 18.615C16.3447 18.5999 16.3197 18.59 16.3197 18.58L16.3097 18.425C16.2747 18.315 16.1397 18.25 16.1347 18.235L16.0847 18.15C16.0647 18.115 16.0647 18.0999 16.0547 18.07C16.0497 18.0549 16.0247 18.04 16.0247 18.025C16.0247 17.995 16.1047 17.9399 16.0997 17.8899C16.0997 17.875 16.0497 17.825 16.0597 17.8C16.0697 17.77 16.1197 17.71 16.1197 17.675C16.1197 17.635 16.0397 17.545 16.0297 17.505C16.0247 17.48 16.0597 17.465 16.0497 17.45C16.0397 17.43 15.9597 17.355 15.9497 17.335C15.9347 17.32 15.9747 17.3 15.9497 17.2699C15.9197 17.245 15.9447 17.25 15.9347 17.23C15.9247 17.205 15.8997 17.18 15.8847 17.155C15.8747 17.13 15.8047 16.8799 15.8097 16.865C15.7947 16.8499 15.7747 16.835 15.7647 16.8149L15.7447 16.755C15.7447 16.755 15.6647 16.73 15.6497 16.705C15.6397 16.69 15.6347 16.625 15.6147 16.595C15.6047 16.58 15.5897 16.585 15.5797 16.575C15.5697 16.565 15.5697 16.5499 15.5647 16.54C15.5397 16.5099 15.4947 16.54 15.4647 16.42C15.4147 16.39 15.3797 16.37 15.3447 16.33L15.3247 16.31C15.2947 16.3 15.2497 16.295 15.2247 16.275C15.2097 16.275 15.1347 16.275 15.1247 16.2649L15.1047 16.225C15.0647 16.22 14.9947 16.225 14.9597 16.195C14.9347 16.17 14.9297 16.055 14.8797 16.07C14.8732 16.068 14.8662 16.068 14.8597 16.07C14.8247 16.0199 14.7147 16.0199 14.6697 15.99C14.6597 15.985 14.6197 15.99 14.6197 15.98L14.6247 15.915L14.5697 15.845C14.5247 15.835 14.5397 15.83 14.5197 15.8149C14.4447 15.8149 14.4347 15.825 14.3897 15.865C14.3797 15.875 14.3547 15.88 14.3397 15.885C14.3147 15.9 14.3097 15.945 14.2747 15.925L14.2447 15.9C14.2247 15.88 14.2147 15.89 14.2047 15.86C14.1447 15.825 13.9797 15.935 13.9447 15.86C13.9147 15.845 13.8947 15.86 13.8697 15.8399C13.8597 15.83 13.9047 15.6899 13.7847 15.6399L13.8647 15.585C13.8747 15.57 13.8647 15.545 13.8647 15.535C13.8647 15.51 13.8797 15.465 13.8747 15.45C13.8747 15.435 13.8547 15.42 13.8497 15.4C13.8397 15.385 13.8497 15.36 13.8397 15.34L13.7997 15.32C13.7697 15.295 13.7397 15.28 13.7147 15.25L13.6947 15.225C13.6747 15.21 13.6047 15.185 13.6047 15.155C13.6047 15.145 13.6247 15.14 13.6247 15.13C13.6297 15.115 13.6247 15.1 13.6397 15.09C13.6697 15.0399 13.7447 15.065 13.7347 14.98C13.7297 14.94 13.6997 14.91 13.6947 14.87C13.6797 14.86 13.6797 14.845 13.6697 14.835C13.5947 14.83 13.6047 14.755 13.5797 14.735C13.5047 14.685 13.4447 14.715 13.5297 14.615C13.5397 14.58 13.4547 14.525 13.4397 14.51C13.4097 14.48 13.4247 14.415 13.4097 14.385C13.4097 14.37 13.3547 14.34 13.3397 14.32L13.3147 14.27V14.265C13.3297 14.2499 13.3247 14.225 13.3147 14.215C13.3097 14.2 13.2847 14.205 13.2797 14.195C13.2097 14.135 13.1297 14.105 13.0347 14.07C13.0097 14.06 13.0197 14.04 12.9947 14.03L12.8447 13.97C12.8347 13.97 12.8247 13.915 12.8147 13.895L12.7697 13.845C12.7697 13.795 12.7397 13.795 12.6997 13.7649V13.735L12.7297 13.63C12.7347 13.61 12.7597 13.59 12.7547 13.57L12.7347 13.455C12.6947 13.355 12.6497 13.365 12.6747 13.23C12.6747 13.2 12.6697 13.185 12.6897 13.16L12.6997 13.1449L12.7597 13.1C12.7797 13.07 12.7947 13.005 12.8197 12.985L12.9097 12.925C12.9197 12.915 12.9297 12.88 12.9247 12.8649C12.9047 12.8549 12.8847 12.86 12.8647 12.855C12.8547 12.855 12.8297 12.835 12.8097 12.835C12.8047 12.825 12.7947 12.82 12.7947 12.81L12.7847 12.8C12.7597 12.8 12.7347 12.785 12.7147 12.775C12.6897 12.765 12.6547 12.765 12.6297 12.75C12.5797 12.725 12.5297 12.65 12.4847 12.64C12.4247 12.625 12.3847 12.645 12.3247 12.65C12.2897 12.65 12.2897 12.63 12.2597 12.62C12.2197 12.6049 12.2497 12.64 12.1597 12.61C12.1447 12.6 12.1597 12.57 12.1597 12.56H12.1097C12.0397 12.54 12.0647 12.47 12.0447 12.425C12.0397 12.415 12.0047 12.415 11.9947 12.415C11.9847 12.415 11.9847 12.405 11.9847 12.405L11.9947 12.4C12.0047 12.38 11.9597 12.33 11.9597 12.32C11.9647 12.305 12.0597 12.29 12.0697 12.29C12.0747 12.275 12.0647 12.265 12.0597 12.255C12.0597 12.23 12.0747 12.195 12.0847 12.17V12.16C12.0547 12.145 12.0497 12.125 12.0247 12.11C12.0247 12.095 12.0397 12.09 12.0447 12.075C12.0897 11.95 12.1597 12.05 12.2197 11.935C12.2247 11.925 12.2447 11.9 12.2497 11.88H12.2597C12.2697 11.88 12.2897 11.89 12.2997 11.88C12.3097 11.87 12.3247 11.87 12.3397 11.865H12.3647C12.4747 11.845 12.4497 11.805 12.5147 11.76C12.5347 11.745 12.5847 11.74 12.6047 11.73C12.6297 11.745 12.6647 11.78 12.7097 11.8C12.7447 11.81 12.8597 11.835 12.8797 11.85C12.9047 11.86 12.9097 11.89 12.9297 11.9C12.9947 11.94 12.9547 11.88 13.0197 11.89C13.0847 11.905 13.1347 11.96 13.1947 11.985L13.2447 11.98C13.2597 11.975 13.3597 11.955 13.3697 11.96L13.4097 11.975C13.4247 11.98 13.4347 11.95 13.4497 11.95C13.4897 11.96 13.4897 11.975 13.5497 11.97C13.5497 11.97 13.5797 11.805 13.6097 11.8C13.6247 11.795 13.6697 11.835 13.6797 11.84C13.6997 11.845 13.6797 11.805 13.6797 11.805C13.6697 11.79 13.6397 11.69 13.6447 11.68C13.6447 11.68 13.6697 11.69 13.6847 11.685C13.7147 11.675 13.7597 11.665 13.7847 11.64L13.8347 11.565C13.8397 11.555 13.8247 11.525 13.8347 11.515L13.8797 11.485C13.8997 11.465 13.8997 11.435 13.9297 11.42C14.0297 11.41 14.0647 11.33 14.1597 11.32H14.1897L14.2097 11.35C14.2097 11.355 14.2747 11.395 14.2847 11.39C14.2947 11.39 14.2997 11.375 14.3097 11.37C14.3247 11.375 14.3797 11.345 14.3847 11.325C14.3847 11.325 14.3747 11.31 14.3797 11.295C14.4047 11.2728 14.4314 11.2527 14.4597 11.235H14.5297C14.5397 11.245 14.5397 11.265 14.5547 11.265H14.6147C14.6247 11.265 14.6297 11.24 14.6497 11.24Z" fill="#D0A650"/>
<path d="M19.5944 3.66992L20.3994 6.14992L18.2894 4.61492H20.8994L18.7894 6.14992L19.5944 3.66992ZM22.7344 4.22492L23.5344 6.70492L21.4294 5.16992H24.0344L21.9244 6.70492L22.7344 4.22492ZM25.7294 5.31492L26.5294 7.79492L24.4244 6.25992H27.0294L24.9194 7.79992L25.7294 5.31992V5.31492ZM16.4044 3.66992L15.5994 6.14992L17.7094 4.61492H15.0994L17.2094 6.14992L16.4044 3.66992ZM13.2644 4.22492L12.4644 6.70492L14.5694 5.16992H11.9644L14.0744 6.70492L13.2644 4.22492ZM10.2844 5.31492L11.0944 7.79492L8.98438 6.25992H11.5894L9.47938 7.79492L10.2844 5.31492Z" fill="white"/>
</svg>
