<svg width="36" height="24" viewBox="0 0 36 24" fill="none" xmlns="http://www.w3.org/2000/svg">
<g clip-path="url(#clip0_11930_68564)">
<path fill-rule="evenodd" clip-rule="evenodd" d="M-0.00390625 -6.10352e-05H35.9961V23.9999H-0.00390625V-6.10352e-05Z" fill="#198A00"/>
<path fill-rule="evenodd" clip-rule="evenodd" d="M31.7725 8.62494H35.9959V23.9999H31.7725V8.62494Z" fill="#EF7D00"/>
<path fill-rule="evenodd" clip-rule="evenodd" d="M27.5537 8.61566H31.7725V23.9907H27.5537V8.61566Z" fill="#000001"/>
<path fill-rule="evenodd" clip-rule="evenodd" d="M23.2459 8.62494H27.5537V23.9999H23.2412L23.2459 8.62494Z" fill="#DE2010"/>
<path fill-rule="evenodd" clip-rule="evenodd" d="M33.1672 3.07513C33.1672 3.07513 34.7609 2.39545 34.9109 2.25482C34.9813 2.3392 34.2734 3.19232 32.9 3.50638C34.1469 3.21576 35.2109 2.28763 35.4313 2.31576C35.4922 2.32982 35.4781 3.22045 32.6188 3.99388C34.5969 3.47826 35.7453 2.52201 35.7313 2.62513C35.7453 2.64857 35.5344 3.37513 33.8047 3.94232C34.2875 3.82982 35.6 3.03295 35.5859 3.18763C35.6281 3.24857 34.3203 4.93138 31.9484 4.38295C33.8422 4.87513 35.0656 3.6892 35.2391 3.71263C35.2766 3.71732 34.8922 4.74388 32.5109 4.80951C33.65 4.69232 33.3219 4.80482 33.3219 4.80482C33.3219 4.80482 32.6516 5.32982 31.8359 4.97357C32.4734 5.14701 32.5438 5.15638 32.5578 5.20795C32.5156 5.28295 31.9953 5.38607 31.4844 5.1142C31.8922 5.28295 32.2578 5.31107 32.2625 5.37201C32.2578 5.39076 32 5.54076 31.7656 5.43295C31.5359 5.32982 29.4078 4.02201 29.4078 4.02201L33.0359 3.02357L33.1672 3.07045V3.07513ZM28.9016 6.61888C28.5828 6.61888 28.5734 6.90013 28.5734 6.90013C28.5734 6.90013 28.55 6.92357 28.5641 7.05951L28.6438 6.93763C28.6813 6.94232 28.8266 6.98451 29.0563 6.80638C28.8453 7.0267 28.9719 7.10638 28.9719 7.10638C28.9719 7.10638 28.925 7.27982 29.0844 7.31263C29.0375 7.24232 29.0656 7.18138 29.0656 7.18138C29.0656 7.18138 29.2906 7.15795 29.2766 6.88607C29.2813 7.13451 29.4172 7.19545 29.4172 7.19545C29.4172 7.19545 29.4172 7.33138 29.5625 7.34545C29.4875 7.27513 29.5016 7.16732 29.5016 7.16732C29.5016 7.16732 29.6891 7.0267 29.5344 6.79232C29.6281 6.73607 29.7078 6.58138 29.7078 6.58138C29.7078 6.58138 29.5766 6.52513 29.5156 6.47826C29.4875 6.41732 29.5156 6.07982 29.5156 6.07982L29.4313 5.64388L29.2063 6.32357C29.2156 6.22982 29.2203 6.61888 28.9016 6.61888Z" fill="#EF7D00" stroke="black" stroke-width="0.046875" stroke-linejoin="round"/>
<path fill-rule="evenodd" clip-rule="evenodd" d="M30.4771 5.639C30.4865 5.64369 30.7162 5.9015 30.9412 5.88744C31.0256 5.81713 30.7678 5.66713 30.7678 5.62963C30.8615 5.714 31.2412 6.04213 31.4896 5.92494C31.5834 5.78431 31.3115 5.80775 31.0115 5.42806C31.2225 5.56869 31.7475 5.87338 31.9959 5.75619C32.0943 5.64369 31.4475 5.29213 31.2271 5.02025L30.6646 4.73431L29.9053 5.35775L30.4818 5.639H30.4771Z" fill="#EF7D00" stroke="black" stroke-width="0.046875" stroke-linejoin="round"/>
<path fill-rule="evenodd" clip-rule="evenodd" d="M29.6191 3.50622C29.6191 3.50622 29.877 3.35622 30.9129 3.43122C31.0254 3.44528 31.616 3.22966 31.8082 3.16403C32.1082 3.10778 33.0738 2.90153 33.327 2.70466C33.5145 2.68122 33.2801 3.03747 33.0457 3.12653C32.802 3.23434 31.916 3.54372 31.5973 3.50153C31.977 3.50622 31.766 3.81559 31.1379 3.67028C31.4379 3.83903 31.3254 3.86716 31.3254 3.86716C31.3254 3.86716 30.7957 3.89528 30.6551 3.77341C31.0113 3.90934 30.8613 3.96091 30.8613 3.96091C30.8613 3.96091 30.5004 3.99372 30.3316 3.91403C30.5895 3.99372 30.4582 4.04059 30.4582 4.04059C30.4582 4.04059 30.2473 4.07809 30.0738 4.01247C29.8957 3.95153 29.6332 3.51091 29.6191 3.51091V3.50622Z" fill="#EF7D00" stroke="black" stroke-width="0.046875" stroke-linecap="round" stroke-linejoin="round"/>
<path fill-rule="evenodd" clip-rule="evenodd" d="M30.0318 5.78436L30.0693 6.46874L30.0318 6.52499C30.0178 6.54374 29.549 6.44999 29.61 6.80624C29.61 6.95624 29.61 6.99374 29.7131 7.07342C29.6896 6.97967 29.6943 6.90936 29.6943 6.90936C29.6943 6.90936 29.8303 6.98905 29.9568 6.76874C29.8678 6.98436 29.9287 7.06405 29.9521 7.06874C29.9709 7.10624 29.9146 7.27968 30.0928 7.27499C30.0225 7.20936 30.0553 7.11561 30.0553 7.11561C30.0553 7.11561 30.2428 7.08749 30.1771 6.75468C30.2428 6.68905 30.2709 6.75468 30.2709 6.75468C30.2709 6.75468 30.2896 6.95155 30.4537 6.90936C30.524 6.95155 30.4396 7.05936 30.4396 7.05936C30.4396 7.05936 30.5568 7.05936 30.5943 6.96561C30.6271 6.86249 30.6693 6.68436 30.4771 6.60936C30.4537 6.53905 30.5521 6.53436 30.5521 6.53436C30.5521 6.53436 30.674 6.57655 30.7115 6.63749C30.749 6.69843 30.735 6.47811 30.5803 6.44999C30.3928 6.44999 30.3834 6.4078 30.3834 6.40311L30.3365 5.76093L30.0318 5.78436Z" fill="#EF7D00" stroke="black" stroke-width="0.046875" stroke-linejoin="round"/>
<path fill-rule="evenodd" clip-rule="evenodd" d="M30.6831 6.36567C30.6831 6.33286 30.3643 5.90161 30.4487 5.85005C30.5284 5.86411 30.6596 6.06099 30.7721 5.99536C30.7393 5.92036 30.6409 5.96255 30.5331 5.76567C30.4206 5.54067 30.4065 5.20786 30.0175 4.84692C30.2706 5.2313 30.8331 5.4563 30.8612 5.3438C30.8893 5.2313 30.3596 4.80942 30.3878 4.7063C30.4909 4.91255 31.0159 5.3813 31.4003 5.3438C31.4284 5.25005 31.0862 5.07192 30.9971 4.90317C30.7487 4.73442 30.0878 4.16724 30.0784 4.03599C29.9621 3.83828 29.8037 3.66863 29.6143 3.53911C29.5969 3.51516 29.5842 3.48812 29.5768 3.45942C29.4268 3.10786 29.6237 2.99067 29.7409 2.97661C29.8346 2.96255 29.8628 2.97661 29.9284 2.9438L29.6893 2.85005C29.7971 2.92974 30.0643 2.85942 30.0081 3.08442C30.1253 3.03755 30.3784 2.73755 29.7221 2.67192C29.5065 2.42817 28.63 2.28755 28.4096 3.3563C28.4284 3.37036 28.4378 3.38442 28.494 3.42192C28.2128 3.29067 27.4675 3.18755 27.2003 3.14067C26.469 2.93442 25.7143 2.42817 25.644 2.48911C25.5503 2.53599 26.0846 3.03286 26.0565 3.04224C25.6396 2.80483 25.2092 2.59197 24.7675 2.40474C24.4862 2.30161 24.2096 2.05786 24.1815 2.10474C24.0784 2.31567 24.6268 2.85005 24.73 2.91099C24.8331 2.97192 25.6346 3.34692 25.6206 3.35161C24.4112 2.80317 24.2143 2.70005 24.1487 2.63911C24.0409 2.61567 23.7831 2.26411 23.7128 2.28755C23.6706 2.32505 23.7503 2.87817 24.3268 3.1313C24.4206 3.19692 25.5643 3.60474 25.555 3.63755C25.555 3.64692 24.2425 3.09849 24.1956 3.07505C23.9425 2.9813 23.6331 2.63442 23.5768 2.67192C23.5206 2.70942 23.7175 3.08442 23.9706 3.20161C24.1065 3.25786 24.6175 3.51099 25.0768 3.67036C25.105 3.68442 24.2471 3.34692 23.8346 3.17817C23.6471 3.07505 23.5628 2.9438 23.5346 2.97192C23.4878 3.00005 23.6003 3.55317 24.9268 3.86255C24.9596 3.8813 25.3956 3.76411 25.3721 3.77817C25.1287 3.83937 24.8812 3.88323 24.6315 3.90942C24.6175 3.94692 24.7159 4.1438 25.4003 4.1063C25.4846 4.10161 25.9628 3.93286 25.9206 3.96567C25.6929 4.05256 25.4614 4.1292 25.2268 4.19536C25.1846 4.19536 24.9643 4.22349 24.955 4.24224C24.9456 4.27974 25.119 4.42036 25.4846 4.43911C25.8128 4.45786 26.4315 4.24224 26.4221 4.2563C26.4034 4.27036 25.8221 4.47192 25.8081 4.4813C25.7846 4.49536 25.5737 4.50474 25.5643 4.52349C25.5456 4.56567 25.8737 4.87036 26.8346 4.54224C26.7409 4.67349 26.2721 4.76255 26.2721 4.78599C26.2721 4.80474 26.3753 4.90317 26.5393 4.94067C26.619 4.95942 26.7315 4.95474 26.8346 4.94067C27.0221 4.90317 27.2096 4.83286 27.4581 4.60317C27.4862 4.67349 26.844 5.00161 26.8721 5.02974C27.0128 5.16099 27.4768 5.01567 27.505 4.99692C27.5378 4.98286 28.3956 4.49536 28.3956 4.43442C28.4096 4.50942 27.2846 5.12349 27.2987 5.14692C27.369 5.25942 27.7534 5.14224 27.7675 5.12817L28.2737 4.8563C28.2878 4.85161 27.7206 5.18442 27.7675 5.24067C27.744 5.46099 28.6581 5.09067 28.7284 5.0438C28.7612 5.02036 28.2878 5.25005 28.2878 5.35786C28.4425 5.61567 28.93 5.53599 29.005 5.47974C29.0425 5.45161 28.9581 5.66724 28.9862 5.64849C29.0439 5.58949 29.0914 5.52139 29.1268 5.44692C29.1175 5.52192 29.0612 5.63442 29.0331 5.76567C29.0003 5.89224 28.9909 6.04224 28.9487 6.19692C28.9393 6.26255 29.2487 6.06099 29.2018 5.57817C29.23 5.8313 29.1081 6.30005 29.1409 6.32817C29.2018 6.37505 29.3846 6.0938 29.4034 5.90161C29.455 5.99536 29.5675 6.19692 29.6659 6.2438C29.6565 6.09849 29.6659 6.10317 29.619 5.96255C29.6471 5.77036 29.6518 5.50786 29.6565 5.20786C29.919 5.70942 30.0268 5.92505 29.9518 6.30942C30.0315 6.34224 30.1534 6.03755 30.144 5.88755C30.1733 6.01324 30.2409 6.12673 30.3375 6.21238C30.434 6.29802 30.5548 6.35158 30.6831 6.36567Z" fill="#EF7D00" stroke="black" stroke-width="0.0515625" stroke-linecap="round" stroke-linejoin="round"/>
<path fill-rule="evenodd" clip-rule="evenodd" d="M26.3143 3.17352C26.3143 3.17352 26.1314 3.30946 25.9111 3.30009C25.9674 3.52509 26.4268 3.35165 26.4268 3.35165C26.4268 3.35165 26.2064 3.60009 26.0471 3.63759C26.1408 3.71727 26.5439 3.68915 26.6096 3.65165C26.6752 3.60946 26.7971 3.45477 26.7971 3.45477C26.7971 3.45477 26.3846 3.9329 26.3283 3.92821C26.3143 3.98446 26.7549 3.96571 26.8439 3.88134C26.9377 3.79696 27.1721 3.67509 27.1721 3.67509C27.1721 3.67509 26.5627 4.09696 26.5393 4.09696C26.7643 4.15321 27.2189 4.02196 27.5096 3.84384C27.0783 4.12977 27.0408 4.18134 26.8205 4.27977C27.0174 4.32196 27.1158 4.45321 27.7721 4.16727C28.1471 3.98915 28.3627 3.66102 28.3627 3.66102C28.0765 3.99867 27.7339 4.28415 27.3502 4.50477C27.3268 4.55165 27.7908 4.74852 28.3768 4.13446" fill="#EF7D00"/>
<path d="M26.3143 3.17352C26.3143 3.17352 26.1314 3.30946 25.9111 3.30009C25.9674 3.52509 26.4268 3.35165 26.4268 3.35165C26.4268 3.35165 26.2064 3.60009 26.0471 3.63759C26.1408 3.71727 26.5439 3.68915 26.6096 3.65165C26.6752 3.60946 26.7971 3.45477 26.7971 3.45477C26.7971 3.45477 26.3846 3.9329 26.3283 3.92821C26.3143 3.98446 26.7549 3.96571 26.8439 3.88134C26.9377 3.79696 27.1721 3.67509 27.1721 3.67509C27.1721 3.67509 26.5627 4.09696 26.5393 4.09696C26.7643 4.15321 27.2189 4.02196 27.5096 3.84384C27.0783 4.12977 27.0408 4.18134 26.8205 4.27977C27.0174 4.32196 27.1158 4.45321 27.7721 4.16727C28.1471 3.98915 28.3627 3.66102 28.3627 3.66102C28.0765 3.99867 27.7339 4.28415 27.3502 4.50477C27.3268 4.55165 27.7908 4.74852 28.3768 4.13446" stroke="black" stroke-width="0.0515625" stroke-linecap="round" stroke-linejoin="round"/>
<path fill-rule="evenodd" clip-rule="evenodd" d="M29.5018 4.49994C29.5018 4.49994 29.5439 4.68744 29.7033 4.82806C29.8627 4.96869 29.8721 5.10931 29.8721 5.10931M29.4268 3.28119C29.4268 3.28119 29.4783 3.45463 29.6424 3.56244C29.8111 3.66556 30.0643 4.00306 30.0783 4.064C30.0971 4.13431 30.1955 4.65463 30.1861 4.71088M28.4143 3.539C28.4236 3.60931 28.1799 3.92806 28.5174 4.30775C28.208 4.68275 28.208 4.72963 28.208 4.72963C28.208 4.72963 28.3814 4.82338 28.6861 4.56088C29.1924 5.17963 29.0236 5.46088 29.0236 5.46088" fill="#EF7D00"/>
<path d="M29.5018 4.49994C29.5018 4.49994 29.5439 4.68744 29.7033 4.82806C29.8627 4.96869 29.8721 5.10931 29.8721 5.10931M29.4268 3.28119C29.4268 3.28119 29.4783 3.45463 29.6424 3.56244C29.8111 3.66556 30.0643 4.00306 30.0783 4.064C30.0971 4.13431 30.1955 4.65463 30.1861 4.71088M28.4143 3.539C28.4236 3.60931 28.1799 3.92806 28.5174 4.30775C28.208 4.68275 28.208 4.72963 28.208 4.72963C28.208 4.72963 28.3814 4.82338 28.6861 4.56088C29.1924 5.17963 29.0236 5.46088 29.0236 5.46088" stroke="black" stroke-width="0.0515625" stroke-linecap="round"/>
<path fill-rule="evenodd" clip-rule="evenodd" d="M28.9817 5.02494C28.9817 5.02494 28.9349 4.95931 29.0192 4.71088C29.0942 4.80463 29.1786 4.81869 29.2114 4.8515C29.2489 4.89369 29.6333 4.94525 29.652 5.20306" fill="#EF7D00"/>
<path d="M28.9817 5.02494C28.9817 5.02494 28.9349 4.95931 29.0192 4.71088C29.0942 4.80463 29.1786 4.81869 29.2114 4.8515C29.2489 4.89369 29.6333 4.94525 29.652 5.20306" stroke="black" stroke-width="0.0515625" stroke-linecap="round" stroke-linejoin="round"/>
<path fill-rule="evenodd" clip-rule="evenodd" d="M29.432 2.69526C29.432 2.67651 29.3523 2.50776 29.0664 2.71401C29.2211 2.72338 29.3711 2.81244 29.432 2.69526Z" fill="#EF7D00" stroke="black" stroke-width="0.0515625"/>
<path fill-rule="evenodd" clip-rule="evenodd" d="M32.1604 3.44525C32.1744 3.45463 33.0135 3.63275 33.2947 3.54369C32.9385 4.02181 32.2213 3.69838 32.2213 3.69838C32.5729 3.8015 32.5869 3.79213 32.6994 3.89525C32.7369 3.989 32.0525 3.94213 31.8322 3.81556C32.4557 4.01244 32.4697 4.00306 32.4885 4.07338C32.5166 4.18119 31.4666 4.04525 31.3775 3.90931C31.6588 4.12494 31.8088 4.16713 31.9635 4.26556C31.776 4.34994 31.4244 4.43431 30.7822 3.97963C31.626 4.74838 32.39 4.7015 32.5119 4.83744C32.2166 5.27338 31.0729 4.57963 30.5479 4.22806C30.0229 3.8765 31.6963 5.0765 31.851 5.05775C31.776 5.17494 31.2229 5.07181 31.1854 5.01088" fill="#EF7D00"/>
<path d="M32.1604 3.44525C32.1744 3.45463 33.0135 3.63275 33.2947 3.54369C32.9385 4.02181 32.2213 3.69838 32.2213 3.69838C32.5729 3.8015 32.5869 3.79213 32.6994 3.89525C32.7369 3.989 32.0525 3.94213 31.8322 3.81556C32.4557 4.01244 32.4697 4.00306 32.4885 4.07338C32.5166 4.18119 31.4666 4.04525 31.3775 3.90931C31.6588 4.12494 31.8088 4.16713 31.9635 4.26556C31.776 4.34994 31.4244 4.43431 30.7822 3.97963C31.626 4.74838 32.39 4.7015 32.5119 4.83744C32.2166 5.27338 31.0729 4.57963 30.5479 4.22806C30.0229 3.8765 31.6963 5.0765 31.851 5.05775C31.776 5.17494 31.2229 5.07181 31.1854 5.01088" stroke="black" stroke-width="0.0515625" stroke-linejoin="round"/>
<path fill-rule="evenodd" clip-rule="evenodd" d="M32.3756 4.25165C32.2818 4.26571 31.9865 4.26571 31.9443 4.25634L32.3756 4.25165Z" fill="#EF7D00"/>
<path d="M32.3756 4.25165C32.2818 4.26571 31.9865 4.26571 31.9443 4.25634" stroke="black" stroke-width="0.0515625" stroke-linecap="round"/>
<path fill-rule="evenodd" clip-rule="evenodd" d="M26.0664 3.04681C26.0664 3.04681 26.7039 3.38431 26.9758 3.36088C26.9239 3.40466 26.8631 3.43664 26.7977 3.45463C26.8633 3.48275 27.0508 3.58119 27.332 3.52025L27.1773 3.66088C27.1773 3.66088 27.4211 3.75463 27.693 3.614C27.6464 3.66959 27.6025 3.72747 27.5617 3.78744L27.7539 3.8015" fill="#EF7D00"/>
<path d="M26.0664 3.04681C26.0664 3.04681 26.7039 3.38431 26.9758 3.36088C26.9239 3.40466 26.8631 3.43664 26.7977 3.45463C26.8633 3.48275 27.0508 3.58119 27.332 3.52025L27.1773 3.66088C27.1773 3.66088 27.4211 3.75463 27.693 3.614C27.6464 3.66959 27.6025 3.72747 27.5617 3.78744L27.7539 3.8015" stroke="black" stroke-width="0.0515625" stroke-linecap="round" stroke-linejoin="round"/>
</g>
<defs>
<clipPath id="clip0_11930_68564">
<rect width="36" height="24" rx="2" fill="white"/>
</clipPath>
</defs>
</svg>
