<svg width="36" height="24" viewBox="0 0 36 24" fill="none" xmlns="http://www.w3.org/2000/svg">
<g clip-path="url(#clip0_11930_68561)">
<path d="M-0.112549 -0.00494385H36V23.9897H-0.112549V-0.00494385Z" fill="#006400"/>
<path d="M-0.112549 3.42279H36V20.5618H-0.112549V3.42279Z" fill="#FFD200"/>
<path d="M-0.112549 6.85077H36V17.1342H-0.112549V6.85077Z" fill="#D40000"/>
<path d="M-0.112549 10.2785H36V13.7063H-0.112549V10.2785Z" fill="#000001"/>
<path d="M-0.112549 -0.00494385V23.9897L16.2983 11.9924L-0.112549 -0.00494385Z" fill="black" stroke="black" stroke-width="1.15731"/>
<path d="M-0.112549 -0.00494385V23.9897L16.2983 11.9924L-0.112549 -0.00494385Z" fill="white"/>
<path d="M6.12914 5.95941L9.382 15.7115L0.871826 9.68429H11.3923L2.87629 15.7115L6.12914 5.95941Z" fill="#D40000"/>
<path d="M4.74013 14.4889L5.3145 14.386L6.37534 14.3461L6.76803 14.3803L7.64718 14.5232L7.71165 14.4375V13.8205L7.81715 13.2891L7.99298 12.7521L8.18639 12.3237L8.43256 11.878L8.8311 11.9752H8.9366L8.94832 11.9009L8.10434 11.1982L7.22519 10.5412L5.95335 9.61569L5.83613 9.58713L5.70133 8.61592L5.60169 8.32455L5.46689 8.21029L5.21487 8.13031L4.93354 8.14174L4.8046 8.21029L4.53499 8.26742L4.39433 8.29027L4.30055 8.39882L4.28883 8.53593L4.68152 8.54736L4.78115 8.58735L4.76943 8.62734L4.54671 8.65591L4.44121 8.69018L4.5643 8.78159L4.69324 8.8273L4.85735 8.88443L4.89251 8.99869L4.90423 10.4726L4.81632 10.7012L4.78701 11.1296L4.91596 11.6438L4.58774 12.0094L4.40019 12.3351L4.36502 12.535L4.26538 12.735L4.25366 12.8607L4.31813 12.9978L4.57016 13.809L4.6991 14.4775L4.74013 14.4889Z" fill="#FFCC00"/>
<path d="M5.04517 8.10754C4.93967 8.10754 4.89278 8.11897 4.79315 8.17039C4.71059 8.21646 4.61843 8.2438 4.52354 8.25037C4.37702 8.25037 4.2598 8.3532 4.2598 8.4846V8.5703L4.47079 8.56458C5.09206 8.58172 4.5294 8.63885 4.48251 8.64457C4.33013 8.67313 4.51768 8.7931 4.69937 8.85595C4.89278 8.91308 4.88106 8.8788 4.88106 9.7129C4.88106 10.3927 4.88106 10.4899 4.82245 10.6441C4.74626 10.8726 4.74626 11.2154 4.82245 11.4439C4.85762 11.5353 4.88106 11.6153 4.88106 11.6325C4.88106 11.6439 4.78729 11.7524 4.67593 11.8781C4.47079 12.1066 4.34771 12.3409 4.34771 12.5066C4.3404 12.5599 4.32032 12.6107 4.2891 12.6551C4.21291 12.7522 4.21291 12.9179 4.28324 12.9807C4.35943 13.0493 4.67007 14.2262 4.67593 14.449C4.67593 14.529 4.68765 14.529 5.16239 14.4375C5.54922 14.3633 6.45767 14.3461 6.92069 14.4033C7.13169 14.4318 7.37785 14.4775 7.46576 14.4947C7.74709 14.5689 7.73537 14.5804 7.73537 14.249C7.73752 13.7269 7.83887 13.2098 8.03428 12.7236C8.14628 12.4466 8.28154 12.1791 8.43869 11.9238C8.43869 11.9238 8.54419 11.9353 8.67313 11.9695C8.91343 12.0267 8.98376 12.0209 8.98376 11.9124C8.98376 11.8553 8.73174 11.6496 7.49507 10.7127C6.99628 10.3147 6.48209 9.93549 5.95362 9.57578C5.91846 9.57578 5.88329 9.55865 5.87743 9.53579L5.78952 8.99306C5.74849 8.71312 5.68988 8.4389 5.66644 8.38177C5.58438 8.21038 5.42613 8.12468 5.16239 8.10754C5.12333 8.10632 5.08423 8.10632 5.04517 8.10754ZM5.05103 8.16467H5.16825C5.55508 8.18753 5.62541 8.29036 5.73091 8.96449C5.75938 9.14284 5.78283 9.32192 5.80124 9.50152C5.80124 9.54722 5.74849 9.60435 5.61369 9.69004C5.39189 9.84175 5.19438 10.0246 5.02759 10.2328L4.95139 10.3356L4.93381 10.0957V9.42153C4.95139 8.9245 4.93381 8.8788 4.7697 8.82167C4.6349 8.77597 4.45907 8.73026 4.50596 8.7017C4.56457 8.66742 4.62318 8.69027 4.76384 8.65028C4.82245 8.63885 4.81659 8.64457 4.80487 8.59886C4.79315 8.52459 4.71109 8.4846 4.49424 8.49603C4.31841 8.50745 4.30082 8.50174 4.31254 8.45604C4.33599 8.36463 4.42976 8.3075 4.57629 8.29036C4.66599 8.28024 4.75323 8.25511 4.83417 8.21609C4.8996 8.17775 4.9747 8.15797 5.05103 8.15896V8.16467ZM5.92432 9.63863H5.94776C6.0474 9.65577 8.92515 11.8496 8.92515 11.9124C8.92515 11.9353 8.90171 11.9524 8.86654 11.9524C8.8431 11.9524 8.11047 11.7524 7.24304 11.5068C5.85985 11.1069 5.66057 11.0497 5.60196 10.9755C5.56119 10.9253 5.53852 10.8634 5.53747 10.7993C5.53641 10.7353 5.55701 10.6727 5.5961 10.6213C5.62424 10.588 5.64428 10.5489 5.65471 10.507C5.65471 10.4384 5.50819 10.6098 5.47888 10.707C5.44958 10.8212 5.50819 11.0155 5.5961 11.0783C5.63127 11.1069 5.89501 11.1926 6.1822 11.2783C6.67453 11.4154 6.70969 11.4325 6.73314 11.5125C6.79175 11.701 6.58661 11.9238 6.29356 11.9867C6.18368 12.0123 6.0801 12.0589 5.98879 12.1238C5.68471 12.3693 5.34499 12.5695 4.9807 12.7179C4.95725 12.7351 4.92795 12.8265 4.91037 12.9122C4.8752 13.1007 4.86348 13.1293 4.80487 13.1293C4.77556 13.1293 4.7697 13.1121 4.79315 13.0493C4.83417 12.935 4.82831 12.7979 4.78729 12.7979C4.75798 12.7979 4.74626 12.8379 4.74626 12.9008C4.74626 12.9579 4.72868 13.0264 4.70523 13.0436C4.67593 13.0779 4.67007 13.055 4.68179 12.9122C4.69351 12.8151 4.68765 12.7408 4.67593 12.7408C4.64662 12.7408 4.59387 12.8836 4.57629 13.0093C4.56457 13.0836 4.56457 13.0836 4.54112 12.9922C4.52354 12.9236 4.5294 12.8779 4.58215 12.7922C4.61546 12.7301 4.6354 12.6621 4.64076 12.5922C4.64076 12.518 4.69937 12.4437 4.97484 12.1752C5.15067 11.9981 5.36752 11.7753 5.44372 11.6782C5.57852 11.5182 5.58438 11.5068 5.57852 11.3411C5.57852 11.2497 5.5668 11.164 5.55508 11.1526C5.51991 11.1183 5.47302 11.3011 5.49647 11.3982C5.50819 11.4896 5.49647 11.5182 5.30305 11.741C5.1639 11.8963 5.01721 12.045 4.86348 12.1866C4.6349 12.3923 4.55285 12.5066 4.55285 12.6094C4.55285 12.6437 4.5294 12.7236 4.49424 12.7979C4.45907 12.8722 4.44735 12.9465 4.45907 12.9636C4.47079 12.9807 4.45907 12.9807 4.44149 12.9636C4.41218 12.935 4.41218 12.8893 4.43563 12.7922C4.44904 12.7438 4.45302 12.6935 4.44735 12.6437C4.41804 12.5865 4.37702 12.6551 4.35943 12.7979C4.34771 12.8779 4.33013 12.9407 4.31254 12.9293C4.27152 12.9065 4.28324 12.7579 4.33599 12.6779C4.36529 12.638 4.3946 12.5465 4.41218 12.4723C4.45321 12.2609 4.54698 12.0895 4.75212 11.861C4.81782 11.7913 4.88039 11.7189 4.93967 11.6439L4.88106 11.4554C4.80245 11.2006 4.79839 10.9295 4.86934 10.6727C4.94553 10.4556 5.09792 10.2385 5.33822 10.0043C5.57266 9.78145 5.80124 9.64434 5.92432 9.63863ZM6.80347 11.4782C6.81087 11.4777 6.81837 11.4782 6.82546 11.4796C6.83255 11.4811 6.83908 11.4836 6.84462 11.4868C6.85016 11.49 6.85457 11.494 6.85758 11.4984C6.86059 11.5029 6.86213 11.5077 6.86208 11.5125C6.85848 11.5192 6.85175 11.525 6.84282 11.5292C6.8339 11.5333 6.82321 11.5355 6.81226 11.5355C6.80131 11.5355 6.79063 11.5333 6.7817 11.5292C6.77277 11.525 6.76604 11.5192 6.76244 11.5125C6.76214 11.5046 6.76606 11.4968 6.77354 11.4906C6.78102 11.4843 6.79159 11.48 6.80347 11.4782ZM6.94999 11.4954C6.9574 11.4948 6.96489 11.4953 6.97198 11.4968C6.97908 11.4983 6.98561 11.5007 6.99114 11.5039C6.99668 11.5072 7.0011 11.5111 7.00411 11.5156C7.00712 11.52 7.00865 11.5248 7.0086 11.5296C7.005 11.5364 6.99827 11.5422 6.98935 11.5463C6.98042 11.5504 6.96974 11.5526 6.95879 11.5526C6.94783 11.5526 6.93715 11.5504 6.92823 11.5463C6.9193 11.5422 6.91257 11.5364 6.90897 11.5296C6.90866 11.5217 6.91258 11.514 6.92006 11.5077C6.92754 11.5015 6.93812 11.4971 6.94999 11.4954ZM7.10238 11.5239C7.10978 11.5234 7.11728 11.5239 7.12437 11.5253C7.13146 11.5268 7.13799 11.5293 7.14353 11.5325C7.14907 11.5357 7.15349 11.5397 7.1565 11.5441C7.1595 11.5486 7.16104 11.5534 7.16099 11.5582C7.15739 11.5649 7.15066 11.5707 7.14173 11.5749C7.13281 11.579 7.12212 11.5812 7.11117 11.5812C7.10022 11.5812 7.08954 11.579 7.08061 11.5749C7.07168 11.5707 7.06495 11.5649 7.06135 11.5582C7.06105 11.5503 7.06497 11.5425 7.07245 11.5363C7.07993 11.53 7.0905 11.5257 7.10238 11.5239ZM7.24304 11.5525C7.25045 11.5519 7.25794 11.5524 7.26503 11.5539C7.27213 11.5554 7.27866 11.5578 7.28419 11.5611C7.28973 11.5643 7.29415 11.5683 7.29716 11.5727C7.30017 11.5771 7.3017 11.5819 7.30165 11.5868C7.29805 11.5935 7.29132 11.5993 7.2824 11.6034C7.27347 11.6076 7.26279 11.6098 7.25184 11.6098C7.24088 11.6098 7.2302 11.6076 7.22128 11.6034C7.21235 11.5993 7.20562 11.5935 7.20202 11.5868C7.20171 11.5788 7.20563 11.5711 7.21311 11.5649C7.22059 11.5586 7.23117 11.5542 7.24304 11.5525ZM6.8738 11.5868C6.8812 11.5862 6.8887 11.5867 6.89579 11.5882C6.90288 11.5897 6.90941 11.5921 6.91495 11.5953C6.92049 11.5986 6.92491 11.6025 6.92792 11.607C6.93093 11.6114 6.93246 11.6162 6.93241 11.621C6.92881 11.6278 6.92208 11.6336 6.91315 11.6377C6.90423 11.6418 6.89355 11.6441 6.88259 11.6441C6.87164 11.6441 6.86096 11.6418 6.85203 11.6377C6.8431 11.6336 6.83637 11.6278 6.83277 11.621C6.83247 11.6131 6.83639 11.6054 6.84387 11.5991C6.85135 11.5929 6.86192 11.5885 6.8738 11.5868ZM7.01447 11.6096C7.02187 11.6091 7.02936 11.6096 7.03646 11.611C7.04355 11.6125 7.05008 11.615 7.05561 11.6182C7.06115 11.6214 7.06557 11.6254 7.06858 11.6298C7.07159 11.6343 7.07312 11.639 7.07308 11.6439C7.06948 11.6506 7.06275 11.6564 7.05382 11.6606C7.04489 11.6647 7.03421 11.6669 7.02326 11.6669C7.0123 11.6669 7.00162 11.6647 6.9927 11.6606C6.98377 11.6564 6.97704 11.6506 6.97344 11.6439C6.97313 11.636 6.97706 11.6282 6.98453 11.622C6.99201 11.6157 7.00259 11.6114 7.01447 11.6096ZM7.31924 11.621C7.32664 11.6205 7.33414 11.621 7.34123 11.6225C7.34832 11.6239 7.35485 11.6264 7.36039 11.6296C7.36592 11.6329 7.37034 11.6368 7.37335 11.6413C7.37636 11.6457 7.37789 11.6505 7.37785 11.6553C7.37425 11.662 7.36752 11.6679 7.35859 11.672C7.34966 11.6761 7.33898 11.6783 7.32803 11.6783C7.31708 11.6783 7.3064 11.6761 7.29747 11.672C7.28854 11.6679 7.28181 11.662 7.27821 11.6553C7.27791 11.6474 7.28183 11.6397 7.28931 11.6334C7.29678 11.6272 7.30736 11.6228 7.31924 11.621ZM7.16099 11.621C7.16839 11.6205 7.17589 11.621 7.18298 11.6225C7.19007 11.6239 7.1966 11.6264 7.20214 11.6296C7.20768 11.6329 7.2121 11.6368 7.21511 11.6413C7.21811 11.6457 7.21965 11.6505 7.2196 11.6553C7.216 11.662 7.20927 11.6679 7.20034 11.672C7.19142 11.6761 7.18073 11.6783 7.16978 11.6783C7.15883 11.6783 7.14815 11.6761 7.13922 11.672C7.13029 11.6679 7.12356 11.662 7.11996 11.6553C7.11966 11.6474 7.12358 11.6397 7.13106 11.6334C7.13854 11.6272 7.14911 11.6228 7.16099 11.621ZM7.45404 11.6553C7.4599 11.6553 7.6709 11.701 7.92292 11.7696L8.38594 11.901L8.29803 12.0552C8.24891 12.1378 8.202 12.2216 8.15736 12.3066C8.09875 12.4209 8.08703 12.4209 7.8057 12.358C7.50093 12.2895 7.02033 12.2266 6.528 12.1866L6.05912 12.1466L6.23495 12.0838C6.34112 12.044 6.44484 11.9982 6.54559 11.9467C6.66281 11.8838 6.70969 11.8724 6.89138 11.8895C7.15513 11.9067 7.33096 11.8553 7.40129 11.7524L7.4599 11.6553H7.45404ZM6.93827 11.6896C6.94568 11.6891 6.95317 11.6895 6.96026 11.691C6.96736 11.6925 6.97388 11.6949 6.97942 11.6982C6.98496 11.7014 6.98938 11.7054 6.99239 11.7098C6.9954 11.7142 6.99693 11.719 6.99688 11.7239C6.99328 11.7306 6.98655 11.7364 6.97763 11.7405C6.9687 11.7447 6.95802 11.7469 6.94706 11.7469C6.93611 11.7469 6.92543 11.7447 6.9165 11.7405C6.90758 11.7364 6.90085 11.7306 6.89725 11.7239C6.89694 11.716 6.90086 11.7082 6.90834 11.702C6.91582 11.6957 6.9264 11.6914 6.93827 11.6896ZM7.26649 11.6896C7.27389 11.6891 7.28139 11.6895 7.28848 11.691C7.29557 11.6925 7.3021 11.6949 7.30764 11.6982C7.31318 11.7014 7.31759 11.7054 7.3206 11.7098C7.32361 11.7142 7.32515 11.719 7.3251 11.7239C7.32066 11.7295 7.31394 11.7342 7.30567 11.7374C7.2974 11.7407 7.2879 11.7424 7.27821 11.7424C7.26852 11.7424 7.25902 11.7407 7.25075 11.7374C7.24248 11.7342 7.23576 11.7295 7.23132 11.7239C7.23102 11.716 7.23494 11.7082 7.24242 11.702C7.2499 11.6957 7.26047 11.6914 7.27235 11.6896H7.26649ZM6.79761 11.6896C6.80501 11.6891 6.81251 11.6895 6.8196 11.691C6.82669 11.6925 6.83322 11.6949 6.83876 11.6982C6.8443 11.7014 6.84871 11.7054 6.85172 11.7098C6.85473 11.7142 6.85626 11.719 6.85622 11.7239C6.85262 11.7306 6.84589 11.7364 6.83696 11.7405C6.82803 11.7447 6.81735 11.7469 6.8064 11.7469C6.79545 11.7469 6.78477 11.7447 6.77584 11.7405C6.76691 11.7364 6.76018 11.7306 6.75658 11.7239C6.75813 11.717 6.76289 11.7105 6.77022 11.7054C6.77755 11.7003 6.78711 11.6968 6.79761 11.6953V11.6896ZM7.10824 11.701C7.1218 11.6999 7.13549 11.7023 7.14642 11.7076C7.15736 11.7129 7.16468 11.7208 7.16685 11.7296C7.16325 11.7363 7.15652 11.7421 7.14759 11.7463C7.13867 11.7504 7.12799 11.7526 7.11703 11.7526C7.10608 11.7526 7.0954 11.7504 7.08647 11.7463C7.07754 11.7421 7.07081 11.7363 7.06721 11.7296C7.06876 11.7227 7.07352 11.7162 7.08085 11.7111C7.08818 11.706 7.09774 11.7025 7.10824 11.701ZM6.72142 11.7639C6.72882 11.7633 6.73631 11.7638 6.74341 11.7653C6.7505 11.7668 6.75703 11.7692 6.76256 11.7725C6.7681 11.7757 6.77252 11.7797 6.77553 11.7841C6.77854 11.7885 6.78007 11.7933 6.78003 11.7981C6.77643 11.8049 6.7697 11.8107 6.76077 11.8148C6.75184 11.8189 6.74116 11.8212 6.73021 11.8212C6.71925 11.8212 6.70857 11.8189 6.69965 11.8148C6.69072 11.8107 6.68399 11.8049 6.68039 11.7981C6.68008 11.7902 6.68401 11.7825 6.69148 11.7762C6.69896 11.77 6.70954 11.7656 6.72142 11.7639ZM6.86794 11.7639C6.87615 11.7632 6.88448 11.7638 6.89228 11.7656C6.90007 11.7674 6.90711 11.7703 6.91281 11.7742C6.91852 11.7781 6.92273 11.7828 6.92512 11.788C6.92751 11.7931 6.928 11.7986 6.92655 11.8039C6.92295 11.8106 6.91622 11.8164 6.90729 11.8205C6.89837 11.8247 6.88768 11.8269 6.87673 11.8269C6.86578 11.8269 6.8551 11.8247 6.84617 11.8205C6.83724 11.8164 6.83051 11.8106 6.82691 11.8039C6.82661 11.7959 6.83053 11.7882 6.83801 11.782C6.84549 11.7757 6.85606 11.7713 6.86794 11.7696V11.7639ZM7.02033 11.7753C7.03389 11.7742 7.04758 11.7766 7.05851 11.7819C7.06944 11.7872 7.07676 11.7951 7.07894 11.8039C7.07534 11.8106 7.06861 11.8164 7.05968 11.8205C7.05075 11.8247 7.04007 11.8269 7.02912 11.8269C7.01817 11.8269 7.00748 11.8247 6.99856 11.8205C6.98963 11.8164 6.9829 11.8106 6.9793 11.8039C6.98085 11.7969 6.9856 11.7905 6.99294 11.7854C7.00027 11.7803 7.00982 11.7768 7.02033 11.7753ZM7.18443 11.7753C7.19184 11.7748 7.19933 11.7752 7.20642 11.7767C7.21352 11.7782 7.22005 11.7806 7.22558 11.7839C7.23112 11.7871 7.23554 11.7911 7.23855 11.7955C7.24156 11.7999 7.24309 11.8047 7.24304 11.8096C7.23944 11.8163 7.23271 11.8221 7.22379 11.8262C7.21486 11.8304 7.20418 11.8326 7.19323 11.8326C7.18227 11.8326 7.17159 11.8304 7.16267 11.8262C7.15374 11.8221 7.14701 11.8163 7.14341 11.8096C7.1431 11.8017 7.14702 11.7939 7.1545 11.7877C7.16198 11.7814 7.17256 11.777 7.18443 11.7753ZM5.99465 12.238C6.68652 12.2559 7.3752 12.3363 8.05186 12.478C8.05772 12.4837 8.0167 12.6208 7.95223 12.7865L7.83501 13.1293C7.82914 13.1578 7.78812 13.1578 7.68848 13.1464C7.20202 13.0721 5.79538 13.0779 5.25617 13.1578C4.94553 13.2035 4.90451 13.1978 4.92795 13.135L4.98656 12.935L5.02173 12.7808L5.33822 12.6208C5.54918 12.5159 5.74936 12.3915 5.93604 12.2495H5.98879L5.99465 12.238ZM4.41218 13.0493C4.42976 13.0493 4.46493 13.0664 4.50596 13.095C4.56457 13.1293 4.6349 13.1578 4.6642 13.1578C4.81659 13.1578 4.89864 13.3692 5.02759 14.0719L5.07447 14.3233C5.0862 14.3804 5.07447 14.3918 4.93967 14.4204C4.77556 14.4547 4.73454 14.4604 4.73454 14.4375C4.73454 14.3804 4.57043 13.6549 4.5001 13.3978C4.46509 13.2845 4.43381 13.1702 4.40632 13.055C4.40721 13.0545 4.40822 13.0542 4.40925 13.0542C4.41028 13.0542 4.41129 13.0545 4.41218 13.055V13.0493ZM6.08843 13.1635H6.2584L6.19979 13.2207C6.10015 13.3349 6.05326 13.3407 5.98293 13.2664C5.95823 13.2415 5.93837 13.2125 5.92432 13.1807C5.92432 13.1693 6.00051 13.1578 6.08843 13.1578V13.1635ZM6.44595 13.1635H6.76244L6.69211 13.2321C6.61006 13.3235 6.6042 13.3235 6.51628 13.2321L6.44595 13.1578V13.1635ZM6.92655 13.1635H7.00274C7.04377 13.1635 7.11996 13.1635 7.16685 13.175L7.25477 13.1921L7.17271 13.2664C7.12582 13.3064 7.0848 13.3407 7.07894 13.3349L6.99688 13.2435L6.92655 13.1635ZM7.42474 13.1807L7.49507 13.1978C7.53609 13.2093 7.62401 13.215 7.68848 13.2207H7.8057L7.71779 13.2949C7.68594 13.3239 7.6505 13.3489 7.61229 13.3692C7.60643 13.3692 7.55368 13.3235 7.51265 13.2721L7.42474 13.1807ZM5.65471 13.1864H5.66644C5.6723 13.1978 5.64885 13.2435 5.60783 13.2835L5.54922 13.3635L5.4613 13.2949L5.37339 13.2207L5.51405 13.2035L5.65471 13.1864ZM5.78952 13.1978L5.88329 13.2778L5.97707 13.3635L5.80124 13.3749L5.62541 13.3806L5.70746 13.2949L5.78952 13.1978ZM6.8445 13.1978C6.86208 13.1978 6.8738 13.2035 6.89138 13.215C6.92203 13.2431 6.94777 13.2759 6.96758 13.3121C6.99102 13.3578 6.98516 13.3692 6.90897 13.3692L6.76244 13.3407L6.69211 13.3235L6.7683 13.2492C6.80347 13.215 6.82691 13.1921 6.85036 13.1921L6.8445 13.1978ZM6.35803 13.1978C6.38734 13.1978 6.41664 13.215 6.45181 13.2721C6.49284 13.3349 6.49284 13.3349 6.33459 13.3349H6.17634L6.2584 13.2607C6.29942 13.2207 6.33459 13.2035 6.35803 13.2035V13.1978ZM7.3544 13.2093L7.42474 13.2778C7.50679 13.3521 7.51851 13.3978 7.4599 13.3921L7.29579 13.3749L7.16685 13.3635L7.26063 13.2892L7.3544 13.2093ZM5.29133 13.2492C5.30305 13.2492 5.34994 13.2778 5.38511 13.3178L5.45544 13.3921L5.30891 13.4149L5.10378 13.4435C5.06275 13.4549 5.07447 13.4263 5.16239 13.3521C5.221 13.2949 5.27961 13.2492 5.29133 13.2492ZM5.07447 13.2492H5.09792C5.14481 13.2607 5.14481 13.2721 5.06275 13.3521L4.97484 13.4378L4.94553 13.3635C4.92209 13.3064 4.92795 13.2892 4.9807 13.2664C5.01073 13.2555 5.04244 13.2497 5.07447 13.2492ZM7.77053 13.3521C7.78226 13.3521 7.78226 13.3635 7.77053 13.3864C7.75881 13.4321 7.70606 13.4435 7.70606 13.3978C7.70606 13.3864 7.72365 13.3692 7.74709 13.3578L7.77053 13.3521ZM6.51628 13.4435C6.96758 13.4435 7.42474 13.4549 7.53609 13.4663C7.71779 13.4892 7.73537 13.4949 7.73537 13.5635C7.73537 13.6434 7.71192 13.6492 7.46576 13.6092C7.39543 13.592 7.09652 13.5692 6.80933 13.5463C6.25194 13.5135 5.6926 13.5326 5.13895 13.6034C5.02759 13.6149 4.99828 13.6034 4.99828 13.5692C4.99828 13.4949 5.5961 13.4435 6.51628 13.4435ZM5.9126 13.6092H6.22909L6.15876 13.6834C6.07084 13.7748 6.06498 13.7748 5.98293 13.6834L5.9126 13.6092ZM6.32287 13.6092L6.40492 13.6891L6.48698 13.7806L6.31701 13.7863H6.14704L6.23495 13.6949L6.32287 13.6092ZM6.44595 13.6092H6.76244L6.69211 13.6834C6.61006 13.7748 6.6042 13.7748 6.51628 13.6834L6.44595 13.6092ZM5.69574 13.6092C5.70746 13.6092 5.69574 13.6377 5.65471 13.6949C5.61369 13.7463 5.57266 13.7863 5.5668 13.7863C5.55508 13.7863 5.51405 13.752 5.47888 13.712L5.40855 13.6377H5.51405C5.56768 13.638 5.62105 13.6303 5.6723 13.6149C5.68003 13.6133 5.68801 13.6133 5.69574 13.6149V13.6092ZM5.81296 13.6377L5.88915 13.7063L5.97707 13.7806L5.82468 13.792L5.65471 13.8034L5.73677 13.7177L5.81296 13.6377ZM6.83277 13.6377L6.91483 13.7291C7.0086 13.8263 7.00274 13.832 6.79175 13.792L6.69211 13.7748L6.76244 13.7063L6.83277 13.6377ZM6.94999 13.6377H7.09066C7.24304 13.6377 7.26063 13.6606 7.17271 13.7406C7.10238 13.7977 7.10238 13.7977 7.02033 13.712L6.94999 13.6377ZM5.15653 13.6663C5.22686 13.6663 5.221 13.672 5.13308 13.7577C5.06861 13.8205 5.06275 13.8205 5.03931 13.7748C5.02173 13.7177 5.07447 13.672 5.15653 13.6663ZM7.4306 13.6777C7.45404 13.6777 7.50093 13.6777 7.54782 13.6891L7.68262 13.712L7.60643 13.7806L7.53609 13.8491L7.47162 13.7691L7.41301 13.6777H7.4306ZM5.32064 13.7063C5.33822 13.7063 5.3558 13.7177 5.38511 13.7463C5.44372 13.8034 5.44372 13.8034 5.39683 13.8263C5.35141 13.8408 5.30397 13.8485 5.25617 13.8491H5.16239L5.23858 13.7691C5.27961 13.7291 5.29719 13.712 5.31478 13.7063H5.32064ZM7.31924 13.7234C7.34268 13.7234 7.36026 13.7348 7.38957 13.7806L7.44232 13.8491H7.31924C7.23718 13.8491 7.20202 13.8377 7.20202 13.8148C7.21374 13.792 7.24304 13.7577 7.27821 13.7406L7.31924 13.7234ZM7.69434 13.7977C7.70606 13.7977 7.70606 13.8091 7.70606 13.8263C7.70606 13.8834 7.65332 13.9234 7.62987 13.8834C7.62401 13.8662 7.63573 13.8377 7.65918 13.8205L7.69434 13.7977ZM6.17634 13.8662C6.68625 13.8662 7.24891 13.9005 7.58298 13.9577L7.67676 13.9748V14.2262C7.67676 14.4147 7.66504 14.4775 7.63573 14.4775L7.34268 14.4204C6.66496 14.3084 5.97451 14.2892 5.29133 14.3633L5.15653 14.3804L5.12136 14.169C5.1068 14.0975 5.09895 14.0249 5.09792 13.9519C5.09792 13.9519 5.23272 13.9234 5.39097 13.9062C5.58438 13.8777 5.87157 13.8662 6.17634 13.8662Z" fill="black"/>
<path d="M7.20199 12.4379C7.02616 12.4379 6.90308 12.5579 6.90308 12.735C6.90308 13.0092 7.21957 13.1463 7.40712 12.9521C7.59467 12.7579 7.46573 12.4379 7.20199 12.4379ZM7.20199 12.5065C7.26416 12.5065 7.3238 12.5306 7.36776 12.5734C7.41173 12.6163 7.43643 12.6744 7.43643 12.735C7.43643 12.9064 7.24301 13.0207 7.08477 12.9464C6.92652 12.8607 6.93824 12.5979 7.10821 12.5293C7.13585 12.5166 7.16564 12.5088 7.19613 12.5065H7.20199Z" fill="black"/>
<path d="M6.02425 12.4037C5.84842 12.4037 5.72534 12.5237 5.72534 12.7008C5.72534 12.975 6.04184 13.1122 6.22939 12.9179C6.41694 12.7237 6.288 12.4037 6.02425 12.4037ZM6.02425 12.4723C6.08643 12.4723 6.14606 12.4964 6.19003 12.5392C6.23399 12.5821 6.25869 12.6402 6.25869 12.7008C6.25869 12.8722 6.06528 12.9865 5.90703 12.9122C5.74879 12.8265 5.76051 12.5637 5.93048 12.4952C5.95812 12.4824 5.98791 12.4747 6.01839 12.4723H6.02425Z" fill="black"/>
<path d="M5.04568 8.29608C5.02121 8.29753 4.99812 8.30824 4.98082 8.32615C4.96352 8.34407 4.95323 8.36794 4.9519 8.3932C4.9519 8.42127 4.96271 8.4482 4.98195 8.46805C5.00118 8.4879 5.02727 8.49906 5.05447 8.49906C5.08167 8.49906 5.10776 8.4879 5.127 8.46805C5.14623 8.4482 5.15704 8.42127 5.15704 8.3932C5.15638 8.3791 5.15291 8.36529 5.14685 8.35264C5.14079 8.33998 5.13228 8.32875 5.12183 8.31964C5.11138 8.31053 5.09923 8.30373 5.08613 8.29968C5.07303 8.29563 5.05926 8.2944 5.04568 8.29608ZM5.05154 8.33036C5.07019 8.33036 5.08808 8.33698 5.10127 8.34876C5.11446 8.36055 5.12187 8.37653 5.12187 8.3932C5.12187 8.40987 5.11446 8.42585 5.10127 8.43764C5.08808 8.44942 5.07019 8.45604 5.05154 8.45604C5.03289 8.45604 5.015 8.44942 5.00181 8.43764C4.98862 8.42585 4.98121 8.40987 4.98121 8.3932C4.98121 8.38495 4.98303 8.37677 4.98656 8.36915C4.9901 8.36153 4.99528 8.3546 5.00181 8.34876C5.00834 8.34293 5.01609 8.3383 5.02463 8.33514C5.03316 8.33198 5.0423 8.33036 5.05154 8.33036Z" fill="black"/>
</g>
<defs>
<clipPath id="clip0_11930_68561">
<rect width="36" height="24" rx="2" fill="white"/>
</clipPath>
</defs>
</svg>
