<svg width="145" height="18" viewBox="0 0 145 18" fill="none" xmlns="http://www.w3.org/2000/svg">
<rect width="144.779" height="18" rx="9" fill="#0F1A38" fill-opacity="0.04"/>
<path d="M29.2022 2.95898H26.2686V17.2501H29.2022V2.95898Z" fill="#F7D7D0"/>
<path fill-rule="evenodd" clip-rule="evenodd" d="M0 0.322409L2.21569 14.4055C2.50609 16.2553 4.09298 17.6158 5.95426 17.6158C7.81554 17.6158 9.40014 16.2553 9.69053 14.4055L11.1974 4.85442C11.2591 4.45655 11.5998 4.16387 12.0023 4.16387C12.4024 4.16387 12.7431 4.45655 12.8071 4.85442L14.314 14.4032C14.6067 16.2553 16.1913 17.6181 18.0526 17.6181C19.9138 17.6181 21.4962 16.2576 21.7911 14.41L23.4558 3.97865C23.5449 3.4093 24.0343 2.99085 24.6082 2.99085H26.2728V0H24.6082C22.5754 0 20.8445 1.48399 20.5221 3.50533L18.8574 13.9367C18.7934 14.3346 18.4527 14.6273 18.0526 14.6273C17.6524 14.6273 17.3094 14.3346 17.2477 13.9344L15.7408 4.38567C15.4481 2.53582 13.8635 1.1753 12.0023 1.1753C10.141 1.1753 8.55639 2.53811 8.26371 4.38567L6.75685 13.9367C6.69511 14.3346 6.35441 14.6273 5.95197 14.6273C5.55182 14.6273 5.21112 14.3346 5.14709 13.9367L3.00685 0.320124H0V0.322409Z" fill="#F7D7D0"/>
<path d="M38.2472 17.6207C36.0909 17.6207 34.3348 16.809 33.1664 15.2793C32.1763 13.9805 31.6504 12.2107 31.6504 10.1688C31.6504 8.12457 32.174 6.35932 33.1664 5.05826C34.3348 3.52396 36.0955 2.7168 38.2472 2.7168C40.4034 2.7168 42.1595 3.52853 43.328 5.05826C44.3181 6.35704 44.844 8.12685 44.844 10.1688C44.844 12.213 44.3203 13.9782 43.328 15.2793C42.1595 16.8113 40.3989 17.6207 38.2472 17.6207ZM38.2472 5.30292C36.9232 5.30292 35.9126 5.83341 35.2563 6.70002C34.6252 7.52319 34.2937 8.72364 34.2937 10.1711C34.2937 11.6139 34.6275 12.8143 35.2563 13.6421C35.9171 14.5041 36.9232 15.0392 38.2472 15.0392C39.5711 15.0392 40.5772 14.5087 41.238 13.6421C41.8691 12.8189 42.2007 11.6185 42.2007 10.1711C42.2007 8.72822 41.8668 7.52776 41.238 6.70002C40.5749 5.83112 39.5688 5.30292 38.2472 5.30292Z" fill="#F7D7D0"/>
<path d="M53.4971 1.3418H58.9048C60.0596 1.3418 61.0108 1.45155 61.7562 1.67335C62.5016 1.89515 63.0916 2.19012 63.5237 2.56283C63.9582 2.93554 64.2577 3.37685 64.4246 3.88676C64.5916 4.39667 64.6762 4.94088 64.6762 5.51709C64.6762 6.26252 64.5047 6.9302 64.1617 7.52471C63.8187 8.11694 63.2219 8.61313 62.3713 9.00871C62.9178 9.22136 63.3705 9.46831 63.7295 9.74956C64.0862 10.0308 64.3766 10.3418 64.5961 10.6848C64.8156 11.0278 64.9688 11.3845 65.0535 11.7572C65.1358 12.1299 65.1792 12.514 65.1792 12.9096C65.1792 13.5796 65.0763 14.1992 64.8705 14.7686C64.6647 15.338 64.3355 15.8387 63.8782 16.264C63.4208 16.6893 62.8218 17.0255 62.0763 17.2678C61.3309 17.5102 60.4117 17.6337 59.3164 17.6337H53.4971V1.3418ZM59.1769 8.23127C60.4094 8.23127 61.292 8.00718 61.8225 7.55901C62.3553 7.11084 62.6205 6.45231 62.6205 5.58569C62.6205 4.70307 62.3347 4.06511 61.7653 3.66954C61.196 3.27396 60.2173 3.07731 58.834 3.07731H55.5481V8.23355H59.1769V8.23127ZM59.2455 15.8982C59.991 15.8982 60.6106 15.8296 61.1045 15.6924C61.5984 15.5552 61.994 15.3608 62.2913 15.1116C62.5885 14.8624 62.7943 14.5559 62.9064 14.1992C63.0207 13.8425 63.0778 13.4355 63.0778 12.9782C63.0778 12.0201 62.7966 11.2861 62.2341 10.7762C61.6716 10.2663 60.7272 10.0125 59.4056 10.0125H55.5504V15.8982H59.2455V15.8982Z" fill="#F7D7D0"/>
<path d="M67.5732 5.83691H69.558V13.2752C69.558 14.3704 69.7363 15.1456 70.0953 15.6029C70.452 16.0579 71.0351 16.2866 71.84 16.2866C72.7226 16.2866 73.5206 15.9665 74.2363 15.3285C74.6159 14.9947 74.9063 14.6403 75.103 14.2675C75.2996 13.8948 75.4002 13.4124 75.4002 12.8179V5.83691H77.385V17.6334H75.4231V15.8087C74.8446 16.5701 74.2203 17.1235 73.5526 17.4733C72.8827 17.8232 72.1601 17.9992 71.385 17.9992C70.0473 17.9992 69.0778 17.638 68.4764 16.9154C67.8751 16.1928 67.5755 15.109 67.5755 13.6639V5.83691H67.5732Z" fill="#F7D7D0"/>
<path d="M81.7202 14.1852C81.8574 15.0061 82.2027 15.58 82.7583 15.907C83.3139 16.234 84.0708 16.3986 85.0289 16.3986C86.0327 16.3986 86.7438 16.2271 87.1622 15.8841C87.5807 15.5411 87.7888 15.0884 87.7888 14.5259C87.7888 14.2972 87.7613 14.0823 87.7087 13.8765C87.6561 13.6707 87.5532 13.4878 87.4 13.33C87.2468 13.17 87.0342 13.0305 86.7621 12.907C86.4877 12.7858 86.131 12.6875 85.6897 12.6097L84.1828 12.3811C83.5129 12.2736 82.9275 12.1387 82.4267 11.9695C81.9237 11.8026 81.4984 11.5854 81.1486 11.3201C80.7987 11.0549 80.5358 10.7279 80.362 10.3392C80.1859 9.95045 80.099 9.48399 80.099 8.9375C80.099 8.391 80.2179 7.90396 80.4534 7.47637C80.689 7.05107 81.0159 6.68979 81.4344 6.39253C81.8528 6.09528 82.3467 5.86662 82.9184 5.70884C83.4877 5.54878 84.1074 5.46875 84.7773 5.46875C85.628 5.46875 86.3391 5.55335 86.9107 5.72028C87.4801 5.8872 87.9488 6.11586 88.3147 6.40396C88.6805 6.69207 88.9618 7.03506 89.1584 7.43064C89.3551 7.82622 89.5083 8.24466 89.6157 8.68597L87.8139 8.98323C87.7065 8.6631 87.5853 8.38185 87.4481 8.13948C87.3109 7.8971 87.1279 7.6936 86.9016 7.53582C86.6729 7.37576 86.3963 7.25457 86.0693 7.16997C85.7423 7.08765 85.3353 7.04421 84.8482 7.04421C84.3017 7.04421 83.8444 7.09451 83.4786 7.19283C83.1127 7.29344 82.82 7.42607 82.6005 7.59299C82.3787 7.75991 82.2232 7.94741 82.1318 8.15091C82.0403 8.35671 81.9946 8.57164 81.9946 8.8003C81.9946 9.04497 82.0243 9.2599 82.086 9.44969C82.1478 9.63948 82.2598 9.8064 82.429 9.95274C82.596 10.0968 82.8246 10.2226 83.1127 10.33C83.4008 10.4375 83.7735 10.529 84.2309 10.6044L85.9412 10.8788C87.3246 11.1075 88.317 11.503 88.9183 12.0655C89.5197 12.628 89.8192 13.4489 89.8192 14.5305C89.8192 15.0335 89.7209 15.4931 89.522 15.9116C89.3231 16.33 89.0281 16.6959 88.6325 17.0068C88.2369 17.3178 87.743 17.5625 87.1485 17.7363C86.5563 17.91 85.8635 17.9992 85.0723 17.9992C84.3566 17.9992 83.6912 17.9306 83.0761 17.7934C82.461 17.6562 81.9168 17.439 81.4458 17.1418C80.9748 16.8445 80.5929 16.4535 80.3048 15.9664C80.0167 15.4794 79.8475 14.8872 79.8018 14.1875H81.7202V14.1852Z" fill="#F7D7D0"/>
<path d="M92.3281 1.3418H94.45V3.64667H92.3281V1.3418ZM92.3967 5.83721H94.3814V17.6337H92.3967V5.83721Z" fill="#F7D7D0"/>
<path d="M97.4844 5.83753H99.4463V7.63936C100.025 6.86421 100.663 6.30857 101.362 5.97473C102.062 5.64089 102.801 5.47168 103.576 5.47168C104.913 5.47168 105.906 5.83753 106.553 6.56695C107.2 7.29637 107.522 8.36878 107.522 9.78417V17.634H105.538V10.1729C105.538 9.07762 105.339 8.30475 104.945 7.85658C104.55 7.40841 103.942 7.18433 103.121 7.18433C102.679 7.18433 102.243 7.25978 101.808 7.41299C101.374 7.56619 100.983 7.80856 100.633 8.14241C100.253 8.47625 99.963 8.83067 99.7664 9.20338C99.5674 9.5761 99.4691 10.0586 99.4691 10.6531V17.634H97.4844V5.83753V5.83753Z" fill="#F7D7D0"/>
<path d="M120.688 14.323C120.49 15.464 119.984 16.3604 119.172 17.0166C118.358 17.6706 117.19 17.9976 115.669 17.9976C113.874 17.9976 112.498 17.4534 111.54 16.3672C110.582 15.2788 110.102 13.7628 110.102 11.8147C110.102 10.7948 110.239 9.89164 110.513 9.10048C110.788 8.30933 111.172 7.64851 111.666 7.11573C112.159 6.58296 112.749 6.17594 113.433 5.8947C114.117 5.61345 114.862 5.47168 115.669 5.47168C116.582 5.47168 117.366 5.61573 118.02 5.90613C118.674 6.19424 119.209 6.59439 119.627 7.1043C120.046 7.61421 120.357 8.21787 120.563 8.91756C120.768 9.61725 120.871 10.3855 120.871 11.2224V12.2262H112.109C112.109 12.8185 112.189 13.3718 112.349 13.8794C112.509 14.3893 112.738 14.8307 113.033 15.2034C113.33 15.5761 113.698 15.8688 114.14 16.0814C114.581 16.2941 115.091 16.4015 115.669 16.4015C116.657 16.4015 117.38 16.2163 117.837 15.8436C118.294 15.4709 118.605 14.9656 118.772 14.3253H120.688V14.323ZM118.884 10.7422C118.884 10.1797 118.823 9.66984 118.701 9.21252C118.58 8.75749 118.39 8.36421 118.132 8.03722C117.874 7.71024 117.54 7.45643 117.128 7.27351C116.717 7.09058 116.223 6.99911 115.644 6.99911C114.595 6.99911 113.776 7.31924 113.191 7.95719C112.605 8.59515 112.258 9.5235 112.153 10.74H118.884V10.7422Z" fill="#F7D7D0"/>
<path d="M124.772 14.1852C124.909 15.0061 125.254 15.58 125.81 15.907C126.366 16.234 127.123 16.3986 128.081 16.3986C129.084 16.3986 129.796 16.2271 130.214 15.8841C130.632 15.5411 130.841 15.0884 130.841 14.5259C130.841 14.2972 130.813 14.0823 130.761 13.8765C130.708 13.6707 130.605 13.4878 130.452 13.33C130.299 13.17 130.086 13.0305 129.814 12.907C129.539 12.7858 129.183 12.6875 128.741 12.6097L127.235 12.3811C126.565 12.2736 125.979 12.1387 125.479 11.9695C124.975 11.8026 124.55 11.5854 124.2 11.3201C123.85 11.0549 123.587 10.7279 123.414 10.3392C123.238 9.95045 123.151 9.48399 123.151 8.9375C123.151 8.391 123.27 7.90396 123.505 7.47637C123.741 7.05107 124.068 6.68979 124.486 6.39253C124.905 6.09528 125.398 5.86662 125.97 5.70884C126.539 5.54878 127.159 5.46875 127.829 5.46875C128.68 5.46875 129.391 5.55335 129.962 5.72028C130.532 5.8872 131.001 6.11586 131.366 6.40396C131.732 6.69207 132.014 7.03506 132.21 7.43064C132.407 7.82622 132.56 8.24466 132.668 8.68597L130.866 8.98323C130.758 8.6631 130.637 8.38185 130.5 8.13948C130.363 7.8971 130.18 7.6936 129.953 7.53582C129.725 7.37576 129.448 7.25457 129.121 7.16997C128.794 7.08765 128.387 7.04421 127.9 7.04421C127.354 7.04421 126.896 7.09451 126.53 7.19283C126.164 7.29344 125.872 7.42607 125.652 7.59299C125.43 7.75991 125.275 7.94741 125.184 8.15091C125.092 8.35671 125.046 8.57164 125.046 8.8003C125.046 9.04497 125.076 9.2599 125.138 9.44969C125.2 9.63948 125.312 9.8064 125.481 9.95274C125.648 10.0968 125.876 10.2226 126.164 10.33C126.453 10.4375 126.825 10.529 127.283 10.6044L128.993 10.8788C130.376 11.1075 131.369 11.503 131.97 12.0655C132.571 12.628 132.871 13.4489 132.871 14.5305C132.871 15.0335 132.773 15.4931 132.574 15.9116C132.375 16.33 132.08 16.6959 131.684 17.0068C131.289 17.3178 130.795 17.5625 130.2 17.7363C129.608 17.91 128.915 17.9992 128.124 17.9992C127.408 17.9992 126.743 17.9306 126.128 17.7934C125.513 17.6562 124.969 17.439 124.498 17.1418C124.027 16.8445 123.645 16.4535 123.357 15.9664C123.068 15.4794 122.899 14.8872 122.854 14.1875H124.772V14.1852Z" fill="#F7D7D0"/>
<path d="M136.68 14.1852C136.817 15.0061 137.163 15.58 137.718 15.907C138.274 16.234 139.031 16.3986 139.989 16.3986C140.993 16.3986 141.704 16.2271 142.122 15.8841C142.541 15.5411 142.749 15.0884 142.749 14.5259C142.749 14.2972 142.721 14.0823 142.669 13.8765C142.616 13.6707 142.513 13.4878 142.36 13.33C142.207 13.17 141.994 13.0305 141.722 12.907C141.448 12.7858 141.091 12.6875 140.65 12.6097L139.143 12.3811C138.473 12.2736 137.887 12.1387 137.387 11.9695C136.884 11.8026 136.458 11.5854 136.109 11.3201C135.759 11.0549 135.496 10.7279 135.322 10.3392C135.146 9.95045 135.059 9.48399 135.059 8.9375C135.059 8.391 135.178 7.90396 135.413 7.47637C135.649 7.05107 135.976 6.68979 136.394 6.39253C136.813 6.09528 137.307 5.86662 137.878 5.70884C138.448 5.54878 139.067 5.46875 139.737 5.46875C140.588 5.46875 141.299 5.55335 141.871 5.72028C142.44 5.8872 142.909 6.11586 143.275 6.40396C143.641 6.69207 143.922 7.03506 144.118 7.43064C144.315 7.82622 144.468 8.24466 144.576 8.68597L142.774 8.98323C142.666 8.6631 142.545 8.38185 142.408 8.13948C142.271 7.8971 142.088 7.6936 141.862 7.53582C141.633 7.37576 141.356 7.25457 141.029 7.16997C140.702 7.08765 140.295 7.04421 139.808 7.04421C139.262 7.04421 138.804 7.09451 138.439 7.19283C138.073 7.29344 137.78 7.42607 137.561 7.59299C137.339 7.75991 137.183 7.94741 137.092 8.15091C137 8.35671 136.955 8.57164 136.955 8.8003C136.955 9.04497 136.984 9.2599 137.046 9.44969C137.108 9.63948 137.22 9.8064 137.389 9.95274C137.556 10.0968 137.785 10.2226 138.073 10.33C138.361 10.4375 138.734 10.529 139.191 10.6044L140.901 10.8788C142.285 11.1075 143.277 11.503 143.878 12.0655C144.48 12.628 144.779 13.4489 144.779 14.5305C144.779 15.0335 144.681 15.4931 144.482 15.9116C144.283 16.33 143.988 16.6959 143.592 17.0068C143.197 17.3178 142.703 17.5625 142.109 17.7363C141.516 17.91 140.823 17.9992 140.032 17.9992C139.317 17.9992 138.651 17.9306 138.036 17.7934C137.421 17.6562 136.877 17.439 136.406 17.1418C135.935 16.8445 135.553 16.4535 135.265 15.9664C134.977 15.4794 134.807 14.8872 134.762 14.1875H136.68V14.1852Z" fill="#F7D7D0"/>
</svg>
