<svg width="48" height="48" viewBox="0 0 48 48" fill="none" xmlns="http://www.w3.org/2000/svg">
<path fill-rule="evenodd" clip-rule="evenodd" d="M25.8461 5.58459V9.29536C33.12 10.2092 38.7692 16.4307 38.7692 23.9538C38.7692 32.0954 32.1415 38.7231 24 38.7231C15.8585 38.7231 9.23076 32.0954 9.23076 23.9538C9.23076 16.44 14.88 10.2092 22.1538 9.3046V25.7999H25.8461V9.29531C25.2335 9.22107 24.617 9.18408 24 9.18454C23.3826 9.18224 22.7657 9.22233 22.1538 9.30454V5.58459C12.84 6.5169 5.53845 14.4 5.53845 23.9538C5.53845 34.1354 13.8185 42.4154 24 42.4154C34.1815 42.4154 42.4615 34.1354 42.4615 23.9538C42.4615 14.4 35.16 6.5169 25.8461 5.58459ZM22.1538 33.2308V29.5385H25.8461V33.2308H22.1538Z" fill="#0F1A38"/>
</svg>
