<svg width="36" height="36" viewBox="0 0 36 36" fill="none" xmlns="http://www.w3.org/2000/svg">
<path d="M5.78571 6.10713C5.78571 5.21952 6.50526 4.49998 7.39286 4.49998H29.25C30.1376 4.49998 30.8571 5.21952 30.8571 6.10713V11.25H32.7857V6.10713C32.7857 4.1544 31.2027 2.57141 29.25 2.57141H7.39286C5.44014 2.57141 3.85714 4.1544 3.85714 6.10713V11.25H5.78571V6.10713Z" fill="#0F1A38"/>
<path d="M19.9348 15.3193V9.93727H18.1235V15.3193H19.9348Z" fill="#0F1A38"/>
<path fill-rule="evenodd" clip-rule="evenodd" d="M28.6032 30.3549L28.6032 9.39914C28.6032 8.52604 28.2531 7.68871 27.6297 7.07133C27.0064 6.45396 26.161 6.10712 25.2795 6.10712L12.0025 6.10712C11.1217 6.10949 10.2777 6.45709 9.65486 7.07395C9.03205 7.69081 8.6811 8.52677 8.67871 9.39914L8.67871 30.3549C8.6811 31.2273 9.03205 32.0633 9.65486 32.6801C10.2777 33.297 11.1217 33.6446 12.0025 33.6469H25.2795C26.161 33.6469 27.0064 33.3001 27.6297 32.6827C28.2531 32.0654 28.6032 31.228 28.6032 30.3549ZM26.7919 9.39914V30.3549C26.7919 30.7522 26.6326 31.1332 26.3489 31.4142C26.0653 31.6951 25.6806 31.8529 25.2795 31.8529H24.0749L24.0749 7.90114H25.2795C25.6806 7.90114 26.0653 8.05896 26.3489 8.33989C26.6326 8.62082 26.7919 9.00185 26.7919 9.39914ZM10.49 30.3549L10.49 9.39914C10.49 9.20242 10.5292 9.00763 10.6052 8.82588C10.6812 8.64413 10.7926 8.479 10.933 8.33989C11.0735 8.20079 11.2402 8.09045 11.4237 8.01517C11.6072 7.93989 11.8039 7.90114 12.0025 7.90114L22.2636 7.90114L22.2636 31.8529H12.0025C11.8039 31.8529 11.6072 31.8142 11.4237 31.7389C11.2402 31.6636 11.0735 31.5533 10.933 31.4142C10.7926 31.2751 10.6812 31.1099 10.6052 30.9282C10.5291 30.7464 10.49 30.5516 10.49 30.3549Z" fill="#0F1A38"/>
</svg>
