<svg width="48" height="48" viewBox="0 0 48 48" fill="none" xmlns="http://www.w3.org/2000/svg">
<path fill-rule="evenodd" clip-rule="evenodd" d="M35.0769 5.53845V11.0769H42.4615V20.3077C42.4591 22.2655 41.6803 24.1423 40.2959 25.5267C38.9116 26.911 37.0347 27.6899 35.0769 27.6923H34.44C33.7799 29.5526 32.6356 31.2031 31.1249 32.4736C29.6143 33.7441 27.792 34.5886 25.8461 34.92V38.7692H22.1538V34.92C20.208 34.5886 18.3857 33.7441 16.8751 32.4736C15.3644 31.2031 14.22 29.5526 13.56 27.6923H12.9231C10.9653 27.6899 9.08841 26.911 7.70405 25.5267C6.3197 24.1423 5.54089 22.2655 5.53845 20.3077V11.0769H12.9231V5.53845H35.0769ZM25.8461 38.7692H33.2308V42.4615H25.8461V38.7692ZM10.3122 22.9185C11.0047 23.611 11.9438 24 12.9231 24V14.7692H9.23076V20.3077C9.23076 21.2869 9.61977 22.2261 10.3122 22.9185ZM18.781 29.219C20.1653 30.6034 22.0422 31.3822 24 31.3846C25.9578 31.3822 27.8346 30.6034 29.219 29.219C30.6034 27.8346 31.3822 25.9578 31.3846 24V9.23076H16.6154V24C16.6178 25.9578 17.3966 27.8346 18.781 29.219ZM37.6878 22.9185C38.3802 22.2261 38.7692 21.2869 38.7692 20.3077V14.7692H35.0769V24C36.0562 24 36.9953 23.611 37.6878 22.9185ZM14.7692 38.7692H22.1538V42.4615H14.7692V38.7692Z" fill="#0F1A38"/>
</svg>
