<svg width="36" height="36" viewBox="0 0 36 36" fill="none" xmlns="http://www.w3.org/2000/svg">
<path d="M20.6912 14.2069C20.8076 14.2048 20.9232 14.2258 21.0308 14.2688C21.1382 14.3117 21.2353 14.3755 21.3163 14.4561C21.3995 14.5347 21.4652 14.6289 21.5094 14.7331C21.5537 14.8373 21.5754 14.9492 21.5733 15.0619L21.5733 15.0598L21.4215 15.061L21.5733 15.064L21.5733 15.0619C21.574 15.1738 21.5517 15.2847 21.5078 15.3882C21.4636 15.4924 21.3983 15.5869 21.3159 15.6662L21.3149 15.6671C21.1486 15.8243 20.9262 15.9131 20.6941 15.9151L20.6927 15.9151H15.3362C15.1048 15.9119 14.8833 15.8235 14.7167 15.6677L14.7128 15.6639C14.5521 15.5024 14.461 15.2875 14.4578 15.0631L14.4577 15.0597C14.4597 14.8345 14.5514 14.6188 14.7134 14.4575L14.7143 14.4566C14.7961 14.3766 14.8936 14.3133 15.0009 14.2704C15.1081 14.2276 15.223 14.206 15.3389 14.2069H20.6912Z" fill="#0F1A38"/>
<path fill-rule="evenodd" clip-rule="evenodd" d="M15.3304 18.134C15.2132 18.1308 15.0966 18.1512 14.9879 18.1939L14.9765 18.1983L14.966 18.2045C14.8699 18.2611 14.7855 18.3344 14.7169 18.4208C14.6387 18.5 14.5758 18.5923 14.5313 18.6933C14.4824 18.7983 14.4573 18.9122 14.4577 19.0274C14.4573 19.1426 14.4824 19.2566 14.5313 19.3616C14.5771 19.4654 14.6423 19.5601 14.7237 19.6409L14.7289 19.6458C14.8137 19.7221 14.9126 19.7821 15.0204 19.8226L15.0321 19.8269L15.0444 19.8294C15.1528 19.8512 15.2645 19.8522 15.3733 19.8325L24.7413 19.8423L24.7439 19.8423C24.8579 19.8405 24.9704 19.8162 25.0745 19.7709C25.1769 19.7263 25.2691 19.6622 25.3455 19.5825C25.4278 19.5062 25.493 19.4143 25.5371 19.3124C25.5816 19.2098 25.6036 19.0994 25.6018 18.9882C25.6036 18.8769 25.5816 18.7665 25.5371 18.6639C25.493 18.5621 25.4278 18.4701 25.3455 18.3938C25.2691 18.3141 25.1769 18.25 25.0745 18.2054C24.9704 18.1601 24.8579 18.1358 24.7439 18.1341L15.3304 18.134ZM25.6018 18.9882L25.6018 18.991L25.45 18.9882L25.6018 18.9854L25.6018 18.9882Z" fill="#0F1A38"/>
<path fill-rule="evenodd" clip-rule="evenodd" d="M22.412 6.78362C22.8939 6.383 23.6125 6.40977 24.0613 6.84506L26.2661 8.98358L28.3906 7.01717C29.1636 6.30171 30.4437 6.83313 30.4437 7.86947V24.0334C30.8899 27.3148 28.5759 28.9929 27.264 29.4355C27.1269 29.4817 26.9925 29.5 26.8683 29.5H9.20249C9.14399 29.5 9.08486 29.4959 9.02625 29.4875C7.16252 29.2216 6.20565 27.9647 5.79546 26.6697C5.39991 25.421 5.46302 24.0404 5.63 23.1087C5.73344 22.5316 6.25051 22.1369 6.82362 22.1369H9.69418V7.95302C9.69418 6.85115 11.1146 6.35234 11.8419 7.19882L13.2871 8.88093L15.2623 6.8687C15.7078 6.41478 16.4418 6.37869 16.9324 6.78657L19.6704 9.06289L22.412 6.78362ZM23.1601 8.74774L20.4609 10.9918C20.006 11.37 19.3348 11.37 18.88 10.9918L16.1985 8.76247L14.1265 10.8733C13.6258 11.3834 12.7786 11.3562 12.3138 10.8151L11.7185 10.1223V22.1369L23.3409 22.1369C23.8395 22.1369 24.2113 22.4189 24.3993 22.7303C24.5834 23.0353 24.6431 23.445 24.4697 23.8327C24.2854 24.2445 24.1577 24.9735 24.3193 25.7278C24.4603 26.3857 24.8142 27.0409 25.5368 27.5365H26.7178C27.4606 27.2326 28.7199 26.2463 28.4313 24.2509C28.4237 24.199 28.4194 24.1438 28.4194 24.0864V9.70458L27.0914 10.9338C26.6141 11.3755 25.8605 11.367 25.394 10.9145L23.1601 8.74774ZM7.54279 24.1004L22.3002 24.1004C22.192 24.7188 22.1861 25.4212 22.3373 26.1272C22.4386 26.6001 22.6118 27.079 22.874 27.5365H9.26621C8.43343 27.3989 7.98063 26.8826 7.73054 26.0931C7.53257 25.4681 7.4955 24.7402 7.54279 24.1004Z" fill="#0F1A38"/>
</svg>
