<svg width="48" height="48" viewBox="0 0 48 48" fill="none" xmlns="http://www.w3.org/2000/svg">
<path d="M32.8523 21.8861C33.9029 20.8616 34.6239 19.5469 34.9232 18.1102C35.2224 16.6736 35.0863 15.1804 34.5323 13.8215C33.9782 12.4627 33.0314 11.3 31.813 10.4822C30.5945 9.6644 29.1598 9.22868 27.6923 9.23076V5.53845H24V9.23076H20.3077V5.53845H16.6154V9.23076H11.0769V20.3077H14.7692V12.9231H27.6923C28.6716 12.9231 29.6107 13.3121 30.3032 14.0045C30.9956 14.697 31.3846 15.6361 31.3846 16.6154C31.3846 17.5946 30.9956 18.5338 30.3032 19.2262C29.6107 19.9187 28.6716 20.3077 27.6923 20.3077H14.7692V24H27.6923C29.1612 24 30.5699 24.5835 31.6086 25.6222C32.6473 26.6608 33.2308 28.0696 33.2308 29.5384C33.2308 31.0073 32.6473 32.4161 31.6086 33.4547C30.5699 34.4934 29.1612 35.0769 27.6923 35.0769H14.7692V24H11.0769V38.7692H16.6154V42.4615H20.3077V38.7692H24V42.4615H27.6923V38.7692C29.669 38.7687 31.5932 38.1338 33.182 36.9577C34.7707 35.7817 35.94 34.1268 36.5177 32.2365C37.0954 30.3461 37.0511 28.3203 36.3913 26.4571C35.7315 24.5938 34.4909 22.9916 32.8523 21.8861Z" fill="#0F1A38"/>
</svg>
