<svg width="36" height="36" viewBox="0 0 36 36" fill="none" xmlns="http://www.w3.org/2000/svg">
<path fill-rule="evenodd" clip-rule="evenodd" d="M31 18C31 25.1797 25.1797 31 18 31C10.8203 31 5 25.1797 5 18C5 10.8203 10.8203 5 18 5C25.1797 5 31 10.8203 31 18ZM29 18C29 15.4535 28.1347 13.1091 26.682 11.2447L10.7603 26.2819C12.6949 27.9744 15.2277 29 18 29C24.0751 29 29 24.0751 29 18ZM9.3802 24.8344C7.89007 22.9575 7 20.5827 7 18C7 11.9249 11.9249 7 18 7C20.8085 7 23.3712 8.05255 25.3151 9.7847L9.3802 24.8344Z" fill="#0F1A38"/>
</svg>
