<svg width="48" height="48" viewBox="0 0 48 48" fill="none" xmlns="http://www.w3.org/2000/svg">
<path fill-rule="evenodd" clip-rule="evenodd" d="M19.7692 6H24H28.8462C30.3151 6 31.7238 6.58351 32.7624 7.62218C33.8011 8.66084 34.3846 10.0696 34.3846 11.5385V15.2308H30.6923V11.5385C30.6899 11.0496 30.4946 10.5814 30.1489 10.2357C29.8032 9.89002 29.335 9.69473 28.8462 9.69231H24H19.7692C19.2804 9.69473 18.8122 9.89002 18.4665 10.2357C18.1208 10.5814 17.9255 11.0496 17.9231 11.5385V15.2308H14.2308V11.5385C14.2308 10.0696 14.8143 8.66084 15.853 7.62218C16.8916 6.58351 18.3003 6 19.7692 6ZM24 15.2308H17.9231V18.9231H24H30.6923V15.2308H24ZM11.5385 39.2311H24H37.0769C37.5666 39.2311 38.0361 39.0366 38.3824 38.6904C38.7286 38.3442 38.9231 37.8746 38.9231 37.385V20.7788C38.9231 20.2908 38.7298 19.8226 38.3856 19.4766C38.0414 19.1307 37.5742 18.9351 37.0862 18.9327H34.3754L34.3938 15.2404H37.0862C38.5535 15.2428 39.9598 15.8274 40.9965 16.8658C42.0331 17.9042 42.6154 19.3115 42.6154 20.7788V37.385C42.6154 38.8539 42.0319 40.2626 40.9932 41.3013C39.9545 42.3399 38.5458 42.9234 37.0769 42.9234H24H11.5385C10.0696 42.9234 8.66084 42.3399 7.62218 41.3013C6.58351 40.2626 6 38.8539 6 37.385V20.7788C6 19.3115 6.58225 17.9042 7.61891 16.8658C8.65558 15.8274 10.0619 15.2428 11.5292 15.2404H14.2215L14.24 18.9327H11.5292C11.0412 18.9351 10.574 19.1307 10.2298 19.4766C9.88554 19.8226 9.6923 20.2908 9.69231 20.7788V37.385C9.69231 37.8746 9.88681 38.3442 10.233 38.6904C10.5793 39.0366 11.0488 39.2311 11.5385 39.2311Z" fill="#0F1A38"/>
</svg>
