<svg width="48" height="48" viewBox="0 0 48 48" fill="none" xmlns="http://www.w3.org/2000/svg">
<path fill-rule="evenodd" clip-rule="evenodd" d="M11.0769 5.53845H37.8462C40.9015 5.53845 42.4615 8.02153 42.4615 11.0769V38.7692H38.7692V11.0769C38.7668 10.588 38.5715 10.1199 38.2258 9.77417C37.8801 9.42847 37.412 9.23319 36.9231 9.23076H11.0769C10.588 9.23319 10.1199 9.42847 9.77418 9.77417C9.42849 10.1199 9.2332 10.588 9.23077 11.0769V36.9231C9.2332 37.4119 9.42849 37.8801 9.77418 38.2258C10.1199 38.5715 10.588 38.7668 11.0769 38.7692H38.7692V42.4615H11.0769C9.60804 42.4615 8.19931 41.878 7.16065 40.8393C6.12198 39.8007 5.53847 38.392 5.53847 36.9231V11.0769C5.53847 9.60802 6.12198 8.19929 7.16065 7.16063C8.19931 6.12197 9.60804 5.53845 11.0769 5.53845ZM12.9231 12.9231H35.0769V16.6154H12.9231V12.9231ZM29.5385 30.4615V34.1539H35.0769V30.4615H29.5385ZM26.7692 23.0769C26.7692 24.6063 25.5294 25.8461 24 25.8461C22.4706 25.8461 21.2308 24.6063 21.2308 23.0769C21.2308 21.5475 22.4706 20.3077 24 20.3077C25.5294 20.3077 26.7692 21.5475 26.7692 23.0769ZM24 35.0769C25.5294 35.0769 26.7692 33.8371 26.7692 32.3077C26.7692 30.7783 25.5294 29.5385 24 29.5385C22.4706 29.5385 21.2308 30.7783 21.2308 32.3077C21.2308 33.8371 22.4706 35.0769 24 35.0769ZM18.4615 23.0769C18.4615 24.6063 17.2217 25.8461 15.6923 25.8461C14.1629 25.8461 12.9231 24.6063 12.9231 23.0769C12.9231 21.5475 14.1629 20.3077 15.6923 20.3077C17.2217 20.3077 18.4615 21.5475 18.4615 23.0769ZM32.3077 25.8461C33.8371 25.8461 35.0769 24.6063 35.0769 23.0769C35.0769 21.5475 33.8371 20.3077 32.3077 20.3077C30.7783 20.3077 29.5385 21.5475 29.5385 23.0769C29.5385 24.6063 30.7783 25.8461 32.3077 25.8461ZM18.4615 32.3077C18.4615 33.8371 17.2217 35.0769 15.6923 35.0769C14.1629 35.0769 12.9231 33.8371 12.9231 32.3077C12.9231 30.7783 14.1629 29.5385 15.6923 29.5385C17.2217 29.5385 18.4615 30.7783 18.4615 32.3077Z" fill="#0F1A38"/>
</svg>
