<svg width="36" height="36" viewBox="0 0 36 36" fill="none" xmlns="http://www.w3.org/2000/svg">
<path d="M29 7H26V4H24V7H12V4H10V7H7C6.20435 7 5.44129 7.31607 4.87868 7.87868C4.31607 8.44129 4 9.20435 4 10V29C4 29.7956 4.31607 30.5587 4.87868 31.1213C5.44129 31.6839 6.20435 32 7 32H29C29.7956 32 30.5587 31.6839 31.1213 31.1213C31.6839 30.5587 32 29.7956 32 29V10C32 9.20435 31.6839 8.44129 31.1213 7.87868C30.5587 7.31607 29.7956 7 29 7ZM7 9H10V12H12V9H24V12H26V9H29C29.2652 9 29.5196 9.10536 29.7071 9.29289C29.8946 9.48043 30 9.73478 30 10V15H6V10C6 9.73478 6.10536 9.48043 6.29289 9.29289C6.48043 9.10536 6.73478 9 7 9ZM29 30H7C6.73478 30 6.48043 29.8946 6.29289 29.7071C6.10536 29.5196 6 29.2652 6 29V17H30V29C30 29.2652 29.8946 29.5196 29.7071 29.7071C29.5196 29.8946 29.2652 30 29 30Z" fill="#0F1A38"/>
</svg>
