<svg width="36" height="36" viewBox="0 0 36 36" fill="none" xmlns="http://www.w3.org/2000/svg">
<path fill-rule="evenodd" clip-rule="evenodd" d="M18 13C14.6863 13 12 15.6863 12 19C12 22.3137 14.6863 25 18 25C21.3137 25 24 22.3137 24 19C24 15.6863 21.3137 13 18 13ZM14 19C14 16.7909 15.7909 15 18 15C20.2091 15 22 16.7909 22 19C22 21.2091 20.2091 23 18 23C15.7909 23 14 21.2091 14 19Z" fill="#0F1A38"/>
<path fill-rule="evenodd" clip-rule="evenodd" d="M16.6796 5C14.9812 5 13.3989 5.86218 12.4781 7.28937L11.7505 8.41713C11.5664 8.70256 11.2499 8.875 10.9102 8.875H8C5.23858 8.875 3 11.1136 3 13.875V25C3 27.7614 5.23858 30 8 30H28C30.7614 30 33 27.7614 33 25V13.875C33 11.1136 30.7614 8.875 28 8.875H25.0898C24.7501 8.875 24.4336 8.70256 24.2495 8.41713L23.5219 7.28937C22.6011 5.86218 21.0188 5 19.3204 5H16.6796ZM14.1587 8.37362C14.7111 7.51731 15.6605 7 16.6796 7H19.3204C20.3395 7 21.2889 7.51731 21.8413 8.37362L22.5689 9.50138C23.1214 10.3577 24.0707 10.875 25.0898 10.875H28C29.6569 10.875 31 12.2181 31 13.875V25C31 26.6569 29.6569 28 28 28H8C6.34315 28 5 26.6569 5 25V13.875C5 12.2181 6.34315 10.875 8 10.875H10.9102C11.9293 10.875 12.8786 10.3577 13.4311 9.50138L14.1587 8.37362Z" fill="#0F1A38"/>
</svg>
