<svg width="36" height="36" viewBox="0 0 36 36" fill="none" xmlns="http://www.w3.org/2000/svg">
<path d="M7 17H13V19H7V17Z" fill="#0F1A38"/>
<path fill-rule="evenodd" clip-rule="evenodd" d="M5.67 7H30.33C31.3033 7 32.2368 7.38666 32.9251 8.07492C33.6133 8.76318 34 9.69666 34 10.67V25.33C33.9974 26.3025 33.6099 27.2345 32.9222 27.9222C32.2345 28.6099 31.3025 28.9974 30.33 29H5.67C4.69747 28.9974 3.76552 28.6099 3.07783 27.9222C2.39015 27.2345 2.00264 26.3025 2 25.33V10.67C2 9.69666 2.38666 8.76318 3.07492 8.07492C3.76318 7.38666 4.69666 7 5.67 7ZM30.33 9H5.67C5.22709 9 4.80232 9.17595 4.48913 9.48913C4.17595 9.80232 4 10.2271 4 10.67V12H32V10.67C32 10.2271 31.8241 9.80232 31.5109 9.48913C31.1977 9.17595 30.7729 9 30.33 9ZM5.67 27H30.33C30.5493 27 30.7665 26.9568 30.9691 26.8729C31.1717 26.789 31.3558 26.6659 31.5109 26.5109C31.6659 26.3558 31.789 26.1717 31.8729 25.9691C31.9568 25.7665 32 25.5493 32 25.33V14H4V25.33C4 25.5493 4.0432 25.7665 4.12712 25.9691C4.21105 26.1717 4.33406 26.3558 4.48913 26.5109C4.64421 26.6659 4.8283 26.789 5.03092 26.8729C5.23353 26.9568 5.45069 27 5.67 27Z" fill="#0F1A38"/>
</svg>
