<svg width="36" height="36" viewBox="0 0 36 36" fill="none" xmlns="http://www.w3.org/2000/svg">
<path d="M5.5 6C5.5 4.34315 6.84315 3 8.5 3H27.5C29.1569 3 30.5 4.34315 30.5 6V8H28.5V6C28.5 5.44771 28.0523 5 27.5 5H8.5C7.94772 5 7.5 5.44772 7.5 6V8H5.5V6Z" fill="#0F1A38"/>
<path fill-rule="evenodd" clip-rule="evenodd" d="M18 17C16.067 17 14.5 18.567 14.5 20.5C14.5 22.433 16.067 24 18 24C19.933 24 21.5 22.433 21.5 20.5C21.5 18.567 19.933 17 18 17ZM16.5 20.5C16.5 19.6716 17.1716 19 18 19C18.8284 19 19.5 19.6716 19.5 20.5C19.5 21.3284 18.8284 22 18 22C17.1716 22 16.5 21.3284 16.5 20.5Z" fill="#0F1A38"/>
<path d="M19.5 13.5C19.5 14.3284 18.8284 15 18 15C17.1716 15 16.5 14.3284 16.5 13.5C16.5 12.6716 17.1716 12 18 12C18.8284 12 19.5 12.6716 19.5 13.5Z" fill="#0F1A38"/>
<path d="M18 29C18.8284 29 19.5 28.3284 19.5 27.5C19.5 26.6716 18.8284 26 18 26C17.1716 26 16.5 26.6716 16.5 27.5C16.5 28.3284 17.1716 29 18 29Z" fill="#0F1A38"/>
<path fill-rule="evenodd" clip-rule="evenodd" d="M10.5 10C10.5 8.89543 11.3954 8 12.5 8H23.5C24.6046 8 25.5 8.89543 25.5 10V31C25.5 32.1046 24.6046 33 23.5 33H12.5C11.3954 33 10.5 32.1046 10.5 31V10ZM23.5 10H12.5V31H23.5V10Z" fill="#0F1A38"/>
</svg>
