<svg width="36" height="36" viewBox="0 0 36 36" fill="none" xmlns="http://www.w3.org/2000/svg">
<path fill-rule="evenodd" clip-rule="evenodd" d="M8.5 9C8.5 7.89543 9.39543 7 10.5 7H30.5C31.6046 7 32.5 7.89543 32.5 9V21C32.5 22.1046 31.6046 23 30.5 23H15.5V26C15.5 26.6397 15.1718 27.148 14.7942 27.505C14.4187 27.8601 13.9291 28.1338 13.4069 28.3427C12.3571 28.7626 10.9754 29 9.5 29C8.02464 29 6.6429 28.7626 5.59308 28.3427C5.07094 28.1338 4.58129 27.8601 4.20582 27.505C3.82823 27.148 3.5 26.6397 3.5 26V18C3.5 17.3603 3.82823 16.852 4.20582 16.495C4.58129 16.1399 5.07094 15.8662 5.59308 15.6573C6.4015 15.3339 7.40674 15.1188 8.5 15.037V9ZM10.5 15.037C11.5933 15.1188 12.5985 15.3339 13.4069 15.6573C13.9291 15.8662 14.4187 16.1399 14.7942 16.495C15.1718 16.852 15.5 17.3603 15.5 18V21H30.5V9H10.5V15.037ZM13.5 20.3046C13.4691 20.3175 13.4381 20.3302 13.4069 20.3427C12.3571 20.7626 10.9754 21 9.5 21C8.02464 21 6.6429 20.7626 5.59308 20.3427C5.56193 20.3302 5.5309 20.3175 5.5 20.3046V21.9618C5.51109 21.9787 5.5344 22.0088 5.58003 22.0519C5.71059 22.1754 5.95317 22.3327 6.33586 22.4857C7.09568 22.7897 8.21394 23 9.5 23C10.7861 23 11.9043 22.7897 12.6641 22.4857C13.0468 22.3327 13.2894 22.1754 13.42 22.0519C13.4656 22.0088 13.4889 21.9787 13.5 21.9618V20.3046ZM13.5 24.3046C13.4691 24.3175 13.4381 24.3302 13.4069 24.3427C12.3571 24.7626 10.9754 25 9.5 25C8.02464 25 6.6429 24.7626 5.59308 24.3427C5.56193 24.3302 5.5309 24.3175 5.5 24.3046V25.9618C5.51109 25.9787 5.5344 26.0088 5.58003 26.0519C5.71059 26.1754 5.95317 26.3327 6.33586 26.4857C7.09568 26.7897 8.21394 27 9.5 27C10.7861 27 11.9043 26.7897 12.6641 26.4857C13.0468 26.3327 13.2894 26.1754 13.42 26.0519C13.4656 26.0088 13.4889 25.9787 13.5 25.9618V24.3046ZM5.52965 18C5.54225 18.0144 5.55871 18.0318 5.58003 18.0519C5.71059 18.1754 5.95317 18.3327 6.33586 18.4857C7.09568 18.7897 8.21394 19 9.5 19C10.7861 19 11.9043 18.7897 12.6641 18.4857C13.0468 18.3327 13.2894 18.1754 13.42 18.0519C13.4413 18.0318 13.4577 18.0144 13.4704 18C13.4577 17.9855 13.4413 17.9682 13.42 17.9481C13.2894 17.8246 13.0468 17.6673 12.6641 17.5143C11.9043 17.2103 10.7861 17 9.5 17C8.21394 17 7.09568 17.2103 6.33586 17.5143C5.95317 17.6673 5.71059 17.8246 5.58003 17.9481C5.55871 17.9682 5.54225 17.9855 5.52965 18ZM20.5 13C19.3954 13 18.5 13.8954 18.5 15C18.5 16.1046 19.3954 17 20.5 17C21.6046 17 22.5 16.1046 22.5 15C22.5 13.8954 21.6046 13 20.5 13ZM16.5 15C16.5 12.7909 18.2909 11 20.5 11C22.7091 11 24.5 12.7909 24.5 15C24.5 17.2091 22.7091 19 20.5 19C18.2909 19 16.5 17.2091 16.5 15Z" fill="#0F1A38"/>
</svg>
