<svg width="36" height="36" viewBox="0 0 36 36" fill="none" xmlns="http://www.w3.org/2000/svg">
<path d="M7.53571 4.49998C6.64811 4.49998 5.92857 5.21952 5.92857 6.10713V11.25H4V6.10713C4 4.1544 5.58299 2.57141 7.53571 2.57141H28.6071C30.5599 2.57141 32.1429 4.1544 32.1429 6.10713V11.25H30.2143V6.10713C30.2143 5.21952 29.4947 4.49998 28.6071 4.49998H7.53571Z" fill="#0F1A38"/>
<path fill-rule="evenodd" clip-rule="evenodd" d="M18.1429 18C20.352 18 22.1429 16.2091 22.1429 14C22.1429 11.7909 20.352 10 18.1429 10C15.9337 10 14.1429 11.7909 14.1429 14C14.1429 16.2091 15.9337 18 18.1429 18ZM18.1429 16C19.2474 16 20.1429 15.1046 20.1429 14C20.1429 12.8954 19.2474 12 18.1429 12C17.0383 12 16.1429 12.8954 16.1429 14C16.1429 15.1046 17.0383 16 18.1429 16Z" fill="#0F1A38"/>
<path d="M22.1429 24V29H24.1429V24H22.1429Z" fill="#0F1A38"/>
<path fill-rule="evenodd" clip-rule="evenodd" d="M8.14286 9C8.14286 7.34315 9.486 6 11.1429 6H25.1429C26.7997 6 28.1429 7.34315 28.1429 9V31C28.1429 32.6569 26.7997 34 25.1429 34H11.1429C9.486 34 8.14286 32.6569 8.14286 31V9ZM11.1429 8H25.1429C25.6951 8 26.1429 8.44771 26.1429 9V31C26.1429 31.5523 25.6951 32 25.1429 32H11.1429C10.5906 32 10.1429 31.5523 10.1429 31V9C10.1429 8.44772 10.5906 8 11.1429 8Z" fill="#0F1A38"/>
</svg>
