<svg width="48" height="48" viewBox="0 0 48 48" fill="none" xmlns="http://www.w3.org/2000/svg">
<path fill-rule="evenodd" clip-rule="evenodd" d="M23.0812 5.92577C17.6914 10.1288 13.3263 15.5008 10.315 21.6365C7.31637 27.7773 5.75387 34.5197 5.74579 41.3535V42.4612H9.4381V41.3535C9.44689 35.0831 10.8799 28.8967 13.6289 23.2612C16.1049 18.2166 19.5816 13.7286 23.8473 10.0704C24.0884 10.63 24.211 11.2334 24.2073 11.8427V14.7688C24.2076 15.1811 24.346 15.5815 24.6003 15.906C24.8545 16.2306 25.2101 16.4607 25.6104 16.5596L29.1642 17.4458C31.1835 17.9511 32.9413 19.1922 34.0935 20.9258L35.5981 23.1781C35.777 23.4451 36.0218 23.6613 36.3089 23.8058L38.5704 24.9319L36.9827 29.6858C36.5927 30.8659 35.9096 31.9278 34.9975 32.7721C34.0854 33.6164 32.974 34.2156 31.7673 34.5135L31.5919 34.5596V38.3627L32.6627 38.095C34.4741 37.6484 36.1425 36.7493 37.5115 35.482C38.8806 34.2146 39.9056 32.6204 40.4904 30.8488L42.0689 26.1042C42.3497 25.262 42.3176 24.3468 41.9786 23.5263C41.6395 22.7057 41.0162 22.0349 40.2227 21.6365L38.395 20.7227L37.1673 18.8765C35.505 16.3789 32.9704 14.5916 30.0596 13.8642L27.8996 13.3288V11.8427C27.905 10.7726 27.6972 9.71207 27.2883 8.72311C26.8794 7.73416 26.2776 6.83656 25.5181 6.08269C25.2017 5.76247 24.7787 5.56959 24.3295 5.54066C23.8802 5.51174 23.436 5.64878 23.0812 5.92577ZM28.8228 24C27.8032 24 26.9766 23.1735 26.9766 22.1539C26.9766 21.1343 27.8032 20.3077 28.8228 20.3077C29.8424 20.3077 30.6689 21.1343 30.6689 22.1539C30.6689 23.1735 29.8424 24 28.8228 24ZM27.8996 38.3625L31.5919 38.3627L31.5919 42.4601H27.8996V38.3625Z" fill="#0F1A38"/>
</svg>
