<svg width="48" height="48" viewBox="0 0 48 48" fill="none" xmlns="http://www.w3.org/2000/svg">
<path fill-rule="evenodd" clip-rule="evenodd" d="M21.8676 5.53846H26.1322C27.0042 5.53737 27.8482 5.8457 28.5142 6.40857C29.1802 6.97143 29.6249 7.75233 29.7691 8.6123L35.0583 38.7692H31.3106L28.0706 20.2892L19.9291 20.3169L16.6891 38.7692H12.9414L18.2306 8.6123C18.3749 7.75233 18.8196 6.97143 19.4855 6.40857C20.1515 5.8457 20.9956 5.53737 21.8676 5.53846ZM21.8676 9.24922L20.5753 16.6246L27.4245 16.5969L26.1322 9.23076H21.8676V9.24922ZM12.2954 42.4616H7.38464V38.7693H12.9416L12.2954 42.4616ZM35.0586 38.7693L35.7047 42.4616H40.6155V38.7693H35.0586ZM31.9571 42.4616H16.0432L16.6894 38.7693H31.3109L31.9571 42.4616Z" fill="#0F1A38"/>
</svg>
