<svg width="36" height="36" viewBox="0 0 36 36" fill="none" xmlns="http://www.w3.org/2000/svg">
<path fill-rule="evenodd" clip-rule="evenodd" d="M8.99995 4C6.24769 4 4 6.24769 4 8.99995V20.9998C4 23.7521 6.24769 25.9998 8.99995 25.9998H24.5856L30.2926 31.7068C30.5786 31.9928 31.0087 32.0784 31.3824 31.9236C31.7561 31.7688 31.9997 31.4042 31.9997 30.9997V8.99995C31.9997 6.24769 29.752 4 26.9998 4H8.99995ZM5.99998 8.99995C5.99998 7.35225 7.35225 5.99998 8.99995 5.99998H26.9998C28.6475 5.99998 29.9998 7.35225 29.9998 8.99995V28.5856L25.7069 24.2927C25.5194 24.1052 25.265 23.9998 24.9998 23.9998H8.99995C7.35225 23.9998 5.99998 22.6475 5.99998 20.9998V8.99995ZM14.0014 15C14.0014 15.8284 13.3299 16.5 12.5015 16.5C11.673 16.5 11.0015 15.8284 11.0015 15C11.0015 14.1716 11.673 13.5 12.5015 13.5C13.3299 13.5 14.0014 14.1716 14.0014 15ZM18 16.5C18.8284 16.5 19.5 15.8284 19.5 15C19.5 14.1716 18.8284 13.5 18 13.5C17.1716 13.5 16.5 14.1716 16.5 15C16.5 15.8284 17.1716 16.5 18 16.5ZM24.9995 15C24.9995 15.8284 24.3279 16.5 23.4995 16.5C22.6711 16.5 21.9995 15.8284 21.9995 15C21.9995 14.1716 22.6711 13.5 23.4995 13.5C24.3279 13.5 24.9995 14.1716 24.9995 15Z" fill="#0F1A38"/>
</svg>
