<svg width="36" height="36" viewBox="0 0 36 36" fill="none" xmlns="http://www.w3.org/2000/svg">
<path d="M14.2935 10.7887C14.4959 10.6534 14.734 10.5812 14.9775 10.5812C15.3041 10.5812 15.6172 10.711 15.8481 10.9419C16.079 11.1728 16.2088 11.4859 16.2088 11.8125C16.2088 12.056 16.1365 12.2941 16.0013 12.4965C15.866 12.699 15.6737 12.8568 15.4487 12.95C15.2237 13.0432 14.9761 13.0676 14.7373 13.0201C14.4985 12.9726 14.2791 12.8553 14.1069 12.6831C13.9347 12.5109 13.8174 12.2915 13.7699 12.0527C13.7224 11.8139 13.7468 11.5663 13.84 11.3413C13.9332 11.1163 14.091 10.924 14.2935 10.7887Z" fill="#0F1A38"/>
<path d="M20.316 10.7887C20.5184 10.6534 20.7565 10.5812 21 10.5812C21.3266 10.5812 21.6397 10.711 21.8706 10.9419C22.1015 11.1728 22.2313 11.4859 22.2313 11.8125C22.2313 12.056 22.159 12.2941 22.0238 12.4965C21.8885 12.699 21.6962 12.8568 21.4712 12.95C21.2462 13.0432 20.9986 13.0676 20.7598 13.0201C20.521 12.9726 20.3016 12.8553 20.1294 12.6831C19.9572 12.5109 19.8399 12.2915 19.7924 12.0527C19.7449 11.8139 19.7693 11.5663 19.8625 11.3413C19.9557 11.1163 20.1135 10.924 20.316 10.7887Z" fill="#0F1A38"/>
<path d="M26.3385 10.7887C26.5409 10.6534 26.779 10.5812 27.0225 10.5812C27.3491 10.5812 27.6622 10.711 27.8931 10.9419C28.124 11.1728 28.2538 11.4859 28.2538 11.8125C28.2538 12.056 28.1816 12.2941 28.0463 12.4965C27.911 12.699 27.7187 12.8568 27.4937 12.95C27.2687 13.0432 27.0211 13.0676 26.7823 13.0201C26.5435 12.9726 26.3241 12.8553 26.1519 12.6831C25.9797 12.5109 25.8624 12.2915 25.8149 12.0527C25.7674 11.8139 25.7918 11.5663 25.885 11.3413C25.9782 11.1163 26.136 10.924 26.3385 10.7887Z" fill="#0F1A38"/>
<path fill-rule="evenodd" clip-rule="evenodd" d="M8.00001 18C8.001 19.0606 8.42275 20.0774 9.17268 20.8273C9.92261 21.5773 10.9395 21.999 12 22H26.6381L32.36 26.7681C32.5397 26.9179 32.7661 26.9999 33 27C33.1464 26.9997 33.2909 26.9677 33.4238 26.9062C33.5961 26.8256 33.7418 26.6976 33.8439 26.537C33.9459 26.3765 34.0001 26.1902 34 26V6C33.999 4.93944 33.5773 3.9226 32.8273 3.17267C32.0774 2.42274 31.0606 2.00099 30 2H12C10.9395 2.00099 9.92261 2.42274 9.17268 3.17267C8.42275 3.9226 8.001 4.93944 8.00001 6V18ZM10 6C10 5.46957 10.2107 4.96086 10.5858 4.58579C10.9609 4.21071 11.4696 4 12 4H30C30.5304 4 31.0392 4.21071 31.4142 4.58579C31.7893 4.96086 32 5.46957 32 6V23.8662L27.64 20.2319C27.4604 20.0821 27.2339 20.0001 27 20H12C11.4696 20 10.9609 19.7893 10.5858 19.4142C10.2107 19.0391 10 18.5304 10 18V6Z" fill="#0F1A38"/>
<path d="M2 14V33C1.99976 33.1885 2.05282 33.3732 2.15303 33.5329C2.25325 33.6926 2.39656 33.8206 2.56642 33.9024C2.73629 33.9841 2.9258 34.0162 3.1131 33.9948C3.30039 33.9735 3.47785 33.8997 3.625 33.7819L8.35188 30H22C23.0606 29.999 24.0774 29.5773 24.8273 28.8273C25.5773 28.0774 25.999 27.0606 26 26V25C26 24.7348 25.8946 24.4804 25.7071 24.2929C25.5196 24.1054 25.2652 24 25 24C24.7348 24 24.4804 24.1054 24.2929 24.2929C24.1054 24.4804 24 24.7348 24 25V26C24 26.5304 23.7893 27.0391 23.4142 27.4142C23.0391 27.7893 22.5304 28 22 28H8C7.77302 28.0001 7.55275 28.077 7.375 28.2181L4 30.9181V14C4 13.4696 4.21071 12.9609 4.58579 12.5858C4.96086 12.2107 5.46957 12 6 12C6.26522 12 6.51957 11.8946 6.70711 11.7071C6.89464 11.5196 7 11.2652 7 11C7 10.7348 6.89464 10.4804 6.70711 10.2929C6.51957 10.1054 6.26522 10 6 10C4.93944 10.001 3.9226 10.4227 3.17267 11.1727C2.42274 11.9226 2.00099 12.9394 2 14Z" fill="#0F1A38"/>
</svg>
