<svg width="36" height="36" viewBox="0 0 36 36" fill="none" xmlns="http://www.w3.org/2000/svg">
<path d="M16.1491 17.8986C15.9298 17.8986 15.7194 17.8116 15.5642 17.6568C15.4091 17.5019 15.322 17.2919 15.322 17.073C15.322 16.854 15.4091 16.644 15.5642 16.4891C15.7194 16.3343 15.9298 16.2473 16.1491 16.2473H29.9211C30.1404 16.2473 30.3508 16.3343 30.506 16.4891C30.6611 16.644 30.7482 16.854 30.7482 17.073C30.7482 17.2919 30.6611 17.5019 30.506 17.6568C30.3508 17.8116 30.1404 17.8986 29.9211 17.8986H16.1491Z" fill="#0F1A38"/>
<path d="M15.5642 22.0553C15.7194 22.2102 15.9298 22.2971 16.1491 22.2971H29.9211C30.1404 22.2971 30.3508 22.2102 30.506 22.0553C30.6611 21.9005 30.7482 21.6905 30.7482 21.4715C30.7482 21.2525 30.6611 21.0425 30.506 20.8877C30.3508 20.7329 30.1404 20.6459 29.9211 20.6459H16.1491C15.9298 20.6459 15.7194 20.7329 15.5642 20.8877C15.4091 21.0425 15.322 21.2525 15.322 21.4715C15.322 21.6905 15.4091 21.9005 15.5642 22.0553Z" fill="#0F1A38"/>
<path fill-rule="evenodd" clip-rule="evenodd" d="M7.81772 28.3448C7.32455 28.3443 6.85173 28.1485 6.50301 27.8004C6.15429 27.4524 5.95814 26.9804 5.95759 26.4882V23.9463H2.86013C2.36696 23.9457 1.89414 23.75 1.54542 23.4019C1.1967 23.0538 1.00054 22.5819 1 22.0897V9.85662C1.00054 9.36438 1.1967 8.89246 1.54542 8.54439C1.89414 8.19633 2.36696 8.00054 2.86013 8H8.98852C9.62281 8.00014 10.2411 8.19893 10.7562 8.56838C11.2713 8.93782 11.6572 9.45928 11.8596 10.0593L11.907 10.1962H33.8458C34.3393 10.1969 34.8125 10.3931 35.1612 10.7417C35.51 11.0904 35.7059 11.5629 35.7059 12.0555V26.4882C35.7053 26.9804 35.5092 27.4524 35.1605 27.8004C34.8117 28.1485 34.3389 28.3443 33.8458 28.3448H7.81772ZM7.61195 26.6936H7.81772C8.00839 26.6936 8.17781 26.6936 8.33007 26.6984H8.67302C9.28003 26.6984 9.60994 26.6395 9.96111 26.2876C10.1533 26.1001 10.2846 25.8591 10.3378 25.5962C10.391 25.3332 10.3637 25.0603 10.2595 24.813C10.1532 24.553 9.97076 24.3312 9.73601 24.1765C9.50127 24.0219 9.22518 23.9416 8.94394 23.9463H7.61195V26.6936ZM12.0188 12.0555C12.0188 14.8932 12.0188 17.1435 12.0236 18.9344C12.0325 25.7988 12.0304 25.868 11.8391 26.3547L11.7067 26.697H34.0515V11.8502H12.0188V12.0555ZM7.54542 22.2868C9.51117 22.2868 9.59828 22.3211 10.0832 22.5141L10.3651 22.6264V11.0245C10.3647 10.6604 10.2197 10.3113 9.96171 10.0539C9.70376 9.79641 9.35401 9.65161 8.98921 9.65124H2.65436V22.295H2.86013C4.19316 22.295 5.25333 22.295 6.10506 22.2896L6.37932 22.2889C6.82774 22.2878 7.21285 22.2868 7.54542 22.2868Z" fill="#0F1A38"/>
</svg>
