<svg width="36" height="36" viewBox="0 0 36 36" fill="none" xmlns="http://www.w3.org/2000/svg">
<path d="M24.8247 13.5655C25.1371 13.11 25.021 12.4876 24.5655 12.1752C24.11 11.8629 23.4876 11.979 23.1753 12.4344L16.9702 21.4837L12.6764 17.5409C12.2696 17.1674 11.637 17.1943 11.2634 17.6011C10.8899 18.0079 10.9169 18.6405 11.3236 19.014L17.3157 24.5163L24.8247 13.5655Z" fill="#0F1A38"/>
<path fill-rule="evenodd" clip-rule="evenodd" d="M18 3C9.7159 3 3 9.7159 3 18C3 26.2841 9.7159 33 18 33C26.2841 33 33 26.2841 33 18C33 9.7159 26.2841 3 18 3ZM5 18C5 10.8205 10.8205 5 18 5C25.1795 5 31 10.8205 31 18C31 25.1795 25.1795 31 18 31C10.8205 31 5 25.1795 5 18Z" fill="#0F1A38"/>
</svg>
