<svg width="36" height="36" viewBox="0 0 36 36" fill="none" xmlns="http://www.w3.org/2000/svg">
<path fill-rule="evenodd" clip-rule="evenodd" d="M8.5 29H20.5V7H8.5V29ZM27.5 29H22.5V7H27.5V29ZM27.5 31C28.6046 31 29.5 30.1046 29.5 29V7C29.5 5.89545 28.6046 5 27.5 5H8.5C7.39545 5 6.5 5.89542 6.5 7V29C6.5 30.1046 7.39542 31 8.5 31H27.5ZM11.5531 17.5391C11.2653 17.7789 11.2653 18.2211 11.5531 18.4609L16.0159 22.1799C16.4067 22.5056 17 22.2277 17 21.719V14.281C17 13.7723 16.4067 13.4944 16.0159 13.8201L11.5531 17.5391Z" fill="#0F1A38"/>
</svg>
