<svg width="48" height="48" viewBox="0 0 48 48" fill="none" xmlns="http://www.w3.org/2000/svg">
<path fill-rule="evenodd" clip-rule="evenodd" d="M12.9508 20.0004C14.5652 23.4587 18.0678 25.8403 22.1537 25.8403C22.1537 29.4402 19.2922 32.3017 15.6922 32.3017C12.0922 32.3017 9.23064 29.4402 9.23064 25.8402C9.23064 23.3368 10.7269 21.0828 12.9508 20.0004ZM12.0221 16.3677C12.0074 16.1426 11.9999 15.9154 11.9999 15.6864C11.9999 10.0557 16.523 5.53259 22.1537 5.53259C26.3763 5.53259 30.0988 8.17566 31.6246 12.0165C31.8502 12.0017 32.078 11.9941 32.3075 11.9941C37.9383 11.9941 42.4614 16.5172 42.4614 22.148C42.4614 26.3705 39.8184 30.0929 35.9777 31.6188C35.9925 31.8444 36 32.0722 36 32.3018C36 37.9326 31.477 42.4556 25.8462 42.4556C21.6236 42.4556 17.9011 39.8125 16.3753 35.9717C16.1496 35.9865 15.9218 35.994 15.6922 35.994C10.0614 35.994 5.53833 31.471 5.53833 25.8402C5.53833 21.6404 8.15301 17.8646 12.0221 16.3677ZM19.9802 35.0552C23.4525 33.4462 25.846 29.9363 25.846 25.8402L22.1537 25.8403V22.148L25.846 22.148C25.846 18.548 28.7075 15.6864 32.3075 15.6864C35.9075 15.6864 38.7691 18.548 38.7691 22.148C38.7691 24.7426 37.255 26.9587 35.0612 28.0139C33.4523 24.5415 29.9421 22.148 25.846 22.148L25.846 25.8402C29.446 25.8402 32.3077 28.7018 32.3077 32.3018C32.3077 35.9018 29.4462 38.7633 25.8462 38.7633C23.2515 38.7633 21.0353 37.2491 19.9802 35.0552ZM28.0269 12.9295C26.958 10.6888 24.6832 9.2249 22.1537 9.2249C18.5537 9.2249 15.6922 12.0864 15.6922 15.6864C15.6922 19.2864 18.5537 22.148 22.1537 22.148C22.1537 18.049 24.5506 14.537 28.0269 12.9295Z" fill="#0F1A38"/>
</svg>
