<svg width="36" height="36" viewBox="0 0 36 36" fill="none" xmlns="http://www.w3.org/2000/svg">
<path d="M27 11.9712H26.94C26.6855 9.77626 25.6342 7.75142 23.9859 6.28173C22.3376 4.81204 20.2073 4 18 4C15.7927 4 13.6624 4.81204 12.0141 6.28173C10.3658 7.75142 9.31445 9.77626 9.06 11.9712H9C7.67392 11.9712 6.40215 12.4986 5.46447 13.4373C4.52678 14.376 4 15.6492 4 16.9767C4 18.3043 4.52678 19.5774 5.46447 20.5161C6.40215 21.4549 7.67392 21.9822 9 21.9822H11V12.9723C11 11.1138 11.7375 9.33135 13.0503 8.01716C14.363 6.70296 16.1435 5.96466 18 5.96466C19.8565 5.96466 21.637 6.70296 22.9497 8.01716C24.2625 9.33135 25 11.1138 25 12.9723V22.9833C24.9993 23.9005 24.6841 24.7897 24.1071 25.5022C23.5301 26.2147 22.7263 26.7073 21.83 26.8976C21.5631 25.9603 20.9638 25.1527 20.1446 24.6261C19.3254 24.0995 18.3425 23.89 17.3801 24.037C16.4177 24.184 15.5419 24.6773 14.9168 25.4244C14.2917 26.1716 13.9602 27.1214 13.9846 28.0957C14.0089 29.07 14.3873 30.002 15.0489 30.7169C15.7105 31.4319 16.6099 31.8808 17.5785 31.9794C18.547 32.0781 19.5182 31.8197 20.3101 31.2528C21.102 30.6858 21.6602 29.8492 21.88 28.8998C23.299 28.6892 24.5957 27.9766 25.5349 26.8912C26.4742 25.8058 26.994 24.4194 27 22.9833V21.9822C28.3261 21.9822 29.5979 21.4549 30.5355 20.5161C31.4732 19.5774 32 18.3043 32 16.9767C32 15.6492 31.4732 14.376 30.5355 13.4373C29.5979 12.4986 28.3261 11.9712 27 11.9712ZM6 16.9767C6 16.1802 6.31607 15.4163 6.87868 14.8531C7.44129 14.2899 8.20435 13.9734 9 13.9734V19.98C8.20435 19.98 7.44129 19.6636 6.87868 19.1004C6.31607 18.5372 6 17.7733 6 16.9767ZM18 29.991C17.6044 29.991 17.2178 29.8736 16.8889 29.6536C16.56 29.4336 16.3036 29.1209 16.1522 28.755C16.0009 28.3892 15.9613 27.9866 16.0384 27.5982C16.1156 27.2098 16.3061 26.853 16.5858 26.573C16.8655 26.293 17.2219 26.1023 17.6098 26.0251C17.9978 25.9478 18.3999 25.9875 18.7654 26.139C19.1308 26.2906 19.4432 26.5472 19.6629 26.8764C19.8827 27.2057 20 27.5928 20 27.9888C20 28.5198 19.7893 29.0291 19.4142 29.4046C19.0391 29.7801 18.5304 29.991 18 29.991ZM27 19.98V13.9734C27.7957 13.9734 28.5587 14.2899 29.1213 14.8531C29.6839 15.4163 30 16.1802 30 16.9767C30 17.7733 29.6839 18.5372 29.1213 19.1004C28.5587 19.6636 27.7957 19.98 27 19.98Z" fill="#0F1A38"/>
</svg>
