<svg width="36" height="36" viewBox="0 0 36 36" fill="none" xmlns="http://www.w3.org/2000/svg">
<path fill-rule="evenodd" clip-rule="evenodd" d="M9 6C6.79086 6 5 7.79086 5 10V20.5C5 22.7091 6.79086 24.5 9 24.5H17V28H13C12.4477 28 12 28.4477 12 29C12 29.5523 12.4477 30 13 30H23C23.5523 30 24 29.5523 24 29C24 28.4477 23.5523 28 23 28H19V24.5H27C29.2091 24.5 31 22.7091 31 20.5V10C31 7.79086 29.2091 6 27 6H9ZM7 10C7 8.89543 7.89543 8 9 8H27C28.1046 8 29 8.89543 29 10V18.5H7V10ZM7 20.5C7 21.6046 7.89543 22.5 9 22.5H27C28.1046 22.5 29 21.6046 29 20.5H7Z" fill="#0F1A38"/>
</svg>
