<svg width="36" height="36" viewBox="0 0 36 36" fill="none" xmlns="http://www.w3.org/2000/svg">
<path fill-rule="evenodd" clip-rule="evenodd" d="M15 4C13.3431 4 12 5.34315 12 7V12H7C5.34315 12 4 13.3431 4 15V29C4 30.6569 5.34315 32 7 32H21C22.6569 32 24 30.6569 24 29V24H29C30.6569 24 32 22.6569 32 21V7C32 5.34315 30.6569 4 29 4H15ZM22 24H15C13.3431 24 12 22.6569 12 21V14H7C6.44772 14 6 14.4477 6 15V29C6 29.5523 6.44772 30 7 30H21C21.5523 30 22 29.5523 22 29V24ZM14 21C14 21.5523 14.4477 22 15 22H29C29.5523 22 30 21.5523 30 21V7C30 6.44772 29.5523 6 29 6H15C14.4477 6 14 6.44772 14 7V21Z" fill="#0F1A38"/>
</svg>
