<svg width="36" height="36" viewBox="0 0 36 36" fill="none" xmlns="http://www.w3.org/2000/svg">
<path d="M22.5962 11.9896L24.0104 13.4038L19.4142 18L24.0104 22.5962L22.5962 24.0104L18 19.4142L13.4038 24.0104L11.9896 22.5962L16.5858 18L11.9896 13.4038L13.4038 11.9896L18 16.5858L22.5962 11.9896Z" fill="#0F1A38"/>
<path fill-rule="evenodd" clip-rule="evenodd" d="M18 4C10.268 4 4 10.268 4 18C4 25.732 10.268 32 18 32C25.732 32 32 25.732 32 18C32 10.268 25.732 4 18 4ZM6 18C6 11.3726 11.3726 6 18 6C24.6274 6 30 11.3726 30 18C30 24.6274 24.6274 30 18 30C11.3726 30 6 24.6274 6 18Z" fill="#0F1A38"/>
</svg>
