<svg width="36" height="36" viewBox="0 0 36 36" fill="none" xmlns="http://www.w3.org/2000/svg">
<path d="M14.1896 13.7071L18.5075 18L14.1896 22.2929L15.612 23.7071L19.93 19.4142L24.2479 23.7071L25.6704 22.2929L21.3524 18L25.6704 13.7071L24.2479 12.2929L19.93 16.5858L15.612 12.2929L14.1896 13.7071Z" fill="#0F1A38"/>
<path fill-rule="evenodd" clip-rule="evenodd" d="M13.7899 6C12.2815 6 10.8527 6.67313 9.8975 7.83381L4.13681 14.8338C2.62106 16.6756 2.62106 19.3244 4.13681 21.1662L9.8975 28.1662C10.8527 29.3269 12.2815 30 13.7899 30H26.9708C29.7484 30 32 27.7614 32 25V11C32 8.23858 29.7484 6 26.9708 6H13.7899ZM11.4545 9.10029C12.0276 8.40388 12.8848 8 13.7899 8H26.9708C28.6373 8 29.9883 9.34315 29.9883 11V25C29.9883 26.6569 28.6373 28 26.9708 28H13.7899C12.8848 28 12.0276 27.5961 11.4545 26.8997L5.69376 19.8997C4.78431 18.7946 4.78431 17.2054 5.69376 16.1003L11.4545 9.10029Z" fill="#0F1A38"/>
</svg>
