<svg width="36" height="36" viewBox="0 0 36 36" fill="none" xmlns="http://www.w3.org/2000/svg">
<path fill-rule="evenodd" clip-rule="evenodd" d="M28.9192 10.6064L31.9192 17.6064C31.9727 17.7307 32.0003 17.8646 32.0003 18V25C32.0003 25.2652 31.8949 25.5196 31.7074 25.7071C31.5199 25.8946 31.2655 26 31.0003 26H28.8582C28.6402 26.8577 28.1425 27.6184 27.4438 28.1617C26.7451 28.7049 25.8853 28.9999 25.0003 28.9999C24.1153 28.9999 23.2555 28.7049 22.5568 28.1617C21.8581 27.6184 21.3604 26.8577 21.1424 26H14.8582C14.6148 26.9426 14.036 27.7642 13.2302 28.3106C12.4244 28.857 11.447 29.0908 10.4812 28.9681C9.51539 28.8454 8.62747 28.3747 7.98388 27.6442C7.3403 26.9137 6.98522 25.9736 6.98522 25C6.98522 24.0264 7.3403 23.0863 7.98388 22.3558C8.62747 21.6253 9.51539 21.1545 10.4812 21.0319C11.447 20.9092 12.4244 21.143 13.2302 21.6894C14.036 22.2358 14.6148 23.0573 14.8582 24H21.1424C21.2755 23.4902 21.5082 23.0118 21.8271 22.5924C22.1459 22.173 22.5447 21.8208 23.0003 21.5562V9H8.00031V7H24.0003C24.2655 7 24.5199 7.10536 24.7074 7.29289C24.8949 7.48043 25.0003 7.73478 25.0003 8V10H28.0003C28.196 9.99988 28.3875 10.0573 28.5509 10.1651C28.7143 10.2729 28.8423 10.4264 28.9192 10.6064ZM9.88917 26.6629C10.2181 26.8827 10.6047 27 11.0003 27C11.5306 26.9994 12.0389 26.7885 12.4138 26.4135C12.7888 26.0386 12.9997 25.5302 13.0003 25C13.0003 24.6044 12.883 24.2178 12.6632 23.8889C12.4435 23.56 12.1311 23.3036 11.7657 23.1522C11.4002 23.0009 10.9981 22.9613 10.6101 23.0384C10.2222 23.1156 9.8658 23.3061 9.58609 23.5858C9.30639 23.8655 9.11591 24.2218 9.03874 24.6098C8.96157 24.9978 9.00117 25.3999 9.15255 25.7654C9.30392 26.1308 9.56027 26.4432 9.88917 26.6629ZM27.3411 12H25.0003V17H29.4842L27.3411 12ZM23.8892 26.6629C24.2181 26.8827 24.6047 27 25.0003 27C25.5305 26.9994 26.0389 26.7885 26.4138 26.4135C26.7888 26.0386 26.9997 25.5302 27.0003 25C27.0003 24.6044 26.883 24.2178 26.6632 23.8889C26.4435 23.56 26.1311 23.3036 25.7657 23.1522C25.4002 23.0009 24.9981 22.9613 24.6101 23.0384C24.2222 23.1156 23.8658 23.3061 23.5861 23.5858C23.3064 23.8655 23.1159 24.2218 23.0387 24.6098C22.9616 24.9978 23.0012 25.3999 23.1525 25.7654C23.3039 26.1308 23.5603 26.4432 23.8892 26.6629ZM28.8582 24H30.0003V19H25.0003V21C25.8847 21.0025 26.7433 21.2985 27.4414 21.8414C28.1396 22.3843 28.6379 23.1435 28.8582 24Z" fill="#0F1A38"/>
<path d="M14 12H4V14H14V12Z" fill="#0F1A38"/>
<path d="M18.0008 17.0001H6.00085V19.0001H18.0008V17.0001Z" fill="#0F1A38"/>
</svg>
