<svg width="36" height="36" viewBox="0 0 36 36" fill="none" xmlns="http://www.w3.org/2000/svg">
<path d="M11 9.99945H25V7.99945H11V9.99945Z" fill="#0F1A38"/>
<path d="M25 14.9998H11V12.9998H25V14.9998Z" fill="#0F1A38"/>
<path d="M25 19.9995H11V17.9995H25V19.9995Z" fill="#0F1A38"/>
<path d="M18 24.9999H11V22.9999H18V24.9999Z" fill="#0F1A38"/>
<path fill-rule="evenodd" clip-rule="evenodd" d="M6 5C6 3.89543 6.89543 3 8 3H28C29.1046 3 30 3.89543 30 5V31C30 32.1046 29.1046 33 28 33H8C6.89543 33 6 32.1046 6 31V5ZM8 5H28V31H8L8 5Z" fill="#0F1A38"/>
</svg>
