<svg width="36" height="36" viewBox="0 0 36 36" fill="none" xmlns="http://www.w3.org/2000/svg">
<path d="M26.5567 6.53269C25.8464 5.82244 24.6949 5.82244 23.9846 6.53269L8.04547 22.4718C7.77743 22.7399 7.59984 23.0849 7.53752 23.4589L6.00037 30.0002L12.5415 28.4628C12.9154 28.4005 13.2605 28.2229 13.5286 27.9549L29.4677 12.0158C30.1779 11.3055 30.1779 10.154 29.4677 9.44371L26.5567 6.53269ZM22.4778 10.6116L25.2706 7.81872L28.1816 10.7297L25.3888 13.5226L22.4778 10.6116ZM21.1917 11.8976L24.1027 14.8086L12.2425 26.6689L8.21294 27.7877L9.3315 23.7578L21.1917 11.8976Z" fill="#0F1A38"/>
</svg>
