<svg width="36" height="36" viewBox="0 0 36 36" fill="none" xmlns="http://www.w3.org/2000/svg">
<path fill-rule="evenodd" clip-rule="evenodd" d="M17.9377 6.98911C18.1205 6.93584 18.3146 6.93584 18.4974 6.98911L33.106 11.2472C34.0691 11.5279 34.0652 12.8936 33.1006 13.1688L26.5649 15.0335V21.8308C26.5649 23.0571 25.8134 24.1915 24.6225 24.6153C21.9939 25.5508 19.7677 26.0142 17.5249 25.9997C15.2847 25.9852 13.0941 25.4943 10.5401 24.6108C9.33565 24.1941 8.56494 23.0531 8.56494 21.8107V14.6611L6 13.9293V19.1691C7.16519 19.577 8 20.6776 8 21.9714C8 23.6125 6.65685 24.9428 5 24.9428C3.34315 24.9428 2 23.6125 2 21.9714C2 20.6776 2.83481 19.577 4 19.1691V13.3587L3.3345 13.1688C2.36984 12.8936 2.36595 11.5279 3.32903 11.2472L17.9377 6.98911ZM7.21769 12.1969L18.2175 8.99077L29.2174 12.1969L18.2175 15.3353L7.21769 12.1969ZM4.86111 20.9904C4.37456 21.0574 4 21.4711 4 21.9714C4 22.5184 4.44772 22.9619 5 22.9619C5.55228 22.9619 6 22.5184 6 21.9714C6 21.4711 5.62544 21.0574 5.13889 20.9904C5.0935 20.9967 5.04713 21 5 21C4.95287 21 4.9065 20.9967 4.86111 20.9904ZM10.5649 15.2318V21.8107C10.5649 22.2329 10.8253 22.5932 11.1939 22.7207C13.6325 23.5642 15.5946 23.9871 17.5378 23.9997C19.4782 24.0122 21.4659 23.6158 23.952 22.7311C24.3105 22.6035 24.5649 22.2491 24.5649 21.8308V15.6041L18.4919 17.3368C18.3126 17.388 18.1225 17.388 17.9432 17.3368L10.5649 15.2318Z" fill="#0F1A38"/>
</svg>
