<svg width="36" height="36" viewBox="0 0 36 36" fill="none" xmlns="http://www.w3.org/2000/svg">
<path d="M30 8H6C5.46957 8 4.96086 8.2065 4.58579 8.57407C4.21071 8.94164 4 9.44018 4 9.96V25.64C4 26.1598 4.21071 26.6584 4.58579 27.0259C4.96086 27.3935 5.46957 27.6 6 27.6H30C30.5304 27.6 31.0391 27.3935 31.4142 27.0259C31.7893 26.6584 32 26.1598 32 25.64V9.96C32 9.44018 31.7893 8.94164 31.4142 8.57407C31.0391 8.2065 30.5304 8 30 8ZM27.8 9.96L18 16.6044L8.2 9.96H27.8ZM6 25.64V10.8518L17.43 18.6036C17.5974 18.7174 17.7963 18.7784 18 18.7784C18.2037 18.7784 18.4026 18.7174 18.57 18.6036L30 10.8518V25.64H6Z" fill="#0F1A38"/>
</svg>
