<svg width="36" height="36" viewBox="0 0 36 36" fill="none" xmlns="http://www.w3.org/2000/svg">
<path fill-rule="evenodd" clip-rule="evenodd" d="M14.8404 12.1991C14.3105 11.88 13.7012 11.73 13.0894 11.7677C12.4776 11.8055 11.8898 12.0293 11.4002 12.4116C10.9106 12.794 10.541 13.3181 10.339 13.9181C10.137 14.5183 10.112 15.1669 10.2671 15.7819L10.2683 15.7864C10.4801 16.6109 10.9996 17.3135 11.7109 17.7419C12.4221 18.1702 13.2681 18.2905 14.0644 18.077L14.0687 18.0758C14.6614 17.9141 15.1953 17.5747 15.6023 17.0996C16.0095 16.6243 16.2715 16.0347 16.3544 15.405C16.4374 14.7752 16.3375 14.1343 16.0676 13.5636C15.7978 12.9929 15.3705 12.5184 14.8404 12.1991ZM13.2115 13.895C13.4203 13.8821 13.6279 13.9334 13.8078 14.0417C13.9877 14.1501 14.1314 14.3103 14.2218 14.5015C14.3122 14.6926 14.3454 14.9066 14.3178 15.1166C14.2901 15.3267 14.2026 15.5244 14.0655 15.6844C13.9288 15.8439 13.7488 15.9591 13.5476 16.0144C13.275 16.0869 12.9859 16.0452 12.7435 15.8993C12.5014 15.7535 12.3267 15.5161 12.2552 15.2402C12.204 15.0356 12.2125 14.82 12.2798 14.6202C12.3473 14.4196 12.4713 14.2431 12.637 14.1137C12.8028 13.9843 13.0026 13.9079 13.2115 13.895Z" fill="#0F1A38"/>
<path d="M21.4987 17.7134C21.1688 17.7127 20.8505 17.5885 20.6029 17.3638C20.3553 17.1391 20.1954 16.8293 20.153 16.4921C20.1105 16.1549 20.1885 15.8133 20.3723 15.5309C20.5561 15.2486 20.8332 15.0447 21.1519 14.9573C21.2653 14.9278 21.3817 14.912 21.4987 14.9103C21.7987 14.9105 22.0903 15.013 22.328 15.2018C22.5656 15.3907 22.736 15.6553 22.8125 15.9544C22.8597 16.1325 22.8711 16.3186 22.846 16.5014C22.8209 16.6842 22.7599 16.8597 22.6665 17.0173C22.4865 17.3368 22.1914 17.57 21.8454 17.6663C21.732 17.6958 21.6156 17.7116 21.4987 17.7134Z" fill="#0F1A38"/>
<path d="M22.9612 14.2156C23.2087 14.4403 23.5271 14.5645 23.8569 14.5651C23.9739 14.5633 24.0903 14.5476 24.2037 14.5181C24.5497 14.4218 24.8448 14.1885 25.0248 13.869C25.1181 13.7115 25.1792 13.5359 25.2043 13.3531C25.2294 13.1703 25.218 12.9842 25.1708 12.8061C25.0943 12.507 24.9239 12.2424 24.6863 12.0536C24.4486 11.8647 24.157 11.7622 23.8569 11.762C23.74 11.7638 23.6236 11.7795 23.5102 11.8091C23.1915 11.8964 22.9143 12.1003 22.7306 12.3826C22.5468 12.665 22.4688 13.0066 22.5112 13.3438C22.5537 13.681 22.7136 13.9909 22.9612 14.2156Z" fill="#0F1A38"/>
<path fill-rule="evenodd" clip-rule="evenodd" d="M11.4165 7.5C8.97246 7.5 6.86657 9.28453 6.38034 11.7676L4.08323 23.4984C3.47744 26.592 6.28006 29.2337 9.19314 28.3148C9.94769 28.0768 10.618 27.614 11.1207 26.984L13.4145 24.109C14.0003 23.3749 14.8714 22.9499 15.7904 22.9499H20.6602C21.5779 22.9499 22.4479 23.3736 23.0336 24.1059L25.4233 27.0933C25.8647 27.6452 26.446 28.0584 27.1017 28.2863C29.8132 29.2288 32.4919 26.7745 31.9229 23.869L29.5533 11.7676C29.067 9.28453 26.9611 7.5 24.5171 7.5H11.4165ZM8.3948 12.1916C8.68654 10.7017 9.95007 9.63102 11.4165 9.63102H24.5171C25.9835 9.63102 27.2471 10.7017 27.5388 12.1916L29.9085 24.2929C30.1626 25.5906 28.9662 26.6868 27.7552 26.2658C27.4623 26.164 27.2027 25.9795 27.0055 25.733L24.6159 22.7456C23.6396 21.5251 22.1897 20.8188 20.6602 20.8188H15.7904C14.2587 20.8188 12.8069 21.5272 11.8306 22.7508L9.53681 25.6257C9.29115 25.9336 8.96356 26.1598 8.59482 26.2761C7.17125 26.7251 5.80165 25.4342 6.09769 23.9224L8.3948 12.1916Z" fill="#0F1A38"/>
</svg>
