<svg width="36" height="36" viewBox="0 0 36 36" fill="none" xmlns="http://www.w3.org/2000/svg">
<path d="M4 8.79585L4 12.6228H5.84083L5.84083 8.79585C5.84083 7.16384 7.16384 5.84083 8.79585 5.84083L12.6228 5.84083V4L8.79585 4C6.14717 4 4 6.14717 4 8.79585Z" fill="#0F1A38"/>
<path d="M13.5917 16.4982V12.7197H11.7509V16.4982H13.5917Z" fill="#0F1A38"/>
<path d="M24.2491 16.4982V12.7197H22.4083V16.4982H24.2491Z" fill="#0F1A38"/>
<path d="M19.4049 12.7197V18.4844C19.4049 19.5278 18.559 20.3737 17.5156 20.3737H15.6263V18.5328H17.5156C17.5423 18.5328 17.564 18.5112 17.564 18.4844V12.7197H19.4049Z" fill="#0F1A38"/>
<path d="M32 27.2353V23.4083H30.1592V27.2353C30.1592 28.8673 28.8362 30.1903 27.2042 30.1903H23.3772V32.0311H27.2042C29.8528 32.0311 32 29.884 32 27.2353Z" fill="#0F1A38"/>
<path d="M12.6228 32.0311H8.79585C6.14718 32.0311 4 29.884 4 27.2353L4 23.4083H5.84083L5.84083 27.2353C5.84083 28.8673 7.16384 30.1903 8.79585 30.1903H12.6228V32.0311Z" fill="#0F1A38"/>
<path d="M23.3772 4L27.2042 4C29.8528 4 32 6.14718 32 8.79585V12.6228H30.1592V8.79585C30.1592 7.16384 28.8362 5.84083 27.2042 5.84083L23.3772 5.84083L23.3772 4Z" fill="#0F1A38"/>
<path d="M12.9043 23.8817C12.9041 23.8813 12.9038 23.8809 13.6401 23.3287L12.9043 23.8817L12.3516 23.1446L13.8242 22.0401L14.3733 22.7722L14.3759 22.7755C14.381 22.7819 14.3914 22.7947 14.4071 22.813C14.4385 22.8496 14.4906 22.9078 14.5635 22.9806C14.7096 23.1267 14.9357 23.3284 15.2407 23.5317C15.8471 23.936 16.7624 24.346 18 24.346C19.2376 24.346 20.1529 23.936 20.7593 23.5317C21.0643 23.3284 21.2904 23.1267 21.4365 22.9806C21.5094 22.9078 21.5615 22.8496 21.5929 22.813C21.6013 22.8032 21.6081 22.795 21.6135 22.7885C21.6182 22.7829 21.6217 22.7785 21.6241 22.7755L21.6267 22.7722L22.1758 22.0401L23.6484 23.1446L23.0962 23.8809L22.3599 23.3287C23.0962 23.8809 23.0965 23.8806 23.0962 23.8809L23.0951 23.8824L23.0938 23.8841L23.0909 23.8879L23.0834 23.8977C23.0776 23.9052 23.0703 23.9144 23.0616 23.9254C23.044 23.9474 23.0203 23.9762 22.9906 24.011C22.9311 24.0803 22.847 24.1735 22.7382 24.2823C22.521 24.4995 22.2021 24.7823 21.7805 25.0634C20.9336 25.628 19.6689 26.1868 18 26.1868C16.3311 26.1868 15.0664 25.628 14.2196 25.0634C13.7979 24.7823 13.479 24.4995 13.2618 24.2823C13.153 24.1735 13.0689 24.0803 13.0094 24.011C12.9797 23.9762 12.956 23.9474 12.9384 23.9254C12.9297 23.9144 12.9224 23.9052 12.9166 23.8977L12.9091 23.8879L12.9062 23.8841L12.9043 23.8817Z" fill="#0F1A38"/>
</svg>
