<svg width="36" height="36" viewBox="0 0 36 36" fill="none" xmlns="http://www.w3.org/2000/svg">
<path d="M5.44 8.56V11.68C5.44 12.0776 5.11765 12.4 4.72 12.4C4.32236 12.4 4 12.0776 4 11.68V8.56C4 6.00236 6.00236 4 8.56 4H11.68C12.0776 4 12.4 4.32236 12.4 4.72C12.4 5.11765 12.0776 5.44 11.68 5.44H8.56C6.79765 5.44 5.44 6.79765 5.44 8.56Z" fill="#0F1A38"/>
<path d="M30.56 8.56V11.68C30.56 12.0776 30.8824 12.4 31.28 12.4C31.6776 12.4 32 12.0776 32 11.68V8.56C32 6.00236 29.9976 4 27.44 4H24.32C23.9224 4 23.6 4.32236 23.6 4.72C23.6 5.11765 23.9224 5.44 24.32 5.44H27.44C29.2024 5.44 30.56 6.79765 30.56 8.56Z" fill="#0F1A38"/>
<path d="M5.44 24.32V27.44C5.44 29.2024 6.79765 30.56 8.56 30.56H11.68C12.0776 30.56 12.4 30.8824 12.4 31.28C12.4 31.6776 12.0776 32 11.68 32H8.56C6.00236 32 4 29.9976 4 27.44V24.32C4 23.9224 4.32236 23.6 4.72 23.6C5.11765 23.6 5.44 23.9224 5.44 24.32Z" fill="#0F1A38"/>
<path d="M30.56 27.44V24.32C30.56 23.9224 30.8824 23.6 31.28 23.6C31.6776 23.6 32 23.9224 32 24.32V27.44C32 29.9976 29.9976 32 27.44 32H24.32C23.9224 32 23.6 31.6776 23.6 31.28C23.6 30.8824 23.9224 30.56 24.32 30.56H27.44C29.2024 30.56 30.56 29.2024 30.56 27.44Z" fill="#0F1A38"/>
<path d="M11.614 14.5746V16.5757C11.614 16.9899 11.9274 17.3257 12.314 17.3257C12.7006 17.3257 13.014 16.9899 13.014 16.5757V14.5746C13.014 14.1604 12.7006 13.8246 12.314 13.8246C11.9274 13.8246 11.614 14.1604 11.614 14.5746Z" fill="#0F1A38"/>
<path d="M23.1579 16.5757V14.5746C23.1579 14.1604 23.4713 13.8246 23.8579 13.8246C24.2445 13.8246 24.5579 14.1604 24.5579 14.5746V16.5757C24.5579 16.9899 24.2445 17.3257 23.8579 17.3257C23.4713 17.3257 23.1579 16.9899 23.1579 16.5757Z" fill="#0F1A38"/>
<path d="M13.0762 24.679C14.4416 25.9534 16.0952 26.5965 18 26.5965C19.9047 26.5965 21.5584 25.9534 22.9238 24.679C23.2213 24.4014 23.2374 23.9351 22.9597 23.6376C22.682 23.3401 22.2158 23.324 21.9183 23.6017C20.8275 24.6197 19.5338 25.1228 18 25.1228C16.4661 25.1228 15.1724 24.6197 14.0817 23.6017C13.7842 23.324 13.3179 23.3401 13.0403 23.6376C12.7626 23.9351 12.7787 24.4014 13.0762 24.679Z" fill="#0F1A38"/>
<path d="M18 19.7193V14.5614C18 14.1545 18.3299 13.8246 18.7369 13.8246C19.1438 13.8246 19.4737 14.1545 19.4737 14.5614V19.7193C19.4737 20.8637 18.6522 21.6842 17.507 21.6842H17.0176C16.6106 21.6842 16.2807 21.3543 16.2807 20.9474C16.2807 20.5404 16.6106 20.2105 17.0176 20.2105H17.507C17.8387 20.2105 18 20.0494 18 19.7193Z" fill="#0F1A38"/>
</svg>
