<svg width="36" height="36" viewBox="0 0 36 36" fill="none" xmlns="http://www.w3.org/2000/svg">
<path fill-rule="evenodd" clip-rule="evenodd" d="M13 9V7H23V9H30C31.1046 9 32 9.89543 32 11V27C32 28.1046 31.1046 29 30 29H6C4.89543 29 4 28.1046 4 27V11C4 9.89543 4.89543 9 6 9H13ZM34 11C34 8.79086 32.2091 7 30 7H25V6C25 5.44772 24.5523 5 24 5H12C11.4477 5 11 5.44772 11 6V7H6C3.79086 7 2 8.79086 2 11V27C2 29.2091 3.79086 31 6 31H30C32.2091 31 34 29.2091 34 27V11ZM17.9996 11.25C18.9523 11.2472 19.896 11.4334 20.7762 11.7978C21.6566 12.1622 22.4558 12.6977 23.1278 13.3732L23.1944 13.4403V11.6389H25.25V16.8056H19.8928V14.75H21.5951C21.1301 14.3027 20.5853 13.9462 19.9887 13.6991C19.3584 13.4381 18.6827 13.3043 18.0005 13.3056C15.1363 13.3056 12.8056 15.6359 12.8056 18.5V18.75H10.75V18.5C10.75 14.5004 14.0001 11.2502 17.9996 11.25ZM23.1944 18.2503H25.25V18.5003C25.25 22.4999 22 25.7501 18.0004 25.7503C17.0478 25.7532 16.104 25.567 15.2238 25.2026C14.3434 24.8381 13.5442 24.3027 12.8722 23.6272L12.8056 23.56V25.3614H10.75V20.1948H16.1072V22.2503H14.4049C14.8699 22.6976 15.4147 23.0542 16.0113 23.3013C16.6416 23.5623 17.3173 23.696 17.9995 23.6948C20.8637 23.6948 23.1944 21.3645 23.1944 18.5003V18.2503Z" fill="#0F1A38"/>
</svg>
