<svg width="36" height="36" viewBox="0 0 36 36" fill="none" xmlns="http://www.w3.org/2000/svg">
<path fill-rule="evenodd" clip-rule="evenodd" d="M19.9448 12.6L16.5563 9.28516C16.3694 9.10236 16.1184 9 15.857 9H8.12036C7.56807 9 7.12036 9.44772 7.12036 10V26C7.12036 26.5523 7.56808 27 8.12036 27H27.8804C28.4326 27 28.8804 26.5523 28.8804 26V13.6C28.8804 13.0477 28.4326 12.6 27.8804 12.6H19.9448ZM15.857 7C16.6412 7 17.3943 7.30709 17.9549 7.85549L20.7604 10.6H27.8804C29.5372 10.6 30.8804 11.9431 30.8804 13.6V26C30.8804 27.6568 29.5372 29 27.8804 29H8.12036C6.46351 29 5.12036 27.6568 5.12036 26V10C5.12036 8.34314 6.46351 7 8.12036 7H15.857Z" fill="#0F1A38"/>
</svg>
