<svg width="36" height="36" viewBox="0 0 36 36" fill="none" xmlns="http://www.w3.org/2000/svg">
<path fill-rule="evenodd" clip-rule="evenodd" d="M13.5 6.75C11.9812 6.75 10.75 7.98122 10.75 9.5C10.75 9.79969 10.7977 10.087 10.8855 10.3556L12 11.0986L14.584 9.37596C14.8359 9.20801 15.1641 9.20801 15.416 9.37596L15.5304 9.4522L16.1587 8.7938C15.8472 7.61741 14.7744 6.75 13.5 6.75ZM17.5054 9.55526L16.7976 10.297L18 11.0986L20.584 9.37596C20.8359 9.20801 21.1641 9.20801 21.416 9.37596L24 11.0986L24.7181 10.6199L20.0621 6.9985L17.5054 9.55526ZM22.1859 6.75H25.25V9.13321L22.1859 6.75ZM26.3169 11.3568L24.416 12.624C24.1641 12.792 23.8359 12.792 23.584 12.624L21 10.9014L18.416 12.624C18.1641 12.792 17.8359 12.792 17.584 12.624L15 10.9014L12.416 12.624C12.1641 12.792 11.8359 12.792 11.584 12.624L9.6831 11.3568L8.93844 26.25H27.0616L26.3169 11.3568ZM27.1366 27.75H8.86344L8.78844 29.25H27.2116L27.1366 27.75ZM9.25488 9.29462C9.06345 9.22545 8.84915 9.23626 8.66273 9.33011C8.42168 9.45148 8.26441 9.693 8.25094 9.96255L7.25094 29.9625C7.24068 30.1677 7.31502 30.3681 7.45659 30.5169C7.59817 30.6658 7.79459 30.75 8 30.75H28C28.2054 30.75 28.4018 30.6658 28.5434 30.5169C28.685 30.3681 28.7593 30.1677 28.7491 29.9625L27.7491 9.96255C27.7356 9.693 27.5783 9.45148 27.3373 9.33011C27.1524 9.23705 26.9402 9.22564 26.75 9.29289V6C26.75 5.58579 26.4142 5.25 26 5.25H20C19.8011 5.25 19.6103 5.32902 19.4696 5.46967L17.3147 7.62461C16.6219 6.21778 15.1743 5.25 13.5 5.25C11.2216 5.25 9.36202 7.04279 9.25488 9.29462Z" fill="#0F1A38"/>
</svg>
