<svg width="36" height="36" viewBox="0 0 36 36" fill="none" xmlns="http://www.w3.org/2000/svg">
<path d="M4.62999 15.99L10.02 14.55L16 18L10.02 21.45L4.62999 20L4.11999 21.89L8.94999 23.19L7.63999 28.06L9.56998 28.58L11.02 23.18L17 19.73V26.64L13.05 30.58L14.43 31.96L17.97 28.43L21.53 32L22.95 30.58L19 26.64V19.73L24.98 23.18L26.42 28.58L28.31 28.07L27.02 23.24L31.89 21.94L31.37 20L25.98 21.45L20 18L25.98 14.55L31.37 15.99L31.88 14.11L27.05 12.81L28.36 7.94L26.42 7.42L24.98 12.81L19 16.27V9.36L22.95 5.41L21.57 4.03L18.03 7.57L14.46 4L13.05 5.41L17 9.36V16.27L11.02 12.81L9.56998 7.42L7.68999 7.93L8.97998 12.76L4.10999 14.06L4.62999 15.99Z" fill="#0F1A38"/>
</svg>
