<svg width="36" height="36" viewBox="0 0 36 36" fill="none" xmlns="http://www.w3.org/2000/svg">
<path d="M18 17C14.6863 17 12 14.3137 12 11C12 7.68629 14.6863 5 18 5C21.3137 5 24 7.68629 24 11C24 14.3137 21.3137 17 18 17ZM18 15C20.2091 15 22 13.2091 22 11C22 8.79086 20.2091 7 18 7C15.7909 7 14 8.79086 14 11C14 13.2091 15.7909 15 18 15Z" fill="black"/>
<path d="M4 23C4 22.4477 4.44772 22 5 22H16C16.5523 22 17 22.4477 17 23V30H21C21.5523 30 22 30.4477 22 31C22 31.5523 21.5523 32 21 32H5C4.44772 32 4 31.5523 4 31V23ZM15 30V24H6V30H15Z" fill="black"/>
<path d="M20.1074 19.0057C26.0426 19.6466 30.5001 25.298 30.5001 31.9462H28.5001C28.5001 26.1106 24.6174 21.5043 19.8927 20.9942C19.3436 20.9349 18.9466 20.4417 19.0059 19.8926C19.0652 19.3435 19.5583 18.9465 20.1074 19.0057Z" fill="black"/>
</svg>
