<svg width="36" height="36" viewBox="0 0 36 36" fill="none" xmlns="http://www.w3.org/2000/svg">
<path fill-rule="evenodd" clip-rule="evenodd" d="M14.9958 2.98628C14.2181 1.77086 12.4697 1.65807 11.5393 2.76332L9.62642 5.03565C8.65171 6.19351 9.17355 7.96008 10.6249 8.41567L14.8704 9.7484H5.14286C3.95939 9.7484 3 10.6981 3 11.8697V16.1122C3 17.2837 3.95939 18.2334 5.14286 18.2334L5.14286 32.0216C5.14286 33.1931 6.10225 34.1429 7.28571 34.1429H28.7143C29.8978 34.1429 30.8571 33.1931 30.8571 32.0216V18.2334C32.0406 18.2334 33 17.2837 33 16.1122V11.8697C33 10.6981 32.0406 9.7484 30.8571 9.7484H22.201L26.4466 8.41567C27.8979 7.96008 28.4197 6.19351 27.445 5.03565L25.5321 2.76332C24.6017 1.65807 22.8533 1.77086 22.0756 2.98628L18.5357 8.51892L14.9958 2.98628ZM23.3571 32.0216H28.7143V18.2334H23.3571V32.0216ZM23.3571 16.1122H30.8571V11.8697H23.3571V16.1122ZM21.2143 11.8697H14.7857V16.1122H21.2143V11.8697ZM14.7857 18.2334H21.2143V32.0216H14.7857V18.2334ZM12.6429 16.1122V11.8697H5.14286V16.1122H12.6429ZM12.6429 18.2334V32.0216H7.28571V18.2334H12.6429ZM11.2726 6.39364L13.1855 4.12132L15.4856 7.71614L11.2726 6.39364ZM23.8859 4.12132L25.7988 6.39364L21.5859 7.71614L23.8859 4.12132Z" fill="#0F1A38"/>
</svg>
