<svg width="36" height="36" viewBox="0 0 36 36" fill="none" xmlns="http://www.w3.org/2000/svg">
<path fill-rule="evenodd" clip-rule="evenodd" d="M18.0007 4C10.2687 4 4.00067 10.268 4.00067 18C4.00067 25.732 10.2687 32 18.0007 32C25.7327 32 32.0007 25.732 32.0007 18C32.0007 10.268 25.7327 4 18.0007 4ZM6.04175 17C6.48466 11.6312 10.4619 7.26448 15.6414 6.23185C13.5328 9.14884 12.2081 12.8999 12.023 17H6.04175ZM6.04175 19H12.0237C12.2115 23.1022 13.54 26.8545 15.6531 29.7705C10.4678 28.7421 6.485 24.3729 6.04175 19ZM14.0259 19H21.9758C21.7676 23.1749 20.265 26.8808 18.0022 29.5246C15.7368 26.8691 14.2356 23.1662 14.0259 19ZM23.978 19H29.9596C29.5165 24.3709 25.5364 28.7389 20.3539 29.7694C22.4645 26.8602 23.7917 23.1059 23.978 19ZM29.9596 17H23.978C23.7917 12.8941 22.4645 9.13981 20.3539 6.23065C25.5364 7.26109 29.5165 11.6291 29.9596 17ZM21.9758 17H14.0252C14.2321 12.8318 15.7317 9.12644 17.9963 6.46846C20.2624 9.11271 21.7674 12.8215 21.9758 17Z" fill="#0F1A38"/>
</svg>
