<svg width="36" height="36" viewBox="0 0 36 36" fill="none" xmlns="http://www.w3.org/2000/svg">
<path fill-rule="evenodd" clip-rule="evenodd" d="M18 5.93103C11.3345 5.93103 5.93103 11.3345 5.93103 18C5.93103 24.6655 11.3345 30.069 18 30.069C24.6655 30.069 30.069 24.6655 30.069 18C30.069 11.3345 24.6655 5.93103 18 5.93103ZM4 18C4 10.268 10.268 4 18 4C25.732 4 32 10.268 32 18C32 25.732 25.732 32 18 32C10.268 32 4 25.732 4 18ZM12.6897 18V12.2069H14.6207V18H12.6897ZM21.3793 18V12.2069H23.3103V18H21.3793ZM13.5997 22.1104C14.4668 23.2139 15.8399 24.2759 18 24.2759C20.1601 24.2759 21.5332 23.2139 22.4003 22.1104C22.8385 21.5527 23.1403 20.9905 23.3321 20.5665C23.4274 20.3557 23.4941 20.1824 23.5358 20.0655C23.5567 20.0071 23.5712 19.9631 23.5799 19.9359L23.5886 19.908L23.5891 19.9064C23.589 19.9068 23.5889 19.9072 24.5172 20.1724C25.4456 20.4377 25.4455 20.4381 25.4454 20.4386L25.4451 20.4396L25.4444 20.442L25.4426 20.4481L25.4373 20.466C25.4329 20.4802 25.4271 20.4993 25.4196 20.5228C25.4046 20.5698 25.383 20.6347 25.3544 20.715C25.2971 20.8753 25.2111 21.098 25.0914 21.3624C24.8533 21.8889 24.4762 22.5939 23.9187 23.3034C22.7943 24.7344 20.9089 26.2069 18 26.2069C15.0911 26.2069 13.2057 24.7344 12.0813 23.3034C11.5238 22.5939 11.1467 21.8889 10.9086 21.3624C10.7889 21.098 10.7029 20.8753 10.6456 20.715C10.617 20.6347 10.5954 20.5698 10.5804 20.5228C10.5729 20.4993 10.5671 20.4802 10.5627 20.466L10.5574 20.4481L10.5556 20.442L10.5549 20.4396L10.5546 20.4386C10.5545 20.4381 10.5544 20.4377 11.4828 20.1724C12.4111 19.9072 12.411 19.9068 12.4109 19.9064L12.4107 19.9057L12.4104 19.9047L12.4114 19.908L12.4201 19.9359C12.4288 19.9631 12.4433 20.0071 12.4642 20.0655C12.5059 20.1824 12.5726 20.3557 12.6679 20.5665C12.8597 20.9905 13.1615 21.5527 13.5997 22.1104Z" fill="#0F1A38"/>
</svg>
