<svg width="36" height="36" viewBox="0 0 36 36" fill="none" xmlns="http://www.w3.org/2000/svg">
<path fill-rule="evenodd" clip-rule="evenodd" d="M15.97 28.2736L18 30L20.03 28.2866L20.0853 28.2397C27.2643 22.1451 32 18.1247 32 13.1935C32 9.16512 28.612 6 24.3 6C22.3786 6 20.5181 6.65912 19.069 7.75912C18.6809 8.0537 18.3223 8.37989 18 8.73352C17.6777 8.37989 17.3191 8.0537 16.931 7.75912C15.4819 6.65911 13.6214 6 11.7 6C7.388 6 4 9.16512 4 13.1935C4 18.1333 8.75219 22.1591 15.9523 28.2585L15.97 28.2736ZM18.7356 26.762C18.7363 26.7614 18.737 26.7608 18.7377 26.7602C22.3845 23.6643 25.2426 21.2344 27.2135 18.9817C29.1671 16.7489 30 14.9627 30 13.1935C30 10.3957 27.6378 8 24.3 8C22.4205 8 20.621 8.82693 19.4781 10.0808L18 11.7024L16.5219 10.0808C15.379 8.82693 13.5795 8 11.7 8C8.3622 8 6 10.3957 6 13.1935C6 14.9627 6.8329 16.7488 8.78601 18.9795C10.7569 21.2306 13.6155 23.6578 17.2628 26.7475L17.2657 26.75L18.0049 27.3787L18.7356 26.762Z" fill="#0F1A38"/>
</svg>
