<svg width="36" height="36" viewBox="0 0 36 36" fill="none" xmlns="http://www.w3.org/2000/svg">
<path d="M24.364 6.87756C28.2328 6.87756 31.1431 9.69013 31.1433 13.1442C31.1433 15.2899 30.1195 17.3279 28.0759 19.6637C26.5364 21.4233 24.4885 23.2751 22.0154 25.403L19.403 27.6295L18.0017 28.8112L16.5974 27.6168L16.5954 27.6158L13.9841 25.3932C11.5113 23.2693 9.46381 21.4198 7.92453 19.6617C5.88101 17.3277 4.85715 15.29 4.85715 13.1442C4.85729 9.69021 7.76679 6.87769 11.6355 6.87756C13.8181 6.87756 15.9114 7.83202 17.2614 9.31311L17.9997 10.1237L18.739 9.31311C20.089 7.83209 22.1815 6.87765 24.364 6.87756Z" stroke="#0F1A38" stroke-width="2"/>
</svg>
