<svg width="36" height="36" viewBox="0 0 36 36" fill="none" xmlns="http://www.w3.org/2000/svg">
<path d="M18.0002 27.0002C18.8286 27.0002 19.5002 26.3287 19.5002 25.5002C19.5002 24.6718 18.8286 24.0002 18.0002 24.0002C17.1717 24.0002 16.5002 24.6718 16.5002 25.5002C16.5002 26.3287 17.1717 27.0002 18.0002 27.0002Z" fill="#0F1A38"/>
<path d="M17.5002 10.0001H19.0002C20.1937 10.0001 21.3383 10.4742 22.1822 11.3181C23.0261 12.1621 23.5002 13.3067 23.5002 14.5001C23.5002 15.6936 23.0261 16.8382 22.1822 17.6822C21.3383 18.5261 20.1937 19.0002 19.0002 19.0002V21.5002H17.0002V17.0002H19.0002C19.6632 17.0002 20.2991 16.7368 20.768 16.2679C21.2368 15.7991 21.5002 15.1632 21.5002 14.5001C21.5002 13.8371 21.2368 13.2012 20.768 12.7324C20.2991 12.2635 19.6632 12.0001 19.0002 12.0001H17.5002C16.8371 12.0001 16.2012 12.2635 15.7324 12.7324C15.2635 13.2012 15.0002 13.8371 15.0002 14.5001V15.0002H13.0001V14.5001C12.9988 13.9088 13.1143 13.3231 13.34 12.7765C13.5657 12.2299 13.8971 11.7333 14.3152 11.3152C14.7334 10.8971 15.23 10.5656 15.7765 10.34C16.3231 10.1143 16.9089 9.99879 17.5002 10.0001Z" fill="#0F1A38"/>
<path fill-rule="evenodd" clip-rule="evenodd" d="M18.0001 4C15.2312 4 12.5244 4.82109 10.2221 6.35945C7.91977 7.8978 6.12534 10.0843 5.0657 12.6425C4.00607 15.2007 3.72882 18.0157 4.26901 20.7314C4.80921 23.4472 6.1426 25.9418 8.10055 27.8997C10.0585 29.8577 12.5531 31.1911 15.2688 31.7313C17.9846 32.2715 20.7996 31.9942 23.3578 30.9346C25.9159 29.8749 28.1025 28.0805 29.6408 25.7782C31.1792 23.4759 32.0003 20.7691 32.0003 18.0001C32.0003 14.2871 30.5253 10.7261 27.8997 8.10054C25.2742 5.47501 21.7132 4 18.0001 4ZM18.0001 30.0002C15.6267 30.0002 13.3066 29.2964 11.3332 27.9779C9.35982 26.6593 7.82174 24.7851 6.91348 22.5924C6.00522 20.3996 5.76758 17.9868 6.2306 15.659C6.69363 13.3312 7.83653 11.193 9.51478 9.51477C11.193 7.83652 13.3312 6.69362 15.659 6.2306C17.9868 5.76757 20.3996 6.00521 22.5924 6.91347C24.7851 7.82173 26.6593 9.35982 27.9779 11.3332C29.2965 13.3066 30.0002 15.6267 30.0002 18.0001C30.0002 21.1828 28.736 24.235 26.4855 26.4855C24.235 28.7359 21.1828 30.0002 18.0001 30.0002Z" fill="#0F1A38"/>
</svg>
