<svg width="36" height="36" viewBox="0 0 36 36" fill="none" xmlns="http://www.w3.org/2000/svg">
<path fill-rule="evenodd" clip-rule="evenodd" d="M4.69051 15.3929C12.1999 22.9023 24.3666 22.9023 31.876 15.3929L33.2902 16.8071C32.7875 17.3099 32.2659 17.7821 31.7276 18.2239L32.87 19.6836L31.295 20.9162L30.1232 19.4188C28.4359 20.5557 26.6216 21.4238 24.7403 22.023L25.2419 23.7159L23.3244 24.2841L22.8075 22.5396C19.809 23.1911 16.6968 23.1868 13.6999 22.5266L13.2528 24.251L11.3168 23.749L11.769 22.0047C9.89948 21.4033 8.09671 20.5361 6.41982 19.4029L5.15268 20.9368L3.61078 19.6631L4.81556 18.2047C4.28557 17.7684 3.77176 17.3026 3.27631 16.8071L4.69051 15.3929Z" fill="#0F1A38"/>
</svg>
