<svg width="36" height="36" viewBox="0 0 36 36" fill="none" xmlns="http://www.w3.org/2000/svg">
<path fill-rule="evenodd" clip-rule="evenodd" d="M4 30V6H6L6 22H18V13H24C28.9706 13 33 17.0294 33 22V30H31V24H6L6 30H4ZM31 22C31 18.134 27.866 15 24 15H20V22H31Z" fill="#0F1A38"/>
<path fill-rule="evenodd" clip-rule="evenodd" d="M16 17C16 19.2091 14.2091 21 12 21C9.79086 21 8 19.2091 8 17C8 14.7909 9.79086 13 12 13C14.2091 13 16 14.7909 16 17ZM14 17C14 18.1046 13.1046 19 12 19C10.8954 19 10 18.1046 10 17C10 15.8954 10.8954 15 12 15C13.1046 15 14 15.8954 14 17Z" fill="#0F1A38"/>
</svg>
