<svg width="36" height="36" viewBox="0 0 36 36" fill="none" xmlns="http://www.w3.org/2000/svg">
<path fill-rule="evenodd" clip-rule="evenodd" d="M13.25 5.5C13.25 5.08579 12.9142 4.75 12.5 4.75C12.0858 4.75 11.75 5.08579 11.75 5.5V6.78363C7.79215 7.14029 4.64029 10.2921 4.28363 14.25H3C2.58579 14.25 2.25 14.5858 2.25 15C2.25 15.4142 2.58579 15.75 3 15.75H22C22.4142 15.75 22.75 15.4142 22.75 15C22.75 14.5858 22.4142 14.25 22 14.25H20.7164C20.3597 10.2921 17.2079 7.14029 13.25 6.78363V5.5ZM12.5 8.25C15.9744 8.25 18.8357 10.875 19.2088 14.25H5.7912C6.16428 10.875 9.02558 8.25 12.5 8.25Z" fill="#0F1A38"/>
<path fill-rule="evenodd" clip-rule="evenodd" d="M25.8175 19.1417C25.3083 18.831 24.7138 18.6983 24.1223 18.7682L20.7525 19.1665C20.6138 19.1829 20.4766 19.2103 20.3422 19.2484L13.4274 21.2066C12.4501 21.4834 11.7595 22.2628 11.5096 23.1867L6.04078 19.8326C4.81366 19.0799 3.2615 19.5417 2.57828 20.7924C1.92066 21.9963 2.27566 23.5502 3.43249 24.3011L14.7963 31.6768C15.3714 32.0501 16.0371 32.25 16.7191 32.25L25.1205 32.25C25.5099 32.25 25.8937 32.1637 26.2467 31.9981L28.2688 31.0494V32.25H33.75V19.0008L28.2688 19.0008V20.6375L25.8175 19.1417ZM5.25654 21.1112L11.5939 24.9981C12.0871 26.3141 13.4708 27.1094 14.8665 26.7142L22.0144 24.6899L21.6056 23.2467L14.4578 25.2709C13.8359 25.4471 13.1408 25.0682 12.9513 24.3206C12.7584 23.5601 13.1959 22.8312 13.8362 22.6498L20.7509 20.6916C20.8094 20.675 20.8687 20.6632 20.9285 20.6561L24.2983 20.2579C24.5513 20.228 24.8094 20.2837 25.0361 20.4221L28.2688 22.3947V29.3925L25.6096 30.6401C25.454 30.7131 25.2876 30.75 25.1205 30.75L16.7191 30.75C16.3318 30.75 15.949 30.6368 15.6129 30.4186L4.24914 23.0429C3.77796 22.7371 3.59706 22.0564 3.89468 21.5115C4.18687 20.9767 4.79637 20.829 5.25654 21.1112ZM29.7688 30.75V20.5008H32.25V30.75H29.7688Z" fill="#0F1A38"/>
</svg>
