<svg width="36" height="36" viewBox="0 0 36 36" fill="none" xmlns="http://www.w3.org/2000/svg">
<path fill-rule="evenodd" clip-rule="evenodd" d="M13.4569 23.6003L13.5305 23.6825C14.4762 24.7382 15.2871 25.6477 15.8617 26.7223C16.2224 27.3969 16.4698 28.0927 16.6552 28.8776H19.6714C19.8567 28.0927 20.1042 27.3969 20.4649 26.7223C21.0395 25.6477 21.8503 24.7382 22.796 23.6825L22.8697 23.6003L22.9519 23.5267C24.5952 22.056 25.7143 20.0218 25.7143 17.898C25.7143 13.7606 22.122 10.347 18.1633 10.347C14.0604 10.347 10.8572 13.6591 10.8572 17.898C10.8572 20.1341 11.8267 22.1412 13.3747 23.5267L13.4569 23.6003ZM21.347 30.8776H14.9796C14.5878 27.9388 14 27.2041 12.0408 25.017C10.0869 23.2681 8.85718 20.7267 8.85718 17.898C8.85718 12.6231 12.8884 8.34695 18.1633 8.34695C23.1933 8.34695 27.7143 12.6231 27.7143 17.898C27.7143 20.7267 26.2397 23.2681 24.2857 25.017C22.3266 27.2041 21.7388 27.9388 21.347 30.8776Z" fill="#0F1A38"/>
<path fill-rule="evenodd" clip-rule="evenodd" d="M16.5102 5.65306V1H18.5102V5.65306H16.5102ZM25.9061 8.58001L29.6612 5.23307L30.9919 6.72609L27.2368 10.073L25.9061 8.58001ZM8.1918 10.0731L4.43672 6.72611L5.76747 5.23309L9.52255 8.58003L8.1918 10.0731ZM6.00003 18.5714H0.857178V16.5714H6.00003V18.5714ZM35.1429 18.5714H30V16.5714H35.1429V18.5714Z" fill="#0F1A38"/>
<path fill-rule="evenodd" clip-rule="evenodd" d="M20.2857 34H15.7143V32H20.2857V34Z" fill="#0F1A38"/>
<path fill-rule="evenodd" clip-rule="evenodd" d="M15.2328 15.5104C14.7542 16.1485 14.4286 17.076 14.4286 18.1429H12.4286C12.4286 16.6851 12.8705 15.3268 13.6328 14.3104C14.3953 13.2937 15.5251 12.5714 16.8572 12.5714V14.5714C16.2957 14.5714 15.7112 14.8725 15.2328 15.5104Z" fill="#0F1A38"/>
</svg>
