<svg width="36" height="36" viewBox="0 0 36 36" fill="none" xmlns="http://www.w3.org/2000/svg">
<path d="M21.0004 15C22.1049 15 23.0004 14.1046 23.0004 13C23.0004 11.8954 22.1049 11 21.0004 11C19.8958 11 19.0004 11.8954 19.0004 13C19.0004 14.1046 19.8958 15 21.0004 15Z" fill="#0F1A38"/>
<path fill-rule="evenodd" clip-rule="evenodd" d="M11.0004 6C8.23894 6 6.00037 8.23858 6.00037 11V24C6.00037 26.7614 8.23894 29 11.0004 29H24.0004C26.7618 29 29.0004 26.7614 29.0004 24V11C29.0004 8.23858 26.7618 6 24.0004 6H11.0004ZM24.0004 8H11.0004C9.34351 8 8.00037 9.34315 8.00037 11V20.3277L12.3418 14.1257C13.149 12.9724 14.8635 12.9919 15.6443 14.1632L20.0004 20.6972L21.4579 18.511C22.1796 17.4284 23.7266 17.3123 24.6019 18.275L27.0004 20.9134V11C27.0004 9.34315 25.6572 8 24.0004 8ZM8.00037 24V23.8152L13.9802 15.2726L18.3363 21.8066C19.1279 22.9941 20.8728 22.9941 21.6645 21.8066L23.122 19.6204L27.0004 23.8866V24C27.0004 25.6569 25.6572 27 24.0004 27H11.0004C9.34351 27 8.00037 25.6569 8.00037 24Z" fill="#0F1A38"/>
</svg>
