<svg width="36" height="36" viewBox="0 0 36 36" fill="none" xmlns="http://www.w3.org/2000/svg">
<path fill-rule="evenodd" clip-rule="evenodd" d="M11 12C7.68629 12 5 14.6863 5 18C5 21.3137 7.68629 24 11 24C12.5882 24 13.8288 23.2959 14.8203 22.1562C15.8316 20.9937 16.5613 19.3953 17.0385 17.7253C17.5613 15.8953 18.3986 13.9937 19.6708 12.5312C20.9628 11.0459 22.7223 10 25 10C29.4183 10 33 13.5817 33 18C33 22.4183 29.4183 26 25 26C22.8206 26 20.843 25.1272 19.4011 23.7142L20.8009 22.2858C21.8841 23.3472 23.3648 24 25 24C28.3137 24 31 21.3137 31 18C31 14.6863 28.3137 12 25 12C23.4118 12 22.1712 12.7041 21.1797 13.8438C20.1684 15.0063 19.4387 16.6047 18.9615 18.2747C18.4387 20.1047 17.6014 22.0063 16.3292 23.4688C15.0372 24.9541 13.2777 26 11 26C6.58172 26 3 22.4183 3 18C3 13.5817 6.58172 10 11 10C13.1794 10 15.157 10.8728 16.5989 12.2858L15.1991 13.7142C14.1159 12.6528 12.6352 12 11 12Z" fill="#0F1A38"/>
</svg>
