<svg width="36" height="36" viewBox="0 0 36 36" fill="none" xmlns="http://www.w3.org/2000/svg">
<path fill-rule="evenodd" clip-rule="evenodd" d="M17.9989 5.99998C11.3715 5.99998 5.999 11.3725 5.999 17.9999C5.999 24.6272 11.3715 29.9998 17.9989 29.9998C24.6262 29.9998 29.9988 24.6272 29.9988 17.9999C29.9988 11.3725 24.6262 5.99998 17.9989 5.99998ZM3.99902 17.9999C3.99902 10.268 10.267 4 17.9989 4C25.7308 4 31.9988 10.268 31.9988 17.9999C31.9988 25.7318 25.7308 31.9997 17.9989 31.9997C10.267 31.9997 3.99902 25.7318 3.99902 17.9999Z" fill="#0F1A38"/>
<path fill-rule="evenodd" clip-rule="evenodd" d="M19.0003 14.9997V25.9995H17.0004V14.9997H19.0003Z" fill="#0F1A38"/>
<path d="M17.9996 12.9996C18.8281 12.9996 19.4996 12.3281 19.4996 11.4996C19.4996 10.6712 18.8281 9.99966 17.9996 9.99966C17.1712 9.99966 16.4997 10.6712 16.4997 11.4996C16.4997 12.3281 17.1712 12.9996 17.9996 12.9996Z" fill="#0F1A38"/>
</svg>
