<svg width="36" height="36" viewBox="0 0 36 36" fill="none" xmlns="http://www.w3.org/2000/svg">
<path fill-rule="evenodd" clip-rule="evenodd" d="M18.0027 10.8099C14.0316 10.8099 10.8099 14.0317 10.8099 18.0027C10.8099 21.9738 14.0316 25.1956 18.0027 25.1956C21.9738 25.1956 25.1955 21.9738 25.1955 18.0027C25.1955 14.0317 21.9738 10.8099 18.0027 10.8099ZM18.0027 22.6685C15.4265 22.6685 13.337 20.579 13.337 18.0027C13.337 15.4265 15.4265 13.337 18.0027 13.337C20.579 13.337 22.6685 15.4265 22.6685 18.0027C22.6685 20.579 20.579 22.6685 18.0027 22.6685Z" fill="#0F1A38"/>
<path d="M25.48 12.2047C26.4044 12.2047 27.1592 11.4553 27.1592 10.5254C27.1592 9.60103 26.4044 8.84619 25.48 8.84619C24.5556 8.84619 23.8007 9.59556 23.8007 10.5254C23.8007 11.4498 24.5501 12.2047 25.48 12.2047Z" fill="#0F1A38"/>
<path fill-rule="evenodd" clip-rule="evenodd" d="M18.0027 4C14.2012 4 13.7253 4.01641 12.2321 4.08205C10.7443 4.14769 9.72143 4.38836 8.83532 4.73296C7.91092 5.09396 7.12874 5.56984 6.35202 6.35202C5.56984 7.12874 5.09396 7.91092 4.73296 8.82985C4.38836 9.72143 4.14769 10.7388 4.08205 12.2266C4.01641 13.7253 4 14.2012 4 18.0027C4 21.8043 4.01641 22.2801 4.08205 23.7734C4.14769 25.2612 4.38836 26.284 4.73296 27.1702C5.09396 28.0945 5.56984 28.8767 6.35202 29.6534C7.12874 30.4302 7.91092 30.9115 8.82985 31.267C9.72143 31.6116 10.7388 31.8523 12.2266 31.918C13.7199 31.9836 14.1957 32 17.9973 32C21.7988 32 22.2747 31.9836 23.7679 31.918C25.2557 31.8523 26.2786 31.6116 27.1647 31.267C28.0836 30.9115 28.8658 30.4302 29.6425 29.6534C30.4192 28.8767 30.9006 28.0946 31.2561 27.1756C31.6007 26.284 31.8414 25.2667 31.907 23.7789C31.9727 22.2856 31.9891 21.8097 31.9891 18.0082C31.9891 14.2067 31.9727 13.7308 31.907 12.2375C31.8414 10.7498 31.6007 9.7269 31.2561 8.84079C30.9115 7.91092 30.4356 7.12874 29.6535 6.35202C28.8767 5.57531 28.0946 5.09396 27.1756 4.73843C26.284 4.39383 25.2667 4.15315 23.7789 4.08752C22.2801 4.01641 21.8043 4 18.0027 4ZM18.0027 6.52159C21.7441 6.52159 22.1871 6.538 23.6585 6.60363C25.026 6.6638 25.7644 6.89353 26.2567 7.08498C26.9076 7.33659 27.378 7.6429 27.8648 8.12971C28.3571 8.622 28.6579 9.08693 28.9096 9.73784C29.101 10.2301 29.3307 10.974 29.3909 12.336C29.4565 13.8129 29.4729 14.2559 29.4729 17.9918C29.4729 21.7332 29.4565 22.1762 29.3909 23.6476C29.3307 25.015 29.101 25.7535 28.9096 26.2458C28.6579 26.8967 28.3516 27.3671 27.8648 27.8539C27.3725 28.3462 26.9076 28.647 26.2567 28.8986C25.7644 29.0901 25.0205 29.3198 23.6585 29.38C22.1817 29.4456 21.7386 29.462 18.0027 29.462C14.2614 29.462 13.8183 29.4456 12.3469 29.38C10.9795 29.3198 10.2411 29.0901 9.74878 28.8986C9.09787 28.647 8.62747 28.3407 8.14065 27.8539C7.64837 27.3616 7.34753 26.8967 7.09592 26.2458C6.90447 25.7535 6.67474 25.0096 6.61457 23.6476C6.54894 22.1707 6.53253 21.7277 6.53253 17.9918C6.53253 14.2504 6.54894 13.8074 6.61457 12.336C6.67474 10.9685 6.90447 10.2301 7.09592 9.73784C7.34753 9.08693 7.65384 8.61653 8.14065 8.12971C8.63294 7.63743 9.09787 7.33659 9.74878 7.08498C10.2411 6.89353 10.985 6.6638 12.3469 6.60363C13.8183 6.538 14.2614 6.52159 18.0027 6.52159Z" fill="#0F1A38"/>
</svg>
