<svg width="36" height="36" viewBox="0 0 36 36" fill="none" xmlns="http://www.w3.org/2000/svg">
<path d="M16.6501 5.29C9.85014 5.68 4.00014 10.94 4.00014 17.92C3.99748 18.0598 4.03199 18.1979 4.10014 18.32C4.16876 18.4432 4.26451 18.5492 4.38014 18.63C4.50195 18.703 4.6387 18.7474 4.78014 18.76C4.92054 18.7718 5.06163 18.7477 5.19014 18.69C6.2316 18.1327 7.41438 17.8952 8.59023 18.0073C9.76609 18.1194 10.8827 18.576 11.8001 19.32C11.8694 19.4033 11.9546 19.4719 12.0508 19.5217C12.147 19.5715 12.2522 19.6016 12.3601 19.61C12.5806 19.6295 12.7998 19.5612 12.9701 19.42L13.2001 19.22C14.2085 18.4835 15.4044 18.0467 16.6501 17.96V28.04C16.6512 28.2071 16.6191 28.3727 16.5555 28.5272C16.492 28.6817 16.3984 28.822 16.2801 28.94C16.164 29.058 16.0254 29.1515 15.8726 29.215C15.7197 29.2786 15.5557 29.3109 15.3901 29.31C15.2231 29.3111 15.0575 29.2789 14.903 29.2154C14.7485 29.1519 14.6081 29.0583 14.4901 28.94C14.2558 28.6986 14.1233 28.3764 14.1201 28.04C14.1201 27.8172 14.0316 27.6036 13.8741 27.446C13.7166 27.2885 13.5029 27.2 13.2801 27.2C13.1685 27.1997 13.058 27.2217 12.955 27.2646C12.852 27.3075 12.7585 27.3706 12.6801 27.45C12.601 27.5265 12.5381 27.6182 12.4951 27.7196C12.4522 27.8209 12.4301 27.9299 12.4301 28.04C12.4361 28.8236 12.7483 29.5737 13.3001 30.13C13.5731 30.4068 13.8985 30.6264 14.2574 30.7758C14.6163 30.9252 15.0014 31.0014 15.3901 31C16.1771 30.9869 16.9274 30.665 17.4792 30.1038C18.0311 29.5426 18.3403 28.7871 18.3401 28V17.96C19.5792 18.0484 20.7697 18.4776 21.7801 19.2C21.8714 19.2713 21.9582 19.3481 22.0401 19.43C22.2104 19.5633 22.4246 19.6276 22.6401 19.61C22.8557 19.584 23.0546 19.481 23.2001 19.32C24.1124 18.5696 25.228 18.1087 26.4039 17.9965C27.5798 17.8842 28.7624 18.1257 29.8001 18.69C29.9287 18.7477 30.0697 18.7718 30.2101 18.76C30.3528 18.7536 30.491 18.7087 30.6101 18.63C30.7306 18.5548 30.8276 18.4475 30.8901 18.32C30.9613 18.1987 30.9993 18.0607 31.0001 17.92C31.0001 10.92 25.1501 5.68 18.3401 5.29V4.84C18.3401 4.61721 18.2516 4.40356 18.0941 4.24603C17.9366 4.08849 17.7229 4 17.5001 4C17.2767 4 17.0619 4.08593 16.9001 4.24C16.7415 4.39959 16.6518 4.61499 16.6501 4.84V5.29ZM21.6501 17.17C20.3421 16.5499 18.9127 16.2283 17.4651 16.2283C16.0176 16.2283 14.5882 16.5499 13.2801 17.17C13.4901 12.35 14.6401 9.80999 15.6101 8.50999C16.0705 7.83209 16.7162 7.30096 17.4701 6.98C18.2946 7.32455 18.9929 7.91463 19.4701 8.67C20.3901 9.98 21.4701 12.49 21.6801 17.17H21.6501ZM23.3401 17.17C23.2101 13.86 22.5901 9.91 20.5401 7.32C22.7572 7.82188 24.7706 8.98243 26.3161 10.6493C27.8616 12.3162 28.867 14.4114 29.2001 16.66C28.238 16.3541 27.2249 16.2417 26.2192 16.3293C25.2134 16.4168 24.2349 16.7025 23.3401 17.17ZM5.73014 16.66C6.06332 14.4114 7.06866 12.3162 8.61417 10.6493C10.1597 8.98243 12.1731 7.82188 14.3901 7.32C12.3901 9.91 11.7301 13.86 11.5901 17.17C10.6953 16.7025 9.71687 16.4168 8.71112 16.3293C7.70537 16.2417 6.69225 16.3541 5.73014 16.66Z" fill="#0F1A38"/>
</svg>
