<svg width="36" height="36" viewBox="0 0 36 36" fill="none" xmlns="http://www.w3.org/2000/svg">
<path d="M3.875 5V29.2929C3.875 30.857 5.14296 32.125 6.70707 32.125H31V29.875H6.70707C6.3856 29.875 6.125 29.6144 6.125 29.2929V27.7989L14.4077 15.5369L20.4774 22.8188C21.6622 24.2402 23.9757 23.4024 23.9757 21.552V14.1609L29.875 8.74262V13.6667H32.125V5.05682H22.8507V7.30682H28.112L22.3659 12.5845C21.9579 12.9592 21.7257 13.4877 21.7257 14.0416V20.8023L15.9048 13.8188C15.0613 12.8068 13.4829 12.8864 12.7454 13.9781L6.125 23.7792V5H3.875Z" fill="#0F1A38"/>
</svg>
