<svg width="36" height="36" viewBox="0 0 36 36" fill="none" xmlns="http://www.w3.org/2000/svg">
<path d="M11 9.90069H25V7.92053H11V9.90069Z" fill="#0F1A38"/>
<path d="M25 14.8515H11V12.8713H25V14.8515Z" fill="#0F1A38"/>
<path d="M25 19.8015H11V17.8214H25V19.8015Z" fill="#0F1A38"/>
<path fill-rule="evenodd" clip-rule="evenodd" d="M6 5C6 3.89543 6.89543 3 8 3H28C29.1046 3 30 3.89543 30 5V29.6516C30 31.1649 28.3843 32.13 27.0518 31.4125L24.5853 30.0844C23.9199 29.7261 23.1093 29.7735 22.4902 30.2069L19.6469 32.1972C18.9583 32.6792 18.0417 32.6792 17.3531 32.1972L14.4461 30.1623C13.8607 29.7525 13.101 29.6862 12.4534 29.9884L8.84577 31.672C7.51981 32.2908 6 31.3228 6 29.8596V5ZM8 5H28V29.6516L25.5335 28.3235C24.2027 27.6068 22.5815 27.7016 21.3433 28.5684L18.5 30.5587L15.5931 28.5238C14.4221 27.7042 12.9029 27.5716 11.6077 28.176L8 29.8596V5Z" fill="#0F1A38"/>
</svg>
