<svg width="36" height="36" viewBox="0 0 36 36" fill="none" xmlns="http://www.w3.org/2000/svg">
<path fill-rule="evenodd" clip-rule="evenodd" d="M9.98372 27.6092C8.17931 25.6256 7.159 22.9001 7.59965 19.8235C7.84433 18.1152 8.35344 16.4315 9.24332 14.8902C11.9887 10.135 16.0411 9.2219 19.7906 8.37704C21.4231 8.00918 22.9982 7.65426 24.3829 7.00078C24.9963 6.71135 25.5723 6.36334 26.0994 5.92969C26.0994 5.92969 26.4296 6.65828 26.8499 7.87219C28.0871 11.4464 30.1043 19.228 26.7674 25.0077C25.8775 26.549 24.6739 27.8318 23.3169 28.8978C19.5743 31.8377 14.8319 31.3993 11.5198 28.9857C10.6246 29.5982 9.62414 30.2237 8.49615 30.8683L7.50388 29.1318C8.41849 28.6091 9.24042 28.1027 9.98372 27.6092ZM25.0353 24.0077C24.2967 25.287 23.2791 26.3842 22.0814 27.3251C19.3103 29.5018 15.8323 29.3312 13.2356 27.7302C14.5744 26.6784 15.6348 25.6541 16.5388 24.6247C17.8535 23.1274 18.8361 21.6129 19.8352 20.0728C20.161 19.5707 20.4885 19.0658 20.8299 18.5579L19.1701 17.4422C18.7889 18.0093 18.4381 18.5498 18.0995 19.0715C17.1221 20.5773 16.2465 21.9264 15.0359 23.305C14.1416 24.3235 13.0631 25.3555 11.633 26.4409C10.1026 24.8528 9.21862 22.6263 9.57945 20.1071C9.79539 18.5994 10.2368 17.1695 10.9754 15.8902C12.8326 12.6734 15.3405 11.5621 18.1872 10.8137C18.8587 10.6372 19.5319 10.4855 20.2348 10.3271L20.4292 10.2833C21.1876 10.1121 21.983 9.92994 22.7605 9.71023C23.5255 9.49409 24.3107 9.23202 25.0806 8.88175C25.4391 9.95823 25.8441 11.3633 26.1452 12.9403C26.8409 16.5846 26.9083 20.7637 25.0353 24.0077Z" fill="#0F1A38"/>
</svg>
