<svg width="36" height="36" viewBox="0 0 36 36" fill="none" xmlns="http://www.w3.org/2000/svg">
<path fill-rule="evenodd" clip-rule="evenodd" d="M17.2308 5.15385C17.7231 4.94872 18.2769 4.94872 18.7692 5.15385L29.7692 9.73718C30.5145 10.0477 31 10.7759 31 11.5833V14.4167C31 15.5212 30.1046 16.4167 29 16.4167H28V22.9167L29 22.9167C30.1046 22.9167 31 23.8121 31 24.9167V28.9167C31 30.0212 30.1046 30.9167 29 30.9167H7C5.89543 30.9167 5 30.0212 5 28.9167V24.9167C5 23.8121 5.89543 22.9167 7 22.9167L8 22.9167V16.4167H7C5.89543 16.4167 5 15.5212 5 14.4167V11.5833C5 10.7759 5.48548 10.0477 6.23077 9.73718L17.2308 5.15385ZM26 22.9167V16.4167H22V22.9167H26ZM16 22.9167V16.4167H20V22.9167H16ZM14 22.9167V16.4167H10V22.9167H14ZM29 11.5833L18 7L7 11.5833V14.4167H29V11.5833ZM7 24.9167V28.9167H29V24.9167H7Z" fill="#0F1A38"/>
</svg>
