<svg width="36" height="36" viewBox="0 0 36 36" fill="none" xmlns="http://www.w3.org/2000/svg">
<path d="M29 14C29 17.866 25.866 21 22 21C19.3553 21 17.0532 19.5334 15.8626 17.3691L13.521 17.0251C14.7636 20.5076 18.0907 23 22 23C26.9705 23 31 18.9706 31 14C31 9.02944 26.9705 5 22 5C18.0763 5 14.739 7.51088 13.5073 11.0135L15.6175 11.1211C16.7153 8.69103 19.1602 7 22 7C25.866 7 29 10.134 29 14Z" fill="#0F1A38"/>
<path d="M7 22C7 18.134 10.134 15 14 15C16.6501 15 18.9562 16.4727 20.1447 18.6443L22.477 18.9694C21.2329 15.4898 17.9072 13 14 13C9.02944 13 5 17.0294 5 22C5 26.9706 9.02944 31 14 31C17.9208 31 21.2561 28.4928 22.49 24.9941L20.3798 24.8848C19.2807 27.3117 16.8375 29 14 29C10.134 29 7 25.866 7 22Z" fill="#0F1A38"/>
</svg>
