<svg width="36" height="36" viewBox="0 0 36 36" fill="none" xmlns="http://www.w3.org/2000/svg">
<path fill-rule="evenodd" clip-rule="evenodd" d="M20.2168 8.74227C19.0858 7.75258 17.3969 7.75258 16.2658 8.74227L7.08218 16.7779C7.05949 16.7978 7.04088 16.8219 7.0274 16.8489C6.9502 17.0033 7.06247 17.1849 7.2351 17.1849H7.40445C8.69507 17.1849 9.74133 18.2312 9.74133 19.5218V27.1849H26.7413V19.5003C26.7413 18.2093 27.8027 17.1849 29.0691 17.1849C29.2775 17.1849 29.4115 16.9886 29.3694 16.8204C29.3549 16.7624 29.323 16.7102 29.278 16.6708L20.2168 8.74227ZM14.9488 7.23712C16.8339 5.58763 19.6487 5.58763 21.5338 7.23712L30.595 15.1656C30.9469 15.4736 31.1963 15.8817 31.3097 16.3353C31.6758 17.7997 30.5436 19.1849 29.0691 19.1849C28.8827 19.1849 28.7413 19.3383 28.7413 19.5003V28.1849C28.7413 28.7372 28.2936 29.1849 27.7413 29.1849H8.74133C8.18904 29.1849 7.74133 28.7372 7.74133 28.1849V19.5218C7.74133 19.3358 7.5905 19.1849 7.40445 19.1849H7.2351C5.57571 19.1849 4.49644 17.4386 5.23854 15.9544C5.36817 15.6952 5.54704 15.4637 5.76517 15.2728L14.9488 7.23712Z" fill="#0F1A38"/>
<path fill-rule="evenodd" clip-rule="evenodd" d="M18.2413 19.6849C17.1368 19.6849 16.2413 20.5804 16.2413 21.6849V27.6849C16.2413 28.2372 15.7936 28.6849 15.2413 28.6849C14.689 28.6849 14.2413 28.2372 14.2413 27.6849V21.6849C14.2413 19.4758 16.0322 17.6849 18.2413 17.6849C20.4505 17.6849 22.2413 19.4758 22.2413 21.6849V26.9926C22.2413 27.5449 21.7936 27.9926 21.2413 27.9926C20.689 27.9926 20.2413 27.5449 20.2413 26.9926V21.6849C20.2413 20.5804 19.3459 19.6849 18.2413 19.6849Z" fill="#0F1A38"/>
</svg>
