<svg width="36" height="36" viewBox="0 0 36 36" fill="none" xmlns="http://www.w3.org/2000/svg">
<path fill-rule="evenodd" clip-rule="evenodd" d="M23 12V31H21L21 12H23Z" fill="#0F1A38"/>
<path fill-rule="evenodd" clip-rule="evenodd" d="M10 5V12.5C10 13.7505 10.2832 14.7702 10.7746 15.4493C11.235 16.0855 11.9291 16.5 13 16.5C14.0709 16.5 14.765 16.0855 15.2254 15.4493C15.7168 14.7702 16 13.7505 16 12.5V5H18V12.5C18 14.0109 17.6639 15.4912 16.8456 16.6218C15.9964 17.7952 14.6905 18.5 13 18.5C11.3095 18.5 10.0036 17.7952 9.15436 16.6218C8.33612 15.4912 8 14.0109 8 12.5V5H10Z" fill="#0F1A38"/>
<path d="M12 17H14V31H12V17Z" fill="#0F1A38"/>
<path d="M12 5H14V14H12V5Z" fill="#0F1A38"/>
<path fill-rule="evenodd" clip-rule="evenodd" d="M26 19V12C26 9.94968 24.7659 8.1876 23 7.41604V19H26ZM23 5.28988C25.8915 6.15043 28 8.82898 28 12V21H21V5C21.695 5 22.3663 5.10128 23 5.28988Z" fill="#0F1A38"/>
</svg>
