<svg width="36" height="36" viewBox="0 0 36 36" fill="none" xmlns="http://www.w3.org/2000/svg">
<path d="M25.875 23.0795C25.875 17.8874 21.6225 17.2957 18.2058 16.8211C14.482 16.3026 12.375 15.8536 12.375 12.6474C12.375 9.95524 15.1955 9 17.6105 9C18.8142 8.96106 20.01 9.20882 21.0991 9.72284C22.1882 10.2369 23.1396 11.0024 23.8747 11.9564L25.6254 10.5436C24.8381 9.53135 23.8585 8.68465 22.743 8.05219C21.6274 7.41972 20.3979 7.01396 19.125 6.85822V3.375H16.875V6.77475C12.8079 7.02135 10.125 9.31725 10.125 12.6472C10.125 17.9685 14.4338 18.5678 17.8959 19.0485C21.555 19.5579 23.625 19.9962 23.625 23.0795C23.625 26.4908 20.1008 27 18 27C14.1419 27 12.512 25.9156 11.0004 24.0436L9.24965 25.4564C10.1415 26.6316 11.2951 27.5828 12.6187 28.2345C13.9424 28.8861 15.3997 29.2203 16.875 29.2104V32.625H19.125V29.1995C23.3163 28.8573 25.875 26.5814 25.875 23.0795Z" fill="#0F1A38"/>
</svg>
