<svg width="36" height="36" viewBox="0 0 36 36" fill="none" xmlns="http://www.w3.org/2000/svg">
<path d="M19 10C19 13.3137 16.3137 16 13 16C9.68629 16 7 13.3137 7 10C7 6.68629 9.68629 4 13 4C16.3137 4 19 6.68629 19 10ZM17 10C17 7.79086 15.2091 6 13 6C10.7909 6 9 7.79086 9 10C9 12.2091 10.7909 14 13 14C15.2091 14 17 12.2091 17 10Z" fill="black"/>
<path d="M20.6291 6.34647C20.1291 6.58105 19.5336 6.36589 19.299 5.8659C19.0644 5.36591 19.2796 4.77042 19.7796 4.53584C20.513 4.19175 21.3282 4 22.1848 4C25.4315 4 27.9998 6.72215 27.9998 10C27.9998 13.2778 25.4315 16 22.1848 16C21.6331 16 21.0979 15.9204 20.5902 15.7714C20.0603 15.6158 19.7568 15.0601 19.9124 14.5301C20.068 14.0002 20.6237 13.6968 21.1536 13.8524C21.4807 13.9484 21.8262 14 22.1848 14C24.2566 14 25.9998 12.245 25.9998 10C25.9998 7.755 24.2566 6 22.1848 6C21.6295 6 21.1038 6.12375 20.6291 6.34647Z" fill="black"/>
<path d="M26.2758 19.0387C30.8299 20.344 33.5003 24.545 33.5003 29.6526L33.5 31.5H31.5L31.5003 29.6526C31.5003 25.2435 29.248 21.9712 25.7247 20.9613C25.1938 20.8091 24.8868 20.2554 25.039 19.7245C25.1911 19.1936 25.7449 18.8866 26.2758 19.0387Z" fill="black"/>
<path d="M17.0699 19.0025C19.9389 19.2034 22.3191 20.4515 23.9724 22.4339C25.618 24.4071 26.5 27.053 26.5 30V31.5H24.5V30C24.5 27.4471 23.738 25.2755 22.4364 23.7149C21.1427 22.1636 19.2729 21.1617 16.9302 20.9976C16.3792 20.959 15.9639 20.4811 16.0025 19.9302C16.0411 19.3792 16.519 18.9639 17.0699 19.0025Z" fill="black"/>
<path d="M12.6701 23.7421L11.3295 22.2579L8.13877 25.1399L6.68518 23.7718L5.31445 25.2282L8.11087 27.8602L12.6701 23.7421Z" fill="black"/>
<path d="M9 32C5.13401 32 2 28.866 2 25C2 21.134 5.13401 18 9 18C12.866 18 16 21.134 16 25C16 28.866 12.866 32 9 32ZM9 30C11.7614 30 14 27.7614 14 25C14 22.2386 11.7614 20 9 20C6.23858 20 4 22.2386 4 25C4 27.7614 6.23858 30 9 30Z" fill="black"/>
</svg>
