<svg width="36" height="36" viewBox="0 0 36 36" fill="none" xmlns="http://www.w3.org/2000/svg">
<path d="M20.9566 7.48093C20.7108 6.07147 19.4812 5 18.0013 5C16.5215 5 15.2919 6.07147 15.0461 7.48093C14.0533 7.80678 13.0592 8.31263 12.1682 9.04155C10.321 10.5527 9.00134 12.9556 9.00134 16.4444C9.00134 16.4898 9.00544 16.5804 9.01128 16.7098C9.04589 17.4761 9.14189 19.6019 8.81309 21.7277C8.62106 22.9693 8.29771 24.0919 7.80419 24.8787C7.33536 25.6262 6.76988 26 6.00134 26V28H14.1274C14.5714 29.7252 16.1375 31 18.0013 31C19.8652 31 21.4313 29.7252 21.8753 28H30.0013V26C29.2135 26 28.6495 25.6322 28.1899 24.9247C27.7023 24.174 27.3806 23.0956 27.1891 21.8829C26.8713 19.8701 26.9512 17.8218 26.9879 16.8784C26.9956 16.683 27.0013 16.5349 27.0013 16.4444C27.0013 12.9556 25.6817 10.5527 23.8345 9.04155C22.9435 8.31263 21.9493 7.80678 20.9566 7.48093ZM13.4345 10.5896C14.8236 9.45326 16.5866 9 18.0013 9C19.4161 9 21.1791 9.45326 22.5682 10.5896C23.9209 11.6962 25.0013 13.5155 25.0013 16.4444C25.0013 16.4883 24.9975 16.5793 24.9918 16.7107C24.9568 17.5309 24.8547 19.9221 25.2136 22.1949C25.4212 23.5098 25.7971 24.9056 26.5036 26H9.46126C9.47379 25.9806 9.4862 25.961 9.49849 25.9414C10.205 24.8151 10.5816 23.3779 10.7896 22.0334C11.0003 20.6711 11.0513 19.3092 11.0513 18.2719C11.0513 17.7508 11.0384 17.3068 11.0256 16.9799C11.0191 16.8165 11.0127 16.6824 11.008 16.5845L11.0024 16.4652C11.0016 16.447 11.0013 16.4421 11.0013 16.4444C11.0013 13.5155 12.0817 11.6962 13.4345 10.5896ZM18.0013 29C17.2611 29 16.6147 28.5978 16.2689 28H19.7338C19.388 28.5978 18.7416 29 18.0013 29Z" fill="#0F1A38"/>
</svg>
