<svg width="36" height="36" viewBox="0 0 36 36" fill="none" xmlns="http://www.w3.org/2000/svg">
<path fill-rule="evenodd" clip-rule="evenodd" d="M27 7L15 7L15 29L27 29L27 7ZM8 7L13 7L13 29L8 29L8 7ZM8 5C6.89542 5 6 5.89543 6 7L6 29C6 30.1046 6.89542 31 8 31L27 31C28.1046 31 29 30.1046 29 29L29 7C29 5.89543 28.1046 5 27 5L8 5ZM23.9469 18.4609C24.2347 18.2211 24.2347 17.7789 23.9469 17.5391L19.4841 13.8201C19.0933 13.4944 18.5 13.7723 18.5 14.281L18.5 21.719C18.5 22.2277 19.0933 22.5056 19.4841 22.1799L23.9469 18.4609Z" fill="#0F1A38"/>
</svg>
