<svg width="36" height="36" viewBox="0 0 36 36" fill="none" xmlns="http://www.w3.org/2000/svg">
<path fill-rule="evenodd" clip-rule="evenodd" d="M15.619 21.1349C16.3238 21.6058 17.1524 21.8571 18 21.8571C19.1363 21.8559 20.2256 21.4039 21.0291 20.6005C21.8325 19.797 22.2844 18.7077 22.2857 17.5714C22.2857 16.7238 22.0344 15.8952 21.5634 15.1904C21.0925 14.4856 20.4232 13.9363 19.6401 13.6119C18.857 13.2876 17.9952 13.2027 17.1639 13.3681C16.3326 13.5334 15.5689 13.9416 14.9695 14.541C14.3702 15.1403 13.962 15.904 13.7966 16.7353C13.6313 17.5667 13.7161 18.4284 14.0405 19.2115C14.3649 19.9946 14.9142 20.664 15.619 21.1349ZM16.8095 15.7897C17.1619 15.5542 17.5762 15.4286 18 15.4286C18.5681 15.4291 19.1129 15.6551 19.5146 16.0568C19.9163 16.4586 20.1423 17.0033 20.1429 17.5714C20.1429 17.9952 20.0172 18.4095 19.7817 18.7619C19.5463 19.1143 19.2116 19.389 18.82 19.5512C18.4285 19.7134 17.9976 19.7558 17.582 19.6731C17.1663 19.5904 16.7845 19.3863 16.4848 19.0867C16.1851 18.787 15.981 18.4052 15.8983 17.9895C15.8156 17.5738 15.8581 17.143 16.0203 16.7514C16.1824 16.3598 16.4571 16.0252 16.8095 15.7897Z" fill="#0F1A38"/>
<path d="M25.3809 15.7897C25.7333 15.5542 26.1476 15.4286 26.5714 15.4286C27.1398 15.4286 27.6848 15.6543 28.0867 16.0562C28.4885 16.4581 28.7143 17.0031 28.7143 17.5714C28.7143 17.9952 28.5886 18.4095 28.3532 18.7619C28.1177 19.1143 27.783 19.389 27.3915 19.5512C26.9999 19.7134 26.5691 19.7558 26.1534 19.6731C25.7377 19.5904 25.3559 19.3863 25.0562 19.0867C24.7565 18.787 24.5524 18.4052 24.4697 17.9895C24.3871 17.5738 24.4295 17.1429 24.5917 16.7514C24.7539 16.3598 25.0285 16.0252 25.3809 15.7897Z" fill="#0F1A38"/>
<path d="M9.42857 15.4286C9.00476 15.4286 8.59046 15.5542 8.23806 15.7897C7.88567 16.0252 7.61102 16.3598 7.44883 16.7514C7.28664 17.1429 7.24421 17.5738 7.32689 17.9895C7.40957 18.4052 7.61366 18.787 7.91334 19.0867C8.21303 19.3863 8.59485 19.5904 9.01052 19.6731C9.4262 19.7558 9.85705 19.7134 10.2486 19.5512C10.6402 19.389 10.9748 19.1143 11.2103 18.7619C11.4458 18.4095 11.5714 17.9952 11.5714 17.5714C11.5714 17.0031 11.3457 16.4581 10.9438 16.0562C10.5419 15.6543 9.99689 15.4286 9.42857 15.4286Z" fill="#0F1A38"/>
<path fill-rule="evenodd" clip-rule="evenodd" d="M5.14286 26.1429H30.8571C31.4252 26.1421 31.9698 25.9161 32.3715 25.5144C32.7732 25.1127 32.9992 24.5681 33 24V11.1429C32.9986 10.575 32.7723 10.0308 32.3708 9.62922C31.9692 9.22767 31.425 9.00144 30.8571 9H5.14286C4.57498 9.00144 4.03077 9.22767 3.62922 9.62922C3.22767 10.0308 3.00144 10.575 3 11.1429V24C3.00144 24.5679 3.22767 25.1121 3.62922 25.5136C4.03077 25.9152 4.57498 26.1414 5.14286 26.1429ZM5.14286 11.1429H30.8571V24H5.14286V11.1429Z" fill="#0F1A38"/>
</svg>
