<svg width="36" height="36" viewBox="0 0 36 36" fill="none" xmlns="http://www.w3.org/2000/svg">
<path fill-rule="evenodd" clip-rule="evenodd" d="M21 5C21 4.44772 21.4477 4 22 4H32C32.3777 4 32.7232 4.21281 32.8931 4.55013C33.063 4.88745 33.0284 5.29172 32.8036 5.59523L30.2815 9L32.8036 12.4048C33.0284 12.7083 33.063 13.1126 32.8931 13.4499C32.7232 13.7872 32.3777 14 32 14H23V18.125C23 18.6082 22.5523 19 22 19C21.4477 19 21 18.6082 21 18.125V5ZM23 12H30.0148L28.2335 9.59523C27.9716 9.24163 27.9716 8.75837 28.2335 8.40477L30.0148 6L23 6V12Z" fill="black"/>
<path fill-rule="evenodd" clip-rule="evenodd" d="M11 17C7.68629 17 5 14.3137 5 11C5 7.68629 7.68629 5 11 5C14.3137 5 17 7.68629 17 11C17 14.3137 14.3137 17 11 17ZM11 15C13.2091 15 15 13.2091 15 11C15 8.79086 13.2091 7 11 7C8.79086 7 7 8.79086 7 11C7 13.2091 8.79086 15 11 15Z" fill="black"/>
<path fill-rule="evenodd" clip-rule="evenodd" d="M11.5001 21C8.92934 21 6.57301 22.1858 4.83981 24.1598L3.33691 22.8402C5.40191 20.4883 8.28495 19 11.5001 19C17.9726 19 23.0001 24.9499 23.0001 32H21.0001C21.0001 25.7953 16.6255 21 11.5001 21Z" fill="black"/>
</svg>
