<svg width="36" height="36" viewBox="0 0 36 36" fill="none" xmlns="http://www.w3.org/2000/svg">
<path d="M23.38 9.00004H12.38L17.18 4.21004L15.79 2.79004L8.59 10L15.79 17.21L17.21 15.79L12.41 11H23.41C24.7191 10.9976 25.9994 11.384 27.0886 12.1102C28.1779 12.8363 29.0269 13.8696 29.5282 15.0789C30.0295 16.2882 30.1604 17.6191 29.9044 18.9029C29.6483 20.1867 29.0169 21.3656 28.09 22.29L29.51 23.71C30.7158 22.5021 31.5359 20.9635 31.8664 19.289C32.1969 17.6145 32.0228 15.8797 31.3663 14.3042C30.7098 12.7288 29.6003 11.3837 28.1786 10.4394C26.7568 9.49515 25.0868 8.99419 23.38 9.00004Z" fill="#0F1A38"/>
<path d="M6.52 12.29C5.31659 13.4955 4.4973 15.0305 4.16556 16.7013C3.83383 18.372 4.00451 20.1035 4.65608 21.6774C5.30764 23.2512 6.41086 24.5966 7.82648 25.544C9.2421 26.4913 10.9067 26.998 12.61 27H23.61L18.82 31.79L20.24 33.21L27.41 26L20.21 18.79L18.79 20.21L23.58 25H12.58C11.2743 24.9945 9.99951 24.6025 8.91641 23.8733C7.8333 23.1441 6.99041 22.1104 6.49408 20.9028C5.99774 19.6951 5.8702 18.3675 6.12752 17.0874C6.38485 15.8073 7.01553 14.6321 7.94 13.71L6.52 12.29Z" fill="#0F1A38"/>
</svg>
