<svg width="36" height="36" viewBox="0 0 36 36" fill="none" xmlns="http://www.w3.org/2000/svg">
<path fill-rule="evenodd" clip-rule="evenodd" d="M22.0745 18.6464C22.0765 18.6175 22.0775 18.5883 22.0775 18.5587C22.0775 17.8389 21.4817 17.3508 20.7166 17.0489C19.9412 16.7429 18.9301 16.6 17.9638 16.6C16.9975 16.6 15.9863 16.7423 15.2109 17.0481C14.4457 17.3499 13.85 17.8383 13.85 18.5594C13.85 18.5901 13.8511 18.6203 13.8532 18.6501H13.85V21.4981H13.8384L13.85 21.5492V24.3791C13.85 25.0978 14.446 25.5854 15.2109 25.8869C15.9863 26.1926 16.9974 26.3355 17.9638 26.3355C18.9301 26.3355 19.9412 26.1926 20.7166 25.8869C21.4815 25.5854 22.0775 25.0978 22.0775 24.3791V21.5487L22.0889 21.4981H22.0775V18.6464H22.0745ZM15.2905 20.1009C16.0548 20.3854 17.0302 20.5181 17.9638 20.5181C18.8974 20.5181 19.8728 20.3845 20.637 20.0994V21.4981H20.3955L20.365 21.5126C19.8966 21.7347 19.0109 21.9293 17.9637 21.9293C16.932 21.9293 16.0512 21.7356 15.5763 21.5124L15.5459 21.4981H15.2905V20.1009ZM15.2905 22.954V24.31L15.3213 24.3363C15.4354 24.4342 15.7195 24.5773 16.175 24.6953C16.6246 24.8118 17.2268 24.9002 17.9638 24.9002C18.695 24.9002 19.2954 24.8112 19.7455 24.6939C20.2012 24.5752 20.4884 24.4311 20.606 24.3314L20.637 24.3051V22.9542C20.6113 22.9638 20.5855 22.9732 20.5595 22.9824C19.808 23.2481 18.8668 23.3728 17.9637 23.3728C17.061 23.3728 16.12 23.2481 15.3685 22.9824C15.3424 22.9731 15.3164 22.9637 15.2905 22.954ZM15.3667 18.5624L15.521 18.6408C15.93 18.8477 16.793 19.0805 17.9638 19.0805C19.1345 19.0805 19.9968 18.8478 20.4066 18.6408L20.5611 18.5624L20.4064 18.484C20.0163 18.2836 19.2085 18.0607 18.1138 18.0418V18.0435H17.9638C16.7929 18.0435 15.93 18.2764 15.5212 18.4839L15.3667 18.5624Z" fill="#0F1A38"/>
<path fill-rule="evenodd" clip-rule="evenodd" d="M12.25 5.75C12.25 4.7835 13.0335 4 14 4H22C22.9665 4 23.75 4.7835 23.75 5.75C23.75 6.46495 23.3213 7.07977 22.7069 7.35137C22.76 7.4735 22.7895 7.60831 22.7895 7.75V7.94908C22.7895 8.83565 23.5082 9.55435 24.3947 9.55435C26.3859 9.55435 28 11.1685 28 13.1596V27.75C28 30.5114 25.7614 32.75 23 32.75H13C10.2386 32.75 8 30.5114 8 27.75V13.1596C8 11.1685 9.61413 9.55435 11.6053 9.55435C12.4918 9.55435 13.2105 8.83565 13.2105 7.94908V7.75C13.2105 7.60831 13.24 7.4735 13.2931 7.35137C12.6787 7.07977 12.25 6.46495 12.25 5.75ZM15.179 7.5H20.821C20.8004 7.57991 20.7895 7.66368 20.7895 7.75V7.94908C20.7895 9.94022 22.4036 11.5543 24.3947 11.5543C25.2813 11.5543 26 12.273 26 13.1596V27.75C26 29.4069 24.6569 30.75 23 30.75H13C11.3431 30.75 10 29.4069 10 27.75V13.1596C10 12.273 10.7187 11.5543 11.6053 11.5543C13.5964 11.5543 15.2105 9.94022 15.2105 7.94908V7.75C15.2105 7.66368 15.1996 7.57991 15.179 7.5ZM14 5.5C13.8619 5.5 13.75 5.61193 13.75 5.75C13.75 5.88807 13.8619 6 14 6H22C22.1381 6 22.25 5.88807 22.25 5.75C22.25 5.61193 22.1381 5.5 22 5.5H14Z" fill="#0F1A38"/>
</svg>
