<svg width="36" height="36" viewBox="0 0 36 36" fill="none" xmlns="http://www.w3.org/2000/svg">
<path fill-rule="evenodd" clip-rule="evenodd" d="M16.6667 10C15.5621 10 14.6667 10.8954 14.6667 12V14.6667H12C10.8954 14.6667 10 15.5621 10 16.6667V19.3333C10 20.4379 10.8954 21.3333 12 21.3333H14.6667V24C14.6667 25.1046 15.5621 26 16.6667 26H19.3333C20.4379 26 21.3333 25.1046 21.3333 24V21.3333H24C25.1046 21.3333 26 20.4379 26 19.3333V16.6667C26 15.5621 25.1046 14.6667 24 14.6667L21.3333 14.6667V12C21.3333 10.8954 20.4379 10 19.3333 10H16.6667ZM16.6667 14.6667V12L19.3333 12L19.3333 14.6667C19.3333 15.7712 20.2288 16.6667 21.3333 16.6667H24V19.3333H21.3333C20.2288 19.3333 19.3333 20.2288 19.3333 21.3333V24H16.6667V21.3333C16.6667 20.2288 15.7712 19.3333 14.6667 19.3333H12V16.6667H14.6667C15.7712 16.6667 16.6667 15.7712 16.6667 14.6667Z" fill="#0F1A38"/>
<path fill-rule="evenodd" clip-rule="evenodd" d="M18 4C10.268 4 4 10.268 4 18C4 25.732 10.268 32 18 32C25.732 32 32 25.732 32 18C32 10.268 25.732 4 18 4ZM6 18C6 11.3726 11.3726 6 18 6C24.6274 6 30 11.3726 30 18C30 24.6274 24.6274 30 18 30C11.3726 30 6 24.6274 6 18Z" fill="#0F1A38"/>
</svg>
