<svg width="36" height="36" viewBox="0 0 36 36" fill="none" xmlns="http://www.w3.org/2000/svg">
<path fill-rule="evenodd" clip-rule="evenodd" d="M20 19C22.7614 19 25 16.7614 25 14C25 11.2386 22.7614 9 20 9C17.2386 9 15 11.2386 15 14C15 16.7614 17.2386 19 20 19ZM20 17C21.6569 17 23 15.6569 23 14C23 12.3431 21.6569 11 20 11C18.3431 11 17 12.3431 17 14C17 15.6569 18.3431 17 20 17Z" fill="#0F1A38"/>
<path fill-rule="evenodd" clip-rule="evenodd" d="M20 22C16.6863 22 14 24.6863 14 28H12C12 23.5817 15.5817 20 20 20C24.4183 20 28 23.5817 28 28H26C26 24.6863 23.3137 22 20 22Z" fill="#0F1A38"/>
<path fill-rule="evenodd" clip-rule="evenodd" d="M6 8C6 5.79086 7.79086 4 10 4H30C32.2091 4 34 5.79086 34 8V29C34 31.2091 32.2091 33 30 33H10C7.79086 33 6 31.2091 6 29V26H2V24H6V14L2 14V12L6 12V8ZM10 6H30C31.1046 6 32 6.89543 32 8V29C32 30.1046 31.1046 31 30 31H10C8.89543 31 8 30.1046 8 29V8C8 6.89543 8.89543 6 10 6Z" fill="#0F1A38"/>
</svg>
