<svg width="36" height="36" viewBox="0 0 36 36" fill="none" xmlns="http://www.w3.org/2000/svg">
<path fill-rule="evenodd" clip-rule="evenodd" d="M27.9126 31H27.7134C8.19282 29.9 5.40417 13.3 5.00579 8.2C4.9062 6.6 6.10133 5.1 7.79444 5C7.79444 5 7.89404 5 7.99363 5H13.2721C14.0689 5 14.8657 5.5 15.1644 6.3L16.5588 10C16.8576 10.7 16.6584 11.6 16.1604 12.2L14.0689 14.3C14.7661 18.2 17.7539 21.2 21.6381 21.9L23.8292 19.8C24.4268 19.2 25.2235 19.1 26.0203 19.4L29.8049 20.9C30.502 21.2 31 21.9 31 22.8V28C30.9004 29.7 29.6057 31 27.9126 31ZM7.99363 7C7.39606 7 6.99769 7.4 6.99769 8V8.1C7.49566 14 10.3839 28 27.813 29C28.4105 29 28.8089 28.6 28.9085 28.1C28.9085 28.1 28.9085 28.1 28.9085 28V22.7L25.1239 21.2L22.2357 24.1L21.8373 24C13.1726 22.9 11.9774 14.2 11.9774 14.1L11.8778 13.6L14.6665 10.7L13.2721 7H7.99363Z" fill="#0F1A38"/>
</svg>
