<svg width="48" height="48" viewBox="0 0 48 48" fill="none" xmlns="http://www.w3.org/2000/svg">
<path fill-rule="evenodd" clip-rule="evenodd" d="M5.53845 24C5.53845 13.8185 13.8185 5.53845 24 5.53845C34.1815 5.53845 42.4615 13.8185 42.4615 24C42.4615 34.1815 34.1815 42.4615 24 42.4615C13.8185 42.4615 5.53845 34.1815 5.53845 24ZM9.23076 24C9.23076 32.1415 15.8585 38.7692 24 38.7692C32.1415 38.7692 38.7692 32.1415 38.7692 24C38.7692 15.8585 32.1415 9.23076 24 9.23076C15.8585 9.23076 9.23076 15.8585 9.23076 24ZM18.7784 30.8552C20.1632 29.4703 22.0416 28.6923 24.0001 28.6923C25.9586 28.6923 27.8369 29.4703 29.2218 30.8552C29.8469 31.4803 30.3484 32.206 30.7105 32.9941H34.6394C34.1239 31.2153 33.1657 29.5774 31.8326 28.2443C29.7553 26.167 26.9379 25 24.0001 25C21.0623 25 18.2448 26.167 16.1675 28.2443C14.8344 29.5774 13.8762 31.2153 13.3608 32.9941H17.2897C17.6518 32.206 18.1532 31.4803 18.7784 30.8552ZM20.3077 16.6154H16.6154V24H20.3077V16.6154ZM27.6923 16.6154H31.3846V24H27.6923V16.6154Z" fill="#0F1A38"/>
</svg>
