<svg width="48" height="48" viewBox="0 0 48 48" fill="none" xmlns="http://www.w3.org/2000/svg">
<path fill-rule="evenodd" clip-rule="evenodd" d="M10.1539 5.53857V12.9232C10.1546 14.0687 10.5099 15.1859 11.171 16.1213C11.8321 17.0568 12.7666 17.7647 13.8462 18.1478V21.9693C11.7628 21.5405 9.89085 20.4068 8.54575 18.759C7.20065 17.1113 6.46458 15.0502 6.46155 12.9232V5.53857H10.1539ZM20.2136 16.1213C20.8747 15.1859 21.23 14.0687 21.2308 12.9232V5.53857H24.9231V12.9232C24.92 15.0502 24.184 17.1113 22.8389 18.759C21.4938 20.4067 19.6219 21.5405 17.5385 21.9693V42.4615H13.8462V21.9692C15.0646 22.2154 16.32 22.2154 17.5385 21.9692V18.1478C16.3433 18.5664 15.0413 18.5664 13.8462 18.1478V5.53857H17.5385V18.1478C18.618 17.7647 19.5525 17.0568 20.2136 16.1213ZM32.3077 42.4614V31.3847H37.8461C38.8254 31.3847 39.7645 30.9957 40.457 30.3033C41.1494 29.6108 41.5384 28.6717 41.5384 27.6924V16.6155C41.536 13.6785 40.3682 10.8624 38.2914 8.78563C36.2146 6.70883 33.3985 5.54102 30.4615 5.53857C29.9726 5.541 29.5045 5.73628 29.1588 6.08198C28.8131 6.42768 28.6178 6.89585 28.6154 7.38473V27.6924H32.3077V31.3845H28.6154V42.4614H32.3077ZM32.3077 27.6924H37.8461V16.6155C37.8454 14.9781 37.3011 13.3873 36.2988 12.0926C35.2964 10.7979 33.8926 9.87253 32.3077 9.46165V27.6924Z" fill="#0F1A38"/>
</svg>
