<svg width="48" height="48" viewBox="0 0 48 48" fill="none" xmlns="http://www.w3.org/2000/svg">
<path fill-rule="evenodd" clip-rule="evenodd" d="M41.1787 17.2365C40.8457 16.3905 40.4486 15.5656 39.9883 14.7692C39.4821 13.8924 38.9143 13.0727 38.2936 12.3126L35.6658 14.9405C35.9338 15.2861 36.1885 15.6463 36.4286 16.0207L36.4247 16.0246C36.9669 16.8645 37.4192 17.7534 37.7772 18.6767C38.8328 21.4094 39.0555 24.4131 38.3874 27.3009L38.3967 27.3034C38.1165 28.5241 37.6846 29.6876 37.1219 30.773L37.1194 30.7723C37.0291 30.9483 36.9354 31.1222 36.8384 31.2939C34.9016 34.6885 31.6575 37.2457 27.7974 38.2741C23.9868 39.2862 19.955 38.7082 16.6114 36.7837C13.292 34.8572 10.787 31.6752 9.75189 27.8932C8.7036 24.0516 9.27663 19.9771 11.2206 16.604C13.1549 13.2757 16.3518 10.7672 20.1499 9.74006C24.0536 8.68757 28.1941 9.3068 31.5921 11.3354C32.0958 11.6382 32.5825 11.9718 33.0493 12.3352L23.9991 21.3854L17.2 14.5863L14.5891 17.1971L21.3882 23.9962L14.589 30.7954L17.1998 33.4063L24.0022 26.6039L21.3947 23.9963L24.0023 21.3887L26.6099 23.9964L23.9991 26.6071L30.8015 33.4095L33.4124 30.7986L26.6099 23.9964L35.6608 14.9454L33.0493 12.3352L35.6819 9.70265C34.6673 8.87538 33.5741 8.16498 32.4242 7.57731C29.8404 6.24737 26.9554 5.53711 24.0001 5.53845C22.3207 5.53845 20.693 5.76374 19.1457 6.18567C17.647 6.59391 16.1765 7.19947 14.7694 8.01184C11.8649 9.68874 9.58833 12.0405 8.02308 14.7558C6.44357 17.4757 5.53857 20.6339 5.53857 24C5.53857 25.7242 5.77603 27.3939 6.21998 28.9781C6.62755 30.434 7.22198 31.8624 8.01201 33.2308C9.69061 36.1382 12.0455 38.4164 14.7642 39.9818C17.4822 41.5584 20.6375 42.4615 24.0001 42.4615C25.6249 42.4615 27.2012 42.2507 28.7032 41.8549C30.2542 41.4466 31.7765 40.8279 33.2309 39.9882C35.8437 38.4863 38.0338 36.3686 39.6196 33.8342C41.4193 30.9854 42.4617 27.6124 42.4617 24C42.4661 21.6713 42.0259 19.3773 41.1787 17.2365Z" fill="#0F1A38"/>
</svg>
