<svg width="48" height="48" viewBox="0 0 48 48" fill="none" xmlns="http://www.w3.org/2000/svg">
<path fill-rule="evenodd" clip-rule="evenodd" d="M11.5385 34.1538H36.4615C38.0528 34.1538 39.5789 33.5217 40.7042 32.3965C41.8294 31.2713 42.4615 29.7451 42.4615 28.1538C42.4615 26.5625 41.8294 25.0364 40.7042 23.9112C39.5789 22.786 38.0528 22.1538 36.4615 22.1538H11.5385C10.9264 22.1538 10.3394 21.9107 9.90667 21.4779C9.47389 21.0452 9.23076 20.4582 9.23076 19.8461C9.23076 19.2341 9.47389 18.6471 9.90667 18.2144C10.3394 17.7816 10.9264 17.5385 11.5385 17.5385H36.4615C38.0528 17.5385 39.5789 16.9063 40.7042 15.7811C41.8294 14.6559 42.4615 13.1297 42.4615 11.5385C42.4615 9.94715 41.8294 8.42103 40.7042 7.29581C39.5789 6.17059 38.0528 5.53845 36.4615 5.53845H12V9.23076H36.4615C37.0736 9.23076 37.6605 9.47389 38.0933 9.90667C38.5261 10.3394 38.7692 10.9264 38.7692 11.5385C38.7692 12.1505 38.5261 12.7375 38.0933 13.1702C37.6605 13.603 37.0736 13.8461 36.4615 13.8461H11.5385C9.94715 13.8461 8.42103 14.4783 7.29581 15.6035C6.17059 16.7287 5.53845 18.2548 5.53845 19.8461C5.53845 21.4374 6.17059 22.9636 7.29581 24.0888C8.42103 25.214 9.94715 25.8461 11.5385 25.8461H36.4615C37.0736 25.8461 37.6605 26.0893 38.0933 26.522C38.5261 26.9548 38.7692 27.5418 38.7692 28.1538C38.7692 28.7659 38.5261 29.3528 38.0933 29.7856C37.6605 30.2184 37.0736 30.4615 36.4615 30.4615H11.5385C9.94715 30.4615 8.42103 31.0937 7.29581 32.2189C6.17059 33.3441 5.53845 34.8702 5.53845 36.4615C5.53845 38.0528 6.17059 39.5789 7.29581 40.7042C8.42103 41.8294 9.94715 42.4615 11.5385 42.4615H36V38.7692H11.5385C10.9264 38.7692 10.3394 38.5261 9.90667 38.0933C9.47389 37.6605 9.23076 37.0736 9.23076 36.4615C9.23076 35.8495 9.47389 35.2625 9.90667 34.8297C10.3394 34.397 10.9264 34.1538 11.5385 34.1538ZM7.38461 9.23076C7.74974 9.23076 8.10668 9.12249 8.41028 8.91963C8.71388 8.71677 8.9505 8.42844 9.09023 8.0911C9.22996 7.75376 9.26652 7.38256 9.19529 7.02444C9.12406 6.66632 8.94823 6.33737 8.69004 6.07918C8.43185 5.82099 8.10289 5.64516 7.74478 5.57393C7.38666 5.50269 7.01546 5.53925 6.67811 5.67898C6.34077 5.81871 6.05244 6.05534 5.84959 6.35894C5.64673 6.66254 5.53845 7.01947 5.53845 7.38461C5.54088 7.87349 5.73616 8.34166 6.08186 8.68736C6.42756 9.03305 6.89572 9.22834 7.38461 9.23076ZM39.5898 39.0803C39.8934 38.8774 40.2503 38.7692 40.6154 38.7692C41.1043 38.7716 41.5725 38.9669 41.9182 39.3126C42.2639 39.6583 42.4592 40.1264 42.4616 40.6153C42.4616 40.9805 42.3533 41.3374 42.1505 41.641C41.9476 41.9446 41.6593 42.1812 41.3219 42.3209C40.9846 42.4607 40.6134 42.4972 40.2553 42.426C39.8972 42.3548 39.5682 42.1789 39.31 41.9207C39.0518 41.6626 38.876 41.3336 38.8048 40.9755C38.7335 40.6174 38.7701 40.2462 38.9098 39.9088C39.0495 39.5715 39.2862 39.2832 39.5898 39.0803Z" fill="#0F1A38"/>
</svg>
