<svg width="48" height="48" viewBox="0 0 48 48" fill="none" xmlns="http://www.w3.org/2000/svg">
<path d="M38.7692 9.23076V5.53845H31.3846C28.7174 5.53724 26.0761 6.06169 23.6118 7.08181C21.1474 8.10194 18.9082 9.59775 17.0222 11.4837C15.1362 13.3697 13.6404 15.6089 12.6203 18.0733C11.6001 20.5377 11.0757 23.179 11.0769 25.8461V34.3108L5.53845 39.8492L8.15076 42.4615L13.6892 36.9231H22.1538C24.821 36.9243 27.4623 36.3998 29.9267 35.3797C32.3911 34.3596 34.6303 32.8638 36.5163 30.9778C38.4022 29.0918 39.898 26.8526 40.9182 24.3882C41.9383 21.9238 42.4627 19.2826 42.4615 16.6154V9.23076H38.7692ZM14.7692 25.8461C14.7692 16.68 22.2185 9.23076 31.3846 9.23076H36.1569L25.8461 19.5415V14.7692H22.1538V23.2338L14.7692 30.6185V25.8461ZM22.1538 33.2308H17.3815L24.7661 25.8461H33.2308V22.1538H28.4585L38.7692 11.8431V16.6154C38.7692 25.7815 31.32 33.2308 22.1538 33.2308Z" fill="#0F1A38"/>
</svg>
