<svg width="48" height="48" viewBox="0 0 48 48" fill="none" xmlns="http://www.w3.org/2000/svg">
<path fill-rule="evenodd" clip-rule="evenodd" d="M31.786 5.54323C32.0086 5.77768 36 9.98031 36 17.4924C36 23.4832 31.5877 28.4586 25.8462 29.354V38.7693H22.1539V42.4616H14.7693V38.7693H22.1538V29.354C16.4123 28.4586 12 23.4832 12 17.4924C12 9.98029 15.9914 5.77766 16.214 5.54323C16.2157 5.54145 16.2172 5.5399 16.2185 5.53857L18.8585 8.11396H18.8677C18.8585 8.12319 18.0554 8.97242 17.2708 10.5509C17.2077 10.67 17.1499 10.7945 17.0934 10.9162C17.0755 10.9548 17.0578 10.9931 17.04 11.0309H30.96L30.6646 10.4124C29.9077 8.9355 29.1508 8.13242 29.1415 8.12319L31.7815 5.53857L31.786 5.54323ZM15.9231 14.7232C15.7665 15.6379 15.6893 16.5644 15.6923 17.4924C15.6948 19.695 16.5708 21.8067 18.1283 23.3641C19.6857 24.9216 21.7974 25.7977 24 25.8001C26.2026 25.7977 28.3143 24.9216 29.8717 23.3641C31.4292 21.8067 32.3053 19.695 32.3077 17.4924C32.3059 16.5646 32.2287 15.6385 32.0769 14.7232H15.9231ZM33.2308 38.7693H25.8462V42.4616H33.2308V38.7693Z" fill="#0F1A38"/>
</svg>
