<svg width="48" height="48" viewBox="0 0 48 48" fill="none" xmlns="http://www.w3.org/2000/svg">
<path fill-rule="evenodd" clip-rule="evenodd" d="M37.8278 10.2647L37.837 13.8463L41.5293 12.9232L41.5201 5.53857L15.674 12.0001V19.3847L19.3662 18.4617L19.3754 22.2644L15.6831 23.1875V30.1659C14.8163 29.7493 13.8664 29.5347 12.9047 29.5382C11.6267 29.5382 10.3774 29.9172 9.31482 30.6272C8.25222 31.3372 7.42403 32.3464 6.93497 33.5271C6.44592 34.7077 6.31795 36.0069 6.56727 37.2604C6.81659 38.5138 7.432 39.6651 8.33566 40.5688C9.23932 41.4724 10.3907 42.0878 11.6441 42.3372C12.8975 42.5865 14.1967 42.4585 15.3774 41.9695C16.5581 41.4804 17.5672 40.6522 18.2772 39.5896C18.9872 38.527 19.3662 37.2777 19.3662 35.9998C19.368 35.6909 19.3464 35.3823 19.3016 35.0767H19.3754V22.2644L19.3754 22.2647L37.8462 17.6493L37.837 13.8462L19.3663 18.4616V14.8801L37.8278 10.2647ZM11.3662 38.3023C11.8216 38.6066 12.357 38.769 12.9047 38.769C13.6384 38.7666 14.3413 38.474 14.8601 37.9552C15.3789 37.4364 15.6715 36.7335 15.6739 35.9998C15.6739 35.4521 15.5115 34.9167 15.2072 34.4613C14.9029 34.0059 14.4704 33.6509 13.9644 33.4413C13.4584 33.2317 12.9016 33.1769 12.3644 33.2838C11.8272 33.3906 11.3338 33.6544 10.9465 34.0416C10.5592 34.4289 10.2955 34.9223 10.1886 35.4595C10.0818 35.9967 10.1366 36.5535 10.3462 37.0595C10.5558 37.5655 10.9108 37.998 11.3662 38.3023ZM41.5386 16.7261L41.557 29.5384H41.474C41.5188 29.844 41.5404 30.1526 41.5386 30.4615C41.5395 31.8617 41.0855 33.2244 40.2449 34.3444C39.4044 35.4643 38.2228 36.2809 36.878 36.6712C35.5332 37.0614 34.098 37.0043 32.7885 36.5084C31.479 36.0124 30.366 35.1045 29.6172 33.9213C28.8683 32.7381 28.524 31.3436 28.6363 29.9478C28.7485 28.5521 29.3111 27.2305 30.2394 26.1822C31.1676 25.1338 32.4114 24.4153 33.7833 24.135C35.1552 23.8546 36.5811 24.0275 37.8463 24.6276V17.6492L41.5386 16.7261ZM33.5478 32.764C34.0032 33.0683 34.5386 33.2307 35.0863 33.2307C35.8207 33.2307 36.5251 32.9389 37.0444 32.4196C37.5637 31.9003 37.8555 31.1959 37.8555 30.4615C37.8555 29.9138 37.6931 29.3784 37.3888 28.923C37.0845 28.4676 36.652 28.1126 36.146 27.903C35.64 27.6934 35.0832 27.6386 34.546 27.7454C34.0088 27.8523 33.5154 28.116 33.1281 28.5033C32.7408 28.8906 32.4771 29.384 32.3702 29.9212C32.2634 30.4584 32.3182 31.0152 32.5278 31.5212C32.7374 32.0272 33.0924 32.4597 33.5478 32.764Z" fill="#0F1A38"/>
</svg>
