<svg width="48" height="48" viewBox="0 0 48 48" fill="none" xmlns="http://www.w3.org/2000/svg">
<path d="M41.4369 22.3481L8.20614 5.73268C7.9259 5.59065 7.61365 5.52365 7.29981 5.53821C6.98597 5.55277 6.68126 5.64839 6.41538 5.81575C6.14761 5.98092 5.92649 6.21179 5.77302 6.48643C5.61954 6.76107 5.5388 7.07037 5.53845 7.38498V22.1542H9.23076V10.3758L32.7969 22.1542H9.23076V25.8465H32.7969L9.23076 37.625V25.8465H5.53845V40.6157C5.5388 40.9304 5.61954 41.2397 5.77302 41.5143C5.92649 41.7889 6.14761 42.0198 6.41538 42.185C6.68191 42.3506 6.98645 42.4453 7.29994 42.4598C7.61343 42.4743 7.92541 42.4083 8.20614 42.2681L41.4369 25.6527C41.7441 25.4996 42.0026 25.2638 42.1832 24.972C42.3639 24.6801 42.4596 24.3436 42.4596 24.0004C42.4596 23.6571 42.3639 23.3207 42.1832 23.0288C42.0026 22.7369 41.7441 22.5012 41.4369 22.3481Z" fill="#0F1A38"/>
</svg>
