<svg width="48" height="48" viewBox="0 0 48 48" fill="none" xmlns="http://www.w3.org/2000/svg">
<path fill-rule="evenodd" clip-rule="evenodd" d="M29.219 25.5267C27.8347 26.911 25.9578 27.6899 24 27.6923C22.0423 27.6899 20.1654 26.911 18.781 25.5267C17.3967 24.1423 16.6179 22.2655 16.6154 20.3077V12.9231C16.6154 10.9645 17.3934 9.08624 18.7783 7.70136C20.1632 6.31647 22.0415 5.53845 24 5.53845C25.9586 5.53845 27.8369 6.31647 29.2217 7.70136C30.6066 9.08624 31.3846 10.9645 31.3846 12.9231V20.3077C31.3822 22.2655 30.6034 24.1423 29.219 25.5267ZM21.3892 10.3122C20.6967 11.0047 20.3077 11.9438 20.3077 12.9231V20.3077C20.3077 21.2869 20.6967 22.2261 21.3892 22.9185C22.0816 23.611 23.0208 24 24 24C24.9793 24 25.9184 23.611 26.6109 22.9185C27.3033 22.2261 27.6923 21.2869 27.6923 20.3077V12.9231C27.6923 11.9438 27.3033 11.0047 26.6109 10.3122C25.9184 9.61977 24.9793 9.23076 24 9.23076C23.0208 9.23076 22.0816 9.61977 21.3892 10.3122ZM12.9231 16.6154V20.3077C12.9254 22.9245 13.8533 25.4562 15.5427 27.4547C17.232 29.4532 19.5739 30.7897 22.1539 31.2277V34.9569C14.88 34.0523 9.23077 27.8307 9.23077 20.3077V16.6154H12.9231ZM35.077 16.6154V20.3077C35.0746 22.9245 34.1467 25.4562 32.4574 27.4547C30.768 29.4532 28.4261 30.7897 25.8462 31.2277V34.9569C33.12 34.0523 38.7693 27.8307 38.7693 20.3077V16.6154H35.077ZM22.1539 38.7699V34.9576C23.3794 35.1176 24.6206 35.1176 25.8462 34.9576V38.7699H29.5385V42.4623H18.4615V38.7699H22.1539Z" fill="#0F1A38"/>
</svg>
