<svg width="48" height="48" viewBox="0 0 48 48" fill="none" xmlns="http://www.w3.org/2000/svg">
<path fill-rule="evenodd" clip-rule="evenodd" d="M23.5939 5.53845L25.2369 12.1108C25.5091 13.1904 26.0973 14.1643 26.9262 14.9077L35.0769 22.1631V38.7692H31.3846V23.8246L24.4708 17.6585C23.0829 16.4285 22.1011 14.8062 21.6554 13.0061L20.7785 9.49845C20.0947 9.77293 19.5086 10.2457 19.0957 10.856C18.6828 11.4663 18.4619 12.1862 18.4615 12.9231C18.4603 15.1694 18.8219 17.4012 19.5323 19.5323L21.0185 24H9.23078V31.6985C9.23008 31.9421 9.27787 32.1835 9.37137 32.4086C9.46487 32.6336 9.60221 32.8378 9.7754 33.0092L14.9908 38.2246C15.1622 38.3978 15.3664 38.5351 15.5914 38.6286C15.8165 38.7221 16.0579 38.7699 16.3015 38.7692H31.3846V42.4615H16.3015C15.5725 42.4646 14.8502 42.3226 14.1767 42.0437C13.5031 41.7647 12.8918 41.3545 12.3785 40.8369L7.16309 35.6215C6.64548 35.1082 6.23525 34.4969 5.95633 33.8233C5.6774 33.1498 5.53535 32.4275 5.53847 31.6985V24C5.53847 23.0207 5.92748 22.0816 6.61992 21.3891C7.31237 20.6967 8.25152 20.3077 9.23078 20.3077H15.9046C15.1497 17.9189 14.7667 15.4283 14.7692 12.9231C14.7717 10.9653 15.5505 9.08841 16.9348 7.70405C18.3192 6.3197 20.1961 5.54089 22.1539 5.53845H23.5939ZM38.7693 22.1538H42.4616V38.7692H38.7693V22.1538Z" fill="#0F1A38"/>
</svg>
