<svg width="48" height="48" viewBox="0 0 48 48" fill="none" xmlns="http://www.w3.org/2000/svg">
<path d="M36.9231 9.23076V5.53845C32.3631 5.53845 27.8677 6.77538 23.5108 7.97537C19.1538 9.17537 15.1385 10.2831 11.0769 10.2831V13.9754C15.1385 13.9754 19.2 15.1015 23.5108 16.2831L25.6892 16.8831L23.5108 17.4738C19.2 18.6554 15.1385 19.7815 11.0769 19.7815V23.4738C15.1385 23.4738 19.2 24.5908 23.5108 25.7815L25.6892 26.3723L23.5108 26.9631C19.2 28.1538 15.1385 29.2708 11.0769 29.2708V32.9631C15.1385 32.9631 19.2 34.0892 23.5108 35.2708L25.6892 35.8708L23.5108 36.4615C19.2 37.6523 15.1385 38.7692 11.0769 38.7692V42.4615C15.6369 42.4615 20.1323 41.2246 24.4892 40.0246C28.8461 38.8246 32.8615 37.7169 36.9231 37.7169V34.0246C32.8615 34.0246 28.8 32.8984 24.4892 31.7169L22.3108 31.1169L24.4892 30.5261C28.8 29.3446 32.8615 28.2185 36.9231 28.2185V24.5261C32.8615 24.5261 28.8 23.4092 24.4892 22.2184L22.3108 21.6277L24.4892 21.0369C28.8 19.8461 32.8615 18.7292 36.9231 18.7292V15.0369C32.8615 15.0369 28.8 13.9108 24.4892 12.7292L22.3108 12.1292L24.4892 11.5385C28.8 10.3477 32.8615 9.23076 36.9231 9.23076Z" fill="#0F1A38"/>
</svg>
