<svg width="48" height="48" viewBox="0 0 48 48" fill="none" xmlns="http://www.w3.org/2000/svg">
<path fill-rule="evenodd" clip-rule="evenodd" d="M28.777 13.8823C28.116 15.0092 27.0778 15.8662 25.846 16.3017V22.154H22.1538V25.8461H16.6154V22.1538H22.1537V16.3017C20.922 15.8662 19.8838 15.0092 19.2227 13.8823C18.5617 12.7554 18.3203 11.4311 18.5412 10.1434C18.7621 8.85572 19.4312 7.68759 20.4301 6.84548C21.429 6.00337 22.6934 5.5415 23.9999 5.5415C25.3064 5.5415 26.5708 6.00337 27.5697 6.84548C28.5686 7.68759 29.2376 8.85572 29.4586 10.1434C29.6795 11.4311 29.4381 12.7554 28.777 13.8823ZM25.0256 9.54204C24.722 9.33918 24.365 9.23091 23.9999 9.23091C23.511 9.23333 23.0428 9.42862 22.6971 9.77431C22.3514 10.12 22.1562 10.5882 22.1537 11.0771C22.1537 11.4422 22.262 11.7991 22.4649 12.1027C22.6677 12.4063 22.9561 12.643 23.2934 12.7827C23.6307 12.9224 24.0019 12.959 24.3601 12.8877C24.7182 12.8165 25.0471 12.6407 25.3053 12.3825C25.5635 12.1243 25.7393 11.7953 25.8106 11.4372C25.8818 11.0791 25.8452 10.7079 25.7055 10.3706C25.5658 10.0332 25.3292 9.7449 25.0256 9.54204ZM34.7575 32.9114C36.1419 31.527 36.9207 29.6501 36.9231 27.6923H40.6154C40.613 30.6294 39.4452 33.4454 37.3684 35.5222C35.2916 37.599 32.4755 38.7668 29.5385 38.7693C28.5592 38.7693 27.6201 39.1583 26.9276 39.8507C26.2352 40.5432 25.8462 41.4823 25.8462 42.4616H22.1539C22.1539 41.4823 21.7649 40.5432 21.0724 39.8507C20.38 39.1583 19.4408 38.7693 18.4616 38.7693C15.5245 38.7668 12.7085 37.599 10.6317 35.5222C8.5549 33.4454 7.38709 30.6294 7.38464 27.6923H11.077C11.0794 29.6501 11.8582 31.527 13.2426 32.9114C14.6269 34.2957 16.5038 35.0745 18.4616 35.077C19.7592 35.074 21.0341 35.4182 22.1539 36.0739V25.8462H25.8462V36.0739C26.966 35.4182 28.2408 35.074 29.5385 35.077C31.4963 35.0745 33.3731 34.2957 34.7575 32.9114ZM25.8461 22.1538H31.3846V25.8461H25.8461V22.1538Z" fill="#0F1A38"/>
</svg>
