<svg width="48" height="48" viewBox="0 0 48 48" fill="none" xmlns="http://www.w3.org/2000/svg">
<path fill-rule="evenodd" clip-rule="evenodd" d="M30.1844 30.1785L30.1844 30.1788C30.1961 33.3557 28.9962 36.5363 26.5845 38.948C24.3988 41.0496 21.6006 42.2325 18.7477 42.427C18.6638 42.4328 18.5798 42.4377 18.4958 42.4417C18.2999 42.451 18.1037 42.4557 17.9076 42.4557C15.8617 42.4557 13.7767 41.9458 11.9081 40.926C10.9101 40.3814 9.97388 39.6913 9.13833 38.8557C4.33833 34.0557 4.33833 26.2095 9.13833 21.4095L9.18501 21.3631C10.7441 19.8185 12.5747 18.7272 14.6768 18.1788C15.7072 17.8978 16.7613 17.7594 17.8151 17.7515C17.8151 17.74 17.8151 17.7286 17.8151 17.7172C17.8151 14.3941 19.1074 11.348 21.4151 8.94798C23.7228 6.8249 26.8612 5.53259 30.092 5.53259C33.4151 5.53259 36.4612 6.8249 38.8612 9.13259C41.1689 11.4403 42.4612 14.5787 42.4612 17.9018C42.4612 21.2249 41.1689 24.2711 38.8612 26.6711C37.292 28.2403 35.4458 29.348 33.3228 29.9018C32.3356 30.0813 31.2612 30.1735 30.1844 30.1785ZM18.4179 21.5756C19.0116 23.4185 20.0306 25.102 21.4151 26.4864L23.9997 23.9018C22.4304 22.3326 21.5074 20.1172 21.5074 17.8095C21.5074 15.5018 22.3381 13.3787 23.9997 11.7172C25.5689 10.148 27.7843 9.2249 30.092 9.2249C32.3997 9.2249 34.6151 10.148 36.2766 11.7172C37.8458 13.2864 38.7689 15.5018 38.7689 17.8095C38.7689 20.1172 37.9381 22.2403 36.2766 23.9018C34.4909 25.6875 32.0455 26.5736 29.6171 26.4151C29.0426 24.581 28.0317 22.8568 26.5845 21.4096L23.9999 23.9942L24.0458 24.0405L23.9999 24.0865C25.6957 25.7823 26.5495 27.9788 26.5613 30.1788C26.5495 32.3788 25.6957 34.5753 23.9999 36.2711C20.5845 39.6865 15.1383 39.6865 11.7229 36.2711C10.0271 34.5753 9.1733 32.3788 9.16153 30.1788C9.1733 27.9788 10.0271 25.7823 11.7229 24.0865C13.5173 22.2921 15.9779 21.4061 18.4179 21.5756Z" fill="#0F1A38"/>
</svg>
