<svg width="48" height="48" viewBox="0 0 48 48" fill="none" xmlns="http://www.w3.org/2000/svg">
<path d="M27.7015 5.53845H20.3261C20.3261 13.6892 13.6892 20.3077 5.53845 20.3077V23.9908V27.6738C13.68 27.6738 20.2984 34.3015 20.2984 42.4523H27.6738C27.6738 34.3108 34.3108 27.6923 42.4615 27.6923V24.0092V20.3169C34.32 20.3169 27.7015 13.6892 27.7015 5.53845ZM23.9908 42.36C23.9261 32.2708 15.7569 24.0738 5.68614 23.9908C15.7754 23.9169 23.9631 15.72 24.0092 5.63999C24.0738 15.7292 32.2431 23.9261 42.3138 24.0092C32.2246 24.0831 24.0369 32.28 23.9908 42.36Z" fill="#0F1A38"/>
</svg>
