<svg width="48" height="48" viewBox="0 0 48 48" fill="none" xmlns="http://www.w3.org/2000/svg">
<path fill-rule="evenodd" clip-rule="evenodd" d="M11.077 31.3787H7.38464V22.1479C7.38464 17.5602 9.21234 13.2956 12.5354 10.1202C15.8493 6.95409 20.2062 5.32947 24.8031 5.55101C33.6646 5.9664 40.6154 13.4433 40.6154 22.5633V31.3787H36.9231V22.5633C36.9231 15.4187 31.5231 9.5664 24.6277 9.23409C21.0554 9.06793 17.6585 10.3325 15.0831 12.7879C12.4985 15.2618 11.077 18.5849 11.077 22.1479V31.3787ZM19.4031 42.4556C16.4124 38.8279 14.7693 34.2403 14.7693 29.5326V22.3972C14.7693 17.4033 18.5539 13.2495 23.3908 12.9356C25.9754 12.7695 28.4308 13.6464 30.3139 15.4095C32.1693 17.1541 33.2308 19.6095 33.2308 22.1479V29.5326C33.2308 30.5479 34.0616 31.3787 35.077 31.3787H36.9231V35.071H35.077C32.0216 35.071 29.5385 32.5879 29.5385 29.5326V22.1479C29.5385 20.5972 28.9201 19.1664 27.7847 18.1049C26.6585 17.0433 25.1816 16.5172 23.6216 16.6187C20.7231 16.8033 18.4524 19.3418 18.4524 22.3972V29.5326C18.4524 33.3818 19.8001 37.1387 22.2462 40.1018L19.4031 42.4556ZM35.077 42.4556H36.9232V38.7633H35.077C29.9816 38.7633 25.8462 34.6279 25.8462 29.5326V22.1479C25.8462 21.1326 25.0155 20.3018 24.0001 20.3018C22.9847 20.3018 22.1539 21.1326 22.1539 22.1479V29.5326C22.1539 36.6679 27.9416 42.4556 35.077 42.4556Z" fill="#0F1A38"/>
</svg>
