<svg width="48" height="48" viewBox="0 0 48 48" fill="none" xmlns="http://www.w3.org/2000/svg">
<path fill-rule="evenodd" clip-rule="evenodd" d="M20.7323 38.8153L38.7508 38.7137L38.7785 42.406L20.7508 42.5076H20.6861C17.6479 42.5051 14.7346 41.2977 12.5854 39.1502C10.4362 37.0027 9.22641 34.0904 9.22153 31.0522C9.22319 29.8191 9.42265 28.5944 9.8123 27.4245L16.2831 8.01219C16.5292 7.2771 17.0004 6.63812 17.63 6.18582C18.2596 5.73352 19.0156 5.49084 19.7908 5.49219H27.6831C28.1679 5.49219 28.6481 5.5877 29.0961 5.77325C29.544 5.95881 29.9511 6.23078 30.2939 6.57364C30.6368 6.91651 30.9088 7.32354 31.0943 7.77152C31.2799 8.21949 31.3754 8.69962 31.3754 9.1845V14.723H27.6831V9.1845H19.7908L13.32 28.5876C12.9256 29.7589 12.817 31.0076 13.0031 32.2295C13.1893 33.4514 13.6648 34.611 14.3901 35.6118C15.1154 36.6126 16.0694 37.4255 17.1727 37.9828C18.2759 38.54 19.4964 38.8254 20.7323 38.8153ZM20.2984 27.646V20.2614C20.3009 18.7933 20.8852 17.386 21.9233 16.3478C22.9614 15.3097 24.3688 14.7254 25.8369 14.723H27.683V18.4153H25.8369C25.3473 18.4153 24.8777 18.6098 24.5315 18.956C24.1852 19.3022 23.9907 19.7718 23.9907 20.2614V26.4183C26.2824 25.112 28.9401 24.5958 31.5541 24.9495C34.1682 25.3031 36.5932 26.5069 38.4554 28.3753L35.843 30.9783C34.31 29.44 32.2359 28.5623 30.0642 28.533C27.8926 28.5036 25.7956 29.325 24.2215 30.8214L23.6861 31.3383H20.2984V27.646Z" fill="#0F1A38"/>
</svg>
