<svg width="48" height="48" viewBox="0 0 48 48" fill="none" xmlns="http://www.w3.org/2000/svg">
<path fill-rule="evenodd" clip-rule="evenodd" d="M36.5385 13.0462V7.92315H40.2308V19.0001H28.7015V15.3078H33.5846L32.7538 14.477C31.5556 13.2746 30.1312 12.3211 28.5628 11.6716C26.9944 11.022 25.313 10.6892 23.6154 10.6924C16.4892 10.6924 10.6923 16.4893 10.6923 23.6155H7C7 14.4493 14.4492 7.00007 23.6154 7.00007C25.7984 6.9935 27.9611 7.42007 29.9781 8.2551C31.9952 9.09012 33.8265 10.317 35.3662 11.8647L36.5385 13.0462ZM18.668 35.5601C20.2364 36.2096 21.9178 36.5424 23.6154 36.5392C30.7415 36.5392 36.5385 30.7423 36.5385 23.6162H40.2308C40.2308 32.7823 32.7815 40.2316 23.6154 40.2316C21.4323 40.2381 19.2697 39.8116 17.2526 38.9765C15.2356 38.1415 13.4042 36.9146 11.8646 35.3669L10.6923 34.1854V39.3085H7V28.2316H18.5292V31.9239H13.6462L14.4769 32.7546C15.6752 33.9571 17.0996 34.9105 18.668 35.5601Z" fill="#0F1A38"/>
</svg>
