<svg width="48" height="48" viewBox="0 0 48 48" fill="none" xmlns="http://www.w3.org/2000/svg">
<path fill-rule="evenodd" clip-rule="evenodd" d="M5.53845 23.9941C5.53845 34.148 13.8461 42.4557 24 42.4557C34.1538 42.4557 42.4615 34.148 42.4615 23.9941C42.4615 13.8403 34.1538 5.53259 24 5.53259C13.8461 5.53259 5.53845 13.8403 5.53845 23.9941ZM9.3464 22.148C10.0104 16.8831 13.4743 12.4581 18.1875 10.4236C16.7257 13.5384 15.8815 17.7947 15.6923 22.148H19.3846C19.7538 13.748 22.523 9.2249 24 9.2249C25.4769 9.2249 28.2461 13.748 28.6153 22.148H32.3076C32.1188 17.8036 31.3018 13.5559 29.8568 10.4428C34.5474 12.4859 37.9916 16.8996 38.6536 22.148H32.3077V23.9942V25.8403H38.6536C37.9895 31.1053 34.5256 35.5302 29.8123 37.5647C31.2742 34.4499 32.1184 30.1936 32.3076 25.8403H28.6154V23.9942V22.148H19.3846V23.9942V25.8403H28.6153C28.2461 34.2403 25.4769 38.7633 24 38.7633C22.523 38.7633 19.7538 34.2403 19.3846 25.8403H15.6923V23.9942V22.148H9.3464ZM9.34641 25.8403H15.6923C15.8812 30.1846 16.6981 34.4323 18.1431 37.5454C13.4526 35.5023 10.0084 31.0887 9.34641 25.8403Z" fill="#0F1A38"/>
</svg>
