<svg width="48" height="48" viewBox="0 0 48 48" fill="none" xmlns="http://www.w3.org/2000/svg">
<path d="M38.7693 37.625L15.2031 25.8465H38.7693V22.1542H15.2031L38.7693 10.3758V22.1542H42.4616V7.38498C42.4613 7.07037 42.3805 6.76107 42.227 6.48643C42.0736 6.21179 41.8525 5.98092 41.5847 5.81575C41.3188 5.64839 41.0141 5.55277 40.7002 5.53821C40.3864 5.52365 40.0742 5.59065 39.7939 5.73268L6.56314 22.3481C6.25593 22.5012 5.99749 22.7369 5.81684 23.0288C5.63619 23.3207 5.5405 23.6571 5.5405 24.0004C5.5405 24.3436 5.63619 24.6801 5.81684 24.972C5.99749 25.2638 6.25593 25.4996 6.56314 25.6527L39.7939 42.2681C40.0746 42.4083 40.3866 42.4743 40.7001 42.4598C41.0136 42.4453 41.3181 42.3506 41.5847 42.185C41.8525 42.0198 42.0736 41.7889 42.227 41.5143C42.3805 41.2397 42.4613 40.9304 42.4616 40.6157V25.8465H38.7693V37.625Z" fill="#0F1A38"/>
</svg>
