<svg width="48" height="48" viewBox="0 0 48 48" fill="none" xmlns="http://www.w3.org/2000/svg">
<path fill-rule="evenodd" clip-rule="evenodd" d="M38.3077 12.2711L35.6308 14.948C37.5692 17.4403 38.7692 20.5787 38.7692 23.9941C38.7692 32.1172 32.1231 38.7634 24 38.7634C15.8769 38.7634 9.23076 32.1172 9.23076 23.9941C9.23076 15.8711 15.8769 9.2249 24 9.2249C27.4154 9.2249 30.5538 10.4249 33.0461 12.3634L35.723 9.68651C36.646 10.5172 37.4768 11.348 38.3075 12.271L40.9844 9.59412L38.3998 7.0095L35.723 9.68636C32.4922 7.10179 28.4307 5.53259 24 5.53259C19.5729 5.53259 15.4967 7.11189 12.307 9.73493L9.58021 7.00812L6.96938 9.61895L9.70061 12.3502C7.10163 15.5325 5.53845 19.5896 5.53845 23.9941C5.53845 28.4207 7.11735 32.4964 9.73979 35.6859L7.01433 38.4114L9.62516 41.0222L12.3548 38.2925C15.5374 40.8921 19.5949 42.4557 24 42.4557C28.4278 42.4557 32.5046 40.8759 35.6945 38.2521L38.3546 40.9122L40.9654 38.3014L38.3006 35.6366C40.8988 32.4544 42.4615 28.3979 42.4615 23.9941C42.4615 19.5634 40.8923 15.5018 38.3077 12.2711ZM15.5076 32.4864L19.7537 19.8402L32.3999 15.6864L28.1537 28.3326L15.5076 32.4864ZM22.7076 22.7018L21.4153 26.671L25.3845 25.3787L26.6768 21.5018L22.7076 22.7018Z" fill="#0F1A38"/>
</svg>
