<svg width="48" height="48" viewBox="0 0 48 48" fill="none" xmlns="http://www.w3.org/2000/svg">
<path d="M35.0769 9.23076H33.2308V5.53845H29.5385V9.23076H18.4615V5.53845H14.7692V9.23076H12.9231C11.4542 9.23076 10.0455 9.81427 9.00679 10.8529C7.96813 11.8916 7.38461 13.3003 7.38461 14.7692V36.9231C7.38461 38.392 7.96813 39.8007 9.00679 40.8393C10.0455 41.878 11.4542 42.4615 12.9231 42.4615H36.9231V38.7692H12.9231C12.4342 38.7668 11.966 38.5715 11.6203 38.2258C11.2746 37.8801 11.0793 37.4119 11.0769 36.9231V24H36.9231V38.7692H40.6154V14.7692C40.6154 13.3003 40.0319 11.8916 38.9932 10.8529C37.9545 9.81427 36.5458 9.23076 35.0769 9.23076ZM11.0769 20.3077V14.7692C11.0793 14.2803 11.2746 13.8122 11.6203 13.4665C11.966 13.1208 12.4342 12.9255 12.9231 12.9231H14.7692V16.6154H18.4615V12.9231H29.5385V16.6154H33.2308V12.9231H35.0769C35.5658 12.9255 36.034 13.1208 36.3797 13.4665C36.7254 13.8122 36.9206 14.2803 36.9231 14.7692V20.3077H11.0769Z" fill="#0F1A38"/>
</svg>
