<svg width="36" height="36" viewBox="0 0 36 36" fill="none" xmlns="http://www.w3.org/2000/svg">
<path fill-rule="evenodd" clip-rule="evenodd" d="M25 14C25 15.6569 23.6569 17 22 17C20.3431 17 19 15.6569 19 14C19 12.3431 20.3431 11 22 11C23.6569 11 25 12.3431 25 14ZM23 14C23 14.5523 22.5523 15 22 15C21.4477 15 21 14.5523 21 14C21 13.4477 21.4477 13 22 13C22.5523 13 23 13.4477 23 14Z" fill="#0F1A38"/>
<path fill-rule="evenodd" clip-rule="evenodd" d="M10 6C7.79086 6 6 7.79086 6 10V26C6 28.2091 7.79086 30 10 30H26C28.2091 30 30 28.2091 30 26V10C30 7.79086 28.2091 6 26 6H10ZM26 8H10C8.89543 8 8 8.89543 8 10V18.0858L9.3787 16.7071C10.5503 15.5355 12.4498 15.5355 13.6213 16.7071L18 21.0858L19.3787 19.7071C20.5503 18.5355 22.4498 18.5355 23.6213 19.7071L28 24.0858V10C28 8.89543 27.1046 8 26 8ZM8 26V20.9142L10.7929 18.1213C11.1834 17.7308 11.8166 17.7308 12.2071 18.1213L16.5858 22.5L11.0858 28H10C8.89543 28 8 27.1046 8 26ZM26 28H13.9142L20.7929 21.1213C21.1834 20.7308 21.8166 20.7308 22.2071 21.1213L27.8492 26.7634C27.5492 27.4892 26.8342 28 26 28Z" fill="#0F1A38"/>
</svg>
