<svg width="48" height="48" viewBox="0 0 48 48" fill="none" xmlns="http://www.w3.org/2000/svg">
<path fill-rule="evenodd" clip-rule="evenodd" d="M27.5447 9.22161C27.5465 8.49277 27.332 7.77978 26.9284 7.17289C26.5248 6.566 25.9503 6.09249 25.2774 5.81231C24.6046 5.53213 23.8638 5.45788 23.1487 5.59895C22.4337 5.74001 21.7765 6.09006 21.2605 6.60478C20.7445 7.1195 20.3928 7.77574 20.2499 8.49044C20.1071 9.20514 20.1795 9.94616 20.458 10.6197C20.7365 11.2932 21.2085 11.869 21.8144 12.2741C22.4203 12.6792 23.1327 12.8954 23.8616 12.8955C24.8368 12.8955 25.7722 12.5087 26.4626 11.82C27.1531 11.1313 27.5422 10.1968 27.5447 9.22161ZM23.8616 9.23084H23.8523C23.8523 9.22161 23.8523 9.21238 23.8616 9.21238C23.8665 9.21238 23.8712 9.21432 23.8746 9.21778C23.8781 9.22125 23.88 9.22594 23.88 9.23084H23.8616ZM11.8431 5.53845L9.23077 8.15076L17.9169 16.8369C18.0901 17.0083 18.2275 17.2125 18.321 17.4376C18.4145 17.6626 18.4622 17.904 18.4615 18.1477V42.4615H22.1539V18.1477C22.157 17.4187 22.0149 16.6963 21.736 16.0228C21.4571 15.3492 21.0468 14.738 20.5292 14.2246L11.8431 5.53845ZM27.4707 14.2246L36.1569 5.53845L38.7692 8.15076L30.083 16.8369C29.9098 17.0083 29.7725 17.2125 29.679 17.4376C29.5855 17.6626 29.5377 17.904 29.5384 18.1477V42.4615H25.8461V18.1477C25.843 17.4187 25.985 16.6963 26.264 16.0228C26.5429 15.3492 26.9531 14.738 27.4707 14.2246Z" fill="#0F1A38"/>
</svg>
