<svg width="48" height="48" viewBox="0 0 48 48" fill="none" xmlns="http://www.w3.org/2000/svg">
<path fill-rule="evenodd" clip-rule="evenodd" d="M36.9231 5.53845H18.4616C16.9927 5.53845 15.5839 6.12197 14.5453 7.16063C13.5066 8.19929 12.9231 9.60802 12.9231 11.0769V12.9231H16.6154V11.0769C16.6178 10.588 16.8131 10.1199 17.1588 9.77417C17.5045 9.42847 17.9727 9.23319 18.4616 9.23076H36.9231C37.412 9.23319 37.8802 9.42847 38.2258 9.77417C38.5715 10.1199 38.7668 10.588 38.7693 11.0769V29.5385C38.7668 30.0273 38.5715 30.4955 38.2258 30.8412C37.8802 31.1869 37.412 31.3822 36.9231 31.3846H35.0769V35.0769H36.9231C38.392 35.0769 39.8007 34.4934 40.8394 33.4547C41.8781 32.4161 42.4616 31.0073 42.4616 29.5385V11.0769C42.4616 9.60802 41.8781 8.19929 40.8394 7.16063C39.8007 6.12197 38.392 5.53845 36.9231 5.53845ZM31.3846 36.9231C31.3822 37.4119 31.1869 37.8801 30.8412 38.2258C30.4955 38.5715 30.0273 38.7668 29.5385 38.7692H11.0769C10.588 38.7668 10.1199 38.5715 9.77417 38.2258C9.42848 37.8801 9.23319 37.4119 9.23077 36.9231V18.4523C9.23076 17.9643 9.424 17.4961 9.76823 17.1501C10.1125 16.8042 10.5797 16.6086 11.0677 16.6061H12.9323L12.9138 12.9138H11.0585C9.59352 12.9211 8.19094 13.5076 7.15679 14.5452C6.12264 15.5828 5.54088 16.9873 5.53846 18.4523V36.9231C5.53846 38.392 6.12197 39.8007 7.16064 40.8393C8.1993 41.878 9.60803 42.4615 11.0769 42.4615H29.5385C31.0074 42.4615 32.4161 41.878 33.4547 40.8393C34.4934 39.8007 35.0769 38.392 35.0769 36.9231V35.0769L31.3846 35.0769V31.3846L18.4616 31.3661C17.9727 31.3637 17.5045 31.1684 17.1588 30.8227C16.8131 30.477 16.6178 30.0089 16.6154 29.52V16.6154H12.9231V29.52C12.9231 30.9873 13.5053 32.3946 14.542 33.433C15.5787 34.4714 16.985 35.056 18.4523 35.0585L31.3846 35.0769V36.9231Z" fill="#0F1A38"/>
</svg>
