<svg width="48" height="48" viewBox="0 0 48 48" fill="none" xmlns="http://www.w3.org/2000/svg">
<path fill-rule="evenodd" clip-rule="evenodd" d="M25.8461 5.53845H22.1538V19.5403L12.2558 9.64219L9.64492 12.2531L19.5479 22.156L22.1587 19.5452L22.1569 19.5434H25.8461V5.53845ZM9.64194 35.7437L19.5395 25.8461H5.53845V22.1538H19.5415V25.8441L19.5436 25.842L22.1545 28.4528L12.2528 38.3545L9.64194 35.7437ZM35.7463 9.64533L25.8446 19.547L28.4555 22.1579L28.4585 22.1549V25.8461H42.4615V22.1538H28.4595L38.3572 12.2562L35.7463 9.64533ZM25.8417 28.4558L28.4526 25.845L38.3556 35.7479L35.7447 38.3588L25.8461 28.4602V42.4635H22.1538V28.4586H25.8445L25.8417 28.4558Z" fill="#0F1A38"/>
</svg>
