<svg width="48" height="48" viewBox="0 0 48 48" fill="none" xmlns="http://www.w3.org/2000/svg">
<path fill-rule="evenodd" clip-rule="evenodd" d="M36.9231 5.53845V9.23076H27.6831C28.5107 10.3202 29.0818 11.5823 29.3538 12.9231H36.9231V16.6154H29.3538C28.925 18.6988 27.7912 20.5707 26.1435 21.9158C24.4957 23.2609 22.4347 23.997 20.3077 24H16.5508V20.3077H20.3077C21.4532 20.3069 22.5704 19.9516 23.5058 19.2905C24.4413 18.6294 25.1492 17.6949 25.5323 16.6154H11.0769V12.9231H25.5323C25.1492 11.8435 24.4413 10.9091 23.5058 10.2479C22.5704 9.58683 21.4532 9.23151 20.3077 9.23076H11.0769V5.53845H36.9231ZM29.9723 42.4615H25.4123L11.9816 24H16.5508L29.9723 42.4615Z" fill="#0F1A38"/>
</svg>
