<svg width="48" height="48" viewBox="0 0 48 48" fill="none" xmlns="http://www.w3.org/2000/svg">
<path fill-rule="evenodd" clip-rule="evenodd" d="M22.1539 5.56628H18.4615V16.6432H22.1539V5.56628ZM29.5385 9.25859H25.8462V16.6432H29.5385V9.25859ZM38.7692 38.7413H34.115C34.5959 37.9887 34.994 37.1805 35.2989 36.33C36.1611 33.9249 36.2331 31.3074 35.5045 28.8585C34.7759 26.4096 33.2847 24.2571 31.248 22.7145C29.2112 21.1719 26.7353 20.3196 24.1806 20.2818C21.6258 20.2439 19.1257 21.0225 17.0442 22.5041C14.9626 23.9857 13.4083 26.093 12.6075 28.5193C11.8067 30.9455 11.8011 33.564 12.5917 35.9936C12.9084 36.9668 13.3462 37.8893 13.8906 38.7413H9.23077V42.4336H38.7692V38.7413ZM31.8188 35.0803C31.3028 36.5206 30.4008 37.7858 29.2177 38.7413H18.7782C17.53 37.7333 16.5976 36.3829 16.0986 34.8509C15.5509 33.169 15.5542 31.3561 16.1082 29.6762C16.6622 27.9964 17.738 26.5372 19.1788 25.5111C20.6197 24.485 22.3504 23.9456 24.1191 23.9714C25.8878 23.9972 27.6021 24.5869 29.0124 25.6546C30.4227 26.7222 31.4555 28.2122 31.9602 29.9076C32.465 31.6029 32.4154 33.4151 31.8188 35.0803Z" fill="#0F1A38"/>
</svg>
