<svg width="48" height="48" viewBox="0 0 48 48" fill="none" xmlns="http://www.w3.org/2000/svg">
<path fill-rule="evenodd" clip-rule="evenodd" d="M5.53845 24C5.53845 13.8185 13.8185 5.53845 24 5.53845C34.1815 5.53845 42.4615 13.8185 42.4615 24C42.4615 34.1815 34.1815 42.4615 24 42.4615C13.8185 42.4615 5.53845 34.1815 5.53845 24ZM9.23076 24C9.23076 32.1415 15.8585 38.7692 24 38.7692C32.1415 38.7692 38.7692 32.1415 38.7692 24C38.7692 15.8585 32.1415 9.23076 24 9.23076C15.8585 9.23076 9.23076 15.8585 9.23076 24ZM29.2217 29.2217C30.6066 27.8368 31.3846 25.9585 31.3846 24H35.0769C35.0769 26.9378 33.9099 29.7552 31.8326 31.8326C29.7553 33.9099 26.9378 35.0769 24 35.0769C21.0622 35.0769 18.2448 33.9099 16.1675 31.8326C14.0901 29.7552 12.9231 26.9378 12.9231 24H16.6154C16.6154 25.9585 17.3934 27.8368 18.7783 29.2217C20.1632 30.6066 22.0415 31.3846 24 31.3846C25.9585 31.3846 27.8368 30.6066 29.2217 29.2217ZM20.3077 16.6154H16.6154L16.6154 24L20.3077 24V16.6154ZM27.6923 16.6154H31.3846L31.3846 24L27.6923 24V16.6154Z" fill="#0F1A38"/>
</svg>
