<svg width="48" height="48" viewBox="0 0 48 48" fill="none" xmlns="http://www.w3.org/2000/svg">
<path fill-rule="evenodd" clip-rule="evenodd" d="M15.7292 5.53845H28.6523C31.1005 5.53845 33.4484 6.51098 35.1795 8.24208C36.9106 9.97319 37.8831 12.3211 37.8831 14.7692C37.8831 17.2174 36.9106 19.5653 35.1795 21.2964C33.4484 23.0275 31.1005 24 28.6523 24H19.4216V27.6923H15.7292V24H10.1169V20.3077H15.7292V5.53845ZM15.7292 27.6923L15.7293 31.3846H10.1169V27.6923L15.7292 27.6923ZM19.4216 27.6923L28.6523 27.6923V31.3846H19.4215L19.4216 27.6923ZM19.4216 20.3077H28.6523C30.1212 20.3077 31.5299 19.7242 32.5686 18.6855C33.6073 17.6468 34.1908 16.2381 34.1908 14.7692C34.1908 13.3003 33.6073 11.8916 32.5686 10.8529C31.5299 9.81427 30.1212 9.23076 28.6523 9.23076H19.4216V20.3077ZM15.7292 31.3846H19.4216V42.4615H15.7292V31.3846Z" fill="#0F1A38"/>
</svg>
