<svg width="48" height="48" viewBox="0 0 48 48" fill="none" xmlns="http://www.w3.org/2000/svg">
<path fill-rule="evenodd" clip-rule="evenodd" d="M24 5.53845C13.8185 5.53845 5.53845 13.8185 5.53845 24C5.53845 34.1815 13.8185 42.4615 24 42.4615C34.1815 42.4615 42.4615 34.1815 42.4615 24C42.4615 13.8185 34.1815 5.53845 24 5.53845ZM24 38.7692C15.8585 38.7692 9.23076 32.1415 9.23076 24C9.23076 15.8585 15.8585 9.23076 24 9.23076C32.1415 9.23076 38.7692 15.8585 38.7692 24C38.7692 32.1415 32.1415 38.7692 24 38.7692ZM24 12.9231C21.8091 12.9231 19.6675 13.5727 17.846 14.7899C16.0244 16.007 14.6046 17.737 13.7662 19.761C12.9278 21.7851 12.7085 24.0123 13.1359 26.161C13.5633 28.3097 14.6183 30.2834 16.1674 31.8326C17.7165 33.3817 19.6902 34.4367 21.839 34.8641C23.9877 35.2915 26.2149 35.0721 28.2389 34.2337C30.2629 33.3953 31.9929 31.9756 33.2101 30.154C34.4272 28.3324 35.0769 26.1908 35.0769 24C35.0744 21.063 33.9066 18.2469 31.8298 16.1701C29.753 14.0933 26.937 12.9255 24 12.9231ZM24 31.3846C22.5394 31.3846 21.1117 30.9515 19.8973 30.1401C18.6829 29.3286 17.7364 28.1753 17.1775 26.826C16.6185 25.4766 16.4723 23.9918 16.7572 22.5593C17.0422 21.1268 17.7455 19.811 18.7782 18.7783C19.811 17.7455 21.1268 17.0422 22.5593 16.7573C23.9918 16.4723 25.4766 16.6186 26.8259 17.1775C28.1753 17.7364 29.3286 18.6829 30.14 19.8973C30.9515 21.1117 31.3846 22.5394 31.3846 24C31.3821 25.9578 30.6033 27.8346 29.219 29.219C27.8346 30.6034 25.9577 31.3822 24 31.3846ZM27.6923 24C27.6923 26.0392 26.0392 27.6923 24 27.6923C21.9608 27.6923 20.3077 26.0392 20.3077 24C20.3077 21.9608 21.9608 20.3077 24 20.3077C26.0392 20.3077 27.6923 21.9608 27.6923 24Z" fill="#0F1A38"/>
</svg>
