<svg width="48" height="48" viewBox="0 0 48 48" fill="none" xmlns="http://www.w3.org/2000/svg">
<path fill-rule="evenodd" clip-rule="evenodd" d="M36.6991 33.4547C37.7378 34.4934 39.1465 35.0769 40.6154 35.0769V38.7692H27.6923V35.0769H33.2308C32.0318 33.4794 31.3839 31.5358 31.3846 29.5385V16.6154C31.3846 14.6569 30.6066 12.7785 29.2217 11.3937C27.8368 10.0088 25.9585 9.23076 24 9.23076C22.0415 9.23076 20.1632 10.0088 18.7783 11.3937C17.3934 12.7785 16.6154 14.6569 16.6154 16.6154V29.5385C16.616 31.5358 15.9682 33.4794 14.7692 35.0769H20.3077V38.7692H7.38461V35.0769C8.11193 35.0769 8.83213 34.9337 9.50409 34.6553C10.176 34.377 10.7866 33.969 11.3009 33.4547C11.8152 32.9404 12.2232 32.3299 12.5015 31.6579C12.7798 30.986 12.9231 30.2658 12.9231 29.5385V16.6154C12.9231 13.6776 14.0901 10.8601 16.1674 8.78281C18.2448 6.70548 21.0622 5.53845 24 5.53845C26.9378 5.53845 29.7552 6.70548 31.8326 8.78281C33.9099 10.8601 35.0769 13.6776 35.0769 16.6154V29.5385C35.0769 31.0073 35.6604 32.4161 36.6991 33.4547ZM26.6109 41.3801C25.9184 42.0725 24.9793 42.4615 24 42.4615C23.0208 42.4615 22.0816 42.0725 21.3892 41.3801C20.6967 40.6876 20.3077 39.7485 20.3077 38.7692H27.6923C27.6923 39.7485 27.3033 40.6876 26.6109 41.3801Z" fill="#0F1A38"/>
</svg>
