<svg width="48" height="48" viewBox="0 0 48 48" fill="none" xmlns="http://www.w3.org/2000/svg">
<path fill-rule="evenodd" clip-rule="evenodd" d="M3 11.509L6.54387 33.8925C7.00854 36.8317 9.54366 38.9971 12.5199 38.9971C15.4932 38.9971 18.0284 36.8346 18.493 33.8955L20.9017 18.7171C21.0017 18.0846 21.5458 17.6197 22.1869 17.6197C22.8251 17.6197 23.3721 18.0846 23.4721 18.7171L25.8808 33.8925C26.3484 36.8346 28.8835 39 31.8597 39C34.8331 39 37.3652 36.8405 37.8358 33.9043L40.4974 17.3255C40.6415 16.4194 41.4238 15.7544 42.3384 15.7544H45V11H42.3384C39.0886 11 36.3212 13.3596 35.8065 16.5694L33.145 33.1482C33.042 33.7807 32.4979 34.2456 31.8568 34.2456C31.2157 34.2456 30.6687 33.7778 30.5687 33.1452L28.16 17.9698C27.6924 15.0307 25.1602 12.8653 22.184 12.8653C19.2077 12.8653 16.6755 15.0307 16.2079 17.9698L13.7992 33.1482C13.6993 33.7807 13.1552 34.2456 12.514 34.2456C11.8758 34.2456 11.3288 33.7807 11.2288 33.1482L7.80849 11.509H3Z" fill="#0F1A38"/>
</svg>
