<svg width="48" height="48" viewBox="0 0 48 48" fill="none" xmlns="http://www.w3.org/2000/svg">
<path fill-rule="evenodd" clip-rule="evenodd" d="M22.1539 22.1538V12.6092L18.6831 16.08L16.08 13.4677L24 5.53845L31.92 13.4677L29.3169 16.08L25.8369 12.6V22.1538H22.1539ZM25.8462 25.8461V35.3908L29.3169 31.92L31.92 34.5323L24 42.4615L16.08 34.5323L18.6831 31.92L22.1631 35.4V25.8461H25.8462ZM34.5323 16.08L31.92 18.6831L35.3908 22.1538H25.8461V25.8369H35.4L31.92 29.3169L34.5323 31.92L42.4615 24L34.5323 16.08ZM22.1539 22.1631V25.8461H12.6092L16.08 29.3169L13.4677 31.92L5.53847 24L13.4677 16.08L16.08 18.6831L12.6 22.1631H22.1539Z" fill="#0F1A38"/>
</svg>
