<svg width="48" height="48" viewBox="0 0 48 48" fill="none" xmlns="http://www.w3.org/2000/svg">
<path fill-rule="evenodd" clip-rule="evenodd" d="M23.9908 5.53845H24.0092C32.0585 5.54768 38.6031 12.0923 38.6031 20.1508C38.6031 29.2338 32.8892 36.1846 26.6123 42.4615L24 39.8492C29.9261 33.9231 34.9108 27.8308 34.9108 20.1508C34.9108 14.1323 30.0184 9.23076 24 9.23076C17.9815 9.23076 13.0892 14.1323 13.0892 20.1508C13.0892 27.8308 18.0738 33.9231 24 39.8492L21.3877 42.4615C15.1108 36.1846 9.39691 29.2338 9.39691 20.1508C9.39691 12.0923 15.9415 5.54768 23.9908 5.53845ZM19.8882 14.1676C21.1026 13.3562 22.5303 12.9231 23.9909 12.9231C25.9487 12.9255 27.8255 13.7043 29.2099 15.0887C30.5942 16.473 31.3731 18.3499 31.3755 20.3077C31.3755 21.7682 30.9424 23.196 30.131 24.4104C29.3195 25.6248 28.1662 26.5713 26.8169 27.1302C25.4675 27.6891 23.9827 27.8354 22.5502 27.5504C21.1177 27.2655 19.8019 26.5622 18.7692 25.5294C17.7364 24.4967 17.0331 23.1808 16.7482 21.7484C16.4632 20.3159 16.6095 18.8311 17.1684 17.4817C17.7273 16.1324 18.6738 14.9791 19.8882 14.1676ZM21.9395 23.3777C22.5467 23.7835 23.2606 24 23.9909 24C24.9694 23.9976 25.9071 23.6078 26.599 22.9159C27.291 22.224 27.6808 21.2862 27.6832 20.3077C27.6832 19.5774 27.4666 18.8636 27.0609 18.2564C26.6552 17.6492 26.0785 17.1759 25.4039 16.8965C24.7292 16.617 23.9868 16.5439 23.2705 16.6863C22.5543 16.8288 21.8964 17.1805 21.38 17.6969C20.8636 18.2132 20.512 18.8711 20.3695 19.5874C20.2271 20.3036 20.3002 21.046 20.5796 21.7207C20.8591 22.3954 21.3323 22.972 21.9395 23.3777Z" fill="#0F1A38"/>
</svg>
