<svg width="48" height="48" viewBox="0 0 48 48" fill="none" xmlns="http://www.w3.org/2000/svg">
<path fill-rule="evenodd" clip-rule="evenodd" d="M32.0954 20.3077H38.7693C39.7485 20.3077 40.6877 20.6967 41.3801 21.3891C42.0726 22.0816 42.4616 23.0207 42.4616 24V31.6985C42.4647 32.4275 42.3226 33.1498 42.0437 33.8233C41.7648 34.4969 41.3546 35.1082 40.837 35.6215L35.6216 40.8369C35.1082 41.3545 34.4969 41.7647 33.8234 42.0437C33.1498 42.3226 32.4275 42.4646 31.6985 42.4615H16.6154V38.7692H31.6985C31.9422 38.7699 32.1836 38.7221 32.4086 38.6286C32.6336 38.5351 32.8378 38.3978 33.0093 38.2246L38.2247 33.0092C38.3978 32.8378 38.5352 32.6336 38.6287 32.4086C38.7222 32.1835 38.77 31.9421 38.7693 31.6985V24H26.9816L28.4677 19.5323C29.1782 17.4012 29.5397 15.1694 29.5385 12.9231C29.5381 12.1862 29.3173 11.4663 28.9044 10.856C28.4915 10.2457 27.9054 9.77293 27.2216 9.49845L26.3447 13.0061C25.8989 14.8062 24.9172 16.4285 23.5293 17.6585L16.6154 23.8246V38.7692H12.9231V22.1631L21.0739 14.9077C21.9028 14.1643 22.4909 13.1904 22.7631 12.1108L24.4062 5.53845H25.8462C27.804 5.54089 29.6808 6.3197 31.0652 7.70405C32.4496 9.08841 33.2284 10.9653 33.2308 12.9231C33.2333 15.4283 32.8504 17.9189 32.0954 20.3077ZM5.53847 22.1538H9.23077V38.7692H5.53847V22.1538Z" fill="#0F1A38"/>
</svg>
