<svg width="48" height="48" viewBox="0 0 48 48" fill="none" xmlns="http://www.w3.org/2000/svg">
<path fill-rule="evenodd" clip-rule="evenodd" d="M29.9302 7.07354C32.3955 8.09387 34.6342 9.59256 36.5169 11.483C38.4074 13.3658 39.9061 15.6045 40.9264 18.0697C41.9467 20.535 42.4685 23.178 42.4615 25.8461H38.7692C38.7692 16.6799 31.32 9.23071 22.1539 9.23071V5.5384C24.8219 5.53145 27.4649 6.05321 29.9302 7.07354ZM35.0769 25.8461L38.7692 25.8461C38.7692 35.0122 31.32 42.4615 22.1539 42.4615C12.9877 42.4615 5.53847 35.0122 5.53847 25.8461C5.53847 16.6799 12.9877 9.23071 22.1539 9.23071V12.923C15.0277 12.923 9.23077 18.7199 9.23077 25.8461C9.23077 32.9722 15.0277 38.7692 22.1539 38.7692C29.28 38.7692 35.0769 32.9722 35.0769 25.8461ZM35.0769 25.8461L31.3846 25.8461C31.3797 23.3994 30.4057 21.0544 28.6756 19.3243C26.9456 17.5943 24.6005 16.6202 22.1539 16.6153V12.923C29.28 12.923 35.0769 18.7199 35.0769 25.8461ZM18.2375 29.7624C19.2762 30.801 20.6849 31.3845 22.1538 31.3845C23.6227 31.3845 25.0314 30.801 26.0701 29.7624C27.1088 28.7237 27.6923 27.315 27.6923 25.8461H31.3846C31.3846 27.6718 30.8432 29.4564 29.8289 30.9744C28.8146 32.4924 27.373 33.6755 25.6863 34.3742C23.9996 35.0729 22.1436 35.2557 20.353 34.8995C18.5624 34.5433 16.9176 33.6642 15.6267 32.3732C14.3357 31.0823 13.4566 29.4375 13.1004 27.6469C12.7442 25.8563 12.927 24.0003 13.6257 22.3136C14.3244 20.6269 15.5075 19.1853 17.0255 18.171C18.5435 17.1567 20.3281 16.6153 22.1538 16.6153V20.3076C20.6849 20.3076 19.2762 20.8911 18.2375 21.9298C17.1989 22.9685 16.6154 24.3772 16.6154 25.8461C16.6154 27.315 17.1989 28.7237 18.2375 29.7624Z" fill="#0F1A38"/>
</svg>
