<svg width="48" height="48" viewBox="0 0 48 48" fill="none" xmlns="http://www.w3.org/2000/svg">
<path fill-rule="evenodd" clip-rule="evenodd" d="M7.29224 20.8369V7H40.7076V20.8369C40.7098 23.7586 40.1353 26.6519 39.017 29.3511C37.8987 32.0503 36.2586 34.5022 34.1907 36.5661L26.7415 44.0154L23.9999 41.2738L31.4492 33.8246C33.1566 32.1203 34.5109 30.0958 35.4344 27.8671C36.3579 25.6384 36.8324 23.2494 36.8307 20.8369V10.8769H11.1692V20.8369C11.1675 23.2494 11.642 25.6384 12.5655 27.8671C13.489 30.0958 14.8432 32.1203 16.5507 33.8246L23.9999 41.2738L21.2584 44.0154L13.8092 36.5661C11.7413 34.5022 10.1012 32.0503 8.98288 29.3511C7.86456 26.6519 7.29004 23.7586 7.29224 20.8369ZM22.043 29.2465L19.4307 26.6342L15.5168 22.7204L18.1292 20.1081L22.043 24.0219L29.8707 16.1942L32.483 18.8065L24.6553 26.6342L22.043 29.2465Z" fill="#0F1A38"/>
</svg>
