<svg width="48" height="48" viewBox="0 0 48 48" fill="none" xmlns="http://www.w3.org/2000/svg">
<path d="M40.44 36.1573C39.6 30.4065 35.6954 25.6711 30.5077 23.4742C32.1052 22.1361 33.2518 20.3385 33.7917 18.3258C34.3317 16.3131 34.2387 14.183 33.5254 12.225C32.8122 10.2671 31.5132 8.57623 29.8052 7.38243C28.0972 6.18863 26.063 5.54979 23.9792 5.55274C21.8953 5.5557 19.8629 6.20032 18.1583 7.39896C16.4537 8.5976 15.1596 10.2921 14.4519 12.2521C13.7442 14.2121 13.6572 16.3425 14.2029 18.3536C14.7485 20.3648 15.9003 22.1591 17.5015 23.4927C14.5624 24.7733 12.0494 26.8656 10.2574 29.524C8.46549 32.1825 7.4689 35.297 7.38462 38.5019V42.4619H36.9231V38.7696H11.0769V38.585C11.1683 35.189 12.571 31.9602 14.9908 29.5757C16.1748 28.3915 17.5809 27.4525 19.1284 26.8125C20.676 26.1726 22.3346 25.8443 24.0092 25.8465C27.1141 25.8533 30.115 26.966 32.4738 28.985C34.8185 30.988 36.3508 33.7296 36.7846 36.6927C36.8768 37.3811 36.923 38.075 36.9231 38.7696H40.6154C40.615 37.8959 40.5564 37.0232 40.44 36.1573ZM24 9.23112C25.278 9.23112 26.5272 9.61008 27.5898 10.3201C28.6524 11.0301 29.4806 12.0392 29.9697 13.2199C30.4587 14.4006 30.5867 15.6998 30.3374 16.9532C30.0881 18.2067 29.4727 19.358 28.569 20.2617C27.6653 21.1653 26.514 21.7807 25.2606 22.03C24.0072 22.2794 22.708 22.1514 21.5273 21.6623C20.3466 21.1733 19.3374 20.3451 18.6274 19.2825C17.9174 18.2199 17.5385 16.9706 17.5385 15.6927C17.5409 13.9797 18.2225 12.3376 19.4337 11.1264C20.6449 9.91511 22.287 9.23356 24 9.23112Z" fill="#0F1A38"/>
</svg>
