<svg width="48" height="48" viewBox="0 0 48 48" fill="none" xmlns="http://www.w3.org/2000/svg">
<path fill-rule="evenodd" clip-rule="evenodd" d="M31.8461 8H35.5384V15.3846H31.8461V8ZM42.9231 15.3942H35.5385V19.0865H42.9231V15.3942ZM18.923 15.4029H31.846V19.0952H18.923C18.4341 19.0976 17.9659 19.2929 17.6202 19.6386C17.2745 19.9843 17.0792 20.4525 17.0768 20.9414V33.8644H13.3845V37.5475H5.99988V33.8552H13.3845V20.9414C13.3845 19.4725 13.968 18.0637 15.0067 17.0251C16.0453 15.9864 17.4541 15.4029 18.923 15.4029ZM17.0768 33.8644V37.5567H29.9999C31.4688 37.5567 32.8775 36.9732 33.9162 35.9346C34.9548 34.8959 35.5383 33.4872 35.5383 32.0183V19.0952H31.846V32.0183C31.8436 32.5072 31.6483 32.9753 31.3026 33.321C30.9569 33.6667 30.4888 33.862 29.9999 33.8644H17.0768ZM13.3845 37.5568H17.0768V44.9414H13.3845V37.5568Z" fill="#0F1A38"/>
</svg>
