<svg width="48" height="48" viewBox="0 0 48 48" fill="none" xmlns="http://www.w3.org/2000/svg">
<path d="M27.6923 22.1538H25.8461V11.0769H26.7692C28.2381 11.0769 29.6468 11.6604 30.6855 12.6991C31.7242 13.7378 32.3077 15.1465 32.3077 16.6154H36C35.9951 14.1687 35.021 11.8237 33.291 10.0936C31.5609 8.36358 29.2159 7.38948 26.7692 7.38461H25.8461V5.53845H22.1538V7.38461H21.2308C18.7826 7.38461 16.4347 8.35713 14.7036 10.0882C12.9725 11.8193 12 14.1672 12 16.6154C12 19.0635 12.9725 21.4114 14.7036 23.1425C16.4347 24.8736 18.7826 25.8461 21.2308 25.8461H22.1538V22.1538H21.2308C19.7619 22.1538 18.3531 21.5703 17.3145 20.5317C16.2758 19.493 15.6923 18.0843 15.6923 16.6154C15.6923 15.1465 16.2758 13.7378 17.3145 12.6991C18.3531 11.6604 19.7619 11.0769 21.2308 11.0769H22.1538V22.1538H25.8461V25.8461H22.1538V36.9231H20.3077C18.8388 36.9231 17.4301 36.3396 16.3914 35.3009C15.3527 34.2622 14.7692 32.8535 14.7692 31.3846H11.0769C11.0818 33.8313 12.0559 36.1763 13.7859 37.9064C15.516 39.6364 17.861 40.6105 20.3077 40.6154H22.1538V42.4615H25.8461V40.6154H27.6923C30.1404 40.6154 32.4883 39.6428 34.2194 37.9117C35.9505 36.1806 36.9231 33.8328 36.9231 31.3846C36.9231 28.9365 35.9505 26.5886 34.2194 24.8575C32.4883 23.1264 30.1404 22.1538 27.6923 22.1538ZM27.6923 36.9231H25.8461V25.8461H27.6923C29.1612 25.8461 30.5699 26.4297 31.6086 27.4683C32.6472 28.507 33.2307 29.9157 33.2307 31.3846C33.2307 32.8535 32.6472 34.2622 31.6086 35.3009C30.5699 36.3396 29.1612 36.9231 27.6923 36.9231Z" fill="#0F1A38"/>
</svg>
