<svg width="48" height="48" viewBox="0 0 48 48" fill="none" xmlns="http://www.w3.org/2000/svg">
<path fill-rule="evenodd" clip-rule="evenodd" d="M25.8461 9.29536V5.58459C35.16 6.5169 42.4615 14.4 42.4615 23.9538C42.4615 34.1354 34.1815 42.4154 24 42.4154C13.8185 42.4154 5.53845 34.1354 5.53845 23.9538C5.53845 14.4 12.84 6.5169 22.1538 5.58459V9.29536C14.88 10.2092 9.23076 16.4307 9.23076 23.9538C9.23076 32.0954 15.8585 38.7231 24 38.7231C32.1415 38.7231 38.7692 32.0954 38.7692 23.9538C38.7692 16.4307 33.12 10.2092 25.8461 9.29536ZM33.2307 22.1079V25.8002H22.1538V9.29556C23.3801 9.1479 24.6198 9.1479 25.8461 9.29556V22.1079H33.2307Z" fill="#0F1A38"/>
</svg>
