<svg width="48" height="48" viewBox="0 0 48 48" fill="none" xmlns="http://www.w3.org/2000/svg">
<path fill-rule="evenodd" clip-rule="evenodd" d="M22.1538 5.53259H25.8461V14.2579L29.625 10.479L32.2358 13.0898L26.5573 18.7684L23.97 16.1811L21.3827 18.7684L15.7041 13.0898L18.3149 10.479L22.1538 14.3179V5.53259ZM26.6166 29.2198L24.014 31.8225H23.914L21.3767 29.2852L15.6981 34.9637L18.309 37.5746L22.1538 33.7297V42.4379H25.8461V33.671L29.6844 37.5092L32.2952 34.8984L26.6166 29.2198ZM29.2256 21.3772L34.9041 15.6986L37.515 18.3095L33.7136 22.1108H42.4987V25.8031H33.6985L37.515 29.6196L34.9041 32.2305L29.2256 26.5519L31.8129 23.9645L29.2256 21.3772ZM31.8599 23.9645L31.8834 23.988V23.9411L31.8599 23.9645ZM10.4192 18.3034L13.03 15.6926L18.7086 21.3711L16.1167 23.963V24.0465L16.1631 24.0001L18.7739 26.6109L13.0954 32.2895L10.4845 29.6786L14.3601 25.8031H5.50128V22.1108H14.2266L10.4192 18.3034Z" fill="#0F1A38"/>
</svg>
