<svg width="48" height="48" viewBox="0 0 48 48" fill="none" xmlns="http://www.w3.org/2000/svg">
<path d="M42.5908 5.49231H32.4462L24 13.9108L26.7323 16.6615L34.0431 9.36923H38.6954L38.6769 14.0123L30.36 22.3662C28.4962 21.0561 26.2736 20.353 23.9954 20.353C21.7172 20.353 19.4946 21.0561 17.6308 22.3662L9.28616 14.0308V9.36923H13.9662L21.2585 16.6615L24 13.9108L15.5631 5.49231H5.40924V15.6369L14.8985 25.1169C13.7406 26.7792 13.0604 28.727 12.9317 30.7487C12.8029 32.7703 13.2306 34.7887 14.1682 36.5844C15.1058 38.3801 16.5175 39.8846 18.25 40.9345C19.9826 41.9843 21.9696 42.5394 23.9954 42.5394C26.0212 42.5394 28.0082 41.9843 29.7407 40.9345C31.4733 39.8846 32.885 38.3801 33.8226 36.5844C34.7602 34.7887 35.1879 32.7703 35.0591 30.7487C34.9304 28.727 34.2502 26.7792 33.0923 25.1169L42.5446 15.6185L42.5908 5.49231ZM24 38.8154C22.5395 38.8154 21.1117 38.3823 19.8973 37.5709C18.6829 36.7594 17.7364 35.6061 17.1775 34.2567C16.6186 32.9074 16.4724 31.4226 16.7573 29.9901C17.0422 28.5576 17.7455 27.2418 18.7783 26.2091C19.8111 25.1763 21.1269 24.473 22.5593 24.188C23.9918 23.9031 25.4766 24.0494 26.826 24.6083C28.1753 25.1672 29.3287 26.1137 30.1401 27.3281C30.9515 28.5425 31.3846 29.9702 31.3846 31.4308C31.3846 33.3893 30.6066 35.2676 29.2217 36.6525C27.8368 38.0374 25.9585 38.8154 24 38.8154Z" fill="#0F1A38"/>
</svg>
