<svg width="48" height="48" viewBox="0 0 48 48" fill="none" xmlns="http://www.w3.org/2000/svg">
<path fill-rule="evenodd" clip-rule="evenodd" d="M24 5.58459C13.8185 5.58459 5.53845 13.8646 5.53845 24.0461C5.53845 33.6 12.84 41.4831 22.1538 42.4154V38.7046C22.7664 38.7788 23.3829 38.8158 24 38.8154C24.6174 38.8177 25.2342 38.7776 25.8461 38.6954V22.2H22.1538L22.1538 38.7046C14.88 37.7907 9.23076 31.5692 9.23076 24.0461C9.23076 15.9046 15.8585 9.2769 24 9.2769C32.1415 9.2769 38.7692 15.9046 38.7692 24.0461C38.7692 31.56 33.12 37.7907 25.8461 38.6954V42.4154C35.16 41.4831 42.4615 33.6 42.4615 24.0461C42.4615 13.8646 34.1815 5.58459 24 5.58459ZM26.7692 16.6615C26.7692 18.1909 25.5293 19.4307 23.9999 19.4307C22.4705 19.4307 21.2307 18.1909 21.2307 16.6615C21.2307 15.1321 22.4705 13.8923 23.9999 13.8923C25.5293 13.8923 26.7692 15.1321 26.7692 16.6615Z" fill="#0F1A38"/>
</svg>
