<svg width="48" height="48" viewBox="0 0 48 48" fill="none" xmlns="http://www.w3.org/2000/svg">
<path d="M32.2245 34.154C29.5316 34.154 26.9489 33.0842 25.0447 31.18C23.1405 29.2758 22.0707 26.6931 22.0707 24.0001C22.0707 21.3072 23.1405 18.7245 25.0447 16.8203C26.9489 14.9161 29.5316 13.8463 32.2245 13.8463C34.3451 13.8405 36.4131 14.5062 38.1322 15.7478L40.6984 13.1632C38.9928 10.7981 36.7486 8.87304 34.1515 7.5472C31.5544 6.22136 28.6789 5.53285 25.763 5.53861C15.5814 5.53861 7.30145 13.8186 7.30145 24.0001C7.30145 34.1817 15.5814 42.4617 25.763 42.4617C28.6789 42.4674 31.5544 41.7789 34.1515 40.4531C36.7486 39.1273 38.9928 37.2022 40.6984 34.8371L38.1322 32.2525C36.4131 33.4941 34.3451 34.1598 32.2245 34.154ZM25.763 38.7694C17.6122 38.7694 10.9938 32.1417 10.9938 24.0001C10.9938 15.8586 17.6122 9.23092 25.763 9.23092C27.5679 9.22387 29.3583 9.55254 31.043 10.2001C23.963 10.8001 18.3784 16.7632 18.3784 24.0001C18.3784 31.2371 23.963 37.2001 31.043 37.8001C29.3583 38.4478 27.5679 38.7764 25.763 38.7694Z" fill="#0F1A38"/>
</svg>
