<svg width="48" height="48" viewBox="0 0 48 48" fill="none" xmlns="http://www.w3.org/2000/svg">
<path fill-rule="evenodd" clip-rule="evenodd" d="M25.8461 5.53845H22.1538V12.9231H25.8461V5.53845ZM24.0001 16.6154C22.2002 16.6118 20.4609 17.2658 19.1092 18.4543C17.7575 19.6429 16.8865 21.2841 16.6597 23.0697C16.433 24.8553 16.8662 26.6622 17.8779 28.1509C18.8897 29.6395 20.4102 30.7074 22.1539 31.1538V27.1938C21.45 26.7874 20.8999 26.1601 20.5888 25.4092C20.2778 24.6583 20.2232 23.8257 20.4336 23.0406C20.6439 22.2555 21.1075 21.5617 21.7523 21.0669C22.3972 20.5721 23.1873 20.3039 24.0001 20.3039C24.8129 20.3039 25.603 20.5721 26.2478 21.0669C26.8926 21.5617 27.3562 22.2555 27.5666 23.0406C27.7769 23.8257 27.7224 24.6583 27.4113 25.4092C27.1003 26.1601 26.5501 26.7874 25.8462 27.1938V31.1538C27.5899 30.7074 29.1105 29.6395 30.1222 28.1509C31.1339 26.6622 31.5671 24.8553 31.3404 23.0697C31.1136 21.2841 30.2426 19.6429 28.8909 18.4543C27.5392 17.2658 25.8 16.6118 24.0001 16.6154ZM22.1538 42.4615V31.1538C23.3654 31.4613 24.6346 31.4613 25.8461 31.1538V42.4615H22.1538ZM42.4615 22.1538H35.0769V25.8461H42.4615V22.1538ZM5.53845 22.1538H12.9231V25.8461H5.53845V22.1538ZM33.1293 30.5237L30.5184 33.1346L35.7401 38.3563L38.351 35.7454L33.1293 30.5237ZM9.64819 12.2546L12.259 9.64371L17.4808 14.8654L14.8699 17.4763L9.64819 12.2546ZM14.8649 30.5189L9.64319 35.7406L12.254 38.3514L17.4758 33.1297L14.8649 30.5189ZM30.5233 14.8703L35.745 9.64854L38.3558 12.2594L33.1341 17.4811L30.5233 14.8703Z" fill="#0F1A38"/>
</svg>
