<svg width="48" height="48" viewBox="0 0 48 48" fill="none" xmlns="http://www.w3.org/2000/svg">
<path fill-rule="evenodd" clip-rule="evenodd" d="M30.3507 22.1537H11.8892H8.1969V18.4614H12.0554C13.1723 11.1506 19.5046 5.53834 27.12 5.53834C29.5015 5.5357 31.8503 6.09328 33.9766 7.16604C36.1028 8.23879 37.947 9.79664 39.36 11.7137L36.3969 13.9106C35.0711 12.1168 33.2537 10.7457 31.1648 9.96328C29.0759 9.18088 26.805 9.02075 24.627 9.50226C22.4489 9.98377 20.4572 11.0863 18.8927 12.6763C17.3283 14.2664 16.2583 16.2758 15.8123 18.4614H30.3507V22.1537ZM32.9771 37.6653C34.5195 36.9357 35.88 35.8717 36.96 34.5507L39.8031 36.8953C38.3786 38.6375 36.5843 40.0408 34.5503 41.0035C32.5162 41.9663 30.2934 42.4643 28.0431 42.4615H27.12C19.5046 42.4615 13.1723 36.8492 12.0554 29.5384H8.1969V25.8461H30.3507V29.5384H15.8123C16.3475 32.143 17.7645 34.4834 19.8244 36.165C21.8842 37.8465 24.4609 38.7663 27.12 38.7692H28.0431C29.7493 38.7721 31.4348 38.395 32.9771 37.6653Z" fill="#0F1A38"/>
</svg>
