<svg width="48" height="48" viewBox="0 0 48 48" fill="none" xmlns="http://www.w3.org/2000/svg">
<path d="M42.4615 9.23076V5.53845H38.7692C35.7177 5.54003 32.7255 6.38146 30.1204 7.97057C27.5153 9.55968 25.3978 11.8351 24 14.5477C22.6021 11.8351 20.4847 9.55968 17.8796 7.97057C15.2745 6.38146 12.2823 5.54003 9.23076 5.53845V9.23076C16.3569 9.23076 22.1538 15.0277 22.1538 22.1538C15.0277 22.1538 9.23076 16.3569 9.23076 9.23076H5.53845C5.54003 12.2823 6.38146 15.2745 7.97057 17.8796C9.55968 20.4847 11.8351 22.6021 14.5477 24C11.8351 25.3978 9.55968 27.5153 7.97057 30.1204C6.38146 32.7255 5.54003 35.7177 5.53845 38.7692V42.4615H9.23076C12.2823 42.4599 15.2745 41.6185 17.8796 40.0294C20.4847 38.4403 22.6021 36.1648 24 33.4523C25.3978 36.1648 27.5153 38.4403 30.1204 40.0294C32.7255 41.6185 35.7177 42.4599 38.7692 42.4615V38.7692C31.6431 38.7692 25.8461 32.9723 25.8461 25.8461C32.9723 25.8461 38.7692 31.6431 38.7692 38.7692H42.4615C42.4599 35.7177 41.6185 32.7255 40.0294 30.1204C38.4403 27.5153 36.1648 25.3978 33.4523 24C36.1648 22.6021 38.4403 20.4847 40.0294 17.8796C41.6185 15.2745 42.4599 12.2823 42.4615 9.23076ZM9.23076 38.7692C9.23076 31.6431 15.0277 25.8461 22.1538 25.8461C22.1538 32.9723 16.3569 38.7692 9.23076 38.7692ZM25.8461 22.1538C25.8461 15.0277 31.6431 9.23076 38.7692 9.23076C38.7692 16.3569 32.9723 22.1538 25.8461 22.1538Z" fill="#0F1A38"/>
</svg>
