<svg width="48" height="48" viewBox="0 0 48 48" fill="none" xmlns="http://www.w3.org/2000/svg">
<path d="M33.2308 17.1508V16.6154C33.2343 14.8057 32.7011 13.0357 31.6985 11.5292L35.0769 8.15076L32.4646 5.53845L29.0862 8.91691C27.5783 7.91703 25.8092 7.38376 24 7.38376C22.1908 7.38376 20.4217 7.91703 18.9138 8.91691L15.5354 5.53845L12.9231 8.15076L16.3015 11.5292C15.2989 13.0357 14.7657 14.8057 14.7692 16.6154V17.1508C9.43385 18.7477 5.53847 23.6954 5.53847 29.5384V33.2308H9.23077C11.1465 33.231 13.0383 32.8054 14.7692 31.9846V33.2308C14.7692 35.6789 15.7418 38.0268 17.4729 39.7579C19.204 41.489 21.5519 42.4615 24 42.4615C26.4482 42.4615 28.796 41.489 30.5271 39.7579C32.2582 38.0268 33.2308 35.6789 33.2308 33.2308V31.9846C34.9617 32.8054 36.8535 33.231 38.7692 33.2308H42.4615V29.5384C42.4615 23.6954 38.5662 18.7477 33.2308 17.1508ZM19.8277 27.6923H28.1723C28.5814 28.2798 29.0383 28.8324 29.5385 29.3446V31.3846H18.4615V29.3446C18.9617 28.8324 19.4186 28.2798 19.8277 27.6923ZM24 38.7692C22.8545 38.7685 21.7373 38.4131 20.8018 37.752C19.8664 37.0909 19.1585 36.1564 18.7754 35.0769H29.2246C28.8415 36.1564 28.1336 37.0909 27.1982 37.752C26.2627 38.4131 25.1455 38.7685 24 38.7692ZM29.5385 20.3077H25.8462C25.844 21.5579 26.0244 22.8018 26.3815 24H21.6185C21.9756 22.8018 22.156 21.5579 22.1539 20.3077H18.4615C18.4567 22.7543 17.4826 25.0994 15.7525 26.8294C14.0225 28.5595 11.6774 29.5336 9.23077 29.5384C9.23565 27.0918 10.2097 24.7467 11.9398 23.0167C13.6698 21.2867 16.0149 20.3126 18.4615 20.3077V16.6154C18.4615 15.1465 19.0451 13.7378 20.0837 12.6991C21.1224 11.6604 22.5311 11.0769 24 11.0769C25.4689 11.0769 26.8776 11.6604 27.9163 12.6991C28.9549 13.7378 29.5385 15.1465 29.5385 16.6154V20.3077C31.9851 20.3126 34.3302 21.2867 36.0602 23.0167C37.7903 24.7467 38.7644 27.0918 38.7692 29.5384C36.3226 29.5336 33.9775 28.5595 32.2475 26.8294C30.5174 25.0994 29.5433 22.7543 29.5385 20.3077Z" fill="#0F1A38"/>
</svg>
