<svg width="48" height="48" viewBox="0 0 48 48" fill="none" xmlns="http://www.w3.org/2000/svg">
<path fill-rule="evenodd" clip-rule="evenodd" d="M37.8336 9.77781C38.4431 10.6897 38.7687 11.7617 38.7692 12.8586V14.714V23.7693V33.0001C38.768 34.3514 38.2727 35.6557 37.3767 36.6673C36.4808 37.6789 35.2458 38.328 33.9046 38.4924L35.243 42.637H31.3569L30.0369 38.5386H17.9446L16.5784 42.637H12.683L14.0676 38.4924C12.7322 38.3199 11.505 37.6675 10.6151 36.657C9.72509 35.6464 9.23306 34.3467 9.23071 33.0001V12.8586C9.23117 11.7617 9.55674 10.6897 10.1663 9.77781C10.7758 8.86596 11.642 8.15525 12.6553 7.7355C15.678 6.48247 18.8879 5.74006 22.1538 5.53857V9.24011C19.3755 9.43356 16.6473 10.079 14.0769 11.1509C13.7365 11.2912 13.4454 11.5291 13.24 11.8347C13.0347 12.1402 12.9244 12.4997 12.923 12.8678H22.1538V9.24011C22.763 9.19396 23.3815 9.1755 23.9999 9.1755C24.6184 9.1755 25.2276 9.19396 25.8461 9.24011V12.8586H35.0769C35.0755 12.4905 34.9652 12.131 34.7599 11.8254C34.5545 11.5199 34.2633 11.282 33.923 11.1417C31.3516 10.074 28.6237 9.43176 25.8461 9.24011V5.53857C29.1127 5.73561 32.3232 6.47819 35.3446 7.7355C36.3579 8.15525 37.2241 8.86596 37.8336 9.77781ZM35.0769 21.9232V16.5601H12.923V21.9232H35.0769ZM13.4664 34.3029C13.8121 34.6486 14.2803 34.8438 14.7692 34.8463H33.2307C33.7196 34.8438 34.1878 34.6486 34.5335 34.3029C34.8792 33.9572 35.0744 33.489 35.0769 33.0001V25.6155H12.923V33.0001C12.9254 33.489 13.1207 33.9572 13.4664 34.3029ZM17.5384 32.0768C18.558 32.0768 19.3846 31.2503 19.3846 30.2307C19.3846 29.2111 18.558 28.3845 17.5384 28.3845C16.5188 28.3845 15.6923 29.2111 15.6923 30.2307C15.6923 31.2503 16.5188 32.0768 17.5384 32.0768ZM30.4615 32.0768C31.4811 32.0768 32.3077 31.2503 32.3077 30.2307C32.3077 29.2111 31.4811 28.3845 30.4615 28.3845C29.4419 28.3845 28.6154 29.2111 28.6154 30.2307C28.6154 31.2503 29.4419 32.0768 30.4615 32.0768Z" fill="#0F1A38"/>
</svg>
