<svg width="48" height="48" viewBox="0 0 48 48" fill="none" xmlns="http://www.w3.org/2000/svg">
<path fill-rule="evenodd" clip-rule="evenodd" d="M25.8461 20.0772C27.5864 19.6279 29.1031 18.5592 30.1119 17.0717C31.1206 15.5841 31.5522 13.7796 31.3257 11.9966C31.0993 10.2136 30.2303 8.57432 28.8816 7.38616C27.533 6.198 25.7973 5.54248 24 5.54248C22.2026 5.54248 20.467 6.198 19.1183 7.38616C17.7697 8.57432 16.9007 10.2136 16.6742 11.9966C16.4478 13.7796 16.8793 15.5841 17.8881 17.0717C18.8969 18.5592 20.4135 19.6279 22.1538 20.0772V27.6926H25.8461V31.3846H30.24L33.9323 38.7692H14.0676L17.76 31.3846H22.1538V27.6923H16.6153C16.2719 27.6924 15.9353 27.7884 15.6434 27.9694C15.3515 28.1504 15.1159 28.4093 14.963 28.7169L9.42457 39.7938C9.28254 40.074 9.21554 40.3863 9.2301 40.7001C9.24466 41.014 9.34028 41.3187 9.50765 41.5846C9.67282 41.8523 9.90368 42.0735 10.1783 42.2269C10.453 42.3804 10.7623 42.4611 11.0769 42.4615H36.923C37.2376 42.4611 37.5469 42.3804 37.8216 42.2269C38.0962 42.0735 38.3271 41.8523 38.4923 41.5846C38.6596 41.3187 38.7552 41.014 38.7698 40.7001C38.7844 40.3863 38.7174 40.074 38.5753 39.7938L33.0369 28.7169C32.884 28.4093 32.6484 28.1504 32.3565 27.9694C32.0646 27.7884 31.728 27.6924 31.3846 27.6923H25.8461V20.0772ZM20.3077 12.9234C20.3077 12.1931 20.5242 11.4792 20.9299 10.872C21.3357 10.2648 21.9123 9.79158 22.587 9.51212C23.2617 9.23266 24.0041 9.15954 24.7203 9.30201C25.4366 9.44448 26.0945 9.79614 26.6108 10.3125C27.1272 10.8289 27.4789 11.4868 27.6213 12.203C27.7638 12.9193 27.6907 13.6617 27.4112 14.3364C27.1318 15.011 26.6585 15.5877 26.0513 15.9934C25.4441 16.3991 24.7303 16.6157 24 16.6157C23.0207 16.6157 22.0816 16.2267 21.3891 15.5342C20.6967 14.8418 20.3077 13.9026 20.3077 12.9234ZM25.8461 31.3846H22.1538V35.077H25.8461V31.3846Z" fill="#0F1A38"/>
</svg>
