<svg width="48" height="48" viewBox="0 0 48 48" fill="none" xmlns="http://www.w3.org/2000/svg">
<path fill-rule="evenodd" clip-rule="evenodd" d="M30.5263 8.15076L25.8463 12.8308V20.8058L32.7508 16.8181L34.4677 10.4212L38.0308 11.3812L36.6 16.7258L41.9446 18.1566L40.9939 21.7289L34.597 20.012L27.6923 23.9997L25.8463 20.8059V20.8061H22.1539V12.8308L17.4739 8.15076L20.0862 5.53845L24.0001 9.4523L27.9139 5.53845L30.5263 8.15076ZM17.4739 39.8496L22.1539 35.1696V27.1942H25.8463V35.1696L30.5263 39.8496L27.9139 42.4619L24.0001 38.5481L20.0862 42.4619L17.4739 39.8496ZM13.4031 27.9877L7.00619 26.2708L6.05542 29.8431L11.4 31.2739L9.96927 36.6185L13.5323 37.5785L15.2493 31.1816L22.1539 27.1939L20.3077 24L13.4031 27.9877ZM15.2493 16.8181L13.5323 10.4212L9.96927 11.3812L11.4 16.7258L6.05542 18.1566L7.00619 21.7289L13.4031 20.012L20.3077 23.9997L22.1539 20.8058L15.2493 16.8181ZM34.597 27.9877L40.9939 26.2708L41.9446 29.8431L36.6 31.2739L38.0308 36.6185L34.4677 37.5785L32.7508 31.1816L25.8462 27.1939L27.6923 24L34.597 27.9877Z" fill="#0F1A38"/>
</svg>
