<svg width="48" height="48" viewBox="0 0 48 48" fill="none" xmlns="http://www.w3.org/2000/svg">
<path d="M16.6154 35.0769H36.9231V9.23076H33.2308V31.3846H16.6154C15.9867 31.3844 15.3625 31.4905 14.7692 31.6984V11.0769C14.7717 10.588 14.9669 10.1199 15.3126 9.77417C15.6583 9.42847 16.1265 9.23319 16.6154 9.23076H33.2308V5.53845H16.6154C15.1465 5.53845 13.7378 6.12197 12.6991 7.16063C11.6604 8.19929 11.0769 9.60802 11.0769 11.0769V36.9231C11.0769 38.392 11.6604 39.8007 12.6991 40.8393C13.7378 41.878 15.1465 42.4615 16.6154 42.4615H36.9231V38.7692H16.6154C16.1258 38.7692 15.6562 38.5747 15.31 38.2285C14.9637 37.8823 14.7692 37.4127 14.7692 36.9231C14.7692 36.4334 14.9637 35.9639 15.31 35.6176C15.6562 35.2714 16.1258 35.0769 16.6154 35.0769Z" fill="#0F1A38"/>
</svg>
