<svg width="48" height="48" viewBox="0 0 48 48" fill="none" xmlns="http://www.w3.org/2000/svg">
<path fill-rule="evenodd" clip-rule="evenodd" d="M26.6122 5.53845C32.8892 11.8154 38.603 18.7661 38.603 27.8492C38.603 35.9077 32.0584 42.4523 24.0092 42.4615H23.9907C15.9415 42.4523 9.39685 35.9077 9.39685 27.8492C9.39685 18.7661 15.1107 11.8154 21.3876 5.53845L23.9999 8.15076C18.0738 14.0769 13.0892 20.1692 13.0892 27.8492C13.0892 33.8677 17.9815 38.7692 23.9999 38.7692C30.0184 38.7692 34.9107 33.8677 34.9107 27.8492C34.9107 20.1692 29.9261 14.0769 23.9999 8.15076L26.6122 5.53845ZM18.7716 32.9113C17.3872 31.5269 16.6084 29.65 16.606 27.6923H20.2983C20.3007 28.6708 20.6905 29.6085 21.3824 30.3004C22.0743 30.9923 23.0121 31.3821 23.9906 31.3846V35.0769C22.0328 35.0744 20.1559 34.2956 18.7716 32.9113Z" fill="#0F1A38"/>
</svg>
