<svg width="48" height="48" viewBox="0 0 48 48" fill="none" xmlns="http://www.w3.org/2000/svg">
<path fill-rule="evenodd" clip-rule="evenodd" d="M27.6924 9.23076C27.6924 11.27 26.0393 12.9231 24 12.9231C21.9608 12.9231 20.3077 11.27 20.3077 9.23076C20.3077 7.19155 21.9608 5.53845 24 5.53845C26.0393 5.53845 27.6924 7.19155 27.6924 9.23076ZM18.458 42.4476L18.4806 29.5246L22.1729 29.531L22.1503 42.4541L18.458 42.4476ZM25.8689 29.5247L25.8463 42.4478L29.5386 42.4542L29.5611 29.5385H33.2308V20.3077C33.2308 18.8389 32.6473 17.4301 31.6087 16.3915C30.57 15.3528 29.1613 14.7693 27.6924 14.7693H20.3077C18.8389 14.7693 17.4301 15.3528 16.3915 16.3915C15.3528 17.4301 14.7693 18.8389 14.7693 20.3077V29.5385H18.4616V20.3077C18.464 19.8189 18.6593 19.3507 19.005 19.005C19.3507 18.6593 19.8189 18.464 20.3077 18.4616H27.6924C28.1812 18.464 28.6494 18.6593 28.9951 19.005C29.3408 19.3507 29.5361 19.8189 29.5385 20.3077V29.5311L25.8689 29.5247Z" fill="#0F1A38"/>
</svg>
