<svg width="48" height="48" viewBox="0 0 48 48" fill="none" xmlns="http://www.w3.org/2000/svg">
<path fill-rule="evenodd" clip-rule="evenodd" d="M36.9231 16.6154V20.3077C34.9134 20.3092 32.9248 19.8989 31.08 19.1019C29.2351 18.3049 27.5732 17.1382 26.1969 15.6738C26.8088 18.0544 28.1945 20.164 30.1361 21.6712C32.0777 23.1784 34.4651 23.9976 36.9231 24V27.6923C34.9134 27.6939 32.9248 27.2835 31.08 26.4865C29.2351 25.6895 27.5732 24.5228 26.1969 23.0585C26.8088 25.439 28.1945 27.5487 30.1361 29.0558C32.0777 30.563 34.4651 31.3822 36.9231 31.3846V35.0769C34.2845 35.0754 31.6944 34.3675 29.4219 33.0267C27.1494 31.6859 25.2772 29.7611 24 27.4523C22.7227 29.7611 20.8506 31.6859 18.5781 33.0267C16.3055 34.3675 13.7155 35.0754 11.0769 35.0769V31.3846C13.5348 31.3822 15.9222 30.563 17.8639 29.0558C19.8055 27.5487 21.1911 25.439 21.8031 23.0585C20.4267 24.5228 18.7648 25.6895 16.92 26.4865C15.0752 27.2835 13.0865 27.6939 11.0769 27.6923V24C13.5348 23.9976 15.9222 23.1784 17.8639 21.6712C19.8055 20.164 21.1911 18.0544 21.8031 15.6738C20.4267 17.1382 18.7648 18.3049 16.92 19.1019C15.0752 19.8989 13.0865 20.3092 11.0769 20.3077V16.6154C14.0139 16.6129 16.83 15.4451 18.9068 13.3683C20.9836 11.2915 22.1514 8.47548 22.1538 5.53845H25.8461C25.8486 8.47548 27.0164 11.2915 29.0932 13.3683C31.17 15.4451 33.986 16.6129 36.9231 16.6154ZM22.1539 35.0769H25.8462V42.4615H22.1539V35.0769Z" fill="#0F1A38"/>
</svg>
