<svg width="48" height="48" viewBox="0 0 48 48" fill="none" xmlns="http://www.w3.org/2000/svg">
<path fill-rule="evenodd" clip-rule="evenodd" d="M19.2276 6.16654C29.0584 3.52654 39.203 9.38807 41.8338 19.2188C44.4738 29.0496 38.6122 39.1942 28.7815 41.8342C27.213 42.2555 25.5962 42.4696 23.9722 42.4712C19.499 42.4557 15.1834 40.8175 11.8268 37.8608C8.47013 34.904 6.30052 30.8296 5.72085 26.3941C5.14118 21.9586 6.19083 17.4634 8.6749 13.7433C11.159 10.0232 14.9086 7.33099 19.2276 6.16654ZM30.3969 29.1973C30.5468 32.0254 30.3108 34.8607 29.6953 37.625C33.1626 36.177 35.946 33.4596 37.4769 30.0281C34.9384 29.2712 32.8061 28.9481 30.3969 29.1973ZM26.7322 29.9635C26.8268 32.909 26.4497 35.8508 25.6153 38.6773C22.4899 39.031 19.3337 38.3674 16.6153 36.785C16.1999 36.545 15.803 36.2958 15.4153 36.0188C18.3138 33.5081 22.6061 31.1912 26.7322 29.9635ZM26.3723 26.2345C26.5749 27.4681 26.6951 28.7139 26.7322 29.9635L27.4245 29.7696C28.399 29.502 29.3927 29.3106 30.3969 29.1973C30.3381 27.9659 30.2056 26.739 29.9999 25.5235C32.9538 25.2004 35.5476 25.5973 38.5569 26.4927C38.9214 24.3923 38.8238 22.2377 38.2707 20.1788C37.7203 18.121 36.7316 16.2066 35.3722 14.5665C33.2122 16.8465 31.163 18.4896 28.4399 19.6804C28.0071 18.5247 27.511 17.3938 26.9538 16.2927C29.1599 15.3142 30.8492 13.9665 32.6769 12.0465C30.1524 10.2194 27.1163 9.23428 23.9999 9.23115C23.3798 9.23153 22.7603 9.26852 22.1445 9.34192C24.0519 11.4328 25.6695 13.7707 26.9538 16.2927C26.0322 16.6928 25.0818 17.023 24.1107 17.2804L23.3907 17.4558C22.0016 14.8581 20.2102 12.4966 18.083 10.4588C15.1913 11.7193 12.7829 13.8784 11.2153 16.6158C10.9781 17.0195 10.7624 17.4354 10.5692 17.8619C14.3353 18.5912 19.1999 18.4619 23.3907 17.4558C23.9839 18.5612 24.502 19.7053 24.9415 20.8804C22.3292 21.5635 19.043 22.0158 15.7107 22.0158C13.5876 22.0158 11.4461 21.8312 9.45224 21.4065C9.07714 23.5402 9.17482 25.7301 9.73839 27.8219C10.2912 29.9093 11.3 31.8482 12.6922 33.4988C16.5691 30.0004 22.0982 27.3881 26.3721 26.2343C26.2152 25.3113 26.0213 24.3791 25.7813 23.493C25.5413 22.6068 25.2644 21.7299 24.9413 20.8807L25.0706 20.8437C26.2214 20.5418 27.3478 20.153 28.4398 19.6807C28.7813 20.613 29.0767 21.5545 29.3444 22.5422C29.6121 23.5299 29.8244 24.5268 29.9998 25.5238C28.8051 25.6571 27.6228 25.8855 26.4644 26.2068L26.3723 26.2345Z" fill="#0F1A38"/>
</svg>
