<svg width="48" height="48" viewBox="0 0 48 48" fill="none" xmlns="http://www.w3.org/2000/svg">
<path fill-rule="evenodd" clip-rule="evenodd" d="M36.923 5.53845V11.3077C36.9251 12.6624 36.6284 14.001 36.054 15.2279C35.4796 16.4549 34.6417 17.5401 33.5999 18.4061L26.8799 24L23.9999 21.6L31.2368 15.5631C31.8618 15.0442 32.3645 14.3937 32.7092 13.6581C33.0539 12.9226 33.2319 12.12 33.2307 11.3077V9.23076H14.7691V11.3077C14.7679 12.12 14.946 12.9226 15.2906 13.6581C15.6353 14.3937 16.138 15.0442 16.763 15.5631L23.9999 21.6L21.1199 24L14.3999 18.4061C13.3581 17.5401 12.5202 16.4549 11.9458 15.2279C11.3714 14.001 11.0747 12.6624 11.0768 11.3077V5.53845H36.923ZM14.3999 29.5938L21.1199 24L23.9999 26.4L16.763 32.4369C16.138 32.9558 15.6353 33.6063 15.2906 34.3418C14.946 35.0774 14.7679 35.88 14.7691 36.6923V38.7692H33.2307V36.6923C33.2319 35.88 33.0539 35.0774 32.7092 34.3418C32.3645 33.6063 31.8618 32.9558 31.2368 32.4369L23.9999 26.4L26.8799 24L33.5999 29.5938C34.6417 30.4599 35.4796 31.5451 36.054 32.772C36.6284 33.999 36.9251 35.3375 36.923 36.6923V42.4615H11.0768V36.6923C11.0747 35.3375 11.3714 33.999 11.9458 32.772C12.5202 31.5451 13.3581 30.4599 14.3999 29.5938Z" fill="#0F1A38"/>
</svg>
