<svg width="48" height="48" viewBox="0 0 48 48" fill="none" xmlns="http://www.w3.org/2000/svg">
<path d="M35.0769 14.7048V6.52631H35.0307C35.0584 6.17554 35.0769 5.82477 35.0769 5.474H31.3845C31.3868 6.44427 31.1971 7.40541 30.8264 8.30207C30.4557 9.19874 29.9113 10.0132 29.2245 10.6986L25.8461 14.0678V5.60323H22.1538V14.0678L18.7753 10.6986C18.0885 10.0132 17.5441 9.19874 17.1734 8.30207C16.8027 7.40541 16.613 6.44427 16.6153 5.474H12.923C12.923 5.82477 12.9415 6.17554 12.9692 6.52631H12.923V14.7048V25.7817C12.9195 27.2357 13.2041 28.6761 13.7602 30.0196C14.3163 31.3631 15.1329 32.5831 16.163 33.6094L20.0861 37.5325C21.4047 38.8457 22.1484 40.6284 22.1538 42.4894V42.5263H25.8461C25.8444 41.5987 26.0262 40.6799 26.3811 39.8228C26.736 38.9658 27.2569 38.1874 27.9138 37.5325L31.8369 33.6094C32.8669 32.5831 33.6836 31.3631 34.2397 30.0196C34.7958 28.6761 35.0803 27.2357 35.0769 25.7817V14.7048ZM25.8461 22.2186C25.8444 21.291 26.0262 20.3722 26.3811 19.5152C26.736 18.6581 27.2569 17.8797 27.9138 17.2248L31.3845 13.754V15.6278C31.3878 16.5983 31.1986 17.5597 30.8279 18.4565C30.4571 19.3533 29.9121 20.1677 29.2245 20.8525L25.8461 24.2217V22.2186ZM20.0861 17.2248C21.4047 18.538 22.1484 20.3207 22.1538 22.1817V24.2217L18.7753 20.8525C18.0877 20.1677 17.5428 19.3533 17.172 18.4565C16.8012 17.5597 16.612 16.5983 16.6153 15.6278V13.754L20.0861 17.2248ZM18.7753 31.0063C18.0885 30.3209 17.5441 29.5064 17.1734 28.6098C16.8027 27.7131 16.613 26.752 16.6153 25.7817V23.9078L20.0861 27.3786C21.4047 28.6918 22.1484 30.4746 22.1538 32.3355V34.3755L18.7753 31.0063ZM29.2245 31.0063L25.8461 34.3755V32.3725C25.8444 31.4448 26.0262 30.5261 26.3811 29.669C26.736 28.8119 27.2569 28.0335 27.9138 27.3786L31.3845 23.9078V25.7817C31.3868 26.752 31.1971 27.7131 30.8264 28.6098C30.4557 29.5064 29.9113 30.3209 29.2245 31.0063Z" fill="#0F1A38"/>
</svg>
