<svg width="48" height="48" viewBox="0 0 48 48" fill="none" xmlns="http://www.w3.org/2000/svg">
<path fill-rule="evenodd" clip-rule="evenodd" d="M23.9999 9.23052C25.9402 9.22432 27.8623 9.60385 29.6545 10.3471C31.4468 11.0903 33.0735 12.1823 34.4399 13.5597L37.0522 10.9474C35.3386 9.23262 33.3039 7.87228 31.0643 6.94416C28.8247 6.01604 26.4242 5.53833 23.9999 5.53833C21.5757 5.53833 19.1751 6.01604 16.9356 6.94416C14.696 7.87228 12.6613 9.23262 10.9476 10.9474L13.5599 13.5597C14.9264 12.1823 16.5531 11.0903 18.3453 10.3471C20.1376 9.60385 22.0597 9.22432 23.9999 9.23052ZM23.9999 38.7691C22.0597 38.7753 20.1376 38.3958 18.3453 37.6526C16.5531 36.9094 14.9264 35.8173 13.5599 34.4399L10.9476 37.0522C12.6613 38.767 14.696 40.1273 16.9356 41.0555C19.1751 41.9836 21.5757 42.4613 23.9999 42.4613C26.4242 42.4613 28.8247 41.9836 31.0643 41.0555C33.3039 40.1273 35.3386 38.767 37.0522 37.0522L34.4399 34.4399C33.0735 35.8173 31.4468 36.9094 29.6545 37.6526C27.8623 38.3958 25.9402 38.7753 23.9999 38.7691ZM24 35.0664C21.0638 35.0664 18.2467 33.9055 16.1631 31.8367L18.7754 29.2244C20.1629 30.6066 22.0416 31.3826 24 31.3826C25.9585 31.3826 27.8371 30.6066 29.2246 29.2244L31.8369 31.8367C29.7533 33.9055 26.9362 35.0664 24 35.0664ZM16.1631 16.1628L18.7754 18.7751C20.1629 17.393 22.0416 16.617 24 16.617C25.9585 16.617 27.8371 17.393 29.2246 18.7751L31.8369 16.1628C27.5169 11.8521 20.4831 11.8521 16.1631 16.1628ZM27.6922 23.9999C27.6922 26.0391 26.0391 27.6922 23.9999 27.6922C21.9607 27.6922 20.3076 26.0391 20.3076 23.9999C20.3076 21.9607 21.9607 20.3076 23.9999 20.3076C26.0391 20.3076 27.6922 21.9607 27.6922 23.9999Z" fill="#0F1A38"/>
</svg>
