<svg width="48" height="48" viewBox="0 0 48 48" fill="none" xmlns="http://www.w3.org/2000/svg">
<path fill-rule="evenodd" clip-rule="evenodd" d="M24 5.53845C16.8739 5.53845 11.0769 11.3354 11.0769 18.4615C11.0779 20.9069 11.7722 23.302 13.0792 25.3688C14.3863 27.4356 16.2526 29.0894 18.4615 30.1385V35.0769H22.1539V27.6028H25.8461V18.4615H22.1538V27.6L20.9262 27.1661C18.8727 26.4409 17.1417 25.0131 16.0393 23.1349C14.9369 21.2568 14.534 19.0494 14.9019 16.9029C15.2698 14.7564 16.3847 12.8091 18.0497 11.4053C19.7146 10.0014 21.8222 9.23144 24 9.23144C26.1778 9.23144 28.2854 10.0014 29.9504 11.4053C31.6153 12.8091 32.7302 14.7564 33.0981 16.9029C33.466 19.0494 33.0631 21.2568 31.9607 23.1349C30.8583 25.0131 29.1273 26.4409 27.0739 27.1661L25.8462 27.6V35.0769H29.5385V30.1385C31.7475 29.0894 33.6137 27.4356 34.9208 25.3688C36.2279 23.302 36.9221 20.9069 36.9231 18.4615C36.9231 11.3354 31.1262 5.53845 24 5.53845ZM29.5385 38.7692H18.4616V42.4615H29.5385V38.7692Z" fill="#0F1A38"/>
</svg>
