<svg width="48" height="48" viewBox="0 0 48 48" fill="none" xmlns="http://www.w3.org/2000/svg">
<path fill-rule="evenodd" clip-rule="evenodd" d="M38.7692 21.3877V5.53845H42.4615V38.7692H38.7692V26.6123L31.3846 19.2277L21.0738 29.5385C20.731 29.8816 20.3237 30.1537 19.8754 30.339C19.4271 30.5244 18.9466 30.6193 18.4615 30.6185C17.9774 30.6169 17.4981 30.5229 17.0492 30.3415C16.373 30.0629 15.7951 29.5893 15.3891 28.9811C14.983 28.3728 14.7672 27.6575 14.7692 26.9261V17.3815L9.23077 11.8431V18.4615H5.53846V5.53845H18.4615V9.23076H11.8431L17.3815 14.7692C17.7243 15.1124 17.9961 15.5197 18.1814 15.9679C18.3667 16.4162 18.4619 16.8965 18.4615 17.3815V26.9261L28.7723 16.6154C29.4661 15.9243 30.4054 15.5363 31.3846 15.5363C32.3638 15.5363 33.3032 15.9243 33.9969 16.6154L38.7692 21.3877ZM38.7692 38.7692V42.4615H5.53846V38.7692L38.7692 38.7692Z" fill="#0F1A38"/>
</svg>
