<svg width="48" height="48" viewBox="0 0 48 48" fill="none" xmlns="http://www.w3.org/2000/svg">
<path fill-rule="evenodd" clip-rule="evenodd" d="M31.717 8.01219L38.1878 27.4245C38.5774 28.5944 38.7769 29.8191 38.7786 31.0522C38.7737 34.0904 37.5639 37.0027 35.4147 39.1502C33.2655 41.2977 30.3522 42.5051 27.3139 42.5076H27.2493L9.22163 42.406L9.24933 38.7137L27.2678 38.8153C28.503 38.8234 29.7223 38.5366 30.8245 37.9787C31.9266 37.4209 32.8797 36.6081 33.6046 35.6079C34.3294 34.6077 34.8052 33.449 34.9922 32.228C35.1793 31.0069 35.0723 29.7589 34.6801 28.5876L28.2093 9.1845H20.317V14.723H16.6247V9.1845C16.6247 8.20524 17.0137 7.26609 17.7062 6.57364C18.3986 5.8812 19.3378 5.49219 20.317 5.49219H28.2093C28.9845 5.49084 29.7405 5.73352 30.3701 6.18582C30.9996 6.63812 31.4709 7.2771 31.717 8.01219ZM22.8697 18.5558C22.6457 18.463 22.4056 18.4153 22.1632 18.4153H20.317L20.317 14.723H22.1632C23.6313 14.7254 25.0386 15.3097 26.0768 16.3478C27.1149 17.386 27.6992 18.7933 27.7016 20.2614V27.646V31.3383H24.3139L23.7786 30.8214C22.2045 29.325 20.1075 28.5036 17.9358 28.533C15.7642 28.5623 13.6901 29.44 12.157 30.9783L9.54471 28.3753C11.4068 26.5069 13.8319 25.3031 16.4459 24.9495C19.0599 24.5958 21.7177 25.112 24.0093 26.4183V20.2614C24.0093 20.019 23.9616 19.7789 23.8688 19.5549C23.776 19.3309 23.64 19.1274 23.4686 18.956C23.2972 18.7846 23.0936 18.6486 22.8697 18.5558Z" fill="#0F1A38"/>
</svg>
