<svg width="48" height="48" viewBox="0 0 48 48" fill="none" xmlns="http://www.w3.org/2000/svg">
<path d="M37.0523 28.763C36.7491 28.5744 36.4312 28.4108 36.1015 28.2737C35.1938 27.8875 34.2172 27.6896 33.2307 27.6922H32.6954L32.483 27.7107L32.28 27.7384L32.1138 27.7568L31.883 27.803L31.7538 27.8214L31.5046 27.8768L31.403 27.9045L31.1261 27.9784L31.0523 27.9968L30.7661 28.0984L30.72 28.1168L30.4154 28.2276L30.3877 28.2461L30.083 28.3845C30.0738 28.3845 30.0646 28.3845 30.0646 28.3937L29.7507 28.5507H29.7415C29.1215 28.8902 28.5527 29.316 28.0523 29.8153L21.8492 26.0953C22.2555 24.7279 22.2555 23.2719 21.8492 21.9045L28.0523 18.1845C29.2685 19.3808 30.8614 20.1192 32.5604 20.274C34.2593 20.4289 35.9595 19.9908 37.372 19.0341C38.7844 18.0774 39.8221 16.6611 40.3087 15.026C40.7952 13.3908 40.7006 11.6377 40.0409 10.0644C39.3812 8.49112 38.1972 7.19477 36.69 6.39562C35.1827 5.59647 33.4453 5.34383 31.7729 5.68062C30.1005 6.01742 28.5963 6.92287 27.5158 8.24312C26.4354 9.56337 25.8454 11.217 25.8461 12.923C25.8476 13.6324 25.9502 14.3379 26.1507 15.0184L19.9477 18.7384C18.9105 17.7169 17.5945 17.0248 16.1651 16.749C14.7358 16.4732 13.2568 16.626 11.914 17.1883C10.5712 17.7505 9.4246 18.6971 8.61816 19.909C7.81172 21.1209 7.38147 22.5442 7.38147 23.9999C7.38147 25.4556 7.81172 26.8789 8.61816 28.0908C9.4246 29.3027 10.5712 30.2493 11.914 30.8115C13.2568 31.3737 14.7358 31.5266 16.1651 31.2508C17.5945 30.975 18.9105 30.2829 19.9477 29.2614L26.1507 32.9814C26.1046 33.1291 26.0677 33.286 26.0307 33.443C26.0233 33.4604 26.0202 33.4794 26.0215 33.4984C26.003 33.563 25.9938 33.6368 25.9754 33.7014C25.9647 33.7406 25.9586 33.7809 25.9569 33.8214L25.9292 33.9968C25.9107 34.0984 25.9015 34.1907 25.8923 34.283C25.883 34.3753 25.883 34.3661 25.8738 34.403C25.8646 34.4399 25.8646 34.5599 25.8646 34.6337C25.857 34.6701 25.8539 34.7073 25.8554 34.7445C25.8461 34.8553 25.8461 34.9661 25.8461 35.0768C25.8466 36.7916 26.4438 38.4528 27.5354 39.7753C27.8394 40.1347 28.1729 40.4682 28.5323 40.7722C28.8055 40.9999 29.0956 41.2067 29.4 41.3907C30.3987 41.9964 31.5269 42.3566 32.6919 42.4417C33.8568 42.5267 35.0254 42.3342 36.1015 41.8799C36.4312 41.7428 36.7491 41.5792 37.0523 41.3907C38.1396 40.7342 39.039 39.808 39.6633 38.7018C40.2876 37.5956 40.6156 36.347 40.6156 35.0768C40.6156 33.8066 40.2876 32.558 39.6633 31.4518C39.039 30.3457 38.1396 29.4195 37.0523 28.763ZM33.2307 9.23067C33.961 9.23067 34.6749 9.44722 35.2821 9.85293C35.8893 10.2586 36.3625 10.8353 36.642 11.51C36.9214 12.1847 36.9946 12.9271 36.8521 13.6433C36.7096 14.3595 36.358 15.0175 35.8416 15.5338C35.3252 16.0502 34.6673 16.4019 33.9511 16.5443C33.2348 16.6868 32.4924 16.6137 31.8178 16.3342C31.1431 16.0548 30.5664 15.5815 30.1607 14.9743C29.755 14.3671 29.5384 13.6532 29.5384 12.923C29.5384 11.9437 29.9274 11.0046 30.6199 10.3121C31.3123 9.61968 32.2515 9.23067 33.2307 9.23067ZM14.7692 27.6922C14.0389 27.6922 13.3251 27.4757 12.7179 27.0699C12.1107 26.6642 11.6374 26.0876 11.358 25.4129C11.0785 24.7382 11.0054 23.9958 11.1478 23.2796C11.2903 22.5633 11.642 21.9054 12.1583 21.389C12.6747 20.8727 13.3326 20.521 14.0489 20.3785C14.7651 20.2361 15.5075 20.3092 16.1822 20.5886C16.8569 20.8681 17.4335 21.3414 17.8392 21.9486C18.245 22.5558 18.4615 23.2696 18.4615 23.9999C18.4615 24.9792 18.0725 25.9183 17.3801 26.6108C16.6876 27.3032 15.7485 27.6922 14.7692 27.6922ZM31.44 31.8461L31.8461 31.6522H31.8646L32.0492 31.5876H32.0861L32.2892 31.523L32.5107 31.4768H32.5477L32.723 31.4491H32.7877L32.9446 31.4307H33.2307C33.716 31.4294 34.1966 31.5241 34.6452 31.7092C35.0937 31.8944 35.5012 32.1663 35.8443 32.5094C36.1874 32.8525 36.4593 33.26 36.6445 33.7085C36.8296 34.1571 36.9243 34.6378 36.923 35.123C36.9232 35.702 36.7872 36.2729 36.526 36.7896C36.2648 37.3064 35.8858 37.7544 35.4195 38.0977C34.9531 38.4409 34.4127 38.6696 33.8416 38.7654C33.2706 38.8612 32.6851 38.8214 32.1323 38.6491H32.123L31.8738 38.5568C31.1785 38.2807 30.5831 37.8004 30.1662 37.1792C29.7493 36.5579 29.5304 35.8249 29.5384 35.0768V35.0122C29.5523 34.3646 29.735 33.7318 30.0685 33.1765C30.402 32.6212 30.8748 32.1626 31.44 31.8461Z" fill="#0F1A38"/>
</svg>
