<svg width="48" height="48" viewBox="0 0 48 48" fill="none" xmlns="http://www.w3.org/2000/svg">
<path fill-rule="evenodd" clip-rule="evenodd" d="M16.6155 5.53259C16.6155 9.59413 19.9386 12.9172 24.0001 12.9172C28.0617 12.9172 31.3847 9.59413 31.3847 5.53259H27.6924C27.6924 7.56336 26.0309 9.2249 24.0001 9.2249C21.9693 9.2249 20.3078 7.56336 20.3078 5.53259H16.6155ZM31.3847 42.4557C31.3847 38.3941 28.0617 35.0711 24.0001 35.0711C19.9386 35.0711 16.6155 38.3941 16.6155 42.4557H20.3078C20.3078 40.4249 21.9693 38.7634 24.0001 38.7634C26.0309 38.7634 27.6924 40.4249 27.6924 42.4557H31.3847ZM36.2769 37.3787C29.5385 30.6403 18.4616 30.548 11.7231 37.3787L9.13848 34.7941C13.1077 30.8249 18.3693 28.6095 24 28.6095C29.6308 28.6095 34.8923 30.8249 38.8616 34.7941L36.2769 37.3787ZM23.9999 19.3787C18.3692 19.3787 13.1076 17.1634 9.04609 13.1941L11.6307 10.6095C18.3692 17.348 29.4461 17.4403 36.1846 10.6095L38.7692 13.1941C34.8922 17.1634 29.6307 19.3787 23.9999 19.3787ZM5.53857 22.148H42.4617V25.8403H5.53857V22.148Z" fill="#0F1A38"/>
</svg>
