<svg width="48" height="48" viewBox="0 0 48 48" fill="none" xmlns="http://www.w3.org/2000/svg">
<path fill-rule="evenodd" clip-rule="evenodd" d="M13.1153 27.3823C14.9053 28.7816 17.1126 29.5407 19.3846 29.5385C21.439 29.5398 23.445 28.9152 25.1354 27.7477L27.7754 30.3877C25.3686 32.2349 22.4186 33.2345 19.3846 33.2308C11.7508 33.2308 5.53847 27.0185 5.53847 19.3846C5.53847 11.7508 11.7508 5.53845 19.3846 5.53845C27.0185 5.53845 33.2308 11.7508 33.2308 19.3846C33.2345 22.4184 32.235 25.3684 30.3879 27.7751L42.4617 39.8489L39.8494 42.4612L27.7755 30.3873C28.7621 29.6408 29.641 28.7618 30.3876 27.7753L27.7477 25.1354C29.0354 23.2635 29.6587 21.0141 29.5181 18.7464C29.3775 16.4787 28.481 14.3235 26.9719 12.6251C25.4629 10.9266 23.4282 9.78277 21.1928 9.37628C18.9574 8.96979 16.6503 9.32407 14.6398 10.3825C12.6294 11.441 11.0317 13.1426 10.1017 15.2156C9.17176 17.2886 8.96327 19.6135 9.50953 21.8189C10.0558 24.0243 11.3253 25.983 13.1153 27.3823Z" fill="#0F1A38"/>
</svg>
