<svg width="48" height="48" viewBox="0 0 48 48" fill="none" xmlns="http://www.w3.org/2000/svg">
<path fill-rule="evenodd" clip-rule="evenodd" d="M5.53857 24.4615C5.53857 14.28 13.8186 6 24.0001 6C34.1816 6 42.4616 14.28 42.4616 24.4615C42.4616 34.6431 34.1816 42.9231 24.0001 42.9231C13.8186 42.9231 5.53857 34.6431 5.53857 24.4615ZM9.23088 24.4615C9.23088 32.6031 15.8586 39.2308 24.0001 39.2308C32.1416 39.2308 38.7693 32.6031 38.7693 24.4615C38.7693 16.32 32.1416 9.69231 24.0001 9.69231C15.8586 9.69231 9.23088 16.32 9.23088 24.4615ZM23.0124 20.2243L20.4001 17.6212L13.5508 24.4612L20.4001 31.3012L23.0124 28.6981L18.7755 24.4612L23.0124 20.2243ZM33.4524 20.2243L30.8401 17.6212L24.0001 24.4612L30.8401 31.3012L33.4524 28.6981L29.2247 24.4612L33.4524 20.2243Z" fill="#0F1A38"/>
</svg>
