<svg width="48" height="48" viewBox="0 0 48 48" fill="none" xmlns="http://www.w3.org/2000/svg">
<path fill-rule="evenodd" clip-rule="evenodd" d="M18.4615 20.3077V5.53845H22.1539V20.3077H18.4615ZM18.4615 27.6923V24H22.1538V42.4615H18.4615V31.3846C16.5037 31.3821 14.6269 30.6033 13.2425 29.219C11.8582 27.8346 11.0793 25.9577 11.0769 24V16.6154H14.7692V24C14.7692 24.9792 15.1582 25.9184 15.8507 26.6108C16.5431 27.3033 17.4823 27.6923 18.4615 27.6923ZM29.5385 16.6153V9.23071H25.8462V16.6153C25.8462 17.5946 25.4572 18.5337 24.7647 19.2262C24.0723 19.9186 23.1331 20.3076 22.1539 20.3076V23.9999C24.1116 23.9975 25.9885 23.2187 27.3729 21.8343C28.7572 20.45 29.536 18.5731 29.5385 16.6153ZM32.1493 33.9954C32.8417 33.303 33.2307 32.3638 33.2307 31.3846H36.9231C36.9206 33.3423 36.1418 35.2192 34.7575 36.6036C33.3731 37.9879 31.4962 38.7667 29.5384 38.7692V42.4615H25.8461V27.6923H29.5384V35.0769C30.5177 35.0769 31.4569 34.6879 32.1493 33.9954Z" fill="#0F1A38"/>
</svg>
