<svg width="48" height="48" viewBox="0 0 48 48" fill="none" xmlns="http://www.w3.org/2000/svg">
<path fill-rule="evenodd" clip-rule="evenodd" d="M9.1108 5.96329L10.117 9.70175C11.4459 9.34593 12.8351 9.27466 14.1935 9.49258C15.5519 9.7105 16.849 10.2127 18 10.9664C15.8443 10.5939 13.6306 10.745 11.5455 11.4068C9.46037 12.0687 7.56481 13.2219 6.01849 14.7694L8.7508 17.511C9.72494 16.5397 10.8922 15.784 12.1771 15.2926C13.4619 14.8013 14.8356 14.5853 16.2093 14.6587C15.4831 14.9255 14.7819 15.256 14.1139 15.6464C12.5543 16.5407 11.1875 17.7354 10.0926 19.1614C8.99776 20.5874 8.19657 22.2164 7.73542 23.954L11.4831 24.9602C11.811 23.7128 12.3839 22.5432 13.1683 21.5194C13.9528 20.4956 14.9332 19.6382 16.0523 18.9971C17.8698 17.9473 19.9758 17.5074 22.0616 17.7417V9.24944C20.3635 7.6409 18.2815 6.4943 16.0143 5.91903C13.7472 5.34375 11.3704 5.35899 9.1108 5.96329ZM31.7723 14.6587C33.1492 14.5803 34.5271 14.7939 35.8157 15.2855C37.1042 15.777 38.2743 16.5355 39.2492 17.511L41.9815 14.7694C40.4352 13.2219 38.5396 12.0687 36.4545 11.4068C34.3694 10.745 32.1557 10.5939 30 10.9664C31.151 10.2127 32.4481 9.7105 33.8065 9.49258C35.165 9.27466 36.5541 9.34593 37.8831 9.70175L38.8892 5.96329C36.6296 5.35899 34.2528 5.34375 31.9857 5.91903C29.7185 6.4943 27.6366 7.6409 25.9384 9.24944V17.751C28.2727 17.4874 30.6241 18.07 32.5652 19.3929C34.5064 20.7158 35.9086 22.6912 36.5169 24.9602L40.2646 23.954C39.6955 21.8385 38.6273 19.8903 37.1497 18.2729C35.672 16.6555 33.828 15.4161 31.7723 14.6587ZM22.0615 42.508V17.7418C22.5415 17.7972 25.4584 17.7972 25.9384 17.7511V42.508H22.0615Z" fill="#0F1A38"/>
</svg>
