<svg width="48" height="48" viewBox="0 0 48 48" fill="none" xmlns="http://www.w3.org/2000/svg">
<path fill-rule="evenodd" clip-rule="evenodd" d="M38.7692 22.1447H35.0769C35.0769 15.0278 29.28 9.2216 22.1538 9.2216V5.5293C31.32 5.5293 38.7692 12.9878 38.7692 22.1447ZM22.1538 9.22168V12.914C15.0277 12.914 9.23076 18.7201 9.23076 25.8371H5.53845C5.53845 16.6801 12.9877 9.22168 22.1538 9.22168ZM9.23071 25.8553H12.923C12.923 32.9723 18.7199 38.7784 25.8461 38.7784V42.4707C16.6799 42.4707 9.23071 35.0123 9.23071 25.8553ZM38.7693 22.163C38.7693 29.2799 32.9723 35.086 25.8462 35.086V38.7784C35.0123 38.7784 42.4616 31.3199 42.4616 22.163H38.7693Z" fill="#0F1A38"/>
</svg>
