<svg width="48" height="48" viewBox="0 0 48 48" fill="none" xmlns="http://www.w3.org/2000/svg">
<path fill-rule="evenodd" clip-rule="evenodd" d="M26.6031 37.2369L33.2215 30.6185L35.8338 33.2308L29.2154 39.8492L26.6031 42.4615L17.3723 33.2308L14.7692 35.8338L8.15076 29.2154L5.53845 26.6031L14.7692 17.3815L17.3815 19.9846L10.7631 26.6031L17.3815 33.2215L19.9846 30.6185L26.6031 37.2369ZM21.3877 10.7631L14.7692 17.3815L12.1569 14.7692L21.3877 5.53845L30.6185 14.7692L28.0061 17.3815L21.3877 10.7631ZM30.6185 28.006L37.237 21.3875L30.6185 14.769L33.2308 12.1567L39.8493 18.7752L42.4616 21.3875L33.2308 30.6183L30.6185 28.006Z" fill="#0F1A38"/>
</svg>
