<svg width="48" height="48" viewBox="0 0 48 48" fill="none" xmlns="http://www.w3.org/2000/svg">
<path fill-rule="evenodd" clip-rule="evenodd" d="M42.4615 5.53845V18.4615H38.7692V11.8431L33.2308 17.3815V26.9261C33.2328 27.6575 33.017 28.3728 32.6109 28.9811C32.2049 29.5893 31.6269 30.0629 30.9508 30.3415C30.5019 30.5229 30.0226 30.6169 29.5385 30.6185C29.0534 30.6193 28.5729 30.5244 28.1246 30.339C27.6763 30.1537 27.269 29.8816 26.9261 29.5385L16.6154 19.2277L9.23077 26.6123V38.7692H5.53846V5.53845H9.23077V21.3877L14.0031 16.6154C14.6968 15.9243 15.6362 15.5363 16.6154 15.5363C17.5946 15.5363 18.5339 15.9243 19.2277 16.6154L29.5385 26.9261V17.3815C29.5381 16.8965 29.6333 16.4162 29.8186 15.9679C30.0039 15.5197 30.2757 15.1124 30.6185 14.7692L36.1569 9.23076H29.5385V5.53845H42.4615ZM9.23078 38.7692H42.4615V42.4615H9.23078V38.7692Z" fill="#0F1A38"/>
</svg>
