<svg width="48" height="48" viewBox="0 0 48 48" fill="none" xmlns="http://www.w3.org/2000/svg">
<path fill-rule="evenodd" clip-rule="evenodd" d="M35.0769 38.7692V20.3077H38.7692V42.4615H9.23071V20.3077H12.923V16.6154C12.923 13.6776 14.09 10.8601 16.1674 8.78281C18.2447 6.70548 21.0622 5.53845 23.9999 5.53845C26.9377 5.53845 29.7552 6.70548 31.8325 8.78281C33.9098 10.8601 35.0769 13.6776 35.0769 16.6154V20.3077H31.3846V16.6154C31.3846 14.6569 30.6065 12.7785 29.2217 11.3937C27.8368 10.0088 25.9585 9.23076 23.9999 9.23076C22.0414 9.23076 20.1631 10.0088 18.7782 11.3937C17.3933 12.7785 16.6153 14.6569 16.6153 16.6154V20.3077H31.3846V24H12.923V38.7692H35.0769ZM27.6922 31.3846C27.6922 33.4238 26.0391 35.0769 23.9999 35.0769C21.9607 35.0769 20.3076 33.4238 20.3076 31.3846C20.3076 29.3454 21.9607 27.6923 23.9999 27.6923C26.0391 27.6923 27.6922 29.3454 27.6922 31.3846Z" fill="#0F1A38"/>
</svg>
