<svg width="48" height="48" viewBox="0 0 48 48" fill="none" xmlns="http://www.w3.org/2000/svg">
<path fill-rule="evenodd" clip-rule="evenodd" d="M22.1537 5.53259H25.846V12.9172H22.1537V5.53259ZM31.3845 23.9941C31.3845 19.9326 28.0614 16.6095 23.9999 16.6095C19.9384 16.6095 16.6153 19.9326 16.6153 23.9941H31.3845ZM5.53835 23.9941H16.6153V27.6864H5.53835V23.9941ZM31.3845 23.9941H42.4614V27.6864H31.3845L31.3845 31.3787H16.6153V27.6864H31.3845L31.3845 23.9941ZM16.6153 31.3788H5.53835V35.0711H16.6153V31.3788ZM16.6153 35.071V38.7634H31.3845L31.3845 42.4556H42.4614V38.7633H31.3845V35.0711H42.4614V31.3788H31.3845L31.3845 35.071H16.6153ZM14.8423 17.4628L17.4532 14.8519L12.2315 9.63027L9.62068 12.2411L14.8423 17.4628ZM35.729 9.63342L38.3398 12.2443L33.1182 17.4659L30.5073 14.8551L35.729 9.63342ZM16.6153 38.7633H5.53835V42.4556H16.6153V38.7633Z" fill="#0F1A38"/>
</svg>
