<svg width="48" height="48" viewBox="0 0 48 48" fill="none" xmlns="http://www.w3.org/2000/svg">
<path fill-rule="evenodd" clip-rule="evenodd" d="M13.8462 5.53845H34.1539V9.23071H37.8461V42.4615H10.1538V9.23071H13.8461V38.7692H34.1538V9.23076H13.8462V5.53845ZM24.0001 18.4615C25.7844 18.4615 27.2308 17.0151 27.2308 15.2308C27.2308 13.4465 25.7844 12 24.0001 12C22.2158 12 20.7693 13.4465 20.7693 15.2308C20.7693 17.0151 22.2158 18.4615 24.0001 18.4615ZM17.8599 32.718C17.0485 31.5036 16.6154 30.0759 16.6154 28.6153C16.6178 26.6576 17.3966 24.7807 18.781 23.3963C20.1653 22.012 22.0422 21.2332 24 21.2307C25.4605 21.2307 26.8882 21.6638 28.1026 22.4752C29.317 23.2867 30.2635 24.44 30.8225 25.7894C31.3814 27.1387 31.5276 28.6235 31.2427 30.056C30.9577 31.4885 30.2544 32.8043 29.2217 33.8371C28.1889 34.8698 26.8731 35.5731 25.4406 35.8581C24.0082 36.143 22.5234 35.9968 21.174 35.4378C19.8246 34.8789 18.6713 33.9324 17.8599 32.718ZM26.0513 25.5453C25.4441 25.1396 24.7302 24.923 24 24.923C23.0207 24.923 22.0816 25.312 21.3891 26.0045C20.6967 26.6969 20.3077 27.6361 20.3077 28.6153C20.3077 29.3456 20.5242 30.0595 20.9299 30.6667C21.3356 31.2739 21.9123 31.7471 22.587 32.0266C23.2617 32.306 24.0041 32.3792 24.7203 32.2367C25.4365 32.0942 26.0944 31.7426 26.6108 31.2262C27.1272 30.7098 27.4789 30.0519 27.6213 29.3357C27.7638 28.6194 27.6907 27.877 27.4112 27.2023C27.1317 26.5277 26.6585 25.951 26.0513 25.5453Z" fill="#0F1A38"/>
</svg>
