<svg width="48" height="48" viewBox="0 0 48 48" fill="none" xmlns="http://www.w3.org/2000/svg">
<path fill-rule="evenodd" clip-rule="evenodd" d="M22.6985 5.5293L25.3016 8.1416C23.8859 9.56061 22.9146 11.3615 22.5064 13.3238C22.0982 15.2862 22.2708 17.325 23.0031 19.1908L19.9015 21.3047C17.5015 16.1354 18.4338 9.78468 22.6985 5.5293ZM36.1385 10.0154V13.7077C34.135 13.7095 32.1754 14.2955 30.4998 15.394C28.8242 16.4925 27.5054 18.0557 26.7046 19.8923L23.0031 19.1908C23.992 16.502 25.7814 14.181 28.13 12.5404C30.4786 10.8998 33.2736 10.0186 36.1385 10.0154ZM14.4859 15.8019C15.0041 17.0507 15.7656 18.1838 16.7261 19.1354C17.6363 20.0547 18.7142 20.791 19.9015 21.3046L19.1815 24.997C16.496 24.0043 14.1784 22.2137 12.5399 19.8658C10.9014 17.5178 10.0205 14.7247 10.0154 11.8616H13.7077C13.7031 13.2136 13.9677 14.5531 14.4859 15.8019ZM33.5141 32.1984C32.9959 30.9496 32.2343 29.8164 31.2738 28.8648C30.3636 27.9456 29.2857 27.2092 28.0984 26.6956L28.8184 23.0033C31.504 23.996 33.8216 25.7865 35.4601 28.1345C37.0985 30.4825 37.9795 33.2755 37.9846 36.1387H34.2923C34.2968 34.7866 34.0323 33.4472 33.5141 32.1984ZM19.1354 31.2739C18.1838 32.2344 17.0506 32.9959 15.8018 33.5142C14.553 34.0324 13.2136 34.2969 11.8615 34.2924V37.9847C14.7247 37.9795 17.5177 37.0986 19.8657 35.4601C22.2137 33.8217 24.0042 31.5041 24.9969 28.8185L21.3046 28.0985L21.3046 28.0986L19.1815 24.9971C15.4892 26.4371 11.1138 25.6709 8.14151 22.6986L5.52921 25.3017C9.78458 29.5663 16.1353 30.4986 21.3046 28.0986C20.791 29.2859 20.0546 30.3637 19.1354 31.2739ZM22.6984 39.8588L25.3015 42.4711C29.5661 38.2157 30.4985 31.8649 28.0984 26.6957L24.9969 28.8188C26.4369 32.5111 25.6707 36.8864 22.6984 39.8588ZM42.4707 22.6985L39.8584 25.3016C36.8861 22.3293 32.5107 21.5631 28.8184 23.0031L26.7046 19.8924C31.8738 17.5016 38.2153 18.4339 42.4707 22.6985Z" fill="#0F1A38"/>
</svg>
