<svg width="48" height="48" viewBox="0 0 48 48" fill="none" xmlns="http://www.w3.org/2000/svg">
<path fill-rule="evenodd" clip-rule="evenodd" d="M25.8461 5.53845H22.1538V12.9231H25.8461V5.53845ZM42.4615 22.1538H35.0769V25.8461H42.4615V22.1538ZM5.53845 22.1538H12.9231V25.8461H5.53845V22.1538ZM25.8461 35.0769H22.1538V42.4615H25.8461V35.0769ZM30.5184 33.1344L33.1293 30.5235L38.351 35.7453L35.7401 38.3561L30.5184 33.1344ZM12.2591 9.64378L9.64822 12.2546L14.8699 17.4763L17.4808 14.8655L12.2591 9.64378ZM9.64319 35.7408L14.8649 30.5191L17.4758 33.13L12.254 38.3517L9.64319 35.7408ZM35.7452 9.64841L30.5235 14.8701L33.1343 17.481L38.356 12.2593L35.7452 9.64841ZM19.8973 17.8599C21.1117 17.0485 22.5394 16.6154 23.9999 16.6154C25.9577 16.6178 27.8346 17.3966 29.2189 18.781C30.6033 20.1653 31.3821 22.0422 31.3845 24C31.3845 25.4605 30.9514 26.8882 30.14 28.1026C29.3286 29.317 28.1753 30.2635 26.8259 30.8225C25.4765 31.3814 23.9917 31.5276 22.5593 31.2427C21.1268 30.9577 19.811 30.2544 18.7782 29.2217C17.7455 28.1889 17.0422 26.8731 16.7572 25.4406C16.4723 24.0082 16.6185 22.5234 17.1774 21.174C17.7364 19.8246 18.6829 18.6713 19.8973 17.8599ZM21.9486 27.07C22.5558 27.4757 23.2697 27.6923 23.9999 27.6923C24.9792 27.6923 25.9184 27.3033 26.6108 26.6108C27.3032 25.9184 27.6922 24.9792 27.6922 24C27.6922 23.2697 27.4757 22.5558 27.07 21.9486C26.6643 21.3414 26.0876 20.8682 25.4129 20.5887C24.7382 20.3093 23.9958 20.2361 23.2796 20.3786C22.5634 20.5211 21.9055 20.8727 21.3891 21.3891C20.8727 21.9055 20.521 22.5634 20.3786 23.2796C20.2361 23.9959 20.3092 24.7383 20.5887 25.4129C20.8682 26.0876 21.3414 26.6643 21.9486 27.07Z" fill="#0F1A38"/>
</svg>
