<svg width="48" height="48" viewBox="0 0 48 48" fill="none" xmlns="http://www.w3.org/2000/svg">
<path fill-rule="evenodd" clip-rule="evenodd" d="M6 24.4615C6 14.28 14.28 6 24.4615 6C34.6431 6 42.9231 14.28 42.9231 24.4615C42.9231 34.6431 34.6431 42.9231 24.4615 42.9231C14.28 42.9231 6 34.6431 6 24.4615ZM9.69231 24.4615C9.69231 32.6031 16.32 39.2308 24.4615 39.2308C32.6031 39.2308 39.2308 32.6031 39.2308 24.4615C39.2308 16.32 32.6031 9.69231 24.4615 9.69231C16.32 9.69231 9.69231 16.32 9.69231 24.4615ZM34.1261 24.4619L17.0676 32.9911L17.0953 15.9327L34.1261 24.4619ZM25.8738 24.4619L20.7784 21.9142V27.0096L25.8738 24.4619Z" fill="#0F1A38"/>
</svg>
