<svg width="48" height="48" viewBox="0 0 48 48" fill="none" xmlns="http://www.w3.org/2000/svg">
<path fill-rule="evenodd" clip-rule="evenodd" d="M42.3139 26.9911L41.3539 30.5542L37.68 29.5665C37.1705 30.8125 36.4936 31.9832 35.6679 33.0463L38.3631 35.7415L35.7508 38.3538L33.0554 35.6584C34.0312 34.8996 34.9086 34.0221 35.6675 33.0464L33.0277 30.4065C34.6403 28.133 35.3398 25.3364 34.9873 22.5714C34.6349 19.8063 33.2563 17.2747 31.1249 15.4784C28.9934 13.682 26.2648 12.7522 23.4801 12.8733C20.6953 12.9943 18.0576 14.1574 16.0901 16.1319C14.1226 18.1064 12.9689 20.7481 12.8577 23.5333C12.7465 26.3185 13.686 29.0438 15.4898 31.1689C17.2937 33.2939 19.8302 34.6635 22.5965 35.0062C25.3627 35.3489 28.1568 34.6395 30.4246 33.0188L33.0554 35.6588C31.9955 36.4845 30.8278 37.1616 29.5846 37.6711L30.5723 41.3542L27 42.305L26.0215 38.6311C25.3517 38.7238 24.6762 38.7701 24 38.7696C23.3299 38.7701 22.6606 38.7238 21.9969 38.6311L21.0092 42.3142L17.4462 41.3542L18.4339 37.6804C17.1878 37.1708 16.017 36.4938 14.9538 35.6681L12.2585 38.3634L9.64616 35.7511L12.3415 33.0558C11.5158 31.9959 10.8388 30.8282 10.3292 29.585L6.64616 30.5727L5.69539 27.0004L9.36923 26.0219C9.27657 25.3521 9.2303 24.6766 9.23077 24.0004C9.23029 23.3303 9.27656 22.661 9.36923 21.9973L5.68616 21.0096L6.64616 17.4465L10.32 18.4342C10.8296 17.1882 11.5066 16.0174 12.3323 14.9542L9.63693 12.2588L12.2492 9.64652L14.9446 12.3419C16.0045 11.5162 17.1722 10.8392 18.4154 10.3296L17.4277 6.64652L21 5.69575L21.9785 9.3696C22.6483 9.27693 23.3238 9.23067 24 9.23114C24.6701 9.23066 25.3394 9.27693 26.0031 9.3696L26.9908 5.68652L30.5539 6.64652L29.5662 10.3204C30.8122 10.8299 31.983 11.5069 33.0462 12.3327L35.7415 9.63729L38.3539 12.2496L35.6585 14.945C36.4842 16.0049 37.1612 17.1726 37.6708 18.4158L41.3539 17.4281L42.3046 21.0004L38.6308 21.9788C38.7234 22.6487 38.7697 23.3241 38.7692 24.0004C38.7697 24.6705 38.7234 25.3398 38.6308 26.0034L42.3139 26.9911Z" fill="#0F1A38"/>
</svg>
