<svg width="48" height="48" viewBox="0 0 48 48" fill="none" xmlns="http://www.w3.org/2000/svg">
<path fill-rule="evenodd" clip-rule="evenodd" d="M21.1309 24.4615L11.9001 15.2308L21.1309 6L23.7155 8.58462L18.9155 13.3846H30.1769C32.6692 13.3846 34.9769 14.3077 36.7308 16.0615C40.3308 19.6615 40.3308 25.5692 36.7308 29.1692L34.1462 26.5846C36.2692 24.4615 36.2692 20.9538 34.1462 18.7385C33.0385 17.6308 31.6539 17.0769 30.1769 17.0769H18.9155L23.7155 21.8769L21.1309 24.4615ZM23.7153 27.0462L28.5153 31.8462H17.1615C15.6846 31.8462 14.3 31.2 13.2846 30.1846C11.1615 27.9692 11.1615 24.4615 13.2846 22.3385L10.7 19.7538C7.1 23.3538 7.1 29.2615 10.7 32.8615C12.4538 34.6154 14.7615 35.5385 17.2538 35.5385H28.5153L23.7153 40.3385L26.2999 42.9231L35.5307 33.6923L26.2999 24.4615L23.7153 27.0462Z" fill="#0F1A38"/>
</svg>
