<svg width="48" height="48" viewBox="0 0 48 48" fill="none" xmlns="http://www.w3.org/2000/svg">
<path d="M36.8308 11.0769C36.8308 9.60802 36.2473 8.19929 35.2086 7.16063C34.1699 6.12197 32.7612 5.53845 31.2923 5.53845H14.6769V9.23076H31.2923C31.7812 9.23319 32.2494 9.42847 32.5951 9.77417C32.9408 10.1199 33.136 10.588 33.1385 11.0769V31.6984C32.5452 31.4905 31.921 31.3844 31.2923 31.3846H14.6769V9.23076H10.9846V35.0769H31.2923C31.7819 35.0769 32.2515 35.2714 32.5977 35.6176C32.944 35.9639 33.1385 36.4334 33.1385 36.9231C33.1385 37.4127 32.944 37.8823 32.5977 38.2285C32.2515 38.5747 31.7819 38.7692 31.2923 38.7692H10.9846V42.4615H31.2923C32.7612 42.4615 34.1699 41.878 35.2086 40.8393C36.2473 39.8007 36.8308 38.392 36.8308 36.9231V11.0769Z" fill="#0F1A38"/>
</svg>
