<svg width="48" height="48" viewBox="0 0 48 48" fill="none" xmlns="http://www.w3.org/2000/svg">
<path fill-rule="evenodd" clip-rule="evenodd" d="M35.0769 13.8463C35.0793 14.8049 34.8647 15.7517 34.4492 16.6156H38.7692V42.4617H9.23071V16.6156H12.0738C11.4181 15.4957 11.0739 14.2209 11.0769 12.9232C11.0782 11.3426 11.5867 9.80413 12.5276 8.53402C13.4685 7.26391 14.792 6.3292 16.3037 5.86733C17.8153 5.40547 19.4353 5.44083 20.9253 5.9682C22.4154 6.49558 23.6969 7.48714 24.5815 8.79709C25.5322 8.03735 26.6781 7.56154 27.8873 7.42442C29.0966 7.28731 30.3199 7.49448 31.4166 8.02207C32.5133 8.54967 33.4386 9.37624 34.0862 10.4066C34.7337 11.437 35.0771 12.6293 35.0769 13.8463ZM26.3173 12.3011C26.0119 12.7553 25.8479 13.2898 25.8461 13.8371V16.6156H28.6153C29.1626 16.6156 29.6977 16.4534 30.1529 16.1495C30.6081 15.8456 30.963 15.4137 31.1729 14.9082C31.3827 14.4027 31.4381 13.8464 31.332 13.3095C31.2259 12.7725 30.9631 12.2791 30.5767 11.8914C30.1903 11.5038 29.6978 11.2393 29.1612 11.1314C28.6246 11.0235 28.0681 11.0771 27.562 11.2852C27.0558 11.4934 26.6227 11.8469 26.3173 12.3011ZM21.0723 10.3124C20.3799 9.61995 19.4407 9.23094 18.4615 9.23094V9.22171C17.4822 9.22171 16.5431 9.61072 15.8506 10.3032C15.1582 10.9956 14.7692 11.9348 14.7692 12.914C14.7692 13.8933 15.1582 14.8324 15.8506 15.5249C16.5431 16.2173 17.4822 16.6063 18.4615 16.6063H22.1538V13.8371V12.9232C22.1538 11.944 21.7648 11.0048 21.0723 10.3124ZM25.8461 38.7694H35.0769V20.3079H25.8461V38.7694ZM25.8369 20.3356V20.3079V16.6432H22.1446V20.3077H22.1538V20.3354H22.1445L22.1446 20.3077L12.923 20.3079V38.7694H22.1538L22.1538 20.3354L25.8369 20.3356Z" fill="#0F1A38"/>
</svg>
