<svg width="48" height="48" viewBox="0 0 48 48" fill="none" xmlns="http://www.w3.org/2000/svg">
<path d="M35.6584 33.0554L33.2308 30.6185L25.8461 23.2338V9.34153C33.12 10.2554 38.7692 16.4769 38.7692 24C38.7716 27.281 37.6766 30.4685 35.6584 33.0554L38.2892 35.6769C40.99 32.3851 42.4647 28.258 42.4615 24C42.4615 13.8185 34.1815 5.53845 24 5.53845C13.8185 5.53845 5.53845 13.8185 5.53845 24C5.53845 34.1815 13.8185 42.4615 24 42.4615C28.258 42.4647 32.3851 40.99 35.6769 38.2892L33.0554 35.6584C30.4685 37.6766 27.281 38.7716 24 38.7692C15.8585 38.7692 9.23076 32.1415 9.23076 24C9.2284 20.719 10.3234 17.5315 12.3415 14.9446L30.0831 32.6861L30.6185 33.2308L33.0554 35.6584C34.026 34.9002 34.9002 34.026 35.6584 33.0554ZM22.1538 19.5415L14.9446 12.3415C17.0334 10.7101 19.5243 9.67355 22.1538 9.34153V19.5415Z" fill="#0F1A38"/>
</svg>
