<svg width="48" height="48" viewBox="0 0 48 48" fill="none" xmlns="http://www.w3.org/2000/svg">
<path d="M30.4616 5.53845H17.5385C16.3144 5.53845 15.1405 6.02471 14.2749 6.89027C13.4094 7.75582 12.9231 8.92976 12.9231 10.1538V37.8461C12.9231 39.0702 13.4094 40.2442 14.2749 41.1097C15.1405 41.9753 16.3144 42.4615 17.5385 42.4615H31.3846V38.7969H35.0769V10.1538C35.0769 8.92976 34.5907 7.75582 33.7251 6.89027C32.8596 6.02471 31.6856 5.53845 30.4616 5.53845ZM31.3846 38.7692H17.5385C17.2937 38.7692 17.0589 38.672 16.8858 38.4989C16.7127 38.3257 16.6154 38.091 16.6154 37.8461V10.1538C16.6154 9.90902 16.7127 9.67423 16.8858 9.50112C17.0589 9.32801 17.2937 9.23076 17.5385 9.23076H18.6185C18.8106 9.77015 19.1647 10.237 19.6323 10.5675C20.0999 10.8979 20.6582 11.0759 21.2308 11.0769H26.7692C27.3418 11.0759 27.9001 10.8979 28.3677 10.5675C28.8353 10.237 29.1894 9.77015 29.3816 9.23076H30.4616C30.7064 9.23076 30.9412 9.32801 31.1143 9.50112C31.2874 9.67423 31.3846 9.90902 31.3846 10.1538V38.7692Z" fill="#0F1A38"/>
</svg>
