<svg width="48" height="48" viewBox="0 0 48 48" fill="none" xmlns="http://www.w3.org/2000/svg">
<path fill-rule="evenodd" clip-rule="evenodd" d="M36.4246 16.0246L39.0831 13.3754C41.2877 16.4789 42.4688 20.1931 42.4615 24C42.4615 34.1815 34.1815 42.4615 24 42.4615C13.8185 42.4615 5.53845 34.1815 5.53845 24C5.53845 13.8185 13.8185 5.53845 24 5.53845C28.7081 5.5363 33.2377 7.34021 36.6554 10.5785L34.0525 13.1906C34.9605 14.0304 35.7577 14.983 36.4246 16.0246L22.1538 30.3043L15.3138 23.455L17.9169 20.852L22.1538 25.0797L34.0525 13.1906C31.3246 10.6445 27.7314 9.2292 24 9.23076C15.8585 9.23076 9.23076 15.8585 9.23076 24C9.23076 32.1415 15.8585 38.7692 24 38.7692C32.1415 38.7692 38.7692 32.1415 38.7692 24C38.7731 21.1711 37.9589 18.4013 36.4246 16.0246Z" fill="#0F1A38"/>
</svg>
