<svg width="48" height="48" viewBox="0 0 48 48" fill="none" xmlns="http://www.w3.org/2000/svg">
<path fill-rule="evenodd" clip-rule="evenodd" d="M21.4917 11.9578C20.72 13.0502 20.3063 14.3551 20.3077 15.6926V22.1539H27.6923V25.8462H20.3076V22.1542H16.6154L16.6154 25.8462H11.0769V22.1539H16.6154L16.6154 15.6926C16.6186 13.5939 17.2714 11.5477 18.4842 9.83491C19.697 8.12213 21.4103 6.82682 23.3888 6.12685C25.3673 5.42688 27.514 5.3566 29.5341 5.92564C31.5542 6.49468 33.3485 7.67515 34.6708 9.30492L31.8 11.6311C30.9607 10.5898 29.8189 9.83456 28.5322 9.46965C27.2454 9.10474 25.8772 9.14812 24.6161 9.59378C23.3551 10.0394 22.2634 10.8654 21.4917 11.9578ZM20.3077 33.2308C20.3084 35.2282 19.6605 37.1718 18.4615 38.7693H36.9231V42.4616H11.0769V38.7693C12.5458 38.7693 13.9546 38.1858 14.9932 37.1471C16.0319 36.1085 16.6154 34.6997 16.6154 33.2308V25.8462H20.3077V33.2308Z" fill="#0F1A38"/>
</svg>
