<svg width="48" height="48" viewBox="0 0 48 48" fill="none" xmlns="http://www.w3.org/2000/svg">
<path fill-rule="evenodd" clip-rule="evenodd" d="M35.6584 14.9446C37.6766 17.5315 38.7716 20.719 38.7692 24C38.7692 32.1415 32.1415 38.7692 24 38.7692C15.8585 38.7692 9.23076 32.1415 9.23076 24C9.23076 15.8585 15.8585 9.23076 24 9.23076C27.2809 9.2284 30.4684 10.3234 33.0553 12.3415L30.4154 14.9722C28.1498 13.3616 25.3617 12.6609 22.6038 13.009C19.8459 13.357 17.3194 14.7285 15.525 16.8516C13.7306 18.9746 12.7993 21.6943 12.9156 24.4717C13.0319 27.249 14.1873 29.8813 16.153 31.8469C18.1186 33.8126 20.7509 34.968 23.5282 35.0843C26.3056 35.2006 29.0253 34.2693 31.1483 32.4749C33.2714 30.6805 34.6428 28.154 34.9909 25.3961C35.339 22.6382 34.6383 19.8501 33.0277 17.5845L35.6585 14.9445C34.9002 13.9739 34.026 13.0997 33.0555 12.3415L35.6769 9.71076C32.3851 7.00995 28.258 5.53528 24 5.53846C13.8184 5.53846 5.53845 13.8185 5.53845 24C5.53845 34.1815 13.8184 42.4615 24 42.4615C34.1815 42.4615 42.4615 34.1815 42.4615 24C42.4647 19.742 40.99 15.6149 38.2892 12.3231L42.4616 8.15082L39.8493 5.53851L35.6769 9.71082C36.6288 10.4965 37.5035 11.3712 38.2892 12.3231L35.6584 14.9446ZM31.3846 23.9999C31.3864 25.6308 30.849 27.2166 29.8558 28.5104C28.8627 29.8041 27.4697 30.7332 25.8937 31.1529C24.3176 31.5727 22.647 31.4595 21.142 30.8311C19.6369 30.2027 18.3819 29.0943 17.5723 27.6785C16.7627 26.2627 16.4439 24.6189 16.6656 23.0031C16.8873 21.3872 17.637 19.8901 18.7981 18.7446C19.9591 17.5992 21.4663 16.8698 23.085 16.67C24.7037 16.4702 26.343 16.8112 27.7477 17.6399L24 21.3876V23.9999H26.6123L30.36 20.2522C31.0304 21.3874 31.3842 22.6815 31.3846 23.9999Z" fill="#0F1A38"/>
</svg>
