<svg width="48" height="48" viewBox="0 0 48 48" fill="none" xmlns="http://www.w3.org/2000/svg">
<path fill-rule="evenodd" clip-rule="evenodd" d="M25.8462 11.1875V5.53845H22.1539V11.1877C23.3803 11.04 24.6199 11.0398 25.8462 11.1875L25.8462 14.9075C31.5877 15.8029 36 20.7783 36 26.769C36 29.9516 34.7358 33.0039 32.4853 35.2543C30.2349 37.5048 27.1826 38.769 24 38.769C20.8174 38.769 17.7652 37.5048 15.5148 35.2543C13.2643 33.0039 12 29.9516 12 26.769C12 20.7783 16.4124 15.8029 22.1539 14.9075L22.1539 11.1877C14.3724 12.1015 8.30774 18.7383 8.30774 26.769C8.30774 35.4183 15.3508 42.4613 24 42.4613C32.6493 42.4613 39.6924 35.4183 39.6924 26.769C39.6924 18.7383 33.6278 12.1014 25.8462 11.1875ZM22.1539 14.9075L22.1539 20.3078H25.8462L25.8462 14.9075C24.6224 14.7229 23.3777 14.7229 22.1539 14.9075Z" fill="#0F1A38"/>
</svg>
