<svg width="48" height="48" viewBox="0 0 48 48" fill="none" xmlns="http://www.w3.org/2000/svg">
<path fill-rule="evenodd" clip-rule="evenodd" d="M23.0768 42.1787C23.3538 42.3634 23.723 42.4557 23.9999 42.4557C24.2768 42.4557 24.6461 42.3634 24.923 42.1787L39.323 33.8711C39.8768 33.5941 40.2461 32.948 40.2461 32.3018V15.6864C40.2461 15.0403 39.8768 14.4864 39.323 14.1172L24.923 5.80952C24.3691 5.44029 23.6307 5.44029 23.0768 5.80952L8.67683 14.1172C8.12298 14.3941 7.75375 15.0403 7.75375 15.6864V32.3018C7.75375 32.948 8.12298 33.5018 8.67683 33.8711L23.0768 42.1787ZM22.1539 37.4141L11.4461 31.1941V18.8841L22.1234 25.0488L23.9695 21.8513L13.2544 15.6647L23.9999 9.50182L34.6617 15.6951L24.0171 21.8409L25.8632 25.0385L36.5538 18.8661V31.2864L25.8462 37.4275V25.1018H22.1539V37.4141Z" fill="#0F1A38"/>
</svg>
