<svg width="48" height="48" viewBox="0 0 48 48" fill="none" xmlns="http://www.w3.org/2000/svg">
<path fill-rule="evenodd" clip-rule="evenodd" d="M32.0584 24.9877C32.9769 24.1533 33.7314 23.1546 34.283 22.0431L40.3384 26.5846L39.2307 28.0615C37.7869 29.9917 35.9588 31.6018 33.8617 32.7901C31.7645 33.9785 29.4439 34.7194 27.0461 34.9661V38.7692H32.5846V42.4615H17.8154V38.7692H23.3538V34.9754C20.2702 34.6513 17.3277 33.5152 14.8264 31.6829C12.3252 29.8505 10.3547 27.3875 9.11605 24.5451C7.87736 21.7026 7.41476 18.5825 7.77545 15.503C8.13614 12.4234 9.30721 9.49463 11.1692 7.01538L12.2769 5.53845L18.3138 10.0615C17.3999 10.9015 16.6489 11.9029 16.0984 13.0154L13.1169 10.7815C11.4786 13.707 10.9584 17.1278 11.6528 20.408C12.3472 23.6883 14.2091 26.6048 16.8923 28.6154C22.5046 32.8246 30.2861 32.1138 35.0769 27.2492L32.0584 24.9877ZM25.2001 11.0491C26.913 11.0516 28.5551 11.7331 29.7664 12.9444C30.9776 14.1556 31.6592 15.7977 31.6616 17.5107C31.6604 18.2826 31.5229 19.0482 31.2554 19.7722L34.2831 22.043C35.3479 19.9179 35.6326 17.4865 35.0877 15.1729C34.5428 12.8593 33.2028 10.8105 31.3016 9.38406C29.4003 7.95758 27.0586 7.24398 24.6849 7.36778C22.3113 7.49158 20.0564 8.44492 18.3139 10.0614L21.3416 12.3322C22.4552 11.4987 23.809 11.0485 25.2001 11.0491ZM25.1999 23.9723C23.487 23.9699 21.8449 23.2883 20.6336 22.0771C19.4224 20.8658 18.7408 19.2237 18.7384 17.5108C18.7371 16.7545 18.8716 16.0042 19.1353 15.2954L16.0984 13.0154C15.0441 15.1388 14.7668 17.5643 15.3146 19.8709C15.8624 22.1774 17.2007 24.2193 19.0971 25.6419C20.9936 27.0645 23.3284 27.778 25.6961 27.6585C28.0637 27.539 30.3148 26.594 32.0584 24.9877L29.0307 22.7169C27.92 23.5326 26.5779 23.9724 25.1999 23.9723Z" fill="#0F1A38"/>
</svg>
