<svg width="36" height="36" viewBox="0 0 36 36" fill="none" xmlns="http://www.w3.org/2000/svg">
<path d="M13.0001 25.0002L27.0003 18.0002L13.0001 11.0001V25.0002ZM15.0001 14.2401L22.5302 18.0002L15.0001 21.7602V14.2401Z" fill="#0F1A38"/>
<path fill-rule="evenodd" clip-rule="evenodd" d="M18.0001 6.00002C11.3727 6.00002 6.00002 11.3727 6.00002 18.0001C6.00002 24.6276 11.3727 30.0002 18.0001 30.0002C24.6276 30.0002 30.0002 24.6276 30.0002 18.0001C30.0002 11.3727 24.6276 6.00002 18.0001 6.00002ZM4 18.0001C4 10.2681 10.2681 4 18.0001 4C25.7322 4 32.0003 10.2681 32.0003 18.0001C32.0003 25.7322 25.7322 32.0003 18.0001 32.0003C10.2681 32.0003 4 25.7322 4 18.0001Z" fill="#0F1A38"/>
</svg>
