<svg width="36" height="36" viewBox="0 0 36 36" fill="none" xmlns="http://www.w3.org/2000/svg">
<path d="M11.6631 17C8.34938 17 5.66309 14.3137 5.66309 11C5.66309 7.68629 8.34938 5 11.6631 5C14.9768 5 17.6631 7.68629 17.6631 11C17.6631 14.3137 14.9768 17 11.6631 17ZM11.6631 15C13.8722 15 15.6631 13.2091 15.6631 11C15.6631 8.79086 13.8722 7 11.6631 7C9.45395 7 7.66309 8.79086 7.66309 11C7.66309 13.2091 9.45395 15 11.6631 15Z" fill="black"/>
<path d="M12.1632 21C9.59243 21 7.2361 22.1858 5.5029 24.1598L4 22.8402C6.065 20.4883 8.94803 19 12.1632 19C18.6357 19 23.6632 24.9499 23.6632 32H21.6632C21.6632 25.7953 17.2886 21 12.1632 21Z" fill="black"/>
<path d="M20.6631 8H32.6631V6H20.6631V8Z" fill="black"/>
<path d="M20.6631 12H31.6631V10H20.6631V12Z" fill="black"/>
<path d="M26.6631 16H20.6631V14H26.6631V16Z" fill="black"/>
</svg>
