<svg width="36" height="36" viewBox="0 0 36 36" fill="none" xmlns="http://www.w3.org/2000/svg">
<path fill-rule="evenodd" clip-rule="evenodd" d="M23.5 15.5C23.5 18.5376 21.0376 21 18 21C14.9624 21 12.5 18.5376 12.5 15.5C12.5 12.4624 14.9624 10 18 10C21.0376 10 23.5 12.4624 23.5 15.5ZM21.5 15.5C21.5 17.433 19.933 19 18 19C16.067 19 14.5 17.433 14.5 15.5C14.5 13.567 16.067 12 18 12C19.933 12 21.5 13.567 21.5 15.5Z" fill="#0F1A38"/>
<path fill-rule="evenodd" clip-rule="evenodd" d="M30.5 15.5C30.5 23.4036 22.9036 33 18 33C13.0964 33 5.5 23.4036 5.5 15.5C5.5 8.59644 11.0964 3 18 3C24.9036 3 30.5 8.59644 30.5 15.5ZM28.5 15.5C28.5 18.8819 26.8379 22.8465 24.4824 26.0224C23.3198 27.59 22.0487 28.8813 20.8427 29.7616C19.5963 30.6714 18.6178 31 18 31C17.3822 31 16.4037 30.6714 15.1573 29.7616C13.9513 28.8813 12.6802 27.59 11.5176 26.0224C9.16207 22.8465 7.5 18.8819 7.5 15.5C7.5 9.70101 12.201 5 18 5C23.799 5 28.5 9.70101 28.5 15.5Z" fill="#0F1A38"/>
</svg>
