<svg width="36" height="36" viewBox="0 0 36 36" fill="none" xmlns="http://www.w3.org/2000/svg">
<path fill-rule="evenodd" clip-rule="evenodd" d="M12.5 7C11.3954 7 10.5 7.89543 10.5 9V10H25.5V9C25.5 7.89543 24.6046 7 23.5 7H12.5ZM27.5 10V9C27.5 6.79086 25.7091 5 23.5 5H12.5C10.2909 5 8.5 6.79086 8.5 9V10H7.5C5.29086 10 3.5 11.7909 3.5 14V21C3.5 23.2091 5.29086 25 7.5 25H9.5V28C9.5 29.6569 10.8431 31 12.5 31H23.5C25.1569 31 26.5 29.6569 26.5 28V25H28.5C30.7091 25 32.5 23.2091 32.5 21V14C32.5 11.7909 30.7091 10 28.5 10H27.5ZM26.5 23H28.5C29.6046 23 30.5 22.1046 30.5 21V14C30.5 12.8954 29.6046 12 28.5 12H7.5C6.39543 12 5.5 12.8954 5.5 14V21C5.5 22.1046 6.39543 23 7.5 23H9.5V21H8.5C7.94772 21 7.5 20.5523 7.5 20C7.5 19.4477 7.94772 19 8.5 19H27.5C28.0523 19 28.5 19.4477 28.5 20C28.5 20.5523 28.0523 21 27.5 21H26.5V23ZM24.5 21H11.5V28C11.5 28.5523 11.9477 29 12.5 29H23.5C24.0523 29 24.5 28.5523 24.5 28V21ZM23.5 14.5C23.5 13.9477 23.9477 13.5 24.5 13.5H27.5C28.0523 13.5 28.5 13.9477 28.5 14.5C28.5 15.0523 28.0523 15.5 27.5 15.5H24.5C23.9477 15.5 23.5 15.0523 23.5 14.5Z" fill="#0F1A38"/>
</svg>
