<svg width="36" height="36" viewBox="0 0 36 36" fill="none" xmlns="http://www.w3.org/2000/svg">
<path fill-rule="evenodd" clip-rule="evenodd" d="M24.0027 10C24.0027 13.3137 21.3164 16 18.0027 16C14.689 16 12.0027 13.3137 12.0027 10C12.0027 6.68629 14.689 4 18.0027 4C21.3164 4 24.0027 6.68629 24.0027 10ZM22.0027 10C22.0027 12.2091 20.2119 14 18.0027 14C15.7936 14 14.0027 12.2091 14.0027 10C14.0027 7.79086 15.7936 6 18.0027 6C20.2119 6 22.0027 7.79086 22.0027 10Z" fill="#0F1A38"/>
<path d="M8.00137 31C8.00137 24.8412 12.5587 20 18.0014 20C23.4441 20 28.0014 24.8412 28.0014 31H30.0014C30.0014 23.904 24.7089 18 18.0014 18C11.2938 18 6.00137 23.904 6.00137 31H8.00137Z" fill="#0F1A38"/>
</svg>
