<svg width="36" height="36" viewBox="0 0 36 36" fill="none" xmlns="http://www.w3.org/2000/svg">
<path fill-rule="evenodd" clip-rule="evenodd" d="M18 6.5C15.2386 6.5 13 8.73858 13 11.5C13 14.2614 15.2386 16.5 18 16.5C20.7614 16.5 23 14.2614 23 11.5C23 8.73858 20.7614 6.5 18 6.5ZM22.1618 17.129C23.8837 15.8538 25 13.8072 25 11.5C25 7.63401 21.866 4.5 18 4.5C14.134 4.5 11 7.63401 11 11.5C11 13.8072 12.1163 15.8538 13.8382 17.129C8.13852 18.9011 4 24.2173 4 30.5C4 31.0523 4.44772 31.5 5 31.5H31C31.5523 31.5 32 31.0523 32 30.5C32 24.2173 27.8615 18.9011 22.1618 17.129ZM16.5233 18.59L14.0637 25.1489C13.9005 25.584 14.0586 26.0743 14.4453 26.3321L17.4453 28.3321C17.7812 28.556 18.2188 28.556 18.5547 28.3321L21.5547 26.3321C21.9414 26.0743 22.0995 25.584 21.9363 25.1489L19.4767 18.59C25.0815 19.2778 29.4912 23.83 29.9589 29.5H6.04107C6.50884 23.83 10.9185 19.2778 16.5233 18.59ZM18 20.348L16.215 25.1081L18 26.2981L19.785 25.1081L18 20.348Z" fill="#0F1A38"/>
</svg>
