<svg width="36" height="36" viewBox="0 0 36 36" fill="none" xmlns="http://www.w3.org/2000/svg">
<path d="M11 9.99963H25V7.99963H11V9.99963Z" fill="#0F1A38"/>
<path d="M25 14.9996H11V12.9996H25V14.9996Z" fill="#0F1A38"/>
<path d="M11 19.9996H25V17.9996H11V19.9996Z" fill="#0F1A38"/>
<path fill-rule="evenodd" clip-rule="evenodd" d="M21.5858 32.4142C21.5579 32.4421 21.5293 32.4691 21.5 32.4951V32.5H21.4945C21.1302 32.8213 20.6601 33 20.1716 33H8C6.89543 33 6 32.1046 6 31V5C6 3.89543 6.89543 3 8 3H28C29.1046 3 30 3.89543 30 5V23.1716C30 23.702 29.7893 24.2107 29.4142 24.5858L21.5858 32.4142ZM28 5H8V31H19.5V25.5C19.5 23.8431 20.8431 22.5 22.5 22.5H28V5ZM21.5 25.5V29.6716L26.6716 24.5H22.5C21.9477 24.5 21.5 24.9477 21.5 25.5Z" fill="#0F1A38"/>
</svg>
