<svg width="36" height="36" viewBox="0 0 36 36" fill="none" xmlns="http://www.w3.org/2000/svg">
<path d="M25.3626 6.52603C22.6831 4.60617 19.3936 3.73304 16.1147 4.07129C12.8358 4.40954 9.79387 5.93578 7.56266 8.36222C5.33144 10.7887 4.06511 13.9476 4.00244 17.2434C3.93978 20.5391 5.08511 23.7439 7.22247 26.2534C9.35983 28.7629 12.3415 30.4037 15.6052 30.8663C18.8689 31.329 22.1892 30.5815 24.9398 28.7649C27.6904 26.9483 29.6813 24.1881 30.5371 21.0048L28.1465 20.3621C27.4476 22.9617 25.8218 25.2158 23.5756 26.6993C21.3293 28.1828 18.6179 28.7932 15.9527 28.4154C13.2874 28.0376 10.8525 26.6977 9.10702 24.6483C7.36158 22.599 6.42626 19.9818 6.47744 17.2904C6.52861 14.599 7.56275 12.0193 9.38483 10.0378C11.2069 8.05627 13.691 6.80989 16.3687 6.53367C19.0464 6.25744 21.7326 6.97047 23.9209 8.53829C25.7722 9.86476 27.1589 11.7256 27.905 13.8564L21.6718 11.6283L20.8571 13.9075L31.0728 17.5591L33.6504 8.1363L31.3157 7.49766L29.9846 12.3635C29.0273 10.0366 27.432 8.00874 25.3626 6.52603Z" fill="#0F1A38"/>
</svg>
