<svg width="36" height="36" viewBox="0 0 36 36" fill="none" xmlns="http://www.w3.org/2000/svg">
<path fill-rule="evenodd" clip-rule="evenodd" d="M5.10835 27.8876C4.54099 29.7315 6.26729 31.4593 8.11198 30.8917L30.303 24.0632C32.3754 23.4255 32.6109 20.5864 30.6711 19.6165L21.2665 14.9143C21.1884 14.8752 21.1249 14.8118 21.0859 14.7337L16.3834 5.32871C15.4133 3.38864 12.5739 3.62513 11.9364 5.69712L5.10835 27.8876ZM29.7148 22.1516L7.52382 28.9801C7.2145 29.0753 6.92448 28.7859 7.0199 28.4758L13.8479 6.28531C13.9552 5.93667 14.4319 5.89797 14.5945 6.22316L19.1839 15.4019L14.7929 19.7929L16.2071 21.2071L20.598 16.8161L29.7767 21.4054C30.1022 21.5681 30.0631 22.0445 29.7148 22.1516Z" fill="#0F1A38"/>
</svg>
