<svg width="36" height="36" viewBox="0 0 36 36" fill="none" xmlns="http://www.w3.org/2000/svg">
<path fill-rule="evenodd" clip-rule="evenodd" d="M30.8916 8.1124C31.459 6.26853 29.7327 4.54074 27.888 5.10833L5.69699 11.9368C3.62459 12.5745 3.38911 15.4136 5.32888 16.3835L14.7335 21.0857C14.8116 21.1248 14.875 21.1882 14.9141 21.2663L19.6166 30.6713C20.5867 32.6114 23.4261 32.3749 24.0636 30.3029L30.8916 8.1124ZM6.2852 13.8484L28.4762 7.01989C28.7855 6.92473 29.0755 7.21411 28.9801 7.52421L22.1521 29.7147C22.0448 30.0633 21.568 30.102 21.4055 29.7768L16.8161 20.5981L21.2071 16.2071L19.7929 14.7929L15.402 19.1839L6.22329 14.5946C5.89775 14.4319 5.93693 13.9555 6.2852 13.8484Z" fill="#0F1A38"/>
</svg>
