<svg width="36" height="36" viewBox="0 0 36 36" fill="none" xmlns="http://www.w3.org/2000/svg">
<path fill-rule="evenodd" clip-rule="evenodd" d="M28.0134 25.7747C30.4799 23.2518 32 19.8005 32 15.9943C32 8.2655 25.732 2 18 2C10.268 2 4 8.2655 4 15.9943C4 19.8809 5.58496 23.3973 8.14404 25.9332L4.71729 31.415C4.5979 31.606 4.73523 31.8538 4.96045 31.8538H8.47058C8.56897 31.8538 8.6604 31.9042 8.71295 31.9874L10.6257 35.0128C10.7364 35.1879 10.9906 35.1913 11.1061 35.0193L14.7401 29.6072C15.7861 29.8566 16.8776 29.9886 18 29.9886C19.2068 29.9886 20.378 29.8361 21.4952 29.549L25.1135 34.9568C25.2287 35.1289 25.4826 35.126 25.5938 34.9514L27.5057 31.9459C27.5583 31.863 27.6496 31.8129 27.7476 31.8129H31.2592C31.4842 31.8129 31.6216 31.5656 31.5026 31.3745L28.0134 25.7747ZM10.9152 31.4401L10.5335 30.8364C10.0862 30.129 9.30762 29.7 8.47058 29.7H8.32947L9.35956 28.0521L12.1312 29.629L10.9152 31.4401ZM18 27.8348C11.4567 27.8348 6.15387 22.5328 6.15387 15.9943C6.15387 9.45587 11.4567 4.15387 18 4.15387C24.5433 4.15387 29.8462 9.45587 29.8462 15.9943C29.8462 22.5328 24.5433 27.8348 18 27.8348ZM27.7476 29.6591C26.913 29.6591 26.1363 30.0855 25.6884 30.7897L25.3124 31.3809L24.0877 29.5505L26.8537 27.9863L27.896 29.6591H27.7476ZM24.2899 13.265L21.1295 12.061C20.9907 12.0081 20.8684 11.9193 20.7752 11.8037L18.6528 9.17084C18.3172 8.75452 17.6828 8.75452 17.3472 9.17084L15.2248 11.8037C15.1316 11.9193 15.0093 12.0081 14.8705 12.061L11.7101 13.265C11.2101 13.4554 11.014 14.059 11.3066 14.507L13.1552 17.3375C13.2365 17.4619 13.2832 17.6057 13.2906 17.7542L13.4595 21.1306C13.4862 21.6649 13.9995 22.0377 14.5158 21.8981L17.7811 21.0151C17.9245 20.9763 18.0755 20.9763 18.2189 21.0151L21.4842 21.8981C22.0005 22.0377 22.5138 21.6649 22.5405 21.1306L22.7094 17.7542C22.7168 17.6057 22.7635 17.4619 22.8448 17.3375L24.6934 14.507C24.986 14.059 24.7899 13.4554 24.2899 13.265ZM21.0415 16.1599C20.7515 16.6038 20.5847 17.1169 20.5582 17.6466L20.4709 19.3929L18.7812 18.9359C18.2696 18.7976 17.7304 18.7976 17.2189 18.9359L15.5291 19.3929L15.4418 17.6466C15.4153 17.1169 15.2485 16.6038 14.9585 16.1599L14.0028 14.6964L15.6372 14.0737C16.1326 13.885 16.569 13.5681 16.9016 13.1555L18 11.7929L19.0984 13.1555C19.431 13.5681 19.8674 13.885 20.3628 14.0737L21.9972 14.6964L21.0415 16.1599Z" fill="#0F1A38"/>
</svg>
