<svg width="36" height="36" viewBox="0 0 36 36" fill="none" xmlns="http://www.w3.org/2000/svg">
<path fill-rule="evenodd" clip-rule="evenodd" d="M30 8C30 6.34315 28.6569 5 27 5H9C7.34315 5 6 6.34315 6 8V15.4C6 20.4921 8.22867 25.279 12.1664 28.4737L14.8189 30.6671C16.665 32.1937 19.3345 32.1964 21.1838 30.6735C21.9538 30.0393 22.747 29.3861 23.7298 28.5768L23.7328 28.5743C27.6653 25.3843 30 20.5 30 15.4V8ZM8 15.4V8C8 7.44772 8.44772 7 9 7H27C27.5523 7 28 7.44772 28 8V15.4C28 19.8987 25.9359 24.2132 22.4702 27.0232L19.9124 29.1297C18.8028 30.0434 17.2011 30.0418 16.0934 29.1258L13.4373 26.9293L13.4298 26.9232C9.96991 24.1179 8 19.9062 8 15.4ZM16.0001 22.4143L24.7072 13.7072L23.293 12.293L16.0001 19.5859L12.7072 16.293L11.293 17.7072L16.0001 22.4143Z" fill="#0F1A38"/>
</svg>
