<svg width="36" height="36" viewBox="0 0 36 36" fill="none" xmlns="http://www.w3.org/2000/svg">
<path fill-rule="evenodd" clip-rule="evenodd" d="M18.9748 12.595L19.0718 12.1047C19.1253 11.8338 18.9492 11.5685 18.6748 11.5377C18.4527 11.5128 18.2275 11.5 18 11.5C17.7725 11.5 17.5473 11.5128 17.3252 11.5377C17.0508 11.5685 16.8747 11.8338 16.9282 12.1047L17.0252 12.595C16.3686 12.7247 15.7581 12.9831 15.2212 13.3427L14.9431 12.9273C14.7894 12.6978 14.4774 12.6348 14.2614 12.8069C13.9086 13.0883 13.5883 13.4086 13.3069 13.7615C13.1348 13.9774 13.1978 14.2894 13.4273 14.4431L13.8427 14.7212C13.4831 15.2581 13.2247 15.8686 13.095 16.5252L12.6047 16.4282C12.3338 16.3747 12.0685 16.5508 12.0377 16.8252C12.0128 17.0473 12 17.2725 12 17.5C12 17.7275 12.0128 17.9527 12.0377 18.1748C12.0685 18.4492 12.3338 18.6253 12.6047 18.5718L13.095 18.4748C13.2247 19.1314 13.4831 19.7419 13.8427 20.2788L13.4273 20.5569C13.1978 20.7106 13.1348 21.0226 13.3069 21.2386C13.5883 21.5914 13.9086 21.9117 14.2615 22.1931C14.4774 22.3652 14.7894 22.3022 14.9431 22.0727L15.2212 21.6573C15.7581 22.0169 16.3686 22.2753 17.0252 22.405L16.9282 22.8953C16.8747 23.1662 17.0508 23.4315 17.3252 23.4623C17.5473 23.4872 17.7725 23.5 18 23.5C18.2275 23.5 18.4527 23.4872 18.6748 23.4623C18.9492 23.4315 19.1253 23.1662 19.0718 22.8953L18.9748 22.405C19.6314 22.2753 20.2419 22.0169 20.7788 21.6573L21.0569 22.0727C21.2106 22.3022 21.5226 22.3652 21.7386 22.1931C22.0914 21.9117 22.4117 21.5914 22.6931 21.2385C22.8652 21.0226 22.8022 20.7106 22.5727 20.5569L22.1573 20.2788C22.5169 19.7419 22.7753 19.1314 22.905 18.4748L23.3953 18.5718C23.6662 18.6253 23.9315 18.4492 23.9623 18.1748C23.9872 17.9527 24 17.7275 24 17.5C24 17.2725 23.9872 17.0473 23.9623 16.8252C23.9315 16.5508 23.6662 16.3747 23.3953 16.4282L22.905 16.5252C22.7753 15.8686 22.5169 15.2581 22.1573 14.7212L22.5727 14.4431C22.8022 14.2894 22.8652 13.9774 22.6931 13.7614C22.4117 13.4086 22.0914 13.0883 21.7385 12.8069C21.5226 12.6348 21.2106 12.6978 21.0569 12.9273L20.7788 13.3427C20.2419 12.9831 19.6314 12.7247 18.9748 12.595ZM18 14.5C16.3431 14.5 15 15.8431 15 17.5C15 19.1569 16.3431 20.5 18 20.5C19.6569 20.5 21 19.1569 21 17.5C21 15.8431 19.6569 14.5 18 14.5Z" fill="#0F1A38"/>
<path fill-rule="evenodd" clip-rule="evenodd" d="M6 11C6 8.23858 8.23858 6 11 6H25C27.7614 6 30 8.23858 30 11V24C30 26.7614 27.7614 29 25 29H24V31H22V29H14V31H12V29H11C8.23858 29 6 26.7614 6 24V11ZM11 8C9.34315 8 8 9.34315 8 11V24C8 25.6569 9.34315 27 11 27H25C26.6569 27 28 25.6569 28 24V11C28 9.34315 26.6569 8 25 8H11Z" fill="#0F1A38"/>
</svg>
