<svg width="36" height="36" viewBox="0 0 36 36" fill="none" xmlns="http://www.w3.org/2000/svg">
<path fill-rule="evenodd" clip-rule="evenodd" d="M18 9.20952C16.3431 9.20952 15 10.5399 15 12.181C15 13.822 16.3431 15.1524 18 15.1524C19.6569 15.1524 21 13.822 21 12.181C21 10.5399 19.6569 9.20952 18 9.20952ZM17 12.181C17 11.6339 17.4477 11.1905 18 11.1905C18.5523 11.1905 19 11.6339 19 12.181C19 12.728 18.5523 13.1714 18 13.1714C17.4477 13.1714 17 12.728 17 12.181Z" fill="#0F1A38"/>
<path fill-rule="evenodd" clip-rule="evenodd" d="M20.4 5.79238C18.9778 4.73587 17.0222 4.73587 15.6 5.79238L10.6 9.50667C9.59278 10.2549 9 11.4292 9 12.6762V27.0381C9 29.2262 10.7909 31 13 31H23C25.2091 31 27 29.2262 27 27.0381V12.6762C27 11.4292 26.4072 10.2549 25.4 9.50667L20.4 5.79238ZM16.8 7.37714C17.5111 6.84889 18.4889 6.84889 19.2 7.37714L24.2 11.0914C24.7036 11.4655 25 12.0527 25 12.6762V27.0381C25 28.1321 24.1046 29.019 23 29.019H13C11.8954 29.019 11 28.1321 11 27.0381V12.6762C11 12.0527 11.2964 11.4655 11.8 11.0914L16.8 7.37714Z" fill="#0F1A38"/>
</svg>
