<svg width="36" height="36" viewBox="0 0 36 36" fill="none" xmlns="http://www.w3.org/2000/svg">
<path d="M14 12V5H16V12H14Z" fill="#0F1A38"/>
<path fill-rule="evenodd" clip-rule="evenodd" d="M24.7081 29C26.1327 27.4083 27 25.3057 27 23C27 18.0294 22.9706 14 18 14C13.0294 14 9 18.0294 9 23C9 25.3057 9.86726 27.4083 11.2919 29H5V31H31V29H24.7081ZM18 16C14.134 16 11 19.134 11 23C11 25.5447 12.3575 27.7737 14.3921 29H21.6079C23.6425 27.7737 25 25.5447 25 23C25 19.134 21.866 16 18 16Z" fill="#0F1A38"/>
<path d="M20 7V12H22V7H20Z" fill="#0F1A38"/>
</svg>
