<svg width="36" height="36" viewBox="0 0 36 36" fill="none" xmlns="http://www.w3.org/2000/svg">
<path d="M24 14.0001C24.0022 11.7295 23.2316 9.52585 21.8151 7.75141C20.3985 5.97698 18.4203 4.73744 16.2056 4.23664C13.991 3.73585 11.6719 4.00361 9.62971 4.99589C7.58749 5.98818 5.94375 7.64591 4.96881 9.69647C3.99387 11.747 3.74577 14.0683 4.26532 16.2786C4.78487 18.4889 6.04113 20.4566 7.82751 21.858C9.61389 23.2595 11.824 24.0114 14.0944 23.9899C16.3649 23.9685 18.5604 23.175 20.32 21.7401L30.32 31.7401L31.74 30.3201L21.74 20.3201C23.2033 18.5391 24.0022 16.305 24 14.0001ZM14 22.0001C12.4177 22.0001 10.871 21.5309 9.55544 20.6518C8.23984 19.7728 7.21446 18.5233 6.60896 17.0615C6.00346 15.5997 5.84503 13.9912 6.15372 12.4393C6.4624 10.8875 7.22432 9.46202 8.34314 8.3432C9.46196 7.22438 10.8874 6.46245 12.4393 6.15377C13.9911 5.84509 15.5997 6.00352 17.0615 6.60902C18.5233 7.21452 19.7727 8.2399 20.6518 9.55549C21.5308 10.8711 22 12.4178 22 14.0001C22 16.1218 21.1571 18.1566 19.6569 19.6569C18.1566 21.1572 16.1217 22.0001 14 22.0001Z" fill="#0F1A38"/>
</svg>
