<svg width="36" height="36" viewBox="0 0 36 36" fill="none" xmlns="http://www.w3.org/2000/svg">
<path fill-rule="evenodd" clip-rule="evenodd" d="M15 23C15 21.3431 16.3431 20 18 20C19.6569 20 21 21.3431 21 23C21 24.6569 19.6569 26 18 26C16.3431 26 15 24.6569 15 23ZM18 22C17.4477 22 17 22.4477 17 23C17 23.5523 17.4477 24 18 24C18.5523 24 19 23.5523 19 23C19 22.4477 18.5523 22 18 22Z" fill="#0F1A38"/>
<path fill-rule="evenodd" clip-rule="evenodd" d="M10 13C10 8.58172 13.5817 5 18 5C22.4183 5 26 8.58172 26 13V15.1C28.2822 15.5633 30 17.581 30 20V26C30 28.7614 27.7614 31 25 31H11C8.23858 31 6 28.7614 6 26V20C6 17.581 7.71776 15.5633 10 15.1V13ZM12 15H24V13C24 9.68629 21.3137 7 18 7C14.6863 7 12 9.68629 12 13V15ZM11 17C9.34315 17 8 18.3431 8 20V26C8 27.6569 9.34315 29 11 29H25C26.6569 29 28 27.6569 28 26V20C28 18.3431 26.6569 17 25 17H11Z" fill="#0F1A38"/>
</svg>
