<svg width="36" height="36" viewBox="0 0 36 36" fill="none" xmlns="http://www.w3.org/2000/svg">
<path d="M7.29001 12.4301L1.73001 18.0001L7.30001 23.5701C10.1406 26.4065 13.9907 27.9997 18.005 27.9997C22.0193 27.9997 25.8695 26.4065 28.71 23.5701L34.27 18.0001L28.7 12.4301C25.8582 9.59601 22.0085 8.00452 17.995 8.00452C13.9815 8.00452 10.1319 9.59601 7.29001 12.4301ZM27.29 22.1501C26.0706 23.371 24.6224 24.3396 23.0284 25.0004C21.4343 25.6613 19.7256 26.0014 18 26.0014C16.2744 26.0014 14.5657 25.6613 12.9717 25.0004C11.3776 24.3396 9.92945 23.371 8.71001 22.1501L4.56001 18.0001L8.71001 13.8501C11.1754 11.3891 14.5166 10.007 18 10.007C21.4835 10.007 24.8246 11.3891 27.29 13.8501L31.44 18.0001L27.29 22.1501Z" fill="#0F1A38"/>
<path d="M18 13.0001C17.0111 13.0001 16.0444 13.2933 15.2222 13.8427C14.3999 14.3921 13.759 15.173 13.3806 16.0866C13.0022 17.0003 12.9032 18.0056 13.0961 18.9755C13.289 19.9454 13.7652 20.8363 14.4645 21.5356C15.1637 22.2349 16.0547 22.7111 17.0246 22.904C17.9945 23.0969 18.9998 22.9979 19.9134 22.6195C20.8271 22.241 21.608 21.6002 22.1574 20.7779C22.7068 19.9557 23 18.989 23 18.0001C23 17.3434 22.8707 16.6933 22.6194 16.0866C22.3681 15.48 21.9998 14.9288 21.5355 14.4645C21.0713 14.0002 20.5201 13.6319 19.9134 13.3807C19.3068 13.1294 18.6566 13.0001 18 13.0001ZM18 21.0001C17.4067 21.0001 16.8266 20.8241 16.3333 20.4945C15.84 20.1648 15.4554 19.6963 15.2284 19.1481C15.0013 18.5999 14.9419 17.9967 15.0577 17.4148C15.1734 16.8328 15.4591 16.2983 15.8787 15.8787C16.2982 15.4592 16.8328 15.1735 17.4147 15.0577C17.9967 14.9419 18.5999 15.0014 19.1481 15.2284C19.6962 15.4555 20.1648 15.84 20.4944 16.3333C20.8241 16.8267 21 17.4067 21 18.0001C21 18.7957 20.6839 19.5588 20.1213 20.1214C19.5587 20.684 18.7957 21.0001 18 21.0001Z" fill="#0F1A38"/>
</svg>
