<svg width="36" height="36" viewBox="0 0 36 36" fill="none" xmlns="http://www.w3.org/2000/svg">
<path fill-rule="evenodd" clip-rule="evenodd" d="M18.0008 5.99974C11.3735 5.99974 6.00096 11.3723 6.00096 17.9996C6.00096 24.627 11.3735 29.9995 18.0008 29.9995C24.6282 29.9995 30.0007 24.627 30.0007 17.9996C30.0007 11.3723 24.6282 5.99974 18.0008 5.99974ZM4.00098 17.9996C4.00098 10.2677 10.2689 3.99976 18.0008 3.99976C25.7328 3.99976 32.0007 10.2677 32.0007 17.9996C32.0007 25.7315 25.7328 31.9995 18.0008 31.9995C10.2689 31.9995 4.00098 25.7315 4.00098 17.9996Z" fill="#0F1A38"/>
<path fill-rule="evenodd" clip-rule="evenodd" d="M24.4142 14.4143L15.7071 23.1214L11 18.4143L12.4142 17.0001L15.7071 20.2929L23 13.0001L24.4142 14.4143Z" fill="#0F1A38"/>
</svg>
