<svg width="36" height="36" viewBox="0 0 36 36" fill="none" xmlns="http://www.w3.org/2000/svg">
<path d="M31.45 17.1101L5.45001 4.11005C5.29364 4.02976 5.11887 3.9921 4.9433 4.00088C4.76774 4.00966 4.59759 4.06456 4.45001 4.16005C4.31104 4.25157 4.1971 4.37632 4.11852 4.523C4.03994 4.66968 3.99921 4.83365 4.00001 5.00005V31C3.99967 31.17 4.04265 31.3372 4.12488 31.4859C4.20712 31.6347 4.3259 31.76 4.47001 31.85C4.62915 31.9487 4.81279 32.0007 5.00001 32C5.15655 31.9991 5.31069 31.9614 5.45001 31.89L31.45 18.89C31.6149 18.8069 31.7536 18.6798 31.8507 18.5227C31.9478 18.3656 31.9995 18.1847 32 18C31.9995 17.8154 31.9478 17.6345 31.8507 17.4774C31.7536 17.3203 31.6149 17.1932 31.45 17.1101ZM6.00001 6.62005L26.76 17H6.00001V6.62005ZM6.00001 19H26.76L6.00001 29.38V19Z" fill="#0F1A38"/>
</svg>
