<svg width="36" height="36" viewBox="0 0 36 36" fill="none" xmlns="http://www.w3.org/2000/svg">
<path d="M7.16 23.1L5.38 24.1L6.38 25.83L8.15 24.83C8.96868 25.9962 9.98378 27.0113 11.15 27.83L10.15 29.6L11.89 30.6L12.89 28.82C14.1773 29.4589 15.5699 29.8587 17 30V32H19V30C20.4227 29.8819 21.812 29.5058 23.1 28.89L24.1 30.67L25.83 29.67L24.83 27.9C25.9962 27.0813 27.0113 26.0662 27.83 24.9L29.6 25.9L30.6 24.17L28.82 23.17C29.4683 21.8651 29.8684 20.4511 30 19H32V17H30C29.8807 15.5743 29.5047 14.1819 28.89 12.89L30.67 11.89L29.67 10.15L27.9 11.15C27.0813 9.98378 26.0662 8.96868 24.9 8.15L25.9 6.38L24.17 5.38L23.17 7.16C21.8604 6.53596 20.4466 6.15963 19 6.05V4H17V6.05C15.5743 6.16929 14.1819 6.54534 12.89 7.16L11.89 5.38L10.15 6.38L11.15 8.15C9.98378 8.96868 8.96868 9.98378 8.15 11.15L6.38 10.15L5.38 11.89L7.16 12.89C6.54534 14.1819 6.16929 15.5743 6.05 17H4V19H6.05C6.16807 20.4227 6.54421 21.812 7.16 23.1ZM18 8C19.9778 8 21.9112 8.58649 23.5557 9.6853C25.2002 10.7841 26.4819 12.3459 27.2388 14.1732C27.9957 16.0004 28.1937 18.0111 27.8079 19.9509C27.422 21.8907 26.4696 23.6725 25.0711 25.0711C23.6725 26.4696 21.8907 27.422 19.9509 27.8079C18.0111 28.1937 16.0004 27.9957 14.1732 27.2388C12.3459 26.4819 10.7841 25.2002 9.6853 23.5557C8.58649 21.9112 8 19.9778 8 18C8 15.3478 9.05357 12.8043 10.9289 10.9289C12.8043 9.05357 15.3478 8 18 8Z" fill="#0F1A38"/>
</svg>
