<svg width="36" height="36" viewBox="0 0 36 36" fill="none" xmlns="http://www.w3.org/2000/svg">
<path d="M27 22C30.866 22 34 18.866 34 15C34 11.134 30.866 8 27 8C23.134 8 20 11.134 20 15C20 18.866 23.134 22 27 22ZM31.8425 16.25C31.2874 18.4065 29.3298 20 27 20C24.2386 20 22 17.7614 22 15C22 12.6702 23.5935 10.7126 25.75 10.1575V15.25C25.75 15.8023 26.1977 16.25 26.75 16.25H31.8425ZM27.75 10.0559C29.911 10.3809 31.6191 12.089 31.9441 14.25H27.75V10.0559Z" fill="black"/>
<path d="M17 11C17 7.68629 14.3137 5 11 5C7.68629 5 5 7.68629 5 11C5 14.3137 7.68629 17 11 17C14.3137 17 17 14.3137 17 11ZM15 11C15 13.2091 13.2091 15 11 15C8.79086 15 7 13.2091 7 11C7 8.79086 8.79086 7 11 7C13.2091 7 15 8.79086 15 11Z" fill="black"/>
<path d="M4.83981 24.1598C6.57301 22.1858 8.92934 21 11.5001 21C16.6255 21 21.0001 25.7953 21.0001 32H23.0001C23.0001 24.9499 17.9726 19 11.5001 19C8.28495 19 5.40191 20.4883 3.33691 22.8402L4.83981 24.1598Z" fill="black"/>
</svg>
