<svg width="36" height="36" viewBox="0 0 36 36" fill="none" xmlns="http://www.w3.org/2000/svg">
<path d="M17 25.92V7.83L12.21 12.62L10.79 11.21L18 4L25.21 11.21L23.79 12.62L19 7.83V25.92H17Z" fill="#0F1A38"/>
<path d="M27 6.92H29C30.65 6.92 32 8.26 32 9.92V28.92C32 30.57 30.65 31.92 29 31.92H7C5.35 31.92 4 30.57 4 28.92V9.92C4 8.27 5.35 6.92 7 6.92H9V8.92H7C6.45 8.92 6 9.37 6 9.92V28.92C6 29.47 6.45 29.92 7 29.92H29C29.55 29.92 30 29.47 30 28.92V9.92C30 9.37 29.55 8.92 29 8.92H27V6.92Z" fill="#0F1A38"/>
</svg>
