<svg width="36" height="36" viewBox="0 0 36 36" fill="none" xmlns="http://www.w3.org/2000/svg">
<path fill-rule="evenodd" clip-rule="evenodd" d="M3 4C3 3.44772 3.44772 3 4 3H6.92999C7.4382 3 7.86558 3.38117 7.92348 3.88607L8.42781 8.28377L30.1535 8.13038C30.9895 8.04822 31.6563 8.29882 32.0627 8.82945C32.2444 9.06667 32.331 9.30799 32.3733 9.48344C32.3948 9.57269 32.4063 9.65086 32.4125 9.71211C32.4157 9.74297 32.4176 9.77021 32.4186 9.79322C32.4192 9.80475 32.4195 9.81528 32.4197 9.82474L32.42 9.83815L32.42 9.84425L32.42 9.84715L32.42 9.84856C32.42 9.84856 32.42 9.84995 31.42 9.84998L32.42 9.84995C32.42 9.90582 32.4154 9.96159 32.4061 10.0167L30.4061 21.8466C30.3909 21.9364 30.3635 22.0236 30.3248 22.1059C29.753 23.3202 29.015 23.9733 28.3111 24.2896C27.969 24.4433 27.6606 24.5055 27.423 24.5266C27.3046 24.5371 27.2038 24.5374 27.1249 24.5339C27.1015 24.5329 27.0798 24.5315 27.0602 24.5299H11.26C11.2484 24.5299 11.2368 24.5297 11.2252 24.5293C10.4192 24.5012 9.64855 24.1909 9.04803 23.6522C8.44759 23.1137 8.05546 22.3811 7.94025 21.5828L7.9375 21.5622L7.9365 21.5539L6.03812 5H4C3.44772 5 3 4.55228 3 4ZM30.3603 10.1197C30.349 10.1207 30.3372 10.122 30.325 10.1234C30.2891 10.1275 30.2531 10.1297 30.2171 10.13L8.65698 10.2822L9.9216 21.3096C9.97208 21.6389 10.1353 21.9408 10.3835 22.1634C10.631 22.3855 10.9477 22.5148 11.2797 22.5299H27.11C27.1466 22.5299 27.1832 22.5319 27.2195 22.5359C27.2248 22.5358 27.2338 22.5355 27.2462 22.5345C27.2902 22.5305 27.3774 22.5165 27.4915 22.4653C27.6901 22.376 28.0776 22.1253 28.458 21.3716L30.3603 10.1197Z" fill="#0F1A38"/>
<path fill-rule="evenodd" clip-rule="evenodd" d="M11.35 29.53C11.35 27.8013 12.7514 26.4 14.48 26.4C16.2087 26.4 17.61 27.8013 17.61 29.53C17.61 31.2586 16.2087 32.66 14.48 32.66C12.7514 32.66 11.35 31.2586 11.35 29.53ZM14.48 28.4C13.856 28.4 13.35 28.9059 13.35 29.53C13.35 30.154 13.856 30.66 14.48 30.66C15.1041 30.66 15.61 30.154 15.61 29.53C15.61 28.9059 15.1041 28.4 14.48 28.4Z" fill="#0F1A38"/>
<path fill-rule="evenodd" clip-rule="evenodd" d="M24.25 26.4C22.5214 26.4 21.12 27.8013 21.12 29.53C21.12 31.2586 22.5214 32.66 24.25 32.66C25.9787 32.66 27.38 31.2586 27.38 29.53C27.38 27.8013 25.9787 26.4 24.25 26.4ZM23.12 29.53C23.12 28.9059 23.6259 28.4 24.25 28.4C24.8741 28.4 25.38 28.9059 25.38 29.53C25.38 30.154 24.8741 30.66 24.25 30.66C23.6259 30.66 23.12 30.154 23.12 29.53Z" fill="#0F1A38"/>
</svg>
