<svg width="36" height="36" viewBox="0 0 36 36" fill="none" xmlns="http://www.w3.org/2000/svg">
<path d="M25 10C25 6.68629 22.3137 4 19 4C15.6863 4 13 6.68629 13 10C13 13.3137 15.6863 16 19 16C22.3137 16 25 13.3137 25 10ZM23 10C23 12.2091 21.2091 14 19 14C16.7909 14 15 12.2091 15 10C15 7.79086 16.7909 6 19 6C21.2091 6 23 7.79086 23 10Z" fill="#0F1A38"/>
<path d="M11.1109 26.8602L8.31445 24.2282L9.68518 22.7718L11.1388 24.1399L14.3295 21.2579L15.6701 22.7421L11.1109 26.8602Z" fill="#0F1A38"/>
<path d="M19 24C19 20.134 15.866 17 12 17C8.13401 17 5 20.134 5 24C5 27.866 8.13401 31 12 31C15.866 31 19 27.866 19 24ZM17 24C17 26.7614 14.7614 29 12 29C9.23858 29 7 26.7614 7 24C7 21.2386 9.23858 19 12 19C14.7614 19 17 21.2386 17 24Z" fill="#0F1A38"/>
<path d="M20.0025 18.9302C19.9639 19.4811 20.3792 19.959 20.9302 19.9976C23.2729 20.1617 25.1427 21.1636 26.4364 22.7149C27.738 24.2755 28.5 26.4471 28.5 29V30H30.5V29C30.5 26.053 29.618 23.4071 27.9724 21.4339C26.3191 19.4515 23.9389 18.2034 21.0699 18.0025C20.519 17.9639 20.0411 18.3792 20.0025 18.9302Z" fill="#0F1A38"/>
</svg>
