<svg width="36" height="36" viewBox="0 0 36 36" fill="none" xmlns="http://www.w3.org/2000/svg">
<path fill-rule="evenodd" clip-rule="evenodd" d="M13 4C11.3431 4 10 5.34314 10 7V28C10 29.6569 11.3431 31 13 31H23C24.6569 31 26 29.6569 26 28V7C26 5.34315 24.6569 4 23 4H13ZM12 7C12 6.44772 12.4477 6 13 6H23C23.5523 6 24 6.44772 24 7V28C24 28.5523 23.5523 29 23 29H13C12.4477 29 12 28.5523 12 28V7ZM16 8C15.4477 8 15 8.44772 15 9C15 9.55228 15.4477 10 16 10H20C20.5523 10 21 9.55228 21 9C21 8.44772 20.5523 8 20 8H16Z" fill="#0F1A38"/>
</svg>
