<svg width="36" height="36" viewBox="0 0 36 36" fill="none" xmlns="http://www.w3.org/2000/svg">
<path d="M25 22C27.2092 22 29 20.2092 29 18C29 15.7908 27.2092 14 25 14C22.7908 14 21 15.7908 21 18C21 20.2092 22.7908 22 25 22Z" fill="#0F1A38"/>
<path fill-rule="evenodd" clip-rule="evenodd" d="M3 18C3 13.5817 6.58173 10 11 10H25C29.4183 10 33 13.5817 33 18C33 22.4183 29.4183 26 25 26H11C6.58173 26 3 22.4183 3 18ZM11 12H25C28.3137 12 31 14.6863 31 18C31 21.3137 28.3137 24 25 24H11C7.68628 24 5 21.3137 5 18C5 14.6863 7.68628 12 11 12Z" fill="#0F1A38"/>
</svg>
