<svg width="36" height="36" viewBox="0 0 36 36" fill="none" xmlns="http://www.w3.org/2000/svg">
<path d="M27 6.10457L11 30L9.33588 28.8954L25.3359 5L27 6.10457Z" fill="#0F1A38"/>
<path fill-rule="evenodd" clip-rule="evenodd" d="M26.9999 30C29.7614 30 31.9999 27.7712 31.9999 25.0218C31.9999 22.2724 29.7614 20.0435 26.9999 20.0435C24.2385 20.0435 21.9999 22.2724 21.9999 25.0218C21.9999 27.7712 24.2385 30 26.9999 30ZM26.9999 28.0087C28.6568 28.0087 29.9999 26.6714 29.9999 25.0218C29.9999 23.3721 28.6568 22.0348 26.9999 22.0348C25.3431 22.0348 23.9999 23.3721 23.9999 25.0218C23.9999 26.6714 25.3431 28.0087 26.9999 28.0087Z" fill="#0F1A38"/>
<path fill-rule="evenodd" clip-rule="evenodd" d="M14.9999 10.0871C14.9999 12.8365 12.7614 15.0653 9.99994 15.0653C7.23851 15.0653 4.99994 12.8365 4.99994 10.0871C4.99994 7.33773 7.23851 5.1089 9.99994 5.1089C12.7614 5.1089 14.9999 7.33773 14.9999 10.0871ZM12.9999 10.0871C12.9999 11.7368 11.6568 13.074 9.99994 13.074C8.34308 13.074 6.99994 11.7368 6.99994 10.0871C6.99994 8.43748 8.34308 7.10019 9.99994 7.10019C11.6568 7.10019 12.9999 8.43748 12.9999 10.0871Z" fill="#0F1A38"/>
</svg>
