<svg width="36" height="36" viewBox="0 0 36 36" fill="none" xmlns="http://www.w3.org/2000/svg">
<path fill-rule="evenodd" clip-rule="evenodd" d="M7 8C7 5.79086 8.79086 4 11 4H26C28.2091 4 30 5.79086 30 8V27.4545C30 29.6637 28.2091 31.4545 26 31.4545H11C8.79086 31.4545 7 29.6637 7 27.4545V8ZM11 6C9.89543 6 9 6.89543 9 8V27.4545C9 28.5591 9.89543 29.4545 11 29.4545H26C27.1046 29.4545 28 28.5591 28 27.4545V8C28 6.89543 27.1046 6 26 6H11ZM9.86364 9.63635C9.86364 8.53178 10.7591 7.63635 11.8636 7.63635H25.1364C26.2409 7.63635 27.1364 8.53178 27.1364 9.63635V12.1818C27.1364 13.2864 26.2409 14.1818 25.1364 14.1818H11.8636C10.7591 14.1818 9.86364 13.2864 9.86364 12.1818V9.63635ZM25.1364 9.63635L11.8636 9.63635V12.1818L25.1364 12.1818V9.63635ZM13.7273 15.8182C14.2796 15.8182 14.7273 16.2659 14.7273 16.8182V17.1818H15.1591C15.7114 17.1818 16.1591 17.6295 16.1591 18.1818C16.1591 18.7341 15.7114 19.1818 15.1591 19.1818H14.7273V19.5454C14.7273 20.0977 14.2796 20.5454 13.7273 20.5454C13.175 20.5454 12.7273 20.0977 12.7273 19.5454V19.1818H12.2955C11.7432 19.1818 11.2955 18.7341 11.2955 18.1818C11.2955 17.6295 11.7432 17.1818 12.2955 17.1818H12.7273V16.8182C12.7273 16.2659 13.175 15.8182 13.7273 15.8182ZM20.3636 18.1818C20.3636 17.6295 20.8114 17.1818 21.3636 17.1818H24.7045C25.2568 17.1818 25.7045 17.6295 25.7045 18.1818C25.7045 18.7341 25.2568 19.1818 24.7045 19.1818H21.3636C20.8114 19.1818 20.3636 18.7341 20.3636 18.1818ZM20.3636 23.1818C20.3636 22.6295 20.8114 22.1818 21.3636 22.1818H24.7045C25.2568 22.1818 25.7045 22.6295 25.7045 23.1818C25.7045 23.7341 25.2568 24.1818 24.7045 24.1818H21.3636C20.8114 24.1818 20.3636 23.7341 20.3636 23.1818ZM12.0486 22.9467C12.4295 22.5468 13.0625 22.5313 13.4624 22.9122L14.2046 23.619L14.9467 22.9122C15.3466 22.5314 15.9796 22.5468 16.3605 22.9467C16.7414 23.3467 16.7259 23.9796 16.326 24.3605L15.6546 25L16.326 25.6395C16.7259 26.0204 16.7414 26.6533 16.3605 27.0533C15.9796 27.4532 15.3466 27.4686 14.9467 27.0878L14.2046 26.381L13.4624 27.0878C13.0625 27.4687 12.4295 27.4532 12.0486 27.0533C11.6677 26.6534 11.6831 26.0204 12.0831 25.6395L12.7546 25L12.0831 24.3605C11.6831 23.9796 11.6677 23.3466 12.0486 22.9467ZM20.3636 26.3636C20.3636 25.8114 20.8114 25.3636 21.3636 25.3636H24.7045C25.2568 25.3636 25.7045 25.8114 25.7045 26.3636C25.7045 26.9159 25.2568 27.3636 24.7045 27.3636H21.3636C20.8114 27.3636 20.3636 26.9159 20.3636 26.3636Z" fill="#0F1A38"/>
</svg>
