<svg width="36" height="36" viewBox="0 0 36 36" fill="none" xmlns="http://www.w3.org/2000/svg">
<path d="M18.9995 8.99957H16.9995V18.9995H24.9994V16.9995H18.9995V8.99957Z" fill="#0F1A38"/>
<path fill-rule="evenodd" clip-rule="evenodd" d="M18.0008 3.99976C10.2689 3.99976 4.00098 10.2677 4.00098 17.9996C4.00098 25.7315 10.2689 31.9995 18.0008 31.9995C25.7328 31.9995 32.0007 25.7315 32.0007 17.9996C32.0007 10.2677 25.7328 3.99976 18.0008 3.99976ZM6.00096 17.9996C6.00096 11.3723 11.3735 5.99974 18.0008 5.99974C24.6282 5.99974 30.0007 11.3723 30.0007 17.9996C30.0007 24.627 24.6282 29.9995 18.0008 29.9995C11.3735 29.9995 6.00096 24.627 6.00096 17.9996Z" fill="#0F1A38"/>
</svg>
