<svg width="36" height="36" viewBox="0 0 36 36" fill="none" xmlns="http://www.w3.org/2000/svg">
<path d="M11.07 6L4.14 18L11.07 30H24.93L31.85 18L24.93 6H11.07ZM23.77 28H12.23L6.45 18L12.23 8H23.77L29.55 18L23.77 28Z" fill="#0F1A38"/>
<path d="M18 12C16.8133 12 15.6533 12.3519 14.6666 13.0112C13.6799 13.6705 12.9108 14.6075 12.4567 15.7039C12.0026 16.8003 11.8838 18.0067 12.1153 19.1705C12.3468 20.3344 12.9182 21.4035 13.7574 22.2426C14.5965 23.0818 15.6656 23.6532 16.8295 23.8847C17.9933 24.1162 19.1997 23.9974 20.2961 23.5433C21.3925 23.0892 22.3295 22.3201 22.9888 21.3334C23.6481 20.3467 24 19.1867 24 18C24 16.4087 23.3679 14.8826 22.2426 13.7574C21.1174 12.6321 19.5913 12 18 12ZM18 22C17.2089 22 16.4355 21.7654 15.7777 21.3259C15.1199 20.8864 14.6072 20.2616 14.3045 19.5307C14.0017 18.7998 13.9225 17.9956 14.0769 17.2196C14.2312 16.4437 14.6122 15.731 15.1716 15.1716C15.731 14.6122 16.4437 14.2312 17.2196 14.0769C17.9956 13.9225 18.7998 14.0017 19.5307 14.3045C20.2616 14.6072 20.8864 15.1199 21.3259 15.7777C21.7654 16.4355 22 17.2089 22 18C22 19.0609 21.5786 20.0783 20.8284 20.8284C20.0783 21.5786 19.0609 22 18 22Z" fill="#0F1A38"/>
</svg>
