<svg width="36" height="36" viewBox="0 0 36 36" fill="none" xmlns="http://www.w3.org/2000/svg">
<path d="M8.66667 23.6001H6V16.6005C6 13.1217 7.32 9.88785 9.72 7.47998C12.1133 5.07911 15.26 3.84718 18.58 4.01517C24.98 4.33015 30 9.99984 30 16.9155V23.6001H27.3335V26.3996H26.0002C23.7935 26.3996 22.0002 24.5167 22.0002 22.1998V16.6001C22.0002 15.4242 21.5535 14.3392 20.7335 13.5343C19.9202 12.7293 18.8535 12.3303 17.7269 12.4073C15.6335 12.5473 13.9935 14.4722 13.9935 16.7891V22.1998C13.9935 25.1186 14.9669 27.9675 16.7335 30.2144L14.6802 31.9993C12.5202 29.2484 11.3335 25.7696 11.3335 22.1998V16.7891C11.3335 13.0023 14.0669 9.85247 17.5602 9.61448C19.4269 9.48848 21.2002 10.1534 22.5602 11.4904C23.9002 12.8133 24.6669 14.6752 24.6669 16.6001V22.1998C24.6669 22.9697 25.2669 23.5997 26.0002 23.5997L27.3335 23.6001L27.3333 16.9155C27.3333 11.4978 23.4333 7.06 18.4533 6.80802C15.8733 6.68202 13.42 7.64097 11.56 9.50287C9.69333 11.3788 8.66667 13.8986 8.66667 16.6005V23.6001Z" fill="#0F1A38"/>
<path d="M26.0002 32H27.3335V29.2002H26.0002C22.3202 29.2002 19.3335 26.0643 19.3335 22.2005V16.6009C19.3335 15.8309 18.7335 15.2009 18.0002 15.2009C17.2668 15.2009 16.6668 15.8309 16.6668 16.6009V22.2005C16.6668 27.6112 20.8468 32 26.0002 32Z" fill="#0F1A38"/>
</svg>
