<svg width="36" height="36" viewBox="0 0 36 36" fill="none" xmlns="http://www.w3.org/2000/svg">
<path d="M17.6337 4.28605C24.037 4.04059 29.3618 9.1652 29.3618 15.5732V21.0089H27.4618V15.5732C27.4618 10.2438 23.0339 5.98165 17.7087 6.18457C12.7129 6.40028 8.77354 10.5132 8.77354 15.5139V24.303H6.87354V15.5139C6.87354 9.49484 11.6158 4.5445 17.6293 4.28623L17.6701 5.23535L17.6337 4.28605Z" fill="#0F1A38"/>
<path d="M18.0828 10.303C15.2156 10.303 12.8912 12.6274 12.8912 15.4946V21.5068C12.8912 23.6096 13.4912 25.6688 14.6207 27.4424L16.1351 29.8205L14.5325 30.8411L13.0181 28.4631C11.6943 26.3844 10.9912 23.9712 10.9912 21.5068V15.4946C10.9912 11.578 14.1662 8.40302 18.0828 8.40302C21.9479 8.40302 25.1012 11.4981 25.1732 15.3626L25.2696 20.539C25.2932 21.8027 26.3243 22.8148 27.5882 22.8148V24.7148C25.2888 24.7148 23.4128 22.8734 23.37 20.5743L23.2735 15.398C23.2208 12.5689 20.9124 10.303 18.0828 10.303Z" fill="#0F1A38"/>
<path d="M18.2161 13C16.4998 13 15.1142 14.4023 15.1347 16.1186L15.2022 21.759C15.2199 23.2424 15.6186 24.6964 16.36 25.9813L16.8269 26.7904C17.1654 27.377 17.5536 27.9336 17.9872 28.454L18.2678 28.7906C19.1292 29.8243 20.1952 30.6686 21.3987 31.2703L22.2484 29.5709C21.2793 29.0864 20.421 28.4066 19.7274 27.5743L19.4468 27.2376C19.0827 26.8007 18.7568 26.3334 18.4726 25.8408L18.0057 25.0317C17.4271 24.0288 17.1159 22.8941 17.102 21.7363L17.0345 16.0958C17.0267 15.4377 17.558 14.9 18.2161 14.9C18.857 14.9 19.381 15.4109 19.3974 16.0516L19.5235 20.995C19.6031 24.1165 21.4583 26.9185 24.301 28.2106L25.5894 28.7962L26.3756 27.0665L25.0872 26.4809C22.9069 25.4899 21.484 23.3408 21.4229 20.9466L21.2968 16.0031C21.2541 14.3323 19.8874 13 18.2161 13Z" fill="#0F1A38"/>
</svg>
