<svg width="36" height="36" viewBox="0 0 36 36" fill="none" xmlns="http://www.w3.org/2000/svg">
<path d="M13.2617 23.1185C13.5414 23.3775 13.7318 23.7074 13.809 24.0667C13.8861 24.4259 13.8465 24.7982 13.6951 25.1365C13.5437 25.4749 13.2873 25.7641 12.9584 25.9676C12.6296 26.171 12.2429 26.2796 11.8474 26.2796C11.4518 26.2796 11.0651 26.171 10.7363 25.9676C10.4074 25.7641 10.151 25.4749 9.99964 25.1365C9.84825 24.7982 9.80861 24.4259 9.88575 24.0667C9.96288 23.7074 10.1533 23.3775 10.433 23.1185C10.6187 22.9465 10.8392 22.81 11.0819 22.7169C11.3246 22.6238 11.5847 22.5759 11.8474 22.5759C12.11 22.5759 12.3701 22.6238 12.6128 22.7169C12.8555 22.81 13.076 22.9465 13.2617 23.1185Z" fill="#0F1A38"/>
<path d="M25.809 24.0667C25.7318 23.7074 25.5414 23.3775 25.2617 23.1185C25.076 22.9465 24.8555 22.81 24.6128 22.7169C24.3701 22.6238 24.11 22.5759 23.8474 22.5759C23.5847 22.5759 23.3246 22.6238 23.0819 22.7169C22.8392 22.81 22.6187 22.9465 22.433 23.1185C22.1533 23.3775 21.9629 23.7074 21.8857 24.0667C21.8086 24.4259 21.8482 24.7982 21.9996 25.1365C22.151 25.4749 22.4074 25.7641 22.7363 25.9676C23.0651 26.171 23.4518 26.2796 23.8474 26.2796C24.2429 26.2796 24.6296 26.171 24.9584 25.9676C25.2873 25.7641 25.5437 25.4749 25.6951 25.1365C25.8465 24.7982 25.8861 24.4259 25.809 24.0667Z" fill="#0F1A38"/>
<path fill-rule="evenodd" clip-rule="evenodd" d="M8.4547 4.47097C6.30325 5.0675 4.91144 7.1139 5.00439 9.34458L5.72756 26.7008C5.79451 28.3077 7.11669 29.5759 8.72496 29.5759H8.84735V30.8907C8.84735 32.1692 9.96664 33.2056 11.3474 33.2056C12.7281 33.2056 13.8474 32.1692 13.8474 30.8907V29.5759H21.8474V30.8907C21.8474 32.1692 22.9666 33.2056 24.3474 33.2056C25.7281 33.2056 26.8474 32.1692 26.8474 30.8907V29.5759H26.9698C28.578 29.5759 29.9002 28.3077 29.9672 26.7008L30.6924 9.29582C30.7843 7.08826 29.4237 5.0557 27.2992 4.44899C20.5191 2.51278 15.513 2.51393 8.4547 4.47097ZM26.75 6.37211C20.3365 4.5406 15.7056 4.53597 8.98908 6.39826C8.00045 6.67238 7.2486 7.51795 7.05107 8.57593H28.6546C28.4739 7.50719 27.7307 6.65217 26.75 6.37211ZM28.2206 20.5759H7.47409L7.72583 26.6175C7.74815 27.1531 8.18887 27.5759 8.72496 27.5759H26.9698C27.5058 27.5759 27.9466 27.1531 27.9689 26.6175L28.2206 20.5759ZM10.8474 30.8907V29.5759H11.8474V30.8907C11.8474 31.1464 11.6235 31.3537 11.3474 31.3537C11.0712 31.3537 10.8474 31.1464 10.8474 30.8907ZM23.8474 30.8907V29.5759H24.8474V30.8907C24.8474 31.1464 24.6235 31.3537 24.3474 31.3537C24.0712 31.3537 23.8474 31.1464 23.8474 30.8907ZM7.84735 10.5759H27.8474V18.5759H7.84735V10.5759Z" fill="#0F1A38"/>
</svg>
