<svg width="36" height="36" viewBox="0 0 36 36" fill="none" xmlns="http://www.w3.org/2000/svg">
<path d="M12.7729 9.71597H22.9766C24.5598 9.71059 26.109 10.1717 27.4278 11.0408C28.7467 11.91 29.7758 13.1481 30.3848 14.5982C30.9938 16.0483 31.1552 17.6452 30.8487 19.1864C30.5421 20.7277 29.7814 22.1439 28.6628 23.2557L27.3456 21.9487C28.2054 21.0978 28.7912 20.0127 29.0287 18.831C29.2662 17.6494 29.1448 16.4243 28.6798 15.3112C28.2148 14.1981 27.4271 13.2471 26.4168 12.5787C25.4064 11.9103 24.2188 11.5547 23.0044 11.5569H12.8007L17.2532 15.9658L15.936 17.2728L9.25725 10.6364L15.936 4L17.2254 5.30703L12.7729 9.71597Z" fill="#0F1A38"/>
<path d="M5.15311 16.8045C5.46083 15.2667 6.22081 13.8538 7.33711 12.7443L8.65432 14.0513C7.79677 14.9 7.21175 15.9817 6.97305 17.16C6.73435 18.3382 6.85266 19.5602 7.31307 20.6718C7.77347 21.7834 8.55534 22.7348 9.56004 23.406C10.5647 24.0772 11.7473 24.4381 12.9584 24.4431H23.1621L18.7189 20.0342L20.0361 18.7272L26.7149 25.3636L20.0639 32L18.7467 30.693L23.19 26.284H12.9863C11.4062 26.2821 9.86216 25.8157 8.54902 24.9438C7.23587 24.0718 6.21251 22.8334 5.60812 21.3848C5.00372 19.9362 4.84539 18.3424 5.15311 16.8045Z" fill="#0F1A38"/>
</svg>
