<svg width="36" height="36" viewBox="0 0 36 36" fill="none" xmlns="http://www.w3.org/2000/svg">
<path d="M17.3651 6.75001H16.125V12.375H14.25V6.75001C14.2506 6.2529 14.4483 5.77632 14.7998 5.42482C15.1513 5.07331 15.6279 4.87558 16.125 4.87501H17.3651C17.7402 4.87377 18.1069 4.98557 18.4175 5.19583C18.7281 5.40608 18.9681 5.70505 19.1063 6.05373L21.635 12.375H19.6151L17.3651 6.75001Z" fill="#0F1A38"/>
<path fill-rule="evenodd" clip-rule="evenodd" d="M26.873 14.9183L29.798 16.6734C30.3105 16.9809 30.7081 17.448 30.9299 18.0031C31.1516 18.5581 31.1853 19.1706 31.0257 19.7466C30.8662 20.3226 30.5222 20.8304 30.0464 21.1923C29.5707 21.5541 28.9894 21.75 28.3917 21.75H21.4621L19.1063 28.0332C18.9713 28.39 18.7311 28.6974 18.4176 28.9147C18.104 29.132 17.7319 29.2489 17.3504 29.25H16.125C15.6279 29.2494 15.1513 29.0517 14.7998 28.7002C14.4483 28.3487 14.2506 27.8721 14.25 27.375V21.75H7.6875C6.94183 21.7492 6.22694 21.4526 5.69967 20.9253C5.1724 20.3981 4.87582 19.6832 4.875 18.9375V12.375C4.87557 11.8779 5.0733 11.4013 5.42481 11.0498C5.77631 10.6983 6.25289 10.5006 6.75 10.5H7.893C8.31136 10.4995 8.71785 10.6391 9.04762 10.8965C9.37739 11.154 9.61146 11.5144 9.7125 11.9204L10.2945 14.25H24.4613C25.311 14.2499 26.1446 14.4809 26.873 14.9183ZM20.1629 19.875H28.3917C28.5793 19.8749 28.7615 19.8132 28.9108 19.6996C29.0601 19.586 29.1681 19.4266 29.2182 19.2459C29.2683 19.0651 29.2578 18.8729 29.1883 18.6986C29.1188 18.5244 28.9941 18.3777 28.8333 18.2811L25.9083 16.526C25.4713 16.2636 24.9711 16.125 24.4613 16.125H23.625V18H21.75V16.125H18.9375V18H17.0625V16.125H14.25V18H12.375V16.125H8.8305L7.893 12.375H6.75V18.9375C6.75022 19.1861 6.84907 19.4244 7.02483 19.6002C7.2006 19.7759 7.43893 19.8748 7.6875 19.875H16.125V27.375H17.3504L20.1629 19.875Z" fill="#0F1A38"/>
</svg>
