<svg width="36" height="36" viewBox="0 0 36 36" fill="none" xmlns="http://www.w3.org/2000/svg">
<path d="M15.5 15C15.5 14.4477 15.0523 14 14.5 14C13.9477 14 13.5 14.4477 13.5 15L13.5 25C13.5 25.5523 13.9477 26 14.5 26C15.0523 26 15.5 25.5523 15.5 25L15.5 15Z" fill="#0F1A38"/>
<path d="M22.5 15C22.5 14.4477 22.0523 14 21.5 14C20.9477 14 20.5 14.4477 20.5 15V25C20.5 25.5523 20.9477 26 21.5 26C22.0523 26 22.5 25.5523 22.5 25V15Z" fill="#0F1A38"/>
<path fill-rule="evenodd" clip-rule="evenodd" d="M17.5 2C15.8431 2 14.5 3.34315 14.5 5V10H12.5C10.8431 10 9.5 11.3431 9.5 13V27C9.5 28.3062 10.3348 29.4175 11.5 29.8293V30.5C11.5 31.8807 12.6193 33 14 33C15.3807 33 16.5 31.8807 16.5 30.5V30H19.5V30.5C19.5 31.8807 20.6193 33 22 33C23.3807 33 24.5 31.8807 24.5 30.5V29.8293C25.6652 29.4175 26.5 28.3062 26.5 27V13C26.5 11.3431 25.1569 10 23.5 10H21.5V5C21.5 3.34315 20.1569 2 18.5 2H17.5ZM22.5 30H21.5V30.5C21.5 30.7761 21.7239 31 22 31C22.2761 31 22.5 30.7761 22.5 30.5V30ZM23.5 28C24.0523 28 24.5 27.5523 24.5 27V13C24.5 12.4477 24.0523 12 23.5 12H12.5C11.9477 12 11.5 12.4477 11.5 13V27C11.5 27.5523 11.9477 28 12.5 28H23.5ZM13.5 30.5V30H14.5L14.5 30.5C14.5 30.7761 14.2761 31 14 31C13.7239 31 13.5 30.7761 13.5 30.5ZM19.5 10V5C19.5 4.44772 19.0523 4 18.5 4H17.5C16.9477 4 16.5 4.44772 16.5 5V10H19.5Z" fill="#0F1A38"/>
</svg>
