<svg width="36" height="36" viewBox="0 0 36 36" fill="none" xmlns="http://www.w3.org/2000/svg">
<path fill-rule="evenodd" clip-rule="evenodd" d="M29.5661 22.9875L25.9611 19.8331H26.7121C27.7636 19.8331 28.3644 18.7816 27.7636 17.8804L19.0515 5.56328C18.6008 4.81224 17.3992 4.81224 16.9485 5.56328L8.23644 17.8804C7.6356 18.7816 8.23644 19.8331 9.2879 19.8331H9.88873L6.43394 22.9875C5.53268 23.7385 6.13352 25.0904 7.33519 25.0904H16.9485V30.0473C16.9485 30.6481 17.3992 30.9485 18 30.9485C18.6008 30.9485 19.0515 30.4979 19.0515 30.0473V25.2406H28.6648C29.8665 25.2406 30.4673 23.8887 29.5661 22.9875ZM18.9013 23.1377V18.331C18.9013 17.8804 18.4506 17.4298 17.8498 17.4298C17.249 17.4298 16.7983 17.7302 16.7983 18.331V23.1377H8.98748L12.4423 19.9833C13.3435 19.2323 12.7427 17.8804 11.541 17.8804H10.6398L18 7.51599L25.21 17.7302H24.0083C22.8067 17.7302 22.2058 19.2323 23.1071 19.9833L26.7121 23.1377H18.9013Z" fill="#0F1A38"/>
</svg>
