<svg width="36" height="36" viewBox="0 0 36 36" fill="none" xmlns="http://www.w3.org/2000/svg">
<path fill-rule="evenodd" clip-rule="evenodd" d="M18 4.93103C11.3345 4.93103 5.93103 10.3345 5.93103 17C5.93103 23.6655 11.3345 29.069 18 29.069C24.6655 29.069 30.069 23.6655 30.069 17C30.069 10.3345 24.6655 4.93103 18 4.93103ZM4 17C4 9.26801 10.268 3 18 3C25.732 3 32 9.26801 32 17C32 24.732 25.732 31 18 31C10.268 31 4 24.732 4 17ZM12.6897 17V11.2069H14.6207V17H12.6897ZM21.3793 17V11.2069H23.3103V17H21.3793ZM22.4003 23.0012C21.5332 21.8977 20.1601 20.8357 18 20.8357C15.8399 20.8357 14.4668 21.8977 13.5997 23.0012C13.1615 23.5589 12.8597 24.1212 12.6679 24.5451C12.5726 24.7559 12.5059 24.9292 12.4642 25.0461C12.4433 25.1045 12.4288 25.1485 12.4201 25.1757L12.4114 25.2037L12.4109 25.2052C12.4109 25.2052 12.4111 25.2044 11.4828 24.9392C10.5544 24.6739 10.5546 24.6731 10.5546 24.6731L10.5549 24.672L10.5556 24.6697L10.5574 24.6635L10.5627 24.6457C10.5671 24.6314 10.5729 24.6123 10.5804 24.5888C10.5954 24.5418 10.617 24.4769 10.6456 24.3967C10.7029 24.2363 10.7889 24.0136 10.9086 23.7492C11.1467 23.2228 11.5238 22.5178 12.0813 21.8082C13.2057 20.3772 15.0911 18.9047 18 18.9047C20.9089 18.9047 22.7943 20.3772 23.9187 21.8082C24.4762 22.5178 24.8533 23.2228 25.0914 23.7492C25.2111 24.0136 25.2971 24.2363 25.3544 24.3967C25.383 24.4769 25.4046 24.5418 25.4196 24.5888C25.4271 24.6123 25.4329 24.6314 25.4373 24.6457L25.4426 24.6635L25.4444 24.6697L25.4451 24.672L25.4454 24.6731C25.4454 24.6731 25.4456 24.6739 24.5172 24.9392C23.5889 25.2044 23.5891 25.2052 23.5891 25.2052L23.5896 25.2069L23.5886 25.2037L23.5799 25.1757C23.5712 25.1485 23.5567 25.1045 23.5358 25.0461C23.4941 24.9292 23.4274 24.7559 23.3321 24.5451C23.1403 24.1212 22.8385 23.5589 22.4003 23.0012Z" fill="#0F1A38"/>
</svg>
