<svg width="36" height="36" viewBox="0 0 36 36" fill="none" xmlns="http://www.w3.org/2000/svg">
<path d="M29 14C29 10.134 25.866 7 22 7C19.1602 7 16.7153 8.69103 15.6175 11.1211L15.5587 11.3076L14.0404 9.7956C15.5501 6.94332 18.5481 5 22 5C26.9705 5 31 9.02944 31 14C31 17.4472 29.062 20.4417 26.216 21.9534L24.7117 20.4554C27.231 19.3958 29 16.9045 29 14Z" fill="#0F1A38"/>
<path d="M7 22C7 25.866 10.134 29 14 29C16.8375 29 19.2807 27.3117 20.3798 24.8848L20.4399 24.6895L21.9612 26.2013C20.452 29.0553 17.4531 31 14 31C9.02944 31 5 26.9706 5 22C5 18.5455 6.94622 15.5457 9.80199 14.037L11.3054 15.5374C8.77698 16.5929 7 19.0889 7 22Z" fill="#0F1A38"/>
<path d="M8.41421 6.98579L7 8.4L26.799 28.199L28.2132 26.7848L8.41421 6.98579Z" fill="#0F1A38"/>
</svg>
