<svg width="36" height="36" viewBox="0 0 36 36" fill="none" xmlns="http://www.w3.org/2000/svg">
<path d="M20.4327 4.20721C20.9328 4.07209 21.4588 4 22.0017 4C25.3154 4 28.0017 6.68629 28.0017 10C28.0017 13.3137 25.3154 16 22.0017 16C21.4588 16 20.9328 15.9279 20.4327 15.7928C21.144 15.3092 21.7615 14.6981 22.2524 13.9923C24.3447 13.8629 26.0017 12.1249 26.0017 10C26.0017 7.87506 24.3447 6.13712 22.2524 6.00773C21.7615 5.30193 21.144 4.6908 20.4327 4.20721Z" fill="#0F1A38"/>
<path d="M24.8835 20.4665C24.1784 19.5963 23.2959 18.7467 22.2757 18.0033C28.8528 18.1615 34.0017 24.0009 34.0017 31H32.0017C32.0017 25.9704 28.9623 21.8195 24.8835 20.4665Z" fill="#0F1A38"/>
<path d="M15.0017 20C9.55899 20 5.00171 24.8412 5.00171 31H3.00171C3.00171 23.904 8.29417 18 15.0017 18C21.7093 18 27.0017 23.904 27.0017 31H25.0017C25.0017 24.8412 20.4444 20 15.0017 20Z" fill="#0F1A38"/>
<path fill-rule="evenodd" clip-rule="evenodd" d="M21.0031 10C21.0031 13.3137 18.3168 16 15.0031 16C11.6893 16 9.00305 13.3137 9.00305 10C9.00305 6.68629 11.6893 4 15.0031 4C18.3168 4 21.0031 6.68629 21.0031 10ZM19.0031 10C19.0031 12.2091 17.2122 14 15.0031 14C12.7939 14 11.0031 12.2091 11.0031 10C11.0031 7.79086 12.7939 6 15.0031 6C17.2122 6 19.0031 7.79086 19.0031 10Z" fill="#0F1A38"/>
</svg>
