<svg width="36" height="36" viewBox="0 0 36 36" fill="none" xmlns="http://www.w3.org/2000/svg">
<path fill-rule="evenodd" clip-rule="evenodd" d="M18 5.5C17.6311 5.5 17.3076 5.69922 17.1332 6.00073C17.0487 6.14679 17 6.3162 17 6.5C17 6.6838 17.0487 6.85321 17.1332 6.99927C17.3076 7.30078 17.6311 7.5 18 7.5C18.3689 7.5 18.6924 7.30078 18.8668 6.99927C18.9513 6.85321 19 6.6838 19 6.5C19 6.31619 18.9513 6.14679 18.8668 6.00073C18.6924 5.69922 18.3689 5.5 18 5.5ZM15.8763 4.38123C16.4187 3.83769 17.1696 3.5 18 3.5C18.8304 3.5 19.5813 3.83769 20.1237 4.38123L23.3217 3.63187C23.6347 3.55852 24.1437 3.45184 24.6868 3.57921C26.0123 3.89009 27 5.07849 27 6.5C27 7.92151 26.0123 9.10991 24.6868 9.42078C24.1437 9.54816 23.6347 9.44148 23.3217 9.36813L20.1237 8.61877C19.8104 8.93272 19.4276 9.17799 19 9.32919L19 10.6001C20.221 10.848 21.2798 11.5408 22.0003 12.5H24.1707C24.5825 11.3348 25.6938 10.5 27 10.5H28V8.5H30V23.5H28V21.5H27C25.6938 21.5 24.5825 20.6652 24.1707 19.5H22.0003C21.0891 20.713 19.637 21.5 18 21.5C16.3631 21.5 14.9109 20.713 13.9998 19.5H13V24.5H6V18.5C6 15.1863 8.68629 12.5 12 12.5H13.9998C14.7203 11.5408 15.7791 10.848 17 10.6001L17 9.32919C16.5725 9.178 16.1896 8.93272 15.8763 8.61877L12.6783 9.36813C12.3653 9.44148 11.8563 9.54816 11.3132 9.42079C9.98771 9.10991 9 7.92151 9 6.5C9 5.07849 9.98771 3.89009 11.3132 3.57921C11.8563 3.45184 12.3653 3.55852 12.6783 3.63187L15.8763 4.38123ZM15.0118 6.23283L12.222 5.57912C11.9368 5.51227 11.825 5.51344 11.7699 5.52638C11.3281 5.62998 11 6.02788 11 6.5C11 6.97212 11.3281 7.37002 11.7699 7.47362C11.825 7.48656 11.9368 7.48773 12.222 7.42088L15.0118 6.76717C15.004 6.67908 15 6.58997 15 6.5C15 6.41003 15.004 6.32092 15.0118 6.23283ZM24 17.5V14.5H20.8881L20.5993 14.0007C20.0791 13.1014 19.1092 12.5 18 12.5C16.8909 12.5 15.921 13.1014 15.4008 14.0007L15.1119 14.5H12C9.79086 14.5 8 16.2909 8 18.5V22.5H11V17.5H15.1119L15.4008 17.9993C15.921 18.8986 16.8909 19.5 18 19.5C19.1092 19.5 20.0791 18.8986 20.5993 17.9993L20.8881 17.5H24ZM28 19.5V12.5H27C26.4477 12.5 26 12.9477 26 13.5V18.5C26 19.0523 26.4477 19.5 27 19.5H28ZM20.9882 6.76717L23.778 7.42088C24.0632 7.48773 24.175 7.48656 24.2301 7.47362C24.6719 7.37002 25 6.97211 25 6.5C25 6.02788 24.6719 5.62998 24.2301 5.52638C24.175 5.51344 24.0632 5.51227 23.778 5.57912L20.9882 6.23283C20.996 6.32092 21 6.41003 21 6.5C21 6.58997 20.996 6.67908 20.9882 6.76717ZM10.1879 25.7742L9.5 26.5L8.81212 25.7742L9.5 25.1223L10.1879 25.7742ZM9.5 27.9517C9.42591 28.0365 9.34999 28.126 9.27437 28.2185C9.04324 28.5014 8.83227 28.7923 8.68388 29.0559C8.61028 29.1866 8.56052 29.2958 8.53064 29.3819C8.50218 29.4639 8.50001 29.5009 8.50001 29.5009C8.50001 30.0532 8.94772 30.5 9.5 30.5C10.0523 30.5 10.5 30.0523 10.5 29.5C10.5 29.5 10.4978 29.4639 10.4694 29.3819C10.4395 29.2958 10.3897 29.1866 10.3161 29.0559C10.1677 28.7923 9.95676 28.5014 9.72563 28.2185C9.65001 28.126 9.57409 28.0365 9.5 27.9517ZM8.81212 25.7742C8.81212 25.7742 8.81212 25.7742 9.5 26.5C10.1879 25.7742 10.1879 25.7742 10.1879 25.7742L10.191 25.7771L10.197 25.7829L10.2173 25.8024C10.2344 25.8189 10.2584 25.8423 10.2885 25.8719C10.3485 25.9312 10.4328 26.0157 10.5333 26.1202C10.7332 26.3281 11.0024 26.6202 11.2744 26.9531C11.5432 27.2821 11.8323 27.6722 12.0589 28.0747C12.2704 28.4503 12.5 28.9608 12.5 29.5C12.5 31.1569 11.1569 32.5 9.5 32.5C7.84315 32.5 6.5 31.1569 6.5 29.5C6.5 28.9608 6.7296 28.4503 6.94112 28.0747C7.16773 27.6722 7.45676 27.2821 7.72563 26.9531C7.99758 26.6202 8.26685 26.3281 8.46675 26.1202C8.56723 26.0157 8.65151 25.9312 8.71154 25.8719C8.74158 25.8423 8.76564 25.8189 8.78272 25.8024L8.803 25.7829L8.809 25.7771L8.81212 25.7742Z" fill="#0F1A38"/>
</svg>
