<svg width="36" height="36" viewBox="0 0 36 36" fill="none" xmlns="http://www.w3.org/2000/svg">
<path d="M14.4144 21.3574C14.694 21.6164 14.8845 21.9463 14.9616 22.3055C15.0387 22.6648 14.9991 23.0371 14.8477 23.3754C14.6963 23.7138 14.44 24.003 14.1111 24.2065C13.7822 24.4099 13.3955 24.5185 13 24.5185C12.6045 24.5185 12.2178 24.4099 11.8889 24.2065C11.56 24.003 11.3037 23.7138 11.1523 23.3754C11.0009 23.0371 10.9613 22.6648 11.0384 22.3055C11.1155 21.9463 11.306 21.6164 11.5856 21.3574C11.7713 21.1854 11.9918 21.0489 12.2345 20.9558C12.4772 20.8627 12.7373 20.8148 13 20.8148C13.2627 20.8148 13.5228 20.8627 13.7655 20.9558C14.0082 21.0489 14.2287 21.1854 14.4144 21.3574Z" fill="#0F1A38"/>
<path d="M24.4144 21.3574C24.694 21.6164 24.8845 21.9463 24.9616 22.3055C25.0387 22.6648 24.9991 23.0371 24.8477 23.3754C24.6963 23.7138 24.44 24.003 24.1111 24.2065C23.7822 24.4099 23.3955 24.5185 23 24.5185C22.6045 24.5185 22.2178 24.4099 21.8889 24.2065C21.56 24.003 21.3037 23.7138 21.1523 23.3754C21.0009 23.0371 20.9613 22.6648 21.0384 22.3055C21.1155 21.9463 21.306 21.6164 21.5856 21.3574C21.7713 21.1854 21.9918 21.0489 22.2345 20.9558C22.4772 20.8627 22.7373 20.8148 23 20.8148C23.2627 20.8148 23.5228 20.8627 23.7655 20.9558C24.0082 21.0489 24.2287 21.1854 24.4144 21.3574Z" fill="#0F1A38"/>
<path fill-rule="evenodd" clip-rule="evenodd" d="M9 18.963C7.89543 18.963 7 19.7921 7 20.8148V23.5926C7 24.6153 7.89543 25.4444 9 25.4444H26C27.1046 25.4444 28 24.6153 28 23.5926V20.8148C28 19.7921 27.1046 18.963 26 18.963H9ZM5 20.8148C5 18.7693 6.79086 17.1111 9 17.1111H26C28.2091 17.1111 30 18.7693 30 20.8148V23.5926C30 25.6381 28.2091 27.2963 26 27.2963H9C6.79086 27.2963 5 25.6381 5 23.5926V20.8148Z" fill="#0F1A38"/>
<path fill-rule="evenodd" clip-rule="evenodd" d="M12.8394 7.85185C11.8846 7.85185 11.0629 8.47685 10.8775 9.34417L8.98097 18.2168C8.87375 18.7185 8.34763 19.0446 7.80585 18.9453C7.26407 18.8461 6.9118 18.3589 7.01903 17.8573L8.91555 8.98463C9.28633 7.25 10.9297 6 12.8394 6H22.1606C24.0703 6 25.7137 7.25 26.0844 8.98463L27.981 17.8573C28.0882 18.3589 27.7359 18.8461 27.1942 18.9453C26.6524 19.0446 26.1263 18.7185 26.019 18.2168L24.1225 9.34417C23.9371 8.47685 23.1154 7.85185 22.1606 7.85185H12.8394Z" fill="#0F1A38"/>
<path fill-rule="evenodd" clip-rule="evenodd" d="M8 26.3704C8.55228 26.3704 9 26.7849 9 27.2963L9 28.6852C9 28.9409 9.22386 29.1481 9.5 29.1481C9.77614 29.1481 10 28.9409 10 28.6852V27.2963C10 26.7849 10.4477 26.3704 11 26.3704C11.5523 26.3704 12 26.7849 12 27.2963V28.6852C12 29.9636 10.8807 31 9.5 31C8.11929 31 7 29.9636 7 28.6852V27.2963C7 26.7849 7.44772 26.3704 8 26.3704Z" fill="#0F1A38"/>
<path fill-rule="evenodd" clip-rule="evenodd" d="M24 26.3704C24.5523 26.3704 25 26.7849 25 27.2963V28.6852C25 28.9409 25.2239 29.1481 25.5 29.1481C25.7761 29.1481 26 28.9409 26 28.6852V27.2963C26 26.7849 26.4477 26.3704 27 26.3704C27.5523 26.3704 28 26.7849 28 27.2963V28.6852C28 29.9636 26.8807 31 25.5 31C24.1193 31 23 29.9636 23 28.6852V27.2963C23 26.7849 23.4477 26.3704 24 26.3704Z" fill="#0F1A38"/>
</svg>
