<svg width="36" height="36" viewBox="0 0 36 36" fill="none" xmlns="http://www.w3.org/2000/svg">
<path d="M6.5 6C4.567 6 3 7.567 3 9.5V26C3 28.2091 4.79086 30 7 30H28C30.2091 30 32 28.2091 32 26V22.8293C33.1652 22.4175 34 21.3062 34 20C34 18.6938 33.1652 17.5825 32 17.1707V15C32 12.7909 30.2091 11 28 11H25.6632C25.8792 10.5454 26 10.0368 26 9.5C26 7.567 24.433 6 22.5 6H6.5ZM6.5 11C5.67157 11 5 10.3284 5 9.5C5 8.67157 5.67157 8 6.5 8H22.5C23.3284 8 24 8.67157 24 9.5C24 10.3284 23.3284 11 22.5 11H6.5ZM30 17H28C26.3431 17 25 18.3431 25 20C25 21.6569 26.3431 23 28 23H30V26C30 27.1046 29.1046 28 28 28H7C5.89543 28 5 27.1046 5 26V12.6632C5.45463 12.8792 5.9632 13 6.5 13H28C29.1046 13 30 13.8954 30 15V17ZM28 21C27.4477 21 27 20.5523 27 20C27 19.4477 27.4477 19 28 19H31C31.5523 19 32 19.4477 32 20C32 20.5523 31.5523 21 31 21H28Z" fill="#0F1A38"/>
</svg>
