<svg width="36" height="36" viewBox="0 0 36 36" fill="none" xmlns="http://www.w3.org/2000/svg">
<path d="M19.7639 12.4996C19.7639 13.328 19.0924 13.9996 18.2639 13.9996C17.4355 13.9996 16.764 13.328 16.764 12.4996C16.764 11.6712 17.4355 10.9996 18.2639 10.9996C19.0924 10.9996 19.7639 11.6712 19.7639 12.4996Z" fill="#0F1A38"/>
<path d="M19.2647 26.9995V15.9996H17.2647V26.9995H19.2647Z" fill="#0F1A38"/>
<path fill-rule="evenodd" clip-rule="evenodd" d="M14.8006 6C16.3402 3.33333 20.1892 3.33333 21.7288 6L32.9871 25.5C34.5267 28.1667 32.6022 31.5 29.523 31.5H7.00633C3.92713 31.5 2.00263 28.1667 3.54223 25.5L14.8006 6ZM19.9967 7L31.255 26.5C32.0248 27.8333 31.0626 29.5 29.523 29.5H7.00633C5.46673 29.5 4.50448 27.8333 5.27428 26.5L16.5326 7C17.3024 5.66667 19.2269 5.66667 19.9967 7Z" fill="#0F1A38"/>
</svg>
