<svg width="36" height="36" viewBox="0 0 36 36" fill="none" xmlns="http://www.w3.org/2000/svg">
<path fill-rule="evenodd" clip-rule="evenodd" d="M11.7069 25.2548C11.5085 25.4838 11.2307 25.6541 10.844 25.6388L10.8359 25.6386C10.2093 25.6386 9.67229 25.1767 9.57401 24.5471L7.35728 10.3424H5.00037L7.2786 24.917C7.55547 26.6908 9.06617 27.998 10.8398 27.998C12.6116 27.998 14.1221 26.6927 14.399 24.9191L15.998 14.7132C16.0355 14.5364 16.1453 14.263 16.3496 14.0367C16.551 13.8137 16.8425 13.637 17.2588 13.637C17.6752 13.637 17.9675 13.8137 18.1697 14.037C18.3748 14.2633 18.4855 14.5367 18.5236 14.7136L20.1225 24.9168C20.4013 26.693 21.9123 28 23.6857 28C25.4575 28 26.9665 26.6966 27.247 24.9242L29.0148 13.7713C29.1428 12.9582 29.8359 12.3614 30.6458 12.3614H32.0004V10H30.6458C28.6903 10 27.025 11.438 26.7153 13.3945L24.9472 24.5491C24.8464 25.1763 24.313 25.6386 23.6837 25.6386C23.0545 25.6386 22.518 25.1739 22.4199 24.545L20.8201 14.3362C20.5413 12.5617 19.0321 11.2549 17.2588 11.2549C15.4857 11.2549 13.9766 12.5619 13.6976 14.3362L12.0626 24.5437C12.0215 24.7342 11.9083 25.0222 11.7069 25.2548Z" fill="#0F1A38"/>
</svg>
