<svg width="36" height="36" viewBox="0 0 36 36" fill="none" xmlns="http://www.w3.org/2000/svg">
<path fill-rule="evenodd" clip-rule="evenodd" d="M12 8C12 6.34315 13.3431 5 15 5H21C22.6569 5 24 6.34315 24 8V9H30C32.2091 9 34 10.7909 34 13V15.6577C34 17.4931 32.7508 19.0931 30.9701 19.5382L22 21.7808V23C22 24.1046 21.1046 25 20 25H16C14.8954 25 14 24.1046 14 23V21.7808L5.02986 19.5382C3.24919 19.0931 2 17.4931 2 15.6577V13C2 10.7909 3.79086 9 6 9H12V8ZM14 9H22V8C22 7.44772 21.5523 7 21 7H15C14.4477 7 14 7.44772 14 8V9ZM14 19.7192V19C14 17.8954 14.8954 17 16 17H20C21.1046 17 22 17.8954 22 19V19.7192L30.4851 17.598C31.3754 17.3754 32 16.5754 32 15.6577V13C32 11.8954 31.1046 11 30 11H6C4.89543 11 4 11.8954 4 13V15.6577C4 16.5754 4.62459 17.3754 5.51493 17.598L14 19.7192ZM20 19H16V23H20V19ZM3 20C3.55228 20 4 20.4477 4 21V27C4 28.1046 4.89543 29 6 29H30C31.1046 29 32 28.1046 32 27V21C32 20.4477 32.4477 20 33 20C33.5523 20 34 20.4477 34 21V27C34 29.2091 32.2091 31 30 31H6C3.79086 31 2 29.2091 2 27V21C2 20.4477 2.44772 20 3 20Z" fill="#0F1A38"/>
</svg>
