<svg width="36" height="36" viewBox="0 0 36 36" fill="none" xmlns="http://www.w3.org/2000/svg">
<path d="M14.8223 10.2889H13.1778V13.1778H10.2889V14.8222H13.1778V17.7111H14.8223V14.8222H17.7111V13.1778H14.8223V10.2889Z" fill="#0F1A38"/>
<path fill-rule="evenodd" clip-rule="evenodd" d="M21.8151 7.75129C23.2317 9.52573 24.0022 11.7294 24 13.9999C24.0022 16.3049 23.2033 18.539 21.74 20.3199L31.74 30.3199L30.32 31.7399L20.32 21.7399C18.5604 23.1749 16.3649 23.9684 14.0945 23.9898C11.824 24.0112 9.6139 23.2594 7.82752 21.8579C6.04114 20.4564 4.78488 18.4888 4.26533 16.2785C3.74578 14.0682 3.99388 11.7469 4.96882 9.69634C5.94376 7.64579 7.5875 5.98806 9.62972 4.99577C11.6719 4.00349 13.991 3.73572 16.2057 4.23652C18.4203 4.73732 20.3985 5.97686 21.8151 7.75129ZM9.55544 20.6517C10.871 21.5307 12.4178 21.9999 14 21.9999C16.1217 21.9999 18.1566 21.1571 19.6569 19.6568C21.1572 18.1565 22 16.1217 22 13.9999C22 12.4177 21.5308 10.871 20.6518 9.55537C19.7727 8.23978 18.5233 7.2144 17.0615 6.6089C15.5997 6.0034 13.9911 5.84497 12.4393 6.15365C10.8874 6.46233 9.46197 7.22426 8.34315 8.34308C7.22433 9.4619 6.4624 10.8874 6.15372 12.4392C5.84504 13.9911 6.00347 15.5996 6.60897 17.0614C7.21447 18.5232 8.23985 19.7726 9.55544 20.6517Z" fill="#0F1A38"/>
</svg>
